<svg width="20" height="20" viewBox="0 0 20 20" fill="none" xmlns="http://www.w3.org/2000/svg">
<path d="M9.99984 13.3334H10.0073" stroke="#048EFF" stroke-linecap="round" stroke-linejoin="round"/>
<path d="M10 10.8334L10 6.66671" stroke="#048EFF" stroke-linecap="round" stroke-linejoin="round"/>
<path d="M13.5901 3.6533C13.0976 3.6533 12.8513 3.6533 12.6269 3.57006C12.5958 3.5585 12.5651 3.54578 12.5349 3.53192C12.3174 3.43214 12.1432 3.25801 11.795 2.90974C10.9934 2.10816 10.5926 1.70737 10.0994 1.67041C10.0331 1.66544 9.96654 1.66544 9.90024 1.67041C9.40708 1.70737 9.00629 2.10816 8.20471 2.90974C7.85645 3.25801 7.68231 3.43214 7.46481 3.53192C7.4346 3.54578 7.40389 3.5585 7.37273 3.57006C7.14838 3.6533 6.90212 3.6533 6.40959 3.6533H6.31874C5.06216 3.6533 4.43386 3.65331 4.04349 4.04368C3.65312 4.43405 3.65312 5.06234 3.65312 6.31893V6.40977C3.65312 6.9023 3.65312 7.14856 3.56988 7.37291C3.55832 7.40407 3.54559 7.43479 3.53174 7.46499C3.43196 7.6825 3.25783 7.85663 2.90956 8.2049C2.10798 9.00648 1.70719 9.40727 1.67023 9.90042C1.66526 9.96673 1.66526 10.0333 1.67023 10.0996C1.70719 10.5928 2.10798 10.9936 2.90956 11.7951C3.25783 12.1434 3.43196 12.3175 3.53174 12.535C3.54559 12.5653 3.55832 12.596 3.56988 12.6271C3.65312 12.8515 3.65312 13.0977 3.65312 13.5903V13.6811C3.65312 14.9377 3.65312 15.566 4.04349 15.9564C4.43386 16.3467 5.06216 16.3467 6.31874 16.3467H6.40959C6.90212 16.3467 7.14838 16.3467 7.37273 16.43C7.40389 16.4415 7.4346 16.4543 7.46481 16.4681C7.68231 16.5679 7.85645 16.742 8.20471 17.0903C9.00629 17.8919 9.40708 18.2927 9.90024 18.3296C9.96654 18.3346 10.0331 18.3346 10.0994 18.3296C10.5926 18.2927 10.9934 17.8919 11.795 17.0903C12.1432 16.742 12.3174 16.5679 12.5349 16.4681C12.5651 16.4543 12.5958 16.4415 12.6269 16.43C12.8513 16.3467 13.0976 16.3467 13.5901 16.3467H13.6809C14.9375 16.3467 15.5658 16.3467 15.9562 15.9564C16.3466 15.566 16.3465 14.9377 16.3465 13.6811V13.5903C16.3465 13.0977 16.3466 12.8515 16.4298 12.6271C16.4414 12.596 16.4541 12.5653 16.4679 12.535C16.5677 12.3175 16.7418 12.1434 17.0901 11.7951C17.8917 10.9936 18.2925 10.5928 18.3294 10.0996C18.3344 10.0333 18.3344 9.96673 18.3294 9.90042C18.2925 9.40727 17.8917 9.00648 17.0901 8.2049C16.7418 7.85663 16.5677 7.6825 16.4679 7.46499C16.4541 7.43479 16.4414 7.40407 16.4298 7.37291C16.3466 7.14856 16.3465 6.9023 16.3465 6.40977V6.31893C16.3465 5.06234 16.3466 4.43405 15.9562 4.04368C15.5658 3.65331 14.9375 3.6533 13.6809 3.6533H13.5901Z" stroke="#048EFF"/>
</svg>
