<svg width="16" height="16" viewBox="0 0 16 16" fill="none" xmlns="http://www.w3.org/2000/svg">
<path d="M2.8501 6.95625V10.0625C2.8501 11.2 2.8501 11.2 3.9251 11.925L6.88135 13.6313C7.3251 13.8875 8.0501 13.8875 8.49385 13.6313L11.4501 11.925C12.5251 11.2 12.5251 11.2 12.5251 10.0625V6.95625C12.5251 5.81875 12.5251 5.81875 11.4501 5.09375L8.49385 3.3875C8.0501 3.13125 7.3251 3.13125 6.88135 3.3875L3.9251 5.09375C2.8501 5.81875 2.8501 5.81875 2.8501 6.95625Z" stroke="#007EE5" stroke-width="0.705882" stroke-linecap="round" stroke-linejoin="round"/>
<path d="M11.1235 4.83711V3.19336C11.1235 1.94336 10.4985 1.31836 9.24854 1.31836H6.12354C4.87354 1.31836 4.24854 1.94336 4.24854 3.19336V4.79336" stroke="#007EE5" stroke-width="0.705882" stroke-linecap="round" stroke-linejoin="round"/>
<path d="M8.08087 6.93672L8.43712 7.49297C8.49337 7.58047 8.61837 7.66797 8.71212 7.69297L9.34962 7.85547C9.74337 7.95547 9.84962 8.29297 9.59337 8.60547L9.17462 9.11172C9.11212 9.19297 9.06212 9.33672 9.06837 9.43672L9.10587 10.093C9.13087 10.4992 8.84337 10.7055 8.46837 10.5555L7.85587 10.3117C7.76212 10.2742 7.60587 10.2742 7.51212 10.3117L6.89962 10.5555C6.52462 10.7055 6.23712 10.493 6.26212 10.093L6.29962 9.43672C6.30587 9.33672 6.25587 9.18672 6.19337 9.11172L5.77462 8.60547C5.51837 8.29297 5.62462 7.95547 6.01837 7.85547L6.65587 7.69297C6.75587 7.66797 6.88087 7.57422 6.93087 7.49297L7.28712 6.93672C7.51212 6.59922 7.86212 6.59922 8.08087 6.93672Z" stroke="#007EE5" stroke-width="0.705882" stroke-linecap="round" stroke-linejoin="round"/>
</svg>
