<svg width="18" height="18" viewBox="0 0 18 18" fill="none" xmlns="http://www.w3.org/2000/svg">
<path d="M0.666504 12.6251C0.666504 12.6251 2.16262 12 4.83317 12C8.99984 12 12.3332 14.5 17.3332 14.5" stroke="#048EFF" stroke-linecap="round" stroke-linejoin="round"/>
<path d="M0.666504 17H17.3332" stroke="#048EFF" stroke-linecap="round" stroke-linejoin="round"/>
<path d="M9.49486 2.18968C7.12348 2.86973 5.58209 5.2102 5.67008 7.7292C5.68836 8.25239 5.6975 8.51398 5.92106 8.62968C6.14462 8.74537 6.37666 8.5814 6.84073 8.25346L7.87538 7.52233C8.03077 7.41252 8.21524 7.35962 8.40111 7.37156L10.8313 7.52768L12.8629 6.09202C13.0183 5.98221 13.2028 5.92931 13.3887 5.94125L14.6564 6.02269C15.2004 6.05764 15.4724 6.07511 15.6074 5.86569C15.7425 5.65628 15.6327 5.42986 15.4131 4.97702C14.3212 2.72491 11.8792 1.50589 9.49486 2.18968Z" stroke="#048EFF" stroke-linecap="round" stroke-linejoin="round"/>
<path d="M11.0833 7.41669L12.75 13.6667M9.2381 2.00002L9 1.16669" stroke="#048EFF" stroke-linecap="round" stroke-linejoin="round"/>
</svg>
