<svg width="31" height="30" viewBox="0 0 31 30" fill="none" xmlns="http://www.w3.org/2000/svg">
<path d="M21.4241 18.6945C21.4241 18.9045 21.3773 19.1205 21.2778 19.3306C21.1784 19.5406 21.0496 19.7391 20.88 19.9258C20.5932 20.2409 20.2773 20.4685 19.9204 20.6144C19.5693 20.7603 19.189 20.8362 18.7794 20.8362C18.1826 20.8362 17.5448 20.6961 16.8719 20.4102C16.199 20.1242 15.5261 19.7391 14.8591 19.2547C14.1862 18.7645 13.5484 18.2218 12.9399 17.6207C12.3372 17.0138 11.793 16.3777 11.3074 15.7124C10.8276 15.0471 10.4414 14.3819 10.1605 13.7224C9.87969 13.0572 9.73926 12.4211 9.73926 11.8141C9.73926 11.4173 9.80947 11.038 9.9499 10.6879C10.0903 10.3319 10.3127 10.0051 10.6228 9.71329C10.9973 9.34564 11.4069 9.16473 11.8398 9.16473C12.0037 9.16473 12.1675 9.19975 12.3138 9.26978C12.4659 9.33981 12.6005 9.44485 12.7058 9.59658L14.0633 11.5049C14.1686 11.6507 14.2447 11.785 14.2973 11.9134C14.35 12.0359 14.3793 12.1585 14.3793 12.2693C14.3793 12.4094 14.3383 12.5494 14.2564 12.6837C14.1803 12.8179 14.0692 12.9579 13.9287 13.098L13.484 13.559C13.4197 13.6232 13.3904 13.6991 13.3904 13.7925C13.3904 13.8391 13.3963 13.88 13.408 13.9267C13.4255 13.9734 13.4431 14.0084 13.4548 14.0434C13.5601 14.236 13.7415 14.4869 13.9989 14.7904C14.2622 15.0938 14.5431 15.4031 14.8474 15.7124C15.1633 16.0217 15.4676 16.3076 15.7777 16.5703C16.082 16.827 16.3336 17.0021 16.5325 17.1071C16.5618 17.1188 16.5969 17.1363 16.6378 17.1538C16.6846 17.1713 16.7315 17.1772 16.7841 17.1772C16.8836 17.1772 16.9596 17.1422 17.024 17.078L17.4687 16.6403C17.615 16.4944 17.7554 16.3835 17.89 16.3135C18.0246 16.2318 18.1591 16.1909 18.3054 16.1909C18.4166 16.1909 18.5336 16.2143 18.6623 16.2668C18.7911 16.3193 18.9257 16.3952 19.0719 16.4944L21.0087 17.8658C21.1608 17.9708 21.2661 18.0934 21.3305 18.2393C21.389 18.3852 21.4241 18.5311 21.4241 18.6945Z" stroke="#0578FF" stroke-width="0.823864" stroke-miterlimit="10"/>
<path d="M19.3936 13.2498C19.3936 12.8997 19.1186 12.3628 18.709 11.9251C18.3346 11.5225 17.8372 11.2073 17.3457 11.2073" stroke="#0578FF" stroke-width="0.823864" stroke-linecap="round" stroke-linejoin="round"/>
<path d="M21.4415 13.2497C21.4415 10.9913 19.6101 9.16473 17.3457 9.16473" stroke="#0578FF" stroke-width="0.823864" stroke-linecap="round" stroke-linejoin="round"/>
</svg>
