<svg width="20" height="20" viewBox="0 0 20 20" fill="none" xmlns="http://www.w3.org/2000/svg">
<path d="M17.5 5.83268V14.166C17.5 16.666 16.25 18.3327 13.3333 18.3327H6.66667C3.75 18.3327 2.5 16.666 2.5 14.166V5.83268C2.5 3.33268 3.75 1.66602 6.66667 1.66602H13.3333C16.25 1.66602 17.5 3.33268 17.5 5.83268Z" stroke="#CF161C" stroke-miterlimit="10" stroke-linecap="round" stroke-linejoin="round"/>
<path d="M8.6263 15.1471C10.4673 15.1471 11.9596 13.6548 11.9596 11.8138C11.9596 9.97285 10.4673 8.48047 8.6263 8.48047C6.78535 8.48047 5.29297 9.97285 5.29297 11.8138C5.29297 13.6548 6.78535 15.1471 8.6263 15.1471Z" stroke="#CF161C" stroke-miterlimit="10" stroke-linecap="round" stroke-linejoin="round"/>
<path d="M9.52057 12.7388L7.75391 10.9805" stroke="#CF161C" stroke-miterlimit="10" stroke-linecap="round" stroke-linejoin="round"/>
<path d="M9.50495 10.998L7.73828 12.7647" stroke="#CF161C" stroke-miterlimit="10" stroke-linecap="round" stroke-linejoin="round"/>
<path d="M12.082 3.75V5.41667C12.082 6.33333 12.832 7.08333 13.7487 7.08333H15.4154" stroke="#CF161C" stroke-miterlimit="10" stroke-linecap="round" stroke-linejoin="round"/>
</svg>
