<svg width="20" height="20" viewBox="0 0 20 20" fill="none" xmlns="http://www.w3.org/2000/svg">
<path d="M17.5 5.83268V14.166C17.5 16.666 16.25 18.3327 13.3333 18.3327H6.66667C3.75 18.3327 2.5 16.666 2.5 14.166V5.83268C2.5 3.33268 3.75 1.66602 6.66667 1.66602H13.3333C16.25 1.66602 17.5 3.33268 17.5 5.83268Z" stroke="#06AC3F" stroke-miterlimit="10" stroke-linecap="round" stroke-linejoin="round"/>
<path d="M12.082 3.75V5.41667C12.082 6.33333 12.832 7.08333 13.7487 7.08333H15.4154" stroke="#06AC3F" stroke-miterlimit="10" stroke-linecap="round" stroke-linejoin="round"/>
<path d="M7.32812 12.4514L7.86979 12.9931C8.02813 13.1514 8.28646 13.1598 8.44479 13.0014L9.92813 11.6348" stroke="#06AC3F" stroke-linecap="round" stroke-linejoin="round"/>
<path d="M8.6263 15.7839C10.4673 15.7839 11.9596 14.2915 11.9596 12.4505C11.9596 10.6096 10.4673 9.11719 8.6263 9.11719C6.78535 9.11719 5.29297 10.6096 5.29297 12.4505C5.29297 14.2915 6.78535 15.7839 8.6263 15.7839Z" stroke="#06AC3F" stroke-miterlimit="10" stroke-linecap="round" stroke-linejoin="round"/>
</svg>
