<svg width="12" height="13" viewBox="0 0 12 13" fill="none" xmlns="http://www.w3.org/2000/svg">
<g clip-path="url(#clip0_2670_80891)">
<path d="M5.875 6.35803H5.88125" stroke="#727272" stroke-width="0.8" stroke-linecap="round" stroke-linejoin="round"/>
<path d="M7.83291 3.42097V2.44224C7.83291 2.18266 7.72979 1.93371 7.54625 1.75017C7.3627 1.56662 7.11375 1.4635 6.85418 1.4635H4.8967C4.63713 1.4635 4.38818 1.56662 4.20463 1.75017C4.02109 1.93371 3.91797 2.18266 3.91797 2.44224V3.42097" stroke="#727272" stroke-width="0.8" stroke-linecap="round" stroke-linejoin="round"/>
<path d="M10.7678 6.84631C9.31577 7.80498 7.61412 8.31603 5.87415 8.31603C4.13418 8.31603 2.43252 7.80498 0.980469 6.84631" stroke="#727272" stroke-width="0.8" stroke-linecap="round" stroke-linejoin="round"/>
<path d="M9.78909 3.42053H1.9592C1.41866 3.42053 0.980469 3.85873 0.980469 4.39927V9.29295C0.980469 9.83349 1.41866 10.2717 1.9592 10.2717H9.78909C10.3296 10.2717 10.7678 9.83349 10.7678 9.29295V4.39927C10.7678 3.85873 10.3296 3.42053 9.78909 3.42053Z" stroke="#727272" stroke-width="0.8" stroke-linecap="round" stroke-linejoin="round"/>
</g>
<defs>
<clipPath id="clip0_2670_80891">
<rect width="11.7448" height="11.7448" fill="white" transform="translate(0 0.484985)"/>
</clipPath>
</defs>
</svg>
