<svg width="11" height="14" viewBox="0 0 11 14" fill="none" xmlns="http://www.w3.org/2000/svg">
<g clip-path="url(#clip0_53_2)">
<path d="M7.67176 3.82228C7.67176 4.98207 6.73156 5.92228 5.57176 5.92228V6.72228C7.17338 6.72228 8.47176 5.4239 8.47176 3.82228H7.67176ZM5.57176 5.92228C4.41196 5.92228 3.47176 4.98207 3.47176 3.82228H2.67176C2.67176 5.4239 3.97013 6.72228 5.57176 6.72228V5.92228ZM3.47176 3.82228C3.47176 2.66248 4.41196 1.72228 5.57176 1.72228V0.922272C3.97013 0.922272 2.67176 2.22065 2.67176 3.82228H3.47176ZM5.57176 1.72228C6.73156 1.72228 7.67176 2.66248 7.67176 3.82228H8.47176C8.47176 2.22065 7.17338 0.922272 5.57176 0.922272V1.72228ZM3.69676 8.59728H7.44676V7.79728H3.69676V8.59728ZM7.44676 12.7973H3.69676V13.5973H7.44676V12.7973ZM3.69676 12.7973C2.53696 12.7973 1.59676 11.8571 1.59676 10.6973H0.796753C0.796753 12.2989 2.09513 13.5973 3.69676 13.5973V12.7973ZM9.54676 10.6973C9.54676 11.8571 8.60656 12.7973 7.44676 12.7973V13.5973C9.04838 13.5973 10.3468 12.2989 10.3468 10.6973H9.54676ZM7.44676 8.59728C8.60656 8.59728 9.54676 9.53748 9.54676 10.6973H10.3468C10.3468 9.09565 9.04838 7.79728 7.44676 7.79728V8.59728ZM3.69676 7.79728C2.09513 7.79728 0.796753 9.09565 0.796753 10.6973H1.59676C1.59676 9.53748 2.53696 8.59728 3.69676 8.59728V7.79728Z" fill="#727272"/>
</g>
<defs>
<clipPath id="clip0_53_2">
<rect width="11" height="14" fill="white"/>
</clipPath>
</defs>
</svg>
