<svg width="11" height="14" viewBox="0 0 11 14" fill="none" xmlns="http://www.w3.org/2000/svg">
<path d="M7.67178 3.82227C7.67178 4.98206 6.73158 5.92227 5.57178 5.92227V6.72227C7.1734 6.72227 8.47178 5.42389 8.47178 3.82227H7.67178ZM5.57178 5.92227C4.41198 5.92227 3.47178 4.98206 3.47178 3.82227H2.67178C2.67178 5.42389 3.97015 6.72227 5.57178 6.72227V5.92227ZM3.47178 3.82227C3.47178 2.66247 4.41198 1.72227 5.57178 1.72227V0.922266C3.97015 0.922266 2.67178 2.22064 2.67178 3.82227H3.47178ZM5.57178 1.72227C6.73158 1.72227 7.67178 2.66247 7.67178 3.82227H8.47178C8.47178 2.22064 7.1734 0.922266 5.57178 0.922266V1.72227ZM3.69678 8.59727H7.44678V7.79727H3.69678V8.59727ZM7.44678 12.7973H3.69678V13.5973H7.44678V12.7973ZM3.69678 12.7973C2.53698 12.7973 1.59678 11.8571 1.59678 10.6973H0.796777C0.796777 12.2989 2.09515 13.5973 3.69678 13.5973V12.7973ZM9.54678 10.6973C9.54678 11.8571 8.60658 12.7973 7.44678 12.7973V13.5973C9.0484 13.5973 10.3468 12.2989 10.3468 10.6973H9.54678ZM7.44678 8.59727C8.60658 8.59727 9.54678 9.53747 9.54678 10.6973H10.3468C10.3468 9.09564 9.0484 7.79727 7.44678 7.79727V8.59727ZM3.69678 7.79727C2.09515 7.79727 0.796777 9.09564 0.796777 10.6973H1.59678C1.59678 9.53747 2.53698 8.59727 3.69678 8.59727V7.79727Z" fill="#007EE5"/>
</svg>
