<svg width="25" height="24" viewBox="0 0 25 24" fill="none" xmlns="http://www.w3.org/2000/svg">
<g clip-path="url(#clip0_2723_130720)">
<path d="M5.98047 10C6.53275 10 6.98047 9.55228 6.98047 9C6.98047 8.44772 6.53275 8 5.98047 8C5.42818 8 4.98047 8.44772 4.98047 9C4.98047 9.55228 5.42818 10 5.98047 10Z" stroke="#B5B5BE" stroke-width="2" stroke-linecap="round" stroke-linejoin="round"/>
<path d="M5.98047 16C6.53275 16 6.98047 15.5523 6.98047 15C6.98047 14.4477 6.53275 14 5.98047 14C5.42818 14 4.98047 14.4477 4.98047 15C4.98047 15.5523 5.42818 16 5.98047 16Z" stroke="#B5B5BE" stroke-width="2" stroke-linecap="round" stroke-linejoin="round"/>
<path d="M12.9805 10C13.5328 10 13.9805 9.55228 13.9805 9C13.9805 8.44772 13.5328 8 12.9805 8C12.4282 8 11.9805 8.44772 11.9805 9C11.9805 9.55228 12.4282 10 12.9805 10Z" stroke="#B5B5BE" stroke-width="2" stroke-linecap="round" stroke-linejoin="round"/>
<path d="M12.9805 16C13.5328 16 13.9805 15.5523 13.9805 15C13.9805 14.4477 13.5328 14 12.9805 14C12.4282 14 11.9805 14.4477 11.9805 15C11.9805 15.5523 12.4282 16 12.9805 16Z" stroke="#B5B5BE" stroke-width="2" stroke-linecap="round" stroke-linejoin="round"/>
<path d="M19.9805 10C20.5328 10 20.9805 9.55228 20.9805 9C20.9805 8.44772 20.5328 8 19.9805 8C19.4282 8 18.9805 8.44772 18.9805 9C18.9805 9.55228 19.4282 10 19.9805 10Z" stroke="#B5B5BE" stroke-width="2" stroke-linecap="round" stroke-linejoin="round"/>
<path d="M19.9805 16C20.5328 16 20.9805 15.5523 20.9805 15C20.9805 14.4477 20.5328 14 19.9805 14C19.4282 14 18.9805 14.4477 18.9805 15C18.9805 15.5523 19.4282 16 19.9805 16Z" stroke="#B5B5BE" stroke-width="2" stroke-linecap="round" stroke-linejoin="round"/>
</g>
<defs>
<clipPath id="clip0_2723_130720">
<rect width="24" height="24" fill="white" transform="translate(0.980469)"/>
</clipPath>
</defs>
</svg>
