<svg width="240" height="193" viewBox="0 0 240 193" fill="none" xmlns="http://www.w3.org/2000/svg">
<g opacity="0.2">
<path d="M88.0394 176.488C88.4073 176.319 88.7502 176.267 88.9932 176.689C88.673 176.633 88.2933 176.859 88.0394 176.488Z" fill="url(#paint0_radial_626_34084)"/>
</g>
<g filter="url(#filter0_d_626_34084)">
<path d="M-367.059 94.3706V68.5602L-389.518 55.6981V29.2367L-367.059 16.3747V-9.43578L-389.518 -22.2978V-48.7592L-367.059 -61.6208V-87.1064L-389.518 -99.9684V-126.43L-366.484 -139.659L-343.929 -126.706L-321.575 -139.66L-299.222 -126.706L-276.869 -139.66L-254.515 -126.706L-232.003 -139.659L-209.491 -126.706L-187.137 -139.66L-164.783 -126.706L-142.271 -139.659L-119.759 -126.706L-97.4053 -139.66L-75.0513 -126.706L-52.5394 -139.659L-30.0275 -126.706L-7.67352 -139.66L14.6804 -126.706L37.1923 -139.659L59.7042 -126.706L82.0582 -139.66L104.412 -126.706L126.924 -139.659L149.436 -126.706L171.79 -139.66L172.03 -139.521L194.144 -126.706L216.656 -139.659L239.168 -126.706L261.522 -139.66L261.762 -139.521L283.876 -126.706L306.388 -139.659L328.9 -126.706L351.254 -139.66L351.494 -139.521L373.608 -126.706L396.12 -139.659L418.632 -126.706L440.986 -139.66L441.226 -139.521L463.339 -126.706L485.851 -139.659L508.361 -126.706L530.713 -139.66L530.949 -139.521L553.053 -126.706L575.547 -139.659L598.503 -126.43V-100.294L620.963 -87.4319V-60.9705L598.503 -48.1085V-22.6234L620.963 -9.76134V16.7003L598.503 29.5623V55.3726L620.963 68.2346V94.696L598.503 107.558V133.368L620.963 146.23V172.692L597.954 185.921L575.425 172.968L553.071 185.922L530.718 172.968L508.365 185.922L486.011 172.968L463.499 185.921L440.987 172.968L418.633 185.922L396.279 172.968L373.767 185.921L351.255 172.968L328.901 185.922L306.547 172.968L284.035 185.921L261.523 172.968L239.169 185.922L216.815 172.968L194.303 185.921L171.791 172.968L149.437 185.922L127.083 172.968L104.571 185.921L82.0595 172.968L59.7055 185.922L37.3514 172.968L14.8396 185.921L-7.6723 172.968L-30.0263 185.922L-52.3802 172.968L-74.8922 185.921L-97.4041 172.968L-119.758 185.922L-142.112 172.968L-164.624 185.921L-187.136 172.968L-209.49 185.922L-231.844 172.968L-254.355 185.921L-276.866 172.968L-299.219 185.922L-321.57 172.968L-344.077 185.921L-367.059 172.692V146.556L-389.518 133.694V107.232L-367.059 94.3706ZM-254.117 -47.9248V-22.8514L-231.978 -10.1731L-209.839 -22.8514V-48.0176L-231.82 -60.6944L-254.117 -47.9248ZM-208.984 -48.0176V-22.8503L-187.273 -10.174L-165.561 -22.8505V-48.1085L-187.272 -60.6944L-208.984 -48.0176ZM-164.278 -47.9248V-22.8514L-142.246 -10.1731L-120.214 -22.8514V-48.0176L-142.087 -60.6944L-164.278 -47.9248ZM-119.358 -48.0176V-22.8503L-97.4329 -10.174L-75.5078 -22.8505V-48.1085L-97.4321 -60.6944L-119.358 -48.0176ZM-74.8661 -47.9248V-22.8514L-52.7271 -10.1731L-30.588 -22.8514V-48.0176L-52.5683 -60.6944L-74.8661 -47.9248ZM-29.5185 -48.0176V-22.8503L-7.59332 -10.174L14.3318 -22.8505V-48.1085L-7.59253 -60.6944L-29.5185 -48.0176ZM15.1874 -47.9248V-22.8514L37.1125 -10.1731L59.0377 -22.8514V-48.0176L37.2712 -60.6944L15.1874 -47.9248ZM60.3211 -48.0176V-22.8503L82.2462 -10.174L104.171 -22.8505V-48.1085L82.2471 -60.6944L60.3211 -48.0176ZM104.599 -47.9248V-22.8514L126.738 -10.1731L148.877 -22.8514V-48.0174L126.897 -60.6944L104.599 -47.9248ZM149.947 -48.0176V-22.8503L171.658 -10.174L193.369 -22.8505V-48.1085L171.659 -60.6944L149.947 -48.0176ZM194.439 -47.9248V-22.8514L216.578 -10.1731L238.717 -22.8514V-48.0174L216.737 -60.6944L194.439 -47.9248ZM239.786 -48.0176V-22.8503L261.605 -10.174L283.423 -22.8503V-48.1083L261.605 -60.6942L239.786 -48.0176ZM284.278 -47.9248V-22.8514L306.31 -10.1731L328.343 -22.8514V-48.0174L306.469 -60.6944L284.278 -47.9248ZM329.198 -48.0176V-22.8503L351.123 -10.174L373.048 -22.8505V-48.1085L351.124 -60.6944L329.198 -48.0176ZM374.332 -47.9248V-22.8514L396.257 -10.1731L418.182 -22.8514V-48.0174L396.416 -60.6944L374.332 -47.9248ZM419.038 -48.0176V-22.8503L440.963 -10.174L462.888 -22.8505V-48.1085L440.964 -60.6944L419.038 -48.0176ZM463.958 -47.9248V-22.8514L486.097 -10.1731L508.236 -22.8514V-48.0174L486.255 -60.6944L463.958 -47.9248ZM530.268 68.7873L508.45 56.111L486.631 68.7873V94.1432L508.45 106.819L530.268 94.1432V68.7873ZM-187.273 67.8218L-165.561 55.1454V29.7895L-187.273 17.1131L-208.984 29.7895V55.1454L-187.273 67.8218ZM440.856 -9.20839L418.824 -21.8848L396.792 -9.20839V16.1475L418.824 28.8239L440.856 16.1475V-9.20839ZM395.722 -9.20753L373.69 -21.8858L351.658 -9.20753V16.1465L373.69 28.8248L395.722 16.1465V-9.20753ZM350.589 -9.20839L328.877 -21.8848L307.166 -9.20839V16.1475L328.877 28.8239L350.589 16.1475V-9.20839ZM306.097 -9.20753L283.957 -21.8858L261.818 -9.20753V16.1465L283.957 28.8248L306.097 16.1465V-9.20753ZM260.963 -9.20839L239.038 -21.885L217.113 -9.20839V16.1475L239.038 28.8239L260.963 16.1475V-9.20839ZM216.257 -9.20753L194.225 -21.8858L172.193 -9.20753V16.1465L194.225 28.8248L216.257 16.1465V-9.20753ZM171.123 -9.20839L149.198 -21.8848L127.273 -9.20839V16.1475L149.198 28.8239L171.123 16.1475V-9.20839ZM126.203 -9.20753L104.492 -21.8858L82.781 -9.20753V16.1465L104.492 28.8248L126.203 16.1465V-9.20753ZM81.7115 -9.20839L59.7864 -21.8848L37.8612 -9.20839V16.1475L59.7864 28.8239L81.7115 16.1475V-9.20839ZM37.0056 -9.20753L14.8666 -21.8858L-7.27246 -9.20753V16.1465L14.8666 28.8248L37.0056 16.1465V-9.20753ZM-8.34198 -9.20839L-30.1602 -21.8848L-51.9784 -9.20839V16.1475L-30.1602 28.8239L-8.34198 16.1475V-9.20839ZM-52.834 -9.20753L-74.8661 -21.8858L-96.8981 -9.20753V16.1465L-74.8661 28.8248L-52.834 16.1465V-9.20753ZM-97.9677 -9.20839L-119.786 -21.8848L-141.604 -9.20839V16.1475L-119.786 28.8239L-97.9677 16.1475V-9.20839ZM-142.46 -9.20753L-164.599 -21.8858L-186.738 -9.20753V16.1465L-164.599 28.8248L-142.46 16.1465V-9.20753ZM-142.246 67.8228L-120.214 55.1445V29.7903L-142.246 17.112L-164.278 29.7903V55.1445L-142.246 67.8228ZM-97.4329 67.8218L-75.5078 55.1454V29.7895L-97.4329 17.1131L-119.358 29.7895V55.1454L-97.4329 67.8218ZM-52.7271 67.8228L-30.588 55.1445V29.7903L-52.7271 17.112L-74.8661 29.7903V55.1445L-52.7271 67.8228ZM-7.59332 67.8218L14.3318 55.1454V29.7895L-7.59332 17.1131L-29.5185 29.7895V55.1454L-7.59332 67.8218ZM37.1125 67.8228L59.0377 55.1445V29.7903L37.1125 17.112L15.1874 29.7903V55.1445L37.1125 67.8228ZM82.2462 67.8218L104.171 55.1454V29.7895L82.2462 17.1131L60.3211 29.7895V55.1454L82.2462 67.8218ZM126.738 67.8228L148.877 55.1445V29.7903L126.738 17.112L104.599 29.7903V55.1445L126.738 67.8228ZM171.658 67.8218L193.369 55.1454V29.7895L171.658 17.1131L149.947 29.7895V55.1454L171.658 67.8218ZM216.578 67.8228L238.717 55.1445V29.7903L216.578 17.112L194.439 29.7903V55.1445L216.578 67.8228ZM261.605 67.8218L283.423 55.1454V29.7895L261.605 17.1131L239.786 29.7895V55.1454L261.605 67.8218ZM306.31 67.8228L328.343 55.1445V29.7903L306.31 17.112L284.278 29.7903V55.1445L306.31 67.8228ZM351.123 67.8218L373.048 55.1454V29.7895L351.123 17.1131L329.198 29.7895V55.1454L351.123 67.8218ZM396.257 67.8228L418.182 55.1445V29.7903L396.257 17.112L374.332 29.7903V55.1445L396.257 67.8228ZM440.963 67.8218L462.888 55.1454V29.7895L440.963 17.1131L419.038 29.7895V55.1454L440.963 67.8218ZM486.097 67.8228L508.236 55.1445V29.7903L486.097 17.112L463.958 29.7903V55.1445L486.097 67.8228ZM485.562 -9.20753L463.637 -21.8858L441.712 -9.20753V16.1465L463.637 28.8248L485.562 16.1465V-9.20753ZM-231.444 16.1475L-209.625 28.8239L-187.807 16.1475V-9.20839L-209.625 -21.8848L-231.444 -9.20839V16.1475ZM-254.117 55.1445L-231.978 67.8228L-209.839 55.1445V29.7903L-231.978 17.112L-254.117 29.7903V55.1445ZM-231.444 94.1432L-209.625 106.819L-187.807 94.1432V68.7873L-209.625 56.111L-231.444 68.7873V94.1432ZM-186.738 94.1424L-164.599 106.82L-142.46 94.1424V68.7882L-164.599 56.1099L-186.738 68.7882V94.1424ZM-141.604 94.1432L-119.786 106.819L-97.9677 94.1432V68.7873L-119.786 56.111L-141.604 68.7873V94.1432ZM-96.8981 94.1424L-74.8661 106.82L-52.834 94.1424V68.7882L-74.8661 56.1099L-96.8981 68.7882V94.1424ZM-51.9784 94.1432L-30.1602 106.819L-8.34198 94.1432V68.7873L-30.1602 56.111L-51.9784 68.7873V94.1432ZM-7.27246 94.1424L14.8666 106.82L37.0056 94.1424V68.7882L14.8666 56.1099L-7.27246 68.7882V94.1424ZM37.8612 94.1432L59.7864 106.819L81.7115 94.1432V68.7873L59.7864 56.111L37.8612 68.7873V94.1432ZM82.781 94.1424L104.492 106.82L126.203 94.1424V68.7882L104.492 56.1099L82.781 68.7882V94.1424ZM127.273 94.1432L149.198 106.819L171.123 94.1432V68.7873L149.198 56.111L127.273 68.7873V94.1432ZM172.193 94.1424L194.225 106.82L216.257 94.1424V68.7882L194.225 56.1099L172.193 68.7882V94.1424ZM217.113 94.1432L239.038 106.819L260.963 94.1432V68.7873L239.038 56.111L217.113 68.7873V94.1432ZM261.818 94.1424L283.957 106.82L306.097 94.1424V68.7882L283.957 56.1099L261.818 68.7882V94.1424ZM307.166 94.1432L328.877 106.819L350.589 94.1432V68.7873L328.877 56.111L307.166 68.7873V94.1432ZM351.658 94.1424L373.69 106.82L395.722 94.1424V68.7882L373.69 56.1099L351.658 68.7882V94.1424ZM396.792 94.1432L418.824 106.819L440.856 94.1432V68.7873L418.824 56.111L396.792 68.7873V94.1432ZM441.712 94.1424L463.637 106.82L485.562 94.1424V68.7882L463.637 56.1099L441.712 68.7882V94.1424ZM530.268 -9.20839L508.45 -21.8848L486.631 -9.20839V16.1475L508.45 28.8239L530.268 16.1475V-9.20839ZM-276.363 16.1465L-254.438 28.8248L-232.513 16.1465V-9.20753L-254.438 -21.8858L-276.363 -9.20753V16.1465ZM-276.363 94.1424L-254.438 106.82L-232.513 94.1424V68.7882L-254.438 56.1099L-276.363 68.7882V94.1424ZM552.3 29.7895L530.589 17.1131L508.877 29.7895V55.1454L530.589 67.8218L552.3 55.1454V29.7895ZM552.3 -22.8505V-48.0176L530.589 -60.694L508.877 -48.0178V-22.8505L530.589 -10.1742L552.3 -22.8505ZM-299.037 -22.8505L-277.112 -10.1742L-255.187 -22.8505V-48.1085L-277.111 -60.6944L-299.037 -48.0176V-22.8505ZM-299.037 55.1454L-277.112 67.8218L-255.187 55.1454V29.7895L-277.112 17.1131L-299.037 29.7895V55.1454ZM-299.037 133.141L-277.112 145.817L-255.187 133.141V107.785L-277.112 95.1088L-299.037 107.785V133.141ZM-254.117 133.14L-231.978 145.818L-209.839 133.14V107.786L-231.978 95.108L-254.117 107.786V133.14ZM-208.984 133.141L-187.273 145.817L-165.561 133.141V107.785L-187.273 95.1088L-208.984 107.785V133.141ZM-164.278 133.14L-142.246 145.818L-120.214 133.14V107.786L-142.246 95.108L-164.278 107.786V133.14ZM-119.358 133.141L-97.4329 145.817L-75.5078 133.141V107.785L-97.4329 95.1088L-119.358 107.785V133.141ZM-74.8661 133.14L-52.7271 145.818L-30.588 133.14V107.786L-52.7271 95.108L-74.8661 107.786V133.14ZM-29.5185 133.141L-7.59332 145.817L14.3318 133.141V107.785L-7.59332 95.1088L-29.5185 107.785V133.141ZM15.1874 133.14L37.1125 145.818L59.0377 133.14V107.786L37.1125 95.108L15.1874 107.786V133.14ZM60.3211 133.141L82.2462 145.817L104.171 133.141V107.785L82.2462 95.1088L60.3211 107.785V133.141ZM104.599 133.14L126.738 145.818L148.877 133.14V107.786L126.738 95.108L104.599 107.786V133.14ZM149.947 133.141L171.658 145.817L193.369 133.141V107.785L171.658 95.1088L149.947 107.785V133.141ZM194.439 133.14L216.578 145.818L238.717 133.14V107.786L216.578 95.108L194.439 107.786V133.14ZM239.786 133.141L261.605 145.817L283.423 133.141V107.785L261.605 95.1088L239.786 107.785V133.141ZM284.278 133.14L306.31 145.818L328.343 133.14V107.786L306.31 95.108L284.278 107.786V133.14ZM329.198 133.141L351.123 145.817L373.048 133.141V107.785L351.123 95.1088L329.198 107.785V133.141ZM374.332 133.14L396.257 145.818L418.182 133.14V107.786L396.257 95.108L374.332 107.786V133.14ZM419.038 133.141L440.963 145.817L462.888 133.141V107.785L440.963 95.1088L419.038 107.785V133.141ZM463.958 133.14L486.097 145.818L508.236 133.14V107.786L486.097 95.108L463.958 107.786V133.14ZM508.877 133.141L530.589 145.817L552.3 133.141V107.785L530.589 95.1088L508.877 107.785V133.141ZM530.268 -86.8792L508.45 -99.5555L486.631 -86.8792V-61.6208L508.449 -49.0353L530.268 -61.7117V-86.8792ZM485.562 -86.8783L463.637 -99.5566L441.712 -86.8783V-61.7119L463.478 -49.0353L485.562 -61.8045V-86.8783ZM440.856 -86.8792L418.824 -99.5555L396.792 -86.8792V-61.6208L418.823 -49.0353L440.856 -61.7117V-86.8792ZM395.722 -86.8783L373.69 -99.5566L351.658 -86.8783V-61.7119L373.531 -49.0353L395.722 -61.8045V-86.8783ZM350.589 -86.8792L328.877 -99.5555L307.166 -86.8792V-61.6208L328.876 -49.0353L350.589 -61.7117V-86.8792ZM306.097 -86.8783L283.957 -99.5566L261.818 -86.8783V-61.7119L283.799 -49.0353L306.097 -61.8045V-86.8783ZM260.963 -86.8792L239.038 -99.5555L217.113 -86.8792V-61.6208L239.037 -49.0353L260.963 -61.7117V-86.8792ZM216.257 -86.8783L194.225 -99.5566L172.193 -86.8783V-61.7119L194.066 -49.0353L216.257 -61.8045V-86.8783ZM171.123 -86.8792L149.198 -99.5555L127.273 -86.8792V-61.6208L149.197 -49.0353L171.123 -61.7117V-86.8792ZM126.203 -86.8783L104.492 -99.5566L82.781 -86.8783V-61.7117L104.334 -49.0353L126.203 -61.8045V-86.8783ZM81.7115 -86.8792L59.7864 -99.5555L37.8612 -86.8792V-61.6208L59.7855 -49.0353L81.7115 -61.7117V-86.8792ZM37.0056 -86.8783L14.8666 -99.5566L-7.27246 -86.8783V-61.7117L14.7078 -49.0353L37.0056 -61.8045V-86.8783ZM-8.34198 -86.8792L-30.1602 -99.5555L-51.9784 -86.8792V-61.6208L-30.161 -49.0353L-8.34198 -61.7117V-86.8792ZM-52.834 -86.8783L-74.8661 -99.5566L-96.8981 -86.8783V-61.7117L-75.0248 -49.0353L-52.834 -61.8045V-86.8783ZM-97.9677 -86.8792L-119.786 -99.5555L-141.604 -86.8792V-61.6208L-119.787 -49.0353L-97.9677 -61.7117V-86.8792ZM-142.46 -86.8783L-164.599 -99.5566L-186.738 -86.8783V-61.7117L-164.757 -49.0353L-142.46 -61.8045V-86.8783ZM-187.807 -86.8792L-209.625 -99.5555L-231.444 -86.8792V-61.6208L-209.626 -49.0353L-187.807 -61.7117V-86.8792ZM-232.513 -86.8783L-254.438 -99.5566L-276.363 -86.8783V-61.7117L-254.597 -49.0353L-232.513 -61.8045V-86.8783ZM-277.647 -86.8792L-299.465 -99.5555L-321.283 -86.8792V-61.7117L-299.465 -49.0358L-277.647 -61.7117V-86.8792ZM-321.283 16.1475L-299.465 28.8239L-277.647 16.1475V-9.20839L-299.465 -21.8848L-321.283 -9.20839V16.1475ZM-321.283 94.1432L-299.465 106.819L-277.647 94.1432V68.7873L-299.465 56.111L-321.283 68.7873V94.1432ZM-321.497 95.1088L-343.315 107.785V133.141L-321.497 145.817L-299.679 133.141V107.785L-321.497 95.1088ZM574.974 68.7873L553.048 56.111L531.123 68.7873V94.1432L553.048 106.819L574.974 94.1432V68.7873ZM574.974 -9.20839L553.048 -21.8848L531.123 -9.20839V16.1475L553.048 28.8239L574.974 16.1475V-9.20839ZM574.974 -86.8792L553.048 -99.5555L531.123 -86.8792V-61.7119L553.049 -49.0353L574.974 -61.6208V-86.8792ZM-343.315 -22.8505L-321.497 -10.1742L-299.679 -22.8505V-48.0178L-321.498 -60.6946L-343.315 -48.1085V-22.8505ZM-343.315 55.1454L-321.497 67.8218L-299.679 55.1454V29.7895L-321.497 17.1131L-343.315 29.7895V55.1454ZM597.433 107.786L575.294 95.108L553.155 107.786V133.14L575.294 145.818L597.433 133.14V107.786ZM597.433 29.7903L575.294 17.112L553.155 29.7903V55.1445L575.294 67.8228L597.433 55.1445V29.7903ZM597.433 -22.8514V-47.9248L575.136 -60.6944L553.155 -48.0176V-22.8514L575.294 -10.1731L597.433 -22.8514ZM-366.203 -86.8783V-61.8048L-343.905 -49.0353L-321.925 -61.7117V-86.8783L-344.064 -99.5566L-366.203 -86.8783ZM-366.203 16.1465L-344.064 28.8248L-321.925 16.1465V-9.20753L-344.064 -21.8858L-366.203 -9.20753V16.1465ZM-366.203 94.1424L-344.064 106.82L-321.925 94.1424V68.7882L-344.064 56.1099L-366.203 68.7882V94.1424ZM-388.235 133.14L-366.203 145.818L-344.171 133.14V107.786L-366.203 95.108L-388.235 107.786V133.14ZM-344.064 184.816L-321.925 172.138V146.784L-344.064 134.106L-366.203 146.784V172.138L-344.064 184.816ZM-299.465 184.815L-277.647 172.139V146.783L-299.465 134.107L-321.283 146.783V172.139L-299.465 184.815ZM-254.438 184.816L-232.513 172.138V146.784L-254.438 134.106L-276.363 146.784V172.138L-254.438 184.816ZM-209.625 184.815L-187.807 172.139V146.783L-209.625 134.107L-231.444 146.783V172.139L-209.625 184.815ZM-164.599 184.816L-142.46 172.138V146.784L-164.599 134.106L-186.738 146.784V172.138L-164.599 184.816ZM-119.786 184.815L-97.9677 172.139V146.783L-119.786 134.107L-141.604 146.783V172.139L-119.786 184.815ZM-74.8661 184.816L-52.834 172.138V146.784L-74.8661 134.106L-96.8981 146.784V172.138L-74.8661 184.816ZM-30.1602 184.815L-8.34198 172.139V146.783L-30.1602 134.107L-51.9784 146.783V172.139L-30.1602 184.815ZM14.8666 184.816L37.0056 172.138V146.784L14.8666 134.106L-7.27246 146.784V172.138L14.8666 184.816ZM59.7864 184.815L81.7115 172.139V146.783L59.7864 134.107L37.8612 146.783V172.139L59.7864 184.815ZM104.492 184.816L126.203 172.138V146.784L104.492 134.106L82.781 146.784V172.138L104.492 184.816ZM149.198 184.815L171.123 172.139V146.783L149.198 134.107L127.273 146.783V172.139L149.198 184.815ZM194.225 184.816L216.257 172.138V146.784L194.225 134.106L172.193 146.784V172.138L194.225 184.816ZM239.038 184.815L260.963 172.139V146.783L239.038 134.107L217.113 146.783V172.139L239.038 184.815ZM283.957 184.816L306.097 172.138V146.784L283.957 134.106L261.818 146.784V172.138L283.957 184.816ZM328.877 184.815L350.589 172.139V146.783L328.877 134.107L307.166 146.783V172.139L328.877 184.815ZM373.69 184.816L395.722 172.138V146.784L373.69 134.106L351.658 146.784V172.138L373.69 184.816ZM418.824 184.815L440.856 172.139V146.783L418.824 134.107L396.792 146.783V172.139L418.824 184.815ZM463.637 184.816L485.562 172.138V146.784L463.637 134.106L441.712 146.784V172.138L463.637 184.816ZM508.45 184.815L530.268 172.139V146.783L508.45 134.107L486.631 146.783V172.139L508.45 184.815ZM553.048 184.815L574.974 172.139V146.783L553.048 134.107L531.123 146.783V172.139L553.048 184.815ZM619.679 146.784L597.754 134.106L575.829 146.784V172.138L597.754 184.816L619.679 172.138V146.784ZM619.679 68.7882L597.754 56.1099L575.829 68.7882V94.1424L597.754 106.82L619.679 94.1424V68.7882ZM619.679 -9.20753L597.754 -21.8858L575.829 -9.20753V16.1465L597.754 28.8248L619.679 16.1465V-9.20753ZM619.679 -86.8783L597.754 -99.5566L575.829 -86.8783V-61.8048L597.998 -48.9864L619.679 -61.5241V-86.8783ZM575.294 -138.554L553.155 -125.876V-100.522L575.294 -87.8437L597.433 -100.522V-125.876L575.294 -138.554ZM530.589 -138.554L508.877 -125.877V-100.521L530.589 -87.845L552.3 -100.521V-125.877L530.589 -138.554ZM486.097 -138.554L463.958 -125.876V-100.522L486.097 -87.8437L508.236 -100.522V-125.876L486.097 -138.554ZM440.963 -138.554L419.038 -125.877V-100.521L440.963 -87.845L462.888 -100.521V-125.877L440.963 -138.554ZM396.257 -138.554L374.332 -125.876V-100.522L396.257 -87.8437L418.182 -100.522V-125.876L396.257 -138.554ZM351.123 -138.554L329.198 -125.877V-100.521L351.123 -87.845L373.048 -100.521V-125.877L351.123 -138.554ZM306.31 -138.554L284.278 -125.876V-100.522L306.31 -87.8437L328.343 -100.522V-125.876L306.31 -138.554ZM261.605 -138.554L239.786 -125.877V-100.521L261.605 -87.8448L283.423 -100.521V-125.877L261.605 -138.554ZM216.578 -138.554L194.439 -125.876V-100.522L216.578 -87.8437L238.717 -100.522V-125.876L216.578 -138.554ZM171.658 -138.554L149.947 -125.877V-100.521L171.658 -87.8448L193.369 -100.521V-125.877L171.658 -138.554ZM126.738 -138.554L104.599 -125.876V-100.522L126.738 -87.8437L148.877 -100.522V-125.876L126.738 -138.554ZM82.2462 -138.554L60.3211 -125.877V-100.521L82.2462 -87.8448L104.171 -100.521V-125.877L82.2462 -138.554ZM37.1125 -138.554L15.1874 -125.876V-100.522L37.1125 -87.8437L59.0377 -100.522V-125.876L37.1125 -138.554ZM-7.59332 -138.554L-29.5185 -125.877V-100.521L-7.59332 -87.845L14.3318 -100.521V-125.877L-7.59332 -138.554ZM-52.7271 -138.554L-74.8661 -125.876V-100.522L-52.7271 -87.8437L-30.588 -100.522V-125.876L-52.7271 -138.554ZM-97.4329 -138.554L-119.358 -125.877V-100.521L-97.4329 -87.845L-75.5078 -100.521V-125.877L-97.4329 -138.554ZM-142.246 -138.554L-164.278 -125.876V-100.522L-142.246 -87.8437L-120.214 -100.522V-125.876L-142.246 -138.554ZM-187.273 -138.554L-208.984 -125.877V-100.521L-187.273 -87.845L-165.561 -100.521V-125.877L-187.273 -138.554ZM-231.978 -138.554L-254.117 -125.876V-100.522L-231.978 -87.8437L-209.839 -100.522V-125.876L-231.978 -138.554ZM-277.112 -138.554L-299.037 -125.877V-100.521L-277.112 -87.845L-255.187 -100.521V-125.877L-277.112 -138.554ZM-321.497 -138.554L-343.315 -125.877V-100.521L-321.497 -87.845L-299.679 -100.521V-125.877L-321.497 -138.554ZM-388.235 -100.522L-366.203 -87.8439L-344.171 -100.522V-125.876L-366.203 -138.555L-388.235 -125.876V-100.522ZM-388.235 -22.8514L-366.203 -10.1731L-344.171 -22.8514V-47.9248L-366.447 -60.7434L-388.235 -48.2056V-22.8514ZM-388.235 55.1445L-366.203 67.8228L-344.171 55.1445V29.7903L-366.203 17.112L-388.235 29.7903V55.1445Z" fill="url(#paint1_radial_626_34084)" shape-rendering="crispEdges"/>
</g>
<path d="M127.722 22.9396C124.422 22.9396 121.748 20.266 121.748 16.9679C121.748 13.6697 124.422 10.9961 127.722 10.9961C131.021 10.9961 133.695 13.6697 133.695 16.9679C133.695 20.266 131.021 22.9396 127.722 22.9396Z" fill="url(#paint2_radial_626_34084)"/>
<path d="M172.428 22.9396C169.128 22.9396 166.454 20.266 166.454 16.9679C166.454 13.6697 169.128 10.9961 172.428 10.9961C175.727 10.9961 178.401 13.6697 178.401 16.9679C178.401 20.266 175.727 22.9396 172.428 22.9396Z" fill="url(#paint3_radial_626_34084)"/>
<path opacity="0.3" d="M217.453 22.9396C214.154 22.9396 211.479 20.266 211.479 16.9679C211.479 13.6697 214.154 10.9961 217.453 10.9961C220.752 10.9961 223.427 13.6697 223.427 16.9679C223.427 20.266 220.752 22.9396 217.453 22.9396Z" fill="url(#paint4_radial_626_34084)"/>
<path d="M36.7148 22.9396C33.4156 22.9396 30.7411 20.266 30.7411 16.9679C30.7411 13.6697 33.4156 10.9961 36.7148 10.9961C40.014 10.9961 42.6885 13.6697 42.6885 16.9679C42.6885 20.266 40.014 22.9396 36.7148 22.9396Z" fill="url(#paint5_radial_626_34084)"/>
<path d="M81.7402 22.9396C78.441 22.9396 75.7665 20.266 75.7665 16.9679C75.7665 13.6697 78.441 10.9961 81.7402 10.9961C85.0394 10.9961 87.7139 13.6697 87.7139 16.9679C87.7139 20.266 85.0394 22.9396 81.7402 22.9396Z" fill="url(#paint6_radial_626_34084)"/>
<path d="M127.38 73.7013C124.081 73.7013 121.406 71.0277 121.406 67.7296C121.406 64.4315 124.081 61.7578 127.38 61.7578C130.679 61.7578 133.354 64.4315 133.354 67.7296C133.354 71.0277 130.679 73.7013 127.38 73.7013Z" fill="url(#paint7_radial_626_34084)"/>
<path d="M172.086 73.7013C168.787 73.7013 166.112 71.0277 166.112 67.7296C166.112 64.4315 168.787 61.7578 172.086 61.7578C175.385 61.7578 178.06 64.4315 178.06 67.7296C178.06 71.0277 175.385 73.7013 172.086 73.7013Z" fill="url(#paint8_radial_626_34084)"/>
<path opacity="0.3" d="M217.111 73.7013C213.812 73.7013 211.138 71.0277 211.138 67.7296C211.138 64.4315 213.812 61.7578 217.111 61.7578C220.41 61.7578 223.085 64.4315 223.085 67.7296C223.085 71.0277 220.41 73.7013 217.111 73.7013Z" fill="url(#paint9_radial_626_34084)"/>
<path d="M37.329 73.7013C34.0299 73.7013 31.3554 71.0277 31.3554 67.7296C31.3554 64.4315 34.0299 61.7578 37.329 61.7578C40.6282 61.7578 43.3027 64.4315 43.3027 67.7296C43.3027 71.0277 40.6282 73.7013 37.329 73.7013Z" fill="url(#paint10_radial_626_34084)"/>
<path d="M59.1425 138.453C55.8433 138.453 53.1688 135.78 53.1688 132.482C53.1688 129.183 55.8433 126.51 59.1425 126.51C62.4417 126.51 65.1162 129.183 65.1162 132.482C65.1162 135.78 62.4417 138.453 59.1425 138.453Z" fill="url(#paint11_radial_626_34084)"/>
<path d="M14.4912 112.408C11.192 112.408 8.51746 109.735 8.51746 106.437C8.51746 103.138 11.192 100.465 14.4912 100.465C17.7903 100.465 20.4648 103.138 20.4648 106.437C20.4648 109.735 17.7903 112.408 14.4912 112.408Z" fill="url(#paint12_radial_626_34084)"/>
<path d="M82.3544 73.7013C79.0553 73.7013 76.3807 71.0277 76.3807 67.7296C76.3807 64.4315 79.0553 61.7578 82.3544 61.7578C85.6536 61.7578 88.3281 64.4315 88.3281 67.7296C88.3281 71.0277 85.6536 73.7013 82.3544 73.7013Z" fill="url(#paint13_radial_626_34084)"/>
<path d="M98.4882 106.675C98.4882 103.377 101.163 100.703 104.462 100.703C107.761 100.703 110.436 103.377 110.436 106.675C110.436 109.973 107.761 112.647 104.462 112.647C101.163 112.647 98.4882 109.973 98.4882 106.675Z" fill="url(#paint14_radial_626_34084)"/>
<path opacity="0.3" d="M53.783 106.675C53.783 103.377 56.4574 100.703 59.7567 100.703C63.0559 100.703 65.7303 103.377 65.7303 106.675C65.7303 109.973 63.0559 112.647 59.7567 112.647C56.4574 112.647 53.783 109.973 53.783 106.675Z" fill="url(#paint15_radial_626_34084)"/>
<path d="M143.194 106.675C143.194 103.377 145.869 100.703 149.168 100.703C152.467 100.703 155.142 103.377 155.142 106.675C155.142 109.973 152.467 112.647 149.168 112.647C145.869 112.647 143.194 109.973 143.194 106.675Z" fill="url(#paint16_radial_626_34084)"/>
<path opacity="0.3" d="M188.22 106.675C188.22 103.377 190.894 100.703 194.193 100.703C197.493 100.703 200.167 103.377 200.167 106.675C200.167 109.973 197.493 112.647 194.193 112.647C190.894 112.647 188.22 109.973 188.22 106.675Z" fill="url(#paint17_radial_626_34084)"/>
<path opacity="0.3" d="M76.6064 151.594C73.3072 151.594 70.6327 148.92 70.6327 145.622C70.6327 142.324 73.3072 139.65 76.6064 139.65C79.9056 139.65 82.5801 142.324 82.5801 145.622C82.5801 148.92 79.9056 151.594 76.6064 151.594Z" fill="url(#paint18_radial_626_34084)"/>
<path d="M121.632 151.594C118.333 151.594 115.658 148.92 115.658 145.622C115.658 142.324 118.333 139.65 121.632 139.65C124.931 139.65 127.605 142.324 127.605 145.622C127.605 148.92 124.931 151.594 121.632 151.594Z" fill="url(#paint19_radial_626_34084)"/>
<path opacity="0.3" d="M166.999 151.594C163.7 151.594 161.025 148.92 161.025 145.622C161.025 142.324 163.7 139.65 166.999 139.65C170.298 139.65 172.973 142.324 172.973 145.622C172.973 148.92 170.298 151.594 166.999 151.594Z" fill="url(#paint20_radial_626_34084)"/>
<defs>
<filter id="filter0_d_626_34084" x="-395.519" y="-140.66" width="1018.48" height="333.583" filterUnits="userSpaceOnUse" color-interpolation-filters="sRGB">
<feFlood flood-opacity="0" result="BackgroundImageFix"/>
<feColorMatrix in="SourceAlpha" type="matrix" values="0 0 0 0 0 0 0 0 0 0 0 0 0 0 0 0 0 0 127 0" result="hardAlpha"/>
<feOffset dx="-2" dy="3"/>
<feGaussianBlur stdDeviation="2"/>
<feComposite in2="hardAlpha" operator="out"/>
<feColorMatrix type="matrix" values="0 0 0 0 0 0 0 0 0 0 0 0 0 0 0 0 0 0 0.25 0"/>
<feBlend mode="normal" in2="BackgroundImageFix" result="effect1_dropShadow_626_34084"/>
<feBlend mode="normal" in="SourceGraphic" in2="effect1_dropShadow_626_34084" result="shape"/>
</filter>
<radialGradient id="paint0_radial_626_34084" cx="0" cy="0" r="1" gradientUnits="userSpaceOnUse" gradientTransform="translate(88.5164 176.535) rotate(180) scale(0.358429 0.358319)">
<stop stop-color="#55FFFC"/>
<stop offset="0.4363" stop-color="#53F8F6"/>
<stop offset="0.9931" stop-color="#080E28"/>
</radialGradient>
<radialGradient id="paint1_radial_626_34084" cx="0" cy="0" r="1" gradientUnits="userSpaceOnUse" gradientTransform="translate(58.6046 -4.65293) rotate(47.1747) scale(208.006 207.941)">
<stop stop-color="#007BFF"/>
<stop offset="0.513493" stop-color="#2FDDD0"/>
<stop offset="1" stop-color="white" stop-opacity="0"/>
</radialGradient>
<radialGradient id="paint2_radial_626_34084" cx="0" cy="0" r="1" gradientUnits="userSpaceOnUse" gradientTransform="translate(127.722 16.968) rotate(180) scale(5.97367 5.9718)">
<stop stop-color="white"/>
<stop offset="0.335" stop-color="#9AFFFF"/>
<stop offset="1" stop-color="white" stop-opacity="0"/>
</radialGradient>
<radialGradient id="paint3_radial_626_34084" cx="0" cy="0" r="1" gradientUnits="userSpaceOnUse" gradientTransform="translate(172.428 16.968) rotate(180) scale(5.97367 5.9718)">
<stop stop-color="white"/>
<stop offset="0.335" stop-color="#9AFFFF"/>
<stop offset="1" stop-color="white" stop-opacity="0"/>
</radialGradient>
<radialGradient id="paint4_radial_626_34084" cx="0" cy="0" r="1" gradientUnits="userSpaceOnUse" gradientTransform="translate(217.453 16.968) rotate(180) scale(5.97367 5.9718)">
<stop stop-color="white"/>
<stop offset="0.335" stop-color="#9AFFFF"/>
<stop offset="1" stop-color="white" stop-opacity="0"/>
</radialGradient>
<radialGradient id="paint5_radial_626_34084" cx="0" cy="0" r="1" gradientUnits="userSpaceOnUse" gradientTransform="translate(36.7148 16.968) rotate(180) scale(5.97367 5.9718)">
<stop stop-color="white"/>
<stop offset="0.335" stop-color="#9AFFFF"/>
<stop offset="1" stop-color="white" stop-opacity="0"/>
</radialGradient>
<radialGradient id="paint6_radial_626_34084" cx="0" cy="0" r="1" gradientUnits="userSpaceOnUse" gradientTransform="translate(81.7402 16.968) rotate(180) scale(5.97367 5.9718)">
<stop stop-color="white"/>
<stop offset="0.335" stop-color="#9AFFFF"/>
<stop offset="1" stop-color="white" stop-opacity="0"/>
</radialGradient>
<radialGradient id="paint7_radial_626_34084" cx="0" cy="0" r="1" gradientUnits="userSpaceOnUse" gradientTransform="translate(127.38 67.7298) rotate(180) scale(5.97367 5.9718)">
<stop stop-color="white"/>
<stop offset="0.335" stop-color="#9AFFFF"/>
<stop offset="1" stop-color="white" stop-opacity="0"/>
</radialGradient>
<radialGradient id="paint8_radial_626_34084" cx="0" cy="0" r="1" gradientUnits="userSpaceOnUse" gradientTransform="translate(172.086 67.7298) rotate(180) scale(5.97367 5.9718)">
<stop stop-color="white"/>
<stop offset="0.335" stop-color="#9AFFFF"/>
<stop offset="1" stop-color="white" stop-opacity="0"/>
</radialGradient>
<radialGradient id="paint9_radial_626_34084" cx="0" cy="0" r="1" gradientUnits="userSpaceOnUse" gradientTransform="translate(217.111 67.7298) rotate(180) scale(5.97367 5.9718)">
<stop stop-color="white"/>
<stop offset="0.335" stop-color="#9AFFFF"/>
<stop offset="1" stop-color="white" stop-opacity="0"/>
</radialGradient>
<radialGradient id="paint10_radial_626_34084" cx="0" cy="0" r="1" gradientUnits="userSpaceOnUse" gradientTransform="translate(37.3291 67.7298) rotate(180) scale(5.97367 5.9718)">
<stop stop-color="white"/>
<stop offset="0.335" stop-color="#9AFFFF"/>
<stop offset="1" stop-color="white" stop-opacity="0"/>
</radialGradient>
<radialGradient id="paint11_radial_626_34084" cx="0" cy="0" r="1" gradientUnits="userSpaceOnUse" gradientTransform="translate(59.1425 132.482) rotate(180) scale(5.97367 5.9718)">
<stop stop-color="white"/>
<stop offset="0.335" stop-color="#9AFFFF"/>
<stop offset="1" stop-color="white" stop-opacity="0"/>
</radialGradient>
<radialGradient id="paint12_radial_626_34084" cx="0" cy="0" r="1" gradientUnits="userSpaceOnUse" gradientTransform="translate(14.4912 106.437) rotate(180) scale(5.97367 5.9718)">
<stop stop-color="white"/>
<stop offset="0.335" stop-color="#9AFFFF"/>
<stop offset="1" stop-color="white" stop-opacity="0"/>
</radialGradient>
<radialGradient id="paint13_radial_626_34084" cx="0" cy="0" r="1" gradientUnits="userSpaceOnUse" gradientTransform="translate(82.3545 67.7298) rotate(180) scale(5.97367 5.9718)">
<stop stop-color="white"/>
<stop offset="0.335" stop-color="#9AFFFF"/>
<stop offset="1" stop-color="white" stop-opacity="0"/>
</radialGradient>
<radialGradient id="paint14_radial_626_34084" cx="0" cy="0" r="1" gradientUnits="userSpaceOnUse" gradientTransform="translate(104.462 106.675) rotate(180) scale(5.97367 5.9718)">
<stop stop-color="white"/>
<stop offset="0.335" stop-color="#9AFFFF"/>
<stop offset="1" stop-color="white" stop-opacity="0"/>
</radialGradient>
<radialGradient id="paint15_radial_626_34084" cx="0" cy="0" r="1" gradientUnits="userSpaceOnUse" gradientTransform="translate(59.7567 106.675) rotate(180) scale(5.97367 5.9718)">
<stop stop-color="white"/>
<stop offset="0.335" stop-color="#9AFFFF"/>
<stop offset="1" stop-color="white" stop-opacity="0"/>
</radialGradient>
<radialGradient id="paint16_radial_626_34084" cx="0" cy="0" r="1" gradientUnits="userSpaceOnUse" gradientTransform="translate(149.168 106.675) rotate(180) scale(5.97367 5.9718)">
<stop stop-color="white"/>
<stop offset="0.335" stop-color="#9AFFFF"/>
<stop offset="1" stop-color="white" stop-opacity="0"/>
</radialGradient>
<radialGradient id="paint17_radial_626_34084" cx="0" cy="0" r="1" gradientUnits="userSpaceOnUse" gradientTransform="translate(194.193 106.675) rotate(180) scale(5.97367 5.9718)">
<stop stop-color="white"/>
<stop offset="0.335" stop-color="#9AFFFF"/>
<stop offset="1" stop-color="white" stop-opacity="0"/>
</radialGradient>
<radialGradient id="paint18_radial_626_34084" cx="0" cy="0" r="1" gradientUnits="userSpaceOnUse" gradientTransform="translate(76.6064 145.622) rotate(180) scale(5.97367 5.9718)">
<stop stop-color="white"/>
<stop offset="0.335" stop-color="#9AFFFF"/>
<stop offset="1" stop-color="white" stop-opacity="0"/>
</radialGradient>
<radialGradient id="paint19_radial_626_34084" cx="0" cy="0" r="1" gradientUnits="userSpaceOnUse" gradientTransform="translate(121.632 145.622) rotate(180) scale(5.97367 5.9718)">
<stop stop-color="white"/>
<stop offset="0.335" stop-color="#9AFFFF"/>
<stop offset="1" stop-color="white" stop-opacity="0"/>
</radialGradient>
<radialGradient id="paint20_radial_626_34084" cx="0" cy="0" r="1" gradientUnits="userSpaceOnUse" gradientTransform="translate(166.999 145.622) rotate(180) scale(5.97367 5.9718)">
<stop stop-color="white"/>
<stop offset="0.335" stop-color="#9AFFFF"/>
<stop offset="1" stop-color="white" stop-opacity="0"/>
</radialGradient>
</defs>
</svg>
