<svg width="20" height="21" viewBox="0 0 20 21" fill="none" xmlns="http://www.w3.org/2000/svg">
<path d="M13.3332 18.8333C12.4448 17.796 11.2779 17.1666 9.99984 17.1666C8.72179 17.1666 7.55486 17.796 6.6665 18.8333" stroke="#048EFF" stroke-linecap="round"/>
<path d="M10.0002 11.3333C8.94339 11.3333 7.82607 11.5161 6.95018 11.7607C6.29065 11.9448 5.76012 12.7846 5.84182 13.4663C5.87209 13.7189 6.08959 13.8333 6.31827 13.8333H13.6821C13.9107 13.8333 14.1282 13.7189 14.1585 13.4663C14.2402 12.7846 13.7097 11.9448 13.0501 11.7607C12.1743 11.5161 11.0569 11.3333 10.0002 11.3333Z" stroke="#048EFF" stroke-linecap="round"/>
<path d="M17.4998 8.83331C16.5794 8.83331 15.8332 9.57951 15.8332 10.5V11.3333C15.8332 12.2538 15.087 13 14.1665 13" stroke="#048EFF" stroke-linecap="round" stroke-linejoin="round"/>
<path d="M2.50016 8.83331C3.42064 8.83331 4.16683 9.57951 4.16683 10.5V11.3333C4.16683 12.2538 4.91302 13 5.8335 13" stroke="#048EFF" stroke-linecap="round" stroke-linejoin="round"/>
<path d="M10 13.8333V18.8333" stroke="#048EFF" stroke-linecap="round" stroke-linejoin="round"/>
<path d="M10.6833 8.83329H9.31705C8.14859 8.83329 7.56436 8.83329 7.14173 8.4803C6.71909 8.12731 6.5774 7.52101 6.29401 6.30841C5.84843 4.40186 5.62565 3.44859 6.09349 2.80761C6.56133 2.16663 7.4799 2.16663 9.31705 2.16663H10.6833C12.5204 2.16663 13.439 2.16663 13.9068 2.80761C14.3747 3.44859 14.1519 4.40186 13.7063 6.30841C13.4229 7.52101 13.2812 8.12731 12.8586 8.4803C12.436 8.83329 11.8517 8.83329 10.6833 8.83329Z" stroke="#048EFF" stroke-linecap="round" stroke-linejoin="round"/>
<path d="M10 8.83331V11.3333" stroke="#048EFF" stroke-linecap="round" stroke-linejoin="round"/>
</svg>
