<svg width="14" height="14" viewBox="0 0 14 14" fill="none" xmlns="http://www.w3.org/2000/svg">
<path d="M7.0874 9.62451V10.8495" stroke="#DFAE00" stroke-width="0.875" stroke-linecap="round" stroke-linejoin="round"/>
<path d="M4.1709 12.8328H10.0042V12.2495C10.0042 11.6078 9.47923 11.0828 8.83757 11.0828H5.33756C4.6959 11.0828 4.1709 11.6078 4.1709 12.2495V12.8328V12.8328Z" stroke="#DFAE00" stroke-width="0.875" stroke-miterlimit="10"/>
<path d="M3.5874 12.8328H10.5874" stroke="#DFAE00" stroke-width="0.875" stroke-linecap="round" stroke-linejoin="round"/>
<path d="M6.99984 9.33287C4.74234 9.33287 2.9165 7.50703 2.9165 5.24953V3.49953C2.9165 2.21037 3.96067 1.1662 5.24984 1.1662H8.74984C10.039 1.1662 11.0832 2.21037 11.0832 3.49953V5.24953C11.0832 7.50703 9.25734 9.33287 6.99984 9.33287Z" stroke="#DFAE00" stroke-width="0.875" stroke-linecap="round" stroke-linejoin="round"/>
<path d="M3.19077 6.79532C2.75327 6.65532 2.36827 6.39865 2.06494 6.09532C1.53994 5.51199 1.18994 4.81199 1.18994 3.99532C1.18994 3.17865 1.83161 2.53699 2.64827 2.53699H3.02744C2.91077 2.80532 2.85244 3.10282 2.85244 3.41199V5.16199C2.85244 5.74532 2.97494 6.29365 3.19077 6.79532Z" stroke="#DFAE00" stroke-width="0.875" stroke-linecap="round" stroke-linejoin="round"/>
<path d="M10.8091 6.79532C11.2466 6.65532 11.6316 6.39865 11.9349 6.09532C12.4599 5.51199 12.8099 4.81199 12.8099 3.99532C12.8099 3.17865 12.1682 2.53699 11.3516 2.53699H10.9724C11.0891 2.80532 11.1474 3.10282 11.1474 3.41199V5.16199C11.1474 5.74532 11.0249 6.29365 10.8091 6.79532Z" stroke="#DFAE00" stroke-width="0.875" stroke-linecap="round" stroke-linejoin="round"/>
</svg>
