<svg width="13" height="14" viewBox="0 0 13 14" fill="none" xmlns="http://www.w3.org/2000/svg">
<g clip-path="url(#clip0_49_2)">
<path d="M9.26863 9.19163C9.08557 9.00858 8.78878 9.00858 8.60572 9.19163C8.42266 9.37469 8.42266 9.67149 8.60572 9.85455L9.26863 9.19163ZM11.2574 12.5062C11.4404 12.6893 11.7372 12.6893 11.9203 12.5062C12.1033 12.3231 12.1033 12.0263 11.9203 11.8433L11.2574 12.5062ZM8.60572 11.8433C8.42266 12.0263 8.42266 12.3231 8.60572 12.5062C8.78878 12.6893 9.08557 12.6893 9.26863 12.5062L8.60572 11.8433ZM11.9203 9.85455C12.1033 9.67149 12.1033 9.37469 11.9203 9.19163C11.7372 9.00858 11.4404 9.00858 11.2574 9.19163L11.9203 9.85455ZM7.61133 8.66602C7.87021 8.66602 8.08008 8.45615 8.08008 8.19727C8.08008 7.93838 7.87021 7.72852 7.61133 7.72852V8.66602ZM7.61133 13.666C7.87021 13.666 8.08008 13.4561 8.08008 13.1973C8.08008 12.9384 7.87021 12.7285 7.61133 12.7285V13.666ZM7.76758 3.82227C7.76758 4.94409 6.85816 5.85352 5.73633 5.85352V6.79102C7.37592 6.79102 8.70508 5.46186 8.70508 3.82227H7.76758ZM5.73633 5.85352C4.6145 5.85352 3.70508 4.94409 3.70508 3.82227H2.76758C2.76758 5.46186 4.09673 6.79102 5.73633 6.79102V5.85352ZM3.70508 3.82227C3.70508 2.70044 4.6145 1.79102 5.73633 1.79102V0.853516C4.09673 0.853516 2.76758 2.18267 2.76758 3.82227H3.70508ZM5.73633 1.79102C6.85816 1.79102 7.76758 2.70044 7.76758 3.82227H8.70508C8.70508 2.18267 7.37592 0.853516 5.73633 0.853516V1.79102ZM8.60572 9.85455L11.2574 12.5062L11.9203 11.8433L9.26863 9.19163L8.60572 9.85455ZM9.26863 12.5062L11.9203 9.85455L11.2574 9.19163L8.60572 11.8433L9.26863 12.5062ZM3.86133 8.66602H7.61133V7.72852H3.86133V8.66602ZM7.61133 12.7285H3.86133V13.666H7.61133V12.7285ZM3.86133 12.7285C2.7395 12.7285 1.83008 11.8191 1.83008 10.6973H0.892578C0.892578 12.3369 2.22173 13.666 3.86133 13.666V12.7285ZM3.86133 7.72852C2.22173 7.72852 0.892578 9.05767 0.892578 10.6973H1.83008C1.83008 9.57544 2.7395 8.66602 3.86133 8.66602V7.72852Z" fill="#525252"/>
</g>
<defs>
<clipPath id="clip0_49_2">
<rect width="13" height="14" fill="white"/>
</clipPath>
</defs>
</svg>
