<svg width="12" height="13" viewBox="0 0 12 13" fill="none" xmlns="http://www.w3.org/2000/svg">
<path d="M8.80479 9.71309H8.43301C8.04168 9.71309 7.66992 9.86473 7.39598 10.1387L6.5595 10.9654C6.17795 11.342 5.55673 11.342 5.17518 10.9654L4.33869 10.1387C4.06476 9.86473 3.6881 9.71309 3.30166 9.71309H2.93479C2.12277 9.71309 1.46729 9.06251 1.46729 8.26028V2.92345C1.46729 2.12122 2.12277 1.47064 2.93479 1.47064H8.80479C9.6168 1.47064 10.2723 2.12122 10.2723 2.92345V8.26028C10.2723 9.05762 9.6168 9.71309 8.80479 9.71309Z" stroke="#727272" stroke-width="0.73375" stroke-miterlimit="10" stroke-linecap="round" stroke-linejoin="round"/>
<path d="M5.86975 5.37911C6.49922 5.37911 7.00951 4.86882 7.00951 4.23935C7.00951 3.60988 6.49922 3.09961 5.86975 3.09961C5.24028 3.09961 4.72998 3.60988 4.72998 4.23935C4.72998 4.86882 5.24028 5.37911 5.86975 5.37911Z" stroke="#727272" stroke-width="0.73375" stroke-linecap="round" stroke-linejoin="round"/>
<path d="M7.82691 8.14776C7.82691 7.26726 6.9513 6.5531 5.87024 6.5531C4.78918 6.5531 3.91357 7.26726 3.91357 8.14776" stroke="#727272" stroke-width="0.73375" stroke-linecap="round" stroke-linejoin="round"/>
</svg>
