<svg width="31" height="30" viewBox="0 0 31 30" fill="none" xmlns="http://www.w3.org/2000/svg">
<path d="M12.2547 20.9686C13.2986 21.5932 14.5512 21.9403 15.8038 21.9403C19.6313 21.9403 22.7629 18.8169 22.7629 14.9996C22.7629 11.1822 19.6313 8.0589 15.8038 8.0589C11.9763 8.0589 8.84473 11.1822 8.84473 14.9996C8.84473 16.2489 9.19268 17.4288 9.74941 18.4699L9.11511 20.9031C8.99557 21.3616 9.4198 21.7764 9.87555 21.6465L12.2547 20.9686Z" stroke="#0FAD3B" stroke-width="0.81655" stroke-miterlimit="10" stroke-linecap="round" stroke-linejoin="round"/>
<path d="M19.4837 17.3223C19.4837 17.4545 19.4542 17.5905 19.3915 17.7228C19.3287 17.8551 19.2476 17.98 19.1405 18.0976C18.9597 18.296 18.7605 18.4393 18.5354 18.5312C18.314 18.623 18.0742 18.6708 17.8159 18.6708C17.4396 18.6708 17.0374 18.5826 16.6131 18.4026C16.1887 18.2225 15.7644 17.98 15.3438 17.675C14.9195 17.3664 14.5173 17.0246 14.1335 16.6462C13.7535 16.264 13.4103 15.8635 13.1041 15.4446C12.8015 15.0257 12.558 14.6068 12.3809 14.1916C12.2038 13.7727 12.1152 13.3722 12.1152 12.9901C12.1152 12.7402 12.1595 12.5013 12.2481 12.2809C12.3366 12.0567 12.4768 11.851 12.6724 11.6672C12.9085 11.4357 13.1668 11.3218 13.4399 11.3218C13.5432 11.3218 13.6465 11.3439 13.7387 11.388C13.8347 11.4321 13.9195 11.4982 13.9859 11.5937L14.842 12.7953C14.9084 12.8872 14.9564 12.9717 14.9896 13.0525C15.0228 13.1297 15.0412 13.2068 15.0412 13.2767C15.0412 13.3648 15.0154 13.453 14.9637 13.5375C14.9158 13.6221 14.8457 13.7102 14.7571 13.7984L14.4767 14.0887C14.4361 14.1291 14.4176 14.1769 14.4176 14.2357C14.4176 14.2651 14.4213 14.2908 14.4287 14.3202C14.4398 14.3496 14.4509 14.3717 14.4582 14.3937C14.5247 14.515 14.639 14.673 14.8014 14.864C14.9674 15.0551 15.1445 15.2499 15.3364 15.4446C15.5356 15.6393 15.7275 15.8194 15.9231 15.9847C16.1149 16.1464 16.2736 16.2567 16.3991 16.3228C16.4175 16.3301 16.4396 16.3412 16.4655 16.3522C16.495 16.3632 16.5245 16.3669 16.5577 16.3669C16.6204 16.3669 16.6684 16.3448 16.709 16.3044L16.9894 16.0288C17.0817 15.937 17.1702 15.8672 17.2551 15.8231C17.3399 15.7716 17.4248 15.7459 17.5171 15.7459C17.5872 15.7459 17.661 15.7606 17.7421 15.7937C17.8233 15.8267 17.9082 15.8745 18.0004 15.937L19.2217 16.8005C19.3177 16.8666 19.3841 16.9438 19.4247 17.0356C19.4616 17.1275 19.4837 17.2194 19.4837 17.3223Z" stroke="#0FAD3B" stroke-width="0.81655" stroke-miterlimit="10"/>
</svg>
