<svg width="12" height="12" viewBox="0 0 12 12" fill="none" xmlns="http://www.w3.org/2000/svg">
<path d="M11.0212 5.8171L5.98158 10.8991C5.78604 11.0983 5.55274 11.2566 5.29533 11.3646C5.03792 11.4727 4.76155 11.5283 4.48239 11.5283C4.20322 11.5283 3.92686 11.4727 3.66944 11.3646C3.41203 11.2566 3.17874 11.0983 2.9832 10.8991L1.47554 9.36602C1.08086 8.96513 0.85965 8.42516 0.85965 7.8626C0.85965 7.30005 1.08086 6.76005 1.47554 6.35918L6.84552 0.972273C7.00299 0.813497 7.19035 0.687473 7.39678 0.601471C7.60321 0.51547 7.82462 0.471191 8.04825 0.471191C8.27188 0.471191 8.4933 0.51547 8.69974 0.601471C8.90614 0.687473 9.09351 0.813497 9.25097 0.972273L9.85234 1.57364C10.0112 1.73112 10.1372 1.91848 10.2231 2.12491C10.3092 2.33133 10.3534 2.55275 10.3534 2.77638C10.3534 3.00001 10.3092 3.22142 10.2231 3.42785C10.1372 3.63428 10.0112 3.82164 9.85234 3.97911L5.09223 8.75616C5.01348 8.83562 4.91981 8.89862 4.81659 8.94156C4.71338 8.98459 4.60267 9.0067 4.49086 9.0067C4.37904 9.0067 4.26834 8.98459 4.16512 8.94156C4.06191 8.89862 3.96822 8.83562 3.88949 8.75616L3.59304 8.45127C3.51365 8.37253 3.45064 8.27885 3.40764 8.17563C3.36464 8.07242 3.3425 7.96172 3.3425 7.8499C3.3425 7.73809 3.36464 7.62738 3.40764 7.52416C3.45064 7.42095 3.51365 7.32727 3.59304 7.24853L6.78623 4.08075" stroke="black" stroke-linecap="round" stroke-linejoin="round"/>
</svg>
