<svg width="14" height="15" viewBox="0 0 14 15" fill="none" xmlns="http://www.w3.org/2000/svg">
<g clip-path="url(#clip0_737_4243)">
<path d="M1.5 2.19775C1.23478 2.19775 0.98043 2.30311 0.792893 2.49064C0.605357 2.67818 0.5 2.93253 0.5 3.19775V12.6978C0.5 12.963 0.605357 13.2174 0.792893 13.4049C0.98043 13.5924 1.23478 13.6978 1.5 13.6978H12.5C12.7652 13.6978 13.0196 13.5924 13.2071 13.4049C13.3946 13.2174 13.5 12.963 13.5 12.6978V3.19775C13.5 2.93253 13.3946 2.67818 13.2071 2.49064C13.0196 2.30311 12.7652 2.19775 12.5 2.19775H1.5Z" fill="#E6E6E6" fill-opacity="0.56"/>
<path d="M1.5 2.19775C1.23478 2.19775 0.98043 2.30311 0.792893 2.49064C0.605357 2.67818 0.5 2.93253 0.5 3.19775V12.6978C0.5 12.963 0.605357 13.2174 0.792893 13.4049C0.98043 13.5924 1.23478 13.6978 1.5 13.6978H12.5C12.7652 13.6978 13.0196 13.5924 13.2071 13.4049C13.3946 13.2174 13.5 12.963 13.5 12.6978V3.19775C13.5 2.93253 13.3946 2.67818 13.2071 2.49064C13.0196 2.30311 12.7652 2.19775 12.5 2.19775H10.5" stroke="#6D6D6D" stroke-linecap="round" stroke-linejoin="round"/>
<path d="M3.5 0.697754V3.69775" stroke="#6D6D6D" stroke-linecap="round" stroke-linejoin="round"/>
<path d="M10.5 0.697754V3.69775" stroke="#6D6D6D" stroke-linecap="round" stroke-linejoin="round"/>
<path d="M3.5 2.19775H8.5" stroke="#6D6D6D" stroke-linecap="round" stroke-linejoin="round"/>
<path d="M9.5 8.19775H4.5" stroke="#6D6D6D" stroke-linecap="round" stroke-linejoin="round"/>
<path d="M7 5.69775V10.6978" stroke="#6D6D6D" stroke-linecap="round" stroke-linejoin="round"/>
</g>
<defs>
<clipPath id="clip0_737_4243">
<rect width="14" height="14" fill="white" transform="translate(0 0.197754)"/>
</clipPath>
</defs>
</svg>
