<svg width="14" height="14" viewBox="0 0 14 14" fill="none" xmlns="http://www.w3.org/2000/svg">
<g clip-path="url(#clip0_2226_19470)">
<path d="M0.792893 13.2071C0.605357 13.0196 0.5 12.7652 0.5 12.5V5.5H13.5V12.5C13.5 12.7652 13.3946 13.0196 13.2071 13.2071C13.0196 13.3946 12.7652 13.5 12.5 13.5H1.5C1.23478 13.5 0.98043 13.3946 0.792893 13.2071Z" fill="#9FF5FF" fill-opacity="0.56"/>
<path d="M0.792893 2.29289C0.98043 2.10536 1.23478 2 1.5 2H12.5C12.7652 2 13.0196 2.10536 13.2071 2.29289C13.3946 2.48043 13.5 2.73478 13.5 3V5.5H0.5V3C0.5 2.73478 0.605357 2.48043 0.792893 2.29289Z" fill="white"/>
<path d="M1.5 2C1.23478 2 0.98043 2.10536 0.792893 2.29289C0.605357 2.48043 0.5 2.73478 0.5 3V12.5C0.5 12.7652 0.605357 13.0196 0.792893 13.2071C0.98043 13.3946 1.23478 13.5 1.5 13.5H12.5C12.7652 13.5 13.0196 13.3946 13.2071 13.2071C13.3946 13.0196 13.5 12.7652 13.5 12.5V3C13.5 2.73478 13.3946 2.48043 13.2071 2.29289C13.0196 2.10536 12.7652 2 12.5 2H10.5" stroke="#003F88" stroke-linecap="round" stroke-linejoin="round"/>
<path d="M0.5 5.5H13.5" stroke="#003F88" stroke-linecap="round" stroke-linejoin="round"/>
<path d="M3.5 0.5V3.5" stroke="#003F88" stroke-linecap="round" stroke-linejoin="round"/>
<path d="M10.5 0.5V3.5" stroke="#003F88" stroke-linecap="round" stroke-linejoin="round"/>
<path d="M3.5 2H8.5" stroke="#003F88" stroke-linecap="round" stroke-linejoin="round"/>
</g>
<defs>
<clipPath id="clip0_2226_19470">
<rect width="14" height="14" fill="white"/>
</clipPath>
</defs>
</svg>
