<svg width="14" height="16" viewBox="0 0 14 16" fill="none" xmlns="http://www.w3.org/2000/svg">
<path fill-rule="evenodd" clip-rule="evenodd" d="M5.3759 1.28936C4.2023 1.28936 3.2509 2.24076 3.2509 3.41436C3.2509 4.58797 4.2023 5.53936 5.3759 5.53936C6.54951 5.53936 7.5009 4.58797 7.5009 3.41436C7.5009 2.24076 6.54951 1.28936 5.3759 1.28936ZM2.27013 3.41436C2.27013 1.69909 3.66063 0.308594 5.3759 0.308594C7.09117 0.308594 8.48167 1.69909 8.48167 3.41436C8.48167 5.12963 7.09117 6.52013 5.3759 6.52013C3.66063 6.52013 2.27013 5.12963 2.27013 3.41436ZM0.308594 10.6067C0.308594 8.8914 1.69909 7.5009 3.41436 7.5009H7.33744C8.10471 7.5009 8.84413 7.78484 9.38261 8.09895C9.65419 8.25737 9.89168 8.43327 10.0685 8.60373C10.124 8.65732 10.1776 8.71423 10.2259 8.77362C11.8384 8.91214 13.1052 10.2661 13.1052 11.9144C13.1052 13.6546 11.6931 15.0668 9.95283 15.0668C8.88044 15.0668 7.93267 14.5306 7.36313 13.7118C7.35462 13.7122 7.34606 13.7124 7.33744 13.7124H3.41436C1.69909 13.7124 0.308594 12.3219 0.308594 10.6067ZM8.88843 8.94612L8.88868 8.94627C7.67158 9.38302 6.80041 10.5475 6.80041 11.9144C6.80041 12.197 6.83766 12.471 6.90751 12.7317H3.41436C2.24076 12.7317 1.28936 11.7803 1.28936 10.6067C1.28936 9.43307 2.24076 8.48167 3.41436 8.48167H7.33744C7.87787 8.48167 8.44613 8.68812 8.88843 8.94612ZM9.95283 9.836C8.80573 9.836 7.87447 10.7673 7.87447 11.9144C7.87447 13.0615 8.80573 13.9927 9.95283 13.9927C11.0999 13.9927 12.0312 13.0615 12.0312 11.9144C12.0312 10.7673 11.0999 9.836 9.95283 9.836ZM10.2779 11.0383C10.2779 10.7417 10.0374 10.5013 9.74084 10.5013C9.44424 10.5013 9.20381 10.7417 9.20381 11.0383V11.9737C9.20381 12.1612 9.26569 12.3323 9.33993 12.4625C9.41401 12.5924 9.52933 12.7323 9.68974 12.8276L9.69064 12.8281L10.3965 13.2494C10.6512 13.4014 10.9808 13.3181 11.1328 13.0634C11.2848 12.8087 11.2016 12.4791 10.9469 12.3271L10.2779 11.9278V11.0383Z" fill="#007EE5"/>
</svg>
