<svg width="17" height="17" viewBox="0 0 17 17" fill="none" xmlns="http://www.w3.org/2000/svg">
<path fill-rule="evenodd" clip-rule="evenodd" d="M7.06731 2.28936C5.8937 2.28936 4.94231 3.24076 4.94231 4.41436C4.94231 5.58797 5.8937 6.53936 7.06731 6.53936C8.24091 6.53936 9.19231 5.58797 9.19231 4.41436C9.19231 3.24076 8.24091 2.28936 7.06731 2.28936ZM3.96154 4.41436C3.96154 2.69909 5.35204 1.30859 7.06731 1.30859C8.78258 1.30859 10.1731 2.69909 10.1731 4.41436C10.1731 6.12963 8.78258 7.52013 7.06731 7.52013C5.35204 7.52013 3.96154 6.12963 3.96154 4.41436ZM2 11.6067C2 9.8914 3.3905 8.5009 5.10577 8.5009H9.02885C9.79611 8.5009 10.5355 8.78484 11.074 9.09895C11.3456 9.25737 11.5831 9.43327 11.7599 9.60373C11.8154 9.65732 11.869 9.71423 11.9173 9.77362C13.5299 9.91214 14.7966 11.2661 14.7966 12.9144C14.7966 14.6546 13.3845 16.0668 11.6442 16.0668C10.5718 16.0668 9.62407 15.5306 9.05454 14.7118C9.04603 14.7122 9.03746 14.7124 9.02885 14.7124H5.10577C3.3905 14.7124 2 13.3219 2 11.6067ZM10.5798 9.94612C9.36269 10.3829 8.49182 11.5475 8.49182 12.9144C8.49182 13.197 8.52907 13.471 8.59892 13.7317H5.10577C3.93216 13.7317 2.98077 12.7803 2.98077 11.6067C2.98077 10.4331 3.93216 9.48167 5.10577 9.48167H9.02885C9.56927 9.48167 10.1375 9.68812 10.5798 9.94612ZM11.6442 10.836C10.4971 10.836 9.56587 11.7673 9.56587 12.9144C9.56587 14.0615 10.4971 14.9927 11.6442 14.9927C12.7913 14.9927 13.7226 14.0615 13.7226 12.9144C13.7226 11.7673 12.7913 10.836 11.6442 10.836ZM11.9693 12.0383C11.9693 11.7417 11.7288 11.5013 11.4322 11.5013C11.1356 11.5013 10.8952 11.7417 10.8952 12.0383V12.9737C10.8952 13.1612 10.9571 13.3323 11.0313 13.4625C11.1054 13.5924 11.2207 13.7323 11.3812 13.8276L12.0879 14.2494C12.3426 14.4014 12.6723 14.3181 12.8242 14.0634C12.9762 13.8087 12.893 13.4791 12.6383 13.3271L11.9693 12.9278V12.0383Z" fill="white"/>
</svg>
