<svg width="22" height="22" viewBox="0 0 22 22" fill="none" xmlns="http://www.w3.org/2000/svg">
<path d="M4.58472 9.16598H6.41805C8.25138 9.16598 9.16805 8.24931 9.16805 6.41598V4.58264C9.16805 2.74931 8.25138 1.83264 6.41805 1.83264H4.58472C2.75138 1.83264 1.83472 2.74931 1.83472 4.58264V6.41598C1.83472 8.24931 2.75138 9.16598 4.58472 9.16598Z" stroke="#007EE5" stroke-width="1.5" stroke-miterlimit="10" stroke-linecap="round" stroke-linejoin="round"/>
<path d="M15.5847 9.16598H17.4181C19.2514 9.16598 20.1681 8.24931 20.1681 6.41598V4.58264C20.1681 2.74931 19.2514 1.83264 17.4181 1.83264H15.5847C13.7514 1.83264 12.8347 2.74931 12.8347 4.58264V6.41598C12.8347 8.24931 13.7514 9.16598 15.5847 9.16598Z" stroke="#007EE5" stroke-width="1.5" stroke-miterlimit="10" stroke-linecap="round" stroke-linejoin="round"/>
<path d="M15.5847 20.166H17.4181C19.2514 20.166 20.1681 19.2493 20.1681 17.416V15.5826C20.1681 13.7493 19.2514 12.8326 17.4181 12.8326H15.5847C13.7514 12.8326 12.8347 13.7493 12.8347 15.5826V17.416C12.8347 19.2493 13.7514 20.166 15.5847 20.166Z" stroke="#007EE5" stroke-width="1.5" stroke-miterlimit="10" stroke-linecap="round" stroke-linejoin="round"/>
<path d="M4.58472 20.166H6.41805C8.25138 20.166 9.16805 19.2493 9.16805 17.416V15.5826C9.16805 13.7493 8.25138 12.8326 6.41805 12.8326H4.58472C2.75138 12.8326 1.83472 13.7493 1.83472 15.5826V17.416C1.83472 19.2493 2.75138 20.166 4.58472 20.166Z" stroke="#007EE5" stroke-width="1.5" stroke-miterlimit="10" stroke-linecap="round" stroke-linejoin="round"/>
</svg>
