<svg width="16" height="17" viewBox="0 0 16 17" fill="none" xmlns="http://www.w3.org/2000/svg">
<path d="M3.26875 7.19265H4.57625C5.88375 7.19265 6.5375 6.5389 6.5375 5.2314V3.9239C6.5375 2.6164 5.88375 1.96265 4.57625 1.96265H3.26875C1.96125 1.96265 1.3075 2.6164 1.3075 3.9239V5.2314C1.3075 6.5389 1.96125 7.19265 3.26875 7.19265Z" stroke="#8B8B8B" stroke-width="0.980625" stroke-miterlimit="10" stroke-linecap="round" stroke-linejoin="round"/>
<path d="M11.1137 7.19265H12.4212C13.7287 7.19265 14.3825 6.5389 14.3825 5.2314V3.9239C14.3825 2.6164 13.7287 1.96265 12.4212 1.96265H11.1137C9.80622 1.96265 9.15247 2.6164 9.15247 3.9239V5.2314C9.15247 6.5389 9.80622 7.19265 11.1137 7.19265Z" stroke="#8B8B8B" stroke-width="0.980625" stroke-miterlimit="10" stroke-linecap="round" stroke-linejoin="round"/>
<path d="M11.1137 15.0376H12.4212C13.7287 15.0376 14.3825 14.3839 14.3825 13.0764V11.7689C14.3825 10.4614 13.7287 9.80762 12.4212 9.80762H11.1137C9.80622 9.80762 9.15247 10.4614 9.15247 11.7689V13.0764C9.15247 14.3839 9.80622 15.0376 11.1137 15.0376Z" stroke="#8B8B8B" stroke-width="0.980625" stroke-miterlimit="10" stroke-linecap="round" stroke-linejoin="round"/>
<path d="M3.26875 15.0376H4.57625C5.88375 15.0376 6.5375 14.3839 6.5375 13.0764V11.7689C6.5375 10.4614 5.88375 9.80762 4.57625 9.80762H3.26875C1.96125 9.80762 1.3075 10.4614 1.3075 11.7689V13.0764C1.3075 14.3839 1.96125 15.0376 3.26875 15.0376Z" stroke="#8B8B8B" stroke-width="0.980625" stroke-miterlimit="10" stroke-linecap="round" stroke-linejoin="round"/>
</svg>
