<svg width="15" height="15" viewBox="0 0 15 15" fill="none" xmlns="http://www.w3.org/2000/svg">
<path d="M14 12.8784C14 13.1436 13.8946 13.398 13.7071 13.5855C13.5196 13.773 13.2652 13.8784 13 13.8784H4C3.73478 13.8784 3.48043 13.773 3.29289 13.5855C3.10536 13.398 3 13.1436 3 12.8784V1.87842C3 1.6132 3.10536 1.35885 3.29289 1.17131C3.48043 0.983775 3.73478 0.878418 4 0.878418H10.5L14 4.37842V12.8784Z" fill="#7BD2FF" fill-opacity="0.39"/>
<path d="M4 7.87842V13.8784" stroke="#005BC3" stroke-linecap="round" stroke-linejoin="round"/>
<path d="M1 10.8784H7" stroke="#005BC3" stroke-linecap="round" stroke-linejoin="round"/>
<path d="M3 5.37842V1.87842C3 1.6132 3.10536 1.35885 3.29289 1.17131C3.48043 0.983775 3.73478 0.878418 4 0.878418H10.5L14 4.37842V12.8784C14 13.1436 13.8946 13.398 13.7071 13.5855C13.5196 13.773 13.2652 13.8784 13 13.8784H8" stroke="#005BC3" stroke-linecap="round" stroke-linejoin="round"/>
</svg>
