<svg width="15" height="15" viewBox="0 0 15 15" fill="none" xmlns="http://www.w3.org/2000/svg">
<path d="M4.21875 0.505859V2.4674" stroke="#8B8B8B" stroke-width="0.980769" stroke-miterlimit="10" stroke-linecap="round" stroke-linejoin="round"/>
<path d="M9.44922 0.505859V2.4674" stroke="#8B8B8B" stroke-width="0.980769" stroke-miterlimit="10" stroke-linecap="round" stroke-linejoin="round"/>
<path d="M1.27734 5.14062H12.3927" stroke="#8B8B8B" stroke-width="0.980769" stroke-miterlimit="10" stroke-linecap="round" stroke-linejoin="round"/>
<path d="M7.7296 13.5825H4.21845C1.92999 13.5825 0.949219 12.2748 0.949219 10.3133V4.75556C0.949219 2.79402 1.92999 1.48633 4.21845 1.48633H9.44922C11.7377 1.48633 12.7184 2.79402 12.7184 4.75556V7.69787" stroke="#8B8B8B" stroke-width="0.980769" stroke-miterlimit="10" stroke-linecap="round" stroke-linejoin="round"/>
<path d="M7.48349 8.15505H7.48936" stroke="#8B8B8B" stroke-width="1.17692" stroke-linecap="round" stroke-linejoin="round"/>
<path d="M4.41318 8.15505H4.41905" stroke="#8B8B8B" stroke-width="1.17692" stroke-linecap="round" stroke-linejoin="round"/>
<path d="M4.41318 10.7703H4.41905" stroke="#8B8B8B" stroke-width="1.17692" stroke-linecap="round" stroke-linejoin="round"/>
<path d="M8.97656 10.8391V12.4886C8.97656 13.0947 8.97656 13.0947 9.54833 13.4806L11.1207 14.3897C11.358 14.527 11.7439 14.527 11.9783 14.3897L13.5507 13.4806C14.1225 13.0947 14.1225 13.0947 14.1225 12.4915V10.8391C14.1225 10.2359 14.1225 10.2359 13.5507 9.84992L11.9783 8.94081C11.7439 8.80358 11.358 8.80358 11.1207 8.94081L9.54833 9.84992C8.97656 10.2359 8.97656 10.2359 8.97656 10.8391Z" stroke="#8B8B8B" stroke-width="0.980769" stroke-linecap="round" stroke-linejoin="round"/>
<path d="M11.5516 12.2301C11.8627 12.2301 12.1149 11.9779 12.1149 11.6668C12.1149 11.3557 11.8627 11.1035 11.5516 11.1035C11.2405 11.1035 10.9883 11.3557 10.9883 11.6668C10.9883 11.9779 11.2405 12.2301 11.5516 12.2301Z" stroke="#8B8B8B" stroke-width="0.784615" stroke-linecap="round" stroke-linejoin="round"/>
</svg>
