<svg width="16" height="17" viewBox="0 0 16 17" fill="none" xmlns="http://www.w3.org/2000/svg">
<path fill-rule="evenodd" clip-rule="evenodd" d="M9.25361 7.35774L9.97705 7.35777C10.2479 7.35778 10.4674 7.57735 10.4674 7.84818C10.4674 8.11901 10.2478 8.33855 9.977 8.33854L9.25461 8.33851C9.02474 9.24691 8.18112 9.95836 6.90558 10.1468L8.47189 11.7642C8.6603 11.9588 8.65531 12.2692 8.46076 12.4576C8.2662 12.646 7.95574 12.6411 7.76734 12.4465L5.4476 10.051C5.27487 9.87266 5.26469 9.59687 5.41412 9.40703C5.51069 9.27009 5.67501 9.1862 5.85416 9.20048C7.23019 9.31013 7.93571 8.82529 8.20376 8.33846L5.71302 8.33834C5.44219 8.33833 5.22264 8.11877 5.22266 7.84794C5.22267 7.5771 5.44223 7.35756 5.71306 7.35757L8.20066 7.35769C8.14978 7.27153 8.08412 7.18924 8.00294 7.11306C7.73644 6.86295 7.2708 6.65264 6.55113 6.65264C6.52569 6.65264 6.5007 6.65071 6.4763 6.64697L5.71302 6.64694C5.44605 6.64692 5.22963 6.43049 5.22965 6.16352C5.22966 5.89655 5.44609 5.68014 5.71306 5.68015L6.46077 5.68018C6.49006 5.67473 6.52026 5.67188 6.55113 5.67188C6.64405 5.67188 6.73505 5.67468 6.8241 5.6802L9.97704 5.68035C10.244 5.68036 10.4604 5.89679 10.4604 6.16376C10.4604 6.43073 10.244 6.64715 9.977 6.64713L8.90117 6.64708C9.06917 6.86389 9.18731 7.10511 9.25361 7.35774Z" fill="#007EE5"/>
<path d="M13.6541 8.5165C13.6541 11.7341 11.0427 14.3455 7.82509 14.3455C4.60749 14.3455 1.99609 11.7341 1.99609 8.5165C1.99609 5.29889 4.60749 2.6875 7.82509 2.6875" stroke="#007EE5" stroke-width="0.980769" stroke-linecap="round" stroke-linejoin="round"/>
<path d="M14.2099 4.25586H9.90625" stroke="#007EE5" stroke-width="0.980769" stroke-miterlimit="10" stroke-linecap="round" stroke-linejoin="round"/>
<path d="M12.0586 2.1543V6.45793" stroke="#007EE5" stroke-width="0.980769" stroke-miterlimit="10" stroke-linecap="round" stroke-linejoin="round"/>
</svg>
