<svg width="14" height="14" viewBox="0 0 14 14" fill="none" xmlns="http://www.w3.org/2000/svg">
<g clip-path="url(#clip0_2226_19559)">
<path d="M8.99609 5.69843L11.2482 3.44629L13.5004 5.69843" stroke="#003F88" stroke-linecap="round" stroke-linejoin="round"/>
<path d="M8.99609 9.30176L11.2482 11.5539L13.5004 9.30176" stroke="#003F88" stroke-linecap="round" stroke-linejoin="round"/>
<path d="M3.80016 4.6511C4.84182 4.6511 5.68626 3.80666 5.68626 2.765C5.68626 1.72334 4.84182 0.878906 3.80016 0.878906C2.7585 0.878906 1.91406 1.72334 1.91406 2.765C1.91406 3.80666 2.7585 4.6511 3.80016 4.6511Z" fill="#9FF5FF" fill-opacity="0.56"/>
<path d="M7.10135 7.95179C7.10135 7.0764 6.7536 6.23686 6.1346 5.61786C5.51561 4.99887 4.67607 4.65112 3.80067 4.65112C2.92528 4.65112 2.08574 4.99887 1.46674 5.61786C0.847749 6.23686 0.5 7.0764 0.5 7.95179V9.36637H1.91457L2.3861 13.1385H5.21525L5.68677 9.36637H7.10135V7.95179Z" fill="#9FF5FF" fill-opacity="0.56"/>
<path d="M3.80016 4.6511C4.84182 4.6511 5.68626 3.80666 5.68626 2.765C5.68626 1.72334 4.84182 0.878906 3.80016 0.878906C2.7585 0.878906 1.91406 1.72334 1.91406 2.765C1.91406 3.80666 2.7585 4.6511 3.80016 4.6511Z" stroke="#003F88" stroke-linecap="round" stroke-linejoin="round"/>
<path d="M7.10135 7.95179C7.10135 7.0764 6.7536 6.23686 6.1346 5.61786C5.51561 4.99887 4.67607 4.65112 3.80067 4.65112C2.92528 4.65112 2.08574 4.99887 1.46674 5.61786C0.847749 6.23686 0.5 7.0764 0.5 7.95179V9.36637H1.91457L2.3861 13.1385H5.21525L5.68677 9.36637H7.10135V7.95179Z" stroke="#003F88" stroke-linecap="round" stroke-linejoin="round"/>
</g>
<defs>
<clipPath id="clip0_2226_19559">
<rect width="14" height="14" fill="white"/>
</clipPath>
</defs>
</svg>
