<svg id="Layer_1" data-name="Layer 1" xmlns="http://www.w3.org/2000/svg" viewBox="0 0 18 20"><defs><style>.cls-1{fill:none;stroke-linecap:round;stroke-linejoin:round;stroke-width:1.33px;}.cls-1,.cls-2{stroke:#292d32;}.cls-2{fill:#292d32;stroke-width:0.27px;}</style></defs><title>Employee-Referral</title><path class="cls-1" d="M7.28,9.42H7a4,4,0,1,1,.3,0Z"/><path class="cls-1" d="M7.13,19.15a8.11,8.11,0,0,1-4.45-1.23c-2.15-1.44-2.15-3.78,0-5.22a8.71,8.71,0,0,1,8.9,0"/><path class="cls-2" d="M9.28,19.08h0a.61.61,0,0,1-.17.15.5.5,0,0,1-.21.05m.38-.2,4.69-7a.3.3,0,0,0-.16-.08.28.28,0,0,0-.18,0,.33.33,0,0,0-.14.12.34.34,0,0,0-.05.17H13.3v1.5a5,5,0,0,0-4.1,2.64,6.15,6.15,0,0,0-.74,2.4h0a.44.44,0,0,0,.07.27.48.48,0,0,0,.23.17.34.34,0,0,0,.14,0m.38-.2h0a5.15,5.15,0,0,1,4-2m-4,2L13.44,17H13.3v.13M8.9,19.28h0v0Zm4.4-.73a.44.44,0,0,0,.08.25.45.45,0,0,0,.2.16.39.39,0,0,0,.26,0,.45.45,0,0,0,.23-.13h0l3.07-3.13h0l-.1-.09-3.6,2.91m-.14,0h.14m-.14,0h.14m-.14,0V17.1m.14,1.45V17.09H13.3m.46-2.46v-.13l.43-.31v-.83l2,2.05-2,2v-.83a.44.44,0,0,0-.13-.31.42.42,0,0,0-.32-.13h0a6.72,6.72,0,0,0-4.05,1.23,4.66,4.66,0,0,1,1-1.6,4.41,4.41,0,0,1,3-1.19Z"/></svg>