<svg width="14" height="15" viewBox="0 0 14 15" fill="none" xmlns="http://www.w3.org/2000/svg">
<g clip-path="url(#clip0_626_33940)">
<path d="M13.5 12.6978C13.5 12.963 13.3946 13.2174 13.2071 13.4049C13.0196 13.5924 12.7652 13.6978 12.5 13.6978H3.5C3.23478 13.6978 2.98043 13.5924 2.79289 13.4049C2.60536 13.2174 2.5 12.963 2.5 12.6978V1.69775C2.5 1.43253 2.60536 1.17818 2.79289 0.990647C2.98043 0.803111 3.23478 0.697754 3.5 0.697754H10L13.5 4.19775V12.6978Z" fill="#E6E6E6" fill-opacity="0.56"/>
<path d="M3.5 7.69775V13.6978" stroke="#6D6D6D" stroke-linecap="round" stroke-linejoin="round"/>
<path d="M0.5 10.6978H6.5" stroke="#6D6D6D" stroke-linecap="round" stroke-linejoin="round"/>
<path d="M2.5 5.19775V1.69775C2.5 1.43253 2.60536 1.17818 2.79289 0.990647C2.98043 0.803111 3.23478 0.697754 3.5 0.697754H10L13.5 4.19775V12.6978C13.5 12.963 13.3946 13.2174 13.2071 13.4049C13.0196 13.5924 12.7652 13.6978 12.5 13.6978H7.5" stroke="#6D6D6D" stroke-linecap="round" stroke-linejoin="round"/>
</g>
<defs>
<clipPath id="clip0_626_33940">
<rect width="14" height="14" fill="white" transform="translate(0 0.197754)"/>
</clipPath>
</defs>
</svg>
