<svg width="14" height="14" viewBox="0 0 14 14" fill="none" xmlns="http://www.w3.org/2000/svg">
<g clip-path="url(#clip0_891_3816)">
<path d="M8.99609 5.69843L11.2482 3.44629L13.5004 5.69843" stroke="#6D6D6D" stroke-linecap="round" stroke-linejoin="round"/>
<path d="M8.99609 9.30176L11.2482 11.5539L13.5004 9.30176" stroke="#6D6D6D" stroke-linecap="round" stroke-linejoin="round"/>
<path d="M3.80016 4.6511C4.84182 4.6511 5.68626 3.80666 5.68626 2.765C5.68626 1.72334 4.84182 0.878906 3.80016 0.878906C2.7585 0.878906 1.91406 1.72334 1.91406 2.765C1.91406 3.80666 2.7585 4.6511 3.80016 4.6511Z" fill="#E6E6E6" fill-opacity="0.56"/>
<path d="M7.10135 7.95204C7.10135 7.07665 6.7536 6.23711 6.1346 5.61811C5.51561 4.99912 4.67607 4.65137 3.80067 4.65137C2.92528 4.65137 2.08574 4.99912 1.46674 5.61811C0.847749 6.23711 0.5 7.07665 0.5 7.95204V9.36662H1.91457L2.3861 13.1388H5.21525L5.68677 9.36662H7.10135V7.95204Z" fill="#E6E6E6" fill-opacity="0.56"/>
<path d="M3.80016 4.6511C4.84182 4.6511 5.68626 3.80666 5.68626 2.765C5.68626 1.72334 4.84182 0.878906 3.80016 0.878906C2.7585 0.878906 1.91406 1.72334 1.91406 2.765C1.91406 3.80666 2.7585 4.6511 3.80016 4.6511Z" stroke="#6D6D6D" stroke-linecap="round" stroke-linejoin="round"/>
<path d="M7.10135 7.95204C7.10135 7.07665 6.7536 6.23711 6.1346 5.61811C5.51561 4.99912 4.67607 4.65137 3.80067 4.65137C2.92528 4.65137 2.08574 4.99912 1.46674 5.61811C0.847749 6.23711 0.5 7.07665 0.5 7.95204V9.36662H1.91457L2.3861 13.1388H5.21525L5.68677 9.36662H7.10135V7.95204Z" stroke="#6D6D6D" stroke-linecap="round" stroke-linejoin="round"/>
</g>
<defs>
<clipPath id="clip0_891_3816">
<rect width="14" height="14" fill="white"/>
</clipPath>
</defs>
</svg>
