<svg width="17" height="17" viewBox="0 0 17 17" fill="none" xmlns="http://www.w3.org/2000/svg">
<path fill-rule="evenodd" clip-rule="evenodd" d="M9.94502 7.35774L10.6685 7.35777C10.9393 7.35778 11.1588 7.57735 11.1588 7.84818C11.1588 8.11901 10.9392 8.33855 10.6684 8.33854L9.94602 8.33851C9.71615 9.24691 8.87253 9.95836 7.59699 10.1468L9.1633 11.7642C9.35171 11.9588 9.34672 12.2692 9.15216 12.4576C8.9576 12.646 8.64715 12.6411 8.45874 12.4465L6.13901 10.051C5.96628 9.87266 5.9561 9.59687 6.10552 9.40703C6.2021 9.27009 6.36642 9.1862 6.54557 9.20048C7.92159 9.31013 8.62711 8.82529 8.89517 8.33846L6.40442 8.33834C6.13359 8.33833 5.91405 8.11877 5.91406 7.84794C5.91408 7.5771 6.13364 7.35756 6.40447 7.35757L8.89207 7.35769C8.84119 7.27153 8.77553 7.18924 8.69435 7.11306C8.42784 6.86295 7.9622 6.65264 7.24254 6.65264C7.21709 6.65264 7.1921 6.65071 7.16771 6.64697L6.40442 6.64694C6.13745 6.64692 5.92104 6.43049 5.92105 6.16352C5.92107 5.89655 6.1375 5.68014 6.40447 5.68015L7.15218 5.68018C7.18147 5.67473 7.21167 5.67188 7.24254 5.67188C7.33545 5.67188 7.42646 5.67468 7.5155 5.6802L10.6685 5.68035C10.9354 5.68036 11.1518 5.89679 11.1518 6.16376C11.1518 6.43073 10.9354 6.64715 10.6684 6.64713L9.59258 6.64708C9.76057 6.86389 9.87872 7.10511 9.94502 7.35774Z" fill="#8B8B8B"/>
<path d="M14.3455 8.5165C14.3455 11.7341 11.7341 14.3455 8.5165 14.3455C5.29889 14.3455 2.6875 11.7341 2.6875 8.5165C2.6875 5.29889 5.29889 2.6875 8.5165 2.6875" stroke="#8B8B8B" stroke-width="0.980769" stroke-linecap="round" stroke-linejoin="round"/>
<path d="M14.9013 4.25586H10.5977" stroke="#8B8B8B" stroke-width="0.980769" stroke-miterlimit="10" stroke-linecap="round" stroke-linejoin="round"/>
<path d="M12.75 2.1543V6.45793" stroke="#8B8B8B" stroke-width="0.980769" stroke-miterlimit="10" stroke-linecap="round" stroke-linejoin="round"/>
</svg>
