<svg width="16" height="17" viewBox="0 0 16 17" fill="none" xmlns="http://www.w3.org/2000/svg">
<path d="M4.52734 1.50586V3.4674" stroke="#007EE5" stroke-width="0.980769" stroke-miterlimit="10" stroke-linecap="round" stroke-linejoin="round"/>
<path d="M9.75781 1.50586V3.4674" stroke="#007EE5" stroke-width="0.980769" stroke-miterlimit="10" stroke-linecap="round" stroke-linejoin="round"/>
<path d="M1.58594 6.14062H12.7013" stroke="#007EE5" stroke-width="0.980769" stroke-miterlimit="10" stroke-linecap="round" stroke-linejoin="round"/>
<path d="M8.03819 14.5825H4.52704C2.23858 14.5825 1.25781 13.2748 1.25781 11.3133V5.75556C1.25781 3.79402 2.23858 2.48633 4.52704 2.48633H9.75781C12.0463 2.48633 13.027 3.79402 13.027 5.75556V8.69787" stroke="#007EE5" stroke-width="0.980769" stroke-miterlimit="10" stroke-linecap="round" stroke-linejoin="round"/>
<path d="M7.79208 9.15505H7.79795" stroke="#007EE5" stroke-width="1.17692" stroke-linecap="round" stroke-linejoin="round"/>
<path d="M4.72177 9.15505H4.72764" stroke="#007EE5" stroke-width="1.17692" stroke-linecap="round" stroke-linejoin="round"/>
<path d="M4.72177 11.7703H4.72764" stroke="#007EE5" stroke-width="1.17692" stroke-linecap="round" stroke-linejoin="round"/>
<path d="M9.28516 11.8391V13.4886C9.28516 14.0947 9.28516 14.0947 9.85692 14.4806L11.4293 15.3897C11.6666 15.527 12.0525 15.527 12.2869 15.3897L13.8593 14.4806C14.4311 14.0947 14.4311 14.0947 14.4311 13.4915V11.8391C14.4311 11.2359 14.4311 11.2359 13.8593 10.8499L12.2869 9.94081C12.0525 9.80358 11.6666 9.80358 11.4293 9.94081L9.85692 10.8499C9.28516 11.2359 9.28516 11.2359 9.28516 11.8391Z" stroke="#007EE5" stroke-width="0.980769" stroke-linecap="round" stroke-linejoin="round"/>
<path d="M11.8602 13.2301C12.1713 13.2301 12.4235 12.9779 12.4235 12.6668C12.4235 12.3557 12.1713 12.1035 11.8602 12.1035C11.5491 12.1035 11.2969 12.3557 11.2969 12.6668C11.2969 12.9779 11.5491 13.2301 11.8602 13.2301Z" stroke="#007EE5" stroke-width="0.784615" stroke-linecap="round" stroke-linejoin="round"/>
</svg>
