<svg width="14" height="15" viewBox="0 0 14 15" fill="none" xmlns="http://www.w3.org/2000/svg">
<g clip-path="url(#clip0_626_34037)">
<path d="M5 6.69775C6.38071 6.69775 7.5 5.57846 7.5 4.19775C7.5 2.81704 6.38071 1.69775 5 1.69775C3.61929 1.69775 2.5 2.81704 2.5 4.19775C2.5 5.57846 3.61929 6.69775 5 6.69775Z" fill="#E6E6E6" fill-opacity="0.56"/>
<path d="M0.5 13.6979H5H9.5V13.1558C9.49204 12.3935 9.29102 11.6458 8.91573 10.9823C8.54043 10.3189 8.0031 9.76138 7.35393 9.36189C6.70475 8.96239 5.96491 8.73396 5.20352 8.69791C5.13564 8.6947 5.06778 8.69302 5 8.69287C4.93222 8.69302 4.86436 8.6947 4.79648 8.69791C4.03509 8.73396 3.29525 8.96239 2.64607 9.36189C1.9969 9.76138 1.45957 10.3189 1.08427 10.9823C0.708977 11.6458 0.507961 12.3935 0.5 13.1558V13.6979Z" fill="#E6E6E6" fill-opacity="0.56"/>
<path fill-rule="evenodd" clip-rule="evenodd" d="M7 5.69799C7.31395 5.28012 7.5 4.76066 7.5 4.19775C7.5 3.63484 7.31395 3.11538 7 2.69751C7.45611 2.09042 8.1822 1.69775 9 1.69775C10.3807 1.69775 11.5 2.81704 11.5 4.19775C11.5 5.57846 10.3807 6.69775 9 6.69775C8.1822 6.69775 7.45611 6.30508 7 5.69799ZM9.5 13.6978H13.5V13.1557C13.492 12.3934 13.291 11.6457 12.9157 10.9822C12.5404 10.3188 12.0031 9.76122 11.3539 9.36173C10.7047 8.96223 9.96491 8.7338 9.20352 8.69775C9.13563 8.69454 9.06778 8.69286 9 8.69271C8.93222 8.69286 8.86436 8.69454 8.79648 8.69775C8.17025 8.7274 7.55861 8.88719 7 9.16525C7.12057 9.22527 7.23868 9.2908 7.35392 9.36173C8.0031 9.76122 8.54043 10.3188 8.91573 10.9822C9.29102 11.6457 9.49204 12.3934 9.5 13.1557V13.6978Z" fill="white"/>
<path d="M5 6.69775C6.38071 6.69775 7.5 5.57846 7.5 4.19775C7.5 2.81704 6.38071 1.69775 5 1.69775C3.61929 1.69775 2.5 2.81704 2.5 4.19775C2.5 5.57846 3.61929 6.69775 5 6.69775Z" stroke="#6D6D6D" stroke-linecap="round" stroke-linejoin="round"/>
<path d="M0.5 13.6979H5H9.5V13.1558C9.49204 12.3935 9.29102 11.6458 8.91573 10.9823C8.54043 10.3189 8.0031 9.76138 7.35393 9.36189C6.70475 8.96239 5.96491 8.73396 5.20352 8.69791C5.13564 8.6947 5.06778 8.69302 5 8.69287C4.93222 8.69302 4.86436 8.6947 4.79648 8.69791C4.03509 8.73396 3.29525 8.96239 2.64607 9.36189C1.9969 9.76138 1.45957 10.3189 1.08427 10.9823C0.708977 11.6458 0.507961 12.3935 0.5 13.1558V13.6979Z" stroke="#6D6D6D" stroke-linecap="round" stroke-linejoin="round"/>
<path d="M9 6.69775C10.3807 6.69775 11.5 5.57846 11.5 4.19775C11.5 2.81704 10.3807 1.69775 9 1.69775" stroke="#6D6D6D" stroke-linecap="round" stroke-linejoin="round"/>
<path d="M11.5 13.6977H13.5V13.1556C13.492 12.3934 13.291 11.6456 12.9157 10.9821C12.5404 10.3187 12.0031 9.76115 11.3539 9.36166C10.9343 9.10342 10.4767 8.91665 10 8.80713" stroke="#6D6D6D" stroke-linecap="round" stroke-linejoin="round"/>
</g>
<defs>
<clipPath id="clip0_626_34037">
<rect width="14" height="14" fill="white" transform="translate(0 0.197754)"/>
</clipPath>
</defs>
</svg>
