<svg width="14" height="14" viewBox="0 0 14 14" fill="none" xmlns="http://www.w3.org/2000/svg">
<path d="M5 6.5C6.38071 6.5 7.5 5.38071 7.5 4C7.5 2.61929 6.38071 1.5 5 1.5C3.61929 1.5 2.5 2.61929 2.5 4C2.5 5.38071 3.61929 6.5 5 6.5Z" fill="#9FF5FF" fill-opacity="0.56"/>
<path d="M0.5 13.4999H5H9.5V12.9578C9.49204 12.1955 9.29102 11.4478 8.91573 10.7843C8.54043 10.1209 8.0031 9.56338 7.35393 9.16389C6.70475 8.76439 5.96491 8.53596 5.20352 8.49991C5.13564 8.4967 5.06778 8.49502 5 8.49487C4.93222 8.49502 4.86436 8.4967 4.79648 8.49991C4.03509 8.53596 3.29525 8.76439 2.64607 9.16389C1.9969 9.56338 1.45957 10.1209 1.08427 10.7843C0.708977 11.4478 0.507961 12.1955 0.5 12.9578V13.4999Z" fill="#9FF5FF" fill-opacity="0.56"/>
<path fill-rule="evenodd" clip-rule="evenodd" d="M7 5.50024C7.31395 5.08237 7.5 4.56291 7.5 4C7.5 3.43709 7.31395 2.91763 7 2.49976C7.45611 1.89267 8.1822 1.5 9 1.5C10.3807 1.5 11.5 2.61929 11.5 4C11.5 5.38071 10.3807 6.5 9 6.5C8.1822 6.5 7.45611 6.10733 7 5.50024ZM9.5 13.5H13.5V12.9579C13.492 12.1956 13.291 11.4479 12.9157 10.7844C12.5404 10.121 12.0031 9.56347 11.3539 9.16398C10.7047 8.76448 9.96491 8.53605 9.20352 8.5C9.13563 8.49679 9.06778 8.49511 9 8.49496C8.93222 8.49511 8.86436 8.49679 8.79648 8.5C8.17025 8.52965 7.55861 8.68944 7 8.9675C7.12057 9.02752 7.23868 9.09305 7.35392 9.16398C8.0031 9.56347 8.54043 10.121 8.91573 10.7844C9.29102 11.4479 9.49204 12.1956 9.5 12.9579V13.5Z" fill="white"/>
<path d="M5 6.5C6.38071 6.5 7.5 5.38071 7.5 4C7.5 2.61929 6.38071 1.5 5 1.5C3.61929 1.5 2.5 2.61929 2.5 4C2.5 5.38071 3.61929 6.5 5 6.5Z" stroke="#003F88" stroke-linecap="round" stroke-linejoin="round"/>
<path d="M0.5 13.4999H5H9.5V12.9578C9.49204 12.1955 9.29102 11.4478 8.91573 10.7843C8.54043 10.1209 8.0031 9.56338 7.35393 9.16389C6.70475 8.76439 5.96491 8.53596 5.20352 8.49991C5.13564 8.4967 5.06778 8.49502 5 8.49487C4.93222 8.49502 4.86436 8.4967 4.79648 8.49991C4.03509 8.53596 3.29525 8.76439 2.64607 9.16389C1.9969 9.56338 1.45957 10.1209 1.08427 10.7843C0.708977 11.4478 0.507961 12.1955 0.5 12.9578V13.4999Z" stroke="#003F88" stroke-linecap="round" stroke-linejoin="round"/>
<path d="M9 6.5C10.3807 6.5 11.5 5.38071 11.5 4C11.5 2.61929 10.3807 1.5 9 1.5" stroke="#003F88" stroke-linecap="round" stroke-linejoin="round"/>
<path d="M11.5 13.4999H13.5V12.9578C13.492 12.1956 13.291 11.4478 12.9157 10.7843C12.5404 10.1209 12.0031 9.56339 11.3539 9.1639C10.9343 8.90566 10.4767 8.7189 10 8.60938" stroke="#003F88" stroke-linecap="round" stroke-linejoin="round"/>
</svg>
