<svg width="14" height="15" viewBox="0 0 14 15" fill="none" xmlns="http://www.w3.org/2000/svg">
<g clip-path="url(#clip0_626_34013)">
<path d="M12.5 3.69775H1.5C0.947715 3.69775 0.5 4.14547 0.5 4.69775V12.6978C0.5 13.2501 0.947715 13.6978 1.5 13.6978H12.5C13.0523 13.6978 13.5 13.2501 13.5 12.6978V4.69775C13.5 4.14547 13.0523 3.69775 12.5 3.69775Z" fill="#E6E6E6" fill-opacity="0.56"/>
<path d="M12.5 3.69775H1.5C0.947715 3.69775 0.5 4.14547 0.5 4.69775V12.6978C0.5 13.2501 0.947715 13.6978 1.5 13.6978H12.5C13.0523 13.6978 13.5 13.2501 13.5 12.6978V4.69775C13.5 4.14547 13.0523 3.69775 12.5 3.69775Z" stroke="#6D6D6D" stroke-linecap="round" stroke-linejoin="round"/>
<path d="M10 3.69775V1.69775C10 1.43253 9.89464 1.17818 9.70711 0.990647C9.51957 0.803111 9.26522 0.697754 9 0.697754H5C4.73478 0.697754 4.48043 0.803111 4.29289 0.990647C4.10536 1.17818 4 1.43253 4 1.69775V3.69775" stroke="#6D6D6D" stroke-linecap="round" stroke-linejoin="round"/>
<path d="M8.27579 7.36442C8.23189 7.24021 8.16415 7.12727 8.07806 7.03109C7.89496 6.8265 7.62886 6.69775 7.33269 6.69775H6.55865C6.06566 6.69775 5.66602 7.0974 5.66602 7.59039C5.66602 8.00987 5.95811 8.37276 6.3679 8.46241L7.54639 8.7202C8.00548 8.82063 8.3327 9.22746 8.3327 9.6974C8.3327 10.2497 7.88498 10.6977 7.33269 10.6977H6.66602C6.23061 10.6977 5.8602 10.4195 5.72292 10.0311" stroke="#6D6D6D" stroke-linecap="round" stroke-linejoin="round"/>
<path d="M7.00006 6.69776V5.69775" stroke="#6D6D6D" stroke-linecap="round" stroke-linejoin="round"/>
<path d="M7.00006 11.6978V10.6978" stroke="#6D6D6D" stroke-linecap="round" stroke-linejoin="round"/>
</g>
<defs>
<clipPath id="clip0_626_34013">
<rect width="14" height="14" fill="white" transform="translate(0 0.197754)"/>
</clipPath>
</defs>
</svg>
