<svg width="11" height="15" viewBox="0 0 11 15" fill="none" xmlns="http://www.w3.org/2000/svg">
<path d="M7.96656 3.92164C7.96656 5.09507 7.01531 6.04633 5.84188 6.04633V7.02695C7.55689 7.02695 8.94719 5.63666 8.94719 3.92164H7.96656ZM5.84188 6.04633C4.66844 6.04633 3.71719 5.09507 3.71719 3.92164H2.73656C2.73656 5.63666 4.12686 7.02695 5.84188 7.02695V6.04633ZM3.71719 3.92164C3.71719 2.74821 4.66844 1.79695 5.84188 1.79695V0.816328C4.12686 0.816328 2.73656 2.20662 2.73656 3.92164H3.71719ZM5.84188 1.79695C7.01531 1.79695 7.96656 2.74821 7.96656 3.92164H8.94719C8.94719 2.20662 7.55689 0.816328 5.84188 0.816328V1.79695ZM3.88063 8.9882H7.80312V8.00758H3.88063V8.9882ZM7.80312 13.2376H3.88062V14.2182H7.80312V13.2376ZM3.88062 13.2376C2.70719 13.2376 1.75594 12.2863 1.75594 11.1129H0.775312C0.775312 12.8279 2.16561 14.2182 3.88062 14.2182V13.2376ZM9.92781 11.1129C9.92781 12.2863 8.97656 13.2376 7.80312 13.2376V14.2182C9.51814 14.2182 10.9084 12.8279 10.9084 11.1129H9.92781ZM7.80312 8.9882C8.97656 8.9882 9.92781 9.93946 9.92781 11.1129H10.9084C10.9084 9.39787 9.51814 8.00758 7.80312 8.00758V8.9882ZM3.88063 8.00758C2.16561 8.00758 0.775312 9.39787 0.775312 11.1129H1.75594C1.75594 9.93946 2.70719 8.9882 3.88063 8.9882V8.00758Z" fill="#8B8B8B"/>
</svg>
