<svg width="16" height="17" viewBox="0 0 16 17" fill="none" xmlns="http://www.w3.org/2000/svg">
<path d="M13.4044 8.04365V5.25828C13.4044 2.62328 12.7898 1.96289 10.3183 1.96289H5.37522C2.90368 1.96289 2.28906 2.62328 2.28906 5.25828V12.6206C2.28906 14.3598 3.24369 14.7717 4.40099 13.5294L4.40752 13.5229C4.94367 12.954 5.76098 12.9998 6.22521 13.621L6.8856 14.5037" stroke="#007EE5" stroke-width="0.980769" stroke-linecap="round" stroke-linejoin="round"/>
<path d="M5.23047 5.23047H10.4612" stroke="#007EE5" stroke-width="0.980769" stroke-linecap="round" stroke-linejoin="round"/>
<path d="M5.88281 7.8457H9.80589" stroke="#007EE5" stroke-width="0.980769" stroke-linecap="round" stroke-linejoin="round"/>
<path d="M11.5528 9.96403C11.324 9.89538 11.0722 9.84961 10.7885 9.84961C9.52523 9.84961 8.5 10.8748 8.5 12.1381C8.5 13.4013 9.52523 14.4265 10.7885 14.4265C12.0517 14.4265 13.0769 13.4013 13.0769 12.1381C13.0769 11.6666 12.935 11.2318 12.6925 10.8657" stroke="#007EE5" stroke-width="0.980769" stroke-linecap="round" stroke-linejoin="round"/>
<path d="M11.8809 10.0285L11.1211 9.1543" stroke="#007EE5" stroke-width="0.980769" stroke-linecap="round" stroke-linejoin="round"/>
<path d="M11.8801 10.0312L10.9922 10.6812" stroke="#007EE5" stroke-width="0.980769" stroke-linecap="round" stroke-linejoin="round"/>
</svg>
