<svg width="17" height="17" viewBox="0 0 17 17" fill="none" xmlns="http://www.w3.org/2000/svg">
<path d="M14.0959 8.04365V5.25828C14.0959 2.62328 13.4812 1.96289 11.0097 1.96289H6.06662C3.59508 1.96289 2.98047 2.62328 2.98047 5.25828V12.6206C2.98047 14.3598 3.93509 14.7717 5.0924 13.5294L5.09892 13.5229C5.63508 12.954 6.45238 12.9998 6.91662 13.621L7.57701 14.5037" stroke="#8B8B8B" stroke-width="0.980769" stroke-linecap="round" stroke-linejoin="round"/>
<path d="M5.92188 5.23047H11.1526" stroke="#8B8B8B" stroke-width="0.980769" stroke-linecap="round" stroke-linejoin="round"/>
<path d="M6.57422 7.8457H10.4973" stroke="#8B8B8B" stroke-width="0.980769" stroke-linecap="round" stroke-linejoin="round"/>
<path d="M12.2442 9.96403C12.0154 9.89538 11.7636 9.84961 11.4799 9.84961C10.2166 9.84961 9.19141 10.8748 9.19141 12.1381C9.19141 13.4013 10.2166 14.4265 11.4799 14.4265C12.7431 14.4265 13.7683 13.4013 13.7683 12.1381C13.7683 11.6666 13.6264 11.2318 13.3839 10.8657" stroke="#8B8B8B" stroke-width="0.980769" stroke-linecap="round" stroke-linejoin="round"/>
<path d="M12.5723 10.0285L11.8125 9.1543" stroke="#8B8B8B" stroke-width="0.980769" stroke-linecap="round" stroke-linejoin="round"/>
<path d="M12.5676 10.0312L11.6797 10.6812" stroke="#8B8B8B" stroke-width="0.980769" stroke-linecap="round" stroke-linejoin="round"/>
</svg>
