<svg width="15" height="15" viewBox="0 0 15 15" fill="none" xmlns="http://www.w3.org/2000/svg">
<path d="M5.64405 2.54492L4.76733 2.74602C4.80265 2.89973 4.80707 3.05893 4.78032 3.21436C4.75357 3.36979 4.69619 3.51835 4.61151 3.65141C4.52684 3.78447 4.41656 3.89937 4.28709 3.98943C4.15762 4.07949 4.01153 4.14292 3.85733 4.17602C3.54464 4.2418 3.21863 4.18227 2.94936 4.01024C2.68009 3.83821 2.48906 3.5674 2.41733 3.25602L1.63733 3.41602C1.53036 3.43936 1.42923 3.48414 1.34006 3.54766C1.25089 3.61118 1.17551 3.69212 1.1185 3.78559C1.06149 3.87905 1.02401 3.98311 1.00834 4.09147C0.992669 4.19982 0.999128 4.31023 1.02733 4.41602C1.02733 4.41602 1.49748 6.57117 1.91748 8.45117" fill="white"/>
<path d="M5.15733 2.65625L4.76733 2.74625C4.80265 2.89996 4.80707 3.05916 4.78032 3.21459C4.75357 3.37002 4.69619 3.51859 4.61151 3.65164C4.52684 3.7847 4.41656 3.8996 4.28709 3.98966C4.15762 4.07973 4.01153 4.14315 3.85733 4.17625C3.54464 4.24203 3.21863 4.18251 2.94936 4.01047C2.68009 3.83844 2.48906 3.56763 2.41733 3.25625L1.63733 3.41625C1.53036 3.43959 1.42923 3.48438 1.34006 3.5479C1.25089 3.61142 1.17551 3.69235 1.1185 3.78582C1.06149 3.87929 1.02401 3.98334 1.00834 4.0917C0.992669 4.20006 0.999128 4.31046 1.02733 4.41625C1.02733 4.41625 1.38733 6.08626 1.80733 7.96626" stroke="#6D6D6D" stroke-linecap="round" stroke-linejoin="round"/>
<path d="M12.6573 2.64624C12.5976 2.81462 12.5042 2.96912 12.383 3.10037C12.2618 3.23162 12.1152 3.33689 11.9521 3.40982C11.789 3.48274 11.6127 3.52179 11.4341 3.5246C11.2554 3.52741 11.0781 3.49392 10.9128 3.42617C10.7474 3.35841 10.5976 3.2578 10.4723 3.13042C10.347 3.00305 10.2489 2.85156 10.1839 2.68514C10.1188 2.51872 10.0883 2.34084 10.094 2.16226C10.0998 1.98368 10.1417 1.80813 10.2173 1.64624L9.40733 1.26624C9.19104 1.1761 8.94793 1.1749 8.73076 1.26289C8.51359 1.35088 8.33988 1.52097 8.24733 1.73624L4.88733 9.64624L4.44733 10.6462C4.3572 10.8625 4.35599 11.1056 4.44398 11.3228C4.53198 11.5399 4.70206 11.7136 4.91733 11.8062L8.97733 13.5362C9.19362 13.6263 9.43673 13.6275 9.65391 13.5395C9.87108 13.4515 10.0448 13.2815 10.1373 13.0662L13.9373 4.12624C14.0211 3.91834 14.0234 3.6865 13.9436 3.47702C13.8639 3.26752 13.7081 3.09584 13.5073 2.99624L12.6573 2.64624Z" fill="#E6E6E6" fill-opacity="0.56"/>
<path d="M12.6573 2.64624C12.5976 2.81462 12.5042 2.96912 12.383 3.10037C12.2618 3.23162 12.1152 3.3369 11.9521 3.40982C11.789 3.48274 11.6127 3.52179 11.4341 3.5246C11.2554 3.52741 11.0781 3.49392 10.9128 3.42617C10.7474 3.35841 10.5976 3.2578 10.4723 3.13042C10.347 3.00305 10.2489 2.85156 10.1839 2.68514C10.1188 2.51872 10.0883 2.34084 10.094 2.16226C10.0998 1.98368 10.1417 1.80813 10.2173 1.64624L9.40733 1.26624C9.19104 1.1761 8.94793 1.1749 8.73076 1.26289C8.51359 1.35088 8.33988 1.52097 8.24733 1.73624L4.88733 9.64624L4.44733 10.6462C4.3572 10.8625 4.35599 11.1056 4.44398 11.3228C4.53198 11.5399 4.70206 11.7136 4.91733 11.8062L8.97733 13.5362C9.19362 13.6263 9.43673 13.6275 9.65391 13.5395C9.87108 13.4515 10.0448 13.2815 10.1373 13.0662L13.9373 4.12624C14.0211 3.91835 14.0234 3.6865 13.9436 3.47702C13.8639 3.26753 13.7081 3.09584 13.5073 2.99624L12.6573 2.64624Z" stroke="#6D6D6D" stroke-linecap="round" stroke-linejoin="round"/>
</svg>
