<svg width="14" height="14" viewBox="0 0 14 14" fill="none" xmlns="http://www.w3.org/2000/svg">
<g clip-path="url(#clip0_2347_2507)">
<path d="M5.14405 2.1438L4.26733 2.3449C4.30265 2.49861 4.30707 2.65781 4.28032 2.81324C4.25357 2.96867 4.19619 3.11723 4.11151 3.25029C4.02684 3.38335 3.91656 3.49825 3.78709 3.58831C3.65762 3.67837 3.51153 3.7418 3.35733 3.7749C3.04464 3.84068 2.71863 3.78115 2.44936 3.60912C2.18009 3.43709 1.98906 3.16628 1.91733 2.8549L1.13733 3.0149C1.03036 3.03824 0.929233 3.08302 0.840059 3.14654C0.750885 3.21006 0.675514 3.291 0.6185 3.38447C0.561485 3.47793 0.52401 3.58199 0.50834 3.69035C0.492669 3.7987 0.499128 3.90911 0.527326 4.0149C0.527326 4.0149 0.99748 6.17005 1.41748 8.05005" fill="white"/>
<path d="M4.65733 2.25488L4.26733 2.34488C4.30265 2.49859 4.30707 2.65779 4.28032 2.81322C4.25357 2.96865 4.19619 3.11722 4.11151 3.25027C4.02684 3.38333 3.91656 3.49823 3.78709 3.58829C3.65762 3.67836 3.51153 3.74178 3.35733 3.77488C3.04464 3.84066 2.71863 3.78114 2.44936 3.6091C2.18009 3.43707 1.98906 3.16626 1.91733 2.85488L1.13733 3.01488C1.03036 3.03822 0.929233 3.08301 0.840059 3.14653C0.750885 3.21005 0.675514 3.29098 0.6185 3.38445C0.561485 3.47792 0.52401 3.58197 0.50834 3.69033C0.492669 3.79869 0.499128 3.90909 0.527326 4.01488C0.527326 4.01488 0.887326 5.68489 1.30733 7.56489" stroke="#003F88" stroke-linecap="round" stroke-linejoin="round"/>
<path d="M12.1574 2.24487C12.0977 2.41325 12.0043 2.56775 11.8831 2.699C11.7619 2.83025 11.6153 2.93553 11.4522 3.00845C11.2891 3.08137 11.1128 3.12042 10.9342 3.12323C10.7555 3.12604 10.5782 3.09255 10.4129 3.0248C10.2475 2.95704 10.0977 2.85643 9.97237 2.72905C9.84707 2.60168 9.74894 2.45019 9.68392 2.28377C9.6189 2.11735 9.58834 1.93947 9.59409 1.76089C9.59985 1.58231 9.64179 1.40676 9.71739 1.24487L8.90739 0.86487C8.6911 0.774733 8.44799 0.77353 8.23082 0.861522C8.01365 0.949514 7.83994 1.1196 7.74739 1.33487L4.38739 9.24487L3.94739 10.2449C3.85726 10.4612 3.85605 10.7043 3.94404 10.9215C4.03204 11.1386 4.20212 11.3123 4.41739 11.4049L8.47739 13.1349C8.69368 13.225 8.93679 13.2262 9.15397 13.1382C9.37114 13.0502 9.54485 12.8802 9.63739 12.6649L13.4374 3.72487C13.5212 3.51698 13.5235 3.28513 13.4437 3.07565C13.364 2.86616 13.2082 2.69447 13.0074 2.59487L12.1574 2.24487Z" fill="#C9F9FF"/>
<path d="M12.1574 2.24487C12.0977 2.41325 12.0043 2.56775 11.8831 2.699C11.7619 2.83025 11.6153 2.93553 11.4522 3.00845C11.2891 3.08137 11.1128 3.12042 10.9342 3.12323C10.7555 3.12604 10.5782 3.09255 10.4129 3.0248C10.2475 2.95704 10.0977 2.85643 9.97237 2.72905C9.84707 2.60168 9.74894 2.45019 9.68392 2.28377C9.6189 2.11735 9.58834 1.93947 9.59409 1.76089C9.59985 1.58231 9.64179 1.40676 9.71739 1.24487L8.90739 0.86487C8.6911 0.774733 8.44799 0.77353 8.23082 0.861522C8.01365 0.949514 7.83994 1.1196 7.74739 1.33487L4.38739 9.24487L3.94739 10.2449C3.85726 10.4612 3.85605 10.7043 3.94404 10.9215C4.03204 11.1386 4.20212 11.3123 4.41739 11.4049L8.47739 13.1349C8.69368 13.225 8.93679 13.2262 9.15397 13.1382C9.37114 13.0502 9.54485 12.8802 9.63739 12.6649L13.4374 3.72487C13.5212 3.51698 13.5235 3.28513 13.4437 3.07565C13.364 2.86616 13.2082 2.69447 13.0074 2.59487L12.1574 2.24487Z" stroke="#003F88" stroke-linecap="round" stroke-linejoin="round"/>
</g>
<defs>
<clipPath id="clip0_2347_2507">
<rect width="14" height="14" fill="white"/>
</clipPath>
</defs>
</svg>
