<svg width="14" height="14" viewBox="0 0 14 14" fill="none" xmlns="http://www.w3.org/2000/svg">
<g clip-path="url(#clip0_2226_19550)">
<path d="M0.282187 13.5H0.999756C1.53019 13.5 2.0389 13.2893 2.41397 12.9142C2.78905 12.5391 2.99976 12.0304 2.99976 11.5C2.99976 12.0304 3.21047 12.5391 3.58555 12.9142C3.96062 13.2893 4.46933 13.5 4.99976 13.5C5.53019 13.5 6.0389 13.2893 6.41397 12.9142C6.78905 12.5391 6.99976 12.0304 6.99976 11.5C6.99976 12.0304 7.21047 12.5391 7.58555 12.9142C7.96062 13.2893 8.46933 13.5 8.99976 13.5C9.53019 13.5 10.0389 13.2893 10.414 12.9142C10.7891 12.5391 10.9998 12.0304 10.9998 11.5C10.9998 11.8283 11.0805 12.1483 11.231 12.4334C10.9474 9.66205 8.60604 7.5 5.75977 7.5C2.7222 7.5 0.259766 9.96243 0.259766 13C0.259766 13.1685 0.267347 13.3353 0.282187 13.5Z" fill="#9FF5FF" fill-opacity="0.56"/>
<path d="M13.5 13.4805H13C12.4696 13.4805 11.9609 13.2698 11.5858 12.8947C11.2107 12.5196 11 12.0109 11 11.4805C11 12.0109 10.7893 12.5196 10.4142 12.8947C10.0391 13.2698 9.53043 13.4805 9 13.4805C8.46957 13.4805 7.96086 13.2698 7.58579 12.8947C7.21071 12.5196 7 12.0109 7 11.4805C7 12.0109 6.78929 12.5196 6.41421 12.8947C6.03914 13.2698 5.53043 13.4805 5 13.4805C4.46957 13.4805 3.96086 13.2698 3.58579 12.8947C3.21071 12.5196 3 12.0109 3 11.4805C3 12.0109 2.78929 12.5196 2.41421 12.8947C2.03914 13.2698 1.53043 13.4805 1 13.4805H0.5" stroke="#003F88" stroke-linecap="round" stroke-linejoin="round"/>
<path d="M9.99953 9.48006C9.48451 8.8539 8.83719 8.34959 8.10409 8.00335C7.37098 7.65711 6.57029 7.47754 5.75953 7.47754C4.94878 7.47754 4.14809 7.65711 3.41498 8.00335C2.68188 8.34959 2.03456 8.8539 1.51953 9.48006" stroke="#003F88" stroke-linecap="round" stroke-linejoin="round"/>
<path d="M6.5 7.52973C6.56 5.26973 7.25 3.20973 8.75 2.46973" stroke="#003F88" stroke-linecap="round" stroke-linejoin="round"/>
<path d="M5.75977 0.570101C6.40801 0.442458 7.08051 0.568362 7.63866 0.92186C8.19682 1.27536 8.59809 1.82951 8.75977 2.4701" stroke="#003F88" stroke-linecap="round" stroke-linejoin="round"/>
<path d="M12.41 2.84026C11.9497 2.34329 11.3239 2.03145 10.65 1.96332C9.97602 1.89519 9.30041 2.07546 8.75 2.47026" stroke="#003F88" stroke-linecap="round" stroke-linejoin="round"/>
<path d="M5.08008 3.53977C5.47193 2.96248 6.05275 2.53981 6.72258 2.34452C7.39242 2.14923 8.10938 2.19352 8.75008 2.46977C9.39275 2.62695 9.94917 3.02775 10.3018 3.58752C10.6545 4.1473 10.7758 4.82223 10.6401 5.46977" stroke="#003F88" stroke-linecap="round" stroke-linejoin="round"/>
</g>
<defs>
<clipPath id="clip0_2226_19550">
<rect width="14" height="14" fill="white"/>
</clipPath>
</defs>
</svg>
