<svg width="16" height="17" viewBox="0 0 16 17" fill="none" xmlns="http://www.w3.org/2000/svg">
<path d="M6.4585 4.5381H9.03175C10.3184 4.5381 10.3184 3.89478 10.3184 3.25147C10.3184 1.96484 9.67507 1.96484 9.03175 1.96484H6.4585C5.81519 1.96484 5.17188 1.96484 5.17188 3.25147C5.17188 4.5381 5.81519 4.5381 6.4585 4.5381Z" stroke="#007EE5" stroke-width="0.980769" stroke-miterlimit="10" stroke-linecap="round" stroke-linejoin="round"/>
<path d="M10.3201 3.26367C12.4623 3.37947 13.5367 4.17074 13.5367 7.11068V10.9706C13.5367 13.5438 12.8934 14.8304 9.67679 14.8304H5.81691C2.60034 14.8304 1.95703 13.5438 1.95703 10.9706V7.11068C1.95703 4.17718 3.03136 3.37947 5.1736 3.26367" stroke="#007EE5" stroke-width="0.980769" stroke-miterlimit="10" stroke-linecap="round" stroke-linejoin="round"/>
<mask id="path-3-inside-1_2642_15865" fill="white">
<path d="M9.91065 10.7891C9.91065 9.15445 8.94188 8.19922 7.74672 8.19922C6.55156 8.19922 5.55469 9.15445 5.55469 10.7891"/>
</mask>
<path d="M5.55469 10.3941C5.33657 10.3941 5.15975 10.5709 5.15975 10.7891C5.15975 11.0072 5.33657 11.184 5.55469 11.184V10.3941ZM5.58278 11.184C5.8009 11.184 5.97772 11.0072 5.97772 10.7891C5.97772 10.5709 5.8009 10.3941 5.58278 10.3941V11.184ZM5.55469 11.184H5.58278V10.3941H5.55469V11.184ZM9.12077 10.7891C9.12077 11.2253 9.47441 11.5789 9.91065 11.5789C10.3469 11.5789 10.7005 11.2253 10.7005 10.7891H9.12077ZM4.76481 10.7891C4.76481 11.2253 5.11845 11.5789 5.55469 11.5789C5.99093 11.5789 6.34457 11.2253 6.34457 10.7891H4.76481ZM10.7005 10.7891C10.7005 9.81618 10.4105 8.97118 9.86876 8.35812C9.32328 7.74083 8.56466 7.40934 7.74672 7.40934V8.9891C8.12393 8.9891 8.44729 9.13523 8.68498 9.4042C8.9264 9.67741 9.12077 10.1273 9.12077 10.7891H10.7005ZM7.74672 7.40934C6.93041 7.40934 6.16716 7.73937 5.61527 8.35291C5.06538 8.96421 4.76481 9.81024 4.76481 10.7891H6.34457C6.34457 10.1333 6.54243 9.68438 6.78977 9.40941C7.0351 9.13668 7.36787 8.9891 7.74672 8.9891V7.40934Z" fill="#007EE5" mask="url(#path-3-inside-1_2642_15865)"/>
<path d="M5.19312 7.91382L5.14583 7.86653M10.2931 7.91382L10.3404 7.86653L10.2931 7.91382ZM7.7431 6.85527V6.82617V6.85527ZM4.13458 10.4638H4.10547H4.13458ZM11.3807 10.4638H11.3516H11.3807Z" stroke="#007EE5" stroke-width="0.980769" stroke-linecap="round" stroke-linejoin="round"/>
</svg>
