<svg width="17" height="17" viewBox="0 0 17 17" fill="none" xmlns="http://www.w3.org/2000/svg">
<path d="M7.14991 4.5381H9.72316C11.0098 4.5381 11.0098 3.89478 11.0098 3.25147C11.0098 1.96484 10.3665 1.96484 9.72316 1.96484H7.14991C6.50659 1.96484 5.86328 1.96484 5.86328 3.25147C5.86328 4.5381 6.50659 4.5381 7.14991 4.5381Z" stroke="#8B8B8B" stroke-width="0.980769" stroke-miterlimit="10" stroke-linecap="round" stroke-linejoin="round"/>
<path d="M11.0115 3.26367C13.1537 3.37947 14.2281 4.17074 14.2281 7.11068V10.9706C14.2281 13.5438 13.5848 14.8304 10.3682 14.8304H6.50832C3.29175 14.8304 2.64844 13.5438 2.64844 10.9706V7.11068C2.64844 4.17718 3.72277 3.37947 5.865 3.26367" stroke="#8B8B8B" stroke-width="0.980769" stroke-miterlimit="10" stroke-linecap="round" stroke-linejoin="round"/>
<mask id="path-3-inside-1_2642_15680" fill="white">
<path d="M10.6021 10.7891C10.6021 9.15445 9.63328 8.19922 8.43812 8.19922C7.24297 8.19922 6.24609 9.15445 6.24609 10.7891"/>
</mask>
<path d="M6.24609 10.3941C6.02797 10.3941 5.85115 10.5709 5.85115 10.7891C5.85115 11.0072 6.02797 11.184 6.24609 11.184V10.3941ZM6.27419 11.184C6.49231 11.184 6.66913 11.0072 6.66913 10.7891C6.66913 10.5709 6.49231 10.3941 6.27419 10.3941V11.184ZM6.24609 11.184H6.27419V10.3941H6.24609V11.184ZM9.81218 10.7891C9.81218 11.2253 10.1658 11.5789 10.6021 11.5789C11.0383 11.5789 11.3919 11.2253 11.3919 10.7891H9.81218ZM5.45621 10.7891C5.45621 11.2253 5.80985 11.5789 6.24609 11.5789C6.68233 11.5789 7.03598 11.2253 7.03598 10.7891H5.45621ZM11.3919 10.7891C11.3919 9.81618 11.1019 8.97118 10.5602 8.35812C10.0147 7.74083 9.25607 7.40934 8.43812 7.40934V8.9891C8.81534 8.9891 9.13869 9.13523 9.37638 9.4042C9.61781 9.67741 9.81218 10.1273 9.81218 10.7891H11.3919ZM8.43812 7.40934C7.62182 7.40934 6.85857 7.73937 6.30667 8.35291C5.75679 8.96421 5.45621 9.81024 5.45621 10.7891H7.03598C7.03598 10.1333 7.23383 9.68438 7.48118 9.40941C7.7265 9.13668 8.05927 8.9891 8.43812 8.9891V7.40934Z" fill="#8B8B8B" mask="url(#path-3-inside-1_2642_15680)"/>
<path d="M5.88452 7.91382L5.83723 7.86653M10.9845 7.91382L11.0318 7.86653L10.9845 7.91382ZM8.43451 6.85527V6.82617V6.85527ZM4.82598 10.4638H4.79688H4.82598ZM12.0721 10.4638H12.043H12.0721Z" stroke="#8B8B8B" stroke-width="0.980769" stroke-linecap="round" stroke-linejoin="round"/>
</svg>
