<svg width="14" height="15" viewBox="0 0 14 15" fill="none" xmlns="http://www.w3.org/2000/svg">
<g clip-path="url(#clip0_626_33902)">
<path d="M0.282187 13.6978H0.999756C1.53019 13.6978 2.0389 13.4871 2.41397 13.112C2.78905 12.7369 2.99976 12.2282 2.99976 11.6978C2.99976 12.2282 3.21047 12.7369 3.58555 13.112C3.96062 13.4871 4.46933 13.6978 4.99976 13.6978C5.53019 13.6978 6.0389 13.4871 6.41397 13.112C6.78905 12.7369 6.99976 12.2282 6.99976 11.6978C6.99976 12.2282 7.21047 12.7369 7.58555 13.112C7.96062 13.4871 8.46933 13.6978 8.99976 13.6978C9.53019 13.6978 10.0389 13.4871 10.414 13.112C10.7891 12.7369 10.9998 12.2282 10.9998 11.6978C10.9998 12.0261 11.0805 12.3461 11.231 12.6312C10.9474 9.8598 8.60604 7.69775 5.75977 7.69775C2.7222 7.69775 0.259766 10.1602 0.259766 13.1978C0.259766 13.3663 0.267347 13.5331 0.282187 13.6978Z" fill="#E6E6E6" fill-opacity="0.56"/>
<path d="M13.5 13.6782H13C12.4696 13.6782 11.9609 13.4675 11.5858 13.0924C11.2107 12.7173 11 12.2086 11 11.6782C11 12.2086 10.7893 12.7173 10.4142 13.0924C10.0391 13.4675 9.53043 13.6782 9 13.6782C8.46957 13.6782 7.96086 13.4675 7.58579 13.0924C7.21071 12.7173 7 12.2086 7 11.6782C7 12.2086 6.78929 12.7173 6.41421 13.0924C6.03914 13.4675 5.53043 13.6782 5 13.6782C4.46957 13.6782 3.96086 13.4675 3.58579 13.0924C3.21071 12.7173 3 12.2086 3 11.6782C3 12.2086 2.78929 12.7173 2.41421 13.0924C2.03914 13.4675 1.53043 13.6782 1 13.6782H0.5" stroke="#6D6D6D" stroke-linecap="round" stroke-linejoin="round"/>
<path d="M9.99977 9.67781C9.48475 9.05165 8.83744 8.54734 8.10434 8.2011C7.37123 7.85486 6.57054 7.67529 5.75978 7.67529C4.94903 7.67529 4.14834 7.85486 3.41523 8.2011C2.68213 8.54734 2.03481 9.05165 1.51978 9.67781" stroke="#6D6D6D" stroke-linecap="round" stroke-linejoin="round"/>
<path d="M6.5 7.72748C6.56 5.46748 7.25 3.40748 8.75 2.66748" stroke="#6D6D6D" stroke-linecap="round" stroke-linejoin="round"/>
<path d="M5.75977 0.767854C6.40801 0.640212 7.08051 0.766115 7.63866 1.11961C8.19682 1.47311 8.59809 2.02726 8.75977 2.66785" stroke="#6D6D6D" stroke-linecap="round" stroke-linejoin="round"/>
<path d="M12.41 3.03802C11.9497 2.54105 11.3239 2.22921 10.65 2.16108C9.97602 2.09295 9.30041 2.27322 8.75 2.66802" stroke="#6D6D6D" stroke-linecap="round" stroke-linejoin="round"/>
<path d="M5.08008 3.73752C5.47193 3.16023 6.05275 2.73756 6.72258 2.54227C7.39242 2.34698 8.10938 2.39128 8.75008 2.66753C9.39275 2.82471 9.94917 3.2255 10.3018 3.78527C10.6545 4.34505 10.7758 5.01998 10.6401 5.66752" stroke="#6D6D6D" stroke-linecap="round" stroke-linejoin="round"/>
</g>
<defs>
<clipPath id="clip0_626_33902">
<rect width="14" height="14" fill="white" transform="translate(0 0.197754)"/>
</clipPath>
</defs>
</svg>
