<svg id="Layer_1" data-name="Layer 1" xmlns="http://www.w3.org/2000/svg" viewBox="0 0 25 24"><defs><style>.cls-1{fill:none;stroke:#2b3f6c;stroke-linecap:round;stroke-linejoin:round;stroke-width:1.5px;}</style></defs><title>HOME</title><path class="cls-1" d="M2.1,10.78a4.54,4.54,0,0,1,.44-1.92A4.39,4.39,0,0,1,3.78,7.33L9.83,2.55a4.39,4.39,0,0,1,2.72-.95,4.44,4.44,0,0,1,2.73.95l6,4.78A4.39,4.39,0,0,1,23,10.78V18a4.41,4.41,0,0,1-.33,1.68,4.61,4.61,0,0,1-1,1.43,4.47,4.47,0,0,1-1.43.95,4.38,4.38,0,0,1-1.68.33H17a1,1,0,0,1-.42-.08,1.19,1.19,0,0,1-.36-.24,1,1,0,0,1-.23-.35,1.07,1.07,0,0,1-.09-.43V18a2.23,2.23,0,0,0-.64-1.56,2.33,2.33,0,0,0-.72-.48,2.17,2.17,0,0,0-.84-.16h-2.2a2.2,2.2,0,0,0-.84.16,2.17,2.17,0,0,0-.71.48,2.12,2.12,0,0,0-.48.71,2.26,2.26,0,0,0-.17.85v3.29a1.06,1.06,0,0,1-.32.78,1.1,1.1,0,0,1-.78.32H6.5a4.41,4.41,0,0,1-1.68-.33,4.58,4.58,0,0,1-1.43-.95A4.46,4.46,0,0,1,2.1,18Z"/></svg>