<svg width="16" height="16" viewBox="0 0 16 16" fill="none" xmlns="http://www.w3.org/2000/svg">
<path d="M5.86606 12.8734L5.47599 13.2389L5.47599 13.2389L5.86606 12.8734ZM5.8608 12.8678L5.47275 13.2354L5.47275 13.2354L5.8608 12.8678ZM5.38672 12.6606L5.38975 12.1261L5.38672 12.6606ZM10.6133 12.6606L10.6102 12.1261L10.6133 12.6606ZM10.1339 12.8734L9.74387 12.5079L9.74387 12.5079L10.1339 12.8734ZM10.1392 12.8678L10.5273 13.2354L10.1392 12.8678ZM9.9213 13.1004L10.3114 13.4658L10.3114 13.4658L9.9213 13.1004ZM6.0787 13.1004L6.46877 12.7349L6.46877 12.7349L6.0787 13.1004ZM8 14.5454L8 15.08H8L8 14.5454ZM2.00019 9.27348L1.46568 9.2791L2.00019 9.27348ZM5.29736 12.6604L5.29144 13.1949L5.29736 12.6604ZM13.9998 9.27348L14.5343 9.2791L13.9998 9.27348ZM10.7026 12.6604L10.7086 13.1949L10.7026 12.6604ZM12.2642 1.87337L12.0027 2.33958L12.2642 1.87337ZM13.5923 3.23762L13.1203 3.48852L13.5923 3.23762ZM3.73584 1.87337L3.99734 2.33958L3.73584 1.87337ZM2.40774 3.23762L2.87974 3.48852L2.40774 3.23762ZM3.51315 12.1055L3.21539 12.5494L3.51315 12.1055ZM12.4868 12.1055L12.7846 12.5494L12.4868 12.1055ZM10.1321 5.56343C10.1321 6.79468 9.16409 7.76814 8 7.76814V8.83724C9.78142 8.83724 11.2012 7.35788 11.2012 5.56343H10.1321ZM8 7.76814C6.83591 7.76814 5.86788 6.79468 5.86788 5.56343H4.79879C4.79879 7.35788 6.21858 8.83724 8 8.83724V7.76814ZM5.86788 5.56343C5.86788 4.33217 6.83591 3.35871 8 3.35871V2.28962C6.21858 2.28962 4.79879 3.76898 4.79879 5.56343H5.86788ZM8 3.35871C9.16409 3.35871 10.1321 4.33217 10.1321 5.56343H11.2012C11.2012 3.76898 9.78142 2.28962 8 2.28962V3.35871ZM7.45455 1.98907H8.54545V0.919983H7.45455V1.98907ZM13.4655 7.05757V9.18948H14.5345V7.05757H13.4655ZM2.53455 9.18948V7.05757H1.46545V9.18948H2.53455ZM9.74387 12.5079L9.53123 12.7349L10.3114 13.4658L10.524 13.2389L9.74387 12.5079ZM6.46877 12.7349L6.25613 12.5079L5.47599 13.2389L5.68863 13.4658L6.46877 12.7349ZM6.25613 12.5079C6.25395 12.5056 6.25139 12.5029 6.24884 12.5002L5.47275 13.2354C5.47263 13.2353 5.47269 13.2354 5.4732 13.2359C5.4738 13.2366 5.47457 13.2374 5.47599 13.2389L6.25613 12.5079ZM5.37914 13.1952C5.38357 13.1952 5.38371 13.1952 5.38368 13.1952L5.38975 12.1261C5.38604 12.1261 5.38235 12.1261 5.37914 12.1261V13.1952ZM6.24884 12.5002C6.0256 12.2645 5.71645 12.1279 5.38975 12.1261L5.38368 13.1952C5.41433 13.1953 5.44676 13.208 5.47275 13.2354L6.24884 12.5002ZM10.6209 12.1261C10.6176 12.1261 10.614 12.1261 10.6102 12.1261L10.6163 13.1952C10.6163 13.1952 10.6164 13.1952 10.6209 13.1952V12.1261ZM10.524 13.2389C10.5254 13.2374 10.5261 13.2366 10.5267 13.236C10.5272 13.2355 10.5273 13.2354 10.5273 13.2354L9.75116 12.5002C9.74865 12.5028 9.74623 12.5054 9.74387 12.5079L10.524 13.2389ZM10.6102 12.1261C10.2836 12.1279 9.9744 12.2645 9.75116 12.5002L10.5273 13.2354C10.5532 13.208 10.5857 13.1953 10.6163 13.1952L10.6102 12.1261ZM9.53123 12.7349C9.06926 13.2279 8.75949 13.5568 8.49789 13.7692C8.24776 13.9723 8.11009 14.0109 8 14.0109L8 15.08C8.45718 15.08 8.82881 14.8777 9.17184 14.5991C9.50341 14.3299 9.87065 13.9362 10.3114 13.4658L9.53123 12.7349ZM5.68863 13.4658C6.12935 13.9362 6.49659 14.3299 6.82816 14.5991C7.17119 14.8777 7.54282 15.08 8 15.08L8 14.0109C7.88991 14.0109 7.75224 13.9723 7.50211 13.7692C7.24051 13.5568 6.93074 13.2279 6.46877 12.7349L5.68863 13.4658ZM1.46545 9.18948C1.46545 9.23181 1.46545 9.25711 1.46568 9.2791L2.53471 9.26787C2.53455 9.25291 2.53455 9.23452 2.53455 9.18948H1.46545ZM5.37914 12.1261C5.33516 12.1261 5.31756 12.1261 5.30329 12.1259L5.29144 13.1949C5.31313 13.1952 5.33806 13.1952 5.37914 13.1952V12.1261ZM13.4655 9.18948C13.4655 9.23451 13.4654 9.2529 13.4653 9.26787L14.5343 9.2791C14.5346 9.25711 14.5345 9.23182 14.5345 9.18948H13.4655ZM10.6209 13.1952C10.6619 13.1952 10.6869 13.1952 10.7086 13.1949L10.6967 12.1259C10.6824 12.1261 10.6648 12.1261 10.6209 12.1261V13.1952ZM8.54545 1.98907C9.54574 1.98907 10.2609 1.98957 10.8204 2.03933C11.3726 2.08844 11.7223 2.18233 12.0027 2.33958L12.5257 1.40715C12.0593 1.14557 11.5403 1.03004 10.9151 0.97444C10.2973 0.919491 9.52649 0.919983 8.54545 0.919983V1.98907ZM14.5345 7.05757C14.5345 6.04906 14.535 5.25948 14.4817 4.62712C14.4279 3.9884 14.3163 3.46087 14.0643 2.98672L13.1203 3.48852C13.276 3.78142 13.3683 4.14623 13.4164 4.71691C13.465 5.29394 13.4655 6.03081 13.4655 7.05757H14.5345ZM12.0027 2.33958C12.4728 2.60328 12.8614 3.00146 13.1203 3.48852L14.0643 2.98672C13.7107 2.32155 13.1772 1.77263 12.5257 1.40715L12.0027 2.33958ZM7.45455 0.919983C6.47351 0.919983 5.7027 0.919491 5.08486 0.97444C4.45968 1.03004 3.94069 1.14557 3.47433 1.40715L3.99734 2.33958C4.27769 2.18233 4.62739 2.08844 5.17956 2.03933C5.73907 1.98957 6.45426 1.98907 7.45455 1.98907V0.919983ZM2.53455 7.05757C2.53455 6.0308 2.53499 5.29394 2.58362 4.7169C2.63172 4.14623 2.72405 3.78142 2.87974 3.48852L1.93573 2.98672C1.68369 3.46087 1.57215 3.9884 1.51831 4.62711C1.46501 5.25947 1.46545 6.04906 1.46545 7.05757H2.53455ZM3.47433 1.40715C2.82276 1.77263 2.28932 2.32155 1.93573 2.98672L2.87974 3.48852C3.13865 3.00146 3.52721 2.60328 3.99734 2.33958L3.47433 1.40715ZM6 10.8917H10V9.82259H6V10.8917ZM6 9.82259C4.63083 9.82259 3.47315 10.6992 3.01312 11.9165L4.01319 12.2945C4.32637 11.4657 5.10402 10.8917 6 10.8917V9.82259ZM1.46568 9.2791C1.48002 10.6446 2.17005 11.8483 3.21539 12.5494L3.81091 11.6616C3.05295 11.1532 2.54529 10.2747 2.53471 9.26787L1.46568 9.2791ZM3.21539 12.5494C3.81233 12.9498 4.52538 13.1864 5.29144 13.1949L5.30329 12.1259C4.75315 12.1198 4.24173 11.9505 3.81091 11.6616L3.21539 12.5494ZM10 10.8917C10.896 10.8917 11.6736 11.4657 11.9868 12.2945L12.9869 11.9165C12.5269 10.6992 11.3692 9.82259 10 9.82259V10.8917ZM13.4653 9.26787C13.4547 10.2747 12.947 11.1532 12.1891 11.6616L12.7846 12.5494C13.83 11.8483 14.52 10.6446 14.5343 9.2791L13.4653 9.26787ZM12.1891 11.6616C11.7583 11.9505 11.2469 12.1198 10.6967 12.1259L10.7086 13.1949C11.4746 13.1864 12.1877 12.9498 12.7846 12.5494L12.1891 11.6616Z" fill="#007EE5"/>
</svg>
