<svg width="14" height="15" viewBox="0 0 14 15" fill="none" xmlns="http://www.w3.org/2000/svg">
<g clip-path="url(#clip0_626_33969)">
<path d="M1.32812 12.483L10.8376 10.2749" stroke="#6D6D6D"/>
<path d="M0.71875 11.4278L7.38579 4.29639" stroke="#6D6D6D"/>
<path d="M1.32782 12.4828L10.8373 10.2747L7.38579 4.29639L0.71875 11.4278L1.32782 12.4828Z" fill="#E6E6E6" fill-opacity="0.56"/>
<path d="M1.32812 12.483L10.8376 10.2749" stroke="#6D6D6D" stroke-linecap="round" stroke-linejoin="round"/>
<path d="M0.71875 11.4278L7.38579 4.29639" stroke="#6D6D6D" stroke-linecap="round" stroke-linejoin="round"/>
<path d="M1.32782 12.4828L10.8373 10.2747L7.38579 4.29639L0.71875 11.4278L1.32782 12.4828Z" stroke="#6D6D6D" stroke-linecap="round" stroke-linejoin="round"/>
<path d="M7.18164 3.94385L11.0393 10.6254" stroke="#6D6D6D" stroke-linecap="round" stroke-linejoin="round"/>
<path d="M10.8373 10.2747L1.32782 12.4828L0.71875 11.4278L7.38579 4.29639" stroke="#6D6D6D" stroke-linecap="round" stroke-linejoin="round"/>
<path d="M3.39648 12.0023L3.92011 12.9092C4.11007 13.2348 4.42158 13.4716 4.78612 13.5675C5.15065 13.6633 5.53835 13.6105 5.86392 13.4205C6.1895 13.2306 6.42628 12.9191 6.52217 12.5545C6.61806 12.19 6.56522 11.8023 6.37526 11.4767L6.2914 11.3315" stroke="#6D6D6D" stroke-linecap="round" stroke-linejoin="round"/>
<path d="M7.44336 2.03425V0.780762" stroke="#6D6D6D" stroke-linecap="round" stroke-linejoin="round"/>
<path d="M12.2461 6.83643H13.4996" stroke="#6D6D6D" stroke-linecap="round" stroke-linejoin="round"/>
<path d="M1.38867 6.83643H2.64215" stroke="#6D6D6D" stroke-linecap="round" stroke-linejoin="round"/>
<path d="M3.16016 2.5542L4.04651 3.44055" stroke="#6D6D6D" stroke-linecap="round" stroke-linejoin="round"/>
<path d="M10.8398 3.44055L11.7262 2.5542" stroke="#6D6D6D" stroke-linecap="round" stroke-linejoin="round"/>
</g>
<defs>
<clipPath id="clip0_626_33969">
<rect width="14" height="14" fill="white" transform="translate(0 0.197754)"/>
</clipPath>
</defs>
</svg>
