<svg width="14" height="14" viewBox="0 0 14 14" fill="none" xmlns="http://www.w3.org/2000/svg">
<g clip-path="url(#clip0_2226_19513)">
<path d="M1.32782 12.285L10.8373 10.0769L7.38579 4.09863L0.71875 11.23L1.32782 12.285Z" fill="#9FF5FF" fill-opacity="0.56"/>
<path d="M1.32812 12.2852L10.8376 10.0771" stroke="#003F88" stroke-linecap="round" stroke-linejoin="round"/>
<path d="M0.71875 11.23L7.38579 4.09863" stroke="#003F88" stroke-linecap="round" stroke-linejoin="round"/>
<path d="M1.32782 12.285L10.8373 10.0769L7.38579 4.09863L0.71875 11.23L1.32782 12.285Z" stroke="#003F88" stroke-linecap="round" stroke-linejoin="round"/>
<path d="M7.18164 3.74609L11.0393 10.4277" stroke="#003F88" stroke-linecap="round" stroke-linejoin="round"/>
<path d="M10.8373 10.0769L1.32782 12.285L0.71875 11.23L7.38579 4.09863" stroke="#003F88" stroke-linecap="round" stroke-linejoin="round"/>
<path d="M3.39648 11.8046L3.92011 12.7115C4.11007 13.0371 4.42158 13.2739 4.78612 13.3698C5.15065 13.4656 5.53835 13.4128 5.86392 13.2228C6.1895 13.0329 6.42628 12.7214 6.52217 12.3568C6.61806 11.9923 6.56522 11.6046 6.37526 11.279L6.2914 11.1338" stroke="#003F88" stroke-linecap="round" stroke-linejoin="round"/>
<path d="M7.44336 1.83649V0.583008" stroke="#003F88" stroke-linecap="round" stroke-linejoin="round"/>
<path d="M12.2461 6.63867H13.4996" stroke="#003F88" stroke-linecap="round" stroke-linejoin="round"/>
<path d="M1.38867 6.63867H2.64215" stroke="#003F88" stroke-linecap="round" stroke-linejoin="round"/>
<path d="M3.16016 2.35645L4.04651 3.2428" stroke="#003F88" stroke-linecap="round" stroke-linejoin="round"/>
<path d="M10.8398 3.2428L11.7262 2.35645" stroke="#003F88" stroke-linecap="round" stroke-linejoin="round"/>
</g>
<defs>
<clipPath id="clip0_2226_19513">
<rect width="14" height="14" fill="white"/>
</clipPath>
</defs>
</svg>
