<svg width="17" height="17" viewBox="0 0 17 17" fill="none" xmlns="http://www.w3.org/2000/svg">
<path d="M5.91797 1.96094V3.92248" stroke="#8B8B8B" stroke-width="0.980769" stroke-miterlimit="10" stroke-linecap="round" stroke-linejoin="round"/>
<path d="M11.1484 1.96094V3.92248" stroke="#8B8B8B" stroke-width="0.980769" stroke-miterlimit="10" stroke-linecap="round" stroke-linejoin="round"/>
<path d="M2.97656 6.5957H14.0919" stroke="#8B8B8B" stroke-width="0.980769" stroke-miterlimit="10" stroke-linecap="round" stroke-linejoin="round"/>
<path d="M15.0745 13.0763C15.0745 13.5667 14.9372 14.0309 14.6953 14.4232C14.2441 15.1817 13.4137 15.6917 12.4591 15.6917C11.7987 15.6917 11.1972 15.4498 10.7395 15.0379C10.5368 14.8679 10.3603 14.6586 10.223 14.4232C9.98106 14.0309 9.84375 13.5667 9.84375 13.0763C9.84375 11.6313 11.0141 10.4609 12.4591 10.4609C13.2437 10.4609 13.9434 10.8075 14.4207 11.3502C14.8261 11.8144 15.0745 12.4159 15.0745 13.0763Z" stroke="#8B8B8B" stroke-width="0.980769" stroke-miterlimit="10" stroke-linecap="round" stroke-linejoin="round"/>
<path d="M11.4414 13.0763L12.0887 13.7236L13.4814 12.4355" stroke="#8B8B8B" stroke-width="0.980769" stroke-linecap="round" stroke-linejoin="round"/>
<path d="M14.4177 6.21064V11.3499C13.9404 10.8072 13.2407 10.4606 12.4561 10.4606C11.0111 10.4606 9.84075 11.631 9.84075 13.076C9.84075 13.5664 9.97805 14.0306 10.22 14.4229C10.3573 14.6583 10.5338 14.8676 10.7365 15.0376H5.91767C3.62921 15.0376 2.64844 13.7299 2.64844 11.7683V6.21064C2.64844 4.2491 3.62921 2.94141 5.91767 2.94141H11.1484C13.4369 2.94141 14.4177 4.2491 14.4177 6.21064Z" stroke="#8B8B8B" stroke-width="0.980769" stroke-miterlimit="10" stroke-linecap="round" stroke-linejoin="round"/>
<path d="M9.18271 9.61013H9.18858" stroke="#8B8B8B" stroke-width="1.17692" stroke-linecap="round" stroke-linejoin="round"/>
<path d="M6.11239 9.61013H6.11827" stroke="#8B8B8B" stroke-width="1.17692" stroke-linecap="round" stroke-linejoin="round"/>
<path d="M6.11239 12.2254H6.11827" stroke="#8B8B8B" stroke-width="1.17692" stroke-linecap="round" stroke-linejoin="round"/>
</svg>
