<svg width="16" height="17" viewBox="0 0 16 17" fill="none" xmlns="http://www.w3.org/2000/svg">
<path fill-rule="evenodd" clip-rule="evenodd" d="M6.3759 2.28936C5.2023 2.28936 4.2509 3.24076 4.2509 4.41436C4.2509 5.58797 5.2023 6.53936 6.3759 6.53936C7.54951 6.53936 8.5009 5.58797 8.5009 4.41436C8.5009 3.24076 7.54951 2.28936 6.3759 2.28936ZM3.27013 4.41436C3.27013 2.69909 4.66063 1.30859 6.3759 1.30859C8.09117 1.30859 9.48167 2.69909 9.48167 4.41436C9.48167 6.12963 8.09117 7.52013 6.3759 7.52013C4.66063 7.52013 3.27013 6.12963 3.27013 4.41436ZM1.30859 11.6067C1.30859 9.8914 2.69909 8.5009 4.41436 8.5009H8.33744C9.10471 8.5009 9.84413 8.78484 10.3826 9.09895C10.6542 9.25737 10.8917 9.43327 11.0685 9.60373C11.124 9.65732 11.1776 9.71423 11.2259 9.77362C12.8384 9.91214 14.1052 11.2661 14.1052 12.9144C14.1052 14.6546 12.6931 16.0668 10.9528 16.0668C9.88044 16.0668 8.93267 15.5306 8.36313 14.7118C8.35462 14.7122 8.34606 14.7124 8.33744 14.7124H4.41436C2.69909 14.7124 1.30859 13.3219 1.30859 11.6067ZM9.88843 9.94612L9.88868 9.94627C8.67158 10.383 7.80041 11.5475 7.80041 12.9144C7.80041 13.197 7.83766 13.471 7.90751 13.7317H4.41436C3.24076 13.7317 2.28936 12.7803 2.28936 11.6067C2.28936 10.4331 3.24076 9.48167 4.41436 9.48167H8.33744C8.87787 9.48167 9.44613 9.68812 9.88843 9.94612ZM10.9528 10.836C9.80573 10.836 8.87447 11.7673 8.87447 12.9144C8.87447 14.0615 9.80573 14.9927 10.9528 14.9927C12.0999 14.9927 13.0312 14.0615 13.0312 12.9144C13.0312 11.7673 12.0999 10.836 10.9528 10.836ZM11.2779 12.0383C11.2779 11.7417 11.0374 11.5013 10.7408 11.5013C10.4442 11.5013 10.2038 11.7417 10.2038 12.0383V12.9737C10.2038 13.1612 10.2657 13.3323 10.3399 13.4625C10.414 13.5924 10.5293 13.7323 10.6897 13.8276L10.6906 13.8281L11.3965 14.2494C11.6512 14.4014 11.9808 14.3181 12.1328 14.0634C12.2848 13.8087 12.2016 13.4791 11.9469 13.3271L11.2779 12.9278V12.0383Z" fill="#007EE5"/>
</svg>
