<svg width="16" height="17" viewBox="0 0 16 17" fill="none" xmlns="http://www.w3.org/2000/svg">
<path d="M5.22656 1.96094V3.92248" stroke="#007EE5" stroke-width="0.980769" stroke-miterlimit="10" stroke-linecap="round" stroke-linejoin="round"/>
<path d="M10.457 1.96094V3.92248" stroke="#007EE5" stroke-width="0.980769" stroke-miterlimit="10" stroke-linecap="round" stroke-linejoin="round"/>
<path d="M2.28516 6.5957H13.4005" stroke="#007EE5" stroke-width="0.980769" stroke-miterlimit="10" stroke-linecap="round" stroke-linejoin="round"/>
<path d="M14.3831 13.0763C14.3831 13.5667 14.2458 14.0309 14.0039 14.4232C13.5527 15.1817 12.7223 15.6917 11.7677 15.6917C11.1073 15.6917 10.5058 15.4498 10.0481 15.0379C9.84542 14.8679 9.66888 14.6586 9.53158 14.4232C9.28965 14.0309 9.15234 13.5667 9.15234 13.0763C9.15234 11.6313 10.3227 10.4609 11.7677 10.4609C12.5523 10.4609 13.252 10.8075 13.7293 11.3502C14.1347 11.8144 14.3831 12.4159 14.3831 13.0763Z" stroke="#007EE5" stroke-width="0.980769" stroke-miterlimit="10" stroke-linecap="round" stroke-linejoin="round"/>
<path d="M10.75 13.0763L11.3973 13.7236L12.79 12.4355" stroke="#007EE5" stroke-width="0.980769" stroke-linecap="round" stroke-linejoin="round"/>
<path d="M13.7263 6.21064V11.3499C13.249 10.8072 12.5493 10.4606 11.7647 10.4606C10.3197 10.4606 9.14934 11.631 9.14934 13.076C9.14934 13.5664 9.28665 14.0306 9.52857 14.4229C9.66588 14.6583 9.84242 14.8676 10.0451 15.0376H5.22626C2.9378 15.0376 1.95703 13.7299 1.95703 11.7683V6.21064C1.95703 4.2491 2.9378 2.94141 5.22626 2.94141H10.457C12.7455 2.94141 13.7263 4.2491 13.7263 6.21064Z" stroke="#007EE5" stroke-width="0.980769" stroke-miterlimit="10" stroke-linecap="round" stroke-linejoin="round"/>
<path d="M8.4913 9.61013H8.49717" stroke="#007EE5" stroke-width="1.17692" stroke-linecap="round" stroke-linejoin="round"/>
<path d="M5.42099 9.61013H5.42686" stroke="#007EE5" stroke-width="1.17692" stroke-linecap="round" stroke-linejoin="round"/>
<path d="M5.42099 12.2254H5.42686" stroke="#007EE5" stroke-width="1.17692" stroke-linecap="round" stroke-linejoin="round"/>
</svg>
