<svg width="22" height="25" viewBox="0 0 22 25" fill="none" xmlns="http://www.w3.org/2000/svg">
<g filter="url(#filter0_d_15_2)">
<path d="M7.91797 1.96094V3.92248" stroke="white" stroke-width="0.980769" stroke-miterlimit="10" stroke-linecap="round" stroke-linejoin="round"/>
<path d="M13.1484 1.96094V3.92248" stroke="white" stroke-width="0.980769" stroke-miterlimit="10" stroke-linecap="round" stroke-linejoin="round"/>
<path d="M4.97656 6.5957H16.0919" stroke="white" stroke-width="0.980769" stroke-miterlimit="10" stroke-linecap="round" stroke-linejoin="round"/>
<path d="M17.0745 13.0763C17.0745 13.5667 16.9372 14.0309 16.6953 14.4232C16.2441 15.1817 15.4137 15.6917 14.4591 15.6917C13.7987 15.6917 13.1972 15.4498 12.7395 15.0379C12.5368 14.8679 12.3603 14.6586 12.223 14.4232C11.9811 14.0309 11.8438 13.5667 11.8438 13.0763C11.8438 11.6313 13.0141 10.4609 14.4591 10.4609C15.2437 10.4609 15.9434 10.8075 16.4207 11.3502C16.8261 11.8144 17.0745 12.4159 17.0745 13.0763Z" stroke="white" stroke-width="0.980769" stroke-miterlimit="10" stroke-linecap="round" stroke-linejoin="round"/>
<path d="M13.4414 13.0763L14.0887 13.7236L15.4814 12.4355" stroke="white" stroke-width="0.980769" stroke-linecap="round" stroke-linejoin="round"/>
<path d="M16.4177 6.21064V11.3499C15.9404 10.8072 15.2407 10.4606 14.4561 10.4606C13.0111 10.4606 11.8407 11.631 11.8407 13.076C11.8407 13.5664 11.978 14.0306 12.22 14.4229C12.3573 14.6583 12.5338 14.8676 12.7365 15.0376H7.91767C5.62921 15.0376 4.64844 13.7299 4.64844 11.7683V6.21064C4.64844 4.2491 5.62921 2.94141 7.91767 2.94141H13.1484C15.4369 2.94141 16.4177 4.2491 16.4177 6.21064Z" stroke="white" stroke-width="0.980769" stroke-miterlimit="10" stroke-linecap="round" stroke-linejoin="round"/>
<path d="M11.1827 9.61013H11.1886" stroke="white" stroke-width="1.17692" stroke-linecap="round" stroke-linejoin="round"/>
<path d="M8.11239 9.61013H8.11827" stroke="white" stroke-width="1.17692" stroke-linecap="round" stroke-linejoin="round"/>
<path d="M8.11239 12.2254H8.11827" stroke="white" stroke-width="1.17692" stroke-linecap="round" stroke-linejoin="round"/>
</g>
<defs>
<filter id="filter0_d_15_2" x="-2" y="0" width="25" height="25" filterUnits="userSpaceOnUse" color-interpolation-filters="sRGB">
<feFlood flood-opacity="0" result="BackgroundImageFix"/>
<feColorMatrix in="SourceAlpha" type="matrix" values="0 0 0 0 0 0 0 0 0 0 0 0 0 0 0 0 0 0 127 0" result="hardAlpha"/>
<feOffset dy="4"/>
<feGaussianBlur stdDeviation="2"/>
<feComposite in2="hardAlpha" operator="out"/>
<feColorMatrix type="matrix" values="0 0 0 0 0 0 0 0 0 0 0 0 0 0 0 0 0 0 0.25 0"/>
<feBlend mode="normal" in2="BackgroundImageFix" result="effect1_dropShadow_15_2"/>
<feBlend mode="normal" in="SourceGraphic" in2="effect1_dropShadow_15_2" result="shape"/>
</filter>
</defs>
</svg>
