<svg width="14" height="15" viewBox="0 0 14 15" fill="none" xmlns="http://www.w3.org/2000/svg">
<g clip-path="url(#clip0_1837_4766)">
<path d="M1.99817 4C1.73295 4 1.4786 4.10536 1.29106 4.29289C1.10353 4.48043 0.998169 4.73478 0.998169 5V12.5C0.998169 12.7652 1.10353 13.0196 1.29106 13.2071C1.4786 13.3946 1.73295 13.5 1.99817 13.5H10.9982H12.9982V12.5V9H11.9982V5C11.9982 4.73478 11.8928 4.48043 11.7053 4.29289C11.5178 4.10536 11.2634 4 10.9982 4H1.99817Z" fill="#E6E6E6" fill-opacity="0.56"/>
<path d="M1.84281 3.92578C1.61928 3.92578 1.40491 4.01458 1.24685 4.17263C1.0888 4.33069 1 4.54506 1 4.76859V12.7753C1 12.9988 1.0888 13.2132 1.24685 13.3712C1.40491 13.5293 1.61928 13.6181 1.84281 13.6181L4.13043 13.6182M9.42809 3.92578H11.1137C11.3372 3.92578 11.5516 4.01458 11.7097 4.17263C11.8677 4.33069 11.9565 4.54506 11.9565 4.76859V7.35734" stroke="#6D6D6D" stroke-linecap="round" stroke-linejoin="round"/>
<path d="M3.52917 2.66168V5.19011" stroke="#6D6D6D" stroke-linecap="round" stroke-linejoin="round"/>
<path d="M9.42737 2.66168V5.19011" stroke="#6D6D6D" stroke-linecap="round" stroke-linejoin="round"/>
<path d="M3.52917 3.92578H7.74322" stroke="#6D6D6D" stroke-linecap="round" stroke-linejoin="round"/>
<path d="M5.69568 9.44429V13.3165C5.69568 13.5109 5.85328 13.6685 6.0477 13.6685H12.648C12.8424 13.6685 13 13.5109 13 13.3165V9.44429C13 9.2499 12.8424 9.09227 12.648 9.09227H6.0477C5.85328 9.09227 5.69568 9.2499 5.69568 9.44429Z" stroke="#6D6D6D" stroke-linecap="round" stroke-linejoin="round"/>
<path d="M10.2275 11.3676C10.2275 10.8815 9.83349 10.4875 9.34745 10.4875C8.86141 10.4875 8.46741 10.8815 8.46741 11.3676C8.46741 11.8536 8.86141 12.2476 9.34745 12.2476C9.83349 12.2476 10.2275 11.8536 10.2275 11.3676Z" stroke="#6D6D6D" stroke-width="0.8" stroke-linecap="round" stroke-linejoin="round"/>
</g>
<defs>
<clipPath id="clip0_1837_4766">
<rect width="14" height="14" fill="white" transform="translate(0 0.890808)"/>
</clipPath>
</defs>
</svg>
