<svg width="14" height="14" viewBox="0 0 14 14" fill="none" xmlns="http://www.w3.org/2000/svg">
<path d="M8.50501 10.3798C11.2062 10.3798 13.396 8.19 13.396 5.48878C13.396 2.78755 11.2062 0.597778 8.50501 0.597778C5.80379 0.597778 3.61401 2.78755 3.61401 5.48878C3.61401 8.19 5.80379 10.3798 8.50501 10.3798Z" fill="#F0F0F0"/>
<path d="M8.50501 10.3798C11.2062 10.3798 13.396 8.19 13.396 5.48878C13.396 2.78755 11.2062 0.597778 8.50501 0.597778C5.80379 0.597778 3.61401 2.78755 3.61401 5.48878C3.61401 8.19 5.80379 10.3798 8.50501 10.3798Z" stroke="#6D6D6D" stroke-linecap="round" stroke-linejoin="round"/>
<path d="M9.80599 4.12997C9.76124 4.00337 9.69219 3.88824 9.60444 3.79021C9.4178 3.58168 9.14657 3.45044 8.84469 3.45044H8.05573C7.55323 3.45044 7.14587 3.8578 7.14587 4.3603C7.14587 4.78787 7.4436 5.15776 7.86129 5.24913L9.06251 5.5119C9.53045 5.61426 9.86399 6.02894 9.86399 6.50795C9.86399 7.07089 9.40763 7.52761 8.84469 7.52761H8.16517C7.72136 7.52761 7.3438 7.24397 7.20387 6.84808" stroke="#6D6D6D" stroke-linecap="round" stroke-linejoin="round"/>
<path d="M8.50488 3.45033V2.43103" stroke="#6D6D6D" stroke-linecap="round" stroke-linejoin="round"/>
<path d="M8.50488 8.54682V7.52753" stroke="#6D6D6D" stroke-linecap="round" stroke-linejoin="round"/>
<path d="M1.20295 6.02466C0.827488 6.71694 0.614258 7.51002 0.614258 8.35291C0.614258 11.0539 2.80387 13.2435 5.50488 13.2435C6.27035 13.2435 6.99475 13.0676 7.63987 12.7541" stroke="#6D6D6D" stroke-linecap="round" stroke-linejoin="round"/>
</svg>
