<svg width="17" height="17" viewBox="0 0 17 17" fill="none" xmlns="http://www.w3.org/2000/svg">
<path d="M7.22566 4.57828H9.84105C11.1487 4.57828 11.1487 3.92443 11.1487 3.27058C11.1487 1.96289 10.4949 1.96289 9.84105 1.96289H7.22566C6.57181 1.96289 5.91797 1.96289 5.91797 3.27058C5.91797 4.57828 6.57181 4.57828 7.22566 4.57828Z" stroke="#8B8B8B" stroke-width="0.980769" stroke-miterlimit="10" stroke-linecap="round" stroke-linejoin="round"/>
<path d="M11.1484 3.2832C13.3257 3.4009 14.4177 4.20513 14.4177 7.1932V11.1163C14.4177 13.7317 13.7638 15.0394 10.4946 15.0394H6.57151C3.30228 15.0394 2.64844 13.7317 2.64844 11.1163V7.1932C2.64844 4.21166 3.74036 3.4009 5.91767 3.2832" stroke="#8B8B8B" stroke-width="0.980769" stroke-miterlimit="10" stroke-linecap="round" stroke-linejoin="round"/>
<path d="M9.11719 7.85156H12.1103" stroke="#8B8B8B" stroke-width="0.980769" stroke-miterlimit="10" stroke-linecap="round" stroke-linejoin="round"/>
<path d="M4.96875 7.85003L5.4368 8.31808L6.44381 7.38672" stroke="#8B8B8B" stroke-width="0.784615" stroke-linecap="round" stroke-linejoin="round"/>
<path d="M9.11719 10.4688H11.981" stroke="#8B8B8B" stroke-width="0.980769" stroke-miterlimit="10" stroke-linecap="round" stroke-linejoin="round"/>
<path d="M4.96875 10.4653L5.4368 10.9333L6.44381 10.002" stroke="#8B8B8B" stroke-width="0.784615" stroke-linecap="round" stroke-linejoin="round"/>
</svg>
