<svg width="16" height="17" viewBox="0 0 16 17" fill="none" xmlns="http://www.w3.org/2000/svg">
<path d="M6.53425 4.57828H9.14964C10.4573 4.57828 10.4573 3.92443 10.4573 3.27058C10.4573 1.96289 9.80349 1.96289 9.14964 1.96289H6.53425C5.88041 1.96289 5.22656 1.96289 5.22656 3.27058C5.22656 4.57828 5.88041 4.57828 6.53425 4.57828Z" stroke="#007EE5" stroke-width="0.980769" stroke-miterlimit="10" stroke-linecap="round" stroke-linejoin="round"/>
<path d="M10.457 3.2832C12.6343 3.4009 13.7263 4.20513 13.7263 7.1932V11.1163C13.7263 13.7317 13.0724 15.0394 9.80318 15.0394H5.88011C2.61088 15.0394 1.95703 13.7317 1.95703 11.1163V7.1932C1.95703 4.21166 3.04895 3.4009 5.22626 3.2832" stroke="#007EE5" stroke-width="0.980769" stroke-miterlimit="10" stroke-linecap="round" stroke-linejoin="round"/>
<path d="M8.42578 7.85156H11.4189" stroke="#007EE5" stroke-width="0.980769" stroke-miterlimit="10" stroke-linecap="round" stroke-linejoin="round"/>
<path d="M4.27734 7.85003L4.74539 8.31808L5.75241 7.38672" stroke="#007EE5" stroke-width="0.784615" stroke-linecap="round" stroke-linejoin="round"/>
<path d="M8.42578 10.4688H11.2896" stroke="#007EE5" stroke-width="0.980769" stroke-miterlimit="10" stroke-linecap="round" stroke-linejoin="round"/>
<path d="M4.27734 10.4653L4.74539 10.9333L5.75241 10.002" stroke="#007EE5" stroke-width="0.784615" stroke-linecap="round" stroke-linejoin="round"/>
</svg>
