<svg width="14" height="15" viewBox="0 0 14 15" fill="none" xmlns="http://www.w3.org/2000/svg">
<g clip-path="url(#clip0_626_34024)">
<path d="M6.99986 8.19775C5.9747 8.19775 5.09366 9.3148 4.70789 10.1978H9.29184C8.90606 9.3148 8.02502 8.19775 6.99986 8.19775Z" fill="#E6E6E6" fill-opacity="0.56"/>
<path d="M2.03955 13.6461V11.166H4.5197" stroke="#6D6D6D" stroke-linecap="round" stroke-linejoin="round"/>
<path d="M13.3389 6.0127C13.956 9.29438 11.9478 12.5478 8.66898 13.4264C6.15951 14.0988 3.59901 13.1943 2.03955 11.3203" stroke="#6D6D6D" stroke-linecap="round" stroke-linejoin="round"/>
<path d="M0.661145 8.38252C0.0440416 5.10084 2.05229 1.84744 5.33108 0.968882C7.84038 0.296517 10.4007 1.20086 11.9602 3.07458" stroke="#6D6D6D" stroke-linecap="round" stroke-linejoin="round"/>
<path d="M11.9602 0.749023V3.22918H9.48004" stroke="#6D6D6D" stroke-linecap="round" stroke-linejoin="round"/>
<path d="M7 6.69775C7.69036 6.69775 8.25 6.13811 8.25 5.44775C8.25 4.7574 7.69036 4.19775 7 4.19775C6.30964 4.19775 5.75 4.7574 5.75 5.44775C5.75 6.13811 6.30964 6.69775 7 6.69775Z" fill="#E6E6E6" fill-opacity="0.56"/>
<path d="M7 6.69775C7.69036 6.69775 8.25 6.13811 8.25 5.44775C8.25 4.7574 7.69036 4.19775 7 4.19775C6.30964 4.19775 5.75 4.7574 5.75 5.44775C5.75 6.13811 6.30964 6.69775 7 6.69775Z" stroke="#6D6D6D"/>
<path d="M4.70789 9.69775C5.09366 8.8148 5.9747 8.19775 6.99986 8.19775C8.02502 8.19775 8.90606 8.8148 9.29184 9.69775" stroke="#6D6D6D" stroke-linecap="round"/>
</g>
<defs>
<clipPath id="clip0_626_34024">
<rect width="14" height="14" fill="white" transform="translate(0 0.197754)"/>
</clipPath>
</defs>
</svg>
