<svg width="14" height="14" viewBox="0 0 14 14" fill="none" xmlns="http://www.w3.org/2000/svg">
<g clip-path="url(#clip0_2226_19582)">
<path d="M7.00095 8C5.97579 8 5.09475 9.11705 4.70898 10H9.29293C8.90715 9.11705 8.02611 8 7.00095 8Z" fill="#C9F9FF"/>
<path d="M2.04102 13.4484V10.9683H4.52117" stroke="#003F88" stroke-linecap="round" stroke-linejoin="round"/>
<path d="M13.3403 5.81519C13.9574 9.09687 11.9492 12.3503 8.67045 13.2289C6.16098 13.9013 3.60048 12.9968 2.04102 11.1228" stroke="#003F88" stroke-linecap="round" stroke-linejoin="round"/>
<path d="M0.661877 8.18502C0.0447741 4.90334 2.05302 1.64993 5.33181 0.771372C7.84111 0.0990075 10.4014 1.00335 11.9609 2.87708" stroke="#003F88" stroke-linecap="round" stroke-linejoin="round"/>
<path d="M11.9606 0.551758V3.03191H9.48047" stroke="#003F88" stroke-linecap="round" stroke-linejoin="round"/>
<path d="M7 6.5C7.69036 6.5 8.25 5.94036 8.25 5.25C8.25 4.55964 7.69036 4 7 4C6.30964 4 5.75 4.55964 5.75 5.25C5.75 5.94036 6.30964 6.5 7 6.5Z" fill="#C9F9FF"/>
<path d="M7 6.5C7.69036 6.5 8.25 5.94036 8.25 5.25C8.25 4.55964 7.69036 4 7 4C6.30964 4 5.75 4.55964 5.75 5.25C5.75 5.94036 6.30964 6.5 7 6.5Z" stroke="#003F88"/>
<path d="M4.70898 9.5C5.09475 8.61705 5.97579 8 7.00095 8C8.02611 8 8.90715 8.61705 9.29293 9.5" stroke="#003F88" stroke-linecap="round"/>
</g>
<defs>
<clipPath id="clip0_2226_19582">
<rect width="14" height="14" fill="white"/>
</clipPath>
</defs>
</svg>
