<svg width="14" height="14" viewBox="0 0 14 14" fill="none" xmlns="http://www.w3.org/2000/svg">
<g clip-path="url(#clip0_2226_19567)">
<path d="M0.5 13.5L4.5 12.5H12.5C12.7652 12.5 13.0196 12.3946 13.2071 12.2071C13.3946 12.0196 13.5 11.7652 13.5 11.5V1.5C13.5 0.947715 13.0523 0.5 12.5 0.5H2.5C2.23478 0.5 1.98043 0.605357 1.79289 0.792893C1.60536 0.98043 1.5 1.23478 1.5 1.5V10.5L0.5 13.5Z" fill="#9FF5FF" fill-opacity="0.56"/>
<path d="M8.36328 8.13666L5.36328 8.67666L5.86328 5.63666L10.5933 0.926658C10.6862 0.832929 10.7968 0.758535 10.9187 0.707766C11.0406 0.656998 11.1713 0.630859 11.3033 0.630859C11.4353 0.630859 11.566 0.656998 11.6879 0.707766C11.8097 0.758535 11.9203 0.832929 12.0133 0.926658L13.0733 1.98666C13.167 2.07962 13.2414 2.19022 13.2922 2.31208C13.3429 2.43394 13.3691 2.56465 13.3691 2.69666C13.3691 2.82867 13.3429 2.95938 13.2922 3.08124C13.2414 3.2031 13.167 3.3137 13.0733 3.40666L8.36328 8.13666Z" fill="white"/>
<path d="M7.5 0.5H2.5C2.23478 0.5 1.98043 0.605357 1.79289 0.792893C1.60536 0.98043 1.5 1.23478 1.5 1.5V10.5L0.5 13.5L4.5 12.5H12.5C12.7652 12.5 13.0196 12.3946 13.2071 12.2071C13.3946 12.0196 13.5 11.7652 13.5 11.5V6.5" stroke="#003F88" stroke-linecap="round" stroke-linejoin="round"/>
<path d="M8.36328 8.13666L5.36328 8.67666L5.86328 5.63666L10.5933 0.926658C10.6862 0.832929 10.7968 0.758535 10.9187 0.707766C11.0405 0.656998 11.1712 0.630859 11.3033 0.630859C11.4353 0.630859 11.566 0.656998 11.6878 0.707766C11.8097 0.758535 11.9203 0.832929 12.0133 0.926658L13.0733 1.98666C13.167 2.07962 13.2414 2.19022 13.2922 2.31208C13.3429 2.43394 13.3691 2.56465 13.3691 2.69666C13.3691 2.82867 13.3429 2.95938 13.2922 3.08124C13.2414 3.2031 13.167 3.3137 13.0733 3.40666L8.36328 8.13666Z" stroke="#003F88" stroke-linecap="round" stroke-linejoin="round"/>
</g>
<defs>
<clipPath id="clip0_2226_19567">
<rect width="14" height="14" fill="white"/>
</clipPath>
</defs>
</svg>
