<svg width="14" height="15" viewBox="0 0 14 15" fill="none" xmlns="http://www.w3.org/2000/svg">
<g clip-path="url(#clip0_626_33960)">
<path d="M0.5 13.6978L4.5 12.6978H12.5C12.7652 12.6978 13.0196 12.5924 13.2071 12.4049C13.3946 12.2174 13.5 11.963 13.5 11.6978V1.69775C13.5 1.14547 13.0523 0.697754 12.5 0.697754H2.5C2.23478 0.697754 1.98043 0.803111 1.79289 0.990647C1.60536 1.17818 1.5 1.43253 1.5 1.69775V10.6978L0.5 13.6978Z" fill="#E6E6E6" fill-opacity="0.56"/>
<path d="M8.36328 8.33441L5.36328 8.87441L5.86328 5.83441L10.5933 1.12441C10.6862 1.03068 10.7968 0.956289 10.9187 0.90552C11.0406 0.854752 11.1713 0.828613 11.3033 0.828613C11.4353 0.828613 11.566 0.854752 11.6879 0.90552C11.8097 0.956289 11.9203 1.03068 12.0133 1.12441L13.0733 2.18441C13.167 2.27737 13.2414 2.38797 13.2922 2.50983C13.3429 2.63169 13.3691 2.7624 13.3691 2.89441C13.3691 3.02642 13.3429 3.15713 13.2922 3.27899C13.2414 3.40085 13.167 3.51145 13.0733 3.60441L8.36328 8.33441Z" fill="white"/>
<path d="M7.5 0.697754H2.5C2.23478 0.697754 1.98043 0.803111 1.79289 0.990647C1.60536 1.17818 1.5 1.43253 1.5 1.69775V10.6978L0.5 13.6978L4.5 12.6978H12.5C12.7652 12.6978 13.0196 12.5924 13.2071 12.4049C13.3946 12.2174 13.5 11.963 13.5 11.6978V6.69775" stroke="#6D6D6D" stroke-linecap="round" stroke-linejoin="round"/>
<path d="M8.36316 8.33441L5.36316 8.87441L5.86316 5.83441L10.5932 1.12441C10.6861 1.03068 10.7967 0.956289 10.9186 0.90552C11.0404 0.854752 11.1711 0.828613 11.3032 0.828613C11.4352 0.828613 11.5659 0.854752 11.6877 0.90552C11.8096 0.956289 11.9202 1.03068 12.0132 1.12441L13.0732 2.18441C13.1669 2.27737 13.2413 2.38797 13.2921 2.50983C13.3428 2.63169 13.369 2.7624 13.369 2.89441C13.369 3.02642 13.3428 3.15713 13.2921 3.27899C13.2413 3.40085 13.1669 3.51145 13.0732 3.60441L8.36316 8.33441Z" stroke="#6D6D6D" stroke-linecap="round" stroke-linejoin="round"/>
</g>
<defs>
<clipPath id="clip0_626_33960">
<rect width="14" height="14" fill="white" transform="translate(0 0.197754)"/>
</clipPath>
</defs>
</svg>
