<svg width="17" height="17" viewBox="0 0 17 17" fill="none" xmlns="http://www.w3.org/2000/svg">
<path d="M15.2066 4.96908V6.39316C15.2066 7.32293 14.6181 7.91139 13.6883 7.91139H11.6758V3.79804C11.6758 3.14485 12.2113 2.61523 12.8645 2.61523C13.5059 2.62112 14.0944 2.88004 14.5181 3.30373C14.9417 3.73331 15.2066 4.32177 15.2066 4.96908Z" stroke="#8B8B8B" stroke-width="0.980769" stroke-miterlimit="10" stroke-linecap="round" stroke-linejoin="round"/>
<path d="M3.4375 5.55754V13.796C3.4375 14.2844 3.99065 14.561 4.37904 14.2668L5.38531 13.5135C5.62069 13.337 5.95023 13.3605 6.16208 13.5724L7.13892 14.5551C7.36842 14.7846 7.74504 14.7846 7.97454 14.5551L8.96315 13.5665C9.16912 13.3605 9.49865 13.337 9.72815 13.5135L10.7344 14.2668C11.1228 14.5551 11.676 14.2785 11.676 13.796V3.79216C11.676 3.14485 12.2056 2.61523 12.8529 2.61523H6.37981H5.79135C4.02596 2.61523 3.4375 3.66858 3.4375 4.96908V5.55754Z" stroke="#8B8B8B" stroke-width="0.980769" stroke-miterlimit="10" stroke-linecap="round" stroke-linejoin="round"/>
<path d="M7.55859 9.09375H9.32398" stroke="#8B8B8B" stroke-width="0.882692" stroke-linecap="round" stroke-linejoin="round"/>
<path d="M7.55859 6.74023H9.32398" stroke="#8B8B8B" stroke-width="0.882692" stroke-linecap="round" stroke-linejoin="round"/>
<path d="M5.79297 9.08789H5.79825" stroke="#8B8B8B" stroke-width="0.980769" stroke-linecap="round" stroke-linejoin="round"/>
<path d="M5.79297 6.73438H5.79825" stroke="#8B8B8B" stroke-width="0.980769" stroke-linecap="round" stroke-linejoin="round"/>
</svg>
