<svg width="14" height="15" viewBox="0 0 14 15" fill="none" xmlns="http://www.w3.org/2000/svg">
<g clip-path="url(#clip0_626_33893)">
<path d="M10.5 2.19775V5.69775H13.5V2.19775C13.5 1.79993 13.342 1.41839 13.0607 1.13709C12.7794 0.855789 12.3978 0.697754 12 0.697754C11.6022 0.697754 11.2206 0.855789 10.9393 1.13709C10.658 1.41839 10.5 1.79993 10.5 2.19775Z" fill="white"/>
<path d="M2.5 0.697754H12C11.6022 0.697754 11.2206 0.855789 10.9393 1.13709C10.658 1.41839 10.5 1.79993 10.5 2.19775V13.6978L8 12.1978L5.5 13.6978L3 12.1978L0.5 13.6978V2.69775C0.5 2.16732 0.710714 1.65861 1.08579 1.28354C1.46086 0.908468 1.96957 0.697754 2.5 0.697754Z" fill="#E6E6E6" fill-opacity="0.56"/>
<path d="M12 0.697754H2.5C1.96957 0.697754 1.46086 0.908468 1.08579 1.28354C0.710714 1.65861 0.5 2.16732 0.5 2.69775V13.6978L3 12.1978L5.5 13.6978L8 12.1978L10.5 13.6978V2.19775C10.5 1.79993 10.658 1.41839 10.9393 1.13709C11.2206 0.855789 11.6022 0.697754 12 0.697754ZM12 0.697754C12.3978 0.697754 12.7794 0.855789 13.0607 1.13709C13.342 1.41839 13.5 1.79993 13.5 2.19775V5.69775H10.5" stroke="#6D6D6D" stroke-linecap="round" stroke-linejoin="round"/>
<path d="M2.75 7.19775L4.75 8.69775L8.25 4.69775" stroke="#6D6D6D" stroke-linecap="round" stroke-linejoin="round"/>
</g>
<defs>
<clipPath id="clip0_626_33893">
<rect width="14" height="14" fill="white" transform="translate(0 0.197754)"/>
</clipPath>
</defs>
</svg>
