<svg width="16" height="17" viewBox="0 0 16 17" fill="none" xmlns="http://www.w3.org/2000/svg">
<path d="M14.5151 4.96908V6.39316C14.5151 7.32293 13.9267 7.91139 12.9969 7.91139H10.9844V3.79804C10.9844 3.14485 11.5199 2.61523 12.1731 2.61523C12.8145 2.62112 13.403 2.88004 13.8266 3.30373C14.2503 3.73331 14.5151 4.32177 14.5151 4.96908Z" stroke="#007EE5" stroke-width="0.980769" stroke-miterlimit="10" stroke-linecap="round" stroke-linejoin="round"/>
<path d="M2.74609 5.55754V13.796C2.74609 14.2844 3.29925 14.561 3.68763 14.2668L4.6939 13.5135C4.92929 13.337 5.25882 13.3605 5.47067 13.5724L6.44752 14.5551C6.67702 14.7846 7.05363 14.7846 7.28313 14.5551L8.27175 13.5665C8.47771 13.3605 8.80725 13.337 9.03675 13.5135L10.043 14.2668C10.4314 14.5551 10.9846 14.2785 10.9846 13.796V3.79216C10.9846 3.14485 11.5142 2.61523 12.1615 2.61523H5.6884H5.09994C3.33456 2.61523 2.74609 3.66858 2.74609 4.96908V5.55754Z" stroke="#007EE5" stroke-width="0.980769" stroke-miterlimit="10" stroke-linecap="round" stroke-linejoin="round"/>
<path d="M6.86719 9.09375H8.63257" stroke="#007EE5" stroke-width="0.882692" stroke-linecap="round" stroke-linejoin="round"/>
<path d="M6.86719 6.74023H8.63257" stroke="#007EE5" stroke-width="0.882692" stroke-linecap="round" stroke-linejoin="round"/>
<path d="M5.10156 9.08789H5.10685" stroke="#007EE5" stroke-width="0.980769" stroke-linecap="round" stroke-linejoin="round"/>
<path d="M5.10156 6.73438H5.10685" stroke="#007EE5" stroke-width="0.980769" stroke-linecap="round" stroke-linejoin="round"/>
</svg>
