<svg id="Layer_1" data-name="Layer 1" xmlns="http://www.w3.org/2000/svg" viewBox="0 0 20 21"><defs><style>.cls-1{fill:#292d32;fill-rule:evenodd;}.cls-2{fill:none;stroke:#292d32;stroke-linecap:round;stroke-width:1.15px;}</style></defs><title>Shift-Request</title><path class="cls-1" d="M6.09,3.74a20,20,0,0,0-2.5.11,3.52,3.52,0,0,0-2.13.92A3.5,3.5,0,0,0,.53,6.91a25.91,25.91,0,0,0-.11,3.15v3.88a25.91,25.91,0,0,0,.11,3.15,3.45,3.45,0,0,0,.93,2.13,3.47,3.47,0,0,0,2.13.93,25.91,25.91,0,0,0,3.15.11h6.71a25.83,25.83,0,0,0,3.15-.11,3.5,3.5,0,0,0,2.14-.93,3.5,3.5,0,0,0,.93-2.13,25.91,25.91,0,0,0,.11-3.15V10.06a25.91,25.91,0,0,0-.11-3.15,3.56,3.56,0,0,0-.93-2.14,3.55,3.55,0,0,0-2.14-.92,19.82,19.82,0,0,0-2.5-.11A3,3,0,0,0,11,.91H9.15A3.06,3.06,0,0,0,6.09,3.74Zm1.43,0h5.16a1.68,1.68,0,0,0-.56-1A1.65,1.65,0,0,0,11,2.32H9.15a1.67,1.67,0,0,0-1.08.41A1.62,1.62,0,0,0,7.52,3.74ZM2.46,18.22a2.18,2.18,0,0,0,1.32.53,27,27,0,0,0,3,.09H13.4a27.23,27.23,0,0,0,3-.09,2.18,2.18,0,0,0,1.32-.53,2.12,2.12,0,0,0,.52-1.32,24.34,24.34,0,0,0,.1-3V10.11a24.34,24.34,0,0,0-.1-3,2.09,2.09,0,0,0-.52-1.32,2.18,2.18,0,0,0-1.32-.53,26.72,26.72,0,0,0-3-.1H6.79a26.53,26.53,0,0,0-3,.1,2.18,2.18,0,0,0-1.32.53A2.15,2.15,0,0,0,1.93,7.1a27,27,0,0,0-.09,3v3.78a27,27,0,0,0,.09,3A2.18,2.18,0,0,0,2.46,18.22Z"/><path class="cls-2" d="M6.5,10A4.14,4.14,0,0,1,8.12,8.41a4.09,4.09,0,0,1,2.19-.5,4.18,4.18,0,0,1,2.14.72,4.24,4.24,0,0,1,1.44,1.73M5.55,8.69l.38,1.64a.52.52,0,0,0,.62.39l1.64-.38m5.5,3.79a4.16,4.16,0,0,1-5.94,1.34,4.11,4.11,0,0,1-1.44-1.73m8.34,1.67-.38-1.63a.52.52,0,0,0-.63-.39L12,13.77"/></svg>