<svg width="17" height="17" viewBox="0 0 17 17" fill="none" xmlns="http://www.w3.org/2000/svg">
<path d="M9.71388 2.61719H6.77157C3.82927 2.61719 2.65234 3.79411 2.65234 6.73642V10.2672C2.65234 13.2095 3.82927 14.3864 6.77157 14.3864" stroke="#8B8B8B" stroke-width="0.980769" stroke-linecap="round" stroke-linejoin="round"/>
<path d="M14.4219 7.32422V9.0896" stroke="#8B8B8B" stroke-width="0.980769" stroke-linecap="round" stroke-linejoin="round"/>
<path d="M14.4225 7.32488H12.0687C10.3033 7.32488 9.71484 6.73642 9.71484 4.97103V2.61719L14.4225 7.32488Z" stroke="#8B8B8B" stroke-width="0.980769" stroke-linecap="round" stroke-linejoin="round"/>
<path d="M13.3155 12.3433C13.3155 13.6616 12.2456 14.7315 10.9273 14.7315C9.60899 14.7315 8.53906 13.6616 8.53906 12.3433C8.53906 11.025 9.60899 9.95508 10.9273 9.95508C12.2456 9.95508 13.3155 11.025 13.3155 12.3433Z" stroke="#8B8B8B" stroke-width="0.980769" stroke-linecap="round" stroke-linejoin="round"/>
<path d="M11.5844 13.1409L10.9385 12.7555C10.826 12.6888 10.7344 12.5284 10.7344 12.3971V11.543" stroke="#8B8B8B" stroke-width="0.980769" stroke-linecap="round" stroke-linejoin="round"/>
</svg>
