<svg width="16" height="17" viewBox="0 0 16 17" fill="none" xmlns="http://www.w3.org/2000/svg">
<path d="M9.02248 2.61719H6.08017C3.13786 2.61719 1.96094 3.79411 1.96094 6.73642V10.2672C1.96094 13.2095 3.13786 14.3864 6.08017 14.3864" stroke="#007EE5" stroke-width="0.980769" stroke-linecap="round" stroke-linejoin="round"/>
<path d="M13.7305 7.32422V9.0896" stroke="#007EE5" stroke-width="0.980769" stroke-linecap="round" stroke-linejoin="round"/>
<path d="M13.7311 7.32488H11.3773C9.6119 7.32488 9.02344 6.73642 9.02344 4.97103V2.61719L13.7311 7.32488Z" stroke="#007EE5" stroke-width="0.980769" stroke-linecap="round" stroke-linejoin="round"/>
<path d="M12.6241 12.3433C12.6241 13.6616 11.5542 14.7315 10.2359 14.7315C8.91758 14.7315 7.84766 13.6616 7.84766 12.3433C7.84766 11.025 8.91758 9.95508 10.2359 9.95508C11.5542 9.95508 12.6241 11.025 12.6241 12.3433Z" stroke="#007EE5" stroke-width="0.980769" stroke-linecap="round" stroke-linejoin="round"/>
<path d="M10.893 13.1409L10.2471 12.7555C10.1346 12.6888 10.043 12.5284 10.043 12.3971V11.543" stroke="#007EE5" stroke-width="0.980769" stroke-linecap="round" stroke-linejoin="round"/>
</svg>
