<svg width="14" height="14" viewBox="0 0 14 14" fill="none" xmlns="http://www.w3.org/2000/svg">
<g clip-path="url(#clip0_2226_19530)">
<path d="M12.5 3.5H1.5C0.947715 3.5 0.5 3.94772 0.5 4.5V12.5C0.5 13.0523 0.947715 13.5 1.5 13.5H12.5C13.0523 13.5 13.5 13.0523 13.5 12.5V4.5C13.5 3.94772 13.0523 3.5 12.5 3.5Z" fill="#9FF5FF" fill-opacity="0.56"/>
<path d="M12.5 3.5H1.5C0.947715 3.5 0.5 3.94772 0.5 4.5V12.5C0.5 13.0523 0.947715 13.5 1.5 13.5H12.5C13.0523 13.5 13.5 13.0523 13.5 12.5V4.5C13.5 3.94772 13.0523 3.5 12.5 3.5Z" stroke="#003F88" stroke-linecap="round" stroke-linejoin="round"/>
<path d="M10 3.5V1.5C10 1.23478 9.89464 0.98043 9.70711 0.792893C9.51957 0.605357 9.26522 0.5 9 0.5H5C4.73478 0.5 4.48043 0.605357 4.29289 0.792893C4.10536 0.98043 4 1.23478 4 1.5V3.5" stroke="#003F88" stroke-linecap="round" stroke-linejoin="round"/>
<path d="M8.27579 7.16667C8.23189 7.04246 8.16415 6.92952 8.07806 6.83334C7.89496 6.62875 7.62886 6.5 7.33269 6.5H6.55865C6.06566 6.5 5.66602 6.89965 5.66602 7.39264C5.66602 7.81212 5.95811 8.17501 6.3679 8.26466L7.54639 8.52245C8.00548 8.62288 8.3327 9.02971 8.3327 9.49965C8.3327 10.052 7.88498 10.5 7.33269 10.5H6.66602C6.23061 10.5 5.8602 10.2218 5.72292 9.83335" stroke="#003F88" stroke-linecap="round" stroke-linejoin="round"/>
<path d="M7 6.50001V5.5" stroke="#003F88" stroke-linecap="round" stroke-linejoin="round"/>
<path d="M7 11.5V10.5" stroke="#003F88" stroke-linecap="round" stroke-linejoin="round"/>
</g>
<defs>
<clipPath id="clip0_2226_19530">
<rect width="14" height="14" fill="white"/>
</clipPath>
</defs>
</svg>
