<svg id="Layer_1" data-name="Layer 1" xmlns="http://www.w3.org/2000/svg" viewBox="0 0 16 16"><defs><style>.cls-1{fill:none;stroke:#2f80ed;stroke-linecap:round;stroke-linejoin:round;stroke-width:0.76px;}</style></defs><title>Eye</title><path class="cls-1" d="M10.09,8A2.09,2.09,0,1,1,8,5.91,2.1,2.1,0,0,1,10.09,8Z"/><path class="cls-1" d="M7.89,12.48a8.23,8.23,0,0,0,6.42-3.15,2.43,2.43,0,0,0,0-2.88A8.23,8.23,0,0,0,7.89,3.3,8.2,8.2,0,0,0,1.48,6.45a2.4,2.4,0,0,0,0,2.88A8.2,8.2,0,0,0,7.89,12.48Z"/></svg>