<svg id="Layer_1" data-name="Layer 1" xmlns="http://www.w3.org/2000/svg" viewBox="0 0 30 39"><defs><style>.cls-1{fill:#2f80ed;stroke:#2f80ed;}.cls-1,.cls-2{stroke-linejoin:round;stroke-width:1.72px;}.cls-2{fill:#56ccf2;stroke:#56ccf2;stroke-linecap:round;}.cls-3{fill:#f2f2f2;}</style></defs><title>JPG</title><path class="cls-1" d="M28.89,14.6V33.45a4.2,4.2,0,0,1-1.21,2.95,4.09,4.09,0,0,1-2.91,1.22H5.52A4.14,4.14,0,0,1,2.6,36.4a4.19,4.19,0,0,1-1.2-2.95V5.69A4.19,4.19,0,0,1,2.6,2.75,4.14,4.14,0,0,1,5.52,1.53H15.57c.73,0-.14.29.38.81L28.08,14.6C28.6,15.12,28.89,13.86,28.89,14.6Z"/><path class="cls-2" d="M16,1.53V11.71a2.73,2.73,0,0,0,2.71,2.71H28.89"/><path class="cls-3" d="M13.5,28v4.21A1.79,1.79,0,0,1,13,33.61a1.9,1.9,0,0,1-1.36.49,2,2,0,0,1-1.39-.5,1.84,1.84,0,0,1-.52-1.39h1.2a.93.93,0,0,0,.18.6.64.64,0,0,0,.51.21.63.63,0,0,0,.5-.2.84.84,0,0,0,.17-.57V28Zm5.77,1.85a1.92,1.92,0,0,1-.23.91,1.65,1.65,0,0,1-.71.67,2.48,2.48,0,0,1-1.22.26h-1V34H14.9V28h2.21a2.64,2.64,0,0,1,1.18.24,1.63,1.63,0,0,1,.73.66A1.8,1.8,0,0,1,19.27,29.89Zm-2.21.87a1,1,0,0,0,.73-.22.87.87,0,0,0,.24-.65c0-.58-.32-.87-1-.87h-1v1.74Zm7.24-.92a1.36,1.36,0,0,0-.57-.57,1.74,1.74,0,0,0-.84-.2,1.83,1.83,0,0,0-.94.24,1.67,1.67,0,0,0-.65.69,2.23,2.23,0,0,0-.23,1,2.32,2.32,0,0,0,.23,1,1.73,1.73,0,0,0,.66.68,2,2,0,0,0,1,.24,1.72,1.72,0,0,0,1.13-.36,1.78,1.78,0,0,0,.58-1H22.58V30.7h3.25v1.05a2.87,2.87,0,0,1-.51,1.16,3.1,3.1,0,0,1-1,.86,3,3,0,0,1-1.39.32,3.18,3.18,0,0,1-1.57-.39,2.88,2.88,0,0,1-1.1-1.09,3.32,3.32,0,0,1,0-3.16,2.75,2.75,0,0,1,1.1-1.09,3.3,3.3,0,0,1,3.32.1,2.48,2.48,0,0,1,1,1.38Z"/></svg>