<svg width="19" height="20" viewBox="0 0 19 20" fill="none" xmlns="http://www.w3.org/2000/svg">
<path d="M3.47754 9.23376V13.1023C3.47754 14.519 3.47754 14.519 4.81637 15.4219L8.49814 17.5469C9.0508 17.8661 9.95373 17.8661 10.5064 17.5469L14.1882 15.4219C15.527 14.519 15.527 14.519 15.527 13.1023V9.23376C15.527 7.81709 15.527 7.81709 14.1882 6.91416L10.5064 4.78916C9.95373 4.47002 9.0508 4.47002 8.49814 4.78916L4.81637 6.91416C3.47754 7.81709 3.47754 7.81709 3.47754 9.23376Z" stroke="#282828" stroke-width="0.879121" stroke-linecap="round" stroke-linejoin="round"/>
<path d="M13.7859 6.59619V4.54903C13.7859 2.99226 13.0075 2.21387 11.4507 2.21387H7.5588C6.00202 2.21387 5.22363 2.99226 5.22363 4.54903V6.54171" stroke="#282828" stroke-width="0.879121" stroke-linecap="round" stroke-linejoin="round"/>
<path d="M9.99211 9.21271L10.4358 9.90547C10.5058 10.0144 10.6615 10.1234 10.7783 10.1546L11.5722 10.3569C12.0626 10.4815 12.1949 10.9018 11.8758 11.291L11.3543 11.9215C11.2765 12.0227 11.2142 12.2017 11.222 12.3263L11.2687 13.1436C11.2998 13.6495 10.9417 13.9064 10.4747 13.7196L9.71189 13.416C9.59513 13.3693 9.40053 13.3693 9.28378 13.416L8.52096 13.7196C8.05392 13.9064 7.69586 13.6417 7.727 13.1436L7.7737 12.3263C7.78149 12.2017 7.71922 12.0149 7.64138 11.9215L7.11986 11.291C6.80072 10.9018 6.93304 10.4815 7.42343 10.3569L8.21738 10.1546C8.34193 10.1234 8.4976 10.0067 8.55988 9.90547L9.00356 9.21271C9.28378 8.79238 9.71967 8.79238 9.99211 9.21271Z" stroke="#282828" stroke-width="0.879121" stroke-linecap="round" stroke-linejoin="round"/>
</svg>
