<svg width="30" height="30" viewBox="0 0 30 30" fill="none" xmlns="http://www.w3.org/2000/svg">
<rect width="30" height="30" rx="15" fill="#5461FF" fill-opacity="0.1"/>
<path d="M18.3332 23.3337C17.4448 22.2964 16.2779 21.667 14.9998 21.667C13.7218 21.667 12.5549 22.2964 11.6665 23.3337" stroke="#5461FF" stroke-width="1.5" stroke-linecap="round"/>
<path d="M15.0002 15.8335C13.9434 15.8335 12.8261 16.0163 11.9502 16.2608C11.2907 16.445 10.7601 17.2848 10.8418 17.9665C10.8721 18.219 11.0896 18.3335 11.3183 18.3335H18.6821C18.9107 18.3335 19.1282 18.219 19.1585 17.9665C19.2402 17.2848 18.7097 16.445 18.0501 16.2608C17.1743 16.0163 16.0569 15.8335 15.0002 15.8335Z" stroke="#5461FF" stroke-width="1.5" stroke-linecap="round"/>
<path d="M22.4998 13.3335C21.5794 13.3335 20.8332 14.0797 20.8332 15.0002V15.8335C20.8332 16.754 20.087 17.5002 19.1665 17.5002" stroke="#5461FF" stroke-width="1.5" stroke-linecap="round" stroke-linejoin="round"/>
<path d="M7.50016 13.3335C8.42064 13.3335 9.16683 14.0797 9.16683 15.0002V15.8335C9.16683 16.754 9.91302 17.5002 10.8335 17.5002" stroke="#5461FF" stroke-width="1.5" stroke-linecap="round" stroke-linejoin="round"/>
<path d="M15 18.3335V23.3335" stroke="#5461FF" stroke-width="1.5" stroke-linecap="round" stroke-linejoin="round"/>
<path d="M15.6833 13.3337H14.317C13.1486 13.3337 12.5644 13.3337 12.1417 12.9807C11.7191 12.6277 11.5774 12.0214 11.294 10.8088C10.8484 8.90223 10.6256 7.94895 11.0935 7.30797C11.5613 6.66699 12.4799 6.66699 14.317 6.66699H15.6833C17.5204 6.66699 18.439 6.66699 18.9068 7.30797C19.3747 7.94895 19.1519 8.90223 18.7063 10.8088C18.4229 12.0214 18.2812 12.6277 17.8586 12.9807C17.436 13.3337 16.8517 13.3337 15.6833 13.3337Z" stroke="#5461FF" stroke-width="1.5" stroke-linecap="round" stroke-linejoin="round"/>
<path d="M15 13.3335V15.8335" stroke="#5461FF" stroke-width="1.5" stroke-linecap="round" stroke-linejoin="round"/>
</svg>
