<svg width="30" height="30" viewBox="0 0 30 30" fill="none" xmlns="http://www.w3.org/2000/svg">
<rect width="30" height="30" rx="15" fill="#009A3E" fill-opacity="0.1"/>
<g clip-path="url(#clip0_67_8973)">
<path d="M14.9998 18.333H15.0073" stroke="#009A3E" stroke-width="1.5" stroke-linecap="round" stroke-linejoin="round"/>
<path d="M15 15.833L15 11.6663" stroke="#009A3E" stroke-width="1.5" stroke-linecap="round" stroke-linejoin="round"/>
<path d="M18.5901 8.65312C18.0976 8.65312 17.8513 8.65312 17.6269 8.56988C17.5958 8.55832 17.5651 8.54559 17.5349 8.53174C17.3174 8.43196 17.1432 8.25783 16.795 7.90956C15.9934 7.10798 15.5926 6.70719 15.0994 6.67023C15.0331 6.66526 14.9665 6.66526 14.9002 6.67023C14.4071 6.70719 14.0063 7.10798 13.2047 7.90956C12.8564 8.25783 12.6823 8.43196 12.4648 8.53174C12.4346 8.54559 12.4039 8.55832 12.3727 8.56988C12.1484 8.65312 11.9021 8.65312 11.4096 8.65312H11.3187C10.0622 8.65312 9.43386 8.65312 9.04349 9.04349C8.65312 9.43386 8.65312 10.0622 8.65312 11.3187V11.4096C8.65312 11.9021 8.65312 12.1484 8.56988 12.3727C8.55832 12.4039 8.54559 12.4346 8.53174 12.4648C8.43196 12.6823 8.25783 12.8564 7.90956 13.2047C7.10798 14.0063 6.70719 14.4071 6.67023 14.9002C6.66526 14.9665 6.66526 15.0331 6.67023 15.0994C6.70719 15.5926 7.10798 15.9934 7.90956 16.795C8.25783 17.1432 8.43196 17.3174 8.53174 17.5349C8.54559 17.5651 8.55832 17.5958 8.56988 17.6269C8.65312 17.8513 8.65312 18.0976 8.65312 18.5901V18.6809C8.65312 19.9375 8.65312 20.5658 9.04349 20.9562C9.43386 21.3466 10.0622 21.3465 11.3187 21.3465H11.4096C11.9021 21.3465 12.1484 21.3466 12.3727 21.4298C12.4039 21.4414 12.4346 21.4541 12.4648 21.4679C12.6823 21.5677 12.8564 21.7418 13.2047 22.0901C14.0063 22.8917 14.4071 23.2925 14.9002 23.3294C14.9665 23.3344 15.0331 23.3344 15.0994 23.3294C15.5926 23.2925 15.9934 22.8917 16.795 22.0901C17.1432 21.7418 17.3174 21.5677 17.5349 21.4679C17.5651 21.4541 17.5958 21.4414 17.6269 21.4298C17.8513 21.3466 18.0976 21.3465 18.5901 21.3465H18.6809C19.9375 21.3465 20.5658 21.3466 20.9562 20.9562C21.3466 20.5658 21.3465 19.9375 21.3465 18.6809V18.5901C21.3465 18.0976 21.3466 17.8513 21.4298 17.6269C21.4414 17.5958 21.4541 17.5651 21.4679 17.5349C21.5677 17.3174 21.7418 17.1432 22.0901 16.795C22.8917 15.9934 23.2925 15.5926 23.3294 15.0994C23.3344 15.0331 23.3344 14.9665 23.3294 14.9002C23.2925 14.4071 22.8917 14.0063 22.0901 13.2047C21.7418 12.8564 21.5677 12.6823 21.4679 12.4648C21.4541 12.4346 21.4414 12.4039 21.4298 12.3727C21.3466 12.1484 21.3465 11.9021 21.3465 11.4096V11.3187C21.3465 10.0622 21.3466 9.43386 20.9562 9.04349C20.5658 8.65312 19.9375 8.65312 18.6809 8.65312H18.5901Z" stroke="#009A3E" stroke-width="1.5"/>
</g>
<defs>
<clipPath id="clip0_67_8973">
<rect width="20" height="20" fill="white" transform="translate(5 5)"/>
</clipPath>
</defs>
</svg>
