<svg width="24" height="24" viewBox="0 0 24 24" fill="none" xmlns="http://www.w3.org/2000/svg">
<path d="M15 16.5C14.7239 16.5 14.5 16.7239 14.5 17C14.5 17.2761 14.7239 17.5 15 17.5V16.5ZM21 17.5C21.2761 17.5 21.5 17.2761 21.5 17C21.5 16.7239 21.2761 16.5 21 16.5V17.5ZM14 13.5C14.2761 13.5 14.5 13.2761 14.5 13C14.5 12.7239 14.2761 12.5 14 12.5V13.5ZM14 21.5C14.2761 21.5 14.5 21.2761 14.5 21C14.5 20.7239 14.2761 20.5 14 20.5V21.5ZM14.5 6C14.5 7.933 12.933 9.5 11 9.5V10.5C13.4853 10.5 15.5 8.48528 15.5 6H14.5ZM11 9.5C9.067 9.5 7.5 7.933 7.5 6H6.5C6.5 8.48528 8.51472 10.5 11 10.5V9.5ZM7.5 6C7.5 4.067 9.067 2.5 11 2.5V1.5C8.51472 1.5 6.5 3.51472 6.5 6H7.5ZM11 2.5C12.933 2.5 14.5 4.067 14.5 6H15.5C15.5 3.51472 13.4853 1.5 11 1.5V2.5ZM15 17.5H21V16.5H15V17.5ZM8 13.5H14V12.5H8V13.5ZM14 20.5H8V21.5H14V20.5ZM8 20.5C6.067 20.5 4.5 18.933 4.5 17H3.5C3.5 19.4853 5.51472 21.5 8 21.5V20.5ZM8 12.5C5.51472 12.5 3.5 14.5147 3.5 17H4.5C4.5 15.067 6.067 13.5 8 13.5V12.5Z" fill="#474747"/>
</svg>
