<svg width="18" height="18" viewBox="0 0 18 18" fill="none" xmlns="http://www.w3.org/2000/svg">
<path d="M7.78024 12.3454H3.19287" stroke="#5D5D5D" stroke-width="1.31053" stroke-linecap="round" stroke-linejoin="round"/>
<path d="M9.82568 5.28679H14.413" stroke="#5D5D5D" stroke-width="1.31053" stroke-linecap="round" stroke-linejoin="round"/>
<path fill-rule="evenodd" clip-rule="evenodd" d="M6.61441 5.24876C6.61441 4.30544 5.84399 3.54053 4.89387 3.54053C3.94376 3.54053 3.17334 4.30544 3.17334 5.24876C3.17334 6.19209 3.94376 6.957 4.89387 6.957C5.84399 6.957 6.61441 6.19209 6.61441 5.24876Z" stroke="#5D5D5D" stroke-width="1.31053" stroke-linecap="round" stroke-linejoin="round"/>
<path fill-rule="evenodd" clip-rule="evenodd" d="M14.8214 12.3152C14.8214 11.3718 14.0516 10.6069 13.1015 10.6069C12.1508 10.6069 11.3804 11.3718 11.3804 12.3152C11.3804 13.2585 12.1508 14.0234 13.1015 14.0234C14.0516 14.0234 14.8214 13.2585 14.8214 12.3152Z" stroke="#5D5D5D" stroke-width="1.31053" stroke-linecap="round" stroke-linejoin="round"/>
</svg>
