<svg width="60" height="60" viewBox="0 0 60 60" fill="none" xmlns="http://www.w3.org/2000/svg">
<g filter="url(#filter0_d_1403_12257)">
<rect x="4" y="2" width="52" height="52" rx="13.4702" fill="#F0F8FF" shape-rendering="crispEdges"/>
<path d="M38.5 27.2995V23.0395C38.5 19.0095 37.56 17.9995 33.78 17.9995H26.22C22.44 17.9995 21.5 19.0095 21.5 23.0395V34.2995C21.5 36.9595 22.96 37.5895 24.73 35.6895L24.74 35.6795C25.56 34.8095 26.81 34.8795 27.52 35.8295L28.53 37.1795" stroke="#007EE5" stroke-width="1.5" stroke-linecap="round" stroke-linejoin="round"/>
<path d="M26 23.0005H34" stroke="#007EE5" stroke-width="1.5" stroke-linecap="round" stroke-linejoin="round"/>
<path d="M27 27H33" stroke="#007EE5" stroke-width="1.5" stroke-linecap="round" stroke-linejoin="round"/>
<path d="M35.669 30.2395C35.319 30.1345 34.934 30.0645 34.5 30.0645C32.568 30.0645 31 31.6325 31 33.5645C31 35.4965 32.568 37.0645 34.5 37.0645C36.432 37.0645 38 35.4965 38 33.5645C38 32.8435 37.783 32.1785 37.412 31.6185" stroke="#007EE5" stroke-width="1.5" stroke-linecap="round" stroke-linejoin="round"/>
<path d="M36.1698 30.337L35.0078 29" stroke="#007EE5" stroke-width="1.5" stroke-linecap="round" stroke-linejoin="round"/>
<path d="M36.1666 30.3394L34.8086 31.3334" stroke="#007EE5" stroke-width="1.5" stroke-linecap="round" stroke-linejoin="round"/>
</g>
<defs>
<filter id="filter0_d_1403_12257" x="0" y="0" width="60" height="60" filterUnits="userSpaceOnUse" color-interpolation-filters="sRGB">
<feFlood flood-opacity="0" result="BackgroundImageFix"/>
<feColorMatrix in="SourceAlpha" type="matrix" values="0 0 0 0 0 0 0 0 0 0 0 0 0 0 0 0 0 0 127 0" result="hardAlpha"/>
<feOffset dy="2"/>
<feGaussianBlur stdDeviation="2"/>
<feComposite in2="hardAlpha" operator="out"/>
<feColorMatrix type="matrix" values="0 0 0 0 0.616667 0 0 0 0 0.616667 0 0 0 0 0.616667 0 0 0 0.25 0"/>
<feBlend mode="normal" in2="BackgroundImageFix" result="effect1_dropShadow_1403_12257"/>
<feBlend mode="normal" in="SourceGraphic" in2="effect1_dropShadow_1403_12257" result="shape"/>
</filter>
</defs>
</svg>
