<svg width="64" height="60" viewBox="0 0 64 60" fill="none" xmlns="http://www.w3.org/2000/svg">
<g filter="url(#filter0_d_1403_12266)">
<rect x="4" y="2" width="56" height="52" rx="13.4702" fill="#FFFBF0" shape-rendering="crispEdges"/>
<path d="M27.9995 18.0015V21.0015" stroke="#FFB949" stroke-width="1.5" stroke-miterlimit="10" stroke-linecap="round" stroke-linejoin="round"/>
<path d="M35.999 18.0015V21.0015" stroke="#FFB949" stroke-width="1.5" stroke-miterlimit="10" stroke-linecap="round" stroke-linejoin="round"/>
<path d="M23.501 25.0898H40.501" stroke="#FFB949" stroke-width="1.5" stroke-miterlimit="10" stroke-linecap="round" stroke-linejoin="round"/>
<path d="M42.0037 35.0015C42.0037 35.7515 41.7937 36.4615 41.4237 37.0615C40.7337 38.2215 39.4637 39.0015 38.0037 39.0015C36.9937 39.0015 36.0737 38.6315 35.3737 38.0015C35.0637 37.7415 34.7937 37.4215 34.5837 37.0615C34.2137 36.4615 34.0037 35.7515 34.0037 35.0015C34.0037 32.7915 35.7937 31.0015 38.0037 31.0015C39.2037 31.0015 40.2737 31.5315 41.0037 32.3615C41.6237 33.0715 42.0037 33.9915 42.0037 35.0015Z" stroke="#FFB949" stroke-width="1.5" stroke-miterlimit="10" stroke-linecap="round" stroke-linejoin="round"/>
<path d="M36.4471 35.0015L37.4371 35.9915L39.5671 34.0215" stroke="#FFB949" stroke-width="1.5" stroke-linecap="round" stroke-linejoin="round"/>
<path d="M40.999 24.501V32.361C40.269 31.531 39.199 31.001 37.999 31.001C35.789 31.001 33.999 32.791 33.999 35.001C33.999 35.751 34.209 36.461 34.579 37.061C34.789 37.421 35.059 37.741 35.369 38.001H27.999C24.499 38.001 22.999 36.001 22.999 33.001V24.501C22.999 21.501 24.499 19.501 27.999 19.501H35.999C39.499 19.501 40.999 21.501 40.999 24.501Z" stroke="#FFB949" stroke-width="1.5" stroke-miterlimit="10" stroke-linecap="round" stroke-linejoin="round"/>
<path d="M32.9927 29.7002H33.0017" stroke="#FFB949" stroke-width="1.5" stroke-linecap="round" stroke-linejoin="round"/>
<path d="M28.2969 29.7002H28.3059" stroke="#FFB949" stroke-width="1.5" stroke-linecap="round" stroke-linejoin="round"/>
<path d="M28.2969 33.6997H28.3059" stroke="#FFB949" stroke-width="1.5" stroke-linecap="round" stroke-linejoin="round"/>
</g>
<defs>
<filter id="filter0_d_1403_12266" x="0" y="0" width="64" height="60" filterUnits="userSpaceOnUse" color-interpolation-filters="sRGB">
<feFlood flood-opacity="0" result="BackgroundImageFix"/>
<feColorMatrix in="SourceAlpha" type="matrix" values="0 0 0 0 0 0 0 0 0 0 0 0 0 0 0 0 0 0 127 0" result="hardAlpha"/>
<feOffset dy="2"/>
<feGaussianBlur stdDeviation="2"/>
<feComposite in2="hardAlpha" operator="out"/>
<feColorMatrix type="matrix" values="0 0 0 0 0.616667 0 0 0 0 0.616667 0 0 0 0 0.616667 0 0 0 0.25 0"/>
<feBlend mode="normal" in2="BackgroundImageFix" result="effect1_dropShadow_1403_12266"/>
<feBlend mode="normal" in="SourceGraphic" in2="effect1_dropShadow_1403_12266" result="shape"/>
</filter>
</defs>
</svg>
