<svg width="20" height="20" viewBox="0 0 20 20" fill="none" xmlns="http://www.w3.org/2000/svg">
<rect width="20" height="20" rx="10" fill="#005BC3"/>
<g clip-path="url(#clip0_626_51091)">
<path fill-rule="evenodd" clip-rule="evenodd" d="M5.89237 9.99847C5.89237 7.72992 7.73139 5.8909 9.99993 5.8909C11.2861 5.8909 12.4347 6.4821 13.1882 7.40831L12.6653 7.93117C12.5377 8.05884 12.4995 8.25087 12.5685 8.41768C12.6377 8.5845 12.8005 8.69327 12.981 8.69327H14.1915C14.2005 8.69354 14.2096 8.69355 14.2186 8.69327H14.554C14.8005 8.69327 15.0004 8.4934 15.0004 8.24684V6.67389C15.0004 6.49334 14.8916 6.33055 14.7248 6.26145C14.558 6.19235 14.366 6.23054 14.2383 6.35822L13.8222 6.77434C12.9052 5.68829 11.5334 4.99805 9.99993 4.99805C7.23828 4.99805 4.99951 7.23682 4.99951 9.99847C4.99951 10.245 5.19939 10.4449 5.44594 10.4449C5.6925 10.4449 5.89237 10.245 5.89237 9.99847ZM15.0001 9.99839C15.0001 9.75184 14.8002 9.55197 14.5537 9.55197C14.3071 9.55197 14.1072 9.75184 14.1072 9.99839C14.1072 12.267 12.2682 14.106 9.99968 14.106C8.71358 14.106 7.56494 13.5148 6.81152 12.5887L7.33458 12.0656C7.46226 11.9379 7.50045 11.7459 7.43135 11.5791C7.36226 11.4123 7.19947 11.3035 7.01891 11.3035H5.80536C5.79816 11.3033 5.79093 11.3033 5.78371 11.3035H5.44594C5.19938 11.3035 4.99951 11.5034 4.99951 11.7499V13.3229C4.99951 13.5035 5.10828 13.6662 5.2751 13.7353C5.44192 13.8045 5.63393 13.7662 5.76161 13.6386L6.17755 13.2226C7.09455 14.3086 8.46623 14.9988 9.99968 14.9988C12.7613 14.9988 15.0001 12.76 15.0001 9.99839ZM8.03563 11.9986C8.36597 11.2425 9.12076 10.713 10 10.713C10.8793 10.713 11.6341 11.2425 11.9644 11.9986C12.0127 12.109 12.002 12.2363 11.936 12.3372C11.87 12.438 11.7576 12.4987 11.6371 12.4987H8.3629C8.2424 12.4987 8.13003 12.438 8.06405 12.3372C7.99807 12.2363 7.98738 12.109 8.03563 11.9986ZM10 7.67732C9.30968 7.67732 8.75003 8.23696 8.75003 8.92732C8.75003 9.61767 9.30968 10.1773 10 10.1773C10.6904 10.1773 11.25 9.61767 11.25 8.92732C11.25 8.23696 10.6904 7.67732 10 7.67732Z" fill="white"/>
</g>
<defs>
<clipPath id="clip0_626_51091">
<rect width="10" height="10" fill="white" transform="translate(5 5)"/>
</clipPath>
</defs>
</svg>
