<svg width="21" height="21" viewBox="0 0 21 21" fill="none" xmlns="http://www.w3.org/2000/svg">
<path d="M2.16675 13.8331C2.16675 13.8331 3.66286 13.208 6.33341 13.208C10.5001 13.208 13.8334 15.708 18.8334 15.708" stroke="#5461FF" stroke-linecap="round" stroke-linejoin="round"/>
<path d="M2.16675 18.208H18.8334" stroke="#5461FF" stroke-linecap="round" stroke-linejoin="round"/>
<path d="M10.9951 3.39768C8.62373 4.07774 7.08234 6.41821 7.17033 8.93721C7.1886 9.4604 7.19774 9.72199 7.4213 9.83768C7.64486 9.95338 7.8769 9.78941 8.34098 9.46146L9.37562 8.73034C9.53101 8.62053 9.71548 8.56763 9.90135 8.57957L12.3315 8.73568L14.3632 7.30002C14.5186 7.19022 14.703 7.13732 14.8889 7.14926L16.1567 7.2307C16.7006 7.26564 16.9726 7.28312 17.1077 7.0737C17.2427 6.86428 17.1329 6.63786 16.9134 6.18503C15.8214 3.93292 13.3795 2.7139 10.9951 3.39768Z" stroke="#5461FF" stroke-linecap="round" stroke-linejoin="round"/>
<path d="M12.5833 8.625L14.25 14.875M10.7381 3.20833L10.5 2.375" stroke="#5461FF" stroke-linecap="round" stroke-linejoin="round"/>
</svg>
