<svg width="19" height="18" viewBox="0 0 19 18" fill="none" xmlns="http://www.w3.org/2000/svg">
<path d="M1.16675 12.8331C1.16675 12.8331 2.66286 12.208 5.33341 12.208C9.50008 12.208 12.8334 14.708 17.8334 14.708" stroke="#FFB949" stroke-linecap="round" stroke-linejoin="round"/>
<path d="M1.16675 17.208H17.8334" stroke="#FFB949" stroke-linecap="round" stroke-linejoin="round"/>
<path d="M9.99511 2.39768C7.62373 3.07774 6.08234 5.41821 6.17033 7.93721C6.1886 8.4604 6.19774 8.72199 6.4213 8.83768C6.64486 8.95338 6.8769 8.78941 7.34098 8.46146L8.37562 7.73034C8.53101 7.62053 8.71548 7.56763 8.90135 7.57957L11.3315 7.73568L13.3632 6.30002C13.5186 6.19022 13.703 6.13732 13.8889 6.14926L15.1567 6.2307C15.7006 6.26564 15.9726 6.28312 16.1077 6.0737C16.2427 5.86428 16.1329 5.63786 15.9134 5.18503C14.8214 2.93292 12.3795 1.7139 9.99511 2.39768Z" stroke="#FFB949" stroke-linecap="round" stroke-linejoin="round"/>
<path d="M11.5833 7.625L13.25 13.875M9.7381 2.20833L9.5 1.375" stroke="#FFB949" stroke-linecap="round" stroke-linejoin="round"/>
</svg>
