<svg width="30" height="30" viewBox="0 0 30 30" fill="none" xmlns="http://www.w3.org/2000/svg">
<rect width="30" height="30" rx="15" fill="#5461FF" fill-opacity="0.1"/>
<path d="M11.6667 6.66699V9.16699" stroke="#5461FF" stroke-width="1.25" stroke-miterlimit="10" stroke-linecap="round" stroke-linejoin="round"/>
<path d="M18.3333 6.66699V9.16699" stroke="#5461FF" stroke-width="1.25" stroke-miterlimit="10" stroke-linecap="round" stroke-linejoin="round"/>
<path d="M7.91675 12.5752H22.0834" stroke="#5461FF" stroke-width="1.25" stroke-miterlimit="10" stroke-linecap="round" stroke-linejoin="round"/>
<path d="M23.3327 20.8333C23.3327 21.4583 23.1577 22.05 22.8493 22.55C22.2743 23.5167 21.216 24.1667 19.9993 24.1667C19.1577 24.1667 18.391 23.8583 17.8077 23.3333C17.5494 23.1167 17.3244 22.85 17.1494 22.55C16.841 22.05 16.666 21.4583 16.666 20.8333C16.666 18.9917 18.1577 17.5 19.9993 17.5C20.9993 17.5 21.891 17.9417 22.4993 18.6333C23.016 19.225 23.3327 19.9917 23.3327 20.8333Z" stroke="#5461FF" stroke-width="1.25" stroke-miterlimit="10" stroke-linecap="round" stroke-linejoin="round"/>
<path d="M18.699 20.8333L19.524 21.6583L21.299 20.0166" stroke="#5461FF" stroke-width="1.25" stroke-linecap="round" stroke-linejoin="round"/>
<path d="M22.5 12.0837V18.6336C21.8917 17.942 21 17.5003 20 17.5003C18.1583 17.5003 16.6667 18.992 16.6667 20.8337C16.6667 21.4587 16.8417 22.0503 17.15 22.5503C17.325 22.8503 17.55 23.117 17.8083 23.3337H11.6667C8.75 23.3337 7.5 21.667 7.5 19.167V12.0837C7.5 9.58366 8.75 7.91699 11.6667 7.91699H18.3333C21.25 7.91699 22.5 9.58366 22.5 12.0837Z" stroke="#5461FF" stroke-width="1.25" stroke-miterlimit="10" stroke-linecap="round" stroke-linejoin="round"/>
<path d="M14.9953 16.4157H15.0028" stroke="#5461FF" stroke-width="1.25" stroke-linecap="round" stroke-linejoin="round"/>
<path d="M11.9128 16.4157H11.9203" stroke="#5461FF" stroke-width="1.25" stroke-linecap="round" stroke-linejoin="round"/>
<path d="M11.9128 18.9157H11.9203" stroke="#5461FF" stroke-width="1.25" stroke-linecap="round" stroke-linejoin="round"/>
</svg>
