<svg width="12" height="12" viewBox="0 0 12 12" fill="none" xmlns="http://www.w3.org/2000/svg">
<g clip-path="url(#clip0_46_13182)">
<path d="M2.93359 10.7639V1.9553C2.93359 1.69572 3.03671 1.44678 3.22026 1.26323C3.40381 1.07968 3.65275 0.976563 3.91233 0.976562H7.82727C8.08685 0.976563 8.33579 1.07968 8.51934 1.26323C8.70289 1.44678 8.80601 1.69572 8.80601 1.9553V10.7639H2.93359Z" stroke="#666666" stroke-width="0.8" stroke-linecap="round" stroke-linejoin="round"/>
<path d="M2.93403 5.87109H1.9553C1.69572 5.87109 1.44678 5.97421 1.26323 6.15776C1.07968 6.34131 0.976563 6.59025 0.976562 6.84983V9.78604C0.976563 10.0456 1.07968 10.2946 1.26323 10.4781C1.44678 10.6617 1.69572 10.7648 1.9553 10.7648H2.93403" stroke="#666666" stroke-width="0.8" stroke-linecap="round" stroke-linejoin="round"/>
<path d="M8.80859 4.4043H9.78733C10.0469 4.4043 10.2959 4.50741 10.4794 4.69096C10.6629 4.87451 10.7661 5.12346 10.7661 5.38303V9.78734C10.7661 10.0469 10.6629 10.2959 10.4794 10.4794C10.2959 10.663 10.0469 10.7661 9.78733 10.7661H8.80859" stroke="#666666" stroke-width="0.8" stroke-linecap="round" stroke-linejoin="round"/>
<path d="M4.89453 2.9375H6.852" stroke="#666666" stroke-width="0.8" stroke-linecap="round" stroke-linejoin="round"/>
<path d="M4.89453 4.89453H6.852" stroke="#666666" stroke-width="0.8" stroke-linecap="round" stroke-linejoin="round"/>
<path d="M4.89453 6.84961H6.852" stroke="#666666" stroke-width="0.8" stroke-linecap="round" stroke-linejoin="round"/>
<path d="M4.89453 8.80859H6.852" stroke="#666666" stroke-width="0.8" stroke-linecap="round" stroke-linejoin="round"/>
</g>
<defs>
<clipPath id="clip0_46_13182">
<rect width="11.7448" height="11.7448" fill="white"/>
</clipPath>
</defs>
</svg>
