<svg width="22" height="22" viewBox="0 0 22 22" fill="none" xmlns="http://www.w3.org/2000/svg">
<path d="M10.941 3.39014C8.02825 3.39014 5.66105 5.75734 5.66105 8.67014V11.2133C5.66105 11.7501 5.43225 12.5685 5.15945 13.0261L4.14745 14.7069C3.52265 15.7453 3.95385 16.8981 5.09785 17.2853C8.89065 18.5525 12.9826 18.5525 16.7754 17.2853C17.8402 16.9333 18.3066 15.6749 17.7258 14.7069L16.7138 13.0261C16.4498 12.5685 16.221 11.7501 16.221 11.2133V8.67014C16.221 5.76614 13.845 3.39014 10.941 3.39014Z" stroke="#8C8E9D" stroke-width="1.32" stroke-miterlimit="10" stroke-linecap="round"/>
<path d="M12.569 3.64493C12.2962 3.56573 12.0146 3.50413 11.7242 3.46893C10.8794 3.36333 10.0698 3.42493 9.31299 3.64493C9.56819 2.99373 10.2018 2.53613 10.941 2.53613C11.6802 2.53613 12.3138 2.99373 12.569 3.64493Z" stroke="#8C8E9D" stroke-width="1.32" stroke-miterlimit="10" stroke-linecap="round" stroke-linejoin="round"/>
<path d="M13.581 17.6021C13.581 19.0541 12.393 20.2421 10.941 20.2421C10.2194 20.2421 9.55062 19.9429 9.07542 19.4677C8.60022 18.9925 8.30103 18.3237 8.30103 17.6021" stroke="#8C8E9D" stroke-width="1.32" stroke-miterlimit="10"/>
</svg>
