<svg width="21" height="21" viewBox="0 0 21 21" fill="none" xmlns="http://www.w3.org/2000/svg">
<path fill-rule="evenodd" clip-rule="evenodd" d="M10.2178 6.93945C8.40316 6.93945 6.93213 8.41048 6.93213 10.2251C6.93213 12.0397 8.40316 13.5107 10.2178 13.5107C12.0324 13.5107 13.5034 12.0397 13.5034 10.2251C13.5034 8.41048 12.0324 6.93945 10.2178 6.93945ZM8.57495 10.2251C8.57495 9.31783 9.31045 8.58226 10.2178 8.58226C11.1251 8.58226 11.8606 9.31783 11.8606 10.2251C11.8606 11.1324 11.1251 11.8679 10.2178 11.8679C9.31045 11.8679 8.57495 11.1324 8.57495 10.2251Z" fill="#8C8E9D"/>
<path fill-rule="evenodd" clip-rule="evenodd" d="M10.2178 6.93945C8.40316 6.93945 6.93213 8.41048 6.93213 10.2251C6.93213 12.0397 8.40316 13.5107 10.2178 13.5107C12.0324 13.5107 13.5034 12.0397 13.5034 10.2251C13.5034 8.41048 12.0324 6.93945 10.2178 6.93945ZM8.57495 10.2251C8.57495 9.31783 9.31045 8.58226 10.2178 8.58226C11.1251 8.58226 11.8606 9.31783 11.8606 10.2251C11.8606 11.1324 11.1251 11.8679 10.2178 11.8679C9.31045 11.8679 8.57495 11.1324 8.57495 10.2251Z" fill="#8C8E9D"/>
<path fill-rule="evenodd" clip-rule="evenodd" d="M9.20661 1.20593C9.39159 1.19175 9.59933 1.19184 9.7687 1.1919H10.6696C10.839 1.19184 11.0467 1.19175 11.2317 1.20593C11.4504 1.22269 11.7534 1.2653 12.0783 1.41316C12.4891 1.60005 12.8407 1.89614 13.0947 2.26915C13.2957 2.56427 13.3891 2.85566 13.4429 3.06824C13.4883 3.24816 13.5235 3.45282 13.5522 3.61974L13.6685 4.29383L13.6708 4.29508C13.6994 4.31089 13.7278 4.32688 13.7562 4.34307L13.7583 4.34425L14.5279 4.06572C14.684 4.00915 14.876 3.93958 15.0519 3.89058C15.2602 3.83256 15.5545 3.77021 15.9046 3.79598C16.348 3.8286 16.7743 3.98056 17.1383 4.23573C17.4257 4.43724 17.6142 4.67168 17.7388 4.8484C17.8442 4.9977 17.9489 5.17303 18.0341 5.31561L18.4462 6.00538C18.5364 6.15604 18.6463 6.33978 18.7312 6.51074C18.8311 6.71201 18.953 7.00315 18.9899 7.36944C19.0363 7.83071 18.9517 8.2957 18.7456 8.711C18.582 9.04079 18.3652 9.27021 18.2007 9.4234C18.0611 9.55343 17.8934 9.68667 17.756 9.79583L17.2011 10.2274L17.756 10.659C17.8934 10.7682 18.0611 10.9014 18.2007 11.0315C18.3652 11.1846 18.582 11.414 18.7456 11.7438C18.9516 12.1591 19.0363 12.6241 18.9898 13.0854C18.953 13.4517 18.831 13.7428 18.7311 13.9441C18.6463 14.115 18.5363 14.2988 18.4462 14.4494L18.0339 15.1393C17.9488 15.2819 17.8441 15.4572 17.7388 15.6064C17.6141 15.7832 17.4257 16.0176 17.1382 16.2191C16.7743 16.4743 16.3479 16.6263 15.9046 16.6589C15.5545 16.6847 15.2602 16.6222 15.0519 16.5642C14.8759 16.5152 14.6839 16.4457 14.5278 16.3891L13.7582 16.1106L13.7562 16.1118C13.7278 16.128 13.6994 16.1439 13.6708 16.1598L13.6685 16.161L13.5522 16.8351C13.5235 17.002 13.4883 17.2067 13.4429 17.3866C13.3891 17.5991 13.2957 17.8906 13.0947 18.1857C12.8407 18.5587 12.4891 18.8548 12.0783 19.0417C11.7534 19.1896 11.4504 19.2322 11.2317 19.2489C11.0467 19.2631 10.839 19.263 10.6696 19.2629H9.7687C9.59933 19.263 9.39159 19.2631 9.20661 19.2489C8.98795 19.2322 8.68493 19.1896 8.35994 19.0417C7.94918 18.8548 7.59763 18.5587 7.34362 18.1857C7.14266 17.8906 7.04916 17.5991 6.99548 17.3866C6.95004 17.2067 6.91482 17.002 6.88609 16.8351L6.7698 16.161L6.76753 16.1598C6.73893 16.1439 6.71047 16.128 6.68214 16.1117L6.68005 16.1106L5.91052 16.3891C5.75439 16.4456 5.56241 16.5152 5.38641 16.5642C5.17807 16.6222 4.8838 16.6846 4.5337 16.6589C4.09035 16.6263 3.66408 16.4743 3.30005 16.2191C3.01261 16.0176 2.82413 15.7832 2.69948 15.6064C2.59417 15.4572 2.48949 15.2819 2.40435 15.1393L1.99207 14.4494C1.90196 14.2988 1.79205 14.115 1.7072 13.9441C1.6073 13.7428 1.48527 13.4517 1.44844 13.0854C1.40205 12.6241 1.48673 12.1591 1.69273 11.7438C1.85633 11.414 2.07315 11.1846 2.23759 11.0315C2.37726 10.9014 2.54487 10.7682 2.68231 10.659L3.21947 10.2318V10.223L2.68228 9.79583C2.54483 9.68667 2.37723 9.55343 2.23756 9.4234C2.07312 9.27021 1.85629 9.04079 1.6927 8.711C1.4867 8.29571 1.40202 7.83072 1.4484 7.36946C1.48523 7.00317 1.60727 6.71203 1.70716 6.51075C1.79201 6.33979 1.90192 6.15606 1.99204 6.0054L2.40431 5.31558C2.48944 5.17301 2.59413 4.9977 2.69944 4.84841C2.82409 4.67169 3.01257 4.43725 3.30002 4.23575C3.66404 3.98056 4.09031 3.82861 4.53367 3.79599C4.88376 3.77022 5.17804 3.83257 5.38637 3.89059C5.56236 3.9396 5.75434 4.00917 5.91047 4.06574L6.68005 4.34426L6.68212 4.34307C6.71046 4.32689 6.73893 4.31089 6.76753 4.29508L6.7698 4.29383L6.88609 3.61974C6.91482 3.45283 6.95004 3.24816 6.99548 3.06824C7.04916 2.85566 7.14266 2.56427 7.34362 2.26915C7.59763 1.89614 7.94918 1.60005 8.35994 1.41316C8.68493 1.2653 8.98795 1.22269 9.20661 1.20593ZM11.939 3.93236C11.871 3.53812 11.837 3.34101 11.7368 3.19381C11.6521 3.06947 11.535 2.97077 11.3981 2.90848C11.2359 2.83473 11.0359 2.83473 10.6359 2.83473H9.80246C9.40244 2.83473 9.20234 2.83473 9.04028 2.90848C8.90335 2.97077 8.78621 3.06947 8.70153 3.19381C8.60132 3.34101 8.56727 3.53812 8.49925 3.93236L8.37109 4.6752C8.32536 4.94026 8.3025 5.07278 8.25406 5.17466C8.2065 5.27469 8.16762 5.32936 8.08872 5.40709C8.00836 5.48626 7.85969 5.56845 7.56235 5.73283C7.54042 5.74495 7.51859 5.75722 7.49686 5.76963C7.21244 5.93207 7.07023 6.01329 6.96462 6.04079C6.8609 6.0678 6.79629 6.07336 6.68948 6.06446C6.58072 6.05541 6.45888 6.01132 6.21521 5.92313L5.38265 5.62182C5.01365 5.48828 4.82915 5.4215 4.65424 5.43438C4.50646 5.44524 4.36436 5.4959 4.24302 5.58096C4.09942 5.68163 3.99875 5.85006 3.79743 6.18691L3.4201 6.81826C3.20756 7.17389 3.10129 7.3517 3.08298 7.53382C3.06752 7.68757 3.09574 7.84256 3.16441 7.981C3.24574 8.14496 3.40787 8.2739 3.73213 8.53176L4.32756 9.00531C4.53441 9.16975 4.63783 9.25206 4.70267 9.34019C4.77276 9.43556 4.80265 9.49749 4.83362 9.61167C4.86229 9.7173 4.86229 9.88734 4.86229 10.2274C4.86229 10.5675 4.86229 10.7375 4.83362 10.8432C4.80264 10.9574 4.77276 11.0193 4.70268 11.1146C4.63783 11.2028 4.53441 11.285 4.32755 11.4496L3.73217 11.923C3.40791 12.181 3.24578 12.3098 3.16445 12.4739C3.09578 12.6123 3.06755 12.7673 3.08301 12.921C3.10133 13.1032 3.20759 13.2809 3.42013 13.6366L3.79747 14.2679C3.99879 14.6048 4.09945 14.7732 4.24306 14.8739C4.3644 14.959 4.50649 15.0096 4.65428 15.0205C4.82918 15.0333 5.01369 14.9665 5.3827 14.833L6.21523 14.5317C6.45888 14.4435 6.58073 14.3994 6.68948 14.3904C6.7963 14.3815 6.8609 14.387 6.96462 14.414C7.07024 14.4416 7.21244 14.5228 7.49686 14.6852C7.5186 14.6976 7.54042 14.7099 7.56235 14.722C7.85969 14.8864 8.00836 14.9686 8.08871 15.0478C8.16762 15.1255 8.2065 15.1802 8.25406 15.2802C8.3025 15.3821 8.32536 15.5146 8.37109 15.7796L8.49925 16.5224C8.56727 16.9167 8.60132 17.1139 8.70153 17.261C8.78621 17.3853 8.90335 17.4841 9.04028 17.5463C9.20234 17.6201 9.40244 17.6201 9.80246 17.6201H10.6359C11.0359 17.6201 11.2359 17.6201 11.3981 17.5463C11.535 17.4841 11.6521 17.3853 11.7368 17.261C11.837 17.1139 11.871 16.9167 11.939 16.5224L12.0673 15.7796C12.1129 15.5146 12.1358 15.3821 12.1842 15.2802C12.2318 15.1802 12.2707 15.1255 12.3496 15.0478C12.43 14.9686 12.5787 14.8864 12.8759 14.722C12.8979 14.7099 12.9197 14.6976 12.9414 14.6852C13.2259 14.5228 13.368 14.4416 13.4737 14.414C13.5774 14.387 13.642 14.3815 13.7488 14.3904C13.8576 14.3994 13.9794 14.4435 14.223 14.5317L15.0556 14.833C15.4246 14.9666 15.6092 15.0334 15.784 15.0205C15.9318 15.0096 16.0739 14.959 16.1952 14.8739C16.3388 14.7732 16.4395 14.6048 16.6409 14.2679L17.0182 13.6366C17.2307 13.281 17.337 13.1032 17.3553 12.921C17.3708 12.7673 17.3425 12.6123 17.2738 12.4739C17.1925 12.3099 17.0304 12.181 16.7062 11.923L16.1108 11.4496C15.9039 11.285 15.8005 11.2028 15.7357 11.1146C15.6656 11.0193 15.6357 10.9574 15.6047 10.8432C15.576 10.7376 15.576 10.5675 15.576 10.2274C15.576 9.88734 15.576 9.7173 15.6047 9.61167C15.6357 9.49749 15.6656 9.43556 15.7357 9.34019C15.8005 9.25206 15.9039 9.16975 16.1107 9.00531L16.7062 8.53176C17.0305 8.27389 17.1926 8.14495 17.2739 7.98098C17.3426 7.84255 17.3708 7.68756 17.3553 7.5338C17.337 7.35169 17.2308 7.17388 17.0182 6.81825L16.6409 6.1869C16.4395 5.85005 16.3389 5.68162 16.1953 5.58095C16.0739 5.49589 15.9319 5.44524 15.784 5.43436C15.6092 5.42149 15.4247 5.48826 15.0556 5.62181L14.2231 5.92312C13.9794 6.01131 13.8576 6.0554 13.7488 6.06446C13.642 6.07335 13.5774 6.06779 13.4737 6.04078C13.368 6.01328 13.2259 5.93206 12.9415 5.76963C12.9197 5.75722 12.8979 5.74495 12.876 5.73283C12.5787 5.56845 12.43 5.48626 12.3496 5.40709C12.2707 5.32936 12.2318 5.27469 12.1842 5.17466C12.1358 5.07278 12.1129 4.94025 12.0673 4.6752L11.939 3.93236Z" fill="#8C8E9D"/>
</svg>
