<svg width="26" height="26" viewBox="0 0 26 26" fill="none" xmlns="http://www.w3.org/2000/svg">
<path fill-rule="evenodd" clip-rule="evenodd" d="M9.77 3.75C9.73958 3.31964 9.87996 2.89463 10.1607 2.56706C10.4415 2.23949 10.8401 2.03576 11.27 2H14.77C14.9617 2.00711 15.1498 2.0544 15.322 2.13881C15.4943 2.22322 15.6469 2.34287 15.77 2.49C16.0775 2.83719 16.245 3.28625 16.24 3.75C16.2704 4.18036 16.13 4.60537 15.8493 4.93294C15.5685 5.26051 15.1699 5.46424 14.74 5.5H11.24C11.0485 5.49167 10.8609 5.44384 10.6888 5.35952C10.5167 5.2752 10.3639 5.1562 10.24 5.01C9.93251 4.66281 9.765 4.21375 9.77 3.75ZM17.77 3.88C17.7706 4.6871 17.4584 5.46302 16.899 6.04481C16.3396 6.62659 15.5765 6.96896 14.77 7H11.27C10.8613 6.99483 10.4583 6.90303 10.0877 6.73065C9.71711 6.55828 9.38727 6.30924 9.12 6C8.57022 5.38364 8.26752 4.58592 8.27 3.76C6.11 4 4 5 4 8.19V18.75C4 22 6 23.08 8.35 23.08H17C19.39 23.08 21.33 22 21.33 18.75V8.19C21.35 5 19.8 4.06 17.76 3.88H17.77ZM6.68 11.58C6.58151 11.58 6.48398 11.5994 6.39299 11.6371C6.30199 11.6748 6.21931 11.73 6.14967 11.7997C6.08003 11.8693 6.02478 11.952 5.98709 12.043C5.9494 12.134 5.93 12.2315 5.93 12.33C5.93 12.4285 5.9494 12.526 5.98709 12.617C6.02478 12.708 6.08003 12.7907 6.14967 12.8603C6.21931 12.93 6.30199 12.9852 6.39299 13.0229C6.48398 13.0606 6.58151 13.08 6.68 13.08H11C11.1989 13.08 11.3897 13.001 11.5303 12.8603C11.671 12.7197 11.75 12.5289 11.75 12.33C11.75 12.1311 11.671 11.9403 11.5303 11.7997C11.3897 11.659 11.1989 11.58 11 11.58H6.68ZM5.93 16.67C5.93 16.4711 6.00902 16.2803 6.14967 16.1397C6.29032 15.999 6.48109 15.92 6.68 15.92H15.35C15.5489 15.92 15.7397 15.999 15.8803 16.1397C16.021 16.2803 16.1 16.4711 16.1 16.67C16.1 16.8689 16.021 17.0597 15.8803 17.2003C15.7397 17.341 15.5489 17.42 15.35 17.42H6.68C6.48189 17.4174 6.29263 17.3376 6.15253 17.1975C6.01244 17.0574 5.93259 16.8681 5.93 16.67Z" fill="#787878"/>
</svg>
