<svg width="20" height="20" viewBox="0 0 20 20" fill="none" xmlns="http://www.w3.org/2000/svg">
<g clip-path="url(#clip0_836_1883)">
<path d="M0 9.6806C0 9.28429 0.164634 8.90579 0.454546 8.63557L9.53514 0.17196C9.80264 -0.0573201 10.1974 -0.0573198 10.4649 0.17196L19.5454 8.63557C19.8354 8.90579 20 9.28429 20 9.6806V17.8571C20 19.0406 19.0406 20 17.8571 20H2.14286C0.95939 20 0 19.0406 0 17.8571V9.6806Z" fill="#005BC3"/>
<path fill-rule="evenodd" clip-rule="evenodd" d="M11.4284 19.9999H8.57129V15.7142C8.57129 14.9252 9.21089 14.2856 9.99986 14.2856C10.7888 14.2856 11.4284 14.9252 11.4284 15.7142V19.9999Z" fill="#7BD2FF"/>
</g>
<defs>
<clipPath id="clip0_836_1883">
<rect width="20" height="20" fill="white"/>
</clipPath>
</defs>
</svg>
