<svg width="26" height="26" viewBox="0 0 26 26" fill="none" xmlns="http://www.w3.org/2000/svg">
<path d="M2.67969 11.7101C2.68009 11.0644 2.82593 10.427 3.10638 9.8453C3.38683 9.26363 3.79469 8.75258 4.29969 8.35011L10.1897 3.70011C10.9455 3.10232 11.881 2.7771 12.8447 2.7771C13.8084 2.7771 14.7438 3.10232 15.4997 3.70011L21.3897 8.35011C21.8945 8.75211 22.3016 9.26329 22.5805 9.84525C22.8593 10.4272 23.0027 11.0648 22.9997 11.7101V18.7101C22.9997 19.8444 22.5505 20.9326 21.7503 21.7365C20.95 22.5405 19.864 22.9948 18.7297 23.0001H17.1297C16.9883 23.0001 16.8484 22.9721 16.7179 22.9177C16.5874 22.8633 16.469 22.7836 16.3695 22.6832C16.27 22.5828 16.1914 22.4636 16.1382 22.3327C16.0851 22.2017 16.0584 22.0615 16.0597 21.9201V18.7301C16.0597 18.1625 15.8342 17.6182 15.4329 17.2169C15.0316 16.8156 14.4873 16.5901 13.9197 16.5901H11.7697C11.2021 16.5901 10.6578 16.8156 10.2565 17.2169C9.85515 17.6182 9.62969 18.1625 9.62969 18.7301V21.9401C9.62705 22.2222 9.51316 22.4918 9.31278 22.6903C9.1124 22.8888 8.84174 23.0001 8.55969 23.0001H6.99969C6.43679 23.0001 5.87942 22.8891 5.35949 22.6734C4.83956 22.4576 4.3673 22.1415 3.96973 21.743C3.57216 21.3445 3.25711 20.8715 3.04261 20.3511C2.82811 19.8306 2.71837 19.273 2.71969 18.7101L2.67969 11.7101Z" fill="#254281"/>
</svg>
