<svg width="20" height="20" viewBox="0 0 20 20" fill="none" xmlns="http://www.w3.org/2000/svg">
<g clip-path="url(#clip0_836_3639)">
<path d="M13.9287 11.4285H6.07153" stroke="#7BD2FF" stroke-width="1.42857" stroke-linecap="round" stroke-linejoin="round"/>
<path d="M2.85728 3.57153C2.4784 3.57153 2.11504 3.72205 1.84713 3.98995C1.57923 4.25786 1.42871 4.62122 1.42871 5.0001V17.143C1.42871 17.5218 1.57923 17.8852 1.84713 18.1531C2.11504 18.421 2.4784 18.5715 2.85728 18.5715H17.143C17.5219 18.5715 17.8853 18.421 18.1531 18.1531C18.421 17.8852 18.5716 17.5218 18.5716 17.143V5.0001C18.5716 4.62122 18.421 4.25786 18.1531 3.98995C17.8853 3.72205 17.5219 3.57153 17.143 3.57153H2.85728Z" stroke="#005BC3" stroke-width="1.42857" stroke-linecap="round" stroke-linejoin="round"/>
<path d="M5 1.42847V5.71418" stroke="#7BD2FF" stroke-width="1.42857" stroke-linecap="round" stroke-linejoin="round"/>
<path d="M15 1.42847V5.71418" stroke="#7BD2FF" stroke-width="1.42857" stroke-linecap="round" stroke-linejoin="round"/>
</g>
<defs>
<clipPath id="clip0_836_3639">
<rect width="20" height="20" fill="white"/>
</clipPath>
</defs>
</svg>
