<svg width="20" height="20" viewBox="0 0 20 20" fill="none" xmlns="http://www.w3.org/2000/svg">
<g clip-path="url(#clip0_836_3646)">
<path fill-rule="evenodd" clip-rule="evenodd" d="M5 0C5.78897 0 6.42857 0.639593 6.42857 1.42857V2.85714H13.5716V1.42857C13.5716 0.639593 14.2112 0 15.0001 0C15.7891 0 16.4287 0.639593 16.4287 1.42857V2.85714H17.8571C19.0406 2.85714 20 3.81653 20 5V6.42857H0V5C0 3.81653 0.95939 2.85714 2.14286 2.85714H3.57143V1.42857C3.57143 0.639593 4.21103 0 5 0Z" fill="#7BD2FF"/>
<path d="M0 6.42847H20V17.857C20 19.0405 19.0406 19.9999 17.8571 19.9999H2.14286C0.95939 19.9999 0 19.0405 0 17.857V6.42847Z" fill="#005BC3"/>
<path fill-rule="evenodd" clip-rule="evenodd" d="M11.0715 12.1429H8.92861H6.42861C5.83688 12.1429 5.35718 12.6226 5.35718 13.2143C5.35718 13.806 5.83688 14.2857 6.42861 14.2857H8.92861H11.0715H13.5715C14.1632 14.2857 14.6429 13.806 14.6429 13.2143C14.6429 12.6226 14.1632 12.1429 13.5715 12.1429H11.0715Z" fill="#7BD2FF"/>
</g>
<defs>
<clipPath id="clip0_836_3646">
<rect width="20" height="20" fill="white"/>
</clipPath>
</defs>
</svg>
