<svg width="13" height="15" viewBox="0 0 13 15" fill="none" xmlns="http://www.w3.org/2000/svg">
<path d="M11.5017 4.06146C9.57693 3.85203 7.64062 3.74414 5.7101 3.74414C4.56566 3.74414 3.42122 3.8076 2.27678 3.93453L1.09766 4.06146" stroke="#FF0000" stroke-width="1.133" stroke-linecap="round" stroke-linejoin="round"/>
<path d="M4.27734 3.42003L4.4045 2.58866C4.49698 1.98575 4.56634 1.53516 5.54317 1.53516H7.05753C8.03435 1.53516 8.10949 2.01114 8.19619 2.595L8.32335 3.42003" stroke="#FF0000" stroke-width="1.133" stroke-linecap="round" stroke-linejoin="round"/>
<path d="M10.2585 6.06738L9.88275 12.4582C9.81917 13.4546 9.76715 14.2288 8.15453 14.2288H4.44377C2.83114 14.2288 2.77912 13.4546 2.71554 12.4582L2.33984 6.06738" stroke="#FF0000" stroke-width="1.133" stroke-linecap="round" stroke-linejoin="round"/>
<path d="M5.33203 10.7383H7.25677" stroke="#FF0000" stroke-width="1.133" stroke-linecap="round" stroke-linejoin="round"/>
<path d="M4.85547 8.19775H7.74547" stroke="#FF0000" stroke-width="1.133" stroke-linecap="round" stroke-linejoin="round"/>
</svg>
