<svg width="142" height="43" viewBox="0 0 142 43" fill="none" xmlns="http://www.w3.org/2000/svg">
<g filter="url(#filter0_d_54_12712)">
<path d="M31.6738 19.6782C31.0616 19.066 31.149 18.2789 31.3677 17.4919C31.4551 17.2295 31.4988 16.9234 31.4114 16.6173C31.0178 15.699 30.3182 14.9994 29.4436 14.5621C26.9075 13.3815 24.1089 13.8625 22.3598 16.0926C21.3978 17.3607 20.6107 18.6725 19.9548 20.1155C19.0802 21.9521 17.8559 23.3513 16.1505 24.1822C13.7018 21.9958 12.1713 18.8037 12.1713 15.9177C12.1713 11.5012 21.9663 8.003 26.7325 7.17217C28.0006 6.95354 29.3562 6.55999 29.6623 5.29189C29.9684 3.98007 29.3999 2.62452 28.263 1.92488L27.5634 1.48761C26.9949 1.13779 26.339 0.962876 25.6831 1.0066C17.8121 1.53133 5 7.39081 5 15.3929C5 22.7829 10.291 30.3477 17.2874 32.0094C18.2494 32.3155 19.2552 32.4904 20.3483 32.5778C23.5842 32.7965 26.4265 31.8345 28.5691 29.2983C30.7555 26.6746 31.5426 23.5262 31.8487 20.203C31.8487 19.9843 31.8049 19.8094 31.6738 19.6782ZM26.6888 23.5262C26.2078 25.2316 24.9397 26.5872 23.2781 27.1994C22.9283 27.3305 22.5784 27.4617 22.1849 27.5929L22.5347 26.8058C20.567 26.8058 18.7304 26.1062 17.1562 25.013C17.5935 24.6194 18.0308 24.1822 18.4681 23.7449C19.6924 22.6517 20.8293 21.4273 22.1849 20.3779C23.0157 19.6782 24.1964 19.4596 25.2458 19.8094C26.6888 20.2467 27.2135 21.7771 26.6888 23.5262ZM29.8809 17.2732C29.6186 17.1858 29.4436 17.0109 29.3562 16.7485C29.3562 16.5299 29.6186 16.2675 29.8809 15.9177C30.187 16.3112 30.4057 16.5299 30.4494 16.7922C30.4494 16.9671 30.0558 17.3169 29.8809 17.2732Z" fill="url(#paint0_linear_54_12712)"/>
</g>
<g filter="url(#filter1_d_54_12712)">
<path d="M33.9457 18.1046L31.7593 19.0666C31.7156 18.4107 31.7156 17.8859 31.6719 17.1426L33.9457 18.1046Z" fill="url(#paint1_linear_54_12712)"/>
</g>
<path d="M11.9922 27.5936C12.6918 27.3749 13.3915 27.0688 14.0474 26.719C15.2717 25.8882 16.4087 25.0137 17.5018 24.0079C19.076 22.5649 20.4316 20.8158 22.4431 19.9413C23.2301 19.5914 24.1047 19.4603 24.9355 19.5477C26.2473 19.7226 27.1656 20.9033 26.9907 22.1714C26.9907 22.1714 26.9907 22.1714 26.9907 22.2151V22.2588C26.7283 24.8387 25.2416 26.4129 22.9241 27.3749C20.4753 28.3369 17.9391 28.3369 15.4029 28.1183C14.266 28.0308 13.1728 27.8997 12.0796 27.7685L11.9922 27.5936Z" fill="white"/>
<g filter="url(#filter2_d_54_12712)">
<path d="M74.7891 25.537H78.2435V11.9378L74.7891 12.2001V6.8654C76.1009 6.82167 77.4127 6.60303 78.6808 6.16576C80.1238 5.68476 81.4794 5.02885 82.7475 4.1543H87.0765V25.537H90.5309V31.5714H74.8328L74.7891 25.537Z" fill="url(#paint2_linear_54_12712)"/>
</g>
<g filter="url(#filter3_d_54_12712)">
<path d="M66.698 18.1907C66.698 26.7176 59.7016 33.5828 51.0873 33.5828C42.473 33.5828 35.4766 26.7176 35.4766 18.1907C35.4766 9.66389 42.473 2.79868 51.0873 2.79868C59.6141 2.71122 66.6105 9.57643 66.698 18.1033C66.698 18.147 66.698 18.147 66.698 18.1907ZM58.2148 18.1907C58.2586 14.2553 55.1102 10.9757 51.1747 10.932C47.2393 10.8883 43.9597 14.0366 43.916 17.9721C43.8722 21.9076 47.0206 25.1871 50.9561 25.2309H51.0873C54.979 25.2746 58.1711 22.1262 58.2148 18.2345V18.1907Z" fill="url(#paint3_linear_54_12712)"/>
</g>
<rect x="101" y="3.99902" width="41" height="27" rx="5.06689" fill="url(#paint4_linear_54_12712)"/>
<path d="M109.768 13.6703V15.6911H113.722V18.3093H109.768V20.541H114.249V23.2998H106.324V10.9114H114.249V13.6703H109.768ZM120.625 23.4228C119.184 23.4228 118.001 23.0831 117.075 22.4036C116.15 21.7125 115.652 20.7284 115.582 19.4515H119.254C119.29 19.885 119.418 20.2013 119.641 20.4004C119.864 20.5996 120.151 20.6991 120.502 20.6991C120.818 20.6991 121.076 20.623 121.275 20.4707C121.486 20.3067 121.591 20.0841 121.591 19.8029C121.591 19.4398 121.422 19.1586 121.082 18.9595C120.742 18.7603 120.192 18.5378 119.43 18.2917C118.622 18.0223 117.966 17.7646 117.462 17.5186C116.97 17.2608 116.537 16.8918 116.162 16.4115C115.799 15.9195 115.617 15.2811 115.617 14.4962C115.617 13.6996 115.816 13.0201 116.214 12.4578C116.613 11.8838 117.163 11.4503 117.866 11.1575C118.569 10.8646 119.366 10.7182 120.256 10.7182C121.697 10.7182 122.845 11.0579 123.7 11.7373C124.567 12.4051 125.03 13.3481 125.088 14.5665H121.345C121.334 14.1916 121.217 13.9104 120.994 13.723C120.783 13.5356 120.508 13.4418 120.168 13.4418C119.91 13.4418 119.7 13.518 119.536 13.6703C119.372 13.8226 119.29 14.0393 119.29 14.3204C119.29 14.5547 119.377 14.7597 119.553 14.9355C119.741 15.0995 119.969 15.2459 120.238 15.3748C120.508 15.4919 120.906 15.6442 121.433 15.8316C122.218 16.1011 122.863 16.3705 123.366 16.64C123.882 16.8977 124.321 17.2667 124.684 17.747C125.059 18.2156 125.246 18.8131 125.246 19.5394C125.246 20.2774 125.059 20.9393 124.684 21.525C124.321 22.1108 123.788 22.5735 123.085 22.9132C122.394 23.2529 121.574 23.4228 120.625 23.4228ZM131.522 23.4228C130.081 23.4228 128.898 23.0831 127.972 22.4036C127.047 21.7125 126.549 20.7284 126.479 19.4515H130.151C130.186 19.885 130.315 20.2013 130.538 20.4004C130.76 20.5996 131.047 20.6991 131.399 20.6991C131.715 20.6991 131.973 20.623 132.172 20.4707C132.383 20.3067 132.488 20.0841 132.488 19.8029C132.488 19.4398 132.318 19.1586 131.979 18.9595C131.639 18.7603 131.088 18.5378 130.327 18.2917C129.519 18.0223 128.863 17.7646 128.359 17.5186C127.867 17.2608 127.433 16.8918 127.058 16.4115C126.695 15.9195 126.514 15.2811 126.514 14.4962C126.514 13.6996 126.713 13.0201 127.111 12.4578C127.509 11.8838 128.06 11.4503 128.763 11.1575C129.466 10.8646 130.262 10.7182 131.153 10.7182C132.594 10.7182 133.742 11.0579 134.597 11.7373C135.464 12.4051 135.927 13.3481 135.985 14.5665H132.242C132.231 14.1916 132.113 13.9104 131.891 13.723C131.68 13.5356 131.405 13.4418 131.065 13.4418C130.807 13.4418 130.596 13.518 130.432 13.6703C130.268 13.8226 130.186 14.0393 130.186 14.3204C130.186 14.5547 130.274 14.7597 130.45 14.9355C130.637 15.0995 130.866 15.2459 131.135 15.3748C131.405 15.4919 131.803 15.6442 132.33 15.8316C133.115 16.1011 133.759 16.3705 134.263 16.64C134.778 16.8977 135.218 17.2667 135.581 17.747C135.956 18.2156 136.143 18.8131 136.143 19.5394C136.143 20.2774 135.956 20.9393 135.581 21.525C135.218 22.1108 134.685 22.5735 133.982 22.9132C133.291 23.2529 132.471 23.4228 131.522 23.4228Z" fill="white"/>
<defs>
<filter id="filter0_d_54_12712" x="0.2" y="0.2" width="36.4486" height="41.2074" filterUnits="userSpaceOnUse" color-interpolation-filters="sRGB">
<feFlood flood-opacity="0" result="BackgroundImageFix"/>
<feColorMatrix in="SourceAlpha" type="matrix" values="0 0 0 0 0 0 0 0 0 0 0 0 0 0 0 0 0 0 127 0" result="hardAlpha"/>
<feOffset dy="4"/>
<feGaussianBlur stdDeviation="2.4"/>
<feComposite in2="hardAlpha" operator="out"/>
<feColorMatrix type="matrix" values="0 0 0 0 0 0 0 0 0 0.494118 0 0 0 0 0.898039 0 0 0 0.1 0"/>
<feBlend mode="normal" in2="BackgroundImageFix" result="effect1_dropShadow_54_12712"/>
<feBlend mode="normal" in="SourceGraphic" in2="effect1_dropShadow_54_12712" result="shape"/>
</filter>
<filter id="filter1_d_54_12712" x="26.8719" y="16.3426" width="11.8738" height="11.5238" filterUnits="userSpaceOnUse" color-interpolation-filters="sRGB">
<feFlood flood-opacity="0" result="BackgroundImageFix"/>
<feColorMatrix in="SourceAlpha" type="matrix" values="0 0 0 0 0 0 0 0 0 0 0 0 0 0 0 0 0 0 127 0" result="hardAlpha"/>
<feOffset dy="4"/>
<feGaussianBlur stdDeviation="2.4"/>
<feComposite in2="hardAlpha" operator="out"/>
<feColorMatrix type="matrix" values="0 0 0 0 0 0 0 0 0 0.494118 0 0 0 0 0.898039 0 0 0 0.1 0"/>
<feBlend mode="normal" in2="BackgroundImageFix" result="effect1_dropShadow_54_12712"/>
<feBlend mode="normal" in="SourceGraphic" in2="effect1_dropShadow_54_12712" result="shape"/>
</filter>
<filter id="filter2_d_54_12712" x="69.9891" y="3.3543" width="25.3419" height="37.017" filterUnits="userSpaceOnUse" color-interpolation-filters="sRGB">
<feFlood flood-opacity="0" result="BackgroundImageFix"/>
<feColorMatrix in="SourceAlpha" type="matrix" values="0 0 0 0 0 0 0 0 0 0 0 0 0 0 0 0 0 0 127 0" result="hardAlpha"/>
<feOffset dy="4"/>
<feGaussianBlur stdDeviation="2.4"/>
<feComposite in2="hardAlpha" operator="out"/>
<feColorMatrix type="matrix" values="0 0 0 0 0 0 0 0 0 0.494118 0 0 0 0 0.898039 0 0 0 0.1 0"/>
<feBlend mode="normal" in2="BackgroundImageFix" result="effect1_dropShadow_54_12712"/>
<feBlend mode="normal" in="SourceGraphic" in2="effect1_dropShadow_54_12712" result="shape"/>
</filter>
<filter id="filter3_d_54_12712" x="30.6766" y="1.99785" width="40.8214" height="40.3852" filterUnits="userSpaceOnUse" color-interpolation-filters="sRGB">
<feFlood flood-opacity="0" result="BackgroundImageFix"/>
<feColorMatrix in="SourceAlpha" type="matrix" values="0 0 0 0 0 0 0 0 0 0 0 0 0 0 0 0 0 0 127 0" result="hardAlpha"/>
<feOffset dy="4"/>
<feGaussianBlur stdDeviation="2.4"/>
<feComposite in2="hardAlpha" operator="out"/>
<feColorMatrix type="matrix" values="0 0 0 0 0 0 0 0 0 0.494118 0 0 0 0 0.898039 0 0 0 0.1 0"/>
<feBlend mode="normal" in2="BackgroundImageFix" result="effect1_dropShadow_54_12712"/>
<feBlend mode="normal" in="SourceGraphic" in2="effect1_dropShadow_54_12712" result="shape"/>
</filter>
<linearGradient id="paint0_linear_54_12712" x1="5" y1="16.8039" x2="31.8487" y2="16.8039" gradientUnits="userSpaceOnUse">
<stop stop-color="#7CC4FF"/>
<stop offset="1" stop-color="#048EFF"/>
</linearGradient>
<linearGradient id="paint1_linear_54_12712" x1="31.6719" y1="18.1046" x2="33.9457" y2="18.1046" gradientUnits="userSpaceOnUse">
<stop stop-color="#7CC4FF"/>
<stop offset="1" stop-color="#048EFF"/>
</linearGradient>
<linearGradient id="paint2_linear_54_12712" x1="74.7891" y1="17.8629" x2="90.5309" y2="17.8629" gradientUnits="userSpaceOnUse">
<stop stop-color="#7CC4FF"/>
<stop offset="1" stop-color="#048EFF"/>
</linearGradient>
<linearGradient id="paint3_linear_54_12712" x1="35.4766" y1="18.1903" x2="66.698" y2="18.1903" gradientUnits="userSpaceOnUse">
<stop stop-color="#7CC4FF"/>
<stop offset="1" stop-color="#048EFF"/>
</linearGradient>
<linearGradient id="paint4_linear_54_12712" x1="139.889" y1="10.6012" x2="108.592" y2="37.2982" gradientUnits="userSpaceOnUse">
<stop stop-color="#74AD23"/>
<stop offset="1" stop-color="#5D9312"/>
</linearGradient>
</defs>
</svg>
