<svg width="19" height="19" viewBox="0 0 19 19" fill="none" xmlns="http://www.w3.org/2000/svg">
<path d="M8.36207 13.3952L8.67873 12.9729C9.0904 12.4241 9.91373 12.4241 10.3254 12.9729L10.6421 13.3952C11.1509 14.0736 10.6668 15.0418 9.81873 15.0418H9.1854C8.33732 15.0418 7.85322 14.0736 8.36207 13.3952Z" fill="#5461FF"/>
<path fill-rule="evenodd" clip-rule="evenodd" d="M3.03619 6.75619L7.52383 3.16608C8.68036 2.24086 10.3237 2.24086 11.4802 3.16608L15.9679 6.75619C16.8637 7.47285 17.3019 8.61795 17.1133 9.74954L16.2764 14.7708C16.0219 16.2977 14.7008 17.4169 13.1528 17.4169H5.85127C4.30328 17.4169 2.98218 16.2977 2.72769 14.7708L1.89081 9.74954C1.70221 8.61795 2.14038 7.47285 3.03619 6.75619ZM3.77802 7.68348L8.26566 4.09336C8.98849 3.5151 10.0156 3.5151 10.7384 4.09337L15.226 7.68348C15.7859 8.13138 16.0598 8.84707 15.9419 9.55432L15.105 14.5756C14.946 15.5299 14.1203 16.2294 13.1528 16.2294H5.85127C4.88377 16.2294 4.05809 15.5299 3.89903 14.5756L3.06216 9.55432C2.94428 8.84707 3.21814 8.13138 3.77802 7.68348Z" fill="#5461FF"/>
</svg>
