<svg width="80" height="80" viewBox="0 0 80 80" fill="none" xmlns="http://www.w3.org/2000/svg">
<path d="M35.2087 56.4008L36.542 54.6227C38.2754 52.312 41.742 52.312 43.4754 54.6227L44.8088 56.4008C46.9512 59.2573 44.9128 63.3339 41.342 63.3339H38.6754C35.1045 63.3339 33.0662 59.2573 35.2087 56.4008Z" fill="#918D9A"/>
<path fill-rule="evenodd" clip-rule="evenodd" d="M12.784 28.4471L31.6793 13.3309C36.5489 9.4352 43.4682 9.4352 48.3377 13.3309L67.2333 28.4471C71.0051 31.4646 72.8501 36.2861 72.056 41.0507L68.5322 62.1928C67.4606 68.6219 61.8981 73.3343 55.3802 73.3343H24.6369C18.1191 73.3343 12.5566 68.6219 11.485 62.1928L7.96132 41.0507C7.16721 36.2861 9.01214 31.4646 12.784 28.4471ZM15.9075 32.3515L34.8028 17.2352C37.8463 14.8004 42.171 14.8004 45.2143 17.2352L64.1095 32.3515C66.467 34.2374 67.6202 37.2508 67.1238 40.2287L63.6 61.371C62.9305 65.3891 59.4539 68.3343 55.3802 68.3343H24.6369C20.5633 68.3343 17.0867 65.3891 16.417 61.371L12.8933 40.2287C12.397 37.2508 13.5501 34.2374 15.9075 32.3515Z" fill="#918D9A"/>
</svg>
