<svg width="147" height="33" viewBox="0 0 147 33" fill="none" xmlns="http://www.w3.org/2000/svg">
<path d="M26.6738 18.6782C26.0616 18.066 26.149 17.2789 26.3677 16.4919C26.4551 16.2295 26.4988 15.9234 26.4114 15.6173C26.0178 14.699 25.3182 13.9994 24.4436 13.5621C21.9075 12.3815 19.1089 12.8625 17.3598 15.0926C16.3978 16.3607 15.6107 17.6725 14.9548 19.1155C14.0802 20.9521 12.8559 22.3513 11.1505 23.1822C8.70177 20.9958 7.1713 17.8037 7.1713 14.9177C7.1713 10.5012 16.9663 7.003 21.7325 6.17217C23.0006 5.95354 24.3562 5.55999 24.6623 4.29189C24.9684 2.98007 24.3999 1.62452 23.263 0.92488L22.5634 0.487606C21.9949 0.137786 21.339 -0.0371239 20.6831 0.00660351C12.8121 0.531333 0 6.39081 0 14.3929C0 21.7829 5.29102 29.3477 12.2874 31.0094C13.2494 31.3155 14.2552 31.4904 15.3483 31.5778C18.5842 31.7965 21.4265 30.8345 23.5691 28.2983C25.7555 25.6746 26.5426 22.5262 26.8487 19.203C26.8487 18.9843 26.8049 18.8094 26.6738 18.6782ZM21.6888 22.5262C21.2078 24.2316 19.9397 25.5872 18.2781 26.1994C17.9283 26.3305 17.5784 26.4617 17.1849 26.5929L17.5347 25.8058C15.567 25.8058 13.7304 25.1062 12.1562 24.013C12.5935 23.6194 13.0308 23.1822 13.4681 22.7449C14.6924 21.6517 15.8293 20.4273 17.1849 19.3779C18.0157 18.6782 19.1964 18.4596 20.2458 18.8094C21.6888 19.2467 22.2135 20.7771 21.6888 22.5262ZM24.8809 16.2732C24.6186 16.1858 24.4436 16.0109 24.3562 15.7485C24.3562 15.5299 24.6186 15.2675 24.8809 14.9177C25.187 15.3112 25.4057 15.5299 25.4494 15.7922C25.4494 15.9671 25.0558 16.3169 24.8809 16.2732Z" fill="#480E6E"/>
<path d="M28.9457 17.1046L26.7593 18.0666C26.7156 17.4107 26.7156 16.8859 26.6719 16.1426L28.9457 17.1046Z" fill="#480E6E"/>
<path d="M6.99219 26.5936C7.69183 26.3749 8.39147 26.0688 9.04738 25.719C10.2717 24.8882 11.4087 24.0137 12.5018 23.0079C14.076 21.5649 15.4316 19.8158 17.4431 18.9413C18.2301 18.5914 19.1047 18.4603 19.9355 18.5477C21.2473 18.7226 22.1656 19.9033 21.9907 21.1714C21.9907 21.1714 21.9907 21.1714 21.9907 21.2151V21.2588C21.7283 23.8387 20.2416 25.4129 17.9241 26.3749C15.4753 27.3369 12.9391 27.3369 10.4029 27.1183C9.26602 27.0308 8.17283 26.8997 7.07964 26.7685L6.99219 26.5936Z" fill="url(#paint0_linear_1243_69382)"/>
<path d="M69.7891 24.538H73.2435V10.9388L69.7891 11.2011V5.86638C71.1009 5.82265 72.4127 5.60401 73.6808 5.16674C75.1238 4.68573 76.4794 4.02982 77.7475 3.15527H82.0765V24.538H85.5309V30.5724H69.8328L69.7891 24.538Z" fill="#480E6E"/>
<path d="M61.698 17.1907C61.698 25.7176 54.7016 32.5828 46.0873 32.5828C37.473 32.5828 30.4766 25.7176 30.4766 17.1907C30.4766 8.66389 37.473 1.79868 46.0873 1.79868C54.6141 1.71122 61.6105 8.57643 61.698 17.1033C61.698 17.147 61.698 17.147 61.698 17.1907ZM53.2148 17.1907C53.2586 13.2553 50.1102 9.97571 46.1747 9.93198C42.2393 9.88826 38.9597 13.0366 38.916 16.9721C38.8722 20.9076 42.0206 24.1871 45.9561 24.2309H46.0873C49.979 24.2746 53.1711 21.1262 53.2148 17.2345V17.1907Z" fill="#480E6E"/>
<rect x="95.5195" y="3.26855" width="51.4794" height="26.7127" rx="5.06689" fill="url(#paint1_linear_1243_69382)"/>
<path d="M100.902 16.0793C100.902 14.8609 101.154 13.7773 101.658 12.8284C102.173 11.8678 102.9 11.1239 103.837 10.5968C104.774 10.0579 105.852 9.78844 107.07 9.78844C108.616 9.78844 109.917 10.2043 110.971 11.0361C112.025 11.8561 112.705 12.9749 113.009 14.3923H109.302C109.079 13.9238 108.769 13.5665 108.37 13.3204C107.984 13.0744 107.533 12.9514 107.017 12.9514C106.221 12.9514 105.582 13.2384 105.102 13.8125C104.633 14.3748 104.399 15.1304 104.399 16.0793C104.399 17.0399 104.633 17.8072 105.102 18.3812C105.582 18.9435 106.221 19.2247 107.017 19.2247C107.533 19.2247 107.984 19.1017 108.37 18.8557C108.769 18.6097 109.079 18.2524 109.302 17.7838H113.009C112.705 19.2013 112.025 20.3259 110.971 21.1576C109.917 21.9776 108.616 22.3877 107.07 22.3877C105.852 22.3877 104.774 22.1241 103.837 21.5969C102.9 21.058 102.173 20.3142 101.658 19.3653C101.154 18.4046 100.902 17.3093 100.902 16.0793ZM120.914 22.2998L118.453 17.731H118.084V22.2998H114.64V9.91145H120.07C121.066 9.91145 121.909 10.0872 122.6 10.4386C123.292 10.7783 123.813 11.2528 124.164 11.862C124.516 12.4594 124.692 13.133 124.692 13.8828C124.692 14.7262 124.457 15.4701 123.989 16.1144C123.532 16.747 122.858 17.198 121.968 17.4675L124.762 22.2998H120.914ZM118.084 15.3764H119.789C120.257 15.3764 120.609 15.2651 120.843 15.0425C121.078 14.8199 121.195 14.4978 121.195 14.076C121.195 13.6777 121.072 13.3673 120.826 13.1447C120.591 12.9104 120.246 12.7933 119.789 12.7933H118.084V15.3764ZM140.72 9.91145V22.2998H137.276V15.4642L134.938 22.2998H132.057L129.702 15.4115V22.2998H126.258V9.91145H130.422L133.533 17.9595L136.573 9.91145H140.72Z" fill="white"/>
<defs>
<linearGradient id="paint0_linear_1243_69382" x1="21.2388" y1="20.6526" x2="11.0138" y2="30.5514" gradientUnits="userSpaceOnUse">
<stop stop-color="#74AD23"/>
<stop offset="1" stop-color="#5D9312"/>
</linearGradient>
<linearGradient id="paint1_linear_1243_69382" x1="144.349" y1="9.8005" x2="113.09" y2="43.6392" gradientUnits="userSpaceOnUse">
<stop stop-color="#74AD23"/>
<stop offset="1" stop-color="#5D9312"/>
</linearGradient>
</defs>
</svg>
