<svg width="13" height="12" viewBox="0 0 13 12" fill="none" xmlns="http://www.w3.org/2000/svg">
<g clip-path="url(#clip0_2490_53941)">
<path d="M3.54102 10.9302V2.12156C3.54102 1.86198 3.64413 1.61304 3.82768 1.42949C4.01123 1.24594 4.26017 1.14282 4.51975 1.14282H8.43469C8.69427 1.14282 8.94322 1.24594 9.12676 1.42949C9.31031 1.61304 9.41343 1.86198 9.41343 2.12156V10.9302H3.54102Z" stroke="#727272" stroke-width="0.978736" stroke-linecap="round" stroke-linejoin="round"/>
<path d="M3.54146 6.03735H2.56272C2.30314 6.03735 2.0542 6.14047 1.87065 6.32402C1.6871 6.50757 1.58398 6.75651 1.58398 7.01609V9.9523C1.58398 10.2119 1.6871 10.4608 1.87065 10.6444C2.0542 10.8279 2.30314 10.931 2.56272 10.931H3.54146" stroke="#727272" stroke-width="0.978736" stroke-linecap="round" stroke-linejoin="round"/>
<path d="M9.41602 4.56958H10.3948C10.6543 4.56958 10.9033 4.6727 11.0868 4.85625C11.2704 5.03979 11.3735 5.28874 11.3735 5.54832V9.95263C11.3735 10.2122 11.2704 10.4611 11.0868 10.6447C10.9033 10.8282 10.6543 10.9314 10.3948 10.9314H9.41602" stroke="#727272" stroke-width="0.978736" stroke-linecap="round" stroke-linejoin="round"/>
<path d="M5.50195 3.10181H7.45942" stroke="#727272" stroke-width="0.978736" stroke-linecap="round" stroke-linejoin="round"/>
<path d="M5.50195 5.05981H7.45942" stroke="#727272" stroke-width="0.978736" stroke-linecap="round" stroke-linejoin="round"/>
<path d="M5.50195 7.01489H7.45942" stroke="#727272" stroke-width="0.978736" stroke-linecap="round" stroke-linejoin="round"/>
<path d="M5.50195 8.97388H7.45942" stroke="#727272" stroke-width="0.978736" stroke-linecap="round" stroke-linejoin="round"/>
</g>
<defs>
<clipPath id="clip0_2490_53941">
<rect width="11.7448" height="11.7448" fill="white" transform="translate(0.607422 0.165283)"/>
</clipPath>
</defs>
</svg>
