<svg width="47" height="48" viewBox="0 0 47 48" fill="none" xmlns="http://www.w3.org/2000/svg">
<g clip-path="url(#clip0_626_50358)">
<rect y="0.5" width="47" height="47" rx="8" fill="#E7F8FF"/>
<path d="M19.3845 38.4767C11.7173 36.0528 3.50824 45.7862 3.2584 53.6018C3.2584 53.6018 9.97543 60.5806 16.6819 61.8532C24.3287 63.3041 38.2933 58.6344 38.2933 58.6344C39.3831 46.6283 34.9959 42.4748 27.1978 38.7255C25.8748 39.3354 24.0986 39.967 19.3845 38.4767Z" fill="white" stroke="#414141" stroke-width="0.78173"/>
<path d="M33.1424 25.2709C32.947 23.4925 32.82 19.3102 32.7711 16.9748C32.7533 16.5696 32.5778 16.1874 32.282 15.9099C31.9862 15.6323 31.5936 15.4815 31.1881 15.4895C29.693 15.4895 27.8364 15.3723 25.3251 15.3039C21.5044 15.1866 20.0094 16.2322 19.5501 17.9031C19.0908 19.5741 20.1071 24.3328 18.5241 24.4306C17.7814 24.5185 16.8531 21.3525 15.0845 22.0072C13.3158 22.6619 13.5894 24.9387 14.4298 25.8279C14.8785 26.3761 15.4131 26.848 16.0128 27.2252C16.0128 33.2739 19.7358 34.5833 19.7358 34.5833C19.8758 35.8688 19.7494 37.1695 19.3644 38.404C21.7009 39.5667 24.3746 39.8611 26.9081 39.2346C26.5209 38.0873 26.5209 36.8446 26.9081 35.6972C33.3281 34.2999 33.416 27.7822 33.1424 25.2709Z" fill="white"/>
<path d="M26.7025 7.0079C20.0871 6.82224 15.9537 9.93939 14.4098 12.9686C12.8659 15.9978 10.0321 25.6717 16.5498 31.691C17.1781 32.918 18.1489 33.9363 19.3444 34.6225C19.4422 34.7202 19.5301 34.7202 19.5301 34.9059C19.6573 36.0079 19.5303 37.1244 19.1588 38.1696C19.1381 38.2116 19.1266 38.2574 19.1249 38.3041C19.1232 38.3509 19.1314 38.3974 19.1489 38.4408C19.1664 38.4841 19.1929 38.5233 19.2266 38.5557C19.2603 38.5881 19.3004 38.6131 19.3444 38.6289C19.4422 38.7266 22.0512 40.1239 27.0738 39.6549C27.1911 39.6549 27.5526 39.3911 27.3572 39.1859C27.0823 38.1239 27.0192 37.0182 27.1715 35.9319C33.1127 35.2674 33.7576 28.6521 33.3179 22.7011C33.3179 22.4275 33.1322 18.1378 33.0345 16.3691C33.4691 16.295 33.8841 16.1329 34.2537 15.8926C34.6234 15.6523 34.9401 15.3389 35.1842 14.9718C36.523 12.0989 33.2299 7.19357 26.7025 7.0079ZM30.9922 33.0004C29.3604 35.2968 26.9859 35.5117 24.5625 35.3261C24.464 35.3261 24.3696 35.3652 24.2999 35.4348C24.2303 35.5045 24.1912 35.5989 24.1912 35.6974C24.1912 35.7959 24.2303 35.8903 24.2999 35.96C24.3696 36.0296 24.464 36.0687 24.5625 36.0687H26.3312C26.1881 37.0969 26.2512 38.1433 26.5168 39.1468C24.264 39.4149 21.9805 39.0776 19.9014 38.1696C20.2153 37.112 20.3117 36.0018 20.1848 34.9059C20.1866 34.7262 20.1345 34.5501 20.0352 34.4003C19.9359 34.2505 19.794 34.1339 19.6278 34.0655C18.4036 33.2669 17.4338 32.1343 16.8331 30.8018C16.4844 29.4369 16.359 28.0245 16.4618 26.6196C15.8449 26.5262 15.2842 26.2082 14.8874 25.7266C14.4907 25.2451 14.2858 24.6339 14.3121 24.0105C14.3121 22.1441 16.5498 22.2419 17.0188 23.7272C17.4878 25.2124 19.1588 25.3102 19.6278 24.5675C20.5561 23.3558 19.2272 19.4179 20.5561 18.1378C21.8851 16.8577 22.9893 16.5646 25.3149 16.7014C27.5902 16.9519 29.8878 16.9191 32.155 16.6036C32.3016 19.3495 32.4384 20.6491 32.4384 22.8477C32.7707 25.2711 32.9954 30.1667 31.002 33.0004H30.9922Z" fill="#414141"/>
<path d="M27.9268 27.6876C27.8546 27.688 27.7834 27.6714 27.7189 27.6391C27.6544 27.6069 27.5984 27.5599 27.5554 27.5019C27.5348 27.46 27.5233 27.4142 27.5216 27.3674C27.5198 27.3207 27.528 27.2741 27.5455 27.2308C27.5631 27.1874 27.5896 27.1483 27.6233 27.1159C27.6569 27.0834 27.6971 27.0585 27.7411 27.0427C28.2837 26.7903 28.7872 26.4612 29.2362 26.0655C29.2362 26.0655 27.7802 25.7528 27.5359 25.6453C27.4071 25.5902 27.2883 25.5143 27.1841 25.4206C26.7151 24.9516 26.9007 22.7139 27.0864 21.5119C27.0932 21.4157 27.1345 21.3252 27.2027 21.257C27.271 21.1888 27.3615 21.1474 27.4577 21.1406C27.555 21.1472 27.6468 21.1881 27.7166 21.2562C27.7864 21.3242 27.8298 21.4149 27.8388 21.5119C27.6674 22.6208 27.6346 23.7467 27.7411 24.8636C28.0023 24.9919 28.2905 25.0556 28.5815 25.0493C29.3241 25.147 29.9788 25.3327 29.9788 25.8896C29.9788 26.8473 28.0831 27.541 27.9268 27.6876Z" fill="#414141"/>
<path d="M28.4823 24.247C27.7885 23.8952 29.4595 21.8529 31.834 22.8496C31.8806 22.8645 31.9236 22.8889 31.9602 22.9214C31.9969 22.9538 32.0263 22.9935 32.0467 23.038C32.0672 23.0825 32.0781 23.1307 32.0788 23.1796C32.0795 23.2286 32.07 23.2771 32.0509 23.3221C32.0318 23.3672 32.0035 23.4077 31.9678 23.4412C31.9321 23.4747 31.8899 23.5004 31.8437 23.5166C31.7975 23.5328 31.7485 23.5393 31.6997 23.5355C31.6509 23.5317 31.6035 23.5177 31.5604 23.4945C31.358 23.365 31.132 23.2768 30.8953 23.2351C30.6586 23.1935 30.416 23.1992 30.1816 23.2519C29.9471 23.3046 29.7255 23.4032 29.5294 23.5422C29.3333 23.6811 29.1667 23.8576 29.0393 24.0613C28.8537 24.247 28.58 24.3838 28.4823 24.247Z" fill="#414141"/>
<path d="M25.131 24.1509C25.0431 24.1509 24.8574 24.0629 24.8574 23.9652C24.5767 23.5817 24.166 23.3137 23.7019 23.2111C23.2379 23.1086 22.7524 23.1787 22.3363 23.4082C22.2495 23.4445 22.1518 23.4448 22.0648 23.4091C21.9777 23.3734 21.9084 23.3045 21.8722 23.2177C21.8359 23.1309 21.8356 23.0332 21.8713 22.9462C21.907 22.8591 21.9759 22.7898 22.0627 22.7535C22.643 22.4652 23.3066 22.3915 23.9361 22.5453C24.5655 22.699 25.1203 23.0705 25.5023 23.5939C25.6 23.6818 25.5023 24.1509 25.131 24.1509Z" fill="#414141"/>
<path d="M24.1046 28.3403C24.0424 28.2535 24.0173 28.1455 24.0347 28.0402C24.0521 27.9348 24.1106 27.8407 24.1975 27.7785C24.2843 27.7163 24.3923 27.6911 24.4976 27.7085C24.603 27.7259 24.6971 27.7845 24.7593 27.8713C25.1097 28.3834 25.6398 28.745 26.2444 28.8844C26.849 29.0238 27.4839 28.9307 28.0231 28.6237C28.0661 28.6005 28.1136 28.5866 28.1624 28.5828C28.2112 28.579 28.2602 28.5854 28.3064 28.6016C28.3525 28.6179 28.3948 28.6436 28.4305 28.677C28.4661 28.7105 28.4944 28.7511 28.5135 28.7961C28.5326 28.8412 28.5421 28.8897 28.5414 28.9386C28.5407 28.9876 28.5298 29.0358 28.5094 29.0803C28.489 29.1247 28.4595 29.1644 28.4229 29.1969C28.3863 29.2293 28.3433 29.2538 28.2967 29.2686C27.6147 29.6904 26.795 29.8294 26.0121 29.6561C25.2291 29.4827 24.5448 29.0106 24.1046 28.3403Z" fill="#414141"/>
<path d="M28.4827 19.8697C28.8987 19.4167 29.4574 19.12 30.0657 19.0293C30.3953 19.0279 30.7218 19.093 31.0257 19.2206C31.3296 19.3482 31.6046 19.5357 31.8344 19.772C31.8788 19.8036 31.9149 19.8454 31.9399 19.8938C31.9649 19.9423 31.9779 19.996 31.9779 20.0505C31.9779 20.1049 31.9649 20.1587 31.9399 20.2071C31.9149 20.2555 31.8788 20.2973 31.8344 20.3289C31.8015 20.3715 31.7593 20.406 31.7111 20.4297C31.6628 20.4535 31.6097 20.4658 31.5559 20.4658C31.5021 20.4658 31.449 20.4535 31.4008 20.4297C31.3525 20.406 31.3103 20.3715 31.2774 20.3289C31.1352 20.1507 30.9477 20.014 30.7345 19.9332C30.5213 19.8524 30.2903 19.8305 30.0657 19.8697C29.8492 19.8918 29.6391 19.9567 29.4479 20.0607C29.2566 20.1647 29.088 20.3057 28.9518 20.4755C28.7172 20.6319 28.1505 20.5439 28.4827 19.8697Z" fill="#414141"/>
<path d="M25.3167 20.3291C24.9322 19.9041 24.4021 19.6391 23.8314 19.5864C23.2863 19.6414 22.7846 19.908 22.4341 20.3291C22.4002 20.3718 22.3572 20.4063 22.3081 20.43C22.259 20.4538 22.2052 20.4661 22.1507 20.4661C22.0962 20.4661 22.0424 20.4538 21.9933 20.43C21.9443 20.4063 21.9012 20.3718 21.8673 20.3291C21.8247 20.2962 21.7903 20.254 21.7665 20.2057C21.7428 20.1574 21.7305 20.1044 21.7305 20.0506C21.7305 19.9968 21.7428 19.9437 21.7665 19.8954C21.7903 19.8471 21.8247 19.8049 21.8673 19.7721C22.0959 19.4698 22.3912 19.2244 22.7302 19.0549C23.0691 18.8854 23.4427 18.7964 23.8217 18.7949C24.5885 18.8969 25.3034 19.239 25.8639 19.7721C26.1766 20.3682 25.561 20.5734 25.3167 20.3291Z" fill="#414141"/>
<path d="M21.2628 27.2347C21.3826 27.2647 21.5062 27.2753 21.6263 27.2659C21.7464 27.2565 21.8606 27.2273 21.9622 27.18C22.0638 27.1327 22.1508 27.0682 22.2181 26.9904C22.2854 26.9125 22.3316 26.8229 22.354 26.7266C22.3765 26.6304 22.3747 26.5295 22.3487 26.43C22.3228 26.3304 22.2733 26.2341 22.2031 26.1467C22.1328 26.0594 22.0433 25.9827 21.9398 25.9211C21.8362 25.8596 21.7207 25.8145 21.6 25.7885C21.4802 25.7585 21.3566 25.7478 21.2365 25.7572C21.1164 25.7666 21.0022 25.7958 20.9006 25.8431C20.799 25.8904 20.712 25.9549 20.6447 26.0328C20.5774 26.1106 20.5312 26.2003 20.5088 26.2965C20.4863 26.3927 20.4881 26.4936 20.514 26.5932C20.54 26.6927 20.5895 26.789 20.6597 26.8764C20.7299 26.9638 20.8195 27.0405 20.923 27.102C21.0266 27.1635 21.1421 27.2086 21.2628 27.2347Z" fill="#FDAF31"/>
<path d="M30.8491 27.0081C30.8929 27.096 30.958 27.172 31.0406 27.2318C31.1232 27.2916 31.2217 27.334 31.3304 27.3565C31.439 27.379 31.5557 27.3812 31.6737 27.3629C31.7917 27.3446 31.9086 27.3063 32.0177 27.2501C32.1268 27.1939 32.2259 27.121 32.3092 27.0355C32.3926 26.9501 32.4586 26.8538 32.5034 26.7522C32.5482 26.6507 32.571 26.5459 32.5703 26.4439C32.5696 26.3419 32.5456 26.2447 32.4995 26.158C32.4557 26.0702 32.3906 25.9941 32.308 25.9344C32.2254 25.8746 32.1269 25.8322 32.0182 25.8097C31.9096 25.7872 31.7929 25.785 31.6749 25.8032C31.5569 25.8215 31.44 25.8598 31.3309 25.916C31.2219 25.9722 31.1228 26.0451 31.0394 26.1306C30.956 26.2161 30.89 26.3124 30.8452 26.4139C30.8004 26.5155 30.7777 26.6203 30.7783 26.7223C30.779 26.8243 30.8031 26.9214 30.8491 27.0081Z" fill="#FDAF31"/>
<path d="M21.0885 46.3713C19.5758 44.7587 19.3225 40.4489 19.385 38.4955C11.6348 36.2716 3.50922 45.7898 3.25882 53.6226C13.6702 63.8202 21.5849 64.3547 38.2938 58.6532C38.6067 48.8658 36.8407 42.9434 27.1983 38.7453C25.8336 40.657 23.0918 44.8711 23.0419 46.4337L22.5423 62.0603C22.688 57.5026 22.6012 47.9839 21.0885 46.3713Z" fill="#005BC3" stroke="#414141" stroke-width="0.78173"/>
</g>
<defs>
<clipPath id="clip0_626_50358">
<rect y="0.5" width="47" height="47" rx="8" fill="white"/>
</clipPath>
</defs>
</svg>
