<svg width="31" height="30" viewBox="0 0 31 30" fill="none" xmlns="http://www.w3.org/2000/svg">
<rect x="0.666748" width="30" height="30" rx="15" fill="#12ABD7" fill-opacity="0.0705882"/>
<g clip-path="url(#clip0_676_5232)">
<path d="M23.25 10.5811C22.9168 10.4439 22.5421 10.6251 22.3085 10.8995C22.2926 10.9183 22.2764 10.9367 22.2596 10.9547C22.0926 11.1356 21.8905 11.2807 21.6658 11.3811C21.4411 11.4816 21.1983 11.5354 20.9521 11.5393C20.7059 11.5432 20.4615 11.497 20.2336 11.4037C20.0058 11.3103 19.7994 11.1717 19.6267 10.9961C19.4541 10.8206 19.3189 10.6119 19.2293 10.3826C19.1397 10.1532 19.0975 9.90812 19.1055 9.66205C19.1066 9.62638 19.1088 9.59079 19.1121 9.55533C19.1437 9.20912 19.0205 8.83144 18.7058 8.6838L18.1592 8.42737C17.8612 8.30317 17.5262 8.30151 17.2269 8.42276C16.9277 8.54401 16.6883 8.77838 16.5608 9.07502L12.5373 18.3688L11.931 19.7467C11.8068 20.0448 11.8052 20.3797 11.9264 20.679C12.0477 20.9783 12.2821 21.2176 12.5787 21.3451L18.1732 23.729C18.4713 23.8533 18.8062 23.8549 19.1055 23.7337C19.4048 23.6124 19.6441 23.3781 19.7716 23.0814L24.4013 12.3684C24.5168 12.0819 24.52 11.7624 24.4102 11.4737C24.3003 11.1851 24.0856 10.9485 23.8089 10.8112L23.25 10.5811Z" fill="#12ABD7"/>
<path fill-rule="evenodd" clip-rule="evenodd" d="M8.98041 8.69022C8.74425 8.41805 8.36956 8.23635 8.03635 8.37356L7.50734 8.59138C7.2377 8.72514 7.02845 8.95569 6.9214 9.237C6.81436 9.51831 6.81739 9.82965 6.92991 10.1088L10.6563 18.7315L11.0932 17.7384L15.1133 8.45261L15.1142 8.4504C15.135 8.40211 15.1571 8.35453 15.1805 8.30773L14.5708 6.89938C14.4465 6.6103 14.2132 6.3819 13.9216 6.26374C13.63 6.14558 13.3035 6.14719 13.0131 6.26823L12.4949 6.51131C12.1802 6.65896 12.0574 7.03695 12.0859 7.38343C12.0883 7.41269 12.09 7.44204 12.0909 7.47146C12.0986 7.71126 12.0576 7.95014 11.9703 8.17361C11.883 8.39709 11.7512 8.60052 11.5829 8.77157C11.4147 8.94261 11.2135 9.07772 10.9915 9.16871C10.7695 9.2597 10.5313 9.30466 10.2914 9.3009C10.0515 9.29713 9.81485 9.24469 9.59581 9.14676C9.37679 9.04885 9.17991 8.90747 9.01712 8.73121C9.00466 8.71774 8.99242 8.70406 8.98041 8.69022Z" fill="#12ABD7" fill-opacity="0.35"/>
</g>
<defs>
<clipPath id="clip0_676_5232">
<rect width="17.6471" height="17.6471" fill="white" transform="translate(6.84326 6.17627)"/>
</clipPath>
</defs>
</svg>
