<svg width="25" height="25" viewBox="0 0 25 25" fill="none" xmlns="http://www.w3.org/2000/svg">
<path d="M19.9116 12.8584C19.9116 11.4784 21.0316 10.3584 22.4116 10.3584V9.3584C22.4116 5.3584 21.4116 4.3584 17.4116 4.3584H7.41162C3.41162 4.3584 2.41162 5.3584 2.41162 9.3584V9.8584C3.79162 9.8584 4.91162 10.9784 4.91162 12.3584C4.91162 13.7384 3.79162 14.8584 2.41162 14.8584V15.3584C2.41162 19.3584 3.41162 20.3584 7.41162 20.3584H17.4116C21.4116 20.3584 22.4116 19.3584 22.4116 15.3584C21.0316 15.3584 19.9116 14.2384 19.9116 12.8584Z" stroke="#C70000" stroke-width="1.5" stroke-linecap="round" stroke-linejoin="round"/>
<path d="M10.4116 4.3584L10.4116 20.3584" stroke="#C70000" stroke-width="1.5" stroke-linecap="round" stroke-linejoin="round" stroke-dasharray="5 5"/>
</svg>
