<svg width="30" height="30" viewBox="0 0 30 30" fill="none" xmlns="http://www.w3.org/2000/svg">
<rect width="30" height="30" rx="15" fill="#6A12D7" fill-opacity="0.0705882"/>
<g clip-path="url(#clip0_836_1857)">
<path d="M22.5833 10.5811C22.2501 10.4439 21.8754 10.6251 21.6418 10.8995C21.6259 10.9183 21.6096 10.9367 21.5929 10.9547C21.4259 11.1356 21.2238 11.2807 20.9991 11.3811C20.7743 11.4816 20.5315 11.5354 20.2854 11.5393C20.0392 11.5432 19.7948 11.497 19.5669 11.4037C19.3391 11.3103 19.1326 11.1717 18.9599 10.9961C18.7874 10.8206 18.6521 10.6119 18.5625 10.3826C18.4729 10.1532 18.4308 9.90812 18.4387 9.66205C18.4399 9.62638 18.4421 9.59079 18.4453 9.55533C18.4769 9.20912 18.3538 8.83144 18.0391 8.6838L17.4925 8.42737C17.1944 8.30317 16.8594 8.30151 16.5602 8.42276C16.2609 8.54401 16.0216 8.77838 15.894 9.07502L11.8706 18.3688L11.2643 19.7467C11.1401 20.0448 11.1384 20.3797 11.2597 20.679C11.3809 20.9783 11.6153 21.2176 11.9119 21.3451L17.5065 23.729C17.8045 23.8533 18.1395 23.8549 18.4388 23.7337C18.738 23.6124 18.9773 23.3781 19.1049 23.0814L23.7346 12.3684C23.8501 12.0819 23.8532 11.7624 23.7434 11.4737C23.6335 11.1851 23.4188 10.9485 23.1422 10.8112L22.5833 10.5811Z" fill="#6A12D7"/>
<path fill-rule="evenodd" clip-rule="evenodd" d="M8.31366 8.69022C8.07751 8.41805 7.70281 8.23635 7.3696 8.37356L6.84059 8.59138C6.57095 8.72514 6.3617 8.95569 6.25465 9.237C6.14761 9.51831 6.15064 9.82965 6.26316 10.1088L9.98953 18.7315L10.4265 17.7384L14.4465 8.45261L14.4475 8.4504C14.4683 8.40211 14.4904 8.35453 14.5137 8.30773L13.904 6.89938C13.7798 6.6103 13.5465 6.3819 13.2549 6.26374C12.9632 6.14558 12.6368 6.14719 12.3463 6.26823L11.8282 6.51131C11.5135 6.65896 11.3907 7.03695 11.4191 7.38343C11.4215 7.41269 11.4232 7.44204 11.4242 7.47146C11.4319 7.71126 11.3909 7.95014 11.3036 8.17361C11.2162 8.39709 11.0845 8.60052 10.9162 8.77157C10.7479 8.94261 10.5467 9.07772 10.3247 9.16871C10.1027 9.2597 9.86455 9.30466 9.62465 9.3009C9.38475 9.29713 9.1481 9.24469 8.92907 9.14676C8.71004 9.04885 8.51316 8.90747 8.35037 8.73121C8.33791 8.71774 8.32567 8.70406 8.31366 8.69022Z" fill="#6A12D7" fill-opacity="0.35"/>
</g>
<defs>
<clipPath id="clip0_836_1857">
<rect width="17.6471" height="17.6471" fill="white" transform="translate(6.17651 6.17627)"/>
</clipPath>
</defs>
</svg>
