<svg width="31" height="30" viewBox="0 0 31 30" fill="none" xmlns="http://www.w3.org/2000/svg">
<rect x="0.333252" width="30" height="30" rx="15" fill="#33B067" fill-opacity="0.1"/>
<g clip-path="url(#clip0_676_5223)">
<path d="M22.9165 10.5811C22.5834 10.4439 22.2086 10.6251 21.975 10.8995C21.9592 10.9183 21.9429 10.9367 21.9261 10.9547C21.7591 11.1356 21.5571 11.2807 21.3323 11.3811C21.1076 11.4816 20.8648 11.5354 20.6186 11.5393C20.3724 11.5432 20.128 11.497 19.9001 11.4037C19.6723 11.3103 19.4659 11.1717 19.2932 10.9961C19.1206 10.8206 18.9854 10.6119 18.8958 10.3826C18.8062 10.1532 18.7641 9.90812 18.772 9.66205C18.7731 9.62638 18.7753 9.59079 18.7786 9.55533C18.8102 9.20912 18.687 8.83144 18.3723 8.6838L17.8257 8.42737C17.5277 8.30317 17.1927 8.30151 16.8935 8.42276C16.5942 8.54401 16.3548 8.77838 16.2273 9.07502L12.2038 18.3688L11.5975 19.7467C11.4733 20.0448 11.4717 20.3797 11.5929 20.679C11.7142 20.9783 11.9486 21.2176 12.2452 21.3451L17.8397 23.729C18.1378 23.8533 18.4727 23.8549 18.772 23.7337C19.0713 23.6124 19.3106 23.3781 19.4381 23.0814L24.0678 12.3684C24.1833 12.0819 24.1865 11.7624 24.0767 11.4737C23.9668 11.1851 23.7521 10.9485 23.4754 10.8112L22.9165 10.5811Z" fill="#33B067"/>
<path fill-rule="evenodd" clip-rule="evenodd" d="M8.64691 8.69022C8.41076 8.41805 8.03606 8.23635 7.70286 8.37356L7.17384 8.59138C6.9042 8.72514 6.69495 8.95569 6.58791 9.237C6.48086 9.51831 6.4839 9.82965 6.59641 10.1088L10.3228 18.7315L10.7597 17.7384L14.7798 8.45261L14.7807 8.4504C14.8015 8.40211 14.8236 8.35453 14.847 8.30773L14.2373 6.89938C14.113 6.6103 13.8797 6.3819 13.5881 6.26374C13.2965 6.14558 12.97 6.14719 12.6796 6.26823L12.1614 6.51131C11.8467 6.65896 11.7239 7.03695 11.7524 7.38343C11.7548 7.41269 11.7565 7.44204 11.7574 7.47146C11.7651 7.71126 11.7241 7.95014 11.6368 8.17361C11.5495 8.39709 11.4177 8.60052 11.2495 8.77157C11.0812 8.94261 10.88 9.07772 10.658 9.16871C10.436 9.2597 10.1978 9.30466 9.9579 9.3009C9.718 9.29713 9.48136 9.24469 9.26232 9.14676C9.04329 9.04885 8.84641 8.90747 8.68362 8.73121C8.67117 8.71774 8.65893 8.70406 8.64691 8.69022Z" fill="#33B067" fill-opacity="0.35"/>
</g>
<defs>
<clipPath id="clip0_676_5223">
<rect width="17.6471" height="17.6471" fill="white" transform="translate(6.50977 6.17627)"/>
</clipPath>
</defs>
</svg>
