<svg width="25" height="25" viewBox="0 0 25 25" fill="none" xmlns="http://www.w3.org/2000/svg">
<path d="M19.3216 15.0509C19.3216 16.3409 20.3816 17.3909 21.6716 17.3909C21.6716 21.1409 20.7316 22.0809 16.9816 22.0809H7.60162C3.85162 22.0809 2.91162 21.1409 2.91162 17.3909V16.9309C4.20162 16.9309 5.26162 15.8709 5.26162 14.5809C5.26162 13.2909 4.20162 12.2309 2.91162 12.2309V11.7709C2.92162 8.02093 3.85162 7.08093 7.60162 7.08093H16.9716C20.7216 7.08093 21.6616 8.02093 21.6616 11.7709V12.7109C20.3716 12.7109 19.3216 13.7509 19.3216 15.0509Z" stroke="#06AC3F" stroke-width="1.5" stroke-linecap="round" stroke-linejoin="round"/>
<path d="M16.6227 7.0809H7.53271L10.4627 4.1509C12.8527 1.7609 14.0527 1.7609 16.4427 4.1509L17.0427 4.7509C16.4127 5.3809 16.2627 6.3109 16.6227 7.0809Z" stroke="#06AC3F" stroke-width="1.5" stroke-linecap="round" stroke-linejoin="round"/>
<path d="M10.2905 7.08105L10.2905 22.0811" stroke="#06AC3F" stroke-width="1.5" stroke-linecap="round" stroke-linejoin="round" stroke-dasharray="5 5"/>
</svg>
