<svg width="25" height="25" viewBox="0 0 25 25" fill="none" xmlns="http://www.w3.org/2000/svg">
<path d="M20.1206 12.9302C20.1206 11.5502 21.2406 10.4302 22.6206 10.4302V9.43018C22.6206 5.43018 21.6206 4.43018 17.6206 4.43018H7.62061C3.62061 4.43018 2.62061 5.43018 2.62061 9.43018V9.93018C4.00061 9.93018 5.12061 11.0502 5.12061 12.4302C5.12061 13.8102 4.00061 14.9302 2.62061 14.9302V15.4302C2.62061 19.4302 3.62061 20.4302 7.62061 20.4302H17.6206C21.6206 20.4302 22.6206 19.4302 22.6206 15.4302C21.2406 15.4302 20.1206 14.3102 20.1206 12.9302Z" stroke="#B700C7" stroke-width="1.5" stroke-linecap="round" stroke-linejoin="round"/>
<path d="M17.6206 9.43018L11.6206 15.4302L8.62061 12.4302" stroke="#B700C7" stroke-width="1.5" stroke-linecap="round" stroke-linejoin="round"/>
</svg>
