<svg width="20" height="20" viewBox="0 0 20 20" fill="none" xmlns="http://www.w3.org/2000/svg">
<rect width="20" height="20" rx="10" fill="#005BC3"/>
<g clip-path="url(#clip0_626_45782)">
<path fill-rule="evenodd" clip-rule="evenodd" d="M5.67608 6.24513C5.8649 6.16738 6.07723 6.27034 6.21105 6.42457C6.21786 6.43241 6.22479 6.44016 6.23185 6.4478C6.3241 6.54768 6.43566 6.62779 6.55979 6.68328C6.68391 6.73877 6.818 6.76849 6.95394 6.77062C7.08989 6.77276 7.22484 6.74728 7.35065 6.69571C7.47646 6.64416 7.59048 6.56759 7.68582 6.47067C7.78116 6.37374 7.85584 6.25846 7.90532 6.13183C7.9548 6.00519 7.97805 5.86983 7.97367 5.73394C7.97314 5.71727 7.97219 5.70064 7.97082 5.68406C7.9547 5.48772 8.02426 5.27353 8.20261 5.18986L8.49622 5.05211C8.66081 4.98352 8.84581 4.98261 9.01106 5.04956C9.17632 5.11652 9.30851 5.24595 9.37893 5.40976L9.72443 6.20783C9.71119 6.23435 9.69866 6.26131 9.68687 6.28867L9.68633 6.28993L7.40832 11.5519L7.16071 12.1146L5.0491 7.22844C4.98534 7.07025 4.98362 6.89382 5.04428 6.73441C5.10494 6.57501 5.22351 6.44436 5.37631 6.36856L5.67608 6.24513ZM13.7636 7.67647C13.896 7.52097 14.1084 7.41829 14.2971 7.49604L14.6139 7.62644C14.7706 7.70421 14.8923 7.83827 14.9546 8.00185C15.0168 8.16542 15.015 8.34646 14.9496 8.50879L12.3261 14.5795C12.2538 14.7476 12.1182 14.8804 11.9486 14.9491C11.779 15.0179 11.5892 15.0169 11.4203 14.9465L8.25006 13.5956C8.08197 13.5234 7.94916 13.3878 7.88045 13.2181C7.81174 13.0486 7.81268 12.8588 7.88306 12.6899L8.22664 11.909L10.5066 6.64257C10.5789 6.47448 10.7145 6.34166 10.8841 6.27296C11.0536 6.20425 11.2435 6.20519 11.4124 6.27557L11.7221 6.42088C11.9005 6.50454 11.9702 6.71856 11.9523 6.91475C11.9505 6.93484 11.9492 6.95501 11.9486 6.97522C11.9441 7.11466 11.968 7.25356 12.0187 7.38351C12.0695 7.51346 12.1461 7.63175 12.2439 7.73121C12.3418 7.83067 12.4588 7.90924 12.5879 7.96214C12.717 8.01505 12.8555 8.04119 12.995 8.039C13.1345 8.03681 13.2721 8.00631 13.3994 7.94938C13.5268 7.89244 13.6413 7.81024 13.7359 7.70774C13.7454 7.6975 13.7546 7.68707 13.7636 7.67647Z" fill="white"/>
</g>
<defs>
<clipPath id="clip0_626_45782">
<rect width="10" height="10" fill="white" transform="translate(5 5)"/>
</clipPath>
</defs>
</svg>
