<svg width="25" height="25" viewBox="0 0 25 25" fill="none" xmlns="http://www.w3.org/2000/svg">
<path d="M17.4065 4.3584H7.4065C3.5765 4.3584 2.5065 5.2784 2.4165 8.8584C4.3465 8.8584 5.9065 10.4284 5.9065 12.3584C5.9065 14.2884 4.3465 15.8484 2.4165 15.8584C2.5065 19.4384 3.5765 20.3584 7.4065 20.3584H17.4065C21.4065 20.3584 22.4065 19.3584 22.4065 15.3584V9.3584C22.4065 5.3584 21.4065 4.3584 17.4065 4.3584Z" stroke="#00B0BB" stroke-width="1.5" stroke-linecap="round" stroke-linejoin="round"/>
<path d="M9.40479 4.3584V7.8584" stroke="#00B0BB" stroke-width="1.5" stroke-linecap="round" stroke-linejoin="round"/>
<path d="M9.40479 16.8584V20.3584" stroke="#00B0BB" stroke-width="1.5" stroke-linecap="round" stroke-linejoin="round"/>
<path d="M15.4366 9.68843L16.0566 10.9384C16.1166 11.0584 16.2366 11.1484 16.3666 11.1684L17.7466 11.3684C18.0866 11.4184 18.2266 11.8384 17.9766 12.0784L16.9766 13.0484C16.8766 13.1384 16.8366 13.2784 16.8566 13.4184L17.0966 14.7884C17.1566 15.1284 16.7966 15.3884 16.4966 15.2284L15.2666 14.5784C15.1466 14.5184 14.9966 14.5184 14.8766 14.5784L13.6466 15.2284C13.3366 15.3884 12.9866 15.1284 13.0466 14.7884L13.2866 13.4184C13.3066 13.2784 13.2666 13.1484 13.1666 13.0484L12.1766 12.0784C11.9266 11.8384 12.0666 11.4184 12.4066 11.3684L13.7866 11.1684C13.9266 11.1484 14.0366 11.0684 14.0966 10.9384L14.7066 9.68843C14.8466 9.37843 15.2866 9.37843 15.4366 9.68843Z" stroke="#00B0BB" stroke-width="1.5" stroke-linecap="round" stroke-linejoin="round"/>
</svg>
