<svg width="13" height="13" viewBox="0 0 13 13" fill="none" xmlns="http://www.w3.org/2000/svg">
<path d="M9.67222 9.50355H9.30045C8.90911 9.50355 8.53735 9.65519 8.26341 9.92913L7.42693 10.7558C7.04538 11.1325 6.42416 11.1325 6.04261 10.7558L5.20612 9.92913C4.93219 9.65519 4.55553 9.50355 4.16909 9.50355H3.80222C2.9902 9.50355 2.33472 8.85298 2.33472 8.05074V2.71392C2.33472 1.91169 2.9902 1.26111 3.80222 1.26111H9.67222C10.4842 1.26111 11.1397 1.91169 11.1397 2.71392V8.05074C11.1397 8.84809 10.4842 9.50355 9.67222 9.50355Z" stroke="#727272" stroke-width="0.73375" stroke-miterlimit="10" stroke-linecap="round" stroke-linejoin="round"/>
<path d="M6.73718 5.16952C7.36665 5.16952 7.87695 4.65922 7.87695 4.02975C7.87695 3.40028 7.36665 2.89001 6.73718 2.89001C6.10771 2.89001 5.59741 3.40028 5.59741 4.02975C5.59741 4.65922 6.10771 5.16952 6.73718 5.16952Z" stroke="#727272" stroke-width="0.73375" stroke-linecap="round" stroke-linejoin="round"/>
<path d="M8.69385 7.93829C8.69385 7.05779 7.81824 6.34363 6.73718 6.34363C5.65613 6.34363 4.78052 7.05779 4.78052 7.93829" stroke="#727272" stroke-width="0.73375" stroke-linecap="round" stroke-linejoin="round"/>
</svg>
