<svg width="21" height="20" viewBox="0 0 21 20" fill="none" xmlns="http://www.w3.org/2000/svg">
<path d="M19.1847 8.67706H2.51807V15.8199C2.51807 16.4514 2.78146 17.057 3.2503 17.5035C3.71914 17.95 4.35503 18.2009 5.01807 18.2009H16.6847C17.3478 18.2009 17.9837 17.95 18.4525 17.5035C18.9213 17.057 19.1847 16.4514 19.1847 15.8199V8.67706ZM6.68473 7.08976C6.46372 7.08976 6.25176 7.00614 6.09548 6.8573C5.9392 6.70846 5.8514 6.50659 5.8514 6.2961V3.1215C5.8514 2.91101 5.9392 2.70914 6.09548 2.56031C6.25176 2.41147 6.46372 2.32785 6.68473 2.32785C6.90575 2.32785 7.11771 2.41147 7.27399 2.56031C7.43027 2.70914 7.51807 2.91101 7.51807 3.1215V6.2961C7.51807 6.50659 7.43027 6.70846 7.27399 6.8573C7.11771 7.00614 6.90575 7.08976 6.68473 7.08976ZM15.0181 7.08976C14.7971 7.08976 14.5851 7.00614 14.4288 6.8573C14.2725 6.70846 14.1847 6.50659 14.1847 6.2961V3.1215C14.1847 2.91101 14.2725 2.70914 14.4288 2.56031C14.5851 2.41147 14.7971 2.32785 15.0181 2.32785C15.2391 2.32785 15.451 2.41147 15.6073 2.56031C15.7636 2.70914 15.8514 2.91101 15.8514 3.1215V6.2961C15.8514 6.50659 15.7636 6.70846 15.6073 6.8573C15.451 7.00614 15.2391 7.08976 15.0181 7.08976Z" fill="#007EE5"/>
<path d="M16.6847 3.91513H15.8514V6.29608C15.8514 6.50657 15.7636 6.70844 15.6073 6.85728C15.451 7.00612 15.2391 7.08973 15.0181 7.08973C14.7971 7.08973 14.5851 7.00612 14.4288 6.85728C14.2725 6.70844 14.1847 6.50657 14.1847 6.29608V3.91513H7.51807V6.29608C7.51807 6.50657 7.43027 6.70844 7.27399 6.85728C7.11771 7.00612 6.90575 7.08973 6.68473 7.08973C6.46372 7.08973 6.25176 7.00612 6.09548 6.85728C5.9392 6.70844 5.8514 6.50657 5.8514 6.29608V3.91513H5.01807C4.35503 3.91513 3.71914 4.16598 3.2503 4.6125C2.78146 5.05901 2.51807 5.66462 2.51807 6.29608V8.67704H19.1847V6.29608C19.1847 5.66462 18.9213 5.05901 18.4525 4.6125C17.9837 4.16598 17.3478 3.91513 16.6847 3.91513Z" fill="#B4DDFF"/>
</svg>
