<svg width="22" height="21" viewBox="0 0 22 21" fill="none" xmlns="http://www.w3.org/2000/svg">
<path d="M11.2395 2.41748C6.50342 2.41748 2.62842 6.16748 2.62842 10.7508C2.62842 15.3341 6.50342 19.0841 11.2395 19.0841C15.9756 19.0841 19.8506 15.3341 19.8506 10.7508C19.8506 6.16748 15.9756 2.41748 11.2395 2.41748ZM12.1006 10.7508C12.1006 11.0841 11.9284 11.3341 11.6701 11.5008L9.43119 12.7508C9.00064 13.0008 8.48397 12.8341 8.22564 12.4175C7.96731 12.0008 8.13953 11.5008 8.57008 11.2508L10.3784 10.2508V6.58415C10.3784 6.08415 10.7229 5.75081 11.2395 5.75081C11.7562 5.75081 12.1006 6.08415 12.1006 6.58415V10.7508Z" fill="#E21B22"/>
</svg>
