<svg width="393" height="396" viewBox="0 0 393 396" fill="none" xmlns="http://www.w3.org/2000/svg">
<g clip-path="url(#clip0_590_4235)">
<path opacity="0.5" d="M197 0H-0.5V397.5L197 283.5V0Z" fill="url(#paint0_linear_590_4235)"/>
<path opacity="0.5" d="M198 0H395.5V397.5L198 283.5V0Z" fill="url(#paint1_linear_590_4235)"/>
<path d="M323.182 288.753C335.382 295.797 335.446 307.218 323.326 314.261L219.675 374.496C207.556 381.539 187.844 381.536 175.645 374.493L71.3217 314.262C59.1225 307.219 59.052 295.802 71.172 288.758L174.823 228.523C186.942 221.479 206.66 221.479 218.859 228.523L323.182 288.753Z" fill="#8AE0FF"/>
<path d="M335.933 275.625L221.917 341.884C208.585 349.631 186.903 349.627 173.484 341.88L58.7286 275.627C51.9745 271.727 48.6005 266.608 48.6148 261.498L48.5855 268.624C48.5712 273.735 51.9452 278.854 58.6993 282.754L173.455 349.008C186.873 356.755 208.557 356.759 221.888 349.012L335.904 282.753C342.527 278.904 345.842 273.867 345.856 268.822L345.886 261.694C345.871 266.739 342.556 271.777 335.933 275.625Z" fill="url(#paint2_linear_590_4235)"/>
<path d="M335.775 247.568C349.194 255.315 349.264 267.878 335.933 275.626L221.916 341.884C208.585 349.632 186.902 349.628 173.483 341.881L58.7286 275.627C45.3098 267.88 45.2321 255.32 58.5639 247.573L172.58 181.314C185.912 173.567 207.602 173.567 221.02 181.314L335.775 247.568Z" fill="white" stroke="black" stroke-width="0.7519" stroke-miterlimit="10"/>
<path d="M110.459 158.361L107.607 156.704L107.431 94.4492L110.282 96.1061L110.459 158.361Z" fill="#55C2F9" stroke="black" stroke-width="0.7519" stroke-miterlimit="10" stroke-linecap="round" stroke-linejoin="round"/>
<path d="M110.282 96.1055L107.431 94.4486L149.171 70.3496L152.022 72.0073L110.282 96.1055Z" fill="#55C2F9" stroke="black" stroke-width="0.7519" stroke-miterlimit="10" stroke-linecap="round" stroke-linejoin="round"/>
<path d="M110.58 96.2775L151.726 72.5215L151.901 134.091L110.755 157.846L110.58 96.2775Z" fill="white"/>
<path d="M151.43 73.0374L151.602 133.919L111.051 157.332L110.879 96.4497L151.43 73.0374ZM152.022 72.0078L110.282 96.1068L110.459 158.362L152.199 134.263L152.022 72.0078Z" fill="black"/>
<path d="M114.335 97.1685L147.997 77.7344L148.146 128.209L114.485 147.643L114.335 97.1685Z" fill="white" stroke="black" stroke-width="0.7519" stroke-miterlimit="10"/>
<path d="M125.105 92.2889V87.7856L122.07 86.067V82.457L124.877 83.8787V84.54L127.577 86.1905V93.7533L125.105 92.2889Z" fill="black"/>
<path d="M122.685 82.4329L132.575 76.4707L134.804 77.7165L124.867 83.5385L122.685 82.4329Z" fill="white"/>
<path d="M132.58 76.816L134.205 77.7236L124.857 83.2003L123.298 82.4115L132.58 76.816ZM132.569 76.127L122.07 82.4566L124.877 83.8783L135.403 77.711L132.569 76.127Z" fill="black"/>
<path d="M125.175 84.3732V84.0493L135.105 78.2305V78.3683C135.105 78.4736 135.162 78.571 135.253 78.6249L137.858 80.1558L127.585 85.8464L125.175 84.3732Z" fill="white"/>
<path d="M134.905 78.6938C134.954 78.7699 135.021 78.834 135.102 78.8815L137.256 80.1479L127.592 85.5011L125.485 84.2125L134.905 78.6938ZM135.403 77.711L124.877 83.8783V84.5396L127.577 86.1901L138.457 80.163L135.403 78.3675V77.711Z" fill="black"/>
<path d="M127.875 86.3656L138.16 80.668V87.0547L127.875 93.2267V86.3656Z" fill="white"/>
<path d="M137.862 81.1727V86.8854L128.173 92.7003V86.5401L137.862 81.1727ZM138.457 80.1621L127.577 86.1892V93.752L138.457 87.2228V80.1621Z" fill="black"/>
<path d="M124.877 84.5396L135.403 78.3683V77.711L124.877 83.8783V84.5396Z" fill="black"/>
<path d="M136.606 94.2031L136.614 96.8452L125.776 103.102L125.768 100.461L136.606 94.2031Z" fill="black"/>
<path d="M135.739 100.713L135.743 102.134L124 108.914L123.996 107.493L135.739 100.713Z" fill="black"/>
<path d="M122.364 108.435L122.368 109.857L118.638 112.01L118.634 110.589L122.364 108.435Z" fill="black"/>
<path d="M143.775 96.0742L143.779 97.495L137.566 101.083L137.562 99.6619L143.775 96.0742Z" fill="black"/>
<path d="M135.761 108.654L135.765 110.075L124.023 116.855L124.019 115.434L135.761 108.654Z" fill="black"/>
<path d="M135.772 112.625L135.776 114.046L124.034 120.825L124.03 119.404L135.772 112.625Z" fill="black"/>
<path d="M135.75 104.684L135.754 106.105L124.011 112.885L124.007 111.463L135.75 104.684Z" fill="black"/>
<path d="M122.376 112.406L122.379 113.827L118.649 115.98L118.645 114.56L122.376 112.406Z" fill="black"/>
<path d="M143.82 112.256L143.824 113.673L137.612 117.26L137.607 115.843L143.82 112.256Z" fill="black"/>
<path d="M143.809 107.984L143.813 109.405L137.599 112.992L137.595 111.571L143.809 107.984Z" fill="black"/>
<path d="M143.797 104.014L143.801 105.434L137.588 109.021L137.584 107.601L143.797 104.014Z" fill="black"/>
<path d="M143.786 100.045L143.79 101.466L137.577 105.053L137.573 103.632L143.786 100.045Z" fill="black"/>
<path d="M122.386 116.375L122.39 117.796L118.661 119.949L118.656 118.528L122.386 116.375Z" fill="black"/>
<path d="M122.398 120.346L122.402 121.766L118.672 123.92L118.668 122.499L122.398 120.346Z" fill="black"/>
<path d="M135.807 124.836L135.811 126.257L124.069 133.036L124.065 131.615L135.807 124.836Z" fill="black"/>
<path d="M135.796 120.865L135.8 122.282L124.057 129.061L124.053 127.644L135.796 120.865Z" fill="black"/>
<path d="M135.785 116.895L135.789 118.312L124.046 125.091L124.042 123.674L135.785 116.895Z" fill="black"/>
<path d="M122.409 124.617L122.414 126.034L118.684 128.187L118.68 126.771L122.409 124.617Z" fill="black"/>
<path d="M122.421 128.588L122.425 130.005L118.695 132.158L118.691 130.741L122.421 128.588Z" fill="black"/>
<path d="M143.832 116.225L143.836 117.641L137.623 121.228L137.619 119.812L143.832 116.225Z" fill="black"/>
<path d="M122.432 132.557L122.436 133.977L118.706 136.131L118.702 134.71L122.432 132.557Z" fill="black"/>
<path d="M143.843 120.195L143.847 121.616L137.634 125.203L137.63 123.782L143.843 120.195Z" fill="black"/>
<path d="M161.448 53.0439L162.567 53.6941C160.516 52.5022 157.676 52.6709 154.541 54.4806L153.422 53.8304C156.557 52.0206 159.397 51.8527 161.448 53.0439Z" fill="black"/>
<path d="M146.588 81.1901L145.469 80.5399C143.445 79.3629 142.19 76.861 142.179 73.3049C142.159 66.146 147.192 57.4285 153.422 53.832L154.541 54.4823C148.31 58.0795 143.278 66.7963 143.298 73.9552C143.309 77.512 144.564 80.014 146.588 81.1901Z" fill="black"/>
<path d="M154.541 54.4814C160.771 50.8841 165.836 53.771 165.857 60.9298C165.877 68.0887 160.844 76.8055 154.614 80.4027C148.384 84 143.319 81.1132 143.298 73.9543C143.279 66.7954 148.311 58.0779 154.541 54.4814Z" fill="#57F7B6" stroke="black" stroke-width="0.7519" stroke-miterlimit="10" stroke-linecap="round" stroke-linejoin="round"/>
<path d="M159.123 59.2969L159.805 60.4025C158.392 62.0673 157.175 64.1376 156.186 66.1358C155.845 66.824 155.532 67.5036 155.247 68.1546C153.971 71.0684 153.265 73.4198 153.251 73.461L152.908 74.6078L149.35 73.9837L150.157 72.0948L152.249 72.4631C152.623 71.3487 153.284 69.52 154.211 67.4584C154.459 66.9064 154.727 66.3378 155.013 65.762C156.115 63.5428 157.493 61.2127 159.123 59.2969Z" fill="white" stroke="white" stroke-width="1.0025" stroke-miterlimit="10"/>
<path d="M238.015 102.524L240.523 101.066C241.422 100.543 242.668 100.618 244.043 101.412L241.535 102.87C240.159 102.076 238.914 102.001 238.015 102.524Z" fill="black"/>
<path d="M325.116 202.353L322.607 203.811C323.494 203.297 324.043 202.201 324.047 200.646L326.555 199.188C326.552 200.743 326.002 201.839 325.116 202.353Z" fill="black"/>
<path d="M324.173 156.275L326.681 154.817L326.555 199.188L324.047 200.646L324.173 156.275Z" fill="black"/>
<path d="M241.535 102.87L244.044 101.412L321.751 146.277L319.243 147.735L241.535 102.87Z" fill="black"/>
<path d="M319.243 147.736L321.751 146.277C324.486 147.856 326.69 151.675 326.681 154.817L324.173 156.275C324.182 153.133 321.977 149.314 319.243 147.736Z" fill="black"/>
<path d="M319.243 147.735C321.977 149.314 324.182 153.133 324.173 156.275L324.047 200.647C324.039 203.78 321.819 205.045 319.085 203.466L241.377 158.602C238.643 157.023 236.438 153.204 236.446 150.071L236.572 105.699C236.581 102.557 238.8 101.293 241.535 102.871L319.243 147.735Z" fill="white" stroke="black" stroke-width="0.7519" stroke-miterlimit="10"/>
<path d="M259.35 119.27C260.047 119.672 260.613 120.653 260.611 121.454L260.571 135.345C260.569 136.137 259.999 136.462 259.302 136.06L248.395 129.762C247.698 129.36 247.132 128.38 247.134 127.588L247.173 113.697C247.176 112.896 247.746 112.571 248.442 112.974L259.35 119.27Z" fill="#FCCC54" stroke="black" stroke-width="0.7519" stroke-miterlimit="10" stroke-linejoin="round"/>
<path d="M261.46 150.967L261.452 153.718L247.083 145.422L247.091 142.672L261.46 150.967Z" fill="black"/>
<path d="M275.846 153.283L275.839 155.807L247.101 139.216L247.109 136.692L275.846 153.283Z" fill="black"/>
<path d="M275.719 128.72C276.416 129.122 276.974 130.099 276.972 130.9L276.932 144.791C276.93 145.583 276.367 145.912 275.67 145.51L264.763 139.212C264.066 138.81 263.5 137.83 263.502 137.038L263.542 123.146C263.544 122.345 264.114 122.021 264.811 122.423L275.719 128.72Z" fill="#FCCC54" stroke="black" stroke-width="0.7519" stroke-miterlimit="10" stroke-linejoin="round"/>
<path d="M299.23 142.294C299.927 142.696 300.485 143.673 300.483 144.474L300.443 158.365C300.441 159.157 299.879 159.486 299.182 159.084L288.267 152.782C287.57 152.379 287.012 151.403 287.014 150.611L287.054 136.72C287.056 135.919 287.619 135.59 288.316 135.992L299.23 142.294Z" fill="#FCCC54" stroke="black" stroke-width="0.7519" stroke-miterlimit="10" stroke-linejoin="round"/>
<path d="M305.279 168.123C307.309 169.296 308.948 172.133 308.941 174.466C308.935 176.807 307.285 177.738 305.255 176.566C303.225 175.394 301.586 172.565 301.593 170.224C301.601 167.891 303.25 166.952 305.279 168.123ZM305.259 175.418C306.736 176.271 307.937 175.586 307.941 173.889C307.946 172.192 306.753 170.134 305.276 169.282C303.799 168.429 302.599 169.105 302.594 170.802C302.589 172.499 303.782 174.565 305.259 175.418Z" fill="black"/>
<path d="M315.599 151.745C316.288 152.144 316.854 153.124 316.852 153.925L316.812 167.816C316.81 168.608 316.241 168.932 315.551 168.535L304.636 162.233C303.939 161.831 303.381 160.854 303.383 160.062L303.423 146.171C303.425 145.37 303.988 145.041 304.685 145.443L315.599 151.745Z" fill="#FCCC54" stroke="black" stroke-width="0.7519" stroke-miterlimit="10" stroke-linejoin="round"/>
<path d="M282.288 137.351C282.507 137.478 282.688 137.783 282.688 138.035L282.682 139.854C282.681 140.107 282.499 140.202 282.279 140.075L281.287 139.503C281.067 139.376 280.893 139.075 280.894 138.822L280.899 137.003C280.9 136.75 281.075 136.651 281.294 136.778L282.288 137.351Z" fill="black"/>
<path d="M282.275 141.755C282.494 141.882 282.676 142.187 282.675 142.439L282.669 144.259C282.669 144.511 282.486 144.606 282.266 144.48L281.274 143.907C281.054 143.78 280.88 143.479 280.881 143.227L280.887 141.407C280.887 141.155 281.062 141.055 281.282 141.182L282.275 141.755Z" fill="black"/>
<path d="M293.109 176.545C293.419 176.724 293.661 177.143 293.66 177.491L293.647 181.869C293.646 182.226 293.403 182.365 293.093 182.185L268.347 167.898C268.043 167.723 267.795 167.3 267.796 166.944L267.808 162.565C267.809 162.218 268.06 162.083 268.363 162.258L293.109 176.545Z" fill="#F97D8C" stroke="black" stroke-width="0.7519" stroke-miterlimit="10" stroke-linejoin="round"/>
<path d="M295.88 162.696C297.91 163.868 299.548 166.706 299.541 169.039C299.535 171.38 297.885 172.311 295.855 171.139C293.825 169.967 292.187 167.138 292.194 164.797C292.2 162.464 293.849 161.524 295.88 162.696ZM295.859 169.99C297.336 170.843 298.544 170.162 298.549 168.465C298.554 166.768 297.353 164.706 295.876 163.853C294.399 163 293.198 163.676 293.193 165.373C293.189 167.071 294.382 169.138 295.859 169.99Z" fill="black"/>
<path d="M315.028 173.752C317.058 174.925 318.696 177.762 318.689 180.095C318.683 182.436 317.033 183.367 315.003 182.195C312.981 181.028 311.335 178.194 311.342 175.853C311.349 173.52 313.005 172.585 315.028 173.752ZM315.007 181.046C316.484 181.899 317.692 181.219 317.698 179.521C317.703 177.824 316.502 175.763 315.025 174.91C313.548 174.057 312.347 174.732 312.342 176.429C312.338 178.127 313.53 180.193 315.007 181.046Z" fill="black"/>
<path d="M273.48 54.8235C268.786 52.1133 264.534 51.8606 261.464 53.645L258.092 55.6052C261.161 53.8216 265.413 54.0735 270.108 56.7837C279.431 62.1661 286.962 75.2104 286.932 85.923C286.917 91.246 285.037 94.9922 282.006 96.7536L285.378 94.7942C288.409 93.0328 290.289 89.2866 290.304 83.9636C290.334 73.2502 282.803 60.206 273.48 54.8235Z" fill="black"/>
<path d="M270.108 56.7821C279.431 62.1645 286.962 75.2087 286.932 85.9213C286.902 96.6339 279.32 100.959 269.998 95.5774C260.67 90.1918 253.139 77.142 253.169 66.4294C253.2 55.7168 260.781 51.3973 270.108 56.7821Z" fill="white" stroke="black" stroke-width="0.7519" stroke-miterlimit="10"/>
<path d="M269.433 54.5598C263.853 51.338 258.798 51.0378 255.149 53.1588L251.14 55.4888C254.788 53.3678 259.844 53.668 265.424 56.8899C276.507 63.2884 285.46 78.7958 285.424 91.5312C285.406 97.8592 283.171 102.313 279.568 104.407L283.577 102.077C287.18 99.9826 289.415 95.5292 289.433 89.2011C289.469 76.4657 280.516 60.9584 269.433 54.5598Z" fill="#FCCC54" stroke="black" stroke-width="0.7519" stroke-miterlimit="10" stroke-linejoin="round"/>
<path d="M265.424 56.8896C276.507 63.2882 285.46 78.7956 285.424 91.5309C285.387 104.265 276.376 109.408 265.294 103.009C254.205 96.6076 245.252 81.0932 245.288 68.3578C245.323 55.6232 254.335 50.4879 265.424 56.8896Z" fill="white" stroke="black" stroke-width="0.7519" stroke-miterlimit="10"/>
<path d="M281.493 89.2614C281.484 94.6272 279.493 98.3147 276.317 99.8789C273.425 101.292 269.557 100.95 265.31 98.4945C256.389 93.3465 249.184 80.8709 249.213 70.6224C249.232 64.5169 251.811 60.5735 255.802 59.4925C255.802 59.4925 255.811 59.483 255.821 59.483C258.504 58.7527 261.822 59.3222 265.415 61.398C274.326 66.5468 281.531 79.0224 281.493 89.2614Z" fill="black"/>
<path d="M281.493 89.2606C281.484 94.6264 279.493 98.3139 276.317 99.8781C273.625 100.637 270.278 100.086 266.657 97.9916C257.736 92.8436 250.54 80.3585 250.569 70.1195C250.578 64.7252 252.598 61.0282 255.802 59.4925C255.802 59.4925 255.812 59.483 255.821 59.483C258.505 58.7527 261.822 59.3222 265.416 61.398C274.326 66.546 281.531 79.0216 281.493 89.2606Z" fill="white" stroke="black" stroke-width="0.7519" stroke-miterlimit="10"/>
<path d="M266.075 62.5852C266.243 62.6873 266.377 62.9312 266.376 63.134L266.369 65.8807C266.368 66.0779 266.234 66.1642 266.067 66.062C265.903 65.963 265.77 65.7135 265.77 65.5163L265.778 62.7697C265.778 62.5669 265.912 62.4862 266.075 62.5852Z" fill="#9CA1E2"/>
<path d="M259.046 60.598C259.149 60.6606 259.248 60.7865 259.303 60.9322L260.432 64.0036C260.518 64.2301 260.465 64.4178 260.321 64.4352C260.275 64.44 260.224 64.4241 260.173 64.394C260.07 64.3315 259.968 64.2048 259.914 64.0551L258.784 60.9837C258.703 60.7603 258.752 60.5695 258.896 60.5584C258.943 60.5513 258.995 60.5663 259.046 60.598Z" fill="#9CA1E2"/>
<path d="M253.885 63.6923C253.936 63.7232 253.987 63.7699 254.035 63.8309L256 66.401C256.139 66.5839 256.191 66.8421 256.104 66.9633C256.049 67.0464 255.949 67.0504 255.846 66.9878C255.795 66.957 255.744 66.9102 255.697 66.8492L253.731 64.2792C253.588 64.0875 253.54 63.8381 253.623 63.7137C253.681 63.6321 253.781 63.6298 253.885 63.6923Z" fill="#9CA1E2"/>
<path d="M254.252 72.4257C254.415 72.5247 254.549 72.7687 254.548 72.9714C254.547 73.1686 254.412 73.2494 254.25 73.1504L251.979 71.7699C251.811 71.6678 251.677 71.4238 251.678 71.2274C251.678 71.0247 251.813 70.9439 251.98 71.0461L254.252 72.4257Z" fill="#9CA1E2"/>
<path d="M255.809 80.5078C255.912 80.5704 256.012 80.6987 256.067 80.8484C256.152 81.0749 256.099 81.2626 255.96 81.2769L253.987 81.4535C253.939 81.459 253.888 81.444 253.837 81.4131C253.733 81.3497 253.633 81.2214 253.575 81.0701C253.494 80.8468 253.543 80.6559 253.687 80.6448L255.66 80.4682C255.707 80.4619 255.759 80.4769 255.809 80.5078Z" fill="#9CA1E2"/>
<path d="M260.108 88.3436C260.159 88.3745 260.21 88.4212 260.256 88.4838C260.399 88.6699 260.451 88.9218 260.365 89.0429L259.223 90.7346C259.168 90.8178 259.068 90.8218 258.965 90.7592C258.914 90.7283 258.862 90.6816 258.816 90.6206C258.672 90.4289 258.625 90.1795 258.707 90.0551L259.849 88.3697C259.902 88.2858 260.005 88.2802 260.108 88.3436Z" fill="#9CA1E2"/>
<path d="M265.991 93.8314C266.159 93.9336 266.293 94.1775 266.292 94.3739L266.285 97.1206C266.284 97.3233 266.149 97.4041 265.982 97.3019C265.819 97.2029 265.686 96.959 265.686 96.7563L265.693 94.0096C265.694 93.8132 265.828 93.7324 265.991 93.8314Z" fill="#9CA1E2"/>
<path d="M271.889 95.5012C271.992 95.5638 272.094 95.6929 272.149 95.8426L273.278 98.9084C273.359 99.1318 273.31 99.3226 273.166 99.34C273.119 99.344 273.067 99.3282 273.017 99.2973C272.913 99.2339 272.812 99.1088 272.755 98.9567L271.63 95.8877C271.544 95.6612 271.597 95.4735 271.742 95.4624C271.787 95.4561 271.838 95.4703 271.889 95.5012Z" fill="#9CA1E2"/>
<path d="M276.215 92.9057C276.266 92.9365 276.317 92.9841 276.365 93.0466L278.331 95.6167C278.474 95.8028 278.522 96.0515 278.439 96.1758C278.381 96.2574 278.28 96.2629 278.176 96.2004C278.126 96.1695 278.074 96.122 278.027 96.0594L276.061 93.4894C275.922 93.3064 275.87 93.0545 275.952 92.9302C276.01 92.8486 276.111 92.8431 276.215 92.9057Z" fill="#9CA1E2"/>
<path d="M280.083 88.1219C280.251 88.224 280.385 88.4672 280.384 88.6699C280.383 88.8671 280.249 88.9479 280.082 88.8457L277.81 87.4653C277.647 87.3663 277.514 87.1224 277.514 86.9259C277.515 86.7232 277.65 86.6424 277.812 86.7414L280.083 88.1219Z" fill="#9CA1E2"/>
<path d="M278.224 78.4809C278.328 78.5442 278.428 78.6702 278.486 78.8214C278.567 79.0448 278.518 79.2356 278.374 79.2531L276.401 79.4297C276.354 79.4336 276.302 79.4178 276.252 79.3869C276.148 79.3243 276.047 79.1984 275.99 79.0464C275.909 78.823 275.962 78.629 276.101 78.6147L278.074 78.4381C278.122 78.4341 278.173 78.45 278.224 78.4809Z" fill="#9CA1E2"/>
<path d="M273.097 69.1352C273.148 69.1661 273.2 69.2136 273.247 69.277C273.39 69.4631 273.438 69.7118 273.356 69.8361L272.214 71.5278C272.159 71.611 272.056 71.6134 271.953 71.5508C271.902 71.5199 271.852 71.474 271.806 71.4138C271.662 71.2221 271.61 70.9703 271.697 70.8483L272.834 69.1542C272.892 69.0766 272.993 69.0726 273.097 69.1352Z" fill="#9CA1E2"/>
<path d="M265.695 80.5898C265.841 80.6738 265.971 80.6809 266.066 80.6255L264.318 81.6408C264.223 81.6955 264.092 81.6891 263.946 81.6044C264.471 81.3003 265.171 80.894 265.695 80.5898Z" fill="#2F97ED"/>
<path d="M278.379 82.3012C278.552 82.401 278.655 82.7408 278.48 82.7685L265.078 81.7888C265.018 82.4105 264.536 82.6544 263.946 82.3131C263.439 82.0208 263.018 81.3888 262.872 80.7822L257.812 73.773C257.584 73.4585 257.727 73.1718 257.957 73.3049C257.993 73.3263 258.032 73.3572 258.071 73.4015L263.694 79.5815C263.779 79.606 263.862 79.6369 263.953 79.6884C264.133 79.7922 264.3 79.9442 264.449 80.1145L278.286 82.2743C278.318 82.2743 278.349 82.2838 278.379 82.3012ZM263.947 81.6042C264.237 81.7722 264.471 81.6328 264.472 81.3057C264.472 80.9722 264.241 80.5715 263.95 80.4036C263.665 80.2388 263.427 80.3687 263.426 80.7022C263.425 81.03 263.662 81.4395 263.947 81.6042Z" fill="#F97D8C" stroke="black" stroke-width="0.7519" stroke-miterlimit="10" stroke-linejoin="round"/>
<path d="M263.95 80.4032C264.24 80.5711 264.472 80.9719 264.472 81.3053C264.471 81.6324 264.238 81.7718 263.947 81.6039C263.662 81.4392 263.425 81.0297 263.426 80.7018C263.428 80.3684 263.666 80.2385 263.95 80.4032Z" fill="white"/>
<path d="M320.268 105.254L322.819 103.771L322.766 122.427L320.215 123.91L320.268 105.254Z" fill="black"/>
<path d="M313.789 85.601L316.34 84.1191L327.763 106.626L325.212 108.108L313.789 85.601Z" fill="black"/>
<path d="M313.789 85.6016L325.212 108.109L320.268 105.254L320.215 123.91L307.176 116.382L307.229 97.7255L302.277 94.8664L313.789 85.6016Z" fill="#55C2F9" stroke="black" stroke-width="0.7519" stroke-miterlimit="10" stroke-linecap="round" stroke-linejoin="round"/>
<path d="M68.0005 75.6184C73.5809 72.3965 78.6363 72.0964 82.285 74.2174L86.2941 76.5474C82.6446 74.4264 77.59 74.7266 72.0096 77.9485C60.9271 84.347 51.9736 99.8544 52.01 112.59C52.0282 118.918 54.2625 123.371 57.8653 125.465L53.8562 123.135C50.2526 121.041 48.0183 116.588 48.0001 110.26C47.9645 97.5251 56.918 82.017 68.0005 75.6184Z" fill="black"/>
<path d="M72.0096 77.9485C60.9271 84.347 51.9736 99.8544 52.01 112.59C52.0464 125.324 61.0578 130.467 72.1403 124.068C83.2291 117.666 92.1818 102.152 92.1462 89.4166C92.1105 76.6821 83.0984 71.5467 72.0096 77.9485Z" fill="white" stroke="black" stroke-width="0.7519" stroke-miterlimit="10"/>
<path d="M72.0228 82.5369C63.1453 87.662 55.9737 100.084 56.003 110.284C56.0323 120.485 63.2506 124.603 72.1273 119.478C81.0096 114.35 88.1812 101.924 88.1519 91.7226C88.1234 81.5224 80.9051 77.4087 72.0228 82.5369Z" fill="#55C2F9" stroke="black" stroke-width="0.7519" stroke-miterlimit="10" stroke-linecap="round" stroke-linejoin="round"/>
<path d="M72.0428 89.0411C66.2913 92.362 61.6454 100.409 61.6636 107.018C61.6826 113.626 66.3586 116.295 72.1101 112.975C77.8648 109.652 82.5107 101.601 82.4924 94.9922C82.4734 88.3838 77.7967 85.7187 72.0428 89.0411Z" fill="#F97D8C" stroke="black" stroke-width="0.7519" stroke-miterlimit="10" stroke-linejoin="round"/>
<path d="M72.0634 96.0319C69.6723 97.4123 67.7406 100.759 67.7486 103.506C67.7565 106.253 69.7008 107.363 72.0919 105.983C74.4845 104.601 76.4162 101.254 76.4083 98.5069C76.3996 95.7586 74.456 94.6506 72.0634 96.0319Z" fill="#FCCC54" stroke="black" stroke-width="0.7519" stroke-miterlimit="10" stroke-linejoin="round"/>
<path d="M72.1807 101.271C71.9819 101.118 72.187 100.812 72.4041 100.938L96.0849 114.662C97.181 115.285 97.4368 116.753 96.6155 117.711C95.9185 118.523 94.7052 118.645 93.8609 117.987L72.1807 101.271Z" fill="black"/>
<path d="M87.9225 113.357L87.2817 116.02C87.1756 116.46 87.2635 116.925 87.5225 117.297L91.4073 122.867L93.3501 117.588L87.9225 113.357Z" fill="#FCCC54" stroke="black" stroke-width="0.7519" stroke-miterlimit="10" stroke-linejoin="round"/>
<path d="M89.7013 111.03L92.642 109.671C93.0419 109.487 93.4902 109.434 93.9219 109.522L98.9067 110.534L94.824 113.944L89.7013 111.03Z" fill="#FCCC54" stroke="black" stroke-width="0.7519" stroke-miterlimit="10" stroke-linejoin="round"/>
<path d="M190.854 281.864C212.97 281.864 230.899 271.991 230.899 259.811C230.899 247.631 212.97 237.758 190.854 237.758C168.737 237.758 150.808 247.631 150.808 259.811C150.808 271.991 168.737 281.864 190.854 281.864Z" fill="#D7E4F9"/>
<path d="M174.625 109.724C172.574 112.618 165.447 124.579 162.536 130.516H162.535C162.535 130.516 160.168 132.089 160.246 133.853C160.324 135.617 157.992 137.122 159.086 139.398C159.942 141.181 164.306 139.475 166.161 138.65C166.738 138.741 167.364 138.78 168.058 138.739C172.896 138.455 180.418 129.743 180.418 129.743L180.24 105.674C180.24 105.674 177.224 106.055 174.625 109.724Z" fill="#03BCFF" stroke="black" stroke-width="0.7519" stroke-miterlimit="10" stroke-linejoin="round"/>
<path d="M187.076 78.8898C187.076 78.8898 187.547 73.6697 194.023 72.2362C200.499 70.8027 205.814 74.3587 205.521 79.3951C205.226 84.4314 208.583 84.5264 207.002 90.3342C205.421 96.1419 202.757 98.5401 203.361 101.233C203.964 103.926 206.574 101.809 206.574 101.809C206.574 101.809 204.596 107.558 200.539 107.782C196.483 108.005 192.889 104.448 192.354 99.9752C191.821 95.5036 187.076 78.8898 187.076 78.8898Z" fill="black" stroke="black" stroke-width="0.7519" stroke-miterlimit="10" stroke-linejoin="round"/>
<path d="M189.88 77.9041C189.88 77.9041 193.464 75.6699 197.455 77.8106C201.446 79.9514 202.365 86.4474 200.97 88.5406C199.575 90.6331 189.88 77.9041 189.88 77.9041Z" fill="white" stroke="black" stroke-width="0.7519" stroke-miterlimit="10"/>
<path d="M173.646 242.674C173.646 242.674 172.176 246.576 168.425 248.854C164.675 251.132 161.071 256.207 166.292 256.869C171.514 257.531 175.485 256.28 177.396 253.559C179.308 250.838 182.544 250.985 183.353 250.176C184.162 249.368 183.794 245.469 183.353 243.41C182.912 241.351 173.646 242.674 173.646 242.674Z" fill="black" stroke="black" stroke-width="0.7519" stroke-miterlimit="10" stroke-linejoin="round"/>
<path d="M172.957 151.65C172.957 151.65 169.961 159.394 168.981 176.781C168.146 191.571 170.055 208.269 171.961 222.819C174.232 240.16 171.878 243.515 174.928 245.361C177.978 247.206 183.847 246.145 184.241 243.644C184.635 241.144 187.358 226.963 186.419 216.278C185.48 205.592 185.644 199.726 189.52 188.4C193.396 177.074 191.578 159.406 191.578 159.406L172.957 151.65Z" fill="#005BC3" stroke="black" stroke-width="0.7519" stroke-miterlimit="10"/>
<path d="M199.093 253.265C199.093 253.265 198.945 256.942 197.842 263.267C196.739 269.592 199.093 274.004 202.181 272.755C205.27 271.504 208.212 269.077 207.992 264.812C207.771 260.546 209.486 255.251 208.003 253.265C206.52 251.28 199.093 253.265 199.093 253.265Z" fill="black" stroke="black" stroke-width="0.7519" stroke-miterlimit="10" stroke-linejoin="round"/>
<path d="M179.785 157.154C179.785 157.154 179.408 167.921 183.136 178.987C183.136 178.987 180.881 189.74 187.513 213.699C194.597 239.292 197.582 252.609 198.986 254.148C200.39 255.686 205.707 255.75 208.354 253.854C211.001 251.957 208.105 223.701 206.339 214.582C204.575 205.463 203.899 204.902 206.046 191.049C208.191 177.194 206.584 168.398 202.417 158.249L179.785 157.154Z" fill="#005BC3" stroke="black" stroke-width="0.7519" stroke-miterlimit="10"/>
<path d="M207.819 132.073C205.17 139.955 201.828 148.334 201.828 148.334L203.502 158.53C203.502 158.53 201.776 160.718 195.782 161.926C193.85 162.325 191.48 162.614 188.573 162.703C176.658 163.056 172.621 152.8 172.621 152.8L175.666 134.404C175.666 134.404 171.906 126.463 173.178 122.017C174.441 117.571 179.165 106.839 180.238 105.677C181.311 104.505 193.635 106.449 201.277 110.564C201.277 110.564 209.544 115.42 210.88 118.856C211.453 120.345 209.836 126.066 207.819 132.073Z" fill="#03BCFF" stroke="black" stroke-width="0.7519" stroke-miterlimit="10" stroke-linejoin="round"/>
<path d="M201.828 148.333L203.503 158.529C203.503 158.529 201.776 160.717 195.782 161.925C195.058 155.441 194.029 144.676 194.909 143.023C196.181 140.621 203.767 130.879 203.767 130.879L207.818 132.072C205.17 139.954 201.828 148.333 201.828 148.333Z" fill="#03BCFF" stroke="black" stroke-width="0.7519" stroke-miterlimit="10" stroke-linejoin="round"/>
<path d="M197.855 98.9648C196.879 101.905 196.683 104.687 197.677 107.77L201.275 110.565C201.275 110.565 195.626 117.076 189.537 118.309C183.448 119.542 183.195 112.055 184.68 106.162C186.165 100.268 197.855 98.9648 197.855 98.9648Z" fill="white" stroke="black" stroke-width="0.7519" stroke-miterlimit="10"/>
<path d="M197.855 98.9648C197.855 98.9648 196.302 109.799 189.792 112.194C183.282 114.588 184.777 105.482 184.777 105.482L197.855 98.9648Z" fill="black" stroke="black" stroke-width="0.7519" stroke-miterlimit="10" stroke-linejoin="round"/>
<path d="M179.593 94.6903C179.593 94.6903 176.674 93.0239 176.206 89.6611C175.738 86.2983 177.454 86.0987 177.454 86.0987C177.454 86.0987 178.878 78.878 188.358 77.987C197.837 77.0952 200.734 83.455 201.434 87.3714C202.782 94.9223 197.127 105.341 197.127 105.341L197.403 97.4742L189.385 103.967L179.593 94.6903Z" fill="black" stroke="black" stroke-width="0.7519" stroke-miterlimit="10" stroke-linejoin="round"/>
<path d="M178.841 89.7949C178.841 89.7949 179.819 100.145 183.676 106.48C184.89 108.473 187.373 109.346 189.572 108.565C192.64 107.475 196.771 105.062 197.919 99.847C197.919 99.847 200.153 99.1009 199.85 96.0731C199.584 93.4239 196.895 93.4326 196.378 96.1515C196.208 97.0433 195.736 97.8496 194.974 98.343L194.37 98.7342L192.965 94.4614C192.965 94.4614 182.666 98.6099 178.841 89.7949Z" fill="white" stroke="black" stroke-width="0.7519" stroke-miterlimit="10"/>
<path d="M215.32 144.281C215.263 143.954 215.212 143.603 215.168 143.225C215.129 142.922 214.945 141.661 214.775 140.465C214.991 141.815 215.192 143.108 215.32 144.281Z" fill="white" stroke="black" stroke-width="0.7519" stroke-miterlimit="10"/>
<path d="M214.011 145.558C212.437 144.394 209.755 144.952 208.169 145.44C207.393 145.681 206.881 145.902 206.881 145.902C205.948 146.907 204.549 148.612 203.124 151.105C200.617 155.493 196.604 160.226 196.604 160.226C196.604 160.226 195.719 159.66 193.618 159.279C192.39 159.057 190.61 159.482 189.792 160.346C188.965 161.212 188.396 162.025 189.346 161.935C190.287 161.846 191.501 160.89 191.988 161.094C192.484 161.297 193.354 161.621 193.354 161.621C193.354 161.621 191.075 163.118 189.647 163.423C188.219 163.737 186.185 164.753 186.91 165.676C187.645 166.605 189.665 167.894 190.618 167.984C193.509 168.258 195.37 167.42 196.947 166.556C198.515 165.691 199.303 164.834 199.303 164.834L199.267 164.782C200.707 163.574 207.369 157.995 211.087 154.845C213.065 153.175 214.788 151.488 215.999 149.855L215.997 149.847C216.008 149.735 216.051 149.28 215.945 148.67C215.797 147.774 215.335 146.528 214.011 145.558Z" fill="white" stroke="black" stroke-width="0.7519" stroke-miterlimit="10"/>
<path d="M217.314 141.978C217.216 141.661 217.121 141.318 217.03 140.949C216.953 140.653 216.613 139.426 216.293 138.261C216.243 138.094 216.193 137.927 216.152 137.767C216.065 137.465 215.982 137.179 215.914 136.923C215.885 136.819 215.856 136.715 215.828 136.62C215.799 136.517 215.771 136.422 215.745 136.334C215.677 136.079 215.627 135.92 215.627 135.92C215.116 134.095 214.645 132.22 214.357 130.417C213.298 123.668 211.08 117.641 209.717 117.31C208.347 116.988 203.215 127.732 203.738 130.321C204.112 132.173 205.963 138.215 207.197 142.244L207.221 142.323L207.846 143.999C207.846 143.999 207.82 144.037 207.776 144.113C207.607 144.4 207.139 145.21 206.883 145.902C206.883 145.902 207.394 145.681 208.171 145.44C209.756 144.951 212.439 144.394 214.013 145.558C215.337 146.528 215.798 147.774 215.946 148.671C216.052 149.28 216.009 149.736 215.998 149.848L216 149.855C215.993 149.865 215.995 149.873 215.995 149.873C215.995 149.873 217.436 149.877 217.61 148.739C217.775 147.594 218.598 147.461 218.765 146.283C218.9 145.253 218.041 144.332 217.314 141.978Z" fill="#03BCFF" stroke="black" stroke-width="0.7519" stroke-miterlimit="10" stroke-linejoin="round"/>
<path d="M169.185 120.668L172.215 144.549C172.242 144.76 172.375 144.943 172.568 145.034L186.598 151.6C187.022 151.799 187.505 151.475 187.483 151.008L186.401 128.091C186.39 127.862 186.254 127.656 186.045 127.558L170.067 120.027C169.623 119.818 169.123 120.181 169.185 120.668Z" fill="#FCCC54" stroke="black" stroke-width="0.7519" stroke-miterlimit="10"/>
<path d="M168.353 134.808C168.353 134.808 169.153 130.963 169.344 130.212C169.534 129.461 170.174 128.451 170.174 128.451L171 132.497C171 132.497 174.029 134.441 175.714 134.612C177.397 134.784 180.303 134.177 180.427 135.2C180.551 136.224 178.65 139.116 176.967 139.632C175.284 140.149 172.891 139.784 171.636 139.385C171.636 139.385 169.021 143.886 165.225 144.762C161.43 145.638 157.799 140.885 159.539 137.294C161.279 133.704 165.984 136.701 168.353 134.808Z" fill="white" stroke="black" stroke-width="0.7519" stroke-miterlimit="10"/>
<path d="M196.288 96.5217L190.964 99.9075L190.104 98.215L197.091 94.6328C197.091 94.6328 196.461 96.0568 196.288 96.5217Z" fill="#FCCC54" stroke="black" stroke-width="0.7519" stroke-miterlimit="10" stroke-linejoin="round"/>
<path d="M190.964 99.9114L190.18 99.9525L188.496 100.035L189.536 98.8548L190.106 98.2109C191.814 98.6735 190.964 99.9114 190.964 99.9114Z" fill="white" stroke="black" stroke-width="0.7519" stroke-miterlimit="10" stroke-linejoin="round"/>
<path d="M190.18 99.9512L188.496 100.034L189.536 98.8535C189.875 99.0935 190.156 99.4562 190.18 99.9512Z" fill="black"/>
<path d="M190.854 281.864C212.97 281.864 230.899 271.99 230.899 259.811L275.442 118.5H102.442L150.808 259.811C150.808 271.99 168.737 281.864 190.854 281.864Z" fill="url(#paint3_radial_590_4235)"/>
</g>
<defs>
<linearGradient id="paint0_linear_590_4235" x1="98" y1="332.5" x2="-37.5" y2="23" gradientUnits="userSpaceOnUse">
<stop stop-color="#005BC3" stop-opacity="0.19"/>
<stop offset="0.21" stop-color="#BEFBFF"/>
<stop offset="0.5" stop-color="#F6EA56" stop-opacity="0.214566"/>
<stop offset="1" stop-color="white" stop-opacity="0"/>
</linearGradient>
<linearGradient id="paint1_linear_590_4235" x1="297" y1="332.5" x2="432.5" y2="23" gradientUnits="userSpaceOnUse">
<stop stop-color="#005BC3" stop-opacity="0.19"/>
<stop offset="0.21" stop-color="#BEFBFF"/>
<stop offset="0.5" stop-color="#F6EA56" stop-opacity="0.214566"/>
<stop offset="1" stop-color="white" stop-opacity="0"/>
</linearGradient>
<linearGradient id="paint2_linear_590_4235" x1="103.183" y1="308.159" x2="271.318" y2="337.797" gradientUnits="userSpaceOnUse">
<stop stop-color="#003F88"/>
<stop offset="1" stop-color="#03BCFF"/>
</linearGradient>
<radialGradient id="paint3_radial_590_4235" cx="0" cy="0" r="1" gradientUnits="userSpaceOnUse" gradientTransform="translate(194.942 109) rotate(90.4968) scale(173.007 185.536)">
<stop offset="0.345476" stop-color="white" stop-opacity="0"/>
<stop offset="0.606319" stop-color="#F6EA56" stop-opacity="0.214566"/>
<stop offset="1" stop-color="#BEFBFF"/>
</radialGradient>
<clipPath id="clip0_590_4235">
<rect width="396" height="396" fill="white" transform="translate(-1.5)"/>
</clipPath>
</defs>
</svg>
