<svg width="101" height="102" viewBox="0 0 101 102" fill="none" xmlns="http://www.w3.org/2000/svg">
<circle cx="50.8448" cy="51.0966" r="50.1529" fill="url(#paint0_linear_69_5101)"/>
<path d="M39.3261 35.4521L39.3261 35.4521C38.9451 35.9731 38.2139 36.0865 37.6929 35.7054L37.6929 35.7054C37.1718 35.3244 37.0584 34.5931 37.4394 34.0722L37.4394 34.0721C39.3868 31.4096 42.5379 29.6765 46.0937 29.6765C49.6495 29.6765 52.8007 31.4096 54.748 34.0721L54.9902 33.895L54.748 34.0722C55.1291 34.5932 55.0156 35.3244 54.4946 35.7054L54.4946 35.7054C53.9736 36.0865 53.2424 35.9731 52.8613 35.4521C51.3352 33.3654 48.8723 32.014 46.0937 32.014C43.3152 32.014 40.8523 33.3654 39.3261 35.4521Z" fill="white" stroke="#E21B22" stroke-width="0.6"/>
<path d="M38.4042 63.6084L38.404 63.6079C38.3951 63.5883 38.3854 63.5686 38.3747 63.5484L38.4042 63.6084ZM38.4042 63.6084C38.659 64.1666 38.8502 64.7571 39.0162 65.2701C39.0478 65.3676 39.0785 65.4624 39.1085 65.5537C40.1296 68.655 43.0397 70.8015 46.3674 70.8015H57.5816C61.8031 70.8015 65.2253 67.3793 65.2253 63.1577L65.2254 49.939C65.2254 48.9621 64.4335 48.1702 63.4566 48.1702C62.4798 48.1702 61.6879 48.9621 61.6879 49.939V55.4468C61.6879 56.0923 61.1647 56.6155 60.5191 56.6155C59.8736 56.6155 59.3504 56.0923 59.3504 55.4468V48.4702C59.3504 47.4933 58.5585 46.7015 57.5816 46.7015C56.6048 46.7015 55.8129 47.4933 55.8129 48.4702V53.978C55.8129 54.6235 55.2897 55.1468 54.6441 55.1468C53.9986 55.1468 53.4754 54.6235 53.4754 53.978V46.2671C53.4754 45.2902 52.6835 44.4983 51.7066 44.4983C50.7298 44.4983 49.9379 45.2902 49.9379 46.2671L49.9378 52.1421C49.9378 52.7876 49.4146 53.3108 48.7691 53.3108C48.1236 53.3108 47.6003 52.7876 47.6003 52.1421V38.9233C47.6003 37.9465 46.8085 37.1546 45.8316 37.1546C44.8548 37.1546 44.0628 37.9465 44.0628 38.9233V55.814C44.0628 56.2802 43.7858 56.7018 43.3579 56.8867L43.3578 56.8868C42.9299 57.0718 42.433 56.9847 42.0933 56.6653C41.9994 56.5769 41.9048 56.4876 41.8095 56.3978C40.8147 55.4593 39.7483 54.4532 38.5876 53.6447C37.3148 52.7579 36.065 52.2093 34.843 52.2093C34.3655 52.2093 33.9134 52.452 33.6278 52.801C33.3385 53.1546 33.1958 53.6521 33.4145 54.1458L33.4187 54.1553L33.4235 54.1644L38.3746 63.5481L38.4042 63.6084ZM41.2338 52.7304L41.7253 53.1382V52.4995V38.9233C41.7253 36.6555 43.5638 34.8171 45.8316 34.8171C48.0995 34.8171 49.9378 36.6555 49.9378 38.9233V42.1116V42.5358L50.3378 42.3944C50.7656 42.2432 51.2262 42.1608 51.7066 42.1608C53.3776 42.1608 54.8161 43.159 55.4572 44.5927L55.5813 44.8702L55.8572 44.7424C56.3812 44.4996 56.9652 44.364 57.5816 44.364C59.0353 44.364 60.3127 45.1191 61.0429 46.2599L61.1959 46.4988L61.443 46.3595C62.0376 46.0241 62.7243 45.8327 63.4566 45.8327C65.7245 45.8327 67.5629 47.6712 67.5629 49.939L67.5628 63.1577C67.5628 68.6702 63.0941 73.139 57.5816 73.139H46.3674C42.021 73.139 38.2221 70.3357 36.8882 66.2847C36.851 66.1717 36.8155 66.0623 36.781 65.956C36.6196 65.4591 36.4801 65.0297 36.2951 64.6171L36.2912 64.6084L36.2867 64.5999L31.3347 55.2147L31.0694 55.3547L31.3347 55.2147C31.1334 54.8332 31.0045 54.393 30.9789 53.969C30.8472 51.7872 32.5796 49.8718 34.843 49.8718C36.7558 49.8718 38.4803 50.7211 39.9238 51.7267C40.3749 52.041 40.813 52.3813 41.2338 52.7304Z" fill="white" stroke="#E21B22" stroke-width="0.6"/>
<defs>
<linearGradient id="paint0_linear_69_5101" x1="6.54117" y1="16.4055" x2="108.973" y2="93.7414" gradientUnits="userSpaceOnUse">
<stop offset="0.0173564" stop-color="#E21B22"/>
<stop offset="0.598958" stop-color="#E21B22"/>
<stop offset="1" stop-color="#AD0B11"/>
</linearGradient>
</defs>
</svg>
