<svg width="21" height="21" viewBox="0 0 21 21" fill="none" xmlns="http://www.w3.org/2000/svg">
<path d="M10.572 2.41699C5.83594 2.41699 1.96094 6.16699 1.96094 10.7503C1.96094 15.3336 5.83594 19.0836 10.572 19.0836C15.3081 19.0836 19.1831 15.3336 19.1831 10.7503C19.1831 6.16699 15.3081 2.41699 10.572 2.41699ZM11.4331 11.7503C11.4331 12.0836 11.2609 12.3336 11.0026 12.5003L8.76372 13.7503C8.33317 14.0003 7.8165 13.8336 7.55817 13.417C7.29983 13.0003 7.47205 12.5003 7.90261 12.2503L9.71094 11.2503V7.58366C9.71094 7.08366 10.0554 6.75032 10.572 6.75032C11.0887 6.75032 11.4331 7.08366 11.4331 7.58366V11.7503Z" fill="#254281"/>
</svg>
