<svg width="101" height="101" viewBox="0 0 101 101" fill="none" xmlns="http://www.w3.org/2000/svg">
<circle cx="50.1529" cy="50.1529" r="50.1529" fill="#005BC3"/>
<path d="M38.6344 34.5082L38.6344 34.5082C38.2534 35.0292 37.5221 35.1427 37.0011 34.7616L37.0011 34.7616C36.4801 34.3806 36.3666 33.6493 36.7477 33.1283L36.7477 33.1283C38.695 30.4657 41.8462 28.7326 45.4019 28.7326C48.9577 28.7326 52.109 30.4657 54.0562 33.1283L54.2984 32.9512L54.0562 33.1283C54.4373 33.6493 54.3239 34.3806 53.8029 34.7616L53.8029 34.7616C53.2818 35.1427 52.5506 35.0292 52.1695 34.5082C50.6434 32.4216 48.1806 31.0701 45.4019 31.0701C42.6234 31.0701 40.1605 32.4216 38.6344 34.5082Z" fill="white" stroke="white" stroke-width="0.6"/>
<path d="M37.7123 62.6646L37.7121 62.664C37.7032 62.6445 37.6935 62.6247 37.6828 62.6045L37.7123 62.6646ZM37.7123 62.6646C37.9671 63.2228 38.1583 63.8132 38.3243 64.3262C38.3559 64.4238 38.3866 64.5186 38.4166 64.6098C39.4377 67.7111 42.3478 69.8576 45.6756 69.8576H56.8897C61.1112 69.8576 64.5334 66.4354 64.5334 62.2139L64.5335 48.9951C64.5335 48.0182 63.7416 47.2264 62.7648 47.2264C61.7879 47.2264 60.996 48.0182 60.996 48.9951V54.5029C60.996 55.1484 60.4728 55.6717 59.8273 55.6717C59.1817 55.6717 58.6585 55.1484 58.6585 54.5029V47.5264C58.6585 46.5495 57.8666 45.7576 56.8898 45.7576C55.9129 45.7576 55.121 46.5495 55.121 47.5264V53.0342C55.121 53.6797 54.5978 54.2029 53.9523 54.2029C53.3067 54.2029 52.7835 53.6797 52.7835 53.0342V45.3232C52.7835 44.3464 51.9916 43.5545 51.0148 43.5545C50.0379 43.5545 49.246 44.3464 49.246 45.3232L49.2459 51.1982C49.2459 51.8437 48.7227 52.367 48.0772 52.367C47.4317 52.367 46.9084 51.8437 46.9084 51.1982V37.9795C46.9084 37.0026 46.1166 36.2107 45.1397 36.2107C44.1629 36.2107 43.3709 37.0026 43.3709 37.9795V54.8701C43.3709 55.3363 43.0939 55.758 42.666 55.9429L42.6659 55.9429C42.238 56.1279 41.7411 56.0409 41.4014 55.7214C41.3075 55.633 41.2129 55.5438 41.1176 55.4539C40.1228 54.5155 39.0564 53.5094 37.8957 52.7008C36.6229 51.8141 35.3731 51.2654 34.1512 51.2654C33.6736 51.2654 33.2215 51.5081 32.9359 51.8572C32.6466 52.2108 32.5039 52.7083 32.7226 53.202L32.7268 53.2114L32.7316 53.2205L37.6827 62.6043L37.7123 62.6646ZM40.5419 51.7865L41.0334 52.1944V51.5557V37.9795C41.0334 35.7117 42.8719 33.8732 45.1397 33.8732C47.4076 33.8732 49.2459 35.7117 49.2459 37.9795V41.1677V41.5919L49.6459 41.4506C50.0737 41.2994 50.5343 41.217 51.0148 41.217C52.6857 41.217 54.1242 42.2151 54.7653 43.6488L54.8895 43.9264L55.1653 43.7986C55.6893 43.5558 56.2733 43.4201 56.8898 43.4201C58.3434 43.4201 59.6209 44.1752 60.351 45.3161L60.504 45.555L60.7511 45.4156C61.3457 45.0803 62.0324 44.8889 62.7648 44.8889C65.0326 44.8889 66.871 46.7273 66.871 48.9951L66.8709 62.2139C66.8709 67.7264 62.4022 72.1951 56.8897 72.1951H45.6756C41.3291 72.1951 37.5302 69.3919 36.1963 65.3409C36.1591 65.2279 36.1236 65.1185 36.0891 65.0122C35.9277 64.5153 35.7882 64.0858 35.6032 63.6733L35.5993 63.6646L35.5948 63.6561L30.6428 54.2708L30.3775 54.4108L30.6428 54.2708C30.4416 53.8894 30.3126 53.4492 30.287 53.0251C30.1553 50.8433 31.8877 48.9279 34.1512 48.9279C36.0639 48.9279 37.7884 49.7773 39.2319 50.7829C39.683 51.0971 40.1211 51.4374 40.5419 51.7865Z" fill="white" stroke="white" stroke-width="0.6"/>
</svg>
