<svg width="101" height="101" viewBox="0 0 101 101" fill="none" xmlns="http://www.w3.org/2000/svg">
<g clip-path="url(#clip0_1984_72085)">
<g filter="url(#filter0_d_1984_72085)">
<path d="M50.481 100.653C78.1797 100.653 100.634 78.1992 100.634 50.5006C100.634 22.8019 78.1797 0.347656 50.481 0.347656C22.7823 0.347656 0.328125 22.8019 0.328125 50.5006C0.328125 78.1992 22.7823 100.653 50.481 100.653Z" fill="url(#paint0_linear_1984_72085)"/>
</g>
<path d="M38.9637 34.8557C38.5827 35.3767 37.8515 35.4901 37.3306 35.1091C36.8096 34.7281 36.6959 33.9968 37.077 33.4758C39.0244 30.8132 42.1756 29.0801 45.7314 29.0801C49.2872 29.0801 52.4384 30.8132 54.3857 33.4758C54.7668 33.9968 54.6532 34.728 54.1322 35.109C53.6112 35.49 52.8801 35.3767 52.499 34.8557C50.9729 32.769 48.51 31.4176 45.7314 31.4176C42.9529 31.4176 40.4899 32.769 38.9637 34.8557Z" fill="white"/>
<path d="M38.0417 63.0121C38.0329 62.9926 38.0228 62.9722 38.0122 62.952L38.0417 63.0121ZM38.0417 63.0121C38.2965 63.5702 38.4876 64.1607 38.6537 64.6737C38.6852 64.7713 38.7159 64.8661 38.746 64.9573C39.7671 68.0586 42.6771 70.2051 46.0049 70.2051H57.219C61.4406 70.2051 64.8628 66.7829 64.8628 62.5613L64.8629 49.3426C64.8629 48.3657 64.071 47.5738 63.0941 47.5738C62.1172 47.5738 61.3254 48.3657 61.3254 49.3426V54.8504C61.3254 55.4959 60.8021 56.0191 60.1566 56.0191C59.5111 56.0191 58.9879 55.4959 58.9879 54.8504V47.8738C58.9879 46.897 58.196 46.1051 57.2191 46.1051C56.2422 46.1051 55.4504 46.897 55.4504 47.8738V53.3816C55.4504 54.0272 54.9271 54.5504 54.2816 54.5504C53.6361 54.5504 53.1129 54.0272 53.1129 53.3816V45.6707C53.1129 44.6938 52.321 43.902 51.3441 43.902C50.3672 43.902 49.5754 44.6938 49.5754 45.6707L49.5753 51.5457C49.5753 52.1912 49.052 52.7145 48.4065 52.7145C47.7611 52.7145 47.2378 52.1912 47.2378 51.5457V38.327C47.2378 37.3501 46.4459 36.5582 45.469 36.5582C44.4922 36.5582 43.7003 37.3501 43.7003 38.327V55.2176C43.7003 55.6838 43.4232 56.1054 42.9953 56.2904C42.5674 56.4754 42.0705 56.3883 41.7308 56.0689C41.6368 55.9805 41.5422 55.8913 41.447 55.8014C40.4522 54.863 39.3857 53.8568 38.2251 53.0483C36.9523 52.1616 35.7025 51.6129 34.4805 51.6129C34.003 51.6129 33.5509 51.8556 33.2653 52.2047C32.976 52.5582 32.8333 53.0558 33.0519 53.5495L33.0561 53.5589L33.0609 53.568L38.0122 62.952L38.0417 63.0121ZM40.8712 52.134L41.3628 52.5419V51.9031V38.327C41.3628 36.0591 43.2012 34.2207 45.469 34.2207C47.7369 34.2207 49.5753 36.0591 49.5753 38.327V41.5152V41.9394L49.9753 41.798C50.403 41.6469 50.8636 41.5645 51.3441 41.5645C53.015 41.5645 54.4536 42.5626 55.0947 43.9963L55.2188 44.2739L55.4947 44.146C56.0187 43.9033 56.6026 43.7676 57.2191 43.7676C58.6727 43.7676 59.9502 44.5227 60.6804 45.6635L60.8333 45.9025L61.0804 45.7631C61.6751 45.4278 62.3618 45.2363 63.0941 45.2363C65.3619 45.2363 67.2004 47.0748 67.2004 49.3426L67.2003 62.5613C67.2003 68.0738 62.7315 72.5426 57.219 72.5426H46.0049C41.6585 72.5426 37.8596 69.7393 36.5257 65.6883C36.4885 65.5754 36.453 65.466 36.4184 65.3596C36.2571 64.8627 36.1176 64.4333 35.9325 64.0208L35.9286 64.012L35.9241 64.0035L30.9722 54.6183C30.7709 54.2368 30.642 53.7966 30.6164 53.3726C30.4846 51.1908 32.2171 49.2754 34.4805 49.2754C36.3932 49.2754 38.1178 50.1247 39.5613 51.1303C40.0124 51.4446 40.4505 51.7849 40.8712 52.134Z" fill="white"/>
</g>
<defs>
<filter id="filter0_d_1984_72085" x="-4.47188" y="-0.452344" width="109.907" height="109.906" filterUnits="userSpaceOnUse" color-interpolation-filters="sRGB">
<feFlood flood-opacity="0" result="BackgroundImageFix"/>
<feColorMatrix in="SourceAlpha" type="matrix" values="0 0 0 0 0 0 0 0 0 0 0 0 0 0 0 0 0 0 127 0" result="hardAlpha"/>
<feOffset dy="4"/>
<feGaussianBlur stdDeviation="2.4"/>
<feComposite in2="hardAlpha" operator="out"/>
<feColorMatrix type="matrix" values="0 0 0 0 0 0 0 0 0 0.494118 0 0 0 0 0.898039 0 0 0 0.1 0"/>
<feBlend mode="normal" in2="BackgroundImageFix" result="effect1_dropShadow_1984_72085"/>
<feBlend mode="normal" in="SourceGraphic" in2="effect1_dropShadow_1984_72085" result="shape"/>
</filter>
<linearGradient id="paint0_linear_1984_72085" x1="0.328125" y1="50.5006" x2="100.634" y2="50.5006" gradientUnits="userSpaceOnUse">
<stop stop-color="#4063A9"/>
<stop offset="1" stop-color="#254281"/>
</linearGradient>
<clipPath id="clip0_1984_72085">
<rect width="101" height="101" fill="white"/>
</clipPath>
</defs>
</svg>
