<svg width="17" height="17" viewBox="0 0 17 17" fill="none" xmlns="http://www.w3.org/2000/svg">
<path d="M2.6686 5.97424C2.56745 5.51858 2.58298 5.04476 2.71376 4.59671C2.84454 4.14866 3.08633 3.74089 3.41671 3.41119C3.7471 3.0815 4.15538 2.84056 4.60371 2.71072C5.05203 2.58088 5.52588 2.56634 5.98132 2.66845C6.232 2.2764 6.57733 1.95376 6.9855 1.73028C7.39366 1.50679 7.85151 1.38965 8.31685 1.38965C8.7822 1.38965 9.24005 1.50679 9.64821 1.73028C10.0564 1.95376 10.4017 2.2764 10.6524 2.66845C11.1085 2.5659 11.5832 2.58037 12.0322 2.71053C12.4813 2.84068 12.8901 3.08229 13.2207 3.41288C13.5513 3.74347 13.7929 4.15229 13.923 4.60133C14.0532 5.05037 14.0677 5.52503 13.9651 5.98117C14.3572 6.23184 14.6798 6.57718 14.9033 6.98534C15.1268 7.39351 15.2439 7.85136 15.2439 8.3167C15.2439 8.78204 15.1268 9.2399 14.9033 9.64806C14.6798 10.0562 14.3572 10.4016 13.9651 10.6522C14.0672 11.1077 14.0527 11.5815 13.9228 12.0299C13.793 12.4782 13.5521 12.8865 13.2224 13.2168C12.8927 13.5472 12.4849 13.789 12.0368 13.9198C11.5888 14.0506 11.115 14.0661 10.6593 13.965C10.409 14.3585 10.0634 14.6825 9.6545 14.907C9.24564 15.1315 8.78675 15.2492 8.32032 15.2492C7.85389 15.2492 7.39499 15.1315 6.98614 14.907C6.57728 14.6825 6.23167 14.3585 5.98132 13.965C5.52588 14.0671 5.05203 14.0525 4.60371 13.9227C4.15538 13.7928 3.7471 13.5519 3.41671 13.2222C3.08633 12.8925 2.84454 12.4847 2.71376 12.0367C2.58298 11.5886 2.56745 11.1148 2.6686 10.6592C2.27354 10.4091 1.94813 10.0633 1.72264 9.65372C1.49715 9.24416 1.37891 8.78423 1.37891 8.3167C1.37891 7.84917 1.49715 7.38924 1.72264 6.97968C1.94813 6.57013 2.27354 6.22425 2.6686 5.97424Z" fill="#E6E8FF" stroke="#5461FF" stroke-width="1.38607" stroke-linecap="round" stroke-linejoin="round"/>
<path d="M6.23828 8.31674L7.62436 9.70281L10.3965 6.93066" fill="#E6E8FF"/>
<path d="M6.23828 8.31674L7.62436 9.70281L10.3965 6.93066" stroke="#5461FF" stroke-width="1.38607" stroke-linecap="round" stroke-linejoin="round"/>
</svg>
