<svg width="20" height="20" viewBox="0 0 20 20" fill="none" xmlns="http://www.w3.org/2000/svg">
<rect width="20" height="20" rx="10" fill="#005BC3"/>
<g clip-path="url(#clip0_1454_5258)">
<path d="M11.7109 8.88353L13.6413 6.95312L15.5718 8.88353" stroke="white" stroke-linecap="round" stroke-linejoin="round"/>
<path d="M11.7109 11.9725L13.6413 13.9029L15.5718 11.9725" stroke="white" stroke-linecap="round" stroke-linejoin="round"/>
<path d="M7.25728 7.98624C8.15013 7.98624 8.87394 7.26244 8.87394 6.36959C8.87394 5.47673 8.15013 4.75293 7.25728 4.75293C6.36443 4.75293 5.64062 5.47673 5.64062 6.36959C5.64062 7.26244 6.36443 7.98624 7.25728 7.98624Z" fill="white"/>
<path d="M10.0869 10.8154C10.0869 10.065 9.78882 9.34541 9.25825 8.81484C8.72768 8.28428 8.00808 7.98621 7.25773 7.98621C6.5074 7.98621 5.78779 8.28428 5.25722 8.81484C4.72666 9.34541 4.42859 10.065 4.42859 10.8154V12.0278H5.64108L6.04525 15.2611H8.47023L8.87439 12.0278H10.0869V10.8154Z" fill="white"/>
<path d="M7.25728 7.98624C8.15013 7.98624 8.87394 7.26244 8.87394 6.36959C8.87394 5.47673 8.15013 4.75293 7.25728 4.75293C6.36443 4.75293 5.64062 5.47673 5.64062 6.36959C5.64062 7.26244 6.36443 7.98624 7.25728 7.98624Z" stroke="white" stroke-linecap="round" stroke-linejoin="round"/>
<path d="M10.0869 10.8154C10.0869 10.065 9.78882 9.34541 9.25825 8.81484C8.72768 8.28428 8.00808 7.98621 7.25773 7.98621C6.5074 7.98621 5.78779 8.28428 5.25722 8.81484C4.72666 9.34541 4.42859 10.065 4.42859 10.8154V12.0278H5.64108L6.04525 15.2611H8.47023L8.87439 12.0278H10.0869V10.8154Z" stroke="white" stroke-linecap="round" stroke-linejoin="round"/>
</g>
<defs>
<clipPath id="clip0_1454_5258">
<rect width="12" height="12" fill="white" transform="translate(4 4)"/>
</clipPath>
</defs>
</svg>
