<svg width="78" height="78" viewBox="0 0 78 78" fill="none" xmlns="http://www.w3.org/2000/svg">
<g clip-path="url(#clip0_4028_1245)">
<path d="M11.7518 64.8358C11.7518 61.7657 9.26348 59.2773 6.19336 59.2773C9.26348 59.2773 11.7518 56.789 11.7518 53.7189C11.7518 56.789 14.2402 59.2773 17.3102 59.2773C14.2402 59.2773 11.7518 61.7657 11.7518 64.8358Z" fill="#F1F2F7"/>
<path d="M38.9921 18.149C38.9921 13.4534 35.1851 9.64628 30.4895 9.64628C35.1851 9.64628 38.9921 5.83921 38.9921 1.14362C38.9921 5.83921 42.7992 9.64628 47.4948 9.64628C42.7992 9.64628 38.9921 13.4534 38.9921 18.149Z" fill="#F1F2F7"/>
<path d="M71.8867 50.6383H71.779C71.779 47.3949 69.1498 44.7658 65.9065 44.7658V44.658C69.1498 44.658 71.779 42.0289 71.779 38.7855H71.8878C71.8878 42.0289 74.5169 44.658 77.7603 44.658V44.7668C74.5159 44.7658 71.8867 47.3949 71.8867 50.6383Z" fill="#D8DBEA"/>
<path d="M64.9119 15.1774C64.6063 15.2439 64.0484 15.4431 63.6765 15.6291C59.9569 17.5155 59.9967 22.8424 63.7429 24.6889C64.4602 25.0476 64.6462 25.0742 65.9879 25.0742C67.396 25.0742 67.4757 25.0609 68.2861 24.6225C69.2824 24.0779 70.0795 23.2542 70.5444 22.2447C70.8632 21.5804 70.9031 21.3281 70.9031 20.0926C70.9031 18.7775 70.8765 18.6446 70.478 17.8874C69.4285 15.8682 67.0639 14.7125 64.9119 15.1774ZM66.6521 17.3162C67.3828 17.5022 68.2728 18.2461 68.5916 18.9502C69.1097 20.0793 68.8042 21.5007 67.8743 22.311C67.2499 22.8558 66.599 23.055 65.6558 22.9885C64.2875 22.8956 63.2116 21.8329 63.0389 20.3981C62.9193 19.3354 63.5702 18.1 64.5267 17.6085C65.3769 17.1568 65.8019 17.1037 66.6521 17.3162Z" fill="#F1F2F7"/>
<path d="M12.0445 27.3741C11.8793 27.41 11.5775 27.5178 11.3764 27.6184C9.36471 28.6386 9.38627 31.5195 11.4123 32.5182C11.8003 32.7122 11.9008 32.7266 12.6265 32.7266C13.388 32.7266 13.4311 32.7193 13.8694 32.4823C14.4082 32.1877 14.8393 31.7423 15.0908 31.1962C15.2632 30.837 15.2848 30.7005 15.2848 30.0324C15.2848 29.3211 15.2704 29.2492 15.0549 28.8397C14.4873 27.7477 13.2084 27.1226 12.0445 27.3741ZM12.9857 28.5308C13.3809 28.6314 13.8622 29.0337 14.0347 29.4145C14.3148 30.0252 14.1496 30.7939 13.6467 31.2322C13.309 31.5268 12.957 31.6345 12.4469 31.5986C11.7069 31.5483 11.1249 30.9735 11.0315 30.1976C10.9669 29.6228 11.3189 28.9547 11.8362 28.6889C12.296 28.4446 12.5259 28.4158 12.9857 28.5308Z" fill="#D8DBEA"/>
<rect x="20.3613" y="24.7372" width="39.3053" height="38.0799" rx="8.50989" fill="#F1F2F7"/>
<path d="M29.7346 42.2543H42.9211" stroke="white" stroke-width="2.82568" stroke-miterlimit="10" stroke-linecap="round" stroke-linejoin="round"/>
<path d="M29.7346 49.7894H37.9856" stroke="white" stroke-width="2.82568" stroke-miterlimit="10" stroke-linecap="round" stroke-linejoin="round"/>
<path d="M36.2645 28.8622H44.7744C49.0293 28.8622 49.0293 26.7347 49.0293 24.6072C49.0293 20.3523 46.9018 20.3523 44.7744 20.3523H36.2645C34.137 20.3523 32.0095 20.3523 32.0095 24.6072C32.0095 28.8622 34.137 28.8622 36.2645 28.8622Z" fill="#D8DBEA" stroke="white" stroke-width="3.19121" stroke-miterlimit="10" stroke-linecap="round" stroke-linejoin="round"/>
</g>
<defs>
<clipPath id="clip0_4028_1245">
<rect width="77" height="77" fill="white" transform="translate(0.375732 0.285461)"/>
</clipPath>
</defs>
</svg>
