<svg width="100" height="100" viewBox="0 0 100 100" fill="none" xmlns="http://www.w3.org/2000/svg">
<rect width="100" height="100" rx="15" fill="white"/>
<path d="M42.2675 52.1763C38.8809 50.8221 36.4747 48.9913 37.0181 44.3465C37.7453 38.1085 47.7508 30.9629 50.9534 27.4244C53.218 24.9239 53.7409 18.8037 53.7409 18.8037C53.7409 18.8037 57.0866 25.6101 53.1959 31.2837C51.624 33.5749 43.6062 41.2127 41.9486 45.9544C41.5295 46.9492 41.3406 48.0245 41.3958 49.1012C41.451 50.1779 41.7488 51.2287 42.2675 52.1763Z" fill="#E02728"/>
<path d="M36.5457 47.098C33.2478 45.6611 30.6133 43.3305 31.2256 38.6125C32.0488 32.2755 41.987 25.1765 45.1927 21.6305C47.458 19.1232 48.0675 13 48.0675 13C48.0675 13 51.2304 19.9867 47.3138 25.6935C45.7338 27.9972 37.735 35.634 36.0255 40.4299C35.5629 41.4974 35.3681 42.6672 35.459 43.8323C35.5498 44.9973 35.9235 46.1202 36.5457 47.098Z" fill="#E02728"/>
<path d="M58.458 47.8232C61.8438 49.1763 64.2504 51.0084 63.7071 55.6534C62.9798 61.8916 52.9747 69.0369 49.7722 72.575C47.5067 75.0758 46.9838 81.1958 46.9838 81.1958C46.9838 81.1958 43.6386 74.3886 47.5298 68.7151C49.1017 66.4252 57.1191 58.7857 58.7767 54.0456C59.1957 53.0507 59.3846 51.9753 59.3294 50.8985C59.2742 49.8218 58.9765 48.7709 58.458 47.8232Z" fill="#E02728"/>
<path d="M64.1795 52.9023C67.4772 54.3391 70.1123 56.6688 69.4994 61.3887C68.6766 67.7254 58.7377 74.8237 55.5321 78.3699C53.2674 80.8765 52.6586 87.0004 52.6586 87.0004C52.6586 87.0004 49.4942 80.013 53.411 74.3068C54.9927 72.0029 62.9907 64.3666 64.6996 59.5713C65.1621 58.5037 65.3569 57.3337 65.266 56.1686C65.1752 55.0035 64.8016 53.8804 64.1795 52.9023Z" fill="#E02728"/>
<path d="M52.9027 57.9462C51.5194 61.1968 49.6485 63.507 44.9028 62.9857C38.5291 62.2878 31.2282 52.683 27.6122 49.6074C25.0565 47.4331 18.8047 46.932 18.8047 46.932C18.8047 46.932 25.7591 43.7198 31.556 47.4546C33.897 48.9644 41.7021 56.6625 46.5455 58.253C47.5639 58.6554 48.6609 58.8365 49.7592 58.7835C50.8575 58.7305 51.9305 58.4447 52.9027 57.9462Z" fill="#254281"/>
<path d="M47.098 63.4539C45.6613 66.752 43.3314 69.3867 38.6134 68.7738C32.2758 67.9499 25.1775 58.0127 21.6313 54.807C19.1241 52.5427 13 51.932 13 51.932C13 51.932 19.9882 48.7691 25.6943 52.6859C27.9977 54.2672 35.6347 62.2645 40.4308 63.974C41.5 64.4369 42.6671 64.6316 43.8296 64.5409C44.9921 64.4502 46.1144 64.077 47.098 63.4539Z" fill="#254281"/>
<path d="M47.8242 42.0542C49.2069 38.8032 51.0784 36.4934 55.8242 37.015C62.1978 37.7132 69.4975 47.3182 73.1142 50.393C75.669 52.5671 81.9223 53.0687 81.9223 53.0687C81.9223 53.0687 74.9675 56.2812 69.1704 52.5452C66.8303 51.0365 59.0248 43.3395 54.1814 41.7482C53.163 41.3458 52.0661 41.1647 50.9678 41.2176C49.8695 41.2704 48.7965 41.556 47.8242 42.0542Z" fill="#254281"/>
<path d="M53.627 36.5461C55.0634 33.249 57.393 30.6147 62.1114 31.2264C68.4495 32.0502 75.5481 41.9886 79.0944 45.1942C81.6017 47.4588 87.725 48.0684 87.725 48.0684C87.725 48.0684 80.7375 51.2314 75.0313 47.3148C72.7277 45.7347 65.0906 37.7359 60.2943 36.0267C59.2251 35.5637 58.058 35.369 56.8955 35.4595C55.733 35.5501 54.6106 35.9232 53.627 36.5461Z" fill="#254281"/>
</svg>
