<svg id="Layer_1" data-name="Layer 1" xmlns="http://www.w3.org/2000/svg" xmlns:xlink="http://www.w3.org/1999/xlink" viewBox="0 0 196 76"><defs><style>.cls-1{fill:url(#linear-gradient);}.cls-2{fill:url(#linear-gradient-2);}.cls-3{fill:#74ad23;}.cls-4{fill:url(#linear-gradient-3);}.cls-5{fill:url(#linear-gradient-4);}</style><linearGradient id="linear-gradient" x1="-1.7" y1="15.57" x2="56.38" y2="52.37" gradientTransform="matrix(1, 0, 0, -1, 0, 78)" gradientUnits="userSpaceOnUse"><stop offset="0" stop-color="#0264b5"/><stop offset="0.64" stop-color="#007ee5"/></linearGradient><linearGradient id="linear-gradient-2" x1="61.12" y1="36.76" x2="65" y2="40.18" xlink:href="#linear-gradient"/><linearGradient id="linear-gradient-3" x1="154.84" y1="25.73" x2="195.16" y2="43" xlink:href="#linear-gradient"/><linearGradient id="linear-gradient-4" x1="69.55" y1="10.57" x2="129.75" y2="56.12" xlink:href="#linear-gradient"/></defs><title>go1-logo</title><path class="cls-1" d="M61.4,43.4c-1.4-1.4-1.2-3.2-.7-5a3.38,3.38,0,0,0,.1-2,9.37,9.37,0,0,0-4.5-4.7c-5.8-2.7-12.2-1.6-16.2,3.5a47.66,47.66,0,0,0-5.5,9.2,18.82,18.82,0,0,1-8.7,9.3c-5.6-5-9.1-12.3-9.1-18.9,0-10.1,22.4-18.1,33.3-20,2.9-.5,6-1.4,6.7-4.3a7.14,7.14,0,0,0-3.2-7.7L52,1.8A7.3,7.3,0,0,0,47.7.7C29.7,1.9.4,15.3.4,33.6c0,16.9,12.1,34.2,28.1,38a31,31,0,0,0,7,1.3c7.4.5,13.9-1.7,18.8-7.5,5-6,6.8-13.2,7.5-20.8A1.59,1.59,0,0,0,61.4,43.4ZM50,52.2a12.59,12.59,0,0,1-7.8,8.4c-.8.3-1.6.6-2.5.9l.8-1.8a21.59,21.59,0,0,1-12.3-4.1c1-.9,2-1.9,3-2.9,2.8-2.5,5.4-5.3,8.5-7.7a7.35,7.35,0,0,1,7-1.3C50,44.7,51.2,48.2,50,52.2Zm7.3-14.3a1.8,1.8,0,0,1-1.2-1.2c0-.5.6-1.1,1.2-1.9.7.9,1.2,1.4,1.3,2C58.6,37.2,57.7,38,57.3,37.9Z"/><path class="cls-2" d="M66.6,39.8l-5,2.2c-.1-1.5-.1-2.7-.2-4.4Z"/><path class="cls-3" d="M16.4,61.5a27.65,27.65,0,0,0,4.7-2A67.34,67.34,0,0,0,29,53.3C32.6,50,35.7,46,40.3,44a11.25,11.25,0,0,1,5.7-.9,5.38,5.38,0,0,1,4.7,6v.2c-.6,5.9-4,9.5-9.3,11.7-5.6,2.2-11.4,2.2-17.2,1.7-2.6-.2-5.1-.5-7.6-.8Z"/><path class="cls-4" d="M160,56.8h7.9V25.7l-7.9.6V14.1a30.34,30.34,0,0,0,8.9-1.6,36.65,36.65,0,0,0,9.3-4.6h9.9V56.8H196V70.6H160.1Z"/><path class="cls-5" d="M141.5,40c0,19.5-16,35.2-35.7,35.2S70.1,59.5,70.1,40s16-35.2,35.7-35.2a35.38,35.38,0,0,1,35.7,35Zm-19.4,0a16.35,16.35,0,1,0-16.6,16.1h.3a16.18,16.18,0,0,0,16.3-16Z"/></svg>