<svg width="153" height="38" viewBox="0 0 153 38" fill="none" xmlns="http://www.w3.org/2000/svg">
<path d="M31.0044 21.7108C30.2928 20.9992 30.3945 20.0843 30.6486 19.1694C30.7503 18.8645 30.8011 18.5087 30.6995 18.1529C30.242 17.0855 29.4288 16.2723 28.4122 15.764C25.4643 14.3917 22.2114 14.9508 20.1783 17.543C19.0601 19.0169 18.1452 20.5418 17.3828 22.219C16.3663 24.3538 14.9431 25.9802 12.9609 26.9459C10.1146 24.4046 8.33562 20.6942 8.33562 17.3397C8.33562 12.2061 19.7208 8.13998 25.261 7.17427C26.735 6.92014 28.3106 6.4627 28.6664 4.98871C29.0222 3.46391 28.3614 1.88827 27.0399 1.07504L26.2267 0.566772C25.5659 0.160156 24.8035 -0.0431513 24.0411 0.00767564C14.8923 0.617599 0 7.42841 0 16.7297C0 25.3195 6.15006 34.1125 14.2824 36.044C15.4006 36.3998 16.5696 36.6031 17.8402 36.7047C21.6014 36.9589 24.9052 35.8407 27.3957 32.8927C29.9371 29.8431 30.8519 26.1835 31.2077 22.3207C31.2077 22.0666 31.1569 21.8633 31.0044 21.7108ZM25.2102 26.1835C24.6511 28.1658 23.1771 29.7414 21.2457 30.453C20.839 30.6055 20.4324 30.758 19.975 30.9104L20.3816 29.9956C18.0944 29.9956 15.9597 29.1823 14.1299 27.9117C14.6382 27.4542 15.1464 26.9459 15.6547 26.4377C17.0778 25.167 18.3993 23.7438 19.975 22.524C20.9407 21.7108 22.313 21.4566 23.5329 21.8633C25.2102 22.3715 25.8201 24.1505 25.2102 26.1835ZM28.9205 18.9153C28.6156 18.8136 28.4122 18.6103 28.3106 18.3054C28.3106 18.0512 28.6156 17.7463 28.9205 17.3397C29.2763 17.7971 29.5304 18.0512 29.5813 18.3562C29.5813 18.5595 29.1238 18.9661 28.9205 18.9153Z" fill="white"/>
<path d="M33.6469 19.8799L31.1056 20.9981C31.0547 20.2357 31.0547 19.6258 31.0039 18.7617L33.6469 19.8799Z" fill="white"/>
<path d="M8.12891 30.91C8.94214 30.6559 9.75537 30.3001 10.5178 29.8935C11.9409 28.9277 13.2624 27.9112 14.5331 26.7422C16.3629 25.0649 17.9385 23.0318 20.2765 22.0153C21.1914 21.6087 22.208 21.4562 23.1737 21.5578C24.6985 21.7611 25.7659 23.1335 25.5625 24.6075C25.5625 24.6075 25.5625 24.6075 25.5625 24.6583V24.7091C25.2576 27.7079 23.5295 29.5377 20.8356 30.6559C17.9893 31.774 15.0414 31.774 12.0934 31.5199C10.7719 31.4183 9.50123 31.2658 8.23056 31.1133L8.12891 30.91Z" fill="url(#paint0_linear_2571_74928)"/>
<path d="M81.1211 28.5223H85.1364V12.7152L81.1211 13.0201V6.81924C82.6459 6.76841 84.1707 6.51428 85.6447 6.00601C87.322 5.44691 88.8976 4.68451 90.3716 3.66797H95.4035V28.5223H99.4188V35.5364H81.1719L81.1211 28.5223Z" fill="white"/>
<path d="M71.7162 19.9819C71.7162 29.8931 63.5839 37.8729 53.571 37.8729C43.5581 37.8729 35.4258 29.8931 35.4258 19.9819C35.4258 10.0706 43.5581 2.0908 53.571 2.0908C63.4822 1.98915 71.6145 9.96898 71.7162 19.8802C71.7162 19.9311 71.7162 19.9311 71.7162 19.9819ZM61.8558 19.9819C61.9066 15.4075 58.2471 11.5954 53.6726 11.5446C49.0982 11.4938 45.2862 15.1533 45.2354 19.7277C45.1846 24.3022 48.8441 28.1142 53.4185 28.165H53.571C58.0946 28.2158 61.805 24.5563 61.8558 20.0327V19.9819Z" fill="white"/>
<rect x="111.027" y="3.79883" width="41.1894" height="31.0496" rx="5.88954" fill="url(#paint1_linear_2571_74928)"/>
<path d="M130.93 11.4812V25.8809H126.927V20.1006H122.046V25.8809H118.042V11.4812H122.046V16.8938H126.927V11.4812H130.93ZM140.513 25.8809L137.654 20.5703H137.225V25.8809H133.221V11.4812H139.533C140.69 11.4812 141.671 11.6854 142.474 12.0939C143.277 12.4888 143.883 13.0403 144.292 13.7484C144.7 14.4428 144.905 15.2258 144.905 16.0972C144.905 17.0776 144.632 17.9423 144.088 18.6912C143.557 19.4265 142.774 19.9508 141.739 20.264L144.986 25.8809H140.513ZM137.225 17.8334H139.206C139.751 17.8334 140.159 17.704 140.431 17.4453C140.704 17.1866 140.84 16.8121 140.84 16.3219C140.84 15.8589 140.697 15.4981 140.411 15.2394C140.139 14.9671 139.737 14.8309 139.206 14.8309H137.225V17.8334Z" fill="white"/>
<defs>
<linearGradient id="paint0_linear_2571_74928" x1="8.77533" y1="31.1469" x2="17.4994" y2="19.9301" gradientUnits="userSpaceOnUse">
<stop stop-color="#0264B5"/>
<stop offset="0.640625" stop-color="#007EE5"/>
</linearGradient>
<linearGradient id="paint1_linear_2571_74928" x1="150.096" y1="11.3913" x2="115.17" y2="37.4173" gradientUnits="userSpaceOnUse">
<stop stop-color="#74AD23"/>
<stop offset="1" stop-color="#5D9312"/>
</linearGradient>
</defs>
</svg>
