<svg width="12" height="13" viewBox="0 0 12 13" fill="none" xmlns="http://www.w3.org/2000/svg">
<path d="M3.28898 8.241C2.58148 8.662 0.726481 9.522 1.85648 10.5985C2.40798 11.124 3.02248 11.5 3.79498 11.5H8.20398C8.97698 11.5 9.59148 11.124 10.143 10.5985C11.273 9.522 9.41798 8.662 8.71048 8.241C7.88938 7.75593 6.95316 7.50005 5.99948 7.50005C5.0458 7.50005 4.11009 7.75593 3.28898 8.241ZM8.24998 3.75C8.24998 4.34674 8.01293 4.91903 7.59097 5.34099C7.16901 5.76295 6.59672 6 5.99998 6C5.40324 6 4.83095 5.76295 4.40899 5.34099C3.98703 4.91903 3.74998 4.34674 3.74998 3.75C3.74998 3.15326 3.98703 2.58097 4.40899 2.15901C4.83095 1.73705 5.40324 1.5 5.99998 1.5C6.59672 1.5 7.16901 1.73705 7.59097 2.15901C8.01293 2.58097 8.24998 3.15326 8.24998 3.75Z" stroke="#83868B" stroke-width="0.75" stroke-linecap="round" stroke-linejoin="round"/>
</svg>
