<svg width="14" height="11" viewBox="0 0 14 11" fill="none" xmlns="http://www.w3.org/2000/svg">
<g clip-path="url(#clip0_1_3)">
<path d="M10.9344 1.48565C11.1001 1.48565 11.2243 1.43594 11.3072 1.33651C11.39 1.23709 11.4315 1.12109 11.4315 0.988529C11.4315 0.855965 11.39 0.748257 11.3072 0.665403C11.2243 0.58255 11.1001 0.541124 10.9344 0.541124H2.58279C2.41708 0.541124 2.2928 0.58255 2.20995 0.665403C2.1271 0.748257 2.08567 0.855965 2.08567 0.988529C2.08567 1.12109 2.1271 1.23709 2.20995 1.33651C2.2928 1.43594 2.41708 1.48565 2.58279 1.48565H10.9344ZM10.9344 10.7817C11.1001 10.7817 11.2243 10.7403 11.3072 10.6575C11.39 10.5746 11.4315 10.4669 11.4315 10.3343C11.4315 10.2018 11.39 10.0858 11.3072 9.98635C11.2243 9.88693 11.1001 9.83722 10.9344 9.83722H2.58279C2.41708 9.83722 2.2928 9.88693 2.20995 9.98635C2.1271 10.0858 2.08567 10.2018 2.08567 10.3343C2.08567 10.4669 2.1271 10.5746 2.20995 10.6575C2.2928 10.7403 2.41708 10.7817 2.58279 10.7817H10.9344ZM12.8234 5.21403H0.693743C0.561179 5.21403 0.45347 5.25545 0.370617 5.33831C0.287764 5.42116 0.246338 5.52887 0.246338 5.66143C0.246338 5.794 0.287764 5.90171 0.370617 5.98456C0.45347 6.06741 0.561179 6.10884 0.693743 6.10884H12.8234C12.956 6.10884 13.0637 6.06741 13.1465 5.98456C13.2294 5.90171 13.2708 5.794 13.2708 5.66143C13.2708 5.52887 13.2294 5.42116 13.1465 5.33831C13.0637 5.25545 12.956 5.21403 12.8234 5.21403Z" fill="#007EE5"/>
</g>
<defs>
<clipPath id="clip0_1_3">
<rect width="14" height="11" fill="white"/>
</clipPath>
</defs>
</svg>
