<svg id="Layer_1" data-name="Layer 1" xmlns="http://www.w3.org/2000/svg" viewBox="0 0 77 78"><defs><style>.cls-1{fill:#f1f2f7;}.cls-2{fill:#d8dbea;}</style></defs><title>no-comments</title><path class="cls-1" d="M8.28,69.67a5.55,5.55,0,0,0-5.56-5.55,5.56,5.56,0,0,0,5.56-5.56,5.55,5.55,0,0,0,5.55,5.56A5.54,5.54,0,0,0,8.28,69.67Z"/><path class="cls-1" d="M35.52,23A8.51,8.51,0,0,0,27,14.48,8.5,8.5,0,0,0,35.52,6a8.49,8.49,0,0,0,8.5,8.5A8.5,8.5,0,0,0,35.52,23Z"/><path class="cls-2" d="M68.41,55.48H68.3a5.87,5.87,0,0,0-5.87-5.88v-.1a5.87,5.87,0,0,0,5.87-5.88h.11a5.87,5.87,0,0,0,5.87,5.88v.1A5.87,5.87,0,0,0,68.41,55.48Z"/><path class="cls-1" d="M61.44,20a5.7,5.7,0,0,0-1.24.45,5.06,5.06,0,0,0,.07,9.06,3.7,3.7,0,0,0,2.24.38,3.37,3.37,0,0,0,2.3-.45,5.2,5.2,0,0,0,2.26-2.38,3.81,3.81,0,0,0,.36-2.15,3.36,3.36,0,0,0-.43-2.2A5.2,5.2,0,0,0,61.44,20Zm1.74,2.13a3.32,3.32,0,0,1,1.93,1.64,2.93,2.93,0,0,1-.71,3.36,2.83,2.83,0,0,1-2.22.68,2.86,2.86,0,0,1-2.62-2.59,3,3,0,0,1,1.49-2.79A2.45,2.45,0,0,1,63.18,22.15Z"/><path class="cls-2" d="M8.57,32.21a3.73,3.73,0,0,0-.67.25,2.74,2.74,0,0,0,0,4.9,2,2,0,0,0,1.21.2c.76,0,.8,0,1.24-.24A2.77,2.77,0,0,0,11.61,36a2,2,0,0,0,.2-1.16,1.87,1.87,0,0,0-.23-1.19A2.83,2.83,0,0,0,8.57,32.21Zm.94,1.16a1.82,1.82,0,0,1,1.05.88,1.6,1.6,0,0,1-.39,1.82,1.54,1.54,0,0,1-1.2.37A1.56,1.56,0,0,1,7.55,35a1.6,1.6,0,0,1,.81-1.51A1.29,1.29,0,0,1,9.51,33.37Z"/><path class="cls-1" d="M49.63,38V35.11a5.65,5.65,0,0,0-5.75-5.75H24.71A5.65,5.65,0,0,0,19,35.11v23A1.81,1.81,0,0,0,20.88,60a1.73,1.73,0,0,0,1.34-.57l5.37-5.37V46.61A8.59,8.59,0,0,1,36.21,38Z"/><path class="cls-2" d="M36.22,40.86H51.55a5.65,5.65,0,0,1,5.75,5.75V65.77a1.74,1.74,0,0,1-.58,1.35,1.86,1.86,0,0,1-2.68,0l-4.6-4.6H36.22a5.65,5.65,0,0,1-5.75-5.75V46.61A5.65,5.65,0,0,1,36.22,40.86Z"/></svg>