<svg width="36" height="36" viewBox="0 0 36 36" fill="none" xmlns="http://www.w3.org/2000/svg">
<circle cx="17.6206" cy="17.7285" r="17.6206" fill="#EEF2FF"/>
<path d="M20.2308 14.4654C20.2308 14.9817 20.0777 15.4864 19.7909 15.9157C19.504 16.345 19.0963 16.6796 18.6193 16.8772C18.1423 17.0748 17.6174 17.1265 17.1111 17.0257C16.6047 16.925 16.1395 16.6764 15.7745 16.3113C15.4094 15.9462 15.1608 15.4811 15.06 14.9747C14.9593 14.4683 15.011 13.9435 15.2086 13.4665C15.4062 12.9895 15.7408 12.5818 16.17 12.2949C16.5993 12.0081 17.104 11.855 17.6203 11.855C18.3127 11.855 18.9767 12.13 19.4662 12.6196C19.9558 13.1091 20.2308 13.7731 20.2308 14.4654ZM20.2308 19.6864H15.0099C14.3175 19.6864 13.6536 19.9614 13.164 20.4509C12.6744 20.9405 12.3994 21.6045 12.3994 22.2968C12.3994 22.643 12.5369 22.975 12.7817 23.2198C13.0265 23.4645 13.3585 23.6021 13.7046 23.6021H21.536C21.8822 23.6021 22.2142 23.4645 22.459 23.2198C22.7037 22.975 22.8413 22.643 22.8413 22.2968C22.8413 21.6045 22.5662 20.9405 22.0767 20.4509C21.5871 19.9614 20.9231 19.6864 20.2308 19.6864Z" stroke="#1678FB" stroke-width="1.5" stroke-linecap="round" stroke-linejoin="round"/>
</svg>
