<svg width="21" height="20" viewBox="0 0 21 20" fill="none" xmlns="http://www.w3.org/2000/svg">
<g clip-path="url(#clip0_78_1523)">
<path d="M6.24316 1.27734C5.45801 1.45703 4.68457 1.96875 4.31738 2.55078C4.23535 2.68359 3.39551 4.12891 2.4502 5.76172C1.18457 7.94922 0.704102 8.81641 0.618164 9.0625C0.508789 9.375 0.500977 9.42969 0.500977 10C0.500977 10.5703 0.508789 10.625 0.618164 10.9375C0.704102 11.1836 1.18848 12.0547 2.4502 14.2383C3.3916 15.8711 4.23145 17.3164 4.31738 17.4492C4.63379 17.9453 5.24707 18.4023 5.8916 18.6211L6.2041 18.7305H10.1299H14.0557L14.3682 18.6211C14.958 18.4219 15.5869 17.9766 15.876 17.5547C15.9385 17.4648 16.79 16.0039 17.7666 14.3086C19.0947 12.0117 19.5713 11.1523 19.6494 10.918C19.7471 10.6328 19.7549 10.5508 19.7549 10C19.7549 9.44922 19.7471 9.36719 19.6494 9.08203C19.5713 8.84766 19.0947 7.98828 17.7705 5.69531C16.7939 4.00391 15.9424 2.54297 15.876 2.44922C15.5947 2.03516 15.0127 1.61328 14.4111 1.39062L14.0947 1.26953L10.208 1.26562C8.07129 1.26172 6.28613 1.26562 6.24316 1.27734ZM14.165 2.6875C14.6963 2.94922 14.6689 2.91016 16.6104 6.28125C18.4502 9.47266 18.4893 9.54688 18.4893 10C18.4893 10.4531 18.4502 10.5273 16.6221 13.6992C14.6885 17.0547 14.6885 17.0547 14.1729 17.3086L13.8994 17.4414H10.1299H6.36035L6.08691 17.3086C5.57129 17.0547 5.57129 17.0547 3.6377 13.6992C1.80957 10.5273 1.77051 10.4492 1.77051 10C1.77051 9.55078 1.80957 9.47656 3.6416 6.30078C4.60645 4.62891 5.4541 3.19531 5.52051 3.11328C5.68066 2.92188 5.98926 2.71875 6.2627 2.61719C6.47363 2.54297 6.5791 2.54297 10.1885 2.55078L13.8994 2.55859L14.165 2.6875Z" fill="white"/>
<path d="M9.44629 6.34375C8.25488 6.57422 7.25488 7.35547 6.75098 8.45312C6.50879 8.97266 6.43848 9.31641 6.43848 10C6.43848 10.5078 6.4541 10.6562 6.52832 10.9336C6.88379 12.2461 7.88379 13.2461 9.19629 13.6016C9.67285 13.7305 10.5869 13.7305 11.0635 13.6016C12.376 13.2461 13.376 12.2461 13.7314 10.9336C13.8604 10.457 13.8604 9.54297 13.7314 9.06641C13.376 7.76172 12.376 6.75391 11.0869 6.40625C10.6846 6.29688 9.84863 6.26562 9.44629 6.34375ZM10.6689 7.63672C11.5479 7.84375 12.2861 8.57812 12.4893 9.45312C12.8408 10.9492 11.6689 12.4219 10.1299 12.4219C8.59082 12.4219 7.41504 10.9492 7.7666 9.46094C7.97363 8.58984 8.7041 7.84766 9.57129 7.64062C9.87207 7.56641 10.3643 7.56641 10.6689 7.63672Z" fill="white"/>
<circle cx="16.7668" cy="4.2522" r="2.48804" fill="#FF552F" stroke="white"/>
</g>
<defs>
<clipPath id="clip0_78_1523">
<rect width="20" height="20" fill="white" transform="translate(0.129883)"/>
</clipPath>
</defs>
</svg>
