<svg width="12" height="12" viewBox="0 0 12 12" fill="none" xmlns="http://www.w3.org/2000/svg">
<path d="M10.9034 2.26689C10.9034 1.94019 10.9032 1.77672 10.8396 1.65194C10.7837 1.54218 10.6948 1.453 10.585 1.39708C10.4602 1.3335 10.2965 1.3335 9.96984 1.3335H2.50317C2.17648 1.3335 2.01329 1.3335 1.88851 1.39708C1.77875 1.453 1.68957 1.54218 1.63365 1.65194C1.57007 1.77672 1.57007 1.94019 1.57007 2.26689V2.69695C1.57007 2.83963 1.57007 2.91102 1.58619 2.97816C1.60048 3.03768 1.6241 3.09454 1.65609 3.14673C1.69215 3.20558 1.74268 3.25611 1.84351 3.35693L4.79677 6.3102C4.89765 6.41108 4.94782 6.46125 4.9839 6.52012C5.01588 6.57231 5.03983 6.62936 5.05412 6.68888C5.07007 6.75533 5.07007 6.82588 5.07007 6.96567V9.73991C5.07007 10.24 5.07007 10.4901 5.17539 10.6407C5.26735 10.7722 5.40922 10.8599 5.56795 10.8834C5.74973 10.9102 5.97348 10.7985 6.42074 10.5749L6.8874 10.3416C7.07469 10.2479 7.1681 10.2009 7.23652 10.1311C7.29702 10.0693 7.34331 9.99511 7.3715 9.91337C7.40338 9.82094 7.4034 9.71597 7.4034 9.50658V6.97001C7.4034 6.82733 7.4034 6.75602 7.41952 6.68888C7.43381 6.62936 7.45744 6.57231 7.48942 6.52012C7.52525 6.46164 7.57529 6.41161 7.67484 6.31206L7.67684 6.3102L10.6301 3.35693C10.731 3.25605 10.7812 3.2056 10.8172 3.14673C10.8492 3.09454 10.8732 3.03768 10.8875 2.97816C10.9034 2.91171 10.9034 2.84108 10.9034 2.7013V2.26689Z" stroke="#212121" stroke-width="1.16667" stroke-linecap="round" stroke-linejoin="round"/>
</svg>
