<svg width="26" height="28" viewBox="0 0 26 28" fill="none" xmlns="http://www.w3.org/2000/svg">
<path d="M4.30497 13.3022H3.22876V8.97521C3.22876 7.78036 4.19243 6.81175 5.38119 6.81175H9.68606M4.30497 13.3022V19.7926C4.30497 20.9875 5.26865 21.9561 6.4574 21.9561H19.3721C20.5609 21.9561 21.5245 20.9875 21.5245 19.7926V13.3022M4.30497 13.3022H10.7623M9.68606 6.81175V5.73001C9.68606 4.53516 10.6497 3.56653 11.8385 3.56653H13.9909C15.1797 3.56653 16.1434 4.53516 16.1434 5.73001V6.81175M9.68606 6.81175H16.1434M21.5245 13.3022H22.6007V8.97521C22.6007 7.78036 21.6371 6.81175 20.4483 6.81175H16.1434M21.5245 13.3022H15.0672M10.7623 13.3022V11.1387H15.0672V13.3022M10.7623 13.3022V15.4657H15.0672V13.3022" stroke="white" stroke-linecap="round" stroke-linejoin="round"/>
</svg>
