<svg width="50" height="51" viewBox="0 0 50 51" fill="none" xmlns="http://www.w3.org/2000/svg">
<path d="M11.4211 18.2575C11.9138 18.7015 12.6233 18.8225 13.1521 18.795C12.6231 18.8225 11.9308 19.0203 11.4868 19.515C11.0428 20.0078 10.9196 20.7173 10.9493 21.246C10.9196 20.717 10.7241 20.0248 10.2293 19.5808C9.73659 19.1368 9.02709 19.0158 8.49609 19.0433C9.02709 19.0158 9.71959 18.818 10.1636 18.3233C10.6076 17.8305 10.7286 17.121 10.7011 16.5923C10.7286 17.1213 10.9263 17.8135 11.4211 18.2575Z" fill="#FF7449"/>
<path d="M5.49111 26.586C5.98611 27.03 6.69336 27.151 7.22436 27.1235C6.69336 27.151 6.00311 27.3487 5.55911 27.8435C5.11511 28.3362 4.99186 29.0457 5.01961 29.5745C4.99211 29.0455 4.79436 28.3532 4.30161 27.9092C3.80661 27.4652 3.09936 27.3442 2.56836 27.3717C3.09936 27.3442 3.78961 27.1465 4.23361 26.6517C4.67761 26.159 4.80086 25.4495 4.77311 24.9185C4.80061 25.4495 4.99836 26.142 5.49111 26.586Z" fill="#FF7449"/>
<path d="M42.142 38.2179C41.9912 38.2179 41.9705 37.9987 42.1185 37.9702C43.3272 37.7387 47.364 36.8277 47.4047 36.8187C47.4366 36.8125 47.4696 36.819 47.4968 36.8368C47.524 36.8546 47.5432 36.8822 47.5504 36.9139C47.5575 36.9456 47.552 36.9788 47.5351 37.0065C47.5182 37.0342 47.4912 37.0543 47.4597 37.0624C47.2927 37.0999 42.3132 38.2179 42.142 38.2179Z" fill="#E02728"/>
<path d="M47.2161 41.8755C47.1464 41.8755 44.0874 41.0297 42.6926 40.716C42.6618 40.7072 42.6355 40.687 42.6191 40.6595C42.6028 40.6319 42.5976 40.5992 42.6046 40.5679C42.6117 40.5367 42.6304 40.5093 42.657 40.4915C42.6836 40.4736 42.716 40.4666 42.7476 40.472C43.8434 40.7187 45.7054 41.2255 47.2476 41.6295C47.3886 41.6667 47.3619 41.8755 47.2161 41.8755Z" fill="#E02728"/>
<path d="M39.0007 32.1317C37.8884 28.7657 35.2949 26.028 31.6344 24.6125C31.2604 24.468 30.8697 24.3617 30.5469 24.4022C30.2409 24.4405 29.8119 24.8292 29.4274 25.201C28.0724 26.4557 26.2522 26.7665 24.4647 26.5685C22.9869 26.4047 21.3562 25.846 20.3132 25.25C15.9824 25.7197 9.79516 30.6762 9.34766 38.7977C9.34766 38.7977 12.7357 44.0512 23.5504 44.0512C30.0982 44.0512 32.5477 37.6207 32.0792 34.8925C33.8692 33.996 35.4589 34.124 37.6922 34.7172C38.2474 34.8645 39.5652 35.523 39.5549 35.467C39.3807 34.4985 39.3107 33.0667 39.0004 32.1322L39.0007 32.1317Z" fill="white"/>
<path d="M38.9287 35.2116C38.5132 35.0271 37.99 34.7986 37.6945 34.7201C35.2517 34.0714 33.5702 33.9774 31.5587 35.1819C31.2975 36.9809 30.7515 38.3739 30.0182 39.4421C27.2335 43.4949 21.7365 42.8789 18.7395 41.9866C15.6882 41.0796 12.1542 39.8264 11.335 36.7594C10.8997 35.1296 10.5587 33.5464 10.581 31.8529C10.5915 31.1264 9.62099 30.9141 9.35324 31.8444C9.27749 32.1079 8.64699 33.7409 8.92949 35.7394C7.05974 35.1451 6.37524 34.9054 5.69549 34.9711C5.44699 34.9924 5.19149 35.0641 4.99449 35.2196C4.55049 35.5806 4.74399 35.9376 5.09649 36.2221C5.03824 36.2984 4.85999 36.4099 4.76724 36.7191C4.64674 37.1314 4.80649 37.4999 5.08149 37.8299C4.71574 38.1409 4.80424 38.8051 5.00724 39.2404C5.06624 39.3671 5.13649 39.4844 5.21499 39.5931C5.09024 39.8136 5.03849 40.0904 5.06899 40.3491C5.26899 42.0509 9.44024 42.6401 11.1545 43.5119C15.8592 47.3926 21.964 49.5251 28.2532 49.0834C30.356 48.9369 34.377 47.3331 36.9215 43.8816C38.635 41.5631 39.0365 38.1161 38.929 35.2119L38.9287 35.2116Z" fill="white"/>
<path d="M30.548 24.4022C30.155 24.4515 29.5563 25.0877 29.2608 25.3602C28.3495 27.6352 27.6848 30.0205 26.13 31.9915C25.221 33.145 23.9465 34.0795 22.3663 33.8947C19.5603 33.5697 19.4543 30.373 19.796 28.302C20.1193 26.3455 20.418 25.9257 20.6478 25.4237C20.4333 25.3175 20.3143 25.2495 20.3143 25.2495C20.3143 25.2495 19.7615 25.3095 18.9005 25.5807C17.328 28.5297 13.3432 36.093 13.6617 39.689L13.5938 39.7887C15.0955 40.8507 17.0518 41.4815 18.7383 41.983C21.7353 42.8752 27.2325 43.491 30.017 39.4385C27.9573 37.7917 29.285 32.3735 29.7218 30.545C30.63 26.7312 31.5755 24.9012 31.6355 24.6125C31.2615 24.468 30.8708 24.3617 30.548 24.4022Z" fill="#4D68A1"/>
<path d="M31.5467 13.4865C30.8967 12.832 30.0279 12.9368 29.4669 13.5415L29.3557 13.5858C29.3557 13.5858 26.4649 14.7328 26.3692 14.514C26.1419 13.9853 26.7707 13.4458 26.7857 12.872C26.8332 10.8285 25.5497 9.36177 24.4427 7.68302C24.3492 7.54277 23.7927 6.27252 23.6099 6.29802C23.3849 6.32977 23.1874 6.95227 23.1194 7.11352C22.6882 8.10752 22.4717 9.15252 22.6159 10.236C22.6474 10.466 22.9734 11.397 22.5309 11.2918C21.2544 10.9858 20.0649 9.20577 20.0967 8.01652C20.1349 6.66777 20.5067 5.98577 20.3602 6.01977C19.1684 6.30227 17.3334 7.85077 16.3604 9.60527C16.2904 9.73077 16.2024 9.88677 16.1074 10.0588C16.4347 11.7923 16.5742 14.199 16.6589 15.6825C16.8619 19.2463 18.0059 21.9405 21.5749 22.3943C21.8664 22.4315 22.1559 22.4505 22.4397 22.4515C22.6559 23.3058 22.7817 25.3548 22.8019 26.247C25.0124 26.8585 27.5964 26.8775 29.4024 25.2275C29.2224 23.3418 28.8932 18.759 29.0127 17.6C29.0349 17.5635 29.0794 17.4958 29.0794 17.4958C29.0794 17.4958 30.1649 18.5215 31.2117 17.4275C31.6902 16.9278 32.1499 15.9905 32.1849 15.119C32.2079 14.5415 31.9582 13.9008 31.5464 13.4863L31.5467 13.4865Z" fill="white"/>
<path d="M27.5383 20.0372C26.0038 21.816 23.9085 22.6902 21.5783 22.3927C18.3518 21.9827 17.0773 19.6527 16.748 16.7872C19.0183 16.409 26.1238 15.716 26.1535 15.7145C26.6343 15.6897 26.6495 15.7682 26.7673 16.237C26.7933 16.341 27.5383 20.0372 27.5383 20.0372Z" fill="#E02728"/>
<path d="M38.8598 6.48626C38.4251 5.88976 37.5466 5.70701 36.7953 5.65876C37.2981 5.36951 38.2706 4.85176 38.0236 4.29176C37.8348 3.86451 37.1143 3.96676 36.8056 4.01051C35.7198 4.17101 33.6373 5.28951 32.6281 6.23751C31.9453 5.12326 30.8816 4.14201 29.3818 3.24101C23.9643 -0.00799513 18.7698 1.93876 17.2338 4.28776C16.9461 4.72751 16.8773 4.79326 16.3993 5.06026C16.2383 5.15001 16.0721 5.24301 15.9336 5.35651C15.0601 6.06951 14.4918 7.01826 14.2903 8.10051C13.9238 10.0583 14.8033 12.8458 15.2456 12.566C15.2756 12.547 15.2961 12.516 15.3018 12.481C15.4603 11.529 15.6103 11.2115 16.4726 9.66451C17.4221 7.95226 19.1463 6.52401 20.2496 6.17926C20.1191 6.73676 19.9981 7.18176 19.9743 8.01176C19.9416 9.23551 21.1261 11.0818 22.5046 11.412C22.7153 11.463 22.8918 11.3493 22.8878 11.0165C22.8833 10.7198 22.7558 10.316 22.7423 10.2183C22.6108 9.23126 22.7726 8.23176 23.2371 7.16101C23.2706 7.08101 23.4696 6.51201 23.6078 6.42901C23.7413 6.54826 24.0576 7.19026 24.1801 7.43926C24.8096 8.71851 26.7183 10.4915 26.6631 12.8675C26.6491 13.409 25.9996 13.9633 26.2571 14.5628C26.3111 14.686 26.4011 14.892 29.5158 13.6565C29.5332 13.6496 29.5487 13.639 29.5613 13.6253C30.0746 13.0725 30.8603 12.969 31.4606 13.5735C31.8481 13.9638 32.0843 14.5683 32.0628 15.1133C32.0471 15.511 31.9378 15.9473 31.7471 16.375C31.6846 16.5148 31.8848 16.6223 31.9668 16.4928C32.0181 16.4118 33.2248 14.4963 33.5218 13.322C33.8716 11.937 33.9361 10.5148 33.7121 9.18401C35.5193 10.6883 38.6316 10.424 37.4628 8.43726C37.4181 8.36276 37.2643 8.19501 37.2378 8.11226C37.3446 8.05601 37.6848 8.03701 37.7736 8.01626C38.6643 7.81876 39.3936 7.21751 38.8608 6.48676L38.8598 6.48626Z" fill="#323232"/>
<path d="M25.798 11.1828C25.7648 11.1829 25.733 11.1697 25.7095 11.1463C25.0737 10.5106 23.7732 10.6373 22.9332 11.1196C22.9045 11.1361 22.8703 11.1404 22.8383 11.1317C22.8063 11.123 22.7791 11.102 22.7626 11.0732C22.7461 11.0444 22.7418 11.0103 22.7505 10.9783C22.7592 10.9463 22.7802 10.9191 22.809 10.9026C23.7492 10.3628 25.1575 10.2403 25.8865 10.9693C25.904 10.9868 25.916 11.0091 25.9208 11.0334C25.9256 11.0577 25.9232 11.0828 25.9137 11.1057C25.9042 11.1286 25.8882 11.1481 25.8676 11.1619C25.847 11.1756 25.8228 11.1829 25.798 11.1828Z" fill="#323232"/>
<path d="M16.9923 11.8398C16.9726 11.8398 16.9532 11.8352 16.9357 11.8263C16.9182 11.8174 16.903 11.8045 16.8914 11.7886C16.8797 11.7728 16.872 11.7544 16.8688 11.735C16.8657 11.7156 16.8671 11.6958 16.873 11.677C17.15 10.805 18.4693 10.3778 19.4345 11.0563C19.4598 11.076 19.4766 11.1048 19.4813 11.1365C19.486 11.1683 19.4784 11.2007 19.4599 11.2269C19.4415 11.2532 19.4136 11.2714 19.3822 11.2777C19.3507 11.2841 19.318 11.2781 19.2908 11.261C18.467 10.682 17.3378 11.04 17.1113 11.753C17.1033 11.7783 17.0874 11.8004 17.066 11.8161C17.0446 11.8318 17.0188 11.8402 16.9923 11.8403V11.8398Z" fill="#323232"/>
<path d="M23.2324 13.6779C23.2131 13.6779 23.1942 13.6735 23.1769 13.6649C23.1597 13.6564 23.1447 13.644 23.133 13.6287C23.1214 13.6134 23.1134 13.5957 23.1097 13.5768C23.1061 13.5579 23.1068 13.5385 23.1119 13.5199C23.1736 13.2957 23.4459 13.1084 23.6636 12.9907C24.2911 12.6572 25.0936 12.7554 25.6621 13.2344C25.6875 13.2558 25.7033 13.2864 25.7061 13.3195C25.7089 13.3525 25.6985 13.3853 25.6771 13.4107C25.6557 13.436 25.6251 13.4519 25.5921 13.4547C25.559 13.4575 25.5262 13.4471 25.5009 13.4257C25.0099 13.0119 24.3189 12.9257 23.7816 13.2112C23.5424 13.3404 23.3819 13.4809 23.3529 13.5862C23.3456 13.6126 23.3299 13.6358 23.3081 13.6524C23.2863 13.669 23.2597 13.6779 23.2324 13.6779Z" fill="#323232"/>
<path d="M17.2968 14.1272C17.2767 14.1272 17.2569 14.1223 17.239 14.113C17.2212 14.1037 17.2058 14.0902 17.1943 14.0737C17.1828 14.0571 17.1755 14.0381 17.1729 14.0181C17.1703 13.9981 17.1726 13.9778 17.1796 13.959C17.5218 13.032 18.8556 12.955 19.5841 13.5395C19.61 13.5602 19.6265 13.5904 19.6301 13.6233C19.6337 13.6563 19.6241 13.6893 19.6033 13.7152C19.5826 13.7411 19.5524 13.7576 19.5195 13.7612C19.4865 13.7648 19.4535 13.7552 19.4276 13.7345C18.8398 13.263 17.6968 13.2795 17.4141 14.0457C17.4052 14.0697 17.3893 14.0903 17.3683 14.1049C17.3473 14.1195 17.3224 14.1272 17.2968 14.1272Z" fill="#323232"/>
<path d="M31.1006 15.049C31.0984 15.0327 31.0929 15.017 31.0846 15.0028C31.0763 14.9887 31.0652 14.9763 31.0521 14.9664C31.039 14.9565 31.024 14.9494 31.0081 14.9453C30.9922 14.9412 30.9756 14.9403 30.9593 14.9427C30.1113 15.0627 29.8856 15.5782 29.6786 16.2397C29.6291 16.398 29.8678 16.4727 29.9173 16.3145C29.9926 16.0735 30.0661 15.864 30.1698 15.6922C30.3406 15.8482 30.4546 15.9555 30.5558 16.1942C30.6206 16.346 30.8506 16.249 30.7858 16.0965C30.6673 15.817 30.5276 15.68 30.3226 15.493C30.4751 15.3382 30.6836 15.2342 30.9943 15.1902C31.0271 15.1855 31.0567 15.168 31.0766 15.1415C31.0965 15.115 31.1052 15.0818 31.1006 15.049Z" fill="#323232"/>
<path d="M29.7966 13.123C29.2596 13.4173 28.9548 14.01 28.7361 14.5918L26.5871 15.6135C26.5571 15.6277 26.534 15.6533 26.5229 15.6845C26.5117 15.7158 26.5135 15.7502 26.5277 15.7801C26.5419 15.8101 26.5675 15.8332 26.5987 15.8443C26.6299 15.8555 26.6643 15.8537 26.6943 15.8395L28.6751 14.8978C28.6874 14.9179 28.7052 14.9341 28.7264 14.9446C28.7477 14.955 28.7714 14.9592 28.7949 14.9567C28.8184 14.9542 28.8407 14.9451 28.8592 14.9304C28.8778 14.9157 28.8917 14.8961 28.8996 14.8738C29.1081 14.2778 29.3921 13.63 29.9168 13.3425C30.4633 13.0408 30.9023 13.178 31.1746 13.3463C31.7163 13.6808 32.0893 14.4243 32.0616 15.1145C32.0451 15.5333 31.9323 15.9823 31.7441 16.379C31.3853 17.1445 30.9723 17.6023 30.5156 17.7388C30.0103 17.89 29.5608 17.6138 29.3193 17.4655C29.1851 17.383 29.0583 17.305 28.9776 17.426C28.6198 17.9508 28.2676 19.0283 27.4421 19.957C25.9061 21.7378 23.8576 22.5598 21.5926 22.2703C18.8381 21.9205 17.2496 20.0715 16.8708 16.774C16.7496 15.7708 16.6828 12.4213 16.2321 10.0358C16.2259 10.0032 16.207 9.97444 16.1797 9.95578C16.1523 9.93712 16.1186 9.9301 16.0861 9.93627C16.0535 9.94243 16.0247 9.96128 16.0061 9.98866C15.9874 10.016 15.9804 10.0497 15.9866 10.0823C16.4413 12.4908 16.4938 15.738 16.6226 16.8035C17.0293 20.344 18.8526 22.509 22.3353 22.5755C22.4616 23.0818 22.7076 25.571 22.6768 26.2408C22.676 26.2572 22.6785 26.2736 22.684 26.2891C22.6896 26.3045 22.6982 26.3187 22.7093 26.3309C22.7203 26.343 22.7337 26.3528 22.7486 26.3597C22.7635 26.3667 22.7796 26.3706 22.7961 26.3713C22.8125 26.3721 22.8289 26.3697 22.8444 26.3641C22.8599 26.3586 22.8741 26.35 22.8862 26.3389C22.8984 26.3278 22.9082 26.3144 22.9151 26.2995C22.922 26.2846 22.9259 26.2684 22.9266 26.252C22.9501 25.739 22.7701 23.043 22.5926 22.5753C24.6293 22.538 26.4323 21.571 27.6398 20.1118C28.2038 19.4588 28.5131 18.853 28.8638 18.149C28.8391 19.9003 29.1226 23.82 29.2651 25.253C29.2665 25.2695 29.2712 25.2856 29.2788 25.3002C29.2865 25.3149 29.297 25.3279 29.3098 25.3385C29.3225 25.349 29.3372 25.357 29.353 25.3618C29.3689 25.3667 29.3855 25.3683 29.402 25.3667C29.4184 25.365 29.4344 25.3601 29.449 25.3523C29.4636 25.3444 29.4764 25.3337 29.4868 25.3208C29.4972 25.308 29.505 25.2932 29.5096 25.2773C29.5142 25.2614 29.5157 25.2447 29.5138 25.2283C29.3301 23.3803 29.0518 18.9763 29.1406 17.649C29.6003 17.9268 30.0438 18.1403 30.5873 17.9778C31.1148 17.82 31.5803 17.3175 31.9701 16.485C32.1751 16.0528 32.2931 15.582 32.3111 15.1238C32.3651 13.7785 31.1456 12.3778 29.7961 13.123H29.7966Z" fill="#323232"/>
<path d="M20.9967 16.3652C20.9651 16.3652 20.9348 16.3532 20.9117 16.3317C20.8886 16.3101 20.8745 16.2807 20.8722 16.2492C20.8472 15.9002 20.7617 14.8784 20.7265 14.4587C20.7005 14.1507 20.956 14.2059 20.9737 14.4169C21.008 14.8232 21.096 15.8757 21.1215 16.2314C21.1227 16.2486 21.1203 16.2657 21.1146 16.2819C21.1089 16.2981 21.0999 16.3129 21.0882 16.3255C21.0765 16.338 21.0623 16.348 21.0466 16.3548C21.0308 16.3617 21.0139 16.3652 20.9967 16.3652Z" fill="#323232"/>
<path d="M18.8555 18.7141C18.8223 18.7141 18.7905 18.7009 18.7671 18.6775C18.7436 18.6541 18.7305 18.6223 18.7305 18.5891C18.7305 18.5116 19.0825 18.4446 19.7867 18.3884C20.3547 18.3429 25.0657 17.9754 25.3397 17.9651C25.503 17.9556 25.5162 18.2086 25.349 18.2149C24.8335 18.2341 18.8607 18.7141 18.8555 18.7141Z" fill="white"/>
<path d="M19.5069 20.2334C19.4736 20.2334 19.4417 20.2203 19.4181 20.1968C19.3945 20.1734 19.3811 20.1416 19.3809 20.1084C19.3809 20.0394 19.4359 19.9834 19.5049 19.9834C19.5049 19.9834 21.5309 19.8426 21.8324 19.8264C21.9006 19.8186 21.9601 19.8754 21.9639 19.9444C21.9656 19.9775 21.9542 20.0099 21.9321 20.0346C21.9099 20.0592 21.8789 20.0741 21.8459 20.0759C21.5451 20.0921 19.5326 20.2334 19.5069 20.2334Z" fill="white"/>
<path d="M22.9608 19.926C22.814 19.926 22.7868 19.7222 22.9208 19.6822C22.9748 19.666 24.3115 19.5322 24.5645 19.4977C24.5973 19.4932 24.6306 19.502 24.657 19.522C24.6834 19.542 24.7008 19.5717 24.7053 19.6045C24.7098 19.6373 24.7011 19.6706 24.681 19.697C24.661 19.7234 24.6313 19.7407 24.5985 19.7452C24.5735 19.7487 22.986 19.926 22.9608 19.926Z" fill="white"/>
<path d="M39.6323 35.569C39.6503 35.5545 39.6641 35.5355 39.6723 35.5139C39.6805 35.4924 39.6828 35.469 39.679 35.4462C39.504 34.4735 39.4365 33.0472 39.1203 32.0942C37.967 28.6047 35.3248 25.9067 31.6803 24.4977C31.205 24.3142 30.8293 24.243 30.532 24.28C30.183 24.3237 29.7345 24.733 29.3433 25.111C27.8493 26.4942 25.8735 26.6005 24.479 26.4457C23.105 26.2935 21.4943 25.7822 20.3758 25.143C20.3529 25.1299 20.3264 25.1244 20.3003 25.1272C17.2675 25.4562 13.0355 28.0037 10.7307 32.8285C10.709 32.5038 10.7001 32.1784 10.7042 31.853C10.7167 30.9817 9.53975 30.7357 9.2315 31.808C8.97575 32.6912 8.552 33.7865 8.775 35.5597C8.4915 35.4675 8.209 35.37 7.94225 35.297C7.22 35.098 6.4555 34.7692 5.683 34.8447C4.83375 34.917 4.22625 35.5757 4.906 36.2212C4.52175 36.5047 4.3985 37.1437 4.908 37.8132C4.59025 38.1615 4.69825 38.8757 4.89225 39.2915C4.94175 39.3977 5.0005 39.501 5.0675 39.6007C4.95596 39.8379 4.91285 40.1014 4.943 40.3617C5.156 42.1745 9.2395 42.6847 11.0837 43.6152C15.9897 47.6572 22.0878 49.639 28.26 49.2062C30.2523 49.0672 34.3923 47.5185 37.0203 43.954C38.8293 41.5062 39.1348 37.9937 39.0588 35.4055C39.5483 35.6232 39.5615 35.6247 39.632 35.5692L39.6323 35.569ZM28.467 26.042C27.7995 27.066 26.318 29.2722 25.9633 29.6167C25.7465 29.3425 25.0777 27.9867 24.492 26.6985C26.019 26.8615 27.369 26.6357 28.467 26.042ZM24.1458 26.6552C23.0463 27.873 21.8158 29.1642 21.4972 29.38C21.2902 28.9347 21.0103 26.2082 20.9545 25.7177C21.9218 26.158 23.0853 26.5025 24.1458 26.6552ZM36.8193 43.8055C34.2413 47.3025 30.1905 48.821 28.2428 48.957C22.1273 49.3867 16.0867 47.4177 11.2322 43.4137C11.152 43.3462 10.5422 43.1082 10.3855 43.0492C8.58725 42.3687 4.64 41.6295 5.24375 39.8307C5.52125 40.148 5.89475 40.4142 6.38225 40.6432C6.53225 40.714 6.63725 40.4867 6.4885 40.417C5.905 40.1432 5.39025 39.767 5.119 39.186C4.95625 38.8372 4.878 38.2687 5.06975 38.0102C5.58625 38.5992 6.3145 39.0012 7.0195 39.3627C7.049 39.3778 7.0833 39.3806 7.11486 39.3704C7.14641 39.3603 7.17263 39.338 7.18775 39.3085C7.20286 39.279 7.20564 39.2447 7.19547 39.2131C7.18529 39.1816 7.163 39.1553 7.1335 39.1402C6.3925 38.7602 5.50075 38.2712 5.03725 37.5632C4.769 37.1625 4.795 36.864 4.864 36.684C4.927 36.5197 5.03625 36.4235 5.1095 36.3887C5.71 36.8232 6.39625 37.0107 6.834 37.1272C7.70125 37.358 7.63925 37.401 7.71775 37.401C7.85225 37.401 7.8915 37.2162 7.7685 37.1617C7.2965 36.9522 6.64075 36.8497 6.18325 36.669C5.78875 36.5137 4.86075 36.0855 4.86 35.6577C4.86 35.45 5.102 35.2635 5.30075 35.1852C5.92775 34.9325 6.7855 35.2045 7.3805 35.3897C8.0905 35.6102 7.788 35.4977 8.50025 35.7327C8.7725 35.8225 9.10425 35.9332 9.4595 36.007C9.49192 36.0137 9.5257 36.0073 9.55341 35.9892C9.58112 35.9711 9.60048 35.9426 9.60725 35.9102C9.61401 35.8778 9.60762 35.844 9.58947 35.8163C9.57133 35.7886 9.54292 35.7692 9.5105 35.7625C9.35151 35.7283 9.19389 35.688 9.038 35.6417C8.79925 33.9655 9.1845 32.873 9.4715 31.8772C9.695 31.1002 10.4625 31.256 10.454 31.8495C10.4315 33.5512 10.7712 35.1392 11.2122 36.79C12.0462 39.9127 15.5912 41.1805 18.7018 42.1047C19.5288 42.351 21.2278 42.7727 23.1418 42.7727C27.84 42.7727 30.9225 40.2645 31.6713 35.2592C33.644 34.0987 35.2908 34.2097 37.6605 34.8395C37.9338 34.912 38.4078 35.1167 38.8048 35.2925C38.8925 37.8515 38.614 41.377 36.8193 43.8055ZM37.7253 34.5977C35.0543 33.8885 33.2733 33.821 30.9525 35.4227C30.8518 35.4922 30.9013 35.6507 31.0235 35.6507C31.0848 35.6507 31.071 35.6362 31.3915 35.4312C31.1338 36.9915 30.6373 38.3155 29.9135 39.3697C26.8373 43.8465 20.609 42.4115 18.7732 41.8652C15.7892 40.9785 12.2612 39.7495 11.4537 36.7255C11.1882 35.7307 10.9007 34.5515 10.7737 33.3317C12.8832 28.5797 17.147 25.7407 20.287 25.3805C20.4148 25.4525 20.5483 25.523 20.6873 25.5912C20.6985 25.678 20.719 25.8645 20.742 26.0737C21.0997 29.3305 21.2467 29.6045 21.4295 29.6505C21.515 29.6725 21.713 29.7227 24.2925 26.8652C25.6205 29.786 25.852 29.8967 25.9508 29.8967C26.2953 29.8967 28.798 25.9937 28.9568 25.7407C29.1529 25.6046 29.3393 25.4548 29.5145 25.2925C29.7588 25.0565 30.267 24.565 30.5625 24.528C30.8175 24.4965 31.1535 24.5627 31.5895 24.731C35.163 26.1127 37.7528 28.7557 38.8823 32.173C39.167 33.031 39.2463 34.3235 39.3973 35.2812C39.0025 35.1117 38.1523 34.7112 37.7248 34.5977H37.7253Z" fill="#323232"/>
<path d="M24.5848 15.8052C24.7813 15.8052 24.9698 15.7272 25.1087 15.5882C25.2477 15.4492 25.3258 15.2608 25.3258 15.0642C25.3258 14.8677 25.2477 14.6792 25.1087 14.5403C24.9698 14.4013 24.7813 14.3232 24.5848 14.3232C24.3882 14.3232 24.1997 14.4013 24.0608 14.5403C23.9218 14.6792 23.8438 14.8677 23.8438 15.0642C23.8438 15.2608 23.9218 15.4492 24.0608 15.5882C24.1997 15.7272 24.3882 15.8052 24.5848 15.8052Z" fill="#323232"/>
<path d="M18.3992 16.1773C18.5957 16.1773 18.7842 16.0992 18.9232 15.9603C19.0621 15.8213 19.1402 15.6328 19.1402 15.4363C19.1402 15.2398 19.0621 15.0513 18.9232 14.9123C18.7842 14.7734 18.5957 14.6953 18.3992 14.6953C18.2027 14.6953 18.0142 14.7734 17.8752 14.9123C17.7363 15.0513 17.6582 15.2398 17.6582 15.4363C17.6582 15.6328 17.7363 15.8213 17.8752 15.9603C18.0142 16.0992 18.2027 16.1773 18.3992 16.1773Z" fill="#323232"/>
<path d="M23.5144 38.3667L23.5039 39.7557L28.3617 39.7929L28.3724 38.4037L23.5144 38.3667Z" fill="white"/>
<path d="M38.8843 37.6882C37.4616 37.1694 35.1461 36.7377 33.8691 37.3539C33.1383 37.7087 32.8091 39.6712 33.5461 40.2554C34.2963 40.8539 37.5416 40.6067 38.3388 40.8812C38.6348 39.8534 38.8041 38.7659 38.8841 37.6882H38.8843Z" fill="#FF7449"/>
<path d="M36.3682 38.0351C36.0049 38.1051 35.8414 39.1056 36.1304 39.4136C36.3129 39.6069 36.6509 39.5899 36.8674 39.6089C37.3044 39.6476 38.0099 39.6531 38.5859 39.8849C38.6814 39.4219 38.7602 38.9396 38.8154 38.4364C38.0699 38.0796 37.0884 37.8969 36.3684 38.0349L36.3682 38.0351Z" fill="white"/>
<path d="M38.3405 41.0052C38.2405 41.0052 38.348 40.9092 36.547 40.8395C35.3322 40.7925 33.9555 40.7395 33.4697 40.352C32.6612 39.7115 33.0017 37.6355 33.816 37.2405C35.0607 36.6397 37.3387 36.9902 38.9285 37.5697C38.954 37.5791 38.9759 37.5965 38.9906 37.6194C39.0054 37.6423 39.0123 37.6693 39.0102 37.6965C38.9237 38.8662 38.7387 39.949 38.4605 40.9147C38.453 40.9408 38.4372 40.9637 38.4156 40.98C38.3939 40.9964 38.3676 41.0052 38.3405 41.0052ZM33.9247 37.4655C33.2595 37.7885 32.9747 39.6412 33.6252 40.1565C34.2922 40.6887 37.3102 40.5065 38.254 40.7262C38.5012 39.8337 38.6692 38.841 38.7537 37.7727C37.4357 37.3067 35.1742 36.8625 33.9247 37.4655Z" fill="#323232"/>
</svg>
