<svg width="50" height="50" viewBox="0 0 50 50" fill="none" xmlns="http://www.w3.org/2000/svg">
<path d="M46.167 42.5206C46.056 41.1558 45.317 39.6706 45.1867 38.3306C44.957 36.1306 45.8367 34.1806 44.6702 32.0758C43.9579 30.8382 42.9531 29.794 41.7437 29.0346C37.359 26.2113 30.0172 26.0596 24.83 26.5958C19.1195 27.1873 9.90023 28.3223 5.84148 32.3818C3.56648 34.5993 2.99148 38.0958 3.57798 41.2608C3.10719 42.1708 2.74351 43.1323 2.49423 44.1261C2.34123 44.7761 1.99698 46.0011 2.34123 46.6701L2.47523 46.8613C3.33598 51.6816 47.7502 45.5613 47.7502 45.5613L47.8075 45.5423C47.4967 44.4641 46.8722 43.4748 46.167 42.5206Z" fill="#87E4FF"/>
<path d="M33.0672 12.9668C33.4819 13.5451 34.1422 14.0748 34.6779 14.5528C34.7935 13.9525 34.8786 13.3468 34.9327 12.7378C34.9184 12.4234 34.9441 12.1083 35.0092 11.8003C35.1949 11.2628 35.8704 11.1311 35.6592 10.4616C35.5096 10.1082 35.2283 9.82694 34.8749 9.67733C34.1965 9.33625 33.4763 9.08553 32.7327 8.93158C32.1869 8.81158 31.1077 8.50658 30.5859 8.67983C31.7487 9.55158 32.1872 11.7403 33.0672 12.9668Z" fill="white"/>
<path d="M30.1126 38.7129C29.4431 38.9629 28.7376 40.2251 28.3911 40.8741C28.2581 41.1241 27.9761 41.6181 28.0851 41.9264C28.2061 42.2684 28.9458 41.4864 29.0601 41.3514C29.0793 41.3324 29.3471 41.0071 29.3471 41.1029C29.3471 41.4279 29.1423 41.8501 29.0601 42.1739C28.8818 42.8165 28.7791 43.4777 28.7541 44.1441C28.7503 44.4119 28.7136 45.0464 28.9453 45.1961C29.2571 45.3974 29.6758 43.4561 29.7486 43.0921C29.7988 42.8401 29.8626 42.5911 29.9398 42.3461C29.9383 42.5831 29.9191 42.8197 29.8826 43.0539C29.8042 43.6959 29.8106 44.3453 29.9016 44.9856C29.9213 45.1194 29.9781 45.4639 30.1313 45.5021C30.2846 45.5404 30.3608 45.1386 30.3991 45.0239C30.5961 44.2851 30.7868 42.4609 30.8581 42.4609C30.9346 42.5374 30.8581 43.0359 30.8581 43.1304C30.8581 43.6659 30.7241 45.1961 31.2023 45.4639C31.4128 45.5976 31.5066 44.9661 31.5273 44.8326C31.6326 44.1616 31.7186 43.4936 31.7568 42.8241C31.7568 42.7286 31.7376 42.2121 31.8333 42.1356C31.9438 42.4674 31.9781 44.1824 32.4083 44.1824C32.9351 44.1824 32.6938 40.6219 32.9631 38.8266H32.8101C32.2166 38.9806 30.7438 38.8659 30.1126 38.7129Z" fill="white"/>
<path d="M18.3315 39.516H18.1978C17.7195 39.669 16.151 39.841 15.4628 39.6882L15.4243 39.822C15.3318 41.6987 14.5728 44.347 15.0608 44.451C15.4058 44.5237 15.7328 43.3997 15.8068 43.151C15.8463 43.0175 15.8995 42.8825 15.9405 42.7492C15.9573 42.6885 15.983 42.6305 16.017 42.5772C16.1033 42.692 15.8098 43.7292 15.7875 45.2742C15.7858 45.408 15.77 46.043 15.998 45.9627C16.5175 45.78 16.693 44.2392 16.7823 43.7247C16.799 43.6287 16.8205 43.1127 16.916 43.0555C16.945 43.4892 16.836 44.238 16.8588 45.6567C16.8605 45.7715 16.8778 46.1732 17.0308 46.1732C17.1838 46.1732 17.2988 45.8482 17.3558 45.714C17.5691 45.1033 17.6978 44.4662 17.7383 43.8205C17.7415 43.589 17.7673 43.3585 17.8148 43.132C17.834 43.132 17.853 43.8587 17.853 43.9162C17.848 44.5047 17.8863 45.0927 17.968 45.6757C17.985 45.791 18.043 46.207 18.218 46.135C18.464 46.033 18.558 45.4075 18.6005 45.1402C18.702 44.4817 18.727 43.8137 18.675 43.1495C18.6515 42.8245 18.522 42.3652 18.5985 42.0402C18.6178 41.9255 18.828 42.308 18.8473 42.327C18.9428 42.48 19.5125 43.377 19.6888 43.073C19.857 42.7837 19.6678 42.251 19.5933 41.9827C19.3975 41.2772 18.9628 39.8995 18.3315 39.516Z" fill="white"/>
<path d="M39.3513 17.9406C38.6818 17.0606 37.7763 16.1591 36.7513 15.7406C35.4993 15.2301 31.5378 15.3046 31.2808 15.3388C31.3448 15.4998 31.3533 15.6776 31.3048 15.844C31.2563 16.0103 31.1536 16.1557 31.0131 16.2571C30.841 16.3679 30.6808 16.4961 30.5348 16.6396C30.3246 16.8883 30.3491 17.2546 30.1906 17.5396C29.9316 18.0036 29.0431 18.0368 28.6986 17.6353L28.6796 17.5778C29.5796 17.1953 30.3818 15.8563 29.5403 15.1103C29.4181 15.0059 29.2718 14.9337 29.1146 14.9003C28.9574 14.8669 28.7944 14.8734 28.6403 14.9191C28.5028 14.9725 28.3737 15.0455 28.2571 15.1358C28.2321 14.7451 28.1821 14.2053 28.1821 14.0393C27.6273 14.1348 27.0916 13.8861 26.5571 13.5418C26.3276 13.3888 25.9821 12.9363 25.6963 12.9108C25.5238 12.8953 25.4478 13.4271 25.3713 13.5228C25.0651 14.0008 24.4341 13.5801 24.1278 13.3123C23.539 12.6937 23.1292 11.9268 22.9421 11.0936C20.0671 11.0936 18.8278 13.3306 19.0783 15.8373C19.1006 15.9573 19.1133 16.0786 19.1166 16.2006C19.1166 16.1006 18.3473 15.8546 17.8916 16.4111C17.3056 17.1281 17.9298 18.0751 18.6951 18.4768C18.3633 18.9741 16.8883 18.9698 16.5528 18.0751C16.3998 17.6543 16.5718 17.2143 16.4571 16.7751C16.3233 16.3158 15.8003 16.1843 15.9026 15.6273C15.9645 15.3964 16.075 15.1813 16.2268 14.9966C16.3785 14.8118 16.568 14.6616 16.7826 14.5561C17.0501 14.4031 17.3826 14.3121 17.5666 14.0586C17.9231 13.5703 17.9108 12.8336 18.1596 12.2991C18.7316 11.0276 20.0971 9.71531 21.4311 9.38556C21.9061 8.59756 23.8343 7.86056 24.4718 7.66881C24.8611 7.54888 25.2582 7.45574 25.6603 7.39006C25.5456 7.16056 24.7203 7.02006 24.5288 6.96256C22.9882 6.63442 21.3976 6.61768 19.8504 6.91332C18.3033 7.20896 16.8309 7.81101 15.5198 8.68406C14.6401 9.25906 13.8748 10.0038 12.9948 10.5591C12.0576 11.1521 10.9573 10.9241 9.9728 11.3433C9.77398 11.423 9.59216 11.5398 9.43705 11.6876C8.4233 12.7013 9.34155 13.8298 10.1448 14.6906C9.6488 15.3246 9.83155 18.0443 9.8888 18.8453C9.5663 19.0236 8.3263 20.2791 7.5808 21.8043C5.9558 24.9218 5.51505 28.9388 5.82105 32.4391C7.79105 30.4891 10.6603 29.3213 13.5868 28.5371C13.8203 26.5745 14.5659 24.7079 15.7488 23.1246C17.4796 20.8938 19.4183 20.3928 20.3968 20.0246C20.9745 20.7119 21.7488 21.2059 22.6156 21.4401C22.6156 21.9616 23.3106 22.6901 24.2606 22.7598C25.4466 22.8363 26.2106 21.9946 26.2106 21.2098L26.1151 21.0566C26.8786 20.6401 27.4738 19.9713 27.7988 19.1646C28.2146 19.3731 30.1516 19.3851 32.4086 22.2441C33.3932 23.5407 34.0673 25.046 34.3788 26.6441H34.3978C36.9758 27.0191 39.5911 27.6543 41.7818 29.0646C41.7488 25.4246 41.5488 20.7806 39.3513 17.9406Z" fill="white"/>
<path d="M33.8437 24.8455C33.4964 23.9183 33.0129 23.0481 32.4092 22.2635C30.2264 19.4385 28.1862 19.3772 27.7994 19.184C27.4751 19.9913 26.8802 20.6607 26.1164 21.0775L26.2119 21.2305C26.2119 21.9955 25.4464 22.862 24.2619 22.7805C23.9256 22.7604 23.6004 22.6528 23.3186 22.4682C23.0367 22.2837 22.808 22.0287 22.6552 21.7285C22.6169 21.6448 22.6036 21.5518 22.6169 21.4607C21.9041 21.2726 21.2519 20.9037 20.7234 20.3897C20.6077 20.276 20.5129 20.1602 20.3984 20.0455L20.2454 20.1027C19.6954 20.1027 14.5417 21.7452 13.5892 28.557C13.1617 31.6135 13.6072 35.741 14.6412 38.5797C14.8254 39.0855 14.9334 39.6022 15.4637 39.7275C16.2734 39.9187 18.3327 39.6275 18.3327 39.4787C18.4284 39.2685 17.7214 37.1452 17.5867 35.6537C17.3587 33.1287 17.3764 30.0687 18.2562 27.582C18.4784 27.657 23.9489 26.377 29.6944 26.377L29.7327 26.358C30.7272 28.921 30.7022 32.133 30.5359 34.774C30.4567 36.0362 29.8474 38.1787 29.7899 38.599C29.7899 38.7977 32.0282 39.049 32.7357 38.8285C32.7739 38.8092 32.8124 38.7907 32.8504 38.771C33.2157 38.5837 33.3299 38.064 33.4624 37.7C34.7924 34.0442 35.1249 28.2395 33.8437 24.8455Z" fill="#016DAB"/>
<path d="M26.7081 17.2518C26.7978 17.2533 26.8867 17.2348 26.9683 17.1975C27.0499 17.1603 27.1221 17.1052 27.1798 17.0365C27.2374 16.9677 27.2789 16.8869 27.3012 16.8C27.3236 16.7132 27.3263 16.6224 27.3091 16.5343C27.2921 16.4462 27.2556 16.363 27.2023 16.2908C27.149 16.2186 27.0802 16.1592 27.001 16.117C26.9218 16.0748 26.8341 16.0509 26.7445 16.047C26.6548 16.043 26.5654 16.0592 26.4828 16.0943C26.3723 16.1411 26.2783 16.2198 26.2128 16.3204C26.1473 16.421 26.1134 16.5388 26.1153 16.6588C26.1161 16.8158 26.1788 16.9661 26.2898 17.0772C26.4008 17.1882 26.5511 17.251 26.7081 17.2518Z" fill="#FDAF31"/>
<path d="M20.9895 17.7873C21.1515 17.7862 21.3066 17.7213 21.4211 17.6066C21.5357 17.492 21.6005 17.3368 21.6015 17.1748C21.6025 17.0941 21.5874 17.0141 21.557 16.9394C21.5266 16.8646 21.4816 16.7968 21.4245 16.7397C21.3675 16.6827 21.2996 16.6376 21.2249 16.6073C21.1502 16.5769 21.0701 16.5618 20.9895 16.5628C20.827 16.5628 20.6712 16.6273 20.5564 16.7422C20.4415 16.8571 20.377 17.0129 20.377 17.1753C20.377 17.3377 20.4415 17.4935 20.5564 17.6084C20.6712 17.7233 20.827 17.7878 20.9895 17.7878V17.7875V17.7873Z" fill="#FDAF31"/>
<path d="M19.2656 17.671C19.0594 17.4577 18.7854 17.3228 18.4906 17.2895C18.4662 17.2856 18.4443 17.2724 18.4295 17.2527C18.4146 17.2329 18.4079 17.2083 18.4108 17.1837C18.4137 17.1592 18.426 17.1368 18.4451 17.1211C18.4641 17.1054 18.4885 17.0977 18.5131 17.0995C18.8524 17.1384 19.1675 17.2943 19.4044 17.5403C19.42 17.5589 19.4278 17.5829 19.4264 17.6072C19.4249 17.6314 19.4142 17.6542 19.3965 17.6709C19.3788 17.6876 19.3554 17.6969 19.3311 17.6969C19.3068 17.6969 19.2833 17.6877 19.2656 17.671Z" fill="#414141"/>
<path d="M28.2408 16.5246C28.311 16.1978 28.7288 15.9553 28.9758 15.8793C29.0001 15.8719 29.0263 15.8744 29.0487 15.8863C29.0712 15.8981 29.088 15.9185 29.0954 15.9427C29.1029 15.967 29.1004 15.9932 29.0885 16.0157C29.0766 16.0381 29.0563 16.0549 29.032 16.0623C28.809 16.1308 28.4753 16.3436 28.428 16.5646C28.4207 16.5872 28.4052 16.6064 28.3846 16.6183C28.364 16.6302 28.3397 16.634 28.3164 16.629C28.2931 16.624 28.2725 16.6106 28.2585 16.5913C28.2446 16.572 28.2382 16.5483 28.2408 16.5246Z" fill="#414141"/>
<path d="M19.72 13.7247C20.0563 13.0944 21.087 12.4444 21.8118 12.5857C21.8241 12.5881 21.8358 12.5929 21.8463 12.5998C21.8568 12.6067 21.8658 12.6156 21.8728 12.626C21.8799 12.6364 21.8848 12.6481 21.8873 12.6604C21.8898 12.6727 21.8899 12.6854 21.8875 12.6977C21.8851 12.71 21.8803 12.7218 21.8734 12.7322C21.8665 12.7427 21.8576 12.7517 21.8472 12.7588C21.8368 12.7658 21.8251 12.7707 21.8128 12.7732C21.8005 12.7758 21.7878 12.7758 21.7755 12.7734C21.1538 12.6529 20.186 13.2577 19.8888 13.8147C19.8761 13.8357 19.8559 13.8511 19.8322 13.8577C19.8086 13.8642 19.7833 13.8614 19.7616 13.8499C19.74 13.8383 19.7236 13.8189 19.7158 13.7956C19.7081 13.7723 19.7096 13.7469 19.72 13.7247Z" fill="#414141"/>
<path d="M20.627 15.9203C20.4502 15.9209 20.274 15.8981 20.1032 15.8525C20.037 15.8408 19.8602 15.8025 19.8282 15.7245C19.8194 15.7039 19.8179 15.6808 19.8241 15.6593C19.8303 15.6377 19.8438 15.6189 19.8622 15.6062C19.8807 15.5934 19.903 15.5874 19.9253 15.5892C19.9477 15.591 19.9688 15.6005 19.985 15.616C20.2418 15.7109 20.5166 15.7472 20.7892 15.7223C21.3015 15.6723 21.6452 15.3555 22.0035 14.8973C22.0198 14.8797 22.0422 14.8689 22.0662 14.867C22.0901 14.8651 22.1139 14.8723 22.1328 14.8872C22.1517 14.9021 22.1643 14.9235 22.1681 14.9472C22.1719 14.9709 22.1667 14.9952 22.1535 15.0153C21.728 15.561 21.3162 15.9203 20.627 15.9203Z" fill="#414141"/>
<path d="M25.4627 14.5497C25.4501 14.5286 25.4462 14.5035 25.4516 14.4796C25.457 14.4557 25.4714 14.4348 25.4918 14.4212C25.5122 14.4075 25.537 14.4023 25.5612 14.4064C25.5853 14.4106 25.607 14.4238 25.6217 14.4435C25.6634 14.5065 25.7107 14.5657 25.7629 14.6202C26.0091 14.8234 26.3044 14.9583 26.6192 15.0114C26.9339 15.0646 27.2571 15.0342 27.5564 14.9232C27.5802 14.9146 27.6065 14.9159 27.6294 14.9266C27.6524 14.9374 27.6701 14.9569 27.6787 14.9807C27.6872 15.0045 27.686 15.0308 27.6752 15.0537C27.6644 15.0767 27.645 15.0944 27.6212 15.103C26.7434 15.4202 25.8184 15.0842 25.4627 14.5497Z" fill="#414141"/>
<path d="M23.7643 17.3778C23.7273 17.0618 23.643 15.5193 23.5918 14.7333C23.5921 14.7091 23.6015 14.686 23.6182 14.6685C23.6348 14.6509 23.6574 14.6403 23.6815 14.6388C23.7056 14.6372 23.7294 14.6447 23.7482 14.66C23.767 14.6752 23.7793 14.6969 23.7828 14.7208C23.8018 15.0143 23.929 17.1413 23.9543 17.3553C23.9562 17.3799 23.9484 17.4043 23.9327 17.4234C23.9171 17.4424 23.8946 17.4547 23.8701 17.4576C23.8456 17.4605 23.8209 17.4538 23.8012 17.4389C23.7814 17.4241 23.7682 17.4022 23.7643 17.3778Z" fill="#414141"/>
<path d="M24.0337 18.9768C23.6654 18.9768 22.9939 18.7968 22.7977 18.6018C22.7797 18.5839 22.7696 18.5596 22.7695 18.5343C22.7695 18.5089 22.7795 18.4846 22.7974 18.4666C22.8153 18.4486 22.8396 18.4385 22.865 18.4385C22.8904 18.4384 22.9147 18.4484 22.9327 18.4663C22.9592 18.4838 22.9852 18.5033 23.0094 18.5241C23.0707 18.5466 23.1294 18.5746 23.1859 18.6076C23.3724 18.6776 23.5649 18.7301 23.7609 18.7651C24.0459 18.8063 24.3365 18.7818 24.6105 18.6933C24.8846 18.6048 25.1347 18.4547 25.3417 18.2546C25.3602 18.2383 25.3843 18.2298 25.409 18.2309C25.4336 18.232 25.4569 18.2426 25.474 18.2604C25.491 18.2782 25.5005 18.302 25.5005 18.3266C25.5005 18.3513 25.491 18.375 25.4739 18.3928C25.0864 18.7646 24.571 18.9737 24.0339 18.9768H24.0337Z" fill="#414141"/>
<path d="M22.8654 18.6289C22.8409 18.628 22.8177 18.6176 22.8006 18.6001C22.7834 18.5825 22.7737 18.559 22.7734 18.5344C22.7732 18.5099 22.7823 18.4862 22.799 18.4682C22.8157 18.4502 22.8387 18.4394 22.8632 18.4379C22.8887 18.4378 22.9133 18.4477 22.9316 18.4656C22.9499 18.4834 22.9605 18.5077 22.9611 18.5333C22.9611 18.5586 22.951 18.5829 22.9331 18.6009C22.9151 18.6188 22.8908 18.6289 22.8654 18.6289Z" fill="#414141"/>
<path d="M10.6221 15.3392C10.5508 15.3392 10.5886 15.3287 10.2271 14.9409C9.23109 13.8727 8.26759 12.7002 9.34959 11.6184C9.82759 11.1399 10.6496 11.0147 11.3101 10.9319C12.5646 10.7739 12.7063 10.7084 14.1778 9.54517C14.5838 9.22417 15.0028 8.89217 15.4473 8.60267C16.7967 7.70582 18.3144 7.09297 19.9082 6.80144C21.502 6.50991 23.1384 6.5458 24.7178 6.90692C25.1601 7.00267 25.6016 7.11492 25.7213 7.33692C25.7329 7.35803 25.7361 7.38276 25.7302 7.40611C25.7242 7.42945 25.7096 7.44967 25.6893 7.46267C25.6692 7.47585 25.6448 7.48099 25.6211 7.47705C25.5973 7.47312 25.5759 7.4604 25.5611 7.44142C25.5509 7.43159 25.5432 7.41951 25.5386 7.40617C25.4168 7.25417 24.9026 7.14267 24.6773 7.09392C23.3105 6.77202 21.8956 6.70734 20.5051 6.90317C18.7337 7.13565 17.0393 7.77174 15.5526 8.76242C15.1153 9.04742 14.6991 9.37667 14.2963 9.69517C12.8198 10.8627 12.6443 10.9569 11.3341 11.1217C10.7341 11.1967 9.92759 11.3104 9.48409 11.7537C8.50909 12.7287 9.42684 13.8037 10.3666 14.8104C10.4891 14.9417 10.6043 15.0657 10.6971 15.1854C10.7078 15.1995 10.7144 15.2164 10.7162 15.234C10.7179 15.2517 10.7147 15.2695 10.707 15.2854C10.6992 15.3013 10.6871 15.3148 10.6721 15.3243C10.6572 15.3338 10.6398 15.3389 10.6221 15.3392Z" fill="#414141"/>
<path d="M11.6537 27.4819C11.4399 27.1611 11.4967 26.7904 11.5519 26.4319C11.6469 25.8136 11.6552 25.6716 11.1019 24.5469C10.1319 22.5759 9.89442 20.2706 9.74467 18.1384C9.60692 16.1759 9.86817 14.4289 10.1897 14.6424C10.2002 14.6493 10.2092 14.6582 10.2162 14.6686C10.2232 14.679 10.2281 14.6908 10.2306 14.7031C10.233 14.7154 10.233 14.7281 10.2306 14.7404C10.2281 14.7527 10.2232 14.7644 10.2162 14.7749C9.63767 15.6431 9.99467 19.3319 10.1639 20.4314C10.2948 21.5268 10.5432 22.6049 10.9049 23.6471C11.0136 23.9248 11.1364 24.1968 11.2727 24.4621C11.8507 25.6354 11.8402 25.8151 11.7409 26.4609C11.6892 26.7981 11.6409 27.1164 11.8122 27.3744C12.2322 27.9871 13.0622 27.9071 13.6557 27.5744C13.6777 27.5633 13.7031 27.5611 13.7267 27.5683C13.7502 27.5755 13.7701 27.5915 13.7822 27.613C13.7942 27.6344 13.7976 27.6597 13.7915 27.6836C13.7854 27.7075 13.7703 27.7281 13.7494 27.7411C13.0459 28.1361 12.1249 28.1699 11.6537 27.4816V27.4819Z" fill="#414141"/>
<path d="M34.6101 14.4047C34.7276 13.7661 34.8061 13.1209 34.8451 12.4727C34.8488 11.8012 34.9181 11.6477 35.2968 11.2647C35.5186 11.0397 35.6938 10.8647 35.5698 10.492C35.5035 10.3238 35.4039 10.1707 35.277 10.0418C35.1502 9.91297 34.9987 9.81098 34.8316 9.74195C34.0662 9.36455 33.2533 9.09209 32.4151 8.93195C31.904 8.77088 31.369 8.69899 30.8336 8.71945C30.8088 8.72207 30.784 8.71486 30.7646 8.69939C30.7451 8.68391 30.7324 8.6614 30.7293 8.6367C30.7261 8.61207 30.7325 8.58714 30.7473 8.56717C30.7621 8.54721 30.7841 8.53377 30.8086 8.5297C31.3678 8.50499 31.927 8.57835 32.4608 8.74645C33.3143 8.90785 34.1415 9.18543 34.9196 9.57145C35.1091 9.65142 35.2806 9.7689 35.4235 9.91682C35.5665 10.0647 35.6781 10.24 35.7516 10.4322C35.9118 10.913 35.6571 11.1705 35.4323 11.3972C34.8103 12.0252 35.2556 11.7795 34.7978 14.4355C34.7919 14.4585 34.7776 14.4785 34.7576 14.4916C34.7377 14.5046 34.7136 14.5097 34.69 14.5059C34.6665 14.5021 34.6453 14.4896 34.6305 14.4709C34.6157 14.4523 34.6084 14.4287 34.6101 14.405V14.4047Z" fill="#414141"/>
<path d="M34.4113 24.8454C34.2405 24.8279 34.0408 25.0102 33.8233 24.9139C33.8067 24.9058 33.7928 24.893 33.7832 24.8772C33.7737 24.8613 33.769 24.843 33.7696 24.8246C33.7702 24.8061 33.7761 24.7882 33.7867 24.773C33.7972 24.7578 33.8119 24.7459 33.829 24.7389C33.8521 24.7296 33.8778 24.7296 33.9008 24.7389C34.0238 24.7937 34.2138 24.6337 34.4258 24.6547C34.813 24.6762 34.9815 25.1047 35.2875 24.8144C35.5543 24.5472 35.5125 24.0644 35.469 23.6894C35.4546 23.5343 35.4258 23.3808 35.383 23.2309C35.3693 23.2177 35.3598 23.2007 35.3558 23.182C35.3518 23.1634 35.3535 23.144 35.3605 23.1263C35.3676 23.1086 35.3798 23.0934 35.3956 23.0827C35.4114 23.072 35.43 23.0662 35.449 23.0662C35.58 23.0662 35.6003 23.2472 35.6583 23.6624C35.72 24.1047 35.743 24.6284 35.421 24.9509C35.0025 25.3497 34.7035 24.8617 34.4113 24.8454Z" fill="#414141"/>
<path d="M13.6641 20.733C13.6641 20.631 13.7816 20.5735 13.9348 20.508C14.2723 20.3643 14.6256 20.2607 14.9873 20.1995C16.2712 19.9029 17.6123 19.9705 18.8598 20.3948C18.8717 20.3989 18.8826 20.4053 18.892 20.4136C18.9014 20.4219 18.9091 20.432 18.9146 20.4433C18.9201 20.4546 18.9233 20.4669 18.924 20.4794C18.9248 20.4919 18.923 20.5045 18.9189 20.5164C18.9148 20.5282 18.9084 20.5392 18.9001 20.5486C18.8918 20.558 18.8817 20.5656 18.8704 20.5711C18.8591 20.5766 18.8468 20.5798 18.8343 20.5806C18.8217 20.5813 18.8092 20.5796 18.7973 20.5755C17.5819 20.1626 16.2754 20.0971 15.0248 20.3863C14.6158 20.4501 14.2194 20.5776 13.8498 20.764C13.8422 20.785 13.8274 20.8027 13.8081 20.814C13.7888 20.8253 13.7661 20.8295 13.744 20.8258C13.722 20.8221 13.7019 20.8108 13.6873 20.7939C13.6727 20.7769 13.6644 20.7554 13.6641 20.733Z" fill="#414141"/>
<path d="M16.8071 18.6432C16.1456 18.4165 15.4706 18.3802 14.7756 18.2645C14.7514 18.2595 14.73 18.2453 14.716 18.2248C14.702 18.2044 14.6964 18.1794 14.7005 18.1549C14.7046 18.1305 14.718 18.1086 14.7379 18.0939C14.7577 18.0791 14.7826 18.0726 14.8071 18.0757C15.4921 18.19 16.1904 18.2295 16.8691 18.4622C16.8921 18.4712 16.9107 18.4887 16.9211 18.5111C16.9315 18.5335 16.9328 18.5591 16.9248 18.5824C16.9168 18.6058 16.9001 18.6251 16.8782 18.6365C16.8562 18.6478 16.8308 18.6502 16.8071 18.6432Z" fill="#414141"/>
<path d="M28.6665 19.3295C29.282 18.6628 29.9963 18.333 30.8568 18.045C30.9182 18.0042 30.9929 17.9885 31.0655 18.0013C31.0836 18.0092 31.099 18.0221 31.11 18.0385C31.121 18.0549 31.1272 18.074 31.1278 18.0938C31.1271 18.1079 31.1234 18.1217 31.117 18.1344C31.1106 18.147 31.1016 18.1581 31.0905 18.167C31.0795 18.1759 31.0666 18.1822 31.0528 18.1856C31.0391 18.1891 31.0247 18.1894 31.0108 18.1868C30.992 18.1918 30.974 18.1985 30.9568 18.2073C30.862 18.3018 29.7068 18.4823 28.8068 19.4593C28.789 19.4753 28.7658 19.4841 28.7418 19.484C28.7179 19.4838 28.6948 19.4747 28.6772 19.4584C28.6596 19.4421 28.6488 19.4198 28.6468 19.3959C28.6448 19.372 28.6519 19.3482 28.6665 19.3293V19.3295Z" fill="#414141"/>
<path d="M31.3943 20.0064C30.8486 19.8712 30.2808 19.8511 29.727 19.9474C29.702 19.9517 29.6764 19.946 29.6557 19.9314C29.635 19.9168 29.6209 19.8945 29.6166 19.8696C29.6123 19.8446 29.6181 19.8189 29.6327 19.7982C29.6473 19.7775 29.6695 19.7635 29.6945 19.7592C30.2664 19.6603 30.8526 19.6802 31.4165 19.8177C31.4388 19.8236 31.4583 19.8374 31.4712 19.8565C31.4842 19.8756 31.4899 19.8988 31.4872 19.9217C31.4845 19.9446 31.4736 19.9658 31.4565 19.9814C31.4395 19.997 31.4173 20.0059 31.3943 20.0064Z" fill="#414141"/>
<path d="M5.7267 32.4473C5.3797 28.478 6.0247 24.5828 7.4967 21.7598C7.94735 20.8609 8.52978 20.0343 9.2247 19.3075C9.4542 19.0405 9.65495 18.8198 9.83045 18.84C9.85455 18.8441 9.87616 18.8573 9.89086 18.8768C9.90557 18.8964 9.91224 18.9208 9.90952 18.9451C9.90681 18.9694 9.8949 18.9917 9.87625 19.0075C9.8576 19.0233 9.83361 19.0314 9.8092 19.03C9.69695 19.03 9.34145 19.4723 9.27545 19.5383C6.32245 22.6648 5.53995 28.1133 5.91745 32.4308C5.91862 32.4433 5.91729 32.4559 5.91353 32.4679C5.90978 32.48 5.90368 32.4911 5.89558 32.5007C5.88749 32.5103 5.87756 32.5183 5.86638 32.524C5.8552 32.5298 5.84299 32.5333 5.83045 32.5343C5.80516 32.5365 5.78002 32.5286 5.76056 32.5123C5.74111 32.496 5.72893 32.4726 5.7267 32.4473Z" fill="#414141"/>
<path d="M41.7056 28.9786C41.6431 25.1146 41.3991 20.7611 39.2771 17.9989C38.4476 16.9086 37.5624 16.1589 36.7169 15.8299C36.4375 15.7077 36.1427 15.6243 35.8406 15.5819C35.8235 15.598 35.801 15.6073 35.7774 15.6078C35.7539 15.6084 35.731 15.6002 35.7131 15.5849C35.6952 15.5696 35.6836 15.5482 35.6805 15.5248C35.6774 15.5015 35.6831 15.4778 35.6964 15.4584C35.7814 15.3314 36.1481 15.3966 36.7871 15.6521C37.6771 15.9981 38.5661 16.7486 39.4291 17.8826C41.5864 20.6909 41.8341 25.0809 41.8969 28.9754C41.8962 28.9937 41.8903 29.0114 41.8799 29.0264C41.8695 29.0415 41.855 29.0532 41.8382 29.0603C41.8213 29.0674 41.8028 29.0695 41.7847 29.0665C41.7667 29.0634 41.7499 29.0552 41.7364 29.0429C41.7182 29.0263 41.7072 29.0032 41.7056 28.9786Z" fill="#414141"/>
<path d="M2.25437 46.7498C1.94312 46.1088 2.20437 45.0368 2.37512 44.3273C3.05987 41.4885 4.24937 40.1248 5.54387 37.4095C5.5555 37.3878 5.57502 37.3713 5.59842 37.3635C5.62181 37.3558 5.6473 37.3573 5.66962 37.3678C5.69181 37.3785 5.70905 37.3973 5.71779 37.4204C5.72653 37.4435 5.72611 37.469 5.71662 37.4918C4.42637 40.1973 3.23737 41.568 2.56087 44.3725C2.40612 45.014 2.14512 46.0873 2.42637 46.6665C2.43184 46.6778 2.43502 46.6901 2.43575 46.7026C2.43648 46.7151 2.43474 46.7277 2.43061 46.7395C2.42649 46.7514 2.42008 46.7623 2.41174 46.7717C2.40339 46.781 2.39329 46.7887 2.38199 46.7941C2.3707 46.7996 2.35844 46.8028 2.34592 46.8035C2.33339 46.8042 2.32084 46.8025 2.30899 46.7984C2.29714 46.7943 2.28622 46.7878 2.27685 46.7795C2.26747 46.7712 2.25984 46.761 2.25437 46.7498Z" fill="#414141"/>
<path d="M47.861 45.5566C47.3342 43.4151 45.556 41.7783 44.3677 39.8861C44.3541 39.8648 44.3327 39.8496 44.308 39.8438C44.2958 39.8409 44.2831 39.8405 44.2708 39.8426C44.2584 39.8447 44.2466 39.8493 44.236 39.8561C44.2146 39.8697 44.1995 39.8911 44.1939 39.9158C44.1883 39.9405 44.1926 39.9663 44.206 39.9878C45.402 41.8928 47.106 43.4426 47.6522 45.5128C43.135 46.1278 3.34374 51.3286 2.54974 46.8826C2.54779 46.87 2.54334 46.8579 2.53665 46.847C2.52996 46.8362 2.52117 46.8268 2.5108 46.8194C2.50043 46.8119 2.48867 46.8067 2.47624 46.8039C2.4638 46.8011 2.45093 46.8007 2.43837 46.803C2.42582 46.8052 2.41383 46.8099 2.40313 46.8169C2.39242 46.8238 2.3832 46.8328 2.37602 46.8433C2.36883 46.8538 2.36383 46.8657 2.36129 46.8782C2.35875 46.8907 2.35874 46.9036 2.36124 46.9161C3.19824 51.6036 43.0595 46.3388 47.7427 45.6933C47.776 45.6888 47.8817 45.6411 47.861 45.5566Z" fill="#414141"/>
<path d="M7.2738 40.2049C7.25177 40.2051 7.23036 40.1976 7.21322 40.1837C7.19608 40.1699 7.18425 40.1505 7.17975 40.129C7.17525 40.1074 7.17834 40.0849 7.18851 40.0654C7.19868 40.0458 7.2153 40.0304 7.23555 40.0217C9.3472 39.1088 11.5352 38.3838 13.7741 37.8549C13.7925 37.8503 13.8119 37.8513 13.8298 37.8578C13.8476 37.8642 13.8631 37.8759 13.8743 37.8913C13.8854 37.9068 13.8917 37.9251 13.8923 37.9441C13.8929 37.9632 13.8877 37.9819 13.8776 37.9979C13.871 38.0087 13.8624 38.018 13.8522 38.0254C13.842 38.0327 13.8305 38.038 13.8183 38.0409C11.5785 38.5724 9.3889 39.2965 7.2738 40.2049Z" fill="#414141"/>
<path d="M19.6323 36.6662C19.6085 36.6656 19.5857 36.6561 19.5685 36.6396C19.5513 36.623 19.5409 36.6007 19.5393 36.5769C19.5377 36.5531 19.545 36.5295 19.5599 36.5109C19.5747 36.4922 19.596 36.4797 19.6196 36.4759C22.0541 36.1424 27.9751 35.2909 30.4116 35.5574C30.4361 35.5611 30.4582 35.5741 30.4734 35.5936C30.4886 35.6132 30.4956 35.6378 30.4931 35.6624C30.4904 35.6871 30.4782 35.7098 30.4591 35.7257C30.4401 35.7416 30.4156 35.7495 30.3908 35.7477C27.5553 35.4374 19.8733 36.6662 19.6323 36.6662Z" fill="#414141"/>
<path d="M40.8207 37.1798C39.2682 36.7818 34.7555 36.0225 34.1707 36.1478C34.1466 36.1514 34.1219 36.1458 34.1018 36.1319C34.0817 36.118 34.0677 36.0969 34.0626 36.073C34.0576 36.0491 34.0618 36.0242 34.0745 36.0033C34.0872 35.9824 34.1074 35.9672 34.131 35.9608C34.7892 35.8215 39.4235 36.6238 40.8692 36.9945C40.8938 37.0011 40.9147 37.0171 40.9275 37.0389C40.9403 37.0608 40.944 37.0869 40.9377 37.1115C40.9345 37.1237 40.929 37.1351 40.9214 37.1451C40.9138 37.1551 40.9043 37.1635 40.8934 37.1699C40.8825 37.1762 40.8705 37.1803 40.858 37.182C40.8456 37.1837 40.8329 37.183 40.8207 37.1798Z" fill="#414141"/>
<path d="M32.4848 22.204C31.5458 21.015 30.1805 19.594 27.9308 19.1358C28.1069 18.6967 28.2264 18.237 28.2863 17.7678C28.3968 17.7575 28.5058 17.7353 28.6113 17.7015C29.0113 18.156 29.9325 18.113 30.252 17.5908C30.332 17.4478 30.39 17.2938 30.424 17.1333C30.4524 16.985 30.505 16.8424 30.5798 16.7113C30.726 16.5743 30.8859 16.4528 31.057 16.3485C31.396 16.052 31.4168 15.7785 31.3365 15.378C31.3329 15.3595 31.3238 15.3425 31.3105 15.3291C31.2971 15.3157 31.2801 15.3066 31.2616 15.3029C31.2431 15.2991 31.2239 15.301 31.2064 15.3082C31.189 15.3154 31.174 15.3276 31.1635 15.3433C29.9435 14.7918 29.0835 13.1955 28.2973 12.2408C27.1488 10.9145 25.63 9.96193 23.936 9.50552C22.9876 9.22244 21.9772 9.22244 21.0288 9.50552C19.8038 9.94552 18.657 11.1888 18.1405 12.3363C17.8905 12.8718 17.8905 13.5988 17.5475 14.096C17.3755 14.346 17.031 14.4403 16.7633 14.5933C16.3618 14.8228 15.96 15.1863 15.8835 15.6645C15.7878 16.2193 16.3043 16.353 16.4383 16.812C16.572 17.233 16.3808 17.692 16.5338 18.112C16.869 19.0063 18.3633 18.9825 18.6373 18.572C18.9212 18.7399 19.2487 18.8195 19.578 18.8008C19.7365 19.226 19.9567 19.6256 20.2315 19.9868C19.7859 20.0797 19.3526 20.224 18.9403 20.4168C15.9588 21.9073 14.285 24.4523 13.6465 27.644C12.9318 31.2163 13.5215 35.7733 14.5505 38.5738C14.7005 38.9808 14.8338 39.5453 15.2735 39.7308C15.177 41.9375 14.3505 44.3683 14.9818 44.5058C15.3768 44.592 15.663 43.6593 15.8023 43.2543C15.7034 43.9103 15.6475 44.572 15.635 45.2353C15.6338 45.3828 15.6178 45.8618 15.7943 45.9898C15.82 46.0082 15.8498 46.02 15.8812 46.0241C15.9125 46.0283 15.9444 46.0246 15.974 46.0135C16.4033 45.8545 16.6018 44.9933 16.7453 44.1448C16.7138 44.6692 16.7106 45.195 16.7358 45.7198C16.754 45.9228 16.782 46.2298 16.9928 46.2298C17.1928 46.2298 17.3085 45.948 17.3855 45.7618C17.5595 45.3105 17.6809 44.8408 17.7475 44.3618C17.766 44.8823 17.8295 45.4938 17.8583 45.6725C17.894 45.8945 17.9445 46.1093 18.072 46.1785C18.097 46.1921 18.1249 46.1997 18.1533 46.2006C18.1817 46.2014 18.21 46.1956 18.2358 46.1835C18.528 46.0585 18.6373 45.5135 18.6943 45.115C18.9368 43.465 18.682 42.663 18.679 42.2193C18.8505 42.4903 19.2743 43.213 19.5873 43.213C19.6251 43.213 19.6621 43.2028 19.6946 43.1836C19.7271 43.1643 19.7539 43.1367 19.772 43.1035C19.9593 42.791 19.788 42.2813 19.6858 41.9368C19.4253 41.058 19.0123 39.8573 18.4253 39.4618C18.5143 39.1793 17.8125 37.0678 17.681 35.605C17.4025 32.5405 17.5085 29.399 18.706 26.662C18.7141 26.6392 18.7132 26.6142 18.7035 26.592C18.6939 26.5698 18.6762 26.5521 18.6541 26.5424C18.6319 26.5327 18.6069 26.5318 18.5841 26.5398C18.5613 26.5478 18.5423 26.5641 18.531 26.5855C17.31 29.3768 17.2118 32.5565 17.4908 35.6223C17.619 37.0548 18.288 39.1395 18.2458 39.3945C18.0125 39.5358 15.7185 39.8063 15.3003 39.5285C14.9715 39.338 14.8603 38.8605 14.7303 38.5078C13.7025 35.7188 13.1303 31.197 13.8355 27.6738C14.4583 24.5585 16.0913 22.0553 19.0253 20.5893C19.4533 20.3819 19.9103 20.2408 20.3808 20.171C20.9505 20.8226 21.696 21.296 22.528 21.5345C22.5078 21.573 22.5135 21.6225 22.5695 21.7705C22.715 22.0479 22.9214 22.2887 23.1732 22.4748C23.425 22.661 23.7157 22.7877 24.0235 22.8454C24.3313 22.9032 24.6482 22.8904 24.9504 22.8082C25.2526 22.7259 25.5322 22.5763 25.7683 22.3705C25.9422 22.2103 26.0793 22.0143 26.1702 21.796C26.261 21.5777 26.3036 21.3423 26.2948 21.106C26.9908 20.689 27.537 20.0624 27.8553 19.316C30.0668 19.7535 31.4113 21.153 32.3348 22.3228C33.3035 23.612 33.9705 25.1022 34.2868 26.6835C35.0118 30.0423 34.5095 34.736 33.4298 37.6665C33.2528 38.1468 33.1983 38.5138 32.765 38.7365C32.0413 38.9538 30.1873 38.6865 29.928 38.5575C30.011 38.0658 30.594 36.0008 30.6693 34.7603C30.8338 32.2185 30.8905 28.9603 29.8578 26.299C29.7828 26.1103 29.7043 25.915 29.6078 25.7215C29.5963 25.6989 29.5765 25.6817 29.5525 25.6735C29.5406 25.6695 29.528 25.668 29.5155 25.669C29.4966 25.6701 29.4784 25.6768 29.4634 25.6884C29.4484 25.7 29.4373 25.7159 29.4315 25.734C29.4275 25.7459 29.426 25.7585 29.4269 25.771C29.4278 25.7836 29.4311 25.7958 29.4368 25.807C29.53 25.9935 29.6068 26.185 29.6818 26.3728C30.6993 28.9943 30.6423 32.2255 30.4788 34.7478C30.3928 36.168 29.672 38.4945 29.743 38.64C29.7705 38.6838 29.811 38.718 29.859 38.7375C29.4068 39.0308 28.902 39.7218 28.309 40.829C28.1413 41.1425 27.8775 41.6203 27.9965 41.9565C28.1658 42.4345 28.8913 41.6815 29.2298 41.308C29.1933 41.4618 29.1473 41.6133 29.092 41.7613C28.8371 42.5317 28.692 43.3343 28.661 44.1453C28.6573 44.491 28.6273 45.098 28.8973 45.2783C28.9198 45.293 28.9453 45.3026 28.972 45.3063C28.9987 45.31 29.0258 45.3078 29.0515 45.2998C29.1808 45.26 29.2655 45.0898 29.348 44.9038C29.5088 44.4683 29.6415 44.023 29.7453 43.5705C29.72 44.0481 29.7416 44.5269 29.8098 45.0003C29.8618 45.3635 29.9598 45.5583 30.1098 45.596C30.3228 45.6495 30.4123 45.341 30.47 45.1298C30.5845 44.6955 30.6692 44.2539 30.7235 43.808C30.828 43.0925 30.5263 45.189 31.1528 45.5648C31.1795 45.5831 31.2105 45.5943 31.2427 45.5971C31.275 45.6 31.3075 45.5946 31.337 45.5813C31.387 45.5588 31.5345 45.4905 31.6235 44.869C31.736 44.213 31.8123 43.5513 31.8518 42.8868C31.94 43.6118 32.071 44.279 32.4283 44.279C32.7783 44.279 32.8298 43.5 32.8298 43.042C32.9068 41.867 32.8873 39.9478 33.0653 38.776C33.3015 38.5367 33.4678 38.2373 33.546 37.9103C33.9257 36.892 34.2103 35.8408 34.396 34.77C35.1288 30.5408 35.1535 25.584 32.4848 22.204ZM28.341 15.2305C28.4873 15.0823 28.6852 14.9963 28.8934 14.9908C29.1015 14.9852 29.3038 15.0603 29.4578 15.2005C30.2918 15.9398 29.3578 17.4005 28.3078 17.574C28.3845 16.7953 28.3955 16.0113 28.341 15.2305ZM18.273 39.593C18.8855 39.943 19.3313 41.418 19.5305 42.0863C19.6083 42.348 19.74 42.7863 19.6088 43.0043C19.5113 43.1605 18.9873 42.356 18.8895 42.1963C18.7473 41.9638 18.6855 41.8765 18.5938 41.8935C18.3688 41.9358 18.5593 42.7533 18.5808 43.1205C18.6316 43.7771 18.6065 44.4373 18.5058 45.088C18.4088 45.768 18.2648 45.963 18.1643 46.0108C18.1498 46.0033 18.098 45.9538 18.045 45.6248C17.8135 43.8293 18.06 42.8548 17.7545 43.0078C17.6328 43.0685 17.6255 43.7733 17.6255 43.7733C17.5858 44.4107 17.453 45.0388 17.2313 45.6378C17.1168 45.9265 17.0433 46.0378 17.0015 46.041C16.8123 45.905 16.9748 43.516 16.9748 43.3035C16.9748 43.033 16.9748 42.921 16.86 42.921C16.695 42.921 16.6965 43.2638 16.588 43.93C16.4955 44.5008 16.303 45.6883 15.9083 45.8355C15.7055 45.7185 15.9285 43.5733 16.005 43.209C16.0983 42.7653 16.1068 42.5673 16.0358 42.4785C16.0249 42.4653 16.0107 42.4552 15.9946 42.4492C15.9785 42.4432 15.9612 42.4416 15.9443 42.4445C15.9273 42.4475 15.9115 42.4549 15.8985 42.4662C15.8854 42.4774 15.8757 42.4919 15.8703 42.5083C15.8525 42.5615 15.8133 42.6173 15.7925 42.6833C15.7557 42.8175 15.7116 42.9496 15.6605 43.079C15.6493 43.1105 15.6355 43.154 15.6178 43.204C15.1678 44.5485 14.7958 44.7768 14.9895 43.3495C15.2075 41.7608 15.409 40.921 15.4645 39.7845C16.1455 39.9288 17.8128 39.7643 18.273 39.593ZM17.965 16.4913C18.0557 16.3784 18.1738 16.2906 18.308 16.2363C18.4422 16.182 18.5881 16.163 18.7318 16.181C18.8325 16.1915 18.9305 16.2188 19.0223 16.2615C19.1008 17.0603 19.2658 17.8483 19.5143 18.6115C18.4825 18.6365 17.2723 17.3388 17.965 16.4913ZM22.99 22.062C22.8591 21.9281 22.7635 21.7639 22.7115 21.584C23.8484 21.8662 25.0487 21.7347 26.0975 21.213C26.0975 22.597 24.0793 23.2718 22.99 22.062ZM27.711 19.1675C26.4143 22.427 21.0753 22.3923 19.7423 18.6948C18.5298 15.0555 19.049 11.3148 22.853 11.2283C23.0555 12.0428 23.4655 12.7908 24.0428 13.3998C24.4813 13.8108 25.0928 14.1093 25.431 13.6123C25.4973 13.5123 25.589 13.0435 25.6703 13.0428C25.9028 13.0583 26.2453 13.5125 26.4858 13.659C26.984 13.964 27.493 14.2465 28.0705 14.1828C28.199 15.338 28.211 16.5035 28.1063 17.6613C28.0482 18.1799 27.9151 18.6872 27.711 19.1675ZM32.639 43.0358C32.639 43.6558 32.5283 44.0878 32.4288 44.0878C32.1063 44.0878 32.0138 42.3903 31.9265 42.1258C31.9218 42.1111 31.9135 42.0979 31.9023 42.0873C31.8913 42.0765 31.8778 42.0686 31.863 42.0643C31.646 42 31.6598 42.587 31.663 42.8018C31.6673 43.0755 31.451 45.3665 31.2535 45.4018C30.8338 45.15 30.9228 43.4833 30.967 43.0033C30.9853 42.8083 31.0433 42.366 30.86 42.366C30.7155 42.366 30.6883 42.739 30.6883 42.739C30.6763 42.8613 30.624 43.164 30.5345 43.7803C30.4813 44.2189 30.3978 44.6532 30.2845 45.0803C30.2648 45.1985 30.2207 45.3113 30.155 45.4115C30.155 45.4115 30.055 45.382 29.997 44.9735C29.9018 44.2851 29.9018 43.5869 29.997 42.8985C30.066 42.344 30.0595 42.302 29.983 42.2638C29.9697 42.2572 29.9551 42.2538 29.9403 42.2538C29.8538 42.2538 29.8538 42.2538 29.7315 42.771C29.5975 43.4427 29.4215 44.1054 29.2045 44.755C29.1768 44.8113 29.057 45.1005 28.9988 45.1198C28.8385 45.013 28.846 44.499 28.8488 44.2518C28.8693 43.427 29.0113 42.61 29.2703 41.8268C29.3653 41.5973 29.4235 41.3543 29.4428 41.1065C29.4416 41.0842 29.4345 41.0626 29.4222 41.044C29.41 41.0253 29.393 41.0102 29.373 41.0003C29.2698 40.962 29.2063 41.0645 28.9498 41.3313C28.4053 41.8978 28.2353 41.9298 28.188 41.9193C28.1828 41.9193 28.1783 41.9075 28.1743 41.8955C28.0815 41.6478 28.3215 41.2055 28.4505 40.9675C28.7803 40.3588 29.455 39.1128 30.0978 38.825C30.6925 38.943 31.2968 39.0053 31.903 39.0108C32.223 39.0208 32.5428 38.9853 32.853 38.906C32.6975 40.0998 32.7138 41.887 32.639 43.0358Z" fill="#414141"/>
<path d="M24.6625 24.5585C24.4966 24.5632 24.3387 24.6312 24.2214 24.7486C24.104 24.866 24.036 25.0238 24.0312 25.1897C24.0313 25.283 24.0521 25.3752 24.092 25.4595C24.1319 25.5439 24.1901 25.6183 24.2622 25.6775C24.3344 25.7367 24.4187 25.7792 24.5093 25.8019C24.5998 25.8246 24.6942 25.8269 24.7857 25.8087C24.9082 25.7845 25.0205 25.7245 25.1087 25.636C25.1974 25.5478 25.2578 25.4353 25.2823 25.3128C25.3069 25.1903 25.2944 25.0632 25.2466 24.9477C25.1988 24.8323 25.1177 24.7336 25.0137 24.6643C24.9097 24.595 24.7875 24.5582 24.6625 24.5585Z" fill="white"/>
<path d="M35.5271 19.5855C35.7625 19.5826 35.9961 19.6265 36.2144 19.7146C36.4327 19.8027 36.6313 19.9333 36.7988 20.0987C36.9662 20.2642 37.0992 20.4613 37.1898 20.6785C37.2805 20.8957 37.3272 21.1288 37.3271 21.3642C37.3272 21.5996 37.2805 21.8327 37.1899 22.05C37.0992 22.2672 36.9662 22.4643 36.7988 22.6298C36.6314 22.7953 36.4327 22.9259 36.2144 23.014C35.9961 23.1021 35.7625 23.1461 35.5271 23.1432C35.287 23.1462 35.0489 23.0995 34.8277 23.006C34.6065 22.9125 34.407 22.7744 34.2418 22.6002C34.0765 22.4259 33.9491 22.2195 33.8675 21.9936C33.7858 21.7678 33.7517 21.5276 33.7674 21.288C33.7895 20.8337 33.9837 20.4049 34.3106 20.0887C34.6374 19.7725 35.0724 19.5925 35.5271 19.5855Z" fill="#87E4FF"/>
<path d="M36.2125 17.0442C35.8178 14.8575 34.1913 14.478 33.1125 12.951C32.21 11.672 32.0223 10.0627 30.8748 8.91522C29.1635 7.20372 26.7118 6.96522 24.448 7.67172C23.6455 7.92172 22.0188 8.53247 21.4258 9.35497V9.39322C22.2581 9.22983 23.1176 9.26919 23.9315 9.50797C25.6257 9.96389 27.1445 10.9165 28.2925 12.2432C29.1705 13.2867 30.015 14.9725 31.4103 15.4375C31.4485 15.4567 33.3625 15.8575 33.9353 16.6425C34.6938 17.6822 34.0545 19.5882 35.37 19.5882C36.3848 19.4925 36.337 17.7345 36.2125 17.0442Z" fill="#016DAB"/>
<path d="M37.2663 8.62498C35.5608 8.58048 35.1696 8.51973 35.0876 8.41698C35.0156 8.30948 35.0156 8.30948 35.8501 7.71273C36.2283 7.44248 36.8266 7.01448 37.0211 6.83148C36.5319 6.75373 36.0391 6.70058 35.5446 6.67223C35.5249 6.67639 35.5045 6.67423 35.4862 6.66605C35.4679 6.65788 35.4526 6.64411 35.4426 6.62673C35.4338 6.61188 35.4292 6.59497 35.4292 6.57775C35.4292 6.56052 35.4338 6.54361 35.4425 6.52875C35.4512 6.5139 35.4638 6.50164 35.4788 6.49324C35.4938 6.48484 35.5109 6.48061 35.5281 6.48098C35.5531 6.48098 37.2201 6.55348 37.2636 6.76998C37.2793 6.89348 37.1273 7.03423 35.9606 7.86823C35.7356 8.02823 35.4921 8.20323 35.3523 8.31073C35.8011 8.37423 37.0641 8.41998 37.2718 8.43398C37.296 8.43637 37.3183 8.44779 37.3344 8.46597C37.3505 8.48414 37.3591 8.50772 37.3586 8.53198C37.3577 8.55624 37.3477 8.57929 37.3306 8.59653C37.3136 8.61377 37.2906 8.62393 37.2663 8.62498Z" fill="#87E4FF"/>
<path d="M41.148 6.19659C41.0855 6.19659 39.615 6.03509 39.3438 6.00459C37.7812 5.82959 37.7812 5.82959 37.7812 5.71834C37.7812 5.64334 37.7813 5.64334 38.6105 5.26159C39.2355 4.97359 40.3258 4.47009 40.6748 4.25809C40.2393 4.16809 38.8683 4.03309 38.6775 4.03309C38.5503 4.05459 38.4983 3.83309 38.699 3.84284C38.721 3.84284 40.9153 3.96984 40.9553 4.21009C40.9573 4.42909 39.9095 4.85859 38.178 5.67259C38.8838 5.76684 40.751 5.96834 41.1565 6.00509C41.1755 6.00584 41.1937 6.01223 41.209 6.02346C41.2243 6.03469 41.2359 6.05023 41.2423 6.06809C41.2467 6.07989 41.2487 6.09246 41.2481 6.10505C41.2476 6.11764 41.2445 6.12999 41.239 6.14134C41.2311 6.15859 41.2182 6.17306 41.202 6.18291C41.1858 6.19276 41.167 6.19752 41.148 6.19659Z" fill="#87E4FF"/>
<path d="M44.8206 4.39985C44.7898 4.39985 41.7236 4.36835 41.6363 4.1941C41.5921 4.0836 41.5863 4.07035 43.4403 2.60985C44.0103 2.15985 44.6433 1.66185 44.8871 1.4486C44.3261 1.3786 42.2396 1.3211 41.9683 1.3516C41.9519 1.3582 41.9339 1.36015 41.9165 1.35722C41.899 1.3543 41.8826 1.34662 41.8692 1.33502C41.8558 1.32343 41.8459 1.30837 41.8405 1.29149C41.8351 1.27461 41.8344 1.25657 41.8386 1.23935C41.8466 1.21896 41.86 1.20111 41.8772 1.18765C41.8945 1.17419 41.9151 1.16562 41.9368 1.16285C41.9666 1.1596 45.0481 1.14085 45.1548 1.3541C45.2061 1.45635 45.2078 1.46035 43.5586 2.7601C42.9336 3.25335 42.1781 3.84785 41.9061 4.0911C42.4561 4.1486 44.3596 4.2086 44.8206 4.2086C44.8445 4.21071 44.8667 4.22171 44.8829 4.2394C44.8991 4.2571 44.9081 4.28023 44.9081 4.30422C44.9081 4.32821 44.8991 4.35134 44.8829 4.36904C44.8667 4.38674 44.8445 4.39773 44.8206 4.39985Z" fill="#87E4FF"/>
</svg>
