<svg width="366" height="124" viewBox="0 0 366 124" fill="none" xmlns="http://www.w3.org/2000/svg">
<g clip-path="url(#clip0_677_8744)">
<rect width="366" height="124" fill="#E8F4FF"/>
<circle cx="16" cy="14" r="63" fill="url(#paint0_radial_677_8744)"/>
<path d="M0 124H366" stroke="#E6E7EC"/>
<g style="mix-blend-mode:soft-light">
<path d="M23.7519 22.4307C21.0329 25.2347 17.3112 26.8438 13.4058 26.9038C9.50032 26.9639 5.73096 25.4701 2.9269 22.751C0.122849 20.0319 -1.4862 16.3103 -1.54628 12.4048C-1.60636 8.49938 -0.112539 4.73002 2.60655 1.92597C5.32564 -0.878085 9.04728 -2.48714 12.9527 -2.54722C16.8582 -2.60729 20.6275 -1.11347 23.4316 1.60562C26.2356 4.32471 27.8447 8.04634 27.9048 11.9518C27.9649 15.8572 26.471 19.6266 23.7519 22.4307ZM20.2277 19.0132C22.0404 17.1438 23.0363 14.6309 22.9963 12.0273C22.9562 9.42367 21.8835 6.94258 20.0141 5.12985C18.1448 3.31712 15.6319 2.32124 13.0282 2.36129C10.4246 2.40135 7.94351 3.47405 6.13078 5.34342C4.31806 7.21279 3.32218 9.72569 3.36223 12.3293C3.40228 14.933 4.47498 17.4141 6.34435 19.2268C8.21372 21.0395 10.7266 22.0354 13.3303 21.9953C15.9339 21.9553 18.415 20.8826 20.2277 19.0132ZM-7.91275 -4.85554L-4.49531 -8.37977L0.791043 -3.2536L-2.62641 0.270635L-7.91275 -4.85554ZM25.5675 27.6102L28.9849 24.086L34.2713 29.2122L30.8538 32.7364L25.5675 27.6102ZM-13.7792 15.0475L-13.8547 10.1397L-6.49305 10.0265L-6.41755 14.9342L-13.7792 15.0475ZM32.8515 14.3302L32.776 9.4224L40.1377 9.30915L40.2132 14.2169L32.8515 14.3302ZM10.3083 -14.7818L15.2179 -14.8556L15.3311 -7.49398L10.4233 -7.41848L10.3101 -14.7801L10.3083 -14.7818ZM11.0274 31.8506L15.9352 31.7751L16.0484 39.1368L11.1406 39.2123L11.0274 31.8506ZM30.2131 -8.91369L33.7373 -5.49624L28.6112 -0.209889L25.0869 -3.62734L30.2131 -8.91369ZM-2.25266 24.5665L1.27157 27.984L-3.8546 33.2703L-7.37884 29.8529L-2.25266 24.5665Z" fill="url(#paint1_radial_677_8744)"/>
</g>
<g clip-path="url(#clip1_677_8744)">
<path d="M174.477 126.599C191.908 126.599 206.039 125.293 206.039 123.682C206.039 122.071 191.908 120.766 174.477 120.766C157.045 120.766 142.914 122.071 142.914 123.682C142.914 125.293 157.045 126.599 174.477 126.599Z" fill="#007EE5"/>
<path d="M250.872 69.4453H214.656V123.821H250.872V69.4453Z" fill="#007EE5"/>
<path d="M237.747 82.776C237.677 81.6649 236.74 80.7969 235.629 80.7969H229.934C228.788 80.7969 227.885 81.6649 227.816 82.776H214.656V83.4705H250.872V82.776H237.747Z" fill="#F2E6D7"/>
<path d="M237.747 105.038C237.677 103.927 236.74 103.059 235.629 103.059H229.934C228.788 103.059 227.885 103.927 227.816 105.038H214.656V105.732H250.872V105.038H237.747Z" fill="#F2E6D7"/>
<path d="M151.109 14.0602C149.859 14.6852 148.47 15.0324 147.116 15.3449C145.554 15.7269 143.991 16.0741 142.394 16.3866C142.151 16.456 141.838 16.4908 141.63 16.3519C141.456 16.2477 141.387 16.0741 141.318 15.8658C140.623 13.8519 142.012 11.7685 143.401 10.1713C146.561 6.49071 150.554 3.01847 155.415 2.49763C156.63 2.35874 157.95 2.53235 158.609 3.71292C158.991 4.40737 159.095 5.06709 158.748 5.79626C158.332 6.6296 157.672 7.39349 157.151 8.15739C156.387 9.2685 155.588 10.3796 154.651 11.3518C153.644 12.463 152.463 13.4005 151.109 14.0602Z" fill="white"/>
<path d="M235.695 27.3829C239.32 27.3829 242.258 24.4447 242.258 20.8204C242.258 17.196 239.32 14.2578 235.695 14.2578C232.071 14.2578 229.133 17.196 229.133 20.8204C229.133 24.4447 232.071 27.3829 235.695 27.3829Z" fill="#FFEE34"/>
<path d="M175.766 115.523L177.745 122.19H179.689L177.536 113.926L175.766 115.523Z" fill="#5F6C88"/>
<path d="M188.853 25.2081C188.853 25.2081 188.54 23.5761 189.617 22.7428C191.527 21.2497 191.665 17.465 189.061 17.2219C185.936 16.9094 184.547 14.34 182.672 15.9025C182.568 15.9719 181.665 18.1594 183.02 18.7844C185.52 19.9303 188.853 25.2081 188.853 25.2081Z" fill="#482A28"/>
<path d="M177.43 31.1807L178.402 28.6807C178.402 28.6807 178.506 28.1946 180.728 27.4654C182.916 26.7363 200.451 27.8821 200.451 27.8821V38.0905C200.451 38.0558 178.784 34.7224 177.43 31.1807Z" fill="#29526F"/>
<path d="M128.576 99.2634C127.916 96.1037 126.77 92.8398 125.52 89.8189C128.263 87.0064 126.249 85.3397 125.416 86.4161C124.965 87.0064 124.895 87.805 124.93 88.43C124.479 87.3883 124.027 86.4161 123.576 85.4786C126.145 82.7355 124.201 81.1036 123.367 82.18C122.951 82.7355 122.847 83.43 122.881 84.055C122.36 83.048 121.909 82.1105 121.458 81.3119C124.131 78.5341 122.152 76.8674 121.319 77.9438C120.798 78.6383 120.763 79.5411 120.867 80.2008C120.416 79.4022 120.104 78.8119 119.895 78.4647C119.999 78.3952 120.069 78.3605 120.138 78.2563C120.242 78.0827 120.312 77.805 120.138 77.6313C120.069 77.5272 119.93 77.4924 119.895 77.3883C119.86 77.3188 119.895 77.2494 119.895 77.1799C119.93 76.9716 119.791 76.7286 119.617 76.5897C119.444 76.4508 119.27 76.3813 119.097 76.3119C119.097 75.9994 118.958 75.6522 118.715 75.4438C118.541 75.2702 118.298 75.2355 118.124 75.0272C117.742 74.6799 117.638 73.9855 117.222 73.7772C117.187 73.7772 117.187 73.7424 117.152 73.7772C117.117 73.7772 117.117 73.8466 117.083 73.8813C117.048 74.0549 117.152 74.298 117.187 74.4716C117.187 74.6799 117.117 74.8536 117.117 75.0619C117.152 75.3049 117.291 75.5133 117.43 75.7563C117.534 75.9647 117.638 76.2772 117.499 76.4161C117.465 76.4508 117.43 76.4508 117.395 76.5202C117.326 76.6591 117.465 76.8674 117.603 76.9369C117.742 77.0411 117.916 77.1452 117.916 77.3188C117.916 77.4577 117.847 77.5272 117.812 77.6313C117.742 77.805 117.812 78.0827 117.985 78.2563C118.09 78.3605 118.194 78.3952 118.298 78.4647C118.68 78.6036 119.097 78.7077 119.444 78.673C119.652 79.0202 119.965 79.5411 120.381 80.3397C119.513 79.5411 118.645 79.4369 117.673 79.2633C116.11 78.9855 117.187 82.0064 121.11 81.6244C121.631 82.5619 122.187 83.673 122.812 84.923C121.84 83.7772 120.867 83.673 119.722 83.4647C118.124 83.1869 119.27 86.2772 123.229 85.8258C123.68 86.7981 124.166 87.8397 124.652 88.9161C123.749 87.9786 122.847 87.8745 121.77 87.7008C120.208 87.4231 121.284 90.4092 125.138 90.062C126.388 93.0481 127.499 96.2773 128.159 99.3676L128.576 99.2634Z" fill="#007EE5"/>
<path d="M127.781 96.0427C128.336 92.883 128.51 89.4107 128.475 86.1468C132.052 84.5843 130.836 82.2579 129.656 82.9523C128.996 83.3343 128.649 84.0287 128.44 84.6537C128.406 83.5426 128.336 82.4315 128.301 81.4246C131.704 79.862 130.489 77.6051 129.343 78.2995C128.753 78.6468 128.406 79.2718 128.197 79.862C128.093 78.7162 127.989 77.7093 127.92 76.8065C131.461 75.244 130.211 72.9523 129.031 73.6467C128.301 74.0981 127.92 74.9315 127.746 75.5912C127.642 74.6884 127.538 74.0287 127.468 73.612C127.572 73.5773 127.676 73.5773 127.781 73.5078C127.954 73.4037 128.128 73.1606 128.024 72.9176C127.989 72.8134 127.885 72.7092 127.885 72.5703C127.885 72.5009 127.954 72.4314 127.989 72.362C128.093 72.1884 128.058 71.9106 127.954 71.7023C127.85 71.4939 127.711 71.3551 127.572 71.2509C127.711 70.9731 127.676 70.5912 127.538 70.3134C127.433 70.105 127.225 69.9662 127.121 69.7231C126.913 69.2717 127.086 68.5773 126.774 68.23C126.739 68.1953 126.739 68.1953 126.704 68.1953C126.67 68.1953 126.635 68.23 126.6 68.2648C126.496 68.4384 126.531 68.6814 126.461 68.855C126.392 69.0634 126.253 69.2023 126.183 69.4106C126.114 69.6537 126.183 69.8967 126.218 70.1745C126.253 70.4176 126.218 70.73 126.045 70.7995C126.01 70.7995 125.975 70.8342 125.94 70.8342C125.836 70.9384 125.906 71.1814 125.975 71.3203C126.079 71.4592 126.183 71.6328 126.149 71.8064C126.114 71.9106 126.01 71.9801 125.94 72.0495C125.801 72.1884 125.767 72.4662 125.871 72.6745C125.94 72.8134 126.01 72.8828 126.114 72.987C126.426 73.2648 126.739 73.5078 127.086 73.612C127.156 73.994 127.225 74.619 127.329 75.487C126.808 74.4453 126.079 73.994 125.211 73.4731C123.857 72.6398 123.753 75.8342 127.503 76.9454C127.607 78.0218 127.746 79.2718 127.85 80.6607C127.364 79.237 126.531 78.7857 125.524 78.1606C124.17 77.2926 124.065 80.5912 127.92 81.6676C127.989 82.744 128.024 83.8898 128.058 85.0357C127.572 83.8204 126.774 83.4037 125.836 82.8135C124.482 81.9801 124.378 85.1399 128.093 86.2857C128.128 89.5149 127.954 92.9177 127.399 96.0427H127.781Z" fill="#007EE5"/>
<path d="M188.78 123.684L175.273 114.83V87.7812H178.121V113.302L190.308 121.323L188.78 123.684Z" fill="#007EE5"/>
<path d="M178.133 113.301L188.411 121.461L189.591 120.836L178.133 113.301Z" fill="#B3DDFF"/>
<path d="M163.889 123.785L162.5 121.32L176.007 112.848L177.396 115.278L163.889 123.785Z" fill="#007EE5"/>
<path d="M164.794 123.097C164.794 124.382 163.753 125.389 162.503 125.389C161.218 125.389 160.211 124.347 160.211 123.097C160.211 121.847 161.253 120.806 162.503 120.806C163.787 120.771 164.794 121.812 164.794 123.097Z" fill="#454F63"/>
<path d="M162.508 124.07C163.026 124.07 163.445 123.651 163.445 123.133C163.445 122.615 163.026 122.195 162.508 122.195C161.99 122.195 161.57 122.615 161.57 123.133C161.57 123.651 161.99 124.07 162.508 124.07Z" fill="#E4F3FF"/>
<path d="M192.365 123.096C192.365 124.381 191.323 125.388 190.073 125.388C188.823 125.388 187.781 124.346 187.781 123.096C187.781 121.846 188.823 120.805 190.073 120.805C191.323 120.805 192.365 121.812 192.365 123.096Z" fill="#454F63"/>
<path d="M190.07 124.07C190.588 124.07 191.008 123.651 191.008 123.133C191.008 122.615 190.588 122.195 190.07 122.195C189.553 122.195 189.133 122.615 189.133 123.133C189.133 123.651 189.553 124.07 190.07 124.07Z" fill="#E4F3FF"/>
<path d="M181.247 123.097C181.247 124.382 180.206 125.389 178.956 125.389C177.671 125.389 176.664 124.347 176.664 123.097C176.664 121.847 177.706 120.806 178.956 120.806C180.206 120.771 181.247 121.812 181.247 123.097Z" fill="#5F6C88"/>
<path d="M178.961 124.07C179.479 124.07 179.898 123.651 179.898 123.133C179.898 122.615 179.479 122.195 178.961 122.195C178.443 122.195 178.023 122.615 178.023 123.133C178.023 123.651 178.443 124.07 178.961 124.07Z" fill="#5F6C88"/>
<path d="M195.914 82.2936C195.775 82.2936 195.636 82.2935 195.497 82.2588C193.553 82.0505 188.032 83.7519 188.24 81.8074L196.539 30.9738C196.747 29.0294 198.518 27.6405 200.462 27.8488C202.407 28.0571 203.796 29.828 203.587 31.7724L199.421 79.1685C199.212 80.9741 197.685 82.2936 195.914 82.2936Z" fill="#29526F"/>
<path d="M195.721 82.0117H159.158C158.533 82.0117 158.047 82.4284 158.047 82.9145V85.9353C158.047 86.4562 158.533 86.8381 159.158 86.8381H195.755C196.38 86.8381 196.867 86.4215 196.867 85.9353V82.9145C196.832 82.3937 196.346 82.0117 195.721 82.0117Z" fill="#5F6C88"/>
<path d="M193.702 86.3867H161.168C160.612 86.3867 160.195 86.7687 160.195 87.1853V89.859C160.195 90.3104 160.647 90.6576 161.168 90.6576H193.702C194.258 90.6576 194.675 90.2756 194.675 89.859V87.1853C194.675 86.7339 194.258 86.3867 193.702 86.3867Z" fill="#495369"/>
<path d="M194.381 65.9023C186.916 66.4579 170.527 65.6593 169.52 66.0065C169.52 66.0065 146.707 66.4579 142.055 72.3607C142.055 72.3607 158.583 71.2843 158.062 86.215C158.062 86.215 176.534 88.0552 169.416 82.2566C170.319 79.0621 195.006 69.0621 194.381 65.9023Z" fill="#06215E"/>
<path d="M142.053 72.3686C142.053 72.3686 137.435 79.6951 146.428 82.7854C152.574 84.8687 183.963 86.6743 183.963 86.6743L186.81 87.4382C189.275 84.9729 188.06 81.0492 188.06 81.0492L184.483 81.3965C184.483 81.3617 152.226 69.7992 142.053 72.3686Z" fill="#06215E"/>
<path d="M186.664 81.1544C186.664 81.1544 188.713 82.1267 187.393 86.3975L186.803 87.4392C186.803 87.4392 189.72 99.7657 190.484 99.8698C191.247 99.974 193.088 100.009 194.095 98.099C194.893 96.5017 195.102 85.7031 195.136 81.8142C195.136 81.085 194.442 80.4947 193.678 80.5642L186.664 81.1544Z" fill="#29526F"/>
<path d="M198.576 53.4738C195.103 52.328 189.93 36.9807 189.93 36.9807C189.93 36.9807 195.659 30.8695 197.36 32.2932C202.812 36.8418 208.02 50.0016 208.02 50.0016C208.02 50.0016 200.277 53.9947 198.576 53.4738Z" fill="#F2E6D7"/>
<path d="M176.216 31.3203L165.383 45.7648L171.077 51.9454C171.077 51.9454 177.084 46.1468 177.397 45.9037C177.744 45.6607 183.751 32.0148 176.216 31.3203Z" fill="#F2E6D7"/>
<path d="M176.225 31.3166C176.225 31.3166 188.1 29.8236 196.885 31.9764C201.885 33.2264 194.385 65.9002 194.385 65.9002C194.385 65.9002 171.711 67.671 169.523 66.0043C169.523 66.0043 170.461 36.2125 176.225 31.3166Z" fill="#F2E6D7"/>
<path d="M193.261 33.1589C193.053 34.1658 190.761 36.2492 190.241 36.7353L188.018 34.4436L183.713 44.9298L183.227 34.3047V34.0617L179.511 36.0755C179.685 35.2769 180.136 33.263 180.345 32.7075C180.484 32.2561 181.525 31.4227 182.289 30.8672C182.115 30.8672 181.942 30.8672 181.768 30.9019C181.074 31.4227 180.206 32.1866 180.067 32.638C179.824 33.3672 179.164 36.2492 179.164 36.3533L180.032 37.8811L182.949 34.5478L183.504 46.2839L188.157 34.9644L189.234 38.0547L190.345 37.0478C190.484 36.9436 193.366 34.3742 193.574 33.1589V33.1241L193.539 33.0894C193.504 33.02 192.949 32.0825 192.254 31.2144C192.116 31.2144 191.977 31.1797 191.838 31.1797C192.497 31.9436 193.122 32.9158 193.261 33.1589Z" fill="#C9C9C9"/>
<path d="M194.378 65.9036C211.288 65.73 221.635 83.4732 196.843 82.9176C190.732 82.7787 183.822 80.0704 172.676 78.6815C163.614 77.5356 167.017 68.3342 167.017 68.3342L169.03 68.5078L194.378 65.9036Z" fill="#06215E"/>
<path d="M162.979 77.7466C162.979 77.7466 160.757 78.0938 160.757 82.573L161.035 83.7536C161.035 83.7536 154.715 94.7258 153.951 94.6217C153.187 94.5175 151.382 94.0314 151 91.8786C150.687 90.1425 153.604 79.691 154.68 75.9757C154.889 75.2813 155.722 74.8993 156.451 75.2118L162.979 77.7466Z" fill="#29526F"/>
<path d="M174.56 67.2891C169.282 67.0113 169.352 66.178 169.352 66.0043H169.525L169.664 65.9002C169.699 65.9349 170.22 66.2821 174.629 66.5252L194.352 65.7266V66.0738L174.56 67.2891Z" fill="#231F20"/>
<path d="M182.659 32.7132C182.555 28.2687 183.735 19.7617 183.735 19.7617C183.735 19.7617 186.479 20.2131 187.833 21.1853C187.867 20.9076 188.18 20.4214 188.701 20.4214C189.222 20.4214 189.604 20.7687 188.735 21.7062L188.041 22.2617C188.145 22.4006 188.215 22.5395 188.249 22.7131C188.249 22.7131 190.263 31.0465 190.68 31.7062C190.68 31.7062 189.117 35.3521 185.402 35.1437C181.965 34.9354 182.659 32.7132 182.659 32.7132Z" fill="#F99C80"/>
<path d="M182.742 29.7956C182.777 29.0317 182.881 27.747 182.916 26.74C182.916 26.74 186.874 26.115 187.985 24.0664C187.985 24.0664 185.346 29.9345 182.742 29.7956Z" fill="#C77D66"/>
<path d="M182.841 18.7175C182.841 18.7175 182.807 20.5925 182.39 21.1828C181.973 21.7731 181.834 25.6273 182.39 26.4953C182.668 26.9467 184.265 27.1204 185.932 25.9051C187.598 24.6898 188.05 21.5995 188.05 21.5995C188.05 21.5995 188.918 18.3703 182.841 18.7175Z" fill="#F99C80"/>
<path d="M187.978 24.0634L187.458 21.6328C187.458 21.6328 185.27 25.1745 184.576 24.7231C183.708 24.1675 182.978 23.8203 182.388 24.5148C182.11 24.862 182.076 22.8828 182.076 22.8828C181.971 24.237 182.041 25.9384 182.388 26.4939C182.666 26.9453 184.263 27.119 185.93 25.9037C187.388 24.8273 187.874 24.5495 187.978 24.0634Z" fill="#DB8A70"/>
<path d="M183.788 20.2745C183.788 20.2745 184.413 19.9273 184.795 20.2398C185.212 20.5523 184.969 20.6217 184.9 20.6217C184.83 20.6217 184.101 20.3092 183.858 20.5176C183.858 20.4829 183.58 20.5176 183.788 20.2745Z" fill="#482A28"/>
<path d="M182.463 20.2406C182.706 19.9629 183.227 20.2406 183.227 20.2406C183.47 20.449 183.158 20.449 183.158 20.449C182.949 20.2754 182.081 20.692 182.463 20.2406Z" fill="#482A28"/>
<path d="M178.121 90.6953L175.273 93.0564V90.6953H178.121Z" fill="#5F6C88"/>
<path d="M194.336 49.4805L196.211 56.9458L197.114 52.2235L194.336 49.4805Z" fill="#C9C9C9"/>
<path d="M179.443 66.4922L167.359 72.3603L173.054 66.7005L179.443 66.4922Z" fill="#041640"/>
<path d="M149.103 40.5623C149.103 40.5623 147.123 36.5693 147.471 36.1873C147.818 35.8054 149.207 38.097 149.068 38.4443C148.964 38.7915 149.103 40.5623 149.103 40.5623Z" fill="#F99C80"/>
<path d="M149.138 38.8266C149.138 38.8266 148.652 36.5696 148.964 35.9446C149.103 35.6321 149.936 35.771 149.936 36.4308C149.936 37.3335 150.075 38.5141 149.971 38.6877C149.797 39.0002 149.138 38.8266 149.138 38.8266Z" fill="#F99C80"/>
<path d="M152.405 36.4609C152.405 36.4609 155.044 37.7109 154.939 37.8498C154.523 38.4401 152.023 37.6068 151.919 37.2248C151.78 36.9123 152.405 36.4609 152.405 36.4609Z" fill="#F99C80"/>
<path d="M150.352 35.9085C150.352 35.9085 152.886 34.6238 152.921 34.7974C153.06 35.4918 151.463 36.3599 151.185 36.8113C150.977 37.1238 150.352 35.9085 150.352 35.9085Z" fill="#F99C80"/>
<path d="M148.93 36.0812C148.93 35.4909 150.77 34.5187 150.839 34.6923C151.082 35.352 150.388 35.352 149.937 36.4284C149.798 36.7757 148.93 36.3243 148.93 36.0812Z" fill="#F99C80"/>
<path d="M154.169 42.0494C154.169 42.0494 155.489 38.2299 155.142 38.1258C154.794 38.0216 153.648 39.6883 153.648 39.6883L154.169 42.0494Z" fill="#F99C80"/>
<path d="M152.466 38.5103C152.466 38.5103 149.063 36.8436 148.785 38.5103C148.473 40.4547 150.938 44.4478 150.938 44.4478C150.938 44.4478 153.646 43.1978 153.785 43.0589C153.924 42.92 154.445 41.5311 154.202 40.6631C154.132 40.42 153.924 39.8645 153.612 39.6908C152.57 39.2047 152.466 38.5103 152.466 38.5103Z" fill="#F99C80"/>
<path d="M153.793 43.0586C153.793 43.0586 155.32 44.7253 156.154 45.4892L152.508 47.26C152.508 47.26 151.744 46.1489 150.945 44.4128L153.793 43.0586Z" fill="#F99C80"/>
<path d="M152.505 38.649L152.436 36.4615C152.436 36.4615 151.637 35.9059 151.429 36.9129C151.29 37.6073 151.429 38.5795 151.429 38.5795C151.429 38.5795 152.505 39.1004 152.505 38.649Z" fill="#F99C80"/>
<path d="M151.05 36.2535L151.502 38.8924C151.502 38.8924 150.286 38.441 150.113 38.0243C149.939 37.6077 150.356 35.9062 150.356 35.9062L151.05 36.2535Z" fill="#F99C80"/>
<path d="M153.61 39.6923C153.61 39.6923 152.951 39.7964 152.499 41.6367C152.499 41.6367 152.291 39.9006 152.846 39.1367L153.61 39.6923Z" fill="#C77D66"/>
<path d="M154.35 43.6142L152.961 43.4753L153.794 43.0586L154.35 43.6142Z" fill="#C77D66"/>
<path d="M220.797 39.6561C220.797 39.6561 222.776 35.663 222.429 35.2811C222.082 34.8991 220.693 37.1908 220.832 37.538C220.97 37.8852 220.797 39.6561 220.797 39.6561Z" fill="#F99C80"/>
<path d="M220.771 37.9204C220.771 37.9204 221.257 35.6634 220.944 35.0384C220.805 34.7259 219.972 34.8648 219.972 35.5245C219.972 36.4273 219.833 37.6079 219.937 37.7815C220.111 38.1287 220.771 37.9204 220.771 37.9204Z" fill="#F99C80"/>
<path d="M217.499 35.5547C217.499 35.5547 214.86 36.8047 214.964 36.9436C215.381 37.5339 217.881 36.7005 217.985 36.3186C218.089 35.9366 217.499 35.5547 217.499 35.5547Z" fill="#F99C80"/>
<path d="M219.586 35.0023C219.586 35.0023 217.051 33.7175 217.016 33.8911C216.877 34.5856 218.475 35.4536 218.752 35.905C218.961 36.2175 219.586 35.0023 219.586 35.0023Z" fill="#F99C80"/>
<path d="M220.968 35.175C220.968 34.5847 219.127 33.6125 219.058 33.7861C218.815 34.4458 219.509 34.4458 219.961 35.5222C220.1 35.8694 220.968 35.4527 220.968 35.175Z" fill="#F99C80"/>
<path d="M215.726 41.1432C215.726 41.1432 214.406 37.3237 214.754 37.2195C215.101 37.1154 216.247 38.782 216.247 38.782L215.726 41.1432Z" fill="#F99C80"/>
<path d="M217.433 37.604C217.433 37.604 220.835 35.9374 221.113 37.604C221.426 39.5485 218.96 43.5416 218.96 43.5416C218.96 43.5416 216.252 42.2915 216.113 42.1527C215.974 42.0138 215.453 40.6249 215.697 39.7568C215.766 39.5138 215.974 38.9582 216.287 38.7846C217.328 38.2985 217.433 37.604 217.433 37.604Z" fill="#F99C80"/>
<path d="M216.111 42.1523C216.111 42.1523 214.583 43.819 213.75 44.5829L217.396 46.3538C217.396 46.3538 218.16 45.2426 218.958 43.5065L216.111 42.1523Z" fill="#F99C80"/>
<path d="M217.43 37.7427L217.5 35.5552C217.5 35.5552 218.299 34.9997 218.507 36.0066C218.646 36.7011 218.507 37.6733 218.507 37.6733C218.507 37.6733 217.396 38.2289 217.43 37.7427Z" fill="#F99C80"/>
<path d="M218.85 35.3472L218.398 37.9861C218.398 37.9861 219.614 37.5347 219.787 37.1181C219.996 36.7014 219.544 35 219.544 35L218.85 35.3472Z" fill="#F99C80"/>
<path d="M216.289 38.786C216.289 38.786 216.949 38.8902 217.4 40.7305C217.4 40.7305 217.609 38.9944 217.053 38.2305L216.289 38.786Z" fill="#C77D66"/>
<path d="M215.586 42.7426L216.94 42.569L216.107 42.1523L215.586 42.7426Z" fill="#C77D66"/>
<path d="M183.789 20.9375C183.789 20.9375 184.518 21.3542 185.039 20.9375C185.039 20.9375 184.345 21.6319 183.789 20.9375Z" fill="#231F20"/>
<path d="M182.227 20.9375C182.227 20.9375 182.956 21.3542 183.477 20.9375C183.477 20.9375 182.782 21.6319 182.227 20.9375Z" fill="#231F20"/>
<path d="M183.437 22.0859L182.742 23.0929H183.471L183.437 22.0859Z" fill="#D9886F"/>
<path d="M162.983 77.7462C162.983 77.7462 195.9 68.3364 200.171 72.5725C205.796 78.1629 199.963 82.9893 192.15 84.4129C184.338 85.8365 160.796 82.5379 160.796 82.5379C160.796 82.5379 159.338 78.9267 162.983 77.7462Z" fill="#06215E"/>
<path d="M161.043 83.7162L160.765 82.5703L187.779 84.7578L160.383 84.862L161.043 83.7162Z" fill="#041640"/>
<path d="M167.88 76.4592L162.984 77.7439L167.533 76.0078L167.88 76.4592Z" fill="#041640"/>
<path d="M182.711 30.3424C182.711 30.3424 180.558 31.8008 180.176 32.6689C179.794 33.5369 179.273 36.3842 179.273 36.3842L183.058 34.3355L183.579 45.6203L188.058 34.7175L190.211 36.9397C190.211 36.9397 193.128 34.4397 193.371 33.155C193.371 33.155 191.357 30.03 190.593 29.9605C189.794 29.9258 189.898 29.9258 189.898 29.9258C189.898 29.9258 190.732 32.0439 189.239 32.3216L187.815 33.0855L185.003 36.4536L183.475 33.2939L182.642 33.3286L182.711 30.3424Z" fill="#F2E6D7"/>
<path d="M183.469 33.2656C183.469 33.2656 184.372 33.5434 186.351 33.474C186.42 33.474 187.358 33.4045 187.288 33.4392C187.219 33.474 183.99 43.6129 183.99 43.6129L183.469 33.2656Z" fill="#F99C80"/>
<path d="M156.179 45.4879L150.797 48.1268C150.797 48.1268 158.297 56.9115 160.311 57.5713C162.29 58.231 171.144 51.9115 171.144 51.9115L168.922 41.0781L162.915 48.5782L156.179 45.4879Z" fill="#F2E6D7"/>
<path d="M213.749 44.6172L218.958 46.8047C218.958 46.8047 208.541 58.9228 205.659 59.6173C204.096 59.9992 197.117 52.2561 197.117 52.2561L213.749 44.6172Z" fill="#F2E6D7"/>
<path d="M247.465 59.3398H107.742V64.2704H247.465V59.3398Z" fill="#06215E"/>
<path d="M182.02 59.3677L181.742 59.333L183.444 45.3398L183.582 45.5829L183.86 45.3398L182.02 59.3677Z" fill="#C9C9C9"/>
<path d="M185.665 39.4102H183.859V41.0768H185.665V39.4102Z" fill="#29526F"/>
<path d="M180.586 35.6623C180.586 35.6623 181.211 38.7526 183.85 39.4124H184.753L182.01 34.8984L180.586 35.6623Z" fill="#29526F"/>
<path d="M188.751 35.418L184.758 39.411H185.661L189.966 36.6333L188.751 35.418Z" fill="#29526F"/>
<path d="M185.349 40.2769C185.383 42.013 185.453 43.7492 185.626 45.4853C185.765 47.2214 185.974 48.9228 186.356 50.52C186.564 51.3186 186.772 52.0825 187.085 52.6381C187.467 53.2978 187.918 53.9228 188.404 54.5131C188.925 55.1034 189.481 55.6937 190.106 56.2839L191.078 57.2215C191.251 57.3951 191.425 57.6034 191.633 57.8465L191.807 58.0895L191.876 58.1937L191.981 58.402C192.05 58.5409 192.119 58.6451 192.189 58.8187C192.258 59.0965 192.328 59.0965 192.328 59.3742H188.265L187.224 59.409C187.397 59.409 187.258 58.8534 187.258 58.8534C186.703 58.1242 186.147 57.3603 185.626 56.5617C185.106 55.7284 184.654 54.8603 184.307 53.9228C183.925 52.8464 183.821 51.9089 183.717 50.9714C183.578 49.0964 183.612 47.3256 183.717 45.5547C183.821 43.7839 183.994 42.013 184.203 40.2422L185.349 40.2769Z" fill="#29526F"/>
<path d="M190.383 64.2695L191.563 65.3806L192.918 64.2695H190.383Z" fill="#29526F"/>
<path d="M182.401 18.0186C182.401 18.0186 182.262 19.3034 182.748 19.7895C182.748 19.7895 183.026 18.5395 183.79 18.7131C184.589 18.8867 186.88 19.5117 187.019 20.1367C187.158 20.7617 187.471 21.6298 187.471 21.6298L187.818 21.2131L187.991 20.8311C187.991 20.7964 188.825 17.4283 182.401 18.0186Z" fill="#482A28"/>
<path d="M116.453 36.8364L119.509 58.6768H148.259L146.314 36.5586L116.453 36.8364Z" fill="#007EE5"/>
<path d="M146.314 36.5586L119.508 58.6768H148.258" fill="#AFDBFF"/>
<path d="M135.199 49.8275C135.424 48.4458 134.486 47.1436 133.104 46.9189C131.723 46.6942 130.421 47.6321 130.196 49.0138C129.971 50.3955 130.909 51.6978 132.291 51.9225C133.673 52.1471 134.975 51.2092 135.199 49.8275Z" fill="#F2E6D7"/>
<path d="M160.496 58.6758H119.523V59.3355H160.496V58.6758Z" fill="#7C838A"/>
<path d="M148.055 56.4883C148.437 56.4883 160.485 58.6758 160.485 58.6758H148.263L148.055 56.4883Z" fill="#595E63"/>
<path d="M170.91 52.6021L170.562 52.5326C170.597 52.4285 173.306 41.3173 173.688 39.1992L174.035 39.2687C173.618 41.352 170.944 52.4632 170.91 52.6021Z" fill="#C9C9C9"/>
<path d="M207.086 47.6714V50.1715L208.51 47.0117L207.086 47.6714Z" fill="#C9C9C9"/>
<path d="M162.883 48.5729L164.063 49.1979L163.473 47.8438L162.883 48.5729Z" fill="#C9C9C9"/>
<path d="M113.297 124.064H129.443L115.797 120.766L113.297 124.064Z" fill="#007EE5"/>
<path d="M115.797 63.5078H113.297V124.064H115.797V63.5078Z" fill="#06215E"/>
<path d="M241.805 63.5078H239.305V124.064H241.805V63.5078Z" fill="#06215E"/>
<path d="M227.618 50.4844H218.729C218.729 50.4844 218.242 59.408 222.374 59.408C222.409 59.408 228.52 61.2136 227.618 50.4844Z" fill="#1F3D57"/>
<path d="M218.24 50.4844H219.039V51.3177H218.24C217.234 51.3177 216.435 52.1163 216.435 53.1233C216.435 54.1302 217.234 54.9288 218.24 54.9288H220.289V55.7622H218.24C216.782 55.7622 215.602 54.5816 215.602 53.1233C215.636 51.6649 216.817 50.4844 218.24 50.4844Z" fill="#1F3D57"/>
<path d="M231.156 55.2031V56.4531C231.156 57.4948 232.128 58.3282 233.344 58.3282H245.844V53.3281H233.344C232.128 53.3281 231.156 54.1615 231.156 55.2031Z" fill="white"/>
<path d="M245.845 58.3312H233.345C232.129 58.3312 231.157 57.4979 231.157 56.4562V55.2062C231.157 54.1645 232.129 53.3312 233.345 53.3312H245.845V52.3242H233.345C231.47 52.3242 229.977 53.6089 229.977 55.2062V56.4562C229.977 58.0534 231.504 59.3381 233.345 59.3381H245.845V58.3312Z" fill="#007EE5"/>
<path d="M245.846 53.3281H233.345C232.72 53.3281 232.13 53.5712 231.748 53.9184L231.297 54.6129L245.846 53.3281Z" fill="#F2E6D7"/>
<path d="M231.156 48.1211V49.3711C231.156 50.4128 232.128 51.2461 233.344 51.2461H245.844V46.2461H233.344C232.128 46.2461 231.156 47.0794 231.156 48.1211Z" fill="white"/>
<path d="M245.845 51.2492H233.345C232.129 51.2492 231.157 50.4158 231.157 49.3742V48.1241C231.157 47.0825 232.129 46.2491 233.345 46.2491H245.845V45.2422H233.345C231.47 45.2422 229.977 46.5269 229.977 48.1241V49.3742C229.977 50.9714 231.504 52.2561 233.345 52.2561H245.845V51.2492Z" fill="#EAAAB1"/>
<path d="M245.846 46.2461H233.345C232.72 46.2461 232.13 46.4891 231.748 46.8364L231.297 47.5308L245.846 46.2461Z" fill="#F2E6D7"/>
<path d="M248.612 -16.0039V19.7602H223.195V-16.0039" fill="#007EE5"/>
<path d="M224.094 -15.1055V18.8878H247.705V-15.1055" fill="#007EE5"/>
<path d="M120.867 98.1211H133.159L130.659 119.51H123.332L120.867 98.1211Z" fill="#007EE5"/>
<path d="M124.759 -25V21.2503H123.891V-25" fill="#007EE5"/>
<path d="M135.241 27.852H114.547L124.304 21.6367L135.241 27.852Z" fill="#007EE5"/>
<path d="M125.388 18.8906H123.305V22.467H125.388V18.8906Z" fill="#595E63"/>
<path d="M107.152 33.1945C108.034 33.1945 108.749 32.4794 108.749 31.5972C108.749 30.7151 108.034 30 107.152 30C106.27 30 105.555 30.7151 105.555 31.5972C105.555 32.4794 106.27 33.1945 107.152 33.1945Z" fill="white"/>
<path d="M110.003 36.0734C110.886 36.0734 111.601 35.3583 111.601 34.4761C111.601 33.594 110.886 32.8789 110.003 32.8789C109.121 32.8789 108.406 33.594 108.406 34.4761C108.406 35.3583 109.121 36.0734 110.003 36.0734Z" fill="white"/>
<path d="M110.105 30.2413C110.987 30.2413 111.702 29.5262 111.702 28.6441C111.702 27.762 110.987 27.0469 110.105 27.0469C109.223 27.0469 108.508 27.762 108.508 28.6441C108.508 29.5262 109.223 30.2413 110.105 30.2413Z" fill="white"/>
<path d="M112.957 33.089C113.839 33.089 114.554 32.3739 114.554 31.4918C114.554 30.6096 113.839 29.8945 112.957 29.8945C112.074 29.8945 111.359 30.6096 111.359 31.4918C111.359 32.3739 112.074 33.089 112.957 33.089Z" fill="white"/>
<path d="M138.234 89.1328C138.859 89.7578 138.859 90.7648 138.234 91.3898C137.609 92.0148 136.602 92.0148 135.977 91.3898C135.352 90.7648 135.352 89.7578 135.977 89.1328C136.602 88.5078 137.609 88.5078 138.234 89.1328Z" fill="white"/>
<path d="M139.964 94.7179C140.847 94.7179 141.562 94.0028 141.562 93.1207C141.562 92.2385 140.847 91.5234 139.964 91.5234C139.082 91.5234 138.367 92.2385 138.367 93.1207C138.367 94.0028 139.082 94.7179 139.964 94.7179Z" fill="white"/>
<path d="M141.187 86.1797C141.812 86.8047 141.812 87.8116 141.187 88.4366C140.562 89.0617 139.555 89.0617 138.93 88.4366C138.305 87.8116 138.305 86.8047 138.93 86.1797C139.555 85.5547 140.562 85.5547 141.187 86.1797Z" fill="white"/>
<path d="M142.918 91.7726C143.8 91.7726 144.515 91.0575 144.515 90.1754C144.515 89.2932 143.8 88.5781 142.918 88.5781C142.035 88.5781 141.32 89.2932 141.32 90.1754C141.32 91.0575 142.035 91.7726 142.918 91.7726Z" fill="white"/>
<path d="M138.468 107.809C137.218 107.809 136.211 108.816 136.211 110.066C136.211 111.316 137.218 112.323 138.468 112.323C139.718 112.323 140.725 111.316 140.725 110.066C140.725 108.816 139.718 107.809 138.468 107.809ZM137.982 111.142H137.391V108.885H137.982V111.142ZM139.475 111.142H138.885V108.885H139.475V111.142Z" fill="#5F6C88"/>
<path d="M137.981 108.887H137.391V111.144H137.981V108.887Z" fill="#D1EAFF"/>
<path d="M139.504 108.887H138.914V111.144H139.504V108.887Z" fill="#D1EAFF"/>
<path d="M122.776 64.2695L115.797 68.7487V64.2695H122.776Z" fill="#06215E"/>
<path d="M232.438 64.2695L239.382 68.7487V64.2695H232.438Z" fill="#06215E"/>
<path d="M119.506 57.6406H115.305V58.717H119.506V57.6406Z" fill="#06215E"/>
</g>
</g>
<rect x="0.4" y="0.4" width="365.2" height="123.2" stroke="#E6E7EC" stroke-width="0.8"/>
<defs>
<radialGradient id="paint0_radial_677_8744" cx="0" cy="0" r="1" gradientUnits="userSpaceOnUse" gradientTransform="translate(16 14) rotate(102.707) scale(64.5818)">
<stop stop-color="#FFE600"/>
<stop offset="0.436625" stop-color="#FFDF6F"/>
<stop offset="0.651774" stop-color="#FFE1A6"/>
<stop offset="1" stop-color="white" stop-opacity="0"/>
</radialGradient>
<radialGradient id="paint1_radial_677_8744" cx="0" cy="0" r="1" gradientUnits="userSpaceOnUse" gradientTransform="translate(13.1792 12.1783) rotate(44.1187) scale(27)">
<stop stop-color="#FFE50A"/>
<stop offset="1" stop-color="#FFB649"/>
</radialGradient>
<clipPath id="clip0_677_8744">
<rect width="366" height="124" fill="white"/>
</clipPath>
<clipPath id="clip1_677_8744">
<rect width="257.466" height="137" fill="white" transform="translate(40 -13)"/>
</clipPath>
</defs>
</svg>
