<svg width="50" height="49" viewBox="0 0 50 49" fill="none" xmlns="http://www.w3.org/2000/svg">
<g clip-path="url(#clip0_1982_64993)">
<path d="M34.3076 28.1072C33.285 27.6045 32.3159 27.0076 31.4138 26.3247C31.351 26.2817 31.2732 26.264 31.197 26.2752C31.1207 26.2864 31.0521 26.3257 31.0055 26.3847C30.0607 27.8954 26.571 33.5401 26.571 33.5401C23.552 28.831 20.2796 26.1445 14.8409 26.1445C9.87301 26.1445 4.1479 30.6735 2.35695 37.3738C0.566002 44.074 6.09687 43.8654 6.09687 43.8654L5.43843 45.8281C5.4134 45.8862 5.4124 45.9512 5.43566 46.01C5.45891 46.0687 5.50465 46.1167 5.56354 46.1442C13.7578 50.3287 21.0039 47.3515 22.1035 46.8079C22.149 46.7929 22.1885 46.7649 22.2168 46.7275C22.2451 46.6902 22.2607 46.6454 22.2615 46.5993C22.324 45.8723 22.4492 44.0013 22.5907 42.3105C23.2195 42.6739 26.5413 43.1828 28.5166 41.4066C31.9701 38.2461 34.143 29.8423 34.4887 28.3632C34.4953 28.2779 34.4327 28.1578 34.3076 28.1072Z" fill="#4D68A1"/>
<path d="M19.4925 32.3823C19.4596 32.2306 18.9559 28.4285 18.0143 26.3458C17.9956 26.315 17.9661 26.2917 17.9311 26.2801C17.896 26.2685 17.8578 26.2694 17.8234 26.2825C17.7924 26.3014 17.7692 26.33 17.7578 26.3634C17.7464 26.3969 17.7475 26.4331 17.7608 26.4659C18.5476 28.2168 19.0513 31.3267 19.1765 32.1547C18.1456 31.7726 17.0679 31.5187 15.9699 31.3994C15.1205 31.5827 13.5797 32.4866 13.0431 32.79C12.6974 30.5239 12.8884 26.4184 12.8884 26.3584C12.8921 26.322 12.8807 26.2856 12.8566 26.2572C12.8326 26.2288 12.7979 26.2107 12.76 26.2067C12.7414 26.205 12.7226 26.2068 12.7047 26.212C12.6869 26.2173 12.6703 26.2259 12.6559 26.2374C12.6415 26.2488 12.6296 26.2629 12.6209 26.2788C12.6122 26.2947 12.6069 26.3121 12.6053 26.33C12.6053 26.3584 12.3518 30.7957 12.7929 33.0302C12.7972 33.0526 12.8073 33.0737 12.8221 33.0915C12.8369 33.1093 12.856 33.1233 12.8778 33.1324C12.8996 33.1415 12.9233 33.1452 12.947 33.1434C12.9707 33.1416 12.9935 33.1342 13.0135 33.1219C13.0431 33.1219 14.867 31.9746 15.8744 31.6712L15.6867 37.4075C12.9404 38.1327 10.11 38.5235 7.26204 38.5706C7.89085 37.6667 9.36904 34.6768 9.43159 34.5251C9.44539 34.4929 9.44666 34.457 9.43518 34.4239C9.4237 34.3908 9.40023 34.3628 9.36904 34.345C9.33497 34.3315 9.29703 34.3302 9.26203 34.3412C9.22703 34.3522 9.19726 34.3748 9.17809 34.405C8.66451 35.4259 7.29167 38.1502 6.91636 38.5706C6.37973 38.5706 6.0966 38.5421 6.0966 38.5421C6.05906 38.5383 6.02149 38.549 5.99217 38.5719C5.96284 38.5947 5.94416 38.6277 5.94023 38.6638C5.9363 38.6998 5.94744 38.7359 5.97121 38.7641C5.99498 38.7922 6.02943 38.8101 6.06698 38.8139C9.51764 38.9233 12.964 38.4964 16.2727 37.5497C16.3353 38.0649 16.5855 39.6356 16.602 40.2993C13.6243 42.5427 9.96047 43.7833 6.17562 43.8296C6.05381 43.8296 5.94187 43.8296 5.94187 43.9813C5.94187 44.133 6.02747 44.133 6.15916 44.133C9.4587 44.0893 12.6812 43.1693 15.4695 41.4751L15.0612 48.3902C15.0575 48.4261 15.0684 48.4621 15.0918 48.4904C15.1151 48.5187 15.149 48.5372 15.1863 48.5419C15.2489 48.5419 15.3444 48.4787 15.3444 48.4187L15.7197 41.2949C16.411 40.843 16.7896 40.5111 16.8225 40.5111C16.8416 40.4961 16.857 40.4773 16.8678 40.456C16.8786 40.4348 16.8845 40.4115 16.8851 40.3878C16.8851 39.6325 16.5559 37.4612 16.5065 37.3696C16.5065 37.3411 16.3485 37.2495 16.3188 37.2495L15.9896 37.3411L16.1444 31.7249C17.2081 31.9286 18.2589 32.1903 19.2917 32.5087C19.397 32.5625 19.5221 32.5308 19.4925 32.3823Z" fill="#313131"/>
<path d="M16.9803 42.4961C16.9859 42.5326 16.9838 42.5699 16.9742 42.6057C16.9646 42.6415 16.9476 42.6751 16.9243 42.7045C16.901 42.7339 16.8719 42.7586 16.8385 42.7771C16.8052 42.7956 16.7683 42.8075 16.7301 42.8121C16.605 42.8121 16.4799 42.6604 16.4799 42.4961C16.4725 42.4246 16.4945 42.3531 16.5413 42.297C16.588 42.2409 16.6558 42.2046 16.7301 42.1958C16.8552 42.1642 16.9803 42.3286 16.9803 42.4961Z" fill="#313131"/>
<path d="M17.0428 45.9084C17.0489 45.9451 17.0471 45.9825 17.0377 46.0185C17.0283 46.0544 17.0113 46.0882 16.988 46.1177C16.9646 46.1472 16.9352 46.1719 16.9017 46.1903C16.8681 46.2086 16.831 46.2203 16.7926 46.2245C16.6675 46.2245 16.5424 46.0728 16.5424 45.9084C16.535 45.8369 16.557 45.7655 16.6038 45.7094C16.6505 45.6532 16.7183 45.6169 16.7926 45.6082C16.9177 45.5766 17.0428 45.7283 17.0428 45.9084Z" fill="#313131"/>
<path d="M17.4173 34.7682C17.4247 34.8397 17.4027 34.9112 17.356 34.9673C17.3092 35.0234 17.2414 35.0597 17.1671 35.0684C17.0945 35.0557 17.029 35.0184 16.9825 34.9633C16.9361 34.9082 16.9116 34.839 16.9136 34.7682C16.9076 34.7313 16.9095 34.6937 16.9191 34.6575C16.9287 34.6214 16.9459 34.5875 16.9696 34.5579C16.9934 34.5283 17.0231 34.5037 17.057 34.4855C17.091 34.4673 17.1284 34.456 17.1671 34.4521C17.2387 34.4719 17.3018 34.5133 17.3469 34.5703C17.3919 34.6272 17.4167 34.6967 17.4173 34.7682Z" fill="#313131"/>
<path d="M30.4087 29.6387C28.0581 29.3701 22.5799 29.4428 21.2268 29.4554C21.1372 29.4518 21.0488 29.4764 20.9751 29.5255C20.9014 29.5746 20.8464 29.6454 20.8185 29.7272C19.6399 33.1658 17.9445 41.105 17.6087 42.6505C17.6012 42.6884 17.6019 42.7274 17.6107 42.7651C17.6196 42.8027 17.6365 42.8382 17.6602 42.8693C17.684 42.9005 17.7142 42.9266 17.749 42.946C17.7837 42.9654 17.8222 42.9778 17.8622 42.9823C21.3222 43.5449 26.1321 43.2099 27.1692 43.0866C27.2976 43.0866 27.5181 42.8622 27.5807 42.739C28.3346 41.2156 30.3165 32.145 30.7873 30.097C30.791 29.9899 30.755 29.8851 30.6856 29.8011C30.6163 29.7172 30.5181 29.6596 30.4087 29.6387Z" fill="white"/>
<path d="M28.5272 28.4908C28.2682 28.433 28.0053 28.3928 27.7404 28.3707C27.7404 28.2475 27.5823 27.2645 26.7988 27.1919C26.0152 27.1192 25.4819 27.9757 25.3206 28.2791C24.8794 28.2791 24.5634 28.3075 24.3757 28.3075C24.3368 28.3131 24.2996 28.3271 24.2671 28.3484C24.2346 28.3698 24.2076 28.3979 24.1881 28.4308C24.0004 28.9143 23.7799 29.6381 23.6844 29.9699C23.6515 30.0616 23.7173 30.1216 23.8095 30.1216C25.2417 30.2576 26.6832 30.2776 28.119 30.1817C28.1815 30.1817 28.2144 30.1501 28.2441 30.09C28.3066 29.8182 28.5272 29.0028 28.6227 28.671C28.6523 28.5793 28.5897 28.4908 28.5272 28.4908ZM25.6334 28.2475C25.8243 27.9314 26.2325 27.372 26.7362 27.4321C27.2399 27.4921 27.365 27.9757 27.4276 28.3075C26.831 28.2581 26.2321 28.238 25.6334 28.2475Z" fill="#313131"/>
<path d="M22.2335 43.4049C22.138 43.4049 22.0754 43.3449 22.1051 43.2532C22.1347 43.1616 22.1709 43.1015 22.2631 43.1331C24.2779 43.2216 27.2244 43.1584 27.4219 42.7096C28.2351 40.8544 30.5989 29.9697 30.6285 29.8496C30.6368 29.8077 30.6621 29.7706 30.6989 29.7466C30.7356 29.7226 30.7808 29.7136 30.8244 29.7216C30.8681 29.7295 30.9066 29.7538 30.9317 29.7891C30.9567 29.8244 30.966 29.8677 30.9577 29.9096C30.8623 30.3616 28.5973 40.9714 27.7479 42.8297C27.2573 43.7463 22.8787 43.3639 22.2335 43.4049Z" fill="#313131"/>
<path d="M32.0977 26.7036C32.0977 26.7036 32.1931 24.1373 32.7561 23.8592C33.3191 23.581 33.5396 23.7391 33.5396 23.7391C33.5396 23.7391 34.254 22.5381 34.9125 22.5381C35.3207 22.5381 35.3536 22.9616 35.3536 22.9616C35.4389 22.9305 35.5308 22.92 35.6214 22.931C35.7119 22.942 35.7982 22.9742 35.8726 23.0248C35.9471 23.0754 36.0075 23.1428 36.0485 23.221C36.0894 23.2993 36.1097 23.386 36.1075 23.4736C36.1075 23.4736 36.7989 23.6253 36.4861 24.4217C36.4861 24.4217 37.0491 24.782 35.9199 25.9609C35.2786 26.6211 34.5606 27.2085 33.78 27.7118C33.2005 27.4054 32.6389 27.0688 32.0977 26.7036Z" fill="#FCCAC2"/>
<path d="M16.5 37.787C16.5 37.787 16.6251 39.6832 16.7535 39.9298C18.0323 39.9742 19.3114 39.8519 20.556 39.5663C22.6959 39.0006 22.1296 38.6624 21.942 38.5708C21.942 38.5708 23.2918 38.2389 23.2292 37.847C23.1963 37.6352 22.0967 37.787 22.0967 37.787C22.0967 37.787 23.858 36.8198 23.5749 36.5796C23.2918 36.3394 20.9016 37.2749 20.9016 37.2749C20.9016 37.2749 22.9428 36.0392 22.663 35.7326C22.472 35.524 19.0416 36.8198 18.5774 36.9715L18.7025 36.4595C18.7321 36.4279 16.6251 37.787 16.5 37.787Z" fill="#FCCAC2"/>
<path d="M23.6033 36.3941C23.3629 36.1666 22.7209 36.5806 21.4008 36.9694C22.0592 36.6059 22.8493 36.1255 22.7868 35.7905C22.7045 35.1331 21.3711 35.8158 18.7604 36.7386L18.8559 36.4226C18.9185 36.2424 18.7275 36.1824 18.6353 36.2709C18.4444 36.4226 16.4329 37.69 16.3703 37.75C16.3078 37.8101 16.3407 37.848 16.3407 37.8796C16.3407 38.0218 16.5547 39.8264 16.6238 39.9687C16.693 40.1109 16.8115 40.0761 16.953 40.0761C17.6115 40.0761 19.5308 40.0382 21.0123 39.5325C22.1711 39.1343 22.3292 38.9289 22.2995 38.7487C22.2999 38.6923 22.2775 38.6379 22.237 38.597C22.663 38.4994 23.0575 38.303 23.386 38.025C23.42 37.9885 23.4415 37.9428 23.4474 37.8941C23.4533 37.8454 23.4433 37.7962 23.4189 37.7532C23.3234 37.6331 23.0403 37.573 22.5366 37.6046C23.2609 37.2728 23.6362 36.9725 23.7316 36.6565C23.7152 36.5459 23.7152 36.4574 23.6033 36.3941ZM21.3711 37.7532C20.9629 37.9049 20.5514 38.025 20.2057 38.1166C20.1682 38.1288 20.1372 38.1547 20.1196 38.1888C20.102 38.2229 20.0992 38.2623 20.1119 38.2983C20.1245 38.3344 20.1516 38.3641 20.1871 38.381C20.2226 38.3979 20.2636 38.4006 20.3012 38.3884C20.3012 38.3884 22.7275 37.6331 23.0567 37.9017C23.0864 38.0819 21.7662 38.4453 21.7399 38.4453C21.233 38.5914 20.7188 38.7127 20.1991 38.8088C20.1616 38.813 20.1273 38.8313 20.1039 38.8597C20.0804 38.8882 20.0697 38.9244 20.074 38.9605C20.0784 38.9965 20.0975 39.0294 20.1271 39.0519C20.1568 39.0745 20.1945 39.0848 20.2321 39.0806C20.2321 39.0806 21.9308 38.6855 21.9604 38.7645C21.9901 38.8435 21.7399 38.97 20.8905 39.2481C19.3761 39.7474 17.3053 39.7601 16.8049 39.7601C16.6967 39.1512 16.6231 38.5372 16.5843 37.9207C16.8674 37.7374 17.9341 37.0452 18.4707 36.7134C18.4707 36.7134 18.2831 37.1053 18.5958 37.1053C19.0666 37.0737 22.4971 35.5945 22.5267 35.8063C22.5267 35.8663 22.4049 36.1223 21.3316 36.7134C20.6732 37.0768 19.9786 37.3771 19.9786 37.3771C19.8107 37.4561 19.9621 37.6931 20.074 37.6489C21.1111 37.4055 23.3135 36.47 23.3662 36.6217C23.5407 36.8777 21.3711 37.7532 21.3711 37.7532Z" fill="#313131"/>
<path d="M38.3883 27.3397C37.7298 26.8246 36.7817 26.1008 36.2484 25.6773C36.8772 24.8334 36.7521 24.3815 36.5776 24.3214C36.6434 24.1097 36.8607 23.5661 36.2023 23.3227C36.1693 23.1742 36.2023 22.7191 35.478 22.7791C35.4484 22.6306 35.1982 22.0901 34.408 22.5073C34.0641 22.7425 33.784 23.0536 33.5916 23.4144C32.8377 22.8708 31.1389 21.5718 31.106 21.5718C30.8986 21.4707 30.8459 21.733 30.9512 21.7836C31.0566 21.8341 32.492 22.9308 33.2558 23.506C33.1458 23.4969 33.0351 23.5111 32.9316 23.5477C32.828 23.5843 32.7341 23.6424 32.6566 23.7178C32.2187 24.1697 32.0903 25.5288 32.0278 26.5844C32.0202 26.6128 32.0222 26.6427 32.0334 26.6699C32.0447 26.6972 32.0646 26.7203 32.0903 26.7361C32.6147 27.1242 33.1731 27.4679 33.7595 27.7632C33.811 27.7778 33.8659 27.7778 33.9175 27.7632C34.7163 27.1822 35.472 26.5486 36.1792 25.8669C36.7455 26.3189 37.8253 27.1311 38.3191 27.5262C38.3521 27.5799 38.6385 27.5799 38.3883 27.3397ZM36.436 24.5933C36.4986 24.7134 36.3735 25.0452 36.0278 25.4972C35.9323 25.4055 35.7776 25.317 35.6986 25.3454C35.5405 25.4055 35.1652 25.6615 35.0401 25.5572C35.0401 25.5572 35.0138 25.5003 35.1685 25.317C35.5372 24.8429 36.3438 24.47 36.436 24.5933ZM36.1068 23.6261C36.2023 23.5945 36.515 23.7778 36.2977 24.2898C35.7694 24.4357 35.2983 24.7295 34.9447 25.1337C34.8816 25.2082 34.8285 25.2899 34.7866 25.3771C34.7866 25.3771 34.5364 25.5572 34.4574 25.4371C34.4574 25.4371 34.4212 25.3454 34.52 25.1211C34.8492 24.2235 35.9323 23.7178 36.0903 23.6261H36.1068ZM35.4154 23.1426C35.5735 23.0825 35.8862 23.0509 35.8862 23.4586C35.557 23.6072 34.599 24.1508 34.2204 24.9978C34.1618 25.1098 34.1292 25.2328 34.1249 25.3581C34.0327 25.3581 33.9702 25.3581 33.9372 25.3296C33.8418 25.2095 34.0327 24.6659 34.0327 24.6659C34.5364 24.6343 34.5661 24.4826 34.599 24.4226C34.6615 24.2108 34.4706 24.1065 34.408 24.0307C34.652 23.6567 34.9936 23.3505 35.399 23.1426H35.4154ZM34.5661 22.7791C34.6912 22.6906 35.1027 22.5073 35.1949 22.9308C34.7713 23.1693 34.4063 23.4927 34.1249 23.879L33.7331 23.6799C33.9445 23.3335 34.2214 23.028 34.5496 22.7791H34.5661ZM33.7496 27.5199C33.2378 27.2483 32.7441 26.9464 32.2714 26.616C32.334 25.2254 32.492 24.2582 32.8047 23.9864C33.1833 23.6261 34.2204 24.1982 34.2829 24.3214C33.8455 24.3859 33.3996 24.3752 32.966 24.2898C32.8706 24.2898 32.808 24.3214 32.808 24.4099C32.808 24.4984 32.8409 24.5616 32.9331 24.5616C33.0253 24.5616 33.0912 24.5933 33.1537 24.5933C33.0912 25.3454 33.4994 25.4055 33.6903 25.4055C33.7092 25.458 33.7397 25.5059 33.7797 25.5459C33.8198 25.586 33.8685 25.6171 33.9224 25.6373C33.9763 25.6574 34.0341 25.6661 34.0918 25.6626C34.1495 25.6592 34.2057 25.6437 34.2566 25.6173C34.3276 25.6799 34.4173 25.7195 34.5131 25.7303C34.6089 25.7411 34.7058 25.7225 34.7899 25.6773C34.7899 25.6773 34.915 26.1324 35.7776 25.6173L35.9027 25.7405C35.2166 26.3741 34.4921 26.9682 33.7331 27.5199H33.7496ZM33.7167 24.6217C33.666 24.7788 33.6351 24.9411 33.6245 25.1053C33.4039 25.0736 33.4335 24.7418 33.4665 24.6217H33.7167Z" fill="#313131"/>
<path d="M44.7963 17.5036C44.9873 17.5352 45.0794 17.3551 44.9543 17.2034C44.2202 16.3026 43.6638 15.3292 43.5716 14.9088C43.4432 14.3336 43.2885 7.02656 41.3395 6.18271C39.2325 5.27248 25.1617 7.97471 24.1675 9.62449C23.1732 11.2743 26.8407 18.6509 28.9774 19.0143C30.9296 19.3462 40.6152 16.8399 41.2737 16.6281C41.4646 16.5681 43.6638 17.3835 44.7963 17.5036Z" fill="#E02728"/>
<path d="M28.1423 13C28.1187 12.9999 28.0956 12.9936 28.0748 12.9816C28.0541 12.9695 28.0365 12.9521 28.0235 12.931C28.0106 12.9098 28.0027 12.8856 28.0006 12.8603C27.9985 12.8351 28.0022 12.8097 28.0115 12.7864L28.6963 11.0687L28.1922 10.2368C28.1716 10.2027 28.1644 10.1613 28.1722 10.1215C28.18 10.0818 28.2022 10.047 28.2338 10.0248C28.2655 10.0027 28.3041 9.99491 28.3411 10.0033C28.3781 10.0117 28.4104 10.0355 28.4311 10.0696L28.9768 10.9701C28.9897 10.9913 28.9974 11.0155 28.9995 11.0406C29.0015 11.0657 28.9977 11.091 28.9885 11.1142L28.2734 12.9071C28.2624 12.9347 28.2441 12.9582 28.2208 12.9747C28.1975 12.9913 28.1702 13 28.1423 13Z" fill="#313131"/>
<path d="M28.5011 9C28.0464 8.99988 27.6002 9.12375 27.2106 9.35829C26.821 9.59283 26.5028 9.92915 26.2902 10.3311C26.0775 10.733 25.9786 11.1852 26.0039 11.6392C26.0292 12.0932 26.1779 12.5316 26.4339 12.9074C26.6899 13.2832 27.0436 13.582 27.4568 13.7718C27.8701 13.9616 28.3272 14.0351 28.7792 13.9844C29.2311 13.9337 29.6606 13.7608 30.0216 13.4842C30.3825 13.2076 30.6612 12.8379 30.8276 12.4147C30.9761 12.0357 31.0299 11.6262 30.9842 11.2217C30.9386 10.8172 30.795 10.4299 30.5658 10.0935C30.3366 9.75704 30.0287 9.4816 29.6689 9.29105C29.3091 9.1005 28.9083 9.00059 28.5011 9ZM28.5011 9.24844C28.8671 9.24902 29.2273 9.33865 29.5509 9.5096C29.8744 9.68054 30.1514 9.92766 30.358 10.2296C30.5646 10.5315 30.6946 10.8792 30.7368 11.2427C30.7789 11.6061 30.7319 11.9743 30.5999 12.3155C30.3428 12.8356 29.8947 13.2364 29.3491 13.4342C28.8036 13.6321 28.2027 13.6116 27.6718 13.3772C27.141 13.1428 26.7212 12.7124 26.5 12.176C26.2788 11.6396 26.2734 11.0385 26.4847 10.4982C26.6714 10.123 26.959 9.80739 27.3152 9.58663C27.6714 9.36587 28.0821 9.24876 28.5011 9.24844Z" fill="#313131"/>
<path d="M32.1705 10.9121C32.1339 10.9123 32.0983 10.9005 32.0696 10.8787C32.0409 10.8568 32.0207 10.8263 32.0125 10.792C31.9796 10.7003 32.0454 10.6403 32.1376 10.6119C35.5648 9.85649 38.4915 9.31605 40.8487 9C40.9442 9 41.0068 9.0316 41.0068 9.12326C41.0068 9.21491 40.9738 9.2718 40.8817 9.2718C38.5212 9.58785 35.5977 10.1188 32.2002 10.8742C32.2002 10.9121 32.2002 10.9121 32.1705 10.9121Z" fill="#313131"/>
<path d="M27.879 15.1202C27.8165 15.1202 27.7539 15.0886 27.7539 15.0286C27.7539 14.9685 27.7835 14.8769 27.8494 14.8484C27.9152 14.82 32.1556 13.5842 35.3951 13.126C35.4905 13.126 35.5531 13.1576 35.5531 13.2461C35.5531 13.3346 35.5202 13.3978 35.428 13.3978C32.2181 13.8371 27.9745 15.1013 27.9416 15.1013C27.9238 15.1148 27.9016 15.1215 27.879 15.1202Z" fill="#313131"/>
<path d="M36.308 15.5133C36.2715 15.513 36.2362 15.501 36.2076 15.4792C36.179 15.4575 36.1587 15.4272 36.15 15.3932C36.1204 15.3016 36.1829 15.2415 36.2784 15.2099C37.8432 14.8683 39.4287 14.6213 41.0257 14.4704C41.0636 14.4668 41.1015 14.4778 41.1311 14.5009C41.1607 14.5239 41.1796 14.5573 41.1837 14.5936C41.1874 14.6292 41.1764 14.6648 41.153 14.6926C41.1295 14.7204 41.0957 14.7382 41.0586 14.7422C39.4573 14.8856 37.8694 15.1434 36.308 15.5133Z" fill="#313131"/>
<path d="M29.8888 17.0502C29.8262 17.0502 29.7637 17.0186 29.7637 16.9585C29.7637 16.8985 29.7966 16.8068 29.8591 16.7784C29.9217 16.7499 32.2493 16.1147 34.9522 15.5142C34.9897 15.5028 35.0304 15.5057 35.0659 15.5221C35.1014 15.5385 35.129 15.5674 35.1431 15.6027C35.1727 15.6659 35.1102 15.7544 35.0476 15.786C32.3447 16.3896 29.9842 17.0502 29.9842 17.0502H29.8888Z" fill="#313131"/>
<path d="M39.6108 12.7938C39.5812 12.2218 39.6108 11.1346 39.6108 11.0745C39.6108 11.0326 39.6282 10.9924 39.659 10.9628C39.6899 10.9332 39.7318 10.9165 39.7754 10.9165C39.8191 10.9165 39.861 10.9332 39.8918 10.9628C39.9227 10.9924 39.94 11.0326 39.94 11.0745C39.94 11.0745 39.9071 12.1902 39.94 12.7622C39.9437 12.7987 39.9323 12.835 39.9083 12.8634C39.8843 12.8918 39.8495 12.91 39.8116 12.9139C39.6898 12.9139 39.6108 12.8539 39.6108 12.7938Z" fill="#FF7449"/>
<path d="M38.3465 12.6418C38.2839 12.37 38.1885 11.4661 38.1885 11.406C38.1841 11.37 38.1948 11.3338 38.2183 11.3053C38.2417 11.2769 38.276 11.2585 38.3136 11.2543C38.3511 11.2501 38.3888 11.2604 38.4185 11.283C38.4481 11.3055 38.4672 11.3384 38.4716 11.3744C38.4716 11.3744 38.5671 12.3415 38.6296 12.5817C38.6625 12.6734 38.5967 12.7334 38.5045 12.7619C38.4699 12.7559 38.4374 12.7418 38.4098 12.7208C38.3823 12.6999 38.3605 12.6727 38.3465 12.6418Z" fill="#FF7449"/>
<path d="M37.3361 13.0359C37.244 12.7641 37.1189 11.7717 37.0859 11.7401C37.0859 11.6484 37.1189 11.5884 37.211 11.5884C37.3032 11.5884 37.3691 11.6168 37.3691 11.7085C37.3691 11.7085 37.5271 12.704 37.5896 12.9727C37.6193 13.0327 37.5567 13.1244 37.4942 13.156C37.4316 13.1876 37.3361 13.0991 37.3361 13.0359Z" fill="#FF7449"/>
<path d="M39.6055 13.4294C39.6055 13.4695 39.6221 13.5081 39.6517 13.5365C39.6813 13.5649 39.7214 13.5809 39.7633 13.5809C39.8052 13.5809 39.8453 13.5649 39.8749 13.5365C39.9045 13.5081 39.9211 13.4695 39.9211 13.4294C39.9211 13.3892 39.9045 13.3506 39.8749 13.3222C39.8453 13.2938 39.8052 13.2778 39.7633 13.2778C39.7214 13.2778 39.6813 13.2938 39.6517 13.3222C39.6221 13.3506 39.6055 13.3892 39.6055 13.4294Z" fill="#FF7449"/>
<path d="M38.5039 13.4889C38.5039 13.5291 38.5205 13.5677 38.5501 13.5961C38.5797 13.6245 38.6199 13.6405 38.6617 13.6405C38.7036 13.6405 38.7438 13.6245 38.7734 13.5961C38.803 13.5677 38.8196 13.5291 38.8196 13.4889C38.8196 13.4487 38.803 13.4102 38.7734 13.3818C38.7438 13.3534 38.7036 13.3374 38.6617 13.3374C38.6199 13.3374 38.5797 13.3534 38.5501 13.3818C38.5205 13.4102 38.5039 13.4487 38.5039 13.4889Z" fill="#FF7449"/>
<path d="M37.4648 13.7624C37.4648 13.8026 37.4815 13.8411 37.5111 13.8695C37.5407 13.8979 37.5808 13.9139 37.6227 13.9139C37.6645 13.9139 37.7047 13.8979 37.7343 13.8695C37.7639 13.8411 37.7805 13.8026 37.7805 13.7624C37.7805 13.7222 37.7639 13.6836 37.7343 13.6552C37.7047 13.6268 37.6645 13.6108 37.6227 13.6108C37.5808 13.6108 37.5407 13.6268 37.5111 13.6552C37.4815 13.6836 37.4648 13.7222 37.4648 13.7624Z" fill="#FF7449"/>
<path d="M10.8852 18.7071C10.8852 18.7071 9.79875 18.41 9.46953 19.0673C9.14031 19.7247 9.21932 20.7298 11.1387 21.03C11.1387 21.03 12.0802 23.176 13.6835 23.8081C13.7334 24.723 13.7334 25.6397 13.6835 26.5546C13.6835 26.5546 15.7905 31.1152 15.9881 31.447C15.9881 31.447 17.1831 27.5533 17.4333 26.4345C17.4333 26.4345 17.1502 24.3233 17.2127 24.0514C17.2127 24.0514 20.1395 23.4478 20.4226 20.7298C20.6728 18.2835 19.007 15.7773 18.3453 13.1825C18.3453 13.1825 17.1502 12.0542 15.5469 12.1553C12.8868 12.3197 9.5222 14.2982 10.8852 18.7071Z" fill="#FCCAC2"/>
<path d="M15.0013 20.9405C15.0309 21.1523 14.7807 21.3609 14.4646 21.3925C14.3343 21.4107 14.2015 21.3843 14.0895 21.3178C13.9775 21.2513 13.8935 21.1491 13.8523 21.029C13.8227 20.8173 14.04 20.6403 14.3889 20.6087C14.7379 20.5771 14.9684 20.7288 15.0013 20.9405Z" fill="#FCCAC2"/>
<path d="M19.3984 19.2783C19.3407 19.177 19.3249 19.0587 19.3542 18.9467C19.3835 18.8348 19.4557 18.7377 19.5564 18.6746C19.5986 18.6314 19.6496 18.5969 19.7062 18.5733C19.7628 18.5498 19.8239 18.5376 19.8856 18.5376C19.9473 18.5376 20.0084 18.5498 20.065 18.5733C20.1216 18.5969 20.1726 18.6314 20.2148 18.6746C20.2449 18.7226 20.2646 18.7759 20.2729 18.8313C20.2813 18.8867 20.2779 18.9431 20.2632 18.9973C20.2485 19.0515 20.2227 19.1023 20.1872 19.1467C20.1518 19.1912 20.1074 19.2284 20.0568 19.2562C19.8395 19.4015 19.5235 19.43 19.3984 19.2783Z" fill="#FCCAC2"/>
<path d="M19.4907 16.2337C19.0792 15.2381 18.6413 13.8759 18.4833 13.3355C19.1417 13.0005 20.1129 12.2198 19.2701 10.5258C18.0652 8.11435 13.3245 8.62951 12.4751 10.3141C12.4751 10.3141 7.72774 10.8292 6.4372 14.5428C5.14667 18.2564 9.01828 20.2317 9.01828 20.2317C9.01828 20.2317 9.33103 22.8296 12.4751 23.1615C12.791 23.4457 13.1401 23.6938 13.5154 23.901C13.5953 24.7949 13.5953 25.6936 13.5154 26.5875C13.5154 26.7234 13.3409 26.3093 15.8397 31.6443C15.8726 31.7643 16.0603 31.7643 16.1228 31.6126C16.1854 31.4609 17.3508 27.3871 17.5384 26.3915C17.5384 26.1956 17.3541 25.2885 17.3179 24.1254C18.6084 23.7651 19.494 23.133 20.024 22.2544C21.2257 20.2823 19.9878 17.441 19.4907 16.2337ZM19.7705 22.1501C19.1714 23.1773 17.9763 23.841 16.2479 24.0812C16.1524 24.0812 16.1195 24.1728 16.1195 24.2329C16.1245 24.2687 16.1437 24.3012 16.1732 24.3236C16.2027 24.3461 16.2401 24.3566 16.2775 24.353C16.5433 24.321 16.8063 24.2703 17.0644 24.2013C17.0948 24.9201 17.1684 25.6366 17.2849 26.3473C17.1269 27.1911 16.2973 30.0893 15.9944 31.1449L13.8578 26.5558C13.942 25.6326 13.942 24.7041 13.8578 23.7809C13.8568 23.7574 13.8507 23.7342 13.84 23.713C13.8292 23.6918 13.814 23.6729 13.7952 23.6577C12.7079 23.0603 11.8815 22.1065 11.4677 20.9713C11.4347 20.9112 11.4051 20.8828 11.3426 20.8828C11.0336 20.8787 10.7287 20.8151 10.4459 20.6956C10.1632 20.5762 9.90828 20.4034 9.69647 20.1874C9.50552 19.9757 9.28165 19.2393 9.85449 18.8885C10.2561 18.6388 10.9837 18.7968 11.0166 18.7684C11.0496 18.7399 11.7409 18.1047 11.4874 16.654C11.4874 16.654 13.3113 16.2621 13.8479 14.7577C13.8479 14.7577 16.8965 15.6047 18.2496 13.4303C18.4076 14.0055 18.8389 15.355 19.2372 16.3C19.7376 17.52 20.8767 20.2475 19.7705 22.1501Z" fill="#313131"/>
<path d="M14.9335 6.51113C14.6587 6.34397 14.3284 6.28206 14.0083 6.33767C13.6882 6.39328 13.4015 6.56236 13.2051 6.81137C13.2051 6.81137 12.922 5.03201 11.4438 5.00041C9.96558 4.9688 9.96558 6.78293 9.96558 6.78293C9.96558 6.78293 8.31949 5.71784 7.2627 6.72288C6.20591 7.72792 6.93348 8.9858 6.93348 8.9858C6.93348 8.9858 5.12937 9.41246 5.54747 10.9769C5.82402 12.0072 6.61743 12.0641 7.15077 12.0041C6.64783 12.2996 6.0742 12.4662 5.48492 12.4876C5.44126 12.4876 5.3994 12.5043 5.36853 12.5339C5.33766 12.5635 5.32031 12.6037 5.32031 12.6457C5.32031 12.6876 5.33766 12.7278 5.36853 12.7574C5.3994 12.787 5.44126 12.8037 5.48492 12.8037C5.54747 12.8037 7.18369 12.7721 7.78945 11.9282C8.17464 11.6722 9.77793 10.1647 12.2043 9.98135C12.2043 9.98135 12.8989 8.83409 15.4767 8.59389C15.4965 8.56229 16.0397 7.04841 14.9335 6.51113Z" fill="#313131"/>
<path d="M17.3582 19.9139C17.4952 19.6213 17.6053 19.3178 17.6874 19.0069C17.523 19.0149 17.3589 18.9865 17.2076 18.9241C17.0564 18.8616 16.9221 18.7667 16.815 18.6466C16.1928 17.9766 16.4035 16.5923 16.4035 16.5322C16.4035 16.4722 16.499 16.4121 16.5615 16.4121C16.6241 16.4121 16.6866 16.5038 16.6866 16.5638C16.6866 16.5638 16.4726 17.8565 17.0158 18.4348C17.1172 18.5423 17.2451 18.6236 17.3878 18.6711C17.5305 18.7186 17.6834 18.7308 17.8323 18.7066C17.9739 18.7066 17.9903 18.7509 17.9903 18.8583C17.9316 19.2636 17.8153 19.6591 17.6446 20.034C17.4372 20.2332 17.3056 20.0151 17.3582 19.9139Z" fill="#313131"/>
<path d="M17.3892 17.4404C17.3781 17.4244 17.3706 17.4064 17.3672 17.3875C17.3639 17.3686 17.3647 17.3493 17.3698 17.3307C17.3748 17.3121 17.3838 17.2948 17.3963 17.2798C17.4088 17.2649 17.4244 17.2526 17.4422 17.2438C17.4599 17.2351 17.4794 17.23 17.4994 17.229C17.5193 17.228 17.5393 17.2311 17.5579 17.238C17.5765 17.2449 17.5934 17.2556 17.6075 17.2692C17.6215 17.2828 17.6324 17.2992 17.6394 17.3171C17.6394 17.3171 17.9851 18.0725 18.4888 18.0124C18.5513 18.0124 18.9299 17.9524 18.7719 16.9568C18.7697 16.939 18.7712 16.9209 18.7764 16.9036C18.7815 16.8863 18.7901 16.8702 18.8017 16.8561C18.8133 16.842 18.8277 16.8303 18.8441 16.8215C18.8604 16.8128 18.8784 16.8072 18.897 16.8051C18.9156 16.803 18.9344 16.8045 18.9524 16.8094C18.9704 16.8143 18.9872 16.8226 19.0019 16.8337C19.0166 16.8449 19.0288 16.8587 19.0379 16.8744C19.0471 16.8901 19.0529 16.9074 19.055 16.9252C19.055 17.0169 19.213 18.1357 18.7093 18.3158C17.86 18.6256 17.4188 17.5004 17.3892 17.4404Z" fill="#313131"/>
<path d="M13.1911 19.0368C13.1615 18.9767 13.1615 18.8851 13.224 18.8566C13.2866 18.8282 13.3788 18.825 13.4117 18.8851C13.4117 18.8851 13.9154 19.6088 14.4191 19.4603C14.9228 19.3117 14.6693 18.3415 14.6693 18.3415C14.6571 18.3054 14.6603 18.2662 14.6782 18.2324C14.6961 18.1986 14.7272 18.1731 14.7648 18.1613C14.8023 18.1496 14.8432 18.1526 14.8784 18.1698C14.9136 18.187 14.9402 18.2169 14.9524 18.253C14.9524 18.313 15.2323 19.4224 14.5113 19.7005C13.7903 19.9786 13.1911 19.0652 13.1911 19.0368Z" fill="#313131"/>
<path d="M16.7569 21.3021C16.691 21.2737 16.6285 21.182 16.6614 21.122C16.6943 21.0619 16.7865 21.0019 16.8491 21.0303C17.0735 21.1151 17.3217 21.1223 17.5511 21.0508C17.7805 20.9794 17.9769 20.8336 18.1067 20.6384C18.1156 20.6227 18.1283 20.6092 18.1435 20.5989C18.1588 20.5886 18.1764 20.5818 18.1948 20.579C18.2133 20.5763 18.2322 20.5776 18.25 20.583C18.2678 20.5884 18.2841 20.5976 18.2976 20.61C18.3139 20.6182 18.328 20.63 18.3388 20.6444C18.3495 20.6588 18.3566 20.6754 18.3595 20.6929C18.3624 20.7104 18.361 20.7283 18.3554 20.7452C18.3498 20.7621 18.3401 20.7775 18.3272 20.7901C18.1812 21.0501 17.9381 21.2473 17.6468 21.3423C17.3555 21.4373 17.0376 21.4229 16.7569 21.3021Z" fill="#313131"/>
<path d="M17.1478 15.5381C17.1331 15.5243 17.1215 15.5078 17.1136 15.4896C17.1056 15.4714 17.1016 15.4519 17.1016 15.4322C17.1016 15.4125 17.1056 15.393 17.1136 15.3748C17.1215 15.3566 17.1331 15.3402 17.1478 15.3263C17.3262 15.1372 17.5609 15.0054 17.8201 14.9489C18.0793 14.8923 18.3503 14.9138 18.5963 15.0103C18.6299 15.0266 18.6554 15.0551 18.6671 15.0895C18.6789 15.1239 18.6759 15.1613 18.6589 15.1936C18.6419 15.2259 18.6122 15.2503 18.5764 15.2616C18.5406 15.2729 18.5015 15.27 18.4679 15.2537C18.2829 15.1706 18.0744 15.1492 17.8752 15.1927C17.6761 15.2362 17.4977 15.3422 17.3683 15.4938C17.3402 15.5212 17.3042 15.54 17.265 15.5478C17.2258 15.5557 17.185 15.5523 17.1478 15.5381Z" fill="#313131"/>
<path d="M13.1035 17.108C13.072 17.0896 13.0485 17.061 13.037 17.0274C13.0255 16.9938 13.0269 16.9574 13.0409 16.9247C13.1604 16.6956 13.3517 16.5083 13.588 16.3892C13.8243 16.2701 14.0935 16.2253 14.3578 16.261C14.45 16.261 14.4829 16.3526 14.4829 16.4127C14.4829 16.4727 14.3874 16.5328 14.3249 16.5328C14.12 16.5139 13.9138 16.5522 13.7311 16.643C13.5483 16.7338 13.3967 16.8733 13.2944 17.0448C13.2944 17.108 13.1364 17.1364 13.1035 17.108Z" fill="#313131"/>
<path d="M10.7781 20.0659C10.5832 19.9383 10.3553 19.865 10.1197 19.8541C10.076 19.8541 10.0342 19.8375 10.0033 19.8079C9.97242 19.7782 9.95508 19.738 9.95508 19.6961C9.95508 19.6542 9.97242 19.614 10.0033 19.5844C10.0342 19.5547 10.076 19.5381 10.1197 19.5381C10.4202 19.5459 10.7132 19.6299 10.9691 19.7814C10.986 19.7892 11.0006 19.8007 11.0118 19.8151C11.023 19.8295 11.0304 19.8463 11.0333 19.864C11.0362 19.8818 11.0346 19.8999 11.0285 19.9169C11.0225 19.9339 11.0123 19.9492 10.9987 19.9616C10.9824 20.0024 10.9506 20.0359 10.9097 20.0552C10.8688 20.0745 10.8218 20.0783 10.7781 20.0659Z" fill="#313131"/>
</g>
<defs>
<clipPath id="clip0_1982_64993">
<rect width="50" height="48" fill="white" transform="translate(0 0.5)"/>
</clipPath>
</defs>
</svg>
