<svg width="50" height="40" viewBox="0 0 50 40" fill="none" xmlns="http://www.w3.org/2000/svg">
<path d="M26.5698 36.0261C26.5698 36.0261 41.1987 36.1625 41.7 36.0261C42.2014 35.8896 46.1624 36.7007 46.3015 32.6504C46.438 28.65 46.3645 11.7453 46.3015 11.1258C46.2385 10.5064 46.3252 6.86294 41.3483 6.87606C36.5473 6.87606 10.2138 6.82094 7.46289 6.87606C3.86147 6.94431 3.02411 7.82629 3.00049 11.5275C2.97686 15.2286 2.90074 25.2559 2.90074 25.2559C2.54682 25.3769 2.22869 25.5843 1.97521 25.8593C1.72172 26.1343 1.5409 26.4683 1.44915 26.8309C1.28115 27.4582 2.13163 33.7319 2.95061 36.0182C3.21311 36.7164 4.47046 37.3989 6.52054 36.971C9.97234 36.2492 14.2904 35.6586 14.2904 35.6586C14.3402 36.0838 14.6789 36.0418 15.1041 36.0418L26.5698 36.0261Z" fill="white"/>
<path d="M46.4499 12.0291C46.4499 10.3281 46.4499 6.75293 41.5491 6.75293H7.48525C5.68453 6.75293 2.95984 6.72668 2.93359 10.5539V16.4442C2.93843 16.4808 2.95641 16.5144 2.98417 16.5388C3.01194 16.5631 3.04761 16.5765 3.08453 16.5765C3.12145 16.5765 3.15712 16.5631 3.18488 16.5388C3.21265 16.5144 3.23062 16.4808 3.23546 16.4442C3.23546 16.418 3.18559 14.843 3.23546 11.5671C4.9863 11.5671 22.5157 11.4673 46.2005 11.2915C46.2005 11.5671 46.2242 30.9234 46.2242 32.0495C46.2242 33.3987 45.9223 34.349 45.3002 34.9369C44.2502 35.958 42.4495 35.9265 40.5228 35.9134L26.7287 35.8688C26.566 35.8688 26.4872 36.2258 26.7287 36.2258L41.5334 36.252C43.1346 36.252 44.5652 36.1313 45.5102 35.2021C46.19 34.5327 46.5601 33.5037 46.5339 32.102C46.5129 30.8814 46.4499 15.0819 46.4499 12.0291ZM3.20921 11.2416V10.5407C3.22234 8.96576 3.70795 7.96041 4.68443 7.44067C5.53491 6.98655 6.61114 7.01543 7.48525 7.01543H41.5491C45.35 7.01543 46.0247 9.21513 46.1507 10.966C22.492 11.155 4.96005 11.2285 3.20921 11.2547V11.2416Z" fill="#414141"/>
<path d="M38.3471 8.67943C38.3105 8.6746 38.2769 8.65662 38.2526 8.62885C38.2283 8.60109 38.2148 8.56542 38.2148 8.5285C38.2148 8.49158 38.2283 8.45591 38.2526 8.42814C38.2769 8.40038 38.3105 8.3824 38.3471 8.37757C38.3734 8.37757 40.6466 8.35394 43.198 8.37757C43.2195 8.37472 43.2414 8.37651 43.2621 8.38279C43.2829 8.38908 43.302 8.39972 43.3183 8.41401C43.3346 8.4283 43.3477 8.4459 43.3567 8.46565C43.3656 8.48539 43.3702 8.50682 43.3702 8.5285C43.3702 8.55018 43.3656 8.5716 43.3567 8.59135C43.3477 8.61109 43.3346 8.6287 43.3183 8.64299C43.302 8.65728 43.2829 8.66792 43.2621 8.67421C43.2414 8.68049 43.2195 8.68227 43.198 8.67943C40.6466 8.65318 38.3471 8.67943 38.3471 8.67943Z" fill="#414141"/>
<path d="M38.3471 10.055C38.3105 10.0502 38.2769 10.0322 38.2526 10.0045C38.2283 9.9767 38.2148 9.94103 38.2148 9.90411C38.2148 9.86719 38.2283 9.83152 38.2526 9.80376C38.2769 9.77599 38.3105 9.75801 38.3471 9.75318C38.3734 9.75318 40.6466 9.72955 43.198 9.75318C43.2195 9.75034 43.2414 9.75212 43.2621 9.7584C43.2829 9.76469 43.302 9.77533 43.3183 9.78962C43.3346 9.80391 43.3477 9.82151 43.3567 9.84126C43.3656 9.861 43.3702 9.88243 43.3702 9.90411C43.3702 9.92579 43.3656 9.94722 43.3567 9.96696C43.3477 9.98671 43.3346 10.0043 43.3183 10.0186C43.302 10.0329 43.2829 10.0435 43.2621 10.0498C43.2414 10.0561 43.2195 10.0579 43.198 10.055C40.6466 10.0288 38.3471 10.055 38.3471 10.055Z" fill="#414141"/>
<path d="M38.3469 9.37768C38.3072 9.37768 38.2691 9.36192 38.2411 9.33386C38.213 9.3058 38.1973 9.26774 38.1973 9.22806C38.1973 9.18838 38.213 9.15032 38.2411 9.12226C38.2691 9.0942 38.3072 9.07844 38.3469 9.07844C38.3731 9.07844 40.6463 9.05219 43.1978 9.07844C43.2369 9.08085 43.2739 9.09731 43.3019 9.1248C43.3298 9.15229 43.3469 9.18896 43.35 9.22806C43.3475 9.26736 43.3306 9.30434 43.3025 9.33194C43.2744 9.35954 43.2371 9.37583 43.1978 9.37768C40.6463 9.34093 38.3469 9.37768 38.3469 9.37768Z" fill="#414141"/>
<path d="M6.76077 9.12845C6.75812 9.22717 6.71772 9.32111 6.64789 9.39094C6.57807 9.46077 6.48412 9.50117 6.38541 9.50382C6.27885 9.50042 6.17775 9.45587 6.10335 9.37951C6.02895 9.30315 5.98704 9.20093 5.98641 9.09433C5.98534 9.04474 5.99431 8.99544 6.0128 8.94942C6.03128 8.90339 6.05889 8.86158 6.09396 8.82651C6.12904 8.79144 6.17085 8.76383 6.21687 8.74534C6.2629 8.72686 6.31219 8.71788 6.36178 8.71896C6.46708 8.72599 6.56606 8.77169 6.63971 8.84728C6.71336 8.92287 6.75647 9.023 6.76077 9.12845Z" fill="#414141"/>
<path d="M8.66108 9.12824C8.65843 9.22696 8.61803 9.3209 8.5482 9.39073C8.47837 9.46056 8.38443 9.50095 8.28571 9.50361C8.17915 9.50021 8.07806 9.45566 8.00366 9.3793C7.92926 9.30294 7.88734 9.20072 7.88672 9.09411C7.88741 8.99756 7.92607 8.90515 7.99435 8.83687C8.06262 8.7686 8.15503 8.72994 8.25159 8.72925C8.35703 8.73355 8.45717 8.77666 8.53275 8.85031C8.60834 8.92396 8.65404 9.02294 8.66108 9.12824Z" fill="#414141"/>
<path d="M10.5127 9.12845C10.5101 9.22717 10.4697 9.32111 10.3998 9.39094C10.33 9.46077 10.2361 9.50117 10.1374 9.50382C10.0308 9.50042 9.92971 9.45587 9.85531 9.37951C9.78091 9.30315 9.73899 9.20093 9.73837 9.09433C9.73729 9.04474 9.74627 8.99544 9.76475 8.94942C9.78324 8.90339 9.81084 8.86158 9.84592 8.82651C9.88099 8.79144 9.9228 8.76383 9.96883 8.74534C10.0149 8.72686 10.0641 8.71788 10.1137 8.71896C10.219 8.72599 10.318 8.77169 10.3917 8.84728C10.4653 8.92287 10.5084 9.023 10.5127 9.12845Z" fill="#414141"/>
<path d="M17.8498 23.5919C12.9175 23.3058 8.73339 23.9226 4.21849 24.8072C2.56477 25.1301 1.36518 25.3322 1.41767 27.6632C1.46492 29.7185 2.32328 34.404 2.68027 35.4724C3.09239 36.7035 3.73025 37.3702 5.77508 37.1812C8.17953 36.9581 14.9624 35.6404 15.0175 35.6272C15.0362 35.6241 15.0541 35.6172 15.07 35.607C15.0859 35.5967 15.0996 35.5833 15.1102 35.5676C15.1207 35.5519 15.128 35.5341 15.1315 35.5155C15.1349 35.4969 15.1346 35.4777 15.1304 35.4592C15.1228 35.4222 15.1009 35.3896 15.0695 35.3684C15.038 35.3473 14.9996 35.3394 14.9624 35.3464C14.8941 35.3595 8.13753 36.6746 5.74883 36.8951C5.18638 36.9758 4.61295 36.9283 4.07149 36.756C4.52561 35.9396 6.75156 32.0074 8.20315 30.4955C9.25313 31.0205 10.8648 31.7213 12.0513 31.6295C14.0358 31.4746 16.8261 25.6918 16.9442 25.4451C16.9605 25.4113 16.9627 25.3725 16.9504 25.337C16.9381 25.3016 16.9123 25.2725 16.8786 25.2561C16.8617 25.2476 16.8434 25.2426 16.8245 25.2413C16.8057 25.24 16.7868 25.2425 16.769 25.2486C16.7511 25.2547 16.7347 25.2644 16.7206 25.2769C16.7065 25.2895 16.6951 25.3047 16.687 25.3217C16.6581 25.3821 13.8494 31.2016 12.0277 31.3433C9.57075 31.535 4.41536 28.0097 1.99779 26.0934C2.39415 25.4398 3.17114 25.2876 4.27099 25.0855C9.15075 24.1825 12.5159 23.5656 17.8341 23.8727C17.8527 23.8738 17.8713 23.8712 17.8889 23.865C17.9065 23.8589 17.9228 23.8493 17.9367 23.8369C17.9506 23.8244 17.9619 23.8094 17.9699 23.7926C17.978 23.7757 17.9827 23.7575 17.9837 23.7389C17.9847 23.7204 17.9821 23.7019 17.9759 23.6844C17.9697 23.667 17.9601 23.6509 17.9477 23.6372C17.9352 23.6235 17.9201 23.6125 17.9033 23.6047C17.8865 23.5969 17.8683 23.5925 17.8498 23.5919ZM7.93803 30.3564C6.43131 31.9681 4.24474 35.8477 3.809 36.6326C3.26826 36.3255 3.10814 35.8451 2.92177 35.2886C2.6724 34.5484 1.75367 29.8839 1.70379 27.6553C1.67568 27.2163 1.73273 26.7759 1.87179 26.3586C2.40465 26.7786 5.20022 28.9363 7.93803 30.3564Z" fill="#414141"/>
<path d="M1.7105 25.1854C6.61784 23.7294 11.7235 23.0535 16.8407 23.1826C17.0444 22.9378 17.2608 22.7039 17.489 22.4817C17.489 22.4817 7.68487 16.0375 6.3619 15.4548C5.23317 14.9613 4.57693 15.7015 4.23569 16.2422C3.9732 16.6386 0.4584 21.4921 0.182781 22.5946C-0.0928383 23.6971 0.4584 24.3586 1.7105 25.1854Z" fill="#016DAB"/>
<path d="M8.59893 23.5683C7.96369 22.7808 5.52512 16.3707 5.17075 15.4309C5.16405 15.4132 5.15391 15.3969 5.14091 15.3831C5.12791 15.3692 5.1123 15.3581 5.09499 15.3503C5.07768 15.3425 5.059 15.3382 5.04002 15.3376C5.02104 15.337 5.00213 15.3402 4.98438 15.3469C4.96694 15.3536 4.951 15.3637 4.93746 15.3766C4.92393 15.3894 4.91306 15.4048 4.9055 15.4219C4.89794 15.439 4.89383 15.4574 4.8934 15.476C4.89297 15.4947 4.89624 15.5133 4.90301 15.5307C4.97913 15.7354 6.23123 19.0507 7.24445 21.4316C5.197 21.6284 0.595474 23.1378 0.157109 23.2165C0.133431 23.2139 0.109484 23.2174 0.0874796 23.2265C0.0654757 23.2356 0.0461245 23.2501 0.0312133 23.2687C0.016302 23.2873 0.00631157 23.3093 0.00216476 23.3328C-0.00198205 23.3562 -0.000151507 23.3803 0.00748724 23.4029C0.0599861 23.5604 0.0731108 23.5525 1.36458 23.1719C2.98417 22.6942 5.96348 21.8148 7.37308 21.7072C7.64772 22.4161 7.98597 23.0988 8.38368 23.7468C8.40905 23.7687 8.44139 23.7809 8.47494 23.7813C8.50848 23.7816 8.54107 23.7701 8.56689 23.7487C8.59272 23.7272 8.61011 23.6974 8.61597 23.6643C8.62184 23.6313 8.6158 23.5973 8.59893 23.5683Z" fill="white"/>
<path d="M28.9178 17.1816C28.6842 16.3023 27.2431 11.454 26.0304 9.40391C24.8177 7.35383 22.4264 5.37725 20.5154 6.73172C20.4895 6.74792 20.4605 6.75861 20.4302 6.76312C20.3999 6.76764 20.3691 6.76589 20.3395 6.75797C19.9143 6.63197 18.2133 6.28023 17.04 7.50871C14.0318 10.6586 15.465 16.1369 14.2392 19.3866C14.23 19.4136 14.2267 19.4423 14.2294 19.4707C14.2322 19.4991 14.2409 19.5266 14.255 19.5514C14.2692 19.5762 14.2884 19.5977 14.3115 19.6146C14.3345 19.6314 14.3609 19.6432 14.3888 19.6491C15.7643 20.0481 23.416 22.0509 28.8443 17.3995C28.8748 17.3729 28.8976 17.3388 28.9105 17.3005C28.9234 17.2622 28.926 17.2212 28.9178 17.1816Z" fill="#87E4FF"/>
<path d="M39.7219 13.1786C39.7492 12.7977 39.869 12.4292 40.071 12.105C40.4227 11.5039 41.016 9.97884 40.9477 9.12835C40.8926 8.45374 41.9715 6.60316 41.5488 6.45354C41.1971 6.32754 40.197 8.47737 40.197 8.47737L39.8715 8.42749C39.8715 8.42749 40.1734 5.40094 39.6983 5.37731C39.2231 5.35369 39.0971 8.37762 39.0971 8.37762L38.6456 8.45374C38.6456 8.45374 38.0209 5.02557 37.5957 5.00194C37.1704 4.97832 37.7952 8.67686 37.7952 8.67686L37.4461 8.77661C37.4461 8.77661 36.3383 5.7973 35.8133 5.9443C35.0862 6.16217 37.2649 10.5012 37.0129 10.6456C36.7609 10.7899 35.5403 9.52209 35.2385 9.89484C34.7896 10.4487 36.4197 11.5144 37.5143 12.3229C37.7138 12.4699 37.6875 12.9476 37.6639 13.2469L39.7219 13.1786Z" fill="white"/>
<path d="M24.2643 33.0129L23.6133 35.8138C23.8753 36.3597 24.1092 36.9186 24.3141 37.4885C24.4349 37.8901 24.9153 39.1606 25.1646 39.1133C25.414 39.0661 25.4271 38.7143 25.4271 38.7143C25.4271 38.7143 25.8786 38.9768 26.1044 38.3626C26.1044 38.3626 26.7028 38.6251 26.6031 37.4386C26.6031 37.4386 27.2042 37.3625 26.5532 35.5618C26.6431 35.6025 26.7451 35.6072 26.8384 35.575C26.9316 35.5427 27.009 35.476 27.0546 35.3885C27.199 35.126 26.5296 33.8372 25.3274 33.8135C25.0285 33.48 24.6674 33.2081 24.2643 33.0129Z" fill="white"/>
<path d="M22.719 21.3318C22.719 21.3318 25.4437 22.9592 25.9686 20.182L25.3675 18.8066C25.3675 18.8066 27.5935 16.9691 26.0946 13.7299C26.0946 13.7299 26.9189 12.9424 26.47 11.9555C26.3359 11.6761 26.1213 11.4433 25.8536 11.287C25.586 11.1307 25.2778 11.0582 24.9685 11.0787C24.9685 11.0787 24.1679 8.83178 21.0915 8.47742C21.0915 8.47742 20.5928 11.9056 18.1673 13.2312L18.5926 14.7563C18.5926 14.7563 17.3168 14.7799 17.1908 15.8299C17.0648 16.8799 18.6162 17.1817 19.2672 16.7801C19.2672 16.7801 20.1675 19.2082 22.3672 19.5074C22.3672 19.4812 22.7688 20.9328 22.719 21.3318Z" fill="white"/>
<path d="M20.5404 16.2936C20.5422 16.3534 20.5606 16.4118 20.5945 16.4654C20.6284 16.519 20.6771 16.5668 20.7378 16.6059C20.7985 16.645 20.8699 16.6747 20.9479 16.6931C21.0258 16.7116 21.1088 16.7185 21.1918 16.7134C21.2749 16.7084 21.3564 16.6914 21.4315 16.6636C21.5066 16.6358 21.5739 16.5977 21.6294 16.5515C21.6848 16.5053 21.7274 16.4519 21.7545 16.3946C21.7816 16.3372 21.7927 16.277 21.7873 16.2175C21.7854 16.1577 21.7671 16.0993 21.7332 16.0457C21.6993 15.992 21.6505 15.9443 21.5899 15.9052C21.5292 15.866 21.4578 15.8364 21.3798 15.8179C21.3018 15.7995 21.2189 15.7926 21.1359 15.7976C21.0528 15.8027 20.9713 15.8196 20.8962 15.8475C20.8211 15.8753 20.7538 15.9134 20.6983 15.9596C20.6429 16.0058 20.6003 16.0591 20.5732 16.1165C20.5461 16.1738 20.5349 16.2341 20.5404 16.2936Z" fill="#FDAF31"/>
<path d="M25.3699 14.6931C25.3967 14.7429 25.4367 14.7849 25.4874 14.8164C25.5381 14.8479 25.5985 14.8684 25.6651 14.8767C25.7317 14.8849 25.8032 14.8808 25.8752 14.8645C25.9473 14.8483 26.0186 14.8202 26.0849 14.7819C26.1512 14.7436 26.2111 14.6959 26.2612 14.6416C26.3114 14.5873 26.3506 14.5275 26.3767 14.4657C26.4028 14.4039 26.4153 14.3413 26.4133 14.2816C26.4113 14.222 26.395 14.1664 26.3652 14.1182C26.3377 14.0693 26.2974 14.0282 26.2467 13.9975C26.1959 13.9667 26.1356 13.9469 26.0694 13.9391C26.0032 13.9313 25.9323 13.9356 25.8608 13.952C25.7893 13.9683 25.7187 13.9962 25.6529 14.0342C25.5872 14.0722 25.5277 14.1194 25.4778 14.1731C25.4279 14.2269 25.3887 14.2861 25.3623 14.3473C25.336 14.4086 25.3231 14.4707 25.3243 14.53C25.3256 14.5894 25.3409 14.6448 25.3696 14.6931" fill="#FDAF31"/>
<path d="M40.2246 13.0553H39.8729C39.9516 12.6155 40.1043 12.1921 40.3244 11.8032L40.474 11.4804C40.8297 10.6729 41.0411 9.80936 41.0987 8.92891C41.2641 8.3068 42.0752 6.50346 41.6237 6.27772C41.5988 6.25925 41.5697 6.2472 41.5391 6.24262C41.5084 6.23804 41.4771 6.24108 41.4478 6.25147C41.0987 6.37484 40.3742 7.75294 40.1222 8.3278L39.9989 8.30417C40.0225 8.04168 40.0776 7.47732 40.0986 6.9287C40.1564 5.47711 39.9726 5.25137 39.7495 5.22774C39.6786 5.22308 39.608 5.24051 39.5474 5.27762C39.1799 5.57161 39.0093 7.47469 38.9226 8.2543L38.6969 8.27792C38.5971 7.55344 38.2218 5.25399 37.7467 4.90225C37.7155 4.87511 37.6787 4.85526 37.6389 4.84414C37.5991 4.83301 37.5573 4.83089 37.5166 4.83793C37.4759 4.84497 37.4372 4.86099 37.4035 4.88483C37.3697 4.90867 37.3417 4.93972 37.3214 4.97575C36.9644 5.47186 37.4238 7.86318 37.5839 8.60342L37.5078 8.62704C37.4343 8.40392 37.2453 7.92881 37.0091 7.42744C36.3843 6.05197 36.0588 5.90235 35.9328 5.8761C35.8488 5.84139 35.7544 5.84139 35.6703 5.8761C35.085 6.16222 35.9775 8.02068 36.8699 10.4803C36.7771 10.4201 36.6894 10.3525 36.6074 10.2781C36.1087 9.90277 35.4315 9.37778 35.0325 9.85289C34.9947 9.8923 34.9679 9.94085 34.9545 9.99376C34.9412 10.0467 34.9418 10.1022 34.9564 10.1548C35.0692 10.9842 37.3634 12.3177 37.4579 12.5041C37.5358 12.7028 37.5532 12.9202 37.5078 13.1288C37.2704 13.1282 37.0342 13.1627 36.8069 13.2312C36.7571 13.3546 36.2583 21.232 36.2583 21.232C34.5574 20.1085 30.2052 18.4758 28.1053 18.9824C27.3561 19.1681 26.6507 19.499 26.0289 19.9563C25.9029 19.6571 25.6536 19.1058 25.5039 18.7829C26.609 17.9377 27.218 15.9323 26.2284 13.7562C26.3856 13.608 26.5111 13.4295 26.5973 13.2314C26.6835 13.0334 26.7285 12.8198 26.7298 12.6038C26.7035 11.0525 25.1049 11.0052 25.0787 11.0052C24.0025 8.50367 21.0783 8.35405 21.052 8.35405C21.0159 8.3511 20.9801 8.36233 20.9522 8.38537C20.9242 8.40841 20.9064 8.44143 20.9024 8.47742C20.9024 8.50367 20.6635 11.7428 18.1016 13.1052C18.0778 13.1221 18.0584 13.1446 18.0452 13.1707C18.0319 13.1967 18.0251 13.2256 18.0255 13.2548C18.1515 13.7063 18.3273 14.3547 18.4008 14.6565C18.0038 14.6859 17.627 14.8434 17.3272 15.1054C17.2056 15.2332 17.117 15.3888 17.0692 15.5586C17.0213 15.7285 17.0156 15.9074 17.0526 16.0799C17.0896 16.2525 17.1682 16.4133 17.2814 16.5486C17.3947 16.6839 17.5393 16.7895 17.7026 16.8562C18.1588 17.0382 18.6659 17.0466 19.1279 16.8799C19.2277 17.1056 20.2514 19.2817 22.228 19.5573C22.2779 19.8198 22.4538 20.5075 22.5272 20.9826C17.3771 18.5073 9.88028 33.9026 14.8493 36.4383C15.8258 36.937 23.4276 36.1758 23.6796 36.1364C24.2886 37.4804 24.5537 39.1893 25.1548 39.1893C25.3281 39.163 25.4173 38.9898 25.4803 38.8375C25.549 38.8602 25.6217 38.8685 25.6938 38.8618C25.7658 38.8551 25.8357 38.8336 25.8991 38.7986C25.9624 38.7636 26.0179 38.7159 26.0619 38.6584C26.1059 38.601 26.1376 38.535 26.1549 38.4648C26.2131 38.4844 26.2751 38.4899 26.3358 38.4808C26.3966 38.4717 26.4542 38.4482 26.504 38.4123C26.7665 38.2416 26.7665 37.7639 26.7298 37.5119C27.2049 37.3544 27.0317 36.5118 26.8794 36.0341H35.0771C34.8146 34.2097 32.0059 25.7102 32.0059 25.7102C32.0059 25.7102 36.9487 28.9415 40.2089 27.1591C43.0149 25.6314 41.2247 13.0789 40.2246 13.0553ZM25.1443 11.2546C25.4039 11.2546 25.6577 11.3316 25.8735 11.4758C26.0893 11.62 26.2575 11.825 26.3569 12.0648C26.4562 12.3046 26.4822 12.5685 26.4316 12.8231C26.3809 13.0777 26.2559 13.3116 26.0724 13.4951C25.8888 13.6787 25.655 13.8037 25.4004 13.8543C25.1458 13.905 24.8819 13.879 24.6421 13.7796C24.4022 13.6803 24.1973 13.5121 24.053 13.2963C23.9088 13.0804 23.8318 12.8267 23.8318 12.5671C23.8318 12.219 23.9701 11.8852 24.2163 11.639C24.4624 11.3929 24.7962 11.2546 25.1443 11.2546ZM22.5194 19.4313C22.4958 19.3814 22.4695 19.3316 22.396 19.3316C20.3433 19.0691 19.3694 16.7066 19.3694 16.6804C19.3588 16.6613 19.3442 16.6447 19.3267 16.6317C19.3091 16.6187 19.2891 16.6096 19.2677 16.6048C19.2464 16.6001 19.2244 16.6 19.203 16.6044C19.1816 16.6088 19.1614 16.6177 19.1437 16.6305C18.9442 16.7801 18.246 16.8536 17.7682 16.6305C17.1199 16.3286 17.3929 15.5044 17.5687 15.3548C17.9179 14.9794 18.5951 14.9558 18.6187 14.9558C18.7001 14.9558 18.7841 14.8613 18.7447 14.7799C18.7053 14.6985 18.4428 13.6801 18.3693 13.3309C19.042 12.9607 19.6031 12.4168 19.9942 11.756C20.3874 11.6405 20.8104 11.6858 21.1702 11.882C21.1864 11.8923 21.2046 11.8992 21.2235 11.9023C21.2425 11.9054 21.262 11.9046 21.2806 11.8999C21.2993 11.8952 21.3168 11.8868 21.3321 11.8752C21.3474 11.8635 21.3602 11.8488 21.3697 11.8321C21.3812 11.8163 21.3892 11.7981 21.3929 11.7788C21.3967 11.7596 21.3962 11.7397 21.3914 11.7207C21.3867 11.7016 21.3778 11.6839 21.3654 11.6687C21.353 11.6534 21.3374 11.6411 21.3198 11.6326C20.9865 11.4429 20.5986 11.3725 20.2199 11.4331C20.6872 10.573 21.0158 9.64465 21.1938 8.68217C22.3434 8.80123 23.4105 9.33389 24.1967 10.181C23.9575 10.2319 23.7343 10.3405 23.5467 10.4975C23.3591 10.6544 23.2128 10.8549 23.1205 11.0814C23.1129 11.0978 23.1089 11.1156 23.1087 11.1337C23.1085 11.1518 23.1121 11.1697 23.1193 11.1863C23.1264 11.2029 23.137 11.2178 23.1504 11.23C23.1637 11.2422 23.1795 11.2515 23.1966 11.2572C23.2701 11.2809 23.3699 11.231 23.3699 11.1811C23.3699 11.1312 23.6717 10.4304 24.3962 10.4304C24.5196 10.6062 24.6718 10.8057 24.7952 11.0079C23.3462 11.357 23.5457 12.9083 23.5956 13.0579C23.4426 13.0789 23.2917 13.1123 23.1441 13.1577C23.0207 12.8086 22.8632 12.386 22.7215 11.9817C22.7105 11.9457 22.6861 11.9154 22.6534 11.8968C22.6207 11.8783 22.5821 11.8729 22.5456 11.882C22.5274 11.8868 22.5104 11.8953 22.4955 11.9068C22.4806 11.9183 22.4682 11.9326 22.4589 11.949C22.4496 11.9654 22.4437 11.9834 22.4414 12.0021C22.4392 12.0208 22.4407 12.0397 22.4459 12.0578C22.5692 12.4332 22.7084 12.8453 22.8711 13.2338C22.6295 13.3325 22.4086 13.4758 22.2201 13.6564C22.0897 13.3744 21.8817 13.1354 21.6205 12.9671C21.3593 12.7989 21.0556 12.7084 20.7449 12.7062C20.4282 12.7062 20.1186 12.8001 19.8553 12.9761C19.592 13.152 19.3868 13.4021 19.2656 13.6947C19.1444 13.9872 19.1127 14.3092 19.1745 14.6198C19.2362 14.9304 19.3888 15.2157 19.6127 15.4396C19.8366 15.6636 20.1219 15.8161 20.4325 15.8779C20.7431 15.9396 21.0651 15.9079 21.3577 15.7867C21.6503 15.6656 21.9003 15.4603 22.0763 15.197C22.2522 14.9337 22.3461 14.6241 22.3461 14.3074C22.341 14.181 22.3243 14.0554 22.2963 13.9321C22.4764 13.732 22.7012 13.5773 22.9525 13.4806C23.0484 13.7602 23.1742 14.0286 23.3279 14.2812C23.4276 14.3809 23.9788 14.3809 24.0287 14.3809C23.9355 14.5884 23.8267 14.7884 23.7032 14.9794C23.6921 14.9956 23.6845 15.014 23.6809 15.0333C23.6774 15.0527 23.678 15.0726 23.6827 15.0917C23.6874 15.1108 23.6961 15.1287 23.7083 15.1442C23.7204 15.1596 23.7357 15.1724 23.7531 15.1815C23.7864 15.2003 23.8257 15.2056 23.8628 15.1963C23.8999 15.187 23.932 15.1639 23.9526 15.1316C24.5905 14.0817 24.3805 14.1289 23.8528 14.0817C23.726 14.0804 23.5998 14.0627 23.4775 14.0292C23.368 13.8226 23.28 13.6054 23.215 13.3808C23.36 13.3253 23.5138 13.296 23.6691 13.2942C23.7716 13.4971 23.9162 13.6758 24.0933 13.8184C24.2704 13.961 24.4758 14.0642 24.6959 14.1211C24.916 14.178 25.1457 14.1873 25.3697 14.1483C25.5937 14.1094 25.8068 14.0231 25.9948 13.8953C26.3801 14.7613 26.5086 15.7198 26.3649 16.6567C26.0158 18.6307 24.5668 18.9326 24.4907 18.9326C24.4544 18.945 24.4229 18.9683 24.4003 18.9993C24.3778 19.0303 24.3653 19.0675 24.3647 19.1058C24.3722 19.1404 24.391 19.1715 24.418 19.1943C24.4451 19.2171 24.479 19.2303 24.5143 19.2318C24.7768 19.1661 25.0293 19.0654 25.2651 18.9326C25.4409 19.3316 25.7402 20.0062 25.8163 20.182C25.7694 20.4414 25.6639 20.6866 25.5078 20.8991C25.3518 21.1115 25.1494 21.2855 24.9159 21.4079C24.1416 21.7885 23.1152 21.3816 22.8396 21.2583C22.8186 20.7569 22.5167 19.4812 22.5167 19.4313H22.5194ZM22.0915 14.3442C22.0915 14.6038 22.0145 14.8575 21.8703 15.0733C21.7261 15.2892 21.5211 15.4574 21.2813 15.5567C21.0415 15.6561 20.7776 15.6821 20.523 15.6314C20.2684 15.5808 20.0345 15.4558 19.851 15.2722C19.6674 15.0887 19.5424 14.8548 19.4918 14.6002C19.4411 14.3456 19.4671 14.0817 19.5665 13.8419C19.6658 13.6021 19.834 13.3971 20.0499 13.2529C20.2657 13.1087 20.5195 13.0317 20.779 13.0317C21.1254 13.0371 21.4561 13.1771 21.7011 13.4221C21.9461 13.6671 22.0861 13.9978 22.0915 14.3442ZM15.5292 32.2489C15.5089 32.2578 15.4869 32.2618 15.4648 32.2605C15.4428 32.2593 15.4213 32.2527 15.4023 32.2415C15.3833 32.2303 15.3672 32.2147 15.3553 32.196C15.3435 32.1774 15.3363 32.1561 15.3344 32.1341C15.3324 32.1121 15.3357 32.0899 15.344 32.0695C15.3522 32.049 15.3653 32.0308 15.382 32.0163C15.3988 32.0019 15.4187 31.9916 15.4402 31.9864C15.4616 31.9812 15.484 31.9812 15.5055 31.9864C15.6053 31.9864 16.356 31.9129 17.4296 31.8132C18.0045 29.5111 19.1568 26.4609 19.1568 26.4347C19.1701 26.3998 19.1966 26.3717 19.2305 26.3565C19.2645 26.3412 19.3031 26.3401 19.3379 26.3533C19.3728 26.3665 19.4009 26.393 19.4161 26.427C19.4314 26.461 19.4325 26.4996 19.4193 26.5344C19.4193 26.5606 18.2932 29.5111 17.7184 31.7843C19.9181 31.611 23.1205 31.4352 24.5432 31.7344C24.5797 31.7473 24.6113 31.7711 24.6339 31.8025C24.6564 31.834 24.6687 31.8716 24.6692 31.9103C24.6692 31.9339 24.5695 32.4589 24.517 32.6846C24.5008 32.7109 24.4766 32.7312 24.4479 32.7424C24.4192 32.7536 24.3877 32.7552 24.358 32.7469C24.3283 32.7386 24.3022 32.7208 24.2835 32.6964C24.2648 32.6719 24.2546 32.6419 24.2545 32.6111C24.3105 32.4141 24.3517 32.2132 24.3778 32.01C22.0416 31.5612 15.6027 32.2122 15.5397 32.2358L15.5292 32.2489ZM26.6825 37.3019C26.3995 36.3497 25.9132 35.4702 25.2572 34.7242C25.2304 34.6978 25.1942 34.683 25.1565 34.6833C25.1189 34.6835 25.0828 34.6987 25.0564 34.7255C25.0299 34.7523 25.0152 34.7886 25.0154 34.8262C25.0157 34.8639 25.0309 34.8999 25.0577 34.9263C25.0577 34.9263 26.1759 36.1469 26.4332 37.525C26.567 38.2495 26.2573 38.3125 26.2074 38.2758C25.9449 36.8767 24.9317 35.3752 24.8949 35.3017C24.8739 35.27 24.8418 35.2472 24.8049 35.238C24.768 35.2288 24.7289 35.2337 24.6955 35.2518C24.665 35.2739 24.6434 35.306 24.6343 35.3425C24.6251 35.379 24.6291 35.4175 24.6456 35.4513C24.6456 35.475 25.6956 37 25.958 38.3388C25.9318 38.6879 25.6562 38.6643 25.5827 38.638C25.4567 37.3623 24.6062 36.0367 24.5826 35.9868C24.56 35.9562 24.5275 35.9344 24.4905 35.9253C24.4536 35.9162 24.4147 35.9203 24.3805 35.9369C24.35 35.959 24.3284 35.9912 24.3193 36.0276C24.3101 36.0641 24.3142 36.1026 24.3306 36.1364C24.3306 36.1627 25.1811 37.4883 25.2808 38.7141C25.2572 39.1131 24.9264 38.8139 24.5563 37.6878C24.3742 37.0379 24.1225 36.4095 23.8056 35.8136C24.0051 34.9368 24.3306 33.2858 24.3306 33.2858C24.3805 33.2858 25.3333 33.6244 26.231 35.2886C27.0474 36.8242 26.693 37.2888 26.693 37.2888L26.6825 37.3019ZM26.9083 35.3752C26.8401 35.4492 26.7462 35.4943 26.6458 35.5012C26.4036 34.9175 26.0556 34.3836 25.6194 33.9262C26.819 34.3384 27.0684 35.2125 26.9188 35.3621L26.9083 35.3752ZM37.8123 13.1183C37.8613 12.8491 37.8169 12.5713 37.6863 12.3308C37.4448 12.0893 35.0115 10.5249 35.2372 10.1311C35.463 9.73739 36.0247 10.2309 36.4368 10.5065C36.7623 10.769 36.9618 10.9055 37.1114 10.8057C37.2611 10.706 37.2427 10.5275 36.7124 9.18091C36.4657 8.55354 36.1875 7.82643 36.0116 7.22795C35.7255 6.29872 35.7123 6.20422 35.8357 6.15435C36.1376 6.00472 37.0012 7.89993 37.3372 8.85541C37.352 8.88861 37.3771 8.9162 37.4087 8.93414C37.4404 8.95209 37.4769 8.95945 37.513 8.95516L37.8385 8.87904C37.8747 8.8692 37.9055 8.84545 37.9242 8.81299C37.9428 8.78053 37.9479 8.74199 37.9383 8.70579C37.9383 8.70579 37.7572 7.85531 37.6364 6.97858C37.4291 5.45349 37.5865 5.17787 37.6128 5.14112C37.6627 5.16474 37.8753 5.34061 38.1877 6.81583C38.3583 7.64269 38.4501 8.46692 38.4501 8.49055C38.4535 8.52701 38.4711 8.56069 38.4991 8.58428C38.5271 8.60787 38.5633 8.61946 38.5998 8.61654L39.0749 8.56667C39.0916 8.56741 39.1083 8.56466 39.124 8.5586C39.1396 8.55253 39.1538 8.54327 39.1656 8.53142C39.1775 8.51957 39.1867 8.50538 39.1928 8.48976C39.1989 8.47413 39.2016 8.45742 39.2009 8.44067C39.3243 6.86571 39.55 5.7396 39.6996 5.55323C39.8492 5.81573 39.7994 7.2017 39.676 8.44067C39.673 8.47676 39.6843 8.51258 39.7073 8.54052C39.7304 8.56846 39.7634 8.58631 39.7994 8.59029L40.1511 8.64017C40.1805 8.64379 40.2103 8.63877 40.2369 8.62571C40.2635 8.61266 40.2856 8.59214 40.3007 8.56667C40.81 7.51669 41.251 6.78958 41.4505 6.59009C41.4505 7.08095 40.8336 8.62967 40.7759 8.91579C40.6131 11.3622 39.676 11.7743 39.55 13.0422C39.0486 13.0553 38.374 13.0789 37.8228 13.1052L37.8123 13.1183Z" fill="#414141"/>
<path d="M24.5279 13.2311C24.5641 13.234 24.6004 13.2257 24.6318 13.2074C24.6633 13.1892 24.6884 13.1617 24.7037 13.1287C24.7582 12.8672 24.8987 12.6315 25.1028 12.4593C25.3069 12.287 25.5629 12.1882 25.8298 12.1785C25.8687 12.176 25.9054 12.1595 25.9329 12.1319C25.9604 12.1044 25.977 12.0678 25.9795 12.0289C25.9765 11.9902 25.9597 11.9539 25.9323 11.9264C25.9049 11.899 25.8685 11.8823 25.8298 11.8793C24.6801 11.8793 24.4281 13.029 24.4281 13.0552C24.4191 13.0918 24.4244 13.1303 24.443 13.1631C24.4615 13.1958 24.4919 13.2201 24.5279 13.2311Z" fill="#414141"/>
<path d="M19.7423 14.205C19.725 14.2148 19.7099 14.2279 19.6977 14.2436C19.6856 14.2593 19.6766 14.2772 19.6714 14.2963C19.6661 14.3155 19.6647 14.3355 19.6672 14.3551C19.6697 14.3748 19.676 14.3938 19.6858 14.4111C19.6957 14.4283 19.7088 14.4434 19.7245 14.4556C19.7401 14.4677 19.758 14.4767 19.7772 14.4819C19.7963 14.4872 19.8163 14.4886 19.836 14.4861C19.8557 14.4836 19.8747 14.4773 19.8919 14.4675C20.0756 14.346 20.279 14.2572 20.493 14.205C20.6849 14.1524 20.8864 14.1454 21.0815 14.1846C21.2766 14.2238 21.4598 14.3081 21.6165 14.4307C21.6427 14.4544 21.6664 14.4544 21.7162 14.4544C21.7359 14.4541 21.7553 14.4495 21.773 14.4409C21.7907 14.4322 21.8063 14.4198 21.8186 14.4045C21.8316 14.3904 21.8413 14.3736 21.8471 14.3553C21.8528 14.337 21.8545 14.3176 21.852 14.2986C21.8495 14.2796 21.8429 14.2614 21.8326 14.2452C21.8223 14.229 21.8085 14.2153 21.7924 14.205C20.892 13.4543 19.7423 14.205 19.7423 14.205Z" fill="#414141"/>
<path d="M24.6186 15.5042C23.9387 15.6905 22.6919 16.0554 22.6919 16.0554C22.5659 16.0816 22.5921 16.205 22.5921 16.2549C22.6868 16.4704 22.8401 16.6551 23.0345 16.7878C23.2289 16.9205 23.4567 16.996 23.692 17.0056C23.86 17.0026 24.0253 16.9626 24.1761 16.8883C24.3268 16.814 24.4594 16.7074 24.5642 16.576C24.669 16.4446 24.7435 16.2917 24.7824 16.1282C24.8213 15.9647 24.8236 15.7947 24.7892 15.6302C24.7863 15.6107 24.7796 15.5919 24.7694 15.575C24.7593 15.5581 24.7459 15.5434 24.7301 15.5317C24.7142 15.52 24.6962 15.5115 24.6771 15.5068C24.6579 15.5021 24.6381 15.5012 24.6186 15.5042ZM24.0017 16.6565C23.8138 16.7197 23.61 16.7169 23.4239 16.6487C23.2378 16.5805 23.0805 16.4508 22.978 16.2811C23.3035 16.1814 24.028 15.9819 24.5529 15.8297C24.5578 16.0075 24.5074 16.1826 24.4087 16.3306C24.31 16.4787 24.1678 16.5926 24.0017 16.6565Z" fill="#414141"/>
<path d="M18.6156 15.8299C18.4271 15.7805 18.2348 15.7471 18.0407 15.7302C18.0042 15.7273 17.968 15.7389 17.94 15.7624C17.912 15.786 17.8944 15.8197 17.8911 15.8562C17.8881 15.8923 17.8994 15.9281 17.9224 15.956C17.9454 15.984 17.9785 16.0018 18.0145 16.0058C18.1919 16.0245 18.3675 16.0578 18.5394 16.1055C18.5657 16.1055 18.6917 16.1318 18.7153 16.0058C18.72 15.9696 18.7129 15.9329 18.6949 15.9012C18.6769 15.8694 18.649 15.8444 18.6156 15.8299Z" fill="#414141"/>
<path d="M32.5972 13.9558C32.5886 13.9239 32.5687 13.8962 32.5412 13.8778C32.5136 13.8595 32.4804 13.8518 32.4476 13.8561L32.1851 13.906L32.0854 13.3547C32.0848 13.3371 32.0801 13.3199 32.0716 13.3045C32.0631 13.2891 32.051 13.276 32.0363 13.2662C32.0217 13.2564 32.0049 13.2503 31.9874 13.2484C31.9699 13.2464 31.9522 13.2487 31.9357 13.255C31.9181 13.2555 31.9009 13.2602 31.8855 13.2687C31.8701 13.2773 31.857 13.2894 31.8472 13.304C31.8375 13.3187 31.8313 13.3354 31.8294 13.3529C31.8274 13.3704 31.8297 13.3881 31.836 13.4046L31.9357 13.9795C31.8097 14.0057 31.71 14.0293 31.6732 14.0293C31.6411 14.0385 31.6133 14.0589 31.595 14.0869C31.5767 14.1148 31.5691 14.1484 31.5735 14.1816C31.5838 14.2073 31.6006 14.23 31.6222 14.2475C31.6438 14.265 31.6695 14.2766 31.6969 14.2813C31.6969 14.2813 31.8465 14.2551 31.9594 14.2314L32.0329 14.6068C32.0356 14.6234 32.0418 14.6393 32.051 14.6534C32.0601 14.6676 32.0721 14.6797 32.0861 14.689C32.1001 14.6984 32.1159 14.7048 32.1325 14.7078C32.1491 14.7108 32.1661 14.7104 32.1825 14.7066C32.2586 14.6803 32.3085 14.6304 32.2822 14.5543L32.2087 14.1553C32.29 14.1307 32.3736 14.114 32.4581 14.1054C32.4784 14.1109 32.4998 14.1108 32.52 14.105C32.5402 14.0992 32.5585 14.088 32.5728 14.0726C32.5871 14.0572 32.5969 14.0382 32.6012 14.0176C32.6056 13.997 32.6042 13.9757 32.5972 13.9558Z" fill="#414141"/>
<path d="M41.5487 1.97538H41.2862V1.57639C41.2888 1.5585 41.2875 1.54026 41.2824 1.5229C41.2774 1.50555 41.2686 1.48949 41.2568 1.47582C41.245 1.46214 41.2303 1.45118 41.2139 1.44366C41.1974 1.43614 41.1796 1.43225 41.1615 1.43225C41.1434 1.43225 41.1255 1.43614 41.1091 1.44366C41.0927 1.45118 41.078 1.46214 41.0662 1.47582C41.0544 1.48949 41.0456 1.50555 41.0406 1.5229C41.0355 1.54026 41.0342 1.5585 41.0368 1.57639V1.97538H40.8609C40.843 1.97278 40.8248 1.97405 40.8074 1.97913C40.7901 1.9842 40.774 1.99294 40.7604 2.00477C40.7467 2.0166 40.7357 2.03123 40.7282 2.04767C40.7207 2.06412 40.7168 2.08198 40.7168 2.10006C40.7168 2.11814 40.7207 2.13601 40.7282 2.15245C40.7357 2.16889 40.7467 2.18353 40.7604 2.19535C40.774 2.20718 40.7901 2.21593 40.8074 2.221C40.8248 2.22607 40.843 2.22735 40.8609 2.22475H41.0368V2.62636C41.0342 2.64426 41.0355 2.6625 41.0406 2.67985C41.0456 2.6972 41.0544 2.71326 41.0662 2.72693C41.078 2.74061 41.0927 2.75158 41.1091 2.75909C41.1255 2.76661 41.1434 2.7705 41.1615 2.7705C41.1796 2.7705 41.1974 2.76661 41.2139 2.75909C41.2303 2.75158 41.245 2.74061 41.2568 2.72693C41.2686 2.71326 41.2774 2.6972 41.2824 2.67985C41.2875 2.6625 41.2888 2.64426 41.2862 2.62636V2.22475H41.5487C41.5786 2.22039 41.606 2.20539 41.6258 2.18249C41.6456 2.1596 41.6565 2.13034 41.6565 2.10006C41.6565 2.06979 41.6456 2.04053 41.6258 2.01763C41.606 1.99474 41.5786 1.97974 41.5487 1.97538Z" fill="#414141"/>
<path d="M45.0479 4.02562C45.0347 4.02725 45.0212 4.02598 45.0086 4.0219C44.9959 4.01782 44.9842 4.01103 44.9744 4.00199C44.9578 3.99202 44.9437 3.97845 44.9331 3.96227C44.9225 3.9461 44.9157 3.92774 44.9132 3.90857C44.9107 3.8894 44.9125 3.86991 44.9186 3.85154C44.9246 3.83318 44.9347 3.81642 44.9482 3.8025C45.4311 3.11635 45.8344 2.37749 46.1504 1.60017C46.1638 1.56759 46.1895 1.5416 46.2219 1.52784C46.2543 1.51409 46.2909 1.51366 46.3236 1.52667C46.3407 1.53209 46.3564 1.54108 46.3697 1.55305C46.383 1.56502 46.3937 1.57969 46.4009 1.59608C46.4081 1.61248 46.4117 1.63022 46.4115 1.64812C46.4113 1.66603 46.4073 1.68368 46.3997 1.69992C45.8879 3.18301 45.0978 4.02562 45.0479 4.02562Z" fill="#414141"/>
<path d="M45.0498 5.2777C44.9002 5.2777 44.8766 5.10183 44.9763 5.00208C45 5.00208 46.2888 4.33797 47.4018 2.70263C47.4248 2.6727 47.4587 2.65311 47.4961 2.64819C47.5335 2.64327 47.5713 2.65341 47.6013 2.67638C47.6312 2.69935 47.6508 2.73328 47.6557 2.77069C47.6606 2.80811 47.6505 2.84594 47.6275 2.87588C46.9764 3.87418 46.0916 4.69861 45.0498 5.2777Z" fill="#414141"/>
<path d="M32.271 4.47703C31.7324 4.31841 31.2476 4.01517 30.8693 3.60029C30.8452 3.57261 30.832 3.53719 30.832 3.50055C30.832 3.4639 30.8452 3.42848 30.8693 3.4008C30.8974 3.37659 30.9332 3.36328 30.9703 3.36328C31.0074 3.36328 31.0433 3.37659 31.0714 3.4008C31.415 3.75159 31.833 4.0207 32.2946 4.18828C32.3139 4.19253 32.3321 4.20069 32.3481 4.21226C32.3641 4.22382 32.3776 4.23855 32.3877 4.25552C32.3977 4.2725 32.4042 4.29137 32.4067 4.31095C32.4093 4.33054 32.4077 4.35043 32.4022 4.3694C32.4013 4.38532 32.3971 4.40087 32.3898 4.41508C32.3826 4.42928 32.3725 4.44184 32.3602 4.45194C32.3478 4.46205 32.3335 4.4695 32.3182 4.47382C32.3028 4.47814 32.2868 4.47923 32.271 4.47703Z" fill="#414141"/>
<path d="M32.1947 4.95213C31.7358 4.92934 31.2821 4.84547 30.8454 4.70276C30.8272 4.69791 30.8102 4.68948 30.7953 4.67797C30.7804 4.66646 30.768 4.65211 30.7587 4.63574C30.7494 4.61936 30.7435 4.60131 30.7412 4.58262C30.739 4.56393 30.7405 4.54498 30.7457 4.52689C30.7502 4.5088 30.7584 4.49182 30.7696 4.47695C30.7809 4.46207 30.795 4.44961 30.8112 4.44031C30.8273 4.431 30.8452 4.42504 30.8637 4.42278C30.8822 4.42052 30.901 4.422 30.9189 4.42714C31.3319 4.56012 31.7611 4.63608 32.1947 4.65289C32.234 4.65474 32.2713 4.67102 32.2993 4.69863C32.3274 4.72623 32.3444 4.76321 32.3469 4.80251C32.3206 4.87601 32.2708 4.95213 32.1947 4.95213Z" fill="#414141"/>
<path d="M35.7954 3.07533C35.7954 3.07533 34.8531 3.07533 34.5958 2.28785C34.5682 2.21547 34.5514 2.1394 34.546 2.06211C34.2958 2.07541 34.0468 2.01948 33.8264 1.90046C33.606 1.78144 33.4226 1.60395 33.2965 1.3875C33.1923 1.18523 33.1357 0.961799 33.1312 0.734304C33.1266 0.506809 33.1742 0.281291 33.2703 0.075024C33.3254 -0.0877225 33.6456 0.0382747 33.5196 0.224646C33.4437 0.390088 33.4066 0.570698 33.4111 0.752675C33.4157 0.934652 33.4618 1.11318 33.5459 1.27462C33.6446 1.44288 33.7876 1.58081 33.9593 1.67339C34.1311 1.76596 34.3249 1.80962 34.5197 1.79961C34.5686 1.55417 34.6717 1.32278 34.8216 1.12238C34.8875 1.03116 34.981 0.963533 35.0882 0.929465C35.1955 0.895396 35.3108 0.896691 35.4173 0.933157C35.5237 0.969623 35.6157 1.03933 35.6795 1.132C35.7433 1.22467 35.7757 1.33541 35.7718 1.44787C35.6957 1.74711 35.3965 2.04898 34.7953 2.07261C34.7953 2.5136 35.3387 2.74197 35.7718 2.82334C35.8768 2.86271 35.9923 3.07533 35.7954 3.07533ZM35.0972 1.27462C34.982 1.41069 34.9042 1.57444 34.8715 1.74974C35.3203 1.69986 35.5198 1.48724 35.5461 1.35075C35.5513 1.251 35.3466 1.02525 35.0972 1.27462Z" fill="#87E4FF"/>
<path d="M46.425 16.3314C45.9833 16.3329 45.5565 16.1722 45.2254 15.8799C44.8716 15.5885 44.6326 15.1811 44.5508 14.7302C44.5508 14.6905 44.5665 14.6524 44.5946 14.6244C44.6227 14.5963 44.6607 14.5805 44.7004 14.5805C44.7401 14.5805 44.7781 14.5963 44.8062 14.6244C44.8343 14.6524 44.85 14.6905 44.85 14.7302C44.9325 15.1013 45.1345 15.4351 45.4249 15.6804C45.6024 15.8351 45.813 15.9472 46.0404 16.0082C46.2679 16.0691 46.5062 16.0773 46.7374 16.0321C46.892 16.0117 47.0387 15.9511 47.1626 15.8563C47.0057 15.7614 46.8709 15.6341 46.7672 15.4829C46.6636 15.3317 46.5934 15.1601 46.5615 14.9795C46.5326 14.5805 46.824 14.1054 47.3857 14.4545C47.7663 14.696 47.811 15.4442 47.5878 15.767C47.6115 15.767 48.5696 16.3498 49.7613 15.1685C49.7894 15.1443 49.8253 15.131 49.8624 15.131C49.8994 15.131 49.9353 15.1443 49.9634 15.1685C49.9874 15.1962 50.0006 15.2316 50.0006 15.2683C50.0006 15.3049 49.9874 15.3403 49.9634 15.368C48.9318 16.3629 48.0131 16.2185 47.5616 16.0426C47.5117 16.019 47.4618 16.019 47.412 15.9928C47.137 16.2252 46.7848 16.346 46.425 16.3314ZM46.8397 14.9297C46.8719 15.0743 46.9357 15.2099 47.0265 15.327C47.1172 15.4441 47.2327 15.5397 47.3647 15.6069C47.3845 15.5464 47.409 15.4876 47.4382 15.431C47.6272 14.6068 46.8004 14.3049 46.8397 14.9297Z" fill="#87E4FF"/>
</svg>
