<svg width="50" height="51" viewBox="0 0 50 51" fill="none" xmlns="http://www.w3.org/2000/svg">
<path d="M44.5658 27.8653C44.6133 27.2228 44.1133 27.4378 44.0908 27.4378C46.2758 25.5353 48.6783 20.1628 44.9458 16.0303C42.9258 13.7953 39.1233 13.0003 39.1233 13.0003C39.1233 13.0003 39.1683 12.2503 38.9108 12.1203C38.7183 12.0278 38.1983 12.2878 38.1983 12.2878C38.1857 12.0738 38.1857 11.8593 38.1983 11.6453C38.9628 11.0719 39.5094 10.2555 39.7483 9.33027C39.7483 9.33027 40.8308 9.25777 40.8183 8.68777C40.8058 8.11777 39.9858 7.90527 39.5833 7.90527C39.4789 7.39289 39.4712 6.86547 39.5608 6.35027C39.5608 6.35027 37.4908 6.69277 37.6583 5.76527C37.6583 5.76527 35.3758 6.38277 35.8533 5.10027C35.8533 5.10027 35.2333 5.19527 35.0208 5.03027C35.0208 5.03027 33.6583 9.28027 34.4733 10.5428C34.6807 10.8813 34.9658 11.1656 35.3049 11.3721C35.644 11.5786 36.0274 11.7014 36.4233 11.7303L36.3508 12.3003C36.1377 12.2886 35.924 12.2886 35.7108 12.3003C35.5433 12.3253 35.5683 12.9428 35.5683 12.9428C33.1908 12.7528 30.3833 14.6578 28.3433 12.5153C27.4633 11.5903 27.7258 8.66527 27.7258 8.66527L24.9458 8.87777C24.9458 8.87777 24.1833 13.1278 25.1583 15.6028C26.4633 18.9078 32.4083 18.1928 32.4083 18.1928L32.2908 27.8878C35.1883 29.1703 41.9133 28.2928 41.9133 28.2928L41.9858 29.1703C43.3408 30.3828 44.5883 29.1278 44.8358 28.3153C45.0833 27.5028 44.5658 27.8653 44.5658 27.8653ZM41.7858 26.2253L41.6183 19.1903C41.6183 19.1903 43.6033 19.9278 43.7108 21.4953C43.8608 23.7303 41.7858 26.2253 41.7858 26.2253Z" fill="white"/>
<path d="M40.3594 47.1609C40.3594 47.1609 40.5044 48.4434 40.6219 48.4909C40.7394 48.5384 46.4919 48.6334 46.5619 48.4434C46.6319 48.2534 43.8119 47.0659 43.5444 46.9709C43.5219 46.9709 41.3594 47.5634 40.3594 47.1609Z" fill="white"/>
<path d="M30.3107 48.751C30.3107 49.1085 33.1857 48.846 36.1807 48.501C36.2857 48.0478 36.2857 47.5767 36.1807 47.1235C36.1807 47.1235 34.3507 47.551 33.1382 46.981C33.1157 46.971 30.2857 48.5385 30.3107 48.751Z" fill="white"/>
<path d="M38.3433 8.80781C38.3433 8.68781 38.2008 8.57031 38.0108 8.57031C37.8208 8.57031 37.6758 8.66531 37.6758 8.80781C37.6758 9.12531 38.3433 9.12531 38.3433 8.80781Z" fill="#FCCAC2"/>
<path d="M35.0833 8.25014C35.0914 8.21434 35.0923 8.17729 35.086 8.14114C35.0796 8.10499 35.0662 8.07046 35.0465 8.03953C35.0267 8.00861 35.001 7.98191 34.9708 7.96099C34.9407 7.94007 34.9067 7.92533 34.8708 7.91764C34.7033 7.87014 34.5133 7.91764 34.4908 8.03514C34.4817 8.10984 34.4976 8.18547 34.536 8.25017C34.5745 8.31486 34.6333 8.36497 34.7033 8.39264C34.7727 8.42331 34.8513 8.42557 34.9224 8.39893C34.9934 8.3723 35.0512 8.31888 35.0833 8.25014Z" fill="#FCCAC2"/>
<path d="M33.7805 27.0325L33.733 25.7025C33.7376 25.6742 33.7514 25.6482 33.7723 25.6286C33.7931 25.609 33.8199 25.5968 33.8484 25.5939C33.8769 25.5911 33.9056 25.5977 33.9299 25.6128C33.9543 25.628 33.9729 25.6507 33.983 25.6775L34.0305 27.01C34.088 27.195 33.7805 27.1925 33.7805 27.0325ZM35.063 27.2475C35.0283 27.2503 34.9938 27.2392 34.9671 27.2168C34.9404 27.1943 34.9237 27.1622 34.9205 27.1275L34.873 25.7975C34.8776 25.7692 34.8914 25.7432 34.9123 25.7236C34.9331 25.704 34.9599 25.6918 34.9884 25.6889C35.0169 25.6861 35.0456 25.6927 35.0699 25.7078C35.0943 25.723 35.1129 25.7457 35.123 25.7725L35.1705 27.105C35.1742 27.1383 35.1652 27.1717 35.1453 27.1986C35.1253 27.2255 35.0959 27.2439 35.063 27.25V27.2475ZM36.038 27.4125C36.0036 27.4153 35.9695 27.4046 35.9429 27.3827C35.9163 27.3607 35.8993 27.3293 35.8955 27.295L35.823 25.795C35.8202 25.7602 35.8313 25.7258 35.8537 25.6991C35.8762 25.6724 35.9083 25.6557 35.943 25.6525C35.9774 25.6497 36.0115 25.6604 36.0381 25.6823C36.0647 25.7043 36.0817 25.7357 36.0855 25.77L36.1555 27.27C36.1583 27.3044 36.1476 27.3385 36.1257 27.3651C36.1037 27.3917 36.0723 27.4087 36.038 27.4125ZM37.058 27.46C37.0236 27.4628 36.9895 27.4521 36.9629 27.4302C36.9363 27.4082 36.9193 27.3768 36.9155 27.3425L36.8455 25.94C36.8501 25.9117 36.8639 25.8857 36.8848 25.8661C36.9056 25.8465 36.9324 25.8343 36.9609 25.8314C36.9894 25.8286 37.0181 25.8352 37.0424 25.8503C37.0668 25.8655 37.0854 25.8882 37.0955 25.915L37.168 27.3175C37.2005 27.39 37.1305 27.4375 37.058 27.46ZM38.308 27.46C38.2736 27.4628 38.2395 27.4521 38.2129 27.4302C38.1863 27.4082 38.1693 27.3768 38.1655 27.3425L38.0955 25.94C38.1001 25.9117 38.1139 25.8857 38.1348 25.8661C38.1556 25.8465 38.1824 25.8343 38.2109 25.8314C38.2394 25.8286 38.2681 25.8352 38.2924 25.8503C38.3168 25.8655 38.3354 25.8882 38.3455 25.915L38.418 27.3175C38.4186 27.3488 38.4093 27.3795 38.3913 27.4051C38.3733 27.4307 38.3476 27.4499 38.318 27.46H38.308ZM39.473 27.4125C39.4386 27.4153 39.4045 27.4046 39.3779 27.3827C39.3513 27.3607 39.3343 27.3293 39.3305 27.295L39.258 25.94C39.2552 25.9052 39.2663 25.8708 39.2887 25.8441C39.3112 25.8174 39.3433 25.8007 39.378 25.7975C39.4124 25.7947 39.4465 25.8054 39.4731 25.8273C39.4997 25.8493 39.5167 25.8807 39.5205 25.915L39.5905 27.27C39.5942 27.2866 39.5942 27.3037 39.5906 27.3203C39.5869 27.3369 39.5798 27.3525 39.5696 27.366C39.5593 27.3795 39.5463 27.3907 39.5314 27.3987C39.5164 27.4068 39.4999 27.4115 39.483 27.4125H39.473ZM40.613 27.4125C40.5786 27.4153 40.5445 27.4046 40.5179 27.3827C40.4913 27.3607 40.4743 27.3293 40.4705 27.295L40.398 26.045C40.3959 26.0104 40.4072 25.9763 40.4295 25.9497C40.4518 25.9232 40.4835 25.9063 40.518 25.9025C40.5528 25.8997 40.5872 25.9108 40.6139 25.9332C40.6406 25.9557 40.6573 25.9878 40.6605 26.0225L40.733 27.2575C40.7362 27.2749 40.7359 27.2928 40.7321 27.3101C40.7283 27.3274 40.721 27.3438 40.7108 27.3583C40.7005 27.3727 40.6875 27.385 40.6724 27.3943C40.6573 27.4036 40.6405 27.4098 40.623 27.4125H40.613ZM41.863 19.385C42.113 19.48 43.5705 20.165 43.5705 21.685C43.5705 23.255 42.428 25.1075 41.9305 25.8675C41.953 23.635 41.9355 20.86 41.863 19.385ZM43.5705 27.935C43.0463 27.4468 42.49 26.9942 41.9055 26.58C41.9091 26.5314 41.9014 26.4826 41.883 26.4375C41.883 26.4375 42.073 26.1875 42.2855 25.8675C42.548 26.0575 43.428 26.7725 44.093 27.39C43.9255 27.555 43.7505 27.75 43.5705 27.935ZM36.038 48.37C35.4905 48.465 31.498 48.775 30.538 48.75C30.8631 48.4983 31.2047 48.2686 31.5605 48.0625L31.893 48.3475C31.9071 48.3583 31.9232 48.3663 31.9404 48.3709C31.9576 48.3755 31.9756 48.3767 31.9932 48.3744C32.0108 48.372 32.0279 48.3663 32.0433 48.3574C32.0587 48.3485 32.0722 48.3366 32.083 48.3225C32.0939 48.3084 32.1018 48.2923 32.1064 48.2751C32.111 48.2579 32.1122 48.24 32.1099 48.2223C32.1075 48.2047 32.1018 48.1877 32.0929 48.1723C32.084 48.1568 32.0721 48.1433 32.058 48.1325L31.808 47.92C31.903 47.8725 31.998 47.8 32.093 47.7525L32.4255 48.0375C32.4393 48.0502 32.4555 48.0598 32.4732 48.0659C32.4908 48.072 32.5096 48.0743 32.5282 48.0728C32.5468 48.0712 32.5649 48.0658 32.5814 48.0569C32.5978 48.048 32.6122 48.0358 32.6236 48.021C32.6351 48.0063 32.6434 47.9893 32.6479 47.9712C32.6525 47.953 32.6532 47.9342 32.6501 47.9157C32.647 47.8973 32.6401 47.8797 32.6298 47.8641C32.6196 47.8485 32.6062 47.8352 32.5905 47.825L32.3405 47.61C32.5979 47.4462 32.8679 47.3033 33.148 47.1825C34.078 47.6022 35.1345 47.6452 36.0955 47.3025C36.0947 47.6591 36.0755 48.0154 36.038 48.37ZM43.498 47.12C43.713 47.19 44.0205 47.31 44.378 47.4525L44.2355 47.5475C44.093 47.6425 44.2355 47.88 44.378 47.7975L44.6855 47.6075C44.7805 47.655 44.8755 47.6775 44.9705 47.725L44.7205 47.8675C44.6874 47.8864 44.6631 47.9177 44.653 47.9545C44.6429 47.9913 44.6479 48.0306 44.6668 48.0638C44.6857 48.0969 44.717 48.1212 44.7538 48.1313C44.7906 48.1414 44.8299 48.1364 44.863 48.1175L45.2905 47.8675C45.743 48.0825 46.1455 48.295 46.383 48.4375C45.3555 48.5025 41.7405 48.5075 40.728 48.415C40.6469 48.0865 40.5917 47.7521 40.563 47.415C41.552 47.4703 42.5435 47.3682 43.5005 47.1125L43.498 47.12ZM41.573 8.6475C41.6205 8.6 41.7155 8.625 41.763 8.695C41.763 8.695 43.118 10.835 43.118 10.8575C43.213 11 42.9755 11.1425 42.8805 11C42.8805 11 41.5255 8.8625 41.5255 8.8375C41.5144 8.8218 41.5068 8.8039 41.5032 8.78501C41.4995 8.76613 41.5 8.74668 41.5045 8.72798C41.509 8.70928 41.5174 8.69175 41.5292 8.67658C41.5411 8.66141 41.556 8.64894 41.573 8.64V8.6475ZM41.0505 9.7175C41.0821 9.69749 41.1198 9.68974 41.1567 9.69573C41.1936 9.70172 41.2269 9.72103 41.2505 9.75C41.2505 9.75 42.1305 11.4125 42.1305 11.4375C42.2005 11.58 41.963 11.7225 41.893 11.555C41.893 11.555 41.013 9.8925 41.013 9.87C41.0048 9.85708 40.9993 9.84265 40.9967 9.82756C40.9942 9.81247 40.9946 9.79702 40.9981 9.78212C41.0016 9.76722 41.0081 9.75316 41.0171 9.74078C41.0261 9.72839 41.0374 9.71793 41.0505 9.71V9.7175ZM35.6105 3.75C35.633 3.7275 37.493 1.55 39.743 3.1325C39.883 3.2325 39.7205 3.465 39.578 3.3475C39.2134 3.04922 38.77 2.86345 38.3016 2.81285C37.8333 2.76224 37.3604 2.84898 36.9405 3.0625C36.5106 3.27403 36.124 3.564 35.8005 3.9175C35.7055 4.055 35.5005 3.8875 35.6105 3.75ZM39.578 4.725V5.32C39.5736 5.35169 39.5579 5.38073 39.5338 5.40175C39.5097 5.42277 39.4788 5.43434 39.4468 5.43434C39.4148 5.43434 39.3839 5.42277 39.3597 5.40175C39.3356 5.38073 39.3199 5.35169 39.3155 5.32V4.72C39.293 4.555 39.578 4.53 39.578 4.72V4.725ZM39.078 3.87C39.0747 3.88781 39.0676 3.90469 39.0572 3.91947C39.0467 3.93425 39.0332 3.94659 39.0175 3.95562C39.0018 3.96466 38.9843 3.97018 38.9663 3.9718C38.9482 3.97341 38.9301 3.9711 38.913 3.965C38.7303 3.9248 38.5403 3.93219 38.3613 3.98647C38.1822 4.04075 38.0201 4.1401 37.8905 4.275C37.7461 4.41261 37.6253 4.57309 37.533 4.75C37.5171 4.78149 37.4893 4.80538 37.4558 4.8164C37.4223 4.82741 37.3858 4.82466 37.3543 4.80875C37.3228 4.79284 37.2989 4.76507 37.2879 4.73154C37.2769 4.69802 37.2796 4.66149 37.2955 4.63C37.2955 4.63 37.8905 3.4425 38.983 3.68C39.0201 3.69204 39.0509 3.71825 39.0687 3.75291C39.0865 3.78757 39.0898 3.82787 39.078 3.865V3.87ZM45.3755 16.37C44.8305 15.635 43.7355 14.565 41.5255 13.6625C40.7841 13.3592 40.0222 13.1086 39.2455 12.9125C39.2455 12.5075 39.1505 12.105 38.9955 12.0325C38.7778 12.0438 38.5625 12.0841 38.3555 12.1525V11.6825C38.9041 11.3044 39.3327 10.7769 39.5905 10.1625C39.803 10.565 40.383 11.7 40.873 12.5375C41.4805 13.5775 42.0855 13.155 42.2755 13.06C42.9269 12.7071 43.533 12.2765 44.0805 11.7775C44.788 11.105 44.158 10.3725 43.868 9.9C43.578 9.4275 41.618 6.62 41.618 6.62C41.618 6.62 41.9255 4.745 41.0705 3.3425C40.2155 1.94 38.7705 1.75 37.723 1.75C36.6755 1.75 33.973 2.6275 34.0405 4.03C34.0323 4.28039 34.1106 4.52597 34.2622 4.7254C34.4139 4.92484 34.6296 5.06595 34.873 5.125C34.588 6.2175 33.9405 8.95 34.123 9.875C34.2445 10.3743 34.5115 10.8262 34.8903 11.1734C35.2691 11.5206 35.7426 11.7474 36.2505 11.825C36.2505 11.945 36.228 12.075 36.228 12.135C36.0345 12.073 35.8265 12.073 35.633 12.135C35.538 12.1825 35.443 12.49 35.418 12.8C32.848 12.8 30.028 14.465 28.3155 12.135C27.598 11.1625 27.8855 8.7825 27.8855 8.735C27.8924 8.71627 27.8949 8.69621 27.8928 8.67636C27.8907 8.6565 27.8841 8.6374 27.8734 8.62053C27.8628 8.60366 27.8484 8.58947 27.8313 8.57906C27.8143 8.56866 27.7951 8.56231 27.7752 8.56052C27.7553 8.55873 27.7353 8.56155 27.7167 8.56874C27.6981 8.57594 27.6814 8.58733 27.6678 8.60203C27.6543 8.61672 27.6444 8.63433 27.6388 8.65349C27.6332 8.67265 27.6321 8.69284 27.6355 8.7125C27.6105 8.8075 27.3455 11.235 28.1105 12.3C29.9005 14.8 32.9955 13.085 35.4055 13.085C35.368 13.285 35.3924 13.4917 35.4755 13.6775C35.668 13.9275 36.2255 14.1775 37.0455 14.225C37.8655 14.2725 38.9755 14.11 39.208 13.7725C39.2839 13.576 39.3164 13.3653 39.303 13.155C40.133 13.37 43.628 14.3425 45.218 16.505C47.7805 20.005 47.183 23.7925 44.3405 27.1525C43.6505 26.51 42.748 25.7975 42.5105 25.6075C42.653 25.3925 42.8005 25.135 42.9605 24.8575C43.628 23.6575 43.9355 22.575 43.9355 21.695C43.9355 20.945 43.3655 19.6525 41.868 19.105C41.8455 18.655 41.8455 18.37 41.8455 18.355C41.8456 18.3365 41.8418 18.3182 41.8344 18.3012C41.827 18.2843 41.8161 18.2691 41.8024 18.2566C41.7887 18.2441 41.7726 18.2346 41.755 18.2287C41.7375 18.2229 41.7189 18.2207 41.7005 18.2225C41.682 18.2242 41.6642 18.2298 41.648 18.2389C41.6319 18.248 41.6179 18.2604 41.6068 18.2752C41.5957 18.29 41.5879 18.307 41.5838 18.3251C41.5797 18.3431 41.5794 18.3618 41.583 18.38C41.583 18.4275 41.698 22.38 41.698 25.5575C41.698 25.5575 33.363 25.2475 32.6005 25.1525V17.5525C32.5928 17.5253 32.5764 17.5014 32.5538 17.4844C32.5313 17.4674 32.5038 17.4582 32.4755 17.4582C32.4473 17.4582 32.4198 17.4674 32.3972 17.4844C32.3747 17.5014 32.3583 17.5253 32.3505 17.5525V18.0525C29.308 18.22 27.048 17.5825 25.793 16.2C24.243 14.4925 25.198 8.8575 25.198 8.785C25.2205 8.62 24.9605 8.5725 24.948 8.7375C24.9005 8.9875 23.983 14.5525 25.6155 16.365C26.7855 17.6675 28.798 18.3375 31.483 18.3375C31.768 18.3375 32.053 18.3375 32.363 18.315V27.2725C32.3634 27.3029 32.3726 27.3325 32.3895 27.3578C32.4063 27.3831 32.4301 27.4029 32.458 27.415C35.833 28.3175 41.108 27.7725 41.958 27.6525C41.9923 27.6487 42.0237 27.6317 42.0457 27.6051C42.0676 27.5785 42.0783 27.5444 42.0755 27.51C42.0755 27.345 42.053 27.13 42.053 26.94C42.564 27.3009 43.0485 27.6977 43.503 28.1275C43.3975 28.2364 43.2865 28.3398 43.1705 28.4375C43.0505 28.555 43.2405 28.745 43.3605 28.6275C43.6455 28.3425 43.928 28.055 44.1905 27.7725C44.498 27.4375 44.7605 27.5575 44.3805 27.985C44.1915 28.16 44.0097 28.3427 43.8355 28.5325C43.7155 28.65 43.9055 28.84 44.0255 28.7225L44.738 27.985C44.948 27.7675 44.9005 28.0075 44.7605 28.235C44.6205 28.4625 44.048 29.5325 43.2405 29.485C43.0203 29.4732 42.8061 29.4087 42.616 29.2969C42.4259 29.1851 42.2654 29.0292 42.148 28.8425L42.0755 28.0925C42.0758 28.0747 42.0722 28.057 42.0648 28.0407C42.0574 28.0245 42.0465 28.0101 42.0328 27.9986C42.0192 27.9871 42.0031 27.9788 41.9859 27.9743C41.9686 27.9698 41.9505 27.9692 41.933 27.9725C37.5855 28.5675 33.403 27.925 32.523 27.7825C32.5023 27.7771 32.4805 27.7769 32.4596 27.7817C32.4388 27.7866 32.4194 27.7965 32.4031 27.8105C32.3869 27.8245 32.3743 27.8422 32.3665 27.8622C32.3586 27.8821 32.3557 27.9037 32.358 27.925L33.048 46.96C32.8555 47.055 32.548 47.21 32.1905 47.41L31.858 47.125C31.7405 47.0075 31.5505 47.22 31.693 47.34L31.943 47.5775C31.848 47.625 31.753 47.695 31.658 47.7425L31.408 47.53C31.3941 47.519 31.3781 47.5109 31.361 47.506C31.3439 47.5012 31.326 47.4998 31.3084 47.5019C31.2907 47.504 31.2737 47.5095 31.2582 47.5182C31.2427 47.5269 31.229 47.5386 31.218 47.5525C31.207 47.5665 31.1989 47.5824 31.1941 47.5995C31.1892 47.6166 31.1878 47.6345 31.1899 47.6522C31.192 47.6698 31.1976 47.6869 31.2062 47.7024C31.2149 47.7179 31.2266 47.7315 31.2405 47.7425L31.4305 47.91C30.838 48.29 30.2905 48.66 30.2655 48.835C30.1955 49.0975 30.623 49.085 30.7655 49.05C33.0005 48.955 36.2655 48.7175 36.3505 48.6225C36.493 48.455 37.0855 31.4425 37.0855 31.4175C37.0855 31.2275 37.543 31.25 37.5855 31.4175C38.0055 33.0475 40.4605 48.6225 40.628 48.6675C41.148 48.8125 46.568 48.69 46.758 48.6425C46.7758 48.6392 46.7927 48.6321 46.8075 48.6216C46.8223 48.6112 46.8346 48.5976 46.8436 48.582C46.8527 48.5663 46.8582 48.5488 46.8598 48.5308C46.8614 48.5127 46.8591 48.4946 46.853 48.4775C46.828 48.405 46.8055 48.2625 45.6405 47.7275L45.7605 47.655C45.792 47.6361 45.8147 47.6055 45.8236 47.5698C45.8325 47.5342 45.8269 47.4965 45.808 47.465C45.7891 47.4335 45.7585 47.4108 45.7229 47.4019C45.6872 47.393 45.6495 47.3986 45.618 47.4175L45.3305 47.585L45.0455 47.4425L45.308 47.275C45.4505 47.18 45.308 46.9425 45.1655 47.025L44.738 47.2875C44.4287 47.1496 44.1115 47.0303 43.788 46.93L42.1705 29.395C42.474 29.6647 42.8601 29.8233 43.2655 29.845C44.168 29.845 44.808 28.775 44.9755 28.4425C45.093 28.1925 45.2255 27.54 44.738 27.73C44.7855 27.445 44.5705 27.3975 44.548 27.3975C46.163 25.4975 47.048 23.55 47.113 21.575C47.1414 19.6908 46.5288 17.8528 45.3755 16.3625V16.37ZM36.203 13.535C36.2065 13.5547 36.2054 13.5749 36.1997 13.594C36.1941 13.6132 36.1842 13.6308 36.1707 13.6455C36.1572 13.6602 36.1405 13.6716 36.1219 13.6788C36.1032 13.686 36.0832 13.6888 36.0633 13.687C36.0434 13.6852 36.0242 13.6788 36.0072 13.6684C35.9902 13.658 35.9758 13.6438 35.9651 13.627C35.9544 13.6101 35.9478 13.591 35.9457 13.5711C35.9436 13.5513 35.9461 13.5312 35.953 13.5125L36.0005 12.585C35.9973 12.5653 35.9987 12.5452 36.0045 12.5261C36.0104 12.5071 36.0205 12.4896 36.0342 12.4751C36.0478 12.4606 36.0646 12.4494 36.0833 12.4425C36.1019 12.4355 36.122 12.4329 36.1418 12.4349C36.1616 12.4368 36.1807 12.4434 36.1976 12.4539C36.2145 12.4644 36.2288 12.4787 36.2393 12.4956C36.2498 12.5126 36.2563 12.5317 36.2582 12.5515C36.2602 12.5713 36.2575 12.5914 36.2505 12.61L36.203 13.535ZM37.0105 13.6775C37.014 13.6972 37.0129 13.7174 37.0072 13.7365C37.0016 13.7557 36.9917 13.7733 36.9782 13.788C36.9647 13.8027 36.948 13.8141 36.9294 13.8213C36.9107 13.8285 36.8907 13.8313 36.8708 13.8295C36.8509 13.8277 36.8317 13.8213 36.8147 13.8109C36.7977 13.8005 36.7833 13.7863 36.7726 13.7695C36.7619 13.7526 36.7553 13.7335 36.7532 13.7136C36.7511 13.6938 36.7536 13.6737 36.7605 13.655C36.7605 13.655 36.808 12.655 36.808 12.6325C36.8048 12.6128 36.8062 12.5927 36.812 12.5736C36.8179 12.5546 36.828 12.5371 36.8417 12.5226C36.8553 12.5081 36.8721 12.4969 36.8908 12.49C36.9094 12.483 36.9295 12.4804 36.9493 12.4824C36.9691 12.4843 36.9882 12.4909 37.0051 12.5014C37.022 12.5119 37.0363 12.5262 37.0468 12.5431C37.0573 12.5601 37.0638 12.5792 37.0657 12.599C37.0677 12.6188 37.065 12.6389 37.058 12.6575C37.058 12.68 37.0005 13.6775 37.0005 13.6775H37.0105ZM37.8905 13.6775C37.8861 13.7092 37.8704 13.7382 37.8463 13.7592C37.8222 13.7803 37.7913 13.7918 37.7593 13.7918C37.7273 13.7918 37.6964 13.7803 37.6722 13.7592C37.6481 13.7382 37.6324 13.7092 37.628 13.6775V12.6575C37.6324 12.6258 37.6481 12.5968 37.6722 12.5758C37.6964 12.5547 37.7273 12.5432 37.7593 12.5432C37.7913 12.5432 37.8222 12.5547 37.8463 12.5758C37.8704 12.5968 37.8861 12.6258 37.8905 12.6575V13.6775ZM38.033 11.5875V12.1825C37.5071 12.2848 36.9664 12.2848 36.4405 12.1825C36.4405 12.11 36.4655 11.9925 36.4655 11.8725C36.6229 11.8934 36.7818 11.9018 36.9405 11.8975C36.9722 11.8931 37.0012 11.8774 37.0223 11.8533C37.0433 11.8292 37.0549 11.7982 37.0549 11.7663C37.0549 11.7343 37.0433 11.7033 37.0223 11.6792C37.0012 11.6551 36.9722 11.6394 36.9405 11.635C35.658 11.635 34.588 10.885 34.3505 9.805C34.1605 8.95 34.8255 6.24 35.0855 5.1725C35.2828 5.20129 35.4832 5.20129 35.6805 5.1725C35.2505 6.3825 37.5005 5.885 37.5005 5.885C37.4055 6.74 39.283 6.55 39.283 6.55C39.033 8.2375 39.4955 8 39.6155 8.0225C39.7355 8.045 40.668 8.0725 40.5905 8.6175C40.523 9.07 39.9005 9.0675 39.6855 9.045C39.638 9.045 39.5905 9.0675 39.5905 9.115V9.14C39.5016 9.45757 39.3879 9.76768 39.2505 10.0675C39.0151 10.6227 38.6178 11.094 38.1105 11.42C38.0805 11.5 38.033 11.54 38.033 11.5875ZM38.783 13.535C38.7753 13.5622 38.7589 13.5861 38.7363 13.6031C38.7138 13.6201 38.6863 13.6293 38.658 13.6293C38.6298 13.6293 38.6023 13.6201 38.5797 13.6031C38.5572 13.5861 38.5408 13.5622 38.533 13.535V12.68C38.5408 12.6528 38.5572 12.6289 38.5797 12.6119C38.6023 12.5949 38.6298 12.5857 38.658 12.5857C38.6863 12.5857 38.7138 12.5949 38.7363 12.6119C38.7589 12.6289 38.7753 12.6528 38.783 12.68V13.535Z" fill="#313131"/>
<path d="M19.7833 3.81774C19.3809 3.77885 18.9757 3.77885 18.5733 3.81774C18.1683 3.85774 18.1683 4.43524 18.1458 4.76774C18.1233 5.10024 17.8958 8.14274 17.8583 8.76774C17.8208 9.39274 18.1683 9.48274 18.2883 9.51774C18.6596 9.54152 19.032 9.54152 19.4033 9.51774C19.6183 9.49024 19.8083 9.39774 19.8558 8.63774C19.9033 7.87774 20.1683 4.81274 20.2358 4.50274C20.3133 4.12774 20.1883 3.86524 19.7833 3.81774ZM19.4283 8.81774H18.4058C18.2408 8.79274 18.2408 8.53274 18.4308 8.56774C18.4308 8.56774 18.7633 8.59274 19.4508 8.56774C19.5933 8.52274 19.5933 8.80774 19.4283 8.80774V8.81774ZM19.4508 7.84274H18.4308C18.4036 7.83498 18.3797 7.81858 18.3627 7.79603C18.3457 7.77347 18.3365 7.74599 18.3365 7.71774C18.3365 7.68949 18.3457 7.662 18.3627 7.63945C18.3797 7.6169 18.4036 7.6005 18.4308 7.59274H19.4508C19.6183 7.54774 19.6183 7.83274 19.4508 7.83274V7.84274ZM19.4508 6.94024H18.5008C18.4808 6.94726 18.4594 6.94939 18.4385 6.94646C18.4175 6.94352 18.3975 6.9356 18.3802 6.92336C18.363 6.91111 18.3489 6.89491 18.3391 6.8761C18.3294 6.85728 18.3243 6.83642 18.3243 6.81524C18.3243 6.79406 18.3294 6.77319 18.3391 6.75438C18.3489 6.73557 18.363 6.71936 18.3802 6.70712C18.3975 6.69488 18.4175 6.68696 18.4385 6.68402C18.4594 6.68108 18.4808 6.68321 18.5008 6.69024H19.4508C19.4736 6.70092 19.4929 6.71788 19.5064 6.73913C19.5199 6.76039 19.5271 6.78505 19.5271 6.81024C19.5271 6.83543 19.5199 6.86009 19.5064 6.88135C19.4929 6.9026 19.4736 6.91956 19.4508 6.93024V6.94024ZM19.5233 6.08524C19.0708 6.03774 18.6208 6.03774 18.5958 6.03774C18.5641 6.03335 18.5351 6.01765 18.514 5.99352C18.493 5.9694 18.4814 5.93848 18.4814 5.90649C18.4814 5.87449 18.493 5.84358 18.514 5.81945C18.5351 5.79533 18.5641 5.77962 18.5958 5.77524C18.5958 5.77524 19.0708 5.77524 19.5233 5.82274C19.5431 5.81641 19.5642 5.81486 19.5848 5.81821C19.6054 5.82156 19.6249 5.82972 19.6417 5.84202C19.6585 5.85432 19.6722 5.87042 19.6816 5.88901C19.6911 5.90759 19.696 5.92814 19.696 5.94899C19.696 5.96983 19.6911 5.99038 19.6816 6.00897C19.6722 6.02756 19.6585 6.04366 19.6417 6.05596C19.6249 6.06826 19.6054 6.07642 19.5848 6.07977C19.5642 6.08312 19.5431 6.08156 19.5233 6.07524V6.08524ZM19.5233 5.04024H18.7158C18.697 5.04283 18.6779 5.04138 18.6598 5.03597C18.6416 5.03056 18.6249 5.02133 18.6106 5.00889C18.5963 4.99646 18.5849 4.9811 18.577 4.96387C18.5692 4.94664 18.5651 4.92792 18.5651 4.90899C18.5651 4.89005 18.5692 4.87134 18.577 4.85411C18.5849 4.83687 18.5963 4.82152 18.6106 4.80908C18.6249 4.79665 18.6416 4.78741 18.6598 4.78201C18.6779 4.7766 18.697 4.77514 18.7158 4.77774H19.5233C19.5431 4.77141 19.5642 4.76986 19.5848 4.77321C19.6054 4.77656 19.6249 4.78472 19.6417 4.79702C19.6585 4.80932 19.6722 4.82542 19.6816 4.844C19.6911 4.86259 19.696 4.88314 19.696 4.90399C19.696 4.92483 19.6911 4.94538 19.6816 4.96397C19.6722 4.98256 19.6585 4.99866 19.6417 5.01096C19.6249 5.02326 19.6054 5.03141 19.5848 5.03477C19.5642 5.03812 19.5431 5.03656 19.5233 5.03024V5.04024Z" fill="#FDAF31"/>
<path d="M20.5003 5.19559C20.4728 5.43309 20.2503 8.23809 20.2503 8.54559C20.2503 8.85309 20.2028 9.21059 21.0353 9.16309C21.8678 9.11559 30.9203 8.47559 31.3003 8.42809C31.6803 8.38059 32.0353 8.40309 32.2253 7.81059C32.3418 7.47693 32.4337 7.13519 32.5003 6.78809C32.5253 6.62059 32.5728 6.19309 31.9778 6.12309C31.3828 6.05309 21.8553 4.72059 21.3103 4.67309C20.7653 4.62559 20.5628 4.57809 20.5003 5.19559Z" fill="#FDAF31"/>
<path d="M32.6142 8.47526C32.8031 8.50257 32.9934 8.51844 33.1842 8.52276C33.2567 8.52276 33.4342 8.57026 33.5642 8.07026C33.6567 7.69026 33.8267 6.97776 33.8492 6.82026C33.8717 6.66276 33.8967 6.39026 33.6592 6.34276C33.4217 6.29526 33.2567 6.29526 33.1592 6.27276C33.0617 6.25026 32.8467 6.32026 32.7542 6.74776C32.6617 7.17526 32.4917 7.84026 32.4442 8.05526C32.4467 8.25026 32.3992 8.43026 32.6142 8.47526Z" fill="#FDAF31"/>
<path d="M35.7046 8.64014C35.6796 8.57014 35.5171 8.35264 36.6071 6.62014C36.6282 6.59292 36.6586 6.57444 36.6925 6.56822C36.7263 6.562 36.7613 6.56848 36.7907 6.58643C36.8201 6.60437 36.8418 6.63252 36.8518 6.66549C36.8617 6.69846 36.8592 6.73393 36.8446 6.76514C36.5109 7.32208 36.2168 7.90185 35.9646 8.50014C36.1621 8.5257 36.3621 8.5257 36.5596 8.50014C36.7246 8.50014 36.7496 8.76264 36.5821 8.76264C36.4146 8.76264 35.7721 8.83264 35.7046 8.64014Z" fill="#313131"/>
<path d="M38.2708 7.71513C37.9633 7.33513 37.4633 7.52513 37.4383 7.52513C37.2733 7.59513 37.1883 7.33513 37.3433 7.26263C37.3683 7.26263 38.0333 7.01263 38.4858 7.52513C38.5608 7.67513 38.3408 7.85263 38.2708 7.71513Z" fill="#313131"/>
<path d="M39.7887 8.75008C39.6462 8.75008 39.5987 8.56008 39.7187 8.51258C39.8243 8.45937 39.9359 8.41908 40.0512 8.39258C40.2162 8.39258 40.2412 8.64258 40.0737 8.64258C40.0231 8.64688 39.9742 8.66316 39.9312 8.69008C39.8837 8.71258 39.8362 8.75008 39.7887 8.75008Z" fill="#313131"/>
<path d="M35.8217 9.47318C35.8004 9.44728 35.7895 9.41439 35.7912 9.38092C35.7928 9.34744 35.8069 9.31578 35.8306 9.29208C35.8543 9.26838 35.8859 9.25434 35.9194 9.2527C35.9529 9.25106 35.9858 9.26192 36.0117 9.28318C36.1642 9.43249 36.3682 9.51752 36.5817 9.52068C36.6922 9.51053 36.799 9.47531 36.8938 9.41769C36.9887 9.36008 37.0692 9.28158 37.1292 9.18818C37.1767 9.14068 37.2717 9.11568 37.3192 9.16318C37.3451 9.18743 37.3616 9.22007 37.3657 9.25531C37.3698 9.29056 37.3613 9.32612 37.3417 9.35568C36.8867 9.94568 36.2692 9.92068 35.8217 9.47318Z" fill="#313131"/>
<path d="M35.3669 7.2218C35.4006 7.22897 35.4359 7.22702 35.4708 7.21606C35.5057 7.20511 35.5395 7.18536 35.5702 7.15795C35.601 7.13055 35.6281 7.09601 35.65 7.05632C35.6719 7.01663 35.6882 6.97256 35.6979 6.92663C35.7077 6.8807 35.7107 6.83381 35.7068 6.78863C35.7029 6.74346 35.6922 6.70088 35.6752 6.66333C35.6583 6.62579 35.6354 6.59401 35.608 6.56981C35.5806 6.54561 35.5491 6.52947 35.5154 6.5223C35.4473 6.50783 35.3742 6.53079 35.3121 6.58615C35.25 6.6415 35.204 6.72471 35.1843 6.81747C35.1647 6.91023 35.1728 7.00494 35.2071 7.08077C35.2413 7.15659 35.2988 7.20733 35.3669 7.2218Z" fill="#313131"/>
<path d="M28.5517 5.67085C28.5141 5.4528 28.3945 5.25742 28.2173 5.12489C28.0402 4.99236 27.8189 4.93276 27.5992 4.95834C27.5992 4.95834 27.4817 4.53084 26.8492 4.76834C26.8492 4.76834 26.7067 4.34084 26.0192 4.65084C26.0192 4.65084 25.4567 4.24834 25.0667 5.07834C24.4867 6.32834 25.2567 6.05085 25.3167 5.88585C25.3167 5.88585 25.2917 6.55085 25.5667 6.57335C25.8417 6.59585 25.9467 6.19335 25.9467 6.19335C25.9467 6.19335 25.9217 6.52835 26.1117 6.57335C26.3017 6.61835 26.4917 6.36084 26.5167 6.26584C26.5167 6.26584 26.4442 6.55335 26.6117 6.57335C26.7792 6.59335 27.5842 5.55335 27.7742 5.57335C27.9642 5.59335 28.5517 5.67085 28.5517 5.67085Z" fill="white"/>
<path d="M28.6691 5.49998C28.6155 5.27656 28.4818 5.08058 28.2934 4.94923C28.1049 4.81789 27.8747 4.76033 27.6466 4.78748C27.5763 4.68101 27.4741 4.59949 27.3546 4.55459C27.2352 4.50969 27.1046 4.5037 26.9816 4.53748C26.8642 4.43926 26.7205 4.37786 26.5684 4.36096C26.4163 4.34406 26.2626 4.37242 26.1266 4.44248C25.9385 4.36917 25.7305 4.36458 25.5394 4.42952C25.3482 4.49446 25.1861 4.62476 25.0816 4.79748C24.8666 5.08248 24.6966 5.70248 24.8316 5.96248C24.8791 6.05748 25.0216 6.19998 25.3066 6.05748C25.3791 6.86498 25.8316 6.62748 25.9491 6.48498C25.9733 6.53115 26.0088 6.57051 26.0522 6.59948C26.0955 6.62845 26.1455 6.6461 26.1974 6.65082C26.2494 6.65554 26.3017 6.64719 26.3495 6.62652C26.3974 6.60585 26.4394 6.57352 26.4716 6.53248C26.53 6.59214 26.6048 6.63305 26.6866 6.64998C26.8291 6.62748 26.9941 6.55498 27.4691 5.93748C27.5641 5.79498 27.3716 5.62748 27.2566 5.77248C27.095 5.99749 26.8933 6.19073 26.6616 6.34248C26.6616 6.01248 27.1741 5.09248 27.6841 5.03498C27.8486 5.01238 28.0157 5.05075 28.1538 5.14286C28.292 5.23496 28.3917 5.37444 28.4341 5.53498C28.4272 5.55643 28.4259 5.57928 28.4303 5.60138C28.4347 5.62348 28.4446 5.64409 28.4592 5.66127C28.4738 5.67845 28.4925 5.69162 28.5136 5.69955C28.5347 5.70748 28.5575 5.7099 28.5797 5.70658C28.602 5.70326 28.6231 5.69431 28.641 5.68058C28.6588 5.66685 28.6729 5.64879 28.6818 5.62811C28.6908 5.60743 28.6943 5.58481 28.6921 5.56239C28.6898 5.53997 28.6819 5.51849 28.6691 5.49998ZM24.9991 5.81248C25.0033 5.52491 25.0901 5.24461 25.2491 5.00498C25.3076 4.91228 25.3883 4.83563 25.4839 4.78195C25.5795 4.72826 25.687 4.69923 25.7966 4.69748C25.5369 4.98344 25.3636 5.33708 25.2966 5.71748C25.1991 5.97998 25.0341 5.90748 24.9991 5.81248ZM25.5241 6.21748C25.5352 5.72274 25.7112 5.24589 26.0241 4.86248C26.4041 4.48248 26.6666 4.67248 26.6416 4.69748C26.4268 4.834 26.2437 5.01479 26.1044 5.22777C25.9652 5.44075 25.873 5.68101 25.8341 5.93248C25.7491 6.42998 25.5341 6.45498 25.5341 6.21748H25.5241ZM26.4266 6.07498C26.3541 6.35998 25.9266 6.71998 26.1166 6.00248C26.206 5.5733 26.452 5.19277 26.8066 4.93498C26.8792 4.86751 26.9722 4.82619 27.0709 4.81759C27.1696 4.80899 27.2684 4.83358 27.3516 4.88748C27.1282 5.01516 26.9323 5.18584 26.7752 5.38966C26.6182 5.59348 26.5031 5.82641 26.4366 6.07498H26.4266Z" fill="#313131"/>
<path d="M27.8377 7.50002C27.6952 7.47752 27.4102 8.21252 27.4102 8.42752C27.4102 8.64252 27.5302 8.80752 27.7427 8.73502C27.9552 8.66252 28.3377 7.57752 27.8377 7.50002Z" fill="white"/>
<path d="M27.5517 8.87743C27.3392 8.85493 27.2442 8.54493 27.3017 8.28493C27.3017 8.23743 27.5142 7.33493 27.8717 7.38243C27.979 7.41883 28.0684 7.49483 28.1217 7.59493C28.1917 7.73743 28.2767 8.04243 28.0267 8.56993C27.9042 8.82993 27.7667 8.90243 27.5517 8.87743ZM27.5517 8.33243C27.5378 8.38212 27.5371 8.43459 27.5499 8.4846C27.5626 8.53461 27.5882 8.58041 27.6242 8.61743C27.6467 8.61743 27.7167 8.59243 27.7892 8.42743C27.9417 8.08743 27.9767 7.78243 27.8367 7.64243C27.6914 7.8483 27.594 8.08406 27.5517 8.33243Z" fill="#313131"/>
<path d="M5.52344 33.6159C5.52344 35.6225 5.91375 37.6095 6.6721 39.4633C7.43044 41.3172 8.54196 43.0017 9.9432 44.4205C11.3444 45.8394 13.0079 46.9649 14.8387 47.7328C16.6695 48.5007 18.6318 48.8959 20.6134 48.8959C22.5951 48.8959 24.5573 48.5007 26.3881 47.7328C28.2189 46.9649 29.8824 45.8394 31.2837 44.4205C32.6849 43.0017 33.7964 41.3172 34.5548 39.4633C35.3131 37.6095 35.7034 35.6225 35.7034 33.6159C35.7034 29.5634 34.1136 25.6769 31.2837 22.8113C28.4538 19.9458 24.6156 18.3359 20.6134 18.3359C16.6113 18.3359 12.7731 19.9458 9.9432 22.8113C7.11327 25.6769 5.52344 29.5634 5.52344 33.6159Z" fill="#005BC3"/>
<path d="M4.85961 33.6151C5.13961 24.3951 12.0121 18.6151 19.6871 17.9076C10.9996 17.0001 2.91211 24.5501 2.91211 33.6151C2.91211 42.8251 9.86711 50.0926 18.5471 49.1776C10.8721 48.5001 4.61961 41.5751 4.85961 33.6151ZM10.6596 20.3076C10.6828 20.281 10.7152 20.2639 10.7503 20.2598C10.7854 20.2556 10.8208 20.2646 10.8496 20.2851L11.2996 20.6401C11.4421 20.7351 11.2771 20.9726 11.1346 20.8551L10.6821 20.5001C10.6668 20.4899 10.6539 20.4764 10.6443 20.4607C10.6347 20.445 10.6287 20.4274 10.6265 20.4091C10.6244 20.3908 10.6262 20.3722 10.6319 20.3547C10.6377 20.3372 10.6471 20.3212 10.6596 20.3076ZM9.37461 21.1876C9.42211 21.1401 9.49461 21.0926 9.56461 21.1401C9.56461 21.1401 10.0871 21.4951 10.1121 21.4951C10.1396 21.5091 10.1613 21.5323 10.1736 21.5605C10.1858 21.5888 10.1878 21.6205 10.1793 21.6501C10.1707 21.6797 10.152 21.7054 10.1265 21.7228C10.101 21.7401 10.0703 21.748 10.0396 21.7451C9.82118 21.6402 9.61423 21.5128 9.42211 21.3651C9.35211 21.3301 9.35211 21.2351 9.37461 21.1876ZM8.30711 22.0901C8.31612 22.0742 8.32829 22.0602 8.34287 22.0491C8.35745 22.038 8.37413 22.03 8.39191 22.0256C8.40968 22.0211 8.42818 22.0204 8.44626 22.0233C8.46435 22.0262 8.48165 22.0328 8.49711 22.0426C8.49711 22.0426 9.06711 22.4001 9.08961 22.4001C9.23211 22.4951 9.08961 22.7076 8.94711 22.6501L8.35461 22.2926C8.32253 22.2712 8.2998 22.2383 8.29098 22.2007C8.28217 22.1632 8.28793 22.1236 8.30711 22.0901ZM7.06961 23.4451C7.06961 23.4451 7.87711 23.8001 7.90211 23.8001C8.06961 23.8726 7.94961 24.1101 7.80711 24.0501C7.80711 24.0501 6.99961 23.6951 6.97461 23.6951C6.80211 23.6401 6.92711 23.3501 7.06961 23.4451ZM5.78711 25.0851C5.79032 25.067 5.79749 25.0499 5.80811 25.0348C5.81872 25.0198 5.83252 25.0073 5.84852 24.9982C5.86452 24.9892 5.88232 24.9837 5.90066 24.9823C5.919 24.9809 5.93742 24.9836 5.95461 24.9901L6.80961 25.2401C6.83479 25.2556 6.85419 25.2789 6.86485 25.3065C6.8755 25.3341 6.87681 25.3644 6.86858 25.3928C6.86035 25.4211 6.84303 25.446 6.81928 25.4636C6.79553 25.4812 6.76666 25.4905 6.73711 25.4901L5.88211 25.2401C5.85242 25.227 5.82743 25.2051 5.81046 25.1774C5.79349 25.1498 5.78535 25.1176 5.78711 25.0851ZM4.99961 26.6276C5.00358 26.6099 5.01121 26.5933 5.02201 26.5787C5.03281 26.5641 5.04654 26.552 5.06232 26.543C5.07809 26.5341 5.09557 26.5285 5.11361 26.5268C5.13166 26.525 5.14988 26.527 5.16711 26.5326L5.95211 26.7951C5.9762 26.8092 5.99534 26.8304 6.0069 26.8558C6.01846 26.8812 6.02187 26.9095 6.01666 26.9369C6.01145 26.9643 5.99788 26.9894 5.97782 27.0088C5.95775 27.0282 5.93218 27.0409 5.90461 27.0451C5.83461 27.0451 5.94211 27.0726 5.07211 26.7951C4.99961 26.7726 4.99961 26.6751 4.99961 26.6276ZM4.24961 28.3626C4.2534 28.3284 4.2704 28.2969 4.29701 28.275C4.32362 28.253 4.35774 28.2423 4.39211 28.2451L5.36711 28.4351C5.39243 28.4465 5.41352 28.4656 5.42741 28.4897C5.44131 28.5137 5.44729 28.5415 5.44453 28.5691C5.44177 28.5968 5.43039 28.6228 5.41202 28.6436C5.39364 28.6645 5.36918 28.679 5.34211 28.6851C5.30961 28.6851 5.42461 28.7076 4.34211 28.4951C4.32674 28.4939 4.31183 28.4892 4.29846 28.4815C4.28509 28.4738 4.27358 28.4633 4.26475 28.4506C4.25592 28.438 4.24998 28.4235 4.24737 28.4083C4.24475 28.3931 4.24552 28.3775 4.24961 28.3626ZM3.67961 30.1126C3.6834 30.0782 3.70031 30.0465 3.72684 30.0241C3.75338 30.0018 3.78749 29.9905 3.82211 29.9926L4.86711 30.1126C4.89392 30.1225 4.91672 30.141 4.93199 30.1651C4.94726 30.1893 4.95415 30.2178 4.95158 30.2463C4.94902 30.2747 4.93716 30.3015 4.91782 30.3226C4.89848 30.3436 4.87275 30.3577 4.84461 30.3626H4.81961L3.77461 30.2451C3.69711 30.2651 3.67211 30.1701 3.67211 30.1226L3.67961 30.1126ZM3.46711 31.9426H4.43961C4.46677 31.9504 4.49067 31.9668 4.50769 31.9894C4.5247 32.0119 4.5339 32.0394 4.5339 32.0676C4.5339 32.0959 4.5247 32.1234 4.50769 32.1459C4.49067 32.1685 4.46677 32.1849 4.43961 32.1926H3.45961C3.43592 32.1828 3.41568 32.1661 3.40144 32.1448C3.38721 32.1234 3.37961 32.0983 3.37961 32.0726C3.37961 32.047 3.38721 32.0219 3.40144 32.0005C3.41568 31.9792 3.43592 31.9625 3.45961 31.9526L3.46711 31.9426ZM4.39211 34.0551C3.39211 34.1876 3.49961 34.1751 3.46711 34.1751C3.29961 34.1751 3.27711 33.9126 3.44211 33.9126L4.34461 33.7951C4.52711 33.7801 4.55211 34.0651 4.38461 34.0651L4.39211 34.0551ZM3.32461 36.0051C3.3218 35.9708 3.3325 35.9367 3.35444 35.91C3.37638 35.8834 3.40783 35.8664 3.44211 35.8626C3.51461 35.8626 3.98961 35.7676 4.39211 35.6726C4.55961 35.6476 4.62961 35.9226 4.43961 35.9226C4.18961 35.9701 3.51461 36.1126 3.41961 36.1126C3.36461 36.1576 3.33961 36.0851 3.31711 36.0151L3.32461 36.0051ZM3.96461 37.9051C3.82211 37.9051 3.77461 37.6676 3.94211 37.6551L4.84461 37.4051C4.87395 37.4053 4.90244 37.415 4.92576 37.4328C4.94909 37.4506 4.96599 37.4755 4.9739 37.5037C4.98181 37.532 4.9803 37.562 4.96961 37.5894C4.95891 37.6167 4.9396 37.6398 4.91461 37.6551C3.90711 37.9526 4.02461 37.9151 3.95711 37.9151L3.96461 37.9051ZM4.67711 40.0676C4.65037 40.0622 4.62586 40.0489 4.6067 40.0295C4.58753 40.0101 4.57458 39.9854 4.56949 39.9586C4.56439 39.9318 4.56739 39.9041 4.5781 39.879C4.5888 39.8539 4.60674 39.8325 4.62961 39.8176L5.46211 39.4601C5.4777 39.4523 5.4947 39.4475 5.51212 39.4462C5.52954 39.4449 5.54705 39.447 5.56365 39.4525C5.58025 39.458 5.59561 39.4666 5.60886 39.478C5.62211 39.4894 5.63298 39.5033 5.64086 39.5189C5.64874 39.5345 5.65347 39.5515 5.65478 39.5689C5.65609 39.5863 5.65396 39.6038 5.6485 39.6204C5.64305 39.637 5.63438 39.6524 5.62299 39.6656C5.61159 39.6789 5.5977 39.6898 5.58211 39.6976C4.69711 40.0726 4.69461 40.0776 4.66961 40.0776L4.67711 40.0676ZM6.36461 41.4701L5.58211 41.8976C5.43711 41.9926 5.29461 41.7551 5.43711 41.6601L6.21461 41.2501C6.35711 41.1701 6.49961 41.4076 6.35711 41.4801L6.36461 41.4701ZM7.52961 43.3951L6.86461 43.7976C6.72211 43.8926 6.57961 43.6551 6.72211 43.5601C6.72211 43.5601 7.36211 43.1576 7.38711 43.1576C7.52211 43.0726 7.66461 43.3101 7.52211 43.4051L7.52961 43.3951ZM8.62211 44.7976L8.17211 45.1526C8.02961 45.2476 7.86211 45.0351 8.00461 44.9401L8.45711 44.5826C8.47188 44.5723 8.48855 44.565 8.50616 44.5611C8.52376 44.5572 8.54197 44.5568 8.55972 44.5599C8.57748 44.563 8.59445 44.5696 8.60966 44.5793C8.62487 44.589 8.63802 44.6016 8.64836 44.6164C8.6587 44.6312 8.66603 44.6478 8.66993 44.6654C8.67383 44.683 8.67423 44.7012 8.67109 44.719C8.66796 44.7368 8.66136 44.7537 8.65167 44.7689C8.64198 44.7842 8.62938 44.7973 8.61461 44.8076L8.62211 44.7976ZM12.4471 47.8851C12.5162 47.7941 12.5796 47.6989 12.6371 47.6001C12.7321 47.4576 12.9721 47.6001 12.8521 47.7426C12.7836 47.8341 12.7202 47.9292 12.6621 48.0276C12.5821 48.1801 12.3446 48.0376 12.4396 47.8951L12.4471 47.8851ZM11.1421 47.1351L11.3321 46.8976C11.4271 46.7551 11.6646 46.9226 11.5446 47.0651L11.3546 47.3151C11.2496 47.4201 11.0396 47.2501 11.1346 47.1351H11.1421ZM9.69211 46.2326L10.0471 45.9476C10.0611 45.9366 10.077 45.9285 10.0941 45.9237C10.1112 45.9189 10.1291 45.9175 10.1468 45.9195C10.1644 45.9216 10.1815 45.9272 10.197 45.9359C10.2125 45.9445 10.2261 45.9562 10.2371 45.9701C10.2481 45.9841 10.2563 46.0001 10.2611 46.0172C10.2659 46.0343 10.2673 46.0522 10.2652 46.0698C10.2631 46.0874 10.2576 46.1045 10.2489 46.12C10.2402 46.1355 10.2286 46.1491 10.2146 46.1601L9.85711 46.4451C9.73211 46.5401 9.54211 46.3276 9.68461 46.2326H9.69211Z" fill="#7BD2FF"/>
<path d="M25.7253 34.0434L20.9753 33.8534C20.9221 33.8549 20.8702 33.8362 20.8303 33.8009C20.7904 33.7656 20.7654 33.7165 20.7603 33.6634C20.7603 33.6634 19.0703 23.8259 19.0703 23.8009C19.0777 23.7473 19.1023 23.6975 19.1403 23.659C19.1784 23.6206 19.228 23.5955 19.2815 23.5876C19.3351 23.5797 19.3898 23.5894 19.4373 23.6153C19.4849 23.6411 19.5228 23.6817 19.5453 23.7309L21.2103 33.4009L25.7728 33.5684C26.0328 33.5684 26.0328 34.0434 25.7253 34.0434Z" fill="white"/>
<path d="M21.5 21.852C21.4661 21.8565 21.4316 21.8531 21.3992 21.8422C21.3668 21.8312 21.3374 21.8129 21.3132 21.7887C21.289 21.7646 21.2707 21.7351 21.2598 21.7027C21.2488 21.6703 21.2455 21.6359 21.25 21.602V19.547C21.25 19.262 21.725 19.237 21.725 19.547V21.6145C21.7271 21.6451 21.7228 21.6759 21.7124 21.7048C21.702 21.7337 21.6857 21.7602 21.6645 21.7825C21.6434 21.8048 21.6179 21.8225 21.5895 21.8345C21.5612 21.8464 21.5307 21.8524 21.5 21.852Z" fill="#313131"/>
<path d="M33.8755 33.8749H31.213C31.1629 33.8585 31.1194 33.8267 31.0885 33.784C31.0576 33.7414 31.041 33.6901 31.041 33.6374C31.041 33.5848 31.0576 33.5334 31.0885 33.4908C31.1194 33.4482 31.1629 33.4163 31.213 33.3999H33.8755C34.1605 33.3999 34.183 33.8749 33.8755 33.8749Z" fill="#313131"/>
<path d="M9.77909 33.5673H7.42659C7.14159 33.5673 7.11659 33.0923 7.42659 33.0923H9.77909C10.0641 33.0923 10.0866 33.5673 9.77909 33.5673Z" fill="#313131"/>
<path d="M21.067 47.1819C21.0343 47.1861 21.001 47.1829 20.9697 47.1726C20.9383 47.1624 20.9096 47.1452 20.8857 47.1225C20.8617 47.0998 20.8432 47.072 20.8313 47.0412C20.8194 47.0104 20.8145 46.9773 20.817 46.9444V44.6944C20.8335 44.6444 20.8653 44.6008 20.9079 44.57C20.9506 44.5391 21.0019 44.5225 21.0545 44.5225C21.1072 44.5225 21.1585 44.5391 21.2011 44.57C21.2438 44.6008 21.2756 44.6444 21.292 44.6944V46.9444C21.2941 46.9751 21.2898 47.0058 21.2794 47.0348C21.269 47.0637 21.2527 47.0901 21.2316 47.1124C21.2104 47.1348 21.1849 47.1524 21.1566 47.1644C21.1283 47.1764 21.0978 47.1823 21.067 47.1819Z" fill="#313131"/>
<path d="M27.5766 22.6125C27.5749 22.6578 27.5644 22.7024 27.5456 22.7436C27.5267 22.7849 27.4999 22.822 27.4667 22.8529C27.4335 22.8837 27.3946 22.9078 27.3521 22.9236C27.3096 22.9394 27.2644 22.9467 27.2191 22.945C27.1751 22.946 27.1314 22.9381 27.0906 22.9218C27.0498 22.9054 27.0127 22.881 26.9817 22.8499C26.9506 22.8188 26.9261 22.7817 26.9098 22.7409C26.8934 22.7001 26.8855 22.6564 26.8866 22.6125C26.8882 22.5667 26.8989 22.5218 26.918 22.4802C26.9372 22.4386 26.9644 22.4012 26.9981 22.3703C27.0319 22.3393 27.0714 22.3154 27.1145 22.2999C27.1576 22.2844 27.2033 22.2776 27.2491 22.28C27.2926 22.2796 27.3357 22.288 27.376 22.3047C27.4162 22.3214 27.4526 22.3459 27.4832 22.3769C27.5137 22.4079 27.5377 22.4448 27.5538 22.4852C27.5698 22.5257 27.5776 22.569 27.5766 22.6125Z" fill="#313131"/>
<path d="M31.6388 27.6276C31.6355 27.7186 31.5963 27.8047 31.5298 27.867C31.4633 27.9293 31.3749 27.9628 31.2838 27.9601C31.2398 27.9611 31.1961 27.9532 31.1553 27.9369C31.1145 27.9205 31.0774 27.8961 31.0464 27.865C31.0153 27.8339 30.9908 27.7968 30.9745 27.756C30.9581 27.7152 30.9502 27.6715 30.9513 27.6276C30.9545 27.5365 30.9937 27.4504 31.0602 27.3881C31.1267 27.3258 31.2152 27.2924 31.3063 27.2951C31.3938 27.297 31.4773 27.3326 31.5393 27.3946C31.6012 27.4565 31.6368 27.54 31.6388 27.6276Z" fill="#313131"/>
<path d="M27.5001 43.7125C27.4968 43.8036 27.4577 43.8897 27.3912 43.952C27.3246 44.0143 27.2362 44.0477 27.1451 44.045C27.1011 44.0461 27.0574 44.0382 27.0166 44.0218C26.9758 44.0055 26.9388 43.981 26.9077 43.9499C26.8766 43.9188 26.8522 43.8818 26.8358 43.841C26.8195 43.8002 26.8116 43.7565 26.8126 43.7125C26.8159 43.6215 26.855 43.5354 26.9215 43.4731C26.988 43.4108 27.0765 43.3773 27.1676 43.38C27.2115 43.379 27.2552 43.3869 27.296 43.4033C27.3368 43.4196 27.3739 43.4441 27.405 43.4751C27.4361 43.5062 27.4605 43.5433 27.4769 43.5841C27.4932 43.6249 27.5011 43.6686 27.5001 43.7125Z" fill="#313131"/>
<path d="M31.1901 39.7231C31.1885 39.7684 31.1779 39.813 31.1591 39.8542C31.1403 39.8955 31.1135 39.9326 31.0803 39.9635C31.0471 39.9944 31.0081 40.0184 30.9656 40.0342C30.9231 40.05 30.8779 40.0573 30.8326 40.0556C30.7886 40.0566 30.7449 40.0487 30.7041 40.0324C30.6633 40.016 30.6263 39.9916 30.5952 39.9605C30.5641 39.9294 30.5397 39.8924 30.5233 39.8516C30.507 39.8108 30.4991 39.7671 30.5001 39.7231C30.5017 39.6778 30.5122 39.6332 30.5311 39.592C30.5499 39.5508 30.5767 39.5136 30.6099 39.4828C30.6431 39.4519 30.6821 39.4278 30.7246 39.412C30.7671 39.3962 30.8123 39.3889 30.8576 39.3906C30.9452 39.3925 31.0286 39.4282 31.0906 39.4901C31.1525 39.5521 31.1882 39.6355 31.1901 39.7231Z" fill="#313131"/>
<path d="M15.75 44.2506C15.7484 44.2959 15.7379 44.3404 15.719 44.3817C15.7002 44.4229 15.6734 44.4601 15.6402 44.4909C15.607 44.5218 15.568 44.5459 15.5255 44.5617C15.483 44.5775 15.4378 44.5847 15.3925 44.5831C15.3482 44.5848 15.3039 44.5774 15.2625 44.5614C15.2211 44.5453 15.1835 44.521 15.1518 44.4898C15.1202 44.4587 15.0953 44.4214 15.0787 44.3802C15.062 44.3391 15.054 44.295 15.055 44.2506C15.0583 44.1595 15.0974 44.0734 15.164 44.0111C15.2305 43.9488 15.3189 43.9154 15.41 43.9181C15.4546 43.916 15.4991 43.9231 15.5408 43.939C15.5825 43.9549 15.6205 43.9792 15.6524 44.0104C15.6842 44.0416 15.7094 44.079 15.7262 44.1203C15.743 44.1616 15.7511 44.206 15.75 44.2506Z" fill="#313131"/>
<path d="M11.0145 40.3882C11.0112 40.4792 10.9721 40.5653 10.9056 40.6276C10.8391 40.6899 10.7506 40.7234 10.6595 40.7207C10.6154 40.7217 10.5716 40.7138 10.5307 40.6975C10.4898 40.6811 10.4525 40.6567 10.4213 40.6257C10.39 40.5946 10.3653 40.5576 10.3487 40.5168C10.332 40.476 10.3238 40.4322 10.3245 40.3882C10.3261 40.3428 10.3366 40.2983 10.3555 40.257C10.3743 40.2158 10.4011 40.1787 10.4343 40.1478C10.4675 40.1169 10.5065 40.0929 10.549 40.0771C10.5915 40.0613 10.6367 40.054 10.682 40.0557C10.7259 40.0546 10.7696 40.0625 10.8104 40.0789C10.8513 40.0952 10.8883 40.1197 10.9194 40.1508C10.9505 40.1818 10.9749 40.2189 10.9913 40.2597C11.0076 40.3005 11.0155 40.3442 11.0145 40.3882Z" fill="#313131"/>
<path d="M10.4694 27.5799C10.4678 27.6252 10.4572 27.6697 10.4384 27.711C10.4196 27.7522 10.3928 27.7893 10.3596 27.8202C10.3264 27.8511 10.2874 27.8751 10.2449 27.8909C10.2024 27.9068 10.1572 27.914 10.1119 27.9124C10.0679 27.9134 10.0242 27.9055 9.98344 27.8891C9.94263 27.8728 9.90557 27.8483 9.87449 27.8173C9.84341 27.7862 9.81895 27.7491 9.8026 27.7083C9.78626 27.6675 9.77836 27.6238 9.77939 27.5799C9.77939 27.4884 9.81573 27.4006 9.88043 27.3359C9.94513 27.2712 10.0329 27.2349 10.1244 27.2349C10.2159 27.2349 10.3036 27.2712 10.3683 27.3359C10.433 27.4006 10.4694 27.4884 10.4694 27.5799Z" fill="#313131"/>
<path d="M14.4593 22.9996C14.4561 23.0907 14.4169 23.1768 14.3504 23.2391C14.2839 23.3014 14.1954 23.3348 14.1043 23.3321C14.0604 23.3332 14.0167 23.3253 13.9759 23.3089C13.9351 23.2926 13.898 23.2681 13.8669 23.237C13.8358 23.206 13.8114 23.1689 13.795 23.1281C13.7787 23.0873 13.7708 23.0436 13.7718 22.9996C13.7751 22.9086 13.8142 22.8225 13.8808 22.7602C13.9473 22.6979 14.0357 22.6644 14.1268 22.6671C14.1708 22.6661 14.2145 22.674 14.2553 22.6904C14.2961 22.7067 14.3331 22.7312 14.3642 22.7622C14.3953 22.7933 14.4198 22.8304 14.4361 22.8712C14.4524 22.912 14.4603 22.9557 14.4593 22.9996Z" fill="#313131"/>
<path d="M21.8737 33.3533C21.8737 34.4933 20.1387 34.6208 20.1387 33.3533C20.1387 33.1233 20.2301 32.9026 20.3928 32.7399C20.5554 32.5772 20.7761 32.4858 21.0062 32.4858C21.2362 32.4858 21.4569 32.5772 21.6196 32.7399C21.7823 32.9026 21.8737 33.1233 21.8737 33.3533Z" fill="#313131"/>
</svg>
