<svg width="50" height="50" viewBox="0 0 50 50" fill="none" xmlns="http://www.w3.org/2000/svg">
<path d="M44.5678 27.3649C44.6153 26.7224 44.1153 26.9374 44.0928 26.9374C46.2778 25.0349 48.6803 19.6624 44.9478 15.5299C42.9278 13.2949 39.1253 12.4999 39.1253 12.4999C39.1253 12.4999 39.1703 11.7499 38.9128 11.6199C38.7203 11.5274 38.2003 11.7874 38.2003 11.7874C38.1876 11.5734 38.1876 11.3589 38.2003 11.1449C38.9647 10.5715 39.5113 9.75512 39.7503 8.82991C39.7503 8.82991 40.8328 8.75741 40.8203 8.18741C40.8078 7.61741 39.9878 7.40491 39.5853 7.40491C39.4808 6.89252 39.4732 6.3651 39.5628 5.84991C39.5628 5.84991 37.4928 6.19241 37.6603 5.26491C37.6603 5.26491 35.3778 5.88241 35.8553 4.59991C35.8553 4.59991 35.2353 4.69491 35.0228 4.52991C35.0228 4.52991 33.6603 8.77991 34.4753 10.0424C34.6827 10.381 34.9677 10.6653 35.3068 10.8718C35.6459 11.0783 36.0293 11.201 36.4253 11.2299L36.3528 11.7999C36.1396 11.7882 35.926 11.7882 35.7128 11.7999C35.5453 11.8249 35.5703 12.4424 35.5703 12.4424C33.1928 12.2524 30.3853 14.1574 28.3453 12.0149C27.4653 11.0899 27.7278 8.16491 27.7278 8.16491L24.9478 8.37741C24.9478 8.37741 24.1853 12.6274 25.1603 15.1024C26.4653 18.4074 32.4103 17.6924 32.4103 17.6924L32.2928 27.3874C35.1903 28.6699 41.9153 27.7924 41.9153 27.7924L41.9878 28.6699C43.3428 29.8824 44.5903 28.6274 44.8378 27.8149C45.0853 27.0024 44.5678 27.3649 44.5678 27.3649ZM41.7878 25.7249L41.6203 18.6899C41.6203 18.6899 43.6053 19.4274 43.7128 20.9949C43.8628 23.2299 41.7878 25.7249 41.7878 25.7249Z" fill="white"/>
<path d="M40.3594 46.6598C40.3594 46.6598 40.5044 47.9423 40.6219 47.9898C40.7394 48.0373 46.4919 48.1323 46.5619 47.9423C46.6319 47.7523 43.8119 46.5648 43.5444 46.4698C43.5219 46.4698 41.3594 47.0623 40.3594 46.6598Z" fill="white"/>
<path d="M30.3107 48.2498C30.3107 48.6073 33.1857 48.3448 36.1807 47.9998C36.2857 47.5466 36.2857 47.0755 36.1807 46.6223C36.1807 46.6223 34.3507 47.0498 33.1382 46.4798C33.1157 46.4698 30.2857 48.0373 30.3107 48.2498Z" fill="white"/>
<path d="M38.3413 8.3072C38.3413 8.1872 38.1988 8.0697 38.0088 8.0697C37.8188 8.0697 37.6738 8.1647 37.6738 8.3072C37.6738 8.6247 38.3413 8.6247 38.3413 8.3072Z" fill="#FDAF31"/>
<path d="M35.0853 7.75002C35.0933 7.71422 35.0943 7.67717 35.0879 7.64102C35.0816 7.60487 35.0682 7.57034 35.0484 7.53941C35.0286 7.50849 35.0029 7.48179 34.9728 7.46087C34.9426 7.43994 34.9086 7.42521 34.8728 7.41752C34.7053 7.37002 34.5153 7.41752 34.4928 7.53502C34.4836 7.60972 34.4995 7.68535 34.538 7.75005C34.5764 7.81474 34.6353 7.86485 34.7053 7.89252C34.7746 7.92319 34.8533 7.92545 34.9243 7.89881C34.9954 7.87217 35.0531 7.81876 35.0853 7.75002Z" fill="#FDAF31"/>
<path d="M33.7805 26.5324L33.733 25.2024C33.7376 25.1741 33.7514 25.1481 33.7723 25.1285C33.7931 25.1088 33.8199 25.0967 33.8484 25.0938C33.8769 25.091 33.9056 25.0976 33.9299 25.1127C33.9543 25.1278 33.9729 25.1506 33.983 25.1774L34.0305 26.5099C34.088 26.6949 33.7805 26.6924 33.7805 26.5324ZM35.063 26.7474C35.0283 26.7502 34.9938 26.7391 34.9671 26.7167C34.9404 26.6942 34.9237 26.6621 34.9205 26.6274L34.873 25.2974C34.8776 25.2691 34.8914 25.2431 34.9123 25.2235C34.9331 25.2038 34.9599 25.1917 34.9884 25.1888C35.0169 25.186 35.0456 25.1926 35.0699 25.2077C35.0943 25.2228 35.1129 25.2456 35.123 25.2724L35.1705 26.6049C35.1742 26.6382 35.1652 26.6716 35.1453 26.6985C35.1253 26.7254 35.0959 26.7438 35.063 26.7499V26.7474ZM36.038 26.9124C36.0036 26.9152 35.9695 26.9045 35.9429 26.8825C35.9163 26.8606 35.8993 26.8292 35.8955 26.7949L35.823 25.2949C35.8202 25.2601 35.8313 25.2257 35.8537 25.199C35.8762 25.1723 35.9083 25.1556 35.943 25.1524C35.9774 25.1496 36.0115 25.1603 36.0381 25.1822C36.0647 25.2041 36.0817 25.2356 36.0855 25.2699L36.1555 26.7699C36.1583 26.8043 36.1476 26.8384 36.1257 26.865C36.1037 26.8916 36.0723 26.9086 36.038 26.9124ZM37.058 26.9599C37.0236 26.9627 36.9895 26.952 36.9629 26.93C36.9363 26.9081 36.9193 26.8767 36.9155 26.8424L36.8455 25.4399C36.8501 25.4116 36.8639 25.3856 36.8848 25.366C36.9056 25.3463 36.9324 25.3342 36.9609 25.3313C36.9894 25.3285 37.0181 25.3351 37.0424 25.3502C37.0668 25.3653 37.0854 25.3881 37.0955 25.4149L37.168 26.8174C37.2005 26.8899 37.1305 26.9374 37.058 26.9599ZM38.308 26.9599C38.2736 26.9627 38.2395 26.952 38.2129 26.93C38.1863 26.9081 38.1693 26.8767 38.1655 26.8424L38.0955 25.4399C38.1001 25.4116 38.1139 25.3856 38.1348 25.366C38.1556 25.3463 38.1824 25.3342 38.2109 25.3313C38.2394 25.3285 38.2681 25.3351 38.2924 25.3502C38.3168 25.3653 38.3354 25.3881 38.3455 25.4149L38.418 26.8174C38.4186 26.8487 38.4093 26.8793 38.3913 26.905C38.3733 26.9306 38.3476 26.9498 38.318 26.9599H38.308ZM39.473 26.9124C39.4386 26.9152 39.4045 26.9045 39.3779 26.8825C39.3513 26.8606 39.3343 26.8292 39.3305 26.7949L39.258 25.4399C39.2552 25.4051 39.2663 25.3707 39.2887 25.344C39.3112 25.3173 39.3433 25.3006 39.378 25.2974C39.4124 25.2946 39.4465 25.3053 39.4731 25.3272C39.4997 25.3491 39.5167 25.3806 39.5205 25.4149L39.5905 26.7699C39.5942 26.7864 39.5942 26.8036 39.5906 26.8202C39.5869 26.8367 39.5798 26.8523 39.5696 26.8659C39.5593 26.8794 39.5463 26.8906 39.5314 26.8986C39.5164 26.9066 39.4999 26.9113 39.483 26.9124H39.473ZM40.613 26.9124C40.5786 26.9152 40.5445 26.9045 40.5179 26.8825C40.4913 26.8606 40.4743 26.8292 40.4705 26.7949L40.398 25.5449C40.3959 25.5103 40.4072 25.4761 40.4295 25.4496C40.4518 25.4231 40.4835 25.4062 40.518 25.4024C40.5528 25.3996 40.5872 25.4106 40.6139 25.4331C40.6406 25.4556 40.6573 25.4876 40.6605 25.5224L40.733 26.7574C40.7362 26.7748 40.7359 26.7927 40.7321 26.81C40.7283 26.8273 40.721 26.8437 40.7108 26.8581C40.7005 26.8726 40.6875 26.8848 40.6724 26.8941C40.6573 26.9035 40.6405 26.9097 40.623 26.9124H40.613ZM41.863 18.8849C42.113 18.9799 43.5705 19.6649 43.5705 21.1849C43.5705 22.7549 42.428 24.6074 41.9305 25.3674C41.953 23.1349 41.9355 20.3599 41.863 18.8849ZM43.5705 27.4349C43.0463 26.9467 42.49 26.494 41.9055 26.0799C41.9091 26.0313 41.9014 25.9825 41.883 25.9374C41.883 25.9374 42.073 25.6874 42.2855 25.3674C42.548 25.5574 43.428 26.2724 44.093 26.8899C43.9255 27.0549 43.7505 27.2499 43.5705 27.4349ZM36.038 47.8699C35.4905 47.9649 31.498 48.2749 30.538 48.2499C30.8631 47.9982 31.2047 47.7685 31.5605 47.5624L31.893 47.8474C31.9071 47.8582 31.9232 47.8662 31.9404 47.8708C31.9576 47.8754 31.9756 47.8766 31.9932 47.8742C32.0108 47.8719 32.0279 47.8661 32.0433 47.8572C32.0587 47.8483 32.0722 47.8365 32.083 47.8224C32.0939 47.8083 32.1018 47.7921 32.1064 47.775C32.111 47.7578 32.1122 47.7398 32.1099 47.7222C32.1075 47.7046 32.1018 47.6875 32.0929 47.6721C32.084 47.6567 32.0721 47.6432 32.058 47.6324L31.808 47.4199C31.903 47.3724 31.998 47.2999 32.093 47.2524L32.4255 47.5374C32.4393 47.55 32.4555 47.5597 32.4732 47.5658C32.4908 47.5719 32.5096 47.5742 32.5282 47.5726C32.5468 47.5711 32.5649 47.5657 32.5814 47.5568C32.5978 47.5479 32.6122 47.5357 32.6236 47.5209C32.6351 47.5061 32.6434 47.4892 32.6479 47.471C32.6525 47.4529 32.6532 47.434 32.6501 47.4156C32.647 47.3972 32.6401 47.3796 32.6298 47.364C32.6196 47.3484 32.6062 47.3351 32.5905 47.3249L32.3405 47.1099C32.5979 46.9461 32.8679 46.8031 33.148 46.6824C34.078 47.102 35.1345 47.145 36.0955 46.8024C36.0947 47.159 36.0755 47.5153 36.038 47.8699ZM43.498 46.6199C43.713 46.6899 44.0205 46.8099 44.378 46.9524L44.2355 47.0474C44.093 47.1424 44.2355 47.3799 44.378 47.2974L44.6855 47.1074C44.7805 47.1549 44.8755 47.1774 44.9705 47.2249L44.7205 47.3674C44.6874 47.3863 44.6631 47.4176 44.653 47.4544C44.6429 47.4912 44.6479 47.5305 44.6668 47.5636C44.6857 47.5968 44.717 47.6211 44.7538 47.6311C44.7906 47.6412 44.8299 47.6363 44.863 47.6174L45.2905 47.3674C45.743 47.5824 46.1455 47.7949 46.383 47.9374C45.3555 48.0024 41.7405 48.0074 40.728 47.9149C40.6469 47.5864 40.5917 47.252 40.563 46.9149C41.552 46.9702 42.5435 46.8681 43.5005 46.6124L43.498 46.6199ZM41.573 8.14738C41.6205 8.09988 41.7155 8.12488 41.763 8.19488C41.763 8.19488 43.118 10.3349 43.118 10.3574C43.213 10.4999 42.9755 10.6424 42.8805 10.4999C42.8805 10.4999 41.5255 8.36238 41.5255 8.33738C41.5144 8.32167 41.5068 8.30378 41.5032 8.28489C41.4995 8.266 41.5 8.24656 41.5045 8.22786C41.509 8.20916 41.5174 8.19163 41.5292 8.17646C41.5411 8.16129 41.556 8.14881 41.573 8.13988V8.14738ZM41.0505 9.21738C41.0821 9.19736 41.1198 9.18962 41.1567 9.19561C41.1936 9.2016 41.2269 9.22091 41.2505 9.24988C41.2505 9.24988 42.1305 10.9124 42.1305 10.9374C42.2005 11.0799 41.963 11.2224 41.893 11.0549C41.893 11.0549 41.013 9.39238 41.013 9.36988C41.0048 9.35696 40.9993 9.34253 40.9967 9.32744C40.9942 9.31235 40.9946 9.2969 40.9981 9.282C41.0016 9.26709 41.0081 9.25304 41.0171 9.24066C41.0261 9.22827 41.0374 9.21781 41.0505 9.20988V9.21738ZM35.6105 3.24988C35.633 3.22738 37.493 1.04988 39.743 2.63238C39.883 2.73238 39.7205 2.96488 39.578 2.84738C39.2134 2.5491 38.77 2.36333 38.3016 2.31272C37.8333 2.26212 37.3604 2.34886 36.9405 2.56238C36.5106 2.77391 36.124 3.06388 35.8005 3.41738C35.7055 3.55488 35.5005 3.38738 35.6105 3.24988ZM39.578 4.22488V4.81988C39.5736 4.85157 39.5579 4.88061 39.5338 4.90163C39.5097 4.92264 39.4788 4.93422 39.4468 4.93422C39.4148 4.93422 39.3839 4.92264 39.3597 4.90163C39.3356 4.88061 39.3199 4.85157 39.3155 4.81988V4.21988C39.293 4.05488 39.578 4.02988 39.578 4.21988V4.22488ZM39.078 3.36988C39.0747 3.38768 39.0676 3.40456 39.0572 3.41935C39.0467 3.43413 39.0332 3.44647 39.0175 3.4555C39.0018 3.46454 38.9843 3.47005 38.9663 3.47167C38.9482 3.47329 38.9301 3.47097 38.913 3.46488C38.7303 3.42468 38.5403 3.43207 38.3613 3.48635C38.1822 3.54063 38.0201 3.63998 37.8905 3.77488C37.7461 3.91249 37.6253 4.07297 37.533 4.24988C37.5171 4.28137 37.4893 4.30526 37.4558 4.31627C37.4223 4.32729 37.3858 4.32454 37.3543 4.30863C37.3228 4.29272 37.2989 4.26494 37.2879 4.23142C37.2769 4.1979 37.2796 4.16137 37.2955 4.12988C37.2955 4.12988 37.8905 2.94238 38.983 3.17988C39.0201 3.19191 39.0509 3.21812 39.0687 3.25279C39.0865 3.28745 39.0898 3.32775 39.078 3.36488V3.36988ZM45.3755 15.8699C44.8305 15.1349 43.7355 14.0649 41.5255 13.1624C40.7841 12.8591 40.0222 12.6084 39.2455 12.4124C39.2455 12.0074 39.1505 11.6049 38.9955 11.5324C38.7778 11.5436 38.5625 11.584 38.3555 11.6524V11.1824C38.9041 10.8043 39.3327 10.2768 39.5905 9.66238C39.803 10.0649 40.383 11.1999 40.873 12.0374C41.4805 13.0774 42.0855 12.6549 42.2755 12.5599C42.9269 12.207 43.533 11.7764 44.0805 11.2774C44.788 10.6049 44.158 9.87238 43.868 9.39988C43.578 8.92738 41.618 6.11988 41.618 6.11988C41.618 6.11988 41.9255 4.24488 41.0705 2.84238C40.2155 1.43988 38.7705 1.24988 37.723 1.24988C36.6755 1.24988 33.973 2.12738 34.0405 3.52988C34.0323 3.78027 34.1106 4.02585 34.2622 4.22528C34.4139 4.42471 34.6296 4.56583 34.873 4.62488C34.588 5.71738 33.9405 8.44988 34.123 9.37488C34.2445 9.87416 34.5115 10.3261 34.8903 10.6733C35.2691 11.0205 35.7426 11.2473 36.2505 11.3249C36.2505 11.4449 36.228 11.5749 36.228 11.6349C36.0345 11.5729 35.8265 11.5729 35.633 11.6349C35.538 11.6824 35.443 11.9899 35.418 12.2999C32.848 12.2999 30.028 13.9649 28.3155 11.6349C27.598 10.6624 27.8855 8.28238 27.8855 8.23488C27.8924 8.21615 27.8949 8.19608 27.8928 8.17623C27.8907 8.15638 27.8841 8.13728 27.8734 8.12041C27.8628 8.10353 27.8484 8.08934 27.8313 8.07894C27.8143 8.06853 27.7951 8.06219 27.7752 8.0604C27.7553 8.05861 27.7353 8.06142 27.7167 8.06862C27.6981 8.07582 27.6814 8.08721 27.6678 8.1019C27.6543 8.1166 27.6444 8.13421 27.6388 8.15337C27.6332 8.17253 27.6321 8.19272 27.6355 8.21238C27.6105 8.30738 27.3455 10.7349 28.1105 11.7999C29.9005 14.2999 32.9955 12.5849 35.4055 12.5849C35.368 12.7849 35.3924 12.9916 35.4755 13.1774C35.668 13.4274 36.2255 13.6774 37.0455 13.7249C37.8655 13.7724 38.9755 13.6099 39.208 13.2724C39.2839 13.0758 39.3164 12.8652 39.303 12.6549C40.133 12.8699 43.628 13.8424 45.218 16.0049C47.7805 19.5049 47.183 23.2924 44.3405 26.6524C43.6505 26.0099 42.748 25.2974 42.5105 25.1074C42.653 24.8924 42.8005 24.6349 42.9605 24.3574C43.628 23.1574 43.9355 22.0749 43.9355 21.1949C43.9355 20.4449 43.3655 19.1524 41.868 18.6049C41.8455 18.1549 41.8455 17.8699 41.8455 17.8549C41.8456 17.8364 41.8418 17.818 41.8344 17.8011C41.827 17.7841 41.8161 17.7689 41.8024 17.7564C41.7887 17.744 41.7726 17.7345 41.755 17.7286C41.7375 17.7227 41.7189 17.7206 41.7005 17.7224C41.682 17.7241 41.6642 17.7297 41.648 17.7388C41.6319 17.7479 41.6179 17.7602 41.6068 17.7751C41.5957 17.7899 41.5879 17.8069 41.5838 17.825C41.5797 17.843 41.5794 17.8617 41.583 17.8799C41.583 17.9274 41.698 21.8799 41.698 25.0574C41.698 25.0574 33.363 24.7474 32.6005 24.6524V17.0524C32.5928 17.0252 32.5764 17.0013 32.5538 16.9843C32.5313 16.9673 32.5038 16.9581 32.4755 16.9581C32.4473 16.9581 32.4198 16.9673 32.3972 16.9843C32.3747 17.0013 32.3583 17.0252 32.3505 17.0524V17.5524C29.308 17.7199 27.048 17.0824 25.793 15.6999C24.243 13.9924 25.198 8.35738 25.198 8.28488C25.2205 8.11988 24.9605 8.07238 24.948 8.23738C24.9005 8.48738 23.983 14.0524 25.6155 15.8649C26.7855 17.1674 28.798 17.8374 31.483 17.8374C31.768 17.8374 32.053 17.8374 32.363 17.8149V26.7724C32.3634 26.8028 32.3726 26.8324 32.3895 26.8577C32.4063 26.883 32.4301 26.9028 32.458 26.9149C35.833 27.8174 41.108 27.2724 41.958 27.1524C41.9923 27.1486 42.0237 27.1316 42.0457 27.105C42.0676 27.0784 42.0783 27.0443 42.0755 27.0099C42.0755 26.8449 42.053 26.6299 42.053 26.4399C42.564 26.8007 43.0485 27.1976 43.503 27.6274C43.3975 27.7362 43.2865 27.8397 43.1705 27.9374C43.0505 28.0549 43.2405 28.2449 43.3605 28.1274C43.6455 27.8424 43.928 27.5549 44.1905 27.2724C44.498 26.9374 44.7605 27.0574 44.3805 27.4849C44.1915 27.6599 44.0097 27.8425 43.8355 28.0324C43.7155 28.1499 43.9055 28.3399 44.0255 28.2224L44.738 27.4849C44.948 27.2674 44.9005 27.5074 44.7605 27.7349C44.6205 27.9624 44.048 29.0324 43.2405 28.9849C43.0203 28.9731 42.8061 28.9085 42.616 28.7967C42.4259 28.6849 42.2654 28.5291 42.148 28.3424L42.0755 27.5924C42.0758 27.5745 42.0722 27.5568 42.0648 27.5406C42.0574 27.5243 42.0465 27.51 42.0328 27.4985C42.0192 27.487 42.0031 27.4787 41.9859 27.4741C41.9686 27.4696 41.9505 27.469 41.933 27.4724C37.5855 28.0674 33.403 27.4249 32.523 27.2824C32.5023 27.277 32.4805 27.2767 32.4596 27.2816C32.4388 27.2865 32.4194 27.2963 32.4031 27.3104C32.3869 27.3244 32.3743 27.3421 32.3665 27.3621C32.3586 27.382 32.3557 27.4036 32.358 27.4249L33.048 46.4599C32.8555 46.5549 32.548 46.7099 32.1905 46.9099L31.858 46.6249C31.7405 46.5074 31.5505 46.7199 31.693 46.8399L31.943 47.0774C31.848 47.1249 31.753 47.1949 31.658 47.2424L31.408 47.0299C31.3941 47.0189 31.3781 47.0107 31.361 47.0059C31.3439 47.0011 31.326 46.9997 31.3084 47.0018C31.2907 47.0039 31.2737 47.0094 31.2582 47.0181C31.2427 47.0268 31.229 47.0384 31.218 47.0524C31.207 47.0663 31.1989 47.0823 31.1941 47.0994C31.1892 47.1165 31.1878 47.1344 31.1899 47.152C31.192 47.1697 31.1976 47.1867 31.2062 47.2022C31.2149 47.2177 31.2266 47.2314 31.2405 47.2424L31.4305 47.4099C30.838 47.7899 30.2905 48.1599 30.2655 48.3349C30.1955 48.5974 30.623 48.5849 30.7655 48.5499C33.0005 48.4549 36.2655 48.2174 36.3505 48.1224C36.493 47.9549 37.0855 30.9424 37.0855 30.9174C37.0855 30.7274 37.543 30.7499 37.5855 30.9174C38.0055 32.5474 40.4605 48.1224 40.628 48.1674C41.148 48.3124 46.568 48.1899 46.758 48.1424C46.7758 48.1391 46.7927 48.132 46.8075 48.1215C46.8223 48.1111 46.8346 48.0975 46.8436 48.0818C46.8527 48.0661 46.8582 48.0487 46.8598 48.0306C46.8614 48.0126 46.8591 47.9944 46.853 47.9774C46.828 47.9049 46.8055 47.7624 45.6405 47.2274L45.7605 47.1549C45.792 47.136 45.8147 47.1054 45.8236 47.0697C45.8325 47.0341 45.8269 46.9964 45.808 46.9649C45.7891 46.9334 45.7585 46.9107 45.7229 46.9018C45.6872 46.8929 45.6495 46.8985 45.618 46.9174L45.3305 47.0849L45.0455 46.9424L45.308 46.7749C45.4505 46.6799 45.308 46.4424 45.1655 46.5249L44.738 46.7874C44.4287 46.6495 44.1115 46.5301 43.788 46.4299L42.1705 28.8949C42.474 29.1646 42.8601 29.3232 43.2655 29.3449C44.168 29.3449 44.808 28.2749 44.9755 27.9424C45.093 27.6924 45.2255 27.0399 44.738 27.2299C44.7855 26.9449 44.5705 26.8974 44.548 26.8974C46.163 24.9974 47.048 23.0499 47.113 21.0749C47.1414 19.1907 46.5288 17.3527 45.3755 15.8624V15.8699ZM36.203 13.0349C36.2065 13.0545 36.2054 13.0747 36.1997 13.0939C36.1941 13.113 36.1842 13.1307 36.1707 13.1454C36.1572 13.16 36.1405 13.1714 36.1219 13.1786C36.1032 13.1858 36.0832 13.1886 36.0633 13.1869C36.0434 13.1851 36.0242 13.1787 36.0072 13.1683C35.9902 13.1579 35.9758 13.1437 35.9651 13.1269C35.9544 13.11 35.9478 13.0909 35.9457 13.071C35.9436 13.0512 35.9461 13.0311 35.953 13.0124L36.0005 12.0849C35.9973 12.0652 35.9987 12.0451 36.0045 12.026C36.0104 12.007 36.0205 11.9895 36.0342 11.975C36.0478 11.9605 36.0646 11.9493 36.0833 11.9423C36.1019 11.9354 36.122 11.9328 36.1418 11.9347C36.1616 11.9367 36.1807 11.9432 36.1976 11.9538C36.2145 11.9643 36.2288 11.9786 36.2393 11.9955C36.2498 12.0125 36.2563 12.0316 36.2582 12.0514C36.2602 12.0712 36.2575 12.0912 36.2505 12.1099L36.203 13.0349ZM37.0105 13.1774C37.014 13.197 37.0129 13.2172 37.0072 13.2364C37.0016 13.2555 36.9917 13.2732 36.9782 13.2879C36.9647 13.3025 36.948 13.3139 36.9294 13.3211C36.9107 13.3283 36.8907 13.3311 36.8708 13.3294C36.8509 13.3276 36.8317 13.3212 36.8147 13.3108C36.7977 13.3004 36.7833 13.2862 36.7726 13.2694C36.7619 13.2525 36.7553 13.2334 36.7532 13.2135C36.7511 13.1937 36.7536 13.1736 36.7605 13.1549C36.7605 13.1549 36.808 12.1549 36.808 12.1324C36.8048 12.1127 36.8062 12.0926 36.812 12.0735C36.8179 12.0545 36.828 12.037 36.8417 12.0225C36.8553 12.008 36.8721 11.9968 36.8908 11.9898C36.9094 11.9829 36.9295 11.9803 36.9493 11.9822C36.9691 11.9842 36.9882 11.9907 37.0051 12.0013C37.022 12.0118 37.0363 12.0261 37.0468 12.043C37.0573 12.06 37.0638 12.0791 37.0657 12.0989C37.0677 12.1187 37.065 12.1387 37.058 12.1574C37.058 12.1799 37.0005 13.1774 37.0005 13.1774H37.0105ZM37.8905 13.1774C37.8861 13.2091 37.8704 13.2381 37.8463 13.2591C37.8222 13.2801 37.7913 13.2917 37.7593 13.2917C37.7273 13.2917 37.6964 13.2801 37.6722 13.2591C37.6481 13.2381 37.6324 13.2091 37.628 13.1774V12.1574C37.6324 12.1257 37.6481 12.0966 37.6722 12.0756C37.6964 12.0546 37.7273 12.043 37.7593 12.043C37.7913 12.043 37.8222 12.0546 37.8463 12.0756C37.8704 12.0966 37.8861 12.1257 37.8905 12.1574V13.1774ZM38.033 11.0874V11.6824C37.5071 11.7847 36.9664 11.7847 36.4405 11.6824C36.4405 11.6099 36.4655 11.4924 36.4655 11.3724C36.6229 11.3933 36.7818 11.4016 36.9405 11.3974C36.9722 11.393 37.0012 11.3773 37.0223 11.3532C37.0433 11.329 37.0549 11.2981 37.0549 11.2661C37.0549 11.2341 37.0433 11.2032 37.0223 11.1791C37.0012 11.155 36.9722 11.1393 36.9405 11.1349C35.658 11.1349 34.588 10.3849 34.3505 9.30488C34.1605 8.44988 34.8255 5.73988 35.0855 4.67238C35.2828 4.70117 35.4832 4.70117 35.6805 4.67238C35.2505 5.88238 37.5005 5.38488 37.5005 5.38488C37.4055 6.23988 39.283 6.04988 39.283 6.04988C39.033 7.73738 39.4955 7.49988 39.6155 7.52238C39.7355 7.54488 40.668 7.57238 40.5905 8.11738C40.523 8.56988 39.9005 8.56738 39.6855 8.54488C39.638 8.54488 39.5905 8.56738 39.5905 8.61488V8.63988C39.5016 8.95745 39.3879 9.26756 39.2505 9.56738C39.0151 10.1225 38.6178 10.5939 38.1105 10.9199C38.0805 10.9999 38.033 11.0399 38.033 11.0874ZM38.783 13.0349C38.7753 13.062 38.7589 13.0859 38.7363 13.103C38.7138 13.12 38.6863 13.1292 38.658 13.1292C38.6298 13.1292 38.6023 13.12 38.5797 13.103C38.5572 13.0859 38.5408 13.062 38.533 13.0349V12.1799C38.5408 12.1527 38.5572 12.1288 38.5797 12.1118C38.6023 12.0948 38.6298 12.0856 38.658 12.0856C38.6863 12.0856 38.7138 12.0948 38.7363 12.1118C38.7589 12.1288 38.7753 12.1527 38.783 12.1799V13.0349Z" fill="#414141"/>
<path d="M19.7813 3.31737C19.3789 3.27849 18.9737 3.27849 18.5713 3.31737C18.1663 3.35737 18.1663 3.93487 18.1438 4.26737C18.1213 4.59987 17.8938 7.64237 17.8563 8.26737C17.8188 8.89237 18.1663 8.98237 18.2863 9.01737C18.6576 9.04115 19.03 9.04115 19.4013 9.01737C19.6163 8.98987 19.8063 8.89737 19.8538 8.13737C19.9013 7.37737 20.1663 4.31237 20.2338 4.00237C20.3113 3.62737 20.1863 3.36487 19.7813 3.31737ZM19.4263 8.31737H18.4038C18.2388 8.29237 18.2388 8.03237 18.4288 8.06737C18.4288 8.06737 18.7613 8.09237 19.4488 8.06737C19.5913 8.02237 19.5913 8.30737 19.4263 8.30737V8.31737ZM19.4488 7.34237H18.4288C18.4017 7.33461 18.3778 7.31821 18.3608 7.29566C18.3437 7.27311 18.3345 7.24562 18.3345 7.21737C18.3345 7.18912 18.3437 7.16164 18.3608 7.13908C18.3778 7.11653 18.4017 7.10013 18.4288 7.09237H19.4488C19.6163 7.04737 19.6163 7.33237 19.4488 7.33237V7.34237ZM19.4488 6.43987H18.4988C18.4789 6.4469 18.4575 6.44903 18.4365 6.44609C18.4155 6.44315 18.3956 6.43523 18.3783 6.42299C18.361 6.41075 18.3469 6.39454 18.3372 6.37573C18.3275 6.35692 18.3224 6.33605 18.3224 6.31487C18.3224 6.29369 18.3275 6.27283 18.3372 6.25401C18.3469 6.2352 18.361 6.219 18.3783 6.20675C18.3956 6.19451 18.4155 6.18659 18.4365 6.18365C18.4575 6.18072 18.4789 6.18285 18.4988 6.18987H19.4488C19.4716 6.20055 19.4909 6.21751 19.5045 6.23877C19.518 6.26002 19.5251 6.28468 19.5251 6.30987C19.5251 6.33506 19.518 6.35973 19.5045 6.38098C19.4909 6.40223 19.4716 6.41919 19.4488 6.42987V6.43987ZM19.5213 5.58487C19.0688 5.53737 18.6188 5.53737 18.5938 5.53737C18.5621 5.53299 18.5331 5.51728 18.5121 5.49316C18.4911 5.46903 18.4795 5.43812 18.4795 5.40612C18.4795 5.37413 18.4911 5.34321 18.5121 5.31909C18.5331 5.29496 18.5621 5.27926 18.5938 5.27487C18.5938 5.27487 19.0688 5.27487 19.5213 5.32237C19.5412 5.31605 19.5623 5.31449 19.5828 5.31784C19.6034 5.32119 19.6229 5.32935 19.6397 5.34165C19.6566 5.35395 19.6703 5.37005 19.6797 5.38864C19.6891 5.40723 19.694 5.42778 19.694 5.44862C19.694 5.46947 19.6891 5.49002 19.6797 5.5086C19.6703 5.52719 19.6566 5.54329 19.6397 5.55559C19.6229 5.56789 19.6034 5.57605 19.5828 5.5794C19.5623 5.58275 19.5412 5.5812 19.5213 5.57487V5.58487ZM19.5213 4.53987H18.7138C18.6951 4.54247 18.676 4.54101 18.6578 4.5356C18.6397 4.5302 18.6229 4.52096 18.6086 4.50853C18.5944 4.49609 18.5829 4.48074 18.5751 4.4635C18.5672 4.44627 18.5632 4.42756 18.5632 4.40862C18.5632 4.38969 18.5672 4.37097 18.5751 4.35374C18.5829 4.33651 18.5944 4.32115 18.6086 4.30872C18.6229 4.29628 18.6397 4.28705 18.6578 4.28164C18.676 4.27623 18.6951 4.27478 18.7138 4.27737H19.5213C19.5412 4.27105 19.5623 4.26949 19.5828 4.27284C19.6034 4.27619 19.6229 4.28435 19.6397 4.29665C19.6566 4.30895 19.6703 4.32505 19.6797 4.34364C19.6891 4.36223 19.694 4.38278 19.694 4.40362C19.694 4.42447 19.6891 4.44502 19.6797 4.4636C19.6703 4.48219 19.6566 4.49829 19.6397 4.51059C19.6229 4.52289 19.6034 4.53105 19.5828 4.5344C19.5623 4.53775 19.5412 4.5362 19.5213 4.52987V4.53987Z" fill="#FDAF31"/>
<path d="M20.5005 4.69486C20.473 4.93236 20.2505 7.73736 20.2505 8.04486C20.2505 8.35236 20.203 8.70986 21.0355 8.66236C21.868 8.61486 30.9205 7.97486 31.3005 7.92736C31.6805 7.87986 32.0355 7.90236 32.2255 7.30986C32.342 6.9762 32.4339 6.63446 32.5005 6.28736C32.5255 6.11986 32.573 5.69236 31.978 5.62236C31.383 5.55236 21.8555 4.21986 21.3105 4.17236C20.7655 4.12486 20.563 4.07736 20.5005 4.69486Z" fill="#FDAF31"/>
<path d="M32.6142 7.9749C32.8031 8.00221 32.9934 8.01807 33.1842 8.0224C33.2567 8.0224 33.4342 8.0699 33.5642 7.5699C33.6567 7.1899 33.8267 6.4774 33.8492 6.3199C33.8717 6.1624 33.8967 5.8899 33.6592 5.8424C33.4217 5.7949 33.2567 5.7949 33.1592 5.7724C33.0617 5.7499 32.8467 5.8199 32.7542 6.2474C32.6617 6.6749 32.4917 7.3399 32.4442 7.5549C32.4467 7.7499 32.3992 7.9299 32.6142 7.9749Z" fill="#FDAF31"/>
<path d="M35.7046 8.13989C35.6796 8.06989 35.5171 7.85239 36.6071 6.11989C36.6282 6.09268 36.6586 6.07419 36.6925 6.06798C36.7263 6.06176 36.7613 6.06824 36.7907 6.08618C36.8201 6.10413 36.8418 6.13227 36.8518 6.16524C36.8617 6.19821 36.8592 6.23369 36.8446 6.26489C36.5109 6.82183 36.2168 7.4016 35.9646 7.99989C36.1621 8.02546 36.3621 8.02546 36.5596 7.99989C36.7246 7.99989 36.7496 8.26239 36.5821 8.26239C36.4146 8.26239 35.7721 8.33239 35.7046 8.13989Z" fill="#414141"/>
<path d="M38.2689 7.215C37.9614 6.835 37.4614 7.025 37.4364 7.025C37.2714 7.095 37.1864 6.835 37.3414 6.7625C37.3664 6.7625 38.0314 6.5125 38.4839 7.025C38.5589 7.175 38.3389 7.3525 38.2689 7.215Z" fill="#414141"/>
<path d="M39.7887 8.24983C39.6462 8.24983 39.5987 8.05983 39.7187 8.01233C39.8243 7.95913 39.9359 7.91884 40.0512 7.89233C40.2162 7.89233 40.2412 8.14233 40.0737 8.14233C40.0231 8.14664 39.9742 8.16292 39.9312 8.18983C39.8837 8.21233 39.8362 8.24983 39.7887 8.24983Z" fill="#414141"/>
<path d="M35.8217 8.97233C35.8004 8.94642 35.7895 8.91353 35.7912 8.88006C35.7928 8.84659 35.8069 8.81492 35.8306 8.79122C35.8543 8.76753 35.8859 8.75349 35.9194 8.75185C35.9529 8.7502 35.9858 8.76107 36.0117 8.78233C36.1642 8.93164 36.3682 9.01666 36.5817 9.01983C36.6922 9.00968 36.799 8.97446 36.8938 8.91684C36.9887 8.85922 37.0692 8.78073 37.1292 8.68733C37.1767 8.63983 37.2717 8.61483 37.3192 8.66233C37.3451 8.68657 37.3616 8.71921 37.3657 8.75446C37.3698 8.7897 37.3613 8.82527 37.3417 8.85483C36.8867 9.44483 36.2692 9.41983 35.8217 8.97233Z" fill="#414141"/>
<path d="M35.3669 6.72143C35.4006 6.7286 35.4359 6.72665 35.4708 6.7157C35.5057 6.70474 35.5395 6.685 35.5702 6.65759C35.601 6.63018 35.6281 6.59564 35.65 6.55595C35.6719 6.51626 35.6882 6.47219 35.6979 6.42626C35.7077 6.38033 35.7107 6.33344 35.7068 6.28827C35.7029 6.24309 35.6922 6.20051 35.6752 6.16297C35.6583 6.12542 35.6354 6.09364 35.608 6.06944C35.5806 6.04525 35.5491 6.0291 35.5154 6.02193C35.4473 6.00746 35.3742 6.03043 35.3121 6.08578C35.25 6.14114 35.204 6.22435 35.1843 6.31711C35.1647 6.40987 35.1728 6.50458 35.2071 6.5804C35.2413 6.65623 35.2988 6.70696 35.3669 6.72143Z" fill="#414141"/>
<path d="M28.5517 5.16987C28.5141 4.95182 28.3945 4.75644 28.2173 4.62391C28.0402 4.49138 27.8189 4.43178 27.5992 4.45737C27.5992 4.45737 27.4817 4.02987 26.8492 4.26737C26.8492 4.26737 26.7067 3.83987 26.0192 4.14987C26.0192 4.14987 25.4567 3.74737 25.0667 4.57737C24.4867 5.82737 25.2567 5.54987 25.3167 5.38487C25.3167 5.38487 25.2917 6.04987 25.5667 6.07237C25.8417 6.09487 25.9467 5.69237 25.9467 5.69237C25.9467 5.69237 25.9217 6.02737 26.1117 6.07237C26.3017 6.11737 26.4917 5.85987 26.5167 5.76487C26.5167 5.76487 26.4442 6.05237 26.6117 6.07237C26.7792 6.09237 27.5842 5.05237 27.7742 5.07237C27.9642 5.09237 28.5517 5.16987 28.5517 5.16987Z" fill="white"/>
<path d="M28.6688 4.99974C28.6153 4.77632 28.4816 4.58033 28.2931 4.44899C28.1046 4.31764 27.8745 4.26008 27.6463 4.28724C27.576 4.18076 27.4738 4.09925 27.3544 4.05435C27.235 4.00944 27.1044 4.00346 26.9813 4.03724C26.864 3.93902 26.7203 3.87761 26.5682 3.86071C26.4161 3.84381 26.2624 3.87217 26.1263 3.94224C25.9382 3.86893 25.7303 3.86434 25.5391 3.92927C25.348 3.99421 25.1859 4.12452 25.0813 4.29724C24.8663 4.58224 24.6963 5.20224 24.8313 5.46224C24.8788 5.55724 25.0213 5.69974 25.3063 5.55724C25.3788 6.36474 25.8313 6.12724 25.9488 5.98474C25.9731 6.03091 26.0085 6.07027 26.0519 6.09924C26.0953 6.1282 26.1452 6.14585 26.1972 6.15057C26.2491 6.1553 26.3014 6.14694 26.3493 6.12627C26.3972 6.1056 26.4391 6.07327 26.4713 6.03224C26.5297 6.0919 26.6046 6.13281 26.6863 6.14974C26.8288 6.12724 26.9938 6.05474 27.4688 5.43724C27.5638 5.29474 27.3713 5.12724 27.2563 5.27224C27.0948 5.49724 26.8931 5.69048 26.6613 5.84224C26.6613 5.51224 27.1738 4.59224 27.6838 4.53474C27.8483 4.51214 28.0154 4.55051 28.1536 4.64261C28.2917 4.73472 28.3914 4.8742 28.4338 5.03474C28.4269 5.05619 28.4256 5.07904 28.43 5.10114C28.4344 5.12324 28.4444 5.14385 28.459 5.16103C28.4735 5.1782 28.4923 5.19138 28.5134 5.19931C28.5344 5.20723 28.5572 5.20965 28.5795 5.20633C28.6018 5.20301 28.6229 5.19407 28.6407 5.18034C28.6586 5.16661 28.6727 5.14855 28.6816 5.12787C28.6905 5.10719 28.6941 5.08457 28.6918 5.06215C28.6896 5.03973 28.6817 5.01825 28.6688 4.99974ZM24.9988 5.31224C25.003 5.02467 25.0898 4.74437 25.2488 4.50474C25.3074 4.41204 25.3881 4.33539 25.4837 4.2817C25.5793 4.22801 25.6867 4.19899 25.7963 4.19724C25.5367 4.48319 25.3633 4.83684 25.2963 5.21724C25.1988 5.47974 25.0338 5.40724 24.9988 5.31224ZM25.5238 5.71724C25.535 5.2225 25.711 4.74564 26.0238 4.36224C26.4038 3.98224 26.6663 4.17224 26.6413 4.19724C26.4266 4.33375 26.2435 4.51454 26.1042 4.72753C25.9649 4.94051 25.8728 5.18077 25.8338 5.43224C25.7488 5.92974 25.5338 5.95474 25.5338 5.71724H25.5238ZM26.4263 5.57474C26.3538 5.85974 25.9263 6.21974 26.1163 5.50224C26.2058 5.07306 26.4517 4.69253 26.8063 4.43474C26.8789 4.36726 26.9719 4.32595 27.0707 4.31735C27.1694 4.30874 27.2682 4.33334 27.3513 4.38724C27.1279 4.51491 26.932 4.68559 26.775 4.88942C26.6179 5.09324 26.5028 5.32617 26.4363 5.57474H26.4263Z" fill="#414141"/>
<path d="M27.8377 7.00002C27.6952 6.97752 27.4102 7.71252 27.4102 7.92752C27.4102 8.14252 27.5302 8.30752 27.7427 8.23502C27.9552 8.16252 28.3377 7.07752 27.8377 7.00002Z" fill="white"/>
<path d="M27.5517 8.3773C27.3392 8.3548 27.2442 8.0448 27.3017 7.7848C27.3017 7.7373 27.5142 6.8348 27.8717 6.8823C27.979 6.91871 28.0684 6.99471 28.1217 7.0948C28.1917 7.2373 28.2767 7.5423 28.0267 8.0698C27.9042 8.3298 27.7667 8.4023 27.5517 8.3773ZM27.5517 7.8323C27.5378 7.882 27.5371 7.93447 27.5499 7.98448C27.5626 8.03449 27.5882 8.08029 27.6242 8.1173C27.6467 8.1173 27.7167 8.0923 27.7892 7.9273C27.9417 7.5873 27.9767 7.2823 27.8367 7.1423C27.6914 7.34818 27.594 7.58393 27.5517 7.8323Z" fill="#414141"/>
<path d="M5.52539 33.1148C5.52539 35.1214 5.91571 37.1084 6.67405 38.9622C7.43239 40.8161 8.54391 42.5006 9.94515 43.9194C11.3464 45.3383 13.0099 46.4638 14.8407 47.2317C16.6715 47.9996 18.6337 48.3948 20.6154 48.3948C22.597 48.3948 24.5593 47.9996 26.3901 47.2317C28.2209 46.4638 29.8844 45.3383 31.2856 43.9194C32.6869 42.5006 33.7984 40.8161 34.5567 38.9622C35.3151 37.1084 35.7054 35.1214 35.7054 33.1148C35.7054 29.0623 34.1156 25.1758 31.2856 22.3102C28.4557 19.4447 24.6175 17.8348 20.6154 17.8348C16.6133 17.8348 12.7751 19.4447 9.94515 22.3102C7.11523 25.1758 5.52539 29.0623 5.52539 33.1148Z" fill="#87E4FF"/>
<path d="M4.85961 33.1149C5.13961 23.8949 12.0121 18.1149 19.6871 17.4074C10.9996 16.4999 2.91211 24.0499 2.91211 33.1149C2.91211 42.3249 9.86711 49.5924 18.5471 48.6774C10.8721 47.9999 4.61961 41.0749 4.85961 33.1149ZM10.6596 19.8074C10.6828 19.7807 10.7152 19.7637 10.7503 19.7595C10.7854 19.7554 10.8208 19.7644 10.8496 19.7849L11.2996 20.1399C11.4421 20.2349 11.2771 20.4724 11.1346 20.3549L10.6821 19.9999C10.6668 19.9896 10.6539 19.9762 10.6443 19.9605C10.6347 19.9447 10.6287 19.9271 10.6265 19.9088C10.6244 19.8905 10.6262 19.872 10.6319 19.8545C10.6377 19.837 10.6471 19.8209 10.6596 19.8074ZM9.37461 20.6874C9.42211 20.6399 9.49461 20.5924 9.56461 20.6399C9.56461 20.6399 10.0871 20.9949 10.1121 20.9949C10.1396 21.0089 10.1613 21.032 10.1736 21.0603C10.1858 21.0886 10.1878 21.1203 10.1793 21.1499C10.1707 21.1795 10.152 21.2052 10.1265 21.2225C10.101 21.2399 10.0703 21.2478 10.0396 21.2449C9.82118 21.1399 9.61423 21.0126 9.42211 20.8649C9.35211 20.8299 9.35211 20.7349 9.37461 20.6874ZM8.30711 21.5899C8.31612 21.5739 8.32829 21.56 8.34287 21.5489C8.35745 21.5378 8.37413 21.5298 8.39191 21.5253C8.40968 21.5209 8.42818 21.5201 8.44626 21.523C8.46435 21.526 8.48165 21.5326 8.49711 21.5424C8.49711 21.5424 9.06711 21.8999 9.08961 21.8999C9.23211 21.9949 9.08961 22.2074 8.94711 22.1499L8.35461 21.7924C8.32253 21.7709 8.2998 21.7381 8.29098 21.7005C8.28217 21.6629 8.28793 21.6234 8.30711 21.5899ZM7.06961 22.9449C7.06961 22.9449 7.87711 23.2999 7.90211 23.2999C8.06961 23.3724 7.94961 23.6099 7.80711 23.5499C7.80711 23.5499 6.99961 23.1949 6.97461 23.1949C6.80211 23.1399 6.92711 22.8499 7.06961 22.9449ZM5.78711 24.5849C5.79032 24.5668 5.79749 24.5496 5.80811 24.5346C5.81872 24.5196 5.83252 24.5071 5.84852 24.498C5.86452 24.4889 5.88232 24.4835 5.90066 24.4821C5.919 24.4807 5.93742 24.4834 5.95461 24.4899L6.80961 24.7399C6.83479 24.7554 6.85419 24.7787 6.86485 24.8063C6.8755 24.8338 6.87681 24.8641 6.86858 24.8925C6.86035 24.9209 6.84303 24.9458 6.81928 24.9634C6.79553 24.981 6.76666 24.9903 6.73711 24.9899L5.88211 24.7399C5.85242 24.7268 5.82743 24.7049 5.81046 24.6772C5.79349 24.6495 5.78535 24.6173 5.78711 24.5849ZM4.99961 26.1274C5.00358 26.1097 5.01121 26.093 5.02201 26.0785C5.03281 26.0639 5.04654 26.0517 5.06232 26.0428C5.07809 26.0338 5.09557 26.0283 5.11361 26.0265C5.13166 26.0247 5.14988 26.0267 5.16711 26.0324L5.95211 26.2949C5.9762 26.309 5.99534 26.3301 6.0069 26.3555C6.01846 26.3809 6.02187 26.4093 6.01666 26.4367C6.01145 26.4641 5.99788 26.4892 5.97782 26.5086C5.95775 26.528 5.93218 26.5406 5.90461 26.5449C5.83461 26.5449 5.94211 26.5724 5.07211 26.2949C4.99961 26.2724 4.99961 26.1749 4.99961 26.1274ZM4.24961 27.8624C4.2534 27.8281 4.2704 27.7967 4.29701 27.7747C4.32362 27.7528 4.35774 27.7421 4.39211 27.7449L5.36711 27.9349C5.39243 27.9463 5.41352 27.9654 5.42741 27.9894C5.44131 28.0135 5.44729 28.0413 5.44453 28.0689C5.44177 28.0965 5.43039 28.1226 5.41202 28.1434C5.39364 28.1642 5.36918 28.1787 5.34211 28.1849C5.30961 28.1849 5.42461 28.2074 4.34211 27.9949C4.32674 27.9936 4.31183 27.989 4.29846 27.9813C4.28509 27.9736 4.27358 27.963 4.26475 27.9504C4.25592 27.9377 4.24998 27.9233 4.24737 27.9081C4.24475 27.8929 4.24552 27.8773 4.24961 27.8624ZM3.67961 29.6124C3.6834 29.5779 3.70031 29.5462 3.72684 29.5239C3.75338 29.5015 3.78749 29.4903 3.82211 29.4924L4.86711 29.6124C4.89392 29.6223 4.91672 29.6407 4.93199 29.6649C4.94726 29.689 4.95415 29.7176 4.95158 29.746C4.94902 29.7745 4.93716 29.8013 4.91782 29.8223C4.89848 29.8434 4.87275 29.8574 4.84461 29.8624H4.81961L3.77461 29.7449C3.69711 29.7649 3.67211 29.6699 3.67211 29.6224L3.67961 29.6124ZM3.46711 31.4424H4.43961C4.46677 31.4502 4.49067 31.4666 4.50769 31.4891C4.5247 31.5117 4.5339 31.5391 4.5339 31.5674C4.5339 31.5956 4.5247 31.6231 4.50769 31.6457C4.49067 31.6682 4.46677 31.6846 4.43961 31.6924H3.45961C3.43592 31.6825 3.41568 31.6659 3.40144 31.6445C3.38721 31.6232 3.37961 31.5981 3.37961 31.5724C3.37961 31.5467 3.38721 31.5216 3.40144 31.5003C3.41568 31.4789 3.43592 31.4623 3.45961 31.4524L3.46711 31.4424ZM4.39211 33.5549C3.39211 33.6874 3.49961 33.6749 3.46711 33.6749C3.29961 33.6749 3.27711 33.4124 3.44211 33.4124L4.34461 33.2949C4.52711 33.2799 4.55211 33.5649 4.38461 33.5649L4.39211 33.5549ZM3.32461 35.5049C3.3218 35.4705 3.3325 35.4364 3.35444 35.4098C3.37638 35.3832 3.40783 35.3662 3.44211 35.3624C3.51461 35.3624 3.98961 35.2674 4.39211 35.1724C4.55961 35.1474 4.62961 35.4224 4.43961 35.4224C4.18961 35.4699 3.51461 35.6124 3.41961 35.6124C3.36461 35.6574 3.33961 35.5849 3.31711 35.5149L3.32461 35.5049ZM3.96461 37.4049C3.82211 37.4049 3.77461 37.1674 3.94211 37.1549L4.84461 36.9049C4.87395 36.905 4.90244 36.9148 4.92576 36.9325C4.94909 36.9503 4.96599 36.9752 4.9739 37.0035C4.98181 37.0317 4.9803 37.0618 4.96961 37.0891C4.95891 37.1164 4.9396 37.1395 4.91461 37.1549C3.90711 37.4524 4.02461 37.4149 3.95711 37.4149L3.96461 37.4049ZM4.67711 39.5674C4.65037 39.5619 4.62586 39.5487 4.6067 39.5292C4.58753 39.5098 4.57458 39.4851 4.56949 39.4583C4.56439 39.4315 4.56739 39.4038 4.5781 39.3787C4.5888 39.3536 4.60674 39.3323 4.62961 39.3174L5.46211 38.9599C5.4777 38.952 5.4947 38.9473 5.51212 38.946C5.52954 38.9447 5.54705 38.9468 5.56365 38.9522C5.58025 38.9577 5.59561 38.9664 5.60886 38.9778C5.62211 38.9892 5.63298 39.003 5.64086 39.0186C5.64874 39.0342 5.65347 39.0512 5.65478 39.0687C5.65609 39.0861 5.65396 39.1036 5.6485 39.1202C5.64305 39.1368 5.63438 39.1521 5.62299 39.1654C5.61159 39.1786 5.5977 39.1895 5.58211 39.1974C4.69711 39.5724 4.69461 39.5774 4.66961 39.5774L4.67711 39.5674ZM6.36461 40.9699L5.58211 41.3974C5.43711 41.4924 5.29461 41.2549 5.43711 41.1599L6.21461 40.7499C6.35711 40.6699 6.49961 40.9074 6.35711 40.9799L6.36461 40.9699ZM7.52961 42.8949L6.86461 43.2974C6.72211 43.3924 6.57961 43.1549 6.72211 43.0599C6.72211 43.0599 7.36211 42.6574 7.38711 42.6574C7.52211 42.5724 7.66461 42.8099 7.52211 42.9049L7.52961 42.8949ZM8.62211 44.2974L8.17211 44.6524C8.02961 44.7474 7.86211 44.5349 8.00461 44.4399L8.45711 44.0824C8.47188 44.0721 8.48855 44.0647 8.50616 44.0608C8.52376 44.0569 8.54197 44.0565 8.55972 44.0597C8.57748 44.0628 8.59445 44.0694 8.60966 44.0791C8.62487 44.0888 8.63802 44.1014 8.64836 44.1161C8.6587 44.1309 8.66603 44.1476 8.66993 44.1652C8.67383 44.1828 8.67423 44.201 8.67109 44.2188C8.66796 44.2365 8.66136 44.2535 8.65167 44.2687C8.64198 44.2839 8.62938 44.2971 8.61461 44.3074L8.62211 44.2974ZM12.4471 47.3849C12.5162 47.2938 12.5796 47.1987 12.6371 47.0999C12.7321 46.9574 12.9721 47.0999 12.8521 47.2424C12.7836 47.3339 12.7202 47.429 12.6621 47.5274C12.5821 47.6799 12.3446 47.5374 12.4396 47.3949L12.4471 47.3849ZM11.1421 46.6349L11.3321 46.3974C11.4271 46.2549 11.6646 46.4224 11.5446 46.5649L11.3546 46.8149C11.2496 46.9199 11.0396 46.7499 11.1346 46.6349H11.1421ZM9.69211 45.7324L10.0471 45.4474C10.0611 45.4364 10.077 45.4283 10.0941 45.4234C10.1112 45.4186 10.1291 45.4172 10.1468 45.4193C10.1644 45.4214 10.1815 45.4269 10.197 45.4356C10.2125 45.4443 10.2261 45.4559 10.2371 45.4699C10.2481 45.4839 10.2563 45.4998 10.2611 45.5169C10.2659 45.534 10.2673 45.5519 10.2652 45.5696C10.2631 45.5872 10.2576 45.6043 10.2489 45.6198C10.2402 45.6353 10.2286 45.6489 10.2146 45.6599L9.85711 45.9449C9.73211 46.0399 9.54211 45.8274 9.68461 45.7324H9.69211Z" fill="#016DAB"/>
<path d="M25.7253 33.5422L20.9753 33.3522C20.9221 33.3537 20.8702 33.3349 20.8303 33.2997C20.7904 33.2644 20.7654 33.2152 20.7603 33.1622C20.7603 33.1622 19.0703 23.3247 19.0703 23.2997C19.0777 23.2461 19.1023 23.1963 19.1403 23.1578C19.1784 23.1194 19.228 23.0943 19.2815 23.0864C19.3351 23.0785 19.3898 23.0882 19.4373 23.1141C19.4849 23.1399 19.5228 23.1805 19.5453 23.2297L21.2103 32.8997L25.7728 33.0672C26.0328 33.0672 26.0328 33.5422 25.7253 33.5422Z" fill="white"/>
<path d="M21.5 21.3524C21.4661 21.357 21.4316 21.3536 21.3992 21.3427C21.3668 21.3317 21.3374 21.3134 21.3132 21.2892C21.289 21.265 21.2707 21.2356 21.2598 21.2032C21.2488 21.1708 21.2455 21.1363 21.25 21.1024V19.0474C21.25 18.7624 21.725 18.7374 21.725 19.0474V21.1149C21.7271 21.1456 21.7228 21.1764 21.7124 21.2053C21.702 21.2342 21.6857 21.2607 21.6645 21.283C21.6434 21.3053 21.6179 21.323 21.5895 21.3349C21.5612 21.3469 21.5307 21.3529 21.5 21.3524Z" fill="#016DAB"/>
<path d="M33.8755 33.3749H31.213C31.1629 33.3585 31.1194 33.3267 31.0885 33.284C31.0576 33.2414 31.041 33.1901 31.041 33.1374C31.041 33.0848 31.0576 33.0334 31.0885 32.9908C31.1194 32.9482 31.1629 32.9163 31.213 32.8999H33.8755C34.1605 32.8999 34.183 33.3749 33.8755 33.3749Z" fill="#016DAB"/>
<path d="M9.77885 33.0675H7.42635C7.14135 33.0675 7.11635 32.5925 7.42635 32.5925H9.77885C10.0638 32.5925 10.0863 33.0675 9.77885 33.0675Z" fill="#016DAB"/>
<path d="M21.067 46.6823C21.0343 46.6864 21.001 46.6833 20.9697 46.673C20.9383 46.6627 20.9096 46.6456 20.8857 46.6229C20.8617 46.6001 20.8432 46.5723 20.8313 46.5415C20.8194 46.5107 20.8145 46.4777 20.817 46.4448V44.1948C20.8335 44.1447 20.8653 44.1012 20.9079 44.0703C20.9506 44.0394 21.0019 44.0228 21.0545 44.0228C21.1072 44.0228 21.1585 44.0394 21.2011 44.0703C21.2438 44.1012 21.2756 44.1447 21.292 44.1948V46.4448C21.2941 46.4754 21.2898 46.5062 21.2794 46.5351C21.269 46.564 21.2527 46.5905 21.2316 46.6128C21.2104 46.6351 21.1849 46.6528 21.1566 46.6648C21.1283 46.6767 21.0978 46.6827 21.067 46.6823Z" fill="#016DAB"/>
<path d="M27.5768 22.1123C27.5752 22.1576 27.5647 22.2021 27.5458 22.2434C27.527 22.2846 27.5002 22.3217 27.467 22.3526C27.4338 22.3835 27.3948 22.4075 27.3523 22.4233C27.3098 22.4391 27.2646 22.4464 27.2193 22.4448C27.1754 22.4458 27.1317 22.4379 27.0909 22.4215C27.0501 22.4052 27.013 22.3807 26.9819 22.3496C26.9508 22.3186 26.9264 22.2815 26.91 22.2407C26.8937 22.1999 26.8858 22.1562 26.8868 22.1123C26.8884 22.0665 26.8991 22.0215 26.9183 21.9799C26.9374 21.9384 26.9647 21.901 26.9984 21.8701C27.0321 21.8391 27.0717 21.8152 27.1148 21.7997C27.1579 21.7842 27.2036 21.7774 27.2493 21.7798C27.2928 21.7794 27.336 21.7878 27.3762 21.8045C27.4164 21.8211 27.4529 21.8457 27.4834 21.8767C27.514 21.9077 27.538 21.9445 27.554 21.985C27.5701 22.0255 27.5778 22.0687 27.5768 22.1123Z" fill="#016DAB"/>
<path d="M31.6388 27.1273C31.6355 27.2184 31.5963 27.3045 31.5298 27.3668C31.4633 27.4291 31.3749 27.4625 31.2838 27.4598C31.2398 27.4609 31.1961 27.453 31.1553 27.4366C31.1145 27.4203 31.0774 27.3958 31.0464 27.3647C31.0153 27.3336 30.9908 27.2966 30.9745 27.2558C30.9581 27.215 30.9502 27.1713 30.9513 27.1273C30.9545 27.0363 30.9937 26.9502 31.0602 26.8879C31.1267 26.8256 31.2152 26.7921 31.3063 26.7948C31.3938 26.7967 31.4773 26.8324 31.5393 26.8943C31.6012 26.9563 31.6368 27.0397 31.6388 27.1273Z" fill="#016DAB"/>
<path d="M27.5001 43.2122C27.4968 43.3032 27.4577 43.3893 27.3912 43.4516C27.3246 43.5139 27.2362 43.5474 27.1451 43.5447C27.1011 43.5457 27.0574 43.5378 27.0166 43.5214C26.9758 43.5051 26.9388 43.4806 26.9077 43.4496C26.8766 43.4185 26.8522 43.3814 26.8358 43.3406C26.8195 43.2998 26.8116 43.2561 26.8126 43.2122C26.8159 43.1211 26.855 43.035 26.9215 42.9727C26.988 42.9104 27.0765 42.877 27.1676 42.8797C27.2115 42.8786 27.2552 42.8865 27.296 42.9029C27.3368 42.9192 27.3739 42.9437 27.405 42.9748C27.4361 43.0059 27.4605 43.0429 27.4769 43.0837C27.4932 43.1245 27.5011 43.1682 27.5001 43.2122Z" fill="#016DAB"/>
<path d="M31.1901 39.2225C31.1885 39.2678 31.1779 39.3124 31.1591 39.3536C31.1403 39.3949 31.1135 39.432 31.0803 39.4629C31.0471 39.4937 31.0081 39.5178 30.9656 39.5336C30.9231 39.5494 30.8779 39.5567 30.8326 39.555C30.7886 39.556 30.7449 39.5481 30.7041 39.5318C30.6633 39.5154 30.6263 39.491 30.5952 39.4599C30.5641 39.4288 30.5397 39.3918 30.5233 39.351C30.507 39.3101 30.4991 39.2665 30.5001 39.2225C30.5017 39.1772 30.5122 39.1326 30.5311 39.0914C30.5499 39.0502 30.5767 39.013 30.6099 38.9821C30.6431 38.9513 30.6821 38.9272 30.7246 38.9114C30.7671 38.8956 30.8123 38.8883 30.8576 38.89C30.9452 38.8919 31.0286 38.9276 31.0906 38.9895C31.1525 39.0515 31.1882 39.1349 31.1901 39.2225Z" fill="#016DAB"/>
<path d="M15.7498 43.75C15.7482 43.7953 15.7376 43.8398 15.7188 43.8811C15.6999 43.9223 15.6732 43.9594 15.64 43.9903C15.6068 44.0212 15.5678 44.0452 15.5253 44.0611C15.4828 44.0769 15.4376 44.0841 15.3923 44.0825C15.3479 44.0842 15.3037 44.0768 15.2623 44.0608C15.2209 44.0447 15.1832 44.0204 15.1516 43.9892C15.12 43.9581 15.0951 43.9208 15.0784 43.8796C15.0618 43.8385 15.0537 43.7943 15.0548 43.75C15.058 43.6589 15.0972 43.5728 15.1637 43.5105C15.2302 43.4482 15.3187 43.4148 15.4098 43.4175C15.4543 43.4154 15.4989 43.4225 15.5405 43.4384C15.5822 43.4543 15.6202 43.4786 15.6521 43.5098C15.684 43.5409 15.7091 43.5784 15.7259 43.6197C15.7427 43.661 15.7509 43.7054 15.7498 43.75Z" fill="#016DAB"/>
<path d="M11.0143 39.8872C11.011 39.9783 10.9718 40.0643 10.9053 40.1266C10.8388 40.1889 10.7503 40.2224 10.6593 40.2197C10.6152 40.2207 10.5714 40.2128 10.5305 40.1965C10.4895 40.1802 10.4523 40.1558 10.421 40.1247C10.3897 40.0937 10.365 40.0566 10.3484 40.0158C10.3318 39.975 10.3236 39.9312 10.3243 39.8872C10.3259 39.8419 10.3364 39.7973 10.3552 39.7561C10.3741 39.7148 10.4009 39.6777 10.4341 39.6468C10.4673 39.6159 10.5062 39.5919 10.5487 39.5761C10.5912 39.5603 10.6364 39.553 10.6818 39.5547C10.7257 39.5537 10.7694 39.5616 10.8102 39.5779C10.851 39.5942 10.8881 39.6187 10.9192 39.6498C10.9502 39.6809 10.9747 39.7179 10.991 39.7587C11.0074 39.7995 11.0153 39.8432 11.0143 39.8872Z" fill="#016DAB"/>
<path d="M10.4694 27.08C10.4678 27.1253 10.4572 27.1699 10.4384 27.2111C10.4196 27.2523 10.3928 27.2895 10.3596 27.3203C10.3264 27.3512 10.2874 27.3753 10.2449 27.3911C10.2024 27.4069 10.1572 27.4142 10.1119 27.4125C10.0679 27.4135 10.0242 27.4056 9.98344 27.3893C9.94263 27.3729 9.90557 27.3485 9.87449 27.3174C9.84341 27.2863 9.81895 27.2492 9.8026 27.2084C9.78626 27.1676 9.77836 27.1239 9.77939 27.08C9.77939 26.9885 9.81573 26.9007 9.88043 26.836C9.94513 26.7713 10.0329 26.735 10.1244 26.735C10.2159 26.735 10.3036 26.7713 10.3683 26.836C10.433 26.9007 10.4694 26.9885 10.4694 27.08Z" fill="#016DAB"/>
<path d="M14.4591 22.5C14.4558 22.5911 14.4166 22.6772 14.3501 22.7395C14.2836 22.8018 14.1952 22.8352 14.1041 22.8325C14.0601 22.8335 14.0164 22.8256 13.9756 22.8093C13.9348 22.7929 13.8978 22.7685 13.8667 22.7374C13.8356 22.7063 13.8111 22.6693 13.7948 22.6285C13.7784 22.5877 13.7705 22.544 13.7716 22.5C13.7748 22.4089 13.814 22.3229 13.8805 22.2606C13.947 22.1983 14.0355 22.1648 14.1266 22.1675C14.1705 22.1665 14.2142 22.1744 14.255 22.1907C14.2958 22.2071 14.3329 22.2315 14.364 22.2626C14.3951 22.2937 14.4195 22.3308 14.4359 22.3716C14.4522 22.4124 14.4601 22.4561 14.4591 22.5Z" fill="#016DAB"/>
<path d="M21.8756 32.8524C21.8756 33.9924 20.1406 34.1199 20.1406 32.8524C20.1406 32.6223 20.232 32.4016 20.3947 32.2389C20.5574 32.0763 20.7781 31.9849 21.0081 31.9849C21.2382 31.9849 21.4589 32.0763 21.6215 32.2389C21.7842 32.4016 21.8756 32.6223 21.8756 32.8524Z" fill="#016DAB"/>
</svg>
