<svg width="50" height="51" viewBox="0 0 50 51" fill="none" xmlns="http://www.w3.org/2000/svg">
<path d="M27.5802 41.3102C27.5802 41.3102 41.5127 41.4402 41.9902 41.3102C42.4677 41.1803 46.2402 41.9527 46.3727 38.0952C46.5027 34.2852 46.4327 18.1852 46.3727 17.5952C46.3127 17.0052 46.3952 13.5352 41.6552 13.5477C37.0827 13.5477 12.0027 13.4952 9.38266 13.5477C5.95266 13.6127 5.15516 14.4527 5.13266 17.9777C5.11016 21.5027 5.03766 31.0527 5.03766 31.0527C4.70058 31.168 4.3976 31.3655 4.15618 31.6274C3.91476 31.8894 3.74255 32.2074 3.65516 32.5527C3.49516 33.1502 4.30516 39.1252 5.08516 41.3027C5.33516 41.9678 6.53266 42.6177 8.48516 42.2102C11.7727 41.5227 15.8852 40.9602 15.8852 40.9602C15.9327 41.3652 16.2552 41.3252 16.6602 41.3252L27.5802 41.3102Z" fill="white"/>
<path d="M46.5153 18.4557C46.5153 16.8357 46.5153 13.4307 41.8478 13.4307H9.40531C7.69031 13.4307 5.09531 13.4057 5.07031 17.0507V22.6607C5.07492 22.6955 5.09204 22.7275 5.11848 22.7507C5.14493 22.7739 5.1789 22.7867 5.21406 22.7867C5.24923 22.7867 5.2832 22.7739 5.30964 22.7507C5.33609 22.7275 5.3532 22.6955 5.35781 22.6607C5.35781 22.6357 5.31031 21.1357 5.35781 18.0157C7.02531 18.0157 23.7203 17.9207 46.2778 17.7532C46.2778 18.0157 46.3003 36.4507 46.3003 37.5232C46.3003 38.8082 46.0128 39.7132 45.4203 40.2732C44.4203 41.2457 42.7053 41.2157 40.8703 41.2032L27.7328 41.1607C27.5778 41.1607 27.5028 41.5007 27.7328 41.5007L41.8328 41.5257C43.3578 41.5257 44.7203 41.4107 45.6203 40.5257C46.2678 39.8882 46.6203 38.9082 46.5953 37.5732C46.5753 36.4107 46.5153 21.3632 46.5153 18.4557ZM5.33281 17.7057V17.0382C5.34531 15.5382 5.80781 14.5807 6.73781 14.0857C7.54781 13.6532 8.57281 13.6807 9.40531 13.6807H41.8478C45.4678 13.6807 46.1103 15.7757 46.2303 17.4432C23.6978 17.6232 7.00031 17.6932 5.33281 17.7182V17.7057Z" fill="#313131"/>
<path d="M38.7979 15.2667C38.763 15.2621 38.731 15.245 38.7078 15.2186C38.6847 15.1921 38.6719 15.1582 38.6719 15.123C38.6719 15.0878 38.6847 15.0539 38.7078 15.0274C38.731 15.001 38.763 14.9838 38.7979 14.9792C38.8229 14.9792 40.9879 14.9567 43.4179 14.9792C43.4383 14.9765 43.4592 14.9782 43.4789 14.9842C43.4987 14.9902 43.5169 15.0003 43.5325 15.0139C43.548 15.0276 43.5604 15.0443 43.5689 15.0631C43.5775 15.0819 43.5819 15.1023 43.5819 15.123C43.5819 15.1436 43.5775 15.164 43.5689 15.1828C43.5604 15.2017 43.548 15.2184 43.5325 15.232C43.5169 15.2456 43.4987 15.2558 43.4789 15.2618C43.4592 15.2677 43.4383 15.2694 43.4179 15.2667C40.9879 15.2417 38.7979 15.2667 38.7979 15.2667Z" fill="#4D68A1"/>
<path d="M38.7979 16.5763C38.763 16.5717 38.731 16.5546 38.7078 16.5281C38.6847 16.5017 38.6719 16.4677 38.6719 16.4326C38.6719 16.3974 38.6847 16.3634 38.7078 16.337C38.731 16.3105 38.763 16.2934 38.7979 16.2888C38.8229 16.2888 40.9879 16.2663 43.4179 16.2888C43.4383 16.2861 43.4592 16.2878 43.4789 16.2938C43.4987 16.2998 43.5169 16.3099 43.5325 16.3235C43.548 16.3371 43.5604 16.3539 43.5689 16.3727C43.5775 16.3915 43.5819 16.4119 43.5819 16.4326C43.5819 16.4532 43.5775 16.4736 43.5689 16.4924C43.5604 16.5112 43.548 16.528 43.5325 16.5416C43.5169 16.5552 43.4987 16.5653 43.4789 16.5713C43.4592 16.5773 43.4383 16.579 43.4179 16.5763C40.9879 16.5513 38.7979 16.5763 38.7979 16.5763Z" fill="#4D68A1"/>
<path d="M38.7968 15.9314C38.759 15.9314 38.7228 15.9164 38.696 15.8896C38.6693 15.8629 38.6543 15.8267 38.6543 15.7889C38.6543 15.7511 38.6693 15.7148 38.696 15.6881C38.7228 15.6614 38.759 15.6464 38.7968 15.6464C38.8218 15.6464 40.9868 15.6214 43.4168 15.6464C43.4541 15.6487 43.4893 15.6643 43.5159 15.6905C43.5426 15.7167 43.5589 15.7516 43.5618 15.7889C43.5594 15.8263 43.5433 15.8615 43.5165 15.8878C43.4898 15.9141 43.4543 15.9296 43.4168 15.9314C40.9868 15.8964 38.7968 15.9314 38.7968 15.9314Z" fill="#4D68A1"/>
<path d="M8.71414 15.6928C8.71162 15.7868 8.67314 15.8763 8.60664 15.9428C8.54013 16.0093 8.45066 16.0478 8.35664 16.0503C8.25516 16.0471 8.15888 16.0047 8.08802 15.9319C8.01716 15.8592 7.97724 15.7619 7.97664 15.6603C7.97562 15.6131 7.98417 15.5661 8.00177 15.5223C8.01938 15.4785 8.04567 15.4386 8.07907 15.4052C8.11248 15.3718 8.1523 15.3455 8.19613 15.3279C8.23997 15.3103 8.28692 15.3018 8.33414 15.3028C8.43443 15.3095 8.5287 15.353 8.59885 15.425C8.66899 15.497 8.71005 15.5924 8.71414 15.6928Z" fill="#4D68A1"/>
<path d="M10.5246 15.693C10.5221 15.787 10.4836 15.8765 10.4171 15.943C10.3506 16.0095 10.2611 16.048 10.1671 16.0505C10.0656 16.0473 9.96934 16.0048 9.89848 15.9321C9.82762 15.8594 9.7877 15.762 9.78711 15.6605C9.78776 15.5685 9.82459 15.4805 9.88961 15.4155C9.95464 15.3505 10.0426 15.3136 10.1346 15.313C10.235 15.3171 10.3304 15.3581 10.4024 15.4283C10.4744 15.4984 10.5179 15.5927 10.5246 15.693Z" fill="#4D68A1"/>
<path d="M12.2864 15.6928C12.2839 15.7868 12.2454 15.8763 12.1789 15.9428C12.1124 16.0093 12.0229 16.0478 11.9289 16.0503C11.8274 16.0471 11.7311 16.0047 11.6603 15.9319C11.5894 15.8592 11.5495 15.7619 11.5489 15.6603C11.5479 15.6131 11.5564 15.5661 11.574 15.5223C11.5916 15.4785 11.6179 15.4386 11.6513 15.4052C11.6847 15.3718 11.7246 15.3455 11.7684 15.3279C11.8122 15.3103 11.8592 15.3018 11.9064 15.3028C12.0067 15.3095 12.101 15.353 12.1711 15.425C12.2413 15.497 12.2823 15.5924 12.2864 15.6928Z" fill="#4D68A1"/>
<path d="M19.2746 29.4688C14.5771 29.1963 10.5921 29.7838 6.29213 30.6263C4.71713 30.9338 3.57463 31.1263 3.62463 33.3463C3.66963 35.3038 4.48713 39.7663 4.82713 40.7838C5.21963 41.9563 5.82713 42.5913 7.77463 42.4113C10.0646 42.1988 16.5246 40.9438 16.5771 40.9313C16.5949 40.9283 16.6119 40.9217 16.6271 40.912C16.6423 40.9022 16.6553 40.8894 16.6654 40.8744C16.6755 40.8595 16.6824 40.8426 16.6857 40.8248C16.689 40.8071 16.6886 40.7889 16.6846 40.7713C16.6774 40.7359 16.6565 40.7049 16.6266 40.6848C16.5967 40.6647 16.5601 40.6571 16.5246 40.6638C16.4596 40.6763 10.0246 41.9288 7.74963 42.1388C7.21395 42.2156 6.66782 42.1704 6.15213 42.0063C6.58463 41.2288 8.70463 37.4838 10.0871 36.0438C11.0871 36.5438 12.6221 37.2113 13.7521 37.1238C15.6421 36.9763 18.2996 31.4688 18.4121 31.2338C18.4276 31.2016 18.4298 31.1646 18.4181 31.1308C18.4063 31.0971 18.3817 31.0694 18.3496 31.0538C18.3336 31.0457 18.3161 31.0409 18.2982 31.0397C18.2802 31.0385 18.2622 31.0408 18.2452 31.0467C18.2282 31.0525 18.2126 31.0616 18.1992 31.0736C18.1858 31.0855 18.1749 31.1 18.1671 31.1163C18.1396 31.1738 15.4646 36.7163 13.7296 36.8513C11.3896 37.0338 6.47963 33.6763 4.17713 31.8513C4.55463 31.2288 5.29463 31.0838 6.34213 30.8913C10.9896 30.0313 14.1946 29.4438 19.2596 29.7363C19.2774 29.7373 19.2951 29.7348 19.3119 29.7289C19.3287 29.723 19.3441 29.7139 19.3573 29.7021C19.3706 29.6902 19.3814 29.6759 19.389 29.6599C19.3967 29.6439 19.4012 29.6265 19.4021 29.6088C19.4031 29.5912 19.4006 29.5735 19.3947 29.5569C19.3888 29.5403 19.3797 29.525 19.3678 29.512C19.3559 29.4989 19.3416 29.4884 19.3256 29.481C19.3096 29.4735 19.2923 29.4694 19.2746 29.4688ZM9.83463 35.9113C8.39963 37.4463 6.31713 41.1413 5.90213 41.8888C5.38713 41.5963 5.23463 41.1388 5.05713 40.6088C4.81963 39.9038 3.94463 35.4613 3.89713 33.3388C3.87035 32.9206 3.92468 32.5013 4.05713 32.1038C4.56463 32.5038 7.22713 34.5588 9.83463 35.9113Z" fill="#313131"/>
<path d="M3.90596 30.9859C8.57972 29.5992 13.4424 28.9555 18.316 29.0784C18.51 28.8453 18.7161 28.6225 18.9335 28.4109C18.9335 28.4109 9.59596 22.2734 8.33596 21.7184C7.26096 21.2484 6.63596 21.9534 6.31096 22.4684C6.06096 22.8459 2.71346 27.4684 2.45096 28.5184C2.18846 29.5684 2.71346 30.1984 3.90596 30.9859Z" fill="#E02728"/>
<path d="M10.465 29.4459C9.86002 28.6959 7.53752 22.5909 7.20002 21.6959C7.19364 21.679 7.18398 21.6635 7.1716 21.6503C7.15922 21.6371 7.14436 21.6265 7.12787 21.6191C7.11138 21.6116 7.09359 21.6075 7.07551 21.607C7.05743 21.6065 7.03943 21.6095 7.02252 21.6159C7.00591 21.6223 6.99073 21.6319 6.97784 21.6441C6.96495 21.6564 6.9546 21.671 6.9474 21.6873C6.9402 21.7036 6.93628 21.7211 6.93587 21.7389C6.93546 21.7566 6.93857 21.7743 6.94502 21.7909C7.01752 21.9859 8.21002 25.1434 9.17502 27.4109C7.22502 27.5984 2.84252 29.0359 2.42502 29.1109C2.40247 29.1084 2.37966 29.1117 2.35871 29.1204C2.33775 29.1291 2.31932 29.1429 2.30512 29.1606C2.29092 29.1783 2.2814 29.1993 2.27745 29.2216C2.2735 29.2439 2.27525 29.2669 2.28252 29.2884C2.33252 29.4384 2.34502 29.4309 3.57502 29.0684C5.11752 28.6134 7.95502 27.7759 9.29752 27.6734C9.55909 28.3486 9.88124 28.9988 10.26 29.6159C10.2842 29.6368 10.315 29.6485 10.3469 29.6488C10.3789 29.6491 10.4099 29.6381 10.4345 29.6177C10.4591 29.5973 10.4757 29.5689 10.4813 29.5374C10.4868 29.5059 10.4811 29.4735 10.465 29.4459Z" fill="white"/>
<path d="M29.8183 23.3632C29.5958 22.5257 28.2233 17.9082 27.0683 15.9557C25.9133 14.0032 23.6358 12.1207 21.8158 13.4107C21.7911 13.4261 21.7634 13.4363 21.7346 13.4406C21.7058 13.4449 21.6764 13.4432 21.6483 13.4357C21.2433 13.3157 19.6233 12.9807 18.5058 14.1507C15.6408 17.1507 17.0058 22.3682 15.8383 25.4632C15.8296 25.489 15.8264 25.5163 15.829 25.5433C15.8316 25.5704 15.8399 25.5966 15.8534 25.6202C15.8668 25.6438 15.8852 25.6643 15.9071 25.6804C15.9291 25.6964 15.9542 25.7076 15.9808 25.7132C17.2908 26.0932 24.5783 28.0007 29.7483 23.5707C29.7772 23.5454 29.799 23.5129 29.8113 23.4764C29.8236 23.44 29.826 23.4009 29.8183 23.3632Z" fill="#313131"/>
<path d="M40.1064 19.5508C40.1324 19.188 40.2465 18.837 40.4389 18.5283C40.7739 17.9558 41.3389 16.5033 41.2739 15.6933C41.2214 15.0508 42.2489 13.2883 41.8464 13.1458C41.5114 13.0258 40.5589 15.0733 40.5589 15.0733L40.2489 15.0258C40.2489 15.0258 40.5364 12.1433 40.0839 12.1208C39.6314 12.0983 39.5114 14.9783 39.5114 14.9783L39.0814 15.0508C39.0814 15.0508 38.4864 11.7858 38.0814 11.7633C37.6764 11.7408 38.2714 15.2633 38.2714 15.2633L37.9389 15.3583C37.9389 15.3583 36.8839 12.5208 36.3839 12.6608C35.6914 12.8683 37.7664 17.0008 37.5264 17.1383C37.2864 17.2758 36.1239 16.0683 35.8364 16.4233C35.4089 16.9508 36.9614 17.9658 38.0039 18.7358C38.1939 18.8758 38.1689 19.3308 38.1464 19.6158L40.1064 19.5508Z" fill="white"/>
<path d="M25.3856 38.4409L24.7656 41.1084C25.0152 41.6284 25.238 42.1607 25.4331 42.7034C25.5481 43.0859 26.0056 44.2959 26.2431 44.2509C26.4806 44.2059 26.4931 43.8709 26.4931 43.8709C26.4931 43.8709 26.9231 44.1209 27.1381 43.5359C27.1381 43.5359 27.7081 43.7859 27.6131 42.6559C27.6131 42.6559 28.1856 42.5834 27.5656 40.8684C27.6512 40.9072 27.7484 40.9117 27.8372 40.881C27.926 40.8503 27.9997 40.7868 28.0431 40.7034C28.1806 40.4534 27.5431 39.2259 26.3981 39.2034C26.1135 38.8858 25.7695 38.6268 25.3856 38.4409Z" fill="white"/>
<path d="M23.9125 27.3157C23.9125 27.3157 26.5075 28.8657 27.0075 26.2207L26.435 24.9107C26.435 24.9107 28.555 23.1607 27.1275 20.0757C27.1275 20.0757 27.9125 19.3257 27.485 18.3857C27.3573 18.1197 27.1529 17.8979 26.898 17.7491C26.6431 17.6003 26.3495 17.5312 26.055 17.5507C26.055 17.5507 25.2925 15.4107 22.3625 15.0732C22.3625 15.0732 21.8875 18.3382 19.5775 19.6007L19.9825 21.0532C19.9825 21.0532 18.7675 21.0757 18.6475 22.0757C18.5275 23.0757 20.005 23.3632 20.625 22.9807C20.625 22.9807 21.4825 25.2932 23.5775 25.5782C23.5775 25.5532 23.96 26.9357 23.9125 27.3157Z" fill="white"/>
<path d="M21.8372 22.5174C21.839 22.5743 21.8565 22.6299 21.8888 22.681C21.9211 22.7321 21.9675 22.7776 22.0252 22.8148C22.083 22.8521 22.151 22.8803 22.2253 22.8979C22.2995 22.9155 22.3785 22.922 22.4576 22.9172C22.5367 22.9124 22.6143 22.8962 22.6859 22.8698C22.7574 22.8433 22.8215 22.807 22.8743 22.763C22.9272 22.719 22.9677 22.6682 22.9935 22.6135C23.0193 22.5589 23.0299 22.5016 23.0247 22.4449C23.023 22.3879 23.0055 22.3323 22.9732 22.2812C22.9409 22.2301 22.8945 22.1846 22.8367 22.1474C22.7789 22.1102 22.7109 22.0819 22.6367 22.0643C22.5624 22.0467 22.4834 22.0402 22.4043 22.045C22.3252 22.0498 22.2476 22.066 22.1761 22.0924C22.1045 22.1189 22.0404 22.1552 21.9876 22.1992C21.9348 22.2432 21.8943 22.294 21.8685 22.3487C21.8426 22.4033 21.832 22.4606 21.8372 22.5174Z" fill="#FCCAC2"/>
<path d="M26.438 20.9937C26.4636 21.0412 26.5017 21.0811 26.5499 21.1111C26.5982 21.1411 26.6558 21.1607 26.7192 21.1685C26.7826 21.1764 26.8507 21.1725 26.9193 21.157C26.988 21.1415 27.0559 21.1147 27.119 21.0782C27.1821 21.0418 27.2392 20.9964 27.2869 20.9447C27.3347 20.893 27.3721 20.836 27.3969 20.7771C27.4218 20.7183 27.4337 20.6587 27.4318 20.6018C27.4299 20.545 27.4143 20.4921 27.386 20.4462C27.3598 20.3996 27.3214 20.3605 27.2731 20.3312C27.2247 20.3019 27.1673 20.283 27.1043 20.2756C27.0412 20.2681 26.9737 20.2723 26.9056 20.2878C26.8375 20.3034 26.7702 20.33 26.7076 20.3662C26.645 20.4023 26.5883 20.4473 26.5408 20.4985C26.4933 20.5497 26.4559 20.606 26.4308 20.6644C26.4057 20.7227 26.3934 20.7819 26.3946 20.8384C26.3958 20.8949 26.4105 20.9477 26.4377 20.9937" fill="#FCCAC2"/>
<path d="M40.5857 19.4332H40.2507C40.3257 19.0142 40.4711 18.611 40.6807 18.2407L40.8232 17.9332C41.1619 17.1641 41.3633 16.3417 41.4182 15.5032C41.5757 14.9107 42.3482 13.1932 41.9182 12.9782C41.8944 12.9606 41.8668 12.9491 41.8375 12.9447C41.8083 12.9404 41.7785 12.9433 41.7507 12.9532C41.4182 13.0707 40.7282 14.3832 40.4882 14.9307L40.3707 14.9082C40.3932 14.6582 40.4457 14.1207 40.4657 13.5982C40.5207 12.2157 40.3457 12.0007 40.1332 11.9782C40.0656 11.9737 39.9984 11.9903 39.9407 12.0257C39.5907 12.3057 39.4282 14.1182 39.3457 14.8607L39.1307 14.8832C39.0357 14.1932 38.6782 12.0032 38.2257 11.6682C38.196 11.6423 38.1609 11.6234 38.123 11.6128C38.0851 11.6022 38.0453 11.6002 38.0065 11.6069C37.9677 11.6136 37.9309 11.6289 37.8988 11.6516C37.8666 11.6743 37.84 11.7039 37.8207 11.7382C37.4807 12.2107 37.9182 14.4882 38.0707 15.1932L37.9982 15.2157C37.9282 15.0032 37.7482 14.5507 37.5232 14.0732C36.9282 12.7632 36.6182 12.6207 36.4982 12.5957C36.4181 12.5626 36.3282 12.5626 36.2482 12.5957C35.6907 12.8682 36.5407 14.6382 37.3907 16.9807C37.3023 16.9233 37.2187 16.8589 37.1407 16.7882C36.6657 16.4307 36.0207 15.9307 35.6407 16.3832C35.6047 16.4207 35.5791 16.4669 35.5664 16.5173C35.5537 16.5677 35.5543 16.6206 35.5682 16.6707C35.6757 17.4607 37.8607 18.7307 37.9507 18.9082C38.0249 19.0975 38.0414 19.3045 37.9982 19.5032C37.7721 19.5026 37.5471 19.5355 37.3307 19.6007C37.2832 19.7182 36.8082 27.2207 36.8082 27.2207C35.1882 26.1507 31.0432 24.5957 29.0432 25.0782C28.3297 25.255 27.6578 25.5701 27.0657 26.0057C26.9457 25.7207 26.7082 25.1957 26.5657 24.8882C27.6182 24.0832 28.1982 22.1732 27.2557 20.1007C27.4054 19.9596 27.5249 19.7895 27.607 19.6009C27.6891 19.4122 27.732 19.2089 27.7332 19.0032C27.7082 17.5257 26.1857 17.4807 26.1607 17.4807C25.1357 15.0982 22.3507 14.9557 22.3257 14.9557C22.2913 14.9528 22.2572 14.9635 22.2306 14.9855C22.204 15.0074 22.187 15.0389 22.1832 15.0732C22.1832 15.0982 21.9557 18.1832 19.5157 19.4807C19.493 19.4968 19.4745 19.5182 19.4619 19.543C19.4493 19.5678 19.4429 19.5953 19.4432 19.6232C19.5632 20.0532 19.7307 20.6707 19.8007 20.9582C19.4225 20.9861 19.0637 21.1361 18.7782 21.3857C18.6623 21.5074 18.578 21.6556 18.5324 21.8173C18.4868 21.9791 18.4814 22.1495 18.5166 22.3138C18.5519 22.4781 18.6267 22.6313 18.7345 22.7602C18.8424 22.889 18.9801 22.9896 19.1357 23.0532C19.5702 23.2264 20.0531 23.2344 20.4932 23.0757C20.5882 23.2907 21.5632 25.3632 23.4457 25.6257C23.4932 25.8757 23.6607 26.5307 23.7307 26.9832C18.8257 24.6257 11.6857 39.2882 16.4182 41.7032C17.3482 42.1782 24.5882 41.4532 24.8282 41.4157C25.4082 42.6957 25.6607 44.3232 26.2332 44.3232C26.3982 44.2982 26.4832 44.1332 26.5432 43.9882C26.6086 44.0098 26.6778 44.0177 26.7465 44.0113C26.8151 44.0049 26.8817 43.9844 26.942 43.9511C27.0024 43.9178 27.0551 43.8723 27.0971 43.8176C27.139 43.7629 27.1692 43.7001 27.1857 43.6332C27.2411 43.6519 27.3001 43.6571 27.358 43.6484C27.4158 43.6397 27.4707 43.6174 27.5182 43.5832C27.7682 43.4207 27.7682 42.9657 27.7332 42.7257C28.1857 42.5757 28.0207 41.7732 27.8757 41.3182H35.6832C35.4332 39.5807 32.7582 31.4857 32.7582 31.4857C32.7582 31.4857 37.4657 34.5632 40.5707 32.8657C43.2432 31.4107 41.5382 19.4557 40.5857 19.4332ZM26.2232 17.7182C26.4704 17.7182 26.7121 17.7915 26.9176 17.9288C27.1232 18.0662 27.2834 18.2614 27.378 18.4898C27.4726 18.7182 27.4974 18.9695 27.4492 19.212C27.4009 19.4545 27.2819 19.6772 27.1071 19.852C26.9322 20.0269 26.7095 20.1459 26.467 20.1941C26.2246 20.2424 25.9732 20.2176 25.7448 20.123C25.5164 20.0284 25.3212 19.8682 25.1838 19.6626C25.0465 19.4571 24.9732 19.2154 24.9732 18.9682C24.9732 18.6366 25.1049 18.3187 25.3393 18.0843C25.5737 17.8499 25.8916 17.7182 26.2232 17.7182ZM23.7232 25.5057C23.7007 25.4582 23.6757 25.4107 23.6057 25.4107C21.6507 25.1607 20.7232 22.9107 20.7232 22.8857C20.713 22.8675 20.6991 22.8517 20.6824 22.8393C20.6657 22.8269 20.6466 22.8182 20.6263 22.8137C20.606 22.8092 20.585 22.8091 20.5646 22.8133C20.5443 22.8175 20.525 22.826 20.5082 22.8382C20.3182 22.9807 19.6532 23.0507 19.1982 22.8382C18.5807 22.5507 18.8407 21.7657 19.0082 21.6232C19.3407 21.2657 19.9857 21.2432 20.0082 21.2432C20.0857 21.2432 20.1657 21.1532 20.1282 21.0757C20.0907 20.9982 19.8407 20.0282 19.7707 19.6957C20.4113 19.343 20.9457 18.825 21.3182 18.1957C21.6927 18.0856 22.0955 18.1288 22.4382 18.3157C22.4536 18.3255 22.4709 18.3321 22.489 18.335C22.5071 18.3379 22.5256 18.3372 22.5434 18.3327C22.5611 18.3283 22.5778 18.3203 22.5924 18.3092C22.607 18.2981 22.6192 18.2841 22.6282 18.2682C22.6392 18.2531 22.6468 18.2357 22.6503 18.2174C22.6539 18.1991 22.6534 18.1802 22.6489 18.162C22.6444 18.1439 22.6359 18.127 22.6241 18.1125C22.6123 18.098 22.5975 18.0863 22.5807 18.0782C22.2633 17.8975 21.8938 17.8305 21.5332 17.8882C21.9782 17.069 22.2912 16.1848 22.4607 15.2682C23.5555 15.3816 24.5719 15.8889 25.3207 16.6957C25.0928 16.7441 24.8803 16.8476 24.7016 16.9971C24.523 17.1465 24.3836 17.3374 24.2957 17.5532C24.2885 17.5688 24.2846 17.5858 24.2844 17.603C24.2842 17.6202 24.2877 17.6373 24.2945 17.6531C24.3013 17.6689 24.3114 17.6831 24.3241 17.6947C24.3368 17.7064 24.3518 17.7152 24.3682 17.7207C24.4382 17.7432 24.5332 17.6957 24.5332 17.6482C24.5332 17.6007 24.8207 16.9332 25.5107 16.9332C25.6282 17.1007 25.7732 17.2907 25.8907 17.4832C24.5107 17.8157 24.7007 19.2932 24.7482 19.4357C24.6025 19.4556 24.4587 19.4874 24.3182 19.5307C24.2007 19.1982 24.0507 18.7957 23.9157 18.4107C23.9052 18.3764 23.882 18.3475 23.8508 18.3298C23.8197 18.3121 23.7829 18.3071 23.7482 18.3157C23.7308 18.3203 23.7146 18.3283 23.7004 18.3393C23.6863 18.3502 23.6744 18.3639 23.6656 18.3795C23.6567 18.3951 23.6511 18.4123 23.6489 18.4301C23.6468 18.4479 23.6482 18.4659 23.6532 18.4832C23.7707 18.8407 23.9032 19.2332 24.0582 19.6032C23.828 19.6971 23.6177 19.8337 23.4382 20.0057C23.3139 19.7371 23.1159 19.5094 22.8671 19.3491C22.6183 19.1889 22.3291 19.1027 22.0332 19.1007C21.7315 19.1007 21.4367 19.1901 21.1859 19.3577C20.9351 19.5252 20.7397 19.7634 20.6243 20.0421C20.5088 20.3207 20.4786 20.6274 20.5375 20.9232C20.5963 21.219 20.7416 21.4907 20.9548 21.704C21.1681 21.9173 21.4398 22.0625 21.7357 22.1214C22.0315 22.1802 22.3381 22.15 22.6168 22.0346C22.8954 21.9192 23.1336 21.7237 23.3012 21.4729C23.4687 21.2221 23.5582 20.9273 23.5582 20.6257C23.5533 20.5053 23.5374 20.3856 23.5107 20.2682C23.6822 20.0776 23.8964 19.9303 24.1357 19.8382C24.227 20.1045 24.3469 20.3601 24.4932 20.6007C24.5882 20.6957 25.1132 20.6957 25.1607 20.6957C25.0719 20.8932 24.9683 21.0838 24.8507 21.2657C24.84 21.2811 24.8328 21.2986 24.8294 21.317C24.8261 21.3355 24.8266 21.3544 24.8311 21.3726C24.8356 21.3908 24.8439 21.4078 24.8555 21.4226C24.867 21.4373 24.8816 21.4494 24.8982 21.4582C24.9299 21.476 24.9673 21.4811 25.0026 21.4722C25.038 21.4634 25.0686 21.4414 25.0882 21.4107C25.6957 20.4107 25.4957 20.4557 24.9932 20.4107C24.8723 20.4094 24.7522 20.3926 24.6357 20.3607C24.5314 20.1639 24.4476 19.957 24.3857 19.7432C24.5238 19.6903 24.6703 19.6624 24.8182 19.6607C24.9158 19.8539 25.0535 20.0241 25.2222 20.1599C25.3908 20.2957 25.5865 20.394 25.7961 20.4482C26.0057 20.5024 26.2245 20.5112 26.4378 20.4741C26.6512 20.4371 26.8541 20.3549 27.0332 20.2332C27.4002 21.058 27.5225 21.9708 27.3857 22.8632C27.0532 24.7432 25.6732 25.0307 25.6007 25.0307C25.5661 25.0425 25.5361 25.0647 25.5146 25.0942C25.4931 25.1237 25.4813 25.1592 25.4807 25.1957C25.4878 25.2286 25.5057 25.2582 25.5315 25.28C25.5572 25.3017 25.5895 25.3142 25.6232 25.3157C25.8732 25.2531 26.1136 25.1572 26.3382 25.0307C26.5057 25.4107 26.7907 26.0532 26.8632 26.2207C26.8185 26.4677 26.718 26.7012 26.5694 26.9035C26.4208 27.1059 26.228 27.2716 26.0057 27.3882C25.2682 27.7507 24.2907 27.3632 24.0282 27.2457C24.0082 26.7682 23.7207 25.5532 23.7207 25.5057H23.7232ZM23.3157 20.6607C23.3157 20.9079 23.2424 21.1496 23.105 21.3551C22.9677 21.5607 22.7724 21.7209 22.544 21.8155C22.3156 21.9101 22.0643 21.9349 21.8218 21.8866C21.5793 21.8384 21.3566 21.7194 21.1818 21.5445C21.007 21.3697 20.8879 21.147 20.8397 20.9045C20.7915 20.662 20.8162 20.4107 20.9108 20.1823C21.0054 19.9539 21.1656 19.7587 21.3712 19.6213C21.5768 19.484 21.8184 19.4107 22.0657 19.4107C22.3956 19.4158 22.7105 19.5492 22.9438 19.7825C23.1772 20.0158 23.3105 20.3307 23.3157 20.6607ZM17.0657 37.7132C17.0464 37.7217 17.0254 37.7255 17.0044 37.7242C16.9834 37.723 16.963 37.7168 16.9448 37.7061C16.9267 37.6954 16.9114 37.6806 16.9001 37.6628C16.8889 37.645 16.882 37.6248 16.8801 37.6038C16.8783 37.5829 16.8814 37.5618 16.8893 37.5423C16.8972 37.5228 16.9096 37.5054 16.9255 37.4917C16.9415 37.4779 16.9605 37.4681 16.9809 37.4632C17.0014 37.4582 17.0227 37.4582 17.0432 37.4632C17.1382 37.4632 17.8532 37.3932 18.8757 37.2982C19.4232 35.1057 20.5207 32.2007 20.5207 32.1757C20.5333 32.1425 20.5585 32.1157 20.5909 32.1012C20.6232 32.0866 20.66 32.0856 20.6932 32.0982C20.7263 32.1108 20.7531 32.136 20.7676 32.1684C20.7822 32.2007 20.7833 32.2375 20.7707 32.2707C20.7707 32.2957 19.6982 35.1057 19.1507 37.2707C21.2457 37.1057 24.2957 36.9382 25.6507 37.2232C25.6854 37.2354 25.7155 37.2581 25.737 37.288C25.7585 37.318 25.7702 37.3538 25.7707 37.3907C25.7707 37.4132 25.6757 37.9132 25.6257 38.1282C25.6103 38.1532 25.5872 38.1725 25.5599 38.1832C25.5326 38.1939 25.5025 38.1954 25.4743 38.1875C25.446 38.1795 25.4211 38.1626 25.4033 38.1393C25.3855 38.116 25.3758 38.0875 25.3757 38.0582C25.429 37.8705 25.4683 37.6791 25.4932 37.4857C23.2682 37.0582 17.1357 37.6782 17.0757 37.7007L17.0657 37.7132ZM27.6882 42.5257C27.4186 41.6188 26.9554 40.7812 26.3307 40.0707C26.3051 40.0455 26.2706 40.0314 26.2348 40.0317C26.1989 40.0319 26.1646 40.0464 26.1394 40.0719C26.1142 40.0974 26.1002 40.1319 26.1004 40.1678C26.1007 40.2037 26.1151 40.238 26.1407 40.2632C26.1407 40.2632 27.2057 41.4257 27.4507 42.7382C27.5782 43.4282 27.2832 43.4882 27.2357 43.4532C26.9857 42.1207 26.0207 40.6907 25.9857 40.6207C25.9657 40.5904 25.9351 40.5688 25.8999 40.56C25.8647 40.5512 25.8275 40.5559 25.7957 40.5732C25.7667 40.5942 25.7461 40.6248 25.7374 40.6595C25.7287 40.6943 25.7325 40.731 25.7482 40.7632C25.7482 40.7857 26.7482 42.2382 26.9982 43.5132C26.9732 43.8457 26.7107 43.8232 26.6407 43.7982C26.5207 42.5832 25.7107 41.3207 25.6882 41.2732C25.6667 41.244 25.6357 41.2233 25.6005 41.2146C25.5653 41.2059 25.5282 41.2098 25.4957 41.2257C25.4667 41.2467 25.4461 41.2773 25.4374 41.312C25.4287 41.3468 25.4325 41.3835 25.4482 41.4157C25.4482 41.4407 26.2582 42.7032 26.3532 43.8707C26.3307 44.2507 26.0157 43.9657 25.6632 42.8932C25.4897 42.2742 25.2499 41.6757 24.9482 41.1082C25.1382 40.2732 25.4482 38.7007 25.4482 38.7007C25.4957 38.7007 26.4032 39.0232 27.2582 40.6082C28.0357 42.0707 27.6982 42.5132 27.6982 42.5132L27.6882 42.5257ZM27.9032 40.6907C27.8382 40.7611 27.7488 40.8041 27.6532 40.8107C27.4225 40.2547 27.0911 39.7462 26.6757 39.3107C27.8182 39.7032 28.0557 40.5357 27.9132 40.6782L27.9032 40.6907ZM38.2882 19.4932C38.3349 19.2368 38.2925 18.9722 38.1682 18.7432C37.9382 18.5132 35.6207 17.0232 35.8357 16.6482C36.0507 16.2732 36.5857 16.7432 36.9782 17.0057C37.2882 17.2557 37.4782 17.3857 37.6207 17.2907C37.7632 17.1957 37.7457 17.0257 37.2407 15.7432C37.0057 15.1457 36.7407 14.4532 36.5732 13.8832C36.3007 12.9982 36.2882 12.9082 36.4057 12.8607C36.6932 12.7182 37.5157 14.5232 37.8357 15.4332C37.8498 15.4648 37.8737 15.4911 37.9038 15.5081C37.934 15.5252 37.9688 15.5322 38.0032 15.5282L38.3132 15.4557C38.3476 15.4463 38.3769 15.4237 38.3947 15.3928C38.4125 15.3618 38.4173 15.3251 38.4082 15.2907C38.4082 15.2907 38.2357 14.4807 38.1207 13.6457C37.9232 12.1932 38.0732 11.9307 38.0982 11.8957C38.1457 11.9182 38.3482 12.0857 38.6457 13.4907C38.8082 14.2782 38.8957 15.0632 38.8957 15.0857C38.8988 15.1204 38.9156 15.1525 38.9423 15.1749C38.9689 15.1974 39.0034 15.2084 39.0382 15.2057L39.4907 15.1582C39.5066 15.1589 39.5225 15.1563 39.5374 15.1505C39.5523 15.1447 39.5658 15.1359 39.5771 15.1246C39.5884 15.1133 39.5972 15.0998 39.603 15.0849C39.6088 15.07 39.6114 15.0541 39.6107 15.0382C39.7282 13.5382 39.9432 12.4657 40.0857 12.2882C40.2282 12.5382 40.1807 13.8582 40.0632 15.0382C40.0604 15.0725 40.0711 15.1066 40.093 15.1333C40.1149 15.1599 40.1464 15.1769 40.1807 15.1807L40.5157 15.2282C40.5437 15.2316 40.572 15.2268 40.5974 15.2144C40.6227 15.202 40.6438 15.1824 40.6582 15.1582C41.1432 14.1582 41.5632 13.4657 41.7532 13.2757C41.7532 13.7432 41.1657 15.2182 41.1107 15.4907C40.9557 17.8207 40.0632 18.2132 39.9432 19.4207C39.4657 19.4332 38.8232 19.4557 38.2982 19.4807L38.2882 19.4932Z" fill="#313131"/>
<path d="M39.9131 19.2666L40.5276 19.4341C41.4801 19.4566 43.1851 31.4116 40.5126 32.8666C37.4076 34.5641 33.0276 31.6787 33.0276 31.6787C33.0276 31.6787 35.2776 39.5291 35.5276 41.2666H28.0276C28.399 40.8495 28.3174 40.4818 28.0276 39.7666C26.3284 38.6235 25.59 38.2025 25.2097 38.3816L21.6187 38.0741L19.8231 37.9204H19.2756L20.0276 34.2666L19.0276 37.9204H18.0276L19.0276 38.0741L25.2097 38.6963L25.013 39.7666L24.8162 41.1516C24.8162 41.1516 17.0106 42.0116 16.0806 41.5366C11.3481 39.1216 19.0276 25.2666 23.3931 26.8166L23.6906 27.0791L26.5256 26.0541L26.7281 25.8391C27.3202 25.4036 27.9921 25.0885 28.7056 24.9116C30.7056 24.4291 34.8506 25.9841 36.4706 27.0541C36.4706 27.0541 36.9456 19.5516 36.9931 19.4341C37.2095 19.3689 37.4345 19.336 37.6606 19.3366C38.1759 19.3121 39.3899 19.2803 39.886 19.2673L39.9131 19.2666Z" fill="#4D68A1"/>
<path d="M25.6343 19.601C25.6688 19.6037 25.7033 19.5959 25.7333 19.5784C25.7632 19.561 25.7871 19.5349 25.8017 19.5035C25.8536 19.2544 25.9874 19.0299 26.1818 18.8659C26.3762 18.7018 26.62 18.6077 26.8743 18.5985C26.9113 18.5961 26.9462 18.5803 26.9724 18.5541C26.9986 18.5279 27.0144 18.493 27.0167 18.456C27.0139 18.4191 26.9979 18.3845 26.9718 18.3584C26.9457 18.3323 26.9111 18.3163 26.8743 18.3135C25.7793 18.3135 25.5393 19.4085 25.5393 19.4335C25.5307 19.4682 25.5357 19.505 25.5534 19.5362C25.5711 19.5673 25.6 19.5905 25.6343 19.601Z" fill="#313131"/>
<path d="M21.0765 20.5287C21.0601 20.5381 21.0457 20.5506 21.0341 20.5655C21.0225 20.5804 21.014 20.5975 21.009 20.6157C21.004 20.6339 21.0027 20.653 21.005 20.6717C21.0074 20.6905 21.0134 20.7085 21.0228 20.725C21.0321 20.7414 21.0446 20.7558 21.0596 20.7674C21.0745 20.779 21.0916 20.7875 21.1098 20.7925C21.128 20.7975 21.147 20.7988 21.1658 20.7965C21.1845 20.7941 21.2026 20.7881 21.219 20.7787C21.394 20.663 21.5877 20.5784 21.7915 20.5287C21.9743 20.4786 22.1662 20.472 22.352 20.5093C22.5378 20.5466 22.7123 20.6269 22.8615 20.7437C22.8865 20.7662 22.909 20.7662 22.9565 20.7662C22.9753 20.766 22.9937 20.7616 23.0106 20.7533C23.0274 20.7451 23.0423 20.7333 23.054 20.7187C23.0664 20.7053 23.0756 20.6893 23.0811 20.6718C23.0866 20.6544 23.0883 20.636 23.0859 20.6179C23.0835 20.5998 23.0772 20.5824 23.0674 20.567C23.0575 20.5516 23.0445 20.5385 23.029 20.5287C22.1715 19.8137 21.0765 20.5287 21.0765 20.5287Z" fill="#313131"/>
<path d="M25.7232 21.7663C25.0757 21.9438 23.8882 22.2913 23.8882 22.2913C23.7682 22.3163 23.7932 22.4338 23.7932 22.4813C23.8833 22.6866 24.0293 22.8624 24.2145 22.9888C24.3997 23.1152 24.6166 23.1871 24.8407 23.1963C25.0007 23.1934 25.1582 23.1553 25.3017 23.0845C25.4453 23.0138 25.5715 22.9123 25.6714 22.7871C25.7712 22.662 25.8421 22.5164 25.8792 22.3607C25.9162 22.2049 25.9185 22.043 25.8857 21.8863C25.8829 21.8677 25.8765 21.8499 25.8669 21.8338C25.8572 21.8177 25.8445 21.8037 25.8294 21.7925C25.8143 21.7814 25.7971 21.7733 25.7789 21.7688C25.7607 21.7643 25.7417 21.7634 25.7232 21.7663ZM25.1357 22.8638C24.9567 22.924 24.7626 22.9213 24.5854 22.8564C24.4081 22.7914 24.2583 22.6679 24.1607 22.5063C24.4707 22.4113 25.1607 22.2213 25.6607 22.0763C25.6653 22.2457 25.6173 22.4124 25.5233 22.5534C25.4292 22.6944 25.2938 22.8029 25.1357 22.8638Z" fill="#313131"/>
<path d="M20.0049 22.0759C19.8254 22.0288 19.6423 21.997 19.4574 21.9809C19.4226 21.9781 19.3882 21.9892 19.3615 22.0116C19.3348 22.0341 19.3181 22.0662 19.3149 22.1009C19.3121 22.1353 19.3228 22.1694 19.3447 22.196C19.3667 22.2226 19.3981 22.2396 19.4324 22.2434C19.6014 22.2612 19.7686 22.293 19.9324 22.3384C19.9574 22.3384 20.0774 22.3634 20.0999 22.2434C20.1044 22.2089 20.0976 22.174 20.0804 22.1437C20.0633 22.1135 20.0368 22.0897 20.0049 22.0759Z" fill="#4D68A1"/>
<path d="M33.3199 20.2911C33.3117 20.2607 33.2927 20.2343 33.2665 20.2169C33.2403 20.1994 33.2087 20.192 33.1774 20.1961L32.9274 20.2436L32.8324 19.7186C32.8319 19.7019 32.8274 19.6855 32.8193 19.6708C32.8112 19.6561 32.7997 19.6436 32.7857 19.6343C32.7718 19.625 32.7558 19.6192 32.7391 19.6173C32.7225 19.6155 32.7056 19.6176 32.6899 19.6236C32.6732 19.6241 32.6568 19.6286 32.6421 19.6368C32.6274 19.6449 32.6149 19.6564 32.6056 19.6704C32.5963 19.6843 32.5905 19.7003 32.5886 19.7169C32.5868 19.7336 32.5889 19.7505 32.5949 19.7661L32.6899 20.3136C32.5699 20.3386 32.4749 20.3611 32.4399 20.3611C32.4093 20.3699 32.3829 20.3893 32.3654 20.4159C32.348 20.4426 32.3407 20.4746 32.3449 20.5061C32.3548 20.5307 32.3707 20.5523 32.3913 20.5689C32.4119 20.5856 32.4364 20.5966 32.4624 20.6011C32.4624 20.6011 32.6049 20.5761 32.7124 20.5536L32.7824 20.9111C32.7851 20.927 32.7909 20.9421 32.7997 20.9555C32.8084 20.969 32.8198 20.9806 32.8331 20.9895C32.8465 20.9984 32.8615 21.0044 32.8773 21.0073C32.8931 21.0102 32.9093 21.0098 32.9249 21.0061C32.9974 20.9811 33.0449 20.9336 33.0199 20.8611L32.9499 20.4811C33.0274 20.4577 33.1069 20.4417 33.1874 20.4336C33.2068 20.4389 33.2271 20.4387 33.2464 20.4332C33.2656 20.4277 33.283 20.417 33.2966 20.4023C33.3103 20.3877 33.3196 20.3696 33.3238 20.35C33.3279 20.3304 33.3265 20.31 33.3199 20.2911Z" fill="#4D68A1"/>
<path d="M41.847 8.88105H41.597V8.50105C41.5994 8.48401 41.5982 8.46663 41.5934 8.45011C41.5886 8.43358 41.5802 8.41828 41.569 8.40526C41.5577 8.39224 41.5438 8.38179 41.5281 8.37463C41.5125 8.36748 41.4954 8.36377 41.4782 8.36377C41.461 8.36377 41.444 8.36748 41.4283 8.37463C41.4127 8.38179 41.3987 8.39224 41.3875 8.40526C41.3762 8.41828 41.3679 8.43358 41.363 8.45011C41.3582 8.46663 41.357 8.48401 41.3595 8.50105V8.88105H41.192C41.1749 8.87857 41.1576 8.87978 41.141 8.88461C41.1245 8.88944 41.1092 8.89777 41.0962 8.90904C41.0832 8.9203 41.0727 8.93424 41.0656 8.9499C41.0584 8.96556 41.0547 8.98258 41.0547 8.99979C41.0547 9.01701 41.0584 9.03403 41.0656 9.04969C41.0727 9.06535 41.0832 9.07929 41.0962 9.09055C41.1092 9.10182 41.1245 9.11015 41.141 9.11498C41.1576 9.11981 41.1749 9.12102 41.192 9.11855H41.3595V9.50105C41.357 9.51808 41.3582 9.53546 41.363 9.55198C41.3679 9.56851 41.3762 9.58381 41.3875 9.59683C41.3987 9.60985 41.4127 9.6203 41.4283 9.62746C41.444 9.63461 41.461 9.63832 41.4782 9.63832C41.4954 9.63832 41.5125 9.63461 41.5281 9.62746C41.5438 9.6203 41.5577 9.60985 41.569 9.59683C41.5802 9.58381 41.5886 9.56851 41.5934 9.55198C41.5982 9.53546 41.5994 9.51808 41.597 9.50105V9.11855H41.847C41.8755 9.11439 41.9016 9.10011 41.9204 9.0783C41.9393 9.0565 41.9497 9.02863 41.9497 8.99979C41.9497 8.97096 41.9393 8.94309 41.9204 8.92129C41.9016 8.89948 41.8755 8.8852 41.847 8.88105Z" fill="#4D68A1"/>
<path d="M45.1801 10.8329C45.1675 10.8344 45.1547 10.8332 45.1426 10.8293C45.1305 10.8254 45.1194 10.819 45.1101 10.8104C45.0943 10.8009 45.0809 10.7879 45.0708 10.7725C45.0607 10.7571 45.0542 10.7396 45.0518 10.7214C45.0494 10.7031 45.0512 10.6846 45.0569 10.6671C45.0627 10.6496 45.0723 10.6336 45.0851 10.6204C45.5451 9.96687 45.9292 9.26318 46.2301 8.52286C46.2429 8.49183 46.2673 8.46708 46.2982 8.45397C46.3291 8.44087 46.3639 8.44047 46.3951 8.45286C46.4114 8.45802 46.4263 8.46658 46.439 8.47798C46.4517 8.48938 46.4618 8.50335 46.4687 8.51896C46.4755 8.53458 46.479 8.55147 46.4788 8.56853C46.4786 8.58558 46.4748 8.6024 46.4676 8.61786C45.9801 10.0304 45.2276 10.8329 45.1801 10.8329Z" fill="#4D68A1"/>
<path d="M45.1802 12.0255C45.0377 12.0255 45.0152 11.858 45.1102 11.763C45.1327 11.763 46.3602 11.1305 47.4202 9.57303C47.4421 9.54452 47.4744 9.52587 47.51 9.52118C47.5456 9.51649 47.5817 9.52615 47.6102 9.54803C47.6387 9.56991 47.6573 9.60222 47.662 9.63785C47.6667 9.67348 47.6571 9.70952 47.6352 9.73803C47.015 10.6888 46.1723 11.474 45.1802 12.0255Z" fill="#313131"/>
<path d="M33.0091 11.2639C32.4962 11.1128 32.0344 10.824 31.6741 10.4289C31.6513 10.4025 31.6387 10.3688 31.6387 10.3339C31.6387 10.299 31.6513 10.2652 31.6741 10.2389C31.7009 10.2158 31.735 10.2031 31.7704 10.2031C31.8057 10.2031 31.8399 10.2158 31.8666 10.2389C32.1939 10.5729 32.592 10.8293 33.0316 10.9889C33.05 10.9929 33.0673 11.0007 33.0826 11.0117C33.0978 11.0227 33.1106 11.0367 33.1203 11.0529C33.1299 11.0691 33.136 11.087 33.1384 11.1057C33.1408 11.1243 33.1394 11.1433 33.1341 11.1614C33.1332 11.1765 33.1292 11.1913 33.1223 11.2049C33.1154 11.2184 33.1058 11.2303 33.0941 11.24C33.0823 11.2496 33.0687 11.2567 33.0541 11.2608C33.0395 11.2649 33.0242 11.266 33.0091 11.2639Z" fill="#313131"/>
<path d="M32.9379 11.7161C32.5009 11.6944 32.0688 11.6145 31.6529 11.4786C31.6356 11.4739 31.6194 11.4659 31.6052 11.455C31.591 11.444 31.5791 11.4303 31.5703 11.4147C31.5615 11.3991 31.5558 11.3819 31.5537 11.3641C31.5516 11.3463 31.553 11.3283 31.5579 11.3111C31.5623 11.2938 31.57 11.2777 31.5807 11.2635C31.5915 11.2493 31.6049 11.2375 31.6203 11.2286C31.6357 11.2197 31.6527 11.2141 31.6703 11.2119C31.688 11.2098 31.7058 11.2112 31.7229 11.2161C32.1162 11.3427 32.525 11.4151 32.9379 11.4311C32.9754 11.4328 33.0109 11.4483 33.0376 11.4746C33.0644 11.5009 33.0805 11.5361 33.0829 11.5736C33.0579 11.6436 33.0104 11.7161 32.9379 11.7161Z" fill="#313131"/>
<path d="M36.3678 9.92846C36.3678 9.92846 35.4703 9.92846 35.2253 9.17846C35.199 9.10952 35.183 9.03708 35.1778 8.96346C34.9396 8.97613 34.7025 8.92286 34.4925 8.80951C34.2826 8.69616 34.1079 8.52712 33.9878 8.32096C33.8886 8.12833 33.8347 7.91553 33.8304 7.69886C33.826 7.4822 33.8713 7.26741 33.9628 7.07096C34.0153 6.91596 34.3203 7.03596 34.2003 7.21346C34.128 7.37103 34.0927 7.54305 34.097 7.71636C34.1013 7.88968 34.1452 8.05971 34.2253 8.21346C34.3194 8.37371 34.4556 8.50508 34.6191 8.59325C34.7827 8.68141 34.9673 8.723 35.1528 8.71346C35.1994 8.47971 35.2976 8.25933 35.4403 8.06846C35.5031 7.98159 35.5921 7.91718 35.6943 7.88474C35.7964 7.85229 35.9063 7.85352 36.0077 7.88825C36.1091 7.92298 36.1966 7.98937 36.2574 8.07763C36.3182 8.16589 36.349 8.27135 36.3453 8.37846C36.2728 8.66346 35.9878 8.95096 35.4153 8.97346C35.4153 9.39346 35.9328 9.61096 36.3453 9.68846C36.4453 9.72596 36.5553 9.92846 36.3678 9.92846ZM35.7028 8.21346C35.5931 8.34306 35.519 8.49902 35.4878 8.66596C35.9153 8.61846 36.1053 8.41596 36.1303 8.28596C36.1353 8.19096 35.9403 7.97596 35.7028 8.21346Z" fill="#FF7449"/>
<path d="M46.4901 22.553C46.0694 22.5545 45.6629 22.4014 45.3476 22.123C45.0106 21.8455 44.783 21.4576 44.7051 21.028C44.7051 20.9902 44.7201 20.954 44.7468 20.9273C44.7735 20.9006 44.8098 20.8855 44.8476 20.8855C44.8854 20.8855 44.9216 20.9006 44.9483 20.9273C44.9751 20.954 44.9901 20.9902 44.9901 21.028C45.0687 21.3815 45.261 21.6994 45.5376 21.933C45.7067 22.0804 45.9072 22.1872 46.1238 22.2452C46.3404 22.3033 46.5675 22.3111 46.7876 22.268C46.9349 22.2486 47.0745 22.1908 47.1926 22.1005C47.0432 22.0102 46.9148 21.889 46.816 21.745C46.7173 21.6009 46.6505 21.4375 46.6201 21.2655C46.5926 20.8855 46.8701 20.433 47.4051 20.7655C47.7676 20.9955 47.8101 21.708 47.5976 22.0155C47.6201 22.0155 48.5326 22.5705 49.6676 21.4455C49.6943 21.4225 49.7285 21.4098 49.7638 21.4098C49.7992 21.4098 49.8333 21.4225 49.8601 21.4455C49.8829 21.4719 49.8955 21.5056 49.8955 21.5405C49.8955 21.5754 49.8829 21.6092 49.8601 21.6355C48.8776 22.583 48.0026 22.4455 47.5726 22.278C47.5251 22.2555 47.4776 22.2555 47.4301 22.2305C47.1682 22.4519 46.8327 22.567 46.4901 22.553ZM46.8851 21.218C46.9158 21.3558 46.9765 21.485 47.0629 21.5965C47.1494 21.708 47.2594 21.799 47.3851 21.863C47.4039 21.8054 47.4273 21.7494 47.4551 21.6955C47.6351 20.9105 46.8476 20.623 46.8851 21.218Z" fill="#FF7449"/>
</svg>
