<svg width="50" height="50" viewBox="0 0 50 50" fill="none" xmlns="http://www.w3.org/2000/svg">
<path d="M3.38468 7.25015C4.49443 7.14465 17.5507 7.11065 19.5402 7.25015C21.6189 7.3959 22.1782 8.12515 22.3299 10.1501C22.4817 12.1751 22.5799 34.9251 22.5534 35.6779C22.5269 36.4307 22.7859 38.6344 19.8457 38.4951C16.9054 38.3559 3.63718 38.3952 3.31168 38.5014C2.98618 38.6077 1.65568 40.9251 1.48668 40.9294C1.31768 40.9336 1.35118 10.5962 1.36068 10.0854C1.37018 9.57465 1.38793 7.4404 3.38468 7.25015Z" fill="white"/>
<path d="M1.27955 40.7751C1.3158 35.8099 1.2503 10.1866 1.2503 10.1866C1.24405 9.41161 1.31405 7.25011 3.54805 7.11386C5.6398 6.98611 17.7196 6.98336 20.0876 7.19586C22.3918 7.40311 22.4376 9.33261 22.4648 10.4854C22.4648 10.4854 22.6398 33.5561 22.6706 35.4016C22.6918 36.6766 22.4638 37.5396 21.9738 38.0419C21.4306 38.5986 20.6851 38.6044 20.0276 38.6094C19.9428 38.6094 4.9603 38.5014 3.35855 38.6576C3.2278 38.6704 2.8168 38.9196 1.73055 40.8986C1.5468 41.2339 1.2778 41.0106 1.27955 40.7751ZM1.4873 10.1851C1.48955 10.4409 1.52205 40.7884 1.52205 40.7884C2.77555 38.4774 3.19705 38.4361 3.3358 38.4226C4.9498 38.2651 19.9401 38.3739 20.0261 38.3726C20.6373 38.3679 21.3303 38.3624 21.8048 37.8761C22.2483 37.4216 22.4548 36.6134 22.4343 35.4054C22.4036 33.5586 22.2286 10.4909 22.2286 10.4909C22.2013 9.34736 22.1606 7.61961 20.0666 7.43136C17.7043 7.21911 5.65105 7.19461 3.56655 7.34961C2.0168 7.46486 1.4753 8.88961 1.4873 10.1846V10.1851Z" fill="#414141"/>
<path d="M4.02371 14.066C4.00949 14.0594 3.99676 14.05 3.98631 14.0383C3.97586 14.0266 3.96791 14.0129 3.96295 13.9981C3.95799 13.9832 3.95611 13.9675 3.95745 13.9519C3.95878 13.9362 3.9633 13.9211 3.97071 13.9072C3.97749 13.8932 3.98701 13.8806 3.99872 13.8703C4.01044 13.86 4.02409 13.8522 4.03889 13.8472C4.05369 13.8423 4.06933 13.8404 4.08489 13.8416C4.10044 13.8428 4.1156 13.8471 4.12946 13.8542C4.63346 14.1315 5.54821 13.5942 5.62596 13.5317C4.88571 12.6245 5.40096 11.0125 6.29771 11.365C6.67996 11.515 6.83121 12.6802 5.96996 13.5425C6.92121 14.2335 8.10846 13.7115 8.53346 13.4175C8.31253 13.1097 8.19497 12.7397 8.19771 12.3607C8.18196 11.1 9.68196 11.25 9.45821 12.45C9.3807 12.8413 9.17301 13.1948 8.86896 13.453C9.69721 14.206 11.033 13.7585 11.35 13.5195C11.1458 13.2241 11.0383 12.8726 11.0422 12.5135C11.0042 11.127 12.3127 11.2227 12.2497 12.4207C12.2366 12.6359 12.1803 12.8462 12.0841 13.0391C11.9879 13.232 11.8539 13.4035 11.69 13.5435C11.9537 13.7802 13.0547 13.9257 13.7247 13.1825C13.4725 12.7182 13.3802 11.918 13.859 11.6897C14.2217 11.517 14.659 11.8447 14.4465 12.5315C14.3614 12.7888 14.2176 13.0228 14.0265 13.215C14.5385 13.9052 15.731 13.582 16.0492 13.3437C15.8477 13.0707 15.7458 12.7368 15.7605 12.3977C15.792 11.217 16.9837 11.396 16.8855 12.4122C16.8403 12.7812 16.6626 13.1212 16.3855 13.369C16.6887 13.6587 17.9912 13.7752 18.706 12.7145C18.7425 12.6605 18.793 12.6182 18.856 12.6395C18.919 12.6607 18.9697 12.7352 18.931 12.7895C18.652 13.2377 18.214 13.5639 17.7048 13.703C17.1955 13.842 16.6525 13.7837 16.1845 13.5395C15.8195 13.8087 14.5175 14.1437 13.8517 13.3827C13.543 13.676 13.1495 13.8642 12.7275 13.9204C12.3054 13.9766 11.8764 13.898 11.5017 13.6957C11.0754 13.9605 10.5802 14.0928 10.0786 14.0759C9.57709 14.0589 9.09188 13.8935 8.68446 13.6005C8.26351 13.8951 7.76638 14.0617 7.25293 14.0803C6.73948 14.0988 6.23161 13.9686 5.79046 13.7052C5.70446 13.775 4.72521 14.343 4.02371 14.066ZM6.06646 11.541C5.73146 11.541 5.47296 12.041 5.50746 12.5437C5.51639 12.8448 5.61938 13.1355 5.80196 13.375C6.58896 12.586 6.43096 11.5407 6.06646 11.5407V11.541ZM11.6565 11.735C11.359 11.735 11.269 12.1437 11.279 12.5075C11.2749 12.8122 11.3625 13.1112 11.5305 13.3655C11.8027 13.1161 11.9744 12.7759 12.0135 12.4087C12.032 12.0542 11.9197 11.7347 11.6565 11.7347V11.735ZM8.85446 11.7162C8.52796 11.7162 8.42946 12.062 8.43446 12.3587C8.43051 12.6864 8.5293 13.0071 8.71696 13.2757C8.98056 13.0525 9.1599 12.7459 9.22521 12.4067C9.27721 12.129 9.15721 11.716 8.85446 11.716V11.7162ZM16.3317 11.8162C16.0907 11.8162 16.0045 12.123 15.997 12.405C15.9848 12.6857 16.0668 12.9623 16.23 13.191C16.868 12.5717 16.6832 11.8155 16.3317 11.8155V11.8162ZM14.0527 11.8827C13.8342 11.8827 13.7467 12.149 13.7542 12.3845C13.7593 12.6001 13.8096 12.8123 13.902 13.0072C14.4152 12.4295 14.2752 11.882 14.0527 11.882V11.8827Z" fill="#87E4FF"/>
<path d="M18.2262 17.5067C18.2262 17.5067 14.7512 17.4292 10.9314 17.405C10.901 17.4036 10.8722 17.3905 10.8512 17.3684C10.8301 17.3464 10.8184 17.3171 10.8184 17.2866C10.8184 17.2561 10.8301 17.2268 10.8512 17.2047C10.8722 17.1827 10.901 17.1696 10.9314 17.1682C10.9314 17.1682 17.2107 17.2267 18.2314 17.2702C18.2628 17.2709 18.2926 17.284 18.3143 17.3066C18.336 17.3293 18.3478 17.3596 18.3472 17.391C18.3465 17.4223 18.3334 17.4521 18.3108 17.4738C18.2881 17.4956 18.2578 17.5074 18.2264 17.5067H18.2262Z" fill="#414141"/>
<path d="M8.03401 17.3842H4.51451C4.48239 17.383 4.45204 17.3692 4.42997 17.3458C4.40791 17.3225 4.39589 17.2914 4.39651 17.2592C4.39651 17.2437 4.39957 17.2284 4.40551 17.214C4.41146 17.1997 4.42017 17.1867 4.43116 17.1757C4.44214 17.1647 4.45518 17.1561 4.46952 17.1501C4.48387 17.1442 4.49924 17.1412 4.51476 17.1412C4.51476 17.1412 6.01176 17.1435 8.03451 17.152C8.05004 17.1521 8.0654 17.1552 8.07972 17.1612C8.09404 17.1672 8.10704 17.1759 8.11798 17.187C8.12891 17.198 8.13757 17.2111 8.14345 17.2254C8.14933 17.2398 8.15232 17.2552 8.15226 17.2707C8.15223 17.286 8.14913 17.3012 8.14311 17.3153C8.1371 17.3293 8.12832 17.342 8.11727 17.3526C8.10623 17.3632 8.09317 17.3715 8.07886 17.3769C8.06455 17.3824 8.0493 17.3848 8.03401 17.3842Z" fill="#414141"/>
<path d="M18.135 20.26C18.135 20.26 4.6272 20.1695 4.51345 20.169C4.483 20.1676 4.45425 20.1545 4.4332 20.1325C4.41214 20.1104 4.40039 20.0811 4.40039 20.0506C4.40039 20.0201 4.41214 19.9908 4.4332 19.9688C4.45425 19.9467 4.483 19.9337 4.51345 19.9323C4.51345 19.9323 15.9184 19.9873 18.1364 20.0235C18.1678 20.0238 18.1978 20.0365 18.2198 20.0588C18.2418 20.0812 18.254 20.1114 18.2537 20.1428C18.2534 20.1741 18.2407 20.2041 18.2184 20.2261C18.196 20.2481 18.1658 20.2603 18.1345 20.26H18.135Z" fill="#414141"/>
<path d="M9.27511 25.0459C8.91622 25.2904 8.49239 25.422 8.0581 25.4237C7.62382 25.4255 7.19895 25.2973 6.83811 25.0556C6.63111 25.2056 5.36761 25.6391 4.69861 24.9253C4.68036 24.9018 4.67167 24.8722 4.67428 24.8424C4.6769 24.8127 4.69062 24.7851 4.71271 24.7651C4.7348 24.745 4.76364 24.734 4.79346 24.7343C4.82329 24.7346 4.85191 24.7461 4.87361 24.7666C5.46636 25.3049 6.51311 24.9976 6.69211 24.8684C6.48961 24.5438 6.39972 24.1616 6.43636 23.7809C6.52586 22.3654 8.13311 22.3836 7.61486 23.9531C7.49984 24.3153 7.29558 24.6428 7.02086 24.9054C7.24811 25.1476 8.34811 25.4614 9.14586 24.8439C8.98047 24.5429 8.89443 24.2048 8.89586 23.8614C8.89586 22.5844 10.5854 22.5129 10.1306 24.0531C10.004 24.3972 9.7745 24.6939 9.47336 24.9031C10.2201 25.8229 11.6049 25.3566 12.0069 25.0686C11.7624 24.7119 11.631 24.29 11.6296 23.8576C11.5674 22.3919 13.3999 22.6953 12.9796 24.1261C12.864 24.5023 12.6451 24.8386 12.3479 25.0966C13.1601 25.7544 14.1919 25.3229 14.6006 25.0354C14.3451 24.7579 14.2028 24.3948 14.2019 24.0176C14.2124 22.6894 15.6239 22.6201 15.4956 24.0291C15.4478 24.4245 15.2564 24.7885 14.9579 25.0521C15.5191 25.5424 16.5726 25.2054 16.9094 24.9684C16.7322 24.6805 16.6526 24.3431 16.6824 24.0064C16.8574 22.2994 19.0251 23.5041 17.2324 25.0141C17.467 25.2245 17.7725 25.3386 18.0876 25.3336C18.4027 25.3287 18.7044 25.205 18.9324 24.9873C18.9531 24.9648 18.9817 24.9511 19.0122 24.9492C19.0428 24.9473 19.0729 24.9572 19.0962 24.977C19.1196 24.9968 19.1344 25.0248 19.1376 25.0553C19.1407 25.0857 19.1319 25.1162 19.1131 25.1403C18.6816 25.6501 17.6029 25.7271 17.0429 25.1601C16.6701 25.4246 15.5789 25.7886 14.7731 25.2051C14.396 25.4829 13.9416 25.6362 13.4732 25.6436C13.0048 25.651 12.5458 25.5121 12.1601 25.2464C11.7216 25.5721 10.3331 26.1179 9.27511 25.0459ZM12.3276 23.1319C12.0481 23.1319 11.8544 23.5146 11.8686 23.8484C11.868 24.2305 11.9811 24.6042 12.1936 24.9218C13.0436 24.1658 12.9044 23.1309 12.3289 23.1319H12.3276ZM14.9144 23.2346C14.5014 23.2346 14.1591 24.2096 14.7856 24.8914C15.051 24.6685 15.2216 24.353 15.2626 24.0089C15.2959 23.6579 15.1469 23.2346 14.9156 23.2346H14.9144ZM17.3376 23.4096C17.0416 23.4096 16.6924 24.1121 17.1024 24.8224C17.3766 24.6109 17.5813 24.3223 17.6901 23.9936C17.7369 23.7924 17.6359 23.4094 17.3389 23.4094L17.3376 23.4096ZM7.22236 22.9829C6.96211 22.9829 6.70411 23.3271 6.67461 23.7959C6.64437 24.1161 6.71528 24.4378 6.87736 24.7156C7.11471 24.4829 7.29145 24.1956 7.39211 23.8789C7.52136 23.4881 7.42886 23.0134 7.22236 22.9829ZM9.66286 23.1351C9.36286 23.1319 9.13636 23.4761 9.13636 23.8601C9.1429 24.152 9.21737 24.4384 9.35386 24.6966C9.60592 24.5205 9.79886 24.2723 9.90736 23.9846C10.0169 23.6159 9.96386 23.1776 9.66286 23.1351Z" fill="#87E4FF"/>
<path d="M10.7689 29.2674C10.7537 29.2682 10.7386 29.2659 10.7243 29.2607C10.7101 29.2555 10.697 29.2475 10.686 29.2372C10.6749 29.2268 10.666 29.2143 10.6599 29.2004C10.6538 29.1865 10.6506 29.1716 10.6504 29.1564C10.6504 29.125 10.6628 29.0949 10.685 29.0727C10.7072 29.0505 10.7373 29.038 10.7686 29.0379C14.3489 29.0359 18.1354 29.0306 18.1354 29.0306V29.2674H10.7689Z" fill="#414141"/>
<path d="M9.28723 29.2752C4.54723 29.2739 4.51223 29.2679 4.49773 29.2659C4.46747 29.2615 4.44009 29.2456 4.42134 29.2214C4.40258 29.1973 4.39391 29.1668 4.39715 29.1364C4.40038 29.106 4.41527 29.078 4.43868 29.0583C4.4621 29.0387 4.49222 29.0288 4.52273 29.0309C4.63173 29.0349 7.15323 29.0374 9.28673 29.0384C9.30273 29.0377 9.31871 29.0402 9.33372 29.0458C9.34872 29.0514 9.36243 29.06 9.37401 29.0711C9.3856 29.0822 9.39482 29.0955 9.40112 29.1102C9.40742 29.1249 9.41067 29.1408 9.41067 29.1568C9.41067 29.1728 9.40742 29.1887 9.40112 29.2034C9.39482 29.2181 9.3856 29.2314 9.37401 29.2425C9.36243 29.2535 9.34872 29.2621 9.33372 29.2678C9.31871 29.2734 9.30273 29.2759 9.28673 29.2752H9.28723Z" fill="#414141"/>
<path d="M20.2879 33.7096L19.4206 33.5663L19.1734 32.7803C19.1663 32.7581 19.1529 32.7385 19.1348 32.7239C19.1167 32.7094 19.0946 32.7004 19.0715 32.6983C19.0483 32.6961 19.025 32.7008 19.0045 32.7118C18.984 32.7228 18.9672 32.7396 18.9561 32.7601L18.5539 33.5126L17.7616 33.5716C17.7383 33.5734 17.716 33.5821 17.6975 33.5966C17.6791 33.6111 17.6654 33.6308 17.6582 33.653C17.6509 33.6753 17.6504 33.6993 17.6568 33.7219C17.6631 33.7444 17.6761 33.7646 17.6939 33.7798L18.2896 34.2848L18.0171 35.0253C18.0088 35.0472 18.0072 35.0711 18.0125 35.094C18.0178 35.1168 18.0297 35.1375 18.0468 35.1536C18.0638 35.1697 18.0853 35.1803 18.1084 35.1842C18.1315 35.188 18.1553 35.1849 18.1766 35.1753L18.9736 34.8181C19.7309 35.2931 19.6909 35.2768 19.7394 35.2768C19.7578 35.2768 19.7759 35.2725 19.7924 35.2642C19.8089 35.2559 19.8232 35.244 19.8342 35.2292C19.8452 35.2145 19.8526 35.1973 19.8559 35.1792C19.8591 35.1611 19.8581 35.1425 19.8529 35.1248L19.6321 34.3801L20.3321 33.9268C20.3525 33.914 20.3685 33.8953 20.3779 33.8731C20.3874 33.851 20.3899 33.8265 20.3851 33.8029C20.3803 33.7793 20.3684 33.7577 20.351 33.7411C20.3337 33.7244 20.3117 33.7134 20.2879 33.7096ZM19.4294 34.2283C19.4077 34.242 19.3911 34.2624 19.3821 34.2864C19.3731 34.3104 19.3721 34.3367 19.3794 34.3613L19.5364 34.8908C19.0051 34.5581 19.0294 34.5658 18.9824 34.5658C18.9466 34.5658 18.9841 34.5536 18.3356 34.8441L18.5394 34.2896C18.5478 34.2668 18.549 34.242 18.5428 34.2185C18.5367 34.195 18.5234 34.174 18.5049 34.1583L18.0666 33.7868L18.6354 33.7446C18.6553 33.743 18.6745 33.7365 18.6912 33.7256C18.7079 33.7148 18.7217 33.6999 18.7311 33.6823L19.0311 33.1206L19.2156 33.7076C19.2222 33.7284 19.2344 33.7471 19.2509 33.7614C19.2674 33.7758 19.2876 33.7853 19.3091 33.7888L19.9464 33.8941L19.4294 34.2283Z" fill="#414141"/>
<path d="M16.7662 33.7095L15.8912 33.565L15.5542 32.775C15.5451 32.7537 15.5299 32.7355 15.5105 32.7228C15.4912 32.71 15.4685 32.7032 15.4454 32.7032C15.4222 32.7032 15.3995 32.71 15.3802 32.7228C15.3608 32.7355 15.3456 32.7537 15.3365 32.775L15.0225 33.5187L14.1885 33.6475C14.1651 33.651 14.1433 33.6615 14.1259 33.6776C14.1085 33.6937 14.0964 33.7146 14.091 33.7377C14.0856 33.7607 14.0873 33.7849 14.0957 33.807C14.1042 33.8291 14.1191 33.8482 14.1385 33.8617L14.7617 34.2915L14.4505 35.063C14.4421 35.085 14.4404 35.109 14.4457 35.1319C14.451 35.1549 14.463 35.1758 14.4802 35.1919C14.4974 35.208 14.519 35.2186 14.5422 35.2223C14.5655 35.2261 14.5893 35.2228 14.6107 35.213L15.4525 34.8165C16.2097 35.2915 16.1687 35.2745 16.217 35.2745C16.2354 35.2744 16.2535 35.2701 16.27 35.2619C16.2864 35.2536 16.3007 35.2416 16.3118 35.2269C16.3228 35.2121 16.3302 35.195 16.3335 35.1769C16.3367 35.1588 16.3357 35.1401 16.3305 35.1225L16.1097 34.3777L16.8097 33.9245C16.8293 33.9114 16.8446 33.8928 16.8535 33.8711C16.8625 33.8493 16.8648 33.8254 16.8602 33.8024C16.8555 33.7793 16.8441 33.7582 16.8273 33.7416C16.8106 33.7251 16.7893 33.7139 16.7662 33.7095Z" fill="#FDAF31"/>
<path d="M13.3952 33.6962L12.5259 33.5662L12.2669 32.784C12.2595 32.762 12.2457 32.7426 12.2274 32.7283C12.209 32.714 12.1869 32.7054 12.1637 32.7036C12.1405 32.7018 12.1173 32.7068 12.0969 32.7181C12.0766 32.7294 12.06 32.7464 12.0492 32.767L11.6584 33.5252L10.8672 33.5962C10.8439 33.5984 10.8217 33.6075 10.8035 33.6223C10.7853 33.6371 10.7719 33.6569 10.765 33.6793C10.7581 33.7017 10.758 33.7257 10.7647 33.7481C10.7714 33.7706 10.7846 33.7905 10.8027 33.8055L11.4059 34.3012L11.1449 35.046C11.1373 35.0679 11.1363 35.0917 11.1421 35.1142C11.1478 35.1367 11.1601 35.157 11.1773 35.1726C11.1945 35.1882 11.2159 35.1984 11.2389 35.202C11.2618 35.2055 11.2853 35.2022 11.3064 35.1925L12.0982 34.8232C12.8669 35.289 12.8232 35.27 12.8689 35.27C12.8875 35.27 12.9057 35.2656 12.9223 35.2572C12.9388 35.2488 12.9531 35.2367 12.9641 35.2218C12.9751 35.2068 12.9824 35.1895 12.9854 35.1712C12.9885 35.1529 12.9872 35.1342 12.9817 35.1165L12.7502 34.3752L13.4439 33.9115C13.4637 33.8981 13.4789 33.8791 13.4877 33.8569C13.4964 33.8348 13.4983 33.8105 13.493 33.7872C13.4878 33.764 13.4756 33.7429 13.4581 33.7266C13.4407 33.7104 13.4188 33.6998 13.3952 33.6962Z" fill="#FDAF31"/>
<path d="M9.57717 33.697L8.78017 33.5652L8.46742 32.7722C8.45884 32.7506 8.44409 32.732 8.42502 32.7188C8.40595 32.7055 8.38339 32.6981 8.36016 32.6975C8.33692 32.697 8.31404 32.7033 8.29435 32.7156C8.27466 32.728 8.25904 32.7458 8.24942 32.767L7.91067 33.5195L7.11617 33.6525C7.09321 33.6564 7.07191 33.667 7.05494 33.6829C7.03796 33.6989 7.02606 33.7195 7.02073 33.7422C7.01539 33.7648 7.01686 33.7886 7.02494 33.8104C7.03302 33.8323 7.04736 33.8512 7.06617 33.865L7.65242 34.29L7.38242 35.0242C7.37412 35.0462 7.37251 35.07 7.37779 35.0929C7.38306 35.1157 7.39499 35.1365 7.41206 35.1525C7.42913 35.1686 7.45058 35.1792 7.4737 35.1831C7.49681 35.1869 7.52056 35.1839 7.54192 35.1742L8.33892 34.817L9.04167 35.2575C9.06201 35.2698 9.0856 35.2757 9.10935 35.2745C9.13311 35.2732 9.15593 35.2648 9.17483 35.2503C9.19373 35.2359 9.20783 35.2161 9.2153 35.1935C9.22276 35.1709 9.22324 35.1466 9.21667 35.1237L8.99467 34.3737L9.62667 33.909C9.64542 33.8953 9.65972 33.8764 9.6678 33.8546C9.67587 33.8329 9.67736 33.8092 9.67209 33.7866C9.66681 33.764 9.65499 33.7434 9.63812 33.7275C9.62124 33.7116 9.60004 33.701 9.57717 33.697Z" fill="#FDAF31"/>
<path d="M6.16717 33.7438L5.29217 33.613L4.97267 32.8253C4.96389 32.8037 4.94896 32.7852 4.92972 32.7721C4.91049 32.759 4.88782 32.7518 4.86454 32.7515C4.84125 32.7512 4.81839 32.7577 4.79881 32.7703C4.77922 32.7829 4.76378 32.801 4.75442 32.8223L4.42517 33.5735L3.63917 33.644C3.61575 33.6461 3.59349 33.6552 3.57522 33.6699C3.55694 33.6847 3.54348 33.7046 3.53653 33.7271C3.52959 33.7495 3.52949 33.7736 3.53623 33.7961C3.54298 33.8186 3.55627 33.8386 3.57442 33.8535L4.17767 34.3493L3.91667 35.094C3.90908 35.116 3.90812 35.1397 3.9139 35.1622C3.91968 35.1847 3.93196 35.2051 3.9492 35.2206C3.96644 35.2362 3.98788 35.2464 4.01085 35.2499C4.03383 35.2534 4.05733 35.2501 4.07842 35.2403L4.86992 34.8713C5.63892 35.337 5.59492 35.318 5.64067 35.318C5.65923 35.3181 5.67753 35.3137 5.69409 35.3054C5.71066 35.297 5.72502 35.2848 5.73602 35.2699C5.74703 35.255 5.75435 35.2376 5.75742 35.2193C5.76049 35.201 5.7592 35.1823 5.75367 35.1645L5.52167 34.423L6.21542 33.9593C6.23523 33.946 6.25055 33.927 6.25939 33.9048C6.26823 33.8827 6.27017 33.8583 6.26496 33.8351C6.25974 33.8118 6.24762 33.7906 6.23017 33.7743C6.21272 33.758 6.19076 33.7474 6.16717 33.7438Z" fill="#FDAF31"/>
<path d="M33.2696 20.634C33.2679 20.4847 33.3158 20.339 33.4057 20.2198C33.4956 20.1006 33.6225 20.0146 33.7666 19.9752C34.9153 19.6835 37.0761 19.7657 37.5888 19.9752C37.6788 20.0028 37.7572 20.0595 37.8114 20.1365C37.8657 20.2134 37.893 20.3062 37.8888 20.4002C37.8888 20.7502 36.9951 21.965 35.4351 21.965C34.0731 21.966 33.2696 21.0152 33.2696 20.634Z" fill="#016DAB"/>
<path d="M40.3532 26.5275C39.7217 26.723 36.073 27.8525 35.1147 28.2795C35.2365 29.0032 36.0897 33.9447 37.027 35.915C38.5724 35.8885 40.1085 35.6702 41.6 35.265C42.1816 32.2952 41.7422 29.216 40.3532 26.5275ZM45.1032 28.6887C43.8075 22.2947 40.562 20.2592 38.0425 20.0517C38.0989 20.1596 38.127 20.28 38.1242 20.4017C38.1242 21.029 36.9905 22.2017 35.4337 22.2032C33.8725 22.2032 33.0325 21.2437 33.0325 20.6345C33.0299 20.5111 33.0536 20.3886 33.1018 20.275C33.1501 20.1615 33.2219 20.0595 33.3125 19.9757C32.5085 20.0197 31.211 20.3507 29.8815 21.7645C29.6105 23.663 28.9997 27.201 27.9565 29.531C27.9432 29.5589 27.9196 29.5806 27.8905 29.5913C27.8615 29.602 27.8295 29.6009 27.8012 29.5883C27.773 29.5756 27.7508 29.5524 27.7395 29.5236C27.7282 29.4948 27.7287 29.4627 27.7407 29.4342C28.7312 27.2197 29.329 23.8937 29.613 21.9637C29.613 21.9637 29.697 20.9637 29.7292 20.4837C29.7328 20.4307 29.7257 20.3776 29.7082 20.3275C29.6907 20.2773 29.6632 20.2313 29.6275 20.192C29.5917 20.1528 29.5484 20.1212 29.5001 20.0991C29.4518 20.0771 29.3996 20.065 29.3465 20.0637C28.82 20.0495 27.9077 20.032 27.425 20.0637C27.3479 20.069 27.2742 20.0968 27.2128 20.1437C27.1515 20.1906 27.1053 20.2545 27.08 20.3275C26.7527 21.27 25.5085 24.8417 24.9175 26.3775C24.2332 28.1557 23.4402 30.2702 24.808 31.2095C26.1245 32.1142 28.076 30.5495 29.5137 28.8815C29.7677 27.7029 29.953 26.5105 30.0687 25.3105C30.0694 25.2945 30.0733 25.2789 30.0802 25.2644C30.087 25.25 30.0967 25.2371 30.1087 25.2266C30.1207 25.216 30.1347 25.208 30.1498 25.2029C30.165 25.1979 30.181 25.196 30.1969 25.1973C30.2128 25.1986 30.2283 25.2031 30.2424 25.2106C30.2565 25.218 30.269 25.2283 30.2791 25.2407C30.2892 25.253 30.2966 25.2673 30.301 25.2827C30.3054 25.298 30.3067 25.3141 30.3047 25.33C30.1015 27.436 29.6791 29.5151 29.0442 31.5335C28.7542 32.7742 28.4257 34.0835 28.1977 34.6885C28.1977 34.6885 31.8017 39.885 41.2367 36.7737C42.331 33.0612 41.8782 29.395 40.3522 26.5275C40.1853 26.2104 39.9985 25.9042 39.793 25.6107C39.7741 25.5856 39.7659 25.554 39.7702 25.5229C39.7746 25.4918 39.7911 25.4636 39.8162 25.4447C39.8413 25.4258 39.8729 25.4176 39.9041 25.422C39.9352 25.4263 39.9633 25.4429 39.9822 25.468C40.6902 26.5033 41.2189 27.6504 41.5462 28.8612C42.2684 31.4201 42.2556 34.1306 41.5092 36.6825C41.489 36.7732 41.1842 38.2347 40.9865 39.1595C40.9681 39.247 40.98 39.3381 41.02 39.418C41.06 39.498 41.1259 39.562 41.207 39.5997C41.9687 39.9485 42.8054 40.1013 43.6412 40.0445C43.7049 40.0402 43.7665 40.0204 43.8208 39.987C43.8751 39.9535 43.9205 39.9074 43.953 39.8525C44.4502 39.0167 46.418 35.1752 45.1035 28.6887H45.1032ZM40.3532 26.5275C39.7217 26.723 36.073 27.8525 35.1147 28.2795C35.2365 29.0032 36.0897 33.9447 37.027 35.915C38.5724 35.8885 40.1085 35.6702 41.6 35.265C42.1816 32.2952 41.7422 29.216 40.3532 26.5275Z" fill="#016DAB"/>
<path d="M40.2827 26.4003C41.8081 29.1405 42.2676 32.3477 41.573 35.406C41.573 35.406 37.8822 36.206 36.9525 36.0245C36.9525 36.0245 35.5775 32.905 34.9375 28.1883C34.9375 28.1875 38.6717 26.7503 40.2827 26.4003Z" fill="white"/>
<path d="M44.0918 25.305C44.0918 25.305 45.861 29.674 45.509 34.3622C46.5678 33.9926 47.6015 33.5546 48.6035 33.0512C48.3127 30.2619 47.682 27.5185 46.7255 24.8822C45.8401 24.9713 44.9607 25.1124 44.0918 25.305Z" fill="white"/>
<path d="M34.9557 37.6942C31.8135 37.49 28.1982 34.6882 28.1982 34.6882L26.2305 39.725C31.8285 43.5175 39.311 42.6527 40.0567 42.5965L41.2372 36.7732C39.3725 37.3872 36.914 37.8212 34.9557 37.6942Z" fill="#414141"/>
<path d="M36.5857 37.6851L39.27 40.2866C38.2125 40.3643 37.1504 40.3522 36.095 40.2506C36.2378 39.3997 36.3686 38.5467 36.4872 37.6921C36.4062 37.6961 36.3262 37.6995 36.2472 37.7024C36.1291 38.5458 35.9992 39.3875 35.8577 40.2273C34.5468 40.089 33.2469 39.8604 31.9675 39.5431C32.0874 39.0062 32.2024 38.4681 32.3125 37.9291C32.6505 37.7843 33.3167 37.3866 33.3167 37.3866C29.815 35.9149 28.4235 34.8501 28.4235 34.8501L26.543 39.6823C26.543 39.6823 27.695 39.3793 29.1867 38.9743C29.56 39.1061 30.466 39.4098 31.6867 39.7173C31.5338 40.4603 31.3401 41.1942 31.1065 41.9158C31.1053 41.9189 31.1044 41.922 31.1037 41.9251C31.1802 41.9456 31.2567 41.9658 31.333 41.9853C31.508 41.4911 31.728 40.6073 31.9172 39.7748C33.2008 40.0928 34.5046 40.3226 35.8195 40.4626C35.7074 41.1944 35.5478 41.9181 35.3415 42.6291C35.4232 42.6351 35.505 42.6406 35.5855 42.6461C35.7855 41.936 35.9427 41.2145 36.0562 40.4856C37.1884 40.647 38.3379 40.645 39.4695 40.4796L40.0355 41.0258L40.926 36.8741C39.5096 37.2872 38.0557 37.5588 36.5857 37.6851ZM31.738 39.4851C31.0146 39.3036 30.2983 39.0951 29.5905 38.8601C30.4237 38.6289 31.2443 38.3545 32.049 38.0378C31.9815 38.3653 31.8685 38.9023 31.738 39.4858V39.4851Z" fill="white"/>
<path d="M27.8089 20.0822L29.2401 20.0274C29.2285 19.7339 29.3082 19.444 29.4681 19.1977C29.7279 18.8377 30.9714 17.5709 30.8814 17.4244C30.6831 17.1022 29.9986 17.9712 29.7644 17.9259C29.4111 17.8577 28.8299 14.1242 28.5224 14.1447C28.2149 14.1652 28.7771 16.5309 28.6224 16.5652C28.4676 16.5994 27.8179 14.0284 27.5649 14.1037C27.3119 14.1789 28.1326 16.5652 27.9899 16.6199C27.8471 16.6747 26.9846 14.6437 26.7454 14.7669C26.5061 14.8902 27.4624 16.8999 27.3256 16.9749C27.1889 17.0499 26.5021 16.0984 26.3546 16.2434C26.2071 16.3884 27.2094 17.9734 27.2984 18.1717C27.3874 18.3699 27.8614 19.4144 27.8089 20.0822Z" fill="white"/>
<path d="M27.8302 20.205C27.7989 20.2033 27.7693 20.1899 27.7474 20.1675C27.7255 20.145 27.7129 20.1151 27.712 20.0838C27.712 20.0753 27.8285 19.2355 27.0642 17.9838C26.2657 16.6748 26.1102 16.2558 26.1725 16.1065C26.326 15.739 27.1605 16.7485 27.1975 16.7893C27.1797 16.7475 26.25 14.7338 26.687 14.6088C27.0902 14.4935 27.7442 16.1895 27.8835 16.4298C27.8477 16.3075 27.091 14.1048 27.5137 13.9753C27.9 13.857 28.4802 16.0753 28.5887 16.3408C28.5785 16.2908 28.136 13.9708 28.4887 14.0018C29.001 14.047 29.3177 17.2038 29.7637 17.8065C29.9437 17.845 30.73 16.9115 30.9907 17.3748C31.1407 17.6405 30.4627 17.9808 29.5695 19.2595C29.4325 19.4965 29.3595 19.765 29.3575 20.0388C29.3562 20.0664 29.3452 20.0927 29.3265 20.1131C29.3077 20.1335 29.2824 20.1467 29.255 20.1503C29.0687 20.175 27.911 20.205 27.8302 20.205ZM26.4697 16.3633C26.779 17.0733 27.9157 18.7013 27.9477 19.9655C28.3197 19.9565 28.8812 19.9405 29.127 19.9233C29.1576 19.6272 29.2529 19.3416 29.4062 19.0865C30.415 17.803 30.842 17.515 30.7632 17.4508C30.6725 17.3758 30.4605 17.6258 30.3382 17.721C30.0645 17.9333 29.828 18.1165 29.645 18.01C29.341 17.833 28.6652 14.2793 28.5607 14.2735C28.4857 14.2695 28.9525 16.6998 28.729 16.7415C28.4857 16.7868 28.3862 16.4245 28.016 15.3293C27.9028 14.9566 27.7638 14.5923 27.5997 14.239C27.542 14.514 28.3735 16.8685 28.1292 16.939C27.767 17.0425 26.932 14.8935 26.813 14.9153C26.6162 14.951 27.7147 17.202 27.5082 17.297C27.3942 17.3485 26.6065 16.493 26.4697 16.3633Z" fill="#414141"/>
<path d="M28.7843 18.7829C28.7647 18.7828 28.7454 18.7779 28.7281 18.7686C28.7108 18.7592 28.6961 18.7457 28.6854 18.7293C28.6746 18.7128 28.6681 18.694 28.6664 18.6744C28.6648 18.6548 28.668 18.6351 28.6758 18.6171C28.7613 18.4269 28.891 18.2598 29.0541 18.1299C29.0668 18.121 29.0812 18.1147 29.0964 18.1114C29.1116 18.1081 29.1273 18.1078 29.1426 18.1105C29.1579 18.1132 29.1725 18.119 29.1856 18.1273C29.1987 18.1357 29.21 18.1466 29.2188 18.1594C29.2277 18.1721 29.234 18.1865 29.2373 18.2017C29.2407 18.2169 29.241 18.2326 29.2382 18.2479C29.2355 18.2631 29.2297 18.2778 29.2214 18.2908C29.213 18.3039 29.2021 18.3152 29.1893 18.3241C29.0616 18.4285 28.96 18.5614 28.8928 18.7121C28.8835 18.7331 28.8683 18.751 28.8491 18.7636C28.8298 18.7761 28.8073 18.7828 28.7843 18.7829Z" fill="#414141"/>
<path d="M41.5173 39.729C41.9385 39.9246 42.396 40.0296 42.8603 40.037C42.8603 40.037 43.1553 40.8358 42.0956 41.7035C42.0956 41.7035 41.8083 42.0635 42.1366 42.7748C42.4648 43.486 41.8903 43.2055 41.8493 43.144C41.6884 42.9918 41.5669 42.8026 41.4954 42.593C41.424 42.3833 41.4046 42.1593 41.4391 41.9405C41.3098 42.1299 41.2212 42.3441 41.1789 42.5695C41.1365 42.7948 41.1412 43.0266 41.1928 43.25C41.3428 44.0808 40.8928 43.4585 40.8648 43.4105C40.7293 43.1187 40.6415 42.8071 40.6048 42.4875C40.5022 42.8402 40.4652 43.2087 40.4956 43.5748C40.5148 43.9718 40.2223 43.8813 40.0921 43.5748C39.9621 43.0394 39.9447 42.4829 40.0408 41.9405C39.8601 42.351 39.7237 42.7796 39.6338 43.219C39.5161 43.8333 38.9571 42.644 39.7228 41.3113C39.7228 41.3113 39.2208 41.44 39.2168 41.2223C39.2128 41.0045 39.9006 40.7028 40.4203 40.7223C40.4203 40.7233 41.3296 40.525 41.5173 39.729Z" fill="white"/>
<path d="M43.0304 39.9957C43.0233 39.9688 43.0071 39.9453 42.9845 39.9292C42.9618 39.9131 42.9343 39.9055 42.9066 39.9077C42.4501 39.9186 41.9971 39.8259 41.5816 39.6364C41.5672 39.6296 41.5516 39.6257 41.5357 39.625C41.5198 39.6243 41.5039 39.6268 41.4889 39.6323C41.474 39.6379 41.4603 39.6464 41.4487 39.6573C41.4371 39.6682 41.4278 39.6813 41.4214 39.6959C41.3594 39.8855 41.2555 40.0586 41.1173 40.2024C40.9791 40.3462 40.8103 40.457 40.6234 40.5264C40.5881 40.5312 38.9984 40.7537 39.0919 41.2904C39.1276 41.4959 39.5436 41.4427 39.5436 41.4427C39.2304 41.7999 38.9871 43.4857 39.5544 43.5407C39.7261 43.5574 39.9074 42.3934 39.9261 42.3182C39.9074 42.4054 39.6829 43.9182 40.4406 43.9182C40.7049 43.9182 40.5741 43.1089 40.5876 42.9229C40.6323 43.2132 40.7635 43.4833 40.9641 43.6979C41.1089 43.8264 41.4661 43.8312 41.3259 43.2979C41.2284 42.9597 41.2339 42.6 41.3416 42.2649C41.3521 42.5186 41.4341 42.7642 41.5781 42.9734C42.1319 43.7364 42.4601 43.1574 42.3004 42.8517C41.9089 42.1017 42.1564 41.8267 42.1774 41.8057C43.2934 41.0389 43.0419 40.0374 43.0304 39.9957ZM40.0411 40.8749C39.9273 40.9767 39.8188 41.0844 39.7161 41.1974C38.7226 41.3432 39.9544 40.8144 40.0411 40.8749ZM42.0911 42.9624C42.3661 43.4897 41.2736 42.6999 41.6161 41.7824C41.6232 41.7574 41.6218 41.7308 41.6122 41.7066C41.6026 41.6824 41.5854 41.6621 41.5631 41.6487C41.5408 41.6353 41.5147 41.6296 41.4889 41.6325C41.4631 41.6354 41.4389 41.6467 41.4201 41.6647C41.3951 41.6884 40.8271 42.2537 41.0951 43.3552C41.1097 43.4104 41.1181 43.4671 41.1201 43.5242C41.0448 43.4496 40.9843 43.3616 40.9416 43.2647C40.8329 43.0204 40.7785 42.7555 40.782 42.4882C40.7856 42.2208 40.847 41.9575 40.9621 41.7162C40.9742 41.6888 40.9756 41.6579 40.9659 41.6297C40.9562 41.6014 40.9362 41.5778 40.9098 41.5637C40.8835 41.5495 40.8528 41.5459 40.8238 41.5534C40.7949 41.561 40.7699 41.5792 40.7539 41.6044C40.4095 42.1935 40.2781 42.883 40.3819 43.5574C40.4001 43.6614 40.3341 43.7237 40.2546 43.6074C40.1751 43.4912 39.8609 42.8442 40.4421 41.5254C40.4939 41.4079 40.3229 41.3192 40.2296 41.4004C39.7161 41.8557 39.5576 43.1397 39.5171 43.2539C39.4481 43.0484 39.4225 42.8308 39.4421 42.6149C39.4451 42.307 39.5178 42.0038 39.6547 41.728C39.7916 41.4522 39.9892 41.211 40.2326 41.0224C40.2714 40.9937 40.6019 40.7974 40.7221 40.7404C40.9168 40.6673 41.0942 40.5547 41.2433 40.4097C41.3924 40.2647 41.5098 40.0905 41.5884 39.8979C41.977 40.0612 42.394 40.1467 42.8156 40.1494C42.8426 40.3929 42.8334 41.0697 42.0366 41.6147C42.034 41.6162 42.0316 41.6181 42.0294 41.6202C42.0121 41.6354 41.5866 41.9934 42.0911 42.9614V42.9624Z" fill="#414141"/>
<path d="M45.5882 34.2146C46.5889 33.8736 47.564 33.4617 48.5062 32.9821C48.2392 30.1136 46.8995 25.6889 46.687 24.9999C45.8324 25.0984 44.9838 25.2438 44.1452 25.4354C44.1147 25.4425 44.0825 25.4372 44.0558 25.4206C44.0292 25.4041 44.0102 25.3776 44.0031 25.347C43.996 25.3165 44.0013 25.2843 44.0178 25.2577C44.0344 25.231 44.0609 25.212 44.0915 25.2049C44.9719 25.003 45.8633 24.8527 46.7612 24.7549C46.7881 24.7524 46.815 24.7592 46.8374 24.7742C46.8598 24.7892 46.8764 24.8114 46.8845 24.8371C46.9002 24.8871 48.4777 29.9181 48.7492 33.0404C48.7513 33.0638 48.7464 33.0873 48.735 33.1079C48.7236 33.1285 48.7064 33.1452 48.6855 33.1559C47.7078 33.6553 46.6958 34.0844 45.6572 34.4401C45.6281 34.4467 45.5977 34.442 45.5719 34.427C45.5461 34.412 45.5269 34.3879 45.5182 34.3594C45.5095 34.3309 45.5119 34.3001 45.5248 34.2733C45.5378 34.2464 45.5605 34.2255 45.5882 34.2146Z" fill="#414141"/>
<path d="M47.0179 32.5407C46.9894 32.5407 46.9619 32.5304 46.9404 32.5117C46.9189 32.493 46.9049 32.4672 46.9009 32.4389C46.6222 30.505 46.2123 28.5922 45.6739 26.7139C45.666 26.6842 45.6699 26.6526 45.6849 26.6257C45.6999 26.5989 45.7247 26.5789 45.7542 26.57C45.7836 26.5611 45.8153 26.564 45.8427 26.5781C45.87 26.5922 45.8908 26.6163 45.9007 26.6454C46.4421 28.5358 46.8545 30.4607 47.1352 32.4069C47.1374 32.4236 47.136 32.4406 47.1311 32.4567C47.1262 32.4729 47.118 32.4877 47.1069 32.5004C47.0958 32.5131 47.0821 32.5232 47.0667 32.5302C47.0514 32.5371 47.0348 32.5407 47.0179 32.5407Z" fill="#414141"/>
<path d="M38.8939 34.7014C38.8685 34.7013 38.8437 34.6931 38.8233 34.6779C38.8029 34.6628 38.788 34.6414 38.7806 34.6171C38.2924 32.9896 37.7171 30.1766 37.7114 30.1484C37.7083 30.1331 37.7082 30.1175 37.7111 30.1022C37.7141 30.087 37.72 30.0725 37.7286 30.0595C37.7372 30.0465 37.7482 30.0354 37.7611 30.0267C37.7739 30.018 37.7884 30.012 37.8036 30.0089C37.8188 30.0058 37.8345 30.0057 37.8498 30.0086C37.865 30.0116 37.8795 30.0175 37.8925 30.0261C37.9054 30.0347 37.9166 30.0457 37.9253 30.0586C37.9339 30.0714 37.94 30.0859 37.9431 30.1011C37.9489 30.1294 38.5221 32.9319 39.0074 34.5491C39.0127 34.5668 39.0138 34.5855 39.0106 34.6036C39.0074 34.6218 38.9999 34.639 38.9889 34.6538C38.9779 34.6686 38.9635 34.6806 38.947 34.6888C38.9305 34.6971 38.9123 34.7014 38.8939 34.7014Z" fill="#414141"/>
<path d="M40.4548 34.2911C40.4294 34.2911 40.4047 34.2829 40.3844 34.2678C40.3641 34.2526 40.3491 34.2314 40.3418 34.2071C39.881 32.6896 39.215 29.8794 39.2083 29.8511C39.201 29.8206 39.2062 29.7884 39.2227 29.7617C39.2392 29.735 39.2656 29.716 39.2961 29.7087C39.3267 29.7015 39.3588 29.7067 39.3855 29.7232C39.4122 29.7397 39.4313 29.7661 39.4385 29.7966C39.4453 29.8249 40.1095 32.6279 40.568 34.1384C40.5734 34.1561 40.5746 34.1748 40.5714 34.193C40.5683 34.2112 40.5609 34.2284 40.5499 34.2433C40.5389 34.2582 40.5245 34.2702 40.508 34.2785C40.4915 34.2868 40.4733 34.2911 40.4548 34.2911Z" fill="#414141"/>
<path d="M37.5138 29.2719C37.487 29.2719 37.4611 29.2628 37.4401 29.2461C37.4192 29.2294 37.4045 29.2061 37.3985 29.18C37.3925 29.1539 37.3955 29.1265 37.4071 29.1024C37.4186 29.0782 37.438 29.0587 37.4621 29.0469C37.5786 28.9911 37.6911 28.9273 37.7988 28.8559C37.5208 28.7495 37.237 28.6587 36.9488 28.5839C36.9185 28.5757 36.8927 28.5558 36.8771 28.5286C36.8614 28.5014 36.8572 28.4691 36.8654 28.4388C36.8736 28.4085 36.8935 28.3827 36.9207 28.367C36.9479 28.3514 36.9803 28.3472 37.0106 28.3554C38.1236 28.6554 38.0898 28.7567 38.0951 28.8554C37.9401 29.0417 37.74 29.1851 37.5138 29.2719Z" fill="#87E4FF"/>
<path d="M38.9167 28.8952C39.0685 28.8301 39.2142 28.7515 39.352 28.6604C39.0714 28.5837 38.7857 28.5273 38.497 28.4917C38.4659 28.4875 38.4377 28.4711 38.4187 28.4461C38.3997 28.4211 38.3914 28.3896 38.3956 28.3585C38.3998 28.3275 38.4162 28.2993 38.4412 28.2803C38.4661 28.2613 38.4976 28.253 38.5287 28.2572C39.6432 28.4072 39.6432 28.5439 39.6432 28.6342C39.6432 28.6889 39.6432 28.8342 39.0117 29.1119C38.983 29.1245 38.9504 29.1252 38.9212 29.1138C38.892 29.1024 38.8685 29.0798 38.8559 29.051C38.8433 29.0223 38.8426 28.9897 38.854 28.9605C38.8654 28.9313 38.888 28.9078 38.9167 28.8952Z" fill="#87E4FF"/>
<path d="M37.026 35.9148C36.727 35.2335 36.4835 34.5293 36.298 33.8088C36.5645 33.7483 36.9377 33.6455 37.065 33.6113C37.3417 33.5363 37.2635 33.2363 37.19 32.9145C37.1345 32.6678 36.5235 30.4243 36.4482 30.2123C36.373 30.0003 36.308 29.9908 36.1027 30.0065C35.972 30.0165 35.6777 30.0645 35.4477 30.1088C35.3286 29.5003 35.2168 28.8905 35.1125 28.2793C36.0707 27.8528 39.7195 26.7228 40.351 26.5273C40.3105 26.4523 40.2717 26.382 40.2347 26.3158C39.4517 26.557 35.751 27.7053 34.93 28.1035C34.9071 28.1146 34.8884 28.1328 34.8766 28.1553C34.8649 28.1778 34.8606 28.2034 34.8645 28.2285C34.8665 28.2393 34.9985 29.0478 35.2145 30.1568C35.1915 30.1623 34.83 30.2403 34.8915 30.5548C34.898 30.588 34.9275 30.7165 34.9712 30.9025C34.7156 31.0175 34.5063 31.2153 34.3769 31.4639C34.2476 31.7125 34.2059 31.9975 34.2585 32.2728C34.4662 33.169 35.4835 33.1355 35.5127 33.134C35.5752 33.3815 35.6235 33.5645 35.6437 33.625C35.7247 33.868 35.8572 33.8838 36.0612 33.8535C36.2556 34.6188 36.5173 35.3654 36.8432 36.0845C36.8529 36.104 36.8678 36.1204 36.8862 36.1319C36.9045 36.1435 36.9258 36.1498 36.9475 36.15C38.4989 36.1064 40.0411 35.8958 41.5475 35.522C41.5651 35.4352 41.5818 35.3489 41.5975 35.263C40.1065 35.6688 38.5709 35.8877 37.026 35.9148ZM34.492 32.2233C34.4516 32.0093 34.4824 31.788 34.5797 31.5932C34.6769 31.3983 34.8352 31.2407 35.0305 31.1443C35.1492 31.6443 35.3217 32.359 35.4555 32.8973C35.2409 32.918 35.0261 32.8615 34.8494 32.738C34.6728 32.6144 34.5461 32.4319 34.492 32.2233Z" fill="#414141"/>
<path d="M32.1151 13.1943C32.1616 12.9998 33.0818 12.2233 33.9296 10.4318C33.9296 10.4318 35.9071 10.6898 36.8836 10.5413C37.5155 11.4827 37.9654 12.5341 38.2101 13.6413C38.5931 15.4365 38.7083 17.611 36.7161 18.2675C36.5575 19.0382 36.6531 19.8395 36.9886 20.5513C36.9886 20.5513 35.6483 22.165 33.9526 20.6513C34.3595 19.9357 34.4954 19.0975 34.3353 18.29C33.4449 17.7518 32.7416 16.9529 32.3206 16.0015C32.3206 16.0015 31.2266 16.6235 31.0111 15.7098C30.6886 14.3423 32.4026 14.8528 32.4573 14.643C32.5121 14.4333 32.0743 13.3675 32.1151 13.1943Z" fill="white"/>
<path d="M31.9811 15.554C31.8784 15.5398 31.7741 15.5398 31.6714 15.554C31.6561 15.5566 31.6404 15.5561 31.6252 15.5527C31.6101 15.5492 31.5958 15.5428 31.5831 15.5339C31.5704 15.5249 31.5596 15.5135 31.5514 15.5003C31.5431 15.4872 31.5375 15.4725 31.5349 15.4572C31.5323 15.4419 31.5327 15.4262 31.5362 15.4111C31.5396 15.3959 31.546 15.3816 31.555 15.3689C31.564 15.3563 31.5754 15.3455 31.5885 15.3372C31.6017 15.3289 31.6163 15.3233 31.6316 15.3207C31.7589 15.3023 31.8881 15.3023 32.0154 15.3207C32.0462 15.3255 32.0739 15.3422 32.0925 15.3673C32.111 15.3924 32.1189 15.4238 32.1144 15.4547C32.1099 15.4856 32.0933 15.5134 32.0684 15.5322C32.0434 15.5509 32.012 15.559 31.9811 15.5547V15.554Z" fill="#414141"/>
<path d="M40.1218 15.8397C39.7858 14.1777 37.9603 9.36323 35.8036 8.12523C34.0808 7.13623 32.8968 8.22248 32.7853 8.41948C33.3082 9.04056 33.7436 9.73029 34.0793 10.4695C35.2438 10.7995 36.8978 10.7047 36.8978 10.7047C37.6764 12.0317 38.1596 13.511 38.3143 15.0417C38.3826 16.1667 38.1696 16.7667 38.1263 16.8667C37.942 17.3121 37.6166 17.6846 37.2 17.927C36.7835 18.1694 36.2988 18.2683 35.8206 18.2085C35.7901 18.2053 35.7595 18.214 35.7353 18.2329C35.7111 18.2518 35.6952 18.2793 35.6909 18.3097C35.6866 18.3401 35.6942 18.3709 35.7122 18.3958C35.7302 18.4207 35.7571 18.4376 35.7873 18.443C36.0386 18.4685 36.2923 18.4546 36.5393 18.4017C36.4461 19.1479 36.5686 19.9051 36.8923 20.5837C35.4738 21.688 34.3898 20.8872 34.1093 20.6365C34.6671 19.7995 34.4893 18.278 34.4811 18.2115C34.4782 18.1914 34.4703 18.1723 34.4582 18.156C34.446 18.1397 34.43 18.1267 34.4116 18.1182C33.0726 17.47 32.6311 16.0932 32.3666 15.901C32.2666 15.8295 32.1598 15.9442 31.9108 16.047C31.8103 16.0808 31.7027 16.088 31.5985 16.0679C31.4943 16.0478 31.3971 16.0011 31.3164 15.9323C31.2357 15.8634 31.1741 15.7749 31.1378 15.6752C31.1015 15.5755 31.0916 15.4681 31.1091 15.3635C31.2123 14.815 31.8243 14.8165 32.0293 14.8885C32.2443 14.9635 32.5043 15.025 32.5946 14.6422C32.6391 14.457 32.4086 13.6727 32.3098 13.35C32.2971 13.3077 32.2962 13.2627 32.3072 13.2199C32.3182 13.1772 32.3406 13.1382 32.3721 13.1072C33.0384 12.3993 33.5584 11.5667 33.9021 10.6572C33.5669 9.89033 33.1214 9.1766 32.5796 8.53873C29.4241 8.55548 29.2033 11.3367 29.4401 13.0455C29.7328 15.1592 31.7151 18.298 32.2733 18.952C32.3062 18.9905 32.3486 19.0197 32.3962 19.0368C32.4439 19.0539 32.4952 19.0583 32.5451 19.0495C33.141 18.9499 33.7204 18.7692 34.2673 18.5125C34.2938 19.0012 34.2891 20.0257 33.8596 20.577C33.8414 20.5988 33.832 20.6267 33.8334 20.6551C33.8348 20.6835 33.8468 20.7103 33.8671 20.7302C35.2921 21.9917 36.4973 21.2132 37.1188 20.704C37.1409 20.6859 37.1556 20.6605 37.1602 20.6323C37.1648 20.6042 37.159 20.5754 37.1438 20.5512C36.7947 19.8705 36.6686 19.0971 36.7833 18.3407C37.1514 18.2327 37.4892 18.0401 37.7694 17.7781C38.0497 17.5162 38.2647 17.1922 38.3973 16.8322C38.9749 16.7509 39.5216 16.5214 39.9843 16.1662C40.0371 16.1316 40.0784 16.0821 40.1028 16.0239C40.1273 15.9658 40.1339 15.9017 40.1218 15.8397Z" fill="#414141"/>
<path d="M35.6253 16.1836C35.2076 16.1311 35.0486 15.5743 35.0421 15.5506C35.0352 15.5208 35.0401 15.4895 35.0558 15.4633C35.0714 15.4371 35.0966 15.4179 35.126 15.4097C35.1555 15.4016 35.1869 15.4052 35.2138 15.4197C35.2407 15.4342 35.261 15.4585 35.2703 15.4876C35.3036 15.6073 35.4373 15.9231 35.6533 15.9488C35.9248 15.9793 36.0711 15.4926 36.0723 15.4873C36.0808 15.4571 36.1009 15.4315 36.1282 15.416C36.1555 15.4006 36.1879 15.3967 36.2181 15.4051C36.2483 15.4135 36.274 15.4336 36.2894 15.4609C36.3048 15.4883 36.3088 15.5206 36.3003 15.5508C36.2938 15.5778 36.1051 16.2441 35.6253 16.1836Z" fill="#414141"/>
<path d="M35.9932 14.7232C35.973 14.7281 35.952 14.7278 35.9319 14.7225C35.9118 14.7172 35.8934 14.7069 35.8782 14.6927C35.8581 14.6687 35.8482 14.6376 35.8509 14.6064C35.8536 14.5751 35.8685 14.5462 35.8925 14.526C36.0283 14.4019 36.1298 14.2449 36.1872 14.0702C36.1927 14.0538 36.1925 14.036 36.1868 14.0197C36.1811 14.0034 36.1702 13.9894 36.1557 13.98C35.7422 13.6635 35.4615 13.2043 35.3685 12.692C35.3638 12.6609 35.3717 12.6293 35.3904 12.6041C35.409 12.5789 35.437 12.5621 35.468 12.5575C35.499 12.5528 35.5306 12.5607 35.5558 12.5793C35.5811 12.598 35.5978 12.6259 35.6025 12.657C35.6883 13.1049 35.9337 13.5065 36.2932 13.7872C36.3493 13.8268 36.391 13.8835 36.4121 13.9488C36.4332 14.0141 36.4326 14.0845 36.4102 14.1495C36.3294 14.3769 36.1846 14.5761 35.9932 14.7232Z" fill="#414141"/>
<path d="M33.666 14.0391C33.6514 14.0114 33.6484 13.979 33.6576 13.949C33.6669 13.919 33.6877 13.894 33.7155 13.8794C33.7432 13.8648 33.7756 13.8618 33.8056 13.871C33.8356 13.8803 33.8606 13.9011 33.8752 13.9289C33.8787 13.9354 34.242 14.6001 34.581 14.4349C34.6992 14.3774 34.5417 13.7754 34.4237 13.5616C34.4101 13.5343 34.4076 13.5027 34.4167 13.4736C34.4258 13.4444 34.4458 13.4199 34.4725 13.4052C34.4993 13.3904 34.5307 13.3865 34.5602 13.3943C34.5897 13.4021 34.6151 13.4211 34.631 13.4471C34.6672 13.5131 35.0502 14.4706 34.6742 14.6524C34.2035 14.8799 33.682 14.0696 33.666 14.0391Z" fill="#414141"/>
<path d="M36.1996 12.6678C36.1869 12.6391 36.1861 12.6065 36.1974 12.5773C36.2086 12.548 36.2311 12.5244 36.2598 12.5117C36.2884 12.4989 36.321 12.4981 36.3503 12.5094C36.3795 12.5207 36.4031 12.5431 36.4159 12.5718C36.4926 12.744 36.7721 13.225 37.0249 13.1363C37.1804 13.0815 37.0484 12.524 36.9536 12.324C36.947 12.31 36.9432 12.2948 36.9424 12.2792C36.9416 12.2637 36.9439 12.2482 36.9492 12.2335C36.9544 12.2189 36.9625 12.2054 36.9729 12.1939C36.9833 12.1824 36.996 12.173 37.01 12.1664C37.0241 12.1598 37.0393 12.1559 37.0548 12.1552C37.0703 12.1544 37.0859 12.1567 37.1005 12.1619C37.1151 12.1672 37.1286 12.1752 37.1401 12.1857C37.1516 12.1961 37.161 12.2087 37.1676 12.2228C37.1974 12.2858 37.5394 13.1703 37.0966 13.3618C36.6806 13.542 36.2146 12.7 36.1996 12.6678Z" fill="#414141"/>
<path d="M35.6729 11.7811C35.6543 11.781 35.636 11.7766 35.6194 11.7682C35.6029 11.7598 35.5885 11.7476 35.5776 11.7326C35.5666 11.7176 35.5593 11.7003 35.5563 11.6819C35.5532 11.6636 35.5546 11.6448 35.5601 11.6271C35.6357 11.3894 35.7982 11.189 36.0151 11.0659C36.232 10.9428 36.4873 10.9061 36.7301 10.9631C36.7454 10.966 36.7599 10.9719 36.7729 10.9805C36.7858 10.989 36.797 11.0001 36.8057 11.0129C36.8144 11.0258 36.8205 11.0402 36.8236 11.0555C36.8267 11.0707 36.8268 11.0863 36.8239 11.1016C36.8209 11.1168 36.815 11.1314 36.8065 11.1443C36.7979 11.1573 36.7869 11.1685 36.774 11.1772C36.7612 11.1859 36.7467 11.1919 36.7315 11.1951C36.7163 11.1982 36.7006 11.1983 36.6854 11.1953C36.4996 11.15 36.3036 11.1767 36.1366 11.2699C35.9697 11.3632 35.8442 11.5161 35.7854 11.6981C35.7778 11.7221 35.7629 11.743 35.7426 11.7579C35.7224 11.7728 35.698 11.7809 35.6729 11.7811Z" fill="#414141"/>
<path d="M33.0226 13.1238C33.0031 13.1237 32.9838 13.1189 32.9666 13.1096C32.9494 13.1004 32.9348 13.087 32.924 13.0707C32.9132 13.0544 32.9066 13.0358 32.9048 13.0163C32.903 12.9969 32.906 12.9773 32.9136 12.9593C33.0311 12.7007 33.2316 12.4889 33.4832 12.3572C33.7348 12.2256 34.0232 12.1817 34.3026 12.2325C34.3335 12.2381 34.3609 12.2556 34.3789 12.2814C34.3968 12.3072 34.4037 12.339 34.3982 12.3699C34.3927 12.4008 34.3751 12.4282 34.3493 12.4462C34.3236 12.4641 34.2917 12.4711 34.2608 12.4655C34.034 12.4199 33.7985 12.4531 33.5931 12.5597C33.3878 12.6662 33.2249 12.8396 33.1316 13.0513C33.1226 13.0727 33.1074 13.0911 33.088 13.104C33.0686 13.1169 33.0459 13.1238 33.0226 13.1238Z" fill="#414141"/>
<path d="M33.5122 7.37356C33.3547 6.94856 32.7917 5.79556 31.4189 6.14681C29.8097 6.55881 30.2677 8.08731 30.4604 8.57581C30.4678 8.59452 30.4791 8.61147 30.4935 8.62552C30.5079 8.63957 30.5251 8.65041 30.544 8.65733C30.5629 8.66425 30.583 8.66709 30.6031 8.66567C30.6232 8.66424 30.6427 8.65858 30.6604 8.64906C31.2097 8.35846 31.8285 8.22491 32.4487 8.26306C32.4748 8.26531 32.5011 8.26031 32.5246 8.24863C32.5481 8.23694 32.568 8.21901 32.5819 8.19681C32.7746 7.89093 33.0712 7.6649 33.4172 7.56031C33.4361 7.55484 33.4536 7.54557 33.4687 7.53305C33.4839 7.52053 33.4963 7.50504 33.5052 7.48753C33.5141 7.47002 33.5193 7.45088 33.5205 7.43127C33.5217 7.41167 33.5189 7.39202 33.5122 7.37356Z" fill="#414141"/>
<path d="M33.4531 15.7168C33.4531 15.8006 33.5007 15.8809 33.5853 15.9402C33.6699 15.9995 33.7847 16.0328 33.9044 16.0328C34.0241 16.0328 34.1388 15.9995 34.2235 15.9402C34.3081 15.8809 34.3556 15.8006 34.3556 15.7168C34.3556 15.6329 34.3081 15.5526 34.2235 15.4933C34.1388 15.434 34.0241 15.4008 33.9044 15.4008C33.7847 15.4008 33.6699 15.434 33.5853 15.4933C33.5007 15.5526 33.4531 15.6329 33.4531 15.7168Z" fill="#FDAF31"/>
<path d="M37.2612 14.7909C37.3031 14.8635 37.3844 14.9094 37.4874 14.9184C37.5903 14.9274 37.7064 14.8989 37.81 14.839C37.9137 14.7792 37.9965 14.693 38.0402 14.5993C38.0838 14.5057 38.0848 14.4123 38.0429 14.3397C38.0222 14.3037 37.9915 14.274 37.9527 14.2521C37.9139 14.2302 37.8677 14.2167 37.8167 14.2122C37.7658 14.2077 37.7111 14.2124 37.6557 14.2261C37.6003 14.2397 37.5454 14.2619 37.4941 14.2916C37.4428 14.3212 37.396 14.3576 37.3565 14.3988C37.317 14.4399 37.2856 14.4849 37.264 14.5313C37.2423 14.5777 37.231 14.6245 37.2305 14.669C37.23 14.7136 37.2404 14.755 37.2612 14.7909Z" fill="#FDAF31"/>
<path d="M34.7988 11.968C34.7988 12.0176 34.8185 12.0652 34.8536 12.1002C34.8887 12.1353 34.9362 12.155 34.9858 12.155C35.0354 12.155 35.083 12.1353 35.1181 12.1002C35.1531 12.0652 35.1728 12.0176 35.1728 11.968C35.1728 11.9184 35.1531 11.8708 35.1181 11.8358C35.083 11.8007 35.0354 11.781 34.9858 11.781C34.9362 11.781 34.8887 11.8007 34.8536 11.8358C34.8185 11.8708 34.7988 11.9184 34.7988 11.968Z" fill="#87E4FF"/>
</svg>
