<svg width="50" height="50" viewBox="0 0 50 50" fill="none" xmlns="http://www.w3.org/2000/svg">
<path d="M11.4211 17.7528C11.9138 18.1968 12.6233 18.3178 13.1521 18.2903C12.6231 18.3178 11.9308 18.5155 11.4868 19.0103C11.0428 19.503 10.9196 20.2125 10.9493 20.7413C10.9196 20.2123 10.7241 19.52 10.2293 19.076C9.73659 18.632 9.02709 18.511 8.49609 18.5385C9.02709 18.511 9.71959 18.3133 10.1636 17.8185C10.6076 17.3258 10.7286 16.6163 10.7011 16.0875C10.7286 16.6165 10.9263 17.3088 11.4211 17.7528Z" fill="#87E4FF"/>
<path d="M5.49111 26.0789C5.98611 26.5229 6.69336 26.6439 7.22436 26.6164C6.69336 26.6439 6.00311 26.8416 5.55911 27.3364C5.11511 27.8291 4.99186 28.5386 5.01961 29.0674C4.99211 28.5384 4.79436 27.8461 4.30161 27.4021C3.80661 26.9581 3.09936 26.8371 2.56836 26.8646C3.09936 26.8371 3.78961 26.6394 4.23361 26.1446C4.67761 25.6519 4.80086 24.9424 4.77311 24.4114C4.80061 24.9424 4.99836 25.6349 5.49111 26.0789Z" fill="#87E4FF"/>
<path d="M42.14 37.7163C41.9893 37.7163 41.9685 37.4971 42.1165 37.4686C43.3253 37.2371 47.362 36.3261 47.4028 36.3171C47.4347 36.3109 47.4677 36.3174 47.4949 36.3352C47.5221 36.353 47.5412 36.3806 47.5484 36.4123C47.5555 36.444 47.5501 36.4772 47.5332 36.5049C47.5163 36.5327 47.4892 36.5527 47.4578 36.5608C47.2908 36.5983 42.3113 37.7163 42.14 37.7163Z" fill="#016DAB"/>
<path d="M47.2141 41.3723C47.1444 41.3723 44.0854 40.5265 42.6906 40.2128C42.6598 40.204 42.6336 40.1838 42.6172 40.1563C42.6008 40.1287 42.5956 40.096 42.6027 40.0647C42.6097 40.0335 42.6285 40.0061 42.6551 39.9883C42.6816 39.9704 42.7141 39.9635 42.7456 39.9688C43.8414 40.2155 45.7034 40.7223 47.2457 41.1263C47.3867 41.1635 47.3599 41.3723 47.2141 41.3723Z" fill="#016DAB"/>
<path d="M38.9987 31.6339C37.8865 28.2679 35.293 25.5302 31.6325 24.1147C31.2585 23.9702 30.8677 23.8639 30.545 23.9044C30.239 23.9427 29.81 24.3314 29.4255 24.7032C28.0705 25.9579 26.2502 26.2687 24.4627 26.0707C22.985 25.9069 21.3542 25.3482 20.3112 24.7522C15.9805 25.2219 9.7932 30.1784 9.3457 38.2999C9.3457 38.2999 12.7337 43.5534 23.5485 43.5534C30.0962 43.5534 32.5457 37.1229 32.0772 34.3947C33.8672 33.4982 35.457 33.6262 37.6902 34.2194C38.2455 34.3667 39.5632 35.0252 39.553 34.9692C39.3787 34.0007 39.3087 32.5689 38.9985 31.6344L38.9987 31.6339Z" fill="white"/>
<path d="M38.9248 34.7106C38.5093 34.5261 37.9861 34.2977 37.6906 34.2192C35.2478 33.5704 33.5663 33.4764 31.5548 34.6809C31.2936 36.4799 30.7476 37.8729 30.0143 38.9412C27.2296 42.9939 21.7326 42.3779 18.7356 41.4857C15.6843 40.5787 12.1503 39.3254 11.3311 36.2584C10.8958 34.6287 10.5548 33.0454 10.5771 31.3519C10.5876 30.6254 9.61708 30.4131 9.34933 31.3434C9.27358 31.6069 8.64308 33.2399 8.92558 35.2384C7.05583 34.6442 6.37133 34.4044 5.69158 34.4702C5.44308 34.4914 5.18758 34.5631 4.99058 34.7186C4.54658 35.0796 4.74008 35.4366 5.09258 35.7211C5.03433 35.7974 4.85608 35.9089 4.76333 36.2181C4.64283 36.6304 4.80258 36.9989 5.07758 37.3289C4.71183 37.6399 4.80033 38.3041 5.00333 38.7394C5.06233 38.8661 5.13258 38.9834 5.21108 39.0921C5.08633 39.3126 5.03458 39.5894 5.06508 39.8481C5.26508 41.5499 9.43633 42.1391 11.1506 43.0109C15.8553 46.8917 21.9601 49.0241 28.2493 48.5824C30.3521 48.4359 34.3731 46.8322 36.9176 43.3807C38.6311 41.0622 39.0326 37.6151 38.9251 34.7109L38.9248 34.7106Z" fill="white"/>
<path d="M30.546 23.9044C30.153 23.9537 29.5543 24.5899 29.2588 24.8624C28.3475 27.1374 27.6828 29.5227 26.128 31.4937C25.219 32.6472 23.9445 33.5817 22.3643 33.3969C19.5583 33.0719 19.4523 29.8752 19.794 27.8042C20.1173 25.8477 20.416 25.4279 20.6458 24.9259C20.4313 24.8197 20.3123 24.7517 20.3123 24.7517C20.3123 24.7517 19.7595 24.8117 18.8985 25.0829C17.326 28.0319 13.3413 35.5952 13.6598 39.1912L13.5918 39.2909C15.0935 40.3529 17.0498 40.9837 18.7363 41.4852C21.7333 42.3774 27.2306 42.9932 30.0151 38.9407C27.9553 37.2939 29.2831 31.8757 29.7198 30.0472C30.6281 26.2334 31.5736 24.4034 31.6336 24.1147C31.2596 23.9702 30.8688 23.8639 30.546 23.9044Z" fill="#FDAF31"/>
<path d="M31.5447 12.9853C30.8947 12.3308 30.026 12.4355 29.465 13.0403L29.3537 13.0845C29.3537 13.0845 26.463 14.2315 26.3672 14.0128C26.14 13.484 26.7687 12.9445 26.7837 12.3708C26.8312 10.3273 25.5477 8.86055 24.4407 7.1818C24.3472 7.04155 23.7907 5.7713 23.608 5.7968C23.383 5.82855 23.1855 6.45105 23.1175 6.6123C22.6862 7.6063 22.4697 8.6513 22.614 9.7348C22.6455 9.9648 22.9715 10.8958 22.529 10.7905C21.2525 10.4845 20.063 8.70455 20.0947 7.5153C20.133 6.16655 20.5047 5.48455 20.3582 5.51855C19.1665 5.80105 17.3315 7.34955 16.3585 9.10405C16.2885 9.22955 16.2005 9.38555 16.1055 9.55755C16.4327 11.291 16.5722 13.6978 16.657 15.1813C16.86 18.745 18.004 21.4393 21.573 21.893C21.8645 21.9303 22.154 21.9493 22.4377 21.9503C22.654 22.8045 22.7797 24.8535 22.8 25.7458C25.0105 26.3573 27.5945 26.3763 29.4005 24.7263C29.2205 22.8405 28.8912 18.2578 29.0107 17.0988C29.033 17.0623 29.0775 16.9945 29.0775 16.9945C29.0775 16.9945 30.163 18.0203 31.2097 16.9263C31.6882 16.4265 32.148 15.4893 32.183 14.6178C32.206 14.0403 31.9562 13.3995 31.5445 12.985L31.5447 12.9853Z" fill="white"/>
<path d="M27.5344 19.5376C25.9999 21.3164 23.9046 22.1906 21.5744 21.8931C18.3479 21.4831 17.0734 19.1531 16.7441 16.2876C19.0144 15.9094 26.1199 15.2164 26.1496 15.2149C26.6304 15.1901 26.6456 15.2686 26.7634 15.7374C26.7894 15.8414 27.5344 19.5376 27.5344 19.5376Z" fill="#016DAB"/>
<path d="M38.8559 5.98662C38.4212 5.39012 37.5427 5.20737 36.7914 5.15912C37.2942 4.86987 38.2667 4.35212 38.0197 3.79212C37.8309 3.36487 37.1104 3.46712 36.8017 3.51087C35.7159 3.67137 33.6334 4.78987 32.6242 5.73787C31.9414 4.62362 30.8777 3.64237 29.3779 2.74137C23.9604 -0.507629 18.7659 1.43912 17.2299 3.78812C16.9422 4.22787 16.8734 4.29362 16.3954 4.56062C16.2344 4.65037 16.0682 4.74337 15.9297 4.85687C15.0562 5.56987 14.4879 6.51862 14.2864 7.60087C13.9199 9.55862 14.7994 12.3461 15.2417 12.0664C15.2717 12.0474 15.2922 12.0164 15.2979 11.9814C15.4564 11.0294 15.6064 10.7119 16.4687 9.16487C17.4182 7.45262 19.1424 6.02437 20.2457 5.67962C20.1152 6.23712 19.9942 6.68212 19.9704 7.51212C19.9377 8.73587 21.1222 10.5821 22.5007 10.9124C22.7114 10.9634 22.8879 10.8496 22.8839 10.5169C22.8794 10.2201 22.7519 9.81637 22.7384 9.71862C22.6069 8.73162 22.7687 7.73212 23.2332 6.66137C23.2667 6.58137 23.4657 6.01237 23.6039 5.92937C23.7374 6.04862 24.0537 6.69062 24.1762 6.93962C24.8057 8.21887 26.7144 9.99187 26.6592 12.3679C26.6452 12.9094 25.9957 13.4636 26.2532 14.0631C26.3072 14.1864 26.3972 14.3924 29.5119 13.1569C29.5293 13.15 29.5448 13.1393 29.5574 13.1256C30.0707 12.5729 30.8564 12.4694 31.4567 13.0739C31.8442 13.4641 32.0804 14.0686 32.0589 14.6136C32.0432 15.0114 31.9339 15.4476 31.7432 15.8754C31.6807 16.0151 31.8809 16.1226 31.9629 15.9931C32.0142 15.9121 33.2209 13.9966 33.5179 12.8224C33.8677 11.4374 33.9322 10.0151 33.7082 8.68437C35.5154 10.1886 38.6277 9.92437 37.4589 7.93762C37.4142 7.86312 37.2604 7.69537 37.2339 7.61262C37.3407 7.55637 37.6809 7.53737 37.7697 7.51662C38.6604 7.31912 39.3897 6.71787 38.8569 5.98712L38.8559 5.98662Z" fill="#414141"/>
<path d="M25.7941 10.686C25.7609 10.686 25.7291 10.6729 25.7056 10.6495C25.0698 10.0138 23.7693 10.1405 22.9293 10.6228C22.9006 10.6392 22.8664 10.6436 22.8344 10.6349C22.8024 10.6262 22.7752 10.6052 22.7587 10.5764C22.7422 10.5476 22.7379 10.5135 22.7466 10.4815C22.7553 10.4495 22.7763 10.4222 22.8051 10.4058C23.7453 9.86602 25.1536 9.74352 25.8826 10.4725C25.9001 10.49 25.9121 10.5123 25.9169 10.5366C25.9217 10.5608 25.9193 10.586 25.9098 10.6089C25.9003 10.6318 25.8843 10.6513 25.8637 10.665C25.8431 10.6788 25.8188 10.6861 25.7941 10.686Z" fill="#414141"/>
<path d="M16.9903 11.3405C16.9707 11.3405 16.9513 11.3359 16.9337 11.327C16.9162 11.3181 16.901 11.3052 16.8894 11.2894C16.8778 11.2735 16.8701 11.2551 16.8669 11.2358C16.8637 11.2164 16.8651 11.1965 16.8711 11.1777C17.1481 10.3057 18.4673 9.8785 19.4326 10.557C19.4579 10.5768 19.4746 10.6055 19.4793 10.6373C19.4841 10.669 19.4764 10.7014 19.458 10.7277C19.4395 10.7539 19.4117 10.7721 19.3802 10.7785C19.3487 10.7848 19.316 10.7788 19.2888 10.7617C18.4651 10.1827 17.3358 10.5407 17.1093 11.2537C17.1013 11.279 17.0855 11.3011 17.0641 11.3168C17.0427 11.3325 17.0168 11.341 16.9903 11.341V11.3405Z" fill="#414141"/>
<path d="M23.2285 13.1757C23.2092 13.1757 23.1903 13.1713 23.173 13.1627C23.1558 13.1542 23.1408 13.1418 23.1291 13.1265C23.1175 13.1113 23.1095 13.0935 23.1058 13.0746C23.1021 13.0557 23.1029 13.0363 23.1079 13.0177C23.1697 12.7935 23.442 12.6062 23.6597 12.4885C24.2872 12.155 25.0897 12.2532 25.6582 12.7322C25.6836 12.7536 25.6994 12.7842 25.7022 12.8173C25.705 12.8503 25.6946 12.8831 25.6732 12.9085C25.6518 12.9338 25.6212 12.9497 25.5882 12.9525C25.5551 12.9553 25.5223 12.9449 25.4969 12.9235C25.0059 12.5097 24.3149 12.4235 23.7777 12.709C23.5385 12.8382 23.378 12.9787 23.349 13.084C23.3417 13.1104 23.3259 13.1336 23.3042 13.1502C23.2824 13.1668 23.2558 13.1757 23.2285 13.1757Z" fill="#414141"/>
<path d="M17.2929 13.624C17.2728 13.624 17.253 13.6192 17.2351 13.6098C17.2173 13.6005 17.2019 13.587 17.1904 13.5705C17.1789 13.554 17.1715 13.5349 17.169 13.5149C17.1664 13.495 17.1687 13.4747 17.1757 13.4558C17.5179 12.5288 18.8517 12.4518 19.5802 13.0363C19.6061 13.057 19.6226 13.0872 19.6262 13.1202C19.6298 13.1531 19.6202 13.1862 19.5994 13.212C19.5787 13.2379 19.5485 13.2544 19.5156 13.2581C19.4826 13.2617 19.4495 13.252 19.4237 13.2313C18.8359 12.7598 17.6929 12.7763 17.4102 13.5425C17.4013 13.5665 17.3853 13.5871 17.3644 13.6017C17.3434 13.6163 17.3185 13.6241 17.2929 13.624Z" fill="#414141"/>
<path d="M31.0986 14.5476C31.0964 14.5313 31.091 14.5157 31.0826 14.5015C31.0743 14.4873 31.0633 14.4749 31.0501 14.4651C31.037 14.4552 31.0221 14.448 31.0061 14.4439C30.9902 14.4399 30.9736 14.439 30.9574 14.4414C30.1094 14.5614 29.8836 15.0769 29.6766 15.7384C29.6271 15.8966 29.8659 15.9714 29.9154 15.8131C29.9906 15.5721 30.0641 15.3626 30.1679 15.1909C30.3386 15.3469 30.4526 15.4541 30.5539 15.6929C30.6186 15.8446 30.8486 15.7476 30.7839 15.5951C30.6654 15.3156 30.5256 15.1786 30.3206 14.9916C30.4731 14.8369 30.6816 14.7329 30.9924 14.6889C31.0252 14.6842 31.0548 14.6666 31.0747 14.6402C31.0946 14.6137 31.1032 14.5804 31.0986 14.5476Z" fill="#414141"/>
<path d="M29.7927 12.6222C29.2557 12.9164 28.9509 13.5092 28.7322 14.0909L26.5832 15.1127C26.5532 15.1269 26.5301 15.1524 26.519 15.1837C26.5078 15.2149 26.5096 15.2493 26.5238 15.2793C26.538 15.3093 26.5635 15.3323 26.5948 15.3435C26.626 15.3546 26.6604 15.3529 26.6904 15.3387L28.6712 14.3969C28.6835 14.4171 28.7013 14.4333 28.7225 14.4437C28.7437 14.4541 28.7675 14.4583 28.791 14.4558C28.8145 14.4533 28.8368 14.4442 28.8553 14.4295C28.8738 14.4148 28.8878 14.3952 28.8957 14.3729C29.1042 13.7769 29.3882 13.1292 29.9129 12.8417C30.4594 12.5399 30.8984 12.6772 31.1707 12.8454C31.7124 13.1799 32.0854 13.9234 32.0577 14.6137C32.0412 15.0324 31.9284 15.4814 31.7402 15.8782C31.3814 16.6437 30.9684 17.1014 30.5117 17.2379C30.0064 17.3892 29.5569 17.1129 29.3154 16.9647C29.1812 16.8822 29.0544 16.8042 28.9737 16.9252C28.6159 17.4499 28.2637 18.5274 27.4382 19.4562C25.9022 21.2369 23.8537 22.0589 21.5887 21.7694C18.8342 21.4197 17.2457 19.5707 16.8669 16.2732C16.7457 15.2699 16.6789 11.9204 16.2282 9.53491C16.222 9.50235 16.2031 9.47358 16.1758 9.45492C16.1484 9.43626 16.1147 9.42924 16.0822 9.43541C16.0496 9.44158 16.0208 9.46042 16.0022 9.4878C15.9835 9.51518 15.9765 9.54886 15.9827 9.58141C16.4374 11.9899 16.4899 15.2372 16.6187 16.3027C17.0254 19.8432 18.8487 22.0082 22.3314 22.0747C22.4577 22.5809 22.7037 25.0702 22.6729 25.7399C22.6721 25.7563 22.6745 25.7727 22.6801 25.7882C22.6857 25.8037 22.6943 25.8179 22.7053 25.83C22.7164 25.8421 22.7298 25.8519 22.7447 25.8589C22.7596 25.8658 22.7757 25.8697 22.7922 25.8704C22.8086 25.8713 22.825 25.8688 22.8405 25.8633C22.856 25.8577 22.8702 25.8491 22.8823 25.838C22.8944 25.827 22.9043 25.8136 22.9112 25.7986C22.9181 25.7837 22.922 25.7676 22.9227 25.7512C22.9462 25.2382 22.7662 22.5422 22.5887 22.0744C24.6254 22.0372 26.4284 21.0702 27.6359 19.6109C28.1999 18.9579 28.5092 18.3522 28.8599 17.6482C28.8352 19.3994 29.1187 23.3192 29.2612 24.7522C29.2626 24.7687 29.2673 24.7847 29.2749 24.7994C29.2826 24.814 29.2931 24.827 29.3059 24.8376C29.3186 24.8482 29.3333 24.8561 29.3491 24.861C29.365 24.8658 29.3816 24.8675 29.3981 24.8658C29.4145 24.8642 29.4305 24.8593 29.4451 24.8514C29.4597 24.8435 29.4725 24.8329 29.4829 24.82C29.4933 24.8071 29.5011 24.7923 29.5057 24.7764C29.5103 24.7605 29.5118 24.7439 29.5099 24.7274C29.3262 22.8794 29.0479 18.4754 29.1367 17.1482C29.5964 17.4259 30.0399 17.6394 30.5834 17.4769C31.1109 17.3192 31.5764 16.8167 31.9662 15.9842C32.1712 15.5519 32.2892 15.0812 32.3072 14.6229C32.3612 13.2777 31.1417 11.8769 29.7922 12.6222H29.7927Z" fill="#414141"/>
<path d="M20.9928 15.8669C20.9612 15.8669 20.9309 15.8549 20.9078 15.8334C20.8847 15.8118 20.8706 15.7824 20.8683 15.7509C20.8433 15.4019 20.7578 14.3802 20.7226 13.9604C20.6966 13.6524 20.9521 13.7077 20.9698 13.9187C21.0041 14.3249 21.0921 15.3774 21.1176 15.7332C21.1188 15.7503 21.1164 15.7674 21.1107 15.7836C21.105 15.7998 21.096 15.8146 21.0843 15.8272C21.0726 15.8397 21.0584 15.8497 21.0427 15.8566C21.0269 15.8634 21.01 15.8669 20.9928 15.8669Z" fill="#414141"/>
<path d="M18.8555 18.2158C18.8223 18.2158 18.7905 18.2026 18.7671 18.1792C18.7436 18.1558 18.7305 18.124 18.7305 18.0908C18.7305 18.0133 19.0825 17.9463 19.7867 17.8901C20.3547 17.8446 25.0657 17.4771 25.3397 17.4668C25.503 17.4573 25.5162 17.7103 25.349 17.7166C24.8335 17.7358 18.8607 18.2158 18.8555 18.2158Z" fill="white"/>
<path d="M19.503 19.7305C19.4697 19.7305 19.4378 19.7173 19.4142 19.6939C19.3906 19.6705 19.3772 19.6387 19.377 19.6055C19.377 19.5365 19.432 19.4805 19.501 19.4805C19.501 19.4805 21.527 19.3397 21.8285 19.3235C21.8967 19.3157 21.9562 19.3725 21.96 19.4415C21.9617 19.4745 21.9503 19.507 21.9282 19.5316C21.906 19.5563 21.875 19.5712 21.842 19.573C21.5412 19.5892 19.5287 19.7305 19.503 19.7305Z" fill="white"/>
<path d="M22.9608 19.4298C22.814 19.4298 22.7868 19.226 22.9208 19.186C22.9748 19.1698 24.3115 19.036 24.5645 19.0015C24.5973 18.997 24.6306 19.0057 24.657 19.0258C24.6834 19.0458 24.7008 19.0755 24.7053 19.1083C24.7098 19.1411 24.7011 19.1744 24.681 19.2008C24.661 19.2272 24.6313 19.2445 24.5985 19.249C24.5735 19.2525 22.986 19.4298 22.9608 19.4298Z" fill="white"/>
<path d="M39.6303 35.0696C39.6483 35.0551 39.6621 35.0361 39.6704 35.0146C39.6786 34.993 39.6809 34.9696 39.677 34.9468C39.502 33.9741 39.4345 32.5478 39.1183 31.5948C37.965 28.1053 35.3228 25.4073 31.6783 23.9983C31.203 23.8148 30.8273 23.7436 30.53 23.7806C30.181 23.8243 29.7325 24.2336 29.3413 24.6116C27.8473 25.9948 25.8715 26.1011 24.477 25.9463C23.103 25.7941 21.4923 25.2828 20.3738 24.6436C20.3509 24.6305 20.3245 24.625 20.2983 24.6278C17.2655 24.9568 13.0335 27.5043 10.7288 32.3291C10.707 32.0044 10.6982 31.679 10.7023 31.3536C10.7148 30.4823 9.53779 30.2363 9.22954 31.3086C8.97379 32.1918 8.55004 33.2871 8.77304 35.0603C8.48954 34.9681 8.20704 34.8706 7.94029 34.7976C7.21804 34.5986 6.45354 34.2698 5.68104 34.3453C4.83179 34.4176 4.22429 35.0763 4.90404 35.7218C4.51979 36.0053 4.39654 36.6443 4.90604 37.3138C4.58829 37.6621 4.69629 38.3763 4.89029 38.7921C4.93979 38.8983 4.99854 39.0016 5.06554 39.1013C4.95401 39.3385 4.91089 39.602 4.94104 39.8623C5.15404 41.6751 9.23754 42.1853 11.0818 43.1158C15.9878 47.1578 22.0858 49.1396 28.258 48.7068C30.2503 48.5678 34.3903 47.0191 37.0183 43.4546C38.8273 41.0068 39.1328 37.4943 39.0568 34.9061C39.5463 35.1238 39.5595 35.1253 39.63 35.0698L39.6303 35.0696ZM28.465 25.5426C27.7975 26.5666 26.316 28.7728 25.9613 29.1173C25.7445 28.8431 25.0758 27.4873 24.49 26.1991C26.017 26.3621 27.367 26.1363 28.465 25.5426ZM24.1438 26.1558C23.0443 27.3736 21.8138 28.6648 21.4953 28.8806C21.2883 28.4353 21.0083 25.7088 20.9525 25.2183C21.9198 25.6586 23.0833 26.0031 24.1438 26.1558ZM36.8173 43.3061C34.2393 46.8031 30.1885 48.3216 28.2408 48.4576C22.1253 48.8873 16.0848 46.9183 11.2303 42.9143C11.15 42.8468 10.5403 42.6088 10.3835 42.5498C8.58529 41.8693 4.63804 41.1301 5.24179 39.3313C5.51929 39.6486 5.89279 39.9148 6.38029 40.1438C6.53029 40.2146 6.63529 39.9873 6.48654 39.9176C5.90304 39.6438 5.38829 39.2676 5.11704 38.6866C4.95429 38.3378 4.87604 37.7693 5.06779 37.5108C5.58429 38.0998 6.31254 38.5018 7.01754 38.8633C7.04705 38.8785 7.08135 38.8812 7.1129 38.8711C7.14446 38.8609 7.17068 38.8386 7.18579 38.8091C7.20091 38.7796 7.20369 38.7453 7.19351 38.7137C7.18334 38.6822 7.16105 38.656 7.13154 38.6408C6.39054 38.2608 5.49879 37.7718 5.03529 37.0638C4.76704 36.6631 4.79304 36.3646 4.86204 36.1846C4.92504 36.0203 5.03429 35.9241 5.10754 35.8893C5.70804 36.3238 6.39429 36.5113 6.83204 36.6278C7.69929 36.8586 7.63729 36.9016 7.71579 36.9016C7.85029 36.9016 7.88954 36.7168 7.76654 36.6623C7.29454 36.4528 6.63879 36.3503 6.18129 36.1696C5.78679 36.0143 4.85879 35.5861 4.85804 35.1583C4.85804 34.9506 5.10004 34.7641 5.29879 34.6858C5.92579 34.4331 6.78354 34.7051 7.37854 34.8903C8.08854 35.1108 7.78604 34.9983 8.49829 35.2333C8.77054 35.3231 9.10229 35.4338 9.45754 35.5076C9.48997 35.5143 9.52375 35.508 9.55146 35.4898C9.57917 35.4717 9.59853 35.4433 9.60529 35.4108C9.61206 35.3784 9.60566 35.3446 9.58752 35.3169C9.56938 35.2892 9.54097 35.2698 9.50854 35.2631C9.34956 35.2289 9.19194 35.1886 9.03604 35.1423C8.79729 33.4661 9.18254 32.3736 9.46954 31.3778C9.69304 30.6008 10.4605 30.7566 10.452 31.3501C10.4295 33.0518 10.7693 34.6398 11.2103 36.2906C12.0443 39.4133 15.5893 40.6811 18.6998 41.6053C19.5268 41.8516 21.2258 42.2733 23.1398 42.2733C27.838 42.2733 30.9205 39.7651 31.6693 34.7598C33.642 33.5993 35.2888 33.7103 37.6585 34.3401C37.9318 34.4126 38.4058 34.6173 38.8028 34.7931C38.8905 37.3521 38.612 40.8776 36.8173 43.3061ZM37.7233 34.0983C35.0523 33.3891 33.2713 33.3216 30.9505 34.9233C30.8498 34.9928 30.8993 35.1513 31.0215 35.1513C31.0828 35.1513 31.069 35.1368 31.3895 34.9318C31.1318 36.4921 30.6353 37.8161 29.9115 38.8703C26.8353 43.3471 20.607 41.9121 18.7713 41.3658C15.7873 40.4791 12.2593 39.2501 11.4518 36.2261C11.1863 35.2313 10.8988 34.0521 10.7718 32.8323C12.8813 28.0803 17.145 25.2413 20.285 24.8811C20.4128 24.9531 20.5463 25.0236 20.6853 25.0918C20.6965 25.1786 20.717 25.3651 20.74 25.5743C21.0978 28.8311 21.2448 29.1051 21.4275 29.1511C21.513 29.1731 21.711 29.2233 24.2905 26.3658C25.6185 29.2866 25.85 29.3973 25.9488 29.3973C26.2933 29.3973 28.796 25.4943 28.9548 25.2413C29.151 25.1052 29.3374 24.9554 29.5125 24.7931C29.7568 24.5571 30.265 24.0656 30.5605 24.0286C30.8155 23.9971 31.1515 24.0633 31.5875 24.2316C35.161 25.6133 37.7508 28.2563 38.8803 31.6736C39.165 32.5316 39.2443 33.8241 39.3953 34.7818C39.0005 34.6123 38.1503 34.2118 37.7228 34.0983H37.7233Z" fill="#414141"/>
<path d="M24.5808 15.3043C24.7774 15.3043 24.9658 15.2262 25.1048 15.0872C25.2438 14.9483 25.3218 14.7598 25.3218 14.5633C25.3218 14.3667 25.2438 14.1783 25.1048 14.0393C24.9658 13.9003 24.7774 13.8223 24.5808 13.8223C24.3843 13.8223 24.1958 13.9003 24.0569 14.0393C23.9179 14.1783 23.8398 14.3667 23.8398 14.5633C23.8398 14.7598 23.9179 14.9483 24.0569 15.0872C24.1958 15.2262 24.3843 15.3043 24.5808 15.3043Z" fill="#FDAF31"/>
<path d="M18.3973 15.678C18.5938 15.678 18.7823 15.6 18.9212 15.461C19.0602 15.322 19.1383 15.1336 19.1383 14.937C19.1383 14.7405 19.0602 14.552 18.9212 14.4131C18.7823 14.2741 18.5938 14.196 18.3973 14.196C18.2007 14.196 18.0122 14.2741 17.8733 14.4131C17.7343 14.552 17.6562 14.7405 17.6562 14.937C17.6562 15.1336 17.7343 15.322 17.8733 15.461C18.0122 15.6 18.2007 15.678 18.3973 15.678Z" fill="#FDAF31"/>
<path d="M23.5144 37.8678L23.5039 39.2568L28.3617 39.294L28.3724 37.9048L23.5144 37.8678Z" fill="white"/>
<path d="M38.8863 37.1874C37.4635 36.6687 35.148 36.2369 33.871 36.8532C33.1403 37.2079 32.811 39.1704 33.548 39.7547C34.2983 40.3532 37.5435 40.1059 38.3408 40.3804C38.6368 39.3527 38.806 38.2652 38.886 37.1874H38.8863Z" fill="#87E4FF"/>
<path d="M36.3682 37.535C36.0049 37.605 35.8414 38.6055 36.1304 38.9135C36.3129 39.1068 36.6509 39.0898 36.8674 39.1088C37.3044 39.1475 38.0099 39.153 38.5859 39.3848C38.6814 38.9218 38.7602 38.4395 38.8154 37.9363C38.0699 37.5795 37.0884 37.3968 36.3684 37.5348L36.3682 37.535Z" fill="white"/>
<path d="M38.3405 40.5054C38.2405 40.5054 38.348 40.4094 36.547 40.3396C35.3322 40.2926 33.9555 40.2396 33.4697 39.8521C32.6612 39.2116 33.0017 37.1356 33.816 36.7406C35.0607 36.1399 37.3387 36.4904 38.9285 37.0699C38.954 37.0792 38.9759 37.0966 38.9906 37.1195C39.0054 37.1424 39.0123 37.1695 39.0102 37.1966C38.9237 38.3664 38.7387 39.4491 38.4605 40.4149C38.453 40.4409 38.4372 40.4638 38.4156 40.4802C38.3939 40.4965 38.3676 40.5053 38.3405 40.5054ZM33.9247 36.9656C33.2595 37.2886 32.9747 39.1414 33.6252 39.6566C34.2922 40.1889 37.3102 40.0066 38.254 40.2264C38.5012 39.3339 38.6692 38.3411 38.7537 37.2729C37.4357 36.8069 35.1742 36.3626 33.9247 36.9656Z" fill="#414141"/>
</svg>
