<svg width="50" height="51" viewBox="0 0 50 51" fill="none" xmlns="http://www.w3.org/2000/svg">
<path d="M11.4211 18.2578C11.9138 18.7018 12.6233 18.8228 13.1521 18.7953C12.6231 18.8228 11.9308 19.0205 11.4868 19.5153C11.0428 20.008 10.9196 20.7175 10.9493 21.2463C10.9196 20.7173 10.7241 20.025 10.2293 19.581C9.73659 19.137 9.02709 19.016 8.49609 19.0435C9.02709 19.016 9.71959 18.8183 10.1636 18.3235C10.6076 17.8308 10.7286 17.1213 10.7011 16.5925C10.7286 17.1215 10.9263 17.8138 11.4211 18.2578Z" fill="#7BD2FF"/>
<path d="M5.49111 26.5864C5.98611 27.0304 6.69336 27.1514 7.22436 27.1239C6.69336 27.1514 6.00311 27.3492 5.55911 27.8439C5.11511 28.3367 4.99186 29.0462 5.01961 29.5749C4.99211 29.0459 4.79436 28.3537 4.30161 27.9097C3.80661 27.4657 3.09936 27.3447 2.56836 27.3722C3.09936 27.3447 3.78961 27.1469 4.23361 26.6522C4.67761 26.1594 4.80086 25.4499 4.77311 24.9189C4.80061 25.4499 4.99836 26.1424 5.49111 26.5864Z" fill="#7BD2FF"/>
<path d="M42.142 38.2179C41.9912 38.2179 41.9705 37.9987 42.1185 37.9702C43.3272 37.7387 47.364 36.8277 47.4047 36.8187C47.4366 36.8125 47.4696 36.819 47.4968 36.8368C47.524 36.8546 47.5432 36.8822 47.5504 36.9139C47.5575 36.9456 47.552 36.9788 47.5351 37.0065C47.5182 37.0342 47.4912 37.0543 47.4597 37.0624C47.2927 37.0999 42.3132 38.2179 42.142 38.2179Z" fill="#7BD2FF"/>
<path d="M47.2161 41.8755C47.1464 41.8755 44.0874 41.0297 42.6926 40.716C42.6618 40.7072 42.6355 40.687 42.6191 40.6595C42.6028 40.6319 42.5976 40.5992 42.6046 40.5679C42.6117 40.5367 42.6304 40.5093 42.657 40.4915C42.6836 40.4736 42.716 40.4666 42.7476 40.472C43.8434 40.7187 45.7054 41.2255 47.2476 41.6295C47.3886 41.6667 47.3619 41.8755 47.2161 41.8755Z" fill="#7BD2FF"/>
<path d="M39.0007 32.1317C37.8884 28.7657 35.2949 26.028 31.6344 24.6125C31.2604 24.468 30.8697 24.3617 30.5469 24.4022C30.2409 24.4405 29.8119 24.8292 29.4274 25.201C28.0724 26.4557 26.2522 26.7665 24.4647 26.5685C22.9869 26.4047 21.3562 25.846 20.3132 25.25C15.9824 25.7197 9.79516 30.6762 9.34766 38.7977C9.34766 38.7977 12.7357 44.0512 23.5504 44.0512C30.0982 44.0512 32.5477 37.6207 32.0792 34.8925C33.8692 33.996 35.4589 34.124 37.6922 34.7172C38.2474 34.8645 39.5652 35.523 39.5549 35.467C39.3807 34.4985 39.3107 33.0667 39.0004 32.1322L39.0007 32.1317Z" fill="white"/>
<path d="M38.9287 35.2116C38.5132 35.0271 37.99 34.7986 37.6945 34.7201C35.2517 34.0714 33.5702 33.9774 31.5587 35.1819C31.2975 36.9809 30.7515 38.3739 30.0182 39.4421C27.2335 43.4949 21.7365 42.8789 18.7395 41.9866C15.6882 41.0796 12.1542 39.8264 11.335 36.7594C10.8997 35.1296 10.5587 33.5464 10.581 31.8529C10.5915 31.1264 9.62099 30.9141 9.35324 31.8444C9.27749 32.1079 8.64699 33.7409 8.92949 35.7394C7.05974 35.1451 6.37524 34.9054 5.69549 34.9711C5.44699 34.9924 5.19149 35.0641 4.99449 35.2196C4.55049 35.5806 4.74399 35.9376 5.09649 36.2221C5.03824 36.2984 4.85999 36.4099 4.76724 36.7191C4.64674 37.1314 4.80649 37.4999 5.08149 37.8299C4.71574 38.1409 4.80424 38.8051 5.00724 39.2404C5.06624 39.3671 5.13649 39.4844 5.21499 39.5931C5.09024 39.8136 5.03849 40.0904 5.06899 40.3491C5.26899 42.0509 9.44024 42.6401 11.1545 43.5119C15.8592 47.3926 21.964 49.5251 28.2532 49.0834C30.356 48.9369 34.377 47.3331 36.9215 43.8816C38.635 41.5631 39.0365 38.1161 38.929 35.2119L38.9287 35.2116Z" fill="white"/>
<path d="M30.548 24.4022C30.155 24.4515 29.5563 25.0877 29.2608 25.3602C28.3495 27.6352 27.6848 30.0205 26.13 31.9915C25.221 33.145 23.9465 34.0795 22.3663 33.8947C19.5603 33.5697 19.4543 30.373 19.796 28.302C20.1193 26.3455 20.418 25.9257 20.6478 25.4237C20.4333 25.3175 20.3143 25.2495 20.3143 25.2495C20.3143 25.2495 19.7615 25.3095 18.9005 25.5807C17.328 28.5297 13.3432 36.093 13.6617 39.689L13.5938 39.7887C15.0955 40.8507 17.0518 41.4815 18.7383 41.983C21.7353 42.8752 27.2325 43.491 30.017 39.4385C27.9573 37.7917 29.285 32.3735 29.7218 30.545C30.63 26.7312 31.5755 24.9012 31.6355 24.6125C31.2615 24.468 30.8708 24.3617 30.548 24.4022Z" fill="#005BC3"/>
<path d="M31.5469 13.4865C30.8969 12.832 30.0282 12.9368 29.4672 13.5415L29.3559 13.5858C29.3559 13.5858 26.4652 14.7328 26.3694 14.514C26.1422 13.9853 26.7709 13.4458 26.7859 12.872C26.8334 10.8285 25.5499 9.36177 24.4429 7.68302C24.3494 7.54277 23.7929 6.27252 23.6102 6.29802C23.3852 6.32977 23.1877 6.95227 23.1197 7.11352C22.6884 8.10752 22.4719 9.15252 22.6162 10.236C22.6477 10.466 22.9737 11.397 22.5312 11.2918C21.2547 10.9858 20.0652 9.20577 20.0969 8.01652C20.1352 6.66777 20.5069 5.98577 20.3604 6.01977C19.1687 6.30227 17.3337 7.85077 16.3607 9.60527C16.2907 9.73077 16.2027 9.88677 16.1077 10.0588C16.4349 11.7923 16.5744 14.199 16.6592 15.6825C16.8622 19.2463 18.0062 21.9405 21.5752 22.3943C21.8667 22.4315 22.1562 22.4505 22.4399 22.4515C22.6562 23.3058 22.7819 25.3548 22.8022 26.247C25.0127 26.8585 27.5967 26.8775 29.4027 25.2275C29.2227 23.3418 28.8934 18.759 29.0129 17.6C29.0352 17.5635 29.0797 17.4958 29.0797 17.4958C29.0797 17.4958 30.1652 18.5215 31.2119 17.4275C31.6904 16.9278 32.1502 15.9905 32.1852 15.119C32.2082 14.5415 31.9584 13.9008 31.5467 13.4863L31.5469 13.4865Z" fill="white"/>
<path d="M27.5383 20.0372C26.0038 21.816 23.9085 22.6902 21.5783 22.3927C18.3518 21.9827 17.0773 19.6527 16.748 16.7872C19.0183 16.409 26.1238 15.716 26.1535 15.7145C26.6343 15.6897 26.6495 15.7682 26.7673 16.237C26.7933 16.341 27.5383 20.0372 27.5383 20.0372Z" fill="#7BD2FF"/>
<path d="M38.8598 6.48626C38.4251 5.88976 37.5466 5.70701 36.7953 5.65876C37.2981 5.36951 38.2706 4.85176 38.0236 4.29176C37.8348 3.86451 37.1143 3.96676 36.8056 4.01051C35.7198 4.17101 33.6373 5.28951 32.6281 6.23751C31.9453 5.12326 30.8816 4.14201 29.3818 3.24101C23.9643 -0.00799513 18.7698 1.93876 17.2338 4.28776C16.9461 4.72751 16.8773 4.79326 16.3993 5.06026C16.2383 5.15001 16.0721 5.24301 15.9336 5.35651C15.0601 6.06951 14.4918 7.01826 14.2903 8.10051C13.9238 10.0583 14.8033 12.8458 15.2456 12.566C15.2756 12.547 15.2961 12.516 15.3018 12.481C15.4603 11.529 15.6103 11.2115 16.4726 9.66451C17.4221 7.95226 19.1463 6.52401 20.2496 6.17926C20.1191 6.73676 19.9981 7.18176 19.9743 8.01176C19.9416 9.23551 21.1261 11.0818 22.5046 11.412C22.7153 11.463 22.8918 11.3493 22.8878 11.0165C22.8833 10.7198 22.7558 10.316 22.7423 10.2183C22.6108 9.23126 22.7726 8.23176 23.2371 7.16101C23.2706 7.08101 23.4696 6.51201 23.6078 6.42901C23.7413 6.54826 24.0576 7.19026 24.1801 7.43926C24.8096 8.71851 26.7183 10.4915 26.6631 12.8675C26.6491 13.409 25.9996 13.9633 26.2571 14.5628C26.3111 14.686 26.4011 14.892 29.5158 13.6565C29.5332 13.6496 29.5487 13.639 29.5613 13.6253C30.0746 13.0725 30.8603 12.969 31.4606 13.5735C31.8481 13.9638 32.0843 14.5683 32.0628 15.1133C32.0471 15.511 31.9378 15.9473 31.7471 16.375C31.6846 16.5148 31.8848 16.6223 31.9668 16.4928C32.0181 16.4118 33.2248 14.4963 33.5218 13.322C33.8716 11.937 33.9361 10.5148 33.7121 9.18401C35.5193 10.6883 38.6316 10.424 37.4628 8.43726C37.4181 8.36276 37.2643 8.19501 37.2378 8.11226C37.3446 8.05601 37.6848 8.03701 37.7736 8.01626C38.6643 7.81876 39.3936 7.21751 38.8608 6.48676L38.8598 6.48626Z" fill="#323232"/>
<path d="M25.798 11.1828C25.7648 11.1829 25.733 11.1697 25.7095 11.1463C25.0737 10.5106 23.7732 10.6373 22.9332 11.1196C22.9045 11.1361 22.8703 11.1404 22.8383 11.1317C22.8063 11.123 22.7791 11.102 22.7626 11.0732C22.7461 11.0444 22.7418 11.0103 22.7505 10.9783C22.7592 10.9463 22.7802 10.9191 22.809 10.9026C23.7492 10.3628 25.1575 10.2403 25.8865 10.9693C25.904 10.9868 25.916 11.0091 25.9208 11.0334C25.9256 11.0577 25.9232 11.0828 25.9137 11.1057C25.9042 11.1286 25.8882 11.1481 25.8676 11.1619C25.847 11.1756 25.8228 11.1829 25.798 11.1828Z" fill="#323232"/>
<path d="M16.9925 11.8395C16.9729 11.8395 16.9535 11.8349 16.9359 11.826C16.9184 11.8171 16.9032 11.8043 16.8916 11.7884C16.88 11.7725 16.8723 11.7542 16.8691 11.7348C16.8659 11.7154 16.8673 11.6955 16.8733 11.6768C17.1503 10.8048 18.4695 10.3775 19.4348 11.056C19.4601 11.0758 19.4768 11.1045 19.4815 11.1363C19.4863 11.168 19.4786 11.2004 19.4602 11.2267C19.4417 11.253 19.4139 11.2712 19.3824 11.2775C19.3509 11.2838 19.3182 11.2779 19.291 11.2608C18.4673 10.6818 17.338 11.0398 17.1115 11.7528C17.1035 11.7781 17.0877 11.8001 17.0663 11.8158C17.0449 11.8315 17.019 11.84 16.9925 11.84V11.8395Z" fill="#323232"/>
<path d="M23.2324 13.6779C23.2131 13.6779 23.1942 13.6735 23.1769 13.6649C23.1597 13.6564 23.1447 13.644 23.133 13.6287C23.1214 13.6134 23.1134 13.5957 23.1097 13.5768C23.1061 13.5579 23.1068 13.5385 23.1119 13.5199C23.1736 13.2957 23.4459 13.1084 23.6636 12.9907C24.2911 12.6572 25.0936 12.7554 25.6621 13.2344C25.6875 13.2558 25.7033 13.2864 25.7061 13.3195C25.7089 13.3525 25.6985 13.3853 25.6771 13.4107C25.6557 13.436 25.6251 13.4519 25.5921 13.4547C25.559 13.4575 25.5262 13.4471 25.5009 13.4257C25.0099 13.0119 24.3189 12.9257 23.7816 13.2112C23.5424 13.3404 23.3819 13.4809 23.3529 13.5862C23.3456 13.6126 23.3299 13.6358 23.3081 13.6524C23.2863 13.669 23.2597 13.6779 23.2324 13.6779Z" fill="#323232"/>
<path d="M17.2968 14.127C17.2767 14.127 17.2569 14.1221 17.239 14.1128C17.2212 14.1034 17.2058 14.0899 17.1943 14.0734C17.1828 14.0569 17.1755 14.0378 17.1729 14.0179C17.1703 13.9979 17.1726 13.9776 17.1796 13.9587C17.5218 13.0317 18.8556 12.9547 19.5841 13.5392C19.61 13.56 19.6265 13.5901 19.6301 13.6231C19.6337 13.6561 19.6241 13.6891 19.6033 13.715C19.5826 13.7408 19.5524 13.7574 19.5195 13.761C19.4865 13.7646 19.4535 13.755 19.4276 13.7342C18.8398 13.2627 17.6968 13.2792 17.4141 14.0455C17.4052 14.0694 17.3893 14.0901 17.3683 14.1046C17.3473 14.1192 17.3224 14.127 17.2968 14.127Z" fill="#323232"/>
<path d="M31.1006 15.049C31.0984 15.0327 31.0929 15.017 31.0846 15.0028C31.0763 14.9887 31.0652 14.9763 31.0521 14.9664C31.039 14.9565 31.024 14.9494 31.0081 14.9453C30.9922 14.9412 30.9756 14.9403 30.9593 14.9427C30.1113 15.0627 29.8856 15.5782 29.6786 16.2397C29.6291 16.398 29.8678 16.4727 29.9173 16.3145C29.9926 16.0735 30.0661 15.864 30.1698 15.6922C30.3406 15.8482 30.4546 15.9555 30.5558 16.1942C30.6206 16.346 30.8506 16.249 30.7858 16.0965C30.6673 15.817 30.5276 15.68 30.3226 15.493C30.4751 15.3382 30.6836 15.2342 30.9943 15.1902C31.0271 15.1855 31.0567 15.168 31.0766 15.1415C31.0965 15.115 31.1052 15.0818 31.1006 15.049Z" fill="#323232"/>
<path d="M29.7968 13.123C29.2598 13.4173 28.9551 14.01 28.7363 14.5918L26.5873 15.6135C26.5573 15.6277 26.5342 15.6533 26.5231 15.6845C26.512 15.7158 26.5137 15.7502 26.5279 15.7801C26.5422 15.8101 26.5677 15.8332 26.5989 15.8443C26.6302 15.8555 26.6646 15.8537 26.6946 15.8395L28.6753 14.8978C28.6877 14.9179 28.7055 14.9341 28.7267 14.9446C28.7479 14.955 28.7716 14.9592 28.7951 14.9567C28.8186 14.9542 28.8409 14.9451 28.8595 14.9304C28.878 14.9157 28.892 14.8961 28.8998 14.8738C29.1083 14.2778 29.3923 13.63 29.9171 13.3425C30.4636 13.0408 30.9026 13.178 31.1748 13.3463C31.7166 13.6808 32.0896 14.4243 32.0618 15.1145C32.0453 15.5333 31.9326 15.9823 31.7443 16.379C31.3856 17.1445 30.9726 17.6023 30.5158 17.7388C30.0106 17.89 29.5611 17.6138 29.3196 17.4655C29.1853 17.383 29.0586 17.305 28.9778 17.426C28.6201 17.9508 28.2678 19.0283 27.4423 19.957C25.9063 21.7378 23.8578 22.5598 21.5928 22.2703C18.8383 21.9205 17.2498 20.0715 16.8711 16.774C16.7498 15.7708 16.6831 12.4213 16.2323 10.0358C16.2261 10.0032 16.2073 9.97444 16.1799 9.95578C16.1525 9.93712 16.1189 9.9301 16.0863 9.93627C16.0537 9.94243 16.025 9.96128 16.0063 9.98866C15.9877 10.016 15.9806 10.0497 15.9868 10.0823C16.4416 12.4908 16.4941 15.738 16.6228 16.8035C17.0296 20.344 18.8528 22.509 22.3356 22.5755C22.4618 23.0818 22.7078 25.571 22.6771 26.2408C22.6762 26.2572 22.6787 26.2736 22.6843 26.2891C22.6898 26.3045 22.6984 26.3187 22.7095 26.3309C22.7206 26.343 22.734 26.3528 22.7489 26.3597C22.7638 26.3667 22.7799 26.3706 22.7963 26.3713C22.8127 26.3721 22.8291 26.3697 22.8446 26.3641C22.8601 26.3586 22.8743 26.35 22.8865 26.3389C22.8986 26.3278 22.9084 26.3144 22.9153 26.2995C22.9223 26.2846 22.9262 26.2684 22.9268 26.252C22.9503 25.739 22.7703 23.043 22.5928 22.5753C24.6296 22.538 26.4326 21.571 27.6401 20.1118C28.2041 19.4588 28.5133 18.853 28.8641 18.149C28.8393 19.9003 29.1228 23.82 29.2653 25.253C29.2667 25.2695 29.2714 25.2856 29.2791 25.3002C29.2868 25.3149 29.2973 25.3279 29.31 25.3385C29.3227 25.349 29.3375 25.357 29.3533 25.3618C29.3691 25.3667 29.3857 25.3683 29.4022 25.3667C29.4187 25.365 29.4347 25.3601 29.4492 25.3523C29.4638 25.3444 29.4767 25.3337 29.4871 25.3208C29.4975 25.308 29.5052 25.2932 29.5098 25.2773C29.5145 25.2614 29.5159 25.2447 29.5141 25.2283C29.3303 23.3803 29.0521 18.9763 29.1408 17.649C29.6006 17.9268 30.0441 18.1403 30.5876 17.9778C31.1151 17.82 31.5806 17.3175 31.9703 16.485C32.1753 16.0528 32.2933 15.582 32.3113 15.1238C32.3653 13.7785 31.1458 12.3778 29.7963 13.123H29.7968Z" fill="#323232"/>
<path d="M20.9967 16.3652C20.9651 16.3652 20.9348 16.3532 20.9117 16.3317C20.8886 16.3101 20.8745 16.2807 20.8722 16.2492C20.8472 15.9002 20.7617 14.8784 20.7265 14.4587C20.7005 14.1507 20.956 14.2059 20.9737 14.4169C21.008 14.8232 21.096 15.8757 21.1215 16.2314C21.1227 16.2486 21.1203 16.2657 21.1146 16.2819C21.1089 16.2981 21.0999 16.3129 21.0882 16.3255C21.0765 16.338 21.0623 16.348 21.0466 16.3548C21.0308 16.3617 21.0139 16.3652 20.9967 16.3652Z" fill="#323232"/>
<path d="M18.8555 18.7141C18.8223 18.7141 18.7905 18.7009 18.7671 18.6775C18.7436 18.6541 18.7305 18.6223 18.7305 18.5891C18.7305 18.5116 19.0825 18.4446 19.7867 18.3884C20.3547 18.3429 25.0657 17.9754 25.3397 17.9651C25.503 17.9556 25.5162 18.2086 25.349 18.2149C24.8335 18.2341 18.8607 18.7141 18.8555 18.7141Z" fill="white"/>
<path d="M19.5069 20.2334C19.4736 20.2334 19.4417 20.2203 19.4181 20.1968C19.3945 20.1734 19.3811 20.1416 19.3809 20.1084C19.3809 20.0394 19.4359 19.9834 19.5049 19.9834C19.5049 19.9834 21.5309 19.8426 21.8324 19.8264C21.9006 19.8186 21.9601 19.8754 21.9639 19.9444C21.9656 19.9775 21.9542 20.0099 21.9321 20.0346C21.9099 20.0592 21.8789 20.0741 21.8459 20.0759C21.5451 20.0921 19.5326 20.2334 19.5069 20.2334Z" fill="white"/>
<path d="M22.9608 19.926C22.814 19.926 22.7868 19.7222 22.9208 19.6822C22.9748 19.666 24.3115 19.5322 24.5645 19.4977C24.5973 19.4932 24.6306 19.502 24.657 19.522C24.6834 19.542 24.7008 19.5717 24.7053 19.6045C24.7098 19.6373 24.7011 19.6706 24.681 19.697C24.661 19.7234 24.6313 19.7407 24.5985 19.7452C24.5735 19.7487 22.986 19.926 22.9608 19.926Z" fill="white"/>
<path d="M39.6323 35.5687C39.6503 35.5543 39.6641 35.5353 39.6723 35.5137C39.6805 35.4921 39.6828 35.4687 39.679 35.446C39.504 34.4732 39.4365 33.047 39.1203 32.094C37.967 28.6045 35.3248 25.9065 31.6803 24.4975C31.205 24.314 30.8293 24.2427 30.532 24.2797C30.183 24.3235 29.7345 24.7327 29.3433 25.1107C27.8493 26.494 25.8735 26.6002 24.479 26.4455C23.105 26.2932 21.4943 25.782 20.3758 25.1427C20.3529 25.1297 20.3264 25.1241 20.3003 25.127C17.2675 25.456 13.0355 28.0035 10.7307 32.8282C10.709 32.5035 10.7001 32.1781 10.7042 31.8527C10.7167 30.9815 9.53975 30.7355 9.2315 31.8077C8.97575 32.691 8.552 33.7862 8.775 35.5595C8.4915 35.4672 8.209 35.3697 7.94225 35.2967C7.22 35.0977 6.4555 34.769 5.683 34.8445C4.83375 34.9167 4.22625 35.5755 4.906 36.221C4.52175 36.5045 4.3985 37.1435 4.908 37.813C4.59025 38.1612 4.69825 38.8755 4.89225 39.2912C4.94175 39.3975 5.0005 39.5007 5.0675 39.6005C4.95596 39.8376 4.91285 40.1012 4.943 40.3615C5.156 42.1742 9.2395 42.6845 11.0837 43.615C15.9897 47.657 22.0878 49.6387 28.26 49.206C30.2523 49.067 34.3923 47.5182 37.0203 43.9537C38.8293 41.506 39.1348 37.9935 39.0588 35.4052C39.5483 35.623 39.5615 35.6245 39.632 35.569L39.6323 35.5687ZM28.467 26.0417C27.7995 27.0657 26.318 29.272 25.9633 29.6165C25.7465 29.3422 25.0777 27.9865 24.492 26.6982C26.019 26.8612 27.369 26.6355 28.467 26.0417ZM24.1458 26.655C23.0463 27.8727 21.8158 29.164 21.4972 29.3797C21.2902 28.9345 21.0103 26.208 20.9545 25.7175C21.9218 26.1577 23.0853 26.5022 24.1458 26.655ZM36.8193 43.8052C34.2413 47.3022 30.1905 48.8207 28.2428 48.9567C22.1273 49.3865 16.0867 47.4175 11.2322 43.4135C11.152 43.346 10.5422 43.108 10.3855 43.049C8.58725 42.3685 4.64 41.6292 5.24375 39.8305C5.52125 40.1477 5.89475 40.414 6.38225 40.643C6.53225 40.7137 6.63725 40.4865 6.4885 40.4167C5.905 40.143 5.39025 39.7667 5.119 39.1857C4.95625 38.837 4.878 38.2685 5.06975 38.01C5.58625 38.599 6.3145 39.001 7.0195 39.3625C7.049 39.3776 7.0833 39.3804 7.11486 39.3702C7.14641 39.36 7.17263 39.3377 7.18775 39.3082C7.20286 39.2787 7.20564 39.2444 7.19547 39.2129C7.18529 39.1813 7.163 39.1551 7.1335 39.14C6.3925 38.76 5.50075 38.271 5.03725 37.563C4.769 37.1622 4.795 36.8637 4.864 36.6837C4.927 36.5195 5.03625 36.4232 5.1095 36.3885C5.71 36.823 6.39625 37.0105 6.834 37.127C7.70125 37.3577 7.63925 37.4007 7.71775 37.4007C7.85225 37.4007 7.8915 37.216 7.7685 37.1615C7.2965 36.952 6.64075 36.8495 6.18325 36.6687C5.78875 36.5135 4.86075 36.0852 4.86 35.6575C4.86 35.4497 5.102 35.2632 5.30075 35.185C5.92775 34.9322 6.7855 35.2042 7.3805 35.3895C8.0905 35.61 7.788 35.4975 8.50025 35.7325C8.7725 35.8222 9.10425 35.933 9.4595 36.0067C9.49192 36.0135 9.5257 36.0071 9.55341 35.989C9.58112 35.9708 9.60048 35.9424 9.60725 35.91C9.61401 35.8776 9.60762 35.8438 9.58947 35.8161C9.57133 35.7884 9.54292 35.769 9.5105 35.7622C9.35151 35.728 9.19389 35.6878 9.038 35.6415C8.79925 33.9652 9.1845 32.8727 9.4715 31.877C9.695 31.1 10.4625 31.2557 10.454 31.8492C10.4315 33.551 10.7712 35.139 11.2122 36.7897C12.0462 39.9125 15.5912 41.1802 18.7018 42.1045C19.5288 42.3507 21.2278 42.7725 23.1418 42.7725C27.84 42.7725 30.9225 40.2642 31.6713 35.259C33.644 34.0985 35.2908 34.2095 37.6605 34.8392C37.9338 34.9117 38.4078 35.1165 38.8048 35.2922C38.8925 37.8512 38.614 41.3767 36.8193 43.8052ZM37.7253 34.5975C35.0543 33.8882 33.2733 33.8207 30.9525 35.4225C30.8518 35.492 30.9013 35.6505 31.0235 35.6505C31.0848 35.6505 31.071 35.636 31.3915 35.431C31.1338 36.9912 30.6373 38.3152 29.9135 39.3695C26.8373 43.8462 20.609 42.4112 18.7732 41.865C15.7892 40.9782 12.2612 39.7492 11.4537 36.7252C11.1882 35.7305 10.9007 34.5512 10.7737 33.3315C12.8832 28.5795 17.147 25.7405 20.287 25.3802C20.4148 25.4522 20.5483 25.5227 20.6873 25.591C20.6985 25.6777 20.719 25.8642 20.742 26.0735C21.0997 29.3302 21.2467 29.6042 21.4295 29.6502C21.515 29.6722 21.713 29.7225 24.2925 26.865C25.6205 29.7857 25.852 29.8965 25.9508 29.8965C26.2953 29.8965 28.798 25.9935 28.9568 25.7405C29.1529 25.6043 29.3393 25.4545 29.5145 25.2922C29.7588 25.0562 30.267 24.5647 30.5625 24.5277C30.8175 24.4962 31.1535 24.5625 31.5895 24.7307C35.163 26.1125 37.7528 28.7555 38.8823 32.1727C39.167 33.0307 39.2463 34.3232 39.3973 35.281C39.0025 35.1115 38.1523 34.711 37.7248 34.5975H37.7253Z" fill="#323232"/>
<path d="M24.5848 15.8052C24.7813 15.8052 24.9698 15.7272 25.1087 15.5882C25.2477 15.4492 25.3258 15.2608 25.3258 15.0642C25.3258 14.8677 25.2477 14.6792 25.1087 14.5403C24.9698 14.4013 24.7813 14.3232 24.5848 14.3232C24.3882 14.3232 24.1997 14.4013 24.0608 14.5403C23.9218 14.6792 23.8438 14.8677 23.8438 15.0642C23.8438 15.2608 23.9218 15.4492 24.0608 15.5882C24.1997 15.7272 24.3882 15.8052 24.5848 15.8052Z" fill="#323232"/>
<path d="M18.3992 16.1773C18.5957 16.1773 18.7842 16.0992 18.9232 15.9603C19.0621 15.8213 19.1402 15.6328 19.1402 15.4363C19.1402 15.2398 19.0621 15.0513 18.9232 14.9123C18.7842 14.7734 18.5957 14.6953 18.3992 14.6953C18.2027 14.6953 18.0142 14.7734 17.8752 14.9123C17.7363 15.0513 17.6582 15.2398 17.6582 15.4363C17.6582 15.6328 17.7363 15.8213 17.8752 15.9603C18.0142 16.0992 18.2027 16.1773 18.3992 16.1773Z" fill="#323232"/>
<path d="M23.5144 38.3667L23.5039 39.7557L28.3617 39.7929L28.3724 38.4037L23.5144 38.3667Z" fill="white"/>
<path d="M38.8843 37.6882C37.4616 37.1694 35.1461 36.7377 33.8691 37.3539C33.1383 37.7087 32.8091 39.6712 33.5461 40.2554C34.2963 40.8539 37.5416 40.6067 38.3388 40.8812C38.6348 39.8534 38.8041 38.7659 38.8841 37.6882H38.8843Z" fill="#FDAF31"/>
<path d="M36.3682 38.0351C36.0049 38.1051 35.8414 39.1056 36.1304 39.4136C36.3129 39.6069 36.6509 39.5899 36.8674 39.6089C37.3044 39.6476 38.0099 39.6531 38.5859 39.8849C38.6814 39.4219 38.7602 38.9396 38.8154 38.4364C38.0699 38.0796 37.0884 37.8969 36.3684 38.0349L36.3682 38.0351Z" fill="white"/>
<path d="M38.3405 41.0052C38.2405 41.0052 38.348 40.9092 36.547 40.8395C35.3322 40.7925 33.9555 40.7395 33.4697 40.352C32.6612 39.7115 33.0017 37.6355 33.816 37.2405C35.0607 36.6397 37.3387 36.9902 38.9285 37.5697C38.954 37.5791 38.9759 37.5965 38.9906 37.6194C39.0054 37.6423 39.0123 37.6693 39.0102 37.6965C38.9237 38.8662 38.7387 39.949 38.4605 40.9147C38.453 40.9408 38.4372 40.9637 38.4156 40.98C38.3939 40.9964 38.3676 41.0052 38.3405 41.0052ZM33.9247 37.4655C33.2595 37.7885 32.9747 39.6412 33.6252 40.1565C34.2922 40.6887 37.3102 40.5065 38.254 40.7262C38.5012 39.8337 38.6692 38.841 38.7537 37.7727C37.4357 37.3067 35.1742 36.8625 33.9247 37.4655Z" fill="#323232"/>
</svg>
