<svg width="50" height="50" viewBox="0 0 50 50" fill="none" xmlns="http://www.w3.org/2000/svg">
<path d="M11.6289 43.675C11.6289 43.675 13.1514 37.36 23.6664 37.2275C34.3314 37.0925 36.6664 40.75 37.0289 43.675H11.6289Z" fill="#016DAB"/>
<path d="M24.5325 43.675C24.5325 43.675 24.51 41.91 24.5325 41.5025C24.5325 41.5025 23.2375 41.335 22.74 41.3425C22.8183 41.5973 22.8694 41.8595 22.8925 42.125C22.8925 42.125 20.6825 42.48 20.235 42.815C20 43 20 43.675 20 43.675H24.5325Z" fill="white"/>
<path d="M21.5918 31.0475C21.5918 31.0475 21.6468 33.7975 21.9243 34.6075C22.2018 35.4175 22.4018 36.3975 23.4243 36.94C23.4372 37.3758 23.3866 37.8112 23.2743 38.2325C23.4331 38.4186 23.6286 38.5699 23.8487 38.6767C24.0688 38.7836 24.3086 38.8437 24.5531 38.8534C24.7976 38.863 25.0414 38.8219 25.2692 38.7327C25.497 38.6435 25.7039 38.5081 25.8768 38.335C25.7959 37.8317 25.7774 37.3203 25.8218 36.8125C26.2072 36.5834 26.5348 36.2688 26.7793 35.893C27.0238 35.5172 27.1786 35.0902 27.2318 34.645C27.4543 33.0775 27.4993 31.2775 27.3893 30.8625C26.9118 30.8486 26.4442 30.7227 26.0243 30.495C25.4343 30.135 25.1518 28.5725 23.7743 28.495C23.7743 28.495 23.7518 29.3775 23.3993 29.875C23.0468 30.3725 21.9043 30.25 21.5918 31.0475Z" fill="white"/>
<path d="M36.9986 18.8876C36.8836 18.7076 37.2286 17.1601 37.2486 16.8226C37.2486 16.8226 35.6361 16.7801 34.7486 15.6101C34.7486 15.6101 33.5661 16.2501 32.3636 15.7626C32.3636 15.7626 31.8461 18.1226 31.7036 18.8026C31.5611 19.4826 31.2786 21.4776 32.7186 22.2176C32.7186 22.2176 32.6536 22.8026 32.5636 23.3226C31.9136 21.5101 29.7886 16.7251 25.6236 17.1826C25.537 16.763 25.5251 16.3314 25.5886 15.9076C25.5886 15.9076 27.0486 15.5776 27.4486 13.4751C27.6811 12.0415 27.6979 10.5812 27.4986 9.14264C27.0199 9.09438 26.5374 9.09438 26.0586 9.14264C25.3261 9.22764 25.0786 9.55764 24.4686 9.57264C23.8586 9.58764 23.4686 9.29514 22.7711 9.35264C22.0736 9.41014 21.5211 10.2376 21.4386 11.0251C21.4386 11.0251 19.9786 11.1876 20.0836 12.0026C20.1886 12.8176 21.2161 12.8026 21.2161 12.8026C21.2161 12.8026 21.6636 14.9176 22.8636 15.8026C23.1486 16.0151 23.2286 15.8026 22.9811 17.2201C22.9811 17.2201 20.2586 16.4701 16.8061 20.6301L16.7436 20.7051C16.7436 20.3076 16.7436 19.8776 16.6986 19.4076C16.5111 16.6851 15.6986 16.6576 15.6986 16.6576C14.9686 17.1951 12.1411 17.5576 11.9211 17.7376C11.7011 17.9176 11.6711 19.6251 11.6711 19.6251C11.2261 19.4951 10.2461 19.6051 10.2136 20.3751C10.1811 21.1451 11.2136 21.4551 11.2136 21.4551C11.2117 21.9544 11.3307 22.4468 11.5606 22.89C11.7905 23.3332 12.1244 23.7141 12.5336 24.0001C12.5886 24.3051 12.2836 25.7351 12.2836 25.7351C12.2836 25.7351 13.1086 26.5276 13.8311 26.5426C14.4511 26.5551 15.1036 25.7526 15.0686 25.6226C15.8452 25.4727 16.648 25.5402 17.3886 25.8176C17.3886 25.8176 18.8886 24.1801 19.0236 24.2401C19.1586 24.3001 18.6261 26.6426 18.6261 26.6426C19.1281 27.1777 19.5592 27.7751 19.9086 28.4201C19.7489 28.5134 19.6109 28.6397 19.504 28.7906C19.3971 28.9415 19.3237 29.1135 19.2886 29.2951C18.9236 30.5201 19.7886 31.1001 19.8311 31.9226C19.8561 32.5101 19.4811 33.1051 19.7311 33.7251C20.1861 34.8551 21.8986 34.5876 21.8986 34.5876C21.8336 34.3376 21.5211 31.7676 21.6036 31.0376C21.6861 30.3076 22.7761 30.4001 23.2286 30.0776C23.3211 30.0126 23.7936 29.4976 23.7936 28.4951C23.7936 28.4951 24.6811 28.2451 25.8811 30.4201C26.0786 30.7776 27.4036 30.8526 27.4036 30.8526C27.5711 31.8951 27.1911 34.8776 27.1911 34.8776C28.4011 35.2076 28.5861 34.0776 28.9661 33.6276C29.2161 33.3176 30.0361 33.2526 30.0511 32.1801C30.0511 31.3601 29.7061 30.7676 29.6186 30.1951C29.5311 29.6226 29.7186 28.7301 29.2261 28.1301C28.7336 27.5301 27.1411 26.1526 27.1636 26.1301C28.4786 24.8651 30.2411 23.8201 32.4136 23.9576C32.3999 24.0016 32.3806 24.0436 32.3561 24.0826C32.6524 24.3846 33.0496 24.5666 33.4717 24.5938C33.8938 24.6211 34.3111 24.4916 34.6436 24.2301C34.6436 24.2301 34.6636 22.8101 34.7861 22.5651C34.7861 22.5651 36.0986 22.0651 36.7711 20.3151C36.7711 20.3151 38.0511 20.4626 38.0536 19.8351C38.0536 18.9826 37.1036 19.0676 36.9986 18.8876Z" fill="white"/>
<path d="M18.782 36.4249C18.848 36.28 18.965 36.1644 19.1107 36.1003C19.2564 36.0362 19.4207 36.0281 19.572 36.0774C19.572 36.0774 19.8895 35.6799 20.4495 36.0424C20.4495 36.0424 20.9345 35.8549 21.1995 36.1574C21.4645 36.4599 21.5445 36.5549 21.717 36.6324C21.8895 36.7099 22.512 36.6449 22.3345 37.3824C22.132 38.2124 21.5845 38.1324 21.662 37.5974C21.7295 37.1749 20.8945 37.2749 20.8595 37.4474C20.8395 37.5499 20.7395 38.7224 20.522 38.7399C20.3045 38.7574 20.2545 38.4899 20.2545 38.4899C20.2545 38.4899 19.9745 39.1924 19.712 38.5249C19.712 38.5249 19.247 39.2449 18.9795 38.4899C18.9795 38.4899 18.4795 39.2524 18.2295 38.1099C17.9795 36.9674 18.1395 36.0649 18.782 36.4249Z" fill="white"/>
<path d="M46.5408 41.1624C46.3365 41.1176 46.1271 41.1007 45.9183 41.1124C45.9183 41.1124 45.9658 39.3624 45.9033 39.3024C45.6267 39.2559 45.3458 39.2399 45.0658 39.2549C45.1583 37.2549 44.3883 37.8324 44.3883 37.8324C44.0883 37.2299 43.6958 37.5349 43.6958 37.5349C43.4458 37.0924 42.9058 37.5649 42.9058 37.5649C42.3683 37.1499 41.9683 38.3449 41.8258 38.3574C41.7198 38.3593 41.6154 38.3831 41.5192 38.4274C41.4229 38.4716 41.3368 38.5353 41.2663 38.6144C41.1959 38.6936 41.1426 38.7865 41.1098 38.8872C41.077 38.988 41.0654 39.0944 41.0758 39.1999C40.2533 39.1999 37.2908 39.2249 37.2608 39.2649C37.1993 39.8711 37.1784 40.4808 37.1983 41.0899C37.1983 41.0899 36.1333 41.0649 36.1058 41.1974C36.0783 41.3299 36.0508 43.6699 36.0508 43.6699H46.5508C46.5508 43.6699 46.6158 41.2249 46.5408 41.1624Z" fill="white"/>
<path d="M5.20438 42.4649C5.20438 42.4649 5.52938 41.8649 5.92938 42.1299C5.92938 42.1299 6.17938 41.7124 6.71188 42.1074C6.71188 42.1074 7.04188 41.8749 7.41188 42.2874C7.78188 42.6999 7.75938 42.7874 7.91188 42.8399C8.0033 42.8462 8.09253 42.8707 8.1743 42.9121C8.25607 42.9534 8.3287 43.0108 8.38791 43.0807C8.44712 43.1506 8.4917 43.2317 8.51901 43.3192C8.54631 43.4067 8.55579 43.4987 8.54688 43.5899C8.54688 44.2699 8.43438 44.3649 8.29688 44.3749C7.95938 44.4049 7.98938 43.7299 7.84438 43.6649C7.59464 43.6291 7.34046 43.6393 7.09438 43.6949C7.09438 43.6949 6.99188 44.7199 6.78688 44.7349C6.73119 44.7426 6.67465 44.7291 6.62838 44.6972C6.58211 44.6653 6.54947 44.6172 6.53688 44.5624C6.53688 44.5624 6.32438 45.0624 6.03688 44.5624C6.03688 44.5624 5.66438 45.2199 5.37938 44.4849C5.37938 44.4849 5.12938 45.0324 4.81688 44.3174C4.50438 43.6024 4.49938 42.0449 5.20438 42.4649Z" fill="white"/>
<path d="M38.0547 39.2651H39.2822V41.0926H38.0547V39.2651Z" fill="#FDAF31"/>
<path d="M45.1817 39.3774V41.1274H44.0117V40.5374C44.2417 40.5999 44.4167 40.3124 44.4292 40.2874C44.4591 40.3331 44.5006 40.3699 44.5495 40.394C44.5984 40.4181 44.6529 40.4287 44.7073 40.4246C44.7616 40.4205 44.8139 40.4019 44.8587 40.3707C44.9034 40.3396 44.939 40.297 44.9617 40.2474C45.092 39.9749 45.1668 39.6792 45.1817 39.3774Z" fill="#FDAF31"/>
<path d="M10.1803 13.2749C10.1803 13.2749 9.64775 13.1549 9.83025 13.8974C10.0128 14.6399 10.7753 15.4674 11.0003 15.3524C11.2253 15.2374 11.0678 14.8699 11.0678 14.8699C11.0678 14.8699 11.2602 15.0849 11.4727 14.9974C11.6852 14.9099 12.9977 14.5274 13.3652 14.1949C13.3652 14.1949 11.7078 10.4224 11.6003 10.2599C11.4928 10.0974 11.3903 9.84243 11.0678 9.89493C10.7453 9.94743 10.9253 10.4524 10.9653 10.5474C11.0053 10.6424 11.7753 12.3099 11.7503 12.3574C11.7253 12.4049 11.2878 12.6624 11.2503 12.6074C11.2128 12.5524 10.4477 10.8974 10.3252 10.6699C10.2027 10.4424 9.54525 10.2499 9.75025 11.0699C9.95525 11.8899 10.7378 13.0549 10.7378 13.0549C10.7378 13.0549 10.3128 12.9149 10.1803 13.2749Z" fill="white"/>
<path d="M42.8152 17.6651C42.9263 17.5127 43.0893 17.4062 43.2735 17.3656C43.4577 17.3251 43.6504 17.3534 43.8152 17.4451C43.9003 17.4937 43.9984 17.5147 44.096 17.5053C44.1936 17.4959 44.2858 17.4565 44.3602 17.3926C44.4888 17.2483 44.6673 17.158 44.8598 17.1399C45.0522 17.1218 45.2444 17.1773 45.3977 17.2951C45.4738 17.3679 45.5748 17.409 45.6802 17.4101C45.8777 17.4101 45.9952 17.3951 46.1577 17.0951C46.2202 16.9826 46.4077 17.0751 46.3377 17.1926C46.2905 17.3244 46.2013 17.4372 46.0839 17.5135C45.9665 17.5898 45.8273 17.6255 45.6877 17.6151C45.5351 17.6154 45.3877 17.5603 45.2727 17.4601C45.158 17.3771 45.0169 17.3389 44.876 17.3527C44.735 17.3665 44.6041 17.4314 44.5077 17.5351C44.405 17.6382 44.2702 17.7031 44.1256 17.719C43.981 17.735 43.8353 17.7009 43.7127 17.6226C43.5936 17.5502 43.4515 17.5257 43.3151 17.554C43.1787 17.5823 43.0581 17.6613 42.9777 17.7751C42.9606 17.789 42.9395 17.797 42.9175 17.798C42.8955 17.7989 42.8738 17.7928 42.8556 17.7804C42.8374 17.7681 42.8236 17.7502 42.8163 17.7295C42.809 17.7087 42.8086 17.6861 42.8152 17.6651Z" fill="#414141"/>
<path d="M6.71755 22.8675C6.67765 22.7654 6.61782 22.6723 6.54154 22.5936C6.46527 22.5149 6.37408 22.4522 6.27331 22.4092C6.17253 22.3661 6.06419 22.3436 5.9546 22.3429C5.84501 22.3421 5.73638 22.3633 5.63505 22.405C5.44959 22.4844 5.24143 22.4928 5.05014 22.4288C4.85885 22.3647 4.69777 22.2326 4.59755 22.0575C4.5133 21.9117 4.37479 21.8051 4.21226 21.7611C4.04972 21.7171 3.87637 21.7391 3.73005 21.8225C3.71053 21.8358 3.68744 21.8429 3.6638 21.8429C3.64016 21.8429 3.61707 21.8358 3.59755 21.8225C3.58371 21.811 3.57314 21.796 3.5669 21.7792C3.56066 21.7623 3.55898 21.7441 3.56202 21.7263C3.56506 21.7086 3.57272 21.692 3.58422 21.6781C3.59572 21.6643 3.61067 21.6537 3.62755 21.6475C3.75283 21.587 3.88935 21.5533 4.0284 21.5486C4.16744 21.5438 4.30594 21.5681 4.43505 21.62C4.57746 21.6957 4.69474 21.8112 4.77255 21.9525C4.8539 22.083 4.97937 22.18 5.12617 22.2259C5.27297 22.2718 5.43135 22.2635 5.57255 22.2025C5.77797 22.1225 6.00264 22.106 6.21755 22.155C6.37975 22.1937 6.52921 22.2736 6.65142 22.387C6.77363 22.5005 6.86444 22.6436 6.91505 22.8025C6.92367 22.8287 6.92153 22.8572 6.90911 22.8818C6.89668 22.9064 6.87499 22.9251 6.8488 22.9337C6.82261 22.9424 6.79407 22.9402 6.76945 22.9278C6.74484 22.9154 6.72617 22.8937 6.71755 22.8675Z" fill="#414141"/>
<path d="M34.0457 6.16987L33.6807 6.86238L33.4082 6.71987C33.384 6.70728 33.3558 6.70481 33.3297 6.71301C33.3037 6.72122 33.282 6.73942 33.2694 6.76363C33.2568 6.78783 33.2544 6.81604 33.2626 6.84206C33.2708 6.86808 33.289 6.88978 33.3132 6.90238L33.5857 7.04488L33.2782 7.62488C33.2719 7.63686 33.2681 7.64995 33.267 7.66341C33.2658 7.67687 33.2673 7.69043 33.2713 7.70331C33.2795 7.72933 33.2977 7.75103 33.3219 7.76363C33.3461 7.77622 33.3743 7.77869 33.4004 7.77049C33.4264 7.76228 33.4481 7.74408 33.4607 7.71987L33.7657 7.13987L34.0157 7.26987C34.0399 7.28247 34.0681 7.28494 34.0941 7.27674C34.1201 7.26853 34.1418 7.25033 34.1544 7.22613C34.167 7.20192 34.1695 7.17371 34.1613 7.14769C34.1531 7.12167 34.1349 7.09997 34.1107 7.08738L33.8607 6.95737L34.2282 6.26487C34.2408 6.24067 34.2432 6.21246 34.235 6.18644C34.2268 6.16042 34.2086 6.13872 34.1844 6.12612C34.1602 6.11353 34.132 6.11106 34.106 6.11926C34.08 6.12747 34.0583 6.14567 34.0457 6.16987Z" fill="#016DAB"/>
<path d="M15.5917 8.36007C15.4646 8.36007 15.3404 8.32239 15.2348 8.25179C15.1291 8.18119 15.0468 8.08085 14.9981 7.96345C14.9495 7.84605 14.9368 7.71686 14.9616 7.59223C14.9864 7.4676 15.0475 7.35311 15.1374 7.26326C15.2273 7.1734 15.3417 7.11221 15.4664 7.08742C15.591 7.06263 15.7202 7.07535 15.8376 7.12398C15.955 7.17261 16.0553 7.25496 16.1259 7.36062C16.1965 7.46628 16.2342 7.5905 16.2342 7.71757C16.2342 7.88798 16.1665 8.0514 16.046 8.17189C15.9255 8.29238 15.7621 8.36007 15.5917 8.36007ZM15.5917 7.28257C15.5051 7.28257 15.4204 7.3083 15.3484 7.35648C15.2764 7.40467 15.2203 7.47314 15.1873 7.55323C15.1543 7.63332 15.1457 7.72141 15.1628 7.80635C15.1799 7.89128 15.2218 7.96923 15.2833 8.03032C15.3447 8.0914 15.4229 8.13287 15.5079 8.14947C15.5929 8.16607 15.681 8.15705 15.7609 8.12355C15.8408 8.09005 15.9089 8.03359 15.9567 7.96131C16.0045 7.88904 16.0297 7.80421 16.0292 7.71757C16.0286 7.60198 15.9822 7.49134 15.9002 7.40983C15.8182 7.32832 15.7073 7.28257 15.5917 7.28257Z" fill="#414141"/>
<path d="M5.26755 15.4676L4.60505 15.0976L4.78005 14.7826C4.78991 14.7594 4.79087 14.7333 4.78275 14.7095C4.77463 14.6856 4.75799 14.6656 4.73603 14.6532C4.71406 14.6408 4.6883 14.637 4.66368 14.6424C4.63906 14.6478 4.61729 14.6621 4.60255 14.6826L4.42505 15.0001C3.64505 14.5651 3.62755 14.5601 3.62255 14.5576C3.5979 14.5478 3.57044 14.548 3.54594 14.5581C3.52143 14.5682 3.50177 14.5874 3.4911 14.6116C3.48043 14.6359 3.47957 14.6633 3.48869 14.6882C3.49782 14.7131 3.51623 14.7335 3.54005 14.7451L4.32505 15.1801L4.14005 15.5001C4.12679 15.5239 4.12356 15.5521 4.13106 15.5784C4.13856 15.6046 4.15618 15.6268 4.18005 15.6401C4.20392 15.6533 4.23208 15.6566 4.25834 15.6491C4.28459 15.6416 4.30679 15.6239 4.32005 15.6001L4.50005 15.2776L5.16255 15.6476C5.18642 15.6615 5.21485 15.6654 5.24157 15.6583C5.26829 15.6513 5.29113 15.6339 5.30505 15.6101C5.31898 15.5862 5.32285 15.5578 5.31582 15.5311C5.30878 15.5043 5.29142 15.4815 5.26755 15.4676Z" fill="#016DAB"/>
<path d="M35.8647 12.29C36.8834 12.4692 37.807 13 38.4747 13.79C38.511 13.8372 38.5628 13.8699 38.621 13.8823C38.6792 13.8946 38.7399 13.8859 38.7922 13.8575C39.1647 13.6775 39.9047 13.14 39.5772 11.81C39.1497 10.06 37.1722 9.88749 36.3547 10.545C36.1228 10.7181 35.9367 10.9453 35.8125 11.2067C35.6884 11.4681 35.6299 11.7558 35.6422 12.045C35.6469 12.1047 35.6713 12.1612 35.7115 12.2056C35.7518 12.2499 35.8057 12.2796 35.8647 12.29Z" fill="#87E4FF"/>
<path d="M43.5878 24.7199C44.8053 24.3524 45.1603 22.6249 44.4728 21.2524C43.8103 19.9249 42.0553 19.6374 40.8853 19.4549C40.6822 19.4239 40.4833 19.3694 40.2928 19.2924C40.0945 19.2103 39.9245 19.0718 39.8041 18.894C39.6837 18.7163 39.6181 18.5071 39.6153 18.2924C39.5628 16.3449 39.7103 14.2049 36.7353 12.7749C34.5678 11.7299 32.7353 12.5799 32.0328 13.1974C31.3303 13.8149 30.7828 15.0249 31.7828 15.7999C32.7828 16.5749 34.6878 15.7624 34.6878 15.7624C35.8603 17.2624 37.2253 17.0124 37.2253 17.0124C37.1828 17.5624 36.9903 18.8699 36.9903 18.8699C37.6053 18.9649 38.0728 19.1974 38.0553 19.8349C38.0378 20.4724 36.8303 20.3349 36.8303 20.3349C36.8303 20.3349 36.1278 22.1224 34.7878 22.5649L34.6703 23.9349C34.6703 23.9349 39.4003 24.5874 41.4803 30.8499C42.057 30.7733 42.6049 30.5524 43.0734 30.2076C43.5419 29.8628 43.9158 29.4052 44.1603 28.8774C44.5079 28.2107 44.6395 27.4523 44.5369 26.7074C44.4343 25.9625 44.1027 25.268 43.5878 24.7199Z" fill="#87E4FF"/>
<path d="M31.5376 20.335C30.8869 21.3266 30.6442 22.5312 30.8601 23.6975C31.3545 23.6044 31.8571 23.5625 32.3601 23.5725C32.532 23.1355 32.6479 22.6785 32.7051 22.2125C32.3932 21.9951 32.1289 21.7166 31.9282 21.3938C31.7275 21.071 31.5946 20.7108 31.5376 20.335Z" fill="#87E4FF"/>
<path d="M24.7695 34.0526C24.7468 34.0524 24.7245 34.0456 24.7056 34.033C24.6866 34.0204 24.6717 34.0025 24.6627 33.9816C24.6537 33.9606 24.6509 33.9375 24.6548 33.9151C24.6587 33.8926 24.669 33.8718 24.6845 33.8551C24.8612 33.6715 25.0281 33.4787 25.1845 33.2776C24.9645 33.2776 24.6845 33.3326 24.5945 33.1676C24.5045 33.0026 24.5245 32.1526 24.527 31.6376C24.5277 31.6069 24.5404 31.5776 24.5623 31.5561C24.5843 31.5346 24.6138 31.5226 24.6445 31.5226C24.66 31.5223 24.6753 31.5251 24.6896 31.5309C24.7038 31.5367 24.7168 31.5454 24.7276 31.5564C24.7383 31.5674 24.7467 31.5805 24.7523 31.5949C24.7578 31.6093 24.7602 31.6247 24.7595 31.6401C24.7489 32.1097 24.7623 32.5794 24.7995 33.0476C24.8918 33.0578 24.9848 33.0578 25.077 33.0476C25.272 33.0476 25.3995 33.0301 25.457 33.1301C25.5145 33.2301 25.5445 33.2876 24.847 34.0126C24.8375 34.0242 24.8258 34.0337 24.8124 34.0406C24.7991 34.0475 24.7845 34.0516 24.7695 34.0526Z" fill="#414141"/>
<path d="M25.659 32.71C25.6426 32.7105 25.6264 32.7074 25.6114 32.701C25.5963 32.6946 25.5829 32.685 25.5719 32.6729C25.561 32.6608 25.5528 32.6464 25.548 32.6308C25.5432 32.6152 25.5418 32.5987 25.544 32.5825C25.574 32.295 25.7365 31.8175 26.144 31.855C26.5515 31.8925 26.644 32.5225 26.644 32.5475C26.6473 32.5637 26.6472 32.5805 26.6436 32.5967C26.64 32.6129 26.6331 32.6282 26.6231 32.6415C26.6132 32.6548 26.6006 32.6659 26.5861 32.674C26.5716 32.682 26.5555 32.6869 26.539 32.6884C26.5224 32.6898 26.5058 32.6877 26.4901 32.6822C26.4745 32.6767 26.4601 32.668 26.4481 32.6566C26.436 32.6452 26.4265 32.6313 26.4202 32.616C26.4139 32.6006 26.4109 32.5841 26.4115 32.5675C26.4115 32.5675 26.3665 32.1075 26.1315 32.0875C25.8965 32.0675 25.804 32.4025 25.7815 32.6075C25.7783 32.6371 25.7638 32.6644 25.7409 32.6835C25.7181 32.7026 25.6887 32.7121 25.659 32.71Z" fill="#414141"/>
<path d="M22.6751 32.7327C22.6598 32.7324 22.6447 32.729 22.6307 32.7227C22.6167 32.7165 22.6041 32.7075 22.5936 32.6964C22.5831 32.6852 22.575 32.672 22.5697 32.6576C22.5643 32.6433 22.5619 32.628 22.5626 32.6127C22.5801 32.0152 22.9226 31.8627 23.1201 31.8627C23.4876 31.8627 23.6201 32.3127 23.6201 32.5802C23.6221 32.6107 23.6119 32.6407 23.5917 32.6637C23.5716 32.6867 23.5431 32.7007 23.5126 32.7027C23.4821 32.7047 23.4521 32.6945 23.4291 32.6743C23.4061 32.6541 23.3921 32.6257 23.3901 32.5952C23.3901 32.5952 23.3426 32.0952 23.1076 32.0952C22.8026 32.0952 22.7826 32.6227 22.7826 32.6277C22.7798 32.655 22.7675 32.6804 22.7478 32.6996C22.7282 32.7188 22.7025 32.7305 22.6751 32.7327Z" fill="#414141"/>
<path d="M26.5406 31.5002C26.512 31.4999 26.4845 31.4893 26.4631 31.4702C26.3709 31.3854 26.2517 31.3357 26.1265 31.3297C26.0014 31.3238 25.878 31.362 25.7781 31.4377C25.7663 31.4475 25.7527 31.4547 25.738 31.459C25.7232 31.4633 25.7078 31.4646 25.6926 31.4627C25.6774 31.4609 25.6627 31.4559 25.6495 31.4481C25.6362 31.4404 25.6247 31.43 25.6156 31.4177C25.6061 31.4059 25.5989 31.3923 25.5946 31.3777C25.5903 31.3632 25.5889 31.3479 25.5905 31.3328C25.5921 31.3177 25.5967 31.303 25.6041 31.2897C25.6114 31.2764 25.6213 31.2646 25.6331 31.2552C25.7758 31.1445 25.9531 31.088 26.1334 31.0958C26.3138 31.1036 26.4856 31.1751 26.6181 31.2977C26.6362 31.3131 26.6491 31.3337 26.655 31.3568C26.6609 31.3798 26.6595 31.4041 26.651 31.4263C26.6425 31.4485 26.6273 31.4675 26.6075 31.4808C26.5878 31.494 26.5644 31.5008 26.5406 31.5002Z" fill="#414141"/>
<path d="M23.668 31.3724C23.6398 31.372 23.6126 31.3623 23.5905 31.3449C23.4913 31.2474 23.3589 31.1909 23.2199 31.1868C23.0809 31.1826 22.9454 31.231 22.8405 31.3224C22.8167 31.3419 22.7862 31.3514 22.7555 31.3491C22.7248 31.3468 22.6961 31.3327 22.6755 31.3099C22.6645 31.2991 22.6557 31.2863 22.6497 31.2722C22.6437 31.258 22.6406 31.2428 22.6406 31.2274C22.6406 31.212 22.6437 31.1968 22.6497 31.1826C22.6557 31.1684 22.6645 31.1556 22.6755 31.1449C22.8231 31.0198 23.0114 30.9531 23.2048 30.9572C23.3982 30.9614 23.5834 31.0361 23.7255 31.1674C23.7435 31.1814 23.757 31.2005 23.7641 31.2222C23.7712 31.2439 23.7718 31.2672 23.7656 31.2892C23.7594 31.3112 23.7469 31.3308 23.7295 31.3456C23.7121 31.3605 23.6907 31.3698 23.668 31.3724Z" fill="#414141"/>
<path d="M24.5875 35.3027C24.3963 35.2861 24.2143 35.2128 24.0651 35.092C23.9159 34.9713 23.8061 34.8087 23.75 34.6252C23.7448 34.597 23.7501 34.5678 23.7649 34.5432C23.7797 34.5187 23.8029 34.5003 23.8303 34.4917C23.8576 34.4831 23.8872 34.4848 23.9134 34.4965C23.9396 34.5082 23.9606 34.529 23.9725 34.5552C24.0145 34.6929 24.0962 34.8153 24.2074 34.9069C24.3185 34.9985 24.4542 35.0553 24.5975 35.0702H24.6125C25.0475 35.0702 25.155 34.5877 25.1575 34.5702C25.1647 34.5406 25.1831 34.5149 25.2088 34.4987C25.2346 34.4824 25.2656 34.4767 25.2954 34.4829C25.3252 34.4891 25.3515 34.5065 25.3687 34.5317C25.3859 34.5568 25.3926 34.5876 25.3875 34.6177C25.3567 34.808 25.2595 34.9813 25.113 35.1067C24.9665 35.2322 24.7803 35.3016 24.5875 35.3027Z" fill="#414141"/>
<path d="M26.3301 33.7351C26.3301 33.7948 26.3619 33.852 26.4187 33.8942C26.4754 33.9364 26.5523 33.9601 26.6326 33.9601C26.7128 33.9601 26.7897 33.9364 26.8465 33.8942C26.9032 33.852 26.9351 33.7948 26.9351 33.7351C26.9351 33.6755 26.9032 33.6182 26.8465 33.576C26.7897 33.5338 26.7128 33.5101 26.6326 33.5101C26.5523 33.5101 26.4754 33.5338 26.4187 33.576C26.3619 33.6182 26.3301 33.6755 26.3301 33.7351Z" fill="#FDAF31"/>
<path d="M22.625 33.71C22.625 33.7697 22.6577 33.8269 22.7158 33.8691C22.7739 33.9113 22.8528 33.935 22.935 33.935C23.0172 33.935 23.0961 33.9113 23.1542 33.8691C23.2123 33.8269 23.245 33.7697 23.245 33.71C23.245 33.6503 23.2123 33.5931 23.1542 33.5509C23.0961 33.5087 23.0172 33.485 22.935 33.485C22.8528 33.485 22.7739 33.5087 22.7158 33.5509C22.6577 33.5931 22.625 33.6503 22.625 33.71Z" fill="#FDAF31"/>
<path d="M35.6234 18.7925C35.6562 18.7988 35.6903 18.7976 35.7235 18.7887C35.7568 18.7798 35.7886 18.7634 35.8171 18.7406C35.8457 18.7178 35.8705 18.6889 35.89 18.6556C35.9095 18.6223 35.9234 18.5853 35.9309 18.5466C35.9385 18.5079 35.9394 18.4684 35.9338 18.4302C35.9282 18.392 35.916 18.356 35.8981 18.3241C35.8802 18.2923 35.8568 18.2652 35.8293 18.2445C35.8018 18.2238 35.7707 18.2098 35.7379 18.2035C35.705 18.1971 35.671 18.1984 35.6377 18.2073C35.6045 18.2161 35.5727 18.2325 35.5441 18.2553C35.5155 18.2781 35.4908 18.307 35.4713 18.3403C35.4517 18.3736 35.4378 18.4106 35.4303 18.4493C35.4228 18.488 35.4218 18.5275 35.4274 18.5657C35.4331 18.6039 35.4452 18.6399 35.4631 18.6718C35.4811 18.7037 35.5044 18.7307 35.5319 18.7514C35.5594 18.7721 35.5905 18.7861 35.6234 18.7925Z" fill="#414141"/>
<path d="M33.0846 18.0547C33.1175 18.0614 33.1518 18.0604 33.1852 18.0517C33.2187 18.0429 33.2507 18.0267 33.2795 18.0039C33.3083 17.981 33.3332 17.9521 33.3529 17.9186C33.3726 17.8852 33.3866 17.848 33.3941 17.8091C33.4017 17.7702 33.4026 17.7304 33.3969 17.6921C33.3911 17.6537 33.3788 17.6175 33.3606 17.5856C33.3425 17.5537 33.3188 17.5266 33.291 17.5061C33.2633 17.4855 33.2319 17.4717 33.1988 17.4657C33.1659 17.4593 33.1319 17.4606 33.0987 17.4695C33.0654 17.4784 33.0336 17.4947 33.005 17.5175C32.9765 17.5403 32.9517 17.5692 32.9322 17.6025C32.9127 17.6358 32.8987 17.6728 32.8912 17.7115C32.8837 17.7502 32.8827 17.7897 32.8884 17.8279C32.894 17.8661 32.9061 17.9021 32.9241 17.934C32.942 17.9659 32.9654 17.9929 32.9929 18.0136C33.0204 18.0343 33.0514 18.0483 33.0843 18.0547" fill="#414141"/>
<path d="M37.0949 19.875C37.0692 19.8758 37.044 19.8679 37.0233 19.8527C37.0027 19.8374 36.9877 19.8157 36.9808 19.791C36.9739 19.7663 36.9755 19.7399 36.9853 19.7162C36.9951 19.6925 37.0125 19.6727 37.0349 19.66C37.1274 19.6031 37.2243 19.5538 37.3249 19.5125C37.339 19.5069 37.3541 19.5041 37.3693 19.5043C37.3845 19.5045 37.3995 19.5077 37.4134 19.5138C37.4274 19.5198 37.44 19.5286 37.4505 19.5395C37.4611 19.5505 37.4693 19.5634 37.4749 19.5775C37.4809 19.5916 37.484 19.6068 37.4839 19.6221C37.4839 19.6374 37.4807 19.6525 37.4747 19.6665C37.4686 19.6806 37.4597 19.6932 37.4485 19.7037C37.4374 19.7142 37.4242 19.7223 37.4099 19.7275C37.2074 19.81 37.1624 19.875 37.0949 19.875Z" fill="#414141"/>
<path d="M33.6314 19.5152C33.3189 19.6127 33.3814 19.3027 33.4089 19.2202C33.6414 18.3927 34.4089 17.2527 34.4339 17.2052C34.5139 17.0827 34.7114 17.2052 34.6264 17.3327C34.6264 17.3327 33.8564 18.4877 33.6264 19.2802L34.1264 19.0302C34.2589 18.9652 34.3764 19.1727 34.2314 19.2377C34.2489 19.2352 33.6539 19.5152 33.6314 19.5152Z" fill="#414141"/>
<path d="M33.7013 20.7077C33.6489 20.7124 33.5962 20.7124 33.5438 20.7077C32.9863 20.6177 32.8788 19.9827 32.8763 19.9577C32.8717 19.9275 32.8792 19.8967 32.8973 19.8721C32.9153 19.8475 32.9424 19.8311 32.9726 19.8264C33.0028 19.8218 33.0335 19.8293 33.0582 19.8474C33.0828 19.8654 33.0992 19.8925 33.1038 19.9227C33.1038 19.9427 33.1913 20.4227 33.5813 20.4802C33.7006 20.5041 33.8244 20.4911 33.9361 20.4429C34.0477 20.3946 34.142 20.3134 34.2063 20.2102C34.2139 20.1967 34.224 20.1849 34.2361 20.1753C34.2483 20.1658 34.2622 20.1587 34.277 20.1545C34.2919 20.1503 34.3074 20.1491 34.3227 20.151C34.3381 20.1528 34.3529 20.1576 34.3663 20.1652C34.3798 20.1727 34.3916 20.1828 34.4012 20.195C34.4107 20.2071 34.4178 20.221 34.422 20.2358C34.4262 20.2507 34.4274 20.2662 34.4255 20.2816C34.4237 20.2969 34.4189 20.3117 34.4113 20.3252C34.3348 20.4435 34.2295 20.5406 34.1054 20.6075C33.9813 20.6744 33.8423 20.7088 33.7013 20.7077Z" fill="#414141"/>
<path d="M36.2831 17.6926C36.2604 17.6404 36.2272 17.5934 36.1855 17.5545C36.1439 17.5157 36.0946 17.4859 36.0409 17.4669C35.9872 17.4479 35.9302 17.4401 35.8734 17.4441C35.8165 17.4481 35.7611 17.4638 35.7106 17.4901C35.6834 17.5041 35.6518 17.5066 35.6228 17.4972C35.5937 17.4879 35.5696 17.4673 35.5556 17.4401C35.5417 17.413 35.5392 17.3814 35.5485 17.3523C35.5579 17.3232 35.5784 17.2991 35.6056 17.2851C35.6826 17.2435 35.7673 17.2181 35.8546 17.2108C35.9418 17.2034 36.0296 17.2141 36.1124 17.2423C36.1953 17.2705 36.2715 17.3155 36.3361 17.3745C36.4008 17.4335 36.4525 17.5052 36.4881 17.5851C36.5024 17.6123 36.5053 17.6441 36.4961 17.6734C36.487 17.7027 36.4666 17.7271 36.4394 17.7414C36.4122 17.7556 36.3805 17.7585 36.3512 17.7494C36.3219 17.7402 36.2974 17.7198 36.2831 17.6926Z" fill="#414141"/>
<path d="M33.6937 16.8926C33.6347 16.8058 33.5465 16.743 33.4452 16.7155C33.3439 16.688 33.2361 16.6976 33.1412 16.7426C33.1145 16.7516 33.0854 16.7507 33.0592 16.7399C33.0331 16.7292 33.0117 16.7095 32.999 16.6843C32.9862 16.6591 32.983 16.6301 32.9898 16.6028C32.9967 16.5754 33.0131 16.5514 33.0362 16.5351C33.1797 16.4657 33.3431 16.4494 33.4974 16.4892C33.6517 16.5291 33.7868 16.6224 33.8787 16.7526C33.8973 16.7771 33.9054 16.808 33.9011 16.8385C33.8969 16.869 33.8808 16.8965 33.8562 16.9151C33.8317 16.9337 33.8008 16.9417 33.7703 16.9375C33.7399 16.9333 33.7123 16.9171 33.6937 16.8926Z" fill="#414141"/>
<path d="M35.3301 19.8026C35.3301 19.8682 35.367 19.9311 35.4326 19.9776C35.4982 20.024 35.5873 20.0501 35.6801 20.0501C35.7729 20.0501 35.8619 20.024 35.9276 19.9776C35.9932 19.9311 36.0301 19.8682 36.0301 19.8026C36.0301 19.7369 35.9932 19.674 35.9276 19.6275C35.8619 19.5811 35.7729 19.5551 35.6801 19.5551C35.5873 19.5551 35.4982 19.5811 35.4326 19.6275C35.367 19.674 35.3301 19.7369 35.3301 19.8026Z" fill="#FDAF31"/>
<path d="M32.221 19.2034C32.2599 19.2184 32.3007 19.2275 32.3409 19.2302C32.3811 19.233 32.4201 19.2292 32.4555 19.2192C32.491 19.2092 32.5222 19.1932 32.5474 19.1721C32.5727 19.1509 32.5915 19.125 32.6027 19.0959C32.6139 19.0668 32.6173 19.0351 32.6128 19.0024C32.6083 18.9698 32.5958 18.937 32.5763 18.9058C32.5567 18.8746 32.5303 18.8457 32.4986 18.8207C32.467 18.7958 32.4307 18.7752 32.3918 18.7602C32.3529 18.7452 32.3121 18.7361 32.2719 18.7334C32.2316 18.7307 32.1927 18.7344 32.1573 18.7444C32.1218 18.7544 32.0906 18.7704 32.0653 18.7916C32.0401 18.8127 32.0213 18.8386 32.0101 18.8677C31.9989 18.8968 31.9955 18.9286 32 18.9612C32.0045 18.9938 32.0169 19.0267 32.0365 19.0578C32.0561 19.089 32.0825 19.1179 32.1141 19.1429C32.1458 19.1679 32.1821 19.1885 32.221 19.2034Z" fill="#FDAF31"/>
<path d="M24.6904 14.2874C24.5353 14.2832 24.385 14.2336 24.2579 14.1447C24.1308 14.0558 24.0325 13.9316 23.9754 13.7874C23.9638 13.7589 23.964 13.727 23.9759 13.6986C23.9879 13.6702 24.0106 13.6478 24.0391 13.6362C24.0676 13.6246 24.0996 13.6248 24.1279 13.6367C24.1563 13.6487 24.1788 13.6714 24.1904 13.6999C24.2312 13.7969 24.2977 13.881 24.3827 13.9431C24.4677 14.0052 24.568 14.043 24.6729 14.0524C25.0104 14.0649 25.1904 13.6399 25.1929 13.6349C25.1986 13.6208 25.2071 13.608 25.2178 13.5971C25.2285 13.5863 25.2412 13.5777 25.2553 13.5717C25.2693 13.5658 25.2844 13.5627 25.2996 13.5626C25.3149 13.5625 25.33 13.5654 25.3441 13.5712C25.3582 13.5769 25.3711 13.5854 25.3819 13.5961C25.3928 13.6068 25.4014 13.6196 25.4073 13.6336C25.4132 13.6477 25.4163 13.6627 25.4164 13.678C25.4165 13.6932 25.4136 13.7083 25.4079 13.7224C25.3979 13.7499 25.1729 14.2874 24.6904 14.2874Z" fill="#414141"/>
<path d="M22.6223 13.3258C22.7013 13.3351 22.7799 13.3206 22.8408 13.2853C22.9016 13.25 22.9398 13.1969 22.9468 13.1376C22.9538 13.0783 22.9292 13.0177 22.8782 12.9692C22.8273 12.9207 22.7543 12.8881 22.6753 12.8788C22.5963 12.8694 22.5177 12.8839 22.4568 12.9192C22.396 12.9545 22.3578 13.0076 22.3508 13.0669C22.3438 13.1262 22.3684 13.1868 22.4193 13.2353C22.4702 13.2838 22.5433 13.3164 22.6223 13.3258Z" fill="#FDAF31"/>
<path d="M26.4512 13.1026C26.4512 13.1622 26.4828 13.2195 26.539 13.2617C26.5953 13.3039 26.6716 13.3276 26.7512 13.3276C26.8307 13.3276 26.907 13.3039 26.9633 13.2617C27.0196 13.2195 27.0512 13.1622 27.0512 13.1026C27.0512 13.0429 27.0196 12.9857 26.9633 12.9435C26.907 12.9013 26.8307 12.8776 26.7512 12.8776C26.6716 12.8776 26.5953 12.9013 26.539 12.9435C26.4828 12.9857 26.4512 13.0429 26.4512 13.1026Z" fill="#FDAF31"/>
<path d="M26.8266 10.0751C26.4719 10.0617 26.1247 10.1791 25.8509 10.405C25.5772 10.6308 25.3959 10.9494 25.3416 11.3001C25.2618 11.2628 25.1779 11.2351 25.0916 11.2176C25.0216 10.8026 24.9441 10.5126 24.9366 10.4876C24.928 10.4581 24.908 10.4332 24.881 10.4185C24.8541 10.4037 24.8224 10.4002 24.7928 10.4089C24.7633 10.4175 24.7385 10.4375 24.7237 10.4644C24.7089 10.4914 24.7055 10.5231 24.7141 10.5526C24.7141 10.5526 24.7891 10.8201 24.8566 11.2001C24.7121 11.2052 24.5693 11.2339 24.4341 11.2851C24.4019 10.9208 24.2303 10.5829 23.9552 10.3419C23.68 10.1009 23.3225 9.97538 22.9571 9.99149C22.5916 10.0076 22.2465 10.1641 21.9936 10.4284C21.7408 10.6927 21.5996 11.0443 21.5996 11.4101C21.5996 11.7759 21.7408 12.1276 21.9936 12.3918C22.2465 12.6561 22.5916 12.8126 22.9571 12.8287C23.3225 12.8448 23.68 12.7193 23.9552 12.4783C24.2303 12.2373 24.4019 11.8995 24.4341 11.5351C24.578 11.4674 24.7351 11.4324 24.8941 11.4326C24.9597 11.8458 24.9798 12.265 24.9541 12.6826C24.9541 12.7051 24.9266 12.7026 24.9116 12.6976L24.4991 12.6276C24.4836 12.6244 24.4676 12.6244 24.4521 12.6276C24.4366 12.6308 24.422 12.6372 24.4091 12.6464C24.3962 12.6555 24.3853 12.6672 24.3771 12.6808C24.369 12.6943 24.3637 12.7094 24.3616 12.7251C24.3584 12.7544 24.3661 12.7837 24.3831 12.8077C24.4002 12.8317 24.4254 12.8485 24.4541 12.8551C24.6516 12.8898 24.8512 12.9115 25.0516 12.9201C25.1216 12.9201 25.1866 12.8901 25.1966 12.7151C25.2173 12.3026 25.198 11.889 25.1391 11.4801C25.2097 11.4994 25.2771 11.5288 25.3391 11.5676C25.348 11.8514 25.4397 12.1263 25.603 12.3585C25.7662 12.5908 25.9938 12.7702 26.2578 12.8747C26.5217 12.9792 26.8105 13.0042 27.0884 12.9467C27.3664 12.8891 27.6215 12.7515 27.8222 12.5507C28.023 12.35 28.1606 12.0949 28.2181 11.817C28.2757 11.539 28.2507 11.2502 28.1462 10.9863C28.0417 10.7223 27.8623 10.4947 27.63 10.3315C27.3978 10.1683 27.1228 10.0765 26.8391 10.0676L26.8266 10.0751ZM22.9541 12.6076C22.7234 12.5933 22.502 12.5114 22.3175 12.3721C22.133 12.2328 21.9936 12.0422 21.9167 11.8242C21.8397 11.6062 21.8287 11.3704 21.8849 11.1462C21.9411 10.9219 22.062 10.7192 22.2326 10.5632C22.4033 10.4073 22.6161 10.305 22.8444 10.2691C23.0728 10.2333 23.3067 10.2654 23.5169 10.3616C23.7271 10.4578 23.9044 10.6137 24.0266 10.8099C24.1488 11.0062 24.2105 11.234 24.2041 11.4651C24.1974 11.6223 24.1596 11.7766 24.0931 11.9192C24.0266 12.0618 23.9325 12.1898 23.8164 12.296C23.7003 12.4022 23.5643 12.4843 23.4163 12.5378C23.2683 12.5913 23.1113 12.615 22.9541 12.6076ZM26.7516 12.6726C26.5202 12.6588 26.2981 12.5771 26.1128 12.4378C25.9276 12.2985 25.7875 12.1077 25.71 11.8893C25.6325 11.6708 25.621 11.4344 25.6771 11.2095C25.7331 10.9846 25.8541 10.7811 26.025 10.6246C26.1959 10.468 26.4092 10.3653 26.6381 10.3291C26.8671 10.293 27.1016 10.3251 27.3124 10.4214C27.5232 10.5177 27.701 10.674 27.8236 10.8707C27.9461 11.0675 28.0081 11.2959 28.0016 11.5276C27.9873 11.8455 27.8474 12.1448 27.6125 12.3595C27.3776 12.5742 27.067 12.6869 26.7491 12.6726H26.7516Z" fill="#414141"/>
<path d="M48.632 43.5575H46.6795C46.702 43.0225 46.6795 41.8225 46.6795 41.3075C46.6782 41.2337 46.6483 41.1632 46.5961 41.111C46.5439 41.0587 46.4734 41.0288 46.3995 41.0275H46.047V39.4525C46.0459 39.3797 46.0171 39.31 45.9665 39.2576C45.9159 39.2051 45.8473 39.1738 45.7745 39.17C45.6195 39.17 45.4245 39.17 45.2045 39.1525C45.227 38.7975 45.192 38.12 44.9845 37.815C44.9547 37.7707 44.916 37.7329 44.8709 37.7042C44.8258 37.6755 44.7753 37.6564 44.7224 37.6482C44.6696 37.64 44.6156 37.6428 44.5639 37.6565C44.5122 37.6701 44.4639 37.6943 44.422 37.7275C44.3989 37.6585 44.3617 37.5949 44.3128 37.541C44.2638 37.4871 44.2042 37.4439 44.1376 37.4143C44.0711 37.3847 43.9991 37.3692 43.9263 37.3689C43.8534 37.3686 43.7813 37.3835 43.7145 37.4125C43.6503 37.3373 43.5637 37.2848 43.4673 37.2628C43.3709 37.2407 43.27 37.2503 43.1795 37.29C42.6795 33.79 41.0745 26.81 36.5145 24.62C35.9574 24.3498 35.3798 24.1241 34.787 23.945C34.7758 23.538 34.7993 23.1307 34.857 22.7275C34.8608 22.7028 34.8712 22.6796 34.887 22.6603C34.9029 22.6409 34.9236 22.6262 34.947 22.6175C35.3826 22.4246 35.7719 22.1407 36.0888 21.785C36.4057 21.4293 36.6429 21.0099 36.7845 20.555C36.796 20.528 36.8157 20.5052 36.8408 20.4899C36.8659 20.4747 36.8952 20.4677 36.9245 20.47C38.462 20.5275 38.1745 19.5175 38.077 19.355C37.8625 19.0885 37.5572 18.9105 37.2195 18.855C37.1832 18.8472 37.1513 18.8257 37.1303 18.795C37.1094 18.7643 37.1011 18.7267 37.107 18.69C37.162 18.3275 37.2645 17.6325 37.342 17.0575C37.346 17.027 37.3377 16.9962 37.3189 16.9718C37.3002 16.9475 37.2725 16.9315 37.242 16.9275C37.2115 16.9236 37.1807 16.9319 37.1563 16.9506C37.1319 16.9694 37.116 16.997 37.112 17.0275C37.0345 17.6 36.9295 18.2925 36.877 18.655C36.8616 18.751 36.884 18.8491 36.9394 18.9289C36.9949 19.0086 37.0792 19.0637 37.1745 19.0825C37.4503 19.1229 37.7018 19.2625 37.882 19.475C37.9545 19.5825 38.1495 20.27 36.942 20.225C36.8605 20.2199 36.7794 20.2415 36.7113 20.2866C36.6431 20.3318 36.5916 20.3979 36.5645 20.475C36.4333 20.8989 36.2131 21.29 35.9186 21.6219C35.6242 21.9539 35.2622 22.2192 34.857 22.4C34.7974 22.4237 34.7449 22.4624 34.7046 22.5123C34.6643 22.5623 34.6376 22.6218 34.627 22.685C34.5706 23.0799 34.5464 23.4787 34.5545 23.8775C34.5545 23.975 34.5995 24.225 34.4795 24.2775C34.1754 24.42 33.8415 24.4872 33.506 24.4732C33.1705 24.4593 32.8432 24.3647 32.552 24.1975C32.5216 24.1794 32.4983 24.1514 32.4861 24.1182C32.4738 24.085 32.4732 24.0486 32.4845 24.015C32.527 23.8875 32.812 22.62 32.8445 22.4275C33.0541 22.5184 33.2741 22.5831 33.4995 22.62C33.5145 22.6227 33.5298 22.6223 33.5446 22.619C33.5594 22.6157 33.5734 22.6096 33.5858 22.6009C33.5982 22.5922 33.6088 22.5811 33.617 22.5683C33.6251 22.5555 33.6306 22.5412 33.6333 22.5263C33.6359 22.5114 33.6356 22.496 33.6323 22.4812C33.629 22.4664 33.6228 22.4524 33.6141 22.44C33.6054 22.4276 33.5943 22.417 33.5815 22.4089C33.5687 22.4007 33.5545 22.3952 33.5395 22.3925C31.7195 22.075 31.4945 20.4075 31.8595 18.5975C31.8595 18.55 32.422 16.08 32.427 16.0575C32.4303 16.0289 32.4229 16 32.4062 15.9765C32.3895 15.9529 32.3648 15.9363 32.3367 15.9298C32.3086 15.9233 32.2791 15.9274 32.2538 15.9413C32.2285 15.9552 32.2092 15.9778 32.1995 16.005C32.182 16.0875 31.6395 18.505 31.632 18.55C31.3445 19.985 31.357 21.595 32.632 22.32C32.5869 22.7434 32.5032 23.1618 32.382 23.57C31.3767 23.5522 30.3797 23.7559 29.462 24.1668C28.5442 24.5777 27.7283 25.1857 27.072 25.9475C26.457 24.585 24.7245 24.405 23.5295 26.26C23.3342 26.0605 23.087 25.9194 22.8158 25.8527C22.5446 25.786 22.2602 25.7963 21.9945 25.8825C21.312 26.1325 21.212 26.715 21.0095 27.19C20.682 27.94 20.7095 27.9225 20.1695 28.19C20.0663 28.2362 19.9661 28.2888 19.8695 28.3475C19.5951 27.7436 19.2235 27.1888 18.7695 26.705C19.2145 24.4175 19.127 24.29 19.097 24.2475C19.0869 24.2331 19.0739 24.221 19.0589 24.212C19.0438 24.2029 19.027 24.1971 19.0095 24.195C18.947 24.195 18.8295 24.17 17.327 25.715C16.6415 25.4408 15.8912 25.3713 15.167 25.515C15.092 25.0919 15.0735 24.6606 15.112 24.2325C15.4815 24.102 15.8138 23.884 16.0807 23.5971C16.3475 23.3102 16.541 22.9629 16.6445 22.585C16.7587 22.0307 16.8156 21.466 16.8145 20.9C18.2495 18.9475 20.4545 17.1175 22.847 17.315C22.832 17.385 22.8145 17.455 22.797 17.525C22.784 17.5926 22.7895 17.6623 22.8128 17.727C22.8361 17.7917 22.8764 17.8488 22.9295 17.8925C23.842 18.755 25.132 18.2975 25.607 17.8925C25.6648 17.8463 25.7095 17.7857 25.7367 17.7169C25.7639 17.648 25.7726 17.5733 25.762 17.5C25.762 17.4425 25.7445 17.37 25.7345 17.29C26.518 17.2554 27.2997 17.3902 28.0262 17.6853C28.7528 17.9805 29.4071 18.4289 29.9445 19C30.4522 19.524 30.8553 20.14 31.132 20.815C31.1444 20.8417 31.1664 20.8627 31.1935 20.8739C31.2207 20.8852 31.251 20.8858 31.2787 20.8758C31.3063 20.8657 31.3291 20.8457 31.3427 20.8197C31.3563 20.7936 31.3596 20.7634 31.352 20.735C31.0669 20.0321 30.6493 19.3904 30.122 18.845C29.5553 18.2524 28.8683 17.7879 28.1073 17.4826C27.3462 17.1774 26.5287 17.0384 25.7095 17.075C25.6845 16.7875 25.6895 16.005 25.687 15.995C26.867 15.5675 27.467 14.31 27.637 13.145C27.827 11.835 27.682 10.895 27.637 9.35504C27.9187 9.22738 28.1634 9.0304 28.3484 8.78252C28.5333 8.53463 28.6524 8.24393 28.6945 7.93754C28.7188 7.43794 28.617 6.94026 28.3986 6.49029C28.1802 6.04032 27.8521 5.65251 27.4445 5.36254C26.4445 4.68004 25.3795 5.40004 24.467 5.34504C23.5545 5.29004 23.3145 5.03004 22.262 5.34504C21.2095 5.66004 20.842 6.91254 20.6195 7.39254C20.397 7.87254 19.3695 8.75754 19.292 9.77504C19.227 10.6975 19.9245 11.525 20.0595 11.6625C19.762 12.4325 20.2445 12.6625 20.4245 12.765C20.5045 13.18 20.782 14.1425 21.6245 14.4475C21.7945 14.865 22.222 15.7225 22.9745 16.065C22.9724 16.4101 22.9431 16.7545 22.887 17.095C20.4995 16.8775 18.262 18.595 16.807 20.5V19.47C17.0504 18.3793 16.9881 17.2426 16.627 16.185C16.4157 16.4603 16.1751 16.7117 15.9095 16.935C15.9095 16.935 16.3795 17.455 16.5795 19.185C16.5445 20.335 16.6195 21.5725 16.3945 22.5275C16.2678 23.0293 15.9614 23.4672 15.5332 23.7579C15.1051 24.0487 14.5852 24.1722 14.072 24.105C14.0439 24.1054 14.0169 24.1157 13.9958 24.1343C13.9747 24.1528 13.961 24.1783 13.9571 24.2061C13.9531 24.2339 13.9593 24.2622 13.9744 24.2858C13.9895 24.3095 14.0126 24.3269 14.0395 24.335C14.3109 24.3455 14.5826 24.3338 14.852 24.3C14.818 24.7474 14.8449 25.1974 14.932 25.6375C14.816 25.8724 14.6378 26.0709 14.4168 26.2116C14.1959 26.3522 13.9406 26.4296 13.6787 26.4352C13.4168 26.4409 13.1584 26.3747 12.9316 26.2437C12.7047 26.1128 12.5181 25.9221 12.392 25.6925C12.5475 25.1351 12.643 24.5627 12.677 23.985C12.6793 23.9615 12.6743 23.9379 12.6627 23.9173C12.651 23.8967 12.6334 23.8802 12.612 23.87C12.2392 23.6527 11.9325 23.3382 11.7245 22.96C11.4962 22.4502 11.3583 21.9046 11.317 21.3475C11.317 21.3475 10.172 21.035 10.332 20.24C10.4445 19.68 11.262 19.845 11.677 19.9075C11.7134 19.9142 11.7508 19.9127 11.7865 19.9032C11.8223 19.8936 11.8555 19.8763 11.8837 19.8524C11.9119 19.8284 11.9345 19.7986 11.9497 19.7649C11.965 19.7312 11.9726 19.6945 11.972 19.6575C11.972 19.1425 11.972 18.07 12.1645 17.8675C12.4995 17.5 15.2195 17.5275 16.2045 16.42C16.9545 15.5875 16.797 14.455 16.677 13.945C16.6701 13.9155 16.6561 13.888 16.6362 13.8651C16.6163 13.8421 16.5911 13.8244 16.5628 13.8133C16.5345 13.8022 16.504 13.7982 16.4738 13.8016C16.4436 13.8049 16.4147 13.8155 16.3895 13.8325C15.991 14.1044 15.5422 14.2939 15.0695 14.39C14.1845 14.5575 11.2345 14.705 10.3495 16.235C9.74952 17.2875 9.61202 18.8875 10.1495 19.95C10.0908 20.1278 10.072 20.3162 10.0945 20.5021C10.1169 20.6879 10.1801 20.8664 10.2795 21.025C10.3295 21.5875 10.5545 22.7175 11.547 23.0925C11.7653 23.4758 12.0755 23.7988 12.4495 24.0325C12.4085 24.5535 12.3249 25.0702 12.1995 25.5775C9.23202 24.5325 6.60452 27.2275 5.85702 31.64C5.14452 35.8375 5.77202 41.3225 5.85702 41.9625C5.79181 41.9451 5.72373 41.941 5.65691 41.9506C5.59008 41.9601 5.52588 41.9831 5.46818 42.0182C5.41048 42.0532 5.36047 42.0996 5.32117 42.1545C5.28187 42.2094 5.2541 42.2716 5.23952 42.3375C5.19607 42.3063 5.14655 42.2845 5.09415 42.2736C5.04176 42.2627 4.98766 42.2629 4.93535 42.2742C4.88304 42.2855 4.83369 42.3077 4.79048 42.3393C4.74727 42.3708 4.71117 42.4111 4.68452 42.4575C4.46702 42.825 4.52952 43.5225 4.53452 43.5575H1.36702C1.35032 43.5551 1.33329 43.5563 1.31709 43.561C1.30089 43.5657 1.28589 43.5738 1.27312 43.5849C1.26035 43.5959 1.2501 43.6096 1.24308 43.6249C1.23606 43.6402 1.23242 43.6569 1.23242 43.6738C1.23242 43.6907 1.23606 43.7073 1.24308 43.7227C1.2501 43.738 1.26035 43.7517 1.27312 43.7627C1.28589 43.7737 1.30089 43.7819 1.31709 43.7866C1.33329 43.7913 1.35032 43.7925 1.36702 43.79H4.54702C4.58048 44.082 4.6723 44.3643 4.81702 44.62C4.84171 44.6704 4.879 44.7135 4.92528 44.7451C4.97155 44.7768 5.02522 44.7959 5.08109 44.8007C5.13695 44.8055 5.1931 44.7958 5.24408 44.7724C5.29505 44.7491 5.33913 44.7129 5.37202 44.6675C5.38452 44.695 5.75202 45.2375 6.02702 44.72C6.02702 44.7475 6.31202 45.155 6.57202 44.7775C6.57202 44.7775 6.83952 45.0425 7.01952 44.6075C7.10877 44.3475 7.16341 44.0768 7.18202 43.8025C7.19702 43.8025 7.77702 43.79 7.77702 43.79C7.92702 44.6275 8.39202 44.51 8.50952 44.3775C8.62723 44.2054 8.68117 43.9977 8.66202 43.79H8.91202C8.80452 34.46 9.00452 32.54 9.00702 32.505C9.01033 32.4745 9.02563 32.4466 9.04954 32.4274C9.07345 32.4082 9.10402 32.3992 9.13452 32.4025C9.16502 32.4059 9.19295 32.4212 9.21217 32.4451C9.23139 32.469 9.24033 32.4995 9.23702 32.53C9.23702 32.55 9.03702 34.48 9.14452 43.78H48.6445C48.6612 43.7825 48.6782 43.7813 48.6944 43.7766C48.7107 43.7719 48.7257 43.7637 48.7384 43.7527C48.7512 43.7417 48.7614 43.728 48.7685 43.7127C48.7755 43.6973 48.7791 43.6807 48.7791 43.6638C48.7791 43.6469 48.7755 43.6302 48.7685 43.6149C48.7614 43.5996 48.7512 43.5859 48.7384 43.5749C48.7257 43.5638 48.7107 43.5557 48.6944 43.551C48.6782 43.5463 48.6612 43.5451 48.6445 43.5475L48.632 43.5575ZM21.917 14.5125C21.6948 14.0083 21.5474 13.4744 21.4795 12.9275C21.4738 12.8575 21.4412 12.7923 21.3885 12.7458C21.3359 12.6992 21.2673 12.6747 21.197 12.6775C19.9095 12.7 20.2345 11.76 20.332 11.6425C20.742 11.21 21.3845 11.465 21.5445 11.3325C21.7045 11.2 21.8595 9.73004 22.772 9.58254C23.452 9.46504 24.0545 9.88504 24.6895 9.80004C25.3245 9.71504 25.6295 9.37754 26.1645 9.28504C26.6995 9.19254 27.0495 9.42254 27.4145 9.41254C27.4395 9.41254 27.4145 9.32754 27.4695 10.5425C27.5395 11.9925 27.5995 13.5975 26.7945 14.815C26.6008 15.1317 26.3325 15.3961 26.0131 15.5852C25.6936 15.7743 25.3328 15.8824 24.962 15.9C24.9341 15.9041 24.9086 15.9181 24.8902 15.9395C24.8718 15.9608 24.8616 15.9881 24.8616 16.0163C24.8616 16.0445 24.8718 16.0718 24.8902 16.0931C24.9086 16.1144 24.9341 16.1284 24.962 16.1325C25.1307 16.1236 25.2981 16.0985 25.462 16.0575C25.4369 16.5588 25.462 17.0613 25.537 17.5575C25.5429 17.5887 25.5399 17.621 25.5285 17.6506C25.517 17.6802 25.4974 17.706 25.472 17.725C24.2995 18.6125 23.4145 18.0275 23.0895 17.725C23.0683 17.7094 23.0516 17.6885 23.0411 17.6643C23.0306 17.6402 23.0266 17.6137 23.0295 17.5875C23.157 17.0613 23.2191 16.5214 23.2145 15.98C23.2138 15.9574 23.2066 15.9355 23.1938 15.9168C23.1809 15.8982 23.1629 15.8837 23.142 15.875C22.512 15.62 22.112 14.9425 21.917 14.5125ZM5.01202 44.5C4.72518 43.9062 4.67165 43.2264 4.86202 42.595C4.8738 42.5663 4.89357 42.5415 4.91901 42.5236C4.94444 42.5058 4.97446 42.4956 5.00551 42.4943C5.03656 42.493 5.06734 42.5006 5.09419 42.5162C5.12104 42.5319 5.14285 42.5549 5.15702 42.5825C5.06022 43.1536 5.08923 43.7389 5.24202 44.2975C5.32702 44.645 5.05452 44.5575 5.01202 44.5ZM5.74202 44.735C5.69202 44.735 5.59952 44.66 5.51702 44.4125C5.30548 43.8217 5.2639 43.1833 5.39702 42.57C5.39702 42.57 5.55702 42.07 5.82202 42.2125C5.67238 42.9389 5.69809 43.6906 5.89702 44.405C5.89702 44.4475 5.90702 44.6925 5.74952 44.725L5.74202 44.735ZM6.43952 44.395C6.43952 44.485 6.39702 44.7025 6.30452 44.7025C6.30452 44.7025 6.24202 44.67 6.17702 44.5125C6.11202 44.355 5.77202 43.1525 6.05452 42.2325C6.0797 42.1872 6.1153 42.1485 6.15837 42.1196C6.20145 42.0907 6.25077 42.0725 6.30228 42.0663C6.35379 42.0602 6.40601 42.0665 6.45464 42.0845C6.50327 42.1025 6.54693 42.1318 6.58202 42.17C6.58202 42.17 6.33202 42.685 6.43952 44.385V44.395ZM8.33452 44.2325C8.30452 44.2675 8.15202 44.37 8.03202 43.9175C8.01152 43.7875 7.95427 43.6661 7.86702 43.5675C7.6507 43.5355 7.43084 43.5355 7.21452 43.5675C7.22702 43.49 7.28202 43.2825 7.23202 43.2425C7.20765 43.2241 7.17705 43.2158 7.14671 43.2196C7.11637 43.2233 7.08868 43.2387 7.06952 43.2625C6.89952 43.4775 6.96702 44.6975 6.74702 44.6375C6.63702 44.6375 6.49702 43.6375 6.74702 42.375C6.76202 42.3075 6.80202 42.1525 6.92452 42.1525C7.19952 42.1525 7.42452 42.48 7.56702 42.6975C7.67202 42.855 7.73452 42.9475 7.83202 42.9625C7.97537 43.0003 8.10546 43.0771 8.20784 43.1844C8.31022 43.2916 8.38089 43.4251 8.41202 43.57C8.44171 43.7906 8.41504 44.0151 8.33452 44.2225V44.2325ZM44.7945 37.9425C45.097 38.36 44.9895 40.04 44.7095 40.1925C44.6695 40.2175 44.5495 40.1275 44.5295 39.8975C44.5746 39.247 44.5637 38.5937 44.497 37.945C44.5151 37.9237 44.5374 37.9063 44.5625 37.894C44.5877 37.8817 44.6151 37.8748 44.643 37.8736C44.671 37.8724 44.6989 37.8771 44.7249 37.8872C44.751 37.8974 44.7747 37.9128 44.7945 37.9325V37.9425ZM44.1195 37.6625C44.1745 37.72 44.452 38.2075 44.287 39.93C44.2445 40.37 43.917 40.3975 43.937 40.11C43.9795 39.495 44.0145 38.1925 43.8145 37.61C43.8618 37.5787 43.9189 37.5657 43.9751 37.5736C44.0312 37.5814 44.0826 37.6095 44.1195 37.6525V37.6625ZM43.517 37.53C43.6923 38.0311 43.777 38.5593 43.767 39.09C43.767 39.8125 43.6895 40.1325 43.6195 40.27C43.6109 40.2868 43.5975 40.3005 43.581 40.3096C43.5645 40.3187 43.5457 40.3227 43.527 40.3211C43.5083 40.3195 43.4904 40.3124 43.4757 40.3006C43.461 40.2888 43.4502 40.273 43.4445 40.255C43.3792 39.882 43.3491 39.5037 43.3545 39.125C43.3488 38.6105 43.2462 38.1016 43.052 37.625C43.0752 37.5871 43.1058 37.5543 43.1419 37.5284C43.178 37.5025 43.219 37.4841 43.2623 37.4743C43.3057 37.4646 43.3506 37.4636 43.3943 37.4714C43.4381 37.4793 43.4798 37.4958 43.517 37.52V37.53ZM41.767 38.47C41.8995 38.47 42.0045 38.35 42.0895 38.18C42.442 37.48 42.812 37.6525 42.877 37.7975C43.0303 38.224 43.1147 38.6721 43.127 39.125C43.127 39.1425 43.2045 40.3425 43.062 40.3225C42.917 40.3425 42.792 39.365 42.747 39.125C42.738 38.9821 42.6952 38.8432 42.622 38.72C42.6093 38.7052 42.5932 38.6938 42.575 38.6868C42.5568 38.6797 42.5371 38.6774 42.5178 38.6798C42.4984 38.6823 42.48 38.6896 42.4641 38.701C42.4483 38.7123 42.4355 38.7275 42.427 38.745C42.402 38.7975 42.427 38.835 42.4495 38.8825C42.4701 38.934 42.4844 38.9877 42.492 39.0425C42.307 39.0425 41.667 39.0425 41.652 39.1925C41.5795 39.8875 41.257 40.14 41.187 39.3625C41.1845 39.3 41.1145 38.465 41.777 38.46L41.767 38.47ZM37.6195 32.6075C38.727 33.955 39.8945 38.5675 40.0345 39.14L37.617 39.1625C37.3745 36.75 37.6295 32.5975 37.6295 32.5975L37.6195 32.6075ZM37.307 39.45C37.3083 39.4363 37.3146 39.4236 37.3248 39.4143C37.335 39.4051 37.3483 39.4 37.362 39.4C37.862 39.4 39.347 39.375 40.9445 39.365C40.9945 40.04 41.2995 40.08 41.4145 40.0725C41.802 40.055 41.732 39.4075 41.852 39.3025C42.0761 39.2593 42.3056 39.2517 42.532 39.28C42.532 39.3025 42.657 40.5725 43.0595 40.5725C43.1011 40.575 43.1423 40.5638 43.177 40.5409C43.2117 40.5179 43.238 40.4842 43.252 40.445C43.2862 40.4852 43.3298 40.5161 43.379 40.535C43.4282 40.5539 43.4814 40.5602 43.5336 40.5532C43.5858 40.5462 43.6355 40.5263 43.678 40.4952C43.7206 40.464 43.7546 40.4227 43.777 40.375C43.8302 40.4565 43.9096 40.5173 44.002 40.5475C44.232 40.61 44.407 40.3225 44.4195 40.2975C44.4494 40.3432 44.4909 40.38 44.5398 40.4041C44.5887 40.4282 44.6432 40.4388 44.6976 40.4347C44.7519 40.4306 44.8042 40.412 44.849 40.3808C44.8937 40.3497 44.9293 40.3071 44.952 40.2575C45.0814 39.9873 45.1561 39.6942 45.172 39.395C45.172 39.395 45.5945 39.395 45.7495 39.395C45.7634 39.395 45.7768 39.4006 45.7866 39.4104C45.7965 39.4203 45.802 39.4336 45.802 39.4475V41.015C45.767 41.015 38.3195 40.995 37.302 41.015C37.312 40.7875 37.2845 40.145 37.317 39.44L37.307 39.45ZM36.167 41.315C36.167 41.3005 36.1728 41.2865 36.1831 41.2761C36.1934 41.2658 36.2074 41.26 36.222 41.26C37.132 41.2425 46.237 41.26 46.382 41.26C46.3959 41.26 46.4093 41.2656 46.4191 41.2754C46.429 41.2853 46.4345 41.2986 46.4345 41.3125V41.6325H36.162L36.167 41.315ZM19.442 29.235C19.6645 28.43 20.692 28.22 20.877 27.985C21.2245 27.54 21.1545 26.4125 22.0595 26.0875C22.8395 25.8075 23.4245 26.4825 23.447 26.51C23.4595 26.5241 23.4751 26.5351 23.4926 26.542C23.5101 26.5489 23.529 26.5517 23.5477 26.55C23.5664 26.5483 23.5845 26.5422 23.6005 26.5322C23.6164 26.5222 23.6298 26.5086 23.6395 26.4925C23.6395 26.4925 24.307 25.3775 25.2245 25.1525C26.397 24.8625 26.947 26.2675 26.9745 26.33C27.2163 26.787 27.5581 27.1836 27.9745 27.49C28.417 27.685 29.242 28.05 29.3745 28.8075C29.4496 29.1429 29.4547 29.4901 29.3895 29.8275C29.1845 30.75 29.9245 31.4025 29.7945 32.2975C29.732 32.7475 29.457 32.95 29.167 33.165C28.8914 33.3629 28.6627 33.619 28.497 33.915C28.247 34.345 27.972 34.83 27.322 34.79C27.572 33.6675 27.572 31.845 27.572 31.0575C27.5703 30.9603 27.5321 30.8672 27.465 30.7968C27.3978 30.7264 27.3066 30.6838 27.2095 30.6775C26.8029 30.659 26.405 30.5542 26.042 30.37C25.4445 30.035 25.147 28.29 23.747 28.42C23.7193 28.4219 23.6933 28.4339 23.6739 28.4537C23.6546 28.4735 23.6432 28.4998 23.642 28.5275C23.642 28.5275 23.5895 29.35 23.3245 29.7525C22.8545 30.4675 21.9745 30.0475 21.5345 30.8775C21.4939 30.9545 21.4741 31.0406 21.477 31.1275C21.4995 31.755 21.6045 33.8775 21.757 34.5025C21.232 34.5025 20.332 34.395 20.007 33.98C19.4645 33.2825 19.9495 32.515 19.9195 31.8425C19.8895 31.17 19.0895 30.53 19.442 29.235ZM24.672 37.1625C25.0291 37.1847 25.3866 37.1248 25.717 36.9875C25.6836 37.4053 25.7055 37.8256 25.782 38.2375C25.7879 38.2633 25.7858 38.2903 25.776 38.3149C25.7662 38.3395 25.7491 38.3604 25.727 38.375C24.602 39.125 23.7495 38.56 23.4345 38.2775C23.4144 38.26 23.4 38.2367 23.3933 38.2108C23.3866 38.185 23.3879 38.1577 23.397 38.1325C23.5016 37.7521 23.5562 37.3596 23.5595 36.965C23.5597 36.9425 23.5535 36.9205 23.5415 36.9014C23.5296 36.8823 23.5124 36.8671 23.492 36.8575C22.962 36.6075 22.242 35.845 21.992 34.4525C21.8404 33.3475 21.7486 32.235 21.717 31.12C21.7166 31.0741 21.7268 31.0288 21.747 30.9875C22.247 30.05 23.642 31.0575 23.872 28.6475C25.052 28.6475 25.252 30.195 25.937 30.575C26.3303 30.7775 26.7627 30.8926 27.2045 30.9125C27.2428 30.9151 27.2787 30.9319 27.3051 30.9597C27.3315 30.9875 27.3465 31.0242 27.347 31.0625C27.347 31.7325 27.347 34.0025 27.017 35.0625C26.8295 35.6525 26.227 37.0175 24.6845 36.945C24.6623 36.9526 24.6429 36.9665 24.6288 36.9852C24.6146 37.0038 24.6063 37.0262 24.6049 37.0496C24.6036 37.0729 24.6093 37.0962 24.6212 37.1163C24.6332 37.1364 24.6509 37.1525 24.672 37.1625ZM21.7495 37.325C21.592 37.18 21.1745 37.2325 21.0195 37.26C21.026 37.2219 21.0352 37.1843 21.047 37.1475C21.0572 37.1364 21.0651 37.1233 21.0702 37.1091C21.0753 37.0949 21.0776 37.0798 21.0769 37.0647C21.0762 37.0497 21.0726 37.0348 21.0661 37.0212C21.0597 37.0075 21.0507 36.9952 21.0395 36.985C21.0284 36.9749 21.0153 36.967 21.0011 36.9619C20.9869 36.9567 20.9718 36.9544 20.9567 36.9551C20.9416 36.9558 20.9268 36.9595 20.9131 36.9659C20.8995 36.9723 20.8872 36.9814 20.877 36.9925C20.8067 37.1863 20.7597 37.3877 20.737 37.5925C20.702 37.8575 20.6145 38.55 20.487 38.6225C20.402 38.5225 20.327 38.0525 20.322 37.53C20.322 37.15 20.3995 36.0775 20.7195 36.0775C21.2195 36.0775 21.497 36.7275 21.7195 36.74C21.742 36.74 22.177 36.755 22.262 37.115C22.2852 37.2404 22.2743 37.3697 22.2303 37.4893C22.1863 37.609 22.1109 37.7146 22.012 37.795C21.972 37.8275 21.867 37.895 21.7845 37.85C21.7595 37.8375 21.7845 37.7225 21.7845 37.66C21.7845 37.5975 21.847 37.4025 21.7495 37.325ZM20.1545 38.3825C20.1695 38.785 19.8645 38.62 19.777 38.3125C19.6009 37.5828 19.5957 36.8221 19.762 36.09C19.8145 35.9075 20.3295 36.025 20.2845 36.17C20.0867 36.8905 20.0458 37.6449 20.1645 38.3825H20.1545ZM19.1045 36.25C19.1529 36.2041 19.2132 36.1725 19.2785 36.1588C19.3439 36.1451 19.4117 36.1499 19.4745 36.1725C19.3045 36.7275 19.3995 37.8175 19.572 38.395C19.5445 38.74 19.2495 38.715 19.177 38.57C18.897 38.02 18.777 36.5625 19.1045 36.25ZM18.8545 38.37C18.8845 38.45 18.782 38.8225 18.5195 38.4925C18.257 38.1625 17.967 36.1025 18.7395 36.515C18.6878 36.7784 18.6701 37.0472 18.687 37.315C18.687 37.5175 18.847 38.37 18.847 38.375L18.8545 38.37ZM17.7845 30.87C17.767 30.73 17.997 30.695 18.0145 30.8375C18.2789 32.5349 18.4459 34.2461 18.5145 35.9625C18.5145 36.1125 18.287 36.1025 18.282 35.9625C18.2109 34.2601 18.0423 32.5632 17.777 30.88L17.7845 30.87ZM18.882 24.5C18.852 24.845 18.7145 25.6675 18.557 26.5C18.2557 26.2185 17.9135 25.9842 17.542 25.805C18.077 25.25 18.627 24.715 18.882 24.5ZM24.4045 41.75C24.042 41.81 23.542 41.9 23.0145 42C22.9845 41.7925 22.942 41.595 22.902 41.4275C23.2095 41.46 23.887 41.535 24.402 41.63L24.4045 41.75ZM24.3895 41.9875C24.3561 42.5087 24.3561 43.0314 24.3895 43.5525H20.112C20.112 43.355 20.1395 42.9375 20.402 42.8375C20.9845 42.615 23.312 42.1775 24.3895 42V41.9875ZM35.9445 41.3V43.55H24.637C24.5874 42.8246 24.5974 42.0963 24.667 41.3725C26.212 41.3175 31.807 40.8725 31.8645 40.8575C31.895 40.8552 31.9233 40.8409 31.9433 40.8177C31.9632 40.7945 31.9731 40.7643 31.9708 40.7338C31.9684 40.7033 31.9541 40.675 31.9309 40.655C31.9077 40.6351 31.8775 40.6252 31.847 40.6275C31.787 40.6275 25.932 41.1075 24.5595 41.1425C24.5311 41.1431 24.5039 41.1541 24.4831 41.1735C24.4623 41.1928 24.4495 41.2192 24.447 41.2475C24.447 41.2475 24.447 41.31 24.432 41.3975C23.8445 41.2925 23.082 41.2125 22.837 41.1875C22.797 41.045 22.7645 40.9525 22.762 40.9375C22.7534 40.9137 22.7373 40.8932 22.7162 40.8792C22.695 40.8653 22.6698 40.8585 22.6445 40.86C19.752 41.04 15.0295 40.86 14.982 40.86C14.9514 40.86 14.922 40.8716 14.8997 40.8925C14.8774 40.9134 14.8639 40.942 14.862 40.9725C14.8613 40.9879 14.8637 41.0031 14.8691 41.0175C14.8744 41.0319 14.8825 41.045 14.893 41.0562C14.9035 41.0674 14.9161 41.0764 14.9301 41.0826C14.9441 41.0888 14.9592 41.0922 14.9745 41.0925C15.022 41.0925 19.657 41.2725 22.5695 41.0925C22.6656 41.3991 22.7383 41.7125 22.787 42.03C21.953 42.1726 21.1282 42.3646 20.317 42.605C19.9195 42.7575 19.877 43.29 19.8795 43.5375H11.672C12.7645 40.44 15.672 38.865 18.1145 38.0725C18.4245 39.165 18.922 38.7575 18.9795 38.6775C19.442 39.1575 19.632 38.8075 19.697 38.695C20.0545 39.025 20.232 38.8075 20.292 38.7175C20.292 38.7175 20.8395 39.3225 20.992 37.4825C20.992 37.4825 20.992 37.405 21.572 37.445C21.5814 37.498 21.5814 37.5521 21.572 37.605C21.4695 38.1975 22.0045 38.085 22.167 37.96C22.2979 37.8541 22.3979 37.7149 22.4564 37.5569C22.5149 37.399 22.5298 37.2282 22.4995 37.0625C22.4542 36.902 22.3581 36.7604 22.2256 36.659C22.0931 36.5576 21.9313 36.5019 21.7645 36.5C21.702 36.0975 21.6045 35.515 21.452 34.7025C21.6045 34.715 21.732 34.7175 21.812 34.7175C22.062 35.79 22.642 36.67 23.312 37.02C23.3064 37.3641 23.2568 37.706 23.1645 38.0375C23.1407 38.1061 23.1377 38.1803 23.1559 38.2506C23.1741 38.3209 23.2128 38.3842 23.267 38.4325C24.1945 39.2925 25.3845 38.86 25.8445 38.55C25.9046 38.5094 25.9511 38.4518 25.9783 38.3845C26.0055 38.3173 26.012 38.2435 25.997 38.1725C25.9512 37.931 25.927 37.6859 25.9245 37.44C31.0495 36.9725 35.567 40.66 36.047 41.0675C36.0121 41.096 35.9845 41.1324 35.9667 41.1737C35.9489 41.2151 35.9412 41.2601 35.9445 41.305V41.3ZM46.4445 43.55H36.177V43.1875C36.702 43.1875 46.0145 43.2025 46.4545 43.1875C46.452 43.3375 46.4495 43.46 46.447 43.5575L46.4445 43.55ZM46.4445 42.96C45.132 42.9925 36.857 42.96 36.1645 42.96V41.85H46.4395C46.4545 42.195 46.4595 42.6075 46.457 42.9675L46.4445 42.96Z" fill="#414141"/>
<path d="M39.5186 44.2876C39.4883 44.287 39.4594 44.2747 39.438 44.2533C39.4166 44.2318 39.4042 44.2029 39.4036 44.1726V42.3776C39.4011 42.3609 39.4023 42.3439 39.407 42.3277C39.4117 42.3115 39.4199 42.2965 39.4309 42.2837C39.442 42.271 39.4556 42.2607 39.4709 42.2537C39.4863 42.2467 39.503 42.243 39.5198 42.243C39.5367 42.243 39.5534 42.2467 39.5687 42.2537C39.5841 42.2607 39.5977 42.271 39.6088 42.2837C39.6198 42.2965 39.6279 42.3115 39.6327 42.3277C39.6374 42.3439 39.6385 42.3609 39.6361 42.3776V44.1726C39.6354 44.2034 39.6228 44.2326 39.6008 44.2541C39.5788 44.2756 39.5493 44.2876 39.5186 44.2876Z" fill="#87E4FF"/>
<path d="M22.7734 11.4625C22.7734 11.5593 22.8032 11.6522 22.8562 11.7206C22.9092 11.7891 22.981 11.8275 23.0559 11.8275C23.1309 11.8275 23.2027 11.7891 23.2557 11.7206C23.3087 11.6522 23.3384 11.5593 23.3384 11.4625C23.3384 11.3657 23.3087 11.2729 23.2557 11.2044C23.2027 11.136 23.1309 11.0975 23.0559 11.0975C22.981 11.0975 22.9092 11.136 22.8562 11.2044C22.8032 11.2729 22.7734 11.3657 22.7734 11.4625Z" fill="#414141"/>
<path d="M26.1504 11.5076C26.1504 11.6044 26.1802 11.6972 26.2331 11.7657C26.2861 11.8341 26.358 11.8726 26.4329 11.8726C26.5078 11.8726 26.5797 11.8341 26.6326 11.7657C26.6856 11.6972 26.7154 11.6044 26.7154 11.5076C26.7154 11.4108 26.6856 11.3179 26.6326 11.2495C26.5797 11.181 26.5078 11.1426 26.4329 11.1426C26.358 11.1426 26.2861 11.181 26.2331 11.2495C26.1802 11.3179 26.1504 11.4108 26.1504 11.5076Z" fill="#414141"/>
<path d="M21.0325 12.2001C21.0177 12.2003 21.003 12.1976 20.9892 12.192C20.9755 12.1864 20.963 12.1781 20.9525 12.1676C20.8797 12.1054 20.7945 12.0594 20.7025 12.0326C20.673 12.024 20.6482 12.004 20.6334 11.977C20.6186 11.95 20.6152 11.9183 20.6238 11.8888C20.6324 11.8593 20.6524 11.8344 20.6794 11.8197C20.7063 11.8049 20.738 11.8015 20.7675 11.8101C20.8915 11.847 21.0053 11.912 21.1 12.0001C21.1157 12.0155 21.1266 12.0351 21.1317 12.0565C21.1368 12.0779 21.1357 12.1003 21.1287 12.1211C21.1217 12.142 21.1089 12.1604 21.0919 12.1744C21.0749 12.1883 21.0543 12.1972 21.0325 12.2001Z" fill="#414141"/>
<path d="M13.4682 14.1701C13.4136 13.9998 13.3289 13.8406 13.2182 13.7001C13.1157 13.4501 11.9082 10.6201 11.7407 10.2926C11.4732 9.77258 11.2032 9.72758 11.0232 9.79258C10.6957 9.89508 10.7532 10.3476 10.8457 10.5701C10.9382 10.7926 11.5157 12.0351 11.6282 12.3626C11.5276 12.4173 11.4241 12.4665 11.3182 12.5101C11.2357 12.3401 10.8982 11.5576 10.6557 11.0626C10.3832 10.5001 10.1132 10.2501 9.85569 10.3651C9.53569 10.4976 9.5032 10.8876 9.7657 11.5226C9.99067 12.0022 10.241 12.4696 10.5157 12.9226C10.4381 12.9177 10.3609 12.9379 10.2956 12.9802C10.2303 13.0225 10.1804 13.0847 10.1532 13.1576C9.8207 13.1576 9.6007 13.3801 9.6982 13.8351C9.8332 14.4601 10.5482 15.4426 10.8932 15.4776C11.2382 15.5126 11.2157 15.2276 11.2157 15.1276C11.8032 15.2851 11.6257 14.5351 11.5607 14.3626C11.5907 14.3626 12.3332 14.1126 12.4207 14.5601C12.4507 14.7051 12.6882 14.6351 12.6432 14.4901C12.4732 13.9476 11.9532 14.0426 11.6107 14.1151C11.2682 14.1876 11.2357 14.0551 11.2757 13.9826C11.4032 13.7526 11.7757 13.5101 12.3382 13.4826C12.9007 13.4551 13.2432 14.2326 13.2482 14.2326C13.2611 14.2557 13.2814 14.2738 13.3059 14.2839C13.3303 14.294 13.3575 14.2956 13.3829 14.2884C13.4084 14.2811 13.4307 14.2655 13.4461 14.2441C13.4616 14.2226 13.4694 14.1965 13.4682 14.1701ZM10.9132 15.2501C10.7507 15.2351 10.0607 14.4276 9.9132 13.7901C9.8882 13.6826 9.8332 13.3551 10.1207 13.3951C10.2662 13.9667 10.5484 14.4943 10.9432 14.9326C11.0857 15.2501 10.9507 15.2501 10.9132 15.2501ZM12.3282 13.2501C11.0382 13.3051 10.6407 14.3776 11.3157 14.3851C11.5282 14.8551 11.3007 14.9151 11.2432 14.8851C10.8196 14.4734 10.5148 13.9553 10.3607 13.3851C10.3607 13.2976 10.4282 13.0451 10.6607 13.1876L10.8582 13.5001C10.8758 13.5227 10.9011 13.538 10.9293 13.5433C10.9575 13.5485 10.9867 13.5433 11.0113 13.5285C11.0358 13.5138 11.0542 13.4905 11.0628 13.4632C11.0715 13.4358 11.0698 13.4063 11.0582 13.3801C11.0582 13.3651 10.2057 11.9826 9.98069 11.4326C9.86569 11.1551 9.7107 10.6826 9.9457 10.5776C10.0332 10.5401 10.2132 10.6726 10.4457 11.1526C10.6157 11.5051 10.7782 11.8726 10.9107 12.1701C11.1607 12.7601 11.1607 12.7601 11.2682 12.7526C11.4668 12.6968 11.6562 12.6126 11.8307 12.5026C11.9257 12.4251 11.9332 12.4176 11.2782 10.9701C11.1782 10.7451 11.0882 10.5501 11.0582 10.4701C10.9932 10.3126 10.9557 10.0551 11.0907 10.0051C11.2657 9.93758 11.4432 10.2276 11.5307 10.3976C11.6607 10.6476 12.4507 12.4976 12.8182 13.3601C12.6673 13.2813 12.4983 13.2433 12.3282 13.2501Z" fill="#414141"/>
<path d="M18.0296 22.5451L18.3446 21.9601C18.3611 21.9361 18.3859 21.919 18.4143 21.9123C18.4426 21.9055 18.4725 21.9095 18.498 21.9235C18.5236 21.9376 18.543 21.9606 18.5525 21.9881C18.5621 22.0157 18.561 22.0458 18.5496 22.0726L18.2321 22.6551C18.2175 22.6819 18.1929 22.7019 18.1636 22.7106C18.1342 22.7192 18.1027 22.7159 18.0758 22.7013C18.049 22.6867 18.029 22.6621 18.0204 22.6328C18.0117 22.6035 18.015 22.5719 18.0296 22.5451Z" fill="#414141"/>
<path d="M20.7294 20.08L20.3794 19.5175C20.3665 19.4915 20.3637 19.4616 20.3715 19.4336C20.3794 19.4056 20.3973 19.3815 20.4218 19.366C20.4464 19.3505 20.4758 19.3446 20.5045 19.3495C20.5331 19.3543 20.5589 19.3697 20.5769 19.3925L20.9269 19.9575C20.938 19.9833 20.9395 20.0123 20.9311 20.0392C20.9226 20.066 20.9048 20.089 20.8809 20.1038C20.857 20.1186 20.8286 20.1244 20.8008 20.12C20.773 20.1156 20.7476 20.1014 20.7294 20.08Z" fill="#414141"/>
<path d="M23.1654 22.8501L23.4804 22.2651C23.4971 22.2423 23.5215 22.2263 23.5491 22.22C23.5767 22.2138 23.6056 22.2177 23.6306 22.2311C23.6555 22.2445 23.6748 22.2664 23.6848 22.2929C23.6949 22.3193 23.6951 22.3485 23.6854 22.3751L23.3704 22.96C23.3536 22.9828 23.3292 22.9988 23.3016 23.0051C23.274 23.0113 23.2451 23.0073 23.2201 22.994C23.1952 22.9806 23.176 22.9587 23.1659 22.9322C23.1558 22.9058 23.1556 22.8766 23.1654 22.8501Z" fill="#414141"/>
<path d="M20.2495 24.9575L20.6495 25.4875C20.6681 25.512 20.6761 25.5429 20.6719 25.5734C20.6677 25.6039 20.6515 25.6314 20.627 25.65C20.6025 25.6686 20.5716 25.6766 20.5411 25.6724C20.5106 25.6682 20.4831 25.652 20.4645 25.6275L20.0645 25.0975C20.0553 25.0854 20.0486 25.0715 20.0448 25.0568C20.0409 25.042 20.04 25.0267 20.0421 25.0116C20.0442 24.9965 20.0492 24.982 20.0569 24.9688C20.0647 24.9557 20.0749 24.9442 20.087 24.935C20.0992 24.9258 20.113 24.9191 20.1277 24.9153C20.1425 24.9114 20.1578 24.9105 20.1729 24.9126C20.188 24.9147 20.2025 24.9197 20.2157 24.9274C20.2288 24.9351 20.2403 24.9454 20.2495 24.9575Z" fill="#414141"/>
<path d="M26.7275 23.8275L26.6475 23.17C26.6435 23.1395 26.6518 23.1087 26.6705 23.0843C26.6893 23.0599 26.717 23.044 26.7475 23.04C26.778 23.0361 26.8088 23.0444 26.8332 23.0631C26.8575 23.0819 26.8735 23.1095 26.8775 23.14L26.9575 23.8C26.9611 23.8305 26.9525 23.8612 26.9335 23.8854C26.9145 23.9095 26.8867 23.9251 26.8562 23.9288C26.8257 23.9324 26.795 23.9238 26.7709 23.9048C26.7467 23.8858 26.7311 23.858 26.7275 23.8275Z" fill="#414141"/>
<path d="M27.1122 19.89L26.8147 19.2975C26.8011 19.2699 26.799 19.2382 26.8089 19.2091C26.8187 19.18 26.8397 19.1561 26.8672 19.1425C26.8947 19.1289 26.9265 19.1268 26.9556 19.1366C26.9846 19.1465 27.0086 19.1674 27.0222 19.195L27.3222 19.7875C27.3321 19.8147 27.3316 19.8447 27.3207 19.8716C27.3098 19.8985 27.2894 19.9204 27.2633 19.9331C27.2372 19.9459 27.2074 19.9485 27.1795 19.9405C27.1516 19.9325 27.1276 19.9145 27.1122 19.89Z" fill="#414141"/>
<path d="M29.233 21.84L29.8855 21.9625C29.9141 21.9704 29.9387 21.9887 29.9544 22.0139C29.97 22.0391 29.9755 22.0693 29.9698 22.0984C29.9641 22.1275 29.9476 22.1534 29.9237 22.1709C29.8997 22.1883 29.87 22.1961 29.8405 22.1925L29.1905 22.07C29.1625 22.062 29.1384 22.0438 29.1231 22.0189C29.1077 21.9941 29.1021 21.9645 29.1074 21.9357C29.1127 21.907 29.1285 21.8813 29.1517 21.8636C29.175 21.846 29.2039 21.8375 29.233 21.84Z" fill="#414141"/>
<path d="M14.4999 20.9651C14.6718 20.8005 14.8282 20.6206 14.9674 20.4276C14.7024 20.4001 14.3574 20.4726 14.2799 20.2901C14.2279 19.8621 14.2071 19.431 14.2174 19.0001C14.215 18.9834 14.2161 18.9663 14.2209 18.9501C14.2256 18.9339 14.2337 18.9189 14.2448 18.9062C14.2558 18.8934 14.2694 18.8832 14.2848 18.8761C14.3001 18.8691 14.3168 18.8655 14.3337 18.8655C14.3506 18.8655 14.3672 18.8691 14.3826 18.8761C14.3979 18.8832 14.4116 18.8934 14.4226 18.9062C14.4336 18.9189 14.4418 18.9339 14.4465 18.9501C14.4512 18.9663 14.4524 18.9834 14.4499 19.0001C14.4499 19.5001 14.4624 20.0351 14.4849 20.1851C14.6974 20.2276 15.2124 20.1126 15.2174 20.3801C15.2174 20.5451 14.9149 20.8801 14.6549 21.1301C14.6323 21.1448 14.6052 21.1511 14.5785 21.1478C14.5517 21.1446 14.5269 21.1321 14.5084 21.1124C14.4899 21.0927 14.479 21.0672 14.4774 21.0403C14.4759 21.0133 14.4838 20.9867 14.4999 20.9651Z" fill="#414141"/>
<path d="M12.7501 19.2501C12.728 19.2501 12.7065 19.2439 12.6879 19.232C12.6693 19.2201 12.6545 19.2032 12.6453 19.1832C12.6361 19.1631 12.6328 19.1409 12.6359 19.1191C12.6389 19.0973 12.6482 19.0768 12.6626 19.0601C12.7742 18.9323 12.9308 18.8524 13.0998 18.8371C13.2688 18.8217 13.4372 18.872 13.5701 18.9776C13.5921 18.9964 13.6064 19.0228 13.6102 19.0516C13.6139 19.0804 13.6069 19.1095 13.5904 19.1334C13.574 19.1573 13.5493 19.1743 13.521 19.1811C13.4928 19.1878 13.4631 19.1839 13.4376 19.1701C13.3526 19.0971 13.2424 19.0605 13.1307 19.068C13.0189 19.0754 12.9146 19.1265 12.8401 19.2101C12.8291 19.2231 12.8153 19.2335 12.7997 19.2404C12.7841 19.2474 12.7671 19.2507 12.7501 19.2501Z" fill="#414141"/>
<path d="M15.9146 19.1501C15.8998 19.1502 15.8851 19.1474 15.8714 19.1418C15.8577 19.1362 15.8452 19.128 15.8346 19.1176C15.7977 19.0806 15.7539 19.0513 15.7056 19.0313C15.6574 19.0113 15.6056 19.001 15.5534 19.001C15.5012 19.001 15.4494 19.0113 15.4012 19.0313C15.3529 19.0513 15.3091 19.0806 15.2721 19.1176C15.2502 19.1393 15.2205 19.1514 15.1896 19.1514C15.1588 19.1514 15.1291 19.1393 15.1071 19.1176C15.0961 19.1069 15.0873 19.094 15.0813 19.0799C15.0754 19.0657 15.0723 19.0505 15.0723 19.0351C15.0723 19.0197 15.0754 19.0045 15.0813 18.9903C15.0873 18.9761 15.0961 18.9633 15.1071 18.9526C15.1649 18.8938 15.2337 18.8471 15.3097 18.8152C15.3857 18.7833 15.4672 18.7668 15.5496 18.7668C15.632 18.7668 15.7136 18.7833 15.7896 18.8152C15.8656 18.8471 15.9344 18.8938 15.9921 18.9526C16.0073 18.9688 16.0176 18.989 16.0218 19.0108C16.0259 19.0326 16.0239 19.0551 16.0157 19.0758C16.0076 19.0965 15.9938 19.1144 15.9759 19.1276C15.958 19.1407 15.9368 19.1485 15.9146 19.1501Z" fill="#414141"/>
<path d="M11.1344 20.6826C11.0519 20.6176 10.8569 20.4976 10.8569 20.4976C10.8417 20.4908 10.8281 20.4809 10.817 20.4685C10.8059 20.4561 10.7976 20.4415 10.7926 20.4256C10.7876 20.4098 10.786 20.393 10.7879 20.3765C10.7899 20.36 10.7953 20.344 10.8039 20.3298C10.8124 20.3155 10.8239 20.3032 10.8376 20.2937C10.8513 20.2842 10.8668 20.2777 10.8831 20.2747C10.8995 20.2716 10.9163 20.2721 10.9325 20.2761C10.9487 20.28 10.9638 20.2874 10.9769 20.2976C10.9769 20.2976 11.1844 20.4276 11.2794 20.5001C11.2994 20.5206 11.3111 20.5476 11.3126 20.5761C11.314 20.6047 11.305 20.6328 11.2872 20.6551C11.2694 20.6775 11.2441 20.6926 11.216 20.6977C11.1879 20.7027 11.1589 20.6974 11.1344 20.6826Z" fill="#414141"/>
<path d="M14.3645 22.8125C13.8845 22.8125 13.5995 22.4325 13.502 21.965C13.496 21.9364 13.4968 21.9068 13.5044 21.8785C13.5119 21.8502 13.526 21.8241 13.5454 21.8022C13.5648 21.7804 13.5891 21.7634 13.6163 21.7526C13.6435 21.7418 13.6728 21.7375 13.702 21.74C14.1343 21.7689 14.5683 21.7622 14.9995 21.72C15.0296 21.7165 15.0601 21.7203 15.0885 21.7309C15.1169 21.7416 15.1423 21.759 15.1626 21.7815C15.1829 21.804 15.1975 21.831 15.2053 21.8604C15.213 21.8897 15.2136 21.9204 15.207 21.95C15.0245 22.715 14.582 22.8125 14.3645 22.8125ZM13.7495 21.975C13.8045 22.185 13.9545 22.56 14.347 22.58C14.7395 22.6 14.902 22.19 14.962 21.9575C14.5589 21.9948 14.1535 22.0006 13.7495 21.975Z" fill="#414141"/>
<path d="M12.7852 19.9201C12.7852 20.0036 12.811 20.0838 12.8569 20.1428C12.9029 20.2019 12.9652 20.2351 13.0302 20.2351C13.0951 20.2351 13.1575 20.2019 13.2034 20.1428C13.2493 20.0838 13.2752 20.0036 13.2752 19.9201C13.2752 19.8366 13.2493 19.7564 13.2034 19.6974C13.1575 19.6383 13.0951 19.6051 13.0302 19.6051C12.9652 19.6051 12.9029 19.6383 12.8569 19.6974C12.811 19.7564 12.7852 19.8366 12.7852 19.9201Z" fill="#414141"/>
<path d="M15.3613 19.8925C15.3613 19.9761 15.3871 20.0562 15.4331 20.1153C15.479 20.1743 15.5413 20.2075 15.6063 20.2075C15.6713 20.2075 15.7336 20.1743 15.7796 20.1153C15.8255 20.0562 15.8513 19.9761 15.8513 19.8925C15.8513 19.809 15.8255 19.7289 15.7796 19.6698C15.7336 19.6107 15.6713 19.5775 15.6063 19.5775C15.5413 19.5775 15.479 19.6107 15.4331 19.6698C15.3871 19.7289 15.3613 19.809 15.3613 19.8925Z" fill="#414141"/>
<path d="M12.6414 21.045C12.681 21.0504 12.7211 21.0498 12.7593 21.0432C12.7975 21.0367 12.8331 21.0243 12.864 21.0069C12.8948 20.9894 12.9203 20.9673 12.939 20.9416C12.9576 20.916 12.9691 20.8875 12.9726 20.8577C12.9761 20.828 12.9717 20.7975 12.9596 20.7683C12.9474 20.739 12.9278 20.7115 12.9019 20.6873C12.876 20.6631 12.8443 20.6428 12.8086 20.6275C12.773 20.6122 12.7342 20.6022 12.6944 20.5982C12.6547 20.5928 12.6146 20.5933 12.5763 20.5998C12.538 20.6063 12.5023 20.6186 12.4714 20.6361C12.4404 20.6535 12.4149 20.6757 12.3962 20.7014C12.3775 20.727 12.366 20.7556 12.3625 20.7855C12.359 20.8153 12.3634 20.8457 12.3757 20.875C12.3879 20.9044 12.4076 20.9319 12.4336 20.9561C12.4596 20.9803 12.4914 21.0006 12.5271 21.0159C12.5629 21.0311 12.6018 21.041 12.6416 21.045" fill="#FDAF31"/>
<path d="M15.7583 20.9525C15.7602 20.982 15.7698 21.0107 15.7866 21.037C15.8034 21.0633 15.8271 21.0866 15.8563 21.1056C15.8854 21.1247 15.9195 21.1391 15.9565 21.148C15.9936 21.157 16.0329 21.1602 16.0722 21.1577C16.1115 21.1552 16.1501 21.1468 16.1857 21.1332C16.2213 21.1196 16.2532 21.1009 16.2796 21.0782C16.3061 21.0556 16.3265 21.0294 16.3398 21.0012C16.3531 20.973 16.3589 20.9433 16.357 20.9138C16.3554 20.8842 16.3459 20.8553 16.3293 20.8288C16.3126 20.8024 16.289 20.7789 16.2598 20.7596C16.2306 20.7404 16.1965 20.7259 16.1593 20.7168C16.1221 20.7078 16.0826 20.7045 16.0431 20.707C16.0037 20.7095 15.9649 20.7179 15.9292 20.7316C15.8935 20.7454 15.8615 20.7642 15.835 20.787C15.8085 20.8098 15.7881 20.8361 15.7749 20.8645C15.7618 20.8929 15.7561 20.9227 15.7583 20.9523" fill="#FDAF31"/>
<path d="M13.2745 26.6326C13.0408 26.5699 12.822 26.4608 12.6313 26.3118C12.4406 26.1627 12.2818 25.9768 12.1645 25.7651C12.1594 25.7556 12.1523 25.7474 12.1436 25.7409C12.135 25.7344 12.1251 25.7299 12.1145 25.7276C11.8896 25.6856 11.6608 25.668 11.432 25.6751C11.422 25.6754 11.4121 25.6778 11.4029 25.682C11.3938 25.6862 11.3856 25.6922 11.3788 25.6997C11.372 25.7072 11.3668 25.7159 11.3635 25.7254C11.3602 25.735 11.3589 25.745 11.3595 25.7551C11.432 27.2101 11.6095 27.9276 11.702 28.2001C11.7068 28.2129 11.7148 28.2242 11.7253 28.2329C11.7357 28.2416 11.7483 28.2474 11.7618 28.2497C11.7752 28.252 11.789 28.2507 11.8018 28.2459C11.8146 28.2412 11.8259 28.2331 11.8345 28.2226C12.269 27.6829 12.7629 27.194 13.307 26.7651C13.3183 26.7562 13.3268 26.7442 13.3315 26.7306C13.3361 26.717 13.3368 26.7024 13.3334 26.6884C13.3299 26.6745 13.3226 26.6618 13.3121 26.6519C13.3017 26.642 13.2887 26.6353 13.2745 26.6326Z" fill="white"/>
<path d="M15.6506 25.75C15.6506 25.7208 15.639 25.6929 15.6184 25.6722C15.5977 25.6516 15.5698 25.64 15.5406 25.64C15.434 25.645 15.3279 25.6575 15.2231 25.6775C15.2033 25.6809 15.1849 25.6897 15.1699 25.7029C15.1549 25.7162 15.1439 25.7333 15.1381 25.7525C14.9581 26.2375 14.3881 26.555 14.0931 26.655C14.0758 26.6604 14.0602 26.67 14.0477 26.6831C14.0351 26.6961 14.0261 26.712 14.0213 26.7295C14.0166 26.7469 14.0163 26.7653 14.0206 26.7829C14.0248 26.8004 14.0334 26.8166 14.0456 26.83C14.4831 27.33 15.0781 27.9775 15.3481 28.265C15.3625 28.2795 15.3805 28.2897 15.4003 28.2947C15.4201 28.2997 15.4408 28.2992 15.4603 28.2933C15.4798 28.2873 15.4974 28.2763 15.5111 28.2612C15.5248 28.246 15.5341 28.2275 15.5381 28.2075C15.6273 27.3915 15.6648 26.5707 15.6506 25.75Z" fill="white"/>
</svg>
