<svg width="54" height="51" viewBox="0 0 54 51" fill="none" xmlns="http://www.w3.org/2000/svg">
<path d="M13.0032 44.1752C13.0032 44.1752 14.5973 37.8603 25.6071 37.7278C36.774 37.5928 39.2189 41.2502 39.5985 44.1752H13.0032Z" fill="#005BC3"/>
<path d="M26.5126 44.1755C26.5126 44.1755 26.4891 42.4105 26.5126 42.003C26.5126 42.003 25.1567 41.8355 24.6358 41.843C24.7178 42.0977 24.7713 42.36 24.7955 42.6255C24.7955 42.6255 22.4815 42.9805 22.0129 43.3155C21.7668 43.5005 21.7668 44.1755 21.7668 44.1755H26.5126Z" fill="#FCCAC2"/>
<path d="M23.4329 31.5486C23.4329 31.5486 23.4904 34.2986 23.781 35.1086C24.0716 35.9186 24.281 36.8986 25.3516 37.4411C25.3651 37.8769 25.3122 38.3123 25.1945 38.7336C25.3608 38.9197 25.5656 39.071 25.796 39.1778C26.0265 39.2847 26.2776 39.3448 26.5335 39.3545C26.7895 39.3641 27.0448 39.323 27.2833 39.2338C27.5218 39.1446 27.7385 39.0092 27.9195 38.8361C27.8348 38.3328 27.8154 37.8214 27.8619 37.3136C28.2655 37.0845 28.6085 36.7699 28.8645 36.3941C29.1205 36.0183 29.2826 35.5913 29.3383 35.1461C29.5712 33.5786 29.6184 31.7786 29.5032 31.3636C29.0032 31.3497 28.5137 31.2238 28.0739 30.9961C27.4562 30.6361 27.1604 29.0736 25.7181 28.9961C25.7181 28.9961 25.6945 29.8786 25.3254 30.3761C24.9563 30.8736 23.7601 30.7511 23.4329 31.5486Z" fill="#FCCAC2"/>
<path d="M39.5651 19.3881C39.4446 19.2081 39.8059 17.6606 39.8268 17.3231C39.8268 17.3231 38.1384 17.2806 37.2092 16.1106C37.2092 16.1106 35.971 16.7506 34.7119 16.2631C34.7119 16.2631 34.1701 18.6231 34.0209 19.3031C33.8717 19.9831 33.5759 21.9781 35.0836 22.7181C35.0836 22.7181 35.0156 23.3031 34.9214 23.8231C34.2408 22.0106 32.0158 17.2256 27.6548 17.6831C27.564 17.2635 27.5516 16.8319 27.6181 16.4081C27.6181 16.4081 29.1468 16.0781 29.5656 13.9756C29.809 12.542 29.8267 11.0817 29.618 9.64313C29.1167 9.59487 28.6116 9.59487 28.1102 9.64313C27.3433 9.72813 27.0841 10.0581 26.4454 10.0731C25.8067 10.0881 25.3984 9.79563 24.668 9.85313C23.9377 9.91063 23.3592 10.7381 23.2728 11.5256C23.2728 11.5256 21.7441 11.6881 21.8541 12.5031C21.964 13.3181 23.0399 13.3031 23.0399 13.3031C23.0399 13.3031 23.5084 15.4181 24.7649 16.3031C25.0633 16.5156 25.1471 16.3031 24.8879 17.7206C24.8879 17.7206 22.0373 16.9706 18.4223 21.1306L18.3569 21.2056C18.3569 20.8081 18.3569 20.3781 18.3098 19.9081C18.1134 17.1856 17.2627 17.1581 17.2627 17.1581C16.4984 17.6956 13.5378 18.0581 13.3074 18.2381C13.0771 18.4181 13.0457 20.1256 13.0457 20.1256C12.5797 19.9956 11.5536 20.1056 11.5196 20.8756C11.4856 21.6456 12.5666 21.9556 12.5666 21.9556C12.5646 22.4549 12.6892 22.9473 12.93 23.3905C13.1707 23.8337 13.5202 24.2146 13.9488 24.5006C14.0064 24.8056 13.687 26.2356 13.687 26.2356C13.687 26.2356 14.5508 27.0281 15.3073 27.0431C15.9565 27.0556 16.6397 26.2531 16.6031 26.1231C17.4161 25.9732 18.2568 26.0406 19.0322 26.3181C19.0322 26.3181 20.6028 24.6806 20.7442 24.7406C20.8855 24.8006 20.328 27.1431 20.328 27.1431C20.8536 27.6781 21.3049 28.2756 21.6708 28.9206C21.5036 29.0139 21.3591 29.1402 21.2472 29.2911C21.1352 29.442 21.0583 29.614 21.0216 29.7956C20.6395 31.0206 21.5452 31.6006 21.5897 32.4231C21.6159 33.0106 21.2232 33.6056 21.485 34.2256C21.9614 35.3556 23.7545 35.0881 23.7545 35.0881C23.6864 34.8381 23.3592 32.2681 23.4456 31.5381C23.532 30.8081 24.6733 30.9006 25.1471 30.5781C25.2439 30.5131 25.7386 29.9981 25.7386 28.9956C25.7386 28.9956 26.6679 28.7456 27.9244 30.9206C28.1312 31.2781 29.5185 31.3531 29.5185 31.3531C29.6939 32.3956 29.296 35.3781 29.296 35.3781C30.563 35.7081 30.7567 34.5781 31.1546 34.1281C31.4163 33.8181 32.2749 33.7531 32.2906 32.6806C32.2906 31.8606 31.9294 31.2681 31.8378 30.6956C31.7461 30.1231 31.9425 29.2306 31.4268 28.6306C30.9111 28.0306 29.2437 26.6531 29.2672 26.6306C30.6441 25.3656 32.4896 24.3206 34.7643 24.4581C34.7499 24.5021 34.7297 24.5441 34.7041 24.5831C35.0142 24.8851 35.4302 25.0671 35.8721 25.0943C36.3141 25.1215 36.751 24.992 37.0992 24.7306C37.0992 24.7306 37.1202 23.3106 37.2484 23.0656C37.2484 23.0656 38.6227 22.5656 39.3269 20.8156C39.3269 20.8156 40.6671 20.9631 40.6697 20.3356C40.6697 19.4831 39.675 19.5681 39.5651 19.3881Z" fill="white"/>
<path d="M20.4903 36.9251C20.5594 36.7802 20.6819 36.6647 20.8345 36.6006C20.987 36.5365 21.159 36.5283 21.3175 36.5776C21.3175 36.5776 21.6499 36.1801 22.2363 36.5426C22.2363 36.5426 22.7441 36.3552 23.0216 36.6577C23.2991 36.9602 23.3828 37.0551 23.5634 37.1326C23.7441 37.2101 24.3959 37.1451 24.21 37.8826C23.998 38.7126 23.4247 38.6326 23.5059 38.0976C23.5765 37.6751 22.7022 37.7751 22.6656 37.9476C22.6447 38.0501 22.5399 39.2227 22.3122 39.2402C22.0845 39.2577 22.0321 38.9902 22.0321 38.9902C22.0321 38.9902 21.7389 39.6927 21.4641 39.0252C21.4641 39.0252 20.9772 39.7452 20.6971 38.9902C20.6971 38.9902 20.1736 39.7527 19.9118 38.6102C19.6501 37.4676 19.8176 36.5651 20.4903 36.9251Z" fill="white"/>
<path d="M49.5591 41.6638C49.3452 41.619 49.1259 41.6022 48.9073 41.6138C48.9073 41.6138 48.957 39.8638 48.8916 39.8038C48.602 39.7573 48.3079 39.7414 48.0147 39.7563C48.1115 37.7563 47.3053 38.3338 47.3053 38.3338C46.9912 37.7313 46.5802 38.0363 46.5802 38.0363C46.3184 37.5938 45.753 38.0663 45.753 38.0663C45.1902 37.6513 44.7714 38.8463 44.6222 38.8588C44.5113 38.8608 44.402 38.8846 44.3011 38.9288C44.2003 38.9731 44.1102 39.0368 44.0364 39.1159C43.9627 39.195 43.9068 39.2879 43.8725 39.3887C43.8382 39.4894 43.826 39.5959 43.8369 39.7013C42.9757 39.7013 39.8738 39.7263 39.8424 39.7663C39.778 40.3726 39.7561 40.9823 39.7769 41.5913C39.7769 41.5913 38.6618 41.5663 38.633 41.6988C38.6042 41.8313 38.5754 44.1713 38.5754 44.1713H49.5696C49.5696 44.1713 49.6376 41.7263 49.5591 41.6638Z" fill="white"/>
<path d="M6.27434 42.9644C6.27434 42.9644 6.61464 42.3644 7.03346 42.6294C7.03346 42.6294 7.29522 42.2119 7.85278 42.6069C7.85278 42.6069 8.19831 42.3744 8.58572 42.7869C8.97314 43.1994 8.94958 43.2869 9.10925 43.3394C9.20497 43.3457 9.29841 43.3702 9.38402 43.4116C9.46964 43.4529 9.54569 43.5103 9.60769 43.5802C9.66968 43.6501 9.71636 43.7312 9.74495 43.8187C9.77354 43.9062 9.78346 43.9982 9.77414 44.0894C9.77414 44.7694 9.65634 44.8644 9.51237 44.8744C9.15899 44.9044 9.1904 44.2294 9.03858 44.1644C8.77709 44.1286 8.51095 44.1388 8.25328 44.1944C8.25328 44.1944 8.14596 45.2194 7.93131 45.2344C7.873 45.2421 7.8138 45.2286 7.76535 45.1967C7.71691 45.1648 7.68273 45.1167 7.66955 45.0619C7.66955 45.0619 7.44705 45.5619 7.14602 45.0619C7.14602 45.0619 6.75599 45.7194 6.45758 44.9844C6.45758 44.9844 6.19581 45.5319 5.86861 44.8169C5.5414 44.1019 5.53617 42.5444 6.27434 42.9644Z" fill="white"/>
<path d="M40.6711 39.7661H41.9564V41.5936H40.6711V39.7661Z" fill="#FDAF31"/>
<path d="M48.1345 39.8779V41.6279H46.9094V41.0379C47.1502 41.1004 47.3335 40.8129 47.3466 40.7879C47.3778 40.8336 47.4213 40.8703 47.4725 40.8945C47.5237 40.9186 47.5808 40.9291 47.6377 40.9251C47.6946 40.921 47.7494 40.9024 47.7962 40.8712C47.8431 40.8401 47.8804 40.7975 47.9041 40.7479C48.0406 40.4754 48.1189 40.1797 48.1345 39.8779Z" fill="#7BD2FF"/>
<path d="M11.4829 13.7752C11.4829 13.7752 10.9253 13.6552 11.1164 14.3977C11.3075 15.1402 12.1059 15.9677 12.3414 15.8527C12.577 15.7377 12.4121 15.3702 12.4121 15.3702C12.4121 15.3702 12.6137 15.5852 12.8362 15.4977C13.0587 15.4102 14.4329 15.0277 14.8177 14.6952C14.8177 14.6952 13.0822 10.9227 12.9697 10.7602C12.8571 10.5977 12.7498 10.3427 12.4121 10.3952C12.0744 10.4477 12.2629 10.9527 12.3048 11.0477C12.3467 11.1427 13.1529 12.8102 13.1267 12.8577C13.1006 12.9052 12.6425 13.1627 12.6032 13.1077C12.5639 13.0527 11.7629 11.3977 11.6347 11.1702C11.5064 10.9427 10.818 10.7502 11.0326 11.5702C11.2473 12.3902 12.0666 13.5552 12.0666 13.5552C12.0666 13.5552 11.6216 13.4152 11.4829 13.7752Z" fill="white"/>
<path d="M45.6565 18.1663C45.7728 18.0139 45.9435 17.9074 46.1363 17.8669C46.3292 17.8263 46.531 17.8546 46.7035 17.9463C46.7927 17.9949 46.8954 18.0159 46.9976 18.0065C47.0997 17.9971 47.1963 17.9578 47.2742 17.8938C47.4088 17.7495 47.5957 17.6592 47.7972 17.6411C47.9988 17.623 48.2 17.6785 48.3605 17.7963C48.4402 17.8691 48.546 17.9102 48.6563 17.9113C48.8631 17.9113 48.9861 17.8963 49.1562 17.5963C49.2217 17.4838 49.418 17.5763 49.3447 17.6938C49.2953 17.8257 49.202 17.9384 49.079 18.0147C48.9561 18.091 48.8103 18.1267 48.6641 18.1163C48.5044 18.1166 48.35 18.0615 48.2296 17.9613C48.1095 17.8783 47.9618 17.8401 47.8142 17.8539C47.6667 17.8677 47.5295 17.9326 47.4286 18.0363C47.3211 18.1394 47.18 18.2043 47.0285 18.2203C46.8771 18.2362 46.7246 18.2022 46.5962 18.1238C46.4715 18.0514 46.3228 18.0269 46.1799 18.0552C46.0371 18.0835 45.9108 18.1625 45.8266 18.2763C45.8087 18.2902 45.7866 18.2982 45.7636 18.2992C45.7406 18.3001 45.7179 18.294 45.6988 18.2817C45.6797 18.2693 45.6653 18.2514 45.6577 18.2307C45.65 18.2099 45.6496 18.1873 45.6565 18.1663Z" fill="#313131"/>
<path d="M7.86147 23.3654C7.8197 23.2633 7.75705 23.1702 7.67719 23.0916C7.59732 23.0129 7.50184 22.9502 7.39633 22.9071C7.29081 22.8641 7.17737 22.8415 7.06262 22.8408C6.94788 22.8401 6.83414 22.8612 6.72803 22.9029C6.53385 22.9823 6.31589 22.9908 6.1156 22.9267C5.9153 22.8626 5.74665 22.7305 5.64171 22.5554C5.5535 22.4096 5.40847 22.3031 5.23829 22.259C5.0681 22.215 4.88659 22.2371 4.73339 22.3204C4.71295 22.3337 4.68877 22.3409 4.66402 22.3409C4.63927 22.3409 4.61509 22.3337 4.59465 22.3204C4.58016 22.3089 4.56909 22.294 4.56256 22.2771C4.55603 22.2602 4.55427 22.242 4.55745 22.2243C4.56063 22.2065 4.56865 22.1899 4.5807 22.1761C4.59274 22.1622 4.60839 22.1516 4.62606 22.1454C4.75724 22.0849 4.90019 22.0512 5.04578 22.0465C5.19136 22.0417 5.33638 22.0661 5.47156 22.1179C5.62068 22.1936 5.74348 22.3091 5.82495 22.4504C5.91012 22.5809 6.0415 22.6779 6.19521 22.7238C6.34892 22.7697 6.51475 22.7614 6.66259 22.7004C6.87768 22.6205 7.11292 22.6039 7.33795 22.6529C7.50778 22.6916 7.66427 22.7715 7.79223 22.885C7.92019 22.9984 8.01528 23.1415 8.06827 23.3004C8.07729 23.3266 8.07506 23.3551 8.06205 23.3798C8.04904 23.4044 8.02632 23.423 7.9989 23.4317C7.97148 23.4403 7.94159 23.4381 7.91582 23.4257C7.89005 23.4133 7.8705 23.3916 7.86147 23.3654Z" fill="#313131"/>
<path d="M36.4746 6.67158L36.0924 7.36408L35.8071 7.22158C35.7818 7.20899 35.7522 7.20652 35.725 7.21472C35.6977 7.22293 35.675 7.24113 35.6618 7.26533C35.6486 7.28954 35.6461 7.31775 35.6546 7.34377C35.6632 7.36979 35.6823 7.39149 35.7076 7.40408L35.993 7.54658L35.671 8.12658C35.6645 8.13857 35.6605 8.15166 35.6592 8.16512C35.658 8.17858 35.6595 8.19214 35.6638 8.20502C35.6724 8.23104 35.6915 8.25274 35.7168 8.26533C35.7421 8.27793 35.7717 8.2804 35.7989 8.2722C35.8262 8.26399 35.8489 8.24578 35.8621 8.22158L36.1814 7.64158L36.4432 7.77158C36.4685 7.78418 36.4981 7.78665 36.5253 7.77845C36.5526 7.77024 36.5753 7.75204 36.5885 7.72783C36.6017 7.70363 36.6042 7.67542 36.5957 7.6494C36.5871 7.62338 36.568 7.60168 36.5427 7.58908L36.2809 7.45908L36.6657 6.76658C36.6789 6.74238 36.6815 6.71417 36.6729 6.68815C36.6643 6.66213 36.6452 6.64043 36.6199 6.62783C36.5945 6.61524 36.565 6.61277 36.5378 6.62097C36.5105 6.62918 36.4878 6.64738 36.4746 6.67158Z" fill="#005BC3"/>
<path d="M17.1505 8.86117C17.0175 8.86117 16.8874 8.82349 16.7768 8.75289C16.6661 8.68229 16.5799 8.58195 16.529 8.46455C16.4781 8.34714 16.4648 8.21796 16.4907 8.09333C16.5167 7.96869 16.5807 7.85421 16.6748 7.76436C16.7689 7.6745 16.8888 7.61331 17.0193 7.58852C17.1498 7.56373 17.285 7.57645 17.408 7.62508C17.5309 7.67371 17.636 7.75606 17.7099 7.86172C17.7838 7.96738 17.8233 8.0916 17.8233 8.21867C17.8233 8.38907 17.7524 8.5525 17.6262 8.67299C17.5001 8.79348 17.3289 8.86117 17.1505 8.86117ZM17.1505 7.78367C17.0598 7.78367 16.9711 7.8094 16.8957 7.85758C16.8204 7.90577 16.7616 7.97424 16.7271 8.05433C16.6925 8.13442 16.6835 8.22251 16.7014 8.30745C16.7193 8.39238 16.7632 8.47033 16.8275 8.53142C16.8919 8.5925 16.9737 8.63397 17.0628 8.65057C17.1518 8.66717 17.244 8.65814 17.3276 8.62465C17.4113 8.59115 17.4827 8.53469 17.5327 8.46241C17.5827 8.39014 17.6091 8.30531 17.6086 8.21867C17.6079 8.10307 17.5593 7.99243 17.4735 7.91093C17.3877 7.82942 17.2716 7.78367 17.1505 7.78367Z" fill="#313131"/>
<path d="M6.34106 15.9679L5.64739 15.5979L5.83062 15.2829C5.84094 15.2597 5.84195 15.2337 5.83344 15.2098C5.82494 15.186 5.80752 15.1659 5.78452 15.1536C5.76152 15.1412 5.73455 15.1373 5.70877 15.1428C5.68299 15.1482 5.6602 15.1625 5.64477 15.1829L5.45892 15.5004C4.64221 15.0654 4.62389 15.0604 4.61865 15.0579C4.59284 15.0482 4.56409 15.0484 4.53843 15.0585C4.51276 15.0686 4.49219 15.0877 4.48101 15.112C4.46984 15.1363 4.46893 15.1637 4.47849 15.1886C4.48805 15.2135 4.50732 15.2338 4.53227 15.2454L5.35421 15.6804L5.1605 16.0004C5.14662 16.0243 5.14323 16.0525 5.15109 16.0787C5.15894 16.105 5.17739 16.1272 5.20239 16.1404C5.22738 16.1537 5.25686 16.1569 5.28435 16.1494C5.31184 16.1419 5.33509 16.1243 5.34897 16.1004L5.53744 15.7779L6.23112 16.1479C6.25611 16.1619 6.28587 16.1657 6.31386 16.1587C6.34184 16.1517 6.36575 16.1343 6.38033 16.1104C6.39491 16.0866 6.39896 16.0581 6.3916 16.0314C6.38423 16.0047 6.36605 15.9819 6.34106 15.9679Z" fill="#005BC3"/>
<path d="M38.3785 12.7889C39.4451 12.9681 40.4122 13.4989 41.1113 14.2889C41.1492 14.3361 41.2035 14.3688 41.2645 14.3812C41.3254 14.3935 41.389 14.3848 41.4437 14.3564C41.8337 14.1764 42.6086 13.6389 42.2657 12.3089C41.818 10.5589 39.7475 10.3864 38.8915 11.0439C38.6487 11.217 38.4538 11.4442 38.3238 11.7056C38.1938 11.967 38.1326 12.2547 38.1455 12.5439C38.1504 12.6036 38.1759 12.6601 38.2181 12.7045C38.2602 12.7488 38.3167 12.7785 38.3785 12.7889Z" fill="#313131"/>
<path d="M46.4633 25.2196C47.7381 24.8521 48.1098 23.1246 47.3899 21.7521C46.6962 20.4246 44.8586 20.1371 43.6336 19.9546C43.4209 19.9236 43.2127 19.869 43.0132 19.7921C42.8055 19.7099 42.6276 19.5714 42.5015 19.3937C42.3754 19.2159 42.3067 19.0067 42.3038 18.7921C42.2488 16.8446 42.4033 14.7046 39.2883 13.2746C37.0188 12.2296 35.1001 13.0796 34.3645 13.6971C33.6289 14.3146 33.0557 15.5246 34.1027 16.2996C35.1498 17.0746 37.1444 16.2621 37.1444 16.2621C38.3721 17.7621 39.8013 17.5121 39.8013 17.5121C39.7568 18.0621 39.5553 19.3696 39.5553 19.3696C40.1992 19.4646 40.6887 19.6971 40.6704 20.3346C40.6521 20.9721 39.3878 20.8346 39.3878 20.8346C39.3878 20.8346 38.6522 22.6221 37.2491 23.0646L37.1261 24.4346C37.1261 24.4346 42.0787 25.0871 44.2566 31.3496C44.8604 31.273 45.4341 31.052 45.9247 30.7072C46.4152 30.3624 46.8066 29.9049 47.0627 29.3771C47.4266 28.7103 47.5644 27.9519 47.457 27.207C47.3496 26.4622 47.0023 25.7676 46.4633 25.2196Z" fill="#313131"/>
<path d="M33.8458 20.835C33.1645 21.8266 32.9104 23.0312 33.1364 24.1975C33.6541 24.1044 34.1804 24.0625 34.707 24.0725C34.887 23.6355 35.0084 23.1785 35.0682 22.7125C34.7417 22.4951 34.4649 22.2166 34.2548 21.8938C34.0446 21.571 33.9055 21.2108 33.8458 20.835Z" fill="#313131"/>
<path d="M26.7628 34.5535C26.739 34.5533 26.7157 34.5464 26.6958 34.5338C26.6759 34.5212 26.6603 34.5034 26.6509 34.4824C26.6415 34.4615 26.6386 34.4384 26.6427 34.4159C26.6468 34.3935 26.6576 34.3727 26.6738 34.356C26.8588 34.1723 27.0335 33.9796 27.1973 33.7785C26.967 33.7785 26.6738 33.8335 26.5796 33.6685C26.4853 33.5035 26.5063 32.6535 26.5089 32.1385C26.5096 32.1077 26.5229 32.0785 26.5459 32.057C26.5689 32.0355 26.5998 32.0235 26.6319 32.0235C26.6481 32.0231 26.6641 32.0259 26.6791 32.0317C26.694 32.0375 26.7076 32.0462 26.7189 32.0572C26.7301 32.0683 26.7389 32.0814 26.7447 32.0958C26.7505 32.1102 26.7531 32.1256 26.7523 32.141C26.7412 32.6105 26.7552 33.0803 26.7942 33.5485C26.8908 33.5586 26.9882 33.5586 27.0848 33.5485C27.289 33.5485 27.4225 33.531 27.4827 33.631C27.5429 33.731 27.5743 33.7885 26.844 34.5135C26.834 34.5251 26.8217 34.5346 26.8077 34.5415C26.7938 34.5484 26.7785 34.5524 26.7628 34.5535Z" fill="#313131"/>
<path d="M27.693 33.2101C27.6759 33.2106 27.6589 33.2076 27.6431 33.2012C27.6274 33.1948 27.6133 33.1852 27.6019 33.173C27.5904 33.1609 27.5818 33.1465 27.5768 33.1309C27.5717 33.1153 27.5703 33.0988 27.5726 33.0826C27.604 32.7951 27.7742 32.3176 28.2008 32.3551C28.6275 32.3926 28.7244 33.0226 28.7244 33.0476C28.7279 33.0639 28.7278 33.0807 28.724 33.0969C28.7202 33.1131 28.7129 33.1283 28.7025 33.1416C28.6921 33.1549 28.6789 33.166 28.6637 33.1741C28.6485 33.1822 28.6317 33.1871 28.6144 33.1885C28.5971 33.1899 28.5797 33.1878 28.5633 33.1823C28.5469 33.1769 28.5319 33.1681 28.5192 33.1567C28.5066 33.1453 28.4967 33.1314 28.4901 33.1161C28.4835 33.1007 28.4804 33.0842 28.4809 33.0676C28.4809 33.0676 28.4338 32.6076 28.1877 32.5876C27.9417 32.5676 27.8448 32.9026 27.8213 33.1076C27.818 33.1372 27.8027 33.1645 27.7788 33.1836C27.7549 33.2027 27.7241 33.2122 27.693 33.2101Z" fill="#313131"/>
<path d="M24.5664 33.2338C24.5504 33.2334 24.5345 33.2301 24.5199 33.2238C24.5052 33.2176 24.492 33.2086 24.4811 33.1974C24.4701 33.1863 24.4616 33.1731 24.456 33.1587C24.4504 33.1444 24.4479 33.1291 24.4486 33.1138C24.4669 32.5163 24.8255 32.3638 25.0323 32.3638C25.4171 32.3638 25.5559 32.8138 25.5559 33.0813C25.5579 33.1118 25.5473 33.1418 25.5262 33.1648C25.505 33.1878 25.4752 33.2018 25.4433 33.2038C25.4114 33.2058 25.3799 33.1956 25.3559 33.1754C25.3318 33.1552 25.3171 33.1268 25.315 33.0963C25.315 33.0963 25.2653 32.5963 25.0192 32.5963C24.6999 32.5963 24.679 33.1238 24.679 33.1288C24.676 33.1561 24.6631 33.1815 24.6425 33.2007C24.622 33.2199 24.595 33.2316 24.5664 33.2338Z" fill="#313131"/>
<path d="M28.614 31.9993C28.584 31.9991 28.5551 31.9884 28.5328 31.9693C28.4362 31.8845 28.3114 31.8348 28.1804 31.8289C28.0493 31.8229 27.9202 31.8611 27.8156 31.9368C27.8032 31.9466 27.7889 31.9539 27.7735 31.9582C27.7581 31.9625 27.7419 31.9638 27.726 31.9619C27.71 31.96 27.6947 31.955 27.6808 31.9473C27.667 31.9395 27.6549 31.9292 27.6454 31.9168C27.6354 31.905 27.6279 31.8914 27.6234 31.8769C27.6188 31.8623 27.6174 31.847 27.6191 31.8319C27.6208 31.8168 27.6256 31.8022 27.6333 31.7888C27.641 31.7755 27.6513 31.7638 27.6637 31.7543C27.8131 31.6436 27.9987 31.5872 28.1876 31.5949C28.3764 31.6027 28.5563 31.6743 28.6951 31.7968C28.7141 31.8122 28.7275 31.8329 28.7337 31.8559C28.7398 31.879 28.7384 31.9032 28.7295 31.9255C28.7206 31.9477 28.7047 31.9667 28.684 31.9799C28.6633 31.9931 28.6388 31.9999 28.614 31.9993Z" fill="#313131"/>
<path d="M25.6082 31.8753C25.5787 31.8749 25.5502 31.8653 25.5271 31.8478C25.4232 31.7503 25.2846 31.6939 25.139 31.6897C24.9935 31.6855 24.8516 31.734 24.7418 31.8253C24.7168 31.8448 24.6849 31.8544 24.6528 31.852C24.6206 31.8497 24.5906 31.8357 24.569 31.8128C24.5574 31.8021 24.5483 31.7893 24.542 31.7751C24.5357 31.7609 24.5325 31.7457 24.5325 31.7303C24.5325 31.7149 24.5357 31.6997 24.542 31.6855C24.5483 31.6713 24.5574 31.6585 24.569 31.6478C24.7235 31.5227 24.9207 31.456 25.1232 31.4601C25.3257 31.4643 25.5196 31.539 25.6684 31.6703C25.6873 31.6843 25.7013 31.7034 25.7088 31.7251C25.7163 31.7468 25.7168 31.7701 25.7104 31.7921C25.7039 31.8141 25.6908 31.8338 25.6726 31.8486C25.6544 31.8634 25.632 31.8727 25.6082 31.8753Z" fill="#313131"/>
<path d="M26.5699 35.8031C26.3696 35.7866 26.1791 35.7133 26.0229 35.5925C25.8666 35.4718 25.7517 35.3092 25.693 35.1256C25.6875 35.0974 25.693 35.0683 25.7085 35.0437C25.724 35.0191 25.7484 35.0008 25.777 34.9922C25.8057 34.9836 25.8366 34.9853 25.8641 34.997C25.8915 35.0087 25.9135 35.0295 25.9259 35.0556C25.9699 35.1934 26.0554 35.3158 26.1718 35.4074C26.2882 35.499 26.4303 35.5558 26.5803 35.5706H26.5961C27.0515 35.5706 27.1641 35.0881 27.1667 35.0706C27.1742 35.0411 27.1935 35.0154 27.2205 34.9992C27.2474 34.9829 27.2799 34.9772 27.3111 34.9834C27.3423 34.9895 27.3698 35.007 27.3878 35.0322C27.4058 35.0573 27.4129 35.0881 27.4075 35.1181C27.3753 35.3085 27.2735 35.4818 27.1201 35.6072C26.9667 35.7326 26.7718 35.8021 26.5699 35.8031Z" fill="#313131"/>
<path d="M28.3977 34.2357C28.3977 34.2954 28.4311 34.3526 28.4905 34.3948C28.5499 34.437 28.6304 34.4607 28.7144 34.4607C28.7984 34.4607 28.879 34.437 28.9384 34.3948C28.9978 34.3526 29.0312 34.2954 29.0312 34.2357C29.0312 34.1761 28.9978 34.1188 28.9384 34.0766C28.879 34.0344 28.7984 34.0107 28.7144 34.0107C28.6304 34.0107 28.5499 34.0344 28.4905 34.0766C28.4311 34.1188 28.3977 34.1761 28.3977 34.2357Z" fill="#FCCAC2"/>
<path d="M24.5168 34.2099C24.5168 34.2695 24.551 34.3268 24.6119 34.369C24.6728 34.4112 24.7553 34.4349 24.8414 34.4349C24.9275 34.4349 25.0101 34.4112 25.071 34.369C25.1318 34.3268 25.166 34.2695 25.166 34.2099C25.166 34.1502 25.1318 34.093 25.071 34.0508C25.0101 34.0086 24.9275 33.9849 24.8414 33.9849C24.7553 33.9849 24.6728 34.0086 24.6119 34.0508C24.551 34.093 24.5168 34.1502 24.5168 34.2099Z" fill="#FCCAC2"/>
<path d="M38.1262 19.2912C38.1606 19.2976 38.1962 19.2963 38.231 19.2874C38.2658 19.2785 38.2992 19.2622 38.3291 19.2394C38.359 19.2166 38.3849 19.1877 38.4053 19.1544C38.4258 19.1211 38.4403 19.0841 38.4482 19.0454C38.4561 19.0067 38.4571 18.9672 38.4512 18.929C38.4453 18.8908 38.4326 18.8548 38.4138 18.8229C38.3951 18.791 38.3706 18.764 38.3418 18.7433C38.313 18.7226 38.2805 18.7086 38.2461 18.7022C38.2116 18.6958 38.176 18.6971 38.1412 18.706C38.1064 18.7149 38.0731 18.7313 38.0432 18.7541C38.0133 18.7769 37.9873 18.8058 37.9669 18.8391C37.9465 18.8724 37.9319 18.9094 37.924 18.9481C37.9161 18.9867 37.9151 19.0263 37.921 19.0645C37.9269 19.1027 37.9396 19.1387 37.9584 19.1706C37.9772 19.2024 38.0016 19.2295 38.0304 19.2502C38.0592 19.2709 38.0917 19.2848 38.1262 19.2912Z" fill="#313131"/>
<path d="M35.4682 18.5539C35.5028 18.5607 35.5386 18.5596 35.5736 18.5509C35.6087 18.5422 35.6422 18.526 35.6723 18.5031C35.7025 18.4803 35.7286 18.4513 35.7492 18.4179C35.7698 18.3845 35.7845 18.3472 35.7924 18.3084C35.8003 18.2695 35.8012 18.2297 35.7952 18.1913C35.7892 18.153 35.7763 18.1168 35.7573 18.0849C35.7383 18.0529 35.7135 18.0259 35.6844 18.0053C35.6554 17.9847 35.6225 17.971 35.5878 17.9649C35.5534 17.9585 35.5178 17.9598 35.483 17.9687C35.4482 17.9776 35.4149 17.994 35.385 18.0168C35.3551 18.0396 35.3291 18.0685 35.3087 18.1018C35.2882 18.1351 35.2737 18.1721 35.2658 18.2108C35.2579 18.2494 35.2569 18.289 35.2628 18.3272C35.2687 18.3653 35.2814 18.4014 35.3002 18.4333C35.319 18.4651 35.3434 18.4922 35.3722 18.5129C35.401 18.5336 35.4335 18.5475 35.468 18.5539" fill="#313131"/>
<path d="M39.6681 20.3742C39.6412 20.3749 39.6148 20.3671 39.5932 20.3518C39.5715 20.3366 39.5558 20.3149 39.5486 20.2902C39.5414 20.2654 39.543 20.2391 39.5533 20.2154C39.5636 20.1916 39.5818 20.1719 39.6052 20.1592C39.7021 20.1022 39.8036 20.0529 39.9089 20.0117C39.9236 20.006 39.9394 20.0032 39.9554 20.0034C39.9713 20.0036 39.987 20.0069 40.0016 20.0129C40.0162 20.0189 40.0294 20.0277 40.0405 20.0386C40.0515 20.0496 40.0602 20.0625 40.0659 20.0767C40.0722 20.0908 40.0755 20.1059 40.0754 20.1212C40.0754 20.1365 40.0721 20.1516 40.0657 20.1657C40.0594 20.1797 40.05 20.1924 40.0384 20.2029C40.0267 20.2134 40.0129 20.2215 39.9979 20.2267C39.7858 20.3092 39.7387 20.3742 39.6681 20.3742Z" fill="#313131"/>
<path d="M36.0408 20.0178C35.7136 20.1153 35.779 19.8053 35.8078 19.7228C36.0512 18.8953 36.8548 17.7553 36.881 17.7078C36.9648 17.5853 37.1716 17.7078 37.0826 17.8353C37.0826 17.8353 36.2763 18.9903 36.0355 19.7828L36.5591 19.5328C36.6978 19.4678 36.8208 19.6753 36.669 19.7403C36.6873 19.7378 36.0643 20.0178 36.0408 20.0178Z" fill="#313131"/>
<path d="M36.1125 21.2097C36.0577 21.2145 36.0025 21.2145 35.9476 21.2097C35.3639 21.1197 35.2513 20.4847 35.2487 20.4597C35.2439 20.4296 35.2517 20.3988 35.2706 20.3742C35.2895 20.3496 35.3179 20.3331 35.3495 20.3285C35.3811 20.3238 35.4133 20.3314 35.4391 20.3494C35.4649 20.3675 35.4821 20.3946 35.4869 20.4247C35.4869 20.4447 35.5785 20.9247 35.9869 20.9822C36.1118 21.0062 36.2414 20.9932 36.3583 20.945C36.4752 20.8967 36.574 20.8155 36.6413 20.7122C36.6492 20.6988 36.6598 20.6869 36.6725 20.6774C36.6852 20.6678 36.6998 20.6608 36.7153 20.6566C36.7309 20.6524 36.7471 20.6512 36.7632 20.653C36.7792 20.6549 36.7947 20.6597 36.8088 20.6672C36.8229 20.6748 36.8353 20.6849 36.8453 20.697C36.8553 20.7092 36.8627 20.7231 36.8671 20.7379C36.8715 20.7528 36.8727 20.7683 36.8708 20.7836C36.8689 20.799 36.8639 20.8138 36.856 20.8272C36.7758 20.9456 36.6656 21.0427 36.5356 21.1096C36.4057 21.1764 36.2601 21.2109 36.1125 21.2097Z" fill="#313131"/>
<path d="M38.8153 18.1941C38.7915 18.1419 38.7567 18.0949 38.7131 18.056C38.6694 18.0172 38.6179 17.9873 38.5617 17.9683C38.5054 17.9493 38.4457 17.9416 38.3862 17.9456C38.3267 17.9496 38.2687 17.9653 38.2158 17.9916C38.1874 18.0055 38.1543 18.0081 38.1238 17.9987C38.0934 17.9893 38.0681 17.9688 38.0535 17.9416C38.039 17.9144 38.0363 17.8828 38.0461 17.8538C38.0559 17.8247 38.0774 17.8005 38.1059 17.7866C38.1865 17.7449 38.2752 17.7196 38.3665 17.7122C38.4579 17.7048 38.5498 17.7156 38.6366 17.7437C38.7233 17.7719 38.8031 17.8169 38.8708 17.8759C38.9384 17.9349 38.9926 18.0067 39.0299 18.0866C39.0449 18.1138 39.0479 18.1455 39.0383 18.1748C39.0287 18.2041 39.0073 18.2286 38.9789 18.2429C38.9504 18.2571 38.9172 18.26 38.8865 18.2508C38.8558 18.2417 38.8302 18.2213 38.8153 18.1941Z" fill="#313131"/>
<path d="M36.1052 17.3925C36.0434 17.3057 35.9511 17.2429 35.845 17.2153C35.7389 17.1878 35.626 17.1975 35.5267 17.2425C35.4987 17.2515 35.4682 17.2505 35.4409 17.2398C35.4135 17.2291 35.3911 17.2093 35.3778 17.1842C35.3644 17.159 35.361 17.13 35.3682 17.1026C35.3753 17.0752 35.3926 17.0512 35.4168 17.035C35.5669 16.9655 35.7381 16.9493 35.8996 16.9891C36.0612 17.029 36.2027 17.1223 36.2989 17.2525C36.3183 17.277 36.3268 17.3079 36.3224 17.3384C36.318 17.3689 36.301 17.3964 36.2753 17.415C36.2497 17.4336 36.2173 17.4416 36.1854 17.4374C36.1535 17.4332 36.1246 17.417 36.1052 17.3925Z" fill="#313131"/>
<path d="M37.8176 20.3012C37.8176 20.3669 37.8562 20.4298 37.925 20.4762C37.9937 20.5226 38.0869 20.5487 38.1841 20.5487C38.2813 20.5487 38.3745 20.5226 38.4432 20.4762C38.512 20.4298 38.5506 20.3669 38.5506 20.3012C38.5506 20.2356 38.512 20.1726 38.4432 20.1262C38.3745 20.0798 38.2813 20.0537 38.1841 20.0537C38.0869 20.0537 37.9937 20.0798 37.925 20.1262C37.8562 20.1726 37.8176 20.2356 37.8176 20.3012Z" fill="#FCCAC2"/>
<path d="M34.5628 19.7043C34.6035 19.7193 34.6462 19.7284 34.6883 19.7311C34.7305 19.7338 34.7712 19.7301 34.8084 19.7201C34.8455 19.7101 34.8782 19.6941 34.9046 19.6729C34.931 19.6518 34.9507 19.6259 34.9624 19.5968C34.9742 19.5677 34.9778 19.5359 34.973 19.5033C34.9683 19.4707 34.9553 19.4378 34.9348 19.4067C34.9143 19.3755 34.8867 19.3466 34.8535 19.3216C34.8204 19.2966 34.7823 19.276 34.7416 19.2611C34.7008 19.2461 34.6582 19.237 34.6161 19.2343C34.5739 19.2315 34.5332 19.2353 34.496 19.2453C34.4589 19.2553 34.4262 19.2713 34.3998 19.2924C34.3734 19.3136 34.3537 19.3395 34.342 19.3686C34.3302 19.3977 34.3266 19.4294 34.3314 19.4621C34.3361 19.4947 34.3491 19.5275 34.3696 19.5587C34.3901 19.5899 34.4177 19.6188 34.4509 19.6438C34.484 19.6687 34.5221 19.6893 34.5628 19.7043Z" fill="#FCCAC2"/>
<path d="M26.677 14.788C26.5147 14.7838 26.3573 14.7342 26.2242 14.6453C26.0911 14.5564 25.9883 14.4322 25.9284 14.288C25.9162 14.2595 25.9165 14.2276 25.929 14.1992C25.9415 14.1709 25.9653 14.1484 25.9951 14.1368C26.025 14.1252 26.0585 14.1254 26.0882 14.1373C26.1179 14.1493 26.1414 14.172 26.1535 14.2005C26.1963 14.2976 26.2659 14.3816 26.3549 14.4437C26.4439 14.5058 26.5489 14.5436 26.6587 14.553C27.0121 14.5655 27.2006 14.1405 27.2032 14.1355C27.2092 14.1214 27.2181 14.1086 27.2293 14.0977C27.2405 14.0869 27.2538 14.0783 27.2686 14.0723C27.2833 14.0664 27.299 14.0633 27.315 14.0632C27.331 14.0631 27.3468 14.066 27.3616 14.0718C27.3763 14.0775 27.3898 14.086 27.4011 14.0967C27.4125 14.1074 27.4215 14.1202 27.4277 14.1342C27.4339 14.1483 27.4372 14.1633 27.4373 14.1786C27.4374 14.1938 27.4343 14.2089 27.4283 14.223C27.4178 14.2505 27.1823 14.788 26.677 14.788Z" fill="#313131"/>
<path d="M24.5133 13.8272C24.596 13.8366 24.6783 13.822 24.7421 13.7867C24.8058 13.7514 24.8457 13.6983 24.8531 13.639C24.8604 13.5798 24.8346 13.5192 24.7813 13.4707C24.728 13.4221 24.6515 13.3896 24.5688 13.3802C24.486 13.3708 24.4037 13.3854 24.34 13.4207C24.2763 13.456 24.2364 13.5091 24.229 13.5684C24.2217 13.6277 24.2475 13.6882 24.3008 13.7368C24.3541 13.7853 24.4305 13.8178 24.5133 13.8272Z" fill="#FCCAC2"/>
<path d="M28.5227 13.6022C28.5227 13.6619 28.5558 13.7191 28.6147 13.7613C28.6736 13.8035 28.7535 13.8272 28.8368 13.8272C28.9201 13.8272 29 13.8035 29.0589 13.7613C29.1178 13.7191 29.1509 13.6619 29.1509 13.6022C29.1509 13.5425 29.1178 13.4853 29.0589 13.4431C29 13.4009 28.9201 13.3772 28.8368 13.3772C28.7535 13.3772 28.6736 13.4009 28.6147 13.4431C28.5558 13.4853 28.5227 13.5425 28.5227 13.6022Z" fill="#FCCAC2"/>
<path d="M28.9156 10.5767C28.5442 10.5633 28.1807 10.6807 27.894 10.9066C27.6074 11.1324 27.4176 11.451 27.3607 11.8017C27.2772 11.7644 27.1893 11.7367 27.0989 11.7192C27.0257 11.3042 26.9445 11.0142 26.9367 10.9892C26.9276 10.9597 26.9067 10.9348 26.8785 10.9201C26.8502 10.9053 26.817 10.9018 26.7861 10.9105C26.7552 10.9191 26.7292 10.9391 26.7137 10.966C26.6983 10.993 26.6947 11.0247 26.7037 11.0542C26.7037 11.0542 26.7822 11.3217 26.8529 11.7017C26.7016 11.7068 26.5521 11.7355 26.4105 11.7867C26.3768 11.4223 26.1972 11.0845 25.909 10.8435C25.6209 10.6025 25.2466 10.477 24.8639 10.4931C24.4813 10.5092 24.12 10.6657 23.8552 10.93C23.5904 11.1943 23.4426 11.5459 23.4426 11.9117C23.4426 12.2775 23.5904 12.6291 23.8552 12.8934C24.12 13.1577 24.4813 13.3142 24.8639 13.3303C25.2466 13.3464 25.6209 13.2209 25.909 12.9799C26.1972 12.7389 26.3768 12.4011 26.4105 12.0367C26.5612 11.969 26.7256 11.934 26.8922 11.9342C26.9608 12.3474 26.9819 12.7666 26.955 13.1842C26.955 13.2067 26.9262 13.2042 26.9105 13.1992L26.4786 13.1292C26.4623 13.126 26.4456 13.126 26.4294 13.1292C26.4132 13.1324 26.3978 13.1388 26.3843 13.148C26.3708 13.1571 26.3594 13.1688 26.3509 13.1824C26.3423 13.1959 26.3368 13.211 26.3346 13.2267C26.3312 13.2559 26.3393 13.2853 26.3571 13.3093C26.375 13.3333 26.4014 13.3501 26.4314 13.3567C26.6383 13.3914 26.8473 13.4131 27.0571 13.4217C27.1304 13.4217 27.1984 13.3917 27.2089 13.2167C27.2305 12.8041 27.2104 12.3906 27.1487 11.9817C27.2226 12.001 27.2931 12.0304 27.3581 12.0692C27.3674 12.3529 27.4635 12.6279 27.6344 12.8601C27.8053 13.0924 28.0436 13.2718 28.32 13.3763C28.5964 13.4808 28.8987 13.5058 29.1898 13.4483C29.4808 13.3907 29.7479 13.2531 29.9581 13.0523C30.1682 12.8516 30.3123 12.5965 30.3726 12.3185C30.4329 12.0406 30.4067 11.7518 30.2973 11.4879C30.1879 11.2239 30 10.9963 29.7568 10.8331C29.5136 10.6698 29.2258 10.5781 28.9287 10.5692L28.9156 10.5767ZM24.8609 13.1092C24.6193 13.0949 24.3874 13.013 24.1943 12.8736C24.0011 12.7343 23.8552 12.5438 23.7746 12.3258C23.6941 12.1078 23.6825 11.872 23.7413 11.6478C23.8001 11.4235 23.9268 11.2208 24.1055 11.0648C24.2841 10.9088 24.5069 10.8066 24.746 10.7707C24.9852 10.7349 25.23 10.767 25.4501 10.8632C25.6703 10.9594 25.8559 11.1153 25.9838 11.3115C26.1118 11.5078 26.1764 11.7356 26.1697 11.9667C26.1626 12.1239 26.1231 12.2782 26.0535 12.4208C25.9838 12.5634 25.8853 12.6914 25.7637 12.7976C25.6421 12.9037 25.4998 12.9859 25.3448 13.0394C25.1899 13.0929 25.0254 13.1166 24.8609 13.1092ZM28.8371 13.1742C28.5948 13.1604 28.3622 13.0787 28.1682 12.9394C27.9743 12.8001 27.8276 12.6093 27.7464 12.3908C27.6653 12.1724 27.6533 11.936 27.7119 11.7111C27.7706 11.4862 27.8973 11.2827 28.0763 11.1262C28.2552 10.9696 28.4785 10.8669 28.7182 10.8307C28.958 10.7946 29.2035 10.8267 29.4243 10.923C29.645 11.0193 29.8312 11.1756 29.9595 11.3723C30.0878 11.569 30.1527 11.7975 30.1459 12.0292C30.1309 12.3471 29.9844 12.6464 29.7384 12.8611C29.4925 13.0758 29.1673 13.1884 28.8344 13.1742H28.8371Z" fill="#313131"/>
<path d="M51.7466 44.0577H49.7022C49.7258 43.5227 49.7022 42.3227 49.7022 41.8077C49.7009 41.7338 49.6696 41.6633 49.6149 41.6111C49.5602 41.5589 49.4864 41.5289 49.4091 41.5277H49.04V39.9527C49.0387 39.8798 49.0086 39.8101 48.9556 39.7577C48.9027 39.7052 48.8308 39.674 48.7547 39.6702C48.5924 39.6702 48.3882 39.6702 48.1578 39.6527C48.1814 39.2977 48.1447 38.6202 47.9275 38.3152C47.8963 38.2708 47.8558 38.233 47.8085 38.2043C47.7613 38.1756 47.7084 38.1566 47.653 38.1483C47.5977 38.1401 47.5412 38.1429 47.4871 38.1566C47.4329 38.1702 47.3824 38.1944 47.3385 38.2277C47.3143 38.1586 47.2754 38.095 47.2241 38.0411C47.1728 37.9872 47.1104 37.944 47.0407 37.9144C46.971 37.8848 46.8957 37.8693 46.8194 37.869C46.7431 37.8687 46.6676 37.8836 46.5977 37.9127C46.5305 37.8375 46.4397 37.7849 46.3388 37.7629C46.2379 37.7408 46.1323 37.7504 46.0375 37.7902C45.514 34.2902 43.8335 27.3102 39.0589 25.1202C38.4756 24.8499 37.8707 24.6242 37.2501 24.4452C37.2384 24.0381 37.2629 23.6308 37.3234 23.2277C37.3274 23.203 37.3382 23.1797 37.3548 23.1604C37.3714 23.1411 37.3931 23.1263 37.4176 23.1177C37.8737 22.9247 38.2813 22.6408 38.6131 22.2851C38.9449 21.9294 39.1933 21.51 39.3416 21.0552C39.3536 21.0281 39.3742 21.0053 39.4005 20.9901C39.4268 20.9748 39.4575 20.9678 39.4882 20.9702C41.098 21.0277 40.797 20.0177 40.6949 19.8552C40.4703 19.5886 40.1506 19.4106 39.7971 19.3552C39.759 19.3473 39.7256 19.3258 39.7037 19.2951C39.6818 19.2644 39.673 19.2268 39.6793 19.1902C39.7369 18.8277 39.8442 18.1327 39.9253 17.5577C39.9295 17.5272 39.9208 17.4963 39.9012 17.472C39.8815 17.4476 39.8526 17.4316 39.8206 17.4277C39.7887 17.4237 39.7564 17.432 39.7309 17.4507C39.7053 17.4695 39.6887 17.4972 39.6845 17.5277C39.6034 18.1002 39.4934 18.7927 39.4384 19.1552C39.4223 19.2511 39.4457 19.3492 39.5038 19.429C39.5619 19.5087 39.6502 19.5638 39.7499 19.5827C40.0387 19.623 40.302 19.7626 40.4907 19.9752C40.5666 20.0827 40.7708 20.7702 39.5065 20.7252C39.4211 20.72 39.3363 20.7416 39.2649 20.7868C39.1936 20.8319 39.1396 20.898 39.1112 20.9752C38.9738 21.3991 38.7433 21.7901 38.435 22.1221C38.1266 22.454 37.7477 22.7193 37.3234 22.9002C37.2609 22.9238 37.206 22.9625 37.1638 23.0124C37.1216 23.0624 37.0936 23.1219 37.0826 23.1852C37.0235 23.58 36.9981 23.9789 37.0066 24.3777C37.0066 24.4752 37.0538 24.7252 36.9281 24.7777C36.6097 24.9202 36.2601 24.9873 35.9088 24.9734C35.5575 24.9594 35.2148 24.8649 34.9099 24.6977C34.8781 24.6795 34.8537 24.6515 34.8409 24.6183C34.828 24.5851 34.8274 24.5487 34.8392 24.5152C34.8837 24.3877 35.1821 23.1202 35.2162 22.9277C35.4356 23.0185 35.666 23.0832 35.902 23.1202C35.9176 23.1228 35.9337 23.1224 35.9492 23.1192C35.9647 23.1159 35.9793 23.1097 35.9924 23.101C36.0054 23.0923 36.0164 23.0812 36.025 23.0684C36.0335 23.0556 36.0393 23.0414 36.042 23.0264C36.0448 23.0115 36.0444 22.9962 36.041 22.9814C36.0375 22.9666 36.0311 22.9525 36.022 22.9401C36.0129 22.9277 36.0013 22.9171 35.9879 22.909C35.9745 22.9008 35.9595 22.8953 35.9439 22.8927C34.0382 22.5752 33.8026 20.9077 34.1848 19.0977C34.1848 19.0502 34.7738 16.5802 34.779 16.5577C34.7824 16.529 34.7747 16.5001 34.7572 16.4766C34.7398 16.453 34.7139 16.4364 34.6844 16.4299C34.655 16.4234 34.6241 16.4275 34.5976 16.4414C34.5711 16.4553 34.5509 16.478 34.5408 16.5052C34.5225 16.5877 33.9545 19.0052 33.9466 19.0502C33.6456 20.4852 33.6587 22.0952 34.9937 22.8202C34.9464 23.2436 34.8588 23.662 34.7319 24.0702C33.6792 24.0523 32.6354 24.256 31.6744 24.6669C30.7135 25.0778 29.8591 25.6858 29.172 26.4477C28.5281 25.0852 26.7141 24.9052 25.4628 26.7602C25.2583 26.5606 24.9995 26.4195 24.7155 26.3528C24.4315 26.2861 24.1337 26.2965 23.8556 26.3827C23.141 26.6327 23.0363 27.2152 22.8242 27.6902C22.4813 28.4402 22.5101 28.4227 21.9447 28.6902C21.8366 28.7363 21.7317 28.7889 21.6306 28.8477C21.3432 28.2437 20.9541 27.6889 20.4788 27.2052C20.9448 24.9177 20.8531 24.7902 20.8217 24.7477C20.8112 24.7332 20.7976 24.7211 20.7818 24.7121C20.766 24.703 20.7484 24.6973 20.7301 24.6952C20.6647 24.6952 20.5416 24.6702 18.9684 26.2152C18.2507 25.9409 17.4651 25.8714 16.7068 26.0152C16.6282 25.592 16.6089 25.1607 16.6492 24.7327C17.036 24.6021 17.384 24.3841 17.6634 24.0972C17.9429 23.8103 18.1454 23.4631 18.2538 23.0852C18.3734 22.5308 18.433 21.9662 18.4318 21.4002C19.9344 19.4477 22.2431 17.6177 24.7482 17.8152C24.7325 17.8852 24.7142 17.9552 24.6959 18.0252C24.6823 18.0927 24.688 18.1624 24.7124 18.2271C24.7368 18.2918 24.779 18.349 24.8346 18.3927C25.79 19.2552 27.1407 18.7977 27.6381 18.3927C27.6986 18.3464 27.7454 18.2859 27.7738 18.217C27.8023 18.1482 27.8115 18.0734 27.8004 18.0002C27.8004 17.9427 27.7821 17.8702 27.7716 17.7902C28.5919 17.7555 29.4104 17.8904 30.1712 18.1855C30.9319 18.4806 31.617 18.929 32.1797 19.5002C32.7113 20.0241 33.1333 20.6401 33.4231 21.3152C33.4361 21.3418 33.4591 21.3628 33.4875 21.374C33.5159 21.3853 33.5477 21.3859 33.5766 21.3759C33.6055 21.3659 33.6295 21.3458 33.6437 21.3198C33.6579 21.2937 33.6614 21.2635 33.6534 21.2352C33.3549 20.5322 32.9177 19.8905 32.3656 19.3452C31.7721 18.7526 31.0529 18.288 30.256 17.9828C29.4591 17.6775 28.6031 17.5385 27.7454 17.5752C27.7192 17.2877 27.7245 16.5052 27.7219 16.4952C28.9574 16.0677 29.5856 14.8102 29.7636 13.6452C29.9626 12.3352 29.8107 11.3952 29.7636 9.85516C30.0586 9.7275 30.3148 9.53052 30.5084 9.28264C30.7021 9.03475 30.8268 8.74405 30.8709 8.43766C30.8963 7.93807 30.7898 7.44038 30.561 6.99041C30.3323 6.54044 29.9888 6.15263 29.5621 5.86267C28.515 5.18017 27.3999 5.90016 26.4444 5.84516C25.489 5.79016 25.2377 5.53016 24.1357 5.84516C23.0336 6.16016 22.6489 7.41266 22.4159 7.89266C22.1829 8.37266 21.1071 9.25766 21.0259 10.2752C20.9579 11.1977 21.6882 12.0252 21.8295 12.1627C21.518 12.9327 22.0232 13.1627 22.2117 13.2652C22.2955 13.6802 22.586 14.6427 23.4682 14.9477C23.6462 15.3652 24.0938 16.2227 24.8817 16.5652C24.8795 16.9103 24.8488 17.2547 24.7901 17.5952C22.2902 17.3777 19.9474 19.0952 18.424 21.0002V19.9702C18.6788 18.8795 18.6136 17.7427 18.2355 16.6852C18.0142 16.9604 17.7623 17.2119 17.4842 17.4352C17.4842 17.4352 17.9764 17.9552 18.1858 19.6852C18.1491 20.8352 18.2276 22.0727 17.9921 23.0277C17.8594 23.5294 17.5385 23.9673 17.0903 24.2581C16.642 24.5488 16.0976 24.6724 15.5603 24.6052C15.5309 24.6055 15.5026 24.6159 15.4805 24.6344C15.4584 24.6529 15.444 24.6784 15.4399 24.7062C15.4358 24.734 15.4422 24.7623 15.4581 24.786C15.4739 24.8096 15.4981 24.8271 15.5262 24.8352C15.8103 24.8456 16.0949 24.8339 16.377 24.8002C16.3413 25.2476 16.3695 25.6975 16.4607 26.1377C16.3393 26.3725 16.1527 26.571 15.9213 26.7117C15.69 26.8523 15.4226 26.9297 15.1484 26.9354C14.8742 26.941 14.6037 26.8748 14.3661 26.7439C14.1286 26.6129 13.9332 26.4223 13.8012 26.1927C13.964 25.6353 14.064 25.0628 14.0996 24.4852C14.102 24.4616 14.0968 24.438 14.0846 24.4174C14.0724 24.3968 14.0539 24.3803 14.0316 24.3702C13.6412 24.1528 13.32 23.8383 13.1023 23.4602C12.8633 22.9504 12.7189 22.4047 12.6756 21.8477C12.6756 21.8477 11.4767 21.5352 11.6443 20.7402C11.7621 20.1802 12.618 20.3452 13.0526 20.4077C13.0907 20.4143 13.1298 20.4128 13.1672 20.4033C13.2047 20.3937 13.2394 20.3764 13.2689 20.3525C13.2985 20.3286 13.3221 20.2987 13.3381 20.265C13.3541 20.2313 13.3621 20.1946 13.3614 20.1577C13.3614 19.6427 13.3614 18.5702 13.563 18.3677C13.9138 18.0002 16.7618 18.0277 17.7931 16.9202C18.5784 16.0877 18.4135 14.9552 18.2879 14.4452C18.2806 14.4156 18.2659 14.3882 18.2451 14.3652C18.2242 14.3423 18.1979 14.3245 18.1683 14.3134C18.1387 14.3024 18.1067 14.2983 18.0751 14.3017C18.0435 14.305 18.0132 14.3157 17.9868 14.3327C17.5695 14.6045 17.0997 14.794 16.6047 14.8902C15.6781 15.0577 12.5892 15.2052 11.6626 16.7352C11.0344 17.7877 10.8904 19.3877 11.4532 20.4502C11.3917 20.6279 11.372 20.8164 11.3955 21.0022C11.4191 21.188 11.4852 21.3666 11.5893 21.5252C11.6416 22.0877 11.8772 23.2177 12.9164 23.5927C13.145 23.9759 13.4698 24.2989 13.8614 24.5327C13.8185 25.0536 13.7309 25.5704 13.5996 26.0777C10.4925 25.0327 7.74135 27.7277 6.95868 32.1402C6.21265 36.3377 6.86968 41.8227 6.95868 42.4627C6.8904 42.4452 6.81912 42.4411 6.74915 42.4507C6.67918 42.4603 6.61196 42.4832 6.55154 42.5183C6.49113 42.5533 6.43877 42.5997 6.39762 42.6546C6.35647 42.7095 6.32738 42.7717 6.31212 42.8377C6.26662 42.8064 6.21477 42.7846 6.15991 42.7737C6.10505 42.7628 6.04841 42.763 5.99364 42.7743C5.93887 42.7856 5.88719 42.8078 5.84195 42.8394C5.79671 42.871 5.75891 42.9113 5.731 42.9577C5.50326 43.3252 5.56871 44.0227 5.57394 44.0577H2.25738C2.2399 44.0552 2.22207 44.0564 2.20511 44.0611C2.18814 44.0658 2.17244 44.074 2.15907 44.085C2.14569 44.096 2.13497 44.1097 2.12761 44.125C2.12026 44.1404 2.11646 44.157 2.11646 44.1739C2.11646 44.1908 2.12026 44.2075 2.12761 44.2228C2.13497 44.2381 2.14569 44.2518 2.15907 44.2628C2.17244 44.2739 2.18814 44.282 2.20511 44.2867C2.22207 44.2914 2.2399 44.2926 2.25738 44.2902H5.58703C5.62207 44.5821 5.71821 44.8644 5.86974 45.1202C5.89559 45.1705 5.93464 45.2136 5.98309 45.2453C6.03154 45.2769 6.08774 45.2961 6.14623 45.3008C6.20472 45.3056 6.26351 45.2959 6.31689 45.2725C6.37027 45.2492 6.41642 45.2131 6.45085 45.1677C6.46394 45.1952 6.84874 45.7377 7.13668 45.2202C7.13668 45.2477 7.43509 45.6552 7.70732 45.2777C7.70732 45.2777 7.98741 45.5427 8.17588 45.1077C8.26934 44.8476 8.32655 44.577 8.34603 44.3027C8.36174 44.3027 8.96903 44.2902 8.96903 44.2902C9.12609 45.1277 9.61297 45.0102 9.736 44.8777C9.85925 44.7056 9.91573 44.4978 9.89568 44.2902H10.1574C10.0449 34.9602 10.2543 33.0402 10.2569 33.0052C10.2604 32.9747 10.2764 32.9467 10.3014 32.9275C10.3265 32.9083 10.3585 32.8993 10.3904 32.9027C10.4223 32.906 10.4516 32.9213 10.4717 32.9452C10.4918 32.9691 10.5012 32.9997 10.4977 33.0302C10.4977 33.0502 10.2883 34.9802 10.4009 44.2802H51.7597C51.7772 44.2826 51.795 44.2814 51.812 44.2767C51.8289 44.272 51.8447 44.2639 51.858 44.2528C51.8714 44.2418 51.8821 44.2281 51.8895 44.2128C51.8968 44.1975 51.9006 44.1808 51.9006 44.1639C51.9006 44.147 51.8968 44.1304 51.8895 44.115C51.8821 44.0997 51.8714 44.086 51.858 44.075C51.8447 44.064 51.8289 44.0558 51.812 44.0511C51.795 44.0464 51.7772 44.0452 51.7597 44.0477L51.7466 44.0577ZM23.7744 15.0127C23.5417 14.5085 23.3874 13.9745 23.3164 13.4277C23.3103 13.3576 23.2762 13.2925 23.2211 13.2459C23.166 13.1993 23.0941 13.1748 23.0206 13.1777C21.6725 13.2002 22.0128 12.2602 22.1149 12.1427C22.5441 11.7102 23.2169 11.9652 23.3844 11.8327C23.5519 11.7002 23.7142 10.2302 24.6697 10.0827C25.3817 9.96517 26.0125 10.3852 26.6774 10.3002C27.3423 10.2152 27.6616 9.87766 28.2218 9.78516C28.782 9.69266 29.1485 9.92266 29.5306 9.91266C29.5568 9.91266 29.5306 9.82766 29.5882 11.0427C29.6615 12.4927 29.7244 14.0977 28.8815 15.3152C28.6786 15.6318 28.3977 15.8962 28.0632 16.0853C27.7288 16.2744 27.351 16.3825 26.9627 16.4002C26.9335 16.4043 26.9068 16.4183 26.8875 16.4396C26.8682 16.461 26.8576 16.4882 26.8576 16.5164C26.8576 16.5446 26.8682 16.5719 26.8875 16.5932C26.9068 16.6146 26.9335 16.6286 26.9627 16.6327C27.1394 16.6238 27.3147 16.5986 27.4863 16.5577C27.4599 17.0589 27.4862 17.5614 27.5648 18.0577C27.571 18.0889 27.5679 18.1211 27.5558 18.1507C27.5438 18.1803 27.5233 18.2061 27.4967 18.2252C26.2691 19.1127 25.3424 18.5277 25.0021 18.2252C24.9799 18.2095 24.9624 18.1886 24.9514 18.1645C24.9404 18.1403 24.9362 18.1138 24.9393 18.0877C25.0728 17.5615 25.1378 17.0216 25.133 16.4802C25.1323 16.4575 25.1247 16.4356 25.1113 16.417C25.0978 16.3983 25.079 16.3838 25.0571 16.3752C24.3974 16.1202 23.9786 15.4427 23.7744 15.0127ZM6.07391 45.0002C5.77357 44.4064 5.71753 43.7265 5.91685 43.0952C5.92919 43.0664 5.9499 43.0416 5.97653 43.0238C6.00316 43.0059 6.03459 42.9957 6.0671 42.9944C6.09961 42.9931 6.13184 43.0007 6.15995 43.0163C6.18807 43.032 6.2109 43.055 6.22574 43.0827C6.12439 43.6537 6.15476 44.239 6.31474 44.7977C6.40374 45.1452 6.11841 45.0577 6.07391 45.0002ZM6.83826 45.2352C6.78591 45.2352 6.68906 45.1602 6.60268 44.9127C6.38118 44.3218 6.33765 43.6835 6.47703 43.0702C6.47703 43.0702 6.64456 42.5702 6.92203 42.7127C6.76535 43.4391 6.79227 44.1907 7.00056 44.9052C7.00056 44.9477 7.01103 45.1927 6.84612 45.2252L6.83826 45.2352ZM7.56859 44.8952C7.56859 44.9852 7.52409 45.2027 7.42724 45.2027C7.42724 45.2027 7.36179 45.1702 7.29374 45.0127C7.22568 44.8552 6.86968 43.6527 7.16547 42.7327C7.19184 42.6873 7.22911 42.6486 7.27422 42.6197C7.31932 42.5908 7.37096 42.5726 7.42489 42.5665C7.47882 42.5604 7.5335 42.5666 7.58442 42.5846C7.63535 42.6026 7.68106 42.632 7.71779 42.6702C7.71779 42.6702 7.45603 43.1852 7.56859 44.8852V44.8952ZM9.55276 44.7327C9.52135 44.7677 9.36168 44.8702 9.23603 44.4177C9.21457 44.2876 9.15463 44.1662 9.06326 44.0677C8.83676 44.0356 8.60656 44.0356 8.38006 44.0677C8.39315 43.9902 8.45074 43.7827 8.39838 43.7427C8.37287 43.7242 8.34083 43.716 8.30906 43.7197C8.27729 43.7234 8.2483 43.7388 8.22824 43.7627C8.05024 43.9777 8.12091 45.1977 7.89056 45.1377C7.77538 45.1377 7.62879 44.1377 7.89056 42.8752C7.90626 42.8077 7.94815 42.6527 8.07641 42.6527C8.36435 42.6527 8.59994 42.9802 8.74915 43.1977C8.85909 43.3552 8.92453 43.4477 9.02662 43.4627C9.17672 43.5005 9.31293 43.5772 9.42013 43.6845C9.52732 43.7917 9.60132 43.9252 9.63391 44.0702C9.665 44.2907 9.63708 44.5152 9.55276 44.7227V44.7327ZM47.7285 38.4427C48.0453 38.8602 47.9327 40.5402 47.6395 40.6927C47.5976 40.7177 47.472 40.6277 47.4511 40.3977C47.4983 39.7471 47.4869 39.0939 47.417 38.4452C47.436 38.4238 47.4593 38.4064 47.4856 38.3941C47.5119 38.3819 47.5406 38.3749 47.5699 38.3737C47.5992 38.3726 47.6284 38.3772 47.6557 38.3873C47.683 38.3975 47.7078 38.4129 47.7285 38.4327V38.4427ZM47.0218 38.1627C47.0794 38.2202 47.3699 38.7077 47.1971 40.4302C47.1526 40.8702 46.8097 40.8977 46.8307 40.6102C46.8752 39.9952 46.9118 38.6927 46.7024 38.1102C46.7519 38.0788 46.8117 38.0658 46.8705 38.0737C46.9293 38.0815 46.9831 38.1096 47.0218 38.1527V38.1627ZM46.3909 38.0302C46.5745 38.5312 46.6631 39.0594 46.6527 39.5902C46.6527 40.3127 46.5715 40.6327 46.4982 40.7702C46.4892 40.7869 46.4752 40.8006 46.4579 40.8097C46.4407 40.8188 46.421 40.8228 46.4014 40.8212C46.3817 40.8196 46.3631 40.8125 46.3477 40.8007C46.3323 40.789 46.3209 40.7731 46.315 40.7552C46.2466 40.3821 46.215 40.0038 46.2208 39.6252C46.2147 39.1106 46.1073 38.6017 45.904 38.1252C45.9283 38.0873 45.9603 38.0544 45.9982 38.0285C46.036 38.0026 46.0789 37.9842 46.1243 37.9745C46.1696 37.9647 46.2166 37.9637 46.2624 37.9715C46.3082 37.9794 46.3519 37.9959 46.3909 38.0202V38.0302ZM44.5586 38.9702C44.6973 38.9702 44.8072 38.8502 44.8962 38.6802C45.2653 37.9802 45.6527 38.1527 45.7208 38.2977C45.8813 38.7241 45.9697 39.1722 45.9826 39.6252C45.9826 39.6427 46.0637 40.8427 45.9145 40.8227C45.7627 40.8427 45.6318 39.8652 45.5847 39.6252C45.5752 39.4822 45.5304 39.3434 45.4538 39.2202C45.4405 39.2053 45.4236 39.1939 45.4045 39.1869C45.3855 39.1799 45.3649 39.1775 45.3446 39.18C45.3244 39.1824 45.3051 39.1897 45.2885 39.2011C45.2719 39.2125 45.2585 39.2276 45.2496 39.2452C45.2234 39.2977 45.2496 39.3352 45.2732 39.3827C45.2947 39.4341 45.3097 39.4878 45.3177 39.5427C45.124 39.5427 44.4539 39.5427 44.4381 39.6927C44.3622 40.3877 44.0246 40.6402 43.9513 39.8627C43.9486 39.8002 43.8754 38.9652 44.569 38.9602L44.5586 38.9702ZM40.2159 33.1077C41.3755 34.4552 42.5979 39.0677 42.7445 39.6402L40.2133 39.6627C39.9594 37.2502 40.2264 33.0977 40.2264 33.0977L40.2159 33.1077ZM39.8887 39.9502C39.89 39.9365 39.8966 39.9237 39.9073 39.9145C39.9179 39.9052 39.9319 39.9001 39.9463 39.9002C40.4698 39.9002 42.0247 39.8752 43.6974 39.8652C43.7497 40.5402 44.0691 40.5802 44.1895 40.5727C44.5952 40.5552 44.5219 39.9077 44.6476 39.8027C44.8822 39.7594 45.1225 39.7518 45.3596 39.7802C45.3596 39.8027 45.4904 41.0727 45.9119 41.0727C45.9554 41.0751 45.9986 41.064 46.0349 41.041C46.0712 41.018 46.0988 40.9844 46.1134 40.9452C46.1492 40.9853 46.1949 41.0162 46.2464 41.0351C46.2979 41.054 46.3536 41.0603 46.4083 41.0533C46.463 41.0464 46.515 41.0264 46.5595 40.9953C46.604 40.9641 46.6397 40.9228 46.6631 40.8752C46.7188 40.9566 46.8019 41.0174 46.8987 41.0477C47.1396 41.1102 47.3228 40.8227 47.3359 40.7977C47.3671 40.8433 47.4106 40.8801 47.4618 40.9042C47.5131 40.9283 47.5701 40.9389 47.627 40.9348C47.6839 40.9307 47.7387 40.9121 47.7856 40.881C47.8324 40.8498 47.8697 40.8072 47.8934 40.7577C48.0289 40.4874 48.1072 40.1943 48.1238 39.8952C48.1238 39.8952 48.5662 39.8952 48.7285 39.8952C48.743 39.8952 48.757 39.9007 48.7673 39.9105C48.7777 39.9204 48.7834 39.9337 48.7834 39.9477V41.5152C48.7468 41.5152 40.9488 41.4952 39.8834 41.5152C39.8939 41.2877 39.8651 40.6452 39.8991 39.9402L39.8887 39.9502ZM38.695 41.8152C38.695 41.8006 38.7011 41.7866 38.7119 41.7763C38.7227 41.766 38.7373 41.7602 38.7526 41.7602C39.7054 41.7427 49.2389 41.7602 49.3907 41.7602C49.4053 41.7602 49.4193 41.7657 49.4296 41.7755C49.4399 41.7854 49.4457 41.7987 49.4457 41.8127V42.1327H38.6898L38.695 41.8152ZM21.183 29.7352C21.4159 28.9302 22.4918 28.7202 22.6855 28.4852C23.0494 28.0402 22.9761 26.9127 23.9236 26.5877C24.7404 26.3077 25.3529 26.9827 25.3764 27.0102C25.3895 27.0242 25.4059 27.0352 25.4242 27.0421C25.4425 27.0491 25.4622 27.0518 25.4819 27.0501C25.5015 27.0484 25.5204 27.0423 25.5371 27.0323C25.5538 27.0223 25.5678 27.0088 25.578 26.9927C25.578 26.9927 26.2769 25.8777 27.2376 25.6527C28.4653 25.3627 29.0411 26.7677 29.0699 26.8302C29.3231 27.2872 29.681 27.6837 30.117 27.9902C30.5803 28.1852 31.4441 28.5502 31.5829 29.3077C31.6615 29.643 31.6668 29.9902 31.5986 30.3277C31.3839 31.2502 32.1588 31.9027 32.0226 32.7977C31.9572 33.2477 31.6693 33.4502 31.3656 33.6652C31.0771 33.863 30.8376 34.1191 30.6641 34.4152C30.4023 34.8452 30.1144 35.3302 29.4338 35.2902C29.6956 34.1677 29.6956 32.3452 29.6956 31.5577C29.6938 31.4604 29.6538 31.3673 29.5835 31.2969C29.5131 31.2265 29.4177 31.1839 29.316 31.1777C28.8903 31.1591 28.4736 31.0543 28.0936 30.8702C27.4679 30.5352 27.1564 28.7902 25.6906 28.9202C25.6616 28.922 25.6343 28.934 25.614 28.9538C25.5937 28.9737 25.5818 29 25.5806 29.0277C25.5806 29.0277 25.5256 29.8502 25.2482 30.2527C24.7561 30.9677 23.8346 30.5477 23.3739 31.3777C23.3314 31.4546 23.3107 31.5407 23.3137 31.6277C23.3373 32.2552 23.4472 34.3777 23.6069 35.0027C23.0572 35.0027 22.1149 34.8952 21.7746 34.4802C21.2065 33.7827 21.7144 33.0152 21.6829 32.3427C21.6515 31.6702 20.8139 31.0302 21.183 29.7352ZM26.6591 37.6627C27.033 37.6848 27.4073 37.625 27.7533 37.4877C27.7183 37.9054 27.7412 38.3257 27.8213 38.7377C27.8275 38.7635 27.8253 38.7904 27.815 38.815C27.8047 38.8396 27.7868 38.8606 27.7637 38.8752C26.5858 39.6252 25.6932 39.0602 25.3634 38.7777C25.3423 38.7601 25.3272 38.7368 25.3202 38.711C25.3132 38.6851 25.3146 38.6578 25.3241 38.6327C25.4335 38.2522 25.4907 37.8597 25.4942 37.4652C25.4945 37.4427 25.4879 37.4206 25.4754 37.4015C25.4629 37.3825 25.4449 37.3672 25.4236 37.3577C24.8686 37.1077 24.1147 36.3452 23.853 34.9527C23.6942 33.8476 23.5981 32.7351 23.565 31.6202C23.5646 31.5743 23.5753 31.5289 23.5964 31.4877C24.12 30.5502 25.5806 31.5577 25.8214 29.1477C27.057 29.1477 27.2664 30.6952 27.9836 31.0752C28.3954 31.2776 28.8481 31.3927 29.3108 31.4127C29.3508 31.4152 29.3884 31.432 29.4161 31.4598C29.4437 31.4876 29.4594 31.5243 29.46 31.5627C29.46 32.2327 29.46 34.5027 29.1144 35.5627C28.9181 36.1527 28.2873 37.5177 26.6722 37.4452C26.649 37.4527 26.6286 37.4666 26.6138 37.4853C26.5989 37.5039 26.5903 37.5263 26.5889 37.5497C26.5874 37.5731 26.5934 37.5963 26.6059 37.6164C26.6184 37.6366 26.6369 37.6527 26.6591 37.6627ZM23.5991 37.8252C23.4341 37.6802 22.997 37.7327 22.8347 37.7602C22.8415 37.722 22.8511 37.6845 22.8635 37.6477C22.8742 37.6365 22.8824 37.6234 22.8878 37.6092C22.8932 37.595 22.8955 37.5799 22.8948 37.5649C22.8941 37.5498 22.8902 37.535 22.8835 37.5213C22.8768 37.5076 22.8673 37.4953 22.8556 37.4852C22.844 37.475 22.8303 37.4671 22.8154 37.462C22.8005 37.4568 22.7847 37.4546 22.7689 37.4553C22.7531 37.456 22.7376 37.4596 22.7233 37.466C22.709 37.4725 22.6962 37.4815 22.6855 37.4927C22.6119 37.6864 22.5627 37.8878 22.5389 38.0927C22.5023 38.3577 22.4106 39.0502 22.2771 39.1227C22.1881 39.0227 22.1096 38.5527 22.1044 38.0302C22.1044 37.6502 22.1855 36.5777 22.5206 36.5777C23.0441 36.5777 23.3347 37.2277 23.5676 37.2402C23.5912 37.2402 24.0467 37.2552 24.1357 37.6152C24.16 37.7405 24.1485 37.8698 24.1024 37.9894C24.0564 38.1091 23.9774 38.2147 23.8739 38.2952C23.832 38.3277 23.7221 38.3952 23.6357 38.3502C23.6095 38.3377 23.6357 38.2227 23.6357 38.1602C23.6357 38.0977 23.7011 37.9027 23.5991 37.8252ZM21.929 38.8827C21.9447 39.2852 21.6254 39.1202 21.5337 38.8127C21.3493 38.0829 21.3439 37.3223 21.518 36.5902C21.573 36.4077 22.1122 36.5252 22.0651 36.6702C21.858 37.3906 21.8152 38.1451 21.9395 38.8827H21.929ZM20.8296 36.7502C20.8803 36.7042 20.9434 36.6726 21.0118 36.6589C21.0802 36.6453 21.1513 36.65 21.217 36.6727C21.039 37.2277 21.1385 38.3177 21.3191 38.8952C21.2903 39.2402 20.9814 39.2152 20.9055 39.0702C20.6123 38.5202 20.4867 37.0627 20.8296 36.7502ZM20.5678 38.8702C20.5992 38.9502 20.4919 39.3227 20.2171 38.9927C19.9422 38.6627 19.6386 36.6027 20.4474 37.0152C20.3932 37.2785 20.3748 37.5473 20.3924 37.8152C20.3924 38.0177 20.56 38.8702 20.56 38.8752L20.5678 38.8702ZM19.4475 31.3702C19.4291 31.2302 19.67 31.1952 19.6883 31.3377C19.9652 33.035 20.1399 34.7462 20.2118 36.4627C20.2118 36.6127 19.9736 36.6027 19.9684 36.4627C19.8939 34.7602 19.7174 33.0633 19.4396 31.3802L19.4475 31.3702ZM20.5966 25.0002C20.5652 25.3452 20.4212 26.1677 20.2563 27.0002C19.9408 26.7186 19.5825 26.4843 19.1936 26.3052C19.7537 25.7502 20.3296 25.2152 20.5966 25.0002ZM26.379 42.2502C25.9994 42.3102 25.4759 42.4002 24.9236 42.5002C24.8922 42.2927 24.8477 42.0952 24.8058 41.9277C25.1278 41.9602 25.8371 42.0352 26.3764 42.1302L26.379 42.2502ZM26.3633 42.4877C26.3283 43.0088 26.3283 43.5315 26.3633 44.0527H21.8845C21.8845 43.8552 21.9133 43.4377 22.1881 43.3377C22.7981 43.1152 25.2351 42.6777 26.3633 42.5002V42.4877ZM38.4621 41.8002V44.0502H26.6224C26.5705 43.3247 26.581 42.5965 26.6539 41.8727C28.2716 41.8177 34.1299 41.3727 34.1901 41.3577C34.222 41.3553 34.2517 41.341 34.2725 41.3178C34.2934 41.2946 34.3037 41.2644 34.3013 41.2339C34.2989 41.2034 34.2839 41.1751 34.2596 41.1552C34.2353 41.1352 34.2037 41.1253 34.1717 41.1277C34.1089 41.1277 27.9784 41.6077 26.5413 41.6427C26.5115 41.6432 26.483 41.6542 26.4613 41.6736C26.4395 41.693 26.4261 41.7194 26.4235 41.7477C26.4235 41.7477 26.4235 41.8102 26.4078 41.8977C25.7926 41.7927 24.9943 41.7127 24.7377 41.6877C24.6959 41.5452 24.6618 41.4527 24.6592 41.4377C24.6502 41.4138 24.6334 41.3933 24.6112 41.3794C24.589 41.3654 24.5627 41.3587 24.5362 41.3602C21.5076 41.5402 16.5628 41.3602 16.5131 41.3602C16.4811 41.3601 16.4503 41.3717 16.4269 41.3926C16.4036 41.4135 16.3894 41.4422 16.3874 41.4727C16.3867 41.488 16.3892 41.5033 16.3948 41.5176C16.4004 41.532 16.4089 41.5452 16.4199 41.5563C16.4309 41.5675 16.4441 41.5765 16.4587 41.5827C16.4734 41.589 16.4892 41.5923 16.5052 41.5927C16.555 41.5927 21.4081 41.7727 24.4576 41.5927C24.5582 41.8992 24.6344 42.2126 24.6854 42.5302C23.8121 42.6727 22.9485 42.8647 22.0991 43.1052C21.6829 43.2577 21.6384 43.7902 21.6411 44.0377H13.0473C14.1912 40.9402 17.2356 39.3652 19.793 38.5727C20.1176 39.6652 20.6385 39.2577 20.6987 39.1777C21.183 39.6577 21.3819 39.3077 21.45 39.1952C21.8243 39.5252 22.0101 39.3077 22.073 39.2177C22.073 39.2177 22.6462 39.8227 22.8059 37.9827C22.8059 37.9827 22.8059 37.9052 23.4132 37.9452C23.423 37.9981 23.423 38.0522 23.4132 38.1052C23.3059 38.6977 23.8661 38.5852 24.0362 38.4602C24.1733 38.3542 24.278 38.215 24.3392 38.057C24.4005 37.8991 24.4161 37.7283 24.3844 37.5627C24.3369 37.4021 24.2363 37.2605 24.0975 37.1592C23.9588 37.0578 23.7894 37.002 23.6148 37.0002C23.5493 36.5977 23.4472 36.0152 23.2876 35.2027C23.4472 35.2152 23.5807 35.2177 23.6645 35.2177C23.9263 36.2902 24.5336 37.1702 25.2351 37.5202C25.2292 37.8642 25.1773 38.2062 25.0806 38.5377C25.0557 38.6063 25.0525 38.6804 25.0716 38.7507C25.0907 38.821 25.1312 38.8843 25.188 38.9327C26.1591 39.7927 27.4051 39.3602 27.8868 39.0502C27.9496 39.0095 27.9984 38.9519 28.0268 38.8846C28.0553 38.8174 28.0621 38.7436 28.0464 38.6727C27.9985 38.4311 27.9731 38.186 27.9705 37.9402C33.3367 37.4727 38.0668 41.1602 38.5694 41.5677C38.5328 41.5961 38.504 41.6325 38.4853 41.6739C38.4666 41.7152 38.4586 41.7602 38.4621 41.8052V41.8002ZM49.4562 44.0502H38.7055V43.6877C39.2552 43.6877 49.0059 43.7027 49.4666 43.6877C49.464 43.8377 49.4614 43.9602 49.4588 44.0577L49.4562 44.0502ZM49.4562 43.4602C48.0819 43.4927 39.4175 43.4602 38.6924 43.4602V42.3502H49.4509C49.4666 42.6952 49.4719 43.1077 49.4693 43.4677L49.4562 43.4602Z" fill="#313131"/>
<path d="M42.5819 43.9733C42.5502 43.9727 42.52 43.9603 42.4975 43.9389C42.4751 43.9175 42.4622 43.8886 42.4615 43.8583V42.0633C42.4589 42.0466 42.4602 42.0296 42.4651 42.0134C42.47 41.9972 42.4786 41.9822 42.4901 41.9694C42.5017 41.9566 42.516 41.9464 42.532 41.9394C42.5481 41.9323 42.5656 41.9287 42.5832 41.9287C42.6009 41.9287 42.6184 41.9323 42.6344 41.9394C42.6505 41.9464 42.6648 41.9566 42.6763 41.9694C42.6879 41.9822 42.6964 41.9972 42.7014 42.0134C42.7063 42.0296 42.7075 42.0466 42.705 42.0633V43.8583C42.7043 43.889 42.691 43.9183 42.668 43.9398C42.645 43.9613 42.6141 43.9733 42.5819 43.9733Z" fill="#7BD2FF"/>
<path d="M24.675 11.9651C24.675 12.0619 24.7062 12.1547 24.7617 12.2232C24.8172 12.2916 24.8924 12.3301 24.9708 12.3301C25.0493 12.3301 25.1245 12.2916 25.18 12.2232C25.2355 12.1547 25.2666 12.0619 25.2666 11.9651C25.2666 11.8683 25.2355 11.7755 25.18 11.707C25.1245 11.6386 25.0493 11.6001 24.9708 11.6001C24.8924 11.6001 24.8172 11.6386 24.7617 11.707C24.7062 11.7755 24.675 11.8683 24.675 11.9651Z" fill="#313131"/>
<path d="M28.2043 12.0061C28.2043 12.1029 28.2355 12.1958 28.291 12.2642C28.3465 12.3327 28.4217 12.3711 28.5001 12.3711C28.5786 12.3711 28.6538 12.3327 28.7093 12.2642C28.7648 12.1958 28.7959 12.1029 28.7959 12.0061C28.7959 11.9093 28.7648 11.8165 28.7093 11.748C28.6538 11.6796 28.5786 11.6411 28.5001 11.6411C28.4217 11.6411 28.3465 11.6796 28.291 11.748C28.2355 11.8165 28.2043 11.9093 28.2043 12.0061Z" fill="#313131"/>
<path d="M22.8481 12.6998C22.8326 12.7001 22.8172 12.6973 22.8028 12.6918C22.7884 12.6862 22.7753 12.6779 22.7644 12.6673C22.6881 12.6052 22.5989 12.5592 22.5026 12.5323C22.4717 12.5237 22.4457 12.5037 22.4302 12.4768C22.4147 12.4498 22.4111 12.4181 22.4202 12.3886C22.4292 12.3591 22.4501 12.3342 22.4783 12.3194C22.5066 12.3047 22.5398 12.3012 22.5707 12.3098C22.7005 12.3467 22.8196 12.4117 22.9188 12.4998C22.9352 12.5153 22.9467 12.5349 22.952 12.5563C22.9573 12.5777 22.9562 12.6 22.9488 12.6209C22.9414 12.6417 22.9281 12.6602 22.9103 12.6741C22.8925 12.6881 22.871 12.697 22.8481 12.6998Z" fill="#313131"/>
<path d="M14.9273 14.6718C14.8701 14.5015 14.7815 14.3423 14.6656 14.2018C14.5582 13.9518 13.2939 11.1218 13.1185 10.7943C12.8384 10.2743 12.5557 10.2293 12.3673 10.2943C12.0243 10.3968 12.0846 10.8493 12.1814 11.0718C12.2783 11.2943 12.8829 12.5368 13.0007 12.8643C12.8954 12.919 12.787 12.9682 12.6761 13.0118C12.5898 12.8418 12.2364 12.0593 11.9825 11.5643C11.6971 11.0018 11.4144 10.7518 11.1448 10.8668C10.8098 10.9993 10.7757 11.3893 11.0506 12.0243C11.2861 12.5039 11.5483 12.9713 11.8359 13.4243C11.7546 13.4194 11.6738 13.4396 11.6054 13.4819C11.5371 13.5242 11.4848 13.5864 11.4563 13.6593C11.1082 13.6593 10.8778 13.8818 10.9799 14.3368C11.1213 14.9618 11.8699 15.9443 12.2311 15.9793C12.5924 16.0143 12.5688 15.7293 12.5688 15.6293C13.184 15.7868 12.9981 15.0368 12.9301 14.8643C12.9615 14.8643 13.7389 14.6143 13.8305 15.0618C13.8619 15.2068 14.1106 15.1368 14.0635 14.9918C13.8855 14.4493 13.341 14.5443 12.9824 14.6168C12.6238 14.6893 12.5898 14.5568 12.6316 14.4843C12.7651 14.2543 13.1552 14.0118 13.7441 13.9843C14.3331 13.9568 14.6917 14.7343 14.697 14.7343C14.7105 14.7574 14.7317 14.7755 14.7573 14.7856C14.7829 14.7957 14.8114 14.7973 14.838 14.7901C14.8647 14.7828 14.888 14.7672 14.9042 14.7458C14.9204 14.7243 14.9286 14.6982 14.9273 14.6718ZM12.2521 15.7518C12.0819 15.7368 11.3595 14.9293 11.205 14.2918C11.1788 14.1843 11.1213 13.8568 11.4223 13.8968C11.5746 14.4684 11.8702 14.9961 12.2835 15.4343C12.4327 15.7518 12.2913 15.7518 12.2521 15.7518ZM13.7337 13.7518C12.383 13.8068 11.9668 14.8793 12.6735 14.8868C12.896 15.3568 12.6578 15.4168 12.5976 15.3868C12.1541 14.9751 11.8349 14.457 11.6736 13.8868C11.6736 13.7993 11.7443 13.5468 11.9877 13.6893L12.1945 14.0018C12.213 14.0244 12.2395 14.0398 12.269 14.045C12.2985 14.0502 12.329 14.045 12.3548 14.0302C12.3805 14.0155 12.3997 13.9922 12.4088 13.9649C12.4178 13.9376 12.4161 13.908 12.4039 13.8818C12.4039 13.8668 11.5113 12.4843 11.2757 11.9343C11.1553 11.6568 10.993 11.1843 11.2391 11.0793C11.3307 11.0418 11.5191 11.1743 11.7626 11.6543C11.9406 12.0068 12.1107 12.3743 12.2495 12.6718C12.5112 13.2618 12.5112 13.2618 12.6238 13.2543C12.8317 13.1985 13.0301 13.1143 13.2128 13.0043C13.3122 12.9268 13.3201 12.9193 12.6343 11.4718C12.5296 11.2468 12.4353 11.0518 12.4039 10.9718C12.3358 10.8143 12.2966 10.5568 12.4379 10.5068C12.6212 10.4393 12.807 10.7293 12.8986 10.8993C13.0348 11.1493 13.8619 12.9993 14.2467 13.8618C14.0887 13.783 13.9118 13.745 13.7337 13.7518Z" fill="#313131"/>
<path d="M19.7036 23.0452L20.0334 22.4602C20.0507 22.4362 20.0767 22.4191 20.1064 22.4124C20.1361 22.4056 20.1673 22.4097 20.1941 22.4237C20.2208 22.4377 20.2412 22.4607 20.2511 22.4883C20.2611 22.5158 20.26 22.5459 20.2481 22.5727L19.9156 23.1552C19.9004 23.1821 19.8745 23.202 19.8439 23.2107C19.8132 23.2194 19.7801 23.216 19.752 23.2015C19.7239 23.1869 19.703 23.1622 19.6939 23.1329C19.6848 23.1036 19.6883 23.0721 19.7036 23.0452Z" fill="#7BD2FF"/>
<path d="M22.5289 20.5799L22.1625 20.0174C22.149 19.9913 22.146 19.9614 22.1542 19.9335C22.1624 19.9055 22.1812 19.8814 22.2069 19.8659C22.2326 19.8503 22.2634 19.8444 22.2934 19.8493C22.3234 19.8542 22.3504 19.8696 22.3693 19.8924L22.7357 20.4574C22.7474 20.4832 22.7489 20.5122 22.7401 20.5391C22.7313 20.5659 22.7126 20.5888 22.6876 20.6037C22.6625 20.6185 22.6327 20.6243 22.6036 20.6199C22.5745 20.6155 22.548 20.6013 22.5289 20.5799Z" fill="#7BD2FF"/>
<path d="M25.081 23.3511L25.4108 22.7661C25.4284 22.7434 25.4539 22.7274 25.4828 22.7211C25.5117 22.7149 25.542 22.7188 25.5681 22.7322C25.5942 22.7456 25.6144 22.7675 25.6249 22.794C25.6354 22.8204 25.6356 22.8496 25.6255 22.8761L25.2956 23.4611C25.2781 23.4839 25.2525 23.4999 25.2236 23.5062C25.1947 23.5124 25.1644 23.5084 25.1383 23.4951C25.1122 23.4817 25.0921 23.4598 25.0815 23.4333C25.071 23.4069 25.0708 23.3777 25.081 23.3511Z" fill="#7BD2FF"/>
<path d="M22.0281 25.4566L22.447 25.9866C22.4664 26.0112 22.4748 26.0421 22.4704 26.0726C22.466 26.103 22.4491 26.1306 22.4234 26.1491C22.3977 26.1677 22.3653 26.1758 22.3334 26.1716C22.3015 26.1673 22.2727 26.1512 22.2532 26.1266L21.8344 25.5966C21.8248 25.5845 21.8178 25.5707 21.8137 25.5559C21.8097 25.5412 21.8088 25.5258 21.811 25.5107C21.8131 25.4956 21.8184 25.4811 21.8265 25.468C21.8346 25.4548 21.8453 25.4433 21.858 25.4341C21.8707 25.425 21.8852 25.4182 21.9006 25.4144C21.9161 25.4106 21.9321 25.4097 21.9479 25.4117C21.9637 25.4138 21.9789 25.4189 21.9927 25.4266C22.0065 25.4343 22.0185 25.4445 22.0281 25.4566Z" fill="#7BD2FF"/>
<path d="M28.8106 24.33L28.7269 23.6725C28.7227 23.642 28.7314 23.6111 28.751 23.5868C28.7706 23.5624 28.7996 23.5465 28.8316 23.5425C28.8635 23.5385 28.8958 23.5468 28.9213 23.5656C28.9468 23.5843 28.9635 23.612 28.9677 23.6425L29.0514 24.3025C29.0553 24.333 29.0462 24.3637 29.0264 24.3878C29.0065 24.412 28.9774 24.4276 28.9454 24.4312C28.9135 24.4349 28.8813 24.4263 28.8561 24.4073C28.8308 24.3883 28.8144 24.3605 28.8106 24.33Z" fill="#7BD2FF"/>
<path d="M29.2159 20.3923L28.9044 19.7998C28.8901 19.7723 28.8879 19.7405 28.8982 19.7114C28.9086 19.6823 28.9305 19.6584 28.9593 19.6448C28.9882 19.6312 29.0214 19.6291 29.0519 19.6389C29.0823 19.6488 29.1074 19.6698 29.1216 19.6973L29.4358 20.2898C29.4461 20.3171 29.4455 20.347 29.4342 20.3739C29.4228 20.4008 29.4014 20.4227 29.3741 20.4354C29.3468 20.4482 29.3155 20.4508 29.2863 20.4428C29.2571 20.4349 29.232 20.4169 29.2159 20.3923Z" fill="#7BD2FF"/>
<path d="M31.4356 22.3427L32.1188 22.4652C32.1487 22.473 32.1745 22.4914 32.1908 22.5166C32.2072 22.5418 32.213 22.572 32.207 22.6011C32.2011 22.6302 32.1838 22.6561 32.1587 22.6736C32.1336 22.691 32.1025 22.6987 32.0716 22.6952L31.3911 22.5727C31.3617 22.5647 31.3365 22.5464 31.3204 22.5216C31.3043 22.4968 31.2985 22.4671 31.3041 22.4384C31.3096 22.4097 31.3261 22.384 31.3505 22.3663C31.3748 22.3486 31.4051 22.3402 31.4356 22.3427Z" fill="#7BD2FF"/>
<path d="M16.0068 21.4643C16.1867 21.2997 16.3505 21.1198 16.4962 20.9268C16.2188 20.8993 15.8575 20.9718 15.7764 20.7893C15.722 20.3614 15.7001 19.9303 15.711 19.4993C15.7084 19.4826 15.7096 19.4656 15.7145 19.4494C15.7195 19.4332 15.728 19.4182 15.7396 19.4054C15.7511 19.3927 15.7654 19.3824 15.7815 19.3754C15.7975 19.3684 15.815 19.3647 15.8327 19.3647C15.8503 19.3647 15.8678 19.3684 15.8839 19.3754C15.8999 19.3824 15.9142 19.3927 15.9258 19.4054C15.9373 19.4182 15.9459 19.4332 15.9508 19.4494C15.9557 19.4656 15.957 19.4826 15.9544 19.4993C15.9544 19.9993 15.9675 20.5343 15.991 20.6843C16.2135 20.7268 16.7528 20.6118 16.758 20.8793C16.758 21.0443 16.4413 21.3793 16.169 21.6293C16.1454 21.644 16.117 21.6503 16.089 21.6471C16.0609 21.6439 16.035 21.6313 16.0156 21.6117C15.9963 21.592 15.9848 21.5665 15.9832 21.5395C15.9816 21.5126 15.9899 21.486 16.0068 21.4643Z" fill="#313131"/>
<path d="M14.1728 19.7521C14.1497 19.7522 14.1271 19.7459 14.1076 19.7341C14.0882 19.7222 14.0727 19.7053 14.063 19.6852C14.0534 19.6652 14.05 19.643 14.0532 19.6212C14.0564 19.5993 14.0661 19.5788 14.0811 19.5621C14.198 19.4344 14.362 19.3545 14.5389 19.3391C14.7159 19.3238 14.8922 19.3741 15.0313 19.4796C15.0544 19.4985 15.0694 19.5249 15.0733 19.5537C15.0772 19.5824 15.0699 19.6116 15.0526 19.6355C15.0354 19.6594 15.0095 19.6764 14.98 19.6831C14.9504 19.6899 14.9193 19.686 14.8926 19.6721C14.8036 19.5992 14.6882 19.5626 14.5712 19.57C14.4542 19.5775 14.345 19.6285 14.267 19.7121C14.2555 19.7252 14.241 19.7356 14.2247 19.7425C14.2084 19.7494 14.1906 19.7527 14.1728 19.7521Z" fill="#313131"/>
<path d="M17.4887 19.6503C17.4732 19.6504 17.4578 19.6476 17.4434 19.642C17.4291 19.6365 17.416 19.6282 17.4049 19.6178C17.3663 19.5809 17.3204 19.5515 17.2699 19.5315C17.2193 19.5115 17.1652 19.5012 17.1105 19.5012C17.0558 19.5012 17.0016 19.5115 16.9511 19.5315C16.9005 19.5515 16.8546 19.5809 16.816 19.6178C16.793 19.6395 16.7619 19.6517 16.7296 19.6517C16.6973 19.6517 16.6662 19.6395 16.6432 19.6178C16.6317 19.6071 16.6225 19.5943 16.6162 19.5801C16.6099 19.5659 16.6067 19.5507 16.6067 19.5353C16.6067 19.5199 16.6099 19.5047 16.6162 19.4905C16.6225 19.4764 16.6317 19.4635 16.6432 19.4528C16.7036 19.394 16.7757 19.3473 16.8553 19.3154C16.9349 19.2835 17.0203 19.2671 17.1065 19.2671C17.1928 19.2671 17.2782 19.2835 17.3578 19.3154C17.4373 19.3473 17.5094 19.394 17.5699 19.4528C17.5857 19.469 17.5965 19.4892 17.6009 19.511C17.6052 19.5328 17.6031 19.5554 17.5946 19.576C17.5861 19.5967 17.5716 19.6146 17.5529 19.6278C17.5342 19.6409 17.5119 19.6488 17.4887 19.6503Z" fill="#313131"/>
<path d="M12.486 21.1799C12.3996 21.1149 12.1954 20.9949 12.1954 20.9949C12.1795 20.9882 12.1652 20.9782 12.1536 20.9658C12.142 20.9534 12.1333 20.9388 12.128 20.9229C12.1228 20.9071 12.1211 20.8903 12.1232 20.8738C12.1252 20.8573 12.1309 20.8413 12.1398 20.8271C12.1488 20.8128 12.1609 20.8005 12.1752 20.791C12.1895 20.7815 12.2057 20.775 12.2229 20.772C12.24 20.769 12.2576 20.7694 12.2745 20.7734C12.2915 20.7773 12.3073 20.7847 12.3211 20.7949C12.3211 20.7949 12.5383 20.9249 12.6378 20.9974C12.6587 21.0179 12.671 21.0449 12.6725 21.0735C12.674 21.102 12.6646 21.1301 12.646 21.1525C12.6273 21.1748 12.6008 21.19 12.5714 21.195C12.5419 21.2001 12.5116 21.1947 12.486 21.1799Z" fill="#313131"/>
<path d="M15.8674 23.313C15.3648 23.313 15.0664 22.933 14.9643 22.4655C14.9581 22.4369 14.9589 22.4072 14.9668 22.379C14.9747 22.3507 14.9894 22.3246 15.0098 22.3027C15.0301 22.2809 15.0556 22.2639 15.084 22.253C15.1125 22.2422 15.1432 22.238 15.1737 22.2405C15.6264 22.2694 16.0808 22.2627 16.5323 22.2205C16.5638 22.217 16.5958 22.2207 16.6255 22.2314C16.6552 22.2421 16.6818 22.2595 16.7031 22.282C16.7244 22.3045 16.7397 22.3315 16.7478 22.3609C16.7558 22.3902 16.7565 22.4209 16.7496 22.4505C16.5585 23.2155 16.0952 23.313 15.8674 23.313ZM15.2235 22.4755C15.2811 22.6855 15.4381 23.0605 15.8491 23.0805C16.2601 23.1005 16.4302 22.6905 16.493 22.458C16.071 22.4953 15.6465 22.5011 15.2235 22.4755Z" fill="#313131"/>
<path d="M14.2122 20.419C14.2122 20.5025 14.2392 20.5827 14.2873 20.6417C14.3354 20.7008 14.4007 20.734 14.4687 20.734C14.5367 20.734 14.602 20.7008 14.6501 20.6417C14.6982 20.5827 14.7252 20.5025 14.7252 20.419C14.7252 20.3355 14.6982 20.2553 14.6501 20.1963C14.602 20.1372 14.5367 20.104 14.4687 20.104C14.4007 20.104 14.3354 20.1372 14.2873 20.1963C14.2392 20.2553 14.2122 20.3355 14.2122 20.419Z" fill="#313131"/>
<path d="M16.9094 20.3936C16.9094 20.4772 16.9365 20.5573 16.9846 20.6164C17.0327 20.6754 17.0979 20.7086 17.166 20.7086C17.234 20.7086 17.2992 20.6754 17.3473 20.6164C17.3955 20.5573 17.4225 20.4772 17.4225 20.3936C17.4225 20.3101 17.3955 20.2299 17.3473 20.1709C17.2992 20.1118 17.234 20.0786 17.166 20.0786C17.0979 20.0786 17.0327 20.1118 16.9846 20.1709C16.9365 20.2299 16.9094 20.3101 16.9094 20.3936Z" fill="#313131"/>
<path d="M14.064 21.5447C14.1055 21.5501 14.1474 21.5495 14.1875 21.543C14.2275 21.5364 14.2647 21.5241 14.2971 21.5066C14.3294 21.4892 14.3561 21.467 14.3756 21.4414C14.3951 21.4158 14.4071 21.3873 14.4108 21.3575C14.4145 21.3277 14.4098 21.2973 14.3971 21.268C14.3844 21.2388 14.3639 21.2112 14.3368 21.1871C14.3096 21.1629 14.2764 21.1426 14.2391 21.1273C14.2018 21.112 14.1611 21.102 14.1195 21.098C14.078 21.0925 14.0359 21.093 13.9958 21.0996C13.9557 21.1061 13.9183 21.1184 13.886 21.1358C13.8536 21.1533 13.8268 21.1755 13.8072 21.2012C13.7876 21.2268 13.7757 21.2554 13.772 21.2852C13.7683 21.315 13.773 21.3455 13.7858 21.3748C13.7985 21.4041 13.8192 21.4317 13.8464 21.4559C13.8736 21.48 13.9069 21.5004 13.9444 21.5156C13.9818 21.5309 14.0225 21.5408 14.0643 21.5447" fill="#FCCAC2"/>
<path d="M17.3259 21.4524C17.3279 21.4819 17.338 21.5106 17.3556 21.5369C17.3732 21.5631 17.398 21.5865 17.4285 21.6055C17.459 21.6246 17.4947 21.639 17.5335 21.6479C17.5723 21.6568 17.6135 21.6601 17.6546 21.6576C17.6958 21.655 17.7362 21.6467 17.7734 21.6331C17.8107 21.6194 17.8441 21.6008 17.8718 21.5781C17.8995 21.5555 17.9209 21.5293 17.9348 21.5011C17.9487 21.4729 17.9548 21.4432 17.9528 21.4137C17.9511 21.384 17.9412 21.3552 17.9238 21.3287C17.9063 21.3023 17.8816 21.2787 17.851 21.2595C17.8205 21.2403 17.7847 21.2258 17.7458 21.2167C17.7069 21.2077 17.6655 21.2043 17.6242 21.2069C17.5828 21.2094 17.5423 21.2178 17.5049 21.2315C17.4675 21.2452 17.434 21.264 17.4062 21.2868C17.3785 21.3096 17.3572 21.336 17.3434 21.3644C17.3296 21.3927 17.3236 21.4226 17.3259 21.4522" fill="#FCCAC2"/>
<path d="M14.7272 27.1316C14.4824 27.069 14.2534 26.9599 14.0537 26.8108C13.854 26.6618 13.6878 26.4758 13.565 26.2641C13.5596 26.2546 13.5521 26.2464 13.5431 26.2399C13.5341 26.2334 13.5237 26.2289 13.5126 26.2266C13.2771 26.1847 13.0375 26.1671 12.798 26.1741C12.7875 26.1744 12.7771 26.1768 12.7675 26.181C12.7579 26.1852 12.7493 26.1913 12.7423 26.1987C12.7352 26.2062 12.7297 26.2149 12.7263 26.2245C12.7228 26.234 12.7214 26.2441 12.7221 26.2541C12.798 27.7091 12.9839 28.4266 13.0807 28.6991C13.0857 28.7119 13.094 28.7232 13.105 28.7319C13.116 28.7407 13.1292 28.7464 13.1433 28.7487C13.1573 28.751 13.1718 28.7497 13.1852 28.7449C13.1985 28.7402 13.2104 28.7321 13.2195 28.7216C13.6743 28.1819 14.1915 27.693 14.7612 27.2641C14.7731 27.2552 14.7819 27.2432 14.7868 27.2296C14.7917 27.216 14.7924 27.2014 14.7888 27.1874C14.7852 27.1735 14.7775 27.1608 14.7666 27.1509C14.7557 27.141 14.742 27.1343 14.7272 27.1316Z" fill="#FDAF31"/>
<path d="M17.2111 26.2492C17.2111 26.22 17.1989 26.192 17.1773 26.1714C17.1557 26.1508 17.1264 26.1392 17.0959 26.1392C16.9843 26.1441 16.8732 26.1566 16.7635 26.1767C16.7428 26.18 16.7235 26.1888 16.7078 26.202C16.692 26.2153 16.6805 26.2325 16.6745 26.2517C16.486 26.7367 15.8892 27.0542 15.5803 27.1542C15.5622 27.1595 15.5459 27.1692 15.5327 27.1822C15.5196 27.1952 15.5101 27.2112 15.5052 27.2286C15.5002 27.2461 15.4999 27.2644 15.5044 27.282C15.5088 27.2996 15.5178 27.3158 15.5305 27.3292C15.9886 27.8292 16.6116 28.4767 16.8943 28.7642C16.9094 28.7786 16.9283 28.7888 16.949 28.7938C16.9697 28.7988 16.9914 28.7983 17.0119 28.7924C17.0323 28.7865 17.0507 28.7754 17.065 28.7603C17.0793 28.7452 17.0891 28.7267 17.0933 28.7067C17.1867 27.8907 17.226 27.0699 17.2111 26.2492Z" fill="#FDAF31"/>
</svg>
