<svg width="53" height="50" viewBox="0 0 53 50" fill="none" xmlns="http://www.w3.org/2000/svg">
<path d="M12.1797 43.6752C12.1797 43.6752 13.7738 37.3603 24.7837 37.2278C35.9505 37.0928 38.3954 40.7502 38.775 43.6752H12.1797Z" fill="#4D68A1"/>
<path d="M25.6892 43.6755C25.6892 43.6755 25.6656 41.9105 25.6892 41.503C25.6892 41.503 24.3332 41.3355 23.8123 41.343C23.8943 41.5977 23.9478 41.86 23.972 42.1255C23.972 42.1255 21.658 42.4805 21.1894 42.8155C20.9434 43.0005 20.9434 43.6755 20.9434 43.6755H25.6892Z" fill="#FCCAC2"/>
<path d="M22.6094 31.0486C22.6094 31.0486 22.667 33.7986 22.9575 34.6086C23.2481 35.4186 23.4575 36.3986 24.5281 36.9411C24.5416 37.3769 24.4887 37.8123 24.3711 38.2336C24.5373 38.4197 24.7421 38.571 24.9725 38.6778C25.203 38.7847 25.4541 38.8448 25.71 38.8545C25.966 38.8641 26.2213 38.823 26.4598 38.7338C26.6984 38.6446 26.915 38.5092 27.096 38.3361C27.0113 37.8328 26.9919 37.3214 27.0384 36.8136C27.442 36.5845 27.785 36.2699 28.041 35.8941C28.297 35.5183 28.4591 35.0913 28.5148 34.6461C28.7478 33.0786 28.7949 31.2786 28.6797 30.8636C28.1797 30.8497 27.6902 30.7238 27.2505 30.4961C26.6327 30.1361 26.3369 28.5736 24.8946 28.4961C24.8946 28.4961 24.871 29.3786 24.5019 29.8761C24.1328 30.3736 22.9366 30.2511 22.6094 31.0486Z" fill="#FCCAC2"/>
<path d="M38.7416 18.8881C38.6212 18.7081 38.9824 17.1606 39.0033 16.8231C39.0033 16.8231 37.315 16.7806 36.3857 15.6106C36.3857 15.6106 35.1475 16.2506 33.8885 15.7631C33.8885 15.7631 33.3466 18.1231 33.1974 18.8031C33.0482 19.4831 32.7524 21.4781 34.2602 22.2181C34.2602 22.2181 34.1921 22.8031 34.0979 23.3231C33.4173 21.5106 31.1923 16.7256 26.8313 17.1831C26.7405 16.7635 26.7281 16.3319 26.7946 15.9081C26.7946 15.9081 28.3233 15.5781 28.7422 13.4756C28.9855 12.042 29.0032 10.5817 28.7945 9.14313C28.2932 9.09487 27.7881 9.09487 27.2867 9.14313C26.5198 9.22813 26.2606 9.55813 25.6219 9.57313C24.9832 9.58813 24.5749 9.29563 23.8445 9.35313C23.1142 9.41063 22.5357 10.2381 22.4493 11.0256C22.4493 11.0256 20.9206 11.1881 21.0306 12.0031C21.1405 12.8181 22.2164 12.8031 22.2164 12.8031C22.2164 12.8031 22.6849 14.9181 23.9414 15.8031C24.2398 16.0156 24.3236 15.8031 24.0644 17.2206C24.0644 17.2206 21.2138 16.4706 17.5988 20.6306L17.5334 20.7056C17.5334 20.3081 17.5334 19.8781 17.4863 19.4081C17.29 16.6856 16.4392 16.6581 16.4392 16.6581C15.6749 17.1956 12.7143 17.5581 12.484 17.7381C12.2536 17.9181 12.2222 19.6256 12.2222 19.6256C11.7562 19.4956 10.7301 19.6056 10.6961 20.3756C10.6621 21.1456 11.7432 21.4556 11.7432 21.4556C11.7411 21.9549 11.8658 22.4473 12.1065 22.8905C12.3472 23.3337 12.6967 23.7146 13.1253 24.0006C13.1829 24.3056 12.8635 25.7356 12.8635 25.7356C12.8635 25.7356 13.7273 26.5281 14.4838 26.5431C15.133 26.5556 15.8162 25.7531 15.7796 25.6231C16.5926 25.4732 17.4333 25.5406 18.2087 25.8181C18.2087 25.8181 19.7793 24.1806 19.9207 24.2406C20.062 24.3006 19.5045 26.6431 19.5045 26.6431C20.0301 27.1781 20.4814 27.7756 20.8473 28.4206C20.6801 28.5139 20.5356 28.6402 20.4237 28.7911C20.3117 28.942 20.2348 29.114 20.1982 29.2956C19.816 30.5206 20.7217 31.1006 20.7662 31.9231C20.7924 32.5106 20.3997 33.1056 20.6615 33.7256C21.1379 34.8556 22.931 34.5881 22.931 34.5881C22.8629 34.3381 22.5357 31.7681 22.6221 31.0381C22.7085 30.3081 23.8498 30.4006 24.3236 30.0781C24.4204 30.0131 24.9152 29.4981 24.9152 28.4956C24.9152 28.4956 25.8444 28.2456 27.1009 30.4206C27.3077 30.7781 28.695 30.8531 28.695 30.8531C28.8704 31.8956 28.4725 34.8781 28.4725 34.8781C29.7395 35.2081 29.9332 34.0781 30.3311 33.6281C30.5928 33.3181 31.4514 33.2531 31.4671 32.1806C31.4671 31.3606 31.1059 30.7681 31.0143 30.1956C30.9227 29.6231 31.119 28.7306 30.6033 28.1306C30.0876 27.5306 28.4202 26.1531 28.4437 26.1306C29.8206 24.8656 31.6661 23.8206 33.9408 23.9581C33.9264 24.0021 33.9062 24.0441 33.8806 24.0831C34.1908 24.3851 34.6067 24.5671 35.0486 24.5943C35.4906 24.6215 35.9276 24.492 36.2757 24.2306C36.2757 24.2306 36.2967 22.8106 36.425 22.5656C36.425 22.5656 37.7992 22.0656 38.5034 20.3156C38.5034 20.3156 39.8436 20.4631 39.8462 19.8356C39.8462 18.9831 38.8515 19.0681 38.7416 18.8881Z" fill="white"/>
<path d="M19.6668 36.4251C19.7359 36.2802 19.8584 36.1647 20.011 36.1006C20.1636 36.0365 20.3355 36.0283 20.494 36.0776C20.494 36.0776 20.8265 35.6801 21.4128 36.0426C21.4128 36.0426 21.9206 35.8552 22.1981 36.1577C22.4756 36.4602 22.5593 36.5551 22.74 36.6326C22.9206 36.7101 23.5724 36.6451 23.3865 37.3826C23.1745 38.2126 22.6012 38.1326 22.6824 37.5976C22.7531 37.1751 21.8788 37.2751 21.8421 37.4476C21.8212 37.5501 21.7165 38.7227 21.4887 38.7402C21.261 38.7577 21.2086 38.4902 21.2086 38.4902C21.2086 38.4902 20.9155 39.1927 20.6406 38.5252C20.6406 38.5252 20.1537 39.2452 19.8736 38.4902C19.8736 38.4902 19.3501 39.2527 19.0883 38.1102C18.8266 36.9676 18.9941 36.0651 19.6668 36.4251Z" fill="white"/>
<path d="M48.7356 41.1638C48.5217 41.119 48.3024 41.1022 48.0838 41.1138C48.0838 41.1138 48.1335 39.3638 48.0681 39.3038C47.7785 39.2573 47.4844 39.2414 47.1912 39.2563C47.288 37.2563 46.4818 37.8338 46.4818 37.8338C46.1677 37.2313 45.7567 37.5363 45.7567 37.5363C45.4949 37.0938 44.9295 37.5663 44.9295 37.5663C44.3667 37.1513 43.9479 38.3463 43.7987 38.3588C43.6878 38.3608 43.5785 38.3846 43.4777 38.4288C43.3768 38.4731 43.2867 38.5368 43.2129 38.6159C43.1392 38.695 43.0834 38.7879 43.049 38.8887C43.0147 38.9894 43.0026 39.0959 43.0134 39.2013C42.1522 39.2013 39.0503 39.2263 39.0189 39.2663C38.9545 39.8726 38.9326 40.4823 38.9535 41.0913C38.9535 41.0913 37.8383 41.0663 37.8095 41.1988C37.7807 41.3313 37.752 43.6713 37.752 43.6713H48.7461C48.7461 43.6713 48.8141 41.2263 48.7356 41.1638Z" fill="white"/>
<path d="M5.45086 42.4644C5.45086 42.4644 5.79115 41.8644 6.20997 42.1294C6.20997 42.1294 6.47174 41.7119 7.0293 42.1069C7.0293 42.1069 7.37483 41.8744 7.76224 42.2869C8.14965 42.6994 8.12609 42.7869 8.28577 42.8394C8.38149 42.8457 8.47492 42.8702 8.56054 42.9116C8.64615 42.9529 8.72221 43.0103 8.7842 43.0802C8.8462 43.1501 8.89287 43.2312 8.92146 43.3187C8.95005 43.4062 8.95998 43.4982 8.95065 43.5894C8.95065 44.2694 8.83286 44.3644 8.68889 44.3744C8.3355 44.4044 8.36691 43.7294 8.21509 43.6644C7.9536 43.6286 7.68746 43.6388 7.4298 43.6944C7.4298 43.6944 7.32247 44.7194 7.10783 44.7344C7.04952 44.7421 6.99031 44.7286 6.94187 44.6967C6.89342 44.6648 6.85924 44.6167 6.84606 44.5619C6.84606 44.5619 6.62356 45.0619 6.32253 44.5619C6.32253 44.5619 5.9325 45.2194 5.63409 44.4844C5.63409 44.4844 5.37233 45.0319 5.04512 44.3169C4.71791 43.6019 4.71268 42.0444 5.45086 42.4644Z" fill="white"/>
<path d="M39.8477 39.2661H41.1329V41.0936H39.8477V39.2661Z" fill="#FF7449"/>
<path d="M47.311 39.3779V41.1279H46.0859V40.5379C46.3268 40.6004 46.51 40.3129 46.5231 40.2879C46.5543 40.3336 46.5978 40.3703 46.649 40.3945C46.7003 40.4186 46.7573 40.4291 46.8142 40.4251C46.8712 40.421 46.9259 40.4024 46.9728 40.3712C47.0196 40.3401 47.0569 40.2975 47.0806 40.2479C47.2171 39.9754 47.2954 39.6797 47.311 39.3779Z" fill="#FF7449"/>
<path d="M10.6594 13.2752C10.6594 13.2752 10.1018 13.1552 10.2929 13.8977C10.484 14.6402 11.2824 15.4677 11.518 15.3527C11.7535 15.2377 11.5886 14.8702 11.5886 14.8702C11.5886 14.8702 11.7902 15.0852 12.0127 14.9977C12.2352 14.9102 13.6095 14.5277 13.9942 14.1952C13.9942 14.1952 12.2587 10.4227 12.1462 10.2602C12.0336 10.0977 11.9263 9.84268 11.5886 9.89518C11.251 9.94768 11.4394 10.4527 11.4813 10.5477C11.5232 10.6427 12.3294 12.3102 12.3032 12.3577C12.2771 12.4052 11.819 12.6627 11.7797 12.6077C11.7405 12.5527 10.9395 10.8977 10.8112 10.6702C10.6829 10.4427 9.99448 10.2502 10.2091 11.0702C10.4238 11.8902 11.2431 13.0552 11.2431 13.0552C11.2431 13.0552 10.7981 12.9152 10.6594 13.2752Z" fill="white"/>
<path d="M44.833 17.6663C44.9493 17.5139 45.12 17.4074 45.3128 17.3669C45.5057 17.3263 45.7075 17.3546 45.88 17.4463C45.9692 17.4949 46.0719 17.5159 46.1741 17.5065C46.2762 17.4971 46.3729 17.4578 46.4507 17.3938C46.5853 17.2495 46.7722 17.1592 46.9738 17.1411C47.1753 17.123 47.3765 17.1785 47.537 17.2963C47.6167 17.3691 47.7225 17.4102 47.8328 17.4113C48.0396 17.4113 48.1626 17.3963 48.3328 17.0963C48.3982 16.9838 48.5945 17.0763 48.5212 17.1938C48.4718 17.3257 48.3785 17.4384 48.2555 17.5147C48.1326 17.591 47.9869 17.6267 47.8406 17.6163C47.6809 17.6166 47.5265 17.5615 47.4061 17.4613C47.286 17.3783 47.1383 17.3401 46.9907 17.3539C46.8432 17.3677 46.706 17.4326 46.6051 17.5363C46.4976 17.6394 46.3565 17.7043 46.2051 17.7203C46.0536 17.7362 45.9011 17.7022 45.7727 17.6238C45.6481 17.5514 45.4993 17.5269 45.3564 17.5552C45.2136 17.5835 45.0873 17.6625 45.0031 17.7763C44.9852 17.7902 44.9631 17.7982 44.9401 17.7992C44.9171 17.8001 44.8944 17.794 44.8753 17.7817C44.8562 17.7693 44.8418 17.7514 44.8342 17.7307C44.8265 17.7099 44.8261 17.6873 44.833 17.6663Z" fill="#313131"/>
<path d="M7.03799 22.8654C6.99621 22.7633 6.93356 22.6702 6.8537 22.5916C6.77384 22.5129 6.67836 22.4502 6.57284 22.4071C6.46732 22.3641 6.35388 22.3415 6.23914 22.3408C6.12439 22.3401 6.01065 22.3612 5.90455 22.4029C5.71036 22.4823 5.4924 22.4908 5.29211 22.4267C5.09182 22.3626 4.92316 22.2305 4.81822 22.0554C4.73001 21.9096 4.58498 21.8031 4.4148 21.759C4.24462 21.715 4.06311 21.7371 3.9099 21.8204C3.88946 21.8337 3.86528 21.8409 3.84053 21.8409C3.81578 21.8409 3.79161 21.8337 3.77117 21.8204C3.75667 21.8089 3.7456 21.794 3.73907 21.7771C3.73254 21.7602 3.73078 21.742 3.73396 21.7243C3.73715 21.7065 3.74517 21.6899 3.75721 21.6761C3.76925 21.6622 3.7849 21.6516 3.80258 21.6454C3.93375 21.5849 4.0767 21.5512 4.22229 21.5465C4.36788 21.5417 4.5129 21.5661 4.64808 21.6179C4.79719 21.6936 4.91999 21.8091 5.00146 21.9504C5.08664 22.0809 5.21802 22.1779 5.37172 22.2238C5.52543 22.2697 5.69127 22.2614 5.83911 22.2004C6.05419 22.1205 6.28943 22.1039 6.51446 22.1529C6.6843 22.1916 6.84079 22.2715 6.96875 22.385C7.09671 22.4984 7.19179 22.6415 7.24478 22.8004C7.25381 22.8266 7.25157 22.8551 7.23856 22.8798C7.22555 22.9044 7.20284 22.923 7.17542 22.9317C7.14799 22.9403 7.11811 22.9381 7.09234 22.9257C7.06656 22.9133 7.04701 22.8916 7.03799 22.8654Z" fill="#313131"/>
<path d="M35.6511 6.17158L35.2689 6.86408L34.9836 6.72158C34.9583 6.70899 34.9287 6.70652 34.9015 6.71472C34.8742 6.72293 34.8515 6.74113 34.8383 6.76533C34.8251 6.78954 34.8226 6.81775 34.8312 6.84377C34.8397 6.86979 34.8588 6.89149 34.8841 6.90408L35.1695 7.04658L34.8475 7.62658C34.841 7.63857 34.837 7.65166 34.8357 7.66512C34.8345 7.67858 34.8361 7.69214 34.8403 7.70502C34.8489 7.73104 34.868 7.75274 34.8933 7.76533C34.9187 7.77793 34.9482 7.7804 34.9754 7.7722C35.0027 7.76399 35.0254 7.74578 35.0386 7.72158L35.3579 7.14158L35.6197 7.27158C35.645 7.28418 35.6746 7.28665 35.7018 7.27845C35.7291 7.27024 35.7518 7.25204 35.765 7.22783C35.7782 7.20363 35.7808 7.17542 35.7722 7.1494C35.7636 7.12338 35.7445 7.10168 35.7192 7.08908L35.4574 6.95908L35.8422 6.26658C35.8554 6.24238 35.858 6.21417 35.8494 6.18815C35.8408 6.16213 35.8217 6.14043 35.7964 6.12783C35.7711 6.11524 35.7415 6.11277 35.7143 6.12097C35.687 6.12918 35.6643 6.14738 35.6511 6.17158Z" fill="#4D68A1"/>
<path d="M16.327 8.36117C16.194 8.36117 16.0639 8.32349 15.9533 8.25289C15.8427 8.18229 15.7564 8.08195 15.7055 7.96455C15.6546 7.84714 15.6413 7.71796 15.6672 7.59333C15.6932 7.46869 15.7573 7.35421 15.8513 7.26436C15.9454 7.1745 16.0653 7.11331 16.1958 7.08852C16.3263 7.06373 16.4616 7.07645 16.5845 7.12508C16.7074 7.17371 16.8125 7.25606 16.8864 7.36172C16.9603 7.46738 16.9998 7.5916 16.9998 7.71867C16.9998 7.88907 16.9289 8.0525 16.8027 8.17299C16.6766 8.29348 16.5055 8.36117 16.327 8.36117ZM16.327 7.28367C16.2363 7.28367 16.1477 7.3094 16.0723 7.35758C15.9969 7.40577 15.9382 7.47424 15.9036 7.55433C15.869 7.63442 15.8601 7.72251 15.8779 7.80745C15.8958 7.89238 15.9397 7.97033 16.0041 8.03142C16.0684 8.0925 16.1502 8.13397 16.2393 8.15057C16.3283 8.16717 16.4205 8.15814 16.5042 8.12465C16.5878 8.09115 16.6592 8.03469 16.7092 7.96241C16.7592 7.89014 16.7856 7.80531 16.7851 7.71867C16.7844 7.60307 16.7359 7.49243 16.65 7.41093C16.5642 7.32942 16.4481 7.28367 16.327 7.28367Z" fill="#313131"/>
<path d="M5.51758 15.4679L4.8239 15.0979L5.00713 14.7829C5.01746 14.7597 5.01846 14.7337 5.00996 14.7098C5.00145 14.686 4.98403 14.6659 4.96103 14.6536C4.93803 14.6412 4.91106 14.6373 4.88528 14.6428C4.8595 14.6482 4.83671 14.6625 4.82128 14.6829L4.63543 15.0004C3.81872 14.5654 3.8004 14.5604 3.79516 14.5579C3.76935 14.5482 3.7406 14.5484 3.71494 14.5585C3.68928 14.5686 3.6687 14.5877 3.65753 14.612C3.64635 14.6363 3.64545 14.6637 3.655 14.6886C3.66456 14.7135 3.68383 14.7338 3.70878 14.7454L4.53072 15.1804L4.33702 15.5004C4.32313 15.5243 4.31974 15.5525 4.3276 15.5787C4.33545 15.605 4.35391 15.6272 4.3789 15.6404C4.40389 15.6537 4.43338 15.6569 4.46087 15.6494C4.48836 15.6419 4.5116 15.6243 4.52549 15.6004L4.71396 15.2779L5.40763 15.6479C5.43263 15.6619 5.46239 15.6657 5.49037 15.6587C5.51835 15.6517 5.54226 15.6343 5.55684 15.6104C5.57142 15.5866 5.57547 15.5581 5.56811 15.5314C5.56075 15.5047 5.54257 15.4819 5.51758 15.4679Z" fill="#4D68A1"/>
<path d="M37.555 12.2889C38.6216 12.4681 39.5887 12.9989 40.2878 13.7889C40.3257 13.8361 40.38 13.8688 40.441 13.8812C40.5019 13.8935 40.5655 13.8848 40.6202 13.8564C41.0103 13.6764 41.7851 13.1389 41.4422 11.8089C40.9946 10.0589 38.924 9.88639 38.068 10.5439C37.8252 10.717 37.6303 10.9442 37.5003 11.2056C37.3703 11.467 37.3091 11.7547 37.322 12.0439C37.3269 12.1036 37.3524 12.1601 37.3946 12.2045C37.4367 12.2488 37.4932 12.2785 37.555 12.2889Z" fill="#4D68A1"/>
<path d="M45.6398 24.7196C46.9146 24.3521 47.2863 22.6246 46.5664 21.2521C45.8727 19.9246 44.0352 19.6371 42.8101 19.4546C42.5974 19.4236 42.3892 19.369 42.1897 19.2921C41.982 19.2099 41.8041 19.0714 41.678 18.8937C41.5519 18.7159 41.4832 18.5067 41.4803 18.2921C41.4254 16.3446 41.5798 14.2046 38.4648 12.7746C36.1953 11.7296 34.2766 12.5796 33.541 13.1971C32.8055 13.8146 32.2322 15.0246 33.2792 15.7996C34.3263 16.5746 36.3209 15.7621 36.3209 15.7621C37.5486 17.2621 38.9779 17.0121 38.9779 17.0121C38.9334 17.5621 38.7318 18.8696 38.7318 18.8696C39.3757 18.9646 39.8652 19.1971 39.8469 19.8346C39.8286 20.4721 38.5643 20.3346 38.5643 20.3346C38.5643 20.3346 37.8287 22.1221 36.4257 22.5646L36.3026 23.9346C36.3026 23.9346 41.2552 24.5871 43.4331 30.8496C44.0369 30.773 44.6106 30.552 45.1012 30.2072C45.5917 29.8624 45.9832 29.4049 46.2392 28.8771C46.6031 28.2103 46.7409 27.4519 46.6335 26.707C46.5261 25.9622 46.1788 25.2676 45.6398 24.7196Z" fill="#4D68A1"/>
<path d="M33.0223 20.335C32.341 21.3266 32.0869 22.5312 32.3129 23.6975C32.8306 23.6044 33.3569 23.5625 33.8835 23.5725C34.0635 23.1355 34.1849 22.6785 34.2447 22.2125C33.9182 21.9951 33.6414 21.7166 33.4313 21.3938C33.2211 21.071 33.082 20.7108 33.0223 20.335Z" fill="#4D68A1"/>
<path d="M25.9393 34.0535C25.9155 34.0533 25.8922 34.0464 25.8723 34.0338C25.8525 34.0212 25.8369 34.0034 25.8274 33.9824C25.818 33.9615 25.8151 33.9384 25.8192 33.9159C25.8233 33.8935 25.8341 33.8727 25.8503 33.856C26.0353 33.6723 26.21 33.4796 26.3739 33.2785C26.1435 33.2785 25.8503 33.3335 25.7561 33.1685C25.6619 33.0035 25.6828 32.1535 25.6854 31.6385C25.6861 31.6077 25.6994 31.5785 25.7224 31.557C25.7454 31.5355 25.7763 31.5235 25.8085 31.5235C25.8246 31.5231 25.8406 31.5259 25.8556 31.5317C25.8705 31.5375 25.8841 31.5462 25.8954 31.5572C25.9067 31.5683 25.9155 31.5814 25.9212 31.5958C25.927 31.6102 25.9296 31.6256 25.9289 31.641C25.9177 32.1105 25.9317 32.5803 25.9707 33.0485C26.0673 33.0586 26.1647 33.0586 26.2613 33.0485C26.4655 33.0485 26.599 33.031 26.6592 33.131C26.7194 33.231 26.7508 33.2885 26.0205 34.0135C26.0105 34.0251 25.9982 34.0346 25.9842 34.0415C25.9703 34.0484 25.955 34.0524 25.9393 34.0535Z" fill="#313131"/>
<path d="M26.8695 32.7101C26.8524 32.7106 26.8354 32.7076 26.8197 32.7012C26.8039 32.6948 26.7898 32.6852 26.7784 32.673C26.7669 32.6609 26.7584 32.6465 26.7533 32.6309C26.7482 32.6153 26.7468 32.5988 26.7491 32.5826C26.7805 32.2951 26.9507 31.8176 27.3773 31.8551C27.804 31.8926 27.9009 32.5226 27.9009 32.5476C27.9044 32.5639 27.9043 32.5807 27.9005 32.5969C27.8967 32.6131 27.8894 32.6283 27.879 32.6416C27.8687 32.6549 27.8554 32.666 27.8402 32.6741C27.8251 32.6822 27.8083 32.6871 27.7909 32.6885C27.7736 32.6899 27.7562 32.6878 27.7398 32.6823C27.7234 32.6769 27.7084 32.6681 27.6958 32.6567C27.6831 32.6453 27.6732 32.6314 27.6666 32.6161C27.66 32.6007 27.6569 32.5842 27.6574 32.5676C27.6574 32.5676 27.6103 32.1076 27.3643 32.0876C27.1182 32.0676 27.0213 32.4026 26.9978 32.6076C26.9945 32.6372 26.9792 32.6645 26.9553 32.6836C26.9314 32.7027 26.9006 32.7122 26.8695 32.7101Z" fill="#313131"/>
<path d="M23.7429 32.7338C23.7269 32.7334 23.7111 32.7301 23.6964 32.7238C23.6817 32.7176 23.6685 32.7086 23.6576 32.6974C23.6466 32.6863 23.6381 32.6731 23.6325 32.6587C23.6269 32.6444 23.6244 32.6291 23.6251 32.6138C23.6434 32.0163 24.0021 31.8638 24.2089 31.8638C24.5936 31.8638 24.7324 32.3138 24.7324 32.5813C24.7345 32.6118 24.7238 32.6418 24.7027 32.6648C24.6816 32.6878 24.6518 32.7018 24.6198 32.7038C24.5879 32.7058 24.5564 32.6956 24.5324 32.6754C24.5083 32.6552 24.4936 32.6268 24.4916 32.5963C24.4916 32.5963 24.4418 32.0963 24.1958 32.0963C23.8764 32.0963 23.8555 32.6238 23.8555 32.6288C23.8525 32.6561 23.8396 32.6815 23.8191 32.7007C23.7985 32.7199 23.7716 32.7316 23.7429 32.7338Z" fill="#313131"/>
<path d="M27.7905 31.4993C27.7605 31.4991 27.7316 31.4884 27.7093 31.4693C27.6127 31.3845 27.488 31.3348 27.3569 31.3289C27.2258 31.3229 27.0967 31.3611 26.9921 31.4368C26.9797 31.4466 26.9654 31.4539 26.95 31.4582C26.9346 31.4625 26.9184 31.4638 26.9025 31.4619C26.8866 31.46 26.8712 31.455 26.8573 31.4473C26.8435 31.4395 26.8314 31.4292 26.8219 31.4168C26.8119 31.405 26.8044 31.3914 26.7999 31.3769C26.7954 31.3623 26.7939 31.347 26.7956 31.3319C26.7973 31.3168 26.8021 31.3022 26.8098 31.2888C26.8175 31.2755 26.8278 31.2638 26.8403 31.2543C26.9896 31.1436 27.1752 31.0872 27.3641 31.0949C27.553 31.1027 27.7328 31.1743 27.8716 31.2968C27.8906 31.3122 27.904 31.3329 27.9102 31.3559C27.9164 31.379 27.9149 31.4032 27.906 31.4255C27.8971 31.4477 27.8812 31.4667 27.8605 31.4799C27.8398 31.4931 27.8154 31.4999 27.7905 31.4993Z" fill="#313131"/>
<path d="M24.7847 31.3753C24.7552 31.3749 24.7267 31.3653 24.7036 31.3478C24.5997 31.2503 24.4611 31.1939 24.3155 31.1897C24.17 31.1855 24.0281 31.234 23.9183 31.3253C23.8933 31.3448 23.8614 31.3544 23.8293 31.352C23.7971 31.3497 23.7671 31.3357 23.7455 31.3128C23.734 31.3021 23.7248 31.2893 23.7185 31.2751C23.7122 31.2609 23.709 31.2457 23.709 31.2303C23.709 31.2149 23.7122 31.1997 23.7185 31.1855C23.7248 31.1713 23.734 31.1585 23.7455 31.1478C23.9001 31.0227 24.0972 30.956 24.2997 30.9601C24.5022 30.9643 24.6961 31.039 24.8449 31.1703C24.8638 31.1843 24.8779 31.2034 24.8853 31.2251C24.8928 31.2468 24.8934 31.2701 24.8869 31.2921C24.8804 31.3141 24.8673 31.3338 24.8491 31.3486C24.8309 31.3634 24.8085 31.3727 24.7847 31.3753Z" fill="#313131"/>
<path d="M25.7461 35.3031C25.5459 35.2866 25.3554 35.2133 25.1992 35.0925C25.0429 34.9718 24.928 34.8092 24.8692 34.6256C24.8638 34.5974 24.8693 34.5683 24.8848 34.5437C24.9003 34.5191 24.9246 34.5008 24.9533 34.4922C24.9819 34.4836 25.0129 34.4853 25.0403 34.497C25.0678 34.5087 25.0898 34.5295 25.1022 34.5556C25.1462 34.6934 25.2317 34.8158 25.3481 34.9074C25.4645 34.999 25.6066 35.0558 25.7566 35.0706H25.7723C26.2278 35.0706 26.3404 34.5881 26.343 34.5706C26.3505 34.5411 26.3698 34.5154 26.3967 34.4992C26.4237 34.4829 26.4562 34.4772 26.4874 34.4834C26.5186 34.4895 26.5461 34.507 26.5641 34.5322C26.5821 34.5573 26.5891 34.5881 26.5838 34.6181C26.5516 34.8085 26.4498 34.9818 26.2964 35.1072C26.143 35.2326 25.9481 35.3021 25.7461 35.3031Z" fill="#313131"/>
<path d="M27.5742 33.7357C27.5742 33.7954 27.6076 33.8526 27.667 33.8948C27.7264 33.937 27.807 33.9607 27.891 33.9607C27.975 33.9607 28.0555 33.937 28.1149 33.8948C28.1743 33.8526 28.2077 33.7954 28.2077 33.7357C28.2077 33.6761 28.1743 33.6188 28.1149 33.5766C28.0555 33.5344 27.975 33.5107 27.891 33.5107C27.807 33.5107 27.7264 33.5344 27.667 33.5766C27.6076 33.6188 27.5742 33.6761 27.5742 33.7357Z" fill="#FCCAC2"/>
<path d="M23.6934 33.7099C23.6934 33.7695 23.7276 33.8268 23.7884 33.869C23.8493 33.9112 23.9319 33.9349 24.0179 33.9349C24.104 33.9349 24.1866 33.9112 24.2475 33.869C24.3083 33.8268 24.3425 33.7695 24.3425 33.7099C24.3425 33.6502 24.3083 33.593 24.2475 33.5508C24.1866 33.5086 24.104 33.4849 24.0179 33.4849C23.9319 33.4849 23.8493 33.5086 23.7884 33.5508C23.7276 33.593 23.6934 33.6502 23.6934 33.7099Z" fill="#FCCAC2"/>
<path d="M37.3027 18.7912C37.3371 18.7976 37.3727 18.7963 37.4075 18.7874C37.4424 18.7785 37.4757 18.7622 37.5056 18.7394C37.5355 18.7166 37.5614 18.6877 37.5818 18.6544C37.6023 18.6211 37.6169 18.5841 37.6247 18.5454C37.6326 18.5067 37.6336 18.4672 37.6277 18.429C37.6218 18.3908 37.6091 18.3548 37.5903 18.3229C37.5716 18.291 37.5471 18.264 37.5183 18.2433C37.4895 18.2226 37.457 18.2086 37.4226 18.2022C37.3881 18.1958 37.3525 18.1971 37.3177 18.206C37.2829 18.2149 37.2496 18.2313 37.2197 18.2541C37.1898 18.2769 37.1639 18.3058 37.1434 18.3391C37.123 18.3724 37.1084 18.4094 37.1005 18.4481C37.0926 18.4867 37.0916 18.5263 37.0975 18.5645C37.1034 18.6027 37.1161 18.6387 37.1349 18.6706C37.1537 18.7024 37.1782 18.7295 37.2069 18.7502C37.2357 18.7709 37.2683 18.7848 37.3027 18.7912Z" fill="#313131"/>
<path d="M34.6447 18.0539C34.6793 18.0607 34.7151 18.0596 34.7501 18.0509C34.7852 18.0422 34.8187 18.026 34.8489 18.0031C34.879 17.9803 34.9051 17.9513 34.9257 17.9179C34.9463 17.8845 34.961 17.8472 34.9689 17.8084C34.9768 17.7695 34.9778 17.7297 34.9717 17.6913C34.9657 17.653 34.9528 17.6168 34.9338 17.5849C34.9148 17.5529 34.89 17.5259 34.8609 17.5053C34.8319 17.4847 34.799 17.471 34.7644 17.4649C34.7299 17.4585 34.6943 17.4598 34.6595 17.4687C34.6247 17.4776 34.5914 17.494 34.5615 17.5168C34.5316 17.5396 34.5057 17.5685 34.4852 17.6018C34.4648 17.6351 34.4502 17.6721 34.4423 17.7108C34.4344 17.7494 34.4334 17.789 34.4393 17.8272C34.4452 17.8653 34.4579 17.9014 34.4767 17.9333C34.4955 17.9651 34.5199 17.9922 34.5487 18.0129C34.5775 18.0336 34.6101 18.0475 34.6445 18.0539" fill="#313131"/>
<path d="M38.8446 19.8742C38.8177 19.8749 38.7913 19.8671 38.7697 19.8518C38.748 19.8366 38.7324 19.8149 38.7251 19.7902C38.7179 19.7654 38.7196 19.7391 38.7298 19.7154C38.7401 19.6916 38.7584 19.6719 38.7817 19.6592C38.8786 19.6022 38.9801 19.5529 39.0854 19.5117C39.1002 19.506 39.116 19.5032 39.1319 19.5034C39.1478 19.5036 39.1635 19.5069 39.1781 19.5129C39.1927 19.5189 39.2059 19.5277 39.217 19.5386C39.228 19.5496 39.2367 19.5625 39.2424 19.5767C39.2487 19.5908 39.252 19.6059 39.2519 19.6212C39.2519 19.6365 39.2486 19.6516 39.2422 19.6657C39.2359 19.6797 39.2266 19.6924 39.2149 19.7029C39.2032 19.7134 39.1894 19.7215 39.1744 19.7267C38.9624 19.8092 38.9152 19.8742 38.8446 19.8742Z" fill="#313131"/>
<path d="M35.2173 19.5178C34.8901 19.6153 34.9555 19.3053 34.9843 19.2228C35.2277 18.3953 36.0314 17.2553 36.0575 17.2078C36.1413 17.0853 36.3481 17.2078 36.2591 17.3353C36.2591 17.3353 35.4529 18.4903 35.212 19.2828L35.7356 19.0328C35.8743 18.9678 35.9973 19.1753 35.8455 19.2403C35.8638 19.2378 35.2408 19.5178 35.2173 19.5178Z" fill="#313131"/>
<path d="M35.2891 20.7097C35.2342 20.7145 35.179 20.7145 35.1241 20.7097C34.5404 20.6197 34.4278 19.9847 34.4252 19.9597C34.4204 19.9296 34.4283 19.8988 34.4472 19.8742C34.4661 19.8496 34.4944 19.8331 34.526 19.8285C34.5576 19.8238 34.5898 19.8314 34.6156 19.8494C34.6414 19.8675 34.6586 19.8946 34.6634 19.9247C34.6634 19.9447 34.7551 20.4247 35.1634 20.4822C35.2883 20.5062 35.4179 20.4932 35.5348 20.445C35.6518 20.3967 35.7505 20.3155 35.8178 20.2122C35.8257 20.1988 35.8363 20.1869 35.849 20.1774C35.8617 20.1678 35.8763 20.1608 35.8918 20.1566C35.9074 20.1524 35.9236 20.1512 35.9397 20.153C35.9557 20.1549 35.9713 20.1597 35.9853 20.1672C35.9994 20.1748 36.0118 20.1849 36.0218 20.197C36.0318 20.2092 36.0392 20.2231 36.0436 20.2379C36.048 20.2528 36.0492 20.2683 36.0473 20.2836C36.0454 20.299 36.0404 20.3138 36.0325 20.3272C35.9523 20.4456 35.8421 20.5427 35.7121 20.6096C35.5822 20.6764 35.4367 20.7109 35.2891 20.7097Z" fill="#313131"/>
<path d="M37.9918 17.6941C37.968 17.6419 37.9332 17.5949 37.8896 17.556C37.846 17.5172 37.7944 17.4873 37.7382 17.4683C37.682 17.4493 37.6222 17.4416 37.5627 17.4456C37.5032 17.4496 37.4452 17.4653 37.3923 17.4916C37.3639 17.5055 37.3308 17.5081 37.3004 17.4987C37.2699 17.4893 37.2446 17.4688 37.2301 17.4416C37.2155 17.4144 37.2128 17.3828 37.2226 17.3538C37.2324 17.3247 37.2539 17.3005 37.2824 17.2866C37.363 17.2449 37.4517 17.2196 37.5431 17.2122C37.6344 17.2048 37.7263 17.2156 37.8131 17.2437C37.8998 17.2719 37.9796 17.3169 38.0473 17.3759C38.115 17.4349 38.1692 17.5067 38.2064 17.5866C38.2214 17.6138 38.2244 17.6455 38.2148 17.6748C38.2052 17.7041 38.1839 17.7286 38.1554 17.7429C38.1269 17.7571 38.0937 17.76 38.063 17.7508C38.0323 17.7417 38.0067 17.7213 37.9918 17.6941Z" fill="#313131"/>
<path d="M35.2817 16.8925C35.2199 16.8057 35.1276 16.7429 35.0215 16.7153C34.9154 16.6878 34.8025 16.6975 34.7032 16.7425C34.6752 16.7515 34.6447 16.7505 34.6174 16.7398C34.59 16.7291 34.5676 16.7093 34.5543 16.6842C34.5409 16.659 34.5375 16.63 34.5447 16.6026C34.5518 16.5752 34.5691 16.5512 34.5933 16.535C34.7435 16.4655 34.9146 16.4493 35.0761 16.4891C35.2377 16.529 35.3792 16.6223 35.4754 16.7525C35.4949 16.777 35.5033 16.8079 35.4989 16.8384C35.4945 16.8689 35.4775 16.8964 35.4519 16.915C35.4262 16.9336 35.3938 16.9416 35.3619 16.9374C35.33 16.9332 35.3012 16.917 35.2817 16.8925Z" fill="#313131"/>
<path d="M36.9941 19.8012C36.9941 19.8669 37.0328 19.9298 37.1015 19.9762C37.1702 20.0226 37.2634 20.0487 37.3606 20.0487C37.4578 20.0487 37.551 20.0226 37.6197 19.9762C37.6885 19.9298 37.7271 19.8669 37.7271 19.8012C37.7271 19.7356 37.6885 19.6726 37.6197 19.6262C37.551 19.5798 37.4578 19.5537 37.3606 19.5537C37.2634 19.5537 37.1702 19.5798 37.1015 19.6262C37.0328 19.6726 36.9941 19.7356 36.9941 19.8012Z" fill="#FCCAC2"/>
<path d="M33.7393 19.2043C33.7801 19.2193 33.8227 19.2284 33.8648 19.2311C33.907 19.2338 33.9478 19.2301 33.9849 19.2201C34.022 19.2101 34.0547 19.1941 34.0811 19.1729C34.1075 19.1518 34.1272 19.1259 34.1389 19.0968C34.1507 19.0677 34.1543 19.0359 34.1495 19.0033C34.1448 18.9707 34.1318 18.9378 34.1113 18.9067C34.0908 18.8755 34.0632 18.8466 34.03 18.8216C33.9969 18.7966 33.9588 18.776 33.9181 18.7611C33.8774 18.7461 33.8347 18.737 33.7926 18.7343C33.7504 18.7315 33.7097 18.7353 33.6726 18.7453C33.6354 18.7553 33.6027 18.7713 33.5763 18.7924C33.5499 18.8136 33.5302 18.8395 33.5185 18.8686C33.5067 18.8977 33.5031 18.9294 33.5079 18.9621C33.5126 18.9947 33.5256 19.0275 33.5461 19.0587C33.5666 19.0899 33.5943 19.1188 33.6274 19.1438C33.6605 19.1687 33.6986 19.1893 33.7393 19.2043Z" fill="#FCCAC2"/>
<path d="M25.8533 14.2878C25.691 14.2836 25.5335 14.2339 25.4005 14.1451C25.2674 14.0562 25.1645 13.932 25.1047 13.7878C25.0925 13.7593 25.0927 13.7273 25.1052 13.699C25.1178 13.6706 25.1416 13.6482 25.1714 13.6365C25.2013 13.6249 25.2347 13.6251 25.2644 13.6371C25.2941 13.6491 25.3176 13.6718 25.3298 13.7003C25.3726 13.7973 25.4422 13.8814 25.5312 13.9435C25.6202 14.0056 25.7252 14.0434 25.835 14.0528C26.1884 14.0653 26.3768 13.6403 26.3795 13.6353C26.3855 13.6212 26.3943 13.6083 26.4056 13.5975C26.4168 13.5866 26.4301 13.578 26.4448 13.5721C26.4595 13.5662 26.4753 13.5631 26.4913 13.563C26.5072 13.5629 26.523 13.5658 26.5378 13.5715C26.5526 13.5773 26.5661 13.5858 26.5774 13.5965C26.5888 13.6072 26.5978 13.6199 26.604 13.634C26.6102 13.648 26.6134 13.6631 26.6135 13.6783C26.6136 13.6936 26.6106 13.7087 26.6046 13.7228C26.5941 13.7503 26.3585 14.2878 25.8533 14.2878Z" fill="#313131"/>
<path d="M23.6898 13.3272C23.7726 13.3366 23.8548 13.322 23.9186 13.2867C23.9823 13.2514 24.0222 13.1983 24.0296 13.139C24.0369 13.0798 24.0111 13.0192 23.9578 12.9707C23.9045 12.9221 23.8281 12.8896 23.7453 12.8802C23.6625 12.8708 23.5803 12.8854 23.5165 12.9207C23.4528 12.956 23.4129 13.0091 23.4055 13.0684C23.3982 13.1277 23.424 13.1882 23.4773 13.2368C23.5306 13.2853 23.6071 13.3178 23.6898 13.3272Z" fill="#FCCAC2"/>
<path d="M27.6992 13.1024C27.6992 13.1621 27.7323 13.2193 27.7912 13.2615C27.8501 13.3037 27.93 13.3274 28.0133 13.3274C28.0966 13.3274 28.1765 13.3037 28.2355 13.2615C28.2944 13.2193 28.3275 13.1621 28.3275 13.1024C28.3275 13.0428 28.2944 12.9855 28.2355 12.9433C28.1765 12.9011 28.0966 12.8774 28.0133 12.8774C27.93 12.8774 27.8501 12.9011 27.7912 12.9433C27.7323 12.9855 27.6992 13.0428 27.6992 13.1024Z" fill="#FCCAC2"/>
<path d="M28.0921 10.0767C27.7208 10.0633 27.3572 10.1807 27.0705 10.4066C26.7839 10.6324 26.5941 10.951 26.5372 11.3017C26.4537 11.2644 26.3658 11.2367 26.2755 11.2192C26.2022 10.8042 26.121 10.5142 26.1132 10.4892C26.1041 10.4597 26.0832 10.4348 26.055 10.4201C26.0268 10.4053 25.9935 10.4018 25.9627 10.4105C25.9318 10.4191 25.9057 10.4391 25.8902 10.466C25.8748 10.493 25.8712 10.5247 25.8802 10.5542C25.8802 10.5542 25.9587 10.8217 26.0294 11.2017C25.8781 11.2068 25.7286 11.2355 25.587 11.2867C25.5533 10.9223 25.3737 10.5845 25.0856 10.3435C24.7974 10.1025 24.4231 9.97696 24.0405 9.99308C23.6578 10.0092 23.2965 10.1657 23.0317 10.43C22.7669 10.6943 22.6191 11.0459 22.6191 11.4117C22.6191 11.7775 22.7669 12.1291 23.0317 12.3934C23.2965 12.6577 23.6578 12.8142 24.0405 12.8303C24.4231 12.8464 24.7974 12.7209 25.0856 12.4799C25.3737 12.2389 25.5533 11.9011 25.587 11.5367C25.7377 11.469 25.9022 11.434 26.0687 11.4342C26.1373 11.8474 26.1584 12.2666 26.1315 12.6842C26.1315 12.7067 26.1027 12.7042 26.087 12.6992L25.6551 12.6292C25.6389 12.626 25.6221 12.626 25.6059 12.6292C25.5897 12.6324 25.5743 12.6388 25.5608 12.648C25.5473 12.6571 25.5359 12.6688 25.5274 12.6824C25.5188 12.6959 25.5133 12.711 25.5111 12.7267C25.5078 12.7559 25.5158 12.7853 25.5336 12.8093C25.5515 12.8333 25.5779 12.8501 25.608 12.8567C25.8148 12.8914 26.0238 12.9131 26.2336 12.9217C26.3069 12.9217 26.3749 12.8917 26.3854 12.7167C26.407 12.3041 26.3869 11.8906 26.3252 11.4817C26.3991 11.501 26.4696 11.5304 26.5346 11.5692C26.5439 11.8529 26.64 12.1279 26.8109 12.3601C26.9818 12.5924 27.2201 12.7718 27.4965 12.8763C27.7729 12.9808 28.0752 13.0058 28.3663 12.9483C28.6573 12.8907 28.9244 12.7531 29.1346 12.5523C29.3448 12.3516 29.4889 12.0965 29.5491 11.8185C29.6094 11.5406 29.5832 11.2518 29.4738 10.9879C29.3644 10.7239 29.1765 10.4963 28.9333 10.3331C28.6902 10.1698 28.4023 10.0781 28.1052 10.0692L28.0921 10.0767ZM24.0374 12.6092C23.7958 12.5949 23.564 12.513 23.3708 12.3736C23.1776 12.2343 23.0317 12.0438 22.9511 11.8258C22.8706 11.6078 22.859 11.372 22.9178 11.1478C22.9767 10.9235 23.1033 10.7208 23.282 10.5648C23.4606 10.4088 23.6834 10.3066 23.9225 10.2707C24.1617 10.2349 24.4065 10.267 24.6267 10.3632C24.8468 10.4594 25.0324 10.6153 25.1603 10.8115C25.2883 11.0078 25.3529 11.2356 25.3462 11.4667C25.3391 11.6239 25.2996 11.7782 25.23 11.9208C25.1603 12.0634 25.0619 12.1914 24.9403 12.2976C24.8187 12.4037 24.6763 12.4859 24.5214 12.5394C24.3664 12.5929 24.2019 12.6166 24.0374 12.6092ZM28.0136 12.6742C27.7713 12.6604 27.5387 12.5787 27.3447 12.4394C27.1508 12.3001 27.0041 12.1093 26.9229 11.8908C26.8418 11.6724 26.8298 11.436 26.8885 11.2111C26.9471 10.9862 27.0738 10.7827 27.2528 10.6262C27.4318 10.4696 27.655 10.3669 27.8948 10.3307C28.1345 10.2946 28.38 10.3267 28.6008 10.423C28.8215 10.5193 29.0077 10.6756 29.136 10.8723C29.2643 11.069 29.3292 11.2975 29.3224 11.5292C29.3075 11.8471 29.1609 12.1464 28.915 12.3611C28.669 12.5758 28.3438 12.6884 28.011 12.6742H28.0136Z" fill="#313131"/>
<path d="M50.9231 43.5577H48.8787C48.9023 43.0227 48.8787 41.8227 48.8787 41.3077C48.8774 41.2338 48.8461 41.1633 48.7914 41.1111C48.7367 41.0589 48.6629 41.0289 48.5856 41.0277H48.2165V39.4527C48.2153 39.3798 48.1851 39.3101 48.1322 39.2577C48.0792 39.2052 48.0074 39.174 47.9312 39.1702C47.7689 39.1702 47.5647 39.1702 47.3343 39.1527C47.3579 38.7977 47.3213 38.1202 47.104 37.8152C47.0728 37.7708 47.0323 37.733 46.985 37.7043C46.9378 37.6756 46.8849 37.6566 46.8295 37.6483C46.7742 37.6401 46.7177 37.6429 46.6636 37.6566C46.6095 37.6702 46.5589 37.6944 46.515 37.7277C46.4908 37.6586 46.4519 37.595 46.4006 37.5411C46.3494 37.4872 46.2869 37.444 46.2172 37.4144C46.1475 37.3848 46.0722 37.3693 45.9959 37.369C45.9196 37.3687 45.8442 37.3836 45.7742 37.4127C45.707 37.3375 45.6163 37.2849 45.5154 37.2629C45.4145 37.2408 45.3088 37.2504 45.214 37.2902C44.6905 33.7902 43.01 26.8102 38.2354 24.6202C37.6521 24.3499 37.0473 24.1242 36.4266 23.9452C36.4149 23.5381 36.4394 23.1308 36.4999 22.7277C36.5039 22.703 36.5147 22.6797 36.5313 22.6604C36.5479 22.6411 36.5696 22.6263 36.5941 22.6177C37.0502 22.4247 37.4578 22.1408 37.7896 21.7851C38.1215 21.4294 38.3698 21.01 38.5181 20.5552C38.5301 20.5281 38.5507 20.5053 38.577 20.4901C38.6033 20.4748 38.634 20.4678 38.6647 20.4702C40.2745 20.5277 39.9735 19.5177 39.8714 19.3552C39.6468 19.0886 39.3271 18.9106 38.9736 18.8552C38.9355 18.8473 38.9021 18.8258 38.8802 18.7951C38.8583 18.7644 38.8495 18.7268 38.8558 18.6902C38.9134 18.3277 39.0207 17.6327 39.1018 17.0577C39.106 17.0272 39.0973 16.9963 39.0777 16.972C39.058 16.9476 39.0291 16.9316 38.9971 16.9277C38.9652 16.9237 38.9329 16.932 38.9074 16.9507C38.8819 16.9695 38.8652 16.9972 38.861 17.0277C38.7799 17.6002 38.6699 18.2927 38.615 18.6552C38.5988 18.7511 38.6222 18.8492 38.6803 18.929C38.7384 19.0087 38.8267 19.0638 38.9265 19.0827C39.2152 19.123 39.4786 19.2626 39.6672 19.4752C39.7432 19.5827 39.9473 20.2702 38.683 20.2252C38.5976 20.22 38.5128 20.2416 38.4414 20.2868C38.3701 20.3319 38.3161 20.398 38.2877 20.4752C38.1504 20.8991 37.9198 21.2901 37.6115 21.6221C37.3032 21.954 36.9242 22.2193 36.4999 22.4002C36.4375 22.4238 36.3825 22.4625 36.3403 22.5124C36.2981 22.5624 36.2701 22.6219 36.2591 22.6852C36.2 23.08 36.1746 23.4789 36.1832 23.8777C36.1832 23.9752 36.2303 24.2252 36.1046 24.2777C35.7862 24.4202 35.4366 24.4873 35.0853 24.4734C34.734 24.4594 34.3914 24.3649 34.0864 24.1977C34.0546 24.1795 34.0302 24.1515 34.0174 24.1183C34.0045 24.0851 34.0039 24.0487 34.0158 24.0152C34.0602 23.8877 34.3587 22.6202 34.3927 22.4277C34.6121 22.5185 34.8425 22.5832 35.0785 22.6202C35.0942 22.6228 35.1102 22.6224 35.1257 22.6192C35.1412 22.6159 35.1559 22.6097 35.1689 22.601C35.1819 22.5923 35.193 22.5812 35.2015 22.5684C35.21 22.5556 35.2158 22.5414 35.2186 22.5264C35.2213 22.5115 35.2209 22.4962 35.2175 22.4814C35.2141 22.4666 35.2076 22.4525 35.1985 22.4401C35.1894 22.4277 35.1778 22.4171 35.1644 22.409C35.151 22.4008 35.136 22.3953 35.1204 22.3927C33.2148 22.0752 32.9792 20.4077 33.3613 18.5977C33.3613 18.5502 33.9503 16.0802 33.9555 16.0577C33.959 16.029 33.9512 16.0001 33.9338 15.9766C33.9163 15.953 33.8904 15.9364 33.861 15.9299C33.8315 15.9234 33.8006 15.9275 33.7741 15.9414C33.7476 15.9553 33.7274 15.978 33.7173 16.0052C33.699 16.0877 33.131 18.5052 33.1231 18.5502C32.8221 19.9852 32.8352 21.5952 34.1702 22.3202C34.1229 22.7436 34.0353 23.162 33.9084 23.5702C32.8558 23.5523 31.8119 23.756 30.851 24.1669C29.89 24.5778 29.0357 25.1858 28.3485 25.9477C27.7046 24.5852 25.8906 24.4052 24.6393 26.2602C24.4348 26.0606 24.176 25.9195 23.892 25.8528C23.6081 25.7861 23.3102 25.7965 23.0321 25.8827C22.3175 26.1327 22.2128 26.7152 22.0007 27.1902C21.6578 27.9402 21.6866 27.9227 21.1212 28.1902C21.0132 28.2363 20.9082 28.2889 20.8071 28.3477C20.5197 27.7437 20.1307 27.1889 19.6553 26.7052C20.1213 24.4177 20.0297 24.2902 19.9982 24.2477C19.9877 24.2332 19.9741 24.2211 19.9583 24.2121C19.9425 24.203 19.9249 24.1973 19.9066 24.1952C19.8412 24.1952 19.7182 24.1702 18.145 25.7152C17.4272 25.4409 16.6416 25.3714 15.8833 25.5152C15.8048 25.092 15.7854 24.6607 15.8257 24.2327C16.2125 24.1021 16.5605 23.8841 16.84 23.5972C17.1194 23.3103 17.322 22.9631 17.4303 22.5852C17.5499 22.0308 17.6095 21.4662 17.6083 20.9002C19.1109 18.9477 21.4196 17.1177 23.9247 17.3152C23.909 17.3852 23.8907 17.4552 23.8724 17.5252C23.8588 17.5927 23.8645 17.6624 23.8889 17.7271C23.9133 17.7918 23.9555 17.849 24.0111 17.8927C24.9665 18.7552 26.3172 18.2977 26.8146 17.8927C26.8751 17.8464 26.9219 17.7859 26.9504 17.717C26.9788 17.6482 26.988 17.5734 26.9769 17.5002C26.9769 17.4427 26.9586 17.3702 26.9481 17.2902C27.7684 17.2555 28.5869 17.3904 29.3477 17.6855C30.1084 17.9806 30.7935 18.429 31.3562 19.0002C31.8878 19.5241 32.3098 20.1401 32.5996 20.8152C32.6126 20.8418 32.6356 20.8628 32.664 20.874C32.6924 20.8853 32.7242 20.8859 32.7531 20.8759C32.782 20.8659 32.806 20.8458 32.8202 20.8198C32.8344 20.7937 32.8379 20.7635 32.83 20.7352C32.5314 20.0322 32.0942 19.3905 31.5421 18.8452C30.9486 18.2526 30.2294 17.788 29.4325 17.4828C28.6357 17.1775 27.7796 17.0385 26.9219 17.0752C26.8957 16.7877 26.901 16.0052 26.8984 15.9952C28.1339 15.5677 28.7621 14.3102 28.9401 13.1452C29.1391 11.8352 28.9872 10.8952 28.9401 9.35516C29.2351 9.2275 29.4913 9.03052 29.685 8.78264C29.8786 8.53475 30.0033 8.24405 30.0474 7.93766C30.0728 7.43807 29.9663 6.94038 29.7376 6.49041C29.5089 6.04044 29.1653 5.65263 28.7386 5.36267C27.6915 4.68017 26.5764 5.40016 25.621 5.34516C24.6655 5.29016 24.4142 5.03016 23.3122 5.34516C22.2102 5.66016 21.8254 6.91266 21.5924 7.39266C21.3594 7.87266 20.2836 8.75766 20.2024 9.77516C20.1344 10.6977 20.8647 11.5252 21.006 11.6627C20.6945 12.4327 21.1997 12.6627 21.3882 12.7652C21.472 13.1802 21.7625 14.1427 22.6447 14.4477C22.8227 14.8652 23.2703 15.7227 24.0582 16.0652C24.056 16.4103 24.0253 16.7547 23.9666 17.0952C21.4667 16.8777 19.124 18.5952 17.6005 20.5002V19.4702C17.8554 18.3795 17.7901 17.2427 17.412 16.1852C17.1907 16.4604 16.9388 16.7119 16.6607 16.9352C16.6607 16.9352 17.1529 17.4552 17.3623 19.1852C17.3256 20.3352 17.4042 21.5727 17.1686 22.5277C17.0359 23.0294 16.715 23.4673 16.2668 23.7581C15.8185 24.0488 15.2741 24.1724 14.7368 24.1052C14.7074 24.1055 14.6791 24.1159 14.657 24.1344C14.6349 24.1529 14.6205 24.1784 14.6164 24.2062C14.6123 24.234 14.6187 24.2623 14.6346 24.286C14.6504 24.3096 14.6746 24.3271 14.7027 24.3352C14.9869 24.3456 15.2714 24.3339 15.5535 24.3002C15.5178 24.7476 15.546 25.1975 15.6372 25.6377C15.5158 25.8725 15.3292 26.071 15.0978 26.2117C14.8665 26.3523 14.5991 26.4297 14.3249 26.4354C14.0507 26.441 13.7802 26.3748 13.5426 26.2439C13.3051 26.1129 13.1097 25.9223 12.9777 25.6927C13.1405 25.1353 13.2405 24.5628 13.2761 23.9852C13.2785 23.9616 13.2733 23.938 13.2611 23.9174C13.2489 23.8968 13.2304 23.8803 13.2081 23.8702C12.8177 23.6528 12.4966 23.3383 12.2788 22.9602C12.0398 22.4504 11.8954 21.9047 11.8521 21.3477C11.8521 21.3477 10.6532 21.0352 10.8208 20.2402C10.9386 19.6802 11.7945 19.8452 12.2291 19.9077C12.2672 19.9143 12.3063 19.9128 12.3438 19.9033C12.3812 19.8937 12.4159 19.8764 12.4455 19.8525C12.475 19.8286 12.4986 19.7987 12.5146 19.765C12.5306 19.7313 12.5386 19.6946 12.538 19.6577C12.538 19.1427 12.538 18.0702 12.7395 17.8677C13.0903 17.5002 15.9383 17.5277 16.9696 16.4202C17.7549 15.5877 17.59 14.4552 17.4644 13.9452C17.4571 13.9156 17.4424 13.8882 17.4216 13.8652C17.4008 13.8423 17.3744 13.8245 17.3448 13.8134C17.3152 13.8024 17.2832 13.7983 17.2516 13.8017C17.22 13.805 17.1897 13.8157 17.1633 13.8327C16.7461 14.1045 16.2762 14.294 15.7812 14.3902C14.8546 14.5577 11.7657 14.7052 10.8391 16.2352C10.2109 17.2877 10.0669 18.8877 10.6297 19.9502C10.5682 20.1279 10.5485 20.3164 10.572 20.5022C10.5956 20.688 10.6617 20.8666 10.7658 21.0252C10.8182 21.5877 11.0537 22.7177 12.093 23.0927C12.3216 23.4759 12.6463 23.7989 13.0379 24.0327C12.995 24.5536 12.9074 25.0704 12.7762 25.5777C9.66901 24.5327 6.91787 27.2277 6.13519 31.6402C5.38916 35.8377 6.04619 41.3227 6.13519 41.9627C6.06691 41.9452 5.99564 41.9411 5.92566 41.9507C5.85569 41.9603 5.78847 41.9832 5.72806 42.0183C5.66764 42.0533 5.61528 42.0997 5.57413 42.1546C5.53298 42.2095 5.5039 42.2717 5.48863 42.3377C5.44314 42.3064 5.39129 42.2846 5.33643 42.2737C5.28157 42.2628 5.22492 42.263 5.17015 42.2743C5.11538 42.2856 5.06371 42.3078 5.01847 42.3394C4.97323 42.371 4.93543 42.4113 4.90751 42.4577C4.67978 42.8252 4.74522 43.5227 4.75045 43.5577H1.4339C1.41641 43.5552 1.39859 43.5564 1.38162 43.5611C1.36465 43.5658 1.34895 43.574 1.33558 43.585C1.32221 43.596 1.31148 43.6097 1.30413 43.625C1.29677 43.6404 1.29297 43.657 1.29297 43.6739C1.29297 43.6908 1.29677 43.7075 1.30413 43.7228C1.31148 43.7381 1.32221 43.7518 1.33558 43.7628C1.34895 43.7739 1.36465 43.782 1.38162 43.7867C1.39859 43.7914 1.41641 43.7926 1.4339 43.7902H4.76354C4.79858 44.0821 4.89472 44.3644 5.04625 44.6202C5.0721 44.6705 5.11115 44.7136 5.1596 44.7453C5.20805 44.7769 5.26425 44.7961 5.32275 44.8008C5.38124 44.8056 5.44003 44.7959 5.49341 44.7725C5.54678 44.7492 5.59293 44.7131 5.62737 44.6677C5.64045 44.6952 6.02525 45.2377 6.31319 44.7202C6.31319 44.7477 6.6116 45.1552 6.88384 44.7777C6.88384 44.7777 7.16393 45.0427 7.3524 44.6077C7.44586 44.3476 7.50306 44.077 7.52254 43.8027C7.53825 43.8027 8.14554 43.7902 8.14554 43.7902C8.3026 44.6277 8.78948 44.5102 8.91251 44.3777C9.03577 44.2056 9.09224 43.9978 9.07219 43.7902H9.33396C9.2214 34.4602 9.43081 32.5402 9.43342 32.5052C9.4369 32.4747 9.45291 32.4467 9.47795 32.4275C9.50298 32.4083 9.53499 32.3993 9.56693 32.4027C9.59886 32.406 9.62811 32.4213 9.64824 32.4452C9.66836 32.4691 9.67772 32.4997 9.67425 32.5302C9.67425 32.5502 9.46484 34.4802 9.5774 43.7802H50.9362C50.9537 43.7826 50.9715 43.7814 50.9885 43.7767C51.0055 43.772 51.0212 43.7639 51.0345 43.7528C51.0479 43.7418 51.0586 43.7281 51.066 43.7128C51.0733 43.6975 51.0771 43.6808 51.0771 43.6639C51.0771 43.647 51.0733 43.6304 51.066 43.615C51.0586 43.5997 51.0479 43.586 51.0345 43.575C51.0212 43.564 51.0055 43.5558 50.9885 43.5511C50.9715 43.5464 50.9537 43.5452 50.9362 43.5477L50.9231 43.5577ZM22.951 14.5127C22.7183 14.0085 22.5639 13.4745 22.4929 12.9277C22.4868 12.8576 22.4527 12.7925 22.3976 12.7459C22.3425 12.6993 22.2706 12.6748 22.1971 12.6777C20.849 12.7002 21.1893 11.7602 21.2914 11.6427C21.7207 11.2102 22.3934 11.4652 22.5609 11.3327C22.7285 11.2002 22.8907 9.73017 23.8462 9.58266C24.5582 9.46517 25.189 9.88516 25.8539 9.80016C26.5188 9.71516 26.8382 9.37766 27.3983 9.28516C27.9585 9.19266 28.325 9.42266 28.7072 9.41266C28.7333 9.41266 28.7072 9.32766 28.7647 10.5427C28.838 11.9927 28.9009 13.5977 28.058 14.8152C27.8551 15.1318 27.5742 15.3962 27.2398 15.5853C26.9053 15.7744 26.5275 15.8825 26.1392 15.9002C26.11 15.9043 26.0833 15.9183 26.064 15.9396C26.0447 15.961 26.0341 15.9882 26.0341 16.0164C26.0341 16.0446 26.0447 16.0719 26.064 16.0932C26.0833 16.1146 26.11 16.1286 26.1392 16.1327C26.3159 16.1238 26.4912 16.0986 26.6628 16.0577C26.6364 16.5589 26.6627 17.0614 26.7413 17.5577C26.7475 17.5889 26.7444 17.6211 26.7323 17.6507C26.7203 17.6803 26.6998 17.7061 26.6732 17.7252C25.4456 18.6127 24.5189 18.0277 24.1786 17.7252C24.1564 17.7095 24.139 17.6886 24.1279 17.6645C24.1169 17.6403 24.1127 17.6138 24.1158 17.5877C24.2493 17.0615 24.3144 16.5216 24.3095 15.9802C24.3088 15.9575 24.3012 15.9356 24.2878 15.917C24.2743 15.8983 24.2555 15.8838 24.2336 15.8752C23.574 15.6202 23.1551 14.9427 22.951 14.5127ZM5.25043 44.5002C4.95009 43.9064 4.89404 43.2265 5.09337 42.5952C5.1057 42.5664 5.12641 42.5416 5.15304 42.5238C5.17967 42.5059 5.2111 42.4957 5.24361 42.4944C5.27613 42.4931 5.30835 42.5007 5.33647 42.5163C5.36458 42.532 5.38741 42.555 5.40225 42.5827C5.3009 43.1537 5.33128 43.739 5.49125 44.2977C5.58025 44.6452 5.29493 44.5577 5.25043 44.5002ZM6.01478 44.7352C5.96243 44.7352 5.86557 44.6602 5.77919 44.4127C5.55769 43.8218 5.51416 43.1835 5.65354 42.5702C5.65354 42.5702 5.82107 42.0702 6.09854 42.2127C5.94186 42.9391 5.96878 43.6907 6.17707 44.4052C6.17707 44.4477 6.18754 44.6927 6.02263 44.7252L6.01478 44.7352ZM6.7451 44.3952C6.7451 44.4852 6.7006 44.7027 6.60375 44.7027C6.60375 44.7027 6.53831 44.6702 6.47025 44.5127C6.40219 44.3552 6.04619 43.1527 6.34198 42.2327C6.36836 42.1873 6.40563 42.1486 6.45073 42.1197C6.49583 42.0908 6.54747 42.0726 6.60141 42.0665C6.65534 42.0604 6.71001 42.0666 6.76094 42.0846C6.81186 42.1026 6.85757 42.132 6.89431 42.1702C6.89431 42.1702 6.63254 42.6852 6.7451 44.3852V44.3952ZM8.72928 44.2327C8.69787 44.2677 8.53819 44.3702 8.41254 43.9177C8.39109 43.7876 8.33114 43.6662 8.23978 43.5677C8.01328 43.5356 7.78307 43.5356 7.55657 43.5677C7.56966 43.4902 7.62725 43.2827 7.5749 43.2427C7.54938 43.2242 7.51734 43.216 7.48557 43.2197C7.45381 43.2234 7.42481 43.2388 7.40475 43.2627C7.22675 43.4777 7.29743 44.6977 7.06707 44.6377C6.9519 44.6377 6.80531 43.6377 7.06707 42.3752C7.08278 42.3077 7.12466 42.1527 7.25293 42.1527C7.54087 42.1527 7.77645 42.4802 7.92566 42.6977C8.0356 42.8552 8.10104 42.9477 8.20313 42.9627C8.35324 43.0005 8.48944 43.0772 8.59664 43.1845C8.70384 43.2917 8.77784 43.4252 8.81043 43.5702C8.84151 43.7907 8.81359 44.0152 8.72928 44.2227V44.2327ZM46.905 37.9427C47.2218 38.3602 47.1092 40.0402 46.816 40.1927C46.7742 40.2177 46.6485 40.1277 46.6276 39.8977C46.6748 39.2471 46.6634 38.5939 46.5935 37.9452C46.6125 37.9238 46.6358 37.9064 46.6621 37.8941C46.6885 37.8819 46.7172 37.8749 46.7464 37.8737C46.7757 37.8726 46.8049 37.8772 46.8322 37.8873C46.8595 37.8975 46.8843 37.9129 46.905 37.9327V37.9427ZM46.1983 37.6627C46.2559 37.7202 46.5464 38.2077 46.3737 39.9302C46.3292 40.3702 45.9862 40.3977 46.0072 40.1102C46.0517 39.4952 46.0883 38.1927 45.8789 37.6102C45.9284 37.5788 45.9882 37.5658 46.047 37.5737C46.1058 37.5815 46.1596 37.6096 46.1983 37.6527V37.6627ZM45.5674 37.5302C45.751 38.0312 45.8396 38.5594 45.8292 39.0902C45.8292 39.8127 45.748 40.1327 45.6747 40.2702C45.6657 40.2869 45.6517 40.3006 45.6344 40.3097C45.6172 40.3188 45.5975 40.3228 45.5779 40.3212C45.5583 40.3196 45.5396 40.3125 45.5242 40.3007C45.5088 40.289 45.4974 40.2731 45.4915 40.2552C45.4231 39.8821 45.3916 39.5038 45.3973 39.1252C45.3913 38.6106 45.2838 38.1017 45.0805 37.6252C45.1048 37.5873 45.1369 37.5544 45.1747 37.5285C45.2125 37.5026 45.2554 37.4842 45.3008 37.4745C45.3462 37.4647 45.3931 37.4637 45.4389 37.4715C45.4847 37.4794 45.5284 37.4959 45.5674 37.5202V37.5302ZM43.7351 38.4702C43.8738 38.4702 43.9837 38.3502 44.0728 38.1802C44.4418 37.4802 44.8292 37.6527 44.8973 37.7977C45.0578 38.2241 45.1462 38.6722 45.1591 39.1252C45.1591 39.1427 45.2402 40.3427 45.091 40.3227C44.9392 40.3427 44.8083 39.3652 44.7612 39.1252C44.7517 38.9822 44.7069 38.8434 44.6303 38.7202C44.617 38.7053 44.6001 38.6939 44.581 38.6869C44.562 38.6799 44.5414 38.6775 44.5211 38.68C44.5009 38.6824 44.4816 38.6897 44.465 38.7011C44.4484 38.7125 44.4351 38.7276 44.4261 38.7452C44.4 38.7977 44.4261 38.8352 44.4497 38.8827C44.4712 38.9341 44.4862 38.9878 44.4942 39.0427C44.3005 39.0427 43.6304 39.0427 43.6147 39.1927C43.5387 39.8877 43.2011 40.1402 43.1278 39.3627C43.1252 39.3002 43.0519 38.4652 43.7455 38.4602L43.7351 38.4702ZM39.3924 32.6077C40.552 33.9552 41.7745 38.5677 41.921 39.1402L39.3898 39.1627C39.1359 36.7502 39.4029 32.5977 39.4029 32.5977L39.3924 32.6077ZM39.0652 39.4502C39.0665 39.4365 39.0731 39.4237 39.0838 39.4145C39.0945 39.4052 39.1084 39.4001 39.1228 39.4002C39.6463 39.4002 41.2012 39.3752 42.8739 39.3652C42.9262 40.0402 43.2456 40.0802 43.366 40.0727C43.7717 40.0552 43.6984 39.4077 43.8241 39.3027C44.0587 39.2594 44.299 39.2518 44.5361 39.2802C44.5361 39.3027 44.667 40.5727 45.0884 40.5727C45.1319 40.5751 45.1751 40.564 45.2114 40.541C45.2477 40.518 45.2753 40.4844 45.29 40.4452C45.3257 40.4853 45.3714 40.5162 45.4229 40.5351C45.4744 40.554 45.5301 40.5603 45.5848 40.5533C45.6395 40.5464 45.6915 40.5264 45.736 40.4953C45.7805 40.4641 45.8162 40.4228 45.8397 40.3752C45.8954 40.4566 45.9785 40.5174 46.0752 40.5477C46.3161 40.6102 46.4993 40.3227 46.5124 40.2977C46.5437 40.3433 46.5872 40.3801 46.6384 40.4042C46.6896 40.4283 46.7466 40.4389 46.8035 40.4348C46.8605 40.4307 46.9152 40.4121 46.9621 40.381C47.0089 40.3498 47.0462 40.3072 47.07 40.2577C47.2054 39.9874 47.2837 39.6943 47.3003 39.3952C47.3003 39.3952 47.7427 39.3952 47.905 39.3952C47.9196 39.3952 47.9335 39.4007 47.9439 39.4105C47.9542 39.4204 47.96 39.4337 47.96 39.4477V41.0152C47.9233 41.0152 40.1253 40.9952 39.06 41.0152C39.0704 40.7877 39.0416 40.1452 39.0757 39.4402L39.0652 39.4502ZM37.8715 41.3152C37.8715 41.3006 37.8776 41.2866 37.8884 41.2763C37.8992 41.266 37.9139 41.2602 37.9291 41.2602C38.882 41.2427 48.4154 41.2602 48.5672 41.2602C48.5818 41.2602 48.5958 41.2657 48.6061 41.2755C48.6164 41.2854 48.6222 41.2987 48.6222 41.3127V41.6327H37.8663L37.8715 41.3152ZM20.3595 29.2352C20.5925 28.4302 21.6683 28.2202 21.862 27.9852C22.2259 27.5402 22.1526 26.4127 23.1002 26.0877C23.9169 25.8077 24.5294 26.4827 24.553 26.5102C24.566 26.5242 24.5824 26.5352 24.6007 26.5421C24.619 26.5491 24.6388 26.5518 24.6584 26.5501C24.678 26.5484 24.6969 26.5423 24.7136 26.5323C24.7303 26.5223 24.7443 26.5088 24.7545 26.4927C24.7545 26.4927 25.4534 25.3777 26.4141 25.1527C27.6418 24.8627 28.2177 26.2677 28.2465 26.3302C28.4996 26.7872 28.8575 27.1837 29.2935 27.4902C29.7568 27.6852 30.6207 28.0502 30.7594 28.8077C30.838 29.143 30.8433 29.4902 30.7751 29.8277C30.5605 30.7502 31.3353 31.4027 31.1992 32.2977C31.1337 32.7477 30.8458 32.9502 30.5421 33.1652C30.2536 33.363 30.0141 33.6191 29.8406 33.9152C29.5788 34.3452 29.2909 34.8302 28.6103 34.7902C28.8721 33.6677 28.8721 31.8452 28.8721 31.0577C28.8703 30.9604 28.8303 30.8673 28.76 30.7969C28.6897 30.7265 28.5942 30.6839 28.4925 30.6777C28.0668 30.6591 27.6501 30.5543 27.2701 30.3702C26.6445 30.0352 26.333 28.2902 24.8671 28.4202C24.8381 28.422 24.8108 28.434 24.7906 28.4538C24.7703 28.4737 24.7584 28.5 24.7571 28.5277C24.7571 28.5277 24.7022 29.3502 24.4247 29.7527C23.9326 30.4677 23.0112 30.0477 22.5505 30.8777C22.508 30.9546 22.4872 31.0407 22.4902 31.1277C22.5138 31.7552 22.6237 33.8777 22.7834 34.5027C22.2337 34.5027 21.2914 34.3952 20.9511 33.9802C20.383 33.2827 20.8909 32.5152 20.8595 31.8427C20.828 31.1702 19.9904 30.5302 20.3595 29.2352ZM25.8356 37.1627C26.2095 37.1848 26.5838 37.125 26.9298 36.9877C26.8948 37.4054 26.9177 37.8257 26.9978 38.2377C27.004 38.2635 27.0018 38.2904 26.9915 38.315C26.9813 38.3396 26.9634 38.3606 26.9403 38.3752C25.7623 39.1252 24.8697 38.5602 24.5399 38.2777C24.5188 38.2601 24.5037 38.2368 24.4967 38.211C24.4897 38.1851 24.4911 38.1578 24.5006 38.1327C24.6101 37.7522 24.6672 37.3597 24.6707 36.9652C24.671 36.9427 24.6644 36.9206 24.6519 36.9015C24.6394 36.8825 24.6214 36.8672 24.6001 36.8577C24.0451 36.6077 23.2913 35.8452 23.0295 34.4527C22.8707 33.3476 22.7746 32.2351 22.7415 31.1202C22.7411 31.0743 22.7518 31.0289 22.773 30.9877C23.2965 30.0502 24.7571 31.0577 24.998 28.6477C26.2335 28.6477 26.4429 30.1952 27.1601 30.5752C27.5719 30.7776 28.0246 30.8927 28.4873 30.9127C28.5273 30.9152 28.5649 30.932 28.5926 30.9598C28.6202 30.9876 28.6359 31.0243 28.6365 31.0627C28.6365 31.7327 28.6365 34.0027 28.291 35.0627C28.0946 35.6527 27.4638 37.0177 25.8487 36.9452C25.8255 36.9527 25.8051 36.9666 25.7903 36.9853C25.7755 37.0039 25.7668 37.0263 25.7654 37.0497C25.764 37.0731 25.7699 37.0963 25.7824 37.1164C25.7949 37.1366 25.8134 37.1527 25.8356 37.1627ZM22.7756 37.3252C22.6107 37.1802 22.1735 37.2327 22.0112 37.2602C22.018 37.222 22.0276 37.1845 22.04 37.1477C22.0507 37.1365 22.0589 37.1234 22.0643 37.1092C22.0697 37.095 22.0721 37.0799 22.0713 37.0649C22.0706 37.0498 22.0668 37.035 22.06 37.0213C22.0533 37.0076 22.0438 36.9953 22.0322 36.9852C22.0205 36.975 22.0068 36.9671 21.9919 36.962C21.977 36.9568 21.9613 36.9546 21.9455 36.9553C21.9297 36.956 21.9142 36.9596 21.8998 36.966C21.8855 36.9725 21.8727 36.9815 21.862 36.9927C21.7884 37.1864 21.7392 37.3878 21.7154 37.5927C21.6788 37.8577 21.5872 38.5502 21.4537 38.6227C21.3647 38.5227 21.2861 38.0527 21.2809 37.5302C21.2809 37.1502 21.362 36.0777 21.6971 36.0777C22.2206 36.0777 22.5112 36.7277 22.7442 36.7402C22.7677 36.7402 23.2232 36.7552 23.3122 37.1152C23.3365 37.2405 23.325 37.3698 23.279 37.4894C23.2329 37.6091 23.154 37.7147 23.0504 37.7952C23.0085 37.8277 22.8986 37.8952 22.8122 37.8502C22.786 37.8377 22.8122 37.7227 22.8122 37.6602C22.8122 37.5977 22.8777 37.4027 22.7756 37.3252ZM21.1055 38.3827C21.1212 38.7852 20.8019 38.6202 20.7102 38.3127C20.5258 37.5829 20.5204 36.8223 20.6945 36.0902C20.7495 35.9077 21.2887 36.0252 21.2416 36.1702C21.0345 36.8906 20.9917 37.6451 21.116 38.3827H21.1055ZM20.0061 36.2502C20.0568 36.2042 20.1199 36.1726 20.1883 36.1589C20.2567 36.1453 20.3278 36.15 20.3935 36.1727C20.2155 36.7277 20.315 37.8177 20.4956 38.3952C20.4668 38.7402 20.1579 38.7152 20.082 38.5702C19.7888 38.0202 19.6632 36.5627 20.0061 36.2502ZM19.7443 38.3702C19.7757 38.4502 19.6684 38.8227 19.3936 38.4927C19.1187 38.1627 18.8151 36.1027 19.6239 36.5152C19.5697 36.7785 19.5513 37.0473 19.569 37.3152C19.569 37.5177 19.7365 38.3702 19.7365 38.3752L19.7443 38.3702ZM18.624 30.8702C18.6057 30.7302 18.8465 30.6952 18.8648 30.8377C19.1417 32.535 19.3165 34.2462 19.3883 35.9627C19.3883 36.1127 19.1501 36.1027 19.1449 35.9627C19.0704 34.2602 18.8939 32.5633 18.6161 30.8802L18.624 30.8702ZM19.7731 24.5002C19.7417 24.8452 19.5977 25.6677 19.4328 26.5002C19.1173 26.2186 18.759 25.9843 18.3701 25.8052C18.9302 25.2502 19.5061 24.7152 19.7731 24.5002ZM25.5555 41.7502C25.176 41.8102 24.6524 41.9002 24.1001 42.0002C24.0687 41.7927 24.0242 41.5952 23.9823 41.4277C24.3043 41.4602 25.0137 41.5352 25.5529 41.6302L25.5555 41.7502ZM25.5398 41.9877C25.5048 42.5088 25.5048 43.0315 25.5398 43.5527H21.061C21.061 43.3552 21.0898 42.9377 21.3647 42.8377C21.9746 42.6152 24.4116 42.1777 25.5398 42.0002V41.9877ZM37.6386 41.3002V43.5502H25.799C25.747 42.8247 25.7575 42.0965 25.8304 41.3727C27.4481 41.3177 33.3064 40.8727 33.3666 40.8577C33.3985 40.8553 33.4282 40.841 33.449 40.8178C33.4699 40.7946 33.4803 40.7644 33.4778 40.7339C33.4754 40.7034 33.4604 40.6751 33.4361 40.6552C33.4118 40.6352 33.3802 40.6253 33.3482 40.6277C33.2854 40.6277 27.1549 41.1077 25.7178 41.1427C25.6881 41.1432 25.6596 41.1542 25.6378 41.1736C25.6161 41.193 25.6026 41.2194 25.6 41.2477C25.6 41.2477 25.6 41.3102 25.5843 41.3977C24.9692 41.2927 24.1708 41.2127 23.9142 41.1877C23.8724 41.0452 23.8383 40.9527 23.8357 40.9377C23.8267 40.9138 23.8099 40.8933 23.7877 40.8794C23.7655 40.8654 23.7392 40.8587 23.7127 40.8602C20.6841 41.0402 15.7393 40.8602 15.6896 40.8602C15.6576 40.8601 15.6268 40.8717 15.6034 40.8926C15.5801 40.9135 15.566 40.9422 15.564 40.9727C15.5633 40.988 15.5658 41.0033 15.5713 41.0176C15.5769 41.032 15.5854 41.0452 15.5964 41.0563C15.6074 41.0675 15.6206 41.0765 15.6352 41.0827C15.6499 41.089 15.6657 41.0923 15.6817 41.0927C15.7315 41.0927 20.5846 41.2727 23.6342 41.0927C23.7347 41.3992 23.8109 41.7126 23.8619 42.0302C22.9886 42.1727 22.125 42.3647 21.2757 42.6052C20.8595 42.7577 20.815 43.2902 20.8176 43.5377H12.2238C13.3677 40.4402 16.4121 38.8652 18.9695 38.0727C19.2941 39.1652 19.815 38.7577 19.8752 38.6777C20.3595 39.1577 20.5584 38.8077 20.6265 38.6952C21.0008 39.0252 21.1867 38.8077 21.2495 38.7177C21.2495 38.7177 21.8228 39.3227 21.9824 37.4827C21.9824 37.4827 21.9824 37.4052 22.5897 37.4452C22.5996 37.4981 22.5996 37.5522 22.5897 37.6052C22.4824 38.1977 23.0426 38.0852 23.2127 37.9602C23.3498 37.8542 23.4545 37.715 23.5158 37.557C23.577 37.3991 23.5926 37.2283 23.5609 37.0627C23.5134 36.9021 23.4128 36.7605 23.274 36.6592C23.1353 36.5578 22.966 36.502 22.7913 36.5002C22.7258 36.0977 22.6237 35.5152 22.4641 34.7027C22.6237 34.7152 22.7572 34.7177 22.841 34.7177C23.1028 35.7902 23.7101 36.6702 24.4116 37.0202C24.4057 37.3642 24.3538 37.7062 24.2572 38.0377C24.2322 38.1063 24.229 38.1804 24.2481 38.2507C24.2672 38.321 24.3077 38.3843 24.3645 38.4327C25.3356 39.2927 26.5816 38.8602 27.0633 38.5502C27.1261 38.5095 27.1749 38.4519 27.2033 38.3846C27.2318 38.3174 27.2386 38.2436 27.223 38.1727C27.175 37.9311 27.1496 37.686 27.147 37.4402C32.5132 36.9727 37.2433 40.6602 37.7459 41.0677C37.7093 41.0961 37.6805 41.1325 37.6618 41.1739C37.6431 41.2152 37.6351 41.2602 37.6386 41.3052V41.3002ZM48.6327 43.5502H37.882V43.1877C38.4317 43.1877 48.1825 43.2027 48.6432 43.1877C48.6405 43.3377 48.6379 43.4602 48.6353 43.5577L48.6327 43.5502ZM48.6327 42.9602C47.2584 42.9927 38.594 42.9602 37.8689 42.9602V41.8502H48.6275C48.6432 42.1952 48.6484 42.6077 48.6458 42.9677L48.6327 42.9602Z" fill="#313131"/>
<path d="M41.7584 43.4733C41.7267 43.4727 41.6965 43.4603 41.674 43.4389C41.6516 43.4175 41.6387 43.3886 41.638 43.3583V41.5633C41.6355 41.5466 41.6367 41.5296 41.6416 41.5134C41.6466 41.4972 41.6551 41.4822 41.6666 41.4694C41.6782 41.4566 41.6925 41.4464 41.7086 41.4394C41.7246 41.4323 41.7421 41.4287 41.7598 41.4287C41.7774 41.4287 41.7949 41.4323 41.8109 41.4394C41.827 41.4464 41.8413 41.4566 41.8529 41.4694C41.8644 41.4822 41.8729 41.4972 41.8779 41.5134C41.8828 41.5296 41.884 41.5466 41.8815 41.5633V43.3583C41.8808 43.389 41.8675 43.4183 41.8445 43.4398C41.8215 43.4613 41.7906 43.4733 41.7584 43.4733Z" fill="#E02728"/>
<path d="M23.8516 11.4651C23.8516 11.5619 23.8827 11.6547 23.9382 11.7232C23.9937 11.7916 24.0689 11.8301 24.1474 11.8301C24.2258 11.8301 24.301 11.7916 24.3565 11.7232C24.412 11.6547 24.4432 11.5619 24.4432 11.4651C24.4432 11.3683 24.412 11.2755 24.3565 11.207C24.301 11.1386 24.2258 11.1001 24.1474 11.1001C24.0689 11.1001 23.9937 11.1386 23.9382 11.207C23.8827 11.2755 23.8516 11.3683 23.8516 11.4651Z" fill="#313131"/>
<path d="M27.3809 11.5061C27.3809 11.6029 27.412 11.6958 27.4675 11.7642C27.523 11.8327 27.5982 11.8711 27.6767 11.8711C27.7551 11.8711 27.8303 11.8327 27.8858 11.7642C27.9413 11.6958 27.9724 11.6029 27.9724 11.5061C27.9724 11.4093 27.9413 11.3165 27.8858 11.248C27.8303 11.1796 27.7551 11.1411 27.6767 11.1411C27.5982 11.1411 27.523 11.1796 27.4675 11.248C27.412 11.3165 27.3809 11.4093 27.3809 11.5061Z" fill="#313131"/>
<path d="M22.0246 12.1998C22.0091 12.2001 21.9937 12.1973 21.9793 12.1918C21.9649 12.1862 21.9518 12.1779 21.9409 12.1673C21.8646 12.1052 21.7754 12.0592 21.6791 12.0323C21.6482 12.0237 21.6222 12.0037 21.6067 11.9768C21.5913 11.9498 21.5876 11.9181 21.5967 11.8886C21.6057 11.8591 21.6266 11.8342 21.6548 11.8194C21.6831 11.8047 21.7163 11.8012 21.7472 11.8098C21.877 11.8467 21.9961 11.9117 22.0953 11.9998C22.1117 12.0153 22.1232 12.0349 22.1285 12.0563C22.1338 12.0777 22.1327 12.1 22.1253 12.1209C22.118 12.1417 22.1046 12.1602 22.0868 12.1741C22.069 12.1881 22.0475 12.197 22.0246 12.1998Z" fill="#313131"/>
<path d="M14.1038 14.172C14.0466 14.0017 13.958 13.8425 13.8421 13.702C13.7347 13.452 12.4704 10.622 12.295 10.2945C12.0149 9.77453 11.7322 9.72953 11.5438 9.79453C11.2009 9.89703 11.2611 10.3495 11.3579 10.572C11.4548 10.7945 12.0594 12.037 12.1772 12.3645C12.0719 12.4192 11.9636 12.4685 11.8527 12.512C11.7663 12.342 11.4129 11.5595 11.159 11.0645C10.8737 10.502 10.5909 10.252 10.3213 10.367C9.98627 10.4995 9.95224 10.8895 10.2271 11.5245C10.4627 12.0042 10.7248 12.4715 11.0124 12.9245C10.9311 12.9196 10.8503 12.9398 10.782 12.9821C10.7136 13.0245 10.6613 13.0866 10.6328 13.1595C10.2847 13.1595 10.0543 13.382 10.1564 13.837C10.2978 14.462 11.0464 15.4445 11.4077 15.4795C11.7689 15.5145 11.7453 15.2295 11.7453 15.1295C12.3605 15.287 12.1746 14.537 12.1066 14.3645C12.138 14.3645 12.9154 14.1145 13.007 14.562C13.0384 14.707 13.2871 14.637 13.24 14.492C13.062 13.9495 12.5175 14.0445 12.1589 14.117C11.8003 14.1895 11.7663 14.057 11.8082 13.9845C11.9417 13.7545 12.3317 13.512 12.9207 13.4845C13.5096 13.457 13.8682 14.2345 13.8735 14.2345C13.887 14.2576 13.9082 14.2757 13.9339 14.2859C13.9595 14.296 13.9879 14.2976 14.0145 14.2903C14.0412 14.2831 14.0645 14.2675 14.0807 14.246C14.0969 14.2245 14.1051 14.1985 14.1038 14.172ZM11.4286 15.252C11.2584 15.237 10.536 14.4295 10.3815 13.792C10.3554 13.6845 10.2978 13.357 10.5988 13.397C10.7511 13.9686 11.0467 14.4963 11.46 14.9345C11.6092 15.252 11.4679 15.252 11.4286 15.252ZM12.9102 13.252C11.5595 13.307 11.1433 14.3795 11.85 14.387C12.0725 14.857 11.8343 14.917 11.7741 14.887C11.3306 14.4754 11.0114 13.9572 10.8501 13.387C10.8501 13.2995 10.9208 13.047 11.1642 13.1895L11.371 13.502C11.3895 13.5246 11.416 13.54 11.4455 13.5452C11.475 13.5505 11.5055 13.5452 11.5313 13.5305C11.557 13.5157 11.5762 13.4925 11.5853 13.4651C11.5943 13.4378 11.5926 13.4082 11.5804 13.382C11.5804 13.367 10.6878 11.9845 10.4522 11.4345C10.3318 11.157 10.1695 10.6845 10.4156 10.5795C10.5072 10.542 10.6957 10.6745 10.9391 11.1545C11.1171 11.507 11.2872 11.8745 11.426 12.172C11.6877 12.762 11.6877 12.762 11.8003 12.7545C12.0082 12.6988 12.2066 12.6146 12.3893 12.5045C12.4887 12.427 12.4966 12.4195 11.8108 10.972C11.7061 10.747 11.6118 10.552 11.5804 10.472C11.5124 10.3145 11.4731 10.057 11.6144 10.007C11.7977 9.93953 11.9835 10.2295 12.0752 10.3995C12.2113 10.6495 13.0384 12.4995 13.4232 13.362C13.2652 13.2832 13.0883 13.2453 12.9102 13.252Z" fill="#313131"/>
<path d="M18.8799 22.5452L19.2097 21.9602C19.227 21.9362 19.253 21.9191 19.2826 21.9124C19.3123 21.9056 19.3436 21.9097 19.3703 21.9237C19.3971 21.9377 19.4174 21.9607 19.4274 21.9883C19.4374 22.0158 19.4363 22.0459 19.4243 22.0727L19.0919 22.6552C19.0766 22.6821 19.0508 22.702 19.0201 22.7107C18.9894 22.7194 18.9564 22.716 18.9283 22.7015C18.9002 22.6869 18.8793 22.6622 18.8702 22.6329C18.8611 22.6036 18.8646 22.5721 18.8799 22.5452Z" fill="#E02728"/>
<path d="M21.7055 20.0799L21.339 19.5174C21.3255 19.4913 21.3225 19.4614 21.3307 19.4335C21.3389 19.4055 21.3577 19.3814 21.3834 19.3659C21.4091 19.3503 21.4399 19.3444 21.4699 19.3493C21.4999 19.3542 21.5269 19.3696 21.5458 19.3924L21.9122 19.9574C21.9239 19.9832 21.9254 20.0122 21.9166 20.0391C21.9078 20.0659 21.8891 20.0888 21.8641 20.1037C21.839 20.1185 21.8093 20.1243 21.7801 20.1199C21.751 20.1155 21.7245 20.1013 21.7055 20.0799Z" fill="#E02728"/>
<path d="M24.2575 22.8511L24.5873 22.2661C24.6049 22.2434 24.6304 22.2274 24.6593 22.2211C24.6882 22.2149 24.7185 22.2188 24.7446 22.2322C24.7707 22.2456 24.7909 22.2675 24.8014 22.294C24.812 22.3204 24.8121 22.3496 24.802 22.3761L24.4721 22.9611C24.4546 22.9839 24.429 22.9999 24.4001 23.0062C24.3712 23.0124 24.341 23.0084 24.3149 22.9951C24.2888 22.9817 24.2686 22.9598 24.258 22.9333C24.2475 22.9069 24.2473 22.8777 24.2575 22.8511Z" fill="#E02728"/>
<path d="M21.2046 24.9566L21.6235 25.4866C21.6429 25.5112 21.6513 25.5421 21.6469 25.5726C21.6425 25.603 21.6256 25.6306 21.5999 25.6491C21.5742 25.6677 21.5419 25.6758 21.51 25.6716C21.478 25.6673 21.4492 25.6512 21.4298 25.6266L21.0109 25.0966C21.0013 25.0845 20.9943 25.0707 20.9903 25.0559C20.9862 25.0412 20.9853 25.0258 20.9875 25.0107C20.9897 24.9956 20.9949 24.9811 21.003 24.968C21.0111 24.9548 21.0218 24.9433 21.0345 24.9341C21.0472 24.925 21.0617 24.9182 21.0771 24.9144C21.0926 24.9106 21.1086 24.9097 21.1244 24.9117C21.1402 24.9138 21.1555 24.9189 21.1692 24.9266C21.183 24.9343 21.195 24.9445 21.2046 24.9566Z" fill="#E02728"/>
<path d="M27.9871 23.83L27.9034 23.1725C27.8992 23.142 27.9079 23.1111 27.9275 23.0868C27.9472 23.0624 27.9761 23.0465 28.0081 23.0425C28.04 23.0385 28.0723 23.0468 28.0978 23.0656C28.1233 23.0843 28.14 23.112 28.1442 23.1425L28.228 23.8025C28.2318 23.833 28.2227 23.8637 28.2029 23.8878C28.183 23.912 28.1539 23.9276 28.1219 23.9312C28.09 23.9349 28.0579 23.9263 28.0326 23.9073C28.0073 23.8883 27.9909 23.8605 27.9871 23.83Z" fill="#E02728"/>
<path d="M28.3924 19.8923L28.0809 19.2998C28.0667 19.2723 28.0645 19.2405 28.0748 19.2114C28.0851 19.1823 28.107 19.1584 28.1359 19.1448C28.1647 19.1312 28.198 19.1291 28.2284 19.1389C28.2588 19.1488 28.2839 19.1698 28.2982 19.1973L28.6123 19.7898C28.6226 19.8171 28.6221 19.847 28.6107 19.8739C28.5993 19.9008 28.5779 19.9227 28.5506 19.9354C28.5233 19.9482 28.492 19.9508 28.4628 19.9428C28.4336 19.9349 28.4085 19.9169 28.3924 19.8923Z" fill="#E02728"/>
<path d="M30.6121 21.8427L31.2953 21.9652C31.3252 21.973 31.351 21.9914 31.3674 22.0166C31.3837 22.0418 31.3895 22.072 31.3836 22.1011C31.3776 22.1302 31.3603 22.1561 31.3352 22.1736C31.3101 22.191 31.279 22.1987 31.2482 22.1952L30.5676 22.0727C30.5382 22.0647 30.513 22.0464 30.4969 22.0216C30.4808 21.9968 30.475 21.9671 30.4806 21.9384C30.4861 21.9097 30.5027 21.884 30.527 21.8663C30.5513 21.8486 30.5816 21.8402 30.6121 21.8427Z" fill="#E02728"/>
<path d="M15.1833 20.9643C15.3632 20.7997 15.527 20.6198 15.6728 20.4268C15.3953 20.3993 15.0341 20.4718 14.9529 20.2893C14.8985 19.8614 14.8766 19.4303 14.8875 18.9993C14.8849 18.9826 14.8861 18.9656 14.8911 18.9494C14.896 18.9332 14.9045 18.9182 14.9161 18.9054C14.9276 18.8927 14.9419 18.8824 14.958 18.8754C14.9741 18.8684 14.9915 18.8647 15.0092 18.8647C15.0269 18.8647 15.0443 18.8684 15.0604 18.8754C15.0765 18.8824 15.0907 18.8927 15.1023 18.9054C15.1138 18.9182 15.1224 18.9332 15.1273 18.9494C15.1323 18.9656 15.1335 18.9826 15.1309 18.9993C15.1309 19.4993 15.144 20.0343 15.1676 20.1843C15.3901 20.2268 15.9293 20.1118 15.9345 20.3793C15.9345 20.5443 15.6178 20.8793 15.3456 21.1293C15.3219 21.144 15.2935 21.1503 15.2655 21.1471C15.2375 21.1439 15.2115 21.1313 15.1921 21.1117C15.1728 21.092 15.1613 21.0665 15.1597 21.0395C15.1581 21.0126 15.1664 20.986 15.1833 20.9643Z" fill="#313131"/>
<path d="M13.3493 19.2521C13.3262 19.2522 13.3036 19.2459 13.2841 19.2341C13.2647 19.2222 13.2492 19.2053 13.2396 19.1852C13.2299 19.1652 13.2265 19.143 13.2297 19.1212C13.2329 19.0993 13.2426 19.0788 13.2576 19.0621C13.3746 18.9344 13.5385 18.8545 13.7155 18.8391C13.8924 18.8238 14.0687 18.8741 14.2079 18.9796C14.2309 18.9985 14.2459 19.0249 14.2498 19.0537C14.2537 19.0824 14.2464 19.1116 14.2292 19.1355C14.2119 19.1594 14.186 19.1764 14.1565 19.1831C14.1269 19.1899 14.0958 19.186 14.0691 19.1721C13.9801 19.0992 13.8647 19.0626 13.7478 19.07C13.6308 19.0775 13.5215 19.1285 13.4435 19.2121C13.432 19.2252 13.4175 19.2356 13.4012 19.2425C13.3849 19.2494 13.3671 19.2527 13.3493 19.2521Z" fill="#313131"/>
<path d="M16.6652 19.1503C16.6497 19.1504 16.6343 19.1476 16.6199 19.142C16.6056 19.1365 16.5925 19.1282 16.5815 19.1178C16.5428 19.0809 16.4969 19.0515 16.4464 19.0315C16.3958 19.0115 16.3417 19.0012 16.287 19.0012C16.2323 19.0012 16.1781 19.0115 16.1276 19.0315C16.0771 19.0515 16.0311 19.0809 15.9925 19.1178C15.9695 19.1395 15.9384 19.1517 15.9061 19.1517C15.8738 19.1517 15.8427 19.1395 15.8197 19.1178C15.8082 19.1071 15.799 19.0943 15.7927 19.0801C15.7864 19.0659 15.7832 19.0507 15.7832 19.0353C15.7832 19.0199 15.7864 19.0047 15.7927 18.9905C15.799 18.9764 15.8082 18.9635 15.8197 18.9528C15.8802 18.894 15.9523 18.8473 16.0318 18.8154C16.1114 18.7835 16.1968 18.7671 16.2831 18.7671C16.3693 18.7671 16.4547 18.7835 16.5343 18.8154C16.6138 18.8473 16.6859 18.894 16.7464 18.9528C16.7623 18.969 16.773 18.9892 16.7774 19.011C16.7818 19.0328 16.7796 19.0554 16.7711 19.076C16.7626 19.0967 16.7481 19.1146 16.7294 19.1278C16.7107 19.1409 16.6884 19.1488 16.6652 19.1503Z" fill="#313131"/>
<path d="M11.6625 20.6799C11.5761 20.6149 11.3719 20.4949 11.3719 20.4949C11.356 20.4882 11.3418 20.4782 11.3301 20.4658C11.3185 20.4534 11.3098 20.4388 11.3046 20.4229C11.2993 20.4071 11.2976 20.3903 11.2997 20.3738C11.3017 20.3573 11.3074 20.3413 11.3164 20.3271C11.3253 20.3128 11.3374 20.3005 11.3517 20.291C11.366 20.2815 11.3823 20.275 11.3994 20.272C11.4165 20.269 11.4341 20.2694 11.4511 20.2734C11.468 20.2773 11.4838 20.2847 11.4976 20.2949C11.4976 20.2949 11.7148 20.4249 11.8143 20.4974C11.8352 20.5179 11.8475 20.5449 11.849 20.5735C11.8505 20.602 11.8411 20.6301 11.8225 20.6525C11.8039 20.6748 11.7774 20.69 11.7479 20.695C11.7185 20.7001 11.6881 20.6947 11.6625 20.6799Z" fill="#313131"/>
<path d="M15.0439 22.813C14.5413 22.813 14.2429 22.433 14.1408 21.9655C14.1346 21.9369 14.1355 21.9072 14.1434 21.879C14.1512 21.8507 14.166 21.8246 14.1863 21.8027C14.2067 21.7809 14.2321 21.7639 14.2606 21.753C14.289 21.7422 14.3197 21.738 14.3503 21.7405C14.8029 21.7694 15.2573 21.7627 15.7088 21.7205C15.7403 21.717 15.7723 21.7207 15.802 21.7314C15.8317 21.7421 15.8583 21.7595 15.8796 21.782C15.9009 21.8045 15.9162 21.8315 15.9243 21.8609C15.9324 21.8902 15.933 21.9209 15.9261 21.9505C15.735 22.7155 15.2717 22.813 15.0439 22.813ZM14.4 21.9755C14.4576 22.1855 14.6146 22.5605 15.0256 22.5805C15.4366 22.6005 15.6067 22.1905 15.6695 21.958C15.2475 21.9953 14.823 22.0011 14.4 21.9755Z" fill="#313131"/>
<path d="M13.3887 19.919C13.3887 20.0025 13.4157 20.0827 13.4638 20.1417C13.5119 20.2008 13.5772 20.234 13.6452 20.234C13.7132 20.234 13.7785 20.2008 13.8266 20.1417C13.8747 20.0827 13.9017 20.0025 13.9017 19.919C13.9017 19.8355 13.8747 19.7553 13.8266 19.6963C13.7785 19.6372 13.7132 19.604 13.6452 19.604C13.5772 19.604 13.5119 19.6372 13.4638 19.6963C13.4157 19.7553 13.3887 19.8355 13.3887 19.919Z" fill="#313131"/>
<path d="M16.0859 19.8936C16.0859 19.9772 16.113 20.0573 16.1611 20.1164C16.2092 20.1754 16.2744 20.2086 16.3425 20.2086C16.4105 20.2086 16.4758 20.1754 16.5239 20.1164C16.572 20.0573 16.599 19.9772 16.599 19.8936C16.599 19.8101 16.572 19.7299 16.5239 19.6709C16.4758 19.6118 16.4105 19.5786 16.3425 19.5786C16.2744 19.5786 16.2092 19.6118 16.1611 19.6709C16.113 19.7299 16.0859 19.8101 16.0859 19.8936Z" fill="#313131"/>
<path d="M13.2405 21.0447C13.282 21.0501 13.324 21.0495 13.364 21.043C13.404 21.0364 13.4413 21.0241 13.4736 21.0066C13.5059 20.9892 13.5326 20.967 13.5521 20.9414C13.5716 20.9158 13.5836 20.8873 13.5873 20.8575C13.591 20.8277 13.5864 20.7973 13.5736 20.768C13.5609 20.7388 13.5404 20.7112 13.5133 20.6871C13.4861 20.6629 13.4529 20.6426 13.4156 20.6273C13.3783 20.612 13.3376 20.602 13.296 20.598C13.2545 20.5925 13.2124 20.593 13.1723 20.5996C13.1322 20.6061 13.0949 20.6184 13.0625 20.6358C13.0301 20.6533 13.0033 20.6755 12.9837 20.7012C12.9642 20.7268 12.9522 20.7554 12.9485 20.7852C12.9448 20.815 12.9495 20.8455 12.9623 20.8748C12.975 20.9041 12.9957 20.9317 13.0229 20.9559C13.0501 20.98 13.0835 21.0004 13.1209 21.0156C13.1583 21.0309 13.1991 21.0408 13.2408 21.0447" fill="#FCCAC2"/>
<path d="M16.5024 20.9524C16.5044 20.9819 16.5145 21.0106 16.5321 21.0369C16.5497 21.0631 16.5745 21.0865 16.605 21.1055C16.6355 21.1246 16.6712 21.139 16.71 21.1479C16.7488 21.1568 16.79 21.1601 16.8311 21.1576C16.8723 21.155 16.9127 21.1467 16.9499 21.1331C16.9872 21.1194 17.0206 21.1008 17.0483 21.0781C17.076 21.0555 17.0974 21.0293 17.1113 21.0011C17.1252 20.9729 17.1314 20.9432 17.1294 20.9137C17.1276 20.884 17.1178 20.8552 17.1003 20.8287C17.0828 20.8023 17.0581 20.7787 17.0276 20.7595C16.997 20.7403 16.9612 20.7258 16.9223 20.7167C16.8834 20.7077 16.842 20.7043 16.8007 20.7069C16.7594 20.7094 16.7188 20.7178 16.6814 20.7315C16.644 20.7452 16.6105 20.764 16.5828 20.7868C16.555 20.8096 16.5337 20.836 16.5199 20.8644C16.5061 20.8927 16.5002 20.9226 16.5024 20.9522" fill="#FCCAC2"/>
<path d="M13.9037 26.6314C13.6589 26.5687 13.4299 26.4596 13.2302 26.3106C13.0305 26.1615 12.8643 25.9756 12.7415 25.7639C12.7361 25.7544 12.7286 25.7461 12.7196 25.7397C12.7106 25.7332 12.7002 25.7287 12.6891 25.7264C12.4536 25.6844 12.214 25.6668 11.9745 25.6739C11.964 25.6742 11.9536 25.6765 11.944 25.6808C11.9345 25.685 11.9259 25.691 11.9188 25.6985C11.9117 25.706 11.9063 25.7147 11.9028 25.7242C11.8993 25.7337 11.8979 25.7438 11.8986 25.7539C11.9745 27.2089 12.1604 27.9264 12.2572 28.1989C12.2622 28.2117 12.2706 28.223 12.2815 28.2317C12.2925 28.2404 12.3057 28.2462 12.3198 28.2485C12.3339 28.2508 12.3483 28.2495 12.3617 28.2447C12.3751 28.2399 12.3869 28.2319 12.396 28.2214C12.8508 27.6817 13.3681 27.1928 13.9378 26.7639C13.9496 26.755 13.9584 26.743 13.9633 26.7294C13.9682 26.7158 13.9689 26.7012 13.9653 26.6872C13.9617 26.6732 13.954 26.6606 13.9431 26.6507C13.9322 26.6408 13.9185 26.6341 13.9037 26.6314Z" fill="#FF7449"/>
<path d="M16.3876 25.7492C16.3876 25.72 16.3755 25.692 16.3539 25.6714C16.3323 25.6508 16.303 25.6392 16.2724 25.6392C16.1608 25.6441 16.0497 25.6566 15.94 25.6767C15.9193 25.68 15.9 25.6888 15.8843 25.702C15.8686 25.7153 15.857 25.7325 15.851 25.7517C15.6625 26.2367 15.0657 26.5542 14.7568 26.6542C14.7387 26.6595 14.7224 26.6692 14.7092 26.6822C14.6961 26.6952 14.6866 26.7112 14.6817 26.7286C14.6767 26.7461 14.6764 26.7644 14.6809 26.782C14.6853 26.7996 14.6943 26.8158 14.7071 26.8292C15.1652 27.3292 15.7881 27.9767 16.0709 28.2642C16.0859 28.2786 16.1048 28.2888 16.1255 28.2938C16.1462 28.2988 16.168 28.2983 16.1884 28.2924C16.2088 28.2865 16.2272 28.2754 16.2415 28.2603C16.2559 28.2452 16.2656 28.2267 16.2698 28.2067C16.3632 27.3907 16.4025 26.5699 16.3876 25.7492Z" fill="#FF7449"/>
</svg>
