<svg width="375" height="145" viewBox="0 0 375 145" fill="none" xmlns="http://www.w3.org/2000/svg">
<g clip-path="url(#clip0_1363_3688)">
<rect x="1" y="1" width="373" height="143" rx="10" fill="#E3F0FF"/>
<path d="M379.257 159C236.144 155.264 203.313 150.164 196.432 141.537C190.39 132.512 190.39 132.512 260.416 82.4127C292.156 59.724 342.356 23.7915 358.677 8.4279C317.628 1.90083 276.277 -2.56138 234.78 -4.94185C233.133 -4.59271 231.418 -4.77425 229.88 -5.46047C228.343 -6.14669 227.062 -7.30233 226.221 -8.76176C225.489 -10.0084 225.102 -11.428 225.102 -12.8741C225.101 -14.3201 225.486 -15.7401 226.217 -16.9873C226.949 -18.2346 228 -19.2639 229.262 -19.969C230.523 -20.6741 231.95 -21.0293 233.395 -20.9981C235.493 -20.9981 375.376 -14.9114 379.026 3.2647C380.348 13.6331 367.593 25.4496 269.688 95.4675C250.808 108.9 230.375 123.592 218.648 132.617C256.304 137.948 362.286 141.789 379.718 142.965C381.745 143.165 383.621 144.124 384.971 145.65C386.321 147.176 387.045 149.155 386.998 151.192C386.926 153.229 386.089 155.164 384.654 156.612C383.22 158.059 381.292 158.912 379.257 159Z" fill="#C8E2FF"/>
<path d="M32.1631 40.1973H19.5771V22.748H24.0771V36.8223H32.1631V40.1973ZM47.6084 34.3965H37.9521C38.0146 35.4277 38.4053 36.2168 39.124 36.7637C39.8506 37.3105 40.917 37.584 42.3232 37.584C43.2139 37.584 44.0771 37.4238 44.9131 37.1035C45.749 36.7832 46.4092 36.4395 46.8936 36.0723H47.3623V39.459C46.4092 39.8418 45.5107 40.1191 44.667 40.291C43.8232 40.4629 42.8896 40.5488 41.8662 40.5488C39.2256 40.5488 37.2021 39.9551 35.7959 38.7676C34.3896 37.5801 33.6865 35.8887 33.6865 33.6934C33.6865 31.5215 34.3506 29.8027 35.6787 28.5371C37.0146 27.2637 38.8428 26.627 41.1631 26.627C43.3037 26.627 44.9131 27.1699 45.9912 28.2559C47.0693 29.334 47.6084 30.8887 47.6084 32.9199V34.3965ZM43.4131 31.9238C43.3896 31.041 43.1709 30.377 42.7568 29.9316C42.3428 29.4863 41.6982 29.2637 40.8232 29.2637C40.0107 29.2637 39.3428 29.4746 38.8193 29.8965C38.2959 30.3184 38.0029 30.9941 37.9404 31.9238H43.4131ZM58.999 40.0801C58.5459 40.1973 58.0654 40.2871 57.5576 40.3496C57.0498 40.4199 56.4287 40.4551 55.6943 40.4551C54.0537 40.4551 52.8311 40.123 52.0264 39.459C51.2295 38.7949 50.8311 37.6582 50.8311 36.0488V29.8965H49.0967V27.0371H50.8311V23.2754H55.0498V27.0371H58.999V29.8965H55.0498V34.5605C55.0498 35.0215 55.0537 35.4238 55.0615 35.7676C55.0693 36.1113 55.1318 36.4199 55.249 36.6934C55.3584 36.9668 55.5498 37.1855 55.8232 37.3496C56.1045 37.5059 56.5107 37.584 57.042 37.584C57.2607 37.584 57.5459 37.5371 57.8975 37.4434C58.2568 37.3496 58.5068 37.2637 58.6475 37.1855H58.999V40.0801ZM67.1318 21.9629L63.7217 28.8652H60.9795L62.8193 21.9629H67.1318ZM80.9365 36.0254C80.9365 37.3848 80.3271 38.4824 79.1084 39.3184C77.8896 40.1465 76.2217 40.5605 74.1045 40.5605C72.9326 40.5605 71.8701 40.4512 70.917 40.2324C69.9639 40.0137 69.1982 39.7715 68.6201 39.5059V36.0371H69.0068C69.2178 36.1855 69.46 36.3496 69.7334 36.5293C70.0146 36.7012 70.4092 36.8887 70.917 37.0918C71.3545 37.2715 71.8506 37.4277 72.4053 37.5605C72.96 37.6855 73.5537 37.748 74.1865 37.748C75.0146 37.748 75.6279 37.6582 76.0264 37.4785C76.4248 37.291 76.624 37.0176 76.624 36.6582C76.624 36.3379 76.5068 36.1074 76.2725 35.9668C76.0381 35.8184 75.5928 35.6777 74.9365 35.5449C74.624 35.4746 74.1982 35.4004 73.6592 35.3223C73.1279 35.2363 72.6436 35.1348 72.2061 35.0176C71.0107 34.7051 70.124 34.2207 69.5459 33.5645C68.9678 32.9004 68.6787 32.0762 68.6787 31.0918C68.6787 29.8262 69.2764 28.7754 70.4717 27.9395C71.6748 27.0957 73.3154 26.6738 75.3936 26.6738C76.3779 26.6738 77.3193 26.7754 78.2178 26.9785C79.124 27.1738 79.8311 27.3848 80.3389 27.6113V30.9395H79.9756C79.3506 30.5098 78.6357 30.1621 77.8311 29.8965C77.0342 29.623 76.2256 29.4863 75.4053 29.4863C74.7256 29.4863 74.1514 29.5801 73.6826 29.7676C73.2217 29.9551 72.9912 30.2207 72.9912 30.5645C72.9912 30.877 73.0967 31.1152 73.3076 31.2793C73.5186 31.4434 74.0146 31.6074 74.7959 31.7715C75.2256 31.8574 75.6865 31.9434 76.1787 32.0293C76.6787 32.1074 77.1787 32.209 77.6787 32.334C78.7881 32.623 79.6084 33.0801 80.1396 33.7051C80.6709 34.3223 80.9365 35.0957 80.9365 36.0254ZM106.155 34.7129C106.155 36.4316 105.425 37.8301 103.964 38.9082C102.511 39.9785 100.534 40.5137 98.0342 40.5137C96.5889 40.5137 95.3271 40.3887 94.249 40.1387C93.1787 39.8809 92.1748 39.5566 91.2373 39.166V34.9824H91.7295C92.6592 35.7246 93.6982 36.2949 94.8467 36.6934C96.0029 37.0918 97.1123 37.291 98.1748 37.291C98.4482 37.291 98.8076 37.2676 99.2529 37.2207C99.6982 37.1738 100.062 37.0957 100.343 36.9863C100.687 36.8457 100.968 36.6699 101.187 36.459C101.413 36.248 101.526 35.9355 101.526 35.5215C101.526 35.1387 101.362 34.8105 101.034 34.5371C100.714 34.2559 100.241 34.041 99.6162 33.8926C98.96 33.7363 98.2646 33.5918 97.5303 33.459C96.8037 33.3184 96.1201 33.1426 95.4795 32.9316C94.0107 32.4551 92.9521 31.8105 92.3037 30.998C91.6631 30.1777 91.3428 29.1621 91.3428 27.9512C91.3428 26.3262 92.0693 25.002 93.5225 23.9785C94.9834 22.9473 96.8584 22.4316 99.1475 22.4316C100.296 22.4316 101.429 22.5449 102.546 22.7715C103.671 22.9902 104.644 23.2676 105.464 23.6035V27.623H104.983C104.28 27.0605 103.417 26.5918 102.394 26.2168C101.378 25.834 100.339 25.6426 99.2764 25.6426C98.9014 25.6426 98.5264 25.6699 98.1514 25.7246C97.7842 25.7715 97.4287 25.8652 97.085 26.0059C96.7803 26.123 96.5186 26.3027 96.2998 26.5449C96.0811 26.7793 95.9717 27.0488 95.9717 27.3535C95.9717 27.8145 96.1475 28.1699 96.499 28.4199C96.8506 28.6621 97.5146 28.8848 98.4912 29.0879C99.1318 29.2207 99.7451 29.3496 100.331 29.4746C100.925 29.5996 101.562 29.7715 102.241 29.9902C103.577 30.4277 104.562 31.0254 105.194 31.7832C105.835 32.5332 106.155 33.5098 106.155 34.7129ZM117.429 40.0801C116.976 40.1973 116.495 40.2871 115.987 40.3496C115.479 40.4199 114.858 40.4551 114.124 40.4551C112.483 40.4551 111.261 40.123 110.456 39.459C109.659 38.7949 109.261 37.6582 109.261 36.0488V29.8965H107.526V27.0371H109.261V23.2754H113.479V27.0371H117.429V29.8965H113.479V34.5605C113.479 35.0215 113.483 35.4238 113.491 35.7676C113.499 36.1113 113.562 36.4199 113.679 36.6934C113.788 36.9668 113.979 37.1855 114.253 37.3496C114.534 37.5059 114.94 37.584 115.472 37.584C115.69 37.584 115.976 37.5371 116.327 37.4434C116.687 37.3496 116.937 37.2637 117.077 37.1855H117.429V40.0801ZM127.929 36.7637V34.0215C127.358 34.0684 126.741 34.1348 126.077 34.2207C125.413 34.2988 124.909 34.3926 124.565 34.502C124.144 34.6348 123.819 34.8301 123.593 35.0879C123.374 35.3379 123.265 35.6699 123.265 36.084C123.265 36.3574 123.288 36.5801 123.335 36.752C123.382 36.9238 123.499 37.0879 123.687 37.2441C123.866 37.4004 124.081 37.5176 124.331 37.5957C124.581 37.666 124.972 37.7012 125.503 37.7012C125.925 37.7012 126.351 37.6152 126.78 37.4434C127.218 37.2715 127.601 37.0449 127.929 36.7637ZM127.929 38.8027C127.702 38.9746 127.421 39.1816 127.085 39.4238C126.749 39.666 126.433 39.8574 126.136 39.998C125.722 40.1855 125.292 40.3223 124.847 40.4082C124.401 40.502 123.913 40.5488 123.382 40.5488C122.132 40.5488 121.085 40.1621 120.241 39.3887C119.397 38.6152 118.976 37.627 118.976 36.4238C118.976 35.4629 119.19 34.6777 119.62 34.0684C120.05 33.459 120.659 32.9785 121.448 32.627C122.229 32.2754 123.198 32.0254 124.354 31.877C125.511 31.7285 126.71 31.6191 127.952 31.5488V31.4785C127.952 30.752 127.655 30.252 127.062 29.9785C126.468 29.6973 125.593 29.5566 124.437 29.5566C123.741 29.5566 122.999 29.6816 122.21 29.9316C121.421 30.1738 120.854 30.3613 120.511 30.4941H120.124V27.3184C120.569 27.2012 121.292 27.0645 122.292 26.9082C123.3 26.7441 124.308 26.6621 125.315 26.6621C127.714 26.6621 129.444 27.0332 130.507 27.7754C131.577 28.5098 132.112 29.666 132.112 31.2441V40.1973H127.929V38.8027ZM145.53 31.0566H145.155C144.976 30.9941 144.687 30.9473 144.288 30.916C143.89 30.8848 143.558 30.8691 143.292 30.8691C142.69 30.8691 142.159 30.9082 141.698 30.9863C141.237 31.0645 140.741 31.1973 140.21 31.3848V40.1973H135.991V27.0371H140.21V28.9707C141.14 28.1738 141.948 27.6465 142.636 27.3887C143.323 27.123 143.956 26.9902 144.534 26.9902C144.683 26.9902 144.851 26.9941 145.038 27.002C145.226 27.0098 145.39 27.0215 145.53 27.0371V31.0566ZM156.335 40.0801C155.882 40.1973 155.401 40.2871 154.894 40.3496C154.386 40.4199 153.765 40.4551 153.03 40.4551C151.39 40.4551 150.167 40.123 149.362 39.459C148.565 38.7949 148.167 37.6582 148.167 36.0488V29.8965H146.433V27.0371H148.167V23.2754H152.386V27.0371H156.335V29.8965H152.386V34.5605C152.386 35.0215 152.39 35.4238 152.397 35.7676C152.405 36.1113 152.468 36.4199 152.585 36.6934C152.694 36.9668 152.886 37.1855 153.159 37.3496C153.44 37.5059 153.847 37.584 154.378 37.584C154.597 37.584 154.882 37.5371 155.233 37.4434C155.593 37.3496 155.843 37.2637 155.983 37.1855H156.335V40.0801Z" fill="url(#paint0_linear_1363_3688)"/>
<path d="M26.292 64.1973H25.1318V56.6797L22.7061 61.7949H22.0146L19.6064 56.6797V64.1973H18.5225V55.4727H20.1045L22.4307 60.3301L24.6807 55.4727H26.292V64.1973ZM33.1538 64.1973H32.0581V63.5C31.9604 63.5664 31.8276 63.6602 31.6596 63.7812C31.4956 63.8984 31.3354 63.9922 31.1792 64.0625C30.9956 64.1523 30.7846 64.2266 30.5464 64.2852C30.3081 64.3477 30.0288 64.3789 29.7085 64.3789C29.1186 64.3789 28.6186 64.1836 28.2085 63.793C27.7983 63.4023 27.5932 62.9043 27.5932 62.2988C27.5932 61.8027 27.6987 61.4023 27.9096 61.0977C28.1245 60.7891 28.4292 60.5469 28.8237 60.3711C29.2221 60.1953 29.7007 60.0762 30.2593 60.0137C30.8179 59.9512 31.4175 59.9043 32.0581 59.873V59.7031C32.0581 59.4531 32.0132 59.2461 31.9233 59.082C31.8374 58.918 31.7124 58.7891 31.5483 58.6953C31.3921 58.6055 31.2046 58.5449 30.9858 58.5137C30.7671 58.4824 30.5386 58.4668 30.3003 58.4668C30.0112 58.4668 29.6889 58.5059 29.3335 58.584C28.978 58.6582 28.6108 58.7676 28.2319 58.9121H28.1733V57.793C28.3882 57.7344 28.6987 57.6699 29.105 57.5996C29.5112 57.5293 29.9116 57.4941 30.3061 57.4941C30.7671 57.4941 31.1675 57.5332 31.5073 57.6113C31.8511 57.6855 32.1479 57.8145 32.3979 57.998C32.644 58.1777 32.8315 58.4102 32.9604 58.6953C33.0893 58.9805 33.1538 59.334 33.1538 59.7559V64.1973ZM32.0581 62.5859V60.7637C31.7221 60.7832 31.3257 60.8125 30.8686 60.8516C30.4155 60.8906 30.0561 60.9473 29.7905 61.0215C29.4741 61.1113 29.2182 61.252 29.0229 61.4434C28.8276 61.6309 28.73 61.8906 28.73 62.2227C28.73 62.5977 28.8432 62.8809 29.0698 63.0723C29.2964 63.2598 29.6421 63.3535 30.1069 63.3535C30.4936 63.3535 30.8471 63.2793 31.1675 63.1309C31.4878 62.9785 31.7846 62.7969 32.0581 62.5859ZM40.7363 64.1973H39.2832L36.6582 61.332L35.9433 62.0117V64.1973H34.8418V55.0801H35.9433V60.9277L39.125 57.6523H40.5136L37.4726 60.6758L40.7363 64.1973ZM46.7778 61.0391H41.9555C41.9555 61.4414 42.0161 61.793 42.1371 62.0938C42.2582 62.3906 42.4243 62.6348 42.6352 62.8262C42.8383 63.0137 43.0786 63.1543 43.3559 63.248C43.6371 63.3418 43.9457 63.3887 44.2817 63.3887C44.727 63.3887 45.1743 63.3008 45.6235 63.125C46.0766 62.9453 46.3989 62.7695 46.5903 62.5977H46.6489V63.7988C46.2778 63.9551 45.8989 64.0859 45.5121 64.1914C45.1254 64.2969 44.7192 64.3496 44.2934 64.3496C43.2075 64.3496 42.3598 64.0566 41.7504 63.4707C41.1411 62.8809 40.8364 62.0449 40.8364 60.9629C40.8364 59.8926 41.1274 59.043 41.7094 58.4141C42.2954 57.7852 43.0649 57.4707 44.018 57.4707C44.9008 57.4707 45.5805 57.7285 46.0571 58.2441C46.5375 58.7598 46.7778 59.4922 46.7778 60.4414V61.0391ZM45.7055 60.1953C45.7016 59.6172 45.5551 59.1699 45.2661 58.8535C44.9809 58.5371 44.5454 58.3789 43.9594 58.3789C43.3696 58.3789 42.8989 58.5527 42.5473 58.9004C42.1996 59.248 42.0024 59.6797 41.9555 60.1953H45.7055ZM56.7924 64.1973H55.6967V63.5C55.599 63.5664 55.4662 63.6602 55.2982 63.7812C55.1342 63.8984 54.974 63.9922 54.8178 64.0625C54.6342 64.1523 54.4232 64.2266 54.185 64.2852C53.9467 64.3477 53.6674 64.3789 53.3471 64.3789C52.7572 64.3789 52.2572 64.1836 51.8471 63.793C51.4369 63.4023 51.2318 62.9043 51.2318 62.2988C51.2318 61.8027 51.3373 61.4023 51.5482 61.0977C51.7631 60.7891 52.0678 60.5469 52.4623 60.3711C52.8607 60.1953 53.3393 60.0762 53.8979 60.0137C54.4564 59.9512 55.0561 59.9043 55.6967 59.873V59.7031C55.6967 59.4531 55.6518 59.2461 55.5619 59.082C55.476 58.918 55.351 58.7891 55.1869 58.6953C55.0307 58.6055 54.8432 58.5449 54.6244 58.5137C54.4057 58.4824 54.1771 58.4668 53.9389 58.4668C53.6498 58.4668 53.3275 58.5059 52.9721 58.584C52.6166 58.6582 52.2494 58.7676 51.8705 58.9121H51.8119V57.793C52.0268 57.7344 52.3373 57.6699 52.7436 57.5996C53.1498 57.5293 53.5502 57.4941 53.9447 57.4941C54.4057 57.4941 54.8061 57.5332 55.1459 57.6113C55.4896 57.6855 55.7865 57.8145 56.0365 57.998C56.2826 58.1777 56.4701 58.4102 56.599 58.6953C56.7279 58.9805 56.7924 59.334 56.7924 59.7559V64.1973ZM55.6967 62.5859V60.7637C55.3607 60.7832 54.9643 60.8125 54.5072 60.8516C54.0541 60.8906 53.6947 60.9473 53.4291 61.0215C53.1127 61.1113 52.8568 61.252 52.6615 61.4434C52.4662 61.6309 52.3686 61.8906 52.3686 62.2227C52.3686 62.5977 52.4818 62.8809 52.7084 63.0723C52.935 63.2598 53.2807 63.3535 53.7455 63.3535C54.1322 63.3535 54.4857 63.2793 54.8061 63.1309C55.1264 62.9785 55.4232 62.7969 55.6967 62.5859ZM67.4808 64.1973H66.3793V63.5117C66.0629 63.7852 65.7328 63.998 65.389 64.1504C65.0453 64.3027 64.6722 64.3789 64.2699 64.3789C63.4886 64.3789 62.8675 64.0781 62.4066 63.4766C61.9496 62.875 61.7211 62.041 61.7211 60.9746C61.7211 60.4199 61.7992 59.9258 61.9554 59.4922C62.1156 59.0586 62.3304 58.6895 62.6 58.3848C62.8656 58.0879 63.1742 57.8613 63.5257 57.7051C63.8812 57.5488 64.2484 57.4707 64.6273 57.4707C64.9711 57.4707 65.2757 57.5078 65.5414 57.582C65.807 57.6523 66.0863 57.7637 66.3793 57.916V55.0801H67.4808V64.1973ZM66.3793 62.5859V58.8301C66.0824 58.6973 65.8168 58.6055 65.5824 58.5547C65.348 58.5039 65.0921 58.4785 64.8148 58.4785C64.1976 58.4785 63.7171 58.6934 63.3734 59.123C63.0296 59.5527 62.8578 60.1621 62.8578 60.9512C62.8578 61.7285 62.9906 62.3203 63.2562 62.7266C63.5218 63.1289 63.9476 63.3301 64.5336 63.3301C64.8461 63.3301 65.1625 63.2617 65.4828 63.125C65.8031 62.9844 66.1019 62.8047 66.3793 62.5859ZM73.2528 58.8535H73.1942C73.0301 58.8145 72.87 58.7871 72.7137 58.7715C72.5614 58.752 72.3797 58.7422 72.1688 58.7422C71.8289 58.7422 71.5008 58.8184 71.1844 58.9707C70.868 59.1191 70.5633 59.3125 70.2704 59.5508V64.1973H69.1688V57.6523H70.2704V58.6191C70.7079 58.2676 71.0926 58.0195 71.4246 57.875C71.7606 57.7266 72.1024 57.6523 72.45 57.6523C72.6414 57.6523 72.7801 57.6582 72.8661 57.6699C72.952 57.6777 73.0809 57.6953 73.2528 57.7227V58.8535ZM78.6849 64.1973H77.5892V63.5C77.4915 63.5664 77.3587 63.6602 77.1907 63.7812C77.0267 63.8984 76.8665 63.9922 76.7103 64.0625C76.5267 64.1523 76.3157 64.2266 76.0775 64.2852C75.8392 64.3477 75.5599 64.3789 75.2396 64.3789C74.6497 64.3789 74.1497 64.1836 73.7396 63.793C73.3294 63.4023 73.1243 62.9043 73.1243 62.2988C73.1243 61.8027 73.2298 61.4023 73.4407 61.0977C73.6556 60.7891 73.9603 60.5469 74.3548 60.3711C74.7532 60.1953 75.2318 60.0762 75.7904 60.0137C76.3489 59.9512 76.9486 59.9043 77.5892 59.873V59.7031C77.5892 59.4531 77.5443 59.2461 77.4544 59.082C77.3685 58.918 77.2435 58.7891 77.0794 58.6953C76.9232 58.6055 76.7357 58.5449 76.5169 58.5137C76.2982 58.4824 76.0696 58.4668 75.8314 58.4668C75.5423 58.4668 75.22 58.5059 74.8646 58.584C74.5091 58.6582 74.1419 58.7676 73.763 58.9121H73.7044V57.793C73.9193 57.7344 74.2298 57.6699 74.6361 57.5996C75.0423 57.5293 75.4427 57.4941 75.8372 57.4941C76.2982 57.4941 76.6986 57.5332 77.0384 57.6113C77.3821 57.6855 77.679 57.8145 77.929 57.998C78.1751 58.1777 78.3626 58.4102 78.4915 58.6953C78.6204 58.9805 78.6849 59.334 78.6849 59.7559V64.1973ZM77.5892 62.5859V60.7637C77.2532 60.7832 76.8568 60.8125 76.3997 60.8516C75.9466 60.8906 75.5872 60.9473 75.3216 61.0215C75.0052 61.1113 74.7493 61.252 74.554 61.4434C74.3587 61.6309 74.2611 61.8906 74.2611 62.2227C74.2611 62.5977 74.3743 62.8809 74.6009 63.0723C74.8275 63.2598 75.1732 63.3535 75.638 63.3535C76.0247 63.3535 76.3782 63.2793 76.6986 63.1309C77.0189 62.9785 77.3157 62.7969 77.5892 62.5859ZM83.8475 56.1465H83.7889C83.6678 56.1113 83.5096 56.0762 83.3143 56.041C83.1189 56.002 82.9471 55.9824 82.7986 55.9824C82.326 55.9824 81.9822 56.0879 81.7674 56.2988C81.5564 56.5059 81.451 56.8828 81.451 57.4297V57.6523H83.4373V58.5781H81.4861V64.1973H80.3846V58.5781H79.6404V57.6523H80.3846V57.4355C80.3846 56.6582 80.5779 56.0625 80.9646 55.6484C81.3514 55.2305 81.91 55.0215 82.6404 55.0215C82.8865 55.0215 83.1072 55.0332 83.3025 55.0566C83.5018 55.0801 83.6834 55.1074 83.8475 55.1387V56.1465ZM87.4632 64.1387C87.2561 64.1934 87.0296 64.2383 86.7835 64.2734C86.5413 64.3086 86.3245 64.3262 86.1331 64.3262C85.4651 64.3262 84.9573 64.1465 84.6096 63.7871C84.262 63.4277 84.0882 62.8516 84.0882 62.0586V58.5781H83.344V57.6523H84.0882V55.7715H85.1897V57.6523H87.4632V58.5781H85.1897V61.5605C85.1897 61.9043 85.1975 62.1738 85.2132 62.3691C85.2288 62.5605 85.2835 62.7402 85.3772 62.9082C85.4632 63.0645 85.5804 63.1797 85.7288 63.2539C85.8811 63.3242 86.1116 63.3594 86.4202 63.3594C86.5999 63.3594 86.7874 63.334 86.9827 63.2832C87.178 63.2285 87.3186 63.1836 87.4046 63.1484H87.4632V64.1387ZM95.5793 56.1465H95.5207C95.3997 56.1113 95.2414 56.0762 95.0461 56.041C94.8508 56.002 94.6789 55.9824 94.5305 55.9824C94.0579 55.9824 93.7141 56.0879 93.4993 56.2988C93.2883 56.5059 93.1829 56.8828 93.1829 57.4297V57.6523H95.1692V58.5781H93.218V64.1973H92.1164V58.5781H91.3723V57.6523H92.1164V57.4355C92.1164 56.6582 92.3098 56.0625 92.6965 55.6484C93.0832 55.2305 93.6418 55.0215 94.3723 55.0215C94.6184 55.0215 94.8391 55.0332 95.0344 55.0566C95.2336 55.0801 95.4153 55.1074 95.5793 55.1387V56.1465ZM101.375 60.9277C101.375 61.9941 101.101 62.8359 100.554 63.4531C100.008 64.0703 99.2751 64.3789 98.3571 64.3789C97.4314 64.3789 96.695 64.0703 96.1482 63.4531C95.6052 62.8359 95.3337 61.9941 95.3337 60.9277C95.3337 59.8613 95.6052 59.0195 96.1482 58.4023C96.695 57.7812 97.4314 57.4707 98.3571 57.4707C99.2751 57.4707 100.008 57.7812 100.554 58.4023C101.101 59.0195 101.375 59.8613 101.375 60.9277ZM100.238 60.9277C100.238 60.0801 100.072 59.4512 99.74 59.041C99.4079 58.627 98.947 58.4199 98.3571 58.4199C97.7595 58.4199 97.2946 58.627 96.9626 59.041C96.6345 59.4512 96.4704 60.0801 96.4704 60.9277C96.4704 61.748 96.6364 62.3711 96.9685 62.7969C97.3005 63.2188 97.7634 63.4297 98.3571 63.4297C98.9431 63.4297 99.4021 63.2207 99.7341 62.8027C100.07 62.3809 100.238 61.7559 100.238 60.9277ZM106.69 58.8535H106.631C106.467 58.8145 106.307 58.7871 106.151 58.7715C105.998 58.752 105.817 58.7422 105.606 58.7422C105.266 58.7422 104.938 58.8184 104.621 58.9707C104.305 59.1191 104 59.3125 103.707 59.5508V64.1973H102.606V57.6523H103.707V58.6191C104.145 58.2676 104.529 58.0195 104.862 57.875C105.197 57.7266 105.539 57.6523 105.887 57.6523C106.078 57.6523 106.217 57.6582 106.303 57.6699C106.389 57.6777 106.518 57.6953 106.69 57.7227V58.8535ZM116.646 57.6523L112.825 66.6113H111.648L112.866 63.8809L110.259 57.6523H111.454L113.464 62.5039L115.491 57.6523H116.646ZM123.08 60.9277C123.08 61.9941 122.806 62.8359 122.259 63.4531C121.713 64.0703 120.98 64.3789 120.062 64.3789C119.136 64.3789 118.4 64.0703 117.853 63.4531C117.31 62.8359 117.039 61.9941 117.039 60.9277C117.039 59.8613 117.31 59.0195 117.853 58.4023C118.4 57.7812 119.136 57.4707 120.062 57.4707C120.98 57.4707 121.713 57.7812 122.259 58.4023C122.806 59.0195 123.08 59.8613 123.08 60.9277ZM121.943 60.9277C121.943 60.0801 121.777 59.4512 121.445 59.041C121.113 58.627 120.652 58.4199 120.062 58.4199C119.464 58.4199 119 58.627 118.668 59.041C118.339 59.4512 118.175 60.0801 118.175 60.9277C118.175 61.748 118.341 62.3711 118.673 62.7969C119.006 63.2188 119.468 63.4297 120.062 63.4297C120.648 63.4297 121.107 63.2207 121.439 62.8027C121.775 62.3809 121.943 61.7559 121.943 60.9277ZM129.736 64.1973H128.635V63.4707C128.264 63.7637 127.908 63.9883 127.568 64.1445C127.229 64.3008 126.854 64.3789 126.443 64.3789C125.756 64.3789 125.221 64.1699 124.838 63.752C124.455 63.3301 124.264 62.7129 124.264 61.9004V57.6523H125.365V61.3789C125.365 61.7109 125.381 61.9961 125.412 62.2344C125.443 62.4688 125.51 62.6699 125.611 62.8379C125.717 63.0098 125.854 63.1348 126.022 63.2129C126.19 63.291 126.434 63.3301 126.754 63.3301C127.039 63.3301 127.35 63.2559 127.686 63.1074C128.026 62.959 128.342 62.7695 128.635 62.5391V57.6523H129.736V64.1973ZM135.508 58.8535H135.45C135.286 58.8145 135.126 58.7871 134.969 58.7715C134.817 58.752 134.635 58.7422 134.424 58.7422C134.085 58.7422 133.756 58.8184 133.44 58.9707C133.124 59.1191 132.819 59.3125 132.526 59.5508V64.1973H131.424V57.6523H132.526V58.6191C132.963 58.2676 133.348 58.0195 133.68 57.875C134.016 57.7266 134.358 57.6523 134.706 57.6523C134.897 57.6523 135.036 57.6582 135.122 57.6699C135.208 57.6777 135.337 57.6953 135.508 57.7227V58.8535ZM146.472 61.5137C146.472 61.9473 146.39 62.3301 146.226 62.6621C146.062 62.9941 145.841 63.2676 145.564 63.4824C145.236 63.7402 144.875 63.9238 144.48 64.0332C144.089 64.1426 143.591 64.1973 142.986 64.1973H139.892V55.4727H142.476C143.113 55.4727 143.589 55.4961 143.906 55.543C144.222 55.5898 144.525 55.6875 144.814 55.8359C145.134 56.0039 145.367 56.2207 145.511 56.4863C145.656 56.748 145.728 57.0625 145.728 57.4297C145.728 57.8438 145.623 58.1973 145.412 58.4902C145.201 58.7793 144.919 59.0117 144.568 59.1875V59.2344C145.158 59.3555 145.623 59.6152 145.962 60.0137C146.302 60.4082 146.472 60.9082 146.472 61.5137ZM144.521 57.582C144.521 57.3711 144.486 57.1934 144.416 57.0488C144.345 56.9043 144.232 56.7871 144.076 56.6973C143.892 56.5918 143.669 56.5273 143.408 56.5039C143.146 56.4766 142.822 56.4629 142.435 56.4629H141.052V58.9824H142.552C142.916 58.9824 143.205 58.9648 143.419 58.9297C143.634 58.8906 143.834 58.8125 144.017 58.6953C144.201 58.5781 144.33 58.4277 144.404 58.2441C144.482 58.0566 144.521 57.8359 144.521 57.582ZM145.265 61.5605C145.265 61.209 145.212 60.9297 145.107 60.7227C145.002 60.5156 144.81 60.3398 144.533 60.1953C144.345 60.0977 144.117 60.0352 143.847 60.0078C143.582 59.9766 143.257 59.9609 142.875 59.9609H141.052V63.207H142.587C143.095 63.207 143.511 63.1816 143.836 63.1309C144.16 63.0762 144.425 62.9785 144.632 62.8379C144.851 62.6855 145.011 62.5117 145.113 62.3164C145.214 62.1211 145.265 61.8691 145.265 61.5605ZM152.977 64.1973H151.875V63.4707C151.504 63.7637 151.148 63.9883 150.809 64.1445C150.469 64.3008 150.094 64.3789 149.684 64.3789C148.996 64.3789 148.461 64.1699 148.078 63.752C147.695 63.3301 147.504 62.7129 147.504 61.9004V57.6523H148.606V61.3789C148.606 61.7109 148.621 61.9961 148.652 62.2344C148.684 62.4688 148.75 62.6699 148.852 62.8379C148.957 63.0098 149.094 63.1348 149.262 63.2129C149.43 63.291 149.674 63.3301 149.994 63.3301C150.279 63.3301 150.59 63.2559 150.926 63.1074C151.266 62.959 151.582 62.7695 151.875 62.5391V57.6523H152.977V64.1973ZM160.325 57.6523L156.504 66.6113H155.327L156.545 63.8809L153.938 57.6523H155.133L157.143 62.5039L159.17 57.6523H160.325ZM167.046 60.875C167.046 61.4219 166.968 61.9141 166.812 62.3516C166.659 62.7891 166.452 63.1562 166.19 63.4531C165.913 63.7617 165.608 63.9941 165.276 64.1504C164.944 64.3027 164.579 64.3789 164.181 64.3789C163.81 64.3789 163.485 64.334 163.208 64.2441C162.931 64.1582 162.657 64.041 162.388 63.8926L162.317 64.1973H161.286V55.0801H162.388V58.3379C162.696 58.084 163.024 57.877 163.372 57.7168C163.72 57.5527 164.11 57.4707 164.544 57.4707C165.317 57.4707 165.927 57.7676 166.372 58.3613C166.821 58.9551 167.046 59.793 167.046 60.875ZM165.909 60.9043C165.909 60.123 165.78 59.5312 165.522 59.1289C165.265 58.7227 164.849 58.5195 164.274 58.5195C163.954 58.5195 163.63 58.5898 163.302 58.7305C162.974 58.8672 162.669 59.0449 162.388 59.2637V63.0137C162.7 63.1543 162.968 63.252 163.19 63.3066C163.417 63.3613 163.673 63.3887 163.958 63.3887C164.567 63.3887 165.044 63.1895 165.388 62.791C165.735 62.3887 165.909 61.7598 165.909 60.9043ZM173.369 64.1973H172.273V63.5C172.175 63.5664 172.042 63.6602 171.874 63.7812C171.71 63.8984 171.55 63.9922 171.394 64.0625C171.21 64.1523 170.999 64.2266 170.761 64.2852C170.523 64.3477 170.244 64.3789 169.923 64.3789C169.333 64.3789 168.833 64.1836 168.423 63.793C168.013 63.4023 167.808 62.9043 167.808 62.2988C167.808 61.8027 167.914 61.4023 168.124 61.0977C168.339 60.7891 168.644 60.5469 169.039 60.3711C169.437 60.1953 169.916 60.0762 170.474 60.0137C171.033 59.9512 171.632 59.9043 172.273 59.873V59.7031C172.273 59.4531 172.228 59.2461 172.138 59.082C172.052 58.918 171.927 58.7891 171.763 58.6953C171.607 58.6055 171.419 58.5449 171.201 58.5137C170.982 58.4824 170.753 58.4668 170.515 58.4668C170.226 58.4668 169.904 58.5059 169.548 58.584C169.193 58.6582 168.826 58.7676 168.447 58.9121H168.388V57.793C168.603 57.7344 168.914 57.6699 169.32 57.5996C169.726 57.5293 170.126 57.4941 170.521 57.4941C170.982 57.4941 171.382 57.5332 171.722 57.6113C172.066 57.6855 172.363 57.8145 172.613 57.998C172.859 58.1777 173.046 58.4102 173.175 58.6953C173.304 58.9805 173.369 59.334 173.369 59.7559V64.1973ZM172.273 62.5859V60.7637C171.937 60.7832 171.541 60.8125 171.083 60.8516C170.63 60.8906 170.271 60.9473 170.005 61.0215C169.689 61.1113 169.433 61.252 169.238 61.4434C169.042 61.6309 168.945 61.8906 168.945 62.2227C168.945 62.5977 169.058 62.8809 169.285 63.0723C169.511 63.2598 169.857 63.3535 170.322 63.3535C170.708 63.3535 171.062 63.2793 171.382 63.1309C171.703 62.9785 171.999 62.7969 172.273 62.5859ZM179.85 63.7871C179.482 63.9629 179.133 64.0996 178.801 64.1973C178.473 64.2949 178.123 64.3438 177.752 64.3438C177.279 64.3438 176.846 64.2754 176.451 64.1387C176.057 63.998 175.719 63.7871 175.437 63.5059C175.152 63.2246 174.932 62.8691 174.775 62.4395C174.619 62.0098 174.541 61.5078 174.541 60.9336C174.541 59.8633 174.834 59.0234 175.42 58.4141C176.01 57.8047 176.787 57.5 177.752 57.5C178.127 57.5 178.494 57.5527 178.853 57.6582C179.217 57.7637 179.549 57.8926 179.85 58.0449V59.2695H179.791C179.455 59.0078 179.107 58.8066 178.748 58.666C178.393 58.5254 178.045 58.4551 177.705 58.4551C177.08 58.4551 176.586 58.666 176.223 59.0879C175.863 59.5059 175.684 60.1211 175.684 60.9336C175.684 61.7227 175.859 62.3301 176.211 62.7559C176.566 63.1777 177.064 63.3887 177.705 63.3887C177.928 63.3887 178.154 63.3594 178.385 63.3008C178.615 63.2422 178.822 63.166 179.006 63.0723C179.166 62.9902 179.316 62.9043 179.457 62.8145C179.598 62.7207 179.709 62.6406 179.791 62.5742H179.85V63.7871ZM186.729 64.1973H185.276L182.651 61.332L181.936 62.0117V64.1973H180.834V55.0801H181.936V60.9277L185.118 57.6523H186.506L183.465 60.6758L186.729 64.1973ZM196.234 64.1973H195.138V63.5C195.04 63.5664 194.908 63.6602 194.74 63.7812C194.576 63.8984 194.415 63.9922 194.259 64.0625C194.076 64.1523 193.865 64.2266 193.626 64.2852C193.388 64.3477 193.109 64.3789 192.788 64.3789C192.199 64.3789 191.699 64.1836 191.288 63.793C190.878 63.4023 190.673 62.9043 190.673 62.2988C190.673 61.8027 190.779 61.4023 190.99 61.0977C191.204 60.7891 191.509 60.5469 191.904 60.3711C192.302 60.1953 192.781 60.0762 193.339 60.0137C193.898 59.9512 194.497 59.9043 195.138 59.873V59.7031C195.138 59.4531 195.093 59.2461 195.003 59.082C194.917 58.918 194.792 58.7891 194.628 58.6953C194.472 58.6055 194.285 58.5449 194.066 58.5137C193.847 58.4824 193.619 58.4668 193.38 58.4668C193.091 58.4668 192.769 58.5059 192.413 58.584C192.058 58.6582 191.691 58.7676 191.312 58.9121H191.253V57.793C191.468 57.7344 191.779 57.6699 192.185 57.5996C192.591 57.5293 192.992 57.4941 193.386 57.4941C193.847 57.4941 194.247 57.5332 194.587 57.6113C194.931 57.6855 195.228 57.8145 195.478 57.998C195.724 58.1777 195.912 58.4102 196.04 58.6953C196.169 58.9805 196.234 59.334 196.234 59.7559V64.1973ZM195.138 62.5859V60.7637C194.802 60.7832 194.406 60.8125 193.949 60.8516C193.496 60.8906 193.136 60.9473 192.871 61.0215C192.554 61.1113 192.298 61.252 192.103 61.4434C191.908 61.6309 191.81 61.8906 191.81 62.2227C191.81 62.5977 191.923 62.8809 192.15 63.0723C192.376 63.2598 192.722 63.3535 193.187 63.3535C193.574 63.3535 193.927 63.2793 194.247 63.1309C194.568 62.9785 194.865 62.7969 195.138 62.5859ZM203.348 64.1973H202.246V60.4707C202.246 60.1699 202.228 59.8887 202.193 59.627C202.158 59.3613 202.094 59.1543 202 59.0059C201.902 58.8418 201.762 58.7207 201.578 58.6426C201.394 58.5605 201.156 58.5195 200.863 58.5195C200.562 58.5195 200.248 58.5938 199.92 58.7422C199.592 58.8906 199.277 59.0801 198.976 59.3105V64.1973H197.875V57.6523H198.976V58.3789C199.32 58.0938 199.676 57.8711 200.043 57.7109C200.41 57.5508 200.787 57.4707 201.174 57.4707C201.881 57.4707 202.42 57.6836 202.791 58.1094C203.162 58.5352 203.348 59.1484 203.348 59.9492V64.1973ZM210.297 64.1973H209.196V63.5117C208.879 63.7852 208.549 63.998 208.205 64.1504C207.862 64.3027 207.489 64.3789 207.086 64.3789C206.305 64.3789 205.684 64.0781 205.223 63.4766C204.766 62.875 204.537 62.041 204.537 60.9746C204.537 60.4199 204.616 59.9258 204.772 59.4922C204.932 59.0586 205.147 58.6895 205.416 58.3848C205.682 58.0879 205.991 57.8613 206.342 57.7051C206.698 57.5488 207.065 57.4707 207.444 57.4707C207.787 57.4707 208.092 57.5078 208.358 57.582C208.623 57.6523 208.903 57.7637 209.196 57.916V55.0801H210.297V64.1973ZM209.196 62.5859V58.8301C208.899 58.6973 208.633 58.6055 208.399 58.5547C208.164 58.5039 207.909 58.4785 207.631 58.4785C207.014 58.4785 206.534 58.6934 206.19 59.123C205.846 59.5527 205.674 60.1621 205.674 60.9512C205.674 61.7285 205.807 62.3203 206.073 62.7266C206.338 63.1289 206.764 63.3301 207.35 63.3301C207.662 63.3301 207.979 63.2617 208.299 63.125C208.619 62.9844 208.918 62.8047 209.196 62.5859ZM23.1104 79.3105C23.1104 79.9082 22.8623 80.3984 22.3662 80.7812C21.874 81.1641 21.2002 81.3555 20.3447 81.3555C19.8604 81.3555 19.415 81.2988 19.0088 81.1855C18.6064 81.0684 18.2686 80.9414 17.9951 80.8047V79.5684H18.0537C18.4014 79.8301 18.7881 80.0391 19.2139 80.1953C19.6396 80.3477 20.0479 80.4238 20.4385 80.4238C20.9229 80.4238 21.3018 80.3457 21.5752 80.1895C21.8486 80.0332 21.9854 79.7871 21.9854 79.4512C21.9854 79.1934 21.9111 78.998 21.7627 78.8652C21.6143 78.7324 21.3291 78.6191 20.9072 78.5254C20.751 78.4902 20.5459 78.4492 20.292 78.4023C20.042 78.3555 19.8135 78.3047 19.6064 78.25C19.0322 78.0977 18.624 77.875 18.3818 77.582C18.1436 77.2852 18.0244 76.9219 18.0244 76.4922C18.0244 76.2227 18.0791 75.9688 18.1885 75.7305C18.3018 75.4922 18.4717 75.2793 18.6982 75.0918C18.917 74.9082 19.1943 74.7637 19.5303 74.6582C19.8701 74.5488 20.249 74.4941 20.667 74.4941C21.0576 74.4941 21.4521 74.543 21.8506 74.6406C22.2529 74.7344 22.5869 74.8496 22.8525 74.9863V76.1641H22.7939C22.5127 75.957 22.1709 75.7832 21.7686 75.6426C21.3662 75.498 20.9717 75.4258 20.585 75.4258C20.1826 75.4258 19.8428 75.5039 19.5654 75.6602C19.2881 75.8125 19.1494 76.041 19.1494 76.3457C19.1494 76.6152 19.2334 76.8184 19.4014 76.9551C19.5654 77.0918 19.8311 77.2031 20.1982 77.2891C20.4014 77.3359 20.6279 77.3828 20.8779 77.4297C21.1318 77.4766 21.3428 77.5195 21.5107 77.5586C22.0225 77.6758 22.417 77.877 22.6943 78.1621C22.9717 78.4512 23.1104 78.834 23.1104 79.3105ZM29.6382 81.1973H28.5366V80.4707C28.1655 80.7637 27.81 80.9883 27.4702 81.1445C27.1304 81.3008 26.7554 81.3789 26.3452 81.3789C25.6577 81.3789 25.1225 81.1699 24.7397 80.752C24.3569 80.3301 24.1655 79.7129 24.1655 78.9004V74.6523H25.2671V78.3789C25.2671 78.7109 25.2827 78.9961 25.3139 79.2344C25.3452 79.4688 25.4116 79.6699 25.5132 79.8379C25.6186 80.0098 25.7554 80.1348 25.9233 80.2129C26.0913 80.291 26.3354 80.3301 26.6557 80.3301C26.9409 80.3301 27.2514 80.2559 27.5874 80.1074C27.9272 79.959 28.2436 79.7695 28.5366 79.5391V74.6523H29.6382V81.1973ZM37.0859 77.875C37.0859 78.4219 37.0078 78.9141 36.8515 79.3516C36.6992 79.7891 36.4921 80.1562 36.2304 80.4531C35.9531 80.7617 35.6484 80.9941 35.3164 81.1504C34.9843 81.3027 34.6191 81.3789 34.2207 81.3789C33.8496 81.3789 33.5254 81.334 33.248 81.2441C32.9707 81.1582 32.6972 81.041 32.4277 80.8926L32.3574 81.1973H31.3261V72.0801H32.4277V75.3379C32.7363 75.084 33.0644 74.877 33.4121 74.7168C33.7597 74.5527 34.1504 74.4707 34.5839 74.4707C35.3574 74.4707 35.9668 74.7676 36.4121 75.3613C36.8613 75.9551 37.0859 76.793 37.0859 77.875ZM35.9492 77.9043C35.9492 77.123 35.8203 76.5312 35.5625 76.1289C35.3046 75.7227 34.8886 75.5195 34.3144 75.5195C33.9941 75.5195 33.6699 75.5898 33.3418 75.7305C33.0136 75.8672 32.7089 76.0449 32.4277 76.2637V80.0137C32.7402 80.1543 33.0078 80.252 33.2304 80.3066C33.457 80.3613 33.7129 80.3887 33.998 80.3887C34.6074 80.3887 35.0839 80.1895 35.4277 79.791C35.7754 79.3887 35.9492 78.7598 35.9492 77.9043ZM47.8735 81.1973H46.7719V77.4707C46.7719 77.1895 46.7582 76.918 46.7309 76.6562C46.7075 76.3945 46.6547 76.1855 46.5727 76.0293C46.4829 75.8613 46.3539 75.7344 46.186 75.6484C46.018 75.5625 45.7758 75.5195 45.4594 75.5195C45.1508 75.5195 44.8422 75.5977 44.5336 75.7539C44.225 75.9062 43.9164 76.1016 43.6079 76.3398C43.6196 76.4297 43.6293 76.5352 43.6371 76.6562C43.645 76.7734 43.6489 76.8906 43.6489 77.0078V81.1973H42.5473V77.4707C42.5473 77.1816 42.5336 76.9082 42.5063 76.6504C42.4829 76.3887 42.4301 76.1797 42.3481 76.0234C42.2582 75.8555 42.1293 75.7305 41.9614 75.6484C41.7934 75.5625 41.5512 75.5195 41.2348 75.5195C40.934 75.5195 40.6313 75.5938 40.3266 75.7422C40.0258 75.8906 39.725 76.0801 39.4243 76.3105V81.1973H38.3227V74.6523H39.4243V75.3789C39.768 75.0938 40.1098 74.8711 40.4496 74.7109C40.7934 74.5508 41.1586 74.4707 41.5454 74.4707C41.9907 74.4707 42.3676 74.5645 42.6762 74.752C42.9887 74.9395 43.2211 75.1992 43.3735 75.5312C43.8188 75.1562 44.225 74.8867 44.5922 74.7227C44.9594 74.5547 45.352 74.4707 45.77 74.4707C46.4887 74.4707 47.018 74.6895 47.3579 75.127C47.7016 75.5605 47.8735 76.168 47.8735 76.9492V81.1973ZM50.6982 73.5566H49.456V72.4141H50.6982V73.5566ZM50.6279 81.1973H49.5263V74.6523H50.6279V81.1973ZM55.726 81.1387C55.5189 81.1934 55.2924 81.2383 55.0463 81.2734C54.8041 81.3086 54.5873 81.3262 54.3959 81.3262C53.7279 81.3262 53.2201 81.1465 52.8725 80.7871C52.5248 80.4277 52.351 79.8516 52.351 79.0586V75.5781H51.6068V74.6523H52.351V72.7715H53.4525V74.6523H55.726V75.5781H53.4525V78.5605C53.4525 78.9043 53.4604 79.1738 53.476 79.3691C53.4916 79.5605 53.5463 79.7402 53.64 79.9082C53.726 80.0645 53.8432 80.1797 53.9916 80.2539C54.1439 80.3242 54.3744 80.3594 54.683 80.3594C54.8627 80.3594 55.0502 80.334 55.2455 80.2832C55.4408 80.2285 55.5814 80.1836 55.6674 80.1484H55.726V81.1387Z" fill="#384F69"/>
<path d="M350.136 65.8255C349.732 65.7308 349.312 65.7265 348.906 65.8128C348.5 65.8992 348.119 66.0742 347.789 66.3252C348.453 64.4982 346.554 63.7081 345.988 62.63C345.871 62.34 345.788 62.0381 345.738 61.7296C350.007 61.3042 347.415 53.6586 344.44 52.143C343.928 51.8915 343.393 51.6905 342.842 51.5428C337.849 45.7505 327.513 44.502 320.571 48.297C317.925 49.7451 313.781 54.3887 314.33 59.3827C310.474 63.2452 312.988 72.6862 316.626 70.8675C316.379 71.8508 316.379 72.8802 316.626 73.8635C314.135 77.1513 315.367 77.5992 317.326 79.5057C316.826 81.3064 317.407 84.6618 318.505 85.8607C320.894 82.5759 336.94 74.6295 349.394 74.6123C352.964 72.5249 352.915 66.7499 350.136 65.8255Z" fill="white"/>
<path d="M347.884 66.0717C347.702 66.2533 347.71 66.197 347.834 66.3208C350.017 64.4736 352.636 66.7095 352.228 69.9666C352.847 70.0693 354.455 68.9972 354.126 67.919C353.988 67.4688 353.37 67.2692 353.427 66.7703C353.517 65.9705 354.339 65.3154 353.877 64.4736C353.489 63.7683 351.972 63.7278 351.729 63.0758C351.471 62.3795 353.034 61.5752 352.579 60.8782C352.077 60.1129 348.898 60.3079 347.985 60.0791C347.785 61.1783 346.934 61.5272 345.937 61.627C346.662 64.5209 348.859 65.1009 347.884 66.0717Z" fill="#7BD2FF"/>
<path d="M356.476 81.9518C356.476 78.2228 354.58 75.9246 352.332 75.1608C343.928 72.3097 322.095 81.2975 318.576 85.6972C315.586 89.4352 317.212 94.7759 319.327 95.8338C319.327 96.0161 322.786 94.3384 327.566 95.3341C328.766 91.7222 335.882 88.6024 339.4 87.1948C339.603 87.1948 350.608 81.9518 356.476 81.9518Z" fill="#7BD2FF"/>
<path d="M349.535 74.6832C349.452 74.6833 349.372 74.6562 349.307 74.606C349.241 74.5559 349.194 74.4856 349.173 74.406C349.151 74.3264 349.156 74.2419 349.188 74.1656C349.219 74.0893 349.275 74.0255 349.346 73.984C354.443 71.024 350.816 62.2043 347 67.9245C346.973 67.9658 346.938 68.0013 346.897 68.0287C346.856 68.0562 346.81 68.0751 346.762 68.0844C346.713 68.0942 346.664 68.0943 346.615 68.0848C346.567 68.0753 346.521 68.0563 346.48 68.0288C346.014 67.7175 346.618 67.2448 347.005 66.5447C347.091 66.4217 347.198 66.3152 347.322 66.2296C349.981 64.0072 352.606 65.898 352.606 69.9639C352.453 72.725 350.103 74.6832 349.535 74.6832Z" fill="#414141"/>
<path d="M347.486 71.9398C347.408 71.938 347.333 71.9143 347.268 71.8716C347.204 71.8289 347.152 71.7688 347.12 71.6982C346.715 70.7228 350.359 68.5079 350.505 69.6724C350.591 70.3649 349.525 69.8082 348.351 70.9824C347.694 71.6734 347.86 71.9398 347.486 71.9398Z" fill="#414141"/>
<path d="M318.538 86.1096C318.424 86.0962 318.319 86.0392 318.247 85.9505C316.649 84.2076 316.405 78.7807 317.525 79.0936C317.573 79.1066 317.617 79.1288 317.656 79.1591C317.695 79.1894 317.728 79.2271 317.752 79.2699C317.776 79.3128 317.792 79.3601 317.798 79.409C317.804 79.4579 317.8 79.5075 317.787 79.555C317.3 81.3047 317.831 84.3862 318.8 85.4433C318.852 85.4977 318.888 85.566 318.903 85.6399C318.917 85.7139 318.91 85.7906 318.883 85.8607C318.855 85.9309 318.808 85.9916 318.747 86.0358C318.685 86.0799 318.613 86.1055 318.538 86.1096Z" fill="#414141"/>
<path d="M344.757 51.8542C344.29 51.6232 343.803 51.4341 343.303 51.2892C337.636 44.9274 327.333 44.1216 320.494 47.8656C317.987 49.2371 313.565 53.9363 314.041 59.1561C310.496 63.2505 312.315 71.386 315.871 71.386C316.34 71.386 316.2 71.2164 316.204 71.8362C315.967 74.9221 317.22 74.2806 317.093 73.7284C316.913 72.8599 316.89 71.9662 317.025 71.0896C319.762 69.7586 324.701 64.7248 337.208 62.798C339.979 62.4156 342.772 62.2223 345.569 62.2196C345.693 62.6975 346.685 64.5507 347.138 64.5507C347.208 64.5509 347.278 64.531 347.338 64.4933C347.398 64.4556 347.446 64.4016 347.476 64.3377C347.507 64.274 347.519 64.2028 347.511 64.1325C347.503 64.0622 347.475 63.9957 347.43 63.9408C346.981 63.4048 346.618 62.8014 346.357 62.1528C346.852 62.1058 347.317 61.8963 347.681 61.557C348.044 61.2177 348.286 60.7677 348.367 60.277C348.82 58.9385 348.24 53.6601 344.757 51.8542ZM320.852 48.5236C327.454 44.9124 337.049 46.0881 342.006 50.9898C333.753 49.6603 320.692 53.0419 314.754 58.4403C314.706 53.829 318.6 49.7556 320.852 48.5236ZM316.558 70.4766C313.401 72.0522 311.116 63.1357 314.694 59.5425C315.561 58.6726 316.521 57.9006 317.557 57.2406C317.355 58.3238 317.252 59.4234 317.249 60.5254C317.249 62.9121 317.637 66.2337 319.458 68.6421C318.564 69.3614 317.591 69.9768 316.558 70.4766ZM320.108 68.258C317.518 64.9139 317.691 58.0539 318.544 56.6764C320.536 55.4772 322.652 54.4962 324.855 53.7502C325.212 56.2014 326.948 61.7784 327.762 64.4472C325.07 65.4141 322.501 66.6941 320.108 68.261V68.258ZM328.468 64.1921C327.663 61.5586 325.984 56.2314 325.579 53.5153C327.745 52.8268 329.962 52.3093 332.209 51.9675C334.436 54.9755 335.963 58.4434 336.678 62.1175C333.881 62.5447 331.132 63.2404 328.468 64.1951V64.1921ZM343.932 61.4993C337.36 61.6441 337.419 62.2841 337.372 61.8804C337.066 59.2304 335.05 54.5733 333.056 51.8452C335.563 51.5282 338.094 51.4403 340.617 51.5826C342.757 53.5221 344.968 59.1441 345.317 61.3822C345.332 61.503 345.591 61.5023 343.932 61.5023V61.4993ZM347.654 60.0317C347.466 60.5884 347.488 61.2562 346.046 61.4363C346.235 60.836 344.256 54.6836 341.769 51.7101C342.688 51.8452 343.58 52.1175 344.417 52.5197C346.983 53.8545 347.899 57.3299 347.654 60.0347V60.0317Z" fill="#414141"/>
<path d="M323.819 95.1092C322.664 95.1092 320.355 87.7788 320.547 83.9793C320.553 83.88 320.598 83.787 320.671 83.7203C320.745 83.6536 320.842 83.6186 320.941 83.6229C320.991 83.6253 321.039 83.6374 321.084 83.6585C321.128 83.6796 321.168 83.7093 321.201 83.7459C321.234 83.7825 321.26 83.8253 321.277 83.8718C321.293 83.9182 321.3 83.9675 321.298 84.0168C321.157 86.7929 322.547 92.592 324.11 94.4955C324.156 94.5503 324.185 94.617 324.193 94.6878C324.202 94.7586 324.19 94.8304 324.159 94.8947C324.129 94.9591 324.081 95.0135 324.02 95.0515C323.96 95.0895 323.89 95.1095 323.819 95.1092Z" fill="#414141"/>
<path d="M331.471 90.4054C330.564 88.5544 328.367 83.8778 327.548 80.4399C327.535 80.3692 327.543 80.2963 327.57 80.2297C327.597 80.1631 327.643 80.1057 327.701 80.0642C327.76 80.0227 327.829 79.9989 327.901 79.9955C327.973 79.9922 328.044 80.0094 328.106 80.0453C328.19 80.0942 328.251 80.1735 328.278 80.2666C329.079 83.631 331.249 88.2468 332.145 90.0753C332.177 90.1419 332.189 90.2166 332.179 90.29C332.169 90.3633 332.137 90.4321 332.088 90.4876C332.039 90.5432 331.975 90.583 331.903 90.6021C331.832 90.6213 331.756 90.6189 331.686 90.5952C331.592 90.563 331.515 90.4947 331.471 90.4054Z" fill="#414141"/>
<path d="M338.926 87.1497C338.597 84.8988 337.036 79.7607 335.635 77.5601C335.595 77.4978 335.574 77.4246 335.575 77.3501C335.577 77.2757 335.601 77.2035 335.644 77.1429C335.702 77.0622 335.789 77.007 335.887 76.9891C335.96 76.9762 336.035 76.9853 336.103 77.0152C336.171 77.0451 336.229 77.0945 336.268 77.1572C337.742 79.4734 339.322 84.6692 339.668 87.0416C339.678 87.1383 339.651 87.2351 339.591 87.3119C339.532 87.3888 339.445 87.4398 339.349 87.4543C339.253 87.4689 339.155 87.4452 339.076 87.3883C338.996 87.3313 338.943 87.2457 338.926 87.1497Z" fill="#414141"/>
<path d="M348.286 83.8225C348.232 83.823 348.178 83.8119 348.129 83.7897C348.079 83.7675 348.035 83.7349 348 83.694C347.964 83.6531 347.938 83.605 347.922 83.553C347.907 83.5009 347.903 83.4462 347.911 83.3925C348.436 79.8249 346.266 75.0642 346.243 75.0154C346.202 74.925 346.198 74.8221 346.233 74.7289C346.267 74.6357 346.337 74.5599 346.427 74.518C346.518 74.4766 346.621 74.4727 346.714 74.5072C346.807 74.5416 346.883 74.6116 346.925 74.7018C348.53 78.1772 349.412 83.8225 348.286 83.8225Z" fill="#414141"/>
<path d="M373.927 114.74C373.214 100.174 371.206 81.5767 356.425 81.5767C350.524 81.5767 337.031 87.429 331.915 90.3679C330.457 91.236 327.188 93.604 327.238 94.9485C307.23 91.2788 296.54 124.906 313.384 132.442C313.944 141.296 317.96 142.046 327.031 142.114C359.946 142.346 360.459 142.982 364.423 142.343C367.419 141.87 368.381 139.308 368.979 136.592C369.519 133.016 369.568 133.927 369.556 133.004C373.329 128.236 374.295 120.784 373.927 114.74Z" fill="#414141"/>
<path d="M348.296 65.1222C348.137 64.5407 347.702 63.9473 347.136 63.9473C340.89 63.9473 311.7 70.8943 314.855 77.8953C316.746 81.1089 323.033 81.5718 326.545 75.084C329.272 69.9362 326.554 71.9507 330.811 73.8557C334.273 75.4051 339.783 73.5556 341.98 70.9558C342.79 69.9954 343.296 68.7049 344.231 67.9051C345.27 67.031 348.934 67.4429 348.296 65.1222Z" fill="#414141"/>
<path d="M343.368 117.991C343.359 117.891 343.389 117.792 343.453 117.715C343.517 117.638 343.609 117.59 343.708 117.581C343.808 117.571 343.907 117.602 343.984 117.666C344.06 117.73 344.109 117.821 344.118 117.921C345.705 135.077 357.281 140.726 365.52 135.663C366.742 134.876 367.845 133.919 368.796 132.82C368.867 132.749 368.962 132.71 369.062 132.71C369.161 132.711 369.257 132.75 369.327 132.821C369.397 132.891 369.437 132.987 369.436 133.086C369.436 133.186 369.396 133.281 369.326 133.352C368.342 134.499 367.192 135.493 365.914 136.3C357.005 141.772 344.991 135.525 343.368 117.991Z" fill="white"/>
<path d="M313.731 132.311C313.236 132.311 313.307 131.786 313.307 129.739C313.035 119.426 315.737 110.157 321.121 102.954C321.181 102.874 321.27 102.822 321.368 102.808C321.467 102.794 321.567 102.819 321.646 102.879C321.726 102.939 321.778 103.027 321.792 103.126C321.806 103.224 321.781 103.324 321.721 103.404C311.148 117.559 315.14 132.311 313.731 132.311Z" fill="white"/>
<path d="M365.462 122.874C364.954 122.874 360.741 120.515 359.446 118.297C359.403 118.212 359.394 118.113 359.421 118.022C359.449 117.93 359.51 117.852 359.593 117.804C359.676 117.756 359.774 117.742 359.867 117.764C359.96 117.786 360.041 117.842 360.094 117.922C361.051 119.563 363.962 121.47 365.608 122.16C365.664 122.187 365.713 122.228 365.75 122.278C365.787 122.329 365.811 122.388 365.819 122.45C365.827 122.512 365.82 122.576 365.798 122.634C365.775 122.693 365.739 122.745 365.691 122.786C365.627 122.84 365.546 122.871 365.462 122.874Z" fill="white"/>
<path d="M329.26 106.894C329.192 106.894 329.125 106.876 329.066 106.84C329.008 106.805 328.96 106.755 328.928 106.695C326.896 102.863 325.984 98.9297 327.353 94.8158C327.385 94.723 327.453 94.6465 327.541 94.603C327.63 94.5594 327.732 94.552 327.825 94.5825C327.919 94.6142 327.996 94.681 328.04 94.7688C328.085 94.8565 328.094 94.9581 328.065 95.0522C325.685 102.234 330.932 106.894 329.26 106.894Z" fill="white"/>
<path d="M329.459 69.6181H330.708V68.3696H331.956V69.6181H333.205V70.8666H331.956V69.6181H330.708V70.8666H329.459V69.6181Z" fill="white"/>
<path d="M315.68 75.8613H316.927V74.6128H318.176V75.8613H319.424V77.1098H318.176V75.8613H316.927V77.1098H315.68V75.8613Z" fill="white"/>
<path d="M338.548 105.815C338.913 108.193 341.167 110.659 341.444 110.659C341.605 109.452 341.987 106.411 342.019 106.157C341.135 105.075 338.162 103.073 338.548 105.815Z" fill="white"/>
<path d="M355.974 91.0883L346.736 89.6905C346.087 89.5984 345.427 89.768 344.903 90.162C344.379 90.5559 344.032 91.142 343.94 91.7914C342.999 98.4863 341.27 112.04 340.894 114.861C340.849 115.179 340.868 115.504 340.949 115.815C341.031 116.127 341.173 116.419 341.369 116.674C341.565 116.93 341.81 117.144 342.089 117.304C342.368 117.464 342.676 117.567 342.995 117.608C346.29 118.107 351.783 118.906 352.133 118.958C352.366 117.677 353.703 116.844 354.965 116.292C356.184 107.637 357.065 101.469 358.075 93.8419C358.121 93.5226 358.102 93.1975 358.021 92.8854C357.94 92.5733 357.797 92.2805 357.602 92.024C357.406 91.7678 357.161 91.5531 356.882 91.3925C356.602 91.2318 356.294 91.1285 355.974 91.0883Z" fill="#7BD2FF"/>
<path d="M354.177 93.6371C354.823 93.7363 355.405 94.0845 355.798 94.6071C356.19 95.1297 356.363 95.7853 356.278 96.4335C355.929 99.4302 355.28 104.224 355.28 104.224C353.371 118.317 354.979 116.672 344.694 115.159C344.054 115.066 343.476 114.727 343.084 114.214C342.691 113.7 342.515 113.054 342.593 112.413C342.743 111.314 344.74 96.0846 344.94 94.8353C344.976 94.5083 345.078 94.1919 345.24 93.9053C345.401 93.6187 345.619 93.3677 345.881 93.1674C346.142 92.9672 346.44 92.8216 346.759 92.7392C347.077 92.6569 347.409 92.6394 347.735 92.688C348.935 92.8883 353.479 93.5373 354.177 93.6371Z" fill="white"/>
<path d="M349.178 91.9095C349.08 91.8942 348.992 91.8412 348.932 91.7617C348.888 91.7019 348.863 91.6306 348.859 91.5566C348.856 91.4825 348.874 91.4091 348.912 91.3453C348.95 91.2819 349.007 91.2313 349.074 91.1996C349.141 91.168 349.216 91.1568 349.289 91.1675C353.516 91.8 353.674 91.6972 353.6 92.1932C353.525 92.6891 353.369 92.536 349.178 91.9095Z" fill="#414141"/>
<path d="M351.231 104.519L351.83 104.569L351.879 104.02L351.28 103.971L351.231 104.519Z" fill="#414141"/>
<path d="M347.884 104.769H347.286V105.467H347.884V104.769Z" fill="#414141"/>
<path d="M346.736 104.769H346.137V105.467H346.736V104.769Z" fill="#414141"/>
<path d="M347.288 105.468H346.689V106.167H347.288V105.468Z" fill="#414141"/>
<path d="M338.786 104.093C339.86 103.629 341.677 105.102 342.187 105.74C342.246 105.818 342.272 105.916 342.26 106.013C342.248 106.11 342.198 106.198 342.122 106.259C342.045 106.32 341.948 106.349 341.851 106.339C341.754 106.33 341.664 106.283 341.601 106.208C341.001 105.453 339.566 104.572 339.084 104.782C338.904 104.857 338.843 105.232 338.92 105.77C339.433 109.107 342.275 110.293 341.605 110.938C340.643 111.866 336.579 105.047 338.786 104.093Z" fill="#414141"/>
<path d="M355.466 108.3C355.466 108.3 352.34 108.406 351.995 107.161C351.651 105.915 354.505 104.225 356.774 103.772C364.61 102.208 364.719 105.41 359.55 107.32C359.55 107.32 362.483 107.914 362.62 108.915C362.756 109.917 359.099 111.506 359.099 111.506C359.099 111.506 361.325 111.479 361.617 112.671C361.908 113.864 359.02 115.268 359.02 115.268C359.02 115.268 360.265 115.401 360.583 116.275C360.902 117.149 358.888 118.209 357.218 118.901C352.287 120.937 349.724 119.133 355.469 115.96C351.395 116.651 350.235 114.459 355.655 112.304C351.091 112.373 350.45 110.147 355.466 108.3Z" fill="white"/>
<path d="M360.339 107.361C361.737 106.776 363.603 105.868 363.436 104.372C362.957 100.695 349.26 104.772 351.832 107.648C352.296 108.344 353.318 108.499 354.183 108.532C349.901 110.115 351.245 112.541 354.62 112.544C350.313 114.306 350.891 116.313 353.902 116.313C354.481 116.313 351.754 117.202 351.754 118.951C351.754 121.284 356.984 119.578 359.138 118.537C360.482 117.862 361.584 117.187 360.851 115.781C360.739 115.567 360.088 115.292 359.859 115.213C360.962 114.688 362.374 113.792 362.11 112.601C361.936 111.801 360.856 111.329 360.098 111.337C361.509 110.703 362.747 110.029 362.933 108.979C363.027 108.46 362.319 107.439 360.339 107.361ZM352.447 107.218C351.87 106.289 354.513 104.967 355.477 104.613C356.903 103.979 362.498 102.97 362.692 104.463C362.942 106.702 353.47 108.853 352.448 107.218H352.447ZM358.807 117.864C357.418 118.535 354.045 119.778 352.668 119.201C352.231 119.027 352.771 118.166 353.173 117.837C356.842 114.826 363.34 115.598 358.808 117.864H358.807ZM361.38 112.762C361.963 115.433 348.601 116.836 353.264 114.034C355.208 112.924 361.008 111.067 361.38 112.761L361.38 112.762ZM360.97 110.041C353.954 114.038 346.074 110.073 359.569 108.138C360.373 108.023 361.895 108.169 362.178 108.93C362.047 109.428 361.546 109.713 360.971 110.04L360.97 110.041Z" fill="#414141"/>
<path d="M327.214 113.811C327.276 116.916 331.765 116.559 331.708 113.71C331.652 110.909 327.152 110.675 327.214 113.811Z" fill="white"/>
<path d="M325.465 125.442C325.527 128.547 330.016 128.19 329.959 125.342C329.902 122.453 325.403 122.342 325.465 125.442Z" fill="white"/>
<path d="M324.368 136.377C324.43 139.483 328.975 139.124 328.861 136.278C328.744 133.317 324.307 133.351 324.368 136.377Z" fill="white"/>
<path d="M276.181 86.8388V86.3886C281.334 86.3886 285.971 84.332 287.666 79.248C288.006 79.248 288.041 74.5076 288.165 73.5059C288.664 69.4318 290.482 65.3524 288.065 59.6742C287.796 58.9494 287.408 58.2745 286.917 57.6769C284.306 56.5716 281.512 55.961 278.678 55.8761C271.25 55.5137 268.792 57.7909 268.242 57.424V57.4743C266.844 60.5197 266.111 64.1992 264.996 66.5619C263.598 69.5248 262.237 69.852 261.8 70.507C257.042 67.3347 253.741 72.9665 255.808 76.249C256.799 77.8247 259.054 79.4453 260.552 79.245C260.502 79.245 260.352 84.0386 260.102 87.4345C255.833 87.4345 247.051 91.7742 242.625 97.0721C257.083 92.4818 273.47 106.244 273.087 121.539C273.012 124.64 271.587 125.932 271.587 126.882C266.693 126.782 262.848 123.537 262.349 123.986C261.994 124.342 261.691 124.746 261.449 125.187C260.836 124.578 260.269 123.926 259.751 123.236C259.893 123.093 259.3 123.36 264.744 121.139L263.146 117.594L257.004 119.99C255.689 118.414 255.328 118.243 255.406 118.243L258.053 108.156L256.505 104.86L250.965 107.161L249.314 104.415L246.07 105.864L247.467 108.61L242.175 110.908L243.976 114.203C246.637 113.071 244.922 113.769 252.414 110.807C251.379 114.952 251.443 114.719 251.364 114.952C249.997 114.298 246.989 113.635 246.071 114.553C245.201 115.326 249.246 115.603 251.713 117.398C252.177 117.726 252.597 118.112 252.962 118.547C252.921 118.588 251.546 117.735 251.214 117.549C248.388 115.963 245.027 115.968 244.473 116.798C243.813 117.678 248.245 117.425 251.064 120.244C250.524 120.424 248.638 118.346 244.772 118.346C244.322 118.346 243.324 118.346 243.025 118.796C242.393 119.744 247.432 120.307 249.667 122.541C249.616 122.591 249.317 122.391 249.317 122.391C248.083 121.686 245.758 120.665 244.123 120.693C243.673 120.701 242.773 120.793 242.473 121.242C241.647 122.482 246.755 123.014 248.665 124.538C250.953 126.365 248.931 129.415 257.403 132.178L257.853 132.278C257.287 133.628 256.653 135.112 256.653 136.172C256.791 137.148 267.539 141.782 271.884 142.464C303.909 147.496 311.64 100.55 276.181 86.8388Z" fill="white"/>
<path d="M252.313 96.6276C237.577 93.6834 228.129 107.139 231.79 120.995C235.176 133.805 249.102 141.361 259.604 138.272L259.704 138.022C257.903 137.174 256.607 136.372 256.558 136.075C256.727 134.717 257.134 133.399 257.758 132.181L257.308 132.081C248.734 129.281 250.904 126.262 248.569 124.44C246.645 122.94 241.541 122.346 242.378 121.145C242.686 120.702 243.578 120.645 244.028 120.596C245.717 120.54 247.755 121.456 249.222 122.293C249.271 122.293 249.522 122.493 249.572 122.443C247.441 120.313 242.269 119.563 242.93 118.698C243.742 117.636 247.787 118.605 249.471 119.449C249.721 119.548 250.671 120.248 250.972 120.148C249.359 118.731 247.391 117.782 245.279 117.401C242.313 116.759 246.833 114.492 252.47 118.25C252.592 118.351 252.725 118.435 252.869 118.5C249.437 115.068 245.007 115.476 245.978 114.505C246.949 113.534 249.943 114.269 251.271 114.905C251.483 114.763 251.278 115.379 252.42 110.81C244.827 113.929 246.636 113.177 243.981 114.305L242.18 111.01L247.473 108.713L246.07 105.962L249.316 104.514L250.966 107.211L256.509 104.963L258.057 108.259L255.41 118.295C255.485 118.295 256.815 119.812 257.009 120.044L263.15 117.646L264.749 121.192C259.334 123.402 259.898 123.142 259.755 123.292C260.281 123.975 260.848 124.625 261.453 125.239C261.72 124.816 262.021 124.414 262.353 124.039C262.803 123.589 266.697 126.785 271.591 126.935C271.835 126.293 276.207 119.858 269.332 108.599C267.481 105.532 265.013 102.884 262.082 100.823C259.152 98.7614 255.825 97.3328 252.313 96.6276Z" fill="#005BC3"/>
<path d="M284.47 74.8585C284.144 74.8585 283.824 74.9553 283.553 75.1367C283.281 75.318 283.07 75.5758 282.945 75.8775C282.82 76.1791 282.787 76.511 282.851 76.8312C282.915 77.1514 283.072 77.4455 283.303 77.6763C283.534 77.9072 283.828 78.0644 284.148 78.1281C284.468 78.1918 284.8 78.1591 285.102 78.0341C285.403 77.9092 285.661 77.6976 285.842 77.4262C286.024 77.1547 286.121 76.8356 286.121 76.5091C286.123 76.2918 286.082 76.0762 285.999 75.875C285.917 75.6737 285.796 75.4909 285.642 75.3372C285.488 75.1835 285.305 75.062 285.104 74.9798C284.903 74.8976 284.687 74.8564 284.47 74.8585Z" fill="#FDAF31"/>
<path d="M267.843 72.1587C266.447 72.1587 266.042 73.8093 266.192 73.8093C266.192 74.1358 266.289 74.455 266.47 74.7264C266.652 74.9979 266.909 75.2094 267.211 75.3344C267.513 75.4593 267.845 75.492 268.165 75.4283C268.485 75.3646 268.779 75.2074 269.01 74.9765C269.241 74.7457 269.398 74.4516 269.462 74.1314C269.525 73.8112 269.493 73.4793 269.368 73.1777C269.243 72.876 269.031 72.6183 268.76 72.4369C268.488 72.2555 268.169 72.1587 267.843 72.1587Z" fill="#FDAF31"/>
<path d="M257.356 132.508C257.04 132.508 252.434 131.019 250.512 128.41C249.687 127.227 249.434 125.607 248.386 124.787C246.411 123.252 240.917 122.782 242.113 120.989C242.557 120.323 243.742 120.232 244.54 120.278C243.655 119.937 242.114 119.439 242.712 118.542C243.437 117.455 246.953 118.211 245.296 117.867C244.383 117.684 243.73 117.165 244.17 116.575C245.071 115.22 248.808 116.355 246.952 115.759C247.102 115.759 245.822 115.597 245.619 114.926C245.488 114.496 245.936 114.069 246.3 113.951C248.175 113.247 251.534 114.511 251.477 114.619C253.968 115.674 258.356 120.947 260.047 123.06C261.558 124.949 261.998 125.117 261.603 125.471C260.924 126.08 259.277 122.702 255.145 118.568C254.182 117.571 252.303 115.755 251.035 115.198C250.198 114.83 247.159 114.054 246.407 114.755C246.962 115.124 249.938 115.621 251.938 117.103C252.456 117.457 252.913 117.89 253.298 118.385C253.453 118.693 253.159 119.24 252.345 118.658C251.97 118.457 251.475 118.127 251.033 117.882C248.292 116.329 245.456 116.476 244.86 116.937C245.319 117.187 249.196 117.798 251.331 119.938C251.376 119.984 251.408 120.04 251.426 120.102C251.443 120.164 251.444 120.229 251.429 120.291C251.414 120.353 251.384 120.41 251.34 120.458C251.297 120.505 251.242 120.54 251.181 120.559C250.647 120.734 249.693 119.959 249.425 119.853C246.765 118.525 243.806 118.498 243.367 118.925C243.784 119.348 248.233 120.576 249.88 122.236C250.18 122.536 249.861 123.198 249.055 122.663C247.898 122.005 245.629 120.973 244.082 121.028C243.6 120.984 243.119 121.12 242.732 121.41C242.694 122.074 247.12 122.863 248.842 124.201C251.433 126.227 249.006 129.018 257.471 131.779C257.554 131.808 257.623 131.865 257.668 131.941C257.713 132.016 257.73 132.105 257.716 132.191C257.702 132.278 257.659 132.357 257.593 132.414C257.527 132.472 257.443 132.505 257.356 132.508Z" fill="#414141"/>
<path d="M260.852 76.88C260.194 76.88 260.496 74.9983 257.889 73.6942C257.804 73.647 257.741 73.569 257.713 73.4765C257.685 73.3841 257.693 73.2842 257.737 73.1979C257.781 73.1115 257.856 73.0453 257.947 73.0131C258.038 72.9809 258.138 72.9852 258.226 73.025C260.522 74.1729 261.852 76.88 260.852 76.88Z" fill="#414141"/>
<path d="M275.182 66.791C275.107 66.791 268.733 64.195 268.605 63.9399C268.561 63.8508 268.554 63.7478 268.585 63.6536C268.617 63.5593 268.685 63.4815 268.774 63.4372C268.999 63.3246 268.81 63.3554 271.929 64.6422C275.36 66.0595 275.731 66.1172 275.524 66.5734C275.494 66.6387 275.446 66.6938 275.385 66.7324C275.325 66.771 275.254 66.7913 275.182 66.791Z" fill="#414141"/>
<path d="M283.677 66.4308C285.644 64.7464 287.5 64.9932 288.453 66.1247C288.516 66.2009 288.547 66.2991 288.538 66.3978C288.529 66.4965 288.482 66.5877 288.406 66.6515C288.33 66.7153 288.232 66.7465 288.134 66.7384C288.035 66.7302 287.943 66.6833 287.879 66.6079C286.937 65.4907 285.378 65.9604 284.166 67.001C284.09 67.0657 283.992 67.0977 283.893 67.09C283.794 67.0822 283.702 67.0354 283.637 66.9598C283.572 66.8842 283.54 66.7859 283.548 66.6867C283.556 66.5875 283.603 66.4955 283.678 66.4308H283.677Z" fill="#414141"/>
<path d="M278.559 83.5776C276.942 83.5776 276.712 81.4573 279.27 81.0266C281.349 80.4991 280.705 83.5776 278.559 83.5776ZM279.745 81.7274C279.179 81.7558 278.636 81.9599 278.192 82.3111C277.714 82.6322 278.784 83.2865 279.59 82.3321C279.666 82.2541 279.721 82.1572 279.747 82.0513C279.774 81.9454 279.771 81.8344 279.741 81.7296L279.745 81.7274Z" fill="#414141"/>
<path d="M285.498 70.9143C284.56 70.1873 283.178 73.707 284.864 73.707C285.968 73.707 286.365 71.5806 285.498 70.9143Z" fill="#414141"/>
<path d="M272.565 68.8655C271.629 68.1482 270.148 71.857 271.825 71.857C272.937 71.857 273.436 69.5355 272.565 68.8655Z" fill="#414141"/>
<path d="M280.797 77.5521C283.773 74.2447 279.906 76.3231 280.302 71.9248C280.357 71.6727 280.357 71.4874 280.411 71.2683C280.493 70.7431 281.146 70.3679 281.146 71.4184C281.093 71.6435 281.098 71.8145 281.039 72.0471C280.901 73.7946 281.46 74.1254 281.79 74.391C283.241 75.5555 282.792 76.4499 281.379 78.0195C281.045 78.3961 280.473 77.9122 280.797 77.5521Z" fill="#414141"/>
<path d="M277.212 86.779C282.131 86.4691 285.834 84.303 287.506 80.7458C288.252 80.8561 289.044 81.3131 290.478 80.3572C291.804 79.4771 291.239 77.9217 292.019 77.2262C292.727 76.5599 294.585 77.2382 295.295 75.8186C296.19 73.9729 294.289 71.5141 294.433 69.7412C294.634 67.2528 294.684 64.7544 294.583 62.26C294.358 54.4891 289.82 48.3532 283.015 46.6275C276.831 45.0563 274.462 46.8871 273.491 47.0176C271.967 47.2007 269.804 45.6221 267.979 45.4187C261.248 44.7765 254.709 51.5652 252.85 58.2263C252.304 60.2146 252.006 62.4768 250.858 64.1012C249.499 66.025 245.556 66.6079 246.664 70.1786C246.913 70.9451 247.391 71.6165 248.035 72.1013C248.678 72.586 249.456 72.8607 250.261 72.8879C251.288 72.9427 251.206 72.9232 251.254 74.0539C251.404 77.5526 255.465 77.3177 255.79 76.9486C256.814 78.3321 258.679 79.6159 260.2 79.6864C260.2 79.7074 259.921 85.5155 259.779 87.4543C259.527 90.3519 259.361 90.1283 259.464 90.3452C262.677 97.0611 273.039 97.7731 276.471 87.2847C311.149 101.102 303.265 146.807 271.894 141.994C267.303 141.269 257.721 136.931 256.981 135.996C256.973 133.944 261.165 126.008 262.598 124.331C264.436 124.775 275.18 133.109 283.442 119.49C283.48 119.426 283.499 119.353 283.496 119.279C283.493 119.205 283.468 119.133 283.424 119.073C283.394 119.034 283.358 119 283.316 118.974C281.78 118.045 279.039 131.664 264.209 124.239C263.024 123.645 262.483 123.374 262.116 123.742C260.506 125.582 256.209 133.681 256.234 136.126C256.433 137.498 267.646 142.083 271.779 142.736C282.643 144.404 292.369 139.602 296.839 131.002C304.213 116.798 298.46 95.5462 277.212 86.779ZM266.416 83.2413C266.343 83.1891 266.254 83.1647 266.164 83.1726C266.075 83.1806 265.991 83.2202 265.929 83.2845C265.866 83.3487 265.829 83.4333 265.823 83.5228C265.817 83.6124 265.844 83.701 265.898 83.7725C266.053 83.9766 269.644 88.6105 274.882 89.1237C270.831 97.0679 262.813 95.2589 260.231 90.2041C260.706 87.2779 260.867 80.2799 260.965 79.3998C260.98 79.344 260.982 79.2855 260.971 79.2288C260.96 79.1721 260.936 79.1187 260.901 79.0727C260.866 79.0268 260.821 78.9895 260.769 78.9639C260.717 78.9383 260.66 78.9249 260.602 78.9249C258.769 78.9249 256.967 77.44 256.119 76.094C254.231 73.0928 257.249 67.9802 261.612 70.8854C262.828 71.5937 262.225 72.7311 262.953 72.6306C263.703 72.5241 262.97 71.0482 262.396 70.5298C263.081 69.952 263.184 69.9693 263.28 69.859C266.388 66.3626 266.471 62.3672 268.442 57.9382C273.041 56.0904 278.099 55.7096 282.923 56.848C284.33 57.0559 285.692 57.5001 286.952 58.1611C287.012 58.3036 287.519 59.3871 287.729 59.877C290.359 66.0497 287.775 69.772 287.709 75.5988C287.792 77.1346 287.542 78.6703 286.976 80.1006C283.845 87.4588 272.151 87.4017 266.416 83.2413Z" fill="#414141"/>
<path d="M242.339 96.882C248.397 89.6386 260.101 85.9951 260.276 87.4432C260.288 87.5421 260.26 87.6415 260.199 87.7201C260.137 87.7979 260.047 87.8483 259.948 87.8604C252.619 88.7382 245.652 94.1141 242.948 97.3261C242.919 97.3662 242.882 97.4001 242.84 97.4259C242.798 97.4516 242.751 97.4687 242.702 97.4762C242.653 97.4843 242.603 97.4826 242.555 97.4712C242.506 97.4597 242.461 97.4388 242.421 97.4096C242.381 97.3804 242.347 97.3436 242.321 97.3011C242.295 97.2587 242.278 97.2116 242.271 97.1626C242.256 97.0638 242.28 96.9629 242.339 96.882Z" fill="#414141"/>
<path d="M242.504 96.7727C235.827 99.0236 231.613 105.409 231.613 110.968C231.678 113.447 232.151 115.897 233.013 118.222C232.436 119.046 231.932 119.918 231.506 120.83C231.483 120.874 231.47 120.922 231.467 120.972C231.463 121.021 231.47 121.071 231.485 121.118C231.501 121.164 231.526 121.208 231.559 121.245C231.592 121.282 231.631 121.313 231.676 121.334C231.72 121.357 231.768 121.37 231.818 121.373C231.867 121.377 231.917 121.37 231.964 121.355C232.011 121.339 232.054 121.314 232.091 121.281C232.128 121.249 232.159 121.209 232.181 121.165C232.606 120.314 233.043 119.598 233.351 119.09C233.806 120.211 234.336 121.299 234.937 122.348C234.667 122.666 234.234 123.408 233.278 124.888C233.251 124.929 233.233 124.976 233.224 125.024C233.215 125.072 233.216 125.122 233.226 125.17C233.236 125.219 233.256 125.264 233.284 125.305C233.312 125.345 233.348 125.38 233.389 125.407C233.431 125.433 233.477 125.452 233.525 125.461C233.574 125.47 233.624 125.469 233.672 125.458C233.72 125.448 233.766 125.428 233.806 125.4C233.847 125.372 233.881 125.337 233.908 125.295C234.64 124.165 235.104 123.489 235.361 123.065C236.129 124.318 236.99 125.512 237.936 126.636C236.56 128.657 235.229 130.012 236.286 130.012C236.351 130.012 236.415 129.995 236.472 129.962C236.529 129.93 236.576 129.883 236.61 129.827C237.026 129.12 237.683 128.327 238.44 127.225C239.276 128.169 240.171 129.059 241.121 129.889C240.493 130.984 239.363 132.651 239.267 132.768C239.198 132.838 239.161 132.933 239.161 133.031C239.162 133.13 239.202 133.224 239.271 133.293C239.341 133.363 239.435 133.402 239.533 133.403C239.632 133.404 239.726 133.366 239.797 133.298C239.947 133.148 241.06 131.48 241.701 130.382C242.68 131.196 243.713 131.941 244.793 132.615C244.098 133.516 243.453 134.455 242.861 135.426C242.807 135.51 242.789 135.612 242.811 135.709C242.832 135.806 242.892 135.891 242.976 135.944C243.06 135.997 243.162 136.015 243.259 135.994C243.356 135.972 243.44 135.913 243.494 135.829C244.381 134.435 245.081 133.519 245.439 133.004C246.738 133.766 248.104 134.409 249.52 134.925C249.015 135.635 248.38 136.973 247.83 137.632C247.785 137.687 247.756 137.754 247.747 137.825C247.738 137.895 247.749 137.967 247.779 138.031C247.809 138.096 247.857 138.15 247.917 138.189C247.977 138.227 248.047 138.247 248.118 138.248C248.575 138.248 249.694 136.064 250.337 135.204C252.041 135.757 253.809 136.085 255.597 136.179C255.168 137.038 254.683 137.868 254.147 138.664C254.106 138.726 254.085 138.799 254.085 138.873C254.085 138.947 254.106 139.019 254.147 139.081C254.182 139.132 254.228 139.174 254.283 139.203C254.337 139.232 254.398 139.247 254.459 139.247C254.521 139.247 254.582 139.232 254.636 139.203C254.691 139.174 254.737 139.132 254.772 139.081C254.787 139.057 256.238 136.71 256.416 136.201H256.507C256.606 136.2 256.701 136.161 256.772 136.09C256.842 136.02 256.882 135.925 256.882 135.826C256.882 135.726 256.842 135.631 256.772 135.561C256.702 135.49 256.606 135.451 256.507 135.451C244.712 135.46 232.609 123.468 232.365 110.959C232.365 105.732 236.386 99.6246 242.739 97.4847C256.779 93.0287 273.097 106.286 272.711 121.585C272.623 125.088 270.632 126.53 271.419 126.923C271.508 126.968 271.611 126.975 271.706 126.944C271.8 126.912 271.878 126.845 271.923 126.756C272.843 124.916 273.408 123.684 273.461 121.605C273.856 105.863 257.09 92.1418 242.504 96.7727Z" fill="white"/>
<path d="M287.58 58.0193C284.804 53.8732 282.133 51.3874 278.701 55.1187C277.616 53.4253 274.547 52.098 273.046 52.4214C271.065 52.9158 269.212 54.3076 267.903 57.3028C267.528 57.7612 268.31 58.2654 268.539 57.7245C268.985 56.657 269.613 55.6752 270.396 54.8231C271.799 54.3924 274.668 55.394 275.279 55.9583C275.352 56.0257 275.449 56.0613 275.548 56.0574C275.648 56.0534 275.741 56.0102 275.809 55.9373C276.62 55.0564 272.685 54.009 271.374 53.9707C271.935 53.5933 272.559 53.3168 273.215 53.1536C274.473 52.8828 277.342 54.1816 278.144 55.6514C279.013 57.3823 280.502 51.9749 284.172 55.0076C283.429 55.0414 280.905 55.4301 281.29 56.1999C281.618 56.8594 281.883 55.7497 284.951 55.7572C285.711 56.5783 286.383 57.4768 286.956 58.438C287.013 58.5186 287.098 58.5738 287.195 58.5918C287.292 58.6099 287.392 58.5893 287.473 58.5345C287.555 58.4797 287.612 58.3951 287.632 58.2988C287.652 58.2025 287.633 58.1021 287.58 58.0193Z" fill="white"/>
<path d="M309.038 41.2036C307.897 36.2816 304.192 40.3325 303.346 35.2612C303.274 34.8389 303.174 34.4218 303.046 34.0127C301.962 31.0626 298.676 29.9446 298.452 30.6176C298.377 30.7737 298.677 31.1428 298.852 30.9665C299.361 31.0128 299.854 31.1662 300.3 31.4167C304.469 33.8979 301.2 37.7357 305.942 38.7576C309.67 39.5597 307.712 42.2435 309.887 43.6511C309.927 43.6806 309.974 43.6978 310.024 43.7005C310.073 43.7031 310.122 43.6912 310.165 43.6661C310.207 43.6404 310.241 43.603 310.262 43.5586C310.283 43.5141 310.291 43.4644 310.285 43.4155C310.275 43.35 310.24 43.291 310.187 43.2512C309.86 43.0125 309.588 42.7061 309.389 42.3527C309.191 41.9994 309.071 41.6074 309.038 41.2036Z" fill="#7BD2FF"/>
<path d="M308.04 46.4973C306.529 46.1222 306.324 44.1714 304.894 43.4016C303.527 42.6686 301.961 43.5667 300.649 43.1015C299.528 42.7046 299.08 41.3825 298.202 40.1551C296.003 37.5673 292.76 37.8974 292.76 38.5044C292.767 38.5593 292.789 38.611 292.825 38.6532C292.861 38.6955 292.908 38.7264 292.961 38.7423C293.014 38.7582 293.07 38.7584 293.123 38.7428C293.176 38.7272 293.224 38.6965 293.259 38.6545C294.067 38.2508 296.384 38.6987 297.854 40.4552C298.52 41.2505 299.075 43.0722 300.5 43.5517C301.925 44.0311 303.262 43.1135 304.645 43.7512C305.987 44.4835 306.174 46.4523 307.94 46.8973C308.236 46.8973 308.351 46.6534 308.04 46.4973Z" fill="#7BD2FF"/>
<path d="M313.781 41.4558C312.778 40.2711 313.81 38.6279 313.082 37.1116C312.372 35.635 310.606 35.5014 309.836 34.4157C309.086 33.3533 309.637 31.5804 309.536 30.5704C309.198 27.1731 306.38 25.5172 306.04 26.0266C305.916 26.275 306.15 26.5211 306.34 26.4258C307.116 26.8118 307.772 27.4013 308.238 28.1314C308.704 28.8615 308.963 29.7045 308.987 30.5704C309.022 32.2961 308.562 33.4854 309.337 34.6153C310.171 35.8308 311.963 35.9839 312.533 37.2113C313.208 38.4501 312.096 40.1855 313.332 41.7056C313.561 41.9352 314.011 41.6854 313.781 41.4558Z" fill="#7BD2FF"/>
</g>
<rect x="0.744521" y="0.744521" width="373.511" height="143.511" rx="10.2555" stroke="url(#paint1_linear_1363_3688)" stroke-opacity="0.08" stroke-width="0.510959"/>
<defs>
<linearGradient id="paint0_linear_1363_3688" x1="42.6629" y1="15.8085" x2="213.928" y2="76.5442" gradientUnits="userSpaceOnUse">
<stop stop-color="#003F88"/>
<stop offset="0.64989" stop-color="#03BCFF"/>
<stop offset="1" stop-color="#0076FF"/>
</linearGradient>
<linearGradient id="paint1_linear_1363_3688" x1="47.195" y1="20.571" x2="387.35" y2="83.6903" gradientUnits="userSpaceOnUse">
<stop stop-color="#003F88"/>
<stop offset="0.64989" stop-color="#02D4FF"/>
<stop offset="1" stop-color="#0076FF"/>
</linearGradient>
<clipPath id="clip0_1363_3688">
<rect x="1" y="1" width="373" height="143" rx="10" fill="white"/>
</clipPath>
</defs>
</svg>
