<svg xmlns="http://www.w3.org/2000/svg" width="375" height="145" fill="none"><g clip-path="url(#a)"><rect width="373" height="143" x="1" y="1" fill="#E3F0FF" rx="10"/><path fill="#C8E2FF" d="M379.257 159c-143.113-3.736-175.944-8.836-182.825-17.463-6.042-9.025-6.042-9.025 63.984-59.124 31.74-22.689 81.94-58.621 98.261-73.985A1242 1242 0 0 0 234.78-4.942a7.97 7.97 0 0 1-8.559-3.82 8.12 8.12 0 0 1 3.041-11.207 8.1 8.1 0 0 1 4.133-1.03c2.098 0 141.981 6.088 145.631 24.264 1.322 10.368-11.433 22.185-109.338 92.203-18.88 13.432-39.313 28.124-51.04 37.149 37.656 5.331 143.638 9.172 161.07 10.348a8.082 8.082 0 0 1 7.28 8.227 8.1 8.1 0 0 1-2.344 5.42 8.1 8.1 0 0 1-5.397 2.388"/><path fill="url(#b)" d="M32.163 40.197H19.577V22.748h4.5v14.074h8.086zm15.445-5.8h-9.656q.094 1.546 1.172 2.367 1.09.82 3.2.82 1.335 0 2.59-.48 1.252-.48 1.98-1.032h.468v3.387q-1.43.574-2.695.832-1.266.258-2.8.258-3.962 0-6.071-1.781-2.11-1.782-2.11-5.075 0-3.257 1.993-5.156 2.004-1.91 5.484-1.91 3.21 0 4.828 1.629 1.617 1.617 1.617 4.664zm-4.195-2.473q-.035-1.325-.656-1.992-.621-.669-1.934-.668-1.218 0-2.004.633-.785.632-.879 2.027zM59 40.08q-.68.175-1.441.27-.763.105-1.864.105-2.46 0-3.668-.996-1.195-.995-1.195-3.41v-6.152h-1.734v-2.86h1.734v-3.762h4.219v3.762h3.949v2.86h-3.95v4.663q0 .693.013 1.208.011.515.187.925.164.41.574.657.423.234 1.219.234.329 0 .855-.14.54-.14.75-.259H59zm8.133-18.117-3.41 6.902H60.98l1.84-6.902zm13.804 14.062q0 2.04-1.828 3.293-1.827 1.243-5.004 1.242-1.757 0-3.187-.328-1.43-.327-2.297-.726v-3.469h.387q.316.223.726.492.422.258 1.184.563.657.27 1.488.468a8 8 0 0 0 1.781.188q1.243 0 1.84-.27.598-.28.598-.82 0-.48-.352-.691-.352-.224-1.336-.422-.468-.106-1.277-.223a15 15 0 0 1-1.453-.304q-1.793-.47-2.66-1.453-.867-.997-.867-2.473 0-1.9 1.793-3.152 1.804-1.266 4.922-1.266 1.476 0 2.824.305 1.36.293 2.12.632v3.328h-.362a8.4 8.4 0 0 0-2.145-1.043 7.4 7.4 0 0 0-2.426-.41q-1.02 0-1.722.282-.692.281-.692.796 0 .47.317.715.316.246 1.488.492.644.129 1.383.258a17 17 0 0 1 1.5.305q1.665.433 2.46 1.371.797.925.797 2.32m25.219-1.312q0 2.578-2.191 4.195-2.18 1.605-5.93 1.606-2.168 0-3.785-.375a20 20 0 0 1-3.012-.973v-4.184h.493q1.394 1.114 3.117 1.711 1.734.598 3.328.598.41 0 1.078-.07t1.09-.235a2.6 2.6 0 0 0 .844-.527q.339-.317.339-.937 0-.575-.492-.985-.48-.422-1.418-.644-.984-.235-2.086-.434-1.09-.21-2.05-.527-2.204-.716-3.176-1.934-.96-1.23-.961-3.047 0-2.437 2.18-3.972 2.19-1.547 5.624-1.547 1.724 0 3.399.34 1.688.328 2.918.832v4.019h-.481q-1.055-.843-2.589-1.406a8.8 8.8 0 0 0-3.118-.574q-.562 0-1.125.082-.55.07-1.066.28a2 2 0 0 0-.785.54 1.15 1.15 0 0 0-.328.808q0 .692.527 1.067.528.363 1.992.668.96.2 1.84.387a19 19 0 0 1 1.91.515q2.004.657 2.953 1.793.961 1.125.961 2.93m11.274 5.367q-.68.175-1.442.27-.762.105-1.863.105-2.461 0-3.668-.996-1.195-.995-1.195-3.41v-6.152h-1.735v-2.86h1.735v-3.762h4.218v3.762h3.95v2.86h-3.95v4.663q0 .693.012 1.208t.188.925q.163.41.574.657.421.234 1.219.234.328 0 .855-.14.54-.14.75-.259h.352zm10.5-3.316v-2.742a40 40 0 0 0-1.852.199q-.996.117-1.512.281-.632.2-.972.586-.328.375-.328.996 0 .41.07.668t.352.492q.269.234.644.352.375.105 1.172.105.633 0 1.277-.258a4 4 0 0 0 1.149-.68m0 2.039q-.34.258-.844.62a6 6 0 0 1-.949.575 5.8 5.8 0 0 1-1.289.41q-.669.14-1.465.14-1.875 0-3.141-1.16-1.265-1.16-1.265-2.964 0-1.441.644-2.356.645-.914 1.828-1.441 1.172-.528 2.906-.75a51 51 0 0 1 3.598-.328v-.07q0-1.09-.89-1.5-.891-.422-2.625-.422-1.044 0-2.227.375a28 28 0 0 0-1.699.562h-.387v-3.176q.668-.176 2.168-.41a19 19 0 0 1 3.023-.246q3.598 0 5.192 1.113 1.605 1.102 1.605 3.47v8.952h-4.183zm17.601-7.746h-.375q-.268-.095-.867-.141a13 13 0 0 0-.996-.047 9.6 9.6 0 0 0-1.594.117 9 9 0 0 0-1.488.399v8.812h-4.219v-13.16h4.219v1.934q1.395-1.196 2.426-1.582 1.03-.399 1.898-.399.224 0 .504.012.282.012.492.035zm10.805 9.023q-.68.175-1.441.27a14 14 0 0 1-1.864.105q-2.46 0-3.668-.996-1.195-.995-1.195-3.41v-6.152h-1.734v-2.86h1.734v-3.762h4.219v3.762h3.949v2.86h-3.949v4.663q0 .693.011 1.208.012.515.188.925.164.41.574.657.422.234 1.219.234.329 0 .855-.14.54-.14.75-.259h.352z"/><path fill="#384F69" d="M26.292 64.197h-1.16V56.68l-2.426 5.115h-.691l-2.409-5.115v7.517h-1.084v-8.724h1.583l2.326 4.857 2.25-4.857h1.611zm6.862 0h-1.096V63.5q-.147.1-.398.281a3.157 3.157 0 0 1-1.113.504 3.3 3.3 0 0 1-.838.094q-.885 0-1.5-.586-.616-.586-.616-1.494 0-.745.317-1.201.323-.463.914-.727.598-.264 1.435-.357.838-.095 1.8-.141v-.17q0-.375-.136-.621a.94.94 0 0 0-.375-.387 1.6 1.6 0 0 0-.562-.181 5 5 0 0 0-.686-.047q-.434 0-.966.117a7 7 0 0 0-1.102.328h-.059v-1.119q.323-.088.932-.193.61-.106 1.201-.106.691 0 1.201.117.516.112.89.387.37.27.563.697.194.428.194 1.06zm-1.096-1.611v-1.822q-.503.029-1.19.088a6 6 0 0 0-1.077.17q-.476.135-.768.421-.293.282-.293.78 0 .562.34.85.34.28 1.037.28.58 0 1.06-.222.48-.229.891-.545m8.678 1.611h-1.453l-2.625-2.865-.715.68v2.185h-1.101V55.08h1.101v5.848l3.182-3.276h1.389l-3.041 3.024zm6.042-3.158h-4.822q0 .603.181 1.055.182.445.498.732.305.282.72.422.422.14.927.14a3.7 3.7 0 0 0 1.342-.263q.68-.27.966-.527h.059v1.2q-.556.236-1.137.393a4.6 4.6 0 0 1-1.219.159q-1.628 0-2.543-.88-.914-.884-.914-2.507 0-1.605.873-2.549.88-.943 2.309-.943 1.325 0 2.04.773.72.774.72 2.197zm-1.072-.844q-.005-.867-.44-1.342-.427-.474-1.307-.474-.885 0-1.412.521-.521.522-.591 1.295zm11.086 4.002h-1.095V63.5q-.146.1-.399.281a3.157 3.157 0 0 1-1.113.504 3.3 3.3 0 0 1-.838.094q-.885 0-1.5-.586t-.615-1.494q0-.745.316-1.201.323-.463.914-.727.598-.264 1.436-.357.837-.095 1.799-.141v-.17q0-.375-.135-.621a.94.94 0 0 0-.375-.387 1.6 1.6 0 0 0-.563-.181 5 5 0 0 0-.685-.047q-.434 0-.967.117a7 7 0 0 0-1.102.328h-.058v-1.119q.322-.088.932-.193.609-.106 1.2-.106.693 0 1.202.117.516.112.89.387.37.27.563.697.193.428.193 1.06zm-1.095-1.611v-1.822q-.504.029-1.19.088a6 6 0 0 0-1.078.17q-.474.135-.768.421-.292.282-.292.78 0 .562.34.85.34.28 1.036.28.58 0 1.061-.222.48-.229.89-.545m11.784 1.611h-1.102v-.685a4 4 0 0 1-.99.638 2.7 2.7 0 0 1-1.12.229q-1.171 0-1.862-.902-.686-.903-.686-2.502 0-.833.234-1.483a3.5 3.5 0 0 1 .645-1.107 2.7 2.7 0 0 1 2.027-.914q.516 0 .914.111.399.106.838.334V55.08h1.102zm-1.102-1.611V58.83a4 4 0 0 0-.797-.275 3.6 3.6 0 0 0-.767-.077q-.926 0-1.442.645t-.515 1.828q0 1.166.398 1.776.399.603 1.278.603.468 0 .949-.205.48-.21.896-.54m6.874-3.733h-.059a4.365 4.365 0 0 0-1.025-.111q-.51 0-.985.229a4.4 4.4 0 0 0-.914.58v4.646H69.17v-6.545h1.101v.967q.657-.527 1.155-.744a2.5 2.5 0 0 1 1.025-.223q.287 0 .416.018.129.012.387.053zm5.432 5.344h-1.096V63.5q-.146.1-.398.281a3.157 3.157 0 0 1-1.113.504 3.3 3.3 0 0 1-.838.094q-.885 0-1.5-.586t-.616-1.494q0-.745.317-1.201.323-.463.914-.727.597-.264 1.435-.357.839-.095 1.8-.141v-.17q0-.375-.136-.621a.94.94 0 0 0-.375-.387 1.6 1.6 0 0 0-.562-.181 5 5 0 0 0-.686-.047q-.434 0-.966.117a7 7 0 0 0-1.102.328h-.059v-1.119q.323-.088.932-.193.61-.106 1.201-.106.692 0 1.201.117.516.112.891.387.37.27.563.697.192.428.193 1.06zm-1.096-1.611v-1.822q-.504.029-1.19.088a6 6 0 0 0-1.077.17q-.475.135-.768.421-.293.282-.293.78 0 .562.34.85.34.28 1.037.28.58 0 1.06-.222.48-.229.891-.545m6.258-6.44h-.058a5 5 0 0 0-.475-.105 2.7 2.7 0 0 0-.515-.059q-.71 0-1.032.317-.315.31-.316 1.13v.223h1.986v.926h-1.95v5.62h-1.102v-5.62h-.745v-.926h.745v-.217q0-1.166.58-1.787.58-.626 1.675-.626.37 0 .662.035.3.034.545.082zm3.616 7.993a6 6 0 0 1-1.33.187q-1.002 0-1.523-.539-.522-.54-.522-1.728v-3.48h-.744v-.927h.744v-1.88h1.102v1.88h2.273v.926H85.19v2.982q0 .516.023.81.024.285.164.538a.8.8 0 0 0 .352.346q.228.105.691.105.27 0 .563-.076a4 4 0 0 0 .422-.135h.058zm8.116-7.992h-.058a5 5 0 0 0-.475-.106 2.7 2.7 0 0 0-.516-.059q-.708 0-1.03.317-.317.31-.317 1.13v.223h1.986v.926h-1.951v5.62h-1.102v-5.62h-.744v-.926h.744v-.217q0-1.166.58-1.787.58-.626 1.676-.626.37 0 .662.035.3.034.545.082zm5.796 4.78q0 1.6-.821 2.526-.82.926-2.197.926-1.389 0-2.209-.926-.814-.926-.814-2.525 0-1.6.814-2.526.82-.93 2.21-.931 1.376 0 2.196.931.82.926.821 2.526m-1.137 0q0-1.27-.498-1.886-.498-.621-1.383-.621-.896 0-1.394.621-.493.616-.493 1.887 0 1.23.499 1.869.498.633 1.388.633.879 0 1.377-.627.504-.633.504-1.875m6.452-2.074h-.059a4.374 4.374 0 0 0-1.025-.111q-.51 0-.985.229a4.4 4.4 0 0 0-.914.58v4.646h-1.101v-6.545h1.101v.967q.656-.527 1.155-.744a2.5 2.5 0 0 1 1.025-.223q.287 0 .416.018.129.012.387.053zm9.956-1.2-3.821 8.958h-1.177l1.218-2.73-2.607-6.229h1.195l2.01 4.852 2.027-4.852zm6.434 3.275q0 1.6-.821 2.525-.82.926-2.197.926-1.389 0-2.209-.926-.814-.926-.814-2.525 0-1.6.814-2.526.82-.93 2.209-.931 1.377 0 2.197.931.82.926.821 2.526m-1.137 0q0-1.272-.498-1.887-.498-.621-1.383-.621-.897 0-1.394.621-.493.616-.493 1.887 0 1.23.498 1.869.499.633 1.389.633.879 0 1.377-.627.504-.633.504-1.875m7.793 3.27h-1.101v-.727a5.4 5.4 0 0 1-1.067.673 2.66 2.66 0 0 1-1.125.235q-1.03 0-1.605-.627-.574-.633-.574-1.852v-4.248h1.101v3.727q0 .498.047.855.047.352.199.604a.95.95 0 0 0 .411.375q.252.117.732.117.428 0 .932-.223.51-.222.949-.568v-4.887h1.101zm5.772-5.344h-.058a4.363 4.363 0 0 0-1.026-.111q-.51 0-.984.228a4.4 4.4 0 0 0-.914.58v4.646h-1.102v-6.545h1.102v.967q.656-.527 1.154-.744a2.5 2.5 0 0 1 1.026-.223q.287 0 .416.018.13.012.386.053zm10.964 2.66q0 .65-.246 1.148a2.3 2.3 0 0 1-.662.82 3.1 3.1 0 0 1-1.084.551q-.587.165-1.494.164h-3.094v-8.724h2.584q.955 0 1.43.07.474.07.908.293.48.252.697.65.217.393.217.944 0 .62-.316 1.06-.317.435-.844.697v.047q.885.182 1.394.78.51.591.51 1.5m-1.951-3.932q0-.316-.105-.533a.82.82 0 0 0-.34-.352 1.6 1.6 0 0 0-.668-.193 10 10 0 0 0-.973-.041h-1.383v2.52h1.5q.546 0 .867-.053.323-.059.598-.235a.95.95 0 0 0 .387-.45q.117-.283.117-.663m.744 3.978q0-.526-.158-.837t-.574-.528a1.9 1.9 0 0 0-.686-.187 9 9 0 0 0-.972-.047h-1.823v3.246h1.535q.762 0 1.249-.076.486-.083.796-.293.328-.229.481-.522.152-.292.152-.756m7.712 2.637h-1.102v-.726a5.4 5.4 0 0 1-1.066.673q-.51.235-1.125.235-1.032 0-1.606-.627-.574-.633-.574-1.852v-4.248h1.102v3.727q0 .498.046.855.048.352.2.604a.94.94 0 0 0 .41.375q.252.117.732.117.428 0 .932-.223.51-.222.949-.568v-4.887h1.102zm7.348-6.545-3.821 8.96h-1.177l1.218-2.731-2.607-6.229h1.195l2.01 4.852 2.027-4.852zm6.721 3.223q0 .821-.234 1.477-.23.656-.622 1.101a2.9 2.9 0 0 1-.914.697 2.6 2.6 0 0 1-1.095.229q-.557 0-.973-.135a4.4 4.4 0 0 1-.82-.351l-.071.304h-1.031V55.08h1.102v3.258q.462-.381.984-.621a2.7 2.7 0 0 1 1.172-.246q1.16 0 1.828.89.674.891.674 2.514m-1.137.03q0-1.173-.387-1.776-.386-.61-1.248-.61-.48 0-.972.212a4 4 0 0 0-.914.533v3.75q.469.21.802.293.34.082.768.082.914 0 1.43-.598.52-.603.521-1.887m7.46 3.292h-1.096V63.5q-.147.1-.399.281a3.172 3.172 0 0 1-1.113.504 3.3 3.3 0 0 1-.838.094q-.885 0-1.5-.586t-.615-1.494q0-.745.316-1.201.323-.463.915-.727.597-.264 1.435-.357a29 29 0 0 1 1.799-.141v-.17q0-.375-.135-.621a.94.94 0 0 0-.375-.387 1.6 1.6 0 0 0-.562-.181 5 5 0 0 0-.686-.047q-.433 0-.967.117a7 7 0 0 0-1.101.328h-.059v-1.119q.323-.088.932-.193t1.201-.106q.691 0 1.201.117.516.112.891.387.369.27.562.697.194.428.194 1.06zm-1.096-1.611v-1.822q-.504.029-1.19.088a6 6 0 0 0-1.078.17q-.474.135-.767.421-.293.282-.293.78 0 .562.34.85.34.28 1.037.28.58 0 1.06-.222.48-.229.891-.545m7.577 1.201a7 7 0 0 1-1.049.41 3.7 3.7 0 0 1-1.049.147q-.709 0-1.301-.205a2.7 2.7 0 0 1-1.014-.633 2.84 2.84 0 0 1-.662-1.066q-.234-.645-.234-1.506 0-1.605.879-2.52.885-.915 2.332-.914.563 0 1.101.158.546.159.997.387v1.224h-.059a4.2 4.2 0 0 0-1.043-.603 2.8 2.8 0 0 0-1.043-.21q-.938 0-1.482.632-.54.627-.539 1.846 0 1.183.527 1.822.532.633 1.494.633.334 0 .68-.088.345-.088.621-.229.24-.123.451-.258a5 5 0 0 0 .334-.24h.059zm6.879.41h-1.453l-2.625-2.865-.715.68v2.185h-1.102V55.08h1.102v5.848l3.182-3.276h1.388l-3.041 3.024zm9.505 0h-1.096V63.5q-.147.1-.398.281a3 3 0 0 1-.481.282q-.275.135-.633.222a3.3 3.3 0 0 1-.838.094 2.1 2.1 0 0 1-1.5-.586q-.615-.586-.615-1.494 0-.745.317-1.201.321-.463.914-.727.598-.264 1.435-.357a29 29 0 0 1 1.799-.141v-.17q0-.375-.135-.621a.94.94 0 0 0-.375-.387 1.6 1.6 0 0 0-.562-.181 5 5 0 0 0-.686-.047q-.433 0-.967.117a7 7 0 0 0-1.101.328h-.059v-1.119q.323-.088.932-.193.61-.106 1.201-.106.691 0 1.201.117.516.112.891.387.37.27.562.697.194.428.194 1.06zm-1.096-1.611v-1.822q-.504.029-1.189.088a6 6 0 0 0-1.078.17q-.475.135-.768.421-.293.282-.293.78 0 .562.34.85.34.28 1.037.28.58 0 1.06-.222a5 5 0 0 0 .891-.545m8.21 1.611h-1.102v-3.726q0-.451-.053-.844-.052-.399-.193-.621a.88.88 0 0 0-.422-.363q-.276-.124-.715-.123-.451 0-.943.222a4.8 4.8 0 0 0-.944.569v4.886h-1.101v-6.545h1.101v.727q.516-.428 1.067-.668t1.131-.24q1.06 0 1.617.638.557.64.557 1.84zm6.949 0h-1.101v-.685a4 4 0 0 1-.991.638 2.7 2.7 0 0 1-1.119.229q-1.171 0-1.863-.902-.686-.903-.686-2.502 0-.833.235-1.483.24-.65.644-1.107a2.72 2.72 0 0 1 2.028-.914q.515 0 .914.111.398.106.838.334V55.08h1.101zm-1.101-1.611V58.83a4 4 0 0 0-.797-.275 3.6 3.6 0 0 0-.768-.077q-.925 0-1.441.645t-.516 1.828q0 1.166.399 1.776.398.603 1.277.603.468 0 .949-.205.48-.21.897-.54M23.11 79.31q0 .895-.744 1.47-.738.575-2.021.575-.727 0-1.336-.17a6 6 0 0 1-1.014-.381v-1.237h.059q.52.393 1.16.627a3.6 3.6 0 0 0 1.225.229q.726 0 1.136-.235t.41-.738q0-.387-.222-.586-.223-.2-.856-.34a17 17 0 0 0-.615-.123 10 10 0 0 1-.686-.152q-.861-.228-1.224-.668-.357-.445-.358-1.09 0-.404.165-.761.17-.358.51-.64.327-.274.831-.433.51-.165 1.137-.164.585 0 1.184.147.603.14 1.002.345v1.178h-.06a3.9 3.9 0 0 0-1.024-.521 3.5 3.5 0 0 0-1.184-.217q-.603 0-1.02.234-.416.229-.416.686 0 .404.252.61.246.204.797.333.305.07.68.14.381.071.633.13.768.176 1.183.603.417.435.416 1.148m6.528 1.886h-1.101v-.726a5.4 5.4 0 0 1-1.067.673 2.7 2.7 0 0 1-1.125.235q-1.031 0-1.605-.627-.574-.633-.574-1.852v-4.248h1.101v3.727q0 .498.047.855.047.352.2.604a.94.94 0 0 0 .41.375q.25.117.732.117.427 0 .931-.223a4.3 4.3 0 0 0 .95-.568v-4.887h1.101zm7.448-3.322q0 .821-.234 1.477-.23.656-.622 1.101a2.9 2.9 0 0 1-.914.697 2.6 2.6 0 0 1-1.095.229q-.557 0-.973-.135a4.4 4.4 0 0 1-.82-.351l-.07.304h-1.032V72.08h1.102v3.258a4.5 4.5 0 0 1 .984-.621 2.7 2.7 0 0 1 1.172-.246q1.16 0 1.828.89.675.891.674 2.514m-1.137.03q0-1.173-.386-1.776-.387-.61-1.249-.61-.48 0-.972.212a4 4 0 0 0-.914.533v3.75q.468.21.802.293.34.082.768.082.914 0 1.43-.598.52-.603.521-1.887m11.925 3.292h-1.102v-3.726q0-.422-.041-.815a1.7 1.7 0 0 0-.158-.627.9.9 0 0 0-.387-.38q-.252-.13-.727-.13-.462 0-.925.235a5.5 5.5 0 0 0-.926.586q.017.135.03.316.01.176.01.352v4.19h-1.1V77.47a8 8 0 0 0-.042-.82 1.7 1.7 0 0 0-.158-.628.86.86 0 0 0-.387-.375q-.252-.128-.726-.129-.452 0-.908.223-.451.223-.903.569v4.886h-1.101v-6.545h1.101v.727a5 5 0 0 1 1.026-.668q.515-.24 1.095-.24.669 0 1.131.281.47.281.697.78.668-.563 1.22-.81.55-.25 1.177-.251 1.078 0 1.588.656.516.65.516 1.822zm2.824-7.64h-1.242v-1.143h1.242zm-.07 7.64h-1.102v-6.545h1.102zm5.098-.058a6 6 0 0 1-1.33.187q-1.002 0-1.523-.539-.522-.54-.522-1.728v-3.48h-.744v-.927h.744v-1.88h1.102v1.88h2.273v.926h-2.273v2.983q0 .515.023.808.023.287.164.54a.8.8 0 0 0 .352.345q.228.105.691.105.27 0 .563-.076a4 4 0 0 0 .421-.135h.059z"/><path fill="#fff" d="M350.136 65.826a2.82 2.82 0 0 0-2.347.5c.664-1.828-1.235-2.618-1.801-3.696a4.2 4.2 0 0 1-.25-.9c4.269-.426 1.677-8.071-1.298-9.587a8.8 8.8 0 0 0-1.598-.6c-4.993-5.792-15.329-7.041-22.271-3.246-2.646 1.448-6.79 6.092-6.241 11.086-3.856 3.862-1.342 13.303 2.296 11.485a6.15 6.15 0 0 0 0 2.996c-2.491 3.287-1.259 3.735.7 5.642-.5 1.8.081 5.156 1.179 6.355 2.389-3.285 18.435-11.232 30.889-11.249 3.57-2.087 3.521-7.862.742-8.786"/><path fill="#7BD2FF" d="M347.884 66.072c-.182.181-.174.125-.05.249 2.183-1.847 4.802.389 4.394 3.646.619.102 2.227-.97 1.898-2.048-.138-.45-.756-.65-.699-1.149.09-.8.912-1.455.45-2.296-.388-.706-1.905-.746-2.148-1.398-.258-.697 1.305-1.5.85-2.198-.502-.765-3.681-.57-4.594-.799-.2 1.1-1.051 1.448-2.048 1.548.725 2.894 2.922 3.474 1.947 4.445M356.476 81.952c0-3.73-1.896-6.027-4.144-6.791-8.404-2.851-30.237 6.136-33.756 10.536-2.99 3.738-1.364 9.079.751 10.137 0 .182 3.459-1.496 8.239-.5 1.2-3.612 8.316-6.732 11.834-8.14.203 0 11.208-5.242 17.076-5.242"/><path fill="#414141" d="M349.535 74.683a.37.37 0 0 1-.362-.277.374.374 0 0 1 .173-.422c5.097-2.96 1.47-11.78-2.346-6.06a.37.37 0 0 1-.238.16.38.38 0 0 1-.282-.055c-.466-.311.138-.784.525-1.484q.13-.186.317-.315c2.659-2.223 5.284-.332 5.284 3.734-.153 2.761-2.503 4.72-3.071 4.72"/><path fill="#414141" d="M347.486 71.94a.41.41 0 0 1-.366-.242c-.405-.975 3.239-3.19 3.385-2.026.086.693-.98.136-2.154 1.31-.657.691-.491.958-.865.958M318.538 86.11a.44.44 0 0 1-.291-.16c-1.598-1.742-1.842-7.17-.722-6.856a.37.37 0 0 1 .227.176.38.38 0 0 1 .035.285c-.487 1.75.044 4.831 1.013 5.888a.4.4 0 0 1 .103.197.398.398 0 0 1-.365.47M344.757 51.854a9 9 0 0 0-1.454-.565c-5.667-6.362-15.97-7.167-22.809-3.423-2.507 1.371-6.929 6.07-6.453 11.29-3.545 4.095-1.726 12.23 1.83 12.23.469 0 .329-.17.333.45-.237 3.086 1.016 2.445.889 1.892a7.4 7.4 0 0 1-.068-2.638c2.737-1.331 7.676-6.365 20.183-8.292a62 62 0 0 1 8.361-.578c.124.477 1.116 2.33 1.569 2.33a.376.376 0 0 0 .292-.61 6.7 6.7 0 0 1-1.073-1.787 2.254 2.254 0 0 0 2.01-1.876c.453-1.339-.127-6.617-3.61-8.423m-23.905-3.33c6.602-3.612 16.197-2.436 21.154 2.466-8.253-1.33-21.314 2.052-27.252 7.45-.048-4.611 3.846-8.684 6.098-9.916m-4.294 21.953c-3.157 1.575-5.442-7.341-1.864-10.935a16.7 16.7 0 0 1 2.863-2.301 18 18 0 0 0-.308 3.284c0 2.387.388 5.709 2.209 8.117a15.2 15.2 0 0 1-2.9 1.835m3.55-2.219c-2.59-3.344-2.417-10.204-1.564-11.582a32.4 32.4 0 0 1 6.311-2.926c.357 2.451 2.093 8.028 2.907 10.697a36.5 36.5 0 0 0-7.654 3.814zm8.36-4.066c-.805-2.633-2.484-7.96-2.889-10.677a43.5 43.5 0 0 1 6.63-1.547 25.1 25.1 0 0 1 4.469 10.15 44 44 0 0 0-8.21 2.077zm15.464-2.693c-6.572.145-6.513.785-6.56.381-.306-2.65-2.322-7.307-4.316-10.035a41.6 41.6 0 0 1 7.561-.262c2.14 1.94 4.351 7.561 4.7 9.8.015.12.274.12-1.385.12zm3.722-1.467c-.188.556-.166 1.224-1.608 1.404.189-.6-1.79-6.752-4.277-9.726a9.2 9.2 0 0 1 2.648.81c2.566 1.334 3.482 4.81 3.237 7.515zM323.819 95.11c-1.155 0-3.464-7.331-3.272-11.13a.379.379 0 0 1 .537-.32.38.38 0 0 1 .214.357c-.141 2.776 1.249 8.575 2.812 10.479a.37.37 0 0 1 .049.4.373.373 0 0 1-.34.215M331.471 90.405c-.907-1.85-3.104-6.527-3.923-9.965a.378.378 0 0 1 .558-.395.38.38 0 0 1 .172.222c.801 3.364 2.971 7.98 3.867 9.808a.38.38 0 0 1-.057.413.374.374 0 0 1-.617-.083M338.926 87.15c-.329-2.251-1.89-7.39-3.291-9.59a.4.4 0 0 1-.06-.21.376.376 0 0 1 .693-.193c1.474 2.316 3.054 7.512 3.4 9.885a.375.375 0 0 1-.742.108M348.286 83.823a.37.37 0 0 1-.364-.27.4.4 0 0 1-.011-.16c.525-3.568-1.645-8.329-1.668-8.378a.374.374 0 0 1 .682-.313c1.605 3.475 2.487 9.12 1.361 9.12"/><path fill="#414141" d="M373.927 114.74c-.713-14.566-2.721-33.163-17.502-33.163-5.901 0-19.394 5.852-24.51 8.79-1.458.869-4.727 3.237-4.677 4.581-20.008-3.67-30.698 29.958-13.854 37.494.56 8.854 4.576 9.604 13.647 9.672 32.915.232 33.428.868 37.392.229 2.996-.473 3.958-3.035 4.556-5.751.54-3.576.589-2.665.577-3.588 3.773-4.768 4.739-12.22 4.371-18.264M348.296 65.122c-.159-.581-.594-1.175-1.16-1.175-6.246 0-35.436 6.947-32.281 13.948 1.891 3.214 8.178 3.677 11.69-2.811 2.727-5.148.009-3.133 4.266-1.228 3.462 1.55 8.972-.3 11.169-2.9.81-.96 1.316-2.251 2.251-3.05 1.039-.875 4.703-.463 4.065-2.784"/><path fill="#fff" d="M343.368 117.991a.378.378 0 0 1 .616-.325.38.38 0 0 1 .134.255c1.587 17.156 13.163 22.805 21.402 17.742a15.3 15.3 0 0 0 3.276-2.843.374.374 0 0 1 .64.266c0 .1-.04.195-.11.266a15.2 15.2 0 0 1-3.412 2.948c-8.909 5.472-20.923-.775-22.546-18.309M313.731 132.311c-.495 0-.424-.525-.424-2.572-.272-10.313 2.43-19.582 7.814-26.785a.375.375 0 0 1 .6.45c-10.573 14.155-6.581 28.907-7.99 28.907M365.462 122.874c-.508 0-4.721-2.359-6.016-4.577a.375.375 0 0 1 .648-.375c.957 1.641 3.868 3.548 5.514 4.238a.375.375 0 0 1-.146.714M329.26 106.894a.37.37 0 0 1-.332-.199c-2.032-3.832-2.944-7.765-1.575-11.88a.374.374 0 0 1 .712.237c-2.38 7.182 2.867 11.842 1.195 11.842M329.459 69.618h1.249V68.37h1.248v1.248h1.249v1.249h-1.249v-1.249h-1.248v1.249h-1.249zM315.68 75.861h1.247v-1.248h1.249v1.248h1.248v1.249h-1.248V75.86h-1.249v1.249h-1.247zM338.548 105.815c.365 2.378 2.619 4.844 2.896 4.844.161-1.207.543-4.248.575-4.502-.884-1.082-3.857-3.084-3.471-.342"/><path fill="#7BD2FF" d="m355.974 91.088-9.238-1.397a2.473 2.473 0 0 0-2.796 2.1c-.941 6.695-2.67 20.249-3.046 23.07a2.44 2.44 0 0 0 .475 1.813 2.43 2.43 0 0 0 1.626.934c3.295.499 8.788 1.298 9.138 1.35.233-1.281 1.57-2.114 2.832-2.666 1.219-8.655 2.1-14.823 3.11-22.45a2.43 2.43 0 0 0-2.101-2.754"/><path fill="#fff" d="M354.177 93.637a2.504 2.504 0 0 1 2.101 2.796c-.349 2.997-.998 7.791-.998 7.791-1.909 14.093-.301 12.448-10.586 10.935a2.473 2.473 0 0 1-2.101-2.746c.15-1.099 2.147-16.328 2.347-17.578a2.43 2.43 0 0 1 .941-1.668 2.45 2.45 0 0 1 1.854-.479c1.2.2 5.744.85 6.442.95"/><path fill="#414141" d="M349.178 91.91a.38.38 0 0 1-.246-.148.38.38 0 0 1-.02-.417.38.38 0 0 1 .377-.177c4.227.632 4.385.53 4.311 1.025-.075.496-.231.343-4.422-.284M351.231 104.519l.599.05.049-.549-.599-.049zM347.884 104.769h-.598v.698h.598zM346.736 104.769h-.599v.698h.599zM347.288 105.468h-.599v.699h.599zM338.786 104.093c1.074-.464 2.891 1.009 3.401 1.647a.376.376 0 0 1-.586.468c-.6-.755-2.035-1.636-2.517-1.426-.18.075-.241.45-.164.988.513 3.337 3.355 4.523 2.685 5.168-.962.928-5.026-5.891-2.819-6.845"/><path fill="#fff" d="M355.466 108.3s-3.126.106-3.471-1.139c-.344-1.246 2.51-2.936 4.779-3.389 7.836-1.564 7.945 1.638 2.776 3.548 0 0 2.933.594 3.07 1.595.136 1.002-3.521 2.591-3.521 2.591s2.226-.027 2.518 1.165c.291 1.193-2.597 2.597-2.597 2.597s1.245.133 1.563 1.007c.319.874-1.695 1.934-3.365 2.626-4.931 2.036-7.494.232-1.749-2.941-4.074.691-5.234-1.501.186-3.656-4.564.069-5.205-2.157-.189-4.004"/><path fill="#414141" d="M360.339 107.361c1.398-.585 3.264-1.493 3.097-2.989-.479-3.677-14.176.4-11.604 3.276.464.696 1.486.851 2.351.884-4.282 1.583-2.938 4.009.437 4.012-4.307 1.762-3.729 3.769-.718 3.769.579 0-2.148.889-2.148 2.638 0 2.333 5.23.627 7.384-.414 1.344-.675 2.446-1.35 1.713-2.756-.112-.214-.763-.489-.992-.568 1.103-.525 2.515-1.421 2.251-2.612-.174-.8-1.254-1.272-2.012-1.264 1.411-.634 2.649-1.308 2.835-2.358.094-.519-.614-1.54-2.594-1.618m-7.892-.143c-.577-.929 2.066-2.251 3.03-2.605 1.426-.634 7.021-1.643 7.215-.15.25 2.239-9.222 4.39-10.244 2.755zm6.36 10.646c-1.389.671-4.762 1.914-6.139 1.337-.437-.174.103-1.035.505-1.364 3.669-3.011 10.167-2.239 5.635.027zm2.573-5.102c.583 2.671-12.779 4.074-8.116 1.272 1.944-1.11 7.744-2.967 8.116-1.273zm-.41-2.721c-7.016 3.997-14.896.032-1.401-1.903.804-.115 2.326.031 2.609.792-.131.498-.632.783-1.207 1.11z"/><path fill="#fff" d="M327.214 113.811c.062 3.105 4.551 2.748 4.494-.101-.056-2.801-4.556-3.035-4.494.101M325.465 125.442c.062 3.105 4.551 2.748 4.494-.1-.057-2.889-4.556-3-4.494.1M324.368 136.377c.062 3.106 4.607 2.747 4.493-.099-.117-2.961-4.554-2.927-4.493.099M276.181 86.839v-.45c5.153 0 9.79-2.057 11.485-7.141.34 0 .375-4.74.499-5.742.499-4.074 2.317-8.154-.1-13.832a7 7 0 0 0-1.148-1.997 22.9 22.9 0 0 0-8.239-1.8c-7.428-.363-9.886 1.914-10.436 1.547v.05c-1.398 3.046-2.131 6.725-3.246 9.088-1.398 2.963-2.759 3.29-3.196 3.945-4.758-3.172-8.059 2.46-5.992 5.742.991 1.576 3.246 3.196 4.744 2.996-.05 0-.2 4.794-.45 8.19-4.269 0-13.051 4.34-17.477 9.637 14.458-4.59 30.845 9.172 30.462 24.467-.075 3.101-1.5 4.393-1.5 5.343-4.894-.1-8.739-3.345-9.238-2.896-.355.356-.658.76-.9 1.201a18 18 0 0 1-1.698-1.951c.142-.143-.451.124 4.993-2.097l-1.598-3.545-6.142 2.396c-1.315-1.576-1.676-1.747-1.598-1.747l2.647-10.087-1.548-3.296-5.54 2.301-1.651-2.746-3.244 1.449 1.397 2.746-5.292 2.298 1.801 3.295c2.661-1.132.946-.434 8.438-3.396-1.035 4.145-.971 3.912-1.05 4.145-1.367-.654-4.375-1.317-5.293-.399-.87.773 3.175 1.05 5.642 2.845.464.328.884.714 1.249 1.149-.041.041-1.416-.812-1.748-.998-2.826-1.586-6.187-1.581-6.741-.751-.66.88 3.772.627 6.591 3.446-.54.18-2.426-1.898-6.292-1.898-.45 0-1.448 0-1.747.45-.632.948 4.407 1.511 6.642 3.745-.051.05-.35-.15-.35-.15-1.234-.705-3.559-1.726-5.194-1.698-.45.008-1.35.1-1.65.549-.826 1.24 4.282 1.772 6.192 3.296 2.288 1.827.266 4.877 8.738 7.64l.45.1c-.566 1.35-1.2 2.834-1.2 3.894.138.976 10.886 5.61 15.231 6.292 32.025 5.032 39.756-41.914 4.297-55.625"/><path fill="#005BC3" d="M252.313 96.628c-14.736-2.945-24.184 10.511-20.523 24.367 3.386 12.81 17.312 20.366 27.814 17.277l.1-.25c-1.801-.848-3.097-1.65-3.146-1.947a11.7 11.7 0 0 1 1.2-3.894l-.45-.1c-8.574-2.8-6.404-5.819-8.739-7.641-1.924-1.5-7.028-2.094-6.191-3.295.308-.443 1.2-.5 1.65-.549 1.689-.056 3.727.86 5.194 1.697.049 0 .3.2.35.15-2.131-2.13-7.303-2.88-6.642-3.745.812-1.062 4.857-.093 6.541.751.25.099 1.2.799 1.501.699a11.8 11.8 0 0 0-5.693-2.747c-2.966-.642 1.554-2.909 7.191.849q.183.152.399.25c-3.432-3.432-7.862-3.024-6.891-3.995s3.965-.236 5.293.4c.212-.142.007.474 1.149-4.095-7.593 3.119-5.784 2.367-8.439 3.495l-1.801-3.295 5.293-2.297-1.403-2.751 3.246-1.448 1.65 2.697 5.543-2.248 1.548 3.296-2.647 10.036c.075 0 1.405 1.517 1.599 1.749l6.141-2.398 1.599 3.546c-5.415 2.21-4.851 1.95-4.994 2.1a21 21 0 0 0 1.698 1.947q.401-.636.9-1.2c.45-.45 4.344 2.746 9.238 2.896.244-.642 4.616-7.077-2.259-18.336a25.804 25.804 0 0 0-17.019-11.971"/><path fill="#FDAF31" d="M284.47 74.859a1.65 1.65 0 1 0 1.651 1.65 1.625 1.625 0 0 0-1.017-1.53 1.6 1.6 0 0 0-.634-.12M267.843 72.159c-1.396 0-1.801 1.65-1.651 1.65a1.65 1.65 0 0 0 1.019 1.525 1.652 1.652 0 0 0 2.157-2.156 1.65 1.65 0 0 0-1.525-1.02"/><path fill="#414141" d="M257.356 132.508c-.316 0-4.922-1.489-6.844-4.098-.825-1.183-1.078-2.803-2.126-3.623-1.975-1.535-7.469-2.005-6.273-3.798.444-.666 1.629-.757 2.427-.711-.885-.341-2.426-.839-1.828-1.736.725-1.087 4.241-.331 2.584-.675-.913-.183-1.566-.702-1.126-1.292.901-1.355 4.638-.22 2.782-.816.15 0-1.13-.162-1.333-.833-.131-.43.317-.857.681-.975 1.875-.704 5.234.56 5.177.668 2.491 1.055 6.879 6.328 8.57 8.441 1.511 1.889 1.951 2.057 1.556 2.411-.679.609-2.326-2.769-6.458-6.903-.963-.997-2.842-2.813-4.11-3.37-.837-.368-3.876-1.144-4.628-.443.555.369 3.531.866 5.531 2.348.518.354.975.787 1.36 1.282.155.308-.139.855-.953.273-.375-.201-.87-.531-1.312-.776-2.741-1.553-5.577-1.406-6.173-.945.459.25 4.336.861 6.471 3.001a.378.378 0 0 1 .009.52.36.36 0 0 1-.159.101c-.534.175-1.488-.6-1.756-.706-2.66-1.328-5.619-1.355-6.058-.928.417.423 4.866 1.651 6.513 3.311.3.3-.019.962-.825.427-1.157-.658-3.426-1.69-4.973-1.635a1.96 1.96 0 0 0-1.35.382c-.038.664 4.388 1.453 6.11 2.791 2.591 2.026.164 4.817 8.629 7.578a.37.37 0 0 1 .197.162.37.37 0 0 1-.075.473.38.38 0 0 1-.237.094M260.852 76.88c-.658 0-.356-1.882-2.963-3.186a.37.37 0 0 1-.152-.496.377.377 0 0 1 .489-.173c2.296 1.148 3.626 3.855 2.626 3.855M275.182 66.791c-.075 0-6.449-2.596-6.577-2.851a.377.377 0 0 1 .169-.503c.225-.112.036-.082 3.155 1.205 3.431 1.418 3.802 1.475 3.595 1.931a.37.37 0 0 1-.342.218M283.677 66.43c1.967-1.684 3.823-1.437 4.776-.305a.376.376 0 0 1-.574.483c-.942-1.117-2.501-.648-3.713.393a.376.376 0 0 1-.488-.57zM278.559 83.578c-1.617 0-1.847-2.12.711-2.551 2.079-.528 1.435 2.55-.711 2.55m1.186-1.85a2.72 2.72 0 0 0-1.553.583c-.478.321.592.975 1.398.021a.61.61 0 0 0 .151-.602zM285.498 70.914c-.938-.727-2.32 2.793-.634 2.793 1.104 0 1.501-2.126.634-2.793M272.565 68.866c-.936-.718-2.417 2.991-.74 2.991 1.112 0 1.611-2.322.74-2.992M280.797 77.552c2.976-3.307-.891-1.229-.495-5.627.055-.252.055-.438.109-.657.082-.525.735-.9.735.15-.053.225-.048.396-.107.63-.138 1.747.421 2.077.751 2.343 1.451 1.164 1.002 2.059-.411 3.628-.334.377-.906-.107-.582-.467"/><path fill="#414141" d="M277.212 86.779c4.919-.31 8.622-2.476 10.294-6.033.746.11 1.538.567 2.972-.389 1.326-.88.761-2.435 1.541-3.13.708-.667 2.566.011 3.276-1.408.895-1.846-1.006-4.305-.862-6.078.201-2.488.251-4.987.15-7.481-.225-7.77-4.763-13.907-11.568-15.632-6.184-1.572-8.553.26-9.524.39-1.524.183-3.687-1.396-5.512-1.6-6.731-.642-13.27 6.147-15.129 12.808-.546 1.989-.844 4.25-1.992 5.875-1.359 1.924-5.302 2.507-4.194 6.078a3.92 3.92 0 0 0 3.597 2.709c1.027.055.945.035.993 1.166.15 3.499 4.211 3.264 4.536 2.895 1.024 1.383 2.889 2.667 4.41 2.737 0 .021-.279 5.83-.421 7.768-.252 2.898-.418 2.674-.315 2.891 3.213 6.716 13.575 7.428 17.007-3.06 34.678 13.817 26.794 59.522-4.577 54.709-4.591-.725-14.173-5.063-14.913-5.998-.008-2.052 4.184-9.988 5.617-11.665 1.838.444 12.582 8.778 20.844-4.841a.38.38 0 0 0-.018-.417.4.4 0 0 0-.108-.099c-1.536-.929-4.277 12.69-19.107 5.265-1.185-.594-1.726-.865-2.093-.497-1.61 1.84-5.907 9.939-5.882 12.384.199 1.372 11.412 5.957 15.545 6.61 10.864 1.668 20.59-3.134 25.06-11.734 7.374-14.204 1.621-35.456-19.627-44.223m-10.796-3.538a.376.376 0 0 0-.518.531c.155.205 3.746 4.838 8.984 5.352-4.051 7.944-12.069 6.135-14.651 1.08.475-2.926.636-9.924.734-10.804a.38.38 0 0 0-.196-.436.4.4 0 0 0-.167-.04c-1.833 0-3.635-1.484-4.483-2.83-1.888-3.001 1.13-8.114 5.493-5.209 1.216.709.613 1.846 1.341 1.746.75-.107.017-1.583-.557-2.101.685-.578.788-.56.884-.671 3.108-3.496 3.191-7.492 5.162-11.92a24.04 24.04 0 0 1 14.481-1.091c1.407.208 2.769.652 4.029 1.313.06.143.567 1.226.777 1.716 2.63 6.173.046 9.895-.02 15.722a10.7 10.7 0 0 1-.733 4.502c-3.131 7.358-14.825 7.3-20.56 3.14"/><path fill="#414141" d="M242.339 96.882c6.058-7.243 17.762-10.887 17.937-9.439a.38.38 0 0 1-.077.277.38.38 0 0 1-.251.14c-7.329.878-14.296 6.254-17 9.466a.377.377 0 1 1-.609-.444"/><path fill="#fff" d="M242.504 96.773c-6.677 2.25-10.891 8.636-10.891 14.195a22.6 22.6 0 0 0 1.4 7.254 17.3 17.3 0 0 0-1.507 2.608.381.381 0 0 0-.021.288.38.38 0 0 0 .333.255.369.369 0 0 0 .273-.092.4.4 0 0 0 .09-.116c.425-.851.862-1.567 1.17-2.075a27 27 0 0 0 1.586 3.258c-.27.318-.703 1.06-1.659 2.54a.37.37 0 0 0 .006.417q.043.06.105.102a.364.364 0 0 0 .283.051.36.36 0 0 0 .236-.163c.732-1.13 1.196-1.806 1.453-2.23a29.4 29.4 0 0 0 2.575 3.571c-1.376 2.021-2.707 3.376-1.65 3.376a.38.38 0 0 0 .324-.185c.416-.707 1.073-1.5 1.83-2.602a30 30 0 0 0 2.681 2.664 45 45 0 0 1-1.854 2.879.374.374 0 0 0 .53.53c.15-.15 1.263-1.818 1.904-2.916a28 28 0 0 0 3.092 2.233q-1.043 1.353-1.932 2.811a.37.37 0 0 0 .115.518.38.38 0 0 0 .283.05.38.38 0 0 0 .235-.165c.887-1.394 1.587-2.31 1.945-2.825a25 25 0 0 0 4.081 1.921c-.505.71-1.14 2.048-1.69 2.707a.38.38 0 0 0-.051.399.38.38 0 0 0 .339.217c.457 0 1.576-2.184 2.219-3.044 1.704.553 3.472.881 5.26.975a22 22 0 0 1-1.45 2.485.38.38 0 0 0 .136.539.37.37 0 0 0 .353 0 .4.4 0 0 0 .136-.122c.015-.024 1.466-2.371 1.644-2.88h.091a.38.38 0 0 0 .375-.375.375.375 0 0 0-.375-.375c-11.795.009-23.898-11.983-24.142-24.492 0-5.227 4.021-11.334 10.374-13.474 14.04-4.456 30.358 8.801 29.972 24.1-.088 3.503-2.079 4.945-1.292 5.338a.376.376 0 0 0 .504-.167c.92-1.84 1.485-3.072 1.538-5.151.395-15.742-16.371-29.463-30.957-24.832M287.58 58.02c-2.776-4.147-5.447-6.633-8.879-2.901-1.085-1.694-4.154-3.021-5.655-2.698-1.981.495-3.834 1.887-5.143 4.882-.375.458.407.962.636.422a10 10 0 0 1 1.857-2.902c1.403-.43 4.272.571 4.883 1.135a.375.375 0 0 0 .53-.02c.811-.882-3.124-1.929-4.435-1.967a5.8 5.8 0 0 1 1.841-.817c1.258-.271 4.127 1.028 4.929 2.497.869 1.731 2.358-3.676 6.028-.643-.743.033-3.267.422-2.882 1.192.328.66.593-.45 3.661-.443.76.821 1.432 1.72 2.005 2.681a.376.376 0 0 0 .624-.419"/><path fill="#7BD2FF" d="M309.038 41.204c-1.141-4.922-4.846-.871-5.692-5.943a10 10 0 0 0-.3-1.248c-1.084-2.95-4.37-4.068-4.594-3.395-.075.156.225.525.4.349.509.046 1.002.2 1.448.45 4.169 2.48.9 6.319 5.642 7.34 3.728.803 1.77 3.486 3.945 4.894a.25.25 0 0 0 .278.015.25.25 0 0 0 .12-.25.25.25 0 0 0-.098-.165 2.821 2.821 0 0 1-1.149-2.048M308.04 46.497c-1.511-.375-1.716-2.326-3.146-3.095-1.367-.733-2.933.165-4.245-.3-1.121-.397-1.569-1.72-2.447-2.947-2.199-2.588-5.442-2.258-5.442-1.65a.284.284 0 0 0 .363.238.3.3 0 0 0 .136-.089c.808-.403 3.125.045 4.595 1.801.666.796 1.221 2.617 2.646 3.097s2.762-.438 4.145.2c1.342.731 1.529 2.7 3.295 3.145.296 0 .411-.244.1-.4M313.781 41.456c-1.003-1.185.029-2.828-.699-4.344-.71-1.477-2.476-1.61-3.246-2.696-.75-1.063-.199-2.836-.3-3.846-.338-3.397-3.156-5.053-3.496-4.543-.124.248.11.494.3.399a4.77 4.77 0 0 1 2.647 4.144c.035 1.726-.425 2.915.35 4.045.834 1.216 2.626 1.369 3.196 2.596.675 1.24-.437 2.974.799 4.495.229.23.679-.02.449-.25"/></g><rect width="373.511" height="143.511" x=".745" y=".745" stroke="url(#c)" stroke-opacity=".08" stroke-width=".511" rx="10.255"/><defs><linearGradient id="b" x1="42.663" x2="213.928" y1="15.809" y2="76.544" gradientUnits="userSpaceOnUse"><stop stop-color="#003F88"/><stop offset=".65" stop-color="#03BCFF"/><stop offset="1" stop-color="#0076FF"/></linearGradient><linearGradient id="c" x1="47.195" x2="387.35" y1="20.571" y2="83.69" gradientUnits="userSpaceOnUse"><stop stop-color="#003F88"/><stop offset=".65" stop-color="#02D4FF"/><stop offset="1" stop-color="#0076FF"/></linearGradient><clipPath id="a"><rect width="373" height="143" x="1" y="1" fill="#fff" rx="10"/></clipPath></defs></svg>