<svg width="371" height="89" viewBox="0 0 371 89" fill="none" xmlns="http://www.w3.org/2000/svg">
<g clip-path="url(#clip0_1453_104666)">
<rect x="1" y="1" width="369" height="87" rx="10" fill="#E3F0FF"/>
<path d="M377.084 95C296.33 92.8622 277.805 89.9437 273.923 85.0076C270.513 79.8432 270.514 79.8432 310.026 51.175C327.936 38.1921 356.262 17.6307 365.471 8.8393C342.309 5.10436 318.976 2.55099 295.561 1.18883C294.632 1.38862 293.664 1.28473 292.796 0.892062C291.928 0.499392 291.206 -0.161891 290.731 -0.997006C290.318 -1.71037 290.1 -2.52271 290.1 -3.35016C290.099 -4.1776 290.317 -4.99015 290.729 -5.70386C291.142 -6.41756 291.735 -7.00657 292.447 -7.41003C293.159 -7.81349 293.964 -8.01678 294.78 -7.99892C295.963 -7.99892 374.894 -4.51598 376.953 5.8848C377.699 11.8178 370.502 18.5795 315.258 58.6453C304.605 66.3318 293.075 74.7389 286.458 79.9033C307.706 82.9538 367.507 85.1517 377.344 85.8242C378.488 85.939 379.546 86.4879 380.308 87.3609C381.07 88.2339 381.478 89.3666 381.452 90.5322C381.411 91.6979 380.939 92.8052 380.129 93.6332C379.32 94.4613 378.232 94.9494 377.084 95Z" fill="#C8E2FF"/>
<path d="M324.586 40.1603C323.875 38.9567 324.18 38.3868 323.687 37.643C323.197 36.8991 322.82 36.8103 320.693 37.2488C319.219 37.5541 318.398 38.3269 318.398 38.3269C318.398 38.3269 319.199 36.1611 320.615 35.7612C321.916 35.3941 323.969 34.0823 323.689 32.784C323.521 32.0054 321.493 33.2148 320.606 33.5529C318.231 34.4532 316.348 36.8006 315.312 38.6264C314.279 40.4502 315.272 44.5402 313.492 48.7732C310.747 55.2937 302.714 63.4428 298.465 69.9073C296.274 73.238 301.844 88.2902 306.8 87.2643C313.268 85.9274 315.826 62.0981 318.347 53.8852C319.63 49.6928 321.062 50.2125 321.684 48.2805C322.045 47.1638 321.535 46.5398 321.976 46.6093C322.683 46.7195 324.377 46.3157 324.785 45.4057C325.158 44.5711 325.169 43.0313 325.134 42.7898C325.028 42.0943 325.301 41.362 324.586 40.1603Z" fill="white"/>
<path d="M325.313 42.1986C325.315 41.6538 325.315 40.9737 324.768 40.0541C324.403 39.4359 324.32 38.9896 324.244 38.5974C324.177 38.24 324.113 37.9057 323.864 37.529C323.543 37.0402 323.232 36.7755 322.519 36.7755C322.123 36.7755 321.584 36.8547 320.657 37.046C319.907 37.2005 319.322 37.471 318.916 37.7086C319.262 37.0711 319.866 36.1882 320.678 35.9583C321.924 35.6047 324.223 34.2562 323.895 32.7395C323.862 32.5831 323.74 32.3203 323.303 32.3203C322.789 32.3203 321.99 32.6951 321.284 33.0255C320.999 33.1588 320.74 33.2824 320.537 33.3597C317.617 34.4667 315.666 37.5927 315.137 38.5239C314.662 39.3644 314.594 40.6434 314.517 42.1233C314.418 44.0031 314.296 46.3408 313.305 48.692C311.613 52.7125 307.886 57.3686 304.283 61.8721C302.036 64.6793 299.913 67.33 298.296 69.7933C296.897 71.9204 298.481 78.1434 300.776 82.4015C301.808 84.3122 303.897 87.5193 306.31 87.5193C306.489 87.5193 306.667 87.5 306.841 87.4652C311.696 86.4606 314.316 73.5858 316.424 63.24C317.196 59.4359 317.865 56.1515 318.543 53.9432C319.298 51.4838 320.104 50.6762 320.751 50.029C321.215 49.5653 321.615 49.1654 321.879 48.3423C322.078 47.7338 322.03 47.2508 322.003 46.961C321.999 46.9127 321.993 46.8586 321.991 46.8161C322.065 46.8257 322.146 46.8296 322.235 46.8296C323.097 46.8296 324.563 46.4026 324.973 45.4869C325.365 44.6136 325.38 43.0429 325.338 42.7589C325.313 42.5831 325.313 42.3976 325.313 42.1986ZM324.598 45.3188C324.244 46.1032 322.689 46.5089 322.007 46.4046C321.81 46.3717 321.719 46.4413 321.667 46.4992C321.555 46.6209 321.572 46.7794 321.594 47.0035C321.621 47.2778 321.659 47.6893 321.487 48.2187C321.253 48.9471 320.904 49.2967 320.461 49.7411C319.779 50.4212 318.933 51.2674 318.151 53.8253C317.469 56.051 316.798 59.345 316.022 63.1607C314.049 72.8478 311.35 86.1148 306.76 87.0653C305.046 87.4169 302.981 85.6144 301.141 82.2063C298.663 77.6082 297.473 71.8006 298.641 70.0193C300.249 67.5734 302.366 64.9285 304.606 62.1291C308.228 57.6043 311.972 52.9231 313.686 48.8524C314.704 46.4335 314.83 44.0572 314.928 42.1445C315.004 40.7148 315.067 39.4803 315.496 38.7249C316.008 37.8226 317.892 34.8029 320.684 33.7423C320.892 33.6611 321.163 33.5356 321.456 33.3964C322.09 33.0989 322.878 32.728 323.301 32.728C323.47 32.728 323.481 32.782 323.491 32.8226C323.726 33.9181 321.916 35.1758 320.564 35.5583C319.063 35.9834 318.24 38.1588 318.205 38.2496L317.902 39.0707L318.539 38.4698C318.547 38.4641 319.337 37.7357 320.74 37.4459C321.634 37.2604 322.148 37.1851 322.517 37.1851C323.056 37.1851 323.255 37.3512 323.518 37.7512C323.721 38.0583 323.771 38.3288 323.837 38.6708C323.912 39.0746 324.009 39.5788 324.412 40.2608C324.901 41.0838 324.901 41.6731 324.899 42.1948C324.899 42.4073 324.899 42.6082 324.93 42.8149C324.963 43.0429 324.947 44.5363 324.598 45.3188Z" fill="black"/>
<path d="M335.177 22.808C335.007 21.9811 334.267 21.3918 333.421 21.4189C331.972 21.4652 329.526 21.6507 326.425 22.2921C323.5 22.8988 321.302 23.66 320.003 24.1797C319.215 24.4946 318.761 25.3234 318.935 26.1561L322.345 42.6515C322.517 43.4822 323.261 44.0638 324.107 44.0406C325.51 44.0019 327.828 43.8319 330.749 43.2272C333.854 42.5858 336.174 41.7859 337.523 41.2546C338.309 40.9455 338.755 40.109 338.583 39.284L335.177 22.808ZM326.974 24.966C323.236 25.7407 320.123 25.9745 320.023 25.4896C319.922 25.0027 322.874 23.9846 326.613 23.2098C330.353 22.437 333.466 22.2033 333.566 22.6863C333.668 23.1751 330.716 24.1951 326.974 24.966Z" fill="#003F88"/>
<path d="M335.366 22.7693C335.181 21.8651 334.393 21.2256 333.479 21.2256C333.458 21.2256 333.436 21.2256 333.415 21.2275C331.906 21.2758 329.462 21.4671 326.385 22.1046C323.442 22.7152 321.251 23.4725 319.93 24.0019C319.051 24.3535 318.552 25.275 318.745 26.1966L322.155 42.692C322.343 43.5942 323.135 44.2356 324.053 44.2356C324.072 44.2356 324.093 44.2357 324.111 44.2337C325.536 44.1951 327.857 44.0231 330.788 43.4165C333.861 42.7828 336.184 41.9907 337.59 41.4362C338.465 41.0923 338.962 40.1727 338.769 39.2453L335.366 22.7693ZM337.453 41.0768C336.058 41.6236 333.757 42.408 330.71 43.0397C327.806 43.6406 325.515 43.8087 324.101 43.8493C324.085 43.8493 324.07 43.8493 324.054 43.8493C323.316 43.8493 322.681 43.3353 322.532 42.6128L319.122 26.1174C318.97 25.3813 319.369 24.6414 320.073 24.3612C321.379 23.8376 323.548 23.0861 326.464 22.4814C329.512 21.8516 331.933 21.6603 333.425 21.612C333.444 21.612 333.461 21.612 333.477 21.612C334.207 21.612 334.837 22.124 334.986 22.8485L338.392 39.3245C338.548 40.0645 338.15 40.8025 337.453 41.0768Z" fill="#000100"/>
<path d="M326.57 23.0231C325.859 23.1699 319.617 24.4914 319.831 25.5308C319.843 25.5927 319.881 25.6815 319.994 25.7549C320.189 25.8805 320.602 25.9365 321.166 25.9365C322.582 25.9365 324.934 25.5869 327.011 25.156C329.916 24.559 333.245 23.6008 333.691 22.9226C333.765 22.8086 333.765 22.714 333.751 22.6502C333.539 21.6166 327.283 22.8743 326.57 23.0231ZM326.931 24.7793C323.114 25.5695 320.604 25.6719 320.227 25.4497C320.484 25.0923 322.824 24.1939 326.649 23.4018C330.471 22.6135 332.971 22.513 333.355 22.7333C333.094 23.0926 330.755 23.9891 326.931 24.7793Z" fill="#000100"/>
<path d="M322.3 38.6074C321.052 38.8644 320.15 38.8084 319.611 38.4355C318.817 37.8849 318.595 36.4764 318.363 34.9888C318.284 34.4903 318.205 33.988 318.102 33.5012C318.006 33.0317 318.069 32.6549 318.307 32.3168C318.929 31.4185 320.55 30.9992 321.128 30.9084C321.688 30.8234 322.105 30.2883 322.02 29.7106C321.935 29.131 321.398 28.7311 320.82 28.8161C320.519 28.8586 317.837 29.2971 316.576 31.0978C316.004 31.915 315.817 32.8945 316.031 33.9281C316.124 34.3821 316.197 34.8497 316.269 35.3172C316.562 37.1797 316.866 39.1097 318.403 40.1762C319.451 40.9007 320.863 41.0649 322.725 40.6804C323.297 40.5626 323.666 40.0023 323.548 39.4324C323.431 38.8566 322.872 38.4876 322.3 38.6074Z" fill="#003F88"/>
<path d="M322.258 38.4173C321.066 38.6588 320.208 38.6143 319.72 38.2762C318.987 37.7662 318.767 36.3384 318.553 34.9571L318.545 34.9068C318.47 34.4296 318.39 33.935 318.29 33.4617C318.205 33.0405 318.257 32.7217 318.466 32.4261C319.043 31.5935 320.604 31.1858 321.155 31.1008C321.837 30.9984 322.31 30.3628 322.21 29.6846C322.164 29.3543 321.988 29.0625 321.719 28.8616C321.451 28.6607 321.126 28.5795 320.792 28.6278C320.483 28.6723 317.73 29.1166 316.416 30.9887C315.815 31.8485 315.616 32.8801 315.84 33.9679C315.931 34.4161 316.002 34.8759 316.078 35.3628C316.377 37.2619 316.688 39.2268 318.294 40.3357C319.007 40.8303 319.88 41.0757 320.935 41.0757C321.493 41.0757 322.102 41.008 322.764 40.8709C323.091 40.8052 323.371 40.6139 323.557 40.3357C323.74 40.0536 323.804 39.7213 323.736 39.3929C323.593 38.7109 322.925 38.2724 322.258 38.4173ZM323.236 40.1174C323.108 40.3106 322.913 40.442 322.687 40.4883C320.883 40.8651 319.515 40.7047 318.514 40.015C317.046 38.9988 316.75 37.117 316.46 35.2855C316.387 34.8083 316.313 34.3427 316.221 33.8867C316.02 32.9033 316.196 31.9779 316.737 31.207C317.956 29.4682 320.558 29.049 320.852 29.0046C320.892 28.9988 320.937 28.9949 320.977 28.9949C321.163 28.9949 321.341 29.0548 321.493 29.1668C321.679 29.304 321.798 29.5069 321.833 29.7368C321.901 30.1966 321.565 30.6468 321.101 30.7163C320.357 30.8342 318.783 31.294 318.153 32.204C317.886 32.5807 317.809 33.0192 317.917 33.539C318.014 34.0026 318.093 34.4914 318.168 34.9648L318.176 35.015C318.412 36.5432 318.634 37.9864 319.505 38.5911C320.087 38.9949 321.041 39.0625 322.343 38.794C322.799 38.7051 323.265 38.9969 323.365 39.4663C323.408 39.6924 323.361 39.9242 323.236 40.1174Z" fill="#000100"/>
<path d="M326.609 23.212C322.87 23.9848 319.918 25.0049 320.019 25.4918C320.119 25.9767 323.231 25.743 326.97 24.9682C330.712 24.1974 333.664 23.1753 333.562 22.6904C333.461 22.2074 330.347 22.4392 326.609 23.212Z" fill="#000100"/>
<path d="M319.515 34.0377C319.152 34.3178 318.891 35.9581 318.501 36.6265C318.11 37.2931 316.795 39.938 316.795 39.938L319.069 47.4921C322.732 43.659 319.511 40.9716 321.167 37.3163C321.951 35.5813 320.57 33.2243 319.515 34.0377Z" fill="white"/>
<path d="M319.389 33.8729C319.149 34.0584 319 34.5259 318.776 35.2775C318.635 35.7508 318.488 36.2415 318.324 36.5236C317.934 37.1882 316.666 39.7385 316.61 39.8466L316.979 40.0302C316.993 40.0031 318.297 37.3853 318.68 36.7323C318.869 36.4096 319.023 35.8938 319.17 35.3972C319.307 34.9413 319.495 34.3134 319.64 34.2014C319.871 34.0236 320.127 34.0391 320.399 34.2535C320.992 34.723 321.498 36.0831 320.981 37.2327C320.27 38.8034 320.428 40.1963 320.581 41.5449C320.793 43.415 320.996 45.179 318.921 47.3505L319.219 47.6364C321.427 45.3258 321.205 43.3803 320.992 41.4985C320.838 40.1461 320.693 38.8691 321.355 37.4027C321.929 36.1372 321.448 34.5568 320.658 33.9309C320.235 33.5966 319.773 33.5754 319.389 33.8729Z" fill="black"/>
<path d="M290.317 35.1885C277.954 35.1885 272.438 37.9937 269.262 42.5204C260.5 55.0107 264.996 78.4149 264.963 87.8044L313.926 87.5957C313.514 71.6336 311.758 60.799 306.634 46.0617C304.065 38.6796 304.712 35.1885 290.317 35.1885Z" fill="#003F88"/>
<path d="M306.067 43.7287C304.214 37.9134 303.287 34.9961 290.317 34.9961C279.094 34.9961 272.75 37.2121 269.102 42.4092C262.209 52.2392 263.486 68.92 264.33 79.9575C264.57 83.0757 264.778 85.7709 264.769 87.8072C264.769 87.8574 264.79 87.9076 264.825 87.9424C264.861 87.981 264.91 87.9984 264.96 87.9984L313.922 87.7898C313.975 87.7898 314.025 87.7685 314.06 87.7318C314.098 87.6951 314.116 87.6449 314.114 87.5927C313.691 71.1727 311.78 60.2878 306.811 46.0007C306.534 45.197 306.293 44.4397 306.067 43.7287ZM265.155 87.612C265.149 85.5854 264.948 82.9579 264.716 79.9285C263.874 68.9451 262.603 52.3473 269.419 42.6313C272.985 37.5502 279.233 35.3806 290.315 35.3806C303.001 35.3806 303.847 38.0332 305.698 43.8446C305.926 44.5595 306.167 45.3187 306.449 46.1263C311.384 60.3149 313.295 71.1379 313.727 87.4034L265.155 87.612Z" fill="#000100"/>
<path d="M291.523 67.1389C291.782 61.7544 290.042 56.7834 289.918 51.3951C289.819 47.0539 289.56 43.3 286.985 39.6505C286.007 38.2633 285.832 36.5438 286.216 34.9248C276.434 35.7884 272.076 38.5222 269.271 42.5233C260.507 55.0137 263.073 78.4198 263.04 87.8074H294.535C294.533 76.6578 291.158 74.7258 291.523 67.1389Z" fill="#22CAFF"/>
<path d="M291.716 67.1493C291.859 64.1625 291.384 61.2568 290.926 58.4476C290.553 56.1602 290.167 53.7973 290.111 51.392C290.007 46.9156 289.725 43.1984 287.143 39.5392C286.264 38.2911 286.002 36.6702 286.403 34.97C286.419 34.9101 286.404 34.8464 286.361 34.7981C286.32 34.7498 286.255 34.7324 286.199 34.7324C277.455 35.5033 272.343 37.8023 269.108 42.4121C261.734 52.9241 262.346 71.2684 262.713 82.2305C262.785 84.4059 262.849 86.2838 262.843 87.8082C262.843 87.8584 262.864 87.9086 262.899 87.9434C262.936 87.982 262.984 87.9994 263.034 87.9994H294.529C294.636 87.9994 294.723 87.9144 294.723 87.8062C294.723 81.8866 293.774 78.5481 292.938 75.6038C292.194 72.9705 291.545 70.6946 291.716 67.1493ZM263.231 87.615C263.231 86.1215 263.171 84.3054 263.102 82.217C262.739 71.3051 262.126 53.0381 269.427 42.6343C272.557 38.1714 277.512 35.9244 285.971 35.142C285.625 36.8557 285.926 38.4882 286.827 39.7633C289.344 43.3336 289.622 46.9909 289.723 51.3997C289.779 53.834 290.167 56.2104 290.544 58.5114C290.998 61.3012 291.469 64.1876 291.328 67.132C291.154 70.739 291.809 73.0458 292.569 75.71C293.39 78.5983 294.317 81.8692 294.338 87.615H263.231Z" fill="#000100"/>
<path d="M300.491 36.1006C299.583 35.7258 296.681 35.1211 296.681 35.1211C296.681 35.1211 309.79 53.2838 309.79 87.8066H315.588C314.091 72.0145 313.217 61.1528 308.094 46.4155C306.401 41.5508 304.732 37.851 300.491 36.1006Z" fill="#22CAFF"/>
<path d="M308.273 46.352C306.663 41.7248 304.971 37.743 300.562 35.923C299.646 35.5444 296.837 34.959 296.719 34.9339C296.64 34.9145 296.561 34.9512 296.518 35.0169C296.474 35.0845 296.478 35.1715 296.524 35.2352C296.654 35.4168 309.598 53.7534 309.598 87.8068C309.598 87.915 309.683 87.9999 309.791 87.9999H315.589C315.643 87.9999 315.695 87.9768 315.732 87.9381C315.769 87.8995 315.786 87.8435 315.78 87.7894L315.606 85.952C314.212 71.1935 313.203 60.5309 308.273 46.352ZM309.98 87.6135C309.936 56.3152 298.987 38.2762 297.108 35.4091C297.962 35.5965 299.751 36.0022 300.415 36.2785C304.675 38.0366 306.331 41.9393 307.909 46.4775C312.824 60.612 313.827 71.2554 315.22 85.983L315.373 87.6116H309.98V87.6135Z" fill="#000100"/>
<path d="M294.724 6.1444C290.701 7.70738 289.911 15.1436 289.911 15.1436C287.85 14.7611 286.271 15.8449 286.132 17.9354C285.943 20.7793 288.143 22.3287 288.143 22.3287C286.735 29.906 284.836 34.8287 284.836 34.8287C284.836 34.8287 288.261 39.8693 294.579 39.8693C298.624 39.8693 296.797 35.3368 296.797 35.3368C295.732 33.3102 296.146 30.1842 296.146 30.1842C303.277 31.5115 306.549 23.8898 306.321 20.5629C306.093 17.2341 306.323 16.0092 306.532 14.2105C307.129 9.02306 298.746 4.58335 294.724 6.1444Z" fill="white"/>
<path d="M296.61 5.62207C295.876 5.62207 295.215 5.73414 294.649 5.95245C290.899 7.41111 289.896 13.6379 289.73 14.9073C289.521 14.8763 289.313 14.8628 289.112 14.8628C287.299 14.8628 286.049 16.0645 285.926 17.925C285.752 20.5178 287.462 22.0576 287.916 22.4188C286.53 29.8184 284.66 34.7063 284.643 34.7566L284.602 34.859L284.662 34.9478C284.699 34.9981 288.227 40.0792 294.577 40.0792C295.713 40.0792 296.525 39.7334 296.984 39.0514C297.931 37.6488 297.025 35.3632 296.979 35.2473C296.115 33.6012 296.26 31.1611 296.326 30.4308C296.811 30.5081 297.292 30.5506 297.757 30.5506C299.966 30.5506 301.975 29.6464 303.571 27.9347C305.665 25.6916 306.656 22.4575 306.525 20.5545C306.322 17.6255 306.48 16.333 306.662 14.8377L306.733 14.2407C306.917 12.6623 306.31 11.0433 304.987 9.55562C302.956 7.27393 299.432 5.62207 296.61 5.62207ZM306.258 14.7855C306.073 16.3021 305.912 17.612 306.117 20.5796C306.243 22.3956 305.286 25.4926 303.273 27.6507C301.756 29.2755 299.85 30.1333 297.759 30.1333C297.247 30.1333 296.718 30.0831 296.185 29.9845L295.972 29.9459L295.943 30.1603C295.926 30.2898 295.534 33.3752 296.608 35.4173C296.616 35.4405 297.467 37.6005 296.646 38.8195C296.268 39.3818 295.57 39.6677 294.581 39.6677C288.901 39.6677 285.555 35.4559 285.068 34.799C285.348 34.0417 287.064 29.2794 288.347 22.3686L288.372 22.2392L288.263 22.1638C288.242 22.1484 286.16 20.6414 286.339 17.9501C286.449 16.3002 287.512 15.2743 289.114 15.2743C289.359 15.2743 289.614 15.2994 289.875 15.3458L290.093 15.3864L290.116 15.1661C290.124 15.0927 290.939 7.83614 294.801 6.33691C295.319 6.13599 295.93 6.03359 296.614 6.03359C299.328 6.03359 302.723 7.62942 304.685 9.82996C305.932 11.2249 306.5 12.7337 306.331 14.1924L306.258 14.7855Z" fill="black"/>
<path d="M299.281 13.1963C299.186 13.1982 296.974 13.2775 295.291 15.1476C295.208 15.2404 295.214 15.3852 295.309 15.4703C295.353 15.5108 295.407 15.5282 295.461 15.5282C295.523 15.5282 295.587 15.5012 295.631 15.4529C297.179 13.7334 299.273 13.6523 299.292 13.6523C299.42 13.6484 299.519 13.5441 299.515 13.4185C299.511 13.2929 299.399 13.2059 299.281 13.1963Z" fill="black"/>
<path d="M305.429 16.7578C303.785 16.5183 302.537 15.4402 302.523 15.4286C302.427 15.3475 302.286 15.3552 302.203 15.4518C302.118 15.5465 302.129 15.6894 302.222 15.7725C302.278 15.8208 303.584 16.951 305.364 17.208C305.375 17.2099 305.387 17.2099 305.396 17.2099C305.508 17.2099 305.605 17.1288 305.622 17.0148C305.64 16.8931 305.553 16.7771 305.429 16.7578Z" fill="black"/>
<path d="M302.143 20.9103C301.727 20.8175 301.258 21.0378 300.75 21.5652C300.661 21.656 300.665 21.8009 300.755 21.8879C300.798 21.9285 300.858 21.9516 300.914 21.9516C300.972 21.9516 301.032 21.9284 301.078 21.8821C301.463 21.4841 301.799 21.2986 302.042 21.3566C302.315 21.4145 302.442 21.7565 302.444 21.7642C302.485 21.8821 302.616 21.9458 302.732 21.9033C302.854 21.8628 302.915 21.7314 302.873 21.6135C302.867 21.5865 302.664 21.0243 302.143 20.9103Z" fill="black"/>
<path d="M296.972 16.3881C296.643 16.5195 296.47 16.8614 296.585 17.1512C296.703 17.4372 297.063 17.5647 297.393 17.4314C297.723 17.2981 297.897 16.9561 297.781 16.6682C297.664 16.3804 297.304 16.2528 296.972 16.3881Z" fill="black"/>
<path d="M303.93 17.6821C303.6 17.8135 303.424 18.1555 303.542 18.4453C303.658 18.7312 304.019 18.8587 304.349 18.7273C304.68 18.594 304.854 18.2521 304.736 17.9642C304.622 17.6744 304.26 17.5488 303.93 17.6821Z" fill="black"/>
<path d="M299.331 23.9299C298.009 24.6486 296.728 22.6432 296.715 22.622C296.647 22.5138 296.508 22.4848 296.4 22.5505C296.294 22.6162 296.261 22.7572 296.327 22.8654C296.377 22.9465 297.401 24.5501 298.72 24.5501C298.987 24.5501 299.265 24.4844 299.549 24.3318C299.661 24.2719 299.702 24.1309 299.642 24.0207C299.58 23.9106 299.443 23.87 299.331 23.9299Z" fill="black"/>
<path d="M287.995 16.3508C287.499 16.6078 287.176 17.1294 287.033 17.9022C287.01 18.0278 287.091 18.1456 287.215 18.1688C287.23 18.1727 287.246 18.1727 287.259 18.1727C287.367 18.1727 287.462 18.0973 287.483 17.9853C287.599 17.3613 287.841 16.9478 288.204 16.7585C288.739 16.4783 289.385 16.7662 289.392 16.7682C289.506 16.8203 289.643 16.7681 289.694 16.6542C289.746 16.5402 289.696 16.403 289.58 16.3528C289.545 16.3373 288.73 15.9702 287.995 16.3508Z" fill="black"/>
<path d="M287.48 17.3832C287.358 17.3619 287.235 17.445 287.213 17.5687C287.192 17.6923 287.275 17.8121 287.399 17.8353C288.66 18.0594 288.796 18.9404 288.801 18.9887C288.815 19.1046 288.915 19.1896 289.027 19.1896C289.037 19.1896 289.045 19.1896 289.054 19.1877C289.18 19.1742 289.269 19.0602 289.255 18.9346C289.248 18.8824 289.091 17.6711 287.48 17.3832Z" fill="black"/>
<path d="M296.514 0.526901C291.042 0.117318 289.089 4.52034 289.089 4.52034C280.202 0.886254 278.902 16.3944 276.63 20.4458C273.925 25.268 272.335 32.0435 265.664 34.2673C258.994 36.4891 262.178 40.0459 262.178 40.0459C258.844 44.6401 265.461 49.1997 265.461 49.1997C265.461 49.1997 268.649 42.4666 272.246 39.6633C275.436 37.1711 278.884 36.1432 282.516 36.1432C286.145 36.1432 284.804 50.4168 289.582 50.4168C293.042 50.4168 293.368 46.8271 293.368 46.8271C293.368 46.8271 299.506 43.367 293.104 37.1324C285.117 29.3542 290.519 22.571 288.365 22.171C287.381 21.9875 286.574 20.1367 286.334 19.1861C285.652 16.5064 287.569 14.9415 290.293 15.3511C295.679 16.1645 296.183 7.32946 296.183 7.32946C303.844 8.75334 306.332 17.1421 306.332 17.1421C310.577 10.5404 306.091 1.23981 296.514 0.526901Z" fill="#000100"/>
<path d="M304.765 78.97C302.506 79.7737 299.89 77.9499 298.6 78.7962C297.541 79.4878 298.061 82.0342 302.653 81.8158C307.244 81.5975 307.029 78.1702 304.765 78.97Z" fill="white"/>
<path d="M304.701 78.7885C303.584 79.1826 302.338 78.9025 301.242 78.6533C300.139 78.4002 299.183 78.1857 298.493 78.6359C298.014 78.9489 297.823 79.5633 298.018 80.166C298.165 80.6162 298.882 82.0246 302.092 82.0246C302.274 82.0246 302.462 82.0188 302.661 82.0092C304.944 81.901 306.099 81.0007 306.42 80.1912C306.602 79.7352 306.538 79.2831 306.248 78.9837C305.912 78.632 305.346 78.5625 304.701 78.7885ZM306.063 80.0482C305.785 80.7437 304.741 81.5242 302.641 81.6247C299.934 81.7329 298.659 80.8944 298.385 80.0462C298.246 79.6135 298.373 79.1769 298.704 78.9624C298.922 78.8175 299.193 78.7615 299.502 78.7615C299.975 78.7615 300.539 78.889 301.156 79.032C302.303 79.2947 303.605 79.5922 304.828 79.1537C305.321 78.9779 305.74 79.0146 305.97 79.2522C306.154 79.4377 306.184 79.7352 306.063 80.0482Z" fill="#000100"/>
<path d="M288.317 79.4287C286.232 78.2502 281.381 72.3518 275.409 69.7301C274.122 69.164 278.709 60.4314 278.709 60.4314C272.969 56.2756 263.867 57.0658 263.867 57.0658C263.867 57.0658 259.907 69.2683 261.616 72.8464C265.357 80.6825 280.73 83.0222 285.011 84.7958C287.702 85.9086 287.805 85.8796 289.433 85.8796C294.623 85.8796 294.23 83.2579 295.554 84.7532C297.003 86.3935 307.329 85.8796 307.329 85.8796C307.329 85.8796 303.817 82.1876 301.062 79.3147C298.311 76.436 291.866 81.438 288.317 79.4287Z" fill="white"/>
<path d="M301.203 79.1753C299.682 77.5872 297.09 78.2808 294.582 78.955C292.346 79.5559 290.034 80.176 288.415 79.2603C287.731 78.8739 286.734 77.9581 285.471 76.7989C282.943 74.4824 279.481 71.3062 275.49 69.552C275.478 69.5462 275.443 69.5307 275.413 69.4477C275.013 68.3039 277.783 62.6161 278.882 60.5199C278.927 60.4349 278.904 60.3286 278.826 60.2726C273.092 56.1208 263.942 56.8607 263.853 56.8704C263.776 56.8781 263.712 56.9283 263.687 57.0018C263.525 57.5041 259.723 69.3202 261.448 72.9253C264.385 79.0767 274.17 81.8221 280.646 83.6362C282.441 84.1405 283.989 84.5732 284.945 84.9693C287.598 86.0667 287.797 86.059 289.315 86.0647H289.441C292.341 86.0647 293.535 85.2611 294.25 84.78C294.81 84.4052 294.928 84.324 295.416 84.8746C296.359 85.9411 300.685 86.144 303.861 86.144C305.722 86.144 307.19 86.0725 307.346 86.0647C307.422 86.0609 307.486 86.0145 307.517 85.943C307.544 85.8735 307.53 85.7923 307.476 85.7382C307.472 85.7402 303.96 82.0481 301.203 79.1753ZM295.702 84.6196C295.368 84.2409 295.109 84.0941 294.86 84.0941C294.601 84.0941 294.352 84.2487 294.033 84.4631C293.353 84.9172 292.221 85.6822 289.439 85.6822H289.313C289.275 85.6822 289.236 85.6822 289.199 85.6822C287.82 85.6822 287.607 85.6532 285.09 84.6119C284.114 84.2081 282.555 83.7715 280.751 83.2653C274.342 81.4685 264.657 78.7522 261.796 72.7591C260.231 69.4825 263.608 58.5358 264.014 57.2452C265.129 57.1795 273.21 56.7912 278.463 60.489C277.799 61.7622 274.545 68.1378 275.047 69.5752C275.117 69.7742 275.243 69.863 275.333 69.9056C279.267 71.6328 282.702 74.7819 285.208 77.0829C286.489 78.2595 287.503 79.1888 288.224 79.5964C289.978 80.5934 292.37 79.948 294.682 79.3259C297.19 78.6536 299.557 78.0141 300.925 79.4438C303.204 81.8202 306.002 84.7587 306.9 85.7015C303.788 85.829 296.79 85.8484 295.702 84.6196Z" fill="#000100"/>
<path d="M262.244 58.0371C271.825 64.9111 279.421 63.8196 279.421 63.8196L281.191 57.9888L277.476 36.6963C266.007 39.8706 262.244 58.0371 262.244 58.0371Z" fill="#22CAFF"/>
<path d="M281.241 57.8011C281.146 57.7682 281.032 57.8281 281 57.9286L279.268 63.6396C278.268 63.7304 271.16 64.1516 262.456 57.9518C262.814 56.3598 266.786 39.8529 277.524 36.8814C277.628 36.8525 277.688 36.7462 277.657 36.6438C277.628 36.5395 277.53 36.4873 277.42 36.5086C265.969 39.6809 262.087 57.8127 262.05 57.9962C262.035 58.0716 262.064 58.1489 262.128 58.1933C269.454 63.4503 275.702 64.0685 278.237 64.0685C279 64.0685 279.425 64.0144 279.444 64.0105C279.518 64.0009 279.58 63.9487 279.601 63.8772L281.37 58.0445C281.401 57.9421 281.343 57.832 281.241 57.8011Z" fill="#000100"/>
<path d="M301.01 82.8139L300.739 83.123L304.142 86.1136L304.414 85.8045L301.01 82.8139Z" fill="black"/>
<path d="M298.159 83.1458L297.887 83.4551L301.293 86.4456L301.564 86.1364L298.159 83.1458Z" fill="black"/>
<path d="M290.177 87.805H323.021V85.873H288.245C288.245 86.9376 289.112 87.805 290.177 87.805Z" fill="#000100"/>
<path d="M323.02 85.6807H288.244C288.138 85.6807 288.051 85.7657 288.051 85.8739C288.051 87.0447 289.003 87.9991 290.176 87.9991H323.02C323.128 87.9991 323.213 87.9141 323.213 87.8059V85.8739C323.213 85.7657 323.128 85.6807 323.02 85.6807ZM322.829 87.6127H290.178C289.285 87.6127 288.545 86.9365 288.451 86.0651H322.829V87.6127Z" fill="#000100"/>
<path d="M366.896 56.8936H324.334C323.703 56.8936 323.154 57.2935 322.968 57.8904L314.29 85.9932C314.158 86.4222 314.238 86.8762 314.506 87.2394C314.781 87.6006 315.198 87.8074 315.654 87.8074H358.214C358.846 87.8074 359.396 87.4074 359.58 86.8105L368.26 58.7096C368.391 58.2788 368.312 57.8248 368.04 57.4635C367.768 57.1003 367.352 56.8936 366.896 56.8936Z" fill="#000100"/>
<path d="M366.896 56.7012H324.335C323.618 56.7012 322.996 57.1552 322.783 57.8333L314.105 85.9361C313.954 86.4249 314.045 86.9407 314.352 87.3542C314.663 87.7638 315.138 87.9976 315.654 87.9976H358.214C358.933 87.9976 359.557 87.5435 359.766 86.8654L368.446 58.7645C368.597 58.2738 368.504 57.7541 368.195 57.3445C367.886 56.9349 367.412 56.7012 366.896 56.7012ZM368.077 58.6525L359.397 86.7533C359.238 87.2672 358.765 87.6131 358.216 87.6131H315.656C315.262 87.6131 314.899 87.4334 314.663 87.1224C314.431 86.8094 314.364 86.4191 314.476 86.0482L323.154 57.9454C323.313 57.4315 323.788 57.0856 324.335 57.0856H366.896C367.289 57.0856 367.652 57.2653 367.886 57.5783C368.121 57.8893 368.191 58.2796 368.077 58.6525Z" fill="#000100"/>
<path d="M367.958 56.8936H325.396C324.764 56.8936 324.218 57.2935 324.03 57.8904L315.352 85.9932C315.22 86.4222 315.3 86.8762 315.57 87.2394C315.842 87.6006 316.26 87.8074 316.716 87.8074H359.276C359.907 87.8074 360.458 87.4074 360.642 86.8105L369.322 58.7096C369.453 58.2788 369.374 57.8248 369.104 57.4635C368.831 57.1003 368.412 56.8936 367.958 56.8936Z" fill="white"/>
<path d="M367.958 56.7012H325.397C324.682 56.7012 324.06 57.1552 323.845 57.8333L315.167 85.9361C315.016 86.4249 315.107 86.9427 315.416 87.3542C315.725 87.7638 316.198 87.9976 316.716 87.9976H359.276C359.995 87.9976 360.619 87.5435 360.827 86.8654L369.508 58.7645C369.659 58.2738 369.568 57.758 369.259 57.3445C368.949 56.9349 368.476 56.7012 367.958 56.7012ZM369.137 58.6525L360.456 86.7533C360.298 87.2672 359.825 87.6131 359.276 87.6131H316.716C316.322 87.6131 315.959 87.4334 315.725 87.1224C315.491 86.8094 315.422 86.4191 315.536 86.0482L324.214 57.9473C324.374 57.4315 324.85 57.0856 325.395 57.0856H367.956C368.351 57.0856 368.714 57.2653 368.948 57.5764C369.183 57.8894 369.251 58.2796 369.137 58.6525Z" fill="#000100"/>
<path d="M333.163 72.3503C333.163 69.5856 334.409 66.9929 336.524 65.2579L337.488 66.6818L339.994 61.5176L334.27 61.9291L335.276 63.4148C332.552 65.5671 330.949 68.8476 330.949 72.3483C330.949 78.6254 336.057 83.7336 342.334 83.7336V81.5195C337.278 81.5214 333.163 77.4063 333.163 72.3503Z" fill="#FFC97A"/>
<path d="M353.722 72.3511C353.722 66.0721 348.614 60.9658 342.337 60.9658V63.1799C347.393 63.1799 351.508 67.2931 351.508 72.3511C351.508 75.1158 350.264 77.7065 348.146 79.4434L347.18 78.0176L344.676 83.1818L350.401 82.7703L349.394 81.2846C352.118 79.1304 353.722 75.8499 353.722 72.3511Z" fill="#FFC97A"/>
<path d="M343.013 71.3095C341.397 70.6855 340.93 70.3184 340.93 69.6789C340.93 69.1418 341.365 68.5139 342.584 68.5139C343.712 68.5139 344.419 68.8868 344.759 69.0665L345.035 69.2114L345.157 68.9235L345.615 67.8242L345.714 67.5846L345.486 67.4629C344.833 67.1151 344.102 66.9162 343.258 66.8601V65.5174V65.2334H342.976H341.821H341.537V65.5174V66.9432C339.858 67.2794 338.789 68.4038 338.789 69.8605C338.789 71.638 340.41 72.4571 341.996 73.0251C343.331 73.5159 343.878 74.0124 343.878 74.7369C343.878 75.5444 343.111 76.0854 341.965 76.0854C341.11 76.0854 340.194 75.8323 339.516 75.4112L339.226 75.2295L339.1 75.5483L338.662 76.665L338.577 76.8814L338.772 77.0089C339.413 77.4243 340.43 77.716 341.426 77.774V79.1805V79.4645H341.71H342.862H343.146V79.1805V77.687C344.889 77.3373 346.042 76.1241 346.042 74.6036C346.038 73.0792 345.134 72.0939 343.013 71.3095Z" fill="#FFC97A"/>
<path d="M23.2754 17.2715H16.5859V19.9766H22.7871V22.7891H16.5859V29H12.8555V14.459H23.2754V17.2715ZM36.8789 23.5215C36.8789 25.3249 36.3516 26.7474 35.2969 27.7891C34.2487 28.8242 32.7741 29.3418 30.873 29.3418C28.972 29.3418 27.4941 28.8242 26.4395 27.7891C25.3913 26.7474 24.8672 25.3249 24.8672 23.5215C24.8672 21.7051 25.3945 20.2793 26.4492 19.2441C27.5104 18.209 28.985 17.6914 30.873 17.6914C32.7871 17.6914 34.265 18.2122 35.3066 19.2539C36.3548 20.2956 36.8789 21.7181 36.8789 23.5215ZM32.5527 26.1875C32.7806 25.9076 32.9499 25.5723 33.0605 25.1816C33.1777 24.7845 33.2363 24.2376 33.2363 23.541C33.2363 22.8965 33.1777 22.3561 33.0605 21.9199C32.9434 21.4837 32.7806 21.1354 32.5723 20.875C32.3639 20.6081 32.1133 20.4193 31.8203 20.3086C31.5273 20.1979 31.2116 20.1426 30.873 20.1426C30.5345 20.1426 30.2318 20.1882 29.9648 20.2793C29.7044 20.3704 29.4538 20.5527 29.2129 20.8262C28.998 21.0801 28.8255 21.4284 28.6953 21.8711C28.5716 22.3138 28.5098 22.8704 28.5098 23.541C28.5098 24.14 28.5651 24.6608 28.6758 25.1035C28.7865 25.5397 28.9492 25.8913 29.1641 26.1582C29.3724 26.4121 29.6198 26.5977 29.9062 26.7148C30.1992 26.832 30.5312 26.8906 30.9023 26.8906C31.2214 26.8906 31.5241 26.8385 31.8105 26.7344C32.1035 26.6237 32.3509 26.4414 32.5527 26.1875ZM47.3477 21.3828H47.0352C46.8854 21.3307 46.6445 21.2917 46.3125 21.2656C45.9805 21.2396 45.7038 21.2266 45.4824 21.2266C44.9811 21.2266 44.5384 21.2591 44.1543 21.3242C43.7702 21.3893 43.3568 21.5 42.9141 21.6562V29H39.3984V18.0332H42.9141V19.6445C43.6888 18.9805 44.3626 18.541 44.9355 18.3262C45.5085 18.1048 46.0358 17.9941 46.5176 17.9941C46.6413 17.9941 46.7812 17.9974 46.9375 18.0039C47.0938 18.0104 47.2305 18.0202 47.3477 18.0332V21.3828ZM60.0625 21.2266V29H56.5273V23.5215C56.5273 22.9876 56.5143 22.5352 56.4883 22.1641C56.4622 21.7865 56.3906 21.4805 56.2734 21.2461C56.1562 21.0117 55.9772 20.8424 55.7363 20.7383C55.502 20.6276 55.1699 20.5723 54.7402 20.5723C54.3952 20.5723 54.0599 20.6439 53.7344 20.7871C53.4089 20.9238 53.1159 21.0703 52.8555 21.2266V29H49.3398V18.0332H52.8555V19.2441C53.4609 18.7689 54.0404 18.3978 54.5938 18.1309C55.1471 17.8639 55.7591 17.7305 56.4297 17.7305C57.1523 17.7305 57.7904 17.8932 58.3438 18.2188C58.8971 18.5378 59.3301 19.0098 59.6426 19.6348C60.3457 19.0423 61.0293 18.5768 61.6934 18.2383C62.3574 17.8997 63.0085 17.7305 63.6465 17.7305C64.8314 17.7305 65.7298 18.0853 66.3418 18.7949C66.9603 19.5046 67.2695 20.5267 67.2695 21.8613V29H63.7344V23.5215C63.7344 22.9811 63.7214 22.5254 63.6953 22.1543C63.6758 21.7832 63.6074 21.4805 63.4902 21.2461C63.3796 21.0117 63.2038 20.8424 62.9629 20.7383C62.722 20.6276 62.3835 20.5723 61.9473 20.5723C61.6543 20.5723 61.3678 20.6243 61.0879 20.7285C60.8079 20.8262 60.4661 20.9922 60.0625 21.2266ZM87.9922 29H78.2852V26.4609H81.3516V18.7754H78.2852V16.4023C78.7539 16.4023 79.2031 16.3763 79.6328 16.3242C80.0625 16.2656 80.4206 16.168 80.707 16.0312C81.0456 15.8685 81.2995 15.6569 81.4688 15.3965C81.638 15.1361 81.7357 14.8105 81.7617 14.4199H84.9941V26.4609H87.9922V29ZM103.109 24.0488C103.109 24.7975 102.973 25.5007 102.699 26.1582C102.426 26.8158 102.042 27.3691 101.547 27.8184C101.02 28.3001 100.408 28.668 99.7109 28.9219C99.0208 29.1758 98.2103 29.3027 97.2793 29.3027C96.4069 29.3027 95.6094 29.1855 94.8867 28.9512C94.1706 28.7103 93.5553 28.3457 93.041 27.8574C92.4486 27.2975 91.9961 26.5749 91.6836 25.6895C91.3711 24.804 91.2148 23.7461 91.2148 22.5156C91.2148 21.2396 91.3613 20.1068 91.6543 19.1172C91.9473 18.1276 92.4258 17.252 93.0898 16.4902C93.7279 15.7611 94.5547 15.1947 95.5703 14.791C96.5924 14.3874 97.8066 14.1855 99.2129 14.1855C99.6882 14.1855 100.209 14.2181 100.775 14.2832C101.342 14.3483 101.71 14.3971 101.879 14.4297V17.291H101.508C101.332 17.2064 101.033 17.112 100.609 17.0078C100.193 16.8971 99.7174 16.8418 99.1836 16.8418C97.9336 16.8418 96.9603 17.1478 96.2637 17.7598C95.5671 18.3717 95.1471 19.2246 95.0039 20.3184C95.5052 20.0189 96.0326 19.778 96.5859 19.5957C97.1458 19.4069 97.748 19.3125 98.3926 19.3125C98.959 19.3125 99.4831 19.3776 99.9648 19.5078C100.453 19.638 100.906 19.8464 101.322 20.1328C101.863 20.5104 102.296 21.0182 102.621 21.6562C102.947 22.2943 103.109 23.0918 103.109 24.0488ZM98.666 26.2461C98.8678 26.0247 99.0273 25.7643 99.1445 25.4648C99.2682 25.1589 99.3301 24.7454 99.3301 24.2246C99.3301 23.7493 99.2617 23.362 99.125 23.0625C98.9883 22.7565 98.7995 22.5124 98.5586 22.3301C98.3242 22.1478 98.0475 22.0241 97.7285 21.959C97.4095 21.8874 97.0807 21.8516 96.7422 21.8516C96.4557 21.8516 96.1562 21.8841 95.8438 21.9492C95.5312 22.0143 95.2448 22.0957 94.9844 22.1934C94.9844 22.2585 94.9811 22.3659 94.9746 22.5156C94.9681 22.6654 94.9648 22.8542 94.9648 23.082C94.9648 23.8828 95.043 24.5436 95.1992 25.0645C95.362 25.5788 95.5768 25.9727 95.8438 26.2461C96.026 26.4479 96.2409 26.5977 96.4883 26.6953C96.7357 26.7865 97.0026 26.832 97.2891 26.832C97.5039 26.832 97.7415 26.7832 98.002 26.6855C98.2624 26.5879 98.4837 26.4414 98.666 26.2461Z" fill="url(#paint0_linear_1453_104666)"/>
<path d="M18.3477 46.2754L15.2773 51.1738V55H14.1172V51.2969L11.0352 46.2754H12.3184L14.7031 50.1777L17.1113 46.2754H18.3477ZM23.8032 51.7305C23.8032 52.7969 23.5298 53.6387 22.9829 54.2559C22.436 54.873 21.7036 55.1816 20.7856 55.1816C19.8598 55.1816 19.1235 54.873 18.5766 54.2559C18.0337 53.6387 17.7622 52.7969 17.7622 51.7305C17.7622 50.6641 18.0337 49.8223 18.5766 49.2051C19.1235 48.584 19.8598 48.2734 20.7856 48.2734C21.7036 48.2734 22.436 48.584 22.9829 49.2051C23.5298 49.8223 23.8032 50.6641 23.8032 51.7305ZM22.6665 51.7305C22.6665 50.8828 22.5005 50.2539 22.1684 49.8438C21.8364 49.4297 21.3755 49.2227 20.7856 49.2227C20.188 49.2227 19.7231 49.4297 19.3911 49.8438C19.063 50.2539 18.8989 50.8828 18.8989 51.7305C18.8989 52.5508 19.0649 53.1738 19.397 53.5996C19.729 54.0215 20.1919 54.2324 20.7856 54.2324C21.3716 54.2324 21.8305 54.0234 22.1626 53.6055C22.4985 53.1836 22.6665 52.5586 22.6665 51.7305ZM30.4599 55H29.3584V54.2734C28.9873 54.5664 28.6318 54.791 28.292 54.9473C27.9521 55.1035 27.5771 55.1816 27.167 55.1816C26.4795 55.1816 25.9443 54.9727 25.5615 54.5547C25.1787 54.1328 24.9873 53.5156 24.9873 52.7031V48.4551H26.0888V52.1816C26.0888 52.5137 26.1045 52.7988 26.1357 53.0371C26.167 53.2715 26.2334 53.4727 26.3349 53.6406C26.4404 53.8125 26.5771 53.9375 26.7451 54.0156C26.913 54.0938 27.1572 54.1328 27.4775 54.1328C27.7627 54.1328 28.0732 54.0586 28.4091 53.9102C28.749 53.7617 29.0654 53.5723 29.3584 53.3418V48.4551H30.4599V55ZM40.7265 54.5898C40.3593 54.7656 40.0097 54.9023 39.6777 55C39.3495 55.0977 38.9999 55.1465 38.6288 55.1465C38.1562 55.1465 37.7226 55.0781 37.328 54.9414C36.9335 54.8008 36.5956 54.5898 36.3144 54.3086C36.0292 54.0273 35.8085 53.6719 35.6523 53.2422C35.496 52.8125 35.4179 52.3105 35.4179 51.7363C35.4179 50.666 35.7109 49.8262 36.2968 49.2168C36.8866 48.6074 37.664 48.3027 38.6288 48.3027C39.0038 48.3027 39.371 48.3555 39.7304 48.4609C40.0937 48.5664 40.4257 48.6953 40.7265 48.8477V50.0723H40.6679C40.332 49.8105 39.9843 49.6094 39.6249 49.4688C39.2695 49.3281 38.9218 49.2578 38.582 49.2578C37.957 49.2578 37.4628 49.4688 37.0995 49.8906C36.7402 50.3086 36.5605 50.9238 36.5605 51.7363C36.5605 52.5254 36.7362 53.1328 37.0878 53.5586C37.4433 53.9805 37.9413 54.1914 38.582 54.1914C38.8046 54.1914 39.0312 54.1621 39.2616 54.1035C39.4921 54.0449 39.6991 53.9688 39.8827 53.875C40.0429 53.793 40.1933 53.707 40.3339 53.6172C40.4745 53.5234 40.5859 53.4434 40.6679 53.377H40.7265V54.5898ZM46.7504 55H45.6547V54.3027C45.557 54.3691 45.4242 54.4629 45.2563 54.584C45.0922 54.7012 44.932 54.7949 44.7758 54.8652C44.5922 54.9551 44.3813 55.0293 44.143 55.0879C43.9047 55.1504 43.6254 55.1816 43.3051 55.1816C42.7152 55.1816 42.2152 54.9863 41.8051 54.5957C41.3949 54.2051 41.1898 53.707 41.1898 53.1016C41.1898 52.6055 41.2953 52.2051 41.5063 51.9004C41.7211 51.5918 42.0258 51.3496 42.4203 51.1738C42.8188 50.998 43.2973 50.8789 43.8559 50.8164C44.4145 50.7539 45.0141 50.707 45.6547 50.6758V50.5059C45.6547 50.2559 45.6098 50.0488 45.5199 49.8848C45.434 49.7207 45.309 49.5918 45.1449 49.498C44.9887 49.4082 44.8012 49.3477 44.5824 49.3164C44.3637 49.2852 44.1352 49.2695 43.8969 49.2695C43.6078 49.2695 43.2855 49.3086 42.9301 49.3867C42.5746 49.4609 42.2074 49.5703 41.8285 49.7148H41.7699V48.5957C41.9848 48.5371 42.2953 48.4727 42.7016 48.4023C43.1078 48.332 43.5082 48.2969 43.9027 48.2969C44.3637 48.2969 44.7641 48.3359 45.1039 48.4141C45.4477 48.4883 45.7445 48.6172 45.9945 48.8008C46.2406 48.9805 46.4281 49.2129 46.557 49.498C46.6859 49.7832 46.7504 50.1367 46.7504 50.5586V55ZM45.6547 53.3887V51.5664C45.3188 51.5859 44.9223 51.6152 44.4652 51.6543C44.0121 51.6934 43.6527 51.75 43.3871 51.8242C43.0707 51.9141 42.8148 52.0547 42.6195 52.2461C42.4242 52.4336 42.3266 52.6934 42.3266 53.0254C42.3266 53.4004 42.4398 53.6836 42.6664 53.875C42.893 54.0625 43.2387 54.1562 43.7035 54.1562C44.0902 54.1562 44.4438 54.082 44.7641 53.9336C45.0844 53.7812 45.3813 53.5996 45.6547 53.3887ZM53.8641 55H52.7626V51.2734C52.7626 50.9727 52.745 50.6914 52.7098 50.4297C52.6747 50.1641 52.6102 49.957 52.5165 49.8086C52.4188 49.6445 52.2782 49.5234 52.0946 49.4453C51.911 49.3633 51.6727 49.3223 51.3798 49.3223C51.079 49.3223 50.7645 49.3965 50.4364 49.5449C50.1083 49.6934 49.7938 49.8828 49.493 50.1133V55H48.3915V48.4551H49.493V49.1816C49.8368 48.8965 50.1923 48.6738 50.5595 48.5137C50.9266 48.3535 51.3036 48.2734 51.6903 48.2734C52.3973 48.2734 52.9364 48.4863 53.3075 48.9121C53.6786 49.3379 53.8641 49.9512 53.8641 50.752V55ZM64.9041 48.4551L62.2557 55H61.1483L58.5174 48.4551H59.7127L61.7401 53.6641L63.7498 48.4551H64.9041ZM67.0491 47.3594H65.807V46.2168H67.0491V47.3594ZM66.9788 55H65.8773V48.4551H66.9788V55ZM74.157 51.8418H69.3348C69.3348 52.2441 69.3953 52.5957 69.5164 52.8965C69.6375 53.1934 69.8035 53.4375 70.0145 53.6289C70.2176 53.8164 70.4578 53.957 70.7352 54.0508C71.0164 54.1445 71.325 54.1914 71.6609 54.1914C72.1063 54.1914 72.5535 54.1035 73.0027 53.9277C73.4559 53.748 73.7781 53.5723 73.9695 53.4004H74.0281V54.6016C73.657 54.7578 73.2781 54.8887 72.8914 54.9941C72.5047 55.0996 72.0984 55.1523 71.6727 55.1523C70.5867 55.1523 69.7391 54.8594 69.1297 54.2734C68.5203 53.6836 68.2156 52.8477 68.2156 51.7656C68.2156 50.6953 68.5066 49.8457 69.0887 49.2168C69.6746 48.5879 70.4441 48.2734 71.3973 48.2734C72.2801 48.2734 72.9598 48.5312 73.4363 49.0469C73.9168 49.5625 74.157 50.2949 74.157 51.2441V51.8418ZM73.0848 50.998C73.0809 50.4199 72.9344 49.9727 72.6453 49.6562C72.3602 49.3398 71.9246 49.1816 71.3387 49.1816C70.7488 49.1816 70.2781 49.3555 69.9266 49.7031C69.5789 50.0508 69.3816 50.4824 69.3348 50.998H73.0848ZM83.5794 48.4551L81.8743 55H80.8548L79.1731 49.9551L77.5032 55H76.4895L74.7669 48.4551H75.9153L77.1165 53.5234L78.7513 48.4551H79.6595L81.3352 53.5234L82.472 48.4551H83.5794ZM93.512 55H92.4163V54.3027C92.3186 54.3691 92.1858 54.4629 92.0178 54.584C91.8538 54.7012 91.6936 54.7949 91.5373 54.8652C91.3538 54.9551 91.1428 55.0293 90.9045 55.0879C90.6663 55.1504 90.387 55.1816 90.0666 55.1816C89.4768 55.1816 88.9768 54.9863 88.5666 54.5957C88.1565 54.2051 87.9514 53.707 87.9514 53.1016C87.9514 52.6055 88.0569 52.2051 88.2678 51.9004C88.4827 51.5918 88.7873 51.3496 89.1819 51.1738C89.5803 50.998 90.0588 50.8789 90.6174 50.8164C91.176 50.7539 91.7756 50.707 92.4163 50.6758V50.5059C92.4163 50.2559 92.3713 50.0488 92.2815 49.8848C92.1955 49.7207 92.0705 49.5918 91.9065 49.498C91.7502 49.4082 91.5627 49.3477 91.344 49.3164C91.1252 49.2852 90.8967 49.2695 90.6584 49.2695C90.3694 49.2695 90.0471 49.3086 89.6916 49.3867C89.3362 49.4609 88.969 49.5703 88.5901 49.7148H88.5315V48.5957C88.7463 48.5371 89.0569 48.4727 89.4631 48.4023C89.8694 48.332 90.2698 48.2969 90.6643 48.2969C91.1252 48.2969 91.5256 48.3359 91.8655 48.4141C92.2092 48.4883 92.5061 48.6172 92.7561 48.8008C93.0022 48.9805 93.1897 49.2129 93.3186 49.498C93.4475 49.7832 93.512 50.1367 93.512 50.5586V55ZM92.4163 53.3887V51.5664C92.0803 51.5859 91.6838 51.6152 91.2268 51.6543C90.7737 51.6934 90.4143 51.75 90.1487 51.8242C89.8323 51.9141 89.5764 52.0547 89.3811 52.2461C89.1858 52.4336 89.0881 52.6934 89.0881 53.0254C89.0881 53.4004 89.2014 53.6836 89.428 53.875C89.6545 54.0625 90.0002 54.1562 90.4651 54.1562C90.8518 54.1562 91.2053 54.082 91.5256 53.9336C91.8459 53.7812 92.1428 53.5996 92.4163 53.3887ZM100.626 55H99.5241V51.2734C99.5241 50.9727 99.5066 50.6914 99.4714 50.4297C99.4362 50.1641 99.3718 49.957 99.278 49.8086C99.1804 49.6445 99.0398 49.5234 98.8562 49.4453C98.6726 49.3633 98.4343 49.3223 98.1413 49.3223C97.8405 49.3223 97.5261 49.3965 97.198 49.5449C96.8698 49.6934 96.5554 49.8828 96.2546 50.1133V55H95.153V48.4551H96.2546V49.1816C96.5984 48.8965 96.9538 48.6738 97.321 48.5137C97.6882 48.3535 98.0652 48.2734 98.4519 48.2734C99.1589 48.2734 99.698 48.4863 100.069 48.9121C100.44 49.3379 100.626 49.9512 100.626 50.752V55ZM107.575 55H106.474V54.3145C106.157 54.5879 105.827 54.8008 105.484 54.9531C105.14 55.1055 104.767 55.1816 104.364 55.1816C103.583 55.1816 102.962 54.8809 102.501 54.2793C102.044 53.6777 101.816 52.8438 101.816 51.7773C101.816 51.2227 101.894 50.7285 102.05 50.2949C102.21 49.8613 102.425 49.4922 102.695 49.1875C102.96 48.8906 103.269 48.6641 103.62 48.5078C103.976 48.3516 104.343 48.2734 104.722 48.2734C105.066 48.2734 105.37 48.3105 105.636 48.3848C105.902 48.4551 106.181 48.5664 106.474 48.7188V45.8828H107.575V55ZM106.474 53.3887V49.6328C106.177 49.5 105.911 49.4082 105.677 49.3574C105.443 49.3066 105.187 49.2812 104.909 49.2812C104.292 49.2812 103.812 49.4961 103.468 49.9258C103.124 50.3555 102.952 50.9648 102.952 51.7539C102.952 52.5312 103.085 53.123 103.351 53.5293C103.616 53.9316 104.042 54.1328 104.628 54.1328C104.941 54.1328 105.257 54.0645 105.577 53.9277C105.898 53.7871 106.196 53.6074 106.474 53.3887ZM118.311 55H117.209V54.3145C116.893 54.5879 116.563 54.8008 116.219 54.9531C115.875 55.1055 115.502 55.1816 115.1 55.1816C114.319 55.1816 113.697 54.8809 113.236 54.2793C112.779 53.6777 112.551 52.8438 112.551 51.7773C112.551 51.2227 112.629 50.7285 112.785 50.2949C112.945 49.8613 113.16 49.4922 113.43 49.1875C113.695 48.8906 114.004 48.6641 114.356 48.5078C114.711 48.3516 115.078 48.2734 115.457 48.2734C115.801 48.2734 116.106 48.3105 116.371 48.3848C116.637 48.4551 116.916 48.5664 117.209 48.7188V45.8828H118.311V55ZM117.209 53.3887V49.6328C116.912 49.5 116.647 49.4082 116.412 49.3574C116.178 49.3066 115.922 49.2812 115.645 49.2812C115.028 49.2812 114.547 49.4961 114.203 49.9258C113.86 50.3555 113.688 50.9648 113.688 51.7539C113.688 52.5312 113.82 53.123 114.086 53.5293C114.352 53.9316 114.778 54.1328 115.363 54.1328C115.676 54.1328 115.992 54.0645 116.313 53.9277C116.633 53.7871 116.932 53.6074 117.209 53.3887ZM125.577 51.7305C125.577 52.7969 125.303 53.6387 124.756 54.2559C124.21 54.873 123.477 55.1816 122.559 55.1816C121.633 55.1816 120.897 54.873 120.35 54.2559C119.807 53.6387 119.536 52.7969 119.536 51.7305C119.536 50.6641 119.807 49.8223 120.35 49.2051C120.897 48.584 121.633 48.2734 122.559 48.2734C123.477 48.2734 124.21 48.584 124.756 49.2051C125.303 49.8223 125.577 50.6641 125.577 51.7305ZM124.44 51.7305C124.44 50.8828 124.274 50.2539 123.942 49.8438C123.61 49.4297 123.149 49.2227 122.559 49.2227C121.962 49.2227 121.497 49.4297 121.165 49.8438C120.837 50.2539 120.673 50.8828 120.673 51.7305C120.673 52.5508 120.839 53.1738 121.171 53.5996C121.503 54.0215 121.965 54.2324 122.559 54.2324C123.145 54.2324 123.604 54.0234 123.936 53.6055C124.272 53.1836 124.44 52.5586 124.44 51.7305ZM135.04 48.4551L133.335 55H132.316L130.634 49.9551L128.964 55H127.95L126.228 48.4551H127.376L128.577 53.5234L130.212 48.4551H131.12L132.796 53.5234L133.933 48.4551H135.04ZM141.621 55H140.519V51.2734C140.519 50.9727 140.502 50.6914 140.466 50.4297C140.431 50.1641 140.367 49.957 140.273 49.8086C140.175 49.6445 140.035 49.5234 139.851 49.4453C139.668 49.3633 139.429 49.3223 139.136 49.3223C138.836 49.3223 138.521 49.3965 138.193 49.5449C137.865 49.6934 137.55 49.8828 137.25 50.1133V55H136.148V48.4551H137.25V49.1816C137.593 48.8965 137.949 48.6738 138.316 48.5137C138.683 48.3535 139.06 48.2734 139.447 48.2734C140.154 48.2734 140.693 48.4863 141.064 48.9121C141.435 49.3379 141.621 49.9512 141.621 50.752V55ZM144.375 55H143.274V45.8828H144.375V55ZM151.653 51.7305C151.653 52.7969 151.379 53.6387 150.833 54.2559C150.286 54.873 149.553 55.1816 148.635 55.1816C147.71 55.1816 146.973 54.873 146.426 54.2559C145.883 53.6387 145.612 52.7969 145.612 51.7305C145.612 50.6641 145.883 49.8223 146.426 49.2051C146.973 48.584 147.71 48.2734 148.635 48.2734C149.553 48.2734 150.286 48.584 150.833 49.2051C151.379 49.8223 151.653 50.6641 151.653 51.7305ZM150.516 51.7305C150.516 50.8828 150.35 50.2539 150.018 49.8438C149.686 49.4297 149.225 49.2227 148.635 49.2227C148.038 49.2227 147.573 49.4297 147.241 49.8438C146.913 50.2539 146.749 50.8828 146.749 51.7305C146.749 52.5508 146.915 53.1738 147.247 53.5996C147.579 54.0215 148.042 54.2324 148.635 54.2324C149.221 54.2324 149.68 54.0234 150.012 53.6055C150.348 53.1836 150.516 52.5586 150.516 51.7305ZM157.97 55H156.874V54.3027C156.776 54.3691 156.644 54.4629 156.476 54.584C156.312 54.7012 156.151 54.7949 155.995 54.8652C155.812 54.9551 155.601 55.0293 155.362 55.0879C155.124 55.1504 154.845 55.1816 154.524 55.1816C153.935 55.1816 153.435 54.9863 153.024 54.5957C152.614 54.2051 152.409 53.707 152.409 53.1016C152.409 52.6055 152.515 52.2051 152.726 51.9004C152.94 51.5918 153.245 51.3496 153.64 51.1738C154.038 50.998 154.517 50.8789 155.075 50.8164C155.634 50.7539 156.233 50.707 156.874 50.6758V50.5059C156.874 50.2559 156.829 50.0488 156.739 49.8848C156.653 49.7207 156.528 49.5918 156.364 49.498C156.208 49.4082 156.021 49.3477 155.802 49.3164C155.583 49.2852 155.355 49.2695 155.116 49.2695C154.827 49.2695 154.505 49.3086 154.149 49.3867C153.794 49.4609 153.427 49.5703 153.048 49.7148H152.989V48.5957C153.204 48.5371 153.515 48.4727 153.921 48.4023C154.327 48.332 154.728 48.2969 155.122 48.2969C155.583 48.2969 155.983 48.3359 156.323 48.4141C156.667 48.4883 156.964 48.6172 157.214 48.8008C157.46 48.9805 157.648 49.2129 157.776 49.498C157.905 49.7832 157.97 50.1367 157.97 50.5586V55ZM156.874 53.3887V51.5664C156.538 51.5859 156.142 51.6152 155.685 51.6543C155.231 51.6934 154.872 51.75 154.606 51.8242C154.29 51.9141 154.034 52.0547 153.839 52.2461C153.644 52.4336 153.546 52.6934 153.546 53.0254C153.546 53.4004 153.659 53.6836 153.886 53.875C154.112 54.0625 154.458 54.1562 154.923 54.1562C155.31 54.1562 155.663 54.082 155.983 53.9336C156.304 53.7812 156.601 53.5996 156.874 53.3887ZM164.919 55H163.818V54.3145C163.501 54.5879 163.171 54.8008 162.828 54.9531C162.484 55.1055 162.111 55.1816 161.709 55.1816C160.927 55.1816 160.306 54.8809 159.845 54.2793C159.388 53.6777 159.16 52.8438 159.16 51.7773C159.16 51.2227 159.238 50.7285 159.394 50.2949C159.554 49.8613 159.769 49.4922 160.039 49.1875C160.304 48.8906 160.613 48.6641 160.964 48.5078C161.32 48.3516 161.687 48.2734 162.066 48.2734C162.41 48.2734 162.714 48.3105 162.98 48.3848C163.246 48.4551 163.525 48.5664 163.818 48.7188V45.8828H164.919V55ZM163.818 53.3887V49.6328C163.521 49.5 163.255 49.4082 163.021 49.3574C162.787 49.3066 162.531 49.2812 162.253 49.2812C161.636 49.2812 161.156 49.4961 160.812 49.9258C160.468 50.3555 160.296 50.9648 160.296 51.7539C160.296 52.5312 160.429 53.123 160.695 53.5293C160.96 53.9316 161.386 54.1328 161.972 54.1328C162.285 54.1328 162.601 54.0645 162.921 53.9277C163.242 53.7871 163.541 53.6074 163.818 53.3887ZM176.006 47.3066H171.594V49.7676H175.385V50.7988H171.594V55H170.434V46.2754H176.006V47.3066ZM182.054 51.7305C182.054 52.7969 181.78 53.6387 181.233 54.2559C180.686 54.873 179.954 55.1816 179.036 55.1816C178.11 55.1816 177.374 54.873 176.827 54.2559C176.284 53.6387 176.013 52.7969 176.013 51.7305C176.013 50.6641 176.284 49.8223 176.827 49.2051C177.374 48.584 178.11 48.2734 179.036 48.2734C179.954 48.2734 180.686 48.584 181.233 49.2051C181.78 49.8223 182.054 50.6641 182.054 51.7305ZM180.917 51.7305C180.917 50.8828 180.751 50.2539 180.419 49.8438C180.087 49.4297 179.626 49.2227 179.036 49.2227C178.438 49.2227 177.974 49.4297 177.642 49.8438C177.313 50.2539 177.149 50.8828 177.149 51.7305C177.149 52.5508 177.315 53.1738 177.647 53.5996C177.979 54.0215 178.442 54.2324 179.036 54.2324C179.622 54.2324 180.081 54.0234 180.413 53.6055C180.749 53.1836 180.917 52.5586 180.917 51.7305ZM187.369 49.6562H187.31C187.146 49.6172 186.986 49.5898 186.83 49.5742C186.677 49.5547 186.496 49.5449 186.285 49.5449C185.945 49.5449 185.617 49.6211 185.3 49.7734C184.984 49.9219 184.679 50.1152 184.386 50.3535V55H183.285V48.4551H184.386V49.4219C184.824 49.0703 185.208 48.8223 185.54 48.6777C185.876 48.5293 186.218 48.4551 186.566 48.4551C186.757 48.4551 186.896 48.4609 186.982 48.4727C187.068 48.4805 187.197 48.498 187.369 48.5254V49.6562ZM197.476 55H196.375V51.2734C196.375 50.9922 196.361 50.7207 196.334 50.459C196.31 50.1973 196.258 49.9883 196.176 49.832C196.086 49.6641 195.957 49.5371 195.789 49.4512C195.621 49.3652 195.379 49.3223 195.062 49.3223C194.754 49.3223 194.445 49.4004 194.137 49.5566C193.828 49.709 193.519 49.9043 193.211 50.1426C193.223 50.2324 193.232 50.3379 193.24 50.459C193.248 50.5762 193.252 50.6934 193.252 50.8105V55H192.15V51.2734C192.15 50.9844 192.137 50.7109 192.109 50.4531C192.086 50.1914 192.033 49.9824 191.951 49.8262C191.861 49.6582 191.732 49.5332 191.564 49.4512C191.396 49.3652 191.154 49.3223 190.838 49.3223C190.537 49.3223 190.234 49.3965 189.93 49.5449C189.629 49.6934 189.328 49.8828 189.027 50.1133V55H187.926V48.4551H189.027V49.1816C189.371 48.8965 189.713 48.6738 190.053 48.5137C190.396 48.3535 190.762 48.2734 191.148 48.2734C191.594 48.2734 191.971 48.3672 192.279 48.5547C192.592 48.7422 192.824 49.002 192.976 49.334C193.422 48.959 193.828 48.6895 194.195 48.5254C194.562 48.3574 194.955 48.2734 195.373 48.2734C196.092 48.2734 196.621 48.4922 196.961 48.9297C197.305 49.3633 197.476 49.9707 197.476 50.752V55ZM17.3516 72H12.6289V71.1094H14.4453V65.2617H12.6289V64.4648C12.875 64.4648 13.1387 64.4453 13.4199 64.4062C13.7012 64.3633 13.9141 64.3027 14.0586 64.2246C14.2383 64.127 14.3789 64.0039 14.4805 63.8555C14.5859 63.7031 14.6465 63.5 14.6621 63.2461H15.5703V71.1094H17.3516V72ZM25.1274 69.1699C25.1274 70.0566 24.8345 70.7812 24.2485 71.3438C23.6665 71.9023 22.9516 72.1816 22.104 72.1816C21.6743 72.1816 21.2837 72.1152 20.9321 71.9824C20.5805 71.8496 20.27 71.6523 20.0005 71.3906C19.6645 71.0664 19.4048 70.6367 19.2212 70.1016C19.0415 69.5664 18.9516 68.9219 18.9516 68.168C18.9516 67.3945 19.0337 66.709 19.1977 66.1113C19.3657 65.5137 19.6313 64.9824 19.9946 64.5176C20.3384 64.0762 20.7817 63.7324 21.3247 63.4863C21.8677 63.2363 22.5005 63.1113 23.2231 63.1113C23.4536 63.1113 23.647 63.1211 23.8032 63.1406C23.9595 63.1602 24.1177 63.1953 24.2778 63.2461V64.3652H24.2192C24.1098 64.3066 23.9438 64.252 23.7212 64.2012C23.5024 64.1465 23.2778 64.1191 23.0473 64.1191C22.2075 64.1191 21.5376 64.3828 21.0376 64.9102C20.5376 65.4336 20.2466 66.1426 20.1645 67.0371C20.4927 66.8379 20.8149 66.6875 21.1313 66.5859C21.4516 66.4805 21.8208 66.4277 22.2387 66.4277C22.6098 66.4277 22.936 66.4629 23.2173 66.5332C23.5024 66.5996 23.7934 66.7363 24.0903 66.9434C24.4341 67.1816 24.6919 67.4824 24.8637 67.8457C25.0395 68.209 25.1274 68.6504 25.1274 69.1699ZM23.938 69.2168C23.938 68.8535 23.8833 68.5527 23.7739 68.3145C23.6684 68.0762 23.4927 67.8691 23.2466 67.6934C23.0669 67.5684 22.8677 67.4863 22.6489 67.4473C22.4302 67.4082 22.2016 67.3887 21.9634 67.3887C21.6313 67.3887 21.3227 67.4277 21.0376 67.5059C20.7524 67.584 20.4595 67.7051 20.1587 67.8691C20.1509 67.9551 20.145 68.0391 20.1411 68.1211C20.1372 68.1992 20.1352 68.2988 20.1352 68.4199C20.1352 69.0371 20.1977 69.5254 20.3227 69.8848C20.4516 70.2402 20.6274 70.5215 20.8501 70.7285C21.0298 70.9004 21.2231 71.0273 21.4302 71.1094C21.6411 71.1875 21.8696 71.2266 22.1157 71.2266C22.6821 71.2266 23.1274 71.0547 23.4516 70.7109C23.7759 70.3633 23.938 69.8652 23.938 69.2168ZM35.6987 68.7305C35.6987 69.7969 35.4252 70.6387 34.8784 71.2559C34.3315 71.873 33.5991 72.1816 32.6811 72.1816C31.7553 72.1816 31.019 71.873 30.4721 71.2559C29.9291 70.6387 29.6577 69.7969 29.6577 68.7305C29.6577 67.6641 29.9291 66.8223 30.4721 66.2051C31.019 65.584 31.7553 65.2734 32.6811 65.2734C33.5991 65.2734 34.3315 65.584 34.8784 66.2051C35.4252 66.8223 35.6987 67.6641 35.6987 68.7305ZM34.562 68.7305C34.562 67.8828 34.3959 67.2539 34.0639 66.8438C33.7319 66.4297 33.2709 66.2227 32.6811 66.2227C32.0834 66.2227 31.6186 66.4297 31.2866 66.8438C30.9584 67.2539 30.7944 67.8828 30.7944 68.7305C30.7944 69.5508 30.9604 70.1738 31.2924 70.5996C31.6245 71.0215 32.0873 71.2324 32.6811 71.2324C33.267 71.2324 33.726 71.0234 34.058 70.6055C34.394 70.1836 34.562 69.5586 34.562 68.7305ZM40.4511 63.9492H40.3925C40.2714 63.9141 40.1132 63.8789 39.9179 63.8438C39.7226 63.8047 39.5507 63.7852 39.4023 63.7852C38.9296 63.7852 38.5859 63.8906 38.371 64.1016C38.1601 64.3086 38.0546 64.6855 38.0546 65.2324V65.4551H40.0409V66.3809H38.0898V72H36.9882V66.3809H36.2441V65.4551H36.9882V65.2383C36.9882 64.4609 37.1816 63.8652 37.5683 63.4512C37.955 63.0332 38.5136 62.8242 39.2441 62.8242C39.4902 62.8242 39.7109 62.8359 39.9062 62.8594C40.1054 62.8828 40.287 62.9102 40.4511 62.9414V63.9492ZM50.1669 68.6484C50.1669 69.1797 50.0907 69.666 49.9384 70.1074C49.786 70.5449 49.5712 70.916 49.2938 71.2207C49.036 71.5098 48.7313 71.7344 48.3798 71.8945C48.0321 72.0508 47.663 72.1289 47.2723 72.1289C46.9325 72.1289 46.6239 72.0918 46.3466 72.0176C46.0731 71.9434 45.7938 71.8281 45.5087 71.6719V74.4141H44.4071V65.4551H45.5087V66.1406C45.8016 65.8945 46.1298 65.6895 46.493 65.5254C46.8602 65.3574 47.2509 65.2734 47.6649 65.2734C48.454 65.2734 49.0673 65.5723 49.5048 66.1699C49.9462 66.7637 50.1669 67.5898 50.1669 68.6484ZM49.0302 68.6777C49.0302 67.8887 48.8954 67.2988 48.6259 66.9082C48.3563 66.5176 47.9423 66.3223 47.3837 66.3223C47.0673 66.3223 46.7489 66.3906 46.4286 66.5273C46.1083 66.6641 45.8016 66.8438 45.5087 67.0664V70.7754C45.8212 70.916 46.0887 71.0117 46.3114 71.0625C46.538 71.1133 46.7938 71.1387 47.079 71.1387C47.6923 71.1387 48.1708 70.9316 48.5145 70.5176C48.8583 70.1035 49.0302 69.4902 49.0302 68.6777ZM55.4877 66.6562H55.4291C55.265 66.6172 55.1048 66.5898 54.9486 66.5742C54.7962 66.5547 54.6146 66.5449 54.4037 66.5449C54.0638 66.5449 53.7357 66.6211 53.4193 66.7734C53.1029 66.9219 52.7982 67.1152 52.5052 67.3535V72H51.4037V65.4551H52.5052V66.4219C52.9427 66.0703 53.3275 65.8223 53.6595 65.6777C53.9955 65.5293 54.3373 65.4551 54.6849 65.4551C54.8763 65.4551 55.015 65.4609 55.1009 65.4727C55.1869 65.4805 55.3158 65.498 55.4877 65.5254V66.6562ZM61.6229 68.7305C61.6229 69.7969 61.3495 70.6387 60.8026 71.2559C60.2557 71.873 59.5233 72.1816 58.6053 72.1816C57.6795 72.1816 56.9432 71.873 56.3963 71.2559C55.8534 70.6387 55.5819 69.7969 55.5819 68.7305C55.5819 67.6641 55.8534 66.8223 56.3963 66.2051C56.9432 65.584 57.6795 65.2734 58.6053 65.2734C59.5233 65.2734 60.2557 65.584 60.8026 66.2051C61.3495 66.8223 61.6229 67.6641 61.6229 68.7305ZM60.4862 68.7305C60.4862 67.8828 60.3202 67.2539 59.9881 66.8438C59.6561 66.4297 59.1952 66.2227 58.6053 66.2227C58.0077 66.2227 57.5428 66.4297 57.2108 66.8438C56.8827 67.2539 56.7186 67.8828 56.7186 68.7305C56.7186 69.5508 56.8846 70.1738 57.2166 70.5996C57.5487 71.0215 58.0116 71.2324 58.6053 71.2324C59.1912 71.2324 59.6502 71.0234 59.9823 70.6055C60.3182 70.1836 60.4862 69.5586 60.4862 68.7305ZM67.6937 71.5898C67.3265 71.7656 66.9769 71.9023 66.6448 72C66.3167 72.0977 65.9671 72.1465 65.596 72.1465C65.1234 72.1465 64.6898 72.0781 64.2952 71.9414C63.9007 71.8008 63.5628 71.5898 63.2816 71.3086C62.9964 71.0273 62.7757 70.6719 62.6195 70.2422C62.4632 69.8125 62.3851 69.3105 62.3851 68.7363C62.3851 67.666 62.678 66.8262 63.264 66.2168C63.8538 65.6074 64.6312 65.3027 65.596 65.3027C65.971 65.3027 66.3382 65.3555 66.6976 65.4609C67.0609 65.5664 67.3929 65.6953 67.6937 65.8477V67.0723H67.6351C67.2991 66.8105 66.9515 66.6094 66.5921 66.4688C66.2366 66.3281 65.889 66.2578 65.5491 66.2578C64.9241 66.2578 64.43 66.4688 64.0667 66.8906C63.7073 67.3086 63.5277 67.9238 63.5277 68.7363C63.5277 69.5254 63.7034 70.1328 64.055 70.5586C64.4105 70.9805 64.9085 71.1914 65.5491 71.1914C65.7718 71.1914 65.9984 71.1621 66.2288 71.1035C66.4593 71.0449 66.6663 70.9688 66.8499 70.875C67.0101 70.793 67.1605 70.707 67.3011 70.6172C67.4417 70.5234 67.553 70.4434 67.6351 70.377H67.6937V71.5898ZM74.1102 68.8418H69.2879C69.2879 69.2441 69.3484 69.5957 69.4695 69.8965C69.5906 70.1934 69.7566 70.4375 69.9676 70.6289C70.1707 70.8164 70.4109 70.957 70.6883 71.0508C70.9695 71.1445 71.2781 71.1914 71.6141 71.1914C72.0594 71.1914 72.5066 71.1035 72.9559 70.9277C73.409 70.748 73.7313 70.5723 73.9227 70.4004H73.9813V71.6016C73.6102 71.7578 73.2313 71.8887 72.8445 71.9941C72.4578 72.0996 72.0516 72.1523 71.6258 72.1523C70.5398 72.1523 69.6922 71.8594 69.0828 71.2734C68.4734 70.6836 68.1688 69.8477 68.1688 68.7656C68.1688 67.6953 68.4598 66.8457 69.0418 66.2168C69.6277 65.5879 70.3973 65.2734 71.3504 65.2734C72.2332 65.2734 72.9129 65.5312 73.3895 66.0469C73.8699 66.5625 74.1102 67.2949 74.1102 68.2441V68.8418ZM73.0379 67.998C73.034 67.4199 72.8875 66.9727 72.5984 66.6562C72.3133 66.3398 71.8777 66.1816 71.2918 66.1816C70.702 66.1816 70.2313 66.3555 69.8797 66.7031C69.532 67.0508 69.3348 67.4824 69.2879 67.998H73.0379ZM79.9759 70.1133C79.9759 70.7109 79.7278 71.2012 79.2317 71.584C78.7395 71.9668 78.0657 72.1582 77.2102 72.1582C76.7259 72.1582 76.2805 72.1016 75.8743 71.9883C75.472 71.8711 75.1341 71.7441 74.8606 71.6074V70.3711H74.9192C75.2669 70.6328 75.6536 70.8418 76.0794 70.998C76.5052 71.1504 76.9134 71.2266 77.304 71.2266C77.7884 71.2266 78.1673 71.1484 78.4407 70.9922C78.7141 70.8359 78.8509 70.5898 78.8509 70.2539C78.8509 69.9961 78.7766 69.8008 78.6282 69.668C78.4798 69.5352 78.1946 69.4219 77.7727 69.3281C77.6165 69.293 77.4114 69.252 77.1575 69.2051C76.9075 69.1582 76.679 69.1074 76.472 69.0527C75.8977 68.9004 75.4895 68.6777 75.2473 68.3848C75.0091 68.0879 74.8899 67.7246 74.8899 67.2949C74.8899 67.0254 74.9446 66.7715 75.054 66.5332C75.1673 66.2949 75.3372 66.082 75.5638 65.8945C75.7825 65.7109 76.0598 65.5664 76.3958 65.4609C76.7356 65.3516 77.1145 65.2969 77.5325 65.2969C77.9231 65.2969 78.3177 65.3457 78.7161 65.4434C79.1184 65.5371 79.4524 65.6523 79.718 65.7891V66.9668H79.6595C79.3782 66.7598 79.0364 66.5859 78.6341 66.4453C78.2317 66.3008 77.8372 66.2285 77.4505 66.2285C77.0481 66.2285 76.7083 66.3066 76.4309 66.4629C76.1536 66.6152 76.0149 66.8438 76.0149 67.1484C76.0149 67.418 76.0989 67.6211 76.2669 67.7578C76.4309 67.8945 76.6966 68.0059 77.0638 68.0918C77.2669 68.1387 77.4934 68.1855 77.7434 68.2324C77.9973 68.2793 78.2083 68.3223 78.3763 68.3613C78.888 68.4785 79.2825 68.6797 79.5598 68.9648C79.8372 69.2539 79.9759 69.6367 79.9759 70.1133ZM85.7537 70.1133C85.7537 70.7109 85.5056 71.2012 85.0095 71.584C84.5173 71.9668 83.8435 72.1582 82.988 72.1582C82.5037 72.1582 82.0584 72.1016 81.6521 71.9883C81.2498 71.8711 80.9119 71.7441 80.6384 71.6074V70.3711H80.697C81.0447 70.6328 81.4314 70.8418 81.8572 70.998C82.283 71.1504 82.6912 71.2266 83.0818 71.2266C83.5662 71.2266 83.9451 71.1484 84.2185 70.9922C84.492 70.8359 84.6287 70.5898 84.6287 70.2539C84.6287 69.9961 84.5545 69.8008 84.406 69.668C84.2576 69.5352 83.9724 69.4219 83.5505 69.3281C83.3943 69.293 83.1892 69.252 82.9353 69.2051C82.6853 69.1582 82.4568 69.1074 82.2498 69.0527C81.6755 68.9004 81.2673 68.6777 81.0252 68.3848C80.7869 68.0879 80.6677 67.7246 80.6677 67.2949C80.6677 67.0254 80.7224 66.7715 80.8318 66.5332C80.9451 66.2949 81.115 66.082 81.3416 65.8945C81.5603 65.7109 81.8377 65.5664 82.1736 65.4609C82.5134 65.3516 82.8923 65.2969 83.3103 65.2969C83.7009 65.2969 84.0955 65.3457 84.4939 65.4434C84.8962 65.5371 85.2302 65.6523 85.4959 65.7891V66.9668H85.4373C85.156 66.7598 84.8142 66.5859 84.4119 66.4453C84.0095 66.3008 83.615 66.2285 83.2283 66.2285C82.8259 66.2285 82.4861 66.3066 82.2087 66.4629C81.9314 66.6152 81.7927 66.8438 81.7927 67.1484C81.7927 67.418 81.8767 67.6211 82.0447 67.7578C82.2087 67.8945 82.4744 68.0059 82.8416 68.0918C83.0447 68.1387 83.2712 68.1855 83.5212 68.2324C83.7752 68.2793 83.9861 68.3223 84.1541 68.3613C84.6658 68.4785 85.0603 68.6797 85.3377 68.9648C85.615 69.2539 85.7537 69.6367 85.7537 70.1133ZM92.3342 68.8418H87.512C87.512 69.2441 87.5725 69.5957 87.6936 69.8965C87.8147 70.1934 87.9807 70.4375 88.1916 70.6289C88.3948 70.8164 88.635 70.957 88.9123 71.0508C89.1936 71.1445 89.5022 71.1914 89.8381 71.1914C90.2834 71.1914 90.7307 71.1035 91.1799 70.9277C91.633 70.748 91.9553 70.5723 92.1467 70.4004H92.2053V71.6016C91.8342 71.7578 91.4553 71.8887 91.0686 71.9941C90.6819 72.0996 90.2756 72.1523 89.8498 72.1523C88.7639 72.1523 87.9163 71.8594 87.3069 71.2734C86.6975 70.6836 86.3928 69.8477 86.3928 68.7656C86.3928 67.6953 86.6838 66.8457 87.2659 66.2168C87.8518 65.5879 88.6213 65.2734 89.5745 65.2734C90.4573 65.2734 91.137 65.5312 91.6135 66.0469C92.094 66.5625 92.3342 67.2949 92.3342 68.2441V68.8418ZM91.262 67.998C91.258 67.4199 91.1116 66.9727 90.8225 66.6562C90.5373 66.3398 90.1018 66.1816 89.5159 66.1816C88.926 66.1816 88.4553 66.3555 88.1038 66.7031C87.7561 67.0508 87.5588 67.4824 87.512 67.998H91.262ZM98.8327 72H97.7312V71.3145C97.4148 71.5879 97.0847 71.8008 96.7409 71.9531C96.3972 72.1055 96.0241 72.1816 95.6218 72.1816C94.8405 72.1816 94.2195 71.8809 93.7585 71.2793C93.3015 70.6777 93.073 69.8438 93.073 68.7773C93.073 68.2227 93.1511 67.7285 93.3073 67.2949C93.4675 66.8613 93.6823 66.4922 93.9519 66.1875C94.2175 65.8906 94.5261 65.6641 94.8777 65.5078C95.2331 65.3516 95.6003 65.2734 95.9792 65.2734C96.323 65.2734 96.6277 65.3105 96.8933 65.3848C97.1589 65.4551 97.4382 65.5664 97.7312 65.7188V62.8828H98.8327V72ZM97.7312 70.3887V66.6328C97.4343 66.5 97.1687 66.4082 96.9343 66.3574C96.6999 66.3066 96.4441 66.2812 96.1667 66.2812C95.5495 66.2812 95.0691 66.4961 94.7253 66.9258C94.3816 67.3555 94.2097 67.9648 94.2097 68.7539C94.2097 69.5312 94.3425 70.123 94.6081 70.5293C94.8737 70.9316 95.2995 71.1328 95.8855 71.1328C96.198 71.1328 96.5144 71.0645 96.8347 70.9277C97.155 70.7871 97.4538 70.6074 97.7312 70.3887ZM113.81 72H112.709V68.2734C112.709 67.9922 112.695 67.7207 112.668 67.459C112.644 67.1973 112.591 66.9883 112.509 66.832C112.42 66.6641 112.291 66.5371 112.123 66.4512C111.955 66.3652 111.713 66.3223 111.396 66.3223C111.088 66.3223 110.779 66.4004 110.47 66.5566C110.162 66.709 109.853 66.9043 109.545 67.1426C109.556 67.2324 109.566 67.3379 109.574 67.459C109.582 67.5762 109.586 67.6934 109.586 67.8105V72H108.484V68.2734C108.484 67.9844 108.47 67.7109 108.443 67.4531C108.42 67.1914 108.367 66.9824 108.285 66.8262C108.195 66.6582 108.066 66.5332 107.898 66.4512C107.73 66.3652 107.488 66.3223 107.172 66.3223C106.871 66.3223 106.568 66.3965 106.263 66.5449C105.963 66.6934 105.662 66.8828 105.361 67.1133V72H104.259V65.4551H105.361V66.1816C105.705 65.8965 106.047 65.6738 106.386 65.5137C106.73 65.3535 107.095 65.2734 107.482 65.2734C107.927 65.2734 108.304 65.3672 108.613 65.5547C108.925 65.7422 109.158 66.002 109.31 66.334C109.756 65.959 110.162 65.6895 110.529 65.5254C110.896 65.3574 111.289 65.2734 111.707 65.2734C112.425 65.2734 112.955 65.4922 113.295 65.9297C113.638 66.3633 113.81 66.9707 113.81 67.752V72ZM121.029 68.7305C121.029 69.7969 120.756 70.6387 120.209 71.2559C119.662 71.873 118.93 72.1816 118.012 72.1816C117.086 72.1816 116.35 71.873 115.803 71.2559C115.26 70.6387 114.988 69.7969 114.988 68.7305C114.988 67.6641 115.26 66.8223 115.803 66.2051C116.35 65.584 117.086 65.2734 118.012 65.2734C118.93 65.2734 119.662 65.584 120.209 66.2051C120.756 66.8223 121.029 67.6641 121.029 68.7305ZM119.893 68.7305C119.893 67.8828 119.727 67.2539 119.395 66.8438C119.063 66.4297 118.602 66.2227 118.012 66.2227C117.414 66.2227 116.949 66.4297 116.617 66.8438C116.289 67.2539 116.125 67.8828 116.125 68.7305C116.125 69.5508 116.291 70.1738 116.623 70.5996C116.955 71.0215 117.418 71.2324 118.012 71.2324C118.598 71.2324 119.057 71.0234 119.389 70.6055C119.725 70.1836 119.893 69.5586 119.893 68.7305ZM127.733 72H126.631V68.2734C126.631 67.9727 126.614 67.6914 126.579 67.4297C126.544 67.1641 126.479 66.957 126.385 66.8086C126.288 66.6445 126.147 66.5234 125.964 66.4453C125.78 66.3633 125.542 66.3223 125.249 66.3223C124.948 66.3223 124.633 66.3965 124.305 66.5449C123.977 66.6934 123.663 66.8828 123.362 67.1133V72H122.26V65.4551H123.362V66.1816C123.706 65.8965 124.061 65.6738 124.428 65.5137C124.796 65.3535 125.173 65.2734 125.559 65.2734C126.266 65.2734 126.805 65.4863 127.176 65.9121C127.548 66.3379 127.733 66.9512 127.733 67.752V72ZM132.773 71.9414C132.566 71.9961 132.339 72.041 132.093 72.0762C131.851 72.1113 131.634 72.1289 131.442 72.1289C130.775 72.1289 130.267 71.9492 129.919 71.5898C129.571 71.2305 129.398 70.6543 129.398 69.8613V66.3809H128.653V65.4551H129.398V63.5742H130.499V65.4551H132.773V66.3809H130.499V69.3633C130.499 69.707 130.507 69.9766 130.523 70.1719C130.538 70.3633 130.593 70.543 130.687 70.7109C130.773 70.8672 130.89 70.9824 131.038 71.0566C131.191 71.127 131.421 71.1621 131.73 71.1621C131.909 71.1621 132.097 71.1367 132.292 71.0859C132.487 71.0312 132.628 70.9863 132.714 70.9512H132.773V71.9414ZM139.101 72H138V68.2734C138 67.9727 137.982 67.6914 137.947 67.4297C137.912 67.1641 137.847 66.957 137.754 66.8086C137.656 66.6445 137.515 66.5234 137.332 66.4453C137.148 66.3633 136.91 66.3223 136.617 66.3223C136.316 66.3223 136.002 66.3965 135.673 66.5449C135.345 66.6934 135.031 66.8828 134.73 67.1133V72H133.629V62.8828H134.73V66.1816C135.074 65.8965 135.429 65.6738 135.796 65.5137C136.164 65.3535 136.541 65.2734 136.927 65.2734C137.634 65.2734 138.173 65.4863 138.545 65.9121C138.916 66.3379 139.101 66.9512 139.101 67.752V72Z" fill="#384F69"/>
</g>
<rect x="0.744521" y="0.744521" width="369.511" height="87.511" rx="10.2555" stroke="url(#paint1_linear_1453_104666)" stroke-opacity="0.08" stroke-width="0.510959"/>
<defs>
<linearGradient id="paint0_linear_1453_104666" x1="36.3123" y1="6.61126" x2="207.578" y2="67.347" gradientUnits="userSpaceOnUse">
<stop stop-color="#003F88"/>
<stop offset="0.64989" stop-color="#03BCFF"/>
<stop offset="1" stop-color="#0076FF"/>
</linearGradient>
<linearGradient id="paint1_linear_1453_104666" x1="46.6996" y1="12.9068" x2="365.747" y2="109.173" gradientUnits="userSpaceOnUse">
<stop stop-color="#003F88"/>
<stop offset="0.64989" stop-color="#02D4FF"/>
<stop offset="1" stop-color="#0076FF"/>
</linearGradient>
<clipPath id="clip0_1453_104666">
<rect x="1" y="1" width="369" height="87" rx="10" fill="white"/>
</clipPath>
</defs>
</svg>
