<svg width="371" height="89" viewBox="0 0 371 89" fill="none" xmlns="http://www.w3.org/2000/svg">
<g clip-path="url(#clip0_1453_104724)">
<rect x="1" y="1" width="369" height="87" rx="10" fill="#E3F0FF"/>
<path d="M377.084 95C296.33 92.8622 277.805 89.9437 273.923 85.0076C270.513 79.8432 270.514 79.8432 310.026 51.175C327.936 38.1921 356.262 17.6307 365.471 8.8393C342.309 5.10436 318.976 2.55099 295.561 1.18883C294.632 1.38862 293.664 1.28473 292.796 0.892062C291.928 0.499392 291.206 -0.161891 290.731 -0.997006C290.318 -1.71037 290.1 -2.52271 290.1 -3.35016C290.099 -4.1776 290.317 -4.99015 290.729 -5.70386C291.142 -6.41756 291.735 -7.00657 292.447 -7.41003C293.159 -7.81349 293.964 -8.01678 294.78 -7.99892C295.963 -7.99892 374.894 -4.51598 376.953 5.8848C377.699 11.8178 370.502 18.5795 315.258 58.6453C304.605 66.3318 293.075 74.7389 286.458 79.9033C307.706 82.9538 367.507 85.1517 377.344 85.8242C378.488 85.939 379.546 86.4879 380.308 87.3609C381.07 88.2339 381.478 89.3666 381.452 90.5322C381.411 91.6979 380.939 92.8052 380.129 93.6332C379.32 94.4613 378.232 94.9494 377.084 95Z" fill="#C8E2FF"/>
<path d="M319.368 30.4282C316.274 29.9785 312.11 29.8836 309.06 30.3843C303.302 31.3258 296.304 34.5034 293.165 39.4041C284.5 52.9207 285.631 72.7695 285.154 87.8424H339.731C339.325 70.5668 339.29 58.1411 333.869 44.1819C331.714 38.6312 327.044 31.5453 319.368 30.4282Z" fill="#22CAFF"/>
<path d="M334.014 44.1268C332.563 40.3906 328.23 31.5623 319.391 30.2765C316.026 29.7829 311.866 29.7671 309.035 30.2326C303.379 31.1565 296.236 34.3271 293.036 39.3226C285.608 50.9105 285.36 66.8933 285.14 80.9948C285.104 83.3872 285.068 85.6461 285 87.84C284.998 87.8804 285.014 87.9208 285.04 87.9524C285.072 87.9823 285.111 87.9999 285.153 87.9999H339.73C339.771 87.9999 339.813 87.9823 339.841 87.9542C339.872 87.9243 339.886 87.8839 339.885 87.8418L339.832 85.4757C339.465 69.2154 339.196 57.4659 334.014 44.1268ZM285.316 87.6872C285.381 85.5442 285.418 83.3345 285.453 80.9965C285.671 66.9372 285.919 51.0019 293.298 39.4878C296.449 34.573 303.5 31.4516 309.087 30.5364C311.885 30.078 316.006 30.0956 319.347 30.5804C328.025 31.8433 332.293 40.5505 333.728 44.2357C338.889 57.5257 339.154 69.2506 339.523 85.4792L339.574 87.6854H285.316V87.6872Z" fill="#000100"/>
<path d="M330.784 37.9915L330.962 68.9961L359.148 68.8343L358.97 37.8297L330.784 37.9915Z" fill="white"/>
<path d="M358.927 37.688L330.742 37.8528C330.696 37.8534 330.66 37.8898 330.657 37.9371L330.836 68.9414C330.837 68.9873 330.874 69.0245 330.92 69.0257L359.107 68.8626C359.117 68.8625 359.128 68.8601 359.138 68.8559C359.149 68.8517 359.158 68.8458 359.167 68.8364C359.182 68.8202 359.191 68.7984 359.191 68.7783L359.012 37.7722C359.011 37.7505 359.002 37.7298 358.986 37.7144C358.969 37.6972 358.947 37.6879 358.927 37.688ZM359.023 68.6941L331.004 68.8555L330.827 38.0189L358.845 37.8558L359.023 68.6941Z" fill="#000100"/>
<path d="M348.024 55.9823L354.808 55.9413L354.804 54.8859L348.02 54.9251L348.024 55.9823Z" fill="black"/>
<path d="M335.074 56.0566L346.349 55.9904L346.344 54.9349L335.07 55.0012L335.074 56.0566Z" fill="black"/>
<path d="M342.15 60.2412L352.563 60.1803L352.559 59.1249L342.146 59.1858L342.15 60.2412Z" fill="black"/>
<path d="M335.1 60.284L340.463 60.2525L340.459 59.1971L335.095 59.2269L335.1 60.284Z" fill="black"/>
<path d="M335.123 64.5108L345.709 64.4485L345.705 63.3931L335.119 63.4554L335.123 64.5108Z" fill="black"/>
<path d="M348.004 43.295L354.738 43.256L354.734 42.2006L347.998 42.2403L348.004 43.295Z" fill="black"/>
<path d="M335.001 43.3711L346.276 43.3065L346.271 42.2494L334.997 42.3156L335.001 43.3711Z" fill="black"/>
<path d="M340.861 47.5654L354.762 47.4841L354.758 46.427L340.856 46.51L340.861 47.5654Z" fill="black"/>
<path d="M335.036 47.5985L339.263 47.5739L339.258 46.5168L335.031 46.5414L335.036 47.5985Z" fill="black"/>
<path d="M335.05 51.8253L349.144 51.7443L349.14 50.6871L335.046 50.7699L335.05 51.8253Z" fill="black"/>
<path d="M313.664 30.022C312.076 30.022 310.665 29.9833 309.59 30.3048C310.407 32.3564 316.555 47.7981 318.693 52.388C318.925 48.6694 319.768 33.8583 318.979 30.3768C318.398 30.2679 316.112 30.022 313.664 30.022Z" fill="white"/>
<path d="M319.005 30.2226C318.355 30.1031 316.051 29.866 313.662 29.866L313.191 29.8643C311.766 29.8643 310.53 29.859 309.543 30.1559C309.5 30.1681 309.465 30.198 309.446 30.2367C309.427 30.2753 309.425 30.321 309.443 30.3631L309.472 30.4404C311.566 35.6942 316.639 48.3571 318.548 52.4534C318.575 52.5096 318.631 52.5429 318.689 52.5429C318.7 52.5429 318.71 52.5429 318.719 52.5412C318.789 52.5271 318.84 52.4674 318.845 52.3972C319.033 49.3443 319.941 33.9289 319.128 30.342C319.116 30.2806 319.065 30.2349 319.005 30.2226ZM318.573 51.7578C316.513 47.1978 311.817 35.4834 309.796 30.4088C310.714 30.1717 311.865 30.1787 313.193 30.1787H313.663C316.073 30.1787 318.204 30.4106 318.849 30.5124C319.569 34.0308 318.819 47.6931 318.573 51.7578Z" fill="#000100"/>
<path d="M319.522 6.81329L319.016 6.81152C313.388 6.81152 309.803 9.11611 308.654 13.4741C308.531 13.9325 308.853 15.7154 309.135 17.2893C309.404 18.7841 309.661 20.1946 309.611 20.7918C309.285 24.9583 309.548 29.492 309.597 30.3C311.238 31.1132 312.865 31.4417 314.47 31.4417C316.868 31.4417 318.547 30.6548 318.984 30.372C318.812 29.571 318.493 27.818 318.484 27.7442L318.403 27.2664L318.819 27.5106C319.538 27.9357 320.295 28.15 321.075 28.15C323.037 28.15 324.769 26.808 325.612 25.48C327.416 22.6414 327.463 18.1693 327.493 15.2113C327.5 14.4613 327.507 13.8043 327.539 13.2879C327.644 11.6209 327.193 10.2333 326.191 9.16354C324.82 7.69156 322.325 6.81329 319.522 6.81329Z" fill="white"/>
<path d="M319.524 6.65996L319.018 6.6582C313.311 6.6582 309.675 9.00143 308.505 13.4349C308.385 13.8864 308.621 15.2986 308.972 17.2449L308.993 17.359C309.257 18.824 309.508 20.2099 309.46 20.7825C309.148 24.7892 309.371 29.091 309.446 30.3118C309.45 30.368 309.483 30.4172 309.534 30.4435C311.104 31.2217 312.72 31.6011 314.475 31.6011C316.778 31.6011 318.491 30.8844 319.076 30.505C319.128 30.4698 319.156 30.4049 319.142 30.3434C318.968 29.5371 318.65 27.7894 318.64 27.7226L318.615 27.5733L318.745 27.6489C319.485 28.0862 320.27 28.3076 321.08 28.3076C323.102 28.3076 324.879 26.9322 325.747 25.5674C327.577 22.6884 327.621 18.1916 327.653 15.2161L327.655 15.1721C327.662 14.4379 327.669 13.8038 327.7 13.3032C327.809 11.5906 327.342 10.1625 326.311 9.06116C324.907 7.5558 322.367 6.65996 319.524 6.65996ZM327.344 15.1686V15.2126C327.314 18.153 327.268 22.5953 325.485 25.3987C324.665 26.6915 322.982 27.9966 321.08 27.9966C320.326 27.9966 319.596 27.7876 318.903 27.3783L318.489 27.1342C318.436 27.1008 318.373 27.1061 318.32 27.1394C318.271 27.1728 318.245 27.2325 318.255 27.2923L318.333 27.7718C318.343 27.8368 318.636 29.4511 318.814 30.2977C318.261 30.6192 316.652 31.2884 314.474 31.2884C312.798 31.2884 311.252 30.9318 309.752 30.2011C309.671 28.8732 309.466 24.6979 309.769 20.8054C309.819 20.1924 309.567 18.7871 309.297 17.3011L309.278 17.1887C309.018 15.7378 308.693 13.9338 308.805 13.514C309.936 9.23153 313.467 6.96736 319.018 6.96736L319.524 6.96911C322.283 6.96911 324.737 7.83157 326.082 9.27193C327.054 10.3083 327.493 11.6573 327.389 13.2804C327.356 13.7915 327.351 14.4291 327.344 15.1686Z" fill="#000100"/>
<path d="M320.836 1.62769C309.654 -2.1559 308.249 6.36683 308.249 6.36683C300.955 12.9433 309.315 23.8462 309.315 23.8462C309.785 22.9205 310.506 21.0287 310.423 20.3173C310.348 19.6919 307.374 14.6085 311.012 13.3666C312.048 13.0118 313.17 13.1453 314.003 14.0938C314.577 11.7401 314.641 9.77803 314.641 9.77803C320.766 14.2063 332.548 10.8478 332.548 10.8478C331.755 -3.22036 320.836 1.62769 320.836 1.62769Z" fill="black"/>
<path d="M328.643 1.65375C325.423 -0.311812 321.36 1.24272 320.835 1.46053C316.912 0.14313 313.742 0.180021 311.416 1.57647C308.811 3.14155 308.193 5.85364 308.109 6.28575C300.865 12.8868 309.108 23.8318 309.194 23.9407C309.224 23.9811 309.268 24.0022 309.317 24.0022C309.321 24.0022 309.326 24.0022 309.331 24.0022C309.384 23.9969 309.431 23.9653 309.454 23.9179C309.879 23.0835 310.671 21.1021 310.58 20.3012C310.564 20.1765 310.48 19.9657 310.318 19.5704C309.835 18.4023 308.934 16.2225 309.602 14.7505C309.862 14.1726 310.355 13.7563 311.065 13.5139C311.704 13.2926 312.923 13.0941 313.889 14.1972C313.926 14.2411 313.988 14.2587 314.042 14.2464C314.098 14.2323 314.144 14.1884 314.156 14.1322C314.603 12.3089 314.743 10.6999 314.782 10.0693C320.959 14.2411 332.474 11.0337 332.593 10.9985C332.663 10.9792 332.711 10.9142 332.705 10.8405C332.445 6.2313 331.079 3.14154 328.643 1.65375ZM314.734 9.65303C314.689 9.61966 314.625 9.61438 314.574 9.64073C314.522 9.66708 314.488 9.71803 314.487 9.77599C314.485 9.79531 314.423 11.5958 313.919 13.7827C313.143 13.0467 312.082 12.8394 310.961 13.2206C310.167 13.4928 309.612 13.9636 309.314 14.624C308.592 16.2172 309.524 18.4761 310.027 19.6899C310.15 19.9903 310.257 20.2485 310.267 20.338C310.338 20.9335 309.767 22.5408 309.289 23.549C308.204 22.0243 301.794 12.4003 308.355 6.48424C308.381 6.4614 308.397 6.42978 308.404 6.39465C308.407 6.36479 308.918 3.4384 311.573 1.84697C312.718 1.15841 314.084 0.814134 315.657 0.814134C317.176 0.814134 318.89 1.13557 320.787 1.77671C320.822 1.79076 320.863 1.78374 320.9 1.77144C320.942 1.75388 325.184 -0.0869759 328.479 1.9225C330.8 3.34179 332.114 6.30507 332.386 10.7333C331.132 11.0635 320.401 13.7458 314.734 9.65303Z" fill="#000100"/>
<path d="M318.344 12.5176H318.265C316.689 12.5176 315.405 13.9931 315.346 15.8743C315.316 16.7895 315.586 17.659 316.103 18.3247C316.628 19.0045 317.345 19.3909 318.123 19.4155L318.204 19.4173C319.779 19.4173 321.063 17.9435 321.121 16.0605C321.151 15.1454 320.882 14.2759 320.366 13.6084C319.841 12.9286 319.122 12.5404 318.344 12.5176ZM318.204 18.9904L318.139 18.9887C317.487 18.9676 316.883 18.6391 316.435 18.063C315.978 17.4745 315.745 16.7017 315.769 15.8866C315.818 14.2618 316.939 12.9409 318.265 12.9409H318.328C318.978 12.962 319.584 13.2905 320.032 13.8666C320.487 14.4533 320.723 15.2279 320.7 16.043C320.649 17.6678 319.528 18.9904 318.204 18.9904Z" fill="black"/>
<path d="M326.304 12.7723L326.225 12.7705C324.65 12.7705 323.367 14.2442 323.308 16.1272C323.28 17.0424 323.547 17.9136 324.063 18.5794C324.592 19.2574 325.307 19.6456 326.087 19.6702L326.166 19.672C327.743 19.672 329.024 18.1965 329.085 16.3134C329.143 14.4111 327.896 12.8232 326.304 12.7723ZM326.166 19.2451L326.101 19.2433C325.449 19.224 324.845 18.8955 324.398 18.3176C323.942 17.7292 323.703 16.9581 323.731 16.1413C323.782 14.5183 324.901 13.1973 326.225 13.1973H326.29C327.648 13.2395 328.711 14.6324 328.662 16.2994C328.609 17.9242 327.49 19.2451 326.166 19.2451Z" fill="black"/>
<path d="M320.756 15.0438C320.665 15.1176 320.649 15.2511 320.721 15.3407C320.794 15.4338 320.928 15.4478 321.021 15.3758C322.377 14.2832 323.44 15.3934 323.482 15.4408C323.524 15.4865 323.582 15.5076 323.638 15.5076C323.688 15.5076 323.742 15.4918 323.782 15.4514C323.868 15.3723 323.872 15.2371 323.795 15.1527C323.782 15.1387 322.428 13.7001 320.756 15.0438Z" fill="black"/>
<path d="M323.983 22.9483C323.972 22.9588 322.721 24.0672 319.632 22.7902C319.526 22.7463 319.4 22.7972 319.356 22.9044C319.312 23.015 319.365 23.1362 319.47 23.1836C320.649 23.6702 321.585 23.83 322.309 23.83C323.631 23.83 324.232 23.2943 324.269 23.2592C324.355 23.1801 324.36 23.0449 324.281 22.9588C324.204 22.8727 324.069 22.8692 323.983 22.9483Z" fill="black"/>
<path d="M319.431 14.4337C319.37 14.4144 317.894 13.9348 316.875 14.843C316.787 14.922 316.779 15.0555 316.856 15.1433C316.9 15.1907 316.958 15.2136 317.016 15.2136C317.065 15.2136 317.116 15.196 317.158 15.1609C317.991 14.4161 319.285 14.8324 319.298 14.8342C319.408 14.8728 319.528 14.8131 319.563 14.7007C319.601 14.59 319.54 14.4723 319.431 14.4337Z" fill="black"/>
<path d="M324.527 14.4341C324.417 14.4728 324.357 14.5905 324.396 14.7029C324.431 14.8153 324.552 14.875 324.663 14.8364C324.673 14.8328 325.968 14.4166 326.804 15.1631C326.843 15.1982 326.894 15.2158 326.944 15.2158C327.002 15.2158 327.059 15.1912 327.101 15.1455C327.18 15.0577 327.173 14.9242 327.085 14.8452C326.064 13.9335 324.591 14.4148 324.527 14.4341Z" fill="black"/>
<path d="M325.347 15.9707C325.09 15.9707 324.878 16.2465 324.878 16.5855C324.878 16.9245 325.088 17.2003 325.347 17.2003C325.605 17.2003 325.814 16.9245 325.814 16.5855C325.814 16.2465 325.603 15.9707 325.347 15.9707Z" fill="black"/>
<path d="M317.988 15.9707C317.73 15.9707 317.521 16.2465 317.521 16.5855C317.521 16.9245 317.728 17.2003 317.988 17.2003C318.246 17.2003 318.457 16.9245 318.457 16.5855C318.457 16.2465 318.246 15.9707 317.988 15.9707Z" fill="black"/>
<path d="M322.807 18.5556C322.386 18.4537 321.905 18.6716 321.379 19.2038C321.297 19.2863 321.297 19.4198 321.379 19.5024C321.42 19.5446 321.476 19.5674 321.529 19.5674C321.583 19.5674 321.638 19.5463 321.678 19.5024C322.087 19.0914 322.446 18.9052 322.709 18.9666C323.001 19.0369 323.129 19.4005 323.132 19.4111C323.169 19.5235 323.285 19.5832 323.399 19.5463C323.51 19.5112 323.571 19.3917 323.533 19.2793C323.528 19.2565 323.333 18.6821 322.807 18.5556Z" fill="black"/>
<path d="M313.508 22.0332C313.508 21.9261 313.427 21.8418 313.327 21.8418C313.227 21.8418 313.146 21.9279 313.146 22.0332C313.146 25.195 318.17 27.4205 318.382 27.5136C318.405 27.5259 318.428 27.5295 318.451 27.5295C318.523 27.5295 318.59 27.4855 318.62 27.4118C318.658 27.3116 318.614 27.1992 318.521 27.1588C318.47 27.136 313.508 24.9386 313.508 22.0332Z" fill="black"/>
<path d="M312.441 14.2249C311.761 13.9526 311.086 14.1124 310.588 14.6587C309.629 15.7144 310.22 17.1056 310.667 17.6923C310.707 17.7485 310.772 17.7783 310.837 17.7783C310.881 17.7783 310.928 17.7643 310.965 17.7344C311.057 17.6659 311.076 17.5289 311.002 17.4376C310.993 17.4235 309.936 16.006 310.9 14.9486C311.411 14.3882 311.986 14.5042 312.283 14.6218C312.896 14.866 313.349 15.5054 313.337 16.1096C313.335 16.2273 313.428 16.3222 313.544 16.3257H313.549C313.663 16.3257 313.758 16.2326 313.76 16.1167C313.776 15.3297 313.221 14.5358 312.441 14.2249Z" fill="black"/>
<path d="M312.537 14.3868C312.075 14.5572 311.774 14.8242 311.646 15.1861C311.437 15.7622 311.767 16.3454 311.783 16.37C311.82 16.4367 311.89 16.4754 311.962 16.4754C311.999 16.4754 312.036 16.4666 312.068 16.4473C312.171 16.3893 312.203 16.2593 312.145 16.1574C312.143 16.1522 311.901 15.7183 312.041 15.3283C312.127 15.093 312.343 14.9103 312.679 14.7856C312.79 14.7469 312.847 14.6222 312.805 14.5133C312.768 14.4026 312.646 14.3447 312.537 14.3868Z" fill="black"/>
<path d="M342.599 64.1042C342.534 64.0902 342.335 64.0638 341.748 64.0638C338.648 64.0638 329.128 64.7348 329.035 64.7401L328.901 64.7489L328.829 64.6382C328.79 64.5767 327.872 63.1258 329.488 61.2411C330.415 60.1573 330.515 58.933 330.294 58.4447C330.262 58.3779 330.197 58.2655 330.108 58.2655C330.071 58.2655 329.985 58.2831 329.857 58.4025L329.402 58.8188C328.239 59.8798 326.071 61.8541 325.284 63.0362L325.132 63.2699C324.257 64.5838 323.566 65.6236 322.152 67.1272C321.905 67.389 321.241 67.7385 318.32 67.7385C315.081 67.7385 310.723 67.2976 309.695 67.1905L308.436 77.728C311.091 77.0587 324.905 75.2407 328.873 75.2407C329.372 75.2407 329.751 75.2635 330.027 75.3074C330.271 75.3478 330.505 75.3672 330.73 75.3672C331.928 75.3672 332.943 74.8384 334.23 74.1674C334.503 74.0269 334.787 73.8776 335.086 73.7283C336.863 72.8377 336.412 71.8242 336.394 71.7856L336.291 71.5783L336.496 71.4799C337.833 70.83 337.679 69.3739 337.673 69.3124L337.663 69.2122L337.724 69.1385C338.713 67.9844 338.746 67.4206 338.68 67.1905C338.615 66.9727 338.423 66.9112 338.418 66.9094L337.211 66.5827L338.455 66.465C339.888 66.3298 341.928 65.801 342.653 65.3812C343.043 65.1511 343.236 64.8894 343.201 64.6417C343.164 64.4028 342.906 64.171 342.599 64.1042Z" fill="white"/>
<path d="M342.63 63.9527C341.646 63.7436 330.961 64.4533 329.087 64.5815L328.978 64.5885L328.957 64.5552C328.865 64.4094 328.112 63.0849 329.601 61.3442C330.583 60.1989 330.676 58.9219 330.431 58.3792C330.346 58.2018 330.235 58.1122 330.104 58.1122C330.028 58.1122 329.905 58.1438 329.747 58.2913L329.28 58.7182C328.115 59.7826 325.946 61.7605 325.15 62.9549L324.985 63.2061C324.119 64.5095 323.432 65.5371 322.032 67.0248C321.678 67.4025 320.46 67.5869 318.316 67.5869C315.156 67.5869 310.928 67.1671 309.709 67.0389C309.701 67.0389 309.696 67.0389 309.691 67.0389C309.614 67.0389 309.547 67.0969 309.536 67.1759L308.277 77.7134C308.27 77.7626 308.291 77.8153 308.328 77.8486C308.358 77.875 308.393 77.8855 308.432 77.8855C308.444 77.8855 308.458 77.8838 308.47 77.8803C311.128 77.2128 324.862 75.3983 328.869 75.3983C329.348 75.3983 329.73 75.4211 329.998 75.4633C330.244 75.5054 330.481 75.5247 330.727 75.5247C331.96 75.5247 332.991 74.989 334.3 74.3092L334.414 74.2495C334.651 74.1265 334.896 73.9983 335.154 73.8701C337.009 72.9391 336.587 71.8448 336.531 71.7183L336.499 71.6516L336.563 71.6199C337.947 70.9472 337.841 69.4664 337.825 69.296L337.822 69.2609L337.841 69.2398C338.825 68.0911 338.918 67.4675 338.825 67.146C338.749 66.8861 338.532 66.7772 338.456 66.7579L338.077 66.6542L338.468 66.6173C339.918 66.4803 341.987 65.9428 342.73 65.5107C343.176 65.249 343.399 64.931 343.352 64.6131C343.306 64.3127 343 64.0335 342.63 63.9527ZM342.577 65.2472C341.867 65.66 339.858 66.1782 338.442 66.3117L337.198 66.4294C337.125 66.4364 337.067 66.4961 337.06 66.5717C337.053 66.649 337.1 66.7157 337.174 66.735L338.375 67.0617C338.379 67.0635 338.495 67.1039 338.535 67.2356C338.572 67.3639 338.614 67.8698 337.609 69.0414L337.548 69.1151C337.522 69.1503 337.508 69.1889 337.511 69.2328L337.522 69.333C337.537 69.477 337.629 70.7628 336.434 71.3442L336.229 71.4425C336.19 71.4619 336.162 71.4935 336.148 71.5321C336.134 71.569 336.137 71.6147 336.157 71.6498L336.255 71.8518C336.273 71.8887 336.645 72.7775 335.022 73.5908C334.764 73.719 334.514 73.849 334.277 73.972L334.158 74.0352C332.891 74.6939 331.892 75.2138 330.734 75.2138C330.508 75.2138 330.286 75.1945 330.055 75.1559C329.766 75.1084 329.378 75.0874 328.876 75.0874C324.954 75.0874 311.746 76.8175 308.619 77.5254L309.835 67.3621C311.228 67.5061 315.268 67.8943 318.323 67.8943C321.268 67.8943 321.978 67.5413 322.268 67.2339C323.685 65.7285 324.376 64.6887 325.264 63.3555L325.417 63.1236C326.19 61.9625 328.338 60.0004 329.508 58.9342L329.965 58.5179C330.042 58.4441 330.088 58.4266 330.093 58.4196C330.102 58.4266 330.123 58.4512 330.153 58.5074C330.33 58.8991 330.283 60.0725 329.37 61.1369C327.734 63.0481 328.593 64.5516 328.697 64.7203L328.771 64.8309C328.804 64.8784 328.86 64.9065 328.911 64.9012L329.111 64.8871C330.729 64.7747 338.934 64.2144 341.748 64.2144C342.349 64.2144 342.524 64.2443 342.565 64.2513C342.809 64.304 343.021 64.4849 343.049 64.6606C343.074 64.845 342.904 65.0558 342.577 65.2472Z" fill="#000100"/>
<path d="M337.491 69.0877C337.477 69.0982 336.097 70.0906 332.735 69.1333C332.621 69.1 332.503 69.1632 332.473 69.2774C332.441 69.3898 332.506 69.5092 332.617 69.5409C333.757 69.8676 334.686 69.9782 335.424 69.9782C337.007 69.9782 337.711 69.4565 337.75 69.4249C337.843 69.3547 337.86 69.2212 337.788 69.1298C337.72 69.035 337.584 69.0174 337.491 69.0877Z" fill="black"/>
<path d="M337.583 66.339C337.57 66.3407 336.352 66.5708 332.649 66.4689C332.54 66.4602 332.434 66.5603 332.431 66.6762C332.427 66.7939 332.52 66.8905 332.636 66.894C333.321 66.9116 333.919 66.9204 334.44 66.9204C336.805 66.9204 337.625 66.7641 337.665 66.7553C337.78 66.7324 337.853 66.6218 337.832 66.5059C337.808 66.3899 337.699 66.3161 337.583 66.339Z" fill="black"/>
<path d="M336.212 71.4058C336.195 71.4146 334.551 72.2648 331.378 72.112C331.254 72.1172 331.161 72.1963 331.157 72.3122C331.152 72.4299 331.243 72.53 331.359 72.5353C331.624 72.5476 331.881 72.5529 332.125 72.5529C334.921 72.5529 336.344 71.8151 336.409 71.7817C336.513 71.7273 336.551 71.599 336.497 71.4954C336.443 71.3935 336.314 71.3531 336.212 71.4058Z" fill="black"/>
<path d="M304.303 64.5068C304.303 64.5068 307.644 53.2052 306.227 41.5137L290.766 49.9345C290.766 49.9345 288.291 58.8419 289.055 66.7938C289.619 72.6571 290.897 80.1646 303.68 80.2295C308.41 80.2541 318.268 79.2441 318.268 79.2441C317.708 77.6738 318.326 66.9677 318.326 66.9677L304.303 64.5068Z" fill="#22CAFF"/>
<path d="M318.353 66.8151L304.5 64.3841C304.902 62.9296 307.691 52.3166 306.381 41.4946C306.368 41.4103 306.293 41.3541 306.207 41.3576C306.121 41.3681 306.061 41.4454 306.07 41.5315C307.468 53.0579 304.187 64.3507 304.152 64.4631C304.139 64.507 304.146 64.5509 304.169 64.5896C304.194 64.6264 304.233 64.6528 304.275 64.6598L318.162 67.0979C318.09 68.3661 317.619 77.14 318.067 79.1073C316.711 79.2444 308.216 80.0735 303.846 80.0735C303.792 80.0735 303.735 80.0735 303.679 80.0735C290.479 80.0067 289.683 71.7264 289.209 66.7782C288.454 58.9476 290.888 50.0648 290.914 49.9752C290.937 49.8926 290.888 49.8065 290.804 49.7837C290.723 49.7661 290.637 49.8101 290.614 49.8926C290.589 49.9804 288.139 58.9177 288.898 66.8081C289.525 73.3424 291.239 80.3211 303.676 80.3844C303.732 80.3861 303.788 80.3861 303.846 80.3861C308.594 80.3861 318.183 79.4077 318.281 79.3989C318.329 79.3937 318.373 79.3673 318.397 79.3269C318.424 79.2865 318.429 79.2356 318.411 79.1917C317.869 77.6705 318.473 67.0839 318.478 66.9767C318.485 66.8994 318.431 66.8291 318.353 66.8151Z" fill="#000100"/>
<path d="M321.655 66.476L313.902 64.0273C311.235 68.842 312.363 75.487 312.685 76.9748L316.607 76.555L313.192 78.503C313.326 79.2653 313.823 81.1079 314.443 82.7661L322.091 77.572C321.197 72.5483 321.567 67.4947 321.655 66.476Z" fill="white"/>
<path d="M321.807 66.4902C321.814 66.4165 321.77 66.3515 321.698 66.3269L313.947 63.88C313.876 63.8607 313.801 63.8888 313.762 63.9538C310.931 69.0671 312.359 76.2109 312.531 77.0101C312.548 77.0874 312.62 77.1348 312.699 77.1313L315.884 76.7906L313.114 78.3697C313.058 78.4031 313.028 78.4681 313.038 78.5331C313.186 79.3692 313.708 81.2469 314.296 82.8243C314.314 82.8682 314.349 82.9033 314.395 82.9174C314.41 82.9227 314.426 82.9227 314.442 82.9227C314.474 82.9227 314.502 82.9139 314.53 82.8963L322.178 77.7022C322.229 77.6671 322.255 77.6056 322.244 77.5459C321.35 72.538 321.723 67.4563 321.807 66.4902ZM321.92 77.5037L314.517 82.5292C313.94 80.9465 313.506 79.3165 313.365 78.5858L316.685 76.6905C316.748 76.6553 316.778 76.578 316.755 76.5078C316.732 76.4358 316.659 76.3989 316.59 76.3989L312.807 76.8029C312.554 75.5557 311.396 69.0003 313.976 64.2138L321.487 66.5833C321.389 67.8076 321.075 72.6732 321.92 77.5037Z" fill="#000100"/>
<path d="M319.177 76.1094C319.095 76.1094 319.012 76.1217 318.933 76.1445C318.72 76.2095 318.545 76.3553 318.439 76.552C318.334 76.7488 318.311 76.9754 318.378 77.1897C318.487 77.5462 318.808 77.7834 319.177 77.7834C319.26 77.7834 319.341 77.7711 319.421 77.7465C319.86 77.613 320.112 77.144 319.976 76.7013C319.869 76.3483 319.548 76.1094 319.177 76.1094Z" fill="black"/>
<path d="M319.173 75.9531C319.075 75.9531 318.977 75.9672 318.884 75.9953C318.631 76.0726 318.424 76.2447 318.301 76.4766C318.172 76.7102 318.146 76.9807 318.225 77.2336C318.353 77.6552 318.734 77.938 319.173 77.938C319.27 77.938 319.367 77.924 319.463 77.8959C319.985 77.736 320.28 77.1809 320.12 76.6557C319.994 76.2342 319.613 75.9531 319.173 75.9531ZM319.374 77.599C319.014 77.7079 318.633 77.5006 318.525 77.1423C318.471 76.9702 318.488 76.7857 318.574 76.6259C318.662 76.4643 318.803 76.3483 318.977 76.2956C319.04 76.2763 319.107 76.264 319.175 76.264C319.477 76.264 319.737 76.459 319.825 76.7471C319.934 77.1072 319.732 77.4883 319.374 77.599Z" fill="#000100"/>
<path d="M346.882 37.4751C346.891 37.4979 347.007 37.6331 347.335 37.7456C347.931 37.9493 348.914 37.9546 349.88 37.3521L349.996 37.2783L350.089 37.3837C350.095 37.389 350.667 38.0284 351.547 38.3305C351.844 38.4324 352.143 38.4833 352.438 38.4886L354.511 35.6641C353.444 35.708 350.235 35.8397 349.733 35.8432C349.176 35.845 347.232 36.9604 346.882 37.4751Z" fill="white"/>
<path d="M354.475 35.5085C353.424 35.5507 350.229 35.6842 349.734 35.6877C349.135 35.6894 347.13 36.8347 346.756 37.388C346.726 37.4302 346.719 37.4846 346.74 37.5338C346.777 37.6287 346.967 37.7832 347.288 37.8939C347.919 38.1099 348.954 38.1135 349.967 37.4846L349.971 37.4829C350.022 37.5408 350.614 38.1767 351.501 38.4788C351.808 38.5842 352.123 38.6387 352.439 38.6439C352.49 38.6439 352.537 38.6211 352.567 38.5807L354.641 35.7562C354.676 35.707 354.664 35.6438 354.636 35.5893C354.608 35.5384 354.538 35.4945 354.475 35.5085ZM352.361 38.3295C352.105 38.3172 351.85 38.268 351.597 38.182C350.765 37.8974 350.213 37.2879 350.206 37.2809L350.113 37.1755C350.083 37.1403 350.039 37.1245 349.997 37.1245C349.967 37.1245 349.939 37.1316 349.913 37.1491L349.799 37.2211C348.878 37.7955 347.947 37.792 347.385 37.5988C347.243 37.5496 347.15 37.4987 347.093 37.4618C347.573 36.9577 349.268 36.0004 349.735 35.9986C350.196 35.9968 352.843 35.8897 354.195 35.8335L352.361 38.3295Z" fill="#000100"/>
<path d="M361.146 40.8297L361.014 40.784L361.04 40.6452C361.053 40.5785 361.306 39.0257 359.553 38.4267L359.466 38.3986L359.447 38.309C359.444 38.2932 359.105 36.8388 357.877 36.419C357.492 36.2855 357.051 36.2679 356.568 36.3628L356.408 36.3944L356.377 36.2328C356.377 36.2276 356.241 35.5724 355.697 35.3844C355.512 35.3229 355.3 35.3177 355.063 35.3686C353.828 35.6409 351.084 37.0057 350.354 37.8277L350.041 38.1703C349.245 39.0363 347.915 40.4854 347.868 41.4392C347.854 41.7185 347.949 41.8889 348.163 41.9626C348.629 42.1225 349.466 41.7958 349.96 41.2636C350.758 40.4011 352.519 39.1487 352.593 39.0942L354.351 38.6217L354.849 38.4917L354.518 38.8852C353.558 40.034 351.133 43.2572 351.423 44.3392C351.46 44.4798 351.544 44.5694 351.683 44.6203C353.022 45.077 355.131 42.451 356.663 39.8425L356.939 39.3717L356.967 39.9163C356.97 39.9356 356.997 40.3624 357.362 40.4854L357.536 40.5451L357.476 40.7173C357.471 40.7331 356.788 42.1998 356.818 42.9147L356.821 43.0253L356.723 43.071C356.711 43.0763 355.451 43.6735 354.652 44.7239C354.469 44.9646 354.408 45.214 354.478 45.4494C354.553 45.6971 354.762 45.8938 355.054 45.9939C355.549 46.1625 356.14 46.0203 356.681 45.6022C357.12 45.265 357.508 45.0331 357.852 44.8293C358.232 44.6045 358.53 44.4271 358.739 44.197C359.04 43.8667 359.556 42.6336 359.725 42.1857L360.101 41.2179L360.043 42.2542C359.978 43.4504 359.955 44.7942 360.036 44.9716L360.118 45.156L359.923 45.2052C359.914 45.2087 358.866 45.4494 358.353 45.9342C358.121 46.152 357.998 46.4998 358.052 46.7633C358.091 46.9442 358.212 47.0707 358.411 47.1392C358.585 47.1989 358.811 47.2094 359.085 47.1725C360.541 46.9776 361.422 46.6069 361.898 45.2228C362.417 43.7069 362.447 41.2741 361.146 40.8297Z" fill="white"/>
<path d="M361.2 40.6812L361.195 40.6795L361.197 40.669C361.227 40.4898 361.423 38.9001 359.605 38.2783L359.602 38.2766C359.598 38.2625 359.258 36.7238 357.931 36.2706C357.524 36.1283 357.057 36.1055 356.544 36.2091L356.535 36.2109C356.514 36.0668 356.328 35.4345 355.753 35.236C355.546 35.1657 355.302 35.1587 355.037 35.2167C353.779 35.4942 350.991 36.8871 350.246 37.7232L349.934 38.064C349.124 38.944 347.773 40.4195 347.721 41.4313C347.698 41.8722 347.924 42.0426 348.119 42.1093C348.646 42.285 349.542 41.9512 350.08 41.3698C350.712 40.6865 351.959 39.7503 352.646 39.2514L354.397 38.7719L354.422 38.7666L354.406 38.7842C354.371 38.8263 350.911 42.9946 351.281 44.3805C351.332 44.5667 351.453 44.6967 351.641 44.7687C353.442 45.38 356.048 41.2117 356.805 39.9224L356.819 39.8996L356.823 39.94C356.835 40.0682 356.911 40.4951 357.32 40.6338L357.345 40.6426L357.338 40.6637C357.174 41.0238 356.642 42.2516 356.668 42.9191L356.66 42.9296C356.526 42.9946 355.319 43.5954 354.534 44.6282C354.32 44.911 354.251 45.2096 354.339 45.4942C354.427 45.7875 354.673 46.0229 355.014 46.1406C355.553 46.3232 356.199 46.1775 356.786 45.726C357.231 45.3818 357.642 45.1411 357.951 44.9584C358.335 44.7283 358.639 44.5474 358.862 44.3015C359.245 43.8834 359.874 42.2586 359.881 42.2428L359.9 42.1954L359.897 42.2463C359.892 42.3482 359.763 44.7266 359.902 45.0357L359.909 45.0498L359.888 45.0568C359.626 45.1218 358.738 45.3659 358.253 45.8191C357.981 46.0756 357.84 46.4761 357.908 46.7958C357.959 47.0329 358.119 47.2015 358.367 47.2858C358.488 47.3262 358.632 47.3491 358.797 47.3491C358.898 47.3491 359.001 47.342 359.115 47.3262C360.598 47.1295 361.553 46.729 362.052 45.2728C362.6 43.6568 362.611 41.1678 361.2 40.6812ZM361.755 45.1692C361.304 46.4884 360.498 46.8256 359.071 47.0153C358.822 47.0487 358.616 47.0399 358.467 46.989C358.321 46.9398 358.24 46.8573 358.211 46.729C358.167 46.5182 358.274 46.2231 358.465 46.0457C358.906 45.6312 359.788 45.3993 359.969 45.3536L360.162 45.3062C360.206 45.2957 360.245 45.2658 360.264 45.2237C360.285 45.1833 360.287 45.1341 360.268 45.0919L360.185 44.9092C360.134 44.7669 360.131 43.6691 360.206 42.2639L360.264 41.2275C360.268 41.1502 360.217 41.0818 360.143 41.0659C360.131 41.0624 360.118 41.0624 360.11 41.0624C360.046 41.0624 359.988 41.1011 359.964 41.1625L359.59 42.1304C359.395 42.6433 358.899 43.7991 358.632 44.0924C358.439 44.305 358.153 44.4754 357.782 44.6949C357.475 44.8759 357.055 45.1235 356.593 45.4801C356.096 45.8631 355.558 45.9983 355.114 45.8455C354.87 45.7629 354.696 45.6013 354.634 45.4028C354.566 45.1727 354.675 44.9584 354.78 44.8179C355.523 43.843 356.665 43.2739 356.793 43.2124L356.891 43.1668C356.946 43.1387 356.983 43.0824 356.981 43.021L356.978 42.9103C356.96 42.4343 357.297 41.5051 357.629 40.7691L357.689 40.597C357.703 40.5601 357.699 40.5144 357.68 40.4793C357.663 40.4424 357.631 40.4125 357.591 40.4002L357.417 40.3405C357.188 40.2632 357.139 40.012 357.129 39.9101L357.101 39.3656C357.097 39.2971 357.05 39.2374 356.983 39.2233C356.918 39.2093 356.846 39.2356 356.811 39.2953L356.535 39.7643C354.648 42.9753 352.764 44.8337 351.743 44.4771C351.648 44.442 351.603 44.3928 351.578 44.2997C351.346 43.4425 353.229 40.676 354.64 38.9862L354.97 38.5927C355.014 38.54 355.019 38.4663 354.982 38.4083C354.945 38.3503 354.875 38.3275 354.812 38.3415L352.555 38.9458C352.535 38.9511 352.518 38.9599 352.504 38.9721L352.462 39.0037C351.766 39.5079 350.499 40.4582 349.85 41.1608C349.4 41.6438 348.613 41.953 348.216 41.8177C348.109 41.7808 348.014 41.7124 348.026 41.4489C348.072 40.5513 349.43 39.0723 350.16 38.2766L350.473 37.934V37.9323C351.188 37.1313 353.883 35.7928 355.102 35.5223C355.312 35.4766 355.5 35.4801 355.65 35.5328C356.105 35.6874 356.224 36.2548 356.228 36.2635L356.261 36.4252C356.268 36.4656 356.292 36.5007 356.326 36.5235C356.363 36.5464 356.403 36.5587 356.442 36.5464L356.602 36.5147C357.058 36.4252 357.471 36.4445 357.829 36.5657C358.969 36.9556 359.293 38.3275 359.296 38.3415L359.316 38.4311C359.328 38.4838 359.366 38.5277 359.421 38.5453L359.505 38.5734C361.081 39.1127 360.914 40.4669 360.889 40.6162L360.863 40.755C360.849 40.8323 360.893 40.9061 360.967 40.9324L361.098 40.9781C362.258 41.3733 362.261 43.6867 361.755 45.1692Z" fill="#000100"/>
<path d="M23.2754 17.2715H16.5859V19.9766H22.7871V22.7891H16.5859V29H12.8555V14.459H23.2754V17.2715ZM36.8789 23.5215C36.8789 25.3249 36.3516 26.7474 35.2969 27.7891C34.2487 28.8242 32.7741 29.3418 30.873 29.3418C28.972 29.3418 27.4941 28.8242 26.4395 27.7891C25.3913 26.7474 24.8672 25.3249 24.8672 23.5215C24.8672 21.7051 25.3945 20.2793 26.4492 19.2441C27.5104 18.209 28.985 17.6914 30.873 17.6914C32.7871 17.6914 34.265 18.2122 35.3066 19.2539C36.3548 20.2956 36.8789 21.7181 36.8789 23.5215ZM32.5527 26.1875C32.7806 25.9076 32.9499 25.5723 33.0605 25.1816C33.1777 24.7845 33.2363 24.2376 33.2363 23.541C33.2363 22.8965 33.1777 22.3561 33.0605 21.9199C32.9434 21.4837 32.7806 21.1354 32.5723 20.875C32.3639 20.6081 32.1133 20.4193 31.8203 20.3086C31.5273 20.1979 31.2116 20.1426 30.873 20.1426C30.5345 20.1426 30.2318 20.1882 29.9648 20.2793C29.7044 20.3704 29.4538 20.5527 29.2129 20.8262C28.998 21.0801 28.8255 21.4284 28.6953 21.8711C28.5716 22.3138 28.5098 22.8704 28.5098 23.541C28.5098 24.14 28.5651 24.6608 28.6758 25.1035C28.7865 25.5397 28.9492 25.8913 29.1641 26.1582C29.3724 26.4121 29.6198 26.5977 29.9062 26.7148C30.1992 26.832 30.5312 26.8906 30.9023 26.8906C31.2214 26.8906 31.5241 26.8385 31.8105 26.7344C32.1035 26.6237 32.3509 26.4414 32.5527 26.1875ZM47.3477 21.3828H47.0352C46.8854 21.3307 46.6445 21.2917 46.3125 21.2656C45.9805 21.2396 45.7038 21.2266 45.4824 21.2266C44.9811 21.2266 44.5384 21.2591 44.1543 21.3242C43.7702 21.3893 43.3568 21.5 42.9141 21.6562V29H39.3984V18.0332H42.9141V19.6445C43.6888 18.9805 44.3626 18.541 44.9355 18.3262C45.5085 18.1048 46.0358 17.9941 46.5176 17.9941C46.6413 17.9941 46.7812 17.9974 46.9375 18.0039C47.0938 18.0104 47.2305 18.0202 47.3477 18.0332V21.3828ZM60.0625 21.2266V29H56.5273V23.5215C56.5273 22.9876 56.5143 22.5352 56.4883 22.1641C56.4622 21.7865 56.3906 21.4805 56.2734 21.2461C56.1562 21.0117 55.9772 20.8424 55.7363 20.7383C55.502 20.6276 55.1699 20.5723 54.7402 20.5723C54.3952 20.5723 54.0599 20.6439 53.7344 20.7871C53.4089 20.9238 53.1159 21.0703 52.8555 21.2266V29H49.3398V18.0332H52.8555V19.2441C53.4609 18.7689 54.0404 18.3978 54.5938 18.1309C55.1471 17.8639 55.7591 17.7305 56.4297 17.7305C57.1523 17.7305 57.7904 17.8932 58.3438 18.2188C58.8971 18.5378 59.3301 19.0098 59.6426 19.6348C60.3457 19.0423 61.0293 18.5768 61.6934 18.2383C62.3574 17.8997 63.0085 17.7305 63.6465 17.7305C64.8314 17.7305 65.7298 18.0853 66.3418 18.7949C66.9603 19.5046 67.2695 20.5267 67.2695 21.8613V29H63.7344V23.5215C63.7344 22.9811 63.7214 22.5254 63.6953 22.1543C63.6758 21.7832 63.6074 21.4805 63.4902 21.2461C63.3796 21.0117 63.2038 20.8424 62.9629 20.7383C62.722 20.6276 62.3835 20.5723 61.9473 20.5723C61.6543 20.5723 61.3678 20.6243 61.0879 20.7285C60.8079 20.8262 60.4661 20.9922 60.0625 21.2266ZM87.9922 29H78.2852V26.4609H81.3516V18.7754H78.2852V16.4023C78.7539 16.4023 79.2031 16.3763 79.6328 16.3242C80.0625 16.2656 80.4206 16.168 80.707 16.0312C81.0456 15.8685 81.2995 15.6569 81.4688 15.3965C81.638 15.1361 81.7357 14.8105 81.7617 14.4199H84.9941V26.4609H87.9922V29ZM103.129 29H91.7129V26.5977C92.5853 25.9661 93.4577 25.2956 94.3301 24.5859C95.209 23.8763 95.9121 23.2643 96.4395 22.75C97.2272 21.9883 97.7871 21.3242 98.1191 20.7578C98.4512 20.1914 98.6172 19.6315 98.6172 19.0781C98.6172 18.4141 98.4023 17.903 97.9727 17.5449C97.5495 17.1803 96.9375 16.998 96.1367 16.998C95.5378 16.998 94.9062 17.1217 94.2422 17.3691C93.5846 17.6165 92.9727 17.9323 92.4062 18.3164H92.0938V15.084C92.556 14.8822 93.2363 14.6803 94.1348 14.4785C95.0397 14.2767 95.9447 14.1758 96.8496 14.1758C98.6725 14.1758 100.062 14.5599 101.02 15.3281C101.977 16.0898 102.455 17.1706 102.455 18.5703C102.455 19.4883 102.224 20.3607 101.762 21.1875C101.306 22.0143 100.606 22.8672 99.6621 23.7461C99.0697 24.293 98.474 24.7975 97.875 25.2598C97.276 25.7155 96.8496 26.0345 96.5957 26.2168H103.129V29ZM118.422 24.5469C118.422 25.25 118.279 25.8783 117.992 26.4316C117.712 26.985 117.325 27.444 116.83 27.8086C116.257 28.2383 115.626 28.5443 114.936 28.7266C114.252 28.9089 113.383 29 112.328 29H105.98V14.459H111.625C112.797 14.459 113.653 14.498 114.193 14.5762C114.74 14.6543 115.281 14.8268 115.814 15.0938C116.368 15.3737 116.778 15.7513 117.045 16.2266C117.318 16.6953 117.455 17.2324 117.455 17.8379C117.455 18.541 117.27 19.1628 116.898 19.7031C116.527 20.237 116.003 20.6536 115.326 20.9531V21.0312C116.277 21.2201 117.029 21.6107 117.582 22.2031C118.142 22.7956 118.422 23.5768 118.422 24.5469ZM113.617 18.5703C113.617 18.3294 113.555 18.0885 113.432 17.8477C113.314 17.6068 113.103 17.4277 112.797 17.3105C112.523 17.2064 112.182 17.151 111.771 17.1445C111.368 17.1315 110.798 17.125 110.062 17.125H109.711V20.2012H110.297C110.889 20.2012 111.394 20.1914 111.811 20.1719C112.227 20.1523 112.556 20.0872 112.797 19.9766C113.135 19.8268 113.357 19.6348 113.461 19.4004C113.565 19.1595 113.617 18.8828 113.617 18.5703ZM114.535 24.4883C114.535 24.026 114.444 23.6712 114.262 23.4238C114.086 23.1699 113.783 22.9811 113.354 22.8574C113.061 22.7728 112.657 22.7272 112.143 22.7207C111.628 22.7142 111.091 22.7109 110.531 22.7109H109.711V26.334H109.984C111.039 26.334 111.794 26.3307 112.25 26.3242C112.706 26.3177 113.126 26.2331 113.51 26.0703C113.9 25.9076 114.167 25.6927 114.311 25.4258C114.46 25.1523 114.535 24.8398 114.535 24.4883ZM133.656 24.5469C133.656 25.25 133.513 25.8783 133.227 26.4316C132.947 26.985 132.559 27.444 132.064 27.8086C131.492 28.2383 130.86 28.5443 130.17 28.7266C129.486 28.9089 128.617 29 127.562 29H121.215V14.459H126.859C128.031 14.459 128.887 14.498 129.428 14.5762C129.975 14.6543 130.515 14.8268 131.049 15.0938C131.602 15.3737 132.012 15.7513 132.279 16.2266C132.553 16.6953 132.689 17.2324 132.689 17.8379C132.689 18.541 132.504 19.1628 132.133 19.7031C131.762 20.237 131.238 20.6536 130.561 20.9531V21.0312C131.511 21.2201 132.263 21.6107 132.816 22.2031C133.376 22.7956 133.656 23.5768 133.656 24.5469ZM128.852 18.5703C128.852 18.3294 128.79 18.0885 128.666 17.8477C128.549 17.6068 128.337 17.4277 128.031 17.3105C127.758 17.2064 127.416 17.151 127.006 17.1445C126.602 17.1315 126.033 17.125 125.297 17.125H124.945V20.2012H125.531C126.124 20.2012 126.628 20.1914 127.045 20.1719C127.462 20.1523 127.79 20.0872 128.031 19.9766C128.37 19.8268 128.591 19.6348 128.695 19.4004C128.799 19.1595 128.852 18.8828 128.852 18.5703ZM129.77 24.4883C129.77 24.026 129.678 23.6712 129.496 23.4238C129.32 23.1699 129.018 22.9811 128.588 22.8574C128.295 22.7728 127.891 22.7272 127.377 22.7207C126.863 22.7142 126.326 22.7109 125.766 22.7109H124.945V26.334H125.219C126.273 26.334 127.029 26.3307 127.484 26.3242C127.94 26.3177 128.36 26.2331 128.744 26.0703C129.135 25.9076 129.402 25.6927 129.545 25.4258C129.695 25.1523 129.77 24.8398 129.77 24.4883Z" fill="url(#paint0_linear_1453_104724)"/>
<path d="M18.3477 46.2754L15.2773 51.1738V55H14.1172V51.2969L11.0352 46.2754H12.3184L14.7031 50.1777L17.1113 46.2754H18.3477ZM23.8032 51.7305C23.8032 52.7969 23.5298 53.6387 22.9829 54.2559C22.436 54.873 21.7036 55.1816 20.7856 55.1816C19.8598 55.1816 19.1235 54.873 18.5766 54.2559C18.0337 53.6387 17.7622 52.7969 17.7622 51.7305C17.7622 50.6641 18.0337 49.8223 18.5766 49.2051C19.1235 48.584 19.8598 48.2734 20.7856 48.2734C21.7036 48.2734 22.436 48.584 22.9829 49.2051C23.5298 49.8223 23.8032 50.6641 23.8032 51.7305ZM22.6665 51.7305C22.6665 50.8828 22.5005 50.2539 22.1684 49.8438C21.8364 49.4297 21.3755 49.2227 20.7856 49.2227C20.188 49.2227 19.7231 49.4297 19.3911 49.8438C19.063 50.2539 18.8989 50.8828 18.8989 51.7305C18.8989 52.5508 19.0649 53.1738 19.397 53.5996C19.729 54.0215 20.1919 54.2324 20.7856 54.2324C21.3716 54.2324 21.8305 54.0234 22.1626 53.6055C22.4985 53.1836 22.6665 52.5586 22.6665 51.7305ZM30.4599 55H29.3584V54.2734C28.9873 54.5664 28.6318 54.791 28.292 54.9473C27.9521 55.1035 27.5771 55.1816 27.167 55.1816C26.4795 55.1816 25.9443 54.9727 25.5615 54.5547C25.1787 54.1328 24.9873 53.5156 24.9873 52.7031V48.4551H26.0888V52.1816C26.0888 52.5137 26.1045 52.7988 26.1357 53.0371C26.167 53.2715 26.2334 53.4727 26.3349 53.6406C26.4404 53.8125 26.5771 53.9375 26.7451 54.0156C26.913 54.0938 27.1572 54.1328 27.4775 54.1328C27.7627 54.1328 28.0732 54.0586 28.4091 53.9102C28.749 53.7617 29.0654 53.5723 29.3584 53.3418V48.4551H30.4599V55ZM40.7265 54.5898C40.3593 54.7656 40.0097 54.9023 39.6777 55C39.3495 55.0977 38.9999 55.1465 38.6288 55.1465C38.1562 55.1465 37.7226 55.0781 37.328 54.9414C36.9335 54.8008 36.5956 54.5898 36.3144 54.3086C36.0292 54.0273 35.8085 53.6719 35.6523 53.2422C35.496 52.8125 35.4179 52.3105 35.4179 51.7363C35.4179 50.666 35.7109 49.8262 36.2968 49.2168C36.8866 48.6074 37.664 48.3027 38.6288 48.3027C39.0038 48.3027 39.371 48.3555 39.7304 48.4609C40.0937 48.5664 40.4257 48.6953 40.7265 48.8477V50.0723H40.6679C40.332 49.8105 39.9843 49.6094 39.6249 49.4688C39.2695 49.3281 38.9218 49.2578 38.582 49.2578C37.957 49.2578 37.4628 49.4688 37.0995 49.8906C36.7402 50.3086 36.5605 50.9238 36.5605 51.7363C36.5605 52.5254 36.7362 53.1328 37.0878 53.5586C37.4433 53.9805 37.9413 54.1914 38.582 54.1914C38.8046 54.1914 39.0312 54.1621 39.2616 54.1035C39.4921 54.0449 39.6991 53.9688 39.8827 53.875C40.0429 53.793 40.1933 53.707 40.3339 53.6172C40.4745 53.5234 40.5859 53.4434 40.6679 53.377H40.7265V54.5898ZM46.7504 55H45.6547V54.3027C45.557 54.3691 45.4242 54.4629 45.2563 54.584C45.0922 54.7012 44.932 54.7949 44.7758 54.8652C44.5922 54.9551 44.3813 55.0293 44.143 55.0879C43.9047 55.1504 43.6254 55.1816 43.3051 55.1816C42.7152 55.1816 42.2152 54.9863 41.8051 54.5957C41.3949 54.2051 41.1898 53.707 41.1898 53.1016C41.1898 52.6055 41.2953 52.2051 41.5063 51.9004C41.7211 51.5918 42.0258 51.3496 42.4203 51.1738C42.8188 50.998 43.2973 50.8789 43.8559 50.8164C44.4145 50.7539 45.0141 50.707 45.6547 50.6758V50.5059C45.6547 50.2559 45.6098 50.0488 45.5199 49.8848C45.434 49.7207 45.309 49.5918 45.1449 49.498C44.9887 49.4082 44.8012 49.3477 44.5824 49.3164C44.3637 49.2852 44.1352 49.2695 43.8969 49.2695C43.6078 49.2695 43.2855 49.3086 42.9301 49.3867C42.5746 49.4609 42.2074 49.5703 41.8285 49.7148H41.7699V48.5957C41.9848 48.5371 42.2953 48.4727 42.7016 48.4023C43.1078 48.332 43.5082 48.2969 43.9027 48.2969C44.3637 48.2969 44.7641 48.3359 45.1039 48.4141C45.4477 48.4883 45.7445 48.6172 45.9945 48.8008C46.2406 48.9805 46.4281 49.2129 46.557 49.498C46.6859 49.7832 46.7504 50.1367 46.7504 50.5586V55ZM45.6547 53.3887V51.5664C45.3188 51.5859 44.9223 51.6152 44.4652 51.6543C44.0121 51.6934 43.6527 51.75 43.3871 51.8242C43.0707 51.9141 42.8148 52.0547 42.6195 52.2461C42.4242 52.4336 42.3266 52.6934 42.3266 53.0254C42.3266 53.4004 42.4398 53.6836 42.6664 53.875C42.893 54.0625 43.2387 54.1562 43.7035 54.1562C44.0902 54.1562 44.4438 54.082 44.7641 53.9336C45.0844 53.7812 45.3813 53.5996 45.6547 53.3887ZM53.8641 55H52.7626V51.2734C52.7626 50.9727 52.745 50.6914 52.7098 50.4297C52.6747 50.1641 52.6102 49.957 52.5165 49.8086C52.4188 49.6445 52.2782 49.5234 52.0946 49.4453C51.911 49.3633 51.6727 49.3223 51.3798 49.3223C51.079 49.3223 50.7645 49.3965 50.4364 49.5449C50.1083 49.6934 49.7938 49.8828 49.493 50.1133V55H48.3915V48.4551H49.493V49.1816C49.8368 48.8965 50.1923 48.6738 50.5595 48.5137C50.9266 48.3535 51.3036 48.2734 51.6903 48.2734C52.3973 48.2734 52.9364 48.4863 53.3075 48.9121C53.6786 49.3379 53.8641 49.9512 53.8641 50.752V55ZM64.9041 48.4551L62.2557 55H61.1483L58.5174 48.4551H59.7127L61.7401 53.6641L63.7498 48.4551H64.9041ZM67.0491 47.3594H65.807V46.2168H67.0491V47.3594ZM66.9788 55H65.8773V48.4551H66.9788V55ZM74.157 51.8418H69.3348C69.3348 52.2441 69.3953 52.5957 69.5164 52.8965C69.6375 53.1934 69.8035 53.4375 70.0145 53.6289C70.2176 53.8164 70.4578 53.957 70.7352 54.0508C71.0164 54.1445 71.325 54.1914 71.6609 54.1914C72.1063 54.1914 72.5535 54.1035 73.0027 53.9277C73.4559 53.748 73.7781 53.5723 73.9695 53.4004H74.0281V54.6016C73.657 54.7578 73.2781 54.8887 72.8914 54.9941C72.5047 55.0996 72.0984 55.1523 71.6727 55.1523C70.5867 55.1523 69.7391 54.8594 69.1297 54.2734C68.5203 53.6836 68.2156 52.8477 68.2156 51.7656C68.2156 50.6953 68.5066 49.8457 69.0887 49.2168C69.6746 48.5879 70.4441 48.2734 71.3973 48.2734C72.2801 48.2734 72.9598 48.5312 73.4363 49.0469C73.9168 49.5625 74.157 50.2949 74.157 51.2441V51.8418ZM73.0848 50.998C73.0809 50.4199 72.9344 49.9727 72.6453 49.6562C72.3602 49.3398 71.9246 49.1816 71.3387 49.1816C70.7488 49.1816 70.2781 49.3555 69.9266 49.7031C69.5789 50.0508 69.3816 50.4824 69.3348 50.998H73.0848ZM83.5794 48.4551L81.8743 55H80.8548L79.1731 49.9551L77.5032 55H76.4895L74.7669 48.4551H75.9153L77.1165 53.5234L78.7513 48.4551H79.6595L81.3352 53.5234L82.472 48.4551H83.5794ZM93.512 55H92.4163V54.3027C92.3186 54.3691 92.1858 54.4629 92.0178 54.584C91.8538 54.7012 91.6936 54.7949 91.5373 54.8652C91.3538 54.9551 91.1428 55.0293 90.9045 55.0879C90.6663 55.1504 90.387 55.1816 90.0666 55.1816C89.4768 55.1816 88.9768 54.9863 88.5666 54.5957C88.1565 54.2051 87.9514 53.707 87.9514 53.1016C87.9514 52.6055 88.0569 52.2051 88.2678 51.9004C88.4827 51.5918 88.7873 51.3496 89.1819 51.1738C89.5803 50.998 90.0588 50.8789 90.6174 50.8164C91.176 50.7539 91.7756 50.707 92.4163 50.6758V50.5059C92.4163 50.2559 92.3713 50.0488 92.2815 49.8848C92.1955 49.7207 92.0705 49.5918 91.9065 49.498C91.7502 49.4082 91.5627 49.3477 91.344 49.3164C91.1252 49.2852 90.8967 49.2695 90.6584 49.2695C90.3694 49.2695 90.0471 49.3086 89.6916 49.3867C89.3362 49.4609 88.969 49.5703 88.5901 49.7148H88.5315V48.5957C88.7463 48.5371 89.0569 48.4727 89.4631 48.4023C89.8694 48.332 90.2698 48.2969 90.6643 48.2969C91.1252 48.2969 91.5256 48.3359 91.8655 48.4141C92.2092 48.4883 92.5061 48.6172 92.7561 48.8008C93.0022 48.9805 93.1897 49.2129 93.3186 49.498C93.4475 49.7832 93.512 50.1367 93.512 50.5586V55ZM92.4163 53.3887V51.5664C92.0803 51.5859 91.6838 51.6152 91.2268 51.6543C90.7737 51.6934 90.4143 51.75 90.1487 51.8242C89.8323 51.9141 89.5764 52.0547 89.3811 52.2461C89.1858 52.4336 89.0881 52.6934 89.0881 53.0254C89.0881 53.4004 89.2014 53.6836 89.428 53.875C89.6545 54.0625 90.0002 54.1562 90.4651 54.1562C90.8518 54.1562 91.2053 54.082 91.5256 53.9336C91.8459 53.7812 92.1428 53.5996 92.4163 53.3887ZM100.626 55H99.5241V51.2734C99.5241 50.9727 99.5066 50.6914 99.4714 50.4297C99.4362 50.1641 99.3718 49.957 99.278 49.8086C99.1804 49.6445 99.0398 49.5234 98.8562 49.4453C98.6726 49.3633 98.4343 49.3223 98.1413 49.3223C97.8405 49.3223 97.5261 49.3965 97.198 49.5449C96.8698 49.6934 96.5554 49.8828 96.2546 50.1133V55H95.153V48.4551H96.2546V49.1816C96.5984 48.8965 96.9538 48.6738 97.321 48.5137C97.6882 48.3535 98.0652 48.2734 98.4519 48.2734C99.1589 48.2734 99.698 48.4863 100.069 48.9121C100.44 49.3379 100.626 49.9512 100.626 50.752V55ZM107.575 55H106.474V54.3145C106.157 54.5879 105.827 54.8008 105.484 54.9531C105.14 55.1055 104.767 55.1816 104.364 55.1816C103.583 55.1816 102.962 54.8809 102.501 54.2793C102.044 53.6777 101.816 52.8438 101.816 51.7773C101.816 51.2227 101.894 50.7285 102.05 50.2949C102.21 49.8613 102.425 49.4922 102.695 49.1875C102.96 48.8906 103.269 48.6641 103.62 48.5078C103.976 48.3516 104.343 48.2734 104.722 48.2734C105.066 48.2734 105.37 48.3105 105.636 48.3848C105.902 48.4551 106.181 48.5664 106.474 48.7188V45.8828H107.575V55ZM106.474 53.3887V49.6328C106.177 49.5 105.911 49.4082 105.677 49.3574C105.443 49.3066 105.187 49.2812 104.909 49.2812C104.292 49.2812 103.812 49.4961 103.468 49.9258C103.124 50.3555 102.952 50.9648 102.952 51.7539C102.952 52.5312 103.085 53.123 103.351 53.5293C103.616 53.9316 104.042 54.1328 104.628 54.1328C104.941 54.1328 105.257 54.0645 105.577 53.9277C105.898 53.7871 106.196 53.6074 106.474 53.3887ZM118.311 55H117.209V54.3145C116.893 54.5879 116.563 54.8008 116.219 54.9531C115.875 55.1055 115.502 55.1816 115.1 55.1816C114.319 55.1816 113.697 54.8809 113.236 54.2793C112.779 53.6777 112.551 52.8438 112.551 51.7773C112.551 51.2227 112.629 50.7285 112.785 50.2949C112.945 49.8613 113.16 49.4922 113.43 49.1875C113.695 48.8906 114.004 48.6641 114.356 48.5078C114.711 48.3516 115.078 48.2734 115.457 48.2734C115.801 48.2734 116.106 48.3105 116.371 48.3848C116.637 48.4551 116.916 48.5664 117.209 48.7188V45.8828H118.311V55ZM117.209 53.3887V49.6328C116.912 49.5 116.647 49.4082 116.412 49.3574C116.178 49.3066 115.922 49.2812 115.645 49.2812C115.028 49.2812 114.547 49.4961 114.203 49.9258C113.86 50.3555 113.688 50.9648 113.688 51.7539C113.688 52.5312 113.82 53.123 114.086 53.5293C114.352 53.9316 114.778 54.1328 115.363 54.1328C115.676 54.1328 115.992 54.0645 116.313 53.9277C116.633 53.7871 116.932 53.6074 117.209 53.3887ZM125.577 51.7305C125.577 52.7969 125.303 53.6387 124.756 54.2559C124.21 54.873 123.477 55.1816 122.559 55.1816C121.633 55.1816 120.897 54.873 120.35 54.2559C119.807 53.6387 119.536 52.7969 119.536 51.7305C119.536 50.6641 119.807 49.8223 120.35 49.2051C120.897 48.584 121.633 48.2734 122.559 48.2734C123.477 48.2734 124.21 48.584 124.756 49.2051C125.303 49.8223 125.577 50.6641 125.577 51.7305ZM124.44 51.7305C124.44 50.8828 124.274 50.2539 123.942 49.8438C123.61 49.4297 123.149 49.2227 122.559 49.2227C121.962 49.2227 121.497 49.4297 121.165 49.8438C120.837 50.2539 120.673 50.8828 120.673 51.7305C120.673 52.5508 120.839 53.1738 121.171 53.5996C121.503 54.0215 121.965 54.2324 122.559 54.2324C123.145 54.2324 123.604 54.0234 123.936 53.6055C124.272 53.1836 124.44 52.5586 124.44 51.7305ZM135.04 48.4551L133.335 55H132.316L130.634 49.9551L128.964 55H127.95L126.228 48.4551H127.376L128.577 53.5234L130.212 48.4551H131.12L132.796 53.5234L133.933 48.4551H135.04ZM141.621 55H140.519V51.2734C140.519 50.9727 140.502 50.6914 140.466 50.4297C140.431 50.1641 140.367 49.957 140.273 49.8086C140.175 49.6445 140.035 49.5234 139.851 49.4453C139.668 49.3633 139.429 49.3223 139.136 49.3223C138.836 49.3223 138.521 49.3965 138.193 49.5449C137.865 49.6934 137.55 49.8828 137.25 50.1133V55H136.148V48.4551H137.25V49.1816C137.593 48.8965 137.949 48.6738 138.316 48.5137C138.683 48.3535 139.06 48.2734 139.447 48.2734C140.154 48.2734 140.693 48.4863 141.064 48.9121C141.435 49.3379 141.621 49.9512 141.621 50.752V55ZM144.375 55H143.274V45.8828H144.375V55ZM151.653 51.7305C151.653 52.7969 151.379 53.6387 150.833 54.2559C150.286 54.873 149.553 55.1816 148.635 55.1816C147.71 55.1816 146.973 54.873 146.426 54.2559C145.883 53.6387 145.612 52.7969 145.612 51.7305C145.612 50.6641 145.883 49.8223 146.426 49.2051C146.973 48.584 147.71 48.2734 148.635 48.2734C149.553 48.2734 150.286 48.584 150.833 49.2051C151.379 49.8223 151.653 50.6641 151.653 51.7305ZM150.516 51.7305C150.516 50.8828 150.35 50.2539 150.018 49.8438C149.686 49.4297 149.225 49.2227 148.635 49.2227C148.038 49.2227 147.573 49.4297 147.241 49.8438C146.913 50.2539 146.749 50.8828 146.749 51.7305C146.749 52.5508 146.915 53.1738 147.247 53.5996C147.579 54.0215 148.042 54.2324 148.635 54.2324C149.221 54.2324 149.68 54.0234 150.012 53.6055C150.348 53.1836 150.516 52.5586 150.516 51.7305ZM157.97 55H156.874V54.3027C156.776 54.3691 156.644 54.4629 156.476 54.584C156.312 54.7012 156.151 54.7949 155.995 54.8652C155.812 54.9551 155.601 55.0293 155.362 55.0879C155.124 55.1504 154.845 55.1816 154.524 55.1816C153.935 55.1816 153.435 54.9863 153.024 54.5957C152.614 54.2051 152.409 53.707 152.409 53.1016C152.409 52.6055 152.515 52.2051 152.726 51.9004C152.94 51.5918 153.245 51.3496 153.64 51.1738C154.038 50.998 154.517 50.8789 155.075 50.8164C155.634 50.7539 156.233 50.707 156.874 50.6758V50.5059C156.874 50.2559 156.829 50.0488 156.739 49.8848C156.653 49.7207 156.528 49.5918 156.364 49.498C156.208 49.4082 156.021 49.3477 155.802 49.3164C155.583 49.2852 155.355 49.2695 155.116 49.2695C154.827 49.2695 154.505 49.3086 154.149 49.3867C153.794 49.4609 153.427 49.5703 153.048 49.7148H152.989V48.5957C153.204 48.5371 153.515 48.4727 153.921 48.4023C154.327 48.332 154.728 48.2969 155.122 48.2969C155.583 48.2969 155.983 48.3359 156.323 48.4141C156.667 48.4883 156.964 48.6172 157.214 48.8008C157.46 48.9805 157.648 49.2129 157.776 49.498C157.905 49.7832 157.97 50.1367 157.97 50.5586V55ZM156.874 53.3887V51.5664C156.538 51.5859 156.142 51.6152 155.685 51.6543C155.231 51.6934 154.872 51.75 154.606 51.8242C154.29 51.9141 154.034 52.0547 153.839 52.2461C153.644 52.4336 153.546 52.6934 153.546 53.0254C153.546 53.4004 153.659 53.6836 153.886 53.875C154.112 54.0625 154.458 54.1562 154.923 54.1562C155.31 54.1562 155.663 54.082 155.983 53.9336C156.304 53.7812 156.601 53.5996 156.874 53.3887ZM164.919 55H163.818V54.3145C163.501 54.5879 163.171 54.8008 162.828 54.9531C162.484 55.1055 162.111 55.1816 161.709 55.1816C160.927 55.1816 160.306 54.8809 159.845 54.2793C159.388 53.6777 159.16 52.8438 159.16 51.7773C159.16 51.2227 159.238 50.7285 159.394 50.2949C159.554 49.8613 159.769 49.4922 160.039 49.1875C160.304 48.8906 160.613 48.6641 160.964 48.5078C161.32 48.3516 161.687 48.2734 162.066 48.2734C162.41 48.2734 162.714 48.3105 162.98 48.3848C163.246 48.4551 163.525 48.5664 163.818 48.7188V45.8828H164.919V55ZM163.818 53.3887V49.6328C163.521 49.5 163.255 49.4082 163.021 49.3574C162.787 49.3066 162.531 49.2812 162.253 49.2812C161.636 49.2812 161.156 49.4961 160.812 49.9258C160.468 50.3555 160.296 50.9648 160.296 51.7539C160.296 52.5312 160.429 53.123 160.695 53.5293C160.96 53.9316 161.386 54.1328 161.972 54.1328C162.285 54.1328 162.601 54.0645 162.921 53.9277C163.242 53.7871 163.541 53.6074 163.818 53.3887ZM176.006 47.3066H171.594V49.7676H175.385V50.7988H171.594V55H170.434V46.2754H176.006V47.3066ZM182.054 51.7305C182.054 52.7969 181.78 53.6387 181.233 54.2559C180.686 54.873 179.954 55.1816 179.036 55.1816C178.11 55.1816 177.374 54.873 176.827 54.2559C176.284 53.6387 176.013 52.7969 176.013 51.7305C176.013 50.6641 176.284 49.8223 176.827 49.2051C177.374 48.584 178.11 48.2734 179.036 48.2734C179.954 48.2734 180.686 48.584 181.233 49.2051C181.78 49.8223 182.054 50.6641 182.054 51.7305ZM180.917 51.7305C180.917 50.8828 180.751 50.2539 180.419 49.8438C180.087 49.4297 179.626 49.2227 179.036 49.2227C178.438 49.2227 177.974 49.4297 177.642 49.8438C177.313 50.2539 177.149 50.8828 177.149 51.7305C177.149 52.5508 177.315 53.1738 177.647 53.5996C177.979 54.0215 178.442 54.2324 179.036 54.2324C179.622 54.2324 180.081 54.0234 180.413 53.6055C180.749 53.1836 180.917 52.5586 180.917 51.7305ZM187.369 49.6562H187.31C187.146 49.6172 186.986 49.5898 186.83 49.5742C186.677 49.5547 186.496 49.5449 186.285 49.5449C185.945 49.5449 185.617 49.6211 185.3 49.7734C184.984 49.9219 184.679 50.1152 184.386 50.3535V55H183.285V48.4551H184.386V49.4219C184.824 49.0703 185.208 48.8223 185.54 48.6777C185.876 48.5293 186.218 48.4551 186.566 48.4551C186.757 48.4551 186.896 48.4609 186.982 48.4727C187.068 48.4805 187.197 48.498 187.369 48.5254V49.6562ZM197.476 55H196.375V51.2734C196.375 50.9922 196.361 50.7207 196.334 50.459C196.31 50.1973 196.258 49.9883 196.176 49.832C196.086 49.6641 195.957 49.5371 195.789 49.4512C195.621 49.3652 195.379 49.3223 195.062 49.3223C194.754 49.3223 194.445 49.4004 194.137 49.5566C193.828 49.709 193.519 49.9043 193.211 50.1426C193.223 50.2324 193.232 50.3379 193.24 50.459C193.248 50.5762 193.252 50.6934 193.252 50.8105V55H192.15V51.2734C192.15 50.9844 192.137 50.7109 192.109 50.4531C192.086 50.1914 192.033 49.9824 191.951 49.8262C191.861 49.6582 191.732 49.5332 191.564 49.4512C191.396 49.3652 191.154 49.3223 190.838 49.3223C190.537 49.3223 190.234 49.3965 189.93 49.5449C189.629 49.6934 189.328 49.8828 189.027 50.1133V55H187.926V48.4551H189.027V49.1816C189.371 48.8965 189.713 48.6738 190.053 48.5137C190.396 48.3535 190.762 48.2734 191.148 48.2734C191.594 48.2734 191.971 48.3672 192.279 48.5547C192.592 48.7422 192.824 49.002 192.976 49.334C193.422 48.959 193.828 48.6895 194.195 48.5254C194.562 48.3574 194.955 48.2734 195.373 48.2734C196.092 48.2734 196.621 48.4922 196.961 48.9297C197.305 49.3633 197.476 49.9707 197.476 50.752V55ZM17.3516 72H12.6289V71.1094H14.4453V65.2617H12.6289V64.4648C12.875 64.4648 13.1387 64.4453 13.4199 64.4062C13.7012 64.3633 13.9141 64.3027 14.0586 64.2246C14.2383 64.127 14.3789 64.0039 14.4805 63.8555C14.5859 63.7031 14.6465 63.5 14.6621 63.2461H15.5703V71.1094H17.3516V72ZM24.9985 72H19.0923V70.7754C19.5024 70.4238 19.9126 70.0723 20.3227 69.7207C20.7368 69.3691 21.1216 69.0195 21.477 68.6719C22.227 67.9453 22.7407 67.3691 23.018 66.9434C23.2954 66.5137 23.4341 66.0508 23.4341 65.5547C23.4341 65.1016 23.2837 64.748 22.9829 64.4941C22.686 64.2363 22.27 64.1074 21.7348 64.1074C21.3794 64.1074 20.9946 64.1699 20.5805 64.2949C20.1665 64.4199 19.7622 64.6113 19.3677 64.8691H19.3091V63.6387C19.5864 63.502 19.9555 63.377 20.4165 63.2637C20.8813 63.1504 21.3305 63.0938 21.7641 63.0938C22.6587 63.0938 23.3598 63.3105 23.8677 63.7441C24.3755 64.1738 24.6294 64.7578 24.6294 65.4961C24.6294 65.8281 24.5864 66.1387 24.5005 66.4277C24.4184 66.7129 24.2954 66.9844 24.1313 67.2422C23.979 67.4844 23.7993 67.7227 23.5923 67.957C23.3891 68.1914 23.1411 68.4512 22.8481 68.7363C22.4302 69.1465 21.9985 69.5449 21.5532 69.9316C21.1079 70.3145 20.6919 70.6699 20.3052 70.998H24.9985V72ZM33.0498 69.3164C33.0498 69.75 32.9677 70.1328 32.8037 70.4648C32.6396 70.7969 32.4189 71.0703 32.1416 71.2852C31.8134 71.543 31.4521 71.7266 31.0576 71.8359C30.667 71.9453 30.1689 72 29.5634 72H26.4697V63.2754H29.0537C29.6904 63.2754 30.167 63.2988 30.4834 63.3457C30.7998 63.3926 31.1025 63.4902 31.3916 63.6387C31.7119 63.8066 31.9443 64.0234 32.0888 64.2891C32.2334 64.5508 32.3056 64.8652 32.3056 65.2324C32.3056 65.6465 32.2002 66 31.9892 66.293C31.7783 66.582 31.497 66.8145 31.1455 66.9902V67.0371C31.7353 67.1582 32.2002 67.418 32.54 67.8164C32.8798 68.2109 33.0498 68.7109 33.0498 69.3164ZM31.0986 65.3848C31.0986 65.1738 31.0634 64.9961 30.9931 64.8516C30.9228 64.707 30.8095 64.5898 30.6533 64.5C30.4697 64.3945 30.247 64.3301 29.9853 64.3066C29.7236 64.2793 29.3994 64.2656 29.0127 64.2656H27.6298V66.7852H29.1298C29.4931 66.7852 29.7822 66.7676 29.997 66.7324C30.2119 66.6934 30.4111 66.6152 30.5947 66.498C30.7783 66.3809 30.9072 66.2305 30.9814 66.0469C31.0595 65.8594 31.0986 65.6387 31.0986 65.3848ZM31.8427 69.3633C31.8427 69.0117 31.79 68.7324 31.6845 68.5254C31.5791 68.3184 31.3877 68.1426 31.1103 67.998C30.9228 67.9004 30.6943 67.8379 30.4248 67.8105C30.1591 67.7793 29.8349 67.7637 29.4521 67.7637H27.6298V71.0098H29.165C29.6728 71.0098 30.0888 70.9844 30.413 70.9336C30.7373 70.8789 31.0029 70.7812 31.2099 70.6406C31.4287 70.4883 31.5888 70.3145 31.6904 70.1191C31.792 69.9238 31.8427 69.6719 31.8427 69.3633ZM40.7963 69.3164C40.7963 69.75 40.7143 70.1328 40.5502 70.4648C40.3862 70.7969 40.1655 71.0703 39.8881 71.2852C39.56 71.543 39.1987 71.7266 38.8041 71.8359C38.4135 71.9453 37.9155 72 37.31 72H34.2162V63.2754H36.8002C37.437 63.2754 37.9135 63.2988 38.2299 63.3457C38.5463 63.3926 38.8491 63.4902 39.1381 63.6387C39.4584 63.8066 39.6909 64.0234 39.8354 64.2891C39.9799 64.5508 40.0522 64.8652 40.0522 65.2324C40.0522 65.6465 39.9467 66 39.7358 66.293C39.5248 66.582 39.2436 66.8145 38.892 66.9902V67.0371C39.4819 67.1582 39.9467 67.418 40.2866 67.8164C40.6264 68.2109 40.7963 68.7109 40.7963 69.3164ZM38.8452 65.3848C38.8452 65.1738 38.81 64.9961 38.7397 64.8516C38.6694 64.707 38.5561 64.5898 38.3998 64.5C38.2162 64.3945 37.9936 64.3301 37.7319 64.3066C37.4702 64.2793 37.1459 64.2656 36.7592 64.2656H35.3764V66.7852H36.8764C37.2397 66.7852 37.5287 66.7676 37.7436 66.7324C37.9584 66.6934 38.1577 66.6152 38.3412 66.498C38.5248 66.3809 38.6537 66.2305 38.728 66.0469C38.8061 65.8594 38.8452 65.6387 38.8452 65.3848ZM39.5893 69.3633C39.5893 69.0117 39.5366 68.7324 39.4311 68.5254C39.3256 68.3184 39.1342 68.1426 38.8569 67.998C38.6694 67.9004 38.4409 67.8379 38.1713 67.8105C37.9057 67.7793 37.5815 67.7637 37.1987 67.7637H35.3764V71.0098H36.9116C37.4194 71.0098 37.8354 70.9844 38.1596 70.9336C38.4838 70.8789 38.7495 70.7812 38.9565 70.6406C39.1752 70.4883 39.3354 70.3145 39.437 70.1191C39.5385 69.9238 39.5893 69.6719 39.5893 69.3633ZM51.1918 68.7305C51.1918 69.7969 50.9184 70.6387 50.3715 71.2559C49.8246 71.873 49.0922 72.1816 48.1742 72.1816C47.2484 72.1816 46.5121 71.873 45.9652 71.2559C45.4223 70.6387 45.1508 69.7969 45.1508 68.7305C45.1508 67.6641 45.4223 66.8223 45.9652 66.2051C46.5121 65.584 47.2484 65.2734 48.1742 65.2734C49.0922 65.2734 49.8246 65.584 50.3715 66.2051C50.9184 66.8223 51.1918 67.6641 51.1918 68.7305ZM50.0551 68.7305C50.0551 67.8828 49.8891 67.2539 49.557 66.8438C49.225 66.4297 48.7641 66.2227 48.1742 66.2227C47.5766 66.2227 47.1117 66.4297 46.7797 66.8438C46.4516 67.2539 46.2875 67.8828 46.2875 68.7305C46.2875 69.5508 46.4535 70.1738 46.7855 70.5996C47.1176 71.0215 47.5805 71.2324 48.1742 71.2324C48.7602 71.2324 49.2191 71.0234 49.5512 70.6055C49.8871 70.1836 50.0551 69.5586 50.0551 68.7305ZM55.9442 63.9492H55.8856C55.7645 63.9141 55.6063 63.8789 55.411 63.8438C55.2157 63.8047 55.0438 63.7852 54.8954 63.7852C54.4227 63.7852 54.079 63.8906 53.8641 64.1016C53.6532 64.3086 53.5477 64.6855 53.5477 65.2324V65.4551H55.5341V66.3809H53.5829V72H52.4813V66.3809H51.7372V65.4551H52.4813V65.2383C52.4813 64.4609 52.6747 63.8652 53.0614 63.4512C53.4481 63.0332 54.0067 62.8242 54.7372 62.8242C54.9833 62.8242 55.204 62.8359 55.3993 62.8594C55.5985 62.8828 55.7802 62.9102 55.9442 62.9414V63.9492ZM65.66 68.6484C65.66 69.1797 65.5838 69.666 65.4315 70.1074C65.2791 70.5449 65.0643 70.916 64.787 71.2207C64.5291 71.5098 64.2245 71.7344 63.8729 71.8945C63.5252 72.0508 63.1561 72.1289 62.7655 72.1289C62.4256 72.1289 62.117 72.0918 61.8397 72.0176C61.5662 71.9434 61.287 71.8281 61.0018 71.6719V74.4141H59.9002V65.4551H61.0018V66.1406C61.2948 65.8945 61.6229 65.6895 61.9862 65.5254C62.3534 65.3574 62.744 65.2734 63.158 65.2734C63.9471 65.2734 64.5604 65.5723 64.9979 66.1699C65.4393 66.7637 65.66 67.5898 65.66 68.6484ZM64.5233 68.6777C64.5233 67.8887 64.3885 67.2988 64.119 66.9082C63.8495 66.5176 63.4354 66.3223 62.8768 66.3223C62.5604 66.3223 62.242 66.3906 61.9217 66.5273C61.6014 66.6641 61.2948 66.8438 61.0018 67.0664V70.7754C61.3143 70.916 61.5819 71.0117 61.8045 71.0625C62.0311 71.1133 62.287 71.1387 62.5721 71.1387C63.1854 71.1387 63.6639 70.9316 64.0077 70.5176C64.3514 70.1035 64.5233 69.4902 64.5233 68.6777ZM70.9808 66.6562H70.9222C70.7581 66.6172 70.598 66.5898 70.4417 66.5742C70.2894 66.5547 70.1077 66.5449 69.8968 66.5449C69.557 66.5449 69.2288 66.6211 68.9124 66.7734C68.596 66.9219 68.2913 67.1152 67.9984 67.3535V72H66.8968V65.4551H67.9984V66.4219C68.4359 66.0703 68.8206 65.8223 69.1527 65.6777C69.4886 65.5293 69.8304 65.4551 70.178 65.4551C70.3695 65.4551 70.5081 65.4609 70.5941 65.4727C70.68 65.4805 70.8089 65.498 70.9808 65.5254V66.6562ZM77.116 68.7305C77.116 69.7969 76.8426 70.6387 76.2957 71.2559C75.7488 71.873 75.0164 72.1816 74.0984 72.1816C73.1727 72.1816 72.4363 71.873 71.8895 71.2559C71.3465 70.6387 71.075 69.7969 71.075 68.7305C71.075 67.6641 71.3465 66.8223 71.8895 66.2051C72.4363 65.584 73.1727 65.2734 74.0984 65.2734C75.0164 65.2734 75.7488 65.584 76.2957 66.2051C76.8426 66.8223 77.116 67.6641 77.116 68.7305ZM75.9793 68.7305C75.9793 67.8828 75.8133 67.2539 75.4813 66.8438C75.1492 66.4297 74.6883 66.2227 74.0984 66.2227C73.5008 66.2227 73.0359 66.4297 72.7039 66.8438C72.3758 67.2539 72.2117 67.8828 72.2117 68.7305C72.2117 69.5508 72.3777 70.1738 72.7098 70.5996C73.0418 71.0215 73.5047 71.2324 74.0984 71.2324C74.6844 71.2324 75.1434 71.0234 75.4754 70.6055C75.8113 70.1836 75.9793 69.5586 75.9793 68.7305ZM83.1868 71.5898C82.8196 71.7656 82.47 71.9023 82.138 72C81.8098 72.0977 81.4602 72.1465 81.0891 72.1465C80.6165 72.1465 80.1829 72.0781 79.7884 71.9414C79.3938 71.8008 79.0559 71.5898 78.7747 71.3086C78.4895 71.0273 78.2688 70.6719 78.1126 70.2422C77.9563 69.8125 77.8782 69.3105 77.8782 68.7363C77.8782 67.666 78.1712 66.8262 78.7571 66.2168C79.347 65.6074 80.1243 65.3027 81.0891 65.3027C81.4641 65.3027 81.8313 65.3555 82.1907 65.4609C82.554 65.5664 82.886 65.6953 83.1868 65.8477V67.0723H83.1282C82.7923 66.8105 82.4446 66.6094 82.0852 66.4688C81.7298 66.3281 81.3821 66.2578 81.0423 66.2578C80.4173 66.2578 79.9231 66.4688 79.5598 66.8906C79.2005 67.3086 79.0208 67.9238 79.0208 68.7363C79.0208 69.5254 79.1966 70.1328 79.5481 70.5586C79.9036 70.9805 80.4016 71.1914 81.0423 71.1914C81.2649 71.1914 81.4915 71.1621 81.722 71.1035C81.9524 71.0449 82.1595 70.9688 82.343 70.875C82.5032 70.793 82.6536 70.707 82.7942 70.6172C82.9348 70.5234 83.0462 70.4434 83.1282 70.377H83.1868V71.5898ZM89.6033 68.8418H84.781C84.781 69.2441 84.8416 69.5957 84.9627 69.8965C85.0837 70.1934 85.2498 70.4375 85.4607 70.6289C85.6638 70.8164 85.9041 70.957 86.1814 71.0508C86.4627 71.1445 86.7712 71.1914 87.1072 71.1914C87.5525 71.1914 87.9998 71.1035 88.449 70.9277C88.9021 70.748 89.2244 70.5723 89.4158 70.4004H89.4744V71.6016C89.1033 71.7578 88.7244 71.8887 88.3377 71.9941C87.9509 72.0996 87.5447 72.1523 87.1189 72.1523C86.033 72.1523 85.1853 71.8594 84.5759 71.2734C83.9666 70.6836 83.6619 69.8477 83.6619 68.7656C83.6619 67.6953 83.9529 66.8457 84.5349 66.2168C85.1209 65.5879 85.8904 65.2734 86.8435 65.2734C87.7263 65.2734 88.406 65.5312 88.8826 66.0469C89.363 66.5625 89.6033 67.2949 89.6033 68.2441V68.8418ZM88.531 67.998C88.5271 67.4199 88.3806 66.9727 88.0916 66.6562C87.8064 66.3398 87.3709 66.1816 86.7849 66.1816C86.1951 66.1816 85.7244 66.3555 85.3728 66.7031C85.0252 67.0508 84.8279 67.4824 84.781 67.998H88.531ZM95.469 70.1133C95.469 70.7109 95.2209 71.2012 94.7248 71.584C94.2327 71.9668 93.5588 72.1582 92.7034 72.1582C92.219 72.1582 91.7737 72.1016 91.3674 71.9883C90.9651 71.8711 90.6272 71.7441 90.3538 71.6074V70.3711H90.4123C90.76 70.6328 91.1467 70.8418 91.5725 70.998C91.9983 71.1504 92.4065 71.2266 92.7971 71.2266C93.2815 71.2266 93.6604 71.1484 93.9338 70.9922C94.2073 70.8359 94.344 70.5898 94.344 70.2539C94.344 69.9961 94.2698 69.8008 94.1213 69.668C93.9729 69.5352 93.6877 69.4219 93.2659 69.3281C93.1096 69.293 92.9045 69.252 92.6506 69.2051C92.4006 69.1582 92.1721 69.1074 91.9651 69.0527C91.3909 68.9004 90.9827 68.6777 90.7405 68.3848C90.5022 68.0879 90.383 67.7246 90.383 67.2949C90.383 67.0254 90.4377 66.7715 90.5471 66.5332C90.6604 66.2949 90.8303 66.082 91.0569 65.8945C91.2756 65.7109 91.553 65.5664 91.8889 65.4609C92.2288 65.3516 92.6077 65.2969 93.0256 65.2969C93.4163 65.2969 93.8108 65.3457 94.2092 65.4434C94.6116 65.5371 94.9455 65.6523 95.2112 65.7891V66.9668H95.1526C94.8713 66.7598 94.5295 66.5859 94.1272 66.4453C93.7248 66.3008 93.3303 66.2285 92.9436 66.2285C92.5413 66.2285 92.2014 66.3066 91.9241 66.4629C91.6467 66.6152 91.508 66.8438 91.508 67.1484C91.508 67.418 91.592 67.6211 91.76 67.7578C91.9241 67.8945 92.1897 68.0059 92.5569 68.0918C92.76 68.1387 92.9866 68.1855 93.2366 68.2324C93.4905 68.2793 93.7014 68.3223 93.8694 68.3613C94.3811 68.4785 94.7756 68.6797 95.053 68.9648C95.3303 69.2539 95.469 69.6367 95.469 70.1133ZM101.247 70.1133C101.247 70.7109 100.999 71.2012 100.503 71.584C100.01 71.9668 99.3366 72.1582 98.4812 72.1582C97.9968 72.1582 97.5515 72.1016 97.1452 71.9883C96.7429 71.8711 96.405 71.7441 96.1316 71.6074V70.3711H96.1902C96.5378 70.6328 96.9245 70.8418 97.3503 70.998C97.7761 71.1504 98.1843 71.2266 98.5749 71.2266C99.0593 71.2266 99.4382 71.1484 99.7116 70.9922C99.9851 70.8359 100.122 70.5898 100.122 70.2539C100.122 69.9961 100.048 69.8008 99.8991 69.668C99.7507 69.5352 99.4655 69.4219 99.0437 69.3281C98.8874 69.293 98.6823 69.252 98.4284 69.2051C98.1784 69.1582 97.9499 69.1074 97.7429 69.0527C97.1687 68.9004 96.7605 68.6777 96.5183 68.3848C96.28 68.0879 96.1609 67.7246 96.1609 67.2949C96.1609 67.0254 96.2155 66.7715 96.3249 66.5332C96.4382 66.2949 96.6081 66.082 96.8347 65.8945C97.0534 65.7109 97.3308 65.5664 97.6667 65.4609C98.0066 65.3516 98.3855 65.2969 98.8034 65.2969C99.1941 65.2969 99.5886 65.3457 99.987 65.4434C100.389 65.5371 100.723 65.6523 100.989 65.7891V66.9668H100.93C100.649 66.7598 100.307 66.5859 99.905 66.4453C99.5027 66.3008 99.1081 66.2285 98.7214 66.2285C98.3191 66.2285 97.9792 66.3066 97.7019 66.4629C97.4245 66.6152 97.2859 66.8438 97.2859 67.1484C97.2859 67.418 97.3698 67.6211 97.5378 67.7578C97.7019 67.8945 97.9675 68.0059 98.3347 68.0918C98.5378 68.1387 98.7644 68.1855 99.0144 68.2324C99.2683 68.2793 99.4792 68.3223 99.6472 68.3613C100.159 68.4785 100.553 68.6797 100.831 68.9648C101.108 69.2539 101.247 69.6367 101.247 70.1133ZM107.827 68.8418H103.005C103.005 69.2441 103.066 69.5957 103.187 69.8965C103.308 70.1934 103.474 70.4375 103.685 70.6289C103.888 70.8164 104.128 70.957 104.405 71.0508C104.687 71.1445 104.995 71.1914 105.331 71.1914C105.777 71.1914 106.224 71.1035 106.673 70.9277C107.126 70.748 107.448 70.5723 107.64 70.4004H107.698V71.6016C107.327 71.7578 106.948 71.8887 106.562 71.9941C106.175 72.0996 105.769 72.1523 105.343 72.1523C104.257 72.1523 103.409 71.8594 102.8 71.2734C102.191 70.6836 101.886 69.8477 101.886 68.7656C101.886 67.6953 102.177 66.8457 102.759 66.2168C103.345 65.5879 104.114 65.2734 105.068 65.2734C105.95 65.2734 106.63 65.5312 107.107 66.0469C107.587 66.5625 107.827 67.2949 107.827 68.2441V68.8418ZM106.755 67.998C106.751 67.4199 106.605 66.9727 106.316 66.6562C106.03 66.3398 105.595 66.1816 105.009 66.1816C104.419 66.1816 103.948 66.3555 103.597 66.7031C103.249 67.0508 103.052 67.4824 103.005 67.998H106.755ZM114.326 72H113.224V71.3145C112.908 71.5879 112.578 71.8008 112.234 71.9531C111.89 72.1055 111.517 72.1816 111.115 72.1816C110.334 72.1816 109.713 71.8809 109.252 71.2793C108.795 70.6777 108.566 69.8438 108.566 68.7773C108.566 68.2227 108.644 67.7285 108.8 67.2949C108.961 66.8613 109.175 66.4922 109.445 66.1875C109.711 65.8906 110.019 65.6641 110.371 65.5078C110.726 65.3516 111.093 65.2734 111.472 65.2734C111.816 65.2734 112.121 65.3105 112.386 65.3848C112.652 65.4551 112.931 65.5664 113.224 65.7188V62.8828H114.326V72ZM113.224 70.3887V66.6328C112.927 66.5 112.662 66.4082 112.427 66.3574C112.193 66.3066 111.937 66.2812 111.66 66.2812C111.043 66.2812 110.562 66.4961 110.218 66.9258C109.875 67.3555 109.703 67.9648 109.703 68.7539C109.703 69.5312 109.836 70.123 110.101 70.5293C110.367 70.9316 110.793 71.1328 111.379 71.1328C111.691 71.1328 112.007 71.0645 112.328 70.9277C112.648 70.7871 112.947 70.6074 113.224 70.3887ZM129.303 72H128.202V68.2734C128.202 67.9922 128.188 67.7207 128.161 67.459C128.137 67.1973 128.085 66.9883 128.003 66.832C127.913 66.6641 127.784 66.5371 127.616 66.4512C127.448 66.3652 127.206 66.3223 126.889 66.3223C126.581 66.3223 126.272 66.4004 125.964 66.5566C125.655 66.709 125.346 66.9043 125.038 67.1426C125.049 67.2324 125.059 67.3379 125.067 67.459C125.075 67.5762 125.079 67.6934 125.079 67.8105V72H123.977V68.2734C123.977 67.9844 123.964 67.7109 123.936 67.4531C123.913 67.1914 123.86 66.9824 123.778 66.8262C123.688 66.6582 123.559 66.5332 123.391 66.4512C123.223 66.3652 122.981 66.3223 122.665 66.3223C122.364 66.3223 122.061 66.3965 121.756 66.5449C121.456 66.6934 121.155 66.8828 120.854 67.1133V72H119.753V65.4551H120.854V66.1816C121.198 65.8965 121.54 65.6738 121.88 65.5137C122.223 65.3535 122.589 65.2734 122.975 65.2734C123.421 65.2734 123.798 65.3672 124.106 65.5547C124.419 65.7422 124.651 66.002 124.803 66.334C125.249 65.959 125.655 65.6895 126.022 65.5254C126.389 65.3574 126.782 65.2734 127.2 65.2734C127.919 65.2734 128.448 65.4922 128.788 65.9297C129.131 66.3633 129.303 66.9707 129.303 67.752V72ZM136.523 68.7305C136.523 69.7969 136.249 70.6387 135.702 71.2559C135.155 71.873 134.423 72.1816 133.505 72.1816C132.579 72.1816 131.843 71.873 131.296 71.2559C130.753 70.6387 130.482 69.7969 130.482 68.7305C130.482 67.6641 130.753 66.8223 131.296 66.2051C131.843 65.584 132.579 65.2734 133.505 65.2734C134.423 65.2734 135.155 65.584 135.702 66.2051C136.249 66.8223 136.523 67.6641 136.523 68.7305ZM135.386 68.7305C135.386 67.8828 135.22 67.2539 134.888 66.8438C134.556 66.4297 134.095 66.2227 133.505 66.2227C132.907 66.2227 132.442 66.4297 132.11 66.8438C131.782 67.2539 131.618 67.8828 131.618 68.7305C131.618 69.5508 131.784 70.1738 132.116 70.5996C132.448 71.0215 132.911 71.2324 133.505 71.2324C134.091 71.2324 134.55 71.0234 134.882 70.6055C135.218 70.1836 135.386 69.5586 135.386 68.7305ZM143.226 72H142.125V68.2734C142.125 67.9727 142.107 67.6914 142.072 67.4297C142.037 67.1641 141.972 66.957 141.879 66.8086C141.781 66.6445 141.64 66.5234 141.457 66.4453C141.273 66.3633 141.035 66.3223 140.742 66.3223C140.441 66.3223 140.127 66.3965 139.798 66.5449C139.47 66.6934 139.156 66.8828 138.855 67.1133V72H137.754V65.4551H138.855V66.1816C139.199 65.8965 139.554 65.6738 139.921 65.5137C140.289 65.3535 140.666 65.2734 141.052 65.2734C141.759 65.2734 142.298 65.4863 142.67 65.9121C143.041 66.3379 143.226 66.9512 143.226 67.752V72ZM148.266 71.9414C148.059 71.9961 147.832 72.041 147.586 72.0762C147.344 72.1113 147.127 72.1289 146.936 72.1289C146.268 72.1289 145.76 71.9492 145.412 71.5898C145.065 71.2305 144.891 70.6543 144.891 69.8613V66.3809H144.147V65.4551H144.891V63.5742H145.992V65.4551H148.266V66.3809H145.992V69.3633C145.992 69.707 146 69.9766 146.016 70.1719C146.031 70.3633 146.086 70.543 146.18 70.7109C146.266 70.8672 146.383 70.9824 146.531 71.0566C146.684 71.127 146.914 71.1621 147.223 71.1621C147.402 71.1621 147.59 71.1367 147.785 71.0859C147.981 71.0312 148.121 70.9863 148.207 70.9512H148.266V71.9414ZM154.594 72H153.493V68.2734C153.493 67.9727 153.475 67.6914 153.44 67.4297C153.405 67.1641 153.34 66.957 153.247 66.8086C153.149 66.6445 153.008 66.5234 152.825 66.4453C152.641 66.3633 152.403 66.3223 152.11 66.3223C151.809 66.3223 151.495 66.3965 151.167 66.5449C150.838 66.6934 150.524 66.8828 150.223 67.1133V72H149.122V62.8828H150.223V66.1816C150.567 65.8965 150.922 65.6738 151.29 65.5137C151.657 65.3535 152.034 65.2734 152.42 65.2734C153.128 65.2734 153.667 65.4863 154.038 65.9121C154.409 66.3379 154.594 66.9512 154.594 67.752V72Z" fill="#384F69"/>
</g>
<rect x="0.744521" y="0.744521" width="369.511" height="87.511" rx="10.2555" stroke="url(#paint1_linear_1453_104724)" stroke-opacity="0.08" stroke-width="0.510959"/>
<defs>
<linearGradient id="paint0_linear_1453_104724" x1="36.3123" y1="6.61126" x2="207.578" y2="67.347" gradientUnits="userSpaceOnUse">
<stop stop-color="#003F88"/>
<stop offset="0.64989" stop-color="#03BCFF"/>
<stop offset="1" stop-color="#0076FF"/>
</linearGradient>
<linearGradient id="paint1_linear_1453_104724" x1="46.6996" y1="12.9068" x2="365.747" y2="109.173" gradientUnits="userSpaceOnUse">
<stop stop-color="#003F88"/>
<stop offset="0.64989" stop-color="#02D4FF"/>
<stop offset="1" stop-color="#0076FF"/>
</linearGradient>
<clipPath id="clip0_1453_104724">
<rect x="1" y="1" width="369" height="87" rx="10" fill="white"/>
</clipPath>
</defs>
</svg>
