<svg xmlns="http://www.w3.org/2000/svg" width="371" height="89" fill="none"><g clip-path="url(#a)"><rect width="369" height="87" x="1" y="1" fill="#E3F0FF" rx="10"/><path fill="#C8E2FF" d="M377.084 95c-80.754-2.138-99.279-5.056-103.161-9.992-3.41-5.165-3.409-5.165 36.103-33.833 17.91-12.983 46.236-33.544 55.445-42.336a691 691 0 0 0-69.91-7.65 4.44 4.44 0 0 1-2.765-.297 4.52 4.52 0 0 1-2.065-1.889 4.7 4.7 0 0 1-.631-2.353 4.7 4.7 0 0 1 .629-2.354 4.6 4.6 0 0 1 1.718-1.706 4.53 4.53 0 0 1 2.333-.589c1.183 0 80.114 3.483 82.173 13.884.746 5.933-6.451 12.695-61.695 52.76-10.653 7.687-22.183 16.094-28.8 21.258 21.248 3.05 81.049 5.249 90.886 5.921a4.54 4.54 0 0 1 2.964 1.537 4.67 4.67 0 0 1 1.144 3.171 4.67 4.67 0 0 1-1.323 3.101A4.54 4.54 0 0 1 377.084 95"/><path fill="#fff" d="M324.586 40.16c-.711-1.203-.406-1.773-.899-2.517-.49-.744-.867-.833-2.994-.394-1.474.305-2.295 1.078-2.295 1.078s.801-2.166 2.217-2.566c1.301-.367 3.354-1.679 3.074-2.977-.168-.779-2.196.43-3.083.769-2.375.9-4.258 3.248-5.294 5.073-1.033 1.824-.04 5.914-1.82 10.147-2.745 6.52-10.778 14.67-15.027 21.134-2.191 3.331 3.379 18.383 8.335 17.357 6.468-1.337 9.026-25.166 11.547-33.379 1.283-4.192 2.715-3.672 3.337-5.604.361-1.117-.149-1.741.292-1.672.707.11 2.401-.293 2.809-1.203.373-.835.384-2.375.349-2.616-.106-.696.167-1.428-.548-2.63"/><path fill="#000" d="M325.313 42.199c.002-.545.002-1.225-.545-2.145-.365-.618-.448-1.064-.524-1.457-.067-.357-.131-.691-.38-1.068-.321-.489-.632-.754-1.345-.754-.396 0-.935.08-1.862.271a5.7 5.7 0 0 0-1.741.663c.346-.638.95-1.52 1.762-1.75 1.246-.354 3.545-1.703 3.217-3.22-.033-.156-.155-.419-.592-.419-.514 0-1.313.375-2.019.706-.285.133-.544.256-.747.334-2.92 1.107-4.871 4.233-5.4 5.164-.475.84-.543 2.12-.62 3.6-.099 1.88-.221 4.217-1.212 6.568-1.692 4.02-5.419 8.677-9.022 13.18-2.247 2.807-4.37 5.458-5.987 7.921-1.399 2.127.185 8.35 2.48 12.608 1.032 1.911 3.121 5.118 5.534 5.118q.27 0 .531-.054c4.855-1.004 7.475-13.88 9.583-24.225.772-3.804 1.441-7.089 2.119-9.297.755-2.46 1.561-3.267 2.208-3.914.464-.464.864-.864 1.128-1.687.199-.608.151-1.091.124-1.381-.004-.048-.01-.102-.012-.145q.11.014.244.014c.862 0 2.328-.427 2.738-1.343.392-.873.407-2.444.365-2.728-.025-.176-.025-.361-.025-.56m-.715 3.12c-.354.784-1.909 1.19-2.591 1.086-.197-.033-.288.036-.34.094-.112.122-.095.28-.073.505.027.274.065.685-.107 1.215-.234.728-.583 1.078-1.026 1.522-.682.68-1.528 1.526-2.31 4.084-.682 2.226-1.353 5.52-2.129 9.336-1.973 9.687-4.672 22.954-9.262 23.904-1.714.352-3.779-1.45-5.619-4.859-2.478-4.598-3.668-10.405-2.5-12.187 1.608-2.446 3.725-5.09 5.965-7.89 3.622-4.525 7.366-9.206 9.08-13.277 1.018-2.418 1.144-4.795 1.242-6.707.076-1.43.139-2.665.568-3.42.512-.902 2.396-3.922 5.188-4.983.208-.08.479-.206.772-.346.634-.297 1.422-.668 1.845-.668.169 0 .18.054.19.095.235 1.095-1.575 2.353-2.927 2.735-1.501.425-2.324 2.6-2.359 2.692l-.303.82.637-.6c.008-.006.798-.734 2.201-1.024.894-.186 1.408-.26 1.777-.26.539 0 .738.165 1.001.565.203.307.253.578.319.92.075.404.172.908.575 1.59.489.823.489 1.412.487 1.934 0 .212 0 .413.031.62.033.228.017 1.721-.332 2.504"/><path fill="#003F88" d="M335.177 22.808a1.74 1.74 0 0 0-1.756-1.39c-1.449.047-3.895.233-6.996.874-2.925.607-5.123 1.368-6.422 1.888a1.745 1.745 0 0 0-1.068 1.976l3.41 16.496c.172.83.916 1.412 1.762 1.389 1.403-.04 3.721-.21 6.642-.814 3.105-.641 5.425-1.441 6.774-1.972a1.74 1.74 0 0 0 1.06-1.971zm-8.203 2.158c-3.738.775-6.851 1.008-6.951.524-.101-.487 2.851-1.505 6.59-2.28 3.74-.773 6.853-1.007 6.953-.524.102.49-2.85 1.51-6.592 2.28"/><path fill="#000100" d="M335.366 22.77a1.924 1.924 0 0 0-1.887-1.544q-.032 0-.064.002c-1.509.048-3.953.24-7.03.877-2.943.61-5.134 1.367-6.455 1.897a1.936 1.936 0 0 0-1.185 2.195l3.41 16.495c.188.902.98 1.544 1.898 1.544q.03 0 .058-.002c1.425-.039 3.746-.21 6.677-.818 3.073-.633 5.396-1.425 6.802-1.98a1.924 1.924 0 0 0 1.179-2.19zm2.087 18.307c-1.395.547-3.696 1.331-6.743 1.963-2.904.6-5.195.769-6.609.81h-.047a1.55 1.55 0 0 1-1.522-1.237l-3.41-16.496a1.55 1.55 0 0 1 .951-1.756c1.306-.523 3.475-1.275 6.391-1.88 3.048-.63 5.469-.82 6.961-.869h.052c.73 0 1.36.512 1.509 1.237l3.406 16.476a1.54 1.54 0 0 1-.939 1.752"/><path fill="#000100" d="M326.57 23.023c-.711.147-6.953 1.468-6.739 2.508.012.062.05.15.163.224.195.126.608.181 1.172.181 1.416 0 3.768-.35 5.845-.78 2.905-.597 6.234-1.555 6.68-2.233a.35.35 0 0 0 .06-.273c-.212-1.033-6.468.224-7.181.373m.361 1.756c-3.817.79-6.327.893-6.704.67.257-.357 2.597-1.255 6.422-2.047 3.822-.789 6.322-.889 6.706-.669-.261.36-2.6 1.256-6.424 2.046"/><path fill="#003F88" d="M322.3 38.607c-1.248.257-2.15.201-2.689-.172-.794-.55-1.016-1.959-1.248-3.446-.079-.499-.158-1.001-.261-1.488-.096-.47-.033-.846.205-1.184.622-.898 2.243-1.318 2.821-1.409.56-.085.977-.62.892-1.197a1.06 1.06 0 0 0-1.2-.895c-.301.043-2.983.481-4.244 2.282-.572.817-.759 1.797-.545 2.83.093.454.166.922.238 1.39.293 1.862.597 3.792 2.134 4.858 1.048.725 2.46.889 4.322.504.572-.117.941-.678.823-1.248a1.053 1.053 0 0 0-1.248-.825"/><path fill="#000100" d="M322.258 38.417c-1.192.242-2.05.197-2.538-.14-.733-.51-.953-1.939-1.167-3.32l-.008-.05a28 28 0 0 0-.255-1.445c-.085-.422-.033-.74.176-1.036.577-.833 2.138-1.24 2.689-1.325a1.253 1.253 0 0 0 1.055-1.416 1.24 1.24 0 0 0-.491-.823 1.23 1.23 0 0 0-.927-.234c-.309.044-3.062.489-4.376 2.36-.601.86-.8 1.892-.576 2.98.091.448.162.908.238 1.395.299 1.899.61 3.864 2.216 4.973.713.494 1.586.74 2.641.74q.837 0 1.829-.205a1.244 1.244 0 0 0 .972-1.478 1.25 1.25 0 0 0-1.478-.976m.978 1.7a.86.86 0 0 1-.549.371c-1.804.377-3.172.217-4.173-.473-1.468-1.016-1.764-2.898-2.054-4.73a30 30 0 0 0-.239-1.398c-.201-.984-.025-1.91.516-2.68 1.219-1.739 3.821-2.158 4.115-2.202a.865.865 0 0 1 .981.732.88.88 0 0 1-.732.98c-.744.117-2.318.577-2.948 1.487-.267.377-.344.815-.236 1.335.097.464.176.952.251 1.426l.008.05c.236 1.528.458 2.971 1.329 3.576.582.404 1.536.471 2.838.203a.88.88 0 0 1 1.022.672.9.9 0 0 1-.129.651M326.609 23.212c-3.739.773-6.691 1.793-6.59 2.28.1.485 3.212.251 6.951-.524 3.742-.77 6.694-1.793 6.592-2.278-.101-.483-3.215-.25-6.953.522"/><path fill="#fff" d="M319.515 34.038c-.363.28-.624 1.92-1.014 2.589-.391.666-1.706 3.311-1.706 3.311l2.274 7.554c3.663-3.833.442-6.52 2.098-10.176.784-1.735-.597-4.092-1.652-3.278"/><path fill="#000" d="M319.389 33.873c-.24.185-.389.653-.613 1.405-.141.473-.288.964-.452 1.246-.39.664-1.658 3.215-1.714 3.323l.369.183c.014-.027 1.318-2.645 1.701-3.298.189-.322.343-.838.49-1.335.137-.456.325-1.084.47-1.196.231-.177.487-.162.759.053.593.469 1.099 1.83.582 2.979-.711 1.57-.553 2.963-.4 4.312.212 1.87.415 3.634-1.66 5.805l.298.286c2.208-2.31 1.986-4.256 1.773-6.138-.154-1.352-.299-2.629.363-4.095.574-1.266.093-2.846-.697-3.472-.423-.334-.885-.356-1.269-.058"/><path fill="#003F88" d="M290.317 35.189c-12.363 0-17.879 2.805-21.055 7.331-8.762 12.49-4.266 35.895-4.299 45.284l48.963-.208c-.412-15.962-2.168-26.797-7.292-41.534-2.569-7.382-1.922-10.873-16.317-10.873"/><path fill="#000100" d="M306.067 43.729c-1.853-5.816-2.78-8.733-15.75-8.733-11.223 0-17.567 2.216-21.215 7.413-6.893 9.83-5.616 26.511-4.772 37.549.24 3.118.448 5.813.439 7.85 0 .05.021.1.056.134a.18.18 0 0 0 .135.056l48.962-.208a.2.2 0 0 0 .138-.058.18.18 0 0 0 .054-.14c-.423-16.42-2.334-27.304-7.303-41.591a97 97 0 0 1-.744-2.272m-40.912 43.883c-.006-2.027-.207-4.654-.439-7.683-.842-10.984-2.113-27.582 4.703-37.298 3.566-5.08 9.814-7.25 20.896-7.25 12.686 0 13.532 2.652 15.383 8.464.228.715.469 1.474.751 2.281 4.935 14.189 6.846 25.012 7.278 41.277z"/><path fill="#22CAFF" d="M291.523 67.139c.259-5.385-1.481-10.356-1.605-15.744-.099-4.341-.358-8.095-2.933-11.745-.978-1.387-1.153-3.106-.769-4.725-9.782.863-14.14 3.597-16.945 7.598-8.764 12.49-6.198 35.897-6.231 45.284h31.495c-.002-11.15-3.377-13.081-3.012-20.668"/><path fill="#000100" d="M291.716 67.15c.143-2.988-.332-5.893-.79-8.702-.373-2.288-.759-4.65-.815-7.056-.104-4.476-.386-8.194-2.968-11.853-.879-1.248-1.141-2.869-.74-4.569a.19.19 0 0 0-.042-.172.21.21 0 0 0-.162-.066c-8.744.771-13.856 3.07-17.091 7.68-7.374 10.512-6.762 28.856-6.395 39.819.072 2.175.136 4.053.13 5.577 0 .05.021.1.056.135a.18.18 0 0 0 .135.056h31.495a.193.193 0 0 0 .194-.193c0-5.92-.949-9.258-1.785-12.202-.744-2.633-1.393-4.91-1.222-8.455m-28.485 20.465c0-1.493-.06-3.31-.129-5.398-.363-10.912-.976-29.179 6.325-39.583 3.13-4.463 8.085-6.71 16.544-7.492-.346 1.714-.045 3.346.856 4.621 2.517 3.57 2.795 7.228 2.896 11.637.056 2.434.444 4.81.821 7.111.454 2.79.925 5.677.784 8.621-.174 3.607.481 5.914 1.241 8.578.821 2.888 1.748 6.16 1.769 11.905z"/><path fill="#22CAFF" d="M300.491 36.1c-.908-.374-3.81-.979-3.81-.979s13.109 18.163 13.109 52.686h5.798c-1.497-15.793-2.371-26.654-7.494-41.391-1.693-4.865-3.362-8.565-7.603-10.315"/><path fill="#000100" d="M308.273 46.352c-1.61-4.627-3.302-8.609-7.711-10.429-.916-.379-3.725-.964-3.843-.99a.19.19 0 0 0-.201.084.19.19 0 0 0 .006.218c.13.182 13.074 18.518 13.074 52.572 0 .108.085.193.193.193h5.798a.2.2 0 0 0 .143-.062.19.19 0 0 0 .048-.149l-.174-1.837c-1.394-14.758-2.403-25.421-7.333-39.6m1.707 41.262c-.044-31.299-10.993-49.338-12.872-52.205.854.188 2.643.593 3.307.87 4.26 1.758 5.916 5.66 7.494 10.198 4.915 14.135 5.918 24.778 7.311 39.506l.153 1.629h-5.393z"/><path fill="#fff" d="M294.724 6.144c-4.023 1.563-4.813 9-4.813 9-2.061-.383-3.64.7-3.779 2.791-.189 2.844 2.011 4.394 2.011 4.394-1.408 7.577-3.307 12.5-3.307 12.5s3.425 5.04 9.743 5.04c4.045 0 2.218-4.532 2.218-4.532-1.065-2.027-.651-5.153-.651-5.153 7.131 1.328 10.403-6.294 10.175-9.621-.228-3.329.002-4.554.211-6.352.597-5.188-7.786-9.628-11.808-8.067"/><path fill="#000" d="M296.61 5.622c-.734 0-1.395.112-1.961.33-3.75 1.46-4.753 7.686-4.919 8.955a4 4 0 0 0-.618-.044c-1.813 0-3.063 1.201-3.186 3.062-.174 2.593 1.536 4.133 1.99 4.494-1.386 7.4-3.256 12.287-3.273 12.338l-.041.102.06.089c.037.05 3.565 5.131 9.915 5.131 1.136 0 1.948-.346 2.407-1.028.947-1.402.041-3.688-.005-3.804-.864-1.646-.719-4.086-.653-4.816.485.077.966.12 1.431.12 2.209 0 4.218-.905 5.814-2.616 2.094-2.243 3.085-5.477 2.954-7.38-.203-2.93-.045-4.222.137-5.717l.071-.597c.184-1.579-.423-3.198-1.746-4.685-2.031-2.282-5.555-3.934-8.377-3.934m9.648 9.164c-.185 1.516-.346 2.826-.141 5.794.126 1.816-.831 4.913-2.844 7.07-1.517 1.626-3.423 2.483-5.514 2.483-.512 0-1.041-.05-1.574-.148l-.213-.04-.029.215c-.017.13-.409 3.215.665 5.257.008.023.859 2.183.038 3.402-.378.563-1.076.849-2.065.849-5.68 0-9.026-4.212-9.513-4.869.28-.757 1.996-5.52 3.279-12.43l.025-.13-.109-.075c-.021-.016-2.103-1.523-1.924-4.214.11-1.65 1.173-2.676 2.775-2.676q.368 0 .761.072l.218.04.023-.22c.008-.073.823-7.33 4.685-8.83.518-.2 1.129-.302 1.813-.302 2.714 0 6.109 1.595 8.071 3.796 1.247 1.395 1.815 2.904 1.646 4.362z"/><path fill="#000" d="M299.281 13.196c-.095.002-2.307.082-3.99 1.952a.229.229 0 0 0 .17.38.23.23 0 0 0 .17-.075c1.548-1.72 3.642-1.8 3.661-1.8a.227.227 0 0 0 .223-.235c-.004-.125-.116-.212-.234-.222M305.429 16.758c-1.644-.24-2.892-1.318-2.906-1.33a.226.226 0 0 0-.32.024.226.226 0 0 0 .019.32c.056.049 1.362 1.179 3.142 1.436q.018.003.032.002a.23.23 0 0 0 .226-.195.23.23 0 0 0-.193-.257M302.143 20.91c-.416-.093-.885.128-1.393.655a.227.227 0 1 0 .328.317c.385-.398.721-.583.964-.525.273.058.4.4.402.407a.226.226 0 0 0 .288.14.225.225 0 0 0 .141-.29c-.006-.027-.209-.59-.73-.704M296.972 16.388c-.329.131-.502.473-.387.763.118.286.478.414.808.28s.504-.475.388-.763c-.117-.288-.477-.415-.809-.28M303.93 17.682c-.33.132-.506.474-.388.763.116.286.477.414.807.282.331-.133.505-.475.387-.763-.114-.29-.476-.415-.806-.282M299.331 23.93c-1.322.719-2.603-1.287-2.616-1.308a.23.23 0 0 0-.315-.072.23.23 0 0 0-.073.315c.05.082 1.074 1.685 2.393 1.685.267 0 .545-.066.829-.218a.23.23 0 0 0 .093-.311.23.23 0 0 0-.311-.091M287.995 16.35c-.496.258-.819.78-.962 1.552a.227.227 0 0 0 .182.267q.024.005.044.004a.23.23 0 0 0 .224-.188c.116-.624.358-1.037.721-1.226.535-.28 1.181.007 1.188.01.114.051.251 0 .302-.115a.226.226 0 0 0-.114-.301c-.035-.016-.85-.383-1.585-.002"/><path fill="#000" d="M287.48 17.383a.233.233 0 0 0-.267.186.233.233 0 0 0 .186.266c1.261.224 1.397 1.105 1.402 1.154a.23.23 0 0 0 .226.2l.027-.001a.23.23 0 0 0 .201-.253c-.007-.053-.164-1.264-1.775-1.552"/><path fill="#000100" d="M296.514.527c-5.472-.41-7.425 3.993-7.425 3.993-8.887-3.634-10.187 11.874-12.459 15.926-2.705 4.822-4.295 11.598-10.966 13.821s-3.486 5.779-3.486 5.779c-3.334 4.594 3.283 9.154 3.283 9.154s3.188-6.733 6.785-9.537c3.19-2.492 6.638-3.52 10.27-3.52 3.629 0 2.288 14.274 7.066 14.274 3.46 0 3.786-3.59 3.786-3.59s6.138-3.46-.264-9.695c-7.987-7.778-2.585-14.561-4.739-14.961-.984-.183-1.791-2.034-2.031-2.985-.682-2.68 1.235-4.244 3.959-3.835 5.386.813 5.89-8.022 5.89-8.022 7.661 1.424 10.149 9.813 10.149 9.813 4.245-6.602-.241-15.902-9.818-16.615"/><path fill="#fff" d="M304.765 78.97c-2.259.804-4.875-1.02-6.165-.174-1.059.692-.539 3.238 4.053 3.02 4.591-.219 4.376-3.646 2.112-2.846"/><path fill="#000100" d="M304.701 78.789c-1.117.394-2.363.114-3.459-.136-1.103-.253-2.059-.467-2.749-.017-.479.313-.67.927-.475 1.53.147.45.864 1.859 4.074 1.859q.272 0 .569-.016c2.283-.108 3.438-1.008 3.759-1.818.182-.456.118-.908-.172-1.207-.336-.352-.902-.421-1.547-.195m1.362 1.26c-.278.695-1.322 1.475-3.422 1.576-2.707.108-3.982-.73-4.256-1.579-.139-.433-.012-.87.319-1.084.218-.145.489-.2.798-.2.473 0 1.037.127 1.654.27 1.147.263 2.449.56 3.672.122.493-.176.912-.14 1.142.098.184.186.214.483.093.796"/><path fill="#fff" d="M288.317 79.429c-2.085-1.179-6.936-7.077-12.908-9.699-1.287-.566 3.3-9.299 3.3-9.299-5.74-4.155-14.842-3.365-14.842-3.365s-3.96 12.202-2.251 15.78c3.741 7.837 19.114 10.176 23.395 11.95 2.691 1.113 2.794 1.084 4.422 1.084 5.19 0 4.797-2.622 6.121-1.127 1.449 1.64 11.775 1.127 11.775 1.127s-3.512-3.692-6.267-6.565c-2.751-2.879-9.196 2.123-12.745.114"/><path fill="#000100" d="M301.203 79.175c-1.521-1.588-4.113-.894-6.621-.22-2.236.6-4.548 1.221-6.167.305-.684-.386-1.681-1.302-2.944-2.461-2.528-2.317-5.99-5.493-9.981-7.247-.012-.006-.047-.021-.077-.104-.4-1.144 2.37-6.832 3.469-8.928a.19.19 0 0 0-.056-.247c-5.734-4.152-14.884-3.412-14.973-3.403a.19.19 0 0 0-.166.132c-.162.502-3.964 12.318-2.239 15.923 2.937 6.152 12.722 8.897 19.198 10.711 1.795.505 3.343.937 4.299 1.333 2.653 1.098 2.852 1.09 4.37 1.096h.126c2.9 0 4.094-.804 4.809-1.285.56-.375.678-.456 1.166.095.943 1.066 5.269 1.269 8.445 1.269 1.861 0 3.329-.072 3.485-.08a.192.192 0 0 0 .13-.326c-.004.002-3.516-3.69-6.273-6.563m-5.501 5.445c-.334-.38-.593-.526-.842-.526-.259 0-.508.155-.827.37-.68.453-1.812 1.218-4.594 1.218h-.24c-1.379 0-1.592-.029-4.109-1.07-.976-.404-2.535-.84-4.339-1.347-6.409-1.796-16.094-4.513-18.955-10.506-1.565-3.276 1.812-14.223 2.218-15.514 1.115-.066 9.196-.454 14.449 3.244-.664 1.273-3.918 7.649-3.416 9.086.07.2.196.288.286.33 3.934 1.728 7.369 4.877 9.875 7.178 1.281 1.177 2.295 2.106 3.016 2.513 1.754.997 4.146.352 6.458-.27 2.508-.672 4.875-1.312 6.243.118 2.279 2.376 5.077 5.315 5.975 6.257-3.112.128-10.11.147-11.198-1.081"/><path fill="#22CAFF" d="M262.244 58.037c9.581 6.874 17.177 5.783 17.177 5.783l1.77-5.831-3.715-21.293c-11.469 3.175-15.232 21.341-15.232 21.341"/><path fill="#000100" d="M281.241 57.801c-.095-.033-.209.027-.241.128l-1.732 5.71c-1 .091-8.108.513-16.812-5.687.358-1.592 4.33-18.1 15.068-21.07a.19.19 0 0 0 .133-.238c-.029-.105-.127-.157-.237-.135-11.451 3.172-15.333 21.304-15.37 21.487a.19.19 0 0 0 .078.197c7.326 5.257 13.574 5.876 16.109 5.876.763 0 1.188-.055 1.207-.059a.19.19 0 0 0 .157-.133l1.769-5.833a.196.196 0 0 0-.129-.243"/><path fill="#000" d="m301.01 82.814-.271.309 3.403 2.99.272-.308zM298.159 83.146l-.272.31 3.406 2.99.271-.31z"/><path fill="#000100" d="M290.177 87.805h32.844v-1.932h-34.776c0 1.065.867 1.932 1.932 1.932"/><path fill="#000100" d="M323.02 85.68h-34.776a.193.193 0 0 0-.193.194c0 1.17.952 2.125 2.125 2.125h32.844a.19.19 0 0 0 .193-.193v-1.932a.19.19 0 0 0-.193-.193m-.191 1.933h-32.651a1.74 1.74 0 0 1-1.727-1.548h34.378z"/><path fill="#000100" d="M366.896 56.894h-42.562c-.631 0-1.18.4-1.366.996l-8.678 28.103c-.132.43-.052.883.216 1.246a1.43 1.43 0 0 0 1.148.568h42.56c.632 0 1.182-.4 1.366-.996l8.68-28.101c.131-.431.052-.885-.22-1.246a1.41 1.41 0 0 0-1.144-.57"/><path fill="#000100" d="M366.896 56.701h-42.561c-.717 0-1.339.454-1.552 1.132l-8.678 28.103a1.58 1.58 0 0 0 .247 1.418c.311.41.786.644 1.302.644h42.56a1.61 1.61 0 0 0 1.552-1.133l8.68-28.1c.151-.491.058-1.01-.251-1.42a1.61 1.61 0 0 0-1.299-.644m1.181 1.952-8.68 28.1c-.159.514-.632.86-1.181.86h-42.56c-.394 0-.757-.18-.993-.49a1.2 1.2 0 0 1-.187-1.075l8.678-28.103c.159-.514.634-.86 1.181-.86h42.561c.393 0 .756.18.99.493.235.311.305.702.191 1.075"/><path fill="#fff" d="M367.958 56.894h-42.562c-.632 0-1.178.4-1.366.996l-8.678 28.103c-.132.43-.052.883.218 1.246.272.362.69.568 1.146.568h42.56c.631 0 1.182-.4 1.366-.996l8.68-28.101c.131-.431.052-.885-.218-1.246a1.42 1.42 0 0 0-1.146-.57"/><path fill="#000100" d="M367.958 56.701h-42.561c-.715 0-1.337.454-1.552 1.132l-8.678 28.103a1.57 1.57 0 0 0 .249 1.418c.309.41.782.644 1.3.644h42.56c.719 0 1.343-.455 1.551-1.133l8.681-28.1c.151-.491.06-1.007-.249-1.42a1.62 1.62 0 0 0-1.301-.644m1.179 1.952-8.681 28.1c-.158.514-.631.86-1.18.86h-42.56c-.394 0-.757-.18-.991-.49a1.19 1.19 0 0 1-.189-1.075l8.678-28.1c.16-.517.636-.862 1.181-.862h42.561c.395 0 .758.18.992.49.235.313.303.704.189 1.077"/><path fill="#FFC97A" d="M333.163 72.35a9.17 9.17 0 0 1 3.361-7.092l.964 1.424 2.506-5.164-5.724.411 1.006 1.486a11.38 11.38 0 0 0-4.327 8.933c0 6.277 5.108 11.386 11.385 11.386v-2.215c-5.056.002-9.171-4.113-9.171-9.169M353.722 72.351c0-6.279-5.108-11.385-11.385-11.385v2.214c5.056 0 9.171 4.113 9.171 9.171a9.16 9.16 0 0 1-3.362 7.092l-.966-1.425-2.504 5.164 5.725-.412-1.007-1.485a11.38 11.38 0 0 0 4.328-8.934"/><path fill="#FFC97A" d="M343.013 71.31c-1.616-.624-2.083-.992-2.083-1.631 0-.537.435-1.165 1.654-1.165 1.128 0 1.835.373 2.175.553l.276.144.122-.287.458-1.1.099-.24-.228-.121c-.653-.348-1.384-.547-2.228-.603v-1.627h-1.721v1.71c-1.679.336-2.748 1.46-2.748 2.918 0 1.777 1.621 2.596 3.207 3.164 1.335.49 1.882.987 1.882 1.712 0 .807-.767 1.348-1.913 1.348-.855 0-1.771-.253-2.449-.674l-.29-.181-.126.318-.438 1.117-.085.216.195.128c.641.415 1.658.707 2.654.765v1.69h1.72v-1.777c1.743-.35 2.896-1.563 2.896-3.083-.004-1.525-.908-2.51-3.029-3.294"/><path fill="url(#b)" d="M23.275 17.272h-6.69v2.705h6.202v2.812h-6.201V29h-3.73V14.459h10.42zm13.604 6.25q0 2.704-1.582 4.267-1.572 1.553-4.424 1.553t-4.434-1.553q-1.572-1.563-1.572-4.268 0-2.724 1.582-4.277 1.592-1.553 4.424-1.553 2.871 0 4.434 1.563 1.572 1.563 1.572 4.267m-4.326 2.666q.342-.42.508-1.006.175-.595.175-1.641 0-.967-.175-1.621-.176-.655-.489-1.045a1.7 1.7 0 0 0-.752-.566 2.7 2.7 0 0 0-.947-.166q-.507 0-.908.136-.39.137-.752.547-.322.38-.518 1.045-.185.665-.185 1.67 0 .899.166 1.563.165.654.488 1.054.312.381.742.557.44.176.996.176.48 0 .909-.157.438-.166.742-.547m14.795-4.805h-.313q-.224-.078-.722-.117a11 11 0 0 0-.83-.04q-.753 0-1.329.098a7.5 7.5 0 0 0-1.24.332V29h-3.516V18.033h3.516v1.611q1.163-.995 2.021-1.318.859-.332 1.583-.332.184 0 .42.01.233.009.41.03zm12.715-.156V29h-3.536v-5.478q0-.801-.039-1.358-.039-.567-.215-.918a1.05 1.05 0 0 0-.537-.508q-.351-.165-.996-.166-.517 0-1.006.215a7 7 0 0 0-.879.44V29H49.34V18.033h3.515v1.211a9.6 9.6 0 0 1 1.739-1.113 4.2 4.2 0 0 1 1.836-.4q1.083 0 1.914.488.83.478 1.299 1.416 1.054-.889 2.05-1.397.997-.508 1.954-.508 1.776 0 2.695 1.065.927 1.065.927 3.066V29h-3.535v-5.478q0-.81-.039-1.368-.03-.556-.205-.908a1 1 0 0 0-.527-.508q-.362-.165-1.016-.166-.44 0-.86.157-.419.146-1.025.498M87.993 29h-9.708v-2.54h3.067v-7.685h-3.067v-2.373q.703 0 1.348-.078.645-.087 1.074-.293.508-.244.762-.634.254-.391.293-.977h3.232v12.04h2.998zm15.116-4.951q0 1.123-.41 2.11a4.6 4.6 0 0 1-1.152 1.66 5.5 5.5 0 0 1-1.836 1.103q-1.034.38-2.432.38-1.309 0-2.392-.35a4.9 4.9 0 0 1-1.846-1.095q-.888-.84-1.357-2.168-.47-1.328-.47-3.173 0-1.915.44-3.399a6.95 6.95 0 0 1 1.436-2.627q.957-1.093 2.48-1.699 1.534-.606 3.643-.606.713 0 1.562.098t1.104.147v2.861h-.371q-.263-.127-.899-.283a5.6 5.6 0 0 0-1.425-.166q-1.876 0-2.92.918-1.046.918-1.26 2.558.752-.45 1.582-.722a5.6 5.6 0 0 1 1.807-.284q.849 0 1.572.196.732.195 1.357.625.811.566 1.299 1.523.489.957.488 2.393m-4.443 2.197q.303-.332.478-.781.186-.46.186-1.24 0-.713-.205-1.163a1.84 1.84 0 0 0-.566-.732 2 2 0 0 0-.83-.371 4.404 4.404 0 0 0-1.885-.01 6 6 0 0 0-.86.244q0 .098-.01.323-.01.224-.01.566 0 1.201.235 1.982.244.773.645 1.182.273.303.644.45.372.135.801.136.323 0 .713-.146a1.7 1.7 0 0 0 .664-.44"/><path fill="#384F69" d="m18.348 46.275-3.07 4.899V55h-1.16v-3.703l-3.083-5.022h1.283l2.385 3.903 2.408-3.903zm5.455 5.456q0 1.6-.82 2.525-.821.926-2.197.926-1.39 0-2.21-.926-.814-.926-.814-2.526t.815-2.525q.82-.932 2.209-.932 1.377 0 2.197.932.82.926.82 2.526m-1.137 0q0-1.272-.498-1.887-.498-.621-1.382-.621-.897 0-1.395.62-.492.616-.492 1.887 0 1.23.498 1.87.498.632 1.389.632.878 0 1.377-.626.503-.633.503-1.876M30.46 55h-1.102v-.727a5.4 5.4 0 0 1-1.066.674q-.51.234-1.125.235-1.031 0-1.606-.627-.573-.633-.574-1.852v-4.248h1.102v3.727q0 .498.047.855.046.352.199.604a.95.95 0 0 0 .41.375q.252.117.732.117.429 0 .932-.223.51-.223.95-.568v-4.887h1.1zm10.267-.41a7 7 0 0 1-1.05.41 3.7 3.7 0 0 1-1.048.147q-.709 0-1.301-.206a2.7 2.7 0 0 1-1.014-.632 2.8 2.8 0 0 1-.662-1.067q-.234-.644-.234-1.506 0-1.605.879-2.52.885-.913 2.332-.913.563 0 1.101.158.546.157.997.387v1.224h-.06a4.2 4.2 0 0 0-1.042-.603 2.8 2.8 0 0 0-1.043-.211q-.938 0-1.483.633-.538.627-.538 1.845 0 1.185.527 1.823.532.633 1.494.632.335 0 .68-.088.345-.087.62-.228.24-.123.452-.258.21-.141.334-.24h.059zm6.023.41h-1.095v-.697q-.146.1-.399.281-.246.175-.48.281-.276.135-.633.223a3.3 3.3 0 0 1-.838.094q-.885 0-1.5-.586t-.615-1.494q0-.744.316-1.202.323-.462.914-.726.598-.264 1.436-.358a29 29 0 0 1 1.799-.14v-.17q0-.375-.135-.621a.94.94 0 0 0-.375-.387 1.6 1.6 0 0 0-.563-.182 5 5 0 0 0-.685-.047q-.434 0-.967.118a7 7 0 0 0-1.102.328h-.058v-1.12q.322-.087.932-.193.609-.105 1.2-.105.693 0 1.202.117.516.111.89.387.37.27.563.697.193.428.193 1.06zm-1.095-1.611v-1.823q-.504.03-1.19.088-.68.06-1.078.17a1.76 1.76 0 0 0-.767.422q-.294.281-.293.78 0 .562.34.849.34.282 1.036.281.58 0 1.061-.222a5 5 0 0 0 .89-.545M53.865 55h-1.102v-3.727q0-.45-.053-.843-.053-.399-.194-.621a.88.88 0 0 0-.421-.364q-.276-.123-.715-.123-.452 0-.944.223a4.8 4.8 0 0 0-.943.568V55h-1.102v-6.545h1.102v.727q.517-.428 1.066-.668a2.8 2.8 0 0 1 1.131-.24q1.06 0 1.617.638.558.64.557 1.84zm11.04-6.545L62.254 55h-1.107l-2.63-6.545h1.195l2.027 5.21 2.01-5.21zm2.144-1.096h-1.242v-1.142h1.242zM66.98 55h-1.102v-6.545h1.102zm7.178-3.158h-4.822q0 .603.181 1.055.181.444.498.732.306.28.721.422.422.14.926.14a3.7 3.7 0 0 0 1.342-.263q.68-.27.966-.528h.06v1.202q-.557.234-1.138.392a4.6 4.6 0 0 1-1.218.158q-1.63 0-2.543-.879-.915-.885-.914-2.507 0-1.605.873-2.55.879-.942 2.308-.943 1.325 0 2.04.774.72.774.72 2.197zm-1.072-.844q-.006-.867-.44-1.342-.427-.474-1.306-.474-.885 0-1.412.521-.522.522-.592 1.295zm10.494-2.543L81.874 55h-1.02l-1.68-5.045L77.503 55H76.49l-1.723-6.545h1.148l1.201 5.068 1.635-5.068h.908l1.676 5.068 1.137-5.068zM93.512 55h-1.096v-.697q-.146.1-.398.281-.246.175-.48.281-.276.135-.633.223a3.3 3.3 0 0 1-.838.094q-.885 0-1.5-.586-.616-.586-.616-1.494 0-.744.317-1.202.323-.462.914-.726.597-.264 1.435-.358t1.8-.14v-.17q0-.375-.136-.621a.94.94 0 0 0-.375-.387 1.6 1.6 0 0 0-.562-.182 5 5 0 0 0-.686-.047q-.433 0-.966.118a7 7 0 0 0-1.102.328h-.059v-1.12q.323-.087.932-.193.61-.105 1.201-.105.692 0 1.201.117.516.111.891.387.37.27.563.697.193.428.193 1.06zm-1.096-1.611v-1.823q-.504.03-1.19.088-.679.06-1.077.17a1.76 1.76 0 0 0-.768.422q-.293.281-.293.78 0 .562.34.849.34.282 1.037.281.58 0 1.06-.222.48-.229.891-.545m8.21 1.611h-1.102v-3.727q0-.45-.053-.843-.053-.399-.193-.621a.87.87 0 0 0-.422-.364q-.275-.123-.715-.123-.45 0-.943.223a4.8 4.8 0 0 0-.943.568V55h-1.102v-6.545h1.102v.727q.515-.428 1.066-.668.55-.24 1.13-.24 1.062 0 1.618.638.557.64.557 1.84zm6.949 0h-1.101v-.685a4 4 0 0 1-.99.638 2.7 2.7 0 0 1-1.12.229q-1.171 0-1.863-.903-.685-.902-.685-2.502 0-.832.234-1.482a3.5 3.5 0 0 1 .645-1.108 2.7 2.7 0 0 1 2.027-.914q.515 0 .914.112.399.105.838.334v-2.836h1.101zm-1.101-1.611v-3.756a4 4 0 0 0-.797-.276 3.6 3.6 0 0 0-.768-.076q-.925 0-1.441.645t-.516 1.828q0 1.166.399 1.775.398.604 1.277.604a2.4 2.4 0 0 0 .949-.205q.48-.21.897-.54M118.311 55h-1.102v-.685a4 4 0 0 1-.99.638 2.7 2.7 0 0 1-1.119.229q-1.172 0-1.864-.903-.685-.902-.685-2.502 0-.832.234-1.482a3.5 3.5 0 0 1 .645-1.108 2.7 2.7 0 0 1 2.027-.914q.516 0 .914.112.399.105.838.334v-2.836h1.102zm-1.102-1.611v-3.756a4 4 0 0 0-.797-.276 3.6 3.6 0 0 0-.767-.076q-.926 0-1.442.645t-.515 1.828q0 1.166.398 1.775.4.604 1.277.604.469 0 .95-.205.48-.21.896-.54m8.368-1.659q0 1.6-.821 2.526-.82.926-2.197.926-1.389 0-2.209-.926-.814-.926-.814-2.526t.814-2.525q.82-.932 2.209-.932 1.378 0 2.197.932.82.926.821 2.526m-1.137 0q0-1.27-.498-1.886-.498-.621-1.383-.621-.896 0-1.394.62-.492.616-.492 1.887 0 1.23.498 1.87.497.632 1.388.632.879 0 1.377-.626.504-.633.504-1.876m10.6-3.275L133.335 55h-1.019l-1.682-5.045-1.67 5.045h-1.014l-1.722-6.545h1.148l1.201 5.068 1.635-5.068h.908l1.676 5.068 1.137-5.068zM141.621 55h-1.102v-3.727q0-.45-.053-.843-.052-.399-.193-.621a.88.88 0 0 0-.422-.364q-.275-.123-.715-.123-.45 0-.943.223a4.8 4.8 0 0 0-.943.568V55h-1.102v-6.545h1.102v.727a4.5 4.5 0 0 1 1.066-.668 2.8 2.8 0 0 1 1.131-.24q1.06 0 1.617.638.557.64.557 1.84zm2.754 0h-1.101v-9.117h1.101zm7.278-3.27q0 1.6-.82 2.526t-2.198.926q-1.388 0-2.209-.926-.814-.926-.814-2.526t.814-2.525q.821-.932 2.209-.932 1.377 0 2.198.932.82.926.82 2.526m-1.137 0q0-1.27-.498-1.886-.498-.621-1.383-.621-.896 0-1.394.62-.492.616-.492 1.887 0 1.23.498 1.87.498.632 1.388.632.879 0 1.377-.626.504-.633.504-1.876M157.97 55h-1.096v-.697q-.147.1-.398.281a3 3 0 0 1-.481.281q-.274.135-.633.223a3.3 3.3 0 0 1-.838.094 2.1 2.1 0 0 1-1.5-.586q-.615-.586-.615-1.494 0-.744.317-1.202.321-.462.914-.726.597-.264 1.435-.358t1.799-.14v-.17q0-.375-.135-.621a.94.94 0 0 0-.375-.387 1.6 1.6 0 0 0-.562-.182 5 5 0 0 0-.686-.047q-.433 0-.967.118a7 7 0 0 0-1.101.328h-.059v-1.12q.323-.087.932-.193.61-.105 1.201-.105.691 0 1.201.117.516.111.891.387.37.27.562.697.194.428.194 1.06zm-1.096-1.611v-1.823q-.504.03-1.189.088a6 6 0 0 0-1.079.17q-.474.135-.767.422-.293.281-.293.78 0 .562.34.849.34.282 1.037.281.58 0 1.06-.222.481-.229.891-.545M164.919 55h-1.101v-.685a4 4 0 0 1-.99.638 2.7 2.7 0 0 1-1.119.229q-1.173 0-1.864-.903-.685-.902-.685-2.502 0-.832.234-1.482a3.5 3.5 0 0 1 .645-1.108 2.7 2.7 0 0 1 2.027-.914q.516 0 .914.112.399.105.838.334v-2.836h1.101zm-1.101-1.611v-3.756a4 4 0 0 0-.797-.276 3.6 3.6 0 0 0-.768-.076q-.925 0-1.441.645t-.516 1.828q0 1.166.399 1.775.398.604 1.277.604a2.4 2.4 0 0 0 .949-.205q.482-.21.897-.54m12.188-6.082h-4.412v2.46h3.791V50.8h-3.791V55h-1.16v-8.725h5.572zm6.048 4.423q0 1.6-.821 2.526-.82.926-2.197.926-1.389 0-2.209-.926-.814-.926-.814-2.526t.814-2.525q.82-.932 2.209-.932 1.377 0 2.197.932.82.926.821 2.526m-1.137 0q0-1.27-.498-1.886-.498-.621-1.383-.621-.897 0-1.394.62-.493.616-.493 1.887 0 1.23.498 1.87.498.632 1.389.632.879 0 1.377-.626.504-.633.504-1.876m6.452-2.074h-.059a4.374 4.374 0 0 0-1.025-.111q-.51 0-.985.228a4.5 4.5 0 0 0-.914.58V55h-1.101v-6.545h1.101v.967q.657-.528 1.154-.744a2.5 2.5 0 0 1 1.026-.223q.287 0 .416.018.129.012.387.052zM197.476 55h-1.101v-3.727q0-.42-.041-.814-.036-.392-.158-.627a.9.9 0 0 0-.387-.38q-.252-.13-.727-.13-.462 0-.925.235a5.5 5.5 0 0 0-.926.586q.018.135.029.316.012.175.012.351V55h-1.102v-3.727q0-.433-.041-.82a1.7 1.7 0 0 0-.158-.627.86.86 0 0 0-.387-.375q-.252-.129-.726-.129-.452 0-.908.223a5.5 5.5 0 0 0-.903.568V55h-1.101v-6.545h1.101v.727a5 5 0 0 1 1.026-.668 2.6 2.6 0 0 1 1.095-.24q.669 0 1.131.28.47.282.697.78.669-.563 1.219-.809.55-.252 1.178-.252 1.078 0 1.588.657.515.65.515 1.822zM17.352 72h-4.723v-.89h1.816v-5.848H12.63v-.797q.37 0 .79-.059.423-.064.64-.181.27-.147.422-.37.157-.228.181-.609h.908v7.863h1.782zm7.775-2.83q0 1.33-.878 2.174-.873.837-2.145.838-.645 0-1.172-.2a2.7 2.7 0 0 1-.931-.591q-.505-.487-.78-1.29-.27-.803-.27-1.933 0-1.16.247-2.057a4.6 4.6 0 0 1 .797-1.593 3.47 3.47 0 0 1 1.33-1.032q.814-.375 1.898-.375.345 0 .58.03t.475.105v1.12h-.059a2 2 0 0 0-.498-.165 2.8 2.8 0 0 0-.674-.082q-1.26 0-2.01.791-.75.786-.872 2.127.492-.3.966-.451.48-.158 1.108-.158.556 0 .978.105.428.1.873.41.516.358.774.903.263.544.263 1.324m-1.189.047q0-.545-.164-.903a1.5 1.5 0 0 0-.527-.62 1.5 1.5 0 0 0-.598-.247 3.9 3.9 0 0 0-1.611.059q-.429.118-.88.363a6 6 0 0 0-.023.55q0 .927.188 1.466.193.532.527.843.27.259.58.381.317.118.686.118.849 0 1.336-.516.486-.522.486-1.494m11.76-.486q0 1.6-.82 2.525-.82.926-2.197.926-1.389 0-2.209-.926-.814-.927-.814-2.525 0-1.6.814-2.526.82-.932 2.21-.932 1.376 0 2.196.932.82.926.82 2.526m-1.136 0q0-1.272-.498-1.887-.498-.621-1.383-.621-.897 0-1.394.62-.493.615-.493 1.888 0 1.23.498 1.869.498.632 1.39.632.878 0 1.376-.626.504-.633.504-1.875m5.89-4.782h-.06a5 5 0 0 0-.474-.105 2.7 2.7 0 0 0-.516-.059q-.708 0-1.031.317-.316.31-.316 1.13v.223h1.986v.926H38.09V72h-1.102v-5.62h-.744v-.925h.744v-.217q0-1.166.58-1.787.58-.627 1.676-.627.37 0 .662.035.3.036.545.082zm9.715 4.7q0 .796-.229 1.458a3.2 3.2 0 0 1-.644 1.114q-.387.433-.914.673a2.7 2.7 0 0 1-1.108.235 3.6 3.6 0 0 1-.925-.111 3.9 3.9 0 0 1-.838-.346v2.742h-1.102v-8.959h1.102v.686q.439-.37.984-.616a2.8 2.8 0 0 1 1.172-.252q1.183 0 1.84.897.662.891.662 2.478m-1.137.029q0-1.185-.404-1.77-.405-.585-1.242-.586-.475 0-.955.205-.48.206-.92.54v3.708q.468.212.802.287.34.077.768.077.92 0 1.435-.621.516-.622.516-1.84m6.458-2.022h-.059a4.366 4.366 0 0 0-1.025-.111q-.51 0-.985.228a4.4 4.4 0 0 0-.914.58V72h-1.101v-6.545h1.101v.967q.657-.528 1.154-.744a2.5 2.5 0 0 1 1.026-.223q.287 0 .416.018.129.012.387.052zm6.135 2.075q0 1.6-.82 2.525-.82.926-2.198.926-1.388 0-2.209-.926-.814-.927-.814-2.525 0-1.6.814-2.526.82-.932 2.21-.932 1.376 0 2.197.932.82.926.82 2.526m-1.137 0q0-1.272-.498-1.887-.498-.621-1.383-.621-.896 0-1.394.62-.492.615-.492 1.888 0 1.23.498 1.869.498.632 1.388.632.879 0 1.377-.626.504-.633.504-1.875m7.208 2.859a7 7 0 0 1-1.05.41 3.7 3.7 0 0 1-1.048.147q-.71 0-1.3-.206a2.7 2.7 0 0 1-1.014-.632 2.8 2.8 0 0 1-.662-1.067q-.235-.644-.235-1.506 0-1.605.879-2.52.885-.913 2.332-.913.562 0 1.102.158.544.157.996.387v1.224h-.059a4.2 4.2 0 0 0-1.043-.603 2.8 2.8 0 0 0-1.043-.211q-.937 0-1.482.633-.54.627-.54 1.845 0 1.185.528 1.823.532.632 1.494.632.335 0 .68-.088.345-.087.62-.228.241-.123.452-.258.21-.141.334-.24h.059zm6.416-2.748h-4.822q0 .603.181 1.055.183.444.499.732.305.28.72.422.422.14.926.14a3.7 3.7 0 0 0 1.342-.263q.68-.27.967-.528h.058v1.202q-.556.234-1.136.392a4.6 4.6 0 0 1-1.22.158q-1.628 0-2.542-.879-.915-.885-.914-2.507 0-1.605.873-2.55.879-.942 2.308-.943 1.324 0 2.04.774.72.774.72 2.197zm-1.072-.844q-.006-.867-.44-1.342-.427-.474-1.306-.474-.885 0-1.412.521-.522.522-.592 1.295zm6.938 2.115q0 .897-.744 1.471-.738.574-2.022.574-.727 0-1.336-.17a6 6 0 0 1-1.013-.38V70.37h.058q.522.392 1.16.627a3.6 3.6 0 0 0 1.225.229q.726 0 1.137-.235.41-.234.41-.738 0-.387-.223-.586-.222-.2-.855-.34a17 17 0 0 0-.615-.123 10 10 0 0 1-.686-.152q-.86-.229-1.225-.668-.357-.445-.357-1.09 0-.404.164-.762.17-.357.51-.639.328-.275.832-.433a3.7 3.7 0 0 1 1.136-.164q.587 0 1.184.146.603.141 1.002.346v1.178h-.059a3.9 3.9 0 0 0-1.025-.522 3.5 3.5 0 0 0-1.183-.216q-.605 0-1.02.234-.416.228-.416.685 0 .405.252.61.246.204.797.334.305.07.68.14.38.07.632.13.767.175 1.184.603.416.434.416 1.148m5.778 0q0 .897-.745 1.471-.737.574-2.021.574-.727 0-1.336-.17a6 6 0 0 1-1.014-.38V70.37h.059q.522.392 1.16.627a3.6 3.6 0 0 0 1.225.229q.726 0 1.137-.235.41-.234.41-.738 0-.387-.223-.586-.222-.2-.856-.34a17 17 0 0 0-.615-.123 10 10 0 0 1-.685-.152q-.862-.229-1.225-.668-.357-.445-.357-1.09 0-.404.164-.762.17-.357.51-.639.328-.275.832-.433a3.7 3.7 0 0 1 1.136-.164q.585 0 1.184.146.603.141 1.002.346v1.178h-.059a3.9 3.9 0 0 0-1.025-.522 3.5 3.5 0 0 0-1.184-.216q-.603 0-1.02.234-.415.228-.415.685 0 .405.252.61.246.204.797.334.305.07.68.14.38.07.632.13.768.175 1.184.603.416.434.416 1.148m6.58-1.271h-4.822q0 .603.182 1.055.18.444.498.732.305.28.72.422.422.14.926.14a3.7 3.7 0 0 0 1.342-.263q.68-.27.967-.528h.058v1.202q-.556.234-1.136.392a4.6 4.6 0 0 1-1.22.158q-1.628 0-2.542-.879-.915-.885-.914-2.507 0-1.605.873-2.55.879-.942 2.308-.943 1.325 0 2.04.774.72.774.72 2.197zm-1.072-.844q-.005-.867-.44-1.342-.427-.474-1.306-.474-.885 0-1.412.521-.522.522-.592 1.295zM98.832 72h-1.1v-.686a4 4 0 0 1-.991.64 2.7 2.7 0 0 1-1.12.228q-1.17 0-1.862-.903-.686-.901-.686-2.502 0-.832.234-1.482a3.5 3.5 0 0 1 .645-1.108 2.7 2.7 0 0 1 2.027-.914q.516 0 .914.112.399.105.838.334v-2.836h1.102zm-1.1-1.611v-3.756a4 4 0 0 0-.798-.276 3.6 3.6 0 0 0-.767-.076q-.926 0-1.442.645t-.515 1.828q0 1.166.398 1.775.398.604 1.277.604.47 0 .95-.205.48-.21.896-.54M113.81 72h-1.101v-3.727q0-.42-.041-.814a1.7 1.7 0 0 0-.159-.627.9.9 0 0 0-.386-.38q-.252-.13-.727-.13-.462 0-.926.235a5.5 5.5 0 0 0-.925.586 6 6 0 0 1 .041.668V72h-1.102v-3.727q0-.433-.041-.82a1.7 1.7 0 0 0-.158-.627.86.86 0 0 0-.387-.375q-.252-.129-.726-.129-.451 0-.909.223-.45.222-.902.568V72h-1.102v-6.545h1.102v.727a5 5 0 0 1 1.025-.668q.516-.24 1.096-.24.667 0 1.131.28.468.282.697.78.669-.563 1.219-.809.55-.252 1.178-.252 1.078 0 1.588.657.515.65.515 1.822zm7.219-3.27q0 1.6-.82 2.526t-2.197.926q-1.389 0-2.209-.926-.815-.927-.815-2.525 0-1.6.815-2.526.82-.932 2.209-.932 1.377 0 2.197.932.82.926.82 2.526m-1.136 0q0-1.27-.498-1.886-.498-.621-1.383-.621-.897 0-1.395.62-.492.615-.492 1.888 0 1.23.498 1.869.498.632 1.389.632.879 0 1.377-.626.504-.633.504-1.875m7.84 3.27h-1.102v-3.727q0-.45-.052-.843-.053-.399-.194-.621a.87.87 0 0 0-.421-.364q-.276-.123-.715-.123a2.3 2.3 0 0 0-.944.223 4.8 4.8 0 0 0-.943.568V72h-1.102v-6.545h1.102v.727a4.5 4.5 0 0 1 1.066-.668q.552-.24 1.131-.24 1.06 0 1.617.638.558.64.557 1.84zm5.04-.059a6 6 0 0 1-1.331.188q-1 0-1.523-.54-.522-.538-.521-1.728v-3.48h-.745v-.926h.745v-1.88h1.101v1.88h2.274v.926h-2.274v2.982q0 .516.024.809a1.3 1.3 0 0 0 .164.539.8.8 0 0 0 .351.346q.229.105.692.105.269 0 .562-.076.293-.082.422-.135h.059zm6.328.059H138v-3.727q0-.45-.053-.843-.053-.399-.193-.621a.88.88 0 0 0-.422-.364q-.276-.123-.715-.123-.451 0-.944.223a4.8 4.8 0 0 0-.943.568V72h-1.101v-9.117h1.101v3.299a4.5 4.5 0 0 1 1.066-.668q.552-.24 1.131-.24 1.06 0 1.618.638.556.64.556 1.84z"/></g><rect width="369.511" height="87.511" x=".745" y=".745" stroke="url(#c)" stroke-opacity=".08" stroke-width=".511" rx="10.255"/><defs><linearGradient id="b" x1="36.312" x2="207.578" y1="6.611" y2="67.347" gradientUnits="userSpaceOnUse"><stop stop-color="#003F88"/><stop offset=".65" stop-color="#03BCFF"/><stop offset="1" stop-color="#0076FF"/></linearGradient><linearGradient id="c" x1="46.7" x2="365.747" y1="12.907" y2="109.173" gradientUnits="userSpaceOnUse"><stop stop-color="#003F88"/><stop offset=".65" stop-color="#02D4FF"/><stop offset="1" stop-color="#0076FF"/></linearGradient><clipPath id="a"><rect width="369" height="87" x="1" y="1" fill="#fff" rx="10"/></clipPath></defs></svg>