<svg xmlns="http://www.w3.org/2000/svg" width="371" height="89" fill="none"><g clip-path="url(#a)"><rect width="369" height="87" x="1" y="1" fill="#E3F0FF" rx="10"/><path fill="#C8E2FF" d="M377.084 95c-80.754-2.138-99.279-5.056-103.161-9.992-3.41-5.165-3.409-5.165 36.103-33.833 17.91-12.983 46.236-33.544 55.445-42.336a691 691 0 0 0-69.91-7.65 4.44 4.44 0 0 1-2.765-.297 4.52 4.52 0 0 1-2.065-1.889 4.7 4.7 0 0 1-.631-2.353 4.7 4.7 0 0 1 .629-2.354 4.6 4.6 0 0 1 1.718-1.706 4.53 4.53 0 0 1 2.333-.589c1.183 0 80.114 3.483 82.173 13.884.746 5.933-6.451 12.695-61.695 52.76-10.653 7.687-22.183 16.094-28.8 21.258 21.248 3.05 81.049 5.249 90.886 5.921a4.54 4.54 0 0 1 2.964 1.537 4.67 4.67 0 0 1 1.144 3.171 4.67 4.67 0 0 1-1.323 3.101A4.54 4.54 0 0 1 377.084 95"/><path fill="#22CAFF" d="M319.368 30.428c-3.094-.45-7.258-.544-10.308-.044-5.758.942-12.756 4.12-15.895 9.02-8.665 13.517-7.534 33.365-8.011 48.438h54.577c-.406-17.275-.441-29.7-5.862-43.66-2.155-5.55-6.825-12.637-14.501-13.754"/><path fill="#000100" d="M334.014 44.127c-1.451-3.736-5.784-12.565-14.623-13.85-3.365-.494-7.525-.51-10.356-.044-5.656.924-12.799 4.094-15.999 9.09-7.428 11.587-7.676 27.57-7.896 41.672a433 433 0 0 1-.14 6.845c-.002.04.014.08.04.112q.049.046.113.048h54.577a.16.16 0 0 0 .111-.046.15.15 0 0 0 .044-.112l-.053-2.366c-.367-16.26-.636-28.01-5.818-41.35m-48.698 43.56c.065-2.143.102-4.352.137-6.69.218-14.06.466-29.995 7.845-41.51 3.151-4.914 10.202-8.035 15.789-8.95 2.798-.459 6.919-.441 10.26.043 8.678 1.263 12.946 9.97 14.381 13.656 5.161 13.29 5.426 25.015 5.795 41.243l.051 2.206h-54.258z"/><path fill="#fff" d="m330.784 37.992.178 31.004 28.186-.162-.178-31.004z"/><path fill="#000100" d="m358.927 37.688-28.185.165a.087.087 0 0 0-.085.084l.179 31.004a.086.086 0 0 0 .084.085l28.187-.163q.016 0 .031-.007a.1.1 0 0 0 .029-.02.1.1 0 0 0 .024-.058l-.179-31.006a.1.1 0 0 0-.026-.058.09.09 0 0 0-.059-.026m.096 31.006-28.019.162-.177-30.837 28.018-.163z"/><path fill="#000" d="m348.024 55.982 6.784-.04-.004-1.056-6.784.04zM335.074 56.057l11.275-.067-.005-1.055L335.07 55zM342.15 60.241l10.413-.06-.004-1.056-10.413.06zM335.1 60.284l5.363-.032-.004-1.055-5.364.03zM335.123 64.51l10.586-.062-.004-1.055-10.586.062zM348.004 43.295l6.734-.039-.004-1.055-6.736.04zM335.001 43.371l11.275-.065-.005-1.057-11.274.067zM340.861 47.565l13.901-.08-.004-1.058-13.902.083zM335.036 47.599l4.227-.025-.005-1.057-4.227.024zM335.05 51.825l14.094-.08-.004-1.058-14.094.083z"/><path fill="#fff" d="M313.664 30.022c-1.588 0-2.999-.039-4.074.283.817 2.051 6.965 17.493 9.103 22.083.232-3.719 1.075-18.53.286-22.011-.581-.11-2.867-.355-5.315-.355"/><path fill="#000100" d="M319.005 30.223c-.65-.12-2.954-.357-5.343-.357l-.471-.002c-1.425 0-2.661-.005-3.648.292a.16.16 0 0 0-.097.08.15.15 0 0 0-.003.127l.029.077c2.094 5.254 7.167 17.917 9.076 22.013.027.057.083.09.141.09q.017 0 .03-.002a.16.16 0 0 0 .126-.144c.188-3.053 1.096-18.468.283-22.055a.16.16 0 0 0-.123-.12m-.432 21.535c-2.06-4.56-6.756-16.275-8.777-21.35.918-.236 2.069-.23 3.397-.23h.47c2.41 0 4.541.233 5.186.334.72 3.519-.03 17.181-.276 21.246"/><path fill="#fff" d="m319.522 6.813-.506-.001c-5.628 0-9.213 2.304-10.362 6.662-.123.458.199 2.241.481 3.815.269 1.495.526 2.906.476 3.503-.326 4.166-.063 8.7-.014 9.508a10.8 10.8 0 0 0 4.873 1.142c2.398 0 4.077-.787 4.514-1.07a94 94 0 0 1-.5-2.628l-.081-.478.416.245c.719.425 1.476.639 2.256.639 1.962 0 3.694-1.342 4.537-2.67 1.804-2.839 1.851-7.31 1.881-10.269.007-.75.014-1.407.046-1.923.105-1.667-.346-3.055-1.348-4.124-1.371-1.472-3.866-2.35-6.669-2.35"/><path fill="#000100" d="m319.524 6.66-.506-.002c-5.707 0-9.343 2.343-10.513 6.777-.12.451.116 1.864.467 3.81l.021.114c.264 1.465.515 2.85.467 3.423-.312 4.007-.089 8.309-.014 9.53a.16.16 0 0 0 .088.131 10.9 10.9 0 0 0 4.941 1.158c2.303 0 4.016-.717 4.601-1.096.052-.035.08-.1.066-.162-.174-.806-.492-2.554-.502-2.62l-.025-.15.13.076c.74.437 1.525.659 2.335.659 2.022 0 3.799-1.376 4.667-2.74 1.83-2.88 1.874-7.376 1.906-10.352l.002-.044c.007-.734.014-1.368.045-1.869.109-1.712-.358-3.14-1.389-4.242-1.404-1.505-3.944-2.401-6.787-2.401m7.82 8.509v.044c-.03 2.94-.076 7.382-1.859 10.186-.82 1.293-2.503 2.598-4.405 2.598-.754 0-1.484-.21-2.177-.619l-.414-.244a.155.155 0 0 0-.234.158l.078.48c.01.065.303 1.68.481 2.526-.553.321-2.162.99-4.34.99-1.676 0-3.222-.356-4.722-1.087-.081-1.328-.286-5.503.017-9.396.05-.613-.202-2.018-.472-3.504l-.019-.112c-.26-1.451-.585-3.255-.473-3.675 1.131-4.282 4.662-6.547 10.213-6.547l.506.002c2.759 0 5.213.863 6.558 2.303.972 1.036 1.411 2.385 1.307 4.008-.033.511-.038 1.15-.045 1.889"/><path fill="#000" d="M320.836 1.628c-11.182-3.784-12.587 4.739-12.587 4.739-7.294 6.576 1.066 17.48 1.066 17.48.47-.927 1.191-2.818 1.108-3.53-.075-.625-3.049-5.709.589-6.95 1.036-.355 2.158-.222 2.991.727.574-2.354.638-4.316.638-4.316 6.125 4.428 17.907 1.07 17.907 1.07-.793-14.068-11.712-9.22-11.712-9.22"/><path fill="#000100" d="M328.643 1.654c-3.22-1.966-7.283-.411-7.808-.193-3.923-1.318-7.093-1.281-9.419.115-2.605 1.566-3.223 4.278-3.307 4.71-7.244 6.6.999 17.546 1.085 17.655a.15.15 0 0 0 .123.061h.014a.15.15 0 0 0 .123-.084c.425-.834 1.217-2.816 1.126-3.617-.016-.124-.1-.335-.262-.73-.483-1.169-1.384-3.349-.716-4.82.26-.578.753-.995 1.463-1.237.639-.221 1.858-.42 2.824.683a.154.154 0 0 0 .267-.065c.447-1.823.587-3.432.626-4.063 6.177 4.172 17.692.965 17.811.93a.15.15 0 0 0 .112-.159c-.26-4.609-1.626-7.698-4.062-9.186m-13.909 7.999a.15.15 0 0 0-.16-.012.16.16 0 0 0-.087.135c-.002.02-.064 1.82-.568 4.007-.776-.736-1.837-.944-2.958-.562-.794.272-1.349.743-1.647 1.403-.722 1.593.21 3.852.713 5.066.123.3.23.558.24.648.071.595-.5 2.203-.978 3.211-1.085-1.525-7.495-11.149-.934-17.065a.16.16 0 0 0 .049-.09c.003-.03.514-2.956 3.169-4.547 1.145-.689 2.511-1.033 4.084-1.033 1.519 0 3.233.322 5.13.963.035.014.076.007.113-.006.042-.017 4.284-1.858 7.579.152 2.321 1.419 3.635 4.382 3.907 8.81-1.254.33-11.985 3.013-17.652-1.08"/><path fill="#000" d="M318.344 12.518h-.079c-1.576 0-2.86 1.475-2.919 3.356-.03.915.24 1.785.757 2.45.525.68 1.242 1.067 2.02 1.092l.081.001c1.575 0 2.859-1.474 2.917-3.357.03-.915-.239-1.784-.755-2.452-.525-.68-1.244-1.068-2.022-1.09m-.14 6.472-.065-.001c-.652-.021-1.256-.35-1.704-.926-.457-.588-.69-1.361-.666-2.176.049-1.625 1.17-2.946 2.496-2.946h.063c.65.021 1.256.35 1.704.926.455.586.691 1.36.668 2.176-.051 1.625-1.172 2.947-2.496 2.947M326.304 12.772l-.079-.002c-1.575 0-2.858 1.474-2.917 3.357-.028.915.239 1.787.755 2.452.529.678 1.244 1.067 2.024 1.091l.079.002c1.577 0 2.858-1.476 2.919-3.359.058-1.902-1.189-3.49-2.781-3.54m-.138 6.473-.065-.002c-.652-.019-1.256-.348-1.703-.925-.456-.589-.695-1.36-.667-2.177.051-1.623 1.17-2.944 2.494-2.944h.065c1.358.043 2.421 1.435 2.372 3.102-.053 1.625-1.172 2.946-2.496 2.946"/><path fill="#000" d="M320.756 15.044a.213.213 0 0 0-.035.297.214.214 0 0 0 .3.035c1.356-1.093 2.419.017 2.461.065a.2.2 0 0 0 .156.067.2.2 0 0 0 .144-.057.213.213 0 0 0 .013-.298c-.013-.014-1.367-1.453-3.039-.11M323.983 22.948c-.011.01-1.262 1.12-4.351-.158a.213.213 0 0 0-.276.114.22.22 0 0 0 .114.28c1.179.486 2.115.646 2.839.646 1.322 0 1.923-.536 1.96-.57a.213.213 0 0 0 .012-.301.21.21 0 0 0-.298-.01M319.431 14.434c-.061-.02-1.537-.5-2.556.409a.214.214 0 0 0-.019.3.217.217 0 0 0 .302.018c.833-.745 2.127-.329 2.14-.327.11.039.23-.02.265-.133a.21.21 0 0 0-.132-.267M324.527 14.434a.21.21 0 0 0-.131.269.207.207 0 0 0 .267.133c.01-.003 1.305-.42 2.141.327a.21.21 0 0 0 .297-.018.21.21 0 0 0-.016-.3c-1.021-.912-2.494-.43-2.558-.41M325.347 15.97c-.257 0-.469.277-.469.615 0 .34.21.615.469.615.258 0 .467-.276.467-.614 0-.34-.211-.615-.467-.615M317.988 15.97c-.258 0-.467.277-.467.615 0 .34.207.615.467.615.258 0 .469-.276.469-.614 0-.34-.211-.615-.469-.615M322.807 18.556c-.421-.102-.902.116-1.428.648a.21.21 0 0 0 0 .298.21.21 0 0 0 .15.065.2.2 0 0 0 .149-.065c.409-.41.768-.597 1.031-.535.292.07.42.434.423.444a.21.21 0 0 0 .267.135.21.21 0 0 0 .134-.267c-.005-.023-.2-.597-.726-.723M313.508 22.033a.186.186 0 0 0-.181-.191c-.1 0-.181.086-.181.191 0 3.162 5.024 5.387 5.236 5.48a.14.14 0 0 0 .069.016.18.18 0 0 0 .169-.117.2.2 0 0 0-.099-.253c-.051-.023-5.013-2.22-5.013-5.126M312.441 14.225c-.68-.272-1.355-.113-1.853.434-.959 1.055-.368 2.447.079 3.033a.21.21 0 0 0 .298.042.21.21 0 0 0 .037-.296c-.009-.014-1.066-1.432-.102-2.49.511-.56 1.086-.444 1.383-.326.613.244 1.066.883 1.054 1.488a.213.213 0 0 0 .207.216h.005a.213.213 0 0 0 .211-.21c.016-.786-.539-1.58-1.319-1.891"/><path fill="#000" d="M312.537 14.387c-.462.17-.763.437-.891.8-.209.575.121 1.158.137 1.183a.205.205 0 0 0 .285.077.21.21 0 0 0 .077-.29c-.002-.005-.244-.439-.104-.829.086-.235.302-.418.638-.542a.21.21 0 0 0 .126-.273.205.205 0 0 0-.268-.126"/><path fill="#fff" d="M342.599 64.104c-.065-.014-.264-.04-.851-.04-3.1 0-12.62.67-12.713.676l-.134.009-.072-.11c-.039-.062-.957-1.513.659-3.398.927-1.084 1.027-2.308.806-2.796-.032-.067-.097-.18-.186-.18-.037 0-.123.018-.251.138l-.455.416c-1.163 1.06-3.331 3.035-4.118 4.217l-.152.234c-.875 1.314-1.566 2.354-2.98 3.857-.247.262-.911.612-3.832.612-3.239 0-7.597-.441-8.625-.549l-1.259 10.538c2.655-.67 16.469-2.487 20.437-2.487.499 0 .878.022 1.154.066q.366.06.703.06c1.198 0 2.213-.529 3.5-1.2.273-.14.557-.29.856-.439 1.777-.89 1.326-1.904 1.308-1.942l-.103-.208.205-.098c1.337-.65 1.183-2.106 1.177-2.168l-.01-.1.061-.074c.989-1.154 1.022-1.717.956-1.948-.065-.217-.257-.279-.262-.28l-1.207-.327 1.244-.118c1.433-.135 3.473-.664 4.198-1.084.39-.23.583-.492.548-.74-.037-.238-.295-.47-.602-.537"/><path fill="#000100" d="M342.63 63.953c-.984-.21-11.669.5-13.543.629l-.109.007-.021-.034c-.092-.146-.845-1.47.644-3.21.982-1.146 1.075-2.423.83-2.966q-.129-.266-.327-.267c-.076 0-.199.032-.357.18l-.467.426c-1.165 1.065-3.334 3.042-4.13 4.237l-.165.251c-.866 1.303-1.553 2.331-2.953 3.819-.354.377-1.572.562-3.716.562-3.16 0-7.388-.42-8.607-.548h-.018a.16.16 0 0 0-.155.137l-1.259 10.537a.15.15 0 0 0 .155.172.1.1 0 0 0 .038-.005c2.658-.667 16.392-2.482 20.399-2.482.479 0 .861.023 1.129.065.246.042.483.062.729.062 1.233 0 2.264-.536 3.573-1.216l.114-.06q.354-.185.74-.379c1.855-.93 1.433-2.025 1.377-2.152l-.032-.066.064-.032c1.384-.673 1.278-2.154 1.262-2.324l-.003-.035.019-.021c.984-1.149 1.077-1.772.984-2.094a.58.58 0 0 0-.369-.388l-.379-.104.391-.037c1.45-.137 3.519-.674 4.262-1.106.446-.262.669-.58.622-.898-.046-.3-.352-.58-.722-.66m-.053 1.294c-.71.413-2.719.931-4.135 1.065l-1.244.117a.155.155 0 0 0-.138.143.15.15 0 0 0 .114.163l1.201.327c.004.002.12.042.16.174.037.128.079.634-.926 1.805l-.061.074a.17.17 0 0 0-.037.118l.011.1c.015.144.107 1.43-1.088 2.011l-.205.099a.16.16 0 0 0-.081.09.14.14 0 0 0 .009.117l.098.202c.018.037.39.925-1.233 1.739-.258.128-.508.258-.745.381l-.119.063c-1.267.659-2.266 1.179-3.424 1.179-.226 0-.448-.02-.679-.058-.289-.048-.677-.069-1.179-.069-3.922 0-17.13 1.73-20.257 2.438l1.216-10.163c1.393.144 5.433.532 8.488.532 2.945 0 3.655-.353 3.945-.66 1.417-1.505 2.108-2.545 2.996-3.878l.153-.232c.773-1.162 2.921-3.124 4.091-4.19l.457-.416c.077-.074.123-.091.128-.098.009.007.03.031.06.087.177.392.13 1.566-.783 2.63-1.636 1.911-.777 3.415-.673 3.583l.074.11a.16.16 0 0 0 .14.071l.2-.014c1.618-.112 9.823-.673 12.637-.673.601 0 .776.03.817.037.244.053.456.234.484.41.025.184-.145.395-.472.586"/><path fill="#000" d="M337.491 69.088c-.014.01-1.394 1.003-4.756.045a.207.207 0 0 0-.262.144.214.214 0 0 0 .144.264c1.14.327 2.069.437 2.807.437 1.583 0 2.287-.521 2.326-.553a.21.21 0 0 0 .038-.295.21.21 0 0 0-.297-.042M337.583 66.339c-.013.002-1.231.232-4.934.13-.109-.009-.215.091-.218.207a.21.21 0 0 0 .205.218c.685.018 1.283.026 1.804.026 2.365 0 3.185-.156 3.225-.165a.213.213 0 0 0 .167-.25.21.21 0 0 0-.249-.166M336.212 71.406c-.017.009-1.661.859-4.834.706-.124.005-.217.084-.221.2a.214.214 0 0 0 .202.223q.399.019.766.018c2.796 0 4.219-.738 4.284-.771a.212.212 0 0 0-.197-.376"/><path fill="#22CAFF" d="M304.303 64.507s3.341-11.302 1.924-22.993l-15.461 8.42s-2.475 8.908-1.711 16.86c.564 5.863 1.842 13.37 14.625 13.436 4.73.024 14.588-.986 14.588-.986-.56-1.57.058-12.276.058-12.276z"/><path fill="#000100" d="m318.353 66.815-13.853-2.43c.402-1.455 3.191-12.068 1.881-22.89a.165.165 0 0 0-.174-.137.157.157 0 0 0-.137.174c1.398 11.526-1.883 22.819-1.918 22.931a.16.16 0 0 0 .017.127.16.16 0 0 0 .106.07l13.887 2.438c-.072 1.268-.543 10.042-.095 12.01-1.356.136-9.851.965-14.221.965h-.167c-13.2-.066-13.996-8.347-14.47-13.295-.755-7.83 1.679-16.713 1.705-16.803a.156.156 0 0 0-.11-.191.16.16 0 0 0-.19.109c-.025.087-2.475 9.025-1.716 16.915.627 6.534 2.341 13.513 14.778 13.576q.084.002.17.002c4.748 0 14.337-.978 14.435-.987a.15.15 0 0 0 .116-.072.14.14 0 0 0 .014-.135c-.542-1.521.062-12.108.067-12.215a.15.15 0 0 0-.125-.162"/><path fill="#fff" d="m321.655 66.476-7.753-2.449c-2.667 4.815-1.539 11.46-1.217 12.948l3.922-.42-3.415 1.948c.134.762.631 2.605 1.251 4.263l7.648-5.194c-.894-5.024-.524-10.077-.436-11.096"/><path fill="#000100" d="M321.807 66.49a.156.156 0 0 0-.109-.163l-7.751-2.447a.164.164 0 0 0-.185.074c-2.831 5.113-1.403 12.257-1.231 13.056.017.077.089.125.168.121l3.185-.34-2.77 1.579a.16.16 0 0 0-.076.163c.148.836.67 2.714 1.258 4.291a.16.16 0 0 0 .099.093.1.1 0 0 0 .047.006.16.16 0 0 0 .088-.027l7.648-5.194a.16.16 0 0 0 .066-.156c-.894-5.008-.521-10.09-.437-11.056m.113 11.014-7.403 5.025c-.577-1.582-1.011-3.212-1.152-3.943l3.32-1.895a.155.155 0 0 0 .07-.183c-.023-.072-.096-.11-.165-.11l-3.783.405c-.253-1.247-1.411-7.803 1.169-12.59l7.511 2.37c-.098 1.225-.412 6.09.433 10.92"/><path fill="#000" d="M319.177 76.11a.837.837 0 1 0 .244 1.637.837.837 0 0 0-.244-1.638"/><path fill="#000100" d="M319.173 75.953q-.148 0-.289.042a.98.98 0 0 0-.583.482.96.96 0 0 0-.076.757.986.986 0 0 0 1.238.662.994.994 0 0 0 .657-1.24.98.98 0 0 0-.947-.703m.201 1.646a.683.683 0 0 1-.8-.973.68.68 0 0 1 .403-.33.676.676 0 0 1 .848.452.684.684 0 0 1-.451.851"/><path fill="#fff" d="M346.882 37.475c.009.023.125.158.453.27.596.204 1.579.21 2.545-.393l.116-.074.093.106c.006.005.578.644 1.458.947q.447.15.891.158l2.073-2.825c-1.067.044-4.276.176-4.778.18-.557.001-2.501 1.116-2.851 1.631"/><path fill="#000100" d="M354.475 35.509c-1.051.042-4.246.175-4.741.179-.599.001-2.604 1.147-2.978 1.7a.15.15 0 0 0-.016.146c.037.095.227.25.548.36.631.216 1.666.22 2.679-.41l.004-.001a3.96 3.96 0 0 0 1.53.996q.462.157.938.165a.16.16 0 0 0 .128-.063l2.074-2.825c.035-.049.023-.112-.005-.167-.028-.05-.098-.094-.161-.08m-2.114 2.82a2.8 2.8 0 0 1-.764-.147c-.832-.285-1.384-.894-1.391-.901l-.093-.105a.15.15 0 0 0-.116-.052.15.15 0 0 0-.084.025l-.114.072c-.921.575-1.852.571-2.414.378-.142-.05-.235-.1-.292-.137.48-.504 2.175-1.462 2.642-1.463.461-.002 3.108-.11 4.46-.166z"/><path fill="#fff" d="m361.146 40.83-.132-.046.026-.139c.013-.067.266-1.62-1.487-2.218l-.087-.028-.019-.09c-.003-.016-.342-1.47-1.57-1.89-.385-.133-.826-.151-1.309-.056l-.16.031-.031-.161c0-.005-.136-.66-.68-.849a1.2 1.2 0 0 0-.634-.015c-1.235.272-3.979 1.637-4.709 2.459l-.313.342c-.796.866-2.126 2.315-2.173 3.27-.014.279.081.449.295.523.466.16 1.303-.167 1.797-.7.798-.862 2.559-2.114 2.633-2.169l1.758-.472.498-.13-.331.393c-.96 1.149-3.385 4.372-3.095 5.454.037.14.121.23.26.281 1.339.457 3.448-2.169 4.98-4.777l.276-.471.028.544c.003.02.03.446.395.57l.174.06-.06.171c-.005.016-.688 1.483-.658 2.198l.003.11-.098.046c-.012.005-1.272.602-2.071 1.653-.183.24-.244.49-.174.725.075.248.284.445.576.545.495.169 1.086.026 1.627-.392.439-.337.827-.569 1.171-.773.38-.224.678-.402.887-.632.301-.33.817-1.563.986-2.011l.376-.968-.058 1.036c-.065 1.196-.088 2.54-.007 2.718l.082.184-.195.05c-.009.003-1.057.243-1.57.728-.232.218-.355.566-.301.83q.06.272.359.375.262.09.674.033c1.456-.194 2.337-.565 2.813-1.95.519-1.515.549-3.948-.752-4.392"/><path fill="#000100" d="m361.2 40.681-.005-.002.002-.01c.03-.18.226-1.769-1.592-2.39l-.003-.002c-.004-.014-.344-1.553-1.671-2.006-.407-.143-.874-.166-1.387-.062l-.009.002c-.021-.144-.207-.776-.782-.975a1.34 1.34 0 0 0-.716-.02c-1.258.278-4.046 1.671-4.791 2.507l-.312.341c-.81.88-2.161 2.355-2.213 3.367-.023.441.203.612.398.678.527.176 1.423-.158 1.961-.74.632-.682 1.879-1.619 2.566-2.118l1.751-.48.025-.004-.016.017c-.035.042-3.495 4.21-3.125 5.596a.56.56 0 0 0 .36.389c1.801.611 4.407-3.557 5.164-4.847l.014-.022.004.04c.012.128.088.555.497.694l.025.009-.007.02c-.164.36-.696 1.589-.67 2.256l-.008.01c-.134.066-1.341.666-2.126 1.7-.214.282-.283.58-.195.865.088.294.334.529.675.647.539.182 1.185.037 1.772-.415.445-.344.856-.585 1.165-.768.384-.23.688-.41.911-.657.383-.418 1.012-2.042 1.019-2.058l.019-.048-.003.051c-.005.102-.134 2.48.005 2.79l.007.014-.021.007c-.262.065-1.15.309-1.635.762-.272.257-.413.657-.345.977.051.237.211.406.459.49q.182.061.43.063c.101 0 .204-.007.318-.023 1.483-.197 2.438-.597 2.937-2.053.548-1.616.559-4.105-.852-4.592m.555 4.488c-.451 1.32-1.257 1.657-2.684 1.846-.249.034-.455.025-.604-.026-.146-.05-.227-.132-.256-.26-.044-.21.063-.506.254-.683.441-.415 1.323-.647 1.504-.692l.193-.048a.15.15 0 0 0 .102-.082.15.15 0 0 0 .004-.132l-.083-.183c-.051-.142-.054-1.24.021-2.645l.058-1.037a.155.155 0 0 0-.121-.161q-.02-.005-.033-.004a.16.16 0 0 0-.146.1l-.374.968c-.195.513-.691 1.67-.958 1.962-.193.213-.479.383-.85.603-.307.18-.727.428-1.189.785-.497.383-1.035.518-1.479.366-.244-.083-.418-.245-.48-.443-.068-.23.041-.445.146-.585.743-.975 1.885-1.544 2.013-1.606l.098-.045a.16.16 0 0 0 .09-.146l-.003-.11c-.018-.477.319-1.406.651-2.142l.06-.172a.15.15 0 0 0-.009-.118.15.15 0 0 0-.089-.079l-.174-.06c-.229-.077-.278-.328-.288-.43l-.028-.544a.15.15 0 0 0-.118-.143.16.16 0 0 0-.172.072l-.276.47c-1.887 3.21-3.771 5.069-4.792 4.712-.095-.035-.14-.084-.165-.177-.232-.857 1.651-3.624 3.062-5.314l.33-.393a.155.155 0 0 0-.158-.252l-2.257.605a.1.1 0 0 0-.051.026l-.042.032c-.696.504-1.963 1.454-2.612 2.157-.45.483-1.237.792-1.634.657-.107-.037-.202-.106-.19-.37.046-.897 1.404-2.376 2.134-3.171l.313-.343v-.002c.715-.8 3.41-2.14 4.629-2.41.21-.045.398-.042.548.01.455.155.574.723.578.732l.033.161a.15.15 0 0 0 .065.099c.037.022.077.035.116.022l.16-.031c.456-.09.869-.07 1.227.05 1.14.39 1.464 1.763 1.467 1.777l.02.09c.012.052.05.096.105.113l.084.028c1.576.54 1.409 1.894 1.384 2.043l-.026.139a.16.16 0 0 0 .104.177l.131.046c1.16.395 1.163 2.709.657 4.191"/><path fill="url(#b)" d="M23.275 17.272h-6.69v2.705h6.202v2.812h-6.201V29h-3.73V14.459h10.42zm13.604 6.25q0 2.704-1.582 4.267-1.572 1.553-4.424 1.553t-4.434-1.553q-1.572-1.563-1.572-4.268 0-2.724 1.582-4.277 1.592-1.553 4.424-1.553 2.871 0 4.434 1.563 1.572 1.563 1.572 4.267m-4.326 2.666q.342-.42.508-1.006.175-.595.175-1.641 0-.967-.175-1.621-.176-.655-.489-1.045a1.7 1.7 0 0 0-.752-.566 2.7 2.7 0 0 0-.947-.166q-.507 0-.908.136-.39.137-.752.547-.322.38-.518 1.045-.185.665-.185 1.67 0 .899.166 1.563.165.654.488 1.054.312.381.742.557.44.176.996.176.48 0 .909-.157.438-.166.742-.547m14.795-4.805h-.313q-.224-.078-.722-.117a11 11 0 0 0-.83-.04q-.753 0-1.329.098a7.5 7.5 0 0 0-1.24.332V29h-3.516V18.033h3.516v1.611q1.163-.995 2.021-1.318.859-.332 1.583-.332.184 0 .42.01.233.009.41.03zm12.715-.156V29h-3.536v-5.478q0-.801-.039-1.358-.039-.567-.215-.918a1.05 1.05 0 0 0-.537-.508q-.351-.165-.996-.166-.517 0-1.006.215a7 7 0 0 0-.879.44V29H49.34V18.033h3.515v1.211a9.6 9.6 0 0 1 1.739-1.113 4.2 4.2 0 0 1 1.836-.4q1.083 0 1.914.488.83.478 1.299 1.416 1.054-.889 2.05-1.397.997-.508 1.954-.508 1.776 0 2.695 1.065.927 1.065.927 3.066V29h-3.535v-5.478q0-.81-.039-1.368-.03-.556-.205-.908a1 1 0 0 0-.527-.508q-.362-.165-1.016-.166-.44 0-.86.157-.419.146-1.025.498M87.993 29h-9.708v-2.54h3.067v-7.685h-3.067v-2.373q.703 0 1.348-.078.645-.087 1.074-.293.508-.244.762-.634.254-.391.293-.977h3.232v12.04h2.998zm15.136 0H91.713v-2.402a59 59 0 0 0 2.617-2.012q1.318-1.065 2.11-1.836 1.18-1.143 1.68-1.992.497-.85.497-1.68 0-.996-.644-1.533-.635-.547-1.836-.547-.899 0-1.895.371a8.7 8.7 0 0 0-1.836.947h-.312v-3.232q.693-.303 2.04-.605 1.358-.303 2.716-.303 2.734 0 4.17 1.152 1.435 1.143 1.435 3.242 0 1.377-.693 2.617-.684 1.24-2.1 2.56a27 27 0 0 1-1.787 1.513q-.898.682-1.28.957h6.534zm15.293-4.453q0 1.054-.43 1.885a3.84 3.84 0 0 1-1.162 1.377 5.45 5.45 0 0 1-1.894.918q-1.026.273-2.608.273h-6.348V14.459h5.645q1.758 0 2.568.117.821.116 1.621.518.83.42 1.231 1.133.41.702.41 1.61 0 1.056-.557 1.866-.556.8-1.572 1.25v.078q1.427.285 2.256 1.172.84.89.84 2.344m-4.805-5.977q0-.361-.185-.722-.176-.362-.635-.537-.41-.157-1.026-.166a57 57 0 0 0-1.709-.02h-.351v3.076h.586q.888 0 1.514-.03.624-.029.986-.194.507-.225.664-.577.156-.36.156-.83m.918 5.918q0-.693-.273-1.064-.264-.381-.908-.567-.44-.127-1.211-.136t-1.612-.01h-.82v3.623h.273q1.582 0 2.266-.01a3.3 3.3 0 0 0 1.26-.254q.585-.243.801-.644.224-.41.224-.938m19.121.059q0 1.054-.429 1.885a3.84 3.84 0 0 1-1.163 1.377 5.4 5.4 0 0 1-1.894.918q-1.026.273-2.608.273h-6.347V14.459h5.644q1.758 0 2.569.117a5.3 5.3 0 0 1 1.621.518q.83.42 1.23 1.133.41.702.41 1.61 0 1.056-.556 1.866-.556.8-1.572 1.25v.078q1.425.285 2.255 1.172.84.89.84 2.344m-4.804-5.977q0-.361-.186-.722-.176-.362-.635-.537-.41-.157-1.025-.166-.605-.02-1.709-.02h-.352v3.076h.586q.889 0 1.514-.03t.986-.194q.508-.225.664-.577.157-.36.157-.83m.918 5.918q0-.693-.274-1.064-.263-.381-.908-.567-.44-.127-1.211-.136a128 128 0 0 0-1.611-.01h-.821v3.623h.274q1.582 0 2.265-.01a3.3 3.3 0 0 0 1.26-.254q.586-.243.801-.644.225-.41.225-.938"/><path fill="#384F69" d="m18.348 46.275-3.07 4.899V55h-1.16v-3.703l-3.083-5.022h1.283l2.385 3.903 2.408-3.903zm5.455 5.456q0 1.6-.82 2.525-.821.926-2.197.926-1.39 0-2.21-.926-.814-.926-.814-2.526t.815-2.525q.82-.932 2.209-.932 1.377 0 2.197.932.82.926.82 2.526m-1.137 0q0-1.272-.498-1.887-.498-.621-1.382-.621-.897 0-1.395.62-.492.616-.492 1.887 0 1.23.498 1.87.498.632 1.389.632.878 0 1.377-.626.503-.633.503-1.876M30.46 55h-1.102v-.727a5.4 5.4 0 0 1-1.066.674q-.51.234-1.125.235-1.031 0-1.606-.627-.573-.633-.574-1.852v-4.248h1.102v3.727q0 .498.047.855.046.352.199.604a.95.95 0 0 0 .41.375q.252.117.732.117.429 0 .932-.223.51-.223.95-.568v-4.887h1.1zm10.267-.41a7 7 0 0 1-1.05.41 3.7 3.7 0 0 1-1.048.147q-.709 0-1.301-.206a2.7 2.7 0 0 1-1.014-.632 2.8 2.8 0 0 1-.662-1.067q-.234-.644-.234-1.506 0-1.605.879-2.52.885-.913 2.332-.913.563 0 1.101.158.546.157.997.387v1.224h-.06a4.2 4.2 0 0 0-1.042-.603 2.8 2.8 0 0 0-1.043-.211q-.938 0-1.483.633-.538.627-.538 1.845 0 1.185.527 1.823.532.633 1.494.632.335 0 .68-.088.345-.087.62-.228.24-.123.452-.258.21-.141.334-.24h.059zm6.023.41h-1.095v-.697q-.146.1-.399.281-.246.175-.48.281-.276.135-.633.223a3.3 3.3 0 0 1-.838.094q-.885 0-1.5-.586t-.615-1.494q0-.744.316-1.202.323-.462.914-.726.598-.264 1.436-.358a29 29 0 0 1 1.799-.14v-.17q0-.375-.135-.621a.94.94 0 0 0-.375-.387 1.6 1.6 0 0 0-.563-.182 5 5 0 0 0-.685-.047q-.434 0-.967.118a7 7 0 0 0-1.102.328h-.058v-1.12q.322-.087.932-.193.609-.105 1.2-.105.693 0 1.202.117.516.111.89.387.37.27.563.697.193.428.193 1.06zm-1.095-1.611v-1.823q-.504.03-1.19.088-.68.06-1.078.17a1.76 1.76 0 0 0-.767.422q-.294.281-.293.78 0 .562.34.849.34.282 1.036.281.58 0 1.061-.222a5 5 0 0 0 .89-.545M53.865 55h-1.102v-3.727q0-.45-.053-.843-.053-.399-.194-.621a.88.88 0 0 0-.421-.364q-.276-.123-.715-.123-.452 0-.944.223a4.8 4.8 0 0 0-.943.568V55h-1.102v-6.545h1.102v.727q.517-.428 1.066-.668a2.8 2.8 0 0 1 1.131-.24q1.06 0 1.617.638.558.64.557 1.84zm11.04-6.545L62.254 55h-1.107l-2.63-6.545h1.195l2.027 5.21 2.01-5.21zm2.144-1.096h-1.242v-1.142h1.242zM66.98 55h-1.102v-6.545h1.102zm7.178-3.158h-4.822q0 .603.181 1.055.181.444.498.732.306.28.721.422.422.14.926.14a3.7 3.7 0 0 0 1.342-.263q.68-.27.966-.528h.06v1.202q-.557.234-1.138.392a4.6 4.6 0 0 1-1.218.158q-1.63 0-2.543-.879-.915-.885-.914-2.507 0-1.605.873-2.55.879-.942 2.308-.943 1.325 0 2.04.774.72.774.72 2.197zm-1.072-.844q-.006-.867-.44-1.342-.427-.474-1.306-.474-.885 0-1.412.521-.522.522-.592 1.295zm10.494-2.543L81.874 55h-1.02l-1.68-5.045L77.503 55H76.49l-1.723-6.545h1.148l1.201 5.068 1.635-5.068h.908l1.676 5.068 1.137-5.068zM93.512 55h-1.096v-.697q-.146.1-.398.281-.246.175-.48.281-.276.135-.633.223a3.3 3.3 0 0 1-.838.094q-.885 0-1.5-.586-.616-.586-.616-1.494 0-.744.317-1.202.323-.462.914-.726.597-.264 1.435-.358t1.8-.14v-.17q0-.375-.136-.621a.94.94 0 0 0-.375-.387 1.6 1.6 0 0 0-.562-.182 5 5 0 0 0-.686-.047q-.433 0-.966.118a7 7 0 0 0-1.102.328h-.059v-1.12q.323-.087.932-.193.61-.105 1.201-.105.692 0 1.201.117.516.111.891.387.37.27.563.697.193.428.193 1.06zm-1.096-1.611v-1.823q-.504.03-1.19.088-.679.06-1.077.17a1.76 1.76 0 0 0-.768.422q-.293.281-.293.78 0 .562.34.849.34.282 1.037.281.58 0 1.06-.222.48-.229.891-.545m8.21 1.611h-1.102v-3.727q0-.45-.053-.843-.053-.399-.193-.621a.87.87 0 0 0-.422-.364q-.275-.123-.715-.123-.45 0-.943.223a4.8 4.8 0 0 0-.943.568V55h-1.102v-6.545h1.102v.727q.515-.428 1.066-.668.55-.24 1.13-.24 1.062 0 1.618.638.557.64.557 1.84zm6.949 0h-1.101v-.685a4 4 0 0 1-.99.638 2.7 2.7 0 0 1-1.12.229q-1.171 0-1.863-.903-.685-.902-.685-2.502 0-.832.234-1.482a3.5 3.5 0 0 1 .645-1.108 2.7 2.7 0 0 1 2.027-.914q.515 0 .914.112.399.105.838.334v-2.836h1.101zm-1.101-1.611v-3.756a4 4 0 0 0-.797-.276 3.6 3.6 0 0 0-.768-.076q-.925 0-1.441.645t-.516 1.828q0 1.166.399 1.775.398.604 1.277.604a2.4 2.4 0 0 0 .949-.205q.48-.21.897-.54M118.311 55h-1.102v-.685a4 4 0 0 1-.99.638 2.7 2.7 0 0 1-1.119.229q-1.172 0-1.864-.903-.685-.902-.685-2.502 0-.832.234-1.482a3.5 3.5 0 0 1 .645-1.108 2.7 2.7 0 0 1 2.027-.914q.516 0 .914.112.399.105.838.334v-2.836h1.102zm-1.102-1.611v-3.756a4 4 0 0 0-.797-.276 3.6 3.6 0 0 0-.767-.076q-.926 0-1.442.645t-.515 1.828q0 1.166.398 1.775.4.604 1.277.604.469 0 .95-.205.48-.21.896-.54m8.368-1.659q0 1.6-.821 2.526-.82.926-2.197.926-1.389 0-2.209-.926-.814-.926-.814-2.526t.814-2.525q.82-.932 2.209-.932 1.378 0 2.197.932.82.926.821 2.526m-1.137 0q0-1.27-.498-1.886-.498-.621-1.383-.621-.896 0-1.394.62-.492.616-.492 1.887 0 1.23.498 1.87.497.632 1.388.632.879 0 1.377-.626.504-.633.504-1.876m10.6-3.275L133.335 55h-1.019l-1.682-5.045-1.67 5.045h-1.014l-1.722-6.545h1.148l1.201 5.068 1.635-5.068h.908l1.676 5.068 1.137-5.068zM141.621 55h-1.102v-3.727q0-.45-.053-.843-.052-.399-.193-.621a.88.88 0 0 0-.422-.364q-.275-.123-.715-.123-.45 0-.943.223a4.8 4.8 0 0 0-.943.568V55h-1.102v-6.545h1.102v.727a4.5 4.5 0 0 1 1.066-.668 2.8 2.8 0 0 1 1.131-.24q1.06 0 1.617.638.557.64.557 1.84zm2.754 0h-1.101v-9.117h1.101zm7.278-3.27q0 1.6-.82 2.526t-2.198.926q-1.388 0-2.209-.926-.814-.926-.814-2.526t.814-2.525q.821-.932 2.209-.932 1.377 0 2.198.932.82.926.82 2.526m-1.137 0q0-1.27-.498-1.886-.498-.621-1.383-.621-.896 0-1.394.62-.492.616-.492 1.887 0 1.23.498 1.87.498.632 1.388.632.879 0 1.377-.626.504-.633.504-1.876M157.97 55h-1.096v-.697q-.147.1-.398.281a3 3 0 0 1-.481.281q-.274.135-.633.223a3.3 3.3 0 0 1-.838.094 2.1 2.1 0 0 1-1.5-.586q-.615-.586-.615-1.494 0-.744.317-1.202.321-.462.914-.726.597-.264 1.435-.358t1.799-.14v-.17q0-.375-.135-.621a.94.94 0 0 0-.375-.387 1.6 1.6 0 0 0-.562-.182 5 5 0 0 0-.686-.047q-.433 0-.967.118a7 7 0 0 0-1.101.328h-.059v-1.12q.323-.087.932-.193.61-.105 1.201-.105.691 0 1.201.117.516.111.891.387.37.27.562.697.194.428.194 1.06zm-1.096-1.611v-1.823q-.504.03-1.189.088a6 6 0 0 0-1.079.17q-.474.135-.767.422-.293.281-.293.78 0 .562.34.849.34.282 1.037.281.58 0 1.06-.222.481-.229.891-.545M164.919 55h-1.101v-.685a4 4 0 0 1-.99.638 2.7 2.7 0 0 1-1.119.229q-1.173 0-1.864-.903-.685-.902-.685-2.502 0-.832.234-1.482a3.5 3.5 0 0 1 .645-1.108 2.7 2.7 0 0 1 2.027-.914q.516 0 .914.112.399.105.838.334v-2.836h1.101zm-1.101-1.611v-3.756a4 4 0 0 0-.797-.276 3.6 3.6 0 0 0-.768-.076q-.925 0-1.441.645t-.516 1.828q0 1.166.399 1.775.398.604 1.277.604a2.4 2.4 0 0 0 .949-.205q.482-.21.897-.54m12.188-6.082h-4.412v2.46h3.791V50.8h-3.791V55h-1.16v-8.725h5.572zm6.048 4.423q0 1.6-.821 2.526-.82.926-2.197.926-1.389 0-2.209-.926-.814-.926-.814-2.526t.814-2.525q.82-.932 2.209-.932 1.377 0 2.197.932.82.926.821 2.526m-1.137 0q0-1.27-.498-1.886-.498-.621-1.383-.621-.897 0-1.394.62-.493.616-.493 1.887 0 1.23.498 1.87.498.632 1.389.632.879 0 1.377-.626.504-.633.504-1.876m6.452-2.074h-.059a4.374 4.374 0 0 0-1.025-.111q-.51 0-.985.228a4.5 4.5 0 0 0-.914.58V55h-1.101v-6.545h1.101v.967q.657-.528 1.154-.744a2.5 2.5 0 0 1 1.026-.223q.287 0 .416.018.129.012.387.052zM197.476 55h-1.101v-3.727q0-.42-.041-.814-.036-.392-.158-.627a.9.9 0 0 0-.387-.38q-.252-.13-.727-.13-.462 0-.925.235a5.5 5.5 0 0 0-.926.586q.018.135.029.316.012.175.012.351V55h-1.102v-3.727q0-.433-.041-.82a1.7 1.7 0 0 0-.158-.627.86.86 0 0 0-.387-.375q-.252-.129-.726-.129-.452 0-.908.223a5.5 5.5 0 0 0-.903.568V55h-1.101v-6.545h1.101v.727a5 5 0 0 1 1.026-.668 2.6 2.6 0 0 1 1.095-.24q.669 0 1.131.28.47.282.697.78.669-.563 1.219-.809.55-.252 1.178-.252 1.078 0 1.588.657.515.65.515 1.822zM17.352 72h-4.723v-.89h1.816v-5.848H12.63v-.797q.37 0 .79-.059.423-.064.64-.181.27-.147.422-.37.157-.228.181-.609h.908v7.863h1.782zm7.647 0h-5.907v-1.225l1.23-1.054q.622-.528 1.155-1.05 1.125-1.089 1.541-1.728.416-.644.416-1.388 0-.68-.451-1.06-.446-.388-1.248-.388-.533 0-1.154.188a4.7 4.7 0 0 0-1.213.574h-.059v-1.23q.416-.206 1.107-.375.698-.17 1.348-.17 1.342 0 2.104.65.762.645.761 1.752 0 .498-.129.932a3.1 3.1 0 0 1-.369.814q-.228.363-.539.715-.304.351-.744.78-.627.615-1.295 1.195-.668.573-1.248 1.066H25zm8.05-2.684q0 .651-.245 1.149a2.3 2.3 0 0 1-.662.82q-.493.387-1.084.55-.587.165-1.495.165H26.47v-8.725h2.584q.954 0 1.43.07.473.071.908.294.48.252.697.65.216.393.217.943 0 .622-.317 1.061-.316.433-.844.697v.047q.885.181 1.395.78.51.591.51 1.5m-1.95-3.931q0-.317-.106-.533a.8.8 0 0 0-.34-.352 1.6 1.6 0 0 0-.668-.193 10 10 0 0 0-.972-.041H27.63v2.52h1.5q.544 0 .867-.054.322-.058.598-.234a.96.96 0 0 0 .386-.451q.117-.281.118-.662m.744 3.978q0-.526-.159-.838-.157-.31-.574-.527a1.9 1.9 0 0 0-.685-.187 9 9 0 0 0-.973-.047H27.63v3.246h1.535q.762 0 1.248-.076.486-.083.797-.293a1.5 1.5 0 0 0 .48-.522q.153-.292.153-.756m8.953-.047q0 .651-.246 1.149a2.3 2.3 0 0 1-.662.82q-.493.387-1.084.55-.586.165-1.494.165h-3.094v-8.725H36.8q.956 0 1.43.07.475.071.908.294.48.252.697.65.217.393.217.943 0 .622-.316 1.061a2.3 2.3 0 0 1-.844.697v.047q.885.181 1.395.78.51.591.51 1.5m-1.95-3.931q0-.317-.106-.533a.8.8 0 0 0-.34-.352 1.6 1.6 0 0 0-.668-.193 10 10 0 0 0-.973-.041h-1.383v2.52h1.5q.546 0 .868-.054.322-.058.597-.234a.96.96 0 0 0 .387-.451q.117-.281.117-.662m.743 3.978q0-.526-.158-.838-.158-.31-.574-.527a1.9 1.9 0 0 0-.686-.187 9 9 0 0 0-.972-.047h-1.823v3.246h1.536q.76 0 1.248-.076.486-.083.797-.293.327-.23.48-.522t.152-.756m11.603-.632q0 1.6-.82 2.525-.82.926-2.198.926-1.389 0-2.209-.926-.814-.927-.814-2.525 0-1.6.814-2.526.82-.932 2.21-.932 1.376 0 2.197.932.82.926.82 2.526m-1.137 0q0-1.272-.498-1.887-.498-.621-1.383-.621-.896 0-1.394.62-.492.615-.492 1.888 0 1.23.498 1.869.498.632 1.388.632.879 0 1.377-.626.504-.633.504-1.875m5.89-4.782h-.06a5 5 0 0 0-.474-.105 2.7 2.7 0 0 0-.516-.059q-.709 0-1.03.317-.318.31-.317 1.13v.223h1.986v.926h-1.951V72H52.48v-5.62h-.744v-.925h.744v-.217q0-1.166.58-1.787.58-.627 1.676-.627.37 0 .662.035.3.036.545.082zm9.715 4.7q0 .796-.228 1.458a3.2 3.2 0 0 1-.645 1.114q-.386.433-.914.673a2.7 2.7 0 0 1-1.107.235 3.6 3.6 0 0 1-.926-.111 3.9 3.9 0 0 1-.838-.346v2.742H59.9v-8.959h1.102v.686q.439-.37.984-.616a2.8 2.8 0 0 1 1.172-.252q1.184 0 1.84.897.662.891.662 2.478m-1.137.029q0-1.185-.404-1.77-.405-.585-1.242-.586-.475 0-.955.205a4.3 4.3 0 0 0-.92.54v3.708q.468.212.802.287.34.077.768.077.92 0 1.436-.621.515-.622.515-1.84m6.458-2.022h-.059a4.365 4.365 0 0 0-1.025-.111q-.51 0-.985.228a4.4 4.4 0 0 0-.914.58V72h-1.101v-6.545h1.101v.967q.657-.528 1.155-.744a2.5 2.5 0 0 1 1.025-.223q.287 0 .416.018.129.012.387.052zm6.135 2.075q0 1.6-.82 2.525-.82.926-2.198.926-1.388 0-2.209-.926-.814-.927-.814-2.525 0-1.6.814-2.526.82-.932 2.21-.932 1.376 0 2.197.932.82.926.82 2.526m-1.137 0q0-1.272-.498-1.887-.498-.621-1.383-.621-.896 0-1.394.62-.492.615-.492 1.888 0 1.23.498 1.869.498.632 1.388.632.879 0 1.377-.626.504-.633.504-1.875m7.208 2.859a7 7 0 0 1-1.049.41 3.7 3.7 0 0 1-1.049.147 4 4 0 0 1-1.3-.206 2.7 2.7 0 0 1-1.014-.632 2.8 2.8 0 0 1-.662-1.067q-.235-.644-.235-1.506 0-1.605.88-2.52.884-.913 2.331-.913.562 0 1.102.158.545.157.996.387v1.224h-.059a4.2 4.2 0 0 0-1.043-.603 2.8 2.8 0 0 0-1.043-.211q-.937 0-1.482.633-.54.627-.54 1.845 0 1.185.528 1.823.534.632 1.494.632.335 0 .68-.088a3 3 0 0 0 .621-.228q.24-.123.451-.258.21-.141.334-.24h.059zm6.416-2.748h-4.822q0 .603.182 1.055.18.444.498.732.304.28.72.422.423.14.926.14a3.7 3.7 0 0 0 1.342-.263q.68-.27.967-.528h.058v1.202q-.556.234-1.136.392a4.6 4.6 0 0 1-1.22.158q-1.628 0-2.542-.879-.915-.885-.914-2.507 0-1.605.873-2.55.879-.942 2.309-.943 1.323 0 2.039.774.72.774.72 2.197zm-1.072-.844q-.005-.867-.44-1.342-.427-.474-1.306-.474-.885 0-1.412.521-.522.522-.592 1.295zm6.938 2.115q0 .897-.744 1.471-.738.574-2.022.574-.727 0-1.336-.17a6 6 0 0 1-1.013-.38V70.37h.058q.522.392 1.16.627a3.6 3.6 0 0 0 1.225.229q.726 0 1.137-.235.41-.234.41-.738 0-.387-.223-.586-.222-.2-.855-.34a17 17 0 0 0-.615-.123 10 10 0 0 1-.686-.152q-.86-.229-1.225-.668-.357-.445-.357-1.09 0-.404.164-.762.17-.357.51-.639.328-.275.832-.433.51-.165 1.137-.164.585 0 1.183.146.604.141 1.002.346v1.178h-.058a3.9 3.9 0 0 0-1.026-.522 3.5 3.5 0 0 0-1.183-.216q-.605 0-1.02.234-.416.228-.416.685 0 .405.252.61.246.204.797.334.305.07.68.14.38.07.632.13.768.175 1.184.603.416.434.416 1.148m5.778 0q0 .897-.744 1.471-.739.574-2.022.574-.727 0-1.336-.17a6 6 0 0 1-1.013-.38V70.37h.058q.522.392 1.16.627a3.6 3.6 0 0 0 1.225.229q.726 0 1.137-.235.41-.234.41-.738 0-.387-.223-.586-.222-.2-.855-.34a17 17 0 0 0-.616-.123 10 10 0 0 1-.685-.152q-.862-.229-1.225-.668-.357-.445-.357-1.09 0-.404.164-.762.17-.357.51-.639.328-.275.832-.433.51-.165 1.136-.164.587 0 1.184.146.603.141 1.002.346v1.178h-.059a3.9 3.9 0 0 0-1.025-.522 3.5 3.5 0 0 0-1.184-.216q-.603 0-1.02.234-.415.228-.415.685 0 .405.252.61.246.204.797.334.305.07.68.14.38.07.632.13.768.175 1.184.603.416.434.416 1.148m6.58-1.271h-4.822q0 .603.182 1.055.181.444.498.732.304.28.72.422.422.14.926.14.669 0 1.342-.263.68-.27.967-.528h.058v1.202a9 9 0 0 1-1.136.392 4.6 4.6 0 0 1-1.219.158q-1.63 0-2.543-.879-.914-.885-.914-2.507 0-1.605.873-2.55.878-.942 2.309-.943 1.323 0 2.039.774.72.774.72 2.197zm-1.072-.844q-.006-.867-.439-1.342-.429-.474-1.307-.474-.885 0-1.412.521a2.03 2.03 0 0 0-.592 1.295zM114.326 72h-1.102v-.686a4 4 0 0 1-.99.64 2.7 2.7 0 0 1-1.119.228q-1.172 0-1.863-.903-.686-.901-.686-2.502 0-.832.234-1.482.24-.65.645-1.108a2.7 2.7 0 0 1 2.027-.914q.516 0 .914.112.399.105.838.334v-2.836h1.102zm-1.102-1.611v-3.756a4 4 0 0 0-.797-.276 3.6 3.6 0 0 0-.767-.076q-.926 0-1.442.645t-.515 1.828q0 1.166.398 1.775.399.604 1.278.604.468 0 .949-.205.48-.21.896-.54M129.303 72h-1.101v-3.727q0-.42-.041-.814-.036-.392-.158-.627a.9.9 0 0 0-.387-.38q-.252-.13-.727-.13-.463 0-.925.235a5.5 5.5 0 0 0-.926.586 6 6 0 0 1 .041.668V72h-1.102v-3.727q0-.433-.041-.82a1.7 1.7 0 0 0-.158-.627.86.86 0 0 0-.387-.375q-.252-.129-.726-.129-.452 0-.909.223-.45.222-.902.568V72h-1.101v-6.545h1.101v.727a5 5 0 0 1 1.026-.668 2.6 2.6 0 0 1 1.095-.24q.669 0 1.131.28.47.282.697.78.669-.563 1.219-.809.55-.252 1.178-.252 1.078 0 1.588.657.515.65.515 1.822zm7.22-3.27q0 1.6-.821 2.526-.82.926-2.197.926-1.389 0-2.209-.926-.814-.927-.814-2.525 0-1.6.814-2.526.82-.932 2.209-.932 1.377 0 2.197.932.82.926.821 2.526m-1.137 0q0-1.27-.498-1.886-.498-.621-1.383-.621-.897 0-1.395.62-.492.615-.492 1.888 0 1.23.498 1.869.498.632 1.389.632.879 0 1.377-.626.504-.633.504-1.875m7.84 3.27h-1.101v-3.727q0-.45-.053-.843-.053-.399-.193-.621a.88.88 0 0 0-.422-.364q-.276-.123-.715-.123-.451 0-.944.223a4.8 4.8 0 0 0-.943.568V72h-1.101v-6.545h1.101v.727a4.5 4.5 0 0 1 1.066-.668q.552-.24 1.131-.24 1.06 0 1.618.638.556.64.556 1.84zm5.04-.059a6 6 0 0 1-1.33.188q-1.002 0-1.524-.54-.52-.538-.521-1.728v-3.48h-.744v-.926h.744v-1.88h1.101v1.88h2.274v.926h-2.274v2.982q0 .516.024.809a1.3 1.3 0 0 0 .164.539.8.8 0 0 0 .351.346q.229.105.692.105.269 0 .562-.076.294-.082.422-.135h.059zm6.328.059h-1.101v-3.727q0-.45-.053-.843-.053-.399-.193-.621a.88.88 0 0 0-.422-.364q-.276-.123-.715-.123-.451 0-.943.223a4.8 4.8 0 0 0-.944.568V72h-1.101v-9.117h1.101v3.299a4.5 4.5 0 0 1 1.067-.668 2.8 2.8 0 0 1 1.13-.24q1.062 0 1.618.638.556.64.556 1.84z"/></g><rect width="369.511" height="87.511" x=".745" y=".745" stroke="url(#c)" stroke-opacity=".08" stroke-width=".511" rx="10.255"/><defs><linearGradient id="b" x1="36.312" x2="207.578" y1="6.611" y2="67.347" gradientUnits="userSpaceOnUse"><stop stop-color="#003F88"/><stop offset=".65" stop-color="#03BCFF"/><stop offset="1" stop-color="#0076FF"/></linearGradient><linearGradient id="c" x1="46.7" x2="365.747" y1="12.907" y2="109.173" gradientUnits="userSpaceOnUse"><stop stop-color="#003F88"/><stop offset=".65" stop-color="#02D4FF"/><stop offset="1" stop-color="#0076FF"/></linearGradient><clipPath id="a"><rect width="369" height="87" x="1" y="1" fill="#fff" rx="10"/></clipPath></defs></svg>