<svg width="375" height="145" viewBox="0 0 375 145" fill="none" xmlns="http://www.w3.org/2000/svg">
<g clip-path="url(#clip0_1036_4170)">
<rect x="1" y="1" width="373" height="143" rx="10" fill="#E3F0FF"/>
<path d="M379.257 159C236.144 155.264 203.313 150.164 196.432 141.537C190.39 132.512 190.39 132.512 260.416 82.4127C292.156 59.724 342.356 23.7915 358.677 8.4279C317.628 1.90083 276.277 -2.56138 234.78 -4.94185C233.133 -4.59271 231.418 -4.77425 229.88 -5.46047C228.343 -6.14669 227.062 -7.30233 226.221 -8.76176C225.489 -10.0084 225.102 -11.428 225.102 -12.8741C225.101 -14.3201 225.486 -15.7401 226.217 -16.9873C226.949 -18.2346 228 -19.2639 229.262 -19.969C230.523 -20.6741 231.95 -21.0293 233.395 -20.9981C235.493 -20.9981 375.376 -14.9114 379.026 3.2647C380.348 13.6331 367.593 25.4496 269.688 95.4675C250.808 108.9 230.375 123.592 218.648 132.617C256.304 137.948 362.286 141.789 379.718 142.965C381.745 143.165 383.621 144.124 384.971 145.65C386.321 147.176 387.045 149.155 386.998 151.192C386.926 153.229 386.089 155.164 384.654 156.612C383.22 158.059 381.292 158.912 379.257 159Z" fill="#C8E2FF"/>
<path d="M32.1631 40.1973H19.5771V22.748H24.0771V36.8223H32.1631V40.1973ZM47.6084 34.3965H37.9521C38.0146 35.4277 38.4053 36.2168 39.124 36.7637C39.8506 37.3105 40.917 37.584 42.3232 37.584C43.2139 37.584 44.0771 37.4238 44.9131 37.1035C45.749 36.7832 46.4092 36.4395 46.8936 36.0723H47.3623V39.459C46.4092 39.8418 45.5107 40.1191 44.667 40.291C43.8232 40.4629 42.8896 40.5488 41.8662 40.5488C39.2256 40.5488 37.2021 39.9551 35.7959 38.7676C34.3896 37.5801 33.6865 35.8887 33.6865 33.6934C33.6865 31.5215 34.3506 29.8027 35.6787 28.5371C37.0146 27.2637 38.8428 26.627 41.1631 26.627C43.3037 26.627 44.9131 27.1699 45.9912 28.2559C47.0693 29.334 47.6084 30.8887 47.6084 32.9199V34.3965ZM43.4131 31.9238C43.3896 31.041 43.1709 30.377 42.7568 29.9316C42.3428 29.4863 41.6982 29.2637 40.8232 29.2637C40.0107 29.2637 39.3428 29.4746 38.8193 29.8965C38.2959 30.3184 38.0029 30.9941 37.9404 31.9238H43.4131ZM58.999 40.0801C58.5459 40.1973 58.0654 40.2871 57.5576 40.3496C57.0498 40.4199 56.4287 40.4551 55.6943 40.4551C54.0537 40.4551 52.8311 40.123 52.0264 39.459C51.2295 38.7949 50.8311 37.6582 50.8311 36.0488V29.8965H49.0967V27.0371H50.8311V23.2754H55.0498V27.0371H58.999V29.8965H55.0498V34.5605C55.0498 35.0215 55.0537 35.4238 55.0615 35.7676C55.0693 36.1113 55.1318 36.4199 55.249 36.6934C55.3584 36.9668 55.5498 37.1855 55.8232 37.3496C56.1045 37.5059 56.5107 37.584 57.042 37.584C57.2607 37.584 57.5459 37.5371 57.8975 37.4434C58.2568 37.3496 58.5068 37.2637 58.6475 37.1855H58.999V40.0801ZM67.1318 21.9629L63.7217 28.8652H60.9795L62.8193 21.9629H67.1318ZM80.9365 36.0254C80.9365 37.3848 80.3271 38.4824 79.1084 39.3184C77.8896 40.1465 76.2217 40.5605 74.1045 40.5605C72.9326 40.5605 71.8701 40.4512 70.917 40.2324C69.9639 40.0137 69.1982 39.7715 68.6201 39.5059V36.0371H69.0068C69.2178 36.1855 69.46 36.3496 69.7334 36.5293C70.0146 36.7012 70.4092 36.8887 70.917 37.0918C71.3545 37.2715 71.8506 37.4277 72.4053 37.5605C72.96 37.6855 73.5537 37.748 74.1865 37.748C75.0146 37.748 75.6279 37.6582 76.0264 37.4785C76.4248 37.291 76.624 37.0176 76.624 36.6582C76.624 36.3379 76.5068 36.1074 76.2725 35.9668C76.0381 35.8184 75.5928 35.6777 74.9365 35.5449C74.624 35.4746 74.1982 35.4004 73.6592 35.3223C73.1279 35.2363 72.6436 35.1348 72.2061 35.0176C71.0107 34.7051 70.124 34.2207 69.5459 33.5645C68.9678 32.9004 68.6787 32.0762 68.6787 31.0918C68.6787 29.8262 69.2764 28.7754 70.4717 27.9395C71.6748 27.0957 73.3154 26.6738 75.3936 26.6738C76.3779 26.6738 77.3193 26.7754 78.2178 26.9785C79.124 27.1738 79.8311 27.3848 80.3389 27.6113V30.9395H79.9756C79.3506 30.5098 78.6357 30.1621 77.8311 29.8965C77.0342 29.623 76.2256 29.4863 75.4053 29.4863C74.7256 29.4863 74.1514 29.5801 73.6826 29.7676C73.2217 29.9551 72.9912 30.2207 72.9912 30.5645C72.9912 30.877 73.0967 31.1152 73.3076 31.2793C73.5186 31.4434 74.0146 31.6074 74.7959 31.7715C75.2256 31.8574 75.6865 31.9434 76.1787 32.0293C76.6787 32.1074 77.1787 32.209 77.6787 32.334C78.7881 32.623 79.6084 33.0801 80.1396 33.7051C80.6709 34.3223 80.9365 35.0957 80.9365 36.0254ZM106.155 34.7129C106.155 36.4316 105.425 37.8301 103.964 38.9082C102.511 39.9785 100.534 40.5137 98.0342 40.5137C96.5889 40.5137 95.3271 40.3887 94.249 40.1387C93.1787 39.8809 92.1748 39.5566 91.2373 39.166V34.9824H91.7295C92.6592 35.7246 93.6982 36.2949 94.8467 36.6934C96.0029 37.0918 97.1123 37.291 98.1748 37.291C98.4482 37.291 98.8076 37.2676 99.2529 37.2207C99.6982 37.1738 100.062 37.0957 100.343 36.9863C100.687 36.8457 100.968 36.6699 101.187 36.459C101.413 36.248 101.526 35.9355 101.526 35.5215C101.526 35.1387 101.362 34.8105 101.034 34.5371C100.714 34.2559 100.241 34.041 99.6162 33.8926C98.96 33.7363 98.2646 33.5918 97.5303 33.459C96.8037 33.3184 96.1201 33.1426 95.4795 32.9316C94.0107 32.4551 92.9521 31.8105 92.3037 30.998C91.6631 30.1777 91.3428 29.1621 91.3428 27.9512C91.3428 26.3262 92.0693 25.002 93.5225 23.9785C94.9834 22.9473 96.8584 22.4316 99.1475 22.4316C100.296 22.4316 101.429 22.5449 102.546 22.7715C103.671 22.9902 104.644 23.2676 105.464 23.6035V27.623H104.983C104.28 27.0605 103.417 26.5918 102.394 26.2168C101.378 25.834 100.339 25.6426 99.2764 25.6426C98.9014 25.6426 98.5264 25.6699 98.1514 25.7246C97.7842 25.7715 97.4287 25.8652 97.085 26.0059C96.7803 26.123 96.5186 26.3027 96.2998 26.5449C96.0811 26.7793 95.9717 27.0488 95.9717 27.3535C95.9717 27.8145 96.1475 28.1699 96.499 28.4199C96.8506 28.6621 97.5146 28.8848 98.4912 29.0879C99.1318 29.2207 99.7451 29.3496 100.331 29.4746C100.925 29.5996 101.562 29.7715 102.241 29.9902C103.577 30.4277 104.562 31.0254 105.194 31.7832C105.835 32.5332 106.155 33.5098 106.155 34.7129ZM117.429 40.0801C116.976 40.1973 116.495 40.2871 115.987 40.3496C115.479 40.4199 114.858 40.4551 114.124 40.4551C112.483 40.4551 111.261 40.123 110.456 39.459C109.659 38.7949 109.261 37.6582 109.261 36.0488V29.8965H107.526V27.0371H109.261V23.2754H113.479V27.0371H117.429V29.8965H113.479V34.5605C113.479 35.0215 113.483 35.4238 113.491 35.7676C113.499 36.1113 113.562 36.4199 113.679 36.6934C113.788 36.9668 113.979 37.1855 114.253 37.3496C114.534 37.5059 114.94 37.584 115.472 37.584C115.69 37.584 115.976 37.5371 116.327 37.4434C116.687 37.3496 116.937 37.2637 117.077 37.1855H117.429V40.0801ZM127.929 36.7637V34.0215C127.358 34.0684 126.741 34.1348 126.077 34.2207C125.413 34.2988 124.909 34.3926 124.565 34.502C124.144 34.6348 123.819 34.8301 123.593 35.0879C123.374 35.3379 123.265 35.6699 123.265 36.084C123.265 36.3574 123.288 36.5801 123.335 36.752C123.382 36.9238 123.499 37.0879 123.687 37.2441C123.866 37.4004 124.081 37.5176 124.331 37.5957C124.581 37.666 124.972 37.7012 125.503 37.7012C125.925 37.7012 126.351 37.6152 126.78 37.4434C127.218 37.2715 127.601 37.0449 127.929 36.7637ZM127.929 38.8027C127.702 38.9746 127.421 39.1816 127.085 39.4238C126.749 39.666 126.433 39.8574 126.136 39.998C125.722 40.1855 125.292 40.3223 124.847 40.4082C124.401 40.502 123.913 40.5488 123.382 40.5488C122.132 40.5488 121.085 40.1621 120.241 39.3887C119.397 38.6152 118.976 37.627 118.976 36.4238C118.976 35.4629 119.19 34.6777 119.62 34.0684C120.05 33.459 120.659 32.9785 121.448 32.627C122.229 32.2754 123.198 32.0254 124.354 31.877C125.511 31.7285 126.71 31.6191 127.952 31.5488V31.4785C127.952 30.752 127.655 30.252 127.062 29.9785C126.468 29.6973 125.593 29.5566 124.437 29.5566C123.741 29.5566 122.999 29.6816 122.21 29.9316C121.421 30.1738 120.854 30.3613 120.511 30.4941H120.124V27.3184C120.569 27.2012 121.292 27.0645 122.292 26.9082C123.3 26.7441 124.308 26.6621 125.315 26.6621C127.714 26.6621 129.444 27.0332 130.507 27.7754C131.577 28.5098 132.112 29.666 132.112 31.2441V40.1973H127.929V38.8027ZM145.53 31.0566H145.155C144.976 30.9941 144.687 30.9473 144.288 30.916C143.89 30.8848 143.558 30.8691 143.292 30.8691C142.69 30.8691 142.159 30.9082 141.698 30.9863C141.237 31.0645 140.741 31.1973 140.21 31.3848V40.1973H135.991V27.0371H140.21V28.9707C141.14 28.1738 141.948 27.6465 142.636 27.3887C143.323 27.123 143.956 26.9902 144.534 26.9902C144.683 26.9902 144.851 26.9941 145.038 27.002C145.226 27.0098 145.39 27.0215 145.53 27.0371V31.0566ZM156.335 40.0801C155.882 40.1973 155.401 40.2871 154.894 40.3496C154.386 40.4199 153.765 40.4551 153.03 40.4551C151.39 40.4551 150.167 40.123 149.362 39.459C148.565 38.7949 148.167 37.6582 148.167 36.0488V29.8965H146.433V27.0371H148.167V23.2754H152.386V27.0371H156.335V29.8965H152.386V34.5605C152.386 35.0215 152.39 35.4238 152.397 35.7676C152.405 36.1113 152.468 36.4199 152.585 36.6934C152.694 36.9668 152.886 37.1855 153.159 37.3496C153.44 37.5059 153.847 37.584 154.378 37.584C154.597 37.584 154.882 37.5371 155.233 37.4434C155.593 37.3496 155.843 37.2637 155.983 37.1855H156.335V40.0801Z" fill="url(#paint0_linear_1036_4170)"/>
<path d="M26.292 64.1973H25.1318V56.6797L22.7061 61.7949H22.0146L19.6064 56.6797V64.1973H18.5225V55.4727H20.1045L22.4307 60.3301L24.6807 55.4727H26.292V64.1973ZM33.1538 64.1973H32.0581V63.5C31.9604 63.5664 31.8276 63.6602 31.6596 63.7812C31.4956 63.8984 31.3354 63.9922 31.1792 64.0625C30.9956 64.1523 30.7846 64.2266 30.5464 64.2852C30.3081 64.3477 30.0288 64.3789 29.7085 64.3789C29.1186 64.3789 28.6186 64.1836 28.2085 63.793C27.7983 63.4023 27.5932 62.9043 27.5932 62.2988C27.5932 61.8027 27.6987 61.4023 27.9096 61.0977C28.1245 60.7891 28.4292 60.5469 28.8237 60.3711C29.2221 60.1953 29.7007 60.0762 30.2593 60.0137C30.8179 59.9512 31.4175 59.9043 32.0581 59.873V59.7031C32.0581 59.4531 32.0132 59.2461 31.9233 59.082C31.8374 58.918 31.7124 58.7891 31.5483 58.6953C31.3921 58.6055 31.2046 58.5449 30.9858 58.5137C30.7671 58.4824 30.5386 58.4668 30.3003 58.4668C30.0112 58.4668 29.6889 58.5059 29.3335 58.584C28.978 58.6582 28.6108 58.7676 28.2319 58.9121H28.1733V57.793C28.3882 57.7344 28.6987 57.6699 29.105 57.5996C29.5112 57.5293 29.9116 57.4941 30.3061 57.4941C30.7671 57.4941 31.1675 57.5332 31.5073 57.6113C31.8511 57.6855 32.1479 57.8145 32.3979 57.998C32.644 58.1777 32.8315 58.4102 32.9604 58.6953C33.0893 58.9805 33.1538 59.334 33.1538 59.7559V64.1973ZM32.0581 62.5859V60.7637C31.7221 60.7832 31.3257 60.8125 30.8686 60.8516C30.4155 60.8906 30.0561 60.9473 29.7905 61.0215C29.4741 61.1113 29.2182 61.252 29.0229 61.4434C28.8276 61.6309 28.73 61.8906 28.73 62.2227C28.73 62.5977 28.8432 62.8809 29.0698 63.0723C29.2964 63.2598 29.6421 63.3535 30.1069 63.3535C30.4936 63.3535 30.8471 63.2793 31.1675 63.1309C31.4878 62.9785 31.7846 62.7969 32.0581 62.5859ZM40.7363 64.1973H39.2832L36.6582 61.332L35.9433 62.0117V64.1973H34.8418V55.0801H35.9433V60.9277L39.125 57.6523H40.5136L37.4726 60.6758L40.7363 64.1973ZM46.7778 61.0391H41.9555C41.9555 61.4414 42.0161 61.793 42.1371 62.0938C42.2582 62.3906 42.4243 62.6348 42.6352 62.8262C42.8383 63.0137 43.0786 63.1543 43.3559 63.248C43.6371 63.3418 43.9457 63.3887 44.2817 63.3887C44.727 63.3887 45.1743 63.3008 45.6235 63.125C46.0766 62.9453 46.3989 62.7695 46.5903 62.5977H46.6489V63.7988C46.2778 63.9551 45.8989 64.0859 45.5121 64.1914C45.1254 64.2969 44.7192 64.3496 44.2934 64.3496C43.2075 64.3496 42.3598 64.0566 41.7504 63.4707C41.1411 62.8809 40.8364 62.0449 40.8364 60.9629C40.8364 59.8926 41.1274 59.043 41.7094 58.4141C42.2954 57.7852 43.0649 57.4707 44.018 57.4707C44.9008 57.4707 45.5805 57.7285 46.0571 58.2441C46.5375 58.7598 46.7778 59.4922 46.7778 60.4414V61.0391ZM45.7055 60.1953C45.7016 59.6172 45.5551 59.1699 45.2661 58.8535C44.9809 58.5371 44.5454 58.3789 43.9594 58.3789C43.3696 58.3789 42.8989 58.5527 42.5473 58.9004C42.1996 59.248 42.0024 59.6797 41.9555 60.1953H45.7055ZM56.7924 64.1973H55.6967V63.5C55.599 63.5664 55.4662 63.6602 55.2982 63.7812C55.1342 63.8984 54.974 63.9922 54.8178 64.0625C54.6342 64.1523 54.4232 64.2266 54.185 64.2852C53.9467 64.3477 53.6674 64.3789 53.3471 64.3789C52.7572 64.3789 52.2572 64.1836 51.8471 63.793C51.4369 63.4023 51.2318 62.9043 51.2318 62.2988C51.2318 61.8027 51.3373 61.4023 51.5482 61.0977C51.7631 60.7891 52.0678 60.5469 52.4623 60.3711C52.8607 60.1953 53.3393 60.0762 53.8979 60.0137C54.4564 59.9512 55.0561 59.9043 55.6967 59.873V59.7031C55.6967 59.4531 55.6518 59.2461 55.5619 59.082C55.476 58.918 55.351 58.7891 55.1869 58.6953C55.0307 58.6055 54.8432 58.5449 54.6244 58.5137C54.4057 58.4824 54.1771 58.4668 53.9389 58.4668C53.6498 58.4668 53.3275 58.5059 52.9721 58.584C52.6166 58.6582 52.2494 58.7676 51.8705 58.9121H51.8119V57.793C52.0268 57.7344 52.3373 57.6699 52.7436 57.5996C53.1498 57.5293 53.5502 57.4941 53.9447 57.4941C54.4057 57.4941 54.8061 57.5332 55.1459 57.6113C55.4896 57.6855 55.7865 57.8145 56.0365 57.998C56.2826 58.1777 56.4701 58.4102 56.599 58.6953C56.7279 58.9805 56.7924 59.334 56.7924 59.7559V64.1973ZM55.6967 62.5859V60.7637C55.3607 60.7832 54.9643 60.8125 54.5072 60.8516C54.0541 60.8906 53.6947 60.9473 53.4291 61.0215C53.1127 61.1113 52.8568 61.252 52.6615 61.4434C52.4662 61.6309 52.3686 61.8906 52.3686 62.2227C52.3686 62.5977 52.4818 62.8809 52.7084 63.0723C52.935 63.2598 53.2807 63.3535 53.7455 63.3535C54.1322 63.3535 54.4857 63.2793 54.8061 63.1309C55.1264 62.9785 55.4232 62.7969 55.6967 62.5859ZM67.4808 64.1973H66.3793V63.5117C66.0629 63.7852 65.7328 63.998 65.389 64.1504C65.0453 64.3027 64.6722 64.3789 64.2699 64.3789C63.4886 64.3789 62.8675 64.0781 62.4066 63.4766C61.9496 62.875 61.7211 62.041 61.7211 60.9746C61.7211 60.4199 61.7992 59.9258 61.9554 59.4922C62.1156 59.0586 62.3304 58.6895 62.6 58.3848C62.8656 58.0879 63.1742 57.8613 63.5257 57.7051C63.8812 57.5488 64.2484 57.4707 64.6273 57.4707C64.9711 57.4707 65.2757 57.5078 65.5414 57.582C65.807 57.6523 66.0863 57.7637 66.3793 57.916V55.0801H67.4808V64.1973ZM66.3793 62.5859V58.8301C66.0824 58.6973 65.8168 58.6055 65.5824 58.5547C65.348 58.5039 65.0921 58.4785 64.8148 58.4785C64.1976 58.4785 63.7171 58.6934 63.3734 59.123C63.0296 59.5527 62.8578 60.1621 62.8578 60.9512C62.8578 61.7285 62.9906 62.3203 63.2562 62.7266C63.5218 63.1289 63.9476 63.3301 64.5336 63.3301C64.8461 63.3301 65.1625 63.2617 65.4828 63.125C65.8031 62.9844 66.1019 62.8047 66.3793 62.5859ZM73.2528 58.8535H73.1942C73.0301 58.8145 72.87 58.7871 72.7137 58.7715C72.5614 58.752 72.3797 58.7422 72.1688 58.7422C71.8289 58.7422 71.5008 58.8184 71.1844 58.9707C70.868 59.1191 70.5633 59.3125 70.2704 59.5508V64.1973H69.1688V57.6523H70.2704V58.6191C70.7079 58.2676 71.0926 58.0195 71.4246 57.875C71.7606 57.7266 72.1024 57.6523 72.45 57.6523C72.6414 57.6523 72.7801 57.6582 72.8661 57.6699C72.952 57.6777 73.0809 57.6953 73.2528 57.7227V58.8535ZM78.6849 64.1973H77.5892V63.5C77.4915 63.5664 77.3587 63.6602 77.1907 63.7812C77.0267 63.8984 76.8665 63.9922 76.7103 64.0625C76.5267 64.1523 76.3157 64.2266 76.0775 64.2852C75.8392 64.3477 75.5599 64.3789 75.2396 64.3789C74.6497 64.3789 74.1497 64.1836 73.7396 63.793C73.3294 63.4023 73.1243 62.9043 73.1243 62.2988C73.1243 61.8027 73.2298 61.4023 73.4407 61.0977C73.6556 60.7891 73.9603 60.5469 74.3548 60.3711C74.7532 60.1953 75.2318 60.0762 75.7904 60.0137C76.3489 59.9512 76.9486 59.9043 77.5892 59.873V59.7031C77.5892 59.4531 77.5443 59.2461 77.4544 59.082C77.3685 58.918 77.2435 58.7891 77.0794 58.6953C76.9232 58.6055 76.7357 58.5449 76.5169 58.5137C76.2982 58.4824 76.0696 58.4668 75.8314 58.4668C75.5423 58.4668 75.22 58.5059 74.8646 58.584C74.5091 58.6582 74.1419 58.7676 73.763 58.9121H73.7044V57.793C73.9193 57.7344 74.2298 57.6699 74.6361 57.5996C75.0423 57.5293 75.4427 57.4941 75.8372 57.4941C76.2982 57.4941 76.6986 57.5332 77.0384 57.6113C77.3821 57.6855 77.679 57.8145 77.929 57.998C78.1751 58.1777 78.3626 58.4102 78.4915 58.6953C78.6204 58.9805 78.6849 59.334 78.6849 59.7559V64.1973ZM77.5892 62.5859V60.7637C77.2532 60.7832 76.8568 60.8125 76.3997 60.8516C75.9466 60.8906 75.5872 60.9473 75.3216 61.0215C75.0052 61.1113 74.7493 61.252 74.554 61.4434C74.3587 61.6309 74.2611 61.8906 74.2611 62.2227C74.2611 62.5977 74.3743 62.8809 74.6009 63.0723C74.8275 63.2598 75.1732 63.3535 75.638 63.3535C76.0247 63.3535 76.3782 63.2793 76.6986 63.1309C77.0189 62.9785 77.3157 62.7969 77.5892 62.5859ZM83.8475 56.1465H83.7889C83.6678 56.1113 83.5096 56.0762 83.3143 56.041C83.1189 56.002 82.9471 55.9824 82.7986 55.9824C82.326 55.9824 81.9822 56.0879 81.7674 56.2988C81.5564 56.5059 81.451 56.8828 81.451 57.4297V57.6523H83.4373V58.5781H81.4861V64.1973H80.3846V58.5781H79.6404V57.6523H80.3846V57.4355C80.3846 56.6582 80.5779 56.0625 80.9646 55.6484C81.3514 55.2305 81.91 55.0215 82.6404 55.0215C82.8865 55.0215 83.1072 55.0332 83.3025 55.0566C83.5018 55.0801 83.6834 55.1074 83.8475 55.1387V56.1465ZM87.4632 64.1387C87.2561 64.1934 87.0296 64.2383 86.7835 64.2734C86.5413 64.3086 86.3245 64.3262 86.1331 64.3262C85.4651 64.3262 84.9573 64.1465 84.6096 63.7871C84.262 63.4277 84.0882 62.8516 84.0882 62.0586V58.5781H83.344V57.6523H84.0882V55.7715H85.1897V57.6523H87.4632V58.5781H85.1897V61.5605C85.1897 61.9043 85.1975 62.1738 85.2132 62.3691C85.2288 62.5605 85.2835 62.7402 85.3772 62.9082C85.4632 63.0645 85.5804 63.1797 85.7288 63.2539C85.8811 63.3242 86.1116 63.3594 86.4202 63.3594C86.5999 63.3594 86.7874 63.334 86.9827 63.2832C87.178 63.2285 87.3186 63.1836 87.4046 63.1484H87.4632V64.1387ZM95.5793 56.1465H95.5207C95.3997 56.1113 95.2414 56.0762 95.0461 56.041C94.8508 56.002 94.6789 55.9824 94.5305 55.9824C94.0579 55.9824 93.7141 56.0879 93.4993 56.2988C93.2883 56.5059 93.1829 56.8828 93.1829 57.4297V57.6523H95.1692V58.5781H93.218V64.1973H92.1164V58.5781H91.3723V57.6523H92.1164V57.4355C92.1164 56.6582 92.3098 56.0625 92.6965 55.6484C93.0832 55.2305 93.6418 55.0215 94.3723 55.0215C94.6184 55.0215 94.8391 55.0332 95.0344 55.0566C95.2336 55.0801 95.4153 55.1074 95.5793 55.1387V56.1465ZM101.375 60.9277C101.375 61.9941 101.101 62.8359 100.554 63.4531C100.008 64.0703 99.2751 64.3789 98.3571 64.3789C97.4314 64.3789 96.695 64.0703 96.1482 63.4531C95.6052 62.8359 95.3337 61.9941 95.3337 60.9277C95.3337 59.8613 95.6052 59.0195 96.1482 58.4023C96.695 57.7812 97.4314 57.4707 98.3571 57.4707C99.2751 57.4707 100.008 57.7812 100.554 58.4023C101.101 59.0195 101.375 59.8613 101.375 60.9277ZM100.238 60.9277C100.238 60.0801 100.072 59.4512 99.74 59.041C99.4079 58.627 98.947 58.4199 98.3571 58.4199C97.7595 58.4199 97.2946 58.627 96.9626 59.041C96.6345 59.4512 96.4704 60.0801 96.4704 60.9277C96.4704 61.748 96.6364 62.3711 96.9685 62.7969C97.3005 63.2188 97.7634 63.4297 98.3571 63.4297C98.9431 63.4297 99.4021 63.2207 99.7341 62.8027C100.07 62.3809 100.238 61.7559 100.238 60.9277ZM106.69 58.8535H106.631C106.467 58.8145 106.307 58.7871 106.151 58.7715C105.998 58.752 105.817 58.7422 105.606 58.7422C105.266 58.7422 104.938 58.8184 104.621 58.9707C104.305 59.1191 104 59.3125 103.707 59.5508V64.1973H102.606V57.6523H103.707V58.6191C104.145 58.2676 104.529 58.0195 104.862 57.875C105.197 57.7266 105.539 57.6523 105.887 57.6523C106.078 57.6523 106.217 57.6582 106.303 57.6699C106.389 57.6777 106.518 57.6953 106.69 57.7227V58.8535ZM116.646 57.6523L112.825 66.6113H111.648L112.866 63.8809L110.259 57.6523H111.454L113.464 62.5039L115.491 57.6523H116.646ZM123.08 60.9277C123.08 61.9941 122.806 62.8359 122.259 63.4531C121.713 64.0703 120.98 64.3789 120.062 64.3789C119.136 64.3789 118.4 64.0703 117.853 63.4531C117.31 62.8359 117.039 61.9941 117.039 60.9277C117.039 59.8613 117.31 59.0195 117.853 58.4023C118.4 57.7812 119.136 57.4707 120.062 57.4707C120.98 57.4707 121.713 57.7812 122.259 58.4023C122.806 59.0195 123.08 59.8613 123.08 60.9277ZM121.943 60.9277C121.943 60.0801 121.777 59.4512 121.445 59.041C121.113 58.627 120.652 58.4199 120.062 58.4199C119.464 58.4199 119 58.627 118.668 59.041C118.339 59.4512 118.175 60.0801 118.175 60.9277C118.175 61.748 118.341 62.3711 118.673 62.7969C119.006 63.2188 119.468 63.4297 120.062 63.4297C120.648 63.4297 121.107 63.2207 121.439 62.8027C121.775 62.3809 121.943 61.7559 121.943 60.9277ZM129.736 64.1973H128.635V63.4707C128.264 63.7637 127.908 63.9883 127.568 64.1445C127.229 64.3008 126.854 64.3789 126.443 64.3789C125.756 64.3789 125.221 64.1699 124.838 63.752C124.455 63.3301 124.264 62.7129 124.264 61.9004V57.6523H125.365V61.3789C125.365 61.7109 125.381 61.9961 125.412 62.2344C125.443 62.4688 125.51 62.6699 125.611 62.8379C125.717 63.0098 125.854 63.1348 126.022 63.2129C126.19 63.291 126.434 63.3301 126.754 63.3301C127.039 63.3301 127.35 63.2559 127.686 63.1074C128.026 62.959 128.342 62.7695 128.635 62.5391V57.6523H129.736V64.1973ZM135.508 58.8535H135.45C135.286 58.8145 135.126 58.7871 134.969 58.7715C134.817 58.752 134.635 58.7422 134.424 58.7422C134.085 58.7422 133.756 58.8184 133.44 58.9707C133.124 59.1191 132.819 59.3125 132.526 59.5508V64.1973H131.424V57.6523H132.526V58.6191C132.963 58.2676 133.348 58.0195 133.68 57.875C134.016 57.7266 134.358 57.6523 134.706 57.6523C134.897 57.6523 135.036 57.6582 135.122 57.6699C135.208 57.6777 135.337 57.6953 135.508 57.7227V58.8535ZM145.412 64.1973H139.892V55.4727H141.052V63.166H145.412V64.1973ZM151.482 61.0391H146.66C146.66 61.4414 146.721 61.793 146.842 62.0938C146.963 62.3906 147.129 62.6348 147.34 62.8262C147.543 63.0137 147.783 63.1543 148.061 63.248C148.342 63.3418 148.65 63.3887 148.986 63.3887C149.432 63.3887 149.879 63.3008 150.328 63.125C150.781 62.9453 151.104 62.7695 151.295 62.5977H151.354V63.7988C150.982 63.9551 150.604 64.0859 150.217 64.1914C149.83 64.2969 149.424 64.3496 148.998 64.3496C147.912 64.3496 147.064 64.0566 146.455 63.4707C145.846 62.8809 145.541 62.0449 145.541 60.9629C145.541 59.8926 145.832 59.043 146.414 58.4141C147 57.7852 147.77 57.4707 148.723 57.4707C149.606 57.4707 150.285 57.7285 150.762 58.2441C151.242 58.7598 151.482 59.4922 151.482 60.4414V61.0391ZM150.41 60.1953C150.406 59.6172 150.26 59.1699 149.971 58.8535C149.686 58.5371 149.25 58.3789 148.664 58.3789C148.074 58.3789 147.604 58.5527 147.252 58.9004C146.904 59.248 146.707 59.6797 146.66 60.1953H150.41ZM157.758 64.1973H156.663V63.5C156.565 63.5664 156.432 63.6602 156.264 63.7812C156.1 63.8984 155.94 63.9922 155.784 64.0625C155.6 64.1523 155.389 64.2266 155.151 64.2852C154.913 64.3477 154.633 64.3789 154.313 64.3789C153.723 64.3789 153.223 64.1836 152.813 63.793C152.403 63.4023 152.198 62.9043 152.198 62.2988C152.198 61.8027 152.303 61.4023 152.514 61.0977C152.729 60.7891 153.034 60.5469 153.428 60.3711C153.827 60.1953 154.305 60.0762 154.864 60.0137C155.422 59.9512 156.022 59.9043 156.663 59.873V59.7031C156.663 59.4531 156.618 59.2461 156.528 59.082C156.442 58.918 156.317 58.7891 156.153 58.6953C155.997 58.6055 155.809 58.5449 155.59 58.5137C155.372 58.4824 155.143 58.4668 154.905 58.4668C154.616 58.4668 154.293 58.5059 153.938 58.584C153.583 58.6582 153.215 58.7676 152.836 58.9121H152.778V57.793C152.993 57.7344 153.303 57.6699 153.709 57.5996C154.116 57.5293 154.516 57.4941 154.911 57.4941C155.372 57.4941 155.772 57.5332 156.112 57.6113C156.456 57.6855 156.752 57.8145 157.002 57.998C157.249 58.1777 157.436 58.4102 157.565 58.6953C157.694 58.9805 157.758 59.334 157.758 59.7559V64.1973ZM156.663 62.5859V60.7637C156.327 60.7832 155.93 60.8125 155.473 60.8516C155.02 60.8906 154.661 60.9473 154.395 61.0215C154.079 61.1113 153.823 61.252 153.627 61.4434C153.432 61.6309 153.334 61.8906 153.334 62.2227C153.334 62.5977 153.448 62.8809 153.674 63.0723C153.901 63.2598 154.247 63.3535 154.711 63.3535C155.098 63.3535 155.452 63.2793 155.772 63.1309C156.092 62.9785 156.389 62.7969 156.663 62.5859ZM164.966 57.6523L162.317 64.1973H161.21L158.579 57.6523H159.774L161.802 62.8613L163.812 57.6523H164.966ZM171.3 61.0391H166.478C166.478 61.4414 166.539 61.793 166.66 62.0938C166.781 62.3906 166.947 62.6348 167.158 62.8262C167.361 63.0137 167.601 63.1543 167.878 63.248C168.16 63.3418 168.468 63.3887 168.804 63.3887C169.249 63.3887 169.697 63.3008 170.146 63.125C170.599 62.9453 170.921 62.7695 171.113 62.5977H171.171V63.7988C170.8 63.9551 170.421 64.0859 170.035 64.1914C169.648 64.2969 169.242 64.3496 168.816 64.3496C167.73 64.3496 166.882 64.0566 166.273 63.4707C165.664 62.8809 165.359 62.0449 165.359 60.9629C165.359 59.8926 165.65 59.043 166.232 58.4141C166.818 57.7852 167.587 57.4707 168.541 57.4707C169.423 57.4707 170.103 57.7285 170.58 58.2441C171.06 58.7598 171.3 59.4922 171.3 60.4414V61.0391ZM170.228 60.1953C170.224 59.6172 170.078 59.1699 169.789 58.8535C169.503 58.5371 169.068 58.3789 168.482 58.3789C167.892 58.3789 167.421 58.5527 167.07 58.9004C166.722 59.248 166.525 59.6797 166.478 60.1953H170.228ZM28.6768 72.4727L26.4092 81.1973H25.1025L23.2686 73.9551L21.4756 81.1973H20.1982L17.8896 72.4727H19.0791L20.9131 79.7266L22.7178 72.4727H23.8955L25.7178 79.7969L27.54 72.4727H28.6768ZM31.0093 73.5566H29.7671V72.4141H31.0093V73.5566ZM30.9389 81.1973H29.8374V74.6523H30.9389V81.1973ZM36.0371 81.1387C35.83 81.1934 35.6035 81.2383 35.3574 81.2734C35.1152 81.3086 34.8984 81.3262 34.707 81.3262C34.039 81.3262 33.5312 81.1465 33.1836 80.7871C32.8359 80.4277 32.6621 79.8516 32.6621 79.0586V75.5781H31.9179V74.6523H32.6621V72.7715H33.7636V74.6523H36.0371V75.5781H33.7636V78.5605C33.7636 78.9043 33.7714 79.1738 33.7871 79.3691C33.8027 79.5605 33.8574 79.7402 33.9511 79.9082C34.0371 80.0645 34.1543 80.1797 34.3027 80.2539C34.455 80.3242 34.6855 80.3594 34.9941 80.3594C35.1738 80.3594 35.3613 80.334 35.5566 80.2832C35.7519 80.2285 35.8925 80.1836 35.9785 80.1484H36.0371V81.1387ZM42.3657 81.1973H41.2641V77.4707C41.2641 77.1699 41.2465 76.8887 41.2114 76.627C41.1762 76.3613 41.1118 76.1543 41.018 76.0059C40.9204 75.8418 40.7797 75.7207 40.5961 75.6426C40.4125 75.5605 40.1743 75.5195 39.8813 75.5195C39.5805 75.5195 39.2661 75.5938 38.9379 75.7422C38.6098 75.8906 38.2954 76.0801 37.9946 76.3105V81.1973H36.893V72.0801H37.9946V75.3789C38.3383 75.0938 38.6938 74.8711 39.061 74.7109C39.4282 74.5508 39.8051 74.4707 40.1918 74.4707C40.8989 74.4707 41.4379 74.6836 41.809 75.1094C42.1801 75.5352 42.3657 76.1484 42.3657 76.9492V81.1973ZM49.3154 81.1973H48.2138V80.5117C47.8974 80.7852 47.5673 80.998 47.2236 81.1504C46.8798 81.3027 46.5068 81.3789 46.1044 81.3789C45.3232 81.3789 44.7021 81.0781 44.2411 80.4766C43.7841 79.875 43.5556 79.041 43.5556 77.9746C43.5556 77.4199 43.6337 76.9258 43.79 76.4922C43.9501 76.0586 44.165 75.6895 44.4345 75.3848C44.7001 75.0879 45.0087 74.8613 45.3603 74.7051C45.7157 74.5488 46.0829 74.4707 46.4618 74.4707C46.8056 74.4707 47.1103 74.5078 47.3759 74.582C47.6415 74.6523 47.9208 74.7637 48.2138 74.916V72.0801H49.3154V81.1973ZM48.2138 79.5859V75.8301C47.9169 75.6973 47.6513 75.6055 47.4169 75.5547C47.1825 75.5039 46.9267 75.4785 46.6493 75.4785C46.0321 75.4785 45.5517 75.6934 45.2079 76.123C44.8642 76.5527 44.6923 77.1621 44.6923 77.9512C44.6923 78.7285 44.8251 79.3203 45.0907 79.7266C45.3564 80.1289 45.7821 80.3301 46.3681 80.3301C46.6806 80.3301 46.997 80.2617 47.3173 80.125C47.6376 79.9844 47.9364 79.8047 48.2138 79.5859ZM55.0873 75.8535H55.0287C54.8646 75.8145 54.7045 75.7871 54.5482 75.7715C54.3959 75.752 54.2143 75.7422 54.0033 75.7422C53.6635 75.7422 53.3354 75.8184 53.0189 75.9707C52.7025 76.1191 52.3979 76.3125 52.1049 76.5508V81.1973H51.0033V74.6523H52.1049V75.6191C52.5424 75.2676 52.9271 75.0195 53.2592 74.875C53.5951 74.7266 53.9369 74.6523 54.2846 74.6523C54.476 74.6523 54.6146 74.6582 54.7006 74.6699C54.7865 74.6777 54.9154 74.6953 55.0873 74.7227V75.8535ZM60.5194 81.1973H59.4237V80.5C59.3261 80.5664 59.1932 80.6602 59.0253 80.7812C58.8612 80.8984 58.7011 80.9922 58.5448 81.0625C58.3612 81.1523 58.1503 81.2266 57.912 81.2852C57.6737 81.3477 57.3944 81.3789 57.0741 81.3789C56.4843 81.3789 55.9843 81.1836 55.5741 80.793C55.1639 80.4023 54.9589 79.9043 54.9589 79.2988C54.9589 78.8027 55.0643 78.4023 55.2753 78.0977C55.4901 77.7891 55.7948 77.5469 56.1893 77.3711C56.5878 77.1953 57.0663 77.0762 57.6249 77.0137C58.1835 76.9512 58.7831 76.9043 59.4237 76.873V76.7031C59.4237 76.4531 59.3788 76.2461 59.2889 76.082C59.203 75.918 59.078 75.7891 58.9139 75.6953C58.7577 75.6055 58.5702 75.5449 58.3514 75.5137C58.1327 75.4824 57.9042 75.4668 57.6659 75.4668C57.3768 75.4668 57.0546 75.5059 56.6991 75.584C56.3436 75.6582 55.9764 75.7676 55.5975 75.9121H55.5389V74.793C55.7538 74.7344 56.0643 74.6699 56.4706 74.5996C56.8768 74.5293 57.2772 74.4941 57.6718 74.4941C58.1327 74.4941 58.5331 74.5332 58.8729 74.6113C59.2167 74.6855 59.5136 74.8145 59.7636 74.998C60.0096 75.1777 60.1971 75.4102 60.3261 75.6953C60.455 75.9805 60.5194 76.334 60.5194 76.7559V81.1973ZM59.4237 79.5859V77.7637C59.0878 77.7832 58.6913 77.8125 58.2343 77.8516C57.7811 77.8906 57.4218 77.9473 57.1561 78.0215C56.8397 78.1113 56.5839 78.252 56.3886 78.4434C56.1932 78.6309 56.0956 78.8906 56.0956 79.2227C56.0956 79.5977 56.2089 79.8809 56.4354 80.0723C56.662 80.2598 57.0077 80.3535 57.4725 80.3535C57.8593 80.3535 58.2128 80.2793 58.5331 80.1309C58.8534 79.9785 59.1503 79.7969 59.4237 79.5859ZM70.3343 74.6523L68.6293 81.1973H67.6097L65.9281 76.1523L64.2582 81.1973H63.2445L61.5218 74.6523H62.6703L63.8714 79.7207L65.5062 74.6523H66.4144L68.0902 79.7207L69.2269 74.6523H70.3343ZM76.411 81.1973H75.3153V80.5C75.2176 80.5664 75.0848 80.6602 74.9168 80.7812C74.7528 80.8984 74.5926 80.9922 74.4364 81.0625C74.2528 81.1523 74.0418 81.2266 73.8036 81.2852C73.5653 81.3477 73.286 81.3789 72.9657 81.3789C72.3758 81.3789 71.8758 81.1836 71.4657 80.793C71.0555 80.4023 70.8504 79.9043 70.8504 79.2988C70.8504 78.8027 70.9559 78.4023 71.1668 78.0977C71.3817 77.7891 71.6864 77.5469 72.0809 77.3711C72.4793 77.1953 72.9579 77.0762 73.5164 77.0137C74.075 76.9512 74.6746 76.9043 75.3153 76.873V76.7031C75.3153 76.4531 75.2704 76.2461 75.1805 76.082C75.0946 75.918 74.9696 75.7891 74.8055 75.6953C74.6493 75.6055 74.4618 75.5449 74.243 75.5137C74.0243 75.4824 73.7957 75.4668 73.5575 75.4668C73.2684 75.4668 72.9461 75.5059 72.5907 75.584C72.2352 75.6582 71.868 75.7676 71.4891 75.9121H71.4305V74.793C71.6454 74.7344 71.9559 74.6699 72.3621 74.5996C72.7684 74.5293 73.1688 74.4941 73.5633 74.4941C74.0243 74.4941 74.4246 74.5332 74.7645 74.6113C75.1082 74.6855 75.4051 74.8145 75.6551 74.998C75.9012 75.1777 76.0887 75.4102 76.2176 75.6953C76.3465 75.9805 76.411 76.334 76.411 76.7559V81.1973ZM75.3153 79.5859V77.7637C74.9793 77.7832 74.5829 77.8125 74.1258 77.8516C73.6727 77.8906 73.3133 77.9473 73.0477 78.0215C72.7313 78.1113 72.4754 78.252 72.2801 78.4434C72.0848 78.6309 71.9871 78.8906 71.9871 79.2227C71.9871 79.5977 72.1004 79.8809 72.327 80.0723C72.5536 80.2598 72.8993 80.3535 73.3641 80.3535C73.7508 80.3535 74.1043 80.2793 74.4246 80.1309C74.745 79.9785 75.0418 79.7969 75.3153 79.5859ZM79.1654 81.1973H78.0638V72.0801H79.1654V81.1973ZM89.6897 81.1973H88.594V80.5C88.4964 80.5664 88.3636 80.6602 88.1956 80.7812C88.0315 80.8984 87.8714 80.9922 87.7151 81.0625C87.5315 81.1523 87.3206 81.2266 87.0823 81.2852C86.844 81.3477 86.5647 81.3789 86.2444 81.3789C85.6546 81.3789 85.1546 81.1836 84.7444 80.793C84.3343 80.4023 84.1292 79.9043 84.1292 79.2988C84.1292 78.8027 84.2346 78.4023 84.4456 78.0977C84.6604 77.7891 84.9651 77.5469 85.3596 77.3711C85.7581 77.1953 86.2366 77.0762 86.7952 77.0137C87.3538 76.9512 87.9534 76.9043 88.594 76.873V76.7031C88.594 76.4531 88.5491 76.2461 88.4593 76.082C88.3733 75.918 88.2483 75.7891 88.0843 75.6953C87.928 75.6055 87.7405 75.5449 87.5218 75.5137C87.303 75.4824 87.0745 75.4668 86.8362 75.4668C86.5471 75.4668 86.2249 75.5059 85.8694 75.584C85.5139 75.6582 85.1468 75.7676 84.7679 75.9121H84.7093V74.793C84.9241 74.7344 85.2346 74.6699 85.6409 74.5996C86.0471 74.5293 86.4475 74.4941 86.8421 74.4941C87.303 74.4941 87.7034 74.5332 88.0432 74.6113C88.387 74.6855 88.6839 74.8145 88.9339 74.998C89.18 75.1777 89.3675 75.4102 89.4964 75.6953C89.6253 75.9805 89.6897 76.334 89.6897 76.7559V81.1973ZM88.594 79.5859V77.7637C88.2581 77.7832 87.8616 77.8125 87.4046 77.8516C86.9514 77.8906 86.5921 77.9473 86.3264 78.0215C86.01 78.1113 85.7542 78.252 85.5589 78.4434C85.3636 78.6309 85.2659 78.8906 85.2659 79.2227C85.2659 79.5977 85.3792 79.8809 85.6057 80.0723C85.8323 80.2598 86.178 80.3535 86.6429 80.3535C87.0296 80.3535 87.3831 80.2793 87.7034 80.1309C88.0237 79.9785 88.3206 79.7969 88.594 79.5859ZM96.8035 81.1973H95.7019V77.4707C95.7019 77.1699 95.6843 76.8887 95.6492 76.627C95.614 76.3613 95.5496 76.1543 95.4558 76.0059C95.3582 75.8418 95.2175 75.7207 95.0339 75.6426C94.8503 75.5605 94.6121 75.5195 94.3191 75.5195C94.0183 75.5195 93.7039 75.5938 93.3757 75.7422C93.0476 75.8906 92.7332 76.0801 92.4324 76.3105V81.1973H91.3308V74.6523H92.4324V75.3789C92.7761 75.0938 93.1316 74.8711 93.4988 74.7109C93.866 74.5508 94.2429 74.4707 94.6296 74.4707C95.3367 74.4707 95.8757 74.6836 96.2468 75.1094C96.6179 75.5352 96.8035 76.1484 96.8035 76.9492V81.1973ZM103.753 81.1973H102.652V80.5117C102.335 80.7852 102.005 80.998 101.661 81.1504C101.318 81.3027 100.945 81.3789 100.542 81.3789C99.761 81.3789 99.1399 81.0781 98.6789 80.4766C98.2219 79.875 97.9934 79.041 97.9934 77.9746C97.9934 77.4199 98.0715 76.9258 98.2278 76.4922C98.3879 76.0586 98.6028 75.6895 98.8723 75.3848C99.1379 75.0879 99.4465 74.8613 99.7981 74.7051C100.154 74.5488 100.521 74.4707 100.9 74.4707C101.243 74.4707 101.548 74.5078 101.814 74.582C102.079 74.6523 102.359 74.7637 102.652 74.916V72.0801H103.753V81.1973ZM102.652 79.5859V75.8301C102.355 75.6973 102.089 75.6055 101.855 75.5547C101.62 75.5039 101.364 75.4785 101.087 75.4785C100.47 75.4785 99.9895 75.6934 99.6457 76.123C99.302 76.5527 99.1301 77.1621 99.1301 77.9512C99.1301 78.7285 99.2629 79.3203 99.5286 79.7266C99.7942 80.1289 100.22 80.3301 100.806 80.3301C101.118 80.3301 101.435 80.2617 101.755 80.125C102.075 79.9844 102.374 79.8047 102.652 79.5859ZM113.856 79.3105C113.856 79.9082 113.608 80.3984 113.112 80.7812C112.619 81.1641 111.946 81.3555 111.09 81.3555C110.606 81.3555 110.16 81.2988 109.754 81.1855C109.352 81.0684 109.014 80.9414 108.74 80.8047V79.5684H108.799C109.147 79.8301 109.533 80.0391 109.959 80.1953C110.385 80.3477 110.793 80.4238 111.184 80.4238C111.668 80.4238 112.047 80.3457 112.321 80.1895C112.594 80.0332 112.731 79.7871 112.731 79.4512C112.731 79.1934 112.656 78.998 112.508 78.8652C112.36 78.7324 112.074 78.6191 111.653 78.5254C111.496 78.4902 111.291 78.4492 111.037 78.4023C110.787 78.3555 110.559 78.3047 110.352 78.25C109.778 78.0977 109.369 77.875 109.127 77.582C108.889 77.2852 108.77 76.9219 108.77 76.4922C108.77 76.2227 108.824 75.9688 108.934 75.7305C109.047 75.4922 109.217 75.2793 109.444 75.0918C109.662 74.9082 109.94 74.7637 110.276 74.6582C110.615 74.5488 110.994 74.4941 111.412 74.4941C111.803 74.4941 112.197 74.543 112.596 74.6406C112.998 74.7344 113.332 74.8496 113.598 74.9863V76.1641H113.539C113.258 75.957 112.916 75.7832 112.514 75.6426C112.112 75.498 111.717 75.4258 111.33 75.4258C110.928 75.4258 110.588 75.5039 110.311 75.6602C110.033 75.8125 109.895 76.041 109.895 76.3457C109.895 76.6152 109.979 76.8184 110.147 76.9551C110.311 77.0918 110.576 77.2031 110.944 77.2891C111.147 77.3359 111.373 77.3828 111.623 77.4297C111.877 77.4766 112.088 77.5195 112.256 77.5586C112.768 77.6758 113.162 77.877 113.44 78.1621C113.717 78.4512 113.856 78.834 113.856 79.3105ZM120.383 81.1973H119.282V80.4707C118.911 80.7637 118.555 80.9883 118.216 81.1445C117.876 81.3008 117.501 81.3789 117.091 81.3789C116.403 81.3789 115.868 81.1699 115.485 80.752C115.102 80.3301 114.911 79.7129 114.911 78.9004V74.6523H116.012V78.3789C116.012 78.7109 116.028 78.9961 116.059 79.2344C116.091 79.4688 116.157 79.6699 116.258 79.8379C116.364 80.0098 116.501 80.1348 116.669 80.2129C116.837 80.291 117.081 80.3301 117.401 80.3301C117.686 80.3301 117.997 80.2559 118.333 80.1074C118.673 79.959 118.989 79.7695 119.282 79.5391V74.6523H120.383V81.1973ZM127.831 77.875C127.831 78.4219 127.753 78.9141 127.597 79.3516C127.444 79.7891 127.237 80.1562 126.976 80.4531C126.698 80.7617 126.394 80.9941 126.062 81.1504C125.73 81.3027 125.364 81.3789 124.966 81.3789C124.595 81.3789 124.271 81.334 123.993 81.2441C123.716 81.1582 123.443 81.041 123.173 80.8926L123.103 81.1973H122.071V72.0801H123.173V75.3379C123.482 75.084 123.81 74.877 124.157 74.7168C124.505 74.5527 124.896 74.4707 125.329 74.4707C126.103 74.4707 126.712 74.7676 127.157 75.3613C127.607 75.9551 127.831 76.793 127.831 77.875ZM126.694 77.9043C126.694 77.123 126.566 76.5312 126.308 76.1289C126.05 75.7227 125.634 75.5195 125.06 75.5195C124.739 75.5195 124.415 75.5898 124.087 75.7305C123.759 75.8672 123.454 76.0449 123.173 76.2637V80.0137C123.486 80.1543 123.753 80.252 123.976 80.3066C124.202 80.3613 124.458 80.3887 124.743 80.3887C125.353 80.3887 125.829 80.1895 126.173 79.791C126.521 79.3887 126.694 78.7598 126.694 77.9043ZM138.619 81.1973H137.517V77.4707C137.517 77.1895 137.504 76.918 137.476 76.6562C137.453 76.3945 137.4 76.1855 137.318 76.0293C137.228 75.8613 137.099 75.7344 136.931 75.6484C136.763 75.5625 136.521 75.5195 136.205 75.5195C135.896 75.5195 135.588 75.5977 135.279 75.7539C134.97 75.9062 134.662 76.1016 134.353 76.3398C134.365 76.4297 134.375 76.5352 134.382 76.6562C134.39 76.7734 134.394 76.8906 134.394 77.0078V81.1973H133.293V77.4707C133.293 77.1816 133.279 76.9082 133.252 76.6504C133.228 76.3887 133.175 76.1797 133.093 76.0234C133.004 75.8555 132.875 75.7305 132.707 75.6484C132.539 75.5625 132.297 75.5195 131.98 75.5195C131.679 75.5195 131.377 75.5938 131.072 75.7422C130.771 75.8906 130.47 76.0801 130.17 76.3105V81.1973H129.068V74.6523H130.17V75.3789C130.513 75.0938 130.855 74.8711 131.195 74.7109C131.539 74.5508 131.904 74.4707 132.291 74.4707C132.736 74.4707 133.113 74.5645 133.422 74.752C133.734 74.9395 133.966 75.1992 134.119 75.5312C134.564 75.1562 134.97 74.8867 135.338 74.7227C135.705 74.5547 136.097 74.4707 136.515 74.4707C137.234 74.4707 137.763 74.6895 138.103 75.127C138.447 75.5605 138.619 76.168 138.619 76.9492V81.1973ZM141.443 73.5566H140.201V72.4141H141.443V73.5566ZM141.373 81.1973H140.272V74.6523H141.373V81.1973ZM146.471 81.1387C146.264 81.1934 146.038 81.2383 145.792 81.2734C145.549 81.3086 145.333 81.3262 145.141 81.3262C144.473 81.3262 143.965 81.1465 143.618 80.7871C143.27 80.4277 143.096 79.8516 143.096 79.0586V75.5781H142.352V74.6523H143.096V72.7715H144.198V74.6523H146.471V75.5781H144.198V78.5605C144.198 78.9043 144.206 79.1738 144.221 79.3691C144.237 79.5605 144.292 79.7402 144.385 79.9082C144.471 80.0645 144.588 80.1797 144.737 80.2539C144.889 80.3242 145.12 80.3594 145.428 80.3594C145.608 80.3594 145.796 80.334 145.991 80.2832C146.186 80.2285 146.327 80.1836 146.413 80.1484H146.471V81.1387Z" fill="#384F69"/>
<path d="M309.333 135.427C309.333 135.427 349.709 135.804 351.093 135.427C352.476 135.05 363.409 137.289 363.793 126.11C364.169 115.069 363.967 68.4121 363.793 66.7023C363.619 64.9925 363.858 54.9367 350.122 54.9729C336.871 54.9729 264.191 54.8208 256.598 54.9729C246.658 55.1613 244.347 57.5955 244.282 67.8108C244.217 78.026 244.006 105.701 244.006 105.701C243.03 106.035 242.152 106.608 241.452 107.367C240.752 108.126 240.253 109.047 240 110.048C239.536 111.78 241.884 129.095 244.144 135.405C244.869 137.332 248.339 139.216 253.997 138.035C263.524 136.043 275.442 134.413 275.442 134.413C275.579 135.586 276.514 135.47 277.688 135.47L309.333 135.427Z" fill="white"/>
<path d="M364.205 69.1979C364.205 64.5032 364.205 54.6358 350.679 54.6358H256.662C251.692 54.6358 244.172 54.5633 244.1 65.1263V81.3837C244.113 81.4848 244.163 81.5775 244.239 81.6447C244.316 81.7119 244.414 81.7489 244.516 81.7489C244.618 81.7489 244.717 81.7119 244.793 81.6447C244.87 81.5775 244.919 81.4848 244.933 81.3837C244.933 81.3113 244.795 76.9644 244.933 67.9228C249.765 67.9228 298.146 67.6475 363.516 67.1621C363.516 67.9228 363.582 121.346 363.582 124.454C363.582 128.178 362.749 130.801 361.031 132.424C358.134 135.242 353.164 135.155 347.846 135.119L309.774 134.996C309.325 134.996 309.108 135.981 309.774 135.981L350.635 136.053C355.054 136.053 359.003 135.72 361.611 133.155C363.487 131.308 364.509 128.468 364.437 124.599C364.379 121.23 364.205 77.6237 364.205 69.1979ZM244.86 67.0245V65.0901C244.897 60.7432 246.237 57.9684 248.932 56.5339C251.279 55.2805 254.25 55.3602 256.662 55.3602H350.679C361.169 55.3602 363.031 61.4314 363.379 66.2637C298.081 66.7854 249.693 66.9882 244.86 67.0607V67.0245Z" fill="#414141"/>
<path d="M341.838 59.9495C341.737 59.9362 341.645 59.8866 341.577 59.8099C341.51 59.7333 341.473 59.6349 341.473 59.533C341.473 59.4311 341.51 59.3326 341.577 59.256C341.645 59.1793 341.737 59.1297 341.838 59.1164C341.911 59.1164 348.185 59.0512 355.227 59.1164C355.286 59.1085 355.346 59.1135 355.404 59.1308C355.461 59.1482 355.514 59.1775 355.559 59.217C355.604 59.2564 355.64 59.305 355.665 59.3595C355.689 59.414 355.702 59.4731 355.702 59.533C355.702 59.5928 355.689 59.6519 355.665 59.7064C355.64 59.7609 355.604 59.8095 355.559 59.849C355.514 59.8884 355.461 59.9178 355.404 59.9351C355.346 59.9525 355.286 59.9574 355.227 59.9495C348.185 59.8771 341.838 59.9495 341.838 59.9495Z" fill="#414141"/>
<path d="M341.838 63.7557C341.737 63.7423 341.645 63.6927 341.577 63.6161C341.51 63.5395 341.473 63.441 341.473 63.3391C341.473 63.2372 341.51 63.1388 341.577 63.0621C341.645 62.9855 341.737 62.9359 341.838 62.9225C341.911 62.9225 348.185 62.8573 355.227 62.9225C355.286 62.9147 355.346 62.9196 355.404 62.937C355.461 62.9543 355.514 62.9837 355.559 63.0231C355.604 63.0626 355.64 63.1111 355.665 63.1656C355.689 63.2201 355.702 63.2793 355.702 63.3391C355.702 63.3989 355.689 63.4581 355.665 63.5126C355.64 63.5671 355.604 63.6157 355.559 63.6551C355.514 63.6945 355.461 63.7239 355.404 63.7413C355.346 63.7586 355.286 63.7635 355.227 63.7557C348.185 63.6832 341.838 63.7557 341.838 63.7557Z" fill="#414141"/>
<path d="M341.84 61.882C341.73 61.882 341.625 61.8385 341.548 61.7611C341.47 61.6836 341.427 61.5786 341.427 61.4691C341.427 61.3596 341.47 61.2545 341.548 61.1771C341.625 61.0996 341.73 61.0561 341.84 61.0561C341.912 61.0561 348.186 60.9837 355.228 61.0561C355.336 61.0628 355.438 61.1082 355.515 61.1841C355.593 61.26 355.64 61.3612 355.648 61.4691C355.641 61.5775 355.595 61.6796 355.517 61.7558C355.44 61.832 355.337 61.8769 355.228 61.882C348.186 61.7806 341.84 61.882 341.84 61.882Z" fill="#414141"/>
<path d="M254.662 61.1939C254.655 61.4664 254.543 61.7257 254.35 61.9184C254.158 62.1111 253.898 62.2226 253.626 62.2299C253.332 62.2206 253.053 62.0976 252.847 61.8868C252.642 61.6761 252.526 61.394 252.525 61.0997C252.522 60.9629 252.546 60.8268 252.597 60.6998C252.648 60.5727 252.725 60.4574 252.821 60.3606C252.918 60.2638 253.034 60.1875 253.161 60.1365C253.288 60.0855 253.424 60.0607 253.561 60.0637C253.851 60.0831 254.124 60.2093 254.328 60.4179C254.531 60.6265 254.65 60.9029 254.662 61.1939Z" fill="#414141"/>
<path d="M259.907 61.1974C259.9 61.4699 259.788 61.7292 259.596 61.9219C259.403 62.1146 259.144 62.2261 258.871 62.2334C258.577 62.2241 258.298 62.1011 258.093 61.8903C257.887 61.6796 257.772 61.3975 257.77 61.1032C257.772 60.8367 257.879 60.5817 258.067 60.3932C258.256 60.2048 258.511 60.0981 258.777 60.0962C259.068 60.1081 259.344 60.2271 259.553 60.4303C259.762 60.6336 259.888 60.9068 259.907 61.1974Z" fill="#414141"/>
<path d="M265.015 61.1939C265.008 61.4664 264.897 61.7257 264.704 61.9184C264.511 62.1111 264.252 62.2226 263.979 62.2299C263.685 62.2206 263.406 62.0976 263.201 61.8868C262.996 61.6761 262.88 61.394 262.878 61.0997C262.875 60.9629 262.9 60.8268 262.951 60.6998C263.002 60.5727 263.078 60.4574 263.175 60.3606C263.272 60.2638 263.387 60.1875 263.514 60.1365C263.641 60.0855 263.777 60.0607 263.914 60.0637C264.205 60.0831 264.478 60.2093 264.681 60.4179C264.885 60.6265 265.004 60.9029 265.015 61.1939Z" fill="#414141"/>
<path d="M285.263 101.114C271.65 100.325 260.102 102.027 247.641 104.469C243.076 105.36 239.765 105.918 239.91 112.351C240.041 118.024 242.41 130.956 243.395 133.904C244.533 137.302 246.293 139.142 251.937 138.621C258.573 138.005 277.294 134.368 277.446 134.332C277.498 134.323 277.547 134.304 277.591 134.276C277.635 134.248 277.673 134.211 277.702 134.167C277.731 134.124 277.751 134.075 277.76 134.023C277.77 133.972 277.769 133.919 277.757 133.868C277.736 133.766 277.676 133.676 277.589 133.618C277.503 133.559 277.396 133.537 277.294 133.557C277.105 133.593 258.457 137.223 251.864 137.831C250.312 138.054 248.729 137.923 247.235 137.447C248.488 135.194 254.632 124.341 258.638 120.168C261.536 121.617 265.985 123.552 269.259 123.298C274.736 122.871 282.438 106.91 282.764 106.229C282.809 106.136 282.815 106.029 282.781 105.931C282.747 105.833 282.676 105.753 282.583 105.707C282.536 105.684 282.485 105.67 282.433 105.667C282.381 105.663 282.329 105.67 282.28 105.687C282.231 105.704 282.185 105.73 282.146 105.765C282.108 105.8 282.076 105.842 282.054 105.889C281.974 106.055 274.222 122.117 269.194 122.508C262.413 123.037 248.184 113.307 241.511 108.019C242.605 106.215 244.75 105.794 247.785 105.237C261.254 102.744 270.542 101.042 285.22 101.889C285.271 101.892 285.322 101.885 285.371 101.868C285.42 101.851 285.464 101.825 285.503 101.79C285.541 101.756 285.572 101.715 285.595 101.668C285.617 101.622 285.63 101.571 285.633 101.52C285.636 101.469 285.628 101.418 285.611 101.37C285.594 101.321 285.568 101.277 285.533 101.239C285.499 101.202 285.457 101.171 285.411 101.15C285.364 101.128 285.314 101.116 285.263 101.114ZM257.907 119.784C253.748 124.233 247.713 134.94 246.51 137.107C245.018 136.259 244.576 134.933 244.062 133.397C243.373 131.354 240.838 118.48 240.7 112.329C240.622 111.118 240.78 109.902 241.164 108.75C242.634 109.909 250.35 115.865 257.907 119.784Z" fill="#414141"/>
<path d="M240.724 105.513C254.268 101.494 268.36 99.6287 282.483 99.9849C283.045 99.3093 283.643 98.6637 284.273 98.0505C284.273 98.0505 257.213 80.2644 253.562 78.656C250.446 77.294 248.635 79.3371 247.693 80.8295C246.969 81.9235 237.268 95.3192 236.507 98.362C235.747 101.405 237.268 103.231 240.724 105.513Z" fill="#005BC3"/>
<path d="M259.733 101.049C257.98 98.8754 251.249 81.1835 250.271 78.5899C250.253 78.5408 250.225 78.4959 250.189 78.4577C250.153 78.4195 250.11 78.3888 250.062 78.3672C250.014 78.3457 249.963 78.3338 249.91 78.3322C249.858 78.3306 249.806 78.3394 249.757 78.358C249.709 78.3765 249.665 78.4042 249.627 78.4397C249.59 78.4753 249.56 78.5178 249.539 78.5649C249.518 78.612 249.507 78.6628 249.506 78.7144C249.505 78.7659 249.514 78.8171 249.532 78.8652C249.742 79.4303 253.198 88.5805 255.995 95.1516C250.344 95.695 237.644 99.8607 236.434 100.078C236.368 100.071 236.302 100.08 236.241 100.106C236.181 100.131 236.127 100.171 236.086 100.222C236.045 100.273 236.017 100.334 236.006 100.399C235.995 100.464 236 100.53 236.021 100.592C236.166 101.027 236.202 101.005 239.766 99.9549C244.236 98.6364 252.459 96.2093 256.35 95.9123C257.108 97.869 258.041 99.7531 259.139 101.542C259.209 101.602 259.298 101.636 259.391 101.637C259.483 101.638 259.573 101.606 259.645 101.547C259.716 101.488 259.764 101.405 259.78 101.314C259.796 101.223 259.78 101.129 259.733 101.049Z" fill="white"/>
<path d="M315.818 83.4183C315.173 80.9912 311.195 67.61 307.848 61.9518C304.501 56.2935 297.901 50.8382 292.627 54.5765C292.555 54.6212 292.475 54.6507 292.392 54.6632C292.308 54.6756 292.223 54.6708 292.141 54.649C290.968 54.3012 286.273 53.3304 283.035 56.721C274.732 65.4148 278.688 80.5348 275.304 89.5039C275.279 89.5786 275.27 89.6577 275.277 89.7361C275.285 89.8145 275.309 89.8905 275.348 89.9589C275.387 90.0273 275.44 90.0868 275.504 90.1332C275.567 90.1797 275.64 90.2121 275.717 90.2284C279.514 91.3296 300.632 96.8575 315.615 84.0196C315.699 83.9462 315.762 83.852 315.797 83.7463C315.833 83.6407 315.84 83.5275 315.818 83.4183Z" fill="#7BD2FF"/>
<path d="M345.635 72.3737C345.711 71.3223 346.041 70.3051 346.599 69.4105C347.57 67.7515 349.207 63.5422 349.019 61.1949C348.866 59.333 351.844 54.2253 350.678 53.8124C349.707 53.4646 346.947 59.3982 346.947 59.3982L346.048 59.2605C346.048 59.2605 346.881 50.9072 345.57 50.842C344.259 50.7768 343.911 59.1229 343.911 59.1229L342.665 59.333C342.665 59.333 340.941 49.8712 339.767 49.806C338.593 49.7408 340.318 59.9488 340.318 59.9488L339.354 60.2241C339.354 60.2241 336.297 52.0012 334.848 52.4069C332.841 53.0082 338.854 64.9839 338.159 65.3824C337.463 65.7809 334.094 62.2816 333.261 63.3104C332.022 64.839 336.521 67.7805 339.542 70.0119C340.093 70.4176 340.021 71.7361 339.955 72.562L345.635 72.3737Z" fill="white"/>
<path d="M302.971 127.113L301.174 134.843C301.897 136.35 302.543 137.893 303.108 139.465C303.441 140.574 304.767 144.08 305.456 143.95C306.144 143.819 306.18 142.849 306.18 142.849C306.18 142.849 307.426 143.573 308.049 141.878C308.049 141.878 309.701 142.602 309.426 139.328C309.426 139.328 311.085 139.118 309.288 134.148C309.536 134.26 309.818 134.273 310.075 134.184C310.333 134.095 310.546 133.911 310.672 133.669C311.07 132.945 309.223 129.388 305.905 129.322C305.08 128.402 304.083 127.651 302.971 127.113Z" fill="white"/>
<path d="M298.703 94.8789C298.703 94.8789 306.223 99.3707 307.672 91.7057L306.013 87.9094C306.013 87.9094 312.157 82.838 308.02 73.8978C308.02 73.8978 310.295 71.7244 309.056 69.0003C308.686 68.2292 308.093 67.5866 307.355 67.1553C306.616 66.724 305.765 66.5238 304.912 66.5805C304.912 66.5805 302.702 60.3789 294.211 59.4009C294.211 59.4009 292.835 68.8627 286.14 72.5213L287.314 76.7306C287.314 76.7306 283.793 76.7958 283.445 79.6937C283.098 82.5916 287.379 83.4248 289.176 82.3163C289.176 82.3163 291.661 89.0178 297.732 89.8437C297.732 89.7713 298.841 93.7777 298.703 94.8789Z" fill="white"/>
<path d="M292.691 80.9676C292.696 81.1325 292.747 81.2937 292.84 81.4417C292.934 81.5898 293.068 81.7216 293.236 81.8296C293.403 81.9375 293.6 82.0193 293.815 82.0703C294.031 82.1213 294.259 82.1403 294.489 82.1263C294.718 82.1123 294.943 82.0656 295.15 81.9888C295.357 81.9121 295.543 81.8068 295.696 81.6793C295.849 81.5518 295.967 81.4046 296.042 81.2463C296.116 81.088 296.147 80.9218 296.132 80.7575C296.127 80.5925 296.076 80.4313 295.983 80.2833C295.889 80.1352 295.755 80.0034 295.587 79.8954C295.42 79.7875 295.223 79.7057 295.007 79.6547C294.792 79.6037 294.563 79.5847 294.334 79.5987C294.105 79.6127 293.88 79.6594 293.673 79.7362C293.465 79.813 293.28 79.9182 293.127 80.0457C292.973 80.1732 292.856 80.3204 292.781 80.4787C292.706 80.637 292.676 80.8032 292.691 80.9676Z" fill="#FDAF31"/>
<path d="M306.02 76.5593C306.094 76.6969 306.204 76.8126 306.344 76.8996C306.484 76.9866 306.651 77.0431 306.835 77.066C307.019 77.0888 307.216 77.0774 307.415 77.0325C307.614 76.9875 307.811 76.91 307.993 76.8043C308.176 76.6987 308.342 76.567 308.48 76.4172C308.619 76.2673 308.727 76.1023 308.799 75.9317C308.871 75.7611 308.905 75.5883 308.9 75.4237C308.894 75.259 308.849 75.1057 308.767 74.9727C308.691 74.8375 308.58 74.7243 308.44 74.6394C308.3 74.5545 308.134 74.4997 307.951 74.4782C307.768 74.4566 307.572 74.4687 307.375 74.5138C307.178 74.5588 306.983 74.636 306.801 74.7407C306.62 74.8455 306.456 74.9758 306.318 75.1241C306.18 75.2725 306.072 75.4359 305.999 75.605C305.926 75.7741 305.891 75.9454 305.894 76.1092C305.898 76.273 305.94 76.426 306.019 76.5593" fill="#FDAF31"/>
<path d="M347.02 72.0272H346.049C346.266 70.8132 346.688 69.6447 347.295 68.5714L347.708 67.6803C348.69 65.4517 349.273 63.0683 349.432 60.6383C349.889 58.9213 352.127 53.944 350.881 53.321C350.812 53.27 350.732 53.2367 350.648 53.2241C350.563 53.2115 350.476 53.2199 350.396 53.2485C349.432 53.589 347.433 57.3926 346.737 58.9792L346.397 58.914C346.462 58.1895 346.614 56.6319 346.672 55.1177C346.831 51.1113 346.324 50.4882 345.708 50.423C345.513 50.4102 345.318 50.4583 345.15 50.5607C344.136 51.3721 343.665 56.6246 343.426 58.7764L342.803 58.8416C342.528 56.842 341.492 50.4955 340.181 49.5247C340.095 49.4498 339.993 49.395 339.883 49.3643C339.773 49.3336 339.658 49.3277 339.545 49.3472C339.433 49.3666 339.326 49.4108 339.233 49.4766C339.14 49.5424 339.063 49.6281 339.007 49.7275C338.022 51.0968 339.289 57.6969 339.731 59.7399L339.521 59.8051C339.318 59.1893 338.797 57.878 338.145 56.4942C336.42 52.6979 335.522 52.285 335.174 52.2125C334.942 52.1167 334.682 52.1167 334.45 52.2125C332.834 53.0022 335.297 58.1316 337.761 64.92C337.505 64.7538 337.262 64.5673 337.036 64.3621C335.66 63.3261 333.791 61.8772 332.689 63.1885C332.585 63.2972 332.511 63.4312 332.474 63.5773C332.437 63.7233 332.439 63.8765 332.479 64.0216C332.791 66.311 339.123 69.9914 339.384 70.5058C339.599 71.0543 339.647 71.6543 339.521 72.23C338.866 72.2284 338.214 72.3236 337.587 72.5126C337.449 72.8531 336.073 94.5949 336.073 94.5949C331.378 91.4941 319.366 86.9878 313.57 88.3861C311.503 88.8986 309.556 89.8118 307.84 91.0739C307.492 90.248 306.804 88.7266 306.391 87.8355C309.441 85.5026 311.121 79.9675 308.39 73.9616C308.824 73.5527 309.17 73.06 309.408 72.5133C309.646 71.9666 309.77 71.3773 309.774 70.7811C309.701 66.4994 305.289 66.369 305.217 66.369C302.246 59.4646 294.176 59.0517 294.103 59.0517C294.004 59.0435 293.905 59.0745 293.828 59.1381C293.751 59.2017 293.701 59.2928 293.69 59.3922C293.69 59.4646 293.031 68.4048 285.96 72.1648C285.894 72.2116 285.841 72.2736 285.804 72.3455C285.768 72.4174 285.749 72.4971 285.75 72.5778C286.098 73.8239 286.583 75.6134 286.786 76.4466C285.69 76.5276 284.65 76.9624 283.823 77.6854C283.487 78.0382 283.243 78.4676 283.111 78.9364C282.979 79.4051 282.963 79.899 283.065 80.3751C283.167 80.8513 283.384 81.2953 283.696 81.6687C284.009 82.0421 284.408 82.3335 284.859 82.5177C286.118 83.0199 287.518 83.0431 288.793 82.5829C289.068 83.206 291.894 89.212 297.349 89.9727C297.487 90.6972 297.972 92.5953 298.175 93.9066C283.96 87.0747 263.269 129.566 276.984 136.564C279.679 137.941 300.66 135.84 301.355 135.731C303.036 139.441 303.768 144.157 305.427 144.157C305.905 144.084 306.151 143.606 306.325 143.186C306.515 143.249 306.716 143.272 306.914 143.253C307.113 143.235 307.306 143.175 307.481 143.079C307.656 142.982 307.809 142.85 307.931 142.692C308.052 142.533 308.139 142.351 308.187 142.157C308.348 142.212 308.519 142.227 308.687 142.202C308.854 142.176 309.013 142.112 309.151 142.012C309.875 141.542 309.875 140.223 309.774 139.527C311.085 139.093 310.607 136.767 310.187 135.449H332.813C332.088 130.413 324.336 106.955 324.336 106.955C324.336 106.955 337.978 115.873 346.976 110.954C354.721 106.737 349.78 72.0924 347.02 72.0272ZM305.398 67.0572C306.114 67.0572 306.815 67.2697 307.411 67.6677C308.006 68.0658 308.471 68.6315 308.745 69.2934C309.019 69.9553 309.091 70.6837 308.951 71.3863C308.811 72.089 308.466 72.7345 307.959 73.2411C307.453 73.7477 306.807 74.0927 306.105 74.2325C305.402 74.3722 304.674 74.3005 304.012 74.0263C303.35 73.7522 302.784 73.2879 302.386 72.6922C301.988 72.0965 301.776 71.3961 301.776 70.6797C301.776 69.7189 302.157 68.7975 302.837 68.1182C303.516 67.4389 304.437 67.0572 305.398 67.0572ZM298.153 89.6249C298.088 89.4873 298.015 89.3496 297.813 89.3496C292.147 88.6251 289.459 82.1048 289.459 82.0323C289.43 81.9798 289.39 81.934 289.341 81.8981C289.293 81.8622 289.237 81.8369 289.179 81.8239C289.12 81.8109 289.059 81.8105 289 81.8227C288.941 81.8349 288.885 81.8594 288.836 81.8947C288.286 82.3076 286.359 82.5105 285.04 81.8947C283.25 81.0615 284.004 78.7866 284.489 78.3737C285.453 77.3377 287.322 77.2725 287.387 77.2725C287.612 77.2725 287.844 77.0116 287.735 76.7871C287.626 76.5625 286.902 73.7515 286.699 72.7879C288.556 71.7659 290.104 70.2648 291.184 68.441C292.269 68.1222 293.436 68.2472 294.429 68.7887C294.474 68.8172 294.524 68.8363 294.577 68.8448C294.629 68.8533 294.683 68.8511 294.734 68.8382C294.786 68.8253 294.834 68.8021 294.876 68.7699C294.919 68.7378 294.954 68.6973 294.98 68.6511C295.012 68.6074 295.034 68.5571 295.044 68.504C295.055 68.4509 295.053 68.3961 295.04 68.3436C295.027 68.291 295.002 68.242 294.968 68.2C294.934 68.158 294.891 68.124 294.842 68.1005C293.923 67.5769 292.852 67.3827 291.807 67.5499C293.096 65.1761 294.003 62.6137 294.495 59.9573C297.667 60.2859 300.613 61.756 302.783 64.0941C302.122 64.2345 301.506 64.5344 300.989 64.9675C300.471 65.4007 300.067 65.9539 299.812 66.5791C299.791 66.6244 299.78 66.6736 299.78 66.7235C299.779 66.7734 299.789 66.8229 299.809 66.8687C299.829 66.9145 299.858 66.9556 299.895 66.9894C299.931 67.0231 299.975 67.0487 300.022 67.0645C300.225 67.1297 300.5 66.992 300.5 66.8544C300.5 66.7167 301.334 64.7823 303.333 64.7823C303.674 65.2677 304.094 65.8184 304.434 66.3762C300.435 67.3398 300.986 71.6215 301.124 72.0344C300.701 72.0923 300.285 72.1844 299.877 72.3097C299.537 71.3462 299.102 70.1798 298.711 69.064C298.681 68.9648 298.613 68.8809 298.523 68.8297C298.433 68.7785 298.326 68.7638 298.226 68.7887C298.175 68.8021 298.128 68.8254 298.087 68.8572C298.046 68.8889 298.012 68.9285 297.986 68.9737C297.961 69.0189 297.944 69.0687 297.938 69.1203C297.932 69.1719 297.936 69.2242 297.95 69.2741C298.291 70.3102 298.675 71.4476 299.124 72.5198C298.457 72.7921 297.847 73.1878 297.327 73.6863C296.967 72.9079 296.393 72.2481 295.672 71.7837C294.951 71.3193 294.113 71.0696 293.256 71.0636C292.382 71.0636 291.527 71.3228 290.8 71.8084C290.074 72.294 289.507 72.9842 289.173 73.7918C288.838 74.5993 288.751 75.4879 288.921 76.3452C289.092 77.2024 289.513 77.9899 290.131 78.6079C290.749 79.226 291.536 79.6469 292.393 79.8174C293.251 79.9879 294.139 79.9004 294.947 79.5659C295.754 79.2314 296.445 78.665 296.93 77.9382C297.416 77.2115 297.675 76.3571 297.675 75.483C297.661 75.1342 297.615 74.7874 297.537 74.447C298.034 73.8947 298.655 73.4678 299.349 73.2009C299.613 73.9726 299.961 74.7135 300.385 75.4105C300.66 75.6858 302.181 75.6858 302.319 75.6858C302.062 76.2584 301.761 76.8106 301.421 77.3377C301.39 77.3824 301.369 77.4331 301.359 77.4865C301.349 77.5399 301.351 77.5948 301.364 77.6476C301.377 77.7003 301.401 77.7496 301.434 77.7924C301.468 77.8351 301.51 77.8703 301.558 77.8955C301.65 77.9473 301.759 77.9619 301.861 77.9363C301.963 77.9107 302.052 77.8468 302.109 77.7579C303.869 74.8599 303.29 74.9903 301.834 74.8599C301.483 74.8563 301.135 74.8076 300.798 74.715C300.495 74.1449 300.253 73.5453 300.073 72.9256C300.473 72.7723 300.898 72.6914 301.326 72.6865C301.609 73.2465 302.008 73.7398 302.497 74.1333C302.986 74.5269 303.553 74.8117 304.16 74.9687C304.768 75.1257 305.402 75.1513 306.02 75.0439C306.638 74.9364 307.226 74.6984 307.745 74.3455C308.809 76.7358 309.163 79.3812 308.767 81.9671C307.803 87.4153 303.804 88.2484 303.594 88.2484C303.494 88.2827 303.407 88.347 303.345 88.4325C303.282 88.5181 303.248 88.6208 303.246 88.7266C303.267 88.822 303.319 88.9079 303.393 88.9708C303.468 89.0338 303.562 89.0701 303.659 89.0743C304.384 88.8929 305.081 88.6151 305.731 88.2484C306.217 89.3496 307.043 91.2116 307.253 91.697C307.123 92.4128 306.832 93.0896 306.401 93.6759C305.971 94.2622 305.412 94.7425 304.768 95.0803C302.63 96.1308 299.798 95.0079 299.037 94.6673C298.979 93.2836 298.146 89.7626 298.146 89.6249H298.153ZM296.972 75.5844C296.972 76.3009 296.76 77.0012 296.362 77.5969C295.964 78.1926 295.398 78.6569 294.736 78.9311C294.074 79.2053 293.346 79.277 292.643 79.1372C291.94 78.9975 291.295 78.6525 290.788 78.1459C290.282 77.6393 289.937 76.9938 289.797 76.2911C289.657 75.5884 289.729 74.8601 290.003 74.1982C290.277 73.5363 290.742 72.9705 291.337 72.5725C291.933 72.1744 292.633 71.962 293.35 71.962C294.306 71.9769 295.219 72.3634 295.895 73.0395C296.571 73.7156 296.957 74.6283 296.972 75.5844ZM278.86 125.002C278.804 125.026 278.743 125.037 278.683 125.034C278.622 125.03 278.563 125.012 278.51 124.981C278.457 124.95 278.413 124.907 278.38 124.856C278.348 124.804 278.328 124.745 278.322 124.685C278.317 124.624 278.326 124.563 278.349 124.506C278.372 124.45 278.408 124.399 278.454 124.36C278.5 124.32 278.555 124.292 278.614 124.277C278.674 124.263 278.736 124.263 278.795 124.277C279.07 124.277 281.142 124.074 284.105 123.799C285.692 117.445 288.872 109.027 288.872 108.954C288.909 108.858 288.982 108.78 289.076 108.738C289.17 108.696 289.276 108.693 289.372 108.73C289.468 108.766 289.546 108.839 289.588 108.933C289.63 109.027 289.633 109.133 289.597 109.229C289.597 109.302 286.489 117.445 284.902 123.719C290.974 123.241 299.812 122.756 303.739 123.582C303.84 123.617 303.927 123.683 303.989 123.77C304.051 123.856 304.085 123.96 304.087 124.067C304.087 124.132 303.811 125.581 303.666 126.204C303.622 126.277 303.555 126.333 303.476 126.364C303.397 126.395 303.31 126.399 303.228 126.376C303.146 126.353 303.074 126.304 303.022 126.237C302.971 126.169 302.942 126.086 302.942 126.001C303.097 125.458 303.21 124.903 303.283 124.342C296.835 123.103 279.063 124.9 278.889 124.965L278.86 125.002ZM309.643 138.948C308.862 136.32 307.52 133.892 305.71 131.833C305.636 131.76 305.536 131.72 305.432 131.72C305.328 131.721 305.228 131.763 305.155 131.837C305.082 131.911 305.042 132.011 305.042 132.115C305.043 132.219 305.085 132.318 305.159 132.391C305.159 132.391 308.245 135.76 308.955 139.564C309.325 141.563 308.47 141.737 308.332 141.636C307.608 137.774 304.811 133.63 304.71 133.427C304.652 133.34 304.563 133.277 304.461 133.251C304.359 133.226 304.252 133.24 304.159 133.29C304.075 133.351 304.015 133.439 303.99 133.54C303.965 133.641 303.976 133.747 304.021 133.84C304.021 133.905 306.919 138.115 307.644 141.81C307.571 142.773 306.811 142.708 306.608 142.636C306.26 139.115 303.913 135.456 303.848 135.318C303.785 135.234 303.695 135.174 303.594 135.149C303.492 135.123 303.384 135.135 303.29 135.181C303.206 135.242 303.146 135.33 303.121 135.431C303.096 135.532 303.107 135.638 303.152 135.731C303.152 135.804 305.499 139.462 305.775 142.846C305.71 143.947 304.797 143.121 303.775 140.013C303.272 138.219 302.578 136.485 301.703 134.84C302.254 132.42 303.152 127.863 303.152 127.863C303.29 127.863 305.92 128.798 308.397 133.391C310.651 137.629 309.672 138.912 309.672 138.912L309.643 138.948ZM310.267 133.63C310.078 133.834 309.819 133.959 309.542 133.978C308.874 132.367 307.913 130.893 306.709 129.631C310.02 130.768 310.708 133.181 310.296 133.594L310.267 133.63ZM340.362 72.2011C340.497 71.4581 340.374 70.6912 340.014 70.0276C339.347 69.3611 332.631 65.0432 333.254 63.9564C333.878 62.8697 335.428 64.2317 336.565 64.9924C337.464 65.7169 338.014 66.0937 338.427 65.8184C338.84 65.543 338.79 65.0504 337.326 61.3338C336.645 59.6023 335.877 57.5954 335.392 55.9436C334.602 53.3789 334.566 53.1181 334.906 52.9805C335.739 52.5675 338.123 57.7983 339.05 60.4354C339.091 60.5271 339.161 60.6032 339.248 60.6527C339.335 60.7022 339.436 60.7226 339.536 60.7107L340.434 60.5006C340.534 60.4735 340.619 60.4079 340.67 60.3183C340.722 60.2288 340.736 60.1224 340.709 60.0225C340.709 60.0225 340.21 57.6751 339.876 55.2554C339.304 51.0461 339.739 50.2854 339.811 50.184C339.949 50.2492 340.536 50.7346 341.398 54.8062C341.869 57.0883 342.122 59.3632 342.122 59.4284C342.131 59.529 342.18 59.622 342.257 59.6871C342.334 59.7522 342.434 59.7842 342.535 59.7761L343.846 59.6385C343.893 59.6406 343.939 59.633 343.982 59.6162C344.025 59.5995 344.064 59.5739 344.097 59.5412C344.13 59.5085 344.155 59.4693 344.172 59.4262C344.189 59.3831 344.196 59.337 344.194 59.2907C344.535 54.9438 345.158 51.8358 345.571 51.3214C345.984 52.0459 345.846 55.8712 345.505 59.2907C345.497 59.3904 345.528 59.4892 345.592 59.5663C345.656 59.6434 345.747 59.6927 345.846 59.7037L346.817 59.8414C346.898 59.8514 346.98 59.8375 347.054 59.8015C347.127 59.7654 347.188 59.7088 347.23 59.6385C348.635 56.7406 349.852 54.7337 350.403 54.1831C350.403 55.5379 348.7 59.8124 348.541 60.6021C348.092 67.3543 345.505 68.4917 345.158 71.991C343.774 72.0272 341.912 72.0924 340.391 72.1648L340.362 72.2011Z" fill="#414141"/>
<path d="M303.694 72.5172C303.794 72.5252 303.895 72.5024 303.981 72.4519C304.068 72.4014 304.137 72.3256 304.18 72.2347C304.33 71.5129 304.718 70.8624 305.281 70.387C305.845 69.9115 306.551 69.6387 307.288 69.612C307.395 69.6052 307.496 69.5595 307.572 69.4835C307.648 69.4075 307.694 69.3064 307.701 69.1991C307.692 69.0923 307.646 68.9921 307.571 68.9163C307.495 68.8406 307.395 68.7944 307.288 68.7861C304.115 68.7861 303.419 71.9594 303.419 72.0318C303.394 72.1326 303.409 72.2391 303.46 72.3294C303.511 72.4197 303.595 72.4869 303.694 72.5172Z" fill="#414141"/>
<path d="M290.488 75.2056C290.441 75.2327 290.399 75.2689 290.365 75.3122C290.332 75.3554 290.307 75.4049 290.293 75.4577C290.278 75.5105 290.274 75.5656 290.281 75.6199C290.288 75.6743 290.305 75.7267 290.333 75.7743C290.36 75.8219 290.396 75.8636 290.439 75.8972C290.482 75.9308 290.532 75.9555 290.585 75.97C290.637 75.9844 290.693 75.9883 290.747 75.9815C290.801 75.9747 290.854 75.9572 290.901 75.9301C291.408 75.5947 291.97 75.3496 292.56 75.2056C293.09 75.0604 293.646 75.0412 294.185 75.1493C294.723 75.2575 295.229 75.4902 295.661 75.8286C295.734 75.8938 295.799 75.8938 295.936 75.8938C295.991 75.8931 296.044 75.8803 296.093 75.8565C296.142 75.8328 296.185 75.7985 296.219 75.7562C296.255 75.7172 296.282 75.6708 296.298 75.6203C296.313 75.5698 296.318 75.5165 296.311 75.464C296.304 75.4115 296.286 75.3611 296.258 75.3165C296.229 75.2718 296.191 75.234 296.147 75.2056C293.662 73.1335 290.488 75.2056 290.488 75.2056Z" fill="#414141"/>
<path d="M303.951 78.7904C302.074 79.3048 298.633 80.3118 298.633 80.3118C298.285 80.3843 298.358 80.7248 298.358 80.8624C298.619 81.4573 299.042 81.967 299.579 82.3333C300.115 82.6996 300.744 82.9079 301.393 82.9344C301.857 82.9261 302.313 82.8156 302.73 82.6106C303.146 82.4056 303.511 82.1114 303.801 81.7487C304.09 81.3861 304.296 80.9641 304.403 80.5128C304.51 80.0616 304.517 79.5922 304.422 79.1381C304.414 79.0843 304.395 79.0326 304.367 78.986C304.339 78.9394 304.302 78.8987 304.259 78.8664C304.215 78.8341 304.165 78.8107 304.112 78.7977C304.059 78.7846 304.005 78.7822 303.951 78.7904ZM302.248 81.9709C301.73 82.1453 301.167 82.1377 300.654 81.9493C300.14 81.761 299.706 81.4032 299.423 80.9349C300.321 80.6596 302.321 80.109 303.77 79.6888C303.783 80.1797 303.644 80.6628 303.372 81.0715C303.099 81.4801 302.707 81.7944 302.248 81.9709Z" fill="#414141"/>
<path d="M287.38 79.6867C286.86 79.5502 286.329 79.4581 285.794 79.4114C285.693 79.4033 285.593 79.4353 285.516 79.5004C285.438 79.5655 285.39 79.6585 285.381 79.7591C285.373 79.8587 285.404 79.9576 285.467 80.0347C285.531 80.1118 285.622 80.1611 285.721 80.1721C286.211 80.2236 286.696 80.3157 287.17 80.4474C287.243 80.4474 287.59 80.5198 287.656 80.1721C287.669 80.0723 287.649 79.9709 287.599 79.8833C287.549 79.7958 287.473 79.7267 287.38 79.6867Z" fill="#414141"/>
<path d="M325.966 74.5243C325.942 74.4362 325.887 74.3597 325.811 74.309C325.735 74.2584 325.644 74.2371 325.553 74.249L324.829 74.3867L324.553 72.8652C324.552 72.8167 324.539 72.7691 324.515 72.7266C324.492 72.6841 324.458 72.6479 324.418 72.6209C324.378 72.594 324.331 72.5771 324.283 72.5717C324.235 72.5663 324.186 72.5726 324.14 72.5899C324.092 72.5914 324.044 72.6044 324.002 72.6279C323.959 72.6515 323.923 72.6849 323.896 72.7253C323.869 72.7657 323.852 72.812 323.847 72.8603C323.841 72.9086 323.848 72.9575 323.865 73.0029L324.14 74.5895C323.793 74.662 323.517 74.7272 323.416 74.7272C323.327 74.7525 323.251 74.8088 323.2 74.886C323.149 74.9632 323.128 75.0559 323.141 75.1474C323.169 75.2185 323.215 75.2811 323.275 75.3293C323.335 75.3775 323.406 75.4097 323.481 75.4227C323.481 75.4227 323.894 75.3502 324.206 75.285L324.408 76.321C324.416 76.3669 324.433 76.4107 324.458 76.4497C324.484 76.4888 324.517 76.5222 324.555 76.548C324.594 76.5738 324.638 76.5914 324.683 76.5997C324.729 76.608 324.776 76.6069 324.821 76.5963C325.032 76.5239 325.169 76.3862 325.097 76.1761L324.894 75.0749C325.118 75.0069 325.349 74.9608 325.582 74.9373C325.638 74.9524 325.697 74.9519 325.753 74.9359C325.809 74.92 325.859 74.8891 325.899 74.8466C325.938 74.8041 325.965 74.7516 325.977 74.6948C325.989 74.638 325.985 74.5791 325.966 74.5243Z" fill="#414141"/>
<path d="M350.677 41.4497H349.952V40.3485C349.96 40.2991 349.956 40.2488 349.942 40.2009C349.928 40.153 349.904 40.1087 349.871 40.0709C349.839 40.0332 349.798 40.0029 349.753 39.9822C349.707 39.9614 349.658 39.9507 349.608 39.9507C349.558 39.9507 349.509 39.9614 349.464 39.9822C349.418 40.0029 349.378 40.0332 349.345 40.0709C349.313 40.1087 349.288 40.153 349.274 40.2009C349.26 40.2488 349.257 40.2991 349.264 40.3485V41.4497H348.779C348.729 41.4425 348.679 41.4461 348.631 41.4601C348.583 41.4741 348.539 41.4982 348.501 41.5308C348.463 41.5635 348.433 41.6039 348.412 41.6493C348.392 41.6946 348.381 41.7439 348.381 41.7938C348.381 41.8437 348.392 41.8931 348.412 41.9384C348.433 41.9838 348.463 42.0242 348.501 42.0569C348.539 42.0895 348.583 42.1136 348.631 42.1276C348.679 42.1416 348.729 42.1452 348.779 42.138H349.264V43.2464C349.257 43.2958 349.26 43.3462 349.274 43.3941C349.288 43.442 349.313 43.4863 349.345 43.524C349.378 43.5618 349.418 43.592 349.464 43.6128C349.509 43.6335 349.558 43.6443 349.608 43.6443C349.658 43.6443 349.707 43.6335 349.753 43.6128C349.798 43.592 349.839 43.5618 349.871 43.524C349.904 43.4863 349.928 43.442 349.942 43.3941C349.956 43.3462 349.96 43.2958 349.952 43.2464V42.138H350.677C350.76 42.126 350.835 42.0846 350.89 42.0214C350.944 41.9582 350.975 41.8774 350.975 41.7938C350.975 41.7103 350.944 41.6295 350.89 41.5663C350.835 41.5031 350.76 41.4617 350.677 41.4497Z" fill="#414141"/>
<path d="M360.333 47.1122C360.297 47.1167 360.26 47.1132 360.225 47.1019C360.19 47.0907 360.157 47.0719 360.13 47.047C360.085 47.0195 360.046 46.982 360.017 46.9373C359.987 46.8927 359.968 46.842 359.962 46.7891C359.955 46.7362 359.96 46.6824 359.976 46.6317C359.993 46.581 360.021 46.5348 360.058 46.4964C361.391 44.6026 362.504 42.5633 363.376 40.4179C363.413 40.328 363.484 40.2563 363.574 40.2183C363.663 40.1803 363.764 40.1792 363.854 40.2151C363.901 40.23 363.945 40.2548 363.982 40.2879C364.018 40.3209 364.048 40.3614 364.067 40.4066C364.087 40.4519 364.097 40.5009 364.097 40.5503C364.096 40.5997 364.085 40.6484 364.064 40.6932C362.652 44.7866 360.471 47.1122 360.333 47.1122Z" fill="#414141"/>
<path d="M360.336 50.565C359.923 50.565 359.857 50.0796 360.133 49.8043C360.198 49.8043 363.755 47.9714 366.827 43.4578C366.89 43.3752 366.984 43.3211 367.087 43.3076C367.191 43.294 367.295 43.322 367.378 43.3854C367.46 43.4488 367.514 43.5424 367.528 43.6457C367.541 43.7489 367.513 43.8534 367.45 43.936C365.653 46.6913 363.211 48.9667 360.336 50.565Z" fill="#414141"/>
<path d="M325.068 48.3571C323.582 47.9194 322.244 47.0824 321.199 45.9374C321.133 45.8609 321.097 45.7632 321.097 45.6621C321.097 45.5609 321.133 45.4632 321.199 45.3868C321.277 45.3199 321.376 45.2832 321.478 45.2832C321.581 45.2832 321.68 45.3199 321.757 45.3868C322.706 46.3549 323.859 47.0977 325.133 47.5602C325.187 47.5719 325.237 47.5945 325.281 47.6264C325.325 47.6583 325.362 47.6989 325.39 47.7458C325.418 47.7927 325.436 47.8447 325.443 47.8988C325.45 47.9528 325.446 48.0077 325.43 48.0601C325.428 48.104 325.416 48.147 325.396 48.1862C325.376 48.2254 325.348 48.26 325.314 48.2879C325.28 48.3158 325.241 48.3364 325.198 48.3483C325.156 48.3602 325.112 48.3632 325.068 48.3571Z" fill="#414141"/>
<path d="M324.856 49.6679C323.589 49.605 322.337 49.3736 321.132 48.9797C321.081 48.9663 321.034 48.943 320.993 48.9113C320.952 48.8795 320.918 48.8399 320.892 48.7947C320.867 48.7495 320.85 48.6997 320.844 48.6481C320.838 48.5965 320.842 48.5442 320.856 48.4943C320.869 48.4444 320.891 48.3975 320.922 48.3564C320.954 48.3154 320.992 48.281 321.037 48.2553C321.082 48.2296 321.131 48.2132 321.182 48.2069C321.233 48.2007 321.285 48.2048 321.335 48.219C322.474 48.586 323.659 48.7956 324.856 48.842C324.964 48.8471 325.067 48.8921 325.144 48.9683C325.222 49.0445 325.269 49.1465 325.276 49.255C325.203 49.4578 325.066 49.6679 324.856 49.6679Z" fill="#414141"/>
<path d="M334.798 44.4879C334.798 44.4879 332.197 44.4879 331.487 42.3145C331.411 42.1147 331.365 41.9047 331.35 41.6914C330.659 41.7281 329.972 41.5738 329.364 41.2453C328.755 40.9168 328.249 40.4269 327.901 39.8295C327.613 39.2712 327.457 38.6546 327.445 38.0267C327.432 37.3988 327.563 36.7764 327.829 36.2071C327.981 35.7579 328.865 36.1056 328.517 36.62C328.307 37.0766 328.205 37.5751 328.217 38.0774C328.23 38.5796 328.357 39.0724 328.589 39.518C328.862 39.9824 329.256 40.363 329.73 40.6185C330.204 40.8741 330.739 40.9946 331.277 40.9669C331.412 40.2895 331.697 39.6509 332.11 39.0978C332.292 38.846 332.55 38.6594 332.846 38.5653C333.142 38.4713 333.461 38.4749 333.754 38.5755C334.048 38.6762 334.302 38.8686 334.478 39.1243C334.654 39.3801 334.744 39.6857 334.733 39.9961C334.523 40.822 333.697 41.6552 332.038 41.7204C332.038 42.9375 333.538 43.5678 334.733 43.7924C335.023 43.9011 335.341 44.4879 334.798 44.4879ZM332.871 39.518C332.553 39.8935 332.338 40.3455 332.248 40.8293C333.487 40.6916 334.037 40.1048 334.11 39.7281C334.124 39.4528 333.559 38.8297 332.871 39.518Z" fill="#7BD2FF"/>
<path d="M364.132 81.0767C362.913 81.0808 361.735 80.6374 360.821 79.8306C359.844 79.0264 359.185 77.9021 358.959 76.6574C358.959 76.5478 359.002 76.4428 359.08 76.3653C359.157 76.2879 359.262 76.2444 359.372 76.2444C359.481 76.2444 359.587 76.2879 359.664 76.3653C359.741 76.4428 359.785 76.5478 359.785 76.6574C360.013 77.6816 360.57 78.6029 361.372 79.28C361.862 79.707 362.443 80.0164 363.07 80.1847C363.698 80.3529 364.356 80.3755 364.994 80.2508C365.421 80.1944 365.826 80.027 366.168 79.7654C365.735 79.5036 365.363 79.1522 365.076 78.7349C364.79 78.3176 364.597 77.8439 364.509 77.3456C364.429 76.2444 365.233 74.9331 366.783 75.8966C367.834 76.5632 367.957 78.6279 367.341 79.5191C367.406 79.5191 370.051 81.1274 373.34 77.8672C373.418 77.8004 373.517 77.7637 373.619 77.7637C373.721 77.7637 373.82 77.8004 373.898 77.8672C373.964 77.9437 374.001 78.0414 374.001 78.1425C374.001 78.2437 373.964 78.3414 373.898 78.4179C371.051 81.1636 368.515 80.7652 367.269 80.2798C367.131 80.2146 366.994 80.2146 366.856 80.1421C366.097 80.7836 365.125 81.1171 364.132 81.0767ZM365.276 77.208C365.365 77.607 365.541 77.9815 365.792 78.3046C366.042 78.6278 366.361 78.8916 366.725 79.0771C366.78 78.9101 366.848 78.7478 366.928 78.5917C367.45 76.3168 365.168 75.4837 365.276 77.208Z" fill="#7BD2FF"/>
</g>
<rect x="0.744521" y="0.744521" width="373.511" height="143.511" rx="10.2555" stroke="url(#paint1_linear_1036_4170)" stroke-opacity="0.08" stroke-width="0.510959"/>
<defs>
<linearGradient id="paint0_linear_1036_4170" x1="42.6629" y1="15.8085" x2="213.928" y2="76.5442" gradientUnits="userSpaceOnUse">
<stop stop-color="#003F88"/>
<stop offset="0.64989" stop-color="#03BCFF"/>
<stop offset="1" stop-color="#0076FF"/>
</linearGradient>
<linearGradient id="paint1_linear_1036_4170" x1="47.195" y1="20.571" x2="387.35" y2="83.6903" gradientUnits="userSpaceOnUse">
<stop stop-color="#003F88"/>
<stop offset="0.64989" stop-color="#02D4FF"/>
<stop offset="1" stop-color="#0076FF"/>
</linearGradient>
<clipPath id="clip0_1036_4170">
<rect x="1" y="1" width="373" height="143" rx="10" fill="white"/>
</clipPath>
</defs>
</svg>
