<svg xmlns="http://www.w3.org/2000/svg" width="375" height="145" fill="none"><g clip-path="url(#a)"><rect width="373" height="143" x="1" y="1" fill="#E3F0FF" rx="10"/><path fill="#C8E2FF" d="M379.257 159c-143.113-3.736-175.944-8.836-182.825-17.463-6.042-9.025-6.042-9.025 63.984-59.124 31.74-22.689 81.94-58.621 98.261-73.985A1242 1242 0 0 0 234.78-4.942a7.97 7.97 0 0 1-8.559-3.82 8.12 8.12 0 0 1 3.041-11.207 8.1 8.1 0 0 1 4.133-1.03c2.098 0 141.981 6.088 145.631 24.264 1.322 10.368-11.433 22.185-109.338 92.203-18.88 13.432-39.313 28.124-51.04 37.149 37.656 5.331 143.638 9.172 161.07 10.348a8.082 8.082 0 0 1 7.28 8.227 8.1 8.1 0 0 1-2.344 5.42 8.1 8.1 0 0 1-5.397 2.388"/><path fill="url(#b)" d="M32.163 40.197H19.577V22.748h4.5v14.074h8.086zm15.445-5.8h-9.656q.094 1.546 1.172 2.367 1.09.82 3.2.82 1.335 0 2.59-.48 1.252-.48 1.98-1.032h.468v3.387q-1.43.574-2.695.832-1.266.258-2.8.258-3.962 0-6.071-1.781-2.11-1.782-2.11-5.075 0-3.257 1.993-5.156 2.004-1.91 5.484-1.91 3.21 0 4.828 1.629 1.617 1.617 1.617 4.664zm-4.195-2.473q-.035-1.325-.656-1.992-.621-.669-1.934-.668-1.218 0-2.004.633-.785.632-.879 2.027zM59 40.08q-.68.175-1.441.27-.763.105-1.864.105-2.46 0-3.668-.996-1.195-.995-1.195-3.41v-6.152h-1.734v-2.86h1.734v-3.762h4.219v3.762h3.949v2.86h-3.95v4.663q0 .693.013 1.208.011.515.187.925.164.41.574.657.423.234 1.219.234.329 0 .855-.14.54-.14.75-.259H59zm8.133-18.117-3.41 6.902H60.98l1.84-6.902zm13.804 14.062q0 2.04-1.828 3.293-1.827 1.243-5.004 1.242-1.757 0-3.187-.328-1.43-.327-2.297-.726v-3.469h.387q.316.223.726.492.422.258 1.184.563.657.27 1.488.468a8 8 0 0 0 1.781.188q1.243 0 1.84-.27.598-.28.598-.82 0-.48-.352-.691-.352-.224-1.336-.422-.468-.106-1.277-.223a15 15 0 0 1-1.453-.304q-1.793-.47-2.66-1.453-.867-.997-.867-2.473 0-1.9 1.793-3.152 1.804-1.266 4.922-1.266 1.476 0 2.824.305 1.36.293 2.12.632v3.328h-.362a8.4 8.4 0 0 0-2.145-1.043 7.4 7.4 0 0 0-2.426-.41q-1.02 0-1.722.282-.692.281-.692.796 0 .47.317.715.316.246 1.488.492.644.129 1.383.258a17 17 0 0 1 1.5.305q1.665.433 2.46 1.371.797.925.797 2.32m25.219-1.312q0 2.578-2.191 4.195-2.18 1.605-5.93 1.606-2.168 0-3.785-.375a20 20 0 0 1-3.012-.973v-4.184h.493q1.394 1.114 3.117 1.711 1.734.598 3.328.598.41 0 1.078-.07t1.09-.235a2.6 2.6 0 0 0 .844-.527q.339-.317.339-.937 0-.575-.492-.985-.48-.422-1.418-.644-.984-.235-2.086-.434-1.09-.21-2.05-.527-2.204-.716-3.176-1.934-.96-1.23-.961-3.047 0-2.437 2.18-3.972 2.19-1.547 5.624-1.547 1.724 0 3.399.34 1.688.328 2.918.832v4.019h-.481q-1.055-.843-2.589-1.406a8.8 8.8 0 0 0-3.118-.574q-.562 0-1.125.082-.55.07-1.066.28a2 2 0 0 0-.785.54 1.15 1.15 0 0 0-.328.808q0 .692.527 1.067.528.363 1.992.668.96.2 1.84.387a19 19 0 0 1 1.91.515q2.004.657 2.953 1.793.961 1.125.961 2.93m11.274 5.367q-.68.175-1.442.27-.762.105-1.863.105-2.461 0-3.668-.996-1.195-.995-1.195-3.41v-6.152h-1.735v-2.86h1.735v-3.762h4.218v3.762h3.95v2.86h-3.95v4.663q0 .693.012 1.208t.188.925q.163.41.574.657.421.234 1.219.234.328 0 .855-.14.54-.14.75-.259h.352zm10.5-3.316v-2.742a40 40 0 0 0-1.852.199q-.996.117-1.512.281-.632.2-.972.586-.328.375-.328.996 0 .41.07.668t.352.492q.269.234.644.352.375.105 1.172.105.633 0 1.277-.258a4 4 0 0 0 1.149-.68m0 2.039q-.34.258-.844.62a6 6 0 0 1-.949.575 5.8 5.8 0 0 1-1.289.41q-.669.14-1.465.14-1.875 0-3.141-1.16-1.265-1.16-1.265-2.964 0-1.441.644-2.356.645-.914 1.828-1.441 1.172-.528 2.906-.75a51 51 0 0 1 3.598-.328v-.07q0-1.09-.89-1.5-.891-.422-2.625-.422-1.044 0-2.227.375a28 28 0 0 0-1.699.562h-.387v-3.176q.668-.176 2.168-.41a19 19 0 0 1 3.023-.246q3.598 0 5.192 1.113 1.605 1.102 1.605 3.47v8.952h-4.183zm17.601-7.746h-.375q-.268-.095-.867-.141a13 13 0 0 0-.996-.047 9.6 9.6 0 0 0-1.594.117 9 9 0 0 0-1.488.399v8.812h-4.219v-13.16h4.219v1.934q1.395-1.196 2.426-1.582 1.03-.399 1.898-.399.224 0 .504.012.282.012.492.035zm10.805 9.023q-.68.175-1.441.27a14 14 0 0 1-1.864.105q-2.46 0-3.668-.996-1.195-.995-1.195-3.41v-6.152h-1.734v-2.86h1.734v-3.762h4.219v3.762h3.949v2.86h-3.949v4.663q0 .693.011 1.208.012.515.188.925.164.41.574.657.422.234 1.219.234.329 0 .855-.14.54-.14.75-.259h.352z"/><path fill="#384F69" d="M26.292 64.197h-1.16V56.68l-2.426 5.115h-.691l-2.409-5.115v7.517h-1.084v-8.724h1.583l2.326 4.857 2.25-4.857h1.611zm6.862 0h-1.096V63.5q-.147.1-.398.281a3.157 3.157 0 0 1-1.113.504 3.3 3.3 0 0 1-.838.094q-.885 0-1.5-.586-.616-.586-.616-1.494 0-.745.317-1.201.323-.463.914-.727.598-.264 1.435-.357.838-.095 1.8-.141v-.17q0-.375-.136-.621a.94.94 0 0 0-.375-.387 1.6 1.6 0 0 0-.562-.181 5 5 0 0 0-.686-.047q-.434 0-.966.117a7 7 0 0 0-1.102.328h-.059v-1.119q.323-.088.932-.193.61-.106 1.201-.106.691 0 1.201.117.516.112.89.387.37.27.563.697.194.428.194 1.06zm-1.096-1.611v-1.822q-.503.029-1.19.088a6 6 0 0 0-1.077.17q-.476.135-.768.421-.293.282-.293.78 0 .562.34.85.34.28 1.037.28.58 0 1.06-.222.48-.229.891-.545m8.678 1.611h-1.453l-2.625-2.865-.715.68v2.185h-1.101V55.08h1.101v5.848l3.182-3.276h1.389l-3.041 3.024zm6.042-3.158h-4.822q0 .603.181 1.055.182.445.498.732.305.282.72.422.422.14.927.14a3.7 3.7 0 0 0 1.342-.263q.68-.27.966-.527h.059v1.2q-.556.236-1.137.393a4.6 4.6 0 0 1-1.219.159q-1.628 0-2.543-.88-.914-.884-.914-2.507 0-1.605.873-2.549.88-.943 2.309-.943 1.325 0 2.04.773.72.774.72 2.197zm-1.072-.844q-.005-.867-.44-1.342-.427-.474-1.307-.474-.885 0-1.412.521-.521.522-.591 1.295zm11.086 4.002h-1.095V63.5q-.146.1-.399.281a3.157 3.157 0 0 1-1.113.504 3.3 3.3 0 0 1-.838.094q-.885 0-1.5-.586t-.615-1.494q0-.745.316-1.201.323-.463.914-.727.598-.264 1.436-.357.837-.095 1.799-.141v-.17q0-.375-.135-.621a.94.94 0 0 0-.375-.387 1.6 1.6 0 0 0-.563-.181 5 5 0 0 0-.685-.047q-.434 0-.967.117a7 7 0 0 0-1.102.328h-.058v-1.119q.322-.088.932-.193.609-.106 1.2-.106.693 0 1.202.117.516.112.89.387.37.27.563.697.193.428.193 1.06zm-1.095-1.611v-1.822q-.504.029-1.19.088a6 6 0 0 0-1.078.17q-.474.135-.768.421-.292.282-.292.78 0 .562.34.85.34.28 1.036.28.58 0 1.061-.222.48-.229.89-.545m11.784 1.611h-1.102v-.685a4 4 0 0 1-.99.638 2.7 2.7 0 0 1-1.12.229q-1.171 0-1.862-.902-.686-.903-.686-2.502 0-.833.234-1.483a3.5 3.5 0 0 1 .645-1.107 2.7 2.7 0 0 1 2.027-.914q.516 0 .914.111.399.106.838.334V55.08h1.102zm-1.102-1.611V58.83a4 4 0 0 0-.797-.275 3.6 3.6 0 0 0-.767-.077q-.926 0-1.442.645t-.515 1.828q0 1.166.398 1.776.399.603 1.278.603.468 0 .949-.205.48-.21.896-.54m6.874-3.733h-.059a4.365 4.365 0 0 0-1.025-.111q-.51 0-.985.229a4.4 4.4 0 0 0-.914.58v4.646H69.17v-6.545h1.101v.967q.657-.527 1.155-.744a2.5 2.5 0 0 1 1.025-.223q.287 0 .416.018.129.012.387.053zm5.432 5.344h-1.096V63.5q-.146.1-.398.281a3.157 3.157 0 0 1-1.113.504 3.3 3.3 0 0 1-.838.094q-.885 0-1.5-.586t-.616-1.494q0-.745.317-1.201.323-.463.914-.727.597-.264 1.435-.357.839-.095 1.8-.141v-.17q0-.375-.136-.621a.94.94 0 0 0-.375-.387 1.6 1.6 0 0 0-.562-.181 5 5 0 0 0-.686-.047q-.434 0-.966.117a7 7 0 0 0-1.102.328h-.059v-1.119q.323-.088.932-.193.61-.106 1.201-.106.692 0 1.201.117.516.112.891.387.37.27.563.697.192.428.193 1.06zm-1.096-1.611v-1.822q-.504.029-1.19.088a6 6 0 0 0-1.077.17q-.475.135-.768.421-.293.282-.293.78 0 .562.34.85.34.28 1.037.28.58 0 1.06-.222.48-.229.891-.545m6.258-6.44h-.058a5 5 0 0 0-.475-.105 2.7 2.7 0 0 0-.515-.059q-.71 0-1.032.317-.315.31-.316 1.13v.223h1.986v.926h-1.95v5.62h-1.102v-5.62h-.745v-.926h.745v-.217q0-1.166.58-1.787.58-.626 1.675-.626.37 0 .662.035.3.034.545.082zm3.616 7.993a6 6 0 0 1-1.33.187q-1.002 0-1.523-.539-.522-.54-.522-1.728v-3.48h-.744v-.927h.744v-1.88h1.102v1.88h2.273v.926H85.19v2.982q0 .516.023.81.024.285.164.538a.8.8 0 0 0 .352.346q.228.105.691.105.27 0 .563-.076a4 4 0 0 0 .422-.135h.058zm8.116-7.992h-.058a5 5 0 0 0-.475-.106 2.7 2.7 0 0 0-.516-.059q-.708 0-1.03.317-.317.31-.317 1.13v.223h1.986v.926h-1.951v5.62h-1.102v-5.62h-.744v-.926h.744v-.217q0-1.166.58-1.787.58-.626 1.676-.626.37 0 .662.035.3.034.545.082zm5.796 4.78q0 1.6-.821 2.526-.82.926-2.197.926-1.389 0-2.209-.926-.814-.926-.814-2.525 0-1.6.814-2.526.82-.93 2.21-.931 1.376 0 2.196.931.82.926.821 2.526m-1.137 0q0-1.27-.498-1.886-.498-.621-1.383-.621-.896 0-1.394.621-.493.616-.493 1.887 0 1.23.499 1.869.498.633 1.388.633.879 0 1.377-.627.504-.633.504-1.875m6.452-2.074h-.059a4.374 4.374 0 0 0-1.025-.111q-.51 0-.985.229a4.4 4.4 0 0 0-.914.58v4.646h-1.101v-6.545h1.101v.967q.656-.527 1.155-.744a2.5 2.5 0 0 1 1.025-.223q.287 0 .416.018.129.012.387.053zm9.956-1.2-3.821 8.958h-1.177l1.218-2.73-2.607-6.229h1.195l2.01 4.852 2.027-4.852zm6.434 3.275q0 1.6-.821 2.525-.82.926-2.197.926-1.389 0-2.209-.926-.814-.926-.814-2.525 0-1.6.814-2.526.82-.93 2.209-.931 1.377 0 2.197.931.82.926.821 2.526m-1.137 0q0-1.272-.498-1.887-.498-.621-1.383-.621-.897 0-1.394.621-.493.616-.493 1.887 0 1.23.498 1.869.499.633 1.389.633.879 0 1.377-.627.504-.633.504-1.875m7.793 3.27h-1.101v-.727a5.4 5.4 0 0 1-1.067.673 2.66 2.66 0 0 1-1.125.235q-1.03 0-1.605-.627-.574-.633-.574-1.852v-4.248h1.101v3.727q0 .498.047.855.047.352.199.604a.95.95 0 0 0 .411.375q.252.117.732.117.428 0 .932-.223.51-.222.949-.568v-4.887h1.101zm5.772-5.344h-.058a4.363 4.363 0 0 0-1.026-.111q-.51 0-.984.228a4.4 4.4 0 0 0-.914.58v4.646h-1.102v-6.545h1.102v.967q.656-.527 1.154-.744a2.5 2.5 0 0 1 1.026-.223q.287 0 .416.018.13.012.386.053zm9.904 5.343h-5.52v-8.724h1.16v7.693h4.36zm6.07-3.158h-4.822q0 .603.182 1.055.181.445.498.732.304.282.721.422.421.14.925.14.669 0 1.342-.263.68-.27.967-.527h.059v1.2q-.557.236-1.137.393a4.6 4.6 0 0 1-1.219.159q-1.63 0-2.543-.88-.914-.884-.914-2.507 0-1.605.873-2.549.88-.943 2.309-.943 1.324 0 2.039.773.72.774.72 2.197zm-1.072-.844q-.006-.867-.439-1.342-.428-.474-1.307-.474-.885 0-1.412.521a2.03 2.03 0 0 0-.592 1.295zm7.348 4.002h-1.095V63.5q-.147.1-.399.281a3.172 3.172 0 0 1-1.113.504 3.3 3.3 0 0 1-.838.094q-.885 0-1.5-.586t-.615-1.494q0-.745.316-1.201.323-.463.914-.727.598-.264 1.436-.357a29 29 0 0 1 1.799-.141v-.17q0-.375-.135-.621a.94.94 0 0 0-.375-.387 1.6 1.6 0 0 0-.563-.181 5 5 0 0 0-.685-.047q-.434 0-.967.117a7 7 0 0 0-1.102.328h-.058v-1.119q.322-.088.931-.193.61-.106 1.202-.106.691 0 1.201.117.516.112.89.387.37.27.563.697.193.428.193 1.06zm-1.095-1.611v-1.822q-.504.029-1.19.088a6 6 0 0 0-1.078.17q-.474.135-.768.421-.293.282-.293.78 0 .562.34.85.34.28 1.037.28.58 0 1.061-.222.48-.229.891-.545m8.303-4.934-2.649 6.545h-1.107l-2.631-6.545h1.195l2.028 5.21 2.01-5.21zm6.334 3.387h-4.822q0 .603.182 1.055.181.445.498.732.304.282.72.422.423.14.926.14.668 0 1.342-.263.68-.27.967-.527h.058v1.2a9 9 0 0 1-1.136.393 4.6 4.6 0 0 1-1.219.159q-1.63 0-2.543-.88-.914-.884-.914-2.507 0-1.605.873-2.549.879-.943 2.309-.943 1.323 0 2.039.773.72.774.72 2.197zm-1.072-.844q-.006-.867-.439-1.342-.428-.474-1.307-.474-.885 0-1.412.521a2.03 2.03 0 0 0-.592 1.295zM28.677 72.473l-2.268 8.724h-1.306l-1.834-7.242-1.793 7.242h-1.278l-2.308-8.724h1.19l1.833 7.254 1.805-7.254h1.177l1.823 7.324 1.822-7.324zm2.332 1.084h-1.242v-1.143h1.242zm-.07 7.64h-1.102v-6.545h1.102zm5.098-.058a6 6 0 0 1-1.33.187q-1.002 0-1.523-.539-.522-.54-.522-1.728v-3.48h-.744v-.927h.744v-1.88h1.102v1.88h2.273v.926h-2.273v2.983q0 .515.023.808.023.287.164.54a.8.8 0 0 0 .352.345q.229.105.691.105.27 0 .563-.076a4 4 0 0 0 .421-.135h.06zm6.329.058h-1.102v-3.726q0-.451-.053-.844-.053-.399-.193-.621a.88.88 0 0 0-.422-.363q-.275-.123-.715-.124-.45 0-.943.223a4.8 4.8 0 0 0-.943.569v4.886h-1.102V72.08h1.102v3.299a4.5 4.5 0 0 1 1.066-.668q.55-.24 1.13-.24 1.062 0 1.618.638.557.64.557 1.84zm6.95 0h-1.102v-.685a4 4 0 0 1-.99.638 2.7 2.7 0 0 1-1.12.229q-1.17 0-1.863-.902-.685-.903-.685-2.502 0-.833.234-1.483a3.5 3.5 0 0 1 .645-1.107 2.7 2.7 0 0 1 2.027-.914q.516 0 .914.111.399.105.838.334V72.08h1.101zm-1.102-1.611V75.83a4 4 0 0 0-.797-.275 3.6 3.6 0 0 0-.768-.077q-.925 0-1.441.645-.516.646-.516 1.828 0 1.167.399 1.776.398.603 1.277.603.469 0 .95-.205.48-.21.896-.54m6.873-3.733h-.058a4.364 4.364 0 0 0-1.025-.111q-.51 0-.985.229a4.4 4.4 0 0 0-.914.58v4.646h-1.102v-6.545h1.102v.967q.656-.527 1.154-.744a2.5 2.5 0 0 1 1.026-.223q.287 0 .416.018.128.011.386.053zm5.432 5.344h-1.095V80.5q-.146.1-.399.281a3.154 3.154 0 0 1-1.113.504 3.3 3.3 0 0 1-.838.094q-.885 0-1.5-.586t-.615-1.494q0-.744.316-1.201.323-.463.914-.727.598-.264 1.436-.357.838-.095 1.799-.141v-.17q0-.375-.135-.621a.94.94 0 0 0-.375-.387 1.6 1.6 0 0 0-.563-.181 5 5 0 0 0-.685-.047q-.434 0-.967.117a7 7 0 0 0-1.102.328h-.058v-1.119q.322-.088.932-.193.609-.106 1.2-.106.693 0 1.202.117.516.112.89.387.37.27.563.697.193.429.193 1.06zm-1.095-1.611v-1.822q-.504.03-1.19.088a6 6 0 0 0-1.078.17q-.474.135-.767.421-.293.282-.293.78 0 .562.34.85.34.28 1.036.28.58 0 1.061-.222.48-.229.89-.545m10.91-4.934-1.705 6.545h-1.02l-1.68-5.045-1.67 5.045h-1.014l-1.723-6.545h1.148l1.201 5.069 1.635-5.069h.908l1.676 5.069 1.137-5.069zm6.077 6.545h-1.096V80.5q-.146.1-.398.281a3.157 3.157 0 0 1-1.113.504 3.3 3.3 0 0 1-.838.094q-.885 0-1.5-.586t-.616-1.494q0-.744.317-1.201.323-.463.914-.727.597-.264 1.435-.357.839-.095 1.8-.141v-.17q0-.375-.136-.621a.94.94 0 0 0-.375-.387 1.6 1.6 0 0 0-.562-.181 5 5 0 0 0-.685-.047q-.435 0-.967.117a7 7 0 0 0-1.102.328h-.059v-1.119q.323-.088.932-.193.61-.106 1.201-.106.692 0 1.201.117.516.112.891.387.37.27.563.697.193.429.193 1.06zm-1.096-1.611v-1.822q-.504.03-1.19.088a6 6 0 0 0-1.077.17q-.475.135-.768.421-.293.282-.293.78 0 .562.34.85.34.28 1.037.28.58 0 1.06-.222.481-.229.891-.545m3.85 1.611h-1.101V72.08h1.101zm10.525 0h-1.096V80.5q-.147.1-.398.281a3.154 3.154 0 0 1-1.113.504 3.3 3.3 0 0 1-.839.094q-.885 0-1.5-.586t-.615-1.494q0-.744.317-1.201.322-.463.914-.727.597-.264 1.435-.357.838-.095 1.799-.141v-.17q0-.375-.135-.621a.94.94 0 0 0-.375-.387 1.6 1.6 0 0 0-.562-.181 5 5 0 0 0-.686-.047q-.433 0-.967.117a7 7 0 0 0-1.101.328h-.059v-1.119q.323-.088.932-.193t1.201-.106q.691 0 1.201.117.515.112.89.387.37.27.563.697.194.429.194 1.06zm-1.096-1.611v-1.822q-.503.03-1.19.088a6 6 0 0 0-1.078.17q-.474.135-.767.421-.293.282-.293.78 0 .562.34.85.34.28 1.037.28.58 0 1.06-.222.48-.229.891-.545m8.21 1.611h-1.102v-3.726q0-.451-.053-.844-.053-.399-.193-.621a.88.88 0 0 0-.422-.363q-.276-.123-.715-.124-.45 0-.943.223a4.8 4.8 0 0 0-.944.569v4.886h-1.101v-6.545h1.101v.727a4.5 4.5 0 0 1 1.067-.668q.55-.24 1.13-.24 1.062 0 1.618.638.555.64.556 1.84zm6.949 0h-1.101v-.685a4 4 0 0 1-.991.638 2.7 2.7 0 0 1-1.119.229q-1.171 0-1.863-.902-.686-.903-.686-2.502 0-.833.235-1.483a3.5 3.5 0 0 1 .644-1.107 2.7 2.7 0 0 1 2.028-.914q.515 0 .914.111.398.105.838.334V72.08h1.101zm-1.101-1.611V75.83a4 4 0 0 0-.797-.275 3.6 3.6 0 0 0-.768-.077q-.925 0-1.441.645-.516.646-.516 1.828 0 1.167.399 1.776.398.603 1.277.603.469 0 .949-.205.48-.21.897-.54m11.204-.275q0 .895-.744 1.47-.739.575-2.022.575-.726 0-1.336-.17a6 6 0 0 1-1.014-.381v-1.237h.059q.522.393 1.16.627.639.23 1.225.229.726 0 1.137-.235.41-.234.41-.738 0-.387-.223-.586-.223-.2-.855-.34a17 17 0 0 0-.616-.123 10 10 0 0 1-.685-.152q-.862-.228-1.225-.668-.357-.445-.357-1.09 0-.404.164-.761.17-.358.51-.64.327-.274.832-.433.509-.165 1.136-.164.586 0 1.184.147.603.14 1.002.345v1.178h-.059a3.9 3.9 0 0 0-1.025-.521 3.5 3.5 0 0 0-1.184-.217q-.603 0-1.019.234-.416.229-.416.686 0 .404.252.61.245.204.797.333.304.07.679.14.381.071.633.13.767.176 1.184.603.416.435.416 1.148m6.527 1.886h-1.101v-.726a5.4 5.4 0 0 1-1.066.673q-.51.235-1.125.235-1.032 0-1.606-.627-.574-.633-.574-1.852v-4.248h1.101v3.727q0 .498.047.855.048.352.199.604a.95.95 0 0 0 .411.375q.252.117.732.117.428 0 .932-.223.51-.222.949-.568v-4.887h1.101zm7.448-3.322q0 .821-.234 1.477-.23.656-.621 1.101a2.9 2.9 0 0 1-.914.697 2.6 2.6 0 0 1-1.096.229q-.556 0-.973-.135a4.4 4.4 0 0 1-.82-.351l-.07.304h-1.032V72.08h1.102v3.258q.464-.381.984-.621a2.7 2.7 0 0 1 1.172-.246q1.16 0 1.828.89.675.891.674 2.514m-1.137.03q0-1.173-.386-1.776-.387-.61-1.248-.61-.481 0-.973.212a4 4 0 0 0-.914.533v3.75q.469.21.803.293.34.082.767.082.914 0 1.43-.598.521-.603.521-1.887m11.925 3.292h-1.102v-3.726q0-.422-.041-.815a1.7 1.7 0 0 0-.158-.627.9.9 0 0 0-.387-.38q-.252-.13-.726-.13-.463 0-.926.235a5.5 5.5 0 0 0-.926.586q.018.135.029.316.012.176.012.352v4.19h-1.101V77.47q0-.435-.041-.82a1.7 1.7 0 0 0-.159-.628.85.85 0 0 0-.386-.375q-.252-.128-.727-.129a2.06 2.06 0 0 0-.908.223 5.4 5.4 0 0 0-.902.569v4.886h-1.102v-6.545h1.102v.727a4.9 4.9 0 0 1 1.025-.668q.516-.24 1.096-.24.668 0 1.131.281.468.281.697.78.667-.563 1.219-.81a2.8 2.8 0 0 1 1.177-.251q1.078 0 1.588.656.516.65.516 1.822zm2.824-7.64h-1.242v-1.143h1.242zm-.07 7.64h-1.101v-6.545h1.101zm5.098-.058a6 6 0 0 1-1.33.187q-1.002 0-1.523-.539-.522-.54-.522-1.728v-3.48h-.744v-.927h.744v-1.88h1.102v1.88h2.273v.926h-2.273v2.983q0 .515.023.808.024.287.164.54a.8.8 0 0 0 .352.345q.228.105.691.105.27 0 .563-.076.293-.082.422-.135h.058z"/><path fill="#fff" d="M309.333 135.427s40.376.377 41.76 0c1.383-.377 12.316 1.862 12.7-9.317.376-11.041.174-57.698 0-59.408s.065-11.765-13.671-11.73c-13.251 0-85.931-.151-93.524 0-9.94.19-12.251 2.624-12.316 12.839s-.276 37.89-.276 37.89a6.21 6.21 0 0 0-4.006 4.347c-.464 1.732 1.884 19.047 4.144 25.357.725 1.927 4.195 3.811 9.853 2.63 9.527-1.992 21.445-3.622 21.445-3.622.137 1.173 1.072 1.057 2.246 1.057z"/><path fill="#414141" d="M364.205 69.198c0-4.695 0-14.562-13.526-14.562h-94.017c-4.97 0-12.49-.073-12.562 10.49v16.258a.42.42 0 0 0 .833 0c0-.073-.138-4.42 0-13.461 4.832 0 53.213-.276 118.583-.76 0 .76.066 54.183.066 57.291 0 3.724-.833 6.347-2.551 7.97-2.897 2.818-7.867 2.731-13.185 2.695l-38.072-.123c-.449 0-.666.985 0 .985l40.861.072c4.419 0 8.368-.333 10.976-2.898 1.876-1.847 2.898-4.687 2.826-8.556-.058-3.369-.232-46.975-.232-55.401M244.86 67.025V65.09c.037-4.347 1.377-7.122 4.072-8.556 2.347-1.253 5.318-1.174 7.73-1.174h94.017c10.49 0 12.352 6.071 12.7 10.904-65.298.521-113.686.724-118.519.797z"/><path fill="#414141" d="M341.838 59.95a.42.42 0 0 1-.365-.417.42.42 0 0 1 .365-.417c.073 0 6.347-.065 13.389 0a.422.422 0 0 1 .475.417q0 .091-.037.173a.43.43 0 0 1-.261.23.4.4 0 0 1-.177.014c-7.042-.073-13.389 0-13.389 0M341.838 63.756a.42.42 0 0 1-.365-.417.42.42 0 0 1 .365-.416c.073 0 6.347-.066 13.389 0a.422.422 0 0 1 .475.416q0 .091-.037.174a.42.42 0 0 1-.438.243c-7.042-.073-13.389 0-13.389 0M341.84 61.882a.411.411 0 0 1-.292-.705.4.4 0 0 1 .292-.12c.072 0 6.346-.073 13.388 0a.45.45 0 0 1 .42.412.44.44 0 0 1-.42.413c-7.042-.101-13.388 0-13.388 0M254.662 61.194a1.063 1.063 0 0 1-1.036 1.036 1.14 1.14 0 0 1-1.101-1.13 1.013 1.013 0 0 1 1.036-1.036 1.184 1.184 0 0 1 1.101 1.13M259.907 61.197a1.066 1.066 0 0 1-1.036 1.036 1.135 1.135 0 0 1-1.101-1.13 1.017 1.017 0 0 1 1.007-1.007 1.18 1.18 0 0 1 1.13 1.101M265.015 61.194a1.06 1.06 0 0 1-1.036 1.036 1.135 1.135 0 0 1-1.101-1.13 1.014 1.014 0 0 1 1.036-1.036 1.18 1.18 0 0 1 1.101 1.13M285.263 101.114c-13.613-.789-25.161.913-37.622 3.355-4.565.891-7.876 1.449-7.731 7.882.131 5.673 2.5 18.605 3.485 21.553 1.138 3.398 2.898 5.238 8.542 4.717 6.636-.616 25.357-4.253 25.509-4.289a.4.4 0 0 0 .256-.165.4.4 0 0 0 .058-.144.4.4 0 0 0-.003-.155.396.396 0 0 0-.463-.311c-.189.036-18.837 3.666-25.43 4.274a10.4 10.4 0 0 1-4.629-.384c1.253-2.253 7.397-13.106 11.403-17.279 2.898 1.449 7.347 3.384 10.621 3.13 5.477-.427 13.179-16.388 13.505-17.069a.39.39 0 0 0-.181-.522.394.394 0 0 0-.529.182c-.08.166-7.832 16.228-12.86 16.619-6.781.529-21.01-9.201-27.683-14.489 1.094-1.804 3.239-2.225 6.274-2.782 13.469-2.493 22.757-4.195 37.435-3.348a.39.39 0 0 0 .191-.739.4.4 0 0 0-.148-.036m-27.356 18.67c-4.159 4.449-10.194 15.156-11.397 17.323-1.492-.848-1.934-2.174-2.448-3.71-.689-2.043-3.224-14.917-3.362-21.068a9.4 9.4 0 0 1 .464-3.579c1.47 1.159 9.186 7.115 16.743 11.034"/><path fill="#005BC3" d="M240.724 105.513a134.8 134.8 0 0 1 41.759-5.528 25 25 0 0 1 1.79-1.934s-27.06-17.787-30.711-19.395c-3.116-1.362-4.927.681-5.869 2.173-.724 1.095-10.425 14.49-11.186 17.533s.761 4.869 4.217 7.151"/><path fill="#fff" d="M259.733 101.049c-1.753-2.174-8.484-19.866-9.462-22.46a.39.39 0 0 0-.209-.222.4.4 0 0 0-.435.073.4.4 0 0 0-.121.274.4.4 0 0 0 .026.151c.21.565 3.666 9.716 6.463 16.287-5.651.543-18.351 4.709-19.561 4.926a.394.394 0 0 0-.428.321.4.4 0 0 0 .015.193c.145.435.181.413 3.745-.637 4.47-1.319 12.693-3.746 16.584-4.043a35 35 0 0 0 2.789 5.63.394.394 0 0 0 .506.005.39.39 0 0 0 .088-.498"/><path fill="#7BD2FF" d="M315.818 83.418c-.645-2.427-4.623-15.808-7.97-21.466s-9.947-11.114-15.221-7.375a.62.62 0 0 1-.486.072c-1.173-.348-5.868-1.319-9.106 2.072-8.303 8.694-4.347 23.814-7.731 32.783a.566.566 0 0 0 .2.63.55.55 0 0 0 .213.094c3.797 1.102 24.915 6.63 39.898-6.208a.63.63 0 0 0 .203-.601"/><path fill="#fff" d="M345.635 72.374a6.5 6.5 0 0 1 .964-2.963c.971-1.66 2.608-5.869 2.42-8.216-.153-1.862 2.825-6.97 1.659-7.383-.971-.347-3.731 5.586-3.731 5.586l-.899-.138s.833-8.353-.478-8.418-1.659 8.28-1.659 8.28l-1.246.211s-1.724-9.462-2.898-9.527.551 10.143.551 10.143l-.964.275s-3.057-8.223-4.506-7.817c-2.007.601 4.006 12.577 3.311 12.975-.696.399-4.065-3.1-4.898-2.072-1.239 1.529 3.26 4.47 6.281 6.702.551.406.479 1.724.413 2.55zM302.971 127.113l-1.797 7.73a49 49 0 0 1 1.934 4.622c.333 1.109 1.659 4.615 2.348 4.485.688-.131.724-1.101.724-1.101s1.246.724 1.869-.971c0 0 1.652.724 1.377-2.55 0 0 1.659-.21-.138-5.18a1.066 1.066 0 0 0 1.384-.479c.398-.724-1.449-4.281-4.767-4.347a9.5 9.5 0 0 0-2.934-2.209M298.703 94.879s7.52 4.492 8.969-3.173l-1.659-3.797s6.144-5.071 2.007-14.011c0 0 2.275-2.174 1.036-4.898a4.285 4.285 0 0 0-4.144-2.42s-2.21-6.201-10.701-7.18c0 0-1.376 9.463-8.071 13.121l1.174 4.21s-3.521.065-3.869 2.963c-.347 2.898 3.934 3.73 5.731 2.622 0 0 2.485 6.702 8.556 7.528 0-.073 1.109 3.934.971 5.035"/><path fill="#FDAF31" d="M292.691 80.968a.94.94 0 0 0 .149.474c.094.148.228.28.396.388.167.108.364.19.579.24a2.33 2.33 0 0 0 1.335-.081c.207-.077.393-.182.546-.31.153-.127.271-.274.346-.433a.95.95 0 0 0 .09-.489.94.94 0 0 0-.149-.474 1.3 1.3 0 0 0-.396-.388 1.9 1.9 0 0 0-.58-.24 2.3 2.3 0 0 0-.673-.056c-.229.014-.454.06-.661.137a1.9 1.9 0 0 0-.546.31 1.3 1.3 0 0 0-.346.433.94.94 0 0 0-.09.489M306.02 76.56a.9.9 0 0 0 .324.34c.14.087.307.143.491.166s.381.011.58-.034c.199-.044.396-.122.578-.228.183-.105.349-.237.487-.387.139-.15.247-.315.319-.485s.106-.344.101-.508a.9.9 0 0 0-.133-.451.9.9 0 0 0-.327-.334 1.2 1.2 0 0 0-.489-.16 1.7 1.7 0 0 0-.576.035 2.1 2.1 0 0 0-1.057.61 1.7 1.7 0 0 0-.319.481q-.11.257-.105.504a.9.9 0 0 0 .125.45"/><path fill="#414141" d="M347.02 72.027h-.971a10.9 10.9 0 0 1 1.246-3.456l.413-.89a20.8 20.8 0 0 0 1.724-7.043c.457-1.717 2.695-6.694 1.449-7.317a.52.52 0 0 0-.485-.072c-.964.34-2.963 4.144-3.659 5.73l-.34-.065c.065-.724.217-2.282.275-3.796.159-4.007-.348-4.63-.964-4.695a.95.95 0 0 0-.558.138c-1.014.811-1.485 6.064-1.724 8.215l-.623.066c-.275-2-1.311-8.346-2.622-9.317a.768.768 0 0 0-1.174.203c-.985 1.369.282 7.969.724 10.012l-.21.065c-.203-.616-.724-1.927-1.376-3.31-1.725-3.797-2.623-4.21-2.971-4.282a.95.95 0 0 0-.724 0c-1.616.79.847 5.919 3.311 12.707a6 6 0 0 1-.725-.558c-1.376-1.036-3.245-2.485-4.347-1.173a.87.87 0 0 0-.21.833c.312 2.289 6.644 5.97 6.905 6.484a3 3 0 0 1 .137 1.724 6.7 6.7 0 0 0-1.934.283c-.138.34-1.514 22.082-1.514 22.082-4.695-3.1-16.707-7.607-22.503-6.209a16.3 16.3 0 0 0-5.73 2.688 128 128 0 0 0-1.449-3.239c3.05-2.332 4.73-7.867 1.999-13.873a4.4 4.4 0 0 0 1.384-3.18c-.073-4.283-4.485-4.413-4.557-4.413-2.971-6.904-11.041-7.317-11.114-7.317a.383.383 0 0 0-.413.34c0 .073-.659 9.013-7.73 12.773a.5.5 0 0 0-.21.413c.348 1.246.833 3.035 1.036 3.869a5.07 5.07 0 0 0-2.963 1.238 2.99 2.99 0 0 0-.758 2.69 3 3 0 0 0 1.794 2.143 5.54 5.54 0 0 0 3.934.065c.275.623 3.101 6.629 8.556 7.39.138.724.623 2.622.826 3.934-14.215-6.832-34.906 35.659-21.191 42.657 2.695 1.377 23.676-.724 24.371-.833 1.681 3.71 2.413 8.426 4.072 8.426.478-.073.724-.551.898-.971a1.452 1.452 0 0 0 1.606-.494c.121-.159.208-.341.256-.535a1.06 1.06 0 0 0 .964-.145c.724-.47.724-1.789.623-2.485 1.311-.434.833-2.76.413-4.078h22.626c-.725-5.036-8.477-28.494-8.477-28.494s13.642 8.918 22.64 3.999c7.745-4.217 2.804-38.862.044-38.927m-41.622-4.97a3.63 3.63 0 0 1 3.347 2.236 3.622 3.622 0 1 1-3.347-2.236m-7.245 22.568c-.065-.138-.138-.275-.34-.275-5.666-.725-8.354-7.245-8.354-7.318a.428.428 0 0 0-.623-.138c-.55.414-2.477.617-3.796 0-1.79-.833-1.036-3.107-.551-3.52.964-1.036 2.833-1.102 2.898-1.102.225 0 .457-.26.348-.485s-.833-3.036-1.036-4a11.86 11.86 0 0 0 4.485-4.346 4.27 4.27 0 0 1 3.245.348.39.39 0 0 0 .551-.138.36.36 0 0 0 .06-.307.37.37 0 0 0-.198-.243 4.65 4.65 0 0 0-3.035-.551 25.7 25.7 0 0 0 2.688-7.593 13.16 13.16 0 0 1 8.288 4.137 4.13 4.13 0 0 0-2.971 2.485.34.34 0 0 0-.032.145.35.35 0 0 0 .115.265.35.35 0 0 0 .127.075c.203.066.478-.072.478-.21 0-.137.834-2.072 2.833-2.072.341.486.761 1.036 1.101 1.594-3.999.964-3.448 5.245-3.31 5.658q-.635.087-1.247.276c-.34-.964-.775-2.13-1.166-3.246a.406.406 0 0 0-.485-.275.39.39 0 0 0-.288.331.4.4 0 0 0 .012.154c.341 1.036.725 2.174 1.174 3.246a5.7 5.7 0 0 0-1.797 1.166 4.52 4.52 0 0 0-4.071-2.622 4.42 4.42 0 0 0-4.083 2.728 4.42 4.42 0 1 0 8.502 1.691 5.7 5.7 0 0 0-.138-1.036 4.7 4.7 0 0 1 1.812-1.246c.264.772.612 1.513 1.036 2.21.275.275 1.796.275 1.934.275a12.5 12.5 0 0 1-.898 1.652.385.385 0 0 0 .013.454.4.4 0 0 0 .124.103.414.414 0 0 0 .551-.137c1.76-2.898 1.181-2.768-.275-2.898a4 4 0 0 1-1.036-.145 9.4 9.4 0 0 1-.725-1.79 3.6 3.6 0 0 1 1.253-.239 4.41 4.41 0 0 0 4.694 2.358 4.4 4.4 0 0 0 1.725-.698 13.66 13.66 0 0 1 1.022 7.621c-.964 5.448-4.963 6.281-5.173 6.281a.51.51 0 0 0-.348.479.444.444 0 0 0 .413.348 8.3 8.3 0 0 0 2.072-.827c.486 1.102 1.312 2.964 1.522 3.449a4.78 4.78 0 0 1-2.485 3.383c-2.138 1.05-4.97-.072-5.731-.413-.058-1.383-.891-4.904-.891-5.042zm-1.181-14.04a3.622 3.622 0 1 1-3.622-3.623 3.68 3.68 0 0 1 3.622 3.622m-18.112 49.417a.4.4 0 0 1-.177.032.4.4 0 0 1-.303-.178.392.392 0 0 1 .074-.496.39.39 0 0 1 .341-.083c.275 0 2.347-.203 5.31-.478 1.587-6.354 4.767-14.772 4.767-14.845a.39.39 0 0 1 .5-.224.384.384 0 0 1 .225.499c0 .073-3.108 8.216-4.695 14.49 6.072-.478 14.91-.963 18.837-.137a.525.525 0 0 1 .348.485c0 .065-.276 1.514-.421 2.137a.386.386 0 0 1-.438.172.4.4 0 0 1-.206-.139.4.4 0 0 1-.08-.236q.232-.816.341-1.659c-6.448-1.239-24.22.558-24.394.623zm30.783 13.946a18.96 18.96 0 0 0-3.933-7.115.395.395 0 0 0-.555.004.393.393 0 0 0 .004.554s3.086 3.369 3.796 7.173c.37 1.999-.485 2.173-.623 2.072-.724-3.862-3.521-8.006-3.622-8.209a.43.43 0 0 0-.249-.176.42.42 0 0 0-.302.039.44.44 0 0 0-.138.55c0 .065 2.898 4.275 3.623 7.97-.073.963-.833.898-1.036.826-.348-3.521-2.695-7.18-2.76-7.318a.46.46 0 0 0-.254-.169.44.44 0 0 0-.304.032.44.44 0 0 0-.138.55c0 .073 2.347 3.731 2.623 7.115-.065 1.101-.978.275-2-2.833a26 26 0 0 0-2.072-5.173c.551-2.42 1.449-6.977 1.449-6.977.138 0 2.768.935 5.245 5.528 2.254 4.238 1.275 5.521 1.275 5.521zm.624-5.318a1.1 1.1 0 0 1-.725.348 14.2 14.2 0 0 0-2.833-4.347c3.311 1.137 3.999 3.55 3.587 3.963zm30.095-61.429a3.3 3.3 0 0 0-.348-2.173c-.667-.667-7.383-4.985-6.76-6.072s2.174.276 3.311 1.036c.899.725 1.449 1.102 1.862.826.413-.275.363-.768-1.101-4.484-.681-1.732-1.449-3.739-1.934-5.39-.79-2.565-.826-2.826-.486-2.964.833-.412 3.217 4.818 4.144 7.455a.47.47 0 0 0 .486.276l.898-.21a.39.39 0 0 0 .275-.478s-.499-2.348-.833-4.768c-.572-4.209-.137-4.97-.065-5.071.138.065.725.55 1.587 4.622.471 2.282.724 4.557.724 4.622a.384.384 0 0 0 .413.348l1.311-.138a.33.33 0 0 0 .348-.347c.341-4.347.964-7.455 1.377-7.97.413.725.275 4.55-.066 7.97a.383.383 0 0 0 .341.413l.971.137a.42.42 0 0 0 .413-.203c1.405-2.897 2.622-4.904 3.173-5.455 0 1.355-1.703 5.63-1.862 6.42-.449 6.751-3.036 7.889-3.383 11.388-1.384.036-3.246.101-4.767.174z"/><path fill="#414141" d="M303.694 72.517a.49.49 0 0 0 .486-.282 3.3 3.3 0 0 1 3.108-2.623.44.44 0 0 0 .413-.413.45.45 0 0 0-.413-.413c-3.173 0-3.869 3.173-3.869 3.246a.406.406 0 0 0 .275.485M290.488 75.206a.417.417 0 0 0 .413.724 5.3 5.3 0 0 1 1.659-.724 3.52 3.52 0 0 1 3.101.623c.073.065.138.065.275.065a.37.37 0 0 0 .283-.138.36.36 0 0 0-.072-.55c-2.485-2.073-5.659 0-5.659 0M303.951 78.79a437 437 0 0 0-5.318 1.522c-.348.072-.275.413-.275.55a3.47 3.47 0 0 0 3.035 2.072 3.16 3.16 0 0 0 2.408-1.185 3.15 3.15 0 0 0 .621-2.61.414.414 0 0 0-.471-.349m-1.703 3.18a2.4 2.4 0 0 1-2.825-1.035c.898-.275 2.898-.826 4.347-1.246a2.378 2.378 0 0 1-1.522 2.282M287.38 79.687a9.5 9.5 0 0 0-1.586-.276.383.383 0 0 0-.327.624.39.39 0 0 0 .254.137q.737.078 1.449.275c.073 0 .42.073.486-.275a.46.46 0 0 0-.276-.485M325.966 74.524a.38.38 0 0 0-.413-.275l-.724.138-.276-1.522a.303.303 0 0 0-.413-.275.304.304 0 0 0-.275.413l.275 1.587c-.347.072-.623.137-.724.137a.385.385 0 0 0-.275.42.44.44 0 0 0 .34.276s.413-.073.725-.138l.202 1.036a.35.35 0 0 0 .147.227.35.35 0 0 0 .266.048c.211-.072.348-.21.276-.42l-.203-1.101q.337-.102.688-.138a.32.32 0 0 0 .384-.413M350.677 41.45h-.725v-1.102a.344.344 0 0 0-.199-.366.35.35 0 0 0-.408.089.35.35 0 0 0-.081.278v1.1h-.485a.349.349 0 0 0-.148.679.35.35 0 0 0 .148.01h.485v1.108a.35.35 0 0 0 .081.278.347.347 0 0 0 .607-.278v-1.108h.725a.348.348 0 0 0 0-.688M360.333 47.112a.25.25 0 0 1-.203-.065.356.356 0 0 1-.072-.55 30.5 30.5 0 0 0 3.318-6.08.37.37 0 0 1 .478-.202q.072.023.128.073a.356.356 0 0 1 .115.262.4.4 0 0 1-.033.143c-1.412 4.094-3.593 6.42-3.731 6.42M360.336 50.565c-.413 0-.479-.485-.203-.76.065 0 3.622-1.834 6.694-6.347a.39.39 0 0 1 .551-.073.4.4 0 0 1 .15.26.4.4 0 0 1-.078.291 20.2 20.2 0 0 1-7.114 6.629M325.068 48.357a8.5 8.5 0 0 1-3.869-2.42.42.42 0 0 1 0-.55.43.43 0 0 1 .558 0 9.05 9.05 0 0 0 3.376 2.173.4.4 0 0 1 .257.186.4.4 0 0 1 .04.314.31.31 0 0 1-.116.228.31.31 0 0 1-.246.07M324.856 49.668a14.3 14.3 0 0 1-3.724-.688.39.39 0 0 1-.288-.332.4.4 0 0 1 .012-.154.4.4 0 0 1 .181-.239.39.39 0 0 1 .298-.036c1.139.367 2.324.577 3.521.623a.44.44 0 0 1 .42.413c-.073.203-.21.413-.42.413"/><path fill="#7BD2FF" d="M334.798 44.488s-2.601 0-3.311-2.173q-.114-.301-.137-.624a3.76 3.76 0 0 1-3.449-1.861 4.1 4.1 0 0 1-.456-1.803 4.1 4.1 0 0 1 .384-1.82c.152-.45 1.036-.101.688.413a3.3 3.3 0 0 0 .072 2.898 2.94 2.94 0 0 0 2.688 1.449 4.64 4.64 0 0 1 .833-1.87 1.45 1.45 0 0 1 2.623.9c-.21.825-1.036 1.658-2.695 1.723 0 1.218 1.5 1.848 2.695 2.072.29.11.608.696.065.696m-1.927-4.97a2.83 2.83 0 0 0-.623 1.311c1.239-.137 1.789-.724 1.862-1.1.014-.276-.551-.9-1.239-.211M364.132 81.077a4.98 4.98 0 0 1-3.311-1.246 5.35 5.35 0 0 1-1.862-3.174.41.41 0 0 1 .413-.413.413.413 0 0 1 .413.413 4.8 4.8 0 0 0 1.587 2.623 4.27 4.27 0 0 0 3.622.97 2.46 2.46 0 0 0 1.174-.485 3.549 3.549 0 0 1-1.659-2.42c-.08-1.1.724-2.412 2.274-1.448 1.051.666 1.174 2.73.558 3.622.065 0 2.71 1.608 5.999-1.652a.43.43 0 0 1 .558 0 .42.42 0 0 1 0 .55c-2.847 2.747-5.383 2.348-6.629 1.863-.138-.065-.275-.065-.413-.138a3.97 3.97 0 0 1-2.724.935m1.144-3.869a2.77 2.77 0 0 0 1.449 1.87q.083-.252.203-.486c.522-2.275-1.76-3.108-1.652-1.384"/></g><rect width="373.511" height="143.511" x=".745" y=".745" stroke="url(#c)" stroke-opacity=".08" stroke-width=".511" rx="10.255"/><defs><linearGradient id="b" x1="42.663" x2="213.928" y1="15.809" y2="76.544" gradientUnits="userSpaceOnUse"><stop stop-color="#003F88"/><stop offset=".65" stop-color="#03BCFF"/><stop offset="1" stop-color="#0076FF"/></linearGradient><linearGradient id="c" x1="47.195" x2="387.35" y1="20.571" y2="83.69" gradientUnits="userSpaceOnUse"><stop stop-color="#003F88"/><stop offset=".65" stop-color="#02D4FF"/><stop offset="1" stop-color="#0076FF"/></linearGradient><clipPath id="a"><rect width="373" height="143" x="1" y="1" fill="#fff" rx="10"/></clipPath></defs></svg>