<svg width="375" height="145" viewBox="0 0 375 145" fill="none" xmlns="http://www.w3.org/2000/svg">
<g clip-path="url(#clip0_836_3402)">
<rect x="1" y="1" width="373" height="143" rx="10" fill="#E3F0FF"/>
<path d="M379.257 159C236.144 155.264 203.313 150.164 196.432 141.537C190.39 132.512 190.39 132.512 260.416 82.4127C292.156 59.724 342.356 23.7915 358.677 8.4279C317.628 1.90083 276.277 -2.56138 234.78 -4.94185C233.133 -4.59271 231.418 -4.77425 229.88 -5.46047C228.343 -6.14669 227.062 -7.30233 226.221 -8.76176C225.489 -10.0084 225.102 -11.428 225.102 -12.8741C225.101 -14.3201 225.486 -15.7401 226.217 -16.9873C226.949 -18.2346 228 -19.2639 229.262 -19.969C230.523 -20.6741 231.95 -21.0293 233.395 -20.9981C235.493 -20.9981 375.376 -14.9114 379.026 3.2647C380.348 13.6331 367.593 25.4496 269.688 95.4675C250.808 108.9 230.375 123.592 218.648 132.617C256.304 137.948 362.286 141.789 379.718 142.965C381.745 143.165 383.621 144.124 384.971 145.65C386.321 147.176 387.045 149.155 386.998 151.192C386.926 153.229 386.089 155.164 384.654 156.612C383.22 158.059 381.292 158.912 379.257 159Z" fill="#C8E2FF"/>
<path d="M32.1631 40.1973H19.5771V22.748H24.0771V36.8223H32.1631V40.1973ZM47.6084 34.3965H37.9521C38.0146 35.4277 38.4053 36.2168 39.124 36.7637C39.8506 37.3105 40.917 37.584 42.3232 37.584C43.2139 37.584 44.0771 37.4238 44.9131 37.1035C45.749 36.7832 46.4092 36.4395 46.8936 36.0723H47.3623V39.459C46.4092 39.8418 45.5107 40.1191 44.667 40.291C43.8232 40.4629 42.8896 40.5488 41.8662 40.5488C39.2256 40.5488 37.2021 39.9551 35.7959 38.7676C34.3896 37.5801 33.6865 35.8887 33.6865 33.6934C33.6865 31.5215 34.3506 29.8027 35.6787 28.5371C37.0146 27.2637 38.8428 26.627 41.1631 26.627C43.3037 26.627 44.9131 27.1699 45.9912 28.2559C47.0693 29.334 47.6084 30.8887 47.6084 32.9199V34.3965ZM43.4131 31.9238C43.3896 31.041 43.1709 30.377 42.7568 29.9316C42.3428 29.4863 41.6982 29.2637 40.8232 29.2637C40.0107 29.2637 39.3428 29.4746 38.8193 29.8965C38.2959 30.3184 38.0029 30.9941 37.9404 31.9238H43.4131ZM58.999 40.0801C58.5459 40.1973 58.0654 40.2871 57.5576 40.3496C57.0498 40.4199 56.4287 40.4551 55.6943 40.4551C54.0537 40.4551 52.8311 40.123 52.0264 39.459C51.2295 38.7949 50.8311 37.6582 50.8311 36.0488V29.8965H49.0967V27.0371H50.8311V23.2754H55.0498V27.0371H58.999V29.8965H55.0498V34.5605C55.0498 35.0215 55.0537 35.4238 55.0615 35.7676C55.0693 36.1113 55.1318 36.4199 55.249 36.6934C55.3584 36.9668 55.5498 37.1855 55.8232 37.3496C56.1045 37.5059 56.5107 37.584 57.042 37.584C57.2607 37.584 57.5459 37.5371 57.8975 37.4434C58.2568 37.3496 58.5068 37.2637 58.6475 37.1855H58.999V40.0801ZM67.1318 21.9629L63.7217 28.8652H60.9795L62.8193 21.9629H67.1318ZM80.9365 36.0254C80.9365 37.3848 80.3271 38.4824 79.1084 39.3184C77.8896 40.1465 76.2217 40.5605 74.1045 40.5605C72.9326 40.5605 71.8701 40.4512 70.917 40.2324C69.9639 40.0137 69.1982 39.7715 68.6201 39.5059V36.0371H69.0068C69.2178 36.1855 69.46 36.3496 69.7334 36.5293C70.0146 36.7012 70.4092 36.8887 70.917 37.0918C71.3545 37.2715 71.8506 37.4277 72.4053 37.5605C72.96 37.6855 73.5537 37.748 74.1865 37.748C75.0146 37.748 75.6279 37.6582 76.0264 37.4785C76.4248 37.291 76.624 37.0176 76.624 36.6582C76.624 36.3379 76.5068 36.1074 76.2725 35.9668C76.0381 35.8184 75.5928 35.6777 74.9365 35.5449C74.624 35.4746 74.1982 35.4004 73.6592 35.3223C73.1279 35.2363 72.6436 35.1348 72.2061 35.0176C71.0107 34.7051 70.124 34.2207 69.5459 33.5645C68.9678 32.9004 68.6787 32.0762 68.6787 31.0918C68.6787 29.8262 69.2764 28.7754 70.4717 27.9395C71.6748 27.0957 73.3154 26.6738 75.3936 26.6738C76.3779 26.6738 77.3193 26.7754 78.2178 26.9785C79.124 27.1738 79.8311 27.3848 80.3389 27.6113V30.9395H79.9756C79.3506 30.5098 78.6357 30.1621 77.8311 29.8965C77.0342 29.623 76.2256 29.4863 75.4053 29.4863C74.7256 29.4863 74.1514 29.5801 73.6826 29.7676C73.2217 29.9551 72.9912 30.2207 72.9912 30.5645C72.9912 30.877 73.0967 31.1152 73.3076 31.2793C73.5186 31.4434 74.0146 31.6074 74.7959 31.7715C75.2256 31.8574 75.6865 31.9434 76.1787 32.0293C76.6787 32.1074 77.1787 32.209 77.6787 32.334C78.7881 32.623 79.6084 33.0801 80.1396 33.7051C80.6709 34.3223 80.9365 35.0957 80.9365 36.0254ZM106.155 34.7129C106.155 36.4316 105.425 37.8301 103.964 38.9082C102.511 39.9785 100.534 40.5137 98.0342 40.5137C96.5889 40.5137 95.3271 40.3887 94.249 40.1387C93.1787 39.8809 92.1748 39.5566 91.2373 39.166V34.9824H91.7295C92.6592 35.7246 93.6982 36.2949 94.8467 36.6934C96.0029 37.0918 97.1123 37.291 98.1748 37.291C98.4482 37.291 98.8076 37.2676 99.2529 37.2207C99.6982 37.1738 100.062 37.0957 100.343 36.9863C100.687 36.8457 100.968 36.6699 101.187 36.459C101.413 36.248 101.526 35.9355 101.526 35.5215C101.526 35.1387 101.362 34.8105 101.034 34.5371C100.714 34.2559 100.241 34.041 99.6162 33.8926C98.96 33.7363 98.2646 33.5918 97.5303 33.459C96.8037 33.3184 96.1201 33.1426 95.4795 32.9316C94.0107 32.4551 92.9521 31.8105 92.3037 30.998C91.6631 30.1777 91.3428 29.1621 91.3428 27.9512C91.3428 26.3262 92.0693 25.002 93.5225 23.9785C94.9834 22.9473 96.8584 22.4316 99.1475 22.4316C100.296 22.4316 101.429 22.5449 102.546 22.7715C103.671 22.9902 104.644 23.2676 105.464 23.6035V27.623H104.983C104.28 27.0605 103.417 26.5918 102.394 26.2168C101.378 25.834 100.339 25.6426 99.2764 25.6426C98.9014 25.6426 98.5264 25.6699 98.1514 25.7246C97.7842 25.7715 97.4287 25.8652 97.085 26.0059C96.7803 26.123 96.5186 26.3027 96.2998 26.5449C96.0811 26.7793 95.9717 27.0488 95.9717 27.3535C95.9717 27.8145 96.1475 28.1699 96.499 28.4199C96.8506 28.6621 97.5146 28.8848 98.4912 29.0879C99.1318 29.2207 99.7451 29.3496 100.331 29.4746C100.925 29.5996 101.562 29.7715 102.241 29.9902C103.577 30.4277 104.562 31.0254 105.194 31.7832C105.835 32.5332 106.155 33.5098 106.155 34.7129ZM117.429 40.0801C116.976 40.1973 116.495 40.2871 115.987 40.3496C115.479 40.4199 114.858 40.4551 114.124 40.4551C112.483 40.4551 111.261 40.123 110.456 39.459C109.659 38.7949 109.261 37.6582 109.261 36.0488V29.8965H107.526V27.0371H109.261V23.2754H113.479V27.0371H117.429V29.8965H113.479V34.5605C113.479 35.0215 113.483 35.4238 113.491 35.7676C113.499 36.1113 113.562 36.4199 113.679 36.6934C113.788 36.9668 113.979 37.1855 114.253 37.3496C114.534 37.5059 114.94 37.584 115.472 37.584C115.69 37.584 115.976 37.5371 116.327 37.4434C116.687 37.3496 116.937 37.2637 117.077 37.1855H117.429V40.0801ZM127.929 36.7637V34.0215C127.358 34.0684 126.741 34.1348 126.077 34.2207C125.413 34.2988 124.909 34.3926 124.565 34.502C124.144 34.6348 123.819 34.8301 123.593 35.0879C123.374 35.3379 123.265 35.6699 123.265 36.084C123.265 36.3574 123.288 36.5801 123.335 36.752C123.382 36.9238 123.499 37.0879 123.687 37.2441C123.866 37.4004 124.081 37.5176 124.331 37.5957C124.581 37.666 124.972 37.7012 125.503 37.7012C125.925 37.7012 126.351 37.6152 126.78 37.4434C127.218 37.2715 127.601 37.0449 127.929 36.7637ZM127.929 38.8027C127.702 38.9746 127.421 39.1816 127.085 39.4238C126.749 39.666 126.433 39.8574 126.136 39.998C125.722 40.1855 125.292 40.3223 124.847 40.4082C124.401 40.502 123.913 40.5488 123.382 40.5488C122.132 40.5488 121.085 40.1621 120.241 39.3887C119.397 38.6152 118.976 37.627 118.976 36.4238C118.976 35.4629 119.19 34.6777 119.62 34.0684C120.05 33.459 120.659 32.9785 121.448 32.627C122.229 32.2754 123.198 32.0254 124.354 31.877C125.511 31.7285 126.71 31.6191 127.952 31.5488V31.4785C127.952 30.752 127.655 30.252 127.062 29.9785C126.468 29.6973 125.593 29.5566 124.437 29.5566C123.741 29.5566 122.999 29.6816 122.21 29.9316C121.421 30.1738 120.854 30.3613 120.511 30.4941H120.124V27.3184C120.569 27.2012 121.292 27.0645 122.292 26.9082C123.3 26.7441 124.308 26.6621 125.315 26.6621C127.714 26.6621 129.444 27.0332 130.507 27.7754C131.577 28.5098 132.112 29.666 132.112 31.2441V40.1973H127.929V38.8027ZM145.53 31.0566H145.155C144.976 30.9941 144.687 30.9473 144.288 30.916C143.89 30.8848 143.558 30.8691 143.292 30.8691C142.69 30.8691 142.159 30.9082 141.698 30.9863C141.237 31.0645 140.741 31.1973 140.21 31.3848V40.1973H135.991V27.0371H140.21V28.9707C141.14 28.1738 141.948 27.6465 142.636 27.3887C143.323 27.123 143.956 26.9902 144.534 26.9902C144.683 26.9902 144.851 26.9941 145.038 27.002C145.226 27.0098 145.39 27.0215 145.53 27.0371V31.0566ZM156.335 40.0801C155.882 40.1973 155.401 40.2871 154.894 40.3496C154.386 40.4199 153.765 40.4551 153.03 40.4551C151.39 40.4551 150.167 40.123 149.362 39.459C148.565 38.7949 148.167 37.6582 148.167 36.0488V29.8965H146.433V27.0371H148.167V23.2754H152.386V27.0371H156.335V29.8965H152.386V34.5605C152.386 35.0215 152.39 35.4238 152.397 35.7676C152.405 36.1113 152.468 36.4199 152.585 36.6934C152.694 36.9668 152.886 37.1855 153.159 37.3496C153.44 37.5059 153.847 37.584 154.378 37.584C154.597 37.584 154.882 37.5371 155.233 37.4434C155.593 37.3496 155.843 37.2637 155.983 37.1855H156.335V40.0801Z" fill="url(#paint0_linear_836_3402)"/>
<path d="M26.292 64.1973H25.1318V56.6797L22.7061 61.7949H22.0146L19.6064 56.6797V64.1973H18.5225V55.4727H20.1045L22.4307 60.3301L24.6807 55.4727H26.292V64.1973ZM33.1538 64.1973H32.0581V63.5C31.9604 63.5664 31.8276 63.6602 31.6596 63.7812C31.4956 63.8984 31.3354 63.9922 31.1792 64.0625C30.9956 64.1523 30.7846 64.2266 30.5464 64.2852C30.3081 64.3477 30.0288 64.3789 29.7085 64.3789C29.1186 64.3789 28.6186 64.1836 28.2085 63.793C27.7983 63.4023 27.5932 62.9043 27.5932 62.2988C27.5932 61.8027 27.6987 61.4023 27.9096 61.0977C28.1245 60.7891 28.4292 60.5469 28.8237 60.3711C29.2221 60.1953 29.7007 60.0762 30.2593 60.0137C30.8179 59.9512 31.4175 59.9043 32.0581 59.873V59.7031C32.0581 59.4531 32.0132 59.2461 31.9233 59.082C31.8374 58.918 31.7124 58.7891 31.5483 58.6953C31.3921 58.6055 31.2046 58.5449 30.9858 58.5137C30.7671 58.4824 30.5386 58.4668 30.3003 58.4668C30.0112 58.4668 29.6889 58.5059 29.3335 58.584C28.978 58.6582 28.6108 58.7676 28.2319 58.9121H28.1733V57.793C28.3882 57.7344 28.6987 57.6699 29.105 57.5996C29.5112 57.5293 29.9116 57.4941 30.3061 57.4941C30.7671 57.4941 31.1675 57.5332 31.5073 57.6113C31.8511 57.6855 32.1479 57.8145 32.3979 57.998C32.644 58.1777 32.8315 58.4102 32.9604 58.6953C33.0893 58.9805 33.1538 59.334 33.1538 59.7559V64.1973ZM32.0581 62.5859V60.7637C31.7221 60.7832 31.3257 60.8125 30.8686 60.8516C30.4155 60.8906 30.0561 60.9473 29.7905 61.0215C29.4741 61.1113 29.2182 61.252 29.0229 61.4434C28.8276 61.6309 28.73 61.8906 28.73 62.2227C28.73 62.5977 28.8432 62.8809 29.0698 63.0723C29.2964 63.2598 29.6421 63.3535 30.1069 63.3535C30.4936 63.3535 30.8471 63.2793 31.1675 63.1309C31.4878 62.9785 31.7846 62.7969 32.0581 62.5859ZM40.7363 64.1973H39.2832L36.6582 61.332L35.9433 62.0117V64.1973H34.8418V55.0801H35.9433V60.9277L39.125 57.6523H40.5136L37.4726 60.6758L40.7363 64.1973ZM46.7778 61.0391H41.9555C41.9555 61.4414 42.0161 61.793 42.1371 62.0938C42.2582 62.3906 42.4243 62.6348 42.6352 62.8262C42.8383 63.0137 43.0786 63.1543 43.3559 63.248C43.6371 63.3418 43.9457 63.3887 44.2817 63.3887C44.727 63.3887 45.1743 63.3008 45.6235 63.125C46.0766 62.9453 46.3989 62.7695 46.5903 62.5977H46.6489V63.7988C46.2778 63.9551 45.8989 64.0859 45.5121 64.1914C45.1254 64.2969 44.7192 64.3496 44.2934 64.3496C43.2075 64.3496 42.3598 64.0566 41.7504 63.4707C41.1411 62.8809 40.8364 62.0449 40.8364 60.9629C40.8364 59.8926 41.1274 59.043 41.7094 58.4141C42.2954 57.7852 43.0649 57.4707 44.018 57.4707C44.9008 57.4707 45.5805 57.7285 46.0571 58.2441C46.5375 58.7598 46.7778 59.4922 46.7778 60.4414V61.0391ZM45.7055 60.1953C45.7016 59.6172 45.5551 59.1699 45.2661 58.8535C44.9809 58.5371 44.5454 58.3789 43.9594 58.3789C43.3696 58.3789 42.8989 58.5527 42.5473 58.9004C42.1996 59.248 42.0024 59.6797 41.9555 60.1953H45.7055ZM56.7924 64.1973H55.6967V63.5C55.599 63.5664 55.4662 63.6602 55.2982 63.7812C55.1342 63.8984 54.974 63.9922 54.8178 64.0625C54.6342 64.1523 54.4232 64.2266 54.185 64.2852C53.9467 64.3477 53.6674 64.3789 53.3471 64.3789C52.7572 64.3789 52.2572 64.1836 51.8471 63.793C51.4369 63.4023 51.2318 62.9043 51.2318 62.2988C51.2318 61.8027 51.3373 61.4023 51.5482 61.0977C51.7631 60.7891 52.0678 60.5469 52.4623 60.3711C52.8607 60.1953 53.3393 60.0762 53.8979 60.0137C54.4564 59.9512 55.0561 59.9043 55.6967 59.873V59.7031C55.6967 59.4531 55.6518 59.2461 55.5619 59.082C55.476 58.918 55.351 58.7891 55.1869 58.6953C55.0307 58.6055 54.8432 58.5449 54.6244 58.5137C54.4057 58.4824 54.1771 58.4668 53.9389 58.4668C53.6498 58.4668 53.3275 58.5059 52.9721 58.584C52.6166 58.6582 52.2494 58.7676 51.8705 58.9121H51.8119V57.793C52.0268 57.7344 52.3373 57.6699 52.7436 57.5996C53.1498 57.5293 53.5502 57.4941 53.9447 57.4941C54.4057 57.4941 54.8061 57.5332 55.1459 57.6113C55.4896 57.6855 55.7865 57.8145 56.0365 57.998C56.2826 58.1777 56.4701 58.4102 56.599 58.6953C56.7279 58.9805 56.7924 59.334 56.7924 59.7559V64.1973ZM55.6967 62.5859V60.7637C55.3607 60.7832 54.9643 60.8125 54.5072 60.8516C54.0541 60.8906 53.6947 60.9473 53.4291 61.0215C53.1127 61.1113 52.8568 61.252 52.6615 61.4434C52.4662 61.6309 52.3686 61.8906 52.3686 62.2227C52.3686 62.5977 52.4818 62.8809 52.7084 63.0723C52.935 63.2598 53.2807 63.3535 53.7455 63.3535C54.1322 63.3535 54.4857 63.2793 54.8061 63.1309C55.1264 62.9785 55.4232 62.7969 55.6967 62.5859ZM67.4808 64.1973H66.3793V63.5117C66.0629 63.7852 65.7328 63.998 65.389 64.1504C65.0453 64.3027 64.6722 64.3789 64.2699 64.3789C63.4886 64.3789 62.8675 64.0781 62.4066 63.4766C61.9496 62.875 61.7211 62.041 61.7211 60.9746C61.7211 60.4199 61.7992 59.9258 61.9554 59.4922C62.1156 59.0586 62.3304 58.6895 62.6 58.3848C62.8656 58.0879 63.1742 57.8613 63.5257 57.7051C63.8812 57.5488 64.2484 57.4707 64.6273 57.4707C64.9711 57.4707 65.2757 57.5078 65.5414 57.582C65.807 57.6523 66.0863 57.7637 66.3793 57.916V55.0801H67.4808V64.1973ZM66.3793 62.5859V58.8301C66.0824 58.6973 65.8168 58.6055 65.5824 58.5547C65.348 58.5039 65.0921 58.4785 64.8148 58.4785C64.1976 58.4785 63.7171 58.6934 63.3734 59.123C63.0296 59.5527 62.8578 60.1621 62.8578 60.9512C62.8578 61.7285 62.9906 62.3203 63.2562 62.7266C63.5218 63.1289 63.9476 63.3301 64.5336 63.3301C64.8461 63.3301 65.1625 63.2617 65.4828 63.125C65.8031 62.9844 66.1019 62.8047 66.3793 62.5859ZM73.2528 58.8535H73.1942C73.0301 58.8145 72.87 58.7871 72.7137 58.7715C72.5614 58.752 72.3797 58.7422 72.1688 58.7422C71.8289 58.7422 71.5008 58.8184 71.1844 58.9707C70.868 59.1191 70.5633 59.3125 70.2704 59.5508V64.1973H69.1688V57.6523H70.2704V58.6191C70.7079 58.2676 71.0926 58.0195 71.4246 57.875C71.7606 57.7266 72.1024 57.6523 72.45 57.6523C72.6414 57.6523 72.7801 57.6582 72.8661 57.6699C72.952 57.6777 73.0809 57.6953 73.2528 57.7227V58.8535ZM78.6849 64.1973H77.5892V63.5C77.4915 63.5664 77.3587 63.6602 77.1907 63.7812C77.0267 63.8984 76.8665 63.9922 76.7103 64.0625C76.5267 64.1523 76.3157 64.2266 76.0775 64.2852C75.8392 64.3477 75.5599 64.3789 75.2396 64.3789C74.6497 64.3789 74.1497 64.1836 73.7396 63.793C73.3294 63.4023 73.1243 62.9043 73.1243 62.2988C73.1243 61.8027 73.2298 61.4023 73.4407 61.0977C73.6556 60.7891 73.9603 60.5469 74.3548 60.3711C74.7532 60.1953 75.2318 60.0762 75.7904 60.0137C76.3489 59.9512 76.9486 59.9043 77.5892 59.873V59.7031C77.5892 59.4531 77.5443 59.2461 77.4544 59.082C77.3685 58.918 77.2435 58.7891 77.0794 58.6953C76.9232 58.6055 76.7357 58.5449 76.5169 58.5137C76.2982 58.4824 76.0696 58.4668 75.8314 58.4668C75.5423 58.4668 75.22 58.5059 74.8646 58.584C74.5091 58.6582 74.1419 58.7676 73.763 58.9121H73.7044V57.793C73.9193 57.7344 74.2298 57.6699 74.6361 57.5996C75.0423 57.5293 75.4427 57.4941 75.8372 57.4941C76.2982 57.4941 76.6986 57.5332 77.0384 57.6113C77.3821 57.6855 77.679 57.8145 77.929 57.998C78.1751 58.1777 78.3626 58.4102 78.4915 58.6953C78.6204 58.9805 78.6849 59.334 78.6849 59.7559V64.1973ZM77.5892 62.5859V60.7637C77.2532 60.7832 76.8568 60.8125 76.3997 60.8516C75.9466 60.8906 75.5872 60.9473 75.3216 61.0215C75.0052 61.1113 74.7493 61.252 74.554 61.4434C74.3587 61.6309 74.2611 61.8906 74.2611 62.2227C74.2611 62.5977 74.3743 62.8809 74.6009 63.0723C74.8275 63.2598 75.1732 63.3535 75.638 63.3535C76.0247 63.3535 76.3782 63.2793 76.6986 63.1309C77.0189 62.9785 77.3157 62.7969 77.5892 62.5859ZM83.8475 56.1465H83.7889C83.6678 56.1113 83.5096 56.0762 83.3143 56.041C83.1189 56.002 82.9471 55.9824 82.7986 55.9824C82.326 55.9824 81.9822 56.0879 81.7674 56.2988C81.5564 56.5059 81.451 56.8828 81.451 57.4297V57.6523H83.4373V58.5781H81.4861V64.1973H80.3846V58.5781H79.6404V57.6523H80.3846V57.4355C80.3846 56.6582 80.5779 56.0625 80.9646 55.6484C81.3514 55.2305 81.91 55.0215 82.6404 55.0215C82.8865 55.0215 83.1072 55.0332 83.3025 55.0566C83.5018 55.0801 83.6834 55.1074 83.8475 55.1387V56.1465ZM87.4632 64.1387C87.2561 64.1934 87.0296 64.2383 86.7835 64.2734C86.5413 64.3086 86.3245 64.3262 86.1331 64.3262C85.4651 64.3262 84.9573 64.1465 84.6096 63.7871C84.262 63.4277 84.0882 62.8516 84.0882 62.0586V58.5781H83.344V57.6523H84.0882V55.7715H85.1897V57.6523H87.4632V58.5781H85.1897V61.5605C85.1897 61.9043 85.1975 62.1738 85.2132 62.3691C85.2288 62.5605 85.2835 62.7402 85.3772 62.9082C85.4632 63.0645 85.5804 63.1797 85.7288 63.2539C85.8811 63.3242 86.1116 63.3594 86.4202 63.3594C86.5999 63.3594 86.7874 63.334 86.9827 63.2832C87.178 63.2285 87.3186 63.1836 87.4046 63.1484H87.4632V64.1387ZM95.5793 56.1465H95.5207C95.3997 56.1113 95.2414 56.0762 95.0461 56.041C94.8508 56.002 94.6789 55.9824 94.5305 55.9824C94.0579 55.9824 93.7141 56.0879 93.4993 56.2988C93.2883 56.5059 93.1829 56.8828 93.1829 57.4297V57.6523H95.1692V58.5781H93.218V64.1973H92.1164V58.5781H91.3723V57.6523H92.1164V57.4355C92.1164 56.6582 92.3098 56.0625 92.6965 55.6484C93.0832 55.2305 93.6418 55.0215 94.3723 55.0215C94.6184 55.0215 94.8391 55.0332 95.0344 55.0566C95.2336 55.0801 95.4153 55.1074 95.5793 55.1387V56.1465ZM101.375 60.9277C101.375 61.9941 101.101 62.8359 100.554 63.4531C100.008 64.0703 99.2751 64.3789 98.3571 64.3789C97.4314 64.3789 96.695 64.0703 96.1482 63.4531C95.6052 62.8359 95.3337 61.9941 95.3337 60.9277C95.3337 59.8613 95.6052 59.0195 96.1482 58.4023C96.695 57.7812 97.4314 57.4707 98.3571 57.4707C99.2751 57.4707 100.008 57.7812 100.554 58.4023C101.101 59.0195 101.375 59.8613 101.375 60.9277ZM100.238 60.9277C100.238 60.0801 100.072 59.4512 99.74 59.041C99.4079 58.627 98.947 58.4199 98.3571 58.4199C97.7595 58.4199 97.2946 58.627 96.9626 59.041C96.6345 59.4512 96.4704 60.0801 96.4704 60.9277C96.4704 61.748 96.6364 62.3711 96.9685 62.7969C97.3005 63.2188 97.7634 63.4297 98.3571 63.4297C98.9431 63.4297 99.4021 63.2207 99.7341 62.8027C100.07 62.3809 100.238 61.7559 100.238 60.9277ZM106.69 58.8535H106.631C106.467 58.8145 106.307 58.7871 106.151 58.7715C105.998 58.752 105.817 58.7422 105.606 58.7422C105.266 58.7422 104.938 58.8184 104.621 58.9707C104.305 59.1191 104 59.3125 103.707 59.5508V64.1973H102.606V57.6523H103.707V58.6191C104.145 58.2676 104.529 58.0195 104.862 57.875C105.197 57.7266 105.539 57.6523 105.887 57.6523C106.078 57.6523 106.217 57.6582 106.303 57.6699C106.389 57.6777 106.518 57.6953 106.69 57.7227V58.8535ZM116.646 57.6523L112.825 66.6113H111.648L112.866 63.8809L110.259 57.6523H111.454L113.464 62.5039L115.491 57.6523H116.646ZM123.08 60.9277C123.08 61.9941 122.806 62.8359 122.259 63.4531C121.713 64.0703 120.98 64.3789 120.062 64.3789C119.136 64.3789 118.4 64.0703 117.853 63.4531C117.31 62.8359 117.039 61.9941 117.039 60.9277C117.039 59.8613 117.31 59.0195 117.853 58.4023C118.4 57.7812 119.136 57.4707 120.062 57.4707C120.98 57.4707 121.713 57.7812 122.259 58.4023C122.806 59.0195 123.08 59.8613 123.08 60.9277ZM121.943 60.9277C121.943 60.0801 121.777 59.4512 121.445 59.041C121.113 58.627 120.652 58.4199 120.062 58.4199C119.464 58.4199 119 58.627 118.668 59.041C118.339 59.4512 118.175 60.0801 118.175 60.9277C118.175 61.748 118.341 62.3711 118.673 62.7969C119.006 63.2188 119.468 63.4297 120.062 63.4297C120.648 63.4297 121.107 63.2207 121.439 62.8027C121.775 62.3809 121.943 61.7559 121.943 60.9277ZM129.736 64.1973H128.635V63.4707C128.264 63.7637 127.908 63.9883 127.568 64.1445C127.229 64.3008 126.854 64.3789 126.443 64.3789C125.756 64.3789 125.221 64.1699 124.838 63.752C124.455 63.3301 124.264 62.7129 124.264 61.9004V57.6523H125.365V61.3789C125.365 61.7109 125.381 61.9961 125.412 62.2344C125.443 62.4688 125.51 62.6699 125.611 62.8379C125.717 63.0098 125.854 63.1348 126.022 63.2129C126.19 63.291 126.434 63.3301 126.754 63.3301C127.039 63.3301 127.35 63.2559 127.686 63.1074C128.026 62.959 128.342 62.7695 128.635 62.5391V57.6523H129.736V64.1973ZM135.508 58.8535H135.45C135.286 58.8145 135.126 58.7871 134.969 58.7715C134.817 58.752 134.635 58.7422 134.424 58.7422C134.085 58.7422 133.756 58.8184 133.44 58.9707C133.124 59.1191 132.819 59.3125 132.526 59.5508V64.1973H131.424V57.6523H132.526V58.6191C132.963 58.2676 133.348 58.0195 133.68 57.875C134.016 57.7266 134.358 57.6523 134.706 57.6523C134.897 57.6523 135.036 57.6582 135.122 57.6699C135.208 57.6777 135.337 57.6953 135.508 57.7227V58.8535ZM145.412 64.1973H139.892V55.4727H141.052V63.166H145.412V64.1973ZM151.482 61.0391H146.66C146.66 61.4414 146.721 61.793 146.842 62.0938C146.963 62.3906 147.129 62.6348 147.34 62.8262C147.543 63.0137 147.783 63.1543 148.061 63.248C148.342 63.3418 148.65 63.3887 148.986 63.3887C149.432 63.3887 149.879 63.3008 150.328 63.125C150.781 62.9453 151.104 62.7695 151.295 62.5977H151.354V63.7988C150.982 63.9551 150.604 64.0859 150.217 64.1914C149.83 64.2969 149.424 64.3496 148.998 64.3496C147.912 64.3496 147.064 64.0566 146.455 63.4707C145.846 62.8809 145.541 62.0449 145.541 60.9629C145.541 59.8926 145.832 59.043 146.414 58.4141C147 57.7852 147.77 57.4707 148.723 57.4707C149.606 57.4707 150.285 57.7285 150.762 58.2441C151.242 58.7598 151.482 59.4922 151.482 60.4414V61.0391ZM150.41 60.1953C150.406 59.6172 150.26 59.1699 149.971 58.8535C149.686 58.5371 149.25 58.3789 148.664 58.3789C148.074 58.3789 147.604 58.5527 147.252 58.9004C146.904 59.248 146.707 59.6797 146.66 60.1953H150.41ZM156.071 64.1387C155.864 64.1934 155.637 64.2383 155.391 64.2734C155.149 64.3086 154.932 64.3262 154.741 64.3262C154.073 64.3262 153.565 64.1465 153.217 63.7871C152.87 63.4277 152.696 62.8516 152.696 62.0586V58.5781H151.952V57.6523H152.696V55.7715H153.797V57.6523H156.071V58.5781H153.797V61.5605C153.797 61.9043 153.805 62.1738 153.821 62.3691C153.836 62.5605 153.891 62.7402 153.985 62.9082C154.071 63.0645 154.188 63.1797 154.336 63.2539C154.489 63.3242 154.719 63.3594 155.028 63.3594C155.208 63.3594 155.395 63.334 155.59 63.2832C155.786 63.2285 155.926 63.1836 156.012 63.1484H156.071V64.1387ZM160.325 64.1387C160.118 64.1934 159.892 64.2383 159.646 64.2734C159.403 64.3086 159.187 64.3262 158.995 64.3262C158.327 64.3262 157.819 64.1465 157.472 63.7871C157.124 63.4277 156.95 62.8516 156.95 62.0586V58.5781H156.206V57.6523H156.95V55.7715H158.052V57.6523H160.325V58.5781H158.052V61.5605C158.052 61.9043 158.06 62.1738 158.075 62.3691C158.091 62.5605 158.146 62.7402 158.239 62.9082C158.325 63.0645 158.442 63.1797 158.591 63.2539C158.743 63.3242 158.974 63.3594 159.282 63.3594C159.462 63.3594 159.649 63.334 159.845 63.2832C160.04 63.2285 160.181 63.1836 160.267 63.1484H160.325V64.1387ZM166.66 61.0391H161.837C161.837 61.4414 161.898 61.793 162.019 62.0938C162.14 62.3906 162.306 62.6348 162.517 62.8262C162.72 63.0137 162.96 63.1543 163.238 63.248C163.519 63.3418 163.828 63.3887 164.164 63.3887C164.609 63.3887 165.056 63.3008 165.505 63.125C165.958 62.9453 166.281 62.7695 166.472 62.5977H166.531V63.7988C166.16 63.9551 165.781 64.0859 165.394 64.1914C165.007 64.2969 164.601 64.3496 164.175 64.3496C163.089 64.3496 162.242 64.0566 161.632 63.4707C161.023 62.8809 160.718 62.0449 160.718 60.9629C160.718 59.8926 161.009 59.043 161.591 58.4141C162.177 57.7852 162.947 57.4707 163.9 57.4707C164.783 57.4707 165.462 57.7285 165.939 58.2441C166.419 58.7598 166.66 59.4922 166.66 60.4414V61.0391ZM165.587 60.1953C165.583 59.6172 165.437 59.1699 165.148 58.8535C164.863 58.5371 164.427 58.3789 163.841 58.3789C163.251 58.3789 162.781 58.5527 162.429 58.9004C162.082 59.248 161.884 59.6797 161.837 60.1953H165.587ZM171.934 58.8535H171.875C171.711 58.8145 171.551 58.7871 171.394 58.7715C171.242 58.752 171.061 58.7422 170.85 58.7422C170.51 58.7422 170.182 58.8184 169.865 58.9707C169.549 59.1191 169.244 59.3125 168.951 59.5508V64.1973H167.85V57.6523H168.951V58.6191C169.389 58.2676 169.773 58.0195 170.105 57.875C170.441 57.7266 170.783 57.6523 171.131 57.6523C171.322 57.6523 171.461 57.6582 171.547 57.6699C171.633 57.6777 171.762 57.6953 171.934 57.7227V58.8535ZM183.536 64.1973H182.03L179.112 60.7285H177.477V64.1973H176.317V55.4727H178.761C179.288 55.4727 179.727 55.5078 180.079 55.5781C180.431 55.6445 180.747 55.7656 181.028 55.9414C181.345 56.1406 181.591 56.3926 181.767 56.6973C181.946 56.998 182.036 57.3809 182.036 57.8457C182.036 58.4746 181.878 59.002 181.561 59.4277C181.245 59.8496 180.809 60.168 180.255 60.3828L183.536 64.1973ZM180.823 57.9277C180.823 57.6777 180.778 57.457 180.688 57.2656C180.602 57.0703 180.458 56.9062 180.255 56.7734C180.087 56.6602 179.888 56.582 179.657 56.5391C179.427 56.4922 179.155 56.4688 178.843 56.4688H177.477V59.7617H178.649C179.017 59.7617 179.337 59.7305 179.61 59.668C179.884 59.6016 180.116 59.4805 180.308 59.3047C180.483 59.1406 180.612 58.9531 180.694 58.7422C180.78 58.5273 180.823 58.2559 180.823 57.9277ZM189.279 61.0391H184.456C184.456 61.4414 184.517 61.793 184.638 62.0938C184.759 62.3906 184.925 62.6348 185.136 62.8262C185.339 63.0137 185.579 63.1543 185.857 63.248C186.138 63.3418 186.447 63.3887 186.783 63.3887C187.228 63.3887 187.675 63.3008 188.124 63.125C188.578 62.9453 188.9 62.7695 189.091 62.5977H189.15V63.7988C188.779 63.9551 188.4 64.0859 188.013 64.1914C187.626 64.2969 187.22 64.3496 186.794 64.3496C185.708 64.3496 184.861 64.0566 184.251 63.4707C183.642 62.8809 183.337 62.0449 183.337 60.9629C183.337 59.8926 183.628 59.043 184.21 58.4141C184.796 57.7852 185.566 57.4707 186.519 57.4707C187.402 57.4707 188.081 57.7285 188.558 58.2441C189.038 58.7598 189.279 59.4922 189.279 60.4414V61.0391ZM188.206 60.1953C188.203 59.6172 188.056 59.1699 187.767 58.8535C187.482 58.5371 187.046 58.3789 186.46 58.3789C185.871 58.3789 185.4 58.5527 185.048 58.9004C184.701 59.248 184.503 59.6797 184.456 60.1953H188.206ZM195.777 66.6113H194.676V63.459C194.336 63.752 193.998 63.9707 193.662 64.1152C193.326 64.2559 192.963 64.3262 192.572 64.3262C191.795 64.3262 191.174 64.0273 190.709 63.4297C190.248 62.8281 190.017 62 190.017 60.9453C190.017 60.3828 190.098 59.8867 190.258 59.457C190.422 59.0234 190.637 58.6602 190.902 58.3672C191.16 58.082 191.463 57.8613 191.81 57.7051C192.158 57.5488 192.525 57.4707 192.912 57.4707C193.264 57.4707 193.574 57.5098 193.844 57.5879C194.117 57.666 194.394 57.7812 194.676 57.9336L194.746 57.6523H195.777V66.6113ZM194.676 62.5332V58.8301C194.371 58.6934 194.101 58.5977 193.867 58.543C193.633 58.4883 193.379 58.4609 193.105 58.4609C192.469 58.4609 191.984 58.6777 191.652 59.1113C191.32 59.541 191.154 60.1348 191.154 60.8926C191.154 61.6582 191.287 62.248 191.553 62.6621C191.822 63.0723 192.244 63.2773 192.818 63.2773C193.139 63.2773 193.459 63.209 193.779 63.0723C194.099 62.9316 194.398 62.752 194.676 62.5332ZM202.891 64.1973H201.789V63.4707C201.418 63.7637 201.063 63.9883 200.723 64.1445C200.383 64.3008 200.008 64.3789 199.598 64.3789C198.911 64.3789 198.375 64.1699 197.993 63.752C197.61 63.3301 197.418 62.7129 197.418 61.9004V57.6523H198.52V61.3789C198.52 61.7109 198.536 61.9961 198.567 62.2344C198.598 62.4688 198.664 62.6699 198.766 62.8379C198.871 63.0098 199.008 63.1348 199.176 63.2129C199.344 63.291 199.588 63.3301 199.909 63.3301C200.194 63.3301 200.504 63.2559 200.84 63.1074C201.18 62.959 201.496 62.7695 201.789 62.5391V57.6523H202.891V64.1973ZM210.057 61.0391H205.235C205.235 61.4414 205.296 61.793 205.417 62.0938C205.538 62.3906 205.704 62.6348 205.915 62.8262C206.118 63.0137 206.358 63.1543 206.636 63.248C206.917 63.3418 207.225 63.3887 207.561 63.3887C208.007 63.3887 208.454 63.3008 208.903 63.125C209.356 62.9453 209.679 62.7695 209.87 62.5977H209.929V63.7988C209.557 63.9551 209.179 64.0859 208.792 64.1914C208.405 64.2969 207.999 64.3496 207.573 64.3496C206.487 64.3496 205.639 64.0566 205.03 63.4707C204.421 62.8809 204.116 62.0449 204.116 60.9629C204.116 59.8926 204.407 59.043 204.989 58.4141C205.575 57.7852 206.345 57.4707 207.298 57.4707C208.181 57.4707 208.86 57.7285 209.337 58.2441C209.817 58.7598 210.057 59.4922 210.057 60.4414V61.0391ZM208.985 60.1953C208.981 59.6172 208.835 59.1699 208.546 58.8535C208.261 58.5371 207.825 58.3789 207.239 58.3789C206.649 58.3789 206.179 58.5527 205.827 58.9004C205.479 59.248 205.282 59.6797 205.235 60.1953H208.985ZM215.923 62.3105C215.923 62.9082 215.675 63.3984 215.179 63.7812C214.687 64.1641 214.013 64.3555 213.158 64.3555C212.673 64.3555 212.228 64.2988 211.822 64.1855C211.419 64.0684 211.081 63.9414 210.808 63.8047V62.5684H210.867C211.214 62.8301 211.601 63.0391 212.027 63.1953C212.452 63.3477 212.861 63.4238 213.251 63.4238C213.736 63.4238 214.115 63.3457 214.388 63.1895C214.661 63.0332 214.798 62.7871 214.798 62.4512C214.798 62.1934 214.724 61.998 214.576 61.8652C214.427 61.7324 214.142 61.6191 213.72 61.5254C213.564 61.4902 213.359 61.4492 213.105 61.4023C212.855 61.3555 212.626 61.3047 212.419 61.25C211.845 61.0977 211.437 60.875 211.195 60.582C210.956 60.2852 210.837 59.9219 210.837 59.4922C210.837 59.2227 210.892 58.9688 211.001 58.7305C211.115 58.4922 211.285 58.2793 211.511 58.0918C211.73 57.9082 212.007 57.7637 212.343 57.6582C212.683 57.5488 213.062 57.4941 213.48 57.4941C213.87 57.4941 214.265 57.543 214.663 57.6406C215.066 57.7344 215.4 57.8496 215.665 57.9863V59.1641H215.607C215.326 58.957 214.984 58.7832 214.581 58.6426C214.179 58.498 213.785 58.4258 213.398 58.4258C212.995 58.4258 212.656 58.5039 212.378 58.6602C212.101 58.8125 211.962 59.041 211.962 59.3457C211.962 59.6152 212.046 59.8184 212.214 59.9551C212.378 60.0918 212.644 60.2031 213.011 60.2891C213.214 60.3359 213.441 60.3828 213.691 60.4297C213.945 60.4766 214.156 60.5195 214.324 60.5586C214.835 60.6758 215.23 60.877 215.507 61.1621C215.785 61.4512 215.923 61.834 215.923 62.3105ZM220.424 64.1387C220.217 64.1934 219.99 64.2383 219.744 64.2734C219.502 64.3086 219.285 64.3262 219.094 64.3262C218.426 64.3262 217.918 64.1465 217.57 63.7871C217.222 63.4277 217.049 62.8516 217.049 62.0586V58.5781H216.304V57.6523H217.049V55.7715H218.15V57.6523H220.424V58.5781H218.15V61.5605C218.15 61.9043 218.158 62.1738 218.174 62.3691C218.189 62.5605 218.244 62.7402 218.338 62.9082C218.424 63.0645 218.541 63.1797 218.689 63.2539C218.842 63.3242 219.072 63.3594 219.381 63.3594C219.56 63.3594 219.748 63.334 219.943 63.2832C220.138 63.2285 220.279 63.1836 220.365 63.1484H220.424V64.1387ZM23.5205 81.1973H22.4248V80.5C22.3271 80.5664 22.1943 80.6602 22.0264 80.7812C21.8623 80.8984 21.7021 80.9922 21.5459 81.0625C21.3623 81.1523 21.1514 81.2266 20.9131 81.2852C20.6748 81.3477 20.3955 81.3789 20.0752 81.3789C19.4854 81.3789 18.9854 81.1836 18.5752 80.793C18.165 80.4023 17.96 79.9043 17.96 79.2988C17.96 78.8027 18.0654 78.4023 18.2764 78.0977C18.4912 77.7891 18.7959 77.5469 19.1904 77.3711C19.5889 77.1953 20.0674 77.0762 20.626 77.0137C21.1846 76.9512 21.7842 76.9043 22.4248 76.873V76.7031C22.4248 76.4531 22.3799 76.2461 22.29 76.082C22.2041 75.918 22.0791 75.7891 21.915 75.6953C21.7588 75.6055 21.5713 75.5449 21.3525 75.5137C21.1338 75.4824 20.9053 75.4668 20.667 75.4668C20.3779 75.4668 20.0557 75.5059 19.7002 75.584C19.3447 75.6582 18.9775 75.7676 18.5986 75.9121H18.54V74.793C18.7549 74.7344 19.0654 74.6699 19.4717 74.5996C19.8779 74.5293 20.2783 74.4941 20.6729 74.4941C21.1338 74.4941 21.5342 74.5332 21.874 74.6113C22.2178 74.6855 22.5146 74.8145 22.7646 74.998C23.0107 75.1777 23.1982 75.4102 23.3271 75.6953C23.4561 75.9805 23.5205 76.334 23.5205 76.7559V81.1973ZM22.4248 79.5859V77.7637C22.0889 77.7832 21.6924 77.8125 21.2354 77.8516C20.7822 77.8906 20.4229 77.9473 20.1572 78.0215C19.8408 78.1113 19.585 78.252 19.3896 78.4434C19.1943 78.6309 19.0967 78.8906 19.0967 79.2227C19.0967 79.5977 19.21 79.8809 19.4365 80.0723C19.6631 80.2598 20.0088 80.3535 20.4736 80.3535C20.8604 80.3535 21.2139 80.2793 21.5342 80.1309C21.8545 79.9785 22.1514 79.7969 22.4248 79.5859ZM30.6343 81.1973H29.5327V77.4707C29.5327 77.1699 29.5151 76.8887 29.48 76.627C29.4448 76.3613 29.3804 76.1543 29.2866 76.0059C29.1889 75.8418 29.0483 75.7207 28.8647 75.6426C28.6811 75.5605 28.4429 75.5195 28.1499 75.5195C27.8491 75.5195 27.5346 75.5938 27.2065 75.7422C26.8784 75.8906 26.5639 76.0801 26.2632 76.3105V81.1973H25.1616V74.6523H26.2632V75.3789C26.6069 75.0938 26.9624 74.8711 27.3296 74.7109C27.6968 74.5508 28.0737 74.4707 28.4604 74.4707C29.1675 74.4707 29.7065 74.6836 30.0776 75.1094C30.4487 75.5352 30.6343 76.1484 30.6343 76.9492V81.1973ZM37.5839 81.1973H36.4824V80.5117C36.166 80.7852 35.8359 80.998 35.4921 81.1504C35.1484 81.3027 34.7754 81.3789 34.373 81.3789C33.5918 81.3789 32.9707 81.0781 32.5097 80.4766C32.0527 79.875 31.8242 79.041 31.8242 77.9746C31.8242 77.4199 31.9023 76.9258 32.0586 76.4922C32.2187 76.0586 32.4336 75.6895 32.7031 75.3848C32.9687 75.0879 33.2773 74.8613 33.6289 74.7051C33.9843 74.5488 34.3515 74.4707 34.7304 74.4707C35.0742 74.4707 35.3789 74.5078 35.6445 74.582C35.9101 74.6523 36.1894 74.7637 36.4824 74.916V72.0801H37.5839V81.1973ZM36.4824 79.5859V75.8301C36.1855 75.6973 35.9199 75.6055 35.6855 75.5547C35.4511 75.5039 35.1953 75.4785 34.9179 75.4785C34.3007 75.4785 33.8203 75.6934 33.4765 76.123C33.1328 76.5527 32.9609 77.1621 32.9609 77.9512C32.9609 78.7285 33.0937 79.3203 33.3593 79.7266C33.625 80.1289 34.0507 80.3301 34.6367 80.3301C34.9492 80.3301 35.2656 80.2617 35.5859 80.125C35.9062 79.9844 36.205 79.8047 36.4824 79.5859ZM47.6864 79.3105C47.6864 79.9082 47.4384 80.3984 46.9423 80.7812C46.4501 81.1641 45.7763 81.3555 44.9208 81.3555C44.4364 81.3555 43.9911 81.2988 43.5849 81.1855C43.1825 81.0684 42.8446 80.9414 42.5712 80.8047V79.5684H42.6298C42.9775 79.8301 43.3642 80.0391 43.79 80.1953C44.2157 80.3477 44.6239 80.4238 45.0146 80.4238C45.4989 80.4238 45.8779 80.3457 46.1513 80.1895C46.4247 80.0332 46.5614 79.7871 46.5614 79.4512C46.5614 79.1934 46.4872 78.998 46.3388 78.8652C46.1904 78.7324 45.9052 78.6191 45.4833 78.5254C45.3271 78.4902 45.122 78.4492 44.8681 78.4023C44.6181 78.3555 44.3896 78.3047 44.1825 78.25C43.6083 78.0977 43.2001 77.875 42.9579 77.582C42.7196 77.2852 42.6005 76.9219 42.6005 76.4922C42.6005 76.2227 42.6552 75.9688 42.7646 75.7305C42.8779 75.4922 43.0478 75.2793 43.2743 75.0918C43.4931 74.9082 43.7704 74.7637 44.1064 74.6582C44.4462 74.5488 44.8251 74.4941 45.2431 74.4941C45.6337 74.4941 46.0282 74.543 46.4267 74.6406C46.829 74.7344 47.163 74.8496 47.4286 74.9863V76.1641H47.37C47.0888 75.957 46.747 75.7832 46.3446 75.6426C45.9423 75.498 45.5478 75.4258 45.1611 75.4258C44.7587 75.4258 44.4189 75.5039 44.1415 75.6602C43.8642 75.8125 43.7255 76.041 43.7255 76.3457C43.7255 76.6152 43.8095 76.8184 43.9775 76.9551C44.1415 77.0918 44.4071 77.2031 44.7743 77.2891C44.9775 77.3359 45.204 77.3828 45.454 77.4297C45.7079 77.4766 45.9189 77.5195 46.0868 77.5586C46.5986 77.6758 46.9931 77.877 47.2704 78.1621C47.5478 78.4512 47.6864 78.834 47.6864 79.3105ZM54.2143 81.1973H53.1127V80.4707C52.7416 80.7637 52.3861 80.9883 52.0463 81.1445C51.7064 81.3008 51.3314 81.3789 50.9213 81.3789C50.2338 81.3789 49.6986 81.1699 49.3158 80.752C48.933 80.3301 48.7416 79.7129 48.7416 78.9004V74.6523H49.8432V78.3789C49.8432 78.7109 49.8588 78.9961 49.89 79.2344C49.9213 79.4688 49.9877 79.6699 50.0893 79.8379C50.1947 80.0098 50.3314 80.1348 50.4994 80.2129C50.6674 80.291 50.9115 80.3301 51.2318 80.3301C51.517 80.3301 51.8275 80.2559 52.1635 80.1074C52.5033 79.959 52.8197 79.7695 53.1127 79.5391V74.6523H54.2143V81.1973ZM61.662 77.875C61.662 78.4219 61.5839 78.9141 61.4276 79.3516C61.2753 79.7891 61.0682 80.1562 60.8065 80.4531C60.5292 80.7617 60.2245 80.9941 59.8925 81.1504C59.5604 81.3027 59.1952 81.3789 58.7968 81.3789C58.4257 81.3789 58.1014 81.334 57.8241 81.2441C57.5468 81.1582 57.2733 81.041 57.0038 80.8926L56.9335 81.1973H55.9022V72.0801H57.0038V75.3379C57.3124 75.084 57.6405 74.877 57.9882 74.7168C58.3358 74.5527 58.7264 74.4707 59.16 74.4707C59.9335 74.4707 60.5429 74.7676 60.9882 75.3613C61.4374 75.9551 61.662 76.793 61.662 77.875ZM60.5253 77.9043C60.5253 77.123 60.3964 76.5312 60.1386 76.1289C59.8807 75.7227 59.4647 75.5195 58.8905 75.5195C58.5702 75.5195 58.246 75.5898 57.9179 75.7305C57.5897 75.8672 57.285 76.0449 57.0038 76.2637V80.0137C57.3163 80.1543 57.5839 80.252 57.8065 80.3066C58.0331 80.3613 58.2889 80.3887 58.5741 80.3887C59.1835 80.3887 59.66 80.1895 60.0038 79.791C60.3514 79.3887 60.5253 78.7598 60.5253 77.9043ZM72.4496 81.1973H71.348V77.4707C71.348 77.1895 71.3343 76.918 71.307 76.6562C71.2836 76.3945 71.2308 76.1855 71.1488 76.0293C71.0589 75.8613 70.93 75.7344 70.7621 75.6484C70.5941 75.5625 70.3519 75.5195 70.0355 75.5195C69.7269 75.5195 69.4183 75.5977 69.1097 75.7539C68.8011 75.9062 68.4925 76.1016 68.1839 76.3398C68.1957 76.4297 68.2054 76.5352 68.2132 76.6562C68.2211 76.7734 68.225 76.8906 68.225 77.0078V81.1973H67.1234V77.4707C67.1234 77.1816 67.1097 76.9082 67.0824 76.6504C67.0589 76.3887 67.0062 76.1797 66.9242 76.0234C66.8343 75.8555 66.7054 75.7305 66.5375 75.6484C66.3695 75.5625 66.1273 75.5195 65.8109 75.5195C65.5101 75.5195 65.2074 75.5938 64.9027 75.7422C64.6019 75.8906 64.3011 76.0801 64.0004 76.3105V81.1973H62.8988V74.6523H64.0004V75.3789C64.3441 75.0938 64.6859 74.8711 65.0257 74.7109C65.3695 74.5508 65.7347 74.4707 66.1214 74.4707C66.5668 74.4707 66.9437 74.5645 67.2523 74.752C67.5648 74.9395 67.7972 75.1992 67.9496 75.5312C68.3949 75.1562 68.8011 74.8867 69.1683 74.7227C69.5355 74.5547 69.9281 74.4707 70.3461 74.4707C71.0648 74.4707 71.5941 74.6895 71.9339 75.127C72.2777 75.5605 72.4496 76.168 72.4496 76.9492V81.1973ZM75.2743 73.5566H74.0321V72.4141H75.2743V73.5566ZM75.2039 81.1973H74.1024V74.6523H75.2039V81.1973ZM80.3021 81.1387C80.095 81.1934 79.8685 81.2383 79.6224 81.2734C79.3802 81.3086 79.1634 81.3262 78.972 81.3262C78.304 81.3262 77.7962 81.1465 77.4486 80.7871C77.1009 80.4277 76.9271 79.8516 76.9271 79.0586V75.5781H76.1829V74.6523H76.9271V72.7715H78.0286V74.6523H80.3021V75.5781H78.0286V78.5605C78.0286 78.9043 78.0364 79.1738 78.0521 79.3691C78.0677 79.5605 78.1224 79.7402 78.2161 79.9082C78.3021 80.0645 78.4193 80.1797 78.5677 80.2539C78.72 80.3242 78.9505 80.3594 79.2591 80.3594C79.4388 80.3594 79.6263 80.334 79.8216 80.2832C80.0169 80.2285 80.1575 80.1836 80.2435 80.1484H80.3021V81.1387Z" fill="#384F69"/>
<path d="M282.628 138.589C284.046 136.789 284.936 134.63 285.196 132.354C285.196 132.354 290.168 129.597 292.909 129.341C292.909 129.341 297.037 136.17 297.585 136.631C297.585 136.631 302.741 135.236 307.843 133.498C315.067 131.038 343.803 122.641 354.029 121.089C354.029 121.089 343.205 98.8578 340.412 90.3576C339.296 86.96 336.299 79.0506 334.007 70.1028C331.856 61.7074 329.822 53.5358 329.516 50.8152C329.516 50.8152 322.231 49.6099 308.949 50.1853C308.949 50.1853 307.251 45.0914 307.224 43.4478C302.129 43.7945 297.067 44.5178 292.079 45.6116C281.667 47.7964 267.416 52.0633 255.271 59.2317C256.588 66.1391 259.789 76.4212 259.553 76.6928C259.553 76.6928 257.544 74.3368 256.741 74.1669C257.236 75.8626 257.588 77.5971 257.791 79.352C258.01 81.7619 259.334 100.074 260.968 106.109C262.696 112.489 269.732 124.099 272.224 126.758C272.224 126.758 269.964 126.286 268.773 126.642C269.395 127.909 270.084 129.142 270.836 130.336C271.53 131.286 275.716 137.521 282.628 138.589Z" fill="white"/>
<path d="M293.002 60.1154C293.915 59.7075 300.522 58.0415 303.537 63.6798C306.714 69.6219 303.15 74.1014 298.753 75.7778C295.095 77.1728 289.259 74.8435 287.96 70.4124C286.518 65.4889 289.332 61.7553 293.002 60.1154Z" fill="#005BC3"/>
<path d="M338.54 102.547C339.137 101.451 338.306 100.385 337.11 100.974C337.198 100.554 337.37 99.2865 336.111 99.2251C335.161 99.1786 334.933 100.246 334.905 100.615C334.72 100.505 334.509 100.446 334.294 100.445C334.079 100.444 333.867 100.5 333.682 100.608C332.442 101.445 334.06 103.902 335.531 104.088C335.422 105.238 335.236 106.379 334.973 107.503C334.771 105.92 333.871 103.897 332.648 104.923C331.427 105.938 333.2 108.121 334.733 108.323C334.743 108.322 334.753 108.321 334.763 108.319C334.404 109.655 333.927 110.958 333.337 112.21C333.337 111.342 333.137 110.134 332.641 109.609C332.133 109.07 330.694 109.113 330.957 110.853C331.053 111.369 331.275 111.852 331.604 112.261C331.932 112.67 332.356 112.992 332.839 113.197C332.167 114.454 331.376 115.645 330.477 116.751C330.649 115.899 330.752 114.492 330.255 113.904C329.758 113.315 328.418 113.346 328.387 114.851C328.395 115.376 328.534 115.892 328.791 116.35C329.047 116.809 329.414 117.196 329.857 117.478C329.016 118.432 328.083 119.3 327.071 120.071C327.451 119.299 327.84 118.17 327.583 117.523C327.504 117.368 327.388 117.234 327.247 117.132C327.105 117.03 326.941 116.963 326.769 116.937C326.596 116.911 326.42 116.927 326.254 116.982C326.089 117.038 325.939 117.132 325.817 117.257C325.655 117.425 325.55 117.641 325.519 117.872C325.393 118.395 325.39 118.941 325.511 119.465C325.633 119.99 325.874 120.479 326.217 120.893C326.824 121.403 327.583 121.697 328.375 121.729C328.838 121.734 329.297 121.646 329.724 121.468C330.611 121.079 331.15 119.484 329.848 119.227C329.423 119.171 328.99 119.222 328.589 119.375C329.1 118.914 329.587 118.428 330.05 117.918C330.538 118.185 331.076 118.347 331.63 118.394C332.184 118.441 332.742 118.372 333.268 118.192C334.904 117.51 334.567 114.765 331.249 116.478C332.005 115.484 332.677 114.429 333.257 113.323C333.822 113.43 334.404 113.404 334.957 113.247C335.509 113.091 336.018 112.808 336.444 112.422C337.139 111.786 337.106 110 335.728 110.296C335.142 110.479 334.618 110.818 334.212 111.277C334.576 110.38 334.887 109.463 335.142 108.53C336.077 108.748 337.325 108.092 337.932 107.363C338.505 106.681 338.255 105.09 337.039 105.469C336.413 105.76 335.891 106.236 335.544 106.833C335.724 105.941 335.859 105.041 335.946 104.135C336.473 104.091 336.981 103.924 337.431 103.649C337.882 103.373 338.261 102.996 338.54 102.547ZM332.75 106.192C332.469 105.572 333.001 104.868 333.556 105.157C334.277 105.533 334.592 107.379 334.59 107.888C334.184 107.747 333.811 107.523 333.494 107.231C333.177 106.94 332.924 106.586 332.75 106.192ZM325.918 118C326.3 116.981 327.096 117.325 327.184 117.658C327.39 118.444 326.673 120.055 326.366 120.461C326.104 120.115 325.926 119.712 325.848 119.284C325.77 118.857 325.794 118.417 325.918 118ZM329.75 119.637C330.556 119.919 329.993 120.887 329.552 121.084C329.102 121.263 328.617 121.336 328.134 121.299C327.652 121.261 327.184 121.114 326.767 120.869C327.149 120.502 328.905 119.341 329.748 119.634L329.75 119.637ZM329.966 117.071C329.62 116.811 329.336 116.477 329.136 116.093C328.935 115.71 328.822 115.287 328.806 114.854C328.806 113.816 329.663 113.871 329.913 114.151C330.456 114.756 330.139 116.591 329.966 117.071ZM333.293 116.361C334.05 116.492 333.732 117.583 333.095 117.808C332.645 117.968 332.166 118.033 331.689 117.998C331.213 117.962 330.748 117.828 330.327 117.603C330.732 117.139 332.489 116.224 333.293 116.361ZM332.884 112.779C332.506 112.571 332.176 112.287 331.916 111.943C331.655 111.6 331.47 111.206 331.371 110.786C331.182 109.984 331.872 109.51 332.345 109.909C332.972 110.432 332.972 112.278 332.884 112.779ZM335.788 110.712C336.639 110.574 336.477 111.783 336.14 112.129C335.789 112.461 335.366 112.708 334.904 112.852C334.442 112.997 333.953 113.034 333.474 112.961C333.693 112.476 334.907 110.855 335.788 110.712ZM337.543 101.194C338.206 100.964 338.466 101.845 338.17 102.346C337.943 102.714 337.639 103.027 337.278 103.265C336.917 103.503 336.508 103.659 336.081 103.723C336.163 103.22 336.775 101.461 337.543 101.194ZM336.075 99.6442C337.377 99.6858 336.53 101.537 336.346 101.904C336.342 101.91 335.974 102.648 335.857 102.98C335.78 102.35 335.599 101.737 335.319 101.168C335.319 101.158 335.236 99.6169 336.075 99.6436V99.6442ZM333.936 100.946C334.876 100.234 335.534 102.608 335.486 103.663C334.436 103.424 333.08 101.592 333.936 100.943V100.946ZM337.16 105.876C337.904 105.694 337.87 106.761 337.604 107.11C337.328 107.444 336.98 107.712 336.585 107.892C336.191 108.072 335.762 108.16 335.328 108.151C335.483 107.663 336.367 106.067 337.157 105.87L337.16 105.876Z" fill="#414141"/>
<path d="M316.423 123.143C316.467 122.599 316.383 122.052 316.179 121.546C315.974 121.041 315.654 120.589 315.245 120.229C314.439 119.625 312.889 119.959 313.33 121.138C313.767 121.924 314.433 122.559 315.239 122.958C313.95 122.906 312.669 122.73 311.414 122.433C311.848 121.677 311.645 120.223 311.052 119.367C310.503 118.575 308.944 118.499 309.015 119.687C309.062 120.476 309.87 121.602 310.51 122.202C309.116 121.786 307.759 121.253 306.455 120.608C307.374 119.481 306.996 116.619 305.44 116.769C303.897 116.912 304.581 118.803 305.48 120.077C304.258 119.378 303.101 118.572 302.022 117.668C302.034 117.662 302.052 117.663 302.062 117.655C302.448 117.263 302.726 116.777 302.869 116.246C303.012 115.714 303.015 115.155 302.878 114.622C302.839 114.36 302.713 114.12 302.52 113.939C302.328 113.758 302.079 113.648 301.816 113.625C300.212 113.492 300.619 115.676 301.37 117.097C300.504 116.321 299.692 115.488 298.939 114.603C300.004 113.643 300.046 110.711 298.455 110.643C298.233 110.643 298.017 110.712 297.836 110.841C297.655 110.969 297.518 111.15 297.444 111.359C297.206 111.07 296.426 110.327 295.636 110.905C295.056 111.33 294.928 112.095 295.822 112.937C295.177 113.064 294.817 113.346 294.768 113.841C294.744 114.103 294.807 114.367 294.949 114.59C295.09 114.812 295.302 114.982 295.551 115.071C296.048 115.248 296.576 115.323 297.103 115.29C297.63 115.257 298.145 115.118 298.617 114.88C299.217 115.583 299.853 116.254 300.522 116.89C299.825 116.619 297.821 116.079 297.886 117.619C297.952 119.186 300.873 119.142 301.843 118.068C302.596 118.693 303.386 119.271 304.208 119.801C303.53 119.672 301.681 119.553 301.863 121.006C302.069 122.645 305.264 122.266 306.189 120.944C307.314 121.524 308.483 122.009 309.688 122.395C308.877 122.504 306.929 123.144 307.544 124.451C308.205 125.858 311.023 124.488 311.512 122.888C312.283 123.063 312.98 123.176 313.591 123.252C313.144 123.39 311.887 123.865 312.454 125.094C313.1 126.502 316.163 125.178 316.423 123.143ZM295.608 111.829C295.512 110.765 297.058 110.948 297.406 112.043C297.517 112.691 297.732 113.317 298.044 113.896C297.389 113.427 295.686 112.707 295.608 111.829ZM295.192 113.887C295.47 112.545 297.936 114.276 298.272 114.621C297.305 115.28 294.987 114.878 295.192 113.887ZM298.439 111.07C299.46 111.002 299.509 113.371 298.731 114.222C298.416 113.815 296.976 111.168 298.437 111.07H298.439ZM298.313 117.601C298.313 116.151 301.117 117.588 301.469 117.854C300.64 118.626 298.313 118.646 298.313 117.601ZM301.202 114.346C301.236 114.247 301.302 114.163 301.391 114.108C301.479 114.054 301.584 114.031 301.687 114.045C303.108 114.045 302.471 116.851 301.929 117.212C301.631 116.79 300.901 115.112 301.2 114.346H301.202ZM302.281 120.935C302.24 119.378 305.437 120.558 305.796 120.771C304.953 121.817 302.311 122.037 302.281 120.935ZM306.18 120.279C305.814 119.915 304.799 118.392 304.96 117.585C304.992 117.421 305.079 117.213 305.478 117.192C306.783 117.135 306.582 119.706 306.181 120.28L306.18 120.279ZM308.923 124.573C308.442 124.666 308.023 124.586 307.905 124.232C307.399 122.721 311.063 122.787 311.1 122.796C310.895 123.237 310.593 123.626 310.216 123.935C309.84 124.243 309.398 124.462 308.925 124.575L308.923 124.573ZM311.093 122.146C310.671 121.848 309.443 120.515 309.443 119.693C309.443 118.949 310.492 119.138 310.769 119.634C310.989 120.01 311.131 120.426 311.187 120.858C311.242 121.29 311.21 121.729 311.092 122.148L311.093 122.146ZM313.742 121.018C313.551 120.204 314.585 120.217 314.99 120.567C315.319 120.854 315.583 121.208 315.764 121.605C315.946 122.002 316.041 122.433 316.044 122.87C315.556 122.712 313.93 121.82 313.742 121.02L313.742 121.018ZM312.815 124.875C312.101 123.181 315.927 123.405 316.02 123.42C315.619 124.712 313.241 125.886 312.815 124.877L312.815 124.875Z" fill="#414141"/>
<path d="M310.479 60.3041C310.42 60.3035 310.363 60.2804 310.321 60.2394C310.278 60.1984 310.253 60.1427 310.25 60.0837C310.247 60.0247 310.267 59.9668 310.306 59.922C310.344 59.8772 310.399 59.8489 310.457 59.8428C310.539 59.8354 318.648 59.0821 322.15 58.9233C322.208 58.9253 322.264 58.9492 322.305 58.9903C322.347 59.0313 322.371 59.0865 322.374 59.1448C322.376 59.2031 322.357 59.2603 322.319 59.3049C322.282 59.3494 322.228 59.3781 322.17 59.3852C318.124 59.5681 310.661 60.3041 310.479 60.3041Z" fill="#7BD2FF"/>
<path d="M312.512 68.4504C312.587 68.4436 320.072 67.7275 325.072 67.6345C325.102 67.6331 325.133 67.6379 325.161 67.6486C325.19 67.6594 325.216 67.6758 325.238 67.697C325.26 67.7182 325.278 67.7436 325.29 67.7718C325.302 67.8 325.308 67.8303 325.307 67.8608C325.317 68.4132 324.963 67.7368 312.556 68.9111C312.495 68.917 312.434 68.8984 312.387 68.8594C312.34 68.8204 312.31 68.7642 312.304 68.7031C312.298 68.642 312.316 68.5811 312.355 68.5337C312.395 68.4863 312.451 68.4564 312.512 68.4504Z" fill="#7BD2FF"/>
<path d="M317.367 78.7941C317.31 78.7934 317.254 78.7713 317.212 78.7321C317.17 78.6929 317.144 78.6394 317.139 78.5821C317.135 78.5248 317.151 78.4678 317.186 78.4221C317.221 78.3765 317.272 78.3455 317.329 78.3353C317.388 78.3253 323.219 77.329 325.893 77.0593C325.952 77.0567 326.01 77.0769 326.055 77.1156C326.099 77.1544 326.128 77.2088 326.134 77.2677C326.139 77.3266 326.123 77.3855 326.087 77.4324C326.05 77.4793 325.998 77.5107 325.939 77.52C323.106 77.8052 317.443 78.7941 317.367 78.7941Z" fill="#7BD2FF"/>
<path d="M289.83 95.6502C289.776 95.65 289.723 95.6304 289.681 95.5949C289.64 95.5593 289.612 95.5102 289.603 95.4562C289.595 95.4022 289.606 95.347 289.634 95.3002C289.662 95.2534 289.706 95.2179 289.757 95.2001C289.881 95.158 302.582 90.9562 327.361 85.8462C327.406 85.8385 327.451 85.8439 327.492 85.8615C327.533 85.8792 327.568 85.9085 327.593 85.9457C327.618 85.983 327.631 86.0266 327.632 86.0714C327.632 86.1161 327.619 86.16 327.595 86.1977C327.563 86.2484 327.513 86.2846 327.455 86.2988C299.334 92.0976 290.432 95.6502 289.83 95.6502Z" fill="#7BD2FF"/>
<path d="M292.835 104.097C292.78 104.096 292.727 104.076 292.685 104.04C292.644 104.004 292.616 103.954 292.608 103.9C292.599 103.845 292.611 103.789 292.64 103.742C292.67 103.696 292.715 103.661 292.768 103.645C292.994 103.576 315.592 96.6821 329.879 93.1859C329.937 93.1738 329.998 93.185 330.049 93.2171C330.099 93.2491 330.135 93.2996 330.149 93.3577C330.163 93.4156 330.155 93.4769 330.125 93.5286C330.095 93.5803 330.046 93.6184 329.989 93.6348C314.698 97.374 293.004 104.097 292.835 104.097Z" fill="#7BD2FF"/>
<path d="M305.655 108.955C305.798 108.907 320.045 104.141 326.371 102.424C326.43 102.409 326.493 102.417 326.546 102.447C326.599 102.478 326.638 102.528 326.655 102.586C326.789 103.082 326.606 102.443 305.802 109.393C305.744 109.411 305.682 109.406 305.628 109.378C305.575 109.351 305.534 109.303 305.515 109.246C305.496 109.189 305.5 109.126 305.526 109.072C305.552 109.018 305.598 108.976 305.655 108.955Z" fill="#7BD2FF"/>
<path d="M315.625 114.033C315.583 114.033 315.541 114.021 315.505 114C315.469 113.978 315.44 113.947 315.42 113.91C315.401 113.872 315.392 113.831 315.394 113.789C315.396 113.747 315.41 113.706 315.434 113.671C315.466 113.625 315.514 113.592 315.568 113.578C323.028 111.637 323.276 111.01 323.437 111.475C323.447 111.504 323.451 111.534 323.449 111.565C323.447 111.595 323.44 111.625 323.426 111.652C323.413 111.679 323.394 111.703 323.372 111.724C323.349 111.744 323.322 111.759 323.293 111.769C320.795 112.628 315.876 114.033 315.625 114.033Z" fill="#7BD2FF"/>
<path d="M261.952 69.3605C261.898 69.3606 261.847 69.3425 261.806 69.3091C261.764 69.2758 261.736 69.2293 261.725 69.1774C261.714 69.1255 261.721 69.0714 261.745 69.0241C261.769 68.9768 261.809 68.9393 261.857 68.9178C264.768 67.5991 267.755 66.4543 270.801 65.4892C270.86 65.4753 270.922 65.4847 270.973 65.5154C271.025 65.5462 271.063 65.5959 271.078 65.654C271.094 65.7121 271.086 65.774 271.057 65.8266C271.028 65.8791 270.979 65.9183 270.922 65.9356C267.319 66.909 262.121 69.3605 261.952 69.3605Z" fill="#7BD2FF"/>
<path d="M265.95 77.9701C265.896 77.9699 265.845 77.9513 265.804 77.9176C265.763 77.8838 265.734 77.8369 265.724 77.7848C265.713 77.7326 265.721 77.6784 265.746 77.6313C265.77 77.5842 265.811 77.5471 265.86 77.5262C267.849 76.6822 269.894 75.9779 271.981 75.4182C272.041 75.4048 272.103 75.4157 272.155 75.4486C272.207 75.4814 272.244 75.5335 272.257 75.5933C272.271 75.6532 272.26 75.7159 272.227 75.7677C272.194 75.8195 272.142 75.8561 272.082 75.8695C269.996 76.4427 267.948 77.1442 265.95 77.9701Z" fill="#7BD2FF"/>
<path d="M270.121 87.1365C270.066 87.1362 270.014 87.1169 269.973 87.0819C269.931 87.047 269.903 86.9986 269.894 86.9452C269.885 86.8919 269.894 86.8369 269.921 86.7899C269.948 86.7429 269.991 86.707 270.042 86.6882C271.178 86.2633 272.339 85.9084 273.518 85.6255C273.557 85.6175 273.596 85.6193 273.634 85.6309C273.671 85.6425 273.705 85.6634 273.732 85.6917C273.759 85.72 273.779 85.7547 273.789 85.7926C273.799 85.8305 273.799 85.8703 273.789 85.9083C273.778 85.954 273.753 85.9953 273.717 86.0263C273.682 86.0574 273.638 86.0768 273.591 86.0819C272.537 86.2499 270.234 87.1365 270.121 87.1365Z" fill="#7BD2FF"/>
<path d="M284.763 138.323C284.842 138.306 286.691 137.859 287.173 135.122C287.184 135.062 287.218 135.008 287.268 134.972C287.293 134.955 287.321 134.943 287.351 134.936C287.396 134.926 287.442 134.929 287.485 134.946C287.527 134.962 287.564 134.991 287.59 135.029C287.625 135.079 287.639 135.141 287.629 135.202C287.09 138.258 284.953 138.755 284.862 138.774C284.803 138.785 284.743 138.772 284.693 138.739C284.644 138.705 284.609 138.655 284.596 138.596C284.583 138.538 284.593 138.477 284.624 138.426C284.656 138.375 284.705 138.338 284.763 138.323Z" fill="#414141"/>
<path d="M296.565 71.409C295.776 71.409 292.725 68.371 292.363 68.0994C292.312 68.0604 292.273 68.0072 292.251 67.9463C292.229 67.8854 292.226 67.8196 292.241 67.7567C292.256 67.6939 292.289 67.6368 292.336 67.5925C292.383 67.5482 292.442 67.5186 292.506 67.5073C292.591 67.4934 292.678 67.5137 292.749 67.5637C292.997 67.7411 295.719 70.3475 296.487 70.7158C297.025 69.9328 298.645 65.0069 298.871 64.0087C298.893 63.926 298.946 63.8552 299.019 63.8109C299.092 63.7667 299.179 63.7525 299.263 63.7713C299.346 63.7902 299.419 63.8406 299.466 63.9121C299.513 63.9835 299.531 64.0703 299.515 64.1544C299.402 64.6559 297.429 71.409 296.565 71.409Z" fill="white"/>
<path d="M305.403 67.905C308.531 66.4716 307.681 64.5155 304.907 64.6035C305.62 63.8967 306.742 62.583 306.141 61.7515C305.54 60.9325 303.896 61.3882 303.004 61.7181C303.42 60.788 304.058 59.0043 303.163 58.4829C302.331 57.9943 301.11 58.9913 300.443 59.6516C300.606 56.4195 298.775 56.032 296.963 58.8989C296.147 56.3141 294.35 56.192 293.516 59.3211C291.19 56.7053 289.591 57.879 290.307 60.7874C287.736 59.4098 286.325 60.8314 288.121 63.2767C284.905 62.8371 284.593 64.4801 286.873 66.3606C284.32 66.7822 283.892 68.6155 287.071 69.84C286.358 70.3026 285.097 71.2865 285.493 72.2109C285.942 73.2606 287.601 73.2029 288.517 73.0826C288.015 73.7647 287.309 74.9842 288.055 75.7486C288.801 76.5131 290.349 75.8547 291.105 75.4585C291.013 76.1783 290.536 78.6428 292.433 78.7928C293.511 78.8784 294.685 77.1486 294.685 77.1486C294.685 77.1486 295.31 78.5889 296.21 78.8722C298.248 79.5145 298.574 77.1622 298.713 76.4542C299.168 76.8969 300.821 78.5523 302.252 77.161C302.968 76.4641 302.417 74.6977 302.417 74.6977C302.417 74.6977 304.016 75.1646 304.835 74.6054C306.402 73.534 305.112 71.5345 304.776 71.0794C306.968 71.2574 307.256 70.1215 307.271 69.8512C307.325 68.8821 306.136 68.2218 305.403 67.905ZM304.969 67.5882C304.944 66.7351 304.788 65.8909 304.507 65.0853C307.466 64.8162 307.83 66.4034 304.967 67.5882H304.969ZM305.768 62.028C306.158 62.5563 305.134 63.7913 304.295 64.5502C303.939 63.7199 303.451 62.953 302.849 62.2791C303.64 61.9555 305.33 61.4273 305.766 62.028H305.768ZM302.935 58.8784C303.51 59.2151 302.895 60.9052 302.439 61.8495C301.842 61.2547 301.161 60.7499 300.418 60.3509C300.952 59.7564 302.293 58.5021 302.933 58.8784H302.935ZM299.35 57.4524C300.069 57.6174 300.032 59.3348 299.944 60.1135C299.087 59.7143 298.17 59.458 297.23 59.3546C297.671 58.6205 298.635 57.2739 299.348 57.4518L299.35 57.4524ZM295.269 57.4326C296.081 57.4394 296.424 58.641 296.602 59.3013C295.705 59.2552 294.806 59.3465 293.936 59.5722C294.125 58.8189 294.607 57.432 295.267 57.432L295.269 57.4326ZM290.991 58.4035C291.618 58.0402 292.76 59.1432 293.295 59.7638C292.419 60.0573 291.594 60.4873 290.852 61.0379C290.631 60.3001 290.341 58.7793 290.988 58.4029L290.991 58.4035ZM287.92 60.9058C288.292 60.3379 289.921 61.0776 290.409 61.3814C289.758 61.9344 289.191 62.5796 288.726 63.2966C288.261 62.7348 287.488 61.5723 287.917 60.9052L287.92 60.9058ZM285.879 64.1088C286.025 63.5539 287.53 63.64 288.421 63.7919C287.991 64.5652 287.688 65.4025 287.523 66.2719C286.769 65.7257 285.719 64.7089 285.877 64.1081L285.879 64.1088ZM285.298 67.8288C285.338 67.0494 286.837 66.7921 287.444 66.7524C287.324 67.6714 287.355 68.6039 287.537 69.5127C286.821 69.2715 285.256 68.5852 285.294 67.8257L285.298 67.8288ZM285.926 72.0348C285.642 71.3683 287.062 70.3708 287.662 70.0273C287.904 70.9347 288.303 71.7928 288.84 72.5631C287.997 72.7255 286.273 72.8576 285.923 72.0317L285.926 72.0348ZM289.159 73.0101C289.726 73.7407 290.406 74.3762 291.173 74.8924C288.479 76.4759 287.162 75.4132 289.159 73.0101ZM293.009 78.0687C292.575 78.3061 290.901 78.7153 291.622 75.1696C292.549 75.7193 293.57 76.0932 294.633 76.2725C294.215 76.9721 293.663 77.5821 293.009 78.0674V78.0687ZM296.904 78.4847C295.623 78.6626 295.221 76.6247 295.221 76.3519C296.248 76.4633 297.287 76.3962 298.291 76.1535C298.291 76.6935 297.908 78.3421 296.904 78.4835V78.4847ZM301.542 77.0327C300.466 77.5876 299.434 76.5298 298.892 75.9818C299.98 75.6443 300.99 75.0945 301.864 74.3642C301.929 74.4752 302.565 76.5032 301.542 77.0314V77.0327ZM296.171 75.9421C294.581 75.8942 293.04 75.3788 291.74 74.4603C290.441 73.5417 289.441 72.2607 288.865 70.7772C288.29 69.2938 288.164 67.6736 288.503 66.119C288.843 64.5643 289.633 63.1442 290.775 62.036C291.917 60.9277 293.36 60.1804 294.924 59.8874C296.488 59.5943 298.104 59.7686 299.569 60.3883C301.035 61.0081 302.285 62.0459 303.165 63.3721C304.044 64.6983 304.513 66.2542 304.514 67.8455C304.478 70.0243 303.58 72.1 302.016 73.6175C300.452 75.135 298.35 75.9705 296.171 75.9408V75.9421ZM304.782 73.9017C303.93 74.8131 302.623 74.1993 302.266 74.0077C303.106 73.2017 303.787 72.2452 304.274 71.1879C304.545 71.5302 305.687 72.9301 304.782 73.9004V73.9017ZM304.498 70.6157C304.773 69.8496 304.929 69.0458 304.961 68.2324C305.654 68.4804 306.922 69.0973 306.809 69.8369C306.671 70.7242 305.079 70.6386 304.498 70.6119V70.6157Z" fill="#414141"/>
<path d="M294.594 78.0161C293.886 79.1321 292.371 79.9276 291.345 78.8748C290.301 82.1106 289.51 87.1555 289.925 87.4457C290.255 87.677 292.751 85.6365 293.335 85.1939C293.366 85.1715 293.403 85.1594 293.441 85.1594C293.478 85.1594 293.515 85.1715 293.546 85.1939C294.114 85.6167 296.187 87.5319 296.689 87.4327C297.115 87.3515 296.9 83.4715 297.35 79.3305C296.756 79.7633 295.173 79.5903 294.594 78.0161Z" fill="#414141"/>
<path d="M305.971 73.6162C305.955 74.1469 305.726 75.6256 303.026 75.3398C303.178 76.2642 303.353 77.8818 301.401 78.1069C302.22 79.6916 305.086 85.0999 305.549 85.0267C305.925 84.9647 307.153 81.1969 307.331 80.6557C307.336 80.6372 307.348 80.6211 307.363 80.6098C307.379 80.5986 307.398 80.5929 307.417 80.5937C307.972 80.6266 311.366 80.9502 311.504 80.6861C311.892 79.965 306.56 74.2133 305.971 73.6162Z" fill="#414141"/>
<path d="M329.773 50.8142C329.756 50.7423 329.711 50.6801 329.649 50.6412C329.285 50.4291 320.772 49.5698 309.168 50.0416C309.133 49.8501 307.719 46.4959 307.519 43.3791C307.516 43.3382 307.502 43.2988 307.48 43.2644C307.457 43.2299 307.427 43.2016 307.391 43.182C306.818 42.8782 277.682 45.7922 255.213 58.9665C255.022 59.0781 254.523 59.3844 259.333 76.1722C258.072 74.7666 257.14 73.9253 256.794 73.8162C256.534 73.7368 256.285 73.9309 256.457 74.3413C258.276 78.6968 257.974 89.8605 259.834 101.988C261.481 112.729 269.878 124.026 271.837 126.54C270.578 126.276 268.958 126.036 268.617 126.46C268.566 126.524 268.536 126.602 268.53 126.684C268.524 126.765 268.542 126.847 268.583 126.917C273.643 137.478 282.433 138.837 282.521 138.849C282.531 138.849 284.51 143.174 285.535 145.373C285.562 145.426 285.609 145.467 285.666 145.486C285.722 145.506 285.784 145.502 285.838 145.476C285.893 145.452 285.935 145.407 285.957 145.351C285.978 145.295 285.978 145.233 285.954 145.178C284.924 142.969 283.912 140.751 282.916 138.526C284.247 136.789 285.11 134.74 285.422 132.574C285.459 132.574 289.473 130.214 292.832 129.573C294.214 131.98 295.67 134.345 297.199 136.662C298.027 137.911 321.09 127.7 354.066 121.335C354.105 121.325 354.141 121.308 354.172 121.284C354.203 121.26 354.229 121.229 354.248 121.195C354.749 120.168 337.301 92.8415 329.773 50.8142ZM282.697 138.039C275.121 121.135 268.497 103.82 262.857 86.1746C262.839 86.1165 262.799 86.068 262.745 86.0395C262.691 86.011 262.628 86.005 262.57 86.0226C262.511 86.0402 262.462 86.0802 262.433 86.1337C262.404 86.1872 262.398 86.2501 262.415 86.3085C268.075 104.013 274.724 121.386 282.331 138.345C280.866 138.035 273.485 136.043 269.011 126.735C269.328 126.596 270.817 126.768 272.373 127.135C272.42 127.145 272.469 127.141 272.514 127.122C272.558 127.104 272.596 127.072 272.621 127.031C272.647 126.991 272.659 126.943 272.656 126.895C272.653 126.846 272.635 126.8 272.605 126.763C272.5 126.636 262.131 113.908 260.293 101.921C258.473 90.0502 258.73 79.1426 257.018 74.5013C259.44 76.5225 271.614 90.7068 273.663 105.486C273.669 105.534 273.691 105.578 273.724 105.613C273.758 105.648 273.801 105.671 273.849 105.68C273.896 105.689 273.945 105.683 273.988 105.663C274.032 105.643 274.068 105.609 274.092 105.568C274.549 104.658 274.831 103.671 274.923 102.658C276.525 104.715 283.694 116.255 284.991 126.475C285.604 131.322 284.825 135.202 282.697 138.039ZM276.683 104.426C275.038 101.833 274.834 101.88 274.683 101.922C274.633 101.937 274.588 101.967 274.555 102.008C274.522 102.049 274.502 102.098 274.497 102.151C274.449 102.995 274.28 103.828 273.996 104.624C272.15 93.2842 264.456 82.1192 259.959 76.887C259.981 76.8393 255.428 60.4018 255.516 59.3249C277.058 46.7222 304.332 43.5949 307.109 43.5949C307.429 45.7962 307.961 47.9614 308.698 50.0602C298.184 50.5178 285.224 52.0746 273.501 56.1753C273.315 56.2373 273.294 56.5089 273.268 56.7147C273.1 58.0613 273.072 62.5309 273.732 69.0874C274.702 80.6777 278.412 99.261 286.885 118.146C288.546 121.936 290.444 125.618 292.566 129.171C289.95 129.623 286.258 131.599 285.512 132.023C286.919 121.022 277.935 106.393 276.686 104.426H276.683ZM297.553 136.361C273.735 100.301 273.112 59.2257 273.751 56.5802C298.32 48.0204 327.337 50.5414 329.34 51.0231C336.437 90.5103 352.764 118.196 353.774 120.924C323.238 126.839 299.357 136.592 297.555 136.361H297.553Z" fill="#414141"/>
<path d="M273.366 94.5239C273.312 94.5232 273.26 94.5038 273.219 94.4689C273.177 94.4341 273.15 94.386 273.14 94.333C273.13 94.2798 273.14 94.2249 273.166 94.1779C273.193 94.131 273.236 94.095 273.286 94.0763C274.203 93.7031 275.148 93.4048 276.113 93.1841C276.143 93.1793 276.174 93.1804 276.203 93.1874C276.233 93.1945 276.261 93.2073 276.285 93.2252C276.31 93.243 276.331 93.2656 276.347 93.2915C276.362 93.3175 276.373 93.3463 276.378 93.3763C276.382 93.4063 276.381 93.437 276.374 93.4665C276.367 93.4961 276.354 93.5239 276.336 93.5485C276.319 93.5731 276.296 93.5939 276.27 93.6098C276.244 93.6257 276.215 93.6363 276.185 93.6411C275.228 93.8752 274.286 94.1701 273.366 94.5239Z" fill="#7BD2FF"/>
<path d="M350.662 99.4105C350.662 99.4105 350.257 102.935 350.549 103.902C350.841 104.869 355.884 105.965 358.338 105.948C360.909 105.781 363.451 105.322 365.917 104.578C366.147 104.392 366.277 101.128 366.032 100.288C365.787 99.447 364.498 98.1333 358.747 97.6583C352.996 97.1834 350.791 99.0087 350.662 99.4105Z" fill="white"/>
<path d="M371.262 110.208C370.525 107.585 368.405 106.505 367.096 105.839C366.837 105.717 366.611 105.534 366.437 105.306C366.264 105.077 366.148 104.81 366.101 104.528C366.504 103.063 366.542 101.521 366.212 100.038C365.968 98.9401 362.334 97.6046 358.191 97.4261C354.013 97.2469 350.751 98.3133 350.492 99.3586C350.247 100.642 350.149 101.95 350.201 103.256C350.211 103.397 350.259 103.531 350.34 103.647C350.332 103.671 350.495 104.36 349.236 105.029C347.887 105.746 346.132 106.427 345.072 109.303C344.158 111.783 343.931 119.866 343.867 121.283C343.751 123.845 344.597 125.739 346.31 126.475C352.272 129.037 361.679 128.916 367.199 128.127C370.379 127.672 371.437 125.837 371.506 122.45C371.514 122.059 372.117 113.252 371.262 110.208ZM351.816 100.686C351.688 101.81 351.633 102.94 351.653 104.071C351.426 103.96 351.205 103.841 350.988 103.712C350.785 103.55 350.666 103.394 350.663 103.249C350.656 102.199 350.721 101.15 350.859 100.11C351.15 100.346 351.472 100.54 351.816 100.689V100.686ZM354.023 101.422C353.975 101.956 353.837 103.547 353.731 104.836C353.629 104.809 352.553 104.469 352.13 104.288C352.088 103.149 352.132 102.007 352.262 100.875C352.836 101.096 353.424 101.279 354.023 101.424V101.422ZM365.856 100.864C365.995 102.077 365.882 104.174 365.682 104.403C365.331 104.502 364.977 104.592 364.621 104.672C364.667 103.714 364.603 102.017 364.583 101.525C365.054 101.41 365.49 101.184 365.856 100.866V100.864ZM364.125 101.648C364.15 102.268 364.206 103.936 364.152 104.771C363.493 104.906 362.83 105.019 362.163 105.112C362.215 104.312 362.241 102.446 362.248 101.937C362.88 101.884 363.507 101.789 364.125 101.652V101.648ZM361.696 105.174C361.019 105.258 360.339 105.318 359.658 105.355C359.697 104.487 359.755 102.677 359.775 102.047C360.446 102.044 361.116 102.02 361.785 101.974C361.778 102.563 361.748 104.504 361.696 105.175V105.174ZM359.195 105.375C358.398 105.404 357.6 105.391 356.805 105.336C356.883 104.541 357.053 102.229 357.072 101.941C357.534 101.986 358.994 102.043 359.312 102.046C359.292 102.7 359.234 104.538 359.198 105.377L359.195 105.375ZM356.343 105.297C355.818 105.247 354.376 104.996 354.184 104.951C354.284 103.7 354.422 102.13 354.475 101.529C355.153 101.679 355.874 101.805 356.61 101.892C356.6 102.066 356.422 104.513 356.346 105.299L356.343 105.297ZM358.169 97.8886C362.473 98.0746 365.656 99.3555 365.703 100.129C365.704 100.205 365.69 100.28 365.66 100.35C365.63 100.419 365.586 100.482 365.531 100.534C364.807 101.329 357.754 102.668 352.129 100.318C351.675 100.128 350.451 99.5905 351.211 99.1044C353.618 97.5699 357.857 97.8768 358.171 97.8905L358.169 97.8886Z" fill="#414141"/>
<path d="M358.741 100.786C358.682 100.776 358.629 100.743 358.593 100.695C358.557 100.646 358.542 100.586 358.549 100.526C358.557 100.467 358.588 100.412 358.636 100.375C358.683 100.338 358.744 100.321 358.803 100.327C360.263 100.505 361.744 100.363 363.143 99.912C363.201 99.8904 363.265 99.8921 363.321 99.917C363.364 99.9354 363.4 99.9661 363.424 100.005C363.449 100.044 363.462 100.09 363.46 100.136C363.459 100.182 363.444 100.227 363.417 100.264C363.39 100.302 363.352 100.33 363.309 100.346C361.841 100.842 360.278 100.992 358.741 100.786Z" fill="#414141"/>
<path d="M369.038 113.815C368.939 112.818 368.351 112.164 367.189 111.769C366.793 111.637 364.213 110.877 363.345 110.455C361.665 109.561 359.82 109.019 357.924 108.863C355.619 108.751 354.087 109.332 352.02 110.227C349.792 111.194 348.107 111.128 347.451 112.043C347.229 112.404 347.1 112.815 347.074 113.238C346.896 114.513 346.532 120.332 346.539 121.604C346.543 122.232 346.57 123.048 347.979 123.585C353.141 125.557 363.274 125.045 366.448 124.484C367.897 124.227 368.556 123.903 368.742 122.053C368.893 120.576 369.084 114.238 369.038 113.815Z" fill="white"/>
<path d="M348.347 115.993C348.424 115.043 348.428 114.427 348.499 113.98C348.799 112.141 349.714 112.709 352.591 111.586C352.648 111.564 352.712 111.566 352.767 111.591C352.823 111.616 352.867 111.661 352.889 111.718C352.911 111.775 352.91 111.838 352.886 111.894C352.861 111.95 352.816 111.994 352.759 112.017C349.838 113.156 349.199 112.562 348.956 114.054C348.883 114.507 348.922 114.645 348.808 116.031C348.803 116.092 348.774 116.148 348.728 116.188C348.681 116.228 348.62 116.248 348.559 116.243C348.498 116.238 348.441 116.209 348.401 116.162C348.362 116.115 348.342 116.055 348.347 115.993Z" fill="#414141"/>
<path d="M367.148 116.249C367.158 115.557 367.164 114.771 367.154 114.678C366.996 113.116 364.922 113.395 362.488 112.268C361.074 111.555 359.538 111.118 357.962 110.98C356.91 110.822 355.835 110.954 354.854 111.362C354.798 111.377 354.738 111.37 354.687 111.343C354.635 111.316 354.596 111.271 354.577 111.216C354.557 111.161 354.559 111.102 354.582 111.048C354.604 110.995 354.646 110.952 354.699 110.928C355.738 110.501 356.873 110.361 357.985 110.521C359.621 110.66 361.216 111.111 362.682 111.85C365.061 112.95 367.417 112.685 367.615 114.633C367.631 114.787 367.615 116.012 367.611 116.257C367.611 116.287 367.605 116.317 367.592 116.345C367.58 116.373 367.563 116.398 367.541 116.419C367.508 116.451 367.466 116.473 367.421 116.481C367.376 116.489 367.33 116.483 367.288 116.465C367.245 116.447 367.21 116.417 367.185 116.378C367.16 116.34 367.147 116.294 367.148 116.249Z" fill="#414141"/>
<path d="M355.387 123.448C355.329 123.437 355.278 123.403 355.243 123.355C355.209 123.306 355.195 123.246 355.204 123.187C355.212 123.128 355.243 123.075 355.29 123.039C355.337 123.002 355.396 122.985 355.455 122.99C358.686 123.384 361.956 123.31 365.166 122.77C366.358 122.577 366.677 122.398 366.823 121.2C367.15 118.514 366.854 118.152 367.28 118.118C367.31 118.119 367.34 118.126 367.368 118.139C367.395 118.152 367.42 118.17 367.44 118.192C367.461 118.215 367.477 118.241 367.487 118.27C367.497 118.299 367.502 118.329 367.5 118.359C367.314 122.406 367.242 122.903 365.239 123.226C361.986 123.8 358.664 123.875 355.387 123.448Z" fill="#414141"/>
<path d="M352.997 123.222C352.898 123.222 349.785 122.761 349.215 122.575C347.958 122.162 347.958 121.448 347.958 120.927C347.958 120.064 348.082 118.598 348.156 117.659C348.162 117.599 348.191 117.543 348.237 117.503C348.283 117.464 348.343 117.444 348.404 117.448C348.465 117.453 348.521 117.482 348.561 117.528C348.6 117.575 348.62 117.635 348.615 117.696C348.488 119.246 348.406 120.491 348.416 120.728C348.442 121.368 348.323 121.794 349.357 122.134C349.685 122.242 351.193 122.499 353.027 122.761C353.086 122.766 353.141 122.795 353.18 122.841C353.219 122.887 353.238 122.946 353.234 123.005C353.231 123.065 353.204 123.121 353.16 123.162C353.115 123.202 353.057 123.224 352.997 123.222Z" fill="#414141"/>
<path d="M345.461 129.504C344.927 129.217 342.913 131.224 341.921 133.022C340.901 134.872 340.309 138.282 342.4 138.282C343.74 138.127 344.038 136.204 344.31 133.942C344.658 131.053 345.789 129.68 345.461 129.504Z" fill="#414141"/>
<path d="M348.813 135.848C348.767 135.824 348.714 135.816 348.663 135.826C348.612 135.836 348.566 135.863 348.532 135.903C348.428 136.027 345.957 138.932 345.693 142.351C345.586 143.739 345.802 145.843 347.298 145.624C348.563 145.438 348.452 144.012 348.32 142.262C347.92 136.958 349.39 136.153 348.813 135.848Z" fill="#414141"/>
<path d="M359.126 63.7782C359.385 63.7782 359.633 63.6753 359.816 63.4922C360 63.3091 360.102 63.0607 360.102 62.8017C360.102 62.5427 360 62.2943 359.816 62.1112C359.633 61.9281 359.385 61.8252 359.126 61.8252C358.867 61.8252 358.619 61.9281 358.435 62.1112C358.252 62.2943 358.149 62.5427 358.149 62.8017C358.149 63.0607 358.252 63.3091 358.435 63.4922C358.619 63.6753 358.867 63.7782 359.126 63.7782Z" fill="#005BC3"/>
<path d="M371.594 70.931C371.853 70.931 372.102 70.8281 372.285 70.645C372.468 70.4619 372.571 70.2135 372.571 69.9545C372.571 69.6955 372.468 69.4472 372.285 69.264C372.102 69.0809 371.853 68.978 371.594 68.978C371.335 68.978 371.087 69.0809 370.904 69.264C370.721 69.4472 370.618 69.6955 370.618 69.9545C370.618 70.2135 370.721 70.4619 370.904 70.645C371.087 70.8281 371.335 70.931 371.594 70.931Z" fill="#005BC3"/>
<path d="M343.09 62.5028C343.349 62.5028 343.598 62.3999 343.781 62.2168C343.964 62.0337 344.067 61.7853 344.067 61.5263C344.067 61.2673 343.964 61.0189 343.781 60.8358C343.598 60.6527 343.349 60.5498 343.09 60.5498C342.831 60.5498 342.583 60.6527 342.4 60.8358C342.217 61.0189 342.114 61.2673 342.114 61.5263C342.114 61.7853 342.217 62.0337 342.4 62.2168C342.583 62.3999 342.831 62.5028 343.09 62.5028Z" fill="#005BC3"/>
<path d="M344.271 78.1923C344.271 78.1923 342.47 68.1204 343.813 64.8344C344.041 64.2764 350.86 71.6444 350.969 71.6624C351.078 71.6804 357.56 65.729 358.072 65.8202C358.583 65.9113 360.99 74.2553 361.23 74.5107C361.471 74.7661 369.209 72.2285 369.611 72.9043C370.013 73.5801 364.537 83.7338 363.586 83.895C362.912 84.0097 351.127 81.7089 344.271 78.1923Z" fill="#005BC3"/>
<path d="M359.126 64.1216C358.864 64.1247 358.607 64.0498 358.387 63.9065C358.168 63.7631 357.996 63.5578 357.894 63.3166C357.791 63.0754 357.763 62.8092 357.812 62.5518C357.861 62.2944 357.986 62.0574 358.17 61.8709C358.354 61.6845 358.59 61.557 358.846 61.5047C359.103 61.4523 359.37 61.4775 359.612 61.577C359.855 61.6764 360.062 61.8457 360.208 62.0634C360.354 62.281 360.432 62.5371 360.432 62.7992C360.434 63.1477 360.298 63.4826 360.053 63.7306C359.808 63.9785 359.474 64.1192 359.126 64.1216ZM359.126 61.9386C358.955 61.9353 358.787 61.9829 358.643 62.0754C358.5 62.1679 358.387 62.3011 358.319 62.4581C358.251 62.615 358.232 62.7885 358.263 62.9565C358.294 63.1246 358.375 63.2795 358.495 63.4015C358.614 63.5235 358.768 63.6072 358.935 63.6417C359.102 63.6763 359.276 63.6603 359.435 63.5957C359.593 63.5311 359.728 63.4208 359.823 63.279C359.919 63.1371 359.97 62.9701 359.97 62.7992C359.972 62.5733 359.884 62.3559 359.726 62.1946C359.567 62.0333 359.352 61.9412 359.126 61.9386Z" fill="#414141"/>
<path d="M371.593 71.2758C371.397 71.2786 371.203 71.2376 371.024 71.1559C370.846 71.0742 370.688 70.9538 370.562 70.8034C370.436 70.6531 370.345 70.4765 370.295 70.2866C370.246 70.0966 370.24 69.8981 370.277 69.7054C370.338 69.382 370.519 69.0933 370.782 68.8957C371.045 68.6981 371.373 68.6057 371.701 68.6367C372.028 68.6677 372.333 68.8198 372.554 69.0633C372.776 69.3068 372.899 69.6241 372.899 69.9534C372.9 70.3016 372.764 70.6362 372.519 70.884C372.275 71.1319 371.942 71.2727 371.593 71.2758ZM371.593 69.0916C371.423 69.0881 371.255 69.1356 371.111 69.228C370.967 69.3204 370.854 69.4535 370.786 69.6103C370.718 69.7672 370.699 69.9406 370.73 70.1087C370.761 70.2767 370.841 70.4316 370.961 70.5538C371.08 70.6759 371.234 70.7597 371.401 70.7945C371.568 70.8293 371.742 70.8135 371.9 70.7491C372.059 70.6847 372.194 70.5746 372.29 70.4329C372.385 70.2912 372.436 70.1243 372.437 69.9534C372.438 69.7275 372.351 69.5102 372.193 69.3487C372.035 69.1873 371.819 69.0948 371.593 69.0916Z" fill="#414141"/>
<path d="M343.091 62.8515C342.895 62.8543 342.7 62.8133 342.522 62.7316C342.344 62.6499 342.186 62.5295 342.059 62.3791C341.933 62.2288 341.842 62.0522 341.793 61.8623C341.744 61.6723 341.737 61.4738 341.774 61.2811C341.836 60.9577 342.016 60.669 342.28 60.4714C342.543 60.2738 342.87 60.1814 343.198 60.2124C343.526 60.2434 343.83 60.3955 344.052 60.639C344.274 60.8825 344.397 61.1998 344.397 61.5291C344.399 61.8775 344.262 62.2125 344.017 62.4604C343.773 62.7084 343.439 62.8491 343.091 62.8515ZM343.091 60.6673C342.891 60.6631 342.696 60.7284 342.54 60.8521C342.383 60.9757 342.274 61.15 342.231 61.3452C342.188 61.5403 342.215 61.7442 342.306 61.9219C342.397 62.0997 342.547 62.2403 342.731 62.3197C342.914 62.3991 343.119 62.4123 343.311 62.3572C343.503 62.3021 343.67 62.182 343.783 62.0174C343.896 61.8529 343.949 61.6541 343.932 61.4551C343.915 61.2561 343.829 61.0692 343.689 60.9264C343.531 60.7656 343.316 60.6736 343.091 60.6704V60.6673Z" fill="#414141"/>
<path d="M363.585 84.0908C360.292 83.6368 357.033 82.9649 353.829 82.0796C349.391 80.8048 344.2 78.6398 344.098 78.2504C343.114 74.5924 342.695 64.9862 343.734 64.634C344.083 64.5156 344.912 64.9142 350.686 71.0343L351.053 71.4224C352.394 70.2524 357.248 65.4598 358.131 65.6328C358.94 65.8188 360.768 72.9215 361.346 74.332C362.628 73.9365 369.158 72.0337 369.768 72.7523C369.88 72.8843 369.898 73.0914 369.655 73.7561C368.944 75.7091 364.597 84.0908 363.585 84.0908ZM344.525 78.0613C347.559 79.5262 350.714 80.7224 353.956 81.6363C357.106 82.4951 360.306 83.1602 363.538 83.6277C364.417 83.2253 369.371 74.2552 369.389 73.0387C368.629 72.7647 361.938 74.5497 361.351 74.8088C361.321 74.8249 361.287 74.8341 361.253 74.8356C361.219 74.8371 361.185 74.8309 361.153 74.8175C360.98 74.7493 360.927 74.6575 360.066 71.8539C359.476 69.9319 358.377 66.352 357.997 66.0699C357.472 66.1065 353.992 69.3392 352.505 70.7199C351.079 72.043 351.084 72.0424 350.905 71.9227C350.87 71.8998 344.333 65.2745 343.907 65.0996C343.507 66.0141 343.326 73.5167 344.525 78.0613Z" fill="#414141"/>
<path d="M337.818 48.7119C337.886 48.6573 344.706 43.223 345.163 42.8424C345.2 42.8086 345.245 42.7849 345.294 42.7732C345.343 42.7616 345.394 42.7625 345.442 42.7759C345.491 42.7892 345.535 42.8146 345.571 42.8496C345.607 42.8847 345.633 42.9282 345.648 42.9763C345.66 43.0148 345.664 43.0552 345.659 43.0952C345.655 43.1352 345.642 43.1738 345.622 43.2088C345.602 43.2436 345.576 43.2742 345.544 43.2987C345.082 43.6837 338.469 48.9525 338.188 49.1763C338.126 49.2192 338.05 49.237 337.975 49.226C337.9 49.215 337.833 49.1761 337.786 49.1171C337.739 49.0581 337.716 48.9834 337.722 48.9082C337.728 48.833 337.762 48.7628 337.818 48.7119Z" fill="#005BC3"/>
<path d="M335.215 45.7144C335.137 45.7138 335.063 45.683 335.008 45.6285C334.952 45.574 334.92 45.5001 334.919 45.4224C334.917 45.3709 334.93 45.32 334.955 45.2749C334.996 45.1992 339.099 37.6954 340.221 35.699C340.249 35.6477 340.293 35.6061 340.345 35.5796C340.398 35.5531 340.457 35.5428 340.515 35.5502C340.554 35.5547 340.591 35.5669 340.625 35.5861C340.659 35.6053 340.689 35.631 340.713 35.6618C340.749 35.7079 340.771 35.7637 340.776 35.8222C340.78 35.8807 340.767 35.9392 340.738 35.9904C335.261 45.7399 335.596 45.7144 335.215 45.7144Z" fill="#005BC3"/>
<path d="M330.204 44.6491C330.161 44.6494 330.119 44.6403 330.08 44.6225C330.041 44.6048 330.006 44.5787 329.978 44.5463C329.95 44.5138 329.93 44.4756 329.918 44.4344C329.906 44.3932 329.903 44.3499 329.91 44.3075C330.477 40.9699 331.378 37.6977 332.599 34.54C332.628 34.4668 332.686 34.4083 332.758 34.3772C332.83 34.3461 332.912 34.345 332.985 34.3742C333.058 34.4034 333.117 34.4604 333.148 34.5328C333.179 34.6052 333.18 34.6869 333.151 34.7601C331.947 37.8755 331.058 41.1036 330.497 44.3962C330.487 44.4665 330.452 44.5307 330.398 44.5772C330.344 44.6236 330.275 44.6491 330.204 44.6491Z" fill="#005BC3"/>
</g>
<rect x="0.744521" y="0.744521" width="373.511" height="143.511" rx="10.2555" stroke="url(#paint1_linear_836_3402)" stroke-opacity="0.08" stroke-width="0.510959"/>
<defs>
<linearGradient id="paint0_linear_836_3402" x1="42.6629" y1="15.8085" x2="213.928" y2="76.5442" gradientUnits="userSpaceOnUse">
<stop stop-color="#003F88"/>
<stop offset="0.64989" stop-color="#03BCFF"/>
<stop offset="1" stop-color="#0076FF"/>
</linearGradient>
<linearGradient id="paint1_linear_836_3402" x1="47.195" y1="20.571" x2="387.35" y2="83.6903" gradientUnits="userSpaceOnUse">
<stop stop-color="#003F88"/>
<stop offset="0.64989" stop-color="#02D4FF"/>
<stop offset="1" stop-color="#0076FF"/>
</linearGradient>
<clipPath id="clip0_836_3402">
<rect x="1" y="1" width="373" height="143" rx="10" fill="white"/>
</clipPath>
</defs>
</svg>
