<svg xmlns="http://www.w3.org/2000/svg" width="375" height="145" fill="none"><g clip-path="url(#a)"><rect width="373" height="143" x="1" y="1" fill="#E3F0FF" rx="10"/><path fill="#C8E2FF" d="M379.257 159c-143.113-3.736-175.944-8.836-182.825-17.463-6.042-9.025-6.042-9.025 63.984-59.124 31.74-22.689 81.94-58.621 98.261-73.985A1242 1242 0 0 0 234.78-4.942a7.97 7.97 0 0 1-8.559-3.82 8.12 8.12 0 0 1 3.041-11.207 8.1 8.1 0 0 1 4.133-1.03c2.098 0 141.981 6.088 145.631 24.264 1.322 10.368-11.433 22.185-109.338 92.203-18.88 13.432-39.313 28.124-51.04 37.149 37.656 5.331 143.638 9.172 161.07 10.348a8.082 8.082 0 0 1 7.28 8.227 8.1 8.1 0 0 1-2.344 5.42 8.1 8.1 0 0 1-5.397 2.388"/><path fill="url(#b)" d="M32.163 40.197H19.577V22.748h4.5v14.074h8.086zm15.445-5.8h-9.656q.094 1.546 1.172 2.367 1.09.82 3.2.82 1.335 0 2.59-.48 1.252-.48 1.98-1.032h.468v3.387q-1.43.574-2.695.832-1.266.258-2.8.258-3.962 0-6.071-1.781-2.11-1.782-2.11-5.075 0-3.257 1.993-5.156 2.004-1.91 5.484-1.91 3.21 0 4.828 1.629 1.617 1.617 1.617 4.664zm-4.195-2.473q-.035-1.325-.656-1.992-.621-.669-1.934-.668-1.218 0-2.004.633-.785.632-.879 2.027zM59 40.08q-.68.175-1.441.27-.763.105-1.864.105-2.46 0-3.668-.996-1.195-.995-1.195-3.41v-6.152h-1.734v-2.86h1.734v-3.762h4.219v3.762h3.949v2.86h-3.95v4.663q0 .693.013 1.208.011.515.187.925.164.41.574.657.423.234 1.219.234.329 0 .855-.14.54-.14.75-.259H59zm8.133-18.117-3.41 6.902H60.98l1.84-6.902zm13.804 14.062q0 2.04-1.828 3.293-1.827 1.243-5.004 1.242-1.757 0-3.187-.328-1.43-.327-2.297-.726v-3.469h.387q.316.223.726.492.422.258 1.184.563.657.27 1.488.468a8 8 0 0 0 1.781.188q1.243 0 1.84-.27.598-.28.598-.82 0-.48-.352-.691-.352-.224-1.336-.422-.468-.106-1.277-.223a15 15 0 0 1-1.453-.304q-1.793-.47-2.66-1.453-.867-.997-.867-2.473 0-1.9 1.793-3.152 1.804-1.266 4.922-1.266 1.476 0 2.824.305 1.36.293 2.12.632v3.328h-.362a8.4 8.4 0 0 0-2.145-1.043 7.4 7.4 0 0 0-2.426-.41q-1.02 0-1.722.282-.692.281-.692.796 0 .47.317.715.316.246 1.488.492.644.129 1.383.258a17 17 0 0 1 1.5.305q1.665.433 2.46 1.371.797.925.797 2.32m25.219-1.312q0 2.578-2.191 4.195-2.18 1.605-5.93 1.606-2.168 0-3.785-.375a20 20 0 0 1-3.012-.973v-4.184h.493q1.394 1.114 3.117 1.711 1.734.598 3.328.598.41 0 1.078-.07t1.09-.235a2.6 2.6 0 0 0 .844-.527q.339-.317.339-.937 0-.575-.492-.985-.48-.422-1.418-.644-.984-.235-2.086-.434-1.09-.21-2.05-.527-2.204-.716-3.176-1.934-.96-1.23-.961-3.047 0-2.437 2.18-3.972 2.19-1.547 5.624-1.547 1.724 0 3.399.34 1.688.328 2.918.832v4.019h-.481q-1.055-.843-2.589-1.406a8.8 8.8 0 0 0-3.118-.574q-.562 0-1.125.082-.55.07-1.066.28a2 2 0 0 0-.785.54 1.15 1.15 0 0 0-.328.808q0 .692.527 1.067.528.363 1.992.668.96.2 1.84.387a19 19 0 0 1 1.91.515q2.004.657 2.953 1.793.961 1.125.961 2.93m11.274 5.367q-.68.175-1.442.27-.762.105-1.863.105-2.461 0-3.668-.996-1.195-.995-1.195-3.41v-6.152h-1.735v-2.86h1.735v-3.762h4.218v3.762h3.95v2.86h-3.95v4.663q0 .693.012 1.208t.188.925q.163.41.574.657.421.234 1.219.234.328 0 .855-.14.54-.14.75-.259h.352zm10.5-3.316v-2.742a40 40 0 0 0-1.852.199q-.996.117-1.512.281-.632.2-.972.586-.328.375-.328.996 0 .41.07.668t.352.492q.269.234.644.352.375.105 1.172.105.633 0 1.277-.258a4 4 0 0 0 1.149-.68m0 2.039q-.34.258-.844.62a6 6 0 0 1-.949.575 5.8 5.8 0 0 1-1.289.41q-.669.14-1.465.14-1.875 0-3.141-1.16-1.265-1.16-1.265-2.964 0-1.441.644-2.356.645-.914 1.828-1.441 1.172-.528 2.906-.75a51 51 0 0 1 3.598-.328v-.07q0-1.09-.89-1.5-.891-.422-2.625-.422-1.044 0-2.227.375a28 28 0 0 0-1.699.562h-.387v-3.176q.668-.176 2.168-.41a19 19 0 0 1 3.023-.246q3.598 0 5.192 1.113 1.605 1.102 1.605 3.47v8.952h-4.183zm17.601-7.746h-.375q-.268-.095-.867-.141a13 13 0 0 0-.996-.047 9.6 9.6 0 0 0-1.594.117 9 9 0 0 0-1.488.399v8.812h-4.219v-13.16h4.219v1.934q1.395-1.196 2.426-1.582 1.03-.399 1.898-.399.224 0 .504.012.282.012.492.035zm10.805 9.023q-.68.175-1.441.27a14 14 0 0 1-1.864.105q-2.46 0-3.668-.996-1.195-.995-1.195-3.41v-6.152h-1.734v-2.86h1.734v-3.762h4.219v3.762h3.949v2.86h-3.949v4.663q0 .693.011 1.208.012.515.188.925.164.41.574.657.422.234 1.219.234.329 0 .855-.14.54-.14.75-.259h.352z"/><path fill="#384F69" d="M26.292 64.197h-1.16V56.68l-2.426 5.115h-.691l-2.409-5.115v7.517h-1.084v-8.724h1.583l2.326 4.857 2.25-4.857h1.611zm6.862 0h-1.096V63.5q-.147.1-.398.281a3.157 3.157 0 0 1-1.113.504 3.3 3.3 0 0 1-.838.094q-.885 0-1.5-.586-.616-.586-.616-1.494 0-.745.317-1.201.323-.463.914-.727.598-.264 1.435-.357.838-.095 1.8-.141v-.17q0-.375-.136-.621a.94.94 0 0 0-.375-.387 1.6 1.6 0 0 0-.562-.181 5 5 0 0 0-.686-.047q-.434 0-.966.117a7 7 0 0 0-1.102.328h-.059v-1.119q.323-.088.932-.193.61-.106 1.201-.106.691 0 1.201.117.516.112.89.387.37.27.563.697.194.428.194 1.06zm-1.096-1.611v-1.822q-.503.029-1.19.088a6 6 0 0 0-1.077.17q-.476.135-.768.421-.293.282-.293.78 0 .562.34.85.34.28 1.037.28.58 0 1.06-.222.48-.229.891-.545m8.678 1.611h-1.453l-2.625-2.865-.715.68v2.185h-1.101V55.08h1.101v5.848l3.182-3.276h1.389l-3.041 3.024zm6.042-3.158h-4.822q0 .603.181 1.055.182.445.498.732.305.282.72.422.422.14.927.14a3.7 3.7 0 0 0 1.342-.263q.68-.27.966-.527h.059v1.2q-.556.236-1.137.393a4.6 4.6 0 0 1-1.219.159q-1.628 0-2.543-.88-.914-.884-.914-2.507 0-1.605.873-2.549.88-.943 2.309-.943 1.325 0 2.04.773.72.774.72 2.197zm-1.072-.844q-.005-.867-.44-1.342-.427-.474-1.307-.474-.885 0-1.412.521-.521.522-.591 1.295zm11.086 4.002h-1.095V63.5q-.146.1-.399.281a3.157 3.157 0 0 1-1.113.504 3.3 3.3 0 0 1-.838.094q-.885 0-1.5-.586t-.615-1.494q0-.745.316-1.201.323-.463.914-.727.598-.264 1.436-.357.837-.095 1.799-.141v-.17q0-.375-.135-.621a.94.94 0 0 0-.375-.387 1.6 1.6 0 0 0-.563-.181 5 5 0 0 0-.685-.047q-.434 0-.967.117a7 7 0 0 0-1.102.328h-.058v-1.119q.322-.088.932-.193.609-.106 1.2-.106.693 0 1.202.117.516.112.89.387.37.27.563.697.193.428.193 1.06zm-1.095-1.611v-1.822q-.504.029-1.19.088a6 6 0 0 0-1.078.17q-.474.135-.768.421-.292.282-.292.78 0 .562.34.85.34.28 1.036.28.58 0 1.061-.222.48-.229.89-.545m11.784 1.611h-1.102v-.685a4 4 0 0 1-.99.638 2.7 2.7 0 0 1-1.12.229q-1.171 0-1.862-.902-.686-.903-.686-2.502 0-.833.234-1.483a3.5 3.5 0 0 1 .645-1.107 2.7 2.7 0 0 1 2.027-.914q.516 0 .914.111.399.106.838.334V55.08h1.102zm-1.102-1.611V58.83a4 4 0 0 0-.797-.275 3.6 3.6 0 0 0-.767-.077q-.926 0-1.442.645t-.515 1.828q0 1.166.398 1.776.399.603 1.278.603.468 0 .949-.205.48-.21.896-.54m6.874-3.733h-.059a4.365 4.365 0 0 0-1.025-.111q-.51 0-.985.229a4.4 4.4 0 0 0-.914.58v4.646H69.17v-6.545h1.101v.967q.657-.527 1.155-.744a2.5 2.5 0 0 1 1.025-.223q.287 0 .416.018.129.012.387.053zm5.432 5.344h-1.096V63.5q-.146.1-.398.281a3.157 3.157 0 0 1-1.113.504 3.3 3.3 0 0 1-.838.094q-.885 0-1.5-.586t-.616-1.494q0-.745.317-1.201.323-.463.914-.727.597-.264 1.435-.357.839-.095 1.8-.141v-.17q0-.375-.136-.621a.94.94 0 0 0-.375-.387 1.6 1.6 0 0 0-.562-.181 5 5 0 0 0-.686-.047q-.434 0-.966.117a7 7 0 0 0-1.102.328h-.059v-1.119q.323-.088.932-.193.61-.106 1.201-.106.692 0 1.201.117.516.112.891.387.37.27.563.697.192.428.193 1.06zm-1.096-1.611v-1.822q-.504.029-1.19.088a6 6 0 0 0-1.077.17q-.475.135-.768.421-.293.282-.293.78 0 .562.34.85.34.28 1.037.28.58 0 1.06-.222.48-.229.891-.545m6.258-6.44h-.058a5 5 0 0 0-.475-.105 2.7 2.7 0 0 0-.515-.059q-.71 0-1.032.317-.315.31-.316 1.13v.223h1.986v.926h-1.95v5.62h-1.102v-5.62h-.745v-.926h.745v-.217q0-1.166.58-1.787.58-.626 1.675-.626.37 0 .662.035.3.034.545.082zm3.616 7.993a6 6 0 0 1-1.33.187q-1.002 0-1.523-.539-.522-.54-.522-1.728v-3.48h-.744v-.927h.744v-1.88h1.102v1.88h2.273v.926H85.19v2.982q0 .516.023.81.024.285.164.538a.8.8 0 0 0 .352.346q.228.105.691.105.27 0 .563-.076a4 4 0 0 0 .422-.135h.058zm8.116-7.992h-.058a5 5 0 0 0-.475-.106 2.7 2.7 0 0 0-.516-.059q-.708 0-1.03.317-.317.31-.317 1.13v.223h1.986v.926h-1.951v5.62h-1.102v-5.62h-.744v-.926h.744v-.217q0-1.166.58-1.787.58-.626 1.676-.626.37 0 .662.035.3.034.545.082zm5.796 4.78q0 1.6-.821 2.526-.82.926-2.197.926-1.389 0-2.209-.926-.814-.926-.814-2.525 0-1.6.814-2.526.82-.93 2.21-.931 1.376 0 2.196.931.82.926.821 2.526m-1.137 0q0-1.27-.498-1.886-.498-.621-1.383-.621-.896 0-1.394.621-.493.616-.493 1.887 0 1.23.499 1.869.498.633 1.388.633.879 0 1.377-.627.504-.633.504-1.875m6.452-2.074h-.059a4.374 4.374 0 0 0-1.025-.111q-.51 0-.985.229a4.4 4.4 0 0 0-.914.58v4.646h-1.101v-6.545h1.101v.967q.656-.527 1.155-.744a2.5 2.5 0 0 1 1.025-.223q.287 0 .416.018.129.012.387.053zm9.956-1.2-3.821 8.958h-1.177l1.218-2.73-2.607-6.229h1.195l2.01 4.852 2.027-4.852zm6.434 3.275q0 1.6-.821 2.525-.82.926-2.197.926-1.389 0-2.209-.926-.814-.926-.814-2.525 0-1.6.814-2.526.82-.93 2.209-.931 1.377 0 2.197.931.82.926.821 2.526m-1.137 0q0-1.272-.498-1.887-.498-.621-1.383-.621-.897 0-1.394.621-.493.616-.493 1.887 0 1.23.498 1.869.499.633 1.389.633.879 0 1.377-.627.504-.633.504-1.875m7.793 3.27h-1.101v-.727a5.4 5.4 0 0 1-1.067.673 2.66 2.66 0 0 1-1.125.235q-1.03 0-1.605-.627-.574-.633-.574-1.852v-4.248h1.101v3.727q0 .498.047.855.047.352.199.604a.95.95 0 0 0 .411.375q.252.117.732.117.428 0 .932-.223.51-.222.949-.568v-4.887h1.101zm5.772-5.344h-.058a4.363 4.363 0 0 0-1.026-.111q-.51 0-.984.228a4.4 4.4 0 0 0-.914.58v4.646h-1.102v-6.545h1.102v.967q.656-.527 1.154-.744a2.5 2.5 0 0 1 1.026-.223q.287 0 .416.018.13.012.386.053zm9.904 5.343h-5.52v-8.724h1.16v7.693h4.36zm6.07-3.158h-4.822q0 .603.182 1.055.181.445.498.732.304.282.721.422.421.14.925.14.669 0 1.342-.263.68-.27.967-.527h.059v1.2q-.557.236-1.137.393a4.6 4.6 0 0 1-1.219.159q-1.63 0-2.543-.88-.914-.884-.914-2.507 0-1.605.873-2.549.88-.943 2.309-.943 1.324 0 2.039.773.72.774.72 2.197zm-1.072-.844q-.006-.867-.439-1.342-.428-.474-1.307-.474-.885 0-1.412.521a2.03 2.03 0 0 0-.592 1.295zm5.661 3.944a6 6 0 0 1-1.33.187q-1.002 0-1.524-.539-.52-.54-.521-1.728v-3.48h-.744v-.927h.744v-1.88h1.101v1.88h2.274v.926h-2.274v2.982q0 .516.024.81a1.3 1.3 0 0 0 .164.538.8.8 0 0 0 .351.346q.229.105.692.105.27 0 .562-.076.294-.083.422-.135h.059zm4.254 0a6 6 0 0 1-1.33.187q-1.002 0-1.523-.539-.522-.54-.522-1.728v-3.48h-.744v-.927h.744v-1.88h1.102v1.88h2.273v.926h-2.273v2.982q0 .516.023.81.024.285.164.538a.8.8 0 0 0 .352.346q.228.105.691.105.27 0 .563-.076.293-.083.422-.135h.058zm6.335-3.1h-4.823q0 .603.182 1.055.182.445.498.732.304.282.721.422.422.14.926.14.667 0 1.341-.263.68-.27.967-.527h.059v1.2q-.556.236-1.137.393a4.6 4.6 0 0 1-1.219.159q-1.629 0-2.543-.88-.914-.884-.914-2.507 0-1.605.873-2.549.88-.943 2.309-.943 1.324 0 2.039.773.72.774.721 2.197zm-1.073-.844q-.006-.867-.439-1.342-.428-.474-1.307-.474-.885 0-1.412.521-.521.522-.592 1.295zm6.347-1.342h-.059a4.345 4.345 0 0 0-1.025-.111q-.51 0-.985.229a4.4 4.4 0 0 0-.914.58v4.646h-1.101v-6.545h1.101v.967q.656-.527 1.154-.744a2.5 2.5 0 0 1 1.026-.223q.287 0 .416.018.129.012.387.053zm11.602 5.344h-1.506l-2.918-3.469h-1.635v3.47h-1.16v-8.725h2.444q.79 0 1.318.105.528.1.949.363.475.3.739.756.269.451.269 1.149 0 .943-.475 1.582-.475.633-1.306.955zm-2.713-6.27q0-.375-.135-.661a1.13 1.13 0 0 0-.433-.493 1.6 1.6 0 0 0-.598-.234 4 4 0 0 0-.814-.07h-1.366v3.293h1.172q.552 0 .961-.094.41-.099.698-.363.263-.246.386-.563.129-.322.129-.814m8.456 3.112h-4.823q0 .603.182 1.055.182.445.498.732.304.282.721.422.422.14.926.14.667 0 1.341-.263.68-.27.967-.527h.059v1.2q-.556.236-1.137.393a4.6 4.6 0 0 1-1.219.159q-1.628 0-2.543-.88-.914-.884-.914-2.507 0-1.605.873-2.549.88-.943 2.309-.943 1.324 0 2.039.773.72.774.721 2.197zm-1.073-.844q-.005-.867-.439-1.342-.428-.474-1.307-.474-.884 0-1.412.521-.521.522-.592 1.295zm7.571 6.416h-1.101V63.46q-.51.44-1.014.656-.504.21-1.09.211-1.166 0-1.863-.896-.692-.903-.692-2.485 0-.843.241-1.488.246-.65.644-1.09.387-.428.908-.662a2.7 2.7 0 0 1 1.102-.234q.528 0 .932.117.41.117.832.346l.07-.282h1.031zm-1.101-4.078V58.83a4.6 4.6 0 0 0-.809-.287 3.4 3.4 0 0 0-.762-.082q-.955 0-1.453.65-.498.645-.498 1.782 0 1.147.399 1.77.404.614 1.265.614.481 0 .961-.205.48-.21.897-.539m8.215 1.664h-1.102v-.726a5.4 5.4 0 0 1-1.066.673q-.51.235-1.125.235-1.031 0-1.605-.627-.575-.633-.575-1.852v-4.248h1.102v3.727q0 .498.047.855.046.352.199.604a.94.94 0 0 0 .41.375q.252.117.733.117.427 0 .931-.223.51-.222.949-.568v-4.887h1.102zm7.166-3.158h-4.822q0 .603.182 1.055.182.445.498.732.304.282.721.422.421.14.925.14.669 0 1.342-.263.68-.27.967-.527h.059v1.2q-.557.236-1.137.393a4.6 4.6 0 0 1-1.219.159q-1.63 0-2.543-.88-.914-.884-.914-2.507 0-1.605.873-2.549.88-.943 2.309-.943 1.324 0 2.039.773.72.774.72 2.197zm-1.072-.844q-.006-.867-.439-1.342-.428-.474-1.307-.474-.885 0-1.412.521a2.03 2.03 0 0 0-.592 1.295zm6.938 2.115q0 .897-.744 1.471-.738.575-2.021.575-.727 0-1.336-.17a6 6 0 0 1-1.014-.381v-1.237h.059q.52.393 1.16.627.638.23 1.224.229.728 0 1.137-.234t.41-.739q0-.387-.222-.586-.223-.2-.856-.34a17 17 0 0 0-.615-.123 10 10 0 0 1-.686-.152q-.861-.228-1.224-.668-.358-.445-.358-1.09 0-.405.164-.761.171-.358.51-.64.328-.274.832-.433a3.7 3.7 0 0 1 1.137-.164q.585 0 1.183.147.604.14 1.002.345v1.178h-.058a3.9 3.9 0 0 0-1.026-.521 3.5 3.5 0 0 0-1.183-.217q-.604 0-1.02.234-.416.229-.416.686 0 .404.252.61.246.204.797.333.305.07.68.14.381.071.633.13.767.175 1.183.603.416.434.416 1.148m4.501 1.829a6 6 0 0 1-1.33.187q-1.002 0-1.524-.539-.522-.54-.521-1.728v-3.48h-.745v-.927h.745v-1.88h1.101v1.88h2.274v.926h-2.274v2.982q0 .516.024.81a1.3 1.3 0 0 0 .164.538.8.8 0 0 0 .351.346q.229.105.692.105.269 0 .562-.076.293-.083.422-.135h.059zM23.521 81.197h-1.096V80.5q-.146.1-.399.281a3.154 3.154 0 0 1-1.113.504 3.3 3.3 0 0 1-.838.094q-.885 0-1.5-.586t-.615-1.494q0-.744.316-1.201.323-.463.914-.727.598-.264 1.436-.357.838-.095 1.799-.141v-.17q0-.375-.135-.621a.94.94 0 0 0-.375-.387 1.6 1.6 0 0 0-.562-.181 5 5 0 0 0-.686-.047q-.434 0-.967.117a7 7 0 0 0-1.101.328h-.059v-1.119q.322-.088.932-.193.609-.106 1.2-.106.692 0 1.202.117.516.112.89.387.37.27.563.697.194.429.193 1.06zm-1.096-1.611v-1.822q-.504.03-1.19.088a6 6 0 0 0-1.078.17 1.76 1.76 0 0 0-.767.421q-.294.282-.293.78 0 .562.34.85.34.28 1.037.28.58 0 1.06-.222.48-.229.89-.545m8.21 1.611h-1.102v-3.726q0-.451-.053-.844-.053-.399-.193-.621a.88.88 0 0 0-.422-.363q-.276-.123-.715-.124-.45 0-.944.223a4.8 4.8 0 0 0-.943.569v4.886h-1.101v-6.545h1.101v.727a4.5 4.5 0 0 1 1.067-.668q.55-.24 1.13-.24 1.06 0 1.618.638.556.64.556 1.84zm6.949 0h-1.102v-.685a4 4 0 0 1-.99.638 2.7 2.7 0 0 1-1.119.229q-1.172 0-1.863-.902-.686-.903-.686-2.502 0-.833.235-1.483a3.5 3.5 0 0 1 .644-1.107 2.7 2.7 0 0 1 2.027-.914q.516 0 .915.111.397.105.837.334V72.08h1.102zm-1.102-1.611V75.83a4 4 0 0 0-.797-.275 3.6 3.6 0 0 0-.767-.077q-.926 0-1.441.645-.516.646-.516 1.828 0 1.167.398 1.776.399.603 1.278.603.468 0 .949-.205.48-.21.896-.54m11.204-.275q0 .895-.744 1.47-.738.575-2.021.575-.727 0-1.336-.17a6 6 0 0 1-1.014-.381v-1.237h.059q.52.393 1.16.627a3.6 3.6 0 0 0 1.225.229q.726 0 1.136-.235t.41-.738q0-.387-.222-.586-.223-.2-.856-.34a17 17 0 0 0-.615-.123 10 10 0 0 1-.686-.152q-.861-.228-1.224-.668-.357-.445-.358-1.09 0-.404.165-.761.17-.358.51-.64.327-.274.831-.433.51-.165 1.137-.164.585 0 1.184.147.603.14 1.002.345v1.178h-.059a3.9 3.9 0 0 0-1.025-.521 3.5 3.5 0 0 0-1.184-.217q-.603 0-1.02.234-.416.229-.416.686 0 .404.252.61.247.204.797.333.305.07.68.14.381.071.633.13.768.176 1.183.603.416.435.416 1.148m6.528 1.886h-1.101v-.726a5.4 5.4 0 0 1-1.067.673 2.7 2.7 0 0 1-1.125.235q-1.03 0-1.605-.627-.574-.633-.574-1.852v-4.248h1.101v3.727q0 .498.047.855.047.352.2.604a.94.94 0 0 0 .41.375q.25.117.732.117.428 0 .931-.223a4.3 4.3 0 0 0 .95-.568v-4.887h1.101zm7.448-3.322q0 .821-.234 1.477-.23.656-.621 1.101a2.9 2.9 0 0 1-.915.697 2.6 2.6 0 0 1-1.095.229q-.557 0-.973-.135a4.4 4.4 0 0 1-.82-.351l-.07.304h-1.032V72.08h1.102v3.258a4.5 4.5 0 0 1 .984-.621 2.7 2.7 0 0 1 1.172-.246q1.16 0 1.828.89.675.891.674 2.514m-1.137.03q0-1.173-.386-1.776-.387-.61-1.248-.61-.48 0-.973.212a4 4 0 0 0-.914.533v3.75q.468.21.803.293.34.082.767.082.915 0 1.43-.598.52-.603.521-1.887m11.925 3.292h-1.102v-3.726q0-.422-.041-.815a1.7 1.7 0 0 0-.158-.627.9.9 0 0 0-.387-.38q-.252-.13-.727-.13-.463 0-.925.235a5.5 5.5 0 0 0-.926.586q.017.135.03.316.01.176.011.352v4.19h-1.102V77.47a8 8 0 0 0-.04-.82 1.7 1.7 0 0 0-.159-.628.86.86 0 0 0-.387-.375q-.252-.128-.726-.129-.451 0-.908.223-.451.223-.903.569v4.886H62.9v-6.545H64v.727a5 5 0 0 1 1.026-.668q.516-.24 1.095-.24.669 0 1.131.281.469.281.698.78.667-.563 1.218-.81.55-.25 1.178-.251 1.078 0 1.588.656.516.65.516 1.822zm2.824-7.64h-1.242v-1.143h1.242zm-.07 7.64h-1.102v-6.545h1.102zm5.098-.058a6 6 0 0 1-1.33.187q-1.002 0-1.523-.539-.522-.54-.522-1.728v-3.48h-.744v-.927h.744v-1.88h1.102v1.88h2.273v.926H78.03v2.983q0 .515.023.808.023.287.164.54a.8.8 0 0 0 .352.345q.228.105.691.105.27 0 .563-.076a4 4 0 0 0 .421-.135h.06z"/><path fill="#fff" d="M282.628 138.589a12.34 12.34 0 0 0 2.568-6.235s4.972-2.757 7.713-3.013c0 0 4.128 6.829 4.676 7.29 0 0 5.156-1.395 10.258-3.133 7.224-2.46 35.96-10.857 46.186-12.409 0 0-10.824-22.231-13.617-30.731-1.116-3.398-4.113-11.307-6.405-20.255-2.151-8.396-4.185-16.567-4.491-19.288 0 0-7.285-1.205-20.567-.63 0 0-1.698-5.094-1.725-6.737a103.5 103.5 0 0 0-15.145 2.164c-10.412 2.184-24.663 6.451-36.808 13.62 1.317 6.907 4.518 17.19 4.282 17.46 0 0-2.009-2.355-2.812-2.525.495 1.696.847 3.43 1.05 5.185.219 2.41 1.543 20.722 3.177 26.757 1.728 6.38 8.764 17.99 11.256 20.649 0 0-2.26-.472-3.451-.116a40 40 0 0 0 2.063 3.694c.694.95 4.88 7.185 11.792 8.253"/><path fill="#005BC3" d="M293.002 60.115c.913-.407 7.52-2.074 10.535 3.565 3.177 5.942-.387 10.421-4.784 12.098-3.658 1.395-9.494-.934-10.793-5.366-1.442-4.923 1.372-8.657 5.042-10.297"/><path fill="#414141" d="M338.54 102.547c.597-1.096-.234-2.162-1.43-1.573.088-.42.26-1.687-.999-1.749-.95-.046-1.178 1.021-1.206 1.39a1.21 1.21 0 0 0-1.223-.007c-1.24.837.378 3.294 1.849 3.48a26 26 0 0 1-.558 3.415c-.202-1.583-1.102-3.606-2.325-2.58-1.221 1.015.552 3.198 2.085 3.4l.03-.004a23.3 23.3 0 0 1-1.426 3.891c0-.868-.2-2.076-.696-2.601-.508-.539-1.947-.496-1.684 1.244.096.516.318.999.647 1.408.328.409.752.731 1.235.936a22.3 22.3 0 0 1-2.362 3.554c.172-.852.275-2.259-.222-2.847s-1.837-.558-1.868.947a3.167 3.167 0 0 0 1.47 2.627 19.3 19.3 0 0 1-2.786 2.593c.38-.772.769-1.901.512-2.548a1.1 1.1 0 0 0-1.766-.266 1.1 1.1 0 0 0-.298.615 3.47 3.47 0 0 0 .698 3.021 3.58 3.58 0 0 0 2.158.836 3.4 3.4 0 0 0 1.349-.261c.887-.389 1.426-1.984.124-2.241a2.6 2.6 0 0 0-1.259.148q.767-.692 1.461-1.457a4 4 0 0 0 3.218.274c1.636-.682 1.299-3.427-2.019-1.714a22.4 22.4 0 0 0 2.008-3.155 3.725 3.725 0 0 0 3.187-.901c.695-.636.662-2.422-.716-2.126a3.36 3.36 0 0 0-1.516.981q.547-1.347.93-2.747c.935.218 2.183-.438 2.79-1.167.573-.682.323-2.273-.893-1.894a3.37 3.37 0 0 0-1.495 1.364q.27-1.339.402-2.698a3.39 3.39 0 0 0 2.594-1.588m-5.79 3.645c-.281-.62.251-1.324.806-1.035.721.376 1.036 2.222 1.034 2.731a3.14 3.14 0 0 1-1.84-1.696M325.918 118c.382-1.019 1.178-.675 1.266-.342.206.786-.511 2.397-.818 2.803a2.77 2.77 0 0 1-.448-2.461m3.832 1.637c.806.282.243 1.25-.198 1.447a3.18 3.18 0 0 1-2.785-.215c.382-.367 2.138-1.528 2.981-1.235zm.216-2.566a2.9 2.9 0 0 1-.83-.978 2.9 2.9 0 0 1-.33-1.239c0-1.038.857-.983 1.107-.703.543.605.226 2.44.053 2.92m3.327-.71c.757.131.439 1.222-.198 1.447a3.442 3.442 0 0 1-2.768-.205c.405-.464 2.162-1.379 2.966-1.242m-.409-3.582a3.073 3.073 0 0 1-1.513-1.993c-.189-.802.501-1.276.974-.877.627.523.627 2.369.539 2.87m2.904-2.067c.851-.138.689 1.071.352 1.417a3.2 3.2 0 0 1-1.236.723 3.2 3.2 0 0 1-1.43.109c.219-.485 1.433-2.106 2.314-2.249m1.755-9.518c.663-.23.923.651.627 1.152a2.96 2.96 0 0 1-2.089 1.377c.082-.503.694-2.262 1.462-2.529m-1.468-1.55c1.302.042.455 1.893.271 2.26-.004.006-.372.744-.489 1.076a5.7 5.7 0 0 0-.538-1.812c0-.01-.083-1.551.756-1.524m-2.139 1.302c.94-.712 1.598 1.662 1.55 2.717-1.05-.239-2.406-2.071-1.55-2.72zm3.224 4.93c.744-.182.71.885.444 1.234a2.86 2.86 0 0 1-2.276 1.041c.155-.488 1.039-2.084 1.829-2.281zM316.423 123.143a3.52 3.52 0 0 0-1.178-2.914c-.806-.604-2.356-.27-1.915.909a4.44 4.44 0 0 0 1.909 1.82 20 20 0 0 1-3.825-.525c.434-.756.231-2.21-.362-3.066-.549-.792-2.108-.868-2.037.32.047.789.855 1.915 1.495 2.515a26 26 0 0 1-4.055-1.594c.919-1.127.541-3.989-1.015-3.839-1.543.143-.859 2.034.04 3.308a23.7 23.7 0 0 1-3.458-2.409c.012-.006.03-.005.04-.013a3.19 3.19 0 0 0 .816-3.033 1.17 1.17 0 0 0-1.062-.997c-1.604-.133-1.197 2.051-.446 3.472a26 26 0 0 1-2.431-2.494c1.065-.96 1.107-3.892-.484-3.96a1.073 1.073 0 0 0-1.011.716c-.238-.289-1.018-1.032-1.808-.454-.58.425-.708 1.19.186 2.032-.645.127-1.005.409-1.054.904a1.19 1.19 0 0 0 .783 1.23 3.9 3.9 0 0 0 3.066-.191 27 27 0 0 0 1.905 2.01c-.697-.271-2.701-.811-2.636.729.066 1.567 2.987 1.523 3.957.449a24 24 0 0 0 2.365 1.733c-.678-.129-2.527-.248-2.345 1.205.206 1.639 3.401 1.26 4.326-.062a23 23 0 0 0 3.499 1.451c-.811.109-2.759.749-2.144 2.056.661 1.407 3.479.037 3.968-1.563.771.175 1.468.288 2.079.364-.447.138-1.704.613-1.137 1.842.646 1.408 3.709.084 3.969-1.951m-20.815-11.314c-.096-1.064 1.45-.881 1.798.214.111.648.326 1.274.638 1.853-.655-.469-2.358-1.189-2.436-2.067m-.416 2.058c.278-1.342 2.744.389 3.08.734-.967.659-3.285.257-3.08-.734m3.247-2.817c1.021-.068 1.07 2.301.292 3.152-.315-.407-1.755-3.054-.294-3.152zm-.126 6.531c0-1.45 2.804-.013 3.156.253-.829.772-3.156.792-3.156-.253m2.889-3.255a.45.45 0 0 1 .485-.301c1.421 0 .784 2.806.242 3.167-.298-.422-1.028-2.1-.729-2.866zm1.079 6.589c-.041-1.557 3.156-.377 3.515-.164-.843 1.046-3.485 1.266-3.515.164m3.899-.656c-.366-.364-1.381-1.887-1.22-2.694.032-.164.119-.372.518-.393 1.305-.057 1.104 2.514.703 3.088zm2.743 4.294c-.481.093-.9.013-1.018-.341-.506-1.511 3.158-1.445 3.195-1.436a3.24 3.24 0 0 1-2.175 1.779zm2.17-2.427c-.422-.298-1.65-1.631-1.65-2.453 0-.744 1.049-.555 1.326-.059a3.25 3.25 0 0 1 .323 2.514zm2.649-1.128c-.191-.814.843-.801 1.248-.451a3.085 3.085 0 0 1 1.054 2.303c-.488-.158-2.114-1.05-2.302-1.85zm-.927 3.857c-.714-1.694 3.112-1.47 3.205-1.455-.401 1.292-2.779 2.466-3.205 1.457z"/><path fill="#7BD2FF" d="M310.479 60.304a.23.23 0 0 1-.022-.461c.082-.008 8.191-.76 11.693-.92a.23.23 0 0 1 .224.222.234.234 0 0 1-.204.24c-4.046.183-11.509.92-11.691.92M312.512 68.45c.075-.006 7.56-.722 12.56-.816a.22.22 0 0 1 .166.063q.034.032.052.075a.2.2 0 0 1 .017.089c.01.552-.344-.124-12.751 1.05a.23.23 0 0 1-.252-.208.23.23 0 0 1 .208-.253M317.367 78.794a.233.233 0 0 1-.228-.212.232.232 0 0 1 .19-.247c.059-.01 5.89-1.006 8.564-1.276a.233.233 0 0 1 .241.209.24.24 0 0 1-.047.164.23.23 0 0 1-.148.088c-2.833.285-8.496 1.274-8.572 1.274M289.83 95.65a.23.23 0 0 1-.227-.194.24.24 0 0 1 .154-.256c.124-.042 12.825-4.244 37.604-9.354a.231.231 0 0 1 .094.453c-28.121 5.799-37.023 9.351-37.625 9.351M292.835 104.097a.233.233 0 0 1-.195-.355.24.24 0 0 1 .128-.097c.226-.069 22.824-6.963 37.111-10.46a.231.231 0 0 1 .11.45c-15.291 3.739-36.985 10.462-37.154 10.462M305.655 108.955c.143-.048 14.39-4.814 20.716-6.531a.24.24 0 0 1 .175.023.24.24 0 0 1 .109.139c.134.496-.049-.143-20.853 6.807a.23.23 0 0 1-.287-.147.233.233 0 0 1 .14-.291M315.625 114.033a.24.24 0 0 1-.12-.033.24.24 0 0 1-.085-.09.24.24 0 0 1-.026-.121.23.23 0 0 1 .174-.211c7.46-1.941 7.708-2.568 7.869-2.103a.23.23 0 0 1-.011.177.3.3 0 0 1-.054.072.2.2 0 0 1-.079.045c-2.498.859-7.417 2.264-7.668 2.264M261.952 69.36a.23.23 0 0 1-.146-.05.232.232 0 0 1 .051-.391 81 81 0 0 1 8.944-3.43.231.231 0 0 1 .121.447c-3.603.973-8.801 3.424-8.97 3.424M265.95 77.97a.23.23 0 0 1-.226-.185.23.23 0 0 1 .022-.154.23.23 0 0 1 .114-.105 46.5 46.5 0 0 1 6.121-2.108.23.23 0 0 1 .276.175.232.232 0 0 1-.175.276 52 52 0 0 0-6.132 2.101M270.121 87.137a.23.23 0 0 1-.148-.055.233.233 0 0 1-.052-.292.23.23 0 0 1 .121-.102 30 30 0 0 1 3.476-1.062.233.233 0 0 1 .271.167q.015.057 0 .115a.23.23 0 0 1-.072.118.23.23 0 0 1-.126.056c-1.054.168-3.357 1.055-3.47 1.055"/><path fill="#414141" d="M284.763 138.323c.079-.017 1.928-.464 2.41-3.201a.24.24 0 0 1 .095-.15.3.3 0 0 1 .083-.036.23.23 0 0 1 .239.093c.035.05.049.112.039.173-.539 3.056-2.676 3.553-2.767 3.572a.23.23 0 0 1-.266-.178.23.23 0 0 1 .167-.273"/><path fill="#fff" d="M296.565 71.409c-.789 0-3.84-3.038-4.202-3.31a.34.34 0 0 1-.122-.342.33.33 0 0 1 .265-.25.33.33 0 0 1 .243.057c.248.177 2.97 2.784 3.738 3.152.538-.783 2.158-5.71 2.384-6.707a.33.33 0 0 1 .644.145c-.113.502-2.086 7.255-2.95 7.255"/><path fill="#414141" d="M305.403 67.905c3.128-1.433 2.278-3.39-.496-3.302.713-.706 1.835-2.02 1.234-2.851-.601-.82-2.245-.364-3.137-.034.416-.93 1.054-2.714.159-3.235-.832-.489-2.053.508-2.72 1.169.163-3.233-1.668-3.62-3.48-.753-.816-2.585-2.613-2.707-3.447.422-2.326-2.616-3.925-1.442-3.209 1.466-2.571-1.377-3.982.044-2.186 2.49-3.216-.44-3.528 1.203-1.248 3.084-2.553.421-2.981 2.254.198 3.479-.713.463-1.974 1.447-1.578 2.37.449 1.05 2.108.993 3.024.873-.502.682-1.208 1.901-.462 2.666s2.294.106 3.05-.29c-.092.72-.569 3.184 1.328 3.334 1.078.085 2.252-1.644 2.252-1.644s.625 1.44 1.525 1.723c2.038.642 2.364-1.71 2.503-2.418.455.443 2.108 2.098 3.539.707.716-.697.165-2.463.165-2.463s1.599.467 2.418-.093c1.567-1.071.277-3.07-.059-3.526 2.192.178 2.48-.957 2.495-1.228.054-.969-1.135-1.63-1.868-1.946m-.434-.317a8.3 8.3 0 0 0-.462-2.503c2.959-.269 3.323 1.318.46 2.503zm.799-5.56c.39.528-.634 1.763-1.473 2.522a8.3 8.3 0 0 0-1.446-2.27c.791-.325 2.481-.853 2.917-.252zm-2.833-3.15c.575.337-.04 2.027-.496 2.971a8.7 8.7 0 0 0-2.021-1.498c.534-.595 1.875-1.849 2.515-1.473zm-3.585-1.426c.719.165.682 1.883.594 2.662a8.7 8.7 0 0 0-2.714-.76c.441-.733 1.405-2.08 2.118-1.902zm-4.081-.02c.812.007 1.155 1.209 1.333 1.87a8.8 8.8 0 0 0-2.666.27c.189-.753.671-2.14 1.331-2.14zm-4.278.971c.627-.363 1.769.74 2.304 1.36a8.8 8.8 0 0 0-2.443 1.275c-.221-.738-.511-2.259.136-2.635zm-3.071 2.503c.372-.568 2.001.172 2.489.475a8.8 8.8 0 0 0-1.683 1.916c-.465-.562-1.238-1.725-.809-2.392zm-2.041 3.203c.146-.555 1.651-.469 2.542-.317a8.3 8.3 0 0 0-.898 2.48c-.754-.546-1.804-1.563-1.646-2.164zm-.581 3.72c.04-.78 1.539-1.037 2.146-1.077a8.5 8.5 0 0 0 .093 2.76c-.716-.24-2.281-.927-2.243-1.686zm.628 4.206c-.284-.667 1.136-1.664 1.736-2.008a8.1 8.1 0 0 0 1.178 2.536c-.843.162-2.567.295-2.917-.531zm3.233.975a8.7 8.7 0 0 0 2.014 1.882c-2.694 1.584-4.011.521-2.014-1.882m3.85 5.059c-.434.237-2.108.646-1.387-2.9a8.8 8.8 0 0 0 3.011 1.103c-.418.7-.97 1.31-1.624 1.795zm3.895.416c-1.281.178-1.683-1.86-1.683-2.133a9 9 0 0 0 3.07-.199c0 .54-.383 2.19-1.387 2.33zm4.638-1.452c-1.076.555-2.108-.503-2.65-1.051a8.6 8.6 0 0 0 2.972-1.618c.065.111.701 2.14-.322 2.667zm-5.371-1.09a8.1 8.1 0 0 1-7.306-5.166 8.1 8.1 0 0 1 14.3-7.405 8.1 8.1 0 0 1 1.349 4.474 8.23 8.23 0 0 1-8.343 8.095zm8.611-2.041c-.852.911-2.159.297-2.516.106a9.3 9.3 0 0 0 2.008-2.82c.271.342 1.413 1.742.508 2.712zm-.284-3.286c.275-.766.431-1.57.463-2.384.693.248 1.961.865 1.848 1.605-.138.887-1.73.802-2.311.775z"/><path fill="#414141" d="M294.594 78.016c-.708 1.116-2.223 1.912-3.249.859-1.044 3.236-1.835 8.28-1.42 8.57.33.232 2.826-1.808 3.41-2.251a.18.18 0 0 1 .211 0c.568.423 2.641 2.338 3.143 2.239.426-.082.211-3.962.661-8.103-.594.433-2.177.26-2.756-1.314M305.971 73.616c-.016.53-.245 2.01-2.945 1.724.152.924.327 2.542-1.625 2.767.819 1.585 3.685 6.993 4.148 6.92.376-.062 1.604-3.83 1.782-4.371a.1.1 0 0 1 .032-.046.1.1 0 0 1 .054-.016c.555.033 3.949.356 4.087.092.388-.721-4.944-6.473-5.533-7.07"/><path fill="#414141" d="M329.773 50.814a.28.28 0 0 0-.124-.173c-.364-.212-8.877-1.071-20.481-.6-.035-.19-1.449-3.545-1.649-6.662a.25.25 0 0 0-.128-.197c-.573-.304-29.709 2.61-52.178 15.785-.191.111-.69.417 4.12 17.205-1.261-1.405-2.193-2.247-2.539-2.356-.26-.08-.509.115-.337.525 1.819 4.356 1.517 15.52 3.377 27.647 1.647 10.741 10.044 22.038 12.003 24.552-1.259-.264-2.879-.504-3.22-.08a.41.41 0 0 0-.034.457c5.06 10.561 13.85 11.92 13.938 11.932.01 0 1.989 4.325 3.014 6.524a.23.23 0 0 0 .303.103.23.23 0 0 0 .119-.125.23.23 0 0 0-.003-.173 474 474 0 0 1-3.038-6.652 12.8 12.8 0 0 0 2.506-5.952c.037 0 4.051-2.36 7.41-3.001a134 134 0 0 0 4.367 7.089c.828 1.249 23.891-8.962 56.867-15.327a.3.3 0 0 0 .182-.14c.501-1.027-16.947-28.353-24.475-70.38m-47.076 87.225a496 496 0 0 1-19.84-51.864.23.23 0 0 0-.287-.152.23.23 0 0 0-.155.285 497 497 0 0 0 19.916 52.037c-1.465-.31-8.846-2.302-13.32-11.61.317-.139 1.806.033 3.362.4a.235.235 0 0 0 .248-.104.232.232 0 0 0-.016-.268c-.105-.127-10.474-12.855-12.312-24.842-1.82-11.87-1.563-22.778-3.275-27.42 2.422 2.021 14.596 16.206 16.645 30.985a.23.23 0 0 0 .186.194.23.23 0 0 0 .243-.112 8.1 8.1 0 0 0 .831-2.91c1.602 2.057 8.771 13.597 10.068 23.817.613 4.847-.166 8.727-2.294 11.564m-6.014-33.613c-1.645-2.593-1.849-2.546-2-2.504a.26.26 0 0 0-.186.229 8.9 8.9 0 0 1-.501 2.473c-1.846-11.34-9.54-22.505-14.037-27.737.022-.048-4.531-16.485-4.443-17.562 21.542-12.603 48.816-15.73 51.593-15.73.32 2.201.852 4.366 1.589 6.465-10.514.458-23.474 2.015-35.197 6.115-.186.062-.207.334-.233.54-.168 1.346-.196 5.816.464 12.372.97 11.59 4.68 30.174 13.153 49.059a99 99 0 0 0 5.681 11.025c-2.616.452-6.308 2.428-7.054 2.852 1.407-11.001-7.577-25.63-8.826-27.597zm20.87 31.935c-23.818-36.06-24.441-77.135-23.802-79.78 24.569-8.56 53.586-6.04 55.589-5.558 7.097 39.487 23.424 67.173 24.434 69.901-30.536 5.915-54.417 15.668-56.219 15.437z"/><path fill="#7BD2FF" d="M273.366 94.524a.23.23 0 0 1-.226-.191.23.23 0 0 1 .026-.155.23.23 0 0 1 .12-.102 18.4 18.4 0 0 1 2.827-.892.23.23 0 1 1 .072.457 23 23 0 0 0-2.819.883"/><path fill="#fff" d="M350.662 99.41s-.405 3.525-.113 4.492 5.335 2.063 7.789 2.046a33.8 33.8 0 0 0 7.579-1.37c.23-.186.36-3.45.115-4.29-.245-.841-1.534-2.155-7.285-2.63s-7.956 1.35-8.085 1.752"/><path fill="#414141" d="M371.262 110.208c-.737-2.623-2.857-3.703-4.166-4.369a1.777 1.777 0 0 1-.995-1.311 9.3 9.3 0 0 0 .111-4.49c-.244-1.098-3.878-2.433-8.021-2.612-4.178-.18-7.44.887-7.699 1.933a17 17 0 0 0-.291 3.897c.01.141.058.275.139.391-.008.024.155.713-1.104 1.382-1.349.717-3.104 1.398-4.164 4.274-.914 2.48-1.141 10.563-1.205 11.98-.116 2.562.73 4.456 2.443 5.192 5.962 2.562 15.369 2.441 20.889 1.652 3.18-.455 4.238-2.29 4.307-5.677.008-.391.611-9.198-.244-12.242m-19.446-9.522a26 26 0 0 0-.163 3.385 9 9 0 0 1-.665-.359c-.203-.162-.322-.318-.325-.463-.007-1.05.058-2.099.196-3.139.291.236.613.43.957.579zm2.207.736c-.048.534-.186 2.125-.292 3.414-.102-.027-1.178-.367-1.601-.548a22.6 22.6 0 0 1 .132-3.413q.862.332 1.761.549zm11.833-.558c.139 1.213.026 3.31-.174 3.539q-.527.149-1.061.269c.046-.958-.018-2.655-.038-3.147a3.04 3.04 0 0 0 1.273-.659zm-1.731.784c.025.62.081 2.288.027 3.123q-.988.202-1.989.341c.052-.8.078-2.666.085-3.175a14 14 0 0 0 1.877-.285zm-2.429 3.526q-1.016.126-2.038.181c.039-.868.097-2.678.117-3.308a31 31 0 0 0 2.01-.073c-.007.589-.037 2.53-.089 3.201zm-2.501.201q-1.197.043-2.39-.039c.078-.795.248-3.107.267-3.395.462.045 1.922.102 2.24.105-.02.654-.078 2.492-.114 3.331zm-2.852-.078c-.525-.05-1.967-.301-2.159-.346.1-1.251.238-2.821.291-3.422.678.15 1.399.276 2.135.363-.01.174-.188 2.621-.264 3.407zm1.826-7.408c4.304.186 7.487 1.467 7.534 2.24a.54.54 0 0 1-.172.405c-.724.795-7.777 2.134-13.402-.216-.454-.19-1.678-.727-.918-1.214 2.407-1.534 6.646-1.227 6.96-1.213z"/><path fill="#414141" d="M358.741 100.786a.235.235 0 0 1-.192-.26.23.23 0 0 1 .254-.199c1.46.178 2.941.036 4.34-.415a.236.236 0 0 1 .281.093.23.23 0 0 1 .036.131.23.23 0 0 1-.151.21 10.1 10.1 0 0 1-4.568.44"/><path fill="#fff" d="M369.038 113.815c-.099-.997-.687-1.651-1.849-2.046-.396-.132-2.976-.892-3.844-1.314a14 14 0 0 0-5.421-1.592c-2.305-.112-3.837.469-5.904 1.364-2.228.967-3.913.901-4.569 1.816a2.6 2.6 0 0 0-.377 1.195c-.178 1.275-.542 7.094-.535 8.366.004.628.031 1.444 1.44 1.981 5.162 1.972 15.295 1.46 18.469.899 1.449-.257 2.108-.581 2.294-2.431.151-1.477.342-7.815.296-8.238"/><path fill="#414141" d="M348.347 115.993c.077-.95.081-1.566.152-2.013.3-1.839 1.215-1.271 4.092-2.394a.23.23 0 0 1 .176.005.23.23 0 0 1-.008.426c-2.921 1.139-3.56.545-3.803 2.037-.073.453-.034.591-.148 1.977a.233.233 0 0 1-.249.212.233.233 0 0 1-.212-.25M367.148 116.249c.01-.692.016-1.478.006-1.571-.158-1.562-2.232-1.283-4.666-2.41a12.5 12.5 0 0 0-4.526-1.288 5.84 5.84 0 0 0-3.108.382.23.23 0 0 1-.272-.314.23.23 0 0 1 .117-.12 6.3 6.3 0 0 1 3.286-.407c1.636.139 3.231.59 4.697 1.329 2.379 1.1 4.735.835 4.933 2.783.016.154 0 1.379-.004 1.624q0 .046-.019.088a.232.232 0 0 1-.444-.096M355.387 123.448a.23.23 0 0 1-.144-.093.233.233 0 0 1 .212-.365 33.8 33.8 0 0 0 9.711-.22c1.192-.193 1.511-.372 1.657-1.57.327-2.686.031-3.048.457-3.082a.227.227 0 0 1 .22.241c-.186 4.047-.258 4.544-2.261 4.867a32.5 32.5 0 0 1-9.852.222M352.997 123.222c-.099 0-3.212-.461-3.782-.647-1.257-.413-1.257-1.127-1.257-1.648 0-.863.124-2.329.198-3.268a.235.235 0 0 1 .248-.211.23.23 0 0 1 .157.08.23.23 0 0 1 .054.168c-.127 1.55-.209 2.795-.199 3.032.026.64-.093 1.066.941 1.406.328.108 1.836.365 3.67.627a.23.23 0 0 1 .207.244.23.23 0 0 1-.237.217M345.461 129.504c-.534-.287-2.548 1.72-3.54 3.518-1.02 1.85-1.612 5.26.479 5.26 1.34-.155 1.638-2.078 1.91-4.34.348-2.889 1.479-4.262 1.151-4.438M348.813 135.848a.23.23 0 0 0-.281.055c-.104.124-2.575 3.029-2.839 6.448-.107 1.388.109 3.492 1.605 3.273 1.265-.186 1.154-1.612 1.022-3.362-.4-5.304 1.07-6.109.493-6.414"/><path fill="#005BC3" d="M359.126 63.778a.975.975 0 0 0 .69-1.667.975.975 0 0 0-1.667.69.977.977 0 0 0 .977.977M371.594 70.931a.978.978 0 1 0 0-1.955.978.978 0 0 0 0 1.955M343.09 62.503a.978.978 0 1 0 0-1.955.978.978 0 0 0 0 1.955M344.271 78.192s-1.801-10.072-.458-13.358c.228-.558 7.047 6.81 7.156 6.828s6.591-5.933 7.103-5.842 2.918 8.435 3.158 8.69c.241.256 7.979-2.282 8.381-1.606s-5.074 10.83-6.025 10.991c-.674.115-12.459-2.186-19.315-5.703"/><path fill="#414141" d="M359.126 64.122a1.325 1.325 0 0 1-1.232-.805 1.32 1.32 0 0 1 .952-1.812 1.32 1.32 0 0 1 1.586 1.294 1.314 1.314 0 0 1-1.306 1.323m0-2.183a.863.863 0 0 0-.863 1.017.86.86 0 0 0 .672.686.863.863 0 0 0 .791-1.447.86.86 0 0 0-.6-.256M371.593 71.276a1.324 1.324 0 0 1-1.298-.99 1.326 1.326 0 0 1 1.406-1.65 1.32 1.32 0 0 1 1.198 1.317 1.317 1.317 0 0 1-1.306 1.323m0-2.184a.86.86 0 1 0-.034 1.72.86.86 0 0 0 .034-1.72M343.091 62.852a1.32 1.32 0 0 1-.811-2.38 1.32 1.32 0 0 1 1.772.167c.222.243.345.56.345.89a1.315 1.315 0 0 1-1.306 1.322m0-2.185a.86.86 0 0 0-.86.678.86.86 0 0 0 1.08 1.012.86.86 0 0 0-.22-1.687zM363.585 84.09a75 75 0 0 1-9.756-2.01c-4.438-1.275-9.629-3.44-9.731-3.83-.984-3.658-1.403-13.264-.364-13.616.349-.118 1.178.28 6.952 6.4l.367.388c1.341-1.17 6.195-5.962 7.078-5.79.809.187 2.637 7.29 3.215 8.7 1.282-.395 7.812-2.298 8.422-1.58.112.132.13.34-.113 1.004-.711 1.953-5.058 10.335-6.07 10.335m-19.06-6.029a57.7 57.7 0 0 0 9.431 3.575c3.15.86 6.35 1.524 9.582 1.992.879-.403 5.833-9.373 5.851-10.59-.76-.273-7.451 1.512-8.038 1.77a.23.23 0 0 1-.198.01c-.173-.069-.226-.16-1.087-2.964-.59-1.922-1.689-5.502-2.069-5.784-.525.037-4.005 3.27-5.492 4.65-1.426 1.323-1.421 1.322-1.6 1.203-.035-.023-6.572-6.648-6.998-6.823-.4.914-.581 8.417.618 12.961"/><path fill="#005BC3" d="M337.818 48.712c.068-.055 6.888-5.489 7.345-5.87a.296.296 0 0 1 .408.008.3.3 0 0 1 .088.245.302.302 0 0 1-.115.203c-.462.386-7.075 5.654-7.356 5.878a.298.298 0 0 1-.37-.464M335.215 45.714a.297.297 0 0 1-.296-.292.3.3 0 0 1 .036-.147c.041-.076 4.144-7.58 5.266-9.576a.29.29 0 0 1 .294-.149.3.3 0 0 1 .198.112.3.3 0 0 1 .063.16.3.3 0 0 1-.038.168c-5.477 9.75-5.142 9.724-5.523 9.724M330.204 44.65a.3.3 0 0 1-.226-.104.3.3 0 0 1-.068-.239 50.6 50.6 0 0 1 2.689-9.767.298.298 0 0 1 .549-.007.3.3 0 0 1 .003.227 50 50 0 0 0-2.654 9.636.293.293 0 0 1-.293.253"/></g><rect width="373.511" height="143.511" x=".745" y=".745" stroke="url(#c)" stroke-opacity=".08" stroke-width=".511" rx="10.255"/><defs><linearGradient id="b" x1="42.663" x2="213.928" y1="15.809" y2="76.544" gradientUnits="userSpaceOnUse"><stop stop-color="#003F88"/><stop offset=".65" stop-color="#03BCFF"/><stop offset="1" stop-color="#0076FF"/></linearGradient><linearGradient id="c" x1="47.195" x2="387.35" y1="20.571" y2="83.69" gradientUnits="userSpaceOnUse"><stop stop-color="#003F88"/><stop offset=".65" stop-color="#02D4FF"/><stop offset="1" stop-color="#0076FF"/></linearGradient><clipPath id="a"><rect width="373" height="143" x="1" y="1" fill="#fff" rx="10"/></clipPath></defs></svg>