<svg xmlns="http://www.w3.org/2000/svg" width="375" height="145" fill="none"><g clip-path="url(#a)"><rect width="373" height="143" x="1" y="1" fill="#E3F0FF" rx="10"/><path fill="#C8E2FF" d="M379.257 159c-143.113-3.736-175.944-8.836-182.825-17.463-6.042-9.025-6.042-9.025 63.984-59.124 31.74-22.689 81.94-58.621 98.261-73.985A1242 1242 0 0 0 234.78-4.942a7.97 7.97 0 0 1-8.559-3.82 8.12 8.12 0 0 1 3.041-11.207 8.1 8.1 0 0 1 4.133-1.03c2.098 0 141.981 6.088 145.631 24.264 1.322 10.368-11.433 22.185-109.338 92.203-18.88 13.432-39.313 28.124-51.04 37.149 37.656 5.331 143.638 9.172 161.07 10.348a8.082 8.082 0 0 1 7.28 8.227 8.1 8.1 0 0 1-2.344 5.42 8.1 8.1 0 0 1-5.397 2.388"/><path fill="url(#b)" d="M32.163 40.197H19.577V22.748h4.5v14.074h8.086zm15.445-5.8h-9.656q.094 1.546 1.172 2.367 1.09.82 3.2.82 1.335 0 2.59-.48 1.252-.48 1.98-1.032h.468v3.387q-1.43.574-2.695.832-1.266.258-2.8.258-3.962 0-6.071-1.781-2.11-1.782-2.11-5.075 0-3.257 1.993-5.156 2.004-1.91 5.484-1.91 3.21 0 4.828 1.629 1.617 1.617 1.617 4.664zm-4.195-2.473q-.035-1.325-.656-1.992-.621-.669-1.934-.668-1.218 0-2.004.633-.785.632-.879 2.027zM59 40.08q-.68.175-1.441.27-.763.105-1.864.105-2.46 0-3.668-.996-1.195-.995-1.195-3.41v-6.152h-1.734v-2.86h1.734v-3.762h4.219v3.762h3.949v2.86h-3.95v4.663q0 .693.013 1.208.011.515.187.925.164.41.574.657.423.234 1.219.234.329 0 .855-.14.54-.14.75-.259H59zm8.133-18.117-3.41 6.902H60.98l1.84-6.902zm13.804 14.062q0 2.04-1.828 3.293-1.827 1.243-5.004 1.242-1.757 0-3.187-.328-1.43-.327-2.297-.726v-3.469h.387q.316.223.726.492.422.258 1.184.563.657.27 1.488.468a8 8 0 0 0 1.781.188q1.243 0 1.84-.27.598-.28.598-.82 0-.48-.352-.691-.352-.224-1.336-.422-.468-.106-1.277-.223a15 15 0 0 1-1.453-.304q-1.793-.47-2.66-1.453-.867-.997-.867-2.473 0-1.9 1.793-3.152 1.804-1.266 4.922-1.266 1.476 0 2.824.305 1.36.293 2.12.632v3.328h-.362a8.4 8.4 0 0 0-2.145-1.043 7.4 7.4 0 0 0-2.426-.41q-1.02 0-1.722.282-.692.281-.692.796 0 .47.317.715.316.246 1.488.492.644.129 1.383.258a17 17 0 0 1 1.5.305q1.665.433 2.46 1.371.797.925.797 2.32m25.219-1.312q0 2.578-2.191 4.195-2.18 1.605-5.93 1.606-2.168 0-3.785-.375a20 20 0 0 1-3.012-.973v-4.184h.493q1.394 1.114 3.117 1.711 1.734.598 3.328.598.41 0 1.078-.07t1.09-.235a2.6 2.6 0 0 0 .844-.527q.339-.317.339-.937 0-.575-.492-.985-.48-.422-1.418-.644-.984-.235-2.086-.434-1.09-.21-2.05-.527-2.204-.716-3.176-1.934-.96-1.23-.961-3.047 0-2.437 2.18-3.972 2.19-1.547 5.624-1.547 1.724 0 3.399.34 1.688.328 2.918.832v4.019h-.481q-1.055-.843-2.589-1.406a8.8 8.8 0 0 0-3.118-.574q-.562 0-1.125.082-.55.07-1.066.28a2 2 0 0 0-.785.54 1.15 1.15 0 0 0-.328.808q0 .692.527 1.067.528.363 1.992.668.96.2 1.84.387a19 19 0 0 1 1.91.515q2.004.657 2.953 1.793.961 1.125.961 2.93m11.274 5.367q-.68.175-1.442.27-.762.105-1.863.105-2.461 0-3.668-.996-1.195-.995-1.195-3.41v-6.152h-1.735v-2.86h1.735v-3.762h4.218v3.762h3.95v2.86h-3.95v4.663q0 .693.012 1.208t.188.925q.163.41.574.657.421.234 1.219.234.328 0 .855-.14.54-.14.75-.259h.352zm10.5-3.316v-2.742a40 40 0 0 0-1.852.199q-.996.117-1.512.281-.632.2-.972.586-.328.375-.328.996 0 .41.07.668t.352.492q.269.234.644.352.375.105 1.172.105.633 0 1.277-.258a4 4 0 0 0 1.149-.68m0 2.039q-.34.258-.844.62a6 6 0 0 1-.949.575 5.8 5.8 0 0 1-1.289.41q-.669.14-1.465.14-1.875 0-3.141-1.16-1.265-1.16-1.265-2.964 0-1.441.644-2.356.645-.914 1.828-1.441 1.172-.528 2.906-.75a51 51 0 0 1 3.598-.328v-.07q0-1.09-.89-1.5-.891-.422-2.625-.422-1.044 0-2.227.375a28 28 0 0 0-1.699.562h-.387v-3.176q.668-.176 2.168-.41a19 19 0 0 1 3.023-.246q3.598 0 5.192 1.113 1.605 1.102 1.605 3.47v8.952h-4.183zm17.601-7.746h-.375q-.268-.095-.867-.141a13 13 0 0 0-.996-.047 9.6 9.6 0 0 0-1.594.117 9 9 0 0 0-1.488.399v8.812h-4.219v-13.16h4.219v1.934q1.395-1.196 2.426-1.582 1.03-.399 1.898-.399.224 0 .504.012.282.012.492.035zm10.805 9.023q-.68.175-1.441.27a14 14 0 0 1-1.864.105q-2.46 0-3.668-.996-1.195-.995-1.195-3.41v-6.152h-1.734v-2.86h1.734v-3.762h4.219v3.762h3.949v2.86h-3.949v4.663q0 .693.011 1.208.012.515.188.925.164.41.574.657.422.234 1.219.234.329 0 .855-.14.54-.14.75-.259h.352z"/><path fill="#384F69" d="M26.292 64.197h-1.16V56.68l-2.426 5.115h-.691l-2.409-5.115v7.517h-1.084v-8.724h1.583l2.326 4.857 2.25-4.857h1.611zm6.862 0h-1.096V63.5q-.147.1-.398.281a3.157 3.157 0 0 1-1.113.504 3.3 3.3 0 0 1-.838.094q-.885 0-1.5-.586-.616-.586-.616-1.494 0-.745.317-1.201.323-.463.914-.727.598-.264 1.435-.357.838-.095 1.8-.141v-.17q0-.375-.136-.621a.94.94 0 0 0-.375-.387 1.6 1.6 0 0 0-.562-.181 5 5 0 0 0-.686-.047q-.434 0-.966.117a7 7 0 0 0-1.102.328h-.059v-1.119q.323-.088.932-.193.61-.106 1.201-.106.691 0 1.201.117.516.112.89.387.37.27.563.697.194.428.194 1.06zm-1.096-1.611v-1.822q-.503.029-1.19.088a6 6 0 0 0-1.077.17q-.476.135-.768.421-.293.282-.293.78 0 .562.34.85.34.28 1.037.28.58 0 1.06-.222.48-.229.891-.545m8.678 1.611h-1.453l-2.625-2.865-.715.68v2.185h-1.101V55.08h1.101v5.848l3.182-3.276h1.389l-3.041 3.024zm6.042-3.158h-4.822q0 .603.181 1.055.182.445.498.732.305.282.72.422.422.14.927.14a3.7 3.7 0 0 0 1.342-.263q.68-.27.966-.527h.059v1.2q-.556.236-1.137.393a4.6 4.6 0 0 1-1.219.159q-1.628 0-2.543-.88-.914-.884-.914-2.507 0-1.605.873-2.549.88-.943 2.309-.943 1.325 0 2.04.773.72.774.72 2.197zm-1.072-.844q-.005-.867-.44-1.342-.427-.474-1.307-.474-.885 0-1.412.521-.521.522-.591 1.295zm11.086 4.002h-1.095V63.5q-.146.1-.399.281a3.157 3.157 0 0 1-1.113.504 3.3 3.3 0 0 1-.838.094q-.885 0-1.5-.586t-.615-1.494q0-.745.316-1.201.323-.463.914-.727.598-.264 1.436-.357.837-.095 1.799-.141v-.17q0-.375-.135-.621a.94.94 0 0 0-.375-.387 1.6 1.6 0 0 0-.563-.181 5 5 0 0 0-.685-.047q-.434 0-.967.117a7 7 0 0 0-1.102.328h-.058v-1.119q.322-.088.932-.193.609-.106 1.2-.106.693 0 1.202.117.516.112.89.387.37.27.563.697.193.428.193 1.06zm-1.095-1.611v-1.822q-.504.029-1.19.088a6 6 0 0 0-1.078.17q-.474.135-.768.421-.292.282-.292.78 0 .562.34.85.34.28 1.036.28.58 0 1.061-.222.48-.229.89-.545m11.784 1.611h-1.102v-.685a4 4 0 0 1-.99.638 2.7 2.7 0 0 1-1.12.229q-1.171 0-1.862-.902-.686-.903-.686-2.502 0-.833.234-1.483a3.5 3.5 0 0 1 .645-1.107 2.7 2.7 0 0 1 2.027-.914q.516 0 .914.111.399.106.838.334V55.08h1.102zm-1.102-1.611V58.83a4 4 0 0 0-.797-.275 3.6 3.6 0 0 0-.767-.077q-.926 0-1.442.645t-.515 1.828q0 1.166.398 1.776.399.603 1.278.603.468 0 .949-.205.48-.21.896-.54m6.874-3.733h-.059a4.365 4.365 0 0 0-1.025-.111q-.51 0-.985.229a4.4 4.4 0 0 0-.914.58v4.646H69.17v-6.545h1.101v.967q.657-.527 1.155-.744a2.5 2.5 0 0 1 1.025-.223q.287 0 .416.018.129.012.387.053zm5.432 5.344h-1.096V63.5q-.146.1-.398.281a3.157 3.157 0 0 1-1.113.504 3.3 3.3 0 0 1-.838.094q-.885 0-1.5-.586t-.616-1.494q0-.745.317-1.201.323-.463.914-.727.597-.264 1.435-.357.839-.095 1.8-.141v-.17q0-.375-.136-.621a.94.94 0 0 0-.375-.387 1.6 1.6 0 0 0-.562-.181 5 5 0 0 0-.686-.047q-.434 0-.966.117a7 7 0 0 0-1.102.328h-.059v-1.119q.323-.088.932-.193.61-.106 1.201-.106.692 0 1.201.117.516.112.891.387.37.27.563.697.192.428.193 1.06zm-1.096-1.611v-1.822q-.504.029-1.19.088a6 6 0 0 0-1.077.17q-.475.135-.768.421-.293.282-.293.78 0 .562.34.85.34.28 1.037.28.58 0 1.06-.222.48-.229.891-.545m6.258-6.44h-.058a5 5 0 0 0-.475-.105 2.7 2.7 0 0 0-.515-.059q-.71 0-1.032.317-.315.31-.316 1.13v.223h1.986v.926h-1.95v5.62h-1.102v-5.62h-.745v-.926h.745v-.217q0-1.166.58-1.787.58-.626 1.675-.626.37 0 .662.035.3.034.545.082zm3.616 7.993a6 6 0 0 1-1.33.187q-1.002 0-1.523-.539-.522-.54-.522-1.728v-3.48h-.744v-.927h.744v-1.88h1.102v1.88h2.273v.926H85.19v2.982q0 .516.023.81.024.285.164.538a.8.8 0 0 0 .352.346q.228.105.691.105.27 0 .563-.076a4 4 0 0 0 .422-.135h.058zm8.116-7.992h-.058a5 5 0 0 0-.475-.106 2.7 2.7 0 0 0-.516-.059q-.708 0-1.03.317-.317.31-.317 1.13v.223h1.986v.926h-1.951v5.62h-1.102v-5.62h-.744v-.926h.744v-.217q0-1.166.58-1.787.58-.626 1.676-.626.37 0 .662.035.3.034.545.082zm5.796 4.78q0 1.6-.821 2.526-.82.926-2.197.926-1.389 0-2.209-.926-.814-.926-.814-2.525 0-1.6.814-2.526.82-.93 2.21-.931 1.376 0 2.196.931.82.926.821 2.526m-1.137 0q0-1.27-.498-1.886-.498-.621-1.383-.621-.896 0-1.394.621-.493.616-.493 1.887 0 1.23.499 1.869.498.633 1.388.633.879 0 1.377-.627.504-.633.504-1.875m6.452-2.074h-.059a4.374 4.374 0 0 0-1.025-.111q-.51 0-.985.229a4.4 4.4 0 0 0-.914.58v4.646h-1.101v-6.545h1.101v.967q.656-.527 1.155-.744a2.5 2.5 0 0 1 1.025-.223q.287 0 .416.018.129.012.387.053zm9.956-1.2-3.821 8.958h-1.177l1.218-2.73-2.607-6.229h1.195l2.01 4.852 2.027-4.852zm6.434 3.275q0 1.6-.821 2.525-.82.926-2.197.926-1.389 0-2.209-.926-.814-.926-.814-2.525 0-1.6.814-2.526.82-.93 2.209-.931 1.377 0 2.197.931.82.926.821 2.526m-1.137 0q0-1.272-.498-1.887-.498-.621-1.383-.621-.897 0-1.394.621-.493.616-.493 1.887 0 1.23.498 1.869.499.633 1.389.633.879 0 1.377-.627.504-.633.504-1.875m7.793 3.27h-1.101v-.727a5.4 5.4 0 0 1-1.067.673 2.66 2.66 0 0 1-1.125.235q-1.03 0-1.605-.627-.574-.633-.574-1.852v-4.248h1.101v3.727q0 .498.047.855.047.352.199.604a.95.95 0 0 0 .411.375q.252.117.732.117.428 0 .932-.223.51-.222.949-.568v-4.887h1.101zm5.772-5.344h-.058a4.363 4.363 0 0 0-1.026-.111q-.51 0-.984.228a4.4 4.4 0 0 0-.914.58v4.646h-1.102v-6.545h1.102v.967q.656-.527 1.154-.744a2.5 2.5 0 0 1 1.026-.223q.287 0 .416.018.13.012.386.053zm9.904 5.343h-5.52v-8.724h1.16v7.693h4.36zm5.906-7.693h-3.117v7.693h-1.16v-7.693h-3.117v-1.031h7.394zm6.868 7.693h-1.236l-.856-2.431h-3.773l-.856 2.431h-1.177l3.175-8.724h1.547zm-2.449-3.428-1.529-4.283-1.536 4.284zm14.251 3.428h-1.506l-2.918-3.469h-1.635v3.47h-1.16v-8.725h2.443q.792 0 1.319.105.527.1.949.363.474.3.738.756.27.451.27 1.149 0 .943-.475 1.582-.475.633-1.306.955zm-2.713-6.27q0-.375-.135-.661a1.13 1.13 0 0 0-.433-.493 1.6 1.6 0 0 0-.598-.234 4 4 0 0 0-.815-.07h-1.365v3.293h1.172q.551 0 .961-.094.41-.099.697-.363.264-.246.387-.563.129-.322.129-.814m8.455 3.112h-4.822q0 .603.182 1.055.182.445.498.732.304.282.721.422.421.14.925.14.669 0 1.342-.263.68-.27.967-.527h.059v1.2q-.557.236-1.137.393a4.6 4.6 0 0 1-1.219.159q-1.63 0-2.543-.88-.914-.884-.914-2.507 0-1.605.873-2.549.88-.943 2.309-.943 1.323 0 2.039.773.72.774.72 2.197zm-1.072-.844q-.006-.867-.439-1.342-.428-.474-1.307-.474-.885 0-1.412.521a2.03 2.03 0 0 0-.592 1.295zm7.571 6.416h-1.102V63.46a4 4 0 0 1-1.013.656q-.505.21-1.09.211-1.166 0-1.863-.896-.692-.903-.692-2.485 0-.843.24-1.488.246-.65.645-1.09a2.7 2.7 0 0 1 2.01-.896q.527 0 .931.117.41.117.832.346l.071-.282h1.031zm-1.102-4.078V58.83a4.5 4.5 0 0 0-.808-.287 3.4 3.4 0 0 0-.762-.082q-.955 0-1.453.65-.498.645-.498 1.782 0 1.147.398 1.77.405.614 1.266.614.48 0 .961-.205.48-.21.896-.539m8.216 1.664h-1.102v-.726a5.4 5.4 0 0 1-1.066.673q-.51.235-1.125.235-1.032 0-1.606-.627-.574-.633-.574-1.852v-4.248h1.102v3.727q0 .498.046.855.048.352.2.604a.94.94 0 0 0 .41.375q.252.117.732.117.428 0 .932-.223.51-.222.949-.568v-4.887h1.102zm7.166-3.158h-4.822q0 .603.182 1.055.182.445.498.732.305.282.72.422.423.14.926.14.668 0 1.342-.263.68-.27.967-.527h.058v1.2a9 9 0 0 1-1.136.393 4.6 4.6 0 0 1-1.219.159q-1.63 0-2.543-.88-.914-.884-.914-2.507 0-1.605.873-2.549.879-.943 2.308-.943 1.325 0 2.039.773.721.774.721 2.197zm-1.072-.844q-.005-.867-.44-1.342-.427-.474-1.306-.474-.885 0-1.412.521a2.03 2.03 0 0 0-.592 1.295zm6.938 2.115q0 .897-.744 1.471-.738.575-2.022.575-.726 0-1.336-.17a6 6 0 0 1-1.013-.381v-1.237h.058q.522.393 1.16.627.639.23 1.225.229.726 0 1.137-.234.41-.235.41-.739 0-.387-.223-.586-.222-.2-.855-.34a17 17 0 0 0-.615-.123 10 10 0 0 1-.686-.152q-.86-.228-1.225-.668-.357-.445-.357-1.09 0-.405.164-.761.17-.358.51-.64.328-.274.832-.433a3.7 3.7 0 0 1 1.137-.164q.585 0 1.183.147.603.14 1.002.345v1.178h-.059a3.9 3.9 0 0 0-1.025-.521 3.5 3.5 0 0 0-1.184-.217q-.603 0-1.019.234-.416.229-.416.686 0 .404.252.61.246.204.797.333.304.07.679.14.381.071.633.13.768.175 1.184.603.416.434.416 1.148m4.5 1.829a6 6 0 0 1-1.33.187q-1.002 0-1.523-.539-.522-.54-.522-1.728v-3.48h-.744v-.927h.744v-1.88h1.102v1.88h2.273v.926h-2.273v2.982q0 .516.023.81.024.285.164.538a.8.8 0 0 0 .352.346q.228.105.691.105.27 0 .563-.076.293-.083.422-.135h.058zM23.521 81.197h-1.096V80.5q-.146.1-.399.281a3.154 3.154 0 0 1-1.113.504 3.3 3.3 0 0 1-.838.094q-.885 0-1.5-.586t-.615-1.494q0-.744.316-1.201.323-.463.914-.727.598-.264 1.436-.357.838-.095 1.799-.141v-.17q0-.375-.135-.621a.94.94 0 0 0-.375-.387 1.6 1.6 0 0 0-.562-.181 5 5 0 0 0-.686-.047q-.434 0-.967.117a7 7 0 0 0-1.101.328h-.059v-1.119q.322-.088.932-.193.609-.106 1.2-.106.692 0 1.202.117.516.112.89.387.37.27.563.697.194.429.193 1.06zm-1.096-1.611v-1.822q-.504.03-1.19.088a6 6 0 0 0-1.078.17 1.76 1.76 0 0 0-.767.421q-.294.282-.293.78 0 .562.34.85.34.28 1.037.28.58 0 1.06-.222.48-.229.89-.545m8.21 1.611h-1.102v-3.726q0-.451-.053-.844-.053-.399-.193-.621a.88.88 0 0 0-.422-.363q-.276-.123-.715-.124-.45 0-.944.223a4.8 4.8 0 0 0-.943.569v4.886h-1.101v-6.545h1.101v.727a4.5 4.5 0 0 1 1.067-.668q.55-.24 1.13-.24 1.06 0 1.618.638.556.64.556 1.84zm6.949 0h-1.102v-.685a4 4 0 0 1-.99.638 2.7 2.7 0 0 1-1.119.229q-1.172 0-1.863-.902-.686-.903-.686-2.502 0-.833.235-1.483a3.5 3.5 0 0 1 .644-1.107 2.7 2.7 0 0 1 2.027-.914q.516 0 .915.111.397.105.837.334V72.08h1.102zm-1.102-1.611V75.83a4 4 0 0 0-.797-.275 3.6 3.6 0 0 0-.767-.077q-.926 0-1.441.645-.516.646-.516 1.828 0 1.167.398 1.776.399.603 1.278.603.468 0 .949-.205.48-.21.896-.54m11.204-.275q0 .895-.744 1.47-.738.575-2.021.575-.727 0-1.336-.17a6 6 0 0 1-1.014-.381v-1.237h.059q.52.393 1.16.627a3.6 3.6 0 0 0 1.225.229q.726 0 1.136-.235t.41-.738q0-.387-.222-.586-.223-.2-.856-.34a17 17 0 0 0-.615-.123 10 10 0 0 1-.686-.152q-.861-.228-1.224-.668-.357-.445-.358-1.09 0-.404.165-.761.17-.358.51-.64.327-.274.831-.433.51-.165 1.137-.164.585 0 1.184.147.603.14 1.002.345v1.178h-.059a3.9 3.9 0 0 0-1.025-.521 3.5 3.5 0 0 0-1.184-.217q-.603 0-1.02.234-.416.229-.416.686 0 .404.252.61.247.204.797.333.305.07.68.14.381.071.633.13.768.176 1.183.603.416.435.416 1.148m6.528 1.886h-1.101v-.726a5.4 5.4 0 0 1-1.067.673 2.7 2.7 0 0 1-1.125.235q-1.03 0-1.605-.627-.574-.633-.574-1.852v-4.248h1.101v3.727q0 .498.047.855.047.352.2.604a.94.94 0 0 0 .41.375q.25.117.732.117.428 0 .931-.223a4.3 4.3 0 0 0 .95-.568v-4.887h1.101zm7.448-3.322q0 .821-.234 1.477-.23.656-.621 1.101a2.9 2.9 0 0 1-.915.697 2.6 2.6 0 0 1-1.095.229q-.557 0-.973-.135a4.4 4.4 0 0 1-.82-.351l-.07.304h-1.032V72.08h1.102v3.258a4.5 4.5 0 0 1 .984-.621 2.7 2.7 0 0 1 1.172-.246q1.16 0 1.828.89.675.891.674 2.514m-1.137.03q0-1.173-.386-1.776-.387-.61-1.248-.61-.48 0-.973.212a4 4 0 0 0-.914.533v3.75q.468.21.803.293.34.082.767.082.915 0 1.43-.598.52-.603.521-1.887m11.925 3.292h-1.102v-3.726q0-.422-.041-.815a1.7 1.7 0 0 0-.158-.627.9.9 0 0 0-.387-.38q-.252-.13-.727-.13-.463 0-.925.235a5.5 5.5 0 0 0-.926.586q.017.135.03.316.01.176.011.352v4.19h-1.102V77.47a8 8 0 0 0-.04-.82 1.7 1.7 0 0 0-.159-.628.86.86 0 0 0-.387-.375q-.252-.128-.726-.129-.451 0-.908.223-.451.223-.903.569v4.886H62.9v-6.545H64v.727a5 5 0 0 1 1.026-.668q.516-.24 1.095-.24.669 0 1.131.281.469.281.698.78.667-.563 1.218-.81.55-.25 1.178-.251 1.078 0 1.588.656.516.65.516 1.822zm2.824-7.64h-1.242v-1.143h1.242zm-.07 7.64h-1.102v-6.545h1.102zm5.098-.058a6 6 0 0 1-1.33.187q-1.002 0-1.523-.539-.522-.54-.522-1.728v-3.48h-.744v-.927h.744v-1.88h1.102v1.88h2.273v.926H78.03v2.983q0 .515.023.808.023.287.164.54a.8.8 0 0 0 .352.345q.228.105.691.105.27 0 .563-.076a4 4 0 0 0 .421-.135h.06z"/><g clip-path="url(#c)"><path fill="#FDAF31" d="M311.608 143.685c-19.407-8.722-24.236-35.559-13.842-52.852 13.578-22.586 48.221-19.26 61.101 2.033 17.767 29.382-17.073 64.384-47.259 50.819"/><path fill="#7BD2FF" d="M325.044 97.353c-.296 1.68-1.794 2.345-3.216 2.957a20.8 20.8 0 0 1-5.359 1.626c-4.801.681-4.147 2.579-6.82 4.75-1.825 1.482-3.106.976-4.583 1.314-2.002.456-2.476 2.885-4.584 4.213-.702.443-1.552.666-2.217 1.146-.462.333-.999 1.037-.425 1.441.553.39 1.144.482 1.533 1.073 1.716 2.594-3.467 4.351 1.756 5.895 2.182.645 3.143-.506 4.786-1.22 5.714-2.482 9.791 1.712 7.519 2.403-1.336.406-1.834 1.81-2.107 3.012-.533 2.358-.629 2.545.962 3.715 4.275 3.143 2.295 9.669-.684 14.027-18.666-8.391-24.044-33.617-14.746-51.246 8.906-3.918 13.008.576 17.704-.703 1.718-.467 3.383-1.188 5.194-1.053 3.407.251 5.675 4.434 5.287 6.65M348.607 138.565c-1.959.48-3.963-1.576-4.749-3.123a18.3 18.3 0 0 1-1.036-3.493c-.716-2.537-2.533-2.889-7.669-8.575-1.5-1.661-3.884-3.66-3.212-6.132.588-2.181 2.696-3.755 4.38-5.12 3.232-2.619 6.622-3.991 10.293-2.107 1.364.701 1.905.992 3.086.073 3.612-2.805 1.569-3.517.573-4.75-.978-1.209-.881-2.823.906-3.843-.754-.511-3.028-.73-3.696-2.514-.432-1.15.073-1.569-1.627-2.014-2.887-.757-3.066-1.333-3.788-4.047-.467-1.758-1.263-1.489-1.774-2.717-1.411-3.393 3.53-6.971 6.394-9.296 22.071 13.242 22.362 42.014 1.919 57.658"/><path fill="#414141" d="M365.96 96.853c.185-.02.238.202.146.315-2.757 3.465-2.901 7.685-7.429 9.905a8.3 8.3 0 0 0-2.753 1.774c-.104.119-.301.171-.314-.425-.176-8.084 2.915-12.402.776-15.84a.2.2 0 0 1-.024-.148.197.197 0 0 1 .236-.144c.05.013.094.044.121.089 2.117 3.319-.562 7.245-.721 13.842 1.489-5.215 6.764-8.067 6.764-13.621-.055-1.61-.29-3.21-.703-4.768-.054-.24.298-.352.351-.13.871 3.617 1.278 6.21-.498 9.5-1.776 3.288-5.063 6.084-5.711 9.85 1.026-2.564 2.985-4.801 4.86-6.893 1.322-1.469 2.842-3.074 4.899-3.306m-.406.462c-1.912.46-3.248 1.996-4.565 3.456a22.9 22.9 0 0 0-4.362 6.136c1.831-2.613 3.915-4.125 5.527-6.376.146-.204.465-.016.332.185-1.738 2.628-4.44 4.429-5.951 7.115 2.381-1.606 3.782-.949 6.303-5.526a52 52 0 0 1 2.716-4.99"/><path fill="#fff" d="M365.554 97.316a51 51 0 0 0-2.735 4.953c-2.461 4.484-4.399 4.151-6.302 5.525 1.512-2.688 4.072-4.475 5.951-7.114.146-.205-.204-.37-.333-.186-1.61 2.308-3.751 3.841-5.526 6.377 1.188-2.748 5.971-8.913 8.945-9.555"/><path fill="#414141" d="M355.889 126.183a6.975 6.975 0 0 1-6.08 8.02c-.019.019-.037.037-.056.037-.024.073-.022.409-.259.314-.203.205-1.693-1.022-2.033-1.349-2.307-2.226-2.519-5.054-4.121-7.227-.491-.786 4.684.283 6.081 5.581 0-5.548 5.051-5.941 4.509-11.587-.024-.24.347-.259.369-.019.567 6.229-5.548 6.732-4.398 12.623 1.223-3.059 4.564-3.927 5.621-6.45.071-.221.33-.11.367.057m-.315.665c-1.554 2.555-4.499 2.863-5.694 6.819 1.812-1.168 3.619-2.487 4.583-4.472.109-.223.444-.055.333.185-.866 1.868-2.513 3.139-4.177 4.269a6.59 6.59 0 0 0 4.955-6.801m-6.227 7.115c0-4.072-2.396-7.016-5.434-7.836 1.611 2.505 1.759 5.598 4.953 7.707a17.7 17.7 0 0 0-2.218-3.623c-.146-.185.169-.408.333-.202a17.6 17.6 0 0 1 2.366 3.954"/><path fill="#fff" d="M355.556 126.848a6.55 6.55 0 0 1-4.935 6.783 11.3 11.3 0 0 0 4.177-4.269c.108-.223-.224-.408-.333-.185-.964 1.985-2.791 3.308-4.583 4.473 1.141-3.929 4.54-4.629 5.674-6.802M349.364 133.963a18.2 18.2 0 0 0-2.384-3.973c-.146-.185-.462 0-.333.203a16.5 16.5 0 0 1 2.218 3.622c-3.198-2.111-3.345-5.206-4.952-7.706 2.987.853 5.344 3.557 5.451 7.854"/><path fill="#414141" d="M306.046 92.991c-2.352 1.27-5.026 1.085-5.026.813a.17.17 0 0 1-.049.096.16.16 0 0 1-.099.044.2.2 0 0 1-.071-.01c-2.74-.82-2.947-4.38-4.14-6.376-.435-.868 3.991.102 4.509 5.34 1.641-4.594.445-5.148-.554-7.336a4.46 4.46 0 0 1 .462-4.436c.146-.203.426.056.277.259-1.133 1.547-.886 3.212.019 4.805 1.095 1.927 1.489 3.285.092 6.967 2.371-1.298 5.27-.597 4.58-.166m-.646-.093a5.3 5.3 0 0 0-1.94-.017c.415.414-.487.438-1.978.702a8.4 8.4 0 0 0 3.918-.685m-4.547.333a8.6 8.6 0 0 0-.517-2.44 4.97 4.97 0 0 0-3.139-3.085c1.022 1.907 1.219 4.648 3.234 5.654a10.2 10.2 0 0 1-1.497-3.107c-.073-.241.296-.351.351-.13.338 1.12.869 2.171 1.568 3.108"/><path fill="#fff" d="M303.46 92.862a5.7 5.7 0 0 1 1.941.018 9 9 0 0 1-2.144.629 8.3 8.3 0 0 1-1.775.055c.047 0 1.597-.292 1.941-.35a.197.197 0 0 0 .129-.241c-.038-.056-.075-.075-.092-.111"/><path fill="#414141" d="M299.116 110.991a9.44 9.44 0 0 0-8.705-6.487c1.871 1.387 2.288 3.702 3.992 5.194a5.76 5.76 0 0 0 4.288 1.387c-1.571-1.331-3.184-2.652-4.75-4.011-.188-.163.073-.438.259-.277.072.062 4.869 4.101 4.916 4.194m4.676-11.162a.19.19 0 0 1 .182.041.19.19 0 0 1 .058.178c-.632 3.161.594 8.592-4.583 11.18-.073 0-.016.117-.167.146a6.1 6.1 0 0 1-5.175-1.387c-1.939-1.713-2.354-4.363-4.453-5.47-1.448-.764 6.862-1.022 9.536 5.694a5.84 5.84 0 0 0-.849-3.752c-1.684-2.738-2.326-2.655-2.422-7.355a9.8 9.8 0 0 0-.702-4.048 3.8 3.8 0 0 0-2.384-2.18c-.219-.074-.146-.429.093-.37a4.24 4.24 0 0 1 2.701 2.532c1.182 2.661.187 5.728 1.293 8.409.519 1.256 1.525 2.24 2.107 3.455.949 1.986.316 3.788 1.017.943.547-2.233.528-6.837 3.748-8.016m-.203.499c-2.941 1.518-2.33 5.526-3.863 9.832a8.56 8.56 0 0 0 2.79-6.044c.005-.24.383-.258.37-.018a9.35 9.35 0 0 1-3.05 6.45c4.34-2.789 3.228-7.108 3.753-10.221z"/><path fill="#fff" d="M303.588 100.327c-.551 3.267.612 7.342-3.733 10.238a9 9 0 0 0 2.192-2.909 9 9 0 0 0 .857-3.541c0-.24-.365-.219-.37.019a8.62 8.62 0 0 1-2.79 6.048c1.429-4.015 1.014-8.485 3.844-9.855M300.705 92.086c.067.37.092.776.146 1.145a9.6 9.6 0 0 1-1.516-3.104c-.069-.242-.422-.112-.351.129a10.3 10.3 0 0 0 1.496 3.105c-1.945-.992-2.298-3.723-3.233-5.655 1.595.452 3.009 1.935 3.458 4.38M299.116 110.992c-.038-.073-.053.06-4.916-4.196-.187-.163-.427.132-.259.278 1.555 1.349 3.161 2.68 4.75 4.01-5.282.511-5.815-4.844-8.28-6.579a9.44 9.44 0 0 1 8.705 6.487"/><path fill="#005BC3" d="M294.015 90.385c.518-.813.935-1.78.499-2.68-.251-.517-.701-.448-1.146-.092-.462.317-.832.75-1.072 1.257 0-6.634-3.809-4.285-2.587-.315-3.561-3.783-4.32 1.674-1.423 1.996q-.814.59-1.533 1.294c-2.332 2.283.571 4.064 2.569 1.94-1.78 3.4 1.063 3.986 2.791 1.035.402-.659.631-1.409.666-2.18.084 0 1.235-.54 1.958-.85.389-.166.943-.37.906-.888.026-.567-.811-1.083-1.628-.517M305.307 79.722c-1.89-1.034-2.071.489-.48-1.516a5.3 5.3 0 0 0 .978-1.589c.362-1.138-1.176-2.256-3.27.72a9.2 9.2 0 0 0-.888-3.622c-1.964-4.024-3.123 1.152-1.571 3.826-3.612-2.463-5.475 1.022-1.773 2.514.363.147.754.216 1.146.203-4.165 2.46-2.361 4.404.018 2.68 2.294-1.663.928-2.08 2.069.202.253.55.582 1.06.98 1.516.876.764 1.8-.446.573-3.308 3.168 2.066 4.831-.197 2.218-1.626M363.669 85.71c.632-1.942 1.095-6.825-1.017-5.877-.686.308-.959 1.22-1.164 1.885-.915 2.968.759 3.318-1.46 1.146-.438-.43-1.028-.915-1.626-.5-1.378.959.2 3.949 1.996 4.51-.813.647-2.126.96-2.144 2.181-.014.9.96 1.416 2.2.462 1.976-1.522.455-1.961 2.605 0a9.2 9.2 0 0 0 1.571 1.257c1.679.828 2.175-1.371.166-2.902 4.635.662 2.342-5.098-1.127-2.162"/><path fill="#005BC3" d="M358.291 91.069a3.9 3.9 0 0 0-1.664-.13c.299-.349.52-.758.647-1.2.591-2.118-.97-2.186-1.903.72-.278-.347-.052-.79-.61-1.404a1.35 1.35 0 0 0-1.273-.574 1.34 1.34 0 0 0-1.093.87c-.311 1.016 1.022 1.606 1.533 2.014-2.109-.08-3.643 2-2.938 2.366a5 5 0 0 0 3.438-.333c-1.844 2.555.791 3.585 1.33 1.7.481 1.2 1.485-.12.832-2.514 2.085.894 4.4-.664 1.701-1.515M357.496 117.701a2.23 2.23 0 0 0-1.109-.166c2.684-2.368-1.027-4.156-1.848-1.201a6.9 6.9 0 0 0-.739-2.701c-1.654-3.123-3 1.222-.573 3.215-5.271.406-3.258 3.139-1.516 2.329-1.151 1.256-1.825 3.322-.146 3.139 1.144-.123 1.87-1.3 2.384-2.329.865 3.458 3.802 2.16 2.68.056 1.958.954 3.282-1.281.867-2.342"/><path fill="#fff" d="M290.91 90.31a.72.72 0 0 0-.444.891.674.674 0 0 0 .708.463.68.68 0 0 0 .61-.586.695.695 0 0 0-.874-.767M301.093 79.13a.528.528 0 0 0 .526.722.53.53 0 0 0 .472-.37c.35-.657-.998-1.237-.998-.351M355.001 92.049a.526.526 0 0 0 .323.675.53.53 0 0 0 .675-.324c.362-.634-.998-1.25-.998-.351M353.911 118.513a.53.53 0 0 0 .137.584.6.6 0 0 0 .18.108.52.52 0 0 0 .579-.156.5.5 0 0 0 .102-.185c.363-.635-.998-1.249-.998-.351M362.025 86.32a.52.52 0 0 0 .137.583.526.526 0 0 0 .861-.232c.316-.68-.998-1.22-.998-.351M297.322 78.521a2.14 2.14 0 0 0 1.368.961.115.115 0 0 0 .117-.086.1.1 0 0 0-.008-.077.12.12 0 0 0-.054-.056 1.85 1.85 0 0 1-1.257-.868c-.084-.144-.263.126-.166.126M300.63 73.29c.559.692.825 1.574.74 2.459 0 .129.184.184.219.055a3.63 3.63 0 0 0-.776-2.624c-.121-.123-.274.11-.183.11M302.995 82.383a.1.1 0 0 0-.057-.05.106.106 0 0 0-.134.048.1.1 0 0 0-.012.075c.187.477.219 1 .093 1.497-.019.13.185.166.219.037a2.43 2.43 0 0 0-.109-1.607M286.992 88.464c-.086.626.426 1.273.591 1.109.037-.038.037-.13 0-.146a.98.98 0 0 1-.388-.888c.045-.137-.203-.216-.203-.075M286.77 94.063c.628.314 1.511.224 2.403-.72.111-.093-.056-.24-.167-.147-.536.554-1.367 1.09-2.144.665-.168-.073-.193.202-.092.202M293.866 89.425a.1.1 0 0 0-.015.061.105.105 0 0 0 .177.066.1.1 0 0 0 .023-.035c.167-.332.249-.7.24-1.072a.1.1 0 0 0-.038-.064.103.103 0 0 0-.109-.01.1.1 0 0 0-.056.093c.073 0-.04.64-.222.96M351.194 121.729c.862.431 1.491-.414 1.922-1.241.056-.13-.129-.219-.184-.093-.331.596-.783 1.514-1.627 1.147-.161-.068-.22.187-.111.187M352.562 113.357a3.1 3.1 0 0 0 .536 2.273c.073.109.256-.017.185-.11a2.7 2.7 0 0 1-.5-2.107c0-.148-.221-.186-.221-.056M356.776 115.889c-.104-.034-.167.068-.167.258-.146.286-.365.429-.258.537.18.272.671-.795.425-.795M354.04 95.357a.62.62 0 0 0 .508.427.62.62 0 0 0 .601-.281c.088-.127-.134-.23-.204-.093a.4.4 0 0 1-.176.142.4.4 0 0 1-.428-.077.4.4 0 0 1-.116-.194c-.031-.17-.27.076-.185.076M353.209 88.907c-.686.416-.227 1.483 0 1.257.036-.038.018-.111 0-.146a.63.63 0 0 1-.135-.49.65.65 0 0 1 .264-.434c.111-.075 0-.28-.129-.187M356.812 88.944a2.08 2.08 0 0 1-.443 1.423c-.073.111.112.204.185.093a2.13 2.13 0 0 0 .462-1.59c-.018-.13-.24-.055-.204.074M358.66 88.888a.72.72 0 0 0 .388.676.72.72 0 0 0 .776-.066c.137-.137-.034-.236-.111-.185a.5.5 0 0 1-.416.1.504.504 0 0 1-.397-.543c0-.134-.24-.13-.24.018M358.55 83.363a1.93 1.93 0 0 0 1.109 2.033c.129.055.219-.13.092-.185a1.73 1.73 0 0 1-.998-1.811.1.1 0 0 0 .002-.042.1.1 0 0 0-.045-.068.1.1 0 0 0-.039-.016.1.1 0 0 0-.08.019.1.1 0 0 0-.027.03.1.1 0 0 0-.014.04M363.225 80.498c.455.373.287.841.481.777.243 0-.029-.685-.333-.943-.175-.117-.221.166-.148.166M365.258 87.558c.646.015 1.674-.335 1.738-.943 0-.129-.185-.184-.219-.055-.063.504-.992.787-1.533.758-.148.02-.1.234.014.24"/><path fill="#414141" d="M287.4 65.713c-2.117 2.29-1.993 3.319-2.31 3.16a7.35 7.35 0 0 0-3.16-1.959c-.219-.073-.316.3-.093.37a6.47 6.47 0 0 1 2.716 1.626c1.207 1.222.698-.356 3.139-2.901.15-.222-.143-.46-.292-.296M282.833 104.265a4.53 4.53 0 0 0-1.108 2.347 8.9 8.9 0 0 0-3.955-1.241c-.241-.018-.219.352.018.369a8.55 8.55 0 0 1 3.992 1.331c.511.322-.031-1.119 1.314-2.587.183-.142-.095-.405-.261-.219M362.302 65.326a4.38 4.38 0 0 0-2.901 2.198 7.35 7.35 0 0 0-2.495-2.774c-.203-.131-.387.202-.185.332 2.312 1.494 2.545 3.659 2.847 2.958a3.98 3.98 0 0 1 2.847-2.347.194.194 0 0 0 .026-.346.2.2 0 0 0-.139-.021M325.346 123.259a.4.4 0 0 1-.394-.342 47 47 0 0 1-.434-5.845.4.4 0 0 1 .111-.293.396.396 0 0 1 .575 0 .4.4 0 0 1 .111.293c.023 1.918.166 3.832.426 5.733a.4.4 0 0 1-.093.317.4.4 0 0 1-.302.137M327.173 119.298a.395.395 0 0 1-.397-.377c-.053-.928-.265-2.546-.267-2.563a.4.4 0 0 1 .639-.368c.083.065.138.16.152.265.009.067.219 1.664.271 2.621a.4.4 0 0 1-.023.16.4.4 0 0 1-.085.137.41.41 0 0 1-.29.125"/><path fill="#005BC3" d="M307.241 113.674c-3.869.043-10.349-3.838-14.235-7.951-5.561-5.883-9.079-6.877-9.079-6.877l-5.965 27.507-20.362-24.498c-6.662 3.223-10.423 18.696-10.423 18.696-1.734-2.89-7.263-14.979-8.388-17.447a.64.64 0 0 0-.711-.36c-1.643.349-5.49 1.655-6.789 2.104a.63.63 0 0 0-.429.616c.438 22.721 7.952 32.823 14.275 33.543 5.465.623 10.877-5.802 10.877-5.802l-.403 12.41s8.14 7.172 21.84 5.803a27.9 27.9 0 0 0 17.434-8.892c-.43-6.877-3.707-20.039-3.707-20.039s5.776 6.527 16.171 5.265c8.16-.991 14.882-12.572 14.882-12.572v-11.149s-10.126 9.59-14.988 9.643"/><path fill="#fff" d="M278.108 126.671c-6.734-7.023-20.445-24.74-20.445-24.74s3.828-4.687 9.74-5.239a18 18 0 0 0-.242-4.19 14 14 0 0 1-5.802-2.977s-7.296-.85-13.14-9.555-3.102-16.839-.365-17.626c0 0 .269-2.597 2.31-3.586 2.042-.99 9.286-4.025 10.915-4.724 1.63-.698 7.727-3.17 12.831.564 5.105 3.734 3.066 10.02 2.714 10.665a36 36 0 0 1-2.928 3.224s2.149 5.593 2.632 7.39 2.512 9.895.054 12.636-3.828 3.139-3.828 3.139c.261 1.451.638 2.88 1.128 4.271 0 0 5.963-.725 10.194 3.345zM231.741 104.106a22.4 22.4 0 0 0 5.239-1.048s1.934-8.661-.726-9.568c0 0 .361-8.28-1.009-8.281-.895 0-.895 4.983-.895 4.983a1.597 1.597 0 0 0-2.423.456s-1.146-.95-2.026.544c0 0-1.848-.478-1.645 2.176a6.9 6.9 0 0 0 1.168 3.545s-.422 1.498 2.317 7.193M322.423 101.95s.241-2.519 1.39-2.397c1.149.12.496 2.414.645 3.203 0 0 2.851 2.141 1.464 4.088 0 0 .73 1.934-.235 2.88 0 0 .675 2.081-1.128 2.277 0 0-.323 2.398-1.954.803a22 22 0 0 0-2.277-3.425c-1.29-1.511-.181-2.015.262-1.793 0 0-1.314-1.793.349-2.176 0 0-1.095-1.533.518-1.732 0 .006-1.069-1.683.966-1.728"/><path fill="#414141" d="M326.323 107.021a1.91 1.91 0 0 0 .388-1.835 4.44 4.44 0 0 0-1.777-2.446 6.6 6.6 0 0 1-.127-1.83 1.9 1.9 0 0 0-.389-1.519 1.12 1.12 0 0 0-1.351.043 1.1 1.1 0 0 0-.298.376l-.086-7.253a.395.395 0 0 0-.555-.363.4.4 0 0 0-.242.37l.108 9.119c-1.801.219-1.168 1.674-1.052 1.819a1.08 1.08 0 0 0-.789.726 1.07 1.07 0 0 0 .239 1.045 1.163 1.163 0 0 0-.667 1.593c.092.197.236.364.418.483-1.125-.039-1.022 1.744.352 2.949a6.4 6.4 0 0 1 1.276 1.756l.222 20.321a.4.4 0 0 0 .114.291.402.402 0 0 0 .575-.006.4.4 0 0 0 .084-.136.4.4 0 0 0 .024-.157l-.207-18.907c1.516.843 2.238-.726 2.31-1.234 1.781-.219 1.323-2.336 1.323-2.336.432-.47.82-1.467.107-2.869m-2.675-7.063c.365-.067.411.376.365.881-.045.504 0 1.314-.013 1.314a4.3 4.3 0 0 0-.876-.353c.061-.932.171-1.776.524-1.842m-.961 2.55a4.9 4.9 0 0 1 3.25 2.865 1.26 1.26 0 0 1-.087.957c-.61-.736-2.091-2.34-3.526-2.728-.647-.176-.907-.53-.861-.779.134-.731 1.224-.315 1.224-.315m-.602 1.857a10.5 10.5 0 0 1 3.396 2.784 1.99 1.99 0 0 1 .299 1.971 11.9 11.9 0 0 0-4.307-3.875c-.612-.191-1.013-1.611.612-.88m1.1 8.557c-.299-.111-.932-2.065-2.1-3.16-1.12-1.05-1.14-2.049-.311-1.666a6.56 6.56 0 0 1 3.325 4.045.68.68 0 0 1-.218.67.67.67 0 0 1-.696.111m1.487-1.46a10 10 0 0 0-3.495-4.052c-.392-.47-.856-.657-.677-1.217.115-.261.514-.234.642-.219a11.46 11.46 0 0 1 4.274 4.05c.371 1.235-.599 1.388-.744 1.435z"/><path fill="#005BC3" d="M321.14 132.863a1.28 1.28 0 0 0 1.276 1.276 1.274 1.274 0 0 0 .902-2.178 1.275 1.275 0 0 0-2.178.902"/><path fill="#FDAF31" d="M264.415 84.667a.74.74 0 0 0 .183.337c.091.099.211.18.351.239s.298.093.465.103a1.73 1.73 0 0 0 .981-.241c.143-.086.267-.19.364-.307a1 1 0 0 0 .2-.374.74.74 0 0 0 .005-.384.75.75 0 0 0-.182-.337 1 1 0 0 0-.351-.239 1.4 1.4 0 0 0-.465-.103 1.74 1.74 0 0 0-.981.24c-.144.087-.268.19-.364.308a1 1 0 0 0-.201.374.75.75 0 0 0-.005.383M274.724 80.02a.75.75 0 0 0 .258.282q.17.112.397.148c.149.023.31.02.474-.01s.327-.086.48-.165.294-.18.413-.296q.18-.176.282-.38a1 1 0 0 0 .11-.41.75.75 0 0 0-.081-.373.75.75 0 0 0-.258-.282 1 1 0 0 0-.396-.147 1.4 1.4 0 0 0-.475.01 1.74 1.74 0 0 0-.892.46q-.181.177-.283.382a1 1 0 0 0-.109.408.75.75 0 0 0 .08.374"/><path fill="#414141" d="M262.113 74.295a.397.397 0 0 1-.359-.568 3.28 3.28 0 0 1 3.31-1.725.4.4 0 0 1-.08.793 2.49 2.49 0 0 0-2.51 1.27.4.4 0 0 1-.361.23M269.932 70.662a.398.398 0 0 1-.323-.63 3.04 3.04 0 0 1 2.937-1.127.4.4 0 0 1 .325.46.397.397 0 0 1-.461.325 2.25 2.25 0 0 0-2.153.803.4.4 0 0 1-.325.17M249.434 125.57a.4.4 0 0 1-.355-.215l-6.071-11.712a.4.4 0 0 1-.051-.153.39.39 0 0 1 .212-.403.4.4 0 0 1 .315-.022.394.394 0 0 1 .232.213l6.068 11.71a.4.4 0 0 1-.013.389.39.39 0 0 1-.337.193M255.975 135.54a.4.4 0 0 1-.377-.266.4.4 0 0 1-.021-.161l1.288-18.159a.4.4 0 0 1 .134-.279.395.395 0 0 1 .444-.057.39.39 0 0 1 .217.392l-1.289 18.16a.4.4 0 0 1-.396.37M292.842 128.685a.4.4 0 0 1-.392-.329 182 182 0 0 0-4.609-18.432.42.42 0 0 1 .025-.307.4.4 0 0 1 .236-.198.402.402 0 0 1 .501.269 183 183 0 0 1 4.632 18.531.4.4 0 0 1-.393.466M271.528 143.554a.398.398 0 0 1-.391-.475l.244-1.249a.395.395 0 0 1 .312-.314.4.4 0 0 1 .299.058.4.4 0 0 1 .171.409l-.244 1.249a.4.4 0 0 1-.391.322M264.838 128.323a.408.408 0 0 1-.343-.196.4.4 0 0 1-.006-.394q.55-.958 1.194-1.855a.4.4 0 0 1 .113-.109.395.395 0 0 1 .448.013.4.4 0 0 1 .161.263.4.4 0 0 1-.075.299c-.008.01-.716.997-1.143 1.773a.4.4 0 0 1-.146.151.4.4 0 0 1-.203.055M266.169 129.572a.398.398 0 0 1-.39-.485 11.5 11.5 0 0 1 .634-1.537.397.397 0 0 1 .532-.186.396.396 0 0 1 .187.532q-.333.662-.575 1.364a.4.4 0 0 1-.388.312M283.444 134.837a.39.39 0 0 1-.351-.21 4 4 0 0 0-.625-.793.4.4 0 0 1 .272-.681.4.4 0 0 1 .283.109c.3.294.559.627.772.988a.394.394 0 0 1-.154.536.4.4 0 0 1-.197.051M284.983 134.261a.4.4 0 0 1-.335-.183 7.2 7.2 0 0 0-1.477-1.633.402.402 0 0 1 .195-.701.4.4 0 0 1 .29.069 8 8 0 0 1 1.662 1.834q.06.093.063.201a.4.4 0 0 1-.398.413M255.692 109.828a.4.4 0 0 1-.397-.366.4.4 0 0 1 .032-.193q.42-.884.932-1.719a.4.4 0 0 1 .556-.146.397.397 0 0 1 .123.561 18 18 0 0 0-.881 1.625.4.4 0 0 1-.147.173.4.4 0 0 1-.218.065M242.878 128.39a.4.4 0 0 1-.396-.359 14 14 0 0 1 0-1.592.4.4 0 0 1 .128-.283.398.398 0 0 1 .668.326q-.04.734 0 1.47a.4.4 0 0 1-.018.165.41.41 0 0 1-.219.24.4.4 0 0 1-.163.033M241.079 126.405a.395.395 0 0 1-.386-.296.4.4 0 0 1-.007-.173c.077-.414.221-.813.426-1.181a.4.4 0 0 1 .721.11c.027.1.014.207-.036.297a3.1 3.1 0 0 0-.326.915.4.4 0 0 1-.392.328M236.244 108.992a.39.39 0 0 1-.341-.191q-.327-.6-.591-1.231a.398.398 0 1 1 .735-.31q.24.577.537 1.126a.397.397 0 0 1-.34.606M296.645 118.922a.4.4 0 0 1-.323-.164.4.4 0 0 1-.056-.358q.32-.812.795-1.544a.4.4 0 0 1 .67.433 8 8 0 0 0-.708 1.357.4.4 0 0 1-.378.276M298.592 119.298a.4.4 0 0 1-.301-.137.4.4 0 0 1-.094-.317c.051-.365.077-1.062.077-1.062a.4.4 0 0 1 .413-.383.4.4 0 0 1 .384.413c0 .03-.029.737-.085 1.142a.4.4 0 0 1-.394.344M285.429 115.43a.4.4 0 0 1-.246-.086.4.4 0 0 1-.141-.218 19 19 0 0 0-.373-1.215.392.392 0 0 1 .105-.441.4.4 0 0 1 .296-.101.4.4 0 0 1 .278.143q.052.062.075.141c.011.032.276.803.393 1.283a.4.4 0 0 1-.073.341.4.4 0 0 1-.14.112.4.4 0 0 1-.174.041M312.325 118.854a.4.4 0 0 1-.35-.209.39.39 0 0 1 .017-.407c.258-.399.586-.747.969-1.027a.4.4 0 0 1 .449.009.4.4 0 0 1 .163.263.4.4 0 0 1-.192.406 3.2 3.2 0 0 0-.723.786.39.39 0 0 1-.333.179"/><path fill="#414141" d="M284.206 98.994a13.45 13.45 0 0 0-10.276-3.478 13.2 13.2 0 0 1-.857-3.696c5.081-2.08 5.504-7.4 4.474-12.775a4.4 4.4 0 0 0 2.424-3.95 4.49 4.49 0 0 0-1.52-3.239 4.48 4.48 0 0 0-3.409-1.09c-.973-2.443-1-2.18-.899-2.262 2.537-2.178 4.215-3.612 3.216-9.11-.401-2.204-2.666-7.344-10.224-7.178-5.29.116-8.82 3.098-15.806 5.543a5.54 5.54 0 0 0-3.165 2.665 3.78 3.78 0 0 1 1.893-3.728.4.4 0 0 0 .125-.1.4.4 0 0 0 .076-.14q.023-.078.015-.158a.4.4 0 0 0-.153-.273.4.4 0 0 0-.453-.024 4.69 4.69 0 0 0-2.246 4.977 2.69 2.69 0 0 0-2.401.456.38.38 0 0 0-.129.278.38.38 0 0 0 .117.283.407.407 0 0 0 .562.015 1.48 1.48 0 0 1 1.85-.097 7.98 7.98 0 0 0-2.746 5.256c-.725 4.672 1.051 10.366 4.453 14.573 5.826 7.211 12.523 8.636 12.599 8.605a11.5 11.5 0 0 0 5.13 2.456c.067.615.215 2.11.232 3.537a16.62 16.62 0 0 0-9.677 5.245.4.4 0 0 0-.022.511c.146.191 14.558 19.146 20.459 24.654a.4.4 0 0 0 .183.092.4.4 0 0 0 .204-.009.4.4 0 0 0 .275-.285c.021-.201 4.424-19.757 5.806-27.2a.4.4 0 0 0-.11-.354m-5.087-2.077c.8.273 1.571.622 2.305 1.041-.495 2.877-3.269 16.079-4.38 21.363a155 155 0 0 0-4.778-19.352q.19-.086.37-.19c.826.695 3.774 3.227 4.95 4.884a.63.63 0 0 0 .643.266c.287-.082.946-.309.89-8.012m-4.478.238c-.005-.01-.175-.337-.403-.868a12 12 0 0 1 4.083.385 48.5 48.5 0 0 1-.33 7.207 39 39 0 0 0-4.69-4.58 5.7 5.7 0 0 0 1.343-1.778.39.39 0 0 0-.003-.366m.7-25.623c1.73-.267 3.834 1.588 3.834 3.564a3.6 3.6 0 0 1-1.797 3.137 47.6 47.6 0 0 0-2.037-6.698zm1.285 7.017c-.297.086-3.08.867-4.248-2.347a4.67 4.67 0 0 1 .16-2.376c.236.688.841 1.106 1.351.93.953-.327.684-2.153-.356-2.487a2.9 2.9 0 0 1 1.019-.557 47 47 0 0 1 2.074 6.84zm-26.886 2.69c-5.25-6.401-5.934-16.056-1.487-18.941a.44.44 0 0 0 .187-.336 4.76 4.76 0 0 1 3.152-3.447c7.131-2.499 10.675-5.501 15.543-5.501 5.701 0 8.849 3.276 9.44 6.522.917 5.048-.457 6.226-2.95 8.363l-.276.236a.397.397 0 0 0-.1.474c.016.032.443.936 1.012 2.363-3.06 1.01-2.834 4.53-2.807 4.728a3 3 0 0 0-.19-.034 31.4 31.4 0 0 0-2.755-4.015.397.397 0 0 0-.562-.052.4.4 0 0 0-.051.563 32 32 0 0 1 2.462 3.542 3.16 3.16 0 0 0-1.667 1.07 4.24 4.24 0 0 0-3.372-1.686 4.343 4.343 0 0 0-4.269 4.692c-.745-.035-3.134-.094-4.102-.164-2.16-.154-4.818 2.025-2.939 4.35.68.84 1.879 1.19 3.572 1.03a16.3 16.3 0 0 0 2.868 4.17 26.95 26.95 0 0 1-10.709-7.926m14.506-3.89c.236.688.841 1.103 1.35.928.861-.297.749-1.883-.161-2.402a3.86 3.86 0 0 1 3.367 3.591 3.484 3.484 0 0 1-6.757 1.104 3.485 3.485 0 0 1 2.371-4.562 1.38 1.38 0 0 0-.17 1.341m-6.051 7.065a.4.4 0 0 0-.417-.242c-1.533.19-2.562-.11-3.147-.707-1.306-1.334.306-3.349 2.468-3.147 1.053.099 3.65.245 4.081.264a4.24 4.24 0 0 0 2.077 2.74 4.23 4.23 0 0 0 3.426.296 3.57 3.57 0 0 0 1.825-1.182c.007.018.897 1.486 2.236 1.486 2.04-.125 2.376-2.254 2.397-2.336a.4.4 0 0 0-.596-.43.4.4 0 0 0-.18.244c0 .016-.401 1.558-1.444 1.714-.978.146-1.87-1.26-1.996-1.269.89-1.484.902-3.418.219-4.343a2.36 2.36 0 0 1 1.638-1.057c.408.731.761 1.493 1.055 2.277l-1.351-.536a.399.399 0 0 0-.292.741l2.282.876c.306.123.468-.18.384-.504a11 11 0 0 0-.522-1.484 4.1 4.1 0 0 0 4.447 1.523c.54 2.352.554 4.795.042 7.154a6.74 6.74 0 0 1-5.876 5.082.4.4 0 0 0-.365.41.396.396 0 0 0 .392.386q.672-.075 1.319-.272c.21 1.823.732 3.597 1.546 5.243a4.02 4.02 0 0 1-2.375 2.08 5.6 5.6 0 0 1-3.78-.508c.47-2.023-.052-6.303-.073-6.497a.395.395 0 0 0-.33-.344c-6.27-1.037-9.063-7.59-9.09-7.657zm8.885 12.738a6.8 6.8 0 0 1-.241 1.833.397.397 0 0 0 .173.47c.956.532 2.018.842 3.109.908-.598 1.058-1.832 3.278-2.409 4.578-.694-.427-2.688-3.195-4.685-6.51a15.7 15.7 0 0 1 4.053-1.278zm-4.764 1.635c.365.604 4.147 6.762 5.461 7.008a.61.61 0 0 0 .611-.399c.61-1.432 2.282-4.387 2.676-5.077q.22-.033.445-.089c.629 1.992 3.627 11.728 4.863 19.985l-16.06-20.169a16 16 0 0 1 2.004-1.258zm15.573 26.892c-5.694-5.644-17.932-21.539-19.662-23.802q.684-.72 1.453-1.346l16.975 21.316a.395.395 0 0 0 .59.034.4.4 0 0 0 .108-.19c.027-.073 4.06-19.188 4.801-23.287q.706.459 1.338 1.013c-1.268 6.762-4.818 22.738-5.603 26.262"/><path fill="#414141" d="M259.73 68.358a12.9 12.9 0 0 0-1.206-3.393.4.4 0 0 0-.721.093.4.4 0 0 0 .026.296c.026.049 2.409 4.394.71 8.052a12.5 12.5 0 0 0-2.069-5.848.4.4 0 0 0-.716.173.4.4 0 0 0 .072.297c.034.046 3.41 4.788 1.188 10.307a.397.397 0 0 0 .371.562.4.4 0 0 0 .368-.264c.481-1.185.758-2.444.818-3.723a8.07 8.07 0 0 0 1.159-6.552M265.228 70.367a.4.4 0 0 1-.331-.621 8.4 8.4 0 0 0 1.113-2.763 4.33 4.33 0 0 0-1.818-4.697.398.398 0 1 1 .462-.65c4.453 3.17.941 8.5.905 8.553a.401.401 0 0 1-.331.178M268.872 69.158a.4.4 0 0 1-.371-.254.4.4 0 0 1 .101-.438c4.751-4.359.849-8.856.68-9.045a.4.4 0 0 1-.078-.134.38.38 0 0 1 .017-.305.4.4 0 0 1 .382-.224.4.4 0 0 1 .274.133 8.3 8.3 0 0 1 1.645 3.216c.446 1.763.396 4.398-2.381 6.946a.4.4 0 0 1-.269.105M272.015 67.708a.397.397 0 0 1-.38-.519.4.4 0 0 1 .142-.2 5.43 5.43 0 0 0 2.114-4.234.4.4 0 0 1 .383-.413h.015a.4.4 0 0 1 .398.383 6.18 6.18 0 0 1-2.434 4.902.4.4 0 0 1-.238.08M237.649 94.174a2.05 2.05 0 0 0-.91-1.03c.041-1.201.14-8.37-1.518-8.37-.941 0-1.152 2.848-1.23 4.85-.342-.192-1.224-.668-2.027.572a1.38 1.38 0 0 0-2.028.556c-1.781-.365-2.161 1.333-2.088 2.416a9.1 9.1 0 0 0 1.016 3.44 20.1 20.1 0 0 0 2.638 7.758.34.34 0 0 0 .3.182 24 24 0 0 0 5.456-1.184c.454-.531 1.161-7.236.391-9.19m-2.368-8.55c.432.1.769 3.71.67 7.206a5 5 0 0 0-1.206-.135c-.024-3.005.001-7.194.536-7.07m-2.61 4.954c.244-.755 1.062-.202 1.291-.012q-.023 1.086-.013 2.172a9 9 0 0 0-1.255.228 5.4 5.4 0 0 1-.023-2.388m-1.996.49c.261-.621 1.058-.091 1.11-.081a7.7 7.7 0 0 0 .146 2.214c-.436.13-.834.363-1.163.678-.189-1.008-.393-2.096-.093-2.812m3.228 4.198c.085.488.071.988-.042 1.47a3.9 3.9 0 0 1-.69-1.414c.261-.015.509-.032.732-.056m-1.566.055q.162.612.428 1.186c.089.481-.428 1.12-.984.26a6 6 0 0 1-.755-1.761c.406.207.855.315 1.311.315m-3.695-2.197c-.042-.78.156-1.81 1.168-1.58a10.7 10.7 0 0 0 1.258 5.57c-.119.3-.254.473-.371.46-.675-.086-1.954-2.632-2.053-4.45zm7.996 9.702a34 34 0 0 1-4.579.919 20 20 0 0 1-2.158-5.716 1.07 1.07 0 0 0 1.439.109 1.1 1.1 0 0 0 .32-.413c.057.035.968.787 1.547-.53.688.756 1.803.424 1.488-2.035.01 0 .393-.247.356-.464a.398.398 0 0 0-.459-.327c-1.039.175-2.701.275-3.153-.047a6.9 6.9 0 0 1 3.848-.803 1.77 1.77 0 0 1 1.62.949c.711 1.801-.028 7.507-.269 8.358"/><path fill="#414141" d="M233.852 100.533h-.013a.4.4 0 0 1-.385-.411 4.1 4.1 0 0 1 1.138-2.708.399.399 0 1 1 .511.613 3.34 3.34 0 0 0-.85 2.122.4.4 0 0 1-.401.384M272.092 107.612a.4.4 0 0 1-.391-.319l-.32-1.572a.4.4 0 0 1 .063-.294.396.396 0 0 1 .546-.111c.088.056.15.145.173.247l.319 1.572a.398.398 0 0 1-.39.477M272.963 112.958a.4.4 0 0 1-.391-.326l-.298-1.598a.4.4 0 0 1 .058-.305.4.4 0 0 1 .112-.112.39.39 0 0 1 .305-.057.398.398 0 0 1 .309.328l.297 1.598a.396.396 0 0 1-.222.434.4.4 0 0 1-.17.038M255.875 82.625a.4.4 0 0 1-.146-.768 2.84 2.84 0 0 1 1.642-.162.397.397 0 0 1 .31.471.395.395 0 0 1-.47.31c-.451-.051-.907 0-1.336.15"/><path fill="#FDAF31" d="M319.424 34.906s14.517 2.927 21.608 7.672c0 0-3.723 14.042-4.801 14.879 0 0-19.32-5.617-22.188-6.732 0-.004 3.665-13.508 5.381-15.819"/><path fill="#414141" d="M342.639 80.872a81 81 0 0 0-7.315-14.389.46.46 0 0 0-.434-.255c-3.486.495-14.472 5.089-21.574 10.367a.4.4 0 0 0-.138.48 167 167 0 0 0 7.723 15.289c.073.124.43.185.476.172 3.504-1.029 20.088-10.479 20.663-10.804.407-.228.707-.576.599-.86m-13.308.198c.631-.263 1.437-1.858 2.283-3.846a89 89 0 0 1 9.855 3.928c-2.834 1.637-14.22 8.156-19.619 10.353a90 90 0 0 1 3.1-10.834c1.445.321 3.568.737 4.381.4m2.587-4.577c1.267-3.109 2.528-6.977 3.139-8.917 1.268 2.142 4.887 8.395 6.563 12.775a90 90 0 0 0-9.701-3.858zm2.459-9.378c-.915 2.914-4.199 12.968-5.402 13.25-2.05.485-11.48-2.528-14.587-3.543 2.628-1.743 12.916-8.35 19.99-9.707zm-20.105 10.497c1.909.624 6.309 2.024 9.903 2.88a90 90 0 0 0-3.054 10.664c-1.159-2.057-4.283-7.729-6.849-13.544M341.416 42.566c-.069-.527-.5-.685-1.123-1.014-1.89-1-8.352-4.307-20.777-7.138a.39.39 0 0 0-.445.23c-.633 1.47-4.751 11.792-5.408 15.812-.026.16-.146.372 0 .47 1.253.83 21.283 6.7 21.81 6.857.335.1.853.407 1.178.146.21-.172 4.784-15.219 4.765-15.363m-5.002 13.82a99 99 0 0 0-3.521-9.946c.125-.047 5.466-2.176 7.578-3.225-.715 2.464-2.785 9.527-4.057 13.17m-9.002-8.365c.313.13 1.637-.157 4.741-1.304a101 101 0 0 1 3.64 10.338c-2.885-.854-14.084-4.185-20.878-6.439a103 103 0 0 1 10.201-5.66c1.883 2.905 2.127 2.995 2.296 3.065m12.862-5.59c-4.088 2.058-11.534 4.818-12.573 4.842-.746-.706-4.954-7.512-7.603-11.92 2.852.672 13.224 3.265 20.176 7.078m-20.833-6.643c.511.85 4.768 7.753 5.244 8.497a104 104 0 0 0-10.054 5.58 115 115 0 0 1 4.81-14.077M347.943 41.589a5.69 5.69 0 0 1-4.06-2.478c-1.64-2.581-.702-6.074-.662-6.222a.398.398 0 0 1 .485-.275.39.39 0 0 1 .286.331.4.4 0 0 1-.011.154c-.009.033-.884 3.31.569 5.592a4.93 4.93 0 0 0 3.526 2.12.4.4 0 0 1 .33.301.4.4 0 0 1-.052.303.397.397 0 0 1-.411.174"/><path fill="#414141" d="M348.512 40.055c-2.648-.975-2.781-3.918-2.482-5.337a.398.398 0 0 1 .47-.32.39.39 0 0 1 .253.177.4.4 0 0 1 .048.305 5.8 5.8 0 0 0-.014 1.898 3.05 3.05 0 0 0 1.996 2.535.397.397 0 0 1 .155.638.39.39 0 0 1-.426.104M301.022 46.423a.38.38 0 0 1 .133-.54.407.407 0 0 1 .541.132c2.788 3.83 6.097 2.284 7.627 1.25a.39.39 0 0 1 .562.097.384.384 0 0 1-.008.45.4.4 0 0 1-.116.106c-1.321.895-5.29 2.99-8.739-1.495"/><path fill="#414141" d="M307.307 47.015a3.39 3.39 0 0 1-3.017-1.73.394.394 0 1 1 .699-.365c.048.09 1.164 2.122 3.958.935a.4.4 0 0 1 .43.081.39.39 0 0 1 .005.557.4.4 0 0 1-.127.087 5 5 0 0 1-1.948.435"/><path fill="#005BC3" d="M328.362 45.72c.373.146 3.436-2.117 2.685-2.84-.673-.651-1.876.922-1.876.922s.07-1.986-.782-1.851c-.94.148-.486 3.588-.027 3.769M327.686 78.128c.315-.099.717-4.161-.279-4.161-.798 0-.637 1.992-.637 1.992s-1.434-1.116-2.032-.7 2.251 3.088 2.948 2.869"/><path fill="#FDAF31" d="M305.933 55.767c2.668.464 10.768 4.68 10.919 4.857-3.358.774-6.647 1.407-7.181 1.29-.439-.322-2.144-3.208-3.738-6.147"/><path fill="#FDAF31" d="M314.28 68.341c-.266.426-.824.876-1.913.426s-8.76-4.01-9.563-4.357a1.276 1.276 0 0 1-.77-1.938c.245-.528 2.907-6.114 3.179-6.364 1.292 2.391 3.442 6.174 4.117 6.522.725.373 5.432-.71 7.888-1.28.097.486-2.672 6.566-2.938 6.991"/></g></g><rect width="373.511" height="143.511" x=".745" y=".745" stroke="url(#d)" stroke-opacity=".08" stroke-width=".511" rx="10.255"/><defs><linearGradient id="b" x1="42.663" x2="213.928" y1="15.809" y2="76.544" gradientUnits="userSpaceOnUse"><stop stop-color="#003F88"/><stop offset=".65" stop-color="#03BCFF"/><stop offset="1" stop-color="#0076FF"/></linearGradient><linearGradient id="d" x1="47.195" x2="387.35" y1="20.571" y2="83.69" gradientUnits="userSpaceOnUse"><stop stop-color="#003F88"/><stop offset=".65" stop-color="#02D4FF"/><stop offset="1" stop-color="#0076FF"/></linearGradient><clipPath id="a"><rect width="373" height="143" x="1" y="1" fill="#fff" rx="10"/></clipPath><clipPath id="c"><path fill="#fff" d="M222 18h146v146H222z"/></clipPath></defs></svg>