<svg width="375" height="145" viewBox="0 0 375 145" fill="none" xmlns="http://www.w3.org/2000/svg">
<g clip-path="url(#clip0_2022_2333)">
<rect x="1" y="1" width="373" height="143" rx="10" fill="#E3F0FF"/>
<path d="M379.257 159C236.144 155.264 203.313 150.164 196.432 141.537C190.39 132.512 190.39 132.512 260.416 82.4127C292.156 59.724 342.356 23.7915 358.677 8.4279C317.628 1.90083 276.277 -2.56138 234.78 -4.94185C233.133 -4.59271 231.418 -4.77425 229.88 -5.46047C228.343 -6.14669 227.062 -7.30233 226.221 -8.76176C225.489 -10.0084 225.102 -11.428 225.102 -12.8741C225.101 -14.3201 225.486 -15.7401 226.217 -16.9873C226.949 -18.2346 228 -19.2639 229.262 -19.969C230.523 -20.6741 231.95 -21.0293 233.395 -20.9981C235.493 -20.9981 375.376 -14.9114 379.026 3.2647C380.348 13.6331 367.593 25.4496 269.688 95.4675C250.808 108.9 230.375 123.592 218.648 132.617C256.304 137.948 362.286 141.789 379.718 142.965C381.745 143.165 383.621 144.124 384.971 145.65C386.321 147.176 387.045 149.155 386.998 151.192C386.926 153.229 386.089 155.164 384.654 156.612C383.22 158.059 381.292 158.912 379.257 159Z" fill="#C8E2FF"/>
<path d="M32.1631 40.1973H19.5771V22.748H24.0771V36.8223H32.1631V40.1973ZM47.6084 34.3965H37.9521C38.0146 35.4277 38.4053 36.2168 39.124 36.7637C39.8506 37.3105 40.917 37.584 42.3232 37.584C43.2139 37.584 44.0771 37.4238 44.9131 37.1035C45.749 36.7832 46.4092 36.4395 46.8936 36.0723H47.3623V39.459C46.4092 39.8418 45.5107 40.1191 44.667 40.291C43.8232 40.4629 42.8896 40.5488 41.8662 40.5488C39.2256 40.5488 37.2021 39.9551 35.7959 38.7676C34.3896 37.5801 33.6865 35.8887 33.6865 33.6934C33.6865 31.5215 34.3506 29.8027 35.6787 28.5371C37.0146 27.2637 38.8428 26.627 41.1631 26.627C43.3037 26.627 44.9131 27.1699 45.9912 28.2559C47.0693 29.334 47.6084 30.8887 47.6084 32.9199V34.3965ZM43.4131 31.9238C43.3896 31.041 43.1709 30.377 42.7568 29.9316C42.3428 29.4863 41.6982 29.2637 40.8232 29.2637C40.0107 29.2637 39.3428 29.4746 38.8193 29.8965C38.2959 30.3184 38.0029 30.9941 37.9404 31.9238H43.4131ZM58.999 40.0801C58.5459 40.1973 58.0654 40.2871 57.5576 40.3496C57.0498 40.4199 56.4287 40.4551 55.6943 40.4551C54.0537 40.4551 52.8311 40.123 52.0264 39.459C51.2295 38.7949 50.8311 37.6582 50.8311 36.0488V29.8965H49.0967V27.0371H50.8311V23.2754H55.0498V27.0371H58.999V29.8965H55.0498V34.5605C55.0498 35.0215 55.0537 35.4238 55.0615 35.7676C55.0693 36.1113 55.1318 36.4199 55.249 36.6934C55.3584 36.9668 55.5498 37.1855 55.8232 37.3496C56.1045 37.5059 56.5107 37.584 57.042 37.584C57.2607 37.584 57.5459 37.5371 57.8975 37.4434C58.2568 37.3496 58.5068 37.2637 58.6475 37.1855H58.999V40.0801ZM67.1318 21.9629L63.7217 28.8652H60.9795L62.8193 21.9629H67.1318ZM80.9365 36.0254C80.9365 37.3848 80.3271 38.4824 79.1084 39.3184C77.8896 40.1465 76.2217 40.5605 74.1045 40.5605C72.9326 40.5605 71.8701 40.4512 70.917 40.2324C69.9639 40.0137 69.1982 39.7715 68.6201 39.5059V36.0371H69.0068C69.2178 36.1855 69.46 36.3496 69.7334 36.5293C70.0146 36.7012 70.4092 36.8887 70.917 37.0918C71.3545 37.2715 71.8506 37.4277 72.4053 37.5605C72.96 37.6855 73.5537 37.748 74.1865 37.748C75.0146 37.748 75.6279 37.6582 76.0264 37.4785C76.4248 37.291 76.624 37.0176 76.624 36.6582C76.624 36.3379 76.5068 36.1074 76.2725 35.9668C76.0381 35.8184 75.5928 35.6777 74.9365 35.5449C74.624 35.4746 74.1982 35.4004 73.6592 35.3223C73.1279 35.2363 72.6436 35.1348 72.2061 35.0176C71.0107 34.7051 70.124 34.2207 69.5459 33.5645C68.9678 32.9004 68.6787 32.0762 68.6787 31.0918C68.6787 29.8262 69.2764 28.7754 70.4717 27.9395C71.6748 27.0957 73.3154 26.6738 75.3936 26.6738C76.3779 26.6738 77.3193 26.7754 78.2178 26.9785C79.124 27.1738 79.8311 27.3848 80.3389 27.6113V30.9395H79.9756C79.3506 30.5098 78.6357 30.1621 77.8311 29.8965C77.0342 29.623 76.2256 29.4863 75.4053 29.4863C74.7256 29.4863 74.1514 29.5801 73.6826 29.7676C73.2217 29.9551 72.9912 30.2207 72.9912 30.5645C72.9912 30.877 73.0967 31.1152 73.3076 31.2793C73.5186 31.4434 74.0146 31.6074 74.7959 31.7715C75.2256 31.8574 75.6865 31.9434 76.1787 32.0293C76.6787 32.1074 77.1787 32.209 77.6787 32.334C78.7881 32.623 79.6084 33.0801 80.1396 33.7051C80.6709 34.3223 80.9365 35.0957 80.9365 36.0254ZM106.155 34.7129C106.155 36.4316 105.425 37.8301 103.964 38.9082C102.511 39.9785 100.534 40.5137 98.0342 40.5137C96.5889 40.5137 95.3271 40.3887 94.249 40.1387C93.1787 39.8809 92.1748 39.5566 91.2373 39.166V34.9824H91.7295C92.6592 35.7246 93.6982 36.2949 94.8467 36.6934C96.0029 37.0918 97.1123 37.291 98.1748 37.291C98.4482 37.291 98.8076 37.2676 99.2529 37.2207C99.6982 37.1738 100.062 37.0957 100.343 36.9863C100.687 36.8457 100.968 36.6699 101.187 36.459C101.413 36.248 101.526 35.9355 101.526 35.5215C101.526 35.1387 101.362 34.8105 101.034 34.5371C100.714 34.2559 100.241 34.041 99.6162 33.8926C98.96 33.7363 98.2646 33.5918 97.5303 33.459C96.8037 33.3184 96.1201 33.1426 95.4795 32.9316C94.0107 32.4551 92.9521 31.8105 92.3037 30.998C91.6631 30.1777 91.3428 29.1621 91.3428 27.9512C91.3428 26.3262 92.0693 25.002 93.5225 23.9785C94.9834 22.9473 96.8584 22.4316 99.1475 22.4316C100.296 22.4316 101.429 22.5449 102.546 22.7715C103.671 22.9902 104.644 23.2676 105.464 23.6035V27.623H104.983C104.28 27.0605 103.417 26.5918 102.394 26.2168C101.378 25.834 100.339 25.6426 99.2764 25.6426C98.9014 25.6426 98.5264 25.6699 98.1514 25.7246C97.7842 25.7715 97.4287 25.8652 97.085 26.0059C96.7803 26.123 96.5186 26.3027 96.2998 26.5449C96.0811 26.7793 95.9717 27.0488 95.9717 27.3535C95.9717 27.8145 96.1475 28.1699 96.499 28.4199C96.8506 28.6621 97.5146 28.8848 98.4912 29.0879C99.1318 29.2207 99.7451 29.3496 100.331 29.4746C100.925 29.5996 101.562 29.7715 102.241 29.9902C103.577 30.4277 104.562 31.0254 105.194 31.7832C105.835 32.5332 106.155 33.5098 106.155 34.7129ZM117.429 40.0801C116.976 40.1973 116.495 40.2871 115.987 40.3496C115.479 40.4199 114.858 40.4551 114.124 40.4551C112.483 40.4551 111.261 40.123 110.456 39.459C109.659 38.7949 109.261 37.6582 109.261 36.0488V29.8965H107.526V27.0371H109.261V23.2754H113.479V27.0371H117.429V29.8965H113.479V34.5605C113.479 35.0215 113.483 35.4238 113.491 35.7676C113.499 36.1113 113.562 36.4199 113.679 36.6934C113.788 36.9668 113.979 37.1855 114.253 37.3496C114.534 37.5059 114.94 37.584 115.472 37.584C115.69 37.584 115.976 37.5371 116.327 37.4434C116.687 37.3496 116.937 37.2637 117.077 37.1855H117.429V40.0801ZM127.929 36.7637V34.0215C127.358 34.0684 126.741 34.1348 126.077 34.2207C125.413 34.2988 124.909 34.3926 124.565 34.502C124.144 34.6348 123.819 34.8301 123.593 35.0879C123.374 35.3379 123.265 35.6699 123.265 36.084C123.265 36.3574 123.288 36.5801 123.335 36.752C123.382 36.9238 123.499 37.0879 123.687 37.2441C123.866 37.4004 124.081 37.5176 124.331 37.5957C124.581 37.666 124.972 37.7012 125.503 37.7012C125.925 37.7012 126.351 37.6152 126.78 37.4434C127.218 37.2715 127.601 37.0449 127.929 36.7637ZM127.929 38.8027C127.702 38.9746 127.421 39.1816 127.085 39.4238C126.749 39.666 126.433 39.8574 126.136 39.998C125.722 40.1855 125.292 40.3223 124.847 40.4082C124.401 40.502 123.913 40.5488 123.382 40.5488C122.132 40.5488 121.085 40.1621 120.241 39.3887C119.397 38.6152 118.976 37.627 118.976 36.4238C118.976 35.4629 119.19 34.6777 119.62 34.0684C120.05 33.459 120.659 32.9785 121.448 32.627C122.229 32.2754 123.198 32.0254 124.354 31.877C125.511 31.7285 126.71 31.6191 127.952 31.5488V31.4785C127.952 30.752 127.655 30.252 127.062 29.9785C126.468 29.6973 125.593 29.5566 124.437 29.5566C123.741 29.5566 122.999 29.6816 122.21 29.9316C121.421 30.1738 120.854 30.3613 120.511 30.4941H120.124V27.3184C120.569 27.2012 121.292 27.0645 122.292 26.9082C123.3 26.7441 124.308 26.6621 125.315 26.6621C127.714 26.6621 129.444 27.0332 130.507 27.7754C131.577 28.5098 132.112 29.666 132.112 31.2441V40.1973H127.929V38.8027ZM145.53 31.0566H145.155C144.976 30.9941 144.687 30.9473 144.288 30.916C143.89 30.8848 143.558 30.8691 143.292 30.8691C142.69 30.8691 142.159 30.9082 141.698 30.9863C141.237 31.0645 140.741 31.1973 140.21 31.3848V40.1973H135.991V27.0371H140.21V28.9707C141.14 28.1738 141.948 27.6465 142.636 27.3887C143.323 27.123 143.956 26.9902 144.534 26.9902C144.683 26.9902 144.851 26.9941 145.038 27.002C145.226 27.0098 145.39 27.0215 145.53 27.0371V31.0566ZM156.335 40.0801C155.882 40.1973 155.401 40.2871 154.894 40.3496C154.386 40.4199 153.765 40.4551 153.03 40.4551C151.39 40.4551 150.167 40.123 149.362 39.459C148.565 38.7949 148.167 37.6582 148.167 36.0488V29.8965H146.433V27.0371H148.167V23.2754H152.386V27.0371H156.335V29.8965H152.386V34.5605C152.386 35.0215 152.39 35.4238 152.397 35.7676C152.405 36.1113 152.468 36.4199 152.585 36.6934C152.694 36.9668 152.886 37.1855 153.159 37.3496C153.44 37.5059 153.847 37.584 154.378 37.584C154.597 37.584 154.882 37.5371 155.233 37.4434C155.593 37.3496 155.843 37.2637 155.983 37.1855H156.335V40.0801Z" fill="url(#paint0_linear_2022_2333)"/>
<path d="M26.292 64.1973H25.1318V56.6797L22.7061 61.7949H22.0146L19.6064 56.6797V64.1973H18.5225V55.4727H20.1045L22.4307 60.3301L24.6807 55.4727H26.292V64.1973ZM33.1538 64.1973H32.0581V63.5C31.9604 63.5664 31.8276 63.6602 31.6596 63.7812C31.4956 63.8984 31.3354 63.9922 31.1792 64.0625C30.9956 64.1523 30.7846 64.2266 30.5464 64.2852C30.3081 64.3477 30.0288 64.3789 29.7085 64.3789C29.1186 64.3789 28.6186 64.1836 28.2085 63.793C27.7983 63.4023 27.5932 62.9043 27.5932 62.2988C27.5932 61.8027 27.6987 61.4023 27.9096 61.0977C28.1245 60.7891 28.4292 60.5469 28.8237 60.3711C29.2221 60.1953 29.7007 60.0762 30.2593 60.0137C30.8179 59.9512 31.4175 59.9043 32.0581 59.873V59.7031C32.0581 59.4531 32.0132 59.2461 31.9233 59.082C31.8374 58.918 31.7124 58.7891 31.5483 58.6953C31.3921 58.6055 31.2046 58.5449 30.9858 58.5137C30.7671 58.4824 30.5386 58.4668 30.3003 58.4668C30.0112 58.4668 29.6889 58.5059 29.3335 58.584C28.978 58.6582 28.6108 58.7676 28.2319 58.9121H28.1733V57.793C28.3882 57.7344 28.6987 57.6699 29.105 57.5996C29.5112 57.5293 29.9116 57.4941 30.3061 57.4941C30.7671 57.4941 31.1675 57.5332 31.5073 57.6113C31.8511 57.6855 32.1479 57.8145 32.3979 57.998C32.644 58.1777 32.8315 58.4102 32.9604 58.6953C33.0893 58.9805 33.1538 59.334 33.1538 59.7559V64.1973ZM32.0581 62.5859V60.7637C31.7221 60.7832 31.3257 60.8125 30.8686 60.8516C30.4155 60.8906 30.0561 60.9473 29.7905 61.0215C29.4741 61.1113 29.2182 61.252 29.0229 61.4434C28.8276 61.6309 28.73 61.8906 28.73 62.2227C28.73 62.5977 28.8432 62.8809 29.0698 63.0723C29.2964 63.2598 29.6421 63.3535 30.1069 63.3535C30.4936 63.3535 30.8471 63.2793 31.1675 63.1309C31.4878 62.9785 31.7846 62.7969 32.0581 62.5859ZM40.7363 64.1973H39.2832L36.6582 61.332L35.9433 62.0117V64.1973H34.8418V55.0801H35.9433V60.9277L39.125 57.6523H40.5136L37.4726 60.6758L40.7363 64.1973ZM46.7778 61.0391H41.9555C41.9555 61.4414 42.0161 61.793 42.1371 62.0938C42.2582 62.3906 42.4243 62.6348 42.6352 62.8262C42.8383 63.0137 43.0786 63.1543 43.3559 63.248C43.6371 63.3418 43.9457 63.3887 44.2817 63.3887C44.727 63.3887 45.1743 63.3008 45.6235 63.125C46.0766 62.9453 46.3989 62.7695 46.5903 62.5977H46.6489V63.7988C46.2778 63.9551 45.8989 64.0859 45.5121 64.1914C45.1254 64.2969 44.7192 64.3496 44.2934 64.3496C43.2075 64.3496 42.3598 64.0566 41.7504 63.4707C41.1411 62.8809 40.8364 62.0449 40.8364 60.9629C40.8364 59.8926 41.1274 59.043 41.7094 58.4141C42.2954 57.7852 43.0649 57.4707 44.018 57.4707C44.9008 57.4707 45.5805 57.7285 46.0571 58.2441C46.5375 58.7598 46.7778 59.4922 46.7778 60.4414V61.0391ZM45.7055 60.1953C45.7016 59.6172 45.5551 59.1699 45.2661 58.8535C44.9809 58.5371 44.5454 58.3789 43.9594 58.3789C43.3696 58.3789 42.8989 58.5527 42.5473 58.9004C42.1996 59.248 42.0024 59.6797 41.9555 60.1953H45.7055ZM56.7924 64.1973H55.6967V63.5C55.599 63.5664 55.4662 63.6602 55.2982 63.7812C55.1342 63.8984 54.974 63.9922 54.8178 64.0625C54.6342 64.1523 54.4232 64.2266 54.185 64.2852C53.9467 64.3477 53.6674 64.3789 53.3471 64.3789C52.7572 64.3789 52.2572 64.1836 51.8471 63.793C51.4369 63.4023 51.2318 62.9043 51.2318 62.2988C51.2318 61.8027 51.3373 61.4023 51.5482 61.0977C51.7631 60.7891 52.0678 60.5469 52.4623 60.3711C52.8607 60.1953 53.3393 60.0762 53.8979 60.0137C54.4564 59.9512 55.0561 59.9043 55.6967 59.873V59.7031C55.6967 59.4531 55.6518 59.2461 55.5619 59.082C55.476 58.918 55.351 58.7891 55.1869 58.6953C55.0307 58.6055 54.8432 58.5449 54.6244 58.5137C54.4057 58.4824 54.1771 58.4668 53.9389 58.4668C53.6498 58.4668 53.3275 58.5059 52.9721 58.584C52.6166 58.6582 52.2494 58.7676 51.8705 58.9121H51.8119V57.793C52.0268 57.7344 52.3373 57.6699 52.7436 57.5996C53.1498 57.5293 53.5502 57.4941 53.9447 57.4941C54.4057 57.4941 54.8061 57.5332 55.1459 57.6113C55.4896 57.6855 55.7865 57.8145 56.0365 57.998C56.2826 58.1777 56.4701 58.4102 56.599 58.6953C56.7279 58.9805 56.7924 59.334 56.7924 59.7559V64.1973ZM55.6967 62.5859V60.7637C55.3607 60.7832 54.9643 60.8125 54.5072 60.8516C54.0541 60.8906 53.6947 60.9473 53.4291 61.0215C53.1127 61.1113 52.8568 61.252 52.6615 61.4434C52.4662 61.6309 52.3686 61.8906 52.3686 62.2227C52.3686 62.5977 52.4818 62.8809 52.7084 63.0723C52.935 63.2598 53.2807 63.3535 53.7455 63.3535C54.1322 63.3535 54.4857 63.2793 54.8061 63.1309C55.1264 62.9785 55.4232 62.7969 55.6967 62.5859ZM67.4808 64.1973H66.3793V63.5117C66.0629 63.7852 65.7328 63.998 65.389 64.1504C65.0453 64.3027 64.6722 64.3789 64.2699 64.3789C63.4886 64.3789 62.8675 64.0781 62.4066 63.4766C61.9496 62.875 61.7211 62.041 61.7211 60.9746C61.7211 60.4199 61.7992 59.9258 61.9554 59.4922C62.1156 59.0586 62.3304 58.6895 62.6 58.3848C62.8656 58.0879 63.1742 57.8613 63.5257 57.7051C63.8812 57.5488 64.2484 57.4707 64.6273 57.4707C64.9711 57.4707 65.2757 57.5078 65.5414 57.582C65.807 57.6523 66.0863 57.7637 66.3793 57.916V55.0801H67.4808V64.1973ZM66.3793 62.5859V58.8301C66.0824 58.6973 65.8168 58.6055 65.5824 58.5547C65.348 58.5039 65.0921 58.4785 64.8148 58.4785C64.1976 58.4785 63.7171 58.6934 63.3734 59.123C63.0296 59.5527 62.8578 60.1621 62.8578 60.9512C62.8578 61.7285 62.9906 62.3203 63.2562 62.7266C63.5218 63.1289 63.9476 63.3301 64.5336 63.3301C64.8461 63.3301 65.1625 63.2617 65.4828 63.125C65.8031 62.9844 66.1019 62.8047 66.3793 62.5859ZM73.2528 58.8535H73.1942C73.0301 58.8145 72.87 58.7871 72.7137 58.7715C72.5614 58.752 72.3797 58.7422 72.1688 58.7422C71.8289 58.7422 71.5008 58.8184 71.1844 58.9707C70.868 59.1191 70.5633 59.3125 70.2704 59.5508V64.1973H69.1688V57.6523H70.2704V58.6191C70.7079 58.2676 71.0926 58.0195 71.4246 57.875C71.7606 57.7266 72.1024 57.6523 72.45 57.6523C72.6414 57.6523 72.7801 57.6582 72.8661 57.6699C72.952 57.6777 73.0809 57.6953 73.2528 57.7227V58.8535ZM78.6849 64.1973H77.5892V63.5C77.4915 63.5664 77.3587 63.6602 77.1907 63.7812C77.0267 63.8984 76.8665 63.9922 76.7103 64.0625C76.5267 64.1523 76.3157 64.2266 76.0775 64.2852C75.8392 64.3477 75.5599 64.3789 75.2396 64.3789C74.6497 64.3789 74.1497 64.1836 73.7396 63.793C73.3294 63.4023 73.1243 62.9043 73.1243 62.2988C73.1243 61.8027 73.2298 61.4023 73.4407 61.0977C73.6556 60.7891 73.9603 60.5469 74.3548 60.3711C74.7532 60.1953 75.2318 60.0762 75.7904 60.0137C76.3489 59.9512 76.9486 59.9043 77.5892 59.873V59.7031C77.5892 59.4531 77.5443 59.2461 77.4544 59.082C77.3685 58.918 77.2435 58.7891 77.0794 58.6953C76.9232 58.6055 76.7357 58.5449 76.5169 58.5137C76.2982 58.4824 76.0696 58.4668 75.8314 58.4668C75.5423 58.4668 75.22 58.5059 74.8646 58.584C74.5091 58.6582 74.1419 58.7676 73.763 58.9121H73.7044V57.793C73.9193 57.7344 74.2298 57.6699 74.6361 57.5996C75.0423 57.5293 75.4427 57.4941 75.8372 57.4941C76.2982 57.4941 76.6986 57.5332 77.0384 57.6113C77.3821 57.6855 77.679 57.8145 77.929 57.998C78.1751 58.1777 78.3626 58.4102 78.4915 58.6953C78.6204 58.9805 78.6849 59.334 78.6849 59.7559V64.1973ZM77.5892 62.5859V60.7637C77.2532 60.7832 76.8568 60.8125 76.3997 60.8516C75.9466 60.8906 75.5872 60.9473 75.3216 61.0215C75.0052 61.1113 74.7493 61.252 74.554 61.4434C74.3587 61.6309 74.2611 61.8906 74.2611 62.2227C74.2611 62.5977 74.3743 62.8809 74.6009 63.0723C74.8275 63.2598 75.1732 63.3535 75.638 63.3535C76.0247 63.3535 76.3782 63.2793 76.6986 63.1309C77.0189 62.9785 77.3157 62.7969 77.5892 62.5859ZM83.8475 56.1465H83.7889C83.6678 56.1113 83.5096 56.0762 83.3143 56.041C83.1189 56.002 82.9471 55.9824 82.7986 55.9824C82.326 55.9824 81.9822 56.0879 81.7674 56.2988C81.5564 56.5059 81.451 56.8828 81.451 57.4297V57.6523H83.4373V58.5781H81.4861V64.1973H80.3846V58.5781H79.6404V57.6523H80.3846V57.4355C80.3846 56.6582 80.5779 56.0625 80.9646 55.6484C81.3514 55.2305 81.91 55.0215 82.6404 55.0215C82.8865 55.0215 83.1072 55.0332 83.3025 55.0566C83.5018 55.0801 83.6834 55.1074 83.8475 55.1387V56.1465ZM87.4632 64.1387C87.2561 64.1934 87.0296 64.2383 86.7835 64.2734C86.5413 64.3086 86.3245 64.3262 86.1331 64.3262C85.4651 64.3262 84.9573 64.1465 84.6096 63.7871C84.262 63.4277 84.0882 62.8516 84.0882 62.0586V58.5781H83.344V57.6523H84.0882V55.7715H85.1897V57.6523H87.4632V58.5781H85.1897V61.5605C85.1897 61.9043 85.1975 62.1738 85.2132 62.3691C85.2288 62.5605 85.2835 62.7402 85.3772 62.9082C85.4632 63.0645 85.5804 63.1797 85.7288 63.2539C85.8811 63.3242 86.1116 63.3594 86.4202 63.3594C86.5999 63.3594 86.7874 63.334 86.9827 63.2832C87.178 63.2285 87.3186 63.1836 87.4046 63.1484H87.4632V64.1387ZM95.5793 56.1465H95.5207C95.3997 56.1113 95.2414 56.0762 95.0461 56.041C94.8508 56.002 94.6789 55.9824 94.5305 55.9824C94.0579 55.9824 93.7141 56.0879 93.4993 56.2988C93.2883 56.5059 93.1829 56.8828 93.1829 57.4297V57.6523H95.1692V58.5781H93.218V64.1973H92.1164V58.5781H91.3723V57.6523H92.1164V57.4355C92.1164 56.6582 92.3098 56.0625 92.6965 55.6484C93.0832 55.2305 93.6418 55.0215 94.3723 55.0215C94.6184 55.0215 94.8391 55.0332 95.0344 55.0566C95.2336 55.0801 95.4153 55.1074 95.5793 55.1387V56.1465ZM101.375 60.9277C101.375 61.9941 101.101 62.8359 100.554 63.4531C100.008 64.0703 99.2751 64.3789 98.3571 64.3789C97.4314 64.3789 96.695 64.0703 96.1482 63.4531C95.6052 62.8359 95.3337 61.9941 95.3337 60.9277C95.3337 59.8613 95.6052 59.0195 96.1482 58.4023C96.695 57.7812 97.4314 57.4707 98.3571 57.4707C99.2751 57.4707 100.008 57.7812 100.554 58.4023C101.101 59.0195 101.375 59.8613 101.375 60.9277ZM100.238 60.9277C100.238 60.0801 100.072 59.4512 99.74 59.041C99.4079 58.627 98.947 58.4199 98.3571 58.4199C97.7595 58.4199 97.2946 58.627 96.9626 59.041C96.6345 59.4512 96.4704 60.0801 96.4704 60.9277C96.4704 61.748 96.6364 62.3711 96.9685 62.7969C97.3005 63.2188 97.7634 63.4297 98.3571 63.4297C98.9431 63.4297 99.4021 63.2207 99.7341 62.8027C100.07 62.3809 100.238 61.7559 100.238 60.9277ZM106.69 58.8535H106.631C106.467 58.8145 106.307 58.7871 106.151 58.7715C105.998 58.752 105.817 58.7422 105.606 58.7422C105.266 58.7422 104.938 58.8184 104.621 58.9707C104.305 59.1191 104 59.3125 103.707 59.5508V64.1973H102.606V57.6523H103.707V58.6191C104.145 58.2676 104.529 58.0195 104.862 57.875C105.197 57.7266 105.539 57.6523 105.887 57.6523C106.078 57.6523 106.217 57.6582 106.303 57.6699C106.389 57.6777 106.518 57.6953 106.69 57.7227V58.8535ZM116.646 57.6523L112.825 66.6113H111.648L112.866 63.8809L110.259 57.6523H111.454L113.464 62.5039L115.491 57.6523H116.646ZM123.08 60.9277C123.08 61.9941 122.806 62.8359 122.259 63.4531C121.713 64.0703 120.98 64.3789 120.062 64.3789C119.136 64.3789 118.4 64.0703 117.853 63.4531C117.31 62.8359 117.039 61.9941 117.039 60.9277C117.039 59.8613 117.31 59.0195 117.853 58.4023C118.4 57.7812 119.136 57.4707 120.062 57.4707C120.98 57.4707 121.713 57.7812 122.259 58.4023C122.806 59.0195 123.08 59.8613 123.08 60.9277ZM121.943 60.9277C121.943 60.0801 121.777 59.4512 121.445 59.041C121.113 58.627 120.652 58.4199 120.062 58.4199C119.464 58.4199 119 58.627 118.668 59.041C118.339 59.4512 118.175 60.0801 118.175 60.9277C118.175 61.748 118.341 62.3711 118.673 62.7969C119.006 63.2188 119.468 63.4297 120.062 63.4297C120.648 63.4297 121.107 63.2207 121.439 62.8027C121.775 62.3809 121.943 61.7559 121.943 60.9277ZM129.736 64.1973H128.635V63.4707C128.264 63.7637 127.908 63.9883 127.568 64.1445C127.229 64.3008 126.854 64.3789 126.443 64.3789C125.756 64.3789 125.221 64.1699 124.838 63.752C124.455 63.3301 124.264 62.7129 124.264 61.9004V57.6523H125.365V61.3789C125.365 61.7109 125.381 61.9961 125.412 62.2344C125.443 62.4688 125.51 62.6699 125.611 62.8379C125.717 63.0098 125.854 63.1348 126.022 63.2129C126.19 63.291 126.434 63.3301 126.754 63.3301C127.039 63.3301 127.35 63.2559 127.686 63.1074C128.026 62.959 128.342 62.7695 128.635 62.5391V57.6523H129.736V64.1973ZM135.508 58.8535H135.45C135.286 58.8145 135.126 58.7871 134.969 58.7715C134.817 58.752 134.635 58.7422 134.424 58.7422C134.085 58.7422 133.756 58.8184 133.44 58.9707C133.124 59.1191 132.819 59.3125 132.526 59.5508V64.1973H131.424V57.6523H132.526V58.6191C132.963 58.2676 133.348 58.0195 133.68 57.875C134.016 57.7266 134.358 57.6523 134.706 57.6523C134.897 57.6523 135.036 57.6582 135.122 57.6699C135.208 57.6777 135.337 57.6953 135.508 57.7227V58.8535ZM146.548 64.1973H145.113L140.976 56.3926V64.1973H139.892V55.4727H141.691L145.464 62.5977V55.4727H146.548V64.1973ZM153.387 64.1973H152.291V63.5C152.193 63.5664 152.061 63.6602 151.893 63.7812C151.729 63.8984 151.568 63.9922 151.412 64.0625C151.229 64.1523 151.018 64.2266 150.779 64.2852C150.541 64.3477 150.262 64.3789 149.941 64.3789C149.352 64.3789 148.852 64.1836 148.441 63.793C148.031 63.4023 147.826 62.9043 147.826 62.2988C147.826 61.8027 147.932 61.4023 148.143 61.0977C148.357 60.7891 148.662 60.5469 149.057 60.3711C149.455 60.1953 149.934 60.0762 150.492 60.0137C151.051 59.9512 151.65 59.9043 152.291 59.873V59.7031C152.291 59.4531 152.246 59.2461 152.156 59.082C152.07 58.918 151.945 58.7891 151.781 58.6953C151.625 58.6055 151.438 58.5449 151.219 58.5137C151 58.4824 150.772 58.4668 150.533 58.4668C150.244 58.4668 149.922 58.5059 149.566 58.584C149.211 58.6582 148.844 58.7676 148.465 58.9121H148.406V57.793C148.621 57.7344 148.932 57.6699 149.338 57.5996C149.744 57.5293 150.145 57.4941 150.539 57.4941C151 57.4941 151.4 57.5332 151.74 57.6113C152.084 57.6855 152.381 57.8145 152.631 57.998C152.877 58.1777 153.064 58.4102 153.193 58.6953C153.322 58.9805 153.387 59.334 153.387 59.7559V64.1973ZM152.291 62.5859V60.7637C151.955 60.7832 151.559 60.8125 151.102 60.8516C150.648 60.8906 150.289 60.9473 150.023 61.0215C149.707 61.1113 149.451 61.252 149.256 61.4434C149.061 61.6309 148.963 61.8906 148.963 62.2227C148.963 62.5977 149.076 62.8809 149.303 63.0723C149.529 63.2598 149.875 63.3535 150.34 63.3535C150.727 63.3535 151.08 63.2793 151.4 63.1309C151.721 62.9785 152.018 62.7969 152.291 62.5859ZM158.426 64.1387C158.219 64.1934 157.993 64.2383 157.747 64.2734C157.504 64.3086 157.288 64.3262 157.096 64.3262C156.428 64.3262 155.92 64.1465 155.573 63.7871C155.225 63.4277 155.051 62.8516 155.051 62.0586V58.5781H154.307V57.6523H155.051V55.7715H156.153V57.6523H158.426V58.5781H156.153V61.5605C156.153 61.9043 156.161 62.1738 156.176 62.3691C156.192 62.5605 156.247 62.7402 156.34 62.9082C156.426 63.0645 156.543 63.1797 156.692 63.2539C156.844 63.3242 157.075 63.3594 157.383 63.3594C157.563 63.3594 157.751 63.334 157.946 63.2832C158.141 63.2285 158.282 63.1836 158.368 63.1484H158.426V64.1387ZM160.466 56.5566H159.224V55.4141H160.466V56.5566ZM160.396 64.1973H159.294V57.6523H160.396V64.1973ZM167.673 60.9277C167.673 61.9941 167.4 62.8359 166.853 63.4531C166.306 64.0703 165.574 64.3789 164.656 64.3789C163.73 64.3789 162.994 64.0703 162.447 63.4531C161.904 62.8359 161.632 61.9941 161.632 60.9277C161.632 59.8613 161.904 59.0195 162.447 58.4023C162.994 57.7812 163.73 57.4707 164.656 57.4707C165.574 57.4707 166.306 57.7812 166.853 58.4023C167.4 59.0195 167.673 59.8613 167.673 60.9277ZM166.537 60.9277C166.537 60.0801 166.371 59.4512 166.039 59.041C165.707 58.627 165.246 58.4199 164.656 58.4199C164.058 58.4199 163.593 58.627 163.261 59.041C162.933 59.4512 162.769 60.0801 162.769 60.9277C162.769 61.748 162.935 62.3711 163.267 62.7969C163.599 63.2188 164.062 63.4297 164.656 63.4297C165.242 63.4297 165.701 63.2207 166.033 62.8027C166.369 62.3809 166.537 61.7559 166.537 60.9277ZM174.377 64.1973H173.275V60.4707C173.275 60.1699 173.258 59.8887 173.223 59.627C173.187 59.3613 173.123 59.1543 173.029 59.0059C172.932 58.8418 172.791 58.7207 172.607 58.6426C172.424 58.5605 172.186 58.5195 171.893 58.5195C171.592 58.5195 171.277 58.5938 170.949 58.7422C170.621 58.8906 170.307 59.0801 170.006 59.3105V64.1973H168.904V57.6523H170.006V58.3789C170.35 58.0938 170.705 57.8711 171.072 57.7109C171.439 57.5508 171.816 57.4707 172.203 57.4707C172.91 57.4707 173.449 57.6836 173.82 58.1094C174.191 58.5352 174.377 59.1484 174.377 59.9492V64.1973ZM181.104 64.1973H180.008V63.5C179.911 63.5664 179.778 63.6602 179.61 63.7812C179.446 63.8984 179.286 63.9922 179.129 64.0625C178.946 64.1523 178.735 64.2266 178.497 64.2852C178.258 64.3477 177.979 64.3789 177.659 64.3789C177.069 64.3789 176.569 64.1836 176.159 63.793C175.748 63.4023 175.543 62.9043 175.543 62.2988C175.543 61.8027 175.649 61.4023 175.86 61.0977C176.075 60.7891 176.379 60.5469 176.774 60.3711C177.172 60.1953 177.651 60.0762 178.209 60.0137C178.768 59.9512 179.368 59.9043 180.008 59.873V59.7031C180.008 59.4531 179.963 59.2461 179.873 59.082C179.788 58.918 179.663 58.7891 179.498 58.6953C179.342 58.6055 179.155 58.5449 178.936 58.5137C178.717 58.4824 178.489 58.4668 178.25 58.4668C177.961 58.4668 177.639 58.5059 177.284 58.584C176.928 58.6582 176.561 58.7676 176.182 58.9121H176.123V57.793C176.338 57.7344 176.649 57.6699 177.055 57.5996C177.461 57.5293 177.862 57.4941 178.256 57.4941C178.717 57.4941 179.118 57.5332 179.457 57.6113C179.801 57.6855 180.098 57.8145 180.348 57.998C180.594 58.1777 180.782 58.4102 180.911 58.6953C181.039 58.9805 181.104 59.334 181.104 59.7559V64.1973ZM180.008 62.5859V60.7637C179.672 60.7832 179.276 60.8125 178.819 60.8516C178.366 60.8906 178.006 60.9473 177.741 61.0215C177.424 61.1113 177.168 61.252 176.973 61.4434C176.778 61.6309 176.68 61.8906 176.68 62.2227C176.68 62.5977 176.793 62.8809 177.02 63.0723C177.247 63.2598 177.592 63.3535 178.057 63.3535C178.444 63.3535 178.797 63.2793 179.118 63.1309C179.438 62.9785 179.735 62.7969 180.008 62.5859ZM183.858 64.1973H182.757V55.0801H183.858V64.1973ZM24.2295 75.1094C24.2295 75.4961 24.1611 75.8555 24.0244 76.1875C23.8916 76.5156 23.7041 76.8008 23.4619 77.043C23.1611 77.3438 22.8057 77.5703 22.3955 77.7227C21.9854 77.8711 21.4678 77.9453 20.8428 77.9453H19.6826V81.1973H18.5225V72.4727H20.8896C21.4131 72.4727 21.8564 72.5176 22.2197 72.6074C22.583 72.6934 22.9053 72.8301 23.1865 73.0176C23.5186 73.2402 23.7744 73.5176 23.9541 73.8496C24.1377 74.1816 24.2295 74.6016 24.2295 75.1094ZM23.0225 75.1387C23.0225 74.8379 22.9697 74.5762 22.8643 74.3535C22.7588 74.1309 22.5986 73.9492 22.3838 73.8086C22.1963 73.6875 21.9814 73.6016 21.7393 73.5508C21.501 73.4961 21.1982 73.4688 20.8311 73.4688H19.6826V76.9551H20.6611C21.1299 76.9551 21.5107 76.9141 21.8037 76.832C22.0967 76.7461 22.335 76.6113 22.5186 76.4277C22.7021 76.2402 22.8311 76.043 22.9053 75.8359C22.9834 75.6289 23.0225 75.3965 23.0225 75.1387ZM30.3823 78.0391H25.56C25.56 78.4414 25.6206 78.793 25.7417 79.0938C25.8628 79.3906 26.0288 79.6348 26.2397 79.8262C26.4429 80.0137 26.6831 80.1543 26.9604 80.248C27.2417 80.3418 27.5503 80.3887 27.8862 80.3887C28.3315 80.3887 28.7788 80.3008 29.228 80.125C29.6811 79.9453 30.0034 79.7695 30.1948 79.5977H30.2534V80.7988C29.8823 80.9551 29.5034 81.0859 29.1167 81.1914C28.73 81.2969 28.3237 81.3496 27.8979 81.3496C26.812 81.3496 25.9643 81.0566 25.355 80.4707C24.7456 79.8809 24.4409 79.0449 24.4409 77.9629C24.4409 76.8926 24.7319 76.043 25.3139 75.4141C25.8999 74.7852 26.6694 74.4707 27.6225 74.4707C28.5054 74.4707 29.185 74.7285 29.6616 75.2441C30.1421 75.7598 30.3823 76.4922 30.3823 77.4414V78.0391ZM29.31 77.1953C29.3061 76.6172 29.1596 76.1699 28.8706 75.8535C28.5854 75.5371 28.1499 75.3789 27.5639 75.3789C26.9741 75.3789 26.5034 75.5527 26.1518 75.9004C25.8042 76.248 25.6069 76.6797 25.56 77.1953H29.31ZM37.0449 81.1973H35.9433V77.4707C35.9433 77.1699 35.9257 76.8887 35.8906 76.627C35.8554 76.3613 35.791 76.1543 35.6972 76.0059C35.5996 75.8418 35.4589 75.7207 35.2754 75.6426C35.0918 75.5605 34.8535 75.5195 34.5605 75.5195C34.2597 75.5195 33.9453 75.5938 33.6171 75.7422C33.289 75.8906 32.9746 76.0801 32.6738 76.3105V81.1973H31.5722V74.6523H32.6738V75.3789C33.0175 75.0938 33.373 74.8711 33.7402 74.7109C34.1074 74.5508 34.4843 74.4707 34.8711 74.4707C35.5781 74.4707 36.1171 74.6836 36.4882 75.1094C36.8593 75.5352 37.0449 76.1484 37.0449 76.9492V81.1973ZM43.3618 79.3105C43.3618 79.9082 43.1137 80.3984 42.6176 80.7812C42.1254 81.1641 41.4516 81.3555 40.5961 81.3555C40.1118 81.3555 39.6664 81.2988 39.2602 81.1855C38.8579 81.0684 38.52 80.9414 38.2465 80.8047V79.5684H38.3051C38.6528 79.8301 39.0395 80.0391 39.4653 80.1953C39.8911 80.3477 40.2993 80.4238 40.6899 80.4238C41.1743 80.4238 41.5532 80.3457 41.8266 80.1895C42.1 80.0332 42.2368 79.7871 42.2368 79.4512C42.2368 79.1934 42.1625 78.998 42.0141 78.8652C41.8657 78.7324 41.5805 78.6191 41.1586 78.5254C41.0024 78.4902 40.7973 78.4492 40.5434 78.4023C40.2934 78.3555 40.0649 78.3047 39.8579 78.25C39.2836 78.0977 38.8754 77.875 38.6332 77.582C38.395 77.2852 38.2758 76.9219 38.2758 76.4922C38.2758 76.2227 38.3305 75.9688 38.4399 75.7305C38.5532 75.4922 38.7231 75.2793 38.9496 75.0918C39.1684 74.9082 39.4457 74.7637 39.7817 74.6582C40.1215 74.5488 40.5004 74.4941 40.9184 74.4941C41.309 74.4941 41.7036 74.543 42.102 74.6406C42.5043 74.7344 42.8383 74.8496 43.1039 74.9863V76.1641H43.0454C42.7641 75.957 42.4223 75.7832 42.02 75.6426C41.6176 75.498 41.2231 75.4258 40.8364 75.4258C40.434 75.4258 40.0942 75.5039 39.8168 75.6602C39.5395 75.8125 39.4008 76.041 39.4008 76.3457C39.4008 76.6152 39.4848 76.8184 39.6528 76.9551C39.8168 77.0918 40.0825 77.2031 40.4496 77.2891C40.6528 77.3359 40.8793 77.3828 41.1293 77.4297C41.3832 77.4766 41.5942 77.5195 41.7621 77.5586C42.2739 77.6758 42.6684 77.877 42.9457 78.1621C43.2231 78.4512 43.3618 78.834 43.3618 79.3105ZM45.6474 73.5566H44.4052V72.4141H45.6474V73.5566ZM45.5771 81.1973H44.4755V74.6523H45.5771V81.1973ZM52.8549 77.9277C52.8549 78.9941 52.5814 79.8359 52.0346 80.4531C51.4877 81.0703 50.7553 81.3789 49.8373 81.3789C48.9115 81.3789 48.1752 81.0703 47.6283 80.4531C47.0854 79.8359 46.8139 78.9941 46.8139 77.9277C46.8139 76.8613 47.0854 76.0195 47.6283 75.4023C48.1752 74.7812 48.9115 74.4707 49.8373 74.4707C50.7553 74.4707 51.4877 74.7812 52.0346 75.4023C52.5814 76.0195 52.8549 76.8613 52.8549 77.9277ZM51.7182 77.9277C51.7182 77.0801 51.5521 76.4512 51.2201 76.041C50.8881 75.627 50.4271 75.4199 49.8373 75.4199C49.2396 75.4199 48.7748 75.627 48.4428 76.041C48.1146 76.4512 47.9506 77.0801 47.9506 77.9277C47.9506 78.748 48.1166 79.3711 48.4486 79.7969C48.7807 80.2188 49.2436 80.4297 49.8373 80.4297C50.4232 80.4297 50.8822 80.2207 51.2143 79.8027C51.5502 79.3809 51.7182 78.7559 51.7182 77.9277ZM59.5585 81.1973H58.4569V77.4707C58.4569 77.1699 58.4393 76.8887 58.4042 76.627C58.369 76.3613 58.3046 76.1543 58.2108 76.0059C58.1132 75.8418 57.9725 75.7207 57.7889 75.6426C57.6054 75.5605 57.3671 75.5195 57.0741 75.5195C56.7733 75.5195 56.4589 75.5938 56.1307 75.7422C55.8026 75.8906 55.4882 76.0801 55.1874 76.3105V81.1973H54.0858V74.6523H55.1874V75.3789C55.5311 75.0938 55.8866 74.8711 56.2538 74.7109C56.621 74.5508 56.9979 74.4707 57.3846 74.4707C58.0917 74.4707 58.6307 74.6836 59.0018 75.1094C59.3729 75.5352 59.5585 76.1484 59.5585 76.9492V81.1973ZM69.6141 79.3105C69.6141 79.9082 69.3661 80.3984 68.87 80.7812C68.3778 81.1641 67.7039 81.3555 66.8485 81.3555C66.3641 81.3555 65.9188 81.2988 65.5125 81.1855C65.1102 81.0684 64.7723 80.9414 64.4989 80.8047V79.5684H64.5575C64.9051 79.8301 65.2918 80.0391 65.7176 80.1953C66.1434 80.3477 66.5516 80.4238 66.9422 80.4238C67.4266 80.4238 67.8055 80.3457 68.0789 80.1895C68.3524 80.0332 68.4891 79.7871 68.4891 79.4512C68.4891 79.1934 68.4149 78.998 68.2664 78.8652C68.118 78.7324 67.8329 78.6191 67.411 78.5254C67.2547 78.4902 67.0496 78.4492 66.7957 78.4023C66.5457 78.3555 66.3172 78.3047 66.1102 78.25C65.536 78.0977 65.1278 77.875 64.8856 77.582C64.6473 77.2852 64.5282 76.9219 64.5282 76.4922C64.5282 76.2227 64.5829 75.9688 64.6922 75.7305C64.8055 75.4922 64.9754 75.2793 65.202 75.0918C65.4207 74.9082 65.6981 74.7637 66.034 74.6582C66.3739 74.5488 66.7528 74.4941 67.1707 74.4941C67.5614 74.4941 67.9559 74.543 68.3543 74.6406C68.7567 74.7344 69.0907 74.8496 69.3563 74.9863V76.1641H69.2977C69.0164 75.957 68.6746 75.7832 68.2723 75.6426C67.87 75.498 67.4754 75.4258 67.0887 75.4258C66.6864 75.4258 66.3465 75.5039 66.0692 75.6602C65.7918 75.8125 65.6532 76.041 65.6532 76.3457C65.6532 76.6152 65.7371 76.8184 65.9051 76.9551C66.0692 77.0918 66.3348 77.2031 66.702 77.2891C66.9051 77.3359 67.1317 77.3828 67.3817 77.4297C67.6356 77.4766 67.8465 77.5195 68.0145 77.5586C68.5262 77.6758 68.9207 77.877 69.1981 78.1621C69.4754 78.4512 69.6141 78.834 69.6141 79.3105ZM75.556 80.7871C75.1888 80.9629 74.8392 81.0996 74.5071 81.1973C74.179 81.2949 73.8294 81.3438 73.4583 81.3438C72.9857 81.3438 72.5521 81.2754 72.1575 81.1387C71.763 80.998 71.4251 80.7871 71.1439 80.5059C70.8587 80.2246 70.638 79.8691 70.4818 79.4395C70.3255 79.0098 70.2474 78.5078 70.2474 77.9336C70.2474 76.8633 70.5404 76.0234 71.1263 75.4141C71.7161 74.8047 72.4935 74.5 73.4583 74.5C73.8333 74.5 74.2005 74.5527 74.5599 74.6582C74.9232 74.7637 75.2552 74.8926 75.556 75.0449V76.2695H75.4974C75.1614 76.0078 74.8138 75.8066 74.4544 75.666C74.0989 75.5254 73.7513 75.4551 73.4114 75.4551C72.7864 75.4551 72.2923 75.666 71.929 76.0879C71.5696 76.5059 71.39 77.1211 71.39 77.9336C71.39 78.7227 71.5657 79.3301 71.9173 79.7559C72.2728 80.1777 72.7708 80.3887 73.4114 80.3887C73.6341 80.3887 73.8607 80.3594 74.0911 80.3008C74.3216 80.2422 74.5286 80.166 74.7122 80.0723C74.8724 79.9902 75.0228 79.9043 75.1634 79.8145C75.304 79.7207 75.4154 79.6406 75.4974 79.5742H75.556V80.7871ZM81.9666 81.1973H80.865V77.4707C80.865 77.1699 80.8475 76.8887 80.8123 76.627C80.7771 76.3613 80.7127 76.1543 80.6189 76.0059C80.5213 75.8418 80.3807 75.7207 80.1971 75.6426C80.0135 75.5605 79.7752 75.5195 79.4822 75.5195C79.1814 75.5195 78.867 75.5938 78.5389 75.7422C78.2107 75.8906 77.8963 76.0801 77.5955 76.3105V81.1973H76.4939V72.0801H77.5955V75.3789C77.9393 75.0938 78.2947 74.8711 78.6619 74.7109C79.0291 74.5508 79.4061 74.4707 79.7928 74.4707C80.4998 74.4707 81.0389 74.6836 81.41 75.1094C81.7811 75.5352 81.9666 76.1484 81.9666 76.9492V81.1973ZM89.0862 78.0391H84.2639C84.2639 78.4414 84.3245 78.793 84.4456 79.0938C84.5667 79.3906 84.7327 79.6348 84.9436 79.8262C85.1468 80.0137 85.387 80.1543 85.6643 80.248C85.9456 80.3418 86.2542 80.3887 86.5901 80.3887C87.0354 80.3887 87.4827 80.3008 87.9319 80.125C88.385 79.9453 88.7073 79.7695 88.8987 79.5977H88.9573V80.7988C88.5862 80.9551 88.2073 81.0859 87.8206 81.1914C87.4339 81.2969 87.0276 81.3496 86.6018 81.3496C85.5159 81.3496 84.6682 81.0566 84.0589 80.4707C83.4495 79.8809 83.1448 79.0449 83.1448 77.9629C83.1448 76.8926 83.4358 76.043 84.0179 75.4141C84.6038 74.7852 85.3733 74.4707 86.3264 74.4707C87.2093 74.4707 87.8889 74.7285 88.3655 75.2441C88.846 75.7598 89.0862 76.4922 89.0862 77.4414V78.0391ZM88.0139 77.1953C88.01 76.6172 87.8636 76.1699 87.5745 75.8535C87.2893 75.5371 86.8538 75.3789 86.2679 75.3789C85.678 75.3789 85.2073 75.5527 84.8557 75.9004C84.5081 76.248 84.3108 76.6797 84.2639 77.1953H88.0139ZM99.8269 81.1973H98.7253V77.4707C98.7253 77.1895 98.7117 76.918 98.6843 76.6562C98.6609 76.3945 98.6082 76.1855 98.5261 76.0293C98.4363 75.8613 98.3074 75.7344 98.1394 75.6484C97.9714 75.5625 97.7293 75.5195 97.4128 75.5195C97.1043 75.5195 96.7957 75.5977 96.4871 75.7539C96.1785 75.9062 95.8699 76.1016 95.5613 76.3398C95.573 76.4297 95.5828 76.5352 95.5906 76.6562C95.5984 76.7734 95.6023 76.8906 95.6023 77.0078V81.1973H94.5007V77.4707C94.5007 77.1816 94.4871 76.9082 94.4597 76.6504C94.4363 76.3887 94.3836 76.1797 94.3015 76.0234C94.2117 75.8555 94.0828 75.7305 93.9148 75.6484C93.7468 75.5625 93.5046 75.5195 93.1882 75.5195C92.8875 75.5195 92.5847 75.5938 92.28 75.7422C91.9793 75.8906 91.6785 76.0801 91.3777 76.3105V81.1973H90.2761V74.6523H91.3777V75.3789C91.7214 75.0938 92.0632 74.8711 92.4031 74.7109C92.7468 74.5508 93.1121 74.4707 93.4988 74.4707C93.9441 74.4707 94.3211 74.5645 94.6296 74.752C94.9421 74.9395 95.1746 75.1992 95.3269 75.5312C95.7722 75.1562 96.1785 74.8867 96.5457 74.7227C96.9128 74.5547 97.3054 74.4707 97.7234 74.4707C98.4421 74.4707 98.9714 74.6895 99.3113 75.127C99.655 75.5605 99.8269 76.168 99.8269 76.9492V81.1973ZM106.947 78.0391H102.124C102.124 78.4414 102.185 78.793 102.306 79.0938C102.427 79.3906 102.593 79.6348 102.804 79.8262C103.007 80.0137 103.247 80.1543 103.525 80.248C103.806 80.3418 104.114 80.3887 104.45 80.3887C104.896 80.3887 105.343 80.3008 105.792 80.125C106.245 79.9453 106.568 79.7695 106.759 79.5977H106.818V80.7988C106.447 80.9551 106.068 81.0859 105.681 81.1914C105.294 81.2969 104.888 81.3496 104.462 81.3496C103.376 81.3496 102.529 81.0566 101.919 80.4707C101.31 79.8809 101.005 79.0449 101.005 77.9629C101.005 76.8926 101.296 76.043 101.878 75.4141C102.464 74.7852 103.234 74.4707 104.187 74.4707C105.07 74.4707 105.749 74.7285 106.226 75.2441C106.706 75.7598 106.947 76.4922 106.947 77.4414V78.0391ZM105.874 77.1953C105.87 76.6172 105.724 76.1699 105.435 75.8535C105.15 75.5371 104.714 75.3789 104.128 75.3789C103.538 75.3789 103.068 75.5527 102.716 75.9004C102.368 76.248 102.171 76.6797 102.124 77.1953H105.874ZM116.961 81.1973H115.865V80.5C115.768 80.5664 115.635 80.6602 115.467 80.7812C115.303 80.8984 115.143 80.9922 114.987 81.0625C114.803 81.1523 114.592 81.2266 114.354 81.2852C114.115 81.3477 113.836 81.3789 113.516 81.3789C112.926 81.3789 112.426 81.1836 112.016 80.793C111.606 80.4023 111.401 79.9043 111.401 79.2988C111.401 78.8027 111.506 78.4023 111.717 78.0977C111.932 77.7891 112.237 77.5469 112.631 77.3711C113.029 77.1953 113.508 77.0762 114.067 77.0137C114.625 76.9512 115.225 76.9043 115.865 76.873V76.7031C115.865 76.4531 115.821 76.2461 115.731 76.082C115.645 75.918 115.52 75.7891 115.356 75.6953C115.199 75.6055 115.012 75.5449 114.793 75.5137C114.574 75.4824 114.346 75.4668 114.108 75.4668C113.819 75.4668 113.496 75.5059 113.141 75.584C112.785 75.6582 112.418 75.7676 112.039 75.9121H111.981V74.793C112.196 74.7344 112.506 74.6699 112.912 74.5996C113.319 74.5293 113.719 74.4941 114.113 74.4941C114.574 74.4941 114.975 74.5332 115.315 74.6113C115.658 74.6855 115.955 74.8145 116.205 74.998C116.451 75.1777 116.639 75.4102 116.768 75.6953C116.897 75.9805 116.961 76.334 116.961 76.7559V81.1973ZM115.865 79.5859V77.7637C115.529 77.7832 115.133 77.8125 114.676 77.8516C114.223 77.8906 113.863 77.9473 113.598 78.0215C113.281 78.1113 113.026 78.252 112.83 78.4434C112.635 78.6309 112.537 78.8906 112.537 79.2227C112.537 79.5977 112.651 79.8809 112.877 80.0723C113.104 80.2598 113.449 80.3535 113.914 80.3535C114.301 80.3535 114.654 80.2793 114.975 80.1309C115.295 79.9785 115.592 79.7969 115.865 79.5859ZM124.075 81.1973H122.973V77.4707C122.973 77.1699 122.956 76.8887 122.921 76.627C122.885 76.3613 122.821 76.1543 122.727 76.0059C122.63 75.8418 122.489 75.7207 122.305 75.6426C122.122 75.5605 121.883 75.5195 121.591 75.5195C121.29 75.5195 120.975 75.5938 120.647 75.7422C120.319 75.8906 120.005 76.0801 119.704 76.3105V81.1973H118.602V74.6523H119.704V75.3789C120.048 75.0938 120.403 74.8711 120.77 74.7109C121.137 74.5508 121.514 74.4707 121.901 74.4707C122.608 74.4707 123.147 74.6836 123.518 75.1094C123.889 75.5352 124.075 76.1484 124.075 76.9492V81.1973ZM131.025 81.1973H129.923V80.5117C129.607 80.7852 129.277 80.998 128.933 81.1504C128.589 81.3027 128.216 81.3789 127.814 81.3789C127.032 81.3789 126.411 81.0781 125.95 80.4766C125.493 79.875 125.265 79.041 125.265 77.9746C125.265 77.4199 125.343 76.9258 125.499 76.4922C125.659 76.0586 125.874 75.6895 126.144 75.3848C126.409 75.0879 126.718 74.8613 127.069 74.7051C127.425 74.5488 127.792 74.4707 128.171 74.4707C128.515 74.4707 128.819 74.5078 129.085 74.582C129.351 74.6523 129.63 74.7637 129.923 74.916V72.0801H131.025V81.1973ZM129.923 79.5859V75.8301C129.626 75.6973 129.361 75.6055 129.126 75.5547C128.892 75.5039 128.636 75.4785 128.359 75.4785C127.741 75.4785 127.261 75.6934 126.917 76.123C126.573 76.5527 126.402 77.1621 126.402 77.9512C126.402 78.7285 126.534 79.3203 126.8 79.7266C127.066 80.1289 127.491 80.3301 128.077 80.3301C128.39 80.3301 128.706 80.2617 129.027 80.125C129.347 79.9844 129.646 79.8047 129.923 79.5859ZM141.127 79.3105C141.127 79.9082 140.879 80.3984 140.383 80.7812C139.891 81.1641 139.217 81.3555 138.361 81.3555C137.877 81.3555 137.432 81.2988 137.026 81.1855C136.623 81.0684 136.285 80.9414 136.012 80.8047V79.5684H136.07C136.418 79.8301 136.805 80.0391 137.231 80.1953C137.656 80.3477 138.065 80.4238 138.455 80.4238C138.94 80.4238 139.318 80.3457 139.592 80.1895C139.865 80.0332 140.002 79.7871 140.002 79.4512C140.002 79.1934 139.928 78.998 139.779 78.8652C139.631 78.7324 139.346 78.6191 138.924 78.5254C138.768 78.4902 138.563 78.4492 138.309 78.4023C138.059 78.3555 137.83 78.3047 137.623 78.25C137.049 78.0977 136.641 77.875 136.399 77.582C136.16 77.2852 136.041 76.9219 136.041 76.4922C136.041 76.2227 136.096 75.9688 136.205 75.7305C136.318 75.4922 136.488 75.2793 136.715 75.0918C136.934 74.9082 137.211 74.7637 137.547 74.6582C137.887 74.5488 138.266 74.4941 138.684 74.4941C139.074 74.4941 139.469 74.543 139.867 74.6406C140.27 74.7344 140.604 74.8496 140.869 74.9863V76.1641H140.811C140.529 75.957 140.188 75.7832 139.785 75.6426C139.383 75.498 138.988 75.4258 138.602 75.4258C138.199 75.4258 137.859 75.5039 137.582 75.6602C137.305 75.8125 137.166 76.041 137.166 76.3457C137.166 76.6152 137.25 76.8184 137.418 76.9551C137.582 77.0918 137.848 77.2031 138.215 77.2891C138.418 77.3359 138.645 77.3828 138.895 77.4297C139.149 77.4766 139.359 77.5195 139.527 77.5586C140.039 77.6758 140.434 77.877 140.711 78.1621C140.988 78.4512 141.127 78.834 141.127 79.3105ZM147.655 81.1973H146.553V80.4707C146.182 80.7637 145.827 80.9883 145.487 81.1445C145.147 81.3008 144.772 81.3789 144.362 81.3789C143.674 81.3789 143.139 81.1699 142.756 80.752C142.374 80.3301 142.182 79.7129 142.182 78.9004V74.6523H143.284V78.3789C143.284 78.7109 143.299 78.9961 143.331 79.2344C143.362 79.4688 143.428 79.6699 143.53 79.8379C143.635 80.0098 143.772 80.1348 143.94 80.2129C144.108 80.291 144.352 80.3301 144.672 80.3301C144.958 80.3301 145.268 80.2559 145.604 80.1074C145.944 79.959 146.26 79.7695 146.553 79.5391V74.6523H147.655V81.1973ZM155.103 77.875C155.103 78.4219 155.024 78.9141 154.868 79.3516C154.716 79.7891 154.509 80.1562 154.247 80.4531C153.97 80.7617 153.665 80.9941 153.333 81.1504C153.001 81.3027 152.636 81.3789 152.237 81.3789C151.866 81.3789 151.542 81.334 151.265 81.2441C150.987 81.1582 150.714 81.041 150.444 80.8926L150.374 81.1973H149.343V72.0801H150.444V75.3379C150.753 75.084 151.081 74.877 151.429 74.7168C151.776 74.5527 152.167 74.4707 152.601 74.4707C153.374 74.4707 153.983 74.7676 154.429 75.3613C154.878 75.9551 155.103 76.793 155.103 77.875ZM153.966 77.9043C153.966 77.123 153.837 76.5312 153.579 76.1289C153.321 75.7227 152.905 75.5195 152.331 75.5195C152.011 75.5195 151.687 75.5898 151.358 75.7305C151.03 75.8672 150.726 76.0449 150.444 76.2637V80.0137C150.757 80.1543 151.024 80.252 151.247 80.3066C151.474 80.3613 151.73 80.3887 152.015 80.3887C152.624 80.3887 153.101 80.1895 153.444 79.791C153.792 79.3887 153.966 78.7598 153.966 77.9043ZM165.89 81.1973H164.789V77.4707C164.789 77.1895 164.775 76.918 164.748 76.6562C164.724 76.3945 164.671 76.1855 164.589 76.0293C164.5 75.8613 164.371 75.7344 164.203 75.6484C164.035 75.5625 163.793 75.5195 163.476 75.5195C163.168 75.5195 162.859 75.5977 162.55 75.7539C162.242 75.9062 161.933 76.1016 161.625 76.3398C161.636 76.4297 161.646 76.5352 161.654 76.6562C161.662 76.7734 161.666 76.8906 161.666 77.0078V81.1973H160.564V77.4707C160.564 77.1816 160.55 76.9082 160.523 76.6504C160.5 76.3887 160.447 76.1797 160.365 76.0234C160.275 75.8555 160.146 75.7305 159.978 75.6484C159.81 75.5625 159.568 75.5195 159.252 75.5195C158.951 75.5195 158.648 75.5938 158.343 75.7422C158.043 75.8906 157.742 76.0801 157.441 76.3105V81.1973H156.339V74.6523H157.441V75.3789C157.785 75.0938 158.127 74.8711 158.466 74.7109C158.81 74.5508 159.175 74.4707 159.562 74.4707C160.007 74.4707 160.384 74.5645 160.693 74.752C161.005 74.9395 161.238 75.1992 161.39 75.5312C161.836 75.1562 162.242 74.8867 162.609 74.7227C162.976 74.5547 163.369 74.4707 163.787 74.4707C164.505 74.4707 165.035 74.6895 165.375 75.127C165.718 75.5605 165.89 76.168 165.89 76.9492V81.1973ZM168.715 73.5566H167.473V72.4141H168.715V73.5566ZM168.645 81.1973H167.543V74.6523H168.645V81.1973ZM173.743 81.1387C173.536 81.1934 173.309 81.2383 173.063 81.2734C172.821 81.3086 172.604 81.3262 172.413 81.3262C171.745 81.3262 171.237 81.1465 170.889 80.7871C170.542 80.4277 170.368 79.8516 170.368 79.0586V75.5781H169.624V74.6523H170.368V72.7715H171.469V74.6523H173.743V75.5781H171.469V78.5605C171.469 78.9043 171.477 79.1738 171.493 79.3691C171.508 79.5605 171.563 79.7402 171.657 79.9082C171.743 80.0645 171.86 80.1797 172.008 80.2539C172.161 80.3242 172.391 80.3594 172.7 80.3594C172.879 80.3594 173.067 80.334 173.262 80.2832C173.458 80.2285 173.598 80.1836 173.684 80.1484H173.743V81.1387Z" fill="#384F69"/>
<path d="M301.396 33.6569C301.339 33.3294 300.29 26.8096 300.034 26.8096C299.637 26.8495 275.86 29.2822 275.961 29.5868C276.199 31.6762 276.798 35.9527 276.87 36.2429C303.313 33.6851 301.454 33.9825 301.396 33.6569Z" fill="#FDAF31"/>
<path d="M292.522 27.5958C292.395 27.5958 284.952 28.4139 284.8 28.4519C282.823 21.1715 284.456 20.7288 288.224 20.4858C290.54 20.3364 291.125 20.8381 291.63 22.6171C292.088 24.244 292.386 25.9113 292.522 27.5958Z" fill="white"/>
<path d="M339.566 134.016C339.128 134.223 260.359 141.755 260.292 141.755L248.884 38.9325C249.628 38.9325 303.551 33.6663 328.054 31.3345C328.177 32.0648 339.427 133.283 339.566 134.016Z" fill="white"/>
<path d="M326.349 77.6384C325.878 74.3923 325.795 73.9547 325.522 74.0458C324.852 74.3805 262.249 80.5958 262.651 81.4001C263.138 84.7563 263.226 84.8886 263.472 84.8061C263.89 84.5965 326.544 78.1271 326.349 77.6384ZM263.611 84.3345C263.419 83.3559 263.39 82.6184 263.233 81.6398L325.417 74.5344C325.592 75.4599 325.749 76.3861 325.889 77.3293C263.681 84.3437 263.677 84.3266 263.611 84.3345Z" fill="#87E4FF"/>
<path d="M272.834 49.449C314.515 44.828 321.52 44.0879 322.539 43.8088C322.817 43.7329 322.091 40.1343 321.819 40.2253C321.14 40.5653 258.528 46.7413 258.947 47.5803C259.458 51.0957 259.452 50.9693 259.908 50.9693C259.972 50.9693 269.564 49.8119 272.834 49.449Z" fill="#87E4FF"/>
<path d="M327.504 83.5887C327.033 80.3419 326.965 79.9456 326.691 80.0367C326.022 80.3714 263.39 86.4269 263.79 87.2286C264.278 90.5841 264.396 90.8796 264.642 90.7977C265.061 90.5881 327.7 84.078 327.504 83.5887ZM264.782 90.3261C264.596 89.3507 264.427 88.3722 264.275 87.391L326.587 80.526C326.762 81.4515 326.919 82.3776 327.058 83.3208C264.85 90.3346 264.847 90.3176 264.781 90.3261H264.782Z" fill="#87E4FF"/>
<path d="M328.683 89.733C328.212 86.4868 328.153 86.2529 327.88 86.344C327.205 86.6813 264.552 92.6975 264.962 93.5182C265.473 97.0342 265.513 97.0873 265.969 97.0873C266.19 97.0873 267.496 96.8495 328.596 89.995C328.662 89.995 328.7 89.8155 328.683 89.733ZM265.952 96.6484C265.76 95.6699 265.603 94.6913 265.445 93.7134L327.757 86.8483C327.932 87.7738 328.09 88.7 328.229 89.6432C327.549 89.6223 266.671 96.541 265.952 96.6484Z" fill="#87E4FF"/>
<path d="M284.051 26.1104C284.189 26.914 284.366 27.7 284.575 28.486C284.65 28.4703 284.726 28.4644 284.802 28.4684C285.346 28.4684 284.624 28.4088 284.243 24.3111C284.112 22.8773 284.121 21.7304 285.501 21.1671C286.775 20.791 288.105 20.6374 289.431 20.7132C290.957 20.8651 291.208 21.8922 291.58 23.3685C292.534 27.1571 292.067 27.7459 292.53 27.6915C292.585 27.6848 292.635 27.6568 292.67 27.6136C292.704 27.5704 292.721 27.5154 292.715 27.4603C292.578 26.1603 292.362 24.8697 292.069 23.5958C291.725 22.1149 291.454 20.8009 290.007 20.3994C288.578 20.2012 287.125 20.2842 285.727 20.6437C283.22 21.3832 283.61 23.5277 284.051 26.1104Z" fill="#414141"/>
<path d="M287.875 22.3057C287.231 22.3057 286.893 23.6157 287.753 23.7381C288.837 23.8842 288.767 22.3057 287.875 22.3057Z" fill="#414141"/>
<path d="M328.229 31.3158C328.172 31.0329 328.206 31.1193 307.072 33.1682C248.521 38.8365 248.589 38.4409 248.526 39.0127C248.526 39.4909 259.052 134.966 260.109 141.7C260.125 141.801 260.178 141.892 260.259 141.954C260.34 142.017 260.442 142.046 260.543 142.036C330.914 135.246 338.397 134.581 339.254 134.364C339.323 134.347 339.64 134.162 339.636 133.921C339.586 131.363 337.743 115.994 328.229 31.3158ZM339.268 133.947C260.486 141.548 260.549 141.529 260.484 141.546L248.989 39.1771L327.862 31.5608C337.86 120.572 339.295 133.947 339.268 133.947Z" fill="#414141"/>
<path d="M289.045 114.136C288.49 110.033 288.604 109.604 288.172 109.664C274.922 111.494 265.786 111.936 266.124 112.725C266.009 112.956 266.853 117.205 268.1 129.054C268.594 133.751 268.478 133.639 268.712 133.736C268.928 133.808 290.916 131.153 290.916 130.679C291.004 130.32 289.506 117.542 289.045 114.136ZM269.306 133.282C268.429 133.428 269.563 134.108 266.58 112.982C272.617 112.213 282.038 111.18 288.085 110.1C288.404 111.376 289.949 124.949 290.478 130.434C284.208 131.539 269.859 133.227 269.306 133.282V133.282Z" fill="#414141"/>
<path d="M291.771 106.712C291.707 106.678 291.634 106.664 291.562 106.674C291.49 106.683 291.422 106.715 291.369 106.765C290.333 107.93 279.423 122.67 279.121 123.081C276.43 122.154 273.745 121.247 271.064 120.285C270.671 120.144 270.525 120.755 270.819 120.932C274.206 123.27 277.762 126.132 279.851 127.867C280.453 128.368 280.685 127.736 291.87 107.184C291.901 107.149 291.924 107.107 291.937 107.062C291.949 107.016 291.95 106.969 291.941 106.923C291.931 106.877 291.911 106.834 291.881 106.797C291.852 106.76 291.814 106.731 291.771 106.712Z" fill="#FDAF31"/>
<path d="M250.843 33.8137C249.235 32.5836 247.971 30.9592 247.175 29.0977C248.407 25.7068 248.214 21.991 247.873 21.0275C247.526 20.045 246.357 20.2709 246.021 21.6039C245.551 23.6541 245.623 25.7916 246.231 27.8054C246.734 29.4324 246.809 28.8796 246.44 29.7442C245.052 33.0002 242.915 33.2111 241.777 32.1376C241.269 31.5928 240.856 30.967 240.554 30.2859C241.108 28.4846 242.48 22.2517 241.147 21.0445C238.875 18.9839 238.079 26.0225 240.082 30.3036C239.638 31.6791 239.07 33.4476 237.951 34.1812C235.914 35.5226 233.825 31.74 233.864 29.1501C233.864 29.0921 233.841 29.0365 233.8 28.9954C233.759 28.9544 233.703 28.9314 233.645 28.9314C233.587 28.9314 233.531 28.9544 233.49 28.9954C233.449 29.0365 233.426 29.0921 233.426 29.1501C233.426 33.3971 237.803 38.7878 240.361 30.8276C240.951 31.8101 241.575 32.938 242.912 33.0808C244.885 33.2917 246.213 31.4433 246.947 29.587C247.782 31.3725 249.041 32.9261 250.615 34.1118C250.858 34.3574 251.069 33.9866 250.843 33.8137ZM240.412 21.184C241.242 21.2738 241.216 22.3584 241.216 23.1051C241.222 25.3348 240.904 27.5526 240.272 29.6912C239.009 27.1648 239.133 21.0452 240.412 21.184ZM247.522 21.3229C247.923 23.7267 247.726 26.1935 246.945 28.503C245.106 23.6154 247.005 19.2491 247.522 21.3229Z" fill="#005BC3"/>
<path d="M250.492 103.097C248.302 102.322 246.909 99.9218 245.723 97.7335C245.925 96.1461 246.018 94.5468 246.003 92.9467C245.826 86.924 241.822 87.0642 242.771 91.6721C243.365 93.8079 244.209 95.866 245.287 97.8035C245.014 99.9079 244.6 101.991 244.047 104.04C244.03 104.095 244.037 104.155 244.065 104.206C244.093 104.257 244.139 104.294 244.195 104.311C244.251 104.327 244.31 104.32 244.361 104.293C244.412 104.265 244.45 104.218 244.466 104.162C244.981 102.291 245.372 100.387 245.636 98.4638C246.771 100.473 248.12 102.713 250.388 103.513C250.647 103.607 250.753 103.188 250.492 103.097ZM243.12 89.523C243.207 89.1038 243.47 88.6479 243.959 88.7894C246.208 89.4385 245.43 95.8719 245.357 97.0523C244.393 95.1731 242.695 91.5915 243.12 89.523Z" fill="#005BC3"/>
<path d="M335.129 42.1993C335.08 41.9189 334.66 42.0414 334.71 42.3218C335.113 44.6153 335.763 46.8586 336.648 49.0126C336.756 49.2746 337.141 49.046 337.033 48.7853C336.158 46.6665 335.52 44.4578 335.129 42.1993Z" fill="#87E4FF"/>
<path d="M342.763 42.1995C342.193 44.4547 341.663 46.7111 341.121 48.9604C341.11 49.0146 341.119 49.0711 341.147 49.1186C341.175 49.1662 341.221 49.2014 341.274 49.2172C341.327 49.2327 341.384 49.2274 341.434 49.2023C341.483 49.1773 341.521 49.1343 341.54 49.0822C342.1 46.8376 342.612 44.5771 343.182 42.322C343.253 42.0423 342.833 41.9205 342.763 42.1995Z" fill="#87E4FF"/>
<path d="M349.697 46.3741C348.274 47.7868 346.836 49.1842 345.382 50.5661C345.176 50.7626 345.49 51.0763 345.697 50.8805C347.151 49.505 348.588 48.0941 350.012 46.6885C350.033 46.668 350.049 46.6435 350.06 46.6165C350.071 46.5895 350.077 46.5605 350.077 46.5313C350.077 46.4724 350.053 46.4159 350.012 46.3741C349.97 46.3327 349.914 46.3092 349.855 46.3086C349.825 46.3086 349.797 46.3144 349.77 46.3257C349.743 46.3369 349.718 46.3534 349.697 46.3741Z" fill="#87E4FF"/>
<path d="M345.367 71.809C342.89 66.1439 347.439 58.6206 343.637 55.8925C343.183 55.5659 342.664 55.3407 342.115 55.2322C341.567 55.1237 341.001 55.1344 340.457 55.2637C338.843 52.7525 335.217 52.0215 332.299 54.0409C329.43 56.0255 328.756 59.5966 327.985 62.7576C326.663 68.1699 325.234 67.959 325.923 68.4699C327.974 69.9862 330.55 70.4584 332.997 70.8809C334.068 71.0656 335.07 69.6187 337.172 71.8588C338.198 72.9527 342.272 73.1472 345.19 72.3134C345.277 72.2658 345.342 72.188 345.375 72.0949C345.407 72.0019 345.404 71.9001 345.367 71.809Z" fill="#414141"/>
<path d="M343.197 63.581C342.97 62.795 342.062 62.5841 341.345 62.6726C341.206 62.6896 340.874 62.8121 340.769 62.7073C340.078 61.2564 339.829 59.6343 340.053 58.043C340.21 56.9498 331.578 57.5845 331.371 58.4098C331.371 59.0406 328.761 66.4585 332.454 68.5073C333.093 68.8617 333.187 68.5885 333.187 68.8387C333.164 69.4674 333.035 70.0876 332.803 70.6727C332.869 70.6727 332.598 70.7232 332.733 70.9694C334.351 73.9038 338.17 72.6266 338.254 71.686C338.307 71.3408 338.114 71.1456 338.114 70.0786C338.112 69.3783 338.194 68.6804 338.358 67.9997C338.496 67.6794 340.035 67.4704 340.891 65.4144C342.173 65.8722 343.53 64.7253 343.197 63.581Z" fill="white"/>
<path d="M332.613 62.1142C332.5 60.6522 333.779 60.5782 333.382 62.1666C333.367 62.2228 333.374 62.2828 333.403 62.3336C333.425 62.371 333.458 62.401 333.497 62.4195C333.536 62.4381 333.58 62.4444 333.623 62.4377C333.666 62.431 333.706 62.4116 333.738 62.3819C333.769 62.3523 333.791 62.3137 333.801 62.2714C334.134 61.4539 333.677 60.3064 332.858 60.647C332.261 60.8939 332.029 62.4299 332.456 62.3591C332.499 62.3335 332.536 62.2979 332.563 62.2554C332.591 62.2128 332.608 62.1645 332.613 62.1142Z" fill="#414141"/>
<path d="M336.647 62.2706C336.536 61.5501 337.14 60.7641 337.381 61.8344C337.512 62.4173 337.113 62.8057 337.468 62.8647C337.895 62.9865 338 61.6896 337.538 61.1178C336.567 59.9178 335.719 62.6276 336.49 62.5156C336.712 62.4835 336.622 62.2706 336.647 62.2706Z" fill="#414141"/>
<path d="M334.185 62.8496C334.745 62.8496 335.068 63.1437 335.111 62.7448C335.193 61.9949 335.228 61.2423 335.269 60.5093C335.284 60.2296 334.844 60.229 334.832 60.5093C334.802 61.1722 334.762 61.8193 334.71 62.4658C334.301 62.3892 333.511 62.3014 333.662 62.6924C333.921 63.3622 334.274 63.9916 334.71 64.5618C334.883 64.7897 335.251 64.5618 335.094 64.3345C334.719 63.8876 334.412 63.3871 334.185 62.8496Z" fill="#414141"/>
<path d="M334.448 66.9706C334.96 67.3669 335.78 66.8455 335.706 65.7301C335.706 65.6885 335.693 65.648 335.67 65.6135C335.647 65.579 335.614 65.5521 335.576 65.5362C335.551 65.5255 335.524 65.52 335.496 65.52C335.469 65.52 335.442 65.5255 335.416 65.5362C335.378 65.5517 335.345 65.5785 335.322 65.6131C335.298 65.6477 335.286 65.6885 335.287 65.7301C335.338 66.4506 334.907 66.704 334.972 66.6385C334.787 66.8239 334.413 66.1624 334.413 65.9397C334.413 66.0052 334.469 65.586 334.256 65.5552C333.569 65.3259 334.048 66.6608 334.448 66.9706Z" fill="#414141"/>
<path d="M333.176 68.9965C333.781 69.1452 336.038 69.4713 335.936 68.857C335.92 68.8029 335.884 68.7568 335.835 68.7278C335.787 68.6987 335.729 68.6887 335.674 68.6998C334.882 68.8194 334.074 68.7778 333.298 68.5773C332.983 68.5039 332.937 68.9965 333.176 68.9965Z" fill="#414141"/>
<path d="M341.051 64.4372C341.902 64.352 342.256 64.7516 342.308 64.3848C342.417 64.0042 341.399 63.944 341.033 64.0009C340.686 64.0546 340.828 64.4372 341.051 64.4372Z" fill="#414141"/>
<path d="M332.979 59.4234C332.614 59.4234 333.503 59.5688 333.503 59.0913C333.503 58.3544 331.505 58.9885 331.897 59.5105C332.182 59.9382 332.361 59.5007 332.979 59.4234Z" fill="#87E4FF"/>
<path d="M338.378 60.0876C338.461 60.1069 338.549 60.0942 338.623 60.0522C338.698 60.0101 338.754 59.9416 338.78 59.8603C338.875 59.3835 337.363 58.3702 337.225 59.0566C337.062 59.4247 337.431 59.3658 337.831 59.614C338.158 59.8171 338.179 60.0077 338.378 60.0876Z" fill="#87E4FF"/>
<path d="M350.833 84.7016C349.974 80.2436 348.831 74.815 345.471 72.176C344.662 71.5233 343.723 71.0516 342.716 70.7925C341.71 70.5334 340.66 70.493 339.636 70.6741C339.173 70.7815 338.717 70.9217 338.273 71.0933C338.081 71.2136 337.883 71.3242 337.68 71.4247C336.559 71.859 334.617 72.1177 333.399 71.4077C332.707 71.0035 332.763 70.7016 332.543 70.6564C325.877 69.2756 322.948 74.4842 319.948 80.055C312.135 72.8421 312.475 73.5561 310.148 71.4745C309.536 70.9276 306.164 72.4236 306.672 72.5926C308.262 76.3136 309.484 80.2967 312.035 83.5108C314.253 86.3063 317.711 88.4986 321.415 87.9648C326.57 87.2233 326.084 82.9134 325.731 87.8429C324.32 107.518 324.207 106.797 324.438 106.797C330.638 106.797 346.184 106.059 346.118 105.853C346.034 104.378 345.89 102.513 345.847 101.006C347.429 100.09 348.769 98.8088 349.755 97.2693C350.742 95.7299 351.345 93.977 351.517 92.1568C351.645 89.6518 351.415 87.1414 350.833 84.7016Z" fill="#005BC3"/>
<path d="M322.01 140.253C320.497 140.631 316.544 141.938 315.651 143.066C319.529 143.537 323.413 144.015 327.303 144.498C327.397 144.521 327.497 144.509 327.582 144.463C327.885 144.221 327.783 139.55 327.757 138.908L322.01 140.253Z" fill="white"/>
<path d="M344.704 140.707C346.374 141.345 349.914 143.092 350.661 144.306C346.748 144.289 342.835 144.245 338.922 144.237C338.21 144.237 339.081 139.329 339.201 138.628L344.704 140.707Z" fill="white"/>
<path d="M331.618 70.7783C332.633 73.8882 337.151 74.7443 339.898 71.1274C340.071 70.8994 339.688 70.6905 339.514 70.9001C337.12 74.1489 332.969 73.5044 332.019 70.6558C332.001 70.6053 331.963 70.5638 331.915 70.5399C331.867 70.516 331.812 70.5115 331.76 70.5274C331.709 70.5434 331.666 70.5781 331.64 70.6247C331.613 70.6713 331.605 70.7261 331.618 70.7783Z" fill="white"/>
<path d="M345.453 100.895C341.098 102.401 336.414 102.898 331.81 103.078C331.76 101.716 331.632 100.357 331.426 99.0083C333.581 98.6828 335.687 98.09 337.695 97.2438C339.835 96.4093 342.096 95.5951 343.548 93.6105C345.164 91.4005 345.738 86.9858 343.932 83.1305C343.809 82.8685 343.443 83.0951 343.548 83.3571C344.259 84.877 344.623 86.536 344.614 88.2139C344.583 93.9268 341.555 95.5715 335.771 97.5071C331.916 98.7981 330.859 98.3291 330.95 98.8871C331.573 102.716 331.157 103.311 331.491 103.394C331.664 103.74 340.565 103.082 345.554 101.316C345.817 101.222 345.714 100.805 345.453 100.895Z" fill="white"/>
<path d="M350.851 144.201C350.291 143.309 348.086 142.057 347.916 142.001C348.027 141.904 348.15 141.822 348.283 141.756C348.332 141.727 348.368 141.68 348.383 141.626C348.398 141.571 348.391 141.512 348.364 141.462C348.336 141.413 348.291 141.375 348.237 141.359C348.182 141.342 348.124 141.347 348.073 141.372C347.239 141.807 347.927 141.943 346.536 141.284C346.606 141.181 346.682 141.082 346.763 140.987C346.791 140.956 346.809 140.917 346.816 140.875C346.822 140.833 346.817 140.79 346.8 140.751C346.784 140.713 346.756 140.679 346.721 140.655C346.686 140.632 346.645 140.618 346.603 140.617C346.546 140.615 346.491 140.635 346.449 140.673C345.946 141.175 346.419 141.173 344.981 140.585C345.169 140.323 345.907 112.67 345.907 105.962C341.623 106.079 330.061 106.907 324.717 106.8L321.642 140.131C319.752 140.59 320.405 140.763 319.756 140.114C319.556 139.914 319.242 140.228 319.442 140.428C319.529 140.533 319.616 140.621 319.704 140.725C319.378 140.832 319.057 140.955 318.743 141.092C318.481 140.792 318.258 140.459 318.044 140.673C317.863 140.899 318.092 141.01 318.306 141.267C318.493 141.267 316.31 141.933 315.441 142.926C315.412 142.957 315.393 142.996 315.386 143.037C315.378 143.079 315.383 143.122 315.4 143.161C315.417 143.2 315.444 143.233 315.479 143.256C315.515 143.28 315.556 143.293 315.598 143.293C327.73 144.597 327.519 144.851 327.739 144.534C327.865 144.35 327.832 144.248 327.896 142.962C328.085 139.203 327.137 142.736 335.268 114.277C336.877 121.259 337.571 127.97 338.133 135.066C338.83 143.852 338.388 140.81 338.343 143.869C338.33 144.716 338.319 144.459 350.641 144.516C350.68 144.52 350.719 144.514 350.755 144.497C350.79 144.481 350.82 144.455 350.842 144.422C350.863 144.39 350.876 144.352 350.877 144.313C350.879 144.274 350.87 144.236 350.851 144.201ZM327.407 144.272C327.321 144.315 316.213 142.918 316.141 142.909C316.924 142.373 317.769 141.933 318.657 141.599C318.946 142.012 319.023 142.43 319.286 142.263C319.527 142.111 319.233 141.685 319.058 141.46C319.373 141.337 319.705 141.215 320.019 141.093C320.182 141.339 320.328 141.596 320.456 141.861C320.566 142.097 320.939 141.931 320.84 141.635C320.726 141.399 320.598 141.172 320.456 140.953C322.703 140.232 321.052 140.611 327.583 141.337C327.516 141.867 327.507 144.222 327.407 144.272ZM339.618 144.027C339.35 144.036 339.082 144.03 338.815 144.01C338.749 143.944 339.026 141.381 339.042 141.267C345.377 141.054 343.583 140.402 345.89 141.459C345.82 141.581 345.733 141.703 345.68 141.808C345.663 141.832 345.651 141.859 345.645 141.888C345.639 141.917 345.639 141.947 345.645 141.976C345.651 142.005 345.663 142.032 345.679 142.056C345.696 142.081 345.718 142.101 345.743 142.117C345.768 142.132 345.796 142.142 345.825 142.147C345.854 142.151 345.884 142.149 345.913 142.142C345.941 142.134 345.968 142.121 345.991 142.102C346.014 142.084 346.033 142.061 346.047 142.035C346.116 141.896 346.204 141.773 346.291 141.634C346.606 141.773 346.903 141.931 347.218 142.105C347.069 142.291 346.829 142.564 347.095 142.7C347.396 142.85 347.459 142.402 347.532 142.402C347.532 142.092 349.753 143.581 350.24 144.097C346.03 144.063 342.158 144.027 339.618 144.027Z" fill="#414141"/>
<path d="M331.217 94.397C330.277 77.0395 330.25 76.338 329.592 74.9887C328.688 73.1351 326.675 72 324.648 71.6351C322.604 71.2664 314.516 71.8971 312.472 72.1762C309.537 72.2639 304.44 72.6641 301.589 73.3643C298.04 74.2355 297.336 75.6843 297.588 79.1807C297.922 83.8109 297.857 91.7574 298.427 96.3712C298.943 100.546 300.137 101.393 303.405 101.926C310.199 103.034 315.199 102.101 323.966 101.052C330.556 100.266 331.442 98.5674 331.217 94.397Z" fill="white"/>
<path d="M331.461 94.7814C331.389 93.1674 330.593 77.8503 330.238 76.2449C328.666 69.142 318.883 71.6599 311.616 71.9998C308.92 72.1243 301.86 72.6076 299.44 73.8862C298.753 74.2351 298.187 74.7829 297.815 75.4582C295.178 77.1992 296.167 80.1022 296.365 86.4622C296.713 97.5848 296.648 101.536 299.754 102.903C304.984 105.199 318.453 103.23 323.949 102.501C326.088 102.218 328.549 101.7 329.627 99.7404C331.318 98.5476 331.556 96.9101 331.461 94.7814ZM330.639 97.8559C329.435 100.476 325.688 100.613 322.464 101C316.489 101.717 312.204 102.31 308.139 102.153C297.187 101.735 298.726 100.758 297.938 81.5746C297.722 76.3346 296.965 74.4508 302.514 73.3465C306.626 72.5284 320.199 71.7915 320.63 71.7745C323.545 71.6605 326.375 71.523 328.561 73.8705C330.009 75.4268 330.279 75.8925 331.024 94.6936C331.144 95.7633 331.013 96.8463 330.639 97.8559Z" fill="#414141"/>
<path d="M321.521 86.9025C321.745 86.7824 321.934 86.6061 322.069 86.3908C322.204 86.1756 322.281 85.9289 322.292 85.675C322.303 85.4209 322.247 85.1686 322.13 84.9428C322.013 84.717 321.839 84.5255 321.626 84.3873C320.284 83.3085 317.728 83.5842 315.424 83.898C315.36 82.1236 314.987 80.374 314.323 78.7274C313.428 76.9111 312.138 76.934 311.738 77.889C311.38 78.7405 311.841 79.9575 311.615 81.1208C311.228 83.1166 309.873 85.0632 307.877 84.9637C307.598 84.9499 307.598 85.3868 307.877 85.4005C310.252 85.5184 311.838 83.0425 312.069 80.9282C312.226 79.4918 311.733 78.392 312.244 77.8366C312.712 77.327 313.398 78.0986 313.641 78.4654C313.991 79.0246 314.245 79.6385 314.393 80.2817C315.313 83.8187 314.663 84.4292 315.231 84.3525C316.603 84.1665 318.699 83.9065 320.052 84.1953C321.771 84.5615 322.056 85.5558 321.694 86.1341C321.486 86.3988 321.216 86.6084 320.908 86.7453C320.873 86.7687 320.846 86.8015 320.828 86.8399C320.811 86.8784 320.805 86.9209 320.81 86.9627C320.816 87.0045 320.833 87.0439 320.859 87.0765C320.886 87.1091 320.921 87.1337 320.961 87.1474C321.236 87.2171 321.477 87.3813 321.644 87.6112C321.81 87.8411 321.89 88.1221 321.869 88.405C321.822 89.0869 321.117 89.4864 320.576 89.7851C320.549 89.8019 320.526 89.8244 320.508 89.851C320.49 89.8777 320.478 89.9078 320.473 89.9395C320.468 89.9711 320.47 90.0035 320.478 90.0344C320.487 90.0653 320.502 90.094 320.523 90.1185C320.551 90.1513 320.588 90.1755 320.629 90.1873C321.585 90.3622 321.581 91.9558 320.07 92.1785C319.843 92.2119 319.878 92.5453 320.07 92.5977C320.627 92.7831 320.632 93.7112 319.686 94.0826C318.68 94.4756 313.008 95.0094 308.296 94.7461C308.016 94.731 308.016 95.1672 308.296 95.183C311.951 95.3669 315.616 95.1798 319.234 94.6243C320.839 94.3125 321.208 93.0896 320.631 92.4405C321.916 91.927 322.021 90.5469 321.155 89.9076C322.754 88.9932 322.554 87.4939 321.521 86.9025Z" fill="#414141"/>
<path d="M308.804 95.0956C308.249 83.5676 308.476 83.601 307.79 83.601C307.132 83.5663 304.433 83.6515 304.034 83.9501C303.944 84.0281 303.877 84.1305 303.843 84.2451C303.809 84.3597 303.809 84.4817 303.842 84.5966C303.842 84.6621 304.588 95.8148 304.593 95.8816C304.667 96.7744 305.648 96.5419 307.091 96.458C308.443 96.3794 308.876 96.5989 308.804 95.0956Z" fill="#005BC3"/>
<path d="M317.101 66.7087C316.926 66.7434 316.735 66.7958 316.56 66.8305C316.521 66.3548 316.451 65.8822 316.35 65.4157C316.292 65.1373 315.865 65.2579 315.931 65.5382C316.038 66.0032 316.108 66.4768 316.14 66.953C315.808 67.0401 315.477 67.1102 315.127 67.1973C314.848 67.2674 314.969 67.6846 315.25 67.6165C315.546 67.5451 315.861 67.477 316.158 67.3899C316.175 67.7914 316.162 68.1936 316.14 68.5951C316.125 68.8748 316.557 68.8741 316.577 68.5951C316.688 67.0368 316.306 67.3643 317.224 67.1279C317.486 67.0598 317.363 66.6386 317.101 66.7087Z" fill="#005BC3"/>
<path d="M299.196 67.0056C298.85 67.0056 298.969 67.0986 298.916 66.3421C298.897 66.0624 298.458 66.0624 298.479 66.3421C298.496 66.5687 298.497 66.7783 298.515 67.0056C298.109 67.0056 297.663 66.9401 297.711 67.2152C297.711 67.508 298.082 67.4248 298.532 67.4248C298.549 67.7739 298.565 68.1237 298.584 68.4728C298.6 68.7525 299.037 68.7525 299.021 68.4728C299.001 68.1237 298.986 67.7739 298.969 67.4248H299.178C299.234 67.4271 299.288 67.4073 299.329 67.3697C299.37 67.332 299.394 67.2796 299.397 67.224C299.399 67.1685 299.379 67.1142 299.342 67.0732C299.304 67.0323 299.252 67.0079 299.196 67.0056Z" fill="#005BC3"/>
<path d="M303.771 106.503C302.999 106.569 303.182 106.824 303.108 105.542C303.092 105.263 302.656 105.263 302.671 105.542C302.691 105.909 302.706 106.258 302.723 106.625C302.186 106.708 301.815 106.655 301.815 106.922C301.815 107.027 301.92 107.148 302.025 107.132C302.269 107.094 302.514 107.08 302.741 107.044C302.759 107.411 302.773 107.778 302.794 108.162C302.809 108.442 303.245 108.442 303.23 108.162C303.209 107.778 303.195 107.394 303.178 107.009C303.37 106.992 303.58 106.962 303.771 106.939C304.103 106.901 303.999 106.473 303.771 106.503Z" fill="#005BC3"/>
<path d="M295.09 96.9296C294.98 96.9296 295.047 96.9381 294.88 96.0211C294.83 95.7414 294.409 95.8639 294.461 96.1436C294.513 96.4232 294.549 96.7029 294.583 96.9649C294.19 96.9905 293.565 96.9649 293.605 97.244C293.605 97.5557 293.937 97.4274 294.636 97.3841C294.67 97.7555 294.681 98.1289 294.671 98.5022C294.674 98.5581 294.698 98.6107 294.739 98.6491C294.779 98.6876 294.833 98.709 294.889 98.709C294.945 98.709 294.999 98.6876 295.039 98.6491C295.08 98.6107 295.104 98.5581 295.107 98.5022C295.107 97.3081 295.007 97.3488 295.073 97.3488C295.386 97.297 295.34 96.9296 295.09 96.9296Z" fill="#005BC3"/>
<path d="M311.197 72.5441C310.891 71.85 310.549 71.1723 310.173 70.5136C310.124 70.3872 310.032 70.2823 309.912 70.2176C309.793 70.1528 309.655 70.1324 309.522 70.1599C309.39 70.1873 309.271 70.261 309.187 70.3677C309.104 70.4745 309.061 70.6074 309.066 70.7428C308.904 70.3662 308.302 70.4317 308.083 70.8856C307.091 70.4271 306.726 70.8856 306.66 71.1103C306.452 71.1376 306.257 71.2201 306.092 71.3492C305.928 71.4783 305.802 71.6491 305.726 71.8439C305.521 72.5051 305.479 73.2064 305.604 73.8875C305.675 74.8392 306.466 75.206 306.582 74.6034C306.722 73.837 306.781 73.0589 306.756 72.2807C306.946 73.0366 307.765 74.5516 308.259 74.5516C308.831 74.5516 308.67 73.3307 308.573 72.9443C308.788 73.3104 309.739 74.5922 310.075 74.3944C310.35 74.232 310.233 73.2934 310.233 73.2934C310.395 73.4591 310.57 73.6111 310.757 73.7479C311.158 74.1462 311.958 74.2038 311.197 72.5441Z" fill="white"/>
<path d="M331.024 98.9039C328.498 98.4454 326.994 96.8446 326.901 97.4013C326.806 98.2633 328.135 98.8096 328.352 99.6028C324.019 98.8744 323.894 98.7873 323.949 99.0087C323.949 99.7128 326.373 100.57 327.303 100.738C324.885 100.886 324.061 100.208 323.233 100.598C322.962 100.726 323.023 100.931 323.268 101.105C324.228 101.788 325.626 101.664 326.797 101.787C325.852 101.771 324.738 101.776 323.748 101.771C323.371 101.771 323.04 101.76 323.739 102.278C323.948 102.417 324.188 102.5 324.438 102.52C327.604 102.975 328.474 102.368 324.526 103.498C323.427 103.813 323.928 105.019 331.583 103.149L331.024 98.9039Z" fill="white"/>
<path d="M308.926 70.3419C308.756 70.2728 308.568 70.2646 308.392 70.3187C308.217 70.3727 308.066 70.4858 307.965 70.6386C307.154 70.2953 306.786 70.5161 306.515 70.9183C305.411 71.0951 305.238 72.2656 305.31 73.3817C305.261 73.9332 305.424 74.4825 305.764 74.919C305.852 75.0054 305.962 75.0658 306.083 75.0936C306.203 75.1213 306.328 75.1153 306.445 75.0762C306.824 74.9079 306.88 73.8127 306.899 73.3987C308.046 75.405 308.882 74.917 308.839 73.7832C309.078 74.0911 309.368 74.3563 309.695 74.5692C310.136 74.7703 310.388 74.3603 310.463 73.8356C311.041 74.4133 311.601 74.1572 311.651 73.6607C311.722 72.9625 310.618 70.7997 310.279 70.2338C309.84 69.5015 309.041 70.1113 308.926 70.3419ZM306.411 74.15C306.149 76.1262 305.004 72.0501 306.393 71.4252C306.351 72.0534 306.685 72.1012 306.411 74.15ZM308.297 74.3249C307.69 74.7179 305.648 69.9783 307.808 71.0584C307.737 71.7744 307.936 72.491 308.367 73.0673C308.405 73.7158 308.539 74.1684 308.297 74.3249ZM308.332 70.9189C308.471 70.7362 308.856 70.63 308.856 71.0237C309.15 72.6226 309.996 73.0352 310.067 73.6483C310.278 75.4646 307.632 71.8392 308.332 70.9183V70.9189ZM309.31 70.6045C309.387 70.3942 309.781 70.2718 309.852 70.3425C313.565 77.26 308.739 71.7462 309.31 70.6038V70.6045Z" fill="#414141"/>
<path d="M331.496 102.922C329.352 103.559 327.13 103.895 324.893 103.917C323.284 103.917 325.452 103.44 327.164 102.939C327.214 102.924 327.258 102.892 327.286 102.848C327.315 102.804 327.328 102.751 327.321 102.699C327.315 102.647 327.291 102.598 327.252 102.563C327.214 102.527 327.164 102.505 327.112 102.503C326.383 102.468 324.157 102.43 323.688 101.961H326.762C326.791 101.961 326.819 101.955 326.846 101.944C326.872 101.933 326.896 101.917 326.916 101.897C326.937 101.877 326.953 101.853 326.964 101.826C326.975 101.8 326.981 101.771 326.981 101.742C326.981 101.714 326.975 101.685 326.964 101.659C326.953 101.632 326.937 101.608 326.916 101.588C326.875 101.547 326.82 101.525 326.762 101.525C326.168 101.453 325.574 101.459 324.998 101.402C323.78 101.286 323.164 100.866 323.338 100.756C323.781 100.476 325.164 101.106 327.268 100.948C327.495 100.931 327.583 100.561 327.32 100.511C326.168 100.33 325.083 99.8481 324.176 99.1135C324.242 99.1266 328.172 99.7849 328.247 99.7947C328.284 99.806 328.323 99.807 328.359 99.7978C328.396 99.7887 328.43 99.7696 328.457 99.7426C328.484 99.7157 328.503 99.6819 328.512 99.6449C328.522 99.6079 328.521 99.5692 328.509 99.5327C328.329 99.1046 328.047 98.7269 327.688 98.4323C326.962 97.7066 327.104 97.6044 327.059 97.5586C328.254 98.2725 329.55 98.8024 330.903 99.1306C331.182 99.1823 331.287 98.7598 331.025 98.7114C329.267 98.3839 327.286 97.1171 327.077 97.0693C326.602 96.9599 326.388 97.7086 327.112 98.4664C327.358 98.7245 327.563 98.9007 327.915 99.3225C326.914 99.1515 324.854 98.8214 324.334 98.7284C323.508 98.5221 323.046 99.4181 325.487 100.475C326.033 100.748 324.247 100.171 323.408 100.318C323.111 100.37 322.691 100.545 322.797 100.93C322.894 101.282 323.499 101.559 323.565 101.559C323.343 101.559 323.041 101.563 323.041 101.873C323.041 102.079 323.469 102.472 323.652 102.572C324.328 102.774 325.027 102.885 325.731 102.903C324.255 103.325 323.97 103.395 323.845 103.672C323.096 105.329 330.102 103.715 331.549 103.358C331.882 103.276 331.759 102.855 331.496 102.922Z" fill="#414141"/>
</g>
<rect x="0.744521" y="0.744521" width="373.511" height="143.511" rx="10.2555" stroke="url(#paint1_linear_2022_2333)" stroke-opacity="0.08" stroke-width="0.510959"/>
<defs>
<linearGradient id="paint0_linear_2022_2333" x1="42.6629" y1="15.8085" x2="213.928" y2="76.5442" gradientUnits="userSpaceOnUse">
<stop stop-color="#003F88"/>
<stop offset="0.64989" stop-color="#03BCFF"/>
<stop offset="1" stop-color="#0076FF"/>
</linearGradient>
<linearGradient id="paint1_linear_2022_2333" x1="47.195" y1="20.571" x2="387.35" y2="83.6903" gradientUnits="userSpaceOnUse">
<stop stop-color="#003F88"/>
<stop offset="0.64989" stop-color="#02D4FF"/>
<stop offset="1" stop-color="#0076FF"/>
</linearGradient>
<clipPath id="clip0_2022_2333">
<rect x="1" y="1" width="373" height="143" rx="10" fill="white"/>
</clipPath>
</defs>
</svg>
