<svg width="371" height="89" viewBox="0 0 371 89" fill="none" xmlns="http://www.w3.org/2000/svg">
<g clip-path="url(#clip0_1453_104608)">
<rect x="1" y="1" width="369" height="87" rx="10" fill="#E3F0FF"/>
<path d="M377.084 95C296.33 92.8622 277.805 89.9437 273.923 85.0076C270.513 79.8432 270.514 79.8432 310.026 51.175C327.936 38.1921 356.262 17.6307 365.471 8.8393C342.309 5.10436 318.976 2.55099 295.561 1.18883C294.632 1.38862 293.664 1.28473 292.796 0.892062C291.928 0.499392 291.206 -0.161891 290.731 -0.997006C290.318 -1.71037 290.1 -2.52271 290.1 -3.35016C290.099 -4.1776 290.317 -4.99015 290.729 -5.70386C291.142 -6.41756 291.735 -7.00657 292.447 -7.41003C293.159 -7.81349 293.964 -8.01678 294.78 -7.99892C295.963 -7.99892 374.894 -4.51598 376.953 5.8848C377.699 11.8178 370.502 18.5795 315.258 58.6453C304.605 66.3318 293.075 74.7389 286.458 79.9033C307.706 82.9538 367.507 85.1517 377.344 85.8242C378.488 85.939 379.546 86.4879 380.308 87.3609C381.07 88.2339 381.478 89.3666 381.452 90.5322C381.411 91.6979 380.939 92.8052 380.129 93.6332C379.32 94.4613 378.232 94.9494 377.084 95Z" fill="#C8E2FF"/>
<path d="M289.329 4.61798L280.078 27.8447L301.194 36.2545L310.444 13.0278L289.329 4.61798Z" fill="white"/>
<path d="M310.459 12.9121L289.343 4.5047C289.309 4.49121 289.271 4.5077 289.255 4.54218L280.005 27.769C279.991 27.8035 280.008 27.8425 280.042 27.8575L301.158 36.2664C301.166 36.2694 301.175 36.2709 301.184 36.2709C301.193 36.2709 301.202 36.2694 301.211 36.2649C301.227 36.2574 301.241 36.2439 301.247 36.2289L310.497 13.0006C310.503 12.9841 310.503 12.9661 310.495 12.9496C310.488 12.9316 310.474 12.9181 310.459 12.9121ZM301.146 36.115L280.156 27.7555L289.357 4.65462L310.347 13.0126L301.146 36.115Z" fill="#000100"/>
<path d="M296.773 23.2818L301.855 25.3042L302.171 24.5141L297.089 22.4902L296.773 23.2818Z" fill="black"/>
<path d="M287.07 19.419L295.517 22.7816L295.833 21.9916L287.387 18.6289L287.07 19.419Z" fill="black"/>
<path d="M291.094 24.6895L298.896 27.7958L299.212 27.0057L291.41 23.8994L291.094 24.6895Z" fill="black"/>
<path d="M285.811 22.5865L289.828 24.1861L290.145 23.3961L286.127 21.7949L285.811 22.5865Z" fill="black"/>
<path d="M284.551 25.7539L292.482 28.9112L292.798 28.1211L284.867 24.9639L284.551 25.7539Z" fill="black"/>
<path d="M300.596 13.794L305.641 15.8029L305.957 15.0128L300.911 13.0039L300.596 13.794Z" fill="black"/>
<path d="M290.859 9.91702L299.306 13.2812L299.622 12.4896L291.176 9.12695L290.859 9.91702Z" fill="black"/>
<path d="M293.965 14.8242L304.38 18.971L304.696 18.1794L294.281 14.0342L293.965 14.8242Z" fill="black"/>
<path d="M289.6 13.0845L292.766 14.3453L293.082 13.5538L289.916 12.293L289.6 13.0845Z" fill="black"/>
<path d="M288.335 16.252L298.894 20.4572L299.21 19.6656L288.651 15.4619L288.335 16.252Z" fill="black"/>
<path d="M329.518 5.52162C328.987 5.52162 328.456 5.67904 327.942 5.98937C327.686 5.13933 326.618 2.89355 322.551 2.89355C321.49 2.89355 320.283 3.04797 318.964 3.35081C313.405 4.62961 312.085 4.25931 312.078 4.25931C312.001 4.23082 311.913 4.24882 311.853 4.30429C311.79 4.35976 311.765 4.44221 311.79 4.52167C311.815 4.59963 312.309 6.12729 313.98 6.96683C313.279 7.06128 312.412 7.32514 311.764 8.00127C311.102 8.69689 310.801 9.69385 310.874 10.9652C311.024 13.5857 312.037 14.875 312.853 15.9125C313.397 16.6036 313.827 17.1523 313.842 17.9019C313.854 18.4776 313.514 19.0967 313.151 19.7534C312.354 21.2061 311.357 23.0156 314.136 25.056C317.91 27.828 321.395 29.2342 324.488 29.2342C327.716 29.2342 330.417 27.672 332.515 24.5957C335.799 19.7774 335.474 12.6322 333.258 8.505C332.231 6.58155 330.902 5.52162 329.518 5.52162Z" fill="#000100"/>
<path d="M331.98 17.166C331.926 17.166 331.875 17.1675 331.83 17.172L332.507 22.0728C333.01 21.5511 333.912 20.2993 333.536 18.3084C333.36 17.3654 332.593 17.166 331.98 17.166Z" fill="white"/>
<path d="M331.972 16.9365C331.729 16.9365 331.563 16.968 331.563 16.968L332.335 22.536C332.335 22.536 334.3 21.1237 333.759 18.2633C333.539 17.1104 332.543 16.9365 331.972 16.9365ZM332.662 21.5315L332.089 17.3983C332.783 17.4298 333.191 17.7491 333.303 18.3488C333.591 19.8674 333.104 20.9228 332.662 21.5315Z" fill="black"/>
<path d="M332.014 35.0477C331.04 34.5905 329.235 34.3281 327.069 34.3281C323.796 34.3281 320.466 34.9218 318.375 35.8768C314.66 37.5754 315.273 40.9695 316.579 46.3696C316.988 48.0636 317.888 50.0201 318.926 52.2823C320.976 56.7424 323.528 62.2924 323.671 68.9263C323.848 77.0444 323.525 84.4953 323.394 86.849H343.491C343.696 82.9211 343.895 55.5101 336.872 41.2439C335.395 38.244 333.4 35.6969 332.014 35.0477Z" fill="#22CAFF"/>
<path d="M332.078 34.9114C331.085 34.4451 329.259 34.1768 327.069 34.1768C323.778 34.1768 320.422 34.7749 318.312 35.7389C314.492 37.4855 315.108 40.9291 316.432 46.4041C316.844 48.1087 317.744 50.0666 318.792 52.3484C320.835 56.7949 323.379 62.3284 323.522 68.9293C323.718 77.9349 323.294 85.9555 323.244 86.8416C323.241 86.882 323.257 86.9225 323.285 86.9525C323.314 86.9825 323.352 86.999 323.393 86.999H343.489C343.569 86.999 343.635 86.936 343.639 86.8566C343.941 81.0787 343.708 54.7935 337.006 41.1764C335.515 38.1496 333.487 35.5725 332.078 34.9114ZM343.35 86.7006H323.553C323.63 85.2629 324.011 77.5436 323.822 68.9248C323.678 62.261 321.12 56.696 319.057 52.2089C318.024 49.9572 317.131 48.0112 316.725 46.3351C315.437 41.01 314.83 37.6624 318.437 36.0133C320.509 35.0658 323.816 34.4781 327.067 34.4781C329.216 34.4781 330.994 34.7345 331.95 35.1827C333.303 35.8169 335.273 38.337 336.737 41.3099C343.361 54.762 343.639 80.6619 343.35 86.7006Z" fill="#000100"/>
<path d="M314.791 20.8244C314.867 22.8708 316.025 23.8858 316.629 24.28L316.205 19.3447C315.746 19.4137 314.749 19.6985 314.791 20.8244Z" fill="white"/>
<path d="M314.553 20.8329C314.662 23.7428 316.892 24.6903 316.892 24.6903L316.406 19.0908C316.406 19.0908 314.49 19.1628 314.553 20.8329ZM315.016 20.8164C314.985 20.0353 315.56 19.7355 315.987 19.62L316.347 23.7818C315.779 23.284 315.075 22.359 315.016 20.8164Z" fill="black"/>
<path d="M329.223 29.7256L321.393 30.712C321.413 31.2428 321.413 32.6805 321.047 34.3611C321.753 34.5919 324.236 35.361 326.063 35.361C326.255 35.361 326.438 35.352 326.612 35.334C327.673 35.2216 328.634 34.7748 329.541 33.9653C329.471 33.3986 329.175 31.0224 329.223 29.7256Z" fill="white"/>
<path d="M329.376 29.7325C329.378 29.689 329.359 29.6455 329.328 29.6155C329.297 29.5856 329.25 29.5736 329.208 29.5781L321.378 30.5645C321.301 30.5735 321.244 30.641 321.247 30.7174C321.262 31.1267 321.279 32.5989 320.903 34.329C320.886 34.4039 320.93 34.4804 321.002 34.5044C321.724 34.7398 324.225 35.5103 326.064 35.5103C326.261 35.5103 326.45 35.5013 326.629 35.4833C327.725 35.3679 328.71 34.9092 329.644 34.0771C329.68 34.0441 329.7 33.9947 329.694 33.9467C329.632 33.4699 329.328 31.0293 329.376 29.7325ZM329.388 33.9062C328.52 34.6618 327.607 35.0801 326.601 35.1865C324.89 35.3529 322.162 34.5614 321.225 34.2615C321.549 32.7114 321.562 31.3816 321.552 30.8464L329.075 29.8989C329.054 31.1597 329.295 33.1806 329.388 33.9062Z" fill="#000100"/>
<path d="M332.358 22.5385C332.186 20.1488 331.492 15.6692 331.034 13.5554C330.357 10.4326 328.283 9.77743 326.661 9.77743C325.894 9.77743 325.33 9.93185 325.324 9.93335L325.264 9.94984L325.204 9.93485C324.453 9.74296 323.702 9.64551 322.975 9.64551C319.182 9.64551 316.773 12.2526 316.599 13.5914C316.377 15.2719 316.419 20.2972 316.849 22.4785C316.941 22.9403 317.017 23.4635 317.101 24.0257C317.438 26.3509 317.863 29.2428 319.779 30.9609C320.243 31.3777 320.94 31.4032 321.677 31.4301C322.717 31.4676 323.892 31.5126 324.456 32.7734C327.729 32.592 330.024 31.619 331.672 29.7106C332.857 28.3358 332.624 25.6508 332.438 23.4905C332.406 23.1576 332.379 22.8398 332.358 22.5385Z" fill="white"/>
<path d="M331.261 13.5059C330.529 10.1312 328.192 9.54502 326.661 9.54502C325.847 9.54502 325.261 9.70992 325.261 9.70992C324.456 9.50454 323.693 9.41309 322.975 9.41309C319.086 9.41309 316.561 12.0786 316.368 13.5583C316.138 15.3124 316.189 20.3331 316.623 22.5189C317.092 24.8877 317.17 28.928 319.623 31.1288C320.888 32.2636 323.484 30.8304 324.303 33.0072C327.279 32.8678 329.911 32.0987 331.847 29.8559C333.283 28.1934 332.757 24.8277 332.589 22.5189C332.421 20.2117 331.742 15.7321 331.261 13.5059ZM331.495 29.5606C329.916 31.3866 327.72 32.3356 324.597 32.532C323.952 31.2832 322.7 31.2367 321.683 31.2007C320.99 31.1752 320.333 31.1497 319.931 30.7899C318.078 29.1258 317.66 26.2789 317.327 23.9911C317.246 23.4304 317.168 22.9027 317.076 22.4335C316.648 20.2732 316.608 15.2869 316.827 13.6183C316.992 12.347 319.314 9.87334 322.975 9.87334C323.685 9.87334 324.414 9.96778 325.147 10.1552L325.267 10.1852L325.387 10.1537C325.393 10.1522 325.93 10.0068 326.661 10.0068C328.198 10.0068 330.165 10.6304 330.808 13.6033C331.265 15.7142 331.956 20.1772 332.129 22.5549C332.15 22.8578 332.177 23.1756 332.207 23.5069C332.388 25.6238 332.619 28.2593 331.495 29.5606Z" fill="black"/>
<path d="M332.48 21.4332C331.759 21.883 330.872 22.1558 329.8 22.1558C328.481 22.1558 327.729 21.5996 326.713 21.4407C325.358 21.2323 324.044 21.5771 323.164 22.2038C322.049 22.9984 321.036 23.7929 319.243 23.7929C318.258 23.7929 317.424 23.5606 316.736 23.1738C317.123 25.577 317.384 29.1225 319.623 31.1329C320.889 32.2678 323.485 30.8346 324.304 33.0114C327.28 32.872 329.912 32.1029 331.849 29.8601C333.284 28.1975 332.756 24.8319 332.59 22.5231C332.567 22.2248 332.53 21.8515 332.48 21.4332ZM328.4 24.7509C327.725 25.1692 327.013 25.535 326.253 25.7718C325.502 26.0102 324.694 26.0972 323.91 26.0792C323.323 26.0627 322.892 25.6174 322.865 25.0462C322.841 24.4975 323.362 23.9998 323.91 24.0133C324.098 24.0178 324.287 24.0178 324.478 24.0088C324.562 24.0058 324.644 23.9998 324.731 23.9923C324.752 23.9908 324.811 23.9833 324.857 23.9788C324.909 23.9713 324.98 23.9593 325.004 23.9548C325.083 23.9398 325.161 23.9234 325.238 23.9069C325.394 23.8724 325.548 23.8304 325.699 23.7824C325.849 23.736 325.993 23.6745 326.139 23.6235C326.163 23.6145 326.185 23.604 326.209 23.5935C326.283 23.5591 326.358 23.5231 326.431 23.4856C326.746 23.3297 327.047 23.1543 327.344 22.9684C327.84 22.661 328.475 22.8814 328.773 23.3402C329.086 23.8154 328.861 24.4646 328.4 24.7509Z" fill="#000100"/>
<path d="M327.503 23.0244C326.136 24.5851 324.217 24.6765 324.196 24.6765C324.077 24.681 323.981 24.7814 323.987 24.8999C323.992 25.0153 324.089 25.1053 324.208 25.1053H324.214C324.301 25.1023 326.343 25.0033 327.831 23.3047C327.911 23.2148 327.9 23.0784 327.81 23.0019C327.72 22.9255 327.582 22.9345 327.503 23.0244Z" fill="#000100"/>
<path d="M322.367 15.9484L317.392 16.5271C317.137 16.5571 316.907 16.692 316.761 16.9004C316.614 17.1088 316.565 17.3696 316.625 17.617L316.913 18.7968C317.116 19.6274 317.858 20.2061 318.722 20.2061C318.795 20.2061 318.869 20.2031 318.941 20.1941L321.717 19.8703C322.651 19.7608 323.359 18.9767 323.362 18.0443L323.367 16.8314C323.367 16.593 323.274 16.3697 323.104 16.2003C322.911 16.0084 322.647 15.9139 322.367 15.9484ZM322.929 18.0458C322.929 18.7609 322.385 19.3635 321.666 19.4475L318.89 19.7713C318.166 19.8568 317.502 19.389 317.334 18.6964L317.045 17.5165C317.012 17.3876 317.038 17.2572 317.116 17.1462C317.193 17.0368 317.308 16.9678 317.442 16.9528L322.416 16.3742C322.434 16.3727 322.454 16.3712 322.472 16.3712C322.593 16.3712 322.71 16.4191 322.798 16.5061C322.887 16.5931 322.935 16.71 322.935 16.8344L322.929 18.0458Z" fill="#000100"/>
<path d="M330.232 15.0299L325.258 15.6101C325.003 15.6401 324.774 15.7765 324.627 15.9834C324.48 16.1918 324.432 16.4541 324.49 16.7L324.778 17.8798C324.982 18.7104 325.726 19.2906 326.588 19.2906C326.66 19.2906 326.734 19.2861 326.808 19.2771L329.581 18.9533C330.518 18.8453 331.226 18.0612 331.229 17.1288L331.234 15.9144C331.235 15.6775 331.141 15.4527 330.973 15.2863C330.776 15.0914 330.508 14.9969 330.232 15.0299ZM330.796 17.1258C330.793 17.8439 330.25 18.445 329.531 18.529L326.755 18.8528C326.028 18.9398 325.366 18.469 325.199 17.7794L324.912 16.598C324.88 16.4691 324.903 16.3372 324.982 16.2277C325.058 16.1183 325.175 16.0493 325.309 16.0359L330.282 15.4572C330.3 15.4542 330.318 15.4527 330.336 15.4527C330.46 15.4527 330.574 15.5021 330.664 15.5891C330.752 15.676 330.799 15.79 330.799 15.9144L330.796 17.1258Z" fill="#000100"/>
<path d="M322.977 16.6843C322.898 16.7727 322.902 16.9062 322.988 16.9871C323.03 17.0261 323.084 17.0456 323.139 17.0456C323.196 17.0456 323.252 17.0246 323.294 16.9796C323.321 16.9526 323.905 16.3545 324.575 16.8252C324.674 16.8927 324.808 16.8717 324.878 16.7757C324.947 16.6783 324.923 16.5449 324.827 16.4744C324.039 15.9242 323.274 16.3725 322.977 16.6843Z" fill="#000100"/>
<path d="M328.924 13.6723C326.776 12.9632 325.545 13.4069 325.494 13.4264C325.382 13.4684 325.326 13.5913 325.368 13.7008C325.407 13.8117 325.533 13.8687 325.646 13.8267C325.658 13.8237 326.798 13.4234 328.789 14.08C328.813 14.0875 328.834 14.0905 328.857 14.0905C328.947 14.0905 329.032 14.0351 329.062 13.9451C329.098 13.8312 329.038 13.7113 328.924 13.6723Z" fill="#000100"/>
<path d="M321.659 12.953C321.604 12.9455 320.306 12.7911 318.375 13.9605C318.274 14.0234 318.241 14.1554 318.303 14.2558C318.343 14.3218 318.414 14.3562 318.486 14.3562C318.526 14.3562 318.565 14.3472 318.599 14.3263C320.386 13.2423 321.592 13.3743 321.604 13.3773C321.715 13.3908 321.829 13.3098 321.845 13.1914C321.859 13.0759 321.778 12.968 321.659 12.953Z" fill="#000100"/>
<path d="M320.315 17.5322C320.038 17.5322 319.81 17.7556 319.81 18.033C319.81 18.3103 320.036 18.5337 320.315 18.5337C320.595 18.5337 320.82 18.3103 320.82 18.033C320.82 17.7556 320.595 17.5322 320.315 17.5322Z" fill="#000100"/>
<path d="M327.808 16.6641C327.529 16.6641 327.302 16.8889 327.302 17.1663C327.302 17.4421 327.529 17.6655 327.808 17.6655C328.089 17.6655 328.316 17.4421 328.316 17.1663C328.316 16.8889 328.089 16.6641 327.808 16.6641Z" fill="#000100"/>
<path d="M318.489 35.1494C318.489 35.1494 313.846 36.2303 309.837 38.0623C305.832 39.8943 302.893 43.0006 304.102 47.9944C305.337 53.1036 310.155 58.7316 310.371 68.6487C310.587 78.5643 310.047 86.8472 310.047 86.8472H324.613C324.613 86.8472 324.777 72.1553 322.862 57.0435C322.435 53.6823 318.489 35.1494 318.489 35.1494Z" fill="#FFC97A"/>
<path d="M318.635 35.1187C318.626 35.0797 318.602 35.0452 318.569 35.0242C318.534 35.0032 318.489 34.9957 318.455 35.0047C318.408 35.0152 313.75 36.1096 309.775 37.9281C304.908 40.1529 302.895 43.6475 303.955 48.0311C304.374 49.7657 305.182 51.5152 306.118 53.5391C307.883 57.356 310.079 62.1055 310.22 68.6524C310.433 78.4481 309.9 86.7565 309.896 86.839C309.893 86.8795 309.908 86.9214 309.935 86.9514C309.963 86.9814 310.004 86.9994 310.044 86.9994H324.61C324.693 86.9994 324.76 86.9334 324.76 86.851C324.763 86.7041 324.904 71.9761 323.009 57.0277C322.588 53.6965 318.675 35.3046 318.635 35.1187ZM324.463 86.698H310.206C310.278 85.4972 310.718 77.7074 310.52 68.6464C310.376 62.0365 308.167 57.2556 306.391 53.4132C305.463 51.4028 304.659 49.6652 304.247 47.9607C302.955 42.6206 306.607 39.7062 309.9 38.201C313.449 36.5789 317.549 35.5354 318.374 35.333C318.75 37.1096 322.312 53.9094 322.711 57.0652C324.503 71.1875 324.474 85.1134 324.463 86.698Z" fill="#000100"/>
<path d="M350.535 66.9682C350.495 66.9667 350.45 66.9667 350.406 66.9667C347.723 66.9667 344.651 69.4433 344.018 71.4717C343.768 72.2693 344.209 73.6125 345.167 74.9783C346.192 76.4415 347.87 77.9542 349.306 78.0351C349.421 78.0426 349.532 78.0456 349.643 78.0456C351.241 78.0456 352.489 77.3725 352.77 76.7204C352.871 76.4865 352.838 76.2886 352.667 76.1132C352.594 76.0352 352.325 75.8598 351.408 75.8598C350.74 75.8598 350.088 75.9543 350.082 75.9558L350.004 75.503C350.016 75.5015 351.22 75.2706 353.424 74.3981C355.292 73.6575 355.099 71.9859 355.04 71.6456L350.535 66.9682Z" fill="white"/>
<path d="M355.148 71.54L350.643 66.8626C350.583 66.8011 350.49 66.8146 350.406 66.8146C347.663 66.8146 344.522 69.3497 343.876 71.4261C343.612 72.2656 344.06 73.6599 345.044 75.0631C346.089 76.5563 347.811 78.1005 349.297 78.1829C349.415 78.1904 349.529 78.1934 349.642 78.1934C351.366 78.1934 352.61 77.4633 352.907 76.7767C353.033 76.4858 352.988 76.2265 352.773 76.0076C352.645 75.8712 352.304 75.7078 351.406 75.7078C350.919 75.7078 350.445 75.7572 350.204 75.7857L350.175 75.6163C350.564 75.5279 351.687 75.243 353.478 74.5339C355.447 73.7543 355.247 71.9673 355.187 71.6165C355.181 71.5895 355.168 71.561 355.148 71.54ZM353.367 74.2581C351.165 75.1291 349.99 75.351 349.984 75.3525C349.945 75.357 349.906 75.3794 349.883 75.4109C349.858 75.4439 349.849 75.4844 349.855 75.5264L349.933 75.9791C349.948 76.0601 350.024 76.1185 350.103 76.102C350.171 76.0931 350.787 76.0076 351.405 76.0076C352.334 76.0076 352.535 76.192 352.558 76.2145C352.687 76.3464 352.709 76.4783 352.631 76.6567C352.375 77.2504 351.16 77.8921 349.642 77.8921C349.535 77.8921 349.426 77.8891 349.313 77.8831C347.927 77.8051 346.293 76.3239 345.288 74.8892C344.356 73.5609 343.924 72.2671 344.161 71.5146C344.778 69.5341 347.781 67.1145 350.405 67.1145C350.408 67.1145 350.409 67.1145 350.412 67.1145C350.432 67.1145 350.45 67.1145 350.469 67.1145L354.898 71.7124C354.971 72.1982 355.024 73.6014 353.367 74.2581Z" fill="#000100"/>
<path d="M352.236 40.7366C340.459 32.533 331.483 34.1911 331.483 34.1911L346.366 56.0627C347.757 57.3115 355.664 61.0355 355.664 61.0355C352.955 63.1224 349.207 67.1117 349.207 67.1117C353.266 70.0081 354.73 75.8474 354.73 75.8474C354.73 75.8474 369.389 66.9618 369.389 59.8601C369.389 52.7315 358.152 44.8563 352.236 40.7366Z" fill="#FFC97A"/>
<path d="M352.325 40.6126C340.63 32.4676 331.554 34.0237 331.458 34.0432C331.408 34.0522 331.368 34.0852 331.347 34.1332C331.327 34.1796 331.333 34.2336 331.362 34.2756L346.268 56.1742C347.546 57.321 354.067 60.4438 355.382 61.0675C352.712 63.1738 349.136 66.9713 349.1 67.0103C349.07 67.0417 349.057 67.0837 349.061 67.1272C349.066 67.1707 349.088 67.2096 349.124 67.2351C353.091 70.0656 354.574 75.8284 354.589 75.8854C354.601 75.9319 354.632 75.9694 354.677 75.9874C354.697 75.9949 354.715 75.9993 354.734 75.9993C354.761 75.9993 354.788 75.9919 354.812 75.9769C355.413 75.6126 369.543 66.9668 369.543 59.8621C369.54 52.6031 357.913 44.5045 352.325 40.6126ZM354.823 75.6156C354.526 74.5796 352.974 69.7118 349.436 67.0912C350.091 66.4016 353.355 63.0029 355.757 61.1544C355.799 61.123 355.821 61.072 355.815 61.0195C355.809 60.967 355.778 60.9221 355.73 60.8996C355.65 60.8621 347.826 57.1696 346.492 55.9778L331.744 34.3056C333.227 34.1227 341.601 33.511 352.151 40.8585C357.698 44.7219 369.24 52.759 369.24 59.8606C369.242 66.3881 356.452 74.5976 354.823 75.6156Z" fill="#000100"/>
<path d="M331.493 34.1924C331.493 34.1924 338.915 48.1393 338.915 66.9645C338.915 77.09 343.496 86.8482 343.496 86.8482H350.458C350.458 86.8482 349.161 59.8554 347.101 46.7136L331.493 34.1924Z" fill="#FFC97A"/>
<path d="M347.079 46.5637C346.997 46.5757 346.941 46.6537 346.955 46.7346C348.91 59.1988 350.192 84.4586 350.301 86.6969H343.594C343.145 85.7089 339.066 76.438 339.066 66.9631C339.066 48.3163 331.701 34.2614 331.626 34.1205C331.588 34.0485 331.497 34.0201 331.423 34.0575C331.35 34.0965 331.323 34.188 331.362 34.2599C331.435 34.3994 338.766 48.3897 338.766 66.9616C338.766 77.0046 343.313 86.8108 343.358 86.9097C343.384 86.9622 343.436 86.9967 343.495 86.9967H350.457C350.497 86.9967 350.538 86.9802 350.565 86.9502C350.593 86.9202 350.608 86.8813 350.605 86.8393C350.592 86.5694 349.286 59.6876 347.247 46.6882C347.237 46.6072 347.175 46.5472 347.079 46.5637Z" fill="#000100"/>
<path d="M323.737 20.6614C323.632 20.5159 323.727 20.2116 323.761 20.1382L323.362 19.9688C323.337 20.0272 323.124 20.5519 323.388 20.9102C323.524 21.1021 323.756 21.1981 324.073 21.1981C324.121 21.1981 324.17 21.1951 324.221 21.1906L324.187 20.7633C324.025 20.7783 323.816 20.7723 323.737 20.6614Z" fill="#000100"/>
<path d="M300.045 38.0219C296.923 36.7955 296.146 36.6831 296.293 35.0775C296.293 35.0775 296.963 35.5107 297.458 35.2724C297.458 35.2724 298.822 36.899 299.404 35.9245C299.949 35.0145 297.432 33.0506 297.432 33.0506C297.432 33.0506 297.044 32.4224 296.927 32.3025C296.809 32.1826 296.206 31.7778 295.371 31.6279C294.533 31.4779 293.074 31.3445 293.074 31.3445C293.074 31.3445 294.092 31.0432 294.289 30.6219C294.488 30.2006 293.909 29.6534 292.983 29.7899C292.058 29.9293 291.493 29.5365 290.553 30.1991C289.613 30.8603 288.975 31.6698 288.418 32.1346C287.86 32.5993 288.631 34.6292 288.945 37.6216C289.259 40.6125 291.861 39.3082 295.001 41.8523C298.143 44.3979 298.237 52.9118 298.237 52.9118C298.237 52.9118 302.76 52.7573 304.254 46.8835C304.254 46.8835 302.598 43.2705 301.849 41.7084C301.098 40.1462 303.171 39.2467 300.045 38.0219Z" fill="white"/>
<path d="M301.986 41.6384C301.74 41.1256 301.827 40.6879 301.913 40.2651C302.071 39.463 302.224 38.706 300.096 37.8709C299.779 37.7465 299.487 37.634 299.217 37.5291C296.98 36.6656 296.399 36.4422 296.431 35.3373C296.676 35.4482 297.091 35.5592 297.403 35.4632C297.635 35.7211 298.301 36.3972 298.896 36.3972C299.082 36.3972 299.344 36.3298 299.536 36.0089C300.126 35.03 297.907 33.2264 297.55 32.9446C297.457 32.7962 297.153 32.3104 297.037 32.192C296.902 32.0541 296.262 31.6283 295.393 31.4709C294.916 31.3855 294.243 31.306 293.747 31.252C294.03 31.1141 294.321 30.9222 294.429 30.6898C294.516 30.5054 294.496 30.2925 294.376 30.1051C294.178 29.7978 293.751 29.6074 293.262 29.6074C293.163 29.6074 293.06 29.6134 292.952 29.6314C292.699 29.6689 292.408 29.6629 292.139 29.6494C291.636 29.6254 291.156 29.5699 290.451 30.0677C289.849 30.4919 289.376 30.9672 288.961 31.3869C288.729 31.6223 288.507 31.8442 288.304 32.0121C287.886 32.3599 288.05 33.2384 288.319 34.6941C288.469 35.5037 288.657 36.5097 288.775 37.6385C288.967 39.469 289.979 39.7869 291.379 40.2276C292.361 40.5365 293.586 40.9203 294.89 41.9772C297.937 44.4463 298.067 52.8298 298.067 52.9137L298.069 53.0786L298.235 53.0726C298.281 53.0711 302.896 52.8463 304.403 46.923L304.416 46.869L304.392 46.8165C304.377 46.7791 302.727 43.1825 301.986 41.6384ZM298.389 52.7353C298.356 51.479 298.048 44.118 295.097 41.7253C293.745 40.6294 292.489 40.2336 291.478 39.9173C290.101 39.484 289.268 39.2232 289.099 37.6026C288.979 36.4602 288.792 35.4467 288.64 34.6327C288.415 33.4318 288.24 32.4829 288.514 32.2565C288.729 32.0781 288.954 31.8517 289.192 31.6103C289.598 31.2011 290.06 30.7363 290.639 30.3285C291.102 30.0032 291.462 29.9567 291.783 29.9567C291.895 29.9567 292.007 29.9627 292.123 29.9687C292.412 29.9837 292.727 29.9897 293.001 29.9462C293.588 29.8593 293.98 30.0842 294.102 30.2746C294.145 30.3405 294.186 30.4425 294.136 30.5519C294.015 30.8098 293.388 31.0796 293.022 31.1891L292.223 31.4274L293.055 31.5039C293.07 31.5054 294.519 31.6388 295.339 31.7857C296.183 31.9372 296.74 32.3449 296.806 32.4139C296.88 32.4873 297.133 32.8786 297.289 33.132L297.327 33.1755C298.258 33.9011 299.604 35.2653 299.259 35.841C299.165 35.9984 299.049 36.0719 298.898 36.0719C298.439 36.0719 297.79 35.4183 297.578 35.1664L297.496 35.0704L297.382 35.1259C297.306 35.1619 297.217 35.1799 297.117 35.1799C296.755 35.1799 296.379 34.943 296.375 34.94L296.15 34.7946L296.126 35.0599C295.982 36.6221 296.706 36.9024 299.1 37.8274C299.37 37.9309 299.662 38.0448 299.979 38.1693C301.854 38.9054 301.746 39.4496 301.595 40.2006C301.503 40.6534 301.401 41.1661 301.694 41.7748C302.385 43.217 303.869 46.4492 304.074 46.896C302.761 51.9692 299.211 52.6469 298.389 52.7353Z" fill="black"/>
<path d="M293.183 31.1571C292.726 31.2245 291.607 31.3145 291.597 31.3145L291.505 31.322L291.46 31.3999C290.817 32.4958 290.154 32.9321 290.147 32.9351L290.008 33.0265L290.092 33.169C290.498 33.8736 290.394 34.3668 290.393 34.3713C290.37 34.4658 290.43 34.5587 290.523 34.5797C290.556 34.5872 290.589 34.5857 290.618 34.5767C290.675 34.5587 290.72 34.5137 290.735 34.4523C290.739 34.4268 290.865 33.8931 290.471 33.13C290.705 32.9471 291.211 32.4898 291.715 31.6533C291.996 31.6293 292.838 31.5573 293.234 31.4989C293.328 31.4839 293.396 31.3969 293.382 31.301C293.369 31.208 293.28 31.1436 293.183 31.1571Z" fill="black"/>
<path d="M297.491 32.8818C297.356 32.8488 296.167 32.5549 295.665 32.6719C295.095 32.8023 294.394 33.8023 294.097 34.3974C293.72 35.1515 293.495 36.141 293.486 36.1815C293.464 36.2759 293.524 36.3689 293.62 36.3899C293.651 36.3974 293.683 36.3944 293.711 36.3854C293.767 36.3689 293.815 36.3224 293.828 36.2594C293.831 36.2489 294.053 35.27 294.411 34.5534C294.747 33.8802 295.369 33.0902 295.746 33.0137C296.1 32.9297 297.064 33.1351 297.405 33.2206C297.497 33.2446 297.594 33.1876 297.618 33.0962C297.641 32.9987 297.585 32.9058 297.491 32.8818Z" fill="black"/>
<path d="M292.365 31.2846C290.986 32.6099 290.195 35.082 290.16 35.1885C290.13 35.2784 290.183 35.3774 290.276 35.4059C290.31 35.4164 290.348 35.4164 290.38 35.4059C290.434 35.3894 290.478 35.3474 290.496 35.2904C290.503 35.2664 291.295 32.7973 292.608 31.535C292.677 31.4675 292.679 31.3566 292.613 31.2876C292.545 31.2171 292.433 31.2171 292.365 31.2846Z" fill="black"/>
<path d="M293.469 32.3722C292.411 33.1653 291.444 35.2686 291.405 35.3586C291.366 35.4455 291.403 35.549 291.493 35.588C291.534 35.6075 291.58 35.6075 291.619 35.5955C291.664 35.5805 291.706 35.5475 291.726 35.4995C291.736 35.4785 292.694 33.3887 293.682 32.6496C294.463 32.0679 296.417 32.69 297.103 32.9794C297.193 33.0169 297.295 32.9764 297.333 32.8879C297.372 32.798 297.331 32.6975 297.241 32.6586C297.133 32.6151 294.573 31.5432 293.469 32.3722Z" fill="black"/>
<path d="M305.358 43.3223L294.076 47.5455C294.076 47.5455 294.202 67.2507 303.112 73.7392C308.747 77.8455 315.011 73.5233 312.726 60.6318C311.819 55.5226 305.358 43.3223 305.358 43.3223Z" fill="#FFC97A"/>
<path d="M305.492 43.2512C305.457 43.1838 305.378 43.1538 305.307 43.1808L294.026 47.404C293.967 47.4264 293.928 47.4819 293.928 47.5449C293.928 47.7428 294.156 67.4001 303.025 73.8601C304.42 74.875 305.855 75.3907 307.201 75.3907C308.138 75.3907 309.033 75.1418 309.841 74.6366C312.953 72.6937 314.088 67.448 312.875 60.6043C311.976 55.5325 305.558 43.3742 305.492 43.2512ZM309.68 74.3833C307.823 75.5421 305.462 75.2648 303.201 73.6172C294.787 67.49 294.257 49.2045 294.228 47.6483L305.288 43.5076C305.95 44.7714 311.736 55.8938 312.58 60.6567C313.77 67.3761 312.686 72.5063 309.68 74.3833Z" fill="#000100"/>
<path d="M318.484 35.1515C318.484 35.1515 320.769 37.9145 324.521 39.3133C324.521 37.4408 325.761 35.7722 326.689 35.3269C324.175 35.198 322.235 34.327 321.181 33.6943C321.181 33.6943 319.773 33.9162 318.484 35.1515Z" fill="white"/>
<path d="M321.261 33.5645C321.231 33.5465 321.193 33.539 321.16 33.545C321.1 33.554 319.691 33.7879 318.382 35.0412C318.325 35.0952 318.321 35.1851 318.37 35.2451C318.394 35.2736 320.724 38.0545 324.471 39.4518C324.489 39.4578 324.505 39.4608 324.523 39.4608C324.555 39.4608 324.583 39.4518 324.608 39.4338C324.649 39.4053 324.673 39.3603 324.673 39.3109C324.673 37.4744 325.905 35.8672 326.757 35.4595C326.818 35.4295 326.853 35.362 326.839 35.2945C326.826 35.2271 326.769 35.1776 326.7 35.1746C324.082 35.0427 322.169 34.1102 321.261 33.5645ZM324.378 39.0965C321.232 37.8656 319.147 35.6678 318.693 35.1611C319.766 34.1852 320.904 33.9033 321.156 33.8508C322.051 34.38 323.821 35.2316 326.223 35.443C325.385 36.0831 324.456 37.4759 324.378 39.0965Z" fill="#000100"/>
<path d="M329.476 33.2949C329.23 33.5873 327.694 34.8721 326.7 35.3248C327.812 35.5002 329.752 36.7475 330.544 38.5526C330.698 37.8225 331.86 35.6546 331.503 34.1914C331.2 33.8646 330.244 33.3204 329.476 33.2949Z" fill="white"/>
<path d="M331.609 34.091C331.271 33.7237 330.271 33.172 329.477 33.1465C329.433 33.1525 329.387 33.166 329.358 33.2005C329.119 33.4853 327.612 34.7446 326.634 35.1914C326.573 35.2184 326.539 35.2828 326.547 35.3473C326.556 35.4117 326.606 35.4642 326.672 35.4747C327.705 35.6366 329.628 36.8495 330.402 38.614C330.427 38.6695 330.481 38.704 330.54 38.704C330.544 38.704 330.55 38.704 330.556 38.704C330.621 38.698 330.673 38.6485 330.687 38.5855C330.726 38.3996 330.843 38.0983 330.975 37.7475C331.349 36.7625 331.916 35.2723 331.643 34.1584C331.639 34.1329 331.627 34.1105 331.609 34.091ZM330.694 37.641C330.622 37.8284 330.559 37.9963 330.507 38.1448C329.706 36.6531 328.192 35.6141 327.122 35.2768C328.05 34.7521 329.215 33.7851 329.535 33.4508C330.211 33.5003 331.051 33.9545 331.363 34.2664C331.591 35.2873 331.053 36.701 330.694 37.641Z" fill="#000100"/>
<path d="M26.9961 21.7344C26.9961 24.0521 26.332 25.8945 25.0039 27.2617C23.6758 28.6224 21.8398 29.3027 19.4961 29.3027C17.1589 29.3027 15.3262 28.6224 13.998 27.2617C12.6699 25.8945 12.0059 24.0521 12.0059 21.7344C12.0059 19.3971 12.6699 17.5514 13.998 16.1973C15.3262 14.8366 17.1589 14.1562 19.4961 14.1562C21.8268 14.1562 23.6595 14.8366 24.9941 16.1973C26.3288 17.5514 26.9961 19.3971 26.9961 21.7344ZM22.0254 25.416C22.39 24.9733 22.6602 24.4525 22.8359 23.8535C23.0117 23.248 23.0996 22.5384 23.0996 21.7246C23.0996 20.8522 22.9987 20.11 22.7969 19.498C22.5951 18.8861 22.3314 18.3913 22.0059 18.0137C21.6738 17.623 21.2897 17.3398 20.8535 17.1641C20.4238 16.9883 19.9746 16.9004 19.5059 16.9004C19.0306 16.9004 18.5814 16.985 18.1582 17.1543C17.7415 17.3236 17.3574 17.6035 17.0059 17.9941C16.6803 18.3587 16.4134 18.8633 16.2051 19.5078C16.0033 20.1458 15.9023 20.888 15.9023 21.7344C15.9023 22.6003 16 23.3392 16.1953 23.9512C16.3971 24.5566 16.6608 25.0514 16.9863 25.4355C17.3118 25.8197 17.6927 26.1029 18.1289 26.2852C18.5651 26.4674 19.0241 26.5586 19.5059 26.5586C19.9876 26.5586 20.4466 26.4674 20.8828 26.2852C21.319 26.0964 21.6999 25.8066 22.0254 25.416ZM36.7812 16.3828H36.5176C36.3613 16.3372 36.1562 16.2852 35.9023 16.2266C35.6549 16.168 35.388 16.1387 35.1016 16.1387C34.4115 16.1387 33.9427 16.2624 33.6953 16.5098C33.4544 16.7572 33.334 17.2357 33.334 17.9453V18.0332H36.0488V20.416H33.4512V29H29.9355V20.416H28.4316V18.0332H29.9355V17.7305C29.9355 16.3893 30.2904 15.3835 31 14.7129C31.7161 14.0423 32.7969 13.707 34.2422 13.707C34.763 13.707 35.235 13.7266 35.6582 13.7656C36.0814 13.7982 36.4557 13.8438 36.7812 13.9023V16.3828ZM45.2383 16.3828H44.9746C44.8184 16.3372 44.6133 16.2852 44.3594 16.2266C44.112 16.168 43.8451 16.1387 43.5586 16.1387C42.8685 16.1387 42.3997 16.2624 42.1523 16.5098C41.9115 16.7572 41.791 17.2357 41.791 17.9453V18.0332H44.5059V20.416H41.9082V29H38.3926V20.416H36.8887V18.0332H38.3926V17.7305C38.3926 16.3893 38.7474 15.3835 39.457 14.7129C40.1732 14.0423 41.2539 13.707 42.6992 13.707C43.2201 13.707 43.6921 13.7266 44.1152 13.7656C44.5384 13.7982 44.9128 13.8438 45.2383 13.9023V16.3828ZM52.2988 29.293C51.3418 29.293 50.4661 29.179 49.6719 28.9512C48.8841 28.7233 48.1973 28.3717 47.6113 27.8965C47.0319 27.4212 46.5827 26.8223 46.2637 26.0996C45.9447 25.377 45.7852 24.5306 45.7852 23.5605C45.7852 22.5384 45.9544 21.6562 46.293 20.9141C46.638 20.1719 47.1165 19.5566 47.7285 19.0684C48.321 18.6061 49.0046 18.2676 49.7793 18.0527C50.554 17.8379 51.3581 17.7305 52.1914 17.7305C52.9401 17.7305 53.6302 17.8118 54.2617 17.9746C54.8932 18.1374 55.4824 18.349 56.0293 18.6094V21.6074H55.5312C55.3945 21.4902 55.2285 21.3535 55.0332 21.1973C54.8444 21.041 54.61 20.888 54.3301 20.7383C54.0632 20.5951 53.7702 20.4779 53.4512 20.3867C53.1322 20.2891 52.7611 20.2402 52.3379 20.2402C51.4004 20.2402 50.6777 20.5397 50.1699 21.1387C49.6686 21.7311 49.418 22.5384 49.418 23.5605C49.418 24.6152 49.6751 25.416 50.1895 25.9629C50.7103 26.5098 51.446 26.7832 52.3965 26.7832C52.8392 26.7832 53.2363 26.7344 53.5879 26.6367C53.946 26.5326 54.2422 26.4121 54.4766 26.2754C54.6979 26.1452 54.8932 26.0085 55.0625 25.8652C55.2318 25.722 55.388 25.582 55.5312 25.4453H56.0293V28.4434C55.4759 28.7038 54.8965 28.9089 54.291 29.0586C53.6921 29.2148 53.028 29.293 52.2988 29.293ZM63.3145 25.123L65.8145 18.0332H69.4277L63.334 33.0234H59.5254L61.2637 28.9219L56.9961 18.0332H60.6875L63.3145 25.123ZM77.1035 29.293C76.1465 29.293 75.2708 29.179 74.4766 28.9512C73.6888 28.7233 73.002 28.3717 72.416 27.8965C71.8366 27.4212 71.3874 26.8223 71.0684 26.0996C70.7493 25.377 70.5898 24.5306 70.5898 23.5605C70.5898 22.5384 70.7591 21.6562 71.0977 20.9141C71.4427 20.1719 71.9212 19.5566 72.5332 19.0684C73.1257 18.6061 73.8092 18.2676 74.584 18.0527C75.3587 17.8379 76.1628 17.7305 76.9961 17.7305C77.7448 17.7305 78.4349 17.8118 79.0664 17.9746C79.6979 18.1374 80.2871 18.349 80.834 18.6094V21.6074H80.3359C80.1992 21.4902 80.0332 21.3535 79.8379 21.1973C79.6491 21.041 79.4147 20.888 79.1348 20.7383C78.8678 20.5951 78.5749 20.4779 78.2559 20.3867C77.9368 20.2891 77.5658 20.2402 77.1426 20.2402C76.2051 20.2402 75.4824 20.5397 74.9746 21.1387C74.4733 21.7311 74.2227 22.5384 74.2227 23.5605C74.2227 24.6152 74.4798 25.416 74.9941 25.9629C75.515 26.5098 76.2507 26.7832 77.2012 26.7832C77.6439 26.7832 78.041 26.7344 78.3926 26.6367C78.7507 26.5326 79.0469 26.4121 79.2812 26.2754C79.5026 26.1452 79.6979 26.0085 79.8672 25.8652C80.0365 25.722 80.1927 25.582 80.3359 25.4453H80.834V28.4434C80.2806 28.7038 79.7012 28.9089 79.0957 29.0586C78.4967 29.2148 77.8327 29.293 77.1035 29.293ZM86.6836 29H83.168V13.8047H86.6836V29ZM100.805 24.166H92.7578C92.8099 25.0254 93.1354 25.6829 93.7344 26.1387C94.3398 26.5944 95.2285 26.8223 96.4004 26.8223C97.1426 26.8223 97.862 26.6888 98.5586 26.4219C99.2552 26.1549 99.8053 25.8685 100.209 25.5625H100.6V28.3848C99.8053 28.7038 99.0566 28.9349 98.3535 29.0781C97.6504 29.2214 96.8724 29.293 96.0195 29.293C93.819 29.293 92.1328 28.7982 90.9609 27.8086C89.7891 26.819 89.2031 25.4095 89.2031 23.5801C89.2031 21.7702 89.7565 20.3379 90.8633 19.2832C91.9766 18.222 93.5 17.6914 95.4336 17.6914C97.2174 17.6914 98.5586 18.1439 99.457 19.0488C100.355 19.9473 100.805 21.2428 100.805 22.9355V24.166ZM97.3086 22.1055C97.2891 21.3698 97.1068 20.8164 96.7617 20.4453C96.4167 20.0742 95.8796 19.8887 95.1504 19.8887C94.4733 19.8887 93.9167 20.0645 93.4805 20.416C93.0443 20.7676 92.8001 21.3307 92.748 22.1055H97.3086ZM122.318 19.0488C122.318 19.6999 122.204 20.3379 121.977 20.9629C121.749 21.5814 121.423 22.1022 121 22.5254C120.421 23.0983 119.773 23.5312 119.057 23.8242C118.347 24.1172 117.462 24.2637 116.4 24.2637H114.066V29H110.316V14.459H116.488C117.413 14.459 118.191 14.5404 118.822 14.7031C119.46 14.8594 120.023 15.097 120.512 15.416C121.098 15.8001 121.544 16.2917 121.85 16.8906C122.162 17.4896 122.318 18.209 122.318 19.0488ZM118.441 19.1367C118.441 18.7266 118.331 18.375 118.109 18.082C117.888 17.7826 117.631 17.5742 117.338 17.457C116.947 17.3008 116.566 17.2161 116.195 17.2031C115.824 17.1836 115.329 17.1738 114.711 17.1738H114.066V21.5293H115.141C115.779 21.5293 116.303 21.4902 116.713 21.4121C117.13 21.334 117.478 21.1777 117.758 20.9434C117.999 20.735 118.171 20.4876 118.275 20.2012C118.386 19.9082 118.441 19.5534 118.441 19.1367ZM131.43 26.1387V23.8535C130.954 23.8926 130.44 23.9479 129.887 24.0195C129.333 24.0846 128.913 24.1628 128.627 24.2539C128.275 24.3646 128.005 24.5273 127.816 24.7422C127.634 24.9505 127.543 25.2272 127.543 25.5723C127.543 25.8001 127.562 25.9857 127.602 26.1289C127.641 26.2721 127.738 26.4089 127.895 26.5391C128.044 26.6693 128.223 26.7669 128.432 26.832C128.64 26.8906 128.965 26.9199 129.408 26.9199C129.76 26.9199 130.115 26.8483 130.473 26.7051C130.837 26.5618 131.156 26.373 131.43 26.1387ZM131.43 27.8379C131.241 27.9811 131.007 28.1536 130.727 28.3555C130.447 28.5573 130.183 28.7168 129.936 28.834C129.59 28.9902 129.232 29.1042 128.861 29.1758C128.49 29.2539 128.083 29.293 127.641 29.293C126.599 29.293 125.727 28.9707 125.023 28.3262C124.32 27.6816 123.969 26.8581 123.969 25.8555C123.969 25.0547 124.148 24.4004 124.506 23.8926C124.864 23.3848 125.372 22.9844 126.029 22.6914C126.68 22.3984 127.488 22.1901 128.451 22.0664C129.415 21.9427 130.414 21.8516 131.449 21.793V21.7344C131.449 21.1289 131.202 20.7122 130.707 20.4844C130.212 20.25 129.483 20.1328 128.52 20.1328C127.94 20.1328 127.322 20.237 126.664 20.4453C126.007 20.6471 125.535 20.8034 125.248 20.9141H124.926V18.2676C125.297 18.1699 125.899 18.056 126.732 17.9258C127.572 17.7891 128.412 17.7207 129.252 17.7207C131.251 17.7207 132.693 18.0299 133.578 18.6484C134.47 19.2604 134.916 20.224 134.916 21.5391V29H131.43V27.8379ZM143.1 25.123L145.6 18.0332H149.213L143.119 33.0234H139.311L141.049 28.9219L136.781 18.0332H140.473L143.1 25.123ZM160.707 25.5234C160.707 26.6562 160.199 27.571 159.184 28.2676C158.168 28.9577 156.778 29.3027 155.014 29.3027C154.037 29.3027 153.152 29.2116 152.357 29.0293C151.563 28.847 150.925 28.6452 150.443 28.4238V25.5332H150.766C150.941 25.6569 151.143 25.7936 151.371 25.9434C151.605 26.0866 151.934 26.2428 152.357 26.4121C152.722 26.5618 153.135 26.6921 153.598 26.8027C154.06 26.9069 154.555 26.959 155.082 26.959C155.772 26.959 156.283 26.8841 156.615 26.7344C156.947 26.5781 157.113 26.3503 157.113 26.0508C157.113 25.7839 157.016 25.5918 156.82 25.4746C156.625 25.3509 156.254 25.2337 155.707 25.123C155.447 25.0645 155.092 25.0026 154.643 24.9375C154.2 24.8659 153.796 24.7812 153.432 24.6836C152.436 24.4232 151.697 24.0195 151.215 23.4727C150.733 22.9193 150.492 22.2324 150.492 21.4121C150.492 20.3574 150.99 19.4818 151.986 18.7852C152.989 18.082 154.356 17.7305 156.088 17.7305C156.908 17.7305 157.693 17.8151 158.441 17.9844C159.197 18.1471 159.786 18.3229 160.209 18.5117V21.2852H159.906C159.385 20.9271 158.79 20.6374 158.119 20.416C157.455 20.1882 156.781 20.0742 156.098 20.0742C155.531 20.0742 155.053 20.1523 154.662 20.3086C154.278 20.4648 154.086 20.6862 154.086 20.9727C154.086 21.2331 154.174 21.4316 154.35 21.5684C154.525 21.7051 154.939 21.8418 155.59 21.9785C155.948 22.0501 156.332 22.1217 156.742 22.1934C157.159 22.2585 157.576 22.3431 157.992 22.4473C158.917 22.6882 159.6 23.069 160.043 23.5898C160.486 24.1042 160.707 24.7487 160.707 25.5234ZM166.566 29H163.051V13.8047H166.566V29ZM173.402 29H169.887V18.0332H173.402V29ZM173.5 16.4707H169.789V13.8047H173.5V16.4707ZM188.168 23.3652C188.168 24.2702 188.028 25.0938 187.748 25.8359C187.475 26.5781 187.113 27.1901 186.664 27.6719C186.195 28.1797 185.665 28.5638 185.072 28.8242C184.48 29.0846 183.845 29.2148 183.168 29.2148C182.543 29.2148 182.012 29.1465 181.576 29.0098C181.14 28.8796 180.694 28.694 180.238 28.4531V33.0234H176.723V18.0332H180.238V19.1758C180.779 18.7461 181.329 18.3978 181.889 18.1309C182.455 17.8639 183.106 17.7305 183.842 17.7305C185.209 17.7305 186.27 18.2318 187.025 19.2344C187.787 20.237 188.168 21.6139 188.168 23.3652ZM184.545 23.4336C184.545 22.3659 184.363 21.5911 183.998 21.1094C183.633 20.6276 183.057 20.3867 182.27 20.3867C181.938 20.3867 181.596 20.4388 181.244 20.543C180.893 20.6406 180.557 20.7839 180.238 20.9727V26.4902C180.473 26.5814 180.723 26.64 180.99 26.666C181.257 26.6921 181.521 26.7051 181.781 26.7051C182.712 26.7051 183.406 26.4349 183.861 25.8945C184.317 25.3477 184.545 24.5273 184.545 23.4336Z" fill="url(#paint0_linear_1453_104608)"/>
<path d="M18.3477 46.2754L15.2773 51.1738V55H14.1172V51.2969L11.0352 46.2754H12.3184L14.7031 50.1777L17.1113 46.2754H18.3477ZM23.8032 51.7305C23.8032 52.7969 23.5298 53.6387 22.9829 54.2559C22.436 54.873 21.7036 55.1816 20.7856 55.1816C19.8598 55.1816 19.1235 54.873 18.5766 54.2559C18.0337 53.6387 17.7622 52.7969 17.7622 51.7305C17.7622 50.6641 18.0337 49.8223 18.5766 49.2051C19.1235 48.584 19.8598 48.2734 20.7856 48.2734C21.7036 48.2734 22.436 48.584 22.9829 49.2051C23.5298 49.8223 23.8032 50.6641 23.8032 51.7305ZM22.6665 51.7305C22.6665 50.8828 22.5005 50.2539 22.1684 49.8438C21.8364 49.4297 21.3755 49.2227 20.7856 49.2227C20.188 49.2227 19.7231 49.4297 19.3911 49.8438C19.063 50.2539 18.8989 50.8828 18.8989 51.7305C18.8989 52.5508 19.0649 53.1738 19.397 53.5996C19.729 54.0215 20.1919 54.2324 20.7856 54.2324C21.3716 54.2324 21.8305 54.0234 22.1626 53.6055C22.4985 53.1836 22.6665 52.5586 22.6665 51.7305ZM30.4599 55H29.3584V54.2734C28.9873 54.5664 28.6318 54.791 28.292 54.9473C27.9521 55.1035 27.5771 55.1816 27.167 55.1816C26.4795 55.1816 25.9443 54.9727 25.5615 54.5547C25.1787 54.1328 24.9873 53.5156 24.9873 52.7031V48.4551H26.0888V52.1816C26.0888 52.5137 26.1045 52.7988 26.1357 53.0371C26.167 53.2715 26.2334 53.4727 26.3349 53.6406C26.4404 53.8125 26.5771 53.9375 26.7451 54.0156C26.913 54.0938 27.1572 54.1328 27.4775 54.1328C27.7627 54.1328 28.0732 54.0586 28.4091 53.9102C28.749 53.7617 29.0654 53.5723 29.3584 53.3418V48.4551H30.4599V55ZM40.7265 54.5898C40.3593 54.7656 40.0097 54.9023 39.6777 55C39.3495 55.0977 38.9999 55.1465 38.6288 55.1465C38.1562 55.1465 37.7226 55.0781 37.328 54.9414C36.9335 54.8008 36.5956 54.5898 36.3144 54.3086C36.0292 54.0273 35.8085 53.6719 35.6523 53.2422C35.496 52.8125 35.4179 52.3105 35.4179 51.7363C35.4179 50.666 35.7109 49.8262 36.2968 49.2168C36.8866 48.6074 37.664 48.3027 38.6288 48.3027C39.0038 48.3027 39.371 48.3555 39.7304 48.4609C40.0937 48.5664 40.4257 48.6953 40.7265 48.8477V50.0723H40.6679C40.332 49.8105 39.9843 49.6094 39.6249 49.4688C39.2695 49.3281 38.9218 49.2578 38.582 49.2578C37.957 49.2578 37.4628 49.4688 37.0995 49.8906C36.7402 50.3086 36.5605 50.9238 36.5605 51.7363C36.5605 52.5254 36.7362 53.1328 37.0878 53.5586C37.4433 53.9805 37.9413 54.1914 38.582 54.1914C38.8046 54.1914 39.0312 54.1621 39.2616 54.1035C39.4921 54.0449 39.6991 53.9688 39.8827 53.875C40.0429 53.793 40.1933 53.707 40.3339 53.6172C40.4745 53.5234 40.5859 53.4434 40.6679 53.377H40.7265V54.5898ZM46.7504 55H45.6547V54.3027C45.557 54.3691 45.4242 54.4629 45.2563 54.584C45.0922 54.7012 44.932 54.7949 44.7758 54.8652C44.5922 54.9551 44.3813 55.0293 44.143 55.0879C43.9047 55.1504 43.6254 55.1816 43.3051 55.1816C42.7152 55.1816 42.2152 54.9863 41.8051 54.5957C41.3949 54.2051 41.1898 53.707 41.1898 53.1016C41.1898 52.6055 41.2953 52.2051 41.5063 51.9004C41.7211 51.5918 42.0258 51.3496 42.4203 51.1738C42.8188 50.998 43.2973 50.8789 43.8559 50.8164C44.4145 50.7539 45.0141 50.707 45.6547 50.6758V50.5059C45.6547 50.2559 45.6098 50.0488 45.5199 49.8848C45.434 49.7207 45.309 49.5918 45.1449 49.498C44.9887 49.4082 44.8012 49.3477 44.5824 49.3164C44.3637 49.2852 44.1352 49.2695 43.8969 49.2695C43.6078 49.2695 43.2855 49.3086 42.9301 49.3867C42.5746 49.4609 42.2074 49.5703 41.8285 49.7148H41.7699V48.5957C41.9848 48.5371 42.2953 48.4727 42.7016 48.4023C43.1078 48.332 43.5082 48.2969 43.9027 48.2969C44.3637 48.2969 44.7641 48.3359 45.1039 48.4141C45.4477 48.4883 45.7445 48.6172 45.9945 48.8008C46.2406 48.9805 46.4281 49.2129 46.557 49.498C46.6859 49.7832 46.7504 50.1367 46.7504 50.5586V55ZM45.6547 53.3887V51.5664C45.3188 51.5859 44.9223 51.6152 44.4652 51.6543C44.0121 51.6934 43.6527 51.75 43.3871 51.8242C43.0707 51.9141 42.8148 52.0547 42.6195 52.2461C42.4242 52.4336 42.3266 52.6934 42.3266 53.0254C42.3266 53.4004 42.4398 53.6836 42.6664 53.875C42.893 54.0625 43.2387 54.1562 43.7035 54.1562C44.0902 54.1562 44.4438 54.082 44.7641 53.9336C45.0844 53.7812 45.3813 53.5996 45.6547 53.3887ZM53.8641 55H52.7626V51.2734C52.7626 50.9727 52.745 50.6914 52.7098 50.4297C52.6747 50.1641 52.6102 49.957 52.5165 49.8086C52.4188 49.6445 52.2782 49.5234 52.0946 49.4453C51.911 49.3633 51.6727 49.3223 51.3798 49.3223C51.079 49.3223 50.7645 49.3965 50.4364 49.5449C50.1083 49.6934 49.7938 49.8828 49.493 50.1133V55H48.3915V48.4551H49.493V49.1816C49.8368 48.8965 50.1923 48.6738 50.5595 48.5137C50.9266 48.3535 51.3036 48.2734 51.6903 48.2734C52.3973 48.2734 52.9364 48.4863 53.3075 48.9121C53.6786 49.3379 53.8641 49.9512 53.8641 50.752V55ZM64.9041 48.4551L62.2557 55H61.1483L58.5174 48.4551H59.7127L61.7401 53.6641L63.7498 48.4551H64.9041ZM67.0491 47.3594H65.807V46.2168H67.0491V47.3594ZM66.9788 55H65.8773V48.4551H66.9788V55ZM74.157 51.8418H69.3348C69.3348 52.2441 69.3953 52.5957 69.5164 52.8965C69.6375 53.1934 69.8035 53.4375 70.0145 53.6289C70.2176 53.8164 70.4578 53.957 70.7352 54.0508C71.0164 54.1445 71.325 54.1914 71.6609 54.1914C72.1063 54.1914 72.5535 54.1035 73.0027 53.9277C73.4559 53.748 73.7781 53.5723 73.9695 53.4004H74.0281V54.6016C73.657 54.7578 73.2781 54.8887 72.8914 54.9941C72.5047 55.0996 72.0984 55.1523 71.6727 55.1523C70.5867 55.1523 69.7391 54.8594 69.1297 54.2734C68.5203 53.6836 68.2156 52.8477 68.2156 51.7656C68.2156 50.6953 68.5066 49.8457 69.0887 49.2168C69.6746 48.5879 70.4441 48.2734 71.3973 48.2734C72.2801 48.2734 72.9598 48.5312 73.4363 49.0469C73.9168 49.5625 74.157 50.2949 74.157 51.2441V51.8418ZM73.0848 50.998C73.0809 50.4199 72.9344 49.9727 72.6453 49.6562C72.3602 49.3398 71.9246 49.1816 71.3387 49.1816C70.7488 49.1816 70.2781 49.3555 69.9266 49.7031C69.5789 50.0508 69.3816 50.4824 69.3348 50.998H73.0848ZM83.5794 48.4551L81.8743 55H80.8548L79.1731 49.9551L77.5032 55H76.4895L74.7669 48.4551H75.9153L77.1165 53.5234L78.7513 48.4551H79.6595L81.3352 53.5234L82.472 48.4551H83.5794ZM93.512 55H92.4163V54.3027C92.3186 54.3691 92.1858 54.4629 92.0178 54.584C91.8538 54.7012 91.6936 54.7949 91.5373 54.8652C91.3538 54.9551 91.1428 55.0293 90.9045 55.0879C90.6663 55.1504 90.387 55.1816 90.0666 55.1816C89.4768 55.1816 88.9768 54.9863 88.5666 54.5957C88.1565 54.2051 87.9514 53.707 87.9514 53.1016C87.9514 52.6055 88.0569 52.2051 88.2678 51.9004C88.4827 51.5918 88.7873 51.3496 89.1819 51.1738C89.5803 50.998 90.0588 50.8789 90.6174 50.8164C91.176 50.7539 91.7756 50.707 92.4163 50.6758V50.5059C92.4163 50.2559 92.3713 50.0488 92.2815 49.8848C92.1955 49.7207 92.0705 49.5918 91.9065 49.498C91.7502 49.4082 91.5627 49.3477 91.344 49.3164C91.1252 49.2852 90.8967 49.2695 90.6584 49.2695C90.3694 49.2695 90.0471 49.3086 89.6916 49.3867C89.3362 49.4609 88.969 49.5703 88.5901 49.7148H88.5315V48.5957C88.7463 48.5371 89.0569 48.4727 89.4631 48.4023C89.8694 48.332 90.2698 48.2969 90.6643 48.2969C91.1252 48.2969 91.5256 48.3359 91.8655 48.4141C92.2092 48.4883 92.5061 48.6172 92.7561 48.8008C93.0022 48.9805 93.1897 49.2129 93.3186 49.498C93.4475 49.7832 93.512 50.1367 93.512 50.5586V55ZM92.4163 53.3887V51.5664C92.0803 51.5859 91.6838 51.6152 91.2268 51.6543C90.7737 51.6934 90.4143 51.75 90.1487 51.8242C89.8323 51.9141 89.5764 52.0547 89.3811 52.2461C89.1858 52.4336 89.0881 52.6934 89.0881 53.0254C89.0881 53.4004 89.2014 53.6836 89.428 53.875C89.6545 54.0625 90.0002 54.1562 90.4651 54.1562C90.8518 54.1562 91.2053 54.082 91.5256 53.9336C91.8459 53.7812 92.1428 53.5996 92.4163 53.3887ZM100.626 55H99.5241V51.2734C99.5241 50.9727 99.5066 50.6914 99.4714 50.4297C99.4362 50.1641 99.3718 49.957 99.278 49.8086C99.1804 49.6445 99.0398 49.5234 98.8562 49.4453C98.6726 49.3633 98.4343 49.3223 98.1413 49.3223C97.8405 49.3223 97.5261 49.3965 97.198 49.5449C96.8698 49.6934 96.5554 49.8828 96.2546 50.1133V55H95.153V48.4551H96.2546V49.1816C96.5984 48.8965 96.9538 48.6738 97.321 48.5137C97.6882 48.3535 98.0652 48.2734 98.4519 48.2734C99.1589 48.2734 99.698 48.4863 100.069 48.9121C100.44 49.3379 100.626 49.9512 100.626 50.752V55ZM107.575 55H106.474V54.3145C106.157 54.5879 105.827 54.8008 105.484 54.9531C105.14 55.1055 104.767 55.1816 104.364 55.1816C103.583 55.1816 102.962 54.8809 102.501 54.2793C102.044 53.6777 101.816 52.8438 101.816 51.7773C101.816 51.2227 101.894 50.7285 102.05 50.2949C102.21 49.8613 102.425 49.4922 102.695 49.1875C102.96 48.8906 103.269 48.6641 103.62 48.5078C103.976 48.3516 104.343 48.2734 104.722 48.2734C105.066 48.2734 105.37 48.3105 105.636 48.3848C105.902 48.4551 106.181 48.5664 106.474 48.7188V45.8828H107.575V55ZM106.474 53.3887V49.6328C106.177 49.5 105.911 49.4082 105.677 49.3574C105.443 49.3066 105.187 49.2812 104.909 49.2812C104.292 49.2812 103.812 49.4961 103.468 49.9258C103.124 50.3555 102.952 50.9648 102.952 51.7539C102.952 52.5312 103.085 53.123 103.351 53.5293C103.616 53.9316 104.042 54.1328 104.628 54.1328C104.941 54.1328 105.257 54.0645 105.577 53.9277C105.898 53.7871 106.196 53.6074 106.474 53.3887ZM118.311 55H117.209V54.3145C116.893 54.5879 116.563 54.8008 116.219 54.9531C115.875 55.1055 115.502 55.1816 115.1 55.1816C114.319 55.1816 113.697 54.8809 113.236 54.2793C112.779 53.6777 112.551 52.8438 112.551 51.7773C112.551 51.2227 112.629 50.7285 112.785 50.2949C112.945 49.8613 113.16 49.4922 113.43 49.1875C113.695 48.8906 114.004 48.6641 114.356 48.5078C114.711 48.3516 115.078 48.2734 115.457 48.2734C115.801 48.2734 116.106 48.3105 116.371 48.3848C116.637 48.4551 116.916 48.5664 117.209 48.7188V45.8828H118.311V55ZM117.209 53.3887V49.6328C116.912 49.5 116.647 49.4082 116.412 49.3574C116.178 49.3066 115.922 49.2812 115.645 49.2812C115.028 49.2812 114.547 49.4961 114.203 49.9258C113.86 50.3555 113.688 50.9648 113.688 51.7539C113.688 52.5312 113.82 53.123 114.086 53.5293C114.352 53.9316 114.778 54.1328 115.363 54.1328C115.676 54.1328 115.992 54.0645 116.313 53.9277C116.633 53.7871 116.932 53.6074 117.209 53.3887ZM125.577 51.7305C125.577 52.7969 125.303 53.6387 124.756 54.2559C124.21 54.873 123.477 55.1816 122.559 55.1816C121.633 55.1816 120.897 54.873 120.35 54.2559C119.807 53.6387 119.536 52.7969 119.536 51.7305C119.536 50.6641 119.807 49.8223 120.35 49.2051C120.897 48.584 121.633 48.2734 122.559 48.2734C123.477 48.2734 124.21 48.584 124.756 49.2051C125.303 49.8223 125.577 50.6641 125.577 51.7305ZM124.44 51.7305C124.44 50.8828 124.274 50.2539 123.942 49.8438C123.61 49.4297 123.149 49.2227 122.559 49.2227C121.962 49.2227 121.497 49.4297 121.165 49.8438C120.837 50.2539 120.673 50.8828 120.673 51.7305C120.673 52.5508 120.839 53.1738 121.171 53.5996C121.503 54.0215 121.965 54.2324 122.559 54.2324C123.145 54.2324 123.604 54.0234 123.936 53.6055C124.272 53.1836 124.44 52.5586 124.44 51.7305ZM135.04 48.4551L133.335 55H132.316L130.634 49.9551L128.964 55H127.95L126.228 48.4551H127.376L128.577 53.5234L130.212 48.4551H131.12L132.796 53.5234L133.933 48.4551H135.04ZM141.621 55H140.519V51.2734C140.519 50.9727 140.502 50.6914 140.466 50.4297C140.431 50.1641 140.367 49.957 140.273 49.8086C140.175 49.6445 140.035 49.5234 139.851 49.4453C139.668 49.3633 139.429 49.3223 139.136 49.3223C138.836 49.3223 138.521 49.3965 138.193 49.5449C137.865 49.6934 137.55 49.8828 137.25 50.1133V55H136.148V48.4551H137.25V49.1816C137.593 48.8965 137.949 48.6738 138.316 48.5137C138.683 48.3535 139.06 48.2734 139.447 48.2734C140.154 48.2734 140.693 48.4863 141.064 48.9121C141.435 49.3379 141.621 49.9512 141.621 50.752V55ZM144.375 55H143.274V45.8828H144.375V55ZM151.653 51.7305C151.653 52.7969 151.379 53.6387 150.833 54.2559C150.286 54.873 149.553 55.1816 148.635 55.1816C147.71 55.1816 146.973 54.873 146.426 54.2559C145.883 53.6387 145.612 52.7969 145.612 51.7305C145.612 50.6641 145.883 49.8223 146.426 49.2051C146.973 48.584 147.71 48.2734 148.635 48.2734C149.553 48.2734 150.286 48.584 150.833 49.2051C151.379 49.8223 151.653 50.6641 151.653 51.7305ZM150.516 51.7305C150.516 50.8828 150.35 50.2539 150.018 49.8438C149.686 49.4297 149.225 49.2227 148.635 49.2227C148.038 49.2227 147.573 49.4297 147.241 49.8438C146.913 50.2539 146.749 50.8828 146.749 51.7305C146.749 52.5508 146.915 53.1738 147.247 53.5996C147.579 54.0215 148.042 54.2324 148.635 54.2324C149.221 54.2324 149.68 54.0234 150.012 53.6055C150.348 53.1836 150.516 52.5586 150.516 51.7305ZM157.97 55H156.874V54.3027C156.776 54.3691 156.644 54.4629 156.476 54.584C156.312 54.7012 156.151 54.7949 155.995 54.8652C155.812 54.9551 155.601 55.0293 155.362 55.0879C155.124 55.1504 154.845 55.1816 154.524 55.1816C153.935 55.1816 153.435 54.9863 153.024 54.5957C152.614 54.2051 152.409 53.707 152.409 53.1016C152.409 52.6055 152.515 52.2051 152.726 51.9004C152.94 51.5918 153.245 51.3496 153.64 51.1738C154.038 50.998 154.517 50.8789 155.075 50.8164C155.634 50.7539 156.233 50.707 156.874 50.6758V50.5059C156.874 50.2559 156.829 50.0488 156.739 49.8848C156.653 49.7207 156.528 49.5918 156.364 49.498C156.208 49.4082 156.021 49.3477 155.802 49.3164C155.583 49.2852 155.355 49.2695 155.116 49.2695C154.827 49.2695 154.505 49.3086 154.149 49.3867C153.794 49.4609 153.427 49.5703 153.048 49.7148H152.989V48.5957C153.204 48.5371 153.515 48.4727 153.921 48.4023C154.327 48.332 154.728 48.2969 155.122 48.2969C155.583 48.2969 155.983 48.3359 156.323 48.4141C156.667 48.4883 156.964 48.6172 157.214 48.8008C157.46 48.9805 157.648 49.2129 157.776 49.498C157.905 49.7832 157.97 50.1367 157.97 50.5586V55ZM156.874 53.3887V51.5664C156.538 51.5859 156.142 51.6152 155.685 51.6543C155.231 51.6934 154.872 51.75 154.606 51.8242C154.29 51.9141 154.034 52.0547 153.839 52.2461C153.644 52.4336 153.546 52.6934 153.546 53.0254C153.546 53.4004 153.659 53.6836 153.886 53.875C154.112 54.0625 154.458 54.1562 154.923 54.1562C155.31 54.1562 155.663 54.082 155.983 53.9336C156.304 53.7812 156.601 53.5996 156.874 53.3887ZM164.919 55H163.818V54.3145C163.501 54.5879 163.171 54.8008 162.828 54.9531C162.484 55.1055 162.111 55.1816 161.709 55.1816C160.927 55.1816 160.306 54.8809 159.845 54.2793C159.388 53.6777 159.16 52.8438 159.16 51.7773C159.16 51.2227 159.238 50.7285 159.394 50.2949C159.554 49.8613 159.769 49.4922 160.039 49.1875C160.304 48.8906 160.613 48.6641 160.964 48.5078C161.32 48.3516 161.687 48.2734 162.066 48.2734C162.41 48.2734 162.714 48.3105 162.98 48.3848C163.246 48.4551 163.525 48.5664 163.818 48.7188V45.8828H164.919V55ZM163.818 53.3887V49.6328C163.521 49.5 163.255 49.4082 163.021 49.3574C162.787 49.3066 162.531 49.2812 162.253 49.2812C161.636 49.2812 161.156 49.4961 160.812 49.9258C160.468 50.3555 160.296 50.9648 160.296 51.7539C160.296 52.5312 160.429 53.123 160.695 53.5293C160.96 53.9316 161.386 54.1328 161.972 54.1328C162.285 54.1328 162.601 54.0645 162.921 53.9277C163.242 53.7871 163.541 53.6074 163.818 53.3887ZM176.938 47.2773C177.293 47.668 177.565 48.1465 177.752 48.7129C177.944 49.2793 178.04 49.9219 178.04 50.6406C178.04 51.3594 177.942 52.0039 177.747 52.5742C177.555 53.1406 177.286 53.6133 176.938 53.9922C176.579 54.3867 176.153 54.6836 175.661 54.8828C175.172 55.082 174.614 55.1816 173.985 55.1816C173.372 55.1816 172.813 55.0801 172.309 54.877C171.809 54.6738 171.383 54.3789 171.032 53.9922C170.68 53.6055 170.409 53.1309 170.217 52.5684C170.03 52.0059 169.936 51.3633 169.936 50.6406C169.936 49.9297 170.03 49.293 170.217 48.7305C170.405 48.1641 170.678 47.6797 171.038 47.2773C171.381 46.8945 171.807 46.6016 172.315 46.3984C172.827 46.1953 173.383 46.0938 173.985 46.0938C174.61 46.0938 175.17 46.1973 175.666 46.4043C176.166 46.6074 176.59 46.8984 176.938 47.2773ZM176.833 50.6406C176.833 49.5078 176.579 48.6348 176.071 48.0215C175.563 47.4043 174.87 47.0957 173.991 47.0957C173.104 47.0957 172.407 47.4043 171.899 48.0215C171.395 48.6348 171.143 49.5078 171.143 50.6406C171.143 51.7852 171.401 52.6621 171.916 53.2715C172.432 53.877 173.124 54.1797 173.991 54.1797C174.858 54.1797 175.547 53.877 176.059 53.2715C176.575 52.6621 176.833 51.7852 176.833 50.6406ZM182.833 46.9492H182.774C182.653 46.9141 182.495 46.8789 182.3 46.8438C182.104 46.8047 181.933 46.7852 181.784 46.7852C181.311 46.7852 180.968 46.8906 180.753 47.1016C180.542 47.3086 180.436 47.6855 180.436 48.2324V48.4551H182.423V49.3809H180.472V55H179.37V49.3809H178.626V48.4551H179.37V48.2383C179.37 47.4609 179.563 46.8652 179.95 46.4512C180.337 46.0332 180.895 45.8242 181.626 45.8242C181.872 45.8242 182.093 45.8359 182.288 45.8594C182.487 45.8828 182.669 45.9102 182.833 45.9414V46.9492ZM186.572 46.9492H186.513C186.392 46.9141 186.234 46.8789 186.039 46.8438C185.843 46.8047 185.671 46.7852 185.523 46.7852C185.05 46.7852 184.706 46.8906 184.492 47.1016C184.281 47.3086 184.175 47.6855 184.175 48.2324V48.4551H186.162V49.3809H184.21V55H183.109V49.3809H182.365V48.4551H183.109V48.2383C183.109 47.4609 183.302 46.8652 183.689 46.4512C184.076 46.0332 184.634 45.8242 185.365 45.8242C185.611 45.8242 185.831 45.8359 186.027 45.8594C186.226 45.8828 186.408 45.9102 186.572 45.9414V46.9492ZM191.629 54.5898C191.262 54.7656 190.912 54.9023 190.58 55C190.252 55.0977 189.902 55.1465 189.531 55.1465C189.059 55.1465 188.625 55.0781 188.23 54.9414C187.836 54.8008 187.498 54.5898 187.217 54.3086C186.932 54.0273 186.711 53.6719 186.555 53.2422C186.398 52.8125 186.32 52.3105 186.32 51.7363C186.32 50.666 186.613 49.8262 187.199 49.2168C187.789 48.6074 188.566 48.3027 189.531 48.3027C189.906 48.3027 190.273 48.3555 190.633 48.4609C190.996 48.5664 191.328 48.6953 191.629 48.8477V50.0723H191.57C191.234 49.8105 190.887 49.6094 190.527 49.4688C190.172 49.3281 189.824 49.2578 189.484 49.2578C188.859 49.2578 188.365 49.4688 188.002 49.8906C187.643 50.3086 187.463 50.9238 187.463 51.7363C187.463 52.5254 187.639 53.1328 187.99 53.5586C188.346 53.9805 188.844 54.1914 189.484 54.1914C189.707 54.1914 189.934 54.1621 190.164 54.1035C190.394 54.0449 190.601 53.9688 190.785 53.875C190.945 53.793 191.096 53.707 191.236 53.6172C191.377 53.5234 191.488 53.4434 191.57 53.377H191.629V54.5898ZM198.227 48.4551L194.407 57.4141H193.229L194.448 54.6836L191.84 48.4551H193.036L195.045 53.3066L197.073 48.4551H198.227ZM203.923 54.5898C203.556 54.7656 203.206 54.9023 202.874 55C202.546 55.0977 202.196 55.1465 201.825 55.1465C201.352 55.1465 200.919 55.0781 200.524 54.9414C200.13 54.8008 199.792 54.5898 199.511 54.3086C199.225 54.0273 199.005 53.6719 198.849 53.2422C198.692 52.8125 198.614 52.3105 198.614 51.7363C198.614 50.666 198.907 49.8262 199.493 49.2168C200.083 48.6074 200.86 48.3027 201.825 48.3027C202.2 48.3027 202.567 48.3555 202.927 48.4609C203.29 48.5664 203.622 48.6953 203.923 48.8477V50.0723H203.864C203.528 49.8105 203.181 49.6094 202.821 49.4688C202.466 49.3281 202.118 49.2578 201.778 49.2578C201.153 49.2578 200.659 49.4688 200.296 49.8906C199.936 50.3086 199.757 50.9238 199.757 51.7363C199.757 52.5254 199.932 53.1328 200.284 53.5586C200.64 53.9805 201.138 54.1914 201.778 54.1914C202.001 54.1914 202.227 54.1621 202.458 54.1035C202.688 54.0449 202.895 53.9688 203.079 53.875C203.239 53.793 203.39 53.707 203.53 53.6172C203.671 53.5234 203.782 53.4434 203.864 53.377H203.923V54.5898ZM205.974 55H204.872V45.8828H205.974V55ZM213.152 51.8418H208.33C208.33 52.2441 208.39 52.5957 208.512 52.8965C208.633 53.1934 208.799 53.4375 209.01 53.6289C209.213 53.8164 209.453 53.957 209.73 54.0508C210.012 54.1445 210.32 54.1914 210.656 54.1914C211.101 54.1914 211.549 54.1035 211.998 53.9277C212.451 53.748 212.773 53.5723 212.965 53.4004H213.023V54.6016C212.652 54.7578 212.273 54.8887 211.887 54.9941C211.5 55.0996 211.094 55.1523 210.668 55.1523C209.582 55.1523 208.734 54.8594 208.125 54.2734C207.515 53.6836 207.211 52.8477 207.211 51.7656C207.211 50.6953 207.502 49.8457 208.084 49.2168C208.67 48.5879 209.439 48.2734 210.392 48.2734C211.275 48.2734 211.955 48.5312 212.431 49.0469C212.912 49.5625 213.152 50.2949 213.152 51.2441V51.8418ZM212.08 50.998C212.076 50.4199 211.93 49.9727 211.64 49.6562C211.355 49.3398 210.92 49.1816 210.334 49.1816C209.744 49.1816 209.273 49.3555 208.922 49.7031C208.574 50.0508 208.377 50.4824 208.33 50.998H212.08ZM17.8789 65.9121C17.8789 66.2988 17.8105 66.6582 17.6738 66.9902C17.541 67.3184 17.3535 67.6035 17.1113 67.8457C16.8105 68.1465 16.4551 68.373 16.0449 68.5254C15.6348 68.6738 15.1172 68.748 14.4922 68.748H13.332V72H12.1719V63.2754H14.5391C15.0625 63.2754 15.5059 63.3203 15.8691 63.4102C16.2324 63.4961 16.5547 63.6328 16.8359 63.8203C17.168 64.043 17.4238 64.3203 17.6035 64.6523C17.7871 64.9844 17.8789 65.4043 17.8789 65.9121ZM16.6719 65.9414C16.6719 65.6406 16.6191 65.3789 16.5137 65.1562C16.4082 64.9336 16.248 64.752 16.0332 64.6113C15.8457 64.4902 15.6309 64.4043 15.3887 64.3535C15.1504 64.2988 14.8477 64.2715 14.4805 64.2715H13.332V67.7578H14.3105C14.7793 67.7578 15.1602 67.7168 15.4531 67.6348C15.7461 67.5488 15.9844 67.4141 16.168 67.2305C16.3516 67.043 16.4805 66.8457 16.5547 66.6387C16.6328 66.4316 16.6719 66.1992 16.6719 65.9414ZM23.6391 72H22.5434V71.3027C22.4458 71.3691 22.313 71.4629 22.145 71.584C21.9809 71.7012 21.8208 71.7949 21.6645 71.8652C21.4809 71.9551 21.27 72.0293 21.0317 72.0879C20.7934 72.1504 20.5141 72.1816 20.1938 72.1816C19.604 72.1816 19.104 71.9863 18.6938 71.5957C18.2837 71.2051 18.0786 70.707 18.0786 70.1016C18.0786 69.6055 18.1841 69.2051 18.395 68.9004C18.6098 68.5918 18.9145 68.3496 19.3091 68.1738C19.7075 67.998 20.186 67.8789 20.7446 67.8164C21.3032 67.7539 21.9028 67.707 22.5434 67.6758V67.5059C22.5434 67.2559 22.4985 67.0488 22.4087 66.8848C22.3227 66.7207 22.1977 66.5918 22.0337 66.498C21.8774 66.4082 21.6899 66.3477 21.4712 66.3164C21.2524 66.2852 21.0239 66.2695 20.7856 66.2695C20.4966 66.2695 20.1743 66.3086 19.8188 66.3867C19.4634 66.4609 19.0962 66.5703 18.7173 66.7148H18.6587V65.5957C18.8735 65.5371 19.1841 65.4727 19.5903 65.4023C19.9966 65.332 20.397 65.2969 20.7915 65.2969C21.2524 65.2969 21.6528 65.3359 21.9927 65.4141C22.3364 65.4883 22.6333 65.6172 22.8833 65.8008C23.1294 65.9805 23.3169 66.2129 23.4458 66.498C23.5747 66.7832 23.6391 67.1367 23.6391 67.5586V72ZM22.5434 70.3887V68.5664C22.2075 68.5859 21.811 68.6152 21.354 68.6543C20.9009 68.6934 20.5415 68.75 20.2759 68.8242C19.9595 68.9141 19.7036 69.0547 19.5083 69.2461C19.313 69.4336 19.2153 69.6934 19.2153 70.0254C19.2153 70.4004 19.3286 70.6836 19.5552 70.875C19.7817 71.0625 20.1274 71.1562 20.5923 71.1562C20.979 71.1562 21.3325 71.082 21.6528 70.9336C21.9731 70.7812 22.27 70.5996 22.5434 70.3887ZM30.8466 65.4551L27.0263 74.4141H25.8486L27.0673 71.6836L24.4599 65.4551H25.6552L27.665 70.3066L29.6923 65.4551H30.8466ZM36.4838 70.1133C36.4838 70.7109 36.2358 71.2012 35.7397 71.584C35.2475 71.9668 34.5737 72.1582 33.7182 72.1582C33.2338 72.1582 32.7885 72.1016 32.3823 71.9883C31.9799 71.8711 31.642 71.7441 31.3686 71.6074V70.3711H31.4272C31.7748 70.6328 32.1616 70.8418 32.5873 70.998C33.0131 71.1504 33.4213 71.2266 33.812 71.2266C34.2963 71.2266 34.6752 71.1484 34.9487 70.9922C35.2221 70.8359 35.3588 70.5898 35.3588 70.2539C35.3588 69.9961 35.2846 69.8008 35.1362 69.668C34.9877 69.5352 34.7026 69.4219 34.2807 69.3281C34.1245 69.293 33.9194 69.252 33.6655 69.2051C33.4155 69.1582 33.187 69.1074 32.9799 69.0527C32.4057 68.9004 31.9975 68.6777 31.7553 68.3848C31.517 68.0879 31.3979 67.7246 31.3979 67.2949C31.3979 67.0254 31.4526 66.7715 31.562 66.5332C31.6752 66.2949 31.8452 66.082 32.0717 65.8945C32.2905 65.7109 32.5678 65.5664 32.9037 65.4609C33.2436 65.3516 33.6225 65.2969 34.0405 65.2969C34.4311 65.2969 34.8256 65.3457 35.2241 65.4434C35.6264 65.5371 35.9604 65.6523 36.226 65.7891V66.9668H36.1674C35.8862 66.7598 35.5444 66.5859 35.142 66.4453C34.7397 66.3008 34.3452 66.2285 33.9584 66.2285C33.5561 66.2285 33.2162 66.3066 32.9389 66.4629C32.6616 66.6152 32.5229 66.8438 32.5229 67.1484C32.5229 67.418 32.6069 67.6211 32.7748 67.7578C32.9389 67.8945 33.2045 68.0059 33.5717 68.0918C33.7748 68.1387 34.0014 68.1855 34.2514 68.2324C34.5053 68.2793 34.7162 68.3223 34.8842 68.3613C35.3959 68.4785 35.7905 68.6797 36.0678 68.9648C36.3452 69.2539 36.4838 69.6367 36.4838 70.1133ZM38.6991 72H37.5976V62.8828H38.6991V72ZM41.5824 64.3594H40.3402V63.2168H41.5824V64.3594ZM41.5121 72H40.4105V65.4551H41.5121V72ZM48.9716 68.6484C48.9716 69.1797 48.8954 69.666 48.743 70.1074C48.5907 70.5449 48.3759 70.916 48.0985 71.2207C47.8407 71.5098 47.536 71.7344 47.1845 71.8945C46.8368 72.0508 46.4677 72.1289 46.077 72.1289C45.7372 72.1289 45.4286 72.0918 45.1513 72.0176C44.8778 71.9434 44.5985 71.8281 44.3134 71.6719V74.4141H43.2118V65.4551H44.3134V66.1406C44.6063 65.8945 44.9345 65.6895 45.2977 65.5254C45.6649 65.3574 46.0555 65.2734 46.4696 65.2734C47.2587 65.2734 47.872 65.5723 48.3095 66.1699C48.7509 66.7637 48.9716 67.5898 48.9716 68.6484ZM47.8348 68.6777C47.8348 67.8887 47.7001 67.2988 47.4305 66.9082C47.161 66.5176 46.747 66.3223 46.1884 66.3223C45.872 66.3223 45.5536 66.3906 45.2333 66.5273C44.913 66.6641 44.6063 66.8438 44.3134 67.0664V70.7754C44.6259 70.916 44.8934 71.0117 45.1161 71.0625C45.3427 71.1133 45.5985 71.1387 45.8837 71.1387C46.497 71.1387 46.9755 70.9316 47.3192 70.5176C47.663 70.1035 47.8348 69.4902 47.8348 68.6777ZM59.5252 68.7305C59.5252 69.7969 59.2518 70.6387 58.7049 71.2559C58.158 71.873 57.4256 72.1816 56.5077 72.1816C55.5819 72.1816 54.8455 71.873 54.2987 71.2559C53.7557 70.6387 53.4842 69.7969 53.4842 68.7305C53.4842 67.6641 53.7557 66.8223 54.2987 66.2051C54.8455 65.584 55.5819 65.2734 56.5077 65.2734C57.4256 65.2734 58.158 65.584 58.7049 66.2051C59.2518 66.8223 59.5252 67.6641 59.5252 68.7305ZM58.3885 68.7305C58.3885 67.8828 58.2225 67.2539 57.8905 66.8438C57.5584 66.4297 57.0975 66.2227 56.5077 66.2227C55.91 66.2227 55.4452 66.4297 55.1131 66.8438C54.785 67.2539 54.6209 67.8828 54.6209 68.7305C54.6209 69.5508 54.787 70.1738 55.119 70.5996C55.451 71.0215 55.9139 71.2324 56.5077 71.2324C57.0936 71.2324 57.5526 71.0234 57.8846 70.6055C58.2205 70.1836 58.3885 69.5586 58.3885 68.7305ZM64.2777 63.9492H64.2191C64.098 63.9141 63.9398 63.8789 63.7445 63.8438C63.5491 63.8047 63.3773 63.7852 63.2288 63.7852C62.7562 63.7852 62.4124 63.8906 62.1976 64.1016C61.9866 64.3086 61.8812 64.6855 61.8812 65.2324V65.4551H63.8675V66.3809H61.9163V72H60.8148V66.3809H60.0706V65.4551H60.8148V65.2383C60.8148 64.4609 61.0081 63.8652 61.3948 63.4512C61.7816 63.0332 62.3402 62.8242 63.0706 62.8242C63.3167 62.8242 63.5374 62.8359 63.7327 62.8594C63.932 62.8828 64.1136 62.9102 64.2777 62.9414V63.9492ZM73.9934 68.6484C73.9934 69.1797 73.9173 69.666 73.7649 70.1074C73.6126 70.5449 73.3977 70.916 73.1204 71.2207C72.8626 71.5098 72.5579 71.7344 72.2063 71.8945C71.8587 72.0508 71.4895 72.1289 71.0989 72.1289C70.7591 72.1289 70.4505 72.0918 70.1731 72.0176C69.8997 71.9434 69.6204 71.8281 69.3352 71.6719V74.4141H68.2337V65.4551H69.3352V66.1406C69.6282 65.8945 69.9563 65.6895 70.3196 65.5254C70.6868 65.3574 71.0774 65.2734 71.4915 65.2734C72.2805 65.2734 72.8938 65.5723 73.3313 66.1699C73.7727 66.7637 73.9934 67.5898 73.9934 68.6484ZM72.8567 68.6777C72.8567 67.8887 72.722 67.2988 72.4524 66.9082C72.1829 66.5176 71.7688 66.3223 71.2102 66.3223C70.8938 66.3223 70.5755 66.3906 70.2552 66.5273C69.9348 66.6641 69.6282 66.8438 69.3352 67.0664V70.7754C69.6477 70.916 69.9153 71.0117 70.138 71.0625C70.3645 71.1133 70.6204 71.1387 70.9055 71.1387C71.5188 71.1387 71.9973 70.9316 72.3411 70.5176C72.6848 70.1035 72.8567 69.4902 72.8567 68.6777ZM79.3142 66.6562H79.2556C79.0916 66.6172 78.9314 66.5898 78.7752 66.5742C78.6228 66.5547 78.4412 66.5449 78.2302 66.5449C77.8904 66.5449 77.5623 66.6211 77.2459 66.7734C76.9295 66.9219 76.6248 67.1152 76.3318 67.3535V72H75.2302V65.4551H76.3318V66.4219C76.7693 66.0703 77.1541 65.8223 77.4861 65.6777C77.822 65.5293 78.1638 65.4551 78.5115 65.4551C78.7029 65.4551 78.8416 65.4609 78.9275 65.4727C79.0134 65.4805 79.1423 65.498 79.3142 65.5254V66.6562ZM85.4495 68.7305C85.4495 69.7969 85.176 70.6387 84.6291 71.2559C84.0823 71.873 83.3498 72.1816 82.4319 72.1816C81.5061 72.1816 80.7698 71.873 80.2229 71.2559C79.6799 70.6387 79.4084 69.7969 79.4084 68.7305C79.4084 67.6641 79.6799 66.8223 80.2229 66.2051C80.7698 65.584 81.5061 65.2734 82.4319 65.2734C83.3498 65.2734 84.0823 65.584 84.6291 66.2051C85.176 66.8223 85.4495 67.6641 85.4495 68.7305ZM84.3127 68.7305C84.3127 67.8828 84.1467 67.2539 83.8147 66.8438C83.4827 66.4297 83.0217 66.2227 82.4319 66.2227C81.8342 66.2227 81.3694 66.4297 81.0373 66.8438C80.7092 67.2539 80.5452 67.8828 80.5452 68.7305C80.5452 69.5508 80.7112 70.1738 81.0432 70.5996C81.3752 71.0215 81.8381 71.2324 82.4319 71.2324C83.0178 71.2324 83.4768 71.0234 83.8088 70.6055C84.1448 70.1836 84.3127 69.5586 84.3127 68.7305ZM91.5202 71.5898C91.153 71.7656 90.8034 71.9023 90.4714 72C90.1433 72.0977 89.7937 72.1465 89.4226 72.1465C88.9499 72.1465 88.5163 72.0781 88.1218 71.9414C87.7273 71.8008 87.3894 71.5898 87.1081 71.3086C86.823 71.0273 86.6023 70.6719 86.446 70.2422C86.2898 69.8125 86.2116 69.3105 86.2116 68.7363C86.2116 67.666 86.5046 66.8262 87.0905 66.2168C87.6804 65.6074 88.4577 65.3027 89.4226 65.3027C89.7976 65.3027 90.1648 65.3555 90.5241 65.4609C90.8874 65.5664 91.2195 65.6953 91.5202 65.8477V67.0723H91.4616C91.1257 66.8105 90.778 66.6094 90.4187 66.4688C90.0632 66.3281 89.7155 66.2578 89.3757 66.2578C88.7507 66.2578 88.2566 66.4688 87.8933 66.8906C87.5339 67.3086 87.3542 67.9238 87.3542 68.7363C87.3542 69.5254 87.53 70.1328 87.8816 70.5586C88.237 70.9805 88.7351 71.1914 89.3757 71.1914C89.5984 71.1914 89.8249 71.1621 90.0554 71.1035C90.2859 71.0449 90.4929 70.9688 90.6765 70.875C90.8366 70.793 90.987 70.707 91.1277 70.6172C91.2683 70.5234 91.3796 70.4434 91.4616 70.377H91.5202V71.5898ZM97.9367 68.8418H93.1145C93.1145 69.2441 93.175 69.5957 93.2961 69.8965C93.4172 70.1934 93.5832 70.4375 93.7941 70.6289C93.9973 70.8164 94.2375 70.957 94.5148 71.0508C94.7961 71.1445 95.1047 71.1914 95.4406 71.1914C95.8859 71.1914 96.3332 71.1035 96.7824 70.9277C97.2355 70.748 97.5578 70.5723 97.7492 70.4004H97.8078V71.6016C97.4367 71.7578 97.0578 71.8887 96.6711 71.9941C96.2844 72.0996 95.8781 72.1523 95.4523 72.1523C94.3664 72.1523 93.5188 71.8594 92.9094 71.2734C92.3 70.6836 91.9953 69.8477 91.9953 68.7656C91.9953 67.6953 92.2863 66.8457 92.8684 66.2168C93.4543 65.5879 94.2238 65.2734 95.177 65.2734C96.0598 65.2734 96.7395 65.5312 97.216 66.0469C97.6965 66.5625 97.9367 67.2949 97.9367 68.2441V68.8418ZM96.8645 67.998C96.8605 67.4199 96.7141 66.9727 96.425 66.6562C96.1398 66.3398 95.7043 66.1816 95.1184 66.1816C94.5285 66.1816 94.0578 66.3555 93.7063 66.7031C93.3586 67.0508 93.1613 67.4824 93.1145 67.998H96.8645ZM103.802 70.1133C103.802 70.7109 103.554 71.2012 103.058 71.584C102.566 71.9668 101.892 72.1582 101.037 72.1582C100.552 72.1582 100.107 72.1016 99.7009 71.9883C99.2985 71.8711 98.9606 71.7441 98.6872 71.6074V70.3711H98.7458C99.0934 70.6328 99.4802 70.8418 99.9059 70.998C100.332 71.1504 100.74 71.2266 101.131 71.2266C101.615 71.2266 101.994 71.1484 102.267 70.9922C102.541 70.8359 102.677 70.5898 102.677 70.2539C102.677 69.9961 102.603 69.8008 102.455 69.668C102.306 69.5352 102.021 69.4219 101.599 69.3281C101.443 69.293 101.238 69.252 100.984 69.2051C100.734 69.1582 100.506 69.1074 100.299 69.0527C99.7243 68.9004 99.3161 68.6777 99.0739 68.3848C98.8356 68.0879 98.7165 67.7246 98.7165 67.2949C98.7165 67.0254 98.7712 66.7715 98.8805 66.5332C98.9938 66.2949 99.1637 66.082 99.3903 65.8945C99.6091 65.7109 99.8864 65.5664 100.222 65.4609C100.562 65.3516 100.941 65.2969 101.359 65.2969C101.75 65.2969 102.144 65.3457 102.543 65.4434C102.945 65.5371 103.279 65.6523 103.545 65.7891V66.9668H103.486C103.205 66.7598 102.863 66.5859 102.461 66.4453C102.058 66.3008 101.664 66.2285 101.277 66.2285C100.875 66.2285 100.535 66.3066 100.257 66.4629C99.9802 66.6152 99.8415 66.8438 99.8415 67.1484C99.8415 67.418 99.9255 67.6211 100.093 67.7578C100.257 67.8945 100.523 68.0059 100.89 68.0918C101.093 68.1387 101.32 68.1855 101.57 68.2324C101.824 68.2793 102.035 68.3223 102.203 68.3613C102.715 68.4785 103.109 68.6797 103.386 68.9648C103.664 69.2539 103.802 69.6367 103.802 70.1133ZM109.58 70.1133C109.58 70.7109 109.332 71.2012 108.836 71.584C108.344 71.9668 107.67 72.1582 106.815 72.1582C106.33 72.1582 105.885 72.1016 105.479 71.9883C105.076 71.8711 104.738 71.7441 104.465 71.6074V70.3711H104.524C104.871 70.6328 105.258 70.8418 105.684 70.998C106.11 71.1504 106.518 71.2266 106.908 71.2266C107.393 71.2266 107.772 71.1484 108.045 70.9922C108.319 70.8359 108.455 70.5898 108.455 70.2539C108.455 69.9961 108.381 69.8008 108.233 69.668C108.084 69.5352 107.799 69.4219 107.377 69.3281C107.221 69.293 107.016 69.252 106.762 69.2051C106.512 69.1582 106.283 69.1074 106.076 69.0527C105.502 68.9004 105.094 68.6777 104.852 68.3848C104.613 68.0879 104.494 67.7246 104.494 67.2949C104.494 67.0254 104.549 66.7715 104.658 66.5332C104.772 66.2949 104.942 66.082 105.168 65.8945C105.387 65.7109 105.664 65.5664 106 65.4609C106.34 65.3516 106.719 65.2969 107.137 65.2969C107.528 65.2969 107.922 65.3457 108.32 65.4434C108.723 65.5371 109.057 65.6523 109.322 65.7891V66.9668H109.264C108.983 66.7598 108.641 66.5859 108.238 66.4453C107.836 66.3008 107.442 66.2285 107.055 66.2285C106.653 66.2285 106.313 66.3066 106.035 66.4629C105.758 66.6152 105.619 66.8438 105.619 67.1484C105.619 67.418 105.703 67.6211 105.871 67.7578C106.035 67.8945 106.301 68.0059 106.668 68.0918C106.871 68.1387 107.098 68.1855 107.348 68.2324C107.602 68.2793 107.813 68.3223 107.981 68.3613C108.492 68.4785 108.887 68.6797 109.164 68.9648C109.442 69.2539 109.58 69.6367 109.58 70.1133ZM116.161 68.8418H111.339C111.339 69.2441 111.399 69.5957 111.52 69.8965C111.641 70.1934 111.807 70.4375 112.018 70.6289C112.221 70.8164 112.462 70.957 112.739 71.0508C113.02 71.1445 113.329 71.1914 113.665 71.1914C114.11 71.1914 114.557 71.1035 115.006 70.9277C115.46 70.748 115.782 70.5723 115.973 70.4004H116.032V71.6016C115.661 71.7578 115.282 71.8887 114.895 71.9941C114.508 72.0996 114.102 72.1523 113.676 72.1523C112.59 72.1523 111.743 71.8594 111.133 71.2734C110.524 70.6836 110.219 69.8477 110.219 68.7656C110.219 67.6953 110.51 66.8457 111.092 66.2168C111.678 65.5879 112.448 65.2734 113.401 65.2734C114.284 65.2734 114.964 65.5312 115.44 66.0469C115.921 66.5625 116.161 67.2949 116.161 68.2441V68.8418ZM115.089 67.998C115.085 67.4199 114.938 66.9727 114.649 66.6562C114.364 66.3398 113.928 66.1816 113.342 66.1816C112.753 66.1816 112.282 66.3555 111.93 66.7031C111.583 67.0508 111.385 67.4824 111.339 67.998H115.089ZM122.659 72H121.558V71.3145C121.241 71.5879 120.911 71.8008 120.567 71.9531C120.224 72.1055 119.851 72.1816 119.448 72.1816C118.667 72.1816 118.046 71.8809 117.585 71.2793C117.128 70.6777 116.9 69.8438 116.9 68.7773C116.9 68.2227 116.978 67.7285 117.134 67.2949C117.294 66.8613 117.509 66.4922 117.778 66.1875C118.044 65.8906 118.353 65.6641 118.704 65.5078C119.06 65.3516 119.427 65.2734 119.806 65.2734C120.15 65.2734 120.454 65.3105 120.72 65.3848C120.985 65.4551 121.265 65.5664 121.558 65.7188V62.8828H122.659V72ZM121.558 70.3887V66.6328C121.261 66.5 120.995 66.4082 120.761 66.3574C120.526 66.3066 120.271 66.2812 119.993 66.2812C119.376 66.2812 118.896 66.4961 118.552 66.9258C118.208 67.3555 118.036 67.9648 118.036 68.7539C118.036 69.5312 118.169 70.123 118.435 70.5293C118.7 70.9316 119.126 71.1328 119.712 71.1328C120.025 71.1328 120.341 71.0645 120.661 70.9277C120.982 70.7871 121.28 70.6074 121.558 70.3887ZM137.637 72H136.535V68.2734C136.535 67.9922 136.522 67.7207 136.494 67.459C136.471 67.1973 136.418 66.9883 136.336 66.832C136.246 66.6641 136.117 66.5371 135.949 66.4512C135.781 66.3652 135.539 66.3223 135.223 66.3223C134.914 66.3223 134.606 66.4004 134.297 66.5566C133.988 66.709 133.68 66.9043 133.371 67.1426C133.383 67.2324 133.393 67.3379 133.4 67.459C133.408 67.5762 133.412 67.6934 133.412 67.8105V72H132.311V68.2734C132.311 67.9844 132.297 67.7109 132.27 67.4531C132.246 67.1914 132.193 66.9824 132.111 66.8262C132.022 66.6582 131.893 66.5332 131.725 66.4512C131.557 66.3652 131.315 66.3223 130.998 66.3223C130.697 66.3223 130.395 66.3965 130.09 66.5449C129.789 66.6934 129.488 66.8828 129.188 67.1133V72H128.086V65.4551H129.188V66.1816C129.531 65.8965 129.873 65.6738 130.213 65.5137C130.557 65.3535 130.922 65.2734 131.309 65.2734C131.754 65.2734 132.131 65.3672 132.44 65.5547C132.752 65.7422 132.984 66.002 133.137 66.334C133.582 65.959 133.988 65.6895 134.356 65.5254C134.723 65.3574 135.115 65.2734 135.533 65.2734C136.252 65.2734 136.781 65.4922 137.121 65.9297C137.465 66.3633 137.637 66.9707 137.637 67.752V72ZM144.856 68.7305C144.856 69.7969 144.583 70.6387 144.036 71.2559C143.489 71.873 142.756 72.1816 141.838 72.1816C140.913 72.1816 140.176 71.873 139.629 71.2559C139.086 70.6387 138.815 69.7969 138.815 68.7305C138.815 67.6641 139.086 66.8223 139.629 66.2051C140.176 65.584 140.913 65.2734 141.838 65.2734C142.756 65.2734 143.489 65.584 144.036 66.2051C144.583 66.8223 144.856 67.6641 144.856 68.7305ZM143.719 68.7305C143.719 67.8828 143.553 67.2539 143.221 66.8438C142.889 66.4297 142.428 66.2227 141.838 66.2227C141.241 66.2227 140.776 66.4297 140.444 66.8438C140.116 67.2539 139.952 67.8828 139.952 68.7305C139.952 69.5508 140.118 70.1738 140.45 70.5996C140.782 71.0215 141.245 71.2324 141.838 71.2324C142.424 71.2324 142.883 71.0234 143.215 70.6055C143.551 70.1836 143.719 69.5586 143.719 68.7305ZM151.56 72H150.458V68.2734C150.458 67.9727 150.44 67.6914 150.405 67.4297C150.37 67.1641 150.306 66.957 150.212 66.8086C150.114 66.6445 149.974 66.5234 149.79 66.4453C149.606 66.3633 149.368 66.3223 149.075 66.3223C148.774 66.3223 148.46 66.3965 148.132 66.5449C147.804 66.6934 147.489 66.8828 147.189 67.1133V72H146.087V65.4551H147.189V66.1816C147.532 65.8965 147.888 65.6738 148.255 65.5137C148.622 65.3535 148.999 65.2734 149.386 65.2734C150.093 65.2734 150.632 65.4863 151.003 65.9121C151.374 66.3379 151.56 66.9512 151.56 67.752V72ZM156.599 71.9414C156.392 71.9961 156.166 72.041 155.919 72.0762C155.677 72.1113 155.46 72.1289 155.269 72.1289C154.601 72.1289 154.093 71.9492 153.746 71.5898C153.398 71.2305 153.224 70.6543 153.224 69.8613V66.3809H152.48V65.4551H153.224V63.5742H154.326V65.4551H156.599V66.3809H154.326V69.3633C154.326 69.707 154.334 69.9766 154.349 70.1719C154.365 70.3633 154.419 70.543 154.513 70.7109C154.599 70.8672 154.716 70.9824 154.865 71.0566C155.017 71.127 155.248 71.1621 155.556 71.1621C155.736 71.1621 155.923 71.1367 156.119 71.0859C156.314 71.0312 156.455 70.9863 156.541 70.9512H156.599V71.9414ZM162.928 72H161.826V68.2734C161.826 67.9727 161.809 67.6914 161.773 67.4297C161.738 67.1641 161.674 66.957 161.58 66.8086C161.482 66.6445 161.342 66.5234 161.158 66.4453C160.975 66.3633 160.736 66.3223 160.443 66.3223C160.143 66.3223 159.828 66.3965 159.5 66.5449C159.172 66.6934 158.857 66.8828 158.557 67.1133V72H157.455V62.8828H158.557V66.1816C158.9 65.8965 159.256 65.6738 159.623 65.5137C159.99 65.3535 160.367 65.2734 160.754 65.2734C161.461 65.2734 162 65.4863 162.371 65.9121C162.742 66.3379 162.928 66.9512 162.928 67.752V72ZM166.368 72H164.967V70.3301H166.368V72Z" fill="#384F69"/>
</g>
<rect x="0.744521" y="0.744521" width="369.511" height="87.511" rx="10.2555" stroke="url(#paint1_linear_1453_104608)" stroke-opacity="0.08" stroke-width="0.510959"/>
<defs>
<linearGradient id="paint0_linear_1453_104608" x1="36.3123" y1="6.61126" x2="207.578" y2="67.347" gradientUnits="userSpaceOnUse">
<stop stop-color="#003F88"/>
<stop offset="0.64989" stop-color="#03BCFF"/>
<stop offset="1" stop-color="#0076FF"/>
</linearGradient>
<linearGradient id="paint1_linear_1453_104608" x1="46.6996" y1="12.9068" x2="365.747" y2="109.173" gradientUnits="userSpaceOnUse">
<stop stop-color="#003F88"/>
<stop offset="0.64989" stop-color="#02D4FF"/>
<stop offset="1" stop-color="#0076FF"/>
</linearGradient>
<clipPath id="clip0_1453_104608">
<rect x="1" y="1" width="369" height="87" rx="10" fill="white"/>
</clipPath>
</defs>
</svg>
