<svg xmlns="http://www.w3.org/2000/svg" width="371" height="89" fill="none"><g clip-path="url(#a)"><rect width="369" height="87" x="1" y="1" fill="#E3F0FF" rx="10"/><path fill="#C8E2FF" d="M377.084 95c-80.754-2.138-99.279-5.056-103.161-9.992-3.41-5.165-3.409-5.165 36.103-33.833 17.91-12.983 46.236-33.544 55.445-42.336a691 691 0 0 0-69.91-7.65 4.44 4.44 0 0 1-2.765-.297 4.52 4.52 0 0 1-2.065-1.889 4.7 4.7 0 0 1-.631-2.353 4.7 4.7 0 0 1 .629-2.354 4.6 4.6 0 0 1 1.718-1.706 4.53 4.53 0 0 1 2.333-.589c1.183 0 80.114 3.483 82.173 13.884.746 5.933-6.451 12.695-61.695 52.76-10.653 7.687-22.183 16.094-28.8 21.258 21.248 3.05 81.049 5.249 90.886 5.921a4.54 4.54 0 0 1 2.964 1.537 4.67 4.67 0 0 1 1.144 3.171 4.67 4.67 0 0 1-1.323 3.101A4.54 4.54 0 0 1 377.084 95"/><path fill="#fff" d="m289.329 4.618-9.251 23.227 21.116 8.41 9.25-23.227z"/><path fill="#000100" d="m310.459 12.912-21.116-8.407a.07.07 0 0 0-.088.037l-9.25 23.227a.07.07 0 0 0 .037.089l21.116 8.408a.1.1 0 0 0 .026.005.072.072 0 0 0 .063-.042L310.497 13a.07.07 0 0 0-.002-.051.07.07 0 0 0-.036-.038m-9.313 23.203-20.99-8.36 9.201-23.1 20.99 8.358z"/><path fill="#000" d="m296.773 23.282 5.082 2.022.316-.79-5.082-2.024zM287.07 19.419l8.447 3.363.316-.79-8.446-3.363zM291.094 24.69l7.802 3.106.316-.79-7.802-3.107zM285.811 22.587l4.017 1.6.317-.79-4.018-1.602zM284.551 25.754l7.931 3.157.316-.79-7.931-3.157zM300.596 13.794l5.045 2.009.316-.79-5.046-2.01zM290.859 9.917l8.447 3.364.316-.791-8.446-3.363zM293.965 14.824l10.415 4.147.316-.792-10.415-4.145zM289.6 13.085l3.166 1.26.316-.791-3.166-1.261zM288.335 16.252l10.559 4.205.316-.791-10.559-4.204z"/><path fill="#000100" d="M329.518 5.522c-.531 0-1.062.157-1.576.467-.256-.85-1.324-3.095-5.391-3.095-1.061 0-2.268.154-3.587.457-5.559 1.279-6.879.908-6.886.908a.22.22 0 0 0-.225.045c-.063.056-.088.138-.063.218.025.078.519 1.605 2.19 2.445-.701.094-1.568.358-2.216 1.034-.662.696-.963 1.693-.89 2.964.15 2.62 1.163 3.91 1.979 4.948.544.69.974 1.24.989 1.989.012.576-.328 1.195-.691 1.851-.797 1.453-1.794 3.263.985 5.303 3.774 2.772 7.259 4.178 10.352 4.178 3.228 0 5.929-1.562 8.027-4.638 3.284-4.819 2.959-11.964.743-16.091-1.027-1.923-2.356-2.983-3.74-2.983"/><path fill="#fff" d="M331.98 17.166q-.082 0-.15.006l.677 4.9c.503-.52 1.405-1.773 1.029-3.764-.176-.943-.943-1.142-1.556-1.142"/><path fill="#000" d="M331.972 16.937c-.243 0-.409.031-.409.031l.772 5.568s1.965-1.412 1.424-4.273c-.22-1.153-1.216-1.327-1.787-1.327m.69 4.595-.573-4.134c.694.032 1.102.351 1.214.95.288 1.52-.199 2.575-.641 3.184"/><path fill="#22CAFF" d="M332.014 35.048c-.974-.458-2.779-.72-4.945-.72-3.273 0-6.603.594-8.694 1.549-3.715 1.698-3.102 5.092-1.796 10.493.409 1.694 1.309 3.65 2.347 5.912 2.05 4.46 4.602 10.01 4.745 16.644.177 8.118-.146 15.57-.277 17.923h20.097c.205-3.928.404-31.339-6.619-45.605-1.477-3-3.472-5.547-4.858-6.196"/><path fill="#000100" d="M332.078 34.911c-.993-.466-2.819-.734-5.009-.734-3.291 0-6.647.598-8.757 1.562-3.82 1.747-3.204 5.19-1.88 10.665.412 1.705 1.312 3.663 2.36 5.944 2.043 4.447 4.587 9.98 4.73 16.581a255 255 0 0 1-.278 17.913.15.15 0 0 0 .149.157h20.096a.15.15 0 0 0 .15-.142c.302-5.778.069-32.063-6.633-45.68-1.491-3.027-3.519-5.605-4.928-6.266m11.272 51.79h-19.797c.077-1.438.458-9.157.269-17.776-.144-6.664-2.702-12.229-4.765-16.716-1.033-2.252-1.926-4.198-2.332-5.874-1.288-5.325-1.895-8.673 1.712-10.322 2.072-.947 5.379-1.535 8.63-1.535 2.149 0 3.927.256 4.883.705 1.353.634 3.323 3.154 4.787 6.127 6.624 13.452 6.902 39.352 6.613 45.39"/><path fill="#fff" d="M314.791 20.824c.076 2.047 1.234 3.062 1.838 3.456l-.424-4.935c-.459.069-1.456.354-1.414 1.48"/><path fill="#000" d="M314.553 20.833c.109 2.91 2.339 3.857 2.339 3.857l-.486-5.6s-1.916.073-1.853 1.743m.463-.017c-.031-.78.544-1.08.971-1.196l.36 4.162c-.568-.498-1.272-1.423-1.331-2.966"/><path fill="#fff" d="m329.223 29.726-7.83.986c.02.53.02 1.969-.346 3.65.706.23 3.189.999 5.016.999q.288 0 .549-.027c1.061-.112 2.022-.56 2.929-1.369-.07-.566-.366-2.943-.318-4.24"/><path fill="#000100" d="M329.376 29.733a.16.16 0 0 0-.048-.117.15.15 0 0 0-.12-.038l-7.83.986a.15.15 0 0 0-.131.153c.015.41.032 1.882-.344 3.612a.15.15 0 0 0 .099.175c.722.236 3.223 1.006 5.062 1.006q.296 0 .565-.027c1.096-.115 2.081-.574 3.015-1.406a.15.15 0 0 0 .05-.13c-.062-.477-.366-2.918-.318-4.215m.012 4.173c-.868.756-1.781 1.174-2.787 1.28-1.711.167-4.439-.625-5.376-.925.324-1.55.337-2.88.327-3.415l7.523-.947c-.021 1.26.22 3.282.313 4.007"/><path fill="#fff" d="M332.358 22.539c-.172-2.39-.866-6.87-1.324-8.984-.677-3.122-2.751-3.778-4.373-3.778-.767 0-1.331.155-1.337.156l-.06.017-.06-.015a9 9 0 0 0-2.229-.29c-3.793 0-6.202 2.608-6.376 3.946-.222 1.68-.18 6.706.25 8.888.092.461.168.985.252 1.547.337 2.325.762 5.217 2.678 6.935.464.417 1.161.442 1.898.47 1.04.037 2.215.082 2.779 1.342 3.273-.181 5.568-1.154 7.216-3.062 1.185-1.375.952-4.06.766-6.22q-.048-.5-.08-.953"/><path fill="#000" d="M331.261 13.506c-.732-3.375-3.069-3.961-4.6-3.961-.814 0-1.4.165-1.4.165a9.2 9.2 0 0 0-2.286-.297c-3.889 0-6.414 2.666-6.607 4.145-.23 1.754-.179 6.775.255 8.96.469 2.37.547 6.41 3 8.61 1.265 1.136 3.861-.298 4.68 1.88 2.976-.14 5.608-.91 7.544-3.152 1.436-1.663.91-5.028.742-7.337-.168-2.307-.847-6.787-1.328-9.013m.234 16.055c-1.579 1.826-3.775 2.775-6.898 2.971-.645-1.249-1.897-1.295-2.914-1.331-.693-.026-1.35-.051-1.752-.411-1.853-1.664-2.271-4.511-2.604-6.799a33 33 0 0 0-.251-1.558c-.428-2.16-.468-7.146-.249-8.815.165-1.271 2.487-3.745 6.148-3.745.71 0 1.439.095 2.172.282l.12.03.12-.031c.006-.002.543-.147 1.274-.147 1.537 0 3.504.623 4.147 3.596.457 2.111 1.148 6.574 1.321 8.952q.032.454.078.952c.181 2.117.412 4.752-.712 6.054"/><path fill="#000100" d="M332.48 21.433c-.721.45-1.608.723-2.68.723-1.319 0-2.071-.556-3.087-.715-1.355-.209-2.669.136-3.549.763-1.115.794-2.128 1.589-3.921 1.589-.985 0-1.819-.232-2.507-.62.387 2.404.648 5.95 2.887 7.96 1.266 1.135 3.862-.298 4.681 1.878 2.976-.139 5.608-.908 7.545-3.15 1.435-1.663.907-5.03.741-7.338-.023-.298-.06-.671-.11-1.09m-4.08 3.318c-.675.418-1.387.784-2.147 1.02-.751.24-1.559.326-2.343.308a1.06 1.06 0 0 1-1.045-1.033c-.024-.549.497-1.046 1.045-1.033a8 8 0 0 0 .821-.02c.021-.002.08-.01.126-.014a5 5 0 0 0 .381-.072q.234-.053.461-.125c.15-.046.294-.108.44-.159q.035-.013.07-.03.112-.051.222-.107a11 11 0 0 0 .913-.518c.496-.307 1.131-.087 1.429.372.313.475.088 1.125-.373 1.41"/><path fill="#000100" d="M327.503 23.024c-1.367 1.561-3.286 1.652-3.307 1.652a.216.216 0 0 0-.209.224.22.22 0 0 0 .221.205h.006c.087-.003 2.129-.102 3.617-1.8a.21.21 0 0 0-.021-.303.22.22 0 0 0-.307.022M322.367 15.948l-4.975.58a.9.9 0 0 0-.631.372.88.88 0 0 0-.136.717l.288 1.18a1.85 1.85 0 0 0 2.028 1.397l2.776-.324a1.853 1.853 0 0 0 1.645-1.826l.005-1.213a.88.88 0 0 0-.263-.63.88.88 0 0 0-.737-.253m.562 2.098a1.42 1.42 0 0 1-1.263 1.402l-2.776.323a1.426 1.426 0 0 1-1.556-1.075l-.289-1.18a.44.44 0 0 1 .071-.37.46.46 0 0 1 .326-.193l4.974-.579.056-.003a.464.464 0 0 1 .463.463zM330.232 15.03l-4.974.58a.89.89 0 0 0-.768 1.09l.288 1.18a1.855 1.855 0 0 0 2.03 1.397l2.773-.324a1.85 1.85 0 0 0 1.648-1.824l.005-1.215a.895.895 0 0 0-1.002-.885m.564 2.096a1.423 1.423 0 0 1-1.265 1.403l-2.776.324a1.424 1.424 0 0 1-1.556-1.074l-.287-1.181a.44.44 0 0 1 .07-.37.45.45 0 0 1 .327-.192l4.973-.579a.468.468 0 0 1 .382.132.45.45 0 0 1 .135.325z"/><path fill="#000100" d="M322.977 16.684a.216.216 0 0 0 .317.296c.027-.027.611-.625 1.281-.155a.22.22 0 0 0 .303-.05.22.22 0 0 0-.051-.3c-.788-.55-1.553-.103-1.85.21M328.924 13.672c-2.148-.709-3.379-.265-3.43-.246a.21.21 0 0 0-.126.275c.039.11.165.168.278.126.012-.003 1.152-.404 3.143.253a.22.22 0 0 0 .273-.135.217.217 0 0 0-.138-.273M321.659 12.953c-.055-.008-1.353-.162-3.284 1.008a.215.215 0 0 0-.072.295c.04.066.111.1.183.1q.061 0 .113-.03c1.787-1.084 2.993-.952 3.005-.949a.22.22 0 0 0 .241-.186.214.214 0 0 0-.186-.238M320.315 17.532a.504.504 0 0 0-.505.501c0 .277.226.5.505.5a.502.502 0 1 0 0-1M327.808 16.664a.504.504 0 0 0-.506.502c0 .276.227.5.506.5a.503.503 0 0 0 .508-.5.505.505 0 0 0-.508-.502"/><path fill="#FFC97A" d="M318.489 35.15s-4.643 1.08-8.652 2.912c-4.005 1.832-6.944 4.939-5.735 9.932 1.235 5.11 6.053 10.738 6.269 20.655.216 9.915-.324 18.198-.324 18.198h14.566s.164-14.692-1.751-29.803c-.427-3.362-4.373-21.895-4.373-21.895"/><path fill="#000100" d="M318.635 35.119a.15.15 0 0 0-.066-.095.16.16 0 0 0-.114-.02c-.047.011-4.705 1.106-8.68 2.924-4.867 2.225-6.88 5.72-5.82 10.103.419 1.735 1.227 3.484 2.163 5.508 1.765 3.817 3.961 8.566 4.102 15.113.213 9.796-.32 18.105-.324 18.187a.15.15 0 0 0 .039.112c.028.03.069.048.109.048h14.566c.083 0 .15-.066.15-.148.003-.147.144-14.875-1.751-29.823-.421-3.331-4.334-21.723-4.374-21.91m5.828 51.579h-14.257c.072-1.2.512-8.99.314-18.052-.144-6.61-2.353-11.39-4.129-15.233-.928-2.01-1.732-3.748-2.144-5.452-1.292-5.34 2.36-8.255 5.653-9.76 3.549-1.622 7.649-2.666 8.474-2.868.376 1.777 3.938 18.576 4.337 21.732 1.792 14.123 1.763 28.048 1.752 29.633"/><path fill="#fff" d="m350.535 66.968-.129-.001c-2.683 0-5.755 2.476-6.388 4.505-.25.797.191 2.14 1.149 3.506 1.025 1.464 2.703 2.976 4.139 3.057q.171.011.337.01c1.598 0 2.846-.672 3.127-1.325.101-.233.068-.431-.103-.607-.073-.078-.342-.253-1.259-.253-.668 0-1.32.094-1.326.096l-.078-.453c.012-.002 1.216-.232 3.42-1.105 1.868-.74 1.675-2.412 1.616-2.752z"/><path fill="#000100" d="m355.148 71.54-4.505-4.677c-.06-.062-.153-.048-.237-.048-2.743 0-5.884 2.535-6.53 4.611-.264.84.184 2.234 1.168 3.637 1.045 1.493 2.767 3.037 4.253 3.12q.176.01.345.01c1.724 0 2.968-.73 3.265-1.416q.189-.438-.134-.77c-.128-.136-.469-.3-1.367-.3-.487 0-.961.05-1.202.079l-.029-.17c.389-.088 1.512-.373 3.303-1.082 1.969-.78 1.769-2.567 1.709-2.918a.17.17 0 0 0-.039-.076m-1.781 2.718c-2.202.871-3.377 1.093-3.383 1.095a.15.15 0 0 0-.129.173l.078.453c.015.081.091.14.17.123.068-.009.684-.094 1.302-.094.929 0 1.13.184 1.153.207.129.131.151.263.073.442-.256.593-1.471 1.235-2.989 1.235a6 6 0 0 1-.329-.009c-1.386-.078-3.02-1.56-4.025-2.994-.932-1.328-1.364-2.622-1.127-3.374.617-1.98 3.62-4.4 6.244-4.4h.064l4.429 4.597c.073.486.126 1.89-1.531 2.546"/><path fill="#FFC97A" d="M352.236 40.737c-11.777-8.204-20.753-6.546-20.753-6.546l14.883 21.872c1.391 1.249 9.298 4.972 9.298 4.972-2.709 2.087-6.457 6.077-6.457 6.077 4.059 2.896 5.523 8.735 5.523 8.735s14.659-8.885 14.659-15.987c0-7.129-11.237-15.004-17.153-19.123"/><path fill="#000100" d="M352.325 40.613c-11.695-8.145-20.771-6.59-20.867-6.57a.15.15 0 0 0-.096.233l14.906 21.898c1.278 1.147 7.799 4.27 9.114 4.894-2.67 2.106-6.246 5.903-6.282 5.942a.15.15 0 0 0-.039.117.15.15 0 0 0 .063.108c3.967 2.83 5.45 8.593 5.465 8.65a.15.15 0 0 0 .088.102.147.147 0 0 0 .135-.01c.601-.364 14.731-9.01 14.731-16.115-.003-7.259-11.63-15.358-17.218-19.25m2.498 35.003c-.297-1.036-1.849-5.904-5.387-8.525.655-.69 3.919-4.088 6.321-5.937a.15.15 0 0 0 .058-.135.15.15 0 0 0-.085-.12c-.08-.037-7.904-3.73-9.238-4.921l-14.748-21.672c1.483-.183 9.857-.795 20.407 6.553 5.547 3.863 17.089 11.9 17.089 19.002.002 6.527-12.788 14.737-14.417 15.755"/><path fill="#FFC97A" d="M331.493 34.192s7.422 13.947 7.422 32.773c0 10.125 4.581 19.883 4.581 19.883h6.962s-1.297-26.993-3.357-40.134z"/><path fill="#000100" d="M347.079 46.564a.15.15 0 0 0-.124.17c1.955 12.465 3.237 37.725 3.346 39.963h-6.707c-.449-.988-4.528-10.259-4.528-19.734 0-18.647-7.365-32.702-7.44-32.842a.15.15 0 0 0-.203-.064.15.15 0 0 0-.061.203c.073.14 7.404 14.13 7.404 32.702 0 10.043 4.547 19.849 4.592 19.948a.15.15 0 0 0 .137.087h6.962a.147.147 0 0 0 .148-.158c-.013-.27-1.319-27.151-3.358-40.15-.01-.082-.072-.142-.168-.125M323.737 20.661c-.105-.145-.01-.45.024-.523l-.399-.17c-.025.06-.238.584.026.942.136.192.368.288.685.288q.072 0 .148-.007l-.034-.428c-.162.015-.371.01-.45-.102"/><path fill="#fff" d="M300.045 38.022c-3.122-1.227-3.899-1.339-3.752-2.944 0 0 .67.433 1.165.194 0 0 1.364 1.627 1.946.653.545-.91-1.972-2.874-1.972-2.874s-.388-.629-.505-.748c-.118-.12-.721-.525-1.556-.675-.838-.15-2.297-.284-2.297-.284s1.018-.3 1.215-.722c.199-.421-.38-.969-1.306-.832-.925.14-1.49-.253-2.43.41-.94.66-1.578 1.47-2.135 1.935-.558.464.213 2.494.527 5.487.314 2.99 2.916 1.686 6.056 4.23 3.142 2.546 3.236 11.06 3.236 11.06s4.523-.155 6.017-6.029c0 0-1.656-3.613-2.405-5.175-.751-1.562 1.322-2.461-1.804-3.686"/><path fill="#000" d="M301.986 41.638c-.246-.512-.159-.95-.073-1.373.158-.802.311-1.559-1.817-2.394q-.475-.186-.879-.342c-2.237-.863-2.818-1.087-2.786-2.192.245.111.66.222.972.126.232.258.898.934 1.493.934.186 0 .448-.067.64-.388.59-.979-1.629-2.783-1.986-3.064-.093-.149-.397-.635-.513-.753-.135-.138-.775-.564-1.644-.721a27 27 0 0 0-1.646-.219c.283-.138.574-.33.682-.562a.6.6 0 0 0-.053-.585c-.198-.307-.625-.498-1.114-.498a2 2 0 0 0-.31.024 4.3 4.3 0 0 1-.813.018c-.503-.024-.983-.08-1.688.419-.602.424-1.075.9-1.49 1.319a10 10 0 0 1-.657.625c-.418.348-.254 1.226.015 2.682.15.81.338 1.816.456 2.944.192 1.831 1.204 2.149 2.604 2.59.982.308 2.207.692 3.511 1.75 3.047 2.468 3.177 10.852 3.177 10.936l.002.165.166-.006c.046-.002 4.661-.227 6.168-6.15l.013-.054-.024-.053a440 440 0 0 0-2.406-5.178m-3.597 11.097c-.033-1.256-.341-8.617-3.292-11.01-1.352-1.096-2.608-1.491-3.619-1.808-1.377-.433-2.21-.694-2.379-2.314a37 37 0 0 0-.459-2.97c-.225-1.201-.4-2.15-.126-2.376.215-.179.44-.405.678-.647.406-.409.868-.874 1.447-1.282.463-.325.823-.371 1.144-.371q.167.002.34.012c.289.015.604.02.878-.023.587-.087.979.138 1.101.329.043.066.084.168.034.277-.121.258-.748.528-1.114.637l-.799.238.832.077c.015.001 1.464.135 2.284.282.844.151 1.401.559 1.467.628.074.073.327.465.483.718l.038.044c.931.725 2.277 2.09 1.932 2.665-.094.157-.21.23-.361.23-.459 0-1.108-.653-1.32-.905l-.082-.096-.114.056a.6.6 0 0 1-.265.054c-.362 0-.738-.237-.742-.24l-.225-.145-.024.265c-.144 1.562.58 1.842 2.974 2.767l.879.342c1.875.736 1.767 1.28 1.616 2.032-.092.452-.194.965.099 1.574a490 490 0 0 1 2.38 5.121c-1.313 5.073-4.863 5.75-5.685 5.84"/><path fill="#000" d="M293.183 31.157c-.457.067-1.576.157-1.586.157l-.092.008-.045.078c-.643 1.096-1.306 1.532-1.313 1.535l-.139.091.084.143c.406.705.302 1.198.301 1.202a.17.17 0 0 0 .13.209.2.2 0 0 0 .095-.003.17.17 0 0 0 .117-.125c.004-.025.13-.559-.264-1.322.234-.183.74-.64 1.244-1.477a34 34 0 0 0 1.519-.154.176.176 0 0 0 .148-.198.174.174 0 0 0-.199-.144M297.491 32.882c-.135-.033-1.324-.327-1.826-.21-.57.13-1.271 1.13-1.568 1.725-.377.755-.602 1.744-.611 1.785a.173.173 0 0 0 .134.208.2.2 0 0 0 .091-.005.17.17 0 0 0 .117-.126c.003-.01.225-.989.583-1.706.336-.673.958-1.463 1.335-1.54.354-.083 1.318.122 1.659.208a.177.177 0 0 0 .213-.125.176.176 0 0 0-.127-.214"/><path fill="#000" d="M292.365 31.285c-1.379 1.325-2.17 3.797-2.205 3.903-.03.09.023.19.116.218a.176.176 0 0 0 .22-.116c.007-.024.799-2.493 2.112-3.755a.174.174 0 1 0-.243-.25M293.469 32.372c-1.058.793-2.025 2.897-2.064 2.987a.17.17 0 0 0 .088.229.175.175 0 0 0 .233-.089c.01-.02.968-2.11 1.956-2.85.781-.581 2.735.041 3.421.33a.175.175 0 0 0 .23-.091.173.173 0 0 0-.092-.23c-.108-.043-2.668-1.115-3.772-.286"/><path fill="#FFC97A" d="m305.358 43.322-11.282 4.223s.126 19.706 9.036 26.194c5.635 4.106 11.899-.216 9.614-13.107-.907-5.11-7.368-17.31-7.368-17.31"/><path fill="#000100" d="M305.492 43.251a.15.15 0 0 0-.185-.07l-11.281 4.223a.15.15 0 0 0-.098.14c0 .199.228 19.856 9.097 26.316 1.395 1.015 2.83 1.53 4.176 1.53.937 0 1.832-.248 2.64-.753 3.112-1.943 4.247-7.189 3.034-14.033-.899-5.071-7.317-17.23-7.383-17.353m4.188 31.132c-1.857 1.16-4.218.882-6.479-.766-8.414-6.127-8.944-24.412-8.973-25.969l11.06-4.14c.662 1.263 6.448 12.386 7.292 17.149 1.19 6.72.106 11.85-2.9 13.726"/><path fill="#fff" d="M318.484 35.152s2.285 2.762 6.037 4.161c0-1.872 1.24-3.54 2.168-3.986-2.514-.129-4.454-1-5.508-1.633 0 0-1.408.222-2.697 1.457"/><path fill="#000100" d="M321.261 33.565a.15.15 0 0 0-.101-.02c-.06.009-1.469.243-2.778 1.496a.15.15 0 0 0-.012.204c.024.029 2.354 2.81 6.101 4.207a.2.2 0 0 0 .052.009q.048 0 .085-.027a.15.15 0 0 0 .065-.123c0-1.837 1.232-3.444 2.084-3.852a.15.15 0 0 0 .082-.165.15.15 0 0 0-.139-.12c-2.618-.131-4.531-1.064-5.439-1.61m3.117 5.532c-3.146-1.231-5.231-3.43-5.685-3.936 1.073-.976 2.211-1.258 2.463-1.31.895.529 2.665 1.38 5.067 1.592-.838.64-1.767 2.033-1.845 3.654"/><path fill="#fff" d="M329.476 33.295c-.246.292-1.782 1.577-2.776 2.03 1.112.175 3.052 1.422 3.844 3.228.154-.73 1.316-2.898.959-4.362-.303-.326-1.259-.87-2.027-.896"/><path fill="#000100" d="M331.609 34.091c-.338-.367-1.338-.919-2.132-.944-.044.006-.09.019-.119.053-.239.285-1.746 1.545-2.724 1.991a.15.15 0 0 0-.087.156.15.15 0 0 0 .125.128c1.033.162 2.956 1.374 3.73 3.139.025.056.079.09.138.09h.016a.15.15 0 0 0 .131-.118c.039-.186.156-.488.288-.838.374-.985.941-2.476.668-3.59a.13.13 0 0 0-.034-.067m-.915 3.55q-.108.28-.187.504c-.801-1.492-2.315-2.53-3.385-2.868.928-.525 2.093-1.492 2.413-1.826.676.05 1.516.504 1.828.815.228 1.021-.31 2.435-.669 3.375"/><path fill="url(#b)" d="M26.996 21.734q0 3.477-1.992 5.528-1.992 2.04-5.508 2.04-3.506 0-5.498-2.04-1.992-2.05-1.992-5.528 0-3.506 1.992-5.537 1.992-2.04 5.498-2.04 3.496 0 5.498 2.04 2.002 2.031 2.002 5.537m-4.97 3.682q.546-.664.81-1.562.264-.909.264-2.13 0-1.308-.303-2.226t-.791-1.484a2.95 2.95 0 0 0-1.152-.85 3.5 3.5 0 0 0-1.348-.264q-.713 0-1.348.254-.625.255-1.152.84-.49.548-.8 1.514-.304.957-.304 2.226 0 1.299.293 2.217.303.908.791 1.485.489.576 1.143.85.654.272 1.377.273.722 0 1.377-.274a3.06 3.06 0 0 0 1.142-.869m14.755-9.033h-.263a12 12 0 0 0-.616-.156 3.5 3.5 0 0 0-.8-.088q-1.036 0-1.407.37-.36.372-.361 1.436v.088h2.715v2.383H33.45V29h-3.515v-8.584h-1.504v-2.383h1.504v-.303q0-2.011 1.064-3.017 1.074-1.005 3.242-1.006.782 0 1.416.059.635.049 1.123.136zm8.457 0h-.263a12 12 0 0 0-.616-.156 3.5 3.5 0 0 0-.8-.088q-1.036 0-1.407.37-.36.372-.361 1.436v.088h2.715v2.383h-2.598V29h-3.515v-8.584h-1.504v-2.383h1.504v-.303q0-2.011 1.064-3.017 1.074-1.005 3.242-1.006.782 0 1.416.059.635.049 1.123.136zm7.06 12.91q-1.435 0-2.626-.342a5.8 5.8 0 0 1-2.06-1.055 4.8 4.8 0 0 1-1.348-1.796q-.48-1.085-.479-2.54 0-1.533.508-2.646a5.04 5.04 0 0 1 1.435-1.846 5.8 5.8 0 0 1 2.051-1.015 9 9 0 0 1 2.412-.323q1.125 0 2.07.245a10 10 0 0 1 1.768.634v2.998h-.498a19 19 0 0 0-.498-.41 4.2 4.2 0 0 0-.703-.459 4.4 4.4 0 0 0-.879-.351 3.8 3.8 0 0 0-1.113-.147q-1.407 0-2.168.899-.752.888-.752 2.422 0 1.581.772 2.402.78.82 2.207.82.664 0 1.19-.146.538-.156.89-.362.33-.195.586-.41.254-.215.468-.42h.498v2.998a9.3 9.3 0 0 1-1.738.616 8 8 0 0 1-1.992.234m11.017-4.17 2.5-7.09h3.613l-6.094 14.99h-3.809l1.739-4.101-4.268-10.889h3.691zm13.789 4.17q-1.436 0-2.627-.342a5.8 5.8 0 0 1-2.061-1.055 4.8 4.8 0 0 1-1.348-1.796q-.478-1.085-.478-2.54 0-1.533.508-2.646a5.04 5.04 0 0 1 1.435-1.846 5.8 5.8 0 0 1 2.051-1.015 9 9 0 0 1 2.412-.323q1.124 0 2.07.245a10 10 0 0 1 1.768.634v2.998h-.498a19 19 0 0 0-.498-.41 4.2 4.2 0 0 0-.703-.459 4.4 4.4 0 0 0-.88-.351 3.8 3.8 0 0 0-1.112-.147q-1.406 0-2.168.899-.752.888-.752 2.422 0 1.581.771 2.402.782.82 2.207.82.664 0 1.192-.146.537-.156.888-.362.333-.195.586-.41.255-.215.469-.42h.498v2.998a9.3 9.3 0 0 1-1.738.616 8 8 0 0 1-1.993.234m9.58-.293h-3.516V13.805h3.516zm14.121-4.834h-8.047q.078 1.29.976 1.973.91.683 2.666.683 1.114 0 2.159-.4t1.65-.86h.391v2.823a13 13 0 0 1-2.246.693q-1.056.215-2.335.215-3.3 0-5.058-1.484-1.758-1.485-1.758-4.229 0-2.715 1.66-4.297 1.67-1.592 4.57-1.592 2.677 0 4.024 1.358 1.347 1.347 1.348 3.887zm-3.496-2.06q-.03-1.105-.547-1.66-.517-.558-1.612-.557-1.015 0-1.67.527-.654.528-.732 1.69zm25.009-3.057q0 .976-.341 1.914a4.26 4.26 0 0 1-.977 1.562 6 6 0 0 1-1.943 1.3q-1.064.439-2.657.439h-2.334V29h-3.75V14.459h6.172q1.387 0 2.334.244a5.4 5.4 0 0 1 1.69.713 3.8 3.8 0 0 1 1.338 1.475q.468.898.468 2.158m-3.877.088q0-.615-.332-1.055-.331-.45-.771-.625a3.4 3.4 0 0 0-1.143-.254q-.557-.03-1.484-.03h-.645v4.356h1.075q.957 0 1.572-.117a2.24 2.24 0 0 0 1.045-.469q.361-.312.517-.742.166-.44.166-1.064m12.989 7.002v-2.285q-.714.058-1.543.166-.831.098-1.26.234-.528.165-.811.488-.273.313-.273.83 0 .342.059.557t.293.41q.223.195.537.293.312.088.976.088.528 0 1.065-.215.546-.215.957-.566m0 1.699q-.283.215-.703.517t-.791.479q-.519.234-1.075.342a6 6 0 0 1-1.22.117q-1.562 0-2.618-.967-1.054-.966-1.054-2.47 0-1.202.537-1.963t1.523-1.202q.977-.439 2.422-.625a42 42 0 0 1 2.998-.273v-.059q0-.908-.742-1.25-.743-.351-2.187-.351-.87 0-1.856.312a24 24 0 0 0-1.416.47h-.322v-2.647q.556-.147 1.806-.342 1.26-.205 2.52-.205 2.999 0 4.326.927 1.338.918 1.338 2.891V29h-3.486zm11.67-2.715 2.5-7.09h3.613l-6.094 14.99h-3.808l1.738-4.101-4.268-10.889h3.692zm17.607.4q0 1.7-1.523 2.745-1.524 1.035-4.17 1.035-1.465 0-2.657-.274-1.191-.273-1.914-.605v-2.89h.323q.263.185.605.41.351.215.986.468.547.225 1.241.39.693.157 1.484.157 1.035 0 1.533-.225.498-.234.498-.683 0-.401-.293-.576-.293-.186-1.113-.352a15 15 0 0 0-1.064-.186 12 12 0 0 1-1.211-.253q-1.494-.391-2.217-1.211-.723-.83-.723-2.06 0-1.583 1.494-2.628 1.504-1.055 4.102-1.055 1.23 0 2.353.254 1.134.244 1.768.528v2.773h-.303a7 7 0 0 0-1.787-.869 6.2 6.2 0 0 0-2.021-.342q-.85 0-1.436.235-.576.234-.576.664 0 .39.264.595.263.206 1.24.41.537.108 1.152.215.626.098 1.25.254 1.387.361 2.051 1.143.664.771.664 1.933M166.566 29h-3.515V13.805h3.515zm6.836 0h-3.515V18.033h3.515zm.098-12.53h-3.711v-2.665h3.711zm14.668 6.895q0 1.358-.42 2.47-.41 1.114-1.084 1.837a4.8 4.8 0 0 1-1.592 1.152q-.888.39-1.904.39-.938 0-1.592-.204a7.4 7.4 0 0 1-1.338-.557v4.57h-3.515v-14.99h3.515v1.143a8.6 8.6 0 0 1 1.651-1.045q.849-.4 1.953-.4 2.05 0 3.183 1.503 1.143 1.505 1.143 4.131m-3.623.069q0-1.602-.547-2.325-.548-.722-1.728-.722-.498 0-1.026.156-.527.146-1.006.43v5.517q.352.137.752.176.4.04.791.04 1.397 0 2.08-.811.684-.821.684-2.461"/><path fill="#384F69" d="m18.348 46.275-3.07 4.899V55h-1.16v-3.703l-3.083-5.022h1.283l2.385 3.903 2.408-3.903zm5.455 5.456q0 1.6-.82 2.525-.821.926-2.197.926-1.39 0-2.21-.926-.814-.926-.814-2.526t.815-2.525q.82-.932 2.209-.932 1.377 0 2.197.932.82.926.82 2.526m-1.137 0q0-1.272-.498-1.887-.498-.621-1.382-.621-.897 0-1.395.62-.492.616-.492 1.887 0 1.23.498 1.87.498.632 1.389.632.878 0 1.377-.626.503-.633.503-1.876M30.46 55h-1.102v-.727a5.4 5.4 0 0 1-1.066.674q-.51.234-1.125.235-1.031 0-1.606-.627-.573-.633-.574-1.852v-4.248h1.102v3.727q0 .498.047.855.046.352.199.604a.95.95 0 0 0 .41.375q.252.117.732.117.429 0 .932-.223.51-.223.95-.568v-4.887h1.1zm10.267-.41a7 7 0 0 1-1.05.41 3.7 3.7 0 0 1-1.048.147q-.709 0-1.301-.206a2.7 2.7 0 0 1-1.014-.632 2.8 2.8 0 0 1-.662-1.067q-.234-.644-.234-1.506 0-1.605.879-2.52.885-.913 2.332-.913.563 0 1.101.158.546.157.997.387v1.224h-.06a4.2 4.2 0 0 0-1.042-.603 2.8 2.8 0 0 0-1.043-.211q-.938 0-1.483.633-.538.627-.538 1.845 0 1.185.527 1.823.532.633 1.494.632.335 0 .68-.088.345-.087.62-.228.24-.123.452-.258.21-.141.334-.24h.059zm6.023.41h-1.095v-.697q-.146.1-.399.281-.246.175-.48.281-.276.135-.633.223a3.3 3.3 0 0 1-.838.094q-.885 0-1.5-.586t-.615-1.494q0-.744.316-1.202.323-.462.914-.726.598-.264 1.436-.358a29 29 0 0 1 1.799-.14v-.17q0-.375-.135-.621a.94.94 0 0 0-.375-.387 1.6 1.6 0 0 0-.563-.182 5 5 0 0 0-.685-.047q-.434 0-.967.118a7 7 0 0 0-1.102.328h-.058v-1.12q.322-.087.932-.193.609-.105 1.2-.105.693 0 1.202.117.516.111.89.387.37.27.563.697.193.428.193 1.06zm-1.095-1.611v-1.823q-.504.03-1.19.088-.68.06-1.078.17a1.76 1.76 0 0 0-.767.422q-.294.281-.293.78 0 .562.34.849.34.282 1.036.281.58 0 1.061-.222a5 5 0 0 0 .89-.545M53.865 55h-1.102v-3.727q0-.45-.053-.843-.053-.399-.194-.621a.88.88 0 0 0-.421-.364q-.276-.123-.715-.123-.452 0-.944.223a4.8 4.8 0 0 0-.943.568V55h-1.102v-6.545h1.102v.727q.517-.428 1.066-.668a2.8 2.8 0 0 1 1.131-.24q1.06 0 1.617.638.558.64.557 1.84zm11.04-6.545L62.254 55h-1.107l-2.63-6.545h1.195l2.027 5.21 2.01-5.21zm2.144-1.096h-1.242v-1.142h1.242zM66.98 55h-1.102v-6.545h1.102zm7.178-3.158h-4.822q0 .603.181 1.055.181.444.498.732.306.28.721.422.422.14.926.14a3.7 3.7 0 0 0 1.342-.263q.68-.27.966-.528h.06v1.202q-.557.234-1.138.392a4.6 4.6 0 0 1-1.218.158q-1.63 0-2.543-.879-.915-.885-.914-2.507 0-1.605.873-2.55.879-.942 2.308-.943 1.325 0 2.04.774.72.774.72 2.197zm-1.072-.844q-.006-.867-.44-1.342-.427-.474-1.306-.474-.885 0-1.412.521-.522.522-.592 1.295zm10.494-2.543L81.874 55h-1.02l-1.68-5.045L77.503 55H76.49l-1.723-6.545h1.148l1.201 5.068 1.635-5.068h.908l1.676 5.068 1.137-5.068zM93.512 55h-1.096v-.697q-.146.1-.398.281-.246.175-.48.281-.276.135-.633.223a3.3 3.3 0 0 1-.838.094q-.885 0-1.5-.586-.616-.586-.616-1.494 0-.744.317-1.202.323-.462.914-.726.597-.264 1.435-.358t1.8-.14v-.17q0-.375-.136-.621a.94.94 0 0 0-.375-.387 1.6 1.6 0 0 0-.562-.182 5 5 0 0 0-.686-.047q-.433 0-.966.118a7 7 0 0 0-1.102.328h-.059v-1.12q.323-.087.932-.193.61-.105 1.201-.105.692 0 1.201.117.516.111.891.387.37.27.563.697.193.428.193 1.06zm-1.096-1.611v-1.823q-.504.03-1.19.088-.679.06-1.077.17a1.76 1.76 0 0 0-.768.422q-.293.281-.293.78 0 .562.34.849.34.282 1.037.281.58 0 1.06-.222.48-.229.891-.545m8.21 1.611h-1.102v-3.727q0-.45-.053-.843-.053-.399-.193-.621a.87.87 0 0 0-.422-.364q-.275-.123-.715-.123-.45 0-.943.223a4.8 4.8 0 0 0-.943.568V55h-1.102v-6.545h1.102v.727q.515-.428 1.066-.668.55-.24 1.13-.24 1.062 0 1.618.638.557.64.557 1.84zm6.949 0h-1.101v-.685a4 4 0 0 1-.99.638 2.7 2.7 0 0 1-1.12.229q-1.171 0-1.863-.903-.685-.902-.685-2.502 0-.832.234-1.482a3.5 3.5 0 0 1 .645-1.108 2.7 2.7 0 0 1 2.027-.914q.515 0 .914.112.399.105.838.334v-2.836h1.101zm-1.101-1.611v-3.756a4 4 0 0 0-.797-.276 3.6 3.6 0 0 0-.768-.076q-.925 0-1.441.645t-.516 1.828q0 1.166.399 1.775.398.604 1.277.604a2.4 2.4 0 0 0 .949-.205q.48-.21.897-.54M118.311 55h-1.102v-.685a4 4 0 0 1-.99.638 2.7 2.7 0 0 1-1.119.229q-1.172 0-1.864-.903-.685-.902-.685-2.502 0-.832.234-1.482a3.5 3.5 0 0 1 .645-1.108 2.7 2.7 0 0 1 2.027-.914q.516 0 .914.112.399.105.838.334v-2.836h1.102zm-1.102-1.611v-3.756a4 4 0 0 0-.797-.276 3.6 3.6 0 0 0-.767-.076q-.926 0-1.442.645t-.515 1.828q0 1.166.398 1.775.4.604 1.277.604.469 0 .95-.205.48-.21.896-.54m8.368-1.659q0 1.6-.821 2.526-.82.926-2.197.926-1.389 0-2.209-.926-.814-.926-.814-2.526t.814-2.525q.82-.932 2.209-.932 1.378 0 2.197.932.82.926.821 2.526m-1.137 0q0-1.27-.498-1.886-.498-.621-1.383-.621-.896 0-1.394.62-.492.616-.492 1.887 0 1.23.498 1.87.497.632 1.388.632.879 0 1.377-.626.504-.633.504-1.876m10.6-3.275L133.335 55h-1.019l-1.682-5.045-1.67 5.045h-1.014l-1.722-6.545h1.148l1.201 5.068 1.635-5.068h.908l1.676 5.068 1.137-5.068zM141.621 55h-1.102v-3.727q0-.45-.053-.843-.052-.399-.193-.621a.88.88 0 0 0-.422-.364q-.275-.123-.715-.123-.45 0-.943.223a4.8 4.8 0 0 0-.943.568V55h-1.102v-6.545h1.102v.727a4.5 4.5 0 0 1 1.066-.668 2.8 2.8 0 0 1 1.131-.24q1.06 0 1.617.638.557.64.557 1.84zm2.754 0h-1.101v-9.117h1.101zm7.278-3.27q0 1.6-.82 2.526t-2.198.926q-1.388 0-2.209-.926-.814-.926-.814-2.526t.814-2.525q.821-.932 2.209-.932 1.377 0 2.198.932.82.926.82 2.526m-1.137 0q0-1.27-.498-1.886-.498-.621-1.383-.621-.896 0-1.394.62-.492.616-.492 1.887 0 1.23.498 1.87.498.632 1.388.632.879 0 1.377-.626.504-.633.504-1.876M157.97 55h-1.096v-.697q-.147.1-.398.281a3 3 0 0 1-.481.281q-.274.135-.633.223a3.3 3.3 0 0 1-.838.094 2.1 2.1 0 0 1-1.5-.586q-.615-.586-.615-1.494 0-.744.317-1.202.321-.462.914-.726.597-.264 1.435-.358t1.799-.14v-.17q0-.375-.135-.621a.94.94 0 0 0-.375-.387 1.6 1.6 0 0 0-.562-.182 5 5 0 0 0-.686-.047q-.433 0-.967.118a7 7 0 0 0-1.101.328h-.059v-1.12q.323-.087.932-.193.61-.105 1.201-.105.691 0 1.201.117.516.111.891.387.37.27.562.697.194.428.194 1.06zm-1.096-1.611v-1.823q-.504.03-1.189.088a6 6 0 0 0-1.079.17q-.474.135-.767.422-.293.281-.293.78 0 .562.34.849.34.282 1.037.281.58 0 1.06-.222.481-.229.891-.545M164.919 55h-1.101v-.685a4 4 0 0 1-.99.638 2.7 2.7 0 0 1-1.119.229q-1.173 0-1.864-.903-.685-.902-.685-2.502 0-.832.234-1.482a3.5 3.5 0 0 1 .645-1.108 2.7 2.7 0 0 1 2.027-.914q.516 0 .914.112.399.105.838.334v-2.836h1.101zm-1.101-1.611v-3.756a4 4 0 0 0-.797-.276 3.6 3.6 0 0 0-.768-.076q-.925 0-1.441.645t-.516 1.828q0 1.166.399 1.775.398.604 1.277.604a2.4 2.4 0 0 0 .949-.205q.482-.21.897-.54m13.12-6.112q.533.587.814 1.436.288.85.288 1.928t-.293 1.933q-.288.85-.809 1.418a3.5 3.5 0 0 1-1.277.89q-.733.3-1.676.3a4.5 4.5 0 0 1-1.676-.305 3.46 3.46 0 0 1-1.277-.885 4 4 0 0 1-.815-1.424q-.28-.843-.281-1.927 0-1.067.281-1.91a4.1 4.1 0 0 1 .821-1.454 3.36 3.36 0 0 1 1.277-.879 4.5 4.5 0 0 1 1.67-.304q.937 0 1.681.31.75.304 1.272.873m-.105 3.364q0-1.7-.762-2.62-.762-.925-2.08-.925-1.33 0-2.092.926-.756.92-.756 2.619 0 1.716.773 2.63.774.909 2.075.909 1.3 0 2.068-.908.774-.915.774-2.631m6-3.692h-.059a5 5 0 0 0-.474-.105 2.7 2.7 0 0 0-.516-.059q-.709 0-1.031.317-.317.31-.317 1.13v.223h1.987v.926h-1.951V55h-1.102v-5.62h-.744v-.925h.744v-.217q0-1.166.58-1.787.58-.627 1.676-.627.37 0 .662.035.299.036.545.082zm3.739 0h-.059a5 5 0 0 0-.474-.105 2.7 2.7 0 0 0-.516-.059q-.71 0-1.031.317-.317.31-.317 1.13v.223h1.987v.926h-1.952V55h-1.101v-5.62h-.744v-.925h.744v-.217q0-1.166.58-1.787.58-.627 1.676-.627.369 0 .662.035.299.036.545.082zm5.057 7.64a7 7 0 0 1-1.049.411 3.7 3.7 0 0 1-1.049.147q-.708 0-1.301-.206a2.7 2.7 0 0 1-1.013-.632 2.8 2.8 0 0 1-.662-1.067q-.235-.644-.235-1.506 0-1.605.879-2.52.885-.913 2.332-.913a3.9 3.9 0 0 1 1.102.158q.544.157.996.387v1.224h-.059a4.2 4.2 0 0 0-1.043-.603 2.8 2.8 0 0 0-1.043-.211q-.938 0-1.482.633-.539.627-.539 1.845 0 1.185.527 1.823.534.633 1.494.632.335 0 .68-.088.345-.087.621-.228.24-.123.451-.258.211-.141.334-.24h.059zm6.598-6.134-3.82 8.96h-1.178l1.219-2.731-2.608-6.229h1.196l2.009 4.852 2.028-4.852zm5.696 6.135a7 7 0 0 1-1.049.41 3.7 3.7 0 0 1-1.049.147q-.709 0-1.301-.206a2.7 2.7 0 0 1-1.013-.632 2.8 2.8 0 0 1-.662-1.067q-.235-.644-.235-1.506 0-1.605.879-2.52.885-.913 2.332-.913a3.9 3.9 0 0 1 1.102.158q.544.157.996.387v1.224h-.059a4.2 4.2 0 0 0-1.043-.603 2.8 2.8 0 0 0-1.043-.211q-.938 0-1.482.633-.54.627-.539 1.845 0 1.185.527 1.823.534.633 1.494.632.334 0 .68-.088.345-.087.621-.228.24-.123.451-.258.211-.141.334-.24h.059zm2.051.41h-1.102v-9.117h1.102zm7.178-3.158h-4.822q0 .603.182 1.055.182.444.498.732.305.28.72.422.423.14.926.14.668 0 1.342-.263.68-.27.967-.528h.058v1.202a9 9 0 0 1-1.136.392 4.6 4.6 0 0 1-1.219.158q-1.63 0-2.543-.879-.915-.885-.914-2.507 0-1.605.873-2.55.879-.942 2.308-.943 1.325 0 2.039.774.721.774.721 2.197zm-1.072-.844q-.006-.867-.44-1.342-.427-.474-1.306-.474-.885 0-1.412.521a2.03 2.03 0 0 0-.592 1.295zM17.879 65.912q0 .58-.205 1.078-.199.493-.563.856-.45.45-1.066.68-.615.222-1.553.222h-1.16V72h-1.16v-8.725h2.367q.786 0 1.33.135.545.13.967.41.498.334.768.832.275.498.275 1.26m-1.207.03q0-.451-.158-.786a1.3 1.3 0 0 0-.48-.545 1.9 1.9 0 0 0-.645-.258 4.2 4.2 0 0 0-.909-.081h-1.148v3.486h.978q.704 0 1.143-.123.44-.129.715-.404.276-.282.387-.592.117-.31.117-.698M23.639 72h-1.096v-.697q-.146.1-.398.281a3 3 0 0 1-.48.281q-.276.135-.633.223a3.3 3.3 0 0 1-.838.094q-.885 0-1.5-.586t-.615-1.494q0-.744.316-1.202.323-.462.914-.726.597-.264 1.436-.358a29 29 0 0 1 1.798-.14v-.17q0-.375-.134-.621a.94.94 0 0 0-.375-.387 1.6 1.6 0 0 0-.563-.182 5 5 0 0 0-.685-.047q-.435 0-.967.118a7 7 0 0 0-1.102.328h-.058v-1.12q.322-.087.931-.193.61-.105 1.201-.105.692 0 1.202.117.515.111.89.387.37.27.563.697.193.428.193 1.06zm-1.096-1.611v-1.823q-.503.03-1.189.088-.68.06-1.078.17a1.76 1.76 0 0 0-.768.422q-.293.281-.293.78 0 .562.34.849.34.282 1.037.281.58 0 1.06-.222a5 5 0 0 0 .891-.545m8.304-4.934-3.82 8.96h-1.178l1.218-2.731-2.607-6.229h1.195l2.01 4.852 2.027-4.852zm5.637 4.658q0 .897-.744 1.471-.738.574-2.022.574-.727 0-1.336-.17a6 6 0 0 1-1.013-.38V70.37h.058q.522.392 1.16.627a3.6 3.6 0 0 0 1.225.229q.726 0 1.137-.235.41-.234.41-.738 0-.387-.223-.586-.222-.2-.855-.34a17 17 0 0 0-.615-.123 10 10 0 0 1-.686-.152q-.86-.229-1.225-.668-.357-.445-.357-1.09 0-.404.164-.762.17-.357.51-.639.328-.275.832-.433.51-.165 1.136-.164.587 0 1.184.146.603.141 1.002.346v1.178h-.059a3.9 3.9 0 0 0-1.025-.522 3.5 3.5 0 0 0-1.184-.216q-.603 0-1.02.234-.415.228-.415.685 0 .405.252.61.246.204.797.334.305.07.68.14.38.07.632.13.768.175 1.184.603.416.434.416 1.148M38.699 72h-1.101v-9.117h1.101zm2.883-7.64H40.34v-1.143h1.242zm-.07 7.64H40.41v-6.545h1.102zm7.46-3.352q0 .797-.229 1.46a3.2 3.2 0 0 1-.645 1.113q-.386.433-.913.673a2.7 2.7 0 0 1-1.108.235 3.6 3.6 0 0 1-.926-.111 3.9 3.9 0 0 1-.838-.346v2.742h-1.101v-8.959h1.101v.686q.44-.37.985-.616a2.8 2.8 0 0 1 1.172-.252q1.183 0 1.84.897.661.891.662 2.478m-1.137.03q0-1.185-.404-1.77-.405-.585-1.243-.586-.474 0-.955.205-.48.206-.92.54v3.708q.469.212.803.287.34.077.768.077.92 0 1.435-.621.516-.622.516-1.84m11.69.053q0 1.6-.82 2.525-.821.926-2.197.926-1.39 0-2.21-.926-.814-.927-.814-2.525 0-1.6.815-2.526.82-.932 2.209-.932 1.377 0 2.197.932.82.926.82 2.526m-1.136 0q0-1.272-.498-1.887-.5-.621-1.383-.621-.897 0-1.395.62-.492.615-.492 1.888 0 1.23.498 1.869.498.632 1.389.632.879 0 1.377-.626.504-.633.504-1.875m5.889-4.782h-.059a5 5 0 0 0-.474-.105 2.7 2.7 0 0 0-.516-.059q-.71 0-1.031.317-.317.31-.317 1.13v.223h1.986v.926h-1.95V72h-1.102v-5.62h-.744v-.925h.744v-.217q0-1.166.58-1.787.58-.627 1.676-.627.369 0 .662.035.298.036.545.082zm9.715 4.7q0 .796-.228 1.458a3.2 3.2 0 0 1-.645 1.114q-.386.433-.914.673a2.7 2.7 0 0 1-1.107.235q-.51 0-.926-.111a3.9 3.9 0 0 1-.838-.346v2.742h-1.101v-8.959h1.101v.686q.44-.37.985-.616a2.8 2.8 0 0 1 1.172-.252q1.183 0 1.84.897.66.891.661 2.478m-1.136.029q0-1.185-.405-1.77-.404-.585-1.242-.586-.474 0-.955.205-.48.206-.92.54v3.708q.469.212.803.287.34.077.767.077.92 0 1.436-.621.516-.622.516-1.84m6.457-2.022h-.058a4.367 4.367 0 0 0-1.025-.111q-.51 0-.985.228a4.4 4.4 0 0 0-.914.58V72H75.23v-6.545h1.102v.967q.656-.528 1.154-.744a2.5 2.5 0 0 1 1.025-.223q.287 0 .416.018.129.012.387.052zm6.136 2.075q0 1.6-.82 2.525-.822.926-2.198.926-1.389 0-2.21-.926-.814-.927-.814-2.525 0-1.6.815-2.526.82-.932 2.209-.932 1.377 0 2.197.932.82.926.82 2.526m-1.137 0q0-1.272-.498-1.887-.498-.621-1.383-.621-.897 0-1.395.62-.492.615-.492 1.888 0 1.23.498 1.869.498.632 1.389.632.879 0 1.377-.626.504-.633.504-1.875m7.207 2.859a7 7 0 0 1-1.049.41 3.7 3.7 0 0 1-1.048.147 4 4 0 0 1-1.301-.206 2.7 2.7 0 0 1-1.014-.632 2.8 2.8 0 0 1-.662-1.067q-.234-.644-.234-1.506 0-1.605.879-2.52.885-.913 2.332-.913.563 0 1.101.158.544.157.996.387v1.224h-.058a4.2 4.2 0 0 0-1.043-.603 2.8 2.8 0 0 0-1.043-.211q-.938 0-1.483.633-.54.627-.539 1.845 0 1.185.528 1.823.532.632 1.494.632.333 0 .68-.088.345-.087.62-.228.24-.123.452-.258.21-.141.334-.24h.058zm6.417-2.748h-4.822q0 .603.181 1.055.181.444.498.732.305.28.72.422.422.14.927.14a3.7 3.7 0 0 0 1.341-.263q.68-.27.967-.528h.059v1.202q-.556.234-1.137.392a4.6 4.6 0 0 1-1.219.158q-1.629 0-2.543-.879-.914-.885-.914-2.507 0-1.605.873-2.55.88-.942 2.309-.943 1.325 0 2.039.774.72.774.72 2.197zm-1.072-.844q-.006-.867-.44-1.342-.427-.474-1.307-.474-.885 0-1.412.521-.521.522-.591 1.295zm6.937 2.115q0 .897-.744 1.471-.738.574-2.021.574-.727 0-1.336-.17a6 6 0 0 1-1.014-.38V70.37h.059q.52.392 1.16.627.639.228 1.225.229.726 0 1.136-.235t.41-.738q0-.387-.222-.586-.223-.2-.856-.34a17 17 0 0 0-.615-.123 10 10 0 0 1-.685-.152q-.862-.229-1.225-.668-.357-.445-.358-1.09 0-.404.165-.762.17-.357.51-.639.327-.275.831-.433.51-.165 1.137-.164.586 0 1.184.146.603.141 1.002.346v1.178h-.059a3.9 3.9 0 0 0-1.025-.522 3.5 3.5 0 0 0-1.184-.216q-.603 0-1.02.234-.416.228-.416.685 0 .405.252.61.246.204.797.334.305.07.68.14.381.07.633.13.768.175 1.183.603.416.434.416 1.148m5.778 0q0 .897-.744 1.471-.738.574-2.021.574-.727 0-1.336-.17a6 6 0 0 1-1.014-.38V70.37h.059q.52.392 1.16.627a3.6 3.6 0 0 0 1.224.229q.727 0 1.137-.235t.41-.738q0-.387-.222-.586-.223-.2-.856-.34a17 17 0 0 0-.615-.123 10 10 0 0 1-.686-.152q-.861-.229-1.224-.668-.358-.445-.358-1.09 0-.404.164-.762.171-.357.51-.639.328-.275.832-.433.51-.165 1.137-.164.586 0 1.183.146.604.141 1.002.346v1.178h-.058a3.9 3.9 0 0 0-1.026-.522 3.5 3.5 0 0 0-1.183-.216q-.603 0-1.02.234-.416.228-.416.685 0 .405.252.61.246.204.797.334.305.07.68.14.381.07.633.13.767.175 1.183.603.417.434.416 1.148m6.581-1.271h-4.822q0 .603.181 1.055.182.444.498.732.305.28.721.422.422.14.926.14.667 0 1.341-.263.68-.27.967-.528h.059v1.202q-.556.234-1.137.392a4.6 4.6 0 0 1-1.219.158q-1.629 0-2.543-.879-.914-.885-.914-2.507 0-1.605.873-2.55.88-.942 2.309-.943 1.325 0 2.039.774.721.774.721 2.197zm-1.072-.844q-.006-.867-.44-1.342-.428-.474-1.307-.474-.884 0-1.412.521a2.03 2.03 0 0 0-.591 1.295zm7.57 4.002h-1.101v-.686a4 4 0 0 1-.991.64 2.7 2.7 0 0 1-1.119.228q-1.171 0-1.863-.903-.685-.901-.685-2.502 0-.832.234-1.482.24-.65.644-1.108a2.72 2.72 0 0 1 2.028-.914q.515 0 .914.112.398.105.838.334v-2.836h1.101zm-1.101-1.611v-3.756a4 4 0 0 0-.797-.276 3.6 3.6 0 0 0-.768-.076q-.925 0-1.441.645t-.516 1.828q0 1.166.399 1.775.398.604 1.277.604a2.4 2.4 0 0 0 .949-.205q.48-.21.897-.54M137.637 72h-1.102v-3.727a8 8 0 0 0-.041-.814 1.7 1.7 0 0 0-.158-.627.9.9 0 0 0-.387-.38q-.252-.13-.726-.13-.463 0-.926.235a5.5 5.5 0 0 0-.926.586q.018.135.029.316.012.175.012.352V72h-1.101v-3.727q0-.433-.041-.82a1.7 1.7 0 0 0-.159-.627.85.85 0 0 0-.386-.375q-.252-.129-.727-.129a2.06 2.06 0 0 0-.908.223 5.4 5.4 0 0 0-.902.568V72h-1.102v-6.545h1.102v.727a4.9 4.9 0 0 1 1.025-.668q.516-.24 1.096-.24.667 0 1.131.28.468.282.697.78.667-.563 1.219-.809a2.8 2.8 0 0 1 1.177-.252q1.078 0 1.588.657.516.65.516 1.822zm7.219-3.27q0 1.6-.82 2.526t-2.198.926q-1.388 0-2.209-.926-.814-.927-.814-2.525 0-1.6.814-2.526.821-.932 2.209-.932 1.377 0 2.198.932.82.926.82 2.526m-1.137 0q0-1.27-.498-1.886-.498-.621-1.383-.621-.896 0-1.394.62-.492.615-.492 1.888 0 1.23.498 1.869.498.632 1.388.632.879 0 1.377-.626.504-.633.504-1.875M151.56 72h-1.102v-3.727q0-.45-.053-.843-.052-.399-.193-.621a.88.88 0 0 0-.422-.364q-.276-.123-.715-.123-.451 0-.943.223a4.8 4.8 0 0 0-.943.568V72h-1.102v-6.545h1.102v.727a4.5 4.5 0 0 1 1.066-.668 2.8 2.8 0 0 1 1.131-.24q1.06 0 1.617.638.557.64.557 1.84zm5.039-.059a6 6 0 0 1-1.33.188q-1.002 0-1.523-.54-.522-.538-.522-1.728v-3.48h-.744v-.926h.744v-1.88h1.102v1.88h2.273v.926h-2.273v2.982q0 .516.023.809.023.287.164.539a.8.8 0 0 0 .352.346q.228.105.691.105.27 0 .563-.076.293-.082.422-.135h.058zm6.329.059h-1.102v-3.727q0-.45-.053-.843-.052-.399-.193-.621a.88.88 0 0 0-.422-.364q-.275-.123-.715-.123-.45 0-.943.223a4.8 4.8 0 0 0-.943.568V72h-1.102v-9.117h1.102v3.299a4.5 4.5 0 0 1 1.066-.668 2.8 2.8 0 0 1 1.131-.24q1.06 0 1.617.638.557.64.557 1.84zm3.44 0h-1.401v-1.67h1.401z"/></g><rect width="369.511" height="87.511" x=".745" y=".745" stroke="url(#c)" stroke-opacity=".08" stroke-width=".511" rx="10.255"/><defs><linearGradient id="b" x1="36.312" x2="207.578" y1="6.611" y2="67.347" gradientUnits="userSpaceOnUse"><stop stop-color="#003F88"/><stop offset=".65" stop-color="#03BCFF"/><stop offset="1" stop-color="#0076FF"/></linearGradient><linearGradient id="c" x1="46.7" x2="365.747" y1="12.907" y2="109.173" gradientUnits="userSpaceOnUse"><stop stop-color="#003F88"/><stop offset=".65" stop-color="#02D4FF"/><stop offset="1" stop-color="#0076FF"/></linearGradient><clipPath id="a"><rect width="369" height="87" x="1" y="1" fill="#fff" rx="10"/></clipPath></defs></svg>