<svg xmlns="http://www.w3.org/2000/svg" width="375" height="145" fill="none"><g clip-path="url(#a)"><rect width="373" height="143" x="1" y="1" fill="#E3F0FF" rx="10"/><path fill="#C8E2FF" d="M379.257 159c-143.113-3.736-175.944-8.836-182.825-17.463-6.042-9.025-6.042-9.025 63.984-59.124 31.74-22.689 81.94-58.621 98.261-73.985A1242 1242 0 0 0 234.78-4.942a7.97 7.97 0 0 1-8.559-3.82 8.12 8.12 0 0 1 3.041-11.207 8.1 8.1 0 0 1 4.133-1.03c2.098 0 141.981 6.088 145.631 24.264 1.322 10.368-11.433 22.185-109.338 92.203-18.88 13.432-39.313 28.124-51.04 37.149 37.656 5.331 143.638 9.172 161.07 10.348a8.082 8.082 0 0 1 7.28 8.227 8.1 8.1 0 0 1-2.344 5.42 8.1 8.1 0 0 1-5.397 2.388"/><path fill="url(#b)" d="M32.163 40.197H19.577V22.748h4.5v14.074h8.086zm15.445-5.8h-9.656q.094 1.546 1.172 2.367 1.09.82 3.2.82 1.335 0 2.59-.48 1.252-.48 1.98-1.032h.468v3.387q-1.43.574-2.695.832-1.266.258-2.8.258-3.962 0-6.071-1.781-2.11-1.782-2.11-5.075 0-3.257 1.993-5.156 2.004-1.91 5.484-1.91 3.21 0 4.828 1.629 1.617 1.617 1.617 4.664zm-4.195-2.473q-.035-1.325-.656-1.992-.621-.669-1.934-.668-1.218 0-2.004.633-.785.632-.879 2.027zM59 40.08q-.68.175-1.441.27-.763.105-1.864.105-2.46 0-3.668-.996-1.195-.995-1.195-3.41v-6.152h-1.734v-2.86h1.734v-3.762h4.219v3.762h3.949v2.86h-3.95v4.663q0 .693.013 1.208.011.515.187.925.164.41.574.657.423.234 1.219.234.329 0 .855-.14.54-.14.75-.259H59zm8.133-18.117-3.41 6.902H60.98l1.84-6.902zm13.804 14.062q0 2.04-1.828 3.293-1.827 1.243-5.004 1.242-1.757 0-3.187-.328-1.43-.327-2.297-.726v-3.469h.387q.316.223.726.492.422.258 1.184.563.657.27 1.488.468a8 8 0 0 0 1.781.188q1.243 0 1.84-.27.598-.28.598-.82 0-.48-.352-.691-.352-.224-1.336-.422-.468-.106-1.277-.223a15 15 0 0 1-1.453-.304q-1.793-.47-2.66-1.453-.867-.997-.867-2.473 0-1.9 1.793-3.152 1.804-1.266 4.922-1.266 1.476 0 2.824.305 1.36.293 2.12.632v3.328h-.362a8.4 8.4 0 0 0-2.145-1.043 7.4 7.4 0 0 0-2.426-.41q-1.02 0-1.722.282-.692.281-.692.796 0 .47.317.715.316.246 1.488.492.644.129 1.383.258a17 17 0 0 1 1.5.305q1.665.433 2.46 1.371.797.925.797 2.32m25.219-1.312q0 2.578-2.191 4.195-2.18 1.605-5.93 1.606-2.168 0-3.785-.375a20 20 0 0 1-3.012-.973v-4.184h.493q1.394 1.114 3.117 1.711 1.734.598 3.328.598.41 0 1.078-.07t1.09-.235a2.6 2.6 0 0 0 .844-.527q.339-.317.339-.937 0-.575-.492-.985-.48-.422-1.418-.644-.984-.235-2.086-.434-1.09-.21-2.05-.527-2.204-.716-3.176-1.934-.96-1.23-.961-3.047 0-2.437 2.18-3.972 2.19-1.547 5.624-1.547 1.724 0 3.399.34 1.688.328 2.918.832v4.019h-.481q-1.055-.843-2.589-1.406a8.8 8.8 0 0 0-3.118-.574q-.562 0-1.125.082-.55.07-1.066.28a2 2 0 0 0-.785.54 1.15 1.15 0 0 0-.328.808q0 .692.527 1.067.528.363 1.992.668.96.2 1.84.387a19 19 0 0 1 1.91.515q2.004.657 2.953 1.793.961 1.125.961 2.93m11.274 5.367q-.68.175-1.442.27-.762.105-1.863.105-2.461 0-3.668-.996-1.195-.995-1.195-3.41v-6.152h-1.735v-2.86h1.735v-3.762h4.218v3.762h3.95v2.86h-3.95v4.663q0 .693.012 1.208t.188.925q.163.41.574.657.421.234 1.219.234.328 0 .855-.14.54-.14.75-.259h.352zm10.5-3.316v-2.742a40 40 0 0 0-1.852.199q-.996.117-1.512.281-.632.2-.972.586-.328.375-.328.996 0 .41.07.668t.352.492q.269.234.644.352.375.105 1.172.105.633 0 1.277-.258a4 4 0 0 0 1.149-.68m0 2.039q-.34.258-.844.62a6 6 0 0 1-.949.575 5.8 5.8 0 0 1-1.289.41q-.669.14-1.465.14-1.875 0-3.141-1.16-1.265-1.16-1.265-2.964 0-1.441.644-2.356.645-.914 1.828-1.441 1.172-.528 2.906-.75a51 51 0 0 1 3.598-.328v-.07q0-1.09-.89-1.5-.891-.422-2.625-.422-1.044 0-2.227.375a28 28 0 0 0-1.699.562h-.387v-3.176q.668-.176 2.168-.41a19 19 0 0 1 3.023-.246q3.598 0 5.192 1.113 1.605 1.102 1.605 3.47v8.952h-4.183zm17.601-7.746h-.375q-.268-.095-.867-.141a13 13 0 0 0-.996-.047 9.6 9.6 0 0 0-1.594.117 9 9 0 0 0-1.488.399v8.812h-4.219v-13.16h4.219v1.934q1.395-1.196 2.426-1.582 1.03-.399 1.898-.399.224 0 .504.012.282.012.492.035zm10.805 9.023q-.68.175-1.441.27a14 14 0 0 1-1.864.105q-2.46 0-3.668-.996-1.195-.995-1.195-3.41v-6.152h-1.734v-2.86h1.734v-3.762h4.219v3.762h3.949v2.86h-3.949v4.663q0 .693.011 1.208.012.515.188.925.164.41.574.657.422.234 1.219.234.329 0 .855-.14.54-.14.75-.259h.352z"/><path fill="#384F69" d="M26.292 64.197h-1.16V56.68l-2.426 5.115h-.691l-2.409-5.115v7.517h-1.084v-8.724h1.583l2.326 4.857 2.25-4.857h1.611zm6.862 0h-1.096V63.5q-.147.1-.398.281a3.157 3.157 0 0 1-1.113.504 3.3 3.3 0 0 1-.838.094q-.885 0-1.5-.586-.616-.586-.616-1.494 0-.745.317-1.201.323-.463.914-.727.598-.264 1.435-.357.838-.095 1.8-.141v-.17q0-.375-.136-.621a.94.94 0 0 0-.375-.387 1.6 1.6 0 0 0-.562-.181 5 5 0 0 0-.686-.047q-.434 0-.966.117a7 7 0 0 0-1.102.328h-.059v-1.119q.323-.088.932-.193.61-.106 1.201-.106.691 0 1.201.117.516.112.89.387.37.27.563.697.194.428.194 1.06zm-1.096-1.611v-1.822q-.503.029-1.19.088a6 6 0 0 0-1.077.17q-.476.135-.768.421-.293.282-.293.78 0 .562.34.85.34.28 1.037.28.58 0 1.06-.222.48-.229.891-.545m8.678 1.611h-1.453l-2.625-2.865-.715.68v2.185h-1.101V55.08h1.101v5.848l3.182-3.276h1.389l-3.041 3.024zm6.042-3.158h-4.822q0 .603.181 1.055.182.445.498.732.305.282.72.422.422.14.927.14a3.7 3.7 0 0 0 1.342-.263q.68-.27.966-.527h.059v1.2q-.556.236-1.137.393a4.6 4.6 0 0 1-1.219.159q-1.628 0-2.543-.88-.914-.884-.914-2.507 0-1.605.873-2.549.88-.943 2.309-.943 1.325 0 2.04.773.72.774.72 2.197zm-1.072-.844q-.005-.867-.44-1.342-.427-.474-1.307-.474-.885 0-1.412.521-.521.522-.591 1.295zm11.086 4.002h-1.095V63.5q-.146.1-.399.281a3.157 3.157 0 0 1-1.113.504 3.3 3.3 0 0 1-.838.094q-.885 0-1.5-.586t-.615-1.494q0-.745.316-1.201.323-.463.914-.727.598-.264 1.436-.357.837-.095 1.799-.141v-.17q0-.375-.135-.621a.94.94 0 0 0-.375-.387 1.6 1.6 0 0 0-.563-.181 5 5 0 0 0-.685-.047q-.434 0-.967.117a7 7 0 0 0-1.102.328h-.058v-1.119q.322-.088.932-.193.609-.106 1.2-.106.693 0 1.202.117.516.112.89.387.37.27.563.697.193.428.193 1.06zm-1.095-1.611v-1.822q-.504.029-1.19.088a6 6 0 0 0-1.078.17q-.474.135-.768.421-.292.282-.292.78 0 .562.34.85.34.28 1.036.28.58 0 1.061-.222.48-.229.89-.545m11.784 1.611h-1.102v-.685a4 4 0 0 1-.99.638 2.7 2.7 0 0 1-1.12.229q-1.171 0-1.862-.902-.686-.903-.686-2.502 0-.833.234-1.483a3.5 3.5 0 0 1 .645-1.107 2.7 2.7 0 0 1 2.027-.914q.516 0 .914.111.399.106.838.334V55.08h1.102zm-1.102-1.611V58.83a4 4 0 0 0-.797-.275 3.6 3.6 0 0 0-.767-.077q-.926 0-1.442.645t-.515 1.828q0 1.166.398 1.776.399.603 1.278.603.468 0 .949-.205.48-.21.896-.54m6.874-3.733h-.059a4.365 4.365 0 0 0-1.025-.111q-.51 0-.985.229a4.4 4.4 0 0 0-.914.58v4.646H69.17v-6.545h1.101v.967q.657-.527 1.155-.744a2.5 2.5 0 0 1 1.025-.223q.287 0 .416.018.129.012.387.053zm5.432 5.344h-1.096V63.5q-.146.1-.398.281a3.157 3.157 0 0 1-1.113.504 3.3 3.3 0 0 1-.838.094q-.885 0-1.5-.586t-.616-1.494q0-.745.317-1.201.323-.463.914-.727.597-.264 1.435-.357.839-.095 1.8-.141v-.17q0-.375-.136-.621a.94.94 0 0 0-.375-.387 1.6 1.6 0 0 0-.562-.181 5 5 0 0 0-.686-.047q-.434 0-.966.117a7 7 0 0 0-1.102.328h-.059v-1.119q.323-.088.932-.193.61-.106 1.201-.106.692 0 1.201.117.516.112.891.387.37.27.563.697.192.428.193 1.06zm-1.096-1.611v-1.822q-.504.029-1.19.088a6 6 0 0 0-1.077.17q-.475.135-.768.421-.293.282-.293.78 0 .562.34.85.34.28 1.037.28.58 0 1.06-.222.48-.229.891-.545m6.258-6.44h-.058a5 5 0 0 0-.475-.105 2.7 2.7 0 0 0-.515-.059q-.71 0-1.032.317-.315.31-.316 1.13v.223h1.986v.926h-1.95v5.62h-1.102v-5.62h-.745v-.926h.745v-.217q0-1.166.58-1.787.58-.626 1.675-.626.37 0 .662.035.3.034.545.082zm3.616 7.993a6 6 0 0 1-1.33.187q-1.002 0-1.523-.539-.522-.54-.522-1.728v-3.48h-.744v-.927h.744v-1.88h1.102v1.88h2.273v.926H85.19v2.982q0 .516.023.81.024.285.164.538a.8.8 0 0 0 .352.346q.228.105.691.105.27 0 .563-.076a4 4 0 0 0 .422-.135h.058zm8.116-7.992h-.058a5 5 0 0 0-.475-.106 2.7 2.7 0 0 0-.516-.059q-.708 0-1.03.317-.317.31-.317 1.13v.223h1.986v.926h-1.951v5.62h-1.102v-5.62h-.744v-.926h.744v-.217q0-1.166.58-1.787.58-.626 1.676-.626.37 0 .662.035.3.034.545.082zm5.796 4.78q0 1.6-.821 2.526-.82.926-2.197.926-1.389 0-2.209-.926-.814-.926-.814-2.525 0-1.6.814-2.526.82-.93 2.21-.931 1.376 0 2.196.931.82.926.821 2.526m-1.137 0q0-1.27-.498-1.886-.498-.621-1.383-.621-.896 0-1.394.621-.493.616-.493 1.887 0 1.23.499 1.869.498.633 1.388.633.879 0 1.377-.627.504-.633.504-1.875m6.452-2.074h-.059a4.374 4.374 0 0 0-1.025-.111q-.51 0-.985.229a4.4 4.4 0 0 0-.914.58v4.646h-1.101v-6.545h1.101v.967q.656-.527 1.155-.744a2.5 2.5 0 0 1 1.025-.223q.287 0 .416.018.129.012.387.053zm9.956-1.2-3.821 8.958h-1.177l1.218-2.73-2.607-6.229h1.195l2.01 4.852 2.027-4.852zm6.434 3.275q0 1.6-.821 2.525-.82.926-2.197.926-1.389 0-2.209-.926-.814-.926-.814-2.525 0-1.6.814-2.526.82-.93 2.209-.931 1.377 0 2.197.931.82.926.821 2.526m-1.137 0q0-1.272-.498-1.887-.498-.621-1.383-.621-.897 0-1.394.621-.493.616-.493 1.887 0 1.23.498 1.869.499.633 1.389.633.879 0 1.377-.627.504-.633.504-1.875m7.793 3.27h-1.101v-.727a5.4 5.4 0 0 1-1.067.673 2.66 2.66 0 0 1-1.125.235q-1.03 0-1.605-.627-.574-.633-.574-1.852v-4.248h1.101v3.727q0 .498.047.855.047.352.199.604a.95.95 0 0 0 .411.375q.252.117.732.117.428 0 .932-.223.51-.222.949-.568v-4.887h1.101zm5.772-5.344h-.058a4.363 4.363 0 0 0-1.026-.111q-.51 0-.984.228a4.4 4.4 0 0 0-.914.58v4.646h-1.102v-6.545h1.102v.967q.656-.527 1.154-.744a2.5 2.5 0 0 1 1.026-.223q.287 0 .416.018.13.012.386.053zm11.263 5.343h-1.236l-.856-2.431h-3.773l-.856 2.431h-1.177l3.175-8.724h1.547zm-2.449-3.428-1.529-4.283-1.536 4.284zm6.487 3.37a6 6 0 0 1-1.33.187q-1.002 0-1.524-.539-.522-.54-.521-1.728v-3.48h-.745v-.927h.745v-1.88h1.101v1.88h2.274v.926h-2.274v2.982q0 .516.024.81a1.3 1.3 0 0 0 .164.538.8.8 0 0 0 .351.346q.229.105.692.105.269 0 .562-.076.293-.083.422-.135h.059zm4.254 0a6 6 0 0 1-1.33.187q-1.002 0-1.524-.539-.52-.54-.521-1.728v-3.48h-.744v-.927h.744v-1.88h1.102v1.88h2.273v.926h-2.273v2.982q0 .516.023.81.024.285.164.538a.8.8 0 0 0 .352.346q.228.105.691.105.27 0 .563-.076.292-.083.421-.135h.059zm6.334-3.1h-4.822q0 .603.182 1.055.182.445.498.732.304.282.721.422.421.14.925.14.669 0 1.342-.263.68-.27.967-.527h.059v1.2q-.557.236-1.137.393a4.6 4.6 0 0 1-1.219.159q-1.63 0-2.543-.88-.914-.884-.914-2.507 0-1.605.873-2.549.88-.943 2.309-.943 1.324 0 2.039.773.72.774.72 2.197zm-1.072-.844q-.006-.867-.439-1.342-.428-.474-1.307-.474-.885 0-1.412.521a2.03 2.03 0 0 0-.592 1.295zm7.735 4.002h-1.102v-3.726q0-.451-.052-.844-.053-.399-.194-.621a.87.87 0 0 0-.421-.363q-.276-.124-.715-.123a2.3 2.3 0 0 0-.944.222 4.8 4.8 0 0 0-.943.569v4.886h-1.102v-6.545h1.102v.727a4.5 4.5 0 0 1 1.066-.668q.551-.24 1.131-.24 1.06 0 1.617.638.557.64.557 1.84zm6.95 0h-1.102v-.685a4 4 0 0 1-.99.638 2.7 2.7 0 0 1-1.119.229q-1.172 0-1.863-.902-.686-.903-.686-2.502 0-.833.234-1.483a3.5 3.5 0 0 1 .645-1.107 2.7 2.7 0 0 1 2.027-.914q.516 0 .914.111.399.106.838.334V55.08h1.102zm-1.102-1.611V58.83a4 4 0 0 0-.797-.275 3.6 3.6 0 0 0-.767-.077q-.926 0-1.442.645t-.515 1.828q0 1.166.398 1.776.4.603 1.277.603.469 0 .95-.205.48-.21.896-.54m7.876 1.611h-1.096V63.5q-.147.1-.399.281a3.172 3.172 0 0 1-1.113.504 3.3 3.3 0 0 1-.838.094q-.885 0-1.5-.586t-.615-1.494q0-.745.316-1.201.323-.463.915-.727.598-.264 1.435-.357a29 29 0 0 1 1.799-.141v-.17q0-.375-.135-.621a.94.94 0 0 0-.375-.387 1.6 1.6 0 0 0-.562-.181 5 5 0 0 0-.686-.047q-.433 0-.967.117a7 7 0 0 0-1.101.328h-.059v-1.119q.323-.088.932-.193t1.201-.106q.691 0 1.201.117.516.112.891.387.369.27.562.697.194.428.194 1.06zm-1.096-1.611v-1.822q-.504.029-1.19.088a6 6 0 0 0-1.078.17q-.474.135-.767.421-.294.282-.293.78 0 .562.34.85.34.28 1.037.28.58 0 1.06-.222.48-.229.891-.545m8.209 1.611h-1.101v-3.726q0-.451-.053-.844-.053-.399-.193-.621a.88.88 0 0 0-.422-.363q-.276-.124-.715-.123-.451 0-.943.222a4.8 4.8 0 0 0-.944.569v4.886h-1.101v-6.545h1.101v.727q.516-.428 1.067-.668t1.131-.24q1.06 0 1.617.638.556.64.556 1.84zm6.481-.41a7 7 0 0 1-1.049.41 3.7 3.7 0 0 1-1.048.147q-.71 0-1.301-.205a2.7 2.7 0 0 1-1.014-.633 2.8 2.8 0 0 1-.662-1.066q-.234-.645-.234-1.506 0-1.605.879-2.52.884-.915 2.332-.914.563 0 1.101.158.546.159.996.387v1.224h-.058a4.2 4.2 0 0 0-1.043-.603 2.8 2.8 0 0 0-1.043-.21q-.937 0-1.483.632-.539.627-.539 1.846 0 1.183.528 1.822.532.633 1.494.633.334 0 .679-.088t.622-.229q.24-.123.451-.258a5 5 0 0 0 .334-.24h.058zm6.417-2.748h-4.822q0 .603.181 1.055.182.445.498.732.305.282.721.422.422.14.926.14.667 0 1.342-.263.68-.27.966-.527h.059v1.2q-.556.236-1.137.393a4.6 4.6 0 0 1-1.219.159q-1.628 0-2.543-.88-.914-.884-.914-2.507 0-1.605.873-2.549.88-.943 2.309-.943 1.325 0 2.039.773.721.774.721 2.197zm-1.072-.844q-.006-.867-.44-1.342-.428-.474-1.307-.474-.884 0-1.412.521a2.03 2.03 0 0 0-.591 1.295zM25.741 81.197h-1.506l-2.918-3.469h-1.634v3.47h-1.16v-8.725h2.443q.791 0 1.318.105.527.1.95.363.474.3.738.756.27.451.27 1.149 0 .943-.475 1.582-.475.633-1.307.955zm-2.713-6.27q0-.375-.134-.661a1.13 1.13 0 0 0-.434-.493 1.6 1.6 0 0 0-.598-.234 4 4 0 0 0-.814-.07h-1.365v3.293h1.172q.55 0 .96-.094.41-.099.698-.363.263-.246.386-.563.13-.322.13-.814m8.456 3.112h-4.822q0 .603.181 1.055.181.445.498.732.305.281.721.422.422.14.926.14a3.7 3.7 0 0 0 1.342-.263q.68-.27.966-.527h.059v1.2q-.557.236-1.137.393A4.6 4.6 0 0 1 29 81.35q-1.629 0-2.544-.88-.913-.885-.913-2.507 0-1.605.873-2.549.878-.943 2.308-.943 1.325 0 2.04.773.72.774.72 2.197zm-1.072-.844q-.005-.867-.44-1.341-.427-.475-1.306-.475-.885 0-1.413.521-.52.522-.591 1.295zm7.57 3.258q0 1.665-.755 2.444-.756.779-2.327.779-.52 0-1.02-.076a8 8 0 0 1-.972-.206V82.27h.059q.27.106.855.258.585.159 1.172.159.563 0 .932-.135a1.34 1.34 0 0 0 .574-.375q.205-.229.293-.551t.088-.72v-.598q-.498.398-.955.597-.452.195-1.155.194-1.17 0-1.863-.844-.685-.85-.685-2.39 0-.845.234-1.454.24-.615.65-1.06a2.6 2.6 0 0 1 .926-.645 2.7 2.7 0 0 1 1.084-.234q.57 0 .95.117.386.112.814.346l.07-.282h1.031zm-1.101-1.055V75.83a4 4 0 0 0-.82-.281q-.375-.088-.75-.088-.91 0-1.43.61-.522.609-.522 1.769 0 1.1.387 1.67.387.568 1.283.568.48 0 .961-.181.486-.188.89-.499m8.215 1.8h-1.101v-.727a5.4 5.4 0 0 1-1.067.673 2.7 2.7 0 0 1-1.125.235q-1.03 0-1.605-.627-.575-.633-.575-1.852v-4.248h1.102v3.727q0 .498.047.855.047.352.2.604a.95.95 0 0 0 .41.375q.25.117.732.117.427 0 .931-.223a4.3 4.3 0 0 0 .95-.568v-4.887h1.101zm2.801 0h-1.101V72.08h1.101zm6.786 0h-1.096V80.5q-.146.1-.398.281a3.154 3.154 0 0 1-1.113.504 3.3 3.3 0 0 1-.838.094q-.885 0-1.5-.586t-.615-1.494q0-.744.316-1.201.323-.463.914-.727.598-.264 1.435-.357.84-.095 1.8-.141v-.17q0-.375-.136-.621a.94.94 0 0 0-.374-.387 1.6 1.6 0 0 0-.563-.181 5 5 0 0 0-.685-.047q-.435 0-.967.117a7 7 0 0 0-1.102.328h-.059v-1.119q.323-.088.932-.193.61-.106 1.201-.106.692 0 1.201.117.516.112.891.387.37.27.563.697.193.429.193 1.06zm-1.096-1.612v-1.822q-.504.03-1.19.088a6 6 0 0 0-1.077.17 1.76 1.76 0 0 0-.768.421q-.293.282-.293.78 0 .562.34.85.34.28 1.037.28.58 0 1.06-.222.482-.229.891-.545m6.821-3.733h-.059a4.365 4.365 0 0 0-1.025-.111q-.51 0-.984.229a4.4 4.4 0 0 0-.914.58v4.646h-1.102v-6.545h1.102v.967q.656-.527 1.154-.744a2.5 2.5 0 0 1 1.025-.223q.287 0 .416.018.129.011.387.053zm1.74-2.296h-1.241v-1.143h1.242zm-.07 7.64h-1.101v-6.545h1.102zm6.446 0H63.24v-.814l3.815-4.81H63.32v-.92h5.104v.784l-3.832 4.829h3.931zm6.165 0h-1.096V80.5q-.147.1-.398.281a3.157 3.157 0 0 1-1.113.504 3.3 3.3 0 0 1-.839.094q-.885 0-1.5-.586t-.615-1.494q0-.744.317-1.201.323-.463.914-.727.597-.264 1.435-.357.838-.095 1.8-.141v-.17q0-.375-.136-.621a.94.94 0 0 0-.375-.387 1.6 1.6 0 0 0-.562-.181 5 5 0 0 0-.686-.047q-.433 0-.966.117a7 7 0 0 0-1.102.328h-.059v-1.119q.323-.088.932-.193.61-.106 1.201-.106.692 0 1.201.117.515.112.89.387.37.27.563.697.194.429.194 1.06zm-1.096-1.611v-1.822q-.504.03-1.19.088a6 6 0 0 0-1.078.17q-.474.135-.767.421-.293.282-.293.78 0 .562.34.85.34.28 1.037.28.58 0 1.06-.222.48-.229.891-.545m6.135 1.553a6 6 0 0 1-1.33.187q-1.002 0-1.523-.539-.522-.54-.522-1.728v-3.48h-.744v-.927h.744v-1.88h1.102v1.88h2.273v.926h-2.273v2.983q0 .515.023.808.023.287.164.54a.8.8 0 0 0 .352.345q.228.105.691.105.27 0 .563-.076.293-.082.422-.135h.058zm2.04-7.582h-1.242v-1.143h1.242zm-.07 7.64h-1.102v-6.545h1.102zm7.277-3.27q0 1.6-.82 2.526-.821.926-2.197.926-1.389 0-2.21-.926-.813-.926-.814-2.525 0-1.6.815-2.526.82-.93 2.209-.931 1.377 0 2.197.931.82.926.82 2.526m-1.136 0q0-1.27-.498-1.886-.498-.621-1.383-.621-.897 0-1.395.621-.492.616-.492 1.887 0 1.23.498 1.869.498.633 1.389.633.879 0 1.377-.627.504-.633.504-1.875m7.84 3.27h-1.102v-3.726q0-.451-.052-.844-.053-.399-.194-.621a.88.88 0 0 0-.422-.363q-.275-.123-.714-.124-.452 0-.944.223a4.8 4.8 0 0 0-.943.569v4.886h-1.102v-6.545h1.102v.727a4.5 4.5 0 0 1 1.066-.668q.55-.24 1.131-.24 1.06 0 1.617.638.557.64.557 1.84zm10.466 0h-1.096V80.5q-.147.1-.398.281a3 3 0 0 1-.481.281q-.275.136-.633.223a3.3 3.3 0 0 1-.838.094 2.1 2.1 0 0 1-1.5-.586q-.615-.586-.615-1.494 0-.744.317-1.201.321-.463.914-.727.597-.264 1.435-.357a29 29 0 0 1 1.799-.141v-.17q0-.375-.135-.621a.94.94 0 0 0-.375-.387 1.6 1.6 0 0 0-.562-.181 5 5 0 0 0-.686-.047q-.433 0-.967.117a7 7 0 0 0-1.101.328h-.059v-1.119q.323-.088.932-.193.61-.106 1.201-.106.691 0 1.201.117.516.112.891.387.369.27.562.697.194.429.194 1.06zm-1.096-1.611v-1.822q-.504.03-1.189.088a6 6 0 0 0-1.079.17q-.474.135-.767.421-.293.282-.293.78 0 .562.34.85.34.28 1.037.28.58 0 1.06-.222a5 5 0 0 0 .891-.545m8.209 1.611h-1.101v-3.726q0-.451-.053-.844-.052-.399-.193-.621a.88.88 0 0 0-.422-.363q-.276-.123-.715-.124-.451 0-.943.223a4.8 4.8 0 0 0-.944.569v4.886h-1.101v-6.545h1.101v.727q.516-.428 1.067-.668t1.131-.24q1.06 0 1.617.638.556.64.556 1.84zm6.95 0h-1.101v-.685a4 4 0 0 1-.991.638 2.7 2.7 0 0 1-1.119.229q-1.172 0-1.863-.902-.686-.903-.686-2.502 0-.833.235-1.483.24-.65.644-1.107a2.72 2.72 0 0 1 2.028-.914q.515 0 .914.111.398.105.838.334V72.08h1.101zm-1.101-1.611V75.83a4 4 0 0 0-.797-.275 3.6 3.6 0 0 0-.768-.077q-.926 0-1.441.645-.516.646-.516 1.828 0 1.167.399 1.776.398.603 1.277.603.469 0 .949-.205.48-.21.897-.54m11.204-.275q0 .895-.744 1.47-.739.575-2.022.575-.727 0-1.336-.17a6 6 0 0 1-1.014-.381v-1.237h.059q.522.393 1.16.627.639.23 1.225.229.726 0 1.137-.235.41-.234.41-.738 0-.387-.223-.586-.223-.2-.855-.34a17 17 0 0 0-.616-.123 10 10 0 0 1-.685-.152q-.862-.228-1.225-.668-.357-.445-.357-1.09 0-.404.164-.761.17-.358.51-.64.328-.274.832-.433.509-.165 1.136-.164.586 0 1.184.147.603.14 1.002.345v1.178h-.059a3.9 3.9 0 0 0-1.025-.521 3.5 3.5 0 0 0-1.184-.217q-.603 0-1.019.234-.417.229-.416.686 0 .404.252.61.245.204.797.333.304.07.679.14.381.071.633.13.767.176 1.184.603.416.435.416 1.148m6.527 1.886h-1.101v-.726a5.4 5.4 0 0 1-1.066.673q-.51.235-1.125.235-1.032 0-1.606-.627-.574-.633-.574-1.852v-4.248h1.101v3.727q0 .498.047.855.048.352.199.604a.95.95 0 0 0 .411.375q.252.117.732.117.428 0 .932-.223.51-.222.949-.568v-4.887h1.101zm7.448-3.322q0 .821-.234 1.477-.23.656-.621 1.101a2.9 2.9 0 0 1-.914.697 2.6 2.6 0 0 1-1.096.229q-.556 0-.973-.135a4.4 4.4 0 0 1-.82-.351l-.07.304h-1.032V72.08h1.102v3.258q.464-.381.984-.621a2.7 2.7 0 0 1 1.172-.246q1.16 0 1.828.89.674.891.674 2.514m-1.137.03q0-1.173-.386-1.776-.387-.61-1.248-.61-.481 0-.973.212a4 4 0 0 0-.914.533v3.75q.469.21.803.293.34.082.767.082.915 0 1.43-.598.522-.603.521-1.887m11.925 3.292h-1.102v-3.726q0-.422-.041-.815a1.7 1.7 0 0 0-.158-.627.9.9 0 0 0-.387-.38q-.252-.13-.726-.13-.463 0-.926.235a5.5 5.5 0 0 0-.926.586q.018.135.029.316.012.176.012.352v4.19h-1.101V77.47q0-.435-.041-.82a1.7 1.7 0 0 0-.159-.628.85.85 0 0 0-.386-.375q-.252-.128-.727-.129a2.06 2.06 0 0 0-.908.223 5.4 5.4 0 0 0-.902.569v4.886h-1.102v-6.545h1.102v.727a4.9 4.9 0 0 1 1.025-.668q.516-.24 1.096-.24.667 0 1.131.281.468.281.697.78.667-.563 1.219-.81a2.8 2.8 0 0 1 1.177-.251q1.078 0 1.588.656.516.65.516 1.822zm2.824-7.64h-1.242v-1.143h1.242zm-.07 7.64h-1.101v-6.545h1.101zm5.098-.058a6 6 0 0 1-1.33.187q-1.002 0-1.523-.539-.522-.54-.522-1.728v-3.48h-.744v-.927h.744v-1.88h1.102v1.88h2.273v.926h-2.273v2.983q0 .515.023.808.024.287.164.54a.8.8 0 0 0 .352.345q.228.105.691.105.27 0 .563-.076.293-.082.422-.135h.058z"/><path fill="#005BC3" d="M287.467 60.12c-.181.065-8.572-6.656-11.61-8.075 0 0 4.379 16.828 4.437 24.6a83 83 0 0 1 9.314 4.683c6.908-.2 13.819.255 20.64 1.36 0 0-.245-22.2-.123-27.128.033.058-8.72-.438-22.658 4.56"/><path fill="#fff" d="m305.966 55.497-1.477-3.948c-3.025.645-6.127-.645-7.462-3.083-2.381-4.296-3.451-13.01-3.451-13.01 5.482.93 9.984-3.083 9.984-3.083 1.232 4.748 6.45 7.276 6.45 7.276s1.826-2.019 2.961-.303c1.567 2.36-1.484 3.509-1.484 3.509.375 5.056-1.167 6.353-1.167 6.353l2.219 4.437s1.354-1.586 5.302-1.29c4.315.323 10.668 7.58 13.5 15.229 3.979 10.662-1.232 13.983-1.232 13.983s25.838.123 27.935.059c2.096-.065 1.664.986 1.664 1.728a.91.91 0 0 1-.497.922c2.432 12.965-4.831 19.866-8.849 22.517-2.09 1.368-8.037 3.761-8.385 5.921-.136.8.49 2.651 3.76 4.193s10.997 6.095 13.874 12.21a19.87 19.87 0 0 1 1.458 12.087c.645.123.799.555.864 1.935s-.742 1.419-1.29 1.419-40.138 0-42.17.123c-2.032.122-1.974-.555-2.038-1.974-.065-1.419.986-1.419.986-1.419a34 34 0 0 1-.122-5.979s-2.161 3.451-2.838 3.083-.245-9.494-.245-9.494a38.3 38.3 0 0 0 4.128-6.45c1.109.187 3.702 2.341 3.702 2.341s1.355-2.038 6.534-5.238c4.005-2.476 8.03-4.315 8.082-6.54.077-3.696-9.611-4.321-14.493-12.203a20.74 20.74 0 0 1-3.225-9.624c-12.333-8.01-26.574-5.979-26.574-5.979.49-1.786 1.354-4.005 1.354-4.005s14.242.645 16.467 1.541v-4.74s-.31-.433-.432-.645c0 0-1.522-.142-3.025-1.974s-1.6-2.529-1.355-2.651c.245-.123 1.787.49 1.787.49s-1.793-2.715-1.29-3.393c.368-.49 1.541.252 1.541.252s-1.599-2.225-.922-2.715c.432-.31 1.477.367 1.477.367s-1.045-1.935-.555-2.277c.684-.432 2.716 1.664 2.716 1.664v-11.5s-.219-.245-4.167-.123M279.27 68.316c-2.219.987-1.974-.555-1.974-.555-1.483-.122-1.109-1.786-1.109-1.786-1.542-.645-.374-2.097-.374-2.097s-.736 0-.555-1.232 2.47-2.65 2.47-2.65 1.232-.368 1.355 0c.122.367-.865 1.728-.865 1.728s1.793-.806 2.161-.374-1.664 2.528-1.664 2.528 2.651-.864 2.838-.31c.187.555-2.47 2.903-2.47 2.903s2.47-.645 2.651.18c.064.684-2.464 1.665-2.464 1.665M303.625 140.214s-.929 3.141-1.232 3.386c-.304.245-12.584.497-15.913 0a23.1 23.1 0 0 1 10.179-5.276 26.4 26.4 0 0 0 6.966 1.89"/><path fill="#7BD2FF" d="M351.161 105.931a4.13 4.13 0 0 1-2.838 0c-1.483-.549-5.669-3.27-8.572-3.148-2.902.123-8.501 2.986-9.675 3.083a20 20 0 0 1-3.87-.555 29.5 29.5 0 0 0 7.74 4.69c4.515 1.657 3.27 9.739 1.29 15.783-2.58 7.953-17.138 8.565-17.57 15.538h43.357s.645-1.477-2.464-4.012c-6.598-5.418-14.132-5.237-16.28-13.745-.806-3.225-1.219-8.63-.122-11.346s5.856-3.205 9.004-6.288"/><path fill="#414141" d="M300.665 44.525c.122 0 .187-.064.245-.187a.293.293 0 0 0-.123-.368 4.4 4.4 0 0 1-1.045-.683c.735-.555.974-1.535.735-2.832a7.9 7.9 0 0 0-.683-1.973.277.277 0 0 0-.368-.123.273.273 0 0 0-.122.368c0 .064 1.722 3.328-.129 4.315-.058.064-.123.122-.123.187a.36.36 0 0 0 .065.245 6.7 6.7 0 0 0 1.548 1.051M303.748 45.262a.3.3 0 0 0 .007-.207.3.3 0 0 0-.129-.161.304.304 0 0 0-.374.122c-.058.065-1.187 2.135-3.696.923a.3.3 0 0 0-.374.129.3.3 0 0 0 .129.367c.612.304 3.018 1.232 4.437-1.174M295.176 38.413a1.93 1.93 0 0 1 2.096-.18.278.278 0 0 0 .245-.497 2.4 2.4 0 0 0-2.709.245.3.3 0 0 0-.098.176.3.3 0 0 0 .034.198.39.39 0 0 0 .432.058M301.219 37.368a2.58 2.58 0 0 1 2.896-.806.3.3 0 0 0 .374-.123.3.3 0 0 0-.129-.367 3.08 3.08 0 0 0-3.574.922c-.064.122-.064.31.065.374.122.18.303.058.368 0M354.303 97.916c3.083-4.56 2.348-10.856 2.284-11.1a.279.279 0 1 0-.555.065c0 .057.742 6.346-2.219 10.725-.064.123-.064.31.065.368s.322.051.425-.058M356.218 130.412a.3.3 0 0 0 .123-.374 19.1 19.1 0 0 0-8.198-7.74.304.304 0 0 0-.375.122.297.297 0 0 0 .123.368c5.702 2.916 7.953 7.398 7.953 7.463.103.167.174.161.374.161M303.867 40.935a.63.63 0 0 1-.517-.129.88.88 0 0 1-.313-.511.88.88 0 0 1 .076-.595.63.63 0 0 1 .419-.33.6.6 0 0 1 .266.005.7.7 0 0 1 .251.124q.117.09.198.223a.92.92 0 0 1 .04.883.7.7 0 0 1-.179.215.6.6 0 0 1-.241.114M297.408 42.179a.6.6 0 0 1-.266-.006.7.7 0 0 1-.251-.123.8.8 0 0 1-.198-.223.94.94 0 0 1-.128-.599.8.8 0 0 1 .089-.284.7.7 0 0 1 .178-.216.59.59 0 0 1 .507-.108.7.7 0 0 1 .251.123q.117.09.198.223a.92.92 0 0 1 .04.883.7.7 0 0 1-.179.216.6.6 0 0 1-.241.114"/><path fill="#FDAF31" d="M298.071 44.578q0 .11-.061.213a.6.6 0 0 1-.173.18.9.9 0 0 1-.259.12 1.1 1.1 0 0 1-.613 0 .9.9 0 0 1-.259-.12.6.6 0 0 1-.173-.18.4.4 0 0 1 0-.425.6.6 0 0 1 .173-.18.9.9 0 0 1 .259-.12 1.1 1.1 0 0 1 .613 0 .9.9 0 0 1 .259.12.6.6 0 0 1 .173.18q.061.102.061.212M305.465 44.023q-.19.06-.38.065a1.1 1.1 0 0 1-.354-.044.7.7 0 0 1-.272-.148.5.5 0 0 1-.15-.228.5.5 0 0 1-.003-.272.7.7 0 0 1 .143-.275q.108-.133.268-.235.162-.102.352-.158.188-.06.379-.065a1.1 1.1 0 0 1 .354.044q.162.05.272.148a.5.5 0 0 1 .15.228.5.5 0 0 1 .003.272.7.7 0 0 1-.143.275 1.1 1.1 0 0 1-.268.235 1.4 1.4 0 0 1-.351.158"/><path fill="#414141" d="M275.755 61.351a4.76 4.76 0 0 1 1.729-1.354c-.432-2.097-1.606-7.276-2.039-8.018-.058-.122-.058-.245.065-.31.123-.064.245-.122.31 0 .367.252 6.591 4.322 9.926 6.722-1.851-2.097-5.16-5.302-8.759-6.657a.4.4 0 0 1-.148-.156.4.4 0 0 1-.039-.212.38.38 0 0 1 .374-.187c2.896 1.11 5.624 3.374 7.398 5.115.645.645 1.174 1.174 1.6 1.664a19.35 19.35 0 0 0-7.398-7.21.278.278 0 0 1 .027-.529.28.28 0 0 1 .224.038 19.75 19.75 0 0 1 8.566 9.243c5.985-6.224 15.48-6.289 15.602-6.289a.27.27 0 0 1 .245.252.26.26 0 0 1-.245.245c-.064 0-7.74.058-13.506 4.625a36.4 36.4 0 0 1 15.538-4.135 175 175 0 0 1-.987-2.528 6.5 6.5 0 0 1-7.211-2.955c-1.29-2.025-2.838-6.45-3.702-13.26a4.8 4.8 0 0 1-1.232-.555c-4.857-2.877-.548-8.308 2.528-9.675 1.935-.858 6.289-2.529 9.991-.252 1.935-4.192 6.599-2.341 6.657-2.341a.27.27 0 0 1 .137.158.273.273 0 0 1-.382.332s-3.638-1.6-5.676 1.541a7.56 7.56 0 0 1 6.45.188c8.675 4.715 12.9 16.305 15.228 25.155a.4.4 0 0 1 .004.176.4.4 0 0 1-.378.32l-14.603 1.168.684 1.36c1.045-.644 4.908-2.502 9.552 1.11 2.393 1.864 6.154 6.23 8.637 11.526 3.612 7.74 2.335 12.204.645 14.68a6.6 6.6 0 0 1-.813.98h28.051c1.174 0 1.239.807 1.239 1.607 0 0 .058.8-.31 1.11-.064.064-.187.122-.251.186 1.173 7.276-.252 13.371-4.251 18.189-3.277 3.941-7.398 5.979-9.559 7.095-2.032 1.052-3.386 2.406-3.451 3.328-.058.807.432 1.665 1.542 2.529 1.69 1.477 10.178 4.863 14.674 11.345s3.018 14.242 2.96 14.306c-.058.065.245.188.31.246a1.52 1.52 0 0 1 .432 1.232c0 1.793-.187 2.218-1.974 2.218l-42.486.065a1.75 1.75 0 0 1-1.232-.368c-.432-.432-.368-.871-.368-1.483-.141-1.239.239-1.581.994-1.89a20 20 0 0 1-.194-5.012c-.367.49-1.935 2.651-2.464 2.58-.251 0-.554-.187-.554-4.257 0 0-.807.31-.865.31s-.187-.058-.251-.181a.3.3 0 0 1 .129-.374l.987-.368v-1.29c-1.116.484-.948.433-1.116.433s-.181-.065-.245-.187a.295.295 0 0 1 .122-.368l1.239-.49c0-.987.058-1.974.122-2.716-.554-.122-2.715-.742-5.611-1.786.919-3.573 2.03-7.093 3.328-10.546a51.5 51.5 0 0 0 6.353 4.934c.123.058 2.58 1.6 3.87 2.58 4.515-4.895 11.223-7.643 12.823-8.998 1.038-.883 1.599-1.664 1.541-2.528s-.864-1.851-2.341-2.716c-.755-.567-6.553-2.431-10.791-7.52a19.23 19.23 0 0 1-4.07-8.385l-7.817 22.239a138 138 0 0 0-4.251 13.997c-1.606 5.482-3.025 9.617-3.147 9.984-.31 1.174-.794 3.161-1.355 3.393-.793.329-15.725.065-16.157-.187a.36.36 0 0 1-.15-.155.37.37 0 0 1-.037-.213c.064-.432 1.483-1.354 4.192-2.715q.21-.104.432-.181l-.49-.741c-.064-.123-.064-.31.058-.368.123-.058.31-.064.374.058l.555.806c.31-.129.645-.309.922-.432l-.554-.806c-.058-.123-.058-.31.064-.368.123-.058.31-.064.368.058l.645.865a36 36 0 0 1 3.638-1.419l2.031-15.596c1.787-11.656 4.935-26.084 4.935-26.265a.33.33 0 0 0-.05-.181.34.34 0 0 0-.137-.129c-.432-.122-2.961-1.605-3.948-2.096a.29.29 0 0 0-.367.123.3.3 0 0 0-.007.206.3.3 0 0 0 .129.162c.31.187 2.903 1.664 3.825 2.038-.368 1.85-3.225 14.983-4.87 25.832a25.6 25.6 0 0 1-6.721-6.224c-5.772-8.114-.554-26.084.736-30.212.328-1.5.846-2.953 1.541-4.322-3.16 0-3.528.233-3.696.065a73 73 0 0 0-9.333-4.605c-.122-.058-.18-.123-.18-.245 0-.123-.555-6.412-.987-8.14-.071 0-1.322.451-1.935.064a.777.777 0 0 1-.181-.742c-.916-.232-1.154-.916-1.051-1.85a1.85 1.85 0 0 1-.8-.865 1.35 1.35 0 0 1 .245-1.232c-.309.187-.555.064-.613-.187-.238-.555.007-1.232.813-2.219m20.717 77.323c-.986.303-2.218.799-3.515 1.354l.368.49c.064.129.064.31-.058.374a.32.32 0 0 1-.432-.064l-.432-.555c-.31.123-.645.31-.923.432l.368.555c.058.123.058.31-.065.368-.122.058-.322.051-.432-.058l-.426-.645a22.6 22.6 0 0 0-3.953 2.238c2.154.245 14.37.535 15.112.29.245-.18.735-1.477 1.045-2.896a11.16 11.16 0 0 1-6.657-1.883M291.725 57.9c.181.058.31.123.49.187a65 65 0 0 1 13.384-2.78 4 4 0 0 0-.251-.554 38.5 38.5 0 0 0-13.623 3.147m18.434-8.585a.275.275 0 0 1 0-.31 12.2 12.2 0 0 0 .923-6.346s3.225-1.167 1.935-3.083c-1.123-1.6-2.903.367-2.903.367s-4.928-2.031-6.714-7.094c0 0-5.057 3.87-9.559 2.838.368 2.896 1.4 9.255 3.573 12.822 1.471 2.412 4.786 3.838 8.327 2.154a.277.277 0 0 1 .245.497c-.432.187-.864.31-1.232.432.245.555.645 1.729 1.045 2.58a19 19 0 0 1 2.038 0 .28.28 0 1 1-.064.555 14 14 0 0 0-1.787 0q.108.272.187.555c1.355-.058 2.709 0 3.941 0a.28.28 0 0 1 .252.251v.245c1.477-.31 1.844-1.935 1.935-2.283zm-2.58 23.8a18.5 18.5 0 0 1 2.58 2.774c.245 0 .678 0 .865-.245a1.11 1.11 0 0 0 .122-1.045 18.7 18.7 0 0 0-3.87-4.38c-.929-.496-1.109-.309-1.109-.309s-.387.503 1.406 3.219zm-.374.433c-.645-.368-1.477-.645-1.664-.555 0 .065 0 .368.645 1.29 1.374 1.897 3.083 2.896 3.515 2.71.065-.059.123-.246 0-.736-.73-.99-1.57-1.894-2.502-2.696zm.432-3.76a16.7 16.7 0 0 1 3.87 4.437c.298-.07.561-.244.742-.49a1.286 1.286 0 0 0-.122-1.232 23.6 23.6 0 0 0-4.257-4.567 1.88 1.88 0 0 0-1.11-.367c-.051.07-.303.38.871 2.232zm.645-2.161a29 29 0 0 1 4.07 4.315.8.8 0 0 0 .245-.245c.188-.31.052-.858-.303-1.542-1.09-2.077-4.192-4.682-4.747-4.56-.161.258.271 1.31.761 2.045zm22.163-1.651c-2.355-4.928-6.038-9.437-8.508-11.346-4.741-3.65-8.507-1.419-9.127-.987-.122.497-.554 2.406-2.464 2.716v10.545c.973.868 1.786 1.901 2.4 3.051.234.418.381.879.432 1.355 2.961.555 6.54 1.051 8.946 1.29-.929-3.573-4.754-8.753-4.754-8.817s-.058-.31.065-.368.31-.064.368.058c.187.252 4.07 5.49 4.934 9.191 1.29.123 2.161.245 2.161.245a.284.284 0 0 1 .168.478.27.27 0 0 1-.168.077c-.065 0-6.663-.677-11.656-1.606a.75.75 0 0 1-.496.555c.645 1.974-.645 2.225-.981 2.283.368 1.606-1.051 1.664-1.361 1.729.074.293.03.603-.122.864 3.083 2.709 10.236 6.353 15.661 5.67 7.772-1.007 8.036-9.514 4.502-16.983m-13.881 77.567a.76.76 0 0 0 .187.555c.414.225.896.292 1.355.187h42.06c1.355 0 1.413-.064 1.413-1.67 0-.826-.284-1.11-1.168-1.11h-41.802a2.84 2.84 0 0 0-1.851.432c-.232.31-.194.729-.194 1.606m1.787-20.781a37 37 0 0 1-3.819 6.043c-.064.864-.064 1.935-.122 3.025l.987-.432a.29.29 0 0 1 .367.123c.027.065.03.139.007.206a.3.3 0 0 1-.129.161l-1.232.497v1.29l1.167-.49a.304.304 0 0 1 .374.122.29.29 0 0 1-.129.368l-1.354.555a26 26 0 0 0 .187 3.87 18.2 18.2 0 0 0 2.406-3.025 17.65 17.65 0 0 1 4.625-10.172 38 38 0 0 0-3.329-2.141zm14.622-13.623c3.019 1.419 3.76 2.709 3.825 3.819.058.986-.49 1.986-1.729 2.96-2.367 1.864-10.236 5.038-14.551 11.288a19.76 19.76 0 0 0-2.896 13.932c.477-.097-2.038-.065 43.344-.065 0-.058 1.496-7.534-2.896-13.867s-12.526-9.585-14.551-11.288c-1.213-1.013-1.787-1.974-1.729-2.96.065-1.11 1.232-2.529 3.761-3.761 2.16-1.045 6.204-3.102 9.371-6.966q5.806-7.062 4.135-17.692c-.065 0-37.494.367-39.461.367-2.716 16.461 8.933 22.143 13.377 24.233m25.832-25.155c.202.01.4-.057.555-.187.258-.258.097-1.425.064-1.541-.083-.246-.251-.31-.645-.31h-28.67c-3.515 2.715-9.307 1.354-12.081.368.175 1.07-.129 2.038.923 2.038zm-66.215.858a41.28 41.28 0 0 1 26.019 5.857 27.7 27.7 0 0 1 .303-5.857 1.19 1.19 0 0 1-1.29-1.168c-.052-.56-.123-1.29-.123-1.606a27.1 27.1 0 0 1-6.972-3.818v4.438c0 .18-.181.245-.368.245a140 140 0 0 0-16.215-1.42 17.2 17.2 0 0 0-1.354 3.329m-2.097-3.818c8.385-.433 19.112 1.29 19.479 1.354v-4.56c-.122-.065-.18-.187-.303-.252-1.116.252-2.799-1.4-3.87-2.896-.754-1.038-1.845-3.083.864-1.935-1.29-2.219-1.786-4.012.123-3.27-.8-1.174-1.232-3.141.645-2.283-.49-.735-1.354-3.941 2.47-.735V55.862c-4.934-.555-13.383 1.542-16.957 2.657 1.974.98 3.425 4.748 3.87 8.876.297 2.644 1.471 9.636 3.703 10.79a.3.3 0 0 1 .129.162c.023.067.02.14-.007.206-.064.065-.122.187-.245.123-1.419-.49-2.18-2.335-3.025-5.238a38 38 0 0 1-1.167-5.979c-.426-4.005-1.974-7.895-4.012-8.759-1.6.497-2.896.929-3.696 1.232zm-9.804-4.515a65 65 0 0 1 7.398 3.573l-1.935-20.776c-2.154-1.606-6.901-4.811-9.984-6.843.613 1.935 1.477 6.166 1.728 7.276.426-.123 1.232-.374 1.478.058.058.122.187.31-.645 1.419.741-.31 1.606-.49 1.851 0 .187.374-.245 1.109-1.419 2.283 1.109-.374 2.27-.645 2.528-.065.181.375-.122 1.11-2.096 2.651.987-.18 1.974-.18 2.161.375a.58.58 0 0 1-.065.432c-.31.554-1.354 1.109-2.154 1.477.535 1.619 1.032 7.101 1.154 8.153zm-1.973-8.327c.864-.246 2.651-1.232 2.651-1.542-.065-.18-.433-.49-2.716.31-.49.31-1.109.741-1.109.928-.123.749 1.174.317 1.174.317zm-1.484-.736a10 10 0 0 1 1.239-1.051c1.625-1.135 2.954-2.406 2.954-2.709-.058-.187-1.413.058-3.083.8q-.9.727-1.723 1.541c-.619 1.18.433 1.432.6 1.432zm-1.045-1.85c.245-.246 1.729-1.542 1.729-1.542 1.109-.987 2.277-2.284 2.341-2.58-.122-.058-.864 0-2.161.683q-1.083.897-2.031 1.935c-.929 1.02-.065 1.452.122 1.516zm-.432-2.039a20 20 0 0 1 1.974-1.935 7.6 7.6 0 0 0 1.109-1.606 3.87 3.87 0 0 0-2.715 1.548c-1.2 1.619-.49 2.006-.368 2.006z"/></g><rect width="373.511" height="143.511" x=".745" y=".745" stroke="url(#c)" stroke-opacity=".08" stroke-width=".511" rx="10.255"/><defs><linearGradient id="b" x1="42.663" x2="213.928" y1="15.809" y2="76.544" gradientUnits="userSpaceOnUse"><stop stop-color="#003F88"/><stop offset=".65" stop-color="#03BCFF"/><stop offset="1" stop-color="#0076FF"/></linearGradient><linearGradient id="c" x1="47.195" x2="387.35" y1="20.571" y2="83.69" gradientUnits="userSpaceOnUse"><stop stop-color="#003F88"/><stop offset=".65" stop-color="#02D4FF"/><stop offset="1" stop-color="#0076FF"/></linearGradient><clipPath id="a"><rect width="373" height="143" x="1" y="1" fill="#fff" rx="10"/></clipPath></defs></svg>