<svg width="375" height="145" viewBox="0 0 375 145" fill="none" xmlns="http://www.w3.org/2000/svg">
<g clip-path="url(#clip0_836_3210)">
<rect x="1" y="1" width="373" height="143" rx="10" fill="#E3F0FF"/>
<path d="M379.257 159C236.144 155.264 203.313 150.164 196.432 141.537C190.39 132.512 190.39 132.512 260.416 82.4127C292.156 59.724 342.356 23.7915 358.677 8.4279C317.628 1.90083 276.277 -2.56138 234.78 -4.94185C233.133 -4.59271 231.418 -4.77425 229.88 -5.46047C228.343 -6.14669 227.062 -7.30233 226.221 -8.76176C225.489 -10.0084 225.102 -11.428 225.102 -12.8741C225.101 -14.3201 225.486 -15.7401 226.217 -16.9873C226.949 -18.2346 228 -19.2639 229.262 -19.969C230.523 -20.6741 231.95 -21.0293 233.395 -20.9981C235.493 -20.9981 375.376 -14.9114 379.026 3.2647C380.348 13.6331 367.593 25.4496 269.688 95.4675C250.808 108.9 230.375 123.592 218.648 132.617C256.304 137.948 362.286 141.789 379.718 142.965C381.745 143.165 383.621 144.124 384.971 145.65C386.321 147.176 387.045 149.155 386.998 151.192C386.926 153.229 386.089 155.164 384.654 156.612C383.22 158.059 381.292 158.912 379.257 159Z" fill="#C8E2FF"/>
<path d="M32.1631 40.1973H19.5771V22.748H24.0771V36.8223H32.1631V40.1973ZM47.6084 34.3965H37.9521C38.0146 35.4277 38.4053 36.2168 39.124 36.7637C39.8506 37.3105 40.917 37.584 42.3232 37.584C43.2139 37.584 44.0771 37.4238 44.9131 37.1035C45.749 36.7832 46.4092 36.4395 46.8936 36.0723H47.3623V39.459C46.4092 39.8418 45.5107 40.1191 44.667 40.291C43.8232 40.4629 42.8896 40.5488 41.8662 40.5488C39.2256 40.5488 37.2021 39.9551 35.7959 38.7676C34.3896 37.5801 33.6865 35.8887 33.6865 33.6934C33.6865 31.5215 34.3506 29.8027 35.6787 28.5371C37.0146 27.2637 38.8428 26.627 41.1631 26.627C43.3037 26.627 44.9131 27.1699 45.9912 28.2559C47.0693 29.334 47.6084 30.8887 47.6084 32.9199V34.3965ZM43.4131 31.9238C43.3896 31.041 43.1709 30.377 42.7568 29.9316C42.3428 29.4863 41.6982 29.2637 40.8232 29.2637C40.0107 29.2637 39.3428 29.4746 38.8193 29.8965C38.2959 30.3184 38.0029 30.9941 37.9404 31.9238H43.4131ZM58.999 40.0801C58.5459 40.1973 58.0654 40.2871 57.5576 40.3496C57.0498 40.4199 56.4287 40.4551 55.6943 40.4551C54.0537 40.4551 52.8311 40.123 52.0264 39.459C51.2295 38.7949 50.8311 37.6582 50.8311 36.0488V29.8965H49.0967V27.0371H50.8311V23.2754H55.0498V27.0371H58.999V29.8965H55.0498V34.5605C55.0498 35.0215 55.0537 35.4238 55.0615 35.7676C55.0693 36.1113 55.1318 36.4199 55.249 36.6934C55.3584 36.9668 55.5498 37.1855 55.8232 37.3496C56.1045 37.5059 56.5107 37.584 57.042 37.584C57.2607 37.584 57.5459 37.5371 57.8975 37.4434C58.2568 37.3496 58.5068 37.2637 58.6475 37.1855H58.999V40.0801ZM67.1318 21.9629L63.7217 28.8652H60.9795L62.8193 21.9629H67.1318ZM80.9365 36.0254C80.9365 37.3848 80.3271 38.4824 79.1084 39.3184C77.8896 40.1465 76.2217 40.5605 74.1045 40.5605C72.9326 40.5605 71.8701 40.4512 70.917 40.2324C69.9639 40.0137 69.1982 39.7715 68.6201 39.5059V36.0371H69.0068C69.2178 36.1855 69.46 36.3496 69.7334 36.5293C70.0146 36.7012 70.4092 36.8887 70.917 37.0918C71.3545 37.2715 71.8506 37.4277 72.4053 37.5605C72.96 37.6855 73.5537 37.748 74.1865 37.748C75.0146 37.748 75.6279 37.6582 76.0264 37.4785C76.4248 37.291 76.624 37.0176 76.624 36.6582C76.624 36.3379 76.5068 36.1074 76.2725 35.9668C76.0381 35.8184 75.5928 35.6777 74.9365 35.5449C74.624 35.4746 74.1982 35.4004 73.6592 35.3223C73.1279 35.2363 72.6436 35.1348 72.2061 35.0176C71.0107 34.7051 70.124 34.2207 69.5459 33.5645C68.9678 32.9004 68.6787 32.0762 68.6787 31.0918C68.6787 29.8262 69.2764 28.7754 70.4717 27.9395C71.6748 27.0957 73.3154 26.6738 75.3936 26.6738C76.3779 26.6738 77.3193 26.7754 78.2178 26.9785C79.124 27.1738 79.8311 27.3848 80.3389 27.6113V30.9395H79.9756C79.3506 30.5098 78.6357 30.1621 77.8311 29.8965C77.0342 29.623 76.2256 29.4863 75.4053 29.4863C74.7256 29.4863 74.1514 29.5801 73.6826 29.7676C73.2217 29.9551 72.9912 30.2207 72.9912 30.5645C72.9912 30.877 73.0967 31.1152 73.3076 31.2793C73.5186 31.4434 74.0146 31.6074 74.7959 31.7715C75.2256 31.8574 75.6865 31.9434 76.1787 32.0293C76.6787 32.1074 77.1787 32.209 77.6787 32.334C78.7881 32.623 79.6084 33.0801 80.1396 33.7051C80.6709 34.3223 80.9365 35.0957 80.9365 36.0254ZM106.155 34.7129C106.155 36.4316 105.425 37.8301 103.964 38.9082C102.511 39.9785 100.534 40.5137 98.0342 40.5137C96.5889 40.5137 95.3271 40.3887 94.249 40.1387C93.1787 39.8809 92.1748 39.5566 91.2373 39.166V34.9824H91.7295C92.6592 35.7246 93.6982 36.2949 94.8467 36.6934C96.0029 37.0918 97.1123 37.291 98.1748 37.291C98.4482 37.291 98.8076 37.2676 99.2529 37.2207C99.6982 37.1738 100.062 37.0957 100.343 36.9863C100.687 36.8457 100.968 36.6699 101.187 36.459C101.413 36.248 101.526 35.9355 101.526 35.5215C101.526 35.1387 101.362 34.8105 101.034 34.5371C100.714 34.2559 100.241 34.041 99.6162 33.8926C98.96 33.7363 98.2646 33.5918 97.5303 33.459C96.8037 33.3184 96.1201 33.1426 95.4795 32.9316C94.0107 32.4551 92.9521 31.8105 92.3037 30.998C91.6631 30.1777 91.3428 29.1621 91.3428 27.9512C91.3428 26.3262 92.0693 25.002 93.5225 23.9785C94.9834 22.9473 96.8584 22.4316 99.1475 22.4316C100.296 22.4316 101.429 22.5449 102.546 22.7715C103.671 22.9902 104.644 23.2676 105.464 23.6035V27.623H104.983C104.28 27.0605 103.417 26.5918 102.394 26.2168C101.378 25.834 100.339 25.6426 99.2764 25.6426C98.9014 25.6426 98.5264 25.6699 98.1514 25.7246C97.7842 25.7715 97.4287 25.8652 97.085 26.0059C96.7803 26.123 96.5186 26.3027 96.2998 26.5449C96.0811 26.7793 95.9717 27.0488 95.9717 27.3535C95.9717 27.8145 96.1475 28.1699 96.499 28.4199C96.8506 28.6621 97.5146 28.8848 98.4912 29.0879C99.1318 29.2207 99.7451 29.3496 100.331 29.4746C100.925 29.5996 101.562 29.7715 102.241 29.9902C103.577 30.4277 104.562 31.0254 105.194 31.7832C105.835 32.5332 106.155 33.5098 106.155 34.7129ZM117.429 40.0801C116.976 40.1973 116.495 40.2871 115.987 40.3496C115.479 40.4199 114.858 40.4551 114.124 40.4551C112.483 40.4551 111.261 40.123 110.456 39.459C109.659 38.7949 109.261 37.6582 109.261 36.0488V29.8965H107.526V27.0371H109.261V23.2754H113.479V27.0371H117.429V29.8965H113.479V34.5605C113.479 35.0215 113.483 35.4238 113.491 35.7676C113.499 36.1113 113.562 36.4199 113.679 36.6934C113.788 36.9668 113.979 37.1855 114.253 37.3496C114.534 37.5059 114.94 37.584 115.472 37.584C115.69 37.584 115.976 37.5371 116.327 37.4434C116.687 37.3496 116.937 37.2637 117.077 37.1855H117.429V40.0801ZM127.929 36.7637V34.0215C127.358 34.0684 126.741 34.1348 126.077 34.2207C125.413 34.2988 124.909 34.3926 124.565 34.502C124.144 34.6348 123.819 34.8301 123.593 35.0879C123.374 35.3379 123.265 35.6699 123.265 36.084C123.265 36.3574 123.288 36.5801 123.335 36.752C123.382 36.9238 123.499 37.0879 123.687 37.2441C123.866 37.4004 124.081 37.5176 124.331 37.5957C124.581 37.666 124.972 37.7012 125.503 37.7012C125.925 37.7012 126.351 37.6152 126.78 37.4434C127.218 37.2715 127.601 37.0449 127.929 36.7637ZM127.929 38.8027C127.702 38.9746 127.421 39.1816 127.085 39.4238C126.749 39.666 126.433 39.8574 126.136 39.998C125.722 40.1855 125.292 40.3223 124.847 40.4082C124.401 40.502 123.913 40.5488 123.382 40.5488C122.132 40.5488 121.085 40.1621 120.241 39.3887C119.397 38.6152 118.976 37.627 118.976 36.4238C118.976 35.4629 119.19 34.6777 119.62 34.0684C120.05 33.459 120.659 32.9785 121.448 32.627C122.229 32.2754 123.198 32.0254 124.354 31.877C125.511 31.7285 126.71 31.6191 127.952 31.5488V31.4785C127.952 30.752 127.655 30.252 127.062 29.9785C126.468 29.6973 125.593 29.5566 124.437 29.5566C123.741 29.5566 122.999 29.6816 122.21 29.9316C121.421 30.1738 120.854 30.3613 120.511 30.4941H120.124V27.3184C120.569 27.2012 121.292 27.0645 122.292 26.9082C123.3 26.7441 124.308 26.6621 125.315 26.6621C127.714 26.6621 129.444 27.0332 130.507 27.7754C131.577 28.5098 132.112 29.666 132.112 31.2441V40.1973H127.929V38.8027ZM145.53 31.0566H145.155C144.976 30.9941 144.687 30.9473 144.288 30.916C143.89 30.8848 143.558 30.8691 143.292 30.8691C142.69 30.8691 142.159 30.9082 141.698 30.9863C141.237 31.0645 140.741 31.1973 140.21 31.3848V40.1973H135.991V27.0371H140.21V28.9707C141.14 28.1738 141.948 27.6465 142.636 27.3887C143.323 27.123 143.956 26.9902 144.534 26.9902C144.683 26.9902 144.851 26.9941 145.038 27.002C145.226 27.0098 145.39 27.0215 145.53 27.0371V31.0566ZM156.335 40.0801C155.882 40.1973 155.401 40.2871 154.894 40.3496C154.386 40.4199 153.765 40.4551 153.03 40.4551C151.39 40.4551 150.167 40.123 149.362 39.459C148.565 38.7949 148.167 37.6582 148.167 36.0488V29.8965H146.433V27.0371H148.167V23.2754H152.386V27.0371H156.335V29.8965H152.386V34.5605C152.386 35.0215 152.39 35.4238 152.397 35.7676C152.405 36.1113 152.468 36.4199 152.585 36.6934C152.694 36.9668 152.886 37.1855 153.159 37.3496C153.44 37.5059 153.847 37.584 154.378 37.584C154.597 37.584 154.882 37.5371 155.233 37.4434C155.593 37.3496 155.843 37.2637 155.983 37.1855H156.335V40.0801Z" fill="url(#paint0_linear_836_3210)"/>
<path d="M26.292 64.1973H25.1318V56.6797L22.7061 61.7949H22.0146L19.6064 56.6797V64.1973H18.5225V55.4727H20.1045L22.4307 60.3301L24.6807 55.4727H26.292V64.1973ZM33.1538 64.1973H32.0581V63.5C31.9604 63.5664 31.8276 63.6602 31.6596 63.7812C31.4956 63.8984 31.3354 63.9922 31.1792 64.0625C30.9956 64.1523 30.7846 64.2266 30.5464 64.2852C30.3081 64.3477 30.0288 64.3789 29.7085 64.3789C29.1186 64.3789 28.6186 64.1836 28.2085 63.793C27.7983 63.4023 27.5932 62.9043 27.5932 62.2988C27.5932 61.8027 27.6987 61.4023 27.9096 61.0977C28.1245 60.7891 28.4292 60.5469 28.8237 60.3711C29.2221 60.1953 29.7007 60.0762 30.2593 60.0137C30.8179 59.9512 31.4175 59.9043 32.0581 59.873V59.7031C32.0581 59.4531 32.0132 59.2461 31.9233 59.082C31.8374 58.918 31.7124 58.7891 31.5483 58.6953C31.3921 58.6055 31.2046 58.5449 30.9858 58.5137C30.7671 58.4824 30.5386 58.4668 30.3003 58.4668C30.0112 58.4668 29.6889 58.5059 29.3335 58.584C28.978 58.6582 28.6108 58.7676 28.2319 58.9121H28.1733V57.793C28.3882 57.7344 28.6987 57.6699 29.105 57.5996C29.5112 57.5293 29.9116 57.4941 30.3061 57.4941C30.7671 57.4941 31.1675 57.5332 31.5073 57.6113C31.8511 57.6855 32.1479 57.8145 32.3979 57.998C32.644 58.1777 32.8315 58.4102 32.9604 58.6953C33.0893 58.9805 33.1538 59.334 33.1538 59.7559V64.1973ZM32.0581 62.5859V60.7637C31.7221 60.7832 31.3257 60.8125 30.8686 60.8516C30.4155 60.8906 30.0561 60.9473 29.7905 61.0215C29.4741 61.1113 29.2182 61.252 29.0229 61.4434C28.8276 61.6309 28.73 61.8906 28.73 62.2227C28.73 62.5977 28.8432 62.8809 29.0698 63.0723C29.2964 63.2598 29.6421 63.3535 30.1069 63.3535C30.4936 63.3535 30.8471 63.2793 31.1675 63.1309C31.4878 62.9785 31.7846 62.7969 32.0581 62.5859ZM40.7363 64.1973H39.2832L36.6582 61.332L35.9433 62.0117V64.1973H34.8418V55.0801H35.9433V60.9277L39.125 57.6523H40.5136L37.4726 60.6758L40.7363 64.1973ZM46.7778 61.0391H41.9555C41.9555 61.4414 42.0161 61.793 42.1371 62.0938C42.2582 62.3906 42.4243 62.6348 42.6352 62.8262C42.8383 63.0137 43.0786 63.1543 43.3559 63.248C43.6371 63.3418 43.9457 63.3887 44.2817 63.3887C44.727 63.3887 45.1743 63.3008 45.6235 63.125C46.0766 62.9453 46.3989 62.7695 46.5903 62.5977H46.6489V63.7988C46.2778 63.9551 45.8989 64.0859 45.5121 64.1914C45.1254 64.2969 44.7192 64.3496 44.2934 64.3496C43.2075 64.3496 42.3598 64.0566 41.7504 63.4707C41.1411 62.8809 40.8364 62.0449 40.8364 60.9629C40.8364 59.8926 41.1274 59.043 41.7094 58.4141C42.2954 57.7852 43.0649 57.4707 44.018 57.4707C44.9008 57.4707 45.5805 57.7285 46.0571 58.2441C46.5375 58.7598 46.7778 59.4922 46.7778 60.4414V61.0391ZM45.7055 60.1953C45.7016 59.6172 45.5551 59.1699 45.2661 58.8535C44.9809 58.5371 44.5454 58.3789 43.9594 58.3789C43.3696 58.3789 42.8989 58.5527 42.5473 58.9004C42.1996 59.248 42.0024 59.6797 41.9555 60.1953H45.7055ZM56.7924 64.1973H55.6967V63.5C55.599 63.5664 55.4662 63.6602 55.2982 63.7812C55.1342 63.8984 54.974 63.9922 54.8178 64.0625C54.6342 64.1523 54.4232 64.2266 54.185 64.2852C53.9467 64.3477 53.6674 64.3789 53.3471 64.3789C52.7572 64.3789 52.2572 64.1836 51.8471 63.793C51.4369 63.4023 51.2318 62.9043 51.2318 62.2988C51.2318 61.8027 51.3373 61.4023 51.5482 61.0977C51.7631 60.7891 52.0678 60.5469 52.4623 60.3711C52.8607 60.1953 53.3393 60.0762 53.8979 60.0137C54.4564 59.9512 55.0561 59.9043 55.6967 59.873V59.7031C55.6967 59.4531 55.6518 59.2461 55.5619 59.082C55.476 58.918 55.351 58.7891 55.1869 58.6953C55.0307 58.6055 54.8432 58.5449 54.6244 58.5137C54.4057 58.4824 54.1771 58.4668 53.9389 58.4668C53.6498 58.4668 53.3275 58.5059 52.9721 58.584C52.6166 58.6582 52.2494 58.7676 51.8705 58.9121H51.8119V57.793C52.0268 57.7344 52.3373 57.6699 52.7436 57.5996C53.1498 57.5293 53.5502 57.4941 53.9447 57.4941C54.4057 57.4941 54.8061 57.5332 55.1459 57.6113C55.4896 57.6855 55.7865 57.8145 56.0365 57.998C56.2826 58.1777 56.4701 58.4102 56.599 58.6953C56.7279 58.9805 56.7924 59.334 56.7924 59.7559V64.1973ZM55.6967 62.5859V60.7637C55.3607 60.7832 54.9643 60.8125 54.5072 60.8516C54.0541 60.8906 53.6947 60.9473 53.4291 61.0215C53.1127 61.1113 52.8568 61.252 52.6615 61.4434C52.4662 61.6309 52.3686 61.8906 52.3686 62.2227C52.3686 62.5977 52.4818 62.8809 52.7084 63.0723C52.935 63.2598 53.2807 63.3535 53.7455 63.3535C54.1322 63.3535 54.4857 63.2793 54.8061 63.1309C55.1264 62.9785 55.4232 62.7969 55.6967 62.5859ZM67.4808 64.1973H66.3793V63.5117C66.0629 63.7852 65.7328 63.998 65.389 64.1504C65.0453 64.3027 64.6722 64.3789 64.2699 64.3789C63.4886 64.3789 62.8675 64.0781 62.4066 63.4766C61.9496 62.875 61.7211 62.041 61.7211 60.9746C61.7211 60.4199 61.7992 59.9258 61.9554 59.4922C62.1156 59.0586 62.3304 58.6895 62.6 58.3848C62.8656 58.0879 63.1742 57.8613 63.5257 57.7051C63.8812 57.5488 64.2484 57.4707 64.6273 57.4707C64.9711 57.4707 65.2757 57.5078 65.5414 57.582C65.807 57.6523 66.0863 57.7637 66.3793 57.916V55.0801H67.4808V64.1973ZM66.3793 62.5859V58.8301C66.0824 58.6973 65.8168 58.6055 65.5824 58.5547C65.348 58.5039 65.0921 58.4785 64.8148 58.4785C64.1976 58.4785 63.7171 58.6934 63.3734 59.123C63.0296 59.5527 62.8578 60.1621 62.8578 60.9512C62.8578 61.7285 62.9906 62.3203 63.2562 62.7266C63.5218 63.1289 63.9476 63.3301 64.5336 63.3301C64.8461 63.3301 65.1625 63.2617 65.4828 63.125C65.8031 62.9844 66.1019 62.8047 66.3793 62.5859ZM73.2528 58.8535H73.1942C73.0301 58.8145 72.87 58.7871 72.7137 58.7715C72.5614 58.752 72.3797 58.7422 72.1688 58.7422C71.8289 58.7422 71.5008 58.8184 71.1844 58.9707C70.868 59.1191 70.5633 59.3125 70.2704 59.5508V64.1973H69.1688V57.6523H70.2704V58.6191C70.7079 58.2676 71.0926 58.0195 71.4246 57.875C71.7606 57.7266 72.1024 57.6523 72.45 57.6523C72.6414 57.6523 72.7801 57.6582 72.8661 57.6699C72.952 57.6777 73.0809 57.6953 73.2528 57.7227V58.8535ZM78.6849 64.1973H77.5892V63.5C77.4915 63.5664 77.3587 63.6602 77.1907 63.7812C77.0267 63.8984 76.8665 63.9922 76.7103 64.0625C76.5267 64.1523 76.3157 64.2266 76.0775 64.2852C75.8392 64.3477 75.5599 64.3789 75.2396 64.3789C74.6497 64.3789 74.1497 64.1836 73.7396 63.793C73.3294 63.4023 73.1243 62.9043 73.1243 62.2988C73.1243 61.8027 73.2298 61.4023 73.4407 61.0977C73.6556 60.7891 73.9603 60.5469 74.3548 60.3711C74.7532 60.1953 75.2318 60.0762 75.7904 60.0137C76.3489 59.9512 76.9486 59.9043 77.5892 59.873V59.7031C77.5892 59.4531 77.5443 59.2461 77.4544 59.082C77.3685 58.918 77.2435 58.7891 77.0794 58.6953C76.9232 58.6055 76.7357 58.5449 76.5169 58.5137C76.2982 58.4824 76.0696 58.4668 75.8314 58.4668C75.5423 58.4668 75.22 58.5059 74.8646 58.584C74.5091 58.6582 74.1419 58.7676 73.763 58.9121H73.7044V57.793C73.9193 57.7344 74.2298 57.6699 74.6361 57.5996C75.0423 57.5293 75.4427 57.4941 75.8372 57.4941C76.2982 57.4941 76.6986 57.5332 77.0384 57.6113C77.3821 57.6855 77.679 57.8145 77.929 57.998C78.1751 58.1777 78.3626 58.4102 78.4915 58.6953C78.6204 58.9805 78.6849 59.334 78.6849 59.7559V64.1973ZM77.5892 62.5859V60.7637C77.2532 60.7832 76.8568 60.8125 76.3997 60.8516C75.9466 60.8906 75.5872 60.9473 75.3216 61.0215C75.0052 61.1113 74.7493 61.252 74.554 61.4434C74.3587 61.6309 74.2611 61.8906 74.2611 62.2227C74.2611 62.5977 74.3743 62.8809 74.6009 63.0723C74.8275 63.2598 75.1732 63.3535 75.638 63.3535C76.0247 63.3535 76.3782 63.2793 76.6986 63.1309C77.0189 62.9785 77.3157 62.7969 77.5892 62.5859ZM83.8475 56.1465H83.7889C83.6678 56.1113 83.5096 56.0762 83.3143 56.041C83.1189 56.002 82.9471 55.9824 82.7986 55.9824C82.326 55.9824 81.9822 56.0879 81.7674 56.2988C81.5564 56.5059 81.451 56.8828 81.451 57.4297V57.6523H83.4373V58.5781H81.4861V64.1973H80.3846V58.5781H79.6404V57.6523H80.3846V57.4355C80.3846 56.6582 80.5779 56.0625 80.9646 55.6484C81.3514 55.2305 81.91 55.0215 82.6404 55.0215C82.8865 55.0215 83.1072 55.0332 83.3025 55.0566C83.5018 55.0801 83.6834 55.1074 83.8475 55.1387V56.1465ZM87.4632 64.1387C87.2561 64.1934 87.0296 64.2383 86.7835 64.2734C86.5413 64.3086 86.3245 64.3262 86.1331 64.3262C85.4651 64.3262 84.9573 64.1465 84.6096 63.7871C84.262 63.4277 84.0882 62.8516 84.0882 62.0586V58.5781H83.344V57.6523H84.0882V55.7715H85.1897V57.6523H87.4632V58.5781H85.1897V61.5605C85.1897 61.9043 85.1975 62.1738 85.2132 62.3691C85.2288 62.5605 85.2835 62.7402 85.3772 62.9082C85.4632 63.0645 85.5804 63.1797 85.7288 63.2539C85.8811 63.3242 86.1116 63.3594 86.4202 63.3594C86.5999 63.3594 86.7874 63.334 86.9827 63.2832C87.178 63.2285 87.3186 63.1836 87.4046 63.1484H87.4632V64.1387ZM95.5793 56.1465H95.5207C95.3997 56.1113 95.2414 56.0762 95.0461 56.041C94.8508 56.002 94.6789 55.9824 94.5305 55.9824C94.0579 55.9824 93.7141 56.0879 93.4993 56.2988C93.2883 56.5059 93.1829 56.8828 93.1829 57.4297V57.6523H95.1692V58.5781H93.218V64.1973H92.1164V58.5781H91.3723V57.6523H92.1164V57.4355C92.1164 56.6582 92.3098 56.0625 92.6965 55.6484C93.0832 55.2305 93.6418 55.0215 94.3723 55.0215C94.6184 55.0215 94.8391 55.0332 95.0344 55.0566C95.2336 55.0801 95.4153 55.1074 95.5793 55.1387V56.1465ZM101.375 60.9277C101.375 61.9941 101.101 62.8359 100.554 63.4531C100.008 64.0703 99.2751 64.3789 98.3571 64.3789C97.4314 64.3789 96.695 64.0703 96.1482 63.4531C95.6052 62.8359 95.3337 61.9941 95.3337 60.9277C95.3337 59.8613 95.6052 59.0195 96.1482 58.4023C96.695 57.7812 97.4314 57.4707 98.3571 57.4707C99.2751 57.4707 100.008 57.7812 100.554 58.4023C101.101 59.0195 101.375 59.8613 101.375 60.9277ZM100.238 60.9277C100.238 60.0801 100.072 59.4512 99.74 59.041C99.4079 58.627 98.947 58.4199 98.3571 58.4199C97.7595 58.4199 97.2946 58.627 96.9626 59.041C96.6345 59.4512 96.4704 60.0801 96.4704 60.9277C96.4704 61.748 96.6364 62.3711 96.9685 62.7969C97.3005 63.2188 97.7634 63.4297 98.3571 63.4297C98.9431 63.4297 99.4021 63.2207 99.7341 62.8027C100.07 62.3809 100.238 61.7559 100.238 60.9277ZM106.69 58.8535H106.631C106.467 58.8145 106.307 58.7871 106.151 58.7715C105.998 58.752 105.817 58.7422 105.606 58.7422C105.266 58.7422 104.938 58.8184 104.621 58.9707C104.305 59.1191 104 59.3125 103.707 59.5508V64.1973H102.606V57.6523H103.707V58.6191C104.145 58.2676 104.529 58.0195 104.862 57.875C105.197 57.7266 105.539 57.6523 105.887 57.6523C106.078 57.6523 106.217 57.6582 106.303 57.6699C106.389 57.6777 106.518 57.6953 106.69 57.7227V58.8535ZM116.646 57.6523L112.825 66.6113H111.648L112.866 63.8809L110.259 57.6523H111.454L113.464 62.5039L115.491 57.6523H116.646ZM123.08 60.9277C123.08 61.9941 122.806 62.8359 122.259 63.4531C121.713 64.0703 120.98 64.3789 120.062 64.3789C119.136 64.3789 118.4 64.0703 117.853 63.4531C117.31 62.8359 117.039 61.9941 117.039 60.9277C117.039 59.8613 117.31 59.0195 117.853 58.4023C118.4 57.7812 119.136 57.4707 120.062 57.4707C120.98 57.4707 121.713 57.7812 122.259 58.4023C122.806 59.0195 123.08 59.8613 123.08 60.9277ZM121.943 60.9277C121.943 60.0801 121.777 59.4512 121.445 59.041C121.113 58.627 120.652 58.4199 120.062 58.4199C119.464 58.4199 119 58.627 118.668 59.041C118.339 59.4512 118.175 60.0801 118.175 60.9277C118.175 61.748 118.341 62.3711 118.673 62.7969C119.006 63.2188 119.468 63.4297 120.062 63.4297C120.648 63.4297 121.107 63.2207 121.439 62.8027C121.775 62.3809 121.943 61.7559 121.943 60.9277ZM129.736 64.1973H128.635V63.4707C128.264 63.7637 127.908 63.9883 127.568 64.1445C127.229 64.3008 126.854 64.3789 126.443 64.3789C125.756 64.3789 125.221 64.1699 124.838 63.752C124.455 63.3301 124.264 62.7129 124.264 61.9004V57.6523H125.365V61.3789C125.365 61.7109 125.381 61.9961 125.412 62.2344C125.443 62.4688 125.51 62.6699 125.611 62.8379C125.717 63.0098 125.854 63.1348 126.022 63.2129C126.19 63.291 126.434 63.3301 126.754 63.3301C127.039 63.3301 127.35 63.2559 127.686 63.1074C128.026 62.959 128.342 62.7695 128.635 62.5391V57.6523H129.736V64.1973ZM135.508 58.8535H135.45C135.286 58.8145 135.126 58.7871 134.969 58.7715C134.817 58.752 134.635 58.7422 134.424 58.7422C134.085 58.7422 133.756 58.8184 133.44 58.9707C133.124 59.1191 132.819 59.3125 132.526 59.5508V64.1973H131.424V57.6523H132.526V58.6191C132.963 58.2676 133.348 58.0195 133.68 57.875C134.016 57.7266 134.358 57.6523 134.706 57.6523C134.897 57.6523 135.036 57.6582 135.122 57.6699C135.208 57.6777 135.337 57.6953 135.508 57.7227V58.8535ZM146.771 64.1973H145.535L144.679 61.7656H140.906L140.05 64.1973H138.873L142.048 55.4727H143.595L146.771 64.1973ZM144.322 60.7695L142.793 56.4863L141.257 60.7695H144.322ZM150.809 64.1387C150.602 64.1934 150.375 64.2383 150.129 64.2734C149.887 64.3086 149.67 64.3262 149.479 64.3262C148.811 64.3262 148.303 64.1465 147.955 63.7871C147.607 63.4277 147.434 62.8516 147.434 62.0586V58.5781H146.689V57.6523H147.434V55.7715H148.535V57.6523H150.809V58.5781H148.535V61.5605C148.535 61.9043 148.543 62.1738 148.559 62.3691C148.574 62.5605 148.629 62.7402 148.723 62.9082C148.809 63.0645 148.926 63.1797 149.074 63.2539C149.227 63.3242 149.457 63.3594 149.766 63.3594C149.945 63.3594 150.133 63.334 150.328 63.2832C150.523 63.2285 150.664 63.1836 150.75 63.1484H150.809V64.1387ZM155.063 64.1387C154.856 64.1934 154.629 64.2383 154.383 64.2734C154.141 64.3086 153.924 64.3262 153.733 64.3262C153.065 64.3262 152.557 64.1465 152.209 63.7871C151.862 63.4277 151.688 62.8516 151.688 62.0586V58.5781H150.944V57.6523H151.688V55.7715H152.79V57.6523H155.063V58.5781H152.79V61.5605C152.79 61.9043 152.797 62.1738 152.813 62.3691C152.829 62.5605 152.883 62.7402 152.977 62.9082C153.063 63.0645 153.18 63.1797 153.329 63.2539C153.481 63.3242 153.711 63.3594 154.02 63.3594C154.2 63.3594 154.387 63.334 154.583 63.2832C154.778 63.2285 154.918 63.1836 155.004 63.1484H155.063V64.1387ZM161.397 61.0391H156.575C156.575 61.4414 156.636 61.793 156.757 62.0938C156.878 62.3906 157.044 62.6348 157.255 62.8262C157.458 63.0137 157.698 63.1543 157.976 63.248C158.257 63.3418 158.565 63.3887 158.901 63.3887C159.347 63.3887 159.794 63.3008 160.243 63.125C160.696 62.9453 161.019 62.7695 161.21 62.5977H161.269V63.7988C160.897 63.9551 160.519 64.0859 160.132 64.1914C159.745 64.2969 159.339 64.3496 158.913 64.3496C157.827 64.3496 156.979 64.0566 156.37 63.4707C155.761 62.8809 155.456 62.0449 155.456 60.9629C155.456 59.8926 155.747 59.043 156.329 58.4141C156.915 57.7852 157.685 57.4707 158.638 57.4707C159.521 57.4707 160.2 57.7285 160.677 58.2441C161.157 58.7598 161.397 59.4922 161.397 60.4414V61.0391ZM160.325 60.1953C160.321 59.6172 160.175 59.1699 159.886 58.8535C159.601 58.5371 159.165 58.3789 158.579 58.3789C157.989 58.3789 157.519 58.5527 157.167 58.9004C156.819 59.248 156.622 59.6797 156.575 60.1953H160.325ZM168.06 64.1973H166.958V60.4707C166.958 60.1699 166.941 59.8887 166.906 59.627C166.871 59.3613 166.806 59.1543 166.712 59.0059C166.615 58.8418 166.474 58.7207 166.291 58.6426C166.107 58.5605 165.869 58.5195 165.576 58.5195C165.275 58.5195 164.96 58.5938 164.632 58.7422C164.304 58.8906 163.99 59.0801 163.689 59.3105V64.1973H162.587V57.6523H163.689V58.3789C164.033 58.0938 164.388 57.8711 164.755 57.7109C165.123 57.5508 165.499 57.4707 165.886 57.4707C166.593 57.4707 167.132 57.6836 167.503 58.1094C167.874 58.5352 168.06 59.1484 168.06 59.9492V64.1973ZM175.01 64.1973H173.908V63.5117C173.592 63.7852 173.262 63.998 172.918 64.1504C172.574 64.3027 172.201 64.3789 171.799 64.3789C171.018 64.3789 170.396 64.0781 169.936 63.4766C169.478 62.875 169.25 62.041 169.25 60.9746C169.25 60.4199 169.328 59.9258 169.484 59.4922C169.644 59.0586 169.859 58.6895 170.129 58.3848C170.394 58.0879 170.703 57.8613 171.055 57.7051C171.41 57.5488 171.777 57.4707 172.156 57.4707C172.5 57.4707 172.805 57.5078 173.07 57.582C173.336 57.6523 173.615 57.7637 173.908 57.916V55.0801H175.01V64.1973ZM173.908 62.5859V58.8301C173.611 58.6973 173.346 58.6055 173.111 58.5547C172.877 58.5039 172.621 58.4785 172.344 58.4785C171.727 58.4785 171.246 58.6934 170.902 59.123C170.559 59.5527 170.387 60.1621 170.387 60.9512C170.387 61.7285 170.519 62.3203 170.785 62.7266C171.051 63.1289 171.477 63.3301 172.062 63.3301C172.375 63.3301 172.691 63.2617 173.012 63.125C173.332 62.9844 173.631 62.8047 173.908 62.5859ZM181.784 64.1973H180.688V63.5C180.59 63.5664 180.457 63.6602 180.289 63.7812C180.125 63.8984 179.965 63.9922 179.809 64.0625C179.625 64.1523 179.414 64.2266 179.176 64.2852C178.938 64.3477 178.659 64.3789 178.338 64.3789C177.748 64.3789 177.248 64.1836 176.838 63.793C176.428 63.4023 176.223 62.9043 176.223 62.2988C176.223 61.8027 176.329 61.4023 176.539 61.0977C176.754 60.7891 177.059 60.5469 177.454 60.3711C177.852 60.1953 178.331 60.0762 178.889 60.0137C179.448 59.9512 180.047 59.9043 180.688 59.873V59.7031C180.688 59.4531 180.643 59.2461 180.553 59.082C180.467 58.918 180.342 58.7891 180.178 58.6953C180.022 58.6055 179.834 58.5449 179.616 58.5137C179.397 58.4824 179.168 58.4668 178.93 58.4668C178.641 58.4668 178.319 58.5059 177.963 58.584C177.608 58.6582 177.241 58.7676 176.862 58.9121H176.803V57.793C177.018 57.7344 177.329 57.6699 177.735 57.5996C178.141 57.5293 178.541 57.4941 178.936 57.4941C179.397 57.4941 179.797 57.5332 180.137 57.6113C180.481 57.6855 180.778 57.8145 181.028 57.998C181.274 58.1777 181.461 58.4102 181.59 58.6953C181.719 58.9805 181.784 59.334 181.784 59.7559V64.1973ZM180.688 62.5859V60.7637C180.352 60.7832 179.956 60.8125 179.498 60.8516C179.045 60.8906 178.686 60.9473 178.42 61.0215C178.104 61.1113 177.848 61.252 177.653 61.4434C177.457 61.6309 177.36 61.8906 177.36 62.2227C177.36 62.5977 177.473 62.8809 177.7 63.0723C177.926 63.2598 178.272 63.3535 178.737 63.3535C179.123 63.3535 179.477 63.2793 179.797 63.1309C180.118 62.9785 180.414 62.7969 180.688 62.5859ZM188.897 64.1973H187.796V60.4707C187.796 60.1699 187.778 59.8887 187.743 59.627C187.708 59.3613 187.643 59.1543 187.55 59.0059C187.452 58.8418 187.311 58.7207 187.128 58.6426C186.944 58.5605 186.706 58.5195 186.413 58.5195C186.112 58.5195 185.798 58.5938 185.47 58.7422C185.142 58.8906 184.827 59.0801 184.526 59.3105V64.1973H183.425V57.6523H184.526V58.3789C184.87 58.0938 185.226 57.8711 185.593 57.7109C185.96 57.5508 186.337 57.4707 186.724 57.4707C187.431 57.4707 187.97 57.6836 188.341 58.1094C188.712 58.5352 188.897 59.1484 188.897 59.9492V64.1973ZM195.378 63.7871C195.011 63.9629 194.662 64.0996 194.329 64.1973C194.001 64.2949 193.652 64.3438 193.281 64.3438C192.808 64.3438 192.374 64.2754 191.98 64.1387C191.585 63.998 191.247 63.7871 190.966 63.5059C190.681 63.2246 190.46 62.8691 190.304 62.4395C190.148 62.0098 190.07 61.5078 190.07 60.9336C190.07 59.8633 190.363 59.0234 190.949 58.4141C191.538 57.8047 192.316 57.5 193.281 57.5C193.656 57.5 194.023 57.5527 194.382 57.6582C194.746 57.7637 195.078 57.8926 195.378 58.0449V59.2695H195.32C194.984 59.0078 194.636 58.8066 194.277 58.666C193.921 58.5254 193.574 58.4551 193.234 58.4551C192.609 58.4551 192.115 58.666 191.751 59.0879C191.392 59.5059 191.212 60.1211 191.212 60.9336C191.212 61.7227 191.388 62.3301 191.74 62.7559C192.095 63.1777 192.593 63.3887 193.234 63.3887C193.456 63.3887 193.683 63.3594 193.913 63.3008C194.144 63.2422 194.351 63.166 194.535 63.0723C194.695 62.9902 194.845 62.9043 194.986 62.8145C195.126 62.7207 195.238 62.6406 195.32 62.5742H195.378V63.7871ZM201.795 61.0391H196.973C196.973 61.4414 197.033 61.793 197.154 62.0938C197.275 62.3906 197.441 62.6348 197.652 62.8262C197.855 63.0137 198.096 63.1543 198.373 63.248C198.654 63.3418 198.963 63.3887 199.299 63.3887C199.744 63.3887 200.191 63.3008 200.641 63.125C201.094 62.9453 201.416 62.7695 201.607 62.5977H201.666V63.7988C201.295 63.9551 200.916 64.0859 200.529 64.1914C200.142 64.2969 199.736 64.3496 199.31 64.3496C198.224 64.3496 197.377 64.0566 196.767 63.4707C196.158 62.8809 195.853 62.0449 195.853 60.9629C195.853 59.8926 196.144 59.043 196.726 58.4141C197.312 57.7852 198.082 57.4707 199.035 57.4707C199.918 57.4707 200.598 57.7285 201.074 58.2441C201.555 58.7598 201.795 59.4922 201.795 60.4414V61.0391ZM200.723 60.1953C200.719 59.6172 200.572 59.1699 200.283 58.8535C199.998 58.5371 199.562 58.3789 198.976 58.3789C198.387 58.3789 197.916 58.5527 197.564 58.9004C197.217 59.248 197.019 59.6797 196.973 60.1953H200.723ZM25.7412 81.1973H24.2354L21.3174 77.7285H19.6826V81.1973H18.5225V72.4727H20.9658C21.4932 72.4727 21.9326 72.5078 22.2842 72.5781C22.6357 72.6445 22.9521 72.7656 23.2334 72.9414C23.5498 73.1406 23.7959 73.3926 23.9717 73.6973C24.1514 73.998 24.2412 74.3809 24.2412 74.8457C24.2412 75.4746 24.083 76.002 23.7666 76.4277C23.4502 76.8496 23.0146 77.168 22.46 77.3828L25.7412 81.1973ZM23.0283 74.9277C23.0283 74.6777 22.9834 74.457 22.8936 74.2656C22.8076 74.0703 22.6631 73.9062 22.46 73.7734C22.292 73.6602 22.0928 73.582 21.8623 73.5391C21.6318 73.4922 21.3604 73.4688 21.0479 73.4688H19.6826V76.7617H20.8545C21.2217 76.7617 21.542 76.7305 21.8154 76.668C22.0889 76.6016 22.3213 76.4805 22.5127 76.3047C22.6885 76.1406 22.8174 75.9531 22.8994 75.7422C22.9854 75.5273 23.0283 75.2559 23.0283 74.9277ZM31.4839 78.0391H26.6616C26.6616 78.4414 26.7221 78.793 26.8432 79.0938C26.9643 79.3906 27.1304 79.6348 27.3413 79.8262C27.5444 80.0137 27.7846 80.1543 28.062 80.248C28.3432 80.3418 28.6518 80.3887 28.9878 80.3887C29.4331 80.3887 29.8804 80.3008 30.3296 80.125C30.7827 79.9453 31.105 79.7695 31.2964 79.5977H31.355V80.7988C30.9839 80.9551 30.605 81.0859 30.2182 81.1914C29.8315 81.2969 29.4253 81.3496 28.9995 81.3496C27.9136 81.3496 27.0659 81.0566 26.4565 80.4707C25.8471 79.8809 25.5425 79.0449 25.5425 77.9629C25.5425 76.8926 25.8335 76.043 26.4155 75.4141C27.0014 74.7852 27.771 74.4707 28.7241 74.4707C29.6069 74.4707 30.2866 74.7285 30.7632 75.2441C31.2436 75.7598 31.4839 76.4922 31.4839 77.4414V78.0391ZM30.4116 77.1953C30.4077 76.6172 30.2612 76.1699 29.9721 75.8535C29.687 75.5371 29.2514 75.3789 28.6655 75.3789C28.0757 75.3789 27.605 75.5527 27.2534 75.9004C26.9057 76.248 26.7085 76.6797 26.6616 77.1953H30.4116ZM37.9824 80.4531C37.9824 81.5625 37.7304 82.377 37.2265 82.8965C36.7226 83.416 35.9472 83.6758 34.9004 83.6758C34.5527 83.6758 34.2129 83.6504 33.8808 83.5996C33.5527 83.5527 33.2285 83.4844 32.9082 83.3945V82.2695H32.9668C33.1464 82.3398 33.4316 82.4258 33.8222 82.5273C34.2129 82.6328 34.6035 82.6855 34.9941 82.6855C35.3691 82.6855 35.6796 82.6406 35.9257 82.5508C36.1718 82.4609 36.3632 82.3359 36.5 82.1758C36.6367 82.0234 36.7343 81.8398 36.7929 81.625C36.8515 81.4102 36.8808 81.1699 36.8808 80.9043V80.3066C36.5488 80.5723 36.2304 80.7715 35.9257 80.9043C35.625 81.0332 35.2402 81.0977 34.7714 81.0977C33.9902 81.0977 33.3691 80.8164 32.9082 80.2539C32.4511 79.6875 32.2226 78.8906 32.2226 77.8633C32.2226 77.3008 32.3007 76.8164 32.457 76.4102C32.6171 76 32.8339 75.6465 33.1074 75.3496C33.3613 75.0723 33.6699 74.8574 34.0332 74.7051C34.3964 74.5488 34.7578 74.4707 35.1171 74.4707C35.4961 74.4707 35.8125 74.5098 36.0664 74.5879C36.3242 74.6621 36.5957 74.7773 36.8808 74.9336L36.9511 74.6523H37.9824V80.4531ZM36.8808 79.3984V75.8301C36.5879 75.6973 36.3144 75.6035 36.0605 75.5488C35.8105 75.4902 35.5605 75.4609 35.3105 75.4609C34.705 75.4609 34.2285 75.6641 33.8808 76.0703C33.5332 76.4766 33.3593 77.0664 33.3593 77.8398C33.3593 78.5742 33.4882 79.1309 33.7461 79.5098C34.0039 79.8887 34.4316 80.0781 35.0293 80.0781C35.3496 80.0781 35.6699 80.0176 35.9902 79.8965C36.3144 79.7715 36.6113 79.6055 36.8808 79.3984ZM45.0961 81.1973H43.9946V80.4707C43.6235 80.7637 43.268 80.9883 42.9282 81.1445C42.5883 81.3008 42.2133 81.3789 41.8032 81.3789C41.1157 81.3789 40.5805 81.1699 40.1977 80.752C39.8149 80.3301 39.6235 79.7129 39.6235 78.9004V74.6523H40.725V78.3789C40.725 78.7109 40.7407 78.9961 40.7719 79.2344C40.8032 79.4688 40.8696 79.6699 40.9711 79.8379C41.0766 80.0098 41.2133 80.1348 41.3813 80.2129C41.5493 80.291 41.7934 80.3301 42.1137 80.3301C42.3989 80.3301 42.7094 80.2559 43.0454 80.1074C43.3852 79.959 43.7016 79.7695 43.9946 79.5391V74.6523H45.0961V81.1973ZM47.8974 81.1973H46.7958V72.0801H47.8974V81.1973ZM54.683 81.1973H53.5873V80.5C53.4896 80.5664 53.3568 80.6602 53.1889 80.7812C53.0248 80.8984 52.8646 80.9922 52.7084 81.0625C52.5248 81.1523 52.3139 81.2266 52.0756 81.2852C51.8373 81.3477 51.558 81.3789 51.2377 81.3789C50.6479 81.3789 50.1479 81.1836 49.7377 80.793C49.3275 80.4023 49.1225 79.9043 49.1225 79.2988C49.1225 78.8027 49.2279 78.4023 49.4389 78.0977C49.6537 77.7891 49.9584 77.5469 50.3529 77.3711C50.7514 77.1953 51.2299 77.0762 51.7885 77.0137C52.3471 76.9512 52.9467 76.9043 53.5873 76.873V76.7031C53.5873 76.4531 53.5424 76.2461 53.4525 76.082C53.3666 75.918 53.2416 75.7891 53.0775 75.6953C52.9213 75.6055 52.7338 75.5449 52.515 75.5137C52.2963 75.4824 52.0678 75.4668 51.8295 75.4668C51.5404 75.4668 51.2182 75.5059 50.8627 75.584C50.5072 75.6582 50.14 75.7676 49.7611 75.9121H49.7025V74.793C49.9174 74.7344 50.2279 74.6699 50.6342 74.5996C51.0404 74.5293 51.4408 74.4941 51.8354 74.4941C52.2963 74.4941 52.6967 74.5332 53.0365 74.6113C53.3803 74.6855 53.6771 74.8145 53.9271 74.998C54.1732 75.1777 54.3607 75.4102 54.4896 75.6953C54.6186 75.9805 54.683 76.334 54.683 76.7559V81.1973ZM53.5873 79.5859V77.7637C53.2514 77.7832 52.8549 77.8125 52.3979 77.8516C51.9447 77.8906 51.5854 77.9473 51.3197 78.0215C51.0033 78.1113 50.7475 78.252 50.5521 78.4434C50.3568 78.6309 50.2592 78.8906 50.2592 79.2227C50.2592 79.5977 50.3725 79.8809 50.599 80.0723C50.8256 80.2598 51.1713 80.3535 51.6361 80.3535C52.0229 80.3535 52.3764 80.2793 52.6967 80.1309C53.017 79.9785 53.3139 79.7969 53.5873 79.5859ZM60.4081 75.8535H60.3495C60.1854 75.8145 60.0253 75.7871 59.869 75.7715C59.7167 75.752 59.535 75.7422 59.3241 75.7422C58.9843 75.7422 58.6561 75.8184 58.3397 75.9707C58.0233 76.1191 57.7186 76.3125 57.4257 76.5508V81.1973H56.3241V74.6523H57.4257V75.6191C57.8632 75.2676 58.2479 75.0195 58.58 74.875C58.9159 74.7266 59.2577 74.6523 59.6054 74.6523C59.7968 74.6523 59.9354 74.6582 60.0214 74.6699C60.1073 74.6777 60.2362 74.6953 60.4081 74.7227V75.8535ZM62.1488 73.5566H60.9066V72.4141H62.1488V73.5566ZM62.0785 81.1973H60.9769V74.6523H62.0785V81.1973ZM68.5243 81.1973H63.2391V80.3828L67.0536 75.5723H63.3211V74.6523H68.4246V75.4375L64.5926 80.2656H68.5243V81.1973ZM74.6888 81.1973H73.5931V80.5C73.4954 80.5664 73.3626 80.6602 73.1946 80.7812C73.0306 80.8984 72.8704 80.9922 72.7142 81.0625C72.5306 81.1523 72.3196 81.2266 72.0814 81.2852C71.8431 81.3477 71.5638 81.3789 71.2435 81.3789C70.6536 81.3789 70.1536 81.1836 69.7435 80.793C69.3333 80.4023 69.1282 79.9043 69.1282 79.2988C69.1282 78.8027 69.2337 78.4023 69.4446 78.0977C69.6595 77.7891 69.9642 77.5469 70.3587 77.3711C70.7571 77.1953 71.2357 77.0762 71.7943 77.0137C72.3529 76.9512 72.9525 76.9043 73.5931 76.873V76.7031C73.5931 76.4531 73.5482 76.2461 73.4583 76.082C73.3724 75.918 73.2474 75.7891 73.0833 75.6953C72.9271 75.6055 72.7396 75.5449 72.5208 75.5137C72.3021 75.4824 72.0736 75.4668 71.8353 75.4668C71.5462 75.4668 71.2239 75.5059 70.8685 75.584C70.513 75.6582 70.1458 75.7676 69.7669 75.9121H69.7083V74.793C69.9232 74.7344 70.2337 74.6699 70.64 74.5996C71.0462 74.5293 71.4466 74.4941 71.8411 74.4941C72.3021 74.4941 72.7025 74.5332 73.0423 74.6113C73.3861 74.6855 73.6829 74.8145 73.9329 74.998C74.179 75.1777 74.3665 75.4102 74.4954 75.6953C74.6243 75.9805 74.6888 76.334 74.6888 76.7559V81.1973ZM73.5931 79.5859V77.7637C73.2571 77.7832 72.8607 77.8125 72.4036 77.8516C71.9505 77.8906 71.5911 77.9473 71.3255 78.0215C71.0091 78.1113 70.7532 78.252 70.5579 78.4434C70.3626 78.6309 70.265 78.8906 70.265 79.2227C70.265 79.5977 70.3782 79.8809 70.6048 80.0723C70.8314 80.2598 71.1771 80.3535 71.6419 80.3535C72.0286 80.3535 72.3821 80.2793 72.7025 80.1309C73.0228 79.9785 73.3196 79.7969 73.5931 79.5859ZM79.7283 81.1387C79.5213 81.1934 79.2947 81.2383 79.0486 81.2734C78.8064 81.3086 78.5896 81.3262 78.3982 81.3262C77.7303 81.3262 77.2225 81.1465 76.8748 80.7871C76.5271 80.4277 76.3533 79.8516 76.3533 79.0586V75.5781H75.6092V74.6523H76.3533V72.7715H77.4549V74.6523H79.7283V75.5781H77.4549V78.5605C77.4549 78.9043 77.4627 79.1738 77.4783 79.3691C77.4939 79.5605 77.5486 79.7402 77.6424 79.9082C77.7283 80.0645 77.8455 80.1797 77.9939 80.2539C78.1463 80.3242 78.3768 80.3594 78.6854 80.3594C78.865 80.3594 79.0525 80.334 79.2479 80.2832C79.4432 80.2285 79.5838 80.1836 79.6697 80.1484H79.7283V81.1387ZM81.7679 73.5566H80.5257V72.4141H81.7679V73.5566ZM81.6975 81.1973H80.596V74.6523H81.6975V81.1973ZM88.9753 77.9277C88.9753 78.9941 88.7019 79.8359 88.155 80.4531C87.6082 81.0703 86.8757 81.3789 85.9578 81.3789C85.032 81.3789 84.2957 81.0703 83.7488 80.4531C83.2058 79.8359 82.9343 78.9941 82.9343 77.9277C82.9343 76.8613 83.2058 76.0195 83.7488 75.4023C84.2957 74.7812 85.032 74.4707 85.9578 74.4707C86.8757 74.4707 87.6082 74.7812 88.155 75.4023C88.7019 76.0195 88.9753 76.8613 88.9753 77.9277ZM87.8386 77.9277C87.8386 77.0801 87.6726 76.4512 87.3406 76.041C87.0086 75.627 86.5476 75.4199 85.9578 75.4199C85.3601 75.4199 84.8953 75.627 84.5632 76.041C84.2351 76.4512 84.0711 77.0801 84.0711 77.9277C84.0711 78.748 84.2371 79.3711 84.5691 79.7969C84.9011 80.2188 85.364 80.4297 85.9578 80.4297C86.5437 80.4297 87.0027 80.2207 87.3347 79.8027C87.6707 79.3809 87.8386 78.7559 87.8386 77.9277ZM95.6789 81.1973H94.5774V77.4707C94.5774 77.1699 94.5598 76.8887 94.5247 76.627C94.4895 76.3613 94.425 76.1543 94.3313 76.0059C94.2336 75.8418 94.093 75.7207 93.9094 75.6426C93.7258 75.5605 93.4875 75.5195 93.1946 75.5195C92.8938 75.5195 92.5793 75.5938 92.2512 75.7422C91.9231 75.8906 91.6086 76.0801 91.3079 76.3105V81.1973H90.2063V74.6523H91.3079V75.3789C91.6516 75.0938 92.0071 74.8711 92.3743 74.7109C92.7414 74.5508 93.1184 74.4707 93.5051 74.4707C94.2122 74.4707 94.7512 74.6836 95.1223 75.1094C95.4934 75.5352 95.6789 76.1484 95.6789 76.9492V81.1973ZM106.145 81.1973H105.049V80.5C104.951 80.5664 104.819 80.6602 104.651 80.7812C104.487 80.8984 104.326 80.9922 104.17 81.0625C103.987 81.1523 103.776 81.2266 103.537 81.2852C103.299 81.3477 103.02 81.3789 102.699 81.3789C102.11 81.3789 101.61 81.1836 101.199 80.793C100.789 80.4023 100.584 79.9043 100.584 79.2988C100.584 78.8027 100.69 78.4023 100.901 78.0977C101.115 77.7891 101.42 77.5469 101.815 77.3711C102.213 77.1953 102.692 77.0762 103.25 77.0137C103.809 76.9512 104.408 76.9043 105.049 76.873V76.7031C105.049 76.4531 105.004 76.2461 104.914 76.082C104.828 75.918 104.703 75.7891 104.539 75.6953C104.383 75.6055 104.196 75.5449 103.977 75.5137C103.758 75.4824 103.529 75.4668 103.291 75.4668C103.002 75.4668 102.68 75.5059 102.324 75.584C101.969 75.6582 101.602 75.7676 101.223 75.9121H101.164V74.793C101.379 74.7344 101.69 74.6699 102.096 74.5996C102.502 74.5293 102.903 74.4941 103.297 74.4941C103.758 74.4941 104.158 74.5332 104.498 74.6113C104.842 74.6855 105.139 74.8145 105.389 74.998C105.635 75.1777 105.822 75.4102 105.951 75.6953C106.08 75.9805 106.145 76.334 106.145 76.7559V81.1973ZM105.049 79.5859V77.7637C104.713 77.7832 104.317 77.8125 103.86 77.8516C103.406 77.8906 103.047 77.9473 102.781 78.0215C102.465 78.1113 102.209 78.252 102.014 78.4434C101.819 78.6309 101.721 78.8906 101.721 79.2227C101.721 79.5977 101.834 79.8809 102.061 80.0723C102.287 80.2598 102.633 80.3535 103.098 80.3535C103.485 80.3535 103.838 80.2793 104.158 80.1309C104.479 79.9785 104.776 79.7969 105.049 79.5859ZM113.258 81.1973H112.157V77.4707C112.157 77.1699 112.139 76.8887 112.104 76.627C112.069 76.3613 112.005 76.1543 111.911 76.0059C111.813 75.8418 111.673 75.7207 111.489 75.6426C111.305 75.5605 111.067 75.5195 110.774 75.5195C110.473 75.5195 110.159 75.5938 109.831 75.7422C109.503 75.8906 109.188 76.0801 108.887 76.3105V81.1973H107.786V74.6523H108.887V75.3789C109.231 75.0938 109.587 74.8711 109.954 74.7109C110.321 74.5508 110.698 74.4707 111.085 74.4707C111.792 74.4707 112.331 74.6836 112.702 75.1094C113.073 75.5352 113.258 76.1484 113.258 76.9492V81.1973ZM120.208 81.1973H119.107V80.5117C118.79 80.7852 118.46 80.998 118.116 81.1504C117.773 81.3027 117.4 81.3789 116.997 81.3789C116.216 81.3789 115.595 81.0781 115.134 80.4766C114.677 79.875 114.448 79.041 114.448 77.9746C114.448 77.4199 114.527 76.9258 114.683 76.4922C114.843 76.0586 115.058 75.6895 115.327 75.3848C115.593 75.0879 115.902 74.8613 116.253 74.7051C116.609 74.5488 116.976 74.4707 117.355 74.4707C117.698 74.4707 118.003 74.5078 118.269 74.582C118.534 74.6523 118.814 74.7637 119.107 74.916V72.0801H120.208V81.1973ZM119.107 79.5859V75.8301C118.81 75.6973 118.544 75.6055 118.31 75.5547C118.075 75.5039 117.819 75.4785 117.542 75.4785C116.925 75.4785 116.444 75.6934 116.101 76.123C115.757 76.5527 115.585 77.1621 115.585 77.9512C115.585 78.7285 115.718 79.3203 115.984 79.7266C116.249 80.1289 116.675 80.3301 117.261 80.3301C117.573 80.3301 117.89 80.2617 118.21 80.125C118.53 79.9844 118.829 79.8047 119.107 79.5859ZM130.311 79.3105C130.311 79.9082 130.063 80.3984 129.567 80.7812C129.074 81.1641 128.401 81.3555 127.545 81.3555C127.061 81.3555 126.615 81.2988 126.209 81.1855C125.807 81.0684 125.469 80.9414 125.195 80.8047V79.5684H125.254C125.602 79.8301 125.988 80.0391 126.414 80.1953C126.84 80.3477 127.248 80.4238 127.639 80.4238C128.123 80.4238 128.502 80.3457 128.776 80.1895C129.049 80.0332 129.186 79.7871 129.186 79.4512C129.186 79.1934 129.111 78.998 128.963 78.8652C128.815 78.7324 128.529 78.6191 128.108 78.5254C127.951 78.4902 127.746 78.4492 127.492 78.4023C127.242 78.3555 127.014 78.3047 126.807 78.25C126.233 78.0977 125.824 77.875 125.582 77.582C125.344 77.2852 125.225 76.9219 125.225 76.4922C125.225 76.2227 125.279 75.9688 125.389 75.7305C125.502 75.4922 125.672 75.2793 125.899 75.0918C126.117 74.9082 126.395 74.7637 126.731 74.6582C127.07 74.5488 127.449 74.4941 127.867 74.4941C128.258 74.4941 128.652 74.543 129.051 74.6406C129.453 74.7344 129.787 74.8496 130.053 74.9863V76.1641H129.994C129.713 75.957 129.371 75.7832 128.969 75.6426C128.567 75.498 128.172 75.4258 127.785 75.4258C127.383 75.4258 127.043 75.5039 126.766 75.6602C126.488 75.8125 126.35 76.041 126.35 76.3457C126.35 76.6152 126.434 76.8184 126.602 76.9551C126.766 77.0918 127.031 77.2031 127.399 77.2891C127.602 77.3359 127.828 77.3828 128.078 77.4297C128.332 77.4766 128.543 77.5195 128.711 77.5586C129.223 77.6758 129.617 77.877 129.895 78.1621C130.172 78.4512 130.311 78.834 130.311 79.3105ZM136.838 81.1973H135.737V80.4707C135.366 80.7637 135.01 80.9883 134.671 81.1445C134.331 81.3008 133.956 81.3789 133.546 81.3789C132.858 81.3789 132.323 81.1699 131.94 80.752C131.557 80.3301 131.366 79.7129 131.366 78.9004V74.6523H132.467V78.3789C132.467 78.7109 132.483 78.9961 132.514 79.2344C132.546 79.4688 132.612 79.6699 132.713 79.8379C132.819 80.0098 132.956 80.1348 133.124 80.2129C133.292 80.291 133.536 80.3301 133.856 80.3301C134.141 80.3301 134.452 80.2559 134.788 80.1074C135.128 79.959 135.444 79.7695 135.737 79.5391V74.6523H136.838V81.1973ZM144.286 77.875C144.286 78.4219 144.208 78.9141 144.052 79.3516C143.899 79.7891 143.692 80.1562 143.431 80.4531C143.153 80.7617 142.849 80.9941 142.517 81.1504C142.185 81.3027 141.819 81.3789 141.421 81.3789C141.05 81.3789 140.726 81.334 140.448 81.2441C140.171 81.1582 139.898 81.041 139.628 80.8926L139.558 81.1973H138.526V72.0801H139.628V75.3379C139.937 75.084 140.265 74.877 140.612 74.7168C140.96 74.5527 141.351 74.4707 141.784 74.4707C142.558 74.4707 143.167 74.7676 143.612 75.3613C144.062 75.9551 144.286 76.793 144.286 77.875ZM143.149 77.9043C143.149 77.123 143.021 76.5312 142.763 76.1289C142.505 75.7227 142.089 75.5195 141.515 75.5195C141.194 75.5195 140.87 75.5898 140.542 75.7305C140.214 75.8672 139.909 76.0449 139.628 76.2637V80.0137C139.941 80.1543 140.208 80.252 140.431 80.3066C140.657 80.3613 140.913 80.3887 141.198 80.3887C141.808 80.3887 142.284 80.1895 142.628 79.791C142.976 79.3887 143.149 78.7598 143.149 77.9043ZM155.074 81.1973H153.972V77.4707C153.972 77.1895 153.959 76.918 153.931 76.6562C153.908 76.3945 153.855 76.1855 153.773 76.0293C153.683 75.8613 153.554 75.7344 153.386 75.6484C153.218 75.5625 152.976 75.5195 152.66 75.5195C152.351 75.5195 152.043 75.5977 151.734 75.7539C151.425 75.9062 151.117 76.1016 150.808 76.3398C150.82 76.4297 150.83 76.5352 150.837 76.6562C150.845 76.7734 150.849 76.8906 150.849 77.0078V81.1973H149.748V77.4707C149.748 77.1816 149.734 76.9082 149.707 76.6504C149.683 76.3887 149.63 76.1797 149.548 76.0234C149.459 75.8555 149.33 75.7305 149.162 75.6484C148.994 75.5625 148.752 75.5195 148.435 75.5195C148.134 75.5195 147.832 75.5938 147.527 75.7422C147.226 75.8906 146.925 76.0801 146.625 76.3105V81.1973H145.523V74.6523H146.625V75.3789C146.968 75.0938 147.31 74.8711 147.65 74.7109C147.994 74.5508 148.359 74.4707 148.746 74.4707C149.191 74.4707 149.568 74.5645 149.877 74.752C150.189 74.9395 150.421 75.1992 150.574 75.5312C151.019 75.1562 151.425 74.8867 151.793 74.7227C152.16 74.5547 152.552 74.4707 152.97 74.4707C153.689 74.4707 154.218 74.6895 154.558 75.127C154.902 75.5605 155.074 76.168 155.074 76.9492V81.1973ZM157.898 73.5566H156.656V72.4141H157.898V73.5566ZM157.828 81.1973H156.727V74.6523H157.828V81.1973ZM162.926 81.1387C162.719 81.1934 162.493 81.2383 162.247 81.2734C162.004 81.3086 161.788 81.3262 161.596 81.3262C160.928 81.3262 160.42 81.1465 160.073 80.7871C159.725 80.4277 159.551 79.8516 159.551 79.0586V75.5781H158.807V74.6523H159.551V72.7715H160.653V74.6523H162.926V75.5781H160.653V78.5605C160.653 78.9043 160.661 79.1738 160.676 79.3691C160.692 79.5605 160.747 79.7402 160.84 79.9082C160.926 80.0645 161.043 80.1797 161.192 80.2539C161.344 80.3242 161.575 80.3594 161.883 80.3594C162.063 80.3594 162.251 80.334 162.446 80.2832C162.641 80.2285 162.782 80.1836 162.868 80.1484H162.926V81.1387Z" fill="#384F69"/>
<path d="M287.467 60.1203C287.286 60.1848 278.895 53.4639 275.857 52.0449C275.857 52.0449 280.236 68.873 280.294 76.6452C283.494 78.0086 286.605 79.5726 289.608 81.3279C296.516 81.1276 303.427 81.5833 310.248 82.6889C310.248 82.6889 310.003 60.488 310.125 55.5602C310.158 55.6182 301.405 55.1216 287.467 60.1203Z" fill="#005BC3"/>
<path d="M305.966 55.4965L304.489 51.5491C301.464 52.1941 298.362 50.9041 297.027 48.466C294.646 44.1703 293.576 35.4564 293.576 35.4564C299.058 36.3852 303.56 32.3733 303.56 32.3733C304.792 37.1205 310.01 39.6489 310.01 39.6489C310.01 39.6489 311.836 37.63 312.971 39.3457C314.538 41.7064 311.487 42.8545 311.487 42.8545C311.862 47.9113 310.32 49.2078 310.32 49.2078L312.539 53.6454C312.539 53.6454 313.893 52.0587 317.841 52.3554C322.156 52.6779 328.509 59.9341 331.341 67.5838C335.32 78.2457 330.109 81.5674 330.109 81.5674C330.109 81.5674 355.947 81.69 358.044 81.6255C360.14 81.561 359.708 82.6123 359.708 83.3541C359.73 83.5403 359.694 83.7288 359.605 83.894C359.517 84.0591 359.379 84.1927 359.211 84.2764C361.643 97.2409 354.38 104.142 350.362 106.793C348.272 108.161 342.325 110.554 341.977 112.714C341.841 113.514 342.467 115.365 345.737 116.907C349.007 118.449 356.734 123.002 359.611 129.117C361.35 132.894 361.86 137.122 361.069 141.204C361.714 141.327 361.868 141.759 361.933 143.139C361.997 144.519 361.191 144.558 360.643 144.558C360.095 144.558 320.505 144.558 318.473 144.681C316.441 144.803 316.499 144.126 316.435 142.707C316.37 141.288 317.421 141.288 317.421 141.288C317.206 139.302 317.165 137.302 317.299 135.309C317.299 135.309 315.138 138.76 314.461 138.392C313.784 138.024 314.216 128.898 314.216 128.898C315.804 126.891 317.187 124.73 318.344 122.448C319.453 122.635 322.046 124.789 322.046 124.789C322.046 124.789 323.401 122.751 328.58 119.551C332.585 117.075 336.61 115.236 336.662 113.011C336.739 109.315 327.051 108.69 322.169 100.808C320.314 97.9164 319.205 94.6097 318.944 91.1844C306.611 83.1735 292.37 85.2052 292.37 85.2052C292.86 83.4186 293.724 81.1998 293.724 81.1998C293.724 81.1998 307.966 81.8448 310.191 82.7413V78.0006C310.191 78.0006 309.881 77.5684 309.759 77.3556C309.759 77.3556 308.237 77.2137 306.734 75.3819C305.231 73.5501 305.134 72.8535 305.379 72.7309C305.624 72.6084 307.166 73.2211 307.166 73.2211C307.166 73.2211 305.373 70.5057 305.876 69.8284C306.244 69.3382 307.417 70.08 307.417 70.08C307.417 70.08 305.818 67.8547 306.495 67.3645C306.927 67.0549 307.972 67.7322 307.972 67.7322C307.972 67.7322 306.927 65.7972 307.417 65.4553C308.101 65.0232 310.133 67.1194 310.133 67.1194V55.6191C310.133 55.6191 309.914 55.374 305.966 55.4965Z" fill="white"/>
<path d="M279.27 68.3159C277.051 69.3028 277.296 67.7612 277.296 67.7612C275.813 67.6387 276.187 65.9746 276.187 65.9746C274.645 65.3296 275.813 63.8783 275.813 63.8783C275.813 63.8783 275.077 63.8783 275.258 62.6464C275.438 61.4144 277.728 59.9954 277.728 59.9954C277.728 59.9954 278.96 59.6278 279.083 59.9954C279.205 60.3631 278.218 61.724 278.218 61.724C278.218 61.724 280.011 60.9178 280.379 61.3499C280.747 61.7821 278.715 63.8783 278.715 63.8783C278.715 63.8783 281.366 63.014 281.553 63.5687C281.74 64.1234 279.083 66.4712 279.083 66.4712C279.083 66.4712 281.553 65.8262 281.734 66.6518C281.798 67.3355 279.27 68.3159 279.27 68.3159Z" fill="white"/>
<path d="M303.625 140.214C303.625 140.214 302.696 143.355 302.393 143.6C302.089 143.845 289.809 144.097 286.48 143.6C289.376 141.014 292.876 139.199 296.659 138.324C298.883 139.27 301.227 139.905 303.625 140.214Z" fill="white"/>
<path d="M351.161 105.931C350.245 106.266 349.239 106.266 348.323 105.931C346.84 105.382 342.654 102.661 339.751 102.783C336.849 102.906 331.25 105.769 330.076 105.866C328.771 105.808 327.475 105.622 326.206 105.311C328.529 107.264 331.14 108.845 333.946 110.001C338.461 111.658 337.216 119.74 335.236 125.784C332.656 133.737 318.098 134.349 317.666 141.322H361.023C361.023 141.322 361.668 139.845 358.559 137.31C351.961 131.892 344.427 132.073 342.279 123.565C341.473 120.34 341.06 114.935 342.157 112.219C343.253 109.504 348.013 109.014 351.161 105.931Z" fill="#7BD2FF"/>
<path d="M300.665 44.5252C300.787 44.5252 300.852 44.4607 300.91 44.3382C300.938 44.2725 300.941 44.1987 300.919 44.1309C300.896 44.063 300.849 44.0059 300.787 43.9705C300.408 43.7937 300.056 43.5634 299.742 43.2868C300.477 42.7321 300.716 41.7517 300.477 40.4553C300.338 39.77 300.108 39.1062 299.794 38.4816C299.761 38.4166 299.704 38.3671 299.635 38.3441C299.566 38.3212 299.491 38.3265 299.426 38.359C299.361 38.3915 299.312 38.4485 299.289 38.5175C299.266 38.5864 299.271 38.6617 299.304 38.7267C299.304 38.7912 301.026 42.0549 299.175 43.0417C299.117 43.1062 299.052 43.1643 299.052 43.2288C299.043 43.3156 299.066 43.4026 299.117 43.4739C299.581 43.8951 300.102 44.249 300.665 44.5252Z" fill="#414141"/>
<path d="M303.748 45.2615C303.775 45.1957 303.778 45.1224 303.755 45.0549C303.733 44.9874 303.687 44.9303 303.626 44.8939C303.559 44.8664 303.485 44.8637 303.416 44.8862C303.347 44.9086 303.289 44.9548 303.252 45.0164C303.194 45.0809 302.065 47.1514 299.556 45.9388C299.488 45.9119 299.413 45.9101 299.345 45.9338C299.276 45.9575 299.218 46.005 299.182 46.0678C299.155 46.1343 299.154 46.2082 299.177 46.2757C299.201 46.3433 299.248 46.4 299.311 46.4354C299.923 46.7386 302.329 47.6674 303.748 45.2615Z" fill="#414141"/>
<path d="M295.176 38.4132C295.471 38.184 295.825 38.0451 296.197 38.013C296.569 37.981 296.943 38.0572 297.272 38.2326C297.337 38.2603 297.411 38.2621 297.477 38.2375C297.544 38.2128 297.598 38.1637 297.63 38.1001C297.661 38.0366 297.667 37.9634 297.646 37.8957C297.625 37.8279 297.579 37.7708 297.517 37.7359C297.094 37.4978 296.608 37.3937 296.125 37.4375C295.641 37.4813 295.182 37.6708 294.808 37.981C294.757 38.0267 294.722 38.0887 294.71 38.1567C294.698 38.2247 294.71 38.2947 294.744 38.3551C294.802 38.4071 294.874 38.4404 294.951 38.4508C295.028 38.4611 295.106 38.448 295.176 38.4132Z" fill="#414141"/>
<path d="M301.219 37.368C301.557 36.9478 302.018 36.6441 302.537 36.4995C303.056 36.3549 303.608 36.3767 304.115 36.5617C304.181 36.5892 304.256 36.5919 304.324 36.5695C304.393 36.547 304.451 36.5008 304.489 36.4392C304.515 36.3727 304.517 36.2988 304.493 36.2312C304.469 36.1637 304.422 36.1069 304.36 36.0715C303.744 35.8182 303.064 35.7712 302.419 35.9375C301.775 36.1038 301.202 36.4744 300.786 36.9939C300.722 37.1164 300.722 37.3035 300.851 37.368C300.973 37.5486 301.154 37.426 301.219 37.368Z" fill="#414141"/>
<path d="M354.303 97.9158C357.386 93.3556 356.651 87.0604 356.587 86.8153C356.578 86.7418 356.541 86.6746 356.482 86.6287C356.424 86.5827 356.35 86.5617 356.277 86.5702C356.203 86.5788 356.136 86.6162 356.09 86.6743C356.044 86.7323 356.023 86.8063 356.032 86.8798C356.032 86.9379 356.774 93.2266 353.813 97.6062C353.749 97.7287 353.749 97.9158 353.878 97.9738C354.007 98.0319 354.2 98.0254 354.303 97.9158Z" fill="#414141"/>
<path d="M356.218 130.412C356.28 130.374 356.326 130.316 356.348 130.248C356.371 130.179 356.368 130.105 356.341 130.038C354.449 126.692 351.592 123.994 348.143 122.298C348.076 122.27 348.001 122.268 347.933 122.29C347.864 122.313 347.806 122.359 347.768 122.42C347.741 122.486 347.739 122.56 347.761 122.627C347.784 122.695 347.83 122.752 347.891 122.788C353.593 125.704 355.844 130.186 355.844 130.251C355.947 130.418 356.018 130.412 356.218 130.412Z" fill="#414141"/>
<path d="M303.867 40.935C303.692 40.9727 303.506 40.9264 303.35 40.8063C303.194 40.6862 303.082 40.5021 303.037 40.2946C302.993 40.0871 303.02 39.8732 303.113 39.6998C303.205 39.5265 303.356 39.4079 303.532 39.3702C303.619 39.3516 303.709 39.3533 303.798 39.3754C303.887 39.3975 303.972 39.4394 304.049 39.4988C304.126 39.5583 304.194 39.634 304.247 39.7218C304.301 39.8095 304.34 39.9075 304.362 40.0102C304.384 40.1129 304.389 40.2183 304.376 40.3203C304.363 40.4223 304.332 40.519 304.287 40.6048C304.241 40.6906 304.18 40.7639 304.108 40.8204C304.036 40.877 303.954 40.9157 303.867 40.9343" fill="#414141"/>
<path d="M297.408 42.1785C297.321 42.1971 297.231 42.1954 297.142 42.1733C297.053 42.1513 296.968 42.1093 296.891 42.0499C296.814 41.9904 296.747 41.9147 296.693 41.827C296.639 41.7392 296.601 41.6412 296.578 41.5385C296.556 41.4358 296.552 41.3304 296.565 41.2284C296.578 41.1264 296.608 41.0297 296.654 40.9439C296.7 40.8581 296.76 40.7848 296.832 40.7283C296.904 40.6717 296.986 40.633 297.073 40.6144C297.16 40.5957 297.25 40.5975 297.339 40.6195C297.428 40.6416 297.513 40.6835 297.59 40.743C297.667 40.8024 297.735 40.8781 297.788 40.9659C297.842 41.0536 297.881 41.1517 297.903 41.2544C297.925 41.3571 297.93 41.4624 297.917 41.5645C297.904 41.6665 297.873 41.7632 297.828 41.849C297.782 41.9348 297.721 42.0081 297.649 42.0646C297.577 42.1211 297.495 42.1598 297.408 42.1785Z" fill="#414141"/>
<path d="M298.071 44.5784C298.071 44.6512 298.051 44.7234 298.01 44.7907C297.97 44.858 297.911 44.9191 297.837 44.9706C297.763 45.0221 297.675 45.063 297.578 45.0909C297.481 45.1187 297.377 45.1331 297.271 45.1331C297.166 45.1331 297.062 45.1187 296.965 45.0909C296.868 45.063 296.78 45.0221 296.706 44.9706C296.632 44.9191 296.573 44.858 296.533 44.7907C296.492 44.7234 296.472 44.6512 296.472 44.5784C296.472 44.5055 296.492 44.4334 296.533 44.3661C296.573 44.2988 296.632 44.2377 296.706 44.1861C296.78 44.1346 296.868 44.0938 296.965 44.0659C297.062 44.038 297.166 44.0237 297.271 44.0237C297.377 44.0237 297.481 44.038 297.578 44.0659C297.675 44.0938 297.763 44.1346 297.837 44.1861C297.911 44.2377 297.97 44.2988 298.01 44.3661C298.051 44.4334 298.071 44.5055 298.071 44.5784Z" fill="#FDAF31"/>
<path d="M305.465 44.023C305.34 44.0625 305.211 44.0846 305.085 44.0881C304.959 44.0917 304.839 44.0765 304.731 44.0435C304.624 44.0105 304.531 43.9603 304.459 43.8959C304.386 43.8315 304.335 43.7541 304.309 43.6682C304.283 43.5824 304.282 43.4898 304.306 43.3958C304.33 43.3019 304.379 43.2084 304.449 43.1209C304.52 43.0334 304.611 42.9536 304.717 42.8861C304.824 42.8186 304.943 42.7648 305.069 42.7278C305.193 42.6883 305.322 42.6661 305.448 42.6626C305.574 42.6591 305.694 42.6743 305.802 42.7073C305.909 42.7403 306.002 42.7905 306.074 42.8549C306.147 42.9193 306.198 42.9967 306.224 43.0825C306.25 43.1684 306.251 43.261 306.227 43.3549C306.203 43.4489 306.155 43.5423 306.084 43.6299C306.013 43.7174 305.922 43.7972 305.816 43.8647C305.709 43.9321 305.59 43.986 305.465 44.023Z" fill="#FDAF31"/>
<path d="M275.755 61.3511C276.218 60.7708 276.81 60.307 277.484 59.9966C277.052 57.9003 275.878 52.721 275.445 51.9792C275.387 51.8567 275.387 51.7341 275.51 51.6696C275.633 51.6051 275.755 51.5471 275.82 51.6696C276.187 51.9212 282.411 55.9911 285.746 58.3905C283.895 56.2943 280.586 53.0886 276.987 51.7341C276.924 51.6973 276.873 51.643 276.839 51.5778C276.806 51.5126 276.793 51.4392 276.8 51.3665C276.837 51.3022 276.893 51.2502 276.959 51.2169C277.025 51.1837 277.1 51.1707 277.174 51.1794C280.07 52.2888 282.798 54.5528 284.572 56.2943C285.217 56.9393 285.746 57.4682 286.172 57.9584C284.405 54.9286 281.848 52.4361 278.774 50.7473C278.737 50.7335 278.704 50.7122 278.676 50.6847C278.648 50.6572 278.626 50.6241 278.612 50.5876C278.598 50.5511 278.592 50.5121 278.594 50.473C278.596 50.4339 278.606 50.3957 278.624 50.3609C278.642 50.3261 278.667 50.2954 278.698 50.271C278.728 50.2465 278.764 50.2288 278.801 50.219C278.839 50.2092 278.879 50.2075 278.917 50.2141C278.956 50.2206 278.993 50.2353 279.025 50.2571C282.813 52.32 285.822 55.5663 287.591 59.4999C293.576 53.2757 303.071 53.2112 303.193 53.2112C303.257 53.2171 303.317 53.2457 303.362 53.2918C303.407 53.3379 303.434 53.3985 303.438 53.4627C303.434 53.5262 303.407 53.586 303.362 53.631C303.317 53.676 303.257 53.7033 303.193 53.7078C303.129 53.7078 295.453 53.7659 289.687 58.3325C294.494 55.8145 299.803 54.4019 305.225 54.198C304.857 53.2757 304.425 52.1663 304.238 51.6696C302.878 52.0234 301.441 51.9268 300.14 51.3941C298.84 50.8615 297.748 49.9216 297.027 48.7155C295.737 46.6902 294.189 42.2655 293.325 35.4543C292.89 35.3279 292.476 35.1412 292.093 34.8996C287.236 32.0229 291.545 26.592 294.621 25.2246C296.556 24.3668 300.91 22.6962 304.612 24.9731C306.547 20.7806 311.211 22.6317 311.269 22.6317C311.301 22.6478 311.33 22.6701 311.353 22.6973C311.377 22.7245 311.395 22.756 311.406 22.7902C311.418 22.8243 311.422 22.8603 311.42 22.8962C311.417 22.9321 311.407 22.9672 311.391 22.9994C311.375 23.0315 311.353 23.0602 311.326 23.0838C311.299 23.1074 311.267 23.1254 311.233 23.1368C311.199 23.1482 311.163 23.1527 311.127 23.1502C311.091 23.1476 311.056 23.138 311.024 23.1219C311.024 23.1219 307.386 21.5223 305.348 24.6635C306.37 24.2168 307.478 24.0019 308.594 24.0342C309.709 24.0665 310.803 24.3453 311.798 24.8505C320.473 29.5655 324.698 41.1561 327.026 50.0055C327.041 50.0633 327.042 50.1237 327.03 50.1821C327.018 50.2405 326.993 50.2955 326.958 50.3431C326.922 50.3907 326.876 50.4297 326.823 50.4572C326.77 50.4847 326.712 50.5001 326.652 50.5022L312.049 51.6696L312.733 53.0306C313.778 52.3856 317.641 50.528 322.285 54.14C324.678 56.004 328.439 60.3707 330.922 65.6661C334.534 73.4061 333.257 77.8695 331.567 80.3463C331.328 80.6985 331.056 81.0268 330.754 81.3267H358.805C359.979 81.3267 360.044 82.133 360.044 82.9328C360.044 82.9328 360.102 83.7326 359.734 84.0422C359.67 84.1067 359.547 84.1647 359.483 84.2292C360.656 91.5048 359.231 97.6001 355.232 102.418C351.955 106.359 347.834 108.397 345.673 109.513C343.641 110.565 342.287 111.919 342.222 112.841C342.164 113.648 342.654 114.506 343.764 115.37C345.454 116.847 353.942 120.233 358.438 126.715C362.933 133.198 361.456 140.957 361.398 141.021C361.34 141.086 361.643 141.209 361.708 141.267C361.867 141.427 361.988 141.621 362.063 141.834C362.137 142.047 362.164 142.274 362.14 142.499C362.14 144.292 361.953 144.717 360.166 144.717L317.68 144.782C317.238 144.82 316.797 144.688 316.448 144.414C316.016 143.982 316.08 143.543 316.08 142.931C315.939 141.692 316.319 141.35 317.074 141.041C316.799 139.385 316.734 137.701 316.88 136.029C316.513 136.519 314.945 138.68 314.416 138.609C314.165 138.609 313.862 138.422 313.862 134.352C313.862 134.352 313.055 134.662 312.997 134.662C312.939 134.662 312.81 134.604 312.746 134.481C312.719 134.414 312.717 134.339 312.741 134.27C312.765 134.202 312.812 134.144 312.875 134.107L313.862 133.739V132.449C312.746 132.933 312.914 132.882 312.746 132.882C312.578 132.882 312.565 132.817 312.501 132.695C312.474 132.629 312.471 132.555 312.494 132.488C312.516 132.42 312.562 132.363 312.623 132.327L313.862 131.837C313.862 130.85 313.92 129.863 313.984 129.121C313.43 128.999 311.269 128.379 308.373 127.335C309.292 123.762 310.403 120.242 311.701 116.789C313.687 118.597 315.811 120.247 318.054 121.723C318.177 121.781 320.634 123.323 321.924 124.303C326.439 119.408 333.147 116.66 334.747 115.305C335.785 114.422 336.346 113.641 336.288 112.777C336.23 111.913 335.424 110.926 333.947 110.061C333.192 109.494 327.394 107.63 323.156 102.541C321.132 100.122 319.735 97.2423 319.086 94.1558L311.269 116.395C309.606 120.983 308.187 125.655 307.018 130.392C305.412 135.874 303.993 140.009 303.871 140.376C303.561 141.55 303.077 143.537 302.516 143.769C301.723 144.098 286.791 143.834 286.359 143.582C286.294 143.547 286.242 143.493 286.209 143.427C286.176 143.361 286.163 143.287 286.172 143.214C286.236 142.782 287.655 141.86 290.364 140.499C290.504 140.43 290.649 140.369 290.796 140.318L290.306 139.577C290.242 139.454 290.242 139.267 290.364 139.209C290.487 139.151 290.674 139.145 290.738 139.267L291.293 140.073C291.603 139.944 291.938 139.764 292.215 139.641L291.661 138.835C291.603 138.712 291.603 138.525 291.725 138.467C291.848 138.409 292.035 138.403 292.093 138.525L292.738 139.39C293.924 138.851 295.138 138.377 296.376 137.971L298.407 122.375C300.194 110.719 303.342 96.2907 303.342 96.1101C303.343 96.0462 303.326 95.9833 303.292 95.9286C303.259 95.8738 303.212 95.8295 303.155 95.8005C302.723 95.678 300.194 94.1945 299.207 93.7043C299.142 93.6758 299.068 93.6726 299 93.6952C298.932 93.7178 298.875 93.7647 298.84 93.8268C298.813 93.8926 298.81 93.9659 298.833 94.0334C298.855 94.1009 298.901 94.1581 298.962 94.1945C299.272 94.3815 301.865 95.8586 302.787 96.2327C302.419 98.0838 299.562 111.216 297.917 122.065C295.321 120.412 293.044 118.303 291.196 115.841C285.424 107.727 290.642 89.7569 291.932 85.6289C292.26 84.1287 292.778 82.6765 293.473 81.3074C290.313 81.3074 289.945 81.5396 289.777 81.3719C286.78 79.6163 283.661 78.0773 280.444 76.7666C280.322 76.7085 280.264 76.644 280.264 76.5215C280.264 76.3989 279.709 70.1102 279.277 68.3816C279.206 68.3816 277.955 68.8331 277.342 68.4461C277.25 68.3486 277.185 68.229 277.154 68.099C277.122 67.969 277.125 67.833 277.161 67.7043C276.245 67.4721 276.007 66.7884 276.11 65.8532C275.756 65.6598 275.475 65.3563 275.31 64.9889C275.248 64.7791 275.238 64.5572 275.28 64.3426C275.323 64.128 275.417 63.9269 275.555 63.7569C275.246 63.944 275 63.8214 274.942 63.5699C274.704 63.0152 274.949 62.3379 275.755 61.3511ZM296.472 138.674C295.486 138.977 294.254 139.473 292.957 140.028L293.325 140.518C293.389 140.647 293.389 140.828 293.267 140.892C293.2 140.938 293.118 140.957 293.038 140.945C292.958 140.933 292.885 140.891 292.835 140.828L292.403 140.273C292.093 140.396 291.758 140.583 291.48 140.705L291.848 141.26C291.906 141.383 291.906 141.57 291.783 141.628C291.661 141.686 291.461 141.679 291.351 141.57L290.925 140.925C289.536 141.536 288.211 142.286 286.972 143.163C289.126 143.408 301.342 143.698 302.084 143.453C302.329 143.273 302.819 141.976 303.129 140.557C300.767 140.651 298.436 139.991 296.472 138.674ZM291.725 57.9003C291.906 57.9584 292.035 58.0229 292.215 58.0874C296.567 56.6932 301.053 55.7614 305.599 55.3074C305.53 55.1161 305.446 54.9306 305.348 54.7527C300.653 54.9626 296.036 56.0293 291.725 57.9003ZM310.159 49.3154C310.128 49.2699 310.111 49.2159 310.111 49.1606C310.111 49.1052 310.128 49.0512 310.159 49.0058C311.028 47.0106 311.347 44.819 311.082 42.659C311.082 42.659 314.307 41.4915 313.017 39.5759C311.894 37.9763 310.114 39.9435 310.114 39.9435C310.114 39.9435 305.186 37.9118 303.4 32.8485C303.4 32.8485 298.343 36.7185 293.841 35.6865C294.209 38.5826 295.241 44.9423 297.414 48.5091C298.885 50.9214 302.2 52.3469 305.741 50.6634C305.806 50.6356 305.88 50.6339 305.946 50.6585C306.013 50.6831 306.067 50.7323 306.099 50.7958C306.13 50.8594 306.136 50.9326 306.115 51.0003C306.094 51.068 306.048 51.1252 305.986 51.1601C305.554 51.3471 305.122 51.4697 304.754 51.5922C304.999 52.1469 305.399 53.3208 305.799 54.1722C306.478 54.1365 307.158 54.1365 307.837 54.1722C307.911 54.1808 307.978 54.2182 308.024 54.2763C308.07 54.3343 308.091 54.4083 308.082 54.4818C308.074 54.5554 308.036 54.6225 307.978 54.6685C307.92 54.7145 307.846 54.7355 307.773 54.7269C307.178 54.6899 306.581 54.6899 305.986 54.7269C306.058 54.9084 306.121 55.0936 306.173 55.2816C307.528 55.2236 308.882 55.2816 310.114 55.2816C310.179 55.2874 310.24 55.3158 310.286 55.3617C310.332 55.4077 310.36 55.4684 310.366 55.5332V55.7783C311.843 55.4687 312.21 53.8433 312.301 53.495L310.159 49.3154ZM307.579 73.1159C308.532 73.9499 309.396 74.8793 310.159 75.8894C310.404 75.8894 310.837 75.8894 311.024 75.6443C311.129 75.4938 311.195 75.3196 311.217 75.1373C311.238 74.9549 311.214 74.7701 311.146 74.5994C310.094 72.9458 308.788 71.4679 307.276 70.2198C306.347 69.7232 306.167 69.9102 306.167 69.9102C306.167 69.9102 305.78 70.4133 307.573 73.1288L307.579 73.1159ZM307.205 73.548C306.56 73.1804 305.728 72.903 305.541 72.9933C305.541 73.0578 305.541 73.361 306.186 74.2833C307.56 76.1796 309.269 77.1794 309.701 76.9923C309.766 76.9343 309.824 76.7472 309.701 76.257C308.971 75.2674 308.131 74.363 307.199 73.5609L307.205 73.548ZM307.637 69.7877C309.18 71.0256 310.491 72.5282 311.507 74.2253C311.805 74.1549 312.068 73.9812 312.249 73.7351C312.334 73.5359 312.367 73.3187 312.345 73.1034C312.324 72.8882 312.249 72.6817 312.127 72.5031C310.916 70.7992 309.485 69.2635 307.87 67.9365C307.548 67.699 307.16 67.5702 306.76 67.5689C306.709 67.6398 306.457 67.9494 307.631 69.8006L307.637 69.7877ZM308.282 67.6269C309.782 68.9229 311.146 70.3688 312.352 71.942C312.451 71.8792 312.535 71.7955 312.597 71.6969C312.785 71.3873 312.649 70.839 312.294 70.1553C311.204 68.0784 308.102 65.4726 307.547 65.5952C307.386 65.8532 307.818 66.9045 308.308 67.6398L308.282 67.6269ZM330.445 65.9757C328.09 61.0479 324.407 56.5394 321.937 54.6302C317.196 50.9795 313.43 53.2112 312.81 53.6433C312.688 54.14 312.256 56.0492 310.346 56.3588V66.9045C311.319 67.7725 312.132 68.8053 312.746 69.9554C312.98 70.3729 313.127 70.8338 313.178 71.3099C316.139 71.8646 319.718 72.3612 322.124 72.5999C321.195 69.0266 317.37 63.8472 317.37 63.7827C317.37 63.7182 317.312 63.4731 317.435 63.4151C317.558 63.357 317.745 63.3506 317.803 63.4731C317.99 63.7247 321.873 68.9621 322.737 72.6644C324.027 72.7869 324.898 72.9095 324.898 72.9095C324.971 72.9192 325.037 72.9569 325.083 73.0147C325.129 73.0724 325.15 73.1457 325.143 73.2191C325.138 73.2826 325.111 73.3424 325.066 73.3874C325.021 73.4324 324.961 73.4597 324.898 73.4642C324.833 73.4642 318.235 72.7869 313.242 71.8581C313.215 71.9856 313.154 72.1038 313.067 72.201C312.98 72.2982 312.869 72.3712 312.746 72.4128C313.391 74.3865 312.101 74.6381 311.765 74.6961C312.133 76.3022 310.714 76.3602 310.404 76.4247C310.478 76.7178 310.434 77.0278 310.282 77.289C313.365 79.998 320.518 83.6423 325.943 82.9586C333.715 81.9524 333.979 73.4448 330.445 65.9757ZM316.564 143.543C316.557 143.644 316.57 143.744 316.602 143.839C316.634 143.935 316.685 144.023 316.751 144.098C317.165 144.323 317.647 144.39 318.106 144.285H360.166C361.521 144.285 361.579 144.221 361.579 142.615C361.579 141.789 361.295 141.505 360.411 141.505H318.609C317.96 141.432 317.307 141.585 316.758 141.937C316.526 142.247 316.564 142.666 316.564 143.543ZM318.351 122.762C317.276 124.894 315.997 126.918 314.532 128.805C314.468 129.669 314.468 130.74 314.41 131.83L315.397 131.398C315.462 131.37 315.536 131.366 315.604 131.389C315.672 131.412 315.729 131.458 315.764 131.521C315.791 131.586 315.794 131.66 315.771 131.727C315.749 131.795 315.703 131.852 315.642 131.888L314.41 132.385V133.675L315.577 133.185C315.644 133.157 315.718 133.155 315.787 133.177C315.856 133.199 315.914 133.246 315.951 133.307C315.979 133.374 315.982 133.448 315.958 133.516C315.934 133.584 315.886 133.641 315.822 133.675L314.468 134.23C314.435 135.522 314.497 136.816 314.655 138.1C315.562 137.18 316.369 136.166 317.061 135.075C317.46 131.273 319.083 127.703 321.686 124.903C320.614 124.131 319.503 123.417 318.357 122.762H318.351ZM332.973 109.139C335.992 110.558 336.733 111.848 336.798 112.958C336.856 113.944 336.308 114.944 335.069 115.918C332.702 117.782 324.833 120.956 320.518 127.206C317.856 131.329 316.824 136.295 317.622 141.138C318.099 141.041 315.584 141.073 360.966 141.073C360.966 141.015 362.462 133.539 358.07 127.206C353.678 120.872 345.544 117.621 343.519 115.918C342.306 114.905 341.732 113.944 341.79 112.958C341.855 111.848 343.022 110.429 345.551 109.197C347.711 108.152 351.755 106.095 354.922 102.231C358.792 97.5227 360.171 91.6252 359.057 84.5388C358.992 84.5388 321.563 84.9065 319.596 84.9065C316.88 101.367 328.529 107.049 332.973 109.139ZM358.805 83.9841C359.007 83.9935 359.205 83.9267 359.36 83.7971C359.618 83.5391 359.457 82.3716 359.424 82.2555C359.341 82.0104 359.173 81.9459 358.779 81.9459H330.109C326.594 84.6614 320.802 83.3004 318.028 82.3136C318.203 83.3843 317.899 84.3518 318.951 84.3518L358.805 83.9841ZM292.59 84.842C301.672 83.8615 310.823 85.9212 318.609 90.6986C318.502 88.7411 318.604 86.7779 318.912 84.842C318.75 84.8552 318.586 84.835 318.432 84.7826C318.277 84.7303 318.135 84.6468 318.014 84.5374C317.894 84.428 317.796 84.295 317.729 84.1466C317.661 83.9982 317.625 83.8375 317.622 83.6745C317.57 83.1134 317.499 82.3845 317.499 82.0685C315 81.1449 312.651 79.8583 310.527 78.2501V82.6877C310.527 82.8683 310.346 82.9328 310.159 82.9328C304.786 82.1453 299.372 81.6715 293.944 81.5138C293.378 82.573 292.924 83.6885 292.59 84.842ZM290.493 81.0236C298.878 80.5914 309.605 82.3136 309.972 82.3781V77.8179C309.85 77.7534 309.792 77.6309 309.669 77.5664C308.553 77.8179 306.87 76.1667 305.799 74.6703C305.045 73.6319 303.954 71.5872 306.663 72.7353C305.373 70.5165 304.877 68.7234 306.786 69.4652C305.986 68.2913 305.554 66.324 307.431 67.1819C306.941 66.4466 306.077 63.2409 309.901 66.4466V55.8621C304.967 55.3074 296.518 57.4037 292.944 58.5195C294.918 59.4999 296.369 63.2667 296.814 67.3947C297.111 70.0392 298.285 77.031 300.517 78.1856C300.578 78.222 300.624 78.2791 300.646 78.3466C300.669 78.4141 300.666 78.4874 300.639 78.5532C300.575 78.6177 300.517 78.7403 300.394 78.6758C298.975 78.1856 298.214 76.3409 297.369 73.4384C296.82 71.4799 296.43 69.4804 296.202 67.4592C295.776 63.4538 294.228 59.5644 292.19 58.7001C290.59 59.1968 289.294 59.6289 288.494 59.9321L290.493 81.0236ZM280.689 76.5086C283.229 77.5418 285.7 78.7353 288.087 80.0819L286.152 59.3064C283.998 57.7004 279.251 54.4947 276.168 52.463C276.781 54.398 277.645 58.6292 277.896 59.7386C278.322 59.616 279.128 59.3645 279.374 59.7966C279.432 59.9192 279.561 60.1062 278.729 61.2156C279.47 60.906 280.335 60.7254 280.58 61.2156C280.767 61.5897 280.335 62.325 279.161 63.4989C280.27 63.1248 281.431 62.8539 281.689 63.4344C281.87 63.8085 281.567 64.5438 279.593 66.0854C280.58 65.9048 281.567 65.9048 281.754 66.4595C281.789 66.6064 281.766 66.7615 281.689 66.8916C281.379 67.4463 280.335 68.001 279.535 68.3687C280.07 69.9876 280.567 75.4701 280.689 76.5215V76.5086ZM278.716 68.1816C279.58 67.9365 281.367 66.9497 281.367 66.6401C281.302 66.4595 280.934 66.1499 278.651 66.9497C278.161 67.2593 277.542 67.6914 277.542 67.8785C277.419 68.6267 278.716 68.1945 278.716 68.1945V68.1816ZM277.232 67.4463C277.615 67.0624 278.03 66.7108 278.471 66.395C280.096 65.2598 281.425 63.9891 281.425 63.686C281.367 63.4989 280.012 63.744 278.342 64.4858C277.742 64.9704 277.167 65.4849 276.619 66.0273C276 67.2077 277.052 67.4592 277.219 67.4592L277.232 67.4463ZM276.187 65.5952C276.432 65.3501 277.916 64.0536 277.916 64.0536C279.025 63.0668 280.193 61.7703 280.257 61.4736C280.135 61.4156 279.393 61.4736 278.096 62.1573C277.375 62.7544 276.696 63.401 276.065 64.0923C275.136 65.1114 276 65.5436 276.187 65.6081V65.5952ZM275.755 63.557C276.368 62.8681 277.028 62.2216 277.729 61.622C278.166 61.1364 278.539 60.5966 278.838 60.0159C278.303 60.0709 277.785 60.237 277.317 60.5036C276.85 60.7701 276.443 61.1313 276.123 61.5639C274.923 63.1829 275.633 63.5699 275.755 63.5699V63.557Z" fill="#414141"/>
</g>
<rect x="0.744521" y="0.744521" width="373.511" height="143.511" rx="10.2555" stroke="url(#paint1_linear_836_3210)" stroke-opacity="0.08" stroke-width="0.510959"/>
<defs>
<linearGradient id="paint0_linear_836_3210" x1="42.6629" y1="15.8085" x2="213.928" y2="76.5442" gradientUnits="userSpaceOnUse">
<stop stop-color="#003F88"/>
<stop offset="0.64989" stop-color="#03BCFF"/>
<stop offset="1" stop-color="#0076FF"/>
</linearGradient>
<linearGradient id="paint1_linear_836_3210" x1="47.195" y1="20.571" x2="387.35" y2="83.6903" gradientUnits="userSpaceOnUse">
<stop stop-color="#003F88"/>
<stop offset="0.64989" stop-color="#02D4FF"/>
<stop offset="1" stop-color="#0076FF"/>
</linearGradient>
<clipPath id="clip0_836_3210">
<rect x="1" y="1" width="373" height="143" rx="10" fill="white"/>
</clipPath>
</defs>
</svg>
