<svg width="371" height="89" viewBox="0 0 371 89" fill="none" xmlns="http://www.w3.org/2000/svg">
<g clip-path="url(#clip0_677_6063)">
<rect x="1" y="1" width="369" height="87" rx="10" fill="#E3F0FF"/>
<path d="M337.084 95C256.33 92.8622 237.805 89.9437 233.922 85.0076C230.513 79.8432 230.513 79.8432 270.026 51.175C287.936 38.1921 316.262 17.6307 325.471 8.8393C302.309 5.10436 278.976 2.55099 255.561 1.18883C254.631 1.38862 253.664 1.28473 252.796 0.892062C251.928 0.499392 251.206 -0.161891 250.731 -0.997006C250.318 -1.71037 250.1 -2.52271 250.1 -3.35016C250.099 -4.1776 250.317 -4.99015 250.729 -5.70386C251.142 -6.41756 251.735 -7.00657 252.447 -7.41003C253.159 -7.81349 253.964 -8.01678 254.779 -7.99892C255.963 -7.99892 334.894 -4.51598 336.953 5.8848C337.699 11.8178 330.502 18.5795 275.258 58.6453C264.604 66.3318 253.075 74.7389 246.458 79.9033C267.706 82.9538 327.507 85.1517 337.344 85.8242C338.488 85.939 339.546 86.4879 340.308 87.3609C341.069 88.2339 341.478 89.3666 341.452 90.5322C341.411 91.6979 340.939 92.8052 340.129 93.6332C339.32 94.4613 338.232 94.9494 337.084 95Z" fill="#C8E2FF"/>
<path d="M32.1631 40.1973H19.5771V22.748H24.0771V36.8223H32.1631V40.1973ZM47.6084 34.3965H37.9521C38.0146 35.4277 38.4053 36.2168 39.124 36.7637C39.8506 37.3105 40.917 37.584 42.3232 37.584C43.2139 37.584 44.0771 37.4238 44.9131 37.1035C45.749 36.7832 46.4092 36.4395 46.8936 36.0723H47.3623V39.459C46.4092 39.8418 45.5107 40.1191 44.667 40.291C43.8232 40.4629 42.8896 40.5488 41.8662 40.5488C39.2256 40.5488 37.2021 39.9551 35.7959 38.7676C34.3896 37.5801 33.6865 35.8887 33.6865 33.6934C33.6865 31.5215 34.3506 29.8027 35.6787 28.5371C37.0146 27.2637 38.8428 26.627 41.1631 26.627C43.3037 26.627 44.9131 27.1699 45.9912 28.2559C47.0693 29.334 47.6084 30.8887 47.6084 32.9199V34.3965ZM43.4131 31.9238C43.3896 31.041 43.1709 30.377 42.7568 29.9316C42.3428 29.4863 41.6982 29.2637 40.8232 29.2637C40.0107 29.2637 39.3428 29.4746 38.8193 29.8965C38.2959 30.3184 38.0029 30.9941 37.9404 31.9238H43.4131ZM58.999 40.0801C58.5459 40.1973 58.0654 40.2871 57.5576 40.3496C57.0498 40.4199 56.4287 40.4551 55.6943 40.4551C54.0537 40.4551 52.8311 40.123 52.0264 39.459C51.2295 38.7949 50.8311 37.6582 50.8311 36.0488V29.8965H49.0967V27.0371H50.8311V23.2754H55.0498V27.0371H58.999V29.8965H55.0498V34.5605C55.0498 35.0215 55.0537 35.4238 55.0615 35.7676C55.0693 36.1113 55.1318 36.4199 55.249 36.6934C55.3584 36.9668 55.5498 37.1855 55.8232 37.3496C56.1045 37.5059 56.5107 37.584 57.042 37.584C57.2607 37.584 57.5459 37.5371 57.8975 37.4434C58.2568 37.3496 58.5068 37.2637 58.6475 37.1855H58.999V40.0801ZM67.1318 21.9629L63.7217 28.8652H60.9795L62.8193 21.9629H67.1318ZM80.9365 36.0254C80.9365 37.3848 80.3271 38.4824 79.1084 39.3184C77.8896 40.1465 76.2217 40.5605 74.1045 40.5605C72.9326 40.5605 71.8701 40.4512 70.917 40.2324C69.9639 40.0137 69.1982 39.7715 68.6201 39.5059V36.0371H69.0068C69.2178 36.1855 69.46 36.3496 69.7334 36.5293C70.0146 36.7012 70.4092 36.8887 70.917 37.0918C71.3545 37.2715 71.8506 37.4277 72.4053 37.5605C72.96 37.6855 73.5537 37.748 74.1865 37.748C75.0146 37.748 75.6279 37.6582 76.0264 37.4785C76.4248 37.291 76.624 37.0176 76.624 36.6582C76.624 36.3379 76.5068 36.1074 76.2725 35.9668C76.0381 35.8184 75.5928 35.6777 74.9365 35.5449C74.624 35.4746 74.1982 35.4004 73.6592 35.3223C73.1279 35.2363 72.6436 35.1348 72.2061 35.0176C71.0107 34.7051 70.124 34.2207 69.5459 33.5645C68.9678 32.9004 68.6787 32.0762 68.6787 31.0918C68.6787 29.8262 69.2764 28.7754 70.4717 27.9395C71.6748 27.0957 73.3154 26.6738 75.3936 26.6738C76.3779 26.6738 77.3193 26.7754 78.2178 26.9785C79.124 27.1738 79.8311 27.3848 80.3389 27.6113V30.9395H79.9756C79.3506 30.5098 78.6357 30.1621 77.8311 29.8965C77.0342 29.623 76.2256 29.4863 75.4053 29.4863C74.7256 29.4863 74.1514 29.5801 73.6826 29.7676C73.2217 29.9551 72.9912 30.2207 72.9912 30.5645C72.9912 30.877 73.0967 31.1152 73.3076 31.2793C73.5186 31.4434 74.0146 31.6074 74.7959 31.7715C75.2256 31.8574 75.6865 31.9434 76.1787 32.0293C76.6787 32.1074 77.1787 32.209 77.6787 32.334C78.7881 32.623 79.6084 33.0801 80.1396 33.7051C80.6709 34.3223 80.9365 35.0957 80.9365 36.0254ZM106.155 34.7129C106.155 36.4316 105.425 37.8301 103.964 38.9082C102.511 39.9785 100.534 40.5137 98.0342 40.5137C96.5889 40.5137 95.3271 40.3887 94.249 40.1387C93.1787 39.8809 92.1748 39.5566 91.2373 39.166V34.9824H91.7295C92.6592 35.7246 93.6982 36.2949 94.8467 36.6934C96.0029 37.0918 97.1123 37.291 98.1748 37.291C98.4482 37.291 98.8076 37.2676 99.2529 37.2207C99.6982 37.1738 100.062 37.0957 100.343 36.9863C100.687 36.8457 100.968 36.6699 101.187 36.459C101.413 36.248 101.526 35.9355 101.526 35.5215C101.526 35.1387 101.362 34.8105 101.034 34.5371C100.714 34.2559 100.241 34.041 99.6162 33.8926C98.96 33.7363 98.2646 33.5918 97.5303 33.459C96.8037 33.3184 96.1201 33.1426 95.4795 32.9316C94.0107 32.4551 92.9521 31.8105 92.3037 30.998C91.6631 30.1777 91.3428 29.1621 91.3428 27.9512C91.3428 26.3262 92.0693 25.002 93.5225 23.9785C94.9834 22.9473 96.8584 22.4316 99.1475 22.4316C100.296 22.4316 101.429 22.5449 102.546 22.7715C103.671 22.9902 104.644 23.2676 105.464 23.6035V27.623H104.983C104.28 27.0605 103.417 26.5918 102.394 26.2168C101.378 25.834 100.339 25.6426 99.2764 25.6426C98.9014 25.6426 98.5264 25.6699 98.1514 25.7246C97.7842 25.7715 97.4287 25.8652 97.085 26.0059C96.7803 26.123 96.5186 26.3027 96.2998 26.5449C96.0811 26.7793 95.9717 27.0488 95.9717 27.3535C95.9717 27.8145 96.1475 28.1699 96.499 28.4199C96.8506 28.6621 97.5146 28.8848 98.4912 29.0879C99.1318 29.2207 99.7451 29.3496 100.331 29.4746C100.925 29.5996 101.562 29.7715 102.241 29.9902C103.577 30.4277 104.562 31.0254 105.194 31.7832C105.835 32.5332 106.155 33.5098 106.155 34.7129ZM117.429 40.0801C116.976 40.1973 116.495 40.2871 115.987 40.3496C115.479 40.4199 114.858 40.4551 114.124 40.4551C112.483 40.4551 111.261 40.123 110.456 39.459C109.659 38.7949 109.261 37.6582 109.261 36.0488V29.8965H107.526V27.0371H109.261V23.2754H113.479V27.0371H117.429V29.8965H113.479V34.5605C113.479 35.0215 113.483 35.4238 113.491 35.7676C113.499 36.1113 113.562 36.4199 113.679 36.6934C113.788 36.9668 113.979 37.1855 114.253 37.3496C114.534 37.5059 114.94 37.584 115.472 37.584C115.69 37.584 115.976 37.5371 116.327 37.4434C116.687 37.3496 116.937 37.2637 117.077 37.1855H117.429V40.0801ZM127.929 36.7637V34.0215C127.358 34.0684 126.741 34.1348 126.077 34.2207C125.413 34.2988 124.909 34.3926 124.565 34.502C124.144 34.6348 123.819 34.8301 123.593 35.0879C123.374 35.3379 123.265 35.6699 123.265 36.084C123.265 36.3574 123.288 36.5801 123.335 36.752C123.382 36.9238 123.499 37.0879 123.687 37.2441C123.866 37.4004 124.081 37.5176 124.331 37.5957C124.581 37.666 124.972 37.7012 125.503 37.7012C125.925 37.7012 126.351 37.6152 126.78 37.4434C127.218 37.2715 127.601 37.0449 127.929 36.7637ZM127.929 38.8027C127.702 38.9746 127.421 39.1816 127.085 39.4238C126.749 39.666 126.433 39.8574 126.136 39.998C125.722 40.1855 125.292 40.3223 124.847 40.4082C124.401 40.502 123.913 40.5488 123.382 40.5488C122.132 40.5488 121.085 40.1621 120.241 39.3887C119.397 38.6152 118.976 37.627 118.976 36.4238C118.976 35.4629 119.19 34.6777 119.62 34.0684C120.05 33.459 120.659 32.9785 121.448 32.627C122.229 32.2754 123.198 32.0254 124.354 31.877C125.511 31.7285 126.71 31.6191 127.952 31.5488V31.4785C127.952 30.752 127.655 30.252 127.062 29.9785C126.468 29.6973 125.593 29.5566 124.437 29.5566C123.741 29.5566 122.999 29.6816 122.21 29.9316C121.421 30.1738 120.854 30.3613 120.511 30.4941H120.124V27.3184C120.569 27.2012 121.292 27.0645 122.292 26.9082C123.3 26.7441 124.308 26.6621 125.315 26.6621C127.714 26.6621 129.444 27.0332 130.507 27.7754C131.577 28.5098 132.112 29.666 132.112 31.2441V40.1973H127.929V38.8027ZM145.53 31.0566H145.155C144.976 30.9941 144.687 30.9473 144.288 30.916C143.89 30.8848 143.558 30.8691 143.292 30.8691C142.69 30.8691 142.159 30.9082 141.698 30.9863C141.237 31.0645 140.741 31.1973 140.21 31.3848V40.1973H135.991V27.0371H140.21V28.9707C141.14 28.1738 141.948 27.6465 142.636 27.3887C143.323 27.123 143.956 26.9902 144.534 26.9902C144.683 26.9902 144.851 26.9941 145.038 27.002C145.226 27.0098 145.39 27.0215 145.53 27.0371V31.0566ZM156.335 40.0801C155.882 40.1973 155.401 40.2871 154.894 40.3496C154.386 40.4199 153.765 40.4551 153.03 40.4551C151.39 40.4551 150.167 40.123 149.362 39.459C148.565 38.7949 148.167 37.6582 148.167 36.0488V29.8965H146.433V27.0371H148.167V23.2754H152.386V27.0371H156.335V29.8965H152.386V34.5605C152.386 35.0215 152.39 35.4238 152.397 35.7676C152.405 36.1113 152.468 36.4199 152.585 36.6934C152.694 36.9668 152.886 37.1855 153.159 37.3496C153.44 37.5059 153.847 37.584 154.378 37.584C154.597 37.584 154.882 37.5371 155.233 37.4434C155.593 37.3496 155.843 37.2637 155.983 37.1855H156.335V40.0801Z" fill="url(#paint0_linear_677_6063)"/>
<path d="M25.4014 55.4727L22.2256 64.1973H20.6787L17.5029 55.4727H18.7451L21.4814 63.1484L24.2178 55.4727H25.4014ZM27.3413 56.5566H26.0991V55.4141H27.3413V56.5566ZM27.271 64.1973H26.1694V57.6523H27.271V64.1973ZM34.4492 61.0391H29.6269C29.6269 61.4414 29.6875 61.793 29.8086 62.0938C29.9296 62.3906 30.0957 62.6348 30.3066 62.8262C30.5097 63.0137 30.75 63.1543 31.0273 63.248C31.3086 63.3418 31.6171 63.3887 31.9531 63.3887C32.3984 63.3887 32.8457 63.3008 33.2949 63.125C33.748 62.9453 34.0703 62.7695 34.2617 62.5977H34.3203V63.7988C33.9492 63.9551 33.5703 64.0859 33.1836 64.1914C32.7968 64.2969 32.3906 64.3496 31.9648 64.3496C30.8789 64.3496 30.0312 64.0566 29.4218 63.4707C28.8125 62.8809 28.5078 62.0449 28.5078 60.9629C28.5078 59.8926 28.7988 59.043 29.3808 58.4141C29.9668 57.7852 30.7363 57.4707 31.6894 57.4707C32.5722 57.4707 33.2519 57.7285 33.7285 58.2441C34.2089 58.7598 34.4492 59.4922 34.4492 60.4414V61.0391ZM33.3769 60.1953C33.373 59.6172 33.2265 59.1699 32.9375 58.8535C32.6523 58.5371 32.2168 58.3789 31.6308 58.3789C31.041 58.3789 30.5703 58.5527 30.2187 58.9004C29.8711 59.248 29.6738 59.6797 29.6269 60.1953H33.3769ZM43.8715 57.6523L42.1664 64.1973H41.1469L39.4653 59.1523L37.7954 64.1973H36.7817L35.059 57.6523H36.2075L37.4086 62.7207L39.0434 57.6523H39.9516L41.6274 62.7207L42.7641 57.6523H43.8715ZM54.9818 55.4727L51.9115 60.3711V64.1973H50.7514V60.4941L47.6693 55.4727H48.9525L51.3373 59.375L53.7455 55.4727H54.9818ZM60.4374 60.9277C60.4374 61.9941 60.1639 62.8359 59.6171 63.4531C59.0702 64.0703 58.3378 64.3789 57.4198 64.3789C56.494 64.3789 55.7577 64.0703 55.2108 63.4531C54.6679 62.8359 54.3964 61.9941 54.3964 60.9277C54.3964 59.8613 54.6679 59.0195 55.2108 58.4023C55.7577 57.7812 56.494 57.4707 57.4198 57.4707C58.3378 57.4707 59.0702 57.7812 59.6171 58.4023C60.1639 59.0195 60.4374 59.8613 60.4374 60.9277ZM59.3007 60.9277C59.3007 60.0801 59.1346 59.4512 58.8026 59.041C58.4706 58.627 58.0096 58.4199 57.4198 58.4199C56.8221 58.4199 56.3573 58.627 56.0253 59.041C55.6971 59.4512 55.5331 60.0801 55.5331 60.9277C55.5331 61.748 55.6991 62.3711 56.0311 62.7969C56.3632 63.2188 56.8261 63.4297 57.4198 63.4297C58.0057 63.4297 58.4647 63.2207 58.7968 62.8027C59.1327 62.3809 59.3007 61.7559 59.3007 60.9277ZM67.0941 64.1973H65.9925V63.4707C65.6214 63.7637 65.266 63.9883 64.9261 64.1445C64.5863 64.3008 64.2113 64.3789 63.8011 64.3789C63.1136 64.3789 62.5785 64.1699 62.1957 63.752C61.8129 63.3301 61.6214 62.7129 61.6214 61.9004V57.6523H62.723V61.3789C62.723 61.7109 62.7386 61.9961 62.7699 62.2344C62.8011 62.4688 62.8675 62.6699 62.9691 62.8379C63.0746 63.0098 63.2113 63.1348 63.3793 63.2129C63.5472 63.291 63.7914 63.3301 64.1117 63.3301C64.3968 63.3301 64.7074 63.2559 65.0433 63.1074C65.3832 62.959 65.6996 62.7695 65.9925 62.5391V57.6523H67.0941V64.1973ZM72.8661 58.8535H72.8075C72.6434 58.8145 72.4832 58.7871 72.327 58.7715C72.1746 58.752 71.993 58.7422 71.7821 58.7422C71.4422 58.7422 71.1141 58.8184 70.7977 58.9707C70.4813 59.1191 70.1766 59.3125 69.8836 59.5508V64.1973H68.7821V57.6523H69.8836V58.6191C70.3211 58.2676 70.7059 58.0195 71.0379 57.875C71.3739 57.7266 71.7157 57.6523 72.0633 57.6523C72.2547 57.6523 72.3934 57.6582 72.4793 57.6699C72.5653 57.6777 72.6942 57.6953 72.8661 57.7227V58.8535ZM82.9568 58.1094C82.9568 58.4961 82.8885 58.8555 82.7518 59.1875C82.6189 59.5156 82.4314 59.8008 82.1893 60.043C81.8885 60.3438 81.533 60.5703 81.1229 60.7227C80.7127 60.8711 80.1951 60.9453 79.5701 60.9453H78.41V64.1973H77.2498V55.4727H79.617C80.1404 55.4727 80.5838 55.5176 80.9471 55.6074C81.3104 55.6934 81.6326 55.8301 81.9139 56.0176C82.2459 56.2402 82.5018 56.5176 82.6814 56.8496C82.865 57.1816 82.9568 57.6016 82.9568 58.1094ZM81.7498 58.1387C81.7498 57.8379 81.6971 57.5762 81.5916 57.3535C81.4861 57.1309 81.326 56.9492 81.1111 56.8086C80.9236 56.6875 80.7088 56.6016 80.4666 56.5508C80.2283 56.4961 79.9256 56.4688 79.5584 56.4688H78.41V59.9551H79.3885C79.8572 59.9551 80.2381 59.9141 80.5311 59.832C80.824 59.7461 81.0623 59.6113 81.2459 59.4277C81.4295 59.2402 81.5584 59.043 81.6326 58.8359C81.7107 58.6289 81.7498 58.3965 81.7498 58.1387ZM88.7171 64.1973H87.6214V63.5C87.5237 63.5664 87.3909 63.6602 87.2229 63.7812C87.0589 63.8984 86.8987 63.9922 86.7425 64.0625C86.5589 64.1523 86.3479 64.2266 86.1096 64.2852C85.8714 64.3477 85.5921 64.3789 85.2718 64.3789C84.6819 64.3789 84.1819 64.1836 83.7718 63.793C83.3616 63.4023 83.1565 62.9043 83.1565 62.2988C83.1565 61.8027 83.262 61.4023 83.4729 61.0977C83.6878 60.7891 83.9925 60.5469 84.387 60.3711C84.7854 60.1953 85.2639 60.0762 85.8225 60.0137C86.3811 59.9512 86.9807 59.9043 87.6214 59.873V59.7031C87.6214 59.4531 87.5764 59.2461 87.4866 59.082C87.4007 58.918 87.2757 58.7891 87.1116 58.6953C86.9554 58.6055 86.7679 58.5449 86.5491 58.5137C86.3304 58.4824 86.1018 58.4668 85.8636 58.4668C85.5745 58.4668 85.2522 58.5059 84.8968 58.584C84.5413 58.6582 84.1741 58.7676 83.7952 58.9121H83.7366V57.793C83.9514 57.7344 84.262 57.6699 84.6682 57.5996C85.0745 57.5293 85.4749 57.4941 85.8694 57.4941C86.3304 57.4941 86.7307 57.5332 87.0706 57.6113C87.4143 57.6855 87.7112 57.8145 87.9612 57.998C88.2073 58.1777 88.3948 58.4102 88.5237 58.6953C88.6526 58.9805 88.7171 59.334 88.7171 59.7559V64.1973ZM87.6214 62.5859V60.7637C87.2854 60.7832 86.8889 60.8125 86.4319 60.8516C85.9788 60.8906 85.6194 60.9473 85.3538 61.0215C85.0374 61.1113 84.7815 61.252 84.5862 61.4434C84.3909 61.6309 84.2932 61.8906 84.2932 62.2227C84.2932 62.5977 84.4065 62.8809 84.6331 63.0723C84.8596 63.2598 85.2054 63.3535 85.6702 63.3535C86.0569 63.3535 86.4104 63.2793 86.7307 63.1309C87.0511 62.9785 87.3479 62.7969 87.6214 62.5859ZM95.9246 57.6523L92.1043 66.6113H90.9265L92.1453 63.8809L89.5378 57.6523H90.7332L92.7429 62.5039L94.7703 57.6523H95.9246ZM101.562 62.3105C101.562 62.9082 101.314 63.3984 100.818 63.7812C100.325 64.1641 99.6516 64.3555 98.7961 64.3555C98.3118 64.3555 97.8664 64.2988 97.4602 64.1855C97.0579 64.0684 96.72 63.9414 96.4465 63.8047V62.5684H96.5051C96.8528 62.8301 97.2395 63.0391 97.6653 63.1953C98.0911 63.3477 98.4993 63.4238 98.8899 63.4238C99.3743 63.4238 99.7532 63.3457 100.027 63.1895C100.3 63.0332 100.437 62.7871 100.437 62.4512C100.437 62.1934 100.363 61.998 100.214 61.8652C100.066 61.7324 99.7805 61.6191 99.3586 61.5254C99.2024 61.4902 98.9973 61.4492 98.7434 61.4023C98.4934 61.3555 98.2649 61.3047 98.0579 61.25C97.4836 61.0977 97.0754 60.875 96.8332 60.582C96.595 60.2852 96.4758 59.9219 96.4758 59.4922C96.4758 59.2227 96.5305 58.9688 96.6399 58.7305C96.7532 58.4922 96.9231 58.2793 97.1497 58.0918C97.3684 57.9082 97.6457 57.7637 97.9817 57.6582C98.3215 57.5488 98.7004 57.4941 99.1184 57.4941C99.509 57.4941 99.9036 57.543 100.302 57.6406C100.704 57.7344 101.038 57.8496 101.304 57.9863V59.1641H101.245C100.964 58.957 100.622 58.7832 100.22 58.6426C99.8176 58.498 99.4231 58.4258 99.0364 58.4258C98.634 58.4258 98.2942 58.5039 98.0168 58.6602C97.7395 58.8125 97.6008 59.041 97.6008 59.3457C97.6008 59.6152 97.6848 59.8184 97.8528 59.9551C98.0168 60.0918 98.2825 60.2031 98.6497 60.2891C98.8528 60.3359 99.0793 60.3828 99.3293 60.4297C99.5832 60.4766 99.7942 60.5195 99.9622 60.5586C100.474 60.6758 100.868 60.877 101.146 61.1621C101.423 61.4512 101.562 61.834 101.562 62.3105ZM103.777 64.1973H102.676V55.0801H103.777V64.1973ZM106.66 56.5566H105.418V55.4141H106.66V56.5566ZM106.59 64.1973H105.488V57.6523H106.59V64.1973ZM114.049 60.8457C114.049 61.377 113.973 61.8633 113.821 62.3047C113.669 62.7422 113.454 63.1133 113.176 63.418C112.919 63.707 112.614 63.9316 112.262 64.0918C111.915 64.248 111.546 64.3262 111.155 64.3262C110.815 64.3262 110.507 64.2891 110.229 64.2148C109.956 64.1406 109.676 64.0254 109.391 63.8691V66.6113H108.29V57.6523H109.391V58.3379C109.684 58.0918 110.012 57.8867 110.376 57.7227C110.743 57.5547 111.133 57.4707 111.548 57.4707C112.337 57.4707 112.95 57.7695 113.387 58.3672C113.829 58.9609 114.049 59.7871 114.049 60.8457ZM112.913 60.875C112.913 60.0859 112.778 59.4961 112.508 59.1055C112.239 58.7148 111.825 58.5195 111.266 58.5195C110.95 58.5195 110.632 58.5879 110.311 58.7246C109.991 58.8613 109.684 59.041 109.391 59.2637V62.9727C109.704 63.1133 109.971 63.209 110.194 63.2598C110.421 63.3105 110.676 63.3359 110.962 63.3359C111.575 63.3359 112.053 63.1289 112.397 62.7148C112.741 62.3008 112.913 61.6875 112.913 60.875ZM124.111 64.1973H123.015V63.5C122.918 63.5664 122.785 63.6602 122.617 63.7812C122.453 63.8984 122.293 63.9922 122.136 64.0625C121.953 64.1523 121.742 64.2266 121.504 64.2852C121.265 64.3477 120.986 64.3789 120.666 64.3789C120.076 64.3789 119.576 64.1836 119.166 63.793C118.756 63.4023 118.55 62.9043 118.55 62.2988C118.55 61.8027 118.656 61.4023 118.867 61.0977C119.082 60.7891 119.386 60.5469 119.781 60.3711C120.179 60.1953 120.658 60.0762 121.216 60.0137C121.775 59.9512 122.375 59.9043 123.015 59.873V59.7031C123.015 59.4531 122.97 59.2461 122.881 59.082C122.795 58.918 122.67 58.7891 122.506 58.6953C122.349 58.6055 122.162 58.5449 121.943 58.5137C121.724 58.4824 121.496 58.4668 121.257 58.4668C120.968 58.4668 120.646 58.5059 120.291 58.584C119.935 58.6582 119.568 58.7676 119.189 58.9121H119.131V57.793C119.345 57.7344 119.656 57.6699 120.062 57.5996C120.468 57.5293 120.869 57.4941 121.263 57.4941C121.724 57.4941 122.125 57.5332 122.464 57.6113C122.808 57.6855 123.105 57.8145 123.355 57.998C123.601 58.1777 123.789 58.4102 123.918 58.6953C124.047 58.9805 124.111 59.334 124.111 59.7559V64.1973ZM123.015 62.5859V60.7637C122.679 60.7832 122.283 60.8125 121.826 60.8516C121.373 60.8906 121.013 60.9473 120.748 61.0215C120.431 61.1113 120.175 61.252 119.98 61.4434C119.785 61.6309 119.687 61.8906 119.687 62.2227C119.687 62.5977 119.8 62.8809 120.027 63.0723C120.254 63.2598 120.599 63.3535 121.064 63.3535C121.451 63.3535 121.804 63.2793 122.125 63.1309C122.445 62.9785 122.742 62.7969 123.015 62.5859ZM131.225 64.1973H130.123V60.4707C130.123 60.1699 130.106 59.8887 130.07 59.627C130.035 59.3613 129.971 59.1543 129.877 59.0059C129.779 58.8418 129.639 58.7207 129.455 58.6426C129.272 58.5605 129.033 58.5195 128.74 58.5195C128.44 58.5195 128.125 58.5938 127.797 58.7422C127.469 58.8906 127.154 59.0801 126.854 59.3105V64.1973H125.752V57.6523H126.854V58.3789C127.197 58.0938 127.553 57.8711 127.92 57.7109C128.287 57.5508 128.664 57.4707 129.051 57.4707C129.758 57.4707 130.297 57.6836 130.668 58.1094C131.039 58.5352 131.225 59.1484 131.225 59.9492V64.1973ZM138.174 64.1973H137.073V63.5117C136.756 63.7852 136.426 63.998 136.083 64.1504C135.739 64.3027 135.366 64.3789 134.963 64.3789C134.182 64.3789 133.561 64.0781 133.1 63.4766C132.643 62.875 132.415 62.041 132.415 60.9746C132.415 60.4199 132.493 59.9258 132.649 59.4922C132.809 59.0586 133.024 58.6895 133.294 58.3848C133.559 58.0879 133.868 57.8613 134.219 57.7051C134.575 57.5488 134.942 57.4707 135.321 57.4707C135.665 57.4707 135.969 57.5078 136.235 57.582C136.501 57.6523 136.78 57.7637 137.073 57.916V55.0801H138.174V64.1973ZM137.073 62.5859V58.8301C136.776 58.6973 136.51 58.6055 136.276 58.5547C136.042 58.5039 135.786 58.4785 135.508 58.4785C134.891 58.4785 134.411 58.6934 134.067 59.123C133.723 59.5527 133.551 60.1621 133.551 60.9512C133.551 61.7285 133.684 62.3203 133.95 62.7266C134.215 63.1289 134.641 63.3301 135.227 63.3301C135.54 63.3301 135.856 63.2617 136.176 63.125C136.497 62.9844 136.796 62.8047 137.073 62.5859ZM151.06 59.8438C151.06 60.6367 150.886 61.3555 150.539 62C150.195 62.6445 149.736 63.1445 149.162 63.5C148.763 63.7461 148.318 63.9238 147.826 64.0332C147.337 64.1426 146.693 64.1973 145.892 64.1973H143.689V55.4727H145.869C146.72 55.4727 147.396 55.5352 147.896 55.6602C148.4 55.7812 148.826 55.9492 149.173 56.1641C149.767 56.5352 150.23 57.0293 150.562 57.6465C150.894 58.2637 151.06 58.9961 151.06 59.8438ZM149.847 59.8262C149.847 59.1426 149.728 58.5664 149.49 58.0977C149.252 57.6289 148.896 57.2598 148.423 56.9902C148.08 56.7949 147.714 56.6602 147.328 56.5859C146.941 56.5078 146.478 56.4688 145.939 56.4688H144.849V63.2012H145.939C146.498 63.2012 146.984 63.1602 147.398 63.0781C147.816 62.9961 148.199 62.8438 148.546 62.6211C148.98 62.3438 149.304 61.9785 149.519 61.5254C149.738 61.0723 149.847 60.5059 149.847 59.8262ZM157.945 60.9277C157.945 61.9941 157.672 62.8359 157.125 63.4531C156.578 64.0703 155.846 64.3789 154.928 64.3789C154.002 64.3789 153.266 64.0703 152.719 63.4531C152.176 62.8359 151.904 61.9941 151.904 60.9277C151.904 59.8613 152.176 59.0195 152.719 58.4023C153.266 57.7812 154.002 57.4707 154.928 57.4707C155.846 57.4707 156.578 57.7812 157.125 58.4023C157.672 59.0195 157.945 59.8613 157.945 60.9277ZM156.809 60.9277C156.809 60.0801 156.643 59.4512 156.311 59.041C155.979 58.627 155.518 58.4199 154.928 58.4199C154.33 58.4199 153.865 58.627 153.533 59.041C153.205 59.4512 153.041 60.0801 153.041 60.9277C153.041 61.748 153.207 62.3711 153.539 62.7969C153.871 63.2188 154.334 63.4297 154.928 63.4297C155.514 63.4297 155.973 63.2207 156.305 62.8027C156.641 62.3809 156.809 61.7559 156.809 60.9277ZM167.409 57.6523L165.704 64.1973H164.684L163.002 59.1523L161.333 64.1973H160.319L158.596 57.6523H159.745L160.946 62.7207L162.581 57.6523H163.489L165.165 62.7207L166.301 57.6523H167.409ZM173.989 64.1973H172.888V60.4707C172.888 60.1699 172.87 59.8887 172.835 59.627C172.8 59.3613 172.735 59.1543 172.642 59.0059C172.544 58.8418 172.403 58.7207 172.22 58.6426C172.036 58.5605 171.798 58.5195 171.505 58.5195C171.204 58.5195 170.89 58.5938 170.562 58.7422C170.233 58.8906 169.919 59.0801 169.618 59.3105V64.1973H168.517V57.6523H169.618V58.3789C169.962 58.0938 170.317 57.8711 170.685 57.7109C171.052 57.5508 171.429 57.4707 171.815 57.4707C172.522 57.4707 173.062 57.6836 173.433 58.1094C173.804 58.5352 173.989 59.1484 173.989 59.9492V64.1973ZM176.744 64.1973H175.642V55.0801H176.744V64.1973ZM184.021 60.9277C184.021 61.9941 183.748 62.8359 183.201 63.4531C182.654 64.0703 181.922 64.3789 181.004 64.3789C180.078 64.3789 179.342 64.0703 178.795 63.4531C178.252 62.8359 177.98 61.9941 177.98 60.9277C177.98 59.8613 178.252 59.0195 178.795 58.4023C179.342 57.7812 180.078 57.4707 181.004 57.4707C181.922 57.4707 182.654 57.7812 183.201 58.4023C183.748 59.0195 184.021 59.8613 184.021 60.9277ZM182.885 60.9277C182.885 60.0801 182.719 59.4512 182.387 59.041C182.055 58.627 181.594 58.4199 181.004 58.4199C180.406 58.4199 179.941 58.627 179.609 59.041C179.281 59.4512 179.117 60.0801 179.117 60.9277C179.117 61.748 179.283 62.3711 179.615 62.7969C179.947 63.2188 180.41 63.4297 181.004 63.4297C181.59 63.4297 182.049 63.2207 182.381 62.8027C182.717 62.3809 182.885 61.7559 182.885 60.9277ZM190.338 64.1973H189.243V63.5C189.145 63.5664 189.012 63.6602 188.844 63.7812C188.68 63.8984 188.52 63.9922 188.364 64.0625C188.18 64.1523 187.969 64.2266 187.731 64.2852C187.493 64.3477 187.213 64.3789 186.893 64.3789C186.303 64.3789 185.803 64.1836 185.393 63.793C184.983 63.4023 184.778 62.9043 184.778 62.2988C184.778 61.8027 184.883 61.4023 185.094 61.0977C185.309 60.7891 185.614 60.5469 186.008 60.3711C186.407 60.1953 186.885 60.0762 187.444 60.0137C188.002 59.9512 188.602 59.9043 189.243 59.873V59.7031C189.243 59.4531 189.198 59.2461 189.108 59.082C189.022 58.918 188.897 58.7891 188.733 58.6953C188.577 58.6055 188.389 58.5449 188.17 58.5137C187.952 58.4824 187.723 58.4668 187.485 58.4668C187.196 58.4668 186.873 58.5059 186.518 58.584C186.163 58.6582 185.795 58.7676 185.416 58.9121H185.358V57.793C185.573 57.7344 185.883 57.6699 186.289 57.5996C186.696 57.5293 187.096 57.4941 187.491 57.4941C187.952 57.4941 188.352 57.5332 188.692 57.6113C189.036 57.6855 189.332 57.8145 189.582 57.998C189.829 58.1777 190.016 58.4102 190.145 58.6953C190.274 58.9805 190.338 59.334 190.338 59.7559V64.1973ZM189.243 62.5859V60.7637C188.907 60.7832 188.51 60.8125 188.053 60.8516C187.6 60.8906 187.241 60.9473 186.975 61.0215C186.659 61.1113 186.403 61.252 186.207 61.4434C186.012 61.6309 185.914 61.8906 185.914 62.2227C185.914 62.5977 186.028 62.8809 186.254 63.0723C186.481 63.2598 186.827 63.3535 187.291 63.3535C187.678 63.3535 188.032 63.2793 188.352 63.1309C188.672 62.9785 188.969 62.7969 189.243 62.5859ZM197.288 64.1973H196.186V63.5117C195.87 63.7852 195.54 63.998 195.196 64.1504C194.852 64.3027 194.479 64.3789 194.077 64.3789C193.296 64.3789 192.675 64.0781 192.214 63.4766C191.757 62.875 191.528 62.041 191.528 60.9746C191.528 60.4199 191.606 59.9258 191.763 59.4922C191.923 59.0586 192.138 58.6895 192.407 58.3848C192.673 58.0879 192.981 57.8613 193.333 57.7051C193.688 57.5488 194.056 57.4707 194.434 57.4707C194.778 57.4707 195.083 57.5078 195.349 57.582C195.614 57.6523 195.893 57.7637 196.186 57.916V55.0801H197.288V64.1973ZM196.186 62.5859V58.8301C195.89 58.6973 195.624 58.6055 195.39 58.5547C195.155 58.5039 194.899 58.4785 194.622 58.4785C194.005 58.4785 193.524 58.6934 193.181 59.123C192.837 59.5527 192.665 60.1621 192.665 60.9512C192.665 61.7285 192.798 62.3203 193.063 62.7266C193.329 63.1289 193.755 63.3301 194.341 63.3301C194.653 63.3301 194.97 63.2617 195.29 63.125C195.61 62.9844 195.909 62.8047 196.186 62.5859Z" fill="#384F69"/>
<path d="M358.15 40.7562C358.15 42.5892 357.121 44.018 354.86 44.1496C352.943 44.2389 351.57 42.6315 351.57 40.7562C351.57 39.8792 351.919 39.0382 352.539 38.4181C353.159 37.7981 354 37.4497 354.877 37.4497C355.754 37.4497 356.595 37.7981 357.215 38.4181C357.835 39.0382 358.183 39.8792 358.183 40.7562H358.15Z" fill="#FDAF31"/>
<path d="M350.744 23.3842C351.034 23.5545 351.364 23.6488 351.716 23.6615C352.067 23.6742 352.434 23.6052 352.793 23.4583C353.153 23.3115 353.5 23.0898 353.812 22.806C354.125 22.5222 354.398 22.1819 354.616 21.8046C354.834 21.4273 354.992 21.0206 355.082 20.6077C355.171 20.1949 355.19 19.7841 355.137 19.3991C355.084 19.014 354.961 18.6623 354.774 18.3641C354.587 18.0659 354.341 17.8271 354.048 17.6615C353.759 17.4912 353.429 17.397 353.077 17.3843C352.726 17.3716 352.359 17.4406 351.999 17.5874C351.64 17.7342 351.293 17.9559 350.98 18.2398C350.668 18.5236 350.394 18.8639 350.177 19.2412C349.959 19.6185 349.801 20.0252 349.711 20.438C349.622 20.8509 349.603 21.2617 349.656 21.6467C349.709 22.0318 349.832 22.3835 350.019 22.6817C350.206 22.9799 350.452 23.2187 350.744 23.3842Z" fill="#FDAF31"/>
<path d="M335.395 10.0749C336.038 10.1834 336.712 9.94417 337.27 9.40989C337.828 8.87562 338.223 8.09002 338.369 7.22594C338.515 6.36185 338.399 5.49005 338.048 4.80233C337.696 4.11461 337.138 3.66729 336.495 3.55879C336.177 3.50506 335.847 3.53614 335.525 3.65023C335.204 3.76433 334.896 3.95922 334.62 4.22376C334.344 4.48831 334.105 4.81734 333.916 5.19206C333.728 5.56679 333.593 5.97987 333.521 6.40772C333.449 6.83557 333.44 7.26982 333.495 7.68566C333.55 8.1015 333.668 8.4908 333.842 8.83133C334.016 9.17185 334.243 9.45694 334.509 9.67031C334.776 9.88367 335.077 10.0211 335.395 10.0749Z" fill="#FDAF31"/>
<path d="M313.851 11.4787C314.17 11.8817 314.545 12.2346 314.955 12.5168C315.365 12.799 315.8 13.005 316.237 13.1229C316.673 13.2407 317.102 13.268 317.498 13.2032C317.894 13.1385 318.249 12.9829 318.544 12.7455C318.838 12.5081 319.065 12.1937 319.212 11.8204C319.359 11.4471 319.423 11.0223 319.401 10.5708C319.378 10.1192 319.269 9.6498 319.08 9.18975C318.89 8.72969 318.625 8.28814 318.299 7.89067C317.979 7.48763 317.604 7.13477 317.194 6.85253C316.785 6.57029 316.349 6.36429 315.913 6.24645C315.476 6.12862 315.047 6.1013 314.651 6.16607C314.255 6.23085 313.9 6.38643 313.606 6.62381C313.311 6.86119 313.084 7.17564 312.937 7.54895C312.79 7.92225 312.726 8.34699 312.749 8.79855C312.771 9.25011 312.881 9.71952 313.07 10.1796C313.259 10.6396 313.524 11.0812 313.851 11.4787Z" fill="#FDAF31"/>
<path d="M306.258 28.7269C304.693 30.0664 302.729 30.2027 301.032 28.3697C299.561 26.8469 299.96 24.4969 301.526 23.1621C301.887 22.8245 302.313 22.5638 302.778 22.3956C303.243 22.2275 303.737 22.1554 304.231 22.1837C304.725 22.2121 305.208 22.3403 305.65 22.5606C306.093 22.7808 306.487 23.0886 306.807 23.4653C307.127 23.842 307.368 24.2798 307.514 24.7521C307.661 25.2245 307.71 25.7216 307.658 26.2134C307.607 26.7053 307.457 27.1816 307.216 27.6136C306.975 28.0456 306.65 28.4243 306.258 28.7269Z" fill="#FDAF31"/>
<path d="M358.151 39.5363C357.884 38.7449 357.343 38.0753 356.625 37.6492C355.906 37.2231 355.059 37.0689 354.237 37.2146C353.415 37.3603 352.672 37.7962 352.144 38.443C351.616 39.0899 351.337 39.9047 351.359 40.7395C351.339 41.2102 351.417 41.6799 351.587 42.1194C351.757 42.5588 352.015 42.9585 352.347 43.2936C352.678 43.6287 353.074 43.8921 353.512 44.0672C353.949 44.2423 354.418 44.3255 354.889 44.3115C357.032 44.2833 359.044 42.7652 358.151 39.5363ZM354.861 37.5717C355.497 37.5728 356.118 37.7707 356.638 38.1384C357.158 38.5061 357.552 39.0255 357.765 39.6256C357.848 40.039 357.834 40.4659 357.726 40.8733C357.618 41.2808 357.417 41.6579 357.14 41.9756C355.443 43.8979 353.211 42.8263 352.675 42.3798C352.403 42.1489 352.186 41.8605 352.038 41.5354C351.891 41.2103 351.818 40.8566 351.824 40.4998C351.763 39.2355 353.234 37.5858 354.842 37.5858L354.861 37.5717ZM354.861 43.912C354.478 43.9363 354.094 43.8811 353.733 43.7501C353.372 43.6191 353.043 43.415 352.764 43.1506L352.539 42.9297C353.122 43.3292 355.979 44.6687 357.812 41.7688C357.478 43.0754 356.454 43.8368 354.842 43.9261L354.861 43.912Z" fill="#414141"/>
<path d="M354.128 17.4882C352.835 16.7268 350.96 17.4882 350.02 19.1379C349.352 20.3458 349.263 21.6853 349.799 22.6253C349.988 22.9842 350.27 23.2854 350.616 23.4972C350.961 23.709 351.358 23.8235 351.763 23.8285C352.39 23.7904 352.995 23.589 353.52 23.2443C354.044 22.8996 354.469 22.4237 354.753 21.8639C355.73 20.2095 355.425 18.2449 354.128 17.4882ZM350.368 19.3682C350.619 18.8742 350.993 18.4538 351.456 18.1481C351.918 17.8425 352.451 17.6621 353.004 17.6245C354.79 17.6245 354.414 20.0356 353.85 21.0649C353.004 22.5407 350.861 23.2551 350.147 22.4749C349.925 21.9777 349.829 21.4332 349.87 20.8902C349.91 20.3471 350.084 19.8226 350.377 19.3635L350.368 19.3682ZM354.395 21.6759C353.549 23.1517 351.942 23.8191 350.823 23.194C350.781 23.194 350.781 23.1517 350.734 23.1517C350.88 23.1865 351.031 23.2007 351.181 23.194C352.299 23.194 354.889 22.0801 354.753 18.8183C354.911 19.291 354.961 19.7931 354.899 20.2877C354.837 20.7824 354.665 21.2568 354.395 21.6759Z" fill="#414141"/>
<path d="M336.803 3.42248C334.838 2.95248 333.678 4.98288 333.41 6.05448C333.242 6.64767 333.216 7.27168 333.331 7.87702C333.447 8.48237 333.703 9.05239 334.077 9.54188C334.416 9.91069 334.869 10.1551 335.363 10.2361C335.857 10.3171 336.364 10.2298 336.803 9.98838C337.233 9.72591 337.602 9.37531 337.886 8.95971C338.171 8.5441 338.364 8.07294 338.453 7.57728C338.946 5.69728 338.232 3.73268 336.803 3.42248ZM333.809 6.16728C334.035 5.22728 335.106 3.66688 336.22 3.75618C337.428 3.84548 337.738 5.85708 337.428 7.01798C337.244 7.91409 336.714 8.70129 335.952 9.20818C335.73 9.37179 335.466 9.47066 335.191 9.49389C334.915 9.51711 334.639 9.46378 334.392 9.33978C334.057 8.89139 333.831 8.37189 333.73 7.82166C333.629 7.27143 333.656 6.7053 333.809 6.16728ZM338.096 7.51148C338.005 7.9486 337.829 8.3633 337.576 8.73131C337.323 9.09932 337 9.41324 336.624 9.65468C336.419 9.78012 336.189 9.86085 335.95 9.89162C335.711 9.92239 335.469 9.90251 335.238 9.83328C335.196 9.83328 335.196 9.78628 335.149 9.78628C335.5 9.76716 335.839 9.65348 336.131 9.45728C336.562 9.19043 336.934 8.8393 337.225 8.42497C337.517 8.01063 337.722 7.54165 337.828 7.04618C338.024 6.2484 337.993 5.41146 337.738 4.63038C338.224 5.50035 338.352 6.52521 338.096 7.48798V7.51148Z" fill="#414141"/>
<path d="M319.028 12.4884C319.968 11.2805 319.742 9.22655 318.403 7.66615C317.646 6.73138 316.559 6.12246 315.367 5.96475C315.021 5.92812 314.672 5.9608 314.34 6.06087C314.007 6.16095 313.698 6.32641 313.43 6.54755C312.175 7.70845 312.312 9.98795 313.74 11.6847C314.106 12.1574 314.564 12.5514 315.085 12.8429C315.607 13.1345 316.182 13.3176 316.777 13.3814C318.431 13.4707 318.92 12.62 319.009 12.4884H319.028ZM318.088 7.93405C319.202 9.40515 319.498 11.1489 318.713 12.2205C317.557 12.7469 315.949 12.2205 314.84 10.8669C313.731 9.51325 313.43 7.65205 314.215 6.57575C315.235 5.83315 317.289 6.86245 318.093 7.93405H318.088ZM316.842 12.9772C315.758 12.8474 314.766 12.3034 314.074 11.4591C312.866 10.0773 312.664 8.24425 313.402 7.17265C313.045 8.38055 313.449 9.89865 314.474 11.1019C314.865 11.6005 315.359 12.0097 315.921 12.3023C316.484 12.5949 317.102 12.7641 317.735 12.7986H317.914C317.587 12.9774 317.209 13.0403 316.842 12.9772Z" fill="#414141"/>
<path d="M306.883 23.4324C306.555 23.0443 306.153 22.7259 305.7 22.4958C305.247 22.2657 304.753 22.1287 304.246 22.0929C303.207 22.0194 302.181 22.357 301.389 23.0329C300.953 23.3801 300.596 23.8163 300.343 24.3123C300.089 24.8083 299.944 25.3528 299.918 25.9093C299.888 26.3895 299.956 26.8707 300.118 27.3239C300.279 27.777 300.531 28.1928 300.858 28.546C301.212 28.9764 301.654 29.3252 302.156 29.5686C302.657 29.8119 303.205 29.9441 303.762 29.956C304.725 29.9158 305.642 29.5362 306.352 28.8844C306.746 28.5587 307.071 28.1577 307.308 27.705C307.545 27.2523 307.69 26.7569 307.734 26.2477C307.798 25.745 307.755 25.2344 307.609 24.7492C307.462 24.2641 307.215 23.8154 306.883 23.4324ZM301.168 28.2593C300.872 27.9469 300.644 27.577 300.498 27.1728C300.352 26.7685 300.29 26.3384 300.317 25.9093C300.324 25.7491 300.354 25.5908 300.406 25.4393C300.483 26.3796 300.858 27.2708 301.478 27.982C301.836 28.4031 302.281 28.7411 302.782 28.9725C303.284 29.2038 303.83 29.3229 304.383 29.3215C304.701 29.3221 305.017 29.2778 305.323 29.1899C303.889 29.9043 302.418 29.5941 301.168 28.2593ZM307.372 26.2477C307.318 26.7459 307.158 27.2268 306.902 27.6577C306.595 28.0251 306.213 28.3229 305.782 28.5312C305.351 28.7395 304.88 28.8535 304.401 28.8656C303.908 28.8647 303.42 28.7562 302.973 28.5475C302.526 28.3389 302.13 28.0353 301.812 27.6577C301.256 27.0016 300.913 26.1917 300.829 25.3359C300.698 24.175 302.127 22.2997 303.955 22.5159C304.886 22.6012 305.752 23.0303 306.383 23.7194C307.015 24.4084 307.367 25.3082 307.372 26.243V26.2477Z" fill="#414141"/>
<path d="M307.283 17.1335C307.283 17.1335 305.318 16.7293 304.933 16.5977C304.906 16.5891 304.882 16.5753 304.86 16.5572C304.839 16.539 304.822 16.5169 304.809 16.492C304.796 16.4671 304.789 16.44 304.787 16.4122C304.785 16.3844 304.788 16.3564 304.796 16.3298C304.805 16.3033 304.819 16.2787 304.837 16.2575C304.855 16.2363 304.877 16.2189 304.902 16.2062C304.927 16.1936 304.954 16.1859 304.982 16.1838C305.01 16.1816 305.038 16.1849 305.064 16.1935C305.422 16.3298 307.344 16.687 307.344 16.687C307.433 16.687 307.522 16.8186 307.522 16.9079C307.461 17.0865 307.372 17.1335 307.283 17.1335Z" fill="#414141"/>
<path d="M307.193 15.6127C306.426 15.0818 305.696 14.4992 305.008 13.869C304.918 13.7797 304.918 13.6481 305.008 13.6011C305.097 13.5541 305.228 13.5118 305.275 13.6011C305.907 14.1962 306.578 14.7489 307.282 15.2555C307.372 15.2978 307.372 15.4341 307.329 15.5234C307.287 15.6127 307.24 15.6127 307.193 15.6127Z" fill="#414141"/>
<path d="M343.637 13.7814C343.608 13.7752 343.581 13.7629 343.557 13.7454C343.533 13.7279 343.513 13.7055 343.498 13.6798C343.483 13.6541 343.474 13.6255 343.471 13.596C343.468 13.5665 343.471 13.5367 343.481 13.5085C343.49 13.4803 343.505 13.4544 343.525 13.4324C343.545 13.4105 343.569 13.393 343.596 13.381C343.624 13.3691 343.653 13.363 343.683 13.3632C343.712 13.3633 343.742 13.3697 343.769 13.3819C344.16 13.483 344.572 13.4737 344.959 13.3551C345.345 13.2364 345.691 13.0131 345.959 12.7098C345.679 12.5312 345.448 12.2857 345.287 11.9954C345.138 11.686 345.069 11.3447 345.084 11.0019C345.1 10.6591 345.2 10.3254 345.376 10.0308C345.912 9.27411 346.716 9.80991 346.941 10.3457C347.067 10.719 347.1 11.1171 347.037 11.5059C346.975 11.8948 346.82 12.2627 346.584 12.5782C346.983 12.7568 349.127 13.2456 349.352 10.9238C349.352 10.7922 349.484 10.7452 349.573 10.7452C349.662 10.7452 349.752 10.8815 349.752 10.9708C349.531 12.7098 348.502 13.114 347.923 13.2033C347.378 13.2678 346.825 13.1748 346.33 12.9354C346.007 13.3167 345.583 13.5986 345.106 13.7483C344.629 13.8981 344.12 13.9096 343.637 13.7814ZM345.691 10.2987C345.546 10.5237 345.465 10.7839 345.457 11.0513C345.449 11.3187 345.513 11.5833 345.644 11.8168C345.758 12.062 345.945 12.2657 346.18 12.3996C346.376 12.1331 346.507 11.824 346.562 11.4973C346.617 11.1706 346.594 10.8357 346.495 10.5196C346.448 10.2564 346.001 9.89921 345.691 10.2987Z" fill="#414141"/>
<path d="M355.56 30.3053C355.51 30.2976 355.463 30.2771 355.424 30.2458C355.384 30.2145 355.354 30.1734 355.335 30.1267C355.329 30.0732 355.345 30.0198 355.378 29.9777C355.412 29.9356 355.46 29.9081 355.513 29.9011C355.603 29.9011 357.478 29.6802 357.863 29.6802C357.917 29.688 357.966 29.7148 358.001 29.7558C358.037 29.7968 358.056 29.8492 358.056 29.9034C358.056 29.9576 358.037 30.01 358.001 30.051C357.966 30.092 357.917 30.1189 357.863 30.1267C357.093 30.1473 356.324 30.2069 355.56 30.3053Z" fill="#414141"/>
<path d="M358.551 32.6699C357.734 32.3006 356.9 31.9727 356.05 31.6876C356.022 31.6801 355.996 31.6669 355.974 31.6489C355.951 31.6308 355.932 31.6084 355.919 31.5828C355.905 31.5573 355.897 31.5292 355.895 31.5004C355.892 31.4716 355.896 31.4426 355.905 31.4152C355.915 31.3878 355.93 31.3626 355.949 31.3412C355.968 31.3198 355.992 31.3026 356.018 31.2907C356.045 31.2788 356.073 31.2724 356.102 31.272C356.131 31.2716 356.16 31.277 356.187 31.2881C357.04 31.5628 357.875 31.8909 358.687 32.2704C358.732 32.297 358.765 32.3386 358.781 32.3878C358.798 32.437 358.796 32.4904 358.776 32.5383C358.687 32.6699 358.64 32.6699 358.551 32.6699Z" fill="#414141"/>
<path d="M357.211 39.7734C357.211 39.6841 357.079 39.6418 356.99 39.6418L356.586 39.7311C356.566 39.5929 356.518 39.46 356.447 39.3402C356.375 39.2203 356.28 39.1159 356.168 39.0328C356.055 38.9498 355.928 38.8899 355.792 38.8564C355.657 38.823 355.516 38.8168 355.378 38.8381C354.8 38.9274 354.663 39.5525 354.621 40.1776L353.103 40.5348C353.092 40.3507 353.13 40.1669 353.212 40.0019C353.295 39.837 353.419 39.6966 353.573 39.5948C353.594 39.5872 353.613 39.5752 353.63 39.5596C353.646 39.544 353.659 39.5251 353.667 39.5043C353.675 39.4834 353.679 39.461 353.679 39.4386C353.678 39.4161 353.672 39.3941 353.662 39.3739C353.654 39.3526 353.642 39.3332 353.626 39.3169C353.61 39.3007 353.59 39.288 353.569 39.2796C353.548 39.2712 353.525 39.2673 353.502 39.2681C353.48 39.269 353.457 39.2746 353.437 39.2846C353.229 39.4382 353.063 39.6412 352.954 39.8751C352.845 40.109 352.796 40.3664 352.811 40.6241L352.341 40.7134C352.252 40.7134 352.21 40.845 352.21 40.9343C352.21 41.0236 352.299 41.0706 352.389 41.0706L352.859 40.9813C352.926 41.2493 353.081 41.4871 353.299 41.6573C353.517 41.8274 353.785 41.9203 354.062 41.9213C354.823 41.832 354.912 41.1176 355.002 40.5113L356.388 40.2011C356.413 40.4228 356.413 40.6467 356.388 40.8685C356.388 40.9578 356.43 41.0471 356.52 41.0471C356.609 41.0471 356.698 41.0048 356.698 40.9155C356.725 40.6624 356.725 40.4072 356.698 40.1541L357.103 40.0648C357.14 40.0265 357.169 39.9808 357.188 39.9306C357.206 39.8804 357.214 39.8268 357.211 39.7734ZM354.038 41.5594C353.46 41.5594 353.145 40.892 353.145 40.892L354.621 40.5348C354.532 41.2022 354.442 41.5594 354.038 41.5594ZM355.021 40.1494C355.021 38.8992 355.918 39.2564 356.05 39.3927C356.168 39.5154 356.247 39.671 356.275 39.8392L355.021 40.1494Z" fill="white"/>
<path d="M353.727 19.1854C353.565 19.0302 353.385 18.8945 353.191 18.7812L353.37 18.5133C353.412 18.424 353.412 18.3347 353.323 18.2924C353.234 18.2501 353.144 18.2454 353.102 18.3347L352.877 18.6496C352.687 18.5481 352.468 18.5146 352.257 18.5548C352.046 18.595 351.855 18.7065 351.716 18.8705C351.495 19.1854 351.626 19.5849 351.805 20.0784L351.001 21.15C350.918 21.1005 350.852 21.0265 350.813 20.9382C350.773 20.8499 350.762 20.7515 350.78 20.6565C350.823 20.5672 350.733 20.4779 350.644 20.4356C350.555 20.3933 350.465 20.4779 350.423 20.5672C350.39 20.7354 350.406 20.9096 350.469 21.0689C350.532 21.2282 350.64 21.3657 350.78 21.4649L350.555 21.7751C350.512 21.8644 350.512 21.9537 350.602 22.0007C350.691 22.0477 350.733 22.043 350.823 21.9537L351.091 21.5965C351.256 21.6832 351.44 21.7299 351.626 21.7328C351.76 21.7395 351.893 21.7098 352.012 21.6469C352.13 21.584 352.229 21.4903 352.298 21.3756C352.382 21.182 352.418 20.971 352.402 20.7607C352.387 20.5503 352.32 20.3469 352.209 20.1677L352.966 19.1384C353.234 19.317 353.436 19.4956 353.436 19.4956C353.468 19.5189 353.507 19.5315 353.546 19.5315C353.586 19.5315 353.625 19.5189 353.657 19.4956C353.698 19.4566 353.726 19.4064 353.739 19.3512C353.751 19.296 353.747 19.2383 353.727 19.1854ZM352.031 21.103C351.952 21.2 351.841 21.2666 351.719 21.2914C351.596 21.3163 351.469 21.2978 351.358 21.2393L351.969 20.3886C352.076 20.6114 352.098 20.8654 352.031 21.103ZM352.031 19.693C351.805 19.4251 351.805 18.5791 352.609 18.8893L352.031 19.693Z" fill="white"/>
<path d="M336.803 5.29596C336.621 5.10176 336.388 4.96186 336.131 4.89176L336.22 4.62386C336.232 4.60314 336.238 4.58031 336.24 4.55685C336.242 4.53339 336.239 4.5098 336.231 4.4876C336.223 4.4654 336.211 4.44507 336.195 4.42791C336.179 4.41075 336.159 4.39714 336.137 4.38795C336.116 4.37876 336.092 4.37419 336.069 4.37453C336.045 4.37487 336.022 4.38012 336.001 4.38994C335.979 4.39975 335.96 4.41392 335.945 4.43154C335.929 4.44916 335.917 4.46984 335.91 4.49226L335.774 4.84946H335.417C335.259 4.86384 335.11 4.92736 334.99 5.03108C334.87 5.13479 334.786 5.27347 334.749 5.42756C334.571 5.96336 334.881 6.32056 335.219 6.63546L334.82 7.93266C334.728 7.87926 334.653 7.80007 334.606 7.70485C334.558 7.60964 334.539 7.50257 334.552 7.39686C334.552 7.30756 334.505 7.21826 334.416 7.21826C334.326 7.21826 334.237 7.26056 334.237 7.34986C334.207 7.53606 334.236 7.72709 334.32 7.89583C334.404 8.06457 334.54 8.20244 334.707 8.28986L334.618 8.60006C334.608 8.62059 334.602 8.64296 334.601 8.66576C334.6 8.68857 334.604 8.7113 334.613 8.73252C334.621 8.75374 334.634 8.77297 334.65 8.78901C334.666 8.80504 334.686 8.81753 334.707 8.82566C334.707 8.82566 334.886 8.86796 334.928 8.73636L335.017 8.42146C335.117 8.46001 335.225 8.47605 335.332 8.46846C335.547 8.47859 335.759 8.41843 335.936 8.29714C336.113 8.17584 336.246 8.00002 336.314 7.79636C336.535 7.12896 335.6 6.54616 335.6 6.54616L335.999 5.24896C336.206 5.29762 336.392 5.40737 336.535 5.56386C336.547 5.58226 336.562 5.59808 336.58 5.61032C336.597 5.62255 336.617 5.63093 336.639 5.63491C336.66 5.63889 336.682 5.63839 336.703 5.63344C336.724 5.62849 336.744 5.6192 336.761 5.60616C336.789 5.56018 336.807 5.50888 336.815 5.45549C336.822 5.4021 336.818 5.34779 336.803 5.29596ZM335.106 8.04546L335.506 6.84226C336.756 7.57546 335.642 8.37916 335.106 8.04546ZM335.327 6.25946C335.229 6.19353 335.152 6.10058 335.106 5.99187C335.06 5.88316 335.046 5.76335 335.066 5.64696C335.087 5.53057 335.141 5.42259 335.221 5.3361C335.302 5.24961 335.405 5.18833 335.52 5.15966H335.699L335.327 6.25946Z" fill="white"/>
<path d="M318.003 11.1917L318.135 11.0601C318.336 10.8432 318.451 10.5608 318.46 10.2652C318.468 9.96964 318.37 9.68096 318.182 9.45269C317.712 8.82759 317.152 8.98269 316.617 9.18479L315.592 7.77479C315.806 7.64556 316.06 7.59878 316.306 7.64319C316.396 7.64319 316.485 7.59619 316.485 7.50689C316.485 7.41759 316.438 7.32829 316.349 7.32829C316.019 7.29583 315.688 7.37529 315.409 7.55389L315.183 7.23899C315.172 7.22073 315.158 7.20498 315.14 7.19278C315.123 7.18058 315.103 7.17221 315.082 7.16821C315.061 7.16421 315.04 7.16469 315.019 7.1696C314.998 7.1745 314.979 7.18374 314.962 7.19669C314.944 7.20767 314.928 7.22223 314.916 7.23948C314.904 7.25673 314.895 7.2763 314.891 7.29699C314.887 7.31768 314.886 7.33905 314.891 7.35979C314.895 7.38053 314.903 7.4002 314.915 7.41759L315.141 7.73249C315.009 7.85365 314.889 7.98745 314.784 8.13199C314.631 8.33078 314.548 8.5745 314.548 8.82524C314.548 9.07599 314.631 9.3197 314.784 9.51849C315.254 10.2752 315.987 9.91799 316.523 9.65009L317.552 11.1259C317.393 11.2407 317.211 11.3192 317.018 11.3558C316.826 11.3923 316.628 11.3861 316.438 11.3374C316.417 11.3262 316.394 11.3195 316.371 11.3177C316.347 11.3159 316.324 11.319 316.302 11.3268C316.279 11.3346 316.259 11.3469 316.242 11.363C316.225 11.3791 316.211 11.3987 316.202 11.4203C316.193 11.442 316.188 11.4653 316.189 11.4889C316.189 11.5124 316.194 11.5356 316.204 11.557C316.214 11.5784 316.228 11.5975 316.246 11.6131C316.263 11.6287 316.284 11.6404 316.306 11.6476C316.547 11.7417 316.808 11.7746 317.064 11.7434C317.321 11.7123 317.566 11.618 317.777 11.469L317.956 11.6946C317.985 11.7237 318.022 11.7433 318.062 11.7509C318.103 11.7584 318.144 11.7536 318.182 11.7369C318.2 11.726 318.216 11.7114 318.228 11.694C318.24 11.6766 318.248 11.6568 318.252 11.6359C318.256 11.6151 318.256 11.5936 318.251 11.5729C318.246 11.5522 318.237 11.5328 318.224 11.516L318.003 11.1917ZM315.009 9.31169C314.539 8.84169 315.188 8.06149 315.324 7.97219L316.306 9.38219C315.681 9.67359 315.366 9.72059 315.009 9.31639V9.31169ZM317.867 9.66889C318.007 9.83219 318.081 10.0424 318.073 10.2576C318.065 10.4728 317.976 10.6771 317.824 10.8298L317.777 10.8768L316.795 9.46679C317.242 9.31639 317.599 9.27409 317.867 9.67359V9.66889Z" fill="white"/>
<path d="M306.746 26.2879L306.38 26.1516C306.427 26.02 306.85 24.6805 305.487 24.3656C304.819 24.187 304.505 24.8356 304.237 25.3479L302.54 24.6805C302.719 24.3656 302.944 24.0977 303.165 24.0554C303.206 24.0339 303.241 24.0015 303.265 23.9617C303.289 23.9219 303.302 23.8763 303.301 23.8298C303.281 23.7913 303.25 23.7588 303.213 23.7357C303.176 23.7126 303.134 23.6997 303.09 23.6982C302.716 23.8703 302.416 24.1703 302.244 24.5442L301.84 24.4126C301.8 24.3998 301.756 24.4025 301.718 24.4201C301.679 24.4376 301.649 24.4689 301.632 24.5077C301.616 24.5466 301.615 24.5902 301.629 24.6299C301.643 24.6697 301.671 24.7029 301.708 24.7228L302.018 24.8591C301.942 25.019 301.9 25.1931 301.896 25.3701C301.891 25.5471 301.923 25.7231 301.99 25.8869C302.058 26.0507 302.158 26.1986 302.286 26.3211C302.414 26.4436 302.566 26.538 302.733 26.5981C303.673 27.0023 304.072 26.3772 304.387 25.7521L305.91 26.3302C305.836 26.5089 305.713 26.6627 305.555 26.7735C305.397 26.8843 305.21 26.9474 305.017 26.9553C304.928 26.9553 304.838 27.0023 304.838 27.0916C304.838 27.1809 304.881 27.2702 304.97 27.2702C305.241 27.2756 305.507 27.1965 305.731 27.0441C305.955 26.8917 306.126 26.6735 306.22 26.4195L306.69 26.5981C306.725 26.5983 306.759 26.5903 306.79 26.5748C306.821 26.5593 306.848 26.5367 306.869 26.5088C306.864 26.4657 306.851 26.4238 306.83 26.3858C306.809 26.3478 306.781 26.3145 306.746 26.2879ZM302.864 26.2879C302.627 26.1805 302.439 25.9865 302.339 25.7455C302.24 25.5045 302.236 25.2345 302.328 24.9907L304.03 25.6158C303.757 26.2409 303.489 26.5558 302.864 26.2879ZM304.5 25.4372C304.768 24.9014 304.946 24.5912 305.351 24.6805C306.375 24.8591 306.018 25.9307 306.018 26.02L304.5 25.4372Z" fill="white"/>
<path d="M348.501 92.379H302.864C300.763 92.379 298.263 90.4567 298.263 88.3605L298.305 62.816C298.305 60.5365 300.185 57.9468 302.46 57.9468L349.305 58.1254C350.381 58.1666 351.4 58.6217 352.148 59.3958C352.897 60.1699 353.318 61.2032 353.323 62.2802V87.5991C353.322 88.2298 353.195 88.854 352.952 89.4359C352.708 90.0177 352.352 90.5458 351.904 90.9898C351.456 91.4339 350.925 91.7851 350.341 92.0235C349.757 92.2619 349.132 92.3827 348.501 92.379Z" fill="white"/>
<path d="M303.71 92.6471C299.918 92.5594 297.998 90.8173 297.948 87.4207C297.905 82.9134 298.084 64.245 298.084 63.1734C298.112 62.0793 298.354 61.0013 298.798 60.0009C299.086 59.3022 299.575 58.7053 300.204 58.2866C300.833 57.8679 301.573 57.6466 302.328 57.6509C302.382 57.6587 302.431 57.6856 302.466 57.7266C302.502 57.7676 302.521 57.82 302.521 57.8742C302.521 57.9284 302.502 57.9808 302.466 58.0218C302.431 58.0628 302.382 58.0896 302.328 58.0974C298.888 58.0974 298.568 62.3274 298.53 63.1875C298.488 64.2168 298.305 82.8805 298.399 87.3925C298.441 90.4711 300.185 92.0361 303.668 92.1254C305.811 92.1677 344.351 92.1677 347.965 92.1254C351.358 92.0784 353.135 89.2678 353.135 87.792C353.135 87.5711 353.182 67.4316 353.093 63.0512C352.956 58.4076 349.967 58.4546 348.67 58.4546C348.581 58.4546 348.224 58.4969 348.224 58.229C348.224 57.9611 348.581 58.0081 348.67 58.0081C349.967 58.0081 353.45 57.9611 353.582 63.0512C353.718 67.4316 353.629 87.5711 353.629 87.839C353.528 88.9849 353.029 90.0593 352.219 90.8752C351.673 91.4375 351.021 91.8851 350.3 92.1918C349.579 92.4985 348.805 92.6581 348.021 92.6612L303.71 92.6471Z" fill="#414141"/>
<path d="M309.515 56.5632C309.554 56.6149 309.605 56.6567 309.663 56.6855C309.722 56.7144 309.786 56.7293 309.851 56.7293C309.916 56.7293 309.98 56.7144 310.038 56.6855C310.096 56.6567 310.147 56.6149 310.187 56.5632C312.02 54.0628 321.171 42.6277 333.72 46.0681C347.519 49.8657 348.948 60.7603 348.948 62.9035C348.995 70.6303 341.625 77.7273 339.256 80.5003C339.185 80.5818 339.084 80.6318 338.976 80.6397C338.868 80.6476 338.761 80.6128 338.678 80.5426C338.006 79.9645 336.399 78.8036 335.684 77.7743C335.63 77.71 335.596 77.6302 335.589 77.5461C335.581 77.4619 335.6 77.3775 335.642 77.3043C336.446 75.7392 341.282 66.2311 341.132 64.3558C341 62.5651 338.81 58.9931 338.274 58.1471C338.235 58.0886 338.182 58.0414 338.119 58.01C338.057 57.9787 337.987 57.9644 337.917 57.9685L319.164 57.8792C319.09 57.8787 319.017 57.8992 318.953 57.9383C318.89 57.9773 318.839 58.0334 318.807 58.1001C318.092 59.5759 313.848 67.5001 308.222 66.0901C303.522 64.9292 301.078 53.1839 300.702 50.3733C300.691 50.3221 300.691 50.2691 300.7 50.2176C300.71 50.1661 300.73 50.1171 300.759 50.0733C300.788 50.0296 300.825 49.992 300.868 49.9628C300.912 49.9336 300.961 49.9134 301.012 49.9033L305.388 49.0949C305.486 49.0714 305.589 49.086 305.676 49.1357C305.764 49.1855 305.829 49.2667 305.858 49.3628C306.347 50.4438 307.907 54.1944 309.515 56.5632Z" fill="#7BD2FF"/>
<path d="M309.425 45.7536C309.336 45.5327 308.579 43.9253 307.639 42.0923C307.867 42.177 308.112 42.2076 308.353 42.1816C308.621 42.05 308.353 40.9784 307.597 40.5742C307.361 40.4741 307.103 40.44 306.849 40.4755C306.182 39.0937 305.51 37.8435 305.153 37.2607C304.213 35.611 303.324 35.9682 302.967 36.0998C302.61 36.2314 298.859 38.1255 298.216 38.431C296.979 39.0655 297.548 40.1277 297.68 40.4755C297.811 40.8233 302.102 49.2269 302.102 49.2269C302.207 49.4614 302.359 49.6719 302.548 49.8455C302.738 50.019 302.96 50.152 303.203 50.2361C303.446 50.3202 303.703 50.3537 303.959 50.3345C304.215 50.3154 304.465 50.2439 304.692 50.1246C305.007 49.946 307.193 48.8697 308.532 48.113C308.947 47.9005 309.268 47.5413 309.433 47.1054C309.598 46.6694 309.595 46.1876 309.425 45.7536Z" fill="white"/>
<path d="M313.985 70.7203C313.985 70.667 313.975 70.6142 313.955 70.5649C313.935 70.5155 313.905 70.4707 313.868 70.4331C313.83 70.3954 313.785 70.3657 313.736 70.3456C313.687 70.3255 313.634 70.3155 313.581 70.3161C309.069 70.0952 305.121 70.2268 303.936 70.2738C303.883 70.2732 303.831 70.283 303.782 70.3028C303.733 70.3226 303.688 70.352 303.651 70.3891C303.613 70.4263 303.583 70.4705 303.563 70.5193C303.542 70.5681 303.532 70.6204 303.532 70.6733C303.49 72.7742 303.532 75.7634 303.532 76.835C303.531 76.8882 303.541 76.9411 303.561 76.9904C303.581 77.0397 303.611 77.0845 303.649 77.1222C303.687 77.1599 303.731 77.1896 303.781 77.2097C303.83 77.2298 303.883 77.2398 303.936 77.2392C306.258 77.3285 312.015 77.2392 313.538 77.2392C313.591 77.2392 313.643 77.2287 313.692 77.2083C313.741 77.188 313.785 77.1581 313.822 77.1205C313.86 77.0829 313.889 77.0383 313.909 76.9893C313.928 76.9403 313.938 76.8878 313.938 76.835C314.027 75.3169 313.985 71.8812 313.985 70.7203Z" fill="#005BC3"/>
<path d="M312.105 82.3752C312.1 82.3056 312.071 82.24 312.021 82.1907C311.972 82.1414 311.906 82.1117 311.837 82.1073C310.676 82.1073 305.633 82.0603 303.8 82.1073C303.73 82.1117 303.665 82.1414 303.615 82.1907C303.566 82.24 303.536 82.3056 303.532 82.3752C303.532 82.7747 303.49 83.6254 303.532 84.1142C303.536 84.1838 303.566 84.2494 303.615 84.2987C303.665 84.348 303.73 84.3777 303.8 84.3821C304.782 84.3821 308.443 84.4714 311.884 84.4714C311.953 84.467 312.019 84.4373 312.068 84.388C312.118 84.3387 312.147 84.2731 312.152 84.2035C312.152 83.757 312.152 82.911 312.105 82.3752Z" fill="#414141"/>
<path d="M323.986 82.3752C323.982 82.3056 323.952 82.24 323.903 82.1907C323.853 82.1414 323.788 82.1117 323.718 82.1073C322.557 82.1073 317.51 82.0603 315.681 82.1073C315.612 82.1117 315.546 82.1414 315.497 82.1907C315.447 82.24 315.418 82.3056 315.413 82.3752C315.413 82.7747 315.366 83.6254 315.413 84.1142C315.418 84.1838 315.447 84.2494 315.497 84.2987C315.546 84.348 315.612 84.3777 315.681 84.3821C316.664 84.3821 320.278 84.3821 323.718 84.4291C323.788 84.4237 323.853 84.3938 323.902 84.3446C323.951 84.2955 323.981 84.2305 323.986 84.1612V82.3752Z" fill="#414141"/>
<path d="M335.99 78.0757C336.543 78.8814 337.239 79.5791 338.044 80.1343C338.044 80.1343 337.686 82.5877 336.704 83.2128C336.704 83.2128 337.24 86.0328 336.793 86.0704C336.347 86.108 335.543 84.2844 335.543 84.2844C335.543 84.2844 335.407 86.6062 335.139 86.6344C334.871 86.6626 334.293 86.4088 334.157 84.4912C334.157 84.4912 333.174 86.4088 332.907 86.3712C332.639 86.3336 332.371 85.9012 332.46 85.121C332.46 85.121 331.614 85.3889 331.835 84.0024C332.056 82.6159 333.311 80.8346 333.311 80.8346C333.311 80.8346 332.103 81.2341 332.061 80.9239C332.018 80.6137 332.907 79.716 334.411 79.5139C334.886 78.9809 335.415 78.4989 335.99 78.0757Z" fill="#FDAF31"/>
<path d="M338.34 80.2343C338.336 80.1512 338.305 80.0716 338.25 80.0087C337.482 79.4481 336.791 78.7874 336.197 78.0441C336.107 77.9548 335.971 77.9078 335.882 77.9971C335.352 78.3665 334.859 78.7868 334.411 79.252C332.803 79.722 331.91 80.5022 331.774 80.9017C331.732 81.038 331.821 81.3952 332.892 81.2589C332.714 81.5738 332.535 81.8417 332.399 82.1096H327.826C327.756 82.1141 327.691 82.1437 327.641 82.193C327.592 82.2423 327.562 82.3079 327.558 82.3775C327.558 82.777 327.516 83.6277 327.558 84.1165C327.562 84.1861 327.592 84.2517 327.641 84.301C327.691 84.3504 327.756 84.38 327.826 84.3844H331.623C331.666 85.6816 332.159 85.503 332.291 85.456C332.38 86.4853 332.784 86.6169 332.916 86.6639C333.048 86.7109 333.386 86.7532 333.988 85.2539C334.035 85.879 334.481 87.0399 335.017 86.9506C335.553 86.8613 335.595 86.0106 335.684 84.986C336.041 85.7474 336.488 86.396 336.892 86.3255C336.981 86.3255 337.56 86.1046 336.934 83.3786C338.053 82.307 338.274 80.3236 338.34 80.2343ZM332.31 80.8124C332.31 80.6338 332.982 80.2766 333.649 79.9664C333.478 80.178 333.321 80.401 333.179 80.6338C332.895 80.7438 332.595 80.8042 332.291 80.8124H332.31ZM336.507 83.1624C336.452 83.223 336.42 83.3014 336.417 83.3833C336.596 84.3233 336.887 85.7944 336.685 85.8414C336.464 85.7944 336.06 84.8591 335.745 84.0554C335.812 83.5814 335.932 83.1164 336.103 82.6689C336.126 82.6097 336.125 82.5435 336.1 82.4849C336.075 82.4263 336.028 82.3801 335.969 82.3564C335.909 82.3327 335.843 82.3335 335.785 82.3586C335.726 82.3838 335.68 82.4311 335.656 82.4903C335.656 82.5373 335.12 84.1447 335.163 84.9907C335.161 85.5019 335.101 86.0113 334.984 86.5088C334.9 86.4468 334.825 86.3723 334.763 86.2879C334.584 86.0623 334.227 85.3479 334.495 83.9379C334.67 83.3122 334.893 82.7009 335.163 82.1096C335.174 82.0803 335.18 82.049 335.18 82.0174C335.179 81.9858 335.173 81.9546 335.16 81.9256C335.148 81.8966 335.13 81.8703 335.107 81.8483C335.085 81.8262 335.058 81.8088 335.029 81.7971C334.999 81.7854 334.968 81.7795 334.936 81.7799C334.905 81.7803 334.874 81.7869 334.845 81.7993C334.816 81.8118 334.789 81.8298 334.767 81.8524C334.745 81.875 334.728 81.9017 334.716 81.931C334.716 81.9733 334.359 82.777 334.049 83.811C333.738 84.845 333.198 86.2221 332.841 86.1328C332.62 86.0858 332.662 85.4607 332.709 85.1035C333.04 83.8257 333.567 82.6066 334.27 81.4892C334.293 81.4664 334.31 81.4389 334.322 81.4086C334.333 81.3783 334.338 81.3459 334.336 81.3136C334.333 81.2813 334.324 81.2499 334.309 81.2214C334.293 81.193 334.272 81.1682 334.246 81.1488C334.22 81.1294 334.19 81.1158 334.159 81.1089C334.127 81.102 334.094 81.102 334.063 81.1089C334.031 81.1157 334.001 81.1293 333.975 81.1487C333.949 81.1682 333.928 81.1929 333.912 81.2213C333.181 82.3667 332.625 83.6151 332.263 84.9249C332.173 84.9719 331.948 85.0142 332.037 84.2575C332.263 82.5608 333.734 80.0604 335.877 78.5423C336.446 79.2104 337.091 79.8098 337.799 80.3283C337.738 80.7701 337.4 82.3305 336.488 83.1812L336.507 83.1624Z" fill="#414141"/>
<path d="M348.234 82.3752C348.229 82.3056 348.199 82.24 348.15 82.1907C348.101 82.1414 348.035 82.1117 347.966 82.1073C346.805 82.1073 341.762 82.0603 339.929 82.1073C339.859 82.1117 339.793 82.1414 339.744 82.1907C339.695 82.24 339.665 82.3056 339.661 82.3752C339.661 82.7747 339.614 83.6254 339.661 84.1142C339.665 84.1838 339.695 84.2494 339.744 84.2987C339.793 84.348 339.859 84.3777 339.929 84.3821C340.911 84.3821 344.53 84.3821 347.966 84.4291C348.035 84.4247 348.101 84.395 348.15 84.3457C348.199 84.2964 348.229 84.2308 348.234 84.1612C348.234 83.7147 348.281 82.911 348.234 82.3752Z" fill="#414141"/>
<path d="M305.96 48.2885C305.983 48.3291 306.015 48.3641 306.055 48.3915C306.094 48.4189 306.139 48.4381 306.189 48.4481C306.238 48.4581 306.289 48.4586 306.341 48.4496C306.392 48.4406 306.442 48.4224 306.488 48.3958C306.534 48.3693 306.575 48.335 306.609 48.2949C306.642 48.2549 306.668 48.2098 306.684 48.1623C306.7 48.1148 306.706 48.0658 306.702 48.0181C306.698 47.9704 306.683 47.9249 306.66 47.8843C306.637 47.8437 306.604 47.8086 306.565 47.7813C306.526 47.7539 306.48 47.7346 306.431 47.7247C306.382 47.7147 306.33 47.7142 306.279 47.7232C306.227 47.7321 306.177 47.7504 306.131 47.7769C306.085 47.8035 306.044 47.8378 306.011 47.8778C305.977 47.9179 305.952 47.963 305.936 48.0105C305.92 48.058 305.914 48.107 305.918 48.1547C305.922 48.2024 305.936 48.2479 305.96 48.2885Z" fill="#414141"/>
<path d="M322.468 29.9494C322.468 29.9494 320.146 36.6469 321.439 41.2294C322.332 44.3972 325.669 44.8014 325.669 44.8014C325.6 45.5031 325.442 46.1933 325.199 46.8553C325.199 46.8553 326.609 48.4157 328.329 48.4157C330.049 48.4157 331.407 47.3018 331.586 46.8553C331.586 46.8553 331.318 44.6651 331.276 43.0577C331.276 43.0577 333.283 42.5877 335.036 37.836C335.036 37.836 337.179 37.4318 337.09 35.8244C337 34.217 335.525 34.4849 334.989 34.6635C334.143 34.9314 333.607 33.8128 333.428 33.4133C332.935 32.0033 332.357 30.4664 331.685 29.9729C331.013 29.4794 329.452 29.2585 328.738 29.0799C327.577 28.7697 326.726 26.5372 326.637 26.3116C326.548 26.086 325.594 28.9201 322.468 29.9494Z" fill="white"/>
<path d="M330.463 32.7576C330.237 32.4004 329.748 31.5967 328.766 32.5367C328.717 32.5766 328.655 32.5971 328.592 32.594C328.529 32.5909 328.47 32.5645 328.425 32.52C328.381 32.4754 328.354 32.4159 328.351 32.3529C328.348 32.29 328.369 32.2282 328.409 32.1795C328.588 32.014 328.8 31.8869 329.03 31.8061C329.26 31.7253 329.505 31.6924 329.748 31.7095C329.975 31.7465 330.19 31.8358 330.376 31.9704C330.562 32.1051 330.714 32.2813 330.82 32.485C330.842 32.5092 330.857 32.5387 330.865 32.5706C330.872 32.6024 330.872 32.6357 330.863 32.6672C330.854 32.6988 330.837 32.7275 330.814 32.7507C330.791 32.7739 330.762 32.7908 330.73 32.7999C330.683 32.955 330.505 32.8469 330.463 32.7576Z" fill="#414141"/>
<path d="M324.742 32.1808C323.986 30.705 323.003 31.8659 323.003 31.9129C322.955 31.9529 322.893 31.9733 322.83 31.9702C322.767 31.9671 322.707 31.9408 322.663 31.8962C322.618 31.8517 322.592 31.7921 322.589 31.7292C322.586 31.6663 322.606 31.6044 322.646 31.5557C322.806 31.3524 323.016 31.1953 323.257 31.101C323.498 31.0066 323.759 30.9783 324.014 31.0191C324.269 31.0599 324.509 31.1682 324.708 31.3328C324.907 31.4974 325.059 31.7123 325.147 31.9552C325.169 32.0101 325.173 32.0711 325.157 32.1283C325.141 32.1854 325.106 32.2354 325.057 32.2701C324.968 32.3594 324.789 32.2701 324.742 32.1808Z" fill="#414141"/>
<path d="M325.683 37.2712C325.368 37.2712 324.475 36.1573 324.611 35.8001C324.701 35.6215 324.922 35.5322 325.551 35.4382C325.688 35.4157 325.823 35.3859 325.956 35.3489C326.045 35.081 326.177 34.0564 326.313 33.1634C326.323 33.0997 326.358 33.0426 326.41 33.004C326.461 32.9654 326.526 32.9484 326.59 32.9566C326.655 32.9637 326.714 32.9957 326.755 33.0457C326.796 33.0957 326.816 33.1599 326.811 33.2245C326.501 35.5745 326.341 35.6826 326.275 35.7296C326.074 35.8118 325.864 35.8717 325.65 35.9082C325.519 35.9505 325.251 35.9975 325.114 36.0398C325.289 36.3578 325.533 36.6324 325.829 36.8435C325.882 36.8741 325.921 36.924 325.937 36.9828C325.954 37.0416 325.947 37.1046 325.918 37.1584C325.854 37.2209 325.772 37.2606 325.683 37.2712Z" fill="#414141"/>
<path d="M325.547 40.219C324.137 40.1297 323.85 38.809 323.897 38.1228C323.906 38.055 323.937 37.9922 323.986 37.9442C324.038 37.9066 324.101 37.8899 324.165 37.8972L327.455 38.1651C327.522 38.1762 327.584 38.2073 327.633 38.2544C327.67 38.3063 327.687 38.3697 327.68 38.433C327.647 38.48 327.38 40.3083 325.547 40.219ZM324.343 38.3907C324.351 38.7209 324.476 39.0376 324.697 39.2833C324.918 39.529 325.219 39.6876 325.547 39.7302C325.899 39.7581 326.251 39.6595 326.538 39.4519C326.824 39.2443 327.028 38.9414 327.112 38.5975L324.343 38.3907Z" fill="#414141"/>
<path d="M340.774 62.0982C339.834 59.5978 337.113 55.6216 336.981 55.443C336.964 55.4191 336.942 55.399 336.916 55.3839C336.891 55.3688 336.862 55.3589 336.833 55.355C336.804 55.351 336.774 55.3531 336.745 55.3609C336.717 55.3687 336.69 55.3823 336.667 55.4007C336.643 55.4178 336.623 55.4396 336.608 55.4647C336.593 55.4898 336.583 55.5177 336.579 55.5467C336.575 55.5757 336.577 55.6052 336.585 55.6334C336.593 55.6616 336.606 55.688 336.624 55.7109C336.624 55.7109 337.249 56.6039 337.964 57.7648C333.541 57.7225 321.396 57.6332 319.117 57.5862C319.404 57.0279 319.643 56.4461 319.831 55.8472C319.843 55.8163 319.848 55.7834 319.847 55.7504C319.847 55.7174 319.839 55.6849 319.826 55.6548C319.812 55.6247 319.793 55.5976 319.769 55.5749C319.745 55.5523 319.716 55.5346 319.685 55.5229C319.655 55.5111 319.622 55.5056 319.589 55.5066C319.556 55.5075 319.523 55.515 319.493 55.5285C319.463 55.5421 319.436 55.5614 319.413 55.5854C319.391 55.6094 319.373 55.6377 319.361 55.6686C319.361 55.7109 317.89 59.4615 316.414 61.3086C316.391 61.3339 316.374 61.3639 316.363 61.3967C316.353 61.4295 316.35 61.4641 316.354 61.4981C316.359 61.5322 316.371 61.5648 316.389 61.5938C316.408 61.6228 316.432 61.6473 316.461 61.6658C316.593 61.7551 316.729 61.6658 316.818 61.6188C317.633 60.5241 318.321 59.3417 318.872 58.0938C320.48 58.0938 333.912 58.2254 338.208 58.2724C339.018 59.5343 339.72 60.8629 340.304 62.2439C340.334 62.2986 340.381 62.3418 340.438 62.3666C340.495 62.3913 340.559 62.3961 340.619 62.3802C340.732 62.3708 340.821 62.2345 340.774 62.0982Z" fill="#414141"/>
<path d="M310.943 59.275C310.901 59.2327 307.061 53.165 305.675 49.6306C305.662 49.6011 305.655 49.5693 305.655 49.5371C305.655 49.505 305.662 49.4731 305.675 49.4436C305.687 49.4141 305.706 49.3875 305.729 49.3655C305.753 49.3435 305.781 49.3266 305.811 49.3157C305.84 49.3029 305.872 49.2964 305.903 49.2964C305.935 49.2964 305.967 49.303 305.996 49.3158C306.025 49.3287 306.051 49.3474 306.073 49.3708C306.094 49.3942 306.111 49.4219 306.121 49.452C307.508 52.9817 311.348 58.9648 311.348 59.0071C311.367 59.0322 311.381 59.0616 311.387 59.0929C311.393 59.1243 311.392 59.1566 311.383 59.1873C311.375 59.2181 311.359 59.2463 311.337 59.2697C311.315 59.2931 311.288 59.311 311.258 59.322C311.208 59.3513 311.15 59.3626 311.093 59.354C311.035 59.3455 310.983 59.3176 310.943 59.275Z" fill="#414141"/>
<path d="M300.453 45.1314C300.453 45.1314 301.031 44.5063 301.21 45.2677C301.389 46.0291 301.299 47.6788 301.121 47.7681C300.942 47.8574 300.317 48.036 300.096 47.5002C299.871 47.545 299.637 47.4997 299.444 47.374C299.252 47.2484 299.116 47.0524 299.067 46.8281C299.067 46.8281 298.352 46.8281 298.216 45.7142C298.216 45.7142 297.502 45.3993 297.746 44.1491C297.991 42.8989 299.043 41.8743 299.156 42.8989C299.156 42.8989 299.781 42.4289 299.871 43.9705C299.871 44.0175 300.585 43.8389 300.453 45.1314Z" fill="white"/>
<path d="M305.943 41.0684C305.811 40.8898 306.347 40.2647 307.282 40.4856C308.217 40.7065 308.622 41.8956 308.401 42.14C308.18 42.3844 306.436 41.7828 305.943 41.0684Z" fill="white"/>
<path d="M309.693 45.7996C309.562 45.4847 308.58 43.2992 308.175 42.4485C308.222 42.4485 308.58 42.4062 308.645 42.1806C308.735 41.7341 308.509 40.4839 307.395 40.216C307.242 40.1765 307.083 40.1622 306.925 40.1737C306.878 40.0374 305.36 37.2268 305.139 36.8226C304.97 36.4231 304.335 35.3045 302.996 35.8403C301.835 36.3103 297.948 38.3877 297.906 38.43C297.638 38.6556 296.834 39.1914 297.436 40.5309C297.697 41.2018 297.995 41.8577 298.329 42.4955C298.14 42.6778 297.982 42.8888 297.859 43.1206C296.966 44.9066 297.723 45.7526 298.08 46.0205C298.08 46.0205 298.258 47.0921 298.977 47.1814C299.062 47.4011 299.218 47.5863 299.419 47.7079C299.621 47.8296 299.857 47.8808 300.091 47.8535C300.146 47.9465 300.219 48.0269 300.307 48.0894C300.395 48.1518 300.495 48.1949 300.601 48.2158C300.707 48.2367 300.816 48.2349 300.921 48.2105C301.026 48.1861 301.124 48.1397 301.21 48.0744C301.342 48.3 301.567 48.7465 301.967 49.4844C302.11 49.7547 302.307 49.9932 302.546 50.1854C302.784 50.3776 303.059 50.5197 303.353 50.603C303.543 50.6502 303.736 50.6801 303.931 50.6923C304.177 50.7101 304.424 50.6631 304.646 50.556C304.735 50.5137 308.406 48.676 309.111 48.2342C309.471 47.9556 309.725 47.5623 309.831 47.1195C309.937 46.6768 309.888 46.2111 309.693 45.7996ZM307.282 40.6625C307.543 40.7718 307.768 40.9506 307.934 41.1794C308.1 41.4082 308.2 41.6781 308.222 41.9597C306.657 41.6448 306.079 41.2453 306.211 40.9304C306.258 40.7095 306.657 40.4745 307.282 40.6625ZM298.084 45.3625C297.859 45.0476 297.68 44.4225 298.216 43.3086C298.489 42.8151 298.686 42.6835 298.799 42.7258C298.912 42.7681 298.888 42.8151 298.888 42.9514C298.521 43.7152 298.251 44.522 298.084 45.3531V45.3625ZM298.888 46.5845C298.769 46.5065 298.67 46.4007 298.601 46.2763C298.531 46.152 298.493 46.0126 298.489 45.8701C298.574 44.9321 298.847 44.021 299.292 43.1911C299.344 43.1536 299.408 43.1368 299.471 43.1441C299.471 43.1441 299.603 43.2334 299.513 43.9478C299.234 44.8085 299.025 45.6902 298.888 46.5845ZM300.185 45.1745C299.987 45.8577 299.881 46.5642 299.87 47.2754C299.755 47.2756 299.641 47.2413 299.545 47.1769C299.449 47.1124 299.374 47.0207 299.33 46.9135V46.8242C299.423 45.9408 299.62 45.0716 299.917 44.2345C299.958 44.1998 300.002 44.1698 300.049 44.1452C300.096 44.1922 300.27 44.3238 300.185 45.2168V45.1745ZM301.031 47.5245C300.925 47.5977 300.802 47.6444 300.674 47.6608C300.586 47.6608 300.497 47.5715 300.406 47.3929C300.426 46.715 300.538 46.043 300.74 45.3954L300.961 45.1745C301.008 45.2168 301.097 45.3954 301.097 46.0675C301.097 46.7396 301.031 47.36 301.031 47.5245ZM299.382 41.2453C299.513 41.6448 300.322 43.2099 301.121 44.728C300.989 44.7038 300.853 44.7038 300.721 44.728C300.721 44.1922 300.453 43.6564 300.096 43.6987C300.138 43.2287 299.917 42.5848 299.424 42.6741C299.292 42.049 298.888 42.2041 298.757 42.2041C298.578 41.8892 298.263 41.2218 297.859 40.2818C297.459 39.2572 297.948 38.9423 298.216 38.7214C298.263 38.7214 302.014 36.6205 303.175 36.174C304.025 35.8638 304.425 36.3526 304.782 36.9777C304.961 37.2926 306.168 39.6144 306.479 40.1925C306.247 40.2655 306.034 40.3873 305.854 40.5497C305.384 39.6097 304.914 38.7637 304.74 38.4535C304.293 37.5605 303.936 37.114 303.085 37.2456C301.701 37.7251 300.393 38.4027 299.203 39.2572C298.531 39.9481 299.114 40.6202 299.382 41.2453ZM308.782 47.6749C308.114 48.1449 304.453 49.9074 304.364 49.9967C304.059 50.0918 303.736 50.108 303.424 50.0437C303.193 49.9753 302.979 49.8604 302.795 49.706C302.61 49.5515 302.46 49.361 302.352 49.146C301.816 48.206 301.595 47.7642 301.506 47.6279V45.4424C301.816 46.0675 302.131 46.6926 302.399 47.1391C303.292 48.8358 304.138 48.4786 304.585 48.253C305.031 48.0274 306.103 47.313 307.405 46.6926C308.706 46.0722 308.298 45.1275 308.072 44.728C307.983 44.5024 307.268 43.2522 306.554 41.8704C306.903 42.0451 307.26 42.202 307.625 42.3404C308.161 43.4543 309.191 45.6304 309.28 45.9547C309.515 46.7349 309.383 47.3177 308.8 47.6749H308.782Z" fill="#414141"/>
<path d="M304.115 44.5524C303.889 44.5524 303.442 44.3738 302.329 43.4808C302.302 43.4605 302.28 43.4351 302.263 43.4061C302.246 43.3771 302.235 43.3452 302.231 43.312C302.227 43.2788 302.229 43.2451 302.238 43.2128C302.246 43.1805 302.261 43.1502 302.282 43.1236C302.302 43.0971 302.327 43.0748 302.356 43.0581C302.385 43.0414 302.417 43.0305 302.45 43.0262C302.484 43.0218 302.517 43.024 302.55 43.0327C302.582 43.0413 302.612 43.0563 302.639 43.0766C303.068 43.4474 303.541 43.7632 304.049 44.0166C304.063 42.8009 303.943 41.5872 303.692 40.3977C303.68 40.3682 303.676 40.3365 303.68 40.3052C303.683 40.2738 303.694 40.2438 303.712 40.2176C303.729 40.1913 303.753 40.1697 303.78 40.1544C303.808 40.1391 303.839 40.1307 303.87 40.1298C303.9 40.1185 303.931 40.1144 303.963 40.1179C303.994 40.1214 304.024 40.1324 304.05 40.1499C304.076 40.1673 304.098 40.1909 304.113 40.2184C304.129 40.246 304.137 40.2768 304.138 40.3083C304.138 40.3083 304.317 41.2483 304.406 42.1883C304.627 44.0683 304.448 44.3315 304.27 44.4678C304.254 44.4949 304.231 44.5171 304.204 44.532C304.177 44.5469 304.146 44.554 304.115 44.5524Z" fill="white"/>
<path d="M335.327 36.5141C335.293 36.5127 335.259 36.504 335.228 36.4886C335.198 36.4732 335.17 36.4515 335.149 36.4248C335.125 36.3995 335.108 36.3695 335.098 36.3367C335.087 36.304 335.084 36.2693 335.089 36.2353C335.093 36.2012 335.105 36.1686 335.124 36.1396C335.142 36.1106 335.167 36.0861 335.196 36.0677C335.412 35.8837 335.673 35.7604 335.952 35.7104C336.006 35.7191 336.054 35.745 336.091 35.7842C336.128 35.8235 336.151 35.8738 336.156 35.9274C336.162 35.981 336.149 36.0349 336.121 36.0806C336.093 36.1264 336.05 36.1615 335.999 36.1804C335.828 36.2214 335.668 36.2983 335.529 36.406C335.417 36.5141 335.374 36.5141 335.327 36.5141Z" fill="#414141"/>
<path d="M344.173 34.6816C344.53 33.2058 346.137 31.824 345.959 29.8594C345.78 27.8948 343.994 27.0911 343.726 26.0195C343.322 24.4544 343.905 23.2512 342.744 22.001C341.851 21.014 341.089 21.5545 340.018 20.6145C339.078 19.8108 339.167 18.0671 337.428 17.3245C336.018 16.7417 334.57 17.3668 333.499 17.4138C332.089 17.4561 331.041 16.2529 329.212 16.2529C327.469 16.2529 326.707 17.6347 325.683 17.9026C324.118 18.3068 322.421 17.9496 321.039 19.1105C319.657 20.2714 319.563 22.5368 318.6 23.9656C317.707 25.2158 315.611 26.5083 315.31 28.5622C314.91 31.3305 317.007 32.67 316.696 34.7709C316.25 37.5909 316.071 41.9149 321.472 41.694C321.793 42.5365 322.329 43.2804 323.026 43.8517C323.724 44.4231 324.559 44.8021 325.448 44.9511C325.376 45.6174 325.241 46.2752 325.044 46.9157C325.028 46.9536 325.023 46.9956 325.032 47.0359C325.04 47.0762 325.061 47.113 325.091 47.1413C325.984 48.0813 326.971 48.6594 328.084 48.6594C328.784 48.6853 329.481 48.5678 330.134 48.3139C330.786 48.0601 331.379 47.6755 331.877 47.1836C331.935 47.1243 331.967 47.0451 331.967 46.9627C331.788 45.7125 331.656 43.9688 331.609 43.3437C332.15 44.0711 332.923 44.5919 333.8 44.8195C335.271 45.1297 336.521 45.2895 338.265 43.3014C339.825 41.4684 342.194 42.0512 343.402 40.5331C345.019 38.4792 343.726 36.6039 344.173 34.6816ZM334.97 37.5862C334.881 37.5862 334.838 37.6285 334.791 37.7178C334.481 38.4792 332.874 42.4507 331.266 42.9442C331.209 42.9587 331.158 42.9942 331.125 43.0437C331.092 43.0932 331.079 43.1533 331.088 43.2121C331.088 43.2544 331.219 45.4446 331.445 46.9721C330.508 47.773 329.326 48.2291 328.094 48.2646C327.608 48.236 327.132 48.1107 326.694 47.896C326.257 47.6813 325.867 47.3816 325.546 47.0144C325.716 46.3856 325.835 45.7444 325.904 45.0968C326.395 45.1597 326.893 45.1438 327.379 45.0498C327.516 45.0075 327.605 44.9182 327.558 44.7819C327.511 44.6456 327.426 44.561 327.29 44.6033C323.135 45.2284 321.843 41.3462 321.754 41.1676C321.396 40.049 320.861 36.9705 322.557 30.5362C324.301 29.8275 325.793 28.6149 326.844 27.0535C327.06 27.7793 327.458 28.4378 328 28.9664C328.893 29.8124 330.904 29.9064 331.53 30.4375C332.554 31.3775 332.78 32.8486 333.269 33.8779C333.673 34.6816 334.387 35.349 335.322 35.0811C336.483 34.7709 336.888 35.5511 336.93 35.8425C336.93 36.0681 336.845 37.5392 334.97 37.5862Z" fill="#414141"/>
<path d="M329.388 35.9007C329.458 35.9137 329.53 35.9102 329.601 35.8905C329.671 35.8707 329.738 35.8351 329.797 35.7857C329.857 35.7362 329.908 35.674 329.947 35.6026C329.987 35.5312 330.014 35.4521 330.027 35.3699C330.04 35.2877 330.039 35.2041 330.024 35.124C330.009 35.0439 329.98 34.9689 329.939 34.9033C329.897 34.8378 329.845 34.7831 329.784 34.7424C329.724 34.7017 329.656 34.6759 329.585 34.6664C329.515 34.6534 329.443 34.6569 329.372 34.6766C329.302 34.6963 329.235 34.732 329.176 34.7814C329.116 34.8308 329.065 34.8931 329.026 34.9645C328.986 35.0359 328.959 35.115 328.946 35.1972C328.933 35.2793 328.934 35.363 328.949 35.4431C328.964 35.5232 328.993 35.5982 329.034 35.6637C329.076 35.7293 329.128 35.784 329.189 35.8247C329.249 35.8653 329.317 35.8912 329.388 35.9007Z" fill="#414141"/>
<path d="M323.638 35.0305C323.709 35.0436 323.781 35.0401 323.851 35.0204C323.922 35.0006 323.989 34.965 324.048 34.9156C324.108 34.8661 324.159 34.8039 324.198 34.7325C324.238 34.6611 324.265 34.582 324.278 34.4998C324.291 34.4176 324.29 34.334 324.275 34.2539C324.259 34.1738 324.23 34.0987 324.189 34.0332C324.148 33.9677 324.096 33.913 324.035 33.8723C323.974 33.8316 323.907 33.8058 323.836 33.7963C323.766 33.7833 323.693 33.7867 323.623 33.8065C323.553 33.8262 323.486 33.8619 323.426 33.9113C323.367 33.9607 323.316 34.023 323.276 34.0944C323.237 34.1658 323.21 34.2449 323.197 34.3271C323.183 34.4092 323.185 34.4928 323.2 34.573C323.215 34.6531 323.244 34.7281 323.285 34.7936C323.326 34.8592 323.379 34.9139 323.439 34.9545C323.5 34.9952 323.568 35.0211 323.638 35.0305Z" fill="#414141"/>
<path d="M329.791 38.2557C329.791 38.4102 329.866 38.5585 330 38.6678C330.134 38.7771 330.316 38.8385 330.505 38.8385C330.695 38.8385 330.876 38.7771 331.01 38.6678C331.144 38.5585 331.22 38.4102 331.22 38.2557C331.22 38.1011 331.144 37.9528 331.01 37.8436C330.876 37.7343 330.695 37.6729 330.505 37.6729C330.316 37.6729 330.134 37.7343 330 37.8436C329.866 37.9528 329.791 38.1011 329.791 38.2557Z" fill="#FDAF31"/>
<path d="M322.403 37.8491C322.479 37.8661 322.557 37.8713 322.632 37.8645C322.707 37.8576 322.779 37.8388 322.841 37.8092C322.904 37.7796 322.958 37.7397 322.998 37.692C323.039 37.6442 323.066 37.5896 323.078 37.5312C323.09 37.4728 323.086 37.4119 323.068 37.3521C323.049 37.2923 323.016 37.2347 322.969 37.1828C322.923 37.1309 322.865 37.0857 322.798 37.05C322.732 37.0142 322.658 36.9885 322.582 36.9744C322.506 36.9574 322.428 36.9521 322.353 36.959C322.277 36.9658 322.206 36.9846 322.143 37.0142C322.08 37.0438 322.027 37.0837 321.987 37.1314C321.946 37.1792 321.919 37.2339 321.907 37.2922C321.895 37.3506 321.899 37.4115 321.917 37.4713C321.936 37.5312 321.969 37.5887 322.015 37.6406C322.062 37.6925 322.12 37.7377 322.186 37.7735C322.253 37.8093 322.327 37.835 322.403 37.8491Z" fill="#FDAF31"/>
</g>
<rect x="0.744521" y="0.744521" width="369.511" height="87.511" rx="10.2555" stroke="url(#paint1_linear_677_6063)" stroke-opacity="0.08" stroke-width="0.510959"/>
<defs>
<linearGradient id="paint0_linear_677_6063" x1="42.6629" y1="15.8085" x2="213.928" y2="76.5442" gradientUnits="userSpaceOnUse">
<stop stop-color="#003F88"/>
<stop offset="0.64989" stop-color="#03BCFF"/>
<stop offset="1" stop-color="#0076FF"/>
</linearGradient>
<linearGradient id="paint1_linear_677_6063" x1="46.6996" y1="12.9068" x2="365.747" y2="109.173" gradientUnits="userSpaceOnUse">
<stop stop-color="#003F88"/>
<stop offset="0.64989" stop-color="#02D4FF"/>
<stop offset="1" stop-color="#0076FF"/>
</linearGradient>
<clipPath id="clip0_677_6063">
<rect x="1" y="1" width="369" height="87" rx="10" fill="white"/>
</clipPath>
</defs>
</svg>
