<svg xmlns="http://www.w3.org/2000/svg" width="371" height="89" fill="none"><g clip-path="url(#a)"><rect width="369" height="87" x="1" y="1" fill="#E3F0FF" rx="10"/><path fill="#C8E2FF" d="M337.084 95c-80.754-2.138-99.279-5.056-103.162-9.992-3.409-5.165-3.409-5.165 36.104-33.833 17.91-12.983 46.236-33.544 55.445-42.336a691 691 0 0 0-69.91-7.65c-.93.2-1.897.096-2.765-.297a4.52 4.52 0 0 1-2.065-1.889 4.7 4.7 0 0 1-.631-2.353 4.7 4.7 0 0 1 .629-2.354 4.6 4.6 0 0 1 1.718-1.706 4.53 4.53 0 0 1 2.332-.589c1.184 0 80.115 3.483 82.174 13.884.746 5.933-6.451 12.695-61.695 52.76-10.654 7.687-22.183 16.094-28.8 21.258 21.248 3.05 81.049 5.249 90.886 5.921a4.54 4.54 0 0 1 2.964 1.537 4.67 4.67 0 0 1 1.144 3.171 4.67 4.67 0 0 1-1.323 3.101A4.54 4.54 0 0 1 337.084 95"/><path fill="url(#b)" d="M32.163 40.197H19.577V22.748h4.5v14.074h8.086zm15.445-5.8h-9.656q.094 1.546 1.172 2.367 1.09.82 3.2.82 1.335 0 2.59-.48 1.252-.48 1.98-1.032h.468v3.387q-1.43.574-2.695.832-1.266.258-2.8.258-3.962 0-6.071-1.781-2.11-1.782-2.11-5.075 0-3.257 1.993-5.156 2.004-1.91 5.484-1.91 3.21 0 4.828 1.629 1.617 1.617 1.617 4.664zm-4.195-2.473q-.035-1.325-.656-1.992-.621-.669-1.934-.668-1.218 0-2.004.633-.785.632-.879 2.027zM59 40.08q-.68.175-1.441.27-.763.105-1.864.105-2.46 0-3.668-.996-1.195-.995-1.195-3.41v-6.152h-1.734v-2.86h1.734v-3.762h4.219v3.762h3.949v2.86h-3.95v4.663q0 .693.013 1.208.011.515.187.925.164.41.574.657.423.234 1.219.234.329 0 .855-.14.54-.14.75-.259H59zm8.133-18.117-3.41 6.902H60.98l1.84-6.902zm13.804 14.062q0 2.04-1.828 3.293-1.827 1.243-5.004 1.242-1.757 0-3.187-.328-1.43-.327-2.297-.726v-3.469h.387q.316.223.726.492.422.258 1.184.563.657.27 1.488.468a8 8 0 0 0 1.781.188q1.243 0 1.84-.27.598-.28.598-.82 0-.48-.352-.691-.352-.224-1.336-.422-.468-.106-1.277-.223a15 15 0 0 1-1.453-.304q-1.793-.47-2.66-1.453-.867-.997-.867-2.473 0-1.9 1.793-3.152 1.804-1.266 4.922-1.266 1.476 0 2.824.305 1.36.293 2.12.632v3.328h-.362a8.4 8.4 0 0 0-2.145-1.043 7.4 7.4 0 0 0-2.426-.41q-1.02 0-1.722.282-.692.281-.692.796 0 .47.317.715.316.246 1.488.492.644.129 1.383.258a17 17 0 0 1 1.5.305q1.665.433 2.46 1.371.797.925.797 2.32m25.219-1.312q0 2.578-2.191 4.195-2.18 1.605-5.93 1.606-2.168 0-3.785-.375a20 20 0 0 1-3.012-.973v-4.184h.493q1.394 1.114 3.117 1.711 1.734.598 3.328.598.41 0 1.078-.07t1.09-.235a2.6 2.6 0 0 0 .844-.527q.339-.317.339-.937 0-.575-.492-.985-.48-.422-1.418-.644-.984-.235-2.086-.434-1.09-.21-2.05-.527-2.204-.716-3.176-1.934-.96-1.23-.961-3.047 0-2.437 2.18-3.972 2.19-1.547 5.624-1.547 1.724 0 3.399.34 1.688.328 2.918.832v4.019h-.481q-1.055-.843-2.589-1.406a8.8 8.8 0 0 0-3.118-.574q-.562 0-1.125.082-.55.07-1.066.28a2 2 0 0 0-.785.54 1.15 1.15 0 0 0-.328.808q0 .692.527 1.067.528.363 1.992.668.96.2 1.84.387a19 19 0 0 1 1.91.515q2.004.657 2.953 1.793.961 1.125.961 2.93m11.274 5.367q-.68.175-1.442.27-.762.105-1.863.105-2.461 0-3.668-.996-1.195-.995-1.195-3.41v-6.152h-1.735v-2.86h1.735v-3.762h4.218v3.762h3.95v2.86h-3.95v4.663q0 .693.012 1.208t.188.925q.163.41.574.657.421.234 1.219.234.328 0 .855-.14.54-.14.75-.259h.352zm10.5-3.316v-2.742a40 40 0 0 0-1.852.199q-.996.117-1.512.281-.632.2-.972.586-.328.375-.328.996 0 .41.07.668t.352.492q.269.234.644.352.375.105 1.172.105.633 0 1.277-.258a4 4 0 0 0 1.149-.68m0 2.039q-.34.258-.844.62a6 6 0 0 1-.949.575 5.8 5.8 0 0 1-1.289.41q-.669.14-1.465.14-1.875 0-3.141-1.16-1.265-1.16-1.265-2.964 0-1.441.644-2.356.645-.914 1.828-1.441 1.172-.528 2.906-.75a51 51 0 0 1 3.598-.328v-.07q0-1.09-.89-1.5-.891-.422-2.625-.422-1.044 0-2.227.375a28 28 0 0 0-1.699.562h-.387v-3.176q.668-.176 2.168-.41a19 19 0 0 1 3.023-.246q3.598 0 5.192 1.113 1.605 1.102 1.605 3.47v8.952h-4.183zm17.601-7.746h-.375q-.268-.095-.867-.141a13 13 0 0 0-.996-.047 9.6 9.6 0 0 0-1.594.117 9 9 0 0 0-1.488.399v8.812h-4.219v-13.16h4.219v1.934q1.395-1.196 2.426-1.582 1.03-.399 1.898-.399.224 0 .504.012.282.012.492.035zm10.805 9.023q-.68.175-1.441.27a14 14 0 0 1-1.864.105q-2.46 0-3.668-.996-1.195-.995-1.195-3.41v-6.152h-1.734v-2.86h1.734v-3.762h4.219v3.762h3.949v2.86h-3.949v4.663q0 .693.011 1.208.012.515.188.925.164.41.574.657.422.234 1.219.234.329 0 .855-.14.54-.14.75-.259h.352z"/><path fill="#384F69" d="m25.401 55.473-3.175 8.724h-1.547l-3.176-8.724h1.242l2.736 7.675 2.737-7.675zm1.94 1.084H26.1v-1.143h1.242zm-.07 7.64h-1.102v-6.545h1.102zm7.178-3.158h-4.822q0 .603.182 1.055.18.445.498.732.304.282.72.422.422.14.926.14a3.7 3.7 0 0 0 1.342-.263q.68-.27.967-.527h.058v1.2q-.556.236-1.136.393a4.6 4.6 0 0 1-1.22.159q-1.628 0-2.542-.88-.915-.884-.914-2.507 0-1.605.873-2.549.879-.943 2.308-.943 1.325 0 2.04.773.72.774.72 2.197zm-1.072-.844q-.005-.867-.44-1.342-.427-.474-1.306-.474-.885 0-1.412.521-.522.522-.592 1.295zm10.494-2.543-1.705 6.545h-1.02l-1.68-5.045-1.67 5.045h-1.014l-1.723-6.545h1.149l1.2 5.069 1.635-5.069h.909l1.675 5.069 1.137-5.069zm11.11-2.18-3.07 4.9v3.825h-1.16v-3.703l-3.082-5.021h1.284l2.384 3.902 2.408-3.902zm5.456 5.456q0 1.6-.82 2.525-.821.926-2.197.926-1.389 0-2.21-.926-.813-.926-.814-2.525 0-1.6.815-2.526.82-.93 2.209-.931 1.377 0 2.197.931.82.926.82 2.526m-1.136 0q0-1.272-.498-1.887-.498-.621-1.383-.621-.897 0-1.395.621-.492.616-.492 1.887 0 1.23.498 1.869.498.633 1.389.633.879 0 1.377-.627.504-.633.504-1.875m7.793 3.27h-1.101v-.727a5.4 5.4 0 0 1-1.067.673 2.7 2.7 0 0 1-1.125.235q-1.031 0-1.605-.627-.575-.633-.575-1.852v-4.248h1.102v3.727q0 .498.047.855.046.352.2.604a.95.95 0 0 0 .41.375q.25.117.732.117.427 0 .931-.223.51-.222.95-.568v-4.887h1.101zm5.772-5.344h-.058a4.366 4.366 0 0 0-1.025-.111q-.51 0-.985.228a4.4 4.4 0 0 0-.914.58v4.646h-1.102v-6.545h1.102v.967q.656-.527 1.154-.744a2.5 2.5 0 0 1 1.025-.223q.287 0 .416.018.129.012.387.053zm10.09-.745q0 .58-.204 1.078a2.55 2.55 0 0 1-.563.856q-.45.45-1.066.68-.615.222-1.553.222h-1.16v3.252h-1.16v-8.724h2.367q.785 0 1.33.134.545.13.967.41.498.334.767.833.276.498.276 1.26m-1.206.03q0-.451-.158-.786a1.3 1.3 0 0 0-.48-.544 1.9 1.9 0 0 0-.645-.258 4.2 4.2 0 0 0-.909-.082H78.41v3.486h.978q.704 0 1.143-.123.44-.128.715-.404.275-.282.387-.592.117-.311.117-.697m6.967 6.058h-1.096V63.5q-.146.1-.398.281a3.155 3.155 0 0 1-1.113.504 3.3 3.3 0 0 1-.838.094q-.885 0-1.5-.586t-.616-1.494q0-.745.317-1.201.323-.463.914-.727.597-.264 1.436-.357.838-.095 1.798-.141v-.17q0-.375-.134-.621a.94.94 0 0 0-.375-.387 1.6 1.6 0 0 0-.563-.181 5 5 0 0 0-.685-.047q-.435 0-.967.117a7 7 0 0 0-1.102.328h-.058v-1.119q.322-.088.931-.193.61-.106 1.201-.106.692 0 1.202.117.515.112.89.387.37.27.563.697.193.428.193 1.06zm-1.096-1.611v-1.822q-.504.029-1.19.088a6 6 0 0 0-1.077.17q-.475.135-.768.421-.293.282-.293.78 0 .562.34.85.34.28 1.037.28.58 0 1.06-.222.481-.229.891-.545m8.304-4.934-3.82 8.96h-1.178l1.218-2.731-2.607-6.229h1.195l2.01 4.852 2.027-4.852zm5.637 4.658q0 .897-.744 1.471-.739.575-2.022.575-.726 0-1.336-.17a6 6 0 0 1-1.013-.381v-1.237h.058q.522.393 1.16.627a3.6 3.6 0 0 0 1.225.229q.726 0 1.137-.234.41-.235.41-.739 0-.387-.223-.586-.222-.2-.855-.34a17 17 0 0 0-.616-.123 10 10 0 0 1-.685-.152q-.862-.228-1.225-.668-.357-.445-.357-1.09 0-.405.164-.761.17-.358.51-.64.328-.274.832-.433.51-.165 1.136-.164.587 0 1.184.147.603.14 1.002.345v1.178h-.059a3.9 3.9 0 0 0-1.025-.521 3.5 3.5 0 0 0-1.184-.217q-.603 0-1.02.234-.415.229-.415.686 0 .404.252.61.246.204.797.333.305.07.68.14.38.071.632.13.768.175 1.184.603.416.434.416 1.148m2.215 1.887h-1.101V55.08h1.101zm2.883-7.64h-1.242v-1.143h1.242zm-.07 7.64h-1.102v-6.545h1.102zm7.459-3.351q0 .796-.228 1.459a3.2 3.2 0 0 1-.645 1.113 2.666 2.666 0 0 1-2.021.908q-.51 0-.926-.111a3.9 3.9 0 0 1-.838-.346v2.742h-1.101v-8.959h1.101v.686q.44-.369.985-.615a2.8 2.8 0 0 1 1.172-.252q1.184 0 1.839.896.662.89.662 2.479m-1.136.029q0-1.184-.405-1.77-.403-.585-1.242-.585-.474 0-.955.205a4.3 4.3 0 0 0-.92.539v3.709q.469.21.803.287.34.075.768.076.92 0 1.435-.621.516-.621.516-1.84m11.198 3.322h-1.096V63.5q-.146.1-.398.281a3 3 0 0 1-.481.282 3.332 3.332 0 0 1-1.47.316q-.885 0-1.5-.586t-.616-1.494q0-.745.317-1.201.322-.463.914-.727.597-.264 1.435-.357.839-.095 1.799-.141v-.17q0-.375-.134-.621a.94.94 0 0 0-.375-.387 1.6 1.6 0 0 0-.563-.181 5 5 0 0 0-.686-.047q-.434 0-.966.117a7 7 0 0 0-1.102.328h-.058v-1.119q.321-.088.931-.193t1.201-.106q.692 0 1.201.117.516.112.891.387.37.27.563.697.193.428.193 1.06zm-1.096-1.611v-1.822q-.504.029-1.189.088a6 6 0 0 0-1.078.17q-.475.135-.768.421-.293.282-.293.78 0 .562.34.85.34.28 1.037.28.58 0 1.061-.222.48-.229.89-.545m8.21 1.611h-1.102v-3.726q0-.451-.053-.844-.052-.399-.193-.621a.88.88 0 0 0-.422-.363q-.275-.124-.715-.123-.45 0-.943.222a4.8 4.8 0 0 0-.943.569v4.886h-1.102v-6.545h1.102v.727a4.5 4.5 0 0 1 1.066-.668q.55-.24 1.131-.24 1.06 0 1.617.638.557.64.557 1.84zm6.949 0h-1.101v-.685a4 4 0 0 1-.99.638 2.7 2.7 0 0 1-1.12.229q-1.172 0-1.863-.902-.685-.903-.685-2.502 0-.833.234-1.483a3.5 3.5 0 0 1 .645-1.107 2.7 2.7 0 0 1 2.027-.914q.516 0 .914.111.399.106.838.334V55.08h1.101zm-1.101-1.611V58.83a4 4 0 0 0-.797-.275 3.6 3.6 0 0 0-.768-.077q-.925 0-1.441.645t-.516 1.828q0 1.166.399 1.776.398.603 1.277.603.47 0 .949-.205.482-.21.897-.54m13.987-2.742q0 1.189-.521 2.156-.516.968-1.377 1.5a4.3 4.3 0 0 1-1.336.533q-.733.165-1.934.164h-2.203v-8.724h2.18q1.277 0 2.027.187.756.182 1.277.504a3.9 3.9 0 0 1 1.389 1.483q.498.926.498 2.197m-1.213-.018q0-1.025-.357-1.728a2.62 2.62 0 0 0-1.067-1.108 3.6 3.6 0 0 0-1.095-.404 7 7 0 0 0-1.389-.117h-1.09V63.2h1.09q.838 0 1.459-.123a3.3 3.3 0 0 0 1.148-.457q.65-.416.973-1.096.328-.68.328-1.699m8.098 1.102q0 1.6-.82 2.525-.82.926-2.197.926-1.389 0-2.209-.926-.815-.926-.815-2.525 0-1.6.815-2.526.82-.93 2.209-.931 1.377 0 2.197.931.82.926.82 2.526m-1.136 0q0-1.272-.498-1.887-.498-.621-1.383-.621-.897 0-1.395.621-.492.616-.492 1.887 0 1.23.498 1.869.498.633 1.389.633.879 0 1.377-.627.504-.633.504-1.875m10.6-3.276-1.705 6.545h-1.02l-1.682-5.045-1.669 5.045h-1.014l-1.723-6.545h1.149l1.201 5.069 1.635-5.069h.908l1.676 5.069 1.136-5.069zm6.58 6.545h-1.101v-3.726q0-.451-.053-.844-.053-.399-.193-.621a.88.88 0 0 0-.422-.363q-.276-.124-.715-.123-.451 0-.943.222a4.8 4.8 0 0 0-.944.569v4.886h-1.101v-6.545h1.101v.727a4.5 4.5 0 0 1 1.067-.668 2.8 2.8 0 0 1 1.13-.24q1.061 0 1.618.638.556.64.556 1.84zm2.755 0h-1.102V55.08h1.102zm7.277-3.27q0 1.6-.82 2.526t-2.197.926q-1.389 0-2.209-.926-.815-.926-.815-2.525 0-1.6.815-2.526.82-.93 2.209-.931 1.377 0 2.197.931.82.926.82 2.526m-1.136 0q0-1.27-.498-1.886-.498-.621-1.383-.621-.897 0-1.395.621-.492.616-.492 1.887 0 1.23.498 1.869.498.633 1.389.633.879 0 1.377-.627.504-.633.504-1.875m7.453 3.27h-1.095V63.5q-.147.1-.399.281a3.172 3.172 0 0 1-1.113.504 3.3 3.3 0 0 1-.838.094q-.885 0-1.5-.586t-.615-1.494q0-.745.316-1.201.323-.463.914-.727.598-.264 1.436-.357a29 29 0 0 1 1.799-.141v-.17q0-.375-.135-.621a.94.94 0 0 0-.375-.387 1.6 1.6 0 0 0-.563-.181 5 5 0 0 0-.685-.047q-.434 0-.967.117a7 7 0 0 0-1.102.328h-.058v-1.119q.322-.088.931-.193.61-.106 1.202-.106.691 0 1.201.117.515.112.89.387.37.27.563.697.193.428.193 1.06zm-1.095-1.611v-1.822q-.504.029-1.19.088a6 6 0 0 0-1.078.17q-.474.135-.768.421-.293.282-.293.78 0 .562.34.85.34.28 1.037.28.58 0 1.061-.222.48-.229.891-.545m8.045 1.611h-1.102v-.685a4 4 0 0 1-.99.638 2.7 2.7 0 0 1-1.119.229q-1.171 0-1.863-.902-.686-.903-.686-2.502 0-.833.235-1.483.24-.65.644-1.107a2.7 2.7 0 0 1 2.027-.914q.516 0 .915.111.397.106.837.334V55.08h1.102zm-1.102-1.611V58.83a4 4 0 0 0-.796-.275 3.6 3.6 0 0 0-.768-.077q-.926 0-1.441.645-.516.645-.516 1.828 0 1.166.398 1.776.399.603 1.278.603.469 0 .949-.205.48-.21.896-.54"/><path fill="#FDAF31" d="M358.15 40.756c0 1.833-1.029 3.262-3.29 3.394-1.917.089-3.29-1.518-3.29-3.394a3.307 3.307 0 0 1 6.613 0zM350.744 23.384c.29.17.62.265.972.277.351.013.718-.056 1.077-.203a3.5 3.5 0 0 0 1.019-.652 4.2 4.2 0 0 0 .804-1.001c.218-.378.376-.784.466-1.197.089-.413.108-.824.055-1.209a2.6 2.6 0 0 0-.363-1.035 2.05 2.05 0 0 0-.726-.703 2.04 2.04 0 0 0-.971-.277 2.6 2.6 0 0 0-1.078.203 3.5 3.5 0 0 0-1.019.653 4.2 4.2 0 0 0-.803 1.001 4.2 4.2 0 0 0-.466 1.197 3.5 3.5 0 0 0-.055 1.209c.053.385.176.737.363 1.035s.433.537.725.702M335.395 10.075c.643.108 1.317-.13 1.875-.665.558-.534.953-1.32 1.099-2.184s.03-1.736-.321-2.424c-.352-.687-.91-1.135-1.553-1.243a1.9 1.9 0 0 0-.97.091 2.6 2.6 0 0 0-.905.574 3.6 3.6 0 0 0-.704.968 4.3 4.3 0 0 0-.395 1.216 4.3 4.3 0 0 0-.026 1.278c.055.415.173.805.347 1.145s.401.626.667.84c.267.213.568.35.886.404M313.851 11.479a5.1 5.1 0 0 0 1.104 1.038c.41.282.845.488 1.282.606.436.118.865.145 1.261.08s.751-.22 1.046-.457a2.2 2.2 0 0 0 .668-.926c.147-.373.211-.798.189-1.25a4.2 4.2 0 0 0-.321-1.38 5.2 5.2 0 0 0-.781-1.3 5.2 5.2 0 0 0-1.105-1.037 4.2 4.2 0 0 0-1.281-.607 3 3 0 0 0-1.262-.08c-.396.065-.751.22-1.045.458a2.2 2.2 0 0 0-.669.925 3 3 0 0 0-.188 1.25c.022.451.132.92.321 1.38s.454.902.781 1.3M306.258 28.727c-1.565 1.34-3.529 1.476-5.226-.357-1.471-1.523-1.072-3.873.494-5.208a3.65 3.65 0 0 1 4.124-.601 3.65 3.65 0 0 1 2.008 3.652 3.65 3.65 0 0 1-1.4 2.514"/><path fill="#414141" d="M358.151 39.536a3.49 3.49 0 0 0-3.914-2.321 3.49 3.49 0 0 0-2.878 3.524 3.42 3.42 0 0 0 .988 2.555 3.42 3.42 0 0 0 2.542 1.018c2.143-.029 4.155-1.547 3.262-4.776m-3.29-1.964a3.09 3.09 0 0 1 2.904 2.054 2.75 2.75 0 0 1-.625 2.35c-1.697 1.922-3.929.85-4.465.404a2.415 2.415 0 0 1-.851-1.88c-.061-1.264 1.41-2.914 3.018-2.914zm0 6.34a2.8 2.8 0 0 1-2.097-.761l-.225-.221c.583.4 3.44 1.739 5.273-1.161-.334 1.306-1.358 2.068-2.97 2.157zM354.128 17.488c-1.293-.761-3.168 0-4.108 1.65-.668 1.208-.757 2.547-.221 3.487a2.25 2.25 0 0 0 1.964 1.203 3.6 3.6 0 0 0 2.99-1.964c.977-1.655.672-3.62-.625-4.376m-3.76 1.88a3.2 3.2 0 0 1 2.636-1.743c1.786 0 1.41 2.41.846 3.44-.846 1.476-2.989 2.19-3.703 1.41a3.28 3.28 0 0 1 .23-3.112zm4.027 2.308c-.846 1.476-2.453 2.143-3.572 1.518-.042 0-.042-.042-.089-.042q.22.052.447.042c1.118 0 3.708-1.114 3.572-4.376a3.33 3.33 0 0 1-.358 2.858M336.803 3.422c-1.965-.47-3.125 1.56-3.393 2.632a3.97 3.97 0 0 0 .667 3.488 2.24 2.24 0 0 0 2.726.446 3.56 3.56 0 0 0 1.65-2.41c.493-1.88-.221-3.845-1.65-4.156m-2.994 2.745c.226-.94 1.297-2.5 2.411-2.41 1.208.088 1.518 2.1 1.208 3.261a3.47 3.47 0 0 1-1.476 2.19 1.5 1.5 0 0 1-1.56.132 3.63 3.63 0 0 1-.583-3.173m4.287 1.344a3.36 3.36 0 0 1-1.472 2.144 1.7 1.7 0 0 1-1.386.178c-.042 0-.042-.047-.089-.047.351-.019.69-.133.982-.329a3.758 3.758 0 0 0 1.697-2.411 4.4 4.4 0 0 0-.09-2.416c.486.87.614 1.895.358 2.858zM319.028 12.488c.94-1.207.714-3.261-.625-4.822a4.7 4.7 0 0 0-3.036-1.701 2.6 2.6 0 0 0-1.937.583c-1.255 1.16-1.118 3.44.31 5.137a4.45 4.45 0 0 0 3.037 1.696c1.654.09 2.143-.761 2.232-.893zm-.94-4.554c1.114 1.471 1.41 3.215.625 4.286-1.156.527-2.764 0-3.873-1.353-1.109-1.354-1.41-3.215-.625-4.291 1.02-.743 3.074.286 3.878 1.358zm-1.246 5.043a4.23 4.23 0 0 1-2.768-1.518c-1.208-1.382-1.41-3.215-.672-4.286-.357 1.208.047 2.726 1.072 3.929a4.45 4.45 0 0 0 3.261 1.697h.179a1.65 1.65 0 0 1-1.072.178M306.883 23.432a3.8 3.8 0 0 0-2.637-1.34 3.97 3.97 0 0 0-2.857.94 3.9 3.9 0 0 0-1.471 2.877 3.55 3.55 0 0 0 .94 2.637 3.86 3.86 0 0 0 2.904 1.41 4.08 4.08 0 0 0 2.59-1.072 3.84 3.84 0 0 0 1.382-2.636 3.606 3.606 0 0 0-.851-2.815m-5.715 4.827a3.12 3.12 0 0 1-.851-2.35q.01-.241.089-.47c.077.94.452 1.832 1.072 2.543a3.8 3.8 0 0 0 2.905 1.34c.318 0 .634-.044.94-.132-1.434.714-2.905.404-4.155-.93m6.204-2.011c-.054.498-.214.979-.47 1.41a3.37 3.37 0 0 1-2.501 1.208 3.4 3.4 0 0 1-2.589-1.208 4.23 4.23 0 0 1-.983-2.322c-.131-1.161 1.298-3.036 3.126-2.82a3.757 3.757 0 0 1 3.417 3.727zM307.283 17.134s-1.965-.405-2.35-.536a.2.2 0 0 1-.073-.04.2.2 0 0 1-.051-.066.2.2 0 0 1-.022-.08.2.2 0 0 1 .009-.082.22.22 0 0 1 .106-.124.21.21 0 0 1 .162-.012c.358.136 2.28.493 2.28.493.089 0 .178.132.178.22-.061.18-.15.227-.239.227M307.193 15.613a20.6 20.6 0 0 1-2.185-1.744c-.09-.09-.09-.22 0-.268.089-.047.22-.09.267 0a20 20 0 0 0 2.007 1.654c.09.043.09.18.047.268-.042.09-.089.09-.136.09M343.637 13.781a.21.21 0 0 1-.139-.101.2.2 0 0 1-.017-.171.2.2 0 0 1 .115-.128.22.22 0 0 1 .173 0 2.19 2.19 0 0 0 2.19-.671 2 2 0 0 1-.672-.715 2.08 2.08 0 0 1 .089-1.964c.536-.757 1.34-.221 1.565.315a2.427 2.427 0 0 1-.357 2.233c.399.178 2.543.667 2.768-1.655 0-.132.132-.179.221-.179s.179.137.179.226c-.221 1.739-1.25 2.143-1.829 2.232a2.9 2.9 0 0 1-1.593-.268 2.64 2.64 0 0 1-2.693.846m2.054-3.482a1.47 1.47 0 0 0-.047 1.518c.114.245.301.449.536.583a2.12 2.12 0 0 0 .315-1.88c-.047-.264-.494-.62-.804-.221M355.56 30.305a.29.29 0 0 1-.225-.178.205.205 0 0 1 .178-.226c.09 0 1.965-.22 2.35-.22a.22.22 0 0 1 .138.075.22.22 0 0 1 .055.147.22.22 0 0 1-.055.148.22.22 0 0 1-.138.076q-1.156.03-2.303.178M358.551 32.67a27 27 0 0 0-2.501-.982.2.2 0 0 1-.076-.04.2.2 0 0 1-.055-.065.2.2 0 0 1-.024-.083.2.2 0 0 1 .054-.159.21.21 0 0 1 .238-.053q1.28.413 2.5.982a.2.2 0 0 1 .094.118.2.2 0 0 1-.005.15c-.089.132-.136.132-.225.132"/><path fill="#fff" d="M357.211 39.773c0-.089-.132-.131-.221-.131l-.404.09a1.07 1.07 0 0 0-.418-.7 1.06 1.06 0 0 0-.79-.194c-.578.09-.715.715-.757 1.34l-1.518.357a1.06 1.06 0 0 1 .47-.94.156.156 0 0 0 .094-.09.2.2 0 0 0 .012-.066.2.2 0 0 0-.017-.065.162.162 0 0 0-.225-.09 1.55 1.55 0 0 0-.626 1.34l-.47.09c-.089 0-.131.131-.131.22 0 .09.089.137.179.137l.47-.09a1.24 1.24 0 0 0 1.203.94c.761-.089.85-.803.94-1.41l1.386-.31q.037.334 0 .667c0 .09.042.18.132.18.089 0 .178-.043.178-.133a3.6 3.6 0 0 0 0-.76l.405-.09a.4.4 0 0 0 .085-.134.4.4 0 0 0 .023-.158m-3.173 1.786c-.578 0-.893-.667-.893-.667l1.476-.357c-.089.667-.179 1.024-.583 1.024m.983-1.41c0-1.25.897-.893 1.029-.756a.85.85 0 0 1 .225.446zM353.727 19.185a3 3 0 0 0-.536-.404l.179-.268c.042-.089.042-.178-.047-.22s-.179-.048-.221.042l-.225.315a.94.94 0 0 0-1.161.22c-.221.315-.09.715.089 1.208l-.804 1.072a.47.47 0 0 1-.221-.493c.043-.09-.047-.18-.136-.221-.089-.043-.179.042-.221.131a.9.9 0 0 0 .357.898l-.225.31c-.043.09-.043.179.047.226.089.047.131.042.221-.047l.268-.358c.165.087.349.134.535.137a.75.75 0 0 0 .672-.357 1.3 1.3 0 0 0-.089-1.208l.757-1.03c.268.179.47.358.47.358a.19.19 0 0 0 .221 0 .29.29 0 0 0 .07-.31m-1.696 1.918a.54.54 0 0 1-.673.136l.611-.85c.107.222.129.476.062.714m0-1.41c-.226-.268-.226-1.114.578-.804zM336.803 5.296a1.44 1.44 0 0 0-.672-.404l.089-.268a.2.2 0 0 0 .02-.067.173.173 0 0 0-.045-.129.17.17 0 0 0-.126-.053.17.17 0 0 0-.124.057.2.2 0 0 0-.035.06l-.136.357h-.357a.76.76 0 0 0-.668.579c-.178.535.132.893.47 1.207l-.399 1.298a.54.54 0 0 1-.268-.536c0-.09-.047-.179-.136-.179s-.179.043-.179.132a.9.9 0 0 0 .47.94l-.089.31a.2.2 0 0 0-.017.066.2.2 0 0 0 .012.067.16.16 0 0 0 .094.093s.179.042.221-.09l.089-.315c.1.039.208.055.315.047a.986.986 0 0 0 .982-.672c.221-.667-.714-1.25-.714-1.25l.399-1.297c.207.049.393.158.536.315a.16.16 0 0 0 .104.07.16.16 0 0 0 .122-.028.391.391 0 0 0 .042-.31m-1.697 2.75.4-1.204c1.25.733.136 1.537-.4 1.203m.221-1.787a.61.61 0 0 1-.106-.923.6.6 0 0 1 .299-.176h.179zM318.003 11.192l.132-.132a1.224 1.224 0 0 0 .047-1.607c-.47-.625-1.03-.47-1.565-.268l-1.025-1.41c.214-.13.468-.176.714-.132.09 0 .179-.047.179-.136s-.047-.179-.136-.179a1.48 1.48 0 0 0-.94.226l-.226-.315a.14.14 0 0 0-.043-.046.15.15 0 0 0-.121-.023.2.2 0 0 0-.057.027.15.15 0 0 0-.071.163q.006.03.024.058l.226.314a2.7 2.7 0 0 0-.357.4 1.14 1.14 0 0 0 0 1.386c.47.757 1.203.4 1.739.132l1.029 1.476a1.34 1.34 0 0 1-1.114.211.17.17 0 0 0-.136-.01.17.17 0 0 0 .004.32 1.57 1.57 0 0 0 1.471-.178l.179.226a.2.2 0 0 0 .226.042.15.15 0 0 0 .042-.221zm-2.994-1.88c-.47-.47.179-1.25.315-1.34l.982 1.41c-.625.292-.94.339-1.297-.066zm2.858.357a.856.856 0 0 1-.043 1.16l-.047.048-.982-1.41c.447-.15.804-.193 1.072.207zM306.746 26.288l-.366-.136c.047-.132.47-1.472-.893-1.786-.668-.179-.982.47-1.25.982l-1.697-.668c.179-.314.404-.582.625-.625a.26.26 0 0 0 .136-.225.25.25 0 0 0-.211-.132 1.73 1.73 0 0 0-.846.846l-.404-.131a.17.17 0 0 0-.208.095.17.17 0 0 0 .076.215l.31.136a1.27 1.27 0 0 0 .715 1.739c.94.404 1.339-.22 1.654-.846l1.523.578a1.02 1.02 0 0 1-.893.625c-.089 0-.179.047-.179.137 0 .089.043.178.132.178a1.31 1.31 0 0 0 1.25-.85l.47.178a.22.22 0 0 0 .179-.09.33.33 0 0 0-.123-.22m-3.882 0a1.03 1.03 0 0 1-.536-1.297l1.702.625c-.273.625-.541.94-1.166.672m1.636-.85c.268-.537.446-.847.851-.758 1.024.18.667 1.25.667 1.34zM348.501 92.379h-45.637c-2.101 0-4.601-1.922-4.601-4.019l.042-25.544c0-2.28 1.88-4.87 4.155-4.87l46.845.18a4.176 4.176 0 0 1 4.018 4.154V87.6a4.79 4.79 0 0 1-2.982 4.424 4.8 4.8 0 0 1-1.84.355"/><path fill="#414141" d="M303.71 92.647q-5.687-.132-5.762-5.226c-.043-4.508.136-23.176.136-24.248a8.35 8.35 0 0 1 .714-3.172 3.8 3.8 0 0 1 3.53-2.35.22.22 0 0 1 .138.076.22.22 0 0 1 .055.147.22.22 0 0 1-.055.148.22.22 0 0 1-.138.075c-3.44 0-3.76 4.23-3.798 5.09-.042 1.03-.225 19.694-.131 24.206.042 3.078 1.786 4.643 5.269 4.732 2.143.043 40.683.043 44.297 0 3.393-.047 5.17-2.857 5.17-4.333 0-.22.047-20.36-.042-24.74-.137-4.644-3.126-4.597-4.423-4.597-.089 0-.446.042-.446-.226s.357-.22.446-.22c1.297 0 4.78-.048 4.912 5.042.136 4.38.047 24.52.047 24.788a4.92 4.92 0 0 1-1.41 3.036 5.89 5.89 0 0 1-4.198 1.786z"/><path fill="#7BD2FF" d="M309.515 56.563a.42.42 0 0 0 .523.122.4.4 0 0 0 .149-.122c1.833-2.5 10.984-13.935 23.533-10.495 13.799 3.798 15.228 14.692 15.228 16.836.047 7.726-7.323 14.823-9.692 17.596a.41.41 0 0 1-.578.043c-.672-.579-2.279-1.74-2.994-2.769a.41.41 0 0 1-.042-.47c.804-1.565 5.64-11.073 5.49-12.948-.132-1.79-2.322-5.363-2.858-6.209a.4.4 0 0 0-.357-.178l-18.753-.09a.389.389 0 0 0-.357.22c-.715 1.477-4.959 9.401-10.585 7.991-4.7-1.16-7.144-12.906-7.52-15.717a.399.399 0 0 1 .31-.47l4.376-.808a.395.395 0 0 1 .47.268c.489 1.08 2.049 4.831 3.657 7.2"/><path fill="#fff" d="M309.425 45.754c-.089-.221-.846-1.829-1.786-3.662.228.085.473.116.714.09.268-.132 0-1.204-.756-1.608a1.4 1.4 0 0 0-.748-.099c-.667-1.381-1.339-2.632-1.696-3.214-.94-1.65-1.829-1.293-2.186-1.161s-4.108 2.026-4.751 2.331c-1.237.635-.668 1.697-.536 2.044.131.348 4.422 8.752 4.422 8.752a1.89 1.89 0 0 0 1.101 1.01 1.88 1.88 0 0 0 1.489-.112c.315-.179 2.501-1.255 3.84-2.012a1.88 1.88 0 0 0 .893-2.36"/><path fill="#005BC3" d="M313.985 70.72a.41.41 0 0 0-.117-.287.4.4 0 0 0-.287-.117c-4.512-.22-8.46-.09-9.645-.042a.4.4 0 0 0-.404.4c-.042 2.1 0 5.09 0 6.161a.39.39 0 0 0 .249.375q.075.03.155.03c2.322.089 8.079 0 9.602 0a.4.4 0 0 0 .4-.405c.089-1.518.047-4.954.047-6.115"/><path fill="#414141" d="M312.105 82.375a.29.29 0 0 0-.268-.268c-1.161 0-6.204-.047-8.037 0a.29.29 0 0 0-.268.268c0 .4-.042 1.25 0 1.74a.286.286 0 0 0 .268.267c.982 0 4.643.09 8.084.09a.286.286 0 0 0 .268-.268c0-.447 0-1.293-.047-1.829M323.986 82.375a.286.286 0 0 0-.268-.268c-1.161 0-6.208-.047-8.037 0a.286.286 0 0 0-.268.268c0 .4-.047 1.25 0 1.74a.29.29 0 0 0 .268.267c.983 0 4.597 0 8.037.047a.29.29 0 0 0 .268-.268z"/><path fill="#FDAF31" d="M335.99 78.076a8 8 0 0 0 2.054 2.058s-.358 2.454-1.34 3.079c0 0 .536 2.82.089 2.857-.446.038-1.25-1.786-1.25-1.786s-.136 2.322-.404 2.35-.846-.225-.982-2.143c0 0-.983 1.918-1.25 1.88-.268-.037-.536-.47-.447-1.25 0 0-.846.268-.625-1.119.221-1.386 1.476-3.167 1.476-3.167s-1.208.4-1.25.089c-.043-.31.846-1.208 2.35-1.41a10.3 10.3 0 0 1 1.579-1.438"/><path fill="#414141" d="M338.34 80.234a.37.37 0 0 0-.09-.225 10.7 10.7 0 0 1-2.053-1.965c-.09-.09-.226-.136-.315-.047-.53.37-1.023.79-1.471 1.255-1.608.47-2.501 1.25-2.637 1.65-.042.136.047.493 1.118.357-.178.315-.357.583-.493.85h-4.573a.286.286 0 0 0-.268.268c0 .4-.042 1.25 0 1.74a.286.286 0 0 0 .268.267h3.797c.043 1.298.536 1.119.668 1.072.089 1.03.493 1.16.625 1.208.132.047.47.09 1.072-1.41.047.625.493 1.786 1.029 1.697.536-.09.578-.94.667-1.965.357.761.804 1.41 1.208 1.34.089 0 .668-.221.042-2.947 1.119-1.072 1.34-3.055 1.406-3.145m-6.03.578c0-.178.672-.535 1.339-.846a6 6 0 0 0-.47.668c-.284.11-.584.17-.888.178zm4.197 2.35a.35.35 0 0 0-.09.221c.179.94.47 2.411.268 2.458-.221-.047-.625-.982-.94-1.786.067-.474.187-.939.358-1.386a.244.244 0 0 0-.134-.313.24.24 0 0 0-.313.134c0 .047-.536 1.655-.493 2.5a6.8 6.8 0 0 1-.179 1.519 1 1 0 0 1-.221-.221c-.179-.226-.536-.94-.268-2.35a12.5 12.5 0 0 1 .668-1.828.242.242 0 0 0-.396-.257.3.3 0 0 0-.051.078c0 .042-.357.846-.667 1.88s-.851 2.411-1.208 2.322c-.221-.047-.179-.672-.132-1.03a12.8 12.8 0 0 1 1.561-3.614.23.23 0 0 0 .066-.175.231.231 0 0 0-.177-.205.225.225 0 0 0-.247.112 13.6 13.6 0 0 0-1.649 3.704c-.09.047-.315.09-.226-.668.226-1.696 1.697-4.197 3.84-5.715a11.3 11.3 0 0 0 1.922 1.786c-.061.442-.399 2.002-1.311 2.853zM348.234 82.375a.286.286 0 0 0-.268-.268c-1.161 0-6.204-.047-8.037 0a.286.286 0 0 0-.268.268c0 .4-.047 1.25 0 1.74a.286.286 0 0 0 .268.267c.982 0 4.601 0 8.037.047a.286.286 0 0 0 .268-.268c0-.446.047-1.25 0-1.786M305.96 48.289a.3.3 0 0 0 .095.102.4.4 0 0 0 .134.057q.074.014.152.002a.45.45 0 0 0 .343-.288.327.327 0 0 0-.253-.438.448.448 0 0 0-.495.286.4.4 0 0 0-.018.145.3.3 0 0 0 .042.133"/><path fill="#fff" d="M322.468 29.95s-2.322 6.697-1.029 11.28c.893 3.167 4.23 3.571 4.23 3.571a8.3 8.3 0 0 1-.47 2.054s1.41 1.56 3.13 1.56 3.078-1.113 3.257-1.56c0 0-.268-2.19-.31-3.797 0 0 2.007-.47 3.76-5.222 0 0 2.143-.404 2.054-2.012-.09-1.607-1.565-1.34-2.101-1.16-.846.267-1.382-.851-1.561-1.25-.493-1.41-1.071-2.948-1.743-3.441-.672-.494-2.233-.714-2.947-.893-1.161-.31-2.012-2.543-2.101-2.768-.089-.226-1.043 2.608-4.169 3.637"/><path fill="#414141" d="M330.463 32.758c-.226-.358-.715-1.161-1.697-.221a.256.256 0 0 1-.341-.017.255.255 0 0 1-.016-.34 1.8 1.8 0 0 1 1.339-.47 1.48 1.48 0 0 1 1.072.775.197.197 0 0 1 .043.182.2.2 0 0 1-.133.133c-.047.155-.225.047-.267-.042M324.742 32.18c-.756-1.475-1.739-.314-1.739-.267a.25.25 0 0 1-.34-.017.254.254 0 0 1-.017-.34 1.45 1.45 0 0 1 2.501.4.27.27 0 0 1 .01.172.26.26 0 0 1-.1.142c-.089.09-.268 0-.315-.09M325.683 37.271c-.315 0-1.208-1.114-1.072-1.47.09-.18.311-.269.94-.363a4 4 0 0 0 .405-.09c.089-.267.221-1.292.357-2.185a.25.25 0 0 1 .097-.159.25.25 0 0 1 .18-.047.25.25 0 0 1 .221.267c-.31 2.35-.47 2.459-.536 2.506a3 3 0 0 1-.625.178c-.131.042-.399.09-.536.132.175.318.419.592.715.803.053.031.092.081.108.14a.23.23 0 0 1-.019.175.4.4 0 0 1-.235.113M325.547 40.219c-1.41-.09-1.697-1.41-1.65-2.096a.3.3 0 0 1 .089-.179.25.25 0 0 1 .179-.047l3.29.268a.34.34 0 0 1 .178.09.26.26 0 0 1 .047.178c-.033.047-.3 1.875-2.133 1.786m-1.204-1.828a1.384 1.384 0 0 0 1.204 1.34 1.49 1.49 0 0 0 1.565-1.134zM340.774 62.098c-.94-2.5-3.661-6.476-3.793-6.655a.219.219 0 0 0-.314-.042.21.21 0 0 0-.088.146.224.224 0 0 0 .045.164s.625.893 1.34 2.054c-4.423-.043-16.568-.132-18.847-.179q.431-.839.714-1.739a.3.3 0 0 0 .016-.097.24.24 0 0 0-.078-.175.254.254 0 0 0-.408.094c0 .042-1.471 3.793-2.947 5.64a.3.3 0 0 0-.051.088.3.3 0 0 0-.009.101.241.241 0 0 0 .107.168c.132.09.268 0 .357-.047a18.2 18.2 0 0 0 2.054-3.525c1.608 0 15.04.131 19.336.178a26.4 26.4 0 0 1 2.096 3.972.28.28 0 0 0 .315.136c.113-.01.202-.146.155-.282M310.943 59.275c-.042-.042-3.882-6.11-5.268-9.644a.23.23 0 0 1 .054-.266.3.3 0 0 1 .082-.05.23.23 0 0 1 .31.137c1.387 3.53 5.227 9.513 5.227 9.555a.201.201 0 0 1-.011.263.2.2 0 0 1-.079.052.256.256 0 0 1-.315-.047"/><path fill="#fff" d="M300.453 45.131s.578-.625.757.137c.179.761.089 2.41-.089 2.5-.179.09-.804.268-1.025-.268a.88.88 0 0 1-1.029-.672s-.715 0-.851-1.114c0 0-.714-.315-.47-1.565.245-1.25 1.297-2.275 1.41-1.25 0 0 .625-.47.715 1.072 0 .047.714-.132.582 1.16M305.943 41.068c-.132-.178.404-.803 1.339-.582.935.22 1.34 1.41 1.119 1.654s-1.965-.357-2.458-1.072"/><path fill="#414141" d="M309.693 45.8a156 156 0 0 0-1.518-3.351c.047 0 .405-.043.47-.268.09-.447-.136-1.697-1.25-1.965a1.5 1.5 0 0 0-.47-.042c-.047-.137-1.565-2.947-1.786-3.351-.169-.4-.804-1.519-2.143-.983-1.161.47-5.048 2.548-5.09 2.59-.268.226-1.072.761-.47 2.1q.392 1.009.893 1.965a2.5 2.5 0 0 0-.47.626c-.893 1.786-.136 2.632.221 2.9 0 0 .178 1.071.897 1.16a1.065 1.065 0 0 0 1.114.672.77.77 0 0 0 .51.363.76.76 0 0 0 .609-.142c.132.226.357.672.757 1.41a2.27 2.27 0 0 0 1.386 1.119q.285.07.578.09c.246.017.493-.03.715-.137.089-.042 3.76-1.88 4.465-2.322a2 2 0 0 0 .582-2.434m-2.411-5.137a1.54 1.54 0 0 1 .94 1.297c-1.565-.315-2.143-.715-2.011-1.03.047-.22.446-.456 1.071-.267m-9.198 4.7c-.225-.315-.404-.94.132-2.054.273-.494.47-.625.583-.583s.089.09.089.225c-.367.764-.637 1.571-.804 2.402zm.804 1.221a.88.88 0 0 1-.399-.714c.085-.938.358-1.849.803-2.679a.26.26 0 0 1 .179-.047s.132.09.042.804a17 17 0 0 0-.625 2.636m1.297-1.41a8 8 0 0 0-.315 2.101.58.58 0 0 1-.54-.361v-.09c.093-.883.29-1.752.587-2.59a.7.7 0 0 1 .132-.089c.047.047.221.179.136 1.072zm.846 2.35a.8.8 0 0 1-.357.137q-.132 0-.268-.268c.02-.678.132-1.35.334-1.998l.221-.22c.047.042.136.22.136.893 0 .672-.066 1.292-.066 1.457m-1.649-6.279c.131.4.94 1.965 1.739 3.483a1.1 1.1 0 0 0-.4 0c0-.536-.268-1.072-.625-1.03.042-.47-.179-1.113-.672-1.024-.132-.625-.536-.47-.667-.47-.179-.315-.494-.982-.898-1.922-.4-1.025.089-1.34.357-1.56.047 0 3.798-2.102 4.959-2.548.85-.31 1.25.179 1.607.804.179.315 1.386 2.636 1.697 3.215a1.7 1.7 0 0 0-.625.357c-.47-.94-.94-1.786-1.114-2.096-.447-.894-.804-1.34-1.655-1.208a15.2 15.2 0 0 0-3.882 2.011c-.672.691-.089 1.363.179 1.988m9.4 6.43c-.668.47-4.329 2.232-4.418 2.322a1.9 1.9 0 0 1-.94.047 1.75 1.75 0 0 1-1.072-.898c-.536-.94-.757-1.382-.846-1.518v-2.186c.31.626.625 1.25.893 1.697.893 1.697 1.739 1.34 2.186 1.114s1.518-.94 2.82-1.56.893-1.565.667-1.965c-.089-.226-.804-1.476-1.518-2.858q.524.263 1.071.47c.536 1.114 1.566 3.29 1.655 3.615.235.78.103 1.363-.48 1.72z"/><path fill="#fff" d="M304.115 44.552c-.226 0-.673-.178-1.786-1.071a.25.25 0 0 1-.047-.357.25.25 0 0 1 .168-.098.26.26 0 0 1 .189.05c.429.371.902.687 1.41.94a16.6 16.6 0 0 0-.357-3.618.2.2 0 0 1-.012-.093.196.196 0 0 1 .19-.175.2.2 0 0 1 .18.02.2.2 0 0 1 .088.158s.179.94.268 1.88c.221 1.88.042 2.143-.136 2.28a.2.2 0 0 1-.066.064.17.17 0 0 1-.089.02"/><path fill="#414141" d="M335.327 36.514a.25.25 0 0 1-.178-.09.2.2 0 0 1-.051-.087.2.2 0 0 1-.009-.102.2.2 0 0 1 .035-.095.2.2 0 0 1 .072-.072c.216-.184.477-.308.756-.358a.24.24 0 0 1 .204.217.24.24 0 0 1-.157.253 1.2 1.2 0 0 0-.47.226c-.112.108-.155.108-.202.108"/><path fill="#414141" d="M344.173 34.682c.357-1.476 1.964-2.858 1.786-4.823-.179-1.964-1.965-2.768-2.233-3.84-.404-1.565.179-2.768-.982-4.018-.893-.987-1.655-.447-2.726-1.387-.94-.803-.851-2.547-2.59-3.29-1.41-.582-2.858.043-3.929.09-1.41.042-2.458-1.161-4.287-1.161-1.743 0-2.505 1.382-3.529 1.65-1.565.404-3.262.047-4.644 1.207s-1.476 3.427-2.439 4.856c-.893 1.25-2.989 2.542-3.29 4.596-.4 2.768 1.697 4.108 1.386 6.209-.446 2.82-.625 7.144 4.776 6.923a5.17 5.17 0 0 0 3.976 3.257 10.5 10.5 0 0 1-.404 1.965.199.199 0 0 0 .047.226c.893.94 1.88 1.517 2.993 1.517a5.13 5.13 0 0 0 3.793-1.475.32.32 0 0 0 .09-.221c-.179-1.25-.311-2.994-.358-3.62a3.98 3.98 0 0 0 2.191 1.476c1.471.31 2.721.47 4.465-1.518 1.56-1.833 3.929-1.25 5.137-2.768 1.617-2.054.324-3.93.771-5.851m-9.203 2.904c-.089 0-.132.043-.179.132-.31.761-1.917 4.733-3.525 5.226a.238.238 0 0 0-.178.268c0 .042.131 2.233.357 3.76a5.4 5.4 0 0 1-3.351 1.293 3.67 3.67 0 0 1-2.548-1.25q.255-.946.358-1.918c.491.063.989.047 1.475-.047.137-.042.226-.132.179-.268s-.132-.221-.268-.179c-4.155.625-5.447-3.257-5.536-3.435-.358-1.119-.893-4.197.803-10.632a9.46 9.46 0 0 0 4.287-3.483A4.44 4.44 0 0 0 328 28.967c.893.846 2.904.94 3.53 1.471 1.024.94 1.25 2.412 1.739 3.44.404.805 1.118 1.472 2.053 1.204 1.161-.31 1.566.47 1.608.761 0 .226-.085 1.697-1.96 1.744"/><path fill="#414141" d="M329.388 35.9a.5.5 0 0 0 .213-.01.5.5 0 0 0 .196-.104.7.7 0 0 0 .227-.662.6.6 0 0 0-.085-.22.54.54 0 0 0-.155-.162.5.5 0 0 0-.199-.076.5.5 0 0 0-.213.01.5.5 0 0 0-.196.105.7.7 0 0 0-.227.662q.023.121.085.22.063.1.155.162.091.06.199.076M323.638 35.03q.107.02.213-.01a.5.5 0 0 0 .197-.104.7.7 0 0 0 .227-.662.7.7 0 0 0-.086-.22.5.5 0 0 0-.154-.162.5.5 0 0 0-.199-.076.5.5 0 0 0-.213.01.54.54 0 0 0-.197.105.66.66 0 0 0-.229.416.7.7 0 0 0 .088.467q.063.099.154.16.093.062.199.077"/><path fill="#FDAF31" d="M329.791 38.256c0 .154.075.303.209.412.134.11.316.17.505.17.19 0 .371-.06.505-.17a.54.54 0 0 0 .21-.412.54.54 0 0 0-.21-.412.8.8 0 0 0-.505-.171.8.8 0 0 0-.505.17.53.53 0 0 0-.209.413M322.403 37.85a.8.8 0 0 0 .229.014.6.6 0 0 0 .209-.055.5.5 0 0 0 .157-.117.36.36 0 0 0 .07-.34.5.5 0 0 0-.099-.17.6.6 0 0 0-.171-.132.7.7 0 0 0-.216-.076.7.7 0 0 0-.229-.015.6.6 0 0 0-.21.055.5.5 0 0 0-.156.117.36.36 0 0 0-.07.34.5.5 0 0 0 .098.17.7.7 0 0 0 .171.133.8.8 0 0 0 .217.075"/></g><rect width="369.511" height="87.511" x=".745" y=".745" stroke="url(#c)" stroke-opacity=".08" stroke-width=".511" rx="10.255"/><defs><linearGradient id="b" x1="42.663" x2="213.928" y1="15.809" y2="76.544" gradientUnits="userSpaceOnUse"><stop stop-color="#003F88"/><stop offset=".65" stop-color="#03BCFF"/><stop offset="1" stop-color="#0076FF"/></linearGradient><linearGradient id="c" x1="46.7" x2="365.747" y1="12.907" y2="109.173" gradientUnits="userSpaceOnUse"><stop stop-color="#003F88"/><stop offset=".65" stop-color="#02D4FF"/><stop offset="1" stop-color="#0076FF"/></linearGradient><clipPath id="a"><rect width="369" height="87" x="1" y="1" fill="#fff" rx="10"/></clipPath></defs></svg>