<svg xmlns="http://www.w3.org/2000/svg" width="375" height="145" fill="none"><g clip-path="url(#a)"><rect width="373" height="143" x="1" y="1" fill="#E3F0FF" rx="10"/><path fill="#C8E2FF" d="M379.257 159c-143.113-3.736-175.944-8.836-182.825-17.463-6.042-9.025-6.042-9.025 63.984-59.124 31.74-22.689 81.94-58.621 98.261-73.985A1242 1242 0 0 0 234.78-4.942a7.97 7.97 0 0 1-8.559-3.82 8.12 8.12 0 0 1 3.041-11.207 8.1 8.1 0 0 1 4.133-1.03c2.098 0 141.981 6.088 145.631 24.264 1.322 10.368-11.433 22.185-109.338 92.203-18.88 13.432-39.313 28.124-51.04 37.149 37.656 5.331 143.638 9.172 161.07 10.348a8.082 8.082 0 0 1 7.28 8.227 8.1 8.1 0 0 1-2.344 5.42 8.1 8.1 0 0 1-5.397 2.388"/><path fill="url(#b)" d="M32.163 40.197H19.577V22.748h4.5v14.074h8.086zm15.445-5.8h-9.656q.094 1.546 1.172 2.367 1.09.82 3.2.82 1.335 0 2.59-.48 1.252-.48 1.98-1.032h.468v3.387q-1.43.574-2.695.832-1.266.258-2.8.258-3.962 0-6.071-1.781-2.11-1.782-2.11-5.075 0-3.257 1.993-5.156 2.004-1.91 5.484-1.91 3.21 0 4.828 1.629 1.617 1.617 1.617 4.664zm-4.195-2.473q-.035-1.325-.656-1.992-.621-.669-1.934-.668-1.218 0-2.004.633-.785.632-.879 2.027zM59 40.08q-.68.175-1.441.27-.763.105-1.864.105-2.46 0-3.668-.996-1.195-.995-1.195-3.41v-6.152h-1.734v-2.86h1.734v-3.762h4.219v3.762h3.949v2.86h-3.95v4.663q0 .693.013 1.208.011.515.187.925.164.41.574.657.423.234 1.219.234.329 0 .855-.14.54-.14.75-.259H59zm8.133-18.117-3.41 6.902H60.98l1.84-6.902zm13.804 14.062q0 2.04-1.828 3.293-1.827 1.243-5.004 1.242-1.757 0-3.187-.328-1.43-.327-2.297-.726v-3.469h.387q.316.223.726.492.422.258 1.184.563.657.27 1.488.468a8 8 0 0 0 1.781.188q1.243 0 1.84-.27.598-.28.598-.82 0-.48-.352-.691-.352-.224-1.336-.422-.468-.106-1.277-.223a15 15 0 0 1-1.453-.304q-1.793-.47-2.66-1.453-.867-.997-.867-2.473 0-1.9 1.793-3.152 1.804-1.266 4.922-1.266 1.476 0 2.824.305 1.36.293 2.12.632v3.328h-.362a8.4 8.4 0 0 0-2.145-1.043 7.4 7.4 0 0 0-2.426-.41q-1.02 0-1.722.282-.692.281-.692.796 0 .47.317.715.316.246 1.488.492.644.129 1.383.258a17 17 0 0 1 1.5.305q1.665.433 2.46 1.371.797.925.797 2.32m25.219-1.312q0 2.578-2.191 4.195-2.18 1.605-5.93 1.606-2.168 0-3.785-.375a20 20 0 0 1-3.012-.973v-4.184h.493q1.394 1.114 3.117 1.711 1.734.598 3.328.598.41 0 1.078-.07t1.09-.235a2.6 2.6 0 0 0 .844-.527q.339-.317.339-.937 0-.575-.492-.985-.48-.422-1.418-.644-.984-.235-2.086-.434-1.09-.21-2.05-.527-2.204-.716-3.176-1.934-.96-1.23-.961-3.047 0-2.437 2.18-3.972 2.19-1.547 5.624-1.547 1.724 0 3.399.34 1.688.328 2.918.832v4.019h-.481q-1.055-.843-2.589-1.406a8.8 8.8 0 0 0-3.118-.574q-.562 0-1.125.082-.55.07-1.066.28a2 2 0 0 0-.785.54 1.15 1.15 0 0 0-.328.808q0 .692.527 1.067.528.363 1.992.668.96.2 1.84.387a19 19 0 0 1 1.91.515q2.004.657 2.953 1.793.961 1.125.961 2.93m11.274 5.367q-.68.175-1.442.27-.762.105-1.863.105-2.461 0-3.668-.996-1.195-.995-1.195-3.41v-6.152h-1.735v-2.86h1.735v-3.762h4.218v3.762h3.95v2.86h-3.95v4.663q0 .693.012 1.208t.188.925q.163.41.574.657.421.234 1.219.234.328 0 .855-.14.54-.14.75-.259h.352zm10.5-3.316v-2.742a40 40 0 0 0-1.852.199q-.996.117-1.512.281-.632.2-.972.586-.328.375-.328.996 0 .41.07.668t.352.492q.269.234.644.352.375.105 1.172.105.633 0 1.277-.258a4 4 0 0 0 1.149-.68m0 2.039q-.34.258-.844.62a6 6 0 0 1-.949.575 5.8 5.8 0 0 1-1.289.41q-.669.14-1.465.14-1.875 0-3.141-1.16-1.265-1.16-1.265-2.964 0-1.441.644-2.356.645-.914 1.828-1.441 1.172-.528 2.906-.75a51 51 0 0 1 3.598-.328v-.07q0-1.09-.89-1.5-.891-.422-2.625-.422-1.044 0-2.227.375a28 28 0 0 0-1.699.562h-.387v-3.176q.668-.176 2.168-.41a19 19 0 0 1 3.023-.246q3.598 0 5.192 1.113 1.605 1.102 1.605 3.47v8.952h-4.183zm17.601-7.746h-.375q-.268-.095-.867-.141a13 13 0 0 0-.996-.047 9.6 9.6 0 0 0-1.594.117 9 9 0 0 0-1.488.399v8.812h-4.219v-13.16h4.219v1.934q1.395-1.196 2.426-1.582 1.03-.399 1.898-.399.224 0 .504.012.282.012.492.035zm10.805 9.023q-.68.175-1.441.27a14 14 0 0 1-1.864.105q-2.46 0-3.668-.996-1.195-.995-1.195-3.41v-6.152h-1.734v-2.86h1.734v-3.762h4.219v3.762h3.949v2.86h-3.949v4.663q0 .693.011 1.208.012.515.188.925.164.41.574.657.422.234 1.219.234.329 0 .855-.14.54-.14.75-.259h.352z"/><path fill="#384F69" d="M26.292 64.197h-1.16V56.68l-2.426 5.115h-.691l-2.409-5.115v7.517h-1.084v-8.724h1.583l2.326 4.857 2.25-4.857h1.611zm6.862 0h-1.096V63.5q-.147.1-.398.281a3.157 3.157 0 0 1-1.113.504 3.3 3.3 0 0 1-.838.094q-.885 0-1.5-.586-.616-.586-.616-1.494 0-.745.317-1.201.323-.463.914-.727.598-.264 1.435-.357.838-.095 1.8-.141v-.17q0-.375-.136-.621a.94.94 0 0 0-.375-.387 1.6 1.6 0 0 0-.562-.181 5 5 0 0 0-.686-.047q-.434 0-.966.117a7 7 0 0 0-1.102.328h-.059v-1.119q.323-.088.932-.193.61-.106 1.201-.106.691 0 1.201.117.516.112.89.387.37.27.563.697.194.428.194 1.06zm-1.096-1.611v-1.822q-.503.029-1.19.088a6 6 0 0 0-1.077.17q-.476.135-.768.421-.293.282-.293.78 0 .562.34.85.34.28 1.037.28.58 0 1.06-.222.48-.229.891-.545m8.678 1.611h-1.453l-2.625-2.865-.715.68v2.185h-1.101V55.08h1.101v5.848l3.182-3.276h1.389l-3.041 3.024zm6.042-3.158h-4.822q0 .603.181 1.055.182.445.498.732.305.282.72.422.422.14.927.14a3.7 3.7 0 0 0 1.342-.263q.68-.27.966-.527h.059v1.2q-.556.236-1.137.393a4.6 4.6 0 0 1-1.219.159q-1.628 0-2.543-.88-.914-.884-.914-2.507 0-1.605.873-2.549.88-.943 2.309-.943 1.325 0 2.04.773.72.774.72 2.197zm-1.072-.844q-.005-.867-.44-1.342-.427-.474-1.307-.474-.885 0-1.412.521-.521.522-.591 1.295zm11.086 4.002h-1.095V63.5q-.146.1-.399.281a3.157 3.157 0 0 1-1.113.504 3.3 3.3 0 0 1-.838.094q-.885 0-1.5-.586t-.615-1.494q0-.745.316-1.201.323-.463.914-.727.598-.264 1.436-.357.837-.095 1.799-.141v-.17q0-.375-.135-.621a.94.94 0 0 0-.375-.387 1.6 1.6 0 0 0-.563-.181 5 5 0 0 0-.685-.047q-.434 0-.967.117a7 7 0 0 0-1.102.328h-.058v-1.119q.322-.088.932-.193.609-.106 1.2-.106.693 0 1.202.117.516.112.89.387.37.27.563.697.193.428.193 1.06zm-1.095-1.611v-1.822q-.504.029-1.19.088a6 6 0 0 0-1.078.17q-.474.135-.768.421-.292.282-.292.78 0 .562.34.85.34.28 1.036.28.58 0 1.061-.222.48-.229.89-.545m11.784 1.611h-1.102v-.685a4 4 0 0 1-.99.638 2.7 2.7 0 0 1-1.12.229q-1.171 0-1.862-.902-.686-.903-.686-2.502 0-.833.234-1.483a3.5 3.5 0 0 1 .645-1.107 2.7 2.7 0 0 1 2.027-.914q.516 0 .914.111.399.106.838.334V55.08h1.102zm-1.102-1.611V58.83a4 4 0 0 0-.797-.275 3.6 3.6 0 0 0-.767-.077q-.926 0-1.442.645t-.515 1.828q0 1.166.398 1.776.399.603 1.278.603.468 0 .949-.205.48-.21.896-.54m6.874-3.733h-.059a4.365 4.365 0 0 0-1.025-.111q-.51 0-.985.229a4.4 4.4 0 0 0-.914.58v4.646H69.17v-6.545h1.101v.967q.657-.527 1.155-.744a2.5 2.5 0 0 1 1.025-.223q.287 0 .416.018.129.012.387.053zm5.432 5.344h-1.096V63.5q-.146.1-.398.281a3.157 3.157 0 0 1-1.113.504 3.3 3.3 0 0 1-.838.094q-.885 0-1.5-.586t-.616-1.494q0-.745.317-1.201.323-.463.914-.727.597-.264 1.435-.357.839-.095 1.8-.141v-.17q0-.375-.136-.621a.94.94 0 0 0-.375-.387 1.6 1.6 0 0 0-.562-.181 5 5 0 0 0-.686-.047q-.434 0-.966.117a7 7 0 0 0-1.102.328h-.059v-1.119q.323-.088.932-.193.61-.106 1.201-.106.692 0 1.201.117.516.112.891.387.37.27.563.697.192.428.193 1.06zm-1.096-1.611v-1.822q-.504.029-1.19.088a6 6 0 0 0-1.077.17q-.475.135-.768.421-.293.282-.293.78 0 .562.34.85.34.28 1.037.28.58 0 1.06-.222.48-.229.891-.545m6.258-6.44h-.058a5 5 0 0 0-.475-.105 2.7 2.7 0 0 0-.515-.059q-.71 0-1.032.317-.315.31-.316 1.13v.223h1.986v.926h-1.95v5.62h-1.102v-5.62h-.745v-.926h.745v-.217q0-1.166.58-1.787.58-.626 1.675-.626.37 0 .662.035.3.034.545.082zm3.616 7.993a6 6 0 0 1-1.33.187q-1.002 0-1.523-.539-.522-.54-.522-1.728v-3.48h-.744v-.927h.744v-1.88h1.102v1.88h2.273v.926H85.19v2.982q0 .516.023.81.024.285.164.538a.8.8 0 0 0 .352.346q.228.105.691.105.27 0 .563-.076a4 4 0 0 0 .422-.135h.058zm8.116-7.992h-.058a5 5 0 0 0-.475-.106 2.7 2.7 0 0 0-.516-.059q-.708 0-1.03.317-.317.31-.317 1.13v.223h1.986v.926h-1.951v5.62h-1.102v-5.62h-.744v-.926h.744v-.217q0-1.166.58-1.787.58-.626 1.676-.626.37 0 .662.035.3.034.545.082zm5.796 4.78q0 1.6-.821 2.526-.82.926-2.197.926-1.389 0-2.209-.926-.814-.926-.814-2.525 0-1.6.814-2.526.82-.93 2.21-.931 1.376 0 2.196.931.82.926.821 2.526m-1.137 0q0-1.27-.498-1.886-.498-.621-1.383-.621-.896 0-1.394.621-.493.616-.493 1.887 0 1.23.499 1.869.498.633 1.388.633.879 0 1.377-.627.504-.633.504-1.875m6.452-2.074h-.059a4.374 4.374 0 0 0-1.025-.111q-.51 0-.985.229a4.4 4.4 0 0 0-.914.58v4.646h-1.101v-6.545h1.101v.967q.656-.527 1.155-.744a2.5 2.5 0 0 1 1.025-.223q.287 0 .416.018.129.012.387.053zm9.956-1.2-3.821 8.958h-1.177l1.218-2.73-2.607-6.229h1.195l2.01 4.852 2.027-4.852zm6.434 3.275q0 1.6-.821 2.525-.82.926-2.197.926-1.389 0-2.209-.926-.814-.926-.814-2.525 0-1.6.814-2.526.82-.93 2.209-.931 1.377 0 2.197.931.82.926.821 2.526m-1.137 0q0-1.272-.498-1.887-.498-.621-1.383-.621-.897 0-1.394.621-.493.616-.493 1.887 0 1.23.498 1.869.499.633 1.389.633.879 0 1.377-.627.504-.633.504-1.875m7.793 3.27h-1.101v-.727a5.4 5.4 0 0 1-1.067.673 2.66 2.66 0 0 1-1.125.235q-1.03 0-1.605-.627-.574-.633-.574-1.852v-4.248h1.101v3.727q0 .498.047.855.047.352.199.604a.95.95 0 0 0 .411.375q.252.117.732.117.428 0 .932-.223.51-.222.949-.568v-4.887h1.101zm5.772-5.344h-.058a4.363 4.363 0 0 0-1.026-.111q-.51 0-.984.228a4.4 4.4 0 0 0-.914.58v4.646h-1.102v-6.545h1.102v.967q.656-.527 1.154-.744a2.5 2.5 0 0 1 1.026-.223q.287 0 .416.018.13.012.386.053zm10.607-2.35h-3.117v7.693h-1.161v-7.693h-3.117v-1.031h7.395zm1.787.053h-1.242v-1.143h1.242zm-.07 7.64h-1.101v-6.545h1.101zm6.54-.41a7 7 0 0 1-1.049.41 3.7 3.7 0 0 1-1.049.147q-.709 0-1.301-.205a2.7 2.7 0 0 1-1.014-.633 2.84 2.84 0 0 1-.662-1.066q-.234-.645-.234-1.506 0-1.605.879-2.52.885-.915 2.332-.914.562 0 1.102.158.544.159.996.387v1.224h-.059a4.2 4.2 0 0 0-1.043-.603 2.8 2.8 0 0 0-1.043-.21q-.937 0-1.482.632-.54.627-.539 1.846 0 1.183.527 1.822.533.633 1.494.633.334 0 .68-.088.345-.088.621-.229.24-.123.451-.258a5 5 0 0 0 .334-.24h.059zm6.879.41h-1.453l-2.625-2.865-.715.68v2.185h-1.102V55.08h1.102v5.848l3.182-3.276h1.388l-3.041 3.024zm6.041-3.158h-4.822q0 .603.182 1.055.182.445.498.732.304.282.721.422.421.14.925.14.669 0 1.342-.263.68-.27.967-.527h.059v1.2q-.557.236-1.137.393a4.6 4.6 0 0 1-1.219.159q-1.63 0-2.543-.88-.914-.884-.914-2.507 0-1.605.873-2.549.88-.943 2.309-.943 1.324 0 2.039.773.72.774.72 2.197zm-1.072-.844q-.006-.867-.439-1.342-.428-.474-1.307-.474-.885 0-1.412.521a2.03 2.03 0 0 0-.592 1.295zm5.661 3.944a6 6 0 0 1-1.33.187q-1.002 0-1.524-.539-.52-.54-.521-1.728v-3.48h-.744v-.927h.744v-1.88h1.101v1.88h2.274v.926h-2.274v2.982q0 .516.024.81a1.3 1.3 0 0 0 .164.538.8.8 0 0 0 .351.346q.229.105.692.105.27 0 .562-.076.294-.083.422-.135h.059zm9.68.058h-1.095V63.5q-.147.1-.399.281a3.172 3.172 0 0 1-1.113.504 3.3 3.3 0 0 1-.838.094q-.885 0-1.5-.586t-.615-1.494q0-.745.316-1.201.323-.463.914-.727.598-.264 1.436-.357a29 29 0 0 1 1.799-.141v-.17q0-.375-.135-.621a.94.94 0 0 0-.375-.387 1.6 1.6 0 0 0-.563-.181 5 5 0 0 0-.685-.047q-.433 0-.967.117a7 7 0 0 0-1.101.328h-.059v-1.119q.322-.088.932-.193.609-.106 1.201-.106.691 0 1.201.117.516.112.891.387.369.27.562.697.193.428.193 1.06zm-1.095-1.611v-1.822q-.504.029-1.19.088a6 6 0 0 0-1.078.17q-.474.135-.767.421-.294.282-.293.78 0 .562.339.85.34.28 1.038.28.58 0 1.06-.222.48-.229.891-.545m8.209 1.611h-1.101v-3.726q0-.451-.053-.844-.053-.399-.193-.621a.88.88 0 0 0-.422-.363q-.276-.124-.715-.123-.451 0-.944.222a4.8 4.8 0 0 0-.943.569v4.886h-1.101v-6.545h1.101v.727a4.5 4.5 0 0 1 1.067-.668 2.8 2.8 0 0 1 1.13-.24q1.06 0 1.618.638.556.64.556 1.84zm6.95 0h-1.102v-.685a4 4 0 0 1-.99.638 2.7 2.7 0 0 1-1.119.229q-1.171 0-1.863-.902-.686-.903-.686-2.502 0-.833.234-1.483.24-.65.645-1.107a2.7 2.7 0 0 1 2.027-.914q.516 0 .914.111.399.106.838.334V55.08h1.102zm-1.102-1.611V58.83a4 4 0 0 0-.797-.275 3.6 3.6 0 0 0-.767-.077q-.926 0-1.442.645t-.515 1.828q0 1.166.398 1.776.399.603 1.278.603.469 0 .949-.205.48-.21.896-.54M23.11 79.31q0 .895-.744 1.47-.738.575-2.021.575-.727 0-1.336-.17a6 6 0 0 1-1.014-.381v-1.237h.059q.52.393 1.16.627a3.6 3.6 0 0 0 1.225.229q.726 0 1.136-.235t.41-.738q0-.387-.222-.586-.223-.2-.856-.34a17 17 0 0 0-.615-.123 10 10 0 0 1-.686-.152q-.861-.228-1.224-.668-.357-.445-.358-1.09 0-.404.165-.761.17-.358.51-.64.327-.274.831-.433.51-.165 1.137-.164.585 0 1.184.147.603.14 1.002.345v1.178h-.06a3.9 3.9 0 0 0-1.024-.521 3.5 3.5 0 0 0-1.184-.217q-.603 0-1.02.234-.416.229-.416.686 0 .404.252.61.246.204.797.333.305.07.68.14.381.071.633.13.768.176 1.183.603.417.435.416 1.148m6.528 1.886h-1.101v-.726a5.4 5.4 0 0 1-1.067.673 2.7 2.7 0 0 1-1.125.235q-1.031 0-1.605-.627-.574-.633-.574-1.852v-4.248h1.101v3.727q0 .498.047.855.047.352.2.604a.94.94 0 0 0 .41.375q.25.117.732.117.427 0 .931-.223a4.3 4.3 0 0 0 .95-.568v-4.887h1.101zm7.448-3.322q0 .821-.234 1.477-.23.656-.622 1.101a2.9 2.9 0 0 1-.914.697 2.6 2.6 0 0 1-1.095.229q-.557 0-.973-.135a4.4 4.4 0 0 1-.82-.351l-.07.304h-1.032V72.08h1.102v3.258a4.5 4.5 0 0 1 .984-.621 2.7 2.7 0 0 1 1.172-.246q1.16 0 1.828.89.675.891.674 2.514m-1.137.03q0-1.173-.386-1.776-.387-.61-1.249-.61-.48 0-.972.212a4 4 0 0 0-.914.533v3.75q.468.21.802.293.34.082.768.082.914 0 1.43-.598.52-.603.521-1.887m11.925 3.292h-1.102v-3.726q0-.422-.041-.815a1.7 1.7 0 0 0-.158-.627.9.9 0 0 0-.387-.38q-.252-.13-.727-.13-.462 0-.925.235a5.5 5.5 0 0 0-.926.586q.017.135.03.316.01.176.01.352v4.19h-1.1V77.47a8 8 0 0 0-.042-.82 1.7 1.7 0 0 0-.158-.628.86.86 0 0 0-.387-.375q-.252-.128-.726-.129-.452 0-.908.223-.451.223-.903.569v4.886h-1.101v-6.545h1.101v.727a5 5 0 0 1 1.026-.668q.515-.24 1.095-.24.669 0 1.131.281.47.281.697.78.668-.563 1.22-.81.55-.25 1.177-.251 1.078 0 1.588.656.516.65.516 1.822zm2.824-7.64h-1.242v-1.143h1.242zm-.07 7.64h-1.102v-6.545h1.102zm5.098-.058a6 6 0 0 1-1.33.187q-1.002 0-1.523-.539-.522-.54-.522-1.728v-3.48h-.744v-.927h.744v-1.88h1.102v1.88h2.273v.926h-2.273v2.983q0 .515.023.808.023.287.164.54a.8.8 0 0 0 .352.345q.228.105.691.105.27 0 .563-.076a4 4 0 0 0 .421-.135h.059z"/><path fill="#FDAF31" d="M284.736 98.105c-3.022-10.69 6.943-28.94-7.069-37.306-16.609-9.916-37.201 18.242-2.683 36.842a32.3 32.3 0 0 0 11.093 3.457c-.825-.516-1.15-2.318-1.341-2.993"/><path fill="#414141" d="M263.127 81.493c-2.769-1.007-5.386-3.076-4.636-5.758.863-3.081 6.346-3.582 9.298-1.507q.196-.052.395-.091c3.177-1.733 9.177-1.82 10.656 1.302.378-1.485-.129-2.968-1.669-4.101q-.086.026-.159.053a2.5 2.5 0 0 1-1.407.117 2.43 2.43 0 0 1-1.232-.66c-.789-.93.681-1.53 2.885-.048 1.833-.623 1.909-2.167 2.416-1.889a.24.24 0 0 1 .118.145.23.23 0 0 1-.025.183 4.3 4.3 0 0 1-2.044 1.903 4.28 4.28 0 0 1 1.6 2.318c.249.92.171 1.893-.222 2.766.377 1.909-.956 3.472-2.658 4.49-1.568 5.318-10.905 5.702-13.316.777m.705.236c2.497 3.85 10.136 3.688 11.949-.65a14.1 14.1 0 0 1-4.9 1.304c-1.053.101-.46-.146-1.232.858a.261.261 0 0 1-.352.052.233.233 0 0 1-.055-.335q.185-.239.339-.495a18.2 18.2 0 0 1-5.748-.734zm-.335-.629c2.037.675 4.192.971 6.346.873a5.25 5.25 0 0 0 .481-2.491c-.305-.102-.659.159-1.676.131-2.828-.08-3.452-2.903-1.678-4.607-2.715 1.12-4.557 3.555-3.473 6.097zm7.335-1.475c.051 2.427-.985 2.375 0 2.281a13.1 13.1 0 0 0 5.172-1.492c.107-.424.154-.86.141-1.295a8.7 8.7 0 0 1-5.312.506zm-7.167-6.203c-5.697 0-6.796 5.03-.786 7.448-.887-2.835 1.331-5.42 4.306-6.459a6.6 6.6 0 0 0-3.52-.989m12.971 5.445q.044.593-.046 1.179c1.054-.726 2.001-1.762 2.068-3.015a5.9 5.9 0 0 1-2.021 1.836zm-5.67.296a8.13 8.13 0 0 0 5.134-.562c-.362-2.716-3.109-5.571-6.173-4.575 3.455.272 5.019 3.488 1.038 5.137zM267.87 74.9c-2.358 1.66-1.652 4.642 1.533 4.19-1.561-.836-2.431-2.346-1.738-3.816.221-.465.255-.335.205-.374m.383.336c-1.316 2.066 1.632 3.776 2.014 3.657a6.7 6.7 0 0 0-2.013-3.656zm.306-.386a7.1 7.1 0 0 1 2.191 3.868c3.876-1.602 1.641-4.513-1.792-4.212a3 3 0 0 0-.399.345zm3.667-1.391c2.205.495 3.983 2.751 4.346 4.882a5.17 5.17 0 0 0 2-2.164c-.588-2.369-3.802-2.96-6.346-2.717zm2.438-3.054c.226.284.54.494.898.6.358.107.741.103 1.097-.008-.956-.581-1.889-.691-1.995-.59z"/><path fill="#FDAF31" d="M282.569 28.551c-4.052-5.057-12.935-5.612-15.686 2.323-2.517 7.261 3.809 12.296 7.998 16.047 2.356 2.11 4.704 5.732 4.334 6.656 5.61-6.135 8.552-18.539 3.354-25.026"/><path fill="#87E4FF" d="M282.311 37.736c.322.711.059 1.597-1.187 2.01-.835.385-1.809-.29-1.809-.722a157 157 0 0 1-2.115-5.006 1.443 1.443 0 0 1 .67-1.806q.274-.097.516-.258a1.38 1.38 0 0 1 1.809.67c0 .156 1.481 3.709 2.116 5.112M278.08 37.582a1.384 1.384 0 0 1-.67 1.809 2.4 2.4 0 0 0-.516.258c-.875.402-1.809-.321-1.809-.723-.619-1.393-1.527-3.672-2.116-5.005-.562-1.273 1.033-2.47 2.27-2.115 1.021.434.67 1.072 2.841 5.776M275.189 40.42c.308.684.104 1.53-1.186 1.96-.835.385-1.806-.29-1.806-.722-.361-.877-.878-2.01-1.187-2.89-.763-1.654 2.199-3.114 2.993-1.393a28 28 0 0 0 1.186 3.045M326.376 48.933c-2.32-13.597-19.516-22.401-32.868-10.94-12.693 10.894-5.902 25.962-2.117 36.946 1.335 3.872 2.345 7.995 2.064 12.28-.057.876-.051 3.25-1.031 4.076a48.4 48.4 0 0 0 14.344-7.533c11.446-9.197 21.888-21.467 19.608-34.83"/><path fill="#fff" d="m297.583 37.477-6.14 32.198 22.188 4.695 7.224-32.662z"/><path fill="#005BC3" d="M298.561 43.418v-1.34l8.04 1.34v1.34zM298.561 48.778v-1.34l17.42 2.68v1.34z"/><path fill="#87E4FF" d="M336.696 30.357c2.077 3.82.635 9.443-3.353 9.443-.465 0-1.34-.465-1.755-.258-.722.36.104 2.223-.826 2.27-2.218.113-1.514-3.216-.619-4.283.658-.785 1.96.159 2.735.31 1.907.37 2.668-1.494 2.786-3.15.075-1.03-.774-4.282-2.425-2.94a2.53 2.53 0 0 0-.776 1.862c-.052.258.052.878-.206 1.084s-.723.052-1.032 0a2.6 2.6 0 0 1-.619-.103c-1.123-.414-.01-3.489.412-4.438 1.445-2.428 4.285-2.067 5.678.203M328.995 43.083l-.488 2.058 2.059.488.488-2.059zM313.116 97.59l.619 2.993-2.735.568-.619-2.942zM310.742 86.444l1.909 9.134-2.735.567-1.909-9.132z"/><path fill="#fff" d="M363.476 81.958c-1.37-2.493-5.025-2.427-5.882 1.651-1.521-.38-4.302-3.473-4.335-3.715-.055-.412.362-2.27 0-2.528-.568-.361-2.063-.004-2.734-.103a7.33 7.33 0 0 1-5.265-3.664c-2.519-4.412-1.566-6.863-2.479-7.07-1.273-.287-3.295 6.52-10.114 9.702.155 1.345 2.251 15.709 2.271 15.789a12.86 12.86 0 0 0 10.681 8.617l-.103.722c.825 2.993 3.974 3.187 5.417 3.354.832.09 1.674.02 2.479-.206 6.72-1.809 3.771-10.172 3.973-10.475.516-.929.67-2.322 1.34-3.149.258-.361 1.393.362 1.909.31 2.716-.677 4.549-6.124 2.842-9.235M341.24 134.639c-.62-.722-2.68-.724-3.457-.825-8.241-1.078-14.253 2.889-14.293 4.798-.018.849 2.133-.895 5.882-2.063 1.228-.383 2.405-.475.67.103a17.5 17.5 0 0 0-5.727 3.25c-.215.215-1.083.853-.929 1.394.163.894 2.68-1.237 6.298-2.323 4.145-.828-.836.366-4.128 3.149-1.155.977-1.365 2.035 1.032 1.084 6.506-2.579 6.99-2.234 4.592-1.393-3.861 1.355-4.891 4.091.877 2.167 5.623-1.407 10.117.658 12.332-.67-.929-1.857-2.837-7.275-2.992-8.72z"/><path fill="#FDAF31" d="M303.621 133.763c-1.036-.778-4.824-.638-5.934-.619-3.097.051-9.063.322-11.197 3.149-1.407 1.866 4.072-.104 7.121-.104.258 0 .877-.206.722 0-.154.258-1.393.307-1.65.362-7.116 1.514-9.106 4.108-1.549 2.734.067-.02 1.154-.292 1.291-.155.258.413-.927.317-1.394.464-.513.163-3.612 1.033-3.457 1.809.103.362 1.032.263 1.29.258 4.068-.072 5.779-1.011 5.779-.825.052.258-3.406 1.186-3.302 2.115.154.929 3.508.052 3.921 0 4.334-.877 8.308-1.135 12.59-2.01-3.701-1.334-4.231-3.803-4.231-7.178"/><path fill="#fff" d="M370.081 98.159a33.6 33.6 0 0 0-12.538-3.56c.928 3.973.619 8.513-4.025 9.855a6.6 6.6 0 0 1-2.479.207c-1.445-.155-4.592-.361-5.418-3.354l.052-.723a12.5 12.5 0 0 1-6.288-2.535c-4.12 1.7-7.609 6.334-9.14 9.246-3.509 6.708-5.211 14.086-10.939 19.504a21.3 21.3 0 0 1-6.499 4.076c-4.542 1.394-8.669 2.064-9.237 2.838a6.294 6.294 0 0 0 4.231 7.121c4.386 1.548 11.3.206 16.151-.67 2.579-2.581 6.242-3.488 6.968-3.922-.104-.154-1.445.258-1.548.258-3.789 1.1-5.9 2.916-5.883 2.064.032-1.541 4.008-4.137 8.153-4.747a25.96 25.96 0 0 0 7.482-8.926c3.222 8.266 4.643 8.079 4.643 8.926-1.289.155-2.218.31-2.27.464 0 1.604 2.243 7.53 2.993 9.03.603 1.211 1.163.817 2.786.929 46.699 3.206 40.965-36.088 22.805-46.081M355.53 83.403a3.83 3.83 0 0 1-2.064-2.48c-3.417-2.076-7.839-.401-8.462 2.374a6.03 6.03 0 0 0 .98 4.747c2.875 4.105 12.088 1.079 9.546-4.641M345.83 93.722c-.268-1.425-4.111-.515-3.922.103.563 1.844 4.276 1.808 3.922-.103M334.478 88.304a4.34 4.34 0 0 0 4.695.258c0-.413.31-.516.774-.62.388-.396.687-.871.877-1.393 2.136-5.513-4.115-8.219-7.223-4.592.397 2.284.877 4.202.877 6.347"/><path fill="#005BC3" d="M371.523 76.54c-.413-2.684-3.509-1.858-4.644-3.664-1.34-2.167-1.599-4.798-3.044-6.968-3.568-5.423-15.758-10.794-20.588-6.499-.516.465-.928 1.445-1.548 1.651-.837.305-2.305-.251-5.469 1.187a17.57 17.57 0 0 0-8.05 7.43c-.619 1.239-.722 2.735-1.34 3.921-.825 1.6-2.479 2.48-2.735 4.438-.309 2.27 1.139 4.18 3.045 5.263.516.31 1.815.509 2.167.98.449.604-.793 1.952.516 3.406 1.418 1.595 4.695.413 4.695.207-.312-4.68-1.234-5.646-1.502-11.86 6.946-3.363 8.548-9.92 9.916-9.605.88.195.059 2.77 2.479 7.069a7.353 7.353 0 0 0 5.263 3.664c.67.103 2.167-.258 2.734.103.611.436-1.239 4.363 2.27 6.037 1.022.487 1.608.093 2.065.207.819-3.893 4.434-4.292 5.882-1.652 1.186 2.064.722 5.005-.31 7.017-.364.911-.774.603.206.93 1.806-.104 1.445-1.703 2.323-2.684 1.289-1.393 3.611-.67 4.128-3.096.402-2.156-1.143-3.149-.775-3.766.25-.418.878-.62 1.187-.877a3.36 3.36 0 0 0 1.129-2.84"/><path fill="#FDAF31" d="M352.897 89.852a1.392 1.392 0 0 1 .965 2.367c-.254.26-.601.411-.965.42-1.882 0-1.776-2.787 0-2.787M337.006 89.852a1.39 1.39 0 0 1 1.363 1.393 1.396 1.396 0 0 1-1.363 1.394 1.393 1.393 0 0 1 0-2.787"/><path fill="#414141" d="M294.121 139.031c-1.545 0-1.96-1.474-.325-2.291 2.773-1.4 7.009-2.423 6.527-1.156a.33.33 0 0 1-.176.187.333.333 0 0 1-.256.008c-2.222-.845-12.441 4.262-1.598 2.093a.334.334 0 0 1 .347.513.34.34 0 0 1-.213.144c-1.421.27-2.86.438-4.306.502M361.864 83.739c-1.273.067-2.305 1.072-2.846 2.86a11.6 11.6 0 0 0-.108 1.912.335.335 0 1 0 .67 0c0-1.482.051-1.726.259-2.246.107.03.278.047.398.077.737.5.627.698.917.698a.34.34 0 0 0 .319-.234q.021-.068.014-.139a.34.34 0 0 0-.071-.171 3.4 3.4 0 0 0-.93-.78 3 3 0 0 0-.347-.074 2.16 2.16 0 0 1 1.75-1.234.34.34 0 0 0 .314-.347.34.34 0 0 0-.339-.322M344.113 95.524c-2.266 0-3.709-2.264-1.456-2.644 1.309-.372 3.216-.562 3.451.784.254 1.174-.759 1.86-1.995 1.86m-1.916-1.738c.516 1.413 3.561 1.429 3.253.007-.171-.98-2.937-.305-3.253-.007M333.755 79.868c-1.401 0 1.968-4.986 4.974-3.149a.335.335 0 1 1-.35.572c-1.599-.978-3.824.708-4.303 2.337a.34.34 0 0 1-.321.24M354.238 77.753c-.372 0-1.832-2.263-4.968-1.911-.617.113-1.982.481-2.137 1.09-.145.572-1.535.13.093-1.072 1.507-1.132 4.993-1.116 7.257 1.33a.32.32 0 0 1 .088.268.33.33 0 0 1-.149.24.34.34 0 0 1-.184.055M337.641 85.203c-.696 0-1.618-3.035-.224-2.486.732.288 1.114 2.486.224 2.486"/><path fill="#414141" d="M354.424 81.308c-2.768-2.769-8.43-1.69-9.553 1.48a3.26 3.26 0 0 0-2.83-.694c-.8.18-.824.676-.908.508-1.085-2.604-4.363-3.198-6.73-1.754a4.55 4.55 0 0 0-1.768 6.017c1.108 2.034 4.096 3.216 6.2 2.14q.394 1.166.938 2.271a.32.32 0 0 0 .213.143.34.34 0 0 0 .252-.05c.341-.228.03-.492-.211-1.114-.714-1.852-.855-1.792.162-1.974a2.5 2.5 0 0 0 1.644-.782 4.68 4.68 0 0 0 .563-3.474.34.34 0 0 0-.249-.277.3.3 0 0 0-.131-.007c-.692.099.388 1.541-.73 3.373a1.22 1.22 0 0 1-.624.38 6.02 6.02 0 0 0 .729-3.977c.174-.344.463-.618.816-.773.665-.19 2.09.055 2.475.775-.575 3.207 1.288 6.767 5.409 6.767 5.36-.003 8.281-5.033 4.333-8.978m-14.018 5.176c-.168.43-.396.833-.678 1.198a1.04 1.04 0 0 0-.821.514c-.348.123-1.814 1.4-4.334-.242-2.067-1.04-2.705-4.727.181-6.534 3.395-2.071 7.402.69 5.652 5.064m11.987 2.733c-7.796 2.783-10.245-8.834-2.211-8.834a5.214 5.214 0 0 1 5.373 4.495c.18 1.945-1.003 3.567-3.162 4.34"/><path fill="#414141" d="M370.239 97.865a32.5 32.5 0 0 0-12.529-3.55c.561-1.034.752-2.427 1.34-3.194.235-.067 1.186.466 1.77.402 4.076-1.018 5.377-10.678.368-11.486-1.992-.323-3.374 1.3-3.892 3.216-1.926.43-3.895-1.547-3.596-4.1.506-4.368-2.01-.58-5.922-3.343-2.304-1.663-3.579-4.704-3.993-7.514-.284-1.933-.614-2.028-.876-2.086-.887-.201-1.788 1.474-2.315 2.31-1.841 2.929-4.891 5.954-8.023 7.417-3.024 1.514-3.602.25-3.786.992-.236.938 2.594.323 3.912-.307.02 4.02.948 6.968 1.259 9.296.39 2.921-.393 7.846 4.828 12.142-10.568 4.655-11.126 20.558-19.657 28.552a20.8 20.8 0 0 1-6.37 3.999c-4.322 1.327-8.141 1.971-9.156 2.712a14.9 14.9 0 0 0-4.99-.514c-3.801.04-10.124.248-12.388 3.283-.733.957.067 1.51 1.34 1.309 2.983-.469 2.606-.661.236.34-2.091.885-1.864 1.441-1.853 1.568.056.912 2.042.72 2.977.627-1.306.527-1.836 1.015-1.726 1.559.16.562.98.525 1.474.506a26 26 0 0 0 3.434-.324c-1.358.737-1.273 1.474-.788 1.802.981.67 2.836-.178 10.264-1.197 1.329-.182 4.775-.655 6.342-1.017 4.339 1.419 10.818.246 15.327-.572a.77.77 0 0 0 .201 1.065c.836.402 2.485-1.078 5.545-2.172-1.593.784-5.655 3.299-4.198 4.282.328.221.7.221 2.666-.526 1.914-.729 1.47-.621.942-.163-.933.932-.711 1.865.634 1.865 1.684 0 4.087-1.371 8.154-1.19 2.301.102 4.799.568 7.12 0 .512.847 1.483.82 2.579.781.327-.01 1.691.063 3.294.063 44.66-.004 37.535-37.177 20.052-46.833m-34.921-5.926c-.751-3.01-.237-3.008-.716-6.267-.494-3.356-1.363-6.118-1.197-9.403 8.2-4.226 9.112-12.741 9.697-8.053.528 4.227 2.948 8.739 7.423 9.38.607.094 2.207-.19 2.558.011.161.29-.154 1.966-.107 2.29 0 1.95 1.844 4.349 4.154 4.061-.138.607-.358 1.269.115 1.328.439.055.35-.344.628-1.553.385-1.675 1.482-3.318 3.216-3.036 4.336.704 2.848 9.344-.376 10.166-.445.054-1.689-.816-2.136-.187-1.129 1.39-1.001 4.917-5.641 7.87-6.728 4.277-15.136.513-17.618-6.608zm18.116 12.242a6.1 6.1 0 0 1-2.36.201c-2.49-.262-4.652-.8-5.197-3.387a12.4 12.4 0 0 0 11.41-5.946c.645 2.96.899 7.852-3.853 9.132m-58.633 38.513c-3.512.729-4.371.359-1.011-1.055.9-.378 1.273-.536 1.113-.932-.26-.648-1.429.531-6.09.615a4 4 0 0 1-.931-.03c.351-.482 2.138-1.043 3.204-1.381.423-.134 1.381-.009 1.612-.478.129-.263.015-.665-.527-.688-.067.009-5.02.952-5.553.508-.06-.67 4.958-2.111 6.13-2.376.367-.072 2.362-.175 1.891-.935-.15-.242-.425-.191-.743-.134-.435.081-.268-.009-1.686.134-2.304.233-6.08 1.37-5.451.547 2.601-3.489 13.802-3.378 16.476-2.588-.215 3.346.975 5.663 3.536 6.901-4.149.77-7.627.996-11.97 1.892m44.244.613c-7.039-.583-7.206 1.022-9.849 1.06-.678.011-.998-.031-.328-.703 1.986-1.721 4.12-1.684 4.141-2.359.038-1.417-6.773 2.155-7.79 2.01.09-.932 3.361-2.772 4.25-3.216 1.839-.92 2.144-1.015 2.197-1.318.302-1.867-7.223 2.336-7.86 2.37.012-.349.637-.798.833-.996a16.5 16.5 0 0 1 5.561-3.187c.569-.19 1.287-.393 1.068-.827-.565-1.123-6.92 2.181-7.423 2.32.32-1.313 4.129-3.8 7.835-4.263a25.8 25.8 0 0 1 6.66.004c.8.063 2.265.201 2.793.648a50 50 0 0 0 2.871 8.385 16.9 16.9 0 0 1-4.959.072m-6.24-9.9a25.8 25.8 0 0 0 6.269-7.625 31.1 31.1 0 0 0 4.16 7.805c-1.665.215-1.969.355-2.077.554-1.334-.848-6.672-.875-8.352-.734m48.374-3.082c-5.178 11.622-21.296 13.922-33.955 13.63-.488-.012-1.825.119-2.189-.264-.59-.621-3.082-7.479-3.255-9.051 0-.536 8.371-.855 10.759-1.216 9.437-1.506 16.714-3.523 17.465-14.395a.34.34 0 0 0-.443-.341.34.34 0 0 0-.227.295c-.717 10.401-7.457 12.272-16.898 13.779-1.617.244-5.675.445-8.414.737-3.892-4.672-7.2-16.026-7.449-16.275a.39.39 0 0 0-.469-.067c-.272.185-.314.12 2.637 7.785a17.4 17.4 0 0 1-1.45 2.497 26.2 26.2 0 0 1-5.703 6.097c-5.457.759-9.535 4.69-8.204 5.53.509.324 1.346-.292 2.983-1.035a16.6 16.6 0 0 0-2.425 1.85c-9.276 1.716-20.613 3.498-20.043-5.933.316-.382 2.217-.867 4.229-1.381 4.422-1.131 7.549-1.788 11.457-5.473 8.953-8.388 9.076-24.321 19.805-28.568a12.94 12.94 0 0 0 5.762 2.382c.743 3.015 2.587 3.798 5.842 4.138 4.386.458 8.503-2.787 6.968-10.04 21.339 1.832 28.965 22.414 23.216 35.318z"/><path fill="#414141" d="M348.141 82.313c-.607.216.084 2.728.728 2.728 1.099 0 .711-3.24-.728-2.728"/><path fill="#005BC3" d="M331.227 140.88H318.07s1.186 2.89-1.29 4.489h14.447a1.38 1.38 0 0 0 .987-.406 1.391 1.391 0 0 0 .406-.986v-1.755a1.38 1.38 0 0 0-1.393-1.342M316.728 140.676c-3.551-8.335-10.554-24.314-13.158-30.237a3.685 3.685 0 0 0-3.457-2.218c-40.584.571-39.493 1.072-40.556 1.547a3.61 3.61 0 0 0-1.755 4.85c3.733 7.862 10.68 22.939 13.158 28.431a3.59 3.59 0 0 0 3.25 2.116c7.07.052 28.743.49 39.112.568a3.6 3.6 0 0 0 3.104-1.586 3.6 3.6 0 0 0 .302-3.471"/><path fill="#fff" d="M283.963 126.381c2.853.067 2.496 4.246-.104 4.128-2.774-.126-2.565-4.188.104-4.128"/></g><rect width="373.511" height="143.511" x=".745" y=".745" stroke="url(#c)" stroke-opacity=".08" stroke-width=".511" rx="10.255"/><defs><linearGradient id="b" x1="42.663" x2="213.928" y1="15.809" y2="76.544" gradientUnits="userSpaceOnUse"><stop stop-color="#003F88"/><stop offset=".65" stop-color="#03BCFF"/><stop offset="1" stop-color="#0076FF"/></linearGradient><linearGradient id="c" x1="47.195" x2="387.35" y1="20.571" y2="83.69" gradientUnits="userSpaceOnUse"><stop stop-color="#003F88"/><stop offset=".65" stop-color="#02D4FF"/><stop offset="1" stop-color="#0076FF"/></linearGradient><clipPath id="a"><rect width="373" height="143" x="1" y="1" fill="#fff" rx="10"/></clipPath></defs></svg>