<svg width="375" height="145" viewBox="0 0 375 145" fill="none" xmlns="http://www.w3.org/2000/svg">
<g clip-path="url(#clip0_836_3329)">
<rect x="1" y="1" width="373" height="143" rx="10" fill="#E3F0FF"/>
<path d="M379.257 159C236.144 155.264 203.313 150.164 196.432 141.537C190.39 132.512 190.39 132.512 260.416 82.4127C292.156 59.724 342.356 23.7915 358.677 8.4279C317.628 1.90083 276.277 -2.56138 234.78 -4.94185C233.133 -4.59271 231.418 -4.77425 229.88 -5.46047C228.343 -6.14669 227.062 -7.30233 226.221 -8.76176C225.489 -10.0084 225.102 -11.428 225.102 -12.8741C225.101 -14.3201 225.486 -15.7401 226.217 -16.9873C226.949 -18.2346 228 -19.2639 229.262 -19.969C230.523 -20.6741 231.95 -21.0293 233.395 -20.9981C235.493 -20.9981 375.376 -14.9114 379.026 3.2647C380.348 13.6331 367.593 25.4496 269.688 95.4675C250.808 108.9 230.375 123.592 218.648 132.617C256.304 137.948 362.286 141.789 379.718 142.965C381.745 143.165 383.621 144.124 384.971 145.65C386.321 147.176 387.045 149.155 386.998 151.192C386.926 153.229 386.089 155.164 384.654 156.612C383.22 158.059 381.292 158.912 379.257 159Z" fill="#C8E2FF"/>
<path d="M32.1631 40.1973H19.5771V22.748H24.0771V36.8223H32.1631V40.1973ZM47.6084 34.3965H37.9521C38.0146 35.4277 38.4053 36.2168 39.124 36.7637C39.8506 37.3105 40.917 37.584 42.3232 37.584C43.2139 37.584 44.0771 37.4238 44.9131 37.1035C45.749 36.7832 46.4092 36.4395 46.8936 36.0723H47.3623V39.459C46.4092 39.8418 45.5107 40.1191 44.667 40.291C43.8232 40.4629 42.8896 40.5488 41.8662 40.5488C39.2256 40.5488 37.2021 39.9551 35.7959 38.7676C34.3896 37.5801 33.6865 35.8887 33.6865 33.6934C33.6865 31.5215 34.3506 29.8027 35.6787 28.5371C37.0146 27.2637 38.8428 26.627 41.1631 26.627C43.3037 26.627 44.9131 27.1699 45.9912 28.2559C47.0693 29.334 47.6084 30.8887 47.6084 32.9199V34.3965ZM43.4131 31.9238C43.3896 31.041 43.1709 30.377 42.7568 29.9316C42.3428 29.4863 41.6982 29.2637 40.8232 29.2637C40.0107 29.2637 39.3428 29.4746 38.8193 29.8965C38.2959 30.3184 38.0029 30.9941 37.9404 31.9238H43.4131ZM58.999 40.0801C58.5459 40.1973 58.0654 40.2871 57.5576 40.3496C57.0498 40.4199 56.4287 40.4551 55.6943 40.4551C54.0537 40.4551 52.8311 40.123 52.0264 39.459C51.2295 38.7949 50.8311 37.6582 50.8311 36.0488V29.8965H49.0967V27.0371H50.8311V23.2754H55.0498V27.0371H58.999V29.8965H55.0498V34.5605C55.0498 35.0215 55.0537 35.4238 55.0615 35.7676C55.0693 36.1113 55.1318 36.4199 55.249 36.6934C55.3584 36.9668 55.5498 37.1855 55.8232 37.3496C56.1045 37.5059 56.5107 37.584 57.042 37.584C57.2607 37.584 57.5459 37.5371 57.8975 37.4434C58.2568 37.3496 58.5068 37.2637 58.6475 37.1855H58.999V40.0801ZM67.1318 21.9629L63.7217 28.8652H60.9795L62.8193 21.9629H67.1318ZM80.9365 36.0254C80.9365 37.3848 80.3271 38.4824 79.1084 39.3184C77.8896 40.1465 76.2217 40.5605 74.1045 40.5605C72.9326 40.5605 71.8701 40.4512 70.917 40.2324C69.9639 40.0137 69.1982 39.7715 68.6201 39.5059V36.0371H69.0068C69.2178 36.1855 69.46 36.3496 69.7334 36.5293C70.0146 36.7012 70.4092 36.8887 70.917 37.0918C71.3545 37.2715 71.8506 37.4277 72.4053 37.5605C72.96 37.6855 73.5537 37.748 74.1865 37.748C75.0146 37.748 75.6279 37.6582 76.0264 37.4785C76.4248 37.291 76.624 37.0176 76.624 36.6582C76.624 36.3379 76.5068 36.1074 76.2725 35.9668C76.0381 35.8184 75.5928 35.6777 74.9365 35.5449C74.624 35.4746 74.1982 35.4004 73.6592 35.3223C73.1279 35.2363 72.6436 35.1348 72.2061 35.0176C71.0107 34.7051 70.124 34.2207 69.5459 33.5645C68.9678 32.9004 68.6787 32.0762 68.6787 31.0918C68.6787 29.8262 69.2764 28.7754 70.4717 27.9395C71.6748 27.0957 73.3154 26.6738 75.3936 26.6738C76.3779 26.6738 77.3193 26.7754 78.2178 26.9785C79.124 27.1738 79.8311 27.3848 80.3389 27.6113V30.9395H79.9756C79.3506 30.5098 78.6357 30.1621 77.8311 29.8965C77.0342 29.623 76.2256 29.4863 75.4053 29.4863C74.7256 29.4863 74.1514 29.5801 73.6826 29.7676C73.2217 29.9551 72.9912 30.2207 72.9912 30.5645C72.9912 30.877 73.0967 31.1152 73.3076 31.2793C73.5186 31.4434 74.0146 31.6074 74.7959 31.7715C75.2256 31.8574 75.6865 31.9434 76.1787 32.0293C76.6787 32.1074 77.1787 32.209 77.6787 32.334C78.7881 32.623 79.6084 33.0801 80.1396 33.7051C80.6709 34.3223 80.9365 35.0957 80.9365 36.0254ZM106.155 34.7129C106.155 36.4316 105.425 37.8301 103.964 38.9082C102.511 39.9785 100.534 40.5137 98.0342 40.5137C96.5889 40.5137 95.3271 40.3887 94.249 40.1387C93.1787 39.8809 92.1748 39.5566 91.2373 39.166V34.9824H91.7295C92.6592 35.7246 93.6982 36.2949 94.8467 36.6934C96.0029 37.0918 97.1123 37.291 98.1748 37.291C98.4482 37.291 98.8076 37.2676 99.2529 37.2207C99.6982 37.1738 100.062 37.0957 100.343 36.9863C100.687 36.8457 100.968 36.6699 101.187 36.459C101.413 36.248 101.526 35.9355 101.526 35.5215C101.526 35.1387 101.362 34.8105 101.034 34.5371C100.714 34.2559 100.241 34.041 99.6162 33.8926C98.96 33.7363 98.2646 33.5918 97.5303 33.459C96.8037 33.3184 96.1201 33.1426 95.4795 32.9316C94.0107 32.4551 92.9521 31.8105 92.3037 30.998C91.6631 30.1777 91.3428 29.1621 91.3428 27.9512C91.3428 26.3262 92.0693 25.002 93.5225 23.9785C94.9834 22.9473 96.8584 22.4316 99.1475 22.4316C100.296 22.4316 101.429 22.5449 102.546 22.7715C103.671 22.9902 104.644 23.2676 105.464 23.6035V27.623H104.983C104.28 27.0605 103.417 26.5918 102.394 26.2168C101.378 25.834 100.339 25.6426 99.2764 25.6426C98.9014 25.6426 98.5264 25.6699 98.1514 25.7246C97.7842 25.7715 97.4287 25.8652 97.085 26.0059C96.7803 26.123 96.5186 26.3027 96.2998 26.5449C96.0811 26.7793 95.9717 27.0488 95.9717 27.3535C95.9717 27.8145 96.1475 28.1699 96.499 28.4199C96.8506 28.6621 97.5146 28.8848 98.4912 29.0879C99.1318 29.2207 99.7451 29.3496 100.331 29.4746C100.925 29.5996 101.562 29.7715 102.241 29.9902C103.577 30.4277 104.562 31.0254 105.194 31.7832C105.835 32.5332 106.155 33.5098 106.155 34.7129ZM117.429 40.0801C116.976 40.1973 116.495 40.2871 115.987 40.3496C115.479 40.4199 114.858 40.4551 114.124 40.4551C112.483 40.4551 111.261 40.123 110.456 39.459C109.659 38.7949 109.261 37.6582 109.261 36.0488V29.8965H107.526V27.0371H109.261V23.2754H113.479V27.0371H117.429V29.8965H113.479V34.5605C113.479 35.0215 113.483 35.4238 113.491 35.7676C113.499 36.1113 113.562 36.4199 113.679 36.6934C113.788 36.9668 113.979 37.1855 114.253 37.3496C114.534 37.5059 114.94 37.584 115.472 37.584C115.69 37.584 115.976 37.5371 116.327 37.4434C116.687 37.3496 116.937 37.2637 117.077 37.1855H117.429V40.0801ZM127.929 36.7637V34.0215C127.358 34.0684 126.741 34.1348 126.077 34.2207C125.413 34.2988 124.909 34.3926 124.565 34.502C124.144 34.6348 123.819 34.8301 123.593 35.0879C123.374 35.3379 123.265 35.6699 123.265 36.084C123.265 36.3574 123.288 36.5801 123.335 36.752C123.382 36.9238 123.499 37.0879 123.687 37.2441C123.866 37.4004 124.081 37.5176 124.331 37.5957C124.581 37.666 124.972 37.7012 125.503 37.7012C125.925 37.7012 126.351 37.6152 126.78 37.4434C127.218 37.2715 127.601 37.0449 127.929 36.7637ZM127.929 38.8027C127.702 38.9746 127.421 39.1816 127.085 39.4238C126.749 39.666 126.433 39.8574 126.136 39.998C125.722 40.1855 125.292 40.3223 124.847 40.4082C124.401 40.502 123.913 40.5488 123.382 40.5488C122.132 40.5488 121.085 40.1621 120.241 39.3887C119.397 38.6152 118.976 37.627 118.976 36.4238C118.976 35.4629 119.19 34.6777 119.62 34.0684C120.05 33.459 120.659 32.9785 121.448 32.627C122.229 32.2754 123.198 32.0254 124.354 31.877C125.511 31.7285 126.71 31.6191 127.952 31.5488V31.4785C127.952 30.752 127.655 30.252 127.062 29.9785C126.468 29.6973 125.593 29.5566 124.437 29.5566C123.741 29.5566 122.999 29.6816 122.21 29.9316C121.421 30.1738 120.854 30.3613 120.511 30.4941H120.124V27.3184C120.569 27.2012 121.292 27.0645 122.292 26.9082C123.3 26.7441 124.308 26.6621 125.315 26.6621C127.714 26.6621 129.444 27.0332 130.507 27.7754C131.577 28.5098 132.112 29.666 132.112 31.2441V40.1973H127.929V38.8027ZM145.53 31.0566H145.155C144.976 30.9941 144.687 30.9473 144.288 30.916C143.89 30.8848 143.558 30.8691 143.292 30.8691C142.69 30.8691 142.159 30.9082 141.698 30.9863C141.237 31.0645 140.741 31.1973 140.21 31.3848V40.1973H135.991V27.0371H140.21V28.9707C141.14 28.1738 141.948 27.6465 142.636 27.3887C143.323 27.123 143.956 26.9902 144.534 26.9902C144.683 26.9902 144.851 26.9941 145.038 27.002C145.226 27.0098 145.39 27.0215 145.53 27.0371V31.0566ZM156.335 40.0801C155.882 40.1973 155.401 40.2871 154.894 40.3496C154.386 40.4199 153.765 40.4551 153.03 40.4551C151.39 40.4551 150.167 40.123 149.362 39.459C148.565 38.7949 148.167 37.6582 148.167 36.0488V29.8965H146.433V27.0371H148.167V23.2754H152.386V27.0371H156.335V29.8965H152.386V34.5605C152.386 35.0215 152.39 35.4238 152.397 35.7676C152.405 36.1113 152.468 36.4199 152.585 36.6934C152.694 36.9668 152.886 37.1855 153.159 37.3496C153.44 37.5059 153.847 37.584 154.378 37.584C154.597 37.584 154.882 37.5371 155.233 37.4434C155.593 37.3496 155.843 37.2637 155.983 37.1855H156.335V40.0801Z" fill="url(#paint0_linear_836_3329)"/>
<path d="M26.292 64.1973H25.1318V56.6797L22.7061 61.7949H22.0146L19.6064 56.6797V64.1973H18.5225V55.4727H20.1045L22.4307 60.3301L24.6807 55.4727H26.292V64.1973ZM33.1538 64.1973H32.0581V63.5C31.9604 63.5664 31.8276 63.6602 31.6596 63.7812C31.4956 63.8984 31.3354 63.9922 31.1792 64.0625C30.9956 64.1523 30.7846 64.2266 30.5464 64.2852C30.3081 64.3477 30.0288 64.3789 29.7085 64.3789C29.1186 64.3789 28.6186 64.1836 28.2085 63.793C27.7983 63.4023 27.5932 62.9043 27.5932 62.2988C27.5932 61.8027 27.6987 61.4023 27.9096 61.0977C28.1245 60.7891 28.4292 60.5469 28.8237 60.3711C29.2221 60.1953 29.7007 60.0762 30.2593 60.0137C30.8179 59.9512 31.4175 59.9043 32.0581 59.873V59.7031C32.0581 59.4531 32.0132 59.2461 31.9233 59.082C31.8374 58.918 31.7124 58.7891 31.5483 58.6953C31.3921 58.6055 31.2046 58.5449 30.9858 58.5137C30.7671 58.4824 30.5386 58.4668 30.3003 58.4668C30.0112 58.4668 29.6889 58.5059 29.3335 58.584C28.978 58.6582 28.6108 58.7676 28.2319 58.9121H28.1733V57.793C28.3882 57.7344 28.6987 57.6699 29.105 57.5996C29.5112 57.5293 29.9116 57.4941 30.3061 57.4941C30.7671 57.4941 31.1675 57.5332 31.5073 57.6113C31.8511 57.6855 32.1479 57.8145 32.3979 57.998C32.644 58.1777 32.8315 58.4102 32.9604 58.6953C33.0893 58.9805 33.1538 59.334 33.1538 59.7559V64.1973ZM32.0581 62.5859V60.7637C31.7221 60.7832 31.3257 60.8125 30.8686 60.8516C30.4155 60.8906 30.0561 60.9473 29.7905 61.0215C29.4741 61.1113 29.2182 61.252 29.0229 61.4434C28.8276 61.6309 28.73 61.8906 28.73 62.2227C28.73 62.5977 28.8432 62.8809 29.0698 63.0723C29.2964 63.2598 29.6421 63.3535 30.1069 63.3535C30.4936 63.3535 30.8471 63.2793 31.1675 63.1309C31.4878 62.9785 31.7846 62.7969 32.0581 62.5859ZM40.7363 64.1973H39.2832L36.6582 61.332L35.9433 62.0117V64.1973H34.8418V55.0801H35.9433V60.9277L39.125 57.6523H40.5136L37.4726 60.6758L40.7363 64.1973ZM46.7778 61.0391H41.9555C41.9555 61.4414 42.0161 61.793 42.1371 62.0938C42.2582 62.3906 42.4243 62.6348 42.6352 62.8262C42.8383 63.0137 43.0786 63.1543 43.3559 63.248C43.6371 63.3418 43.9457 63.3887 44.2817 63.3887C44.727 63.3887 45.1743 63.3008 45.6235 63.125C46.0766 62.9453 46.3989 62.7695 46.5903 62.5977H46.6489V63.7988C46.2778 63.9551 45.8989 64.0859 45.5121 64.1914C45.1254 64.2969 44.7192 64.3496 44.2934 64.3496C43.2075 64.3496 42.3598 64.0566 41.7504 63.4707C41.1411 62.8809 40.8364 62.0449 40.8364 60.9629C40.8364 59.8926 41.1274 59.043 41.7094 58.4141C42.2954 57.7852 43.0649 57.4707 44.018 57.4707C44.9008 57.4707 45.5805 57.7285 46.0571 58.2441C46.5375 58.7598 46.7778 59.4922 46.7778 60.4414V61.0391ZM45.7055 60.1953C45.7016 59.6172 45.5551 59.1699 45.2661 58.8535C44.9809 58.5371 44.5454 58.3789 43.9594 58.3789C43.3696 58.3789 42.8989 58.5527 42.5473 58.9004C42.1996 59.248 42.0024 59.6797 41.9555 60.1953H45.7055ZM56.7924 64.1973H55.6967V63.5C55.599 63.5664 55.4662 63.6602 55.2982 63.7812C55.1342 63.8984 54.974 63.9922 54.8178 64.0625C54.6342 64.1523 54.4232 64.2266 54.185 64.2852C53.9467 64.3477 53.6674 64.3789 53.3471 64.3789C52.7572 64.3789 52.2572 64.1836 51.8471 63.793C51.4369 63.4023 51.2318 62.9043 51.2318 62.2988C51.2318 61.8027 51.3373 61.4023 51.5482 61.0977C51.7631 60.7891 52.0678 60.5469 52.4623 60.3711C52.8607 60.1953 53.3393 60.0762 53.8979 60.0137C54.4564 59.9512 55.0561 59.9043 55.6967 59.873V59.7031C55.6967 59.4531 55.6518 59.2461 55.5619 59.082C55.476 58.918 55.351 58.7891 55.1869 58.6953C55.0307 58.6055 54.8432 58.5449 54.6244 58.5137C54.4057 58.4824 54.1771 58.4668 53.9389 58.4668C53.6498 58.4668 53.3275 58.5059 52.9721 58.584C52.6166 58.6582 52.2494 58.7676 51.8705 58.9121H51.8119V57.793C52.0268 57.7344 52.3373 57.6699 52.7436 57.5996C53.1498 57.5293 53.5502 57.4941 53.9447 57.4941C54.4057 57.4941 54.8061 57.5332 55.1459 57.6113C55.4896 57.6855 55.7865 57.8145 56.0365 57.998C56.2826 58.1777 56.4701 58.4102 56.599 58.6953C56.7279 58.9805 56.7924 59.334 56.7924 59.7559V64.1973ZM55.6967 62.5859V60.7637C55.3607 60.7832 54.9643 60.8125 54.5072 60.8516C54.0541 60.8906 53.6947 60.9473 53.4291 61.0215C53.1127 61.1113 52.8568 61.252 52.6615 61.4434C52.4662 61.6309 52.3686 61.8906 52.3686 62.2227C52.3686 62.5977 52.4818 62.8809 52.7084 63.0723C52.935 63.2598 53.2807 63.3535 53.7455 63.3535C54.1322 63.3535 54.4857 63.2793 54.8061 63.1309C55.1264 62.9785 55.4232 62.7969 55.6967 62.5859ZM67.4808 64.1973H66.3793V63.5117C66.0629 63.7852 65.7328 63.998 65.389 64.1504C65.0453 64.3027 64.6722 64.3789 64.2699 64.3789C63.4886 64.3789 62.8675 64.0781 62.4066 63.4766C61.9496 62.875 61.7211 62.041 61.7211 60.9746C61.7211 60.4199 61.7992 59.9258 61.9554 59.4922C62.1156 59.0586 62.3304 58.6895 62.6 58.3848C62.8656 58.0879 63.1742 57.8613 63.5257 57.7051C63.8812 57.5488 64.2484 57.4707 64.6273 57.4707C64.9711 57.4707 65.2757 57.5078 65.5414 57.582C65.807 57.6523 66.0863 57.7637 66.3793 57.916V55.0801H67.4808V64.1973ZM66.3793 62.5859V58.8301C66.0824 58.6973 65.8168 58.6055 65.5824 58.5547C65.348 58.5039 65.0921 58.4785 64.8148 58.4785C64.1976 58.4785 63.7171 58.6934 63.3734 59.123C63.0296 59.5527 62.8578 60.1621 62.8578 60.9512C62.8578 61.7285 62.9906 62.3203 63.2562 62.7266C63.5218 63.1289 63.9476 63.3301 64.5336 63.3301C64.8461 63.3301 65.1625 63.2617 65.4828 63.125C65.8031 62.9844 66.1019 62.8047 66.3793 62.5859ZM73.2528 58.8535H73.1942C73.0301 58.8145 72.87 58.7871 72.7137 58.7715C72.5614 58.752 72.3797 58.7422 72.1688 58.7422C71.8289 58.7422 71.5008 58.8184 71.1844 58.9707C70.868 59.1191 70.5633 59.3125 70.2704 59.5508V64.1973H69.1688V57.6523H70.2704V58.6191C70.7079 58.2676 71.0926 58.0195 71.4246 57.875C71.7606 57.7266 72.1024 57.6523 72.45 57.6523C72.6414 57.6523 72.7801 57.6582 72.8661 57.6699C72.952 57.6777 73.0809 57.6953 73.2528 57.7227V58.8535ZM78.6849 64.1973H77.5892V63.5C77.4915 63.5664 77.3587 63.6602 77.1907 63.7812C77.0267 63.8984 76.8665 63.9922 76.7103 64.0625C76.5267 64.1523 76.3157 64.2266 76.0775 64.2852C75.8392 64.3477 75.5599 64.3789 75.2396 64.3789C74.6497 64.3789 74.1497 64.1836 73.7396 63.793C73.3294 63.4023 73.1243 62.9043 73.1243 62.2988C73.1243 61.8027 73.2298 61.4023 73.4407 61.0977C73.6556 60.7891 73.9603 60.5469 74.3548 60.3711C74.7532 60.1953 75.2318 60.0762 75.7904 60.0137C76.3489 59.9512 76.9486 59.9043 77.5892 59.873V59.7031C77.5892 59.4531 77.5443 59.2461 77.4544 59.082C77.3685 58.918 77.2435 58.7891 77.0794 58.6953C76.9232 58.6055 76.7357 58.5449 76.5169 58.5137C76.2982 58.4824 76.0696 58.4668 75.8314 58.4668C75.5423 58.4668 75.22 58.5059 74.8646 58.584C74.5091 58.6582 74.1419 58.7676 73.763 58.9121H73.7044V57.793C73.9193 57.7344 74.2298 57.6699 74.6361 57.5996C75.0423 57.5293 75.4427 57.4941 75.8372 57.4941C76.2982 57.4941 76.6986 57.5332 77.0384 57.6113C77.3821 57.6855 77.679 57.8145 77.929 57.998C78.1751 58.1777 78.3626 58.4102 78.4915 58.6953C78.6204 58.9805 78.6849 59.334 78.6849 59.7559V64.1973ZM77.5892 62.5859V60.7637C77.2532 60.7832 76.8568 60.8125 76.3997 60.8516C75.9466 60.8906 75.5872 60.9473 75.3216 61.0215C75.0052 61.1113 74.7493 61.252 74.554 61.4434C74.3587 61.6309 74.2611 61.8906 74.2611 62.2227C74.2611 62.5977 74.3743 62.8809 74.6009 63.0723C74.8275 63.2598 75.1732 63.3535 75.638 63.3535C76.0247 63.3535 76.3782 63.2793 76.6986 63.1309C77.0189 62.9785 77.3157 62.7969 77.5892 62.5859ZM83.8475 56.1465H83.7889C83.6678 56.1113 83.5096 56.0762 83.3143 56.041C83.1189 56.002 82.9471 55.9824 82.7986 55.9824C82.326 55.9824 81.9822 56.0879 81.7674 56.2988C81.5564 56.5059 81.451 56.8828 81.451 57.4297V57.6523H83.4373V58.5781H81.4861V64.1973H80.3846V58.5781H79.6404V57.6523H80.3846V57.4355C80.3846 56.6582 80.5779 56.0625 80.9646 55.6484C81.3514 55.2305 81.91 55.0215 82.6404 55.0215C82.8865 55.0215 83.1072 55.0332 83.3025 55.0566C83.5018 55.0801 83.6834 55.1074 83.8475 55.1387V56.1465ZM87.4632 64.1387C87.2561 64.1934 87.0296 64.2383 86.7835 64.2734C86.5413 64.3086 86.3245 64.3262 86.1331 64.3262C85.4651 64.3262 84.9573 64.1465 84.6096 63.7871C84.262 63.4277 84.0882 62.8516 84.0882 62.0586V58.5781H83.344V57.6523H84.0882V55.7715H85.1897V57.6523H87.4632V58.5781H85.1897V61.5605C85.1897 61.9043 85.1975 62.1738 85.2132 62.3691C85.2288 62.5605 85.2835 62.7402 85.3772 62.9082C85.4632 63.0645 85.5804 63.1797 85.7288 63.2539C85.8811 63.3242 86.1116 63.3594 86.4202 63.3594C86.5999 63.3594 86.7874 63.334 86.9827 63.2832C87.178 63.2285 87.3186 63.1836 87.4046 63.1484H87.4632V64.1387ZM95.5793 56.1465H95.5207C95.3997 56.1113 95.2414 56.0762 95.0461 56.041C94.8508 56.002 94.6789 55.9824 94.5305 55.9824C94.0579 55.9824 93.7141 56.0879 93.4993 56.2988C93.2883 56.5059 93.1829 56.8828 93.1829 57.4297V57.6523H95.1692V58.5781H93.218V64.1973H92.1164V58.5781H91.3723V57.6523H92.1164V57.4355C92.1164 56.6582 92.3098 56.0625 92.6965 55.6484C93.0832 55.2305 93.6418 55.0215 94.3723 55.0215C94.6184 55.0215 94.8391 55.0332 95.0344 55.0566C95.2336 55.0801 95.4153 55.1074 95.5793 55.1387V56.1465ZM101.375 60.9277C101.375 61.9941 101.101 62.8359 100.554 63.4531C100.008 64.0703 99.2751 64.3789 98.3571 64.3789C97.4314 64.3789 96.695 64.0703 96.1482 63.4531C95.6052 62.8359 95.3337 61.9941 95.3337 60.9277C95.3337 59.8613 95.6052 59.0195 96.1482 58.4023C96.695 57.7812 97.4314 57.4707 98.3571 57.4707C99.2751 57.4707 100.008 57.7812 100.554 58.4023C101.101 59.0195 101.375 59.8613 101.375 60.9277ZM100.238 60.9277C100.238 60.0801 100.072 59.4512 99.74 59.041C99.4079 58.627 98.947 58.4199 98.3571 58.4199C97.7595 58.4199 97.2946 58.627 96.9626 59.041C96.6345 59.4512 96.4704 60.0801 96.4704 60.9277C96.4704 61.748 96.6364 62.3711 96.9685 62.7969C97.3005 63.2188 97.7634 63.4297 98.3571 63.4297C98.9431 63.4297 99.4021 63.2207 99.7341 62.8027C100.07 62.3809 100.238 61.7559 100.238 60.9277ZM106.69 58.8535H106.631C106.467 58.8145 106.307 58.7871 106.151 58.7715C105.998 58.752 105.817 58.7422 105.606 58.7422C105.266 58.7422 104.938 58.8184 104.621 58.9707C104.305 59.1191 104 59.3125 103.707 59.5508V64.1973H102.606V57.6523H103.707V58.6191C104.145 58.2676 104.529 58.0195 104.862 57.875C105.197 57.7266 105.539 57.6523 105.887 57.6523C106.078 57.6523 106.217 57.6582 106.303 57.6699C106.389 57.6777 106.518 57.6953 106.69 57.7227V58.8535ZM116.646 57.6523L112.825 66.6113H111.648L112.866 63.8809L110.259 57.6523H111.454L113.464 62.5039L115.491 57.6523H116.646ZM123.08 60.9277C123.08 61.9941 122.806 62.8359 122.259 63.4531C121.713 64.0703 120.98 64.3789 120.062 64.3789C119.136 64.3789 118.4 64.0703 117.853 63.4531C117.31 62.8359 117.039 61.9941 117.039 60.9277C117.039 59.8613 117.31 59.0195 117.853 58.4023C118.4 57.7812 119.136 57.4707 120.062 57.4707C120.98 57.4707 121.713 57.7812 122.259 58.4023C122.806 59.0195 123.08 59.8613 123.08 60.9277ZM121.943 60.9277C121.943 60.0801 121.777 59.4512 121.445 59.041C121.113 58.627 120.652 58.4199 120.062 58.4199C119.464 58.4199 119 58.627 118.668 59.041C118.339 59.4512 118.175 60.0801 118.175 60.9277C118.175 61.748 118.341 62.3711 118.673 62.7969C119.006 63.2188 119.468 63.4297 120.062 63.4297C120.648 63.4297 121.107 63.2207 121.439 62.8027C121.775 62.3809 121.943 61.7559 121.943 60.9277ZM129.736 64.1973H128.635V63.4707C128.264 63.7637 127.908 63.9883 127.568 64.1445C127.229 64.3008 126.854 64.3789 126.443 64.3789C125.756 64.3789 125.221 64.1699 124.838 63.752C124.455 63.3301 124.264 62.7129 124.264 61.9004V57.6523H125.365V61.3789C125.365 61.7109 125.381 61.9961 125.412 62.2344C125.443 62.4688 125.51 62.6699 125.611 62.8379C125.717 63.0098 125.854 63.1348 126.022 63.2129C126.19 63.291 126.434 63.3301 126.754 63.3301C127.039 63.3301 127.35 63.2559 127.686 63.1074C128.026 62.959 128.342 62.7695 128.635 62.5391V57.6523H129.736V64.1973ZM135.508 58.8535H135.45C135.286 58.8145 135.126 58.7871 134.969 58.7715C134.817 58.752 134.635 58.7422 134.424 58.7422C134.085 58.7422 133.756 58.8184 133.44 58.9707C133.124 59.1191 132.819 59.3125 132.526 59.5508V64.1973H131.424V57.6523H132.526V58.6191C132.963 58.2676 133.348 58.0195 133.68 57.875C134.016 57.7266 134.358 57.6523 134.706 57.6523C134.897 57.6523 135.036 57.6582 135.122 57.6699C135.208 57.6777 135.337 57.6953 135.508 57.7227V58.8535ZM146.115 56.5039H142.998V64.1973H141.837V56.5039H138.72V55.4727H146.115V56.5039ZM147.902 56.5566H146.66V55.4141H147.902V56.5566ZM147.832 64.1973H146.731V57.6523H147.832V64.1973ZM154.372 63.7871C154.004 63.9629 153.655 64.0996 153.323 64.1973C152.995 64.2949 152.645 64.3438 152.274 64.3438C151.801 64.3438 151.368 64.2754 150.973 64.1387C150.579 63.998 150.241 63.7871 149.959 63.5059C149.674 63.2246 149.454 62.8691 149.297 62.4395C149.141 62.0098 149.063 61.5078 149.063 60.9336C149.063 59.8633 149.356 59.0234 149.942 58.4141C150.532 57.8047 151.309 57.5 152.274 57.5C152.649 57.5 153.016 57.5527 153.376 57.6582C153.739 57.7637 154.071 57.8926 154.372 58.0449V59.2695H154.313C153.977 59.0078 153.629 58.8066 153.27 58.666C152.915 58.5254 152.567 58.4551 152.227 58.4551C151.602 58.4551 151.108 58.666 150.745 59.0879C150.385 59.5059 150.206 60.1211 150.206 60.9336C150.206 61.7227 150.381 62.3301 150.733 62.7559C151.088 63.1777 151.586 63.3887 152.227 63.3887C152.45 63.3887 152.676 63.3594 152.907 63.3008C153.137 63.2422 153.344 63.166 153.528 63.0723C153.688 62.9902 153.838 62.9043 153.979 62.8145C154.12 62.7207 154.231 62.6406 154.313 62.5742H154.372V63.7871ZM161.251 64.1973H159.798L157.173 61.332L156.458 62.0117V64.1973H155.356V55.0801H156.458V60.9277L159.64 57.6523H161.028L157.987 60.6758L161.251 64.1973ZM167.292 61.0391H162.47C162.47 61.4414 162.531 61.793 162.652 62.0938C162.773 62.3906 162.939 62.6348 163.15 62.8262C163.353 63.0137 163.593 63.1543 163.871 63.248C164.152 63.3418 164.46 63.3887 164.796 63.3887C165.242 63.3887 165.689 63.3008 166.138 63.125C166.591 62.9453 166.914 62.7695 167.105 62.5977H167.164V63.7988C166.792 63.9551 166.414 64.0859 166.027 64.1914C165.64 64.2969 165.234 64.3496 164.808 64.3496C163.722 64.3496 162.874 64.0566 162.265 63.4707C161.656 62.8809 161.351 62.0449 161.351 60.9629C161.351 59.8926 161.642 59.043 162.224 58.4141C162.81 57.7852 163.58 57.4707 164.533 57.4707C165.416 57.4707 166.095 57.7285 166.572 58.2441C167.052 58.7598 167.292 59.4922 167.292 60.4414V61.0391ZM166.22 60.1953C166.216 59.6172 166.07 59.1699 165.781 58.8535C165.496 58.5371 165.06 58.3789 164.474 58.3789C163.884 58.3789 163.414 58.5527 163.062 58.9004C162.714 59.248 162.517 59.6797 162.47 60.1953H166.22ZM171.881 64.1387C171.674 64.1934 171.447 64.2383 171.201 64.2734C170.959 64.3086 170.742 64.3262 170.551 64.3262C169.883 64.3262 169.375 64.1465 169.027 63.7871C168.68 63.4277 168.506 62.8516 168.506 62.0586V58.5781H167.762V57.6523H168.506V55.7715H169.607V57.6523H171.881V58.5781H169.607V61.5605C169.607 61.9043 169.615 62.1738 169.631 62.3691C169.646 62.5605 169.701 62.7402 169.795 62.9082C169.881 63.0645 169.998 63.1797 170.146 63.2539C170.299 63.3242 170.529 63.3594 170.838 63.3594C171.018 63.3594 171.205 63.334 171.4 63.2832C171.596 63.2285 171.736 63.1836 171.822 63.1484H171.881V64.1387ZM181.561 64.1973H180.466V63.5C180.368 63.5664 180.235 63.6602 180.067 63.7812C179.903 63.8984 179.743 63.9922 179.587 64.0625C179.403 64.1523 179.192 64.2266 178.954 64.2852C178.716 64.3477 178.436 64.3789 178.116 64.3789C177.526 64.3789 177.026 64.1836 176.616 63.793C176.206 63.4023 176.001 62.9043 176.001 62.2988C176.001 61.8027 176.106 61.4023 176.317 61.0977C176.532 60.7891 176.837 60.5469 177.231 60.3711C177.63 60.1953 178.108 60.0762 178.667 60.0137C179.226 59.9512 179.825 59.9043 180.466 59.873V59.7031C180.466 59.4531 180.421 59.2461 180.331 59.082C180.245 58.918 180.12 58.7891 179.956 58.6953C179.8 58.6055 179.612 58.5449 179.393 58.5137C179.175 58.4824 178.946 58.4668 178.708 58.4668C178.419 58.4668 178.097 58.5059 177.741 58.584C177.386 58.6582 177.018 58.7676 176.64 58.9121H176.581V57.793C176.796 57.7344 177.106 57.6699 177.513 57.5996C177.919 57.5293 178.319 57.4941 178.714 57.4941C179.175 57.4941 179.575 57.5332 179.915 57.6113C180.259 57.6855 180.556 57.8145 180.806 57.998C181.052 58.1777 181.239 58.4102 181.368 58.6953C181.497 58.9805 181.561 59.334 181.561 59.7559V64.1973ZM180.466 62.5859V60.7637C180.13 60.7832 179.733 60.8125 179.276 60.8516C178.823 60.8906 178.464 60.9473 178.198 61.0215C177.882 61.1113 177.626 61.252 177.431 61.4434C177.235 61.6309 177.138 61.8906 177.138 62.2227C177.138 62.5977 177.251 62.8809 177.477 63.0723C177.704 63.2598 178.05 63.3535 178.515 63.3535C178.901 63.3535 179.255 63.2793 179.575 63.1309C179.895 62.9785 180.192 62.7969 180.466 62.5859ZM188.675 64.1973H187.574V60.4707C187.574 60.1699 187.556 59.8887 187.521 59.627C187.486 59.3613 187.421 59.1543 187.328 59.0059C187.23 58.8418 187.089 58.7207 186.906 58.6426C186.722 58.5605 186.484 58.5195 186.191 58.5195C185.89 58.5195 185.576 58.5938 185.247 58.7422C184.919 58.8906 184.605 59.0801 184.304 59.3105V64.1973H183.203V57.6523H184.304V58.3789C184.648 58.0938 185.003 57.8711 185.371 57.7109C185.738 57.5508 186.115 57.4707 186.501 57.4707C187.208 57.4707 187.747 57.6836 188.119 58.1094C188.49 58.5352 188.675 59.1484 188.675 59.9492V64.1973ZM195.625 64.1973H194.523V63.5117C194.207 63.7852 193.877 63.998 193.533 64.1504C193.189 64.3027 192.816 64.3789 192.414 64.3789C191.633 64.3789 191.012 64.0781 190.551 63.4766C190.094 62.875 189.865 62.041 189.865 60.9746C189.865 60.4199 189.943 59.9258 190.099 59.4922C190.26 59.0586 190.474 58.6895 190.744 58.3848C191.01 58.0879 191.318 57.8613 191.67 57.7051C192.025 57.5488 192.392 57.4707 192.771 57.4707C193.115 57.4707 193.42 57.5078 193.685 57.582C193.951 57.6523 194.23 57.7637 194.523 57.916V55.0801H195.625V64.1973ZM194.523 62.5859V58.8301C194.226 58.6973 193.961 58.6055 193.726 58.5547C193.492 58.5039 193.236 58.4785 192.959 58.4785C192.342 58.4785 191.861 58.6934 191.517 59.123C191.174 59.5527 191.002 60.1621 191.002 60.9512C191.002 61.7285 191.135 62.3203 191.4 62.7266C191.666 63.1289 192.092 63.3301 192.678 63.3301C192.99 63.3301 193.307 63.2617 193.627 63.125C193.947 62.9844 194.246 62.8047 194.523 62.5859ZM23.1104 79.3105C23.1104 79.9082 22.8623 80.3984 22.3662 80.7812C21.874 81.1641 21.2002 81.3555 20.3447 81.3555C19.8604 81.3555 19.415 81.2988 19.0088 81.1855C18.6064 81.0684 18.2686 80.9414 17.9951 80.8047V79.5684H18.0537C18.4014 79.8301 18.7881 80.0391 19.2139 80.1953C19.6396 80.3477 20.0479 80.4238 20.4385 80.4238C20.9229 80.4238 21.3018 80.3457 21.5752 80.1895C21.8486 80.0332 21.9854 79.7871 21.9854 79.4512C21.9854 79.1934 21.9111 78.998 21.7627 78.8652C21.6143 78.7324 21.3291 78.6191 20.9072 78.5254C20.751 78.4902 20.5459 78.4492 20.292 78.4023C20.042 78.3555 19.8135 78.3047 19.6064 78.25C19.0322 78.0977 18.624 77.875 18.3818 77.582C18.1436 77.2852 18.0244 76.9219 18.0244 76.4922C18.0244 76.2227 18.0791 75.9688 18.1885 75.7305C18.3018 75.4922 18.4717 75.2793 18.6982 75.0918C18.917 74.9082 19.1943 74.7637 19.5303 74.6582C19.8701 74.5488 20.249 74.4941 20.667 74.4941C21.0576 74.4941 21.4521 74.543 21.8506 74.6406C22.2529 74.7344 22.5869 74.8496 22.8525 74.9863V76.1641H22.7939C22.5127 75.957 22.1709 75.7832 21.7686 75.6426C21.3662 75.498 20.9717 75.4258 20.585 75.4258C20.1826 75.4258 19.8428 75.5039 19.5654 75.6602C19.2881 75.8125 19.1494 76.041 19.1494 76.3457C19.1494 76.6152 19.2334 76.8184 19.4014 76.9551C19.5654 77.0918 19.8311 77.2031 20.1982 77.2891C20.4014 77.3359 20.6279 77.3828 20.8779 77.4297C21.1318 77.4766 21.3428 77.5195 21.5107 77.5586C22.0225 77.6758 22.417 77.877 22.6943 78.1621C22.9717 78.4512 23.1104 78.834 23.1104 79.3105ZM29.6382 81.1973H28.5366V80.4707C28.1655 80.7637 27.81 80.9883 27.4702 81.1445C27.1304 81.3008 26.7554 81.3789 26.3452 81.3789C25.6577 81.3789 25.1225 81.1699 24.7397 80.752C24.3569 80.3301 24.1655 79.7129 24.1655 78.9004V74.6523H25.2671V78.3789C25.2671 78.7109 25.2827 78.9961 25.3139 79.2344C25.3452 79.4688 25.4116 79.6699 25.5132 79.8379C25.6186 80.0098 25.7554 80.1348 25.9233 80.2129C26.0913 80.291 26.3354 80.3301 26.6557 80.3301C26.9409 80.3301 27.2514 80.2559 27.5874 80.1074C27.9272 79.959 28.2436 79.7695 28.5366 79.5391V74.6523H29.6382V81.1973ZM37.0859 77.875C37.0859 78.4219 37.0078 78.9141 36.8515 79.3516C36.6992 79.7891 36.4921 80.1562 36.2304 80.4531C35.9531 80.7617 35.6484 80.9941 35.3164 81.1504C34.9843 81.3027 34.6191 81.3789 34.2207 81.3789C33.8496 81.3789 33.5254 81.334 33.248 81.2441C32.9707 81.1582 32.6972 81.041 32.4277 80.8926L32.3574 81.1973H31.3261V72.0801H32.4277V75.3379C32.7363 75.084 33.0644 74.877 33.4121 74.7168C33.7597 74.5527 34.1504 74.4707 34.5839 74.4707C35.3574 74.4707 35.9668 74.7676 36.4121 75.3613C36.8613 75.9551 37.0859 76.793 37.0859 77.875ZM35.9492 77.9043C35.9492 77.123 35.8203 76.5312 35.5625 76.1289C35.3046 75.7227 34.8886 75.5195 34.3144 75.5195C33.9941 75.5195 33.6699 75.5898 33.3418 75.7305C33.0136 75.8672 32.7089 76.0449 32.4277 76.2637V80.0137C32.7402 80.1543 33.0078 80.252 33.2304 80.3066C33.457 80.3613 33.7129 80.3887 33.998 80.3887C34.6074 80.3887 35.0839 80.1895 35.4277 79.791C35.7754 79.3887 35.9492 78.7598 35.9492 77.9043ZM47.8735 81.1973H46.7719V77.4707C46.7719 77.1895 46.7582 76.918 46.7309 76.6562C46.7075 76.3945 46.6547 76.1855 46.5727 76.0293C46.4829 75.8613 46.3539 75.7344 46.186 75.6484C46.018 75.5625 45.7758 75.5195 45.4594 75.5195C45.1508 75.5195 44.8422 75.5977 44.5336 75.7539C44.225 75.9062 43.9164 76.1016 43.6079 76.3398C43.6196 76.4297 43.6293 76.5352 43.6371 76.6562C43.645 76.7734 43.6489 76.8906 43.6489 77.0078V81.1973H42.5473V77.4707C42.5473 77.1816 42.5336 76.9082 42.5063 76.6504C42.4829 76.3887 42.4301 76.1797 42.3481 76.0234C42.2582 75.8555 42.1293 75.7305 41.9614 75.6484C41.7934 75.5625 41.5512 75.5195 41.2348 75.5195C40.934 75.5195 40.6313 75.5938 40.3266 75.7422C40.0258 75.8906 39.725 76.0801 39.4243 76.3105V81.1973H38.3227V74.6523H39.4243V75.3789C39.768 75.0938 40.1098 74.8711 40.4496 74.7109C40.7934 74.5508 41.1586 74.4707 41.5454 74.4707C41.9907 74.4707 42.3676 74.5645 42.6762 74.752C42.9887 74.9395 43.2211 75.1992 43.3735 75.5312C43.8188 75.1562 44.225 74.8867 44.5922 74.7227C44.9594 74.5547 45.352 74.4707 45.77 74.4707C46.4887 74.4707 47.018 74.6895 47.3579 75.127C47.7016 75.5605 47.8735 76.168 47.8735 76.9492V81.1973ZM50.6982 73.5566H49.456V72.4141H50.6982V73.5566ZM50.6279 81.1973H49.5263V74.6523H50.6279V81.1973ZM55.726 81.1387C55.5189 81.1934 55.2924 81.2383 55.0463 81.2734C54.8041 81.3086 54.5873 81.3262 54.3959 81.3262C53.7279 81.3262 53.2201 81.1465 52.8725 80.7871C52.5248 80.4277 52.351 79.8516 52.351 79.0586V75.5781H51.6068V74.6523H52.351V72.7715H53.4525V74.6523H55.726V75.5781H53.4525V78.5605C53.4525 78.9043 53.4604 79.1738 53.476 79.3691C53.4916 79.5605 53.5463 79.7402 53.64 79.9082C53.726 80.0645 53.8432 80.1797 53.9916 80.2539C54.1439 80.3242 54.3744 80.3594 54.683 80.3594C54.8627 80.3594 55.0502 80.334 55.2455 80.2832C55.4408 80.2285 55.5814 80.1836 55.6674 80.1484H55.726V81.1387Z" fill="#384F69"/>
<path d="M284.736 98.1049C281.714 87.4157 291.679 69.1655 277.667 60.7993C261.058 50.8833 240.466 79.0407 274.984 97.6405C278.442 99.4535 282.201 100.625 286.077 101.098C285.252 100.582 284.927 98.7802 284.736 98.1049Z" fill="#FDAF31"/>
<path d="M263.127 81.4927C260.358 80.4855 257.741 78.4165 258.491 75.7345C259.354 72.654 264.837 72.1533 267.789 74.2276C267.92 74.1935 268.051 74.1633 268.184 74.1369C271.361 72.4041 277.361 72.3168 278.84 75.4386C279.218 73.9542 278.711 72.4708 277.171 71.3375C277.114 71.3557 277.06 71.3725 277.012 71.3907C276.566 71.5639 276.076 71.6048 275.605 71.508C275.134 71.4112 274.705 71.1813 274.373 70.8483C273.584 69.9178 275.054 69.3183 277.258 70.8003C279.091 70.1768 279.167 68.6329 279.674 68.9111C279.732 68.9429 279.775 68.9951 279.792 69.0564C279.81 69.118 279.8 69.1835 279.767 69.2387C279.328 70.0728 278.608 70.7429 277.723 71.1423C278.511 71.7248 279.074 72.54 279.323 73.46C279.572 74.38 279.494 75.3529 279.101 76.2261C279.478 78.1349 278.145 79.6975 276.443 80.7167C274.875 86.0336 265.538 86.4182 263.127 81.4927ZM263.832 81.7286C266.329 85.5799 273.968 85.4173 275.781 81.0783C274.248 81.8029 272.586 82.2457 270.881 82.3833C269.828 82.484 270.421 82.2365 269.649 83.2413C269.609 83.2927 269.55 83.3269 269.484 83.3367C269.418 83.3464 269.351 83.3307 269.297 83.2931C269.243 83.2555 269.207 83.1991 269.197 83.1362C269.187 83.0734 269.203 83.0092 269.242 82.9579C269.365 82.7991 269.478 82.6341 269.581 82.4634C267.635 82.5267 265.692 82.2783 263.833 81.7286H263.832ZM263.497 81.1004C265.534 81.7747 267.689 82.071 269.843 81.9732C270.206 81.1899 270.37 80.3365 270.324 79.4817C270.019 79.3805 269.665 79.6409 268.648 79.6131C265.82 79.5335 265.196 76.7105 266.97 75.006C264.255 76.1263 262.413 78.5608 263.497 81.1028L263.497 81.1004ZM270.832 79.6251C270.883 82.0524 269.847 82.0001 270.832 81.9061C272.649 81.7698 274.414 81.2606 276.004 80.4136C276.111 79.9896 276.158 79.5541 276.145 79.1186C274.481 79.8376 272.614 80.0155 270.833 79.6251H270.832ZM263.665 73.4223C257.968 73.4223 256.869 78.4515 262.879 80.8701C261.992 78.0347 264.21 75.4506 267.185 74.4113C266.139 73.7591 264.915 73.4151 263.665 73.4223ZM276.636 78.8673C276.665 79.2606 276.65 79.6558 276.59 80.0457C277.644 79.3205 278.591 78.2836 278.658 77.0314C278.145 77.7864 277.453 78.4154 276.637 78.8673H276.636ZM270.966 79.1632C272.695 79.5388 274.506 79.3402 276.1 78.6011C275.738 75.8846 272.991 73.03 269.927 74.0261C273.382 74.2981 274.946 77.5143 270.965 79.1632H270.966ZM267.87 74.9C265.512 76.5604 266.218 79.5421 269.403 79.0898C267.842 78.2544 266.972 76.7436 267.665 75.2736C267.886 74.8089 267.92 74.9393 267.87 74.9H267.87ZM268.253 75.2357C266.937 77.3019 269.885 79.0117 270.267 78.8927C270.009 77.505 269.306 76.2277 268.254 75.2371L268.253 75.2357ZM268.559 74.8496C269.694 75.89 270.46 77.2424 270.75 78.7177C274.626 77.1158 272.391 74.205 268.958 74.5062C268.815 74.6092 268.681 74.7246 268.559 74.8511L268.559 74.8496ZM272.226 73.4588C274.431 73.9537 276.209 76.2103 276.572 78.3407C277.444 77.8182 278.139 77.0669 278.572 76.1772C277.984 73.8084 274.77 73.2175 272.226 73.4597L272.226 73.4588ZM274.664 70.4051C274.89 70.6895 275.204 70.8994 275.562 71.0055C275.92 71.1115 276.303 71.1083 276.659 70.9965C275.703 70.4157 274.77 70.3058 274.664 70.4075L274.664 70.4051Z" fill="#414141"/>
<path d="M282.569 28.5514C278.517 23.4943 269.634 22.9388 266.883 30.8737C264.366 38.1351 270.692 43.1695 274.881 46.9208C277.237 49.0307 279.585 52.6533 279.215 53.5766C284.825 47.4421 287.767 35.0384 282.569 28.5514Z" fill="#FDAF31"/>
<path d="M282.311 37.7358C282.633 38.4474 282.37 39.3331 281.124 39.7458C280.289 40.1311 279.315 39.4557 279.315 39.0236C278.696 37.63 277.753 35.417 277.2 34.018C277.069 33.6874 277.066 33.3202 277.189 32.9869C277.313 32.6536 277.555 32.3778 277.87 32.2123C278.052 32.1473 278.225 32.0607 278.386 31.9544C278.715 31.8077 279.089 31.7957 279.427 31.9209C279.765 32.0461 280.04 32.2986 280.195 32.6244C280.195 32.7798 281.676 36.3328 282.311 37.7358Z" fill="#87E4FF"/>
<path d="M278.08 37.5817C278.226 37.911 278.238 38.2846 278.113 38.6227C277.988 38.9607 277.735 39.2364 277.41 39.3907C277.228 39.4557 277.055 39.5423 276.894 39.6487C276.019 40.0507 275.085 39.3277 275.085 38.9264C274.466 37.5328 273.558 35.2535 272.969 33.9208C272.407 32.6478 274.002 31.4519 275.239 31.8056C276.26 32.2398 275.909 32.8783 278.08 37.5817Z" fill="#87E4FF"/>
<path d="M275.189 40.4196C275.497 41.1043 275.293 41.9505 274.003 42.3807C273.168 42.7653 272.197 42.0906 272.197 41.6577C271.836 40.7807 271.319 39.6478 271.01 38.7687C270.247 37.1145 273.209 35.6545 274.003 37.3751C274.339 38.412 274.735 39.4285 275.189 40.4196Z" fill="#87E4FF"/>
<path d="M326.376 48.9325C324.056 35.3356 306.86 26.5318 293.508 37.9934C280.815 48.887 287.606 63.9546 291.391 74.9386C292.726 78.8105 293.736 82.9344 293.455 87.219C293.398 88.0954 293.404 90.4692 292.424 91.2953C297.594 89.6077 302.444 87.0609 306.768 83.7618C318.214 74.5654 328.656 62.295 326.376 48.9325Z" fill="#87E4FF"/>
<path d="M297.583 37.4771L291.443 69.6746L313.631 74.3699L320.855 41.7081L297.583 37.4771Z" fill="white"/>
<path d="M298.561 43.4181V42.0781L306.601 43.4181V44.7581L298.561 43.4181Z" fill="#005BC3"/>
<path d="M298.561 48.778V47.438L315.981 50.118V51.458L298.561 48.778Z" fill="#005BC3"/>
<path d="M336.696 30.3574C338.773 34.1764 337.331 39.7997 333.343 39.7997C332.878 39.7997 332.003 39.3354 331.588 39.5418C330.866 39.9029 331.692 41.7648 330.762 41.8117C328.544 41.925 329.248 38.5957 330.143 37.5291C330.801 36.7445 332.103 37.6879 332.878 37.8386C334.785 38.2098 335.546 36.3452 335.664 34.6896C335.739 33.6585 334.89 30.407 333.239 31.7483C332.989 31.989 332.791 32.2785 332.658 32.5989C332.524 32.9194 332.458 33.2638 332.463 33.6109C332.411 33.8689 332.515 34.4886 332.257 34.695C331.999 34.9013 331.534 34.7466 331.225 34.695C331.015 34.6858 330.807 34.6511 330.606 34.5918C329.483 34.1777 330.596 31.1031 331.018 30.1544C332.463 27.7256 335.303 28.0868 336.696 30.3574Z" fill="#87E4FF"/>
<path d="M328.995 43.0825L328.507 45.1414L330.566 45.6292L331.054 43.5703L328.995 43.0825Z" fill="#87E4FF"/>
<path d="M313.116 97.5903L313.735 100.583L311 101.151L310.381 98.2094L313.116 97.5903Z" fill="#87E4FF"/>
<path d="M310.742 86.4443L312.651 95.5778L309.916 96.1453L308.007 87.0125L310.742 86.4443Z" fill="#87E4FF"/>
<path d="M363.476 81.958C362.106 79.4649 358.451 79.5312 357.594 83.6095C356.073 83.2289 353.292 80.1356 353.259 79.8944C353.204 79.4816 353.621 77.6237 353.259 77.3658C352.691 77.0046 351.196 77.3624 350.525 77.2626C349.427 77.0908 348.382 76.6717 347.47 76.037C346.558 75.4024 345.802 74.5687 345.26 73.599C342.741 69.1871 343.694 66.7362 342.781 66.5299C341.508 66.2418 339.486 73.049 332.667 76.2308C332.822 77.5755 334.918 91.9396 334.938 92.02C335.723 94.3181 337.143 96.3469 339.033 97.8718C340.923 99.3966 343.207 100.355 345.619 100.637L345.516 101.359C346.341 104.352 349.49 104.546 350.933 104.713C351.765 104.803 352.607 104.733 353.412 104.507C360.132 102.698 357.183 94.3349 357.385 94.032C357.901 93.1034 358.055 91.7105 358.725 90.883C358.983 90.5219 360.118 91.2448 360.634 91.1932C363.35 90.5165 365.183 85.0694 363.476 81.958Z" fill="white"/>
<path d="M341.24 134.639C340.62 133.917 338.56 133.915 337.783 133.814C329.542 132.736 323.53 136.703 323.49 138.612C323.472 139.461 325.623 137.717 329.372 136.549C330.6 136.166 331.777 136.074 330.042 136.652C327.944 137.363 326.001 138.466 324.315 139.902C324.1 140.117 323.232 140.755 323.386 141.296C323.549 142.19 326.066 140.059 329.684 138.973C333.829 138.145 328.848 139.339 325.556 142.122C324.401 143.099 324.191 144.157 326.588 143.206C333.094 140.627 333.578 140.972 331.18 141.813C327.319 143.168 326.289 145.904 332.057 143.98C337.68 142.573 342.174 144.638 344.389 143.31C343.46 141.453 341.552 136.035 341.397 134.59L341.24 134.639Z" fill="white"/>
<path d="M303.621 133.763C302.585 132.985 298.797 133.125 297.687 133.144C294.59 133.195 288.624 133.466 286.49 136.293C285.083 138.159 290.562 136.189 293.611 136.189C293.869 136.189 294.488 135.983 294.333 136.189C294.179 136.447 292.94 136.496 292.683 136.551C285.567 138.065 283.577 140.659 291.134 139.285C291.201 139.265 292.288 138.993 292.425 139.13C292.683 139.543 291.498 139.447 291.031 139.594C290.518 139.757 287.419 140.627 287.574 141.403C287.677 141.765 288.606 141.666 288.864 141.661C292.932 141.589 294.643 140.65 294.643 140.836C294.695 141.094 291.237 142.022 291.341 142.951C291.495 143.88 294.849 143.003 295.262 142.951C299.596 142.074 303.57 141.816 307.852 140.941C304.151 139.607 303.621 137.138 303.621 133.763Z" fill="#FDAF31"/>
<path d="M370.081 98.159C366.174 96.1646 361.915 94.955 357.543 94.5986C358.471 98.5717 358.162 103.112 353.518 104.454C352.712 104.679 351.871 104.749 351.039 104.661C349.594 104.506 346.447 104.3 345.621 101.307L345.673 100.584C343.383 100.334 341.208 99.457 339.385 98.0491C335.265 99.7483 331.776 104.383 330.245 107.295C326.736 114.003 325.034 121.381 319.306 126.799C317.404 128.54 315.202 129.921 312.807 130.875C308.265 132.269 304.138 132.939 303.57 133.713C303.294 135.211 303.571 136.759 304.349 138.068C305.127 139.378 306.353 140.36 307.801 140.834C312.187 142.382 319.101 141.04 323.952 140.164C326.531 137.583 330.194 136.676 330.92 136.242C330.816 136.088 329.475 136.5 329.372 136.5C325.583 137.6 323.472 139.416 323.489 138.564C323.521 137.023 327.497 134.427 331.642 133.817C334.78 131.447 337.338 128.395 339.124 124.891C342.346 133.157 343.767 132.97 343.767 133.817C342.478 133.972 341.549 134.127 341.497 134.281C341.497 135.885 343.74 141.811 344.49 143.311C345.093 144.522 345.653 144.128 347.276 144.24C393.975 147.446 388.241 108.152 370.081 98.159Z" fill="white"/>
<path d="M355.53 83.4025C355.026 83.1648 354.58 82.8197 354.223 82.3915C353.867 81.9633 353.608 81.4622 353.466 80.9235C350.049 78.8465 345.627 80.5215 345.004 83.2973C344.83 84.1133 344.827 84.9566 344.996 85.7738C345.164 86.5909 345.501 87.3641 345.984 88.0443C348.859 92.1494 358.072 89.123 355.53 83.4025Z" fill="white"/>
<path d="M345.83 93.7221C345.562 92.297 341.719 93.2068 341.908 93.8253C342.471 95.6691 346.184 95.6329 345.83 93.7221Z" fill="white"/>
<path d="M334.478 88.3039C335.153 88.7934 335.955 89.078 336.787 89.1238C337.62 89.1695 338.448 88.9745 339.173 88.5619C339.173 88.1492 339.483 88.046 339.947 87.9428C340.335 87.5462 340.634 87.071 340.824 86.5492C342.96 81.0365 336.709 78.3303 333.601 81.957C333.998 84.2411 334.478 86.1586 334.478 88.3039Z" fill="white"/>
<path d="M371.523 76.5398C371.11 73.8565 368.014 74.6819 366.879 72.8763C365.539 70.7088 365.28 68.0777 363.835 65.9083C360.267 60.4853 348.077 55.1139 343.247 59.4093C342.731 59.8736 342.319 60.8538 341.699 61.0601C340.862 61.365 339.394 60.8089 336.23 62.2467C332.823 63.8025 330.003 66.4058 328.18 69.677C327.561 70.9158 327.458 72.412 326.84 73.5985C326.015 75.1985 324.361 76.0775 324.105 78.0359C323.796 80.3066 325.244 82.2154 327.15 83.2995C327.666 83.609 328.965 83.808 329.317 84.2797C329.766 84.8827 328.524 86.2307 329.833 87.6853C331.251 89.2799 334.528 88.098 334.528 87.8916C334.216 83.2117 333.294 82.2455 333.026 76.0326C339.972 72.6686 341.574 66.1119 342.942 66.4268C343.822 66.6225 343.001 69.1973 345.421 73.496C345.964 74.4644 346.72 75.297 347.632 75.9315C348.543 76.566 349.587 76.9859 350.684 77.1596C351.354 77.2628 352.851 76.9016 353.418 77.2628C354.029 77.6989 352.179 81.6258 355.688 83.3001C356.71 83.7872 357.296 83.3926 357.753 83.5065C358.572 79.6138 362.187 79.2151 363.635 81.8549C364.821 83.9192 364.357 86.8598 363.325 88.8725C362.961 89.783 362.551 89.4755 363.531 89.8011C365.337 89.698 364.976 88.0987 365.854 87.1178C367.143 85.7249 369.465 86.4478 369.982 84.0224C370.384 81.8657 368.839 80.8734 369.207 80.2556C369.457 79.8376 370.085 79.6366 370.394 79.3786C370.793 79.0283 371.104 78.5884 371.3 78.0949C371.496 77.6015 371.573 77.0686 371.523 76.5398Z" fill="#005BC3"/>
<path d="M352.897 89.8521C353.261 89.8596 353.608 90.0097 353.863 90.2702C354.118 90.5306 354.26 90.8806 354.26 91.245C354.26 91.6092 354.117 91.9589 353.862 92.2193C353.608 92.4797 353.261 92.6302 352.897 92.6386C351.015 92.6399 351.121 89.8521 352.897 89.8521Z" fill="#FDAF31"/>
<path d="M337.006 89.8521C337.371 89.8596 337.717 90.0097 337.972 90.2702C338.227 90.5306 338.37 90.8806 338.369 91.245C338.369 91.6092 338.226 91.9589 337.972 92.2193C337.717 92.4797 337.37 92.6302 337.006 92.6386C336.642 92.631 336.295 92.4808 336.04 92.2202C335.785 91.9596 335.643 91.6095 335.644 91.245C335.644 90.8808 335.787 90.5312 336.041 90.2709C336.296 90.0106 336.642 89.8603 337.006 89.8521Z" fill="#FDAF31"/>
<path d="M294.121 139.031C292.576 139.031 292.161 137.557 293.796 136.74C296.569 135.34 300.805 134.317 300.323 135.584C300.308 135.625 300.284 135.663 300.254 135.695C300.224 135.727 300.188 135.753 300.147 135.771C300.107 135.789 300.064 135.799 300.02 135.8C299.976 135.802 299.932 135.794 299.891 135.779C297.669 134.934 287.45 140.041 298.293 137.872C298.38 137.854 298.471 137.871 298.545 137.92C298.619 137.97 298.671 138.046 298.689 138.133C298.706 138.22 298.689 138.311 298.64 138.385C298.591 138.459 298.514 138.511 298.427 138.529C297.006 138.799 295.567 138.967 294.121 139.031Z" fill="#414141"/>
<path d="M361.864 83.7388C360.591 83.8058 359.559 84.8108 359.018 86.5983C358.929 87.2318 358.893 87.8717 358.91 88.5112C358.91 88.6003 358.945 88.6854 359.008 88.7484C359.071 88.8107 359.156 88.8457 359.245 88.8457C359.334 88.8457 359.419 88.8107 359.482 88.7484C359.545 88.6853 359.58 88.6 359.58 88.5112C359.58 87.0291 359.631 86.7853 359.839 86.2654C359.946 86.2948 360.117 86.3116 360.237 86.3417C360.974 86.8422 360.864 87.0399 361.154 87.0399C361.202 87.0396 361.248 87.0294 361.291 87.0101C361.334 86.9907 361.372 86.9625 361.403 86.9274C361.435 86.8923 361.458 86.851 361.473 86.8062C361.487 86.7614 361.492 86.7141 361.487 86.6673C361.48 86.6046 361.455 86.5452 361.416 86.4958C361.156 86.1817 360.841 85.9177 360.486 85.7166C360.372 85.6846 360.256 85.6595 360.139 85.6416C360.298 85.3017 360.544 85.0093 360.85 84.793C361.157 84.5767 361.515 84.4441 361.889 84.4081C361.976 84.4022 362.057 84.3628 362.116 84.298C362.175 84.2333 362.206 84.1483 362.203 84.061C362.199 83.9739 362.162 83.8916 362.099 83.8315C362.035 83.7714 361.951 83.7382 361.864 83.7388Z" fill="#414141"/>
<path d="M344.113 95.5243C341.847 95.5243 340.404 93.2604 342.657 92.8798C343.966 92.508 345.873 92.3177 346.108 93.6644C346.362 94.8382 345.349 95.5243 344.113 95.5243ZM342.197 93.7863C342.713 95.1994 345.758 95.2148 345.45 93.793C345.279 92.8135 342.513 93.4882 342.197 93.7863Z" fill="#414141"/>
<path d="M333.755 79.868C332.354 79.868 335.723 74.8818 338.729 76.719C338.805 76.7653 338.859 76.84 338.88 76.9264C338.901 77.0129 338.886 77.104 338.84 77.1799C338.794 77.2558 338.719 77.3101 338.633 77.331C338.546 77.3519 338.455 77.3375 338.379 77.2911C336.78 76.3129 334.555 77.9993 334.076 79.6281C334.055 79.6971 334.013 79.7576 333.955 79.8008C333.898 79.8439 333.828 79.8675 333.755 79.868Z" fill="#414141"/>
<path d="M354.238 77.7526C353.866 77.7526 352.406 75.49 349.27 75.8417C348.653 75.955 347.288 76.3235 347.133 76.9318C346.988 77.504 345.598 77.0611 347.226 75.8598C348.733 74.7282 352.219 74.7443 354.483 77.1898C354.517 77.2254 354.542 77.2678 354.557 77.3142C354.572 77.3606 354.577 77.4097 354.571 77.4581C354.565 77.5065 354.549 77.5531 354.523 77.5944C354.497 77.6358 354.463 77.6711 354.422 77.6976C354.367 77.7333 354.303 77.7524 354.238 77.7526Z" fill="#414141"/>
<path d="M337.641 85.2031C336.945 85.2031 336.023 82.168 337.417 82.7167C338.149 83.0048 338.531 85.2031 337.641 85.2031Z" fill="#414141"/>
<path d="M354.424 81.3078C351.656 78.5394 345.994 79.6181 344.871 82.7872C344.485 82.4599 344.029 82.2269 343.538 82.1066C343.047 81.9864 342.534 81.9822 342.041 82.0944C341.241 82.2733 341.217 82.7698 341.133 82.6023C340.048 79.998 336.77 79.4037 334.403 80.8476C333.392 81.4322 332.645 82.3829 332.316 83.503C331.987 84.623 332.101 85.8266 332.635 86.8648C333.743 88.8989 336.731 90.0808 338.835 89.0055C339.097 89.782 339.411 90.5404 339.773 91.2761C339.797 91.3127 339.828 91.3442 339.865 91.3687C339.902 91.3931 339.943 91.4101 339.986 91.4187C340.029 91.4273 340.074 91.4273 340.117 91.4187C340.16 91.4101 340.201 91.3931 340.238 91.3686C340.579 91.1414 340.268 90.8768 340.027 90.255C339.313 88.4032 339.172 88.4628 340.189 88.2812C340.816 88.2369 341.403 87.9577 341.833 87.4993C342.465 86.4584 342.667 85.2124 342.396 84.0254C342.389 83.9818 342.375 83.9398 342.352 83.9019C342.33 83.864 342.3 83.8309 342.265 83.8046C342.23 83.7782 342.19 83.759 342.147 83.7481C342.104 83.7373 342.06 83.7349 342.016 83.7413C341.324 83.8398 342.404 85.2823 341.286 87.1141C341.122 87.3009 340.904 87.4331 340.662 87.4933C341.356 86.2914 341.614 84.8867 341.391 83.5168C341.565 83.1725 341.854 82.8991 342.207 82.7437C342.872 82.554 344.297 82.7993 344.682 83.5189C344.107 86.7261 345.97 90.2859 350.091 90.2859C355.451 90.2832 358.372 85.2528 354.424 81.3078ZM340.406 86.4836C340.238 86.9131 340.01 87.3165 339.728 87.6816C339.559 87.6946 339.397 87.7482 339.254 87.8378C339.111 87.9274 338.992 88.0504 338.907 88.1961C338.559 88.3194 337.093 89.5951 334.573 87.9542C332.506 86.9144 331.868 83.2267 334.754 81.4197C338.149 79.3488 342.156 82.1105 340.406 86.4836ZM352.393 89.2172C344.597 92.0004 342.148 80.3833 350.182 80.3833C351.475 80.3317 352.742 80.7633 353.735 81.594C354.728 82.4247 355.377 83.5951 355.555 84.8776C355.735 86.8226 354.552 88.4454 352.393 89.2172Z" fill="#414141"/>
<path d="M370.239 97.8654C366.345 95.8487 362.084 94.6408 357.71 94.3144C358.271 93.2806 358.462 91.8877 359.05 91.1212C359.285 91.0542 360.236 91.5869 360.82 91.5232C364.896 90.5048 366.197 80.8454 361.188 80.0367C359.196 79.7145 357.814 81.3379 357.296 83.2527C355.37 83.6822 353.401 81.7064 353.7 79.1523C354.206 74.7846 351.69 78.5721 347.778 75.8104C345.474 74.1474 344.199 71.1056 343.785 68.2957C343.501 66.3627 343.171 66.2682 342.909 66.21C342.022 66.009 341.121 67.684 340.594 68.5194C338.753 71.4487 335.703 74.4737 332.571 75.937C329.547 77.4505 328.969 76.1869 328.785 76.9293C328.549 77.8673 331.379 77.2522 332.697 76.6218C332.717 80.6418 333.645 83.5898 333.956 85.918C334.346 88.8392 333.563 93.7644 338.784 98.0597C328.216 102.715 327.658 118.618 319.127 126.612C317.264 128.32 315.106 129.676 312.757 130.611C308.435 131.938 304.616 132.582 303.601 133.323C301.978 132.871 300.291 132.697 298.611 132.809C294.81 132.849 288.487 133.057 286.223 136.092C285.49 137.049 286.29 137.602 287.563 137.401C290.546 136.932 290.169 136.74 287.799 137.741C285.708 138.626 285.935 139.182 285.946 139.309C286.002 140.221 287.988 140.029 288.923 139.936C287.617 140.463 287.087 140.951 287.197 141.495C287.357 142.057 288.177 142.02 288.671 142.001C289.821 141.968 290.969 141.86 292.105 141.677C290.747 142.414 290.832 143.151 291.317 143.479C292.298 144.149 294.153 143.301 301.581 142.282C302.91 142.1 306.356 141.627 307.923 141.265C312.262 142.684 318.741 141.511 323.25 140.693C323.137 140.861 323.094 141.068 323.132 141.267C323.169 141.467 323.284 141.643 323.451 141.758C324.287 142.16 325.936 140.68 328.996 139.586C327.403 140.37 323.341 142.885 324.798 143.868C325.126 144.089 325.498 144.089 327.464 143.342C329.378 142.613 328.934 142.721 328.406 143.179C327.473 144.111 327.695 145.044 329.04 145.044C330.724 145.044 333.127 143.673 337.194 143.854C339.495 143.956 341.993 144.422 344.314 143.854C344.826 144.701 345.797 144.674 346.893 144.635C347.22 144.625 348.584 144.698 350.187 144.698C394.847 144.694 387.722 107.521 370.239 97.8654ZM335.318 91.9393C334.567 88.929 335.081 88.931 334.602 85.6721C334.108 82.3161 333.239 79.5537 333.405 76.2693C341.605 72.043 342.517 63.5279 343.102 68.2159C343.63 72.443 346.05 76.9547 350.525 77.5959C351.132 77.6897 352.732 77.4063 353.083 77.6073C353.244 77.8968 352.929 79.5731 352.976 79.8967C352.976 81.8471 354.82 84.2457 357.13 83.9583C356.992 84.5646 356.772 85.2266 357.245 85.2855C357.684 85.3405 357.595 84.9418 357.873 83.7325C358.258 82.0575 359.355 80.4153 361.089 80.6967C365.425 81.4009 363.937 90.0412 360.713 90.8633C360.268 90.9169 359.024 90.0472 358.577 90.6757C357.448 92.0659 357.576 95.5928 352.936 98.5468C346.208 102.823 337.8 99.0587 335.318 91.938V91.9393ZM353.434 104.181C352.668 104.402 351.866 104.47 351.074 104.382C348.584 104.12 346.422 103.582 345.877 100.995C348.141 101.143 350.402 100.667 352.414 99.6187C354.426 98.5703 356.111 96.9898 357.287 95.0494C357.932 98.0088 358.186 102.901 353.434 104.181ZM294.801 142.694C291.289 143.423 290.43 143.053 293.79 141.639C294.69 141.261 295.063 141.103 294.903 140.707C294.643 140.059 293.474 141.238 288.813 141.322C288.502 141.347 288.19 141.337 287.882 141.292C288.233 140.81 290.02 140.249 291.086 139.911C291.509 139.777 292.467 139.902 292.698 139.433C292.827 139.17 292.713 138.768 292.171 138.745C292.104 138.754 287.151 139.697 286.618 139.253C286.558 138.583 291.576 137.142 292.748 136.877C293.115 136.805 295.11 136.702 294.639 135.942C294.489 135.7 294.214 135.751 293.896 135.808C293.461 135.889 293.628 135.799 292.21 135.942C289.906 136.175 286.13 137.312 286.759 136.489C289.36 133 300.561 133.111 303.235 133.901C303.02 137.247 304.21 139.564 306.771 140.802C302.622 141.572 299.144 141.798 294.801 142.694ZM339.045 143.307C332.006 142.724 331.839 144.329 329.196 144.367C328.518 144.378 328.198 144.336 328.868 143.664C330.854 141.943 332.988 141.98 333.009 141.305C333.047 139.888 326.236 143.46 325.219 143.315C325.309 142.383 328.58 140.543 329.469 140.099C331.308 139.179 331.613 139.084 331.666 138.781C331.968 136.914 324.443 141.117 323.806 141.151C323.818 140.802 324.443 140.353 324.639 140.155C326.266 138.739 328.156 137.657 330.2 136.968C330.769 136.778 331.487 136.575 331.268 136.141C330.703 135.018 324.348 138.322 323.845 138.461C324.165 137.148 327.974 134.661 331.68 134.198C333.891 133.911 336.13 133.913 338.34 134.202C339.14 134.265 340.605 134.403 341.133 134.85C341.839 137.725 342.8 140.531 344.004 143.235C342.363 143.503 340.692 143.527 339.045 143.307ZM332.805 133.407C335.366 131.293 337.494 128.704 339.074 125.782C340.082 128.569 341.483 131.197 343.234 133.587C341.569 133.802 341.265 133.942 341.157 134.141C339.823 133.293 334.485 133.266 332.805 133.407ZM381.179 130.325C376.001 141.947 359.883 144.247 347.224 143.955C346.736 143.943 345.399 144.074 345.035 143.691C344.445 143.07 341.953 136.212 341.78 134.64C341.78 134.104 350.151 133.785 352.539 133.424C361.976 131.918 369.253 129.901 370.004 119.029C370.009 118.941 369.98 118.853 369.921 118.786C369.863 118.719 369.78 118.677 369.691 118.671C369.647 118.668 369.603 118.673 369.561 118.688C369.52 118.702 369.481 118.724 369.448 118.753C369.414 118.782 369.387 118.817 369.368 118.857C369.348 118.896 369.336 118.939 369.334 118.983C368.617 129.384 361.877 131.255 352.436 132.762C350.819 133.006 346.761 133.207 344.022 133.499C340.13 128.827 336.822 117.473 336.573 117.224C336.512 117.163 336.434 117.124 336.349 117.112C336.265 117.1 336.178 117.116 336.104 117.157C335.832 117.342 335.79 117.277 338.741 124.942C338.328 125.813 337.843 126.648 337.291 127.439C335.728 129.763 333.803 131.822 331.588 133.536C326.131 134.295 322.053 138.226 323.384 139.066C323.893 139.39 324.73 138.774 326.367 138.031C325.503 138.572 324.692 139.191 323.942 139.881C314.666 141.597 303.329 143.379 303.899 133.948C304.215 133.566 306.116 133.081 308.128 132.567C312.55 131.436 315.677 130.779 319.585 127.094C328.538 118.706 328.661 102.773 339.39 98.5261C341.088 99.7779 343.066 100.596 345.152 100.908C345.895 103.923 347.739 104.706 350.994 105.046C355.38 105.504 359.497 102.259 357.962 95.0052C379.301 96.8383 386.927 117.42 381.178 130.324L381.179 130.325Z" fill="#414141"/>
<path d="M348.141 82.313C347.534 82.5288 348.225 85.0406 348.869 85.0406C349.968 85.0406 349.58 81.8018 348.141 82.313Z" fill="#414141"/>
<path d="M331.227 140.88H318.07C318.07 140.88 319.256 143.77 316.78 145.369H331.227C331.41 145.37 331.592 145.335 331.761 145.265C331.93 145.195 332.084 145.093 332.214 144.963C332.343 144.834 332.446 144.68 332.515 144.51C332.585 144.341 332.62 144.16 332.62 143.977V142.222C332.611 141.86 332.459 141.516 332.199 141.265C331.938 141.014 331.589 140.876 331.227 140.88Z" fill="#005BC3"/>
<path d="M316.728 140.676C313.177 132.341 306.174 116.362 303.57 110.439C303.279 109.768 302.795 109.198 302.179 108.803C301.564 108.408 300.844 108.205 300.113 108.221C259.529 108.792 260.62 109.293 259.557 109.768C258.898 110.068 258.345 110.559 257.969 111.177C257.593 111.796 257.412 112.513 257.449 113.236C257.473 113.715 257.594 114.186 257.802 114.618C261.535 122.48 268.482 137.557 270.96 143.049C271.243 143.676 271.699 144.208 272.275 144.583C272.851 144.958 273.523 145.16 274.21 145.165C281.28 145.217 302.953 145.655 313.322 145.733C313.932 145.753 314.536 145.618 315.079 145.341C315.622 145.063 316.085 144.653 316.426 144.147C316.766 143.642 316.973 143.058 317.026 142.451C317.078 141.843 316.976 141.233 316.728 140.676Z" fill="#005BC3"/>
<path d="M283.963 126.381C286.816 126.448 286.459 130.627 283.859 130.509C281.085 130.383 281.294 126.321 283.963 126.381Z" fill="white"/>
</g>
<rect x="0.744521" y="0.744521" width="373.511" height="143.511" rx="10.2555" stroke="url(#paint1_linear_836_3329)" stroke-opacity="0.08" stroke-width="0.510959"/>
<defs>
<linearGradient id="paint0_linear_836_3329" x1="42.6629" y1="15.8085" x2="213.928" y2="76.5442" gradientUnits="userSpaceOnUse">
<stop stop-color="#003F88"/>
<stop offset="0.64989" stop-color="#03BCFF"/>
<stop offset="1" stop-color="#0076FF"/>
</linearGradient>
<linearGradient id="paint1_linear_836_3329" x1="47.195" y1="20.571" x2="387.35" y2="83.6903" gradientUnits="userSpaceOnUse">
<stop stop-color="#003F88"/>
<stop offset="0.64989" stop-color="#02D4FF"/>
<stop offset="1" stop-color="#0076FF"/>
</linearGradient>
<clipPath id="clip0_836_3329">
<rect x="1" y="1" width="373" height="143" rx="10" fill="white"/>
</clipPath>
</defs>
</svg>
