<svg width="20" height="20" viewBox="0 0 20 20" fill="none" xmlns="http://www.w3.org/2000/svg">
<path d="M9.99984 13.334H10.0073" stroke="#E08700" stroke-linecap="round" stroke-linejoin="round"/>
<path d="M10 10.834L10 6.66732" stroke="#E08700" stroke-linecap="round" stroke-linejoin="round"/>
<path d="M13.5903 3.65361C13.0978 3.65361 12.8515 3.65361 12.6272 3.57037C12.596 3.5588 12.5653 3.54608 12.5351 3.53222C12.3176 3.43245 12.1435 3.25831 11.7952 2.91005C10.9936 2.10847 10.5928 1.70768 10.0997 1.67072C10.0334 1.66575 9.96679 1.66575 9.90048 1.67072C9.40733 1.70768 9.00654 2.10847 8.20496 2.91005C7.85669 3.25831 7.68256 3.43245 7.46506 3.53222C7.43485 3.54608 7.40413 3.5588 7.37297 3.57037C7.14862 3.65361 6.90236 3.65361 6.40984 3.65361H6.31899C5.0624 3.65361 4.43411 3.65361 4.04374 4.04398C3.65337 4.43435 3.65337 5.06264 3.65337 6.31923V6.41008C3.65337 6.9026 3.65337 7.14887 3.57012 7.37322C3.55856 7.40438 3.54584 7.43509 3.53198 7.4653C3.4322 7.6828 3.25807 7.85694 2.9098 8.2052C2.10822 9.00678 1.70743 9.40757 1.67047 9.90072C1.66551 9.96703 1.66551 10.0336 1.67047 10.0999C1.70743 10.5931 2.10822 10.9939 2.9098 11.7954C3.25807 12.1437 3.4322 12.3178 3.53198 12.5353C3.54584 12.5656 3.55856 12.5963 3.57012 12.6274C3.65337 12.8518 3.65337 13.098 3.65337 13.5906V13.6814C3.65337 14.938 3.65337 15.5663 4.04374 15.9567C4.43411 16.347 5.0624 16.347 6.31899 16.347H6.40984C6.90236 16.347 7.14862 16.347 7.37297 16.4303C7.40413 16.4418 7.43485 16.4546 7.46506 16.4684C7.68256 16.5682 7.85669 16.7423 8.20496 17.0906C9.00654 17.8922 9.40733 18.293 9.90048 18.3299C9.96679 18.3349 10.0334 18.3349 10.0997 18.3299C10.5928 18.293 10.9936 17.8922 11.7952 17.0906C12.1435 16.7423 12.3176 16.5682 12.5351 16.4684C12.5653 16.4546 12.596 16.4418 12.6272 16.4303C12.8515 16.347 13.0978 16.347 13.5903 16.347H13.6812C14.9378 16.347 15.5661 16.347 15.9564 15.9567C16.3468 15.5663 16.3468 14.938 16.3468 13.6814V13.5906C16.3468 13.098 16.3468 12.8518 16.43 12.6274C16.4416 12.5963 16.4543 12.5656 16.4682 12.5353C16.568 12.3178 16.7421 12.1437 17.0904 11.7954C17.8919 10.9939 18.2927 10.5931 18.3297 10.0999C18.3347 10.0336 18.3347 9.96703 18.3297 9.90072C18.2927 9.40757 17.8919 9.00678 17.0904 8.2052C16.7421 7.85694 16.568 7.6828 16.4682 7.4653C16.4543 7.43509 16.4416 7.40438 16.43 7.37322C16.3468 7.14887 16.3468 6.9026 16.3468 6.41008V6.31923C16.3468 5.06264 16.3468 4.43435 15.9564 4.04398C15.5661 3.65361 14.9378 3.65361 13.6812 3.65361H13.5903Z" stroke="#E08700"/>
</svg>
