<svg width="20" height="21" viewBox="0 0 20 21" fill="none" xmlns="http://www.w3.org/2000/svg">
<path d="M1.66675 13.6251C1.66675 13.6251 3.16286 13 5.83341 13C10.0001 13 13.3334 15.5 18.3334 15.5" stroke="#CF161C" stroke-linecap="round" stroke-linejoin="round"/>
<path d="M1.66675 18H18.3334" stroke="#CF161C" stroke-linecap="round" stroke-linejoin="round"/>
<path d="M10.4951 3.18968C8.12373 3.86973 6.58234 6.2102 6.67033 8.7292C6.6886 9.25239 6.69774 9.51398 6.9213 9.62968C7.14486 9.74537 7.3769 9.5814 7.84098 9.25346L8.87562 8.52233C9.03101 8.41252 9.21548 8.35962 9.40135 8.37156L11.8315 8.52768L13.8632 7.09202C14.0186 6.98221 14.203 6.92931 14.3889 6.94125L15.6567 7.02269C16.2006 7.05764 16.4726 7.07511 16.6077 6.86569C16.7427 6.65628 16.6329 6.42986 16.4134 5.97702C15.3214 3.72491 12.8795 2.50589 10.4951 3.18968Z" stroke="#CF161C" stroke-linecap="round" stroke-linejoin="round"/>
<path d="M12.0833 8.41699L13.75 14.667M10.2381 3.00033L10 2.16699" stroke="#CF161C" stroke-linecap="round" stroke-linejoin="round"/>
</svg>
