<svg width="20" height="20" viewBox="0 0 20 20" fill="none" xmlns="http://www.w3.org/2000/svg">
<path d="M13.3334 18.3327C12.4451 17.2954 11.2781 16.666 10.0001 16.666C8.72203 16.666 7.55511 17.2954 6.66675 18.3327" stroke="#069855" stroke-linecap="round"/>
<path d="M9.99992 10.833C8.94315 10.833 7.82583 11.0158 6.94994 11.2604C6.29041 11.4445 5.75988 12.2843 5.84158 12.966C5.87185 13.2186 6.08934 13.333 6.31802 13.333H13.6818C13.9105 13.333 14.128 13.2186 14.1583 12.966C14.24 12.2843 13.7094 11.4445 13.0499 11.2604C12.174 11.0158 11.0567 10.833 9.99992 10.833Z" stroke="#069855" stroke-linecap="round"/>
<path d="M17.5001 8.33301C16.5796 8.33301 15.8334 9.0792 15.8334 9.99967V10.833C15.8334 11.7535 15.0872 12.4997 14.1667 12.4997" stroke="#069855" stroke-linecap="round" stroke-linejoin="round"/>
<path d="M2.49992 8.33301C3.42039 8.33301 4.16659 9.0792 4.16659 9.99967V10.833C4.16659 11.7535 4.91278 12.4997 5.83325 12.4997" stroke="#069855" stroke-linecap="round" stroke-linejoin="round"/>
<path d="M10 13.333V18.333" stroke="#069855" stroke-linecap="round" stroke-linejoin="round"/>
<path d="M10.683 8.33268H9.3168C8.14835 8.33268 7.56412 8.33268 7.14148 7.97969C6.71885 7.6267 6.57715 7.0204 6.29376 5.8078C5.84819 3.90125 5.6254 2.94797 6.09325 2.307C6.56109 1.66602 7.47966 1.66602 9.3168 1.66602H10.683C12.5202 1.66602 13.4387 1.66602 13.9066 2.307C14.3744 2.94797 14.1516 3.90125 13.7061 5.8078C13.4227 7.0204 13.281 7.6267 12.8584 7.97969C12.4357 8.33268 11.8515 8.33268 10.683 8.33268Z" stroke="#069855" stroke-linecap="round" stroke-linejoin="round"/>
<path d="M10 8.33301V10.833" stroke="#069855" stroke-linecap="round" stroke-linejoin="round"/>
</svg>
