<svg width="21" height="21" viewBox="0 0 21 21" fill="none" xmlns="http://www.w3.org/2000/svg">
<path d="M7.41089 1.69043V4.22889" stroke="#E08700" stroke-width="0.980769" stroke-miterlimit="10" stroke-linecap="round" stroke-linejoin="round"/>
<path d="M14.1797 1.69043V4.22889" stroke="#E08700" stroke-width="0.980769" stroke-miterlimit="10" stroke-linecap="round" stroke-linejoin="round"/>
<path d="M3.60449 7.68848H17.9891" stroke="#E08700" stroke-width="0.980769" stroke-miterlimit="10" stroke-linecap="round" stroke-linejoin="round"/>
<path d="M19.2607 16.075C19.2607 16.7097 19.083 17.3104 18.7699 17.8181C18.1861 18.7997 17.1115 19.4597 15.8761 19.4597C15.0215 19.4597 14.243 19.1466 13.6507 18.6135C13.3884 18.3935 13.1599 18.1227 12.9822 17.8181C12.6691 17.3104 12.4915 16.7097 12.4915 16.075C12.4915 14.205 14.0061 12.6904 15.8761 12.6904C16.8915 12.6904 17.7968 13.1389 18.4145 13.8412C18.9391 14.442 19.2607 15.2204 19.2607 16.075Z" stroke="#E08700" stroke-width="0.980769" stroke-miterlimit="10" stroke-linecap="round" stroke-linejoin="round"/>
<path d="M17.0001 16.0751C17.0001 16.2858 16.941 16.4853 16.8371 16.6539C16.6432 16.9799 16.2864 17.199 15.8761 17.199C15.5923 17.199 15.3338 17.0951 15.1371 16.918C15.05 16.845 14.9742 16.7551 14.9152 16.6539C14.8112 16.4853 14.7522 16.2858 14.7522 16.0751C14.7522 15.4541 15.2552 14.9512 15.8761 14.9512C16.2133 14.9512 16.514 15.1001 16.7191 15.3333C16.8933 15.5328 17.0001 15.7913 17.0001 16.0751Z" stroke="#E08700" stroke-miterlimit="10" stroke-linecap="round" stroke-linejoin="round"/>
<path d="M18.4105 7.18975V13.8405C17.7928 13.1382 16.8874 12.6898 15.872 12.6898C14.002 12.6898 12.4874 14.2044 12.4874 16.0744C12.4874 16.709 12.6651 17.3098 12.9782 17.8174C13.1558 18.1221 13.3843 18.3928 13.6466 18.6128H7.41046C4.44892 18.6128 3.17969 16.9205 3.17969 14.3821V7.18975C3.17969 4.65129 4.44892 2.95898 7.41046 2.95898H14.1797C17.1412 2.95898 18.4105 4.65129 18.4105 7.18975Z" stroke="#E08700" stroke-width="0.980769" stroke-miterlimit="10" stroke-linecap="round" stroke-linejoin="round"/>
<path d="M11.636 11.5891H11.6436" stroke="#E08700" stroke-width="1.17692" stroke-linecap="round" stroke-linejoin="round"/>
<path d="M7.66257 11.5891H7.67017" stroke="#E08700" stroke-width="1.17692" stroke-linecap="round" stroke-linejoin="round"/>
<path d="M7.66257 14.9739H7.67017" stroke="#E08700" stroke-width="1.17692" stroke-linecap="round" stroke-linejoin="round"/>
</svg>
