<svg width="21" height="21" viewBox="0 0 21 21" fill="none" xmlns="http://www.w3.org/2000/svg">
<path d="M7.41077 1.69043V4.22889" stroke="#5461FF" stroke-width="0.980769" stroke-miterlimit="10" stroke-linecap="round" stroke-linejoin="round"/>
<path d="M14.1797 1.69043V4.22889" stroke="#5461FF" stroke-width="0.980769" stroke-miterlimit="10" stroke-linecap="round" stroke-linejoin="round"/>
<path d="M3.60425 7.68848H17.9889" stroke="#5461FF" stroke-width="0.980769" stroke-miterlimit="10" stroke-linecap="round" stroke-linejoin="round"/>
<path d="M19.2604 16.075C19.2604 16.7097 19.0827 17.3104 18.7697 17.8181C18.1858 18.7997 17.1112 19.4597 15.8758 19.4597C15.0212 19.4597 14.2428 19.1466 13.6504 18.6135C13.3881 18.3935 13.1597 18.1227 12.982 17.8181C12.6689 17.3104 12.4912 16.7097 12.4912 16.075C12.4912 14.205 14.0058 12.6904 15.8758 12.6904C16.8912 12.6904 17.7966 13.1389 18.4143 13.8412C18.9389 14.442 19.2604 15.2204 19.2604 16.075Z" stroke="#5461FF" stroke-width="0.980769" stroke-miterlimit="10" stroke-linecap="round" stroke-linejoin="round"/>
<path d="M14.5587 16.0753L15.3964 16.913L17.1987 15.2461" stroke="#5461FF" stroke-width="0.980769" stroke-linecap="round" stroke-linejoin="round"/>
<path d="M18.4105 7.18975V13.8405C17.7928 13.1382 16.8874 12.6898 15.872 12.6898C14.002 12.6898 12.4874 14.2044 12.4874 16.0744C12.4874 16.709 12.6651 17.3098 12.9782 17.8174C13.1558 18.1221 13.3843 18.3928 13.6466 18.6128H7.41046C4.44892 18.6128 3.17969 16.9205 3.17969 14.3821V7.18975C3.17969 4.65129 4.44892 2.95898 7.41046 2.95898H14.1797C17.1412 2.95898 18.4105 4.65129 18.4105 7.18975Z" stroke="#5461FF" stroke-width="0.980769" stroke-miterlimit="10" stroke-linecap="round" stroke-linejoin="round"/>
<path d="M11.6357 11.5891H11.6433" stroke="#5461FF" stroke-width="1.17692" stroke-linecap="round" stroke-linejoin="round"/>
<path d="M7.66245 11.5891H7.67005" stroke="#5461FF" stroke-width="1.17692" stroke-linecap="round" stroke-linejoin="round"/>
<path d="M7.66245 14.9739H7.67005" stroke="#5461FF" stroke-width="1.17692" stroke-linecap="round" stroke-linejoin="round"/>
</svg>
