<svg width="20" height="20" viewBox="0 0 20 20" fill="none" xmlns="http://www.w3.org/2000/svg">
<rect width="20" height="20" rx="10" fill="#005BC3"/>
<g clip-path="url(#clip0_628_53610)">
<path d="M9.02686 10.7617C6.63138 10.7617 4.68945 12.7036 4.68945 15.0991H13.3643C13.3643 12.7036 11.4223 10.7617 9.02686 10.7617Z" fill="#479DFF"/>
<path fill-rule="evenodd" clip-rule="evenodd" d="M9.97383 7.37776C9.99869 7.37051 10.0237 7.36386 10.0487 7.35779C9.87606 7.60633 9.73152 7.8802 9.61231 8.16888C9.35385 8.79481 9.20364 9.51443 9.14327 10.261C9.10393 10.26 9.06455 10.2596 9.02514 10.2596C8.3156 10.2596 7.61486 10.4167 6.97328 10.7197C6.33169 11.0227 5.76519 11.4641 5.31445 12.0121C5.14217 12.2216 5.1723 12.531 5.38177 12.7033C5.59122 12.8755 5.90069 12.8455 6.07297 12.636C6.43157 12.2 6.88228 11.8489 7.39271 11.6078C7.90315 11.3667 8.46064 11.2417 9.02514 11.2417C9.18369 11.2417 9.34168 11.2516 9.49823 11.2711C9.52535 11.2772 9.55333 11.2811 9.58197 11.2825C9.95358 11.3372 10.3161 11.4465 10.6576 11.6078C10.986 11.7629 11.2896 11.9636 11.56 12.203C11.763 12.3829 12.0733 12.3641 12.2532 12.1611C12.433 11.9581 12.4142 11.6478 12.2112 11.4679C11.8715 11.1669 11.4898 10.9147 11.077 10.7197C10.7693 10.5744 10.448 10.4626 10.1187 10.3857C10.1703 9.69981 10.3039 9.06738 10.5201 8.54373C10.7078 8.08925 10.9491 7.73558 11.2376 7.49075C11.5581 7.57621 11.8348 7.77967 12.012 8.06084C12.194 8.34975 12.2566 8.69809 12.1865 9.03228C12.1087 9.40391 12.3468 9.7683 12.7184 9.84617C13.09 9.92405 13.4544 9.68592 13.5323 9.3143C13.6755 8.63093 13.5475 7.91867 13.1754 7.32792C13.1369 7.26689 13.0962 7.20764 13.0533 7.15029C13.3171 7.22458 13.5572 7.37045 13.7457 7.574C14.0037 7.85259 14.4387 7.86928 14.7172 7.61128C14.9959 7.35328 15.0125 6.9183 14.7546 6.63972C14.2791 6.12633 13.6326 5.80421 12.9364 5.73382C12.522 5.69193 12.1069 5.74097 11.7188 5.87359C11.5051 5.53161 11.2159 5.23848 10.8692 5.01893C10.282 4.64698 9.57437 4.51451 8.89231 4.64881C8.51977 4.72217 8.27723 5.08364 8.35059 5.45618C8.42394 5.82872 8.78542 6.07126 9.15796 5.9979C9.35634 5.95884 9.5591 5.96551 9.7515 6.01516C9.69706 6.02781 9.64286 6.042 9.58896 6.05772C8.90916 6.25591 8.3197 6.68487 7.92202 7.27075C7.70878 7.58491 7.79059 8.01246 8.10475 8.2257C8.41891 8.43894 8.84645 8.35713 9.05969 8.04297C9.27778 7.72168 9.60103 7.48644 9.97383 7.37776ZM7.7405 13.4369C7.7405 13.1657 7.52064 12.9459 7.24942 12.9459C6.97821 12.9459 6.75835 13.1657 6.75835 13.4369C6.75835 13.9251 6.3626 14.3209 5.87442 14.3209C5.73796 14.3209 5.61001 14.2903 5.49585 14.2361C5.34371 14.1638 5.16515 14.1745 5.02277 14.2645C4.88039 14.3545 4.79407 14.5112 4.79407 14.6796V15.0084C4.79407 15.2796 5.01393 15.4994 5.28514 15.4994H14.7137C14.9849 15.4994 15.2048 15.2796 15.2048 15.0084V14.6796C15.2048 14.5112 15.1184 14.3545 14.9761 14.2645C14.8337 14.1745 14.6551 14.1638 14.503 14.2361C14.3888 14.2903 14.2609 14.3209 14.1244 14.3209C13.6363 14.3209 13.2405 13.9251 13.2405 13.4369C13.2405 13.1657 13.0207 12.9459 12.7494 12.9459C12.4782 12.9459 12.2584 13.1657 12.2584 13.4369C12.2584 13.9251 11.8626 14.3209 11.3744 14.3209C10.8862 14.3209 10.4905 13.9251 10.4905 13.4369C10.4905 13.1657 10.2706 12.9459 9.99942 12.9459C9.72821 12.9459 9.50835 13.1657 9.50835 13.4369C9.50835 13.9251 9.1126 14.3209 8.62442 14.3209C8.13624 14.3209 7.7405 13.9251 7.7405 13.4369Z" fill="white"/>
</g>
<defs>
<clipPath id="clip0_628_53610">
<rect width="11" height="11" fill="white" transform="translate(4.5 4.5)"/>
</clipPath>
</defs>
</svg>
