<svg width="578" height="169" viewBox="0 0 578 169" fill="none" xmlns="http://www.w3.org/2000/svg">
<g clip-path="url(#clip0_3049_60125)">
<path d="M405.748 147.539H165.582V147.683H405.748V147.539Z" fill="#EBEBEB"/>
<path d="M381.684 155.287H365.785V155.431H381.684V155.287Z" fill="#EBEBEB"/>
<path d="M324.671 156.633H320.492V156.777H324.671V156.633Z" fill="#EBEBEB"/>
<path d="M365.304 150.859H356.082V151.004H365.304V150.859Z" fill="#EBEBEB"/>
<path d="M211.547 151.629H190.797V151.773H211.547V151.629Z" fill="#EBEBEB"/>
<path d="M218.85 151.629H215.824V151.773H218.85V151.629Z" fill="#EBEBEB"/>
<path d="M273.753 153.699H228.746V153.844H273.753V153.699Z" fill="#EBEBEB"/>
<path d="M279.42 126.078H186.668C185.179 126.078 183.93 124.827 183.93 123.335V-7.25918C183.93 -8.75086 185.179 -10.002 186.668 -10.002H279.42C280.909 -10.002 282.158 -8.75086 282.158 -7.25918V123.335C282.158 124.875 280.957 126.078 279.42 126.078ZM186.668 -9.8576C185.227 -9.8576 184.026 -8.70275 184.026 -7.21106V123.383C184.026 124.827 185.179 126.03 186.668 126.03H279.42C280.861 126.03 282.062 124.875 282.062 123.383V-7.25918C282.062 -8.70275 280.909 -9.90572 279.42 -9.90572H186.668V-9.8576Z" fill="#EBEBEB"/>
<path d="M383.318 126.078H290.566C289.077 126.078 287.828 124.827 287.828 123.335V-7.25918C287.828 -8.75086 289.077 -10.002 290.566 -10.002H383.318C384.807 -10.002 386.056 -8.75086 386.056 -7.25918V123.335C386.056 124.875 384.855 126.078 383.318 126.078ZM290.566 -9.8576C289.125 -9.8576 287.924 -8.70275 287.924 -7.21106V123.383C287.924 124.827 289.077 126.03 290.566 126.03H383.318C384.759 126.03 385.96 124.875 385.96 123.383V-7.25918C385.96 -8.70275 384.807 -9.90572 383.318 -9.90572H290.566V-9.8576Z" fill="#EBEBEB"/>
<path d="M501.345 134.638C498.345 131.29 495.596 127.941 492.471 124.717C492.221 124.469 492.096 124.221 491.971 124.221C490.971 123.6 489.846 122.98 488.847 122.484C488.597 122.36 487.972 122.112 487.347 121.864C486.097 121.368 484.847 120.872 483.597 120.376C475.848 117.276 468.849 113.679 462.975 107.602C459.726 104.254 457.226 100.285 453.852 97.0607C453.727 97.1847 453.102 96.8127 452.852 96.5646C451.852 96.4406 450.477 96.3166 450.352 96.1925C448.977 96.1925 447.602 96.1926 446.353 96.3166C444.478 96.4406 442.478 96.5646 440.603 96.6886C433.104 107.478 423.731 122.236 419.606 124.221C413.232 127.197 353.866 142.823 349.491 141.831C345.117 140.963 322.245 142.699 316.496 142.575C310.747 142.327 300.373 139.847 285.25 132.902C270.127 126.081 261.878 125.957 243.756 120.252C225.633 114.547 213.385 112.315 202.762 121.12C192.138 129.925 162.892 111.323 153.893 108.594C144.77 105.99 127.397 90.6118 115.524 97.8048C103.651 104.998 93.7769 108.346 78.904 121.12C64.0311 133.894 34.6602 158.45 34.6602 158.45H535.84L530.091 148.404C518.967 148.28 508.844 143.071 501.345 134.638Z" fill="#F5F5F5"/>
<path d="M443.434 54.8644C454.443 54.8644 463.368 45.9238 463.368 34.8951C463.368 23.8663 454.443 14.9258 443.434 14.9258C432.425 14.9258 423.5 23.8663 423.5 34.8951C423.5 45.9238 432.425 54.8644 443.434 54.8644Z" fill="#FFF2DF"/>
<path d="M362.28 30.9488C362.28 29.1684 360.839 27.6767 359.014 27.6767C358.678 27.6767 358.39 27.7248 358.102 27.821C358.15 27.4842 358.198 27.1474 358.198 26.8106C358.198 23.0092 355.123 19.9296 351.329 19.9296C350.897 19.9296 350.464 19.9777 350.08 20.0258C349.023 18.2935 347.102 17.1387 344.94 17.1387C341.626 17.1387 338.984 19.7852 338.936 23.1054C338.888 23.1054 338.888 23.1054 338.84 23.1054C335.766 23.1054 333.316 25.6076 333.316 28.6391C333.316 31.7187 335.814 34.1727 338.84 34.1727H359.158C360.887 34.1727 362.28 32.7292 362.28 30.9488Z" fill="#EBEBEB"/>
<path d="M439.964 52.8101C439.964 51.0297 438.523 49.538 436.698 49.538C436.362 49.538 436.073 49.5861 435.785 49.6824C435.833 49.3455 435.881 49.0087 435.881 48.6719C435.881 44.8705 432.807 41.7909 429.012 41.7909C428.58 41.7909 428.148 41.839 427.764 41.8871C426.707 40.1549 424.786 39 422.624 39C419.31 39 416.668 41.6465 416.62 44.9667C416.572 44.9667 416.572 44.9667 416.524 44.9667C413.45 44.9667 411 47.4689 411 50.5004C411 53.58 413.498 56.0341 416.524 56.0341H436.794C438.571 55.9859 439.964 54.5905 439.964 52.8101Z" fill="#EBEBEB"/>
<path d="M100.316 12.148C100.316 10.3676 98.8746 8.87591 97.0493 8.87591C96.7131 8.87591 96.4249 8.92403 96.1367 9.02027C96.1847 8.68344 96.2328 8.34661 96.2328 8.00977C96.2328 4.20839 93.1586 1.12878 89.364 1.12878C88.9317 1.12878 88.4994 1.1769 88.1152 1.22502C87.0584 -0.507258 85.1371 -1.66211 82.9756 -1.66211C79.6613 -1.66211 77.0195 0.984426 76.9714 4.30462C76.9234 4.30462 76.9234 4.30462 76.8754 4.30462C73.8013 4.30462 71.3516 6.8068 71.3516 9.83829C71.3516 12.9179 73.8493 15.372 76.8754 15.372H97.1454C98.9226 15.3238 100.316 13.9284 100.316 12.148Z" fill="#EBEBEB"/>
<path d="M137.007 60.5152C137.007 58.7348 135.566 57.2431 133.741 57.2431C133.405 57.2431 133.116 57.2912 132.828 57.3875C132.876 57.0506 132.924 56.7138 132.924 56.377C132.924 52.5756 129.85 49.496 126.055 49.496C125.623 49.496 125.191 49.5441 124.807 49.5922C123.75 47.8599 121.829 46.7051 119.667 46.7051C116.353 46.7051 113.711 49.3516 113.663 52.6718C113.615 52.6718 113.615 52.6718 113.567 52.6718C110.493 52.6718 108.043 55.174 108.043 58.2055C108.043 61.2851 110.541 63.7391 113.567 63.7391H133.837C135.614 63.691 137.007 62.2956 137.007 60.5152Z" fill="#EBEBEB"/>
<path d="M221.3 55.0562C221.3 53.2758 219.859 51.7841 218.034 51.7841C217.697 51.7841 217.409 51.8322 217.121 51.9285C217.169 51.5916 217.217 51.2548 217.217 50.918C217.217 47.1166 214.143 44.037 210.348 44.037C209.916 44.037 209.484 44.0851 209.1 44.1332C208.043 42.4009 206.121 41.2461 203.96 41.2461C200.646 41.2461 198.004 43.8926 197.956 47.2128C197.908 47.2128 197.908 47.2128 197.86 47.2128C194.786 47.2128 192.336 49.715 192.336 52.7465C192.336 55.778 194.69 58.3283 197.764 58.3283H218.13C219.859 58.232 221.3 56.8366 221.3 55.0562Z" fill="#EBEBEB"/>
<path d="M360.406 70.5973C360.406 69.4905 359.541 68.6244 358.436 68.6244C358.244 68.6244 358.052 68.6725 357.86 68.7206C357.908 68.5282 357.908 68.3357 357.908 68.0951C357.908 65.7854 356.035 63.9088 353.729 63.9088C353.489 63.9088 353.201 63.9569 352.96 63.9569C352.336 62.8983 351.183 62.2246 349.838 62.2246C347.869 62.2246 346.236 63.8125 346.188 65.8335H346.14C344.266 65.8335 342.777 67.3252 342.777 69.2018C342.777 71.0785 344.266 72.5702 346.14 72.5702H358.436C359.589 72.522 360.406 71.6559 360.406 70.5973Z" fill="#EBEBEB"/>
<path d="M541.628 19.3727C541.628 18.2659 540.764 17.3998 539.659 17.3998C539.467 17.3998 539.275 17.4479 539.082 17.496C539.13 17.3036 539.13 17.1111 539.13 16.8705C539.13 14.5608 537.257 12.6842 534.952 12.6842C534.711 12.6842 534.423 12.7323 534.183 12.7323C533.559 11.6737 532.406 11 531.061 11C529.092 11 527.458 12.5879 527.41 14.6089H527.362C525.489 14.6089 524 16.1006 524 17.9772C524 19.8539 525.489 21.3455 527.362 21.3455H539.659C540.812 21.2974 541.628 20.4313 541.628 19.3727Z" fill="#EBEBEB"/>
<path d="M67.6282 41.3727C67.6282 40.2659 66.7636 39.3998 65.6588 39.3998C65.4667 39.3998 65.2746 39.4479 65.0824 39.496C65.1305 39.3036 65.1305 39.1111 65.1305 38.8705C65.1305 36.5608 63.2572 34.6842 60.9516 34.6842C60.7114 34.6842 60.4232 34.7323 60.183 34.7323C59.5586 33.6737 58.4058 33 57.0609 33C55.0915 33 53.4584 34.5879 53.4104 36.6089H53.3623C51.489 36.6089 50 38.1006 50 39.9772C50 41.8539 51.489 43.3455 53.3623 43.3455H65.6588C66.8116 43.2974 67.6282 42.4313 67.6282 41.3727Z" fill="#EBEBEB"/>
<path d="M183.628 19.3727C183.628 18.2659 182.764 17.3998 181.659 17.3998C181.467 17.3998 181.275 17.4479 181.082 17.496C181.13 17.3036 181.13 17.1111 181.13 16.8705C181.13 14.5608 179.257 12.6842 176.952 12.6842C176.711 12.6842 176.423 12.7323 176.183 12.7323C175.559 11.6737 174.406 11 173.061 11C171.092 11 169.458 12.5879 169.41 14.6089H169.362C167.489 14.6089 166 16.1006 166 17.9772C166 19.8539 167.489 21.3455 169.362 21.3455H181.659C182.812 21.2974 183.628 20.4313 183.628 19.3727Z" fill="#EBEBEB"/>
<path d="M192.27 70.4888L208.453 146.774L211.449 145.348L194.367 70.0547L192.27 70.4888Z" fill="#EBEBEB"/>
<path d="M474.854 139.696C474.854 139.696 466.832 84.0709 484.893 26.5689L482.059 24.3555C482.059 24.3555 460.828 67.8549 463.95 141.236L474.854 139.696Z" fill="#E6E6E6"/>
<path d="M489.837 11.4589C496.466 7.08004 506.313 14.0573 507.658 24.884C507.658 24.884 506.505 24.1622 504.631 23.4404C504.103 20.6977 503.623 18.2917 503.623 18.2917L503.959 23.1998C503.383 23.0074 502.758 22.7668 502.038 22.5743L501.557 19.9278L501.317 22.3818C500.453 22.1893 499.492 21.9969 498.483 21.8525L497.234 14.1535L496.61 21.7563C495.649 21.7082 494.689 21.7563 493.68 21.9006L492.911 16.6557V21.9969C492.095 22.1412 491.278 22.3337 490.414 22.5743L489.501 14.779C489.501 14.779 489.549 19.1579 489.501 22.863C487.388 23.6329 485.226 24.8359 483.113 26.6163L483.065 25.6539C483.016 25.702 483.785 15.4527 489.837 11.4589Z" fill="#DCF2D1"/>
<path d="M480.663 7.9943C475.38 2.02757 464.092 6.16578 459.961 16.2707C459.961 16.2707 461.258 15.8858 463.275 15.6452C464.476 13.143 465.581 10.9295 465.581 10.9295L463.948 15.549C464.572 15.5008 465.245 15.4527 465.965 15.4527L467.118 13.0468L466.686 15.4527C467.598 15.5008 468.559 15.549 469.568 15.6933L472.786 8.61984L471.441 16.0783C472.354 16.3189 473.314 16.6076 474.227 16.9925L476.34 12.1325L474.947 17.3293C475.716 17.6662 476.436 18.0511 477.205 18.5323L480.135 11.2664C480.135 11.2664 478.982 15.5008 478.021 19.1097C479.895 20.4089 481.672 22.1412 483.209 24.4509L483.545 23.5367C483.545 23.4886 485.467 13.4317 480.663 7.9943Z" fill="#DCF2D1"/>
<path d="M475.574 22.0923C480.858 16.9436 484.844 21.4186 484.844 21.4186C482.875 21.9479 481.098 23.199 479.561 24.8351L478.84 23.9208L478.936 25.5087C478.552 25.9418 478.216 26.3749 477.88 26.8079L476.679 24.0652L477.207 27.8184C476.727 28.5402 476.247 29.262 475.862 29.9838L475.334 27.241L475.382 30.8499C474.95 31.6679 474.565 32.4859 474.181 33.2077L473.605 28.2034L473.509 34.6994C472.644 36.7204 472.212 38.1158 472.212 38.1158C472.212 38.1158 470.29 27.241 475.574 22.0923Z" fill="#DCF2D1"/>
<path d="M489.837 34.2676L488.733 34.8931C488.589 34.0751 488.396 33.1609 488.156 32.2947L488.877 30.9474L487.964 31.5248C487.868 31.2361 487.82 30.9474 487.724 30.6587L488.685 28.0122L487.244 29.0708C486.475 26.6648 485.514 24.5476 484.266 23.5371C484.266 23.5371 496.37 27.4347 489.549 40.523C489.549 40.523 489.309 38.4539 488.829 35.7112L489.837 34.2676Z" fill="#DCF2D1"/>
<path d="M477.926 23.5849L476.005 19.9278L476.821 23.7292C476.629 23.7773 476.437 23.7773 476.245 23.8254L473.747 20.6977L474.371 24.3066C473.555 24.5472 472.738 24.8359 471.826 25.2209C470.961 25.6058 470.048 26.0389 469.184 26.5682L467.983 23.3924L468.559 26.9532C467.743 27.4344 466.926 27.9637 466.158 28.5411L465.533 25.7021L465.581 28.926C464.621 29.5997 463.708 30.3215 462.891 30.9951L462.988 25.8946L462.267 31.5726C461.402 32.2944 460.682 32.968 460.009 33.5936L459.913 30.0328L459.001 34.5559C458.088 35.4702 457.512 36.0957 457.512 36.0957C457.992 23.6811 462.795 18.773 470.721 17.4256C478.646 16.0783 484.41 24.3548 484.41 24.3548C484.41 24.3548 481.961 23.1999 477.926 23.5849Z" fill="#DCF2D1"/>
<path d="M501.078 38.7435L500.357 42.4487C500.021 41.5344 499.541 40.3315 498.916 39.0323L499.589 33.5948L498.388 37.8774C497.523 36.097 496.418 34.1241 495.17 32.2956L496.322 28.5424L494.497 31.3333C494.113 30.8521 493.729 30.3709 493.344 29.9378L493.969 27.58L492.96 29.5529C492.672 29.2641 492.432 28.9754 492.143 28.6867L492.912 25.5109L491.663 28.2536C490.847 27.5319 490.03 26.9063 489.117 26.4251L490.366 22.5756C490.366 22.5756 489.454 24.1635 488.397 26.0883C487.148 25.5109 485.803 25.2222 484.41 25.2703C484.41 25.2703 486.812 21.4208 491.231 20.1216C495.65 18.7742 505.16 26.8101 501.03 44.4697C501.03 44.4697 500.886 44.0847 500.645 43.363L501.078 38.7435Z" fill="#DCF2D1"/>
<path d="M493.826 4.43383L494.594 6.69541C494.354 6.69541 494.066 6.74353 493.778 6.79165L492.865 3.8564L493.49 6.83977C493.009 6.98413 492.433 7.22472 491.856 7.60967L490.608 3.66393L491.328 7.9465C491.136 8.09086 490.944 8.23521 490.704 8.42769L489.311 4.72254L490.319 8.76452C489.455 9.58254 488.542 10.7374 487.678 12.2772L487.293 6.83977L486.669 14.2501C485.804 16.1267 484.94 18.4845 484.171 21.4198C484.171 21.4198 483.403 1.69106 488.158 -0.522407C492.913 -2.73587 495.699 6.74353 495.699 6.74353C495.699 6.74353 495.459 6.64729 495.027 6.64729L493.826 4.43383Z" fill="#DCF2D1"/>
<path d="M487.05 26.3758L486.618 30.1291L485.177 26.5202L483.255 29.3592L482.487 26.7126L480.277 28.5893C480.277 28.5893 480.566 23.8255 481.959 21.6602C483.4 19.4467 487.626 20.9865 487.05 26.3758Z" fill="#E0E0E0"/>
<path d="M427.871 86.4749V60.3945C427.871 60.3945 422.588 66.0244 419.081 65.2545C415.575 64.4846 411.012 67.1312 411.012 67.1312C411.012 67.1312 415.575 66.4575 417.304 68.3341C418.985 70.2108 426.574 70.4032 426.574 70.4032V87.4373L427.871 86.4749Z" fill="#EBEBEB"/>
<path d="M451.168 78.4863H449.967V80.1224H446.028V78.4863H442.138V80.1224H438.151V78.4863H434.26V80.1224H430.322V78.4863H426.431V80.1224H422.444V78.4863H418.601V80.1224H414.615V78.4863H410.724V80.1224H406.785V78.4863H405.44L401.598 109.379L455.155 109.186L451.168 78.4863Z" fill="#E0E0E0"/>
<path d="M459.67 100.91H458.037V103.172H452.609V100.91H447.277V103.172H441.801V100.91H436.47V103.172H431.042V100.91H425.71V103.172H420.234V100.91H414.903V103.172H409.475V100.91H404.143V103.172H398.716V100.91H396.842L391.559 143.351L465.194 143.062L459.67 100.91Z" fill="#EBEBEB"/>
<path d="M163.082 83.3127C163.082 83.3127 170.363 70.4171 190.028 59.3023C190.028 59.3023 206.022 57.9514 224.132 65.7501C224.132 65.7501 227.803 71.7681 223.634 74.1016C219.464 76.4965 215.979 71.7067 215.979 71.7067C215.979 71.7067 215.232 78.9528 209.756 79.1984C204.342 79.3826 202.724 74.1016 202.724 74.1016C202.724 74.1016 202.164 80.7336 195.692 82.453C190.028 83.9268 186.543 79.1984 186.543 79.1984C186.543 79.1984 185.423 84.6637 180.382 86.2603C176.337 87.5499 173.537 84.111 173.537 84.111C173.537 84.111 172.355 90.0676 168.061 90.0676C164.451 90.0062 163.082 83.3127 163.082 83.3127Z" fill="#E0E0E0"/>
<path d="M285.664 169.289C337.102 169.289 378.8 166.854 378.8 163.851C378.8 160.848 337.102 158.414 285.664 158.414C234.226 158.414 192.527 160.848 192.527 163.851C192.527 166.854 234.226 169.289 285.664 169.289Z" fill="#F5F5F5"/>
<path d="M350.031 140.13C350.031 140.13 352.145 137.051 354.018 136.233C355.939 135.367 356.228 132.143 357.284 131.95C358.341 131.758 359.446 134.789 361.271 135.655C363.096 136.521 365.786 140.13 365.786 140.13H350.031Z" fill="#2893EB"/>
<path opacity="0.8" d="M350.031 140.13C350.031 140.13 352.145 137.051 354.018 136.233C355.939 135.367 356.228 132.143 357.284 131.95C358.341 131.758 359.446 134.789 361.271 135.655C363.096 136.521 365.786 140.13 365.786 140.13H350.031Z" fill="white"/>
<path d="M365.205 162.169H350.027L348.105 140.082H367.127L365.205 162.169Z" fill="#2893EB"/>
<path d="M368.09 138.928H347.195V141.237H368.09V138.928Z" fill="#2893EB"/>
<path opacity="0.2" d="M368.09 138.928H347.195V141.237H368.09V138.928Z" fill="white"/>
<path d="M356.708 140.562C358.101 142.728 364.009 151.726 367.708 152.351L368.14 151.245C368.14 151.245 364.874 151.63 357.573 139.985C357.429 139.744 357.141 139.648 356.9 139.792C356.66 139.985 356.564 140.322 356.708 140.562Z" fill="#263238"/>
<path d="M335.09 133.636C335.762 133.443 336.435 133.828 336.627 134.454L339.22 143.548L342.583 142.201C342.583 142.201 344.6 149.804 340.757 150.959C337.011 152.113 334.129 145.136 334.129 145.136L337.539 144.174L334.273 135.176C334.081 134.55 334.417 133.828 335.09 133.636Z" fill="#2893EB"/>
<path opacity="0.4" d="M340.808 150.959C337.062 152.114 334.18 145.136 334.18 145.136L337.59 144.174C337.59 144.174 338.166 145.185 338.839 144.944C339.511 144.703 339.223 143.549 339.223 143.549L342.586 142.201C342.634 142.201 344.651 149.756 340.808 150.959Z" fill="white"/>
<path d="M369.581 164.045C367.708 163.131 365.786 162.217 365.162 162.168C363.817 162.072 363.048 161.495 362.136 160.34C361.175 159.185 360.791 157.886 359.11 156.057C357.381 154.229 359.302 153.507 355.699 153.026C352.097 152.545 353.49 152.833 351.28 151.246C349.071 149.658 349.503 149.658 346.909 148.503C344.316 147.348 345.853 146.915 342.778 146.674C340.665 146.482 337.351 147.588 335.622 148.84C334.853 149.369 334.469 150.283 333.7 150.764C332.836 151.294 331.539 150.283 331.683 152.112C331.731 152.593 331.875 153.074 331.731 153.507C331.491 154.518 327.264 154.518 326.159 154.854C325.919 154.951 325.631 154.999 325.535 155.239C325.294 155.672 325.679 156.442 325.198 156.635C325.054 156.683 324.862 156.635 324.718 156.635C324.142 156.731 324.286 157.79 323.757 158.03C323.229 158.271 322.605 157.79 322.028 158.03C321.548 158.223 321.404 158.8 321.019 159.089C320.347 159.522 319.578 159.811 318.906 160.292C317.705 161.062 316.696 162.024 315.4 162.746L311.989 163.66L310.98 163.997H369.581V164.045Z" fill="#2893EB"/>
<path opacity="0.8" d="M369.581 164.045C367.708 163.131 365.786 162.217 365.162 162.168C363.817 162.072 363.048 161.495 362.136 160.34C361.175 159.185 360.791 157.886 359.11 156.057C357.381 154.229 359.302 153.507 355.699 153.026C352.097 152.545 353.49 152.833 351.28 151.246C349.071 149.658 349.503 149.658 346.909 148.503C344.316 147.348 345.853 146.915 342.778 146.674C340.665 146.482 337.351 147.588 335.622 148.84C334.853 149.369 334.469 150.283 333.7 150.764C332.836 151.294 331.539 150.283 331.683 152.112C331.731 152.593 331.875 153.074 331.731 153.507C331.491 154.518 327.264 154.518 326.159 154.854C325.919 154.951 325.631 154.999 325.535 155.239C325.294 155.672 325.679 156.442 325.198 156.635C325.054 156.683 324.862 156.635 324.718 156.635C324.142 156.731 324.286 157.79 323.757 158.03C323.229 158.271 322.605 157.79 322.028 158.03C321.548 158.223 321.404 158.8 321.019 159.089C320.347 159.522 319.578 159.811 318.906 160.292C317.705 161.062 316.696 162.024 315.4 162.746L311.989 163.66L310.98 163.997H369.581V164.045Z" fill="white"/>
<path d="M329.282 155.288C329.282 155.336 329.282 155.336 329.282 155.384C329.282 157.069 328.754 158.656 327.937 159.956C327.889 160.052 327.793 160.196 327.697 160.293C327.217 161.014 326.592 161.64 325.872 162.169C325.728 162.313 325.536 162.41 325.391 162.506C325.343 162.554 325.295 162.554 325.247 162.602C325.199 162.65 325.151 162.65 325.103 162.698C325.007 162.747 324.911 162.795 324.863 162.843C324.719 162.939 324.575 162.987 324.431 163.083C323.278 163.661 321.933 163.998 320.54 163.998C318.042 163.998 315.785 162.939 314.2 161.303C313.623 160.677 313.095 160.004 312.711 159.234C312.086 158.031 311.75 156.684 311.75 155.24V155.192C311.75 154.951 311.75 154.711 311.798 154.47C311.894 153.315 312.23 152.209 312.711 151.246C312.855 151.006 312.999 150.765 313.143 150.524C313.623 149.754 314.296 149.033 314.968 148.455C315.208 148.263 315.449 148.07 315.689 147.926C315.785 147.878 315.881 147.782 315.977 147.733C316.649 147.3 317.418 147.012 318.186 146.771C318.234 146.771 318.331 146.723 318.379 146.723C319.051 146.531 319.772 146.482 320.492 146.482C320.732 146.482 320.924 146.482 321.165 146.531C321.213 146.531 321.261 146.531 321.357 146.531C322.365 146.627 323.278 146.867 324.143 147.3C324.191 147.3 324.239 147.349 324.239 147.349C325.007 147.685 325.68 148.167 326.304 148.696C327.841 150.043 328.898 151.968 329.186 154.085C329.234 154.518 329.282 154.903 329.282 155.288Z" fill="#2893EB"/>
<path opacity="0.6" d="M329.281 155.288C329.281 158.705 327.312 161.688 324.43 163.132C324.093 162.843 323.949 162.554 323.949 162.554C325.582 157.839 323.949 155.336 323.949 155.336V155.288L324.045 154.518V154.374C324.285 152.979 324.91 150.332 326.303 148.744C328.128 150.332 329.281 152.69 329.281 155.288Z" fill="white"/>
<path opacity="0.6" d="M313.815 153.748C313.815 153.748 312.278 155.288 312.711 159.234C312.086 158.031 311.75 156.683 311.75 155.24C311.75 152.497 312.999 150.043 314.968 148.455C314.152 150.139 313.719 152.064 313.815 153.748Z" fill="white"/>
<path opacity="0.2" d="M326.304 148.745C324.382 150.958 323.902 155.289 323.902 155.289C318.618 156.588 313.767 153.797 313.767 153.797C313.671 152.113 314.103 150.14 314.968 148.504C316.457 147.301 318.378 146.531 320.492 146.531C322.749 146.531 324.767 147.349 326.304 148.745Z" fill="white"/>
<path opacity="0.2" d="M324.43 163.132C323.278 163.709 321.933 164.046 320.54 164.046C318.042 164.046 315.784 162.988 314.199 161.352C315.832 162.314 319.195 163.709 323.95 162.555C323.95 162.506 324.046 162.843 324.43 163.132Z" fill="white"/>
<g opacity="0.2">
<path d="M324.288 147.398C324.047 147.735 323.855 148.071 323.663 148.408C323.327 149.082 322.991 149.756 322.75 150.477C322.462 151.199 322.27 151.921 322.078 152.643C321.886 153.364 321.742 154.134 321.598 154.856C321.646 154.086 321.742 153.364 321.934 152.595C322.078 151.825 322.318 151.103 322.558 150.381C322.847 149.659 323.135 148.986 323.519 148.312C323.711 147.975 323.951 147.638 324.191 147.35C324.191 147.35 324.239 147.35 324.288 147.398Z" fill="black"/>
<path d="M321.356 146.579C321.212 146.82 321.116 147.012 321.02 147.253C320.684 147.975 320.396 148.793 320.156 149.563C319.915 150.333 319.723 151.151 319.531 151.969C319.339 152.787 319.195 153.605 319.051 154.423C319.099 153.605 319.195 152.739 319.339 151.921C319.483 151.103 319.675 150.285 319.915 149.466C320.156 148.648 320.444 147.879 320.828 147.109C320.924 146.916 321.02 146.724 321.164 146.531C321.212 146.531 321.308 146.579 321.356 146.579Z" fill="black"/>
<path d="M318.38 146.771C318.332 146.916 318.284 147.012 318.236 147.156C317.948 147.878 317.756 148.6 317.564 149.37C317.372 150.092 317.228 150.862 317.083 151.631C316.939 152.401 316.843 153.123 316.699 153.893C316.699 153.123 316.795 152.353 316.891 151.583C316.987 150.813 317.132 150.044 317.324 149.322C317.516 148.552 317.708 147.83 318.044 147.108C318.092 147.012 318.14 146.916 318.188 146.868C318.284 146.82 318.332 146.82 318.38 146.771Z" fill="black"/>
<path d="M315.978 147.781C315.834 148.311 315.642 148.84 315.546 149.417C315.401 150.043 315.305 150.668 315.209 151.294C315.113 151.919 315.065 152.545 314.969 153.171C314.921 152.545 314.969 151.919 315.017 151.294C315.065 150.668 315.161 150.043 315.305 149.417C315.401 148.936 315.546 148.455 315.69 148.022C315.786 147.926 315.882 147.829 315.978 147.781Z" fill="black"/>
<path d="M326.4 158.224C326.4 159.139 326.304 160.053 326.064 160.919C325.968 161.352 325.775 161.785 325.583 162.17C325.535 162.314 325.439 162.459 325.391 162.603C325.343 162.651 325.295 162.651 325.247 162.699C325.487 162.122 325.727 161.496 325.872 160.871C326.112 160.005 326.208 159.139 326.16 158.224C326.16 157.358 326.016 156.444 325.775 155.626C325.535 154.76 325.151 153.942 324.719 153.172C325.247 153.894 325.679 154.712 325.968 155.578C326.208 156.396 326.352 157.31 326.4 158.224Z" fill="black"/>
<path d="M328.128 157.983V158.705L328.032 159.426C328.032 159.619 327.984 159.811 327.936 160.004C327.888 160.1 327.792 160.244 327.696 160.341C327.744 160.052 327.84 159.715 327.84 159.378L327.888 158.656V157.935C327.888 157.694 327.888 157.453 327.888 157.213C327.888 156.972 327.888 156.732 327.84 156.491C327.744 155.529 327.456 154.614 327.12 153.748C326.783 152.882 326.303 152.016 325.727 151.246C326.399 151.92 326.927 152.786 327.312 153.652C327.696 154.566 327.984 155.481 328.08 156.443C328.128 156.684 328.128 156.924 328.128 157.165C328.128 157.453 328.128 157.742 328.128 157.983Z" fill="black"/>
<path d="M329.28 155.288C329.28 155.336 329.28 155.336 329.28 155.385C329.28 155.336 329.28 155.288 329.232 155.24C329.04 154.23 328.703 153.267 328.271 152.353C327.839 151.439 327.31 150.525 326.59 149.803C327.358 150.525 327.935 151.391 328.415 152.305C328.703 152.93 328.992 153.556 329.184 154.182C329.232 154.518 329.28 154.903 329.28 155.288Z" fill="black"/>
<path d="M313.383 152.4C312.999 152.833 312.663 153.315 312.374 153.844C312.134 154.325 311.894 154.806 311.75 155.288C311.75 155.047 311.75 154.806 311.798 154.566C311.942 154.277 312.086 154.036 312.23 153.748C312.567 153.218 312.903 152.737 313.383 152.4Z" fill="black"/>
<path d="M313.818 150.045C313.434 150.478 313.098 150.863 312.762 151.296C312.906 151.055 313.05 150.815 313.194 150.574C313.338 150.382 313.578 150.189 313.818 150.045Z" fill="black"/>
<path d="M313.816 155.627C314.633 155.916 315.402 156.204 316.218 156.445C317.035 156.686 317.851 156.878 318.716 157.022C320.397 157.311 322.126 157.407 323.759 156.974C322.943 157.311 322.126 157.455 321.262 157.455C320.397 157.504 319.532 157.407 318.668 157.263C317.803 157.119 316.987 156.878 316.17 156.589C315.353 156.349 314.537 156.012 313.816 155.627Z" fill="black"/>
<path d="M313.816 157.744C314.633 158.081 315.45 158.322 316.266 158.562C317.083 158.755 317.947 158.947 318.812 159.043C319.676 159.188 320.541 159.188 321.406 159.188L322.03 159.14L322.655 159.043C323.087 158.995 323.519 158.899 323.951 158.851C323.135 159.091 322.27 159.332 321.406 159.38C320.541 159.428 319.676 159.428 318.812 159.332C317.947 159.236 317.083 159.043 316.266 158.803C315.353 158.466 314.537 158.129 313.816 157.744Z" fill="black"/>
<path d="M314.008 159.523C314.776 159.86 315.545 160.149 316.361 160.39C317.178 160.63 317.995 160.775 318.811 160.871C319.243 160.919 319.628 160.967 320.06 160.967C320.492 160.967 320.877 160.967 321.309 160.967C322.125 160.919 322.942 160.775 323.759 160.63C322.942 160.871 322.125 161.111 321.309 161.159C320.492 161.256 319.628 161.208 318.763 161.111C317.947 161.015 317.082 160.823 316.313 160.534C315.497 160.293 314.728 159.957 314.008 159.523Z" fill="black"/>
<path d="M314.344 160.871C315.064 161.208 315.785 161.497 316.553 161.689C317.322 161.93 318.09 162.074 318.859 162.17C319.627 162.267 320.396 162.315 321.212 162.267L321.789 162.218L322.365 162.122C322.75 162.074 323.134 161.93 323.518 161.882C322.798 162.17 322.029 162.411 321.212 162.459C320.444 162.555 319.627 162.555 318.811 162.459C318.042 162.363 317.226 162.17 316.505 161.93C315.785 161.641 315.016 161.304 314.344 160.871Z" fill="black"/>
</g>
<path d="M220.242 141.525C220.242 141.525 221.971 138.975 224.997 138.782C228.023 138.59 230.617 142.487 230.617 142.487H229.657C229.657 142.487 227.207 139.841 225.43 139.841C223.652 139.841 221.971 142.006 221.971 142.006L220.242 141.525Z" fill="#263238"/>
<path d="M194.449 161.831C195.506 160.05 207.274 161.205 209.964 160.146L211.405 162.601C211.405 162.601 209.388 163.707 205.977 163.322C202.567 162.937 197.523 162.793 196.178 163.996L194.449 161.831Z" fill="#263238"/>
<path opacity="0.3" d="M194.449 161.831C195.506 160.05 207.274 161.205 209.964 160.146L211.405 162.601C211.405 162.601 209.388 163.707 205.977 163.322C202.567 162.937 197.523 162.793 196.178 163.996L194.449 161.831Z" fill="black"/>
<path d="M244.07 156.491C243.974 156.925 243.878 157.309 243.734 157.743C242.773 161.015 241.284 163.661 240.227 164.094H209.678C208.813 164.094 207.997 163.709 207.517 163.036C207.517 163.036 207.517 163.036 207.469 162.987C207.372 162.843 207.276 162.699 207.18 162.506C205.067 158.079 202.953 149.274 205.931 145.232C206.22 144.799 206.604 144.414 206.988 144.077C207.036 144.077 207.036 144.029 207.084 144.029C207.709 143.499 208.381 143.114 209.15 142.729C211.263 141.767 213.857 141.334 216.355 141.142C217.075 141.093 217.796 141.045 218.516 141.045C220.389 140.997 222.119 141.045 223.512 141.093C228.411 141.238 232.302 142.681 234.896 142.441C235.952 142.345 236.913 142.441 237.778 142.681C238.066 142.778 238.306 142.826 238.594 142.97C239.699 143.403 240.756 144.077 241.908 144.991C245.031 147.349 245.079 152.257 244.07 156.491Z" fill="#263238"/>
<path opacity="0.1" d="M244.07 156.491C243.974 156.925 243.878 157.309 243.734 157.743C242.773 161.015 241.284 163.661 240.227 164.094H209.678C208.813 164.094 207.997 163.709 207.517 163.036C207.517 163.036 207.517 163.036 207.469 162.987C207.372 162.843 207.276 162.699 207.18 162.506C205.067 158.079 202.953 149.274 205.931 145.232C206.22 144.799 206.604 144.414 206.988 144.077C207.036 144.077 207.036 144.029 207.084 144.029C207.709 143.499 208.381 143.114 209.15 142.729C211.263 141.767 213.857 141.334 216.355 141.142C217.075 141.093 217.796 141.045 218.516 141.045C220.389 140.997 222.119 141.045 223.512 141.093C228.411 141.238 232.302 142.681 234.896 142.441C235.952 142.345 236.913 142.441 237.778 142.681C238.066 142.778 238.306 142.826 238.594 142.97C239.699 143.403 240.756 144.077 241.908 144.991C245.031 147.349 245.079 152.257 244.07 156.491Z" fill="white"/>
<path opacity="0.2" d="M239.408 156.153C237.199 156.153 232.828 157.212 226.391 155.768C222.212 154.854 218.994 155.287 217.217 155.72C217.169 154.758 217.073 153.699 216.977 152.544C216.4 144.701 211.933 141.429 209.243 142.728C208.427 143.113 207.754 143.546 207.178 144.027C207.13 144.027 207.13 144.075 207.082 144.075C206.698 144.412 206.313 144.797 206.025 145.23C203.047 149.272 205.161 158.078 207.274 162.505C207.37 162.697 207.466 162.842 207.562 162.986C207.562 162.986 207.562 162.986 207.61 163.034C208.139 163.612 208.859 163.997 209.676 163.997H215.055C217.265 163.997 217.553 161.928 217.313 157.549C217.697 157.308 218.178 157.068 218.658 156.731C220.003 155.865 225.287 156.298 227.592 157.164C229.898 158.03 235.854 158.415 238.736 157.934C240.753 157.597 242.723 157.741 243.731 157.837C243.875 157.452 243.971 157.019 244.068 156.586C243.059 156.394 240.993 156.153 239.408 156.153Z" fill="black"/>
<path opacity="0.2" d="M219.525 145.132C220.869 149.992 221.782 151.677 222.118 152.158C222.455 152.639 232.157 153.794 233.982 153.794C235.808 153.794 238.882 153.505 240.227 153.168C241.476 152.831 241.86 146.624 238.738 142.871C238.45 142.775 238.209 142.678 237.921 142.582C239.602 146.383 239.65 151.051 239.458 151.725C239.17 152.639 236.336 152.495 234.991 152.495C233.646 152.495 225.385 151.965 224.52 151.628C223.655 151.292 223.175 150.81 222.503 149.944C221.83 149.078 221.734 146.143 220.533 143.593C220.101 142.678 219.332 141.764 218.564 140.994C217.843 140.994 217.123 141.042 216.402 141.09C217.699 141.86 218.948 143.063 219.525 145.132Z" fill="black"/>
<path d="M209.916 149.609L207.274 150.283C207.274 150.283 205.401 155.72 206.506 157.982C207.658 160.244 198.82 163.419 194.449 161.832L196.178 164.045C196.178 164.045 206.65 163.371 208.619 159.377C210.636 155.384 207.754 154.758 207.562 153.651C207.37 152.545 209.916 149.609 209.916 149.609Z" fill="#263238"/>
<path opacity="0.1" d="M209.916 149.609L207.274 150.283C207.274 150.283 205.401 155.72 206.506 157.982C207.658 160.244 198.82 163.419 194.449 161.832L196.178 164.045C196.178 164.045 206.65 163.371 208.619 159.377C210.636 155.384 207.754 154.758 207.562 153.651C207.37 152.545 209.916 149.609 209.916 149.609Z" fill="white"/>
<path d="M233.45 37.6873C233.45 37.6873 223.171 31.913 221.057 30.4213C218.896 28.9296 207.512 17.718 206.888 17.4293C206.888 17.4293 207.32 16.13 206.359 15.4083C205.399 14.6384 201.7 12.2324 201.124 12.2324C200.547 12.2324 199.202 17.4293 199.442 18.6803C199.635 19.9795 204.87 20.2683 204.87 20.2683C204.87 20.2683 215.726 32.9235 217.407 34.7039C219.088 36.4843 230.712 44.039 230.712 44.039L233.45 37.6873Z" fill="#E4897B"/>
<path d="M237.677 38.7455C237.677 38.7455 239.934 43.3168 234.459 50.5346L222.402 41.6326L227.206 32.875L237.677 38.7455Z" fill="#2893EB"/>
<path opacity="0.6" d="M234.456 50.5353L228.74 46.349L227.971 45.8197L224.753 43.4618L222.352 41.6815L224.129 38.4575L225.137 36.629L227.203 32.9238L229.172 34.0306L230.853 34.9929L237.626 38.7943C237.626 38.7943 237.914 39.3718 238.01 40.4304C238.299 42.307 237.962 45.8678 234.456 50.5353Z" fill="white"/>
<path opacity="0.2" d="M234.454 50.5346L228.738 46.3483C230.708 42.3063 235.751 40.8628 238.057 40.4297C238.297 42.3063 237.961 45.8671 234.454 50.5346Z" fill="black"/>
<g opacity="0.2">
<path d="M230.857 34.9468L229.176 35.9572V33.9844L230.857 34.9468Z" fill="white"/>
<path d="M227.159 37.2076L225.045 40.1909L224.133 38.4105L225.142 36.582L227.159 37.2076Z" fill="white"/>
<path d="M228.743 41.7324L227.975 45.7744L224.805 43.4166L228.743 41.7324Z" fill="white"/>
<path d="M230.234 39.3746L231.387 42.4543L233.885 39.0859L230.234 39.3746Z" fill="white"/>
</g>
<path d="M260.062 36.5798C260.062 36.5798 270.342 30.8056 272.455 29.3139C274.569 27.8222 285.952 16.6105 286.625 16.3218C286.625 16.3218 286.193 15.0226 287.153 14.3008C288.114 13.5309 291.812 11.125 292.389 11.125C292.965 11.125 294.31 16.3699 294.07 17.621C293.878 18.9202 288.642 19.209 288.642 19.209C288.642 19.209 277.787 31.8642 276.106 33.6446C274.424 35.425 262.8 42.9796 262.8 42.9796L260.062 36.5798Z" fill="#E4897B"/>
<path d="M247.765 97.5469C247.765 97.5469 247.525 101.204 247.189 106.016C246.949 109.047 246.709 112.512 246.42 115.88C246.036 120.403 245.556 124.734 245.123 127.429C244.691 129.883 239.167 160.534 239.167 160.534H235.469C236.622 131.952 238.447 120.884 238.543 119.2C238.591 118.671 238.591 117.901 238.591 116.987C238.639 113.715 238.735 108.566 238.783 104.813C238.831 102.118 238.831 100.145 238.831 100.145L247.765 97.5469Z" fill="#E4897B"/>
<path d="M262.125 120.691C261.981 123.193 260.492 160.486 260.492 160.486H256.409C254.344 130.796 255.112 120.499 254.728 118.43C254.728 118.43 254.728 118.43 254.728 118.382C254.103 114.869 253.479 110.298 253.095 106.881C252.759 104.138 252.566 102.166 252.566 102.166L260.876 98.5566C260.876 98.5566 261.405 102.887 261.741 108.084C261.933 110.683 262.077 113.522 262.125 116.12C262.221 117.708 262.221 119.296 262.125 120.691Z" fill="#E4897B"/>
<path opacity="0.2" d="M238.734 104.859L247.236 106.014C246.996 109.046 246.755 112.51 246.467 115.879L238.59 116.985C238.638 113.761 238.686 108.613 238.734 104.859Z" fill="black"/>
<path opacity="0.2" d="M262.176 116.072L254.731 118.381C254.106 114.869 253.482 110.297 253.098 106.881L261.792 108.084C261.984 110.634 262.128 113.425 262.176 116.072Z" fill="black"/>
<path d="M240.032 159.428H235.133C234.989 159.428 234.845 159.524 234.797 159.716L233.98 163.325C233.932 163.662 234.124 163.951 234.46 164.047C234.508 164.047 234.556 164.047 234.604 164.047C236.189 163.999 237.342 163.903 239.36 163.903C240.609 163.903 244.307 164.047 245.988 164.047C247.669 164.047 247.91 162.363 247.189 162.219C244.067 161.545 241.713 160.583 240.753 159.716C240.512 159.524 240.272 159.428 240.032 159.428Z" fill="#2893EB"/>
<path d="M260.829 159.332H255.93C255.786 159.332 255.641 159.428 255.593 159.621L254.777 163.23C254.729 163.566 254.921 163.855 255.257 163.951C255.305 163.951 255.353 163.951 255.401 163.951C256.986 163.903 258.139 163.807 260.157 163.807C261.405 163.807 265.104 163.951 266.785 163.951C268.466 163.951 268.706 162.267 267.986 162.123C264.864 161.449 262.51 160.487 261.55 159.621C261.309 159.38 261.069 159.332 260.829 159.332Z" fill="#2893EB"/>
<path d="M248.099 113.81C248.147 113.474 248.196 113.137 248.196 112.752C248.676 107.844 249.204 101.925 249.637 96.1989C251.318 100.674 251.99 106.929 252.855 113.81H262.942C262.125 96.1027 259.916 81.667 258.763 75.5078H237.34C237.292 77.7213 237.052 99.086 236.523 113.81H248.099Z" fill="#263238"/>
<path opacity="0.2" d="M248.099 113.81C248.147 113.474 248.196 113.137 248.196 112.752C248.676 107.844 249.204 101.925 249.637 96.1989C251.318 100.674 251.99 106.929 252.855 113.81H262.942C262.125 96.1027 259.916 81.667 258.763 75.5078H237.34C237.292 77.7213 237.052 99.086 236.523 113.81H248.099Z" fill="white"/>
<path d="M251.08 31.6225C251.032 31.815 250.984 32.0074 250.888 32.1999C250.503 33.3066 249.783 34.2209 248.87 34.8464C248.63 35.0389 248.39 35.1833 248.15 35.2795C246.805 35.9532 245.22 36.0975 243.779 35.472C243.202 35.2314 242.626 34.8464 242.098 34.3171C240.08 32.248 240.128 29.8902 239.888 25.8963C239.84 25.0302 239.984 24.1641 240.272 23.3942C241.425 20.6033 244.643 19.256 247.429 20.4589C251.416 22.095 251.944 28.0617 251.08 31.6225Z" fill="#E4897B"/>
<path opacity="0.2" d="M248.873 34.894C248.633 35.0865 248.392 35.2308 248.152 35.3271C246.807 36.0007 245.222 36.1451 243.781 35.5195C244.069 34.7496 244.502 34.1722 244.502 34.1722C244.502 34.1722 246.903 33.7873 248.873 34.894Z" fill="black"/>
<path d="M240.852 40.0433C242.821 41.8237 247.624 41.1501 247.624 41.1501C247.624 41.1501 250.65 40.3321 249.978 39.3697C248.201 39.081 247.336 38.2629 247 37.2043C246.808 36.5788 246.76 35.9051 246.808 35.1833C246.856 34.7984 246.904 34.4134 246.952 34.0285L240.996 29.6016C241.812 32.5849 242.773 37.9742 240.852 40.0433Z" fill="#E4897B"/>
<path d="M248.872 28.0135L249.736 28.3504L249.304 26.57C249.304 26.57 250.553 24.6933 249.304 22.961C249.304 22.961 252.763 21.9024 250.841 20.0739C250.121 19.4003 249.208 20.0739 246.806 19.0153C245.51 18.4379 241.427 18.3898 241.235 20.0739C241.235 20.0739 238.305 20.0739 237.968 25.0783C237.632 30.0826 241.09 32.9698 241.09 32.9698C241.09 32.9698 244.645 33.7878 246.374 32.3923C248.055 30.9488 248.872 28.0135 248.872 28.0135Z" fill="#263238"/>
<path d="M246.616 28.3028C246.856 29.169 247.336 29.7945 247.961 30.0832C248.777 30.4201 249.306 29.2652 249.21 28.0622C249.114 27.0036 248.537 25.5119 247.673 25.7044C246.76 25.8969 246.328 27.1961 246.616 28.3028Z" fill="#E4897B"/>
<path opacity="0.2" d="M249.686 96.1982C249.254 101.876 248.725 107.843 248.245 112.751C247.524 105.629 246.612 100.577 246.612 100.577C246.612 100.577 245.795 99.9033 243.49 96.1982C241.184 92.493 243.49 85.6602 243.49 85.6602C243.393 92.0118 249.686 96.1982 249.686 96.1982Z" fill="black"/>
<path d="M263.758 112.992L263.326 114.676H252.566V113.137L263.758 112.992Z" fill="#2893EB"/>
<path d="M248.627 113.232L248.339 114.772H236.138L235.418 113.232H248.627Z" fill="#2893EB"/>
<path d="M250.118 38.8906C250.118 38.8906 248.389 36.0997 243.97 35.9072C239.551 35.7148 239.215 38.7462 239.215 38.7462L250.118 38.8906Z" fill="#2893EB"/>
<path opacity="0.5" d="M250.118 38.8906C250.118 38.8906 248.389 36.0997 243.97 35.9072C239.551 35.7148 239.215 38.7462 239.215 38.7462L250.118 38.8906Z" fill="white"/>
<path d="M234.316 37.2051C234.316 37.2051 236.574 57.7518 233.836 82.1962L259.63 80.6082C259.342 54.2391 255.787 37.59 255.787 37.59C255.787 37.59 249.11 38.9855 243.731 38.793C238.687 38.6486 234.316 37.2051 234.316 37.2051Z" fill="#2893EB"/>
<path d="M255.837 37.6402C255.837 37.6402 259.295 45.7242 259.679 53.9044C260.064 62.0846 245.654 73.2963 245.654 73.2963C245.654 73.2963 234.558 65.6454 226.008 66.3672C217.458 67.0889 214.816 70.1204 214.816 70.1204C214.816 70.1204 221.445 55.8773 233.021 50.921C233.021 50.921 230.619 42.6927 234.318 37.3034C234.318 37.2072 242.339 39.8056 255.837 37.6402Z" fill="#2893EB"/>
<path opacity="0.6" d="M259.677 53.8547C259.677 54.0953 259.677 54.2878 259.677 54.5284C259.677 54.8652 259.629 55.2502 259.533 55.587C259.388 56.405 259.148 57.1749 258.812 57.9929C257.947 60.1102 256.458 62.2755 254.825 64.2484C254.009 65.2589 253.144 66.2212 252.28 67.0874C248.917 70.6482 245.651 73.1504 245.651 73.1504C245.651 73.1504 241.568 70.3113 236.429 68.2904C235.42 67.9054 234.411 67.5205 233.354 67.2317C230.905 66.51 228.359 66.0769 226.005 66.2212C222.979 66.4618 220.722 66.9911 219.041 67.5686C218.656 67.7129 218.272 67.8573 217.936 68.0016C217.84 68.0498 217.744 68.0979 217.648 68.146C216.735 68.5791 216.063 68.964 215.582 69.3009C215.534 69.349 215.438 69.3971 215.39 69.4452C215.246 69.5414 215.15 69.6377 215.054 69.6858C215.006 69.7339 214.958 69.7339 214.958 69.782C214.91 69.8302 214.91 69.8302 214.862 69.8783C214.814 69.8783 214.814 69.9264 214.814 69.9264L214.766 69.9745C214.766 69.9745 214.814 69.8302 214.91 69.6858C214.958 69.6377 215.006 69.5414 215.054 69.3971C215.198 69.1084 215.39 68.7715 215.63 68.3385C215.678 68.2904 215.678 68.1941 215.726 68.146C215.774 68.0498 215.87 67.9535 215.918 67.8092C215.966 67.7129 216.063 67.5686 216.111 67.4723C216.399 66.9911 216.735 66.4137 217.071 65.8363C218.656 63.3341 221.01 60.0139 224.036 57.0306C224.997 56.1163 225.957 55.202 227.014 54.384C228.839 52.9886 230.809 51.7375 232.97 50.7751C232.97 50.7751 232.106 47.8399 232.202 44.3272C232.202 43.6535 232.25 42.9799 232.394 42.2581C232.634 40.4777 233.21 38.6973 234.267 37.1094C234.267 37.1094 235.516 37.4943 237.87 37.8793C239.167 38.0718 240.752 38.2642 242.673 38.3605C245.363 38.5048 248.581 38.4567 252.376 38.0236C253.48 37.8793 254.585 37.7349 255.786 37.5424C255.786 37.5424 255.834 37.6387 255.882 37.8312C256.17 38.5529 257.035 40.7664 257.851 43.7016C258.044 44.4715 258.284 45.2896 258.476 46.1557C258.668 46.9256 258.812 47.7917 259.004 48.6098C259.388 50.342 259.581 52.1224 259.677 53.8547Z" fill="white"/>
<g opacity="0.2">
<path d="M256.36 60.4453L254.823 64.3429C254.006 65.3534 253.142 66.3158 252.277 67.1819L249.203 61.4077L256.36 60.4453Z" fill="white"/>
<path d="M230.229 56.6925L224.129 57.0293C225.09 56.1151 226.05 55.2008 227.107 54.3828L230.229 56.6925Z" fill="white"/>
<path d="M237.242 41.2949L236.569 47.6466L232.246 44.3745C232.246 43.7009 232.294 43.0272 232.438 42.3054L237.242 41.2949Z" fill="white"/>
<path d="M239.26 58.042L237.242 51.9791L243.342 50.8242L239.26 58.042Z" fill="white"/>
<path d="M249.684 52.2168V56.7881L254.055 55.2483L249.684 52.2168Z" fill="white"/>
<path d="M238.493 65.4517L236.428 68.3389C235.419 67.9539 234.41 67.569 233.353 67.2803L231.816 63.7676L238.493 65.4517Z" fill="white"/>
<path d="M222.883 61.0703L226.053 62.4176L222.883 64.583V61.0703Z" fill="white"/>
<path d="M219.086 67.6652C215.964 68.7719 214.859 70.023 214.859 70.023C214.859 70.023 215.676 68.2907 217.165 65.8848L219.086 67.6652Z" fill="white"/>
<path d="M244.686 61.7461L241.996 64.5851L246.079 65.2588L244.686 61.7461Z" fill="white"/>
<path d="M244.688 44.1341L247.858 48.4166L250.115 43.5566L244.688 44.1341Z" fill="white"/>
<path d="M259.052 48.6574L254.969 45.9628L257.899 43.7012C258.331 45.241 258.763 46.9251 259.052 48.6574Z" fill="white"/>
<path d="M259.675 54.576C259.627 55.6827 259.29 56.8857 258.81 58.0887L257.129 53.9023L259.675 54.576Z" fill="white"/>
<path d="M255.975 37.8786L253.429 40.5251L252.469 38.071C253.574 37.9267 254.678 37.7823 255.879 37.5898C255.831 37.638 255.879 37.7342 255.975 37.8786Z" fill="white"/>
<path d="M242.717 38.4089L240.844 42.4028L237.914 37.9277C239.211 38.1683 240.844 38.3608 242.717 38.4089Z" fill="white"/>
</g>
<path opacity="0.2" d="M259.679 53.8544C259.679 54.095 259.679 54.2875 259.679 54.5281C259.679 54.8649 259.631 55.2498 259.535 55.5867C256.173 50.2455 256.99 45.4336 256.99 45.4336L258.575 46.2035C258.767 46.9734 258.911 47.8395 259.103 48.6576C259.391 50.3417 259.583 52.1221 259.679 53.8544Z" fill="black"/>
<path d="M246.036 16.3683C251.752 14.3954 253.145 21.9982 247.525 27.1469C241.857 32.2956 235.373 32.9212 234.604 30.3228C233.884 27.7243 237.342 19.3517 246.036 16.3683Z" fill="#2893EB"/>
<path d="M240.323 15.9844C243.253 15.9844 247.383 18.9677 247.383 18.9677C247.383 18.9677 247.96 22.1436 245.078 24.9345C242.148 27.7254 239.554 28.1584 237.921 27.0998C236.288 26.0412 235.855 21.8067 235.855 21.8067C235.855 21.8067 236.288 20.1707 237.921 19.6414C237.921 19.6414 238.401 15.9844 240.323 15.9844Z" fill="#2893EB"/>
<path opacity="0.2" d="M245.125 24.9346C242.195 27.7255 239.601 28.1586 237.968 27.1C237.68 26.9075 237.439 26.6669 237.247 26.3301C236.191 24.7422 235.902 21.8069 235.902 21.8069C238.688 25.1752 241.906 21.7107 242.339 19.3529C242.579 18.0055 242.243 16.8507 241.57 16.1289C243.492 16.562 245.605 17.7649 246.662 18.4867C247.142 18.7754 247.382 18.9679 247.382 18.9679C247.382 18.9679 248.007 22.1438 245.125 24.9346Z" fill="black"/>
<path opacity="0.6" d="M245.124 24.9342C242.194 27.7251 239.6 28.1582 237.967 27.0996C237.678 26.9071 237.438 26.6665 237.246 26.3297C240.176 27.1958 243.635 25.7523 245.508 23.1539C246.709 21.4697 246.853 19.7374 246.709 18.4863C247.189 18.775 247.429 18.9675 247.429 18.9675C247.429 18.9675 248.006 22.1434 245.124 24.9342Z" fill="white"/>
<path d="M255.836 37.6381C255.836 37.6381 253.579 42.2094 259.054 49.4272L271.111 40.5252L266.307 31.7676L255.836 37.6381Z" fill="#2893EB"/>
<path opacity="0.6" d="M271.158 40.5259L267.988 42.8356L263.329 46.252L259.054 49.3798C258.766 48.9948 258.526 48.658 258.285 48.3212C257.757 47.5513 257.325 46.7814 256.941 46.1077C255.692 43.7017 255.355 41.7289 255.355 40.2853C255.355 38.553 255.836 37.5907 255.836 37.5907L258.526 36.099L263.137 33.5487L265.154 32.4419L266.307 31.8164L271.158 40.5259Z" fill="white"/>
<g opacity="0.2">
<path d="M267.986 42.8352L263.327 46.2998L261.262 41.7285L267.986 42.8352Z" fill="white"/>
<path d="M267.556 35.4729L263.281 37.2052L263.137 33.5481L265.202 32.4414L267.556 35.4729Z" fill="white"/>
<path d="M260.062 39.081L255.402 40.284C255.402 38.5517 255.883 37.5893 255.883 37.5893L258.573 36.0977L260.062 39.081Z" fill="white"/>
<path d="M259.055 44.9043L258.286 48.3207C257.758 47.5508 257.326 46.7809 256.941 46.1073L259.055 44.9043Z" fill="white"/>
</g>
<path d="M282.1 118.526L288.086 118.996L290.423 89.111L284.437 88.6413L282.1 118.526Z" stroke="#263238" stroke-width="2.50173" stroke-miterlimit="10"/>
<path d="M283.645 160.147C283.789 160.147 284.413 160.195 284.605 160.243C285.662 160.339 286.479 161.254 286.382 162.312C286.286 163.371 285.374 164.141 284.269 164.093C284.125 164.093 283.5 164.044 283.308 163.996C282.252 163.9 281.435 162.986 281.531 161.927C281.627 160.82 282.54 160.051 283.645 160.147Z" fill="#263238"/>
<path opacity="0.1" d="M281.531 161.878C281.435 162.937 282.252 163.899 283.308 163.996C284.365 164.092 285.326 163.274 285.422 162.215C285.518 161.157 284.701 160.194 283.645 160.098C282.588 160.002 281.627 160.772 281.531 161.878Z" fill="white"/>
<path d="M278.41 159.713C278.554 159.713 279.179 159.761 279.371 159.809C280.428 159.906 281.244 160.82 281.148 161.878C281.052 162.937 280.139 163.707 279.035 163.659C278.891 163.659 278.266 163.611 278.074 163.563C277.017 163.466 276.201 162.552 276.297 161.493C276.393 160.435 277.305 159.665 278.41 159.713Z" fill="#263238"/>
<path opacity="0.2" d="M276.297 161.444C276.201 162.503 277.017 163.465 278.074 163.562C279.131 163.658 280.091 162.84 280.187 161.781C280.284 160.723 279.467 159.76 278.41 159.664C277.305 159.568 276.393 160.386 276.297 161.444Z" fill="white"/>
<path d="M277.497 160.29L284.942 160.868C285.662 160.916 286.287 160.386 286.335 159.665L289.889 114.433C289.937 113.711 289.409 113.086 288.689 113.037L281.243 112.46C280.523 112.412 279.898 112.941 279.85 113.663L276.296 158.895C276.248 159.616 276.776 160.242 277.497 160.29Z" fill="#263238"/>
<path opacity="0.2" d="M281.197 160.581L284.944 160.87C285.664 160.918 286.288 160.389 286.336 159.667L289.891 114.435C289.939 113.713 289.411 113.088 288.69 113.04L284.944 112.751C284.223 112.703 283.599 113.232 283.551 113.954L279.996 159.186C279.996 159.908 280.524 160.533 281.197 160.581Z" fill="white"/>
<path d="M284.267 89.5082L290.511 89.9894C291.04 90.0375 291.52 89.6525 291.568 89.1232L291.616 88.5458C291.664 88.0165 291.28 87.5353 290.752 87.4872L284.507 87.006C283.979 86.9579 283.499 87.3428 283.451 87.8721L283.402 88.4496C283.354 88.9789 283.739 89.4601 284.267 89.5082Z" fill="#263238"/>
<path opacity="0.2" d="M284.267 89.5082L290.511 89.9894C291.04 90.0375 291.52 89.6525 291.568 89.1232L291.616 88.5458C291.664 88.0165 291.28 87.5353 290.752 87.4872L284.507 87.006C283.979 86.9579 283.499 87.3428 283.451 87.8721L283.402 88.4496C283.354 88.9789 283.739 89.4601 284.267 89.5082Z" fill="white"/>
<path opacity="0.2" d="M284.272 89.5082L284.8 89.5563C285.329 89.6044 285.809 89.2195 285.809 88.6902L285.857 88.1127C285.905 87.5834 285.521 87.1022 284.993 87.0541L284.464 87.006C283.936 86.9579 283.455 87.3428 283.407 87.8721L283.359 88.4496C283.359 88.9789 283.744 89.4601 284.272 89.5082Z" fill="black"/>
<path d="M303.677 117.85L300.459 158.751C300.363 160.243 299.018 161.398 297.529 161.253L282.639 160.098C281.582 160.002 280.813 159.088 280.862 158.029L284.176 115.54C284.272 114.482 285.184 113.712 286.241 113.76L301.132 114.915C302.669 115.011 303.821 116.358 303.677 117.85Z" fill="#2893EB"/>
<path opacity="0.2" d="M303.677 117.85L300.459 158.751C300.363 160.243 299.018 161.398 297.529 161.253L282.639 160.098C281.582 160.002 280.813 159.088 280.862 158.029L284.176 115.54C284.272 114.482 285.184 113.712 286.241 113.76L301.132 114.915C302.669 115.011 303.821 116.358 303.677 117.85Z" fill="white"/>
<path opacity="0.2" d="M293.446 114.289V114.337L292.918 114.289C291.861 114.192 290.948 115.01 290.852 116.069L287.538 158.558C287.49 159.472 288.018 160.242 288.835 160.531L282.639 160.05C281.582 159.953 280.813 159.039 280.862 157.98L284.176 115.492C284.272 114.433 285.184 113.663 286.241 113.711L293.446 114.289Z" fill="black"/>
<path opacity="0.2" d="M289.986 158.511H289.746C289.458 158.511 289.266 158.222 289.266 157.933L292.532 116.262C292.532 115.974 292.82 115.781 293.108 115.781H293.348C293.637 115.781 293.829 116.07 293.829 116.359L290.563 158.03C290.514 158.318 290.274 158.559 289.986 158.511Z" fill="black"/>
<path opacity="0.2" d="M292.963 158.944H292.723C292.434 158.944 292.242 158.656 292.242 158.367L295.508 116.696C295.508 116.407 295.797 116.215 296.085 116.215H296.325C296.613 116.215 296.805 116.504 296.805 116.792L293.539 158.463C293.491 158.752 293.251 158.992 292.963 158.944Z" fill="black"/>
<path opacity="0.2" d="M295.943 159.136H295.703C295.415 159.136 295.223 158.847 295.223 158.558L298.489 116.887C298.489 116.599 298.777 116.406 299.065 116.406H299.305C299.594 116.406 299.786 116.695 299.786 116.984L296.52 158.655C296.472 158.943 296.231 159.136 295.943 159.136Z" fill="black"/>
<path opacity="0.2" d="M298.92 159.28H298.68C298.391 159.28 298.199 158.992 298.199 158.703L301.465 117.032C301.465 116.743 301.754 116.551 302.042 116.551H302.282C302.57 116.551 302.762 116.839 302.762 117.128L299.496 158.799C299.448 159.088 299.208 159.328 298.92 159.28Z" fill="black"/>
</g>
<defs>
<clipPath id="clip0_3049_60125">
<rect width="578" height="179" fill="white" transform="translate(0 -10)"/>
</clipPath>
</defs>
</svg>
