<svg width="63" height="63" viewBox="0 0 63 63" fill="none" xmlns="http://www.w3.org/2000/svg">
<g clip-path="url(#clip0_459_1293)">
<path d="M31.5782 62.179C48.6438 62.179 62.4782 48.3446 62.4782 31.279C62.4782 14.2134 48.6438 0.379028 31.5782 0.379028C14.5126 0.379028 0.678223 14.2134 0.678223 31.279C0.678223 48.3446 14.5126 62.179 31.5782 62.179Z" fill="#FFC200"/>
<path fill-rule="evenodd" clip-rule="evenodd" d="M53.2651 53.287C47.4338 59.0348 39.5592 62.2327 31.3714 62.1782C23.1837 62.1236 15.3524 58.821 9.59814 52.996C10.3341 50.9609 11.7634 49.2501 13.6351 48.164C14.8967 47.2313 16.2646 46.4518 17.7101 45.842C15.5121 38.289 21.4871 34.576 23.7731 33.507C23.7731 36.994 27.0381 34.68 31.0901 34.724C34.4261 34.761 41.0231 38.119 41.0231 33.689C44.6931 34.775 48.6931 41.769 45.9401 46.066C47.0689 46.6179 48.1353 47.2891 49.1211 48.068C51.0484 49.2944 52.5078 51.1318 53.2651 53.287Z" fill="#677079"/>
<path fill-rule="evenodd" clip-rule="evenodd" d="M24.7101 39.059L39.6301 39.149V42.586L39.6231 42.639C39.6127 42.7947 39.5893 42.9493 39.5531 43.101L39.5031 43.442L39.4731 43.513C38.5071 48.587 34.2801 50.548 31.6701 51.914C28.9201 50.416 25.0321 47.717 24.7231 42.942L24.7101 42.883V42.683C24.7079 42.614 24.7066 42.545 24.7061 42.476C24.7061 42.512 24.7091 42.546 24.7101 42.582V39.059Z" fill="#F9DCA4"/>
<path opacity="0.11" fill-rule="evenodd" clip-rule="evenodd" d="M39.6311 38.996V43.001C39.6281 43.3723 39.5964 43.7427 39.5361 44.109C39.4603 44.5624 39.3328 45.0057 39.1561 45.43C33.9721 49.345 25.7121 46.134 24.3931 39.447L39.6311 38.996Z" fill="black"/>
<path fill-rule="evenodd" clip-rule="evenodd" d="M18.7821 25.614C13.8421 26.884 18.0421 32.904 21.1491 32.878C19.8962 30.6333 19.0922 28.166 18.7821 25.614ZM44.5151 25.614C49.4551 26.884 45.2551 32.904 42.1471 32.877C43.4004 30.6327 44.2048 28.1658 44.5151 25.614Z" fill="#F9DCA4"/>
<path fill-rule="evenodd" clip-rule="evenodd" d="M31.4114 11.7401C51.9344 11.7401 43.9364 44.1861 31.4114 44.1861C19.5814 44.1861 10.8884 11.7401 31.4114 11.7401Z" fill="#FFE8BE"/>
<path fill-rule="evenodd" clip-rule="evenodd" d="M21.7253 22.4841C21.9004 22.676 22.0302 22.9047 22.1053 23.1534C22.1803 23.4021 22.1986 23.6644 22.1589 23.9212C22.1192 24.1779 22.0224 24.4224 21.8758 24.6368C21.7291 24.8512 21.5362 25.03 21.3113 25.1601C19.8613 26.3531 19.8083 30.5131 19.8083 30.5131C19.2483 29.9571 19.2613 26.9791 18.0473 25.2581C16.8333 23.5371 16.0153 11.4951 22.8043 7.11606C22.3871 7.60676 22.0864 8.18556 21.9249 8.80904C21.7633 9.43252 21.745 10.0845 21.8713 10.7161C21.8713 10.7161 26.5873 3.95306 34.4113 4.14806C33.791 4.48627 33.249 4.95138 32.8205 5.51308C32.3919 6.07478 32.0866 6.72046 31.9243 7.40806C31.9243 7.40806 38.7643 4.58606 44.4643 7.94306C42.9823 8.35266 41.5807 9.01102 40.3193 9.89006C43.0873 9.96606 45.7623 10.4801 47.7793 12.2741C47.3452 12.4134 46.9434 12.6384 46.5977 12.9356C46.2521 13.2329 45.9694 13.5964 45.7666 14.0047C45.5637 14.413 45.4448 14.8578 45.4167 15.3128C45.3887 15.7679 45.4521 16.2239 45.6033 16.6541C46.4593 20.1571 46.5393 23.4161 45.7103 25.1681C44.8813 26.9201 44.4903 25.7891 43.9713 29.4631C43.9459 29.7113 43.8631 29.9501 43.7294 30.1608C43.5958 30.3715 43.415 30.5483 43.2013 30.6771C43.1813 30.9431 43.5833 26.9211 42.5463 25.8501C41.5103 24.7801 42.1613 23.4651 42.5753 22.6871C45.4653 17.2601 36.8103 14.8011 32.0793 14.8071C27.9763 14.8121 18.0793 16.6771 21.7253 22.4841Z" fill="#8A5C42"/>
<path fill-rule="evenodd" clip-rule="evenodd" d="M20.4683 49.541C20.4983 49.579 30.8863 63.024 43.0983 49.341C41.6233 53.393 35.2613 56.611 31.6223 56.601C24.6723 56.581 20.8263 51.001 20.4683 49.541Z" fill="#434955"/>
<path fill-rule="evenodd" clip-rule="evenodd" d="M37.014 61.702C36.604 61.774 36.192 61.837 35.777 61.894V52.957C35.7922 52.8073 35.8654 52.6695 35.9809 52.5731C36.0964 52.4767 36.245 52.4293 36.395 52.441C36.5452 52.429 36.6941 52.4763 36.8098 52.5727C36.9255 52.6692 36.9988 52.8071 37.014 52.957V61.702ZM27.194 61.868C26.7794 61.8087 26.367 61.742 25.957 61.668V52.957C25.9722 52.8073 26.0454 52.6695 26.1609 52.5731C26.2764 52.4767 26.425 52.4293 26.575 52.441C26.7254 52.4287 26.8745 52.4759 26.9904 52.5724C27.1064 52.6688 27.1798 52.8069 27.195 52.957L27.194 61.868Z" fill="#E6E6E6"/>
</g>
<defs>
<clipPath id="clip0_459_1293">
<rect width="61.8" height="61.8" fill="white" transform="translate(0.678223 0.379028)"/>
</clipPath>
</defs>
</svg>
