<svg width="63" height="62" viewBox="0 0 63 62" fill="none" xmlns="http://www.w3.org/2000/svg">
<g clip-path="url(#clip0_459_1393)">
<path d="M31.3778 61.6161C48.3101 61.6161 62.0364 47.8898 62.0364 30.9575C62.0364 14.0252 48.3101 0.29892 31.3778 0.29892C14.4456 0.29892 0.719238 14.0252 0.719238 30.9575C0.719238 47.8898 14.4456 61.6161 31.3778 61.6161Z" fill="#D5E0E1"/>
<path d="M29.9296 17.5836C26.1636 18.0181 22.3735 18.4527 18.6076 18.9113C18.5352 22.2428 19.1146 25.5983 20.2974 28.7124C21.0699 30.7403 22.1804 32.7439 23.9427 34.0234C25.7774 35.3511 28.0949 35.7132 30.3158 36.0753C32.585 36.4374 35.0232 36.7513 37.051 35.7132C39.1996 34.6028 40.3342 32.2611 41.2274 30.016C42.2171 27.5295 43.0621 24.9224 43.1345 22.2669C43.1586 21.0116 42.9655 19.6356 42.0723 18.7665C41.3722 18.0664 40.3342 17.8009 39.3685 17.6078C37.9201 17.3422 36.4475 17.2215 34.9749 17.2215C33.261 17.1974 31.5953 17.3905 29.9296 17.5836Z" fill="#1B1613"/>
<path d="M23.0738 35.3753C22.9289 34.8442 22.2288 34.6269 21.6978 34.7959C21.4805 34.8683 21.2632 35.0132 21.0942 35.158L22.1806 36.196C22.3496 35.8098 22.6634 35.5201 23.0738 35.3753Z" fill="#2E4555"/>
<path d="M38.4512 35.3753C38.765 35.4718 39.0064 35.6891 39.1995 35.9305L39.7548 34.7717C39.2478 34.651 38.596 34.8683 38.4512 35.3753Z" fill="#546F7B"/>
<path d="M29.5915 49.4734C30.8226 50.0045 31.3537 49.4009 32.6815 49.5217C33.5747 49.6182 34.4679 49.6906 35.3128 49.4734C35.9887 49.3044 36.6164 48.9423 37.1958 48.556C39.634 46.8903 41.4445 44.3314 42.2412 41.4828C42.6757 39.8895 42.6516 37.8617 41.2514 36.9927C40.7686 36.703 40.1651 36.5823 39.6823 36.2926C38.7166 35.7132 38.258 34.5303 38.1373 33.3957C38.0166 32.2611 38.1614 31.1265 38.0166 30.016C33.1884 29.1228 28.0706 29.847 23.4839 28.0848C24.4495 31.5369 23.3632 35.4959 20.7319 37.9342C20.4422 38.1997 20.1284 38.4652 20.0076 38.8515C19.8628 39.286 20.0076 39.7447 20.1766 40.1551C20.925 42.0863 22.1079 43.8245 23.6287 45.2246C24.4978 46.0213 25.4876 46.6972 26.4532 47.3731C27.2016 47.8801 28.7707 49.1113 29.5915 49.4734Z" fill="#D3AA6F"/>
<path d="M31.3778 61.6161C42.1446 61.6161 51.6077 56.0638 57.0876 47.6628C57.0635 47.5904 57.0393 47.518 56.991 47.4214C56.5565 46.2868 56.0978 45.1281 55.2529 44.259C54.4321 43.4382 51.3904 42.0622 50.3524 41.5553C48.7108 40.7586 47.1417 39.8171 45.6691 38.7791C44.969 38.2721 44.2689 37.741 43.4481 37.4755C43.0619 37.3548 42.6274 37.2824 42.2653 37.0651C42.217 37.041 42.1687 37.0168 42.1446 36.9927C43.0136 39.1171 43.2792 41.5553 43.4964 43.8969C43.6413 45.3936 43.762 46.8662 43.9068 48.3629C43.3274 48.6526 42.6756 48.3146 42.1204 47.9767C41.0824 47.349 40.0443 46.7213 39.0063 46.0696C38.6683 45.8764 38.3062 45.6592 37.9199 45.7316C37.582 45.804 37.3164 46.0937 37.075 46.3592C36.0611 47.4456 34.7334 48.2422 33.3091 48.6285C32.7056 48.7974 32.0779 48.894 31.4985 49.063C31.3295 49.1113 31.1364 49.1837 30.9674 49.232C30.895 49.3285 30.8467 49.4251 30.7743 49.5217C30.7019 49.4251 30.6536 49.3285 30.5812 49.232C30.4122 49.1595 30.2191 49.1113 30.0501 49.063C29.4466 48.894 28.8431 48.7974 28.2395 48.6285C26.8153 48.2422 25.4875 47.4456 24.4736 46.3592C24.2322 46.0937 23.9667 45.804 23.6287 45.7316C23.2424 45.6592 22.8803 45.8764 22.5424 46.0696C21.5043 46.6972 20.4663 47.3249 19.4282 47.9767C18.8971 48.3146 18.2212 48.6526 17.6418 48.3629C17.7867 46.8662 17.9074 45.3695 18.0522 43.8969C18.2695 41.5794 18.535 39.1171 19.4041 36.9927C19.3558 37.0168 19.3317 37.041 19.2834 37.0651C18.9213 37.2582 18.4867 37.3306 18.1005 37.4755C17.2797 37.741 16.5796 38.2721 15.8796 38.7791C14.407 39.8171 12.8378 40.7586 11.1963 41.5553C10.1582 42.0622 7.1165 43.4382 6.29572 44.259C5.69221 44.8867 5.28182 45.635 4.94385 46.4558C10.2548 55.5327 20.1042 61.6161 31.3778 61.6161Z" fill="#36505F"/>
<path d="M22.1563 41.8208C21.8908 40.8552 21.7701 39.8413 21.7218 38.8515C21.6977 38.6101 21.6977 38.3687 21.7218 38.1273C21.6977 37.7652 21.7459 37.3789 21.8184 37.0168C21.8908 36.7271 21.9873 36.4616 22.1322 36.196L21.0459 35.158C20.8045 35.3753 20.5872 35.6167 20.3941 35.8822C20.0802 36.2926 19.7905 36.7271 19.356 36.9927C18.487 39.1171 18.2214 41.5553 18.0041 43.8969C17.8593 45.3936 17.7386 46.8662 17.5938 48.3629C18.1731 48.6526 18.8249 48.3146 19.3802 47.9767C20.4182 47.349 21.4562 46.7214 22.4943 46.0696C22.8323 45.8764 23.1944 45.6592 23.5806 45.7316C23.7013 45.7557 23.7979 45.804 23.8945 45.8523C23.7255 45.5385 23.5806 45.2246 23.4116 44.9108C22.9288 43.921 22.4702 42.9071 22.1563 41.8208Z" fill="#2E4555"/>
<path d="M43.4968 43.8969C43.2795 41.5794 43.0139 39.117 42.1449 36.9927C41.7104 36.703 41.4207 36.2926 41.1068 35.8822C40.7689 35.4235 40.3826 34.989 39.8515 34.7959C39.8274 34.7959 39.8032 34.7959 39.7791 34.7717L39.2239 35.9305C39.4653 36.2443 39.6343 36.6306 39.7067 37.0168V37.0651C39.9964 37.4272 40.1654 37.91 40.1895 38.3687C40.2378 39.2136 39.9239 40.0102 39.6101 40.7827C39.2721 41.6277 38.9342 42.4726 38.6204 43.3175L37.6064 45.8523C37.703 45.7799 37.8237 45.7316 37.9444 45.7074C38.3307 45.635 38.6928 45.8523 39.0307 46.0454C40.0688 46.6731 41.1068 47.3007 42.1449 47.9525C42.676 48.2905 43.3519 48.6284 43.9313 48.3388C43.7623 46.8662 43.6175 45.3695 43.4968 43.8969Z" fill="#546F7B"/>
<path d="M39.6101 40.8069C39.9239 40.0344 40.2378 39.2136 40.1895 38.3928C40.1654 37.9342 39.9964 37.4513 39.7067 37.0892C39.9481 38.248 39.7067 39.5033 39.0066 40.4689C38.5479 41.0966 37.9444 41.6035 37.365 42.1105C34.951 44.2107 32.8025 46.6248 30.9678 49.232C31.1368 49.1595 31.3299 49.1113 31.4989 49.063C32.1024 48.894 32.7059 48.7974 33.3094 48.6285C34.7337 48.2422 36.0614 47.4456 37.0754 46.3592C37.2443 46.1903 37.3892 45.9971 37.5823 45.8764L38.5962 43.3417L39.6101 40.8069Z" fill="#2E4555"/>
<path d="M31.9818 55.1223C31.8611 54.1808 31.6438 53.2876 31.4265 52.3703C31.2575 51.6702 31.0886 50.9942 30.9437 50.2942C30.823 49.8355 30.7264 49.3527 30.4368 48.9664C30.3643 48.8699 30.2678 48.7733 30.1712 48.6767C28.4331 46.2627 26.4053 44.0659 24.1602 42.1105C23.5808 41.6035 22.9532 41.0966 22.5186 40.4689C22.0358 39.793 21.7703 38.9481 21.7461 38.1273C21.722 38.3687 21.722 38.6101 21.7461 38.8515C21.7944 39.8413 21.9151 40.8552 22.1807 41.8208C22.4704 42.9071 22.9532 43.921 23.436 44.9349C23.5808 45.2488 23.7498 45.5626 23.9188 45.8764C24.1119 45.9971 24.2809 46.1903 24.4499 46.3592C25.0775 47.0352 25.8259 47.5904 26.6467 48.0249C26.6467 48.0491 26.6225 48.0732 26.6225 48.0974C26.6225 48.1939 26.7191 48.2664 26.7915 48.3388C27.9503 49.2078 28.8676 50.3424 29.785 51.4529C30.0022 51.6943 30.1954 51.9599 30.3643 52.2496C30.5816 52.6358 30.7023 53.0703 30.823 53.5049C31.2334 54.9292 31.6196 56.3535 32.03 57.7778C32.1266 56.8604 32.1025 55.9914 31.9818 55.1223Z" fill="#546F7B"/>
<path d="M21.8068 27.635C22.59 27.472 22.8304 25.4457 22.3439 23.1093C21.8574 20.7729 20.8281 19.0111 20.045 19.1742C19.2618 19.3373 19.0214 21.3635 19.5079 23.6999C19.9944 26.0363 21.0237 27.7981 21.8068 27.635Z" fill="#D3AA6F"/>
<path d="M42.2105 19.1586C41.4274 18.9956 40.3981 20.7574 39.9116 23.0938C39.4251 25.4302 39.6655 27.4564 40.4487 27.6195C41.2318 27.7826 42.2611 26.0207 42.7476 23.6843C43.2342 21.3479 42.9937 19.3217 42.2105 19.1586Z" fill="#D3AA6F"/>
<path d="M31.1368 37.7893C36.7764 37.7893 41.3483 30.656 41.3483 21.8565C41.3483 13.0571 36.7764 5.92371 31.1368 5.92371C25.4971 5.92371 20.9253 13.0571 20.9253 21.8565C20.9253 30.656 25.4971 37.7893 31.1368 37.7893Z" fill="#EEC98F"/>
<path d="M23.2909 5.07877C24.2806 4.42697 25.4394 4.01658 26.574 3.60619C27.95 3.12338 29.3743 2.61642 30.8469 2.61642C32.8505 2.61642 34.7335 3.55791 36.5199 4.49939C36.8579 4.66838 37.22 4.8615 37.4614 5.17533C37.7994 5.58572 37.8718 6.14096 37.8959 6.67205C37.9442 7.58939 37.9442 8.53088 37.6304 9.39994C36.9303 11.3795 34.9025 12.5865 32.8505 13.0935C30.8227 13.6004 28.6742 13.6004 26.6223 14.0349C25.8256 14.2039 25.029 14.4453 24.3289 14.8557C21.8183 16.3283 21.0216 19.708 21.601 22.5566C21.7217 23.1118 21.6493 23.9567 21.0699 23.9085C21.1906 23.1118 20.6112 22.2669 19.8146 22.0979C19.5249 22.0496 19.2352 22.0738 18.9938 21.9048C18.7283 21.7358 18.6317 21.3978 18.5593 21.1081C18.0041 18.7424 18.0282 16.2559 18.0523 13.8177C18.0523 12.9969 18.0765 12.152 18.3179 11.3553C18.5834 10.5587 19.0662 9.85861 19.5491 9.15853C20.6595 7.66182 21.7459 6.09267 23.2909 5.07877Z" fill="#1B1613"/>
<path d="M43.4002 16.7387C43.4968 14.5419 43.6175 12.2968 43.0864 10.1724C42.7967 8.96541 42.2898 7.80666 41.4448 6.88931C40.5999 5.97197 39.3929 5.36845 38.1617 5.44087C38.041 5.44087 37.8962 5.46502 37.7996 5.53744C37.6789 5.634 37.6065 5.77884 37.5582 5.92369C36.9788 7.54111 36.496 9.18267 36.1098 10.8484C36.0374 11.2105 35.9408 11.5726 35.9891 11.9347C36.0615 12.7796 36.6891 13.4797 37.3409 14.0108C37.9927 14.5419 38.7411 15.0247 39.1998 15.7489C39.586 16.3524 39.7309 17.0525 39.8516 17.7526C40.1413 19.3459 40.3344 20.9874 40.4068 22.6049C40.4309 23.0394 40.6482 23.6429 41.0586 23.5463C40.7931 22.9187 41.2034 22.2186 41.7104 21.7358C42.1932 21.2771 42.8209 20.8667 43.0864 20.2391C43.2313 19.9011 43.2554 19.5149 43.2795 19.1286C43.3037 18.332 43.352 17.5353 43.4002 16.7387Z" fill="#1B1613"/>
</g>
<defs>
<clipPath id="clip0_459_1393">
<rect width="61.8" height="61.8" fill="white" transform="translate(0.478027 0.0575256)"/>
</clipPath>
</defs>
</svg>
