<svg width="63" height="63" viewBox="0 0 63 63" fill="none" xmlns="http://www.w3.org/2000/svg">
<g clip-path="url(#clip0_459_1317)">
<path d="M31.1776 61.8269C48.1099 61.8269 61.8362 48.1006 61.8362 31.1683C61.8362 14.236 48.1099 0.509705 31.1776 0.509705C14.2454 0.509705 0.519043 14.236 0.519043 31.1683C0.519043 48.1006 14.2454 61.8269 31.1776 61.8269Z" fill="#E17D37"/>
<path d="M22.8736 35.586C22.7287 35.055 22.0287 34.8377 21.4976 35.0067C21.2803 35.0791 21.063 35.2239 20.894 35.3688L21.9804 36.4068C22.1494 36.0206 22.4632 35.7309 22.8736 35.586Z" fill="#627634"/>
<path d="M38.251 35.5861C38.5648 35.6826 38.8062 35.8999 38.9993 36.1413L39.5546 34.9826C39.0476 34.8619 38.3958 35.0791 38.251 35.5861Z" fill="#C5D67B"/>
<path d="M29.3913 49.6842C30.6225 50.2153 31.1535 49.6118 32.4813 49.7325C33.3745 49.829 34.2677 49.9015 35.1126 49.6842C35.7885 49.5152 36.4162 49.1531 36.9956 48.7668C39.4338 47.1011 41.2443 44.5422 42.041 41.6936C42.4755 40.1004 42.4514 38.0725 41.0512 37.2035C40.5684 36.9138 39.9649 36.7931 39.4821 36.5034C38.5164 35.924 38.0578 34.7411 37.9371 33.6065C37.8164 32.4719 37.9612 31.3373 37.8164 30.2268C32.9882 29.3336 27.8704 30.0579 23.2837 28.2956C24.2493 31.7477 23.163 35.7068 20.5317 38.145C20.242 38.4105 19.9282 38.6761 19.8075 39.0623C19.6626 39.4968 19.8075 39.9555 19.9764 40.3659C20.7248 42.2972 21.9077 44.0353 23.4285 45.4354C24.2976 46.2321 25.2874 46.908 26.253 47.584C27.0014 48.0909 28.5705 49.3221 29.3913 49.6842Z" fill="#D3AA6F"/>
<path d="M31.1776 61.8269C41.9444 61.8269 51.4075 56.2746 56.8874 47.8736C56.8633 47.8012 56.8391 47.7288 56.7908 47.6322C56.3563 46.4976 55.8976 45.3389 55.0527 44.4698C54.2319 43.649 51.1902 42.273 50.1522 41.7661C48.5106 40.9694 46.9415 40.0279 45.4689 38.9899C44.7688 38.4829 44.0687 37.9519 43.2479 37.6863C42.8617 37.5656 42.4272 37.4932 42.0651 37.2759C42.0168 37.2518 41.9685 37.2276 41.9444 37.2035C42.8134 39.3279 43.079 41.7661 43.2962 44.1077C43.4411 45.6044 43.5618 47.077 43.7066 48.5737C43.1272 48.8634 42.4754 48.5254 41.9202 48.1875C40.8822 47.5598 39.8441 46.9322 38.8061 46.2804C38.4681 46.0872 38.106 45.87 37.7197 45.9424C37.3818 46.0148 37.1162 46.3045 36.8748 46.5701C35.8609 47.6564 34.5332 48.453 33.1089 48.8393C32.5054 49.0083 31.8777 49.1048 31.2983 49.2738C31.1294 49.3221 30.9362 49.3945 30.7672 49.4428C30.6948 49.5393 30.6465 49.6359 30.5741 49.7325C30.5017 49.6359 30.4534 49.5393 30.381 49.4428C30.212 49.3704 30.0189 49.3221 29.8499 49.2738C29.2464 49.1048 28.6429 49.0083 28.0394 48.8393C26.6151 48.453 25.2873 47.6564 24.2734 46.5701C24.032 46.3045 23.7665 46.0148 23.4285 45.9424C23.0422 45.87 22.6801 46.0872 22.3422 46.2804C21.3041 46.908 20.2661 47.5357 19.228 48.1875C18.6969 48.5254 18.021 48.8634 17.4416 48.5737C17.5865 47.077 17.7072 45.5803 17.852 44.1077C18.0693 41.7902 18.3348 39.3279 19.2039 37.2035C19.1556 37.2276 19.1315 37.2518 19.0832 37.2759C18.7211 37.469 18.2865 37.5415 17.9003 37.6863C17.0795 37.9519 16.3794 38.4829 15.6794 38.9899C14.2068 40.0279 12.6376 40.9694 10.9961 41.7661C9.95803 42.273 6.91631 43.649 6.09553 44.4698C5.49201 45.0975 5.08162 45.8458 4.74365 46.6666C10.0546 55.7435 19.904 61.8269 31.1776 61.8269Z" fill="#97B53D"/>
<path d="M21.9561 42.0316C21.6906 41.066 21.5699 40.0521 21.5216 39.0623C21.4975 38.8209 21.4975 38.5795 21.5216 38.3381C21.4975 37.976 21.5457 37.5897 21.6182 37.2276C21.6906 36.9379 21.7871 36.6724 21.932 36.4068L20.8457 35.3688C20.6043 35.586 20.387 35.8274 20.1939 36.093C19.88 36.5034 19.5904 36.9379 19.1558 37.2035C18.2868 39.3278 18.0212 41.766 17.8039 44.1077C17.6591 45.6044 17.5384 47.077 17.3936 48.5737C17.9729 48.8634 18.6247 48.5254 19.18 48.1874C20.218 47.5598 21.2561 46.9321 22.2941 46.2803C22.6321 46.0872 22.9942 45.8699 23.3804 45.9424C23.5011 45.9665 23.5977 46.0148 23.6943 46.0631C23.5253 45.7492 23.3804 45.4354 23.2114 45.1216C22.7286 44.1318 22.27 43.1179 21.9561 42.0316Z" fill="#627634"/>
<path d="M23.96 42.3213C23.3806 41.8143 22.753 41.3074 22.3184 40.6797C21.8356 40.0038 21.5701 39.1589 21.5459 38.3381C21.5218 38.5795 21.5218 38.8209 21.5459 39.0623C21.5942 40.0521 21.7149 41.066 21.9805 42.0316C22.2702 43.1179 22.753 44.1318 23.2358 45.1457C23.3806 45.4596 23.5496 45.7734 23.7186 46.0872C23.9117 46.2079 24.0807 46.4011 24.2497 46.57C25.2636 47.6564 26.5913 48.453 28.0156 48.8393C28.6191 49.0082 29.2468 49.1048 29.8262 49.2738C29.9952 49.3221 30.1883 49.3945 30.3573 49.4428C28.5226 46.8356 26.3741 44.4215 23.96 42.3213ZM43.2966 44.1077C43.0794 41.7902 42.8138 39.3279 41.9448 37.2035C41.5102 36.9138 41.2205 36.5034 40.9067 36.093C40.5688 35.6343 40.1825 35.1998 39.6514 35.0067C39.6273 35.0067 39.6031 35.0067 39.579 34.9825L39.0238 36.1413C39.2652 36.4551 39.4341 36.8414 39.5066 37.2276V37.2759C39.7962 37.638 39.9652 38.1208 39.9894 38.5795C40.0377 39.4244 39.7238 40.2211 39.41 40.9936C39.072 41.8385 38.7341 42.6834 38.4202 43.5283L37.4063 46.0631C37.5029 45.9907 37.6236 45.9424 37.7443 45.9182C38.1305 45.8458 38.4927 46.0631 38.8306 46.2562C39.8687 46.8839 40.9067 47.5115 41.9448 48.1633C42.4759 48.5013 43.1518 48.8393 43.7312 48.5496C43.5622 47.077 43.4173 45.5803 43.2966 44.1077Z" fill="#C5D67B"/>
<path d="M39.4099 41.0177C39.7238 40.2452 40.0376 39.4244 39.9893 38.6036C39.9652 38.145 39.7962 37.6622 39.5065 37.3C39.7479 38.4588 39.5065 39.7141 38.8064 40.6797C38.3477 41.3074 37.7442 41.8143 37.1648 42.3213C34.7508 44.4215 32.6023 46.8356 30.7676 49.4428C30.9366 49.3704 31.1297 49.3221 31.2987 49.2738C31.9022 49.1048 32.5057 49.0083 33.1092 48.8393C34.5335 48.453 35.8613 47.6564 36.8752 46.5701C37.0441 46.4011 37.189 46.2079 37.3821 46.0872L38.396 43.5525L39.4099 41.0177Z" fill="#627634"/>
<path d="M28.2327 48.0909C27.7016 47.9461 27.1222 47.8012 26.6394 48.0426C26.5429 48.0909 26.4463 48.1633 26.4463 48.284C26.4463 48.3806 26.5429 48.453 26.6153 48.5254C27.774 49.3945 28.6914 50.5291 29.6087 51.6396C29.826 51.881 30.0191 52.1465 30.1881 52.4362C30.4054 52.8225 30.5261 53.257 30.6468 53.6915C31.0571 55.1158 31.4434 56.5401 31.8538 57.9644C31.9262 57.0954 31.9021 56.2263 31.7814 55.3572C31.6607 54.4158 31.4434 53.5226 31.2261 52.6052C31.0571 51.9051 30.8882 51.2292 30.7433 50.5291C30.6226 50.0704 30.5261 49.5876 30.2364 49.2014C29.7777 48.5496 28.9811 48.3082 28.2327 48.0909Z" fill="#C5D67B"/>
<path d="M21.6066 27.8458C22.3898 27.6827 22.6303 25.6565 22.1437 23.3201C21.6572 20.9837 20.6279 19.2219 19.8448 19.385C19.0616 19.548 18.8212 21.5743 19.3077 23.9107C19.7942 26.2471 20.8235 28.0089 21.6066 27.8458Z" fill="#D3AA6F"/>
<path d="M42.0103 19.3694C41.2272 19.2063 40.1979 20.9682 39.7114 23.3046C39.2249 25.641 39.4653 27.6672 40.2485 27.8303C41.0316 27.9933 42.0609 26.2315 42.5474 23.8951C43.034 21.5587 42.7935 19.5325 42.0103 19.3694Z" fill="#D3AA6F"/>
<path d="M30.9366 38.0001C36.5762 38.0001 41.1481 30.8667 41.1481 22.0673C41.1481 13.2678 36.5762 6.13446 30.9366 6.13446C25.2969 6.13446 20.7251 13.2678 20.7251 22.0673C20.7251 30.8667 25.2969 38.0001 30.9366 38.0001Z" fill="#EEC98F"/>
<path d="M43.1032 17.8909C42.8859 18.8324 42.4273 19.7015 41.9927 20.5706C41.5823 21.3913 41.1478 22.2121 40.7374 23.0088C40.4719 20.6913 40.2063 18.3979 39.9408 16.0804C39.8925 15.6459 39.8201 15.1872 39.4821 14.8975C38.8786 14.4147 37.9612 14.8251 37.2129 14.6078C36.8991 14.5113 36.6335 14.294 36.3438 14.1733C35.861 13.956 35.3058 14.0043 34.7747 14.0284L29.5603 14.3181C29.0775 14.3423 28.5705 14.3664 28.0877 14.1974C27.3876 13.956 26.6634 13.3042 26.0116 13.6663C25.6495 13.8836 25.5047 14.3423 25.1426 14.5354C24.877 14.6802 24.5391 14.6078 24.2494 14.6561C22.9699 14.7768 22.3905 16.2735 22.1009 17.5047C21.7629 18.929 21.4249 20.3292 21.0869 21.7534C19.9282 20.8602 19.7109 19.267 19.5661 17.8185C19.4695 16.9012 19.373 16.008 19.2764 15.0906C19.1074 13.4008 18.9384 11.6144 19.6626 10.0694C20.0248 9.29688 20.58 8.62095 21.1352 7.94501C21.9801 6.95524 22.9699 5.86892 24.2976 5.74821C23.9114 5.33782 24.5391 4.71017 25.1184 4.66188C25.6978 4.6136 26.3737 4.73431 26.76 4.32392C26.9048 4.17907 26.9773 3.96181 27.1221 3.8411C27.2669 3.69626 27.4842 3.64798 27.7015 3.5997C29.8983 3.09274 32.2399 3.16517 34.4126 3.74454C35.2816 3.98595 36.1507 4.32392 36.8025 4.90329C37.068 5.1447 37.3094 5.43438 37.575 5.65165C37.8888 5.89306 38.2509 6.0379 38.613 6.23103C39.4338 6.6897 40.1339 7.36563 40.6891 8.11399C41.8479 9.68313 42.4997 11.542 42.9101 13.4249C43.248 14.9217 43.4653 16.4425 43.1032 17.8909ZM36.5128 30.3958C36.3921 29.9613 36.2231 29.5267 35.9576 29.1646C35.4748 28.4887 34.6781 28.03 33.8332 27.9334C33.0124 27.8369 32.1433 28.0783 31.4674 28.5852C31.226 28.7784 30.9846 29.0922 31.1294 29.3577C31.2501 29.575 31.564 29.5992 31.8295 29.575C32.3123 29.5509 32.8193 29.5267 33.3021 29.5267C33.7125 29.5026 34.1712 29.5026 34.5333 29.7199C34.823 29.8888 34.9919 30.2027 35.1126 30.5165C35.4748 31.5063 35.1368 32.6167 34.7747 33.6065C34.5816 34.0893 34.3643 34.5963 33.9056 34.8135C33.4228 35.0549 32.7951 34.8618 32.433 34.4514C32.0709 34.041 31.9502 33.4616 32.0226 32.9064H29.85C29.9224 33.4375 29.8017 34.041 29.4396 34.4514C29.0775 34.8618 28.4498 35.0549 27.967 34.8135C27.5083 34.5963 27.2669 34.0652 27.098 33.6065C26.7117 32.6167 26.3979 31.5063 26.76 30.5165C26.8807 30.2027 27.0497 29.8888 27.3394 29.7199C27.7015 29.5026 28.1601 29.5026 28.5705 29.5267C29.0533 29.5509 29.5603 29.575 30.0431 29.575C30.3087 29.575 30.5983 29.575 30.7432 29.3577C30.888 29.0922 30.6466 28.7542 30.4052 28.5852C29.7293 28.0783 28.8602 27.8369 28.0394 27.9334C27.2187 28.03 26.422 28.4645 25.9151 29.1646C25.6495 29.5267 25.4805 29.9613 25.3598 30.3958C24.9253 32.0856 25.4081 33.8962 26.2289 35.417C26.7117 36.3102 27.3394 37.1793 28.1601 37.7587C28.9568 38.3381 29.9707 38.6277 30.9363 38.4346C31.9019 38.6277 32.9159 38.3381 33.7125 37.7587C34.5574 37.1552 35.1609 36.3102 35.6437 35.417C36.4645 33.872 36.9715 32.0856 36.5128 30.3958Z" fill="#1B1613"/>
</g>
<defs>
<clipPath id="clip0_459_1317">
<rect width="61.8" height="61.8" fill="white" transform="translate(0.277832 0.268311)"/>
</clipPath>
</defs>
</svg>
