<svg width="63" height="63" viewBox="0 0 63 63" fill="none" xmlns="http://www.w3.org/2000/svg">
<g clip-path="url(#clip0_459_1305)">
<path d="M31.578 61.8269C48.5103 61.8269 62.2366 48.1006 62.2366 31.1683C62.2366 14.236 48.5103 0.509705 31.578 0.509705C14.6458 0.509705 0.919434 14.236 0.919434 31.1683C0.919434 48.1006 14.6458 61.8269 31.578 61.8269Z" fill="#E65336"/>
<path d="M49.6595 45.2906C49.3698 45.9424 49.0801 46.6183 48.8145 47.2701C48.549 47.8736 48.2593 48.5013 47.7282 48.8634C47.2695 49.1531 46.7143 49.2255 46.1832 49.2496C43.8416 49.3462 41.4758 48.622 39.5687 47.2701C39.3031 47.077 39.0376 46.8597 38.7962 46.6183C38.4582 46.2562 38.1927 45.8458 37.9512 45.4113C36.5511 42.8041 36.1166 39.7865 36.0683 36.8172C35.9959 33.8479 36.2855 30.9028 36.189 27.9576C35.9717 21.9707 34.1612 16.0321 30.9746 10.9385C31.1677 10.1177 31.554 9.32104 32.2541 8.88651C32.6403 8.6451 33.099 8.50026 33.5577 8.42784C36.6235 7.92088 39.9549 11.3006 41.8137 13.7871C43.6726 16.2494 44.2761 18.8083 44.8072 21.8742C45.3383 24.9159 45.6038 26.9437 46.5453 29.8889C46.7384 30.4682 46.9316 31.0235 47.0523 31.6028C47.342 33.003 47.1247 34.4514 47.2695 35.8757C47.5109 38.3381 48.7904 40.5831 49.7077 42.8765C49.8526 43.2628 49.9974 43.649 49.9974 44.0594C49.9974 44.4939 49.8284 44.9043 49.6595 45.2906Z" fill="#10100F"/>
<path d="M23.0084 49.8049C24.143 50.4808 25.1811 51.4706 26.5088 51.5671C27.7882 51.6396 29.0436 50.6739 29.285 49.4186C27.9572 49.4428 26.6295 48.622 26.0743 47.3908C25.2052 45.532 27.5227 41.6453 27.1364 39.6417C26.8709 38.2415 25.2535 37.3242 24.6017 36.0447C22.8394 32.5443 22.1393 29.8406 22.1393 25.9057C22.1393 23.8537 22.1635 21.7776 22.8636 19.8705C23.9257 17.0219 26.3881 14.9217 28.9953 13.3284C29.7436 12.8697 30.5161 12.4352 31.0472 11.7351C31.5783 11.035 31.7956 10.0211 31.3128 9.29691C30.83 8.57269 29.8402 8.37956 28.947 8.33128C26.6054 8.1623 23.7809 9.41761 22.1876 10.866C19.2425 13.5457 17.4078 18.76 16.7801 22.7191C16.3214 25.616 16.1766 25.8574 15.9352 28.7784C15.6214 32.4478 15.4765 36.2378 13.9798 39.6175C12.7486 42.3937 10.6243 44.8078 9.94833 47.7771C9.7552 48.6461 9.85176 49.8049 10.6967 50.0946C11.5416 50.3601 12.3624 49.491 13.2556 49.5393C13.7867 49.5635 14.2454 49.9014 14.7765 49.9014C15.1868 49.9014 15.5731 49.6842 15.9352 49.491C18.132 48.4289 20.884 48.5496 23.0084 49.8049Z" fill="#10100F"/>
<path d="M52.7976 53.2811C52.1941 50.2877 51.3733 47.4874 50.3594 46.1838C47.6074 42.611 32.3022 40.9694 32.3022 40.9694L31.578 46.2079L30.8538 40.9694C30.8538 40.9694 15.5486 42.611 12.7966 46.1838C11.7827 47.4874 10.9861 50.2877 10.3584 53.2811C15.8625 58.5679 23.3461 61.8269 31.578 61.8269C39.81 61.8269 47.2936 58.5679 52.7976 53.2811Z" fill="#F0C949"/>
<path d="M31.5781 49.5634C25.1567 49.2013 21.9702 44.2525 23.998 42.3213C25.205 40.6073 26.1948 38.845 26.1948 36.8172H36.9374C36.9374 38.845 37.9271 40.6073 39.1342 42.3213C41.1861 44.2525 37.9995 49.1772 31.5781 49.5634Z" fill="#E1B57A"/>
<path d="M21.6714 30.5692C23.1344 30.3463 24.0535 28.4134 23.7243 26.2518C23.3951 24.0902 21.9422 22.5185 20.4791 22.7413C19.0161 22.9641 18.097 24.8971 18.4262 27.0587C18.7554 29.2203 20.2083 30.792 21.6714 30.5692Z" fill="#E1B57A"/>
<path d="M42.6604 22.7582C41.1973 22.5354 39.7444 24.1071 39.4152 26.2687C39.086 28.4303 40.0051 30.3633 41.4681 30.5861C42.9312 30.8089 44.3841 29.2372 44.7133 27.0756C45.0425 24.914 44.1234 22.9811 42.6604 22.7582Z" fill="#E1B57A"/>
<path d="M31.5783 41.2832C37.378 41.2832 42.0795 34.874 42.0795 26.9679C42.0795 19.0617 37.378 12.6525 31.5783 12.6525C25.7787 12.6525 21.0771 19.0617 21.0771 26.9679C21.0771 34.874 25.7787 41.2832 31.5783 41.2832Z" fill="#F5CD93"/>
<path d="M28.8743 11.542C30.0331 11.6386 31.385 12.3869 31.3608 13.5457C31.3608 13.8595 31.2401 14.1492 31.1435 14.4389C30.7332 15.5493 30.2745 16.7081 29.333 17.4082C28.5122 18.0358 27.4259 18.1807 26.4603 18.5186C23.1289 19.6774 20.8596 23.2985 21.27 26.7989C20.7872 25.7608 21.3907 24.4331 20.8838 23.395C20.7389 23.1054 20.5458 22.8639 20.401 22.5984C19.8699 21.5845 20.2561 20.3533 20.6424 19.2911C21.5839 16.7081 22.646 13.9561 24.9635 12.4835C26.1223 11.7593 27.5225 11.4213 28.8743 11.542Z" fill="#10100F"/>
<path d="M33.8232 11.542C32.6645 11.6386 31.3126 12.3869 31.3367 13.5457C31.3367 13.8595 31.4574 14.1492 31.554 14.4389C31.9644 15.5493 32.4231 16.7081 33.3646 17.4082C34.1853 18.0358 35.2717 18.1807 36.2373 18.5186C39.5446 19.6774 41.8138 23.2985 41.4034 26.7747C41.8862 25.7367 41.2827 24.4089 41.7896 23.3709C41.9345 23.0812 42.1276 22.8398 42.2724 22.5743C42.8035 21.5604 42.4173 20.3292 42.031 19.267C41.0896 16.6839 40.0274 13.9319 37.7099 12.4593C36.5753 11.7593 35.1751 11.4213 33.8232 11.542Z" fill="#10100F"/>
<path d="M30.3714 9.65898C29.961 9.75555 29.5265 9.85211 29.3092 10.2142C29.1643 10.4556 29.1402 10.7453 29.1402 11.035V11.8799C29.1402 12.0489 29.1402 12.1937 29.2126 12.3627C29.3575 12.749 29.7679 12.9662 30.13 13.1352C31.4577 13.7387 32.8579 14.1974 34.3063 14.3181C34.5236 13.7387 34.7167 13.087 34.5718 12.5076C34.4511 12.0489 34.1373 11.6868 33.7752 11.3971C33.4131 11.1074 32.9786 10.9143 32.5682 10.7212C32.0371 10.4798 31.5301 10.2384 30.999 9.99695C30.6611 9.85211 30.9266 9.94867 30.5645 9.85211C30.5162 9.85211 30.4921 9.80383 30.4921 9.75555C30.4921 9.73141 30.4679 9.70727 30.4679 9.68312C30.4197 9.63484 30.3714 9.63484 30.3714 9.65898ZM13.5695 43.5524C16.3698 40.8245 19.8219 38.7967 23.5396 37.638C24.4086 38.6277 24.8673 39.9796 24.7466 41.2832C24.6742 42.1764 24.3604 43.0455 24.3121 43.9387C24.2397 45.5078 25.1087 47.077 26.4606 47.8495C27.0158 48.1633 27.6676 48.3805 28.0539 48.8875C28.6091 49.5876 28.416 50.698 27.7883 51.3016C27.1607 51.9292 26.1709 52.0982 25.3018 51.9292C24.4328 51.7602 23.6603 51.2774 22.9602 50.698C22.574 50.3842 22.0429 49.998 21.5842 50.2152C21.2704 50.3601 21.1255 50.7222 21.0531 51.036C20.9324 51.543 20.8841 52.0499 20.9082 52.581C19.9185 52.8224 18.9287 53.088 17.9631 53.3294C17.6734 53.4018 17.3596 53.4742 17.0699 53.4742C16.1525 53.4742 15.3076 52.6293 15.3076 51.712C14.5351 51.374 13.6661 52.0258 12.8453 51.9534C12.2418 51.9051 11.7348 51.4705 11.3968 50.9636C10.6002 49.7807 10.6243 48.2116 11.1313 46.8838C11.6141 45.6285 12.5556 44.518 13.5695 43.5524ZM39.569 46.5459C39.8345 45.8216 39.9793 45.025 39.8586 44.2525C39.7138 43.2869 39.1586 42.442 38.8206 41.5487C38.4585 40.6555 38.3136 39.5451 38.893 38.7726C39.5207 37.9518 40.6794 37.8311 41.6933 37.8552C42.6348 37.8794 43.6004 37.9759 44.5419 38.1208C45.4593 38.2656 46.4007 38.507 47.1491 39.0381C48.332 39.9072 48.8148 41.4039 49.2252 42.8282C49.7322 44.6629 50.1184 46.8597 48.8872 48.3323C48.2113 49.1289 47.1732 49.5152 46.1593 49.829C45.1937 50.1187 44.1315 50.3842 43.1659 50.0704C42.9004 49.998 42.659 49.8773 42.3934 49.8773C42.0072 49.9014 41.6933 50.2152 41.4036 50.4566C40.3897 51.2774 38.9654 51.6154 37.7343 51.2291C36.479 50.8429 35.465 49.7807 35.1995 48.5012C36.2858 49.1289 37.7584 48.9358 38.6516 48.0909C39.062 47.6563 39.3517 47.1011 39.569 46.5459ZM39.1344 19.3152C40.1725 20.0395 40.8484 21.2223 41.1864 22.4294C41.5243 23.6364 41.5485 24.94 41.5002 26.2195C41.5002 26.4609 41.4761 26.7023 41.5485 26.9195C41.6209 27.1127 41.7657 27.2816 41.9347 27.4265C42.5382 27.9093 43.4314 27.861 44.0591 28.2955C44.7109 28.7301 44.9765 29.575 45.1454 30.3475C44.3971 28.03 45.411 25.3745 44.4695 23.1295C44.035 22.0673 43.2142 21.2223 42.2486 20.5947C41.3312 19.9912 40.2449 19.6049 39.1344 19.3152ZM19.1701 20.4257C19.7254 19.6773 20.3772 18.8566 21.3186 18.7841C21.3669 21.3189 21.4393 23.8537 21.1738 26.3643C21.1738 26.4367 21.1497 26.5333 21.1014 26.6057C21.029 26.6781 20.9324 26.7023 20.8358 26.7264C20.184 26.8713 19.5564 27.2092 19.0736 27.692C18.6149 28.1748 18.3011 28.8508 18.3252 29.5267C17.3113 27.8127 16.7561 25.7125 17.2872 23.8054C17.6493 22.5501 18.4218 21.4637 19.1701 20.4257Z" fill="#10100F"/>
</g>
<defs>
<clipPath id="clip0_459_1305">
<rect width="61.8" height="61.8" fill="white" transform="translate(0.678223 0.268311)"/>
</clipPath>
</defs>
</svg>
