<svg width="63" height="63" viewBox="0 0 63 63" fill="none" xmlns="http://www.w3.org/2000/svg">
<g clip-path="url(#clip0_459_1281)">
<path d="M31.3778 61.9376C48.3101 61.9376 62.0364 48.2113 62.0364 31.279C62.0364 14.3467 48.3101 0.620422 31.3778 0.620422C14.4456 0.620422 0.719238 14.3467 0.719238 31.279C0.719238 48.2113 14.4456 61.9376 31.3778 61.9376Z" fill="#1F84AB"/>
<path d="M52.5974 53.3919C51.9939 50.3984 51.1731 47.5981 50.1592 46.2945C47.4072 42.7217 32.102 41.0801 32.102 41.0801L31.3778 46.3187L30.6536 41.0801C30.6536 41.0801 15.3484 42.7217 12.5964 46.2945C11.5825 47.5981 10.7859 50.3984 10.1582 53.3919C15.6623 58.6787 23.1459 61.9376 31.3778 61.9376C39.6098 61.9376 47.0934 58.6787 52.5974 53.3919Z" fill="#E55336"/>
<path d="M31.3779 49.6742C24.9565 49.3121 21.77 44.3632 23.7978 42.432C25.0048 40.718 25.9946 38.9557 25.9946 36.9279H36.7372C36.7372 38.9557 37.7269 40.718 38.934 42.432C40.9859 44.3632 37.7993 49.2879 31.3779 49.6742Z" fill="#E1B57A"/>
<path d="M28.964 8.56272C30.2676 8.34545 31.6436 8.24889 32.8507 8.77998C34.9992 9.74561 35.7958 12.4976 35.4579 14.8151C34.2508 15.129 33.0197 14.5496 31.7643 14.4047C29.7365 14.1633 27.7087 15.0807 26.1637 16.4567C24.6429 17.8086 23.5083 19.5708 22.4219 21.309C21.577 22.6367 20.7079 24.0851 20.6838 25.6543C20.6838 26.8855 21.1908 28.0683 21.746 29.1788C23.2427 32.2447 25.005 35.214 26.9362 38.0384C24.4497 38.135 21.9391 38.135 19.4285 38.0626C18.3663 38.0384 17.2317 37.966 16.3868 37.2901C15.397 36.5176 15.1315 35.1898 14.9383 33.9587C14.7211 32.4378 14.5279 30.8687 14.6728 29.3478C14.8901 27.1027 15.7591 24.9542 16.6282 22.8781C17.4007 21.0434 18.149 19.2087 18.9215 17.374C19.8872 15.0565 20.9252 12.6425 22.8323 11.0251C24.5704 9.60076 26.7672 8.92483 28.964 8.56272Z" fill="#361F19"/>
<path d="M33.7923 8.56272C32.4887 8.34545 31.1127 8.24889 29.9056 8.77998C27.7571 9.74561 26.9605 12.4976 27.2984 14.8151C28.5055 15.129 29.7366 14.5496 30.992 14.4047C33.0198 14.1633 35.0476 15.0807 36.5926 16.4567C38.1134 17.8086 39.248 19.5708 40.3344 21.309C41.1793 22.6367 42.0484 24.0851 42.0725 25.6543C42.0725 26.8855 41.5655 28.0683 41.0103 29.1788C39.5136 32.2447 37.7513 35.214 35.8201 38.0384C38.3066 38.135 40.8172 38.135 43.3278 38.0626C44.39 38.0384 45.5246 37.966 46.3695 37.2901C47.3593 36.5176 47.6248 35.1898 47.818 33.9587C48.0352 32.4378 48.2284 30.8687 48.0835 29.3478C47.8662 27.1027 46.9972 24.9542 46.1281 22.8781C45.3556 21.0434 44.6073 19.2087 43.8348 17.374C42.8691 15.0565 41.8311 12.6425 39.924 11.0251C38.1859 9.60076 35.9891 8.92483 33.7923 8.56272Z" fill="#361F19"/>
<path d="M21.4712 30.6799C22.9342 30.457 23.8533 28.5241 23.5241 26.3625C23.1949 24.2009 21.742 22.6292 20.2789 22.852C18.8159 23.0749 17.8968 25.0078 18.226 27.1694C18.5552 29.331 20.0081 30.9027 21.4712 30.6799Z" fill="#E1B57A"/>
<path d="M42.4602 22.869C40.9971 22.6461 39.5442 24.2178 39.215 26.3794C38.8858 28.541 39.8049 30.474 41.2679 30.6968C42.731 30.9196 44.1839 29.348 44.5131 27.1864C44.8423 25.0248 43.9232 23.0918 42.4602 22.869Z" fill="#E1B57A"/>
<path d="M31.3782 41.394C37.4579 41.394 42.3864 34.9847 42.3864 27.0786C42.3864 19.1724 37.4579 12.7632 31.3782 12.7632C25.2986 12.7632 20.3701 19.1724 20.3701 27.0786C20.3701 34.9847 25.2986 41.394 31.3782 41.394Z" fill="#F5CD93"/>
<path d="M28.6741 11.6527C29.8329 11.7493 31.1848 12.4976 31.1606 13.6564C31.1606 13.9702 31.0399 14.2599 30.9434 14.5496C30.533 15.6601 30.0743 16.8188 29.1328 17.5189C28.312 18.1465 27.2257 18.2914 26.2601 18.6294C22.9287 19.7881 20.6594 23.4092 21.0698 26.9096C20.587 25.8715 21.1905 24.5438 20.6836 23.5058C20.5387 23.2161 20.3456 22.9747 20.2008 22.7091C19.6697 21.6952 20.0559 20.464 20.4422 19.4019C21.3837 16.8188 22.4459 14.0668 24.7634 12.5942C25.9221 11.87 27.3223 11.532 28.6741 11.6527Z" fill="#361F19"/>
<path d="M33.623 11.6527C32.4643 11.7493 31.1124 12.4976 31.1365 13.6564C31.1365 13.9702 31.2573 14.2599 31.3538 14.5496C31.7642 15.6601 32.2229 16.8188 33.1644 17.5189C33.9851 18.1465 35.0715 18.2914 36.0371 18.6293C39.3444 19.7881 41.6136 23.4092 41.2032 26.8854C41.686 25.8474 41.0825 24.5197 41.5894 23.4816C41.7343 23.1919 41.9274 22.9505 42.0723 22.685C42.6033 21.6711 42.2171 20.4399 41.8308 19.3777C40.8894 16.7947 39.8272 14.0426 37.5097 12.5701C36.3751 11.87 34.9749 11.532 33.623 11.6527Z" fill="#361F19"/>
<path d="M30.1711 9.7697C29.7607 9.86626 29.3262 9.96283 29.1089 10.3249C28.9641 10.5663 28.9399 10.856 28.9399 11.1457V11.9906C28.9399 12.1596 28.9399 12.3045 29.0124 12.4735C29.1572 12.8597 29.5676 13.077 29.9297 13.246C31.2574 13.8495 32.6576 14.3081 34.106 14.4288C34.3233 13.8495 34.5164 13.1977 34.3716 12.6183C34.2509 12.1596 33.9371 11.7975 33.5749 11.5078C33.2128 11.2181 32.7783 11.025 32.3679 10.8319C31.8368 10.5905 31.3299 10.3491 30.7988 10.1077C30.4608 9.96283 30.7263 10.0594 30.3642 9.96283C30.316 9.96283 30.2918 9.91455 30.2918 9.86626C30.2918 9.84212 30.2677 9.81798 30.2677 9.79384C30.2194 9.74556 30.1711 9.74556 30.1711 9.7697Z" fill="#361F19"/>
</g>
<defs>
<clipPath id="clip0_459_1281">
<rect width="61.8" height="61.8" fill="white" transform="translate(0.478027 0.379028)"/>
</clipPath>
</defs>
</svg>
