<svg width="63" height="63" viewBox="0 0 63 63" fill="none" xmlns="http://www.w3.org/2000/svg">
<path d="M52.4885 52.3918C57.7777 47.132 61.1202 39.9005 61.3046 31.8544C61.6837 15.3263 48.5922 1.62067 32.0646 1.24166C16.2249 0.878586 2.98621 12.889 1.57592 28.437C1.51142 29.1173 1.46987 29.7996 1.45135 30.4827C1.29782 37.1933 3.36474 43.4385 6.98052 48.5158C7.97007 49.9048 9.07582 51.2073 10.2859 52.4092L10.2801 52.4014L10.2762 52.3961C10.2639 52.3776 10.2507 52.3597 10.2366 52.3425C10.2342 52.3396 10.2318 52.3348 10.2289 52.3324C10.2289 52.3324 26.6629 59.7754 31.378 59.7754C36.0574 59.7754 52.4364 52.2571 52.5179 52.3507C52.5155 52.3478 52.5204 52.3536 52.5179 52.3507" fill="#93C0C1"/>
<path d="M30.692 60.6121C39.1683 60.8067 37.7667 45.6319 37.7667 45.6319C37.5844 45.5556 37.43 45.4251 37.3243 45.2582C37.2185 45.0913 37.1665 44.896 37.1752 44.6986L37.3838 39.982L37.2979 38.8228H25.4496L25.3637 39.982L25.5723 44.6986C25.581 44.896 25.529 45.0913 25.4232 45.2582C25.3175 45.4251 25.163 45.5556 24.9808 45.6319C24.9803 45.6319 22.7126 60.4296 30.692 60.6121Z" fill="#8F6C4F"/>
<path d="M32.8492 61.0583C33.1906 61.0419 33.5324 61.0279 33.8704 60.9999C34.1007 60.981 34.3276 60.9506 34.5565 60.926C34.8466 60.8951 35.1378 60.869 35.4251 60.8299C35.6761 60.7961 35.9238 60.7507 36.1734 60.7102C36.4341 60.6682 36.6958 60.6305 36.9541 60.5817C37.2182 60.532 37.478 60.4712 37.7397 60.4142C37.9786 60.3625 38.2186 60.3147 38.4557 60.2573C38.7289 60.1907 38.9983 60.1139 39.2687 60.04C39.4884 59.9802 39.7095 59.9241 39.9268 59.859C40.2073 59.7754 40.4835 59.6818 40.7606 59.59C40.9629 59.5234 41.1662 59.4602 41.3665 59.3892C41.6514 59.2883 41.9319 59.1777 42.2129 59.0681C42.3998 58.9952 42.5881 58.9262 42.773 58.8499C43.0602 58.7316 43.3422 58.6041 43.6247 58.4767C43.798 58.3989 43.9723 58.3236 44.1442 58.2425C44.4305 58.1053 44.7146 57.9635 44.9963 57.8171C45.1566 57.7351 45.3188 57.6549 45.4777 57.5699C45.763 57.4155 46.0458 57.2565 46.326 57.0929C46.4747 57.007 46.6249 56.923 46.7721 56.8341C47.055 56.6642 47.3327 56.4865 47.6093 56.3074C47.7484 56.2171 47.8889 56.1288 48.0265 56.0365C48.303 55.8495 48.5765 55.658 48.8468 55.462C48.9771 55.3678 49.1089 55.2751 49.2378 55.1791C49.5082 54.9777 49.7733 54.7696 50.0364 54.5591C50.1595 54.4606 50.2836 54.3631 50.4053 54.2632C50.6655 54.0473 50.9222 53.8273 51.1754 53.6032C51.2932 53.4994 51.4115 53.3956 51.5273 53.2898C51.7765 53.0629 52.0198 52.8307 52.2612 52.5955C52.3462 52.513 52.4307 52.4299 52.5147 52.3464L52.5103 52.3421C52.5127 52.3392 52.5152 52.3343 52.5181 52.3319C51.2145 50.8492 49.4575 50.4306 49.0896 50.3567L49.0104 50.3447L49.0008 50.3432L48.9819 50.3398L48.9153 50.3084L41.5457 47.2146L38.0231 45.7396C36.1314 47.6897 30.4357 50.3765 24.7303 45.7372L13.7304 50.3437L13.6753 50.3538C13.6415 50.3606 13.5966 50.3693 13.5324 50.3847L13.4861 50.3963C13.4547 50.404 13.4243 50.4113 13.388 50.4209L13.3335 50.4364C13.2929 50.4473 13.2525 50.4587 13.2123 50.4707L13.1244 50.4982C13.0853 50.5103 13.0481 50.5214 13.0066 50.5354C12.9772 50.545 12.9443 50.5576 12.9134 50.5682C12.8685 50.5841 12.8246 50.5986 12.7768 50.6165C12.7367 50.6315 12.6933 50.6493 12.6513 50.6662C12.6093 50.6826 12.5692 50.6976 12.5257 50.7159C12.4808 50.7348 12.4335 50.7565 12.3872 50.7773C12.3442 50.7966 12.3022 50.814 12.2578 50.8347C12.2124 50.856 12.1651 50.8806 12.1187 50.9038C12.0714 50.9274 12.0246 50.9491 11.9763 50.9747C11.9328 50.9974 11.8879 51.024 11.8435 51.0486C11.7909 51.0781 11.7388 51.1056 11.6852 51.137C11.6407 51.163 11.5958 51.193 11.5514 51.221C11.4973 51.2548 11.4433 51.2871 11.3892 51.3233C11.3443 51.3533 11.2989 51.3875 11.254 51.4194C11.1999 51.4575 11.1454 51.4942 11.0913 51.5353C11.0459 51.5696 11.001 51.6082 10.9556 51.6444C10.902 51.6874 10.8484 51.7284 10.7953 51.7743C10.7504 51.8129 10.707 51.8559 10.6626 51.8964C10.6099 51.9447 10.5568 51.9911 10.5047 52.0422C10.4617 52.0847 10.4202 52.132 10.3777 52.1765C10.328 52.2291 10.2773 52.2793 10.229 52.3348C10.2314 52.3372 10.2338 52.3421 10.2362 52.345L10.2285 52.3532L10.2391 52.3633C10.5033 52.6249 10.7723 52.8817 11.0459 53.1334C11.1116 53.1942 11.1743 53.258 11.2405 53.3178C11.5216 53.5717 11.8075 53.8202 12.098 54.0633C12.1631 54.1183 12.2259 54.1763 12.2916 54.2308C12.5827 54.4722 12.8811 54.7045 13.1809 54.9348C13.25 54.9874 13.3161 55.0434 13.3856 55.0955C13.6912 55.3258 14.0041 55.547 14.3189 55.7662C14.3865 55.813 14.4512 55.8627 14.5188 55.9091C14.8336 56.1239 15.1551 56.3296 15.4786 56.5329C15.5506 56.5783 15.6206 56.6265 15.693 56.6714C16.0136 56.8689 16.3409 57.0572 16.6697 57.2431C16.7484 57.2875 16.8252 57.3358 16.9044 57.3797C17.2293 57.5593 17.5605 57.7293 17.8927 57.8973C17.9796 57.9412 18.0641 57.989 18.1515 58.032C18.4779 58.1911 18.8072 58.3442 19.1393 58.4912C19.2378 58.5351 19.3334 58.5839 19.4324 58.6268C19.7563 58.7678 20.0861 58.8982 20.4159 59.028C20.5264 59.0715 20.6346 59.1198 20.7456 59.1618C21.0672 59.2839 21.394 59.395 21.7209 59.506C21.844 59.548 21.9652 59.5953 22.0893 59.6354C22.4108 59.7402 22.7372 59.8334 23.0636 59.9275C23.1969 59.9661 23.3277 60.0096 23.4614 60.0463C23.7806 60.1337 24.1041 60.209 24.4275 60.2858C24.5724 60.32 24.7153 60.3606 24.8611 60.393C25.174 60.4625 25.4917 60.5199 25.8084 60.5793C25.9682 60.6093 26.1256 60.6455 26.2859 60.673C26.6045 60.7275 26.9276 60.7695 27.2496 60.8144C27.4113 60.8367 27.5707 60.8651 27.7334 60.8849C28.0849 60.9274 28.4402 60.9574 28.7956 60.9878C28.9317 60.9994 29.0664 61.0172 29.203 61.0269C30.2313 61.101 31.2626 61.1228 32.293 61.0921C32.4794 61.0834 32.6634 61.0674 32.8492 61.0583Z" fill="#F8F7F7"/>
<path d="M32.8666 51.6092L33.726 47.7172C32.9801 47.7887 32.2279 47.2861 31.4684 47.289C31.4385 47.289 31.4081 47.2938 31.3781 47.2952C31.3482 47.2938 31.3178 47.289 31.2878 47.289C30.5284 47.2861 29.7761 47.7887 29.0302 47.7172L29.8896 51.6092L28.5063 60.9627C29.2277 61.0317 29.9562 61.0781 30.692 61.095C31.8793 61.1196 33.067 61.0743 34.2489 60.9593L32.8666 51.6092Z" fill="#7B4A4A"/>
<path opacity="0.05" d="M31.4685 47.289C31.4385 47.289 31.4081 47.2938 31.3782 47.2952C31.3483 47.2938 31.3178 47.289 31.2879 47.289C30.5284 47.2861 29.7762 47.7887 29.0303 47.7172L29.8897 51.6092C29.8897 51.6092 30.345 51.1944 31.3782 51.1447C32.4114 51.1944 32.8667 51.6096 32.8667 51.6096L33.7261 47.7177C32.9802 47.7887 32.2279 47.2865 31.4685 47.289Z" fill="#010202"/>
<path opacity="0.1" d="M25.4952 42.9673C25.3277 42.9673 25.2828 43.102 25.2519 43.2164L24.73 45.7372C25.6193 48.4525 28.5176 51.6743 29.2467 52.456C29.322 52.5366 29.4572 52.5033 29.4915 52.3985C30.6193 48.9353 30.5957 47.7051 31.3778 47.2894C31.3778 47.2889 25.5541 44.4008 25.4952 42.9673Z" fill="#010202"/>
<path d="M25.4952 42.9673C25.3277 42.9673 25.2828 43.102 25.2519 43.2164L24.73 45.7372C26.0872 48.7103 28.5104 51.0621 29.1617 51.6618C29.239 51.7327 29.365 51.6951 29.3978 51.5956C30.5353 48.1498 30.5947 47.7061 31.3778 47.2894C31.3778 47.2889 25.5541 44.4008 25.4952 42.9673Z" fill="#EDEDED"/>
<path opacity="0.1" d="M37.2512 42.9673C37.4188 42.9673 37.4637 43.102 37.4946 43.2164L38.0165 45.7372C37.1276 48.452 34.2366 51.6734 33.509 52.456C33.4336 52.5371 33.2985 52.5038 33.2642 52.3985C32.1363 48.9358 32.1508 47.7056 31.3687 47.2899C31.3687 47.2889 37.1928 44.4008 37.2512 42.9673Z" fill="#010202"/>
<path d="M37.2512 42.9673C37.4188 42.9673 37.4637 43.102 37.4946 43.2164L38.0165 45.7372C36.6593 48.7103 34.2361 51.0621 33.5848 51.6618C33.5075 51.7327 33.3815 51.6951 33.3487 51.5956C32.2112 48.1498 32.1518 47.7061 31.3687 47.2894C31.3687 47.2889 37.1928 44.4008 37.2512 42.9673Z" fill="#EDEDED"/>
<path d="M43.774 23.9425C43.6598 23.9093 43.5418 23.8912 43.423 23.8889L43.6755 22.7881C43.676 11.2199 33.9236 10.4073 33.4437 10.4073H29.3128C28.8328 10.4073 19.0805 11.2199 19.081 22.7881L19.3335 23.8889C19.2147 23.8933 19.0969 23.9073 18.9825 23.9425C17.7446 24.323 17.3158 26.6699 17.9927 28.8701C18.6238 30.9235 19.9945 32.1218 21.1808 31.964L21.8794 37.2107C21.9001 37.3666 21.9277 37.5235 21.9745 37.6737C22.565 39.5663 24.4354 40.6411 25.2137 41.4271C28.589 44.8386 29.4446 44.2042 30.5077 44.2042H32.2487C33.3119 44.2042 34.1674 44.8386 37.5433 41.4271C38.3211 40.6411 40.192 39.5658 40.7825 37.6737C40.8293 37.5235 40.8568 37.3666 40.8776 37.2107L41.5762 31.964C42.762 32.1218 44.1327 30.9235 44.7642 28.8701C45.4406 26.6699 45.0119 24.323 43.774 23.9425Z" fill="#8F6C4F"/>
<path d="M22.3622 28.7706C22.4766 28.7354 22.5939 28.7214 22.7132 28.717L22.4607 27.6162C22.4602 16.048 32.2125 15.2355 32.6924 15.2355H36.8234C37.0875 15.2355 40.1606 15.4861 42.8706 17.637C40.5295 10.9655 33.8391 10.4073 33.4437 10.4073H29.3128C28.8328 10.4073 19.0805 11.2199 19.081 22.7881L19.3335 23.8889C19.2147 23.8933 19.0969 23.9073 18.9825 23.9425C17.7446 24.323 17.3158 26.6699 17.9927 28.8701C18.6035 30.8569 19.9061 32.0393 21.0644 31.9707C20.9789 30.4006 21.4497 29.0512 22.3622 28.7706Z" fill="#8F6C4F"/>
<path opacity="0.1" d="M38.0167 45.7367L37.4948 43.2159C37.4644 43.102 37.4195 42.9668 37.2514 42.9668L37.3094 41.6564C34.1325 44.7976 33.2861 44.2043 32.2485 44.2043H30.5075C29.469 44.2043 28.6221 44.7991 25.437 41.6473L25.4911 42.8741C26.1931 44.5374 27.867 45.5218 28.5922 46.2552C31.968 49.6668 32.8236 49.0324 33.8867 49.0324H35.6282C36.6363 49.0324 37.4624 49.5968 40.4245 46.7448L38.0167 45.7367Z" fill="#010202"/>
<path d="M38.0574 9.19698C35.9137 8.08892 31.9793 7.91511 31.3941 7.89483C31.3835 7.89435 31.3728 7.89435 31.3622 7.89483C30.7771 7.91511 26.8426 8.08892 24.6989 9.19698C21.8899 10.6488 17.6339 14.828 19.2176 23.9339L19.4947 23.8735L20.2735 27.3377C20.3018 27.4655 20.3765 27.5783 20.4831 27.6543C20.5897 27.7302 20.7207 27.764 20.8508 27.749C20.9809 27.7339 21.1007 27.6713 21.1873 27.573C21.2738 27.4747 21.3208 27.3479 21.3192 27.217L21.2729 21.8611C21.2721 21.8142 21.2655 21.7674 21.2531 21.7221C21.1242 21.2446 20.5086 18.2835 24.2716 15.9597C25.7621 15.0395 28.5165 14.4413 31.3786 14.4384C34.2403 14.4413 36.9952 15.04 38.4856 15.9597C42.2487 18.283 41.6331 21.2446 41.5042 21.7221C41.4916 21.7674 41.4849 21.8141 41.4844 21.8611L41.4376 27.2175C41.4381 27.3471 41.4862 27.4721 41.5727 27.5687C41.6592 27.6653 41.7781 27.7269 41.9069 27.7418C42.0357 27.7566 42.1655 27.7238 42.2717 27.6494C42.378 27.575 42.4532 27.4643 42.4833 27.3382L43.2621 23.874L43.5392 23.9343C45.1224 14.828 40.8664 10.6488 38.0574 9.19698Z" fill="#342F29"/>
<path d="M23.3053 15.9597C19.1999 18.4945 20.306 21.7882 20.306 21.7882L20.3582 27.7138L20.3664 27.7509H21.3238L21.2717 21.7882C21.2717 21.7882 20.1655 18.4945 24.2709 15.9597C25.6773 15.0916 28.2092 14.5103 30.8951 14.4446C30.7342 14.4404 30.5732 14.4382 30.4123 14.4379C27.5506 14.4412 24.7957 15.0399 23.3053 15.9597Z" fill="#342F29"/>
<path opacity="0.2" d="M38.0571 9.19698C35.8926 8.0783 31.9026 7.91173 31.3778 7.89435C31.2962 7.89725 31.1239 7.904 30.895 7.91704C32.1397 7.98705 35.263 8.25211 37.0914 9.19698C39.9004 10.6488 44.1564 14.828 42.5728 23.9339L41.9094 27.751H41.4319H42.3893L43.2613 23.8735L43.5384 23.9339C45.1221 14.828 40.8661 10.6488 38.0571 9.19698Z" fill="#010202"/>
<path opacity="0.1" d="M20.1832 23.9338C18.5996 14.828 22.8556 10.6487 25.6646 9.19693C27.493 8.25207 30.6163 7.987 31.861 7.917L31.7475 7.91072C31.4961 7.8976 31.2442 7.89776 30.9929 7.9112C29.8158 7.97348 26.5732 8.22841 24.6994 9.19693C21.8899 10.6487 17.6339 14.828 19.2176 23.9338L19.4947 23.8735L20.3667 27.7509H20.8669L20.1832 23.9338Z" fill="#FAFAFA"/>
</svg>
