<svg width="65" height="65" viewBox="0 0 65 65" fill="none" xmlns="http://www.w3.org/2000/svg">
<g clip-path="url(#clip0_459_1254)">
<path fill-rule="evenodd" clip-rule="evenodd" d="M32.478 64.2791C50.151 64.2791 64.478 49.9521 64.478 32.2791C64.478 14.6061 50.151 0.279053 32.478 0.279053C14.805 0.279053 0.478027 14.6061 0.478027 32.2791C0.478027 49.9521 14.805 64.2791 32.478 64.2791Z" fill="#66BB6A"/>
<path fill-rule="evenodd" clip-rule="evenodd" d="M54.3848 55.605C48.4576 61.1871 40.6197 64.2905 32.4778 64.279C24.4335 64.2902 16.6823 61.2604 10.7778 55.797C10.8278 55.644 10.8818 55.49 10.9358 55.335C11.9778 52.364 12.2238 50.178 17.6688 48.046C23.1138 45.914 40.1908 45.864 46.4528 47.807C52.7128 49.751 53.3628 52.795 54.2428 55.197C54.2918 55.329 54.3388 55.466 54.3848 55.605Z" fill="#E91E63"/>
<path fill-rule="evenodd" clip-rule="evenodd" d="M23.1332 32.326C23.1332 32.326 14.3182 37.406 18.7402 45.948C23.1632 54.49 24.4732 55.815 21.6622 60.713C28.3952 58.259 28.2642 50.732 28.2642 50.732L28.2512 39.46L23.1332 32.326Z" fill="#3E2723"/>
<path fill-rule="evenodd" clip-rule="evenodd" d="M21.1032 23.488C22.4332 17.442 27.0222 12.985 32.4782 12.985C37.9512 12.985 42.5522 17.47 43.8662 23.545C44.0262 23.471 44.2112 23.442 44.4232 23.461C45.6992 23.578 45.6832 25.263 45.5012 27.334C45.3222 29.378 44.5642 30.987 43.7972 30.964C42.7872 35.241 40.1372 38.692 36.7132 40.278V47.339C36.7132 47.8951 36.6036 48.4458 36.3908 48.9596C36.178 49.4733 35.866 49.9401 35.4727 50.3333C35.0795 50.7265 34.6126 51.0383 34.0988 51.251C33.585 51.4638 33.0343 51.5732 32.4782 51.573C31.922 51.5733 31.3713 51.464 30.8574 51.2513C30.3436 51.0386 29.8767 50.7268 29.4834 50.3336C29.0901 49.9404 28.7781 49.4735 28.5653 48.9597C28.3525 48.4459 28.2431 47.8952 28.2432 47.339V40.279C24.8132 38.69 22.1602 35.229 21.1532 30.94C20.4512 30.732 19.7952 29.218 19.6302 27.335C19.4492 25.264 19.4322 23.579 20.7082 23.462C20.8522 23.449 20.9832 23.457 21.1032 23.488Z" fill="#FFCC80"/>
<path fill-rule="evenodd" clip-rule="evenodd" d="M33.4619 25.222C33.4493 25.2209 33.4366 25.2202 33.4239 25.22H31.5329C31.5199 25.22 31.5069 25.22 31.4939 25.222C31.2019 23.625 29.4359 22.397 27.3019 22.397C24.9619 22.397 23.0659 23.872 23.0659 25.691C23.0659 27.511 24.9619 28.985 27.3019 28.985C29.4359 28.985 31.2019 27.757 31.4939 26.16C31.5069 26.1609 31.5199 26.1612 31.5329 26.161H33.4229L33.4619 26.16C33.7539 27.757 35.5199 28.985 37.6539 28.985C39.9939 28.985 41.8899 27.51 41.8899 25.691C41.8899 23.871 39.9939 22.397 37.6539 22.397C35.5199 22.397 33.7539 23.625 33.4619 25.222Z" fill="#3E2723"/>
<path fill-rule="evenodd" clip-rule="evenodd" d="M27.3008 28.0441C29.1208 28.0441 30.5958 26.9901 30.5958 25.6911C30.5958 24.3911 29.1208 23.3381 27.3018 23.3381C25.4818 23.3381 24.0068 24.3911 24.0068 25.6911C24.0068 26.9911 25.4818 28.0441 27.3008 28.0441ZM37.6538 28.0441C39.4738 28.0441 40.9488 26.9901 40.9488 25.6911C40.9488 24.3911 39.4738 23.3381 37.6538 23.3381C35.8348 23.3381 34.3598 24.3911 34.3598 25.6911C34.3598 26.9911 35.8348 28.0441 37.6538 28.0441Z" fill="#FFCC80"/>
<path fill-rule="evenodd" clip-rule="evenodd" d="M20.222 23.589C20.222 23.589 18.883 9.05904 32.318 9.35404C45.753 9.64704 44.619 23.536 44.619 23.536C44.619 23.536 42.957 23.024 42.753 26.196C42.263 25.876 41.518 25.131 41.542 24.547C41.068 24.607 30.887 25.167 30.537 18.884C30.137 20.62 31.007 22.592 23.491 24.524C23.4241 24.8577 23.2846 25.1726 23.0824 25.4463C22.8803 25.7201 22.6203 25.946 22.321 26.108C22.233 22.953 20.221 23.591 20.221 23.591L20.222 23.589Z" fill="#3E2723"/>
</g>
<defs>
<clipPath id="clip0_459_1254">
<rect width="64" height="64" fill="white" transform="translate(0.478027 0.279053)"/>
</clipPath>
</defs>
</svg>
