<svg width="63" height="62" viewBox="0 0 63 62" fill="none" xmlns="http://www.w3.org/2000/svg">
<g clip-path="url(#clip0_460_1502)">
<path fill-rule="evenodd" clip-rule="evenodd" d="M31.5782 61.837C14.5126 61.837 0.678223 48.0026 0.678223 30.937C0.678223 13.8714 14.5126 0.0370331 31.5782 0.0370331C48.6438 0.0370331 62.4782 13.8714 62.4782 30.937C62.4782 48.0026 48.6438 61.837 31.5782 61.837Z" fill="#77C19C"/>
<path fill-rule="evenodd" clip-rule="evenodd" d="M44.0494 38.9492C44.0494 40.5284 43.4139 42.0058 42.3087 43.2679C42.1571 41.8294 41.6606 40.9291 40.819 40.5672C41.3205 43.0309 40.4434 44.9092 40.1243 45.112C37.937 46.5025 34.5255 47.3527 31.307 47.3527C28.0886 47.3527 25.1598 46.5025 22.9725 45.112C22.6534 44.9092 21.7763 43.0309 22.2778 40.5672C21.4362 40.9291 20.9397 41.8294 20.7881 43.2679C19.6829 42.0058 19.0475 40.5284 19.0475 38.9492C19.0475 37.1106 19.9088 33.9028 21.37 30.6991C19.6904 29.1025 18.664 27.0174 18.557 24.5596C18.0539 12.9958 30.7092 6.15311 37.5507 14.0704C42.8506 12.7439 45.0377 19.9814 44.5474 24.5596C44.3094 26.7809 43.6004 28.9494 41.7121 30.6668C43.1822 33.8813 44.0494 37.1045 44.0494 38.9492Z" fill="#F47556"/>
<path fill-rule="evenodd" clip-rule="evenodd" d="M46.5456 57.8836C42.0507 60.401 36.8624 61.837 31.337 61.837C25.8116 61.837 20.6233 60.401 16.1284 57.8836L16.5485 52.6589C16.6915 50.8791 17.8052 49.3236 19.4439 48.6146L26.4851 45.5683C27.3686 45.1861 27.9406 44.3154 27.9406 43.3527V38.1792H34.7334V43.3527C34.7334 44.3154 35.3054 45.1861 36.1889 45.5683L43.2301 48.6146C44.8688 49.3236 45.9825 50.8791 46.1256 52.6589L46.5456 57.8836Z" fill="#E1B57A"/>
<path fill-rule="evenodd" clip-rule="evenodd" d="M22.5488 60.4408C22.4017 55.5085 21.2102 51.0903 19.5068 48.7265C19.6239 48.6639 19.7441 48.6058 19.8672 48.5524L22.6372 47.3527C24.3176 49.7732 27.3784 52.1749 31.8194 54.5579C36.2605 52.1749 39.3212 49.7732 41.0017 47.3527L43.7716 48.5524C43.8948 48.6058 44.015 48.6639 44.132 48.7265C42.4287 51.0903 41.2372 55.5085 41.0901 60.4408C38.1615 61.3482 35.0478 61.837 31.8194 61.837C28.5911 61.837 25.4774 61.3482 22.5488 60.4408Z" fill="#324B50"/>
<path fill-rule="evenodd" clip-rule="evenodd" d="M42.4414 34.3167C43.6413 34.3167 45.0969 32.0061 45.0969 30.2128C45.0969 28.4195 44.415 27.5573 43.407 27.5573C42.3991 27.5573 41.2344 28.9624 41.2344 30.6956C41.2344 32.4289 41.2415 34.3167 42.4414 34.3167Z" fill="#E1B57A"/>
<path fill-rule="evenodd" clip-rule="evenodd" d="M20.7148 34.3167C19.5149 34.3167 18.0594 32.0061 18.0594 30.2128C18.0594 28.4195 18.7413 27.5573 19.7492 27.5573C20.7572 27.5573 21.9219 28.9624 21.9219 30.6956C21.9219 32.4289 21.9148 34.3167 20.7148 34.3167Z" fill="#E1B57A"/>
<path fill-rule="evenodd" clip-rule="evenodd" d="M20.5718 27.877C24.4723 25.399 32.9447 27.813 36.8893 19.3495C36.8893 24.1996 38.7859 27.0267 42.5791 27.8307C42.6476 28.3727 42.683 28.9261 42.683 29.4886C42.683 36.1548 37.7113 41.5589 31.5783 41.5589C25.4454 41.5589 20.4736 36.1548 20.4736 29.4886C20.4736 28.9422 20.5071 28.4042 20.5718 27.877Z" fill="#F5CD93"/>
</g>
<defs>
<clipPath id="clip0_460_1502">
<rect width="61.8" height="61.8" fill="white" transform="translate(0.678223 0.0370331)"/>
</clipPath>
</defs>
</svg>
