<svg width="63" height="62" viewBox="0 0 63 62" fill="none" xmlns="http://www.w3.org/2000/svg">
<g clip-path="url(#clip0_460_1515)">
<path d="M62.278 30.937C62.278 38.8552 59.2846 46.1939 54.3599 51.6014C51.7527 54.4983 48.5662 56.9123 44.8968 58.6505C40.8412 60.6783 36.2062 61.7405 31.378 61.7405C26.5499 61.7405 21.9149 60.5817 17.8593 58.6505C14.2865 56.9123 11.0999 54.4983 8.39615 51.6014C3.47146 46.1939 0.478027 38.8552 0.478027 30.937C0.478027 13.8455 14.2865 0.0370331 31.378 0.0370331C48.4696 0.0370331 62.278 13.8455 62.278 30.937Z" fill="#64B9FF"/>
<path d="M47.987 10.7555C47.987 10.7555 46.8282 15.7767 44.0279 17.8045V27.7505H18.7285V16.163C18.7285 13.073 21.2391 10.6589 24.2326 10.6589H47.987V10.7555Z" fill="#47677C"/>
<path d="M44.0275 27.6539C44.0275 29.4886 43.0619 31.0336 41.8066 31.0336C40.5513 31.0336 39.5856 29.4886 39.5856 27.6539C39.5856 25.8192 40.5513 24.2742 41.8066 24.2742C43.0619 24.2742 44.0275 25.8192 44.0275 27.6539ZM23.2666 27.6539C23.2666 29.4886 22.301 31.0336 21.0456 31.0336C19.7903 31.0336 18.8247 29.4886 18.8247 27.6539C18.8247 25.8192 19.7903 24.2742 21.0456 24.2742C22.301 24.2742 23.2666 25.8192 23.2666 27.6539Z" fill="#EDC3A6"/>
<path d="M54.3597 51.6014C51.7526 54.4983 48.566 56.9123 44.8966 58.6505C40.841 60.6783 36.206 61.7405 31.3779 61.7405C26.5497 61.7405 21.9147 60.5817 17.8591 58.6505C14.2863 56.9123 11.0997 54.4983 8.396 51.6014C8.49256 47.8355 11.1963 44.5523 14.9622 43.7798L25.5841 41.6555L31.2813 40.4967L36.9785 41.6555L47.6004 43.7798C51.4629 44.5523 54.2632 47.8355 54.3597 51.6014Z" fill="#FF7683"/>
<path d="M37.075 37.793V41.5589C37.075 44.6489 34.5644 47.2561 31.3779 47.2561C28.2879 47.2561 25.6807 44.7455 25.6807 41.5589V37.793H37.075Z" fill="#EDC3A6"/>
<path d="M40.9376 20.0255V31.0336C40.9376 36.248 36.6888 40.4967 31.4745 40.4967C26.2601 40.4967 22.0113 36.248 22.0113 31.0336V17.2252C21.9148 17.2252 33.5023 26.2055 40.9376 20.0255Z" fill="#FCD5BB"/>
<path d="M44.8969 53.8223V58.747C40.8412 60.7748 36.2062 61.837 31.3781 61.837C26.55 61.837 21.915 60.6783 17.8594 58.747V53.8223H44.8969Z" fill="#E8677A"/>
</g>
<defs>
<clipPath id="clip0_460_1515">
<rect width="61.8" height="61.8" fill="white" transform="translate(0.478027 0.0370331)"/>
</clipPath>
</defs>
</svg>
