<svg width="63" height="62" viewBox="0 0 63 62" fill="none" xmlns="http://www.w3.org/2000/svg">
<g clip-path="url(#clip0_460_1537)">
<path d="M62.0778 30.937C62.0778 39.338 58.6981 46.9664 53.2906 52.567C47.5935 58.2642 39.8685 61.837 31.1778 61.837C22.4872 61.837 14.7622 58.2642 9.06502 52.567C3.65752 46.9664 0.277832 39.338 0.277832 30.937C0.277832 13.8455 14.0863 0.0370331 31.1778 0.0370331C48.2694 0.0370331 62.0778 13.8455 62.0778 30.937Z" fill="#F5836A"/>
<path d="M53.2906 52.567C47.5934 58.2642 39.8684 61.837 31.1778 61.837C22.4871 61.837 14.7621 58.2642 9.06494 52.567C9.64432 50.2495 11.3824 48.3183 13.6999 47.4492L20.1696 45.0352C21.4249 44.5523 22.6803 44.1661 23.9356 43.7798C24.7081 43.4902 25.5771 43.297 26.3496 43.1039C26.4462 43.1039 26.4462 43.1039 26.5428 43.1039C28.0878 42.6211 29.6328 42.2348 31.2743 41.9452C32.9159 42.3314 34.654 42.7177 36.2956 43.2005C36.3921 43.2005 36.4887 43.297 36.5853 43.297C37.4543 43.5867 38.2268 43.7798 39.0959 44.0695C40.1581 44.4558 41.2203 44.842 42.2824 45.2283L48.7521 47.6423C50.9731 48.3183 52.6146 50.2495 53.2906 52.567Z" fill="#6593C4"/>
<path d="M45.0829 22.1498V26.6883C45.0829 30.3577 42.0895 33.2545 38.5167 33.2545H36.006L26.3498 32.6752C14.4726 36.8273 13.8932 11.9142 27.0257 8.92078C40.1582 5.83078 37.8407 14.7145 37.8407 14.7145C40.2548 11.9142 42.186 13.7489 43.4413 15.9698C44.5035 17.8045 45.0829 19.9289 45.0829 22.1498Z" fill="#324A5E"/>
<path d="M31.3712 56.9123C36.0109 56.9123 39.7721 52.8917 39.7721 47.932C39.7721 42.9723 36.0109 38.9517 31.3712 38.9517C26.7314 38.9517 22.9702 42.9723 22.9702 47.932C22.9702 52.8917 26.7314 56.9123 31.3712 56.9123Z" fill="#5588B5"/>
<path d="M31.3709 52.1808C28.5705 52.1808 26.3496 49.9598 26.3496 47.1595V40.4967H36.4887V47.1595C36.4887 49.9598 34.1712 52.1808 31.3709 52.1808Z" fill="#EDC3A6"/>
<path d="M41.5101 22.2464V34.5098C41.5101 39.9173 36.9716 44.2627 31.371 44.2627C25.7704 44.2627 21.2319 39.9173 21.2319 34.5098V22.2464C21.2319 20.122 22.9701 18.4805 25.191 18.4805H37.551C39.7719 18.4805 41.5101 20.2186 41.5101 22.2464Z" fill="#FCD5BB"/>
</g>
<defs>
<clipPath id="clip0_460_1537">
<rect width="61.8" height="61.8" fill="white" transform="translate(0.277832 0.0370331)"/>
</clipPath>
</defs>
</svg>
