<svg width="63" height="63" viewBox="0 0 63 63" fill="none" xmlns="http://www.w3.org/2000/svg">
<g clip-path="url(#clip0_460_1523)">
<path fill-rule="evenodd" clip-rule="evenodd" d="M31.378 62.637C14.3124 62.637 0.478027 48.8026 0.478027 31.737C0.478027 14.6714 14.3124 0.837036 31.378 0.837036C48.4436 0.837036 62.278 14.6714 62.278 31.737C62.278 48.8026 48.4436 62.637 31.378 62.637Z" fill="#FFC75E"/>
<path d="M31.3781 17.2527C34.8446 17.2527 37.6547 14.4426 37.6547 10.9761C37.6547 7.50965 34.8446 4.69954 31.3781 4.69954C27.9117 4.69954 25.1016 7.50965 25.1016 10.9761C25.1016 14.4426 27.9117 17.2527 31.3781 17.2527Z" fill="#324B50"/>
<path fill-rule="evenodd" clip-rule="evenodd" d="M25.1016 12.2476C26.9511 11.4296 28.9919 10.9761 31.1367 10.9761C33.2815 10.9761 35.3224 11.4296 37.1719 12.2476C36.5948 15.1045 34.1121 17.2527 31.1367 17.2527C28.1614 17.2527 25.6786 15.1045 25.1016 12.2476Z" fill="#77C19C"/>
<path fill-rule="evenodd" clip-rule="evenodd" d="M46.3454 58.6836C41.8505 61.201 36.6622 62.637 31.1368 62.637C25.6114 62.637 20.4231 61.201 15.9282 58.6836L16.3483 53.4589C16.4914 51.6791 17.605 50.1236 19.2437 49.4146L26.2849 46.3683C27.1684 45.9861 27.7404 45.1154 27.7404 44.1527V38.9792H34.5332V44.1527C34.5332 45.1154 35.1052 45.9861 35.9888 46.3683L43.0299 49.4146C44.6686 50.1236 45.7823 51.6791 45.9254 53.4589L46.3454 58.6836Z" fill="#F1D9AE"/>
<path fill-rule="evenodd" clip-rule="evenodd" d="M46.3454 58.6627C41.8505 61.1934 36.6622 62.637 31.1368 62.637C25.6114 62.637 20.4231 61.1934 15.9282 58.6627L16.3499 53.3901C16.492 51.6129 17.602 50.0586 19.2369 49.3475L25.3144 46.7042V51.9589H36.9592V46.7042L43.0367 49.3475C44.6716 50.0586 45.7816 51.6129 45.9238 53.3901L46.3454 58.6627Z" fill="#77C19C"/>
<path fill-rule="evenodd" clip-rule="evenodd" d="M26.0975 46.5808C27.0022 48.5348 28.682 50.3632 31.1367 52.0661C33.5915 50.3632 35.2712 48.5348 36.176 46.5808L39.5859 48.0317L35.5103 55.3948L31.1367 52.0661L26.7632 55.3948L22.6875 48.0317L26.0975 46.5808Z" fill="#00A185"/>
<path fill-rule="evenodd" clip-rule="evenodd" d="M20.4956 27.2557H25.5844L27.5156 23.0464V27.2557H35.2406L35.2807 23.0464L37.1719 27.2557H42.2607C42.4063 28.043 42.4828 28.8579 42.4828 29.6924C42.4828 36.4213 37.5111 41.8761 31.3781 41.8761C25.2452 41.8761 20.2734 36.4213 20.2734 29.6924C20.2734 28.8579 20.3499 28.043 20.4956 27.2557Z" fill="#FFE8BE"/>
<path fill-rule="evenodd" clip-rule="evenodd" d="M18.582 30.8131C18.1135 29.4405 17.8593 27.9686 17.8593 26.4372C17.8593 18.9649 23.9118 12.9073 31.378 12.9073C38.8442 12.9073 44.8968 18.9649 44.8968 26.4372C44.8968 27.9686 44.6426 29.4405 44.1741 30.8131C44.8418 32.3732 46.6597 34.273 43.8933 38.3087C41.4117 41.929 46.9719 41.929 42.5918 47.187C45.2193 42.9655 38.2763 43.0903 41.3558 38.3087C43.7892 34.5303 41.8861 33.9793 41.1318 32.0066C40.4414 30.2014 41.4113 27.8453 42.4827 27.4584V27.4036H37.1718L35.2806 23.2301L35.2405 27.4036H27.5155V23.2301L25.5843 27.4036H20.2733V27.4584C21.3448 27.8453 22.3147 30.2014 21.6243 32.0066C20.8699 33.9793 18.9669 34.5303 21.4003 38.3087C24.4797 43.0903 17.5368 42.9655 20.1643 47.187C15.7842 41.929 21.3443 41.929 18.8627 38.3087C16.0964 34.273 17.9143 32.3732 18.582 30.8131Z" fill="#324B50"/>
</g>
<defs>
<clipPath id="clip0_460_1523">
<rect width="61.8" height="61.8" fill="white" transform="translate(0.478027 0.837036)"/>
</clipPath>
</defs>
</svg>
