<svg width="63" height="63" viewBox="0 0 63 63" fill="none" xmlns="http://www.w3.org/2000/svg">
<g clip-path="url(#clip0_459_1376)">
<path d="M31.1778 62.037C48.2434 62.037 62.0778 48.2026 62.0778 31.137C62.0778 14.0714 48.2434 0.23703 31.1778 0.23703C14.1122 0.23703 0.277832 14.0714 0.277832 31.137C0.277832 48.2026 14.1122 62.037 31.1778 62.037Z" fill="#58B0E0"/>
<path fill-rule="evenodd" clip-rule="evenodd" d="M23.5327 38.917L39.4397 39.038V51.956L23.5327 51.835V38.917Z" fill="#F9DCA4"/>
<path fill-rule="evenodd" clip-rule="evenodd" d="M44.2488 59.142C40.2054 61.0252 35.8029 62.0126 31.3426 62.0368C26.8822 62.0609 22.4693 61.1212 18.4058 59.282V48.654H44.2478L44.2488 59.142Z" fill="#E6E6E6"/>
<path fill-rule="evenodd" clip-rule="evenodd" d="M33.6807 61.937C32.8554 62.003 32.021 62.0364 31.1777 62.037C30.541 62.037 29.9094 62.018 29.2827 61.98L30.3127 52.992H32.7227L33.6807 61.937Z" fill="#E9573E"/>
<path fill-rule="evenodd" clip-rule="evenodd" d="M25.9348 61.569C22.5279 60.9345 19.2377 59.7839 16.1778 58.157C13.2388 56.5215 10.5852 54.4191 8.3208 51.932L9.6048 48.832L23.5298 42.62C23.5298 47.832 25.2408 56.101 25.9348 61.569Z" fill="#677079"/>
<path opacity="0.11" fill-rule="evenodd" clip-rule="evenodd" d="M39.4431 38.996V42.227C34.7111 47.754 25.6701 46.972 23.6431 38.815L39.4431 38.996Z" fill="black"/>
<path fill-rule="evenodd" clip-rule="evenodd" d="M31.4069 8.66904C52.6879 8.66904 44.3939 43.935 31.4069 43.935C19.1399 43.935 10.1259 8.66904 31.4069 8.66904Z" fill="#FFE8BE"/>
<path fill-rule="evenodd" clip-rule="evenodd" d="M18.6426 24.283C15.5726 25.622 18.1826 31.969 20.1146 31.941C19.3133 29.4577 18.8189 26.8865 18.6426 24.283ZM44.4176 24.282C47.4876 25.621 44.8776 31.969 42.9466 31.94C43.7474 29.4569 44.2414 26.8851 44.4176 24.282Z" fill="#F9DCA4"/>
<path fill-rule="evenodd" clip-rule="evenodd" d="M22.2091 14.565C18.8751 18.023 20.0481 27.595 20.0481 27.595L18.998 27.1C12.444 1.70603 50.632 1.70503 44.041 27.1L42.9911 27.595C42.9911 27.595 44.1651 18.023 40.8311 14.565C36.7121 18.56 26.305 18.539 22.2091 14.565Z" fill="#464449"/>
<path fill-rule="evenodd" clip-rule="evenodd" d="M37.0449 61.48C43.8023 60.175 49.9295 56.6489 54.4529 51.462L53.3629 48.831L39.4389 42.619C39.4389 47.831 37.7389 56.012 37.0449 61.48Z" fill="#677079"/>
<path fill-rule="evenodd" clip-rule="evenodd" d="M39.4397 42.217L31.5137 48.682L38.0867 54.595C38.0867 54.595 39.8387 44.891 39.4397 42.217Z" fill="white"/>
<path fill-rule="evenodd" clip-rule="evenodd" d="M23.5308 42.217L31.5198 48.682L24.8748 54.595C24.8748 54.595 23.1288 44.891 23.5308 42.217Z" fill="white"/>
<path fill-rule="evenodd" clip-rule="evenodd" d="M28.3867 51.464L31.5237 48.646L34.6607 51.464L31.5237 54.281L28.3867 51.464Z" fill="#E9573E"/>
<path fill-rule="evenodd" clip-rule="evenodd" d="M26.0448 61.61C24.7679 61.3964 23.5057 61.1025 22.2658 60.73C22.2269 60.7001 22.1889 60.6691 22.1518 60.637L18.6168 54.247L23.1578 50.987H18.4058L19.4228 44.136L23.5328 41.537C23.7108 48.907 25.2918 57.193 26.0448 61.61ZM36.9228 61.503C37.5108 61.405 38.0928 61.269 38.6698 61.119C39.3513 60.9387 40.0294 60.7456 40.7038 60.54L40.8378 60.497L44.3488 54.182L39.8078 50.94H44.5598L43.5428 44.123L39.4328 41.537C39.2548 48.869 37.6748 57.108 36.9228 61.503Z" fill="#434955"/>
</g>
<defs>
<clipPath id="clip0_459_1376">
<rect width="61.8" height="61.8" fill="white" transform="translate(0.277832 0.23703)"/>
</clipPath>
</defs>
</svg>
