<svg width="63" height="63" viewBox="0 0 63 63" fill="none" xmlns="http://www.w3.org/2000/svg">
<g clip-path="url(#clip0_460_1546)">
<path d="M62.4782 31.737C62.4782 38.3033 60.4504 44.3867 56.9742 49.3114C55.0429 52.1117 52.6288 54.6223 49.9251 56.5536C44.7107 60.4161 38.4342 62.637 31.5782 62.637C24.7223 62.637 18.4457 60.4161 13.2313 56.6502C10.5276 54.6223 8.11353 52.2083 6.18228 49.408C2.70604 44.3867 0.678223 38.3033 0.678223 31.737C0.678223 14.6455 14.4867 0.837036 31.5782 0.837036C48.6698 0.837036 62.4782 14.6455 62.4782 31.737Z" fill="#2395C4"/>
<path d="M23.0809 22.7567C23.0809 24.7845 21.729 26.3295 20.184 26.3295C18.5424 26.3295 17.2871 24.688 17.2871 22.7567C17.2871 20.7289 18.639 19.1839 20.184 19.1839C21.729 19.1839 23.0809 20.8255 23.0809 22.7567ZM45.9662 22.7567C45.9662 24.7845 44.6143 26.3295 43.0693 26.3295C41.4277 26.3295 40.1724 24.688 40.1724 22.7567C40.1724 20.7289 41.5243 19.1839 43.0693 19.1839C44.7109 19.1839 45.9662 20.8255 45.9662 22.7567Z" fill="#EDC3A6"/>
<path d="M40.4622 13.1005C40.0759 12.6177 39.6897 12.1348 39.3034 11.7486C37.3722 9.72078 34.5719 8.56203 31.5784 8.56203C27.8125 8.56203 24.5294 10.4933 22.5016 13.2936C21.3428 15.0317 20.5703 17.1561 20.5703 19.4736V27.1986C20.5703 33.282 25.495 38.1102 31.4819 38.1102C37.5653 38.1102 42.3934 33.1855 42.3934 27.1986V19.4736C42.49 17.1561 41.8141 14.9352 40.4622 13.1005Z" fill="#FCD5BB"/>
<path d="M56.974 49.3114C55.0428 52.1117 52.6287 54.6224 49.9249 56.5536C44.7106 60.4161 38.434 62.637 31.5781 62.637C24.7221 62.637 18.4456 60.4161 13.2312 56.6502C10.5274 54.6224 8.11338 52.2083 6.18213 49.408C7.63057 44.097 11.6862 39.9449 16.9006 38.3033C18.1559 37.917 19.4112 37.7239 20.6665 37.6273H20.7631C21.0528 37.6273 21.3424 37.6273 21.6321 37.6273H41.524C41.8137 37.6273 42.1034 37.6273 42.3931 37.6273C42.6828 37.6273 42.9724 37.6274 43.3587 37.7239C43.6484 37.7239 43.9381 37.8205 44.1312 37.8205C44.5174 37.917 44.9037 37.917 45.2899 38.0136C45.5796 38.1102 45.8693 38.2067 46.159 38.3033C51.3734 39.8483 55.5256 44.0005 56.974 49.3114Z" fill="#60A103"/>
<path d="M38.8203 33.4752V35.5995C38.8203 39.5586 35.6337 42.8417 31.5781 42.8417C27.6191 42.8417 24.3359 39.6552 24.3359 35.5995V33.4752H38.8203Z" fill="#EDC3A6"/>
<path d="M42.4896 19.4736V27.1986C42.4896 33.282 37.5649 38.1102 31.5781 38.1102C25.4946 38.1102 20.6665 33.1855 20.6665 27.1986V19.4736C20.6665 17.1561 21.3424 15.0317 22.5978 13.2936V26.5227C22.5978 29.2264 24.1428 31.6405 26.5568 32.8958C26.5568 31.6405 27.0396 30.5783 27.9087 29.7092C28.6812 28.9367 29.8399 28.3573 31.0953 28.3573H32.1574C33.4128 28.3573 34.4749 28.8402 35.344 29.7092C36.1165 30.4817 36.6959 31.6405 36.6959 32.8958C39.1099 31.737 40.6549 29.2264 40.6549 26.5227V13.1005C41.8137 14.9352 42.4896 17.1561 42.4896 19.4736Z" fill="#F3F3F1"/>
</g>
<defs>
<clipPath id="clip0_460_1546">
<rect width="61.8" height="61.8" fill="white" transform="translate(0.678223 0.837036)"/>
</clipPath>
</defs>
</svg>
