<svg width="63" height="63" viewBox="0 0 63 63" fill="none" xmlns="http://www.w3.org/2000/svg">
<g clip-path="url(#clip0_459_1465)">
<path fill-rule="evenodd" clip-rule="evenodd" d="M31.6073 8.66904C52.8883 8.66904 44.5943 43.935 31.6073 43.935C19.3413 43.935 10.3263 8.66904 31.6073 8.66904Z" fill="#FFE8BE"/>
<path d="M31.378 62.037C48.4436 62.037 62.278 48.2026 62.278 31.137C62.278 14.0714 48.4436 0.23703 31.378 0.23703C14.3124 0.23703 0.478027 14.0714 0.478027 31.137C0.478027 48.2026 14.3124 62.037 31.378 62.037Z" fill="#58B0E0"/>
<path fill-rule="evenodd" clip-rule="evenodd" d="M45.9649 20.224L16.7919 20.399C16.7919 20.399 17.8399 36.547 14.1729 41.609H49.8739C48.9539 40.259 46.5209 39.824 45.9649 20.224Z" fill="#60350A"/>
<path fill-rule="evenodd" clip-rule="evenodd" d="M18.6128 45.836L25.8188 42.649L37.3688 42.349L44.7888 46.246L39.4318 57.461L31.8188 61.549L23.9438 57.199L18.6128 45.836Z" fill="#D5E1ED"/>
<path fill-rule="evenodd" clip-rule="evenodd" d="M25.2222 38.917L38.1532 39.001V47.95L25.2222 47.865V38.917Z" fill="#F9DCA4"/>
<path opacity="0.11" fill-rule="evenodd" clip-rule="evenodd" d="M38.155 39.015V42.595C38.1691 43.0041 38.1557 43.4137 38.115 43.821C38.0548 44.2726 37.9499 44.7171 37.802 45.148C33.432 49.313 26.423 45.928 25.312 38.815L38.155 39.015Z" fill="black"/>
<path fill-rule="evenodd" clip-rule="evenodd" d="M53.2748 52.938C50.3797 55.8463 46.9342 58.1487 43.1395 59.7107C39.3448 61.2728 35.2769 62.0633 31.1734 62.036C27.0698 62.0087 23.0128 61.1643 19.2392 59.5519C15.4656 57.9395 12.0511 55.5915 9.19482 52.645L10.4158 49.547L19.5188 45.425C22.7808 51.405 26.3288 56.949 31.8358 60.88C36.8208 56.7307 40.8588 51.5613 43.6778 45.72L51.8218 49.573L53.2748 52.938Z" fill="#434955"/>
<path fill-rule="evenodd" clip-rule="evenodd" d="M19.5879 24.42C16.6299 25.71 19.1459 31.83 21.0079 31.803C20.2352 29.4092 19.7583 26.9297 19.5879 24.42ZM43.9849 24.419C46.9449 25.711 44.4279 31.83 42.5659 31.803C43.3383 29.4088 43.8149 26.929 43.9849 24.419Z" fill="#F9DCA4"/>
<path fill-rule="evenodd" clip-rule="evenodd" d="M31.5918 8.90303C40.3138 8.90303 43.9688 15.103 44.1928 22.27C44.4998 32.08 38.5178 43.7 31.5928 43.7C25.0328 43.7 18.8868 31.682 19.2598 21.772C19.5198 14.819 23.0738 8.90303 31.5918 8.90303Z" fill="#FFE8BE"/>
<path fill-rule="evenodd" clip-rule="evenodd" d="M33.8769 25.22C35.4394 24.2655 37.2961 23.9125 39.0999 24.227H39.1049C44.2589 24.857 44.3389 26.459 43.8379 26.828C43.5025 27.1051 43.2341 27.4545 43.0529 27.85C42.9409 28.8941 42.5802 29.8962 42.0009 30.772C41.6151 31.3763 41.108 31.8939 40.5117 32.2919C39.9154 32.6899 39.2429 32.9596 38.5369 33.084C38.3689 33.111 38.1969 33.132 38.0209 33.142C37.3328 33.1913 36.6429 33.0761 36.0082 32.8059C35.3735 32.5357 34.8122 32.1182 34.3709 31.588C33.7326 30.8386 33.2322 29.9821 32.8929 29.058V29.061C32.8929 29.061 32.0959 27.425 30.8209 28.947C30.4784 29.9119 29.9634 30.8064 29.3009 31.587C28.8594 32.1174 28.298 32.5351 27.6632 32.8055C27.0283 33.0758 26.3382 33.1912 25.6499 33.142C25.477 33.1312 25.3048 33.1119 25.1339 33.084C24.4279 32.9596 23.7554 32.6898 23.1591 32.2918C22.5628 31.8938 22.0557 31.3763 21.6699 30.772C21.0908 29.8964 20.7301 28.8948 20.6179 27.851C20.4453 27.4542 20.1815 27.1037 19.8479 26.828C19.3479 26.458 19.4229 24.855 24.5769 24.225H24.5789C26.3903 23.9121 28.2536 24.2713 29.8189 25.235L29.8179 25.234L29.8209 25.236L30.0359 25.367C30.6353 25.6735 31.3035 25.8209 31.9762 25.7949C32.649 25.769 33.3038 25.5707 33.8779 25.219L33.8769 25.22ZM29.2049 25.858C28.2755 25.3213 27.2298 25.0178 26.1575 24.9738C25.0852 24.9297 24.0181 25.1463 23.0479 25.605C21.5369 26.291 21.0759 26.775 21.6619 28.768C21.8206 29.3117 22.0607 29.8282 22.3739 30.3C22.7274 30.8752 23.2141 31.3567 23.7931 31.704C24.372 32.0512 25.026 32.254 25.6999 32.295C26.2597 32.3336 26.8207 32.2383 27.3365 32.0171C27.8522 31.7959 28.3079 31.4552 28.6659 31.023C29.2587 30.3217 29.7195 29.5187 30.0259 28.653C30.7049 26.873 30.8879 26.79 29.2059 25.858H29.2049ZM40.1519 25.408C39.1925 25.0476 38.1636 24.9112 37.1435 25.0091C36.1234 25.107 35.1391 25.4367 34.2659 25.973C32.7279 26.884 33.0079 27.036 33.6879 28.763C33.9903 29.5878 34.4358 30.3529 35.0039 31.023C35.362 31.4553 35.8178 31.7962 36.3337 32.0174C36.8497 32.2386 37.4109 32.3337 37.9709 32.295C38.1149 32.2864 38.2585 32.2703 38.4009 32.247C38.9921 32.1406 39.5547 31.9126 40.0532 31.5774C40.5517 31.2423 40.9752 30.8073 41.2969 30.3C41.5925 29.8551 41.8228 29.3702 41.9809 28.86C42.6829 26.61 42.0569 26.109 40.1529 25.409L40.1519 25.408Z" fill="#464449"/>
<path fill-rule="evenodd" clip-rule="evenodd" d="M18.3681 25.845C18.3681 25.207 19.3521 24.959 19.9661 28.788C20.4619 27.224 20.7825 25.6098 20.9221 23.975C22.0841 24.2 23.2001 26.823 22.8491 29.123C26.0151 28.346 34.1521 23.436 36.798 16.799C43.57 20.7 43.5331 28.893 43.5331 28.893C43.5331 28.893 43.891 26.993 44.091 25.377C44.157 24.839 44.3841 24.644 44.889 25.164C48.5511 17.58 42.7781 5.98704 31.7751 5.80704C16.6671 5.56104 14.7451 21.921 18.3691 25.846L18.3681 25.845Z" fill="#8A5C42"/>
<path fill-rule="evenodd" clip-rule="evenodd" d="M25.2431 42.668C26.823 45.0225 29.075 46.8469 31.7061 47.904L27.4981 54.048L21.5811 44.268L25.2431 42.668Z" fill="white"/>
<path fill-rule="evenodd" clip-rule="evenodd" d="M38.1603 42.668C36.5803 45.0225 34.3283 46.8469 31.6973 47.904L35.9063 54.048L41.8593 44.38L38.1603 42.668Z" fill="white"/>
<path d="M31.7008 53.638C32.1642 53.638 32.5398 53.2624 32.5398 52.799C32.5398 52.3357 32.1642 51.96 31.7008 51.96C31.2374 51.96 30.8618 52.3357 30.8618 52.799C30.8618 53.2624 31.2374 53.638 31.7008 53.638Z" fill="#434955"/>
<path d="M31.7008 57.367C32.1642 57.367 32.5398 56.9914 32.5398 56.528C32.5398 56.0647 32.1642 55.689 31.7008 55.689C31.2374 55.689 30.8618 56.0647 30.8618 56.528C30.8618 56.9914 31.2374 57.367 31.7008 57.367Z" fill="#434955"/>
<path fill-rule="evenodd" clip-rule="evenodd" d="M42.4752 24.974C44.2592 25.686 44.1942 26.555 43.8422 26.815C43.5069 27.0922 43.2385 27.4416 43.0572 27.837C42.9791 28.5596 42.7825 29.2644 42.4752 29.923V24.974ZM21.0062 29.453C20.811 28.9329 20.6819 28.3903 20.6222 27.838C20.4497 27.4412 20.1859 27.0906 19.8522 26.815C19.5152 26.566 19.4392 25.755 21.0062 25.061V29.453Z" fill="#464449"/>
</g>
<defs>
<clipPath id="clip0_459_1465">
<rect width="61.8" height="61.8" fill="white" transform="translate(0.478027 0.23703)"/>
</clipPath>
</defs>
</svg>
