<svg width="63" height="63" viewBox="0 0 63 63" fill="none" xmlns="http://www.w3.org/2000/svg">
<g clip-path="url(#clip0_459_1331)">
<path d="M31.5782 62.037C48.6438 62.037 62.4782 48.2026 62.4782 31.137C62.4782 14.0714 48.6438 0.23703 31.5782 0.23703C14.5126 0.23703 0.678223 14.0714 0.678223 31.137C0.678223 48.2026 14.5126 62.037 31.5782 62.037Z" fill="#485A69"/>
<path fill-rule="evenodd" clip-rule="evenodd" d="M23.9204 38.829L39.8404 39.038V51.956L23.9334 51.835L23.9204 38.829Z" fill="#F9DCA4"/>
<path fill-rule="evenodd" clip-rule="evenodd" d="M54.1562 52.23C51.2688 55.3286 47.7737 57.7987 43.889 59.486C40.0043 61.1734 35.8135 62.0418 31.5782 62.037C30.2955 62.0369 29.0141 61.9578 27.7412 61.8C23.8204 61.315 20.0301 60.0777 16.5782 58.156C13.6392 56.5205 10.9855 54.4181 8.72119 51.931L10.0052 48.831L23.9302 42.619C23.9302 47.154 25.7702 48.771 31.9002 48.863C39.4702 48.976 39.8402 47.257 39.8402 42.583L52.6302 48.864L54.1562 52.23Z" fill="#D5E1ED"/>
<path opacity="0.11" fill-rule="evenodd" clip-rule="evenodd" d="M39.8434 39.015V42.419C37.0934 47.333 25.8434 47.417 23.9204 38.829L39.8434 39.015Z" fill="black"/>
<path fill-rule="evenodd" clip-rule="evenodd" d="M31.8073 8.66904C53.0883 8.66904 44.7943 43.935 31.8073 43.935C19.5403 43.935 10.5263 8.66904 31.8073 8.66904Z" fill="#FFE8BE"/>
<path fill-rule="evenodd" clip-rule="evenodd" d="M19.043 24.282C15.973 25.622 18.583 31.969 20.515 31.94C19.7137 29.457 19.2194 26.8852 19.043 24.282ZM44.818 24.282C47.888 25.621 45.278 31.969 43.347 31.94C44.1478 29.4569 44.6418 26.8851 44.818 24.282Z" fill="#F9DCA4"/>
<path fill-rule="evenodd" clip-rule="evenodd" d="M44.0872 29.821C44.0872 29.821 45.1532 21.105 42.0722 18.069C40.7322 21.597 34.5702 22.802 34.5702 22.802C35.7666 21.9652 36.8476 20.9743 37.7852 19.855C36.1332 20.57 30.9092 22.713 26.1752 21.016C27.463 20.2397 28.6742 19.3427 29.7922 18.337C29.7922 18.337 25.5052 20.659 21.3522 20.079C18.3612 22.311 19.6922 29.241 19.6922 29.241C15.6782 18.654 19.3752 6.53304 32.0682 6.46304C44.4262 6.39404 48.2392 18.31 44.0872 29.821Z" fill="#ECBE6A"/>
<path fill-rule="evenodd" clip-rule="evenodd" d="M23.9332 42.416C25.8787 45.3148 28.6516 47.5609 31.8912 48.862L26.7092 54.211L20.1182 44.107L23.9332 42.416Z" fill="white"/>
<path fill-rule="evenodd" clip-rule="evenodd" d="M39.8384 42.416C37.8928 45.3147 35.1199 47.5608 31.8804 48.862L37.0614 54.211L43.6534 44.108L39.8384 42.416Z" fill="white"/>
<path fill-rule="evenodd" clip-rule="evenodd" d="M34.044 61.937C33.218 62.0017 32.3834 62.0344 31.54 62.035C30.904 62.035 30.2724 62.0164 29.645 61.979L30.676 53.222H33.086L34.044 61.937Z" fill="#3DBC93"/>
<path fill-rule="evenodd" clip-rule="evenodd" d="M29.1504 51.693L31.8874 48.876L34.6234 51.693L31.8874 54.51L29.1504 51.693Z" fill="#3DBC93"/>
</g>
<defs>
<clipPath id="clip0_459_1331">
<rect width="61.8" height="61.8" fill="white" transform="translate(0.678223 0.23703)"/>
</clipPath>
</defs>
</svg>
