<svg width="63" height="62" viewBox="0 0 63 62" fill="none" xmlns="http://www.w3.org/2000/svg">
<g clip-path="url(#clip0_459_1432)">
<path fill-rule="evenodd" clip-rule="evenodd" d="M31.8075 8.48953C53.0885 8.48953 44.7945 43.7555 31.8075 43.7555C19.5415 43.7555 10.5265 8.48953 31.8075 8.48953Z" fill="#FFE8BE"/>
<path d="M31.5782 61.8575C48.6438 61.8575 62.4782 48.0231 62.4782 30.9575C62.4782 13.8919 48.6438 0.0575256 31.5782 0.0575256C14.5126 0.0575256 0.678223 13.8919 0.678223 30.9575C0.678223 48.0231 14.5126 61.8575 31.5782 61.8575Z" fill="#A9CF54"/>
<path fill-rule="evenodd" clip-rule="evenodd" d="M17.3254 25.1615C17.3254 25.1615 18.7194 43.7815 15.3454 48.8065C11.9714 53.8315 31.8554 48.6165 31.8554 48.6165L31.8614 13.7535L17.3254 25.1615Z" fill="#302E33"/>
<path fill-rule="evenodd" clip-rule="evenodd" d="M46.3831 25.1615C46.3831 25.1615 44.9891 43.7815 48.3641 48.8065C51.7391 53.8315 31.8541 48.6165 31.8541 48.6165L31.8481 13.7535L46.3831 25.1615Z" fill="#302E33"/>
<path fill-rule="evenodd" clip-rule="evenodd" d="M53.475 52.7585C52.867 51.2965 52.981 49.8405 48.11 47.5715C45.817 47.0295 39.9 46.2525 38.782 44.1715C38.215 43.1195 38.352 41.6365 38.352 38.8795L25.422 38.7375C25.422 41.5145 25.531 42.9955 24.898 44.0355C23.708 45.9925 15.963 47.4195 13.56 48.0595C9.46702 49.8785 9.93502 50.9845 9.39502 52.4655C12.2512 55.412 15.6658 57.76 19.4394 59.3724C23.213 60.9847 27.27 61.8292 31.3736 61.8565C35.4771 61.8838 39.545 61.0933 43.3397 59.5312C47.1344 57.9692 50.5799 55.6668 53.475 52.7585Z" fill="#F9DCA4"/>
<path opacity="0.11" fill-rule="evenodd" clip-rule="evenodd" d="M38.3553 38.8355L38.3403 41.3365C38.2483 42.3714 38.4384 43.412 38.8903 44.3475C34.4383 47.7675 26.0963 46.9425 25.1743 38.4105L38.3553 38.8355Z" fill="black"/>
<path fill-rule="evenodd" clip-rule="evenodd" d="M19.7881 24.2405C16.8301 25.5305 19.3461 31.6505 21.2081 31.6235C20.4354 29.2296 19.9585 26.7502 19.7881 24.2405ZM44.1851 24.2395C47.1451 25.5315 44.6281 31.6505 42.7661 31.6235C43.5385 29.2293 44.0151 26.7495 44.1851 24.2395Z" fill="#F9DCA4"/>
<path fill-rule="evenodd" clip-rule="evenodd" d="M31.792 8.72351C40.514 8.72351 44.169 14.9235 44.393 22.0905C44.7 31.9005 38.718 43.5205 31.793 43.5205C25.233 43.5205 19.087 31.5025 19.46 21.5925C19.72 14.6395 23.274 8.72351 31.792 8.72351Z" fill="#FFE8BE"/>
<path fill-rule="evenodd" clip-rule="evenodd" d="M31.861 13.7545C31.282 16.1655 28.561 23.9215 17.325 25.1615C16.155 5.83952 30.86 6.31352 31.861 6.36852C32.863 6.31352 47.568 5.83852 46.397 25.1615C35.162 23.9215 32.44 16.1655 31.861 13.7545Z" fill="#464449"/>
<path fill-rule="evenodd" clip-rule="evenodd" d="M53.475 52.7585C38.605 57.3365 19.307 54.5735 13.56 48.0595C9.46702 49.8785 9.93502 50.9845 9.39502 52.4655C12.2512 55.412 15.6658 57.76 19.4394 59.3723C23.213 60.9847 27.27 61.8292 31.3736 61.8565C35.4771 61.8838 39.545 61.0933 43.3397 59.5312C47.1344 57.9691 50.5799 55.6668 53.475 52.7585Z" fill="#E9573E"/>
<path fill-rule="evenodd" clip-rule="evenodd" d="M43.4751 46.5755L44.5461 46.8285L44.5421 54.9465H43.4751V46.5755Z" fill="#E9573E"/>
<path fill-rule="evenodd" clip-rule="evenodd" d="M24.5124 44.4775C24.5144 44.4905 25.3904 48.9285 32.0564 48.9285C38.6974 48.9285 39.1024 44.6225 39.1034 44.6105L39.2914 44.7935C39.2914 44.8055 38.7274 49.4955 32.0564 49.4955C25.2594 49.4955 24.3004 44.6655 24.2974 44.6505L24.5124 44.4775Z" fill="#464449"/>
<path d="M32.0023 51.4115C32.8379 51.4115 33.5153 50.5568 33.5153 49.5025C33.5153 48.4482 32.8379 47.5935 32.0023 47.5935C31.1666 47.5935 30.4893 48.4482 30.4893 49.5025C30.4893 50.5568 31.1666 51.4115 32.0023 51.4115Z" fill="#464449"/>
</g>
<defs>
<clipPath id="clip0_459_1432">
<rect width="61.8" height="61.8" fill="white" transform="translate(0.678223 0.0575256)"/>
</clipPath>
</defs>
</svg>
