<svg width="63" height="68" viewBox="0 0 63 68" fill="none" xmlns="http://www.w3.org/2000/svg">
<g clip-path="url(#clip0_459_1409)">
<path d="M31.1778 62.679C48.2434 62.679 62.0778 48.8446 62.0778 31.779C62.0778 14.7134 48.2434 0.879028 31.1778 0.879028C14.1122 0.879028 0.277832 14.7134 0.277832 31.779C0.277832 48.8446 14.1122 62.679 31.1778 62.679Z" fill="#3DBC93"/>
<path fill-rule="evenodd" clip-rule="evenodd" d="M23.5327 39.559L39.4397 39.68V52.598L23.5327 52.477V39.559Z" fill="#F9DCA4"/>
<path opacity="0.11" fill-rule="evenodd" clip-rule="evenodd" d="M39.443 39.657V43.237C39.4404 43.6323 39.4076 44.0268 39.345 44.417C39.2663 44.8987 39.1338 45.3699 38.95 45.822C33.576 49.986 25.011 46.57 23.644 39.457L39.443 39.657Z" fill="black"/>
<path fill-rule="evenodd" clip-rule="evenodd" d="M31.4071 9.31104C52.6881 9.31104 44.3941 44.577 31.4071 44.577C19.1411 44.577 10.1261 9.31104 31.4071 9.31104Z" fill="#FFE8BE"/>
<path fill-rule="evenodd" clip-rule="evenodd" d="M18.6426 24.925C15.5726 26.264 18.1826 32.611 20.1146 32.583C19.3133 30.0997 18.8189 27.5285 18.6426 24.925ZM44.4126 24.925C47.4826 26.264 44.8776 32.611 42.9466 32.582C43.7458 30.0991 44.2381 27.5276 44.4126 24.925Z" fill="#F9DCA4"/>
<path fill-rule="evenodd" clip-rule="evenodd" d="M44.4009 25.049C44.4009 25.049 52.3609 13.264 41.7649 8.71504C40.4383 6.60495 38.4817 4.9655 36.172 4.0287C33.8624 3.0919 31.3165 2.90521 28.8949 3.49504C23.0529 4.68404 20.8819 7.57904 20.8819 7.57904C20.8819 7.57904 15.3519 12.593 10.4419 12.696C12.2722 13.9837 14.489 14.6043 16.7219 14.454C16.0499 16.134 14.7569 21.664 18.7109 25.308C23.0789 22.44 26.7229 16.831 26.7229 16.831C26.7229 16.831 27.7049 20.088 26.9299 21.691C29.8088 21.1448 32.521 19.9359 34.8519 18.16C37.3939 16.124 38.7449 13.863 40.1619 13.834C43.4179 13.765 44.3749 23.574 44.4019 25.05L44.4009 25.049Z" fill="#ECBE6A"/>
<path fill-rule="evenodd" clip-rule="evenodd" d="M53.7337 52.901C50.8507 55.9992 47.3594 58.4692 43.4783 60.1566C39.5973 61.844 35.4098 62.7126 31.1777 62.708C29.8964 62.7079 28.6163 62.6288 27.3447 62.471C23.445 61.9113 19.6723 60.6783 16.1947 58.827C13.2582 57.1912 10.6073 55.0888 8.3457 52.602L9.6277 49.502L23.5377 43.29C24.1627 47.013 31.3437 51.465 31.3437 51.465C31.3437 51.465 38.5567 48.053 39.4307 43.254L52.2077 49.535L53.7337 52.901Z" fill="#498BD9"/>
<mask id="mask0_459_1409" style="mask-type:luminance" maskUnits="userSpaceOnUse" x="8" y="43" width="46" height="20">
<path fill-rule="evenodd" clip-rule="evenodd" d="M53.7337 52.901C50.8507 55.9992 47.3594 58.4692 43.4783 60.1566C39.5973 61.844 35.4098 62.7126 31.1777 62.708C29.8964 62.7079 28.6163 62.6288 27.3447 62.471C23.445 61.9113 19.6723 60.6783 16.1947 58.827C13.2582 57.1912 10.6073 55.0888 8.3457 52.602L9.6277 49.502L23.5377 43.29C24.1627 47.013 31.3437 51.465 31.3437 51.465C31.3437 51.465 38.5567 48.053 39.4307 43.254L52.2077 49.535L53.7337 52.901Z" fill="white"/>
</mask>
<g mask="url(#mask0_459_1409)">
<path fill-rule="evenodd" clip-rule="evenodd" d="M14.3896 47.375L21.2036 44.333L31.4126 58.311L41.7407 44.373L47.6896 47.204V67.237H14.3896V47.375Z" fill="#545F69"/>
<mask id="mask1_459_1409" style="mask-type:luminance" maskUnits="userSpaceOnUse" x="14" y="44" width="34" height="24">
<path fill-rule="evenodd" clip-rule="evenodd" d="M14.3896 47.375L21.2036 44.333L31.4126 58.311L41.7407 44.373L47.6896 47.204V67.237H14.3896V47.375Z" fill="white"/>
</mask>
<g mask="url(#mask1_459_1409)">
<path fill-rule="evenodd" clip-rule="evenodd" d="M38.0677 43.76H38.7997V65.142H38.0677V43.76ZM23.2927 43.76H24.0237V65.142H23.2937V43.76H23.2927ZM20.3117 43.76H21.0427V65.142H20.3117V43.76ZM17.3677 43.76H18.0987V65.142H17.3687L17.3677 43.76ZM14.3867 43.76H15.1177V65.142H14.3867V43.76ZM35.0947 43.76H35.8257V65.142H35.0947V43.76ZM32.1137 43.76H32.8447V65.142H32.1137V43.76ZM29.1697 43.76H29.9007V65.142H29.1697V43.76ZM26.1887 43.76H26.9197V65.142H26.1887V43.76ZM46.9737 43.76H47.7057V65.142H46.9737V43.76ZM43.9937 43.76H44.7237V65.142H43.9937V43.76ZM41.0497 43.76H41.7797V65.142H41.0497V43.76Z" fill="#434955"/>
</g>
</g>
<path fill-rule="evenodd" clip-rule="evenodd" d="M23.5428 42.149L31.3448 51.465L25.0398 55.018L20.2168 44.427L23.5428 42.149ZM39.4328 42.329L31.3448 51.465L37.8628 55.018L42.6398 44.299L39.4328 42.329Z" fill="#58B0E0"/>
<path fill-rule="evenodd" clip-rule="evenodd" d="M21.915 24.036H28.331C28.5389 24.036 28.7447 24.0769 28.9367 24.1565C29.1288 24.2362 29.3032 24.3529 29.45 24.5V24.502C29.597 24.6486 29.7136 24.8227 29.7932 25.0144C29.8728 25.206 29.9139 25.4115 29.914 25.619V28.512C29.9135 28.9317 29.7465 29.3341 29.4498 29.6308C29.153 29.9276 28.7507 30.0945 28.331 30.095H21.915C21.7076 30.0947 21.5022 30.0534 21.3107 29.9737C21.1192 29.8939 20.9453 29.7771 20.799 29.63H20.797C20.65 29.4833 20.5333 29.3091 20.4537 29.1172C20.3741 28.9254 20.3331 28.7197 20.333 28.512V25.619C20.3331 25.4115 20.3742 25.206 20.4538 25.0144C20.5334 24.8227 20.6501 24.6486 20.797 24.502L20.799 24.5C20.9454 24.3532 21.1193 24.2366 21.3108 24.157C21.5023 24.0773 21.7076 24.0363 21.915 24.036ZM28.331 24.886H21.915C21.7212 24.8864 21.5354 24.9633 21.398 25.1L21.397 25.102C21.2603 25.2394 21.1834 25.4252 21.183 25.619V28.512C21.1831 28.6081 21.2021 28.7033 21.239 28.792C21.2759 28.8807 21.3299 28.9613 21.398 29.029C21.5352 29.1661 21.7211 29.2434 21.915 29.244H28.331C28.5249 29.2433 28.7106 29.1659 28.8477 29.0288C28.9848 28.8917 29.0622 28.7059 29.063 28.512V25.619C29.063 25.4249 28.986 25.2386 28.849 25.101C28.7811 25.0329 28.7003 24.9788 28.6114 24.9419C28.5226 24.905 28.4273 24.886 28.331 24.886ZM34.826 24.036H41.242C41.4497 24.0361 41.6554 24.0771 41.8472 24.1567C42.039 24.2364 42.2133 24.353 42.36 24.5V24.502C42.5071 24.6485 42.6239 24.8226 42.7037 25.0142C42.7835 25.2059 42.8247 25.4114 42.825 25.619V28.512C42.8245 28.9317 42.6575 29.3341 42.3608 29.6308C42.064 29.9276 41.6617 30.0945 41.242 30.095H34.826C34.6184 30.0947 34.4129 30.0535 34.2212 29.9737C34.0296 29.8939 33.8555 29.7771 33.709 29.63L33.708 29.628C33.4112 29.3324 33.2439 28.931 33.243 28.512V25.619C33.2433 25.4114 33.2846 25.2059 33.3643 25.0143C33.4441 24.8226 33.5609 24.6485 33.708 24.502L33.71 24.501C34.0056 24.2042 34.4071 24.037 34.826 24.036ZM41.242 24.886H34.826C34.73 24.886 34.6349 24.9048 34.5462 24.9415C34.4575 24.9783 34.3769 25.0321 34.309 25.1L34.308 25.102C34.24 25.1699 34.1862 25.2505 34.1494 25.3392C34.1127 25.4279 34.0939 25.523 34.094 25.619V28.512C34.0939 28.6081 34.1128 28.7031 34.1495 28.7919C34.1862 28.8806 34.2401 28.9612 34.308 29.029L34.309 29.03C34.3769 29.098 34.4575 29.1518 34.5462 29.1885C34.6349 29.2253 34.73 29.2441 34.826 29.244H41.242C41.4359 29.2433 41.6216 29.1659 41.7587 29.0288C41.8958 28.8917 41.9732 28.7059 41.974 28.512V25.619C41.974 25.4249 41.897 25.2386 41.76 25.101C41.6922 25.033 41.6106 24.979 41.5219 24.9421C41.4332 24.9052 41.3381 24.8861 41.242 24.886Z" fill="#464449"/>
<path d="M29.6929 25.385H33.5379V26.261H29.6929V25.385Z" fill="#464449"/>
</g>
<defs>
<clipPath id="clip0_459_1409">
<rect width="61.8" height="66.358" fill="white" transform="translate(0.277832 0.879028)"/>
</clipPath>
</defs>
</svg>
