<svg width="63" height="62" viewBox="0 0 63 62" fill="none" xmlns="http://www.w3.org/2000/svg">
<g clip-path="url(#clip0_459_1345)">
<path d="M31.378 61.958C48.4436 61.958 62.278 48.1236 62.278 31.058C62.278 13.9924 48.4436 0.15802 31.378 0.15802C14.3124 0.15802 0.478027 13.9924 0.478027 31.058C0.478027 48.1236 14.3124 61.958 31.378 61.958Z" fill="#E9573E"/>
<path fill-rule="evenodd" clip-rule="evenodd" d="M23.7331 38.838L39.6401 38.987V42.604L46.6421 45.943L30.9551 60.662L17.4941 45.322L23.7331 42.666V38.838Z" fill="#F9DCA4"/>
<path fill-rule="evenodd" clip-rule="evenodd" d="M53.956 52.151C51.0686 55.2496 47.5735 57.7197 43.6888 59.4071C39.8041 61.0944 35.6133 61.9628 31.378 61.958C30.0953 61.9579 28.8139 61.8788 27.541 61.721C23.6371 61.1616 19.86 59.9286 16.378 58.077C13.4393 56.4414 10.786 54.339 8.52197 51.852L9.80497 48.752L21.133 43.698C22.008 48.234 25.368 55.233 31.309 59.2C34.0876 57.5219 36.4991 55.3002 38.399 52.6682C40.2989 50.0361 41.6481 47.0478 42.366 43.882L52.429 48.785L53.956 52.151Z" fill="#677079"/>
<path opacity="0.11" fill-rule="evenodd" clip-rule="evenodd" d="M40.2689 42.903C40.9969 43.25 42.2419 43.831 42.3629 43.902C40.3329 50.27 26.6429 52.602 22.6069 43.146L40.2689 42.903Z" fill="black"/>
<path fill-rule="evenodd" clip-rule="evenodd" d="M31.6073 8.59003C52.8883 8.59003 44.5943 43.856 31.6073 43.856C19.3413 43.856 10.3263 8.59003 31.6073 8.59003Z" fill="#FFE8BE"/>
<path fill-rule="evenodd" clip-rule="evenodd" d="M18.8428 24.203C15.7728 25.543 18.3828 31.89 20.3148 31.861C19.5136 29.378 19.0192 26.8062 18.8428 24.203ZM44.6178 24.203C47.6878 25.542 45.0778 31.89 43.1468 31.861C43.9476 29.3779 44.4416 26.8061 44.6178 24.203Z" fill="#F9DCA4"/>
<path fill-rule="evenodd" clip-rule="evenodd" d="M23.8738 15.595C23.2818 18.363 23.4898 21.115 20.8658 21.623C20.2418 21.743 19.8288 22.588 19.6938 23.333C19.3895 24.9581 19.2621 26.6115 19.3138 28.264C19.4178 28.833 18.9178 27.172 18.9178 27.172L18.8328 23.998C18.8328 23.998 18.7958 23.39 18.8098 22.463C18.8398 20.583 19.0538 17.535 20.0058 16.603C21.4268 15.213 23.8738 15.595 23.8738 15.595ZM39.5728 15.595C40.1648 18.363 39.9578 21.115 42.5808 21.623C43.2048 21.743 43.6188 22.588 43.7528 23.333C44.0445 24.9648 44.1492 26.6245 44.0648 28.28C43.9598 28.85 44.4598 27.188 44.4598 27.188L44.6258 24.01C44.6258 24.01 44.6508 23.39 44.6358 22.463C44.6078 20.583 44.3938 17.535 43.4408 16.603C42.0198 15.213 39.5728 15.595 39.5728 15.595Z" fill="#AD835F"/>
<path fill-rule="evenodd" clip-rule="evenodd" d="M25.8418 46.635C24.3318 45.178 23.1238 44.048 22.0278 42.917C20.6228 41.466 20.1468 39.995 19.8738 37.419C19.2542 32.9676 18.9059 28.4827 18.8308 23.989C18.8308 23.989 19.8648 30.322 21.7928 33.444C22.7828 35.047 26.8328 31.279 28.4478 30.706C28.9969 30.4519 29.6158 30.3909 30.204 30.5329C30.7921 30.6748 31.3151 31.0114 31.6878 31.488C32.0538 31.0106 32.572 30.6728 33.1564 30.5305C33.7409 30.3883 34.3564 30.4502 34.9008 30.706C36.5168 31.279 40.5108 34.498 41.5568 33.444C44.0718 30.908 44.6138 23.998 44.6138 23.998C44.5087 28.5418 44.1317 33.0753 43.4848 37.574C43.1218 40.32 42.9378 41.384 41.9988 42.458C40.6206 44.006 39.0895 45.4108 37.4288 46.651C36.6008 47.307 35.1618 47.923 31.4958 47.901C28.0898 47.881 26.6928 47.456 25.8418 46.635ZM40.0818 16.155C40.6122 16.0524 41.1612 16.115 41.6548 16.3344C42.1484 16.5538 42.5627 16.9195 42.8418 17.382C44.3978 19.995 44.5268 20.332 44.5268 20.332C44.5268 20.332 44.3428 15.658 44.2318 15.102C44.3656 14.9788 44.5422 14.9128 44.724 14.918C44.9058 14.9233 45.0783 14.9993 45.2048 15.13C45.3148 15.352 44.7608 10.43 41.8698 9.48602C40.8128 6.48402 37.1158 4.26002 37.1158 4.26002L36.9488 5.92802C36.5766 4.79565 35.8784 3.79832 34.9418 3.06098C34.0053 2.32364 32.8719 1.87909 31.6838 1.78302C32.3508 2.53402 32.1908 3.08302 32.1908 3.08302C31.1504 2.64712 30.0307 2.43192 28.9028 2.45102C29.0428 3.34002 28.0138 4.28602 28.0138 4.28602C28.0138 4.28602 27.3748 3.31202 24.8448 2.97902C24.3998 4.59102 23.5648 4.86902 22.7598 5.62002C22.0835 6.31265 21.4613 7.05617 20.8988 7.84402C20.8988 7.84402 20.9818 6.28702 21.5378 5.84202C21.7468 5.70402 16.8218 7.64502 19.2858 14.878C18.8444 14.8673 18.4123 15.0058 18.0593 15.2711C17.7064 15.5364 17.4532 15.913 17.3408 16.34C18.7308 16.729 18.1558 18.83 18.9338 20.192C19.4808 18.612 19.8428 15.534 23.2618 16.34C25.7098 16.917 28.0598 18.154 30.8818 18.253C34.8688 18.392 36.3828 16.299 40.0818 16.155Z" fill="#60350A"/>
<path fill-rule="evenodd" clip-rule="evenodd" d="M32.8931 38.752C33.2827 38.8173 33.6818 38.7986 34.0636 38.6972C34.4454 38.5958 34.8012 38.414 35.1071 38.164C35.8271 37.334 36.4141 36.155 35.3221 35.521C34.2561 34.764 33.0313 34.2605 31.7411 34.049C30.4432 34.257 29.2102 34.7599 28.1371 35.519C26.7971 36.294 27.6171 37.334 28.3381 38.164C28.644 38.414 28.9997 38.5958 29.3816 38.6972C29.7634 38.7986 30.1625 38.8173 30.5521 38.752C29.7411 35.928 33.7051 35.928 32.8931 38.752Z" fill="#FFE8BE"/>
</g>
<defs>
<clipPath id="clip0_459_1345">
<rect width="61.8" height="61.8" fill="white" transform="translate(0.478027 0.15802)"/>
</clipPath>
</defs>
</svg>
