<svg width="63" height="62" viewBox="0 0 63 62" fill="none" xmlns="http://www.w3.org/2000/svg">
<path d="M31.5782 61.958C48.6438 61.958 62.4782 48.1236 62.4782 31.058C62.4782 13.9924 48.6438 0.15802 31.5782 0.15802C14.5126 0.15802 0.678223 13.9924 0.678223 31.058C0.678223 48.1236 14.5126 61.958 31.5782 61.958Z" fill="#3DBC93"/>
<path fill-rule="evenodd" clip-rule="evenodd" d="M54.1562 52.151C51.2688 55.2496 47.7737 57.7196 43.889 59.407C40.0043 61.0943 35.8135 61.9628 31.5782 61.958C30.2955 61.958 29.0141 61.8788 27.7412 61.721C23.8373 61.1616 20.0602 59.9286 16.5782 58.077C13.6395 56.4414 10.9862 54.339 8.72217 51.852L10.0052 48.752L23.9302 42.54C23.9302 47.075 25.2402 52.56 31.3692 52.653C38.9392 52.767 39.8392 47.178 39.8392 42.503L52.6292 48.785L54.1562 52.151Z" fill="#E9573E"/>
<mask id="mask0_459_1484" style="mask-type:luminance" maskUnits="userSpaceOnUse" x="8" y="42" width="47" height="20">
<path fill-rule="evenodd" clip-rule="evenodd" d="M54.1562 52.151C51.2688 55.2496 47.7737 57.7196 43.889 59.407C40.0043 61.0943 35.8135 61.9628 31.5782 61.958C30.2955 61.958 29.0141 61.8788 27.7412 61.721C23.8373 61.1616 20.0602 59.9286 16.5782 58.077C13.6395 56.4414 10.9862 54.339 8.72217 51.852L10.0052 48.752L23.9302 42.54C23.9302 47.075 25.2402 52.56 31.3692 52.653C38.9392 52.767 39.8392 47.178 39.8392 42.503L52.6292 48.785L54.1562 52.151Z" fill="white"/>
</mask>
<g mask="url(#mask0_459_1484)">
<path opacity="0.18" fill-rule="evenodd" clip-rule="evenodd" d="M1.37209 74.822V74.06H67.1781V74.822H1.37209ZM10.7731 33.845V36.082H12.9881V33.845H10.7731ZM10.7731 36.845V39.085H12.9881V36.845H10.7731ZM10.7731 39.847V41.707H12.9881V39.847H10.7731ZM10.7731 42.469V44.709H12.9881V42.469H10.7731ZM10.7731 45.471V47.708H12.9881V45.471H10.7731ZM10.7731 48.471V50.711H12.9881V48.471H10.7731ZM10.7731 51.473V53.429H12.9881V51.473H10.7731ZM10.7731 54.191V56.431H12.9881V54.191H10.7731ZM10.7731 57.194V59.431H12.9881V57.194H10.7731ZM10.7731 60.193V62.433H12.9881V60.193H10.7731ZM10.7731 63.195V65.055H12.9881V63.195H10.7731ZM10.7731 65.818V68.047H10.0201V65.817H1.37209V65.055H10.0201V63.195H1.37209V62.433H10.0201V60.193H1.37209V59.431H10.0201V57.194H1.37209V56.431H10.0201V54.191H1.37209V53.429H10.0201V51.473H1.37209V50.711H10.0201V48.471H1.37209V47.708H10.0201V45.471H1.37209V44.709H10.0201V42.469H1.37209V41.707H10.0201V39.847H1.37209V39.084H10.0201V36.844H1.37209V36.082H10.0201V33.845H1.37209V33.082H67.1781V33.845H54.2581V36.082H67.1781V36.844H54.2581V39.084H67.1781V39.847H54.2581V41.707H67.1781V42.469H54.2581V44.709H67.1781V45.471H54.2581V47.708H67.1781V48.471H54.2581V50.711H67.1781V51.473H54.2581V53.429H67.1781V54.191H54.2581V56.431H67.1781V57.194H54.2581V59.431H67.1781V60.193H54.2581V62.433H67.1781V63.195H54.2581V65.055H67.1781V65.817H54.2581V68.047H53.5031V65.817H51.2891V68.047H50.5341V65.817H48.3231V68.047H47.5691V65.817H45.3541V68.047H44.6001V65.817H42.7621V68.047H42.0081V65.817H39.7931V68.047H39.0391V65.817H36.8281V68.047H36.0741V65.817H33.8591V68.047H33.1051V65.817H31.1721V68.047H30.4181V65.817H28.2031V68.047H27.4501V65.817H25.2381V68.047H24.4841V65.817H22.2681V68.047H21.5141V65.817H19.6781V68.047H18.9241V65.817H16.7081V68.047H15.9541V65.817H13.7421V68.047H12.9881V65.817L10.7731 65.818ZM35.4001 30.08H67.1801V30.842H1.37109V30.08H35.4001ZM53.5041 33.845H51.2901V36.082H53.5041V33.845ZM50.5351 33.845H48.3241V36.082H50.5351V33.845ZM47.5701 33.845H45.3551V36.082H47.5701V33.845ZM44.6011 33.845H42.7631V36.082H44.6011V33.845ZM42.0091 33.845H39.7941V36.082H42.0091V33.845ZM39.0401 33.845H36.8281V36.082H39.0401V33.845ZM36.0741 33.845H33.8591V36.082H36.0741V33.845ZM33.1051 33.845H31.1721V36.082H33.1051V33.845ZM30.4181 33.845H28.2031V36.082H30.4191L30.4181 33.845ZM27.4491 33.845H25.2381V36.082H27.4501L27.4491 33.845ZM24.4841 33.845H22.2681V36.082H24.4831L24.4841 33.845ZM21.5151 33.845H19.6781V36.082H21.5161L21.5151 33.845ZM18.9231 33.845H16.7081V36.082H18.9231V33.845ZM15.9531 33.845H13.7431V36.082H15.9531V33.845ZM53.5041 36.845H51.2901V39.085H53.5041V36.845ZM50.5351 36.845H48.3241V39.085H50.5351V36.845ZM47.5701 36.845H45.3551V39.085H47.5701V36.845ZM44.6011 36.845H42.7631V39.085H44.6011V36.845ZM42.0091 36.845H39.7941V39.085H42.0091V36.845ZM39.0401 36.845H36.8281V39.085H39.0401V36.845ZM36.0741 36.845H33.8591V39.085H36.0741V36.845ZM33.1051 36.845H31.1721V39.085H33.1051V36.845ZM30.4181 36.845H28.2031V39.085H30.4191L30.4181 36.845ZM27.4491 36.845H25.2381V39.085H27.4501L27.4491 36.845ZM24.4841 36.845H22.2681V39.085H24.4831L24.4841 36.845ZM21.5151 36.845H19.6781V39.085H21.5161L21.5151 36.845ZM18.9231 36.845H16.7081V39.085H18.9231V36.845ZM15.9531 36.845H13.7431V39.085H15.9531V36.845ZM53.5041 39.847H51.2901V41.707H53.5041V39.847ZM50.5351 39.847H48.3241V41.707H50.5351V39.847ZM47.5701 39.847H45.3551V41.707H47.5701V39.847ZM44.6011 39.847H42.7631V41.707H44.6011V39.847ZM42.0091 39.847H39.7941V41.707H42.0091V39.847ZM39.0401 39.847H36.8281V41.707H39.0401V39.847ZM36.0741 39.847H33.8591V41.707H36.0741V39.847ZM33.1051 39.847H31.1721V41.707H33.1051V39.847ZM30.4181 39.847H28.2031V41.707H30.4191L30.4181 39.847ZM27.4491 39.847H25.2381V41.707H27.4501L27.4491 39.847ZM24.4841 39.847H22.2681V41.707H24.4831L24.4841 39.847ZM21.5151 39.847H19.6781V41.707H21.5161L21.5151 39.847ZM18.9231 39.847H16.7081V41.707H18.9231V39.847ZM15.9531 39.847H13.7431V41.707H15.9531V39.847ZM53.5041 42.469H51.2901V44.709H53.5041V42.469ZM50.5351 42.469H48.3241V44.709H50.5351V42.469ZM47.5701 42.469H45.3551V44.709H47.5701V42.469ZM44.6011 42.469H42.7631V44.709H44.6011V42.469ZM42.0091 42.469H39.7941V44.709H42.0091V42.469ZM39.0401 42.469H36.8281V44.709H39.0401V42.469ZM36.0741 42.469H33.8591V44.709H36.0741V42.469ZM33.1051 42.469H31.1721V44.709H33.1051V42.469ZM30.4181 42.469H28.2031V44.709H30.4191L30.4181 42.469ZM27.4491 42.469H25.2381V44.709H27.4501L27.4491 42.469ZM24.4841 42.469H22.2681V44.709H24.4831L24.4841 42.469ZM21.5151 42.469H19.6781V44.709H21.5161L21.5151 42.469ZM18.9231 42.469H16.7081V44.709H18.9231V42.469ZM15.9531 42.469H13.7431V44.709H15.9531V42.469ZM53.5041 45.471H51.2901V47.708H53.5041V45.471ZM50.5351 45.471H48.3241V47.708H50.5351V45.471ZM47.5701 45.471H45.3551V47.708H47.5701V45.471ZM44.6011 45.471H42.7631V47.708H44.6011V45.471ZM42.0091 45.471H39.7941V47.708H42.0091V45.471ZM39.0401 45.471H36.8281V47.708H39.0401V45.471ZM36.0741 45.471H33.8591V47.708H36.0741V45.471ZM33.1051 45.471H31.1721V47.708H33.1051V45.471ZM30.4181 45.471H28.2031V47.708H30.4191L30.4181 45.471ZM27.4491 45.471H25.2381V47.708H27.4501L27.4491 45.471ZM24.4841 45.471H22.2681V47.708H24.4831L24.4841 45.471ZM21.5151 45.471H19.6781V47.708H21.5161L21.5151 45.471ZM18.9231 45.471H16.7081V47.708H18.9231V45.471ZM15.9531 45.471H13.7431V47.708H15.9531V45.471ZM53.5041 48.471H51.2901V50.711H53.5041V48.471ZM50.5351 48.471H48.3241V50.711H50.5351V48.471ZM47.5701 48.471H45.3551V50.711H47.5701V48.471ZM44.6011 48.471H42.7631V50.711H44.6011V48.471ZM42.0091 48.471H39.7941V50.711H42.0091V48.471ZM39.0401 48.471H36.8281V50.711H39.0401V48.471ZM36.0741 48.471H33.8591V50.711H36.0741V48.471ZM33.1051 48.471H31.1721V50.711H33.1051V48.471ZM30.4181 48.471H28.2031V50.711H30.4191L30.4181 48.471ZM27.4491 48.471H25.2381V50.711H27.4501L27.4491 48.471ZM24.4841 48.471H22.2681V50.711H24.4831L24.4841 48.471ZM21.5151 48.471H19.6781V50.711H21.5161L21.5151 48.471ZM18.9231 48.471H16.7081V50.711H18.9231V48.471ZM15.9531 48.471H13.7431V50.711H15.9531V48.471ZM53.5041 51.473H51.2901V53.429H53.5041V51.473ZM50.5351 51.473H48.3241V53.429H50.5351V51.473ZM47.5701 51.473H45.3551V53.429H47.5701V51.473ZM44.6011 51.473H42.7631V53.429H44.6011V51.473ZM42.0091 51.473H39.7941V53.429H42.0091V51.473ZM39.0401 51.473H36.8281V53.429H39.0401V51.473ZM36.0741 51.473H33.8591V53.429H36.0741V51.473ZM33.1051 51.473H31.1721V53.429H33.1051V51.473ZM30.4181 51.473H28.2031V53.429H30.4191L30.4181 51.473ZM27.4491 51.473H25.2381V53.429H27.4501L27.4491 51.473ZM24.4841 51.473H22.2681V53.429H24.4831L24.4841 51.473ZM21.5151 51.473H19.6781V53.429H21.5161L21.5151 51.473ZM18.9231 51.473H16.7081V53.429H18.9231V51.473ZM15.9531 51.473H13.7431V53.429H15.9531V51.473ZM53.5041 54.191H51.2901V56.431H53.5041V54.191ZM50.5351 54.191H48.3241V56.431H50.5351V54.191ZM47.5701 54.191H45.3551V56.431H47.5701V54.191ZM44.6011 54.191H42.7631V56.431H44.6011V54.191ZM42.0091 54.191H39.7941V56.431H42.0091V54.191ZM39.0401 54.191H36.8281V56.431H39.0401V54.191ZM36.0741 54.191H33.8591V56.431H36.0741V54.191ZM33.1051 54.191H31.1721V56.431H33.1051V54.191ZM30.4181 54.191H28.2031V56.431H30.4191L30.4181 54.191ZM27.4491 54.191H25.2381V56.431H27.4501L27.4491 54.191ZM24.4841 54.191H22.2681V56.431H24.4831L24.4841 54.191ZM21.5151 54.191H19.6781V56.431H21.5161L21.5151 54.191ZM18.9231 54.191H16.7081V56.431H18.9231V54.191ZM15.9531 54.191H13.7431V56.431H15.9531V54.191ZM53.5041 57.194H51.2901V59.431H53.5041V57.194ZM50.5351 57.194H48.3241V59.431H50.5351V57.194ZM47.5701 57.194H45.3551V59.431H47.5701V57.194ZM44.6011 57.194H42.7631V59.431H44.6011V57.194ZM42.0091 57.194H39.7941V59.431H42.0091V57.194ZM39.0401 57.194H36.8281V59.431H39.0401V57.194ZM36.0741 57.194H33.8591V59.431H36.0741V57.194ZM33.1051 57.194H31.1721V59.431H33.1051V57.194ZM30.4181 57.194H28.2031V59.431H30.4191L30.4181 57.194ZM27.4491 57.194H25.2381V59.431H27.4501L27.4491 57.194ZM24.4841 57.194H22.2681V59.431H24.4831L24.4841 57.194ZM21.5151 57.194H19.6781V59.431H21.5161L21.5151 57.194ZM18.9231 57.194H16.7081V59.431H18.9231V57.194ZM15.9531 57.194H13.7431V59.431H15.9531V57.194ZM53.5041 60.193H51.2901V62.433H53.5041V60.193ZM50.5351 60.193H48.3241V62.433H50.5351V60.193ZM47.5701 60.193H45.3551V62.433H47.5701V60.193ZM44.6011 60.193H42.7631V62.433H44.6011V60.193ZM42.0091 60.193H39.7941V62.433H42.0091V60.193ZM39.0401 60.193H36.8281V62.433H39.0401V60.193ZM36.0741 60.193H33.8591V62.433H36.0741V60.193ZM33.1051 60.193H31.1721V62.433H33.1051V60.193ZM30.4181 60.193H28.2031V62.433H30.4191L30.4181 60.193ZM27.4491 60.193H25.2381V62.433H27.4501L27.4491 60.193ZM24.4841 60.193H22.2681V62.433H24.4831L24.4841 60.193ZM21.5151 60.193H19.6781V62.433H21.5161L21.5151 60.193ZM18.9231 60.193H16.7081V62.433H18.9231V60.193ZM15.9531 60.193H13.7431V62.433H15.9531V60.193ZM53.5041 63.195H51.2901V65.055H53.5041V63.195ZM50.5351 63.195H48.3241V65.055H50.5351V63.195ZM47.5701 63.195H45.3551V65.055H47.5701V63.195ZM44.6011 63.195H42.7631V65.055H44.6011V63.195ZM42.0091 63.195H39.7941V65.055H42.0091V63.195ZM39.0401 63.195H36.8281V65.055H39.0401V63.195ZM36.0741 63.195H33.8591V65.055H36.0741V63.195ZM33.1051 63.195H31.1721V65.055H33.1051V63.195ZM30.4181 63.195H28.2031V65.055H30.4191L30.4181 63.195ZM27.4491 63.195H25.2381V65.055H27.4501L27.4491 63.195ZM24.4841 63.195H22.2681V65.055H24.4831L24.4841 63.195ZM21.5151 63.195H19.6781V65.055H21.5161L21.5151 63.195ZM18.9231 63.195H16.7081V65.055H18.9231V63.195ZM15.9531 63.195H13.7431V65.055H15.9531V63.195ZM35.4011 68.058H67.1811V68.82H1.37109V68.058H35.3991H35.4011ZM35.4011 71.057H67.1811V71.82H1.37109V71.057H35.3991H35.4011Z" fill="black"/>
</g>
<path fill-rule="evenodd" clip-rule="evenodd" d="M23.9331 38.838L39.8401 38.959V51.877L23.9331 51.756V38.838Z" fill="#F9DCA4"/>
<path fill-rule="evenodd" clip-rule="evenodd" d="M39.8401 60.84C34.6417 62.2729 29.16 62.3294 23.9331 61.004V47.744C27.8551 52.457 35.7811 52.408 39.8401 47.865V60.84Z" fill="#677079"/>
<path opacity="0.11" fill-rule="evenodd" clip-rule="evenodd" d="M39.8431 43.618V45.876C39.8431 46.037 39.8451 47.336 39.8401 47.343C35.0901 50.815 25.3011 48.708 23.9331 44.219L39.8431 43.618Z" fill="black"/>
<path fill-rule="evenodd" clip-rule="evenodd" d="M31.8075 8.59003C53.0885 8.59003 44.7945 43.856 31.8075 43.856C19.5415 43.856 10.5265 8.59003 31.8075 8.59003Z" fill="#FFE8BE"/>
<path fill-rule="evenodd" clip-rule="evenodd" d="M19.043 24.204C15.973 25.543 18.583 31.89 20.515 31.862C19.7136 29.3787 19.2193 26.8075 19.043 24.204ZM44.818 24.203C47.888 25.542 45.278 31.89 43.347 31.861C44.1478 29.3779 44.6418 26.8061 44.818 24.203Z" fill="#F9DCA4"/>
<path fill-rule="evenodd" clip-rule="evenodd" d="M23.936 53.397L21.532 51.161L16.729 53.519L23.934 39.869L23.936 53.397ZM39.835 53.397L42.239 51.16L47.043 53.519L39.837 39.868L39.835 53.397Z" fill="#434955"/>
<path fill-rule="evenodd" clip-rule="evenodd" d="M19.0463 24.098C16.2143 19.138 15.3583 15.888 16.7783 13.448C18.8273 9.92803 23.3493 10.359 23.7433 9.53002C27.7683 1.05102 48.5823 7.48203 47.7133 20.62C47.289 19.7433 46.7792 18.9106 46.1913 18.134C46.1913 18.134 46.1163 23.125 44.7543 25.091C43.0913 22.217 38.3273 19.344 38.3273 19.344C38.3273 19.344 39.6123 23.654 40.4443 24.562C39.3703 24.468 27.2853 21.083 24.1843 11.025C20.1773 13.294 18.8943 20.391 19.0443 24.097L19.0463 24.098Z" fill="#60350A"/>
<path fill-rule="evenodd" clip-rule="evenodd" d="M31.8284 46.701C29.1684 46.723 16.7754 46.837 19.0324 23.988C19.0324 23.988 19.8674 30.572 21.9924 33.444C22.1751 33.7656 22.4251 34.0439 22.7254 34.2598C23.0257 34.4758 23.3691 34.6243 23.732 34.6951C24.095 34.766 24.4691 34.7575 24.8285 34.6703C25.1879 34.5831 25.5242 34.4193 25.8144 34.19C26.9744 33.355 27.2114 31.783 28.6484 31.273C29.1975 31.0184 29.8165 30.9571 30.4048 31.0991C30.9931 31.2411 31.516 31.578 31.8884 32.055C32.2541 31.5772 32.7723 31.239 33.3569 31.0967C33.9415 30.9544 34.5571 31.0166 35.1014 31.273C36.5384 31.783 36.7764 33.355 37.9354 34.19C38.2256 34.4191 38.5619 34.5828 38.9212 34.6699C39.2805 34.757 39.6544 34.7654 40.0173 34.6945C40.3801 34.6237 40.7234 34.4753 41.0236 34.2594C41.3238 34.0436 41.5738 33.7654 41.7564 33.444C43.8824 30.571 44.7184 23.988 44.7184 23.988C46.9744 46.838 34.4884 46.723 31.8284 46.701Z" fill="#60350A"/>
<path fill-rule="evenodd" clip-rule="evenodd" d="M24.6182 36.013C24.6182 36.013 30.2582 37.712 31.8512 32.513L31.8742 32.438L31.8962 32.513C33.4882 37.712 39.1302 36.013 39.1302 36.013C36.1532 38.471 33.9542 35.807 31.8452 35.859C29.5722 35.915 27.5102 38.401 24.6172 36.013H24.6182Z" fill="#362008"/>
</svg>
