<svg width="63" height="62" viewBox="0 0 63 62" fill="none" xmlns="http://www.w3.org/2000/svg">
<g clip-path="url(#clip0_459_1448)">
<path d="M31.1778 61.8575C48.2434 61.8575 62.0778 48.0231 62.0778 30.9575C62.0778 13.8919 48.2434 0.0575256 31.1778 0.0575256C14.1122 0.0575256 0.277832 13.8919 0.277832 30.9575C0.277832 48.0231 14.1122 61.8575 31.1778 61.8575Z" fill="#FFC200"/>
<path fill-rule="evenodd" clip-rule="evenodd" d="M25.1387 39.6825L37.4397 39.7985V52.0875L25.1387 51.9715V39.6825Z" fill="#F9DCA4"/>
<path opacity="0.11" fill-rule="evenodd" clip-rule="evenodd" d="M37.4417 39.7765V43.1825C37.4547 43.5716 37.4416 43.9612 37.4027 44.3485C37.3497 44.7635 36.0887 44.2845 35.9387 44.7365C31.5957 48.2605 25.6957 43.9965 25.1387 41.3535L37.4417 39.7765Z" fill="black"/>
<path fill-rule="evenodd" clip-rule="evenodd" d="M31.213 10.9075C51.458 10.9075 43.568 44.4565 31.213 44.4565C19.543 44.4565 10.968 10.9075 31.213 10.9075Z" fill="#FFE8BE"/>
<path fill-rule="evenodd" clip-rule="evenodd" d="M19.0927 25.8915C16.2767 27.1205 18.6707 32.9415 20.4427 32.9155C19.7079 30.638 19.2545 28.2792 19.0927 25.8915ZM43.5867 25.8635C46.4017 27.0915 44.0367 32.9415 42.2667 32.9155C42.992 30.6273 43.4353 28.2591 43.5867 25.8635Z" fill="#F9DCA4"/>
<path fill-rule="evenodd" clip-rule="evenodd" d="M31.198 11.1305C39.496 11.1305 42.973 17.0305 43.186 23.8465C43.478 33.1785 37.788 44.2335 31.199 44.2335C24.959 44.2335 19.112 32.8005 19.467 23.3735C19.715 16.7585 23.095 11.1315 31.199 11.1315L31.198 11.1305Z" fill="#FFE8BE"/>
<path fill-rule="evenodd" clip-rule="evenodd" d="M19.8507 30.2635C19.8507 30.2635 20.0677 21.6815 27.7807 21.3555C35.4937 21.0295 37.1237 16.9015 37.1237 16.9015C38.7247 20.267 40.9245 23.3133 43.6157 25.8915C49.4217 14.9715 38.6457 9.51352 38.6457 9.51352C38.6457 9.51352 38.8807 3.16652 31.0407 3.26752C23.2007 3.36852 24.5217 9.94752 24.5217 9.94752C24.5217 9.94752 12.6797 16.3575 19.8507 30.2635Z" fill="#969696"/>
<path fill-rule="evenodd" clip-rule="evenodd" d="M53.0746 52.7585C52.5906 51.6365 51.2876 48.9075 50.2526 48.2585C45.8546 45.5025 42.1666 45.1035 37.4396 42.9585C37.6776 53.7725 25.3846 53.6305 25.1376 42.6645C20.1636 44.8985 15.5706 46.1275 10.9096 48.9575C9.96163 49.5335 9.40163 51.4325 8.99463 52.4655C11.8509 55.412 15.2654 57.76 19.039 59.3724C22.8126 60.9847 26.8696 61.8292 30.9732 61.8565C35.0767 61.8838 39.1446 61.0933 42.9393 59.5312C46.734 57.9692 50.1795 55.6668 53.0746 52.7585Z" fill="#434955"/>
<path fill-rule="evenodd" clip-rule="evenodd" d="M25.1238 42.6715L31.3528 50.9795C27.4228 58.2595 19.5878 56.4695 17.8188 45.2675C22.1268 43.6275 25.1238 42.6715 25.1238 42.6715Z" fill="white"/>
<path fill-rule="evenodd" clip-rule="evenodd" d="M21.0709 27.0135H29.8889C30.0037 27.0135 30.114 27.0583 30.1962 27.1385C30.2784 27.2186 30.326 27.3277 30.3289 27.4425C30.3508 27.7116 30.3538 27.982 30.3379 28.2515H32.0179C32.0021 27.9816 32.0051 27.711 32.0269 27.4415C32.03 27.3269 32.0778 27.2181 32.1599 27.1381C32.2421 27.0582 32.3523 27.0135 32.4669 27.0135H41.2849C41.3427 27.0135 41.3999 27.0249 41.4533 27.047C41.5067 27.0691 41.5552 27.1015 41.596 27.1424C41.6369 27.1833 41.6693 27.2318 41.6914 27.2851C41.7135 27.3385 41.7249 27.3957 41.7249 27.4535C41.7249 27.4675 41.7949 32.6085 36.6329 32.6085C33.6709 32.6085 32.5889 30.9305 32.2069 29.4805H30.1479C29.7659 30.9305 28.6839 32.6085 25.7209 32.6085C20.5599 32.6085 20.6309 27.4685 20.6309 27.4535C20.6309 27.337 20.6771 27.2252 20.7594 27.1427C20.8417 27.0603 20.9544 27.0138 21.0709 27.0135Z" fill="#E6E6E6"/>
<path fill-rule="evenodd" clip-rule="evenodd" d="M37.4657 42.6715L31.3257 50.9795C35.1977 58.2595 42.9207 56.4695 44.6657 45.2675C40.4187 43.6275 37.4657 42.6715 37.4657 42.6715Z" fill="white"/>
<path fill-rule="evenodd" clip-rule="evenodd" d="M21.0709 27.0135H29.8889C30.0037 27.0135 30.114 27.0583 30.1962 27.1385C30.2784 27.2186 30.326 27.3277 30.3289 27.4425C30.3508 27.7116 30.3538 27.982 30.3379 28.2515H32.0179C32.0021 27.9816 32.0051 27.711 32.0269 27.4415C32.03 27.3269 32.0778 27.2181 32.1599 27.1381C32.2421 27.0582 32.3523 27.0135 32.4669 27.0135H41.2849C41.3427 27.0135 41.3999 27.0249 41.4533 27.047C41.5067 27.0691 41.5552 27.1015 41.596 27.1424C41.6369 27.1833 41.6693 27.2318 41.6914 27.2851C41.7135 27.3385 41.7249 27.3957 41.7249 27.4535C41.7249 27.4675 41.7949 32.6085 36.6329 32.6085C33.6709 32.6085 32.5889 30.9305 32.2069 29.4805H30.1479C29.7659 30.9305 28.6839 32.6085 25.7209 32.6085C20.5599 32.6085 20.6309 27.4685 20.6309 27.4535C20.6309 27.337 20.6771 27.2252 20.7594 27.1427C20.8417 27.0603 20.9544 27.0138 21.0709 27.0135ZM40.8179 27.8935H32.8839C32.8333 28.4024 32.8949 28.9161 33.0642 29.3987C33.2335 29.8812 33.5065 30.3207 33.864 30.6864C34.2214 31.0521 34.6547 31.335 35.1332 31.5152C35.6118 31.6954 36.124 31.7686 36.6339 31.7295C37.1617 31.7573 37.6898 31.6797 38.1873 31.501C38.6848 31.3224 39.1416 31.0464 39.5312 30.6891C39.9207 30.3319 40.2352 29.9005 40.4561 29.4204C40.677 28.9402 40.8 28.4208 40.8179 27.8925V27.8935ZM29.4709 27.8935H21.5379C21.5559 28.4217 21.679 28.941 21.9 29.4211C22.121 29.9011 22.4354 30.3323 22.825 30.6895C23.2145 31.0466 23.6714 31.3225 24.1688 31.5011C24.6662 31.6797 25.1942 31.7573 25.7219 31.7295C26.2319 31.7686 26.7442 31.6954 27.2228 31.5151C27.7015 31.3348 28.1348 31.0519 28.4923 30.6861C28.8497 30.3203 29.1227 29.8806 29.292 29.398C29.4612 28.9153 29.5226 28.4015 29.4719 27.8925L29.4709 27.8935Z" fill="#434955"/>
<path d="M31.318 56.5645C31.7814 56.5645 32.157 56.1889 32.157 55.7255C32.157 55.2622 31.7814 54.8865 31.318 54.8865C30.8546 54.8865 30.479 55.2622 30.479 55.7255C30.479 56.1889 30.8546 56.5645 31.318 56.5645Z" fill="#E6E6E6"/>
<path d="M31.318 59.6835C31.7814 59.6835 32.157 59.3079 32.157 58.8445C32.157 58.3812 31.7814 58.0055 31.318 58.0055C30.8546 58.0055 30.479 58.3812 30.479 58.8445C30.479 59.3079 30.8546 59.6835 31.318 59.6835Z" fill="#E6E6E6"/>
</g>
<defs>
<clipPath id="clip0_459_1448">
<rect width="61.8" height="61.8" fill="white" transform="translate(0.277832 0.0575256)"/>
</clipPath>
</defs>
</svg>
