<svg width="13" height="13" viewBox="0 0 13 13" fill="none" xmlns="http://www.w3.org/2000/svg">
<g clip-path="url(#clip0_1711_9978)">
<path d="M3.25 11.9154V2.16536C3.25 1.87805 3.36414 1.6025 3.5673 1.39933C3.77047 1.19617 4.04602 1.08203 4.33333 1.08203H8.66667C8.95398 1.08203 9.22953 1.19617 9.4327 1.39933C9.63586 1.6025 9.75 1.87805 9.75 2.16536V11.9154H3.25Z" stroke="#646262" stroke-width="1.08333" stroke-linecap="round" stroke-linejoin="round"/>
<path d="M3.2487 6.5H2.16536C1.87805 6.5 1.6025 6.61414 1.39933 6.8173C1.19617 7.02047 1.08203 7.29602 1.08203 7.58333V10.8333C1.08203 11.1207 1.19617 11.3962 1.39933 11.5994C1.6025 11.8025 1.87805 11.9167 2.16536 11.9167H3.2487" stroke="#646262" stroke-width="1.08333" stroke-linecap="round" stroke-linejoin="round"/>
<path d="M9.75 4.875H10.8333C11.1207 4.875 11.3962 4.98914 11.5994 5.1923C11.8025 5.39547 11.9167 5.67102 11.9167 5.95833V10.8333C11.9167 11.1207 11.8025 11.3962 11.5994 11.5994C11.3962 11.8025 11.1207 11.9167 10.8333 11.9167H9.75" stroke="#646262" stroke-width="1.08333" stroke-linecap="round" stroke-linejoin="round"/>
<path d="M5.41797 3.25H7.58464" stroke="#646262" stroke-width="1.08333" stroke-linecap="round" stroke-linejoin="round"/>
<path d="M5.41797 5.41797H7.58464" stroke="#646262" stroke-width="1.08333" stroke-linecap="round" stroke-linejoin="round"/>
<path d="M5.41797 7.58203H7.58464" stroke="#646262" stroke-width="1.08333" stroke-linecap="round" stroke-linejoin="round"/>
<path d="M5.41797 9.75H7.58464" stroke="#646262" stroke-width="1.08333" stroke-linecap="round" stroke-linejoin="round"/>
</g>
<defs>
<clipPath id="clip0_1711_9978">
<rect width="13" height="13" fill="white"/>
</clipPath>
</defs>
</svg>
