<svg width="15" height="16" viewBox="0 0 15 16" fill="none" xmlns="http://www.w3.org/2000/svg">
<path d="M6.47264 8.47995V3.41208C6.47264 3.27214 6.27559 3.15869 6.03253 3.15869H3.83201C3.58895 3.15869 3.39191 3.27214 3.39191 3.41208V8.47995C3.39191 8.6199 3.58895 8.73334 3.83201 8.73334H6.03253C6.27559 8.73334 6.47264 8.6199 6.47264 8.47995Z" stroke="black" stroke-width="1.05625" stroke-linecap="round" stroke-linejoin="round"/>
<path d="M11.3135 12.4009V3.5988C11.3135 3.35573 11.1164 3.15869 10.8734 3.15869H8.67283C8.42977 3.15869 8.23273 3.35573 8.23273 3.5988V12.4009C8.23273 12.6439 8.42977 12.841 8.67283 12.841H10.8734C11.1164 12.841 11.3135 12.6439 11.3135 12.4009Z" stroke="black" stroke-width="1.05625" stroke-linecap="round" stroke-linejoin="round"/>
</svg>
