<svg width="15" height="16" viewBox="0 0 15 16" fill="none" xmlns="http://www.w3.org/2000/svg">
<path d="M2.86816 7.11963L11.6702 7.11963C11.9133 7.11963 12.1104 6.92259 12.1104 6.67952L12.1104 4.479C12.1104 4.23594 11.9133 4.0389 11.6702 4.0389L2.86816 4.0389C2.6251 4.0389 2.42806 4.23594 2.42806 4.479L2.42806 6.67952C2.42806 6.92259 2.6251 7.11963 2.86816 7.11963Z" stroke="black" stroke-width="1.05625" stroke-linecap="round" stroke-linejoin="round"/>
<path d="M2.86816 11.9607L11.6702 11.9607C11.9133 11.9607 12.1104 11.7637 12.1104 11.5206L12.1104 9.32007C12.1104 9.077 11.9133 8.87996 11.6702 8.87996L2.86816 8.87996C2.6251 8.87996 2.42806 9.077 2.42806 9.32007L2.42806 11.5206C2.42806 11.7637 2.6251 11.9607 2.86816 11.9607Z" stroke="black" stroke-width="1.05625" stroke-linecap="round" stroke-linejoin="round"/>
</svg>
