<svg width="9" height="11" viewBox="0 0 9 11" fill="none" xmlns="http://www.w3.org/2000/svg">
<path fill-rule="evenodd" clip-rule="evenodd" d="M1.99533 1.63204C2.68847 0.960677 3.52338 0.625 4.50008 0.625C5.47678 0.625 6.30775 0.956863 6.99302 1.6206C7.67829 2.28433 8.02091 3.0892 8.02091 4.03521C8.02091 4.50822 7.89883 5.04988 7.65465 5.66021C7.41048 6.27054 7.11511 6.84272 6.76854 7.37676C6.42197 7.9108 6.07934 8.4105 5.74064 8.87588C5.40195 9.34126 5.11446 9.71127 4.87816 9.98592L4.50008 10.375C4.40556 10.2682 4.27954 10.1271 4.12201 9.95158C3.96447 9.77611 3.68092 9.42518 3.27133 8.89877C2.86175 8.37236 2.50337 7.86121 2.19618 7.36532C1.88899 6.86942 1.60938 6.30869 1.35732 5.6831C1.10527 5.05751 0.979248 4.50822 0.979248 4.03521C0.979248 3.0892 1.31794 2.28815 1.99533 1.63204Z" stroke="black" stroke-width="0.8125" stroke-linecap="round" stroke-linejoin="round"/>
<path d="M5.04175 4.14583C5.04175 4.44499 4.79924 4.6875 4.50008 4.6875C4.20093 4.6875 3.95841 4.44499 3.95841 4.14583C3.95841 3.84668 4.20093 3.60417 4.50008 3.60417C4.79924 3.60417 5.04175 3.84668 5.04175 4.14583Z" stroke="black" stroke-width="0.8125" stroke-linecap="round" stroke-linejoin="round"/>
</svg>
