<svg width="19" height="19" viewBox="0 0 19 19" fill="none" xmlns="http://www.w3.org/2000/svg">
<g clip-path="url(#clip0_626_51715)">
<path d="M19 9.5C19 14.7468 14.7468 19 9.5 19C4.25323 19 0 14.7468 0 9.5C0 4.25323 4.25323 0 9.5 0C14.7468 0 19 4.25323 19 9.5Z" fill="#004EB1"/>
<path d="M19.0003 9.5C19.0003 9.22182 18.9877 8.94669 18.9642 8.67475L13.3888 3.09501C12.9627 2.66898 12.3942 2.47227 11.8366 2.50474C11.5246 2.52286 11.2231 2.3979 11.0154 2.16452C10.6438 1.74733 10.1029 1.48438 9.50027 1.48438C8.89767 1.48438 8.35669 1.74733 7.98516 2.16452C7.77744 2.3979 7.47592 2.52286 7.16397 2.50474C6.60632 2.47227 6.03779 2.66898 5.61176 3.09515C5.18558 3.52119 4.98887 4.08971 5.02134 4.64737C5.03946 4.95932 4.91451 5.26083 4.68127 5.46856C4.26393 5.83994 4.00098 6.38093 4.00098 6.98367C4.00098 7.58626 4.26393 8.12724 4.68127 8.49877C4.91451 8.7065 5.03946 9.00801 5.02134 9.31996C4.99017 9.85718 5.17152 10.4044 5.5658 10.8248L6.07272 11.3289L4.28307 15.7L7.33517 18.752C8.03068 18.914 8.75547 19 9.50027 19C14.747 19 19.0003 14.7468 19.0003 9.5Z" fill="#002D6B"/>
<path d="M7.20982 16.899L6.28383 14.9883L4.28369 15.701L6.47314 10.3535L9.39928 11.5515L7.20982 16.899Z" fill="#FFDB2D"/>
<path d="M11.791 16.899L12.717 14.9883L14.7171 15.701L12.5277 10.3535L9.60156 11.5515L11.791 16.899Z" fill="#FEC000"/>
<path d="M14.9996 6.98367C14.9996 6.38093 14.7366 5.83994 14.3193 5.46856C14.0859 5.26083 13.9611 4.95932 13.9792 4.64737C14.0115 4.08957 13.815 3.52119 13.3888 3.09501C12.9627 2.66898 12.3942 2.47227 11.8364 2.50474C11.5246 2.52286 11.2231 2.3979 11.0154 2.16452C10.6438 1.74733 10.1029 1.48438 9.50027 1.48438C8.89767 1.48438 8.35669 1.74733 7.98516 2.16452C7.77744 2.3979 7.47592 2.52286 7.16397 2.50474C6.60632 2.47227 6.03779 2.66898 5.61176 3.09515C5.18558 3.52119 4.98887 4.08971 5.02134 4.64737C5.03946 4.95932 4.91465 5.26083 4.68127 5.46856C4.26393 5.83994 4.00098 6.38093 4.00098 6.98367C4.00098 7.58626 4.26393 8.12724 4.68127 8.49877C4.91451 8.7065 5.03946 9.00801 5.02134 9.31996C4.98901 9.87762 5.18558 10.4461 5.61176 10.8722C6.03779 11.2984 6.60632 11.4951 7.16397 11.4626C7.47592 11.4445 7.77744 11.5693 7.98516 11.8027C8.35654 12.22 8.89767 12.483 9.50027 12.483C10.1029 12.483 10.6438 12.22 11.0154 11.8027C11.2231 11.5694 11.5246 11.4445 11.8366 11.4626C12.3942 11.4949 12.9627 11.2984 13.3888 10.8722C13.815 10.4461 14.0117 9.87762 13.9792 9.31996C13.9611 9.00801 14.0859 8.7065 14.3193 8.49877C14.7366 8.12724 14.9996 7.58626 14.9996 6.98367Z" fill="#FF9A00"/>
<path d="M14.319 5.46841C14.0856 5.26098 13.961 4.95932 13.9788 4.64722C14.0114 4.08986 13.8147 3.52133 13.3887 3.09486C12.9623 2.66898 12.3938 2.47227 11.8364 2.50488C11.5243 2.52271 11.223 2.39805 11.0151 2.16452C10.6437 1.74747 10.1026 1.48438 9.5 1.48438V12.4828C10.1026 12.4828 10.6437 12.2201 11.0151 11.8027C11.223 11.5693 11.5243 11.4445 11.8364 11.4627C12.3938 11.4951 12.9623 11.2984 13.3887 10.8723C13.8147 10.4459 14.0114 9.87776 13.9788 9.31996C13.961 9.00787 14.0856 8.70664 14.319 8.49877C14.7365 8.12739 14.9993 7.58626 14.9993 6.98367C14.9993 6.38093 14.7365 5.83994 14.319 5.46841Z" fill="#FF8900"/>
<path d="M13.1812 6.98367C13.1812 9.01656 11.5332 10.6646 9.50027 10.6646C7.46737 10.6646 5.81934 9.01656 5.81934 6.98367C5.81934 4.95077 7.46737 3.30273 9.50027 3.30273C11.5332 3.30273 13.1812 4.95077 13.1812 6.98367Z" fill="#FFC473"/>
<path d="M13.1809 6.98367C13.1809 9.01642 11.5329 10.6645 9.5 10.6645V3.30273C11.5329 3.30273 13.1809 4.95077 13.1809 6.98367Z" fill="#FFB84D"/>
<path d="M9.50036 4.03247L10.3834 5.83923L12.3747 6.12074L10.9292 7.51901L11.2768 9.49987L9.50036 8.55721L7.72389 9.49987L8.0715 7.51901L6.62598 6.12074L8.61727 5.83923L9.50036 4.03247Z" fill="#FFA924"/>
<path d="M10.9287 7.51887L11.2765 9.49973L9.5 8.55721V4.03247L10.3832 5.83923L12.3745 6.1206L10.9287 7.51887Z" fill="#FF8900"/>
</g>
<defs>
<clipPath id="clip0_626_51715">
<rect width="19" height="19" fill="white"/>
</clipPath>
</defs>
</svg>
