<svg width="61" height="60" viewBox="0 0 61 60" fill="none" xmlns="http://www.w3.org/2000/svg">
<g clip-path="url(#clip0_626_51689)">
<rect x="0.5" width="60" height="60" rx="30" fill="white"/>
<path d="M25.2461 48.4798C15.4582 45.3854 4.97851 57.8111 4.65955 67.7885C4.65955 67.7885 13.2345 76.6976 21.7959 78.3221C31.5578 80.1744 49.385 74.213 49.385 74.213C50.7762 58.886 45.1755 53.5838 35.2205 48.7973C33.5315 49.576 31.2641 50.3823 25.2461 48.4798Z" fill="white" stroke="#414141" stroke-width="0.997953"/>
<path d="M42.8089 31.6206C42.5594 29.3502 42.3972 24.0112 42.3349 21.0298C42.3122 20.5125 42.0881 20.0246 41.7105 19.6703C41.3329 19.316 40.8317 19.1234 40.314 19.1337C38.4054 19.1337 36.0353 18.984 32.8294 18.8967C27.9519 18.747 26.0433 20.0817 25.457 22.2149C24.8707 24.348 26.168 30.423 24.1472 30.5478C23.1991 30.66 22.014 26.6183 19.7562 27.4541C17.4983 28.2899 17.8476 31.1964 18.9204 32.3316C19.4932 33.0315 20.1757 33.6339 20.9412 34.1155C20.9412 41.8371 25.694 43.5087 25.694 43.5087C25.8728 45.1498 25.7114 46.8102 25.22 48.3862C28.2027 49.8706 31.616 50.2464 34.8502 49.4465C34.3559 47.9818 34.3559 46.3954 34.8502 44.9308C43.0459 43.1469 43.1582 34.8265 42.8089 31.6206Z" fill="white"/>
<path d="M34.5877 8.30599C26.1425 8.06898 20.8658 12.0483 18.8949 15.9154C16.9239 19.7824 13.3063 32.1321 21.6268 39.8164C22.4289 41.3827 23.6682 42.6827 25.1945 43.5587C25.3192 43.6834 25.4315 43.6834 25.4315 43.9204C25.5938 45.3272 25.4317 46.7525 24.9574 48.0869C24.9311 48.1405 24.9163 48.199 24.9142 48.2586C24.912 48.3183 24.9224 48.3777 24.9448 48.4331C24.9672 48.4884 25.001 48.5384 25.044 48.5798C25.087 48.6212 25.1383 48.653 25.1945 48.6732C25.3192 48.7979 28.6499 50.5818 35.0617 49.983C35.2114 49.983 35.673 49.6462 35.4235 49.3842C35.0725 48.0286 34.992 46.617 35.1865 45.2303C42.7709 44.382 43.5942 35.9368 43.0329 28.3399C43.0329 27.9906 42.7958 22.5143 42.6711 20.2565C43.226 20.1619 43.7557 19.9549 44.2276 19.6481C44.6995 19.3413 45.1038 18.9413 45.4155 18.4726C47.1245 14.8052 42.9206 8.543 34.5877 8.30599ZM40.064 41.4879C37.9807 44.4194 34.9494 44.6939 31.8558 44.4568C31.7301 44.4568 31.6095 44.5068 31.5206 44.5957C31.4317 44.6846 31.3818 44.8051 31.3818 44.9309C31.3818 45.0566 31.4317 45.1772 31.5206 45.2661C31.6095 45.355 31.7301 45.4049 31.8558 45.4049H34.1137C33.931 46.7175 34.0116 48.0533 34.3507 49.3343C31.4748 49.6766 28.5596 49.246 25.9055 48.0869C26.3062 46.7368 26.4292 45.3194 26.2673 43.9204C26.2695 43.691 26.203 43.4662 26.0763 43.275C25.9495 43.0838 25.7684 42.9349 25.5562 42.8476C23.9934 41.8281 22.7554 40.3823 21.9885 38.6812C21.5433 36.9388 21.3832 35.1357 21.5145 33.3421C20.7269 33.2229 20.0112 32.8169 19.5047 32.2022C18.9981 31.5875 18.7365 30.8073 18.7701 30.0115C18.7701 27.6289 21.6268 27.7536 22.2255 29.6497C22.8243 31.5458 24.9574 31.6706 25.5562 30.7225C26.7413 29.1757 25.0448 24.1485 26.7413 22.5143C28.4378 20.8802 29.8474 20.506 32.8163 20.6806C35.721 21.0005 38.6541 20.9586 41.5484 20.5559C41.7355 24.0612 41.9102 25.7203 41.9102 28.527C42.3343 31.6207 42.6212 37.8703 40.0764 41.4879H40.064Z" fill="#414141"/>
<path d="M36.1514 34.7065C36.0593 34.707 35.9684 34.6858 35.8861 34.6446C35.8037 34.6034 35.7322 34.5434 35.6774 34.4695C35.651 34.4159 35.6363 34.3574 35.6341 34.2977C35.6319 34.2381 35.6424 34.1787 35.6647 34.1233C35.6871 34.068 35.7209 34.018 35.7639 33.9766C35.807 33.9352 35.8582 33.9034 35.9144 33.8832C36.6071 33.561 37.2498 33.1409 37.823 32.6357C37.823 32.6357 35.9643 32.2366 35.6524 32.0993C35.488 32.0289 35.3363 31.932 35.2033 31.8124C34.6046 31.2137 34.8416 28.357 35.0786 26.8227C35.0873 26.6998 35.14 26.5842 35.2271 26.4972C35.3142 26.4101 35.4298 26.3573 35.5526 26.3486C35.6768 26.357 35.794 26.4093 35.8831 26.4961C35.9722 26.583 36.0276 26.6987 36.0391 26.8227C35.8203 28.2382 35.7784 29.6755 35.9144 31.1014C36.2479 31.2651 36.6158 31.3464 36.9872 31.3384C37.9352 31.4631 38.771 31.7002 38.771 32.4112C38.771 33.6337 36.351 34.5194 36.1514 34.7065Z" fill="#414141"/>
<path d="M36.8609 30.314C35.9752 29.8649 38.1083 27.2578 41.1396 28.5302C41.1991 28.5492 41.254 28.5804 41.3007 28.6218C41.3475 28.6632 41.3851 28.7139 41.4112 28.7707C41.4372 28.8274 41.4511 28.889 41.4521 28.9515C41.453 29.0139 41.4408 29.0759 41.4164 29.1334C41.392 29.1909 41.3559 29.2427 41.3104 29.2854C41.2648 29.3282 41.2109 29.3609 41.152 29.3817C41.093 29.4024 41.0304 29.4106 40.9682 29.4057C40.9059 29.4009 40.8453 29.3831 40.7903 29.3535C40.532 29.1881 40.2434 29.0755 39.9412 29.0223C39.6391 28.9691 39.3294 28.9764 39.0301 29.0437C38.7308 29.111 38.4478 29.2369 38.1975 29.4143C37.9472 29.5917 37.7346 29.8169 37.5719 30.077C37.3349 30.314 36.9856 30.4887 36.8609 30.314Z" fill="#414141"/>
<path d="M32.5824 30.1914C32.4702 30.1914 32.2332 30.0791 32.2332 29.9544C31.8749 29.4648 31.3505 29.1226 30.7581 28.9917C30.1657 28.8609 29.546 28.9503 29.0148 29.2433C28.9039 29.2897 28.7792 29.2901 28.6681 29.2444C28.557 29.1988 28.4686 29.1109 28.4222 29.0001C28.3759 28.8893 28.3755 28.7646 28.4211 28.6534C28.4668 28.5423 28.5547 28.4539 28.6655 28.4076C29.4063 28.0395 30.2534 27.9453 31.057 28.1417C31.8606 28.338 32.5688 28.8122 33.0565 29.4804C33.1812 29.5926 33.0565 30.1914 32.5824 30.1914Z" fill="#414141"/>
<path d="M31.272 35.5395C31.1926 35.4287 31.1604 35.2909 31.1827 35.1563C31.2049 35.0218 31.2796 34.9017 31.3905 34.8223C31.5013 34.7429 31.6391 34.7107 31.7737 34.733C31.9082 34.7552 32.0283 34.8299 32.1077 34.9408C32.555 35.5945 33.2317 36.0561 34.0035 36.2341C34.7754 36.412 35.5859 36.2932 36.2742 35.9013C36.3292 35.8717 36.3898 35.8539 36.4521 35.8491C36.5143 35.8442 36.5769 35.8524 36.6359 35.8731C36.6948 35.8938 36.7487 35.9266 36.7943 35.9694C36.8398 36.0121 36.8759 36.0639 36.9003 36.1214C36.9247 36.1789 36.9369 36.2409 36.936 36.3033C36.9351 36.3658 36.9211 36.4273 36.8951 36.4841C36.869 36.5409 36.8314 36.5916 36.7846 36.633C36.7379 36.6744 36.683 36.7056 36.6235 36.7246C35.7529 37.2631 34.7065 37.4405 33.707 37.2192C32.7075 36.9979 31.8339 36.3952 31.272 35.5395Z" fill="#414141"/>
<path d="M36.861 24.7261C37.392 24.1478 38.1053 23.7692 38.8819 23.6533C39.3026 23.6516 39.7194 23.7346 40.1073 23.8975C40.4953 24.0604 40.8464 24.2998 41.1397 24.6014C41.1964 24.6418 41.2426 24.6951 41.2744 24.757C41.3063 24.8188 41.3229 24.8874 41.3229 24.9569C41.3229 25.0265 41.3063 25.095 41.2744 25.1569C41.2426 25.2187 41.1964 25.2721 41.1397 25.3124C41.0978 25.3668 41.0439 25.4108 40.9823 25.4411C40.9206 25.4714 40.8529 25.4872 40.7842 25.4872C40.7155 25.4872 40.6478 25.4714 40.5861 25.4411C40.5245 25.4108 40.4706 25.3668 40.4287 25.3124C40.2472 25.0849 40.0078 24.9104 39.7357 24.8072C39.4635 24.7041 39.1686 24.6761 38.8819 24.7261C38.6054 24.7543 38.3373 24.8372 38.0931 24.97C37.849 25.1028 37.6337 25.2828 37.4598 25.4996C37.1604 25.6992 36.4369 25.5869 36.861 24.7261Z" fill="#414141"/>
<path d="M32.8194 25.3125C32.3285 24.77 31.6518 24.4317 30.9233 24.3644C30.2274 24.4346 29.5869 24.775 29.1394 25.3125C29.0962 25.367 29.0412 25.4111 28.9786 25.4414C28.916 25.4717 28.8473 25.4874 28.7777 25.4874C28.7081 25.4874 28.6394 25.4717 28.5768 25.4414C28.5141 25.4111 28.4591 25.367 28.4159 25.3125C28.3616 25.2705 28.3175 25.2167 28.2873 25.155C28.257 25.0934 28.2412 25.0256 28.2412 24.957C28.2412 24.8883 28.257 24.8205 28.2873 24.7589C28.3175 24.6973 28.3616 24.6434 28.4159 24.6014C28.7077 24.2156 29.0847 23.9022 29.5174 23.6859C29.9502 23.4695 30.427 23.3559 30.9108 23.354C31.8897 23.4842 32.8024 23.9209 33.518 24.6014C33.9171 25.3624 33.1313 25.6243 32.8194 25.3125Z" fill="#414141"/>
<path d="M27.6442 34.1281C27.7971 34.1664 27.9549 34.18 28.1082 34.168C28.2615 34.156 28.4073 34.1188 28.537 34.0584C28.6667 33.998 28.7778 33.9156 28.8637 33.8163C28.9496 33.7169 29.0086 33.6024 29.0372 33.4796C29.0658 33.3567 29.0635 33.228 29.0304 33.1008C28.9974 32.9737 28.9341 32.8508 28.8445 32.7393C28.7548 32.6277 28.6405 32.5298 28.5083 32.4513C28.3761 32.3728 28.2287 32.3152 28.0745 32.2819C27.9216 32.2436 27.7639 32.23 27.6106 32.242C27.4572 32.254 27.3115 32.2913 27.1817 32.3517C27.052 32.4121 26.9409 32.4944 26.855 32.5938C26.7691 32.6932 26.7102 32.8076 26.6815 32.9305C26.6529 33.0533 26.6552 33.1821 26.6883 33.3092C26.7214 33.4363 26.7846 33.5592 26.8742 33.6708C26.9639 33.7823 27.0782 33.8802 27.2104 33.9587C27.3426 34.0373 27.4901 34.0949 27.6442 34.1281Z" fill="#FDAF31"/>
<path d="M39.8819 33.8389C39.9378 33.9511 40.0209 34.0481 40.1263 34.1244C40.2318 34.2008 40.3575 34.2549 40.4963 34.2836C40.635 34.3123 40.784 34.3151 40.9346 34.2918C41.0852 34.2685 41.2344 34.2196 41.3737 34.1479C41.5129 34.0761 41.6394 33.983 41.7459 33.8739C41.8523 33.7648 41.9366 33.6419 41.9938 33.5122C42.051 33.3826 42.08 33.2488 42.0791 33.1186C42.0783 32.9884 42.0476 32.8643 41.9888 32.7537C41.9329 32.6415 41.8498 32.5445 41.7443 32.4681C41.6388 32.3918 41.5131 32.3377 41.3744 32.309C41.2357 32.2803 41.0867 32.2775 40.9361 32.3008C40.7855 32.3241 40.6362 32.373 40.497 32.4447C40.3577 32.5165 40.2312 32.6096 40.1248 32.7187C40.0183 32.8278 39.9341 32.9507 39.8769 33.0804C39.8197 33.21 39.7907 33.3438 39.7915 33.474C39.7924 33.6042 39.8231 33.7282 39.8819 33.8389Z" fill="#FDAF31"/>
<path d="M27.4217 58.558C25.4906 56.4993 25.1672 50.9974 25.2469 48.5038C15.3531 45.6648 4.98002 57.8156 4.66036 67.815C17.9514 80.8331 28.0553 81.5155 49.3859 74.2371C49.7853 61.7425 47.5308 54.1819 35.2214 48.8227C33.4793 51.2631 29.9791 56.6428 29.9153 58.6377L29.2776 78.5866C29.4636 72.7681 29.3528 60.6166 27.4217 58.558Z" fill="#005BC3" stroke="#414141" stroke-width="0.997953"/>
</g>
<circle cx="49" cy="48" r="11.25" fill="#005BC3" stroke="white" stroke-width="1.5"/>
<path d="M46.501 50.5L51.501 45.5M51.501 45.5H46.501M51.501 45.5V50.5" stroke="white" stroke-width="0.9" stroke-linecap="round" stroke-linejoin="round"/>
<defs>
<clipPath id="clip0_626_51689">
<rect x="0.5" width="60" height="60" rx="30" fill="white"/>
</clipPath>
</defs>
</svg>
