<svg width="15" height="16" viewBox="0 0 15 16" fill="none" xmlns="http://www.w3.org/2000/svg">
<path d="M10 5.49995V3.31286C10 2.79303 10 2.53311 9.8905 2.37337C9.79482 2.23382 9.64665 2.13901 9.47985 2.11063C9.28893 2.07814 9.05293 2.18706 8.58094 2.4049L3.03688 4.9637C2.61594 5.15798 2.40547 5.25512 2.25132 5.40578C2.11504 5.53896 2.01101 5.70155 1.94719 5.8811C1.875 6.0842 1.875 6.316 1.875 6.77962V9.87495M10.3125 9.56245H10.3188M1.875 7.49995L1.875 11.625C1.875 12.325 1.875 12.6751 2.01124 12.9424C2.13108 13.1776 2.32231 13.3689 2.55751 13.4887C2.8249 13.625 3.17493 13.625 3.875 13.625H11.125C11.8251 13.625 12.1751 13.625 12.4425 13.4887C12.6777 13.3689 12.8689 13.1776 12.9888 12.9424C13.125 12.6751 13.125 12.325 13.125 11.625V7.49995C13.125 6.79989 13.125 6.44986 12.9888 6.18247C12.8689 5.94726 12.6777 5.75604 12.4425 5.6362C12.1751 5.49995 11.8251 5.49995 11.125 5.49995L3.875 5.49995C3.17493 5.49995 2.8249 5.49995 2.55751 5.6362C2.32231 5.75604 2.13108 5.94726 2.01124 6.18247C1.875 6.44986 1.875 6.79989 1.875 7.49995ZM10.625 9.56245C10.625 9.73504 10.4851 9.87495 10.3125 9.87495C10.1399 9.87495 10 9.73504 10 9.56245C10 9.38986 10.1399 9.24995 10.3125 9.24995C10.4851 9.24995 10.625 9.38986 10.625 9.56245Z" stroke="#475569" stroke-width="1.125" stroke-linecap="round" stroke-linejoin="round"/>
</svg>
