<svg width="20" height="20" viewBox="0 0 20 20" fill="none" xmlns="http://www.w3.org/2000/svg">
<path d="M10 1.66675C5.40002 1.66675 1.66669 5.40008 1.66669 10.0001C1.66669 14.6001 5.40002 18.3334 10 18.3334C14.6 18.3334 18.3334 14.6001 18.3334 10.0001C18.3334 5.40008 14.6 1.66675 10 1.66675ZM10 7.29175C9.65835 7.29175 9.37502 7.00841 9.37502 6.66675C9.37502 6.32508 9.65835 6.04175 10 6.04175C12.1834 6.04175 13.9584 7.81675 13.9584 10.0001C13.9584 12.1834 12.1834 13.9584 10 13.9584C9.65835 13.9584 9.37502 13.6751 9.37502 13.3334C9.37502 12.9917 9.65835 12.7084 10 12.7084C11.4917 12.7084 12.7084 11.4917 12.7084 10.0001C12.7084 8.50842 11.4917 7.29175 10 7.29175ZM10 16.4584C6.44169 16.4584 3.54169 13.5584 3.54169 10.0001C3.54169 9.65842 3.82502 9.37508 4.16669 9.37508C4.50835 9.37508 4.79169 9.65842 4.79169 10.0001C4.79169 12.8751 7.12502 15.2084 10 15.2084C12.875 15.2084 15.2084 12.8751 15.2084 10.0001C15.2084 7.12508 12.875 4.79175 10 4.79175C9.65835 4.79175 9.37502 4.50841 9.37502 4.16675C9.37502 3.82508 9.65835 3.54175 10 3.54175C13.5584 3.54175 16.4584 6.44175 16.4584 10.0001C16.4584 13.5584 13.5584 16.4584 10 16.4584Z" fill="#005BC3"/>
</svg>
