<svg width="351" height="89" viewBox="0 0 351 89" fill="none" xmlns="http://www.w3.org/2000/svg">
<g clip-path="url(#clip0_656_13152)">
<rect x="1" y="1" width="349" height="87" rx="10" fill="#E3F0FF"/>
<path d="M318.868 95C242.491 92.8622 224.97 89.9437 221.298 85.0076C218.074 79.8432 218.074 79.8432 255.445 51.175C272.384 38.1921 299.175 17.6307 307.885 8.8393C285.977 5.10436 263.909 2.55099 241.764 1.18883C240.885 1.38862 239.969 1.28473 239.148 0.892062C238.328 0.499392 237.644 -0.161891 237.196 -0.997006C236.805 -1.71037 236.599 -2.52271 236.598 -3.35016C236.598 -4.1776 236.804 -4.99015 237.194 -5.70386C237.584 -6.41756 238.145 -7.00657 238.818 -7.41003C239.492 -7.81349 240.253 -8.01678 241.025 -7.99892C242.144 -7.99892 316.796 -4.51598 318.744 5.8848C319.45 11.8178 312.643 18.5795 260.393 58.6453C250.317 66.3318 239.412 74.7389 233.154 79.9033C253.25 82.9538 309.81 85.1517 319.114 85.8242C320.196 85.939 321.197 86.4879 321.917 87.3609C322.638 88.2339 323.024 89.3666 322.999 90.5322C322.96 91.6979 322.514 92.8052 321.748 93.6332C320.982 94.4613 319.954 94.9494 318.868 95Z" fill="#C8E2FF"/>
<path d="M32.1631 40.1973H19.5771V22.748H24.0771V36.8223H32.1631V40.1973ZM47.6084 34.3965H37.9521C38.0146 35.4277 38.4053 36.2168 39.124 36.7637C39.8506 37.3105 40.917 37.584 42.3232 37.584C43.2139 37.584 44.0771 37.4238 44.9131 37.1035C45.749 36.7832 46.4092 36.4395 46.8936 36.0723H47.3623V39.459C46.4092 39.8418 45.5107 40.1191 44.667 40.291C43.8232 40.4629 42.8896 40.5488 41.8662 40.5488C39.2256 40.5488 37.2021 39.9551 35.7959 38.7676C34.3896 37.5801 33.6865 35.8887 33.6865 33.6934C33.6865 31.5215 34.3506 29.8027 35.6787 28.5371C37.0146 27.2637 38.8428 26.627 41.1631 26.627C43.3037 26.627 44.9131 27.1699 45.9912 28.2559C47.0693 29.334 47.6084 30.8887 47.6084 32.9199V34.3965ZM43.4131 31.9238C43.3896 31.041 43.1709 30.377 42.7568 29.9316C42.3428 29.4863 41.6982 29.2637 40.8232 29.2637C40.0107 29.2637 39.3428 29.4746 38.8193 29.8965C38.2959 30.3184 38.0029 30.9941 37.9404 31.9238H43.4131ZM58.999 40.0801C58.5459 40.1973 58.0654 40.2871 57.5576 40.3496C57.0498 40.4199 56.4287 40.4551 55.6943 40.4551C54.0537 40.4551 52.8311 40.123 52.0264 39.459C51.2295 38.7949 50.8311 37.6582 50.8311 36.0488V29.8965H49.0967V27.0371H50.8311V23.2754H55.0498V27.0371H58.999V29.8965H55.0498V34.5605C55.0498 35.0215 55.0537 35.4238 55.0615 35.7676C55.0693 36.1113 55.1318 36.4199 55.249 36.6934C55.3584 36.9668 55.5498 37.1855 55.8232 37.3496C56.1045 37.5059 56.5107 37.584 57.042 37.584C57.2607 37.584 57.5459 37.5371 57.8975 37.4434C58.2568 37.3496 58.5068 37.2637 58.6475 37.1855H58.999V40.0801ZM67.1318 21.9629L63.7217 28.8652H60.9795L62.8193 21.9629H67.1318ZM80.9365 36.0254C80.9365 37.3848 80.3271 38.4824 79.1084 39.3184C77.8896 40.1465 76.2217 40.5605 74.1045 40.5605C72.9326 40.5605 71.8701 40.4512 70.917 40.2324C69.9639 40.0137 69.1982 39.7715 68.6201 39.5059V36.0371H69.0068C69.2178 36.1855 69.46 36.3496 69.7334 36.5293C70.0146 36.7012 70.4092 36.8887 70.917 37.0918C71.3545 37.2715 71.8506 37.4277 72.4053 37.5605C72.96 37.6855 73.5537 37.748 74.1865 37.748C75.0146 37.748 75.6279 37.6582 76.0264 37.4785C76.4248 37.291 76.624 37.0176 76.624 36.6582C76.624 36.3379 76.5068 36.1074 76.2725 35.9668C76.0381 35.8184 75.5928 35.6777 74.9365 35.5449C74.624 35.4746 74.1982 35.4004 73.6592 35.3223C73.1279 35.2363 72.6436 35.1348 72.2061 35.0176C71.0107 34.7051 70.124 34.2207 69.5459 33.5645C68.9678 32.9004 68.6787 32.0762 68.6787 31.0918C68.6787 29.8262 69.2764 28.7754 70.4717 27.9395C71.6748 27.0957 73.3154 26.6738 75.3936 26.6738C76.3779 26.6738 77.3193 26.7754 78.2178 26.9785C79.124 27.1738 79.8311 27.3848 80.3389 27.6113V30.9395H79.9756C79.3506 30.5098 78.6357 30.1621 77.8311 29.8965C77.0342 29.623 76.2256 29.4863 75.4053 29.4863C74.7256 29.4863 74.1514 29.5801 73.6826 29.7676C73.2217 29.9551 72.9912 30.2207 72.9912 30.5645C72.9912 30.877 73.0967 31.1152 73.3076 31.2793C73.5186 31.4434 74.0146 31.6074 74.7959 31.7715C75.2256 31.8574 75.6865 31.9434 76.1787 32.0293C76.6787 32.1074 77.1787 32.209 77.6787 32.334C78.7881 32.623 79.6084 33.0801 80.1396 33.7051C80.6709 34.3223 80.9365 35.0957 80.9365 36.0254ZM106.155 34.7129C106.155 36.4316 105.425 37.8301 103.964 38.9082C102.511 39.9785 100.534 40.5137 98.0342 40.5137C96.5889 40.5137 95.3271 40.3887 94.249 40.1387C93.1787 39.8809 92.1748 39.5566 91.2373 39.166V34.9824H91.7295C92.6592 35.7246 93.6982 36.2949 94.8467 36.6934C96.0029 37.0918 97.1123 37.291 98.1748 37.291C98.4482 37.291 98.8076 37.2676 99.2529 37.2207C99.6982 37.1738 100.062 37.0957 100.343 36.9863C100.687 36.8457 100.968 36.6699 101.187 36.459C101.413 36.248 101.526 35.9355 101.526 35.5215C101.526 35.1387 101.362 34.8105 101.034 34.5371C100.714 34.2559 100.241 34.041 99.6162 33.8926C98.96 33.7363 98.2646 33.5918 97.5303 33.459C96.8037 33.3184 96.1201 33.1426 95.4795 32.9316C94.0107 32.4551 92.9521 31.8105 92.3037 30.998C91.6631 30.1777 91.3428 29.1621 91.3428 27.9512C91.3428 26.3262 92.0693 25.002 93.5225 23.9785C94.9834 22.9473 96.8584 22.4316 99.1475 22.4316C100.296 22.4316 101.429 22.5449 102.546 22.7715C103.671 22.9902 104.644 23.2676 105.464 23.6035V27.623H104.983C104.28 27.0605 103.417 26.5918 102.394 26.2168C101.378 25.834 100.339 25.6426 99.2764 25.6426C98.9014 25.6426 98.5264 25.6699 98.1514 25.7246C97.7842 25.7715 97.4287 25.8652 97.085 26.0059C96.7803 26.123 96.5186 26.3027 96.2998 26.5449C96.0811 26.7793 95.9717 27.0488 95.9717 27.3535C95.9717 27.8145 96.1475 28.1699 96.499 28.4199C96.8506 28.6621 97.5146 28.8848 98.4912 29.0879C99.1318 29.2207 99.7451 29.3496 100.331 29.4746C100.925 29.5996 101.562 29.7715 102.241 29.9902C103.577 30.4277 104.562 31.0254 105.194 31.7832C105.835 32.5332 106.155 33.5098 106.155 34.7129ZM117.429 40.0801C116.976 40.1973 116.495 40.2871 115.987 40.3496C115.479 40.4199 114.858 40.4551 114.124 40.4551C112.483 40.4551 111.261 40.123 110.456 39.459C109.659 38.7949 109.261 37.6582 109.261 36.0488V29.8965H107.526V27.0371H109.261V23.2754H113.479V27.0371H117.429V29.8965H113.479V34.5605C113.479 35.0215 113.483 35.4238 113.491 35.7676C113.499 36.1113 113.562 36.4199 113.679 36.6934C113.788 36.9668 113.979 37.1855 114.253 37.3496C114.534 37.5059 114.94 37.584 115.472 37.584C115.69 37.584 115.976 37.5371 116.327 37.4434C116.687 37.3496 116.937 37.2637 117.077 37.1855H117.429V40.0801ZM127.929 36.7637V34.0215C127.358 34.0684 126.741 34.1348 126.077 34.2207C125.413 34.2988 124.909 34.3926 124.565 34.502C124.144 34.6348 123.819 34.8301 123.593 35.0879C123.374 35.3379 123.265 35.6699 123.265 36.084C123.265 36.3574 123.288 36.5801 123.335 36.752C123.382 36.9238 123.499 37.0879 123.687 37.2441C123.866 37.4004 124.081 37.5176 124.331 37.5957C124.581 37.666 124.972 37.7012 125.503 37.7012C125.925 37.7012 126.351 37.6152 126.78 37.4434C127.218 37.2715 127.601 37.0449 127.929 36.7637ZM127.929 38.8027C127.702 38.9746 127.421 39.1816 127.085 39.4238C126.749 39.666 126.433 39.8574 126.136 39.998C125.722 40.1855 125.292 40.3223 124.847 40.4082C124.401 40.502 123.913 40.5488 123.382 40.5488C122.132 40.5488 121.085 40.1621 120.241 39.3887C119.397 38.6152 118.976 37.627 118.976 36.4238C118.976 35.4629 119.19 34.6777 119.62 34.0684C120.05 33.459 120.659 32.9785 121.448 32.627C122.229 32.2754 123.198 32.0254 124.354 31.877C125.511 31.7285 126.71 31.6191 127.952 31.5488V31.4785C127.952 30.752 127.655 30.252 127.062 29.9785C126.468 29.6973 125.593 29.5566 124.437 29.5566C123.741 29.5566 122.999 29.6816 122.21 29.9316C121.421 30.1738 120.854 30.3613 120.511 30.4941H120.124V27.3184C120.569 27.2012 121.292 27.0645 122.292 26.9082C123.3 26.7441 124.308 26.6621 125.315 26.6621C127.714 26.6621 129.444 27.0332 130.507 27.7754C131.577 28.5098 132.112 29.666 132.112 31.2441V40.1973H127.929V38.8027ZM145.53 31.0566H145.155C144.976 30.9941 144.687 30.9473 144.288 30.916C143.89 30.8848 143.558 30.8691 143.292 30.8691C142.69 30.8691 142.159 30.9082 141.698 30.9863C141.237 31.0645 140.741 31.1973 140.21 31.3848V40.1973H135.991V27.0371H140.21V28.9707C141.14 28.1738 141.948 27.6465 142.636 27.3887C143.323 27.123 143.956 26.9902 144.534 26.9902C144.683 26.9902 144.851 26.9941 145.038 27.002C145.226 27.0098 145.39 27.0215 145.53 27.0371V31.0566ZM156.335 40.0801C155.882 40.1973 155.401 40.2871 154.894 40.3496C154.386 40.4199 153.765 40.4551 153.03 40.4551C151.39 40.4551 150.167 40.123 149.362 39.459C148.565 38.7949 148.167 37.6582 148.167 36.0488V29.8965H146.433V27.0371H148.167V23.2754H152.386V27.0371H156.335V29.8965H152.386V34.5605C152.386 35.0215 152.39 35.4238 152.397 35.7676C152.405 36.1113 152.468 36.4199 152.585 36.6934C152.694 36.9668 152.886 37.1855 153.159 37.3496C153.44 37.5059 153.847 37.584 154.378 37.584C154.597 37.584 154.882 37.5371 155.233 37.4434C155.593 37.3496 155.843 37.2637 155.983 37.1855H156.335V40.0801Z" fill="url(#paint0_linear_656_13152)"/>
<path d="M25.4014 55.4727L22.2256 64.1973H20.6787L17.5029 55.4727H18.7451L21.4814 63.1484L24.2178 55.4727H25.4014ZM27.3413 56.5566H26.0991V55.4141H27.3413V56.5566ZM27.271 64.1973H26.1694V57.6523H27.271V64.1973ZM34.4492 61.0391H29.6269C29.6269 61.4414 29.6875 61.793 29.8086 62.0938C29.9296 62.3906 30.0957 62.6348 30.3066 62.8262C30.5097 63.0137 30.75 63.1543 31.0273 63.248C31.3086 63.3418 31.6171 63.3887 31.9531 63.3887C32.3984 63.3887 32.8457 63.3008 33.2949 63.125C33.748 62.9453 34.0703 62.7695 34.2617 62.5977H34.3203V63.7988C33.9492 63.9551 33.5703 64.0859 33.1836 64.1914C32.7968 64.2969 32.3906 64.3496 31.9648 64.3496C30.8789 64.3496 30.0312 64.0566 29.4218 63.4707C28.8125 62.8809 28.5078 62.0449 28.5078 60.9629C28.5078 59.8926 28.7988 59.043 29.3808 58.4141C29.9668 57.7852 30.7363 57.4707 31.6894 57.4707C32.5722 57.4707 33.2519 57.7285 33.7285 58.2441C34.2089 58.7598 34.4492 59.4922 34.4492 60.4414V61.0391ZM33.3769 60.1953C33.373 59.6172 33.2265 59.1699 32.9375 58.8535C32.6523 58.5371 32.2168 58.3789 31.6308 58.3789C31.041 58.3789 30.5703 58.5527 30.2187 58.9004C29.8711 59.248 29.6738 59.6797 29.6269 60.1953H33.3769ZM43.8715 57.6523L42.1664 64.1973H41.1469L39.4653 59.1523L37.7954 64.1973H36.7817L35.059 57.6523H36.2075L37.4086 62.7207L39.0434 57.6523H39.9516L41.6274 62.7207L42.7641 57.6523H43.8715ZM54.9818 55.4727L51.9115 60.3711V64.1973H50.7514V60.4941L47.6693 55.4727H48.9525L51.3373 59.375L53.7455 55.4727H54.9818ZM60.4374 60.9277C60.4374 61.9941 60.1639 62.8359 59.6171 63.4531C59.0702 64.0703 58.3378 64.3789 57.4198 64.3789C56.494 64.3789 55.7577 64.0703 55.2108 63.4531C54.6679 62.8359 54.3964 61.9941 54.3964 60.9277C54.3964 59.8613 54.6679 59.0195 55.2108 58.4023C55.7577 57.7812 56.494 57.4707 57.4198 57.4707C58.3378 57.4707 59.0702 57.7812 59.6171 58.4023C60.1639 59.0195 60.4374 59.8613 60.4374 60.9277ZM59.3007 60.9277C59.3007 60.0801 59.1346 59.4512 58.8026 59.041C58.4706 58.627 58.0096 58.4199 57.4198 58.4199C56.8221 58.4199 56.3573 58.627 56.0253 59.041C55.6971 59.4512 55.5331 60.0801 55.5331 60.9277C55.5331 61.748 55.6991 62.3711 56.0311 62.7969C56.3632 63.2188 56.8261 63.4297 57.4198 63.4297C58.0057 63.4297 58.4647 63.2207 58.7968 62.8027C59.1327 62.3809 59.3007 61.7559 59.3007 60.9277ZM67.0941 64.1973H65.9925V63.4707C65.6214 63.7637 65.266 63.9883 64.9261 64.1445C64.5863 64.3008 64.2113 64.3789 63.8011 64.3789C63.1136 64.3789 62.5785 64.1699 62.1957 63.752C61.8129 63.3301 61.6214 62.7129 61.6214 61.9004V57.6523H62.723V61.3789C62.723 61.7109 62.7386 61.9961 62.7699 62.2344C62.8011 62.4688 62.8675 62.6699 62.9691 62.8379C63.0746 63.0098 63.2113 63.1348 63.3793 63.2129C63.5472 63.291 63.7914 63.3301 64.1117 63.3301C64.3968 63.3301 64.7074 63.2559 65.0433 63.1074C65.3832 62.959 65.6996 62.7695 65.9925 62.5391V57.6523H67.0941V64.1973ZM72.8661 58.8535H72.8075C72.6434 58.8145 72.4832 58.7871 72.327 58.7715C72.1746 58.752 71.993 58.7422 71.7821 58.7422C71.4422 58.7422 71.1141 58.8184 70.7977 58.9707C70.4813 59.1191 70.1766 59.3125 69.8836 59.5508V64.1973H68.7821V57.6523H69.8836V58.6191C70.3211 58.2676 70.7059 58.0195 71.0379 57.875C71.3739 57.7266 71.7157 57.6523 72.0633 57.6523C72.2547 57.6523 72.3934 57.6582 72.4793 57.6699C72.5653 57.6777 72.6942 57.6953 72.8661 57.7227V58.8535ZM82.9568 58.1094C82.9568 58.4961 82.8885 58.8555 82.7518 59.1875C82.6189 59.5156 82.4314 59.8008 82.1893 60.043C81.8885 60.3438 81.533 60.5703 81.1229 60.7227C80.7127 60.8711 80.1951 60.9453 79.5701 60.9453H78.41V64.1973H77.2498V55.4727H79.617C80.1404 55.4727 80.5838 55.5176 80.9471 55.6074C81.3104 55.6934 81.6326 55.8301 81.9139 56.0176C82.2459 56.2402 82.5018 56.5176 82.6814 56.8496C82.865 57.1816 82.9568 57.6016 82.9568 58.1094ZM81.7498 58.1387C81.7498 57.8379 81.6971 57.5762 81.5916 57.3535C81.4861 57.1309 81.326 56.9492 81.1111 56.8086C80.9236 56.6875 80.7088 56.6016 80.4666 56.5508C80.2283 56.4961 79.9256 56.4688 79.5584 56.4688H78.41V59.9551H79.3885C79.8572 59.9551 80.2381 59.9141 80.5311 59.832C80.824 59.7461 81.0623 59.6113 81.2459 59.4277C81.4295 59.2402 81.5584 59.043 81.6326 58.8359C81.7107 58.6289 81.7498 58.3965 81.7498 58.1387ZM88.7171 64.1973H87.6214V63.5C87.5237 63.5664 87.3909 63.6602 87.2229 63.7812C87.0589 63.8984 86.8987 63.9922 86.7425 64.0625C86.5589 64.1523 86.3479 64.2266 86.1096 64.2852C85.8714 64.3477 85.5921 64.3789 85.2718 64.3789C84.6819 64.3789 84.1819 64.1836 83.7718 63.793C83.3616 63.4023 83.1565 62.9043 83.1565 62.2988C83.1565 61.8027 83.262 61.4023 83.4729 61.0977C83.6878 60.7891 83.9925 60.5469 84.387 60.3711C84.7854 60.1953 85.2639 60.0762 85.8225 60.0137C86.3811 59.9512 86.9807 59.9043 87.6214 59.873V59.7031C87.6214 59.4531 87.5764 59.2461 87.4866 59.082C87.4007 58.918 87.2757 58.7891 87.1116 58.6953C86.9554 58.6055 86.7679 58.5449 86.5491 58.5137C86.3304 58.4824 86.1018 58.4668 85.8636 58.4668C85.5745 58.4668 85.2522 58.5059 84.8968 58.584C84.5413 58.6582 84.1741 58.7676 83.7952 58.9121H83.7366V57.793C83.9514 57.7344 84.262 57.6699 84.6682 57.5996C85.0745 57.5293 85.4749 57.4941 85.8694 57.4941C86.3304 57.4941 86.7307 57.5332 87.0706 57.6113C87.4143 57.6855 87.7112 57.8145 87.9612 57.998C88.2073 58.1777 88.3948 58.4102 88.5237 58.6953C88.6526 58.9805 88.7171 59.334 88.7171 59.7559V64.1973ZM87.6214 62.5859V60.7637C87.2854 60.7832 86.8889 60.8125 86.4319 60.8516C85.9788 60.8906 85.6194 60.9473 85.3538 61.0215C85.0374 61.1113 84.7815 61.252 84.5862 61.4434C84.3909 61.6309 84.2932 61.8906 84.2932 62.2227C84.2932 62.5977 84.4065 62.8809 84.6331 63.0723C84.8596 63.2598 85.2054 63.3535 85.6702 63.3535C86.0569 63.3535 86.4104 63.2793 86.7307 63.1309C87.0511 62.9785 87.3479 62.7969 87.6214 62.5859ZM95.9246 57.6523L92.1043 66.6113H90.9265L92.1453 63.8809L89.5378 57.6523H90.7332L92.7429 62.5039L94.7703 57.6523H95.9246ZM101.562 62.3105C101.562 62.9082 101.314 63.3984 100.818 63.7812C100.325 64.1641 99.6516 64.3555 98.7961 64.3555C98.3118 64.3555 97.8664 64.2988 97.4602 64.1855C97.0579 64.0684 96.72 63.9414 96.4465 63.8047V62.5684H96.5051C96.8528 62.8301 97.2395 63.0391 97.6653 63.1953C98.0911 63.3477 98.4993 63.4238 98.8899 63.4238C99.3743 63.4238 99.7532 63.3457 100.027 63.1895C100.3 63.0332 100.437 62.7871 100.437 62.4512C100.437 62.1934 100.363 61.998 100.214 61.8652C100.066 61.7324 99.7805 61.6191 99.3586 61.5254C99.2024 61.4902 98.9973 61.4492 98.7434 61.4023C98.4934 61.3555 98.2649 61.3047 98.0579 61.25C97.4836 61.0977 97.0754 60.875 96.8332 60.582C96.595 60.2852 96.4758 59.9219 96.4758 59.4922C96.4758 59.2227 96.5305 58.9688 96.6399 58.7305C96.7532 58.4922 96.9231 58.2793 97.1497 58.0918C97.3684 57.9082 97.6457 57.7637 97.9817 57.6582C98.3215 57.5488 98.7004 57.4941 99.1184 57.4941C99.509 57.4941 99.9036 57.543 100.302 57.6406C100.704 57.7344 101.038 57.8496 101.304 57.9863V59.1641H101.245C100.964 58.957 100.622 58.7832 100.22 58.6426C99.8176 58.498 99.4231 58.4258 99.0364 58.4258C98.634 58.4258 98.2942 58.5039 98.0168 58.6602C97.7395 58.8125 97.6008 59.041 97.6008 59.3457C97.6008 59.6152 97.6848 59.8184 97.8528 59.9551C98.0168 60.0918 98.2825 60.2031 98.6497 60.2891C98.8528 60.3359 99.0793 60.3828 99.3293 60.4297C99.5832 60.4766 99.7942 60.5195 99.9622 60.5586C100.474 60.6758 100.868 60.877 101.146 61.1621C101.423 61.4512 101.562 61.834 101.562 62.3105ZM103.777 64.1973H102.676V55.0801H103.777V64.1973ZM106.66 56.5566H105.418V55.4141H106.66V56.5566ZM106.59 64.1973H105.488V57.6523H106.59V64.1973ZM114.049 60.8457C114.049 61.377 113.973 61.8633 113.821 62.3047C113.669 62.7422 113.454 63.1133 113.176 63.418C112.919 63.707 112.614 63.9316 112.262 64.0918C111.915 64.248 111.546 64.3262 111.155 64.3262C110.815 64.3262 110.507 64.2891 110.229 64.2148C109.956 64.1406 109.676 64.0254 109.391 63.8691V66.6113H108.29V57.6523H109.391V58.3379C109.684 58.0918 110.012 57.8867 110.376 57.7227C110.743 57.5547 111.133 57.4707 111.548 57.4707C112.337 57.4707 112.95 57.7695 113.387 58.3672C113.829 58.9609 114.049 59.7871 114.049 60.8457ZM112.913 60.875C112.913 60.0859 112.778 59.4961 112.508 59.1055C112.239 58.7148 111.825 58.5195 111.266 58.5195C110.95 58.5195 110.632 58.5879 110.311 58.7246C109.991 58.8613 109.684 59.041 109.391 59.2637V62.9727C109.704 63.1133 109.971 63.209 110.194 63.2598C110.421 63.3105 110.676 63.3359 110.962 63.3359C111.575 63.3359 112.053 63.1289 112.397 62.7148C112.741 62.3008 112.913 61.6875 112.913 60.875ZM124.111 64.1973H123.015V63.5C122.918 63.5664 122.785 63.6602 122.617 63.7812C122.453 63.8984 122.293 63.9922 122.136 64.0625C121.953 64.1523 121.742 64.2266 121.504 64.2852C121.265 64.3477 120.986 64.3789 120.666 64.3789C120.076 64.3789 119.576 64.1836 119.166 63.793C118.756 63.4023 118.55 62.9043 118.55 62.2988C118.55 61.8027 118.656 61.4023 118.867 61.0977C119.082 60.7891 119.386 60.5469 119.781 60.3711C120.179 60.1953 120.658 60.0762 121.216 60.0137C121.775 59.9512 122.375 59.9043 123.015 59.873V59.7031C123.015 59.4531 122.97 59.2461 122.881 59.082C122.795 58.918 122.67 58.7891 122.506 58.6953C122.349 58.6055 122.162 58.5449 121.943 58.5137C121.724 58.4824 121.496 58.4668 121.257 58.4668C120.968 58.4668 120.646 58.5059 120.291 58.584C119.935 58.6582 119.568 58.7676 119.189 58.9121H119.131V57.793C119.345 57.7344 119.656 57.6699 120.062 57.5996C120.468 57.5293 120.869 57.4941 121.263 57.4941C121.724 57.4941 122.125 57.5332 122.464 57.6113C122.808 57.6855 123.105 57.8145 123.355 57.998C123.601 58.1777 123.789 58.4102 123.918 58.6953C124.047 58.9805 124.111 59.334 124.111 59.7559V64.1973ZM123.015 62.5859V60.7637C122.679 60.7832 122.283 60.8125 121.826 60.8516C121.373 60.8906 121.013 60.9473 120.748 61.0215C120.431 61.1113 120.175 61.252 119.98 61.4434C119.785 61.6309 119.687 61.8906 119.687 62.2227C119.687 62.5977 119.8 62.8809 120.027 63.0723C120.254 63.2598 120.599 63.3535 121.064 63.3535C121.451 63.3535 121.804 63.2793 122.125 63.1309C122.445 62.9785 122.742 62.7969 123.015 62.5859ZM131.225 64.1973H130.123V60.4707C130.123 60.1699 130.106 59.8887 130.07 59.627C130.035 59.3613 129.971 59.1543 129.877 59.0059C129.779 58.8418 129.639 58.7207 129.455 58.6426C129.272 58.5605 129.033 58.5195 128.74 58.5195C128.44 58.5195 128.125 58.5938 127.797 58.7422C127.469 58.8906 127.154 59.0801 126.854 59.3105V64.1973H125.752V57.6523H126.854V58.3789C127.197 58.0938 127.553 57.8711 127.92 57.7109C128.287 57.5508 128.664 57.4707 129.051 57.4707C129.758 57.4707 130.297 57.6836 130.668 58.1094C131.039 58.5352 131.225 59.1484 131.225 59.9492V64.1973ZM138.174 64.1973H137.073V63.5117C136.756 63.7852 136.426 63.998 136.083 64.1504C135.739 64.3027 135.366 64.3789 134.963 64.3789C134.182 64.3789 133.561 64.0781 133.1 63.4766C132.643 62.875 132.415 62.041 132.415 60.9746C132.415 60.4199 132.493 59.9258 132.649 59.4922C132.809 59.0586 133.024 58.6895 133.294 58.3848C133.559 58.0879 133.868 57.8613 134.219 57.7051C134.575 57.5488 134.942 57.4707 135.321 57.4707C135.665 57.4707 135.969 57.5078 136.235 57.582C136.501 57.6523 136.78 57.7637 137.073 57.916V55.0801H138.174V64.1973ZM137.073 62.5859V58.8301C136.776 58.6973 136.51 58.6055 136.276 58.5547C136.042 58.5039 135.786 58.4785 135.508 58.4785C134.891 58.4785 134.411 58.6934 134.067 59.123C133.723 59.5527 133.551 60.1621 133.551 60.9512C133.551 61.7285 133.684 62.3203 133.95 62.7266C134.215 63.1289 134.641 63.3301 135.227 63.3301C135.54 63.3301 135.856 63.2617 136.176 63.125C136.497 62.9844 136.796 62.8047 137.073 62.5859ZM151.06 59.8438C151.06 60.6367 150.886 61.3555 150.539 62C150.195 62.6445 149.736 63.1445 149.162 63.5C148.763 63.7461 148.318 63.9238 147.826 64.0332C147.337 64.1426 146.693 64.1973 145.892 64.1973H143.689V55.4727H145.869C146.72 55.4727 147.396 55.5352 147.896 55.6602C148.4 55.7812 148.826 55.9492 149.173 56.1641C149.767 56.5352 150.23 57.0293 150.562 57.6465C150.894 58.2637 151.06 58.9961 151.06 59.8438ZM149.847 59.8262C149.847 59.1426 149.728 58.5664 149.49 58.0977C149.252 57.6289 148.896 57.2598 148.423 56.9902C148.08 56.7949 147.714 56.6602 147.328 56.5859C146.941 56.5078 146.478 56.4688 145.939 56.4688H144.849V63.2012H145.939C146.498 63.2012 146.984 63.1602 147.398 63.0781C147.816 62.9961 148.199 62.8438 148.546 62.6211C148.98 62.3438 149.304 61.9785 149.519 61.5254C149.738 61.0723 149.847 60.5059 149.847 59.8262ZM157.945 60.9277C157.945 61.9941 157.672 62.8359 157.125 63.4531C156.578 64.0703 155.846 64.3789 154.928 64.3789C154.002 64.3789 153.266 64.0703 152.719 63.4531C152.176 62.8359 151.904 61.9941 151.904 60.9277C151.904 59.8613 152.176 59.0195 152.719 58.4023C153.266 57.7812 154.002 57.4707 154.928 57.4707C155.846 57.4707 156.578 57.7812 157.125 58.4023C157.672 59.0195 157.945 59.8613 157.945 60.9277ZM156.809 60.9277C156.809 60.0801 156.643 59.4512 156.311 59.041C155.979 58.627 155.518 58.4199 154.928 58.4199C154.33 58.4199 153.865 58.627 153.533 59.041C153.205 59.4512 153.041 60.0801 153.041 60.9277C153.041 61.748 153.207 62.3711 153.539 62.7969C153.871 63.2188 154.334 63.4297 154.928 63.4297C155.514 63.4297 155.973 63.2207 156.305 62.8027C156.641 62.3809 156.809 61.7559 156.809 60.9277ZM167.409 57.6523L165.704 64.1973H164.684L163.002 59.1523L161.333 64.1973H160.319L158.596 57.6523H159.745L160.946 62.7207L162.581 57.6523H163.489L165.165 62.7207L166.301 57.6523H167.409ZM173.989 64.1973H172.888V60.4707C172.888 60.1699 172.87 59.8887 172.835 59.627C172.8 59.3613 172.735 59.1543 172.642 59.0059C172.544 58.8418 172.403 58.7207 172.22 58.6426C172.036 58.5605 171.798 58.5195 171.505 58.5195C171.204 58.5195 170.89 58.5938 170.562 58.7422C170.233 58.8906 169.919 59.0801 169.618 59.3105V64.1973H168.517V57.6523H169.618V58.3789C169.962 58.0938 170.317 57.8711 170.685 57.7109C171.052 57.5508 171.429 57.4707 171.815 57.4707C172.522 57.4707 173.062 57.6836 173.433 58.1094C173.804 58.5352 173.989 59.1484 173.989 59.9492V64.1973ZM176.744 64.1973H175.642V55.0801H176.744V64.1973ZM184.021 60.9277C184.021 61.9941 183.748 62.8359 183.201 63.4531C182.654 64.0703 181.922 64.3789 181.004 64.3789C180.078 64.3789 179.342 64.0703 178.795 63.4531C178.252 62.8359 177.98 61.9941 177.98 60.9277C177.98 59.8613 178.252 59.0195 178.795 58.4023C179.342 57.7812 180.078 57.4707 181.004 57.4707C181.922 57.4707 182.654 57.7812 183.201 58.4023C183.748 59.0195 184.021 59.8613 184.021 60.9277ZM182.885 60.9277C182.885 60.0801 182.719 59.4512 182.387 59.041C182.055 58.627 181.594 58.4199 181.004 58.4199C180.406 58.4199 179.941 58.627 179.609 59.041C179.281 59.4512 179.117 60.0801 179.117 60.9277C179.117 61.748 179.283 62.3711 179.615 62.7969C179.947 63.2188 180.41 63.4297 181.004 63.4297C181.59 63.4297 182.049 63.2207 182.381 62.8027C182.717 62.3809 182.885 61.7559 182.885 60.9277ZM190.338 64.1973H189.243V63.5C189.145 63.5664 189.012 63.6602 188.844 63.7812C188.68 63.8984 188.52 63.9922 188.364 64.0625C188.18 64.1523 187.969 64.2266 187.731 64.2852C187.493 64.3477 187.213 64.3789 186.893 64.3789C186.303 64.3789 185.803 64.1836 185.393 63.793C184.983 63.4023 184.778 62.9043 184.778 62.2988C184.778 61.8027 184.883 61.4023 185.094 61.0977C185.309 60.7891 185.614 60.5469 186.008 60.3711C186.407 60.1953 186.885 60.0762 187.444 60.0137C188.002 59.9512 188.602 59.9043 189.243 59.873V59.7031C189.243 59.4531 189.198 59.2461 189.108 59.082C189.022 58.918 188.897 58.7891 188.733 58.6953C188.577 58.6055 188.389 58.5449 188.17 58.5137C187.952 58.4824 187.723 58.4668 187.485 58.4668C187.196 58.4668 186.873 58.5059 186.518 58.584C186.163 58.6582 185.795 58.7676 185.416 58.9121H185.358V57.793C185.573 57.7344 185.883 57.6699 186.289 57.5996C186.696 57.5293 187.096 57.4941 187.491 57.4941C187.952 57.4941 188.352 57.5332 188.692 57.6113C189.036 57.6855 189.332 57.8145 189.582 57.998C189.829 58.1777 190.016 58.4102 190.145 58.6953C190.274 58.9805 190.338 59.334 190.338 59.7559V64.1973ZM189.243 62.5859V60.7637C188.907 60.7832 188.51 60.8125 188.053 60.8516C187.6 60.8906 187.241 60.9473 186.975 61.0215C186.659 61.1113 186.403 61.252 186.207 61.4434C186.012 61.6309 185.914 61.8906 185.914 62.2227C185.914 62.5977 186.028 62.8809 186.254 63.0723C186.481 63.2598 186.827 63.3535 187.291 63.3535C187.678 63.3535 188.032 63.2793 188.352 63.1309C188.672 62.9785 188.969 62.7969 189.243 62.5859ZM197.288 64.1973H196.186V63.5117C195.87 63.7852 195.54 63.998 195.196 64.1504C194.852 64.3027 194.479 64.3789 194.077 64.3789C193.296 64.3789 192.675 64.0781 192.214 63.4766C191.757 62.875 191.528 62.041 191.528 60.9746C191.528 60.4199 191.606 59.9258 191.763 59.4922C191.923 59.0586 192.138 58.6895 192.407 58.3848C192.673 58.0879 192.981 57.8613 193.333 57.7051C193.688 57.5488 194.056 57.4707 194.434 57.4707C194.778 57.4707 195.083 57.5078 195.349 57.582C195.614 57.6523 195.893 57.7637 196.186 57.916V55.0801H197.288V64.1973ZM196.186 62.5859V58.8301C195.89 58.6973 195.624 58.6055 195.39 58.5547C195.155 58.5039 194.899 58.4785 194.622 58.4785C194.005 58.4785 193.524 58.6934 193.181 59.123C192.837 59.5527 192.665 60.1621 192.665 60.9512C192.665 61.7285 192.798 62.3203 193.063 62.7266C193.329 63.1289 193.755 63.3301 194.341 63.3301C194.653 63.3301 194.97 63.2617 195.29 63.125C195.61 62.9844 195.909 62.8047 196.186 62.5859Z" fill="#384F69"/>
<path d="M338.15 40.7562C338.15 42.5892 337.121 44.018 334.86 44.1496C332.942 44.2389 331.57 42.6315 331.57 40.7562C331.57 39.8792 331.918 39.0382 332.538 38.4181C333.158 37.7981 333.999 37.4497 334.876 37.4497C335.753 37.4497 336.594 37.7981 337.214 38.4181C337.834 39.0382 338.183 39.8792 338.183 40.7562H338.15Z" fill="#FDAF31"/>
<path d="M330.744 23.384C331.034 23.5543 331.364 23.6485 331.716 23.6612C332.067 23.6739 332.434 23.6049 332.793 23.4581C333.153 23.3113 333.5 23.0896 333.812 22.8058C334.125 22.522 334.398 22.1816 334.616 21.8043C334.834 21.4271 334.992 21.0203 335.082 20.6075C335.171 20.1946 335.19 19.7839 335.137 19.3988C335.084 19.0138 334.961 18.662 334.774 18.3638C334.587 18.0656 334.341 17.8269 334.048 17.6613C333.759 17.491 333.429 17.3968 333.077 17.3841C332.726 17.3713 332.359 17.4404 331.999 17.5872C331.64 17.734 331.293 17.9557 330.98 18.2395C330.668 18.5233 330.394 18.8637 330.177 19.2409C329.959 19.6182 329.801 20.025 329.711 20.4378C329.622 20.8506 329.603 21.2614 329.656 21.6465C329.708 22.0315 329.832 22.3833 330.019 22.6815C330.205 22.9797 330.452 23.2184 330.744 23.384Z" fill="#FDAF31"/>
<path d="M315.395 10.0746C316.038 10.1831 316.712 9.94393 317.27 9.40965C317.828 8.87537 318.223 8.08978 318.369 7.22569C318.515 6.36161 318.399 5.48981 318.048 4.80209C317.696 4.11436 317.138 3.66705 316.495 3.55854C316.176 3.50482 315.847 3.53589 315.525 3.64999C315.204 3.76409 314.896 3.95897 314.62 4.22352C314.344 4.48807 314.105 4.8171 313.916 5.19182C313.727 5.56654 313.593 5.97962 313.521 6.40748C313.449 6.83533 313.44 7.26957 313.495 7.68542C313.55 8.10126 313.668 8.49056 313.842 8.83108C314.016 9.17161 314.243 9.45669 314.509 9.67006C314.776 9.88343 315.077 10.0209 315.395 10.0746Z" fill="#FDAF31"/>
<path d="M293.851 11.4787C294.17 11.8817 294.545 12.2346 294.955 12.5168C295.365 12.799 295.8 13.005 296.237 13.1229C296.673 13.2407 297.102 13.268 297.498 13.2032C297.894 13.1385 298.249 12.9829 298.544 12.7455C298.838 12.5081 299.065 12.1937 299.212 11.8204C299.359 11.4471 299.423 11.0223 299.401 10.5708C299.378 10.1192 299.269 9.6498 299.08 9.18975C298.89 8.72969 298.625 8.28814 298.299 7.89067C297.979 7.48763 297.604 7.13477 297.194 6.85253C296.785 6.57029 296.349 6.36429 295.913 6.24645C295.476 6.12862 295.047 6.1013 294.651 6.16607C294.255 6.23085 293.9 6.38643 293.606 6.62381C293.311 6.86119 293.084 7.17564 292.937 7.54895C292.79 7.92225 292.726 8.34699 292.749 8.79855C292.771 9.25011 292.881 9.71952 293.07 10.1796C293.259 10.6396 293.524 11.0812 293.851 11.4787Z" fill="#FDAF31"/>
<path d="M286.258 28.7266C284.693 30.0661 282.729 30.2024 281.032 28.3694C279.561 26.8466 279.96 24.4966 281.525 23.1618C281.887 22.8243 282.313 22.5635 282.778 22.3954C283.243 22.2272 283.737 22.1552 284.231 22.1835C284.725 22.2119 285.207 22.34 285.65 22.5603C286.093 22.7806 286.486 23.0884 286.807 23.4651C287.127 23.8418 287.368 24.2795 287.514 24.7519C287.66 25.2242 287.709 25.7213 287.658 26.2132C287.607 26.705 287.456 27.1813 287.216 27.6134C286.975 28.0454 286.649 28.4241 286.258 28.7266Z" fill="#FDAF31"/>
<path d="M338.15 39.5363C337.884 38.7449 337.343 38.0753 336.624 37.6492C335.906 37.2231 335.059 37.0689 334.237 37.2146C333.415 37.3603 332.672 37.7962 332.144 38.443C331.616 39.0899 331.337 39.9047 331.359 40.7395C331.339 41.2102 331.417 41.6799 331.587 42.1194C331.757 42.5588 332.015 42.9585 332.346 43.2936C332.678 43.6287 333.074 43.8921 333.512 44.0672C333.949 44.2423 334.418 44.3255 334.889 44.3115C337.032 44.2833 339.043 42.7652 338.15 39.5363ZM334.86 37.5717C335.497 37.5728 336.118 37.7707 336.638 38.1384C337.158 38.5061 337.552 39.0255 337.765 39.6256C337.848 40.039 337.834 40.4659 337.726 40.8733C337.617 41.2808 337.417 41.6579 337.14 41.9756C335.443 43.8979 333.211 42.8263 332.675 42.3798C332.403 42.1489 332.185 41.8605 332.038 41.5354C331.891 41.2103 331.818 40.8566 331.824 40.4998C331.763 39.2355 333.234 37.5858 334.842 37.5858L334.86 37.5717ZM334.86 43.912C334.477 43.9363 334.094 43.8811 333.733 43.7501C333.372 43.6191 333.042 43.415 332.764 43.1506L332.539 42.9297C333.121 43.3292 335.979 44.6687 337.812 41.7688C337.478 43.0754 336.454 43.8368 334.842 43.9261L334.86 43.912Z" fill="#414141"/>
<path d="M334.127 17.4884C332.835 16.727 330.959 17.4884 330.019 19.1381C329.352 20.346 329.263 21.6855 329.798 22.6255C329.987 22.9844 330.269 23.2857 330.615 23.4975C330.961 23.7093 331.358 23.8237 331.763 23.8287C332.389 23.7906 332.995 23.5892 333.519 23.2445C334.044 22.8999 334.469 22.424 334.752 21.8641C335.73 20.2097 335.424 18.2451 334.127 17.4884ZM330.367 19.3684C330.618 18.8744 330.993 18.454 331.455 18.1484C331.917 17.8427 332.451 17.6623 333.004 17.6247C334.79 17.6247 334.414 20.0358 333.85 21.0651C333.004 22.5409 330.861 23.2553 330.146 22.4751C329.924 21.978 329.829 21.4334 329.869 20.8904C329.909 20.3474 330.084 19.8228 330.377 19.3637L330.367 19.3684ZM334.395 21.6761C333.549 23.1519 331.942 23.8193 330.823 23.1942C330.781 23.1942 330.781 23.1519 330.734 23.1519C330.88 23.1867 331.03 23.201 331.18 23.1942C332.299 23.1942 334.889 22.0803 334.752 18.8185C334.911 19.2912 334.961 19.7934 334.899 20.288C334.837 20.7826 334.665 21.257 334.395 21.6761Z" fill="#414141"/>
<path d="M316.803 3.42248C314.838 2.95248 313.677 4.98288 313.409 6.05448C313.242 6.64767 313.215 7.27168 313.331 7.87702C313.447 8.48237 313.702 9.05239 314.077 9.54188C314.415 9.91069 314.868 10.1551 315.362 10.2361C315.857 10.3171 316.364 10.2298 316.803 9.98838C317.232 9.72591 317.602 9.37531 317.886 8.95971C318.17 8.5441 318.363 8.07294 318.452 7.57728C318.946 5.69728 318.231 3.73268 316.803 3.42248ZM313.809 6.16728C314.034 5.22728 315.106 3.66688 316.22 3.75618C317.428 3.84548 317.738 5.85708 317.428 7.01798C317.244 7.91409 316.713 8.70129 315.952 9.20818C315.729 9.37179 315.466 9.47066 315.19 9.49389C314.915 9.51711 314.638 9.46378 314.392 9.33978C314.057 8.89139 313.83 8.37189 313.729 7.82166C313.628 7.27143 313.655 6.7053 313.809 6.16728ZM318.095 7.51148C318.005 7.9486 317.828 8.3633 317.576 8.73131C317.323 9.09932 316.999 9.41324 316.624 9.65468C316.418 9.78012 316.189 9.86085 315.95 9.89162C315.711 9.92239 315.468 9.90251 315.238 9.83328C315.195 9.83328 315.195 9.78628 315.148 9.78628C315.499 9.76716 315.839 9.65348 316.131 9.45728C316.561 9.19043 316.933 8.8393 317.225 8.42497C317.517 8.01063 317.721 7.54165 317.827 7.04618C318.024 6.2484 317.993 5.41146 317.738 4.63038C318.224 5.50035 318.352 6.52521 318.095 7.48798V7.51148Z" fill="#414141"/>
<path d="M299.028 12.4884C299.968 11.2805 299.742 9.22655 298.403 7.66615C297.646 6.73138 296.559 6.12246 295.366 5.96475C295.021 5.92812 294.672 5.9608 294.339 6.06087C294.007 6.16095 293.698 6.32641 293.43 6.54755C292.175 7.70845 292.311 9.98795 293.74 11.6847C294.106 12.1574 294.563 12.5514 295.085 12.8429C295.607 13.1345 296.182 13.3176 296.776 13.3814C298.431 13.4707 298.92 12.62 299.009 12.4884H299.028ZM298.088 7.93405C299.202 9.40515 299.498 11.1489 298.713 12.2205C297.557 12.7469 295.949 12.2205 294.84 10.8669C293.731 9.51325 293.43 7.65205 294.215 6.57575C295.235 5.83315 297.289 6.86245 298.092 7.93405H298.088ZM296.842 12.9772C295.758 12.8474 294.766 12.3034 294.074 11.4591C292.866 10.0773 292.664 8.24425 293.402 7.17265C293.045 8.38055 293.449 9.89865 294.473 11.1019C294.865 11.6005 295.359 12.0097 295.921 12.3023C296.484 12.5949 297.102 12.7641 297.735 12.7986H297.914C297.587 12.9774 297.209 13.0403 296.842 12.9772Z" fill="#414141"/>
<path d="M286.883 23.4327C286.555 23.0446 286.153 22.7261 285.7 22.4961C285.247 22.266 284.753 22.129 284.246 22.0932C283.207 22.0197 282.181 22.3572 281.388 23.0332C280.953 23.3803 280.596 23.8165 280.342 24.3125C280.089 24.8086 279.944 25.353 279.917 25.9096C279.888 26.3898 279.956 26.8709 280.118 27.3241C280.279 27.7773 280.531 28.193 280.857 28.5463C281.211 28.9766 281.654 29.3255 282.155 29.5688C282.657 29.8122 283.205 29.9443 283.762 29.9563C284.725 29.9161 285.642 29.5365 286.352 28.8847C286.745 28.5589 287.07 28.158 287.308 27.7053C287.545 27.2526 287.69 26.7572 287.733 26.248C287.798 25.7453 287.755 25.2346 287.609 24.7495C287.462 24.2643 287.215 23.8156 286.883 23.4327ZM281.168 28.2596C280.872 27.9471 280.644 27.5773 280.498 27.173C280.352 26.7687 280.29 26.3387 280.317 25.9096C280.324 25.7494 280.354 25.5911 280.406 25.4396C280.482 26.3799 280.858 27.271 281.478 27.9823C281.835 28.4034 282.28 28.7414 282.782 28.9727C283.284 29.2041 283.83 29.3232 284.382 29.3218C284.7 29.3223 285.017 29.278 285.322 29.1902C283.889 29.9046 282.418 29.5944 281.168 28.2596ZM287.372 26.248C287.318 26.7462 287.157 27.227 286.902 27.658C286.594 28.0254 286.213 28.3231 285.782 28.5314C285.35 28.7397 284.88 28.8537 284.401 28.8659C283.908 28.865 283.42 28.7564 282.973 28.5478C282.526 28.3392 282.129 28.0355 281.811 27.658C281.256 27.0019 280.913 26.1919 280.829 25.3362C280.698 24.1753 282.126 22.3 283.955 22.5162C284.886 22.6015 285.751 23.0305 286.383 23.7196C287.015 24.4087 287.367 25.3084 287.372 26.2433V26.248Z" fill="#414141"/>
<path d="M287.282 17.1335C287.282 17.1335 285.318 16.7293 284.932 16.5977C284.906 16.5891 284.881 16.5753 284.86 16.5572C284.839 16.539 284.821 16.5169 284.809 16.492C284.796 16.4671 284.788 16.44 284.786 16.4122C284.784 16.3844 284.787 16.3564 284.796 16.3298C284.805 16.3033 284.819 16.2787 284.837 16.2575C284.855 16.2363 284.877 16.2189 284.902 16.2062C284.927 16.1936 284.954 16.1859 284.982 16.1838C285.009 16.1816 285.037 16.1849 285.064 16.1935C285.421 16.3298 287.343 16.687 287.343 16.687C287.433 16.687 287.522 16.8186 287.522 16.9079C287.461 17.0865 287.372 17.1335 287.282 17.1335Z" fill="#414141"/>
<path d="M287.193 15.6125C286.426 15.0815 285.695 14.499 285.007 13.8688C284.918 13.7795 284.918 13.6479 285.007 13.6009C285.097 13.5539 285.228 13.5116 285.275 13.6009C285.907 14.196 286.577 14.7487 287.282 15.2553C287.372 15.2976 287.372 15.4339 287.329 15.5232C287.287 15.6125 287.24 15.6125 287.193 15.6125Z" fill="#414141"/>
<path d="M323.637 13.7814C323.608 13.7752 323.58 13.7629 323.556 13.7454C323.532 13.7279 323.512 13.7055 323.498 13.6798C323.483 13.6541 323.474 13.6255 323.471 13.596C323.468 13.5665 323.471 13.5367 323.48 13.5085C323.49 13.4803 323.505 13.4544 323.525 13.4324C323.545 13.4105 323.569 13.393 323.596 13.381C323.623 13.3691 323.653 13.363 323.682 13.3632C323.712 13.3633 323.741 13.3697 323.768 13.3819C324.16 13.483 324.572 13.4737 324.958 13.3551C325.345 13.2364 325.691 13.0131 325.959 12.7098C325.679 12.5312 325.448 12.2857 325.286 11.9954C325.138 11.686 325.068 11.3447 325.084 11.0019C325.099 10.6591 325.2 10.3254 325.376 10.0308C325.912 9.27411 326.715 9.80991 326.941 10.3457C327.066 10.719 327.099 11.1171 327.037 11.5059C326.975 11.8948 326.819 12.2627 326.584 12.5782C326.983 12.7568 329.126 13.2456 329.352 10.9238C329.352 10.7922 329.484 10.7452 329.573 10.7452C329.662 10.7452 329.751 10.8815 329.751 10.9708C329.531 12.7098 328.501 13.114 327.923 13.2033C327.377 13.2678 326.824 13.1748 326.33 12.9354C326.007 13.3167 325.582 13.5986 325.106 13.7483C324.629 13.8981 324.12 13.9096 323.637 13.7814ZM325.691 10.2987C325.546 10.5237 325.465 10.7839 325.457 11.0513C325.449 11.3187 325.513 11.5833 325.644 11.8168C325.757 12.062 325.945 12.2657 326.179 12.3996C326.376 12.1331 326.507 11.824 326.562 11.4973C326.617 11.1706 326.593 10.8357 326.494 10.5196C326.447 10.2564 326.001 9.89921 325.691 10.2987Z" fill="#414141"/>
<path d="M335.56 30.305C335.51 30.2973 335.463 30.2768 335.424 30.2455C335.384 30.2142 335.353 30.1732 335.335 30.1264C335.329 30.073 335.345 30.0196 335.378 29.9775C335.411 29.9354 335.46 29.9079 335.513 29.9008C335.602 29.9008 337.478 29.6799 337.863 29.6799C337.917 29.6877 337.966 29.7146 338.001 29.7556C338.037 29.7966 338.056 29.849 338.056 29.9032C338.056 29.9574 338.037 30.0098 338.001 30.0508C337.966 30.0918 337.917 30.1186 337.863 30.1264C337.093 30.1471 336.324 30.2067 335.56 30.305Z" fill="#414141"/>
<path d="M338.551 32.6697C337.734 32.3003 336.9 31.9725 336.05 31.6874C336.022 31.6799 335.996 31.6667 335.974 31.6486C335.951 31.6306 335.932 31.6081 335.919 31.5826C335.905 31.557 335.897 31.529 335.895 31.5002C335.892 31.4713 335.896 31.4423 335.905 31.4149C335.915 31.3876 335.93 31.3624 335.949 31.341C335.968 31.3196 335.992 31.3024 336.018 31.2905C336.045 31.2786 336.073 31.2722 336.102 31.2718C336.131 31.2713 336.16 31.2768 336.187 31.2879C337.04 31.5625 337.875 31.8906 338.687 32.2702C338.732 32.2967 338.765 32.3384 338.781 32.3876C338.798 32.4367 338.796 32.4902 338.776 32.5381C338.687 32.6697 338.64 32.6697 338.551 32.6697Z" fill="#414141"/>
<path d="M337.21 39.7736C337.21 39.6843 337.079 39.642 336.989 39.642L336.585 39.7313C336.565 39.5931 336.518 39.4602 336.446 39.3404C336.374 39.2206 336.28 39.1161 336.167 39.0331C336.055 38.9501 335.927 38.8901 335.792 38.8567C335.656 38.8232 335.515 38.817 335.377 38.8383C334.799 38.9276 334.663 39.5527 334.621 40.1778L333.102 40.535C333.092 40.3509 333.129 40.1671 333.212 40.0022C333.294 39.8372 333.419 39.6968 333.572 39.595C333.594 39.5874 333.613 39.5754 333.629 39.5598C333.645 39.5442 333.658 39.5254 333.667 39.5045C333.675 39.4837 333.679 39.4613 333.678 39.4388C333.677 39.4163 333.672 39.3943 333.662 39.3741C333.654 39.3528 333.641 39.3334 333.625 39.3172C333.609 39.3009 333.59 39.2882 333.569 39.2798C333.547 39.2714 333.525 39.2675 333.502 39.2684C333.479 39.2692 333.457 39.2748 333.436 39.2848C333.229 39.4384 333.063 39.6414 332.954 39.8753C332.845 40.1092 332.796 40.3667 332.811 40.6243L332.341 40.7136C332.252 40.7136 332.209 40.8452 332.209 40.9345C332.209 41.0238 332.299 41.0708 332.388 41.0708L332.858 40.9815C332.926 41.2495 333.081 41.4873 333.299 41.6575C333.517 41.8277 333.785 41.9206 334.061 41.9215C334.823 41.8322 334.912 41.1178 335.001 40.5115L336.388 40.2013C336.413 40.4231 336.413 40.647 336.388 40.8687C336.388 40.958 336.43 41.0473 336.519 41.0473C336.609 41.0473 336.698 41.005 336.698 40.9157C336.725 40.6626 336.725 40.4074 336.698 40.1543L337.102 40.065C337.14 40.0268 337.169 39.9811 337.187 39.9309C337.206 39.8806 337.214 39.8271 337.21 39.7736ZM334.038 41.5596C333.46 41.5596 333.145 40.8922 333.145 40.8922L334.621 40.535C334.531 41.2024 334.442 41.5596 334.038 41.5596ZM335.02 40.1496C335.02 38.8994 335.918 39.2566 336.049 39.3929C336.168 39.5156 336.247 39.6712 336.275 39.8394L335.02 40.1496Z" fill="white"/>
<path d="M333.727 19.1857C333.565 19.0304 333.385 18.8948 333.191 18.7815L333.37 18.5136C333.412 18.4243 333.412 18.335 333.323 18.2927C333.233 18.2504 333.144 18.2457 333.102 18.335L332.876 18.6499C332.687 18.5483 332.468 18.5149 332.257 18.5551C332.045 18.5953 331.854 18.7067 331.715 18.8708C331.494 19.1857 331.626 19.5852 331.805 20.0787L331.001 21.1503C330.918 21.1007 330.852 21.0268 330.812 20.9385C330.773 20.8501 330.762 20.7518 330.78 20.6568C330.822 20.5675 330.733 20.4782 330.644 20.4359C330.554 20.3936 330.465 20.4782 330.423 20.5675C330.389 20.7356 330.405 20.9098 330.469 21.0691C330.532 21.2284 330.64 21.366 330.78 21.4652L330.554 21.7754C330.512 21.8647 330.512 21.954 330.601 22.001C330.691 22.048 330.733 22.0433 330.822 21.954L331.09 21.5968C331.256 21.6835 331.439 21.7302 331.626 21.7331C331.76 21.7397 331.893 21.71 332.011 21.6471C332.13 21.5842 332.229 21.4905 332.298 21.3759C332.382 21.1823 332.417 20.9713 332.402 20.7609C332.386 20.5506 332.32 20.3471 332.209 20.168L332.966 19.1387C333.233 19.3173 333.436 19.4959 333.436 19.4959C333.468 19.5192 333.506 19.5317 333.546 19.5317C333.586 19.5317 333.624 19.5192 333.656 19.4959C333.697 19.4569 333.726 19.4066 333.739 19.3514C333.751 19.2962 333.747 19.2385 333.727 19.1857ZM332.03 21.1033C331.951 21.2002 331.841 21.2668 331.719 21.2916C331.596 21.3165 331.469 21.2981 331.358 21.2396L331.969 20.3889C332.076 20.6116 332.097 20.8656 332.03 21.1033ZM332.03 19.6933C331.805 19.4254 331.805 18.5794 332.608 18.8896L332.03 19.6933Z" fill="white"/>
<path d="M316.803 5.29572C316.621 5.10151 316.388 4.96161 316.131 4.89152L316.22 4.62362C316.231 4.60289 316.238 4.58007 316.24 4.55661C316.242 4.53314 316.239 4.50956 316.231 4.48735C316.223 4.46515 316.211 4.44482 316.195 4.42766C316.178 4.41051 316.159 4.3969 316.137 4.38771C316.116 4.37851 316.092 4.37394 316.069 4.37429C316.045 4.37463 316.022 4.37987 316.001 4.38969C315.979 4.39951 315.96 4.41368 315.945 4.4313C315.929 4.44892 315.917 4.4696 315.91 4.49202L315.774 4.84922H315.417C315.259 4.86359 315.109 4.92712 314.99 5.03083C314.87 5.13455 314.786 5.27323 314.749 5.42732C314.571 5.96312 314.881 6.32032 315.219 6.63522L314.82 7.93242C314.728 7.87902 314.653 7.79982 314.605 7.70461C314.558 7.6094 314.539 7.50233 314.552 7.39662C314.552 7.30732 314.505 7.21802 314.415 7.21802C314.326 7.21802 314.237 7.26032 314.237 7.34962C314.206 7.53581 314.236 7.72685 314.32 7.89559C314.404 8.06432 314.54 8.2022 314.707 8.28962L314.618 8.59982C314.608 8.62034 314.602 8.64272 314.601 8.66552C314.6 8.68832 314.604 8.71106 314.613 8.73227C314.621 8.75349 314.634 8.77273 314.65 8.78876C314.666 8.8048 314.685 8.81728 314.707 8.82542C314.707 8.82542 314.885 8.86772 314.928 8.73612L315.017 8.42122C315.117 8.45976 315.225 8.47581 315.332 8.46822C315.546 8.47834 315.758 8.41819 315.936 8.29689C316.113 8.1756 316.246 7.99978 316.314 7.79612C316.535 7.12872 315.6 6.54592 315.6 6.54592L315.999 5.24872C316.206 5.29738 316.392 5.40713 316.535 5.56362C316.546 5.58201 316.562 5.59784 316.579 5.61007C316.597 5.62231 316.617 5.63069 316.639 5.63467C316.66 5.63865 316.682 5.63815 316.703 5.6332C316.724 5.62825 316.743 5.61896 316.761 5.60592C316.789 5.55994 316.807 5.50864 316.814 5.45525C316.822 5.40186 316.818 5.34754 316.803 5.29572ZM315.106 8.04522L315.506 6.84202C316.756 7.57522 315.642 8.37892 315.106 8.04522ZM315.327 6.25922C315.229 6.19329 315.152 6.10034 315.106 5.99163C315.06 5.88292 315.046 5.76311 315.066 5.64672C315.087 5.53033 315.14 5.42235 315.221 5.33586C315.301 5.24937 315.405 5.18808 315.52 5.15942H315.699L315.327 6.25922Z" fill="white"/>
<path d="M298.003 11.1919L298.135 11.0603C298.336 10.8434 298.451 10.561 298.46 10.2655C298.468 9.96988 298.37 9.6812 298.182 9.45294C297.712 8.82784 297.152 8.98294 296.617 9.18504L295.592 7.77504C295.806 7.6458 296.06 7.59902 296.306 7.64344C296.396 7.64344 296.485 7.59644 296.485 7.50714C296.485 7.41784 296.438 7.32854 296.349 7.32854C296.019 7.29607 295.688 7.37554 295.409 7.55414L295.183 7.23924C295.172 7.22098 295.158 7.20523 295.14 7.19303C295.123 7.18083 295.103 7.17245 295.082 7.16846C295.061 7.16446 295.04 7.16493 295.019 7.16984C294.998 7.17475 294.979 7.18398 294.962 7.19694C294.944 7.20791 294.928 7.22248 294.916 7.23972C294.904 7.25697 294.895 7.27654 294.891 7.29723C294.887 7.31793 294.886 7.3393 294.891 7.36004C294.895 7.38078 294.903 7.40045 294.915 7.41784L295.141 7.73274C295.009 7.85389 294.889 7.9877 294.784 8.13224C294.631 8.33102 294.548 8.57474 294.548 8.82549C294.548 9.07623 294.631 9.31995 294.784 9.51874C295.254 10.2754 295.987 9.91824 296.523 9.65034L297.552 11.1261C297.393 11.241 297.211 11.3195 297.018 11.356C296.826 11.3926 296.628 11.3863 296.438 11.3376C296.417 11.3265 296.394 11.3198 296.371 11.318C296.347 11.3161 296.324 11.3192 296.302 11.327C296.279 11.3348 296.259 11.3472 296.242 11.3633C296.225 11.3794 296.211 11.3989 296.202 11.4206C296.193 11.4422 296.188 11.4656 296.189 11.4891C296.189 11.5126 296.194 11.5358 296.204 11.5572C296.214 11.5786 296.228 11.5977 296.246 11.6133C296.263 11.6289 296.284 11.6407 296.306 11.6478C296.547 11.7419 296.808 11.7748 297.064 11.7437C297.321 11.7125 297.566 11.6182 297.777 11.4692L297.956 11.6948C297.985 11.7239 298.022 11.7436 298.062 11.7511C298.103 11.7587 298.144 11.7538 298.182 11.7371C298.2 11.7263 298.216 11.7116 298.228 11.6942C298.24 11.6768 298.248 11.6571 298.252 11.6362C298.256 11.6153 298.256 11.5938 298.251 11.5732C298.246 11.5525 298.237 11.5331 298.224 11.5162L298.003 11.1919ZM295.009 9.31194C294.539 8.84194 295.188 8.06174 295.324 7.97244L296.306 9.38244C295.681 9.67384 295.366 9.72084 295.009 9.31664V9.31194ZM297.867 9.66914C298.007 9.83244 298.081 10.0427 298.073 10.2579C298.065 10.4731 297.976 10.6774 297.824 10.83L297.777 10.877L296.795 9.46704C297.242 9.31664 297.599 9.27434 297.867 9.67384V9.66914Z" fill="white"/>
<path d="M286.746 26.2879L286.38 26.1516C286.427 26.02 286.85 24.6805 285.487 24.3656C284.819 24.187 284.504 24.8356 284.236 25.3479L282.54 24.6805C282.718 24.3656 282.944 24.0977 283.165 24.0554C283.206 24.0339 283.24 24.0015 283.264 23.9617C283.288 23.9219 283.301 23.8763 283.301 23.8298C283.28 23.7913 283.25 23.7588 283.213 23.7357C283.176 23.7126 283.133 23.6997 283.09 23.6982C282.716 23.8703 282.416 24.1703 282.244 24.5442L281.839 24.4126C281.799 24.3998 281.756 24.4025 281.717 24.4201C281.679 24.4376 281.649 24.4689 281.632 24.5077C281.616 24.5466 281.614 24.5902 281.628 24.6299C281.642 24.6697 281.671 24.7029 281.708 24.7228L282.018 24.8591C281.942 25.019 281.9 25.1931 281.895 25.3701C281.89 25.5471 281.923 25.7231 281.99 25.8869C282.057 26.0507 282.158 26.1986 282.286 26.3211C282.414 26.4436 282.566 26.538 282.732 26.5981C283.672 27.0023 284.072 26.3772 284.387 25.7521L285.91 26.3302C285.836 26.5089 285.713 26.6627 285.555 26.7735C285.396 26.8843 285.21 26.9474 285.017 26.9553C284.927 26.9553 284.838 27.0023 284.838 27.0916C284.838 27.1809 284.88 27.2702 284.97 27.2702C285.24 27.2756 285.506 27.1965 285.73 27.0441C285.954 26.8917 286.125 26.6735 286.22 26.4195L286.69 26.5981C286.724 26.5983 286.759 26.5903 286.79 26.5748C286.821 26.5593 286.848 26.5367 286.868 26.5088C286.864 26.4657 286.851 26.4238 286.83 26.3858C286.809 26.3478 286.78 26.3145 286.746 26.2879ZM282.864 26.2879C282.626 26.1805 282.439 25.9865 282.339 25.7455C282.239 25.5045 282.236 25.2345 282.328 24.9907L284.03 25.6158C283.757 26.2409 283.489 26.5558 282.864 26.2879ZM284.5 25.4372C284.767 24.9014 284.946 24.5912 285.35 24.6805C286.375 24.8591 286.018 25.9307 286.018 26.02L284.5 25.4372Z" fill="white"/>
<path d="M328.501 92.3785H282.864C280.763 92.3785 278.263 90.4562 278.263 88.36L278.305 62.8155C278.305 60.536 280.185 57.9463 282.46 57.9463L329.305 58.1249C330.381 58.1661 331.4 58.6212 332.148 59.3953C332.897 60.1694 333.318 61.2027 333.323 62.2797V87.5986C333.321 88.2293 333.195 88.8535 332.952 89.4354C332.708 90.0172 332.352 90.5453 331.904 90.9893C331.456 91.4334 330.925 91.7847 330.341 92.023C329.757 92.2614 329.132 92.3822 328.501 92.3785Z" fill="white"/>
<path d="M283.71 92.6467C279.918 92.5589 277.998 90.8168 277.947 87.4203C277.905 82.913 278.084 64.2446 278.084 63.173C278.111 62.0788 278.354 61.0008 278.798 60.0005C279.085 59.3018 279.575 58.7048 280.204 58.2861C280.833 57.8674 281.572 57.6461 282.328 57.6505C282.381 57.6583 282.43 57.6851 282.466 57.7261C282.501 57.7671 282.521 57.8195 282.521 57.8737C282.521 57.9279 282.501 57.9803 282.466 58.0213C282.43 58.0623 282.381 58.0891 282.328 58.097C278.887 58.097 278.568 62.327 278.53 63.1871C278.488 64.2164 278.305 82.8801 278.399 87.3921C278.441 90.4706 280.185 92.0357 283.667 92.125C285.81 92.1673 324.35 92.1673 327.965 92.125C331.358 92.078 333.135 89.2674 333.135 87.7916C333.135 87.5707 333.182 67.4312 333.092 63.0508C332.956 58.4072 329.967 58.4542 328.67 58.4542C328.58 58.4542 328.223 58.4965 328.223 58.2286C328.223 57.9607 328.58 58.0077 328.67 58.0077C329.967 58.0077 333.45 57.9607 333.581 63.0508C333.718 67.4312 333.628 87.5707 333.628 87.8386C333.528 88.9844 333.029 90.0588 332.218 90.8748C331.673 91.437 331.021 91.8846 330.3 92.1913C329.579 92.498 328.804 92.6576 328.021 92.6608L283.71 92.6467Z" fill="#414141"/>
<path d="M289.515 56.563C289.554 56.6146 289.605 56.6565 289.663 56.6853C289.721 56.7141 289.786 56.7291 289.851 56.7291C289.916 56.7291 289.98 56.7141 290.038 56.6853C290.096 56.6565 290.147 56.6146 290.187 56.563C292.02 54.0626 301.171 42.6275 313.72 46.0679C327.519 49.8655 328.948 60.7601 328.948 62.9033C328.995 70.6301 321.625 77.7271 319.256 80.5001C319.185 80.5815 319.084 80.6315 318.976 80.6395C318.868 80.6474 318.761 80.6125 318.678 80.5424C318.006 79.9643 316.399 78.8034 315.684 77.7741C315.629 77.7097 315.596 77.63 315.588 77.5458C315.581 77.4617 315.6 77.3772 315.642 77.3041C316.446 75.739 321.282 66.2309 321.131 64.3556C321 62.5649 318.81 58.9929 318.274 58.1469C318.235 58.0884 318.182 58.0411 318.119 58.0098C318.057 57.9784 317.987 57.9641 317.917 57.9683L299.164 57.879C299.089 57.8785 299.016 57.8989 298.953 57.938C298.89 57.9771 298.839 58.0332 298.806 58.0999C298.092 59.5757 293.848 67.4999 288.222 66.0899C283.522 64.929 281.078 53.1837 280.702 50.3731C280.691 50.3218 280.69 50.2689 280.7 50.2174C280.71 50.1659 280.73 50.1168 280.759 50.0731C280.788 50.0293 280.825 49.9918 280.868 49.9626C280.912 49.9334 280.961 49.9132 281.012 49.9031L285.388 49.0947C285.486 49.0711 285.589 49.0857 285.676 49.1355C285.763 49.1853 285.828 49.2665 285.858 49.3626C286.347 50.4436 287.907 54.1942 289.515 56.563Z" fill="#7BD2FF"/>
<path d="M289.425 45.7531C289.336 45.5322 288.579 43.9248 287.639 42.0918C287.867 42.1766 288.111 42.2071 288.353 42.1811C288.621 42.0495 288.353 40.9779 287.597 40.5737C287.361 40.4736 287.103 40.4395 286.849 40.475C286.182 39.0932 285.51 37.843 285.153 37.2602C284.213 35.6105 283.324 35.9677 282.967 36.0993C282.61 36.2309 278.859 38.125 278.215 38.4305C276.979 39.065 277.548 40.1272 277.68 40.475C277.811 40.8228 282.102 49.2264 282.102 49.2264C282.207 49.4609 282.359 49.6714 282.548 49.845C282.737 50.0186 282.96 50.1515 283.203 50.2356C283.446 50.3197 283.703 50.3532 283.959 50.3341C284.215 50.3149 284.465 50.2434 284.692 50.1241C285.007 49.9455 287.192 48.8692 288.532 48.1125C288.947 47.9 289.268 47.5408 289.433 47.1049C289.598 46.6689 289.595 46.1871 289.425 45.7531Z" fill="white"/>
<path d="M293.985 70.7203C293.985 70.667 293.975 70.6142 293.955 70.5649C293.935 70.5155 293.905 70.4707 293.868 70.4331C293.83 70.3954 293.785 70.3657 293.736 70.3456C293.687 70.3255 293.634 70.3155 293.581 70.3161C289.069 70.0952 285.121 70.2268 283.936 70.2738C283.883 70.2732 283.831 70.283 283.782 70.3028C283.733 70.3226 283.688 70.352 283.651 70.3891C283.613 70.4263 283.583 70.4705 283.563 70.5193C283.542 70.5681 283.532 70.6204 283.532 70.6733C283.49 72.7742 283.532 75.7634 283.532 76.835C283.531 76.8882 283.541 76.9411 283.561 76.9904C283.582 77.0397 283.611 77.0845 283.649 77.1222C283.687 77.1599 283.731 77.1896 283.781 77.2097C283.83 77.2298 283.883 77.2398 283.936 77.2392C286.258 77.3285 292.015 77.2392 293.538 77.2392C293.591 77.2392 293.643 77.2287 293.692 77.2083C293.741 77.188 293.785 77.1581 293.822 77.1205C293.86 77.0829 293.889 77.0383 293.909 76.9893C293.929 76.9403 293.938 76.8878 293.938 76.835C294.027 75.3169 293.985 71.8812 293.985 70.7203Z" fill="#005BC3"/>
<path d="M292.105 82.3752C292.1 82.3056 292.071 82.24 292.021 82.1907C291.972 82.1414 291.906 82.1117 291.837 82.1073C290.676 82.1073 285.633 82.0603 283.8 82.1073C283.73 82.1117 283.665 82.1414 283.615 82.1907C283.566 82.24 283.536 82.3056 283.532 82.3752C283.532 82.7747 283.49 83.6254 283.532 84.1142C283.536 84.1838 283.566 84.2494 283.615 84.2987C283.665 84.348 283.73 84.3777 283.8 84.3821C284.782 84.3821 288.443 84.4714 291.884 84.4714C291.953 84.467 292.019 84.4373 292.068 84.388C292.118 84.3387 292.147 84.2731 292.152 84.2035C292.152 83.757 292.152 82.911 292.105 82.3752Z" fill="#414141"/>
<path d="M303.986 82.3752C303.981 82.3056 303.952 82.24 303.902 82.1907C303.853 82.1414 303.787 82.1117 303.718 82.1073C302.557 82.1073 297.509 82.0603 295.681 82.1073C295.611 82.1117 295.546 82.1414 295.496 82.1907C295.447 82.24 295.417 82.3056 295.413 82.3752C295.413 82.7747 295.366 83.6254 295.413 84.1142C295.417 84.1838 295.447 84.2494 295.496 84.2987C295.546 84.348 295.611 84.3777 295.681 84.3821C296.663 84.3821 300.277 84.3821 303.718 84.4291C303.787 84.4237 303.852 84.3938 303.901 84.3446C303.95 84.2955 303.98 84.2305 303.986 84.1612V82.3752Z" fill="#414141"/>
<path d="M315.989 78.0757C316.543 78.8814 317.239 79.5791 318.043 80.1343C318.043 80.1343 317.686 82.5877 316.704 83.2128C316.704 83.2128 317.24 86.0328 316.793 86.0704C316.347 86.108 315.543 84.2844 315.543 84.2844C315.543 84.2844 315.407 86.6062 315.139 86.6344C314.871 86.6626 314.293 86.4088 314.156 84.4912C314.156 84.4912 313.174 86.4088 312.906 86.3712C312.638 86.3336 312.37 85.9012 312.46 85.121C312.46 85.121 311.614 85.3889 311.835 84.0024C312.056 82.6159 313.31 80.8346 313.31 80.8346C313.31 80.8346 312.103 81.2341 312.06 80.9239C312.018 80.6137 312.906 79.716 314.41 79.5139C314.885 78.9809 315.415 78.4989 315.989 78.0757Z" fill="#FDAF31"/>
<path d="M318.34 80.2343C318.336 80.1512 318.305 80.0716 318.25 80.0087C317.481 79.4481 316.791 78.7874 316.196 78.0441C316.107 77.9548 315.971 77.9078 315.882 77.9971C315.352 78.3665 314.859 78.7868 314.41 79.252C312.803 79.722 311.91 80.5022 311.774 80.9017C311.731 81.038 311.821 81.3952 312.892 81.2589C312.714 81.5738 312.535 81.8417 312.399 82.1096H307.826C307.756 82.1141 307.691 82.1437 307.641 82.193C307.592 82.2423 307.562 82.3079 307.558 82.3775C307.558 82.777 307.516 83.6277 307.558 84.1165C307.562 84.1861 307.592 84.2517 307.641 84.301C307.691 84.3504 307.756 84.38 307.826 84.3844H311.623C311.666 85.6816 312.159 85.503 312.291 85.456C312.38 86.4853 312.784 86.6169 312.916 86.6639C313.047 86.7109 313.386 86.7532 313.987 85.2539C314.034 85.879 314.481 87.0399 315.017 86.9506C315.553 86.8613 315.595 86.0106 315.684 84.986C316.041 85.7474 316.488 86.396 316.892 86.3255C316.981 86.3255 317.559 86.1046 316.934 83.3786C318.053 82.307 318.274 80.3236 318.34 80.2343ZM312.31 80.8124C312.31 80.6338 312.982 80.2766 313.649 79.9664C313.477 80.178 313.32 80.401 313.179 80.6338C312.895 80.7438 312.595 80.8042 312.291 80.8124H312.31ZM316.507 83.1624C316.451 83.223 316.42 83.3014 316.417 83.3833C316.596 84.3233 316.887 85.7944 316.685 85.8414C316.464 85.7944 316.06 84.8591 315.745 84.0554C315.812 83.5814 315.932 83.1164 316.102 82.6689C316.126 82.6097 316.125 82.5435 316.1 82.4849C316.075 82.4263 316.028 82.3801 315.969 82.3564C315.909 82.3327 315.843 82.3335 315.784 82.3586C315.726 82.3838 315.68 82.4311 315.656 82.4903C315.656 82.5373 315.12 84.1447 315.162 84.9907C315.161 85.5019 315.101 86.0113 314.984 86.5088C314.899 86.4468 314.825 86.3723 314.763 86.2879C314.584 86.0623 314.227 85.3479 314.495 83.9379C314.67 83.3122 314.893 82.7009 315.162 82.1096C315.174 82.0803 315.18 82.049 315.18 82.0174C315.179 81.9858 315.173 81.9546 315.16 81.9256C315.148 81.8966 315.13 81.8703 315.107 81.8483C315.085 81.8262 315.058 81.8088 315.029 81.7971C314.999 81.7854 314.968 81.7795 314.936 81.7799C314.905 81.7803 314.874 81.7869 314.844 81.7993C314.815 81.8118 314.789 81.8298 314.767 81.8524C314.745 81.875 314.728 81.9017 314.716 81.931C314.716 81.9733 314.359 82.777 314.049 83.811C313.738 84.845 313.198 86.2221 312.841 86.1328C312.62 86.0858 312.662 85.4607 312.709 85.1035C313.04 83.8257 313.567 82.6066 314.269 81.4892C314.292 81.4664 314.31 81.4389 314.322 81.4086C314.333 81.3783 314.338 81.3459 314.335 81.3136C314.333 81.2813 314.324 81.2499 314.308 81.2214C314.293 81.193 314.272 81.1682 314.246 81.1488C314.22 81.1294 314.19 81.1158 314.158 81.1089C314.127 81.102 314.094 81.102 314.062 81.1089C314.031 81.1157 314.001 81.1293 313.975 81.1487C313.949 81.1682 313.928 81.1929 313.912 81.2213C313.181 82.3667 312.625 83.6151 312.263 84.9249C312.173 84.9719 311.948 85.0142 312.037 84.2575C312.263 82.5608 313.734 80.0604 315.877 78.5423C316.446 79.2104 317.091 79.8098 317.799 80.3283C317.738 80.7701 317.4 82.3305 316.488 83.1812L316.507 83.1624Z" fill="#414141"/>
<path d="M328.233 82.3752C328.229 82.3056 328.199 82.24 328.15 82.1907C328.101 82.1414 328.035 82.1117 327.965 82.1073C326.805 82.1073 321.761 82.0603 319.928 82.1073C319.859 82.1117 319.793 82.1414 319.744 82.1907C319.695 82.24 319.665 82.3056 319.661 82.3752C319.661 82.7747 319.614 83.6254 319.661 84.1142C319.665 84.1838 319.695 84.2494 319.744 84.2987C319.793 84.348 319.859 84.3777 319.928 84.3821C320.911 84.3821 324.53 84.3821 327.965 84.4291C328.035 84.4247 328.101 84.395 328.15 84.3457C328.199 84.2964 328.229 84.2308 328.233 84.1612C328.233 83.7147 328.28 82.911 328.233 82.3752Z" fill="#414141"/>
<path d="M285.959 48.2885C285.983 48.3291 286.015 48.3641 286.054 48.3915C286.094 48.4189 286.139 48.4381 286.188 48.4481C286.237 48.4581 286.289 48.4586 286.341 48.4496C286.392 48.4406 286.442 48.4224 286.488 48.3958C286.534 48.3693 286.575 48.335 286.609 48.2949C286.642 48.2549 286.668 48.2098 286.683 48.1623C286.699 48.1148 286.705 48.0658 286.701 48.0181C286.697 47.9704 286.683 47.9249 286.66 47.8843C286.636 47.8437 286.604 47.8086 286.565 47.7813C286.525 47.7539 286.48 47.7346 286.431 47.7247C286.382 47.7147 286.33 47.7142 286.279 47.7232C286.227 47.7321 286.177 47.7504 286.131 47.7769C286.085 47.8035 286.044 47.8378 286.011 47.8778C285.977 47.9179 285.952 47.963 285.936 48.0105C285.92 48.058 285.914 48.107 285.918 48.1547C285.922 48.2024 285.936 48.2479 285.959 48.2885Z" fill="#414141"/>
<path d="M302.468 29.9491C302.468 29.9491 300.146 36.6466 301.438 41.2291C302.331 44.3969 305.668 44.8011 305.668 44.8011C305.599 45.5029 305.441 46.193 305.198 46.855C305.198 46.855 306.608 48.4154 308.329 48.4154C310.049 48.4154 311.407 47.3015 311.586 46.855C311.586 46.855 311.318 44.6648 311.275 43.0574C311.275 43.0574 313.282 42.5874 315.035 37.8357C315.035 37.8357 317.179 37.4315 317.089 35.8241C317 34.2167 315.524 34.4846 314.988 34.6632C314.142 34.9311 313.607 33.8125 313.428 33.413C312.935 32.003 312.356 30.4661 311.684 29.9726C311.012 29.4791 309.452 29.2582 308.737 29.0796C307.577 28.7694 306.726 26.5369 306.637 26.3113C306.547 26.0857 305.593 28.9198 302.468 29.9491Z" fill="white"/>
<path d="M310.463 32.7573C310.237 32.4001 309.748 31.5964 308.766 32.5364C308.717 32.5764 308.655 32.5968 308.592 32.5937C308.529 32.5907 308.47 32.5643 308.425 32.5197C308.381 32.4752 308.354 32.4156 308.351 32.3527C308.348 32.2898 308.369 32.2279 308.409 32.1792C308.588 32.0137 308.8 31.8867 309.03 31.8058C309.26 31.725 309.505 31.6921 309.748 31.7092C309.975 31.7462 310.19 31.8356 310.376 31.9702C310.562 32.1048 310.714 32.281 310.82 32.4847C310.842 32.509 310.857 32.5384 310.865 32.5703C310.872 32.6022 310.872 32.6355 310.863 32.667C310.854 32.6985 310.837 32.7272 310.814 32.7504C310.791 32.7737 310.762 32.7906 310.73 32.7996C310.683 32.9547 310.505 32.8466 310.463 32.7573Z" fill="#414141"/>
<path d="M304.742 32.1806C303.985 30.7048 303.003 31.8657 303.003 31.9127C302.954 31.9527 302.893 31.9731 302.83 31.97C302.767 31.9669 302.707 31.9405 302.663 31.896C302.618 31.8514 302.592 31.7919 302.589 31.729C302.586 31.666 302.606 31.6042 302.646 31.5555C302.805 31.3521 303.016 31.1951 303.257 31.1007C303.497 31.0064 303.759 30.9781 304.014 31.0189C304.269 31.0596 304.509 31.1679 304.708 31.3326C304.907 31.4972 305.058 31.7121 305.146 31.955C305.169 32.0098 305.173 32.0708 305.157 32.128C305.14 32.1852 305.105 32.2352 305.057 32.2699C304.968 32.3592 304.789 32.2699 304.742 32.1806Z" fill="#414141"/>
<path d="M305.683 37.2709C305.368 37.2709 304.475 36.157 304.611 35.7998C304.701 35.6212 304.921 35.5319 305.551 35.4379C305.687 35.4154 305.822 35.3856 305.955 35.3486C306.045 35.0807 306.176 34.0561 306.313 33.1631C306.323 33.0995 306.358 33.0423 306.41 33.0038C306.461 32.9652 306.526 32.9482 306.59 32.9563C306.654 32.9635 306.713 32.9954 306.755 33.0455C306.796 33.0955 306.816 33.1596 306.811 33.2242C306.501 35.5742 306.341 35.6823 306.275 35.7293C306.074 35.8116 305.864 35.8715 305.65 35.9079C305.518 35.9502 305.25 35.9972 305.114 36.0395C305.289 36.3575 305.533 36.6322 305.829 36.8432C305.881 36.8738 305.92 36.9238 305.937 36.9826C305.954 37.0414 305.947 37.1043 305.918 37.1581C305.854 37.2207 305.771 37.2603 305.683 37.2709Z" fill="#414141"/>
<path d="M305.547 40.2187C304.137 40.1294 303.85 38.8087 303.897 38.1225C303.906 38.0548 303.937 37.992 303.986 37.9439C304.038 37.9064 304.101 37.8896 304.165 37.8969L307.455 38.1648C307.522 38.176 307.584 38.2071 307.633 38.2541C307.67 38.306 307.687 38.3695 307.68 38.4327C307.647 38.4797 307.38 40.308 305.547 40.2187ZM304.343 38.3904C304.351 38.7207 304.476 39.0373 304.697 39.2831C304.918 39.5288 305.219 39.6873 305.547 39.7299C305.899 39.7579 306.251 39.6592 306.538 39.4517C306.824 39.2441 307.028 38.9412 307.112 38.5972L304.343 38.3904Z" fill="#414141"/>
<path d="M320.774 62.0979C319.834 59.5975 317.113 55.6213 316.981 55.4427C316.964 55.4188 316.941 55.3987 316.916 55.3836C316.89 55.3685 316.862 55.3587 316.833 55.3547C316.803 55.3508 316.773 55.3528 316.745 55.3607C316.716 55.3685 316.689 55.382 316.666 55.4004C316.643 55.4176 316.623 55.4393 316.607 55.4644C316.592 55.4895 316.583 55.5174 316.579 55.5464C316.575 55.5755 316.577 55.605 316.584 55.6332C316.592 55.6614 316.606 55.6877 316.624 55.7106C316.624 55.7106 317.249 56.6036 317.963 57.7645C313.541 57.7222 301.396 57.6329 299.116 57.5859C299.404 57.0276 299.643 56.4458 299.831 55.8469C299.843 55.816 299.848 55.7832 299.847 55.7502C299.846 55.7172 299.839 55.6847 299.825 55.6546C299.812 55.6245 299.792 55.5973 299.768 55.5747C299.744 55.552 299.716 55.5343 299.685 55.5226C299.654 55.5109 299.621 55.5054 299.588 55.5063C299.555 55.5073 299.523 55.5148 299.493 55.5283C299.463 55.5418 299.436 55.5612 299.413 55.5852C299.39 55.6092 299.373 55.6375 299.361 55.6683C299.361 55.7106 297.89 59.4612 296.414 61.3083C296.391 61.3336 296.373 61.3637 296.363 61.3965C296.353 61.4292 296.35 61.4638 296.354 61.4979C296.359 61.5319 296.37 61.5646 296.389 61.5936C296.407 61.6225 296.432 61.6471 296.461 61.6655C296.593 61.7548 296.729 61.6655 296.818 61.6185C297.632 60.5238 298.321 59.3415 298.872 58.0935C300.479 58.0935 313.912 58.2251 318.208 58.2721C319.018 59.534 319.719 60.8627 320.304 62.2436C320.334 62.2984 320.381 62.3416 320.438 62.3663C320.495 62.391 320.559 62.3958 320.619 62.3799C320.732 62.3705 320.821 62.2342 320.774 62.0979Z" fill="#414141"/>
<path d="M290.943 59.2745C290.901 59.2322 287.061 53.1645 285.674 49.6301C285.661 49.6006 285.655 49.5688 285.655 49.5366C285.655 49.5045 285.661 49.4726 285.674 49.4431C285.687 49.4136 285.706 49.387 285.729 49.365C285.753 49.343 285.78 49.3261 285.811 49.3152C285.84 49.3025 285.871 49.2959 285.903 49.2959C285.935 49.2959 285.966 49.3025 285.996 49.3154C286.025 49.3282 286.051 49.3469 286.072 49.3703C286.094 49.3938 286.11 49.4214 286.121 49.4515C287.507 52.9812 291.347 58.9643 291.347 59.0066C291.367 59.0317 291.38 59.0611 291.387 59.0925C291.393 59.1238 291.392 59.1561 291.383 59.1869C291.374 59.2176 291.358 59.2458 291.337 59.2692C291.315 59.2926 291.288 59.3106 291.258 59.3215C291.208 59.3508 291.149 59.3621 291.092 59.3535C291.035 59.345 290.982 59.3171 290.943 59.2745Z" fill="#414141"/>
<path d="M280.453 45.1312C280.453 45.1312 281.031 44.5061 281.21 45.2675C281.388 46.0289 281.299 47.6786 281.12 47.7679C280.942 47.8572 280.317 48.0358 280.096 47.5C279.87 47.5447 279.636 47.4994 279.444 47.3738C279.252 47.2482 279.116 47.0522 279.066 46.8279C279.066 46.8279 278.352 46.8279 278.216 45.714C278.216 45.714 277.501 45.3991 277.746 44.1489C277.99 42.8987 279.043 41.8741 279.156 42.8987C279.156 42.8987 279.781 42.4287 279.87 43.9703C279.87 44.0173 280.585 43.8387 280.453 45.1312Z" fill="white"/>
<path d="M285.943 41.0684C285.811 40.8898 286.347 40.2647 287.282 40.4856C288.217 40.7065 288.622 41.8956 288.401 42.14C288.18 42.3844 286.436 41.7828 285.943 41.0684Z" fill="white"/>
<path d="M289.693 45.7994C289.562 45.4845 288.579 43.299 288.175 42.4483C288.222 42.4483 288.579 42.406 288.645 42.1804C288.734 41.7339 288.509 40.4837 287.395 40.2158C287.242 40.1762 287.083 40.1619 286.925 40.1735C286.878 40.0372 285.36 37.2266 285.139 36.8224C284.97 36.4229 284.335 35.3043 282.996 35.8401C281.835 36.3101 277.948 38.3875 277.906 38.4298C277.638 38.6554 276.834 39.1912 277.436 40.5307C277.697 41.2016 277.995 41.8575 278.329 42.4953C278.14 42.6776 277.981 42.8885 277.859 43.1204C276.966 44.9064 277.722 45.7524 278.08 46.0203C278.08 46.0203 278.258 47.0919 278.977 47.1812C279.062 47.4008 279.218 47.586 279.419 47.7077C279.621 47.8293 279.857 47.8806 280.091 47.8533C280.146 47.9463 280.219 48.0267 280.307 48.0891C280.395 48.1516 280.495 48.1947 280.601 48.2156C280.706 48.2364 280.815 48.2346 280.92 48.2103C281.025 48.1859 281.124 48.1395 281.21 48.0742C281.341 48.2998 281.567 48.7463 281.966 49.4842C282.11 49.7545 282.307 49.9929 282.545 50.1851C282.784 50.3774 283.058 50.5194 283.353 50.6028C283.543 50.65 283.736 50.6799 283.931 50.6921C284.177 50.7099 284.423 50.6629 284.645 50.5558C284.735 50.5135 288.405 48.6758 289.11 48.234C289.471 47.9553 289.725 47.562 289.831 47.1193C289.937 46.6765 289.888 46.2108 289.693 45.7994ZM287.282 40.6623C287.543 40.7716 287.768 40.9504 287.934 41.1792C288.1 41.4079 288.199 41.6779 288.222 41.9595C286.657 41.6446 286.079 41.2451 286.211 40.9302C286.258 40.7093 286.657 40.4743 287.282 40.6623ZM278.084 45.3623C277.859 45.0474 277.68 44.4223 278.216 43.3084C278.488 42.8149 278.686 42.6833 278.799 42.7256C278.911 42.7679 278.888 42.8149 278.888 42.9512C278.521 43.7149 278.251 44.5218 278.084 45.3529V45.3623ZM278.888 46.5843C278.769 46.5062 278.67 46.4005 278.6 46.2761C278.531 46.1517 278.492 46.0123 278.488 45.8699C278.573 44.9319 278.847 44.0207 279.292 43.1909C279.344 43.1533 279.407 43.1365 279.471 43.1439C279.471 43.1439 279.602 43.2332 279.513 43.9476C279.234 44.8082 279.025 45.69 278.888 46.5843ZM280.185 45.1743C279.987 45.8574 279.881 46.564 279.87 47.2752C279.754 47.2754 279.641 47.2411 279.545 47.1766C279.449 47.1122 279.374 47.0205 279.33 46.9133V46.824C279.423 45.9406 279.62 45.0713 279.917 44.2343C279.958 44.1996 280.002 44.1696 280.049 44.145C280.096 44.192 280.27 44.3236 280.185 45.2166V45.1743ZM281.031 47.5243C280.925 47.5974 280.802 47.6442 280.674 47.6606C280.586 47.6606 280.497 47.5713 280.406 47.3927C280.426 46.7147 280.538 46.0427 280.74 45.3952L280.961 45.1743C281.008 45.2166 281.097 45.3952 281.097 46.0673C281.097 46.7394 281.031 47.3598 281.031 47.5243ZM279.381 41.2451C279.513 41.6446 280.321 43.2097 281.12 44.7278C280.988 44.7036 280.853 44.7036 280.721 44.7278C280.721 44.192 280.453 43.6562 280.096 43.6985C280.138 43.2285 279.917 42.5846 279.424 42.6739C279.292 42.0488 278.888 42.2039 278.756 42.2039C278.578 41.889 278.263 41.2216 277.859 40.2816C277.459 39.257 277.948 38.9421 278.216 38.7212C278.263 38.7212 282.013 36.6203 283.174 36.1738C284.025 35.8636 284.425 36.3524 284.782 36.9775C284.96 37.2924 286.168 39.6142 286.478 40.1923C286.247 40.2652 286.034 40.387 285.853 40.5495C285.383 39.6095 284.913 38.7635 284.739 38.4533C284.293 37.5603 283.936 37.1138 283.085 37.2454C281.701 37.7249 280.393 38.4024 279.203 39.257C278.531 39.9479 279.114 40.62 279.381 41.2451ZM288.781 47.6747C288.114 48.1447 284.453 49.9072 284.363 49.9965C284.059 50.0916 283.736 50.1077 283.423 50.0435C283.193 49.9751 282.979 49.8601 282.795 49.7057C282.61 49.5513 282.46 49.3607 282.352 49.1458C281.816 48.2058 281.595 47.764 281.506 47.6277V45.4422C281.816 46.0673 282.131 46.6924 282.399 47.1389C283.292 48.8356 284.138 48.4784 284.584 48.2528C285.031 48.0272 286.102 47.3128 287.404 46.6924C288.706 46.072 288.297 45.1273 288.072 44.7278C287.982 44.5022 287.268 43.252 286.554 41.8702C286.903 42.0449 287.26 42.2018 287.625 42.3402C288.161 43.4541 289.19 45.6302 289.28 45.9545C289.515 46.7347 289.383 47.3175 288.8 47.6747H288.781Z" fill="#414141"/>
<path d="M284.114 44.552C283.889 44.552 283.442 44.3734 282.328 43.4804C282.302 43.46 282.279 43.4346 282.263 43.4056C282.246 43.3766 282.235 43.3447 282.231 43.3115C282.226 43.2783 282.229 43.2446 282.237 43.2123C282.246 43.18 282.261 43.1497 282.281 43.1232C282.302 43.0966 282.327 43.0744 282.356 43.0576C282.385 43.0409 282.417 43.03 282.45 43.0257C282.483 43.0213 282.517 43.0235 282.549 43.0322C282.582 43.0409 282.612 43.0558 282.638 43.0762C283.067 43.4469 283.541 43.7627 284.048 44.0162C284.063 42.8004 283.943 41.5867 283.691 40.3972C283.68 40.3677 283.676 40.336 283.679 40.3047C283.683 40.2733 283.694 40.2433 283.711 40.2171C283.729 40.1908 283.752 40.1692 283.78 40.1539C283.807 40.1386 283.838 40.1302 283.87 40.1293C283.899 40.118 283.931 40.1139 283.962 40.1174C283.994 40.1209 284.024 40.1319 284.05 40.1494C284.076 40.1669 284.098 40.1904 284.113 40.2179C284.128 40.2455 284.137 40.2763 284.138 40.3079C284.138 40.3079 284.316 41.2479 284.406 42.1879C284.626 44.0679 284.448 44.3311 284.269 44.4674C284.254 44.4944 284.231 44.5166 284.204 44.5315C284.176 44.5464 284.145 44.5535 284.114 44.552Z" fill="white"/>
<path d="M315.327 36.5137C315.293 36.5122 315.259 36.5035 315.228 36.4881C315.197 36.4727 315.17 36.451 315.148 36.4244C315.125 36.3991 315.108 36.369 315.097 36.3362C315.087 36.3035 315.084 36.2688 315.088 36.2348C315.093 36.2007 315.105 36.1681 315.123 36.1391C315.142 36.1102 315.166 36.0856 315.195 36.0672C315.411 35.8832 315.673 35.7599 315.952 35.71C316.005 35.7186 316.054 35.7445 316.091 35.7837C316.128 35.823 316.151 35.8733 316.156 35.9269C316.161 35.9805 316.149 36.0344 316.121 36.0801C316.092 36.1259 316.049 36.161 315.999 36.18C315.828 36.2209 315.668 36.2978 315.529 36.4056C315.416 36.5137 315.374 36.5137 315.327 36.5137Z" fill="#414141"/>
<path d="M324.172 34.6814C324.53 33.2056 326.137 31.8238 325.958 29.8592C325.78 27.8946 323.994 27.0909 323.726 26.0193C323.322 24.4542 323.904 23.251 322.744 22.0008C321.851 21.0138 321.089 21.5543 320.018 20.6143C319.078 19.8106 319.167 18.0669 317.428 17.3243C316.018 16.7415 314.57 17.3666 313.499 17.4136C312.089 17.4559 311.041 16.2527 309.212 16.2527C307.469 16.2527 306.707 17.6345 305.683 17.9024C304.117 18.3066 302.421 17.9494 301.039 19.1103C299.657 20.2712 299.563 22.5366 298.6 23.9654C297.707 25.2156 295.61 26.5081 295.31 28.562C294.91 31.3303 297.006 32.6698 296.696 34.7707C296.25 37.5907 296.071 41.9147 301.471 41.6938C301.793 42.5363 302.328 43.2801 303.026 43.8515C303.723 44.4228 304.558 44.8018 305.448 44.9509C305.376 45.6171 305.24 46.275 305.043 46.9155C305.027 46.9534 305.023 46.9953 305.032 47.0356C305.04 47.076 305.06 47.1127 305.09 47.1411C305.983 48.0811 306.97 48.6592 308.084 48.6592C308.784 48.6851 309.481 48.5675 310.133 48.3137C310.786 48.0599 311.379 47.6752 311.877 47.1834C311.934 47.124 311.966 47.0449 311.966 46.9625C311.788 45.7123 311.656 43.9686 311.609 43.3435C312.15 44.0709 312.922 44.5916 313.799 44.8193C315.271 45.1295 316.521 45.2893 318.264 43.3012C319.825 41.4682 322.194 42.051 323.402 40.5329C325.018 38.479 323.726 36.6037 324.172 34.6814ZM314.97 37.586C314.88 37.586 314.838 37.6283 314.791 37.7176C314.481 38.479 312.874 42.4505 311.266 42.944C311.208 42.9585 311.158 42.994 311.125 43.0435C311.092 43.093 311.079 43.153 311.088 43.2119C311.088 43.2542 311.219 45.4444 311.445 46.9719C310.508 47.7728 309.325 48.2289 308.094 48.2644C307.607 48.2357 307.131 48.1104 306.694 47.8958C306.257 47.6811 305.866 47.3814 305.546 47.0142C305.715 46.3853 305.835 45.7442 305.903 45.0966C306.395 45.1594 306.893 45.1435 307.379 45.0496C307.516 45.0073 307.605 44.918 307.558 44.7817C307.511 44.6454 307.426 44.5608 307.29 44.6031C303.135 45.2282 301.843 41.346 301.753 41.1674C301.396 40.0488 300.86 36.9703 302.557 30.536C304.3 29.8272 305.793 28.6147 306.843 27.0533C307.059 27.7791 307.457 28.4375 308 28.9662C308.893 29.8122 310.904 29.9062 311.529 30.4373C312.554 31.3773 312.78 32.8484 313.268 33.8777C313.673 34.6814 314.387 35.3488 315.322 35.0809C316.483 34.7707 316.887 35.5509 316.93 35.8423C316.93 36.0679 316.845 37.539 314.97 37.586Z" fill="#414141"/>
<path d="M309.388 35.9004C309.458 35.9134 309.53 35.91 309.6 35.8902C309.671 35.8705 309.738 35.8349 309.797 35.7854C309.857 35.736 309.908 35.6738 309.947 35.6024C309.987 35.531 310.014 35.4519 310.027 35.3697C310.04 35.2875 310.039 35.2039 310.024 35.1238C310.008 35.0436 309.979 34.9686 309.938 34.9031C309.897 34.8376 309.845 34.7829 309.784 34.7422C309.723 34.7015 309.656 34.6757 309.585 34.6662C309.515 34.6532 309.442 34.6566 309.372 34.6764C309.302 34.6961 309.235 34.7317 309.175 34.7812C309.116 34.8306 309.065 34.8928 309.025 34.9642C308.986 35.0356 308.959 35.1147 308.946 35.1969C308.933 35.2791 308.934 35.3627 308.949 35.4428C308.964 35.523 308.993 35.598 309.034 35.6635C309.075 35.729 309.128 35.7837 309.188 35.8244C309.249 35.8651 309.317 35.8909 309.388 35.9004Z" fill="#414141"/>
<path d="M303.638 35.0305C303.709 35.0436 303.781 35.0401 303.851 35.0204C303.922 35.0006 303.989 34.965 304.048 34.9156C304.108 34.8661 304.159 34.8039 304.198 34.7325C304.238 34.6611 304.265 34.582 304.278 34.4998C304.291 34.4176 304.29 34.334 304.275 34.2539C304.259 34.1738 304.23 34.0987 304.189 34.0332C304.148 33.9677 304.096 33.913 304.035 33.8723C303.974 33.8316 303.907 33.8058 303.836 33.7963C303.766 33.7833 303.693 33.7867 303.623 33.8065C303.553 33.8262 303.486 33.8619 303.426 33.9113C303.367 33.9607 303.316 34.023 303.276 34.0944C303.237 34.1658 303.21 34.2449 303.197 34.3271C303.183 34.4092 303.185 34.4928 303.2 34.573C303.215 34.6531 303.244 34.7281 303.285 34.7936C303.326 34.8592 303.379 34.9139 303.439 34.9545C303.5 34.9952 303.568 35.0211 303.638 35.0305Z" fill="#414141"/>
<path d="M309.791 38.2554C309.791 38.41 309.866 38.5582 310 38.6675C310.134 38.7768 310.315 38.8382 310.505 38.8382C310.694 38.8382 310.876 38.7768 311.01 38.6675C311.144 38.5582 311.219 38.41 311.219 38.2554C311.219 38.1008 311.144 37.9526 311.01 37.8433C310.876 37.734 310.694 37.6726 310.505 37.6726C310.315 37.6726 310.134 37.734 310 37.8433C309.866 37.9526 309.791 38.1008 309.791 38.2554Z" fill="#FDAF31"/>
<path d="M302.403 37.8491C302.479 37.8661 302.557 37.8713 302.632 37.8645C302.707 37.8576 302.778 37.8388 302.841 37.8092C302.904 37.7796 302.957 37.7397 302.998 37.692C303.039 37.6442 303.066 37.5896 303.078 37.5312C303.09 37.4728 303.086 37.4119 303.067 37.3521C303.049 37.2923 303.015 37.2347 302.969 37.1828C302.923 37.1309 302.865 37.0857 302.798 37.05C302.732 37.0142 302.658 36.9885 302.582 36.9744C302.506 36.9574 302.428 36.9521 302.352 36.959C302.277 36.9658 302.206 36.9846 302.143 37.0142C302.08 37.0438 302.027 37.0837 301.986 37.1314C301.946 37.1792 301.919 37.2339 301.907 37.2922C301.895 37.3506 301.898 37.4115 301.917 37.4713C301.936 37.5312 301.969 37.5887 302.015 37.6406C302.061 37.6925 302.12 37.7377 302.186 37.7735C302.253 37.8093 302.326 37.835 302.403 37.8491Z" fill="#FDAF31"/>
</g>
<rect x="0.744521" y="0.744521" width="349.511" height="87.511" rx="10.2555" stroke="url(#paint1_linear_656_13152)" stroke-opacity="0.08" stroke-width="0.510959"/>
<defs>
<linearGradient id="paint0_linear_656_13152" x1="42.6629" y1="15.8085" x2="213.928" y2="76.5442" gradientUnits="userSpaceOnUse">
<stop stop-color="#003F88"/>
<stop offset="0.64989" stop-color="#03BCFF"/>
<stop offset="1" stop-color="#0076FF"/>
</linearGradient>
<linearGradient id="paint1_linear_656_13152" x1="44.2227" y1="12.9068" x2="348.656" y2="99.7852" gradientUnits="userSpaceOnUse">
<stop stop-color="#003F88"/>
<stop offset="0.64989" stop-color="#02D4FF"/>
<stop offset="1" stop-color="#0076FF"/>
</linearGradient>
<clipPath id="clip0_656_13152">
<rect x="1" y="1" width="349" height="87" rx="10" fill="white"/>
</clipPath>
</defs>
</svg>
