<svg width="18" height="16" viewBox="0 0 18 16" fill="none" xmlns="http://www.w3.org/2000/svg">
<path d="M10.6666 13.4173C10.6666 13.4173 11.5 13.4173 12.3333 15.084C12.3333 15.084 14.9804 10.9173 17.3333 10.084" stroke="#458F5A" stroke-linecap="round" stroke-linejoin="round"/>
<path d="M3.58325 7.58398H3.57577" stroke="#458F5A" stroke-linecap="round" stroke-linejoin="round"/>
<path d="M8.16663 14.2503H7.74996C4.61781 14.2503 3.05174 14.2503 2.00617 13.4246C1.83894 13.2925 1.68428 13.147 1.54396 12.9896C0.666626 12.0055 0.666626 10.5316 0.666626 7.58366C0.666626 4.63575 0.666626 3.1618 1.54396 2.17774C1.68428 2.02035 1.83894 1.87479 2.00617 1.74272C3.05174 0.916992 4.61781 0.916992 7.74996 0.916992H10.25C13.3821 0.916992 14.9482 0.916992 15.9937 1.74272C16.161 1.87479 16.3156 2.02035 16.456 2.17774C17.2464 3.06436 17.3247 4.34865 17.3324 6.75033V7.16699" stroke="#458F5A" stroke-linecap="round" stroke-linejoin="round"/>
<path d="M11.0833 7.58333C11.0833 8.73393 10.1506 9.66667 8.99996 9.66667C7.84937 9.66667 6.91663 8.73393 6.91663 7.58333C6.91663 6.43274 7.84937 5.5 8.99996 5.5C10.1506 5.5 11.0833 6.43274 11.0833 7.58333Z" stroke="#458F5A"/>
</svg>
