<svg width="18" height="18" viewBox="0 0 18 18" fill="none" xmlns="http://www.w3.org/2000/svg">
<path d="M15.1111 10.667L15.797 11.2986C15.9464 11.4453 16.021 11.5187 15.9948 11.5811C15.9685 11.6434 15.8629 11.6434 15.6517 11.6434H13.0647C11.7403 11.6434 10.6666 12.6986 10.6666 14.0003C10.6666 14.2937 10.7212 14.5746 10.8208 14.8337M12.8888 17.3337L12.2029 16.7021C12.0535 16.5553 11.9789 16.4819 12.0051 16.4196C12.0314 16.3572 12.137 16.3572 12.3482 16.3572H14.9352C16.2596 16.3572 17.3333 15.302 17.3333 14.0003C17.3333 13.7069 17.2788 13.4261 17.1791 13.167" stroke="#F04949" stroke-linecap="round" stroke-linejoin="round"/>
<path d="M17.3261 8.58366C17.3333 8.08304 17.3333 7.94657 17.3333 7.33366C17.3333 4.19096 17.3333 2.61961 16.357 1.6433C15.3807 0.666992 13.8093 0.666992 10.6666 0.666992H7.33329C4.1906 0.666992 2.61925 0.666992 1.64294 1.6433C0.666626 2.61961 0.666626 4.19096 0.666626 7.33366C0.666626 10.4764 0.666626 12.0477 1.64294 13.024C2.61925 14.0003 4.1906 14.0003 7.33329 14.0003H8.16663" stroke="#F04949" stroke-linecap="round"/>
<path d="M14.4166 7.33398H14.4091" stroke="#F04949" stroke-linecap="round" stroke-linejoin="round"/>
<path d="M3.58325 7.33398H3.57577" stroke="#F04949" stroke-linecap="round" stroke-linejoin="round"/>
<path d="M11.0833 7.33333C11.0833 8.48393 10.1506 9.41667 8.99996 9.41667C7.84937 9.41667 6.91663 8.48393 6.91663 7.33333C6.91663 6.18274 7.84937 5.25 8.99996 5.25C10.1506 5.25 11.0833 6.18274 11.0833 7.33333Z" stroke="#F04949"/>
</svg>
