<svg width="14" height="14" viewBox="0 0 14 14" fill="none" xmlns="http://www.w3.org/2000/svg">
<g clip-path="url(#clip0_3049_54140)">
<path d="M5.29684 3.125H3.08246C2.92959 3.125 2.80566 3.24893 2.80566 3.4018V5.61618C2.80566 5.76905 2.92959 5.89297 3.08246 5.89297H5.29684C5.44971 5.89297 5.57364 5.76905 5.57364 5.61618V3.4018C5.57364 3.24893 5.44971 3.125 5.29684 3.125Z" stroke="#5D5D5D" stroke-width="0.885752" stroke-linecap="round" stroke-linejoin="round"/>
<path d="M5.29684 8.10742H3.08246C2.92959 8.10742 2.80566 8.23135 2.80566 8.38422V10.5986C2.80566 10.7515 2.92959 10.8754 3.08246 10.8754H5.29684C5.44971 10.8754 5.57364 10.7515 5.57364 10.5986V8.38422C5.57364 8.23135 5.44971 8.10742 5.29684 8.10742Z" stroke="#5D5D5D" stroke-width="0.885752" stroke-linecap="round" stroke-linejoin="round"/>
<path d="M7.78809 8.66113L9.44887 10.3219L11.1097 8.66113" stroke="#5D5D5D" stroke-width="0.885752" stroke-linecap="round" stroke-linejoin="round"/>
<path d="M9.44873 10.3218V3.67871" stroke="#5D5D5D" stroke-width="0.885752" stroke-linecap="round" stroke-linejoin="round"/>
</g>
<defs>
<clipPath id="clip0_3049_54140">
<rect width="13.2863" height="13.2863" fill="white" transform="translate(0.0366211 0.357422)"/>
</clipPath>
</defs>
</svg>
