<svg width="14" height="14" viewBox="0 0 14 14" fill="none" xmlns="http://www.w3.org/2000/svg">
<mask id="mask0_1_11" style="mask-type:luminance" maskUnits="userSpaceOnUse" x="0" y="0" width="14" height="14">
<path d="M13.3229 0.357422H0.0366211V13.6437H13.3229V0.357422Z" fill="white"/>
</mask>
<g mask="url(#mask0_1_11)">
<path d="M5.29684 3.125H3.08246C2.92959 3.125 2.80566 3.24893 2.80566 3.4018V5.61618C2.80566 5.76905 2.92959 5.89297 3.08246 5.89297H5.29684C5.44971 5.89297 5.57364 5.76905 5.57364 5.61618V3.4018C5.57364 3.24893 5.44971 3.125 5.29684 3.125Z" stroke="#069855" stroke-width="0.885752" stroke-linecap="round" stroke-linejoin="round"/>
<path d="M5.29684 8.10742H3.08246C2.92959 8.10742 2.80566 8.23135 2.80566 8.38422V10.5986C2.80566 10.7515 2.92959 10.8754 3.08246 10.8754H5.29684C5.44971 10.8754 5.57364 10.7515 5.57364 10.5986V8.38422C5.57364 8.23135 5.44971 8.10742 5.29684 8.10742Z" stroke="#069855" stroke-width="0.885752" stroke-linecap="round" stroke-linejoin="round"/>
<path d="M11 5L9.33922 3.33923L7.67839 5" stroke="#069855" stroke-width="0.885752" stroke-linecap="round" stroke-linejoin="round"/>
<path d="M9.5 10.5V4" stroke="#069855" stroke-width="0.885752" stroke-linecap="round" stroke-linejoin="round"/>
</g>
</svg>
