<svg xmlns="http://www.w3.org/2000/svg" width="375" height="145" fill="none"><g clip-path="url(#a)"><rect width="373" height="143" x="1" y="1" fill="#E3F0FF" rx="10"/><g clip-path="url(#b)"><path fill="#CAE3FF" d="M279.876 127.569H97.05v.111h182.826zM261.556 133.5h-12.103v.111h12.103zM218.156 134.531h-3.181v.111h3.181zM249.089 130.112h-7.021v.11h7.021zM132.042 130.703h-15.797v.111h15.797zM137.601 130.703h-2.303v.111h2.303zM179.395 132.29h-34.261v.11h34.261zM183.708 111.146h-70.607c-1.133 0-2.084-.957-2.084-2.099V9.095c0-1.142.951-2.1 2.084-2.1h70.607c1.134 0 2.085.958 2.085 2.1v99.952c0 1.179-.915 2.099-2.085 2.099M113.101 7.106a2.01 2.01 0 0 0-2.011 2.026v99.952c0 1.105.878 2.025 2.011 2.025h70.607a2.01 2.01 0 0 0 2.011-2.025V9.094a2.01 2.01 0 0 0-2.011-2.025h-70.607zM262.801 111.146h-70.607c-1.133 0-2.084-.957-2.084-2.099V9.095c0-1.142.951-2.1 2.084-2.1h70.607c1.134 0 2.085.958 2.085 2.1v99.952c0 1.179-.915 2.099-2.085 2.099M192.194 7.106a2.01 2.01 0 0 0-2.011 2.026v99.952c0 1.105.878 2.025 2.011 2.025h70.607a2.01 2.01 0 0 0 2.011-2.025V9.094a2.01 2.01 0 0 0-2.011-2.025h-70.607z"/><path fill="#fff" d="M352.708 125.776c-2.287-3.266-4.382-6.532-6.764-9.677-.19-.241-.286-.483-.381-.483a29 29 0 0 0-2.381-1.694c-.191-.121-.667-.363-1.144-.605l-2.857-1.451c-5.907-3.024-11.241-6.532-15.719-12.459-2.476-3.266-4.382-7.136-6.954-10.281-.095.12-.571-.242-.762-.484-.762-.12-1.81-.242-1.905-.363-1.048 0-2.096 0-3.048.121-1.429.121-2.954.242-4.383.363-5.715 10.523-12.86 24.917-16.004 26.853-4.858 2.903-50.107 18.143-53.441 17.176-3.335-.847-20.767.846-25.15.725-4.382-.241-12.288-2.661-23.815-9.434-11.527-6.653-17.814-6.774-31.627-12.338s-23.149-7.741-31.246.847-30.388-9.556-37.247-12.217c-6.954-2.54-20.196-17.539-29.246-10.523-9.05 7.015-16.575 10.281-27.911 22.74S-3 149-3 149h382l-4.382-9.798c-8.478-.121-16.195-5.201-21.91-13.426"/><path fill="#FFE3BA" d="M308.56 56.643c8.381 0 15.175-6.843 15.175-15.284s-6.794-15.284-15.175-15.284-15.174 6.843-15.174 15.284 6.794 15.284 15.174 15.284"/><path fill="#CAE3FF" d="M246.783 38.341c0-1.362-1.097-2.504-2.486-2.504-.256 0-.476.037-.695.11.036-.257.073-.515.073-.773 0-2.91-2.34-5.267-5.229-5.267-.329 0-.658.037-.951.074a4.59 4.59 0 0 0-3.912-2.21c-2.523 0-4.534 2.026-4.571 4.567h-.073c-2.34 0-4.205 1.915-4.205 4.236 0 2.357 1.902 4.235 4.205 4.235h15.467c1.317 0 2.377-1.105 2.377-2.468M305.92 55.073c0-1.363-1.097-2.505-2.486-2.505a2.1 2.1 0 0 0-.695.11c.037-.257.073-.515.073-.773 0-2.909-2.34-5.266-5.229-5.266-.329 0-.658.037-.95.074a4.59 4.59 0 0 0-3.913-2.21c-2.523 0-4.534 2.026-4.57 4.567h-.073c-2.341 0-4.205 1.915-4.205 4.235 0 2.357 1.901 4.235 4.205 4.235h15.43c1.353-.037 2.413-1.105 2.413-2.467M47.364 23.95c0-1.363-1.097-2.504-2.486-2.504-.256 0-.475.037-.695.11.037-.258.073-.515.073-.773 0-2.91-2.34-5.267-5.228-5.267-.33 0-.659.037-.951.074a4.59 4.59 0 0 0-3.913-2.21c-2.523 0-4.534 2.026-4.57 4.567h-.074c-2.34 0-4.204 1.915-4.204 4.235 0 2.357 1.9 4.236 4.204 4.236h15.431c1.353-.037 2.413-1.105 2.413-2.468M75.297 60.969c0-1.363-1.097-2.505-2.486-2.505-.256 0-.476.037-.695.11.037-.257.073-.515.073-.773 0-2.909-2.34-5.266-5.229-5.266-.329 0-.658.037-.95.074a4.59 4.59 0 0 0-3.913-2.21c-2.523 0-4.534 2.026-4.57 4.567h-.074c-2.34 0-4.205 1.915-4.205 4.235 0 2.357 1.902 4.235 4.206 4.235h15.43c1.353-.037 2.413-1.105 2.413-2.467M139.464 56.79c0-1.363-1.097-2.504-2.487-2.504-.255 0-.475.036-.694.11.036-.258.073-.516.073-.773 0-2.91-2.34-5.267-5.229-5.267-.329 0-.658.037-.951.074a4.59 4.59 0 0 0-3.912-2.21c-2.523 0-4.534 2.026-4.571 4.567h-.073c-2.34 0-4.205 1.915-4.205 4.235s1.792 4.272 4.132 4.272h15.504c1.316-.073 2.413-1.141 2.413-2.504M245.357 68.684c0-.847-.659-1.51-1.5-1.51-.146 0-.292.036-.438.073.036-.147.036-.294.036-.479 0-1.767-1.426-3.204-3.181-3.204-.183 0-.402.037-.585.037-.475-.81-1.353-1.326-2.377-1.326-1.499 0-2.742 1.216-2.779 2.762h-.036a2.553 2.553 0 0 0-2.56 2.578 2.553 2.553 0 0 0 2.56 2.579h9.36c.878-.037 1.5-.7 1.5-1.51M383.311 29.48c0-.847-.658-1.51-1.499-1.51-.146 0-.292.037-.438.074.036-.147.036-.294.036-.479 0-1.767-1.426-3.204-3.181-3.204-.183 0-.402.037-.585.037-.475-.81-1.353-1.326-2.377-1.326-1.499 0-2.742 1.216-2.779 2.762h-.036a2.553 2.553 0 0 0-2.56 2.578 2.553 2.553 0 0 0 2.56 2.578h9.36c.878-.037 1.499-.7 1.499-1.51M22.481 46.318c0-.847-.658-1.51-1.499-1.51-.146 0-.293.037-.439.074.037-.147.037-.295.037-.479 0-1.767-1.426-3.204-3.181-3.204-.183 0-.403.037-.585.037-.476-.81-1.353-1.326-2.377-1.326-1.5 0-2.742 1.216-2.78 2.762h-.036a2.553 2.553 0 0 0-2.56 2.578 2.553 2.553 0 0 0 2.56 2.578h9.361c.878-.037 1.5-.7 1.5-1.51M110.785 29.48c0-.847-.659-1.51-1.5-1.51-.146 0-.292.037-.438.074.036-.147.036-.294.036-.479 0-1.767-1.426-3.204-3.181-3.204-.183 0-.402.037-.585.037-.475-.81-1.353-1.326-2.377-1.326-1.499 0-2.742 1.216-2.779 2.762h-.036a2.553 2.553 0 0 0-2.56 2.578 2.553 2.553 0 0 0 2.56 2.578h9.36c.878-.037 1.5-.7 1.5-1.51M117.365 68.603l12.319 58.386 2.282-1.092-13.004-57.627z"/><path fill="#E6E6E6" d="M332.48 121.572s-6.107-42.574 7.642-86.583l-2.158-1.695s-16.161 33.293-13.785 89.457z"/><path fill="#33B067" d="M343.887 23.427c5.046-3.352 12.541 1.988 13.565 10.275 0 0-.877-.553-2.303-1.105-.403-2.1-.768-3.94-.768-3.94l.256 3.756c-.439-.148-.914-.332-1.463-.48l-.366-2.025-.182 1.879a29 29 0 0 0-2.158-.406l-.95-5.892-.476 5.819c-.731-.037-1.462 0-2.23.11l-.585-4.014v4.088c-.622.11-1.243.258-1.902.442l-.694-5.966s.036 3.351 0 6.187c-1.609.59-3.255 1.51-4.864 2.873l-.036-.737c-.037.037.548-7.808 5.156-10.864"/><path fill="#33B067" d="M336.903 20.774c-4.022-4.567-12.614-1.4-15.759 6.334 0 0 .987-.294 2.523-.478.914-1.915 1.755-3.61 1.755-3.61l-1.243 3.536c.475-.037.987-.074 1.536-.074l.877-1.841-.329 1.841c.695.037 1.426.074 2.194.184l2.45-5.413-1.024 5.708c.695.184 1.426.405 2.121.7l1.609-3.72-1.061 3.978c.585.258 1.134.552 1.719.92l2.23-5.56s-.877 3.24-1.609 6.002c1.426.995 2.779 2.32 3.949 4.088l.256-.7c0-.036 1.463-7.733-2.194-11.895"/><path fill="#33B067" d="M333.029 31.563c4.022-3.94 7.057-.515 7.057-.515-1.499.405-2.852 1.362-4.022 2.615l-.549-.7.073 1.215c-.292.332-.548.663-.804.995l-.914-2.1.402 2.873c-.366.552-.731 1.105-1.024 1.657l-.402-2.099.037 2.762c-.33.626-.622 1.252-.915 1.805l-.438-3.83-.073 4.971c-.659 1.547-.988 2.615-.988 2.615s-1.462-8.323 2.56-12.264M343.887 40.883l-.841.479a22 22 0 0 0-.439-1.989l.549-1.031-.695.442c-.073-.221-.11-.442-.183-.663l.732-2.026-1.097.81c-.585-1.84-1.317-3.461-2.267-4.235 0 0 9.214 2.983 4.022 13 0 0-.183-1.583-.549-3.682z"/><path fill="#33B067" d="m334.819 32.703-1.463-2.799.622 2.91c-.146.036-.293.036-.439.073l-1.901-2.394.475 2.762c-.622.185-1.243.406-1.938.7-.658.295-1.353.626-2.011 1.031l-.914-2.43.439 2.725a20 20 0 0 0-1.829 1.215l-.475-2.172.037 2.467a33 33 0 0 0-2.048 1.584l.073-3.904-.548 4.346c-.659.552-1.207 1.068-1.719 1.546l-.073-2.725-.695 3.462c-.695.7-1.133 1.178-1.133 1.178.365-9.501 4.022-13.258 10.055-14.289s10.421 5.303 10.421 5.303-1.865-.884-4.936-.589M352.443 44.307l-.548 2.836c-.256-.7-.622-1.62-1.097-2.615l.512-4.162-.915 3.278a34.4 34.4 0 0 0-2.449-4.272l.877-2.873-1.389 2.136c-.293-.368-.585-.736-.878-1.068l.475-1.804-.767 1.51c-.22-.221-.403-.442-.622-.663l.585-2.43-.951 2.098c-.621-.552-1.243-1.03-1.938-1.4l.951-2.945s-.695 1.215-1.499 2.688a6.6 6.6 0 0 0-3.035-.626s1.828-2.946 5.192-3.94c3.364-1.032 10.604 5.118 7.46 18.635 0 0-.11-.295-.293-.848zM346.921 18.048l.585 1.73c-.183 0-.402.038-.622.074l-.694-2.246.475 2.283c-.366.11-.805.295-1.243.59l-.951-3.02.548 3.277c-.146.11-.292.221-.475.369l-1.06-2.836.768 3.093c-.659.626-1.353 1.51-2.011 2.689l-.293-4.162-.475 5.672c-.659 1.436-1.317 3.24-1.902 5.487 0 0-.585-15.1 3.035-16.793 3.62-1.695 5.741 5.56 5.741 5.56s-.183-.073-.512-.073z"/><path fill="#33B067" d="m341.764 34.839-.329 2.872-1.097-2.762-1.463 2.173-.585-2.026-1.682 1.437s.22-3.646 1.28-5.304c1.097-1.694 4.315-.515 3.876 3.61"/><path fill="#CAE3FF" d="M296.717 80.835V60.874s-4.022 4.309-6.692 3.72c-2.669-.59-6.143 1.436-6.143 1.436s3.474-.516 4.79.92c1.28 1.436 7.058 1.584 7.058 1.584V81.57z"/><path fill="#A9D1FF" d="M314.452 74.723h-.914v1.252h-2.998v-1.252h-2.962v1.252h-3.035v-1.252h-2.962v1.252h-2.998v-1.252h-2.962v1.252h-3.035v-1.252h-2.925v1.252h-3.035v-1.252h-2.962v1.252h-2.998v-1.252h-1.024l-2.925 23.644 40.77-.148z"/><path fill="#CAE3FF" d="M320.923 91.883h-1.243v1.73h-4.132v-1.73h-4.058v1.73h-4.169v-1.73h-4.059v1.73h-4.131v-1.73h-4.059v1.73h-4.169v-1.73h-4.058v1.73h-4.132v-1.73h-4.059v1.73h-4.132v-1.73h-1.426l-4.022 32.482 56.054-.221z"/><path fill="#A9D1FF" d="M95.146 78.415s5.542-9.87 20.513-18.376c0 0 12.175-1.034 25.96 4.935 0 0 2.795 4.605-.379 6.391-3.174 1.833-5.827-1.832-5.827-1.832s-.568 5.545-4.737 5.733c-4.121.141-5.353-3.9-5.353-3.9s-.427 5.075-5.353 6.391c-4.311 1.128-6.964-2.49-6.964-2.49s-.853 4.182-4.69 5.404c-3.08.987-5.211-1.645-5.211-1.645s-.901 4.56-4.17 4.56c-2.747-.048-3.79-5.17-3.79-5.17"/><path fill="#fff" d="M188.459 144.218c39.157 0 70.9-1.863 70.9-4.162s-31.743-4.161-70.9-4.161-70.899 1.863-70.899 4.161c0 2.299 31.742 4.162 70.899 4.162"/><path fill="#07F" d="M237.459 121.897s1.609-2.357 3.035-2.983c1.462-.663 1.682-3.131 2.486-3.278s1.645 2.173 3.035 2.836c1.389.663 3.437 3.425 3.437 3.425z"/><path fill="#fff" d="M237.459 121.897s1.609-2.357 3.035-2.983c1.462-.663 1.682-3.131 2.486-3.278s1.645 2.173 3.035 2.836c1.389.663 3.437 3.425 3.437 3.425z" opacity=".8"/><path fill="#07F" d="M249.009 138.766h-11.555l-1.463-16.904h14.48z"/><path fill="#07F" d="M251.206 120.977H235.3v1.767h15.906z"/><path fill="#fff" d="M251.206 120.977H235.3v1.767h15.906z" opacity=".2"/><path fill="#263238" d="M242.542 122.23c1.06 1.657 5.558 8.544 8.373 9.023l.329-.847s-2.486.295-8.044-8.618c-.11-.184-.329-.258-.512-.147-.183.147-.256.405-.146.589"/><path fill="#07F" d="M226.087 116.931a.947.947 0 0 1 1.17.626l1.974 6.961 2.56-1.031s1.536 5.819-1.39 6.702c-2.852.884-5.046-4.456-5.046-4.456l2.596-.736-2.486-6.887c-.146-.479.11-1.032.622-1.179"/><path fill="#fff" d="M230.441 130.193c-2.852.884-5.046-4.456-5.046-4.456l2.596-.737s.439.774.951.589c.512-.184.292-1.068.292-1.068l2.56-1.031c.036 0 1.572 5.782-1.353 6.703" opacity=".4"/><path fill="#07F" d="M252.342 140.201c-1.426-.699-2.889-1.399-3.364-1.436-1.024-.074-1.609-.515-2.304-1.399-.731-.884-1.023-1.879-2.303-3.278-1.316-1.4.146-1.952-2.596-2.32-2.743-.369-1.682-.148-3.364-1.363s-1.353-1.215-3.328-2.099-.804-1.215-3.144-1.4c-1.609-.147-4.132.7-5.448 1.658-.585.405-.878 1.105-1.463 1.473-.658.405-1.645-.368-1.536 1.031.037.368.146.737.037 1.068-.183.773-3.401.773-4.242 1.031-.183.074-.402.111-.475.295-.183.331.11.921-.256 1.068-.11.037-.256 0-.366 0-.439.074-.329.884-.731 1.068s-.878-.184-1.316 0c-.366.147-.476.589-.768.81-.512.332-1.097.553-1.609.921-.914.589-1.682 1.326-2.669 1.878l-2.596.7-.768.258h44.609z"/><path fill="#fff" d="M252.342 140.201c-1.426-.699-2.889-1.399-3.364-1.436-1.024-.074-1.609-.515-2.304-1.399-.731-.884-1.023-1.879-2.303-3.278-1.316-1.4.146-1.952-2.596-2.32-2.743-.369-1.682-.148-3.364-1.363s-1.353-1.215-3.328-2.099-.804-1.215-3.144-1.4c-1.609-.147-4.132.7-5.448 1.658-.585.405-.878 1.105-1.463 1.473-.658.405-1.645-.368-1.536 1.031.037.368.146.737.037 1.068-.183.773-3.401.773-4.242 1.031-.183.074-.402.111-.475.295-.183.331.11.921-.256 1.068-.11.037-.256 0-.366 0-.439.074-.329.884-.731 1.068s-.878-.184-1.316 0c-.366.147-.476.589-.768.81-.512.332-1.097.553-1.609.921-.914.589-1.682 1.326-2.669 1.878l-2.596.7-.768.258h44.609z" opacity=".8"/><path fill="#07F" d="M221.663 133.502v.073a6.65 6.65 0 0 1-1.024 3.499c-.037.074-.11.184-.183.258a5.8 5.8 0 0 1-1.389 1.436c-.11.111-.256.184-.366.258-.037.037-.073.037-.11.074-.036.037-.073.037-.109.073a.8.8 0 0 0-.183.111c-.11.074-.22.11-.329.184-.878.442-1.902.7-2.962.7-1.902 0-3.62-.81-4.827-2.063-.439-.478-.841-.994-1.133-1.583a6.6 6.6 0 0 1-.732-3.057v-.037c0-.184 0-.368.037-.552a6.9 6.9 0 0 1 .695-2.468l.329-.552c.365-.589.877-1.142 1.389-1.584.183-.147.366-.294.549-.405.073-.037.146-.11.219-.147.512-.332 1.097-.553 1.682-.737.037 0 .11-.037.146-.037.512-.147 1.061-.184 1.609-.184.183 0 .329 0 .512.037h.146c.768.074 1.463.258 2.121.589.037 0 .073.037.073.037.585.258 1.097.626 1.573 1.031a6.73 6.73 0 0 1 2.194 4.125c.036.332.073.626.073.921"/><path fill="#fff" d="M221.662 133.502a6.72 6.72 0 0 1-3.693 6.003c-.256-.221-.366-.442-.366-.442 1.243-3.609 0-5.524 0-5.524v-.037l.073-.589v-.11c.183-1.068.658-3.094 1.719-4.309a6.65 6.65 0 0 1 2.267 5.008M209.889 132.322s-1.17 1.178-.841 4.198a6.6 6.6 0 0 1-.732-3.057c0-2.099.951-3.977 2.45-5.192-.621 1.289-.95 2.762-.877 4.051" opacity=".6"/><path fill="#fff" d="M219.396 128.492c-1.462 1.694-1.828 5.009-1.828 5.009-4.022.994-7.715-1.142-7.715-1.142-.073-1.289.256-2.799.914-4.051a6.66 6.66 0 0 1 4.205-1.51c1.718 0 3.254.626 4.424 1.694M217.97 139.502c-.878.442-1.901.7-2.962.7a6.7 6.7 0 0 1-4.826-2.062c1.243.736 3.802 1.804 7.422.92 0-.036.073.221.366.442" opacity=".2"/><g fill="#000" opacity=".2"><path d="M217.86 127.46c-.183.258-.329.516-.475.774-.256.515-.512 1.031-.695 1.583-.219.553-.366 1.105-.512 1.657-.146.553-.256 1.142-.366 1.695.037-.59.11-1.142.256-1.731.11-.59.293-1.142.476-1.694.219-.553.438-1.068.731-1.584.146-.258.329-.516.512-.737 0 0 .036 0 .073.037M215.63 126.833c-.11.184-.183.332-.256.516a15 15 0 0 0-.658 1.768c-.183.589-.329 1.215-.475 1.841-.147.626-.256 1.252-.366 1.878.037-.626.11-1.289.219-1.915q.165-.939.439-1.878a11 11 0 0 1 .695-1.805c.073-.147.146-.294.256-.442.036 0 .11.037.146.037M213.364 126.98c-.037.111-.073.185-.11.295-.219.553-.365 1.105-.512 1.694a24 24 0 0 0-.365 1.731c-.11.589-.183 1.142-.293 1.731 0-.589.073-1.178.146-1.768.073-.589.183-1.178.329-1.731.147-.589.293-1.141.549-1.694a.8.8 0 0 1 .11-.184c.073-.037.109-.037.146-.074M211.535 127.752c-.109.406-.255.811-.329 1.253-.109.478-.182.957-.256 1.436-.073.479-.109.957-.182 1.436-.037-.479 0-.957.036-1.436q.055-.719.22-1.436c.073-.369.182-.737.292-1.068.073-.074.146-.148.219-.185M219.469 135.745c0 .7-.073 1.399-.256 2.062-.073.332-.219.663-.365.958-.037.11-.11.221-.147.331-.036.037-.073.037-.109.074.182-.442.365-.921.475-1.4a6.3 6.3 0 0 0 .219-2.025 7.3 7.3 0 0 0-.292-1.989c-.183-.663-.476-1.289-.805-1.878.403.552.732 1.178.951 1.841.183.626.293 1.326.329 2.026M220.785 135.561v.552l-.073.553c0 .147-.037.294-.073.442-.037.073-.11.184-.183.257.037-.221.11-.478.11-.736l.036-.553v-1.105c0-.184 0-.368-.036-.552-.073-.736-.293-1.436-.549-2.099a8.2 8.2 0 0 0-1.06-1.915c.512.515.914 1.178 1.207 1.841.292.7.511 1.4.585 2.136.036.184.036.369.036.553zM221.661 133.502v.074c0-.037 0-.074-.037-.111a9.2 9.2 0 0 0-.731-2.209c-.329-.7-.732-1.4-1.28-1.952.585.552 1.024 1.215 1.389 1.915.22.479.439.957.585 1.436.037.258.074.553.074.847M209.56 131.287a6 6 0 0 0-.768 1.104c-.183.369-.366.737-.476 1.105 0-.184 0-.368.037-.552.11-.221.219-.405.329-.626.256-.405.512-.774.878-1.031M209.89 129.488c-.292.331-.548.626-.804.957l.329-.552c.11-.147.293-.295.475-.405M209.889 133.758c.621.221 1.206.442 1.828.626s1.243.331 1.901.442c1.28.221 2.596.294 3.84-.037a4.9 4.9 0 0 1-1.902.368c-.658.037-1.316-.037-1.974-.147a11 11 0 0 1-1.902-.516 9.7 9.7 0 0 1-1.791-.736M209.889 135.376c.621.258 1.243.442 1.864.627.622.147 1.28.294 1.938.368.659.11 1.317.11 1.975.11l.475-.037.476-.073c.329-.037.658-.111.987-.147-.622.184-1.28.368-1.938.405-.658.036-1.316.036-1.975-.037a11.4 11.4 0 0 1-1.938-.405c-.694-.258-1.316-.516-1.864-.811M210.035 136.74c.585.258 1.17.479 1.792.663.621.184 1.243.294 1.865.368.329.037.621.074.95.074h.951c.622-.037 1.243-.148 1.865-.258-.622.184-1.243.368-1.865.405-.622.074-1.28.037-1.938-.037a8 8 0 0 1-1.865-.442 7.5 7.5 0 0 1-1.755-.773M210.291 137.77a9 9 0 0 0 1.682.626c.585.184 1.17.295 1.755.368s1.17.111 1.792.074l.439-.037.438-.073c.293-.037.585-.148.878-.185-.549.221-1.134.406-1.755.442a7.6 7.6 0 0 1-1.828 0 9.3 9.3 0 0 1-1.756-.405c-.548-.221-1.133-.479-1.645-.81"/></g><path fill="#263238" d="M138.659 122.97s1.316-1.952 3.62-2.099c2.303-.147 4.278 2.836 4.278 2.836h-.731s-1.865-2.026-3.218-2.026-2.633 1.657-2.633 1.657zM119.022 138.51c.805-1.363 9.763-.479 11.811-1.289l1.097 1.878s-1.536.847-4.132.552-6.436-.405-7.459.516z"/><path fill="#000" d="M119.022 138.51c.805-1.363 9.763-.479 11.811-1.289l1.097 1.878s-1.536.847-4.132.552-6.436-.405-7.459.516z" opacity=".3"/><path fill="#263238" d="M156.796 134.424a9 9 0 0 1-.256.957c-.731 2.504-1.865 4.53-2.669 4.861h-23.256c-.658 0-1.28-.294-1.645-.81l-.037-.037a3 3 0 0 1-.219-.368c-1.609-3.388-3.218-10.128-.951-13.221.22-.332.512-.626.805-.884.036 0 .036-.037.073-.037.475-.405.987-.7 1.572-.994 1.609-.737 3.583-1.068 5.485-1.216.548-.036 1.097-.073 1.645-.073 1.426-.037 2.743 0 3.803.037 3.73.11 6.691 1.215 8.666 1.031a6 6 0 0 1 2.194.184c.219.073.402.11.621.221.841.331 1.646.847 2.523 1.547 2.377 1.804 2.414 5.561 1.646 8.802"/><path fill="#fff" d="M156.796 134.424a9 9 0 0 1-.256.957c-.731 2.504-1.865 4.53-2.669 4.861h-23.256c-.658 0-1.28-.294-1.645-.81l-.037-.037a3 3 0 0 1-.219-.368c-1.609-3.388-3.218-10.128-.951-13.221.22-.332.512-.626.805-.884.036 0 .036-.037.073-.037.475-.405.987-.7 1.572-.994 1.609-.737 3.583-1.068 5.485-1.216.548-.036 1.097-.073 1.645-.073 1.426-.037 2.743 0 3.803.037 3.73.11 6.691 1.215 8.666 1.031a6 6 0 0 1 2.194.184c.219.073.402.11.621.221.841.331 1.646.847 2.523 1.547 2.377 1.804 2.414 5.561 1.646 8.802" opacity=".1"/><path fill="#000" d="M153.246 134.163c-1.682 0-5.009.81-9.909-.295-3.181-.7-5.631-.368-6.984-.037-.037-.736-.11-1.546-.183-2.43-.439-6.003-3.839-8.508-5.887-7.513a7.2 7.2 0 0 0-1.572.994c-.037 0-.037.037-.073.037-.293.258-.585.552-.805.884-2.267 3.093-.658 9.833.951 13.221.073.148.146.258.219.368l.037.037c.402.442.951.737 1.572.737h4.096c1.682 0 1.901-1.584 1.718-4.935.293-.184.658-.368 1.024-.626 1.024-.663 5.046-.332 6.801.331s6.289.958 8.483.59c1.536-.258 3.035-.148 3.803-.074.11-.295.183-.626.256-.958a22.5 22.5 0 0 0-3.547-.331" opacity=".2"/><path fill="#000" d="M138.11 125.728c1.024 3.719 1.719 5.008 1.975 5.377.255.368 7.642 1.252 9.031 1.252s3.73-.221 4.754-.479c.95-.258 1.243-5.009-1.134-7.881-.219-.074-.402-.147-.622-.221 1.28 2.909 1.317 6.482 1.171 6.997-.22.7-2.377.59-3.401.59s-7.313-.406-7.971-.663c-.658-.258-1.024-.626-1.536-1.289s-.585-2.91-1.499-4.862c-.329-.699-.914-1.399-1.499-1.988-.549 0-1.097.036-1.646.073.988.589 1.938 1.51 2.377 3.094" opacity=".2"/><path fill="#263238" d="m130.796 129.159-2.011.515s-1.426 4.162-.585 5.893c.878 1.731-5.85 4.161-9.178 2.946l1.317 1.694s7.971-.515 9.47-3.572c1.536-3.057-.658-3.536-.805-4.383-.146-.847 1.792-3.093 1.792-3.093"/><path fill="#fff" d="m130.796 129.159-2.011.515s-1.426 4.162-.585 5.893c.878 1.731-5.85 4.161-9.178 2.946l1.317 1.694s7.971-.515 9.47-3.572c1.536-3.057-.658-3.536-.805-4.383-.146-.847 1.792-3.093 1.792-3.093" opacity=".1"/><path stroke="#263238" stroke-miterlimit="10" stroke-width="1.701" d="m185.748 105.363 4.557.359 1.779-22.873-4.557-.36z"/><path fill="#263238" d="M186.923 137.218c.109 0 .585.037.731.074.804.073 1.426.773 1.353 1.583-.073.811-.768 1.4-1.609 1.363a5.4 5.4 0 0 1-.731-.074c-.805-.073-1.426-.773-1.353-1.583.073-.847.768-1.437 1.609-1.363"/><path fill="#fff" d="M185.314 138.542a1.51 1.51 0 0 0 1.353 1.62c.804.074 1.535-.552 1.609-1.362a1.51 1.51 0 0 0-1.353-1.621 1.48 1.48 0 0 0-1.609 1.363" opacity=".1"/><path fill="#263238" d="M182.939 136.891c.109 0 .585.037.731.073.804.074 1.426.774 1.353 1.584s-.768 1.4-1.609 1.363a5.4 5.4 0 0 1-.731-.074c-.805-.074-1.426-.773-1.353-1.584.073-.81.768-1.399 1.609-1.362"/><path fill="#fff" d="M181.33 138.215a1.51 1.51 0 0 0 1.353 1.621c.804.073 1.535-.553 1.608-1.363a1.51 1.51 0 0 0-1.352-1.62 1.485 1.485 0 0 0-1.609 1.362" opacity=".2"/><path fill="#263238" d="m182.242 137.325 5.668.442a.987.987 0 0 0 1.06-.921l2.706-34.618a.99.99 0 0 0-.914-1.068l-5.667-.442a.99.99 0 0 0-1.061.92l-2.706 34.619a.99.99 0 0 0 .914 1.068"/><path fill="#fff" d="m185.061 137.552 2.852.221a.99.99 0 0 0 1.06-.921l2.706-34.619a.99.99 0 0 0-.914-1.068l-2.852-.221a.99.99 0 0 0-1.06.921l-2.706 34.619c0 .552.402 1.031.914 1.068" opacity=".2"/><path fill="#263238" d="m187.397 83.154 4.754.368a.74.74 0 0 0 .804-.663l.037-.441a.74.74 0 0 0-.658-.81l-4.754-.37a.74.74 0 0 0-.804.664l-.037.442a.74.74 0 0 0 .658.81"/><path fill="#fff" d="m187.397 83.154 4.754.368a.74.74 0 0 0 .804-.663l.037-.441a.74.74 0 0 0-.658-.81l-4.754-.37a.74.74 0 0 0-.804.664l-.037.442a.74.74 0 0 0 .658.81" opacity=".2"/><path fill="#000" d="m187.402 83.154.402.037c.403.037.768-.258.768-.663l.037-.442a.74.74 0 0 0-.658-.81l-.402-.037a.74.74 0 0 0-.805.663l-.036.442c0 .405.292.773.694.81" opacity=".2"/><path fill="#07F" d="m202.173 104.846-2.45 31.304c-.073 1.142-1.097 2.026-2.23 1.915l-11.336-.884c-.804-.073-1.389-.773-1.353-1.583l2.523-32.52a1.5 1.5 0 0 1 1.573-1.362l11.335.883c1.17.074 2.048 1.105 1.938 2.247"/><path fill="#fff" d="m202.173 104.846-2.45 31.304c-.073 1.142-1.097 2.026-2.23 1.915l-11.336-.884c-.804-.073-1.389-.773-1.353-1.583l2.523-32.52a1.5 1.5 0 0 1 1.573-1.362l11.335.883c1.17.074 2.048 1.105 1.938 2.247" opacity=".2"/><path fill="#000" d="M194.385 102.118v.037l-.403-.037c-.804-.073-1.499.553-1.572 1.363L189.887 136c-.037.7.366 1.289.987 1.51l-4.717-.368c-.804-.074-1.389-.773-1.353-1.583l2.523-32.52a1.5 1.5 0 0 1 1.573-1.363z" opacity=".2"/><path fill="#000" d="M191.752 135.968h-.183c-.219 0-.366-.221-.366-.442l2.487-31.893c0-.221.219-.368.439-.368h.182c.22 0 .366.221.366.442l-2.486 31.893c-.037.221-.22.405-.439.368M194.017 136.298h-.182c-.22 0-.366-.221-.366-.442l2.486-31.893c0-.221.22-.369.439-.369h.183c.219 0 .366.221.366.442l-2.487 31.894c-.036.221-.219.405-.439.368M196.285 136.447h-.183c-.219 0-.366-.221-.366-.442l2.487-31.894c0-.221.219-.368.439-.368h.182c.22 0 .366.221.366.442l-2.486 31.893a.44.44 0 0 1-.439.369M198.553 136.553h-.183c-.22 0-.366-.221-.366-.442l2.486-31.894c0-.221.22-.368.439-.368h.183c.219 0 .366.221.366.442l-2.487 31.893c-.036.221-.219.406-.438.369" opacity=".2"/></g><path fill="#E4897B" d="M156.849 63.273s-6.296-3.537-7.591-4.45c-1.324-.915-8.297-7.783-8.68-7.96 0 0 .265-.795-.324-1.237-.588-.472-2.854-1.946-3.207-1.946s-1.177 3.184-1.03 3.95c.118.796 3.325.973 3.325.973s6.65 7.752 7.68 8.842 8.15 5.719 8.15 5.719z"/><path fill="#005BC3" d="M159.439 63.919s1.383 2.8-1.972 7.221l-7.385-5.453 2.943-5.364z"/><path fill="#fff" d="m157.465 71.142-3.501-2.564-.471-.324-1.971-1.445-1.471-1.09 1.088-1.975.618-1.12 1.265-2.27 1.207.678 1.029.59 4.149 2.328s.177.354.236 1.002c.176 1.15-.03 3.331-2.178 6.19" opacity=".6"/><path fill="#000" d="m157.465 71.141-3.501-2.564c1.206-2.476 4.296-3.36 5.708-3.626.147 1.15-.059 3.331-2.207 6.19" opacity=".2"/><g fill="#fff" opacity=".2"><path d="m155.261 61.593-1.03.62v-1.21zM152.995 62.977l-1.294 1.827-.56-1.09.618-1.12zM153.966 65.752l-.471 2.475-1.942-1.444zM154.879 64.307l.706 1.886 1.53-2.063z"/></g><path fill="#E4897B" d="M173.151 62.593s6.296-3.537 7.591-4.451 8.268-7.782 8.68-7.959c0 0-.265-.795.324-1.238.588-.471 2.854-1.945 3.207-1.945s1.177 3.213 1.03 3.98c-.118.795-3.325.972-3.325.972s-6.65 7.752-7.68 8.843c-1.03 1.09-8.15 5.718-8.15 5.718zM165.619 99.939s-.147 2.24-.353 5.188c-.147 1.857-.294 3.979-.471 6.042-.235 2.771-.529 5.424-.794 7.075-.265 1.503-3.649 20.279-3.649 20.279h-2.265c.706-17.509 1.824-24.288 1.883-25.32.029-.324.029-.796.029-1.356.03-2.004.088-5.158.118-7.457.029-1.651.029-2.859.029-2.859zM174.415 114.116c-.088 1.532-1 24.376-1 24.376h-2.501c-1.265-18.187-.795-24.494-1.03-25.762v-.029c-.383-2.152-.765-4.952-1-7.045-.206-1.68-.324-2.889-.324-2.889l5.09-2.21s.324 2.652.53 5.836a91 91 0 0 1 .235 4.922c.059.973.059 1.946 0 2.801"/><path fill="#000" d="m160.086 104.42 5.208.707c-.147 1.857-.294 3.98-.471 6.043l-4.825.678c.029-1.975.059-5.129.088-7.428M174.445 111.288l-4.561 1.415c-.382-2.152-.765-4.952-1-7.045l5.325.737c.118 1.562.206 3.272.236 4.893" opacity=".2"/><path fill="#005BC3" d="M160.882 137.845h-3.001c-.089 0-.177.059-.206.177l-.501 2.211a.39.39 0 0 0 .295.442h.088c.971-.03 1.677-.089 2.913-.089.765 0 3.03.089 4.06.089s1.177-1.032.736-1.12c-1.913-.413-3.354-1.002-3.943-1.533a.7.7 0 0 0-.441-.177M173.621 137.786h-3.001c-.088 0-.176.059-.206.177l-.5 2.21a.39.39 0 0 0 .294.442h.089c.971-.029 1.677-.088 2.912-.088.765 0 3.031.088 4.061.088s1.177-1.031.735-1.12c-1.912-.412-3.354-1.002-3.942-1.532a.57.57 0 0 0-.442-.177"/><path fill="#263238" d="M165.824 109.903c.029-.207.058-.413.058-.649.295-3.006.618-6.632.883-10.14 1.03 2.742 1.442 6.574 1.972 10.789h6.178c-.5-10.847-1.853-19.69-2.559-23.463h-13.123c-.03 1.356-.177 14.443-.5 23.463z"/><path fill="#fff" d="M165.824 109.903c.029-.207.058-.413.058-.649.295-3.006.618-6.632.883-10.14 1.03 2.742 1.442 6.574 1.972 10.789h6.178c-.5-10.847-1.853-19.69-2.559-23.463h-13.123c-.03 1.356-.177 14.443-.5 23.463z" opacity=".2"/><path fill="#E4897B" d="M167.649 59.558c-.03.117-.059.235-.118.353a3.26 3.26 0 0 1-1.236 1.621 1.8 1.8 0 0 1-.441.266c-.824.412-1.795.5-2.678.118a3.2 3.2 0 0 1-1.029-.708c-1.236-1.267-1.207-2.712-1.354-5.158a3.8 3.8 0 0 1 .236-1.533c.706-1.71 2.677-2.535 4.384-1.798 2.442 1.002 2.765 4.657 2.236 6.838"/><path fill="#000" d="M166.298 61.563a1.7 1.7 0 0 1-.442.265c-.823.413-1.794.501-2.677.118.176-.471.441-.825.441-.825s1.471-.236 2.678.442" opacity=".2"/><path fill="#E4897B" d="M161.382 64.717c1.207 1.09 4.149.677 4.149.677s1.854-.5 1.442-1.09c-1.089-.177-1.619-.678-1.824-1.327-.118-.383-.148-.795-.118-1.237l.088-.708-3.648-2.712c.5 1.828 1.088 5.13-.089 6.397"/><path fill="#263238" d="m166.297 57.347.529.206-.265-1.09s.765-1.15 0-2.211c0 0 2.119-.649.942-1.769-.441-.413-1 0-2.472-.648-.794-.354-3.295-.383-3.413.648 0 0-1.795 0-2.001 3.066s1.913 4.834 1.913 4.834 2.177.5 3.237-.354c1.029-.884 1.53-2.682 1.53-2.682"/><path fill="#E4897B" d="M164.915 57.525c.147.53.442.914.824 1.09.5.207.824-.5.765-1.238-.059-.648-.412-1.562-.941-1.444-.559.118-.824.914-.648 1.592"/><path fill="#000" d="M166.795 99.113a495 495 0 0 1-.883 10.14c-.441-4.363-1-7.458-1-7.458s-.501-.412-1.913-2.682 0-6.455 0-6.455c-.059 3.89 3.796 6.455 3.796 6.455" opacity=".2"/><path fill="#005BC3" d="m175.416 109.399-.265 1.032h-6.591v-.944zM166.147 109.549l-.177.944h-7.473l-.442-.944zM167.059 64.006s-1.06-1.71-3.767-1.828-2.912 1.74-2.912 1.74z"/><path fill="#fff" d="M167.059 64.006s-1.06-1.71-3.767-1.828-2.912 1.74-2.912 1.74z" opacity=".5"/><path fill="#005BC3" d="M157.38 62.973s1.383 12.586-.295 27.56l15.801-.973c-.177-16.153-2.354-26.351-2.354-26.351s-4.09.854-7.385.736c-3.09-.088-5.767-.972-5.767-.972"/><path fill="#005BC3" d="M170.563 63.24s2.118 4.952 2.354 9.962c.235 5.011-8.592 11.88-8.592 11.88s-6.797-4.687-12.034-4.245-6.856 2.299-6.856 2.299 4.06-8.725 11.152-11.761c0 0-1.472-5.04.794-8.342 0-.059 4.914 1.533 13.182.207"/><path fill="#fff" d="M172.914 73.173v.413c0 .206-.029.442-.088.648a7 7 0 0 1-.441 1.474c-.53 1.297-1.442 2.623-2.442 3.832a23 23 0 0 1-1.56 1.739c-2.059 2.181-4.06 3.714-4.06 3.714s-2.501-1.74-5.65-2.977c-.617-.236-1.235-.472-1.883-.648-1.5-.443-3.06-.708-4.501-.62-1.854.148-3.237.472-4.267.826-.235.088-.471.177-.677.265l-.176.088a9 9 0 0 0-1.265.708c-.03.03-.089.059-.118.088-.088.06-.147.118-.206.148-.029.03-.059.03-.059.059l-.059.059c-.029 0-.029.03-.029.03l-.03.029s.03-.089.089-.177a.5.5 0 0 0 .088-.177c.088-.177.206-.383.353-.649.029-.03.029-.088.059-.118.029-.059.088-.117.118-.206.029-.059.088-.147.117-.206.177-.295.383-.649.589-1.002.971-1.533 2.412-3.567 4.266-5.394.589-.56 1.177-1.12 1.824-1.622 1.119-.854 2.325-1.62 3.649-2.21 0 0-.53-1.798-.471-3.95 0-.413.03-.825.118-1.268.147-1.09.5-2.18 1.147-3.154 0 0 .765.236 2.207.472.795.118 1.766.236 2.942.295 1.648.088 3.62.059 5.944-.206.677-.089 1.354-.177 2.089-.295 0 0 .03.059.059.177.176.442.706 1.798 1.206 3.596.118.471.265.972.383 1.503.118.472.206 1.002.323 1.503.236 1.061.354 2.152.412 3.213" opacity=".6"/><g fill="#fff" opacity=".2"><path d="m170.882 77.208-.942 2.387a23 23 0 0 1-1.559 1.74l-1.884-3.538zM154.875 74.91l-3.737.206c.588-.56 1.177-1.12 1.824-1.62zM159.171 65.477l-.412 3.89-2.648-2.004c0-.413.029-.825.117-1.267zM160.406 75.734l-1.235-3.714 3.736-.707zM166.792 72.169v2.8l2.677-.944zM159.937 80.274l-1.266 1.768c-.617-.235-1.235-.471-1.883-.648l-.941-2.152zM150.374 77.59l1.942.825-1.942 1.327zM148.049 81.628c-1.913.678-2.589 1.445-2.589 1.445s.5-1.062 1.412-2.535zM163.73 78.004l-1.647 1.739 2.501.413zM163.731 67.214l1.942 2.623 1.383-2.977zM172.53 69.987l-2.501-1.65 1.795-1.386c.265.943.53 1.975.706 3.036M172.912 73.613c-.03.678-.236 1.415-.53 2.152l-1.03-2.565zM170.646 63.384l-1.559 1.621-.589-1.503a70 70 0 0 0 2.089-.295c-.029.03 0 .088.059.177M162.525 63.708l-1.148 2.447-1.795-2.741c.795.147 1.795.265 2.943.294"/></g><path fill="#000" d="M172.917 73.172v.413c0 .206-.03.442-.089.649-2.059-3.272-1.559-6.22-1.559-6.22l.971.472c.117.471.206 1.002.323 1.503.177 1.032.295 2.122.354 3.183" opacity=".2"/><path fill="#005BC3" d="M164.56 50.21c3.502-1.209 4.355 3.448.912 6.602-3.472 3.154-7.444 3.538-7.915 1.946-.441-1.592 1.678-6.72 7.003-8.548"/><path fill="#005BC3" d="M161.06 49.975c1.795 0 4.326 1.827 4.326 1.827s.353 1.946-1.413 3.655c-1.795 1.71-3.383 1.975-4.384 1.326-1-.648-1.265-3.242-1.265-3.242s.265-1.002 1.265-1.326c0 0 .294-2.24 1.471-2.24"/><path fill="#000" d="M164.002 55.457c-1.795 1.71-3.384 1.974-4.384 1.326a1.36 1.36 0 0 1-.442-.472c-.647-.972-.824-2.77-.824-2.77 1.707 2.063 3.678-.06 3.943-1.504.147-.825-.059-1.532-.471-1.974 1.177.265 2.472 1.002 3.119 1.444.295.177.442.295.442.295s.382 1.945-1.383 3.655" opacity=".2"/><path fill="#fff" d="M164.001 55.455c-1.795 1.71-3.384 1.974-4.384 1.326a1.35 1.35 0 0 1-.441-.471c1.794.53 3.913-.354 5.06-1.946.736-1.032.824-2.093.736-2.86.294.178.441.296.441.296s.354 1.945-1.412 3.655" opacity=".6"/><path fill="#005BC3" d="M170.561 63.238s-1.383 2.8 1.972 7.222l7.385-5.453-2.942-5.365z"/><path fill="#fff" d="m179.949 65.009-1.942 1.414-2.854 2.093-2.619 1.916c-.176-.236-.323-.442-.471-.648-.323-.472-.588-.944-.823-1.356-.765-1.474-.971-2.683-.971-3.567 0-1.061.294-1.65.294-1.65l1.648-.914 2.824-1.562 1.236-.678.706-.384z" opacity=".6"/><g fill="#fff" opacity=".2"><path d="m178.007 66.424-2.854 2.122-1.265-2.8zM177.742 61.912l-2.618 1.06-.089-2.24 1.265-.677zM173.153 64.121l-2.855.737c0-1.061.295-1.65.295-1.65l1.647-.914zM172.536 67.687l-.471 2.093c-.323-.472-.588-.943-.823-1.356z"/></g><path fill="#07F" d="M368.13 113h-1.358l-.064.659-1.262.01-.075-.669h-1.534l-.063.656-1.262.011-.075-.667h-1.535l-.063.655-1.262.009-.074-.664h-1.536l-.062.652-1.262.01-.075-.662h-1.535l-.063.65-1.262.01-.074-.66h-1.536l-.063.647-1.262.011-.074-.658h-1.368l-2.04 14.026h22.878z"/><path fill="#fff" d="M368.13 113h-1.358l-.064.659-1.262.01-.075-.669h-1.534l-.063.656-1.262.011-.075-.667h-1.535l-.063.655-1.262.009-.074-.664h-1.536l-.062.652-1.262.01-.075-.662h-1.535l-.063.65-1.262.01-.074-.66h-1.536l-.063.647-1.262.011-.074-.658h-1.368l-2.04 14.026h22.878z" opacity=".5"/><path fill="#07F" d="M372.478 122.555h-1.987l-.093.963-1.845.015-.11-.978h-2.244l-.093.96-1.845.015-.11-.975h-2.244l-.093.957-1.845.015-.109-.972h-2.246l-.092.954-1.845.015-.109-.969h-2.246l-.091.951-1.846.014-.109-.965h-2.246l-.091.947-1.846.015-.109-.962h-2.001L342 143.07h33.461z"/><path fill="#fff" d="M372.478 122.555h-1.987l-.093.963-1.845.015-.11-.978h-2.244l-.093.96-1.845.015-.11-.975h-2.244l-.093.957-1.845.015-.109-.972h-2.246l-.092.954-1.845.015-.109-.969h-2.246l-.091.951-1.846.014-.109-.965h-2.246l-.091.947-1.846.015-.109-.962h-2.001L342 143.07h33.461z" opacity=".6"/><path fill="#000" d="M358.73 136.551a2.237 2.237 0 0 0-2.237 2.237v4.282h4.474v-4.282a2.236 2.236 0 0 0-2.237-2.237M365.666 128.072c-.617 0-1.118.501-1.118 1.119v2.142h2.237v-2.142c0-.618-.501-1.119-1.119-1.119M351.795 128.072c-.618 0-1.119.501-1.119 1.119v2.142h2.237v-2.142c0-.618-.501-1.119-1.118-1.119M364.489 117.047c-.618 0-1.119.501-1.119 1.119v2.141h2.237v-2.141c0-.618-.5-1.119-1.118-1.119M358.73 117.047c-.618 0-1.118.501-1.118 1.119v2.141h2.236v-2.141a1.12 1.12 0 0 0-1.118-1.119M352.972 117.047c-.618 0-1.119.501-1.119 1.119v2.141h2.237v-2.141c0-.618-.5-1.119-1.118-1.119" opacity=".2"/><path fill="#005BC3" d="M37 134.273c0 .027 0 .048.003.075v.004a6.2 6.2 0 0 0 .979 3.29q.075.118.162.237a6.3 6.3 0 0 0 1.646 1.605h.004a1 1 0 0 0 .086.056c.038.027.075.048.113.072q.09.06.183.11.145.084.296.159h.004c.84.423 1.787.661 2.793.661a6.24 6.24 0 0 0 4.533-1.943 6.227 6.227 0 0 0 1.74-4.326v-.021q0-.264-.024-.524a6.2 6.2 0 0 0-.665-2.314 6.395 6.395 0 0 0-1.626-2.009 6 6 0 0 0-.513-.372 6.152 6.152 0 0 0-1.777-.809q-.073-.022-.145-.038a6.3 6.3 0 0 0-1.523-.186q-.243 0-.475.021-.06 0-.12.007h-.004a6.1 6.1 0 0 0-2.091.582 6.3 6.3 0 0 0-1.47.971 6.28 6.28 0 0 0-2.054 3.862v.01a6 6 0 0 0-.055.82"/><path fill="#fff" d="M37 134.273a6.26 6.26 0 0 0 3.472 5.608c.004.003.004 0 .004 0 .248-.207.344-.424.344-.424-1.157-3.376 0-5.184 0-5.184l-.003-.035-.083-.541-.017-.099c-.18-1.003-.63-2.88-1.609-4.017A6.26 6.26 0 0 0 37 134.273M48.078 133.188s1.099 1.099.775 3.941a6.2 6.2 0 0 0 .689-2.856 6.26 6.26 0 0 0-2.315-4.867c.606 1.167.927 2.573.851 3.782" opacity=".6"/><path fill="#fff" d="M39.108 129.581c1.378 1.598 1.712 4.692 1.712 4.692 3.782.926 7.258-1.085 7.258-1.085.076-1.209-.248-2.615-.85-3.783A6.25 6.25 0 0 0 43.268 128a6.25 6.25 0 0 0-4.16 1.581M40.476 139.881c.84.423 1.788.661 2.793.661a6.24 6.24 0 0 0 4.534-1.943c-1.175.699-3.576 1.678-6.983.858 0 0-.096.217-.344.424" opacity=".2"/><g fill="#000" opacity=".2"><path d="M40.579 128.61q.246.344.451.716.384.714.658 1.474c.193.507.341 1.027.482 1.547q.204.787.355 1.588a11 11 0 0 0-.227-1.615 13 13 0 0 0-.448-1.578c-.2-.51-.42-1.013-.703-1.481a8 8 0 0 0-.489-.689q-.037.016-.079.038M42.673 128.027q.13.234.241.472c.255.531.459 1.089.624 1.657.183.565.32 1.144.451 1.723.128.578.241 1.164.341 1.749a15 15 0 0 0-.213-1.777c-.1-.589-.245-1.171-.414-1.743-.182-.572-.386-1.14-.671-1.671a8 8 0 0 0-.238-.416q-.06 0-.12.006M44.792 128.186q.053.14.107.279.284.765.465 1.567c.134.531.237 1.068.337 1.609q.145.81.262 1.626a14 14 0 0 0-.134-1.647 16 16 0 0 0-.3-1.626c-.13-.537-.29-1.067-.506-1.581q-.041-.095-.087-.189-.072-.022-.144-.038M46.521 128.909c.117.386.227.772.307 1.164.1.438.172.882.24 1.327q.098.666.16 1.343c.027-.451.01-.906-.028-1.357a13 13 0 0 0-.204-1.347 10 10 0 0 0-.282-1.006 2 2 0 0 0-.193-.124M39.057 136.363c-.007.645.055 1.299.251 1.919.076.314.214.61.334.906q.07.151.148.296h.004a.5.5 0 0 0 .086.055 7.2 7.2 0 0 1-.445-1.291 6.4 6.4 0 0 1-.206-1.881 6.9 6.9 0 0 1 .29-1.871c.178-.609.43-1.202.757-1.753a6 6 0 0 0-.882 1.712 6.4 6.4 0 0 0-.337 1.908M37.82 136.188l.017.52.072.517c.014.141.042.279.073.416q.075.12.162.238c-.045-.224-.093-.444-.104-.672l-.051-.509-.01-.51c-.011-.172 0-.341.013-.513.017-.169.017-.338.048-.507.07-.678.259-1.34.507-1.974a7 7 0 0 1 1.012-1.777c-.482.493-.85 1.092-1.133 1.726a7.2 7.2 0 0 0-.558 2.005c-.028.172-.024.344-.038.52-.014.172-.02.348-.01.52M37 134.272c0 .028 0 .049.003.076l.021-.117a9 9 0 0 1 .693-2.07c.313-.658.695-1.292 1.191-1.836-.54.503-.971 1.119-1.309 1.777q-.329.648-.544 1.34v.01a6 6 0 0 0-.055.82M48.385 132.195c.282.31.51.658.706 1.02q.269.5.451 1.037 0-.265-.024-.524a5 5 0 0 0-.313-.579c-.224-.358-.49-.695-.82-.954M48.088 130.528q.393.442.765.885a6 6 0 0 0-.303-.527 5 5 0 0 0-.462-.358M48.089 134.516q-.859.329-1.739.585c-.586.167-1.175.326-1.776.423-1.194.221-2.43.281-3.617-.044.57.231 1.187.333 1.804.361.619.023 1.235-.051 1.843-.148a13 13 0 0 0 1.787-.466 12 12 0 0 0 1.698-.711M48.089 136.015q-.867.345-1.766.579c-.599.154-1.205.278-1.818.349-.61.09-1.23.105-1.845.087l-.463-.022-.46-.055c-.31-.02-.608-.11-.917-.154.593.184 1.207.328 1.833.363a9.4 9.4 0 0 0 1.874-.049 11.7 11.7 0 0 0 1.832-.392 9.7 9.7 0 0 0 1.73-.706M47.94 137.309q-.816.382-1.679.627c-.573.165-1.158.289-1.75.353-.294.046-.592.055-.888.077-.298-.004-.596.008-.893-.017-.597-.019-1.184-.138-1.773-.257.57.188 1.159.342 1.763.389a8 8 0 0 0 1.812-.022 9.2 9.2 0 0 0 1.768-.397 7.8 7.8 0 0 0 1.64-.753M47.68 138.286q-.773.355-1.583.59c-.54.155-1.089.276-1.645.339a8 8 0 0 1-1.675.053l-.419-.033-.416-.067c-.28-.03-.547-.126-.827-.179.53.198 1.08.362 1.65.411a7.3 7.3 0 0 0 1.709-.015 9 9 0 0 0 1.663-.384 7.5 7.5 0 0 0 1.542-.715"/></g><path stroke="#263238" stroke-linecap="round" stroke-linejoin="round" stroke-miterlimit="10" stroke-width=".302" d="M26.484 78.136s-1.622.962-4.337.226c-2.716-.735-4.017 3.112-6.337 1.301M29.153 69.77s3.162-1.139 3.558 2.375c.396 3.513-1.529 5.01-3.335 4.929"/><path fill="#263238" d="M29.874 75.584c-1.205.68.01.91-1.547 1.758-1.558.849-4.613 2.679-6.423.406-1.446-1.815-3.607.831-5.133 1.095-1.781.307-3.47-1.14-3.599-2.893-.037-.505-.034-1.025-.228-1.492-.21-.506-.624-.877-1.066-1.182-.494-.34-1.382-.597-1.17-1.376.083-.307.323-.553.599-.713a2.58 2.58 0 0 1 1.625-.327c1.022.136 1.76.94 2.716.05.365-.34.606-.789.876-1.209.463-.72 1.219-1.212 2.092-1.212.81 0 1.337.412 2.015.763 1.324.687 2.936.104 4.073-.592 1.863-1.14 3.288-1.09 4.731.026 1.499 1.158 3.122 5.26 1.523 6.566-.094.078-.978.272-1.084.332"/><path stroke="#263238" stroke-linecap="round" stroke-linejoin="round" stroke-miterlimit="10" stroke-width=".302" d="M29.729 69.218s-1.47-2.025-4.018-1.855-2.167 2.36-4.564.925c-2.396-1.434-4.037-.723-5.112.93"/><path fill="#E4897B" d="M20.787 81.087s-5.21 1.043-6.084.873c-.875-.17-6.471-6.437-6.471-6.437s-.4-1.391-.684-1.437c-.283-.047-3.845-1.212-3.874-.544-.03.667.65 2.417.82 2.589.169.171 2.998.622 2.998.622s5.148 6.734 5.827 7.187 6.846 0 6.846 0zM31.724 81.614c1.043.511 4.72 9.902 4.72 9.902s6.663 6.089 6.852 6.666c.197.6-.442 3.025-.577 3.24-.094.151-1.683.312-1.683.113 0-.208.774-2.94.774-2.94l-7.233-6.004-3.618-8.382z"/><path fill="#005BC3" d="M31.725 81.614c.943.063 5.17 5.073 5.17 5.073L33.8 89.032z"/><path fill="#fff" d="M31.725 81.614c.943.063 5.17 5.073 5.17 5.073L33.8 89.032z" opacity=".5"/><path fill="#005BC3" d="M34.803 88.078c.967 1.054-3.79 5.643-10.07 4.513s-8.94-4.89-8.94-4.89 11.599-7.702 19.01.377"/><path fill="#fff" d="M34.803 88.078c.967 1.054-3.79 5.643-10.07 4.513s-8.94-4.89-8.94-4.89 11.599-7.702 19.01.377" opacity=".6"/><path fill="#005BC3" d="M42.448 94.586c-.776-1.99-4.056-2.657-7.573-2.769a1.2 1.2 0 0 0-1.245 1.198c.634.404 1.1.924 1.348 1.56 1.157 2.963-2.788 7.272-8.814 9.623-6.024 2.35-11.845 1.856-13.003-1.108-.945-2.426-6.197.761-4.645 4.739 2.06 5.278 11.325 6.591 20.696 2.935 9.37-3.658 15.295-10.9 13.236-16.178"/><path fill="#fff" d="M29.213 110.764c-9.37 3.655-18.638 2.342-20.697-2.934-1.55-3.979 3.701-7.165 4.645-4.74.275.701.807 1.262 1.542 1.682 2.377 1.356 6.859 1.221 11.46-.575 5.118-1.993 8.73-5.4 8.999-8.197a3.06 3.06 0 0 0-.183-1.425c-.25-.635-.715-1.155-1.347-1.561a1.2 1.2 0 0 1 1.244-1.196c3.515.112 6.796.778 7.574 2.769 2.056 5.276-3.867 12.519-13.238 16.177" opacity=".4"/><path fill="#000" d="M35.823 102.289s.337-1.722-.284-2.568c0 0-1.724 3.563-7.396 6.278-5.672 2.717-9.576 2.042-10.311 1.587 0 0-.058 1.015.563 1.696 0 0-3.572-1.078-3.692-4.51 2.377 1.356 6.859 1.221 11.46-.575 5.117-1.994 8.73-5.4 8.998-8.198 3.47 1.768.661 6.29.661 6.29" opacity=".2"/><path fill="#E4897B" d="M31.724 108.828c-.126.787-.47 1.899-.936 3.181-1.553 4.253-4.462 10.311-5.254 12.047-.62 1.367-3.355 1.687-6.684 2.274-6.416 1.129-15.045 2.828-15.045 2.828l-.131-2.036s17.324-5.175 17.553-6.138c.32-1.362.415-7.752.517-13.129q.021-.903.038-1.753c.02-.933.037-1.796.05-2.543.035-1.713.055-2.823.055-2.823l8.996-7.182s2.174 6.959.84 15.274"/><path fill="#000" d="M30.788 112.008c-1.553 4.253-4.462 10.311-5.254 12.047-.62 1.368-3.355 1.688-6.684 2.274-6.416 1.13-15.045 2.829-15.045 2.829l-.131-2.037s17.324-5.174 17.553-6.138c.32-1.361.415-7.751.517-13.128l4.551-2.326z" opacity=".2"/><path fill="#E4897B" d="M21.37 92.59s-3.487 7.355-2.255 14.295 7.443 11.513 8.446 13.674 7.822 20.953 7.822 20.953l1.512-.622s-4.207-18.494-5.117-22.918c-.43-2.09-5.485-12.442-5.485-12.442s5.165-5.52 4.718-12.856z"/><path fill="#005BC3" d="M20.156 80.974s6.338-1.396 11.568.64c0 0 .36 5.526-.772 11.183l-9.683.07s.524-2.636-1.626-7.736z"/><path fill="#E4897B" d="M27.24 82.467c-2.226-.549-2.794-1.593-2.794-1.593 1.022-.763 1.002-2.067.858-2.895a4.6 4.6 0 0 0-.194-.771l2.66.82c-.122.44-.196.815-.235 1.133a3.5 3.5 0 0 0-.02.85c.092.834.554.898.554.898.375.947-.829 1.558-.829 1.558"/><path fill="#000" d="M27.535 79.16a3.5 3.5 0 0 0-.02.85c-1.063-.265-1.783-1.222-2.211-2.031a4.6 4.6 0 0 0-.194-.771l2.66.82a8 8 0 0 0-.235 1.133" opacity=".2"/><path fill="#005BC3" d="M23.665 70.452s-.359-2.184 2.159-3.836 5.431-.153 5.912 1.149z"/><path fill="#000" d="M23.665 70.452s-.359-2.184 2.159-3.836 5.431-.153 5.912 1.149z" opacity=".2"/><path fill="#005BC3" d="M22.881 74.65c2.745 0 5.812-.852 8.334-1.939 1.793-.772 3.483-1.87 4.777-3.346 1.21-1.38 2.369-3.76 1.356-5.558-1.035-1.839-3.898-.064-5.04.695-4.221 2.81-8.747 4.395-14.066 5.753-.78.2-2.6.66-2.43 1.797.158 1.058 1.872 1.63 2.703 1.91 1.426.477 2.895.69 4.366.689"/><path fill="#000" d="M23.665 72.291c-.793 1.124 3.29 1.698 6.12 0 2.828-1.697 3.14-2.772 2.432-3.225-.496-.317-6.354.113-8.552 3.225" opacity=".2"/><path fill="#E4897B" d="M28.078 70.435c2.355.358 2.92 1.734 2.724 4.187-.245 3.065-1.245 5.118-4.091 4.022-3.865-1.488-2.544-8.804 1.367-8.21"/><path fill="#DE5753" d="M29.3 74.258s.233.664.537 1.08c0 0-.25.29-.662.172z"/><path fill="#263238" d="M27.888 73.847c-.025.194-.15.338-.28.321-.129-.016-.213-.187-.189-.381.025-.194.15-.338.28-.322s.214.187.19.382"/><path fill="#263238" d="m27.644 73.468.443-.112s-.256.328-.443.112M30.307 74.116c-.025.194-.15.338-.28.321-.13-.016-.214-.187-.19-.381.026-.194.15-.338.28-.322s.214.188.19.382"/><path fill="#263238" d="m30.062 73.737.444-.112s-.256.328-.444.112"/><path stroke="#263238" stroke-linecap="round" stroke-linejoin="round" stroke-miterlimit="10" stroke-width=".302" d="M28.112 72.217s-.649-.187-1.076.2M29.839 72.378s.439-.091.909.336"/><path fill="#263238" d="M28.672 76.084c-.252.195-.619.615-.619.615q-.067-.038-.13-.08c-.59-.374-.74-.741-.727-1.035a.9.9 0 0 1 .127-.407c.069-.122.146-.194.146-.194.194.385.716.774 1.004.97.12.084.199.13.199.13"/><path fill="#fff" d="m28.473 75.954-.187.177c-.554-.353-.896-.676-.963-.954.069-.122.146-.194.146-.194.194.384.717.774 1.004.97"/><path fill="#DE5753" d="M27.923 76.618c-.59-.373-.74-.74-.727-1.035.196.135.417.32.572.543.119.172.154.342.155.492"/><path fill="#263238" d="M24.9 74.012s1.396-1.768 1.457-3.287c0 0 4.956-1.196 4.466 3.575 0 0 1.095-4.136-2.938-4.846-4.027-.708-4.917 5.216-3.095 7.298 0 0-.754-1.634.11-2.74"/><path fill="#E4897B" d="M25.21 74.568c.042-.382-.252-1.083-.969-1.113-.742-.032-1.317 1.414.443 2.05.253.09.438-.141.526-.937"/><path fill="#263238" d="M25.71 68.954s1.44-.825 2.58-.639 1.439.903 1.439.903.607-.377 1.399 0 1.66 1.904 1.546 3.856c-.113 1.953-1.715 2.179-1.715 2.179s1.188-3.213-1.453-4.247c0 0-.952-.619-1.607.136-.656.754-.585 3.033-2.79 2.214s-.812-3.525.602-4.402"/><path fill="#263238" d="m24.446 73.356 2.43-.707s1.095-.107 2.156.346c0 0 .34-.021.516.08 0 0 .913-.101 1.654.231v.236l-.11.113s-.094.992-.462 1.096c-.191.054-.594.007-.792-.2-.326-.341-.43-1.087-.43-1.087s-.06-.15-.362-.015c0 0-.113 1.088-1.052 1.04-1.189-.062-1.026-1.334-1.026-1.334l-.178-.08-2.134.389z"/><path fill="#005BC3" d="M26.294 105.53s-2.957-5.489-7.443-4.584c0 0 0-4.224 2.418-8.079l9.683-.07s1.24 4.527 1.205 8.3z"/><path fill="#005BC3" d="M42.857 88.74s1.281-1.693.772-4.069c-.51-2.376-2.687-2.433-4.243-.735-1.774 1.935-.51 4.639-.735 5.644-.209.925-2.098.522-2.4.452-3.946-.925-9.205-.447-14.499 1.618-9.368 3.66-15.294 10.901-13.235 16.179.87 2.229 3.024 3.75 5.93 4.489 3.015.766 2.456-2.126 1.54-4.479-1.158-2.963 2.787-7.271 8.814-9.622 6.024-2.35 11.844-1.856 13.002 1.108.627 1.611 1.189 5.344 2.366 3.891 1.777-2.194 2.75-4.498 2.683-6.622 1.876-2.703.005-7.854.005-7.854"/><path fill="#fff" d="M42.853 96.592c.066 2.124-.907 4.43-2.683 6.624-1.178 1.453-1.74-2.28-2.368-3.893-1.156-2.963-6.976-3.458-13.003-1.107-6.026 2.351-9.97 6.659-8.812 9.622.915 2.354 1.475 5.246-1.54 4.479-2.905-.738-5.062-2.259-5.931-4.487-2.06-5.28 3.867-12.522 13.237-16.18 5.291-2.066 10.551-2.543 14.498-1.62.3.072 2.191.475 2.4-.451.226-1.004-1.038-3.707.735-5.643 1.556-1.697 3.733-1.642 4.242.735a5.36 5.36 0 0 1-.264 3.109c-.243.609-.509.96-.509.96s1.874 5.151-.002 7.852" opacity=".4"/><path fill="#005BC3" d="M42.39 83.524s1.957-.486 2.422-.767c.464-.28.426 2.071-1.364 2.927 0 0-.299-.392-1.277-.15-.978.24-.783-1.566.22-2.01"/><path fill="#000" d="M42.853 96.592c-2.845 1.091-4.468-2.134-4.468-2.134s1.268 1.921 3.145.793c2.006-1.207 1.08-6.225 1.08-6.225s-.563.332-1.319-.286c-.677-.555.904-1.278 2.074-.96-.243.608-.509.96-.509.96s1.873 5.151-.003 7.852" opacity=".2"/><path fill="#263238" d="M40.555 84.223c-.011.171-.123.303-.25.295-.127-.007-.221-.153-.21-.324.01-.171.122-.303.249-.295s.221.153.21.324M4.722 126.723c.207.028-.242 2.554-.242 2.554s-1.768 1.385-2.297 2.865-1.346.528-1.154-1.171c.19-1.699.337-2.996.473-4.203s1.08-.337 3.22-.045"/><path fill="#005BC3" d="M4.119 129.524a.1.1 0 0 1 .018-.02l.02-.009.022-.003a.1.1 0 0 1 .027.007c.03.015.594.294.698.654a.4.4 0 0 1-.046.328q-.102.165-.233.143c-.133-.023-.246-.219-.334-.438-.003.217-.034.437-.126.563a.28.28 0 0 1-.188.117c-.155.021-.229-.039-.264-.092-.037-.058-.046-.139-.035-.232.04-.356.362-.892.441-1.018m.017.237c-.202.358-.394.807-.31.939.008.011.03.046.133.032a.15.15 0 0 0 .098-.063.64.64 0 0 0 .089-.294 3 3 0 0 0-.01-.614m.639.429c-.06-.209-.332-.398-.498-.498.1.393.258.779.371.799.036.006.075-.049.095-.082a.3.3 0 0 0 .042-.114.3.3 0 0 0-.01-.105"/><path fill="#263238" d="M34.676 140.865c-.077-.194 2.342-1.048 2.342-1.048s2.077.856 3.626.587 1.122.911-.451 1.582l-3.891 1.659c-1.117.476-.825-.773-1.626-2.78"/><path fill="#005BC3" d="M37.41 140.009a.1.1 0 0 1-.025-.006.075.075 0 0 1-.031-.03v-.001a.1.1 0 0 1-.008-.027c-.002-.032-.037-.662.225-.929a.4.4 0 0 1 .308-.122q.194.007.239.132c.045.127-.07.322-.217.506.19-.103.397-.185.552-.167q.125.015.194.106c.095.124.08.218.05.275-.031.061-.097.109-.183.145-.33.141-.955.124-1.103.118m.2-.131c.41-.001.896-.055.968-.194.006-.012.025-.049-.038-.131a.14.14 0 0 0-.102-.053.64.64 0 0 0-.3.067 3 3 0 0 0-.529.311m.057-.768c-.151.156-.183.486-.187.679.292-.282.55-.608.511-.716-.012-.034-.078-.042-.117-.043a.258.258 0 0 0-.206.08M25.544 81.37s-.004 4.419-3.69 7.085c-3.684 2.666-8.663 2.67-9.681 4.817 0 0-.057-2.806.735-5.195.792-2.388 6.735-4.43 6.735-4.43l.513-2.673s3.37-1.433 5.388.397M28.473 80.918s2.233 5.43 3.745 6.373c1.51.944 2.585.787 2.585.787s-.952-4.258-3.078-6.463c0 0-2.34-1.394-3.252-.697"/><path fill="#fff" d="M25.545 81.37s-.005 4.42-3.69 7.085-8.663 2.671-9.681 4.817c0 0-.057-2.806.735-5.195.209-.632.778-1.24 1.505-1.793.866-.658 1.959-1.241 2.917-1.687 1.27-.59 2.31-.95 2.31-.95l.516-2.671s3.369-1.433 5.388.394M28.473 80.918s2.233 5.43 3.745 6.373c1.51.944 2.585.787 2.585.787s-.952-4.258-3.078-6.463c0 0-2.34-1.394-3.252-.697" opacity=".7"/><path fill="#005BC3" d="m23.959 79.837 1.585 1.534-1.585 1.848-.999-2.867z"/><path fill="#fff" d="m23.959 79.837 1.585 1.534-1.585 1.848-.999-2.867z" opacity=".5"/><path fill="#005BC3" d="m28.322 80.01 1.184.497 1.242 1.656-2.275-1.245z"/><path fill="#fff" d="m28.322 80.01 1.184.497 1.242 1.656-2.275-1.245z" opacity=".5"/><path fill="#000" d="M19.164 85.323s-2.237 2.025-4.75.96c.866-.657 1.958-1.24 2.917-1.687.915.126 1.664.37 1.833.727" opacity=".2"/><path fill="#005BC3" d="M20.708 80.78s0 2.438-1.543 4.543l-4.224.126.019-3.921z"/><path fill="#fff" d="M20.708 80.78s0 2.438-1.543 4.543l-4.224.126.019-3.921z" opacity=".5"/></g><rect width="373.511" height="143.511" x=".745" y=".745" stroke="url(#c)" stroke-opacity=".08" stroke-width=".511" rx="10.255"/><defs><clipPath id="a"><rect width="373" height="143" x="1" y="1" fill="#fff" rx="10"/></clipPath><clipPath id="b"><path fill="#fff" d="M-29 7h440v137H-29z"/></clipPath><linearGradient id="c" x1="47.195" x2="387.35" y1="20.571" y2="83.69" gradientUnits="userSpaceOnUse"><stop stop-color="#003F88"/><stop offset=".65" stop-color="#02D4FF"/><stop offset="1" stop-color="#0076FF"/></linearGradient></defs></svg>