<svg width="375" height="145" viewBox="0 0 375 145" fill="none" xmlns="http://www.w3.org/2000/svg">
<g clip-path="url(#clip0_836_2628)">
<rect x="1" y="1" width="373" height="143" rx="10" fill="#E3F0FF"/>
<g clip-path="url(#clip1_836_2628)">
<path d="M279.876 127.569H97.0504V127.68H279.876V127.569Z" fill="#CAE3FF"/>
<path d="M261.556 133.5H249.453V133.611H261.556V133.5Z" fill="#CAE3FF"/>
<path d="M218.156 134.531H214.975V134.642H218.156V134.531Z" fill="#CAE3FF"/>
<path d="M249.089 130.112H242.068V130.222H249.089V130.112Z" fill="#CAE3FF"/>
<path d="M132.042 130.703H116.245V130.814H132.042V130.703Z" fill="#CAE3FF"/>
<path d="M137.601 130.703H135.298V130.814H137.601V130.703Z" fill="#CAE3FF"/>
<path d="M179.395 132.29H145.134V132.4H179.395V132.29Z" fill="#CAE3FF"/>
<path d="M183.708 111.146H113.101C111.968 111.146 111.017 110.189 111.017 109.047V9.09482C111.017 7.95314 111.968 6.99561 113.101 6.99561H183.708C184.842 6.99561 185.793 7.95314 185.793 9.09482V109.047C185.793 110.226 184.878 111.146 183.708 111.146ZM113.101 7.10609C112.004 7.10609 111.09 7.98997 111.09 9.13165V109.084C111.09 110.189 111.968 111.109 113.101 111.109H183.708C184.805 111.109 185.719 110.226 185.719 109.084V9.09482C185.719 7.98997 184.842 7.06926 183.708 7.06926H113.101V7.10609Z" fill="#CAE3FF"/>
<path d="M262.801 111.146H192.194C191.061 111.146 190.11 110.189 190.11 109.047V9.09482C190.11 7.95314 191.061 6.99561 192.194 6.99561H262.801C263.935 6.99561 264.886 7.95314 264.886 9.09482V109.047C264.886 110.226 263.971 111.146 262.801 111.146ZM192.194 7.10609C191.097 7.10609 190.183 7.98997 190.183 9.13165V109.084C190.183 110.189 191.061 111.109 192.194 111.109H262.801C263.898 111.109 264.812 110.226 264.812 109.084V9.09482C264.812 7.98997 263.935 7.06926 262.801 7.06926H192.194V7.10609Z" fill="#CAE3FF"/>
<path d="M352.708 125.776C350.421 122.51 348.326 119.244 345.944 116.099C345.754 115.858 345.658 115.616 345.563 115.616C344.801 115.011 343.944 114.406 343.182 113.922C342.991 113.801 342.515 113.559 342.038 113.317C341.086 112.834 340.133 112.35 339.181 111.866C333.274 108.842 327.94 105.334 323.462 99.4074C320.986 96.1415 319.08 92.2708 316.508 89.1259C316.413 89.2469 315.937 88.884 315.746 88.6421C314.984 88.5212 313.936 88.4002 313.841 88.2792C312.793 88.2792 311.745 88.2792 310.793 88.4002C309.364 88.5212 307.839 88.6421 306.41 88.7631C300.695 99.2864 293.55 113.68 290.406 115.616C285.548 118.519 240.299 133.759 236.965 132.792C233.63 131.945 216.198 133.638 211.815 133.517C207.433 133.276 199.527 130.856 188 124.083C176.473 117.43 170.186 117.309 156.373 111.745C142.56 106.181 133.224 104.004 125.127 112.592C117.03 121.18 94.7387 103.036 87.8798 100.375C80.9257 97.8349 67.6843 82.8362 58.6344 89.8517C49.5845 96.8672 42.0589 100.133 30.7227 112.592C19.3865 125.05 -3 149 -3 149H379L374.618 139.202C366.14 139.081 358.423 134.001 352.708 125.776Z" fill="white"/>
<path d="M308.56 56.6427C316.941 56.6427 323.735 49.8 323.735 41.359C323.735 32.918 316.941 26.0752 308.56 26.0752C300.18 26.0752 293.386 32.918 293.386 41.359C293.386 49.8 300.18 56.6427 308.56 56.6427Z" fill="#FFE3BA"/>
<path d="M246.783 38.3412C246.783 36.9786 245.686 35.8369 244.297 35.8369C244.041 35.8369 243.821 35.8737 243.602 35.9474C243.638 35.6896 243.675 35.4318 243.675 35.174C243.675 32.2645 241.335 29.9075 238.446 29.9075C238.117 29.9075 237.788 29.9444 237.495 29.9812C236.691 28.6554 235.228 27.7715 233.583 27.7715C231.06 27.7715 229.049 29.797 229.012 32.3382C228.976 32.3382 228.976 32.3382 228.939 32.3382C226.599 32.3382 224.734 34.2533 224.734 36.5735C224.734 38.9305 226.636 40.8087 228.939 40.8087H244.406C245.723 40.8087 246.783 39.7039 246.783 38.3412Z" fill="#CAE3FF"/>
<path d="M305.92 55.0727C305.92 53.71 304.823 52.5683 303.434 52.5683C303.178 52.5683 302.959 52.6052 302.739 52.6788C302.776 52.421 302.812 52.1632 302.812 51.9054C302.812 48.996 300.472 46.639 297.583 46.639C297.254 46.639 296.925 46.6758 296.633 46.7126C295.828 45.3868 294.366 44.5029 292.72 44.5029C290.197 44.5029 288.186 46.5285 288.15 49.0696C288.113 49.0696 288.113 49.0696 288.077 49.0696C285.736 49.0696 283.872 50.9847 283.872 53.3049C283.872 55.6619 285.773 57.5402 288.077 57.5402H303.507C304.86 57.5033 305.92 56.4353 305.92 55.0727Z" fill="#CAE3FF"/>
<path d="M47.3643 23.9501C47.3643 22.5875 46.2673 21.4458 44.8779 21.4458C44.6219 21.4458 44.4025 21.4826 44.1831 21.5563C44.2197 21.2985 44.2563 21.0407 44.2563 20.7829C44.2563 17.8734 41.9161 15.5164 39.0275 15.5164C38.6984 15.5164 38.3693 15.5532 38.0768 15.5901C37.2723 14.2643 35.8097 13.3804 34.1643 13.3804C31.6413 13.3804 29.6302 15.4059 29.5937 17.9471C29.5571 17.9471 29.5571 17.9471 29.5205 17.9471C27.1804 17.9471 25.3156 19.8622 25.3156 22.1824C25.3156 24.5394 27.2169 26.4176 29.5205 26.4176H44.951C46.3039 26.3808 47.3643 25.3128 47.3643 23.9501Z" fill="#CAE3FF"/>
<path d="M75.2973 60.9687C75.2973 59.606 74.2003 58.4643 72.8108 58.4643C72.5549 58.4643 72.3355 58.5012 72.1161 58.5748C72.1527 58.317 72.1892 58.0592 72.1892 57.8014C72.1892 54.892 69.8491 52.535 66.9604 52.535C66.6314 52.535 66.3023 52.5718 66.0098 52.6086C65.2053 51.2828 63.7427 50.3989 62.0973 50.3989C59.5743 50.3989 57.5632 52.4245 57.5266 54.9656C57.4901 54.9656 57.4901 54.9656 57.4535 54.9656C55.1134 54.9656 53.2485 56.8807 53.2485 59.2009C53.2485 61.5579 55.1499 63.4362 57.4535 63.4362H72.884C74.2369 63.3993 75.2973 62.3313 75.2973 60.9687Z" fill="#CAE3FF"/>
<path d="M139.464 56.79C139.464 55.4273 138.367 54.2856 136.977 54.2856C136.722 54.2856 136.502 54.3225 136.283 54.3961C136.319 54.1383 136.356 53.8805 136.356 53.6227C136.356 50.7133 134.016 48.3563 131.127 48.3563C130.798 48.3563 130.469 48.3931 130.176 48.4299C129.372 47.1041 127.909 46.2202 126.264 46.2202C123.741 46.2202 121.73 48.2458 121.693 50.7869C121.657 50.7869 121.657 50.7869 121.62 50.7869C119.28 50.7869 117.415 52.702 117.415 55.0222C117.415 57.3424 119.207 59.2943 121.547 59.2943H137.051C138.367 59.2206 139.464 58.1526 139.464 56.79Z" fill="#CAE3FF"/>
<path d="M245.357 68.6835C245.357 67.8365 244.698 67.1736 243.857 67.1736C243.711 67.1736 243.565 67.2104 243.419 67.2472C243.455 67.0999 243.455 66.9526 243.455 66.7684C243.455 65.0007 242.029 63.5644 240.274 63.5644C240.091 63.5644 239.872 63.6012 239.689 63.6012C239.214 62.791 238.336 62.2754 237.312 62.2754C235.813 62.2754 234.57 63.4907 234.533 65.0375H234.497C233.071 65.0375 231.937 66.1792 231.937 67.6155C231.937 69.0518 233.071 70.1935 234.497 70.1935H243.857C244.735 70.1567 245.357 69.4937 245.357 68.6835Z" fill="#CAE3FF"/>
<path d="M383.311 29.4804C383.311 28.6333 382.653 27.9704 381.812 27.9704C381.666 27.9704 381.52 28.0073 381.374 28.0441C381.41 27.8968 381.41 27.7495 381.41 27.5653C381.41 25.7976 379.984 24.3613 378.229 24.3613C378.046 24.3613 377.827 24.3981 377.644 24.3981C377.169 23.5879 376.291 23.0723 375.267 23.0723C373.768 23.0723 372.525 24.2876 372.488 25.8344H372.452C371.026 25.8344 369.892 26.9761 369.892 28.4124C369.892 29.8487 371.026 30.9904 372.452 30.9904H381.812C382.69 30.9535 383.311 30.2906 383.311 29.4804Z" fill="#CAE3FF"/>
<path d="M22.4812 46.3183C22.4812 45.4712 21.823 44.8083 20.982 44.8083C20.8357 44.8083 20.6895 44.8452 20.5432 44.882C20.5798 44.7347 20.5798 44.5874 20.5798 44.4032C20.5798 42.6355 19.1537 41.1991 17.3986 41.1991C17.2158 41.1991 16.9964 41.236 16.8136 41.236C16.3382 40.4257 15.4607 39.9102 14.4368 39.9102C12.9377 39.9102 11.6945 41.1255 11.6579 42.6723H11.6213C10.1953 42.6723 9.06177 43.814 9.06177 45.2503C9.06177 46.6866 10.1953 47.8283 11.6213 47.8283H20.982C21.8595 47.7914 22.4812 47.1285 22.4812 46.3183Z" fill="#CAE3FF"/>
<path d="M110.785 29.4804C110.785 28.6333 110.126 27.9704 109.285 27.9704C109.139 27.9704 108.993 28.0073 108.847 28.0441C108.883 27.8968 108.883 27.7495 108.883 27.5653C108.883 25.7976 107.457 24.3613 105.702 24.3613C105.519 24.3613 105.3 24.3981 105.117 24.3981C104.642 23.5879 103.764 23.0723 102.74 23.0723C101.241 23.0723 99.9979 24.2876 99.9614 25.8344H99.9248C98.4988 25.8344 97.3652 26.9761 97.3652 28.4124C97.3652 29.8487 98.4988 30.9904 99.9248 30.9904H109.285C110.163 30.9535 110.785 30.2906 110.785 29.4804Z" fill="#CAE3FF"/>
<path d="M117.365 68.6028L129.684 126.989L131.966 125.897L118.962 68.2705L117.365 68.6028Z" fill="#CAE3FF"/>
<path d="M332.48 121.572C332.48 121.572 326.373 78.9984 340.122 34.9885L337.964 33.2944C337.964 33.2944 321.803 66.5873 324.179 122.751L332.48 121.572Z" fill="#E6E6E6"/>
<path d="M343.887 23.4265C348.933 20.0751 356.428 25.4153 357.452 33.7016C357.452 33.7016 356.575 33.1492 355.149 32.5968C354.746 30.4976 354.381 28.6561 354.381 28.6561L354.637 32.4126C354.198 32.2653 353.723 32.0812 353.174 31.9339L352.808 29.9083L352.626 31.7866C351.967 31.6392 351.236 31.4919 350.468 31.3814L349.518 25.4889L349.042 31.3078C348.311 31.271 347.58 31.3078 346.812 31.4183L346.227 27.404V31.4919C345.605 31.6024 344.984 31.7497 344.325 31.9339L343.631 25.9677C343.631 25.9677 343.667 29.3191 343.631 32.1548C342.022 32.7441 340.376 33.6648 338.767 35.0275L338.731 34.2909C338.694 34.3277 339.279 26.4833 343.887 23.4265Z" fill="#33B067"/>
<path d="M336.903 20.774C332.881 16.2073 324.289 19.3745 321.144 27.1084C321.144 27.1084 322.131 26.8138 323.667 26.6297C324.581 24.7146 325.422 23.0205 325.422 23.0205L324.179 26.556C324.654 26.5192 325.166 26.4824 325.715 26.4824L326.592 24.6409L326.263 26.4824C326.958 26.5192 327.689 26.556 328.457 26.6665L330.907 21.2527L329.883 26.9611C330.578 27.1453 331.309 27.3662 332.004 27.6609L333.613 23.9412L332.552 27.9187C333.137 28.1765 333.686 28.4711 334.271 28.8394L336.501 23.2783C336.501 23.2783 335.624 26.5192 334.892 29.2813C336.318 30.2757 337.671 31.6015 338.841 33.3693L339.097 32.6695C339.097 32.6327 340.56 24.9356 336.903 20.774Z" fill="#33B067"/>
<path d="M333.029 31.5633C337.051 27.6227 340.086 31.0477 340.086 31.0477C338.587 31.4528 337.234 32.4104 336.064 33.6625L335.515 32.9628L335.588 34.1781C335.296 34.5096 335.04 34.841 334.784 35.1725L333.87 33.0733L334.272 35.9459C333.906 36.4983 333.541 37.0507 333.248 37.6032L332.846 35.504L332.883 38.2661C332.553 38.8922 332.261 39.5182 331.968 40.0707L331.53 36.2405L331.457 41.2124C330.798 42.7591 330.469 43.8272 330.469 43.8272C330.469 43.8272 329.007 35.504 333.029 31.5633Z" fill="#33B067"/>
<path d="M343.887 40.8831L343.046 41.3619C342.936 40.7358 342.79 40.0361 342.607 39.3732L343.156 38.342L342.461 38.7839C342.388 38.563 342.351 38.342 342.278 38.121L343.01 36.0954L341.913 36.9057C341.328 35.0643 340.596 33.4438 339.646 32.6704C339.646 32.6704 348.86 35.6535 343.668 45.6708C343.668 45.6708 343.485 44.0872 343.119 41.988L343.887 40.8831Z" fill="#33B067"/>
<path d="M334.819 32.703L333.356 29.9041L333.978 32.8135C333.832 32.8503 333.685 32.8503 333.539 32.8872L331.638 30.4933L332.113 33.2554C331.491 33.4396 330.87 33.6606 330.175 33.9552C329.517 34.2498 328.822 34.5813 328.164 34.9864L327.25 32.5557L327.689 35.281C327.067 35.6493 326.445 36.0544 325.86 36.4963L325.385 34.3235L325.422 36.791C324.69 37.3066 323.996 37.859 323.374 38.3746L323.447 34.4708L322.899 38.8165C322.24 39.369 321.692 39.8846 321.18 40.3633L321.107 37.638L320.412 41.0999C319.717 41.7996 319.279 42.2784 319.279 42.2784C319.644 32.7767 323.301 29.0202 329.334 27.989C335.367 26.9578 339.755 33.2923 339.755 33.2923C339.755 33.2923 337.89 32.4084 334.819 32.703Z" fill="#33B067"/>
<path d="M352.443 44.3069L351.895 47.1427C351.639 46.443 351.273 45.5223 350.798 44.5279L351.31 40.3663L350.395 43.644C349.737 42.2814 348.896 40.7714 347.946 39.3719L348.823 36.4993L347.434 38.6354C347.141 38.2671 346.849 37.8988 346.556 37.5673L347.031 35.7627L346.264 37.2727C346.044 37.0517 345.861 36.8308 345.642 36.6098L346.227 34.1791L345.276 36.2783C344.655 35.7259 344.033 35.2471 343.338 34.8789L344.289 31.9326C344.289 31.9326 343.594 33.1479 342.79 34.6211C341.839 34.1791 340.815 33.9582 339.755 33.995C339.755 33.995 341.583 31.0487 344.947 30.0543C348.311 29.0231 355.551 35.1735 352.407 48.6895C352.407 48.6895 352.297 48.3949 352.114 47.8424L352.443 44.3069Z" fill="#33B067"/>
<path d="M346.921 18.0478L347.506 19.7787C347.323 19.7787 347.104 19.8155 346.884 19.8524L346.19 17.6058L346.665 19.8892C346.299 19.9997 345.86 20.1838 345.422 20.4784L344.471 17.4585L345.019 20.7362C344.873 20.8467 344.727 20.9572 344.544 21.1045L343.484 18.2687L344.252 21.3623C343.593 21.9884 342.899 22.8723 342.241 24.0508L341.948 19.8892L341.473 25.5608C340.814 26.9971 340.156 28.8017 339.571 31.0482C339.571 31.0482 338.986 15.9486 342.606 14.2545C346.226 12.5604 348.347 19.8155 348.347 19.8155C348.347 19.8155 348.164 19.7419 347.835 19.7419L346.921 18.0478Z" fill="#33B067"/>
<path d="M341.764 34.8385L341.435 37.7112L340.338 34.949L338.875 37.1219L338.29 35.0963L336.608 36.5327C336.608 36.5327 336.828 32.8866 337.888 31.2294C338.985 29.5353 342.203 30.7138 341.764 34.8385Z" fill="#33B067"/>
<path d="M296.717 80.8345V60.8735C296.717 60.8735 292.695 65.1825 290.025 64.5932C287.356 64.0039 283.882 66.0295 283.882 66.0295C283.882 66.0295 287.356 65.5139 288.672 66.9502C289.952 68.3865 295.73 68.5338 295.73 68.5338V81.5711L296.717 80.8345Z" fill="#CAE3FF"/>
<path d="M314.452 74.7227H313.538V75.9748H310.54V74.7227H307.578V75.9748H304.543V74.7227H301.581V75.9748H298.583V74.7227H295.621V75.9748H292.586V74.7227H289.661V75.9748H286.626V74.7227H283.664V75.9748H280.666V74.7227H279.642L276.717 98.3665L317.487 98.2192L314.452 74.7227Z" fill="#A9D1FF"/>
<path d="M320.923 91.8828H319.68V93.6137H315.548V91.8828H311.49V93.6137H307.321V91.8828H303.262V93.6137H299.131V91.8828H295.072V93.6137H290.903V91.8828H286.845V93.6137H282.713V91.8828H278.654V93.6137H274.522V91.8828H273.096L269.074 124.365L325.128 124.144L320.923 91.8828Z" fill="#CAE3FF"/>
<path d="M95.1458 78.4153C95.1458 78.4153 100.688 68.5455 115.659 60.0387C115.659 60.0387 127.834 59.0047 141.619 64.9736C141.619 64.9736 144.414 69.5795 141.24 71.3655C138.066 73.1984 135.413 69.5325 135.413 69.5325C135.413 69.5325 134.845 75.0784 130.676 75.2664C126.555 75.4074 125.323 71.3655 125.323 71.3655C125.323 71.3655 124.896 76.4414 119.97 77.7574C115.659 78.8853 113.006 75.2664 113.006 75.2664C113.006 75.2664 112.153 79.4493 108.316 80.6713C105.236 81.6583 103.105 79.0263 103.105 79.0263C103.105 79.0263 102.204 83.5852 98.9357 83.5852C96.188 83.5382 95.1458 78.4153 95.1458 78.4153Z" fill="#A9D1FF"/>
<path d="M188.459 144.218C227.616 144.218 259.359 142.355 259.359 140.056C259.359 137.758 227.616 135.895 188.459 135.895C149.302 135.895 117.56 137.758 117.56 140.056C117.56 142.355 149.302 144.218 188.459 144.218Z" fill="white"/>
<path d="M237.459 121.897C237.459 121.897 239.068 119.54 240.494 118.914C241.956 118.251 242.176 115.783 242.98 115.636C243.785 115.489 244.625 117.809 246.015 118.472C247.404 119.135 249.452 121.897 249.452 121.897H237.459Z" fill="#0077FF"/>
<path opacity="0.8" d="M237.459 121.897C237.459 121.897 239.068 119.54 240.494 118.914C241.956 118.251 242.176 115.783 242.98 115.636C243.785 115.489 244.625 117.809 246.015 118.472C247.404 119.135 249.452 121.897 249.452 121.897H237.459Z" fill="white"/>
<path d="M249.009 138.766H237.454L235.991 121.862H250.471L249.009 138.766Z" fill="#0077FF"/>
<path d="M251.206 120.977H235.3V122.744H251.206V120.977Z" fill="#0077FF"/>
<path opacity="0.2" d="M251.206 120.977H235.3V122.744H251.206V120.977Z" fill="white"/>
<path d="M242.542 122.23C243.602 123.887 248.1 130.774 250.915 131.253L251.244 130.406C251.244 130.406 248.758 130.701 243.2 121.788C243.09 121.604 242.871 121.53 242.688 121.641C242.505 121.788 242.432 122.046 242.542 122.23Z" fill="#263238"/>
<path d="M226.087 116.931C226.599 116.784 227.11 117.079 227.257 117.557L229.231 124.518L231.791 123.487C231.791 123.487 233.327 129.306 230.401 130.189C227.549 131.073 225.355 125.733 225.355 125.733L227.951 124.997L225.465 118.11C225.319 117.631 225.575 117.078 226.087 116.931Z" fill="#0077FF"/>
<path opacity="0.4" d="M230.441 130.193C227.589 131.077 225.395 125.737 225.395 125.737L227.991 125C227.991 125 228.43 125.774 228.942 125.589C229.454 125.405 229.234 124.521 229.234 124.521L231.794 123.49C231.83 123.49 233.366 129.272 230.441 130.193Z" fill="white"/>
<path d="M252.342 140.201C250.916 139.502 249.453 138.802 248.978 138.765C247.954 138.691 247.369 138.25 246.674 137.366C245.943 136.482 245.651 135.487 244.371 134.088C243.055 132.688 244.517 132.136 241.775 131.768C239.032 131.399 240.093 131.62 238.411 130.405C236.729 129.19 237.058 129.19 235.083 128.306C233.109 127.422 234.279 127.091 231.939 126.906C230.33 126.759 227.807 127.606 226.491 128.564C225.906 128.969 225.613 129.669 225.028 130.037C224.37 130.442 223.383 129.669 223.492 131.068C223.529 131.436 223.638 131.805 223.529 132.136C223.346 132.909 220.128 132.909 219.287 133.167C219.104 133.241 218.885 133.278 218.812 133.462C218.629 133.793 218.922 134.383 218.556 134.53C218.446 134.567 218.3 134.53 218.19 134.53C217.751 134.604 217.861 135.414 217.459 135.598C217.057 135.782 216.581 135.414 216.143 135.598C215.777 135.745 215.667 136.187 215.375 136.408C214.863 136.74 214.278 136.961 213.766 137.329C212.852 137.918 212.084 138.655 211.097 139.207L208.501 139.907L207.733 140.165H252.342V140.201Z" fill="#0077FF"/>
<path opacity="0.8" d="M252.342 140.201C250.916 139.502 249.453 138.802 248.978 138.765C247.954 138.691 247.369 138.25 246.674 137.366C245.943 136.482 245.651 135.487 244.371 134.088C243.055 132.688 244.517 132.136 241.775 131.768C239.032 131.399 240.093 131.62 238.411 130.405C236.729 129.19 237.058 129.19 235.083 128.306C233.109 127.422 234.279 127.091 231.939 126.906C230.33 126.759 227.807 127.606 226.491 128.564C225.906 128.969 225.613 129.669 225.028 130.037C224.37 130.442 223.383 129.669 223.492 131.068C223.529 131.436 223.638 131.805 223.529 132.136C223.346 132.909 220.128 132.909 219.287 133.167C219.104 133.241 218.885 133.278 218.812 133.462C218.629 133.793 218.922 134.383 218.556 134.53C218.446 134.567 218.3 134.53 218.19 134.53C217.751 134.604 217.861 135.414 217.459 135.598C217.057 135.782 216.581 135.414 216.143 135.598C215.777 135.745 215.667 136.187 215.375 136.408C214.863 136.74 214.278 136.961 213.766 137.329C212.852 137.918 212.084 138.655 211.097 139.207L208.501 139.907L207.733 140.165H252.342V140.201Z" fill="white"/>
<path d="M221.663 133.502C221.663 133.539 221.663 133.539 221.663 133.575C221.663 134.864 221.26 136.08 220.639 137.074C220.602 137.148 220.529 137.258 220.456 137.332C220.09 137.884 219.615 138.363 219.067 138.768C218.957 138.879 218.811 138.952 218.701 139.026C218.664 139.063 218.628 139.063 218.591 139.1C218.555 139.137 218.518 139.137 218.482 139.173C218.408 139.21 218.335 139.247 218.299 139.284C218.189 139.358 218.079 139.394 217.97 139.468C217.092 139.91 216.068 140.168 215.008 140.168C213.106 140.168 211.388 139.358 210.181 138.105C209.742 137.627 209.34 137.111 209.048 136.522C208.572 135.601 208.316 134.57 208.316 133.465V133.428C208.316 133.244 208.316 133.06 208.353 132.876C208.426 131.992 208.682 131.145 209.048 130.408C209.157 130.224 209.267 130.04 209.377 129.856C209.742 129.267 210.254 128.714 210.766 128.272C210.949 128.125 211.132 127.978 211.315 127.867C211.388 127.83 211.461 127.757 211.534 127.72C212.046 127.388 212.631 127.167 213.216 126.983C213.253 126.983 213.326 126.946 213.362 126.946C213.874 126.799 214.423 126.762 214.971 126.762C215.154 126.762 215.3 126.762 215.483 126.799C215.52 126.799 215.556 126.799 215.629 126.799C216.397 126.873 217.092 127.057 217.75 127.388C217.787 127.388 217.823 127.425 217.823 127.425C218.408 127.683 218.92 128.051 219.396 128.456C220.566 129.487 221.37 130.961 221.59 132.581C221.626 132.913 221.663 133.207 221.663 133.502Z" fill="#0077FF"/>
<path opacity="0.6" d="M221.662 133.502C221.662 136.117 220.163 138.4 217.969 139.505C217.713 139.284 217.603 139.063 217.603 139.063C218.846 135.454 217.603 133.539 217.603 133.539V133.502L217.676 132.913V132.803C217.859 131.735 218.334 129.709 219.395 128.494C220.784 129.709 221.662 131.514 221.662 133.502Z" fill="white"/>
<path opacity="0.6" d="M209.889 132.322C209.889 132.322 208.719 133.5 209.048 136.52C208.572 135.599 208.316 134.568 208.316 133.463C208.316 131.364 209.267 129.486 210.766 128.271C210.145 129.56 209.816 131.033 209.889 132.322Z" fill="white"/>
<path opacity="0.2" d="M219.396 128.492C217.934 130.186 217.568 133.501 217.568 133.501C213.546 134.495 209.853 132.359 209.853 132.359C209.78 131.07 210.109 129.56 210.767 128.308C211.9 127.387 213.363 126.798 214.972 126.798C216.69 126.798 218.226 127.424 219.396 128.492Z" fill="white"/>
<path opacity="0.2" d="M217.97 139.502C217.092 139.944 216.069 140.202 215.008 140.202C213.107 140.202 211.388 139.392 210.182 138.14C211.425 138.876 213.984 139.944 217.604 139.06C217.604 139.024 217.677 139.281 217.97 139.502Z" fill="white"/>
<g opacity="0.2">
<path d="M217.86 127.46C217.677 127.718 217.531 127.976 217.385 128.234C217.129 128.749 216.873 129.265 216.69 129.817C216.471 130.37 216.324 130.922 216.178 131.474C216.032 132.027 215.922 132.616 215.812 133.169C215.849 132.579 215.922 132.027 216.068 131.438C216.178 130.848 216.361 130.296 216.544 129.744C216.763 129.191 216.982 128.676 217.275 128.16C217.421 127.902 217.604 127.644 217.787 127.423C217.787 127.423 217.823 127.423 217.86 127.46Z" fill="black"/>
<path d="M215.63 126.833C215.52 127.017 215.447 127.165 215.374 127.349C215.118 127.901 214.899 128.527 214.716 129.117C214.533 129.706 214.387 130.332 214.241 130.958C214.094 131.584 213.985 132.21 213.875 132.836C213.912 132.21 213.985 131.547 214.094 130.921C214.204 130.295 214.35 129.669 214.533 129.043C214.716 128.417 214.935 127.828 215.228 127.238C215.301 127.091 215.374 126.944 215.484 126.796C215.52 126.796 215.594 126.833 215.63 126.833Z" fill="black"/>
<path d="M213.364 126.98C213.327 127.091 213.291 127.165 213.254 127.275C213.035 127.828 212.889 128.38 212.742 128.969C212.596 129.522 212.486 130.111 212.377 130.7C212.267 131.289 212.194 131.842 212.084 132.431C212.084 131.842 212.157 131.253 212.23 130.663C212.303 130.074 212.413 129.485 212.559 128.932C212.706 128.343 212.852 127.791 213.108 127.238C213.144 127.165 213.181 127.091 213.218 127.054C213.291 127.017 213.327 127.017 213.364 126.98Z" fill="black"/>
<path d="M211.535 127.752C211.426 128.158 211.28 128.563 211.206 129.005C211.097 129.483 211.024 129.962 210.95 130.441C210.877 130.92 210.841 131.398 210.768 131.877C210.731 131.398 210.768 130.92 210.804 130.441C210.841 129.962 210.914 129.483 211.024 129.005C211.097 128.636 211.206 128.268 211.316 127.937C211.389 127.863 211.462 127.789 211.535 127.752Z" fill="black"/>
<path d="M219.469 135.745C219.469 136.445 219.396 137.144 219.213 137.807C219.14 138.139 218.994 138.47 218.848 138.765C218.811 138.875 218.738 138.986 218.701 139.096C218.665 139.133 218.628 139.133 218.592 139.17C218.774 138.728 218.957 138.249 219.067 137.77C219.25 137.108 219.323 136.445 219.286 135.745C219.286 135.082 219.177 134.382 218.994 133.756C218.811 133.093 218.518 132.467 218.189 131.878C218.592 132.43 218.921 133.056 219.14 133.719C219.323 134.345 219.433 135.045 219.469 135.745Z" fill="black"/>
<path d="M220.785 135.561V136.113L220.712 136.666C220.712 136.813 220.675 136.96 220.639 137.108C220.602 137.181 220.529 137.292 220.456 137.365C220.493 137.144 220.566 136.887 220.566 136.629L220.602 136.076V135.524C220.602 135.34 220.602 135.156 220.602 134.971C220.602 134.787 220.602 134.603 220.566 134.419C220.493 133.683 220.273 132.983 220.017 132.32C219.761 131.657 219.396 130.994 218.957 130.405C219.469 130.92 219.871 131.583 220.164 132.246C220.456 132.946 220.675 133.646 220.749 134.382C220.785 134.566 220.785 134.751 220.785 134.935C220.785 135.156 220.785 135.377 220.785 135.561Z" fill="black"/>
<path d="M221.661 133.502C221.661 133.539 221.661 133.539 221.661 133.576C221.661 133.539 221.661 133.502 221.624 133.465C221.478 132.692 221.222 131.955 220.893 131.256C220.564 130.556 220.161 129.856 219.613 129.304C220.198 129.856 220.637 130.519 221.002 131.219C221.222 131.698 221.441 132.176 221.587 132.655C221.624 132.913 221.661 133.208 221.661 133.502Z" fill="black"/>
<path d="M209.56 131.287C209.267 131.618 209.011 131.986 208.792 132.391C208.609 132.76 208.426 133.128 208.316 133.496C208.316 133.312 208.316 133.128 208.353 132.944C208.463 132.723 208.572 132.539 208.682 132.318C208.938 131.913 209.194 131.544 209.56 131.287Z" fill="black"/>
<path d="M209.89 129.488C209.598 129.819 209.342 130.114 209.086 130.445C209.196 130.261 209.305 130.077 209.415 129.893C209.525 129.746 209.708 129.598 209.89 129.488Z" fill="black"/>
<path d="M209.889 133.758C210.51 133.979 211.095 134.2 211.717 134.384C212.339 134.568 212.96 134.715 213.618 134.826C214.898 135.047 216.214 135.12 217.458 134.789C216.836 135.047 216.214 135.157 215.556 135.157C214.898 135.194 214.24 135.12 213.582 135.01C212.924 134.899 212.302 134.715 211.68 134.494C211.059 134.31 210.437 134.052 209.889 133.758Z" fill="black"/>
<path d="M209.889 135.376C210.51 135.634 211.132 135.818 211.753 136.003C212.375 136.15 213.033 136.297 213.691 136.371C214.35 136.481 215.008 136.481 215.666 136.481L216.141 136.444L216.617 136.371C216.946 136.334 217.275 136.26 217.604 136.224C216.982 136.408 216.324 136.592 215.666 136.629C215.008 136.665 214.35 136.665 213.691 136.592C213.033 136.518 212.375 136.371 211.753 136.187C211.059 135.929 210.437 135.671 209.889 135.376Z" fill="black"/>
<path d="M210.035 136.74C210.62 136.998 211.205 137.219 211.827 137.403C212.448 137.587 213.07 137.697 213.692 137.771C214.021 137.808 214.313 137.845 214.642 137.845C214.971 137.845 215.264 137.845 215.593 137.845C216.215 137.808 216.836 137.697 217.458 137.587C216.836 137.771 216.215 137.955 215.593 137.992C214.971 138.066 214.313 138.029 213.655 137.955C213.033 137.881 212.375 137.734 211.79 137.513C211.169 137.329 210.584 137.071 210.035 136.74Z" fill="black"/>
<path d="M210.291 137.77C210.839 138.028 211.388 138.249 211.973 138.396C212.558 138.58 213.143 138.691 213.728 138.764C214.313 138.838 214.898 138.875 215.52 138.838L215.959 138.801L216.397 138.728C216.69 138.691 216.982 138.58 217.275 138.543C216.726 138.764 216.141 138.949 215.52 138.985C214.935 139.059 214.313 139.059 213.692 138.985C213.107 138.912 212.485 138.764 211.936 138.58C211.388 138.359 210.803 138.101 210.291 137.77Z" fill="black"/>
</g>
<path d="M138.659 122.97C138.659 122.97 139.975 121.018 142.279 120.871C144.582 120.724 146.557 123.707 146.557 123.707H145.826C145.826 123.707 143.961 121.681 142.608 121.681C141.255 121.681 139.975 123.338 139.975 123.338L138.659 122.97Z" fill="#263238"/>
<path d="M119.022 138.51C119.827 137.147 128.785 138.031 130.833 137.221L131.93 139.099C131.93 139.099 130.394 139.946 127.798 139.651C125.202 139.357 121.362 139.246 120.339 140.167L119.022 138.51Z" fill="#263238"/>
<path opacity="0.3" d="M119.022 138.51C119.827 137.147 128.785 138.031 130.833 137.221L131.93 139.099C131.93 139.099 130.394 139.946 127.798 139.651C125.202 139.357 121.362 139.246 120.339 140.167L119.022 138.51Z" fill="black"/>
<path d="M156.796 134.424C156.723 134.755 156.65 135.05 156.54 135.381C155.809 137.885 154.675 139.911 153.871 140.242H130.615C129.957 140.242 129.335 139.948 128.97 139.432C128.97 139.432 128.97 139.432 128.933 139.395C128.86 139.285 128.787 139.174 128.714 139.027C127.105 135.639 125.496 128.899 127.763 125.806C127.983 125.474 128.275 125.18 128.568 124.922C128.604 124.922 128.604 124.885 128.641 124.885C129.116 124.48 129.628 124.185 130.213 123.891C131.822 123.154 133.796 122.823 135.698 122.675C136.246 122.639 136.795 122.602 137.343 122.602C138.769 122.565 140.086 122.602 141.146 122.639C144.876 122.749 147.837 123.854 149.812 123.67C150.616 123.596 151.348 123.67 152.006 123.854C152.225 123.927 152.408 123.964 152.627 124.075C153.468 124.406 154.273 124.922 155.15 125.622C157.527 127.426 157.564 131.183 156.796 134.424Z" fill="#263238"/>
<path opacity="0.1" d="M156.796 134.424C156.723 134.755 156.65 135.05 156.54 135.381C155.809 137.885 154.675 139.911 153.871 140.242H130.615C129.957 140.242 129.335 139.948 128.97 139.432C128.97 139.432 128.97 139.432 128.933 139.395C128.86 139.285 128.787 139.174 128.714 139.027C127.105 135.639 125.496 128.899 127.763 125.806C127.983 125.474 128.275 125.18 128.568 124.922C128.604 124.922 128.604 124.885 128.641 124.885C129.116 124.48 129.628 124.185 130.213 123.891C131.822 123.154 133.796 122.823 135.698 122.675C136.246 122.639 136.795 122.602 137.343 122.602C138.769 122.565 140.086 122.602 141.146 122.639C144.876 122.749 147.837 123.854 149.812 123.67C150.616 123.596 151.348 123.67 152.006 123.854C152.225 123.927 152.408 123.964 152.627 124.075C153.468 124.406 154.273 124.922 155.15 125.622C157.527 127.426 157.564 131.183 156.796 134.424Z" fill="white"/>
<path opacity="0.2" d="M153.246 134.163C151.564 134.163 148.237 134.973 143.337 133.868C140.156 133.168 137.706 133.5 136.353 133.831C136.316 133.095 136.243 132.285 136.17 131.401C135.731 125.398 132.331 122.893 130.283 123.888C129.662 124.182 129.15 124.514 128.711 124.882C128.674 124.882 128.674 124.919 128.638 124.919C128.345 125.177 128.053 125.471 127.833 125.803C125.566 128.896 127.175 135.636 128.784 139.024C128.857 139.172 128.93 139.282 129.003 139.392C129.003 139.392 129.003 139.392 129.04 139.429C129.442 139.871 129.991 140.166 130.612 140.166H134.708C136.39 140.166 136.609 138.582 136.426 135.231C136.719 135.047 137.084 134.863 137.45 134.605C138.474 133.942 142.496 134.273 144.251 134.936C146.006 135.599 150.54 135.894 152.734 135.526C154.27 135.268 155.769 135.378 156.537 135.452C156.647 135.157 156.72 134.826 156.793 134.494C156.025 134.347 154.453 134.163 153.246 134.163Z" fill="black"/>
<path opacity="0.2" d="M138.11 125.728C139.134 129.447 139.829 130.736 140.085 131.105C140.34 131.473 147.727 132.357 149.116 132.357C150.506 132.357 152.846 132.136 153.87 131.878C154.82 131.62 155.113 126.869 152.736 123.997C152.517 123.923 152.334 123.85 152.114 123.776C153.394 126.685 153.431 130.258 153.285 130.773C153.065 131.473 150.908 131.363 149.884 131.363C148.86 131.363 142.571 130.957 141.913 130.7C141.255 130.442 140.889 130.074 140.377 129.411C139.865 128.748 139.792 126.501 138.878 124.549C138.549 123.85 137.964 123.15 137.379 122.561C136.83 122.561 136.282 122.597 135.733 122.634C136.721 123.223 137.671 124.144 138.11 125.728Z" fill="black"/>
<path d="M130.796 129.159L128.785 129.674C128.785 129.674 127.359 133.836 128.2 135.567C129.078 137.298 122.35 139.728 119.022 138.513L120.339 140.207C120.339 140.207 128.31 139.692 129.809 136.635C131.345 133.578 129.151 133.099 129.004 132.252C128.858 131.405 130.796 129.159 130.796 129.159Z" fill="#263238"/>
<path opacity="0.1" d="M130.796 129.159L128.785 129.674C128.785 129.674 127.359 133.836 128.2 135.567C129.078 137.298 122.35 139.728 119.022 138.513L120.339 140.207C120.339 140.207 128.31 139.692 129.809 136.635C131.345 133.578 129.151 133.099 129.004 132.252C128.858 131.405 130.796 129.159 130.796 129.159Z" fill="white"/>
<path d="M185.748 105.363L190.305 105.722L192.084 82.8492L187.527 82.4897L185.748 105.363Z" stroke="#263238" stroke-width="1.701" stroke-miterlimit="10"/>
<path d="M186.923 137.218C187.032 137.218 187.508 137.255 187.654 137.292C188.458 137.365 189.08 138.065 189.007 138.875C188.934 139.686 188.239 140.275 187.398 140.238C187.288 140.238 186.813 140.201 186.667 140.164C185.862 140.091 185.241 139.391 185.314 138.581C185.387 137.734 186.082 137.144 186.923 137.218Z" fill="#263238"/>
<path opacity="0.1" d="M185.314 138.542C185.241 139.352 185.862 140.089 186.667 140.162C187.471 140.236 188.202 139.61 188.276 138.8C188.349 137.989 187.727 137.253 186.923 137.179C186.118 137.105 185.387 137.695 185.314 138.542Z" fill="white"/>
<path d="M182.939 136.891C183.048 136.891 183.524 136.928 183.67 136.964C184.474 137.038 185.096 137.738 185.023 138.548C184.95 139.358 184.255 139.948 183.414 139.911C183.304 139.911 182.829 139.874 182.683 139.837C181.878 139.763 181.257 139.064 181.33 138.253C181.403 137.443 182.098 136.854 182.939 136.891Z" fill="#263238"/>
<path opacity="0.2" d="M181.33 138.215C181.257 139.025 181.878 139.762 182.683 139.836C183.487 139.909 184.218 139.283 184.291 138.473C184.365 137.663 183.743 136.926 182.939 136.853C182.098 136.779 181.403 137.405 181.33 138.215Z" fill="white"/>
<path d="M182.242 137.325L187.91 137.767C188.459 137.804 188.934 137.399 188.97 136.846L191.676 102.228C191.713 101.675 191.311 101.196 190.762 101.16L185.095 100.718C184.546 100.681 184.071 101.086 184.034 101.638L181.328 136.257C181.292 136.809 181.694 137.288 182.242 137.325Z" fill="#263238"/>
<path opacity="0.2" d="M185.061 137.552L187.913 137.773C188.462 137.809 188.937 137.404 188.973 136.852L191.679 102.233C191.716 101.681 191.314 101.202 190.765 101.165L187.913 100.944C187.365 100.907 186.889 101.313 186.853 101.865L184.147 136.484C184.147 137.036 184.549 137.515 185.061 137.552Z" fill="white"/>
<path d="M187.397 83.154L192.151 83.5223C192.553 83.5591 192.919 83.2645 192.955 82.8594L192.992 82.4175C193.028 82.0123 192.736 81.6441 192.334 81.6072L187.58 81.2389C187.178 81.2021 186.812 81.4967 186.776 81.9019L186.739 82.3438C186.702 82.7489 186.995 83.1172 187.397 83.154Z" fill="#263238"/>
<path opacity="0.2" d="M187.397 83.154L192.151 83.5223C192.553 83.5591 192.919 83.2645 192.955 82.8594L192.992 82.4175C193.028 82.0123 192.736 81.6441 192.334 81.6072L187.58 81.2389C187.178 81.2021 186.812 81.4967 186.776 81.9019L186.739 82.3438C186.702 82.7489 186.995 83.1172 187.397 83.154Z" fill="white"/>
<path opacity="0.2" d="M187.402 83.154L187.804 83.1908C188.207 83.2277 188.572 82.9331 188.572 82.5279L188.609 82.086C188.645 81.6809 188.353 81.3126 187.951 81.2758L187.549 81.2389C187.146 81.2021 186.781 81.4967 186.744 81.9019L186.708 82.3438C186.708 82.7489 187 83.1172 187.402 83.154Z" fill="black"/>
<path d="M202.173 104.846L199.723 136.15C199.65 137.292 198.626 138.176 197.493 138.065L186.157 137.181C185.353 137.108 184.768 136.408 184.804 135.598L187.327 103.078C187.401 102.268 188.095 101.679 188.9 101.716L200.235 102.599C201.405 102.673 202.283 103.704 202.173 104.846Z" fill="#0077FF"/>
<path opacity="0.2" d="M202.173 104.846L199.723 136.15C199.65 137.292 198.626 138.176 197.493 138.065L186.157 137.181C185.353 137.108 184.768 136.408 184.804 135.598L187.327 103.078C187.401 102.268 188.095 101.679 188.9 101.716L200.235 102.599C201.405 102.673 202.283 103.704 202.173 104.846Z" fill="white"/>
<path opacity="0.2" d="M194.385 102.118V102.155L193.982 102.118C193.178 102.045 192.483 102.671 192.41 103.481L189.887 136C189.85 136.7 190.253 137.289 190.874 137.51L186.157 137.142C185.353 137.068 184.768 136.369 184.804 135.559L187.327 103.039C187.401 102.229 188.095 101.64 188.9 101.676L194.385 102.118Z" fill="black"/>
<path opacity="0.2" d="M191.752 135.968H191.569C191.35 135.968 191.203 135.747 191.203 135.526L193.69 103.633C193.69 103.412 193.909 103.265 194.129 103.265H194.311C194.531 103.265 194.677 103.486 194.677 103.707L192.191 135.6C192.154 135.821 191.971 136.005 191.752 135.968Z" fill="black"/>
<path opacity="0.2" d="M194.017 136.298H193.835C193.615 136.298 193.469 136.077 193.469 135.856L195.955 103.963C195.955 103.742 196.175 103.594 196.394 103.594H196.577C196.796 103.594 196.943 103.815 196.943 104.036L194.456 135.93C194.42 136.151 194.237 136.335 194.017 136.298Z" fill="black"/>
<path opacity="0.2" d="M196.285 136.447H196.102C195.883 136.447 195.736 136.226 195.736 136.005L198.223 104.111C198.223 103.89 198.442 103.743 198.662 103.743H198.844C199.064 103.743 199.21 103.964 199.21 104.185L196.724 136.078C196.687 136.299 196.504 136.447 196.285 136.447Z" fill="black"/>
<path opacity="0.2" d="M198.553 136.553H198.37C198.15 136.553 198.004 136.332 198.004 136.111L200.49 104.217C200.49 103.996 200.71 103.849 200.929 103.849H201.112C201.331 103.849 201.478 104.07 201.478 104.291L198.991 136.184C198.955 136.405 198.772 136.59 198.553 136.553Z" fill="black"/>
</g>
<path d="M156.849 63.2729C156.849 63.2729 150.553 59.7358 149.258 58.8221C147.934 57.9083 140.961 51.0404 140.578 50.8636C140.578 50.8636 140.843 50.0677 140.254 49.6256C139.666 49.154 137.4 47.6802 137.047 47.6802C136.694 47.6802 135.87 50.8636 136.017 51.6299C136.135 52.4258 139.342 52.6027 139.342 52.6027C139.342 52.6027 145.992 60.3548 147.022 61.4454C148.052 62.536 155.172 67.1638 155.172 67.1638L156.849 63.2729Z" fill="#E4897B"/>
<path d="M159.439 63.9188C159.439 63.9188 160.822 66.719 157.467 71.1404L150.082 65.6874L153.025 60.3228L159.439 63.9188Z" fill="#005BC3"/>
<path opacity="0.6" d="M157.465 71.1422L153.964 68.5778L153.493 68.2536L151.522 66.8092L150.051 65.7186L151.139 63.7437L151.757 62.6237L153.022 60.354L154.229 61.032L155.258 61.6215L159.407 63.9501C159.407 63.9501 159.584 64.3038 159.643 64.9522C159.819 66.1018 159.613 68.283 157.465 71.1422Z" fill="white"/>
<path opacity="0.2" d="M157.465 71.1411L153.964 68.5767C155.17 66.1007 158.26 65.2165 159.672 64.9512C159.819 66.1007 159.613 68.282 157.465 71.1411Z" fill="black"/>
<g opacity="0.2">
<path d="M155.261 61.5934L154.231 62.2124V61.0039L155.261 61.5934Z" fill="white"/>
<path d="M152.995 62.9769L151.701 64.8044L151.141 63.7138L151.759 62.5938L152.995 62.9769Z" fill="white"/>
<path d="M153.966 65.7515L153.495 68.2274L151.553 66.7831L153.966 65.7515Z" fill="white"/>
<path d="M154.879 64.3067L155.585 66.1932L157.115 64.1299L154.879 64.3067Z" fill="white"/>
</g>
<path d="M173.151 62.5928C173.151 62.5928 179.447 59.0556 180.742 58.1419C182.037 57.2281 189.01 50.3603 189.422 50.1834C189.422 50.1834 189.157 49.3875 189.746 48.9454C190.334 48.4738 192.6 47 192.953 47C193.306 47 194.13 50.2129 193.983 50.9792C193.865 51.7751 190.658 51.952 190.658 51.952C190.658 51.952 184.008 59.7041 182.978 60.7947C181.948 61.8853 174.828 66.5131 174.828 66.5131L173.151 62.5928Z" fill="#E4897B"/>
<path d="M165.619 99.939C165.619 99.939 165.472 102.179 165.266 105.127C165.119 106.984 164.972 109.106 164.795 111.169C164.56 113.94 164.266 116.593 164.001 118.244C163.736 119.747 160.352 138.523 160.352 138.523H158.087C158.793 121.014 159.911 114.235 159.97 113.203C159.999 112.879 159.999 112.407 159.999 111.847C160.029 109.843 160.087 106.689 160.117 104.39C160.146 102.739 160.146 101.531 160.146 101.531L165.619 99.939Z" fill="#E4897B"/>
<path d="M174.415 114.116C174.327 115.648 173.415 138.492 173.415 138.492H170.914C169.649 120.305 170.119 113.998 169.884 112.73C169.884 112.73 169.884 112.73 169.884 112.701C169.501 110.549 169.119 107.749 168.884 105.656C168.678 103.976 168.56 102.767 168.56 102.767L173.65 100.557C173.65 100.557 173.974 103.209 174.18 106.393C174.298 107.985 174.386 109.724 174.415 111.315C174.474 112.288 174.474 113.261 174.415 114.116Z" fill="#E4897B"/>
<path opacity="0.2" d="M160.086 104.42L165.294 105.127C165.147 106.984 165 109.107 164.823 111.17L159.998 111.848C160.027 109.873 160.057 106.719 160.086 104.42Z" fill="black"/>
<path opacity="0.2" d="M174.445 111.288L169.884 112.703C169.502 110.551 169.119 107.751 168.884 105.658L174.209 106.395C174.327 107.957 174.415 109.667 174.445 111.288Z" fill="black"/>
<path d="M160.882 137.845H157.881C157.792 137.845 157.704 137.904 157.675 138.022L157.174 140.233C157.145 140.439 157.263 140.616 157.469 140.675C157.498 140.675 157.527 140.675 157.557 140.675C158.528 140.645 159.234 140.586 160.47 140.586C161.235 140.586 163.5 140.675 164.53 140.675C165.56 140.675 165.707 139.643 165.266 139.555C163.353 139.142 161.912 138.553 161.323 138.022C161.176 137.904 161.029 137.845 160.882 137.845Z" fill="#005BC3"/>
<path d="M173.621 137.786H170.62C170.532 137.786 170.444 137.845 170.414 137.963L169.914 140.173C169.885 140.38 170.002 140.556 170.208 140.615C170.238 140.615 170.267 140.615 170.297 140.615C171.268 140.586 171.974 140.527 173.209 140.527C173.974 140.527 176.24 140.615 177.27 140.615C178.3 140.615 178.447 139.584 178.005 139.495C176.093 139.083 174.651 138.493 174.063 137.963C173.916 137.815 173.768 137.786 173.621 137.786Z" fill="#005BC3"/>
<path d="M165.824 109.903C165.853 109.696 165.882 109.49 165.882 109.254C166.177 106.248 166.5 102.622 166.765 99.1146C167.795 101.856 168.207 105.688 168.737 109.903H174.915C174.415 99.0556 173.062 90.2129 172.356 86.4399H159.233C159.203 87.7958 159.056 100.883 158.733 109.903H165.824Z" fill="#263238"/>
<path opacity="0.2" d="M165.824 109.903C165.853 109.696 165.882 109.49 165.882 109.254C166.177 106.248 166.5 102.622 166.765 99.1146C167.795 101.856 168.207 105.688 168.737 109.903H174.915C174.415 99.0556 173.062 90.2129 172.356 86.4399H159.233C159.203 87.7958 159.056 100.883 158.733 109.903H165.824Z" fill="white"/>
<path d="M167.649 59.5575C167.619 59.6754 167.59 59.7933 167.531 59.9112C167.296 60.5892 166.854 61.1492 166.295 61.5324C166.148 61.6503 166.001 61.7387 165.854 61.7977C165.03 62.2103 164.059 62.2988 163.176 61.9156C162.823 61.7682 162.47 61.5324 162.147 61.2081C160.911 59.9407 160.94 58.4964 160.793 56.0499C160.764 55.5193 160.852 54.9887 161.029 54.5171C161.735 52.8075 163.706 51.9822 165.413 52.7191C167.855 53.7213 168.178 57.3763 167.649 59.5575Z" fill="#E4897B"/>
<path opacity="0.2" d="M166.298 61.5629C166.151 61.6808 166.004 61.7692 165.856 61.8282C165.033 62.2408 164.062 62.3293 163.179 61.9461C163.355 61.4745 163.62 61.1207 163.62 61.1207C163.62 61.1207 165.091 60.8849 166.298 61.5629Z" fill="black"/>
<path d="M161.382 64.7166C162.589 65.8072 165.531 65.3945 165.531 65.3945C165.531 65.3945 167.385 64.8934 166.973 64.3039C165.884 64.1271 165.354 63.626 165.149 62.9775C165.031 62.5943 165.001 62.1817 165.031 61.7395C165.06 61.5037 165.09 61.2679 165.119 61.0321L161.471 58.3203C161.971 60.1478 162.559 63.4491 161.382 64.7166Z" fill="#E4897B"/>
<path d="M166.297 57.3466L166.826 57.553L166.561 56.4624C166.561 56.4624 167.326 55.3128 166.561 54.2517C166.561 54.2517 168.68 53.6032 167.503 52.4831C167.062 52.0704 166.503 52.4831 165.031 51.8346C164.237 51.4809 161.736 51.4515 161.618 52.4831C161.618 52.4831 159.823 52.4831 159.617 55.5486C159.412 58.6141 161.53 60.3827 161.53 60.3827C161.53 60.3827 163.707 60.8837 164.767 60.0289C165.796 59.1447 166.297 57.3466 166.297 57.3466Z" fill="#263238"/>
<path d="M164.915 57.5249C165.062 58.0555 165.357 58.4387 165.739 58.6155C166.239 58.8219 166.563 58.1144 166.504 57.3775C166.445 56.7291 166.092 55.8153 165.563 55.9332C165.004 56.0511 164.739 56.847 164.915 57.5249Z" fill="#E4897B"/>
<path opacity="0.2" d="M166.795 99.1129C166.53 102.591 166.206 106.246 165.912 109.253C165.471 104.89 164.912 101.795 164.912 101.795C164.912 101.795 164.411 101.383 162.999 99.1129C161.587 96.8433 162.999 92.6577 162.999 92.6577C162.94 96.5485 166.795 99.1129 166.795 99.1129Z" fill="black"/>
<path d="M175.416 109.399L175.151 110.431H168.56V109.487L175.416 109.399Z" fill="#005BC3"/>
<path d="M166.147 109.549L165.97 110.493H158.497L158.055 109.549H166.147Z" fill="#005BC3"/>
<path d="M167.059 64.0057C167.059 64.0057 165.999 62.2961 163.292 62.1782C160.585 62.0603 160.38 63.9173 160.38 63.9173L167.059 64.0057Z" fill="#005BC3"/>
<path opacity="0.5" d="M167.059 64.0057C167.059 64.0057 165.999 62.2961 163.292 62.1782C160.585 62.0603 160.38 63.9173 160.38 63.9173L167.059 64.0057Z" fill="white"/>
<path d="M157.38 62.9727C157.38 62.9727 158.763 75.5589 157.085 90.5326L172.886 89.5599C172.709 73.4071 170.532 63.2085 170.532 63.2085C170.532 63.2085 166.442 64.0633 163.147 63.9454C160.057 63.8569 157.38 62.9727 157.38 62.9727Z" fill="#005BC3"/>
<path d="M170.563 63.2397C170.563 63.2397 172.681 68.1916 172.917 73.2025C173.152 78.2134 164.325 85.0813 164.325 85.0813C164.325 85.0813 157.528 80.3947 152.291 80.8368C147.053 81.2789 145.435 83.1359 145.435 83.1359C145.435 83.1359 149.495 74.411 156.587 71.375C156.587 71.375 155.115 66.3346 157.381 63.0333C157.381 62.9744 162.295 64.5661 170.563 63.2397Z" fill="#005BC3"/>
<path opacity="0.6" d="M172.914 73.1731C172.914 73.3205 172.914 73.4384 172.914 73.5858C172.914 73.7921 172.885 74.0279 172.826 74.2343C172.738 74.7354 172.591 75.207 172.385 75.7081C171.855 77.005 170.943 78.3314 169.943 79.5399C169.442 80.1589 168.913 80.7485 168.383 81.279C166.324 83.4602 164.323 84.993 164.323 84.993C164.323 84.993 161.822 83.2539 158.673 82.0159C158.056 81.7801 157.438 81.5443 156.79 81.3675C155.29 80.9253 153.73 80.66 152.289 80.7485C150.435 80.8958 149.052 81.2201 148.022 81.5738C147.787 81.6622 147.551 81.7506 147.345 81.8391C147.287 81.8685 147.228 81.898 147.169 81.9275C146.61 82.1928 146.198 82.4286 145.904 82.6349C145.874 82.6644 145.815 82.6939 145.786 82.7233C145.698 82.7823 145.639 82.8412 145.58 82.8707C145.551 82.9002 145.521 82.9002 145.521 82.9297C145.492 82.9592 145.492 82.9592 145.462 82.9886C145.433 82.9886 145.433 83.0181 145.433 83.0181L145.403 83.0476C145.403 83.0476 145.433 82.9592 145.492 82.8707C145.521 82.8412 145.551 82.7823 145.58 82.6939C145.668 82.517 145.786 82.3107 145.933 82.0454C145.962 82.0159 145.962 81.957 145.992 81.9275C146.021 81.8685 146.08 81.8096 146.11 81.7212C146.139 81.6622 146.198 81.5738 146.227 81.5148C146.404 81.2201 146.61 80.8664 146.816 80.5126C147.787 78.9799 149.228 76.9461 151.082 75.1186C151.671 74.5585 152.259 73.9985 152.906 73.4974C154.025 72.6426 155.231 71.8762 156.555 71.2867C156.555 71.2867 156.025 69.4887 156.084 67.3369C156.084 66.9243 156.114 66.5116 156.202 66.0694C156.349 64.9788 156.702 63.8882 157.349 62.9155C157.349 62.9155 158.114 63.1513 159.556 63.3871C160.351 63.505 161.322 63.6229 162.498 63.6819C164.146 63.7703 166.118 63.7409 168.442 63.4756C169.119 63.3871 169.796 63.2987 170.531 63.1808C170.531 63.1808 170.561 63.2398 170.59 63.3577C170.766 63.7998 171.296 65.1557 171.796 66.9537C171.914 67.4253 172.061 67.9264 172.179 68.457C172.297 68.9286 172.385 69.4592 172.502 69.9603C172.738 71.0214 172.856 72.112 172.914 73.1731Z" fill="white"/>
<g opacity="0.2">
<path d="M170.882 77.2075L169.94 79.5951C169.44 80.2141 168.91 80.8036 168.381 81.3341L166.497 77.797L170.882 77.2075Z" fill="white"/>
<path d="M154.875 74.91L151.138 75.1163C151.726 74.5563 152.315 73.9962 152.962 73.4951L154.875 74.91Z" fill="white"/>
<path d="M159.171 65.4766L158.759 69.3674L156.111 67.363C156.111 66.9504 156.14 66.5377 156.228 66.0956L159.171 65.4766Z" fill="white"/>
<path d="M160.406 75.7339L159.171 72.0199L162.907 71.3125L160.406 75.7339Z" fill="white"/>
<path d="M166.792 72.1685V74.9687L169.469 74.0254L166.792 72.1685Z" fill="white"/>
<path d="M159.937 80.2738L158.671 82.0424C158.054 81.8066 157.436 81.5708 156.788 81.3939L155.847 79.2422L159.937 80.2738Z" fill="white"/>
<path d="M150.374 77.5898L152.316 78.4152L150.374 79.7416V77.5898Z" fill="white"/>
<path d="M148.049 81.6282C146.136 82.3062 145.46 83.0725 145.46 83.0725C145.46 83.0725 145.96 82.0114 146.872 80.5376L148.049 81.6282Z" fill="white"/>
<path d="M163.73 78.0039L162.083 79.743L164.584 80.1556L163.73 78.0039Z" fill="white"/>
<path d="M163.731 67.2141L165.673 69.8374L167.056 66.8604L163.731 67.2141Z" fill="white"/>
<path d="M172.53 69.9867L170.029 68.3361L171.824 66.9507C172.089 67.8939 172.354 68.9256 172.53 69.9867Z" fill="white"/>
<path d="M172.912 73.6129C172.882 74.2908 172.676 75.0277 172.382 75.7646L171.352 73.2002L172.912 73.6129Z" fill="white"/>
<path d="M170.646 63.3839L169.087 65.0051L168.498 63.5018C169.175 63.4134 169.852 63.3249 170.587 63.207C170.558 63.2365 170.587 63.2955 170.646 63.3839Z" fill="white"/>
<path d="M162.525 63.7083L161.377 66.1548L159.582 63.4136C160.377 63.561 161.377 63.6789 162.525 63.7083Z" fill="white"/>
</g>
<path opacity="0.2" d="M172.917 73.1724C172.917 73.3198 172.917 73.4377 172.917 73.5851C172.917 73.7914 172.887 74.0272 172.828 74.2336C170.769 70.9618 171.269 68.0142 171.269 68.0142L172.24 68.4858C172.357 68.9574 172.446 69.488 172.563 69.989C172.74 71.0207 172.858 72.1113 172.917 73.1724Z" fill="black"/>
<path d="M164.56 50.2099C168.062 49.0013 168.915 53.6585 165.472 56.8125C162 59.9664 158.028 60.3496 157.557 58.7579C157.116 57.1662 159.235 52.0374 164.56 50.2099Z" fill="#005BC3"/>
<path d="M161.06 49.9746C162.855 49.9746 165.386 51.8021 165.386 51.8021C165.386 51.8021 165.739 53.7475 163.973 55.4571C162.178 57.1667 160.59 57.432 159.589 56.7835C158.589 56.1351 158.324 53.5412 158.324 53.5412C158.324 53.5412 158.589 52.539 159.589 52.2148C159.589 52.2148 159.883 49.9746 161.06 49.9746Z" fill="#005BC3"/>
<path opacity="0.2" d="M164.002 55.4566C162.207 57.1662 160.618 57.4315 159.618 56.783C159.441 56.6651 159.294 56.5177 159.176 56.3114C158.529 55.3387 158.352 53.5407 158.352 53.5407C160.059 55.604 162.03 53.4817 162.295 52.0374C162.442 51.2121 162.236 50.5046 161.824 50.0625C163.001 50.3278 164.296 51.0647 164.943 51.5068C165.238 51.6837 165.385 51.8016 165.385 51.8016C165.385 51.8016 165.767 53.747 164.002 55.4566Z" fill="black"/>
<path opacity="0.6" d="M164.001 55.4547C162.206 57.1643 160.617 57.4295 159.617 56.7811C159.44 56.6632 159.293 56.5158 159.176 56.3095C160.97 56.84 163.089 55.9557 164.236 54.364C164.972 53.3324 165.06 52.2713 164.972 51.5049C165.266 51.6817 165.413 51.7996 165.413 51.7996C165.413 51.7996 165.767 53.7451 164.001 55.4547Z" fill="white"/>
<path d="M170.561 63.2382C170.561 63.2382 169.178 66.0384 172.533 70.4598L179.918 65.0067L176.976 59.6421L170.561 63.2382Z" fill="#005BC3"/>
<path opacity="0.6" d="M179.949 65.0085L178.007 66.4233L175.153 68.5161L172.534 70.432C172.358 70.1962 172.211 69.9899 172.063 69.7836C171.74 69.312 171.475 68.8403 171.24 68.4277C170.475 66.9539 170.269 65.7454 170.269 64.8611C170.269 63.8 170.563 63.2104 170.563 63.2104L172.211 62.2967L175.035 60.7345L176.271 60.0565L176.977 59.6733L179.949 65.0085Z" fill="white"/>
<g opacity="0.2">
<path d="M178.007 66.4236L175.153 68.5458L173.888 65.7456L178.007 66.4236Z" fill="white"/>
<path d="M177.742 61.9117L175.124 62.9728L175.035 60.7326L176.3 60.0547L177.742 61.9117Z" fill="white"/>
<path d="M173.153 64.121L170.298 64.8579C170.298 63.7967 170.593 63.2072 170.593 63.2072L172.24 62.2935L173.153 64.121Z" fill="white"/>
<path d="M172.536 67.687L172.065 69.7798C171.742 69.3082 171.477 68.8366 171.242 68.4239L172.536 67.687Z" fill="white"/>
</g>
<path d="M368.13 113H366.772L366.708 113.659L365.446 113.669L365.371 113H363.837L363.774 113.656L362.512 113.667L362.437 113H360.902L360.839 113.655L359.577 113.664L359.503 113H357.967L357.905 113.652L356.643 113.662L356.568 113H355.033L354.97 113.65L353.708 113.66L353.634 113H352.098L352.035 113.647L350.773 113.658L350.699 113H349.331L347.291 127.026H370.169L368.13 113Z" fill="#0077FF"/>
<path opacity="0.5" d="M368.13 113H366.772L366.708 113.659L365.446 113.669L365.371 113H363.837L363.774 113.656L362.512 113.667L362.437 113H360.902L360.839 113.655L359.577 113.664L359.503 113H357.967L357.905 113.652L356.643 113.662L356.568 113H355.033L354.97 113.65L353.708 113.66L353.634 113H352.098L352.035 113.647L350.773 113.658L350.699 113H349.331L347.291 127.026H370.169L368.13 113Z" fill="white"/>
<path d="M372.478 122.555H370.491L370.398 123.518L368.553 123.533L368.443 122.555H366.199L366.106 123.515L364.261 123.53L364.151 122.555H361.907L361.814 123.512L359.969 123.527L359.86 122.555H357.614L357.522 123.509L355.677 123.524L355.568 122.555H353.322L353.231 123.506L351.385 123.52L351.276 122.555H349.03L348.939 123.502L347.093 123.517L346.984 122.555H344.983L342 143.07H375.461L372.478 122.555Z" fill="#0077FF"/>
<path opacity="0.6" d="M372.478 122.555H370.491L370.398 123.518L368.553 123.533L368.443 122.555H366.199L366.106 123.515L364.261 123.53L364.151 122.555H361.907L361.814 123.512L359.969 123.527L359.86 122.555H357.614L357.522 123.509L355.677 123.524L355.568 122.555H353.322L353.231 123.506L351.385 123.52L351.276 122.555H349.03L348.939 123.502L347.093 123.517L346.984 122.555H344.983L342 143.07H375.461L372.478 122.555Z" fill="white"/>
<path opacity="0.2" d="M358.73 136.551C357.495 136.551 356.493 137.552 356.493 138.788V143.07H360.967V138.788C360.968 137.552 359.966 136.551 358.73 136.551Z" fill="black"/>
<path opacity="0.2" d="M365.666 128.072C365.049 128.072 364.548 128.573 364.548 129.191V131.333H366.785V129.191C366.785 128.573 366.284 128.072 365.666 128.072Z" fill="black"/>
<path opacity="0.2" d="M351.795 128.072C351.177 128.072 350.676 128.573 350.676 129.191V131.333H352.913V129.191C352.913 128.573 352.412 128.072 351.795 128.072Z" fill="black"/>
<path opacity="0.2" d="M364.489 117.047C363.871 117.047 363.37 117.548 363.37 118.166V120.307H365.607V118.166C365.607 117.548 365.107 117.047 364.489 117.047Z" fill="black"/>
<path opacity="0.2" d="M358.73 117.047C358.112 117.047 357.612 117.548 357.612 118.166V120.307H359.848V118.166C359.849 117.548 359.348 117.047 358.73 117.047Z" fill="black"/>
<path opacity="0.2" d="M352.972 117.047C352.354 117.047 351.853 117.548 351.853 118.166V120.307H354.09V118.166C354.09 117.548 353.59 117.047 352.972 117.047Z" fill="black"/>
<path d="M37 134.273C37 134.3 37 134.321 37.0034 134.348V134.352C37.0172 135.561 37.372 136.691 37.9817 137.642C38.0334 137.721 38.0851 137.8 38.1436 137.879C38.5053 138.393 38.9428 138.851 39.4388 139.233C39.5525 139.323 39.6696 139.409 39.7902 139.484H39.7936C39.8212 139.505 39.8522 139.526 39.8797 139.54C39.9176 139.567 39.9555 139.588 39.9934 139.612C40.052 139.653 40.114 139.688 40.176 139.722C40.2724 139.777 40.3723 139.832 40.4722 139.881H40.4756C41.3161 140.304 42.2634 140.542 43.2693 140.542C45.0536 140.542 46.6657 139.794 47.8024 138.599C48.2227 138.165 48.5775 137.669 48.853 137.128C49.2939 136.271 49.542 135.299 49.542 134.273V134.252C49.542 134.076 49.5351 133.901 49.5178 133.728C49.449 132.898 49.2147 132.116 48.853 131.414C48.76 131.231 48.6601 131.055 48.5499 130.887C48.1882 130.325 47.7404 129.826 47.2272 129.405C47.0618 129.271 46.893 129.147 46.7139 129.033C46.6519 128.989 46.5864 128.947 46.521 128.909C46.0319 128.61 45.5014 128.379 44.9365 128.224C44.8882 128.21 44.84 128.196 44.7918 128.186C44.3061 128.065 43.7963 128 43.2693 128C43.1074 128 42.9489 128.007 42.7939 128.021C42.7526 128.021 42.7147 128.024 42.6733 128.028H42.6699C41.9568 128.096 41.2817 128.282 40.6582 128.572C40.6341 128.582 40.6065 128.596 40.579 128.61C40.0416 128.865 39.549 129.192 39.1081 129.581C38.0127 130.556 37.2583 131.913 37.0551 133.443V133.453C37.0172 133.722 37 133.994 37 134.273Z" fill="#005BC3"/>
<path opacity="0.6" d="M37 134.273C37 136.729 38.4123 138.857 40.4722 139.881C40.4756 139.884 40.4756 139.881 40.4756 139.881C40.7237 139.674 40.8201 139.457 40.8201 139.457C39.6627 136.081 40.8201 134.273 40.8201 134.273L40.8167 134.238L40.734 133.697L40.7168 133.598C40.5376 132.595 40.0864 130.718 39.1081 129.581C37.8164 130.728 37 132.406 37 134.273Z" fill="white"/>
<path opacity="0.6" d="M48.078 133.188C48.078 133.188 49.1768 134.287 48.853 137.129C49.294 136.271 49.542 135.3 49.542 134.273C49.542 132.31 48.6395 130.556 47.2272 129.406C47.8334 130.573 48.1538 131.979 48.078 133.188Z" fill="white"/>
<path opacity="0.2" d="M39.1082 129.581C40.486 131.179 40.8201 134.273 40.8201 134.273C44.6024 135.199 48.078 133.188 48.078 133.188C48.1538 131.979 47.83 130.573 47.2272 129.405C46.1456 128.527 44.7711 128 43.2693 128C41.671 128 40.2173 128.599 39.1082 129.581Z" fill="white"/>
<path opacity="0.2" d="M40.4757 139.881C41.3162 140.304 42.2635 140.542 43.2693 140.542C45.0536 140.542 46.6657 139.794 47.8025 138.599C46.6278 139.298 44.2269 140.277 40.8202 139.457C40.8202 139.457 40.7237 139.674 40.4757 139.881Z" fill="white"/>
<g opacity="0.2">
<path d="M40.579 128.61C40.7443 128.84 40.8924 129.078 41.0302 129.326C41.2851 129.802 41.5056 130.294 41.6882 130.8C41.8811 131.307 42.0292 131.827 42.1704 132.347C42.3047 132.871 42.4253 133.401 42.5252 133.935C42.4942 133.391 42.4081 132.853 42.2979 132.32C42.1842 131.786 42.0292 131.259 41.8501 130.742C41.6503 130.232 41.4298 129.729 41.1473 129.261C40.9958 129.023 40.8339 128.789 40.6582 128.572C40.6341 128.582 40.6065 128.596 40.579 128.61Z" fill="black"/>
<path d="M42.6733 128.027C42.7595 128.182 42.8387 128.341 42.9145 128.499C43.1694 129.03 43.3726 129.588 43.5379 130.156C43.7205 130.721 43.8583 131.3 43.9892 131.879C44.1166 132.457 44.2303 133.043 44.3302 133.628C44.2992 133.032 44.22 132.44 44.1166 131.851C44.0168 131.262 43.8721 130.68 43.7033 130.108C43.5207 129.536 43.3175 128.968 43.0316 128.437C42.9558 128.296 42.8766 128.155 42.7939 128.021C42.7526 128.021 42.7147 128.024 42.6733 128.027Z" fill="black"/>
<path d="M44.7919 128.186C44.8263 128.279 44.8642 128.372 44.8987 128.465C45.0881 128.975 45.2431 129.498 45.3637 130.032C45.498 130.563 45.6014 131.1 45.7013 131.641C45.7977 132.182 45.8838 132.723 45.963 133.267C45.9562 132.716 45.901 132.168 45.8287 131.62C45.7598 131.073 45.653 130.532 45.529 129.994C45.3981 129.457 45.2397 128.927 45.0227 128.413C44.9951 128.351 44.9675 128.286 44.9365 128.224C44.8883 128.21 44.8401 128.196 44.7919 128.186Z" fill="black"/>
<path d="M46.5211 128.909C46.6382 129.295 46.7485 129.681 46.8277 130.073C46.9276 130.511 46.9999 130.955 47.0688 131.4C47.1343 131.844 47.1859 132.292 47.2273 132.743C47.2548 132.292 47.2376 131.837 47.1997 131.386C47.1584 130.935 47.086 130.483 46.9965 130.039C46.9173 129.698 46.8277 129.364 46.714 129.033C46.652 128.988 46.5866 128.947 46.5211 128.909Z" fill="black"/>
<path d="M39.0565 136.363C39.0496 137.008 39.1116 137.662 39.308 138.282C39.3838 138.596 39.5216 138.892 39.6421 139.188C39.6869 139.288 39.7386 139.388 39.7902 139.484H39.7937C39.8212 139.505 39.8522 139.526 39.8798 139.539C39.6972 139.119 39.5353 138.692 39.4354 138.248C39.2701 137.635 39.2081 136.997 39.2288 136.367C39.2322 135.733 39.3424 135.103 39.5181 134.496C39.6972 133.887 39.9487 133.294 40.2759 132.743C39.8867 133.256 39.6008 133.845 39.3941 134.455C39.184 135.068 39.0738 135.716 39.0565 136.363Z" fill="black"/>
<path d="M37.8198 136.188L37.837 136.708L37.9093 137.225C37.9231 137.366 37.9507 137.504 37.9817 137.641C38.0334 137.721 38.085 137.8 38.1436 137.879C38.0988 137.655 38.0506 137.435 38.0402 137.207L37.9886 136.698L37.9782 136.188C37.9679 136.016 37.9782 135.847 37.992 135.675C38.0093 135.506 38.0092 135.337 38.0402 135.168C38.1091 134.49 38.2986 133.828 38.5466 133.194C38.7981 132.561 39.1322 131.954 39.5593 131.417C39.0771 131.91 38.7085 132.509 38.426 133.143C38.147 133.78 37.9541 134.455 37.868 135.148C37.8405 135.32 37.8439 135.492 37.8301 135.668C37.8163 135.84 37.8095 136.016 37.8198 136.188Z" fill="black"/>
<path d="M37 134.272C37 134.3 37 134.321 37.0034 134.348C37.0103 134.31 37.0172 134.269 37.0241 134.231C37.1688 133.514 37.4065 132.822 37.7165 132.161C38.0299 131.503 38.4123 130.869 38.9083 130.325C38.3675 130.828 37.9369 131.444 37.5994 132.102C37.3789 132.533 37.1998 132.981 37.0551 133.442V133.452C37.0172 133.721 37 133.993 37 134.272Z" fill="black"/>
<path d="M48.3846 132.195C48.6671 132.505 48.8944 132.853 49.0908 133.215C49.2699 133.549 49.4215 133.894 49.5421 134.252C49.5421 134.076 49.5352 133.9 49.5179 133.728C49.4249 133.528 49.3216 133.335 49.2045 133.149C48.9806 132.791 48.7153 132.454 48.3846 132.195Z" fill="black"/>
<path d="M48.0884 130.528C48.3502 130.824 48.6051 131.117 48.8531 131.413C48.7601 131.231 48.6602 131.055 48.55 130.886C48.4018 130.759 48.2503 130.638 48.0884 130.528Z" fill="black"/>
<path d="M48.0887 134.516C47.5165 134.736 46.9361 134.929 46.3505 135.101C45.7639 135.268 45.1745 135.427 44.5738 135.524C43.3802 135.745 42.1436 135.805 40.9565 135.48C41.527 135.711 42.1443 135.813 42.7612 135.841C43.3798 135.864 43.9961 135.79 44.6044 135.693C45.211 135.581 45.8073 135.422 46.3905 135.227C46.9719 135.028 47.5448 134.801 48.0887 134.516Z" fill="black"/>
<path d="M48.0887 136.015C47.5118 136.246 46.921 136.437 46.323 136.594C45.7243 136.748 45.1184 136.872 44.5053 136.943C43.8945 137.033 43.2759 137.048 42.66 137.03L42.1974 137.008L41.7375 136.953C41.4268 136.933 41.1292 136.843 40.8202 136.799C41.413 136.983 42.0272 137.127 42.6527 137.162C43.2766 137.209 43.9059 137.191 44.527 137.113C45.1467 137.028 45.7619 136.904 46.3592 136.721C46.9551 136.535 47.5407 136.311 48.0887 136.015Z" fill="black"/>
<path d="M47.9406 137.309C47.3974 137.565 46.8345 137.772 46.261 137.936C45.6878 138.101 45.1029 138.225 44.5114 138.289C44.2173 138.335 43.9193 138.344 43.6227 138.366C43.3254 138.362 43.0271 138.374 42.7302 138.349C42.1329 138.33 41.5463 138.211 40.9569 138.092C41.5263 138.28 42.116 138.434 42.7199 138.481C43.3217 138.547 43.931 138.529 44.5321 138.459C45.1318 138.38 45.7274 138.257 46.3002 138.062C46.8721 137.869 47.4301 137.628 47.9406 137.309Z" fill="black"/>
<path d="M47.6791 138.286C47.1659 138.524 46.6361 138.718 46.0974 138.876C45.5576 139.031 45.0085 139.152 44.4522 139.215C43.8979 139.297 43.3354 139.304 42.7774 139.268L42.3582 139.235L41.9424 139.168C41.6613 139.138 41.3951 139.042 41.1154 138.989C41.6441 139.187 42.1959 139.351 42.7653 139.4C43.332 139.464 43.9072 139.455 44.4735 139.385C45.0385 139.307 45.5982 139.186 46.137 139.001C46.6743 138.816 47.1989 138.587 47.6791 138.286Z" fill="black"/>
</g>
<path d="M26.4844 78.1357C26.4844 78.1357 24.8622 79.0975 22.1467 78.3622C19.4311 77.6268 18.1299 81.4739 15.8102 79.6634" stroke="#263238" stroke-width="0.301608" stroke-miterlimit="10" stroke-linecap="round" stroke-linejoin="round"/>
<path d="M29.1534 69.7706C29.1534 69.7706 32.3152 68.6313 32.7111 72.1448C33.107 75.6581 31.1822 77.1555 29.376 77.0739" stroke="#263238" stroke-width="0.301608" stroke-miterlimit="10" stroke-linecap="round" stroke-linejoin="round"/>
<path d="M29.8743 75.5835C28.6693 76.2637 29.8845 76.4931 28.3268 77.3418C26.7695 78.1905 23.7144 80.021 21.904 77.7481C20.4582 75.9332 18.2968 78.5794 16.7706 78.8428C14.9899 79.1502 13.3008 77.7035 13.1722 75.9497C13.1353 75.4455 13.138 74.9249 12.9443 74.458C12.734 73.9518 12.3202 73.5808 11.8778 73.2764C11.3839 72.9369 10.4962 72.6787 10.7076 71.9005C10.7913 71.5931 11.0315 71.3475 11.3068 71.1873C11.7951 70.9039 12.3721 70.7852 12.932 70.8598C13.954 70.9963 14.6927 71.7991 15.6478 70.9093C16.0128 70.5692 16.2539 70.1212 16.5238 69.7013C16.9872 68.9804 17.7429 68.4888 18.6162 68.4894C19.4262 68.4897 19.9531 68.9012 20.6306 69.2524C21.9552 69.9391 23.5675 69.3555 24.7041 68.6601C26.5665 67.5205 27.9919 67.5706 29.435 68.6859C30.9335 69.8441 32.5575 73.9464 30.9581 75.2521C30.8643 75.3295 29.9802 75.5238 29.8743 75.5835Z" fill="#263238"/>
<path d="M29.7289 69.218C29.7289 69.218 28.2586 67.1934 25.7109 67.3631C23.1633 67.5329 23.5442 69.7221 21.1474 68.288C18.7506 66.8539 17.1099 67.565 16.0348 69.218" stroke="#263238" stroke-width="0.301608" stroke-miterlimit="10" stroke-linecap="round" stroke-linejoin="round"/>
<path d="M20.7869 81.0868C20.7869 81.0868 15.5771 82.1296 14.7026 81.9598C13.8281 81.7901 8.23175 75.5232 8.23175 75.5232C8.23175 75.5232 7.8311 74.1319 7.54829 74.0858C7.26549 74.0393 3.70273 72.8745 3.67364 73.5417C3.64455 74.209 4.32351 75.9592 4.49325 76.1307C4.66299 76.3023 7.49191 76.7527 7.49191 76.7527C7.49191 76.7527 12.6402 83.4875 13.3192 83.94C13.9982 84.3926 20.1649 83.94 20.1649 83.94L20.7869 81.0868Z" fill="#E4897B"/>
<path d="M31.7244 81.6143C32.7666 82.125 36.4439 91.5165 36.4439 91.5165C36.4439 91.5165 43.1067 97.6047 43.2962 98.182C43.493 98.7815 42.8539 101.207 42.7195 101.422C42.6254 101.573 41.0365 101.734 41.0365 101.535C41.0365 101.327 41.8099 98.5944 41.8099 98.5944L34.577 92.5905L30.9585 84.209L31.7244 81.6143Z" fill="#E4897B"/>
<path d="M31.7245 81.6143C32.668 81.6766 36.8959 86.687 36.8959 86.687L33.7995 89.0319L31.7245 81.6143Z" fill="#005BC3"/>
<path opacity="0.5" d="M31.7245 81.6143C32.668 81.6766 36.8959 86.687 36.8959 86.687L33.7995 89.0319L31.7245 81.6143Z" fill="white"/>
<path d="M34.8032 88.0776C35.7704 89.1318 31.0125 93.7214 24.7327 92.5908C18.4529 91.4602 15.7937 87.7019 15.7937 87.7019C15.7937 87.7019 27.3919 79.9993 34.8032 88.0776Z" fill="#005BC3"/>
<path opacity="0.6" d="M34.8032 88.0776C35.7704 89.1318 31.0125 93.7214 24.7327 92.5908C18.4529 91.4602 15.7937 87.7019 15.7937 87.7019C15.7937 87.7019 27.3919 79.9993 34.8032 88.0776Z" fill="white"/>
<path d="M42.4481 94.5857C41.6722 92.5968 38.392 91.9286 34.8751 91.817C34.1955 91.7954 33.6302 92.3347 33.6302 93.0145C34.2639 93.4191 34.7297 93.9394 34.9777 94.5755C36.1353 97.5384 32.1904 101.847 26.1637 104.198C20.1397 106.548 14.319 106.054 13.1614 103.09C12.2162 100.664 6.96407 103.851 8.51603 107.829C10.5751 113.107 19.8407 114.42 29.2122 110.764C38.5812 107.106 44.5072 99.8638 42.4481 94.5857Z" fill="#005BC3"/>
<path opacity="0.4" d="M29.2125 110.764C19.8426 114.419 10.5755 113.106 8.51608 107.83C6.96592 103.851 12.2171 100.665 13.1612 103.09C13.4359 103.791 13.9676 104.352 14.7029 104.772C17.0799 106.128 21.5619 105.993 26.1638 104.197C31.2806 102.204 34.8931 98.797 35.1618 95.9998C35.2104 95.502 35.1532 95.0246 34.9786 94.5753C34.7297 93.9404 34.2637 93.4198 33.6315 93.0138C33.6315 92.336 34.195 91.7953 34.8757 91.8181C38.3911 91.9296 41.6717 92.596 42.4496 94.5867C44.506 99.8634 38.5828 107.106 29.2125 110.764Z" fill="white"/>
<path opacity="0.2" d="M35.8225 102.289C35.8225 102.289 36.1599 100.567 35.5394 99.7206C35.5394 99.7206 33.8147 103.284 28.1428 105.999C22.4708 108.716 18.5668 108.041 17.8317 107.586C17.8317 107.586 17.7745 108.601 18.3953 109.282C18.3953 109.282 14.8229 108.204 14.7026 104.772C17.0796 106.128 21.5616 105.993 26.1635 104.197C31.2803 102.203 34.8928 98.7966 35.1615 95.9995C38.6313 97.7674 35.8225 102.289 35.8225 102.289Z" fill="black"/>
<path d="M31.7238 108.828C31.5978 109.615 31.2547 110.727 30.7884 112.009C29.2352 116.262 26.3265 122.32 25.5342 124.056C24.9137 125.423 22.1793 125.743 18.8498 126.33C12.4344 127.459 3.80524 129.158 3.80524 129.158L3.67358 127.122C3.67358 127.122 20.998 121.947 21.2268 120.984C21.5471 119.622 21.6416 113.232 21.7444 107.855C21.7588 107.254 21.7702 106.668 21.7816 106.102C21.8017 105.169 21.8188 104.306 21.8329 103.559C21.8674 101.846 21.8872 100.736 21.8872 100.736L30.8826 93.5542C30.8826 93.5542 33.0568 100.513 31.7238 108.828Z" fill="#E4897B"/>
<path opacity="0.2" d="M30.7884 112.008C29.2352 116.261 26.3265 122.319 25.5342 124.055C24.9137 125.423 22.1793 125.743 18.8498 126.329C12.4344 127.459 3.80524 129.158 3.80524 129.158L3.67358 127.121C3.67358 127.121 20.998 121.947 21.2268 120.983C21.5471 119.622 21.6416 113.232 21.7444 107.855L26.295 105.529L30.7884 112.008Z" fill="black"/>
<path d="M21.3693 92.5908C21.3693 92.5908 17.8827 99.9452 19.1147 106.885C20.3466 113.825 26.5575 118.398 27.5612 120.559C28.565 122.72 35.3831 141.512 35.3831 141.512L36.8955 140.89C36.8955 140.89 32.6885 122.396 31.7781 117.972C31.348 115.882 26.2933 105.53 26.2933 105.53C26.2933 105.53 31.4575 100.01 31.0112 92.6742L21.3693 92.5908Z" fill="#E4897B"/>
<path d="M20.1562 80.9742C20.1562 80.9742 26.4939 79.5779 31.7244 81.6148C31.7244 81.6148 32.0836 87.1398 30.9518 92.7973L21.2694 92.8672C21.2694 92.8672 21.7927 90.2314 19.6431 85.1311L20.1562 80.9742Z" fill="#005BC3"/>
<path d="M27.2403 82.4667C25.0142 81.9185 24.4456 80.8745 24.4456 80.8745C25.4685 80.1107 25.4478 78.8071 25.3036 77.9787C25.2265 77.5208 25.1095 77.208 25.1095 77.208L27.7708 78.0276C27.6484 78.4685 27.5741 78.8427 27.5348 79.1609C27.4892 79.5097 27.4889 79.7889 27.5153 80.0108C27.6071 80.8445 28.0689 80.909 28.0689 80.909C28.4444 81.8558 27.2403 82.4667 27.2403 82.4667Z" fill="#E4897B"/>
<path opacity="0.2" d="M27.5349 79.1609C27.4893 79.5097 27.489 79.7889 27.5154 80.0108C26.452 79.7454 25.7322 78.7879 25.3037 77.9787C25.2266 77.5208 25.1096 77.208 25.1096 77.208L27.7709 78.0276C27.6485 78.4688 27.5742 78.843 27.5349 79.1609Z" fill="black"/>
<path d="M23.6654 70.4521C23.6654 70.4521 23.3064 68.268 25.824 66.6162C28.3417 64.9644 31.2554 66.4635 31.7362 67.7648L23.6654 70.4521Z" fill="#005BC3"/>
<path opacity="0.2" d="M23.6654 70.4521C23.6654 70.4521 23.3064 68.268 25.824 66.6162C28.3417 64.9644 31.2554 66.4635 31.7362 67.7648L23.6654 70.4521Z" fill="black"/>
<path d="M22.8813 74.6509C25.6257 74.6503 28.693 73.798 31.2149 72.7115C33.0079 71.9389 34.6984 70.8413 35.9922 69.3655C37.202 67.9854 38.3605 65.6048 37.348 63.8072C36.3125 61.968 33.45 63.7428 32.3089 64.5021C28.0866 67.3127 23.5606 68.8968 18.2423 70.2547C17.4619 70.4541 15.6413 70.9145 15.8116 72.0517C15.9702 73.1103 17.6841 73.6825 18.5152 73.9614C19.9406 74.4392 21.4098 74.6512 22.8813 74.6509Z" fill="#005BC3"/>
<path opacity="0.2" d="M23.6654 72.2911C22.8716 73.4151 26.9556 73.9885 29.7845 72.2911C32.6134 70.5937 32.9244 69.5189 32.2173 69.0663C31.7209 68.7487 25.8631 69.1794 23.6654 72.2911Z" fill="black"/>
<path d="M28.0779 70.4347C30.4327 70.7928 30.9989 72.1687 30.8025 74.6218C30.5569 77.6871 29.5567 79.7396 26.711 78.644C22.846 77.1563 24.1673 69.84 28.0779 70.4347Z" fill="#E4897B"/>
<path d="M29.3003 74.2578C29.3003 74.2578 29.533 74.9224 29.8368 75.3386C29.8368 75.3386 29.5864 75.6283 29.1755 75.5105L29.3003 74.2578Z" fill="#DE5753"/>
<path d="M27.8881 73.8466C27.8632 74.0407 27.7382 74.1846 27.6086 74.1681C27.4791 74.1516 27.3945 73.9807 27.4194 73.7866C27.4443 73.5926 27.5693 73.4487 27.6989 73.4652C27.8281 73.4816 27.913 73.6523 27.8881 73.8466Z" fill="#263238"/>
<path d="M27.6437 73.4675L28.0872 73.356C28.0872 73.356 27.8314 73.6843 27.6437 73.4675Z" fill="#263238"/>
<path d="M30.3065 74.1157C30.2816 74.3097 30.1565 74.4536 30.027 74.4372C29.8974 74.4207 29.8128 74.2497 29.8377 74.0557C29.8626 73.8617 29.9877 73.7177 30.1172 73.7342C30.2468 73.7507 30.3314 73.9216 30.3065 74.1157Z" fill="#263238"/>
<path d="M30.0621 73.7366L30.5057 73.625C30.5057 73.625 30.2499 73.9534 30.0621 73.7366Z" fill="#263238"/>
<path d="M28.1118 72.2168C28.1118 72.2168 27.4631 72.0303 27.0364 72.4174" stroke="#263238" stroke-width="0.301608" stroke-miterlimit="10" stroke-linecap="round" stroke-linejoin="round"/>
<path d="M29.8386 72.3777C29.8386 72.3777 30.278 72.2869 30.7476 72.7139" stroke="#263238" stroke-width="0.301608" stroke-miterlimit="10" stroke-linecap="round" stroke-linejoin="round"/>
<path d="M28.6718 76.0837C28.4202 76.279 28.0531 76.6994 28.0531 76.6994C28.009 76.673 27.9649 76.6466 27.9223 76.6181C27.3336 76.2454 27.1837 75.878 27.196 75.5835C27.2035 75.4224 27.2614 75.2827 27.3226 75.1774C27.3918 75.0548 27.4692 74.9834 27.4692 74.9834C27.6632 75.3676 28.1854 75.7574 28.4727 75.9539C28.5926 76.0372 28.6718 76.0837 28.6718 76.0837Z" fill="#263238"/>
<path d="M28.4732 75.9536L28.286 76.1305C27.7324 75.7778 27.3899 75.4554 27.3228 75.1774C27.392 75.0548 27.4694 74.9834 27.4694 74.9834C27.6634 75.3673 28.1856 75.7571 28.4732 75.9536Z" fill="white"/>
<path d="M27.9226 76.6176C27.3339 76.2449 27.1839 75.8775 27.1962 75.583C27.3921 75.7177 27.6128 75.9021 27.7678 76.1264C27.8869 76.2977 27.9223 76.4677 27.9226 76.6176Z" fill="#DE5753"/>
<path d="M24.9009 74.0117C24.9009 74.0117 26.296 72.2444 26.3566 70.7254C26.3566 70.7254 31.313 69.5288 30.8229 74.3002C30.8229 74.3002 31.9184 70.1637 27.8848 69.4544C23.8575 68.7461 22.9677 74.6699 24.7899 76.7524C24.7899 76.7524 24.0357 75.118 24.9009 74.0117Z" fill="#263238"/>
<path d="M25.2098 74.5675C25.2518 74.1861 24.9582 73.4849 24.2411 73.4546C23.4992 73.4231 22.9237 74.8686 24.6841 75.5047C24.9366 75.5956 25.1225 75.3635 25.2098 74.5675Z" fill="#E4897B"/>
<path d="M25.7109 68.9539C25.7109 68.9539 27.1501 68.1295 28.2903 68.3154C29.4305 68.5013 29.7289 69.2181 29.7289 69.2181C29.7289 69.2181 30.3359 68.8408 31.1279 69.2181C31.92 69.5954 32.7876 71.1224 32.6742 73.0744C32.5611 75.0265 30.9585 75.2529 30.9585 75.2529C30.9585 75.2529 32.1467 72.0395 29.5064 71.0061C29.5064 71.0061 28.5539 70.3874 27.8986 71.1416C27.2434 71.8959 27.3142 74.1751 25.1099 73.356C22.9054 72.537 24.2972 69.8305 25.7109 68.9539Z" fill="#263238"/>
<path d="M24.4456 73.3561L26.8753 72.6486C26.8753 72.6486 27.9714 72.5419 29.0322 72.9953C29.0322 72.9953 29.3716 72.974 29.5483 73.0745C29.5483 73.0745 30.4606 72.974 31.2022 73.3063V73.5417L31.0918 73.6551C31.0918 73.6551 30.998 74.6468 30.63 74.7512C30.439 74.8055 30.0359 74.7584 29.8377 74.5509C29.512 74.2099 29.4088 73.4638 29.4088 73.4638C29.4088 73.4638 29.3486 73.3147 29.0457 73.4488C29.0457 73.4488 28.9326 74.5368 27.9942 74.4885C26.8051 74.4273 26.9683 73.1555 26.9683 73.1555L26.7904 73.0745L24.6564 73.4638L24.4456 73.3561Z" fill="#263238"/>
<path d="M26.2936 105.53C26.2936 105.53 23.3372 100.041 18.8511 100.946C18.8511 100.946 18.8511 96.7218 21.2691 92.8672L30.9516 92.7974C30.9516 92.7974 32.1917 97.324 32.1566 101.097L26.2936 105.53Z" fill="#005BC3"/>
<path d="M42.8566 88.7403C42.8566 88.7403 44.1383 87.047 43.6291 84.671C43.1199 82.2949 40.9418 82.2382 39.3859 83.9356C37.6123 85.8705 38.8767 88.5747 38.6506 89.58C38.4424 90.5048 36.5528 90.1021 36.2514 90.0316C32.3051 89.1067 27.0461 89.5854 21.7523 91.6504C12.3836 95.3092 6.45761 102.551 8.5167 107.829C9.3864 110.058 11.5414 111.579 14.4471 112.318C17.4623 113.084 16.9033 110.192 15.9871 107.839C14.8295 104.876 18.7743 100.568 24.8008 98.217C30.8248 95.8667 36.6454 96.3612 37.8027 99.3245C38.4304 100.936 38.9915 104.669 40.1686 103.216C41.9461 101.022 42.919 98.7178 42.8518 96.5936C44.728 93.8907 42.8566 88.7403 42.8566 88.7403Z" fill="#005BC3"/>
<path opacity="0.4" d="M42.8529 96.5915C42.9186 98.7165 41.946 101.022 40.17 103.216C38.9917 104.669 38.4309 100.936 37.8017 99.3232C36.6462 96.36 30.8255 95.8651 24.7991 98.2163C18.7727 100.567 14.8285 104.875 15.9867 107.838C16.902 110.192 17.4625 113.084 14.4479 112.317C11.5419 111.579 9.38537 110.058 8.51567 107.83C6.45629 102.55 12.3828 95.3076 21.7528 91.6495C27.0442 89.5844 32.304 89.1067 36.2513 90.0306C36.5515 90.102 38.442 90.5054 38.651 89.5787C38.8768 88.5747 37.6128 85.8717 39.3861 83.9356C40.9419 82.2393 43.1186 82.2936 43.6278 84.6706C43.9052 85.9635 43.6506 87.056 43.3645 87.7796C43.1213 88.3887 42.8553 88.7405 42.8553 88.7405C42.8553 88.7405 44.729 93.8912 42.8529 96.5915Z" fill="white"/>
<path d="M42.3909 83.5238C42.3909 83.5238 44.3471 83.0385 44.8116 82.7575C45.2762 82.4765 45.2384 84.828 43.448 85.6839C43.448 85.6839 43.149 85.292 42.171 85.5331C41.1928 85.7742 41.3883 83.9682 42.3909 83.5238Z" fill="#005BC3"/>
<path opacity="0.2" d="M42.8531 96.5917C40.0082 97.6834 38.3855 94.458 38.3855 94.458C38.3855 94.458 39.6529 96.3794 41.5302 95.2506C43.5356 94.0444 42.6101 89.0263 42.6101 89.0263C42.6101 89.0263 42.0466 89.358 41.2915 88.7402C40.6137 88.1854 42.1954 87.4617 43.3653 87.7793C43.1221 88.3884 42.856 88.7402 42.856 88.7402C42.856 88.7402 44.7292 93.8915 42.8531 96.5917Z" fill="black"/>
<path d="M40.5547 84.223C40.5439 84.3942 40.4323 84.5265 40.3052 84.5184C40.178 84.5106 40.0836 84.3654 40.0943 84.1942C40.1051 84.0229 40.2167 83.8907 40.3439 83.8988C40.471 83.9069 40.5655 84.052 40.5547 84.223Z" fill="#263238"/>
<path d="M4.72206 126.723C4.92869 126.751 4.47975 129.277 4.47975 129.277C4.47975 129.277 2.71156 130.662 2.18255 132.142C1.65353 133.622 0.836912 132.67 1.02855 130.971C1.21988 129.272 1.36593 127.975 1.50208 126.768C1.63793 125.56 2.58141 126.431 4.72206 126.723Z" fill="#263238"/>
<path d="M4.11903 129.524C4.12383 129.516 4.13013 129.509 4.13703 129.504C4.14303 129.5 4.14993 129.497 4.15712 129.495C4.16402 129.493 4.17152 129.492 4.17871 129.492H4.17901C4.18861 129.493 4.19791 129.495 4.206 129.499C4.23509 129.514 4.8001 129.793 4.90416 130.153C4.93745 130.267 4.92126 130.378 4.85798 130.481C4.7899 130.591 4.71163 130.639 4.62526 130.624C4.4924 130.601 4.37875 130.405 4.29148 130.186C4.28788 130.403 4.25729 130.623 4.16492 130.749C4.11574 130.816 4.05246 130.855 3.97749 130.866C3.82244 130.887 3.74806 130.827 3.71327 130.774C3.67579 130.716 3.66709 130.635 3.67759 130.542C3.71778 130.186 4.04016 129.65 4.11903 129.524ZM4.13553 129.761C3.9343 130.119 3.74176 130.568 3.82693 130.7C3.83443 130.711 3.85692 130.746 3.95949 130.732C3.99757 130.726 4.02937 130.706 4.05666 130.669C4.10494 130.603 4.13223 130.497 4.14603 130.375C4.16792 130.179 4.15472 129.941 4.13553 129.761ZM4.77461 130.19C4.71433 129.981 4.44262 129.792 4.27708 129.692C4.37784 130.085 4.53469 130.471 4.64835 130.491C4.68374 130.497 4.72332 130.442 4.74342 130.409C4.76651 130.372 4.7803 130.334 4.7848 130.295C4.7887 130.261 4.7851 130.227 4.77461 130.19Z" fill="#005BC3"/>
<path d="M34.6763 140.865C34.5989 140.671 37.0178 139.817 37.0178 139.817C37.0178 139.817 39.0949 140.673 40.6436 140.404C42.1923 140.135 41.7658 141.315 40.1928 141.986C38.6199 142.656 37.4197 143.168 36.302 143.645C35.1846 144.121 35.477 142.872 34.6763 140.865Z" fill="#263238"/>
<path d="M37.4108 140.009C37.4015 140.009 37.3928 140.007 37.385 140.003L37.3847 140.003C37.3781 140 37.3721 139.996 37.3667 139.99L37.3664 139.99C37.3613 139.985 37.3568 139.979 37.3535 139.973L37.3532 139.972V139.972C37.349 139.963 37.3466 139.954 37.346 139.945C37.3439 139.913 37.3091 139.283 37.5706 139.016C37.654 138.93 37.7581 138.89 37.8786 138.894C38.0076 138.899 38.0883 138.943 38.118 139.026C38.1635 139.153 38.0487 139.348 37.9008 139.532C38.0916 139.429 38.2979 139.347 38.4535 139.365C38.536 139.375 38.6014 139.411 38.6473 139.471C38.7423 139.595 38.727 139.689 38.6973 139.746C38.6656 139.807 38.5996 139.855 38.5138 139.891C38.1848 140.032 37.5595 140.015 37.4108 140.009ZM37.6093 139.878C38.0193 139.877 38.5057 139.823 38.578 139.684C38.5843 139.672 38.6035 139.635 38.5405 139.553C38.5171 139.523 38.4835 139.505 38.4379 139.5C38.357 139.49 38.2514 139.519 38.1383 139.567C37.9569 139.644 37.7566 139.773 37.6093 139.878ZM37.6675 139.11C37.5155 139.266 37.4843 139.596 37.4798 139.789C37.7719 139.507 38.0304 139.181 37.9914 139.073C37.9794 139.039 37.9125 139.031 37.8738 139.03C37.83 139.028 37.7902 139.035 37.7545 139.05C37.7227 139.063 37.6939 139.083 37.6675 139.11Z" fill="#005BC3"/>
<path d="M25.5442 81.3708C25.5442 81.3708 25.54 85.7889 21.8549 88.4547C18.1701 91.1205 13.1912 91.1247 12.1728 93.2725C12.1728 93.2725 12.1161 90.4655 12.9084 88.0774C13.7004 85.6893 19.6429 83.6474 19.6429 83.6474L20.1563 80.9738C20.1563 80.9738 23.5268 79.5415 25.5442 81.3708Z" fill="#005BC3"/>
<path d="M28.4733 80.9181C28.4733 80.9181 30.7063 86.3471 32.2175 87.2912C33.7286 88.2353 34.8035 88.0775 34.8035 88.0775C34.8035 88.0775 33.851 83.8196 31.7247 81.6145C31.7247 81.6145 29.3847 80.2205 28.4733 80.9181Z" fill="#005BC3"/>
<path opacity="0.7" d="M25.5454 81.3703C25.5454 81.3703 25.5397 85.7893 21.8557 88.4551C18.1688 91.1208 13.192 91.1265 12.1739 93.2717C12.1739 93.2717 12.1166 90.4659 12.9089 88.0775C13.1177 87.4453 13.6869 86.8362 14.4135 86.2841C15.2802 85.6264 16.3727 85.0428 17.3309 84.5966C18.601 84.0073 19.6419 83.6471 19.6419 83.6471L20.1568 80.9757C20.1568 80.9757 23.5259 79.5427 25.5454 81.3703Z" fill="white"/>
<path opacity="0.7" d="M28.4733 80.9181C28.4733 80.9181 30.7063 86.3471 32.2175 87.2912C33.7286 88.2353 34.8035 88.0775 34.8035 88.0775C34.8035 88.0775 33.851 83.8196 31.7247 81.6145C31.7247 81.6145 29.3847 80.2205 28.4733 80.9181Z" fill="white"/>
<path d="M23.9586 79.8369L25.5442 81.3706L23.9586 83.2185L22.96 80.3521L23.9586 79.8369Z" fill="#005BC3"/>
<path opacity="0.5" d="M23.9586 79.8369L25.5442 81.3706L23.9586 83.2185L22.96 80.3521L23.9586 79.8369Z" fill="white"/>
<path d="M28.3215 80.0107L29.5061 80.5074L30.7477 82.1631L28.4733 80.9182L28.3215 80.0107Z" fill="#005BC3"/>
<path opacity="0.5" d="M28.3215 80.0107L29.5061 80.5074L30.7477 82.1631L28.4733 80.9182L28.3215 80.0107Z" fill="white"/>
<path opacity="0.2" d="M19.1642 85.3228C19.1642 85.3228 16.9275 87.348 14.4132 86.2837C15.2799 85.626 16.3724 85.0424 17.3306 84.5962C18.2459 84.7221 18.9953 84.9654 19.1642 85.3228Z" fill="black"/>
<path d="M20.7084 80.7803C20.7084 80.7803 20.7084 83.2184 19.1651 85.3228L14.9408 85.4485L14.9597 81.5279L20.7084 80.7803Z" fill="#005BC3"/>
<path opacity="0.5" d="M20.7084 80.7803C20.7084 80.7803 20.7084 83.2184 19.1651 85.3228L14.9408 85.4485L14.9597 81.5279L20.7084 80.7803Z" fill="white"/>
</g>
<rect x="0.744521" y="0.744521" width="373.511" height="143.511" rx="10.2555" stroke="url(#paint0_linear_836_2628)" stroke-opacity="0.08" stroke-width="0.510959"/>
<defs>
<linearGradient id="paint0_linear_836_2628" x1="47.195" y1="20.571" x2="387.35" y2="83.6903" gradientUnits="userSpaceOnUse">
<stop stop-color="#003F88"/>
<stop offset="0.64989" stop-color="#02D4FF"/>
<stop offset="1" stop-color="#0076FF"/>
</linearGradient>
<clipPath id="clip0_836_2628">
<rect x="1" y="1" width="373" height="143" rx="10" fill="white"/>
</clipPath>
<clipPath id="clip1_836_2628">
<rect width="440" height="137" fill="white" transform="translate(-29 7)"/>
</clipPath>
</defs>
</svg>
