<svg width="30" height="30" viewBox="0 0 30 30" fill="none" xmlns="http://www.w3.org/2000/svg">
<rect width="29.3529" height="29.3529" rx="14.6765" fill="#12ABD7" fill-opacity="0.1"/>
<g clip-path="url(#clip0_676_5627)">
<path fill-rule="evenodd" clip-rule="evenodd" d="M9.46454 10.4346C7.49237 11.6432 6.17664 13.8185 6.17664 16.301C6.17664 20.0982 9.25489 23.1765 13.0521 23.1765C16.8493 23.1765 19.9275 20.0982 19.9275 16.301C19.9275 15.4037 19.7557 14.5465 19.443 13.7606L19.1749 13.6733C19.155 13.7673 19.1283 13.8599 19.0949 13.9506C18.9766 14.2718 18.7777 14.5573 18.5173 14.7797C18.2571 15.002 17.944 15.1538 17.6082 15.2205C17.2735 15.287 16.9273 15.2666 16.6028 15.1615L16.5996 15.1604L15.0726 14.6687C14.7567 14.5684 14.4709 14.3905 14.2413 14.1513C14.0148 13.9153 13.8501 13.6271 13.7618 13.3124L13.3499 11.9003L10.4198 10.9573C10.1135 10.8718 9.82702 10.7264 9.57707 10.5291C9.53855 10.4987 9.50103 10.4672 9.46454 10.4346Z" fill="#12ABD7" fill-opacity="0.3"/>
<path fill-rule="evenodd" clip-rule="evenodd" d="M9.46446 10.4346C7.49227 11.6432 6.17651 13.8185 6.17651 16.301C6.17651 16.8846 6.24922 17.4512 6.38607 17.9923H8.60249H10.2662C10.4829 17.9923 10.6974 17.9496 10.8976 17.8667C11.0978 17.7837 11.2797 17.6622 11.433 17.509C11.5862 17.3558 11.7077 17.1739 11.7906 16.9737C11.8736 16.7735 11.9162 16.5589 11.9162 16.3422V14.9785C11.9089 14.7573 11.9462 14.5369 12.0258 14.3303C12.1055 14.1238 12.2259 13.9354 12.3798 13.7763C12.5338 13.6173 12.7182 13.4909 12.922 13.4045C13.1258 13.3182 13.3449 13.2738 13.5663 13.2739C13.6272 13.2739 13.6877 13.2706 13.7476 13.2639L13.3499 11.9003L10.4198 10.9573C10.1135 10.8718 9.82697 10.7264 9.57702 10.5291C9.53849 10.4987 9.50096 10.4672 9.46446 10.4346ZM19.5794 18.4666L18.4294 17.6234C17.9641 17.3829 17.4491 17.2542 16.9254 17.2474H14.9379C14.5307 17.2844 14.1521 17.4722 13.8764 17.7741C13.6006 18.076 13.4478 18.4702 13.4478 18.879C13.4478 19.2879 13.6006 19.6819 13.8764 19.9838C14.1521 20.2856 14.5307 20.4736 14.9379 20.5105C15.0907 20.5088 15.2423 20.5374 15.384 20.5946C15.5257 20.6519 15.6545 20.7366 15.7632 20.844C15.8719 20.9514 15.9582 21.0794 16.017 21.2204C16.0759 21.3614 16.1062 21.5127 16.1062 21.6654V22.4626C17.7363 21.6529 18.9995 20.2156 19.5794 18.4666Z" fill="#12ABD7"/>
<path d="M22.8995 8.03039L21.5982 7.58795C21.5068 7.55688 21.4076 7.5566 21.316 7.58714C21.2244 7.61769 21.1452 7.67738 21.0907 7.75711L20.1407 9.22759L14.9356 6.62499C14.5242 6.38254 14.0643 6.23401 13.5888 6.19004C13.1133 6.14606 12.634 6.20773 12.1851 6.37061C11.7363 6.5335 11.3289 6.79359 10.9923 7.13226C10.6557 7.47094 10.3981 7.87983 10.2379 8.32968C10.1937 8.44639 10.1748 8.57111 10.1822 8.69566C10.1897 8.82021 10.2234 8.94177 10.2812 9.05237C10.3389 9.16296 10.4194 9.26009 10.5174 9.3374C10.6153 9.41468 10.7285 9.4704 10.8495 9.50085L14.2459 10.594L14.5842 10.7111L15.2219 12.8972C15.2423 12.9734 15.2817 13.0431 15.3363 13.1C15.3909 13.1568 15.4589 13.199 15.5342 13.2226L17.0697 13.7171C17.1481 13.7426 17.2317 13.7476 17.3126 13.7315C17.3935 13.7155 17.4689 13.6789 17.5316 13.6254C17.5942 13.5718 17.6421 13.5031 17.6706 13.4257C17.6991 13.3483 17.7073 13.265 17.6943 13.1835L17.356 11.5569H17.5772L20.8955 12.637C21.113 12.7119 21.3513 12.6979 21.5584 12.598C21.7656 12.4981 21.9249 12.3203 22.0016 12.1035L23.1728 8.49886C23.1857 8.40152 23.1659 8.30265 23.1163 8.21784C23.0669 8.13303 22.9905 8.06708 22.8995 8.03039Z" fill="#12ABD7"/>
</g>
<defs>
<clipPath id="clip0_676_5627">
<rect width="17" height="17" fill="white" transform="translate(6.17651 6.17627)"/>
</clipPath>
</defs>
</svg>
