<svg width="128" height="114" viewBox="0 0 128 114" fill="none" xmlns="http://www.w3.org/2000/svg">
<path d="M65.0041 110.919C93.3041 110.919 116.304 87.8191 116.304 59.3191C116.304 30.8191 93.3041 7.61914 65.0041 7.61914C36.7041 7.61914 13.7041 30.7191 13.7041 59.2191C13.7041 87.7191 36.7041 110.919 65.0041 110.919Z" fill="#EAEEF9"/>
<path d="M102.804 16.3193L121.104 44.4193L121.404 44.7193L65.6045 113.419L10.1045 44.7193L10.6045 44.4193L28.6045 16.3193H102.804Z" fill="white"/>
<path d="M84.8045 44.4193L65.6045 113.419L47.6045 44.4193L65.6045 16.3193L84.8045 44.4193Z" fill="#E7EAF4"/>
<path d="M121.304 44.7193L65.6045 113.419L84.8045 44.4193L102.804 16.3193L121.304 44.7193Z" fill="#DBDFEC"/>
<path d="M10.6045 44.4193L28.6045 16.3193L47.6045 44.4193H10.6045Z" fill="#F1F3FA"/>
<path d="M42.7042 37.3187L47.6042 35.8187C48.0042 35.7187 48.0042 35.2187 47.6042 35.1187L42.7042 33.6187C42.6042 33.6187 42.5042 33.5187 42.4042 33.3187L41.0042 28.5188C40.9042 28.1188 40.4042 28.1188 40.3042 28.5188L38.8042 33.4187C38.8042 33.5187 38.7042 33.6188 38.5042 33.7188L33.6042 35.2188C33.2042 35.3188 33.2042 35.8187 33.6042 35.9187L38.5042 37.4187C38.6042 37.4187 38.7042 37.5188 38.8042 37.7188L40.3042 42.6187C40.4042 43.0187 40.9042 43.0187 41.0042 42.6187L42.5042 37.7188C42.5042 37.4188 42.6042 37.3187 42.7042 37.3187Z" fill="#AAB2C5"/>
<path d="M8.10405 55.919L11.5041 53.119C11.7041 52.919 11.6041 52.519 11.3041 52.519L6.90405 52.919C6.80405 52.919 6.70405 52.919 6.60405 52.819L3.80405 49.419C3.60405 49.219 3.20405 49.319 3.20405 49.619L3.60405 54.019C3.60405 54.119 3.60405 54.219 3.50405 54.319L0.104052 57.119C-0.0959482 57.319 0.00405183 57.719 0.304052 57.719L4.70405 57.319C4.80405 57.319 4.90405 57.319 5.00405 57.419L7.80405 60.819C8.00405 61.019 8.40405 60.919 8.40405 60.619L8.00405 56.219C7.90405 56.119 8.00405 56.019 8.10405 55.919Z" fill="#AAB2C5"/>
<path d="M41.6042 5.71899L43.9042 3.91899C44.1042 3.81899 44.0042 3.51899 43.7042 3.51899L40.8042 3.81899C40.7042 3.81899 40.7042 3.81899 40.6042 3.71899L38.8042 1.41899C38.7042 1.21899 38.4042 1.31899 38.4042 1.61899L38.7042 4.51899C38.7042 4.61899 38.7042 4.61899 38.6042 4.71899L36.3042 6.51899C36.1042 6.61899 36.2042 6.91899 36.5042 6.91899L39.4042 6.61899C39.5042 6.61899 39.5042 6.61899 39.6042 6.71899L41.4042 9.01899C41.5042 9.21899 41.8042 9.11899 41.8042 8.81899L41.5042 5.91899C41.5042 5.81899 41.5042 5.71899 41.6042 5.71899Z" fill="#AAB2C5"/>
<path d="M116.304 94.5192L120.304 96.6193C120.604 96.8193 120.904 96.4193 120.704 96.1193L118.504 92.1193C118.404 92.0193 118.404 91.9193 118.504 91.8193L120.604 87.8193C120.804 87.5193 120.404 87.2192 120.104 87.4192L116.104 89.6193C116.004 89.7193 115.904 89.7193 115.804 89.6193L111.804 87.5192C111.504 87.3192 111.204 87.7192 111.404 88.0192L113.604 92.0192C113.704 92.1192 113.704 92.2193 113.604 92.3193L111.504 96.3193C111.304 96.6193 111.704 96.9193 112.004 96.7193L116.004 94.5192C116.104 94.5192 116.204 94.5192 116.304 94.5192Z" fill="#AAB2C5"/>
<path d="M32.5038 88.8191L35.6038 90.4191C35.8038 90.5191 36.1038 90.3191 35.9038 90.1191L34.2038 87.1191C34.2038 87.0191 34.2038 86.9191 34.2038 86.9191L35.8038 83.8191C35.9038 83.6191 35.7038 83.3191 35.5038 83.5191L32.5038 85.2191C32.4038 85.2191 32.3038 85.2191 32.3038 85.2191L29.2038 83.6191C29.0038 83.5191 28.7038 83.7191 28.9038 83.9191L30.6038 86.9191C30.6038 87.0191 30.6038 87.1191 30.6038 87.1191L29.0038 90.2191C28.9038 90.4191 29.1038 90.7191 29.3038 90.5191L32.3038 88.8191C32.4038 88.8191 32.5038 88.8191 32.5038 88.8191Z" fill="#AAB2C5"/>
<path d="M30.4042 111.319L33.4042 112.819C33.6042 112.919 33.9042 112.719 33.7042 112.519L32.0042 109.619C32.0042 109.519 32.0042 109.419 32.0042 109.419L33.5042 106.419C33.6042 106.219 33.4042 105.919 33.2042 106.119L30.3042 107.719C30.2042 107.719 30.1042 107.719 30.1042 107.719L27.1042 106.219C26.9042 106.119 26.6042 106.319 26.8042 106.519L28.5042 109.419C28.5042 109.519 28.5042 109.619 28.5042 109.619L27.0042 112.619C26.9042 112.819 27.1042 113.119 27.3042 112.919L30.2042 111.219C30.3042 111.319 30.4042 111.319 30.4042 111.319Z" fill="#AAB2C5"/>
<path d="M87.3043 6.11918L90.3043 7.61918C90.5043 7.71918 90.7043 7.51918 90.6043 7.31918L89.0043 4.41918C89.0043 4.31918 89.0043 4.21918 89.0043 4.21918L90.5043 1.31918C90.6043 1.11918 90.4043 0.919177 90.2043 1.01918L87.3043 2.61918C87.2043 2.61918 87.1043 2.61918 87.1043 2.61918L84.0043 0.919177C83.8043 0.819177 83.6043 1.01918 83.7043 1.21918L85.3043 4.11918C85.3043 4.21918 85.3043 4.31918 85.3043 4.31918L83.8043 7.31918C83.7043 7.51918 83.9043 7.71918 84.1043 7.61918L87.0043 6.11918C87.1043 6.01918 87.2043 6.01918 87.3043 6.11918Z" fill="#AAB2C5"/>
<path d="M121.304 44.7193L84.8042 44.4193L102.804 16.3193L121.304 44.7193Z" fill="#F1F3FA"/>
<path d="M84.8045 44.4193H47.6045L65.6045 16.3193L84.8045 44.4193Z" fill="#F1F3FA"/>
<path d="M68.5041 18.2193L74.1041 16.5193C74.5041 16.4193 74.5041 15.8193 74.1041 15.7193L68.5041 14.0193C68.4041 14.0193 68.2041 13.9193 68.2041 13.7193L66.5041 8.11934C66.4041 7.71934 65.8041 7.71934 65.7041 8.11934L64.0041 13.7193C64.0041 13.8193 63.9041 14.0193 63.7041 14.0193L58.0041 15.7193C57.6041 15.8193 57.6041 16.4193 58.0041 16.5193L63.6041 18.2193C63.7041 18.2193 63.9041 18.3193 63.9041 18.5193L65.6041 24.1193C65.7041 24.5193 66.3041 24.5193 66.4041 24.1193L68.1041 18.5193C68.2041 18.4193 68.3041 18.3193 68.5041 18.2193Z" fill="#AAB2C5"/>
<path d="M123.004 45.5191L127.404 44.2191C127.704 44.1191 127.704 43.6191 127.404 43.6191L123.004 42.3191C122.904 42.3191 122.804 42.2191 122.804 42.1191L121.504 37.7191C121.404 37.4191 120.904 37.4191 120.904 37.7191L119.604 42.1191C119.604 42.2191 119.504 42.3191 119.404 42.3191L115.004 43.6191C114.704 43.7191 114.704 44.2191 115.004 44.2191L119.404 45.5191C119.504 45.5191 119.604 45.6191 119.604 45.7191L120.904 50.1191C121.004 50.4191 121.504 50.4191 121.504 50.1191L122.804 45.7191C122.804 45.6191 122.904 45.5191 123.004 45.5191Z" fill="#AAB2C5"/>
</svg>
