<svg width="203" height="153" viewBox="0 0 203 153" fill="none" xmlns="http://www.w3.org/2000/svg">
<path d="M100.119 123.983C132.441 123.983 158.644 97.7789 158.644 65.3419C158.644 32.9048 132.325 6.70117 100.119 6.70117C67.7974 6.70117 41.5938 32.9048 41.5938 65.3419C41.5938 97.7789 67.7974 123.983 100.119 123.983Z" fill="#EAEEF9"/>
<path d="M166.074 46.7623C168.687 46.7623 170.806 44.6433 170.806 42.0294C170.806 39.4156 168.687 37.2966 166.074 37.2966C163.46 37.2966 161.341 39.4156 161.341 42.0294C161.341 44.6433 163.46 46.7623 166.074 46.7623Z" fill="#F1F3F9"/>
<path d="M173 28.2929C174.785 28.2929 176.232 26.8459 176.232 25.0608C176.232 23.2757 174.785 21.8286 173 21.8286C171.215 21.8286 169.768 23.2757 169.768 25.0608C169.768 26.8459 171.215 28.2929 173 28.2929Z" fill="#EAEEF9"/>
<path d="M44.2488 26.9021C46.0338 26.9021 47.4809 25.455 47.4809 23.6699C47.4809 21.8848 46.0338 20.4377 44.2488 20.4377C42.4637 20.4377 41.0166 21.8848 41.0166 23.6699C41.0166 25.455 42.4637 26.9021 44.2488 26.9021Z" fill="#EAEEF9"/>
<path d="M24.5094 89.2369C27.8246 89.2369 30.512 86.5494 30.512 83.2343C30.512 79.9191 27.8246 77.2317 24.5094 77.2317C21.1943 77.2317 18.5068 79.9191 18.5068 83.2343C18.5068 86.5494 21.1943 89.2369 24.5094 89.2369Z" fill="#EAEEF9"/>
<g filter="url(#filter0_d_656_12776)">
<path d="M84.0655 96.6397L37.6757 106.156C36.9976 106.262 36.3755 105.909 36.2703 105.231L22.1237 35.9822C22.0185 35.304 22.3709 34.682 23.049 34.5768L69.4388 25.0601C70.1169 24.9549 70.739 25.3073 70.8442 25.9854L85.0665 95.2311C85.1684 95.8335 84.7436 96.5345 84.0655 96.6397Z" fill="url(#paint0_linear_656_12776)"/>
</g>
<path d="M34.8894 69.3678L53.0407 65.6381" stroke="#D5DDEA" stroke-width="2" stroke-miterlimit="10" stroke-linecap="round" stroke-linejoin="round"/>
<path d="M58.4513 64.5421L62.4374 63.7233" stroke="#D5DDEA" stroke-width="2" stroke-miterlimit="10" stroke-linecap="round" stroke-linejoin="round"/>
<path d="M67.2779 62.724L71.2641 61.9052" stroke="#D5DDEA" stroke-width="2" stroke-miterlimit="10" stroke-linecap="round" stroke-linejoin="round"/>
<path d="M35.8918 74.2795L54.0431 70.5497" stroke="#D5DDEA" stroke-width="2" stroke-miterlimit="10" stroke-linecap="round" stroke-linejoin="round"/>
<path d="M59.4511 69.382L63.4404 68.6349" stroke="#D5DDEA" stroke-width="2" stroke-miterlimit="10" stroke-linecap="round" stroke-linejoin="round"/>
<path d="M68.2086 67.6388L72.1948 66.82" stroke="#D5DDEA" stroke-width="2" stroke-miterlimit="10" stroke-linecap="round" stroke-linejoin="round"/>
<path d="M36.8913 79.1198L55.0427 75.3901" stroke="#D5DDEA" stroke-width="2" stroke-miterlimit="10" stroke-linecap="round" stroke-linejoin="round"/>
<path d="M60.4532 74.2941L64.4394 73.4752" stroke="#D5DDEA" stroke-width="2" stroke-miterlimit="10" stroke-linecap="round" stroke-linejoin="round"/>
<path d="M69.2076 72.4789L73.1938 71.6601" stroke="#D5DDEA" stroke-width="2" stroke-miterlimit="10" stroke-linecap="round" stroke-linejoin="round"/>
<path d="M37.8907 83.9597L56.0451 80.3017" stroke="#D5DDEA" stroke-width="2" stroke-miterlimit="10" stroke-linecap="round" stroke-linejoin="round"/>
<path d="M40.7086 97.6263L45.8324 96.5428" stroke="#D5DDEA" stroke-width="2" stroke-miterlimit="10" stroke-linecap="round" stroke-linejoin="round"/>
<path d="M39.9795 94.0672L49.0926 92.2366" stroke="#D5DDEA" stroke-width="2" stroke-miterlimit="10" stroke-linecap="round" stroke-linejoin="round"/>
<path d="M67.9795 90.5576L77.0209 88.7302" stroke="#D5DDEA" stroke-width="2" stroke-miterlimit="10" stroke-linecap="round" stroke-linejoin="round"/>
<path d="M61.4527 79.1341L65.4389 78.3153" stroke="#D5DDEA" stroke-width="2" stroke-miterlimit="10" stroke-linecap="round" stroke-linejoin="round"/>
<path d="M70.2105 77.391L74.1967 76.5722" stroke="#D5DDEA" stroke-width="2" stroke-miterlimit="10" stroke-linecap="round" stroke-linejoin="round"/>
<path d="M41.0229 43.0263C39.4601 43.3549 38.3699 44.6893 38.1897 46.3158C38.1342 46.6728 38.3913 46.9641 38.7317 47.0306C39.0721 47.0972 39.3429 46.833 39.3984 46.476C39.5023 45.4181 40.287 44.4934 41.2872 44.283C42.2874 44.0727 43.3641 44.537 43.8992 45.5295C44.0938 45.834 44.4481 45.9667 44.7328 45.7687C45.0176 45.5707 45.1356 45.2005 44.941 44.8961C44.1071 43.4138 42.5857 42.6976 41.0229 43.0263Z" fill="#989FB0"/>
<path d="M55.3652 40.0102C53.8024 40.3388 52.7122 41.6732 52.532 43.2997C52.4765 43.6567 52.7336 43.948 53.074 44.0145C53.4144 44.0811 53.6852 43.8169 53.7407 43.4599C53.8446 42.402 54.6293 41.4772 55.6295 41.2669C56.6296 41.0566 57.7064 41.5208 58.2415 42.5134C58.4361 42.8179 58.7904 42.9506 59.0751 42.7526C59.3599 42.5545 59.4779 42.1844 59.2833 41.8799C58.4494 40.3976 56.928 39.6815 55.3652 40.0102Z" fill="#989FB0"/>
<path d="M45.8384 48.4505L46.7418 48.2535C47.87 49.7546 50.0217 49.9405 51.4382 48.7579C52.003 48.3436 52.4377 47.6663 52.5792 46.9803L53.4827 46.7832C53.1881 49.1043 50.9289 50.7618 48.6622 50.3826C47.5983 50.1779 46.5131 49.541 45.8384 48.4505Z" fill="#989FB0"/>
<circle opacity="0.4" cx="60.3774" cy="48.5842" r="2.44265" transform="rotate(-11.8756 60.3774 48.5842)" fill="#D5DDEA"/>
<circle opacity="0.4" cx="39.8881" cy="52.8926" r="2.44265" transform="rotate(-11.8756 39.8881 52.8926)" fill="#D5DDEA"/>
<g filter="url(#filter1_d_656_12776)">
<path d="M128.239 116.297L77.0595 119.294C76.3211 119.371 75.7513 118.793 75.6746 118.054L71.217 41.7769C71.1403 41.0385 71.7183 40.4687 72.4567 40.392L123.636 37.3953C124.375 37.3186 124.945 37.8965 125.021 38.6349L129.479 114.912C129.474 115.65 128.978 116.221 128.239 116.297Z" fill="url(#paint1_linear_656_12776)"/>
</g>
<path d="M93.6531 81.4089L118.232 79.9741" stroke="#D5DDEA" stroke-width="2" stroke-miterlimit="10" stroke-linecap="round" stroke-linejoin="round"/>
<path d="M93.405 76.9272L117.914 75.4919" stroke="#D5DDEA" stroke-width="2" stroke-miterlimit="10" stroke-linecap="round" stroke-linejoin="round"/>
<path d="M93.9011 85.8906L118.48 84.4558" stroke="#D5DDEA" stroke-width="2" stroke-miterlimit="10" stroke-linecap="round" stroke-linejoin="round"/>
<path d="M82.6652 90.9901L118.729 88.8672" stroke="#D5DDEA" stroke-width="2" stroke-miterlimit="10" stroke-linecap="round" stroke-linejoin="round"/>
<path d="M82.9134 95.4716L103.531 94.2189" stroke="#D5DDEA" stroke-width="2" stroke-miterlimit="10" stroke-linecap="round" stroke-linejoin="round"/>
<path d="M83.8002 110.447L88.9122 110.134" stroke="#D5DDEA" stroke-width="2" stroke-miterlimit="10" stroke-linecap="round" stroke-linejoin="round"/>
<path d="M83.6156 106.946L92.6492 106.381" stroke="#D5DDEA" stroke-width="2" stroke-miterlimit="10" stroke-linecap="round" stroke-linejoin="round"/>
<path d="M110.716 105.319L119.679 104.823" stroke="#D5DDEA" stroke-width="2" stroke-miterlimit="10" stroke-linecap="round" stroke-linejoin="round"/>
<path d="M90.1919 86.8432C90.1219 86.8426 90.0518 86.842 90.0522 86.7721L88.8767 84.245L84.4608 84.4885L83.6035 87.1388C83.6031 87.2087 83.5326 87.278 83.4625 87.2775L82.5512 87.3399C82.4812 87.3393 82.4111 87.3388 82.4115 87.2688C82.3419 87.1983 82.3419 87.1983 82.4124 87.129L85.5546 77.5746C85.555 77.5047 85.6255 77.4353 85.6956 77.4359L86.9572 77.3763C87.0273 77.3769 87.0973 77.3775 87.0969 77.4474L91.3848 86.5733C91.3844 86.6432 91.3839 86.7131 91.3839 86.7131C91.3835 86.783 91.3134 86.7825 91.2434 86.7819L90.1919 86.8432ZM84.7484 83.3021L88.3231 83.1217L86.2492 78.5593L84.7484 83.3021Z" fill="#D5DDEA"/>
<path d="M107.416 54.3897C108.49 54.3212 109.351 53.3419 109.283 52.2679C109.214 51.1939 108.235 50.3322 107.161 50.4007C106.087 50.4693 105.225 51.4486 105.294 52.5226C105.367 53.6733 106.265 54.4632 107.416 54.3897Z" fill="#989FB0"/>
<path d="M91.903 55.4042C92.977 55.3356 93.8388 54.3563 93.7702 53.2823C93.7016 52.2083 92.7223 51.3466 91.6483 51.4151C90.5744 51.4837 89.7126 52.463 89.7812 53.537C89.9313 54.6828 90.8291 55.4727 91.903 55.4042Z" fill="#989FB0"/>
<path d="M96.4785 58.988C96.6662 60.7619 98.1418 62.0971 99.851 62.0008C101.56 61.9045 102.877 60.412 102.864 58.6283L96.4785 58.988Z" fill="#989FB0"/>
<circle opacity="0.4" cx="111.544" cy="61.0973" r="2.64249" transform="rotate(-3.22458 111.544 61.0973)" fill="#D5DDEA"/>
<circle opacity="0.4" cx="88.93" cy="62.3715" r="2.64249" transform="rotate(-3.22458 88.93 62.3715)" fill="#D5DDEA"/>
<g filter="url(#filter2_d_656_12776)">
<path d="M179.543 82.7581L133.63 94.2495C132.968 94.4311 132.321 94.0358 132.14 93.3741L114.993 24.8355C114.812 24.1738 115.207 23.5272 115.869 23.3456L161.782 11.8542C162.444 11.6725 163.09 12.0678 163.272 12.7296L180.418 81.2682C180.6 81.9299 180.204 82.5765 179.543 82.7581Z" fill="url(#paint2_linear_656_12776)"/>
</g>
<path d="M127.233 52.6168L132.924 75.3254L170.077 66.0145L164.386 43.3059L127.233 52.6168Z" stroke="#D5DDEA" stroke-width="2" stroke-miterlimit="10" stroke-linecap="round" stroke-linejoin="round"/>
<path d="M135.54 85.5659L140.77 84.2831" stroke="#D5DDEA" stroke-width="2" stroke-miterlimit="10" stroke-linecap="round" stroke-linejoin="round"/>
<path d="M134.584 81.9597L143.861 79.6255" stroke="#D5DDEA" stroke-width="2" stroke-miterlimit="10" stroke-linecap="round" stroke-linejoin="round"/>
<path d="M163.332 77.0635L172.609 74.7293" stroke="#D5DDEA" stroke-width="2" stroke-miterlimit="10" stroke-linecap="round" stroke-linejoin="round"/>
<path d="M136.311 50.4185L141.989 73.1147" stroke="#D5DDEA" stroke-width="2" stroke-miterlimit="10" stroke-linecap="round" stroke-linejoin="round"/>
<path d="M145.795 48.0022L151.542 70.6711" stroke="#D5DDEA" stroke-width="2" stroke-miterlimit="10" stroke-linecap="round" stroke-linejoin="round"/>
<path d="M155.374 45.6272L161.052 68.3234" stroke="#D5DDEA" stroke-width="2" stroke-miterlimit="10" stroke-linecap="round" stroke-linejoin="round"/>
<path d="M128.715 58.3826L165.822 49.0458" stroke="#D5DDEA" stroke-width="2" stroke-miterlimit="10" stroke-linecap="round" stroke-linejoin="round"/>
<path d="M130.094 64.053L167.228 54.7851" stroke="#D5DDEA" stroke-width="2" stroke-miterlimit="10" stroke-linecap="round" stroke-linejoin="round"/>
<path d="M131.568 69.7651L168.675 60.4284" stroke="#D5DDEA" stroke-width="2" stroke-miterlimit="10" stroke-linecap="round" stroke-linejoin="round"/>
<path d="M134.142 28.481C132.279 28.9313 131.02 30.571 130.862 32.5284C130.808 32.9586 131.127 33.2988 131.538 33.3664C131.949 33.434 132.264 33.1074 132.318 32.6772C132.404 31.4046 133.312 30.2671 134.504 29.9789C135.696 29.6906 137.005 30.2088 137.682 31.3801C137.927 31.7383 138.356 31.8847 138.691 31.637C139.025 31.3892 139.153 30.941 138.909 30.5828C137.855 28.8349 136.005 28.0306 134.142 28.481Z" fill="#989FB0"/>
<path d="M146.692 25.4468C144.985 25.8596 143.855 27.4678 143.747 29.4132C143.706 29.8404 144.006 30.185 144.386 30.2601C144.766 30.3352 145.05 30.0162 145.091 29.5889C145.147 28.3238 145.962 27.2089 147.054 26.9447C148.147 26.6805 149.362 27.2211 150.009 28.4C150.241 28.7611 150.639 28.9151 150.943 28.6748C151.246 28.4346 151.356 27.9909 151.124 27.6297C150.12 25.8697 148.4 25.0339 146.692 25.4468Z" fill="#989FB0"/>
<path d="M144.042 39.7297C145.166 39.4579 145.857 38.3265 145.585 37.2026C145.313 36.0787 144.182 35.3878 143.058 35.6596C141.934 35.9313 141.243 37.0627 141.515 38.1867C141.787 39.3106 142.918 40.0014 144.042 39.7297Z" fill="#989FB0"/>
<defs>
<filter id="filter0_d_656_12776" x="0.105469" y="14.0417" width="106.976" height="125.133" filterUnits="userSpaceOnUse" color-interpolation-filters="sRGB">
<feFlood flood-opacity="0" result="BackgroundImageFix"/>
<feColorMatrix in="SourceAlpha" type="matrix" values="0 0 0 0 0 0 0 0 0 0 0 0 0 0 0 0 0 0 127 0" result="hardAlpha"/>
<feOffset dy="11"/>
<feGaussianBlur stdDeviation="11"/>
<feColorMatrix type="matrix" values="0 0 0 0 0.397708 0 0 0 0 0.47749 0 0 0 0 0.575 0 0 0 0.27 0"/>
<feBlend mode="normal" in2="BackgroundImageFix" result="effect1_dropShadow_656_12776"/>
<feBlend mode="normal" in="SourceGraphic" in2="effect1_dropShadow_656_12776" result="shape"/>
</filter>
<filter id="filter1_d_656_12776" x="49.21" y="26.3884" width="102.269" height="125.913" filterUnits="userSpaceOnUse" color-interpolation-filters="sRGB">
<feFlood flood-opacity="0" result="BackgroundImageFix"/>
<feColorMatrix in="SourceAlpha" type="matrix" values="0 0 0 0 0 0 0 0 0 0 0 0 0 0 0 0 0 0 127 0" result="hardAlpha"/>
<feOffset dy="11"/>
<feGaussianBlur stdDeviation="11"/>
<feColorMatrix type="matrix" values="0 0 0 0 0.397708 0 0 0 0 0.47749 0 0 0 0 0.575 0 0 0 0.27 0"/>
<feBlend mode="normal" in2="BackgroundImageFix" result="effect1_dropShadow_656_12776"/>
<feBlend mode="normal" in="SourceGraphic" in2="effect1_dropShadow_656_12776" result="shape"/>
</filter>
<filter id="filter2_d_656_12776" x="92.9492" y="0.810059" width="109.513" height="126.484" filterUnits="userSpaceOnUse" color-interpolation-filters="sRGB">
<feFlood flood-opacity="0" result="BackgroundImageFix"/>
<feColorMatrix in="SourceAlpha" type="matrix" values="0 0 0 0 0 0 0 0 0 0 0 0 0 0 0 0 0 0 127 0" result="hardAlpha"/>
<feOffset dy="11"/>
<feGaussianBlur stdDeviation="11"/>
<feColorMatrix type="matrix" values="0 0 0 0 0.397708 0 0 0 0 0.47749 0 0 0 0 0.575 0 0 0 0.27 0"/>
<feBlend mode="normal" in2="BackgroundImageFix" result="effect1_dropShadow_656_12776"/>
<feBlend mode="normal" in="SourceGraphic" in2="effect1_dropShadow_656_12776" result="shape"/>
</filter>
<linearGradient id="paint0_linear_656_12776" x1="51.7733" y1="23.9704" x2="55.3338" y2="106.262" gradientUnits="userSpaceOnUse">
<stop stop-color="#FDFEFF"/>
<stop offset="0.9964" stop-color="#ECF0F5"/>
</linearGradient>
<linearGradient id="paint1_linear_656_12776" x1="100.631" y1="35.3211" x2="100.026" y2="120.352" gradientUnits="userSpaceOnUse">
<stop stop-color="#FDFEFF"/>
<stop offset="0.9964" stop-color="#ECF0F5"/>
</linearGradient>
<linearGradient id="paint2_linear_656_12776" x1="132.462" y1="14.7767" x2="162.554" y2="90.4374" gradientUnits="userSpaceOnUse">
<stop stop-color="#FDFEFF"/>
<stop offset="0.9964" stop-color="#ECF0F5"/>
</linearGradient>
</defs>
</svg>
