<svg width="171" height="186" viewBox="0 0 171 186" fill="none" xmlns="http://www.w3.org/2000/svg">
<path d="M80.3102 141.474C113.766 141.474 140.89 114.35 140.89 80.7744C140.89 47.1987 113.647 20.0752 80.3102 20.0752C46.8539 20.0752 19.7305 47.1987 19.7305 80.7744C19.7305 114.35 46.8539 141.474 80.3102 141.474Z" fill="#EAEEF9"/>
<path d="M123.359 27.7173C126.065 27.7173 128.258 25.524 128.258 22.8184C128.258 20.1128 126.065 17.9194 123.359 17.9194C120.653 17.9194 118.46 20.1128 118.46 22.8184C118.46 25.524 120.653 27.7173 123.359 27.7173Z" fill="#EAEEF9"/>
<path d="M103.639 12.3844C105.486 12.3844 106.984 10.8865 106.984 9.03874C106.984 7.191 105.486 5.69312 103.639 5.69312C101.791 5.69312 100.293 7.191 100.293 9.03874C100.293 10.8865 101.791 12.3844 103.639 12.3844Z" fill="#EAEEF9"/>
<path d="M22.4784 40.9854C24.3262 40.9854 25.8241 39.4876 25.8241 37.6398C25.8241 35.7921 24.3262 34.2942 22.4784 34.2942C20.6307 34.2942 19.1328 35.7921 19.1328 37.6398C19.1328 39.4876 20.6307 40.9854 22.4784 40.9854Z" fill="#F1F3F9"/>
<path d="M20.2133 129.392C23.6448 129.392 26.4266 126.611 26.4266 123.179C26.4266 119.748 23.6448 116.966 20.2133 116.966C16.7818 116.966 14 119.748 14 123.179C14 126.611 16.7818 129.392 20.2133 129.392Z" fill="#EAEEF9"/>
<g filter="url(#filter0_d_656_12709)">
<path d="M104.775 109.359L98.8493 111.347C98.2811 109.602 96.4141 108.709 94.6689 109.277C92.9237 109.846 91.9903 111.713 92.5991 113.458L86.633 115.446C86.0648 113.701 84.1978 112.768 82.4526 113.377C80.7074 113.945 79.8145 115.812 80.3828 117.557L74.4166 119.546C73.9702 118.206 72.7526 117.354 71.4133 117.313C71.048 117.313 70.6422 117.354 70.2363 117.476C68.4911 118.044 67.5577 119.911 68.1664 121.656L62.2409 123.645C60.4957 118.45 54.8949 115.649 49.6999 117.395C49.5376 117.435 49.4158 117.516 49.2535 117.557L22.751 38.8611C22.9133 38.8205 23.0757 38.7799 23.1974 38.7394C28.3924 36.9942 31.1928 31.3527 29.4476 26.1984L35.3731 24.2097C35.9413 25.9548 37.8083 26.8883 39.5535 26.2795C41.2987 25.7113 42.1916 23.8444 41.6234 22.0992L47.5489 20.1105C48.1171 21.8557 50.0246 22.7892 51.7292 22.1804C53.4744 21.6122 54.4079 19.7452 53.7991 18L59.7246 16.0113C60.2928 17.7565 62.1597 18.6494 63.9049 18.0812C65.6501 17.513 66.543 15.6461 65.9748 13.9009L71.9815 11.8716C73.7267 17.0666 79.3275 19.8264 84.5225 18.0812L94.466 47.6276L111.025 96.8176C105.83 98.5628 103.03 104.164 104.775 109.359Z" fill="url(#paint0_linear_656_12709)"/>
</g>
<path d="M96.9419 97.5075L60.8612 109.643C59.1972 110.211 57.3708 109.318 56.8026 107.613L34.8051 42.2703C34.2369 40.6063 35.1298 38.7799 36.8344 38.2117L72.9151 26.0766C74.5792 25.5084 76.4055 26.4013 76.9737 28.1059L98.9712 93.449C99.5394 95.113 98.6059 96.9393 96.9419 97.5075Z" fill="#F1F3F9" stroke="#D6DCE8" stroke-width="2" stroke-miterlimit="10"/>
<path d="M38.2949 52.7009L80.5041 38.4958" stroke="#D6DCE8" stroke-width="2" stroke-miterlimit="10" stroke-linejoin="round"/>
<path d="M50.3896 41.4587L64.067 36.8726" stroke="#D6DCE8" stroke-width="2" stroke-miterlimit="10" stroke-linecap="round" stroke-linejoin="round"/>
<path d="M53.2715 97.1017L95.4401 82.8967" stroke="#D6DCE8" stroke-width="2" stroke-miterlimit="10" stroke-linejoin="round"/>
<path d="M76.4268 61.9003L73.667 67.217C73.5046 67.5417 73.5046 67.907 73.667 68.1911L76.508 73.4672C76.7921 73.9948 76.5891 74.6036 76.0615 74.8877C75.8586 75.0095 75.6151 75.05 75.3716 75.0095L69.446 74.076C69.0808 74.0354 68.7561 74.1166 68.5126 74.4007L64.3728 78.7433C63.967 79.1492 63.3176 79.1898 62.8711 78.7839C62.7088 78.6216 62.5871 78.4187 62.5465 78.1751L61.613 72.2496C61.5724 71.9249 61.3289 71.6003 61.0448 71.4785L55.6469 68.881C55.1193 68.6375 54.9163 67.9881 55.1599 67.4605C55.241 67.2576 55.444 67.0952 55.6469 66.9735L61.0042 64.2542C61.3289 64.0919 61.5318 63.8078 61.5724 63.4425L62.3841 57.517C62.4653 56.9488 62.9929 56.5429 63.5611 56.6241C63.8046 56.6647 64.0076 56.7459 64.1699 56.9082L68.3908 61.1291C68.6343 61.3726 68.9996 61.4944 69.3243 61.4132L75.2498 60.3174C75.818 60.1957 76.3862 60.6015 76.4674 61.1697C76.5891 61.4538 76.5485 61.6973 76.4268 61.9003Z" fill="url(#paint1_linear_656_12709)"/>
<path d="M69.6685 98.6848L83.3053 94.0986" stroke="#D6DCE8" stroke-width="2" stroke-miterlimit="10" stroke-linecap="round" stroke-linejoin="round"/>
<g filter="url(#filter1_d_656_12709)">
<path d="M148.973 61.305L139.111 143.775C133.672 143.126 128.761 147.022 128.112 152.42L121.902 151.69C122.105 149.863 120.806 148.24 119.021 148.037C117.194 147.834 115.571 149.133 115.368 150.918L109.158 150.188C109.361 148.361 108.062 146.738 106.277 146.535C104.45 146.332 102.827 147.631 102.624 149.417L96.4143 148.686C96.6172 146.86 95.3185 145.236 93.5327 145.033C91.7063 144.831 90.0829 146.129 89.88 147.915L83.6704 147.184C84.3197 141.746 80.4235 136.835 75.0256 136.186C74.8633 136.186 74.7009 136.145 74.5386 136.145L84.4009 53.6749C84.5632 53.7155 84.7256 53.7155 84.8879 53.7561C90.3264 54.4055 95.2373 50.5092 95.8867 45.1113L102.096 45.8419C101.893 47.6682 103.192 49.2917 104.978 49.4946C106.764 49.6975 108.428 48.3988 108.631 46.613L114.84 47.3435C114.637 49.1699 115.936 50.7933 117.722 50.9963C119.548 51.1992 121.172 49.9004 121.375 48.1147L127.584 48.8452C127.381 50.6716 128.68 52.295 130.466 52.4979C132.292 52.7009 133.916 51.4021 134.118 49.6163L140.328 50.3469C139.638 55.7448 143.534 60.6557 148.973 61.305Z" fill="url(#paint2_linear_656_12709)"/>
</g>
<path d="M126.123 138.337L88.297 133.832C86.5518 133.629 85.2936 132.005 85.4966 130.26L93.6949 61.7921C93.8978 60.0469 95.5213 58.7888 97.2664 58.9917L135.092 63.4967C136.838 63.6996 138.096 65.3231 137.893 67.0683L129.735 135.536C129.492 137.282 127.868 138.54 126.123 138.337Z" fill="#F1F3F9" stroke="#D6DCE8" stroke-width="2" stroke-miterlimit="10"/>
<path d="M92.356 72.7097L136.554 77.9859" stroke="#D6DCE8" stroke-width="2" stroke-miterlimit="10" stroke-linejoin="round"/>
<path d="M108.103 67.7583L122.43 69.4629" stroke="#D6DCE8" stroke-width="2" stroke-miterlimit="10" stroke-linecap="round" stroke-linejoin="round"/>
<path d="M100.96 127.744L115.246 129.449" stroke="#D6DCE8" stroke-width="2" stroke-miterlimit="10" stroke-linecap="round" stroke-linejoin="round"/>
<path d="M86.7954 119.262L130.993 124.538" stroke="#D6DCE8" stroke-width="2" stroke-miterlimit="10" stroke-linejoin="round"/>
<path d="M122.857 97.3721L118.068 101.025C117.784 101.228 117.621 101.552 117.662 101.918L117.987 107.884C118.027 108.452 117.581 108.98 116.972 108.98C116.729 108.98 116.526 108.939 116.323 108.777L111.371 105.368C111.087 105.165 110.722 105.124 110.397 105.246L104.796 107.397C104.269 107.6 103.619 107.356 103.416 106.788C103.335 106.585 103.335 106.342 103.376 106.098L105.08 100.375C105.162 100.051 105.121 99.6855 104.878 99.4014L101.103 94.7341C100.738 94.2876 100.819 93.6382 101.265 93.2324C101.428 93.07 101.671 92.9889 101.915 92.9889L107.921 92.8265C108.287 92.8265 108.571 92.6236 108.774 92.3395L112.061 87.3474C112.386 86.8604 113.035 86.7387 113.522 87.0228C113.725 87.1445 113.847 87.3474 113.928 87.5504L115.917 93.1918C116.039 93.5165 116.323 93.76 116.647 93.8412L122.451 95.3834C123.019 95.5458 123.344 96.114 123.222 96.6822C123.182 97.0474 123.06 97.2504 122.857 97.3721Z" fill="url(#paint3_linear_656_12709)"/>
<path d="M146.335 45.8014L147.999 41.6211" stroke="#AAB2C5" stroke-width="3" stroke-miterlimit="10" stroke-linecap="round"/>
<path d="M150.434 49.8193L157.374 44.4214" stroke="#AAB2C5" stroke-width="3" stroke-miterlimit="10" stroke-linecap="round"/>
<path d="M153.762 54.8115L157.74 54.1621" stroke="#AAB2C5" stroke-width="3" stroke-miterlimit="10" stroke-linecap="round"/>
<defs>
<filter id="filter0_d_656_12709" x="0.750977" y="0.871582" width="132.274" height="155.773" filterUnits="userSpaceOnUse" color-interpolation-filters="sRGB">
<feFlood flood-opacity="0" result="BackgroundImageFix"/>
<feColorMatrix in="SourceAlpha" type="matrix" values="0 0 0 0 0 0 0 0 0 0 0 0 0 0 0 0 0 0 127 0" result="hardAlpha"/>
<feOffset dy="11"/>
<feGaussianBlur stdDeviation="11"/>
<feColorMatrix type="matrix" values="0 0 0 0 0.397708 0 0 0 0 0.47749 0 0 0 0 0.575 0 0 0 0.27 0"/>
<feBlend mode="normal" in2="BackgroundImageFix" result="effect1_dropShadow_656_12709"/>
<feBlend mode="normal" in="SourceGraphic" in2="effect1_dropShadow_656_12709" result="shape"/>
</filter>
<filter id="filter1_d_656_12709" x="52.5386" y="34.1113" width="118.434" height="151.309" filterUnits="userSpaceOnUse" color-interpolation-filters="sRGB">
<feFlood flood-opacity="0" result="BackgroundImageFix"/>
<feColorMatrix in="SourceAlpha" type="matrix" values="0 0 0 0 0 0 0 0 0 0 0 0 0 0 0 0 0 0 127 0" result="hardAlpha"/>
<feOffset dy="11"/>
<feGaussianBlur stdDeviation="11"/>
<feColorMatrix type="matrix" values="0 0 0 0 0.397708 0 0 0 0 0.47749 0 0 0 0 0.575 0 0 0 0.27 0"/>
<feBlend mode="normal" in2="BackgroundImageFix" result="effect1_dropShadow_656_12709"/>
<feBlend mode="normal" in="SourceGraphic" in2="effect1_dropShadow_656_12709" result="shape"/>
</filter>
<linearGradient id="paint0_linear_656_12709" x1="66.8592" y1="9.28616" x2="66.8592" y2="124.85" gradientUnits="userSpaceOnUse">
<stop stop-color="#FDFEFF"/>
<stop offset="0.9964" stop-color="#ECF0F5"/>
</linearGradient>
<linearGradient id="paint1_linear_656_12709" x1="55.0477" y1="67.8437" x2="76.6405" y2="67.8437" gradientUnits="userSpaceOnUse">
<stop stop-color="#B0BACC"/>
<stop offset="1" stop-color="#969EAE"/>
</linearGradient>
<linearGradient id="paint2_linear_656_12709" x1="111.731" y1="42.6292" x2="111.731" y2="153.577" gradientUnits="userSpaceOnUse">
<stop stop-color="#FDFEFF"/>
<stop offset="0.9964" stop-color="#ECF0F5"/>
</linearGradient>
<linearGradient id="paint3_linear_656_12709" x1="100.863" y1="97.9281" x2="123.252" y2="97.9281" gradientUnits="userSpaceOnUse">
<stop stop-color="#B0BACC"/>
<stop offset="1" stop-color="#969EAE"/>
</linearGradient>
</defs>
</svg>
