<svg width="135" height="143" viewBox="0 0 135 143" fill="none" xmlns="http://www.w3.org/2000/svg">
<path d="M67.3042 120.159C97.8478 120.159 122.608 95.2429 122.608 64.5073C122.608 33.7716 97.8478 8.85547 67.3042 8.85547C36.7605 8.85547 12 33.7716 12 64.5073C12 95.2429 36.7605 120.159 67.3042 120.159Z" fill="#EAEEF9"/>
<path d="M131.646 49.8304C133.37 48.2451 133.491 45.5536 131.915 43.8189C130.34 42.0841 127.665 41.9629 125.941 43.5482C124.217 45.1335 124.097 47.825 125.672 49.5598C127.248 51.2946 129.922 51.4157 131.646 49.8304Z" fill="#EAEEF9"/>
<path d="M35.3341 13.652C36.7952 13.1741 37.5947 11.5948 37.1198 10.1245C36.6449 8.65421 35.0755 7.84969 33.6143 8.32758C32.1532 8.80547 31.3537 10.3848 31.8286 11.8551C32.3035 13.3254 33.873 14.1299 35.3341 13.652Z" fill="#EAEEF9"/>
<path d="M41.4064 4.5183C42.4 4.19334 42.9436 3.1194 42.6207 2.1196C42.2978 1.11979 41.2305 0.572723 40.237 0.897686C39.2434 1.22265 38.6998 2.29659 39.0227 3.29639C39.3456 4.2962 40.4129 4.84326 41.4064 4.5183Z" fill="#EAEEF9"/>
<path d="M131.959 30.9123C132.685 30.2448 132.736 29.1116 132.072 28.3812C131.409 27.6507 130.283 27.5997 129.557 28.2672C128.831 28.9347 128.78 30.068 129.444 30.7984C130.107 31.5288 131.233 31.5798 131.959 30.9123Z" fill="#EAEEF9"/>
<path d="M87.043 4.72925C87.5423 4.27014 87.5771 3.49069 87.1209 2.98829C86.6646 2.48589 85.8901 2.4508 85.3908 2.90992C84.8915 3.36903 84.8567 4.14848 85.3129 4.65088C85.7692 5.15328 86.5438 5.18837 87.043 4.72925Z" fill="#EAEEF9"/>
<path d="M99.7971 19.3813H74.6487H33.1428C27.0226 19.8292 22.1265 25.0921 22.1265 31.3627V58.9087H111.815V31.3627C111.704 24.7562 106.362 19.3813 99.7971 19.3813ZM43.8253 29.4591C42.3787 29.4591 41.2659 28.3394 41.2659 26.8837C41.2659 25.428 42.3787 24.3083 43.8253 24.3083C45.2719 24.3083 46.3846 25.428 46.3846 26.8837C46.2734 28.2274 45.1606 29.4591 43.8253 29.4591ZM89.2259 29.4591C87.7793 29.4591 86.6665 28.3394 86.6665 26.8837C86.6665 25.428 87.7793 24.3083 89.2259 24.3083C90.6725 24.3083 91.7852 25.428 91.7852 26.8837C91.6739 28.2274 90.5612 29.4591 89.2259 29.4591Z" fill="#CED4E2"/>
<g filter="url(#filter0_d_656_12401)">
<path d="M22.1265 60.3643V97.6521C22.1265 104.259 27.4677 109.633 34.033 109.633H99.7971C106.362 109.633 111.704 104.259 111.704 97.6521V60.3643H22.1265Z" fill="white"/>
</g>
<path d="M22.1265 63.7235L17.7867 40.9925C16.7852 35.8417 22.1265 31.4746 29.6933 31.4746H105.361C112.928 31.4746 118.158 35.8417 116.934 40.9925L111.815 63.7235" fill="#F1F3F9"/>
<path d="M58.4026 88.1342C51.0584 88.1342 45.6059 83.7671 45.4946 77.7205V77.0486H48.7216V77.7205C48.8329 81.8636 53.0614 85.1109 58.4026 85.1109C63.9664 85.1109 68.0837 81.7516 68.0837 77.0486C68.0837 72.3457 64.3003 69.4343 57.8463 69.4343H53.0614V66.299H57.8463C62.965 66.299 66.5258 63.3876 66.5258 59.1326C66.5258 55.1014 62.965 52.0781 58.0688 52.0781C53.5065 52.0781 49.9457 54.9895 49.6118 59.0206V59.5805H46.3848V58.9086C46.7187 53.0859 51.6148 48.8308 58.1801 48.8308C64.8566 48.8308 69.8641 53.0859 69.8641 58.7966C69.8641 62.7158 67.7498 65.9631 64.189 67.4187C68.7513 68.6505 71.5332 72.1217 71.5332 76.7127C71.4219 83.3192 65.8581 88.1342 58.4026 88.1342Z" fill="#AAB2C5"/>
<path d="M84.3298 87.5743V53.5337C83.217 54.2056 81.6592 55.2134 80.2126 56.2211L79.99 56.3331C78.2096 57.4529 76.4292 58.6846 75.3164 59.3564L74.3149 60.0283V56.2211L74.6488 55.9972C75.539 55.4373 76.8743 54.5415 78.3209 53.6457C80.5464 52.19 83.1057 50.5104 84.6636 49.5026L84.7749 49.3906H87.5568V87.4623H84.3298V87.5743Z" fill="#AAB2C5"/>
<path d="M133.716 100.345C133.292 102.151 132.654 104.063 131.911 105.656C129.893 109.586 126.707 112.666 122.777 114.684C118.741 116.702 113.961 117.552 109.182 116.49C97.9234 114.153 90.701 103.107 93.0377 91.8486C95.3743 80.5902 106.314 73.2617 117.572 75.7045C121.608 76.5542 125.113 78.5722 128.087 81.3337C133.079 86.3256 135.203 93.5479 133.716 100.345Z" fill="url(#paint0_linear_656_12401)"/>
<path d="M120.015 94.2911H115.235V89.5116C115.235 88.5557 114.492 87.7061 113.43 87.7061C112.474 87.7061 111.624 88.4495 111.624 89.5116V94.2911H106.845C105.889 94.2911 105.039 95.0346 105.039 96.0967C105.039 97.1588 105.783 97.9023 106.845 97.9023H111.624V102.682C111.624 103.638 112.368 104.487 113.43 104.487C114.386 104.487 115.235 103.744 115.235 102.682V97.9023H120.015C120.971 97.9023 121.82 97.1588 121.82 96.0967C121.82 95.0346 120.971 94.2911 120.015 94.2911Z" fill="white"/>
<defs>
<filter id="filter0_d_656_12401" x="0.126465" y="49.3643" width="133.577" height="93.269" filterUnits="userSpaceOnUse" color-interpolation-filters="sRGB">
<feFlood flood-opacity="0" result="BackgroundImageFix"/>
<feColorMatrix in="SourceAlpha" type="matrix" values="0 0 0 0 0 0 0 0 0 0 0 0 0 0 0 0 0 0 127 0" result="hardAlpha"/>
<feOffset dy="11"/>
<feGaussianBlur stdDeviation="11"/>
<feColorMatrix type="matrix" values="0 0 0 0 0.397708 0 0 0 0 0.47749 0 0 0 0 0.575 0 0 0 0.27 0"/>
<feBlend mode="normal" in2="BackgroundImageFix" result="effect1_dropShadow_656_12401"/>
<feBlend mode="normal" in="SourceGraphic" in2="effect1_dropShadow_656_12401" result="shape"/>
</filter>
<linearGradient id="paint0_linear_656_12401" x1="92.5796" y1="96.0964" x2="134.19" y2="96.0964" gradientUnits="userSpaceOnUse">
<stop stop-color="#B0BACC"/>
<stop offset="1" stop-color="#969EAE"/>
</linearGradient>
</defs>
</svg>
