<svg width="166" height="155" viewBox="0 0 166 155" fill="none" xmlns="http://www.w3.org/2000/svg">
<path d="M88.217 124.983C120.778 124.983 147.176 98.5846 147.176 65.907C147.176 33.2295 120.662 6.83154 88.217 6.83154C55.6557 6.83154 29.2578 33.2295 29.2578 65.907C29.2578 98.5846 55.6557 124.983 88.217 124.983Z" fill="#EAEEF9"/>
<path d="M154.661 47.1896C157.294 47.1896 159.429 45.055 159.429 42.4217C159.429 39.7885 157.294 37.6538 154.661 37.6538C152.028 37.6538 149.893 39.7885 149.893 42.4217C149.893 45.055 152.028 47.1896 154.661 47.1896Z" fill="#EAEEF9"/>
<path d="M161.638 28.5831C163.437 28.5831 164.895 27.1252 164.895 25.3269C164.895 23.5286 163.437 22.0708 161.638 22.0708C159.84 22.0708 158.382 23.5286 158.382 25.3269C158.382 27.1252 159.84 28.5831 161.638 28.5831Z" fill="#EAEEF9"/>
<path d="M31.9329 27.1822C33.7312 27.1822 35.189 25.7244 35.189 23.9261C35.189 22.1277 33.7312 20.6699 31.9329 20.6699C30.1346 20.6699 28.6768 22.1277 28.6768 23.9261C28.6768 25.7244 30.1346 27.1822 31.9329 27.1822Z" fill="#EAEEF9"/>
<path d="M12.0471 89.9795C15.3868 89.9795 18.0942 87.2721 18.0942 83.9324C18.0942 80.5926 15.3868 77.8853 12.0471 77.8853C8.70738 77.8853 6 80.5926 6 83.9324C6 87.2721 8.70738 89.9795 12.0471 89.9795Z" fill="#EAEEF9"/>
<g filter="url(#filter0_d_656_12677)">
<path d="M136.215 121.69H37.5791C35.6577 121.69 34.0811 120.113 34.0811 118.192V94.0992C34.0811 92.1777 35.6577 90.6011 37.5791 90.6011H136.215C138.137 90.6011 139.713 92.1777 139.713 94.0992V118.192C139.713 120.113 138.137 121.69 136.215 121.69Z" fill="url(#paint0_linear_656_12677)"/>
</g>
<path d="M119.858 102.278H64.9232C63.7408 102.278 62.8047 101.559 62.8047 100.652C62.8047 99.7443 63.7408 99.0259 64.9232 99.0259H119.858C121.04 99.0259 121.977 99.7443 121.977 100.652C121.977 101.559 121.04 102.278 119.858 102.278Z" fill="#D6DCE8"/>
<path d="M100.15 112.181H64.9232C63.7408 112.181 62.8047 111.463 62.8047 110.555C62.8047 109.648 63.7408 108.929 64.9232 108.929H100.15C101.333 108.929 102.269 109.648 102.269 110.555C102.269 111.463 101.333 112.181 100.15 112.181Z" fill="#D6DCE8"/>
<path d="M48.6649 114.891C53.5083 114.891 57.4347 110.964 57.4347 106.121C57.4347 101.277 53.5083 97.3511 48.6649 97.3511C43.8214 97.3511 39.895 101.277 39.895 106.121C39.895 110.964 43.8214 114.891 48.6649 114.891Z" fill="#989FB0"/>
<path fill-rule="evenodd" clip-rule="evenodd" d="M52.1281 104.121L46.61 109.59L45.2021 108.17L50.7203 102.701L52.1281 104.121Z" fill="white"/>
<path fill-rule="evenodd" clip-rule="evenodd" d="M46.61 102.701L52.1281 108.17L50.7203 109.59L45.2021 104.121L46.61 102.701Z" fill="white"/>
<g filter="url(#filter1_d_656_12677)">
<path d="M139.53 42.3406H40.8936C38.9721 42.3406 37.3955 40.764 37.3955 38.8425V14.75C37.3955 12.8286 38.9721 11.252 40.8936 11.252H139.53C141.451 11.252 143.028 12.8286 143.028 14.75V38.8425C143.028 40.764 141.451 42.3406 139.53 42.3406Z" fill="url(#paint1_linear_656_12677)"/>
</g>
<path d="M123.172 22.9285H68.2377C67.0552 22.9285 66.1191 22.2101 66.1191 21.3026C66.1191 20.3952 67.0552 19.6768 68.2377 19.6768H123.172C124.355 19.6768 125.291 20.3952 125.291 21.3026C125.291 22.2101 124.355 22.9285 123.172 22.9285Z" fill="#D6DCE8"/>
<path d="M103.465 32.8318H68.2377C67.0552 32.8318 66.1191 32.1134 66.1191 31.206C66.1191 30.2985 67.0552 29.5801 68.2377 29.5801H103.465C104.647 29.5801 105.583 30.2985 105.583 31.206C105.583 32.1134 104.647 32.8318 103.465 32.8318Z" fill="#D6DCE8"/>
<path d="M51.9788 35.5412C56.8223 35.5412 60.7487 31.6148 60.7487 26.7713C60.7487 21.9279 56.8223 18.0015 51.9788 18.0015C47.1354 18.0015 43.209 21.9279 43.209 26.7713C43.209 31.6148 47.1354 35.5412 51.9788 35.5412Z" fill="#989FB0"/>
<path fill-rule="evenodd" clip-rule="evenodd" d="M55.4421 24.7716L49.924 30.2405L48.5161 28.8199L54.0342 23.3511L55.4421 24.7716Z" fill="white"/>
<path fill-rule="evenodd" clip-rule="evenodd" d="M49.924 23.3511L55.4421 28.8199L54.0342 30.2405L48.5161 24.7716L49.924 23.3511Z" fill="white"/>
<g filter="url(#filter2_d_656_12677)">
<path d="M124.391 81.8284H25.7056C23.7841 81.8284 22.2075 80.2518 22.2075 78.3303V54.2378C22.2075 52.3163 23.7841 50.7397 25.7056 50.7397H124.342C126.263 50.7397 127.84 52.3163 127.84 54.2378V78.3303C127.889 80.3011 126.313 81.8284 124.391 81.8284Z" fill="url(#paint2_linear_656_12677)"/>
</g>
<path d="M36.8407 75.0788C41.6841 75.0788 45.6105 71.1524 45.6105 66.3089C45.6105 61.4655 41.6841 57.5391 36.8407 57.5391C31.9972 57.5391 28.0708 61.4655 28.0708 66.3089C28.0708 71.1524 31.9972 75.0788 36.8407 75.0788Z" fill="#989FB0"/>
<path fill-rule="evenodd" clip-rule="evenodd" d="M41.686 64.257L35.4608 70.4822L31.9946 67.016L33.4088 65.6018L35.4608 67.6538L40.2718 62.8428L41.686 64.257Z" fill="white"/>
<path d="M108.034 62.4168H53.099C51.9166 62.4168 50.9805 61.6984 50.9805 60.7909C50.9805 59.8834 51.9166 59.165 53.099 59.165H108.034C109.216 59.165 110.152 59.8834 110.152 60.7909C110.152 61.6984 109.167 62.4168 108.034 62.4168Z" fill="#D6DCE8"/>
<path d="M88.3263 72.3689H53.099C51.9166 72.3689 50.9805 71.6505 50.9805 70.7431C50.9805 69.8356 51.9166 69.1172 53.099 69.1172H88.3263C89.5087 69.1172 90.4448 69.8356 90.4448 70.7431C90.3956 71.6505 89.4594 72.3689 88.3263 72.3689Z" fill="#D6DCE8"/>
<defs>
<filter id="filter0_d_656_12677" x="12.0811" y="79.6011" width="149.632" height="75.0889" filterUnits="userSpaceOnUse" color-interpolation-filters="sRGB">
<feFlood flood-opacity="0" result="BackgroundImageFix"/>
<feColorMatrix in="SourceAlpha" type="matrix" values="0 0 0 0 0 0 0 0 0 0 0 0 0 0 0 0 0 0 127 0" result="hardAlpha"/>
<feOffset dy="11"/>
<feGaussianBlur stdDeviation="11"/>
<feColorMatrix type="matrix" values="0 0 0 0 0.397708 0 0 0 0 0.47749 0 0 0 0 0.575 0 0 0 0.27 0"/>
<feBlend mode="normal" in2="BackgroundImageFix" result="effect1_dropShadow_656_12677"/>
<feBlend mode="normal" in="SourceGraphic" in2="effect1_dropShadow_656_12677" result="shape"/>
</filter>
<filter id="filter1_d_656_12677" x="15.3955" y="0.251953" width="149.632" height="75.0889" filterUnits="userSpaceOnUse" color-interpolation-filters="sRGB">
<feFlood flood-opacity="0" result="BackgroundImageFix"/>
<feColorMatrix in="SourceAlpha" type="matrix" values="0 0 0 0 0 0 0 0 0 0 0 0 0 0 0 0 0 0 127 0" result="hardAlpha"/>
<feOffset dy="11"/>
<feGaussianBlur stdDeviation="11"/>
<feColorMatrix type="matrix" values="0 0 0 0 0.397708 0 0 0 0 0.47749 0 0 0 0 0.575 0 0 0 0.27 0"/>
<feBlend mode="normal" in2="BackgroundImageFix" result="effect1_dropShadow_656_12677"/>
<feBlend mode="normal" in="SourceGraphic" in2="effect1_dropShadow_656_12677" result="shape"/>
</filter>
<filter id="filter2_d_656_12677" x="0.20752" y="39.7397" width="149.634" height="75.0889" filterUnits="userSpaceOnUse" color-interpolation-filters="sRGB">
<feFlood flood-opacity="0" result="BackgroundImageFix"/>
<feColorMatrix in="SourceAlpha" type="matrix" values="0 0 0 0 0 0 0 0 0 0 0 0 0 0 0 0 0 0 127 0" result="hardAlpha"/>
<feOffset dy="11"/>
<feGaussianBlur stdDeviation="11"/>
<feColorMatrix type="matrix" values="0 0 0 0 0.397708 0 0 0 0 0.47749 0 0 0 0 0.575 0 0 0 0.27 0"/>
<feBlend mode="normal" in2="BackgroundImageFix" result="effect1_dropShadow_656_12677"/>
<feBlend mode="normal" in="SourceGraphic" in2="effect1_dropShadow_656_12677" result="shape"/>
</filter>
<linearGradient id="paint0_linear_656_12677" x1="86.8628" y1="89.882" x2="86.8628" y2="122.025" gradientUnits="userSpaceOnUse">
<stop stop-color="#FDFEFF"/>
<stop offset="0.9964" stop-color="#ECF0F5"/>
</linearGradient>
<linearGradient id="paint1_linear_656_12677" x1="90.1773" y1="10.5328" x2="90.1773" y2="42.6758" gradientUnits="userSpaceOnUse">
<stop stop-color="#FDFEFF"/>
<stop offset="0.9964" stop-color="#ECF0F5"/>
</linearGradient>
<linearGradient id="paint2_linear_656_12677" x1="74.9899" y1="50.0206" x2="74.9899" y2="82.1635" gradientUnits="userSpaceOnUse">
<stop stop-color="#FDFEFF"/>
<stop offset="0.9964" stop-color="#ECF0F5"/>
</linearGradient>
</defs>
</svg>
