<svg width="221" height="136" viewBox="0 0 221 136" fill="none" xmlns="http://www.w3.org/2000/svg">
<g filter="url(#filter0_d_656_12589)">
<path d="M124.744 38.1182L106.708 61.442C106.141 62.2919 105.008 62.3863 104.158 61.7253L81.6844 44.0672C80.8345 43.5006 80.7401 42.3675 81.4011 41.5176L104.819 11.7727C105.386 10.9229 106.519 10.8284 107.369 11.4894L123.705 24.3317L124.744 38.1182Z" fill="url(#paint0_linear_656_12589)"/>
</g>
<path d="M117.095 26.8817L106.235 18.3832C106.047 18.1943 105.952 17.911 106.141 17.5333C106.33 17.3445 106.613 17.25 106.991 17.4389L117.85 25.9374C118.039 26.1263 118.133 26.4096 117.945 26.7873C117.661 27.0706 117.378 27.0706 117.095 26.8817Z" fill="#CED6E2"/>
<path d="M108.408 24.2373L104.347 20.9323C104.158 20.7435 104.064 20.4602 104.253 20.0825C104.442 19.7992 104.725 19.7992 105.103 19.9881L109.163 23.2931C109.352 23.4819 109.446 23.7652 109.258 24.1429C108.974 24.4262 108.597 24.4262 108.408 24.2373Z" fill="#CED6E2"/>
<path d="M123.705 24.332L118.7 30.6587C117.944 31.603 118.228 32.925 119.078 33.586L124.838 38.1186" fill="#CED6E2"/>
<path d="M117.756 39.5346L112.09 35.1909L106.236 30.5639L100.853 26.3146C100.287 25.8425 99.3423 25.9369 98.8701 26.5979L91.127 36.4185C90.6549 36.985 90.7493 37.9293 91.3159 38.4014L108.313 51.8103C108.88 52.2824 109.824 52.188 110.296 51.527L118.039 41.7064C118.511 40.8566 118.417 40.1012 117.756 39.5346ZM99.8144 39.4402L101.514 37.1739L106.708 41.2343L105.008 43.5006L99.8144 39.4402ZM104.536 44.1616L102.931 46.239L97.737 42.1786L99.3423 40.1012L104.536 44.1616ZM108.974 38.4014L107.274 40.6677L102.081 36.6073L103.78 34.341L108.974 38.4014ZM104.253 33.68L106.141 31.4138L111.335 35.4742L109.635 37.7404L104.253 33.68ZM113.695 45.6724L107.935 41.1399L109.635 38.8736L115.395 43.4061L113.695 45.6724ZM101.42 36.0407L95.8484 31.697L97.5481 29.4308L103.119 33.7745L101.42 36.0407ZM95.2819 32.358L100.853 36.7017L99.1534 38.968L93.5821 34.6243L95.2819 32.358ZM107.463 41.8009L113.223 46.3334L111.524 48.5997L105.763 44.0671L107.463 41.8009ZM117.378 41.0454L115.962 42.8396L110.202 38.307L111.901 36.0407L117.189 40.1956C117.567 40.3844 117.567 40.7622 117.378 41.0454ZM100.287 26.7868L105.386 30.8472L103.686 33.1135L98.1147 28.7698L99.5311 26.9756C99.72 26.6923 100.098 26.6923 100.287 26.7868ZM91.788 36.7962L93.0156 35.2853L98.5868 39.629L96.9816 41.7064L91.788 37.646C91.5991 37.4572 91.5991 36.985 91.788 36.7962ZM108.88 50.866L103.592 46.7111L105.197 44.6337L110.957 49.1663L109.635 50.7716C109.446 51.1493 109.068 51.1493 108.88 50.866Z" fill="#CED6E2"/>
<path d="M168.697 53.019H66.9916C64.9 53.019 63.0698 54.8498 63.0698 56.9421V122.588C63.0698 124.681 64.9 123.896 66.9916 123.896H168.436C170.527 123.896 172.358 124.681 172.358 122.588V56.9421C172.619 54.8498 170.789 53.019 168.697 53.019Z" fill="#D5DDEA"/>
<path d="M165.279 56.834H70.6292C68.6827 56.834 66.9795 58.473 66.9795 60.3461V119.115C66.9795 120.988 68.6827 120.286 70.6292 120.286H165.036C166.982 120.286 168.686 120.988 168.686 119.115V60.3461C168.929 58.473 167.226 56.834 165.279 56.834Z" fill="white"/>
<path d="M187.783 120.234V122.327C187.783 124.681 185.692 126.773 183.338 126.773H52.35C49.9969 126.773 47.9053 124.681 47.9053 122.327V120.234H187.783Z" fill="#D5DDEA"/>
<path d="M130.002 120.234V121.019C130.002 122.327 128.956 123.634 127.387 123.634H108.04C106.733 123.634 105.425 122.588 105.425 121.019V120.234H130.002Z" fill="#E9EFF8"/>
<path d="M128.172 87.2809H119.544V78.6501C119.544 77.604 118.759 76.8193 117.714 76.8193C116.668 76.8193 115.883 77.604 115.883 78.6501V87.2809H107.255C106.21 87.2809 105.425 88.0655 105.425 89.1116C105.425 90.1578 106.21 90.9424 107.255 90.9424H115.883V99.5732C115.883 100.619 116.668 101.404 117.714 101.404C118.759 101.404 119.544 100.619 119.544 99.5732V90.9424H128.172C129.218 90.9424 130.002 90.1578 130.002 89.1116C130.002 88.0655 129.218 87.2809 128.172 87.2809Z" fill="#989FB0"/>
<g filter="url(#filter1_d_656_12589)">
<path d="M187.529 86.372L158.605 102.029C156.933 102.925 154.858 102.319 153.945 100.644L138.997 72.9485C138.103 71.2749 138.708 69.1982 140.383 68.2834L169.306 52.6259C170.978 51.7305 173.053 52.3358 173.966 54.0116L188.933 81.709C189.827 83.3826 189.2 85.4766 187.529 86.372Z" fill="url(#paint1_linear_656_12589)"/>
</g>
<path d="M183.689 83.0912L158.258 96.8565C157.546 97.2492 156.654 96.9725 156.262 96.2598L143.903 73.3587C143.511 72.646 143.788 71.7523 144.5 71.3596L169.931 57.5944C170.643 57.2017 171.535 57.4784 171.927 58.191L184.286 81.0922C184.678 81.8048 184.401 82.6985 183.689 83.0912Z" fill="white"/>
<path d="M166.804 81.0297L157.519 86.0525L159.309 78.2849L166.804 81.0297Z" fill="#B0B7C4"/>
<path d="M174.48 76.8697L161.115 84.1127L163.699 72.932L174.48 76.8697Z" fill="#CED6E2"/>
<path d="M155.972 77.2038C157.065 77.3259 158.051 76.5375 158.173 75.4429C158.295 74.3483 157.508 73.362 156.414 73.24C155.321 73.118 154.336 73.9064 154.213 75.001C154.091 76.0955 154.878 77.0818 155.972 77.2038Z" fill="#B0B7C4"/>
<g filter="url(#filter2_d_656_12589)">
<path d="M190.699 92.3351L157.815 92.9855C155.919 93.0145 154.353 91.5254 154.31 89.6174L153.727 58.1512C153.7 56.254 155.19 54.6859 157.097 54.6407L189.981 53.9903C191.877 53.9613 193.443 55.4504 193.486 57.3585L194.086 88.8355C194.112 90.7327 192.595 92.3062 190.699 92.3351Z" fill="url(#paint2_linear_656_12589)"/>
</g>
<path d="M188.792 87.6585L159.88 88.229C159.067 88.2515 158.401 87.5963 158.379 86.7832L157.899 60.7647C157.877 59.9516 158.533 59.2842 159.345 59.2617L188.257 58.6911C189.07 58.6686 189.736 59.3239 189.758 60.1369L190.239 86.1555C190.26 86.9686 189.605 87.636 188.792 87.6585Z" fill="white"/>
<path d="M174.732 78.0836L164.177 78.2891L169.33 72.2075L174.732 78.0836Z" fill="#989FB0"/>
<path d="M183.461 77.9072L168.262 78.2149L175.686 69.4641L183.461 77.9072Z" fill="#CED6E2"/>
<path d="M166.86 69.7163C167.775 70.3261 169.012 70.0773 169.623 69.1606C170.234 68.2439 169.986 67.0065 169.071 66.3967C168.155 65.7868 166.918 66.0356 166.307 66.9523C165.697 67.869 165.944 69.1064 166.86 69.7163Z" fill="#989FB0"/>
<path d="M191.034 93.5035L184.059 95.6543L189.614 103.87L185.087 106.931L179.532 98.7154L174.938 104.387L170.968 81.1723L191.034 93.5035Z" fill="url(#paint3_linear_656_12589)"/>
<g filter="url(#filter3_d_656_12589)">
<path d="M52.0442 58.7973L70.5076 80.0921C71.129 80.8275 70.9944 81.9172 70.243 82.5546L48.7937 100.749C48.0422 101.387 46.919 101.307 46.3259 100.605L22.9385 72.9277C22.3171 72.1923 22.4517 71.1025 23.2031 70.4651L38.7436 57.2826L52.0442 58.7973Z" fill="url(#paint4_linear_656_12589)"/>
</g>
<path d="M38.7114 57.0513L43.7965 63.0575C44.5107 63.901 45.8244 63.9474 46.668 63.2332L51.9993 58.7195" fill="#CED6E2"/>
<g clip-path="url(#clip0_656_12589)">
<path d="M33.8712 61.6734L32.5747 62.771L33.3292 63.6622L34.6257 62.5645L33.8712 61.6734Z" fill="#CED6E2"/>
<path d="M35.9346 61.4561L34.6382 62.5537L35.3927 63.4449L36.6891 62.3472L35.9346 61.4561Z" fill="#CED6E2"/>
<path d="M35.3697 63.4434L34.0732 64.541L34.8277 65.4322L36.1242 64.3346L35.3697 63.4434Z" fill="#CED6E2"/>
<path d="M37.4332 63.2261L36.1367 64.3237L36.8912 65.2149L38.1877 64.1173L37.4332 63.2261Z" fill="#CED6E2"/>
<path d="M36.8785 65.2256L35.582 66.3232L36.3365 67.2144L37.633 66.1168L36.8785 65.2256Z" fill="#CED6E2"/>
<path d="M38.942 65.0083L37.6455 66.106L38.4 66.9971L39.6965 65.8995L38.942 65.0083Z" fill="#CED6E2"/>
<path d="M38.377 66.9951L37.0806 68.0928L37.8351 68.9839L39.1315 67.8863L38.377 66.9951Z" fill="#CED6E2"/>
<path d="M40.4405 66.7783L39.144 67.876L39.8985 68.7671L41.195 67.6695L40.4405 66.7783Z" fill="#CED6E2"/>
<path d="M39.8858 68.7774L38.5894 69.875L39.3438 70.7662L40.6403 69.6685L39.8858 68.7774Z" fill="#CED6E2"/>
<path d="M41.9493 68.5606L40.6528 69.6582L41.4073 70.5494L42.7038 69.4517L41.9493 68.5606Z" fill="#CED6E2"/>
<path d="M41.3843 70.5474L40.0879 71.645L40.8424 72.5362L42.1388 71.4386L41.3843 70.5474Z" fill="#CED6E2"/>
<path d="M43.4478 70.3301L42.1514 71.4277L42.9059 72.3189L44.2023 71.2213L43.4478 70.3301Z" fill="#CED6E2"/>
<path d="M42.8931 72.3296L41.5967 73.4272L42.3512 74.3184L43.6476 73.2208L42.8931 72.3296Z" fill="#CED6E2"/>
<path d="M44.9459 72.1001L43.6494 73.1978L44.4039 74.0889L45.7004 72.9913L44.9459 72.1001Z" fill="#CED6E2"/>
<path d="M44.3917 74.0996L43.0952 75.1973L43.8497 76.0884L45.1462 74.9908L44.3917 74.0996Z" fill="#CED6E2"/>
<path d="M46.4551 73.8824L45.1587 74.98L45.9132 75.8711L47.2096 74.7735L46.4551 73.8824Z" fill="#CED6E2"/>
<path d="M44.604 76.9795L48.1321 81.1466L50.7376 78.9407L47.2095 74.7736L44.604 76.9795ZM50.0179 78.882L48.1928 80.4272L47.1727 79.2222L48.9978 77.677L50.0179 78.882Z" fill="#CED6E2"/>
<path d="M50.4906 90.1346L50.4263 87.9911C50.4344 87.6179 50.4347 87.3375 50.4535 86.9768L50.4429 86.9643L49.0206 88.1685L48.3511 87.3777L51.0069 85.1292L51.517 85.7317L51.5786 87.7697C51.583 88.1323 51.5894 88.4717 51.5494 88.8072L51.56 88.8198L53.1208 87.4984L53.8009 88.3017L50.9689 90.6994L50.4906 90.1346Z" fill="#CED6E2"/>
<path d="M52.1301 82.6269C52.3639 82.9031 52.3412 83.3101 52.014 83.5872C51.6993 83.8536 51.294 83.8089 51.0602 83.5327C50.8032 83.2547 50.8259 82.8476 51.1532 82.5705C51.4911 82.306 51.8857 82.3382 52.1301 82.6269ZM54.5942 87.6302L51.8631 84.4045L52.8701 83.5519L55.6011 86.7777L54.5942 87.6302Z" fill="#CED6E2"/>
<path d="M54.5893 83.9494C54.2279 83.5226 53.9072 83.1693 53.6502 82.8912L54.5187 82.1559L54.9516 82.5652L54.9642 82.5545C54.9164 82.0131 55.122 81.5158 55.6003 81.1109C56.3052 80.5141 57.4678 80.5856 58.3392 81.6149C59.3381 82.7947 59.0631 83.9757 58.333 84.5938C57.9429 84.9242 57.5026 85.0168 57.1815 84.9438L57.169 84.9545L58.5292 86.5611L57.5222 87.4136L54.5893 83.9494ZM56.2444 83.8625C56.3082 83.9378 56.3845 84.0024 56.4503 84.0545C56.747 84.2774 57.1562 84.2757 57.4457 84.0306C57.8862 83.6577 57.8298 83.0805 57.3622 82.5283C56.9265 82.0136 56.3705 81.8164 55.9174 82.2C55.6279 82.4451 55.5568 82.8716 55.7489 83.2261C55.7788 83.287 55.8194 83.3604 55.8725 83.4232L56.2444 83.8625Z" fill="#CED6E2"/>
</g>
<defs>
<filter id="filter0_d_656_12589" x="58.9673" y="0.0556641" width="87.7764" height="95.1035" filterUnits="userSpaceOnUse" color-interpolation-filters="sRGB">
<feFlood flood-opacity="0" result="BackgroundImageFix"/>
<feColorMatrix in="SourceAlpha" type="matrix" values="0 0 0 0 0 0 0 0 0 0 0 0 0 0 0 0 0 0 127 0" result="hardAlpha"/>
<feOffset dy="11"/>
<feGaussianBlur stdDeviation="11"/>
<feColorMatrix type="matrix" values="0 0 0 0 0.397708 0 0 0 0 0.47749 0 0 0 0 0.575 0 0 0 0.27 0"/>
<feBlend mode="normal" in2="BackgroundImageFix" result="effect1_dropShadow_656_12589"/>
<feBlend mode="normal" in="SourceGraphic" in2="effect1_dropShadow_656_12589" result="shape"/>
</filter>
<filter id="filter1_d_656_12589" x="116.585" y="41.2129" width="94.7554" height="94.2295" filterUnits="userSpaceOnUse" color-interpolation-filters="sRGB">
<feFlood flood-opacity="0" result="BackgroundImageFix"/>
<feColorMatrix in="SourceAlpha" type="matrix" values="0 0 0 0 0 0 0 0 0 0 0 0 0 0 0 0 0 0 127 0" result="hardAlpha"/>
<feOffset dy="11"/>
<feGaussianBlur stdDeviation="11"/>
<feColorMatrix type="matrix" values="0 0 0 0 0.397708 0 0 0 0 0.47749 0 0 0 0 0.575 0 0 0 0.27 0"/>
<feBlend mode="normal" in2="BackgroundImageFix" result="effect1_dropShadow_656_12589"/>
<feBlend mode="normal" in="SourceGraphic" in2="effect1_dropShadow_656_12589" result="shape"/>
</filter>
<filter id="filter2_d_656_12589" x="131.727" y="42.9897" width="84.3594" height="82.9961" filterUnits="userSpaceOnUse" color-interpolation-filters="sRGB">
<feFlood flood-opacity="0" result="BackgroundImageFix"/>
<feColorMatrix in="SourceAlpha" type="matrix" values="0 0 0 0 0 0 0 0 0 0 0 0 0 0 0 0 0 0 127 0" result="hardAlpha"/>
<feOffset dy="11"/>
<feGaussianBlur stdDeviation="11"/>
<feColorMatrix type="matrix" values="0 0 0 0 0.397708 0 0 0 0 0.47749 0 0 0 0 0.575 0 0 0 0.27 0"/>
<feBlend mode="normal" in2="BackgroundImageFix" result="effect1_dropShadow_656_12589"/>
<feBlend mode="normal" in="SourceGraphic" in2="effect1_dropShadow_656_12589" result="shape"/>
</filter>
<filter id="filter3_d_656_12589" x="0.54541" y="46.2827" width="92.3555" height="87.8999" filterUnits="userSpaceOnUse" color-interpolation-filters="sRGB">
<feFlood flood-opacity="0" result="BackgroundImageFix"/>
<feColorMatrix in="SourceAlpha" type="matrix" values="0 0 0 0 0 0 0 0 0 0 0 0 0 0 0 0 0 0 127 0" result="hardAlpha"/>
<feOffset dy="11"/>
<feGaussianBlur stdDeviation="11"/>
<feColorMatrix type="matrix" values="0 0 0 0 0.397708 0 0 0 0 0.47749 0 0 0 0 0.575 0 0 0 0.27 0"/>
<feBlend mode="normal" in2="BackgroundImageFix" result="effect1_dropShadow_656_12589"/>
<feBlend mode="normal" in="SourceGraphic" in2="effect1_dropShadow_656_12589" result="shape"/>
</filter>
<linearGradient id="paint0_linear_656_12589" x1="102.841" y1="9.87359" x2="102.841" y2="62.71" gradientUnits="userSpaceOnUse">
<stop stop-color="#FDFEFF"/>
<stop offset="0.9964" stop-color="#ECF0F5"/>
</linearGradient>
<linearGradient id="paint1_linear_656_12589" x1="166.934" y1="50.5453" x2="161.027" y2="103.475" gradientUnits="userSpaceOnUse">
<stop stop-color="#FDFEFF"/>
<stop offset="0.9964" stop-color="#ECF0F5"/>
</linearGradient>
<linearGradient id="paint2_linear_656_12589" x1="188.827" y1="51.0536" x2="159.305" y2="95.3813" gradientUnits="userSpaceOnUse">
<stop stop-color="#FDFEFF"/>
<stop offset="0.9964" stop-color="#ECF0F5"/>
</linearGradient>
<linearGradient id="paint3_linear_656_12589" x1="171.106" y1="98.7361" x2="187.212" y2="87.8452" gradientUnits="userSpaceOnUse">
<stop stop-color="#B0BACC"/>
<stop offset="1" stop-color="#969EAE"/>
</linearGradient>
<linearGradient id="paint4_linear_656_12589" x1="33.328" y1="60.6739" x2="59.8456" y2="91.9349" gradientUnits="userSpaceOnUse">
<stop stop-color="#FDFEFF"/>
<stop offset="0.9964" stop-color="#ECF0F5"/>
</linearGradient>
<clipPath id="clip0_656_12589">
<rect width="11.4951" height="34.0431" fill="white" transform="translate(29.5161 65.3604) rotate(-40.2525)"/>
</clipPath>
</defs>
</svg>
