<svg width="153" height="112" viewBox="0 0 153 112" fill="none" xmlns="http://www.w3.org/2000/svg">
<path d="M75.8313 111.056C103.959 111.056 126.761 88.1758 126.761 59.9521C126.761 31.7284 103.959 8.84863 75.8313 8.84863C47.7035 8.84863 24.9014 31.7284 24.9014 59.9521C24.9014 88.1758 47.7035 111.056 75.8313 111.056Z" fill="#EAEEF9"/>
<path d="M134.098 34.8629C135.686 33.4071 135.797 30.9356 134.346 29.3426C132.895 27.7496 130.432 27.6383 128.844 29.0941C127.257 30.5499 127.146 33.0214 128.597 34.6144C130.047 36.2074 132.511 36.3186 134.098 34.8629Z" fill="#EAEEF9"/>
<path d="M46.398 13.2348C47.7436 12.796 48.4798 11.3458 48.0425 9.99563C47.6051 8.6455 46.1598 7.90674 44.8143 8.34557C43.4687 8.7844 42.7325 10.2346 43.1698 11.5848C43.6071 12.9349 45.0525 13.6737 46.398 13.2348Z" fill="#EAEEF9"/>
<path d="M51.99 4.84739C52.905 4.54899 53.4056 3.56282 53.1082 2.64473C52.8109 1.72664 51.828 1.22428 50.9131 1.52268C49.9981 1.82109 49.4974 2.80725 49.7948 3.72534C50.0922 4.64343 51.075 5.14579 51.99 4.84739Z" fill="#EAEEF9"/>
<path d="M134.392 17.3455C135.061 16.7325 135.107 15.6919 134.496 15.0212C133.886 14.3504 132.849 14.3036 132.18 14.9165C131.512 15.5295 131.465 16.5701 132.076 17.2409C132.687 17.9116 133.724 17.9584 134.392 17.3455Z" fill="#EAEEF9"/>
<path d="M93.9408 5.08072C94.4004 4.65932 94.4325 3.94388 94.0125 3.48274C93.5926 3.02161 92.8796 2.9894 92.42 3.4108C91.9604 3.83221 91.9283 4.54765 92.3483 5.00879C92.7683 5.46992 93.4813 5.50213 93.9408 5.08072Z" fill="#EAEEF9"/>
<path d="M0 101.904H149.101" stroke="#D6DCE8" stroke-width="2" stroke-miterlimit="10"/>
<path d="M104.549 100.956H12.6978L29.4813 23.1245H121.435L104.549 100.956Z" fill="white"/>
<path d="M104.549 100.956H12.6978L29.4813 23.1245H121.435L104.549 100.956Z" fill="#D5DAE8"/>
<path d="M51.5541 100.956H32.5328C29.0744 100.956 26.2263 97.9822 26.4297 94.4956L29.4812 23.1245H34.0586L51.5541 100.956Z" fill="url(#paint0_linear_656_12527)"/>
<path d="M141.574 100.956H49.7229L34.16 41.1724L34.0583 40.7622L29.481 23.1245H121.434L125.401 38.4037L126.012 40.7622L126.113 41.1724L141.574 100.956Z" fill="white"/>
<path d="M126.012 40.7622H34.0583L29.481 23.1245H121.434L125.401 38.4037L126.012 40.7622Z" fill="#EFF3FB"/>
<path opacity="0.3" d="M53.69 35.7377C55.4877 35.7377 56.945 34.2685 56.945 32.4562C56.945 30.644 55.4877 29.1748 53.69 29.1748C51.8924 29.1748 50.4351 30.644 50.4351 32.4562C50.4351 34.2685 51.8924 35.7377 53.69 35.7377Z" fill="#ADB6C8"/>
<path opacity="0.3" d="M107.397 35.7377C109.195 35.7377 110.652 34.2685 110.652 32.4562C110.652 30.644 109.195 29.1748 107.397 29.1748C105.599 29.1748 104.142 30.644 104.142 32.4562C104.142 34.2685 105.599 35.7377 107.397 35.7377Z" fill="#ADB6C8"/>
<path d="M52.8763 33.7892C52.266 33.7892 51.7574 33.2765 51.7574 32.6612C51.7574 32.046 52.266 31.5332 52.8763 31.5332C55.1141 31.5332 57.4536 28.3543 57.4536 23.5347C57.4536 23.4322 57.4536 23.2271 57.4536 23.1246C57.3519 18.4075 55.0124 15.5363 52.8763 15.5363C50.8419 15.5363 48.6041 18.305 48.299 22.6118H45.9595C46.2646 17.2795 49.2145 13.2803 52.7746 13.2803C56.5382 13.2803 59.488 17.6897 59.6914 23.3297C59.6914 23.4322 59.6914 23.5347 59.6914 23.6373C59.7931 29.2772 56.7416 33.7892 52.8763 33.7892Z" fill="#ADB6C8"/>
<path d="M106.279 33.7892C105.668 33.7892 105.16 33.2765 105.16 32.6612C105.16 32.046 105.668 31.5332 106.279 31.5332C108.516 31.5332 110.856 28.3543 110.856 23.5347C110.856 23.4322 110.856 23.2271 110.856 23.1246C110.754 18.4075 108.415 15.5363 106.279 15.5363C104.244 15.5363 102.006 18.305 101.701 22.6118H99.3618C99.667 17.2795 102.617 13.2803 106.177 13.2803C109.941 13.2803 112.89 17.6897 113.094 23.3297C113.094 23.4322 113.094 23.5347 113.094 23.6373C113.195 29.2772 110.144 33.7892 106.279 33.7892Z" fill="#ADB6C8"/>
<path d="M1 100.854H149" stroke="#D5DAE8" stroke-width="2" stroke-miterlimit="10" stroke-linecap="round" stroke-linejoin="round"/>
<path opacity="0.3" d="M107.906 63.8351C107.296 63.8351 106.889 63.3224 106.889 62.8096C106.889 62.1944 107.296 61.7842 107.906 61.7842H111.059C111.669 61.7842 112.076 62.2969 112.076 62.8096C112.076 63.4249 111.568 63.8351 111.059 63.8351H107.906Z" fill="#D5DAE8"/>
<path d="M64.5736 92.7526C64.1668 92.7526 63.7599 92.445 63.5565 92.0348L61.929 85.9846H53.8932C53.2829 85.9846 52.876 85.4719 52.876 84.9592C52.876 84.3439 53.3846 83.9338 53.8932 83.9338H61.3187L58.7757 74.9098H51.0451C50.4348 74.9098 50.0279 74.3971 50.0279 73.8844C50.0279 73.2691 50.4348 72.8589 51.0451 72.8589H58.1654L55.6224 63.835H48.2987C47.6884 63.835 47.2815 63.3223 47.2815 62.8095C47.2815 62.1943 47.6884 61.7841 48.2987 61.7841H55.1139L52.5709 52.7602H45.5523C44.942 52.7602 44.5352 52.2474 44.5352 51.7347C44.5352 51.1194 44.942 50.7093 45.5523 50.7093H51.9606L50.9434 47.0177C50.8417 46.5049 51.1468 45.8897 51.6554 45.7871C51.7571 45.7871 51.8589 45.7871 51.9606 45.7871C52.3675 45.7871 52.7743 46.0947 52.9778 46.5049L54.1984 50.7093H62.3358C62.9462 50.7093 63.353 51.1194 63.353 51.7347C63.353 52.35 62.9462 52.7602 62.3358 52.7602H54.8087L57.3517 61.7841H70.1681L66.0994 47.0177C65.9977 46.5049 66.3029 45.8897 66.8114 45.7871C66.9132 45.7871 67.0149 45.7871 67.1166 45.7871C67.5235 45.7871 67.9303 46.0947 68.1338 46.5049L69.3544 50.7093H73.7283C74.3386 50.7093 74.7455 51.1194 74.7455 51.7347C74.7455 52.35 74.2369 52.7602 73.7283 52.7602H69.9647L72.5077 61.7841H81.1537C81.764 61.7841 82.1709 62.2968 82.1709 62.8095C82.1709 63.4248 81.764 63.835 81.1537 63.835H73.118L75.6609 72.8589H88.5791L82.9846 52.7602H80.2383C79.6279 52.7602 79.2211 52.2474 79.2211 51.7347C79.2211 51.1194 79.7297 50.7093 80.2383 50.7093H82.3743L81.3572 47.0177C81.2554 46.71 81.3571 46.5049 81.4589 46.1973C81.5606 45.9922 81.764 45.7871 82.0692 45.6846C82.1709 45.6846 82.2726 45.6846 82.3743 45.6846C82.7812 45.6846 83.1881 45.9922 83.3915 46.4024L84.6121 50.6067H86.7482C87.3585 50.6067 87.7654 51.0169 87.7654 51.6322C87.7654 52.2474 87.3585 52.6576 86.7482 52.6576H85.2224L87.7654 61.6815H100.684L98.1407 52.6576H91.529C90.9187 52.6576 90.5118 52.1449 90.5118 51.6322C90.5118 51.0169 91.0204 50.6067 91.529 50.6067H97.2252L96.208 46.9151C96.1063 46.4024 96.4114 45.7871 96.92 45.6846C97.0218 45.6846 97.1235 45.6846 97.2252 45.6846C97.6321 45.6846 98.0389 45.9922 98.2424 46.4024L99.463 50.6067H112.381L111.364 46.9151C111.262 46.4024 111.567 45.7871 112.076 45.6846C112.178 45.6846 112.279 45.6846 112.381 45.6846C112.788 45.6846 113.195 45.9922 113.398 46.4024L114.619 50.6067H122.553C123.163 50.6067 123.57 51.0169 123.57 51.6322C123.57 52.2474 123.163 52.6576 122.553 52.6576H114.924L117.467 61.6815H125.096C125.706 61.6815 126.113 62.1943 126.113 62.707C126.113 63.3223 125.706 63.7324 125.096 63.7324H118.077L120.62 72.7564H127.944C128.554 72.7564 128.961 73.2691 128.961 73.7818C128.961 74.3971 128.554 74.8073 127.944 74.8073H121.231L123.774 83.8312H130.69C131.301 83.8312 131.708 84.3439 131.708 84.8567C131.708 85.4719 131.199 85.8821 130.69 85.8821H124.282L125.808 91.317C125.91 91.8297 125.605 92.445 125.096 92.5475C124.994 92.5475 124.893 92.5475 124.791 92.5475C124.384 92.5475 123.977 92.2399 123.774 91.8297L122.146 85.8821H109.228L110.754 91.2144C110.855 91.5221 110.754 91.7272 110.652 92.0348C110.55 92.2399 110.347 92.445 110.042 92.5475C109.94 92.5475 109.838 92.5475 109.737 92.5475C109.33 92.5475 108.923 92.2399 108.719 91.8297L107.092 85.9846H94.1736L95.6994 91.317C95.8011 91.8297 95.496 92.445 94.9874 92.5475C94.8857 92.5475 94.784 92.5475 94.6822 92.5475C94.2754 92.5475 93.8685 92.2399 93.6651 91.8297L92.0376 85.9846H79.1194L80.6451 91.317C80.7468 91.8297 80.4417 92.445 79.9331 92.5475C79.8314 92.5475 79.7297 92.5475 79.6279 92.5475C79.2211 92.5475 78.8142 92.2399 78.6108 91.8297L76.9833 85.9846H64.0651L65.5908 91.4195C65.6925 91.7272 65.5908 91.9322 65.4891 92.2399C65.3874 92.445 65.184 92.6501 64.8788 92.7526C64.7771 92.7526 64.6754 92.7526 64.5736 92.7526ZM93.5633 83.9338H121.536L118.993 74.9098H106.075L106.99 78.1912C107.092 78.4989 106.99 78.704 106.888 79.0116C106.787 79.2167 106.583 79.4218 106.278 79.5243C106.176 79.5243 106.075 79.5243 105.973 79.5243C105.566 79.5243 105.159 79.2167 104.956 78.8065L103.939 75.0124H100.073C99.463 75.0124 99.0561 74.4996 99.0561 73.9869C99.0561 73.3716 99.463 72.9615 100.073 72.9615H103.328L100.785 63.9375H87.9688L90.5118 72.9615H93.6651C94.2754 72.9615 94.6822 73.4742 94.6822 73.9869C94.6822 74.6022 94.2754 75.0124 93.6651 75.0124H91.0204L93.5633 83.9338ZM78.509 83.9338H91.4273L88.8843 74.9098H75.9661L78.509 83.9338ZM63.4547 83.9338H76.373L73.83 74.9098H70.0664C69.4561 74.9098 69.0492 74.3971 69.0492 73.8844C69.0492 73.2691 69.5578 72.8589 70.0664 72.8589H73.3214L70.7785 63.835H57.8602L60.4032 72.8589H63.7599C64.3702 72.8589 64.7771 73.3716 64.7771 73.8844C64.7771 74.4996 64.2685 74.9098 63.7599 74.9098H61.0135L63.4547 83.9338ZM105.566 72.8589H118.484L112.89 52.7602H99.8699L105.566 72.8589Z" fill="#D5DAE8"/>
<path d="M131.591 69.6748C127.499 69.6748 123.499 70.8883 120.096 73.1618C116.694 75.4353 114.042 78.6667 112.476 82.4474C110.91 86.2281 110.5 90.3882 111.298 94.4018C112.097 98.4153 114.067 102.102 116.961 104.996C119.855 107.889 123.541 109.86 127.555 110.658C131.568 111.457 135.729 111.047 139.509 109.481C143.29 107.915 146.521 105.263 148.795 101.86C151.068 98.4578 152.282 94.4575 152.282 90.3653C152.282 87.6482 151.747 84.9577 150.707 82.4474C149.667 79.9371 148.143 77.6562 146.222 75.7349C144.3 73.8136 142.02 72.2896 139.509 71.2498C136.999 70.21 134.308 69.6748 131.591 69.6748Z" fill="url(#paint1_linear_656_12527)"/>
<path d="M139.996 92.4435H131.582C131.024 92.4435 130.489 92.2218 130.094 91.8273C129.7 91.4329 129.478 90.8978 129.478 90.3399V81.9258C129.478 81.3679 129.7 80.8329 130.094 80.4384C130.489 80.0439 131.024 79.8223 131.582 79.8223C132.139 79.8223 132.674 80.0439 133.069 80.4384C133.463 80.8329 133.685 81.3679 133.685 81.9258V88.2364H139.996C140.554 88.2364 141.089 88.458 141.483 88.8525C141.878 89.247 142.099 89.782 142.099 90.3399C142.099 90.8978 141.878 91.4329 141.483 91.8273C141.089 92.2218 140.554 92.4435 139.996 92.4435Z" fill="white"/>
<defs>
<linearGradient id="paint0_linear_656_12527" x1="26.4111" y1="62.0285" x2="51.5916" y2="62.0285" gradientUnits="userSpaceOnUse">
<stop stop-color="#D5DAE8"/>
<stop offset="1" stop-color="#9AA3BA"/>
</linearGradient>
<linearGradient id="paint1_linear_656_12527" x1="110.882" y1="90.3698" x2="152.289" y2="90.3698" gradientUnits="userSpaceOnUse">
<stop stop-color="#B0BACC"/>
<stop offset="1" stop-color="#969EAE"/>
</linearGradient>
</defs>
</svg>
