<svg width="142" height="153" viewBox="0 0 142 153" fill="none" xmlns="http://www.w3.org/2000/svg">
<path d="M77.745 119.186C108.535 119.186 133.497 94.2237 133.497 63.3237C133.497 32.4238 108.425 7.46191 77.745 7.46191C46.955 7.46191 21.9932 32.4238 21.9932 63.3237C21.9932 94.2237 46.955 119.186 77.745 119.186Z" fill="#EAEEF9"/>
<path d="M129.428 26.8154C131.918 26.8154 133.937 24.7969 133.937 22.3069C133.937 19.8169 131.918 17.7983 129.428 17.7983C126.938 17.7983 124.919 19.8169 124.919 22.3069C124.919 24.7969 126.938 26.8154 129.428 26.8154Z" fill="#EAEEF9"/>
<path d="M136.026 9.22147C137.726 9.22147 139.105 7.84296 139.105 6.14247C139.105 4.44199 137.726 3.06348 136.026 3.06348C134.325 3.06348 132.947 4.44199 132.947 6.14247C132.947 7.84296 134.325 9.22147 136.026 9.22147Z" fill="#EAEEF9"/>
<path d="M24.5219 26.7058C26.2224 26.7058 27.6009 25.3273 27.6009 23.6269C27.6009 21.9264 26.2224 20.5479 24.5219 20.5479C22.8214 20.5479 21.4429 21.9264 21.4429 23.6269C21.4429 25.3273 22.8214 26.7058 24.5219 26.7058Z" fill="#EAEEF9"/>
<path d="M5.71814 86.0867C8.87618 86.0867 11.4363 83.5266 11.4363 80.3685C11.4363 77.2105 8.87618 74.6504 5.71814 74.6504C2.5601 74.6504 0 77.2105 0 80.3685C0 83.5266 2.5601 86.0867 5.71814 86.0867Z" fill="#EAEEF9"/>
<g filter="url(#filter0_d_656_12506)">
<path d="M119.214 101.486C109.026 112.55 94.4301 119.47 78.2182 119.47C65.2798 119.47 53.3705 115.063 43.9102 107.659V16.488C43.9102 13.4722 46.3385 11.0112 49.368 11.0112H103.513L119.214 26.7661V101.486Z" fill="url(#paint0_linear_656_12506)"/>
</g>
<path d="M65.9047 100.33H58.0198C57.7256 100.33 57.4902 99.5678 57.4902 98.6531C57.4902 97.7384 57.7256 96.9761 58.0198 96.9761H65.9047C66.1989 96.9761 66.4343 97.7384 66.4343 98.6531C66.4343 99.7203 66.1989 100.33 65.9047 100.33Z" fill="#D5DDEA"/>
<path d="M83.2557 29.896H58.557C57.9826 29.896 57.4902 29.122 57.4902 28.219C57.4902 27.316 57.9826 26.542 58.557 26.542H83.2557C83.8301 26.542 84.3224 27.316 84.3224 28.219C84.3224 29.122 83.8301 29.896 83.2557 29.896Z" fill="#D6DCE8"/>
<path d="M64.6502 37.7217H58.2118C57.8233 37.7217 57.4902 36.9477 57.4902 36.0447C57.4902 35.1417 57.8233 34.3677 58.2118 34.3677H64.5947C64.9833 34.3677 65.3163 35.1417 65.3163 36.0447C65.3163 36.9477 64.9833 37.7217 64.6502 37.7217Z" fill="#D6DCE8"/>
<path d="M103.623 81.3242H73.0095H69.6354H59.4309C59.0194 81.3242 58.6079 82.023 58.6079 83.0012C58.6079 83.8397 58.9371 84.6782 59.4309 84.6782H69.6354H73.0095H103.623C104.035 84.6782 104.446 83.9795 104.446 83.0012C104.364 82.023 104.035 81.3242 103.623 81.3242Z" fill="#D6DCE8"/>
<path d="M103.622 72.3799H92.2447H88.3698H59.4323C59.0201 72.3799 58.6079 73.0786 58.6079 74.0569C58.6079 74.8954 58.9377 75.7339 59.4323 75.7339H88.3698H92.2447H103.622C104.034 75.7339 104.446 75.0352 104.446 74.0569C104.364 73.0786 104.034 72.3799 103.622 72.3799Z" fill="#D6DCE8"/>
<path d="M104.796 64.5542H101.767H98.7387H59.4492C59.0286 64.5542 58.6079 65.253 58.6079 66.2312C58.6079 67.0697 58.9444 67.9082 59.4492 67.9082H98.7387H102.104H104.712C105.133 67.9082 105.553 67.2095 105.553 66.2312C105.638 65.3927 105.217 64.5542 104.796 64.5542Z" fill="#D6DCE8"/>
<path d="M104.73 55.6099H94.972H92.5532H59.4419C59.0249 55.6099 58.6079 56.3086 58.6079 57.2869C58.6079 58.1254 58.9415 58.9639 59.4419 58.9639H92.5532H94.972H104.647C105.231 58.9639 105.564 58.2651 105.564 57.2869C105.564 56.4484 105.231 55.6099 104.73 55.6099Z" fill="#D6DCE8"/>
<path d="M103.04 11.3833V24.1381C103.04 25.795 104.383 27.1381 106.04 27.1381H119.74" fill="#D5DDEA"/>
<path d="M49.3032 90.5938L43.4607 101.451L37.6182 90.5938V38.4316V30.8799C37.6182 29.8183 38.4837 28.9497 39.5416 28.9497H47.3797C48.4376 28.9497 49.3032 29.8183 49.3032 30.8799V90.5938Z" fill="url(#paint1_linear_656_12506)"/>
<path fill-rule="evenodd" clip-rule="evenodd" d="M37.6182 36.9248H49.3032V38.9248H37.6182V36.9248Z" fill="#AAB2C5"/>
<path fill-rule="evenodd" clip-rule="evenodd" d="M37.6182 89.5933H49.3032V91.5933H37.6182V89.5933Z" fill="#AAB2C5"/>
<defs>
<filter id="filter0_d_656_12506" x="21.9102" y="0.0112305" width="119.304" height="152.459" filterUnits="userSpaceOnUse" color-interpolation-filters="sRGB">
<feFlood flood-opacity="0" result="BackgroundImageFix"/>
<feColorMatrix in="SourceAlpha" type="matrix" values="0 0 0 0 0 0 0 0 0 0 0 0 0 0 0 0 0 0 127 0" result="hardAlpha"/>
<feOffset dy="11"/>
<feGaussianBlur stdDeviation="11"/>
<feColorMatrix type="matrix" values="0 0 0 0 0.397708 0 0 0 0 0.47749 0 0 0 0 0.575 0 0 0 0.27 0"/>
<feBlend mode="normal" in2="BackgroundImageFix" result="effect1_dropShadow_656_12506"/>
<feBlend mode="normal" in="SourceGraphic" in2="effect1_dropShadow_656_12506" result="shape"/>
</filter>
<linearGradient id="paint0_linear_656_12506" x1="81.5374" y1="8.50247" x2="81.5374" y2="120.64" gradientUnits="userSpaceOnUse">
<stop stop-color="#FDFEFF"/>
<stop offset="0.9964" stop-color="#ECF0F5"/>
</linearGradient>
<linearGradient id="paint1_linear_656_12506" x1="43" y1="29.0636" x2="43" y2="90.5636" gradientUnits="userSpaceOnUse">
<stop stop-color="#B0BACC"/>
<stop offset="1" stop-color="#969EAE"/>
</linearGradient>
</defs>
</svg>
