<svg width="17" height="16" viewBox="0 0 17 16" fill="none" xmlns="http://www.w3.org/2000/svg">
<g clip-path="url(#clip0_301_47271)">
<path d="M6.82463 7.33333C8.29739 7.33333 9.49129 6.13943 9.49129 4.66667C9.49129 3.19391 8.29739 2 6.82463 2C5.35187 2 4.15796 3.19391 4.15796 4.66667C4.15796 6.13943 5.35187 7.33333 6.82463 7.33333Z" stroke="#393939" stroke-width="1.5" stroke-linecap="round" stroke-linejoin="round"/>
<path d="M2.82471 14V12.6667C2.82471 11.9594 3.10566 11.2811 3.60576 10.781C4.10585 10.281 4.78413 10 5.49137 10H8.15804C8.86528 10 9.54356 10.281 10.0437 10.781C10.5438 11.2811 10.8247 11.9594 10.8247 12.6667V14" stroke="#393939" stroke-width="1.5" stroke-linecap="round" stroke-linejoin="round"/>
<path d="M11.4915 2.0885C12.0651 2.23537 12.5735 2.56897 12.9365 3.03671C13.2996 3.50445 13.4967 4.07972 13.4967 4.67183C13.4967 5.26395 13.2996 5.83922 12.9365 6.30696C12.5735 6.7747 12.0651 7.1083 11.4915 7.25517" stroke="#393939" stroke-width="1.5" stroke-linecap="round" stroke-linejoin="round"/>
<path d="M14.8247 13.999V12.6657C14.8213 12.0771 14.6233 11.5062 14.2616 11.0419C13.8998 10.5777 13.3946 10.2461 12.8247 10.099" stroke="#393939" stroke-width="1.5" stroke-linecap="round" stroke-linejoin="round"/>
</g>
<defs>
<clipPath id="clip0_301_47271">
<rect width="16" height="16" fill="white" transform="translate(0.824707)"/>
</clipPath>
</defs>
</svg>
