<svg width="199" height="73" viewBox="0 0 199 73" fill="none" xmlns="http://www.w3.org/2000/svg">
<path d="M89.5177 49.843C87.2788 49.8599 85.0543 49.4835 82.9455 48.7309C80.9646 48.0112 79.1497 46.8985 77.6097 45.4596C76.0855 44.0084 74.8883 42.2487 74.0982 40.2981C72.3878 35.9356 72.3878 31.0882 74.0982 26.7258C74.9324 24.6872 76.1732 22.84 77.7451 21.297C79.3223 19.7693 81.2006 18.5872 83.2602 17.8263C85.4587 16.9862 87.7945 16.5633 90.1479 16.5792C91.7839 16.5611 93.414 16.7787 94.9879 17.2252C96.2645 17.5714 97.5019 18.0487 98.6804 18.6494L100.075 17.4258H102.034L102.236 28.9511H100.256C99.4901 26.1038 98.1066 23.4601 96.2034 21.2083C95.4709 20.4141 94.5789 19.7835 93.5859 19.3578C92.5929 18.932 91.5212 18.7208 90.4408 18.7378C89.1307 18.696 87.8348 19.0193 86.6979 19.6716C85.5609 20.3239 84.6278 21.2795 84.0027 22.4317C82.5317 24.8793 81.7962 28.3205 81.7961 32.7553C81.7557 34.922 82.0057 37.0845 82.5394 39.1849C82.9389 40.716 83.61 42.1629 84.5208 43.4569C85.325 44.5315 86.385 45.3881 87.6044 45.9489C89.1486 46.5887 90.8261 46.8402 92.49 46.6813C94.1539 46.5224 95.7534 45.9579 97.1485 45.0373C99.0048 43.6803 100.542 41.9335 101.651 39.9196L103.586 41.0763C102.978 42.3231 102.239 43.5015 101.381 44.5916C100.563 45.6092 99.5996 46.5013 98.5222 47.2392C97.3112 48.0683 95.9839 48.7131 94.5835 49.1526C92.9407 49.643 91.2319 49.8759 89.5177 49.843Z" fill="#2C2A29"/>
<path d="M132.879 48.9969H119.328V47.3727C119.627 47.343 119.979 47.3057 120.385 47.2608C120.696 47.2413 121.001 47.166 121.285 47.0385C121.586 46.8932 121.82 46.6386 121.939 46.3267C122.095 45.8841 122.164 45.4154 122.141 44.9466V34.5351C122.23 33.3277 121.922 32.1244 121.264 31.1082C120.978 30.7333 120.605 30.4339 120.178 30.2361C119.75 30.0383 119.28 29.9482 118.81 29.9735C118.237 29.9689 117.666 30.0594 117.123 30.2415C116.587 30.432 116.079 30.6937 115.613 31.0197C115.223 31.2772 114.868 31.5837 114.556 31.9318C114.299 32.2434 114.082 32.5178 113.903 32.7549V44.7025C113.886 45.149 113.955 45.5946 114.105 46.0154C114.266 46.3534 114.535 46.6277 114.87 46.7942C115.147 46.9487 115.442 47.0684 115.748 47.1504C116.103 47.25 116.464 47.3243 116.828 47.3727V48.9969H103.143V47.3727C103.533 47.343 103.907 47.3057 104.267 47.2608C104.606 47.2251 104.938 47.1505 105.259 47.0385C105.667 46.919 106.013 46.6485 106.227 46.2823C106.423 45.8652 106.516 45.4071 106.497 44.9466V20.1396C106.487 19.618 106.372 19.1037 106.16 18.627C105.972 18.1407 105.643 17.7222 105.214 17.4259C104.81 17.197 104.367 17.0458 103.907 16.9802C103.403 16.8711 102.892 16.7968 102.377 16.7576V15.1332L113.565 14.5547L113.903 14.9111V30.2187H113.993C114.563 29.7142 115.073 29.2618 115.524 28.8614C116.051 28.4 116.615 27.9833 117.211 27.6154C117.884 27.2093 118.612 26.9021 119.373 26.7033C120.319 26.4457 121.296 26.3184 122.277 26.3251C123.284 26.2488 124.296 26.3946 125.241 26.7521C126.186 27.1096 127.041 27.6702 127.745 28.3942C129.026 29.9137 129.685 31.8605 129.592 33.8453V44.7469C129.573 45.1977 129.658 45.647 129.84 46.0598C130.044 46.4215 130.372 46.6979 130.763 46.8385C131.054 46.9654 131.355 47.0697 131.663 47.1504C132.063 47.2518 132.469 47.3261 132.879 47.3727V48.9969Z" fill="#2C2A29"/>
<path d="M149.454 44.9703C149.82 43.9961 150.062 42.9799 150.175 41.9456C150.351 40.5732 150.434 39.1905 150.422 37.8069C150.413 36.6171 150.338 35.4287 150.197 34.2472C150.104 33.1703 149.878 32.1092 149.522 31.0884C149.219 30.2358 148.699 29.4766 148.014 28.8854C147.335 28.335 146.479 28.0503 145.605 28.0843C144.671 28.0387 143.753 28.3489 143.038 28.9524C142.379 29.574 141.878 30.3441 141.576 31.1985C141.234 32.1614 141.015 33.1633 140.923 34.1808C140.8 35.3562 140.74 36.5372 140.742 37.719C140.742 39.3353 140.795 40.6775 140.9 41.7456C141.014 42.8352 141.271 43.905 141.665 44.9274C141.959 45.7727 142.472 46.525 143.152 47.1072C143.84 47.6157 144.671 47.8956 145.527 47.9076C146.383 47.9197 147.221 47.6633 147.923 47.1744C148.624 46.5921 149.153 45.8302 149.454 44.9703ZM155.217 29.5529C156.325 30.5744 157.194 31.8278 157.761 33.2238C158.355 34.6937 158.653 36.2664 158.638 37.8518C158.648 39.451 158.35 41.0372 157.761 42.5241C157.213 43.9439 156.351 45.2216 155.239 46.2617C154.013 47.399 152.564 48.27 150.985 48.82C149.175 49.4414 147.27 49.743 145.357 49.7112C143.638 49.728 141.927 49.465 140.293 48.9325C138.793 48.4315 137.408 47.6373 136.218 46.5962C135.062 45.5827 134.14 44.3299 133.517 42.9247C132.839 41.3748 132.502 39.6978 132.526 38.0066C132.497 36.3861 132.788 34.7758 133.382 33.2679C133.979 31.8582 134.869 30.5918 135.993 29.5529C137.174 28.4724 138.57 27.6534 140.089 27.1494C143.668 25.9919 147.519 25.9919 151.098 27.1494C152.619 27.6641 154.02 28.4817 155.217 29.5529Z" fill="#2C2A29"/>
<path d="M172.535 48.9969H158.422V47.3727C158.812 47.343 159.186 47.3057 159.547 47.2608C159.885 47.2252 160.217 47.1506 160.538 47.0385C160.945 46.9191 161.292 46.6486 161.506 46.2823C161.702 45.8652 161.795 45.407 161.776 44.9466V20.295C161.781 19.7547 161.657 19.2209 161.415 18.738C161.222 18.2859 160.901 17.8997 160.493 17.6262C160.062 17.3792 159.6 17.1919 159.119 17.0695C158.599 16.9068 158.063 16.8022 157.521 16.7576V15.1332L168.844 14.5547L169.182 14.9111V44.6582C169.162 45.121 169.263 45.581 169.474 45.9934C169.694 46.3559 170.026 46.637 170.419 46.7942C170.727 46.9307 171.043 47.0496 171.365 47.1504C171.746 47.2643 172.138 47.3387 172.535 47.3727V48.9969Z" fill="#2C2A29"/>
<path d="M186.522 36.9389C185.683 37.2217 184.85 37.5481 184.025 37.9182C183.306 38.2133 182.625 38.5941 181.998 39.0524C181.439 39.472 180.991 40.0219 180.693 40.6542C180.362 41.3641 180.2 42.1411 180.22 42.9242C180.179 43.3745 180.227 43.8286 180.362 44.2601C180.497 44.6916 180.717 45.092 181.008 45.4381C181.27 45.6931 181.58 45.8934 181.92 46.0273C182.26 46.1611 182.623 46.2259 182.989 46.2177C183.697 46.2467 184.399 46.0768 185.016 45.7271C185.552 45.3902 186.03 44.9695 186.433 44.4811L186.522 36.9389ZM197.711 48.5314C196.95 48.8457 196.168 49.1058 195.371 49.3096C194.436 49.5503 193.475 49.6701 192.51 49.6661C191.105 49.761 189.7 49.4845 188.436 48.8645C187.577 48.3308 186.944 47.4993 186.658 46.5287H186.522C186.058 46.9929 185.561 47.424 185.037 47.8188C184.569 48.1767 184.063 48.4828 183.529 48.7317C182.873 49.04 182.186 49.2782 181.481 49.4424C180.586 49.6298 179.672 49.7123 178.757 49.6881C177.139 49.73 175.559 49.1934 174.3 48.1747C173.701 47.6881 173.222 47.0693 172.902 46.3668C172.582 45.6643 172.428 44.8972 172.454 44.1255C172.431 43.291 172.569 42.4599 172.859 41.6771C173.122 41.0084 173.512 40.3969 174.007 39.876C174.458 39.402 174.982 39.0041 175.56 38.6976C176.195 38.3696 176.849 38.0793 177.519 37.8284C178.87 37.3398 180.49 36.8356 182.381 36.3158C183.796 35.9496 185.181 35.4736 186.522 34.8922V32.7561C186.522 32.3855 186.492 31.8963 186.433 31.2882C186.393 30.7583 186.263 30.239 186.05 29.7521C185.819 29.2196 185.429 28.7714 184.933 28.4688C184.438 28.1662 183.861 28.0238 183.281 28.0612C182.712 28.0447 182.145 28.1432 181.615 28.3508C181.243 28.4955 180.888 28.682 180.558 28.9069C180.648 29.369 180.776 29.823 180.94 30.2642C181.142 30.8284 181.249 31.4224 181.256 32.0217C181.24 32.3495 181.172 32.6727 181.054 32.9787C180.937 33.3202 180.735 33.6263 180.468 33.8682C180.121 34.1657 179.725 34.3994 179.297 34.5583C178.663 34.7514 178.001 34.8343 177.339 34.8035C176.308 34.8791 175.287 34.561 174.481 33.9134C174.161 33.6118 173.909 33.2453 173.742 32.8385C173.575 32.4316 173.496 31.9937 173.512 31.5542C173.516 31.1353 173.605 30.7216 173.776 30.3388C173.946 29.9561 174.193 29.6126 174.502 29.3298C175.215 28.6377 176.046 28.0799 176.956 27.683C177.998 27.2079 179.094 26.8642 180.22 26.6596C181.345 26.4196 182.492 26.293 183.642 26.2817C184.982 26.2742 186.321 26.3633 187.648 26.5483C188.799 26.6911 189.913 27.0456 190.934 27.594C191.873 28.1221 192.639 28.9101 193.141 29.8634C193.744 31.054 194.031 32.3796 193.974 33.7131C193.974 35.3896 193.937 37.3773 193.861 39.6763C193.801 41.9748 193.771 43.4873 193.771 44.2139C193.747 44.7561 193.846 45.2967 194.063 45.7943C194.274 46.1802 194.606 46.4854 195.009 46.6621C195.391 46.8065 195.795 46.8815 196.203 46.8835C196.758 46.9005 197.26 46.9067 197.711 46.9067V48.5314Z" fill="#2C2A29"/>
<path d="M25.4722 34.4167C22.5366 33.2329 20.4509 31.6324 20.9219 27.5719C21.5523 22.1186 30.2253 15.8718 33.0015 12.7785C34.9646 10.5925 35.4178 5.24219 35.4178 5.24219C35.4178 5.24219 38.318 11.1924 34.9454 16.1523C33.5828 18.1553 26.6327 24.8323 25.1958 28.9775C24.8326 29.8472 24.6689 30.7872 24.7167 31.7285C24.7645 32.6697 25.0227 33.5883 25.4722 34.4167Z" fill="#E02728"/>
<path d="M20.535 29.2804C17.6211 28.0465 15.2934 26.0452 15.8344 21.9938C16.5617 16.5521 25.3427 10.4561 28.1751 7.4111C30.1767 5.2581 30.7152 0 30.7152 0C30.7152 0 33.5098 5.9996 30.0493 10.9001C28.6532 12.8783 21.5858 19.4361 20.0754 23.5544C19.6666 24.471 19.4945 25.4756 19.5748 26.476C19.6551 27.4765 19.9853 28.4407 20.535 29.2804Z" fill="#E02728"/>
<path d="M39.679 29.9766C42.614 31.1595 44.7002 32.7611 44.2292 36.8219C43.5988 42.2755 34.9258 48.522 32.1497 51.6151C30.1858 53.8014 29.7325 59.1516 29.7325 59.1516C29.7325 59.1516 26.8327 53.2006 30.2058 48.2407C31.5684 46.2388 38.5184 39.5602 39.9553 35.4163C40.3185 34.5465 40.4822 33.6064 40.4344 32.6651C40.3866 31.7237 40.1284 30.8051 39.679 29.9766Z" fill="#E02728"/>
<path d="M44.615 35.1094C47.5286 36.3432 49.8568 38.3437 49.3153 42.3968C48.5883 47.8383 39.807 53.9337 36.9748 56.9789C34.9738 59.1314 34.4359 64.3901 34.4359 64.3901C34.4359 64.3901 31.6401 58.3899 35.1007 53.4899C36.4982 51.5115 43.5647 44.954 45.0745 40.8362C45.4832 39.9194 45.6553 38.9147 45.575 37.9142C45.4947 36.9136 45.1647 35.9493 44.615 35.1094Z" fill="#E02728"/>
<path d="M34.8197 39.2182C33.6222 42.1192 32.0027 44.1809 27.8946 43.7157C22.3772 43.0929 16.0571 34.5211 12.9269 31.7763C10.7146 29.8358 5.30273 29.3886 5.30273 29.3886C5.30273 29.3886 11.3228 26.5219 16.3409 29.855C18.3674 31.2024 25.1239 38.0726 29.3166 39.492C30.1982 39.8511 31.1478 40.0127 32.0986 39.9654C33.0493 39.9181 33.9782 39.663 34.8197 39.2182Z" fill="#254281"/>
<path d="M29.625 44.1004C28.3767 46.9807 26.3525 49.2817 22.2534 48.7464C16.7472 48.0269 10.58 39.3484 7.499 36.5488C5.3207 34.5713 0 34.038 0 34.038C0 34.038 6.0715 31.2757 11.029 34.6964C13.0303 36.0774 19.6654 43.0617 23.8324 44.5546C24.7613 44.9589 25.7753 45.1289 26.7853 45.0497C27.7953 44.9705 28.7704 44.6445 29.625 44.1004Z" fill="#254281"/>
<path d="M30.3311 25.1725C31.528 22.271 33.1481 20.2096 37.2563 20.6751C42.7736 21.2982 49.0926 29.8705 52.2234 32.6147C54.435 34.555 59.8481 35.0027 59.8481 35.0027C59.8481 35.0027 53.8277 37.8698 48.8094 34.5355C46.7837 33.189 40.0269 26.3196 35.8342 24.8994C34.9526 24.5402 34.0031 24.3786 33.0523 24.4258C32.1016 24.473 31.1727 24.7278 30.3311 25.1725Z" fill="#254281"/>
<path d="M35.5254 20.2935C36.7734 17.4141 38.7973 15.1136 42.8966 15.6478C48.4031 16.3672 54.5703 25.0464 57.6513 27.8459C59.8296 29.8235 65.1495 30.3559 65.1495 30.3559C65.1495 30.3559 59.0788 33.1182 54.1213 29.6978C52.12 28.3179 45.4849 21.3325 41.3179 19.8399C40.389 19.4356 39.3751 19.2655 38.3651 19.3446C37.3551 19.4237 36.38 19.7495 35.5254 20.2935Z" fill="#254281"/>
<path d="M196.606 61.9367C196.073 61.9367 195.474 62.3542 194.809 63.1892C194.225 63.9233 193.781 64.7582 193.498 65.6526L193.644 65.6263C194.582 65.4825 195.466 65.0964 196.21 64.506C196.509 64.2978 196.757 64.0247 196.936 63.7071C197.115 63.3895 197.219 63.0357 197.242 62.672C197.257 62.4755 197.2 62.2804 197.082 62.1226C197.021 62.0587 196.946 62.0089 196.864 61.9768C196.782 61.9447 196.694 61.931 196.606 61.9367ZM194.087 69.5204C193.762 69.536 193.438 69.4865 193.133 69.3749C192.828 69.2634 192.549 69.0919 192.311 68.8707C192.086 68.6411 191.911 68.3676 191.796 68.0673C191.681 67.7669 191.63 67.4462 191.645 67.1251C191.64 66.9124 191.656 66.6997 191.693 66.4901C191.731 66.252 191.779 66.0288 191.835 65.8138C192.207 64.6561 192.924 63.6398 193.89 62.9013C194.715 62.1072 195.793 61.6285 196.935 61.5489C197.331 61.5206 197.724 61.631 198.048 61.861C198.175 61.9704 198.276 62.108 198.342 62.263C198.407 62.418 198.436 62.5862 198.425 62.7542C198.394 63.1886 198.252 63.6079 198.013 63.9717C197.773 64.3356 197.444 64.6319 197.058 64.8323C195.99 65.5002 194.783 65.9155 193.53 66.0463L193.376 66.0638C193.329 66.2371 193.291 66.4129 193.263 66.5904C193.235 66.7702 193.22 66.9518 193.218 67.1338C193.205 67.3504 193.236 67.5676 193.309 67.7718C193.383 67.976 193.498 68.163 193.646 68.3213C193.811 68.4693 194.004 68.5829 194.213 68.6556C194.423 68.7283 194.645 68.7585 194.866 68.7445C195.291 68.7384 195.71 68.6305 196.085 68.4298C196.589 68.1519 197.055 67.81 197.471 67.4126L197.712 67.651C197.179 68.214 196.562 68.691 195.883 69.0648C195.33 69.3592 194.713 69.5155 194.087 69.5204ZM189.793 62.3426L188.428 68.0744C188.194 69.3758 187.704 70.6178 186.985 71.7279C186.763 72.094 186.453 72.3996 186.084 72.6175C185.715 72.8354 185.298 72.9589 184.87 72.977C184.525 72.988 184.187 72.879 183.914 72.6688C183.794 72.5812 183.695 72.4672 183.626 72.3357C183.557 72.2042 183.519 72.0586 183.515 71.9101C183.509 71.7193 183.576 71.5336 183.702 71.3901C183.758 71.3228 183.829 71.2688 183.908 71.2321C183.988 71.1954 184.075 71.1769 184.163 71.1779C184.284 71.1696 184.405 71.1939 184.513 71.2482C184.621 71.3026 184.713 71.385 184.779 71.4869C184.843 71.5859 184.877 71.7015 184.876 71.8195C184.876 71.9375 184.841 72.0528 184.776 72.1513C184.74 72.1969 184.718 72.2518 184.712 72.3096C184.706 72.3674 184.717 72.4257 184.743 72.4776C184.781 72.5245 184.831 72.5609 184.887 72.5835C184.943 72.6061 185.004 72.6142 185.064 72.6069C185.269 72.5969 185.466 72.5317 185.636 72.4183C185.807 72.3049 185.943 72.1475 186.03 71.9629C186.38 71.2829 186.626 70.5551 186.762 69.8029L188.356 62.3426H186.78L186.902 61.7782H188.496C188.783 60.6706 189.254 59.6192 189.891 58.6682C190.132 58.2838 190.464 57.9644 190.858 57.738C191.251 57.5115 191.694 57.3849 192.148 57.3692C192.538 57.3558 192.923 57.4659 193.248 57.6838C193.382 57.7671 193.493 57.883 193.571 58.0207C193.648 58.1584 193.69 58.3134 193.691 58.4714C193.693 58.5706 193.675 58.6692 193.637 58.7612C193.6 58.8531 193.545 58.9366 193.474 59.0066C193.405 59.0765 193.323 59.1316 193.231 59.1685C193.14 59.2054 193.043 59.2234 192.944 59.2213C192.821 59.227 192.699 59.1948 192.594 59.1291C192.489 59.0634 192.407 58.9672 192.359 58.8535C192.3 58.7366 192.274 58.6059 192.284 58.4755C192.294 58.3451 192.339 58.2198 192.415 58.1132C192.489 57.9985 192.495 57.907 192.433 57.84C192.329 57.7604 192.198 57.7245 192.068 57.7398C191.58 57.7398 191.149 58.1008 190.771 58.8208C190.333 59.7564 190.042 60.7539 189.909 61.7782H191.835L191.713 62.3426L189.793 62.3426ZM185.014 57.7923C185.131 57.7909 185.246 57.8143 185.353 57.8609C185.46 57.9076 185.556 57.9764 185.635 58.0629C185.798 58.2458 185.888 58.4822 185.888 58.7272C185.888 58.9722 185.798 59.2086 185.635 59.3916C185.555 59.4769 185.459 59.5449 185.352 59.5914C185.245 59.638 185.13 59.662 185.013 59.662C184.897 59.662 184.781 59.638 184.675 59.5914C184.568 59.5449 184.471 59.4769 184.392 59.3916C184.229 59.2086 184.139 58.9722 184.139 58.7272C184.139 58.4822 184.229 58.2458 184.392 58.0629C184.471 57.9763 184.567 57.9075 184.674 57.8608C184.781 57.8142 184.897 57.7908 185.014 57.7923ZM182.179 67.7454L183.372 63.4185C183.505 62.9363 183.505 62.6304 183.369 62.5011C183.021 62.3318 182.629 62.2764 182.248 62.3426L182.337 62.0251L183.738 61.7898L185.133 61.5489L185.219 61.6342L183.476 67.9242C183.412 68.1041 183.395 68.2972 183.425 68.4857C183.441 68.5432 183.478 68.593 183.527 68.6261C183.577 68.6591 183.637 68.673 183.696 68.6654C183.917 68.6274 184.118 68.5116 184.261 68.3388C184.585 68.0024 184.882 67.6418 185.15 67.2601L185.394 67.4745C185.024 68.0467 184.579 68.5669 184.071 69.0213C183.77 69.3035 183.377 69.4682 182.964 69.4854C182.798 69.5034 182.631 69.4703 182.484 69.3904C182.337 69.3106 182.219 69.1878 182.144 69.0385C182.078 68.8822 182.046 68.7141 182.049 68.5448C182.061 68.2741 182.105 68.0058 182.179 67.7454ZM176.952 67.7482L179.254 58.8832C179.345 58.5214 179.319 58.2982 179.179 58.207C178.783 58.0834 178.367 58.0385 177.954 58.0748L178.04 57.7573C178.587 57.7042 179.06 57.6483 179.462 57.5836C179.869 57.5161 180.354 57.4135 180.916 57.2813L180.993 57.3663L178.251 67.9363C178.184 68.1269 178.17 68.332 178.209 68.5301C178.231 68.5913 178.273 68.6433 178.328 68.6775C178.383 68.7117 178.448 68.7261 178.513 68.7182C178.76 68.6748 178.982 68.5418 179.138 68.3448C179.497 67.9609 179.827 67.5502 180.125 67.1163L180.374 67.3304C179.991 67.9388 179.53 68.4952 179.003 68.9857C178.686 69.2875 178.27 69.4649 177.832 69.4854C177.658 69.5041 177.482 69.4719 177.326 69.3926C177.169 69.3132 177.039 69.1902 176.952 69.0385C176.803 68.6212 176.803 68.1654 176.952 67.7482ZM165.618 69.3263L167.245 63.4185C167.402 62.8513 167.414 62.5011 167.278 62.3717C167.141 62.2426 166.746 62.2338 166.097 62.3426L166.183 62.0251L167.525 61.7898L168.863 61.5489L168.952 61.6342L168.054 65.0379C168.048 65.0763 168.054 65.0969 168.071 65.0938C168.09 65.0907 168.108 65.0676 168.131 65.0292C168.352 64.5939 168.577 64.1798 168.809 63.7919C169.728 62.2954 170.549 61.5477 171.272 61.5489C171.418 61.5369 171.565 61.5621 171.699 61.6223C171.834 61.6824 171.95 61.7755 172.039 61.8929C172.119 62.0214 172.169 62.1664 172.185 62.3171C172.201 62.4677 172.183 62.6201 172.131 62.7626C172.091 62.9331 171.992 63.0841 171.852 63.1892C171.697 63.2893 171.515 63.3386 171.331 63.3301C171.204 63.3354 171.077 63.306 170.965 63.2451C170.857 63.1684 170.77 63.0653 170.712 62.9457C170.677 62.8736 170.629 62.8087 170.57 62.7542C170.521 62.7164 170.462 62.6958 170.401 62.6957C170.023 62.6957 169.483 63.3539 168.782 64.6704C168.371 65.448 168.006 66.2489 167.689 67.0691C167.587 67.3154 167.483 67.6132 167.37 67.9598C167.257 68.3069 167.156 68.6388 167.07 68.9529L166.968 69.3263H165.618ZM162.41 61.9367C161.877 61.9367 161.279 62.3542 160.613 63.1892C160.03 63.9233 159.585 64.7582 159.302 65.6526L159.448 65.6263C160.386 65.4825 161.271 65.0964 162.014 64.506C162.313 64.2977 162.561 64.0246 162.74 63.707C162.919 63.3895 163.023 63.0356 163.046 62.672C163.061 62.4754 163.004 62.2802 162.885 62.1226C162.825 62.0586 162.75 62.0089 162.668 61.9767C162.586 61.9446 162.498 61.9309 162.41 61.9367ZM159.891 69.5204C159.567 69.536 159.242 69.4866 158.937 69.375C158.632 69.2634 158.353 69.0919 158.115 68.8707C157.89 68.6412 157.715 68.3677 157.6 68.0673C157.485 67.767 157.434 67.4462 157.449 67.1251C157.445 66.9124 157.461 66.6997 157.497 66.4901C157.535 66.252 157.583 66.0288 157.64 65.8138C158.012 64.6561 158.729 63.6399 159.695 62.9013C160.52 62.1073 161.597 61.6286 162.74 61.5489C163.135 61.5206 163.529 61.631 163.852 61.861C163.98 61.9703 164.08 62.108 164.146 62.263C164.212 62.418 164.24 62.5862 164.229 62.7542C164.198 63.1887 164.056 63.6079 163.817 63.9718C163.577 64.3357 163.248 64.6319 162.862 64.8323C161.794 65.5002 160.587 65.9154 159.334 66.0463L159.18 66.0638C159.133 66.2371 159.095 66.4129 159.067 66.5904C159.039 66.7702 159.024 66.9518 159.023 67.1338C159.009 67.3504 159.04 67.5676 159.114 67.7718C159.187 67.9761 159.302 68.1631 159.451 68.3213C159.615 68.4693 159.808 68.583 160.018 68.6556C160.227 68.7283 160.449 68.7585 160.67 68.7445C161.096 68.7384 161.514 68.6305 161.889 68.4298C162.393 68.1518 162.859 67.8099 163.275 67.4126L163.516 67.651C162.983 68.2138 162.366 68.6907 161.687 69.0648C161.134 69.3592 160.518 69.5154 159.891 69.5204ZM152.67 67.9857L154.229 62.3426H153.137C153.07 62.3502 153.003 62.3399 152.941 62.3129C152.917 62.2926 152.908 62.2454 152.92 62.1692C152.919 62.1061 152.942 62.0449 152.986 61.9991C153.057 61.9451 153.138 61.9042 153.224 61.8785C153.736 61.6801 154.22 61.4151 154.663 61.0904C155.09 60.7444 155.474 60.3488 155.808 59.912C155.858 59.8503 155.915 59.7957 155.98 59.7498C156.026 59.7169 156.081 59.6986 156.138 59.697C156.159 59.6963 156.181 59.7018 156.199 59.7128C156.218 59.7237 156.233 59.7397 156.242 59.7589C156.254 59.7808 156.261 59.8052 156.262 59.8301C156.264 59.855 156.26 59.88 156.251 59.9032L155.736 61.7782H157.128L157.03 62.3426H155.579L153.97 68.1654C153.924 68.2957 153.915 68.4365 153.946 68.5713C153.964 68.6145 153.995 68.6508 154.035 68.6741C154.076 68.6975 154.123 68.7066 154.169 68.7001C154.297 68.7001 154.472 68.5888 154.701 68.3592C155.029 68.01 155.334 67.64 155.615 67.2513L155.858 67.4745C155.474 68.0549 155.018 68.5835 154.499 69.0473C154.182 69.3335 153.775 69.5007 153.348 69.5204C153.202 69.5423 153.052 69.5195 152.919 69.4551C152.786 69.3906 152.675 69.2874 152.602 69.1591C152.499 68.7706 152.523 68.3595 152.67 67.9857ZM147.714 67.9857L149.271 62.3426H148.18C148.113 62.3504 148.046 62.3401 147.984 62.3129C147.96 62.2926 147.951 62.2454 147.963 62.1692C147.961 62.1061 147.985 62.0449 148.028 61.9991C148.1 61.9451 148.18 61.9042 148.266 61.8785C148.778 61.6802 149.262 61.4152 149.706 61.0904C150.133 60.7445 150.517 60.3489 150.85 59.912C150.9 59.8501 150.958 59.7955 151.023 59.7498C151.069 59.7168 151.124 59.6984 151.181 59.697C151.202 59.6962 151.223 59.7016 151.242 59.7126C151.26 59.7236 151.275 59.7396 151.285 59.7589C151.297 59.7808 151.304 59.8051 151.305 59.83C151.307 59.855 151.303 59.8799 151.294 59.9032L150.779 61.7782H152.17L152.073 62.3426H150.621L149.012 68.1654C148.966 68.2958 148.958 68.4364 148.989 68.5713C149.006 68.6146 149.038 68.6508 149.078 68.6741C149.119 68.6975 149.166 68.7066 149.212 68.7001C149.34 68.7001 149.515 68.5888 149.744 68.3592C150.072 68.0097 150.377 67.6397 150.657 67.2513L150.901 67.4745C150.517 68.0546 150.06 68.5832 149.542 69.0473C149.225 69.3335 148.818 69.5007 148.391 69.5204C148.245 69.5423 148.095 69.5196 147.962 69.4551C147.829 69.3906 147.718 69.2875 147.644 69.1591C147.542 68.7706 147.566 68.3594 147.714 67.9857ZM144.576 61.9367C144.044 61.9367 143.445 62.3542 142.78 63.1892C142.196 63.9232 141.751 64.7582 141.468 65.6526L141.614 65.6263C142.552 65.4824 143.437 65.0963 144.181 64.506C144.479 64.2976 144.727 64.0245 144.906 63.7069C145.085 63.3894 145.189 63.0356 145.212 62.672C145.227 62.4754 145.17 62.2801 145.051 62.1226C144.99 62.0586 144.916 62.0088 144.834 61.9767C144.752 61.9445 144.664 61.9309 144.576 61.9367ZM142.057 69.5204C141.733 69.536 141.408 69.4866 141.103 69.375C140.798 69.2635 140.519 69.092 140.281 68.8707C140.056 68.6412 139.881 68.3677 139.766 68.0673C139.652 67.767 139.6 67.4462 139.615 67.1251C139.611 66.9124 139.627 66.6997 139.663 66.4901C139.701 66.252 139.749 66.0288 139.806 65.8138C140.178 64.656 140.895 63.6398 141.861 62.9013C142.686 62.1072 143.764 61.6285 144.906 61.5489C145.301 61.5206 145.695 61.631 146.018 61.861C146.146 61.9703 146.247 62.108 146.312 62.263C146.378 62.418 146.406 62.5862 146.396 62.7542C146.365 63.1887 146.222 63.6079 145.983 63.9718C145.743 64.3356 145.415 64.6319 145.028 64.8323C143.96 65.5002 142.754 65.9154 141.501 66.0463L141.346 66.0638C141.299 66.2371 141.261 66.4129 141.233 66.5904C141.205 66.7701 141.19 66.9518 141.188 67.1338C141.175 67.3505 141.206 67.5677 141.279 67.7719C141.353 67.9762 141.468 68.1631 141.617 68.3213C141.782 68.4693 141.974 68.583 142.184 68.6557C142.393 68.7284 142.615 68.7585 142.836 68.7445C143.262 68.7384 143.68 68.6305 144.055 68.4298C144.559 68.1519 145.025 67.81 145.441 67.4126L145.682 67.651C145.149 68.2138 144.532 68.6908 143.853 69.0648C143.3 69.3592 142.684 69.5155 142.057 69.5204ZM132.93 69.1148C133.82 69.0474 134.649 68.6376 135.243 67.9716C136.005 67.2621 136.559 66.3587 136.846 65.3582C136.916 65.1037 136.971 64.8457 137.013 64.5854C137.051 64.3579 137.071 64.1278 137.073 63.8973C137.099 63.4949 136.98 63.0965 136.736 62.7751C136.617 62.6406 136.469 62.535 136.304 62.4661C136.138 62.3973 135.959 62.367 135.779 62.3776C135.371 62.4241 134.98 62.5701 134.642 62.8029C134.303 63.0357 134.027 63.348 133.837 63.7126C133.24 64.6214 132.772 65.6084 132.445 66.6457L132.246 67.4044C132.164 67.6877 132.101 67.9764 132.059 68.2685C132.03 68.4164 132.044 68.5695 132.101 68.7094L132.154 68.8032C132.248 68.9153 132.368 69.0026 132.503 69.0569C132.638 69.1113 132.785 69.1312 132.93 69.1148ZM133.261 58.8832C133.358 58.5214 133.338 58.2982 133.195 58.207C132.799 58.0834 132.383 58.0385 131.97 58.0748L132.059 57.7573C132.609 57.7042 133.085 57.6483 133.486 57.5836C133.893 57.5161 134.378 57.4135 134.941 57.2812L135.021 57.3662L133.183 63.9888L133.662 63.3154C133.961 62.8285 134.368 62.4163 134.851 62.1102C135.334 61.8041 135.88 61.6121 136.448 61.5489C136.736 61.5345 137.024 61.5795 137.295 61.6812C137.565 61.7829 137.811 61.9391 138.018 62.1401C138.215 62.3484 138.368 62.5941 138.467 62.8627C138.567 63.1314 138.611 63.4173 138.598 63.7035V63.7388C138.595 63.9407 138.578 64.1421 138.545 64.3413C138.512 64.5651 138.466 64.7869 138.408 65.0054C138.028 66.2544 137.265 67.352 136.225 68.142C135.312 68.9798 134.132 69.468 132.894 69.5204C132.423 69.5247 131.954 69.443 131.512 69.2792C131.141 69.1553 130.809 68.9351 130.551 68.6411L133.261 58.8832ZM122.245 61.9548C121.848 62.0035 121.465 62.138 121.125 62.3491C120.784 62.5602 120.494 62.8428 120.274 63.1773C119.58 64.0289 119.076 65.0189 118.796 66.0811C118.728 66.3099 118.675 66.5429 118.638 66.7785C118.605 66.9746 118.587 67.173 118.584 67.3719C118.562 67.716 118.664 68.0568 118.87 68.3332C118.969 68.4477 119.092 68.5381 119.232 68.5971C119.371 68.6562 119.522 68.6824 119.673 68.6738C120.071 68.6298 120.454 68.4951 120.792 68.2802C121.131 68.0652 121.415 67.7757 121.624 67.4338C122.331 66.4778 122.843 65.3923 123.132 64.2388C123.33 63.6954 123.356 63.104 123.206 62.5454C123.133 62.3548 123 62.1936 122.826 62.0868C122.652 61.98 122.448 61.9336 122.245 61.9548ZM118.864 69.5204C118.621 69.5312 118.378 69.4888 118.152 69.3959C117.927 69.303 117.724 69.1619 117.559 68.9826C117.218 68.5805 117.041 68.0655 117.062 67.5392C117.071 67.3355 117.091 67.1325 117.122 66.931C117.156 66.7061 117.202 66.4832 117.261 66.2635C117.618 65.009 118.312 63.8765 119.268 62.9894C120.019 62.1477 121.067 61.6311 122.191 61.5489C122.515 61.5325 122.834 61.6278 123.096 61.8189C123.358 62.01 123.546 62.2852 123.628 62.5985L123.863 61.6844L125.148 61.5313L123.379 67.9188C123.315 68.0996 123.297 68.2931 123.325 68.4826C123.34 68.541 123.375 68.5921 123.425 68.6263C123.475 68.6604 123.535 68.6753 123.595 68.6682C123.816 68.6395 124.021 68.5344 124.172 68.371C124.482 68.0705 124.765 67.7431 125.017 67.3926L125.261 67.6154C124.904 68.1484 124.479 68.6327 123.997 69.056C123.701 69.3193 123.322 69.4711 122.926 69.4854C122.765 69.5031 122.602 69.4694 122.46 69.3892C122.319 69.309 122.206 69.1863 122.139 69.0385C122.007 68.6152 122.021 68.1601 122.177 67.7454L122.43 66.8336C122.177 67.2799 121.882 67.7013 121.549 68.092C121.235 68.5133 120.831 68.8599 120.367 69.1068C119.902 69.3538 119.389 69.495 118.864 69.5204ZM106.157 69.3263L107.783 63.4185C107.941 62.8513 107.953 62.5011 107.816 62.3717C107.68 62.2426 107.284 62.2338 106.635 62.3426L106.722 62.0251L108.063 61.7898L109.401 61.5489L109.49 61.6342L108.593 65.0379C108.587 65.0763 108.593 65.0969 108.61 65.0938C108.628 65.0907 108.646 65.0676 108.67 65.0292C108.89 64.5939 109.116 64.1798 109.347 63.7919C110.267 62.2954 111.088 61.5477 111.81 61.5489C111.956 61.5367 112.103 61.5619 112.238 61.622C112.372 61.6822 112.489 61.7754 112.577 61.8929C112.657 62.0213 112.707 62.1664 112.724 62.317C112.74 62.4677 112.721 62.6201 112.67 62.7626C112.629 62.9331 112.53 63.0841 112.39 63.1892C112.236 63.2893 112.054 63.3386 111.87 63.3301C111.742 63.3356 111.616 63.3062 111.504 63.2451C111.395 63.1685 111.308 63.0654 111.251 62.9457C111.215 62.8739 111.167 62.8091 111.108 62.7542C111.06 62.7163 111 62.6957 110.939 62.6957C110.561 62.6957 110.022 63.3539 109.321 64.6704C108.909 65.4477 108.544 66.2487 108.227 67.0691C108.126 67.3154 108.021 67.6132 107.908 67.9598C107.796 68.3069 107.694 68.6388 107.608 68.9529L107.507 69.3263H106.157ZM102.948 61.9367C102.416 61.9367 101.817 62.3542 101.152 63.1892C100.568 63.9235 100.124 64.7584 99.8405 65.6526L99.9859 65.6263C100.924 65.4826 101.809 65.0964 102.553 64.506C102.852 64.2978 103.1 64.0247 103.278 63.7071C103.457 63.3895 103.562 63.0356 103.584 62.672C103.599 62.4755 103.542 62.2803 103.424 62.1226C103.363 62.0586 103.289 62.0089 103.206 61.9767C103.124 61.9446 103.036 61.9309 102.948 61.9367ZM100.429 69.5204C100.105 69.536 99.7806 69.4865 99.4757 69.3749C99.1709 69.2634 98.8915 69.0919 98.6539 68.8707C98.4287 68.6412 98.2534 68.3677 98.1388 68.0674C98.0242 67.767 97.9729 67.4462 97.988 67.1251C97.9833 66.9124 97.9991 66.6997 98.0352 66.4901C98.074 66.252 98.1217 66.0288 98.1783 65.8138C98.5501 64.6562 99.2669 63.6399 100.233 62.9013C101.058 62.1074 102.136 61.6287 103.278 61.5489C103.674 61.5206 104.067 61.631 104.39 61.861C104.518 61.9703 104.619 62.108 104.685 62.263C104.75 62.418 104.779 62.5862 104.768 62.7542C104.737 63.1887 104.595 63.608 104.355 63.9718C104.116 64.3357 103.787 64.632 103.4 64.8323C102.332 65.5001 101.126 65.9154 99.8733 66.0463L99.7181 66.0638C99.6715 66.2372 99.6339 66.413 99.6053 66.5904C99.5772 66.7702 99.5624 66.9518 99.561 67.1338C99.5473 67.3505 99.5783 67.5677 99.652 67.7719C99.7256 67.9762 99.8405 68.1632 99.9893 68.3213C100.154 68.4693 100.347 68.583 100.556 68.6556C100.765 68.7283 100.987 68.7585 101.208 68.7445C101.634 68.7385 102.052 68.6306 102.427 68.4298C102.931 68.1519 103.397 67.81 103.814 67.4126L104.054 67.651C103.521 68.2139 102.904 68.6909 102.225 69.0648C101.672 69.3593 101.056 69.5156 100.429 69.5204ZM93.2091 67.9857L94.7672 62.3426H93.6758C93.6089 62.3503 93.5411 62.3401 93.4795 62.3129C93.4555 62.2926 93.4463 62.2454 93.4583 62.1692C93.4569 62.106 93.4806 62.0448 93.5243 61.9991C93.5955 61.9449 93.676 61.904 93.7618 61.8785C94.2741 61.6802 94.758 61.4152 95.201 61.0904C95.6283 60.7446 96.0128 60.349 96.3462 59.912C96.3958 59.85 96.4539 59.7954 96.5188 59.7498C96.5648 59.7169 96.6195 59.6985 96.676 59.697C96.6975 59.6961 96.7188 59.7015 96.7373 59.7125C96.7558 59.7235 96.7707 59.7396 96.7803 59.7589C96.7923 59.7808 96.7994 59.8051 96.8009 59.83C96.8025 59.8549 96.7986 59.8799 96.7894 59.9032L96.2747 61.7782H97.6668L97.5685 62.3426H96.1173L94.5086 68.1654C94.4624 68.2957 94.454 68.4364 94.4843 68.5713C94.5018 68.6146 94.5334 68.6508 94.5739 68.6741C94.6144 68.6975 94.6615 68.7066 94.7078 68.7001C94.8355 68.7001 95.011 68.5888 95.2399 68.3592C95.5679 68.01 95.8728 67.6399 96.1527 67.2513L96.3968 67.4745C96.013 68.0547 95.5563 68.5833 95.0379 69.0473C94.7205 69.3335 94.3136 69.5007 93.8867 69.5204C93.7404 69.5424 93.5908 69.5198 93.4576 69.4553C93.3245 69.3908 93.2139 69.2875 93.1405 69.1591C93.0375 68.7706 93.0615 68.3594 93.2091 67.9857ZM83.8085 69.3263L85.4386 63.4185C85.5718 62.9363 85.5696 62.6305 85.4321 62.5011C85.2983 62.3717 84.9237 62.3194 84.3172 62.3426L84.4032 62.0251L85.8187 61.7898L87.2314 61.5489L87.3234 61.6342L86.1817 65.3294H86.2503C86.5914 64.7587 86.9635 64.2071 87.3651 63.6773C88.4537 62.2579 89.4023 61.5484 90.211 61.5489C90.4335 61.5162 90.6606 61.5564 90.8584 61.6635C91.0562 61.7706 91.214 61.9387 91.3084 62.1429C91.4579 62.7668 91.4153 63.4213 91.1863 64.0207L90.1161 67.9095C90.0473 68.0912 90.0268 68.2877 90.0566 68.4798C90.0709 68.538 90.106 68.5891 90.1554 68.6233C90.2047 68.6574 90.2648 68.6724 90.3244 68.6654C90.5467 68.6281 90.7483 68.5122 90.8923 68.3388C91.2167 68.0043 91.5141 67.6446 91.7816 67.2632L92.0251 67.4776C91.6533 68.0485 91.2074 68.5676 90.6991 69.0213C90.3987 69.3029 90.0073 69.4676 89.5959 69.4854C89.4302 69.504 89.2627 69.4708 89.1167 69.3901C88.9707 69.3095 88.8534 69.1856 88.7809 69.0354C88.6442 68.6135 88.6546 68.1576 88.8106 67.7425L89.9317 63.6741C90.0334 63.3846 90.056 63.0733 89.9972 62.7722C89.9795 62.6771 89.9278 62.5918 89.8517 62.5322C89.7756 62.4726 89.6804 62.4428 89.5839 62.4485C88.9386 62.4485 88.1772 63.0922 87.2997 64.3798C86.7523 65.1804 86.289 66.0353 85.917 66.931C85.8146 67.1602 85.7243 67.3947 85.6467 67.6335C85.5541 67.9067 85.4709 68.1654 85.4026 68.4123L85.1586 69.3263H83.8085ZM72.6475 69.3263L72.7284 69.0444C73.0647 69.0362 73.39 68.9231 73.6589 68.721C73.9017 68.4267 74.0663 68.0758 74.1373 67.701L76.2996 59.8851C76.5076 59.1448 76.5379 58.6654 76.3856 58.451C76.2344 58.2332 75.7911 58.116 75.0538 58.0923L75.131 57.8101H83.9751L83.7048 59.1419L83.4336 60.4735H83.0595C83.1809 59.5857 83.0569 59.0164 82.6874 58.7657C81.8219 58.4311 80.8903 58.3032 79.9667 58.3923H79.14C78.934 58.3751 78.7279 58.4234 78.551 58.5304C78.4004 58.6761 78.2986 58.8649 78.2595 59.0708L77.1826 62.9601H77.4595C78.3001 63.0188 79.1447 62.9344 79.957 62.7104C80.4463 62.3631 80.8039 61.8606 80.9716 61.2845H81.3288L80.7664 63.3335L80.1922 65.3933H79.8173C79.9813 64.5264 79.9424 64.0007 79.705 63.8182C78.9895 63.5554 78.2231 63.4609 77.4652 63.542H77.0222L75.9609 67.3742C75.8066 67.9335 75.8 68.3004 75.9492 68.4826C76.0975 68.6623 76.4672 68.7496 77.0583 68.7445C78.1795 68.7926 79.3005 68.6445 80.3708 68.3069C81.2459 67.8455 81.9797 67.1557 82.4942 66.3107L82.7971 66.4573L82.229 67.8922L81.6674 69.3263H72.6475Z" fill="#454545"/>
</svg>
