<svg width="310" height="300" viewBox="0 0 310 300" fill="none" xmlns="http://www.w3.org/2000/svg">
<rect width="310" height="300" fill="white"/>
<g opacity="0.15" clip-path="url(#clip0_606_9065)">
<mask id="mask0_606_9065" style="mask-type:luminance" maskUnits="userSpaceOnUse" x="35" y="30" width="240" height="240">
<path d="M35 30H275V270H35V30Z" fill="white"/>
</mask>
<g mask="url(#mask0_606_9065)">
<g opacity="0.2">
<path d="M123.039 206.488C123.407 206.319 123.75 206.267 123.993 206.689C123.673 206.633 123.293 206.859 123.039 206.488Z" fill="url(#paint0_radial_606_9065)"/>
</g>
<g filter="url(#filter0_d_606_9065)">
<path d="M-332.059 124.371V98.5602L-354.518 85.6981V59.2367L-332.059 46.3747V20.5642L-354.518 7.70219V-18.7592L-332.059 -31.6208V-57.1064L-354.518 -69.9684V-96.4298L-331.484 -109.659L-308.929 -96.7059L-286.575 -109.66L-264.222 -96.7064L-241.869 -109.66L-219.515 -96.7059L-197.003 -109.659L-174.491 -96.7059L-152.137 -109.66L-129.783 -96.7059L-107.271 -109.659L-84.7593 -96.7059L-62.4053 -109.66L-40.0513 -96.7059L-17.5394 -109.659L4.97247 -96.7059L27.3265 -109.66L49.6804 -96.7059L72.1923 -109.659L94.7042 -96.7059L117.058 -109.66L139.412 -96.7059L161.924 -109.659L184.436 -96.7059L206.79 -109.66L207.03 -109.521L229.144 -96.7059L251.656 -109.659L274.168 -96.7059L296.522 -109.66L296.762 -109.521L318.876 -96.7059L341.388 -109.659L363.9 -96.7059L386.254 -109.66L386.494 -109.521L408.608 -96.7059L431.12 -109.659L453.632 -96.7059L475.986 -109.66L476.226 -109.521L498.339 -96.7059L520.851 -109.659L543.361 -96.7059L565.713 -109.66L565.949 -109.521L588.053 -96.7059L610.547 -109.659L633.503 -96.4298V-70.294L655.963 -57.4319V-30.9705L633.503 -18.1085V7.37663L655.963 20.2387V46.7003L633.503 59.5623V85.3726L655.963 98.2346V124.696L633.503 137.558V163.368L655.963 176.23V202.692L632.954 215.921L610.425 202.968L588.071 215.922L565.718 202.968L543.365 215.922L521.011 202.968L498.499 215.921L475.987 202.968L453.633 215.922L431.279 202.968L408.767 215.921L386.255 202.968L363.901 215.922L341.547 202.968L319.035 215.921L296.523 202.968L274.169 215.922L251.815 202.968L229.303 215.921L206.791 202.968L184.437 215.922L162.083 202.968L139.571 215.921L117.06 202.968L94.7055 215.922L72.3514 202.968L49.8396 215.921L27.3277 202.968L4.97369 215.922L-17.3802 202.968L-39.8922 215.921L-62.4041 202.968L-84.7581 215.922L-107.112 202.968L-129.624 215.921L-152.136 202.968L-174.49 215.922L-196.844 202.968L-219.355 215.921L-241.866 202.968L-264.219 215.922L-286.57 202.968L-309.077 215.921L-332.059 202.692V176.556L-354.518 163.694V137.232L-332.059 124.371ZM-219.117 -17.9248V7.14861L-196.978 19.8269L-174.839 7.14861V-18.0176L-196.82 -30.6944L-219.117 -17.9248ZM-173.984 -18.0176V7.14969L-152.273 19.826L-130.561 7.14947V-18.1085L-152.272 -30.6944L-173.984 -18.0176ZM-129.278 -17.9248V7.14861L-107.246 19.8269L-85.2137 7.14861V-18.0176L-107.087 -30.6944L-129.278 -17.9248ZM-84.358 -18.0176V7.14969L-62.4329 19.826L-40.5078 7.14947V-18.1085L-62.4321 -30.6944L-84.358 -18.0176ZM-39.8661 -17.9248V7.14861L-17.7271 19.8269L4.41199 7.14861V-18.0176L-17.5683 -30.6944L-39.8661 -17.9248ZM5.48151 -18.0176V7.14969L27.4067 19.826L49.3318 7.14947V-18.1085L27.4075 -30.6944L5.48151 -18.0176ZM50.1874 -17.9248V7.14861L72.1125 19.8269L94.0377 7.14861V-18.0176L72.2712 -30.6944L50.1874 -17.9248ZM95.3211 -18.0176V7.14969L117.246 19.826L139.171 7.14947V-18.1085L117.247 -30.6944L95.3211 -18.0176ZM139.599 -17.9248V7.14861L161.738 19.8269L183.877 7.14861V-18.0174L161.897 -30.6944L139.599 -17.9248ZM184.947 -18.0176V7.14969L206.658 19.826L228.369 7.14947V-18.1085L206.659 -30.6944L184.947 -18.0176ZM229.439 -17.9248V7.14861L251.578 19.8269L273.717 7.14861V-18.0174L251.737 -30.6944L229.439 -17.9248ZM274.786 -18.0176V7.14969L296.605 19.826L318.423 7.14969V-18.1083L296.605 -30.6942L274.786 -18.0176ZM319.278 -17.9248V7.14861L341.31 19.8269L363.343 7.14861V-18.0174L341.469 -30.6944L319.278 -17.9248ZM364.198 -18.0176V7.14969L386.123 19.826L408.048 7.14947V-18.1085L386.124 -30.6944L364.198 -18.0176ZM409.332 -17.9248V7.14861L431.257 19.8269L453.182 7.14861V-18.0174L431.416 -30.6944L409.332 -17.9248ZM454.038 -18.0176V7.14969L475.963 19.826L497.888 7.14947V-18.1085L475.964 -30.6944L454.038 -18.0176ZM498.958 -17.9248V7.14861L521.097 19.8269L543.236 7.14861V-18.0174L521.255 -30.6944L498.958 -17.9248ZM565.268 98.7873L543.45 86.111L521.631 98.7873V124.143L543.45 136.819L565.268 124.143V98.7873ZM-152.273 97.8218L-130.561 85.1454V59.7895L-152.273 47.1131L-173.984 59.7895V85.1454L-152.273 97.8218ZM475.856 20.7916L453.824 8.11524L431.792 20.7916V46.1475L453.824 58.8239L475.856 46.1475V20.7916ZM430.722 20.7925L408.69 8.11417L386.658 20.7925V46.1465L408.69 58.8248L430.722 46.1465V20.7925ZM385.589 20.7916L363.877 8.11524L342.166 20.7916V46.1475L363.877 58.8239L385.589 46.1475V20.7916ZM341.097 20.7925L318.957 8.11417L296.818 20.7925V46.1465L318.957 58.8248L341.097 46.1465V20.7925ZM295.963 20.7916L274.038 8.11502L252.113 20.7916V46.1475L274.038 58.8239L295.963 46.1475V20.7916ZM251.257 20.7925L229.225 8.11417L207.193 20.7925V46.1465L229.225 58.8248L251.257 46.1465V20.7925ZM206.123 20.7916L184.198 8.11524L162.273 20.7916V46.1475L184.198 58.8239L206.123 46.1475V20.7916ZM161.203 20.7925L139.492 8.11417L117.781 20.7925V46.1465L139.492 58.8248L161.203 46.1465V20.7925ZM116.711 20.7916L94.7864 8.11524L72.8612 20.7916V46.1475L94.7864 58.8239L116.711 46.1475V20.7916ZM72.0056 20.7925L49.8666 8.11417L27.7275 20.7925V46.1465L49.8666 58.8248L72.0056 46.1465V20.7925ZM26.658 20.7916L4.83984 8.11524L-16.9784 20.7916V46.1475L4.83984 58.8239L26.658 46.1475V20.7916ZM-17.834 20.7925L-39.8661 8.11417L-61.8981 20.7925V46.1465L-39.8661 58.8248L-17.834 46.1465V20.7925ZM-62.9677 20.7916L-84.7859 8.11524L-106.604 20.7916V46.1475L-84.7859 58.8239L-62.9677 46.1475V20.7916ZM-107.46 20.7925L-129.599 8.11417L-151.738 20.7925V46.1465L-129.599 58.8248L-107.46 46.1465V20.7925ZM-107.246 97.8228L-85.2137 85.1445V59.7903L-107.246 47.112L-129.278 59.7903V85.1445L-107.246 97.8228ZM-62.4329 97.8218L-40.5078 85.1454V59.7895L-62.4329 47.1131L-84.358 59.7895V85.1454L-62.4329 97.8218ZM-17.7271 97.8228L4.41199 85.1445V59.7903L-17.7271 47.112L-39.8661 59.7903V85.1445L-17.7271 97.8228ZM27.4067 97.8218L49.3318 85.1454V59.7895L27.4067 47.1131L5.48151 59.7895V85.1454L27.4067 97.8218ZM72.1125 97.8228L94.0377 85.1445V59.7903L72.1125 47.112L50.1874 59.7903V85.1445L72.1125 97.8228ZM117.246 97.8218L139.171 85.1454V59.7895L117.246 47.1131L95.3211 59.7895V85.1454L117.246 97.8218ZM161.738 97.8228L183.877 85.1445V59.7903L161.738 47.112L139.599 59.7903V85.1445L161.738 97.8228ZM206.658 97.8218L228.369 85.1454V59.7895L206.658 47.1131L184.947 59.7895V85.1454L206.658 97.8218ZM251.578 97.8228L273.717 85.1445V59.7903L251.578 47.112L229.439 59.7903V85.1445L251.578 97.8228ZM296.605 97.8218L318.423 85.1454V59.7895L296.605 47.1131L274.786 59.7895V85.1454L296.605 97.8218ZM341.31 97.8228L363.343 85.1445V59.7903L341.31 47.112L319.278 59.7903V85.1445L341.31 97.8228ZM386.123 97.8218L408.048 85.1454V59.7895L386.123 47.1131L364.198 59.7895V85.1454L386.123 97.8218ZM431.257 97.8228L453.182 85.1445V59.7903L431.257 47.112L409.332 59.7903V85.1445L431.257 97.8228ZM475.963 97.8218L497.888 85.1454V59.7895L475.963 47.1131L454.038 59.7895V85.1454L475.963 97.8218ZM521.097 97.8228L543.236 85.1445V59.7903L521.097 47.112L498.958 59.7903V85.1445L521.097 97.8228ZM520.562 20.7925L498.637 8.11417L476.712 20.7925V46.1465L498.637 58.8248L520.562 46.1465V20.7925ZM-196.444 46.1475L-174.625 58.8239L-152.807 46.1475V20.7916L-174.625 8.11524L-196.444 20.7916V46.1475ZM-219.117 85.1445L-196.978 97.8228L-174.839 85.1445V59.7903L-196.978 47.112L-219.117 59.7903V85.1445ZM-196.444 124.143L-174.625 136.819L-152.807 124.143V98.7873L-174.625 86.111L-196.444 98.7873V124.143ZM-151.738 124.142L-129.599 136.82L-107.46 124.142V98.7882L-129.599 86.1099L-151.738 98.7882V124.142ZM-106.604 124.143L-84.7859 136.819L-62.9677 124.143V98.7873L-84.7859 86.111L-106.604 98.7873V124.143ZM-61.8981 124.142L-39.8661 136.82L-17.834 124.142V98.7882L-39.8661 86.1099L-61.8981 98.7882V124.142ZM-16.9784 124.143L4.83984 136.819L26.658 124.143V98.7873L4.83984 86.111L-16.9784 98.7873V124.143ZM27.7275 124.142L49.8666 136.82L72.0056 124.142V98.7882L49.8666 86.1099L27.7275 98.7882V124.142ZM72.8612 124.143L94.7864 136.819L116.711 124.143V98.7873L94.7864 86.111L72.8612 98.7873V124.143ZM117.781 124.142L139.492 136.82L161.203 124.142V98.7882L139.492 86.1099L117.781 98.7882V124.142ZM162.273 124.143L184.198 136.819L206.123 124.143V98.7873L184.198 86.111L162.273 98.7873V124.143ZM207.193 124.142L229.225 136.82L251.257 124.142V98.7882L229.225 86.1099L207.193 98.7882V124.142ZM252.113 124.143L274.038 136.819L295.963 124.143V98.7873L274.038 86.111L252.113 98.7873V124.143ZM296.818 124.142L318.957 136.82L341.097 124.142V98.7882L318.957 86.1099L296.818 98.7882V124.142ZM342.166 124.143L363.877 136.819L385.589 124.143V98.7873L363.877 86.111L342.166 98.7873V124.143ZM386.658 124.142L408.69 136.82L430.722 124.142V98.7882L408.69 86.1099L386.658 98.7882V124.142ZM431.792 124.143L453.824 136.819L475.856 124.143V98.7873L453.824 86.111L431.792 98.7873V124.143ZM476.712 124.142L498.637 136.82L520.562 124.142V98.7882L498.637 86.1099L476.712 98.7882V124.142ZM565.268 20.7916L543.45 8.11524L521.631 20.7916V46.1475L543.45 58.8239L565.268 46.1475V20.7916ZM-241.363 46.1465L-219.438 58.8248L-197.513 46.1465V20.7925L-219.438 8.11417L-241.363 20.7925V46.1465ZM-241.363 124.142L-219.438 136.82L-197.513 124.142V98.7882L-219.438 86.1099L-241.363 98.7882V124.142ZM587.3 59.7895L565.589 47.1131L543.877 59.7895V85.1454L565.589 97.8218L587.3 85.1454V59.7895ZM587.3 7.14947V-18.0176L565.589 -30.694L543.877 -18.0178V7.14947L565.589 19.8258L587.3 7.14947ZM-264.037 7.14947L-242.112 19.8258L-220.187 7.14947V-18.1085L-242.111 -30.6944L-264.037 -18.0176V7.14947ZM-264.037 85.1454L-242.112 97.8218L-220.187 85.1454V59.7895L-242.112 47.1131L-264.037 59.7895V85.1454ZM-264.037 163.141L-242.112 175.817L-220.187 163.141V137.785L-242.112 125.109L-264.037 137.785V163.141ZM-219.117 163.14L-196.978 175.818L-174.839 163.14V137.786L-196.978 125.108L-219.117 137.786V163.14ZM-173.984 163.141L-152.273 175.817L-130.561 163.141V137.785L-152.273 125.109L-173.984 137.785V163.141ZM-129.278 163.14L-107.246 175.818L-85.2137 163.14V137.786L-107.246 125.108L-129.278 137.786V163.14ZM-84.358 163.141L-62.4329 175.817L-40.5078 163.141V137.785L-62.4329 125.109L-84.358 137.785V163.141ZM-39.8661 163.14L-17.7271 175.818L4.41199 163.14V137.786L-17.7271 125.108L-39.8661 137.786V163.14ZM5.48151 163.141L27.4067 175.817L49.3318 163.141V137.785L27.4067 125.109L5.48151 137.785V163.141ZM50.1874 163.14L72.1125 175.818L94.0377 163.14V137.786L72.1125 125.108L50.1874 137.786V163.14ZM95.3211 163.141L117.246 175.817L139.171 163.141V137.785L117.246 125.109L95.3211 137.785V163.141ZM139.599 163.14L161.738 175.818L183.877 163.14V137.786L161.738 125.108L139.599 137.786V163.14ZM184.947 163.141L206.658 175.817L228.369 163.141V137.785L206.658 125.109L184.947 137.785V163.141ZM229.439 163.14L251.578 175.818L273.717 163.14V137.786L251.578 125.108L229.439 137.786V163.14ZM274.786 163.141L296.605 175.817L318.423 163.141V137.785L296.605 125.109L274.786 137.785V163.141ZM319.278 163.14L341.31 175.818L363.343 163.14V137.786L341.31 125.108L319.278 137.786V163.14ZM364.198 163.141L386.123 175.817L408.048 163.141V137.785L386.123 125.109L364.198 137.785V163.141ZM409.332 163.14L431.257 175.818L453.182 163.14V137.786L431.257 125.108L409.332 137.786V163.14ZM454.038 163.141L475.963 175.817L497.888 163.141V137.785L475.963 125.109L454.038 137.785V163.141ZM498.958 163.14L521.097 175.818L543.236 163.14V137.786L521.097 125.108L498.958 137.786V163.14ZM543.877 163.141L565.589 175.817L587.3 163.141V137.785L565.589 125.109L543.877 137.785V163.141ZM565.268 -56.8792L543.45 -69.5555L521.631 -56.8792V-31.6208L543.449 -19.0353L565.268 -31.7117V-56.8792ZM520.562 -56.8783L498.637 -69.5566L476.712 -56.8783V-31.7119L498.478 -19.0353L520.562 -31.8045V-56.8783ZM475.856 -56.8792L453.824 -69.5555L431.792 -56.8792V-31.6208L453.823 -19.0353L475.856 -31.7117V-56.8792ZM430.722 -56.8783L408.69 -69.5566L386.658 -56.8783V-31.7119L408.531 -19.0353L430.722 -31.8045V-56.8783ZM385.589 -56.8792L363.877 -69.5555L342.166 -56.8792V-31.6208L363.876 -19.0353L385.589 -31.7117V-56.8792ZM341.097 -56.8783L318.957 -69.5566L296.818 -56.8783V-31.7119L318.799 -19.0353L341.097 -31.8045V-56.8783ZM295.963 -56.8792L274.038 -69.5555L252.113 -56.8792V-31.6208L274.037 -19.0353L295.963 -31.7117V-56.8792ZM251.257 -56.8783L229.225 -69.5566L207.193 -56.8783V-31.7119L229.066 -19.0353L251.257 -31.8045V-56.8783ZM206.123 -56.8792L184.198 -69.5555L162.273 -56.8792V-31.6208L184.197 -19.0353L206.123 -31.7117V-56.8792ZM161.203 -56.8783L139.492 -69.5566L117.781 -56.8783V-31.7117L139.334 -19.0353L161.203 -31.8045V-56.8783ZM116.711 -56.8792L94.7864 -69.5555L72.8612 -56.8792V-31.6208L94.7855 -19.0353L116.711 -31.7117V-56.8792ZM72.0056 -56.8783L49.8666 -69.5566L27.7275 -56.8783V-31.7117L49.7078 -19.0353L72.0056 -31.8045V-56.8783ZM26.658 -56.8792L4.83984 -69.5555L-16.9784 -56.8792V-31.6208L4.83899 -19.0353L26.658 -31.7117V-56.8792ZM-17.834 -56.8783L-39.8661 -69.5566L-61.8981 -56.8783V-31.7117L-40.0248 -19.0353L-17.834 -31.8045V-56.8783ZM-62.9677 -56.8792L-84.7859 -69.5555L-106.604 -56.8792V-31.6208L-84.7867 -19.0353L-62.9677 -31.7117V-56.8792ZM-107.46 -56.8783L-129.599 -69.5566L-151.738 -56.8783V-31.7117L-129.757 -19.0353L-107.46 -31.8045V-56.8783ZM-152.807 -56.8792L-174.625 -69.5555L-196.444 -56.8792V-31.6208L-174.626 -19.0353L-152.807 -31.7117V-56.8792ZM-197.513 -56.8783L-219.438 -69.5566L-241.363 -56.8783V-31.7117L-219.597 -19.0353L-197.513 -31.8045V-56.8783ZM-242.647 -56.8792L-264.465 -69.5555L-286.283 -56.8792V-31.7117L-264.465 -19.0358L-242.647 -31.7117V-56.8792ZM-286.283 46.1475L-264.465 58.8239L-242.647 46.1475V20.7916L-264.465 8.11524L-286.283 20.7916V46.1475ZM-286.283 124.143L-264.465 136.819L-242.647 124.143V98.7873L-264.465 86.111L-286.283 98.7873V124.143ZM-286.497 125.109L-308.315 137.785V163.141L-286.497 175.817L-264.679 163.141V137.785L-286.497 125.109ZM609.974 98.7873L588.048 86.111L566.123 98.7873V124.143L588.048 136.819L609.974 124.143V98.7873ZM609.974 20.7916L588.048 8.11524L566.123 20.7916V46.1475L588.048 58.8239L609.974 46.1475V20.7916ZM609.974 -56.8792L588.048 -69.5555L566.123 -56.8792V-31.7119L588.049 -19.0353L609.974 -31.6208V-56.8792ZM-308.315 7.14947L-286.497 19.8258L-264.679 7.14947V-18.0178L-286.498 -30.6946L-308.315 -18.1085V7.14947ZM-308.315 85.1454L-286.497 97.8218L-264.679 85.1454V59.7895L-286.497 47.1131L-308.315 59.7895V85.1454ZM632.433 137.786L610.294 125.108L588.155 137.786V163.14L610.294 175.818L632.433 163.14V137.786ZM632.433 59.7903L610.294 47.112L588.155 59.7903V85.1445L610.294 97.8228L632.433 85.1445V59.7903ZM632.433 7.14861V-17.9248L610.136 -30.6944L588.155 -18.0176V7.14861L610.294 19.8269L632.433 7.14861ZM-331.203 -56.8783V-31.8048L-308.905 -19.0353L-286.925 -31.7117V-56.8783L-309.064 -69.5566L-331.203 -56.8783ZM-331.203 46.1465L-309.064 58.8248L-286.925 46.1465V20.7925L-309.064 8.11417L-331.203 20.7925V46.1465ZM-331.203 124.142L-309.064 136.82L-286.925 124.142V98.7882L-309.064 86.1099L-331.203 98.7882V124.142ZM-353.235 163.14L-331.203 175.818L-309.171 163.14V137.786L-331.203 125.108L-353.235 137.786V163.14ZM-309.064 214.816L-286.925 202.138V176.784L-309.064 164.106L-331.203 176.784V202.138L-309.064 214.816ZM-264.465 214.815L-242.647 202.139V176.783L-264.465 164.107L-286.283 176.783V202.139L-264.465 214.815ZM-219.438 214.816L-197.513 202.138V176.784L-219.438 164.106L-241.363 176.784V202.138L-219.438 214.816ZM-174.625 214.815L-152.807 202.139V176.783L-174.625 164.107L-196.444 176.783V202.139L-174.625 214.815ZM-129.599 214.816L-107.46 202.138V176.784L-129.599 164.106L-151.738 176.784V202.138L-129.599 214.816ZM-84.7859 214.815L-62.9677 202.139V176.783L-84.7859 164.107L-106.604 176.783V202.139L-84.7859 214.815ZM-39.8661 214.816L-17.834 202.138V176.784L-39.8661 164.106L-61.8981 176.784V202.138L-39.8661 214.816ZM4.83984 214.815L26.658 202.139V176.783L4.83984 164.107L-16.9784 176.783V202.139L4.83984 214.815ZM49.8666 214.816L72.0056 202.138V176.784L49.8666 164.106L27.7275 176.784V202.138L49.8666 214.816ZM94.7864 214.815L116.711 202.139V176.783L94.7864 164.107L72.8612 176.783V202.139L94.7864 214.815ZM139.492 214.816L161.203 202.138V176.784L139.492 164.106L117.781 176.784V202.138L139.492 214.816ZM184.198 214.815L206.123 202.139V176.783L184.198 164.107L162.273 176.783V202.139L184.198 214.815ZM229.225 214.816L251.257 202.138V176.784L229.225 164.106L207.193 176.784V202.138L229.225 214.816ZM274.038 214.815L295.963 202.139V176.783L274.038 164.107L252.113 176.783V202.139L274.038 214.815ZM318.957 214.816L341.097 202.138V176.784L318.957 164.106L296.818 176.784V202.138L318.957 214.816ZM363.877 214.815L385.589 202.139V176.783L363.877 164.107L342.166 176.783V202.139L363.877 214.815ZM408.69 214.816L430.722 202.138V176.784L408.69 164.106L386.658 176.784V202.138L408.69 214.816ZM453.824 214.815L475.856 202.139V176.783L453.824 164.107L431.792 176.783V202.139L453.824 214.815ZM498.637 214.816L520.562 202.138V176.784L498.637 164.106L476.712 176.784V202.138L498.637 214.816ZM543.45 214.815L565.268 202.139V176.783L543.45 164.107L521.631 176.783V202.139L543.45 214.815ZM588.048 214.815L609.974 202.139V176.783L588.048 164.107L566.123 176.783V202.139L588.048 214.815ZM654.679 176.784L632.754 164.106L610.829 176.784V202.138L632.754 214.816L654.679 202.138V176.784ZM654.679 98.7882L632.754 86.1099L610.829 98.7882V124.142L632.754 136.82L654.679 124.142V98.7882ZM654.679 20.7925L632.754 8.11417L610.829 20.7925V46.1465L632.754 58.8248L654.679 46.1465V20.7925ZM654.679 -56.8783L632.754 -69.5566L610.829 -56.8783V-31.8048L632.998 -18.9864L654.679 -31.5241V-56.8783ZM610.294 -108.554L588.155 -95.8762V-70.522L610.294 -57.8437L632.433 -70.522V-95.8762L610.294 -108.554ZM565.589 -108.554L543.877 -95.8773V-70.5213L565.589 -57.845L587.3 -70.5211V-95.877L565.589 -108.554ZM521.097 -108.554L498.958 -95.8762V-70.522L521.097 -57.8437L543.236 -70.522V-95.8762L521.097 -108.554ZM475.963 -108.554L454.038 -95.8773V-70.5213L475.963 -57.845L497.888 -70.5211V-95.877L475.963 -108.554ZM431.257 -108.554L409.332 -95.8762V-70.522L431.257 -57.8437L453.182 -70.5222V-95.8764L431.257 -108.554ZM386.123 -108.554L364.198 -95.8773V-70.5213L386.123 -57.845L408.048 -70.5211V-95.877L386.123 -108.554ZM341.31 -108.554L319.278 -95.8762V-70.522L341.31 -57.8437L363.343 -70.522V-95.8762L341.31 -108.554ZM296.605 -108.554L274.786 -95.877V-70.5211L296.605 -57.8448L318.423 -70.5211V-95.877L296.605 -108.554ZM251.578 -108.554L229.439 -95.8762V-70.522L251.578 -57.8437L273.717 -70.5222V-95.8764L251.578 -108.554ZM206.658 -108.554L184.947 -95.877V-70.5211L206.658 -57.8448L228.369 -70.5211V-95.877L206.658 -108.554ZM161.738 -108.554L139.599 -95.8762V-70.522L161.738 -57.8437L183.877 -70.5222V-95.8764L161.738 -108.554ZM117.246 -108.554L95.3211 -95.877V-70.5211L117.246 -57.8448L139.171 -70.5211V-95.877L117.246 -108.554ZM72.1125 -108.554L50.1874 -95.8762V-70.522L72.1125 -57.8437L94.0377 -70.5222V-95.8764L72.1125 -108.554ZM27.4067 -108.554L5.48151 -95.8773V-70.5213L27.4067 -57.845L49.3318 -70.5211V-95.877L27.4067 -108.554ZM-17.7271 -108.554L-39.8661 -95.8762V-70.522L-17.7271 -57.8437L4.41199 -70.5222V-95.8764L-17.7271 -108.554ZM-62.4329 -108.554L-84.358 -95.8773V-70.5213L-62.4329 -57.845L-40.5078 -70.5211V-95.877L-62.4329 -108.554ZM-107.246 -108.554L-129.278 -95.8762V-70.522L-107.246 -57.8437L-85.2137 -70.522V-95.8762L-107.246 -108.554ZM-152.273 -108.554L-173.984 -95.8773V-70.5213L-152.273 -57.845L-130.561 -70.5211V-95.877L-152.273 -108.554ZM-196.978 -108.554L-219.117 -95.8762V-70.522L-196.978 -57.8437L-174.839 -70.5222V-95.8764L-196.978 -108.554ZM-242.112 -108.554L-264.037 -95.8773V-70.5213L-242.112 -57.845L-220.187 -70.5211V-95.877L-242.112 -108.554ZM-286.497 -108.554L-308.315 -95.8773V-70.5213L-286.497 -57.845L-264.679 -70.5213V-95.8773L-286.497 -108.554ZM-353.235 -70.5222L-331.203 -57.8439L-309.171 -70.5222V-95.8764L-331.203 -108.555L-353.235 -95.8764V-70.5222ZM-353.235 7.14861L-331.203 19.8269L-309.171 7.14861V-17.9248L-331.447 -30.7434L-353.235 -18.2056V7.14861ZM-353.235 85.1445L-331.203 97.8228L-309.171 85.1445V59.7903L-331.203 47.112L-353.235 59.7903V85.1445Z" fill="url(#paint1_radial_606_9065)" shape-rendering="crispEdges"/>
</g>
<path d="M162.722 52.9396C159.422 52.9396 156.748 50.266 156.748 46.9679C156.748 43.6697 159.422 40.9961 162.722 40.9961C166.021 40.9961 168.695 43.6697 168.695 46.9679C168.695 50.266 166.021 52.9396 162.722 52.9396Z" fill="url(#paint2_radial_606_9065)"/>
<path d="M207.428 52.9396C204.128 52.9396 201.454 50.266 201.454 46.9679C201.454 43.6697 204.128 40.9961 207.428 40.9961C210.727 40.9961 213.401 43.6697 213.401 46.9679C213.401 50.266 210.727 52.9396 207.428 52.9396Z" fill="url(#paint3_radial_606_9065)"/>
<path opacity="0.3" d="M252.453 52.9396C249.154 52.9396 246.479 50.266 246.479 46.9679C246.479 43.6697 249.154 40.9961 252.453 40.9961C255.752 40.9961 258.427 43.6697 258.427 46.9679C258.427 50.266 255.752 52.9396 252.453 52.9396Z" fill="url(#paint4_radial_606_9065)"/>
<path d="M71.7148 52.9396C68.4156 52.9396 65.7411 50.266 65.7411 46.9679C65.7411 43.6697 68.4156 40.9961 71.7148 40.9961C75.014 40.9961 77.6885 43.6697 77.6885 46.9679C77.6885 50.266 75.014 52.9396 71.7148 52.9396Z" fill="url(#paint5_radial_606_9065)"/>
<path d="M116.74 52.9396C113.441 52.9396 110.766 50.266 110.766 46.9679C110.766 43.6697 113.441 40.9961 116.74 40.9961C120.039 40.9961 122.714 43.6697 122.714 46.9679C122.714 50.266 120.039 52.9396 116.74 52.9396Z" fill="url(#paint6_radial_606_9065)"/>
<path d="M162.38 103.701C159.081 103.701 156.407 101.028 156.407 97.7296C156.407 94.4315 159.081 91.7578 162.38 91.7578C165.679 91.7578 168.354 94.4315 168.354 97.7296C168.354 101.028 165.679 103.701 162.38 103.701Z" fill="url(#paint7_radial_606_9065)"/>
<path d="M207.086 103.701C203.787 103.701 201.112 101.028 201.112 97.7296C201.112 94.4315 203.787 91.7578 207.086 91.7578C210.385 91.7578 213.06 94.4315 213.06 97.7296C213.06 101.028 210.385 103.701 207.086 103.701Z" fill="url(#paint8_radial_606_9065)"/>
<path opacity="0.3" d="M252.111 103.701C248.812 103.701 246.138 101.028 246.138 97.7296C246.138 94.4315 248.812 91.7578 252.111 91.7578C255.41 91.7578 258.085 94.4315 258.085 97.7296C258.085 101.028 255.41 103.701 252.111 103.701Z" fill="url(#paint9_radial_606_9065)"/>
<path d="M72.3295 103.701C69.0304 103.701 66.3558 101.028 66.3558 97.7296C66.3558 94.4315 69.0304 91.7578 72.3295 91.7578C75.6287 91.7578 78.3032 94.4315 78.3032 97.7296C78.3032 101.028 75.6287 103.701 72.3295 103.701Z" fill="url(#paint10_radial_606_9065)"/>
<path d="M94.1425 168.453C90.8433 168.453 88.1688 165.78 88.1688 162.482C88.1688 159.184 90.8433 156.51 94.1425 156.51C97.4417 156.51 100.116 159.184 100.116 162.482C100.116 165.78 97.4417 168.453 94.1425 168.453Z" fill="url(#paint11_radial_606_9065)"/>
<path d="M49.4912 142.408C46.192 142.408 43.5175 139.735 43.5175 136.437C43.5175 133.138 46.192 130.465 49.4912 130.465C52.7903 130.465 55.4648 133.138 55.4648 136.437C55.4648 139.735 52.7903 142.408 49.4912 142.408Z" fill="url(#paint12_radial_606_9065)"/>
<path d="M117.355 103.701C114.056 103.701 111.381 101.028 111.381 97.7296C111.381 94.4315 114.056 91.7578 117.355 91.7578C120.654 91.7578 123.329 94.4315 123.329 97.7296C123.329 101.028 120.654 103.701 117.355 103.701Z" fill="url(#paint13_radial_606_9065)"/>
<path d="M133.488 136.675C133.488 133.377 136.163 130.703 139.462 130.703C142.761 130.703 145.436 133.377 145.436 136.675C145.436 139.973 142.761 142.647 139.462 142.647C136.163 142.647 133.488 139.973 133.488 136.675Z" fill="url(#paint14_radial_606_9065)"/>
<path opacity="0.3" d="M88.7831 136.675C88.7831 133.377 91.4575 130.703 94.7568 130.703C98.056 130.703 100.73 133.377 100.73 136.675C100.73 139.973 98.056 142.647 94.7568 142.647C91.4575 142.647 88.7831 139.973 88.7831 136.675Z" fill="url(#paint15_radial_606_9065)"/>
<path d="M178.194 136.675C178.194 133.377 180.869 130.703 184.168 130.703C187.467 130.703 190.142 133.377 190.142 136.675C190.142 139.973 187.467 142.647 184.168 142.647C180.869 142.647 178.194 139.973 178.194 136.675Z" fill="url(#paint16_radial_606_9065)"/>
<path opacity="0.3" d="M223.22 136.675C223.22 133.377 225.894 130.703 229.193 130.703C232.493 130.703 235.167 133.377 235.167 136.675C235.167 139.973 232.493 142.647 229.193 142.647C225.894 142.647 223.22 139.973 223.22 136.675Z" fill="url(#paint17_radial_606_9065)"/>
<path opacity="0.3" d="M111.606 181.594C108.307 181.594 105.633 178.92 105.633 175.622C105.633 172.324 108.307 169.65 111.606 169.65C114.906 169.65 117.58 172.324 117.58 175.622C117.58 178.92 114.906 181.594 111.606 181.594Z" fill="url(#paint18_radial_606_9065)"/>
<path d="M156.632 181.594C153.333 181.594 150.658 178.92 150.658 175.622C150.658 172.324 153.333 169.65 156.632 169.65C159.931 169.65 162.605 172.324 162.605 175.622C162.605 178.92 159.931 181.594 156.632 181.594Z" fill="url(#paint19_radial_606_9065)"/>
<path opacity="0.3" d="M201.998 181.594C198.699 181.594 196.025 178.92 196.025 175.622C196.025 172.324 198.699 169.65 201.998 169.65C205.298 169.65 207.972 172.324 207.972 175.622C207.972 178.92 205.298 181.594 201.998 181.594Z" fill="url(#paint20_radial_606_9065)"/>
</g>
</g>
<defs>
<filter id="filter0_d_606_9065" x="-360.519" y="-110.66" width="1018.48" height="333.582" filterUnits="userSpaceOnUse" color-interpolation-filters="sRGB">
<feFlood flood-opacity="0" result="BackgroundImageFix"/>
<feColorMatrix in="SourceAlpha" type="matrix" values="0 0 0 0 0 0 0 0 0 0 0 0 0 0 0 0 0 0 127 0" result="hardAlpha"/>
<feOffset dx="-2" dy="3"/>
<feGaussianBlur stdDeviation="2"/>
<feComposite in2="hardAlpha" operator="out"/>
<feColorMatrix type="matrix" values="0 0 0 0 0 0 0 0 0 0 0 0 0 0 0 0 0 0 0.25 0"/>
<feBlend mode="normal" in2="BackgroundImageFix" result="effect1_dropShadow_606_9065"/>
<feBlend mode="normal" in="SourceGraphic" in2="effect1_dropShadow_606_9065" result="shape"/>
</filter>
<radialGradient id="paint0_radial_606_9065" cx="0" cy="0" r="1" gradientUnits="userSpaceOnUse" gradientTransform="translate(123.516 206.535) rotate(180) scale(0.358429 0.358319)">
<stop stop-color="#55FFFC"/>
<stop offset="0.4363" stop-color="#53F8F6"/>
<stop offset="0.9931" stop-color="#080E28"/>
</radialGradient>
<radialGradient id="paint1_radial_606_9065" cx="0" cy="0" r="1" gradientUnits="userSpaceOnUse" gradientTransform="translate(93.6046 25.3471) rotate(47.1747) scale(208.006 207.941)">
<stop stop-color="#007BFF"/>
<stop offset="0.513493" stop-color="#2FDDD0"/>
<stop offset="1" stop-color="white" stop-opacity="0"/>
</radialGradient>
<radialGradient id="paint2_radial_606_9065" cx="0" cy="0" r="1" gradientUnits="userSpaceOnUse" gradientTransform="translate(162.722 46.968) rotate(180) scale(5.97367 5.9718)">
<stop stop-color="white"/>
<stop offset="0.335" stop-color="#9AFFFF"/>
<stop offset="1" stop-color="white" stop-opacity="0"/>
</radialGradient>
<radialGradient id="paint3_radial_606_9065" cx="0" cy="0" r="1" gradientUnits="userSpaceOnUse" gradientTransform="translate(207.428 46.968) rotate(180) scale(5.97367 5.9718)">
<stop stop-color="white"/>
<stop offset="0.335" stop-color="#9AFFFF"/>
<stop offset="1" stop-color="white" stop-opacity="0"/>
</radialGradient>
<radialGradient id="paint4_radial_606_9065" cx="0" cy="0" r="1" gradientUnits="userSpaceOnUse" gradientTransform="translate(252.453 46.968) rotate(180) scale(5.97367 5.9718)">
<stop stop-color="white"/>
<stop offset="0.335" stop-color="#9AFFFF"/>
<stop offset="1" stop-color="white" stop-opacity="0"/>
</radialGradient>
<radialGradient id="paint5_radial_606_9065" cx="0" cy="0" r="1" gradientUnits="userSpaceOnUse" gradientTransform="translate(71.7148 46.968) rotate(180) scale(5.97367 5.9718)">
<stop stop-color="white"/>
<stop offset="0.335" stop-color="#9AFFFF"/>
<stop offset="1" stop-color="white" stop-opacity="0"/>
</radialGradient>
<radialGradient id="paint6_radial_606_9065" cx="0" cy="0" r="1" gradientUnits="userSpaceOnUse" gradientTransform="translate(116.74 46.968) rotate(180) scale(5.97367 5.9718)">
<stop stop-color="white"/>
<stop offset="0.335" stop-color="#9AFFFF"/>
<stop offset="1" stop-color="white" stop-opacity="0"/>
</radialGradient>
<radialGradient id="paint7_radial_606_9065" cx="0" cy="0" r="1" gradientUnits="userSpaceOnUse" gradientTransform="translate(162.38 97.7298) rotate(180) scale(5.97367 5.9718)">
<stop stop-color="white"/>
<stop offset="0.335" stop-color="#9AFFFF"/>
<stop offset="1" stop-color="white" stop-opacity="0"/>
</radialGradient>
<radialGradient id="paint8_radial_606_9065" cx="0" cy="0" r="1" gradientUnits="userSpaceOnUse" gradientTransform="translate(207.086 97.7298) rotate(180) scale(5.97367 5.9718)">
<stop stop-color="white"/>
<stop offset="0.335" stop-color="#9AFFFF"/>
<stop offset="1" stop-color="white" stop-opacity="0"/>
</radialGradient>
<radialGradient id="paint9_radial_606_9065" cx="0" cy="0" r="1" gradientUnits="userSpaceOnUse" gradientTransform="translate(252.111 97.7298) rotate(180) scale(5.97367 5.9718)">
<stop stop-color="white"/>
<stop offset="0.335" stop-color="#9AFFFF"/>
<stop offset="1" stop-color="white" stop-opacity="0"/>
</radialGradient>
<radialGradient id="paint10_radial_606_9065" cx="0" cy="0" r="1" gradientUnits="userSpaceOnUse" gradientTransform="translate(72.3295 97.7298) rotate(180) scale(5.97367 5.9718)">
<stop stop-color="white"/>
<stop offset="0.335" stop-color="#9AFFFF"/>
<stop offset="1" stop-color="white" stop-opacity="0"/>
</radialGradient>
<radialGradient id="paint11_radial_606_9065" cx="0" cy="0" r="1" gradientUnits="userSpaceOnUse" gradientTransform="translate(94.1425 162.482) rotate(180) scale(5.97367 5.9718)">
<stop stop-color="white"/>
<stop offset="0.335" stop-color="#9AFFFF"/>
<stop offset="1" stop-color="white" stop-opacity="0"/>
</radialGradient>
<radialGradient id="paint12_radial_606_9065" cx="0" cy="0" r="1" gradientUnits="userSpaceOnUse" gradientTransform="translate(49.4912 136.437) rotate(180) scale(5.97367 5.9718)">
<stop stop-color="white"/>
<stop offset="0.335" stop-color="#9AFFFF"/>
<stop offset="1" stop-color="white" stop-opacity="0"/>
</radialGradient>
<radialGradient id="paint13_radial_606_9065" cx="0" cy="0" r="1" gradientUnits="userSpaceOnUse" gradientTransform="translate(117.355 97.7298) rotate(180) scale(5.97367 5.9718)">
<stop stop-color="white"/>
<stop offset="0.335" stop-color="#9AFFFF"/>
<stop offset="1" stop-color="white" stop-opacity="0"/>
</radialGradient>
<radialGradient id="paint14_radial_606_9065" cx="0" cy="0" r="1" gradientUnits="userSpaceOnUse" gradientTransform="translate(139.462 136.675) rotate(180) scale(5.97367 5.9718)">
<stop stop-color="white"/>
<stop offset="0.335" stop-color="#9AFFFF"/>
<stop offset="1" stop-color="white" stop-opacity="0"/>
</radialGradient>
<radialGradient id="paint15_radial_606_9065" cx="0" cy="0" r="1" gradientUnits="userSpaceOnUse" gradientTransform="translate(94.7568 136.675) rotate(180) scale(5.97367 5.9718)">
<stop stop-color="white"/>
<stop offset="0.335" stop-color="#9AFFFF"/>
<stop offset="1" stop-color="white" stop-opacity="0"/>
</radialGradient>
<radialGradient id="paint16_radial_606_9065" cx="0" cy="0" r="1" gradientUnits="userSpaceOnUse" gradientTransform="translate(184.168 136.675) rotate(180) scale(5.97367 5.9718)">
<stop stop-color="white"/>
<stop offset="0.335" stop-color="#9AFFFF"/>
<stop offset="1" stop-color="white" stop-opacity="0"/>
</radialGradient>
<radialGradient id="paint17_radial_606_9065" cx="0" cy="0" r="1" gradientUnits="userSpaceOnUse" gradientTransform="translate(229.193 136.675) rotate(180) scale(5.97367 5.9718)">
<stop stop-color="white"/>
<stop offset="0.335" stop-color="#9AFFFF"/>
<stop offset="1" stop-color="white" stop-opacity="0"/>
</radialGradient>
<radialGradient id="paint18_radial_606_9065" cx="0" cy="0" r="1" gradientUnits="userSpaceOnUse" gradientTransform="translate(111.606 175.622) rotate(180) scale(5.97367 5.9718)">
<stop stop-color="white"/>
<stop offset="0.335" stop-color="#9AFFFF"/>
<stop offset="1" stop-color="white" stop-opacity="0"/>
</radialGradient>
<radialGradient id="paint19_radial_606_9065" cx="0" cy="0" r="1" gradientUnits="userSpaceOnUse" gradientTransform="translate(156.632 175.622) rotate(180) scale(5.97367 5.9718)">
<stop stop-color="white"/>
<stop offset="0.335" stop-color="#9AFFFF"/>
<stop offset="1" stop-color="white" stop-opacity="0"/>
</radialGradient>
<radialGradient id="paint20_radial_606_9065" cx="0" cy="0" r="1" gradientUnits="userSpaceOnUse" gradientTransform="translate(201.998 175.622) rotate(180) scale(5.97367 5.9718)">
<stop stop-color="white"/>
<stop offset="0.335" stop-color="#9AFFFF"/>
<stop offset="1" stop-color="white" stop-opacity="0"/>
</radialGradient>
<clipPath id="clip0_606_9065">
<rect width="240" height="240" fill="white" transform="matrix(-1 0 0 1 275 30)"/>
</clipPath>
</defs>
</svg>
