<svg width="25" height="25" viewBox="0 0 25 25" fill="none" xmlns="http://www.w3.org/2000/svg">
<path opacity="0.2" d="M16.69 2.0791H8.31C4.67 2.0791 2.5 4.2491 2.5 7.8891V16.2591C2.5 19.9091 4.67 22.0791 8.31 22.0791H16.68C20.32 22.0791 22.49 19.9091 22.49 16.2691V7.8891C22.5 4.2491 20.33 2.0791 16.69 2.0791Z" fill="#0086FF"/>
<path d="M16.5 11.3291H13.25V8.0791C13.25 7.6691 12.91 7.3291 12.5 7.3291C12.09 7.3291 11.75 7.6691 11.75 8.0791V11.3291H8.5C8.09 11.3291 7.75 11.6691 7.75 12.0791C7.75 12.4891 8.09 12.8291 8.5 12.8291H11.75V16.0791C11.75 16.4891 12.09 16.8291 12.5 16.8291C12.91 16.8291 13.25 16.4891 13.25 16.0791V12.8291H16.5C16.91 12.8291 17.25 12.4891 17.25 12.0791C17.25 11.6691 16.91 11.3291 16.5 11.3291Z" fill="#0086FF"/>
</svg>
