<svg width="50" height="54" viewBox="0 0 50 54" fill="none" xmlns="http://www.w3.org/2000/svg">
<path d="M49.8624 45.7763L0.121094 45.0791L1.60957 12.5588L49.2971 13.369L49.8624 45.7763Z" fill="white"/>
<path d="M49.8628 45.9156L0.0201716 45.1747C-0.0449563 45.1057 -0.0123923 45.1572 1.4708 12.5526C1.47246 12.5164 1.48816 12.4823 1.51456 12.4575C1.54096 12.4327 1.57598 12.4192 1.61219 12.4198L49.2997 13.23C49.3358 13.2306 49.3703 13.2452 49.3958 13.2707C49.4214 13.2962 49.436 13.3306 49.4367 13.3667L50.0019 45.7739C50.0023 45.7924 49.9989 45.8108 49.9921 45.828C49.9852 45.8451 49.975 45.8608 49.9621 45.874C49.9491 45.8871 49.9337 45.8976 49.9166 45.9048C49.8996 45.9119 49.8813 45.9156 49.8628 45.9156ZM0.267045 44.9423L49.7211 45.6353L49.1606 13.5061L1.74244 12.7004L0.266767 44.942L0.267045 44.9423Z" fill="#414141"/>
<path d="M33.8663 11.2777L11.0117 13.7648C11.4826 14.7445 13.8192 43.9488 13.8192 43.9488L38.8595 41.9894L33.8666 11.278H33.8663V11.2777Z" fill="#016DAB"/>
<path d="M14.5182 22.4856C14.5001 22.4798 14.4834 22.4704 14.4691 22.4579C14.4548 22.4454 14.4432 22.4301 14.435 22.413C14.4269 22.3959 14.4223 22.3772 14.4216 22.3583C14.4208 22.3393 14.424 22.3204 14.4309 22.3027C14.4369 22.2848 14.4465 22.2683 14.4591 22.2541C14.4716 22.24 14.4869 22.2285 14.5039 22.2204C14.521 22.2122 14.5395 22.2076 14.5584 22.2067C14.5773 22.2059 14.5961 22.2088 14.6139 22.2154C15.261 22.4738 16.2809 21.692 16.3651 21.6053C15.3403 20.6245 15.7202 18.61 16.8507 18.9005C17.3326 19.024 17.6875 20.4025 16.7802 21.5671C18.0265 22.2565 19.3763 21.4525 19.8436 21.0359C19.5322 20.6986 19.3359 20.2712 19.2829 19.8153C19.0766 18.3019 20.9023 18.2594 20.8116 19.7353C20.7766 20.2172 20.5794 20.6731 20.2522 21.0287C21.3599 21.8109 22.8993 21.0744 23.2448 20.74C22.9555 20.4151 22.774 20.0085 22.7254 19.5763C22.4737 17.915 24.061 17.8357 24.1633 19.2853C24.1795 19.5459 24.143 19.8071 24.0561 20.0533C23.9691 20.2995 23.8335 20.5257 23.6572 20.7183C24.0094 20.9637 25.3547 20.9751 26.0498 19.9819C25.6775 19.4613 25.4477 18.5129 25.9894 18.1674C26.3998 17.9058 26.9742 18.2348 26.8208 19.092C26.7567 19.4141 26.6186 19.7167 26.4174 19.9762C27.1355 20.7299 28.5211 20.1641 28.8683 19.8304C28.5855 19.532 28.4134 19.1458 28.3806 18.736C28.243 17.3118 29.7024 17.3499 29.7353 18.5863C29.7358 19.0366 29.5727 19.4717 29.2763 19.8108C29.684 20.1141 31.2672 20.0606 31.9689 18.6791C32.0047 18.6088 32.0592 18.5505 32.1381 18.5667C32.217 18.5828 32.289 18.6649 32.2505 18.7359C31.9817 19.3161 31.5037 19.7734 30.9121 20.0163C30.3205 20.2591 29.659 20.2696 29.06 20.0456C28.6612 20.4236 27.1457 21.0198 26.2322 20.2038C25.9047 20.6023 25.4596 20.887 24.9605 21.0173C24.4615 21.1476 23.934 21.1168 23.4535 20.9293C22.9803 21.311 22.4045 21.5436 21.7991 21.5978C21.1936 21.6519 20.5857 21.5251 20.0523 21.2334C19.59 21.6501 19.0171 21.9243 18.4026 22.0229C17.7881 22.1216 17.1581 22.0405 16.5886 21.7894C16.4956 21.886 15.4027 22.7144 14.5182 22.4856ZM16.5988 19.1465C16.1961 19.1962 15.9596 19.8358 16.0758 20.4351C16.1313 20.7957 16.2983 21.1298 16.5534 21.3907C17.3823 20.3252 17.037 19.092 16.5988 19.1462L16.5988 19.1465ZM23.3482 18.549C22.9905 18.5933 22.943 19.098 23.0091 19.5339C23.0495 19.9009 23.1992 20.2472 23.439 20.528C23.7292 20.1877 23.8851 19.7532 23.8775 19.306C23.847 18.8771 23.6646 18.5096 23.3481 18.5487L23.3482 18.549ZM19.9767 18.9429C19.5842 18.9914 19.5171 19.4217 19.5672 19.7777C19.6112 20.1722 19.7776 20.5431 20.0431 20.8382C20.3269 20.5307 20.4969 20.1354 20.525 19.7179C20.5463 19.3763 20.3407 18.8976 19.9767 18.9426L19.9767 18.9429ZM28.981 17.952C28.6912 17.9878 28.6331 18.3694 28.666 18.7096C28.6931 19.0488 28.8328 19.3692 29.0629 19.6199C29.7379 18.7806 29.4035 17.8989 28.9809 17.9511L28.981 17.952ZM26.251 18.3706C25.9883 18.4031 25.9227 18.7362 25.9667 19.0182C26.0048 19.2767 26.0969 19.5243 26.2368 19.7449C26.768 18.9741 26.5184 18.3366 26.2509 18.3697L26.251 18.3706Z" fill="#87E4FF"/>
<path d="M32.1047 24.512C32.1047 24.512 27.9154 24.9352 23.3195 25.4736C23.2827 25.4765 23.2462 25.465 23.2176 25.4416C23.189 25.4183 23.1706 25.3848 23.166 25.3481C23.1615 25.3115 23.1713 25.2745 23.1933 25.2449C23.2153 25.2152 23.248 25.1952 23.2844 25.189C23.2844 25.189 30.8422 24.3263 32.0758 24.2269C32.1136 24.223 32.1514 24.2343 32.1809 24.2583C32.2103 24.2823 32.2291 24.3171 32.2329 24.3549C32.2368 24.3927 32.2255 24.4305 32.2015 24.4599C32.1775 24.4894 32.1428 24.5081 32.105 24.512L32.1047 24.512Z" fill="#414141"/>
<path d="M19.8331 25.8791L15.6018 26.402C15.563 26.4053 15.5245 26.3933 15.4945 26.3684C15.4645 26.3436 15.4454 26.308 15.4414 26.2693C15.4391 26.2506 15.4405 26.2317 15.4455 26.2136C15.4505 26.1955 15.4591 26.1785 15.4706 26.1637C15.4822 26.1489 15.4966 26.1365 15.513 26.1273C15.5293 26.1181 15.5474 26.1121 15.566 26.1099C15.566 26.1099 17.3661 25.8901 19.7992 25.5998C19.8179 25.5975 19.8368 25.599 19.8549 25.6041C19.873 25.6092 19.8899 25.6178 19.9047 25.6294C19.9195 25.6411 19.9319 25.6555 19.9411 25.6719C19.9503 25.6883 19.9562 25.7064 19.9584 25.725C19.9606 25.7434 19.9592 25.7621 19.954 25.7799C19.9489 25.7977 19.9402 25.8143 19.9285 25.8287C19.9168 25.8431 19.9023 25.855 19.8859 25.8636C19.8695 25.8723 19.8516 25.8775 19.8331 25.8791Z" fill="#414141"/>
<path d="M18.4386 16.5481L14.2073 17.0711C14.1685 17.0744 14.13 17.0623 14.1 17.0375C14.07 17.0127 14.0509 16.9771 14.0469 16.9384C14.0446 16.9197 14.0459 16.9008 14.051 16.8827C14.056 16.8646 14.0645 16.8476 14.0761 16.8328C14.0877 16.818 14.1021 16.8056 14.1184 16.7964C14.1348 16.7871 14.1528 16.7812 14.1715 16.7789C14.1715 16.7789 15.9716 16.5592 18.4047 16.2688C18.4233 16.2666 18.4423 16.2681 18.4604 16.2732C18.4785 16.2783 18.4954 16.2869 18.5102 16.2985C18.525 16.3101 18.5373 16.3246 18.5465 16.341C18.5557 16.3574 18.5616 16.3754 18.5639 16.3941C18.5661 16.4125 18.5646 16.4312 18.5595 16.449C18.5543 16.4668 18.5457 16.4834 18.534 16.4978C18.5223 16.5122 18.5078 16.524 18.4914 16.5327C18.475 16.5413 18.457 16.5466 18.4386 16.5481Z" fill="#414141"/>
<path d="M32.4046 27.8358C32.4046 27.8358 16.1517 29.7342 16.0149 29.7505C15.978 29.7533 15.9415 29.7419 15.9129 29.7185C15.8844 29.6951 15.8659 29.6616 15.8613 29.625C15.8568 29.5883 15.8666 29.5513 15.8886 29.5217C15.9107 29.4921 15.9433 29.4721 15.9797 29.4659C15.9797 29.4659 29.6993 27.8373 32.3713 27.5513C32.409 27.5469 32.4469 27.5578 32.4767 27.5814C32.5065 27.605 32.5256 27.6395 32.53 27.6772C32.5343 27.715 32.5235 27.7529 32.4998 27.7826C32.4762 27.8124 32.4418 27.8316 32.404 27.8359L32.4046 27.8358Z" fill="#414141"/>
<path d="M22.4633 34.9059C22.0682 35.2532 21.5782 35.4744 21.0564 35.541C20.5345 35.6076 20.0047 35.5166 19.5349 35.2797C19.3084 35.4908 17.8538 36.1997 16.9434 35.441C16.918 35.4154 16.9031 35.3811 16.9018 35.345C16.9006 35.3089 16.913 35.2736 16.9365 35.2462C16.9601 35.2189 16.9932 35.2014 17.0291 35.1973C17.065 35.1932 17.1011 35.2028 17.1302 35.2242C17.9228 35.7832 19.1356 35.2583 19.3316 35.0763C19.0399 34.7162 18.8751 34.2701 18.8625 33.8069C18.7598 32.0918 20.6948 31.8749 20.305 33.8388C20.2205 34.2914 20.0236 34.7154 19.7323 35.0719C20.0415 35.3294 21.4106 35.5432 22.2779 34.6822C22.0344 34.345 21.8807 33.9513 21.8314 33.5382C21.6416 32.0029 23.6622 31.6659 23.3443 33.5852C23.2432 34.0177 23.0114 34.4086 22.6805 34.7048C23.7149 35.6996 25.3104 34.9333 25.7509 34.5273C25.4041 34.1348 25.1833 33.6471 25.1174 33.1275C24.8248 31.3745 27.073 31.4671 26.7804 33.2497C26.6973 33.7192 26.4841 34.1559 26.1651 34.5103C27.2393 35.1804 28.4156 34.5083 28.8643 34.1019C28.5159 33.8063 28.2909 33.3909 28.2337 32.9376C28.0489 31.3392 29.7356 31.0462 29.7908 32.7592C29.792 33.2416 29.616 33.7077 29.2963 34.069C30.0439 34.575 31.2604 34.0133 31.63 33.6783C31.3742 33.3585 31.2283 32.9647 31.2141 32.5555C31.1709 30.4773 33.956 31.6035 32.0251 33.6853C32.3385 33.9034 32.7227 33.9952 33.1008 33.9424C33.4789 33.8896 33.8232 33.6961 34.0649 33.4005C34.0865 33.3703 34.1188 33.3496 34.1553 33.3428C34.1917 33.3359 34.2294 33.3434 34.2604 33.3637C34.2914 33.3841 34.3134 33.4156 34.3217 33.4517C34.33 33.4879 34.324 33.5258 34.305 33.5576C33.862 34.2346 32.5765 34.4874 31.819 33.889C31.4101 34.2624 30.1523 34.8621 29.0969 34.2804C28.6848 34.6704 28.1613 34.9222 27.5993 35.0007C27.0373 35.0792 26.4648 34.9805 25.9616 34.7182C25.4828 35.175 23.8946 36.0375 22.4633 34.9059ZM25.8488 32.1512C25.5127 32.1927 25.3367 32.6817 25.4034 33.0808C25.4594 33.5404 25.651 33.9728 25.9536 34.3231C26.8632 33.2879 26.542 32.0643 25.8503 32.151L25.8488 32.1512ZM28.9739 31.8904C28.4774 31.9517 28.2108 33.1748 29.0653 33.9013C29.3513 33.594 29.5095 33.1893 29.5076 32.7694C29.4954 32.3425 29.2534 31.8558 28.9754 31.8902L28.9739 31.8904ZM31.9132 31.7407C31.5574 31.7847 31.2419 32.6811 31.8403 33.4741C32.1386 33.1792 32.3418 32.8018 32.4238 32.3904C32.4501 32.1415 32.2718 31.6961 31.9147 31.7402L31.9132 31.7407ZM19.6889 32.7307C19.376 32.7694 19.117 33.2216 19.1512 33.7895C19.1624 34.179 19.2955 34.5552 19.5316 34.8651C19.7824 34.5501 19.9522 34.1785 20.0261 33.7827C20.1235 33.2937 19.9417 32.7367 19.6889 32.7307ZM22.6456 32.5511C22.2844 32.5918 22.0633 33.0393 22.1203 33.5009C22.1716 33.851 22.3037 34.1842 22.5061 34.4743C22.783 34.2251 22.9781 33.8981 23.0658 33.5361C23.1426 33.0765 23.0138 32.5575 22.6456 32.5511Z" fill="#87E4FF"/>
<path d="M24.8866 39.7592C24.8685 39.7624 24.85 39.762 24.8321 39.7578C24.8142 39.7537 24.7973 39.746 24.7825 39.7352C24.7676 39.7244 24.7551 39.7106 24.7457 39.6949C24.7363 39.6791 24.7301 39.6616 24.7277 39.6434C24.723 39.6056 24.7335 39.5676 24.7569 39.5376C24.7802 39.5076 24.8145 39.4881 24.8522 39.4833C29.1562 38.9489 33.7077 38.38 33.7077 38.38L33.7429 38.6646L24.8866 39.7592Z" fill="#414141"/>
<path d="M23.1056 39.9889C17.4068 40.6917 17.3639 40.6897 17.3461 40.6894C17.3091 40.6886 17.2738 40.6735 17.2477 40.6473C17.2215 40.621 17.2066 40.5857 17.206 40.5487C17.2053 40.5116 17.2191 40.4758 17.2443 40.4487C17.2695 40.4215 17.3043 40.4052 17.3413 40.4032C17.4729 40.3918 20.5047 40.0201 23.0698 39.7043C23.089 39.701 23.1085 39.7017 23.1274 39.7062C23.1463 39.7107 23.164 39.719 23.1796 39.7306C23.1952 39.7422 23.2083 39.7568 23.218 39.7736C23.2278 39.7904 23.234 39.8089 23.2364 39.8282C23.2388 39.8475 23.2373 39.867 23.2319 39.8857C23.2265 39.9043 23.2174 39.9217 23.2051 39.9367C23.1928 39.9517 23.1776 39.9641 23.1604 39.9731C23.1432 39.982 23.1244 39.9874 23.105 39.9889L23.1056 39.9889Z" fill="#414141"/>
<path d="M31.4345 10.3355C31.3816 10.5064 31.3215 10.6934 31.2461 10.9197L32.1882 11.3154C32.2823 11.0516 32.3371 10.825 32.3956 10.6558C32.6327 9.96919 31.6168 9.74709 31.4348 10.3357L31.4345 10.3355Z" fill="white"/>
<path d="M27.6659 22.1867L27.4023 24.4289L28.627 22.526L27.6659 22.1864V22.1867Z" fill="white"/>
<path d="M31.3028 10.2914C31.2639 10.4175 27.7403 21.3425 27.5624 22.1155C27.4959 22.1669 27.5302 22.013 27.2646 24.4133C27.2485 24.5589 27.4405 24.6271 27.5199 24.504C28.9346 22.3083 28.7704 22.5769 28.779 22.5491L32.5478 10.6966C32.791 9.90565 31.5581 9.46589 31.3031 10.2914H31.3028ZM31.5686 10.3735C31.7142 9.90119 32.4172 10.1731 32.2825 10.6115C32.2347 10.7551 32.1734 10.9388 32.1108 11.1492L31.4153 10.8511C31.4687 10.6866 31.5244 10.5168 31.5686 10.3735ZM27.7717 22.3673L28.4227 22.5803L27.6064 23.855L27.7717 22.3673Z" fill="#414141"/>
<path d="M38.0495 14.8813C36.6181 13.9261 34.3723 11.9862 34.3444 11.9623C34.1749 12.0188 33.9804 12.0884 33.8488 12.1822C31.5083 13.4037 28.2892 15.7458 27.7253 18.3248C27.7064 18.5132 27.6688 18.9841 27.9703 18.9655C28.4036 18.9466 28.7805 18.2307 29.0065 17.929C29.6149 17.118 30.0374 16.6487 30.8671 16.0993C30.5103 16.6345 30.0427 17.4923 30.0616 18.155C30.0805 18.4751 30.3254 18.7581 30.6269 18.7013C31.0151 18.6307 31.2228 18.4745 31.4335 18.1447C31.3366 18.3547 31.2863 18.5831 31.2862 18.8143C31.3427 19.1912 31.6631 19.3793 32.134 19.1912C32.3466 19.0673 32.5835 18.8995 32.736 18.7075C32.7221 19.1673 32.8348 19.5508 33.0383 19.6621C33.2078 19.7562 33.5253 19.6591 33.66 19.5491C33.9929 19.2775 34.018 19.2096 34.2443 18.8708L34.3383 18.7954C34.8037 19.4601 36.8346 18.7389 36.2398 17.2947C37.7433 15.961 37.7954 15.3253 38.0492 14.8811H38.0495V14.8813Z" fill="white"/>
<path d="M43.7408 0.0106563C41.9269 3.15461 39.1108 6.59358 36.7131 9.31838C35.7008 10.4665 34.403 11.8734 34.3203 11.9561C34.3484 11.9806 37.2575 14.4493 38.032 14.9141C38.1264 14.9892 38.2394 15.0271 38.3524 15.046C40.4908 15.0079 43.5963 13.1637 45.3614 11.9561C46.8224 10.8909 48.5012 9.68771 49.9212 8.43247C49.6994 8.10767 43.9392 -0.336136 43.7413 0.010378H43.7408V0.0106563Z" fill="#87E4FF"/>
<path d="M48.1367 5.86591C48.1536 5.83428 48.1576 5.79738 48.148 5.76286C48.1383 5.72834 48.1158 5.69886 48.085 5.68053C48.0542 5.6622 48.0175 5.65642 47.9826 5.66441C47.9477 5.67239 47.9171 5.69352 47.8974 5.72341C47.4526 6.47043 46.7373 7.1256 46.1715 7.62659C45.4395 6.6711 44.8422 5.89903 44.0554 4.98807C44.8107 4.14531 45.4122 3.41999 45.9427 2.71277C45.9537 2.69815 45.9616 2.68152 45.9662 2.66381C45.9707 2.64611 45.9717 2.62769 45.9691 2.60959C45.9665 2.5915 45.9604 2.5741 45.9511 2.55837C45.9418 2.54265 45.9295 2.52891 45.9149 2.51794C45.9002 2.50698 45.8836 2.499 45.8659 2.49447C45.8482 2.48993 45.8298 2.48893 45.8117 2.49151C45.7936 2.4941 45.7762 2.50022 45.7605 2.50953C45.7447 2.51884 45.731 2.53116 45.72 2.54578C45.1998 3.2388 44.6104 3.95076 43.8714 4.77655C43.6034 4.4793 42.9566 3.74062 42.3687 3.1528C42.1672 2.95018 42.1046 2.81046 41.9877 2.81046C41.7901 2.81046 41.7801 3.05066 41.9471 3.10131C42.9315 4.16785 41.966 3.08795 43.6841 4.98418C42.8875 5.86173 42.0295 6.70422 41.2117 7.4891C40.6679 6.89627 40.1293 6.39138 39.568 5.94913C39.5537 5.93727 39.5371 5.9284 39.5194 5.92303C39.5016 5.91765 39.4829 5.91589 39.4645 5.91784C39.446 5.91979 39.4281 5.92542 39.4119 5.93439C39.3956 5.94336 39.3813 5.95549 39.3698 5.97007C39.3583 5.98464 39.3499 6.00138 39.3449 6.01927C39.34 6.03717 39.3387 6.05588 39.3411 6.07429C39.3435 6.09269 39.3496 6.11043 39.359 6.12646C39.3683 6.14249 39.3808 6.15648 39.3957 6.16761C39.9454 6.60096 40.4739 7.09582 41.0116 7.68225C40.0851 8.56755 39.1556 9.44966 38.2231 10.3286C38.2231 10.3286 37.1012 9.42623 37.0461 9.38031C37.0461 9.38031 36.9656 9.33411 36.886 9.26174C36.8137 9.14874 36.6158 9.193 36.6155 9.33661C36.6155 9.36329 36.6231 9.38941 36.6375 9.41186C36.6519 9.43432 36.6725 9.45215 36.6968 9.46325C36.7457 9.5153 36.8125 9.56428 36.8688 9.5949C36.9706 9.67979 36.8727 9.59017 38.0171 10.5198C37.493 11.0066 36.1062 12.3244 35.5489 12.6935C35.5159 12.6984 35.4854 12.7145 35.4628 12.7391C35.4401 12.7637 35.4265 12.7954 35.4243 12.8287C35.417 12.9312 35.5022 12.993 35.5876 12.9779C35.8921 12.9242 37.9876 10.9267 38.2348 10.6979C38.3965 10.8304 38.8056 11.104 40.0506 12.2587C39.3172 12.7842 37.9122 13.745 37.151 14.1903C37.0288 14.2621 37.0797 14.45 37.2214 14.45C37.4254 14.45 40.1811 12.5014 40.2615 12.4555C40.5173 12.6954 41.6033 13.7272 41.8933 13.998C41.9204 14.0231 41.9563 14.0364 41.9931 14.0352C42.03 14.0339 42.0648 14.0182 42.0901 13.9913C42.1152 13.9643 42.1286 13.9284 42.1273 13.8915C42.1261 13.8547 42.1103 13.8198 42.0834 13.7945C41.794 13.5243 40.7313 12.5142 40.487 12.2852C41.4918 11.5876 42.4867 10.8756 43.4712 10.1496C44.0145 10.6932 44.5708 11.2545 45.0665 11.8387C45.0911 11.8646 45.1245 11.88 45.1601 11.8819C45.1957 11.8838 45.2306 11.8721 45.2578 11.849C45.2849 11.826 45.3023 11.7934 45.3062 11.7581C45.3101 11.7227 45.3003 11.6871 45.2789 11.6587C44.7851 11.077 44.2352 10.5209 43.6972 9.98232C44.6176 9.29375 46.0209 8.1362 46.1347 8.03684C46.6268 8.68617 47.1487 9.36723 47.6847 10.0102C47.7083 10.0385 47.7423 10.0564 47.779 10.0597C47.8158 10.0631 47.8524 10.0517 47.8808 10.0281C47.9092 10.0045 47.927 9.97056 47.9304 9.93379C47.9338 9.89702 47.9224 9.86041 47.8988 9.83203C47.3613 9.18771 46.8367 8.50275 46.3415 7.84925C46.9188 7.33852 47.6658 6.65885 48.1376 5.86646L48.1367 5.86591ZM38.4405 10.507C38.4708 10.4786 41.1747 7.91187 41.2037 7.88404C41.3019 7.98396 43.0083 9.67867 43.2733 9.9492C42.2854 10.6776 41.2869 11.3916 40.2782 12.0909C38.9732 10.878 38.4691 10.5303 38.4405 10.5072V10.507ZM43.499 9.78221C42.9126 9.18019 43.0272 9.33856 41.4041 7.6906C42.2176 6.9099 43.0718 6.07159 43.8678 5.19654C44.5678 5.99477 45.4022 7.07996 45.965 7.81446C45.9026 7.86984 44.5591 8.99038 43.4993 9.78221H43.499Z" fill="white"/>
<path d="M37.9606 14.9134C37.9431 14.9078 37.9248 14.9058 37.9066 14.9073C37.8884 14.9089 37.8707 14.914 37.8544 14.9224C37.8382 14.9308 37.8238 14.9423 37.812 14.9563C37.8002 14.9703 37.7913 14.9864 37.7858 15.0038C37.4142 16.1717 36.329 17.0643 35.3975 17.8606C35.2575 17.9802 35.4387 18.1918 35.5784 18.0721C35.7557 17.9207 35.9575 17.7489 36.1445 17.5797C36.2244 17.8338 36.1985 18.0671 36.0666 18.2744C35.8314 18.6446 35.3092 18.8606 34.911 18.8828C34.7351 18.897 34.5734 18.8277 34.4776 18.7064C34.3557 18.4976 34.3123 18.2867 34.3443 18.0615C34.3495 18.025 34.34 17.9878 34.3179 17.9583C34.2958 17.9288 34.2628 17.9092 34.2263 17.904C34.1897 17.8987 34.1526 17.9082 34.1231 17.9304C34.0935 17.9525 34.074 17.9854 34.0687 18.022C34.0348 18.2605 34.0687 18.4935 34.1756 18.725C34.1475 18.7479 34.0557 18.8862 34.0058 18.9599C33.8878 19.1347 33.8294 19.2088 33.5884 19.4058C33.4829 19.4921 33.2277 19.56 33.1238 19.5024C32.9961 19.4325 32.8761 19.1175 32.8948 18.6504C32.9112 18.2558 33.0209 17.843 33.2204 17.4233C33.2363 17.3899 33.2383 17.3516 33.2259 17.3168C33.2135 17.282 33.1878 17.2535 33.1545 17.2377C33.1211 17.2218 33.0828 17.2198 33.048 17.2322C33.0132 17.2446 32.9847 17.2703 32.9688 17.3036C32.7687 17.7239 32.6524 18.1406 32.622 18.5438C32.5917 18.5725 32.3999 18.8737 32.1007 19.0242C31.7826 19.152 31.4973 19.1105 31.4436 18.7765C31.4436 18.5514 31.497 18.3254 31.6022 18.1149C31.8266 17.5847 32.0985 17.0999 32.3103 16.7364C32.3289 16.7045 32.3341 16.6665 32.3247 16.6308C32.3153 16.5951 32.2921 16.5646 32.2602 16.546C32.2283 16.5274 32.1903 16.5223 32.1546 16.5317C32.1189 16.541 32.0884 16.5642 32.0698 16.5961C31.2618 17.9825 31.2947 18.4069 30.6468 18.5255C30.6038 18.5299 30.5603 18.5255 30.5191 18.5125C30.4779 18.4996 30.4398 18.4783 30.4071 18.45C29.7887 17.9371 31.0063 16.0793 31.5087 15.433C31.5314 15.4039 31.5416 15.3669 31.5371 15.3303C31.5325 15.2937 31.5136 15.2603 31.4845 15.2376C31.4554 15.2149 31.4184 15.2047 31.3818 15.2093C31.3452 15.2138 31.3118 15.2327 31.2891 15.2618C31.1697 15.4152 31.0075 15.6557 30.8644 15.8703C30.8469 15.8736 30.8302 15.8802 30.8151 15.8897C29.9187 16.462 29.5627 16.9666 28.9323 17.8077C28.7324 18.0743 28.3695 18.7662 27.9985 18.7885C27.6528 18.8094 27.748 16.1775 32.698 12.9779C33.1845 12.6684 33.5692 12.4502 33.9594 12.2623C34.1088 12.1691 34.2385 12.1079 34.3557 12.0764H34.432C34.4689 12.0764 34.5043 12.0618 34.5304 12.0357C34.5565 12.0096 34.5711 11.9742 34.5711 11.9373C34.5711 11.9003 34.5565 11.865 34.5304 11.8389C34.5043 11.8128 34.4689 11.7981 34.432 11.7981H34.3379C34.2277 11.7981 33.9538 11.9381 33.8255 12.0188C33.4386 12.2039 33.0448 12.4271 32.5477 12.7436C30.6548 13.9668 28.0572 16.032 27.6258 18.2594C27.5521 18.6307 27.637 19.0907 28.013 19.0663C28.5451 19.044 28.9106 18.3003 29.1549 17.9744C29.61 17.3674 29.9468 16.8875 30.5073 16.4467C30.1282 17.1124 29.6387 18.1751 30.2293 18.6641C30.2922 18.7175 30.3655 18.7572 30.4447 18.7806C30.5238 18.8041 30.6069 18.8107 30.6888 18.8002C31.2805 18.6927 31.165 18.4333 31.1667 18.796C31.268 19.5032 32.0601 19.548 32.6245 18.9711C32.6638 19.3838 32.818 19.8016 33.2327 19.8016C33.6596 19.8016 33.9972 19.4693 34.236 19.1155C34.2661 19.071 34.2998 19.0212 34.3409 18.9627C34.4846 19.0917 34.6709 19.163 34.8639 19.1628C35.3527 19.1628 36.0064 18.8873 36.3012 18.4233C36.5141 18.0879 36.5083 17.6858 36.3669 17.3793C37.0421 16.7648 37.749 16.0361 38.0507 15.0879C38.0563 15.0705 38.0583 15.0521 38.0568 15.0339C38.0552 15.0157 38.0501 14.998 38.0417 14.9818C38.0333 14.9655 38.0218 14.9511 38.0078 14.9393C37.9938 14.9276 37.9777 14.9186 37.9603 14.9131L37.9606 14.9134Z" fill="#414141"/>
<path d="M16.6087 41.1602C16.6841 41.6125 15.3826 44.7767 14.084 46.7562C13.0088 48.3947 9.45098 52.6391 8.92133 52.8796C8.58345 53.0332 1.76172 46.7751 1.76172 46.7751C1.76172 46.7751 5.30451 44.2888 6.15173 43.5908C8.64106 41.5398 11.333 38.3906 11.6912 38.4095C12.2395 38.4095 16.6089 40.7374 16.6089 41.1605L16.6087 41.1602Z" fill="#FDAF31"/>
<path d="M16.1376 34.3206C16.9667 33.5293 18.3798 32.7756 17.8145 34.4901L17.8521 34.5277C18.4549 34.2263 19.0132 34.2619 18.7563 35.093C18.6965 35.2872 18.6209 35.4763 18.5303 35.6582C19.9676 34.6783 20.6278 35.5171 20.0188 36.6944C19.7363 37.3538 19.1711 37.8626 18.4928 38.0886L18.3987 38.051C17.9089 39.1626 17.4944 40.2367 16.5334 41.0279C16.0059 40.4437 12.8592 38.7293 11.8984 38.4468C13.0844 35.7787 14.754 33.0005 17.0797 31.2117C17.5696 30.8349 18.3606 30.2902 19.0016 30.4204C19.5666 30.5351 18.866 31.2649 18.7001 31.438C17.8139 32.3618 16.8537 33.209 16.1376 34.3206Z" fill="white"/>
<path d="M19.9677 35.1948C19.6095 35.0158 19.1375 35.1851 18.7785 35.3807C18.8133 35.2919 18.8439 35.2037 18.87 35.1163C19.1208 34.3287 18.683 34.0428 18.0159 34.2797C18.2675 33.3036 17.7617 33.0378 16.8803 33.5588C18.0715 32.1594 19.5171 31.126 19.3426 30.5496C19.3156 30.4602 19.2391 30.345 19.0292 30.303C18.3412 30.1613 17.5388 30.7015 16.9944 31.1204C14.7302 32.8619 13.0021 35.6757 11.8284 38.28C11.7979 38.2743 11.7669 38.271 11.7357 38.2703C11.2314 38.26 8.71871 41.3054 6.08159 43.483C5.24745 44.1688 1.73528 46.6359 1.69993 46.6607C1.68287 46.6726 1.66872 46.6882 1.65851 46.7064C1.64829 46.7245 1.64229 46.7447 1.64092 46.7655C1.63956 46.7863 1.64288 46.8071 1.65064 46.8265C1.65839 46.8458 1.67039 46.8631 1.68573 46.8772C7.88123 52.5592 8.76102 53.0159 8.95306 53.0159C9.41591 53.0159 13.4063 48.0718 14.2181 46.8321C15.4486 44.9595 16.8558 41.6889 16.7637 41.137C16.7589 41.1084 16.7378 41.0694 16.7169 41.0349C17.5831 40.2781 17.9889 39.3123 18.45 38.2592C18.6215 38.3134 19.6944 37.8411 20.1414 36.796C20.5155 36.0726 20.4479 35.4445 19.9672 35.1945L19.9677 35.1948ZM13.9857 46.6799C12.8451 48.4208 9.46824 52.3883 8.91215 52.7365C8.38417 52.5316 4.47399 49.0531 2.00163 46.7892C6.32818 43.7438 6.68945 43.5003 9.9425 40.2166C11.7266 38.4156 11.6762 38.5138 11.8774 38.5806C12.8546 38.8681 16.2454 40.7296 16.4915 41.201C16.5135 41.6305 15.3367 44.6242 13.9857 46.6801V46.6799ZM19.8904 36.6777C19.6405 37.2551 19.1722 37.7101 18.5878 37.9433C18.6382 37.7924 18.8286 37.2004 18.9346 37.0763C19.0793 37.0465 19.0838 36.8405 18.9405 36.8049C18.6129 36.722 18.4531 37.56 18.1528 38.2452C17.7297 39.2149 17.3295 40.1326 16.5288 40.8303C15.7742 40.1654 13.1441 38.7262 12.0978 38.3596C13.2521 35.806 14.9509 33.0434 17.1639 31.3411C17.4525 31.119 18.3304 30.4433 18.9736 30.5757C19.0078 30.5824 19.0665 30.5988 19.076 30.6303C19.1047 30.7244 18.9405 31.0044 18.597 31.3626C18.3312 31.6398 18.0593 31.9231 17.791 32.192C16.2683 33.7169 16.7136 33.3965 15.6921 34.5881C15.6803 34.6019 15.6712 34.618 15.6656 34.6354C15.6599 34.6528 15.6577 34.6711 15.6591 34.6893C15.6606 34.7076 15.6656 34.7253 15.6738 34.7416C15.6821 34.7579 15.6935 34.7724 15.7074 34.7843C15.7213 34.7962 15.7374 34.8052 15.7548 34.8108C15.7722 34.8165 15.7905 34.8187 15.8087 34.8173C15.8269 34.8158 15.8447 34.8108 15.861 34.8026C15.8773 34.7943 15.8918 34.7829 15.9037 34.769C16.6184 33.9343 17.4882 33.4475 17.7272 33.5981C17.7715 33.6262 17.899 33.7684 17.6816 34.4275L17.6794 34.4358C17.2883 34.6643 16.9588 34.9527 16.7222 35.2741C16.711 35.2888 16.7028 35.3056 16.6981 35.3235C16.6934 35.3414 16.6924 35.36 16.695 35.3783C16.6976 35.3966 16.7038 35.4142 16.7133 35.4301C16.7228 35.4459 16.7353 35.4598 16.7502 35.4707C16.7651 35.4817 16.782 35.4896 16.8 35.4939C16.8179 35.4983 16.8366 35.499 16.8548 35.4961C16.8731 35.4931 16.8906 35.4866 16.9063 35.4768C16.922 35.4671 16.9356 35.4543 16.9463 35.4392C17.894 34.1539 19.8695 33.9407 17.7367 36.1453C17.2546 36.5553 17.7598 36.6966 17.8166 36.4654C17.9505 36.2872 18.4272 35.904 18.6084 35.8107C19.9193 34.917 20.4378 35.6176 19.8904 36.6772V36.6777Z" fill="#414141"/>
<path d="M38.5007 39.7471C37.5964 39.8601 35.4107 40.2745 34.544 40.5762C33.2629 38.9369 32.8396 36.8895 31.6614 35.2252C31.1298 34.4742 30.4477 33.8564 29.8715 33.1525C29.795 33.0592 29.3628 32.6251 29.4758 32.4742C29.5888 32.2858 30.2105 32.6626 30.3049 32.7381C30.9077 33.1149 31.4777 33.5435 31.9818 34.0381C32.077 34.1314 32.3776 34.528 32.5281 34.5469C32.6222 34.5469 32.4341 34.3774 32.3773 34.283C31.4023 32.9181 30.0335 31.7141 30.3425 31.6075C30.6071 31.5162 31.1148 31.9092 31.3032 32.0409C31.9245 32.4748 32.4995 32.9922 33.0366 33.5483C33.2587 33.7782 33.5621 34.2869 33.8468 34.4339C33.893 34.4578 33.6609 34.0854 33.6395 34.057C33.4931 33.8404 33.3423 33.6268 33.1872 33.4163C31.7435 31.6949 31.1649 31.431 31.303 31.212C31.434 31.0041 31.9812 31.3061 32.1132 31.3815C32.9044 31.7773 33.5693 32.4695 34.148 33.1338C34.4324 33.4599 34.7089 33.7929 34.9771 34.1325C35.0336 34.0949 34.6568 33.5107 34.6378 33.4731C34.2443 32.8128 33.7766 32.1997 33.2437 31.6456C33.2067 31.6072 32.5654 30.9863 32.6784 30.9298C32.8669 30.8544 33.2248 31.1371 33.3567 31.2123C33.9469 31.5933 34.4853 32.0493 34.9582 32.5688C36.6479 34.4255 38.3768 38.3875 38.5004 39.7474L38.5007 39.7471Z" fill="white"/>
<path d="M46.7395 48.239C46.6693 47.8538 39.3213 39.6379 38.9514 39.5906C38.5768 39.5433 38.6491 39.6435 38.6174 39.5088C38.0655 37.152 36.4532 33.9816 35.0229 32.4369C34.4882 31.8593 33.9549 31.4079 33.3874 31.0525C33.1044 30.8496 32.8116 30.6748 32.5973 30.7602C32.5725 30.7701 32.5502 30.7855 32.5321 30.8051C32.5141 30.8248 32.5007 30.8483 32.4929 30.8738C32.433 31.1279 33.1208 31.5983 33.9413 32.7013C33.413 32.1293 32.7623 31.5173 32.0587 31.183C31.7873 31.0533 31.3259 30.8318 31.1477 31.1012C30.9986 31.3266 31.3081 31.6133 31.47 31.7664C31.7353 32.0169 32.0067 32.2916 32.4253 32.7564C32.0627 32.431 31.6815 32.127 31.2836 31.846C30.9354 31.5969 30.5404 31.3383 30.2604 31.4388C30.2306 31.4486 30.2035 31.4653 30.1814 31.4876C30.1593 31.5099 30.1428 31.5372 30.1333 31.5671C30.0584 31.8173 30.4723 32.1958 31.5073 33.4205C31.0448 33.0311 30.5967 32.7269 30.2574 32.5376C29.8691 32.3205 29.4772 32.1282 29.3264 32.3539C29.1755 32.5552 29.4132 32.8527 29.6698 33.1402C31.5121 35.1884 31.725 35.2925 32.8327 37.779C33.2471 38.7089 33.6752 39.6694 34.3184 40.5233C34.2459 40.5606 34.1779 40.6058 34.1155 40.6583C33.7565 40.9564 36.6427 49.1015 36.8993 49.8363C36.9099 49.8667 36.9308 49.8925 36.9583 49.9092C36.9858 49.926 37.0183 49.9327 37.0502 49.9282C37.0741 49.9248 39.471 49.5894 41.8373 49.2354C46.7417 48.5017 46.7417 48.4322 46.7395 48.2393V48.239ZM34.5909 40.4203C33.349 38.8116 32.921 36.7793 31.7367 35.1066C31.1118 34.2362 29.6765 32.8293 29.5591 32.5321C29.9618 32.5618 31.4135 33.5966 31.9916 34.2552C32.189 34.4806 32.3292 34.6295 32.4904 34.6487C32.5633 34.6487 32.6226 34.6128 32.649 34.553C32.7158 34.4024 32.5257 34.2624 32.4528 34.1647C31.767 33.2073 30.7002 32.136 30.4361 31.6965C30.6501 31.7274 31.0189 31.9974 31.1836 32.116C31.8104 32.5666 32.683 33.3064 33.1553 33.917C33.3201 34.1299 33.7359 34.6885 33.9199 34.4926C33.9889 34.4188 33.9597 34.3565 33.877 34.202C33.7968 34.052 33.5277 33.6214 33.2563 33.2894C31.8096 31.5643 31.4734 31.4761 31.3935 31.2518C31.4414 31.2437 31.5733 31.259 31.9387 31.4335C32.7275 31.8092 33.4372 32.546 34.005 33.1867C34.8417 34.163 34.6992 34.0514 34.8411 34.1931C34.8638 34.2159 34.8938 34.2301 34.9258 34.2333C34.9579 34.2364 34.99 34.2283 35.0167 34.2103C35.1587 34.116 35.0908 33.9699 34.7629 33.4349C33.8188 31.8961 33.3393 31.5933 32.9001 31.075C32.9816 31.1157 33.0932 31.1833 33.2455 31.2921C33.7863 31.63 34.3009 32.0659 34.8188 32.6256C36.3577 34.2813 37.9021 37.6023 38.3591 39.6274C37.3641 39.7624 35.4339 40.1414 34.5906 40.4198L34.5909 40.4203Z" fill="#414141"/>
<path d="M17.1178 9.05451L16.383 8.69659C16.27 8.65901 16.1946 8.56466 16.157 8.47059C16.0774 8.23178 16.1086 8.25349 16.3644 7.35896C16.4092 7.26962 16.2486 7.21367 16.2135 7.28353L15.6482 7.86774C15.4787 8.01859 15.2338 8.05616 15.0451 7.92424L14.3668 7.47196C14.3073 7.4124 14.1845 7.4842 14.2349 7.58496L14.6118 8.30109C14.6992 8.51929 14.6705 8.73249 14.4798 8.88529L13.8391 9.39407C13.7773 9.45613 13.8316 9.54492 13.9146 9.54492L14.7248 9.41299C14.9321 9.37542 15.157 9.50762 15.2335 9.71442C15.5249 10.5032 15.5146 10.5246 15.5915 10.5246C15.629 10.5246 15.6855 10.506 15.6855 10.4492L15.8175 9.63899C15.8346 9.53053 15.8892 9.43152 15.9719 9.35924C16.0546 9.28696 16.16 9.246 16.2697 9.24349C17.1813 9.22234 17.1042 9.21928 17.1554 9.16807C17.1743 9.13049 17.1554 9.07399 17.1178 9.05507V9.05451Z" fill="#87E4FF"/>
<path d="M8.11139 19.5306L7.35769 19.1534C7.24469 19.1159 7.16926 19.0215 7.13169 18.9274C7.04624 18.7137 7.0955 18.6678 7.33904 17.8158C7.35796 17.778 7.33904 17.7407 7.30146 17.7215C7.26389 17.7028 7.22604 17.7215 7.18846 17.7404C6.57643 18.3727 6.57977 18.4167 6.34069 18.4562C6.15755 18.493 6.03203 18.3761 5.36099 17.9285C5.30087 17.8687 5.17896 17.9413 5.22906 18.0415L5.60591 18.7577C5.64349 18.8517 5.66241 18.965 5.64349 19.078C5.6048 19.2715 5.51657 19.3079 4.83328 19.8504C4.81436 19.8879 4.79571 19.9258 4.81436 19.9634C4.82322 19.9807 4.83676 19.9951 4.85344 20.0051C4.87012 20.0151 4.88927 20.0202 4.90871 20.0199C5.75927 19.8815 5.85668 19.8351 6.03926 19.9447C6.13334 20.0009 6.20876 20.0953 6.24661 20.1896L6.52911 20.9617C6.57225 21.0483 6.69861 21.028 6.69861 20.9428C6.83833 20.0844 6.81801 20.0135 6.98111 19.8501C7.07519 19.7749 7.16954 19.7371 7.28254 19.7371L8.09274 19.6995C8.17846 19.6995 8.19767 19.5729 8.11167 19.53L8.11139 19.5303V19.5306Z" fill="#87E4FF"/>
</svg>
