<svg width="70" height="70" viewBox="0 0 70 70" fill="none" xmlns="http://www.w3.org/2000/svg">
<rect width="70" height="70" rx="10" fill="#E7F8FF"/>
<path d="M43.2354 19.4878L19.9567 22.0211C20.4363 23.0189 22.8162 52.7653 22.8162 52.7653L48.3213 50.7695L43.2357 19.4881H43.2354V19.4878Z" fill="#7BD2FF"/>
<path d="M23.528 30.9035C23.5096 30.8976 23.4926 30.888 23.478 30.8753C23.4634 30.8625 23.4516 30.847 23.4433 30.8295C23.435 30.8121 23.4303 30.7931 23.4296 30.7738C23.4288 30.7544 23.4321 30.7352 23.4391 30.7171C23.4452 30.6989 23.455 30.6821 23.4678 30.6677C23.4806 30.6533 23.4961 30.6416 23.5135 30.6333C23.5308 30.625 23.5497 30.6203 23.5689 30.6194C23.5882 30.6186 23.6074 30.6215 23.6254 30.6282C24.2846 30.8914 25.3234 30.0951 25.4092 30.0068C24.3654 29.0079 24.7523 26.9559 25.9038 27.2518C26.3946 27.3777 26.7562 28.7817 25.832 29.9679C27.1015 30.6701 28.4763 29.8512 28.9522 29.4268C28.6351 29.0833 28.4352 28.648 28.3812 28.1836C28.171 26.6421 30.0306 26.5988 29.9382 28.1021C29.9025 28.593 29.7017 29.0573 29.3684 29.4195C30.4966 30.2163 32.0646 29.4661 32.4166 29.1255C32.1219 28.7946 31.9371 28.3805 31.8875 27.9401C31.6311 26.2481 33.2479 26.1673 33.3521 27.6438C33.3686 27.9092 33.3315 28.1753 33.2429 28.4261C33.1543 28.6768 33.0162 28.9072 32.8366 29.1034C33.1954 29.3534 34.5656 29.3649 35.2736 28.3534C34.8944 27.823 34.6604 26.8571 35.2121 26.5051C35.6301 26.2387 36.2152 26.5738 36.0589 27.4469C35.9936 27.7749 35.853 28.0832 35.648 28.3475C36.3795 29.1152 37.7908 28.5389 38.1445 28.199C37.8564 27.8951 37.6811 27.5017 37.6477 27.0843C37.5076 25.6336 38.994 25.6724 39.0275 26.9318C39.028 27.3904 38.8619 27.8337 38.56 28.179C38.9752 28.4879 40.5878 28.4335 41.3025 27.0263C41.3391 26.9547 41.3945 26.8953 41.4749 26.9118C41.5552 26.9283 41.6287 27.0118 41.5894 27.0841C41.3156 27.6752 40.8287 28.141 40.2261 28.3883C39.6236 28.6357 38.9498 28.6464 38.3397 28.4182C37.9335 28.8032 36.3898 29.4105 35.4594 28.5794C35.1258 28.9852 34.6725 29.2752 34.1641 29.4079C33.6558 29.5406 33.1185 29.5093 32.6291 29.3183C32.1472 29.7071 31.5607 29.944 30.944 29.9992C30.3273 30.0543 29.7081 29.9252 29.1648 29.6281C28.6939 30.0525 28.1104 30.3318 27.4845 30.4322C26.8585 30.5327 26.2169 30.4501 25.6369 30.1944C25.5421 30.2928 24.4289 31.1365 23.528 30.9035ZM25.6473 27.5024C25.237 27.5531 24.9962 28.2045 25.1145 28.8149C25.171 29.1822 25.3411 29.5225 25.601 29.7882C26.4453 28.7029 26.0936 27.4469 25.6472 27.5021L25.6473 27.5024ZM32.5218 26.8939C32.1575 26.9389 32.1092 27.453 32.1765 27.897C32.2176 28.2708 32.3702 28.6236 32.6143 28.9096C32.9099 28.563 33.0688 28.1203 33.061 27.6649C33.03 27.228 32.8442 26.8537 32.5218 26.8936L32.5218 26.8939ZM29.0878 27.295C28.688 27.3444 28.6197 27.7827 28.6708 28.1453C28.7155 28.5472 28.885 28.9249 29.1555 29.2255C29.4445 28.9123 29.6177 28.5096 29.6463 28.0844C29.668 27.7364 29.4585 27.2489 29.0878 27.2947L29.0878 27.295ZM38.2592 26.2857C37.9641 26.3222 37.9049 26.7109 37.9384 27.0574C37.966 27.4029 38.1083 27.7293 38.3427 27.9846C39.0302 27.1297 38.6895 26.2316 38.2591 26.2848L38.2592 26.2857ZM35.4785 26.7121C35.211 26.7452 35.1441 27.0845 35.1889 27.3717C35.2278 27.635 35.3216 27.8872 35.4641 28.1119C36.0052 27.3268 35.7509 26.6775 35.4784 26.7112L35.4785 26.7121Z" fill="#254281"/>
<path d="M41.4423 32.9676C41.4423 32.9676 37.1752 33.3987 32.4941 33.9471C32.4566 33.95 32.4194 33.9383 32.3903 33.9145C32.3612 33.8907 32.3424 33.8566 32.3377 33.8193C32.3331 33.7819 32.3431 33.7443 32.3655 33.7141C32.388 33.6839 32.4212 33.6635 32.4583 33.6572C32.4583 33.6572 40.1564 32.7785 41.4129 32.6772C41.4514 32.6733 41.4899 32.6848 41.5199 32.7093C41.5499 32.7337 41.569 32.7691 41.5729 32.8076C41.5769 32.8461 41.5653 32.8846 41.5409 32.9146C41.5164 32.9446 41.4811 32.9637 41.4426 32.9676L41.4423 32.9676Z" fill="#313131"/>
<path d="M28.9408 34.3598L24.631 34.8925C24.5915 34.8958 24.5522 34.8836 24.5217 34.8583C24.4911 34.833 24.4717 34.7967 24.4676 34.7573C24.4652 34.7383 24.4667 34.719 24.4718 34.7006C24.4769 34.6821 24.4856 34.6648 24.4974 34.6498C24.5092 34.6347 24.5238 34.6221 24.5405 34.6126C24.5572 34.6032 24.5755 34.5972 24.5945 34.5949C24.5945 34.5949 26.428 34.3711 28.9063 34.0753C28.9253 34.0731 28.9446 34.0746 28.963 34.0797C28.9815 34.0849 28.9987 34.0937 29.0138 34.1055C29.0288 34.1174 29.0414 34.1321 29.0508 34.1488C29.0602 34.1655 29.0662 34.1839 29.0684 34.2029C29.0707 34.2217 29.0692 34.2407 29.064 34.2588C29.0587 34.277 29.0499 34.2939 29.038 34.3085C29.0261 34.3232 29.0113 34.3353 28.9946 34.3441C28.9779 34.3529 28.9596 34.3582 28.9408 34.3598Z" fill="#313131"/>
<path d="M27.5211 24.8559L23.2113 25.3886C23.1718 25.3919 23.1326 25.3796 23.102 25.3544C23.0714 25.3291 23.052 25.2928 23.0479 25.2534C23.0456 25.2344 23.047 25.2151 23.0521 25.1966C23.0572 25.1782 23.0659 25.1609 23.0777 25.1459C23.0895 25.1308 23.1041 25.1182 23.1208 25.1087C23.1375 25.0993 23.1559 25.0933 23.1749 25.091C23.1749 25.091 25.0083 24.8672 27.4866 24.5714C27.5056 24.5692 27.5249 24.5707 27.5433 24.5758C27.5618 24.581 27.579 24.5898 27.5941 24.6016C27.6092 24.6135 27.6217 24.6282 27.6311 24.6449C27.6405 24.6616 27.6465 24.68 27.6488 24.699C27.651 24.7178 27.6495 24.7368 27.6443 24.7549C27.6391 24.7731 27.6302 24.79 27.6183 24.8046C27.6064 24.8193 27.5916 24.8313 27.5749 24.8402C27.5582 24.849 27.5399 24.8543 27.5211 24.8559Z" fill="#313131"/>
<path d="M41.7462 36.3529C41.7462 36.3529 25.1916 38.2865 25.0522 38.3031C25.0147 38.306 24.9775 38.2943 24.9484 38.2705C24.9193 38.2467 24.9005 38.2126 24.8958 38.1752C24.8912 38.1379 24.9012 38.1002 24.9236 38.07C24.9461 38.0399 24.9793 38.0195 25.0164 38.0132C25.0164 38.0132 38.9907 36.3543 41.7122 36.063C41.7506 36.0586 41.7893 36.0696 41.8196 36.0937C41.8499 36.1178 41.8694 36.1529 41.8738 36.1913C41.8782 36.2298 41.8672 36.2684 41.8432 36.2987C41.8191 36.329 41.784 36.3485 41.7455 36.3529L41.7462 36.3529Z" fill="#313131"/>
<path d="M31.6219 43.5539C31.2194 43.9076 30.7204 44.1329 30.1888 44.2008C29.6573 44.2687 29.1176 44.176 28.6392 43.9347C28.4084 44.1497 26.9268 44.8717 25.9995 44.099C25.9736 44.0729 25.9585 44.0379 25.9572 44.0011C25.9559 43.9644 25.9685 43.9284 25.9925 43.9006C26.0166 43.8727 26.0502 43.8549 26.0868 43.8507C26.1233 43.8465 26.1601 43.8563 26.1898 43.8781C26.9971 44.4475 28.2324 43.9128 28.432 43.7275C28.135 43.3607 27.967 42.9063 27.9543 42.4345C27.8496 40.6876 29.8205 40.4667 29.4235 42.467C29.3374 42.928 29.1369 43.3599 28.8402 43.723C29.1552 43.9853 30.5496 44.203 31.4331 43.3261C31.185 42.9826 31.0285 42.5815 30.9782 42.1608C30.785 40.597 32.843 40.2538 32.5193 42.2087C32.4163 42.6492 32.1802 43.0474 31.8431 43.3491C32.8967 44.3623 34.5218 43.5818 34.9705 43.1683C34.6172 42.7685 34.3924 42.2717 34.3253 41.7424C34.0272 39.957 36.3171 40.0513 36.019 41.8669C35.9344 42.3451 35.7173 42.79 35.3923 43.1509C36.4865 43.8335 37.6846 43.1489 38.1417 42.735C37.7868 42.4339 37.5576 42.0108 37.4993 41.5491C37.3112 39.921 39.0291 39.6225 39.0853 41.3673C39.0866 41.8587 38.9074 42.3335 38.5817 42.7014C39.3431 43.2168 40.5822 42.6447 40.9587 42.3035C40.6981 41.9778 40.5496 41.5767 40.5351 41.1598C40.4911 39.0431 43.3279 40.1902 41.3611 42.3106C41.6804 42.5327 42.0716 42.6262 42.4568 42.5725C42.8419 42.5187 43.1926 42.3216 43.4388 42.0206C43.4607 41.9898 43.4937 41.9688 43.5308 41.9618C43.568 41.9548 43.6063 41.9624 43.6379 41.9831C43.6695 42.0038 43.6919 42.0359 43.7004 42.0727C43.7088 42.1095 43.7027 42.1482 43.6833 42.1806C43.2321 42.8701 41.9228 43.1277 41.1512 42.5181C40.7348 42.8984 39.4536 43.5093 38.3786 42.9167C37.9588 43.314 37.4256 43.5705 36.8532 43.6505C36.2807 43.7304 35.6976 43.6298 35.1851 43.3627C34.6974 43.828 33.0797 44.7065 31.6219 43.5539ZM35.0702 40.7481C34.7279 40.7904 34.5486 41.2884 34.6165 41.6949C34.6736 42.163 34.8687 42.6035 35.177 42.9603C36.1034 41.9059 35.7763 40.6596 35.0717 40.7479L35.0702 40.7481ZM38.2533 40.4824C37.7476 40.5449 37.476 41.7906 38.3464 42.5306C38.6377 42.2176 38.7988 41.8054 38.7969 41.3778C38.7845 40.9429 38.538 40.4472 38.2548 40.4822L38.2533 40.4824ZM41.2472 40.3299C40.8847 40.3747 40.5634 41.2878 41.1729 42.0955C41.4767 41.7951 41.6837 41.4107 41.7672 40.9917C41.794 40.7382 41.6124 40.2845 41.2487 40.3294L41.2472 40.3299ZM28.796 41.3383C28.4773 41.3777 28.2135 41.8383 28.2483 42.4168C28.2597 42.8135 28.3952 43.1967 28.6358 43.5124C28.8912 43.1915 29.0641 42.813 29.1395 42.4098C29.2386 41.9118 29.0535 41.3444 28.796 41.3383ZM31.8075 41.1554C31.4397 41.1968 31.2144 41.6526 31.2725 42.1229C31.3247 42.4794 31.4593 42.8188 31.6655 43.1143C31.9475 42.8605 32.1462 42.5274 32.2355 42.1586C32.3138 41.6905 32.1826 41.1619 31.8075 41.1554Z" fill="#254281"/>
<path d="M34.089 48.4976C34.0706 48.5008 34.0517 48.5004 34.0335 48.4962C34.0152 48.492 33.998 48.4841 33.9829 48.4731C33.9678 48.4621 33.955 48.4481 33.9455 48.432C33.9359 48.416 33.9296 48.3981 33.9271 48.3796C33.9224 48.3411 33.9331 48.3024 33.9568 48.2718C33.9806 48.2413 34.0156 48.2214 34.054 48.2166C38.4379 47.6722 43.0738 47.0927 43.0738 47.0927L43.1097 47.3826L34.089 48.4976Z" fill="#313131"/>
<path d="M32.275 48.7321C26.4704 49.4479 26.4267 49.4459 26.4086 49.4456C26.3709 49.4448 26.3349 49.4294 26.3083 49.4027C26.2817 49.376 26.2665 49.34 26.2658 49.3022C26.2652 49.2645 26.2792 49.228 26.3049 49.2004C26.3306 49.1728 26.366 49.1562 26.4037 49.1541C26.5377 49.1425 29.6258 48.7639 32.2385 48.4422C32.258 48.4389 32.278 48.4396 32.2972 48.4442C32.3164 48.4488 32.3345 48.4572 32.3504 48.469C32.3662 48.4808 32.3795 48.4957 32.3895 48.5128C32.3994 48.5299 32.4058 48.5488 32.4082 48.5684C32.4106 48.588 32.4091 48.6079 32.4036 48.6269C32.3981 48.6459 32.3888 48.6636 32.3763 48.6789C32.3638 48.6942 32.3483 48.7068 32.3308 48.716C32.3133 48.7251 32.2941 48.7306 32.2744 48.7321L32.275 48.7321Z" fill="#313131"/>
<path d="M40.7597 18.5275C40.7058 18.7016 40.6446 18.8921 40.5677 19.1226L41.5274 19.5257C41.6232 19.257 41.679 19.0262 41.7386 18.8538C41.9801 18.1545 40.9454 17.9283 40.76 18.5278L40.7597 18.5275Z" fill="white"/>
<path d="M36.9209 30.5989L36.6525 32.8827L37.8998 30.9445L36.9209 30.5986V30.5989Z" fill="white"/>
<path d="M40.6252 18.4826C40.5855 18.611 36.9966 29.7389 36.8154 30.5261C36.7477 30.5786 36.7825 30.4218 36.5121 32.8666C36.4956 33.0149 36.6913 33.0843 36.772 32.959C38.213 30.7226 38.0458 30.9961 38.0546 30.9678L41.8933 18.8954C42.1411 18.0897 40.8852 17.6418 40.6255 18.4826H40.6252ZM40.896 18.5662C41.0442 18.0852 41.7603 18.3621 41.6231 18.8086C41.5744 18.9549 41.512 19.142 41.4482 19.3563L40.7398 19.0527C40.7942 18.8852 40.8509 18.7122 40.896 18.5662ZM37.0286 30.7827L37.6917 30.9995L36.8602 32.2979L37.0286 30.7827Z" fill="#313131"/>
<path d="M47.4972 23.1578C46.0392 22.1849 43.7517 20.209 43.7234 20.1846C43.5507 20.2421 43.3526 20.313 43.2185 20.4085C40.8346 21.6528 37.5558 24.0383 36.9814 26.6651C36.9622 26.8571 36.9239 27.3367 37.2309 27.3177C37.6723 27.2985 38.0561 26.5693 38.2863 26.262C38.906 25.4359 39.3364 24.958 40.1815 24.3984C39.818 24.9435 39.3418 25.8172 39.361 26.4922C39.3803 26.8182 39.6298 27.1065 39.9368 27.0487C40.3323 26.9767 40.5438 26.8177 40.7584 26.4817C40.6597 26.6956 40.6085 26.9283 40.6084 27.1638C40.6659 27.5477 40.9922 27.7393 41.4719 27.5477C41.6885 27.4215 41.9297 27.2506 42.0851 27.0549C42.0709 27.5233 42.1857 27.9139 42.393 28.0273C42.5656 28.1231 42.8891 28.0242 43.0263 27.9122C43.3653 27.6355 43.3909 27.5664 43.6213 27.2214L43.7172 27.1445C44.1911 27.8215 46.2598 27.087 45.654 25.616C47.1854 24.2575 47.2384 23.61 47.4969 23.1575H47.4972V23.1578Z" fill="#FCCAC2"/>
<path d="M53.2929 8.01085C51.4454 11.2132 48.5771 14.716 46.1348 17.4913C45.1037 18.6607 43.7818 20.0938 43.6976 20.178C43.7263 20.2029 46.6893 22.7175 47.4783 23.1909C47.5744 23.2674 47.6895 23.306 47.8046 23.3253C49.9826 23.2864 53.1458 21.408 54.9437 20.178C56.4317 19.093 58.1417 17.8675 59.5881 16.589C59.3622 16.2581 53.495 7.65763 53.2935 8.01057H53.2929V8.01085Z" fill="#254281"/>
<path d="M57.7707 13.9751C57.7879 13.9429 57.792 13.9053 57.7822 13.8701C57.7724 13.835 57.7494 13.8049 57.718 13.7862C57.6867 13.7676 57.6493 13.7617 57.6138 13.7698C57.5782 13.778 57.5471 13.7995 57.5269 13.8299C57.0739 14.5908 56.3454 15.2581 55.769 15.7684C55.0234 14.7952 54.4151 14.0088 53.6136 13.0809C54.383 12.2225 54.9957 11.4838 55.536 10.7634C55.5472 10.7485 55.5553 10.7316 55.5599 10.7135C55.5645 10.6955 55.5655 10.6767 55.5629 10.6583C55.5603 10.6399 55.554 10.6222 55.5446 10.6061C55.5351 10.5901 55.5225 10.5761 55.5076 10.565C55.4927 10.5538 55.4758 10.5457 55.4578 10.5411C55.4397 10.5364 55.421 10.5354 55.4025 10.538C55.3841 10.5407 55.3664 10.5469 55.3504 10.5564C55.3344 10.5659 55.3204 10.5784 55.3092 10.5933C54.7794 11.2992 54.1789 12.0244 53.4263 12.8655C53.1533 12.5627 52.4944 11.8103 51.8957 11.2116C51.6904 11.0052 51.6267 10.8629 51.5076 10.8629C51.3063 10.8629 51.2961 11.1076 51.4662 11.1592C52.4689 12.2455 51.4855 11.1456 53.2355 13.077C52.4241 13.9708 51.5501 14.8289 50.7172 15.6284C50.1633 15.0245 49.6147 14.5103 49.0429 14.0598C49.0284 14.0478 49.0116 14.0387 48.9935 14.0332C48.9754 14.0278 48.9563 14.026 48.9375 14.028C48.9187 14.03 48.9005 14.0357 48.884 14.0448C48.8674 14.054 48.8528 14.0663 48.8411 14.0812C48.8294 14.096 48.8208 14.1131 48.8158 14.1313C48.8108 14.1495 48.8094 14.1686 48.8119 14.1873C48.8143 14.2061 48.8205 14.2241 48.8301 14.2405C48.8396 14.2568 48.8523 14.271 48.8675 14.2824C49.4273 14.7238 49.9657 15.2278 50.5134 15.8251C49.5697 16.7269 48.623 17.6253 47.6731 18.5205C47.6731 18.5205 46.5304 17.6015 46.4742 17.5547C46.4742 17.5547 46.3923 17.5076 46.3112 17.4339C46.2375 17.3188 46.036 17.3639 46.0357 17.5102C46.0357 17.5374 46.0435 17.564 46.0581 17.5868C46.0728 17.6097 46.0937 17.6279 46.1185 17.6392C46.1683 17.6922 46.2364 17.7421 46.2937 17.7733C46.3974 17.8597 46.2976 17.7684 47.4633 18.7153C46.9295 19.2111 45.5169 20.5535 44.9493 20.9294C44.9156 20.9344 44.8847 20.9508 44.8616 20.9759C44.8385 21.0009 44.8246 21.0331 44.8223 21.0671C44.815 21.1715 44.9017 21.2344 44.9887 21.2191C45.2989 21.1644 47.4333 19.1298 47.685 18.8967C47.8497 19.0317 48.2665 19.3104 49.5345 20.4866C48.7875 21.0218 47.3565 22.0004 46.5811 22.454C46.4567 22.5271 46.5085 22.7185 46.6528 22.7185C46.8606 22.7185 49.6675 20.7338 49.7494 20.687C50.0099 20.9313 51.1161 21.9822 51.4115 22.2581C51.439 22.2836 51.4756 22.2973 51.5131 22.296C51.5507 22.2947 51.5862 22.2786 51.6119 22.2513C51.6375 22.2237 51.6511 22.1872 51.6498 22.1497C51.6485 22.1121 51.6325 22.0766 51.6051 22.0508C51.3103 21.7756 50.2279 20.7468 49.979 20.5135C51.0025 19.8029 52.0158 19.0778 53.0186 18.3383C53.572 18.8919 54.1387 19.4637 54.6436 20.0588C54.6686 20.0851 54.7027 20.1008 54.7389 20.1027C54.7751 20.1047 54.8107 20.0927 54.8384 20.0692C54.866 20.0458 54.8837 20.0126 54.8877 19.9766C54.8917 19.9405 54.8817 19.9043 54.8599 19.8753C54.357 19.2829 53.7968 18.7164 53.2488 18.1679C54.1863 17.4665 55.6156 16.2875 55.7316 16.1863C56.2328 16.8477 56.7643 17.5414 57.3103 18.1962C57.3344 18.2251 57.369 18.2433 57.4064 18.2467C57.4439 18.2502 57.4812 18.2386 57.5101 18.2145C57.539 18.1905 57.5571 18.1559 57.5606 18.1184C57.564 18.081 57.5524 18.0437 57.5284 18.0148C56.9809 17.3585 56.4466 16.6609 55.9422 15.9952C56.5302 15.475 57.2911 14.7827 57.7716 13.9756L57.7707 13.9751ZM47.8945 18.7023C47.9254 18.6733 50.6795 16.059 50.709 16.0307C50.8091 16.1324 52.5472 17.8586 52.817 18.1342C51.8108 18.8761 50.7938 19.6033 49.7664 20.3156C48.4371 19.0802 47.9237 18.7261 47.8945 18.7025V18.7023ZM53.0469 17.9641C52.4496 17.3509 52.5664 17.5122 50.9131 15.8336C51.7418 15.0384 52.6118 14.1846 53.4226 13.2933C54.1355 14.1063 54.9854 15.2117 55.5587 15.9598C55.4952 16.0162 54.1268 17.1575 53.0472 17.9641H53.0469Z" fill="white"/>
<path d="M47.4061 23.1902C47.3884 23.1846 47.3697 23.1825 47.3511 23.184C47.3326 23.1856 47.3145 23.1908 47.298 23.1994C47.2815 23.2079 47.2668 23.2197 47.2548 23.2339C47.2428 23.2481 47.2337 23.2646 47.2281 23.2823C46.8496 24.4718 45.7443 25.381 44.7955 26.1921C44.6529 26.314 44.8374 26.5294 44.9797 26.4075C45.1603 26.2533 45.3658 26.0784 45.5563 25.906C45.6377 26.1649 45.6113 26.4024 45.477 26.6136C45.2374 26.9907 44.7056 27.2106 44.2999 27.2333C44.1207 27.2478 43.956 27.1772 43.8585 27.0536C43.7344 26.841 43.6901 26.6261 43.7227 26.3967C43.7281 26.3595 43.7184 26.3217 43.6959 26.2916C43.6733 26.2615 43.6397 26.2416 43.6025 26.2363C43.5653 26.231 43.5275 26.2406 43.4974 26.2632C43.4673 26.2857 43.4474 26.3193 43.4421 26.3565C43.4075 26.5994 43.4421 26.8367 43.5509 27.0726C43.5223 27.0958 43.4287 27.2367 43.378 27.3119C43.2578 27.4899 43.1983 27.5653 42.9528 27.766C42.8453 27.8539 42.5854 27.9231 42.4796 27.8644C42.3495 27.7932 42.2273 27.4723 42.2463 26.9966C42.263 26.5946 42.3747 26.1742 42.578 25.7467C42.5942 25.7127 42.5962 25.6737 42.5836 25.6382C42.571 25.6028 42.5448 25.5738 42.5108 25.5576C42.4768 25.5415 42.4378 25.5394 42.4023 25.552C42.3669 25.5646 42.3379 25.5908 42.3217 25.6248C42.1179 26.0529 41.9994 26.4773 41.9685 26.888C41.9376 26.9172 41.7423 27.224 41.4375 27.3773C41.1135 27.5075 40.8229 27.4652 40.7682 27.125C40.7682 26.8957 40.8226 26.6655 40.9298 26.4512C41.1583 25.9111 41.4352 25.4173 41.651 25.0471C41.6699 25.0146 41.6752 24.9759 41.6656 24.9395C41.6561 24.9032 41.6324 24.8721 41.6 24.8531C41.5675 24.8342 41.5288 24.8289 41.4924 24.8385C41.4561 24.8481 41.425 24.8717 41.406 24.9042C40.5831 26.3162 40.6165 26.7486 39.9566 26.8693C39.9128 26.8738 39.8686 26.8694 39.8266 26.8561C39.7846 26.8429 39.7458 26.8213 39.7125 26.7925C39.0826 26.27 40.3228 24.3777 40.8345 23.7195C40.8577 23.6898 40.868 23.6522 40.8634 23.6149C40.8588 23.5775 40.8395 23.5436 40.8099 23.5205C40.7802 23.4973 40.7426 23.4869 40.7053 23.4916C40.6679 23.4962 40.634 23.5155 40.6109 23.5451C40.4892 23.7013 40.324 23.9463 40.1783 24.1648C40.1604 24.1682 40.1434 24.1749 40.1281 24.1847C39.215 24.7675 38.8524 25.2815 38.2103 26.1382C38.0067 26.4098 37.637 27.1145 37.2592 27.1372C36.9071 27.1585 37.004 24.4778 42.0459 21.2188C42.5414 20.9036 42.9332 20.6813 43.3307 20.49C43.4829 20.395 43.615 20.3326 43.7344 20.3006H43.812C43.8496 20.3006 43.8857 20.2856 43.9123 20.2591C43.9388 20.2325 43.9538 20.1964 43.9538 20.1588C43.9538 20.1212 43.9388 20.0852 43.9123 20.0586C43.8857 20.032 43.8496 20.0171 43.812 20.0171H43.7162C43.6039 20.0171 43.325 20.1597 43.1943 20.2419C42.8003 20.4304 42.3991 20.6578 41.8928 20.9801C39.9648 22.226 37.319 24.3295 36.8796 26.5983C36.8044 26.9765 36.8909 27.4451 37.2739 27.4201C37.8159 27.3975 38.1882 26.64 38.4371 26.308C38.9006 25.6897 39.2436 25.201 39.8145 24.7519C39.4284 25.43 38.9298 26.5124 39.5313 27.0105C39.5954 27.0649 39.6701 27.1053 39.7507 27.1292C39.8313 27.1531 39.916 27.1599 39.9994 27.1491C40.6021 27.0397 40.4844 26.7755 40.4861 27.1449C40.5893 27.8652 41.3961 27.9109 41.971 27.3232C42.011 27.7436 42.1681 28.1691 42.5905 28.1691C43.0253 28.1691 43.3692 27.8306 43.6124 27.4703C43.6431 27.425 43.6774 27.3742 43.7193 27.3147C43.8656 27.4461 44.0554 27.5187 44.252 27.5185C44.7498 27.5185 45.4157 27.2379 45.7159 26.7653C45.9328 26.4237 45.9269 26.014 45.7828 25.7019C46.4706 25.076 47.1907 24.3338 47.498 23.3679C47.5036 23.3502 47.5057 23.3315 47.5041 23.313C47.5025 23.2944 47.4973 23.2764 47.4888 23.2598C47.4802 23.2433 47.4685 23.2286 47.4543 23.2166C47.44 23.2046 47.4236 23.1955 47.4058 23.1899L47.4061 23.1902Z" fill="#313131"/>
<path d="M25.6565 49.9244C25.7334 50.385 24.4078 53.608 23.085 55.6242C21.9899 57.2931 18.366 61.6163 17.8266 61.8613C17.4824 62.0178 10.5341 55.6435 10.5341 55.6435C10.5341 55.6435 14.1426 53.1111 15.0055 52.4001C17.5411 50.3111 20.283 47.1034 20.6478 47.1226C21.2063 47.1226 25.6568 49.4938 25.6568 49.9247L25.6565 49.9244Z" fill="#FDAF31"/>
<path d="M25.1775 42.9584C26.022 42.1525 27.4612 41.3848 26.8855 43.1311L26.9238 43.1693C27.5378 42.8623 28.1065 42.8986 27.8448 43.7451C27.7839 43.943 27.7069 44.1355 27.6146 44.3209C29.0786 43.3227 29.751 44.1771 29.1307 45.3763C28.843 46.0479 28.2672 46.5661 27.5763 46.7963L27.4805 46.758C26.9816 47.8903 26.5595 48.9843 25.5806 49.7902C25.0434 49.1952 21.8382 47.4489 20.8596 47.1612C22.0676 44.4436 23.7682 41.6138 26.1371 39.7918C26.636 39.408 27.4417 38.8532 28.0946 38.9859C28.6701 39.1027 27.9565 39.846 27.7875 40.0223C26.8849 40.9632 25.9069 41.8262 25.1775 42.9584Z" fill="#FCCAC2"/>
<path d="M29.079 43.8484C28.7142 43.6661 28.2334 43.8385 27.8677 44.0378C27.9031 43.9473 27.9343 43.8575 27.9609 43.7685C28.2163 42.9662 27.7704 42.675 27.0909 42.9163C27.3472 41.9221 26.8321 41.6514 25.9343 42.182C27.1476 40.7567 28.62 39.7041 28.4423 39.117C28.4148 39.026 28.3368 38.9086 28.1231 38.8658C27.4223 38.7215 26.605 39.2717 26.0505 39.6984C23.7443 41.4722 21.9841 44.3383 20.7886 46.9909C20.7575 46.985 20.7259 46.9817 20.6942 46.981C20.1805 46.9705 17.6212 50.0724 14.9351 52.2904C14.0855 52.989 10.5082 55.5018 10.4721 55.5271C10.4548 55.5392 10.4404 55.5551 10.43 55.5736C10.4196 55.5921 10.4134 55.6127 10.412 55.6339C10.4107 55.655 10.414 55.6762 10.4219 55.6959C10.4298 55.7156 10.4421 55.7333 10.4577 55.7476C16.7682 61.5351 17.6643 62.0003 17.8599 62.0003C18.3313 62.0003 22.3957 56.9643 23.2227 55.7017C24.476 53.7944 25.9093 50.4631 25.8155 49.9009C25.8107 49.8717 25.7891 49.832 25.7678 49.7969C26.6501 49.0261 27.0634 48.0423 27.5331 46.9696C27.7078 47.0249 28.8006 46.5438 29.2559 45.4793C29.6369 44.7425 29.568 44.1027 29.0784 43.8481L29.079 43.8484ZM22.986 55.5466C21.8242 57.3198 18.3846 61.361 17.8182 61.7156C17.2804 61.507 13.2977 57.9639 10.7795 55.658C15.1863 52.5561 15.5543 52.308 18.8677 48.9634C20.6849 47.1289 20.6336 47.229 20.8385 47.2971C21.8339 47.5899 25.2876 49.4859 25.5382 49.9661C25.5606 50.4035 24.362 53.4528 22.986 55.5469V55.5466ZM29.0002 45.3588C28.7456 45.9469 28.2687 46.4104 27.6735 46.6479C27.7248 46.4942 27.9187 45.8912 28.0267 45.7648C28.1741 45.7345 28.1786 45.5247 28.0326 45.4884C27.699 45.4039 27.5363 46.2575 27.2304 46.9554C26.7995 47.9431 26.3918 48.8778 25.5762 49.5885C24.8077 48.9112 22.1287 47.4453 21.063 47.072C22.2387 44.4709 23.9691 41.657 26.2231 39.9232C26.5171 39.697 27.4112 39.0087 28.0664 39.1436C28.1012 39.1504 28.1611 39.1671 28.1707 39.1992C28.1999 39.295 28.0326 39.5802 27.6828 39.945C27.4121 40.2274 27.1351 40.516 26.8618 40.7898C25.3109 42.3431 25.7644 42.0168 24.724 43.2304C24.7119 43.2445 24.7027 43.2609 24.697 43.2786C24.6912 43.2963 24.689 43.315 24.6904 43.3336C24.6919 43.3521 24.697 43.3702 24.7054 43.3868C24.7139 43.4034 24.7255 43.4182 24.7396 43.4303C24.7538 43.4424 24.7702 43.4515 24.7879 43.4573C24.8056 43.4631 24.8242 43.4653 24.8428 43.4639C24.8613 43.4624 24.8794 43.4573 24.896 43.4489C24.9126 43.4404 24.9274 43.4288 24.9395 43.4147C25.6675 42.5645 26.5534 42.0687 26.7969 42.222C26.842 42.2507 26.9718 42.3955 26.7504 43.0668L26.7482 43.0753C26.3498 43.3081 26.0142 43.6018 25.7732 43.9292C25.7618 43.9441 25.7534 43.9612 25.7487 43.9795C25.7439 43.9977 25.7428 44.0167 25.7455 44.0353C25.7481 44.0539 25.7545 44.0719 25.7641 44.088C25.7738 44.1042 25.7866 44.1183 25.8017 44.1294C25.8169 44.1406 25.8341 44.1486 25.8524 44.1531C25.8707 44.1575 25.8897 44.1582 25.9083 44.1553C25.9269 44.1523 25.9447 44.1456 25.9607 44.1357C25.9767 44.1257 25.9905 44.1127 26.0014 44.0973C26.9667 42.7881 28.9789 42.571 26.8066 44.8165C26.3155 45.2341 26.8301 45.3781 26.8879 45.1425C27.0243 44.9611 27.5099 44.5707 27.6944 44.4758C29.0297 43.5655 29.5578 44.279 29.0002 45.3583V45.3588Z" fill="#313131"/>
<path d="M47.9586 48.4846C47.0375 48.5997 44.8113 49.0218 43.9285 49.3291C42.6236 47.6594 42.1924 45.574 40.9924 43.8787C40.4509 43.1139 39.7561 42.4845 39.1693 41.7676C39.0913 41.6726 38.651 41.2304 38.7661 41.0767C38.8812 40.8848 39.5146 41.2686 39.6107 41.3455C40.2247 41.7293 40.8053 42.1659 41.3187 42.6696C41.4156 42.7646 41.7218 43.1686 41.8752 43.1879C41.971 43.1879 41.7794 43.0152 41.7215 42.9191C40.7285 41.5289 39.3343 40.3025 39.6489 40.1939C39.9185 40.1009 40.4356 40.5012 40.6275 40.6353C41.2603 41.0773 41.846 41.6043 42.3931 42.1707C42.6193 42.4049 42.9283 42.9231 43.2183 43.0728C43.2654 43.0971 43.029 42.7178 43.0071 42.6889C42.8581 42.4683 42.7045 42.2507 42.5465 42.0363C41.076 40.2829 40.4866 40.0142 40.6273 39.7911C40.7608 39.5793 41.3181 39.8869 41.4525 39.9637C42.2585 40.3669 42.9357 41.0719 43.5251 41.7486C43.8148 42.0807 44.0964 42.4199 44.3696 42.7657C44.4272 42.7275 44.0433 42.1324 44.024 42.0942C43.6232 41.4216 43.1468 40.7971 42.604 40.2328C42.5663 40.1936 41.9132 39.5612 42.0283 39.5036C42.2202 39.4268 42.5847 39.7148 42.7191 39.7914C43.3203 40.1795 43.8686 40.6439 44.3503 41.1731C46.0714 43.0643 47.8324 47.0997 47.9583 48.4849L47.9586 48.4846Z" fill="white"/>
<path d="M56.3499 57.1344C56.2785 56.742 48.794 48.3737 48.4173 48.3255C48.0357 48.2773 48.1094 48.3794 48.0771 48.2421C47.5149 45.8416 45.8727 42.6123 44.4158 41.039C43.8712 40.4507 43.3281 39.9909 42.75 39.6289C42.4617 39.4222 42.1635 39.2442 41.9452 39.3312C41.92 39.3413 41.8973 39.3569 41.8789 39.3769C41.8605 39.397 41.8468 39.4209 41.8389 39.4469C41.778 39.7057 42.4785 40.1848 43.3142 41.3083C42.7761 40.7257 42.1133 40.1023 41.3967 39.7618C41.1203 39.6297 40.6502 39.4041 40.4688 39.6785C40.3168 39.9081 40.6321 40.2001 40.7971 40.356C41.0672 40.6112 41.3437 40.891 41.77 41.3644C41.4007 41.033 41.0124 40.7234 40.6071 40.4371C40.2525 40.1834 39.8502 39.92 39.565 40.0224C39.5346 40.0323 39.507 40.0494 39.4845 40.0721C39.462 40.0948 39.4452 40.1226 39.4355 40.153C39.3592 40.4079 39.7808 40.7934 40.8351 42.0408C40.3639 41.6442 39.9075 41.3343 39.5619 41.1416C39.1664 40.9205 38.7673 40.7246 38.6136 40.9545C38.46 41.1594 38.7021 41.4625 38.9635 41.7553C40.8399 43.8415 41.0568 43.9476 42.185 46.4803C42.6072 47.4274 43.0432 48.4057 43.6983 49.2755C43.6245 49.3134 43.5552 49.3595 43.4917 49.413C43.126 49.7166 46.0657 58.0129 46.3271 58.7613C46.3379 58.7923 46.3592 58.8185 46.3872 58.8356C46.4152 58.8527 46.4483 58.8595 46.4808 58.8549C46.5052 58.8515 48.9466 58.5099 51.3568 58.1493C56.3522 57.402 56.3522 57.3311 56.3499 57.1347V57.1344ZM43.9759 49.1706C42.7109 47.532 42.2749 45.462 41.0687 43.7582C40.4322 42.8717 38.9703 41.4387 38.8506 41.1359C39.2608 41.1662 40.7395 42.2203 41.3283 42.891C41.5293 43.1206 41.6722 43.2723 41.8364 43.2918C41.9106 43.2918 41.971 43.2553 41.9979 43.1943C42.066 43.041 41.8724 42.8984 41.7981 42.7989C41.0996 41.8237 40.0129 40.7325 39.7439 40.2849C39.9619 40.3163 40.3375 40.5913 40.5054 40.7121C41.1438 41.1711 42.0325 41.9246 42.5136 42.5466C42.6814 42.7634 43.105 43.3324 43.2924 43.1328C43.3627 43.0577 43.3329 42.9942 43.2487 42.8368C43.1671 42.684 42.8929 42.2455 42.6165 41.9073C41.1429 40.1502 40.8005 40.0603 40.7191 39.8318C40.7679 39.8236 40.9023 39.8392 41.2745 40.017C42.0779 40.3997 42.8008 41.1501 43.3791 41.8027C44.2313 42.7972 44.0861 42.6835 44.2307 42.8278C44.2538 42.851 44.2844 42.8655 44.317 42.8687C44.3496 42.8719 44.3824 42.8637 44.4096 42.8453C44.5542 42.7492 44.485 42.6004 44.1511 42.0555C43.1895 40.4881 42.701 40.1797 42.2537 39.6518C42.3367 39.6932 42.4504 39.7621 42.6055 39.873C43.1563 40.2171 43.6805 40.6611 44.208 41.2312C45.7754 42.9176 47.3485 46.3002 47.814 48.3629C46.8005 48.5004 44.8345 48.8865 43.9756 49.17L43.9759 49.1706Z" fill="#313131"/>
<path d="M26.1752 17.2231L25.4268 16.8585C25.3117 16.8203 25.2349 16.7242 25.1966 16.6283C25.1155 16.3851 25.1473 16.4072 25.4078 15.4961C25.4535 15.4051 25.2899 15.3481 25.2542 15.4192L24.6784 16.0143C24.5058 16.1679 24.2563 16.2062 24.0641 16.0718L23.3732 15.6112C23.3126 15.5505 23.1875 15.6236 23.2388 15.7263L23.6227 16.4557C23.7117 16.6779 23.6825 16.8951 23.4883 17.0507L22.8357 17.569C22.7728 17.6322 22.8281 17.7226 22.9125 17.7226L23.7378 17.5882C23.949 17.55 24.178 17.6846 24.256 17.8952C24.5528 18.6987 24.5423 18.7205 24.6206 18.7205C24.6588 18.7205 24.7164 18.7015 24.7164 18.6437L24.8508 17.8184C24.8682 17.708 24.9239 17.6071 25.0081 17.5335C25.0923 17.4599 25.1996 17.4181 25.3114 17.4156C26.2399 17.394 26.1613 17.3909 26.2135 17.3388C26.2328 17.3005 26.2135 17.2429 26.1752 17.2237V17.2231Z" fill="#6BDDFF"/>
<path d="M17.001 27.893L16.2333 27.5089C16.1182 27.4706 16.0414 27.3745 16.0031 27.2787C15.9161 27.061 15.9662 27.0142 16.2143 26.1464C16.2336 26.1079 16.2143 26.0699 16.176 26.0503C16.1377 26.0313 16.0992 26.0503 16.0609 26.0696C15.4375 26.7137 15.4409 26.7585 15.1974 26.7988C15.0109 26.8362 14.883 26.7171 14.1995 26.2613C14.1383 26.2003 14.0141 26.2743 14.0651 26.3764L14.449 27.1058C14.4873 27.2016 14.5065 27.317 14.4873 27.4321C14.4479 27.6291 14.358 27.6662 13.662 28.2188C13.6427 28.257 13.6238 28.2956 13.6427 28.3339C13.6518 28.3515 13.6656 28.3662 13.6826 28.3764C13.6995 28.3866 13.7191 28.3918 13.7389 28.3914C14.6052 28.2505 14.7044 28.2032 14.8904 28.3149C14.9862 28.3721 15.063 28.4682 15.1016 28.5643L15.3893 29.3507C15.4333 29.4389 15.562 29.4182 15.562 29.3315C15.7043 28.4572 15.6836 28.3849 15.8497 28.2185C15.9455 28.1419 16.0416 28.1034 16.1567 28.1034L16.982 28.0651C17.0693 28.0651 17.0889 27.9361 17.0013 27.8925L17.001 27.8927V27.893Z" fill="#6BDDFF"/>
</svg>
