<svg width="70" height="70" viewBox="0 0 70 70" fill="none" xmlns="http://www.w3.org/2000/svg">
<rect width="70" height="70" rx="10" fill="#E7F8FF"/>
<path d="M34.0494 22.2292C30.9573 22.2292 28.4529 19.8271 28.4529 16.8628C28.4529 13.8985 30.9573 11.5228 34.0494 11.5228C34.0494 11.4433 34.0455 11.4718 22.9332 11.4718C21.4932 11.4824 20.1158 12.062 19.1014 13.084C18.0869 14.106 17.5176 15.4877 17.5176 16.9277C17.5176 18.3678 18.0869 19.7494 19.1014 20.7714C20.1158 21.7935 21.4932 22.373 22.9332 22.3837H34.0239C34.0239 22.2064 34.0137 22.2292 34.0494 22.2292Z" fill="white"/>
<path d="M35.5319 11.4707H34.0496C30.9575 11.4707 28.4531 13.9241 28.4531 16.8629C28.4785 18.3299 29.0795 19.7281 30.1264 20.7559C31.1734 21.7837 32.5825 22.3588 34.0496 22.3571H35.5319C36.9657 22.3421 38.3355 21.7619 39.3441 20.7428C40.3526 19.7236 40.9183 18.3477 40.9183 16.9139C40.9183 15.4801 40.3526 14.1042 39.3441 13.085C38.3355 12.0659 36.9657 11.4858 35.5319 11.4707Z" fill="#7BD2FF"/>
<path d="M35.2768 22.1003C32.2612 22.1003 29.8081 19.7492 29.8081 16.8617C29.8081 13.9742 32.2612 11.6228 35.2768 11.6228C35.3107 11.6228 35.3432 11.6093 35.3672 11.5854C35.3911 11.5614 35.4046 11.5289 35.4046 11.495C35.4046 11.4611 35.3911 11.4286 35.3672 11.4046C35.3432 11.3807 35.3107 11.3672 35.2768 11.3672C32.1079 11.3672 29.5525 13.8206 29.5525 16.8617C29.5525 19.877 32.1079 22.3559 35.2768 22.3559C35.3107 22.3559 35.3432 22.3424 35.3672 22.3185C35.3911 22.2945 35.4046 22.262 35.4046 22.2281C35.4046 22.1942 35.3911 22.1617 35.3672 22.1377C35.3432 22.1138 35.3107 22.1003 35.2768 22.1003Z" fill="white"/>
<path d="M23.7002 35.2519C26.7923 35.2519 29.2967 37.654 29.2967 40.6183C29.2967 43.5826 26.7923 45.9583 23.7002 45.9583C23.7002 46.0378 23.7038 46.0096 34.8164 46.0096C35.8902 46.0013 36.9377 45.6765 37.8277 45.0756C38.7177 44.4748 39.4107 43.6247 39.8198 42.6319C40.2289 41.639 40.3359 40.5475 40.1275 39.4941C39.9192 38.4407 39.4046 37.4722 38.6483 36.7099C37.6338 35.6879 36.2564 35.1084 34.8164 35.0977H23.7257C23.7257 35.2747 23.7359 35.2519 23.7002 35.2519Z" fill="white"/>
<path d="M22.2176 46.0114H23.6996C26.792 46.0114 29.2964 43.558 29.2964 40.6192C29.2711 39.1522 28.67 37.7539 27.623 36.7261C26.576 35.6983 25.1668 35.1232 23.6996 35.125H22.2176C20.7741 35.1252 19.3897 35.6988 18.369 36.7195C17.3482 37.7403 16.7747 39.1247 16.7744 40.5682C16.7746 42.0118 17.3481 43.3962 18.3689 44.417C19.3896 45.4377 20.774 46.0112 22.2176 46.0114Z" fill="#016DAB"/>
<path d="M22.4735 35.3806C25.4888 35.3806 27.9422 37.7314 27.9422 40.6192C27.9422 43.507 25.4903 45.8578 22.4735 45.8578C22.4396 45.8578 22.4071 45.8713 22.3831 45.8952C22.3592 45.9192 22.3457 45.9517 22.3457 45.9856C22.3457 46.0195 22.3592 46.052 22.3831 46.076C22.4071 46.0999 22.4396 46.1134 22.4735 46.1134C25.6421 46.1134 28.1978 43.6603 28.1978 40.6192C28.1978 37.6036 25.6421 35.125 22.4735 35.125C22.4397 35.1253 22.4073 35.1387 22.3832 35.1625C22.3712 35.1742 22.3617 35.1883 22.3552 35.2038C22.3488 35.2193 22.3455 35.236 22.3457 35.2528C22.3458 35.2867 22.3593 35.3191 22.3832 35.3431C22.4072 35.367 22.4396 35.3805 22.4735 35.3806Z" fill="white"/>
<path d="M59.5281 49.0359C57.8181 48.9408 56.0655 48.7398 55.3881 48.627C55.2951 49.1841 56.1246 51.5985 56.487 52.4856C56.8407 53.3523 58.2951 57.8667 59.6556 59.2578C60.63 60.2538 61.9056 60.1449 61.9056 59.7678C62.0181 59.7687 59.5281 53.6841 59.5281 49.0359Z" fill="white"/>
<path d="M59.2993 34.3429C59.1715 33.1672 57.5104 25.1686 56.8714 24.0442C56.3218 23.0947 55.6498 21.9007 54.5209 21.6094C54.3814 21.2095 54.0349 20.569 54.0349 20.0578C53.7223 19.9012 53.6971 20.047 53.2426 19.1377L53.1148 19.0609C54.0349 18.8809 54.6994 17.7577 53.8816 17.0167C53.711 16.8781 53.4967 16.8046 53.277 16.8093C53.0572 16.814 52.8462 16.8965 52.6816 17.0422L52.5541 16.9399C51.6781 16.4347 51.751 15.31 52.1962 14.3077C52.2217 14.2312 52.2985 14.1034 52.2217 14.0524C52.054 13.8847 50.2195 14.1598 49.1296 12.6211C48.7909 12.847 48.7777 14.551 48.1075 14.9977C47.8009 15.2023 46.804 14.9467 46.7275 15.0232C46.5997 15.2032 47.0851 15.7132 47.1619 15.9178C47.5708 17.1178 46.9063 18.7798 47.6719 19.5478C48.5782 20.4817 50.2219 19.5676 50.6872 21.8986C48.934 22.1686 48.8218 22.45 48.8218 22.3333C47.4163 22.0264 44.0155 19.0978 43.5574 19.0111C43.4353 18.988 43.4125 19.0318 43.3276 19.0366C42.8929 18.0145 43.3276 16.9666 43.5574 15.9445C43.5829 15.7645 43.7875 14.9989 43.4551 14.9734C42.9919 14.9434 42.6607 15.9058 42.4075 16.3279C42.3199 16.2841 42.9271 13.4761 42.4075 13.6189C41.7823 13.7908 41.4973 15.6067 41.3596 16.2256C41.1739 16.2256 41.4265 13.1983 41.0275 13.3123C40.7536 13.3465 40.4725 14.2555 40.4143 14.4877C40.0789 15.997 40.2547 16.7878 40.1077 16.7878C39.9145 16.7878 39.7018 14.9437 39.673 14.7433C39.673 14.6923 39.622 14.1556 39.4687 14.2333C38.5828 14.5555 39.3958 17.3254 39.4687 18.0919C39.4687 18.1687 38.2549 17.7349 38.2165 18.2452C38.1736 18.8185 39.9388 19.7644 40.5163 20.0086C41.5747 20.4496 41.383 20.2339 41.4874 20.443C41.3854 20.5198 41.3341 20.5708 41.3596 20.5708C41.3896 20.5708 42.6118 23.1985 42.6118 23.2285C41.2717 23.2285 37.8334 21.4342 37.7155 21.3877C37.3885 21.259 37.0792 21.1957 36.9955 21.3691C36.496 20.3905 34.8484 16.7791 33.7708 16.993C33.3382 17.0794 34.1797 18.271 34.2808 18.424C34.3063 18.4498 34.5874 18.8074 34.4608 18.8332C33.8608 18.8332 33.4909 18.223 30.9853 18.0664C30.7048 18.0409 30.4226 18.0409 30.142 18.0664C30.057 18.0699 29.9739 18.0924 29.8988 18.1322C29.8236 18.172 29.7583 18.2282 29.7076 18.2965C29.4028 18.8452 32.734 19.3408 32.5954 19.5487C32.533 19.6732 32.0194 19.4977 30.5509 19.4977C29.6878 19.4977 29.0083 19.8277 29.7076 20.0599C30.3586 20.2762 32.4931 20.5813 32.4931 20.6986C32.4931 20.8228 31.5397 20.8186 31.3687 20.8519C30.82 20.8912 29.7238 20.947 29.5033 21.4141C29.2858 21.8746 31.3084 21.8143 31.7533 21.772C31.8043 21.772 32.2132 21.6952 32.2633 21.772C32.3365 21.9178 30.3979 22.282 30.3979 22.8451C30.5326 23.0695 31.828 22.9465 32.5444 22.8964C33.2302 22.8484 33.8146 23.0401 35.7643 23.6884C35.5843 24.1486 35.4322 24.5062 35.4322 24.5584C35.4322 24.5842 40.9522 29.8228 47.392 29.5684C47.392 29.6017 47.74 35.6449 48.1585 36.8515C48.5227 37.5799 58.5385 37.7377 59.4028 37.7461C59.4676 37.7461 59.4538 37.7704 59.4538 37.6438C59.4511 37.6408 59.4511 35.8249 59.2993 34.3429Z" fill="white"/>
<path d="M56.6924 60.92C56.8202 60.8687 56.9225 60.7922 57.0245 60.74C57.0668 60.698 57.2714 60.7133 57.2045 60.5102C57.1562 60.4136 56.9819 60.4517 56.9234 60.5102C53.8334 62.0543 53.4224 62.2739 53.4224 62.6822C53.4208 62.6994 53.4229 62.7167 53.4287 62.733C53.4346 62.7493 53.4439 62.7641 53.4561 62.7763C53.4684 62.7885 53.4831 62.7978 53.4994 62.8037C53.5157 62.8095 53.533 62.8117 53.5502 62.81C53.6939 62.81 53.6573 62.7026 53.7035 62.6567C53.7977 62.3735 54.2396 62.2226 54.47 62.069C54.5 62.0531 56.4584 61.0211 56.489 61.0211C56.5529 61.0853 56.6477 61.0934 56.7701 61.2767C57.1601 61.6667 57.2669 62.0435 57.3833 62.0435C57.782 62.0435 56.9888 61.1165 56.6924 60.92Z" fill="white"/>
<path d="M57.3302 60.4089C57.3046 60.4274 57.2859 60.454 57.2771 60.4843C57.2683 60.5147 57.2699 60.5471 57.2816 60.5765C57.2933 60.6058 57.3145 60.6304 57.3418 60.6464C57.369 60.6623 57.4009 60.6687 57.4322 60.6645C57.5315 60.7128 57.6188 60.7824 57.6878 60.8688C58.1243 61.3053 58.0919 61.7388 58.2755 61.7388C58.7105 61.7376 57.614 60.2196 57.3302 60.4089Z" fill="white"/>
<path d="M51.2735 60.6127C51.248 60.5872 51.2225 60.5872 51.1715 60.5872C51.0902 60.4657 50.936 60.6127 50.9669 60.6127C50.9669 60.8035 51.0842 60.8428 51.1715 60.8428C51.2225 60.8938 51.2993 60.9196 51.3248 60.9706C51.6848 61.3306 51.5882 61.5838 51.7847 61.5838C52.1642 61.5838 51.6194 60.8437 51.2735 60.6127Z" fill="white"/>
<path d="M52.3217 60.4073C52.2285 60.2946 52.1159 60.1994 51.9893 60.1262C51.7847 60.0239 51.6518 60.2639 51.9383 60.4073C52.6133 61.0823 52.3598 61.1996 52.6538 61.1996C52.8683 61.1294 52.4813 60.5669 52.3217 60.4073Z" fill="white"/>
<path d="M57.9949 14.153C57.7987 13.8413 57.4567 13.6943 57.2539 13.3865C56.9188 12.8765 56.8006 12.3065 56.3341 11.8532C54.2098 9.78862 51.9367 10.5662 50.5585 10.3709C49.7419 10.2554 48.9496 9.77392 48.2842 10.2176C47.9521 10.5242 48.0799 10.9586 47.9776 11.342C47.9521 11.4953 47.8243 11.522 47.722 11.6231C47.1541 12.1913 47.3671 13.43 48.6931 13.8731C48.7732 13.4455 48.8929 13.0263 49.0507 12.6209L49.1275 12.5699C50.3128 14.1503 52.0336 13.8149 52.2196 14.0009C52.3096 14.0909 52.144 14.2874 51.9385 14.972C51.7852 15.6365 51.8875 16.532 52.5517 16.8887L52.6795 16.991C52.8441 16.8454 53.0551 16.7629 53.2748 16.7582C53.4945 16.7534 53.7088 16.8268 53.8795 16.9652C54.6973 17.7065 54.0328 18.8309 53.1127 19.0097L53.2405 19.0862C53.3428 19.3163 53.5474 19.7762 53.7772 19.904C54.1105 20.2373 57.0061 18.0524 57.6871 17.144C58.2799 16.3538 58.5814 15.0839 57.9949 14.153Z" fill="#FDAF31"/>
<path d="M49.7664 15.7637C49.3281 15.7637 49.2102 16.2737 49.2564 16.2737C49.2564 16.3745 49.2863 16.4731 49.3424 16.557C49.3984 16.6409 49.4781 16.7062 49.5713 16.7448C49.6645 16.7835 49.767 16.7936 49.8659 16.7739C49.9649 16.7542 50.0557 16.7056 50.1271 16.6343C50.1984 16.563 50.2469 16.4721 50.2666 16.3732C50.2863 16.2742 50.2762 16.1717 50.2376 16.0785C50.199 15.9853 50.1336 15.9057 50.0498 15.8496C49.9659 15.7936 49.8673 15.7637 49.7664 15.7637Z" fill="#FDAF31"/>
<path d="M62.1855 60.3059C61.977 59.717 62.0805 59.5844 61.8279 59.0792C60.8286 55.9892 60.1497 52.2125 60.1923 49.1384C60.1239 49.2752 60.4851 49.1384 60.1923 49.1384C60.5502 48.602 60.1668 39.4532 59.5278 37.7153C59.6046 37.4342 59.4768 35.1599 59.4003 34.3424C59.2929 33.3977 57.7758 25.6517 56.8959 23.8904C56.3592 22.9703 55.6959 21.8204 54.5448 21.5138C54.5448 21.2366 54.0948 20.6327 54.1359 20.0573C54.1359 20.0234 54.1225 19.9909 54.0985 19.9669C54.0745 19.943 54.042 19.9295 54.0081 19.9295C53.9742 19.9295 53.9417 19.943 53.9178 19.9669C53.8938 19.9909 53.8803 20.0234 53.8803 20.0573C53.9329 20.5381 54.0714 21.0055 54.2892 21.4373C53.1262 21.4617 51.9656 21.5556 50.8137 21.7184C50.5326 20.3129 49.6638 20.1086 48.897 19.9295C47.6403 19.6343 47.3811 19.3226 47.4405 17.8343C47.6735 17.847 47.9066 17.8127 48.126 17.7337C48.3455 17.6547 48.5469 17.5324 48.7182 17.3741C48.8382 17.2577 48.6609 17.0789 48.5382 17.1941C48.3874 17.3321 48.2096 17.4374 48.0161 17.5034C47.8226 17.5694 47.6176 17.5946 47.4138 17.5775C47.5089 15.3875 46.9257 15.6509 46.8003 15.1496C47.0703 15.1496 47.8332 15.3386 48.1548 15.1241C48.7494 14.7419 48.7719 13.7939 49.1514 12.722C49.1565 12.7069 49.1584 12.6909 49.1573 12.6751C49.1562 12.6592 49.1519 12.6437 49.1448 12.6294C49.1376 12.6152 49.1278 12.6025 49.1157 12.5921C49.1037 12.5817 49.0897 12.5737 49.0746 12.5687C49.0595 12.5637 49.0436 12.5617 49.0277 12.5628C49.0118 12.564 48.9963 12.5682 48.9821 12.5753C48.9678 12.5825 48.9551 12.5923 48.9447 12.6044C48.9343 12.6164 48.9264 12.6304 48.9213 12.6455C48.5328 13.7438 48.5508 14.5706 48.027 14.9198C47.754 15.1016 46.7598 14.8118 46.6215 14.9963C46.3815 15.3164 47.0304 15.8258 47.0304 15.9929C47.4375 17.1563 46.7631 18.824 47.5671 19.673C48.4233 20.5949 50.1117 19.8053 50.5314 21.8195C49.9505 21.9203 49.3781 22.0655 48.8193 22.2539C47.4093 21.9638 43.9764 18.932 43.5039 18.932C43.4526 18.932 43.4271 18.9575 43.4016 18.9575C42.7803 17.4557 44.3946 15.1112 43.4271 14.8685C43.0437 14.843 42.7626 15.3287 42.5571 15.6863C42.6522 15.0518 42.9039 13.3532 42.3015 13.5398C41.4267 13.8098 41.3304 16.3058 41.3304 15.1241C41.3304 14.6492 41.2794 13.8719 41.2794 13.8719C41.1345 12.5681 40.2894 13.2119 40.0017 15.9419C40.0017 16.8023 39.9492 16.3658 39.7971 15.2264C39.7224 14.7764 39.7746 14.3264 39.5415 14.153C39.3693 14.0666 38.937 14.2454 38.8773 15.2009C38.8353 16.3772 39.2034 17.1851 39.2604 17.9864C39.2304 17.9864 38.034 17.6411 38.034 18.2417C38.0085 18.5741 38.3916 18.8807 38.544 19.0085C39.5868 19.8617 40.3926 20.1011 41.253 20.414C41.1591 20.5079 41.1471 20.5895 41.2017 20.6441C41.3835 21.0074 41.8791 22.3382 42.3261 23.0462C38.8326 22.3331 37.7925 20.8262 36.9861 21.1808C36.4317 20.0708 34.9218 16.616 33.6897 16.8107C32.9742 16.9892 34.2297 18.5807 34.2519 18.6251C33.9267 18.5453 33.61 18.434 33.3063 18.293C32.3199 18.0065 29.1723 17.423 29.4729 18.3953C29.5431 18.6212 29.9694 18.7784 30.0354 18.7784C30.4374 18.9194 30.8469 19.0391 31.2618 19.1363C32.9295 19.523 31.3587 19.1156 29.9586 19.3163C29.2272 19.3163 28.9134 19.8197 29.6265 20.0576C30.3441 20.2976 31.8291 20.4944 31.9263 20.543C28.9008 20.543 28.0926 21.9659 31.6707 21.7952C31.6407 21.7952 30.0987 22.2407 30.2652 22.7405C30.2652 22.7663 30.2907 22.7663 30.2907 22.7918C30.393 22.9718 30.6741 22.9718 30.8274 22.9964C31.4161 22.9977 32.0045 22.9721 32.5908 22.9196C33.6141 22.8818 34.5969 23.3783 35.6319 23.6606C35.3619 24.2876 35.3169 24.4106 35.3763 24.5306C35.4273 24.5819 40.845 29.7695 47.3103 29.5907C47.3889 30.2186 47.6799 36.4499 48.1281 36.8993C47.8779 37.1486 46.6198 43.1668 47.7447 46.9166C48.1979 48.4271 49.9996 53.0001 49.9996 53.0001C49.9996 53.0001 52.3996 59.6001 53.7756 59.0552C49.2642 61.6754 48.4329 61.6568 48.2814 62.3774C48.1314 63.1274 49.5678 63.1184 50.3769 63.1184C53.1891 63.1184 53.4945 62.5397 53.4945 62.9384C53.9613 63.9884 60.0945 63.3221 61.2378 63.1427C61.5717 63.1427 62.3691 62.9489 62.5665 62.5295C62.7222 62.0438 62.4552 61.0676 62.1855 60.3059ZM41.3841 20.1848C40.4133 19.8983 39.5097 19.4204 38.7264 18.7793C38.1654 18.3293 38.343 18.1721 38.343 18.1406C38.6058 17.9306 39.5697 18.4028 39.5697 18.0638C39.4527 17.0714 38.7765 14.7386 39.4419 14.3585C39.5472 14.5685 39.558 15.4238 39.7485 16.3772V16.4027C39.7995 16.6583 39.8508 16.8884 40.0551 16.9127C40.4589 16.9127 40.0251 15.7028 40.6941 13.9226C40.6941 13.8626 40.8813 13.4606 40.9752 13.4372C41.0334 13.5743 41.0595 13.7228 41.0517 13.8716C41.1795 15.9155 40.9821 16.3298 41.3073 16.376C41.4594 16.376 41.4015 16.3496 41.6139 15.4049C41.7066 14.9939 41.9973 13.8716 42.3807 13.7438C42.3807 13.7438 42.4317 13.7951 42.4317 14.1017C42.4317 15.6365 42.048 16.3247 42.3039 16.427C42.4689 16.5098 42.6282 16.067 42.6873 15.8906C42.8151 15.6605 43.1217 15.047 43.3773 15.0728C43.5363 15.0728 43.3773 15.8528 43.3773 15.9161C43.0686 17.1521 42.7737 18.1145 43.1472 19.0337C41.8974 19.796 41.5578 20.1848 41.3841 20.1848ZM41.6652 20.9261C41.4756 20.4842 41.4519 20.5514 41.5374 20.4659C42.1428 19.9734 42.7869 19.5304 43.4634 19.1414C44.1393 19.3346 46.9053 21.8297 48.3894 22.3763C44.7048 23.7263 43.0143 23.0213 42.6873 23.0213C42.4062 22.6892 41.9205 21.5393 41.6652 20.9261ZM35.6085 23.4305C34.4559 23.1419 33.6759 22.5995 32.5164 22.6382C32.3283 22.6553 30.6345 22.8008 30.4722 22.6382C30.4722 22.6127 30.4722 22.4339 31.6221 22.0247C32.3868 21.7706 32.3376 21.6737 32.3376 21.5648C32.2434 21.3761 29.721 21.6473 29.5521 21.3092C29.8875 20.6387 32.5164 20.9708 32.5164 20.5427C32.5164 20.1929 31.1964 20.3027 29.6544 19.8272C29.1828 19.6814 29.6811 19.6649 29.8845 19.5971C29.9217 19.5971 30.375 19.5563 30.4464 19.5461C32.2377 19.5461 32.4825 19.7759 32.5677 19.5206C32.9679 19.1213 30.2346 18.8987 29.6544 18.3206C30.0342 17.8139 32.7588 18.356 33.5643 18.6785C33.8169 18.7796 34.4268 19.0556 34.5096 18.806C34.68 18.551 33.6921 17.7449 33.6921 17.0429C34.599 16.8329 36.3264 20.4278 36.7074 21.2849C36.3753 21.6416 35.9409 22.6127 35.6085 23.4305ZM48.3606 36.7205C47.952 36.7205 47.5461 30.0284 47.5173 29.5649C48.2404 29.5255 48.9586 29.4229 49.6638 29.2583C49.6806 29.2549 49.6966 29.2483 49.7108 29.2388C49.725 29.2293 49.7372 29.2171 49.7467 29.2028C49.7562 29.1886 49.7628 29.1726 49.7662 29.1558C49.7695 29.1391 49.7695 29.1218 49.7661 29.105C49.7628 29.0882 49.7562 29.0722 49.7466 29.058C49.7371 29.0438 49.7249 29.0316 49.7107 29.0221C49.6964 29.0126 49.6805 29.006 49.6637 29.0027C49.6469 28.9993 49.6296 28.9993 49.6128 29.0027C44.7183 30.227 39.225 27.7127 35.583 24.4031C37.2534 20.2247 37.023 21.3131 38.6751 21.9752C42.8634 24.0689 45.795 23.6471 48.9228 22.4354C50.8128 21.7028 53.9361 21.6764 54.2211 21.6971C55.3128 21.7754 56.1096 22.9529 56.7219 24.0104C57.4962 25.559 59.0319 33.2432 59.1597 34.3559C59.2875 35.6336 59.2989 37.061 59.2989 37.4954C54.699 37.4174 49.1526 37.1789 48.3606 36.719V36.7205ZM53.6247 62.5052C53.8304 62.2752 54.0831 62.0921 54.3657 61.9685C54.0885 62.1009 53.8375 62.2822 53.6247 62.5037V62.5052ZM57.1512 60.4097C57.069 60.1427 56.3592 58.5197 56.3592 58.5197L56.9214 58.4001L54.7996 51.8001L53.5996 47.6001L54.1602 48.5288L58.3996 59.6001C58.3996 59.6001 59.5521 59.3993 59.5521 59.2118L57.1512 60.4097Z" fill="#414141"/>
<path d="M52.194 17.8083C52.2276 17.8127 52.2616 17.8048 52.2898 17.786C52.3179 17.7673 52.3384 17.739 52.3473 17.7063C52.3533 17.6631 52.3617 17.6205 52.3728 17.5785C53.1294 16.3185 54.321 17.1696 54.0594 18.0384C53.9837 18.2603 53.8523 18.459 53.6778 18.6156C53.5033 18.7721 53.2916 18.8813 53.0628 18.9327C53.0303 18.9409 53.0022 18.9612 52.9843 18.9896C52.9664 19.0179 52.9601 19.0521 52.9667 19.085C52.9733 19.1178 52.9923 19.1469 53.0197 19.1661C53.0472 19.1854 53.081 19.1933 53.1141 19.1883C54.1557 18.999 54.8145 17.706 53.9316 16.914C52.9929 16.0719 51.7146 17.6487 52.194 17.8083Z" fill="#414141"/>
<path d="M48.9502 14.8429C48.9502 15.4057 49.4869 15.1921 49.4869 14.6131C49.525 14.1793 48.9502 14.0293 48.9502 14.8429Z" fill="#414141"/>
<path d="M39.1092 24.2989C37.6692 24.796 37.527 24.814 37.6017 24.9631C37.6419 25.0438 37.716 25.0399 37.7817 25.0399C39.2169 24.5275 39.3639 24.5248 39.2895 24.3754C39.2727 24.344 39.2457 24.3193 39.2128 24.3054C39.18 24.2914 39.1435 24.2892 39.1092 24.2989Z" fill="#414141"/>
<path d="M42.2025 24.8107C42.1891 24.8006 42.1738 24.7933 42.1575 24.7891C42.1413 24.785 42.1244 24.7841 42.1077 24.7864C42.0911 24.7888 42.0751 24.7945 42.0607 24.803C42.0463 24.8116 42.0336 24.8229 42.0236 24.8363C42.0135 24.8498 42.0062 24.8651 42.002 24.8813C41.9979 24.8976 41.997 24.9145 41.9993 24.9311C42.0017 24.9477 42.0074 24.9637 42.0159 24.9782C42.0245 24.9926 42.0358 25.0052 42.0492 25.0153C43.4076 26.0353 43.2864 25.9609 43.3527 25.9609C43.3731 25.9616 43.3933 25.9574 43.4117 25.9486C43.4301 25.9398 43.4461 25.9266 43.4583 25.9103C43.4704 25.8939 43.4785 25.8749 43.4817 25.8547C43.4849 25.8346 43.4831 25.814 43.4766 25.7947C43.4681 25.7688 43.4515 25.7464 43.4292 25.7308L42.2025 24.8107Z" fill="#414141"/>
<path d="M45.4733 26.9056C45.4196 26.7448 45.1316 26.866 45.2432 27.0334C45.9182 28.4911 45.8783 28.4902 46.01 28.4902C46.2716 28.4902 46.1216 28.3318 45.4733 26.9056Z" fill="#414141"/>
<path d="M44.1694 22.4085C44.7571 20.8407 44.7898 20.8785 44.6293 20.8242C44.4688 20.7699 44.5117 20.8053 43.9393 22.332C43.8439 22.4751 44.095 22.5567 44.1694 22.4085Z" fill="#414141"/>
<path d="M50.8908 24.2737C50.8908 24.0985 50.7825 24.1636 49.2297 24.427C49.0737 24.427 49.0917 24.6823 49.2552 24.6823C49.2948 24.6823 49.6638 24.6175 50.7885 24.427C50.865 24.4012 50.9163 24.3502 50.8908 24.2737Z" fill="#414141"/>
<path d="M55.5162 24.6571C55.6794 24.6028 55.6062 24.5638 54.9282 23.0971C54.8748 22.9363 54.5865 23.0572 54.6984 23.2249C55.4298 24.7759 55.3257 24.6571 55.5162 24.6571Z" fill="#414141"/>
<path d="M53.4196 27.6195C53.4386 27.6039 53.4527 27.5832 53.4603 27.5598C53.4678 27.5364 53.4684 27.5113 53.4621 27.4876C53.4558 27.4638 53.4428 27.4424 53.4246 27.4259C53.4064 27.4093 53.3839 27.3983 53.3596 27.3942C53.327 27.3889 53.2936 27.3965 53.2663 27.4152C52.1209 28.2099 51.8524 28.3272 51.9883 28.4631C52.0696 28.6236 52.2379 28.4409 53.4196 27.6195Z" fill="#414141"/>
<path d="M48.9995 32.4762C49.5203 31.0185 49.6088 30.9501 49.4339 30.8919C49.2734 30.8385 49.3118 30.8817 48.7694 32.3997C48.6497 32.5197 48.9197 32.6376 48.9995 32.4762Z" fill="#414141"/>
<path d="M54.3665 34.036C54.53 33.9817 54.4565 33.9427 53.7788 32.476C53.7254 32.3152 53.4371 32.4361 53.549 32.6038C54.2798 34.1548 54.1763 34.036 54.3665 34.036Z" fill="#414141"/>
<path d="M55.4397 30.0243C56.9559 29.7672 57.111 29.799 57.0498 29.6154C57.0498 29.4402 56.9415 29.5056 55.3887 29.7687C55.2129 29.8272 55.2597 30.0243 55.4397 30.0243Z" fill="#414141"/>
<path d="M49.8694 35.8507C49.8694 36.0175 49.9156 36.0148 51.5305 36.0553C51.5475 36.0563 51.5646 36.0538 51.5806 36.0477C51.5966 36.0417 51.6111 36.0323 51.6232 36.0202C51.6353 36.0081 51.6446 35.9936 51.6507 35.9776C51.6567 35.9616 51.6593 35.9445 51.6583 35.9275C51.6583 35.7607 51.6121 35.7634 49.9972 35.7229C49.9801 35.7218 49.963 35.7244 49.947 35.7304C49.9309 35.7364 49.9164 35.7457 49.9042 35.7577C49.8922 35.7699 49.8829 35.7845 49.8769 35.8005C49.8709 35.8165 49.8683 35.8336 49.8694 35.8507Z" fill="#414141"/>
<path d="M56.8199 36.6425C58.0451 35.6303 58.0973 35.645 58.0199 35.4926C57.884 35.3567 57.8171 35.4866 56.6654 36.4382C56.6451 36.4534 56.6298 36.4743 56.6214 36.4983C56.613 36.5222 56.612 36.5481 56.6184 36.5727C56.6248 36.5972 56.6384 36.6193 56.6574 36.6361C56.6764 36.6529 56.6999 36.6637 56.7251 36.6671C56.7417 36.6694 56.7587 36.6685 56.7749 36.6642C56.7912 36.66 56.8065 36.6526 56.8199 36.6425Z" fill="#414141"/>
<path d="M7.54997 11.854C7.53109 11.8476 7.51092 11.846 7.49126 11.8493C7.47161 11.8526 7.45307 11.8607 7.43732 11.873C7.42157 11.8852 7.40909 11.9011 7.401 11.9193C7.39291 11.9375 7.38947 11.9575 7.39097 11.9773C7.39262 12.0012 7.40131 12.0241 7.41593 12.0431C7.43056 12.062 7.45048 12.0762 7.47317 12.0838C8.33987 12.3769 13.6121 14.2051 13.9898 14.2051C14.264 13.9306 14.1845 14.1181 7.54997 11.854Z" fill="#414141"/>
<path d="M7.90739 8.78671C7.93739 8.80411 13.0074 11.5323 13.1973 11.6742C13.2306 11.7078 13.305 11.7201 13.3773 11.6487C13.5273 11.4972 13.4415 11.5179 9.74729 9.47671C7.95659 8.48671 7.97729 8.48671 7.85729 8.60671C7.84459 8.62046 7.8356 8.63723 7.8312 8.65543C7.8268 8.67362 7.82713 8.69265 7.83215 8.71068C7.83717 8.72872 7.84672 8.74517 7.85989 8.75848C7.87306 8.77179 7.88941 8.7815 7.90739 8.78671Z" fill="#414141"/>
<path d="M15.5992 10.7041C15.391 10.4941 15.2092 10.2841 14.5003 9.52837C11.5051 6.34057 11.6629 6.41167 11.536 6.53857C11.5237 6.55013 11.5139 6.56408 11.5072 6.57955C11.5005 6.59503 11.4971 6.61171 11.4971 6.62857C11.4971 6.64543 11.5005 6.66212 11.5072 6.67759C11.5139 6.69307 11.5237 6.70702 11.536 6.71857C12.7831 7.96567 15.3589 10.9351 15.5227 10.9351C15.5833 10.9339 15.6472 10.7995 15.5992 10.7041Z" fill="#414141"/>
<path d="M53.8047 47.5548C52.0509 43.1022 54.37 38.9658 52.4002 38.601C52.3234 38.5752 52.4257 38.5245 52.4002 38.601C52.2991 38.904 52.5669 38.646 53.0016 39.801C52.9269 40.6974 52.6175 46.1568 53.5494 47.6571C53.5728 47.6967 53.5899 47.7399 53.6004 47.7849C53.67 47.9238 53.9205 47.8764 53.856 47.6826C53.856 47.6526 53.8461 47.679 53.8047 47.5548Z" fill="white"/>
</svg>
