<svg width="53" height="50" viewBox="0 0 53 50" fill="none" xmlns="http://www.w3.org/2000/svg">
<g clip-path="url(#clip0_1982_65183)">
<path d="M36.2622 28.7495C35.2031 28.2259 34.1993 27.6041 33.265 26.8927C33.2 26.848 33.1194 26.8295 33.0405 26.8412C32.9615 26.8528 32.8904 26.8938 32.8422 26.9553C31.8636 28.5289 28.2493 34.4088 28.2493 34.4088C25.1225 29.5034 21.7332 26.7051 16.1003 26.7051C10.955 26.7051 5.02539 31.4228 3.17048 38.4022C1.31557 45.3816 7.04397 45.1644 7.04397 45.1644L6.36202 47.2088C6.33608 47.2693 6.33506 47.337 6.35914 47.3982C6.38322 47.4594 6.4306 47.5094 6.49159 47.538C14.9785 51.8969 22.4834 48.7956 23.6222 48.2294C23.6693 48.2138 23.7103 48.1846 23.7396 48.1457C23.7689 48.1068 23.7851 48.0602 23.7859 48.0121C23.8507 47.2549 23.9803 45.3059 24.1269 43.5446C24.7781 43.9232 28.2186 44.4532 30.2644 42.603C33.8413 39.3108 36.0917 30.5569 36.4498 29.0162C36.4566 28.9273 36.3918 28.8022 36.2622 28.7495Z" fill="#4D68A1"/>
<path d="M20.9179 33.2046C20.8839 33.0466 20.3622 29.0861 19.387 26.9165C19.3676 26.8845 19.337 26.8602 19.3007 26.8481C19.2644 26.8361 19.2249 26.837 19.1892 26.8507C19.1571 26.8703 19.1331 26.9001 19.1213 26.9349C19.1095 26.9698 19.1106 27.0075 19.1244 27.0416C19.9393 28.8655 20.461 32.105 20.5906 32.9676C19.5229 32.5694 18.4068 32.305 17.2695 32.1807C16.3898 32.3717 14.794 33.3132 14.2382 33.6293C13.8802 31.2688 14.078 26.9922 14.078 26.9297C14.0818 26.8918 14.07 26.8539 14.0451 26.8243C14.0202 26.7947 13.9842 26.7758 13.945 26.7717C13.9257 26.7699 13.9063 26.7717 13.8878 26.7772C13.8692 26.7827 13.852 26.7917 13.8371 26.8036C13.8222 26.8156 13.8099 26.8302 13.8009 26.8468C13.7919 26.8633 13.7864 26.8814 13.7847 26.9001C13.7847 26.9297 13.5222 31.5519 13.9791 33.8795C13.9836 33.9028 13.9939 33.9247 14.0093 33.9433C14.0246 33.9619 14.0444 33.9765 14.067 33.9859C14.0896 33.9954 14.1142 33.9993 14.1387 33.9974C14.1632 33.9955 14.1868 33.9878 14.2075 33.975C14.2382 33.975 16.1272 32.7799 17.1706 32.4638L16.9763 38.4392C14.1318 39.1946 11.2003 39.6016 8.25068 39.6507C8.90194 38.7091 10.4329 35.5947 10.4977 35.4367C10.512 35.4031 10.5133 35.3657 10.5014 35.3312C10.4895 35.2968 10.4652 35.2676 10.4329 35.249C10.3976 35.235 10.3583 35.2336 10.3221 35.2451C10.2858 35.2566 10.255 35.2801 10.2352 35.3116C9.70324 36.375 8.28137 39.2128 7.89266 39.6507C7.33686 39.6507 7.04362 39.6211 7.04362 39.6211C7.00474 39.6171 6.96583 39.6283 6.93545 39.652C6.90508 39.6758 6.88573 39.7103 6.88166 39.7478C6.87759 39.7853 6.88914 39.8229 6.91375 39.8522C6.93837 39.8816 6.97405 39.9003 7.01294 39.9042C10.5868 40.0181 14.1563 39.5735 17.5832 38.5873C17.648 39.1239 17.9071 40.7602 17.9242 41.4515C14.8402 43.7884 11.0455 45.0806 7.12546 45.1289C6.9993 45.1289 6.88337 45.1289 6.88337 45.2869C6.88337 45.4449 6.97202 45.4449 7.10841 45.4449C10.5258 45.3993 13.8634 44.441 16.7512 42.6762L16.3284 49.8795C16.3245 49.9169 16.3359 49.9543 16.3601 49.9838C16.3842 50.0133 16.4194 50.0326 16.458 50.0375C16.5228 50.0375 16.6216 49.9717 16.6216 49.9091L17.0104 42.4885C17.7264 42.0178 18.1185 41.6721 18.1526 41.6721C18.1724 41.6565 18.1884 41.6369 18.1996 41.6147C18.2107 41.5926 18.2168 41.5683 18.2174 41.5437C18.2174 40.7569 17.8764 38.4951 17.8253 38.3997C17.8253 38.37 17.6616 38.2746 17.6309 38.2746L17.29 38.37L17.4502 32.5198C18.552 32.732 19.6403 33.0045 20.71 33.3363C20.8191 33.3922 20.9486 33.3593 20.9179 33.2046Z" fill="#313131"/>
<path d="M18.3166 43.7358C18.3224 43.7739 18.3202 43.8127 18.3103 43.85C18.3003 43.8873 18.2827 43.9223 18.2586 43.9529C18.2345 43.9836 18.2043 44.0093 18.1697 44.0285C18.1352 44.0478 18.097 44.0602 18.0575 44.065C17.9279 44.065 17.7983 43.907 17.7983 43.7358C17.7906 43.6613 17.8134 43.5869 17.8619 43.5284C17.9103 43.47 17.9805 43.4321 18.0575 43.423C18.1871 43.3901 18.3166 43.5613 18.3166 43.7358Z" fill="#313131"/>
<path d="M18.3811 47.2961C18.3873 47.3343 18.3855 47.3733 18.3757 47.4107C18.366 47.4482 18.3485 47.4834 18.3242 47.5141C18.3 47.5449 18.2696 47.5706 18.2349 47.5897C18.2001 47.6088 18.1617 47.6209 18.1219 47.6254C17.9924 47.6254 17.8628 47.4673 17.8628 47.2961C17.8551 47.2216 17.8779 47.1472 17.9263 47.0887C17.9748 47.0303 18.045 46.9925 18.1219 46.9834C18.2515 46.9504 18.3811 47.1085 18.3811 47.2961Z" fill="#313131"/>
<path d="M18.7675 35.6886C18.7752 35.7631 18.7524 35.8375 18.7039 35.896C18.6555 35.9544 18.5853 35.9923 18.5083 36.0013C18.4331 35.988 18.3653 35.9492 18.3172 35.8918C18.269 35.8345 18.2437 35.7624 18.2458 35.6886C18.2395 35.6502 18.2415 35.611 18.2514 35.5733C18.2614 35.5356 18.2792 35.5003 18.3038 35.4695C18.3284 35.4387 18.3592 35.4131 18.3943 35.3941C18.4295 35.3752 18.4683 35.3634 18.5083 35.3594C18.5825 35.38 18.6478 35.4231 18.6945 35.4824C18.7412 35.5418 18.7668 35.6141 18.7675 35.6886Z" fill="#313131"/>
<path d="M32.2234 30.3493C29.7889 30.0694 24.115 30.1452 22.7136 30.1583C22.6208 30.1546 22.5293 30.1802 22.453 30.2313C22.3766 30.2824 22.3197 30.3562 22.2908 30.4415C21.0701 34.0234 19.3141 42.2933 18.9663 43.9032C18.9585 43.9427 18.9592 43.9833 18.9684 44.0225C18.9776 44.0618 18.9951 44.0987 19.0197 44.1312C19.0443 44.1636 19.0756 44.1908 19.1116 44.211C19.1476 44.2313 19.1875 44.2442 19.2288 44.2489C22.8125 44.8349 27.7941 44.4859 28.8682 44.3575C29.0012 44.3575 29.2297 44.1238 29.2944 43.9954C30.0753 42.4085 32.128 32.96 32.6156 30.8266C32.6194 30.7151 32.5821 30.6059 32.5103 30.5185C32.4384 30.431 32.3368 30.3711 32.2234 30.3493Z" fill="white"/>
<path d="M30.2766 29.1516C30.0084 29.0913 29.7361 29.0495 29.4617 29.0265C29.4617 28.8981 29.298 27.8742 28.4865 27.7985C27.675 27.7228 27.1226 28.6149 26.9555 28.931C26.4986 28.931 26.1713 28.9606 25.9769 28.9606C25.9366 28.9664 25.8981 28.981 25.8644 29.0032C25.8308 29.0255 25.8028 29.0548 25.7826 29.089C25.5882 29.5927 25.3597 30.3466 25.2609 30.6923C25.2268 30.7878 25.295 30.8503 25.3904 30.8503C26.8738 30.9919 28.3668 31.0128 29.8538 30.9129C29.9186 30.9129 29.9527 30.88 29.9834 30.8174C30.0482 30.5343 30.2766 29.6849 30.3755 29.3392C30.4062 29.2438 30.3414 29.1516 30.2766 29.1516ZM27.2794 28.8981C27.4772 28.5689 27.9 27.9861 28.4217 28.0487C28.9434 28.1112 29.073 28.6149 29.1378 28.9606C28.5198 28.9091 27.8996 28.8882 27.2794 28.8981Z" fill="#313131"/>
<path d="M23.7578 44.6881C23.659 44.6881 23.5942 44.6255 23.6249 44.5301C23.6556 44.4346 23.6931 44.372 23.7885 44.405C25.8753 44.4971 28.927 44.4313 29.1316 43.9638C29.9738 42.0313 32.422 30.693 32.4527 30.5679C32.4613 30.5243 32.4875 30.4857 32.5256 30.4607C32.5636 30.4357 32.6104 30.4263 32.6556 30.4346C32.7008 30.4429 32.7408 30.4682 32.7667 30.5049C32.7926 30.5416 32.8023 30.5868 32.7937 30.6305C32.6948 31.1013 30.3489 42.1531 29.4692 44.0889C28.9611 45.0437 24.4262 44.6453 23.7578 44.6881Z" fill="#313131"/>
<path d="M33.9746 27.2893C33.9746 27.2893 34.0735 24.616 34.6566 24.3263C35.2396 24.0366 35.4681 24.2012 35.4681 24.2012C35.4681 24.2012 36.208 22.9502 36.89 22.9502C37.3128 22.9502 37.3469 23.3913 37.3469 23.3913C37.4352 23.3589 37.5304 23.348 37.6242 23.3595C37.7179 23.371 37.8073 23.4045 37.8844 23.4572C37.9616 23.5099 38.0241 23.5801 38.0665 23.6616C38.1089 23.7431 38.13 23.8335 38.1277 23.9247C38.1277 23.9247 38.8438 24.0827 38.5198 24.9123C38.5198 24.9123 39.1029 25.2876 37.9333 26.5156C37.2691 27.2033 36.5255 27.8153 35.717 28.3395C35.1168 28.0203 34.5352 27.6697 33.9746 27.2893Z" fill="#FCCAC2"/>
<path d="M17.8203 38.8349C17.8203 38.8349 17.9499 40.8102 18.0829 41.067C19.4073 41.1133 20.7321 40.9859 22.0211 40.6884C24.2375 40.0991 23.651 39.7469 23.4566 39.6514C23.4566 39.6514 24.8547 39.3057 24.7899 38.8975C24.7558 38.6769 23.6169 38.8349 23.6169 38.8349C23.6169 38.8349 25.4411 37.8275 25.1479 37.5773C24.8547 37.3271 22.3792 38.3016 22.3792 38.3016C22.3792 38.3016 24.4932 37.0143 24.2034 36.695C24.0056 36.4777 20.4526 37.8275 19.9719 37.9855L20.1014 37.4522C20.1321 37.4193 17.9499 38.8349 17.8203 38.8349Z" fill="#FCCAC2"/>
<path d="M25.1774 37.3843C24.9285 37.1472 24.2636 37.5785 22.8963 37.9835C23.5782 37.6049 24.3966 37.1045 24.3318 36.7555C24.2465 36.0707 22.8656 36.7818 20.1616 37.7431L20.2605 37.4139C20.3253 37.2263 20.1275 37.1637 20.0321 37.2559C19.8343 37.4139 17.7509 38.7341 17.6861 38.7966C17.6214 38.8592 17.6555 38.8987 17.6555 38.9316C17.6555 39.0798 17.8771 40.9596 17.9487 41.1077C18.0203 41.2559 18.143 41.2197 18.2897 41.2197C18.9716 41.2197 20.9595 41.1802 22.4939 40.6534C23.6941 40.2386 23.8578 40.0246 23.8271 39.837C23.8275 39.7782 23.8043 39.7215 23.7623 39.6789C24.2035 39.5773 24.6121 39.3727 24.9523 39.0831C24.9876 39.0451 25.0099 38.9974 25.016 38.9467C25.0221 38.896 25.0118 38.8447 24.9864 38.7999C24.8876 38.6748 24.5943 38.6123 24.0726 38.6452C24.8228 38.2995 25.2115 37.9868 25.3104 37.6575C25.2933 37.5423 25.2933 37.4501 25.1774 37.3843ZM22.8656 38.7999C22.4428 38.9579 22.0165 39.0831 21.6585 39.1785C21.6196 39.1912 21.5875 39.2182 21.5693 39.2537C21.5511 39.2892 21.5482 39.3303 21.5613 39.3678C21.5744 39.4054 21.6025 39.4364 21.6392 39.4539C21.676 39.4715 21.7185 39.4743 21.7574 39.4617C21.7574 39.4617 24.2704 38.6748 24.6114 38.9547C24.6421 39.1423 23.2747 39.5209 23.2475 39.5209C22.7225 39.6731 22.1899 39.7995 21.6517 39.8995C21.6128 39.9039 21.5773 39.923 21.553 39.9526C21.5287 39.9823 21.5176 40.02 21.5221 40.0575C21.5266 40.0951 21.5464 40.1294 21.5771 40.1528C21.6078 40.1763 21.6469 40.187 21.6858 40.1826C21.6858 40.1826 23.4452 39.7711 23.4759 39.8534C23.5066 39.9357 23.2475 40.0674 22.3677 40.3571C20.7993 40.8773 18.6545 40.8905 18.1362 40.8905C18.0242 40.2562 17.948 39.6166 17.9078 38.9744C18.201 38.7835 19.3058 38.0625 19.8616 37.7168C19.8616 37.7168 19.6672 38.125 19.9911 38.125C20.4787 38.0921 24.0317 36.5514 24.0624 36.7719C24.0624 36.8345 23.9362 37.1012 22.8247 37.7168C22.1427 38.0954 21.4232 38.4082 21.4232 38.4082C21.2493 38.4905 21.4062 38.7374 21.5221 38.6913C22.5962 38.4378 24.8773 37.4633 24.9319 37.6213C25.1126 37.888 22.8656 38.7999 22.8656 38.7999Z" fill="#313131"/>
<path d="M40.4917 27.9521C39.8098 27.4155 38.8277 26.6616 38.2754 26.2204C38.9266 25.3414 38.7971 24.8706 38.6163 24.8081C38.6845 24.5875 38.9096 24.0212 38.2276 23.7677C38.1935 23.613 38.2276 23.1389 37.4775 23.2015C37.4468 23.0467 37.1877 22.4838 36.3693 22.9184C36.0131 23.1633 35.723 23.4874 35.5237 23.8632C34.7429 23.297 32.9834 21.9439 32.9493 21.9439C32.7345 21.8385 32.6799 22.1118 32.7891 22.1644C32.8982 22.2171 34.3848 23.3595 35.1759 23.9587C35.062 23.9491 34.9474 23.964 34.8401 24.0021C34.7328 24.0402 34.6356 24.1007 34.5553 24.1793C34.1018 24.65 33.9688 26.0657 33.904 27.1653C33.8962 27.1948 33.8983 27.226 33.9099 27.2544C33.9216 27.2828 33.9422 27.3069 33.9688 27.3233C34.5119 27.7276 35.0903 28.0856 35.6976 28.3933C35.751 28.4084 35.8078 28.4084 35.8613 28.3933C36.6886 27.788 37.4713 27.128 38.2038 26.4179C38.7902 26.8887 39.9086 27.7348 40.4201 28.1463C40.4542 28.2023 40.7509 28.2023 40.4917 27.9521ZM38.4697 25.0912C38.5345 25.2163 38.4049 25.562 38.0469 26.0328C37.948 25.9373 37.7878 25.8451 37.7059 25.8747C37.5423 25.9373 37.1536 26.204 37.024 26.0953C37.024 26.0953 36.9967 26.0361 37.157 25.8451C37.5389 25.3513 38.3742 24.9628 38.4697 25.0912ZM38.1287 24.0838C38.2276 24.0509 38.5516 24.2418 38.3265 24.7751C37.7793 24.9271 37.2913 25.2332 36.9251 25.6542C36.8598 25.7317 36.8048 25.8169 36.7614 25.9077C36.7614 25.9077 36.5023 26.0953 36.4205 25.9702C36.4205 25.9702 36.3829 25.8747 36.4852 25.641C36.8262 24.706 37.948 24.1793 38.1117 24.0838H38.1287ZM37.4127 23.5801C37.5764 23.5175 37.9003 23.4846 37.9003 23.9093C37.5593 24.064 36.5671 24.6303 36.175 25.5126C36.1142 25.6293 36.0805 25.7574 36.0761 25.8879C35.9806 25.8879 35.9158 25.8879 35.8817 25.8583C35.7828 25.7332 35.9806 25.1669 35.9806 25.1669C36.5023 25.134 36.533 24.976 36.5671 24.9134C36.6319 24.6928 36.4341 24.5842 36.3693 24.5052C36.622 24.1156 36.9758 23.7967 37.3956 23.5801H37.4127ZM36.533 23.2015C36.6625 23.1093 37.0888 22.9184 37.1842 23.3595C36.7455 23.6079 36.3675 23.9448 36.0761 24.3472L35.6703 24.1398C35.8893 23.7789 36.1761 23.4607 36.5159 23.2015H36.533ZM35.6874 28.1398C35.1573 27.8569 34.646 27.5424 34.1564 27.1982C34.2212 25.7496 34.3848 24.7422 34.7088 24.4591C35.1009 24.0838 36.1749 24.6797 36.2397 24.8081C35.7867 24.8752 35.3249 24.864 34.8758 24.7751C34.7769 24.7751 34.7122 24.8081 34.7122 24.9002C34.7122 24.9924 34.7463 25.0583 34.8417 25.0583C34.9372 25.0583 35.0054 25.0912 35.0702 25.0912C35.0054 25.8747 35.4282 25.9373 35.626 25.9373C35.6455 25.992 35.6771 26.0419 35.7186 26.0836C35.7601 26.1253 35.8105 26.1577 35.8663 26.1787C35.9221 26.1997 35.982 26.2087 36.0418 26.2051C36.1015 26.2015 36.1598 26.1854 36.2125 26.1579C36.286 26.2232 36.3789 26.2644 36.4781 26.2756C36.5773 26.2868 36.6777 26.2675 36.7648 26.2204C36.7648 26.2204 36.8944 26.6945 37.7878 26.1579L37.9173 26.2863C37.2067 26.9462 36.4564 27.5651 35.6703 28.1398H35.6874ZM35.6533 25.1208C35.6008 25.2845 35.5688 25.4536 35.5578 25.6245C35.3293 25.5916 35.36 25.2459 35.3941 25.1208H35.6533Z" fill="#313131"/>
<path d="M47.125 17.7075C47.3227 17.7405 47.4182 17.5528 47.2886 17.3948C46.5283 16.4565 45.952 15.4425 45.8565 15.0046C45.7236 14.4055 45.5633 6.79394 43.5447 5.91493C41.3625 4.96678 26.7891 7.7816 25.7594 9.50012C24.7297 11.2186 28.5281 18.9026 30.7411 19.2812C32.7631 19.6269 42.7946 17.0162 43.4765 16.7956C43.6743 16.733 45.952 17.5824 47.125 17.7075Z" fill="#E02728"/>
<path d="M29.8759 13.0186C29.8515 13.0185 29.8275 13.0119 29.806 12.9993C29.7846 12.9868 29.7663 12.9687 29.7529 12.9467C29.7395 12.9246 29.7313 12.8994 29.7291 12.8731C29.7269 12.8468 29.7308 12.8204 29.7404 12.7961L30.4497 11.0068L29.9276 10.1402C29.9062 10.1047 29.8987 10.0616 29.9068 10.0202C29.9149 9.97875 29.9379 9.94251 29.9707 9.91942C30.0035 9.89632 30.0435 9.88825 30.0818 9.897C30.1201 9.90574 30.1536 9.93057 30.175 9.96603L30.7402 10.9041C30.7535 10.9261 30.7616 10.9513 30.7637 10.9775C30.7658 11.0037 30.7619 11.03 30.7523 11.0541L30.0116 12.9218C30.0003 12.9505 29.9814 12.975 29.9572 12.9922C29.9331 13.0094 29.9048 13.0186 29.8759 13.0186Z" fill="#313131"/>
<path d="M30.2487 8.84961C29.7777 8.84948 29.3156 8.97852 28.9121 9.22283C28.5086 9.46714 28.179 9.81747 27.9587 10.2361C27.7385 10.6548 27.636 11.1259 27.6622 11.5988C27.6884 12.0717 27.8424 12.5284 28.1076 12.9198C28.3727 13.3113 28.739 13.6226 29.167 13.8203C29.595 14.0179 30.0686 14.0945 30.5366 14.0417C31.0047 13.9889 31.4496 13.8088 31.8234 13.5207C32.1972 13.2326 32.4858 12.8474 32.6582 12.4066C32.812 12.0118 32.8677 11.5852 32.8205 11.1639C32.7732 10.7425 32.6244 10.3391 32.387 9.98865C32.1496 9.63819 31.8308 9.35128 31.4582 9.15279C31.0855 8.9543 30.6704 8.85023 30.2487 8.84961ZM30.2487 9.1084C30.6277 9.109 31.0008 9.20237 31.3359 9.38044C31.6709 9.55851 31.9579 9.81592 32.1719 10.1304C32.3859 10.445 32.5205 10.8071 32.5641 11.1857C32.6078 11.5643 32.5591 11.9478 32.4224 12.3032C32.1561 12.8451 31.692 13.2625 31.1269 13.4686C30.5619 13.6747 29.9396 13.6534 29.3897 13.4092C28.8399 13.165 28.4051 12.7167 28.1761 12.158C27.947 11.5992 27.9413 10.9731 28.1603 10.4102C28.3536 10.0194 28.6515 9.69064 29.0204 9.46068C29.3893 9.23073 29.8146 9.10873 30.2487 9.1084Z" fill="#313131"/>
<path d="M34.0515 10.8414C34.0135 10.8416 33.9767 10.8293 33.9469 10.8065C33.9172 10.7838 33.8963 10.752 33.8878 10.7163C33.8537 10.6208 33.9219 10.5583 34.0174 10.5286C37.5669 9.74179 40.5982 9.17883 43.0396 8.84961C43.1385 8.84961 43.2033 8.88253 43.2033 8.978C43.2033 9.07348 43.1692 9.13274 43.0737 9.13274C40.6289 9.46196 37.601 10.015 34.0822 10.8019C34.0822 10.8414 34.0822 10.8414 34.0515 10.8414Z" fill="#313131"/>
<path d="M29.6061 15.2248C29.5413 15.2248 29.4766 15.1919 29.4766 15.1294C29.4766 15.0668 29.5072 14.9713 29.5754 14.9417C29.6436 14.9121 34.0354 13.6248 37.3906 13.1475C37.4895 13.1475 37.5543 13.1804 37.5543 13.2726C37.5543 13.3647 37.5202 13.4306 37.4247 13.4306C34.1002 13.8882 29.705 15.2051 29.6709 15.2051C29.6526 15.2191 29.6295 15.2261 29.6061 15.2248Z" fill="#313131"/>
<path d="M38.3354 15.6335C38.2976 15.6331 38.261 15.6206 38.2314 15.598C38.2018 15.5753 38.1808 15.5438 38.1717 15.5084C38.141 15.4129 38.2058 15.3504 38.3047 15.3174C39.9254 14.9616 41.5676 14.7043 43.2216 14.5471C43.2609 14.5434 43.3001 14.5548 43.3307 14.5788C43.3614 14.6029 43.381 14.6376 43.3853 14.6755C43.3891 14.7125 43.3776 14.7496 43.3534 14.7785C43.3291 14.8075 43.294 14.826 43.2557 14.8302C41.5972 14.9796 39.9526 15.2481 38.3354 15.6335Z" fill="#313131"/>
<path d="M31.6882 17.2356C31.6234 17.2356 31.5586 17.2026 31.5586 17.1401C31.5586 17.0775 31.5927 16.9821 31.6575 16.9524C31.7223 16.9228 34.133 16.2611 36.9324 15.6356C36.9713 15.6237 37.0134 15.6267 37.0502 15.6438C37.0869 15.6609 37.1155 15.691 37.1301 15.7277C37.1608 15.7936 37.096 15.8858 37.0313 15.9187C34.2318 16.5475 31.787 17.2356 31.787 17.2356H31.6882Z" fill="#313131"/>
<path d="M41.7578 12.8027C41.7271 12.2068 41.7578 11.0743 41.7578 11.0118C41.7578 10.9681 41.7757 10.9263 41.8077 10.8954C41.8397 10.8645 41.8831 10.8472 41.9283 10.8472C41.9735 10.8472 42.0169 10.8645 42.0488 10.8954C42.0808 10.9263 42.0988 10.9681 42.0988 11.0118C42.0988 11.0118 42.0647 12.1739 42.0988 12.7698C42.1026 12.8077 42.0908 12.8456 42.0659 12.8752C42.041 12.9048 42.005 12.9237 41.9658 12.9278C41.8396 12.9278 41.7578 12.8653 41.7578 12.8027Z" fill="#FF7449"/>
<path d="M40.4479 12.645C40.3831 12.3618 40.2842 11.4203 40.2842 11.3577C40.2797 11.3202 40.2908 11.2824 40.3151 11.2528C40.3394 11.2232 40.3749 11.2041 40.4138 11.1997C40.4526 11.1953 40.4917 11.206 40.5224 11.2295C40.5531 11.253 40.5729 11.2872 40.5774 11.3248C40.5774 11.3248 40.6763 12.3322 40.7411 12.5824C40.7752 12.6779 40.707 12.7404 40.6115 12.7701C40.5757 12.7638 40.542 12.7491 40.5135 12.7273C40.4849 12.7055 40.4624 12.6772 40.4479 12.645Z" fill="#FF7449"/>
<path d="M39.4017 13.0576C39.3063 12.7745 39.1767 11.7408 39.1426 11.7078C39.1426 11.6124 39.1767 11.5498 39.2722 11.5498C39.3676 11.5498 39.4358 11.5794 39.4358 11.6749C39.4358 11.6749 39.5995 12.7119 39.6643 12.9918C39.695 13.0543 39.6302 13.1498 39.5654 13.1827C39.5006 13.2156 39.4017 13.1235 39.4017 13.0576Z" fill="#FF7449"/>
<path d="M41.752 13.465C41.752 13.5068 41.7692 13.547 41.7998 13.5766C41.8305 13.6062 41.8721 13.6228 41.9154 13.6228C41.9588 13.6228 42.0004 13.6062 42.031 13.5766C42.0617 13.547 42.0789 13.5068 42.0789 13.465C42.0789 13.4231 42.0617 13.383 42.031 13.3534C42.0004 13.3238 41.9588 13.3071 41.9154 13.3071C41.8721 13.3071 41.8305 13.3238 41.7998 13.3534C41.7692 13.383 41.752 13.4231 41.752 13.465Z" fill="#FF7449"/>
<path d="M40.6094 13.5245C40.6094 13.5664 40.6266 13.6065 40.6573 13.6361C40.6879 13.6657 40.7295 13.6824 40.7728 13.6824C40.8162 13.6824 40.8578 13.6657 40.8884 13.6361C40.9191 13.6065 40.9363 13.5664 40.9363 13.5245C40.9363 13.4827 40.9191 13.4425 40.8884 13.4129C40.8578 13.3833 40.8162 13.3667 40.7728 13.3667C40.7295 13.3667 40.6879 13.3833 40.6573 13.4129C40.6266 13.4425 40.6094 13.4827 40.6094 13.5245Z" fill="#FF7449"/>
<path d="M39.5352 13.8097C39.5352 13.8516 39.5524 13.8917 39.583 13.9213C39.6137 13.9509 39.6553 13.9675 39.6986 13.9675C39.742 13.9675 39.7836 13.9509 39.8142 13.9213C39.8449 13.8917 39.8621 13.8516 39.8621 13.8097C39.8621 13.7678 39.8449 13.7277 39.8142 13.6981C39.7836 13.6685 39.742 13.6519 39.6986 13.6519C39.6553 13.6519 39.6137 13.6685 39.583 13.6981C39.5524 13.7277 39.5352 13.7678 39.5352 13.8097Z" fill="#FF7449"/>
<path d="M12.0016 18.9588C12.0016 18.9588 10.8764 18.6494 10.5354 19.3341C10.1944 20.0189 10.2763 21.0658 12.2642 21.3786C12.2642 21.3786 13.2393 23.614 14.8999 24.2724C14.9515 25.2254 14.9515 26.1803 14.8999 27.1333C14.8999 27.1333 17.0821 31.8839 17.2867 32.2296C17.2867 32.2296 18.5245 28.1736 18.7836 27.0082C18.7836 27.0082 18.4904 24.809 18.5552 24.5259C18.5552 24.5259 21.5864 23.8971 21.8797 21.0658C22.1388 18.5177 20.4135 15.907 19.7281 13.2041C19.7281 13.2041 18.4904 12.0288 16.8298 12.1341C14.0747 12.3053 10.59 14.3662 12.0016 18.9588Z" fill="#FCCAC2"/>
<path d="M16.267 21.2851C16.2977 21.5057 16.0386 21.7229 15.7112 21.7559C15.5763 21.7749 15.4387 21.7473 15.3227 21.6781C15.2067 21.6088 15.1197 21.5023 15.077 21.3773C15.0463 21.1567 15.2714 20.9723 15.6328 20.9394C15.9942 20.9065 16.2329 21.0645 16.267 21.2851Z" fill="#FCCAC2"/>
<path d="M20.8204 19.5528C20.7607 19.4473 20.7443 19.324 20.7747 19.2074C20.805 19.0909 20.8798 18.9897 20.984 18.924C21.0277 18.8789 21.0805 18.843 21.1392 18.8185C21.1978 18.7939 21.2611 18.7813 21.325 18.7812C21.3889 18.7813 21.4522 18.7939 21.5108 18.8185C21.5695 18.843 21.6223 18.8789 21.666 18.924C21.6971 18.974 21.7176 19.0294 21.7262 19.0872C21.7348 19.1449 21.7314 19.2037 21.7161 19.2601C21.7009 19.3165 21.6741 19.3695 21.6374 19.4158C21.6007 19.4621 21.5548 19.5008 21.5023 19.5298C21.2773 19.6812 20.9499 19.7108 20.8204 19.5528Z" fill="#FCCAC2"/>
<path d="M20.9175 16.3823C20.4913 15.3452 20.0378 13.9263 19.8741 13.3633C20.5561 13.0144 21.5619 12.2012 20.689 10.4366C19.4411 7.92466 14.531 8.46128 13.6513 10.216C13.6513 10.216 8.73441 10.7526 7.39778 14.621C6.06115 18.4893 10.071 20.5469 10.071 20.5469C10.071 20.5469 10.395 23.2531 13.6513 23.5987C13.9785 23.8948 14.3401 24.1533 14.7288 24.3691C14.8115 25.3002 14.8115 26.2364 14.7288 27.1675C14.7288 27.309 14.5481 26.8778 17.1361 32.435C17.1702 32.5601 17.3645 32.5601 17.4293 32.402C17.4941 32.244 18.7011 28.0004 18.8955 26.9634C18.8955 26.7592 18.7046 25.8144 18.667 24.6029C20.0037 24.2276 20.9209 23.5691 21.4699 22.6539C22.7144 20.5996 21.4324 17.6399 20.9175 16.3823ZM21.2073 22.5452C20.5867 23.6152 19.349 24.3066 17.5589 24.5568C17.46 24.5568 17.4259 24.6522 17.4259 24.7148C17.431 24.7521 17.451 24.786 17.4815 24.8093C17.512 24.8327 17.5508 24.8436 17.5896 24.8399C17.8649 24.8066 18.1372 24.7538 18.4045 24.6819C18.436 25.4306 18.5123 26.177 18.6329 26.9173C18.4693 27.7963 17.61 30.8152 17.2963 31.9148L15.0834 27.1345C15.1706 26.1729 15.1706 25.2057 15.0834 24.244C15.0824 24.2194 15.0761 24.1954 15.0649 24.1733C15.0538 24.1512 15.038 24.1315 15.0186 24.1156C13.8924 23.4934 13.0365 22.4998 12.6079 21.3173C12.5738 21.2547 12.5431 21.2251 12.4783 21.2251C12.1584 21.2209 11.8426 21.1546 11.5497 21.0301C11.2568 20.9057 10.9928 20.7257 10.7734 20.5008C10.5757 20.2802 10.3438 19.5131 10.9371 19.1477C11.3531 18.8876 12.1067 19.0522 12.1408 19.0226C12.1749 18.993 12.8909 18.3313 12.6284 16.8201C12.6284 16.8201 14.5174 16.4119 15.0732 14.8448C15.0732 14.8448 18.2306 15.7271 19.632 13.4621C19.7957 14.0613 20.2424 15.4671 20.6549 16.4514C21.1732 17.7222 22.353 20.5634 21.2073 22.5452Z" fill="#313131"/>
<path d="M16.1967 6.25475C15.9121 6.08063 15.5701 6.01614 15.2385 6.07407C14.9069 6.132 14.61 6.30812 14.4066 6.56751C14.4066 6.56751 14.1134 4.71401 12.5824 4.68109C11.0514 4.64817 11.0514 6.53788 11.0514 6.53788C11.0514 6.53788 9.34653 5.42842 8.25199 6.47533C7.15746 7.52225 7.91102 8.83253 7.91102 8.83253C7.91102 8.83253 6.04247 9.27698 6.47551 10.9066C6.76193 11.9799 7.58368 12.0391 8.13606 11.9766C7.61516 12.2845 7.02104 12.4579 6.41072 12.4803C6.36551 12.4803 6.32214 12.4976 6.29017 12.5285C6.2582 12.5594 6.24023 12.6012 6.24023 12.6449C6.24023 12.6885 6.2582 12.7304 6.29017 12.7613C6.32214 12.7922 6.36551 12.8095 6.41072 12.8095C6.47551 12.8095 8.17016 12.7766 8.79756 11.8976C9.1965 11.6309 10.8571 10.0605 13.37 9.86957C13.37 9.86957 14.0895 8.67451 16.7593 8.4243C16.7798 8.39138 17.3424 6.81442 16.1967 6.25475Z" fill="#313131"/>
<path d="M18.708 20.2156C18.8499 19.9108 18.9639 19.5947 19.049 19.2708C18.8787 19.2791 18.7087 19.2496 18.552 19.1845C18.3954 19.1194 18.2563 19.0206 18.1454 18.8954C17.5009 18.1975 17.7192 16.7555 17.7192 16.693C17.7192 16.6304 17.8181 16.5679 17.8828 16.5679C17.9476 16.5679 18.0124 16.6633 18.0124 16.7259C18.0124 16.7259 17.7908 18.0724 18.3534 18.6749C18.4583 18.7869 18.5908 18.8715 18.7386 18.921C18.8864 18.9705 19.0448 18.9832 19.199 18.958C19.3456 18.958 19.3627 19.0041 19.3627 19.116C19.3018 19.5381 19.1814 19.9502 19.0047 20.3407C18.7898 20.5481 18.6534 20.321 18.708 20.2156Z" fill="#313131"/>
<path d="M18.7396 17.6412C18.7281 17.6246 18.7204 17.6058 18.7169 17.5862C18.7135 17.5665 18.7143 17.5463 18.7195 17.527C18.7247 17.5076 18.7341 17.4896 18.747 17.474C18.7599 17.4584 18.7761 17.4456 18.7945 17.4365C18.8129 17.4274 18.8331 17.4221 18.8538 17.4211C18.8744 17.42 18.8951 17.4232 18.9144 17.4304C18.9337 17.4376 18.9512 17.4487 18.9657 17.4629C18.9803 17.4771 18.9915 17.4941 18.9988 17.5128C18.9988 17.5128 19.3568 18.2996 19.8785 18.2371C19.9433 18.2371 20.3354 18.1745 20.1717 17.1375C20.1695 17.1189 20.1711 17.1001 20.1764 17.0821C20.1817 17.0641 20.1906 17.0472 20.2026 17.0326C20.2147 17.0179 20.2296 17.0057 20.2465 16.9965C20.2634 16.9874 20.2821 16.9816 20.3013 16.9795C20.3206 16.9773 20.3401 16.9788 20.3587 16.9839C20.3774 16.9891 20.3948 16.9977 20.41 17.0093C20.4252 17.0209 20.4379 17.0353 20.4473 17.0517C20.4567 17.068 20.4627 17.086 20.465 17.1046C20.465 17.2 20.6286 18.3655 20.107 18.5531C19.2272 18.8758 18.7703 17.7038 18.7396 17.6412Z" fill="#313131"/>
<path d="M14.391 19.304C14.3603 19.2415 14.3603 19.146 14.4251 19.1164C14.4899 19.0867 14.5854 19.0834 14.6195 19.146C14.6195 19.146 15.1412 19.8999 15.6629 19.7452C16.1845 19.5904 15.922 18.5797 15.922 18.5797C15.9093 18.5422 15.9126 18.5013 15.9312 18.4661C15.9497 18.4309 15.982 18.4043 16.0209 18.3921C16.0598 18.3799 16.1021 18.383 16.1385 18.401C16.175 18.4189 16.2026 18.45 16.2152 18.4876C16.2152 18.5501 16.5051 19.7057 15.7583 19.9954C15.0116 20.2851 14.391 19.3336 14.391 19.304Z" fill="#313131"/>
<path d="M18.0848 21.6619C18.0166 21.6323 17.9518 21.5368 17.9859 21.4742C18.02 21.4117 18.1155 21.3491 18.1803 21.3788C18.4128 21.4671 18.6698 21.4746 18.9074 21.4001C19.145 21.3257 19.3484 21.1738 19.4828 20.9705C19.4921 20.9542 19.5052 20.9401 19.521 20.9293C19.5369 20.9186 19.555 20.9115 19.5741 20.9087C19.5933 20.9058 19.6128 20.9072 19.6313 20.9128C19.6497 20.9184 19.6666 20.928 19.6806 20.9409C19.6975 20.9495 19.7121 20.9618 19.7232 20.9768C19.7344 20.9918 19.7417 21.0091 19.7447 21.0273C19.7477 21.0455 19.7462 21.0642 19.7404 21.0818C19.7346 21.0993 19.7246 21.1154 19.7113 21.1286C19.56 21.3993 19.3083 21.6048 19.0066 21.7038C18.7049 21.8027 18.3756 21.7877 18.0848 21.6619Z" fill="#313131"/>
<path d="M18.4893 15.6587C18.4741 15.6443 18.4621 15.6271 18.4539 15.6082C18.4456 15.5892 18.4414 15.5689 18.4414 15.5484C18.4414 15.5278 18.4456 15.5075 18.4539 15.4886C18.4621 15.4697 18.4741 15.4525 18.4893 15.4381C18.674 15.2411 18.9172 15.1038 19.1856 15.0449C19.454 14.986 19.7347 15.0083 19.9896 15.1089C20.0244 15.1259 20.0508 15.1556 20.0629 15.1914C20.0751 15.2272 20.072 15.2662 20.0543 15.2998C20.0367 15.3334 20.006 15.3589 19.9689 15.3706C19.9318 15.3824 19.8914 15.3794 19.8566 15.3624C19.6649 15.2759 19.4489 15.2535 19.2427 15.2989C19.0364 15.3442 18.8517 15.4546 18.7177 15.6126C18.6885 15.6411 18.6513 15.6606 18.6107 15.6688C18.57 15.677 18.5278 15.6735 18.4893 15.6587Z" fill="#313131"/>
<path d="M14.3014 17.2956C14.2689 17.2764 14.2444 17.2467 14.2326 17.2117C14.2207 17.1767 14.2221 17.1387 14.2366 17.1047C14.3604 16.866 14.5586 16.6709 14.8033 16.5469C15.048 16.4228 15.3269 16.3761 15.6006 16.4133C15.696 16.4133 15.7301 16.5088 15.7301 16.5713C15.7301 16.6339 15.6312 16.6964 15.5665 16.6964C15.3543 16.6768 15.1407 16.7167 14.9514 16.8113C14.7622 16.9059 14.6051 17.0512 14.4992 17.2298C14.4992 17.2956 14.3355 17.3252 14.3014 17.2956Z" fill="#313131"/>
<path d="M11.8935 20.375C11.6916 20.2421 11.4556 20.1657 11.2115 20.1544C11.1663 20.1544 11.1229 20.1371 11.091 20.1062C11.059 20.0753 11.041 20.0335 11.041 19.9898C11.041 19.9461 11.059 19.9043 11.091 19.8734C11.1229 19.8425 11.1663 19.8252 11.2115 19.8252C11.5228 19.8333 11.8263 19.9208 12.0912 20.0787C12.1087 20.0867 12.1239 20.0988 12.1355 20.1138C12.1471 20.1288 12.1547 20.1462 12.1577 20.1647C12.1607 20.1832 12.1591 20.2021 12.1528 20.2198C12.1466 20.2375 12.136 20.2535 12.1219 20.2663C12.105 20.3089 12.0721 20.3437 12.0297 20.3638C11.9874 20.384 11.9387 20.388 11.8935 20.375Z" fill="#313131"/>
</g>
<defs>
<clipPath id="clip0_1982_65183">
<rect width="51.7857" height="50" fill="white" transform="translate(0.730469)"/>
</clipPath>
</defs>
</svg>
