<svg width="50" height="50" viewBox="0 0 50 50" fill="none" xmlns="http://www.w3.org/2000/svg">
<path d="M25.7855 27.4999C25.009 27.1023 24.273 26.6301 23.588 26.0899C23.5403 26.0559 23.4813 26.0419 23.4234 26.0507C23.3655 26.0596 23.3133 26.0907 23.278 26.1374C22.5605 27.3324 19.9105 31.7974 19.9105 31.7974C17.618 28.0724 15.133 25.9474 11.003 25.9474C7.23051 25.9474 2.88301 29.5299 1.52301 34.8299C0.163012 40.1299 4.36301 39.9649 4.36301 39.9649L3.86301 41.5174C3.844 41.5633 3.84324 41.6148 3.8609 41.6612C3.87856 41.7077 3.9133 41.7457 3.95801 41.7674C10.1805 45.0774 15.683 42.7224 16.518 42.2924C16.5526 42.2806 16.5826 42.2584 16.6041 42.2288C16.6256 42.1993 16.6374 42.1639 16.638 42.1274C16.6855 41.5524 16.7805 40.0724 16.888 38.7349C17.3655 39.0224 19.888 39.4249 21.388 38.0199C24.0105 35.5199 25.6605 28.8724 25.923 27.7024C25.928 27.6349 25.8805 27.5399 25.7855 27.4999Z" fill="#016DAB"/>
<path d="M14.5379 30.8825C14.5129 30.7625 14.1304 27.755 13.4154 26.1075C13.4013 26.0831 13.3788 26.0647 13.3522 26.0555C13.3256 26.0464 13.2966 26.047 13.2704 26.0575C13.2469 26.0724 13.2293 26.095 13.2207 26.1214C13.212 26.1479 13.2128 26.1765 13.2229 26.2025C13.8204 27.5875 14.2029 30.0475 14.2979 30.7025C13.5151 30.4001 12.6968 30.1993 11.8629 30.105C11.2179 30.25 10.0479 30.965 9.64043 31.205C9.37793 29.4125 9.52293 26.165 9.52293 26.1175C9.52573 26.0886 9.51707 26.0599 9.49882 26.0374C9.48057 26.015 9.4542 26.0006 9.42543 25.9975C9.4113 25.9961 9.39704 25.9975 9.38347 26.0017C9.3699 26.0058 9.35729 26.0127 9.34636 26.0217C9.33544 26.0308 9.32642 26.0419 9.31982 26.0545C9.31323 26.0671 9.30919 26.0808 9.30793 26.095C9.30793 26.1175 9.11543 29.6275 9.45043 31.395C9.45373 31.4127 9.46133 31.4293 9.47257 31.4434C9.48381 31.4575 9.49834 31.4686 9.51488 31.4758C9.53143 31.483 9.54948 31.4859 9.56745 31.4845C9.58542 31.483 9.60275 31.4772 9.61793 31.4675C9.64043 31.4675 11.0254 30.56 11.7904 30.32L11.6479 34.8575C9.56243 35.4311 7.41307 35.7402 5.25043 35.7775C5.72793 35.0625 6.85043 32.6975 6.89793 32.5775C6.90841 32.552 6.90938 32.5235 6.90066 32.4974C6.89194 32.4712 6.87412 32.4491 6.85043 32.435C6.82456 32.4243 6.79575 32.4233 6.76917 32.432C6.74259 32.4407 6.71999 32.4586 6.70543 32.4825C6.31543 33.29 5.27293 35.445 4.98793 35.7775C4.58043 35.7775 4.36543 35.755 4.36543 35.755C4.33692 35.752 4.30839 35.7604 4.28612 35.7785C4.26385 35.7965 4.24966 35.8227 4.24668 35.8512C4.2437 35.8797 4.25216 35.9082 4.27021 35.9305C4.28826 35.9528 4.31442 35.967 4.34293 35.97C6.96328 36.0565 9.58038 35.7188 12.0929 34.97C12.1404 35.3775 12.3304 36.62 12.3429 37.145C10.0818 38.9195 7.29955 39.9008 4.42543 39.9375C4.33293 39.9375 4.24793 39.9375 4.24793 40.0575C4.24793 40.1775 4.31293 40.1775 4.41293 40.1775C6.91852 40.1428 9.36559 39.4151 11.4829 38.075L11.1729 43.545C11.1701 43.5734 11.1784 43.6018 11.1961 43.6242C11.2139 43.6466 11.2396 43.6612 11.2679 43.665C11.3154 43.665 11.3879 43.615 11.3879 43.5675L11.6729 37.9325C12.1979 37.575 12.4854 37.3125 12.5104 37.3125C12.5249 37.3006 12.5366 37.2857 12.5448 37.2689C12.553 37.2521 12.5575 37.2337 12.5579 37.215C12.5579 36.6175 12.3079 34.9 12.2704 34.8275C12.2704 34.805 12.1504 34.7325 12.1279 34.7325L11.8779 34.805L11.9954 30.3625C12.8032 30.5235 13.6012 30.7305 14.3854 30.9825C14.4654 31.025 14.5604 31 14.5379 30.8825Z" fill="#414141"/>
<path d="M12.6252 38.8825C12.6294 38.9114 12.6278 38.9409 12.6205 38.9692C12.6132 38.9975 12.6004 39.024 12.5827 39.0473C12.565 39.0706 12.5428 39.0901 12.5175 39.1047C12.4922 39.1193 12.4642 39.1288 12.4352 39.1325C12.3402 39.1325 12.2452 39.0125 12.2452 38.8825C12.2396 38.8259 12.2563 38.7694 12.2918 38.725C12.3273 38.6806 12.3788 38.6519 12.4352 38.645C12.5302 38.62 12.6252 38.75 12.6252 38.8825Z" fill="#414141"/>
<path d="M12.674 41.5798C12.6786 41.6088 12.6773 41.6384 12.6701 41.6668C12.663 41.6953 12.6501 41.722 12.6324 41.7453C12.6146 41.7687 12.5923 41.7882 12.5668 41.8027C12.5414 41.8172 12.5132 41.8265 12.484 41.8298C12.389 41.8298 12.294 41.7098 12.294 41.5798C12.2884 41.5232 12.3051 41.4667 12.3406 41.4223C12.3761 41.3779 12.4276 41.3492 12.484 41.3423C12.579 41.3173 12.674 41.4373 12.674 41.5798Z" fill="#414141"/>
<path d="M12.9613 32.7698C12.9669 32.8263 12.9502 32.8829 12.9147 32.9273C12.8792 32.9716 12.8277 33.0004 12.7713 33.0073C12.7162 32.9972 12.6664 32.9677 12.6311 32.9241C12.5958 32.8806 12.5773 32.8258 12.5788 32.7698C12.5742 32.7406 12.5756 32.7108 12.583 32.6822C12.5903 32.6536 12.6033 32.6268 12.6213 32.6034C12.6393 32.58 12.6619 32.5606 12.6877 32.5462C12.7135 32.5318 12.7419 32.5228 12.7713 32.5198C12.8257 32.5354 12.8736 32.5682 12.9078 32.6132C12.942 32.6583 12.9608 32.7132 12.9613 32.7698Z" fill="#414141"/>
<path d="M22.8235 28.7098C21.0385 28.4973 16.8785 28.5548 15.851 28.5648C15.783 28.562 15.7159 28.5815 15.6599 28.6203C15.604 28.6591 15.5622 28.7151 15.541 28.7798C14.646 31.4998 13.3585 37.7798 13.1035 39.0023C13.0978 39.0323 13.0984 39.0632 13.1051 39.093C13.1118 39.1228 13.1246 39.1508 13.1427 39.1755C13.1607 39.2001 13.1837 39.2207 13.2101 39.2361C13.2364 39.2515 13.2657 39.2613 13.296 39.2648C15.9235 39.7098 19.576 39.4448 20.3635 39.3473C20.461 39.3473 20.6285 39.1698 20.676 39.0723C21.2485 37.8673 22.7535 30.6923 23.111 29.0723C23.1138 28.9877 23.0865 28.9047 23.0338 28.8383C22.9812 28.7719 22.9066 28.7264 22.8235 28.7098Z" fill="white"/>
<path d="M21.3911 27.8024C21.1944 27.7567 20.9947 27.7249 20.7936 27.7074C20.7936 27.6099 20.6736 26.8324 20.0786 26.7749C19.4836 26.7174 19.0786 27.3949 18.9561 27.6349C18.6211 27.6349 18.3811 27.6574 18.2386 27.6574C18.209 27.6618 18.1808 27.6729 18.1561 27.6898C18.1314 27.7067 18.1109 27.729 18.0961 27.7549C17.9536 28.1374 17.7861 28.7099 17.7136 28.9724C17.6886 29.0449 17.7386 29.0924 17.8086 29.0924C18.8961 29.1999 19.9908 29.2158 21.0811 29.1399C21.1286 29.1399 21.1536 29.1149 21.1761 29.0674C21.2236 28.8524 21.3911 28.2074 21.4636 27.9449C21.4861 27.8724 21.4386 27.8024 21.3911 27.8024ZM19.1936 27.6099C19.3386 27.3599 19.6486 26.9174 20.0311 26.9649C20.4136 27.0124 20.5086 27.3949 20.5561 27.6574C20.103 27.6183 19.6482 27.6025 19.1936 27.6099Z" fill="#414141"/>
<path d="M16.6168 39.5999C16.5443 39.5999 16.4968 39.5524 16.5193 39.4799C16.5418 39.4074 16.5693 39.3599 16.6393 39.3849C18.1693 39.4549 20.4068 39.4049 20.5568 39.0499C21.1743 37.5824 22.9693 28.9724 22.9918 28.8774C22.9981 28.8443 23.0173 28.815 23.0452 28.796C23.0731 28.777 23.1074 28.7699 23.1405 28.7762C23.1737 28.7825 23.203 28.8017 23.222 28.8296C23.241 28.8575 23.2481 28.8918 23.2418 28.9249C23.1693 29.2824 21.4493 37.6749 20.8043 39.1449C20.4318 39.8699 17.1068 39.5674 16.6168 39.5999Z" fill="#414141"/>
<path d="M24.1133 26.3925C24.1133 26.3925 24.1858 24.3625 24.6133 24.1425C25.0408 23.9225 25.2083 24.0475 25.2083 24.0475C25.2083 24.0475 25.7508 23.0975 26.2508 23.0975C26.5608 23.0975 26.5858 23.4325 26.5858 23.4325C26.6505 23.4079 26.7204 23.3996 26.7891 23.4083C26.8578 23.417 26.9233 23.4425 26.9799 23.4825C27.0365 23.5226 27.0823 23.5759 27.1134 23.6378C27.1445 23.6997 27.1599 23.7683 27.1583 23.8375C27.1583 23.8375 27.6833 23.9575 27.4458 24.5875C27.4458 24.5875 27.8733 24.8725 27.0158 25.805C26.5288 26.3272 25.9836 26.7919 25.3908 27.19C24.9507 26.9477 24.5243 26.6814 24.1133 26.3925Z" fill="white"/>
<path d="M12.2695 35.1576C12.2695 35.1576 12.3645 36.6576 12.462 36.8526C13.4331 36.8877 14.4044 36.791 15.3495 36.5651C16.9745 36.1176 16.5445 35.8501 16.402 35.7776C16.402 35.7776 17.427 35.5151 17.3795 35.2051C17.3545 35.0376 16.5195 35.1576 16.5195 35.1576C16.5195 35.1576 17.857 34.3926 17.642 34.2026C17.427 34.0126 15.612 34.7526 15.612 34.7526C15.612 34.7526 17.162 33.7751 16.9495 33.5326C16.8045 33.3676 14.1995 34.3926 13.847 34.5126L13.942 34.1076C13.9645 34.0826 12.3645 35.1576 12.2695 35.1576Z" fill="white"/>
<path d="M17.6661 34.0575C17.4836 33.8775 16.9961 34.205 15.9936 34.5125C16.4936 34.225 17.0936 33.845 17.0461 33.58C16.9836 33.06 15.9711 33.6 13.9886 34.33L14.0611 34.08C14.1086 33.9375 13.9636 33.89 13.8936 33.96C13.7486 34.08 12.2211 35.0825 12.1736 35.13C12.1261 35.1775 12.1511 35.2075 12.1511 35.2325C12.1511 35.345 12.3136 36.7725 12.3661 36.885C12.4186 36.9975 12.5086 36.97 12.6161 36.97C13.1161 36.97 14.5736 36.94 15.6986 36.54C16.5786 36.225 16.6986 36.0625 16.6761 35.92C16.6764 35.8754 16.6594 35.8324 16.6286 35.8C16.9521 35.7228 17.2517 35.5675 17.5011 35.3475C17.527 35.3187 17.5433 35.2825 17.5478 35.244C17.5522 35.2055 17.5447 35.1665 17.5261 35.1325C17.4536 35.0375 17.2386 34.99 16.8561 35.015C17.4061 34.7525 17.6911 34.515 17.7636 34.265C17.7511 34.1775 17.7511 34.1075 17.6661 34.0575ZM15.9711 35.1325C15.6611 35.2525 15.3486 35.3475 15.0861 35.42C15.0576 35.4296 15.0341 35.4502 15.0207 35.4771C15.0073 35.5041 15.0052 35.5353 15.0149 35.5638C15.0245 35.5923 15.045 35.6158 15.072 35.6292C15.0989 35.6425 15.1301 35.6446 15.1586 35.635C15.1586 35.635 17.0011 35.0375 17.2511 35.25C17.2736 35.3925 16.2711 35.68 16.2511 35.68C15.8662 35.7956 15.4757 35.8916 15.0811 35.9675C15.0526 35.9708 15.0266 35.9853 15.0088 36.0078C14.9909 36.0304 14.9828 36.059 14.9861 36.0875C14.9894 36.116 15.0039 36.1421 15.0264 36.1599C15.0489 36.1777 15.0776 36.1858 15.1061 36.1825C15.1061 36.1825 16.3961 35.87 16.4186 35.9325C16.4411 35.995 16.2511 36.095 15.6061 36.315C14.4561 36.71 12.8836 36.72 12.5036 36.72C12.4215 36.2384 12.3656 35.7527 12.3361 35.265C12.5511 35.12 13.3611 34.5725 13.7686 34.31C13.7686 34.31 13.6261 34.62 13.8636 34.62C14.2211 34.595 16.8261 33.425 16.8486 33.5925C16.8486 33.64 16.7561 33.8425 15.9411 34.31C15.4411 34.5975 14.9136 34.835 14.9136 34.835C14.7861 34.8975 14.9011 35.085 14.9861 35.05C15.7736 34.8575 17.4461 34.1175 17.4861 34.2375C17.6186 34.44 15.9711 35.1325 15.9711 35.1325Z" fill="#414141"/>
<path d="M28.8907 26.895C28.3907 26.4875 27.6707 25.915 27.2657 25.58C27.7432 24.9125 27.6482 24.555 27.5157 24.5075C27.5657 24.34 27.7307 23.91 27.2307 23.7175C27.2057 23.6 27.2307 23.24 26.6807 23.2875C26.6582 23.17 26.4682 22.7425 25.8682 23.0725C25.607 23.2585 25.3944 23.5046 25.2482 23.79C24.6757 23.36 23.3857 22.3325 23.3607 22.3325C23.2032 22.2525 23.1632 22.46 23.2432 22.5C23.3232 22.54 24.4132 23.4075 24.9932 23.8625C24.9097 23.8553 24.8257 23.8665 24.747 23.8955C24.6684 23.9244 24.5971 23.9704 24.5382 24.03C24.2057 24.3875 24.1082 25.4625 24.0607 26.2975C24.055 26.32 24.0565 26.3437 24.065 26.3652C24.0736 26.3868 24.0887 26.4051 24.1082 26.4175C24.5064 26.7245 24.9305 26.9964 25.3757 27.23C25.4149 27.2415 25.4565 27.2415 25.4957 27.23C26.1023 26.7704 26.6762 26.2692 27.2132 25.73C27.6432 26.0875 28.4632 26.73 28.8382 27.0425C28.8632 27.085 29.0807 27.085 28.8907 26.895ZM27.4082 24.7225C27.4557 24.8175 27.3607 25.08 27.0982 25.4375C27.0257 25.365 26.9082 25.295 26.8482 25.3175C26.7282 25.365 26.4432 25.5675 26.3482 25.485C26.3482 25.485 26.3282 25.44 26.4457 25.295C26.7257 24.92 27.3382 24.625 27.4082 24.7225ZM27.1582 23.9575C27.2307 23.9325 27.4682 24.0775 27.3032 24.4825C26.902 24.5979 26.5442 24.8303 26.2757 25.15C26.2278 25.2089 26.1875 25.2736 26.1557 25.3425C26.1557 25.3425 25.9657 25.485 25.9057 25.39C25.9057 25.39 25.8782 25.3175 25.9532 25.14C26.2032 24.43 27.0257 24.03 27.1457 23.9575H27.1582ZM26.6332 23.575C26.7532 23.5275 26.9907 23.5025 26.9907 23.825C26.7407 23.9425 26.0132 24.3725 25.7257 25.0425C25.6812 25.1311 25.6565 25.2284 25.6532 25.3275C25.5832 25.3275 25.5357 25.3275 25.5107 25.305C25.4382 25.21 25.5832 24.78 25.5832 24.78C25.9657 24.755 25.9882 24.635 26.0132 24.5875C26.0607 24.42 25.9157 24.3375 25.8682 24.2775C26.0535 23.9817 26.3129 23.7395 26.6207 23.575H26.6332ZM25.9882 23.2875C26.0832 23.2175 26.3957 23.0725 26.4657 23.4075C26.1441 23.5961 25.8669 23.8519 25.6532 24.1575L25.3557 24C25.5163 23.726 25.7265 23.4844 25.9757 23.2875H25.9882ZM25.3682 27.0375C24.9796 26.8227 24.6047 26.5839 24.2457 26.3225C24.2932 25.2225 24.4132 24.4575 24.6507 24.2425C24.9382 23.9575 25.7257 24.41 25.7732 24.5075C25.441 24.5585 25.1024 24.55 24.7732 24.4825C24.7007 24.4825 24.6532 24.5075 24.6532 24.5775C24.6532 24.6475 24.6782 24.6975 24.7482 24.6975C24.8182 24.6975 24.8682 24.7225 24.9157 24.7225C24.8682 25.3175 25.1782 25.365 25.3232 25.365C25.3375 25.4065 25.3607 25.4444 25.3911 25.4761C25.4215 25.5078 25.4585 25.5324 25.4994 25.5484C25.5403 25.5643 25.5842 25.5711 25.6281 25.5684C25.6719 25.5657 25.7146 25.5534 25.7532 25.5325C25.8071 25.5821 25.8753 25.6134 25.948 25.6219C26.0207 25.6304 26.0943 25.6158 26.1582 25.58C26.1582 25.58 26.2532 25.94 26.9082 25.5325L27.0032 25.63C26.4822 26.1312 25.9321 26.6012 25.3557 27.0375H25.3682ZM25.3432 24.745C25.3048 24.8693 25.2813 24.9977 25.2732 25.1275C25.1057 25.1025 25.1282 24.84 25.1532 24.745H25.3432Z" fill="#414141"/>
<path d="M48.591 32.25C42.551 30.75 34.0785 33.705 33.761 39C33.481 43.68 39.8035 43 41.6185 40.6C43.2885 38.4025 45.081 35.4175 46.9435 33.77C47.4575 33.3172 48.0271 32.9316 48.6385 32.6225C48.6737 32.6028 48.7022 32.573 48.7203 32.537C48.7385 32.5009 48.7455 32.4603 48.7404 32.4202C48.7352 32.3802 48.7183 32.3426 48.6917 32.3123C48.6651 32.282 48.63 32.2603 48.591 32.25ZM44.8185 34.2775H44.221L43.9335 34.8525C43.886 34.9225 43.816 34.8525 43.816 34.8275L43.721 34.255L43.171 34.23C43.051 34.23 43.0985 34.135 43.1235 34.1125L43.576 33.75L43.481 33.155C43.456 33.0575 43.576 33.0825 43.576 33.0825L44.031 33.3925L44.556 33.13C44.676 33.105 44.651 33.2025 44.651 33.225L44.4135 33.8225L44.841 34.1575C44.9135 34.225 44.841 34.2725 44.8185 34.2725V34.2775Z" fill="#87E4FF"/>
<path d="M46.132 28.8998C46.277 28.9248 46.347 28.7823 46.252 28.6623C45.6945 27.9498 45.272 27.1798 45.202 26.8473C45.1045 26.3923 44.987 20.6123 43.507 19.9448C41.907 19.2248 31.222 21.3623 30.467 22.6673C29.712 23.9723 32.497 29.8073 34.1195 30.0948C35.602 30.3573 42.957 28.3748 43.457 28.2073C43.602 28.1598 45.272 28.8048 46.132 28.8998Z" fill="#FDAF31"/>
<path d="M47.4691 19.3474C47.5166 19.3474 47.5641 19.2999 47.5416 19.2524C47.2916 18.6799 46.1366 15.8124 44.9866 12.3499C43.8191 8.84993 41.2366 4.47992 37.4641 7.19242C34.2941 9.46992 38.5616 18.1074 47.4691 19.3474Z" fill="#87E4FF"/>
<path d="M39.3015 17.3172C38.4158 16.7421 37.5848 16.0869 36.819 15.3597C34.884 13.5697 31.729 7.85975 29.129 10.7022C26.6665 13.3997 32.1865 18.8472 39.279 17.4372C39.3265 17.4147 39.349 17.3422 39.3015 17.3172Z" fill="#87E4FF"/>
<path d="M35.6011 22.7624C35.5733 22.7625 35.5463 22.7532 35.5245 22.7359C35.5027 22.7187 35.4874 22.6945 35.4811 22.6674C35.4561 22.5949 35.5061 22.5474 35.5761 22.5249C38.1786 21.9274 40.4011 21.4999 42.1911 21.2499C42.2636 21.2499 42.3111 21.2749 42.3111 21.3474C42.3111 21.4199 42.2861 21.4649 42.2161 21.4649C40.4236 21.7149 38.2036 22.1349 35.6236 22.7324C35.6236 22.7624 35.6236 22.7624 35.6011 22.7624Z" fill="#414141"/>
<path d="M32.1614 23.6699C32.1139 23.6699 32.0664 23.6474 32.0664 23.5999C32.0664 23.5524 32.0914 23.4799 32.1389 23.4549C32.1389 23.4549 33.0689 23.1449 34.6939 22.7624C34.7224 22.7531 34.7535 22.7555 34.7802 22.7691C34.8069 22.7827 34.8271 22.8064 34.8364 22.8349C34.8457 22.8634 34.8433 22.8944 34.8297 22.9212C34.8161 22.9479 34.7924 22.9681 34.7639 22.9774C33.1414 23.3599 32.2339 23.6699 32.2339 23.6699H32.1614Z" fill="#414141"/>
<path d="M32.663 25.2949C32.6367 25.2902 32.612 25.279 32.5911 25.2624C32.5702 25.2459 32.5536 25.2244 32.543 25.1999C32.543 25.1274 32.568 25.0799 32.638 25.0799C35.8763 24.103 39.1806 23.3602 42.5255 22.8574C42.598 22.8574 42.6455 22.8824 42.6455 22.9549C42.6455 23.0274 42.6205 23.0724 42.548 23.0724C36.703 23.9524 32.908 25.2949 32.663 25.2949Z" fill="#414141"/>
<path d="M33.2825 27.015C33.235 27.015 33.1875 26.99 33.1875 26.9425C33.1875 26.895 33.21 26.8225 33.26 26.8C33.31 26.7775 36.53 25.8 38.99 25.4375C39.0625 25.4375 39.11 25.4625 39.11 25.5325C39.11 25.6025 39.085 25.6525 39.015 25.6525C36.5775 26 33.355 27 33.33 27C33.3165 27.0107 33.2996 27.016 33.2825 27.015Z" fill="#414141"/>
<path d="M39.6842 27.325C39.6565 27.3247 39.6297 27.3152 39.608 27.298C39.5863 27.2808 39.5709 27.2569 39.5642 27.23C39.5417 27.1575 39.5892 27.11 39.6617 27.085C40.85 26.8148 42.054 26.6194 43.2667 26.5C43.2955 26.4972 43.3243 26.5059 43.3467 26.5241C43.3692 26.5424 43.3836 26.5688 43.3867 26.5975C43.3895 26.6257 43.3811 26.6538 43.3633 26.6758C43.3456 26.6978 43.3198 26.7119 43.2917 26.715C42.0757 26.8285 40.8699 27.0324 39.6842 27.325Z" fill="#414141"/>
<path d="M34.8118 28.5424C34.7643 28.5424 34.7168 28.5174 34.7168 28.4699C34.7168 28.4224 34.7418 28.3499 34.7893 28.3274C34.8368 28.3049 36.6043 27.8024 38.6568 27.3274C38.6853 27.3185 38.7162 27.3207 38.7432 27.3337C38.7701 27.3467 38.7911 27.3695 38.8018 27.3974C38.8243 27.4474 38.7768 27.5174 38.7293 27.5424C36.6768 28.0199 34.8843 28.5424 34.8843 28.5424H34.8118Z" fill="#414141"/>
<path d="M42.1916 25.1751C42.1691 24.7226 42.1916 23.8626 42.1916 23.8151C42.1916 23.7819 42.2048 23.7501 42.2283 23.7267C42.2517 23.7032 42.2835 23.6901 42.3166 23.6901C42.3498 23.6901 42.3816 23.7032 42.405 23.7267C42.4285 23.7501 42.4416 23.7819 42.4416 23.8151C42.4416 23.8151 42.4166 24.6976 42.4416 25.1501C42.4444 25.1789 42.4358 25.2076 42.4175 25.2301C42.3993 25.2525 42.3729 25.2669 42.3441 25.2701C42.2516 25.2701 42.1916 25.2226 42.1916 25.1751Z" fill="white"/>
<path d="M41.236 25.0549C41.1885 24.8399 41.116 24.1249 41.116 24.0774C41.1126 24.0489 41.1208 24.0202 41.1386 23.9977C41.1564 23.9752 41.1824 23.9607 41.211 23.9574C41.2395 23.9541 41.2681 23.9622 41.2906 23.98C41.3131 23.9979 41.3276 24.0239 41.331 24.0524C41.331 24.0524 41.4035 24.8174 41.451 25.0074C41.476 25.0799 41.426 25.1274 41.356 25.1499C41.3297 25.1451 41.305 25.134 41.2841 25.1174C41.2631 25.1008 41.2466 25.0794 41.236 25.0549Z" fill="white"/>
<path d="M40.4713 25.365C40.4013 25.15 40.3063 24.365 40.2812 24.34C40.2812 24.2675 40.3063 24.22 40.3763 24.22C40.4463 24.22 40.4963 24.2425 40.4963 24.315C40.4963 24.315 40.6162 25.1025 40.6637 25.315C40.6862 25.3625 40.6388 25.435 40.5913 25.46C40.5438 25.485 40.4713 25.415 40.4713 25.365Z" fill="white"/>
<path d="M42.1914 25.6772C42.1914 25.709 42.204 25.7395 42.2265 25.762C42.249 25.7845 42.2795 25.7971 42.3113 25.7971C42.3431 25.7971 42.3735 25.7845 42.396 25.762C42.4185 25.7395 42.4311 25.709 42.4311 25.6772C42.4311 25.6454 42.4185 25.615 42.396 25.5925C42.3735 25.57 42.3431 25.5574 42.3113 25.5574C42.2795 25.5574 42.249 25.57 42.2265 25.5925C42.204 25.615 42.1914 25.6454 42.1914 25.6772Z" fill="white"/>
<path d="M41.3555 25.7248C41.3555 25.7566 41.3681 25.7871 41.3906 25.8096C41.4131 25.8321 41.4435 25.8447 41.4753 25.8447C41.5071 25.8447 41.5376 25.8321 41.5601 25.8096C41.5826 25.7871 41.5952 25.7566 41.5952 25.7248C41.5952 25.6931 41.5826 25.6626 41.5601 25.6401C41.5376 25.6176 41.5071 25.605 41.4753 25.605C41.4435 25.605 41.4131 25.6176 41.3906 25.6401C41.3681 25.6626 41.3555 25.6931 41.3555 25.7248Z" fill="white"/>
<path d="M40.5664 25.9397C40.5664 25.9715 40.579 26.002 40.6015 26.0244C40.624 26.0469 40.6545 26.0595 40.6863 26.0595C40.7181 26.0595 40.7485 26.0469 40.771 26.0244C40.7935 26.002 40.8061 25.9715 40.8061 25.9397C40.8061 25.9079 40.7935 25.8774 40.771 25.8549C40.7485 25.8325 40.7181 25.8198 40.6863 25.8198C40.6545 25.8198 40.624 25.8325 40.6015 25.8549C40.579 25.8774 40.5664 25.9079 40.5664 25.9397Z" fill="white"/>
<path d="M32.0411 13.4725C32.0411 13.4725 31.7086 12.4725 32.2336 12.5425C32.7586 12.6125 34.2636 14.715 34.2861 14.93C34.3086 15.145 31.7511 14.4625 31.3011 13.975C30.8511 13.4875 31.5011 13.21 32.0411 13.4725Z" fill="white"/>
<path d="M42.8141 14.4049C42.6691 14.4774 42.6941 14.8099 42.8366 14.9299C42.889 14.9821 42.9574 15.0151 43.0309 15.0237C43.1043 15.0323 43.1785 15.016 43.2416 14.9774C43.3391 14.9074 43.3141 14.6924 43.2191 14.5724C43.1241 14.4524 42.9791 14.3099 42.8141 14.4049Z" fill="white"/>
<path d="M42.024 13.4999C42.024 13.4999 42.1915 13.5724 42.2165 13.2849C42.2415 12.9974 41.2615 11.3974 41.164 11.2849C41.0665 11.1724 40.1815 9.5099 39.7315 9.8024C39.2815 10.0949 40.4815 11.8024 40.569 11.9049C40.6565 12.0074 41.714 13.4724 42.024 13.4999Z" fill="white"/>
<path d="M37.3176 39.6224L36.8901 39.3124L37.1051 38.7149C37.1526 38.5949 37.0326 38.6199 37.0076 38.6449L36.4826 38.9549L36.0001 38.6674C35.8801 38.5949 35.8801 38.7149 35.9051 38.7399L36.0251 39.3374L35.5951 39.7174C35.5226 39.8149 35.6176 39.8374 35.6426 39.8374H36.1926L36.3101 40.4099C36.3101 40.4349 36.4051 40.5074 36.4551 40.4349L36.6926 39.8374L37.2901 39.7899C37.3076 39.7855 37.3235 39.7761 37.3357 39.7628C37.3479 39.7495 37.3559 39.733 37.3589 39.7152C37.3618 39.6974 37.3594 39.6791 37.3521 39.6626C37.3448 39.6462 37.3328 39.6322 37.3176 39.6224Z" fill="white"/>
<path d="M38.9685 37.8324L38.5385 37.5224L38.7535 36.9249C38.7535 36.8999 38.776 36.7799 38.656 36.8524L38.131 37.1624L37.6535 36.8774C37.631 36.8524 37.511 36.8524 37.5585 36.9474L37.701 37.4974L37.251 37.8549C37.226 37.8799 37.1785 37.9749 37.2735 37.9749L37.8485 38.0224L37.966 38.5949C37.9712 38.6089 37.9799 38.6213 37.9914 38.6308C38.0028 38.6404 38.0166 38.6467 38.0313 38.6493C38.046 38.6518 38.0611 38.6504 38.0751 38.6453C38.0891 38.6401 38.1015 38.6314 38.111 38.6199L38.361 38.0224L38.9585 37.9749C38.9435 37.9749 39.0635 37.9274 38.9685 37.8324Z" fill="white"/>
<path d="M40.948 36.5424L40.543 36.2074L40.8055 35.6099C40.853 35.5149 40.733 35.5149 40.7105 35.5149L40.113 35.8024L39.683 35.4674C39.6707 35.4593 39.6564 35.4548 39.6417 35.4545C39.627 35.4542 39.6126 35.458 39.6 35.4656C39.5874 35.4732 39.5772 35.4843 39.5707 35.4974C39.5641 35.5106 39.5615 35.5253 39.563 35.5399L39.6355 36.1374L39.183 36.4999C39.158 36.5224 39.1105 36.5949 39.2305 36.6199L39.803 36.6424L39.9705 37.2874C39.9764 37.3014 39.9864 37.3133 39.999 37.3216C40.0117 37.33 40.0265 37.3344 40.0417 37.3344C40.0569 37.3344 40.0717 37.33 40.0844 37.3216C40.0971 37.3133 40.107 37.3014 40.113 37.2874L40.3055 36.6424L40.9005 36.6199C41.0205 36.6374 40.973 36.5424 40.948 36.5424Z" fill="white"/>
<path d="M42.7155 35.2051L42.2855 34.8701L42.5005 34.3451C42.548 34.2501 42.4305 34.2501 42.4055 34.2501L41.9055 34.4651L41.4255 34.1551C41.3305 34.0826 41.308 34.2026 41.3305 34.2251L41.4255 34.8226L41.0205 35.1801C40.948 35.2526 41.0455 35.3001 41.068 35.3001L41.593 35.3251L41.7605 35.8976C41.767 35.9114 41.7772 35.9231 41.79 35.9312C41.8029 35.9394 41.8178 35.9438 41.833 35.9438C41.8483 35.9438 41.8632 35.9394 41.876 35.9312C41.8888 35.9231 41.8991 35.9114 41.9055 35.8976L42.118 35.3251L42.7155 35.3001C42.788 35.3251 42.7505 35.2301 42.7155 35.2051Z" fill="white"/>
<path d="M8.00081 20.0648C8.00081 20.0648 7.17581 19.8298 6.92581 20.3498C6.67581 20.8698 6.73581 21.6648 8.19331 21.9023C8.19331 21.9023 8.90831 23.5998 10.1258 24.0998C10.1637 24.8234 10.1637 25.5486 10.1258 26.2723C10.1258 26.2723 11.7258 29.8798 11.8758 30.1423C11.8758 30.1423 12.7833 27.0623 12.9733 26.1773C12.9733 26.1773 12.7583 24.5073 12.8058 24.2923C12.8058 24.2923 15.0283 23.8148 15.2433 21.6648C15.4333 19.7298 14.1683 17.7473 13.6658 15.6948C13.6658 15.6948 12.7583 14.8023 11.5408 14.8823C9.52081 15.0123 6.96581 16.5773 8.00081 20.0648Z" fill="white"/>
<path d="M11.1226 21.8324C11.1451 21.9999 10.9551 22.1649 10.7151 22.1899C10.6161 22.2044 10.5153 22.1835 10.4302 22.1309C10.3452 22.0783 10.2814 21.9974 10.2501 21.9024C10.2276 21.7349 10.3926 21.5949 10.6576 21.5699C10.9226 21.5449 11.0976 21.6649 11.1226 21.8324Z" fill="#FDAF31"/>
<path d="M14.4663 20.5175C14.4225 20.4375 14.4106 20.3438 14.4328 20.2553C14.4551 20.1668 14.5099 20.0899 14.5863 20.04C14.6183 20.0058 14.6571 19.9785 14.7001 19.9599C14.7431 19.9413 14.7894 19.9316 14.8363 19.9316C14.8832 19.9316 14.9295 19.9413 14.9726 19.9599C15.0156 19.9785 15.0543 20.0058 15.0863 20.04C15.1091 20.078 15.1241 20.1201 15.1304 20.1639C15.1368 20.2078 15.1342 20.2524 15.1231 20.2953C15.1119 20.3381 15.0923 20.3783 15.0653 20.4135C15.0384 20.4486 15.0048 20.4781 14.9663 20.5C14.8013 20.615 14.5613 20.6375 14.4663 20.5175Z" fill="#FDAF31"/>
<path d="M14.5383 18.1075C14.2258 17.32 13.8933 16.2425 13.7733 15.815C14.2733 15.55 15.0108 14.9325 14.3708 13.5925C13.4558 11.685 9.85578 12.0925 9.21078 13.425C9.21078 13.425 5.60578 13.8325 4.62578 16.77C3.64578 19.7075 6.58578 21.27 6.58578 21.27C6.58578 21.27 6.82328 23.325 9.21078 23.5875C9.45069 23.8123 9.71578 24.0086 10.0008 24.1725C10.0614 24.8796 10.0614 25.5905 10.0008 26.2975C10.0008 26.405 9.86828 26.0775 11.7658 30.2975C11.7908 30.3925 11.9333 30.3925 11.9808 30.2725C12.0283 30.1525 12.9133 26.93 13.0558 26.1425C13.0558 25.9875 12.9158 25.27 12.8883 24.35C13.8683 24.065 14.5408 23.565 14.9433 22.87C15.8558 21.31 14.9158 19.0625 14.5383 18.1075ZM14.7508 22.7875C14.2958 23.6 13.3883 24.125 12.0758 24.315C12.0033 24.315 11.9783 24.3875 11.9783 24.435C11.982 24.4633 11.9967 24.4891 12.0191 24.5068C12.0414 24.5245 12.0699 24.5329 12.0983 24.53C12.3001 24.5048 12.4998 24.4646 12.6958 24.41C12.7189 24.9786 12.7748 25.5454 12.8633 26.1075C12.7433 26.775 12.1133 29.0675 11.8833 29.9025L10.2608 26.2725C10.3247 25.5423 10.3247 24.8078 10.2608 24.0775C10.26 24.0589 10.2554 24.0406 10.2473 24.0238C10.2391 24.007 10.2275 23.9921 10.2133 23.98C9.38757 23.5075 8.76001 22.753 8.44578 21.855C8.42078 21.8075 8.39828 21.785 8.35078 21.785C8.1162 21.7818 7.88465 21.7315 7.66992 21.637C7.45518 21.5425 7.26163 21.4058 7.10078 21.235C6.95578 21.0675 6.78578 20.485 7.22078 20.2075C7.52578 20.01 8.07828 20.135 8.10328 20.1125C8.12828 20.09 8.65328 19.5875 8.46078 18.44C8.46078 18.44 9.84578 18.13 10.2533 16.94C10.2533 16.94 12.5683 17.61 13.5958 15.89C13.7158 16.345 14.0433 17.4125 14.3458 18.16C14.7258 19.125 15.5908 21.2825 14.7508 22.7875Z" fill="#414141"/>
<path d="M11.0734 10.4175C10.8647 10.2853 10.614 10.2363 10.3709 10.2803C10.1278 10.3243 9.91006 10.458 9.76094 10.655C9.76094 10.655 9.54594 9.24749 8.42344 9.22249C7.30094 9.19749 7.30094 10.6325 7.30094 10.6325C7.30094 10.6325 6.05094 9.78999 5.24844 10.585C4.44594 11.38 4.99844 12.375 4.99844 12.375C4.99844 12.375 3.62844 12.7125 3.94594 13.95C4.15594 14.765 4.75844 14.81 5.16344 14.7625C4.78152 14.9963 4.34592 15.128 3.89844 15.145C3.86529 15.145 3.83349 15.1582 3.81005 15.1816C3.78661 15.205 3.77344 15.2368 3.77344 15.27C3.77344 15.3031 3.78661 15.3349 3.81005 15.3584C3.83349 15.3818 3.86529 15.395 3.89844 15.395C3.94594 15.395 5.18844 15.37 5.64844 14.7025C5.94094 14.5 7.15844 13.3075 9.00094 13.1625C9.00094 13.1625 9.52844 12.255 11.4859 12.065C11.5009 12.04 11.9134 10.8425 11.0734 10.4175Z" fill="#414141"/>
<path d="M12.9132 21.0199C13.0172 20.7884 13.1009 20.5483 13.1632 20.3024C13.0383 20.3087 12.9137 20.2863 12.7988 20.2369C12.684 20.1875 12.582 20.1124 12.5007 20.0174C12.0282 19.4874 12.1882 18.3924 12.1882 18.3449C12.1882 18.2974 12.2607 18.2499 12.3082 18.2499C12.3557 18.2499 12.4032 18.3224 12.4032 18.3699C12.4032 18.3699 12.2407 19.3924 12.6532 19.8499C12.7302 19.9349 12.8273 19.9992 12.9357 20.0368C13.044 20.0744 13.1601 20.084 13.2732 20.0649C13.3807 20.0649 13.3932 20.0999 13.3932 20.1849C13.3486 20.5054 13.2603 20.8183 13.1307 21.1149C12.9732 21.2724 12.8732 21.0999 12.9132 21.0199Z" fill="#414141"/>
<path d="M12.9381 19.0626C12.9297 19.0499 12.924 19.0357 12.9214 19.0208C12.9189 19.0058 12.9196 18.9905 12.9234 18.9758C12.9272 18.9611 12.934 18.9474 12.9435 18.9356C12.953 18.9237 12.9648 18.914 12.9783 18.9071C12.9918 18.9002 13.0066 18.8962 13.0218 18.8954C13.0369 18.8946 13.0521 18.897 13.0662 18.9025C13.0804 18.908 13.0932 18.9164 13.1039 18.9271C13.1145 18.9379 13.1228 18.9508 13.1281 18.9651C13.1281 18.9651 13.3906 19.5626 13.7731 19.5151C13.8206 19.5151 14.1081 19.4676 13.9881 18.6801C13.9865 18.6659 13.9876 18.6516 13.9915 18.638C13.9954 18.6243 14.0019 18.6115 14.0107 18.6004C14.0196 18.5892 14.0305 18.5799 14.0429 18.573C14.0553 18.5661 14.069 18.5617 14.0831 18.5601C14.0972 18.5584 14.1115 18.5596 14.1252 18.5635C14.1389 18.5673 14.1516 18.5739 14.1628 18.5827C14.1739 18.5915 14.1832 18.6024 14.1901 18.6149C14.1971 18.6273 14.2015 18.6409 14.2031 18.6551C14.2031 18.7276 14.3231 19.6126 13.9406 19.7551C13.2956 20.0001 12.9606 19.1101 12.9381 19.0626Z" fill="#414141"/>
<path d="M9.75093 20.3273C9.72843 20.2798 9.72843 20.2073 9.77593 20.1848C9.82343 20.1623 9.89343 20.1598 9.91843 20.2073C9.91843 20.2073 10.3009 20.7798 10.6834 20.6623C11.0659 20.5448 10.8734 19.7773 10.8734 19.7773C10.8642 19.7488 10.8666 19.7178 10.8802 19.6911C10.8938 19.6643 10.9174 19.6441 10.9459 19.6348C10.9744 19.6255 11.0055 19.628 11.0322 19.6416C11.0589 19.6552 11.0792 19.6788 11.0884 19.7073C11.0884 19.7548 11.3009 20.6323 10.7534 20.8523C10.2059 21.0723 9.75093 20.3498 9.75093 20.3273Z" fill="#414141"/>
<path d="M12.4602 22.1173C12.4102 22.0948 12.3627 22.0223 12.3877 21.9748C12.4127 21.9273 12.4827 21.8798 12.5302 21.9023C12.7007 21.9693 12.8891 21.975 13.0633 21.9185C13.2375 21.862 13.3867 21.7466 13.4852 21.5923C13.492 21.5798 13.5016 21.5691 13.5132 21.561C13.5248 21.5528 13.5382 21.5475 13.5522 21.5453C13.5662 21.5431 13.5805 21.5442 13.5941 21.5484C13.6076 21.5527 13.62 21.56 13.6302 21.5698C13.6426 21.5763 13.6533 21.5856 13.6615 21.597C13.6697 21.6084 13.675 21.6215 13.6772 21.6354C13.6794 21.6492 13.6783 21.6634 13.6741 21.6767C13.6698 21.6901 13.6625 21.7022 13.6527 21.7123C13.5418 21.9179 13.3573 22.0739 13.1361 22.1491C12.9149 22.2242 12.6734 22.2128 12.4602 22.1173Z" fill="#414141"/>
<path d="M12.7499 17.5575C12.7388 17.5466 12.73 17.5336 12.724 17.5192C12.7179 17.5048 12.7148 17.4894 12.7148 17.4738C12.7148 17.4582 12.7179 17.4428 12.724 17.4284C12.73 17.414 12.7388 17.401 12.7499 17.39C12.8854 17.2404 13.0637 17.1362 13.2605 17.0914C13.4573 17.0467 13.6631 17.0637 13.8499 17.14C13.8755 17.153 13.8948 17.1755 13.9037 17.2027C13.9126 17.2299 13.9104 17.2595 13.8974 17.285C13.8845 17.3106 13.862 17.3299 13.8348 17.3388C13.8076 17.3477 13.778 17.3455 13.7524 17.3325C13.6119 17.2669 13.4536 17.2499 13.3023 17.2843C13.1511 17.3187 13.0157 17.4026 12.9174 17.5225C12.896 17.5442 12.8687 17.559 12.8389 17.5653C12.8092 17.5715 12.7782 17.5688 12.7499 17.5575Z" fill="#414141"/>
<path d="M9.68719 18.7999C9.66331 18.7854 9.6454 18.7628 9.6367 18.7362C9.62799 18.7096 9.62905 18.6808 9.63969 18.6549C9.73039 18.4737 9.87571 18.3256 10.0551 18.2314C10.2345 18.1372 10.439 18.1017 10.6397 18.1299C10.7097 18.1299 10.7347 18.2024 10.7347 18.2499C10.7347 18.2974 10.6622 18.3449 10.6147 18.3449C10.4591 18.33 10.3026 18.3603 10.1638 18.4321C10.025 18.504 9.90985 18.6143 9.83219 18.7499C9.83219 18.7999 9.71219 18.8224 9.68719 18.7999Z" fill="#414141"/>
<path d="M7.92383 21.1399C7.77583 21.039 7.60276 20.981 7.42383 20.9724C7.39068 20.9724 7.35888 20.9592 7.33544 20.9358C7.312 20.9124 7.29883 20.8806 7.29883 20.8474C7.29883 20.8143 7.312 20.7825 7.33544 20.759C7.35888 20.7356 7.39068 20.7224 7.42383 20.7224C7.65204 20.7286 7.87455 20.795 8.06883 20.9149C8.08165 20.921 8.09278 20.9302 8.10128 20.9416C8.10977 20.9529 8.11537 20.9662 8.11758 20.9802C8.1198 20.9943 8.11857 21.0086 8.11399 21.0221C8.10942 21.0355 8.10164 21.0476 8.09133 21.0574C8.07892 21.0897 8.05478 21.1162 8.02373 21.1315C7.99268 21.1467 7.95701 21.1498 7.92383 21.1399Z" fill="#414141"/>
</svg>
