<svg width="35" height="34" viewBox="0 0 35 34" fill="none" xmlns="http://www.w3.org/2000/svg">
<rect x="0.333374" width="34" height="34" rx="17" fill="#008CFF" fill-opacity="0.1"/>
<g clip-path="url(#clip0_669_2001)">
<path d="M15.5648 18.3867C11.2094 18.3867 7.67859 21.9174 7.67859 26.2729H23.451C23.451 21.9174 19.9202 18.3867 15.5648 18.3867Z" fill="white"/>
<path fill-rule="evenodd" clip-rule="evenodd" d="M17.2868 12.2334C17.332 12.2203 17.3774 12.2082 17.423 12.1971C17.109 12.649 16.8462 13.147 16.6295 13.6718C16.1595 14.8099 15.8864 16.1183 15.7767 17.4757C15.7051 17.474 15.6335 17.4731 15.5619 17.4731C14.2718 17.4731 12.9977 17.7588 11.8312 18.3098C10.6647 18.8607 9.63469 19.6632 8.81518 20.6595C8.50193 21.0403 8.55672 21.603 8.93756 21.9163C9.31839 22.2294 9.88106 22.1747 10.1943 21.7939C10.8463 21.0012 11.6658 20.3628 12.5938 19.9244C13.5219 19.4861 14.5355 19.2588 15.5619 19.2588C15.8501 19.2588 16.1374 19.2767 16.422 19.3122C16.4713 19.3233 16.5222 19.3303 16.5743 19.3329C17.2499 19.4324 17.9091 19.6312 18.5299 19.9244C19.127 20.2064 19.6791 20.5713 20.1706 21.0067C20.5397 21.3337 21.104 21.2996 21.431 20.9305C21.758 20.5614 21.7239 19.9971 21.3548 19.6701C20.737 19.1228 20.043 18.6642 19.2925 18.3098C18.7331 18.0455 18.1489 17.8423 17.5501 17.7023C17.644 16.4554 17.8869 15.3055 18.28 14.3534C18.6212 13.5271 19.06 12.884 19.5846 12.4389C20.1672 12.5943 20.6704 12.9642 20.9925 13.4754C21.3234 14.0007 21.4372 14.634 21.3099 15.2417C21.1683 15.9174 21.6013 16.5799 22.2769 16.7215C22.9526 16.8631 23.6152 16.4301 23.7567 15.7544C24.0172 14.5119 23.7843 13.2169 23.1077 12.1428C23.0377 12.0319 22.9637 11.9241 22.8857 11.8199C23.3654 11.9549 23.802 12.2202 24.1447 12.5903C24.6139 13.0968 25.4047 13.1271 25.9112 12.658C26.4177 12.1889 26.448 11.3981 25.979 10.8916C25.1146 9.95813 23.939 9.37244 22.6733 9.24447C21.9197 9.1683 21.165 9.25747 20.4595 9.49858C20.0708 8.87681 19.5451 8.34385 18.9148 7.94466C17.847 7.26839 16.5605 7.02753 15.3204 7.27172C14.643 7.40509 14.202 8.06232 14.3354 8.73967C14.4688 9.41701 15.126 9.858 15.8034 9.72461C16.1641 9.6536 16.5327 9.66573 16.8825 9.75598C16.7835 9.779 16.685 9.8048 16.587 9.83337C15.351 10.1937 14.2793 10.9736 13.5562 12.0389C13.1685 12.6101 13.3172 13.3874 13.8884 13.7752C14.4596 14.1629 15.237 14.0141 15.6247 13.4429C16.0212 12.8588 16.6089 12.4311 17.2868 12.2334ZM13.2262 23.2501C13.2262 22.757 12.8264 22.3573 12.3333 22.3573C11.8402 22.3573 11.4404 22.757 11.4404 23.2501C11.4404 24.1377 10.7209 24.8573 9.8333 24.8573C9.58519 24.8573 9.35255 24.8017 9.14499 24.7031C8.86838 24.5717 8.54371 24.5911 8.28484 24.7549C8.02597 24.9184 7.86902 25.2033 7.86902 25.5096V26.1073C7.86902 26.6004 8.26876 27.0001 8.76188 27.0001H25.9047C26.3979 27.0001 26.7976 26.6004 26.7976 26.1073V25.5096C26.7976 25.2033 26.6406 24.9184 26.3817 24.7549C26.1229 24.5911 25.7982 24.5717 25.5216 24.7031C25.314 24.8017 25.0814 24.8573 24.8333 24.8573C23.9457 24.8573 23.2262 24.1377 23.2262 23.2501C23.2262 22.757 22.8264 22.3573 22.3333 22.3573C21.8402 22.3573 21.4404 22.757 21.4404 23.2501C21.4404 24.1377 20.7209 24.8573 19.8333 24.8573C18.9457 24.8573 18.2262 24.1377 18.2262 23.2501C18.2262 22.757 17.8264 22.3573 17.3333 22.3573C16.8402 22.3573 16.4404 22.757 16.4404 23.2501C16.4404 24.1377 15.7209 24.8573 14.8333 24.8573C13.9457 24.8573 13.2262 24.1377 13.2262 23.2501Z" fill="#008CFF"/>
</g>
<defs>
<clipPath id="clip0_669_2001">
<rect width="20" height="20" fill="white" transform="translate(7.33337 7)"/>
</clipPath>
</defs>
</svg>
