<svg width="51" height="51" viewBox="0 0 51 51" fill="none" xmlns="http://www.w3.org/2000/svg">
<path d="M38.0386 34.2102C25.0386 34.6627 17.2611 34.3027 10.1361 34.2102C9.22339 34.1985 8.35136 33.8307 7.70593 33.1853C7.0605 32.5399 6.69275 31.6679 6.68109 30.7552C6.53359 24.6852 6.58609 19.0977 6.68109 11.8027C6.70359 10.0527 8.15859 8.34766 10.1361 8.34766H38.0386C39.9561 8.34766 41.4711 9.71516 41.4936 11.8027C41.5436 16.6727 41.6561 23.1502 41.4936 30.7552C41.4436 33.0827 39.9336 34.1452 38.0386 34.2102Z" fill="white"/>
<path d="M9.97339 25.4054C9.91485 25.4047 9.85704 25.3924 9.80337 25.369C9.7497 25.3456 9.70126 25.3117 9.66094 25.2693C9.62061 25.2269 9.5892 25.1768 9.56858 25.122C9.54796 25.0672 9.53854 25.0089 9.54089 24.9504C9.49339 21.9254 9.54089 15.0904 9.54089 15.0179C9.5395 14.9006 9.58392 14.7875 9.66469 14.7025C9.74547 14.6175 9.85623 14.5674 9.97339 14.5629C10.6209 14.5629 17.0009 14.5379 18.3934 14.5629C18.5103 14.568 18.6207 14.6183 18.7014 14.7032C18.782 14.788 18.8266 14.9008 18.8259 15.0179C18.8259 15.0904 18.8609 22.3104 18.8259 24.9504C18.826 25.0672 18.7812 25.1797 18.7007 25.2644C18.6202 25.3491 18.5101 25.3996 18.3934 25.4054C17.1184 25.4179 10.6159 25.4054 9.97339 25.4054ZM9.97339 14.8029C9.94622 14.8031 9.91939 14.809 9.89462 14.8201C9.86986 14.8313 9.8477 14.8475 9.82958 14.8678C9.81146 14.888 9.79776 14.9118 9.78938 14.9377C9.78099 14.9635 9.7781 14.9908 9.78089 15.0179C9.78089 15.0904 9.73339 21.9029 9.78089 24.9254C9.77997 24.9791 9.79922 25.0313 9.83486 25.0715C9.87049 25.1118 9.91992 25.1372 9.97339 25.1429C10.6209 25.1429 15.6834 25.1779 18.3934 25.1429C18.4206 25.142 18.4473 25.1355 18.4718 25.1239C18.4964 25.1124 18.5184 25.0959 18.5364 25.0755C18.5544 25.0552 18.5681 25.0314 18.5766 25.0055C18.5851 24.9797 18.5883 24.9524 18.5859 24.9254C18.6209 22.2854 18.5859 15.0904 18.5859 15.0179C18.5873 14.9642 18.5682 14.912 18.5324 14.8721C18.4966 14.8321 18.4469 14.8073 18.3934 14.8029C17.7234 14.7879 10.6159 14.8029 9.97339 14.8029Z" fill="#313131"/>
<path d="M41.5634 11.8277C41.5737 11.3557 41.4883 10.8864 41.3124 10.4482C41.1365 10.01 40.8738 9.61194 40.54 9.27794C40.2062 8.94395 39.8083 8.68094 39.3703 8.50475C38.9322 8.32856 38.463 8.24283 37.9909 8.25272H10.0884C9.22319 8.25462 8.3877 8.56873 7.73551 9.13733C7.08332 9.70593 6.65826 10.4908 6.53844 11.3477C6.51094 11.5152 6.31843 23.6777 6.48843 30.8052C6.5039 31.7483 6.88559 32.6484 7.55278 33.3151C8.21997 33.9819 9.12033 34.3629 10.0634 34.3777C11.5634 34.4002 33.1434 34.5077 37.9659 34.3777C40.0809 34.3227 41.5159 33.0652 41.5634 30.7802C41.7084 23.8702 41.5634 11.8277 41.5634 11.8277ZM10.0884 8.49272H37.9909C38.6984 8.46951 39.3935 8.68248 39.9666 9.09802C40.5397 9.51357 40.9581 10.108 41.1559 10.7877C17.2609 10.8127 8.24093 10.7877 6.94593 10.7877C7.1613 10.123 7.58106 9.5432 8.14536 9.13109C8.70966 8.71897 9.38968 8.49557 10.0884 8.49272ZM41.3234 30.7877C41.2784 32.8502 40.0734 34.0977 37.9909 34.1227C24.8659 34.2827 13.6134 34.0752 10.1109 34.1227C8.28843 34.1477 6.82343 32.6352 6.77593 30.7877C6.60093 23.6627 6.80093 11.5377 6.82593 11.3777C6.84843 11.2577 6.87344 11.1627 6.89594 11.0427C7.54594 11.0427 32.5909 11.0677 41.2534 11.0427C41.3085 11.3036 41.3403 11.5688 41.3484 11.8352C41.3234 11.8277 41.4734 23.8702 41.3234 30.7877Z" fill="#313131"/>
<path d="M48.7613 40.2565C48.7552 40.2691 48.7466 40.2804 48.7361 40.2896C48.7256 40.2988 48.7133 40.3059 48.7 40.3103C48.6868 40.3147 48.6727 40.3164 48.6588 40.3154C48.6448 40.3143 48.6312 40.3104 48.6188 40.304C48.2113 40.2315 46.5613 39.934 46.1188 39.704C46.0939 39.6896 46.0737 39.6682 46.0608 39.6424C46.0479 39.6166 46.0429 39.5876 46.0463 39.559C46.1413 38.9365 46.6213 34.8815 43.2163 32.3865C42.9225 31.6445 42.5352 30.943 42.0638 30.299C42.0436 30.2755 42.017 30.2585 41.9872 30.25C41.9574 30.2416 41.9258 30.2421 41.8963 30.2515C41.8681 30.2678 41.8474 30.2944 41.8386 30.3257C41.8297 30.3569 41.8334 30.3904 41.8488 30.419C42.3761 31.2735 42.8102 32.182 43.1438 33.129C43.4063 34.089 43.7913 35.744 43.5988 37.184C43.5924 37.2203 43.5759 37.2541 43.5513 37.2815C43.3013 37.5315 41.7038 39.2115 38.4413 39.5315C35.8738 39.7815 32.5863 38.764 31.7963 37.5315C31.7759 37.4869 31.7673 37.4379 31.7713 37.389C31.8188 37.269 32.3238 35.7815 32.5638 34.7015C32.7813 33.7165 33.2338 32.349 33.2338 30.3115C33.2338 30.2784 33.2206 30.2466 33.1972 30.2232C33.1737 30.1997 33.1419 30.1865 33.1088 30.1865C33.0756 30.1865 33.0438 30.1997 33.0204 30.2232C32.9969 30.2466 32.9838 30.2784 32.9838 30.3115C32.9534 31.3632 32.8092 32.4084 32.5538 33.429C32.5538 33.429 29.9413 36.2015 26.0038 35.179C22.3588 34.234 21.7538 29.469 21.6863 28.604C21.6841 28.5665 21.6917 28.529 21.7084 28.4953C21.725 28.4615 21.7501 28.4327 21.7813 28.4115C22.467 27.9066 23.2075 27.4805 23.9888 27.1415C24.0398 27.1182 24.0979 27.115 24.1512 27.1326C24.2045 27.1502 24.2492 27.1873 24.2763 27.2365C24.6263 27.914 25.8838 30.039 27.2513 30.069C29.2513 30.109 31.4738 27.2865 32.5288 26.494C34.6663 24.889 36.5813 24.5315 39.0538 24.934C41.3038 25.299 47.4338 26.894 49.3938 34.2415C50.3113 37.6365 49.0513 39.8465 48.7613 40.2565Z" fill="#98D1FF"/>
<path d="M24.244 28.2366L20.744 23.0541C21.6023 22.2598 22.2016 21.2255 22.4639 20.0859C22.7263 18.9463 22.6396 17.7541 22.215 16.6644C21.7905 15.5748 21.0478 14.6382 20.0837 13.9764C19.1195 13.3147 17.9784 12.9584 16.809 12.9541C13.664 12.9541 11.119 15.5691 11.119 18.7866C11.119 23.2866 15.924 26.1191 19.7565 23.7866L23.0915 29.0891C23.0915 29.0891 23.6665 29.9491 24.2665 29.5441C24.914 29.0966 24.244 28.2366 24.244 28.2366Z" fill="white"/>
<path d="M16.8289 13.5781C15.9746 13.5779 15.1333 13.7878 14.3793 14.1894C13.6252 14.591 12.9816 15.172 12.505 15.881C12.0285 16.5901 11.7338 17.4056 11.6468 18.2555C11.5598 19.1054 11.6833 19.9636 12.0063 20.7545C12.3293 21.5454 12.842 22.2447 13.499 22.7907C14.1561 23.3368 14.9374 23.7127 15.7741 23.8855C16.6108 24.0583 17.4771 24.0226 18.2967 23.7815C19.1163 23.5404 19.864 23.1014 20.4739 22.5031C23.7889 19.1081 21.3689 13.5781 16.8289 13.5781ZM20.6889 21.8856L20.6014 15.5731C21.3428 16.4533 21.7566 17.563 21.7725 18.7137C21.7885 19.8645 21.4056 20.9852 20.6889 21.8856ZM16.8289 23.7881C14.1664 23.7881 12.0089 21.5381 12.0089 18.8081C12.0089 16.0781 14.1664 13.8431 16.8289 13.8431C17.485 13.8391 18.1352 13.9667 18.7411 14.2184C19.3469 14.47 19.8962 14.8405 20.3564 15.3081L20.4514 22.1631C19.9912 22.6678 19.4322 23.0725 18.809 23.352C18.1859 23.6316 17.5119 23.78 16.8289 23.7881Z" fill="#313131"/>
<path d="M24.339 28.165L20.909 23.055C21.4795 22.4997 21.9338 21.8364 22.2454 21.1037C22.557 20.371 22.7197 19.5837 22.724 18.7875C22.7289 18.0057 22.5794 17.2306 22.284 16.5067C21.9886 15.7828 21.5531 15.1244 21.0026 14.5692C20.4521 14.0141 19.7974 13.5731 19.076 13.2716C18.3546 12.9702 17.5808 12.8141 16.799 12.8125C13.6065 12.8125 10.9915 15.475 10.9915 18.7625C10.9915 23.31 15.7415 26.2125 19.7415 23.8975L22.9915 29.1025C23.014 29.1275 23.5665 30.0375 24.334 29.5825C24.4219 29.5349 24.4966 29.466 24.5512 29.3822C24.6058 29.2984 24.6385 29.2022 24.6465 29.1025C24.7465 28.6925 24.364 28.2125 24.339 28.165ZM11.264 18.7875C11.264 15.645 13.764 13.09 16.8065 13.0775C17.5478 13.0718 18.2829 13.2129 18.9694 13.4927C19.6559 13.7724 20.2803 14.1853 20.8065 14.7075C21.3611 15.2575 21.7967 15.9156 22.0863 16.641C22.3759 17.3664 22.5132 18.1436 22.4898 18.9243C22.4663 19.705 22.2826 20.4726 21.95 21.1793C21.6174 21.886 21.1431 22.5168 20.5565 23.0325C20.2715 23.2825 19.789 23.61 19.764 23.6325C18.8852 24.1792 17.8714 24.47 16.8365 24.4725C13.759 24.4825 11.264 21.9275 11.264 18.7875ZM24.224 29.4375C23.724 29.7725 23.2415 29.0525 23.2415 29.005L19.974 23.7875C20.2392 23.6166 20.49 23.4243 20.724 23.2125L24.124 28.2875C24.124 28.3075 24.6515 29.1475 24.224 29.4375Z" fill="#313131"/>
<path d="M34.9189 9.73961C34.9189 9.80989 34.9469 9.8773 34.9966 9.92699C35.0463 9.97669 35.1137 10.0046 35.1839 10.0046C35.2542 10.0046 35.3216 9.97669 35.3713 9.92699C35.421 9.8773 35.4489 9.80989 35.4489 9.73961C35.4489 9.66933 35.421 9.60192 35.3713 9.55223C35.3216 9.50253 35.2542 9.47461 35.1839 9.47461C35.1137 9.47461 35.0463 9.50253 34.9966 9.55223C34.9469 9.60192 34.9189 9.66933 34.9189 9.73961Z" fill="#FFB949"/>
<path d="M36.3341 9.73961C36.3341 9.80989 36.362 9.8773 36.4117 9.92699C36.4614 9.97669 36.5288 10.0046 36.5991 10.0046C36.6694 10.0046 36.7368 9.97669 36.7865 9.92699C36.8362 9.8773 36.8641 9.80989 36.8641 9.73961C36.8641 9.66933 36.8362 9.60192 36.7865 9.55223C36.7368 9.50253 36.6694 9.47461 36.5991 9.47461C36.5288 9.47461 36.4614 9.50253 36.4117 9.55223C36.362 9.60192 36.3341 9.66933 36.3341 9.73961Z" fill="#FFB949"/>
<path d="M37.7264 9.73961C37.7264 9.80989 37.7544 9.8773 37.8041 9.92699C37.8538 9.97669 37.9212 10.0046 37.9914 10.0046C38.0617 10.0046 38.1291 9.97669 38.1788 9.92699C38.2285 9.8773 38.2564 9.80989 38.2564 9.73961C38.2564 9.66933 38.2285 9.60192 38.1788 9.55223C38.1291 9.50253 38.0617 9.47461 37.9914 9.47461C37.9212 9.47461 37.8538 9.50253 37.8041 9.55223C37.7544 9.60192 37.7264 9.66933 37.7264 9.73961Z" fill="#FFB949"/>
<path d="M24.0988 16.1926C24.0656 16.1926 24.0338 16.1794 24.0104 16.156C23.9869 16.1326 23.9738 16.1008 23.9738 16.0676C23.9738 16.0345 23.9869 16.0027 24.0104 15.9792C24.0338 15.9558 24.0656 15.9426 24.0988 15.9426C24.1238 15.9426 27.1938 15.9201 32.1838 15.9426C32.2169 15.9426 32.2487 15.9558 32.2721 15.9792C32.2956 16.0027 32.3088 16.0345 32.3088 16.0676C32.3088 16.1008 32.2956 16.1326 32.2721 16.156C32.2487 16.1794 32.2169 16.1926 32.1838 16.1926C27.1938 16.1576 24.1238 16.1926 24.0988 16.1926Z" fill="#FFB949"/>
<path d="M33.1909 19.9824H25.1534C25.1203 19.9824 25.0885 19.9693 25.0651 19.9458C25.0416 19.9224 25.0284 19.8906 25.0284 19.8574C25.0284 19.8243 25.0416 19.7925 25.0651 19.769C25.0885 19.7456 25.1203 19.7324 25.1534 19.7324H33.1909C33.2241 19.7324 33.2559 19.7456 33.2793 19.769C33.3028 19.7925 33.3159 19.8243 33.3159 19.8574C33.3159 19.8906 33.3028 19.9224 33.2793 19.9458C33.2559 19.9693 33.2241 19.9824 33.1909 19.9824Z" fill="#FFB949"/>
<path d="M23.4984 23.7275C23.4653 23.7275 23.4335 23.7144 23.41 23.6909C23.3866 23.6675 23.3734 23.6357 23.3734 23.6025C23.3734 23.5694 23.3866 23.5376 23.41 23.5142C23.4335 23.4907 23.4653 23.4775 23.4984 23.4775H33.6709C33.7041 23.4775 33.7359 23.4907 33.7593 23.5142C33.7827 23.5376 33.7959 23.5694 33.7959 23.6025C33.7959 23.6357 33.7827 23.6675 33.7593 23.6909C33.7359 23.7144 33.7041 23.7275 33.6709 23.7275H23.4984Z" fill="#FFB949"/>
<path d="M10.8086 27.1318C10.7754 27.1318 10.7436 27.1186 10.7202 27.0952C10.6968 27.0717 10.6836 27.0399 10.6836 27.0068C10.6836 26.9736 10.6968 26.9418 10.7202 26.9184C10.7436 26.8949 10.7754 26.8818 10.8086 26.8818C10.8561 26.8818 14.6211 26.8468 19.0586 26.8818C19.0917 26.8818 19.1235 26.8949 19.147 26.9184C19.1704 26.9418 19.1836 26.9736 19.1836 27.0068C19.1836 27.0399 19.1704 27.0717 19.147 27.0952C19.1235 27.1186 19.0917 27.1318 19.0586 27.1318C14.6211 27.0968 10.8561 27.1318 10.8086 27.1318Z" fill="#FFB949"/>
<path d="M19.0612 29.537C19.0137 29.537 14.8862 29.502 10.8112 29.537C10.778 29.537 10.7462 29.5239 10.7228 29.5004C10.6993 29.477 10.6862 29.4452 10.6862 29.412C10.6862 29.3789 10.6993 29.3471 10.7228 29.3237C10.7462 29.3002 10.778 29.287 10.8112 29.287C14.8887 29.252 19.0162 29.287 19.0612 29.287C19.0943 29.287 19.1261 29.3002 19.1495 29.3237C19.173 29.3471 19.1862 29.3789 19.1862 29.412C19.1862 29.4452 19.173 29.477 19.1495 29.5004C19.1261 29.5239 19.0943 29.537 19.0612 29.537Z" fill="#FFB949"/>
<path d="M9.80147 26.8201C9.84897 26.7726 9.84897 26.7026 9.80147 26.6776C9.75397 26.6526 9.68147 26.6301 9.65647 26.6776L9.40647 26.9276C9.32645 26.8321 9.23865 26.7435 9.14397 26.6626C9.09397 26.6151 9.02397 26.6151 8.99897 26.6626C8.97397 26.7101 8.95147 26.7826 8.99897 26.8076L9.26397 27.0576C9.17923 27.1589 9.08176 27.2488 8.97397 27.3251C8.86647 27.4326 9.03397 27.5526 9.11897 27.4701C9.11897 27.4701 9.23897 27.3726 9.40647 27.2051C9.47897 27.2776 9.55147 27.3726 9.62147 27.4551C9.64157 27.4711 9.6654 27.4819 9.69075 27.4862C9.71611 27.4906 9.74215 27.4885 9.76647 27.4801C9.81397 27.4551 9.81397 27.3826 9.79147 27.3351C9.72455 27.2423 9.65191 27.1538 9.57397 27.0701C9.64204 26.98 9.71819 26.8963 9.80147 26.8201Z" fill="#FFB949"/>
<path d="M9.39389 29.3876C9.36882 29.3865 9.34506 29.3762 9.32709 29.3587C9.30912 29.3412 9.2982 29.3177 9.29639 29.2926V28.3076C9.29803 28.2935 9.30243 28.2799 9.30935 28.2675C9.31627 28.255 9.32557 28.2441 9.33671 28.2353C9.34785 28.2265 9.36063 28.2199 9.3743 28.216C9.38797 28.2122 9.40227 28.211 9.41639 28.2126C9.4305 28.2143 9.44416 28.2187 9.45657 28.2256C9.46899 28.2325 9.47992 28.2418 9.48874 28.253C9.49756 28.2641 9.5041 28.2769 9.50799 28.2905C9.51187 28.3042 9.51303 28.3185 9.51139 28.3326V29.3176C9.48166 29.3541 9.44006 29.3788 9.39389 29.3876Z" fill="#FFB949"/>
<path d="M9.27356 29.6271C9.27356 29.6523 9.28356 29.6764 9.30135 29.6942C9.31915 29.712 9.34328 29.722 9.36845 29.722C9.39361 29.722 9.41775 29.712 9.43554 29.6942C9.45334 29.6764 9.46333 29.6523 9.46333 29.6271C9.46333 29.6019 9.45334 29.5778 9.43554 29.56C9.41775 29.5422 9.39361 29.5322 9.36845 29.5322C9.34328 29.5322 9.31915 29.5422 9.30135 29.56C9.28356 29.5778 9.27356 29.6019 9.27356 29.6271Z" fill="#FFB949"/>
<path d="M18.6765 17.4176C18.857 17.2087 18.9595 16.9436 18.9665 16.6676C18.9653 16.381 18.8533 16.106 18.654 15.9001L19.109 15.5876C19.1565 15.5401 19.1815 15.4676 19.134 15.4201C19.0865 15.3726 19.014 15.3476 18.9665 15.3976L18.474 15.7626C18.2666 15.6048 18.0144 15.5172 17.754 15.5126L17.6815 14.9126C17.6864 14.8921 17.6864 14.8708 17.6814 14.8503C17.6765 14.8299 17.6667 14.8109 17.653 14.795C17.6392 14.779 17.6219 14.7666 17.6024 14.7587C17.5828 14.7508 17.5617 14.7477 17.5408 14.7496C17.5198 14.7514 17.4996 14.7583 17.4818 14.7695C17.464 14.7808 17.4492 14.7961 17.4385 14.8143C17.4278 14.8324 17.4216 14.8528 17.4204 14.8738C17.4191 14.8948 17.4229 14.9158 17.4315 14.9351L17.474 15.5226C17.1903 15.5492 16.9248 15.6738 16.7231 15.875C16.5214 16.0763 16.3962 16.3415 16.369 16.6251C15.5621 16.6347 14.7907 16.9583 14.2185 17.5273C13.6462 18.0962 13.3182 18.8658 13.304 19.6726C13.3076 20.0765 13.3923 20.4755 13.5529 20.8461C13.7135 21.2167 13.9468 21.5513 14.239 21.8301C14.3365 21.9251 14.5515 21.8301 14.814 21.6401C15.1015 22.0701 15.654 22.6001 16.759 22.1901C16.829 22.5026 16.9265 22.6901 17.009 22.6701C18.644 22.2501 19.649 21.3026 19.649 19.6251C19.6484 19.2099 19.5618 18.7993 19.3944 18.4193C19.227 18.0393 18.9825 17.6982 18.6765 17.4176ZM14.974 21.4226C15.462 20.9662 15.9188 20.4776 16.3415 19.9601C16.3415 19.9601 16.4865 21.1126 16.654 21.9026C16.3648 22.0479 16.0315 22.0792 15.7203 21.9903C15.4091 21.9014 15.1427 21.6988 14.974 21.4226ZM16.5815 16.5776C16.618 16.3214 16.7491 16.0882 16.949 15.924C17.1489 15.7597 17.4031 15.6762 17.6615 15.6901C18.5415 15.6901 19.079 16.5976 18.5015 17.2726C17.9521 16.847 17.2834 16.604 16.589 16.5776H16.5815Z" fill="#FFB949"/>
<path d="M17.8611 20.8732C17.8611 20.9242 17.8814 20.9732 17.9175 21.0093C17.9536 21.0454 18.0025 21.0657 18.0536 21.0657C18.1046 21.0657 18.1536 21.0454 18.1897 21.0093C18.2258 20.9732 18.2461 20.9242 18.2461 20.8732C18.2461 20.8221 18.2258 20.7731 18.1897 20.737C18.1536 20.7009 18.1046 20.6807 18.0536 20.6807C18.0025 20.6807 17.9536 20.7009 17.9175 20.737C17.8814 20.7731 17.8611 20.8221 17.8611 20.8732Z" fill="white"/>
<path d="M18.7985 18.5669C18.7985 18.6113 18.8161 18.6539 18.8475 18.6854C18.8789 18.7168 18.9215 18.7344 18.966 18.7344C19.0104 18.7344 19.053 18.7168 19.0844 18.6854C19.1158 18.6539 19.1335 18.6113 19.1335 18.5669C19.1335 18.5225 19.1158 18.4799 19.0844 18.4485C19.053 18.4171 19.0104 18.3994 18.966 18.3994C18.9215 18.3994 18.8789 18.4171 18.8475 18.4485C18.8161 18.4799 18.7985 18.5225 18.7985 18.5669Z" fill="white"/>
<path d="M16.9264 18.9048C16.9264 18.9492 16.944 18.9918 16.9755 19.0232C17.0069 19.0547 17.0495 19.0723 17.0939 19.0723C17.1383 19.0723 17.1809 19.0547 17.2123 19.0232C17.2437 18.9918 17.2614 18.9492 17.2614 18.9048C17.2614 18.8604 17.2437 18.8178 17.2123 18.7864C17.1809 18.755 17.1383 18.7373 17.0939 18.7373C17.0495 18.7373 17.0069 18.755 16.9755 18.7864C16.944 18.8178 16.9264 18.8604 16.9264 18.9048Z" fill="white"/>
<path d="M16.3013 17.1997C16.3013 17.2441 16.3189 17.2868 16.3503 17.3182C16.3817 17.3496 16.4243 17.3672 16.4688 17.3672C16.5132 17.3672 16.5558 17.3496 16.5872 17.3182C16.6186 17.2868 16.6363 17.2441 16.6363 17.1997C16.6363 17.1553 16.6186 17.1127 16.5872 17.0813C16.5558 17.0499 16.5132 17.0322 16.4688 17.0322C16.4243 17.0322 16.3817 17.0499 16.3503 17.0813C16.3189 17.1127 16.3013 17.1553 16.3013 17.1997Z" fill="white"/>
<path d="M14.6239 18.52C14.6239 18.5645 14.6415 18.6071 14.673 18.6385C14.7044 18.6699 14.747 18.6875 14.7914 18.6875C14.8358 18.6875 14.8784 18.6699 14.9098 18.6385C14.9413 18.6071 14.9589 18.5645 14.9589 18.52C14.9589 18.4756 14.9413 18.433 14.9098 18.4016C14.8784 18.3702 14.8358 18.3525 14.7914 18.3525C14.747 18.3525 14.7044 18.3702 14.673 18.4016C14.6415 18.433 14.6239 18.4756 14.6239 18.52Z" fill="white"/>
<path d="M14.7185 20.4878C14.7185 20.5322 14.7362 20.5748 14.7676 20.6063C14.799 20.6377 14.8416 20.6553 14.886 20.6553C14.9304 20.6553 14.973 20.6377 15.0044 20.6063C15.0359 20.5748 15.0535 20.5322 15.0535 20.4878C15.0535 20.4434 15.0359 20.4008 15.0044 20.3694C14.973 20.338 14.9304 20.3203 14.886 20.3203C14.8416 20.3203 14.799 20.338 14.7676 20.3694C14.7362 20.4008 14.7185 20.4434 14.7185 20.4878Z" fill="white"/>
<path d="M6.29846 35.0502C6.92096 34.8352 7.83346 34.4502 7.83346 34.4502C7.83346 34.4502 7.49596 35.4502 7.33346 36.0827C7.06729 36.0592 6.81784 35.9429 6.62867 35.7542C6.43949 35.5655 6.32262 35.3163 6.29846 35.0502Z" fill="white"/>
<path d="M11.1438 31.9803L10.7113 32.1228C10.5914 31.9105 10.4065 31.7422 10.1838 31.6428L10.3038 31.1153C10.3105 31.0996 10.3131 31.0826 10.3115 31.0657C10.3099 31.0488 10.3042 31.0325 10.2947 31.0184C10.2853 31.0043 10.2725 30.9927 10.2575 30.9847C10.2426 30.9768 10.2258 30.9727 10.2088 30.9728C10.193 30.9663 10.1759 30.9637 10.1589 30.9653C10.1419 30.9669 10.1256 30.9727 10.1113 30.982C10.097 30.9914 10.0852 31.0041 10.0769 31.019C10.0687 31.034 10.0642 31.0507 10.0638 31.0678L9.94383 31.5953C9.7205 31.5535 9.48981 31.5787 9.28075 31.6677C9.0717 31.7566 8.89359 31.9054 8.76883 32.0953C8.41882 31.9617 8.04353 31.9074 7.67002 31.9364C7.2965 31.9654 6.93406 32.0768 6.60883 32.2628C6.12305 32.5399 5.76251 32.9933 5.60194 33.529C5.44137 34.0647 5.49307 34.6416 5.74633 35.1403C5.77133 35.1903 5.93883 35.1653 6.15383 35.0928C6.20133 36.0053 6.90383 36.1728 7.28133 36.1978C7.23383 36.3878 7.20883 36.5078 7.23383 36.5328C7.42633 36.7253 8.07383 36.9653 8.98383 36.6053C10.1363 36.1503 10.6413 34.8303 10.2813 33.6778C10.4112 33.6086 10.5252 33.513 10.616 33.3972C10.7069 33.2814 10.7725 33.1479 10.8088 33.0053C10.8675 32.7934 10.8675 32.5696 10.8088 32.3578L11.2163 32.2153C11.2345 32.2131 11.252 32.207 11.2676 32.1973C11.2831 32.1876 11.2964 32.1746 11.3063 32.1593C11.3163 32.1439 11.3228 32.1266 11.3253 32.1084C11.3279 32.0903 11.3264 32.0718 11.321 32.0543C11.3156 32.0368 11.3064 32.0207 11.2941 32.0071C11.2818 31.9936 11.2666 31.9829 11.2497 31.9758C11.2328 31.9687 11.2146 31.9655 11.1963 31.9663C11.178 31.967 11.1601 31.9718 11.1438 31.9803ZM6.41883 35.0028C7.01633 34.7878 7.83383 34.4278 7.83383 34.4278C7.83383 34.4278 7.52133 35.3153 7.35383 35.9278C7.10738 35.9284 6.87068 35.8315 6.69548 35.6582C6.52028 35.4849 6.42081 35.2492 6.41883 35.0028ZM10.5913 32.9403C10.5292 33.1481 10.3931 33.3259 10.2088 33.4403C10.1809 33.3739 10.1484 33.3095 10.1113 33.2478C9.85714 32.8003 9.47254 32.441 9.00883 32.2178C9.07314 32.1004 9.17412 32.0073 9.29633 31.9528C9.39539 31.8904 9.50652 31.8497 9.62242 31.8333C9.73832 31.817 9.85638 31.8253 9.96883 31.8578C10.0836 31.8831 10.1918 31.9321 10.2865 32.0017C10.3812 32.0712 10.4604 32.1598 10.519 32.2616C10.5776 32.3635 10.6143 32.4765 10.6267 32.5933C10.6392 32.7102 10.6271 32.8283 10.5913 32.9403Z" fill="#FFB949"/>
<path d="M8.38635 35.8657C8.38635 35.9102 8.404 35.9528 8.43541 35.9842C8.46682 36.0156 8.50943 36.0332 8.55385 36.0332C8.59828 36.0332 8.64088 36.0156 8.67229 35.9842C8.70371 35.9528 8.72135 35.9102 8.72135 35.8657C8.72135 35.8213 8.70371 35.7787 8.67229 35.7473C8.64088 35.7159 8.59828 35.6982 8.55385 35.6982C8.50943 35.6982 8.46682 35.7159 8.43541 35.7473C8.404 35.7787 8.38635 35.8213 8.38635 35.8657Z" fill="white"/>
<path d="M6.1062 34.355C6.1062 34.3994 6.12385 34.442 6.15526 34.4734C6.18667 34.5049 6.22928 34.5225 6.2737 34.5225C6.31812 34.5225 6.36073 34.5049 6.39214 34.4734C6.42355 34.442 6.4412 34.3994 6.4412 34.355C6.4412 34.3106 6.42355 34.268 6.39214 34.2366C6.36073 34.2051 6.31812 34.1875 6.2737 34.1875C6.22928 34.1875 6.18667 34.2051 6.15526 34.2366C6.12385 34.268 6.1062 34.3106 6.1062 34.355Z" fill="white"/>
<path d="M7.90588 32.5552C7.90588 32.5996 7.92353 32.6422 7.95494 32.6736C7.98636 32.705 8.02896 32.7227 8.07338 32.7227C8.11781 32.7227 8.16041 32.705 8.19182 32.6736C8.22324 32.6422 8.24088 32.5996 8.24088 32.5552C8.24088 32.5108 8.22324 32.4682 8.19182 32.4368C8.16041 32.4053 8.11781 32.3877 8.07338 32.3877C8.02896 32.3877 7.98636 32.4053 7.95494 32.4368C7.92353 32.4682 7.90588 32.5108 7.90588 32.5552Z" fill="white"/>
<path d="M8.24097 33.898C8.24097 33.92 8.2453 33.9417 8.25372 33.9621C8.26213 33.9824 8.27447 34.0009 8.29003 34.0164C8.30558 34.032 8.32405 34.0443 8.34437 34.0527C8.36469 34.0611 8.38647 34.0655 8.40847 34.0655C8.43046 34.0655 8.45224 34.0611 8.47257 34.0527C8.49289 34.0443 8.51135 34.032 8.52691 34.0164C8.54246 34.0009 8.5548 33.9824 8.56322 33.9621C8.57163 33.9417 8.57597 33.92 8.57597 33.898C8.57597 33.876 8.57163 33.8542 8.56322 33.8339C8.5548 33.8135 8.54246 33.7951 8.52691 33.7795C8.51135 33.764 8.49289 33.7516 8.47257 33.7432C8.45224 33.7348 8.43046 33.7305 8.40847 33.7305C8.38647 33.7305 8.36469 33.7348 8.34437 33.7432C8.32405 33.7516 8.30558 33.764 8.29003 33.7795C8.27447 33.7951 8.26213 33.8135 8.25372 33.8339C8.2453 33.8542 8.24097 33.876 8.24097 33.898Z" fill="white"/>
<path d="M9.68091 34.6177C9.68091 34.6621 9.69855 34.7047 9.72997 34.7361C9.76138 34.7675 9.80398 34.7852 9.84841 34.7852C9.89283 34.7852 9.93544 34.7675 9.96685 34.7361C9.99826 34.7047 10.0159 34.6621 10.0159 34.6177C10.0159 34.5733 9.99826 34.5307 9.96685 34.4993C9.93544 34.4678 9.89283 34.4502 9.84841 34.4502C9.80398 34.4502 9.76138 34.4678 9.72997 34.4993C9.69855 34.5307 9.68091 34.5733 9.68091 34.6177Z" fill="white"/>
<path d="M6.60876 33.0601C6.60876 33.1045 6.62641 33.1471 6.65782 33.1785C6.68924 33.2099 6.73184 33.2276 6.77626 33.2276C6.82069 33.2276 6.86329 33.2099 6.8947 33.1785C6.92612 33.1471 6.94376 33.1045 6.94376 33.0601C6.94376 33.0157 6.92612 32.9731 6.8947 32.9416C6.86329 32.9102 6.82069 32.8926 6.77626 32.8926C6.73184 32.8926 6.68924 32.9102 6.65782 32.9416C6.62641 32.9731 6.60876 33.0157 6.60876 33.0601Z" fill="white"/>
<path d="M8.02597 10.9148C7.74597 12.4723 6.56097 13.3173 4.88097 13.0273C3.25097 12.7424 2.13097 11.2974 2.38097 9.73985C2.50097 9.04235 5.90847 10.6499 5.90847 10.6499C5.90847 10.6499 3.74847 7.91485 4.13347 7.57985C4.51847 7.24485 5.33347 7.31485 5.81347 7.43735C6.54917 7.63721 7.18378 8.10451 7.59302 8.74773C8.00225 9.39095 8.15665 10.1638 8.02597 10.9148Z" fill="white"/>
<path d="M9.60864 12.33C9.60975 12.3139 9.60741 12.2978 9.60177 12.2828C9.59613 12.2677 9.58733 12.254 9.57596 12.2426C9.56459 12.2313 9.55091 12.2225 9.53585 12.2168C9.52078 12.2112 9.50469 12.2089 9.48864 12.21L8.97364 12.1875C8.99019 11.9193 8.92276 11.6526 8.78072 11.4246C8.63869 11.1965 8.42911 11.0184 8.18114 10.915C8.31288 10.1357 8.14663 9.33536 7.71541 8.67302C7.2842 8.01068 6.61959 7.53481 5.85364 7.33997C5.35364 7.21997 4.46364 7.17247 4.07864 7.53247C3.93614 7.65247 3.88614 7.89247 4.43864 8.80497C4.24901 8.87069 4.078 8.98111 3.94006 9.12688C3.80212 9.27266 3.7013 9.4495 3.64614 9.64247C3.11864 9.49997 2.66114 9.42247 2.44864 9.52247C2.4052 9.5428 2.36716 9.57309 2.33763 9.61088C2.30809 9.64867 2.28788 9.6929 2.27864 9.73997C1.97364 11.3225 3.15364 12.865 4.88114 13.17C5.49465 13.298 6.13285 13.2307 6.70614 12.9775C6.90084 13.1622 7.14313 13.289 7.40586 13.3438C7.66858 13.3985 7.94137 13.379 8.19364 13.2875L8.45614 13.7425C8.47765 13.7642 8.50425 13.7801 8.53352 13.7888C8.56278 13.7976 8.59377 13.7988 8.62364 13.7925C8.69614 13.7675 8.69614 13.6725 8.67364 13.6225L8.40864 13.1675C8.66141 12.987 8.83929 12.7202 8.90864 12.4175L9.45864 12.44C9.56114 12.45 9.60864 12.4025 9.60864 12.33ZM2.50614 9.76247C2.50614 9.73997 2.50614 9.73997 2.53114 9.71497C2.67891 9.66632 2.83838 9.66632 2.98614 9.71497C3.70614 9.83497 5.00864 10.3475 5.84114 10.7475C5.86542 10.7561 5.89152 10.7583 5.91692 10.754C5.94232 10.7496 5.96616 10.7387 5.98614 10.7225C6.03364 10.675 6.03364 10.6025 5.98614 10.58C5.98614 10.58 5.48614 9.92997 5.00114 9.23497C4.09114 7.91497 4.22364 7.69997 4.22364 7.69997C4.53364 7.44997 5.32614 7.46247 5.78114 7.57997C6.48563 7.77499 7.09335 8.22318 7.4878 8.83861C7.88225 9.45404 8.03567 10.1934 7.91864 10.915C7.65114 12.415 6.47614 13.205 4.91864 12.93C3.36114 12.655 2.24364 11.2275 2.50614 9.76247Z" fill="#FFB949"/>
<path d="M5.43347 8.56461C5.43347 8.62163 5.45612 8.67632 5.49644 8.71664C5.53676 8.75696 5.59145 8.77961 5.64847 8.77961C5.70549 8.77961 5.76018 8.75696 5.8005 8.71664C5.84082 8.67632 5.86347 8.62163 5.86347 8.56461C5.86347 8.50759 5.84082 8.4529 5.8005 8.41258C5.76018 8.37226 5.70549 8.34961 5.64847 8.34961C5.59145 8.34961 5.53676 8.37226 5.49644 8.41258C5.45612 8.4529 5.43347 8.50759 5.43347 8.56461Z" fill="#FFB949"/>
<path d="M7.06384 9.52258C7.06384 9.54786 7.06882 9.57289 7.0785 9.59624C7.08817 9.6196 7.10235 9.64082 7.12022 9.6587C7.1381 9.67657 7.15932 9.69075 7.18268 9.70043C7.20603 9.7101 7.23106 9.71508 7.25634 9.71508C7.28162 9.71508 7.30665 9.7101 7.33001 9.70043C7.35336 9.69075 7.37459 9.67657 7.39246 9.6587C7.41034 9.64082 7.42452 9.6196 7.43419 9.59624C7.44386 9.57289 7.44884 9.54786 7.44884 9.52258C7.44884 9.4973 7.44386 9.47227 7.43419 9.44891C7.42452 9.42556 7.41034 9.40434 7.39246 9.38646C7.37459 9.36859 7.35336 9.35441 7.33001 9.34473C7.30665 9.33506 7.28162 9.33008 7.25634 9.33008C7.23106 9.33008 7.20603 9.33506 7.18268 9.34473C7.15932 9.35441 7.1381 9.36859 7.12022 9.38646C7.10235 9.40434 7.08817 9.42556 7.0785 9.44891C7.06882 9.47227 7.06384 9.4973 7.06384 9.52258Z" fill="#FFB949"/>
<path d="M5.74634 12.3293C5.74634 12.3863 5.76899 12.441 5.80931 12.4813C5.84963 12.5216 5.90432 12.5443 5.96134 12.5443C6.01836 12.5443 6.07305 12.5216 6.11337 12.4813C6.15369 12.441 6.17634 12.3863 6.17634 12.3293C6.17634 12.2722 6.15369 12.2176 6.11337 12.1772C6.07305 12.1369 6.01836 12.1143 5.96134 12.1143C5.90432 12.1143 5.84963 12.1369 5.80931 12.1772C5.76899 12.2176 5.74634 12.2722 5.74634 12.3293Z" fill="#FFB949"/>
<path d="M4.13892 11.9699C4.13892 12.0269 4.16157 12.0816 4.20189 12.1219C4.24221 12.1622 4.29689 12.1849 4.35392 12.1849C4.41094 12.1849 4.46562 12.1622 4.50594 12.1219C4.54626 12.0816 4.56892 12.0269 4.56892 11.9699C4.56892 11.9129 4.54626 11.8582 4.50594 11.8179C4.46562 11.7775 4.41094 11.7549 4.35392 11.7549C4.29689 11.7549 4.24221 11.7775 4.20189 11.8179C4.16157 11.8582 4.13892 11.9129 4.13892 11.9699Z" fill="#FFB949"/>
<path d="M3.2511 10.5548C3.2511 10.6119 3.27375 10.6666 3.31407 10.7069C3.35439 10.7472 3.40908 10.7698 3.4661 10.7698C3.52312 10.7698 3.57781 10.7472 3.61813 10.7069C3.65845 10.6666 3.6811 10.6119 3.6811 10.5548C3.6811 10.4978 3.65845 10.4431 3.61813 10.4028C3.57781 10.3625 3.52312 10.3398 3.4661 10.3398C3.40908 10.3398 3.35439 10.3625 3.31407 10.4028C3.27375 10.4431 3.2511 10.4978 3.2511 10.5548Z" fill="#FFB949"/>
<path d="M6.51367 10.9621C6.51367 10.9903 6.51923 11.0183 6.53004 11.0443C6.54084 11.0704 6.55668 11.0941 6.57664 11.1141C6.59661 11.1341 6.62031 11.1499 6.6464 11.1607C6.67248 11.1715 6.70044 11.1771 6.72867 11.1771C6.75691 11.1771 6.78486 11.1715 6.81095 11.1607C6.83703 11.1499 6.86074 11.1341 6.8807 11.1141C6.90066 11.0941 6.9165 11.0704 6.92731 11.0443C6.93811 11.0183 6.94367 10.9903 6.94367 10.9621C6.94367 10.9338 6.93811 10.9059 6.92731 10.8798C6.9165 10.8537 6.90066 10.83 6.8807 10.81C6.86074 10.7901 6.83703 10.7742 6.81095 10.7634C6.78486 10.7526 6.75691 10.7471 6.72867 10.7471C6.70044 10.7471 6.67248 10.7526 6.6464 10.7634C6.62031 10.7742 6.59661 10.7901 6.57664 10.81C6.55668 10.83 6.54084 10.8537 6.53004 10.8798C6.51923 10.9059 6.51367 10.9338 6.51367 10.9621Z" fill="#FFB949"/>
<path d="M36.311 24.9971C36.311 24.9971 35.256 25.0946 35.016 25.2621C35.016 25.2621 35.516 27.0121 35.766 27.4446C35.766 27.4446 37.086 25.8371 37.3985 25.8121C37.3985 25.8121 38.236 27.7321 38.381 28.0196C38.381 28.0196 40.0135 26.4371 40.3235 25.3821C39.8809 25.2355 39.4213 25.1464 38.956 25.1171C38.956 25.1171 37.151 25.9571 36.311 24.9971Z" fill="white"/>
<path d="M40.3661 25.2374C39.9478 25.1264 39.5227 25.0429 39.0936 24.9874C39.0594 24.9883 39.0266 25.0006 39.0003 25.0224C38.974 25.0441 38.9558 25.0741 38.9486 25.1074C38.9499 25.1414 38.9623 25.174 38.984 25.2002C39.0057 25.2264 39.0354 25.2447 39.0686 25.2524C39.4325 25.291 39.7933 25.3544 40.1486 25.4424C39.6608 26.2953 39.0816 27.0925 38.4211 27.8199C38.2786 27.4824 37.7736 26.4024 37.5336 25.7324C37.5058 25.6872 37.4635 25.6528 37.4136 25.6349C37.372 25.6311 37.3302 25.6398 37.2936 25.6599C36.7271 26.1162 36.2265 26.6488 35.8061 27.2424C35.6636 26.8599 35.3511 26.0424 35.0861 25.3249C35.4447 25.2098 35.8155 25.1368 36.1911 25.1074C36.2115 25.1121 36.2329 25.1118 36.2532 25.1066C36.2736 25.1014 36.2924 25.0914 36.3082 25.0775C36.3239 25.0636 36.3361 25.0462 36.3438 25.0266C36.3515 25.007 36.3544 24.9859 36.3523 24.965C36.3502 24.9441 36.3432 24.924 36.3318 24.9063C36.3204 24.8887 36.305 24.874 36.2868 24.8635C36.2686 24.853 36.2481 24.8469 36.2271 24.8459C36.2062 24.8448 36.1852 24.8488 36.1661 24.8574C35.2786 24.9524 34.8961 25.1074 34.8711 25.1449C34.8416 25.1603 34.8183 25.1853 34.8051 25.2158C34.7919 25.2463 34.7896 25.2804 34.7986 25.3124C35.1436 26.3124 35.6386 27.5424 35.6386 27.5624C35.6386 27.5824 35.7836 27.7074 35.8536 27.5874C36.2562 26.9647 36.75 26.406 37.3186 25.9299C37.5686 26.6274 38.1586 27.9474 38.2286 28.0674C38.262 28.0964 38.3043 28.1131 38.3486 28.1149C38.6386 28.0899 39.9336 26.3649 40.4136 25.4024C40.5086 25.3099 40.4136 25.2624 40.3661 25.2374Z" fill="#313131"/>
<path d="M35.1111 16.0505C35.1111 16.0505 34.9786 18.4705 34.8961 19.1455C34.8136 19.8205 34.1986 22.768 36.6236 23.538C36.6236 23.538 36.5986 24.473 36.1661 25.038C36.1661 25.038 36.5036 25.788 37.6661 25.8055C38.8286 25.823 39.0561 25.158 39.0561 25.158C38.8797 24.6102 38.8512 24.0254 38.9736 23.463C38.9736 23.463 40.3661 23.008 40.8461 20.368C40.8461 20.368 41.7811 20.4405 41.9486 19.618C41.9486 19.618 41.9011 18.538 40.5336 19.0655C40.418 19.0968 40.2967 19.0999 40.1797 19.0747C40.0627 19.0495 39.9535 18.9966 39.8611 18.9205C39.4836 18.5555 39.9536 17.338 39.5961 16.523C38.9911 15.1405 35.3036 14.443 35.1111 16.0505Z" fill="white"/>
<path d="M35.0407 20.18C35.0876 20.1859 35.1351 20.1838 35.1804 20.1738C35.2257 20.1637 35.268 20.1459 35.3048 20.1214C35.3417 20.0968 35.3723 20.066 35.3951 20.0307C35.4178 19.9953 35.4322 19.9562 35.4374 19.9155C35.4426 19.8748 35.4384 19.8333 35.4253 19.7934C35.4121 19.7535 35.3902 19.716 35.3607 19.6829C35.3312 19.6499 35.2947 19.6221 35.2534 19.601C35.2121 19.5799 35.1666 19.5659 35.1197 19.56C35.0728 19.554 35.0254 19.5561 34.9801 19.5661C34.9348 19.5762 34.8925 19.594 34.8557 19.6186C34.8188 19.6431 34.7882 19.674 34.7654 19.7093C34.7427 19.7446 34.7283 19.7837 34.7231 19.8244C34.7179 19.8652 34.722 19.9066 34.7352 19.9465C34.7483 19.9864 34.7703 20.024 34.7998 20.057C34.8293 20.09 34.8657 20.1178 34.9071 20.1389C34.9484 20.1601 34.9938 20.174 35.0407 20.18Z" fill="#FCCAC2"/>
<path d="M37.7987 20.2227C37.7987 20.2637 37.8092 20.3043 37.8297 20.3422C37.8502 20.3802 37.8802 20.4146 37.9181 20.4436C37.9559 20.4726 38.0008 20.4957 38.0503 20.5114C38.0997 20.5271 38.1527 20.5352 38.2062 20.5352C38.2597 20.5352 38.3127 20.5271 38.3621 20.5114C38.4116 20.4957 38.4565 20.4726 38.4944 20.4436C38.5322 20.4146 38.5622 20.3802 38.5827 20.3422C38.6032 20.3043 38.6137 20.2637 38.6137 20.2227C38.6137 20.1816 38.6032 20.141 38.5827 20.1031C38.5622 20.0652 38.5322 20.0307 38.4944 20.0017C38.4565 19.9727 38.4116 19.9496 38.3621 19.9339C38.3127 19.9182 38.2597 19.9102 38.2062 19.9102C38.1527 19.9102 38.0997 19.9182 38.0503 19.9339C38.0008 19.9496 37.9559 19.9727 37.9181 20.0017C37.8802 20.0307 37.8502 20.0652 37.8297 20.1031C37.8092 20.141 37.7987 20.1816 37.7987 20.2227Z" fill="#FCCAC2"/>
<path d="M41.9964 19.1667C42.5239 18.4167 42.6439 17.5117 42.5239 16.5042C42.4039 15.4967 41.2239 13.4342 38.6389 12.9292C36.0539 12.4242 34.5364 13.3867 34.1039 14.6092C33.8414 15.3592 34.1764 15.9992 34.9189 16.3842C34.92 17.1292 34.8799 17.8737 34.7989 18.6142C34.7989 18.9542 34.1514 21.4792 35.2789 22.8142C35.6012 23.1869 36.028 23.4542 36.5039 23.5817C36.4846 24.0603 36.3351 24.5245 36.0714 24.9242C36.0515 24.9526 36.0426 24.9873 36.0464 25.0217C36.1664 25.5017 36.9114 25.8117 37.5589 25.8842H37.8089C38.4564 25.8842 38.9364 25.6342 39.1289 25.1892C39.1289 25.1642 39.1514 25.1417 39.1289 25.1167C39.0221 24.5875 39.0052 24.0441 39.0789 23.5092C39.7515 23.1413 40.2709 22.5457 40.5439 21.8292C40.7589 21.7342 41.4314 21.3292 41.6714 20.2217C41.7323 20.1805 41.7885 20.1328 41.8389 20.0792C41.9419 19.9538 42.0105 19.8038 42.0382 19.6438C42.0658 19.4838 42.0514 19.3195 41.9964 19.1667ZM41.6839 19.9167C41.3964 20.2042 40.7964 20.2267 40.7964 20.2267C40.7804 20.226 40.7645 20.2287 40.7496 20.2344C40.7348 20.2402 40.7212 20.249 40.7099 20.2603C40.6987 20.2716 40.6898 20.2851 40.6841 20.3C40.6783 20.3149 40.6757 20.3308 40.6764 20.3467C40.4864 22.6742 39.0214 23.2992 38.9489 23.3217C38.8764 23.3442 38.8789 23.3717 38.8789 23.4192C38.7911 23.9933 38.8072 24.5784 38.9264 25.1467C38.6614 25.6742 37.9414 25.6742 37.6314 25.6467C37.0314 25.5992 36.4789 25.3117 36.3339 25.0242C36.5855 24.6005 36.7337 24.1235 36.7664 23.6317C36.9339 23.6567 37.1264 23.6792 37.3189 23.7042C37.3528 23.7037 37.3855 23.6914 37.4115 23.6696C37.4374 23.6477 37.4551 23.6176 37.4614 23.5842C37.4605 23.5501 37.4482 23.5173 37.4264 23.491C37.4047 23.4647 37.3747 23.4465 37.3414 23.4392C36.9937 23.4393 36.6498 23.3669 36.3317 23.2266C36.0136 23.0862 35.7282 22.8811 35.4939 22.6242C34.6739 21.6467 34.8964 19.9617 35.0164 18.9542C35.0389 18.8342 35.0389 18.7042 35.0639 18.6167C35.1478 17.9082 35.1879 17.1952 35.1839 16.4817C36.8289 17.1217 38.4714 16.3867 39.3339 17.1792C39.6714 17.4892 39.6214 18.0192 39.5489 18.4992C39.5322 18.6997 39.5853 18.8998 39.6992 19.0657C39.8131 19.2315 39.9808 19.3529 40.1739 19.4092C40.2932 19.427 40.4145 19.427 40.5339 19.4092C40.5523 19.4093 40.5705 19.4051 40.5871 19.3968C40.6036 19.3886 40.6179 19.3766 40.6289 19.3617C40.9214 18.9217 41.7789 18.9142 41.8289 19.5067C41.8364 19.5808 41.8272 19.6556 41.8022 19.7256C41.7771 19.7957 41.7367 19.8593 41.6839 19.9117V19.9167Z" fill="#313131"/>
<path d="M36.4736 17.9193C36.4525 18.2288 36.3963 18.5349 36.3061 18.8318C36.1519 18.9547 35.9713 19.0403 35.7786 19.0818C35.7472 19.0905 35.7186 19.107 35.6952 19.1296C35.6718 19.1523 35.6545 19.1804 35.6448 19.2115C35.6351 19.2426 35.6334 19.2756 35.6397 19.3075C35.646 19.3394 35.6602 19.3692 35.6811 19.3943C35.8011 19.5393 35.9936 19.8018 36.1386 19.9468C36.163 19.9641 36.1923 19.9734 36.2223 19.9734C36.2523 19.9734 36.2816 19.9641 36.3061 19.9468C36.3172 19.9358 36.326 19.9228 36.332 19.9084C36.338 19.894 36.3411 19.8786 36.3411 19.863C36.3411 19.8474 36.338 19.832 36.332 19.8176C36.326 19.8032 36.3172 19.7902 36.3061 19.7793C36.177 19.6428 36.0568 19.4984 35.9461 19.3468V19.3118C36.1806 19.2476 36.39 19.1133 36.5461 18.9268C36.6517 18.6088 36.7164 18.2786 36.7386 17.9443C36.7436 17.7868 36.5386 17.7368 36.4736 17.9193Z" fill="#313131"/>
<path d="M38.3737 17.7272C38.3424 17.6766 38.3005 17.6333 38.2509 17.6005C38.2012 17.5677 38.145 17.5461 38.0862 17.5372C37.8362 17.4872 37.7512 17.6072 37.7512 17.6322C37.7012 17.6797 37.6312 17.7047 37.5812 17.6572C37.5559 17.6374 37.5394 17.6086 37.5352 17.5768C37.531 17.545 37.5395 17.5128 37.5587 17.4872C37.6321 17.4176 37.7206 17.366 37.8173 17.3364C37.9139 17.3067 38.0162 17.2999 38.1159 17.3164C38.2157 17.3328 38.3103 17.3722 38.3923 17.4313C38.4743 17.4904 38.5416 17.5678 38.5887 17.6572C38.6587 17.8597 38.4362 17.8547 38.3737 17.7272Z" fill="#313131"/>
<path d="M37.8162 18.9714C37.8859 18.9803 37.9569 18.9562 38.0137 18.9044C38.0704 18.8526 38.1082 18.7773 38.1187 18.6951C38.1292 18.6128 38.1116 18.5304 38.0697 18.466C38.0278 18.4016 37.9652 18.3603 37.8954 18.3514C37.8257 18.3425 37.7547 18.3666 37.698 18.4184C37.6412 18.4703 37.6034 18.5456 37.5929 18.6278C37.5824 18.71 37.6 18.7924 37.6419 18.8569C37.6838 18.9213 37.7465 18.9625 37.8162 18.9714Z" fill="#313131"/>
<path d="M35.6814 18.695C35.7159 18.6994 35.7511 18.6958 35.785 18.6843C35.8189 18.6727 35.8508 18.6536 35.8789 18.6279C35.9069 18.6022 35.9307 18.5705 35.9487 18.5346C35.9667 18.4987 35.9786 18.4592 35.9838 18.4185C35.989 18.3778 35.9873 18.3366 35.9789 18.2973C35.9705 18.2581 35.9555 18.2214 35.9347 18.1895C35.914 18.1576 35.8879 18.1311 35.858 18.1115C35.8281 18.0918 35.7949 18.0794 35.7604 18.075C35.7259 18.0706 35.6907 18.0743 35.6568 18.0858C35.6229 18.0973 35.591 18.1165 35.563 18.1422C35.5349 18.1678 35.5112 18.1996 35.4932 18.2355C35.4752 18.2714 35.4632 18.3109 35.458 18.3516C35.4528 18.3923 35.4545 18.4335 35.4629 18.4727C35.4713 18.512 35.4864 18.5487 35.5071 18.5806C35.5278 18.6125 35.5539 18.639 35.5838 18.6586C35.6137 18.6783 35.6469 18.6906 35.6814 18.695Z" fill="#313131"/>
<path d="M35.686 21.134C36.1132 21.1637 36.5382 21.2196 36.9585 21.3015C37.006 21.3015 37.031 21.279 37.031 21.254C37.031 21.039 37.006 20.419 36.431 20.3415C35.901 20.274 35.681 20.8415 35.6135 21.0615C35.6118 21.0714 35.6124 21.0816 35.6154 21.0912C35.6184 21.1008 35.6237 21.1095 35.6309 21.1166C35.638 21.1238 35.6467 21.1291 35.6563 21.1321C35.6659 21.1351 35.6761 21.1357 35.686 21.134Z" fill="#313131"/>
<path d="M36.1909 17.465C36.1592 17.4146 36.1172 17.3714 36.0676 17.3382C36.0181 17.3051 35.9621 17.2827 35.9034 17.2726C35.6534 17.2251 35.5659 17.345 35.5659 17.3675C35.5567 17.3804 35.5451 17.3913 35.5316 17.3996C35.5181 17.4079 35.5031 17.4134 35.4875 17.4157C35.4718 17.418 35.4559 17.4172 35.4406 17.4132C35.4253 17.4092 35.4109 17.4022 35.3984 17.3925C35.3509 17.345 35.3259 17.2725 35.3759 17.225C35.449 17.1496 35.5404 17.0945 35.6412 17.0652C35.742 17.0358 35.8488 17.0332 35.9509 17.0576C36.048 17.073 36.14 17.1114 36.2192 17.1697C36.2983 17.228 36.3624 17.3044 36.4059 17.3925C36.4434 17.5 36.3709 17.645 36.1909 17.465Z" fill="#313131"/>
<path d="M40.9735 19.8395C40.9381 19.8325 40.9053 19.8161 40.8785 19.792C40.856 19.7445 40.856 19.672 40.9035 19.647C41.0464 19.5507 41.2117 19.493 41.3835 19.4795C41.431 19.4795 41.5035 19.5045 41.5035 19.5745C41.5035 19.6445 41.4785 19.6945 41.406 19.6945C41.2675 19.7065 41.1351 19.7567 41.0235 19.8395H40.9735Z" fill="#FFB949"/>
<path d="M46.3387 39.8252C46.3387 39.8252 47.7062 40.2327 48.3787 40.2077C48.5055 40.4448 48.5789 40.7067 48.5937 40.9752C48.5866 41.2006 48.6365 41.4241 48.7387 41.6252C48.7387 41.6252 48.9887 41.3127 49.1462 41.3602C49.3037 41.4077 49.6737 41.8602 49.4087 42.4402C49.2771 42.5804 49.0998 42.6691 48.9087 42.6902C48.866 42.808 48.7806 42.9055 48.6695 42.9633C48.5584 43.0212 48.4296 43.0352 48.3087 43.0027C48.2157 43.1105 48.0875 43.1817 47.947 43.2037C47.8064 43.2257 47.6625 43.197 47.5412 43.1227C47.4072 43.197 47.2526 43.2255 47.101 43.2038C46.9494 43.1822 46.8089 43.1115 46.7012 43.0027C46.2662 42.6077 45.6187 41.7452 46.3387 39.8252Z" fill="white"/>
<path d="M22.4909 25.4527C22.4909 25.4527 22.6384 24.7777 22.2759 24.6152C21.9134 24.4527 21.6034 24.5427 21.5259 24.8652C21.4484 25.1877 21.6684 25.2177 21.9109 25.1152C22.1534 25.0127 22.4909 25.4527 22.4909 25.4527Z" fill="white"/>
<path d="M21.1712 25.1419C21.2912 25.1419 21.4212 25.2844 21.3412 25.5719C21.3412 25.5719 21.9387 25.2619 21.7962 25.9569C21.7962 25.9569 22.3712 25.6219 22.2762 26.4569C22.2762 26.4569 22.5987 26.0719 22.6362 27.0319C22.6737 27.9919 22.5887 28.5319 22.3237 28.5319C22.1087 28.5319 21.9887 28.2669 21.9887 28.2669C21.9887 28.2669 21.4362 28.6519 21.2912 28.0169C21.2912 28.0169 20.8362 27.9694 20.6912 27.2969C20.6912 27.2969 20.1237 27.1794 20.4287 26.1694C20.7462 25.0944 21.0762 25.1419 21.1712 25.1419Z" fill="white"/>
<path d="M49.1213 41.2651C48.9788 41.2401 48.8338 41.3851 48.7388 41.5151C48.704 41.3984 48.6879 41.2769 48.6913 41.1551C48.6971 40.8295 48.6224 40.5074 48.4738 40.2176C48.4624 40.2032 48.448 40.1915 48.4316 40.1833C48.4152 40.1751 48.3972 40.1706 48.3788 40.1701C47.689 40.1019 47.0065 39.9739 46.3388 39.7876C46.3134 39.7766 46.2848 39.7753 46.2585 39.7841C46.2322 39.7929 46.21 39.811 46.1963 39.8351C46.1963 39.8751 45.5063 41.3601 46.1463 42.4976C46.4163 42.9751 46.7238 43.2476 47.0588 43.3126C47.2286 43.3533 47.4075 43.3273 47.5588 43.2401C47.683 43.2977 47.8222 43.315 47.9567 43.2894C48.0912 43.2639 48.2144 43.1968 48.3088 43.0976C48.4333 43.1246 48.5631 43.1113 48.6795 43.0596C48.7959 43.0079 48.8929 42.9206 48.9563 42.8101C49.1495 42.7852 49.3272 42.691 49.4563 42.5451C49.7238 42.2876 49.7238 41.3126 49.1213 41.2651ZM48.9788 42.5826C48.3063 42.2726 47.9463 41.3601 47.9463 41.3601C47.9328 41.3362 47.9106 41.3184 47.8844 41.3103C47.8581 41.3022 47.8298 41.3044 47.8051 41.3166C47.7805 41.3287 47.7614 41.3499 47.7519 41.3756C47.7424 41.4014 47.743 41.4298 47.7538 41.4551C47.7788 41.5051 48.1388 42.3926 48.8113 42.7526C48.7584 42.8127 48.6904 42.8576 48.6144 42.8826C48.5384 42.9077 48.4571 42.912 48.3788 42.8951C47.6838 42.5351 47.3238 41.5526 47.3238 41.5526C47.3136 41.5242 47.2928 41.5008 47.2658 41.4873C47.2388 41.4738 47.2077 41.4713 47.1788 41.4801C47.1508 41.4908 47.1278 41.5117 47.1144 41.5385C47.1009 41.5654 47.0981 41.5963 47.1063 41.6251C47.1313 41.6726 47.4438 42.5826 48.1388 43.0151C48.0682 43.0613 47.9865 43.088 47.9022 43.0924C47.8179 43.0968 47.7339 43.0788 47.6588 43.0401C47.4185 42.8953 47.2124 42.7 47.0549 42.4678C46.8974 42.2356 46.7921 41.972 46.7463 41.6951C46.7463 41.6476 46.6738 41.6001 46.6263 41.6001C46.5788 41.6001 46.5313 41.6726 46.5313 41.7201C46.569 41.9944 46.6604 42.2585 46.8003 42.4974C46.9401 42.7364 47.1257 42.9454 47.3463 43.1126C47.0588 43.2301 46.5763 42.8001 46.3463 42.3926C45.8613 41.5551 46.2513 40.3526 46.3713 39.9926C46.9986 40.1688 47.6403 40.2892 48.2888 40.3526C48.4057 40.5913 48.464 40.8544 48.4588 41.1201C48.4335 41.2392 48.4376 41.3627 48.4707 41.4798C48.5038 41.597 48.5649 41.7044 48.6488 41.7926C48.8413 42.0426 48.9863 42.1751 49.0088 42.2001C49.0291 42.2172 49.0548 42.2266 49.0813 42.2266C49.1078 42.2266 49.1335 42.2172 49.1538 42.2001C49.1652 42.1917 49.1744 42.1808 49.1808 42.1682C49.1872 42.1556 49.1905 42.1417 49.1905 42.1276C49.1905 42.1135 49.1872 42.0996 49.1808 42.087C49.1744 42.0744 49.1652 42.0635 49.1538 42.0551C49.0389 41.954 48.9342 41.8418 48.8413 41.7201C48.8674 41.6673 48.9046 41.6208 48.9504 41.5837C48.9961 41.5466 49.0493 41.5198 49.1063 41.5051C49.2888 41.4801 49.7238 42.4151 48.9738 42.5826H48.9788Z" fill="#313131"/>
<path d="M22.7237 26.8703C22.6987 26.2453 22.4112 26.1728 22.3162 26.2703C22.3887 25.6453 21.9812 25.8128 21.9087 25.8128C21.8837 25.6228 21.9312 25.2628 21.4287 25.4053C21.4289 25.3269 21.4051 25.2503 21.3604 25.1859C21.3157 25.1215 21.2522 25.0724 21.1787 25.0453C20.9137 24.9753 20.5637 25.2653 20.3637 26.0303C20.2237 26.5603 20.2437 26.9403 20.4112 27.1803C20.4663 27.2745 20.556 27.3435 20.6612 27.3728C20.6604 27.5308 20.7116 27.6847 20.8069 27.8108C20.9023 27.9368 21.0364 28.028 21.1887 28.0703C21.2097 28.1455 21.248 28.2147 21.3005 28.2725C21.3531 28.3302 21.4184 28.3748 21.4913 28.4028C21.5642 28.4307 21.6427 28.4412 21.7204 28.4334C21.7981 28.4256 21.8728 28.3997 21.9387 28.3578C21.9769 28.4335 22.0356 28.4971 22.108 28.5413C22.1805 28.5854 22.2638 28.6085 22.3487 28.6078C22.4326 28.5739 22.5058 28.5179 22.5604 28.4456C22.615 28.3734 22.649 28.2878 22.6587 28.1978C22.7492 27.7613 22.7712 27.3135 22.7237 26.8703ZM20.6137 27.0603C20.5162 26.9403 20.4462 26.6778 20.5887 26.1028C20.7587 25.4078 21.0437 25.2378 21.1412 25.2628C21.1887 25.2853 21.2362 25.3828 21.2137 25.5128C20.9017 25.9941 20.7192 26.5478 20.6837 27.1203L20.6137 27.0603ZM20.9012 27.3103C20.891 26.7277 21.0661 26.1569 21.4012 25.6803C21.7237 25.4528 21.7237 25.7878 21.7237 25.9578C21.2437 26.4853 21.2237 27.4453 21.2237 27.8778C21.1172 27.8267 21.0295 27.7435 20.973 27.6399C20.9164 27.5362 20.894 27.4174 20.9087 27.3003L20.9012 27.3103ZM21.4287 28.0303C21.4037 27.8153 21.3337 26.6403 21.8837 26.0878C21.9087 26.0628 22.2687 25.8953 22.1337 26.4728C21.9016 27.0162 21.8154 27.6108 21.8837 28.1978C21.8432 28.219 21.7986 28.2312 21.753 28.2336C21.7073 28.236 21.6617 28.2285 21.6192 28.2117C21.5767 28.1948 21.5384 28.169 21.5068 28.136C21.4752 28.1029 21.4511 28.0635 21.4362 28.0203L21.4287 28.0303ZM22.4612 28.1753C22.4087 28.4253 22.1962 28.3428 22.1012 28.1978C22.0256 27.6345 22.1024 27.0612 22.3237 26.5378C22.4187 26.4178 22.5087 26.5153 22.5162 26.8753C22.5463 27.3056 22.532 27.7379 22.4737 28.1653L22.4612 28.1753Z" fill="#313131"/>
<path d="M22.3715 25.4777C22.029 25.1227 21.964 25.1902 21.8715 25.2152C21.414 25.3827 21.3915 24.9652 21.464 24.7827C21.5226 24.6555 21.6253 24.5538 21.753 24.4963C21.8808 24.4389 22.025 24.4296 22.159 24.4702C22.3033 24.5058 22.4312 24.5892 22.522 24.7067C22.6128 24.8243 22.6611 24.9692 22.659 25.1177C22.6715 25.6452 22.3965 25.5027 22.3715 25.4777ZM22.0115 24.9777C22.1845 25.021 22.3372 25.1225 22.444 25.2652C22.444 25.1927 22.4665 24.7652 22.084 24.6877C21.9981 24.6538 21.9023 24.6549 21.8172 24.6909C21.7321 24.7269 21.6645 24.7949 21.629 24.8802C21.5815 24.9777 21.5815 25.1452 21.749 25.0477C21.829 25.0017 21.9193 24.9768 22.0115 24.9752V24.9777Z" fill="#313131"/>
</svg>
