<svg width="70" height="70" viewBox="0 0 70 70" fill="none" xmlns="http://www.w3.org/2000/svg">
<rect width="70" height="70" rx="10" fill="#E7F8FF"/>
<path d="M10.9759 46.0083C10.9406 46.0084 10.906 45.9988 10.8758 45.9806C10.8455 45.9624 10.8208 45.9363 10.8044 45.9051C10.7879 45.8739 10.7804 45.8387 10.7824 45.8035C10.7845 45.7683 10.7962 45.7343 10.8163 45.7053C11.0386 45.4114 11.318 45.1654 11.6376 44.9821C12.0065 44.7709 12.414 44.6359 12.836 44.5852C13.258 44.5345 13.6859 44.569 14.0943 44.6869C14.1439 44.6997 14.1865 44.7316 14.2128 44.7756C14.2391 44.8197 14.247 44.8723 14.2347 44.9221C14.2221 44.9719 14.1902 45.0146 14.1461 45.041C14.102 45.0673 14.0493 45.0751 13.9995 45.0625C12.0943 44.5815 11.1738 45.8698 11.1353 45.9241C11.1176 45.95 11.0938 45.9712 11.066 45.9858C11.0382 46.0005 11.0073 46.0082 10.9759 46.0083Z" fill="#7BD2FF"/>
<path d="M13.5037 43.8164C13.4564 43.8165 13.4108 43.7992 13.3753 43.7679C12.3989 42.9038 11.1094 43.4621 11.0551 43.4862C11.0082 43.5072 10.9549 43.5087 10.9069 43.4905C10.8589 43.4722 10.8201 43.4356 10.7991 43.3887C10.778 43.3418 10.7765 43.2885 10.7948 43.2405C10.8131 43.1925 10.8497 43.1537 10.8966 43.1326C10.96 43.1039 12.4655 42.4457 13.6321 43.4773C13.6613 43.5035 13.6819 43.5379 13.6912 43.576C13.7004 43.6141 13.698 43.6542 13.6841 43.6909C13.6702 43.7275 13.6455 43.7592 13.6133 43.7816C13.5811 43.804 13.5429 43.8162 13.5037 43.8164Z" fill="#7BD2FF"/>
<path d="M12.9398 54.8662C12.8913 54.8621 12.8462 54.8399 12.8132 54.804C12.7803 54.7681 12.7621 54.7212 12.7621 54.6725C12.7621 54.6239 12.7803 54.577 12.8132 54.5411C12.8462 54.5052 12.8913 54.483 12.9398 54.4788C14.5064 54.2755 14.5808 52.8318 14.567 52.5297C14.1483 52.7307 12.449 52.9604 12.3591 51.6437C12.3485 51.4566 12.3961 51.2709 12.4954 51.112C12.5946 50.9531 12.7407 50.8288 12.9134 50.7563C13.9947 50.2856 14.7474 51.6078 14.8416 51.8999C15.8321 51.1101 16.1239 49.7115 14.8577 48.1537C14.8273 48.1137 14.8137 48.0634 14.8197 48.0135C14.8257 47.9635 14.8509 47.9179 14.8899 47.8862C14.9289 47.8545 14.9787 47.8392 15.0288 47.8435C15.0789 47.8478 15.1254 47.8714 15.1584 47.9093C16.5722 49.6491 16.258 51.3909 14.9335 52.3143C14.9872 52.731 14.8514 54.7247 12.9398 54.8662ZM12.746 51.621C12.746 52.4883 14.0576 52.4464 14.5064 52.1218C14.4275 51.8659 14.2962 51.6292 14.1207 51.4268C13.7126 50.9019 12.746 50.9435 12.746 51.6221V51.621Z" fill="#7BD2FF"/>
<path d="M36.7341 11.0795C36.6941 11.0792 36.6552 11.0666 36.6226 11.0434C36.5901 11.0202 36.5655 10.9876 36.5522 10.9499C36.5389 10.9122 36.5376 10.8713 36.5484 10.8328C36.5592 10.7943 36.5816 10.7601 36.6126 10.7348C37.3787 10.1152 38.1828 9.54397 39.0202 9.0246C39.065 8.99954 39.118 8.99333 39.1674 9.00733C39.2169 9.02134 39.2587 9.05441 39.2838 9.09927C39.3089 9.14413 39.3151 9.19711 39.3011 9.24656C39.2871 9.296 39.254 9.33785 39.2091 9.36291C38.3908 9.87251 37.6044 10.4316 36.8542 11.0369C36.8201 11.0642 36.7778 11.0792 36.7341 11.0795Z" fill="#7BD2FF"/>
<path d="M36.4834 12.6463C36.4505 12.6463 36.4182 12.6378 36.3895 12.6218C36.3608 12.6058 36.3367 12.5827 36.3194 12.5548C36.302 12.5269 36.2921 12.495 36.2905 12.4622C36.2889 12.4293 36.2957 12.3967 36.3102 12.3672C36.3295 12.3278 36.3616 12.2961 36.4013 12.2773C37.5698 11.7561 38.7872 11.3526 40.0357 11.0725C40.0852 11.0634 40.1363 11.074 40.1781 11.102C40.22 11.13 40.2492 11.1732 40.2597 11.2224C40.2702 11.2716 40.2612 11.3229 40.2347 11.3656C40.2081 11.4083 40.166 11.4391 40.1172 11.4513C38.8735 11.7433 37.6576 12.1431 36.4834 12.6463Z" fill="#7BD2FF"/>
<path d="M12.2305 20.0149C12.0343 19.3486 11.2253 16.9284 13.4838 15.8793C15.7422 14.8302 25.4332 11.3314 26.1225 11.1295C26.8117 10.9276 28.7971 10.5304 29.7994 13.309C30.8017 16.0875 38.731 36.9517 38.9128 37.4948C39.0946 38.0378 39.8826 40.3825 37.4128 41.3394C34.943 42.2963 25.4226 45.941 24.5139 46.2532C23.6052 46.5654 22.148 46.1748 21.5372 44.6237C20.9263 43.0726 12.4591 20.7923 12.2305 20.0149Z" fill="#7BD2FF"/>
<path d="M50.4974 37.5445C50.2224 37.1839 49.9971 36.7878 49.8277 36.3671C49.6729 35.9032 49.8512 33.4501 47.4523 29.7315C44.9038 25.78 34.9808 14.7763 31.6591 16.3562C29.0939 17.5761 33.328 22.6571 33.328 22.6571C33.328 22.6571 38.7097 36.9305 38.9136 37.4946C39.1175 38.0586 40.1043 40.3306 36.8846 41.5704C34.1336 42.6301 31.9411 43.3389 31.9411 43.3389C31.9411 43.3389 35.6459 47.7728 44.1229 48.0078C44.1229 48.0078 49.0985 41.9308 50.5896 38.795C50.6834 38.5963 50.7241 38.3767 50.708 38.1576C50.6918 37.9385 50.6193 37.7273 50.4974 37.5445Z" fill="white"/>
<path d="M18.1377 38.5444L19.4226 42.2262C19.4226 42.2262 16.8379 42.622 16.2891 41.1392C15.7402 39.6564 18.1377 38.5444 18.1377 38.5444Z" fill="white"/>
<path d="M15.818 32.4341L17.2907 36.445C17.2907 36.445 13.7959 37.163 13.1075 35.1526C12.4659 33.2801 15.818 32.4341 15.818 32.4341Z" fill="white"/>
<path d="M13.4683 26.3545L15.1415 30.806C15.1415 30.806 10.6039 31.4263 9.94336 29.3174C9.20671 26.9659 13.4683 26.3545 13.4683 26.3545Z" fill="white"/>
<path d="M11.4305 20.7925L12.9503 25.1136C12.9503 25.1136 8.64243 25.5084 7.96811 23.3617C7.40837 21.58 11.4305 20.7925 11.4305 20.7925Z" fill="white"/>
<path d="M29.4428 33.3662C29.3972 33.366 29.3531 33.3497 29.3183 33.3202C29.2835 33.2907 29.2603 33.2498 29.2526 33.2049C29.245 33.1599 29.2534 33.1136 29.2765 33.0743C29.2996 33.0349 29.3358 33.005 29.3788 32.9897C30.4685 32.6066 31.5639 32.2403 32.6648 31.8909C32.6891 31.8832 32.7147 31.8804 32.74 31.8825C32.7654 31.8847 32.7901 31.8919 32.8127 31.9036C32.8353 31.9153 32.8553 31.9314 32.8717 31.9509C32.8881 31.9703 32.9005 31.9929 32.9082 32.0171C32.9159 32.0414 32.9188 32.0669 32.9166 32.0923C32.9144 32.1177 32.9073 32.1424 32.8955 32.165C32.8838 32.1876 32.8678 32.2076 32.8483 32.224C32.8288 32.2404 32.8063 32.2528 32.782 32.2605C30.1559 33.0916 29.5617 33.3662 29.4428 33.3662Z" fill="#7BD2FF"/>
<path d="M20.5579 29.6214C20.3466 29.5858 20.1444 29.5093 19.9625 29.396C19.9195 29.3715 19.8874 29.3314 19.8729 29.284C19.8585 29.2366 19.8627 29.1855 19.8848 29.1412C19.9068 29.0968 19.945 29.0626 19.9915 29.0455C20.038 29.0284 20.0893 29.0298 20.1348 29.0493C20.2385 29.1013 20.3494 29.1518 20.4347 29.1869C20.4812 28.9178 20.5464 28.3483 20.5918 27.8529C20.5964 27.8017 20.6212 27.7545 20.6606 27.7216C20.7001 27.6888 20.751 27.6729 20.8021 27.6776C20.8533 27.6822 20.9005 27.707 20.9334 27.7464C20.9663 27.7859 20.9821 27.8368 20.9775 27.8879C20.835 29.4545 20.7868 29.6214 20.5579 29.6214Z" fill="#7BD2FF"/>
<path d="M21.4601 31.6891C21.2488 31.6537 21.0464 31.5771 20.8645 31.4637C20.8214 31.4392 20.7894 31.3992 20.7749 31.3518C20.7605 31.3044 20.7647 31.2533 20.7867 31.2089C20.8088 31.1645 20.847 31.1303 20.8935 31.1132C20.94 31.0961 20.9913 31.0975 21.0368 31.1171C21.1405 31.169 21.2514 31.2196 21.3367 31.2549C21.3832 30.9858 21.4484 30.416 21.4937 29.9206C21.4984 29.8695 21.5232 29.8223 21.5627 29.7894C21.6022 29.7566 21.6531 29.7408 21.7043 29.7454C21.7554 29.7501 21.8026 29.7749 21.8354 29.8144C21.8683 29.8539 21.8841 29.9048 21.8794 29.9559C21.7336 31.5602 21.6819 31.6891 21.4601 31.6891Z" fill="#7BD2FF"/>
<path d="M50.6925 37.6602C50.1989 36.9779 49.9091 36.1696 49.8568 35.3291C49.3838 28.5261 33.9091 13.2995 31.1776 16.4322L29.7161 12.5502C29.4541 11.8572 28.9278 11.2964 28.2528 10.991C27.5778 10.6855 26.8092 10.6603 26.1156 10.921L13.4505 15.6924C13.0563 15.8395 12.7007 16.0743 12.4106 16.3791C12.1205 16.6839 11.9036 17.0507 11.7761 17.4517L11.1966 19.4698C11.0921 19.8692 11.0851 20.2879 11.1759 20.6906C6.18253 21.921 7.97288 23.89 8.27989 24.1947C9.44042 25.3452 12.505 25.3641 12.8612 25.3641C12.8755 25.3641 13.2425 26.2487 13.2425 26.2487C12.2483 26.4287 9.47201 27.0976 9.59292 28.9373C9.7256 30.9514 12.9783 31.2142 14.9881 31.0278C15.0059 31.0261 15.5338 32.3322 15.5338 32.3322C15.2575 32.4066 12.748 33.1705 12.8514 34.8308C12.9611 36.5732 15.3953 36.9144 17.1383 36.732C17.1552 36.7303 17.854 38.4925 17.854 38.4925C16.9301 38.8825 16.0214 39.6412 16.0473 40.6464C16.0998 42.699 19.3169 42.4962 19.3611 42.4945L20.8132 46.3466C20.9335 46.6661 21.1155 46.9587 21.3489 47.2079C21.5823 47.457 21.8625 47.6578 22.1735 47.7986C22.4845 47.9395 22.8201 48.0177 23.1613 48.0289C23.5026 48.04 23.8426 47.9838 24.1621 47.8635L32.947 44.5542C38.4683 48.4468 44.1572 48.2303 44.1693 48.2245C46.4797 47.0993 50.3241 39.9448 50.8223 38.5401C50.8741 38.394 50.8893 38.2374 50.8667 38.084C50.8441 37.9307 50.7843 37.7852 50.6925 37.6602ZM8.55272 23.9198C8.31808 23.6869 6.85628 22.0778 11.2882 21.0611L12.769 24.9916C12.2917 24.9859 9.55272 24.9124 8.55272 23.9198ZM10.4663 29.8532C10.1633 29.5947 9.20665 27.9844 11.7121 27.0752C12.2557 26.8791 12.8141 26.7264 13.3818 26.6186L14.8991 30.6464C14.4775 30.6786 11.6392 30.8532 10.4663 29.8532ZM13.2382 34.8015C13.1406 33.4721 15.0786 32.8543 15.6716 32.697L17.0478 36.3503C15.588 36.4706 13.3462 36.2679 13.2382 34.8015ZM16.435 40.6444C16.435 39.622 17.5645 39.0387 17.9912 38.8549L19.217 42.1082C18.1136 42.1053 16.4341 41.7613 16.435 40.6444ZM24.8172 45.8672C24.22 46.0914 23.5583 46.0695 22.9772 45.8063C22.3961 45.5431 21.9432 45.0602 21.7178 44.4635L12.1831 19.155C12.0603 18.8303 12.0093 18.4827 12.0338 18.1364C12.0398 18.0528 12.2161 17.3736 12.2428 17.3144C12.3726 17.0262 12.5582 16.7664 12.7889 16.5502C13.0196 16.3341 13.2908 16.1657 13.5869 16.0548L16.7193 14.8747L17.6799 15.195C17.7902 15.2317 17.9097 15.2294 18.0182 15.1884L22.8876 13.3526C22.9584 13.326 23.0224 13.2838 23.0747 13.2291C23.1271 13.1744 23.1665 13.1087 23.19 13.0367L23.4134 12.3529L26.2523 11.2834C26.8498 11.0589 27.512 11.0807 28.0934 11.3439C28.6749 11.607 29.1283 12.0902 29.354 12.6872L30.9157 16.8334C30.051 18.5407 31.773 20.9402 33.0122 22.3989L38.8876 37.9956C39.112 38.5931 39.0903 39.2553 38.8271 39.8368C38.5639 40.4183 38.0808 40.8716 37.4838 41.0973L24.8172 45.8672ZM50.4579 38.4109C48.0785 42.9003 42.7669 47.7259 42.7669 47.7259C42.7669 47.7259 36.9019 46.9425 33.3801 44.3911L36.829 43.0921C37.4524 42.8528 37.9619 42.386 38.2546 41.7857C39.1532 39.9861 39.1633 40.0243 39.1782 39.9951C39.3299 39.6612 39.4142 39.3007 39.4263 38.9342C39.4384 38.5677 39.3781 38.2024 39.2488 37.8592L33.7293 23.2067C34.0593 23.5631 38.011 27.1639 38.4054 27.4715C38.0794 29.3182 38.1774 31.2148 38.6921 33.0179C39.2067 34.8211 40.1245 36.4838 41.3761 37.8802C41.4159 37.912 41.4668 37.9268 41.5175 37.9212C41.5682 37.9156 41.6146 37.8901 41.6466 37.8503C41.6789 37.8109 41.6943 37.7603 41.6895 37.7096C41.6847 37.6588 41.6599 37.6121 41.6207 37.5795C41.611 37.5717 37.6052 33.4945 38.8063 27.4218C38.8125 27.387 38.809 27.3512 38.7962 27.3183C38.7833 27.2854 38.7617 27.2566 38.7336 27.2352C38.6862 27.1987 31.4502 21.4979 31.0912 18.2016C30.9111 16.5471 32.1449 16.2337 33.0627 16.5327C38.107 18.1766 49.0794 29.7277 49.4714 35.3561C49.5285 36.2696 49.8439 37.1481 50.3809 37.8894C50.4407 37.9607 50.4795 38.0472 50.493 38.1393C50.5066 38.2313 50.4945 38.3253 50.4579 38.4109Z" fill="#414141"/>
<path d="M30.0617 40.6386C29.2461 42.0834 31.056 43.1501 31.9465 41.8956C32.0973 41.6704 32.1857 41.4093 32.203 41.1389C32.2007 40.8853 32.1133 40.6398 31.9548 40.4419C31.7963 40.2439 31.5759 40.1049 31.329 40.0473C31.082 39.9896 30.8228 40.0165 30.593 40.1237C30.3632 40.2309 30.1761 40.4123 30.0617 40.6386ZM30.3544 41.1389C30.3544 40.9451 30.4313 40.7593 30.5683 40.6222C30.7054 40.4852 30.8912 40.4082 31.085 40.4082C31.2787 40.4082 31.4646 40.4852 31.6016 40.6222C31.7386 40.7593 31.8156 40.9451 31.8156 41.1389C31.8153 42.159 30.3541 42.0691 30.3541 41.1389H30.3544Z" fill="#414141"/>
<path d="M17.9749 27.56C17.1593 29.0048 18.9692 30.0714 19.8597 28.817C20.0105 28.5918 20.099 28.3307 20.1162 28.0602C20.1139 27.8067 20.0265 27.5612 19.868 27.3633C19.7095 27.1653 19.4891 27.0263 19.2422 26.9686C18.9952 26.9109 18.7361 26.9379 18.5063 27.0451C18.2765 27.1523 18.0893 27.3337 17.9749 27.56Z" fill="#005BC3"/>
<path d="M20.2725 32.1552C19.4569 33.6 21.2668 34.6667 22.1574 33.4122C22.3081 33.187 22.3966 32.9259 22.4138 32.6555C22.4115 32.4019 22.3241 32.1564 22.1656 31.9585C22.0071 31.7605 21.7867 31.6215 21.5398 31.5639C21.2928 31.5062 21.0337 31.5331 20.8039 31.6403C20.5741 31.7475 20.3869 31.9289 20.2725 32.1552Z" fill="#005BC3"/>
<path d="M22.57 36.7504C21.7544 38.1952 23.5643 39.2619 24.4548 38.0074C24.6056 37.7822 24.694 37.5211 24.7113 37.2507C24.709 36.9971 24.6216 36.7516 24.4631 36.5537C24.3046 36.3557 24.0842 36.2168 23.8373 36.1591C23.5903 36.1014 23.3311 36.1283 23.1013 36.2355C22.8715 36.3428 22.6844 36.5241 22.57 36.7504Z" fill="#005BC3"/>
<path d="M23.7188 25.2626C22.9032 26.7075 24.7131 27.7741 25.6036 26.5196C25.7544 26.2944 25.8428 26.0333 25.8601 25.7629C25.8578 25.5093 25.7704 25.2638 25.6119 25.0659C25.4534 24.8679 25.233 24.729 24.9861 24.6713C24.7391 24.6136 24.48 24.6405 24.2501 24.7477C24.0203 24.855 23.8332 25.0363 23.7188 25.2626Z" fill="#005BC3"/>
<path d="M26.0163 29.8578C25.2007 31.3027 27.0105 32.3693 27.9011 31.1148C28.0519 30.8896 28.1403 30.6286 28.1576 30.3581C28.1553 30.1045 28.0679 29.8591 27.9094 29.6611C27.7509 29.4632 27.5305 29.3242 27.2835 29.2665C27.0366 29.2088 26.7774 29.2357 26.5476 29.343C26.3178 29.4502 26.1307 29.6315 26.0163 29.8578Z" fill="#005BC3"/>
<path d="M28.3138 34.4525C27.4982 35.8974 29.308 36.964 30.1986 35.7096C30.3493 35.4844 30.4378 35.2233 30.4551 34.9528C30.4528 34.6992 30.3654 34.4538 30.2069 34.2558C30.0484 34.0579 29.828 33.9189 29.581 33.8612C29.3341 33.8035 29.0749 33.8305 28.8451 33.9377C28.6153 34.0449 28.4282 34.2262 28.3138 34.4525Z" fill="#005BC3"/>
<path d="M29.4626 22.9652C28.647 24.4101 30.4568 25.4767 31.3474 24.2223C31.4981 23.9971 31.5866 23.736 31.6039 23.4655C31.6016 23.2119 31.5142 22.9665 31.3557 22.7685C31.1972 22.5706 30.9768 22.4316 30.7298 22.3739C30.4829 22.3162 30.2237 22.3431 29.9939 22.4504C29.7641 22.5576 29.577 22.7389 29.4626 22.9652Z" fill="#005BC3"/>
<path d="M31.7601 27.56C30.9444 29.0048 32.7543 30.0714 33.6449 28.817C33.7956 28.5918 33.8841 28.3307 33.9014 28.0602C33.8991 27.8067 33.8117 27.5612 33.6532 27.3633C33.4947 27.1653 33.2743 27.0263 33.0273 26.9686C32.7804 26.9109 32.5212 26.9379 32.2914 27.0451C32.0616 27.1523 31.8745 27.3337 31.7601 27.56Z" fill="#005BC3"/>
<path d="M34.0577 32.1552C33.2421 33.6 35.0519 34.6667 35.9425 33.4122C36.0932 33.187 36.1817 32.9259 36.199 32.6555C36.1967 32.4019 36.1093 32.1564 35.9508 31.9585C35.7923 31.7605 35.5719 31.6215 35.3249 31.5639C35.078 31.5062 34.8188 31.5331 34.589 31.6403C34.3592 31.7475 34.1721 31.9289 34.0577 32.1552Z" fill="#005BC3"/>
<path d="M62.2689 40.131C62.266 40.0609 62.2441 39.9928 62.2056 39.9341C62.167 39.8755 62.1133 39.8284 62.0501 39.7978L52.5469 35.2126C52.4988 35.1894 52.4463 35.1765 52.3929 35.1746C52.3395 35.1727 52.2863 35.1818 52.2366 35.2014C52.1869 35.2211 52.1418 35.2508 52.1041 35.2887C52.0664 35.3265 52.037 35.3718 52.0176 35.4216C48.5426 44.4524 43.9964 48.3337 42.6552 49.3306C42.6093 49.3648 42.5715 49.4087 42.5446 49.4592C42.5176 49.5097 42.5021 49.5655 42.4993 49.6227C42.4964 49.6798 42.5064 49.737 42.5286 49.7898C42.5504 49.8429 42.584 49.89 42.6265 49.9285L54.766 60.8992C54.8053 60.9345 54.8514 60.9614 54.9014 60.9783C54.9514 60.9952 55.0043 61.0018 55.057 60.9977C55.1096 60.9934 55.1608 60.9784 55.2075 60.9537C55.2541 60.9289 55.2953 60.895 55.3284 60.8538C62.4349 52.0721 62.3358 41.7967 62.2689 40.131Z" fill="#005BC3"/>
<path d="M47.3881 51.1786C47.2792 51.1786 47.3456 51.2137 46.1563 50.0586C46.1381 50.0409 46.1235 50.0197 46.1135 49.9964C46.1034 49.973 46.098 49.9479 46.0977 49.9225C46.0973 49.897 46.102 49.8718 46.1114 49.8482C46.1208 49.8245 46.1347 49.803 46.1525 49.7847C46.1702 49.7665 46.1913 49.7519 46.2147 49.7419C46.238 49.7318 46.2631 49.7265 46.2886 49.7261C46.314 49.7257 46.3392 49.7304 46.3629 49.7398C46.3865 49.7492 46.4081 49.7631 46.4263 49.7809L47.5231 50.8463C47.5506 50.8732 47.5695 50.9077 47.5774 50.9453C47.5852 50.983 47.5816 51.0221 47.567 51.0577C47.5524 51.0932 47.5276 51.1236 47.4958 51.1452C47.464 51.1667 47.4265 51.1783 47.3881 51.1786Z" fill="white"/>
<path d="M55.4403 52.3009C55.4142 52.3009 55.1991 52.2628 53.9004 52.041C53.8498 52.0322 53.8048 52.0038 53.7749 51.9621C53.7529 51.9308 53.7407 51.8937 53.7397 51.8555C53.7387 51.8174 53.749 51.7797 53.7694 51.7474C53.7897 51.715 53.8192 51.6894 53.854 51.6738C53.8889 51.6581 53.9276 51.6531 53.9653 51.6594L55.4728 51.9161C55.5205 51.9244 55.5634 51.9503 55.593 51.9887C55.6226 52.027 55.6368 52.0751 55.6327 52.1234C55.6286 52.1717 55.6066 52.2167 55.571 52.2496C55.5354 52.2824 55.4888 52.3008 55.4403 52.3009Z" fill="white"/>
<path d="M50.3815 45.9805C50.3499 45.9805 50.3187 45.9728 50.2908 45.958C50.2628 45.9432 50.2389 45.9218 50.2212 45.8957C50.2034 45.8695 50.1924 45.8394 50.189 45.808C50.1856 45.7765 50.19 45.7447 50.2017 45.7154C50.2171 45.676 50.2451 45.6428 50.2812 45.6209L51.59 44.8305C51.6117 44.8173 51.6359 44.8084 51.661 44.8045C51.6862 44.8006 51.7119 44.8017 51.7366 44.8078C51.7614 44.8139 51.7847 44.8247 51.8052 44.8398C51.8257 44.8549 51.8431 44.8739 51.8562 44.8957C51.8829 44.9397 51.891 44.9925 51.8789 45.0425C51.8664 45.0923 51.8349 45.1353 51.791 45.162C50.378 46.0141 50.4579 45.9805 50.3815 45.9805Z" fill="white"/>
<path d="M54.2222 58.3146C54.1745 58.3146 54.1286 58.297 54.0931 58.2652C54.0576 58.2334 54.0351 58.1897 54.0298 58.1423L53.8575 56.6231C53.8519 56.572 53.8667 56.5209 53.8985 56.4806C53.9183 56.4556 53.9439 56.4359 53.9732 56.4232C54.0025 56.4105 54.0344 56.4052 54.0662 56.4079C54.0979 56.4106 54.1286 56.4211 54.1553 56.4385C54.182 56.4559 54.204 56.4796 54.2193 56.5076C54.2317 56.53 54.2394 56.5544 54.2423 56.5797L54.4146 58.0989C54.4176 58.126 54.4148 58.1534 54.4066 58.1794C54.3983 58.2054 54.3847 58.2293 54.3666 58.2497C54.3484 58.27 54.3262 58.2863 54.3013 58.2975C54.2764 58.3086 54.2495 58.3145 54.2222 58.3146Z" fill="white"/>
<path d="M58.0498 45.7245C58.0052 45.7236 57.9622 45.7075 57.9281 45.6787C57.8939 45.65 57.8707 45.6104 57.8623 45.5665C57.8541 45.5226 57.8613 45.4772 57.8827 45.438C57.9041 45.3987 57.9384 45.3681 57.9797 45.3511L59.4048 44.7969C59.4285 44.7876 59.4538 44.7832 59.4792 44.7837C59.5046 44.7843 59.5297 44.7898 59.553 44.8001C59.5763 44.8103 59.5973 44.825 59.6149 44.8434C59.6325 44.8618 59.6463 44.8834 59.6555 44.9071C59.6647 44.9309 59.6692 44.9561 59.6686 44.9816C59.6681 45.007 59.6625 45.0321 59.6523 45.0553C59.642 45.0786 59.6273 45.0997 59.6089 45.1173C59.5906 45.1348 59.5689 45.1486 59.5452 45.1579C58.001 45.7575 58.1018 45.7245 58.0498 45.7245Z" fill="white"/>
<path d="M55.2784 41.6878C55.2343 41.6877 55.1916 41.6727 55.1573 41.645C55.1229 41.6174 55.099 41.5789 55.0895 41.5359L54.7598 40.0425C54.7498 39.9927 54.7597 39.941 54.7875 39.8985C54.8152 39.856 54.8585 39.826 54.908 39.8151C54.9576 39.8042 55.0095 39.8131 55.0525 39.84C55.0956 39.8669 55.1264 39.9096 55.1383 39.9589L55.4677 41.4523C55.474 41.4806 55.4739 41.51 55.4673 41.5382C55.4607 41.5665 55.4477 41.5929 55.4295 41.6154C55.4113 41.638 55.3883 41.6562 55.3623 41.6689C55.3361 41.6813 55.3074 41.6877 55.2784 41.6878Z" fill="white"/>
<path d="M16.6202 24.6416C15.4714 24.6416 13.7483 20.0466 13.7483 18.8978C18.5348 17.3661 27.6483 14.3027 28.1078 14.3027C28.5673 14.3027 30.0224 18.1319 30.4054 20.0466C26.0018 21.5782 17.5392 24.6416 16.6202 24.6416Z" fill="#FDAF31"/>
</svg>
