<svg width="50" height="50" viewBox="0 0 50 50" fill="none" xmlns="http://www.w3.org/2000/svg">
<path d="M15.2026 19.2377C14.3581 19.0524 10.1951 18.7062 9.27261 18.6277C9.07461 18.6109 9.10311 19.4777 8.52786 25.7247C8.44686 26.6039 8.34711 26.7142 8.49861 26.7159C9.41511 26.7267 13.2769 27.2204 14.5986 27.0797C14.8139 27.0567 14.5439 26.8879 15.0974 20.9972C15.2619 19.2432 15.2974 19.2584 15.2026 19.2377Z" fill="white"/>
<path d="M15.2026 19.2377C14.3581 19.0524 10.1951 18.7062 9.27261 18.6277C9.07461 18.6109 9.10311 19.4777 8.52786 25.7247C8.44686 26.6039 8.34711 26.7142 8.49861 26.7159C9.41511 26.7267 13.2769 27.2204 14.5986 27.0797C14.8139 27.0567 14.5439 26.8879 15.0974 20.9972C15.2619 19.2432 15.2974 19.2584 15.2026 19.2377ZM14.5164 26.9272C13.0981 27.0044 9.45336 26.5897 8.59811 26.5522C9.05711 21.9632 9.14436 20.3574 9.34811 18.7982C10.2466 18.8592 14.3034 19.2082 15.0904 19.3849C14.7926 22.2499 14.6511 24.4482 14.5164 26.9272Z" fill="#87E4FF"/>
<path d="M13.9424 20.7802C12.6866 20.7014 11.4386 20.5679 10.1944 20.4224C10.0889 20.4102 10.0889 20.5744 10.1944 20.5867C11.4444 20.7324 12.6926 20.8687 13.9424 20.9444C14.0479 20.9499 14.0479 20.7869 13.9424 20.7802Z" fill="#87E4FF"/>
<path d="M13.8485 21.9533C12.5927 21.8743 11.345 21.7408 10.1007 21.5953C9.9952 21.583 9.99495 21.7473 10.1007 21.7595C11.3507 21.9053 12.6007 22.0073 13.8485 22.1175C13.9545 22.1268 13.954 21.9598 13.8485 21.9533Z" fill="#87E4FF"/>
<path d="M13.7529 23.0911C12.4972 23.0123 11.2502 22.8788 10.0049 22.7333C9.89941 22.7211 9.89941 22.8853 10.0049 22.8976C11.2549 23.0433 12.5032 23.1796 13.7529 23.2553C13.8584 23.2618 13.8584 23.0978 13.7529 23.0911Z" fill="#87E4FF"/>
<path d="M13.7021 24.223C12.4464 24.1443 11.1984 24.0108 9.95413 23.8653C9.84863 23.853 9.84863 24.0173 9.95413 24.0295C11.2041 24.1753 12.4541 24.277 13.7021 24.3873C13.8079 24.3968 13.8076 24.2298 13.7021 24.223Z" fill="#87E4FF"/>
<path d="M7.64808 20.3696C7.2764 19.9322 7.0221 19.4074 6.90908 18.8446C7.31508 18.4231 7.88008 17.2294 7.39583 16.9971C7.29882 16.9577 7.19102 16.9536 7.09129 16.9855C6.99156 17.0175 6.90626 17.0836 6.85033 17.1721C6.53408 17.6319 6.72708 18.7659 6.72708 18.7909C6.06008 19.4244 5.47508 18.9506 5.29008 18.1339C5.74647 17.6661 6.0121 17.045 6.03508 16.3919C6.00158 15.8669 5.32883 15.8099 5.14358 16.4859C5.01011 17.008 4.99805 17.5537 5.10833 18.0811C4.77678 18.4094 4.36041 18.6389 3.90583 18.7439C3.88658 18.7515 3.87089 18.7661 3.86185 18.7848C3.8528 18.8034 3.85105 18.8247 3.85694 18.8446C3.86283 18.8645 3.87593 18.8814 3.89368 18.8921C3.91142 18.9028 3.93252 18.9065 3.95283 18.9024C4.40329 18.7996 4.81831 18.5789 5.15533 18.2629C5.27608 18.6916 5.56833 19.1781 6.00533 19.2424C6.14181 19.2529 6.27898 19.2349 6.40811 19.1895C6.53724 19.1441 6.6555 19.0723 6.75533 18.9786C6.88247 19.5358 7.14427 20.0534 7.51783 20.4859C7.60108 20.5761 7.71858 20.4516 7.64808 20.3696ZM5.43083 16.2696C5.55358 16.1164 5.81383 16.0781 5.87083 16.3516C5.94783 16.7214 5.65583 17.4549 5.24908 17.9294C5.24908 17.9046 5.08583 16.6999 5.43083 16.2699V16.2696ZM7.40758 17.3839C7.36461 17.8488 7.17568 18.2881 6.86783 18.6391C6.61408 16.9719 7.44133 16.8914 7.40758 17.3841V17.3839Z" fill="#87E4FF"/>
<path d="M48.5221 12.7212C48.4954 12.1732 48.4929 11.6752 47.9884 11.4485C47.2134 11.1007 37.5446 11.2607 36.4864 11.2902C35.2921 11.3235 34.6709 11.2777 34.3456 11.6772C34.0656 12.0212 34.0316 12.1645 34.3631 18.569C34.5409 22.0028 34.2974 22.2373 35.8236 22.2703C37.3091 22.302 47.4896 22.2587 47.5191 22.2585C48.3029 22.2517 48.6329 22.0703 48.6746 21.2145C48.8381 17.8658 48.6856 16.07 48.5221 12.7212Z" fill="white"/>
<path d="M48.5221 12.7212C48.4954 12.1732 48.4929 11.6752 47.9884 11.4485C47.2134 11.1007 37.5446 11.2607 36.4864 11.2902C35.2921 11.3235 34.6709 11.2777 34.3456 11.6772C34.0656 12.0212 34.0316 12.1645 34.3631 18.569C34.5409 22.0028 34.2974 22.2373 35.8236 22.2703C37.3091 22.302 47.4896 22.2587 47.5191 22.2585C48.3029 22.2517 48.6329 22.0703 48.6746 21.2145C48.8381 17.8658 48.6856 16.07 48.5221 12.7212ZM48.5631 20.1763C48.4881 22.361 48.6776 22.1065 45.7831 22.1178C43.2751 22.1273 41.4364 22.1117 41.4081 22.1117C35.0226 22.1117 34.8389 22.3132 34.7041 21.4842C34.6369 21.075 34.3231 14.25 34.3046 13.2432C34.2779 11.7992 34.2236 11.5043 35.7474 11.4838C38.0651 11.4528 45.0406 11.3032 47.3491 11.513C48.4889 11.5537 48.3131 12.1353 48.4106 13.9355C48.5201 15.9543 48.6314 18.1655 48.5631 20.1763Z" fill="#292929"/>
<path d="M40.5214 14.1876C40.5718 14.7368 40.4195 15.2855 40.0931 15.7301C39.0009 17.4781 36.1526 16.4181 36.6796 14.1349C36.7224 13.9486 36.9219 14.2469 38.7676 14.7741C38.9284 12.7741 38.9194 12.7991 38.9319 12.7741C38.8889 12.4729 40.3601 12.6749 40.5214 14.1876ZM40.1401 15.1671C40.6774 14.0114 39.9401 12.7624 39.0901 12.8504C38.9316 14.8924 38.9651 14.9986 38.8261 14.9676C38.1527 14.7735 37.4891 14.5465 36.8379 14.2874C36.6446 16.1606 39.2991 16.9761 40.1401 15.1671Z" fill="#292929"/>
<path d="M40.1864 13.6596C40.5814 14.6541 40.0142 15.8904 39.0312 16.1114C37.7499 16.3994 36.6999 15.4446 36.8199 14.2814C37.4708 14.5414 38.1344 14.7685 38.8082 14.9619C38.9379 14.9906 38.9067 14.9771 39.0722 12.8444C39.5942 12.7974 40.0124 13.2214 40.1864 13.6596Z" fill="#87E4FF"/>
<path d="M38.5283 14.2051C38.5283 14.2586 38.499 14.2459 38.499 14.2801C38.5105 14.3329 38.4638 14.4091 38.399 14.3801C37.742 14.1396 37.1028 13.8639 36.474 13.5706C36.4138 13.5456 36.4473 13.4794 36.4155 13.3361C36.338 13.1811 36.7208 11.9111 38.4978 12.0224C38.6253 12.0654 38.5633 12.1881 38.5283 14.2051ZM38.358 14.0761C38.3758 13.4486 38.3993 12.8261 38.4168 12.1991C37.3065 12.1509 36.7138 12.6946 36.581 13.2549C37.1733 13.5306 37.7658 13.7946 38.358 14.0761Z" fill="#292929"/>
<path d="M38.4218 12.2C38.4101 12.8277 38.3866 13.45 38.3631 14.077C37.7706 13.802 37.1723 13.5375 36.5801 13.2557C36.7268 12.6682 37.3201 12.1522 38.4218 12.2Z" fill="#003F88"/>
<path d="M42.3572 13.261C42.4967 13.273 45.9645 13.2728 46.1052 13.2375C46.1261 13.2311 46.1436 13.2168 46.1541 13.1977C46.1645 13.1785 46.167 13.156 46.161 13.135C46.1547 13.114 46.1403 13.0964 46.1211 13.086C46.1018 13.0755 46.0793 13.0731 46.0582 13.0793C46.0832 13.0743 42.5932 13.117 42.3582 13.0908C42.259 13.0908 42.2475 13.261 42.3572 13.261Z" fill="#292929"/>
<path d="M42.3817 14.4459C42.5212 14.4581 45.9889 14.4576 46.1297 14.4224C46.1401 14.4194 46.1498 14.4143 46.1583 14.4075C46.1667 14.4007 46.1737 14.3923 46.1789 14.3828C46.1841 14.3732 46.1873 14.3627 46.1884 14.3519C46.1894 14.3411 46.1884 14.3302 46.1852 14.3199C46.1821 14.3095 46.177 14.2998 46.1702 14.2914C46.1634 14.2829 46.155 14.2759 46.1455 14.2708C46.136 14.2656 46.1255 14.2623 46.1147 14.2612C46.104 14.2601 46.0931 14.2611 46.0827 14.2641C46.1077 14.2591 42.6177 14.3021 42.3827 14.2759C42.2692 14.2699 42.2729 14.4459 42.3817 14.4459Z" fill="#292929"/>
<path d="M46.4054 20.7218H36.5987C36.4932 20.7276 36.4932 20.8968 36.5987 20.8861H46.3762C46.5319 20.8848 46.5034 20.7201 46.4054 20.7218Z" fill="#87E4FF"/>
<path d="M37.4432 19.877C37.5002 19.5653 37.8107 18.3425 37.9004 18.5223C38.2372 19.061 38.5839 20.6415 39.0737 20.0238C39.3157 19.7185 39.8199 17.8548 40.0354 18.0705C40.1899 18.2248 40.4639 19.505 40.9854 19.8595C41.7084 20.3505 41.4604 18.1665 42.5397 15.701C42.9714 16.605 42.7532 17.5563 43.5369 19.144C43.6554 19.3843 43.9799 19.98 44.2232 19.8653C44.3802 19.7903 44.2827 19.5728 44.7509 18.962C45.1239 18.476 45.0372 18.4103 45.5194 19.842C45.5532 19.942 45.7132 19.9005 45.6777 19.795C45.3027 18.6808 45.2959 18.5128 45.0794 18.4813C44.7872 18.4383 44.3272 19.278 44.2172 19.5545C44.2057 19.5838 44.1822 19.6895 44.1527 19.6953C44.0089 19.7363 43.5897 18.8885 43.4489 18.5398C42.9384 17.2753 43.1074 16.3103 42.5989 15.4605C42.2649 14.9028 41.2937 19.5915 41.2382 19.6778C41.0972 19.8963 40.8019 19.4153 40.6809 19.185C40.3042 18.4675 40.1474 17.063 39.5372 18.446C39.3177 18.9435 39.0734 19.806 38.9037 19.9475C38.8037 20.0303 38.7399 19.8828 38.6927 19.8068C38.1957 19.011 38.0462 17.6268 37.6074 18.6805C37.4704 19.0499 37.3664 19.4307 37.2967 19.8185C37.2672 19.9358 37.4237 19.9823 37.4432 19.877Z" fill="#87E4FF"/>
<path d="M38.4399 37.05C36.7637 35.7489 35.0644 34.4779 33.3429 33.2375C33.2971 33.1737 33.3254 33.1965 14.2746 33.1965L14.2159 33.2375C12.4969 34.4813 10.7978 35.7522 9.11914 37.05C9.15289 37.064 9.60714 37.075 10.3796 37.087C10.4241 38.8795 10.4219 37.8747 10.4151 41.842C10.4151 41.842 37.1201 42.3347 37.2609 42.235C37.3811 42.15 37.2859 41.7537 37.2509 37.0877C37.9779 37.0777 38.4049 37.0652 38.4399 37.05Z" fill="white"/>
<path d="M38.4863 37.0039C35.8863 34.9911 33.3203 33.1269 33.2953 33.1269C33.2703 33.1219 14.2378 33.1019 14.2153 33.1679C14.1343 33.1679 10.132 36.2211 9.07728 37.0039C9.06333 37.0219 9.05493 37.0435 9.05311 37.0662C9.05129 37.0889 9.05613 37.1117 9.06704 37.1316C9.07794 37.1516 9.09444 37.168 9.11451 37.1787C9.13458 37.1895 9.15735 37.1941 9.18003 37.1921C9.31028 37.1951 9.70853 37.1976 10.318 37.1999C10.418 38.7416 10.4348 40.2874 10.368 41.8309C10.3635 41.9131 10.493 41.9131 10.497 41.8309C10.5633 40.2876 10.5466 38.7419 10.447 37.2004C15.9763 37.2201 37.0758 37.2181 37.1758 37.2154L37.2603 42.2416C37.2603 42.2586 37.267 42.2751 37.2793 42.2871C37.2852 42.2932 37.2923 42.298 37.3001 42.3013C37.3079 42.3045 37.3163 42.3062 37.3248 42.3062C37.3333 42.3062 37.3416 42.3045 37.3495 42.3013C37.3573 42.298 37.3643 42.2932 37.3703 42.2871C37.3763 42.2812 37.3811 42.2741 37.3844 42.2663C37.3876 42.2585 37.3893 42.2501 37.3893 42.2416L37.3143 37.2114C37.4785 37.2114 38.252 37.2046 38.4213 37.1811C38.5438 37.1641 38.5573 37.0749 38.4863 37.0039ZM9.29928 36.9921C13.0608 34.0829 14.2613 33.3399 14.2613 33.2706H33.2335C33.3085 33.3601 35.181 34.6366 38.2505 36.9979C35.6608 37.1599 9.32603 36.9921 9.29928 36.9921Z" fill="#292929"/>
<path d="M18.874 10.2522C18.6779 9.71194 18.4467 9.18515 18.1817 8.67516C17.8567 8.08941 17.7317 7.91841 17.09 8.07291C16.657 8.17716 13.7127 8.9569 13.5952 9.06815C12.9745 9.65565 13.1855 10.5694 13.378 11.2969C13.6851 12.455 14.1178 13.5761 14.6685 14.6402C15.1617 15.6902 15.5515 16.8152 16.3285 16.5699C17.7775 16.1149 19.1103 15.3504 20.2347 14.3294C21.2007 13.4084 19.957 13.0967 18.874 10.2522Z" fill="#292929"/>
<path d="M20.2282 14.135C19.6339 14.5281 19.0104 14.8751 18.3632 15.173C15.7417 16.5085 16.0247 16.5965 15.1194 14.8562C14.4845 13.5828 13.9738 12.2512 13.5944 10.8798C13.4444 10.391 13.0839 9.56575 13.5767 9.073C13.7489 8.90075 13.9347 8.80125 15.7352 8.15225C18.3149 7.22225 18.0752 7.48375 19.5352 10.9735C20.6817 13.71 20.8502 13.6313 20.2282 14.135Z" fill="#003F88"/>
<path d="M18.2763 9.10819C17.7703 7.80269 17.5446 8.14369 16.9566 8.33319C14.5366 9.11644 13.8186 9.33644 13.8186 9.65819C13.6948 9.90569 14.0536 10.7209 14.1706 10.9427C14.4168 11.4097 14.8456 11.1539 15.1956 11.0177C16.3956 10.5562 17.1318 10.2952 17.7118 9.96769C18.2388 9.67494 18.4553 9.57044 18.2763 9.10819Z" fill="white"/>
<path d="M15.442 11.6362C15.3965 11.6085 15.3448 11.5928 15.2915 11.5903C15.2383 11.5879 15.1853 11.5988 15.1374 11.6222C15.0895 11.6456 15.0483 11.6806 15.0175 11.7241C14.9866 11.7675 14.9672 11.818 14.961 11.871C14.8953 12.1732 15.1165 12.3872 15.307 12.3342C15.3849 12.3238 15.4575 12.2892 15.5146 12.2353C15.5718 12.1814 15.6105 12.1109 15.6254 12.0337C15.6404 11.9566 15.6307 11.8768 15.5978 11.8054C15.5649 11.7341 15.5104 11.6749 15.442 11.6362Z" fill="white"/>
<path d="M16.1276 13.1321C16.0821 13.1044 16.0303 13.0885 15.9771 13.086C15.9239 13.0835 15.8709 13.0945 15.823 13.1178C15.7751 13.1412 15.7338 13.1762 15.703 13.2197C15.6722 13.2632 15.6528 13.3137 15.6466 13.3666C15.5808 13.6691 15.8021 13.8829 15.9926 13.8301C16.07 13.819 16.142 13.784 16.1986 13.7301C16.2552 13.6762 16.2936 13.6059 16.3084 13.5292C16.3233 13.4524 16.3138 13.3729 16.2814 13.3018C16.249 13.2306 16.1953 13.1713 16.1276 13.1321Z" fill="white"/>
<path d="M16.8151 14.6219C16.7696 14.5943 16.7178 14.5786 16.6646 14.5761C16.6115 14.5737 16.5585 14.5847 16.5106 14.608C16.4628 14.6313 16.4215 14.6663 16.3907 14.7097C16.3599 14.7531 16.3404 14.8035 16.3341 14.8564C16.2683 15.1589 16.4896 15.3729 16.6801 15.3199C16.7575 15.3088 16.8295 15.2738 16.8861 15.2199C16.9427 15.1659 16.9811 15.0957 16.9959 15.0189C17.0108 14.9422 17.0013 14.8627 16.9689 14.7915C16.9365 14.7204 16.8828 14.6611 16.8151 14.6219Z" fill="white"/>
<path d="M18.4264 10.4867C18.3809 10.459 18.3292 10.4432 18.2759 10.4407C18.2227 10.4382 18.1697 10.4491 18.1218 10.4724C18.0739 10.4958 18.0326 10.5308 18.0018 10.5743C17.971 10.6178 17.9516 10.6683 17.9454 10.7212C17.8797 11.0235 18.1009 11.2375 18.2914 11.1847C18.3693 11.1743 18.4419 11.1397 18.499 11.0858C18.5562 11.0319 18.5949 10.9614 18.6098 10.8843C18.6247 10.8071 18.6151 10.7273 18.5822 10.656C18.5492 10.5846 18.4948 10.5254 18.4264 10.4867Z" fill="white"/>
<path d="M19.1549 11.7949C19.1094 11.7671 19.0577 11.7512 19.0044 11.7486C18.9512 11.7461 18.8981 11.757 18.8502 11.7804C18.8023 11.8038 18.761 11.8388 18.7302 11.8823C18.6994 11.9259 18.68 11.9764 18.6739 12.0294C18.6082 12.3316 18.8294 12.5456 19.0199 12.4926C19.0977 12.4822 19.1702 12.4475 19.2273 12.3936C19.2844 12.3397 19.3231 12.2693 19.338 12.1922C19.3529 12.1152 19.3432 12.0354 19.3104 11.9641C19.2776 11.8928 19.2232 11.8336 19.1549 11.7949Z" fill="white"/>
<path d="M19.8462 13.2375C19.8007 13.2098 19.749 13.1939 19.6957 13.1914C19.6425 13.1889 19.5895 13.1998 19.5416 13.2232C19.4937 13.2465 19.4525 13.2816 19.4217 13.3251C19.3909 13.3685 19.3716 13.4191 19.3654 13.472C19.2994 13.7745 19.5207 13.9885 19.7114 13.9355C19.7882 13.9234 19.8593 13.8879 19.9152 13.8339C19.9711 13.7799 20.0089 13.7101 20.0237 13.6338C20.0384 13.5575 20.0292 13.4785 19.9975 13.4076C19.9657 13.3367 19.9129 13.2773 19.8462 13.2375Z" fill="white"/>
<path d="M16.9614 11.0732C16.9159 11.0454 16.8642 11.0296 16.811 11.0271C16.7577 11.0246 16.7047 11.0355 16.6569 11.0589C16.609 11.0822 16.5677 11.1173 16.5369 11.1608C16.5061 11.2042 16.4868 11.2548 16.4807 11.3077C16.4147 11.6102 16.6359 11.8239 16.8267 11.7712C16.9034 11.7591 16.9745 11.7236 17.0304 11.6696C17.0863 11.6156 17.1242 11.5457 17.1389 11.4695C17.1536 11.3932 17.1445 11.3142 17.1127 11.2433C17.081 11.1724 17.0281 11.113 16.9614 11.0732Z" fill="white"/>
<path d="M17.6823 12.4458C17.6368 12.4181 17.585 12.4023 17.5318 12.3998C17.4786 12.3973 17.4255 12.4082 17.3776 12.4315C17.3297 12.4549 17.2885 12.4899 17.2577 12.5334C17.2268 12.5769 17.2075 12.6274 17.2013 12.6803C17.1355 12.9828 17.3568 13.1966 17.5473 13.1438C17.6247 13.1327 17.6967 13.0978 17.7533 13.0438C17.8099 12.9899 17.8483 12.9196 17.8631 12.8429C17.878 12.7661 17.8685 12.6866 17.8361 12.6155C17.8037 12.5443 17.7499 12.485 17.6823 12.4458Z" fill="white"/>
<path d="M21.1083 11.0087C21.1095 11.032 21.1196 11.0539 21.1365 11.0699C21.1534 11.086 21.1758 11.0949 21.1992 11.0949C21.2225 11.0949 21.2449 11.086 21.2618 11.0699C21.2787 11.0539 21.2888 11.032 21.29 11.0087C21.2913 10.0041 20.9288 9.03296 20.2695 8.27494C20.1928 8.18719 20.0695 8.31594 20.1403 8.40394C20.7658 9.12746 21.1095 10.0523 21.1083 11.0087Z" fill="#292929"/>
<path d="M22.1582 11.8766C22.1462 11.9939 22.3252 11.9944 22.3399 11.8766C22.4852 10.5975 22.1916 9.30698 21.5072 8.21665C21.4489 8.12265 21.2902 8.2109 21.3487 8.3104C21.9977 9.38007 22.2818 10.6316 22.1582 11.8766Z" fill="#292929"/>
<path d="M47.1677 31.989C47.035 31.6128 46.8763 31.2463 46.6927 30.8922C46.6806 30.8739 46.6621 30.8608 46.6408 30.8555C46.6195 30.8501 46.597 30.8529 46.5777 30.8632C46.5649 30.8701 46.554 30.8801 46.5462 30.8922C46.4712 31.0422 45.4767 31.634 45.4962 30.3525C45.4977 30.2455 45.3572 30.232 44.9799 30.1707C44.4734 30.0885 44.2799 30.0207 44.2644 30.1297C44.2284 30.3767 44.1644 30.7642 43.8597 30.81C43.5784 30.8522 43.2967 30.5402 43.1734 30.329C43.1658 30.3146 43.1539 30.3029 43.1393 30.2956C43.1247 30.2883 43.1082 30.2858 43.0922 30.2885C43.0815 30.2902 43.0713 30.294 43.0622 30.2997C42.7207 30.5417 42.399 30.8104 42.1002 31.1032C42.086 31.1172 42.0772 31.1357 42.0753 31.1555C42.0734 31.1752 42.0785 31.1951 42.0897 31.2115C42.0969 31.2222 42.1064 31.2315 42.1177 31.2382C42.5257 31.4337 42.7224 31.8477 42.4287 32.1415C42.1924 32.3777 41.6154 32.108 41.6192 32.3292C41.6297 32.671 41.6609 33.0117 41.7129 33.3497C41.7379 33.522 42.4704 33.2457 42.6629 33.6312C42.8037 33.9127 42.5809 34.212 42.4224 34.4232C42.3322 34.5135 42.6847 34.7417 42.8037 34.8277C43.3537 35.2255 43.3909 35.2505 43.4489 35.168C43.9159 34.505 44.3924 34.866 44.5047 35.5317C44.5089 35.5498 44.5196 35.5656 44.5347 35.5764C44.5498 35.5871 44.5682 35.5921 44.5867 35.5902C44.9823 35.5509 45.3744 35.4823 45.7599 35.385C45.8219 35.3737 45.8547 35.2862 45.7657 35.1972C45.5742 34.91 45.5907 34.3485 46.0707 34.3C46.3922 34.2675 46.5547 34.4162 46.6457 34.341C46.8318 34.0158 46.9776 33.6692 47.0799 33.3087C47.1397 33.142 46.5049 33.1435 46.5519 32.6812C46.6002 32.225 47.2112 32.163 47.1677 31.989ZM44.8927 33.5375C44.7397 33.5971 44.574 33.616 44.4116 33.5923C44.2492 33.5686 44.0957 33.5032 43.9662 33.4025C43.5827 33.0832 43.6957 32.5742 43.6729 32.5275C43.6874 32.4025 43.7308 32.2826 43.7997 32.1774C43.8686 32.0721 43.9611 31.9844 44.0698 31.9212C44.1786 31.8579 44.3006 31.8209 44.4262 31.8131C44.5518 31.8053 44.6774 31.827 44.7932 31.8762C45.5722 32.218 45.3582 33.329 44.8919 33.5375H44.8927Z" fill="#292929"/>
<path d="M45.8944 28.6632C45.4167 28.5369 45.1459 27.9422 44.9854 27.4727C45.4104 26.7817 45.6724 25.2957 45.2259 25.0619C44.5509 24.7089 44.5592 26.6522 44.8094 27.4619C44.0074 28.7392 42.9494 28.5162 42.4047 27.0869C42.7434 26.4692 42.9449 25.0799 42.6862 24.7527C42.4677 24.4762 42.0079 24.5229 41.9647 25.3157C41.9312 25.9078 42.0191 26.5006 42.2229 27.0577C41.3559 28.5327 39.9177 27.8937 39.8229 25.7557C39.8182 25.6499 39.6479 25.6499 39.6587 25.7557C39.7127 26.9807 40.3314 28.3189 41.4182 27.9727C41.7831 27.8277 42.0944 27.5737 42.3097 27.2454C42.9347 28.8089 44.2059 28.7499 44.8729 27.6384C44.9957 28.0679 45.3544 28.6707 45.8467 28.8172C45.8619 28.8217 45.8781 28.8218 45.8934 28.8172C45.9086 28.8127 45.9222 28.8038 45.9324 28.7917C45.9461 28.7752 45.9527 28.754 45.9509 28.7327C45.9493 28.7168 45.943 28.7018 45.933 28.6895C45.923 28.6772 45.9096 28.668 45.8944 28.6632ZM42.1289 25.4842C42.1289 24.5757 42.5274 24.6592 42.6157 24.9622C42.6786 25.609 42.582 26.2614 42.3342 26.8622C42.1961 26.4159 42.1268 25.9513 42.1289 25.4842ZM44.9209 27.2439C44.7284 26.4957 44.7959 24.8382 45.1959 25.2379C45.5294 25.6332 44.9967 27.3197 44.9209 27.2439Z" fill="#003F88"/>
<path d="M25.0254 26.4404C25.1036 26.4404 24.3504 27.0684 24.2279 27.1089C24.1969 27.1089 23.2341 26.3839 23.2246 26.3699C23.3009 26.1412 23.3911 25.8567 23.4791 25.6279C23.8321 26.1324 24.3986 26.5284 25.0254 26.4404Z" fill="white"/>
<path d="M36.8594 16.7591C36.6614 16.6424 36.4174 16.6644 36.0559 16.6301C35.4754 16.5751 35.4902 16.6369 35.8094 16.4834C35.9749 16.4039 35.8564 16.1084 35.6804 16.1784C35.2287 16.3596 34.7239 16.2646 34.2669 16.3896C33.6447 16.5596 33.6742 16.6896 33.7567 17.3926C33.6449 17.7274 33.8694 17.5466 36.0264 17.8676C36.0912 17.9029 36.2014 17.8556 36.2787 17.8501C36.319 17.849 36.3576 17.8337 36.3877 17.8068C36.4178 17.78 36.4373 17.7433 36.4429 17.7034C36.4652 17.5311 36.2929 17.5739 36.5309 17.5451C36.6479 17.5309 36.7539 17.3866 36.6717 17.2869C36.7419 17.2519 36.9332 17.3119 36.9592 17.1226C36.9642 17.0767 36.9516 17.0306 36.9239 16.9936C36.9767 16.9409 36.9479 16.8111 36.8594 16.7591Z" fill="white"/>
<path d="M27.4083 23.1911C27.378 23.1108 27.3232 23.0421 27.2516 22.9947C27.18 22.9474 27.0953 22.9237 27.0096 22.9271C27.0646 22.4621 27.0861 21.9936 27.0741 21.5254C27.0736 21.482 27.0562 21.4405 27.0255 21.4098C26.9948 21.379 26.9533 21.3616 26.9098 21.3611C26.7266 21.3835 26.5408 21.3528 26.3745 21.2728C26.2082 21.1928 26.0682 21.0667 25.9713 20.9096C25.9584 20.8883 25.9408 20.8701 25.9199 20.8564C25.899 20.8428 25.8753 20.8339 25.8506 20.8306C25.8259 20.8273 25.8008 20.8294 25.777 20.837C25.7533 20.8446 25.7315 20.8574 25.7133 20.8744C25.6561 20.9358 25.5858 20.9837 25.5077 21.0146C25.4296 21.0455 25.3457 21.0586 25.2619 21.0529C25.1781 21.0473 25.0966 21.0231 25.0233 20.9821C24.9501 20.941 24.8869 20.8842 24.8383 20.8156C24.6331 20.5546 24.4861 21.2334 23.5246 21.5606C23.5035 21.5663 23.4837 21.5762 23.4666 21.5897C23.4494 21.6032 23.4352 21.6201 23.4247 21.6393C23.4143 21.6585 23.4079 21.6796 23.4059 21.7014C23.4039 21.7232 23.4063 21.7451 23.4131 21.7659C23.4241 21.7956 23.4401 21.8234 23.4601 21.8479C23.4083 22.1301 23.3195 22.4042 23.1961 22.6631C23.1063 22.6497 23.0146 22.6583 22.9289 22.6883C22.8432 22.7182 22.766 22.7686 22.7042 22.8351C22.6424 22.9016 22.5977 22.9822 22.574 23.0698C22.5503 23.1575 22.5484 23.2496 22.5683 23.3381C22.7041 23.8179 23.1383 23.6976 23.5011 23.6381C23.4495 23.9279 23.4795 24.2264 23.5876 24.5001C23.9721 25.5599 25.2071 26.0284 25.7376 25.0334C25.7788 24.9539 25.8141 24.8716 25.8431 24.7869C26.5091 25.3319 27.0118 24.4139 27.4971 23.7724C27.5678 23.5974 27.6973 23.3356 27.4083 23.1911Z" fill="white"/>
<path d="M32.0543 26.5225C35.5321 22.5145 35.4923 22.4547 35.4506 21.2555C35.4458 21.1185 35.3096 18.4305 35.2981 17.8055C35.2961 17.6935 35.2621 17.7142 34.0428 17.6237C33.3983 17.576 33.3248 17.4442 33.2393 17.9112C33.0146 19.1674 32.9066 20.4417 32.9166 21.7177C32.9166 22.0237 33.0283 21.8662 30.4356 23.712C28.8731 24.8242 28.5728 25.0952 28.3408 25.144C28.1816 25.1777 28.0543 25.1067 27.5733 25.1315C26.6671 25.178 25.9193 25.7202 25.9193 25.8065C25.5733 26.176 24.7943 26.874 24.7581 26.8915C24.3753 27.1872 24.2733 27.1355 23.8781 26.915C23.6137 26.7716 23.3588 26.6114 23.1148 26.4355C23.1519 26.3076 23.146 26.1712 23.0981 26.047C18.7598 21.5722 18.8878 21.85 18.9863 20.6865C19.3086 16.8865 19.5718 16.9405 19.2153 16.7917C18.8438 16.6885 18.4653 16.612 18.0831 16.5632C17.6403 16.5042 17.5186 16.4587 17.4028 16.962C16.5226 20.7917 16.2316 21.3167 17.0861 23.103C17.6036 24.1847 18.3778 25.653 18.8281 26.4405C18.3096 26.922 17.4303 28.3775 17.0156 29.2155C16.6213 28.3583 16.179 27.524 15.6906 26.7167C15.6825 26.7028 15.6704 26.6916 15.6559 26.6845C15.6414 26.6774 15.6251 26.6748 15.6091 26.677C15.5985 26.6785 15.5883 26.682 15.5791 26.6875C15.0741 26.9375 14.5843 27.2175 14.1128 27.5262C13.8816 27.6807 13.8348 27.7392 14.1598 28.928C14.4788 30.095 15.2683 32.3045 15.9956 33.157C16.8383 34.1447 18.0193 33.7607 18.5413 33.2392C18.5663 33.2392 28.3913 33.1892 28.4413 33.063L29.5501 33.7082C29.5031 33.7727 29.6088 33.8727 29.6848 33.8082C31.2433 32.4815 32.8666 31.055 33.6616 29.116C33.7751 28.8769 33.8158 28.6098 33.7788 28.3477C33.6441 27.6165 32.6911 26.9045 32.0543 26.5225Z" fill="#87E4FF"/>
<path d="M32.1651 26.4289C32.1825 26.4414 32.1946 26.4601 32.1988 26.4812C32.2033 26.5023 32.1996 26.5243 32.1883 26.5427C32.1774 26.5612 32.1597 26.5747 32.1391 26.5807C32.1185 26.5868 32.0963 26.585 32.0771 26.5754C30.98 25.8591 29.7307 25.4092 28.4288 25.2617C28.3233 25.2497 28.3231 25.0822 28.4288 25.0974C29.7577 25.258 31.0341 25.7128 32.1651 26.4289Z" fill="#292929"/>
<path d="M30.6289 28.7984C30.7172 28.7344 30.7932 28.8807 30.7169 28.9452C30.2419 29.2869 29.1799 31.6952 28.9749 32.1299C28.9279 32.2299 28.7849 32.1407 28.8284 32.0419C29.1064 31.4114 30.1192 29.1689 30.6289 28.7984Z" fill="#292929"/>
<path d="M30.4645 23.5723C30.5572 23.6111 30.4852 23.7646 30.3825 23.7131C30.0434 23.5676 29.6991 23.4346 29.3502 23.3143C29.2502 23.2796 29.291 23.1161 29.397 23.1558C29.7532 23.2893 30.108 23.4228 30.4645 23.5723Z" fill="#292929"/>
<path d="M30.2537 22.1822C30.3595 22.1532 30.4002 22.3162 30.3007 22.3404C29.9257 22.4317 29.5542 22.5357 29.1802 22.6629C29.0802 22.6972 29.034 22.5349 29.1335 22.5047C29.5097 22.3904 29.8845 22.2832 30.2537 22.1822Z" fill="#292929"/>
<path d="M29.3799 20.9445C29.3924 20.9268 29.4112 20.9144 29.4324 20.9099C29.4536 20.9053 29.4758 20.909 29.4944 20.92C29.5132 20.931 29.5269 20.949 29.5327 20.97C29.5387 20.9909 29.5366 21.0132 29.5267 21.0325C29.3092 21.3799 29.0722 21.7148 28.8169 22.0355C28.7569 22.109 28.6209 22.0158 28.6997 21.9183C28.9462 21.608 29.1734 21.2828 29.3799 20.9445Z" fill="#292929"/>
<path d="M28.4907 20.3612C28.4272 20.249 28.2854 20.279 28.2092 20.3317C27.9744 20.3905 27.7517 20.455 27.5229 20.5317C28.3349 19.29 27.9767 19.238 26.7729 19.8865C27.1442 19.2865 26.9317 19.081 26.6439 19.2415C25.2777 20.003 25.4689 20.0515 25.5294 19.869C25.6337 19.6212 25.7669 19.4327 25.6584 19.3C25.5142 19.0982 25.2427 19.3937 25.1247 19.4935C25.0997 19.5142 24.4917 20.0185 24.3747 20.1212C24.3972 20.0312 24.4092 19.9387 24.4099 19.8462C24.3924 19.648 24.1472 19.5335 23.8879 19.8285C23.2016 20.5869 22.8427 21.5857 22.8892 22.6075C22.8069 22.6266 22.7296 22.6632 22.6624 22.7146C22.5953 22.766 22.5399 22.8311 22.5 22.9056C22.46 22.9801 22.4363 23.0622 22.4306 23.1465C22.4249 23.2309 22.4372 23.3155 22.4667 23.3947C22.5237 23.5427 22.6359 23.6628 22.7796 23.7298C22.9233 23.7968 23.0874 23.8054 23.2374 23.754C22.9442 24.2585 23.0732 24.9565 23.3197 25.4492C23.3729 25.5025 23.3499 25.4582 23.0909 26.2175C23.0557 26.1822 23.0409 26.096 22.9344 26.0175C22.5059 25.7042 20.9379 25.626 20.3987 25.6547C19.8488 25.645 19.3117 25.8206 18.8737 26.1532C18.7917 26.224 18.9079 26.346 18.9909 26.2705C19.7357 25.594 21.8659 25.7205 22.7974 26.124C22.5624 26.2262 22.3387 26.352 22.1289 26.499C22.1177 26.5057 22.1081 26.5148 22.1009 26.5258C22.0936 26.5367 22.089 26.5492 22.0873 26.5622C22.0857 26.5752 22.0869 26.5884 22.0911 26.6009C22.0953 26.6133 22.1022 26.6246 22.1114 26.634C23.7364 28.7565 23.5514 28.705 23.8299 28.2527C23.7407 29.3885 23.3402 34.3882 23.3664 34.4407C23.6012 34.781 23.8414 35.1157 24.0937 35.4437C24.1999 35.603 24.8007 34.7057 24.8974 34.558C24.9179 34.5267 24.9094 34.508 24.9092 34.4817C24.8054 25.6007 24.6932 28.9912 25.0092 28.5987C25.4024 28.11 26.2509 26.8952 26.2762 26.3582C26.286 26.2515 26.2647 26.1443 26.2147 26.0495C26.1647 25.9548 26.0883 25.8766 25.9947 25.8245C26.5527 25.1127 26.4842 23.902 25.6544 23.367C25.1739 23.057 25.3877 23.428 25.4317 22.392C25.4434 22.2865 25.2727 22.2865 25.2674 22.392C25.2549 22.6478 25.2255 22.9025 25.1794 23.1545C24.1969 22.8995 23.5459 23.5157 23.0982 23.614C22.6154 23.72 22.4077 23.0202 22.8369 22.7997C23.1219 22.6537 23.2469 22.8772 23.3354 22.753C23.4254 22.753 23.6957 21.9127 23.7227 21.8262C24.2262 21.7482 24.6877 21.2307 24.8312 21.14C24.9299 21.0775 25.0354 21.4422 25.6812 21.2807C25.9292 21.2357 25.9682 21.1515 26.0562 21.2397C26.3297 21.5135 26.5657 21.7397 26.9594 21.7207C26.9447 22.767 26.7544 23.1835 26.9769 23.058C26.9965 23.0495 27.0176 23.0451 27.039 23.045C27.0603 23.0448 27.0815 23.049 27.1012 23.0572C27.1209 23.0654 27.1388 23.0775 27.1537 23.0927C27.1687 23.108 27.1804 23.1261 27.1882 23.146C27.2174 23.246 27.3807 23.199 27.3464 23.099C27.3238 23.0321 27.2802 22.9743 27.2221 22.9342C27.164 22.894 27.0945 22.8737 27.0239 22.8762C27.0764 22.4812 27.1059 22.0837 27.1119 21.6855C27.4642 21.6085 28.6487 20.6395 28.4907 20.3612ZM23.6069 28.3112C23.1729 27.7422 22.7319 27.1862 22.2989 26.616C22.4962 26.4768 22.7087 26.3607 22.9324 26.27C23.0354 26.4882 23.2409 26.605 23.7654 26.9915C23.8842 27.098 24.0163 27.1886 24.1584 27.2612C24.0146 27.6309 23.8296 27.9832 23.6069 28.3115V28.3112ZM24.1642 35.25C23.9529 34.9625 23.7359 34.675 23.5367 34.375C23.5867 34.2725 24.0632 27.985 24.0632 27.985C24.0632 27.985 24.2322 27.548 24.2992 27.3835C24.4067 27.5415 24.5009 27.7082 24.5807 27.882C24.6212 28.246 24.7449 34.257 24.7449 34.4922C24.5746 34.7618 24.3802 35.0154 24.1642 35.25ZM25.3079 26.3932C25.3664 26.3055 25.5969 26.3015 25.9004 25.9532L25.9062 25.9592C26.5739 26.2227 25.4202 27.8032 24.9794 28.3697C24.8327 27.9585 24.6294 27.5697 24.3754 27.2145C24.7214 26.9835 25.035 26.7074 25.3079 26.3935V26.3932ZM25.0382 26.4402H25.0499C24.8307 26.6777 24.5824 26.8865 24.3107 27.0617C24.2357 27.0992 24.2722 27.1312 24.1817 27.0677C24.1567 27.0497 23.2774 26.398 23.2432 26.3637C23.3197 26.1352 23.3959 25.9122 23.4837 25.6835C23.6468 25.9416 23.8787 26.1493 24.1533 26.283C24.4279 26.4167 24.7343 26.4712 25.0382 26.4405V26.4402Z" fill="#292929"/>
<path d="M26.2297 22.7751C26.2297 22.9213 26.0464 23.0398 25.9364 22.8751C25.7829 22.6696 26.2297 22.5018 26.2297 22.7751Z" fill="#292929"/>
<path d="M24.7454 34.4877C24.572 34.7622 24.3757 35.0214 24.1586 35.2627C23.9283 34.9781 23.7205 34.6761 23.5371 34.3592C23.5464 33.5957 24.0414 28.0325 24.0414 28.0072C24.0414 27.8822 24.1554 27.766 24.2936 27.3972C24.6324 27.8677 24.5704 27.9102 24.5869 28.06C24.6356 29.5227 24.7454 34.4625 24.7454 34.4877Z" fill="#87E4FF"/>
<path d="M24.5704 22.3523C24.6934 22.5573 24.3841 22.7188 24.2889 22.5273C24.1819 22.3143 24.4426 22.225 24.5704 22.3523Z" fill="#292929"/>
<path d="M19.4957 30.5227C19.5292 30.4227 19.6887 30.464 19.654 30.5695C19.3744 31.4165 19.1799 32.2893 19.0732 33.175C19.0607 33.2805 18.8935 33.281 18.9092 33.175C19.0263 32.2753 19.2226 31.3878 19.4957 30.5227Z" fill="#292929"/>
<path d="M17.3495 30.3408C17.3555 30.4465 17.1922 30.4463 17.1852 30.3408C17.1582 29.9638 17.0934 29.5905 16.9917 29.2265C16.987 29.2109 16.9871 29.1942 16.992 29.1786C16.9968 29.163 17.0062 29.1492 17.0188 29.1389C17.0315 29.1286 17.047 29.1223 17.0633 29.1208C17.0795 29.1193 17.0959 29.1227 17.1102 29.1305C17.1197 29.1356 17.1282 29.1426 17.135 29.151C17.1418 29.1594 17.1469 29.1691 17.15 29.1795C17.2537 29.5593 17.3207 29.9483 17.3495 30.3408Z" fill="#292929"/>
<path d="M27.4151 22.8921C27.3236 23.1261 27.2126 23.3518 27.0831 23.5671C26.7151 24.1326 26.6581 24.1758 26.4058 24.5671C26.2518 24.6463 26.0558 24.5783 25.7376 25.1806C25.5196 25.5936 25.5163 25.9161 25.9603 26.0606C26.7023 26.3018 27.3103 25.4021 27.7316 24.7583C27.9877 24.4049 28.1857 24.0129 28.3183 23.5971C28.5973 22.5463 27.7656 22.0911 27.4151 22.8921Z" fill="#87E4FF"/>
<path d="M25.9251 25.5078C26.5528 25.502 26.9416 24.954 27.2391 24.4578C27.5571 23.927 27.8871 23.3665 27.9141 22.7328C27.9183 22.627 27.7543 22.627 27.7498 22.7328C27.7248 23.3133 27.4218 23.8358 27.1281 24.3223C26.8588 24.7683 26.5123 25.331 25.9256 25.337C25.8268 25.3388 25.8018 25.509 25.9251 25.5078Z" fill="white"/>
<path d="M26.9047 24.2586C26.9251 24.2567 26.9441 24.2472 26.9579 24.232C26.9717 24.2168 26.9794 24.197 26.9794 24.1765C26.9794 24.156 26.9717 24.1362 26.9579 24.121C26.9441 24.1058 26.9251 24.0963 26.9047 24.0944C26.8843 24.0963 26.8653 24.1058 26.8515 24.121C26.8377 24.1362 26.8301 24.156 26.8301 24.1765C26.8301 24.197 26.8377 24.2168 26.8515 24.232C26.8653 24.2472 26.8843 24.2567 26.9047 24.2586Z" fill="white"/>
<path d="M26.6875 24.5693C26.7036 24.5691 26.7193 24.5642 26.7326 24.5551C26.746 24.5461 26.7564 24.5333 26.7625 24.5184C26.7687 24.5035 26.7704 24.4871 26.7673 24.4713C26.7643 24.4555 26.7567 24.4409 26.7455 24.4293C26.734 24.418 26.7193 24.4103 26.7035 24.4072C26.6876 24.4041 26.6712 24.4057 26.6562 24.4119C26.6413 24.4181 26.6285 24.4285 26.6195 24.442C26.6105 24.4554 26.6056 24.4712 26.6055 24.4873C26.6056 24.509 26.6143 24.5298 26.6296 24.5452C26.645 24.5605 26.6658 24.5692 26.6875 24.5693Z" fill="white"/>
<path d="M27.1625 23.8655C27.183 23.8636 27.2019 23.8541 27.2157 23.8389C27.2295 23.8237 27.2372 23.8039 27.2372 23.7834C27.2372 23.7629 27.2295 23.7431 27.2157 23.7279C27.2019 23.7127 27.183 23.7032 27.1625 23.7013C27.1421 23.7032 27.1231 23.7127 27.1093 23.7279C27.0955 23.7431 27.0879 23.7629 27.0879 23.7834C27.0879 23.8039 27.0955 23.8237 27.1093 23.8389C27.1231 23.8541 27.1421 23.8636 27.1625 23.8655Z" fill="white"/>
<path d="M36.888 17.025L36.894 17.0223C37.0047 16.9625 36.9715 16.8223 36.888 16.7473C36.699 16.578 36.2345 16.5433 35.807 16.5625C35.8917 16.521 35.9632 16.457 36.0142 16.3778C36.0336 16.3202 36.0298 16.2573 36.0034 16.2025C35.9771 16.1477 35.9304 16.1054 35.8732 16.0845C35.7345 16.0494 35.5879 16.0617 35.457 16.1195C34.584 16.3505 34.0405 16.1945 33.7267 16.6195C33.507 16.9153 33.6737 17.2588 33.709 17.5815C33.7061 17.5922 33.7055 17.6034 33.7074 17.6144C33.7092 17.6253 33.7135 17.6357 33.7197 17.6448C33.7262 17.6538 33.7345 17.6612 33.7441 17.6666C33.7537 17.672 33.7644 17.6753 33.7754 17.6761C33.7864 17.677 33.7975 17.6754 33.8078 17.6716C33.8181 17.6677 33.8275 17.6617 33.8352 17.6538C33.8429 17.6459 33.8488 17.6363 33.8522 17.6258C33.8557 17.615 33.857 17.604 33.8557 17.593C33.8066 17.4155 33.7739 17.2338 33.7582 17.0503C33.7485 16.816 33.8425 16.5753 34.2662 16.4845C34.659 16.4008 34.844 16.4655 35.4392 16.2968C35.5392 16.2685 35.7102 16.1835 35.8087 16.25C35.9275 16.33 35.703 16.425 35.6445 16.4553C35.5645 16.4965 35.438 16.562 35.3362 16.607C35.2325 16.6215 35.1427 16.6383 35.0757 16.6548C35.0587 16.6603 35.0507 16.6818 35.0532 16.707C34.8175 17.039 34.408 16.982 34.4715 17.1298C34.474 17.1403 34.4787 17.1503 34.485 17.1588C34.4915 17.1674 34.4997 17.1747 34.5091 17.1802C34.5184 17.1857 34.5288 17.1893 34.5395 17.1908C34.5502 17.1921 34.5611 17.1913 34.5715 17.1883C34.8108 17.1201 35.0254 16.9841 35.1892 16.7968C35.5502 16.7175 36.4122 16.6565 36.73 16.807C37.2105 16.9993 36.151 16.7225 35.557 16.9128C35.4685 16.941 35.4802 17.0865 35.5745 17.077C35.797 17.0543 36.0202 17.0388 36.243 17.03C36.4755 17.0208 37.429 17.2355 36.29 17.2178C36.165 17.2158 36.0367 17.2143 35.9097 17.2203C35.4545 17.2045 35.6157 17.4025 35.686 17.3938C35.7911 17.3818 35.897 17.377 36.0027 17.3795C36.188 17.3985 36.4362 17.359 36.5712 17.3795C36.59 17.3825 36.6647 17.4733 36.537 17.5123C36.1635 17.626 35.778 17.3638 35.4925 17.4815C35.473 17.4863 35.4558 17.498 35.4443 17.5145C35.4328 17.531 35.4276 17.5511 35.4297 17.571C35.432 17.591 35.4413 17.6095 35.4561 17.6232C35.4708 17.6368 35.4899 17.6448 35.51 17.6455C36.46 17.6455 36.497 17.884 35.9147 17.7748C35.8897 17.7718 35.1307 17.6665 35.0055 17.6455C34.9 17.634 34.8532 17.7913 34.9587 17.804C36.1972 17.954 36.31 18.027 36.425 17.8685C36.4485 17.8448 36.4645 17.8146 36.4708 17.7818C36.4771 17.749 36.4735 17.7151 36.4605 17.6843C36.5204 17.6828 36.5791 17.6675 36.632 17.6394C36.6849 17.6113 36.7305 17.5713 36.7652 17.5225C36.7796 17.5005 36.7852 17.4739 36.7811 17.448C36.7769 17.422 36.7633 17.3985 36.7427 17.382C36.8677 17.3598 36.951 17.3085 36.9645 17.2C36.9674 17.1668 36.9619 17.1334 36.9485 17.1028C36.9352 17.0722 36.9143 17.0455 36.888 17.025Z" fill="#292929"/>
<path d="M17.6536 16.0822C17.7181 16.2169 17.6594 16.3284 17.6536 16.4752C17.6414 16.5727 17.8179 16.5927 17.8179 16.4752C17.8754 15.7749 17.6189 16.0187 17.6536 16.0822Z" fill="#292929"/>
<path d="M25.3266 15.39C25.2879 15.29 25.1289 15.3368 25.1684 15.437C25.4559 16.1754 25.7909 16.8945 26.1714 17.5895C26.2194 17.677 26.3589 17.5955 26.3061 17.5015C25.939 16.8173 25.612 16.1122 25.3266 15.39Z" fill="#87E4FF"/>
<path d="M27.3442 17.4249C27.3942 16.5974 27.4979 15.7719 27.5964 14.9499C27.6089 14.8444 27.4509 14.7974 27.4379 14.9029C27.3359 15.7369 27.2302 16.5799 27.1799 17.4192C27.1791 17.4302 27.1805 17.4412 27.1839 17.4517C27.1875 17.4622 27.1932 17.4718 27.2006 17.4801C27.208 17.4884 27.2169 17.4951 27.2269 17.4999C27.237 17.5046 27.2478 17.5072 27.2589 17.5076C27.27 17.5081 27.281 17.5063 27.2914 17.5024C27.3122 17.4941 27.3289 17.4779 27.3379 17.4574C27.3421 17.4471 27.3442 17.4361 27.3442 17.4249Z" fill="#87E4FF"/>
<path d="M28.2354 16.792C28.6374 16.1287 29.0231 15.459 29.4084 14.792C29.4179 14.7727 29.4198 14.7505 29.4136 14.73C29.4077 14.7092 29.3942 14.6914 29.3757 14.6803C29.3572 14.6692 29.3352 14.6655 29.3141 14.67C29.293 14.6743 29.2744 14.6865 29.2619 14.704C28.8689 15.3727 28.4819 16.0415 28.0889 16.704C28.0781 16.7233 28.0753 16.7461 28.081 16.7676C28.0868 16.789 28.1006 16.8073 28.1196 16.8187C28.1386 16.8301 28.1613 16.8337 28.1829 16.8287C28.2045 16.8237 28.2233 16.8106 28.2354 16.792Z" fill="#87E4FF"/>
<path d="M25.5484 24.1881C25.5449 24.1436 25.5112 24.1061 25.4312 24.1061C24.4742 23.9886 24.3409 23.8576 24.3224 24.0241C24.2989 24.4381 24.1854 24.8806 24.5224 25.1266C24.6967 25.226 24.9023 25.2554 25.0974 25.2088C25.4694 25.1118 25.5774 24.5723 25.5484 24.1881Z" fill="white"/>
<path d="M19.385 14.6391C18.7012 14.1424 18.573 13.9391 18.3057 14.0586C18.0385 14.1781 18.5657 15.1554 18.6695 15.1554C18.59 15.2943 18.5326 15.4446 18.4992 15.6011C18.4582 15.7829 17.8242 16.0234 17.8242 16.0411V16.5219C18.0472 16.5571 19.1147 16.7449 19.1557 16.7624C19.232 16.6979 19.273 16.4164 19.3492 16.3401C19.5242 16.0715 19.6734 15.7869 19.795 15.4901C19.86 15.2844 19.5312 14.7454 19.385 14.6391Z" fill="white"/>
<path d="M19.2906 16.7097C19.4461 16.0545 20.1206 15.5797 19.8711 15.0265C19.7174 14.685 19.3296 14.459 18.9961 14.223C18.7306 14.0342 18.6016 13.9062 18.4274 13.9062C18.3854 13.9072 18.3441 13.9175 18.3066 13.9363C18.2691 13.9552 18.2362 13.9822 18.2104 14.0153C18.1846 14.0484 18.1664 14.0868 18.1572 14.1278C18.1481 14.1688 18.1481 14.2113 18.1574 14.2522C18.2332 14.5457 18.367 14.8209 18.5509 15.0618C18.6689 15.1795 18.6049 15.1428 18.5216 15.2788C18.3722 15.5246 18.316 15.816 18.3634 16.0998C18.3789 16.2058 18.5451 16.1585 18.5216 16.0527C18.4251 15.4527 18.8466 15.2458 18.7504 15.0675C18.7369 15.0425 18.0621 14.1712 18.3691 14.082C18.4514 14.0527 18.5339 14.1225 18.5979 14.1643C18.6256 14.1823 19.2394 14.6295 19.3429 14.7098C20.2289 15.3965 19.3061 15.8025 19.1024 16.6688C19.1086 16.7685 19.2669 16.8095 19.2906 16.7097Z" fill="#292929"/>
<path d="M29.9127 33.6196C29.9078 33.6451 29.8974 33.6691 29.8821 33.69C29.8667 33.7109 29.847 33.7281 29.8242 33.7404C29.8014 33.7527 29.7762 33.7598 29.7503 33.7611C29.7245 33.7625 29.6986 33.758 29.6747 33.7482C29.6427 33.7351 29.6153 33.7128 29.5959 33.6841C29.4562 33.5309 29.5104 33.3074 29.4082 33.1389C29.4011 33.1281 29.3918 33.119 29.3809 33.1121C29.37 33.1052 29.3577 33.1007 29.3449 33.0989C29.3321 33.0973 29.3191 33.0984 29.3068 33.1023C29.2944 33.1061 29.2831 33.1125 29.2734 33.1211C29.1937 33.2009 28.8379 33.4817 28.7632 33.4497C28.5382 33.3377 29.3164 32.6939 29.4669 32.6461C29.9734 32.4856 29.9127 33.0951 29.9127 33.6196Z" fill="white"/>
<path d="M29.5014 33.8193C29.2517 33.8671 28.9956 33.8711 28.7446 33.831C28.6099 33.8295 28.4791 33.7856 28.3707 33.7056C28.2623 33.6256 28.1818 33.5135 28.1406 33.3853C28.3796 33.3853 28.3061 33.3353 28.8034 32.963C28.709 33.0391 28.6329 33.1353 28.5804 33.2445C28.4989 33.4458 28.6634 33.7303 29.0204 33.4968C29.1129 33.436 29.2081 33.3675 29.2954 33.2968C29.2976 33.4903 29.3709 33.6763 29.5014 33.8193Z" fill="white"/>
<path d="M29.2841 32.5404C29.2423 32.5577 29.1991 32.5714 29.1551 32.5817C28.3963 32.9387 28.2051 33.3597 28.1403 33.1974C28.1016 33.0814 28.7428 31.6022 29.2841 32.5404Z" fill="white"/>
<path d="M28.5753 32.1886C28.2003 32.4469 28.1286 32.9636 27.8598 33.0214C27.3583 33.1271 28.2586 31.8501 28.5753 32.1886Z" fill="white"/>
<path d="M28.0702 32.1252C27.9537 32.2319 27.846 32.3477 27.7477 32.4712C27.685 32.4399 27.138 32.4839 27.126 32.4477C27.1002 32.3714 27.5937 32.1019 28.0702 32.1252Z" fill="white"/>
<path d="M30.075 33.6196C30.075 33.8196 29.944 33.8786 29.8122 33.9229C29.389 34.0644 28.4645 34.1309 28.1452 33.7429C28.0247 33.5846 27.9387 33.4027 27.893 33.2091C27.6397 33.2996 27.401 33.0739 27.588 32.7399C27.6032 32.7074 27.621 32.6761 27.641 32.6461C27.2727 32.6461 26.9032 32.7224 26.966 32.4174C27.0392 32.0644 28.2122 31.8831 28.28 32.0174C28.3545 31.9917 28.4351 31.9898 28.5107 32.0118C28.5863 32.0339 28.6533 32.0789 28.7022 32.1406C29.1522 31.9476 29.4077 32.4926 29.4472 32.4926C30.0772 32.3401 30.075 32.9841 30.075 33.6196ZM29.9185 33.4234C29.9095 32.9761 29.917 32.4984 29.4707 32.6401C29.2868 32.726 29.126 32.8545 29.0017 33.0151C28.905 33.1139 28.6017 33.3724 28.767 33.4434C28.8487 33.4784 29.2097 33.1726 29.2772 33.1149C29.2866 33.1056 29.298 33.0987 29.3105 33.0946C29.3229 33.0904 29.336 33.0891 29.349 33.0909C29.362 33.0926 29.3744 33.0972 29.3854 33.1044C29.3963 33.1115 29.4055 33.1211 29.4122 33.1324C29.5087 33.2986 29.4557 33.5229 29.6 33.6779C29.708 33.7934 29.9277 33.8414 29.9195 33.4234H29.9185ZM29.4935 33.8191C29.3652 33.6801 29.2938 33.498 29.2935 33.3089C29.1185 33.4589 28.8022 33.7089 28.6365 33.5494C28.4402 33.3601 28.6305 33.1449 28.8007 32.9744C28.4327 33.2319 28.3557 33.4161 28.1507 33.3966C28.125 33.3969 28.275 34.0514 29.4952 33.8191H29.4935ZM29.2095 32.5521C29.2161 32.5503 29.2222 32.5469 29.2272 32.5424C29.2348 32.5354 29.2397 32.5259 29.241 32.5157C29.2424 32.5054 29.24 32.4951 29.2345 32.4864C29.1455 32.3491 29.0327 32.2159 28.8595 32.2414C28.418 32.3064 28.1147 33.1566 28.1322 33.2091C28.1782 33.3241 28.3505 33.1014 28.578 32.9341C28.7648 32.7703 28.9792 32.6409 29.2112 32.5521H29.2095ZM28.5667 32.1944C28.3127 31.9011 27.6137 32.7904 27.687 32.9921C27.703 33.0149 27.726 33.0318 27.7525 33.0403C27.779 33.0488 27.8075 33.0484 27.8337 33.0391C28.1267 32.9751 28.0662 32.5961 28.5685 32.1944H28.5667ZM28.0625 32.1241C27.5125 32.0979 26.9595 32.4526 27.171 32.4526C27.7315 32.4526 27.7062 32.4474 27.7397 32.4641C27.8344 32.3389 27.9433 32.2251 28.0642 32.1251L28.0625 32.1241Z" fill="#292929"/>
<path d="M15.5495 25.1794C15.308 24.9381 13.855 24.7544 13.872 25.2499C13.8797 25.4749 14.122 25.4399 14.4762 25.5724C14.4114 25.8292 14.3975 26.0962 14.4352 26.3584C14.4477 26.4466 14.5397 26.4181 14.6697 26.7104C14.657 27.1674 14.7615 27.0946 13.878 27.1034C13.828 27.1694 13.8065 27.0871 14.089 27.5784C14.1372 27.5534 15.4817 26.7556 15.491 26.7221C15.5292 26.5821 15.4735 26.2411 15.526 26.1061C15.638 25.8189 15.7782 25.4081 15.5495 25.1794Z" fill="white"/>
<path d="M14.082 27.3786C14.0878 27.3846 14.0878 27.3904 14.0938 27.3964C14.011 27.2861 13.9785 27.1581 13.8885 27.2214C13.8792 27.2267 13.871 27.2338 13.8644 27.2423C13.8579 27.2508 13.8531 27.2606 13.8503 27.2709C13.8476 27.2813 13.8469 27.2921 13.8484 27.3028C13.8499 27.3134 13.8535 27.3237 13.859 27.3329C13.9268 27.4511 14.0738 27.6829 14.134 27.5616C14.1883 27.4856 14.1418 27.4584 14.082 27.3786Z" fill="#292929"/>
<path d="M15.4489 24.9801C15.1019 24.8774 14.7431 24.8202 14.3814 24.8098C13.6144 24.8098 13.5944 25.4211 14.0119 25.5548C14.1784 25.6063 14.3474 25.6493 14.5184 25.6836C14.3893 26.0236 14.3886 26.399 14.5164 26.7396C14.5559 26.8396 14.7146 26.7928 14.6749 26.6926C14.5498 26.3612 14.556 25.9945 14.6924 25.6676C14.7109 25.6208 14.6981 25.5561 14.6454 25.5501C14.1126 25.4436 13.9124 25.4016 13.9064 25.2628C13.8686 24.8778 14.6334 24.9878 15.0149 25.0693C15.3041 25.1316 15.8209 25.1411 15.5839 25.8443C15.4839 26.1431 15.3089 26.4366 15.4256 26.7591C15.4666 26.8341 15.6299 26.7888 15.5956 26.6888C15.4751 26.3388 15.7456 26.0081 15.8009 25.6741C15.8384 25.5353 15.8232 25.3876 15.7582 25.2594C15.6932 25.1313 15.583 25.0317 15.4489 24.9801Z" fill="#292929"/>
<path d="M29.0318 29.2501C28.9881 27.8829 28.7656 28.3649 22.5036 28.3056C18.2161 28.2651 18.1071 28.2556 17.9228 28.6341C17.7258 29.0391 17.7478 33.0164 17.7586 33.5316C17.8218 36.5991 17.5501 35.7751 23.3601 35.8191C28.5123 35.8581 28.4291 35.8916 28.7101 35.7079C29.0721 35.4704 29.0351 34.9344 29.0681 34.3646C29.1768 32.4959 29.0981 31.3251 29.0318 29.2501Z" fill="#292929"/>
<path d="M23.448 32.4116C23.5427 32.4089 23.6327 32.3695 23.6988 32.3016C23.7649 32.2338 23.802 32.1428 23.8022 32.0481C23.8022 31.9532 23.7652 31.8622 23.699 31.7942C23.6329 31.7263 23.5428 31.6869 23.448 31.6843C23.3532 31.687 23.2633 31.7265 23.1971 31.7944C23.131 31.8623 23.0939 31.9533 23.0938 32.0481C23.0938 32.1429 23.1308 32.2339 23.197 32.3018C23.2632 32.3697 23.3532 32.4091 23.448 32.4116Z" fill="white"/>
<path d="M4.82573 28.3409C5.32798 29.2107 5.32448 29.3379 5.44748 29.2852C5.57073 29.2149 5.51198 29.1504 5.00173 28.2707C4.91348 28.1462 4.77373 28.2502 4.82573 28.3409Z" fill="#292929"/>
<path d="M7.44257 31.7664C7.43057 31.7414 5.93082 28.9349 5.90582 28.9099C5.83807 28.8312 5.81732 28.8287 4.89107 29.4554C4.8796 29.4635 4.87034 29.4743 4.86413 29.4868C4.85792 29.4994 4.85497 29.5133 4.85554 29.5274C4.85611 29.5414 4.86019 29.555 4.8674 29.567C4.87462 29.579 4.88473 29.5891 4.89682 29.5962C6.57732 32.9269 6.49682 32.9234 7.17857 32.4584C7.60482 32.1682 7.61532 32.1344 7.44257 31.7664Z" fill="#003F88"/>
<path d="M4.93133 24.3407C3.58133 23.5207 1.44458 24.3422 1.27133 26.2352C1.08733 28.2447 2.57758 29.3367 3.96358 29.0917C6.28258 28.6817 6.59008 25.3502 4.93133 24.3407Z" fill="#003F88"/>
<path d="M4.61506 24.8395C4.34092 24.6834 4.03179 24.5992 3.7164 24.5947C3.401 24.5901 3.08957 24.6654 2.81104 24.8134C2.53251 24.9614 2.29591 25.1775 2.12322 25.4414C1.95054 25.7054 1.84737 26.0087 1.82331 26.3232C1.67531 27.7982 2.84156 28.6612 3.91131 28.4525C5.67706 28.108 5.86481 25.5852 4.61506 24.8395ZM5.23106 26.5645C5.07856 29.0045 1.86006 28.7247 2.01081 26.4765C2.16306 24.2097 5.38006 24.1752 5.23081 26.5637V26.5645H5.23106Z" fill="white"/>
<path d="M3.69361 25.7014C3.47536 26.1557 3.26661 26.6264 3.04836 27.0799C2.99711 27.1862 3.17211 27.2619 3.22336 27.1501C3.43686 26.6939 3.65736 26.2294 3.86836 25.7719C3.92811 25.6664 3.74461 25.5952 3.69336 25.7014H3.69361Z" fill="white"/>
<path d="M3.92286 26.3469C3.75279 26.7558 3.56885 27.1588 3.37136 27.5551C3.31836 27.6606 3.48986 27.7376 3.54636 27.6256C3.74707 27.2308 3.93106 26.8277 4.09786 26.4174C4.10276 26.4005 4.10289 26.3827 4.09824 26.3657C4.09359 26.3488 4.08434 26.3335 4.07153 26.3215C4.05871 26.3095 4.04282 26.3013 4.02563 26.2978C4.00843 26.2943 3.9906 26.2956 3.97411 26.3016C3.95198 26.3098 3.9337 26.3259 3.92286 26.3469Z" fill="white"/>
<path d="M7.33063 8.87956C5.48313 8.84906 4.88063 8.59656 4.86163 9.37806C4.86163 9.40306 4.83513 11.1006 4.83813 11.7831C4.84563 13.5796 5.03613 13.5016 6.18113 13.5016C10.9311 13.5016 10.6626 13.8498 10.7209 12.1348C10.8506 8.33531 11.5099 8.95006 7.33088 8.87956H7.33063Z" fill="#FCC2C2"/>
<path d="M5.10273 9.09079C5.66123 10.2715 7.32773 11.6408 7.65423 11.7535C8.52923 12.0598 9.53673 10.3035 10.6397 9.27254C10.7337 9.18479 10.5917 9.04754 10.499 9.13179C9.64773 9.89504 8.54898 11.6038 7.85948 11.5953C7.62586 11.5523 7.41328 11.4326 7.25548 11.255C6.46373 10.5873 5.70698 9.93404 5.27298 8.99104C5.22148 8.87904 5.04673 8.97229 5.10273 9.09079Z" fill="#292929"/>
</svg>
