<svg width="50" height="41" viewBox="0 0 50 41" fill="none" xmlns="http://www.w3.org/2000/svg">
<path d="M41.6562 13.9482C41.515 13.9151 41.3683 13.9135 41.2264 13.9437C41.0845 13.974 40.9511 14.0351 40.8356 14.1229C41.0678 13.4841 40.4038 13.2078 40.206 12.8309C40.1653 12.7295 40.136 12.6239 40.1187 12.516C41.6114 12.3673 40.705 9.69403 39.6648 9.1641C39.4858 9.07616 39.2986 9.00587 39.106 8.95422C37.3601 6.92894 33.7461 6.4924 31.3192 7.81933C30.3939 8.32565 28.9447 9.94929 29.1367 11.6954C27.7886 13.046 28.6677 16.347 29.9398 15.7111C29.8532 16.0549 29.8532 16.4148 29.9398 16.7586C29.0688 17.9082 29.4996 18.0649 30.1843 18.7315C30.0095 19.3611 30.2126 20.5343 30.5967 20.9535C31.432 19.805 37.0424 17.0265 41.3968 17.0205C42.6453 16.2906 42.6282 14.2714 41.6562 13.9482Z" fill="white"/>
<path d="M40.8683 14.0347C40.8045 14.0981 40.8074 14.0785 40.8507 14.1218C41.6141 13.4759 42.5297 14.2577 42.3872 15.3965C42.6037 15.4324 43.1659 15.0575 43.0507 14.6805C43.0024 14.5231 42.7865 14.4534 42.8062 14.2789C42.8377 13.9992 43.1252 13.7702 42.9636 13.4759C42.828 13.2293 42.2975 13.2151 42.2128 12.9871C42.1225 12.7437 42.669 12.4624 42.5098 12.2187C42.3345 11.9511 41.2227 12.0193 40.9034 11.9393C40.8337 12.3237 40.5362 12.4457 40.1875 12.4805C40.4409 13.4924 41.2093 13.6952 40.8683 14.0347Z" fill="#87E4FF"/>
<path d="M43.8731 19.5866C43.8731 18.2827 43.2099 17.4792 42.4239 17.2121C39.4857 16.2152 31.8515 19.3578 30.6214 20.8962C29.5757 22.2032 30.1442 24.0705 30.8837 24.4404C30.8837 24.5042 32.0931 23.9176 33.7645 24.2657C34.1842 23.0028 36.6723 21.912 37.9024 21.4198C37.9733 21.4198 41.8213 19.5866 43.8731 19.5866Z" fill="#87E4FF"/>
<path d="M41.4457 17.0465C41.4169 17.0465 41.3889 17.037 41.366 17.0195C41.3431 17.002 41.3266 16.9774 41.319 16.9496C41.3115 16.9217 41.3134 16.8922 41.3243 16.8655C41.3353 16.8389 41.3547 16.8165 41.3796 16.802C43.1617 15.7671 41.8936 12.6832 40.5595 14.6833C40.5501 14.6978 40.5378 14.7102 40.5235 14.7198C40.5092 14.7294 40.4931 14.736 40.4761 14.7392C40.4592 14.7427 40.4418 14.7427 40.4249 14.7394C40.4079 14.736 40.3918 14.7294 40.3775 14.7198C40.2146 14.6109 40.4257 14.4457 40.5611 14.2009C40.5913 14.1579 40.6288 14.1206 40.6721 14.0907C41.6016 13.3136 42.5195 13.9747 42.5195 15.3964C42.466 16.3618 41.6443 17.0465 41.4457 17.0465Z" fill="#414141"/>
<path d="M40.7305 16.086C40.7035 16.0853 40.6771 16.0771 40.6545 16.0621C40.6319 16.0472 40.614 16.0262 40.6028 16.0015C40.4611 15.6604 41.7353 14.886 41.7862 15.2932C41.8164 15.5353 41.4436 15.3406 41.033 15.7512C40.8035 15.9928 40.8615 16.086 40.7305 16.086Z" fill="#414141"/>
<path d="M30.6092 21.0405C30.5693 21.0358 30.5329 21.0158 30.5074 20.9849C29.9489 20.3754 29.8633 18.4779 30.2553 18.5873C30.2719 18.5919 30.2875 18.5996 30.3011 18.6102C30.3146 18.6208 30.326 18.634 30.3345 18.649C30.343 18.664 30.3484 18.6805 30.3505 18.6976C30.3526 18.7147 30.3512 18.7321 30.3466 18.7486C30.1766 19.3604 30.3621 20.4379 30.701 20.8075C30.7193 20.8265 30.7317 20.8504 30.7368 20.8763C30.7419 20.9021 30.7395 20.9289 30.7298 20.9534C30.7202 20.978 30.7037 20.9992 30.6823 21.0146C30.6609 21.0301 30.6355 21.039 30.6092 21.0405Z" fill="#414141"/>
<path d="M39.7752 9.06336C39.6119 8.98259 39.4417 8.91648 39.2667 8.86582C37.2853 6.64141 33.6828 6.35966 31.2915 7.66875C30.415 8.14831 28.8691 9.79136 29.0354 11.6165C27.7958 13.0481 28.432 15.8927 29.6752 15.8927C29.8392 15.8927 29.7901 15.8334 29.7915 16.0501C29.7088 17.1291 30.1469 16.9048 30.1023 16.7117C30.0396 16.408 30.0316 16.0955 30.0787 15.789C31.0357 15.3236 32.7625 13.5636 37.1357 12.8899C38.1044 12.7562 39.0811 12.6886 40.059 12.6876C40.1023 12.8547 40.4494 13.5027 40.6076 13.5027C40.6323 13.5028 40.6566 13.4958 40.6775 13.4826C40.6985 13.4694 40.7153 13.4506 40.7259 13.4282C40.7367 13.406 40.7409 13.3811 40.7381 13.3565C40.7353 13.3319 40.7255 13.3087 40.7099 13.2894C40.5527 13.102 40.426 12.8911 40.3345 12.6643C40.5076 12.6478 40.6704 12.5746 40.7975 12.456C40.9246 12.3373 41.0089 12.18 41.0373 12.0084C41.1957 11.5404 40.993 9.69482 39.7752 9.06336ZM31.4167 7.89882C33.7253 6.63617 37.0801 7.04726 38.8134 8.76114C35.9277 8.29627 31.3608 9.47865 29.2846 11.3662C29.2678 9.75385 30.6294 8.32959 31.4167 7.89882ZM29.9155 15.5747C28.8116 16.1256 28.0128 13.0079 29.2636 11.7516C29.5668 11.4474 29.9025 11.1775 30.2647 10.9467C30.1939 11.3255 30.1579 11.7099 30.1572 12.0953C30.1572 12.9298 30.2928 14.0912 30.9292 14.9333C30.6167 15.1848 30.2766 15.3999 29.9155 15.5747ZM31.1567 14.799C30.2511 13.6297 30.3117 11.2311 30.6097 10.7494C31.3064 10.3302 32.0463 9.98713 32.8165 9.7263C32.9411 10.5834 33.5482 12.5334 33.8328 13.4665C32.8916 13.8046 31.9934 14.2521 31.1567 14.8V14.799ZM34.0797 13.3773C33.7982 12.4565 33.2114 10.5939 33.0697 9.64419C33.827 9.40344 34.6021 9.22248 35.3878 9.10297C36.1666 10.1547 36.7005 11.3673 36.9505 12.6519C35.9725 12.8013 35.0111 13.0446 34.0797 13.3784V13.3773ZM39.4866 12.4358C37.189 12.4864 37.2095 12.7102 37.1929 12.569C37.0862 11.6424 36.381 10.0141 35.6839 9.06021C36.5605 8.94937 37.4454 8.91864 38.3276 8.96839C39.076 9.64655 39.8491 11.6123 39.9711 12.3948C39.9764 12.4371 40.0669 12.4368 39.4866 12.4368V12.4358ZM40.7881 11.9226C40.7225 12.1173 40.7301 12.3508 40.2259 12.4137C40.292 12.2039 39.6002 10.0527 38.7305 9.01299C39.0516 9.06021 39.3638 9.15544 39.6563 9.29606C40.5535 9.76276 40.8739 10.9779 40.7881 11.9237V11.9226Z" fill="#414141"/>
<path d="M32.4544 24.1873C32.0507 24.1873 31.2432 21.6243 31.3106 20.2958C31.3126 20.2611 31.3281 20.2285 31.3539 20.2052C31.3797 20.1819 31.4136 20.1696 31.4483 20.1711C31.4656 20.172 31.4825 20.1762 31.4981 20.1836C31.5137 20.191 31.5276 20.2014 31.5392 20.2142C31.5508 20.2269 31.5597 20.2419 31.5655 20.2582C31.5713 20.2744 31.5738 20.2916 31.573 20.3089C31.5236 21.2795 32.0098 23.3072 32.5562 23.9727C32.5722 23.9919 32.5823 24.0152 32.5854 24.04C32.5885 24.0647 32.5844 24.0898 32.5735 24.1123C32.5629 24.1348 32.546 24.1539 32.5249 24.1672C32.5038 24.1804 32.4794 24.1875 32.4544 24.1873Z" fill="#414141"/>
<path d="M35.1296 22.5423C34.8127 21.8951 34.0442 20.2599 33.758 19.0579C33.7535 19.0332 33.7561 19.0076 33.7656 18.9844C33.7751 18.9611 33.791 18.941 33.8115 18.9265C33.8321 18.912 33.8563 18.9037 33.8814 18.9025C33.9065 18.9013 33.9314 18.9073 33.9532 18.9199C33.9824 18.937 34.0038 18.9647 34.013 18.9973C34.2932 20.1736 35.0519 21.7875 35.3651 22.4269C35.3764 22.4502 35.3806 22.4763 35.3771 22.5019C35.3736 22.5276 35.3625 22.5516 35.3454 22.5711C35.3283 22.5905 35.3058 22.6044 35.2808 22.6111C35.2558 22.6178 35.2294 22.6169 35.2049 22.6087C35.1719 22.5974 35.1449 22.5735 35.1296 22.5423Z" fill="#414141"/>
<path d="M37.7361 21.4039C37.6212 20.6169 37.0752 18.8203 36.5854 18.0509C36.5712 18.0291 36.5639 18.0035 36.5645 17.9775C36.565 17.9515 36.5734 17.9262 36.5886 17.905C36.6088 17.8768 36.6392 17.8575 36.6733 17.8512C36.6989 17.8467 36.7252 17.8499 36.749 17.8604C36.7728 17.8708 36.7929 17.8881 36.8069 17.91C37.3221 18.7199 37.8746 20.5366 37.9955 21.3661C37.9991 21.3999 37.9895 21.4337 37.9687 21.4606C37.9479 21.4875 37.9176 21.5053 37.884 21.5104C37.8503 21.5155 37.816 21.5072 37.7883 21.4873C37.7607 21.4674 37.7419 21.4375 37.7361 21.4039Z" fill="#414141"/>
<path d="M41.0094 20.2414C40.9904 20.2416 40.9716 20.2377 40.9543 20.23C40.937 20.2222 40.9216 20.2108 40.9092 20.1965C40.8967 20.1822 40.8875 20.1654 40.8821 20.1472C40.8768 20.129 40.8755 20.1099 40.8782 20.0911C41.0619 18.8437 40.3029 17.1791 40.295 17.1621C40.2806 17.1304 40.2793 17.0944 40.2914 17.0619C40.3034 17.0293 40.3278 17.0028 40.3593 16.9881C40.3909 16.9737 40.427 16.9723 40.4597 16.9843C40.4923 16.9964 40.5188 17.0208 40.5335 17.0524C41.0947 18.2676 41.4029 20.2414 41.0094 20.2414Z" fill="#414141"/>
<path d="M49.975 31.051C49.7258 25.9579 49.0238 19.4554 43.8554 19.4554C41.7923 19.4554 37.0743 21.5017 35.2854 22.5293C34.776 22.8328 33.6327 23.6608 33.6503 24.1309C26.6546 22.8478 22.9168 34.6055 28.8061 37.2407C29.0021 40.3363 30.4064 40.5987 33.5778 40.6223C45.0866 40.7036 45.266 40.9258 46.652 40.7026C47.6997 40.537 48.0361 39.6414 48.2449 38.6915C48.4338 37.4414 48.4508 37.7596 48.4466 37.4372C49.766 35.7697 50.1039 33.1644 49.975 31.051Z" fill="#414141"/>
<path d="M41.0142 13.7029C40.9584 13.4996 40.8065 13.2921 40.6084 13.2921C38.4247 13.2921 28.2182 15.7211 29.3214 18.1691C29.9825 19.2927 32.1809 19.4545 33.4089 17.1861C34.3623 15.3861 33.4121 16.0905 34.9004 16.7566C36.1108 17.2983 38.0374 16.6517 38.8058 15.7427C39.0889 15.4069 39.266 14.9556 39.5929 14.676C39.9562 14.3703 41.2372 14.5144 41.0142 13.7029Z" fill="#414141"/>
<path d="M39.2896 32.1873C39.2864 32.1525 39.2971 32.1178 39.3194 32.0909C39.3417 32.0641 39.3738 32.0471 39.4086 32.0439C39.4434 32.0407 39.478 32.0514 39.5049 32.0737C39.5318 32.096 39.5487 32.1281 39.552 32.1629C40.1068 38.1613 44.1542 40.1365 47.035 38.3662C47.4624 38.0913 47.8482 37.7566 48.1807 37.3722C48.2053 37.3476 48.2388 37.3339 48.2736 37.334C48.3084 37.334 48.3417 37.3479 48.3663 37.3726C48.3909 37.3973 48.4046 37.4307 48.4045 37.4655C48.4045 37.5003 48.3906 37.5336 48.3659 37.5582C48.0217 37.9593 47.6197 38.3068 47.173 38.5892C44.0577 40.5025 39.8571 38.318 39.2896 32.1873Z" fill="white"/>
<path d="M28.9282 37.1948C28.7553 37.1948 28.78 37.0111 28.78 36.2955C28.685 32.6896 29.6297 29.4483 31.5123 26.9298C31.5332 26.9021 31.5643 26.8838 31.5987 26.8789C31.6331 26.874 31.668 26.8829 31.6959 26.9036C31.7236 26.9245 31.7419 26.9556 31.7468 26.99C31.7517 27.0244 31.7429 27.0594 31.7221 27.0872C28.0252 32.0366 29.4209 37.1948 28.9282 37.1948Z" fill="white"/>
<path d="M47.0161 33.8952C46.8385 33.8952 45.3655 33.0701 44.9124 32.2949C44.8974 32.265 44.8944 32.2305 44.9039 32.1985C44.9135 32.1664 44.935 32.1393 44.9639 32.1225C44.9929 32.1057 45.0271 32.1007 45.0597 32.1083C45.0922 32.116 45.1206 32.1358 45.1391 32.1637C45.4738 32.7375 46.4914 33.4041 47.067 33.6454C47.0868 33.6549 47.1039 33.6691 47.1168 33.6868C47.1297 33.7045 47.138 33.7252 47.1409 33.7469C47.1438 33.7687 47.1412 33.7908 47.1334 33.8113C47.1256 33.8317 47.1128 33.8499 47.0961 33.8642C47.0736 33.8832 47.0455 33.8941 47.0161 33.8952Z" fill="white"/>
<path d="M34.3576 28.308C34.3337 28.308 34.3103 28.3015 34.2899 28.2892C34.2694 28.2769 34.2528 28.2592 34.2416 28.2382C33.5312 26.8984 33.2122 25.5232 33.6907 24.0848C33.7021 24.0523 33.7258 24.0256 33.7567 24.0103C33.7876 23.9951 33.8232 23.9925 33.856 24.0032C33.8885 24.0143 33.9155 24.0376 33.9311 24.0683C33.9468 24.099 33.9498 24.1345 33.9396 24.1674C33.1075 26.6785 34.9423 28.308 34.3576 28.308Z" fill="white"/>
<path d="M34.4277 15.2741H34.8643V14.8375H35.3008V15.2741H35.7373V15.7106H35.3008V15.2741H34.8643V15.7106H34.4277V15.2741Z" fill="white"/>
<path d="M29.6094 17.4563H30.0457V17.0198H30.4822V17.4563H30.9187V17.8929H30.4822V17.4563H30.0457V17.8929H29.6094V17.4563Z" fill="white"/>
<path d="M37.6038 27.9312C37.7316 28.7625 38.5194 29.6249 38.6164 29.6249C38.6726 29.203 38.8064 28.1395 38.8174 28.0508C38.5084 27.6725 37.469 26.9723 37.6038 27.9312Z" fill="white"/>
<path d="M43.697 22.7817L40.467 22.293C40.24 22.2608 40.0094 22.3201 39.8261 22.4578C39.6427 22.5956 39.5216 22.8005 39.4893 23.0276C39.1603 25.3684 38.5559 30.1077 38.4244 31.0938C38.4086 31.2052 38.4151 31.3187 38.4436 31.4276C38.4722 31.5364 38.5221 31.6385 38.5905 31.7279C38.659 31.8172 38.7445 31.892 38.8421 31.948C38.9397 32.004 39.0474 32.0401 39.159 32.0542C40.3112 32.2287 42.2318 32.5081 42.3541 32.5264C42.4357 32.0784 42.9029 31.7872 43.3442 31.5943C43.7705 28.568 44.0787 26.4115 44.4318 23.7445C44.4477 23.6329 44.4413 23.5192 44.4129 23.4101C44.3845 23.301 44.3346 23.1986 44.2663 23.1089C44.1979 23.0193 44.1123 22.9442 44.0145 22.8881C43.9168 22.8319 43.8089 22.7958 43.697 22.7817Z" fill="#87E4FF"/>
<path d="M43.0686 23.6722C43.2945 23.7069 43.4979 23.8286 43.6351 24.0113C43.7724 24.1941 43.8327 24.4233 43.8031 24.6499C43.6809 25.6977 43.454 27.3738 43.454 27.3738C42.7866 32.3014 43.349 31.7264 39.7526 31.1972C39.529 31.1648 39.327 31.0462 39.1897 30.8668C39.0524 30.6873 38.9908 30.4613 39.018 30.237C39.0705 29.853 39.7688 24.5279 39.8386 24.0911C39.8513 23.9768 39.887 23.8662 39.9436 23.7659C40.0001 23.6657 40.0763 23.578 40.1676 23.508C40.2589 23.438 40.3633 23.387 40.4747 23.3582C40.5861 23.3294 40.7021 23.3233 40.8159 23.3403C41.2356 23.4104 42.8243 23.6373 43.0686 23.6722Z" fill="white"/>
<path d="M41.3206 23.0687C41.2863 23.0633 41.2554 23.0448 41.2346 23.017C41.2192 22.9961 41.2104 22.9712 41.2091 22.9453C41.2079 22.9194 41.2143 22.8937 41.2275 22.8714C41.241 22.8492 41.2606 22.8315 41.2841 22.8205C41.3076 22.8094 41.3338 22.8055 41.3594 22.8092C42.8375 23.0304 42.8926 22.9944 42.8666 23.1679C42.8406 23.3413 42.7861 23.2877 41.3206 23.0687Z" fill="#414141"/>
<path d="M42.8251 27.1293C42.8018 27.199 42.7656 27.1781 43.0171 27.199L43.0869 26.4309L42.8771 26.4133L42.8251 27.1293Z" fill="#414141"/>
<path d="M42.3008 27.3036C42.2777 27.4424 42.2358 27.4045 42.4926 27.4257L42.5102 27.2339C42.2507 27.2124 42.3008 27.1888 42.3008 27.3036Z" fill="#414141"/>
<path d="M42.5279 27.2339C42.5279 27.3442 42.4888 27.3175 42.7197 27.3387L42.7372 27.129C42.4954 27.1073 42.5507 27.0753 42.5279 27.2339Z" fill="#414141"/>
<path d="M42.0391 27.4784L42.2484 27.4957L42.2657 27.3039L42.0564 27.2866L42.0391 27.4784Z" fill="#414141"/>
<path d="M42.1614 25.9944L41.9518 25.9768L41.7598 28.1944L41.9518 28.2117L42.1614 25.9944Z" fill="#414141"/>
<path d="M42.8246 26.326L42.615 26.3087L42.5977 26.5005C42.9147 26.5267 42.7669 26.5569 42.8246 26.326Z" fill="#414141"/>
<path d="M42.5788 26.4132C42.5953 26.3445 42.6013 26.274 42.5963 26.2036C42.3548 26.1816 42.409 26.1362 42.3867 26.3778L42.5788 26.4132Z" fill="#414141"/>
<path d="M42.3871 26.1862C42.3871 25.9887 42.4366 26.0337 42.1953 26.0117L42.1777 26.2213C42.4081 26.242 42.363 26.2559 42.3871 26.1862Z" fill="#414141"/>
<path d="M41.2012 27.967L41.3932 27.9846L41.6726 25.9418L41.4806 25.9244C41.1944 27.8663 41.2476 27.4563 41.2012 27.967Z" fill="#414141"/>
<path d="M41.0612 25.8899H40.8516V27.566H41.0612V25.8899Z" fill="#414141"/>
<path d="M40.8695 27.5657H40.6602V27.8099H40.8695V27.5657Z" fill="#414141"/>
<path d="M40.4672 27.5657H40.2578V27.8099H40.4672V27.5657Z" fill="#414141"/>
<path d="M40.2584 25.8196H40.0488V27.5655H40.2584V25.8196Z" fill="#414141"/>
<path d="M40.6605 27.8101H40.4512V28.0543H40.6605V27.8101Z" fill="#414141"/>
<path d="M37.6874 27.3281C38.0628 27.1657 38.698 27.6807 38.8764 27.9037C38.897 27.931 38.9062 27.9652 38.902 27.9992C38.8977 28.0331 38.8804 28.064 38.8537 28.0854C38.827 28.1067 38.793 28.1168 38.7589 28.1135C38.7249 28.1101 38.6935 28.0936 38.6715 28.0674C38.4616 27.8035 37.96 27.4955 37.7916 27.569C37.7286 27.5952 37.7071 27.7264 37.7341 27.9145C37.9136 29.0811 38.9073 29.4959 38.6728 29.7212C38.3367 30.0457 36.9156 27.6616 37.6874 27.3281Z" fill="#414141"/>
<path d="M43.5204 28.8C43.5204 28.8 42.4272 28.837 42.3068 28.4015C42.1864 27.966 43.1844 27.375 43.9777 27.2168C46.7176 26.6698 46.7556 27.7895 44.9483 28.4572C44.9483 28.4572 45.9738 28.6649 46.0216 29.0152C46.0693 29.3654 44.7907 29.921 44.7907 29.921C44.7907 29.921 45.569 29.9116 45.6708 30.3284C45.7726 30.7453 44.7629 31.2364 44.7629 31.2364C44.7629 31.2364 45.1984 31.2828 45.3096 31.5885C45.4208 31.8941 44.7167 32.2648 44.133 32.5067C42.4086 33.2184 41.5127 32.5877 43.5215 31.4783C42.0969 31.7199 41.6914 30.9536 43.5865 30.1999C41.9907 30.224 41.7664 29.4457 43.5204 28.8Z" fill="white"/>
<path d="M45.2223 28.472C45.7111 28.2676 46.3635 27.9502 46.3053 27.4268C46.1379 26.1413 41.3486 27.5666 42.2479 28.5724C42.41 28.8159 42.7673 28.8699 43.0698 28.8815C41.5726 29.435 42.0425 30.2832 43.2228 30.2842C41.7169 30.9002 41.9189 31.602 42.9717 31.602C43.1742 31.602 42.2206 31.9128 42.2206 32.5244C42.2206 33.3402 44.0494 32.7437 44.8023 32.3798C45.2722 32.1437 45.6578 31.9076 45.4013 31.4162C45.3622 31.3412 45.1347 31.2452 45.0547 31.2174C45.4401 31.0337 45.9338 30.7208 45.8417 30.3042C45.7806 30.0245 45.4031 29.8595 45.1381 29.8621C45.6313 29.6407 46.0645 29.4048 46.1293 29.0378C46.1621 28.8563 45.9147 28.4992 45.2223 28.472ZM42.463 28.4218C42.2613 28.0971 43.1853 27.6348 43.5224 27.5113C44.0208 27.2896 45.9771 26.9367 46.0451 27.4588C46.1324 28.2416 42.8206 28.9938 42.4633 28.4218H42.463ZM44.6866 32.1445C44.201 32.379 43.0218 32.8135 42.5402 32.612C42.3875 32.5511 42.5764 32.2499 42.7167 32.1348C43.9996 31.0823 46.2717 31.3519 44.6869 32.1445H44.6866ZM45.5862 30.3606C45.7901 31.2942 41.1183 31.7851 42.7485 30.8052C43.4282 30.417 45.4564 29.7679 45.5865 30.3603L45.5862 30.3606ZM45.443 29.409C42.9898 30.8065 40.2347 29.4203 44.9532 28.7437C45.2342 28.7036 45.7664 28.7545 45.8654 29.0208C45.8194 29.1947 45.6445 29.2944 45.4432 29.4088L45.443 29.409Z" fill="#414141"/>
<path d="M33.6408 30.726C33.6626 31.8118 35.2322 31.6869 35.2123 30.6908C35.1926 29.7112 33.6191 29.6296 33.6408 30.726Z" fill="white"/>
<path d="M33.0295 34.7937C33.0513 35.8795 34.6209 35.7547 34.601 34.7588C34.5807 33.7488 33.0077 33.71 33.0295 34.7937Z" fill="white"/>
<path d="M32.6467 38.6172C32.6685 39.703 34.2577 39.5776 34.2179 38.5823C34.1767 37.5471 32.6255 37.5589 32.6467 38.6172Z" fill="white"/>
<path d="M15.7967 21.2971V21.1397C17.5984 21.1397 19.2197 20.4206 19.8123 18.643C19.9312 18.643 19.9435 16.9855 19.9868 16.6353C20.1613 15.2107 20.7969 13.7844 19.9519 11.799C19.8577 11.5456 19.7221 11.3096 19.5505 11.1006C18.6374 10.7142 17.6605 10.5007 16.6695 10.471C14.0723 10.3443 13.2129 11.1405 13.0206 11.0122V11.0298C12.5318 12.0946 12.2755 13.3812 11.8857 14.2073C11.3969 15.2433 10.921 15.3576 10.7683 15.5867C9.10457 14.4775 7.95026 16.4466 8.67328 17.5944C9.01957 18.1453 9.80791 18.712 10.3318 18.6419C10.3142 18.6419 10.262 20.318 10.1744 21.5054C8.68167 21.5054 5.61121 23.0228 4.06366 24.8752C9.119 23.2702 14.8486 28.082 14.7148 33.4302C14.6885 34.5142 14.1901 34.9662 14.1901 35.2983C12.4791 35.2634 11.1346 34.1285 10.9601 34.2857C10.8361 34.4102 10.7301 34.5515 10.6453 34.7054C10.4313 34.4926 10.2329 34.2646 10.0516 34.0233C10.1015 33.9735 9.89422 34.0666 11.7975 33.2901L11.239 32.0505L9.09145 32.8884C8.63156 32.3375 8.50512 32.2774 8.53266 32.2774L9.45794 28.7505L8.91673 27.5983L6.97959 28.4029L6.40244 27.4427L5.26807 27.9493L5.75681 28.9095L3.90625 29.7128L4.53587 30.865C5.4664 30.4694 4.86695 30.7133 7.48644 29.6776C7.12441 31.1271 7.14697 31.0455 7.11916 31.1268C6.64117 30.8983 5.5897 30.6664 5.26859 30.9872C4.96428 31.2577 6.37857 31.3545 7.24141 31.9823C7.4037 32.0967 7.55044 32.2317 7.67795 32.3839C7.66352 32.3984 7.18291 32.0998 7.06695 32.0348C6.07871 31.4804 4.90368 31.4823 4.70981 31.7724C4.47894 32.0801 6.02886 31.9915 7.01448 32.9771C6.8256 33.0401 6.16607 32.3136 4.81448 32.3136C4.65707 32.3136 4.30816 32.3136 4.20348 32.471C3.98259 32.8024 5.74448 32.9991 6.52574 33.7804C6.50816 33.798 6.40349 33.7279 6.40349 33.7279C5.97194 33.4813 5.1592 33.1245 4.58755 33.1342C4.43015 33.1369 4.11534 33.1691 4.0104 33.3263C3.72182 33.7597 5.50785 33.9457 6.17551 34.4785C6.97566 35.1175 6.26864 36.1837 9.23075 37.1499L9.38816 37.1848C9.19035 37.657 8.96841 38.1757 8.96841 38.5466C9.01694 38.8877 12.775 40.5079 14.294 40.7466C25.4915 42.5059 28.1947 26.0911 15.7967 21.2971Z" fill="white"/>
<path d="M7.45198 24.7196C2.29957 23.6902 -1.00411 28.395 0.276122 33.2397C1.45981 37.7187 6.32915 40.3607 10.0012 39.2807L10.0361 39.1933C9.40643 38.8966 8.95336 38.6161 8.93605 38.5125C8.99534 38.0377 9.13753 37.5767 9.3558 37.1507L9.19839 37.1158C6.2006 36.1367 6.9593 35.0813 6.14289 34.4444C5.46998 33.9197 3.68553 33.7119 3.97804 33.2922C4.08586 33.1371 4.39779 33.1174 4.55519 33.1001C5.14546 33.0805 5.85825 33.4008 6.37113 33.6936C6.38844 33.6936 6.47606 33.7636 6.49338 33.746C5.74833 33.0012 3.94 32.7391 4.17112 32.4367C4.45498 32.0652 5.86953 32.4041 6.45822 32.699C6.54559 32.7339 6.87797 32.9784 6.98291 32.9435C6.41922 32.4482 5.73102 32.1161 4.99252 31.9831C3.95548 31.7585 5.53583 30.966 7.50681 32.28C7.54931 32.3152 7.596 32.3446 7.64637 32.3674C6.44642 31.1675 4.89755 31.3099 5.23702 30.9704C5.57649 30.631 6.62324 30.8881 7.08758 31.1103C7.16183 31.0607 7.09021 31.2761 7.48923 29.6784C4.83459 30.7692 5.46709 30.5061 4.53866 30.9007L3.90904 29.7484L5.75961 28.9452L5.26903 27.9834L6.40392 27.4771L6.98107 28.4199L8.919 27.6342L9.46021 28.7864L8.53493 32.2958C8.56116 32.2958 9.02603 32.826 9.09372 32.907L11.2413 32.0689L11.8 33.3084C9.90672 34.0813 10.104 33.9905 10.0539 34.043C10.2381 34.2817 10.4361 34.5089 10.6476 34.7238C10.7412 34.5755 10.8464 34.4352 10.9624 34.304C11.1198 34.1466 12.4813 35.2642 14.1923 35.3167C14.2779 35.0921 15.8065 32.842 13.4027 28.9055C12.7556 27.8331 11.8923 26.907 10.8678 26.1864C9.84333 25.4657 8.68004 24.9662 7.45198 24.7196Z" fill="#016DAB"/>
<path d="M18.6963 17.1072C18.5821 17.1072 18.4706 17.1411 18.3756 17.2045C18.2807 17.2679 18.2068 17.358 18.1631 17.4635C18.1194 17.569 18.108 17.685 18.1302 17.797C18.1525 17.9089 18.2075 18.0117 18.2882 18.0925C18.3689 18.1732 18.4717 18.2282 18.5837 18.2504C18.6957 18.2727 18.8117 18.2613 18.9172 18.2176C19.0226 18.1739 19.1128 18.0999 19.1762 18.005C19.2396 17.9101 19.2734 17.7985 19.2734 17.6844C19.2742 17.6084 19.2598 17.533 19.231 17.4626C19.2023 17.3923 19.1598 17.3283 19.106 17.2746C19.0523 17.2209 18.9884 17.1784 18.918 17.1496C18.8477 17.1209 18.7723 17.1065 18.6963 17.1072Z" fill="#FDAF31"/>
<path d="M12.8824 16.1642C12.3944 16.1642 12.2527 16.7413 12.3052 16.7413C12.3052 16.8555 12.3391 16.9671 12.4025 17.062C12.4659 17.1569 12.556 17.2309 12.6615 17.2746C12.767 17.3182 12.883 17.3297 12.995 17.3074C13.1069 17.2851 13.2098 17.2302 13.2905 17.1494C13.3712 17.0687 13.4262 16.9659 13.4484 16.8539C13.4707 16.742 13.4593 16.6259 13.4156 16.5205C13.3719 16.415 13.2979 16.3249 13.203 16.2615C13.1081 16.198 12.9965 16.1642 12.8824 16.1642Z" fill="#FDAF31"/>
<path d="M9.21484 37.2643C9.10439 37.2643 7.49387 36.7436 6.82201 35.8314C6.53344 35.418 6.44476 34.8516 6.07853 34.5648C5.38805 34.0278 3.46691 33.8636 3.88509 33.2366C4.0404 33.0039 4.45463 32.9721 4.73377 32.9881C4.42447 32.8688 3.88535 32.6946 4.0947 32.3811C4.34812 32.0012 5.57746 32.2654 4.99795 32.145C4.67894 32.0812 4.45044 31.8997 4.60443 31.6935C4.91924 31.2197 6.22597 31.6164 5.57694 31.4081C5.6294 31.4081 5.18185 31.3514 5.11102 31.1169C5.06537 30.9663 5.22172 30.817 5.34896 30.7758C6.00482 30.5297 7.17932 30.9718 7.15912 31.0093C8.03036 31.3784 9.56454 33.2222 10.1559 33.9609C10.6842 34.6215 10.838 34.68 10.6997 34.8038C10.4623 35.0168 9.88644 33.8358 8.44172 32.3903C8.10513 32.0416 7.44796 31.4067 7.0046 31.2118C6.71209 31.0833 5.64934 30.812 5.38648 31.057C5.58061 31.1859 6.62106 31.3598 7.32046 31.8779C7.50148 32.0017 7.66151 32.1531 7.79609 32.3263C7.85013 32.4338 7.74756 32.6253 7.46292 32.4217C7.33175 32.3514 7.1586 32.236 7.00408 32.1502C6.04548 31.6072 5.05409 31.6586 4.84579 31.8199C5.00608 31.9073 6.36186 32.1211 7.10823 32.8693C7.12391 32.8853 7.13528 32.905 7.14129 32.9265C7.1473 32.9481 7.14775 32.9708 7.1426 32.9926C7.13734 33.0144 7.1266 33.0344 7.1114 33.0509C7.0962 33.0673 7.07705 33.0796 7.05576 33.0865C6.86923 33.1477 6.53554 32.8767 6.44188 32.8394C5.51187 32.3753 4.47693 32.3656 4.32346 32.5151C4.46933 32.6631 6.02502 33.0923 6.60086 33.6726C6.7058 33.7775 6.5943 34.0089 6.31228 33.8219C5.90775 33.5918 5.11469 33.2311 4.57374 33.2502C4.40519 33.2348 4.23692 33.2825 4.10152 33.384C4.0884 33.6162 5.63596 33.8919 6.23804 34.3599C7.14391 35.0683 6.29523 36.0442 9.25498 37.0096C9.28393 37.0197 9.3084 37.0397 9.32409 37.066C9.33977 37.0923 9.34568 37.1234 9.34076 37.1536C9.3359 37.1838 9.32067 37.2114 9.2977 37.2316C9.27472 37.2518 9.24542 37.2634 9.21484 37.2643Z" fill="#414141"/>
<path d="M10.4374 17.8144C10.207 17.8144 10.3128 17.1564 9.40111 16.7005C9.3716 16.684 9.34961 16.6567 9.33972 16.6244C9.32983 16.592 9.33281 16.5571 9.34804 16.5269C9.36327 16.4967 9.38958 16.4736 9.42146 16.4623C9.45335 16.4511 9.48835 16.4525 9.51917 16.4665C10.3219 16.8679 10.7868 17.8144 10.4374 17.8144Z" fill="#414141"/>
<path d="M15.4481 14.2873C15.4219 14.2873 13.1933 13.3796 13.1485 13.2904C13.133 13.2593 13.1305 13.2233 13.1416 13.1903C13.1527 13.1574 13.1764 13.1302 13.2075 13.1147C13.2862 13.0753 13.2201 13.0861 14.3106 13.536C15.5103 14.0316 15.6399 14.0518 15.5678 14.2113C15.5572 14.2341 15.5403 14.2534 15.5191 14.2668C15.4979 14.2803 15.4733 14.2874 15.4481 14.2873Z" fill="#414141"/>
<path d="M18.4187 14.1615C19.1063 13.5726 19.7553 13.6589 20.0885 14.0545C20.1107 14.0812 20.1214 14.1155 20.1183 14.15C20.1152 14.1845 20.0986 14.2164 20.0721 14.2387C20.0456 14.261 20.0114 14.2719 19.9768 14.2691C19.9423 14.2662 19.9103 14.2498 19.8878 14.2235C19.5586 13.8328 19.0134 13.9971 18.5895 14.3609C18.563 14.3835 18.5287 14.3947 18.494 14.392C18.4593 14.3893 18.4271 14.3729 18.4045 14.3465C18.3819 14.3201 18.3707 14.2857 18.3734 14.251C18.3762 14.2163 18.3925 14.1842 18.419 14.1615H18.4187Z" fill="#414141"/>
<path d="M16.6281 20.1556C16.0627 20.1556 15.9822 19.4143 16.8768 19.2637C17.6037 19.0793 17.3784 20.1556 16.6281 20.1556ZM17.0426 19.5087C16.8448 19.5187 16.6551 19.59 16.4998 19.7128C16.3327 19.8251 16.7068 20.0539 16.9885 19.7202C17.0152 19.6929 17.0342 19.659 17.0434 19.622C17.0527 19.585 17.052 19.5461 17.0413 19.5095L17.0426 19.5087Z" fill="#414141"/>
<path d="M19.0558 15.7286C18.7279 15.4743 18.2447 16.705 18.8342 16.705C19.2201 16.705 19.3589 15.9615 19.0558 15.7286Z" fill="#414141"/>
<path d="M14.5329 15.0127C14.2055 14.7619 13.6879 16.0586 14.274 16.0586C14.6627 16.0586 14.8375 15.2469 14.5329 15.0127Z" fill="#414141"/>
<path d="M17.4117 18.0495C18.4525 16.8931 17.1001 17.6198 17.2386 16.082C17.258 15.9938 17.258 15.929 17.2769 15.8524C17.3055 15.6688 17.5337 15.5376 17.5337 15.9049C17.5151 15.9836 17.5169 16.0434 17.4965 16.1247C17.4479 16.7357 17.6437 16.8514 17.7588 16.9443C18.2665 17.3514 18.1093 17.6642 17.6153 18.213C17.4986 18.3447 17.2984 18.1755 17.4117 18.0495Z" fill="#414141"/>
<path d="M16.157 21.2757C17.8769 21.1674 19.1716 20.41 19.7564 19.1662C20.0171 19.2048 20.2942 19.3646 20.7955 19.0303C21.2591 18.7226 21.0615 18.1788 21.3344 17.9356C21.582 17.7026 22.2316 17.9398 22.4797 17.4434C22.7927 16.7981 22.1282 15.9384 22.1783 15.3185C22.2485 14.4484 22.2661 13.5748 22.2308 12.7026C22.1521 9.98555 20.5654 7.84012 18.1862 7.23673C16.024 6.68738 15.1955 7.3275 14.8561 7.37315C14.323 7.43716 13.5669 6.88519 12.9286 6.81409C10.5754 6.58953 8.28885 8.9632 7.63903 11.2923C7.44804 11.9875 7.34363 12.7785 6.94251 13.3464C6.46715 14.0191 5.08854 14.2229 5.47602 15.4714C5.56288 15.7394 5.73023 15.9741 5.95526 16.1436C6.1803 16.3132 6.45211 16.4092 6.73369 16.4187C7.09257 16.4379 7.06424 16.431 7.08077 16.8264C7.13323 18.0497 8.55329 17.9676 8.66689 17.8385C9.02499 18.3223 9.67691 18.7711 10.2089 18.7958C10.2089 18.8031 10.1113 20.8339 10.0615 21.5118C9.97335 22.525 9.91564 22.4468 9.95158 22.5226C11.0749 24.8709 14.6979 25.1198 15.8981 21.4525C28.0233 26.2838 25.2663 42.2644 14.2978 40.5818C12.6925 40.3281 9.34216 38.8115 9.08323 38.4846C9.0806 37.7671 10.5463 34.9923 11.0471 34.4057C11.6899 34.561 15.4466 37.4751 18.3353 32.7131C18.3488 32.6909 18.3555 32.6653 18.3544 32.6393C18.3532 32.6134 18.3444 32.5884 18.329 32.5675C18.3188 32.5536 18.3059 32.5418 18.2912 32.5328C17.7544 32.2081 16.7958 36.9698 11.6106 34.3737C11.1961 34.1659 11.0072 34.0712 10.8787 34.1998C10.3157 34.8433 8.81328 37.675 8.8222 38.53C8.89172 39.0098 12.8124 40.6127 14.2574 40.841C18.0561 41.4244 21.4566 39.7452 23.0196 36.7385C25.598 31.7721 23.5863 24.3412 16.157 21.2757ZM12.3822 20.0388C12.3567 20.0205 12.3255 20.012 12.2942 20.0148C12.263 20.0175 12.2338 20.0314 12.2119 20.0539C12.19 20.0763 12.1769 20.1059 12.1749 20.1372C12.1729 20.1685 12.1823 20.1995 12.2012 20.2245C12.2552 20.2959 13.5108 21.9161 15.3425 22.0955C13.9258 24.8732 11.1224 24.2407 10.2197 22.4733C10.3858 21.4502 10.4419 19.0033 10.4763 18.6956C10.4816 18.6761 10.4823 18.6556 10.4785 18.6358C10.4746 18.616 10.4662 18.5973 10.454 18.5812C10.4417 18.5652 10.4259 18.5521 10.4078 18.5432C10.3897 18.5342 10.3698 18.5295 10.3496 18.5295C9.70839 18.5295 9.0785 18.0103 8.78206 17.5397C8.12174 16.4903 9.17688 14.7027 10.7027 15.7185C11.1277 15.9662 10.917 16.3639 11.1715 16.3287C11.4338 16.2915 11.1775 15.7755 10.9768 15.5942C11.2161 15.3922 11.2523 15.3982 11.2859 15.3596C12.3725 14.1371 12.4016 12.7401 13.0908 11.1915C14.6988 10.5455 16.4673 10.4123 18.154 10.8104C18.6459 10.883 19.122 11.0383 19.5628 11.2695C19.5837 11.3193 19.7611 11.6981 19.8343 11.8694C20.7541 14.0277 19.8503 15.3292 19.8272 17.3666C19.8563 17.9036 19.7689 18.4405 19.5712 18.9406C18.4761 21.5134 14.3875 21.4935 12.3822 20.0388Z" fill="#414141"/>
<path d="M3.96467 24.809C6.08282 22.2763 10.1754 21.0024 10.2365 21.5087C10.2406 21.5433 10.2308 21.5781 10.2095 21.6055C10.1878 21.6327 10.1564 21.6504 10.1219 21.6546C7.55929 21.9615 5.12318 23.8412 4.17769 24.9643C4.16754 24.9783 4.1547 24.9902 4.13993 24.9992C4.12516 25.0082 4.10875 25.0142 4.09165 25.0168C4.07454 25.0196 4.05704 25.019 4.04017 25.015C4.0233 25.011 4.00739 25.0037 3.99338 24.9935C3.97936 24.9833 3.96752 24.9704 3.95853 24.9556C3.94955 24.9407 3.94361 24.9243 3.94106 24.9071C3.93562 24.8726 3.94411 24.8373 3.96467 24.809Z" fill="#414141"/>
<path d="M4.02364 24.7694C1.68879 25.5565 0.215478 27.789 0.215478 29.7327C0.238302 30.5995 0.403578 31.4563 0.705009 32.2693C0.503279 32.5573 0.326935 32.8624 0.177963 33.1809C0.170202 33.1964 0.165585 33.2133 0.16438 33.2306C0.163175 33.2478 0.165405 33.2652 0.170942 33.2816C0.176479 33.298 0.185213 33.3132 0.196639 33.3262C0.208066 33.3392 0.221958 33.3499 0.237515 33.3575C0.252994 33.3652 0.269848 33.3698 0.287111 33.371C0.304373 33.3722 0.321703 33.37 0.338107 33.3645C0.354511 33.359 0.369666 33.3503 0.382702 33.3389C0.395738 33.3275 0.406398 33.3137 0.414072 33.2982C0.562557 33.0007 0.715503 32.7504 0.823064 32.5728C0.982339 32.9645 1.16771 33.345 1.37792 33.7119C1.28321 33.8229 1.13184 34.0826 0.797616 34.5999C0.788263 34.6144 0.781851 34.6306 0.778746 34.6475C0.775642 34.6645 0.775906 34.6819 0.779524 34.6987C0.783142 34.7156 0.790042 34.7315 0.79983 34.7457C0.809619 34.7599 0.822104 34.772 0.836574 34.7813C0.851044 34.7907 0.867214 34.7971 0.884162 34.8002C0.901109 34.8033 0.918502 34.8031 0.935347 34.7994C0.952193 34.7958 0.968161 34.7889 0.98234 34.7791C0.996519 34.7693 1.00863 34.7569 1.01798 34.7424C1.27403 34.347 1.43616 34.1109 1.52614 33.9624C1.79455 34.4007 2.09552 34.8181 2.4265 35.2112C1.9451 35.9177 1.47971 36.3917 1.84935 36.3917C1.87223 36.3916 1.89469 36.3856 1.91455 36.3743C1.93441 36.3629 1.95099 36.3466 1.96268 36.3269C2.10802 36.0798 2.33783 35.8022 2.60253 35.4171C2.8949 35.7472 3.20798 36.0582 3.53988 36.3484C3.3203 36.7315 2.92521 37.3141 2.89163 37.3551C2.86774 37.3798 2.85452 37.4129 2.85482 37.4473C2.85512 37.4817 2.86891 37.5146 2.89323 37.5389C2.91755 37.5633 2.95045 37.577 2.98484 37.5773C3.01924 37.5776 3.05237 37.5644 3.07711 37.5405C3.12958 37.4881 3.51863 36.9049 3.74267 36.5211C4.08495 36.8054 4.44615 37.0662 4.82379 37.3015C4.58103 37.6168 4.35553 37.9449 4.14825 38.2845C4.12957 38.3139 4.12332 38.3495 4.13087 38.3835C4.13842 38.4174 4.15916 38.447 4.18852 38.4657C4.21789 38.4844 4.25347 38.4906 4.28744 38.4831C4.32141 38.4755 4.35099 38.4548 4.36967 38.4254C4.67976 37.938 4.92453 37.6179 5.04966 37.4377C5.50405 37.7042 5.98163 37.9291 6.47654 38.1096C6.30025 38.3577 6.07805 38.8255 5.88575 39.0561C5.86991 39.0753 5.85984 39.0986 5.85671 39.1232C5.85358 39.1479 5.85752 39.173 5.86807 39.1955C5.87862 39.218 5.89535 39.2371 5.91631 39.2505C5.93727 39.2639 5.96161 39.2711 5.98649 39.2712C6.14626 39.2712 6.53741 38.5075 6.7625 38.2069C7.35802 38.4002 7.97627 38.5149 8.60152 38.5479C8.4514 38.8481 8.2821 39.1384 8.09467 39.4168C8.08037 39.4384 8.07274 39.4638 8.07274 39.4897C8.07274 39.5157 8.08037 39.541 8.09467 39.5627C8.10673 39.5805 8.12299 39.5951 8.14202 39.6053C8.16104 39.6154 8.18226 39.6207 8.20381 39.6207C8.22535 39.6207 8.24657 39.6154 8.2656 39.6053C8.28463 39.5951 8.30088 39.5805 8.31294 39.5627C8.31845 39.5543 8.82582 38.7334 8.88773 38.5555H8.91974C8.95446 38.5553 8.98771 38.5414 9.01226 38.5169C9.03682 38.4923 9.0507 38.4591 9.05091 38.4244C9.05084 38.3896 9.037 38.3563 9.01242 38.3317C8.98783 38.3071 8.95451 38.2933 8.91974 38.2932C4.79545 38.2963 0.563869 34.1033 0.478345 29.7295C0.478345 27.9021 1.8845 25.7666 4.10576 25.0184C9.01471 23.4603 14.7204 28.0959 14.5853 33.4451C14.5549 34.67 13.8586 35.1739 14.1338 35.3117C14.1649 35.3272 14.2009 35.3297 14.2339 35.3188C14.2669 35.3078 14.2942 35.2842 14.3098 35.2532C14.6315 34.6099 14.8293 34.1789 14.8476 33.4519C14.9859 27.9477 9.12358 23.1503 4.02364 24.7694Z" fill="white"/>
<path d="M19.7824 11.2198C18.8118 9.77006 17.8778 8.90092 16.6776 10.2055C16.2985 9.61344 15.2253 9.14935 14.7003 9.26242C14.0078 9.43531 13.36 9.92195 12.9022 10.9692C12.7711 11.1295 13.0444 11.3058 13.1245 11.1167C13.2804 10.7434 13.5001 10.4001 13.7737 10.1022C14.2646 9.9516 15.2675 10.3018 15.4813 10.4991C15.5069 10.5227 15.5407 10.5351 15.5755 10.5338C15.6102 10.5324 15.643 10.5173 15.6666 10.4918C15.9501 10.1838 14.5742 9.81754 14.1158 9.80416C14.3122 9.67218 14.53 9.5755 14.7596 9.51847C15.1993 9.42376 16.2025 9.87788 16.483 10.3918C16.787 10.997 17.3075 9.10633 18.5906 10.1667C18.3309 10.1785 17.4484 10.3144 17.583 10.5836C17.6979 10.8142 17.7905 10.4262 18.8629 10.4288C19.1288 10.7159 19.3638 11.0301 19.5642 11.3661C19.5839 11.3943 19.6139 11.4136 19.6477 11.4199C19.6815 11.4262 19.7165 11.419 19.745 11.3999C19.7736 11.3807 19.7935 11.3511 19.8005 11.3175C19.8075 11.2838 19.801 11.2487 19.7824 11.2198Z" fill="white"/>
<path d="M27.2859 5.33927C26.8866 3.61831 25.5911 5.03469 25.2955 3.26152C25.2702 3.11384 25.2352 2.968 25.1905 2.82498C24.8114 1.79345 23.6626 1.40256 23.5842 1.63788C23.558 1.69245 23.6629 1.82152 23.724 1.75987C23.902 1.77604 24.0746 1.82968 24.2304 1.91728C25.6882 2.78484 24.5452 4.12673 26.2032 4.48404C27.5068 4.76448 26.822 5.70288 27.5826 6.19503C27.5964 6.20536 27.613 6.21137 27.6303 6.2123C27.6476 6.21323 27.6647 6.20905 27.6796 6.20028C27.6944 6.1913 27.7062 6.17824 27.7136 6.16269C27.7211 6.14713 27.7238 6.12976 27.7216 6.11266C27.7182 6.08977 27.706 6.06914 27.6875 6.05521C27.573 5.97177 27.4779 5.86462 27.4086 5.74107C27.3392 5.61752 27.2974 5.48047 27.2859 5.33927Z" fill="#87E4FF"/>
<path d="M26.9364 7.18985C26.4083 7.05868 26.3364 6.37659 25.8364 6.10743C25.3584 5.85112 24.8111 6.16514 24.3523 6.00249C23.9603 5.86371 23.8035 5.40146 23.4968 4.97227C22.7279 4.06745 21.5938 4.18288 21.5938 4.39512C21.5961 4.4143 21.604 4.43238 21.6165 4.44715C21.629 4.46192 21.6455 4.47274 21.664 4.4783C21.6825 4.48386 21.7023 4.48392 21.7208 4.47846C21.7394 4.47301 21.7559 4.46228 21.7685 4.44758C22.0508 4.30644 22.8609 4.46306 23.3748 5.07721C23.6078 5.35529 23.8019 5.99226 24.3001 6.15989C24.7983 6.32753 25.266 6.00669 25.7493 6.22968C26.2186 6.48572 26.2842 7.17411 26.9015 7.32968C27.0051 7.32968 27.0452 7.24442 26.9364 7.18985Z" fill="#87E4FF"/>
<path d="M28.9434 5.42649C28.5927 5.01225 28.9536 4.43772 28.6989 3.90753C28.4507 3.39124 27.8332 3.34454 27.564 2.96493C27.3017 2.59345 27.4945 1.97354 27.4591 1.62042C27.3408 0.432537 26.3557 -0.146453 26.2368 0.0316776C26.1933 0.118513 26.2751 0.204561 26.3418 0.171244C26.6129 0.306207 26.8423 0.512347 27.0053 0.767611C27.1683 1.02287 27.2589 1.31766 27.2673 1.62042C27.2794 2.22381 27.1186 2.63962 27.3896 3.03471C27.681 3.45971 28.3078 3.51323 28.5069 3.94242C28.743 4.37555 28.3542 4.98234 28.7863 5.51385C28.8665 5.59413 29.0237 5.50677 28.9434 5.42649Z" fill="#87E4FF"/>
</svg>
