<svg width="70" height="70" viewBox="0 0 70 70" fill="none" xmlns="http://www.w3.org/2000/svg">
<rect width="70" height="70" rx="10" fill="#E7F8FF"/>
<path d="M54.9873 27.1646C54.8179 27.1249 54.6417 27.1231 54.4715 27.1593C54.3013 27.1955 54.1412 27.269 54.0026 27.3743C54.2812 26.6077 53.4844 26.2762 53.247 25.8238C53.1982 25.7022 53.163 25.5755 53.1422 25.4461C54.9335 25.2676 53.8458 22.0596 52.5976 21.4237C52.3828 21.3182 52.1582 21.2339 51.927 21.1719C49.832 18.7415 45.4951 18.2177 42.5828 19.81C41.4725 20.4176 39.7335 22.3659 39.9639 24.4613C38.3461 26.082 39.401 30.0432 40.9275 29.2801C40.8237 29.6927 40.8237 30.1246 40.9275 30.5372C39.8824 31.9167 40.3993 32.1046 41.2209 32.9046C41.0113 33.6601 41.2549 35.0679 41.7158 35.571C42.7182 34.1928 49.4507 30.8586 54.676 30.8514C56.1742 29.9756 56.1537 27.5525 54.9873 27.1646Z" fill="white"/>
<path d="M54.0425 27.2678C53.966 27.344 53.9695 27.3204 54.0214 27.3723C54.9375 26.5973 56.0362 27.5354 55.8653 28.902C56.125 28.9451 56.7996 28.4953 56.6614 28.0429C56.6035 27.854 56.3444 27.7703 56.368 27.5609C56.4058 27.2253 56.7508 26.9505 56.5569 26.5973C56.3942 26.3013 55.7576 26.2843 55.6559 26.0108C55.5476 25.7186 56.2034 25.3812 56.0123 25.0887C55.802 24.7676 54.4678 24.8494 54.0847 24.7534C54.001 25.2146 53.644 25.361 53.2256 25.4029C53.5297 26.6171 54.4518 26.8604 54.0425 27.2678Z" fill="#7BD2FF"/>
<path d="M57.6475 33.9308C57.6475 32.3662 56.8516 31.402 55.9084 31.0815C52.3826 29.8852 43.2215 33.6563 41.7454 35.5024C40.4906 37.0708 41.1728 39.3116 42.0602 39.7555C42.0602 39.832 43.5115 39.1281 45.5172 39.5458C46.0209 38.0303 49.0065 36.7213 50.4827 36.1307C50.5677 36.1307 55.1853 33.9308 57.6475 33.9308Z" fill="#7BD2FF"/>
<path d="M54.7351 30.8811C54.7004 30.8811 54.6668 30.8697 54.6393 30.8487C54.6118 30.8277 54.5921 30.7982 54.583 30.7648C54.574 30.7314 54.5762 30.6959 54.5894 30.6639C54.6025 30.6319 54.6258 30.6051 54.6557 30.5877C56.7942 29.3458 55.2724 25.6452 53.6716 28.0453C53.6603 28.0626 53.6456 28.0775 53.6284 28.089C53.6112 28.1005 53.5918 28.1085 53.5715 28.1124C53.5512 28.1165 53.5303 28.1165 53.51 28.1125C53.4897 28.1085 53.4704 28.1006 53.4531 28.0891C53.2576 27.9584 53.5111 27.7601 53.6735 27.4664C53.7097 27.4147 53.7547 27.37 53.8067 27.3341C54.9221 26.4017 56.0236 27.195 56.0236 28.901C55.9594 30.0595 54.9734 30.8811 54.7351 30.8811Z" fill="#414141"/>
<path d="M53.8755 29.73C53.843 29.7292 53.8114 29.7193 53.7842 29.7014C53.7571 29.6835 53.7356 29.6582 53.7222 29.6286C53.5522 29.2194 55.0812 28.2901 55.1423 28.7786C55.1785 29.0692 54.7311 28.8356 54.2385 29.3283C53.963 29.6182 54.0326 29.73 53.8755 29.73Z" fill="#414141"/>
<path d="M41.7293 35.6753C41.6815 35.6697 41.6377 35.6458 41.6071 35.6086C40.9369 34.8773 40.8343 32.6002 41.3046 32.7315C41.3245 32.737 41.3432 32.7463 41.3595 32.759C41.3758 32.7717 41.3895 32.7875 41.3996 32.8055C41.4098 32.8235 41.4164 32.8434 41.4188 32.8639C41.4213 32.8844 41.4197 32.9052 41.4141 32.9251C41.2101 33.6593 41.4327 34.9522 41.8394 35.3958C41.8614 35.4186 41.8763 35.4472 41.8824 35.4783C41.8886 35.5093 41.8856 35.5415 41.874 35.5709C41.8624 35.6003 41.8426 35.6258 41.817 35.6443C41.7913 35.6628 41.7609 35.6736 41.7293 35.6753Z" fill="#414141"/>
<path d="M52.7305 21.3025C52.5345 21.2056 52.3304 21.1262 52.1204 21.0654C49.7426 18.3962 45.4196 18.0581 42.5501 19.629C41.4983 20.2044 39.6432 22.1761 39.8428 24.3662C38.3553 26.0842 39.1187 29.4977 40.6106 29.4977C40.8073 29.4977 40.7485 29.4265 40.75 29.6865C40.6509 30.9814 41.1766 30.7122 41.1231 30.4805C41.0478 30.1161 41.0382 29.7411 41.0948 29.3733C42.2432 28.8148 44.3153 26.7028 49.5632 25.8943C50.7256 25.7339 51.8977 25.6528 53.0711 25.6516C53.1231 25.8521 53.5396 26.6297 53.7294 26.6297C53.7591 26.6298 53.7882 26.6214 53.8133 26.6056C53.8385 26.5898 53.8586 26.5671 53.8714 26.5403C53.8843 26.5136 53.8894 26.4838 53.886 26.4543C53.8826 26.4248 53.8709 26.3968 53.8522 26.3738C53.6635 26.1489 53.5115 25.8958 53.4017 25.6236C53.6094 25.6039 53.8048 25.516 53.9573 25.3736C54.1099 25.2313 54.211 25.0424 54.245 24.8366C54.4352 24.2749 54.1918 22.0602 52.7305 21.3025ZM42.7003 19.9051C45.4706 18.3899 49.4964 18.8832 51.5764 20.9398C48.1135 20.382 42.6332 21.8008 40.1418 24.0659C40.1217 22.1311 41.7555 20.422 42.7003 19.9051ZM40.8989 29.1161C39.5742 29.7772 38.6156 26.036 40.1166 24.5284C40.4805 24.1634 40.8833 23.8395 41.318 23.5625C41.233 24.017 41.1898 24.4784 41.1889 24.9408C41.1889 25.9422 41.3516 27.3358 42.1154 28.3464C41.7403 28.6482 41.3322 28.9064 40.8989 29.1161ZM42.3883 28.1852C41.3016 26.7821 41.3743 23.9038 41.7319 23.3258C42.568 22.8226 43.4559 22.411 44.3801 22.098C44.5297 23.1265 45.2581 25.4665 45.5997 26.5863C44.4702 26.992 43.3924 27.529 42.3883 28.1865V28.1852ZM45.8959 26.4792C45.5582 25.3743 44.8539 23.1391 44.6839 21.9995C45.5927 21.7106 46.5228 21.4934 47.4656 21.35C48.4002 22.6122 49.0409 24.0672 49.3409 25.6088C48.1673 25.788 47.0136 26.0799 45.8959 26.4805V26.4792ZM52.3842 25.3494C49.6271 25.4102 49.6516 25.6787 49.6318 25.5093C49.5037 24.3974 48.6575 22.4434 47.821 21.2987C48.8729 21.1657 49.9348 21.1288 50.9934 21.1885C51.8915 22.0023 52.8193 24.3612 52.9657 25.3003C52.972 25.351 53.0806 25.3507 52.3842 25.3507V25.3494ZM53.946 24.7336C53.8673 24.9672 53.8764 25.2474 53.2713 25.3229C53.3507 25.0711 52.5205 22.4896 51.4769 21.2421C51.8622 21.2987 52.2369 21.413 52.5879 21.5817C53.6645 22.1418 54.0489 23.6 53.946 24.7349V24.7336Z" fill="#414141"/>
<path d="M43.945 39.4514C43.4605 39.4514 42.4915 36.3757 42.5724 34.7815C42.5748 34.7399 42.5934 34.7008 42.6244 34.6728C42.6553 34.6449 42.696 34.6302 42.7377 34.632C42.7584 34.633 42.7786 34.6381 42.7973 34.6469C42.8161 34.6558 42.8328 34.6682 42.8467 34.6836C42.8606 34.699 42.8713 34.7169 42.8783 34.7364C42.8852 34.7559 42.8883 34.7766 42.8872 34.7973C42.828 35.9621 43.4114 38.3952 44.0671 39.1939C44.0863 39.2169 44.0985 39.2449 44.1021 39.2746C44.1058 39.3043 44.1009 39.3344 44.0879 39.3614C44.0751 39.3884 44.0548 39.4113 44.0295 39.4272C44.0042 39.4431 43.9749 39.4516 43.945 39.4514Z" fill="#414141"/>
<path d="M47.1555 37.4778C46.7752 36.7012 45.8531 34.739 45.5097 33.2965C45.5042 33.2668 45.5074 33.2362 45.5187 33.2083C45.5301 33.1804 45.5493 33.1563 45.5739 33.1389C45.5985 33.1214 45.6276 33.1114 45.6577 33.11C45.6879 33.1086 45.7178 33.1159 45.7439 33.1309C45.7789 33.1515 45.8046 33.1847 45.8157 33.2238C46.1519 34.6354 47.0623 36.5721 47.4382 37.3393C47.4518 37.3673 47.4567 37.3986 47.4525 37.4294C47.4483 37.4602 47.4351 37.489 47.4146 37.5123C47.394 37.5356 47.367 37.5523 47.337 37.5604C47.307 37.5684 47.2753 37.5674 47.2459 37.5575C47.2064 37.5439 47.1739 37.5153 47.1555 37.4778Z" fill="#414141"/>
<path d="M50.2835 36.1118C50.1456 35.1673 49.4905 33.0115 48.9027 32.0882C48.8857 32.062 48.8769 32.0313 48.8776 32.0001C48.8783 31.9688 48.8884 31.9385 48.9065 31.9131C48.9308 31.8792 48.9672 31.8561 49.0082 31.8486C49.0389 31.8432 49.0705 31.847 49.099 31.8595C49.1276 31.8721 49.1517 31.8928 49.1685 31.9191C49.7867 32.8909 50.4497 35.071 50.5949 36.0664C50.5991 36.107 50.5876 36.1476 50.5627 36.1798C50.5378 36.2121 50.5014 36.2335 50.4611 36.2396C50.4206 36.2457 50.3794 36.2358 50.3462 36.2119C50.313 36.188 50.2905 36.1521 50.2835 36.1118Z" fill="#414141"/>
<path d="M54.2113 34.7156C54.1885 34.7159 54.166 34.7112 54.1452 34.7019C54.1244 34.6926 54.1059 34.6789 54.091 34.6617C54.076 34.6446 54.065 34.6244 54.0585 34.6026C54.0521 34.5807 54.0505 34.5578 54.0539 34.5353C54.2742 33.0383 53.3635 31.0409 53.354 31.0204C53.3368 30.9825 53.3352 30.9393 53.3496 30.9002C53.3641 30.8611 53.3934 30.8293 53.4312 30.8117C53.4691 30.7943 53.5124 30.7927 53.5516 30.8071C53.5908 30.8216 53.6226 30.8509 53.6402 30.8888C54.3136 32.347 54.6835 34.7156 54.2113 34.7156Z" fill="#414141"/>
<path d="M64.9693 47.6881C64.6703 41.5763 63.8278 33.7734 57.6257 33.7734C55.1501 33.7734 49.4885 36.229 47.3418 37.4621C46.7304 37.8263 45.3585 38.8199 45.3796 39.384C36.9848 37.8443 32.4994 51.9535 39.5666 55.1157C39.8018 58.8305 41.487 59.1453 45.2927 59.1737C59.1032 59.2712 59.3185 59.5379 60.9816 59.27C62.239 59.0713 62.6426 57.9966 62.8932 56.8566C63.1198 55.3566 63.1403 55.7384 63.1353 55.3515C64.7184 53.3506 65.1239 50.2242 64.9693 47.6881Z" fill="#414141"/>
<path d="M54.2156 26.8695C54.1486 26.6255 53.9663 26.3765 53.7286 26.3765C51.1081 26.3765 38.8604 29.2913 40.1842 32.2288C40.9775 33.5771 43.6156 33.7714 45.0893 31.0492C46.2333 28.8893 45.093 29.7346 46.879 30.5339C48.3315 31.1839 50.6435 30.4079 51.5656 29.3171C51.9052 28.9142 52.1177 28.3727 52.51 28.0371C52.946 27.6703 54.4832 27.8432 54.2156 26.8695Z" fill="#414141"/>
<path d="M52.1478 49.0521C52.1439 49.0104 52.1568 48.9688 52.1835 48.9365C52.2103 48.9043 52.2488 48.884 52.2905 48.8801C52.3323 48.8762 52.3739 48.889 52.4061 48.9158C52.4384 48.9426 52.4587 48.9811 52.4626 49.0228C53.1284 56.221 57.9853 58.5912 61.4423 56.4669C61.9551 56.137 62.4181 55.7353 62.817 55.274C62.8466 55.2446 62.8867 55.2281 62.9285 55.2281C62.9703 55.2282 63.0103 55.2449 63.0398 55.2745C63.0692 55.3041 63.0857 55.3442 63.0857 55.386C63.0856 55.4277 63.0689 55.4678 63.0393 55.4972C62.6263 55.9785 62.1439 56.3955 61.6078 56.7344C57.8695 59.0304 52.8287 56.4089 52.1478 49.0521Z" fill="white"/>
<path d="M39.7127 55.0608C39.5052 55.0608 39.5348 54.8404 39.5348 53.9816C39.4208 49.6546 40.5545 45.7651 42.8136 42.7429C42.8387 42.7096 42.876 42.6877 42.9173 42.6818C42.9585 42.6759 43.0005 42.6865 43.0339 42.7114C43.0672 42.7366 43.0891 42.7738 43.095 42.8151C43.1009 42.8564 43.0903 42.8983 43.0654 42.9318C38.6291 48.871 40.3039 55.0608 39.7127 55.0608Z" fill="white"/>
<path d="M61.4185 51.101C61.2054 51.101 59.4377 50.1109 58.8941 49.1807C58.876 49.1448 58.8724 49.1034 58.8839 49.065C58.8954 49.0265 58.9211 48.9939 58.9559 48.9738C58.9906 48.9537 59.0317 48.9476 59.0708 48.9568C59.1099 48.966 59.1439 48.9898 59.1661 49.0233C59.5678 49.7118 60.7889 50.5117 61.4796 50.8013C61.5034 50.8126 61.5239 50.8297 61.5394 50.851C61.5549 50.8723 61.5648 50.8971 61.5682 50.9231C61.5717 50.9492 61.5686 50.9757 61.5592 51.0003C61.5499 51.0249 61.5345 51.0467 61.5145 51.0639C61.4876 51.0866 61.4538 51.0997 61.4185 51.101Z" fill="white"/>
<path d="M46.2286 44.3962C46.2 44.3962 46.1719 44.3884 46.1474 44.3736C46.1229 44.3589 46.1029 44.3377 46.0895 44.3124C45.237 42.7047 44.8542 41.0544 45.4284 39.3283C45.4421 39.2894 45.4706 39.2573 45.5076 39.239C45.5447 39.2207 45.5874 39.2176 45.6267 39.2304C45.6658 39.2437 45.6982 39.2718 45.7169 39.3086C45.7357 39.3454 45.7393 39.388 45.7271 39.4275C44.7285 42.4409 46.9303 44.3962 46.2286 44.3962Z" fill="white"/>
<path d="M46.312 28.7558H46.8359V28.2319H47.3597V28.7558H47.8835V29.2796H47.3597V28.7558H46.8359V29.2796H46.312V28.7558Z" fill="white"/>
<path d="M40.5299 31.3754H41.0534V30.8516H41.5773V31.3754H42.1011V31.8993H41.5773V31.3754H41.0534V31.8993H40.5299V31.3754Z" fill="white"/>
<path d="M50.125 43.9433C50.2783 44.9409 51.2237 45.9757 51.3402 45.9757C51.4075 45.4695 51.5681 44.1932 51.5813 44.0868C51.2105 43.6328 49.9632 42.7926 50.125 43.9433Z" fill="white"/>
<path d="M57.4364 37.7643L53.5605 37.1778C53.288 37.1391 53.0114 37.2103 52.7913 37.3756C52.5713 37.5409 52.4259 37.7868 52.3872 38.0592C51.9924 40.8683 51.2671 46.5554 51.1094 47.7387C51.0903 47.8724 51.0982 48.0086 51.1324 48.1392C51.1666 48.2699 51.2265 48.3924 51.3086 48.4996C51.3908 48.6068 51.4934 48.6965 51.6105 48.7638C51.7276 48.831 51.8569 48.8743 51.9908 48.8912C53.3735 49.1006 55.6782 49.4359 55.8249 49.4579C55.9228 48.9202 56.4835 48.5708 57.013 48.3394C57.5246 44.7077 57.8945 42.12 58.3182 38.9196C58.3373 38.7856 58.3296 38.6492 58.2955 38.5183C58.2614 38.3873 58.2016 38.2645 58.1196 38.1568C58.0374 38.0493 57.9348 37.9593 57.8175 37.8919C57.7002 37.8245 57.5707 37.7811 57.4364 37.7643Z" fill="#7BD2FF"/>
<path d="M56.6831 38.8338C56.9542 38.8754 57.1982 39.0215 57.3629 39.2408C57.5277 39.4601 57.6 39.7352 57.5645 40.0071C57.4178 41.2645 57.1455 43.2758 57.1455 43.2758C56.3446 49.1889 57.0196 48.4988 52.7039 47.8639C52.4356 47.825 52.1931 47.6826 52.0284 47.4673C51.8637 47.252 51.7897 46.9808 51.8224 46.7117C51.8853 46.2508 52.7234 39.8607 52.8071 39.3366C52.8223 39.1993 52.8652 39.0666 52.933 38.9463C53.0009 38.8261 53.0923 38.7208 53.2019 38.6367C53.3114 38.5527 53.4367 38.4916 53.5704 38.4571C53.704 38.4225 53.8433 38.4152 53.9798 38.4356C54.4835 38.5196 56.39 38.7919 56.6831 38.8338Z" fill="white"/>
<path d="M54.5855 38.1089C54.5443 38.1025 54.5072 38.0802 54.4822 38.0469C54.4638 38.0218 54.4532 37.9919 54.4517 37.9608C54.4502 37.9297 54.4579 37.8989 54.4737 37.8722C54.4899 37.8456 54.5135 37.8243 54.5417 37.811C54.5698 37.7978 54.6013 37.7931 54.6321 37.7975C56.4057 38.0629 56.4718 38.0198 56.4407 38.2279C56.4095 38.436 56.344 38.3718 54.5855 38.1089Z" fill="#414141"/>
<path d="M56.3903 42.9817C56.3623 43.0654 56.3188 43.0402 56.6207 43.0654L56.7045 42.1436L56.4526 42.1226L56.3903 42.9817Z" fill="#414141"/>
<path d="M55.7611 43.1909C55.7334 43.3576 55.6831 43.312 55.9913 43.3375L56.0123 43.1073C55.701 43.0815 55.7611 43.0532 55.7611 43.1909Z" fill="#414141"/>
<path d="M56.0327 43.1061C56.0327 43.2385 55.9858 43.2064 56.2628 43.2319L56.2839 42.9803C55.9937 42.9542 56.06 42.9159 56.0327 43.1061Z" fill="#414141"/>
<path d="M55.4468 43.3996L55.698 43.4204L55.7188 43.1902L55.4675 43.1694L55.4468 43.3996Z" fill="#414141"/>
<path d="M55.5932 41.6197L55.3417 41.5986L55.1112 44.2597L55.3417 44.2805L55.5932 41.6197Z" fill="#414141"/>
<path d="M56.3893 42.0173L56.1377 41.9966L56.1169 42.2268C56.4974 42.2582 56.3201 42.2944 56.3893 42.0173Z" fill="#414141"/>
<path d="M56.0961 42.1218C56.1159 42.0394 56.1231 41.9548 56.1172 41.8702C55.8272 41.8438 55.8923 41.7894 55.8656 42.0793L56.0961 42.1218Z" fill="#414141"/>
<path d="M55.8655 41.85C55.8655 41.613 55.9249 41.667 55.6353 41.6406L55.6143 41.8922C55.8906 41.917 55.8366 41.9337 55.8655 41.85Z" fill="#414141"/>
<path d="M54.4415 43.9873L54.672 44.0083L55.0072 41.5569L54.7768 41.5361C54.4333 43.8664 54.4972 43.3743 54.4415 43.9873Z" fill="#414141"/>
<path d="M54.2733 41.4941H54.0217V43.5055H54.2733V41.4941Z" fill="#414141"/>
<path d="M54.0426 43.5044H53.7914V43.7975H54.0426V43.5044Z" fill="#414141"/>
<path d="M53.5609 43.5044H53.3097V43.7975H53.5609V43.5044Z" fill="#414141"/>
<path d="M53.3094 41.4102H53.0579V43.5052H53.3094V41.4102Z" fill="#414141"/>
<path d="M53.7921 43.7979H53.5409V44.0909H53.7921V43.7979Z" fill="#414141"/>
<path d="M50.2253 43.2209C50.6758 43.0261 51.4379 43.6441 51.652 43.9116C51.6768 43.9444 51.6878 43.9855 51.6827 44.0262C51.6776 44.0669 51.6569 44.1041 51.6248 44.1297C51.5927 44.1553 51.5519 44.1674 51.5111 44.1633C51.4702 44.1593 51.4326 44.1395 51.4061 44.1081C51.1543 43.7914 50.5524 43.4218 50.3503 43.5099C50.2747 43.5414 50.2489 43.6988 50.2813 43.9246C50.4966 45.3245 51.6891 45.8222 51.4077 46.0927C51.0044 46.4821 49.2991 43.6211 50.2253 43.2209Z" fill="#414141"/>
<path d="M57.2241 44.9861C57.2241 44.9861 55.9123 45.0305 55.7678 44.5079C55.6233 43.9853 56.8209 43.276 57.7728 43.0862C61.0607 42.4298 61.1064 43.7734 58.9376 44.5746C58.9376 44.5746 60.1682 44.8239 60.2255 45.2442C60.2828 45.6645 58.7484 46.3313 58.7484 46.3313C58.7484 46.3313 59.6825 46.3199 59.8046 46.8202C59.9268 47.3204 58.7151 47.9097 58.7151 47.9097C58.7151 47.9097 59.2377 47.9654 59.3711 48.3322C59.5046 48.6989 58.6597 49.1438 57.9592 49.434C55.89 50.2881 54.8149 49.5313 57.2254 48.2C55.516 48.4899 55.0293 47.5703 57.3035 46.6659C55.3885 46.6949 55.1193 45.7608 57.2241 44.9861Z" fill="white"/>
<path d="M59.2684 44.592C59.8549 44.3468 60.6378 43.9659 60.5679 43.3378C60.3671 41.7952 54.6199 43.5056 55.6991 44.7126C55.8936 45.0047 56.3224 45.0696 56.6854 45.0834C54.8888 45.7477 55.4526 46.7655 56.8689 46.7667C55.0619 47.5059 55.3043 48.348 56.5676 48.348C56.8107 48.348 55.6663 48.7211 55.6663 49.4549C55.6663 50.434 57.8609 49.7181 58.7644 49.2815C59.3282 48.9981 59.791 48.7148 59.4831 48.1251C59.4362 48.0351 59.1633 47.9199 59.0672 47.8865C59.5297 47.6662 60.1222 47.2906 60.0117 46.7907C59.9383 46.4551 59.4853 46.2571 59.1674 46.2602C59.7592 45.9945 60.279 45.7115 60.3567 45.2711C60.3961 45.0532 60.0992 44.6248 59.2684 44.592ZM55.9572 44.5319C55.7151 44.1422 56.8239 43.5875 57.2284 43.4392C57.8266 43.1732 60.1741 42.7498 60.2557 43.3762C60.3605 44.3156 56.3863 45.2182 55.9575 44.5319H55.9572ZM58.6256 48.9991C58.0428 49.2805 56.6278 49.8018 56.0498 49.5601C55.8666 49.487 56.0932 49.1256 56.2616 48.9874C57.8011 47.7244 60.5277 48.048 58.6259 48.9991H58.6256ZM59.705 46.8583C59.9497 47.9788 54.3435 48.5678 56.2997 47.392C57.1154 46.926 59.5492 46.1472 59.7054 46.858L59.705 46.8583ZM59.5332 45.7165C56.5894 47.3935 53.2832 45.7301 58.9454 44.9182C59.2826 44.87 59.9213 44.9311 60.04 45.2506C59.9849 45.4593 59.7749 45.579 59.5335 45.7162L59.5332 45.7165Z" fill="#414141"/>
<path d="M45.3699 47.2981C45.396 48.6011 47.2795 48.4513 47.2556 47.256C47.232 46.0805 45.3438 45.9826 45.3699 47.2981Z" fill="white"/>
<path d="M44.636 52.1785C44.6621 53.4815 46.5457 53.3316 46.5217 52.1366C46.4975 50.9246 44.6099 50.878 44.636 52.1785Z" fill="white"/>
<path d="M44.1757 56.7668C44.2018 58.0698 46.1089 57.9194 46.0611 56.725C46.0117 55.4827 44.1502 55.4969 44.1757 56.7668Z" fill="white"/>
<path d="M23.9573 35.9814V35.7925C26.1195 35.7925 28.065 34.9296 28.7762 32.7965C28.9188 32.7965 28.9336 30.8075 28.9855 30.3872C29.1949 28.6778 29.9576 26.9662 28.9436 24.5837C28.8306 24.2796 28.6678 23.9964 28.462 23.7456C27.3663 23.2819 26.194 23.0257 25.0047 22.9901C21.8881 22.838 20.8568 23.7935 20.626 23.6395V23.6606C20.0395 24.9385 19.7319 26.4823 19.2641 27.4736C18.6776 28.7168 18.1066 28.8541 17.9234 29.1289C15.9268 27.7979 14.5417 30.1609 15.4093 31.5382C15.8248 32.1993 16.7708 32.8793 17.3995 32.7952C17.3784 32.7952 17.3158 34.8065 17.2106 36.2314C15.4193 36.2314 11.7348 38.0522 9.87773 40.2751C15.9441 38.3491 22.8196 44.1234 22.6591 50.5411C22.6276 51.8419 22.0294 52.3843 22.0294 52.7829C19.9762 52.741 18.3628 51.3791 18.1535 51.5677C18.0047 51.7171 17.8775 51.8867 17.7757 52.0714C17.5189 51.816 17.2808 51.5425 17.0633 51.2529C17.1231 51.1931 16.8744 51.3048 19.1584 50.373L18.4881 48.8855L15.9111 49.891C15.3592 49.2299 15.2075 49.1578 15.2405 49.1578L16.3509 44.9255L15.7014 43.5428L13.3769 44.5084L12.6843 43.3562L11.323 43.9641L11.9095 45.1163L9.68884 46.0802L10.4444 47.4629C11.561 46.9881 10.8417 47.2809 13.9851 46.038C13.5506 47.7774 13.5777 47.6795 13.5443 47.7771C12.9707 47.5029 11.709 47.2246 11.3237 47.6096C10.9585 47.9341 12.6556 48.0503 13.691 48.8037C13.8858 48.941 14.0619 49.103 14.2149 49.2856C14.1976 49.3029 13.6208 48.9447 13.4817 48.8666C12.2958 48.2014 10.8858 48.2036 10.6531 48.5518C10.3761 48.9211 12.236 48.8147 13.4187 49.9974C13.1921 50.073 12.4006 49.2013 10.7787 49.2013C10.5898 49.2013 10.1711 49.2013 10.0455 49.3901C9.78045 49.7878 11.8947 50.0239 12.8322 50.9614C12.8111 50.9825 12.6855 50.8984 12.6855 50.8984C12.1677 50.6025 11.1924 50.1743 10.5064 50.186C10.3175 50.1891 9.93975 50.2279 9.81382 50.4164C9.46753 50.9365 11.6108 51.1597 12.412 51.7991C13.3721 52.566 12.5237 53.8454 16.0782 55.0048L16.2671 55.0467C16.0298 55.6133 15.7634 56.2357 15.7634 56.6809C15.8217 57.0901 20.3313 59.0344 22.1541 59.3209C35.5912 61.432 38.835 41.7343 23.9573 35.9814Z" fill="white"/>
<path d="M13.9425 40.0885C7.75961 38.8532 3.79519 44.499 5.33147 50.3126C6.7519 55.6874 12.5951 58.8579 17.0015 57.5618L17.0434 57.457C16.2878 57.1009 15.7442 56.7644 15.7234 56.64C15.7945 56.0702 15.9652 55.5171 16.2271 55.0058L16.0382 54.964C12.4408 53.7891 13.3513 52.5226 12.3716 51.7582C11.5641 51.1286 9.42275 50.8793 9.77377 50.3756C9.90315 50.1895 10.2775 50.1659 10.4664 50.1452C11.1747 50.1215 12.03 50.5059 12.6455 50.8573C12.6663 50.8573 12.7714 50.9413 12.7922 50.9202C11.8981 50.0265 9.72812 49.712 10.0055 49.349C10.3461 48.9032 12.0436 49.31 12.75 49.6638C12.8548 49.7057 13.2537 49.9991 13.3796 49.9572C12.7032 49.3628 11.8774 48.9643 10.9911 48.8047C9.74669 48.5352 11.6431 47.5842 14.0083 49.1611C14.0593 49.2032 14.1153 49.2385 14.1758 49.2659C12.7358 47.8259 10.8772 47.9969 11.2845 47.5895C11.6919 47.1822 12.948 47.4907 13.5052 47.7573C13.5943 47.6978 13.5084 47.9563 13.9872 46.0391C10.8016 47.3481 11.5606 47.0323 10.4465 47.5058L9.69097 46.1231L11.9116 45.1592L11.323 44.0051L12.6848 43.3975L13.3774 44.5289L15.7029 43.5861L16.3524 44.9687L15.242 49.18C15.2735 49.18 15.8314 49.8162 15.9126 49.9135L18.4896 48.9076L19.1602 50.3951C16.8882 51.3226 17.1249 51.2136 17.0648 51.2766C17.2858 51.5631 17.5235 51.8357 17.7772 52.0935C17.8896 51.9157 18.0158 51.7472 18.155 51.5898C18.3439 51.4009 19.9777 52.742 22.0309 52.805C22.1336 52.5355 23.968 49.8354 21.0834 45.1116C20.3068 43.8247 19.2709 42.7134 18.0415 41.8486C16.8121 40.9838 15.4162 40.3844 13.9425 40.0885Z" fill="#005BC3"/>
<path d="M27.4353 30.9546C27.2983 30.9546 27.1644 30.9952 27.0505 31.0713C26.9366 31.1474 26.8478 31.2556 26.7954 31.3822C26.743 31.5087 26.7293 31.648 26.756 31.7823C26.7827 31.9167 26.8487 32.0401 26.9455 32.1369C27.0424 32.2338 27.1658 32.2998 27.3001 32.3265C27.4345 32.3532 27.5737 32.3395 27.7003 32.2871C27.8269 32.2346 27.935 32.1459 28.0111 32.032C28.0872 31.9181 28.1278 31.7842 28.1278 31.6472C28.1287 31.556 28.1114 31.4655 28.0769 31.3811C28.0424 31.2967 27.9914 31.22 27.927 31.1555C27.8625 31.091 27.7858 31.04 27.7013 31.0055C27.6169 30.9711 27.5265 30.9537 27.4353 30.9546Z" fill="#FDAF31"/>
<path d="M20.4586 29.8218C19.873 29.8218 19.703 30.5144 19.766 30.5144C19.766 30.6513 19.8066 30.7852 19.8827 30.8991C19.9588 31.013 20.067 31.1018 20.1936 31.1542C20.3201 31.2066 20.4594 31.2204 20.5937 31.1936C20.7281 31.1669 20.8515 31.101 20.9483 31.0041C21.0452 30.9072 21.1111 30.7838 21.1379 30.6495C21.1646 30.5151 21.1509 30.3759 21.0985 30.2493C21.046 30.1228 20.9573 30.0146 20.8434 29.9385C20.7295 29.8624 20.5956 29.8218 20.4586 29.8218Z" fill="#FDAF31"/>
<path d="M16.0583 55.1433C15.9258 55.1433 13.9932 54.5184 13.1869 53.4238C12.8406 52.9276 12.7342 52.248 12.2948 51.9039C11.4662 51.2594 9.16081 51.0624 9.66262 50.31C9.84899 50.0307 10.3461 49.9926 10.681 50.0119C10.3099 49.8686 9.66293 49.6596 9.91415 49.2834C10.2183 48.8275 11.6935 49.1445 10.998 49C10.6152 48.9235 10.341 48.7057 10.5258 48.4583C10.9036 47.8897 12.4717 48.3657 11.6928 48.1157C11.7558 48.1157 11.2187 48.0477 11.1337 47.7663C11.079 47.5856 11.2666 47.4065 11.4193 47.3571C12.2063 47.0618 13.6157 47.5922 13.5915 47.6372C14.6369 48.0802 16.478 50.2927 17.1875 51.1792C17.8216 51.9719 18.0061 52.0421 17.8401 52.1907C17.5552 52.4463 16.8642 51.029 15.1306 49.2944C14.7267 48.876 13.9381 48.1142 13.406 47.8803C13.055 47.726 11.7797 47.4005 11.4643 47.6945C11.6972 47.8491 12.9458 48.0578 13.7851 48.6796C14.0023 48.8282 14.1943 49.0098 14.3558 49.2176C14.4207 49.3467 14.2976 49.5765 13.956 49.3322C13.7986 49.2478 13.5908 49.1093 13.4054 49.0063C12.2551 48.3547 11.0654 48.4164 10.8155 48.61C11.0078 48.7148 12.6348 48.9714 13.5304 49.8692C13.5492 49.8884 13.5628 49.912 13.5701 49.9379C13.5773 49.9638 13.5778 49.9911 13.5716 50.0172C13.5653 50.0433 13.5524 50.0674 13.5342 50.0871C13.516 50.1068 13.493 50.1216 13.4674 50.1299C13.2436 50.2033 12.8432 49.8781 12.7308 49.8334C11.6148 49.2765 10.3728 49.2648 10.1887 49.4442C10.3637 49.6218 12.2305 50.1368 12.9215 50.8332C13.0475 50.9591 12.9137 51.2368 12.5753 51.0123C12.0898 50.7362 11.1381 50.3034 10.489 50.3263C10.2867 50.3078 10.0848 50.365 9.92234 50.4869C9.9066 50.7655 11.7637 51.0964 12.4862 51.658C13.5732 52.508 12.5548 53.6791 16.1065 54.8376C16.1412 54.8497 16.1706 54.8737 16.1894 54.9053C16.2082 54.9369 16.2153 54.9741 16.2094 55.0104C16.2036 55.0467 16.1853 55.0798 16.1577 55.104C16.1302 55.1282 16.095 55.1421 16.0583 55.1433Z" fill="#414141"/>
<path d="M17.5253 31.8028C17.2489 31.8028 17.3758 31.0133 16.2818 30.4662C16.2464 30.4463 16.22 30.4136 16.2082 30.3748C16.1963 30.336 16.1999 30.2941 16.2182 30.2579C16.2364 30.2217 16.268 30.1939 16.3063 30.1804C16.3445 30.1669 16.3865 30.1686 16.4235 30.1853C17.3868 30.667 17.9447 31.8028 17.5253 31.8028Z" fill="#414141"/>
<path d="M23.5378 27.5697C23.5063 27.5697 20.832 26.4805 20.7781 26.3734C20.7596 26.3361 20.7566 26.2929 20.7699 26.2533C20.7832 26.2138 20.8116 26.1811 20.849 26.1625C20.9434 26.1153 20.8641 26.1282 22.1728 26.6681C23.6124 27.2628 23.7679 27.287 23.6813 27.4784C23.6687 27.5058 23.6484 27.5289 23.623 27.5451C23.5975 27.5613 23.5679 27.5698 23.5378 27.5697Z" fill="#414141"/>
<path d="M27.1021 27.4185C27.9273 26.7117 28.7061 26.8153 29.1059 27.29C29.1325 27.322 29.1453 27.3632 29.1417 27.4046C29.138 27.446 29.1181 27.4843 29.0862 27.5111C29.0544 27.5378 29.0133 27.5509 28.9719 27.5475C28.9305 27.5441 28.8921 27.5244 28.8651 27.4928C28.47 27.024 27.8158 27.2211 27.3071 27.6577C27.2754 27.6849 27.2342 27.6983 27.1925 27.695C27.1509 27.6918 27.1123 27.6721 27.0851 27.6404C27.058 27.6087 27.0446 27.5675 27.0478 27.5258C27.0511 27.4842 27.0707 27.4456 27.1025 27.4185H27.1021Z" fill="#414141"/>
<path d="M24.9551 34.613C24.2767 34.613 24.1801 33.7233 25.2536 33.5426C26.1259 33.3213 25.8555 34.613 24.9551 34.613ZM25.4525 33.8366C25.2152 33.8486 24.9876 33.9342 24.8012 34.0816C24.6007 34.2163 25.0496 34.4908 25.3877 34.0904C25.4197 34.0576 25.4424 34.017 25.4536 33.9725C25.4647 33.9281 25.4638 33.8815 25.451 33.8376L25.4525 33.8366Z" fill="#414141"/>
<path d="M27.8663 29.2998C27.4727 28.9947 26.8929 30.4715 27.6002 30.4715C28.0633 30.4715 28.2299 29.5794 27.8663 29.2998Z" fill="#414141"/>
<path d="M22.4399 28.44C22.047 28.139 21.4259 29.6952 22.1292 29.6952C22.5957 29.6952 22.8054 28.7211 22.4399 28.44Z" fill="#414141"/>
<path d="M25.8937 32.0847C27.1426 30.697 25.5197 31.569 25.6859 29.7236C25.7092 29.6178 25.7092 29.5401 25.7319 29.4481C25.7662 29.2278 26.0401 29.0704 26.0401 29.5111C26.0177 29.6055 26.0199 29.6773 25.9954 29.7749C25.9371 30.5081 26.172 30.6469 26.3102 30.7584C26.9194 31.247 26.7308 31.6222 26.138 32.2808C25.9979 32.4388 25.7577 32.2358 25.8937 32.0847Z" fill="#414141"/>
<path d="M24.3894 35.9562C26.4533 35.8261 28.0069 34.9173 28.7086 33.4248C29.0216 33.471 29.354 33.6628 29.9556 33.2617C30.5119 32.8924 30.2748 32.2398 30.6022 31.948C30.8994 31.6684 31.6789 31.953 31.9767 31.3574C32.3523 30.583 31.5548 29.5513 31.615 28.8074C31.6993 27.7633 31.7203 26.7151 31.6779 25.6685C31.5835 22.408 29.6795 19.8334 26.8245 19.1094C24.2298 18.4502 23.2357 19.2183 22.8283 19.2731C22.1886 19.3499 21.2813 18.6875 20.5154 18.6022C17.6915 18.3327 14.9476 21.1811 14.1678 23.976C13.9387 24.8103 13.8134 25.7594 13.332 26.441C12.7616 27.2482 11.1072 27.4928 11.5722 28.991C11.6765 29.3126 11.8773 29.5943 12.1473 29.7977C12.4174 30.0011 12.7435 30.1163 13.0814 30.1278C13.5121 30.1507 13.4781 30.1425 13.4979 30.617C13.5609 32.0849 15.265 31.9864 15.4013 31.8315C15.831 32.412 16.6133 32.9507 17.2517 32.9803C17.2517 32.9891 17.1346 35.426 17.0748 36.2395C16.969 37.4553 16.8998 37.3615 16.9429 37.4525C18.2909 40.2703 22.6385 40.5691 24.0787 36.1683C38.629 41.9659 35.3206 61.1426 22.1584 59.1234C20.232 58.819 16.2116 56.9991 15.9009 56.6068C15.8977 55.7458 17.6566 52.4161 18.2575 51.7121C19.0288 51.8985 23.5369 55.3954 27.0033 49.681C27.0196 49.6544 27.0276 49.6236 27.0262 49.5925C27.0249 49.5613 27.0143 49.5313 26.9958 49.5063C26.9835 49.4896 26.9681 49.4754 26.9504 49.4647C26.3063 49.075 25.156 54.7891 18.9338 51.6737C18.4364 51.4244 18.2097 51.3108 18.0554 51.465C17.3799 52.2372 15.5769 55.6353 15.5876 56.6613C15.6711 57.2371 20.3759 59.1606 22.1099 59.4345C26.6684 60.1346 30.7489 58.1195 32.6246 54.5114C35.7185 48.5518 33.3046 39.6347 24.3894 35.9562ZM19.8596 34.4718C19.829 34.4499 19.7916 34.4397 19.7541 34.443C19.7166 34.4463 19.6815 34.463 19.6552 34.4899C19.629 34.5169 19.6132 34.5524 19.6109 34.5899C19.6085 34.6275 19.6197 34.6647 19.6424 34.6947C19.7073 34.7803 21.2139 36.7246 23.4119 36.9399C21.712 40.2732 18.3479 39.5142 17.2646 37.3933C17.4639 36.1655 17.5313 33.2293 17.5725 32.86C17.5789 32.8366 17.5798 32.8121 17.5752 32.7883C17.5705 32.7645 17.5605 32.742 17.5458 32.7228C17.531 32.7035 17.5121 32.6879 17.4904 32.6771C17.4686 32.6663 17.4447 32.6607 17.4205 32.6607C16.6511 32.6607 15.8952 32.0377 15.5395 31.4729C14.7471 30.2137 16.0133 28.0686 17.8442 29.2875C18.3542 29.5847 18.1014 30.062 18.4068 30.0198C18.7216 29.9751 18.414 29.3558 18.1732 29.1383C18.4603 28.8959 18.5037 28.9031 18.544 28.8569C19.848 27.3898 19.8829 25.7135 20.7099 23.8551C22.6396 23.0798 24.7618 22.9201 26.7858 23.3977C27.376 23.4849 27.9474 23.6713 28.4763 23.9486C28.5015 24.0085 28.7143 24.463 28.8021 24.6686C29.9059 27.2586 28.8213 28.8203 28.7936 31.2652C28.8285 31.9096 28.7237 32.5539 28.4864 33.154C27.1724 36.2414 22.266 36.2175 19.8596 34.4718Z" fill="#414141"/>
<path d="M9.75743 40.1953C12.2992 37.1561 17.2103 35.6274 17.2836 36.235C17.2885 36.2765 17.2768 36.3182 17.2512 36.3511C17.2252 36.3838 17.1875 36.4049 17.146 36.41C14.071 36.7783 11.1476 39.034 10.0131 40.3817C10.0009 40.3985 9.98547 40.4127 9.96775 40.4235C9.95002 40.4343 9.93033 40.4415 9.9098 40.4446C9.88928 40.448 9.86828 40.4473 9.84803 40.4425C9.82779 40.4377 9.8087 40.4289 9.79188 40.4167C9.77506 40.4044 9.76085 40.389 9.75007 40.3712C9.73929 40.3534 9.73216 40.3336 9.7291 40.313C9.72257 40.2716 9.73276 40.2292 9.75743 40.1953Z" fill="#414141"/>
<path d="M9.82705 40.1494C7.02523 41.0938 5.25726 43.7729 5.25726 46.1053C5.28464 47.1454 5.48297 48.1736 5.84469 49.1492C5.60262 49.4949 5.391 49.8609 5.21224 50.2432C5.20292 50.2618 5.19738 50.282 5.19594 50.3028C5.19449 50.3235 5.19717 50.3443 5.20381 50.364C5.21046 50.3837 5.22094 50.4019 5.23465 50.4175C5.24836 50.4331 5.26503 50.4459 5.2837 50.455C5.30227 50.4643 5.3225 50.4699 5.34321 50.4713C5.36393 50.4727 5.38473 50.4701 5.40441 50.4635C5.4241 50.4569 5.44228 50.4464 5.45792 50.4328C5.47357 50.4191 5.48636 50.4025 5.49557 50.3839C5.67375 50.0269 5.85729 49.7266 5.98636 49.5135C6.17749 49.9835 6.39993 50.4401 6.65218 50.8804C6.53854 51.0135 6.35689 51.3252 5.95582 51.946C5.9446 51.9634 5.9369 51.9828 5.93318 52.0031C5.92945 52.0234 5.92977 52.0443 5.93411 52.0645C5.93845 52.0847 5.94673 52.1039 5.95848 52.1209C5.97022 52.1379 5.98521 52.1525 6.00257 52.1637C6.01993 52.1749 6.03934 52.1826 6.05968 52.1863C6.08001 52.1901 6.10088 52.1897 6.1211 52.1854C6.14131 52.1811 6.16047 52.1728 6.17749 52.161C6.1945 52.1493 6.20904 52.1343 6.22026 52.1169C6.52752 51.6425 6.72207 51.3592 6.83005 51.181C7.15214 51.7069 7.5133 52.2078 7.91048 52.6795C7.3328 53.5273 6.77433 54.0962 7.2179 54.0962C7.24535 54.096 7.27231 54.0888 7.29614 54.0752C7.31997 54.0616 7.33987 54.042 7.3539 54.0184C7.5283 53.7218 7.80408 53.3888 8.12172 52.9266C8.47256 53.3227 8.84826 53.6959 9.24654 54.0442C8.98304 54.5038 8.50894 55.203 8.46864 55.2521C8.43997 55.2818 8.4241 55.3216 8.42446 55.3629C8.42482 55.4041 8.44138 55.4436 8.47056 55.4728C8.49974 55.502 8.53922 55.5185 8.58049 55.5189C8.62177 55.5193 8.66153 55.5034 8.69121 55.4747C8.75418 55.4118 9.22104 54.7119 9.48989 54.2514C9.90062 54.5926 10.3341 54.9055 10.7872 55.1879C10.4959 55.5662 10.2253 55.96 9.97659 56.3675C9.95417 56.4028 9.94667 56.4454 9.95573 56.4862C9.96479 56.527 9.98968 56.5625 10.0249 56.5849C10.0601 56.6073 10.1028 56.6148 10.1436 56.6058C10.1844 56.5967 10.2199 56.5718 10.2423 56.5366C10.6144 55.9517 10.9081 55.5676 11.0583 55.3513C11.6035 55.6711 12.1766 55.941 12.7705 56.1575C12.559 56.4553 12.2923 57.0167 12.0616 57.2934C12.0426 57.3164 12.0305 57.3443 12.0267 57.374C12.023 57.4036 12.0277 57.4337 12.0404 57.4607C12.053 57.4877 12.0731 57.5106 12.0983 57.5267C12.1234 57.5428 12.1526 57.5514 12.1825 57.5515C12.3742 57.5515 12.8436 56.6351 13.1137 56.2743C13.8283 56.5063 14.5702 56.6439 15.3205 56.6836C15.1404 57.0438 14.9372 57.3921 14.7123 57.7262C14.6951 57.7522 14.686 57.7826 14.686 57.8138C14.686 57.8449 14.6951 57.8753 14.7123 57.9013C14.7268 57.9227 14.7463 57.9402 14.7691 57.9524C14.7919 57.9645 14.8174 57.9709 14.8432 57.9709C14.8691 57.9709 14.8946 57.9645 14.9174 57.9524C14.9402 57.9402 14.9597 57.9227 14.9742 57.9013C14.9808 57.8912 15.5897 56.9062 15.664 56.6927H15.7024C15.744 56.6925 15.7839 56.6758 15.8134 56.6463C15.8429 56.6169 15.8595 56.577 15.8598 56.5353C15.8597 56.4936 15.8431 56.4536 15.8136 56.4241C15.7841 56.3946 15.7441 56.378 15.7024 56.3779C10.7532 56.3817 5.67532 51.3501 5.5727 46.1015C5.5727 43.9086 7.26008 41.346 9.92559 40.4482C15.8163 38.5785 22.6632 44.1412 22.501 50.5602C22.4645 52.03 21.629 52.6348 21.9592 52.8001C21.9966 52.8187 22.0398 52.8218 22.0794 52.8086C22.1189 52.7954 22.1517 52.7671 22.1705 52.7299C22.5564 51.958 22.7938 51.4407 22.8158 50.5684C22.9817 43.9633 15.947 38.2064 9.82705 40.1494Z" fill="white"/>
<path d="M28.7398 23.8893C27.575 22.1497 26.4543 21.1067 25.014 22.6722C24.5591 21.9617 23.2713 21.4048 22.6413 21.5405C21.8102 21.748 21.0329 22.3319 20.4836 23.5887C20.3262 23.781 20.6542 23.9926 20.7502 23.7656C20.9374 23.3177 21.2011 22.9058 21.5294 22.5482C22.1184 22.3675 23.3219 22.7878 23.5785 23.0245C23.6092 23.0528 23.6498 23.0677 23.6915 23.0661C23.7331 23.0644 23.7724 23.0463 23.8008 23.0157C24.1411 22.6461 22.4899 22.2066 21.9399 22.1906C22.1755 22.0322 22.437 21.9162 22.7125 21.8477C23.2401 21.7341 24.4439 22.279 24.7805 22.8958C25.1453 23.622 25.7699 21.3532 27.3096 22.6256C26.998 22.6398 25.939 22.8029 26.1005 23.1259C26.2383 23.4026 26.3495 22.937 27.6364 22.9401C27.9554 23.2847 28.2375 23.6617 28.4779 24.065C28.5016 24.0988 28.5376 24.1219 28.5782 24.1295C28.6187 24.1371 28.6607 24.1284 28.6949 24.1055C28.7292 24.0825 28.7531 24.047 28.7615 24.0065C28.7699 23.9661 28.7621 23.924 28.7398 23.8893Z" fill="white"/>
<path d="M37.7432 16.8336C37.2641 14.7685 35.7095 16.4681 35.3547 14.3403C35.3245 14.1631 35.2824 13.9881 35.2288 13.8165C34.7739 12.5787 33.3953 12.1096 33.3012 12.392C33.2697 12.4575 33.3957 12.6123 33.469 12.5384C33.6826 12.5578 33.8897 12.6221 34.0766 12.7272C35.826 13.7683 34.4544 15.3786 36.444 15.8074C38.0083 16.1439 37.1866 17.27 38.0993 17.8606C38.1159 17.8729 38.1358 17.8802 38.1565 17.8813C38.1773 17.8824 38.1979 17.8774 38.2157 17.8669C38.2334 17.8561 38.2476 17.8404 38.2565 17.8217C38.2654 17.8031 38.2688 17.7822 38.2661 17.7617C38.262 17.7342 38.2473 17.7095 38.2252 17.6928C38.0878 17.5926 37.9736 17.4641 37.8904 17.3158C37.8073 17.1675 37.757 17.0031 37.7432 16.8336Z" fill="#7BD2FF"/>
<path d="M37.3242 19.0549C36.6905 18.8975 36.6042 18.079 36.0042 17.756C35.4306 17.4484 34.7739 17.8253 34.2233 17.6301C33.753 17.4636 33.5647 16.9089 33.1967 16.3938C32.274 15.308 30.9131 15.4466 30.9131 15.7012C30.9159 15.7243 30.9254 15.746 30.9404 15.7637C30.9554 15.7814 30.9752 15.7944 30.9974 15.8011C31.0196 15.8077 31.0433 15.8078 31.0656 15.8013C31.0878 15.7947 31.1077 15.7818 31.1228 15.7642C31.4615 15.5948 32.4336 15.7828 33.0503 16.5197C33.3299 16.8534 33.5629 17.6178 34.1607 17.819C34.7585 18.0201 35.3198 17.6351 35.8997 17.9027C36.4629 18.21 36.5416 19.036 37.2823 19.2227C37.4067 19.2227 37.4549 19.1204 37.3242 19.0549Z" fill="#7BD2FF"/>
<path d="M39.7335 16.9395C39.3126 16.4424 39.7458 15.753 39.4401 15.1168C39.1423 14.4972 38.4012 14.4412 38.0782 13.9857C37.7634 13.5399 37.9948 12.796 37.9523 12.3722C37.8103 10.9468 36.6282 10.252 36.4856 10.4657C36.4333 10.5699 36.5316 10.6732 36.6115 10.6332C36.9369 10.7952 37.2121 11.0426 37.4078 11.3489C37.6034 11.6552 37.7121 12.0089 37.7222 12.3722C37.7367 13.0963 37.5437 13.5953 37.8689 14.0694C38.2186 14.5794 38.9707 14.6436 39.2097 15.1586C39.493 15.6784 39.0264 16.4065 39.5449 17.0444C39.6413 17.1407 39.8298 17.0359 39.7335 16.9395Z" fill="#7BD2FF"/>
</svg>
