<svg width="51" height="51" viewBox="0 0 51 51" fill="none" xmlns="http://www.w3.org/2000/svg">
<g clip-path="url(#clip0_1982_65274)">
<path d="M28.0802 41.0041C28.0802 41.0041 42.0127 41.1341 42.4902 41.0041C42.9677 40.8741 46.7402 41.6466 46.8727 37.7891C47.0027 33.9791 46.9327 17.8791 46.8727 17.2891C46.8127 16.6991 46.8952 13.2291 42.1552 13.2416C37.5827 13.2416 12.5027 13.1891 9.88266 13.2416C6.45266 13.3066 5.65516 14.1466 5.63266 17.6716C5.61016 21.1966 5.53766 30.7466 5.53766 30.7466C5.20058 30.8618 4.8976 31.0593 4.65618 31.3213C4.41476 31.5832 4.24255 31.9013 4.15516 32.2466C3.99516 32.8441 4.80516 38.8191 5.58516 40.9966C5.83516 41.6616 7.03266 42.3116 8.98516 41.9041C12.2727 41.2166 16.3852 40.6541 16.3852 40.6541C16.4327 41.0591 16.7552 41.0191 17.1602 41.0191L28.0802 41.0041Z" fill="white"/>
<path d="M47.0153 18.1495C47.0153 16.5295 47.0153 13.1245 42.3478 13.1245H9.90531C8.19031 13.1245 5.59531 13.0995 5.57031 16.7445V22.3545C5.57492 22.3894 5.59204 22.4214 5.61848 22.4446C5.64493 22.4677 5.6789 22.4805 5.71406 22.4805C5.74923 22.4805 5.7832 22.4677 5.80964 22.4446C5.83609 22.4214 5.8532 22.3894 5.85781 22.3545C5.85781 22.3295 5.81031 20.8295 5.85781 17.7095C7.52531 17.7095 24.2203 17.6145 46.7778 17.447C46.7778 17.7095 46.8003 36.1445 46.8003 37.217C46.8003 38.502 46.5128 39.407 45.9203 39.967C44.9203 40.9395 43.2053 40.9095 41.3703 40.897L28.2328 40.8545C28.0778 40.8545 28.0028 41.1945 28.2328 41.1945L42.3328 41.2195C43.8578 41.2195 45.2203 41.1045 46.1203 40.2195C46.7678 39.582 47.1203 38.602 47.0953 37.267C47.0753 36.1045 47.0153 21.057 47.0153 18.1495ZM5.83281 17.3995V16.732C5.84531 15.232 6.30781 14.2745 7.23781 13.7795C8.04781 13.347 9.07281 13.3745 9.90531 13.3745H42.3478C45.9678 13.3745 46.6103 15.4695 46.7303 17.137C24.1978 17.317 7.50031 17.387 5.83281 17.412V17.3995Z" fill="#313131"/>
<path d="M39.2979 14.9606C39.263 14.956 39.231 14.9389 39.2078 14.9124C39.1847 14.886 39.1719 14.852 39.1719 14.8168C39.1719 14.7817 39.1847 14.7477 39.2078 14.7213C39.231 14.6948 39.263 14.6777 39.2979 14.6731C39.3229 14.6731 41.4879 14.6506 43.9179 14.6731C43.9383 14.6704 43.9592 14.6721 43.9789 14.6781C43.9987 14.684 44.0169 14.6942 44.0325 14.7078C44.048 14.7214 44.0604 14.7382 44.0689 14.757C44.0775 14.7758 44.0819 14.7962 44.0819 14.8168C44.0819 14.8375 44.0775 14.8579 44.0689 14.8767C44.0604 14.8955 44.048 14.9123 44.0325 14.9259C44.0169 14.9395 43.9987 14.9496 43.9789 14.9556C43.9592 14.9616 43.9383 14.9633 43.9179 14.9606C41.4879 14.9356 39.2979 14.9606 39.2979 14.9606Z" fill="#4D68A1"/>
<path d="M39.2979 16.2702C39.263 16.2655 39.231 16.2484 39.2078 16.222C39.1847 16.1955 39.1719 16.1616 39.1719 16.1264C39.1719 16.0912 39.1847 16.0573 39.2078 16.0308C39.231 16.0044 39.263 15.9873 39.2979 15.9827C39.3229 15.9827 41.4879 15.9602 43.9179 15.9827C43.9383 15.98 43.9592 15.9816 43.9789 15.9876C43.9987 15.9936 44.0169 16.0038 44.0325 16.0174C44.048 16.031 44.0604 16.0477 44.0689 16.0665C44.0775 16.0854 44.0819 16.1058 44.0819 16.1264C44.0819 16.1471 44.0775 16.1675 44.0689 16.1863C44.0604 16.2051 44.048 16.2218 44.0325 16.2354C44.0169 16.2491 43.9987 16.2592 43.9789 16.2652C43.9592 16.2712 43.9383 16.2729 43.9179 16.2702C41.4879 16.2452 39.2979 16.2702 39.2979 16.2702Z" fill="#4D68A1"/>
<path d="M39.2968 15.6252C39.259 15.6252 39.2228 15.6102 39.196 15.5835C39.1693 15.5568 39.1543 15.5205 39.1543 15.4827C39.1543 15.4449 39.1693 15.4087 39.196 15.382C39.2228 15.3552 39.259 15.3402 39.2968 15.3402C39.3218 15.3402 41.4868 15.3152 43.9168 15.3402C43.9541 15.3425 43.9893 15.3582 44.0159 15.3844C44.0426 15.4106 44.0589 15.4455 44.0618 15.4827C44.0594 15.5201 44.0433 15.5554 44.0165 15.5816C43.9898 15.6079 43.9543 15.6234 43.9168 15.6252C41.4868 15.5902 39.2968 15.6252 39.2968 15.6252Z" fill="#4D68A1"/>
<path d="M9.21414 15.3867C9.21162 15.4807 9.17314 15.5702 9.10664 15.6367C9.04013 15.7032 8.95066 15.7416 8.85664 15.7442C8.75516 15.7409 8.65888 15.6985 8.58802 15.6258C8.51716 15.5531 8.47724 15.4557 8.47664 15.3542C8.47562 15.3069 8.48417 15.26 8.50177 15.2162C8.51938 15.1723 8.54567 15.1325 8.57907 15.0991C8.61248 15.0657 8.6523 15.0394 8.69613 15.0218C8.73997 15.0042 8.78692 14.9956 8.83414 14.9967C8.93443 15.0034 9.0287 15.0469 9.09885 15.1189C9.16899 15.1909 9.21005 15.2862 9.21414 15.3867Z" fill="#4D68A1"/>
<path d="M11.0246 15.3868C11.0221 15.4809 10.9836 15.5703 10.9171 15.6368C10.8506 15.7033 10.7611 15.7418 10.6671 15.7443C10.5656 15.7411 10.4693 15.6987 10.3985 15.6259C10.3276 15.5532 10.2877 15.4559 10.2871 15.3543C10.2878 15.2624 10.3246 15.1744 10.3896 15.1093C10.4546 15.0443 10.5426 15.0075 10.6346 15.0068C10.735 15.0109 10.8304 15.052 10.9024 15.1221C10.9744 15.1923 11.0179 15.2865 11.0246 15.3868Z" fill="#4D68A1"/>
<path d="M12.7864 15.3867C12.7839 15.4807 12.7454 15.5702 12.6789 15.6367C12.6124 15.7032 12.5229 15.7416 12.4289 15.7442C12.3274 15.7409 12.2311 15.6985 12.1603 15.6258C12.0894 15.5531 12.0495 15.4557 12.0489 15.3542C12.0479 15.3069 12.0564 15.26 12.074 15.2162C12.0916 15.1723 12.1179 15.1325 12.1513 15.0991C12.1847 15.0657 12.2246 15.0394 12.2684 15.0218C12.3122 15.0042 12.3592 14.9956 12.4064 14.9967C12.5067 15.0034 12.601 15.0469 12.6711 15.1189C12.7413 15.1909 12.7823 15.2862 12.7864 15.3867Z" fill="#4D68A1"/>
<path d="M19.7746 29.1626C15.0771 28.8901 11.0921 29.4776 6.79213 30.3201C5.21713 30.6276 4.07463 30.8201 4.12463 33.0401C4.16963 34.9976 4.98713 39.4601 5.32713 40.4776C5.71963 41.6501 6.32713 42.2851 8.27463 42.1051C10.5646 41.8926 17.0246 40.6376 17.0771 40.6251C17.0949 40.6221 17.1119 40.6156 17.1271 40.6058C17.1423 40.596 17.1553 40.5833 17.1654 40.5683C17.1755 40.5533 17.1824 40.5364 17.1857 40.5187C17.189 40.5009 17.1886 40.4827 17.1846 40.4651C17.1774 40.4298 17.1565 40.3987 17.1266 40.3786C17.0967 40.3585 17.0601 40.351 17.0246 40.3576C16.9596 40.3701 10.5246 41.6226 8.24963 41.8326C7.71395 41.9095 7.16782 41.8642 6.65213 41.7001C7.08463 40.9226 9.20463 37.1776 10.5871 35.7376C11.5871 36.2376 13.1221 36.9051 14.2521 36.8176C16.1421 36.6701 18.7996 31.1626 18.9121 30.9276C18.9276 30.8954 18.9298 30.8584 18.9181 30.8247C18.9063 30.791 18.8817 30.7632 18.8496 30.7476C18.8336 30.7395 18.8161 30.7347 18.7982 30.7335C18.7802 30.7323 18.7622 30.7347 18.7452 30.7405C18.7282 30.7463 18.7126 30.7555 18.6992 30.7674C18.6858 30.7794 18.6749 30.7939 18.6671 30.8101C18.6396 30.8676 15.9646 36.4101 14.2296 36.5451C11.8896 36.7276 6.97963 33.3701 4.67713 31.5451C5.05463 30.9226 5.79463 30.7776 6.84213 30.5851C11.4896 29.7251 14.6946 29.1376 19.7596 29.4301C19.7774 29.4311 19.7951 29.4286 19.8119 29.4228C19.8287 29.4169 19.8441 29.4078 19.8573 29.3959C19.8706 29.3841 19.8814 29.3697 19.889 29.3537C19.8967 29.3377 19.9012 29.3203 19.9021 29.3026C19.9031 29.285 19.9006 29.2674 19.8947 29.2507C19.8888 29.2341 19.8797 29.2188 19.8678 29.2058C19.8559 29.1928 19.8416 29.1822 19.8256 29.1748C19.8096 29.1674 19.7923 29.1632 19.7746 29.1626ZM10.3346 35.6051C8.89963 37.1401 6.81713 40.8351 6.40213 41.5826C5.88713 41.2901 5.73463 40.8326 5.55713 40.3026C5.31963 39.5976 4.44463 35.1551 4.39713 33.0326C4.37035 32.6145 4.42468 32.1951 4.55713 31.7976C5.06463 32.1976 7.72713 34.2526 10.3346 35.6051Z" fill="#313131"/>
<path d="M4.40596 30.6798C9.07972 29.293 13.9424 28.6493 18.816 28.7723C19.01 28.5391 19.2161 28.3163 19.4335 28.1048C19.4335 28.1048 10.096 21.9673 8.83596 21.4123C7.76096 20.9423 7.13596 21.6473 6.81096 22.1623C6.56096 22.5398 3.21346 27.1623 2.95096 28.2123C2.68846 29.2623 3.21346 29.8923 4.40596 30.6798Z" fill="#E02728"/>
<path d="M10.965 29.1398C10.36 28.3898 8.03752 22.2848 7.70002 21.3898C7.69364 21.3728 7.68398 21.3573 7.6716 21.3441C7.65922 21.331 7.64436 21.3204 7.62787 21.3129C7.61138 21.3055 7.59359 21.3014 7.57551 21.3008C7.55743 21.3003 7.53943 21.3033 7.52252 21.3098C7.50591 21.3161 7.49073 21.3257 7.47784 21.338C7.46495 21.3502 7.4546 21.3649 7.4474 21.3811C7.4402 21.3974 7.43628 21.4149 7.43587 21.4327C7.43546 21.4505 7.43857 21.4682 7.44502 21.4848C7.51752 21.6798 8.71002 24.8373 9.67502 27.1048C7.72502 27.2923 3.34252 28.7298 2.92502 28.8048C2.90247 28.8023 2.87966 28.8056 2.85871 28.8142C2.83775 28.8229 2.81932 28.8368 2.80512 28.8544C2.79092 28.8721 2.7814 28.8931 2.77745 28.9155C2.7735 28.9378 2.77525 28.9608 2.78252 28.9823C2.83252 29.1323 2.84502 29.1248 4.07502 28.7623C5.61752 28.3073 8.45502 27.4698 9.79752 27.3673C10.0591 28.0425 10.3812 28.6926 10.76 29.3098C10.7842 29.3307 10.815 29.3423 10.8469 29.3426C10.8789 29.343 10.9099 29.332 10.9345 29.3116C10.9591 29.2912 10.9757 29.2627 10.9813 29.2313C10.9868 29.1998 10.9811 29.1674 10.965 29.1398Z" fill="white"/>
<path d="M30.3183 23.0571C30.0958 22.2196 28.7233 17.6021 27.5683 15.6496C26.4133 13.6971 24.1358 11.8146 22.3158 13.1046C22.2911 13.12 22.2634 13.1302 22.2346 13.1345C22.2058 13.1388 22.1764 13.1371 22.1483 13.1296C21.7433 13.0096 20.1233 12.6746 19.0058 13.8446C16.1408 16.8446 17.5058 22.0621 16.3383 25.1571C16.3296 25.1828 16.3264 25.2101 16.329 25.2372C16.3316 25.2642 16.3399 25.2904 16.3534 25.3141C16.3668 25.3377 16.3852 25.3582 16.4071 25.3742C16.4291 25.3902 16.4542 25.4014 16.4808 25.4071C17.7908 25.7871 25.0783 27.6946 30.2483 23.2646C30.2772 23.2393 30.299 23.2067 30.3113 23.1703C30.3236 23.1338 30.326 23.0947 30.3183 23.0571Z" fill="#313131"/>
<path d="M40.6064 19.2446C40.6324 18.8818 40.7465 18.5308 40.9389 18.2221C41.2739 17.6496 41.8389 16.1971 41.7739 15.3871C41.7214 14.7446 42.7489 12.9821 42.3464 12.8396C42.0114 12.7196 41.0589 14.7671 41.0589 14.7671L40.7489 14.7196C40.7489 14.7196 41.0364 11.8371 40.5839 11.8146C40.1314 11.7921 40.0114 14.6721 40.0114 14.6721L39.5814 14.7446C39.5814 14.7446 38.9864 11.4796 38.5814 11.4571C38.1764 11.4346 38.7714 14.9571 38.7714 14.9571L38.4389 15.0521C38.4389 15.0521 37.3839 12.2146 36.8839 12.3546C36.1914 12.5621 38.2664 16.6946 38.0264 16.8321C37.7864 16.9696 36.6239 15.7621 36.3364 16.1171C35.9089 16.6446 37.4614 17.6596 38.5039 18.4296C38.6939 18.5696 38.6689 19.0246 38.6464 19.3096L40.6064 19.2446Z" fill="white"/>
<path d="M25.8856 38.1348L25.2656 40.8023C25.5152 41.3222 25.738 41.8546 25.9331 42.3973C26.0481 42.7798 26.5056 43.9898 26.7431 43.9448C26.9806 43.8998 26.9931 43.5648 26.9931 43.5648C26.9931 43.5648 27.4231 43.8148 27.6381 43.2298C27.6381 43.2298 28.2081 43.4798 28.1131 42.3498C28.1131 42.3498 28.6856 42.2773 28.0656 40.5623C28.1512 40.601 28.2484 40.6055 28.3372 40.5748C28.426 40.5441 28.4997 40.4806 28.5431 40.3973C28.6806 40.1473 28.0431 38.9198 26.8981 38.8973C26.6135 38.5796 26.2695 38.3206 25.8856 38.1348Z" fill="white"/>
<path d="M24.4125 27.0096C24.4125 27.0096 27.0075 28.5596 27.5075 25.9146L26.935 24.6046C26.935 24.6046 29.055 22.8546 27.6275 19.7696C27.6275 19.7696 28.4125 19.0196 27.985 18.0796C27.8573 17.8135 27.6529 17.5918 27.398 17.4429C27.1431 17.2941 26.8495 17.225 26.555 17.2446C26.555 17.2446 25.7925 15.1046 22.8625 14.7671C22.8625 14.7671 22.3875 18.0321 20.0775 19.2946L20.4825 20.7471C20.4825 20.7471 19.2675 20.7696 19.1475 21.7696C19.0275 22.7696 20.505 23.0571 21.125 22.6746C21.125 22.6746 21.9825 24.9871 24.0775 25.2721C24.0775 25.2471 24.46 26.6296 24.4125 27.0096Z" fill="white"/>
<path d="M22.3372 22.2112C22.339 22.2681 22.3565 22.3237 22.3888 22.3748C22.4211 22.4259 22.4675 22.4714 22.5252 22.5087C22.583 22.5459 22.651 22.5741 22.7253 22.5917C22.7995 22.6093 22.8785 22.6159 22.9576 22.6111C23.0367 22.6062 23.1143 22.5901 23.1859 22.5636C23.2574 22.5371 23.3215 22.5008 23.3743 22.4568C23.4272 22.4128 23.4677 22.362 23.4935 22.3074C23.5193 22.2528 23.5299 22.1954 23.5247 22.1387C23.523 22.0818 23.5055 22.0261 23.4732 21.9751C23.4409 21.924 23.3945 21.8785 23.3367 21.8412C23.2789 21.804 23.2109 21.7758 23.1367 21.7582C23.0624 21.7406 22.9834 21.734 22.9043 21.7388C22.8252 21.7437 22.7476 21.7598 22.6761 21.7863C22.6045 21.8128 22.5404 21.8491 22.4876 21.8931C22.4348 21.9371 22.3943 21.9879 22.3685 22.0425C22.3426 22.0971 22.332 22.1545 22.3372 22.2112Z" fill="#FCCAC2"/>
<path d="M26.938 20.6875C26.9636 20.735 27.0017 20.7749 27.0499 20.805C27.0982 20.835 27.1558 20.8545 27.2192 20.8624C27.2826 20.8703 27.3507 20.8663 27.4193 20.8508C27.488 20.8353 27.5559 20.8086 27.619 20.7721C27.6821 20.7356 27.7392 20.6902 27.7869 20.6385C27.8347 20.5868 27.8721 20.5298 27.8969 20.471C27.9218 20.4121 27.9337 20.3525 27.9318 20.2957C27.9299 20.2388 27.9143 20.1859 27.886 20.14C27.8598 20.0934 27.8214 20.0543 27.7731 20.025C27.7247 19.9958 27.6673 19.9768 27.6043 19.9694C27.5412 19.962 27.4737 19.9661 27.4056 19.9817C27.3375 19.9972 27.2702 20.0239 27.2076 20.06C27.145 20.0962 27.0883 20.1411 27.0408 20.1923C26.9933 20.2435 26.9559 20.2999 26.9308 20.3582C26.9057 20.4166 26.8934 20.4757 26.8946 20.5322C26.8958 20.5888 26.9105 20.6415 26.9377 20.6875" fill="#FCCAC2"/>
<path d="M41.0857 19.127H40.7507C40.8257 18.7081 40.9711 18.3049 41.1807 17.9345L41.3232 17.627C41.6619 16.858 41.8633 16.0355 41.9182 15.197C42.0757 14.6045 42.8482 12.887 42.4182 12.672C42.3944 12.6544 42.3668 12.6429 42.3375 12.6386C42.3083 12.6342 42.2785 12.6371 42.2507 12.647C41.9182 12.7645 41.2282 14.077 40.9882 14.6245L40.8707 14.602C40.8932 14.352 40.9457 13.8145 40.9657 13.292C41.0207 11.9095 40.8457 11.6945 40.6332 11.672C40.5656 11.6676 40.4984 11.6842 40.4407 11.7195C40.0907 11.9995 39.9282 13.812 39.8457 14.5545L39.6307 14.577C39.5357 13.887 39.1782 11.697 38.7257 11.362C38.696 11.3362 38.6609 11.3173 38.623 11.3067C38.5851 11.2961 38.5453 11.294 38.5065 11.3007C38.4677 11.3075 38.4309 11.3227 38.3988 11.3454C38.3666 11.3681 38.34 11.3977 38.3207 11.432C37.9807 11.9045 38.4182 14.182 38.5707 14.887L38.4982 14.9095C38.4282 14.697 38.2482 14.2445 38.0232 13.767C37.4282 12.457 37.1182 12.3145 36.9982 12.2895C36.9181 12.2564 36.8282 12.2564 36.7482 12.2895C36.1907 12.562 37.0407 14.332 37.8907 16.6745C37.8023 16.6172 37.7187 16.5528 37.6407 16.482C37.1657 16.1245 36.5207 15.6245 36.1407 16.077C36.1047 16.1145 36.0791 16.1608 36.0664 16.2112C36.0537 16.2616 36.0543 16.3144 36.0682 16.3645C36.1757 17.1545 38.3607 18.4245 38.4507 18.602C38.5249 18.7913 38.5414 18.9983 38.4982 19.197C38.2721 19.1965 38.0471 19.2293 37.8307 19.2945C37.7832 19.412 37.3082 26.9145 37.3082 26.9145C35.6882 25.8445 31.5432 24.2895 29.5432 24.772C28.8297 24.9489 28.1578 25.264 27.5657 25.6995C27.4457 25.4145 27.2082 24.8895 27.0657 24.582C28.1182 23.777 28.6982 21.867 27.7557 19.7945C27.9054 19.6534 28.0249 19.4834 28.107 19.2947C28.1891 19.1061 28.232 18.9027 28.2332 18.697C28.2082 17.2195 26.6857 17.1745 26.6607 17.1745C25.6357 14.792 22.8507 14.6495 22.8257 14.6495C22.7913 14.6467 22.7572 14.6574 22.7306 14.6793C22.704 14.7013 22.687 14.7327 22.6832 14.767C22.6832 14.792 22.4557 17.877 20.0157 19.1745C19.993 19.1906 19.9745 19.212 19.9619 19.2369C19.9493 19.2617 19.9429 19.2892 19.9432 19.317C20.0632 19.747 20.2307 20.3645 20.3007 20.652C19.9225 20.68 19.5637 20.83 19.2782 21.0795C19.1623 21.2013 19.078 21.3494 19.0324 21.5112C18.9868 21.6729 18.9814 21.8433 19.0166 22.0077C19.0519 22.172 19.1267 22.3252 19.2345 22.454C19.3424 22.5829 19.4801 22.6834 19.6357 22.747C20.0702 22.9203 20.5531 22.9283 20.9932 22.7695C21.0882 22.9845 22.0632 25.057 23.9457 25.3195C23.9932 25.5695 24.1607 26.2245 24.2307 26.677C19.3257 24.3195 12.1857 38.982 16.9182 41.397C17.8482 41.872 25.0882 41.147 25.3282 41.1095C25.9082 42.3895 26.1607 44.017 26.7332 44.017C26.8982 43.992 26.9832 43.827 27.0432 43.682C27.1086 43.7037 27.1778 43.7115 27.2465 43.7052C27.3151 43.6988 27.3817 43.6783 27.442 43.645C27.5024 43.6116 27.5551 43.5662 27.5971 43.5114C27.639 43.4567 27.6692 43.3939 27.6857 43.327C27.7411 43.3457 27.8001 43.351 27.858 43.3423C27.9158 43.3336 27.9707 43.3112 28.0182 43.277C28.2682 43.1145 28.2682 42.6595 28.2332 42.4195C28.6857 42.2695 28.5207 41.467 28.3757 41.012H36.1832C35.9332 39.2745 33.2582 31.1795 33.2582 31.1795C33.2582 31.1795 37.9657 34.257 41.0707 32.5595C43.7432 31.1045 42.0382 19.1495 41.0857 19.127ZM26.7232 17.412C26.9704 17.412 27.2121 17.4853 27.4176 17.6227C27.6232 17.76 27.7834 17.9552 27.878 18.1837C27.9726 18.4121 27.9974 18.6634 27.9492 18.9059C27.9009 19.1483 27.7819 19.3711 27.6071 19.5459C27.4322 19.7207 27.2095 19.8398 26.967 19.888C26.7246 19.9362 26.4732 19.9115 26.2448 19.8169C26.0164 19.7222 25.8212 19.562 25.6838 19.3565C25.5465 19.1509 25.4732 18.9092 25.4732 18.662C25.4732 18.3305 25.6049 18.0125 25.8393 17.7781C26.0737 17.5437 26.3916 17.412 26.7232 17.412ZM24.2232 25.1995C24.2007 25.152 24.1757 25.1045 24.1057 25.1045C22.1507 24.8545 21.2232 22.6045 21.2232 22.5795C21.213 22.5614 21.1991 22.5456 21.1824 22.5332C21.1657 22.5208 21.1466 22.5121 21.1263 22.5076C21.106 22.5031 21.085 22.503 21.0646 22.5072C21.0443 22.5114 21.025 22.5198 21.0082 22.532C20.8182 22.6745 20.1532 22.7445 19.6982 22.532C19.0807 22.2445 19.3407 21.4595 19.5082 21.317C19.8407 20.9595 20.4857 20.937 20.5082 20.937C20.5857 20.937 20.6657 20.847 20.6282 20.7695C20.5907 20.692 20.3407 19.722 20.2707 19.3895C20.9113 19.0368 21.4457 18.5189 21.8182 17.8895C22.1927 17.7795 22.5955 17.8227 22.9382 18.0095C22.9536 18.0193 22.9709 18.0259 22.989 18.0289C23.0071 18.0318 23.0256 18.031 23.0434 18.0266C23.0611 18.0221 23.0778 18.0141 23.0924 18.003C23.107 17.9919 23.1192 17.978 23.1282 17.962C23.1392 17.9469 23.1468 17.9296 23.1503 17.9113C23.1539 17.8929 23.1534 17.874 23.1489 17.8559C23.1444 17.8378 23.1359 17.8209 23.1241 17.8064C23.1123 17.7919 23.0975 17.7801 23.0807 17.772C22.7633 17.5913 22.3938 17.5243 22.0332 17.582C22.4782 16.7629 22.7912 15.8787 22.9607 14.962C24.0555 15.0754 25.0719 15.5827 25.8207 16.3895C25.5928 16.438 25.3803 16.5414 25.2016 16.6909C25.023 16.8404 24.8836 17.0313 24.7957 17.247C24.7885 17.2626 24.7846 17.2796 24.7844 17.2969C24.7842 17.3141 24.7877 17.3312 24.7945 17.347C24.8013 17.3628 24.8114 17.3769 24.8241 17.3886C24.8368 17.4002 24.8518 17.4091 24.8682 17.4145C24.9382 17.437 25.0332 17.3895 25.0332 17.342C25.0332 17.2945 25.3207 16.627 26.0107 16.627C26.1282 16.7945 26.2732 16.9845 26.3907 17.177C25.0107 17.5095 25.2007 18.987 25.2482 19.1295C25.1025 19.1495 24.9587 19.1812 24.8182 19.2245C24.7007 18.892 24.5507 18.4895 24.4157 18.1045C24.4052 18.0703 24.382 18.0413 24.3508 18.0236C24.3197 18.006 24.2829 18.0009 24.2482 18.0095C24.2308 18.0141 24.2146 18.0222 24.2004 18.0331C24.1863 18.0441 24.1744 18.0577 24.1656 18.0733C24.1567 18.0889 24.1511 18.1061 24.1489 18.1239C24.1468 18.1417 24.1482 18.1598 24.1532 18.177C24.2707 18.5345 24.4032 18.927 24.5582 19.297C24.328 19.391 24.1177 19.5275 23.9382 19.6995C23.8139 19.4309 23.6159 19.2032 23.3671 19.043C23.1183 18.8827 22.8291 18.7966 22.5332 18.7945C22.2315 18.7945 21.9367 18.8839 21.6859 19.0515C21.4351 19.2191 21.2397 19.4573 21.1243 19.7359C21.0088 20.0146 20.9786 20.3212 21.0375 20.617C21.0963 20.9128 21.2416 21.1846 21.4548 21.3978C21.6681 21.6111 21.9398 21.7564 22.2357 21.8152C22.5315 21.874 22.8381 21.8438 23.1168 21.7284C23.3954 21.613 23.6336 21.4175 23.8012 21.1668C23.9687 20.916 24.0582 20.6211 24.0582 20.3195C24.0533 20.1991 24.0374 20.0795 24.0107 19.962C24.1822 19.7714 24.3964 19.6241 24.6357 19.532C24.727 19.7983 24.8469 20.054 24.9932 20.2945C25.0882 20.3895 25.6132 20.3895 25.6607 20.3895C25.5719 20.5871 25.4683 20.7776 25.3507 20.9595C25.34 20.9749 25.3328 20.9924 25.3294 21.0109C25.3261 21.0293 25.3266 21.0482 25.3311 21.0664C25.3356 21.0846 25.3439 21.1017 25.3555 21.1164C25.367 21.1312 25.3816 21.1433 25.3982 21.152C25.4299 21.1699 25.4673 21.1749 25.5026 21.1661C25.538 21.1572 25.5686 21.1352 25.5882 21.1045C26.1957 20.1045 25.9957 20.1495 25.4932 20.1045C25.3723 20.1033 25.2522 20.0865 25.1357 20.0545C25.0314 19.8578 24.9476 19.6509 24.8857 19.437C25.0238 19.3841 25.1703 19.3562 25.3182 19.3545C25.4158 19.5478 25.5535 19.718 25.7222 19.8538C25.8908 19.9896 26.0865 20.0879 26.2961 20.142C26.5057 20.1962 26.7245 20.2051 26.9378 20.168C27.1512 20.1309 27.3541 20.0488 27.5332 19.927C27.9002 20.7518 28.0225 21.6647 27.8857 22.557C27.5532 24.437 26.1732 24.7245 26.1007 24.7245C26.0661 24.7363 26.0361 24.7585 26.0146 24.788C25.9931 24.8176 25.9813 24.853 25.9807 24.8895C25.9878 24.9224 26.0057 24.9521 26.0315 24.9738C26.0572 24.9955 26.0895 25.0081 26.1232 25.0095C26.3732 24.9469 26.6136 24.851 26.8382 24.7245C27.0057 25.1045 27.2907 25.747 27.3632 25.9145C27.3185 26.1615 27.218 26.3951 27.0694 26.5974C26.9208 26.7997 26.728 26.9655 26.5057 27.082C25.7682 27.4445 24.7907 27.057 24.5282 26.9395C24.5082 26.462 24.2207 25.247 24.2207 25.1995H24.2232ZM23.8157 20.3545C23.8157 20.6017 23.7424 20.8434 23.605 21.049C23.4677 21.2545 23.2724 21.4147 23.044 21.5094C22.8156 21.604 22.5643 21.6287 22.3218 21.5805C22.0793 21.5323 21.8566 21.4132 21.6818 21.2384C21.507 21.0636 21.3879 20.8408 21.3397 20.5984C21.2915 20.3559 21.3162 20.1046 21.4108 19.8762C21.5054 19.6477 21.6656 19.4525 21.8712 19.3152C22.0768 19.1778 22.3184 19.1045 22.5657 19.1045C22.8956 19.1097 23.2105 19.243 23.4438 19.4763C23.6772 19.7096 23.8105 20.0246 23.8157 20.3545ZM17.5657 37.407C17.5464 37.4155 17.5254 37.4193 17.5044 37.4181C17.4834 37.4169 17.463 37.4107 17.4448 37.4C17.4267 37.3893 17.4114 37.3744 17.4001 37.3567C17.3889 37.3389 17.382 37.3187 17.3801 37.2977C17.3783 37.2767 17.3814 37.2556 17.3893 37.2361C17.3972 37.2166 17.4096 37.1993 17.4255 37.1855C17.4415 37.1718 17.4605 37.162 17.4809 37.157C17.5014 37.1521 17.5227 37.1521 17.5432 37.157C17.6382 37.157 18.3532 37.087 19.3757 36.992C19.9232 34.7995 21.0207 31.8945 21.0207 31.8695C21.0333 31.8364 21.0585 31.8096 21.0909 31.795C21.1232 31.7805 21.16 31.7794 21.1932 31.792C21.2263 31.8046 21.2531 31.8299 21.2676 31.8622C21.2822 31.8946 21.2833 31.9314 21.2707 31.9645C21.2707 31.9895 20.1982 34.7995 19.6507 36.9645C21.7457 36.7995 24.7957 36.632 26.1507 36.917C26.1854 36.9293 26.2155 36.9519 26.237 36.9819C26.2585 37.0118 26.2702 37.0477 26.2707 37.0845C26.2707 37.107 26.1757 37.607 26.1257 37.822C26.1103 37.847 26.0872 37.8663 26.0599 37.877C26.0326 37.8877 26.0025 37.8892 25.9743 37.8813C25.946 37.8734 25.9211 37.8565 25.9033 37.8332C25.8855 37.8098 25.8758 37.7813 25.8757 37.752C25.929 37.5644 25.9683 37.373 25.9932 37.1795C23.7682 36.752 17.6357 37.372 17.5757 37.3945L17.5657 37.407ZM28.1882 42.2195C27.9186 41.3126 27.4554 40.475 26.8307 39.7645C26.8051 39.7393 26.7706 39.7253 26.7348 39.7255C26.6989 39.7258 26.6646 39.7402 26.6394 39.7658C26.6142 39.7913 26.6002 39.8258 26.6004 39.8616C26.6007 39.8975 26.6151 39.9318 26.6407 39.957C26.6407 39.957 27.7057 41.1195 27.9507 42.432C28.0782 43.122 27.7832 43.182 27.7357 43.147C27.4857 41.8145 26.5207 40.3845 26.4857 40.3145C26.4657 40.2843 26.4351 40.2626 26.3999 40.2538C26.3647 40.245 26.3275 40.2497 26.2957 40.267C26.2667 40.2881 26.2461 40.3186 26.2374 40.3534C26.2287 40.3881 26.2325 40.4248 26.2482 40.457C26.2482 40.4795 27.2482 41.932 27.4982 43.207C27.4732 43.5395 27.2107 43.517 27.1407 43.492C27.0207 42.277 26.2107 41.0145 26.1882 40.967C26.1667 40.9378 26.1357 40.9171 26.1005 40.9085C26.0653 40.8998 26.0282 40.9037 25.9957 40.9195C25.9667 40.9406 25.9461 40.9711 25.9374 41.0059C25.9287 41.0406 25.9325 41.0773 25.9482 41.1095C25.9482 41.1345 26.7582 42.397 26.8532 43.5645C26.8307 43.9445 26.5157 43.6595 26.1632 42.587C25.9897 41.968 25.7499 41.3696 25.4482 40.802C25.6382 39.967 25.9482 38.3945 25.9482 38.3945C25.9957 38.3945 26.9032 38.717 27.7582 40.302C28.5357 41.7645 28.1982 42.207 28.1982 42.207L28.1882 42.2195ZM28.4032 40.3845C28.3382 40.455 28.2488 40.4979 28.1532 40.5045C27.9225 39.9486 27.5911 39.4401 27.1757 39.0045C28.3182 39.397 28.5557 40.2295 28.4132 40.372L28.4032 40.3845ZM38.7882 19.187C38.8349 18.9306 38.7925 18.666 38.6682 18.437C38.4382 18.207 36.1207 16.717 36.3357 16.342C36.5507 15.967 37.0857 16.437 37.4782 16.6995C37.7882 16.9495 37.9782 17.0795 38.1207 16.9845C38.2632 16.8895 38.2457 16.7195 37.7407 15.437C37.5057 14.8395 37.2407 14.147 37.0732 13.577C36.8007 12.692 36.7882 12.602 36.9057 12.5545C37.1932 12.412 38.0157 14.217 38.3357 15.127C38.3498 15.1586 38.3737 15.1849 38.4038 15.202C38.434 15.2191 38.4688 15.2261 38.5032 15.222L38.8132 15.1495C38.8476 15.1401 38.8769 15.1175 38.8947 15.0866C38.9125 15.0557 38.9173 15.019 38.9082 14.9845C38.9082 14.9845 38.7357 14.1745 38.6207 13.3395C38.4232 11.887 38.5732 11.6245 38.5982 11.5895C38.6457 11.612 38.8482 11.7795 39.1457 13.1845C39.3082 13.972 39.3957 14.757 39.3957 14.7795C39.3988 14.8142 39.4156 14.8463 39.4423 14.8688C39.4689 14.8912 39.5034 14.9023 39.5382 14.8995L39.9907 14.852C40.0066 14.8527 40.0225 14.8501 40.0374 14.8443C40.0523 14.8385 40.0658 14.8297 40.0771 14.8184C40.0884 14.8072 40.0972 14.7936 40.103 14.7788C40.1088 14.7639 40.1114 14.748 40.1107 14.732C40.2282 13.232 40.4432 12.1595 40.5857 11.982C40.7282 12.232 40.6807 13.552 40.5632 14.732C40.5604 14.7664 40.5711 14.8005 40.593 14.8271C40.6149 14.8537 40.6464 14.8707 40.6807 14.8745L41.0157 14.922C41.0437 14.9255 41.072 14.9207 41.0974 14.9082C41.1227 14.8958 41.1438 14.8763 41.1582 14.852C41.6432 13.852 42.0632 13.1595 42.2532 12.9695C42.2532 13.437 41.6657 14.912 41.6107 15.1845C41.4557 17.5145 40.5632 17.907 40.4432 19.1145C39.9657 19.127 39.3232 19.1495 38.7982 19.1745L38.7882 19.187Z" fill="#313131"/>
<path d="M40.4131 18.9604L41.0276 19.128C41.9801 19.1505 43.6851 31.1055 41.0126 32.5605C37.9076 34.258 33.5276 31.3725 33.5276 31.3725C33.5276 31.3725 35.7776 39.2229 36.0276 40.9604H28.5276C28.899 40.5433 28.8174 40.1757 28.5276 39.4604C26.8284 38.3174 26.09 37.8964 25.7097 38.0754L22.1187 37.7679L20.3231 37.6142H19.7756L20.5276 33.9604L19.5276 37.6142H18.5276L19.5276 37.7679L25.7097 38.3901L25.513 39.4604L25.3162 40.8455C25.3162 40.8455 17.5106 41.7055 16.5806 41.2305C11.8481 38.8155 19.5276 24.9604 23.8931 26.5105L24.1906 26.773L27.0256 25.748L27.2281 25.533C27.8202 25.0974 28.4921 24.7823 29.2056 24.6055C31.2056 24.123 35.3506 25.678 36.9706 26.748C36.9706 26.748 37.4456 19.2455 37.4931 19.128C37.7095 19.0627 37.9345 19.0299 38.1606 19.0305C38.6759 19.0059 39.8899 18.9741 40.386 18.9612L40.4131 18.9604Z" fill="#4D68A1"/>
<path d="M26.1343 19.2948C26.1688 19.2976 26.2033 19.2897 26.2333 19.2723C26.2632 19.2549 26.2871 19.2287 26.3017 19.1973C26.3536 18.9483 26.4874 18.7238 26.6818 18.5597C26.8762 18.3957 27.12 18.3015 27.3743 18.2923C27.4113 18.29 27.4462 18.2742 27.4724 18.248C27.4986 18.2217 27.5144 18.1868 27.5167 18.1498C27.5139 18.113 27.4979 18.0784 27.4718 18.0523C27.4457 18.0261 27.4111 18.0102 27.3743 18.0073C26.2793 18.0073 26.0393 19.1023 26.0393 19.1273C26.0307 19.1621 26.0357 19.1988 26.0534 19.23C26.0711 19.2612 26.1 19.2844 26.1343 19.2948Z" fill="#313131"/>
<path d="M21.5765 20.2226C21.5601 20.2319 21.5457 20.2444 21.5341 20.2593C21.5225 20.2743 21.514 20.2913 21.509 20.3096C21.504 20.3278 21.5027 20.3468 21.505 20.3656C21.5074 20.3843 21.5134 20.4024 21.5228 20.4188C21.5321 20.4352 21.5446 20.4496 21.5596 20.4612C21.5745 20.4728 21.5916 20.4813 21.6098 20.4863C21.628 20.4913 21.647 20.4927 21.6658 20.4903C21.6845 20.488 21.7026 20.4819 21.719 20.4726C21.894 20.3569 22.0877 20.2723 22.2915 20.2226C22.4743 20.1725 22.6662 20.1658 22.852 20.2032C23.0378 20.2405 23.2123 20.3208 23.3615 20.4376C23.3865 20.4601 23.409 20.4601 23.4565 20.4601C23.4753 20.4598 23.4937 20.4554 23.5106 20.4472C23.5274 20.439 23.5423 20.4272 23.554 20.4126C23.5664 20.3991 23.5756 20.3831 23.5811 20.3657C23.5866 20.3483 23.5883 20.3298 23.5859 20.3117C23.5835 20.2936 23.5772 20.2762 23.5674 20.2608C23.5575 20.2454 23.5445 20.2324 23.529 20.2226C22.6715 19.5076 21.5765 20.2226 21.5765 20.2226Z" fill="#313131"/>
<path d="M26.2232 21.4601C25.5757 21.6376 24.3882 21.9851 24.3882 21.9851C24.2682 22.0101 24.2932 22.1276 24.2932 22.1751C24.3833 22.3804 24.5293 22.5563 24.7145 22.6827C24.8997 22.8091 25.1166 22.881 25.3407 22.8901C25.5007 22.8873 25.6582 22.8491 25.8017 22.7784C25.9453 22.7077 26.0715 22.6061 26.1714 22.481C26.2712 22.3558 26.3421 22.2102 26.3792 22.0545C26.4162 21.8988 26.4185 21.7368 26.3857 21.5801C26.3829 21.5616 26.3765 21.5437 26.3669 21.5276C26.3572 21.5115 26.3445 21.4975 26.3294 21.4864C26.3143 21.4752 26.2971 21.4672 26.2789 21.4627C26.2607 21.4582 26.2417 21.4573 26.2232 21.4601ZM25.6357 22.5576C25.4567 22.6178 25.2626 22.6152 25.0854 22.5502C24.9081 22.4852 24.7583 22.3617 24.6607 22.2001C24.9707 22.1051 25.6607 21.9151 26.1607 21.7701C26.1653 21.9396 26.1173 22.1062 26.0233 22.2473C25.9292 22.3883 25.7938 22.4967 25.6357 22.5576Z" fill="#313131"/>
<path d="M20.5049 21.7697C20.3254 21.7226 20.1423 21.6908 19.9574 21.6747C19.9226 21.672 19.8882 21.683 19.8615 21.7055C19.8348 21.7279 19.8181 21.76 19.8149 21.7947C19.8121 21.8291 19.8228 21.8632 19.8447 21.8898C19.8667 21.9164 19.8981 21.9334 19.9324 21.9372C20.1014 21.955 20.2686 21.9868 20.4324 22.0322C20.4574 22.0322 20.5774 22.0572 20.5999 21.9372C20.6044 21.9028 20.5976 21.8678 20.5804 21.8376C20.5633 21.8074 20.5368 21.7836 20.5049 21.7697Z" fill="#4D68A1"/>
<path d="M33.8199 19.985C33.8117 19.9546 33.7927 19.9282 33.7665 19.9107C33.7403 19.8932 33.7087 19.8859 33.6774 19.89L33.4274 19.9375L33.3324 19.4125C33.3319 19.3957 33.3274 19.3793 33.3193 19.3647C33.3112 19.35 33.2997 19.3375 33.2857 19.3282C33.2718 19.3189 33.2558 19.3131 33.2391 19.3112C33.2225 19.3093 33.2056 19.3115 33.1899 19.3175C33.1732 19.318 33.1568 19.3225 33.1421 19.3306C33.1274 19.3387 33.1149 19.3502 33.1056 19.3642C33.0963 19.3782 33.0905 19.3941 33.0886 19.4108C33.0868 19.4275 33.0889 19.4443 33.0949 19.46L33.1899 20.0075C33.0699 20.0325 32.9749 20.055 32.9399 20.055C32.9093 20.0637 32.8829 20.0832 32.8654 20.1098C32.848 20.1364 32.8407 20.1684 32.8449 20.2C32.8548 20.2245 32.8707 20.2461 32.8913 20.2628C32.9119 20.2794 32.9364 20.2905 32.9624 20.295C32.9624 20.295 33.1049 20.27 33.2124 20.2475L33.2824 20.605C33.2851 20.6208 33.2909 20.6359 33.2997 20.6494C33.3084 20.6629 33.3198 20.6744 33.3331 20.6833C33.3465 20.6922 33.3615 20.6983 33.3773 20.7012C33.3931 20.704 33.4093 20.7036 33.4249 20.7C33.4974 20.675 33.5449 20.6275 33.5199 20.555L33.4499 20.175C33.5274 20.1515 33.6069 20.1356 33.6874 20.1275C33.7068 20.1327 33.7271 20.1325 33.7464 20.127C33.7656 20.1215 33.783 20.1109 33.7966 20.0962C33.8103 20.0815 33.8196 20.0634 33.8238 20.0438C33.8279 20.0242 33.8265 20.0039 33.8199 19.985Z" fill="#4D68A1"/>
<path d="M42.347 8.57489H42.097V8.19489C42.0994 8.17785 42.0982 8.16048 42.0934 8.14395C42.0886 8.12743 42.0802 8.11213 42.069 8.09911C42.0577 8.08609 42.0438 8.07564 42.0281 8.06848C42.0125 8.06132 41.9954 8.05762 41.9782 8.05762C41.961 8.05762 41.944 8.06132 41.9283 8.06848C41.9127 8.07564 41.8987 8.08609 41.8875 8.09911C41.8762 8.11213 41.8679 8.12743 41.863 8.14395C41.8582 8.16048 41.857 8.17785 41.8595 8.19489V8.57489H41.692C41.6749 8.57241 41.6576 8.57363 41.641 8.57846C41.6245 8.58329 41.6092 8.59162 41.5962 8.60289C41.5832 8.61415 41.5727 8.62809 41.5656 8.64375C41.5584 8.65941 41.5547 8.67642 41.5547 8.69364C41.5547 8.71086 41.5584 8.72788 41.5656 8.74354C41.5727 8.7592 41.5832 8.77313 41.5962 8.7844C41.6092 8.79566 41.6245 8.80399 41.641 8.80882C41.6576 8.81365 41.6749 8.81487 41.692 8.81239H41.8595V9.19489C41.857 9.21193 41.8582 9.22931 41.863 9.24583C41.8679 9.26236 41.8762 9.27765 41.8875 9.29068C41.8987 9.3037 41.9127 9.31414 41.9283 9.3213C41.944 9.32846 41.961 9.33217 41.9782 9.33217C41.9954 9.33217 42.0125 9.32846 42.0281 9.3213C42.0438 9.31414 42.0577 9.3037 42.069 9.29068C42.0802 9.27765 42.0886 9.26236 42.0934 9.24583C42.0982 9.22931 42.0994 9.21193 42.097 9.19489V8.81239H42.347C42.3755 8.80824 42.4016 8.79396 42.4204 8.77215C42.4393 8.75034 42.4497 8.72248 42.4497 8.69364C42.4497 8.66481 42.4393 8.63694 42.4204 8.61514C42.4016 8.59333 42.3755 8.57904 42.347 8.57489Z" fill="#4D68A1"/>
<path d="M45.6801 10.5267C45.6675 10.5283 45.6547 10.5271 45.6426 10.5232C45.6305 10.5193 45.6194 10.5128 45.6101 10.5042C45.5943 10.4947 45.5809 10.4818 45.5708 10.4664C45.5607 10.451 45.5542 10.4335 45.5518 10.4152C45.5494 10.397 45.5512 10.3784 45.5569 10.3609C45.5627 10.3434 45.5723 10.3275 45.5851 10.3142C46.0451 9.66072 46.4292 8.95703 46.7301 8.21671C46.7429 8.18568 46.7673 8.16092 46.7982 8.14782C46.8291 8.13472 46.8639 8.13432 46.8951 8.14671C46.9114 8.15186 46.9263 8.16043 46.939 8.17183C46.9517 8.18323 46.9618 8.1972 46.9687 8.21281C46.9755 8.22842 46.979 8.24532 46.9788 8.26237C46.9786 8.27943 46.9748 8.29624 46.9676 8.31171C46.4801 9.72421 45.7276 10.5267 45.6801 10.5267Z" fill="#4D68A1"/>
<path d="M45.6802 11.7194C45.5377 11.7194 45.5152 11.5519 45.6102 11.4569C45.6327 11.4569 46.8602 10.8244 47.9202 9.26688C47.9421 9.23837 47.9744 9.21971 48.01 9.21503C48.0456 9.21034 48.0817 9.22 48.1102 9.24188C48.1387 9.26376 48.1573 9.29607 48.162 9.3317C48.1667 9.36733 48.1571 9.40337 48.1352 9.43188C47.515 10.3827 46.6723 11.1678 45.6802 11.7194Z" fill="#313131"/>
<path d="M33.5091 10.9577C32.9962 10.8066 32.5344 10.5178 32.1741 10.1227C32.1513 10.0963 32.1387 10.0626 32.1387 10.0277C32.1387 9.9928 32.1513 9.95907 32.1741 9.9327C32.2009 9.90965 32.235 9.89697 32.2704 9.89697C32.3057 9.89697 32.3399 9.90965 32.3666 9.9327C32.6939 10.2668 33.092 10.5231 33.5316 10.6827C33.55 10.6868 33.5673 10.6945 33.5826 10.7055C33.5978 10.7166 33.6106 10.7306 33.6203 10.7467C33.6299 10.7629 33.636 10.7809 33.6384 10.7995C33.6408 10.8182 33.6394 10.8371 33.6341 10.8552C33.6332 10.8704 33.6292 10.8852 33.6223 10.8987C33.6154 10.9122 33.6058 10.9242 33.5941 10.9338C33.5823 10.9434 33.5687 10.9505 33.5541 10.9547C33.5395 10.9588 33.5242 10.9598 33.5091 10.9577Z" fill="#313131"/>
<path d="M33.4379 11.4099C33.0009 11.3882 32.5688 11.3083 32.1529 11.1724C32.1356 11.1678 32.1194 11.1598 32.1052 11.1488C32.091 11.1378 32.0791 11.1242 32.0703 11.1086C32.0615 11.093 32.0558 11.0758 32.0537 11.058C32.0516 11.0402 32.053 11.0222 32.0579 11.0049C32.0623 10.9877 32.07 10.9715 32.0807 10.9574C32.0915 10.9432 32.1049 10.9313 32.1203 10.9225C32.1357 10.9136 32.1527 10.9079 32.1703 10.9058C32.188 10.9036 32.2058 10.905 32.2229 10.9099C32.6162 11.0366 33.025 11.1089 33.4379 11.1249C33.4754 11.1267 33.5109 11.1422 33.5376 11.1685C33.5644 11.1948 33.5805 11.23 33.5829 11.2674C33.5579 11.3374 33.5104 11.4099 33.4379 11.4099Z" fill="#313131"/>
<path d="M36.8678 9.62231C36.8678 9.62231 35.9703 9.62231 35.7253 8.87231C35.699 8.80337 35.683 8.73093 35.6778 8.65731C35.4396 8.66998 35.2025 8.61671 34.9925 8.50336C34.7826 8.39001 34.6079 8.22096 34.4878 8.01481C34.3886 7.82218 34.3347 7.60938 34.3304 7.39271C34.326 7.17605 34.3713 6.96126 34.4628 6.76481C34.5153 6.60981 34.8203 6.72981 34.7003 6.90731C34.628 7.06488 34.5927 7.23689 34.597 7.41021C34.6013 7.58352 34.6452 7.75355 34.7253 7.90731C34.8194 8.06756 34.9556 8.19893 35.1191 8.28709C35.2827 8.37526 35.4673 8.41684 35.6528 8.40731C35.6994 8.17356 35.7976 7.95317 35.9403 7.76231C36.0031 7.67544 36.0921 7.61103 36.1943 7.57858C36.2964 7.54614 36.4063 7.54737 36.5077 7.5821C36.6091 7.61683 36.6966 7.68322 36.7574 7.77148C36.8182 7.85974 36.849 7.9652 36.8453 8.07231C36.7728 8.35731 36.4878 8.64481 35.9153 8.66731C35.9153 9.08731 36.4328 9.30481 36.8453 9.38231C36.9453 9.41981 37.0553 9.62231 36.8678 9.62231ZM36.2028 7.90731C36.0931 8.03691 36.019 8.19286 35.9878 8.35981C36.4153 8.31231 36.6053 8.10981 36.6303 7.97981C36.6353 7.88481 36.4403 7.66981 36.2028 7.90731Z" fill="#FF7449"/>
<path d="M46.9901 22.2469C46.5694 22.2483 46.1629 22.0953 45.8476 21.8169C45.5106 21.5394 45.283 21.1514 45.2051 20.7219C45.2051 20.6841 45.2201 20.6479 45.2468 20.6211C45.2735 20.5944 45.3098 20.5794 45.3476 20.5794C45.3854 20.5794 45.4216 20.5944 45.4483 20.6211C45.4751 20.6479 45.4901 20.6841 45.4901 20.7219C45.5687 21.0753 45.761 21.3932 46.0376 21.6269C46.2067 21.7742 46.4072 21.881 46.6238 21.9391C46.8404 21.9971 47.0675 22.0049 47.2876 21.9619C47.4349 21.9424 47.5745 21.8847 47.6926 21.7944C47.5432 21.7041 47.4148 21.5828 47.316 21.4388C47.2173 21.2948 47.1505 21.1313 47.1201 20.9594C47.0926 20.5794 47.3701 20.1269 47.9051 20.4594C48.2676 20.6894 48.3101 21.4019 48.0976 21.7094C48.1201 21.7094 49.0326 22.2644 50.1676 21.1394C50.1943 21.1163 50.2285 21.1037 50.2638 21.1037C50.2992 21.1037 50.3333 21.1163 50.3601 21.1394C50.3829 21.1658 50.3955 21.1995 50.3955 21.2344C50.3955 21.2693 50.3829 21.303 50.3601 21.3294C49.3776 22.2769 48.5026 22.1394 48.0726 21.9719C48.0251 21.9494 47.9776 21.9494 47.9301 21.9244C47.6682 22.1458 47.3327 22.2608 46.9901 22.2469ZM47.3851 20.9119C47.4158 21.0496 47.4765 21.1788 47.5629 21.2903C47.6494 21.4018 47.7594 21.4929 47.8851 21.5569C47.9039 21.4993 47.9273 21.4433 47.9551 21.3894C48.1351 20.6044 47.3476 20.3169 47.3851 20.9119Z" fill="#FF7449"/>
</g>
<defs>
<clipPath id="clip0_1982_65274">
<rect width="50" height="50" fill="white" transform="translate(0.5 0.193848)"/>
</clipPath>
</defs>
</svg>
