<svg width="50" height="50" viewBox="0 0 50 50" fill="none" xmlns="http://www.w3.org/2000/svg">
<path d="M28.3951 6.35764C28.3731 6.23264 27.9729 3.74414 27.8751 3.74414C27.7236 3.75939 18.6484 4.68789 18.6871 4.80414C18.7779 5.60164 19.0064 7.23389 19.0339 7.34464C29.1266 6.36839 28.4171 6.48189 28.3951 6.35764Z" fill="#FFB949"/>
<path d="M25.0087 4.04451C24.9602 4.04451 22.1194 4.35676 22.0614 4.37126C21.3069 1.59251 21.9302 1.42351 23.3684 1.33076C24.2522 1.27376 24.4754 1.46526 24.6684 2.14426C24.843 2.7652 24.9569 3.40159 25.0087 4.04451Z" fill="white"/>
<path d="M42.9645 44.6632C42.797 44.7422 12.7325 47.6169 12.707 47.6169L8.35303 8.37168C8.63703 8.37168 29.2183 6.36168 38.5705 5.47168C38.6173 5.75043 42.9113 44.3832 42.9645 44.6632Z" fill="white"/>
<path d="M37.9193 23.1448C37.7396 21.9058 37.7081 21.7388 37.6036 21.7736C37.3481 21.9013 13.4536 24.2736 13.6071 24.5806C13.7928 25.8616 13.8266 25.9121 13.9203 25.8806C14.0801 25.8006 37.9938 23.3313 37.9193 23.1448ZM13.9736 25.7006C13.9003 25.3271 13.8893 25.0456 13.8293 24.6721L37.5636 21.9601C37.6303 22.3133 37.6903 22.6668 37.7436 23.0268C14.0003 25.7041 13.9988 25.6976 13.9736 25.7006Z" fill="#313131"/>
<path d="M17.494 12.3854C33.4028 10.6217 36.0763 10.3392 36.4655 10.2327C36.5715 10.2037 36.2945 8.83016 36.1905 8.86491C35.9313 8.99466 12.0338 11.3519 12.1938 11.6722C12.3888 13.0139 12.3865 12.9657 12.5605 12.9657C12.585 12.9657 16.246 12.5239 17.494 12.3854Z" fill="#313131"/>
<path d="M38.3606 25.4157C38.1806 24.1765 38.1549 24.0252 38.0504 24.06C37.7949 24.1877 13.8894 26.499 14.0424 26.805C14.2284 28.0857 14.2734 28.1985 14.3674 28.1672C14.5274 28.0872 38.4354 25.6025 38.3606 25.4157ZM14.4206 27.9872C14.3497 27.6149 14.2852 27.2415 14.2271 26.867L38.0104 24.2467C38.0771 24.6 38.1371 24.9535 38.1904 25.3135C14.4466 27.9905 14.4456 27.984 14.4204 27.9872H14.4206Z" fill="#313131"/>
<path d="M38.8102 27.7611C38.6304 26.5221 38.6079 26.4328 38.5037 26.4676C38.2459 26.5963 14.3327 28.8926 14.4892 29.2058C14.6842 30.5478 14.6997 30.5681 14.8737 30.5681C14.9579 30.5681 15.4564 30.4773 38.7769 27.8611C38.8022 27.8611 38.8167 27.7926 38.8102 27.7611ZM14.8669 30.4006C14.7937 30.0271 14.7337 29.6536 14.6737 29.2803L38.4569 26.6601C38.5237 27.0133 38.5837 27.3668 38.6369 27.7268C38.3772 27.7188 15.1414 30.3596 14.8669 30.4006Z" fill="#313131"/>
<path d="M21.7748 3.47763C21.8273 3.78438 21.8948 4.08438 21.9748 4.38438C22.0033 4.37838 22.0323 4.37613 22.0613 4.37763C22.2688 4.37763 21.9933 4.35488 21.8481 2.79088C21.7981 2.24363 21.8013 1.80588 22.3281 1.59088C22.8144 1.44733 23.3219 1.38872 23.8281 1.41763C24.4106 1.47563 24.5063 1.86763 24.6483 2.43113C25.0126 3.87713 24.8343 4.10188 25.0111 4.08113C25.032 4.07856 25.0512 4.06788 25.0643 4.05139C25.0775 4.03489 25.0837 4.01389 25.0816 3.99288C25.0293 3.49667 24.9469 3.0041 24.8348 2.51788C24.7036 1.95263 24.6001 1.45113 24.0481 1.29788C23.5027 1.22223 22.9478 1.25391 22.4146 1.39113C21.4576 1.67338 21.6063 2.49188 21.7748 3.47763Z" fill="#501200"/>
<path d="M23.2341 2.02539C22.9883 2.02539 22.8591 2.52539 23.1876 2.57214C23.6011 2.62789 23.5746 2.02539 23.2341 2.02539Z" fill="#501200"/>
<path d="M38.6366 5.46499C38.6148 5.35699 38.6278 5.38998 30.5616 6.17198C8.21383 8.33549 8.23983 8.18448 8.21558 8.40273C8.21558 8.58523 12.2331 45.026 12.6366 47.5962C12.6426 47.6347 12.6631 47.6695 12.6939 47.6933C12.7248 47.7172 12.7635 47.7283 12.8023 47.7245C39.6613 45.133 42.5176 44.879 42.8446 44.7965C42.8711 44.79 42.9921 44.7192 42.9903 44.6272C42.9713 43.651 42.2681 37.785 38.6366 5.46499ZM42.8498 44.6372C12.7803 47.5385 12.8046 47.531 12.7796 47.5375L8.39233 8.46549L38.4966 5.55848C42.3126 39.5322 42.8603 44.6372 42.8498 44.6372Z" fill="#501200"/>
<path d="M23.681 37.0761C23.469 35.5101 23.5125 35.3463 23.3477 35.3691C18.2905 36.0678 14.8035 36.2366 14.9325 36.5376C14.8885 36.6256 15.2107 38.2473 15.6867 42.7701C15.8752 44.5626 15.8307 44.5201 15.92 44.5571C16.0027 44.5846 24.395 43.5713 24.395 43.3901C24.4287 43.2531 23.857 38.3761 23.681 37.0761ZM16.1467 44.3836C15.812 44.4393 16.245 44.6988 15.1065 36.6358C17.4105 36.3423 21.0065 35.9478 23.3145 35.5358C23.4362 36.0228 24.026 41.2033 24.2277 43.2968C21.8347 43.7186 16.358 44.3628 16.1467 44.3838V44.3836Z" fill="#501200"/>
<path d="M24.722 34.2414C24.6976 34.2282 24.6696 34.2231 24.6421 34.2267C24.6147 34.2303 24.589 34.2424 24.5687 34.2614C24.1732 34.7061 20.0092 40.3321 19.8937 40.4889C18.8667 40.1354 17.8417 39.7889 16.8187 39.4219C16.6687 39.3681 16.6127 39.6011 16.7252 39.6686C18.0177 40.5611 19.3752 41.6534 20.1725 42.3156C20.4022 42.5069 20.4907 42.2656 24.7597 34.4214C24.7718 34.4081 24.7806 34.3921 24.7853 34.3748C24.79 34.3575 24.7905 34.3393 24.7868 34.3217C24.7831 34.3041 24.7754 34.2877 24.7641 34.2737C24.7528 34.2598 24.7384 34.2487 24.722 34.2414Z" fill="#313131"/>
<path d="M9.10002 6.4192C8.48621 5.94969 8.00399 5.32969 7.70001 4.6192C8.17051 3.32495 8.09677 1.9067 7.96652 1.53895C7.83402 1.16395 7.38777 1.2502 7.25977 1.75895C7.08011 2.54148 7.10769 3.35733 7.33977 4.12595C7.53177 4.74695 7.56052 4.53595 7.41977 4.86595C6.88977 6.1087 6.07426 6.1892 5.63976 5.77945C5.44588 5.57152 5.28812 5.33265 5.17301 5.0727C5.38451 4.3852 5.90801 2.0062 5.39951 1.54545C4.53201 0.758948 4.22851 3.44545 4.99277 5.07945C4.82327 5.60445 4.60651 6.27945 4.17951 6.55945C3.40201 7.07145 2.60451 5.6277 2.61951 4.6392C2.61951 4.61705 2.61072 4.59581 2.59506 4.58015C2.5794 4.5645 2.55816 4.5557 2.53601 4.5557C2.51387 4.5557 2.49263 4.5645 2.47697 4.58015C2.46131 4.59581 2.45251 4.61705 2.45251 4.6392C2.45251 6.2602 4.12301 8.3177 5.09952 5.27945C5.32452 5.65445 5.56276 6.08495 6.07301 6.13945C6.82627 6.21995 7.33301 5.51445 7.61326 4.80595C7.93171 5.48742 8.41242 6.08041 9.01327 6.53295C9.10602 6.6267 9.18652 6.4852 9.10002 6.4192ZM5.11876 1.5987C5.43576 1.63295 5.42551 2.04695 5.42551 2.33195C5.42801 3.18295 5.30676 4.02945 5.06551 4.8457C4.58326 3.88145 4.63076 1.5457 5.11876 1.5987ZM7.83252 1.6517C7.98577 2.5692 7.91027 3.5107 7.61252 4.3922C6.91052 2.5267 7.63527 0.860198 7.83252 1.6517Z" fill="#98D1FF"/>
<path d="M8.96634 32.8629C8.13034 32.5674 7.59859 31.6511 7.14609 30.8159C7.223 30.21 7.25867 29.5996 7.25284 28.9889C7.18509 26.6901 5.65709 26.7436 6.01934 28.5024C6.246 29.3176 6.56824 30.1031 6.97934 30.8426C6.87546 31.6458 6.71735 32.441 6.50609 33.2229C6.49989 33.2441 6.50237 33.2669 6.51299 33.2863C6.52361 33.3057 6.54149 33.3201 6.56271 33.3263C6.58393 33.3325 6.60674 33.33 6.62613 33.3194C6.64551 33.3087 6.65989 33.2909 6.66609 33.2696C6.86256 32.5552 7.0118 31.8286 7.11284 31.0946C7.54609 31.8614 8.06084 32.7164 8.92634 33.0216C9.02534 33.0579 9.06584 32.8979 8.96634 32.8629ZM6.15259 27.6821C6.18559 27.5221 6.28609 27.3481 6.47259 27.4021C7.33109 27.6499 7.03409 30.1054 7.00609 30.5559C6.63834 29.8386 5.99009 28.4716 6.15259 27.6821Z" fill="#98D1FF"/>
<path d="M41.2708 9.61528C41.2521 9.50828 41.0918 9.55503 41.1108 9.66203C41.2649 10.5374 41.513 11.3936 41.8508 12.2158C41.8918 12.3158 42.0388 12.2285 41.9976 12.129C41.6638 11.3203 41.4201 10.4773 41.2708 9.61528Z" fill="#313131"/>
<path d="M44.1843 9.61499C43.9665 10.4757 43.7645 11.337 43.5575 12.1955C43.5531 12.2162 43.5567 12.2377 43.5675 12.2559C43.5783 12.274 43.5955 12.2875 43.6158 12.2935C43.6361 12.2994 43.6579 12.2974 43.6768 12.2878C43.6957 12.2783 43.7102 12.2619 43.7175 12.242C43.9313 11.3852 44.1265 10.5225 44.3443 9.66174C44.3713 9.55499 44.211 9.50849 44.1843 9.61499Z" fill="#313131"/>
<path d="M46.8314 11.2096C46.2882 11.7488 45.7391 12.2821 45.1844 12.8096C45.1057 12.8846 45.2257 13.0043 45.3044 12.9296C45.8594 12.4046 46.4079 11.8661 46.9514 11.3296C46.9594 11.3217 46.9656 11.3124 46.9699 11.3021C46.9741 11.2918 46.9763 11.2807 46.9762 11.2696C46.9762 11.2471 46.9673 11.2255 46.9514 11.2096C46.9354 11.1938 46.9139 11.1848 46.8914 11.1846C46.8803 11.1846 46.8692 11.1868 46.8589 11.1911C46.8486 11.1954 46.8393 11.2017 46.8314 11.2096Z" fill="#313131"/>
<path d="M45.1765 20.9189C44.2313 18.7567 45.9675 15.8852 44.5163 14.8439C44.343 14.7192 44.145 14.6333 43.9356 14.5919C43.7263 14.5505 43.5104 14.5546 43.3028 14.6039C42.6868 13.6454 41.3028 13.3664 40.189 14.1372C39.0938 14.8947 38.8368 16.2577 38.5423 17.4642C38.0378 19.5299 37.4923 19.4494 37.7553 19.6444C38.5383 20.2232 39.5213 20.4034 40.4553 20.5647C40.864 20.6352 41.2465 20.0829 42.0488 20.9379C42.4403 21.3554 43.9953 21.4297 45.1093 21.1114C45.1422 21.0933 45.1673 21.0636 45.1797 21.028C45.1921 20.9925 45.191 20.9537 45.1765 20.9189Z" fill="#313131"/>
<path d="M44.3491 17.7783C44.2624 17.4783 43.9159 17.3978 43.6424 17.4316C43.5891 17.4381 43.4624 17.4848 43.4224 17.4448C43.1587 16.891 43.0636 16.2719 43.1491 15.6645C43.2091 15.2473 39.9144 15.4895 39.8354 15.8045C39.8354 16.0453 38.8391 18.8766 40.2486 19.6586C40.4926 19.7938 40.5286 19.6895 40.5286 19.785C40.5199 20.025 40.4704 20.2617 40.3821 20.4851C40.4071 20.4851 40.3036 20.5043 40.3554 20.5983C40.9729 21.7183 42.4304 21.2308 42.4624 20.8718C42.4826 20.74 42.4089 20.6656 42.4089 20.2583C42.4082 19.991 42.4396 19.7246 42.5024 19.4648C42.5549 19.3425 43.1421 19.2628 43.4691 18.4781C43.9584 18.6528 44.4764 18.215 44.3491 17.7783Z" fill="white"/>
<path d="M40.309 17.2182C40.266 16.6602 40.754 16.632 40.6025 17.2382C40.5967 17.2597 40.5996 17.2826 40.6105 17.302C40.6189 17.3163 40.6314 17.3277 40.6464 17.3348C40.6614 17.3419 40.6782 17.3443 40.6946 17.3417C40.711 17.3392 40.7262 17.3318 40.7383 17.3204C40.7504 17.3091 40.7588 17.2944 40.7625 17.2782C40.8895 16.9662 40.715 16.5282 40.4025 16.6582C40.1748 16.7525 40.0863 17.3387 40.249 17.3117C40.2656 17.3019 40.2797 17.2884 40.2901 17.2721C40.3006 17.2559 40.307 17.2374 40.309 17.2182Z" fill="#501200"/>
<path d="M41.8492 17.278C41.807 17.003 42.0375 16.703 42.1292 17.1115C42.1792 17.334 42.0272 17.4822 42.1627 17.5047C42.3255 17.5512 42.3657 17.0562 42.1892 16.838C41.8187 16.38 41.495 17.4142 41.7892 17.3715C41.8742 17.3592 41.8397 17.278 41.8492 17.278Z" fill="#501200"/>
<path d="M40.9089 17.4998C41.1226 17.4998 41.2458 17.612 41.2623 17.4598C41.2936 17.1735 41.3069 16.8863 41.3224 16.6065C41.3284 16.4998 41.1604 16.4995 41.1556 16.6065C41.1444 16.8595 41.1291 17.1065 41.1091 17.3533C40.9529 17.324 40.6516 17.2905 40.7091 17.4398C40.8079 17.6954 40.9426 17.9356 41.1091 18.1533C41.1754 18.2403 41.3156 18.1533 41.2556 18.0665C41.1124 17.8959 40.9955 17.7049 40.9089 17.4998Z" fill="#501200"/>
<path d="M41.0092 19.0712C41.2044 19.2225 41.5174 19.0235 41.4892 18.5977C41.4892 18.5819 41.4844 18.5664 41.4756 18.5533C41.4668 18.5401 41.4543 18.5298 41.4397 18.5237C41.43 18.5197 41.4197 18.5176 41.4092 18.5176C41.3987 18.5176 41.3883 18.5197 41.3787 18.5237C41.364 18.5297 41.3514 18.5399 41.3425 18.5531C41.3337 18.5663 41.329 18.5819 41.3292 18.5977C41.3487 18.8727 41.1842 18.9695 41.2092 18.9445C41.1384 19.0152 40.9957 18.7627 40.9957 18.6777C40.9957 18.7027 41.0172 18.5427 40.9357 18.531C40.6737 18.4435 40.8564 18.953 41.0092 19.0712Z" fill="#501200"/>
<path d="M40.5236 19.8464C40.7546 19.9032 41.6161 20.0277 41.5771 19.7932C41.5709 19.7725 41.5572 19.755 41.5387 19.7439C41.5202 19.7328 41.4982 19.729 41.4771 19.7332C41.1748 19.7789 40.8664 19.763 40.5703 19.6864C40.4501 19.6584 40.4323 19.8464 40.5236 19.8464Z" fill="#501200"/>
<path d="M43.5299 18.1052C43.8549 18.0727 43.9899 18.2252 44.0099 18.0852C44.0514 17.94 43.6629 17.917 43.5231 17.9387C43.3909 17.9592 43.4449 18.1052 43.5299 18.1052Z" fill="#501200"/>
<path d="M40.4491 16.1921C40.3099 16.1921 40.6491 16.2476 40.6491 16.0653C40.6491 15.7841 39.8864 16.0261 40.0359 16.2253C40.1449 16.3886 40.2131 16.2216 40.4491 16.1921Z" fill="#313131"/>
<path d="M42.5095 16.4447C42.5413 16.4521 42.5747 16.4473 42.6031 16.4312C42.6315 16.4151 42.6529 16.389 42.663 16.358C42.6993 16.176 42.122 15.7892 42.0695 16.0512C42.007 16.1917 42.148 16.1692 42.3008 16.264C42.4255 16.3415 42.4335 16.4142 42.5095 16.4447Z" fill="#313131"/>
<path d="M47.2635 25.8391C46.9355 24.1376 46.4993 22.0656 45.2168 21.0584C44.9081 20.8093 44.5496 20.6292 44.1654 20.5303C43.7813 20.4314 43.3804 20.416 42.9898 20.4851C42.8128 20.5261 42.639 20.5796 42.4695 20.6451C42.3962 20.691 42.3206 20.7332 42.243 20.7716C41.8153 20.9374 41.074 21.0361 40.6093 20.7651C40.345 20.6109 40.3665 20.4956 40.2825 20.4784C37.7383 19.9514 36.62 21.9394 35.4753 24.0656C32.493 21.3126 32.623 21.5851 31.7348 20.7906C31.501 20.5819 30.214 21.1529 30.408 21.2174C31.0148 22.6376 31.4813 24.1579 32.455 25.3846C33.3015 26.4516 34.6213 27.2884 36.0353 27.0846C38.0028 26.8016 37.8173 25.1566 37.6823 27.0381C37.1438 34.5479 37.1008 34.2724 37.1888 34.2724C39.5553 34.2724 45.4888 33.9909 45.4638 33.9124C45.4318 33.3494 45.3765 32.6374 45.3603 32.0624C45.9641 31.7126 46.4756 31.2235 46.852 30.636C47.2284 30.0484 47.4589 29.3794 47.5243 28.6846C47.5733 27.7285 47.4855 26.7704 47.2635 25.8391Z" fill="#98D1FF"/>
<path d="M36.2617 47.0438C35.6845 47.188 34.1755 47.6868 33.8347 48.1173C35.315 48.2973 36.7972 48.4795 38.282 48.664C38.318 48.6728 38.356 48.668 38.3887 48.6505C38.5042 48.5583 38.4652 46.7755 38.4555 46.5303L36.2617 47.0438Z" fill="white"/>
<path d="M44.9241 47.2154C45.5616 47.4586 46.9126 48.1254 47.1978 48.5889C45.7041 48.5824 44.2106 48.5656 42.7171 48.5624C42.4456 48.5624 42.7778 46.6894 42.8238 46.4219L44.9241 47.2154Z" fill="white"/>
<path d="M39.9292 20.5261C40.3167 21.7131 42.0412 22.0398 43.0897 20.6593C43.1557 20.5723 43.0097 20.4926 42.9429 20.5726C42.0292 21.8126 40.4449 21.5666 40.0824 20.4793C40.0754 20.46 40.0612 20.4442 40.0429 20.4351C40.0245 20.426 40.0033 20.4243 39.9837 20.4303C39.9642 20.4364 39.9477 20.4497 39.9376 20.4675C39.9275 20.4852 39.9245 20.5062 39.9292 20.5261Z" fill="white"/>
<path d="M45.2098 32.02C43.5473 32.595 41.7598 32.7847 40.0023 32.8535C39.9832 32.3332 39.9343 31.8146 39.8558 31.3C40.6783 31.1757 41.4822 30.9495 42.2488 30.6265C43.0655 30.308 43.9283 29.9972 44.4825 29.2397C45.0995 28.3962 45.3185 26.7112 44.6293 25.2397C44.5823 25.1397 44.4425 25.2262 44.4825 25.3262C44.7538 25.9063 44.8928 26.5395 44.8893 27.18C44.8775 29.3605 43.722 29.9882 41.5143 30.727C40.043 31.2197 39.6393 31.0407 39.674 31.2537C39.9118 32.715 39.7533 32.9422 39.8808 32.974C39.9468 33.106 43.344 32.8547 45.2483 32.1807C45.3488 32.145 45.3093 31.9857 45.2098 32.02Z" fill="white"/>
<path d="M47.2701 48.5494C47.0564 48.2086 46.2149 47.7309 46.1499 47.7094C46.1924 47.6724 46.2395 47.641 46.2899 47.6159C46.3087 47.605 46.3225 47.5871 46.3283 47.5662C46.3341 47.5452 46.3314 47.5229 46.3209 47.5039C46.3104 47.4849 46.293 47.4707 46.2723 47.4643C46.2516 47.4579 46.2293 47.4597 46.2099 47.4694C45.8916 47.6356 46.1541 47.6874 45.6231 47.4359C45.6501 47.3966 45.6791 47.3589 45.7099 47.3226C45.7205 47.3105 45.7275 47.2956 45.7301 47.2796C45.7326 47.2637 45.7306 47.2474 45.7242 47.2326C45.7178 47.2177 45.7073 47.205 45.694 47.1959C45.6807 47.1868 45.665 47.1817 45.6489 47.1811C45.6272 47.1805 45.6061 47.1882 45.5899 47.2026C45.3981 47.3944 45.5786 47.3936 45.0299 47.1691C45.1014 47.0691 45.3831 36.5146 45.3831 33.9541C43.7481 33.9989 39.3351 34.3149 37.2954 34.2741L36.1219 46.9958C35.4004 47.1708 35.6496 47.2371 35.4019 46.9891C35.3256 46.9129 35.2056 47.0329 35.2819 47.1091C35.3151 47.1491 35.3484 47.1826 35.3819 47.2226C35.2575 47.2634 35.1351 47.3101 35.0151 47.3626C34.9151 47.2481 34.8301 47.1209 34.7484 47.2026C34.6794 47.2889 34.7669 47.3314 34.8484 47.4294C34.9199 47.4294 34.0866 47.6834 33.7549 48.0626C33.7439 48.0744 33.7366 48.0892 33.7338 48.1051C33.731 48.121 33.7329 48.1373 33.7393 48.1521C33.7456 48.167 33.7562 48.1796 33.7696 48.1886C33.783 48.1976 33.7988 48.2024 33.8149 48.2026C38.4454 48.7004 38.3649 48.7971 38.4489 48.6761C38.4969 48.6059 38.4844 48.5671 38.5089 48.0761C38.5809 46.6416 38.2191 47.9901 41.3226 37.1279C41.9366 39.7929 42.2016 42.3541 42.4161 45.0624C42.6819 48.4161 42.5134 47.2548 42.4961 48.4226C42.4914 48.7456 42.4869 48.6476 47.1901 48.6693C47.2049 48.671 47.2199 48.6686 47.2334 48.6623C47.2469 48.656 47.2584 48.646 47.2666 48.6336C47.2749 48.6213 47.2796 48.6069 47.2801 48.5921C47.2809 48.5772 47.2774 48.5624 47.2701 48.5494ZM38.3221 48.5761C38.2891 48.5926 34.0496 48.0594 34.0221 48.0561C34.3209 47.8514 34.6434 47.6835 34.9824 47.5561C35.0926 47.7139 35.1221 47.8731 35.2224 47.8096C35.3144 47.7514 35.2024 47.5889 35.1356 47.5029C35.2556 47.4561 35.3824 47.4096 35.5024 47.3629C35.5644 47.4569 35.6201 47.5549 35.6691 47.6561C35.7111 47.7461 35.8534 47.6826 35.8156 47.5696C35.7723 47.4799 35.7233 47.393 35.6691 47.3094C36.5266 47.0344 35.8964 47.1791 38.3894 47.4561C38.3636 47.6584 38.3601 48.5571 38.3221 48.5761ZM42.9829 48.4826C42.8806 48.4861 42.7781 48.4839 42.6761 48.4761C42.6511 48.4511 42.7569 47.4729 42.7629 47.4294C45.1809 47.3479 44.4961 47.0991 45.3766 47.5026C45.3499 47.5494 45.3166 47.5959 45.2966 47.6359C45.2901 47.645 45.2856 47.6555 45.2833 47.6665C45.281 47.6775 45.2809 47.6889 45.2832 47.6999C45.2854 47.7109 45.2899 47.7214 45.2963 47.7306C45.3027 47.7398 45.311 47.7477 45.3206 47.7536C45.3301 47.7595 45.3408 47.7634 45.3519 47.7651C45.3631 47.7667 45.3744 47.7661 45.3853 47.7632C45.3962 47.7603 45.4063 47.7552 45.4152 47.7482C45.424 47.7412 45.4313 47.7325 45.4366 47.7226C45.4631 47.6694 45.4966 47.6226 45.5299 47.5694C45.6499 47.6226 45.7634 47.6826 45.8834 47.7494C45.8266 47.8201 45.7351 47.9244 45.8366 47.9761C45.9516 48.0336 45.9754 47.8626 46.0034 47.8626C46.0034 47.7444 46.8511 48.3126 47.0369 48.5093C45.4301 48.4963 43.9524 48.4826 42.9829 48.4826Z" fill="#313131"/>
<path d="M39.7771 29.5403C39.4186 22.9153 39.4081 22.6476 39.1568 22.1326C38.8118 21.4251 38.0436 20.9918 37.2701 20.8526C36.4898 20.7118 33.4028 20.9526 32.6226 21.0591C31.5026 21.0926 29.5571 21.2453 28.4688 21.5126C27.1143 21.8451 26.8456 22.3981 26.9418 23.7326C27.0693 25.4998 27.0443 28.5328 27.2618 30.2938C27.4588 31.8873 27.9146 32.2106 29.1618 32.4141C31.7551 32.8368 33.6633 32.4806 37.0096 32.0806C39.5251 31.7803 39.8631 31.1321 39.7771 29.5403Z" fill="white"/>
<path d="M39.8701 29.6865C39.8426 29.0705 39.5388 23.2242 39.4033 22.6115C38.8033 19.9005 35.0693 20.8615 32.2956 20.9912C31.2668 21.0387 28.5721 21.2232 27.6483 21.7112C27.386 21.8444 27.17 22.0535 27.0283 22.3112C26.0218 22.9757 26.3991 24.0837 26.4748 26.5112C26.6076 30.7565 26.5828 32.2647 27.7683 32.7862C29.7643 33.6627 34.9053 32.9112 37.0031 32.6327C37.8196 32.5247 38.7586 32.3272 39.1701 31.5792C39.8156 31.124 39.9063 30.499 39.8701 29.6865ZM39.5566 30.86C39.0968 31.86 37.6666 31.9125 36.4363 32.06C34.1556 32.3337 32.5203 32.56 30.9688 32.5002C26.7886 32.3405 27.3758 31.9675 27.0751 24.6457C26.9928 22.6457 26.7038 21.9267 28.8218 21.5052C30.3913 21.193 35.5718 20.9117 35.7361 20.9052C36.8488 20.8617 37.9288 20.8092 38.7633 21.7052C39.3161 22.2992 39.4191 22.477 39.7033 29.653C39.7493 30.0613 39.6991 30.4746 39.5566 30.86Z" fill="#501200"/>
<path d="M36.0765 26.6798C36.162 26.6339 36.2341 26.5666 36.2858 26.4845C36.3374 26.4024 36.3668 26.3082 36.371 26.2113C36.3749 26.1143 36.3535 26.018 36.3089 25.9318C36.2643 25.8456 36.198 25.7725 36.1165 25.7198C35.6043 25.308 34.6288 25.4133 33.7495 25.533C33.725 24.8558 33.5828 24.188 33.3293 23.5595C32.9878 22.8663 32.4953 22.875 32.3425 23.2395C32.206 23.5645 32.382 24.029 32.2958 24.473C32.1478 25.2348 31.6308 25.9778 30.869 25.9398C30.7623 25.9345 30.7623 26.1013 30.869 26.1065C31.7753 26.1515 32.3808 25.2065 32.469 24.3995C32.529 23.8513 32.3405 23.4315 32.5358 23.2195C32.7145 23.025 32.9763 23.3195 33.069 23.4595C33.2027 23.673 33.2996 23.9073 33.3558 24.1528C33.707 25.5028 33.459 25.7358 33.6758 25.7065C34.1993 25.6355 34.9995 25.5363 35.516 25.6465C36.172 25.7863 36.2808 26.1658 36.1428 26.3865C36.0633 26.4875 35.9603 26.5675 35.8428 26.6198C35.8294 26.6287 35.8187 26.6412 35.8121 26.6559C35.8055 26.6706 35.8031 26.6868 35.8053 26.7028C35.8073 26.7187 35.8138 26.7337 35.824 26.7462C35.8341 26.7586 35.8476 26.768 35.8628 26.7733C35.9677 26.7999 36.0599 26.8625 36.1233 26.9503C36.1867 27.038 36.2172 27.1453 36.2095 27.2533C36.1915 27.5135 35.9225 27.666 35.716 27.78C35.7056 27.7864 35.6967 27.795 35.6898 27.8052C35.683 27.8153 35.6785 27.8269 35.6766 27.8389C35.6746 27.851 35.6753 27.8634 35.6786 27.8752C35.6818 27.887 35.6876 27.8979 35.6955 27.9073C35.7063 27.9198 35.7203 27.929 35.736 27.9335C36.101 28.0003 36.0993 28.6085 35.5228 28.6935C35.436 28.7063 35.4493 28.8335 35.5228 28.8535C35.7353 28.9243 35.7373 29.2785 35.376 29.4203C34.9923 29.5703 32.8273 29.774 31.0288 29.6735C30.922 29.6678 30.922 29.8343 31.0288 29.8403C32.4241 29.9105 33.8229 29.839 35.2038 29.627C35.8163 29.508 35.9573 29.0413 35.737 28.7935C36.2273 28.5975 36.2673 28.0708 35.937 27.8268C36.547 27.4778 36.471 26.9055 36.0765 26.6798Z" fill="#501200"/>
<path d="M31.2223 29.807C31.0108 25.407 31.0973 25.4198 30.8356 25.4198C30.5843 25.4065 29.5541 25.439 29.4021 25.553C29.3675 25.5828 29.3422 25.6219 29.3291 25.6656C29.3161 25.7094 29.3159 25.7559 29.3286 25.7998C29.3286 25.8248 29.6133 30.0815 29.6153 30.107C29.6436 30.4478 30.0178 30.359 30.5688 30.327C31.0846 30.297 31.2498 30.3808 31.2223 29.807Z" fill="#98D1FF"/>
<path d="M34.3893 18.9747C34.3225 18.9879 34.2493 19.0079 34.1825 19.0212C34.1678 18.8396 34.1411 18.6592 34.1025 18.4812C34.0803 18.3749 33.9173 18.4209 33.9425 18.5279C33.9833 18.7054 34.01 18.8862 34.0225 19.0679C33.8958 19.1012 33.7693 19.1279 33.6358 19.1612C33.5291 19.1879 33.5755 19.3472 33.6825 19.3212C33.7958 19.2939 33.9158 19.2679 34.0293 19.2347C34.0358 19.3879 34.0308 19.5414 34.0225 19.6947C34.0168 19.8014 34.1815 19.8012 34.1893 19.6947C34.2315 19.0999 34.0858 19.2249 34.436 19.1347C34.536 19.1087 34.4893 18.9479 34.3893 18.9747Z" fill="#98D1FF"/>
<path d="M27.5549 19.0882C27.4229 19.0882 27.4684 19.1237 27.4482 18.8349C27.4407 18.7282 27.2732 18.7282 27.2814 18.8349C27.2877 18.9214 27.2882 19.0014 27.2949 19.0882C27.1399 19.0882 26.9699 19.0632 26.9882 19.1682C26.9882 19.2799 27.1297 19.2482 27.3014 19.2482C27.3082 19.3814 27.3139 19.5149 27.3214 19.6482C27.3274 19.7549 27.4942 19.7549 27.4882 19.6482C27.4807 19.5149 27.4749 19.3814 27.4682 19.2482H27.5482C27.5694 19.2491 27.5901 19.2415 27.6057 19.2271C27.6214 19.2128 27.6306 19.1928 27.6315 19.1716C27.6324 19.1504 27.6249 19.1296 27.6105 19.114C27.5961 19.0984 27.5761 19.0891 27.5549 19.0882Z" fill="#98D1FF"/>
<path d="M29.3017 34.1636C29.0067 34.1886 29.0767 34.2861 29.0484 33.7969C29.0422 33.6901 28.8759 33.6901 28.8817 33.7969C28.8894 33.9369 28.8952 34.0701 28.9017 34.2101C28.6964 34.2419 28.5549 34.2216 28.5549 34.3236C28.5549 34.3636 28.5949 34.4099 28.6349 34.4036C28.7282 34.3891 28.8217 34.3836 28.9084 34.3701C28.9152 34.5101 28.9204 34.6504 28.9284 34.7969C28.9342 34.9036 29.1009 34.9036 29.0952 34.7969C29.0872 34.6504 29.0817 34.5036 29.0752 34.3569C29.1484 34.3501 29.2287 34.3389 29.3017 34.3301C29.4282 34.3154 29.3884 34.1521 29.3017 34.1636Z" fill="#98D1FF"/>
<path d="M25.988 30.5097C25.9462 30.5097 25.9717 30.513 25.908 30.163C25.8887 30.0562 25.728 30.103 25.748 30.2097C25.768 30.3165 25.7815 30.4232 25.7947 30.5232C25.6447 30.533 25.406 30.5232 25.4212 30.6297C25.4212 30.7487 25.548 30.6997 25.8147 30.6832C25.8277 30.825 25.832 30.9675 25.828 31.11C25.8291 31.1313 25.8384 31.1513 25.8539 31.166C25.8695 31.1807 25.89 31.1889 25.9114 31.1889C25.9327 31.1889 25.9533 31.1807 25.9688 31.166C25.9843 31.1513 25.9936 31.1313 25.9947 31.11C25.9947 30.6542 25.9562 30.6697 25.9815 30.6697C26.101 30.65 26.0835 30.5097 25.988 30.5097Z" fill="#98D1FF"/>
<path d="M32.1356 21.1987C32.0188 20.9338 31.8884 20.6751 31.7449 20.4237C31.7262 20.3755 31.6909 20.3355 31.6455 20.3108C31.6 20.286 31.5473 20.2782 31.4966 20.2887C31.446 20.2992 31.4007 20.3273 31.3688 20.3681C31.3369 20.4088 31.3204 20.4595 31.3224 20.5112C31.2606 20.3675 31.0309 20.3925 30.9474 20.5657C30.5684 20.3907 30.4291 20.5657 30.4039 20.6515C30.3249 20.6619 30.2501 20.6934 30.1874 20.7427C30.1247 20.7919 30.0765 20.8571 30.0476 20.9315C29.9692 21.1839 29.9531 21.4515 30.0009 21.7115C30.0281 22.0747 30.3299 22.2147 30.3741 21.9847C30.4279 21.6922 30.4501 21.3952 30.4409 21.0982C30.5131 21.3867 30.8259 21.965 31.0144 21.965C31.2326 21.965 31.1711 21.499 31.1344 21.3515C31.2164 21.4912 31.5794 21.9805 31.7076 21.905C31.8124 21.843 31.7679 21.4847 31.7679 21.4847C31.8296 21.548 31.8964 21.606 31.9679 21.6582C32.1209 21.8102 32.4264 21.8322 32.1356 21.1987Z" fill="white"/>
<path d="M39.7024 31.2585C38.7384 31.0835 38.1644 30.4725 38.1289 30.685C38.0924 31.014 38.5997 31.2225 38.6824 31.5252C37.0289 31.2472 36.9809 31.214 37.0022 31.2985C37.0022 31.5672 37.9272 31.8945 38.2822 31.9585C37.3594 32.015 37.0447 31.7562 36.7287 31.9052C36.6252 31.954 36.6487 32.0322 36.7422 32.0985C37.1084 32.3592 37.6422 32.312 38.0889 32.3587C37.7284 32.3527 37.3032 32.3547 36.9252 32.3527C36.7814 32.3527 36.6549 32.3485 36.9219 32.5462C37.0017 32.5992 37.0934 32.631 37.1887 32.6387C38.3972 32.8122 38.7292 32.5805 37.2222 33.012C36.8027 33.1322 36.9942 33.5925 39.9159 32.8787L39.7024 31.2585Z" fill="white"/>
<path d="M31.2675 20.3553C31.2027 20.3289 31.1307 20.3258 31.0639 20.3465C30.997 20.3671 30.9394 20.4102 30.9007 20.4686C30.5912 20.3376 30.4507 20.4218 30.3475 20.5753C29.926 20.6428 29.8597 21.0896 29.8872 21.5156C29.8688 21.7261 29.9308 21.9357 30.0607 22.1023C30.0943 22.1353 30.1364 22.1584 30.1823 22.1689C30.2282 22.1795 30.2761 22.1772 30.3207 22.1623C30.4652 22.0981 30.4865 21.6801 30.494 21.5221C30.9315 22.2878 31.2507 22.1016 31.2342 21.6688C31.3257 21.7863 31.4362 21.8876 31.561 21.9688C31.7292 22.0456 31.8257 21.8891 31.8542 21.6888C32.0747 21.9093 32.2885 21.8116 32.3077 21.6221C32.3347 21.3556 31.9132 20.5301 31.784 20.3141C31.6165 20.0346 31.3115 20.2673 31.2675 20.3553ZM30.3075 21.8088C30.2075 22.5631 29.7707 21.0073 30.3007 20.7688C30.2847 21.0086 30.4122 21.0268 30.3075 21.8088ZM31.0275 21.8756C30.7957 22.0256 30.0162 20.2166 30.8407 20.6288C30.8137 20.9021 30.8898 21.1756 31.0542 21.3956C31.0687 21.6431 31.12 21.8158 31.0275 21.8756ZM31.0407 20.5756C31.094 20.5058 31.2407 20.4653 31.2407 20.6156C31.353 21.2258 31.676 21.3833 31.7032 21.6173C31.7837 22.3106 30.7735 20.9268 31.0407 20.5753V20.5756ZM31.4142 20.4556C31.4435 20.3753 31.5937 20.3286 31.621 20.3556C33.0382 22.9958 31.1962 20.8913 31.4142 20.4553V20.4556Z" fill="#501200"/>
<path d="M39.8821 32.7906C39.0638 33.034 38.2155 33.1619 37.3618 33.1706C36.7478 33.1706 37.5753 32.9886 38.2286 32.7973C38.2478 32.7915 38.2643 32.7792 38.2753 32.7624C38.2863 32.7456 38.291 32.7255 38.2886 32.7055C38.2862 32.6856 38.2769 32.6672 38.2623 32.6535C38.2476 32.6398 38.2286 32.6316 38.2086 32.6306C37.9306 32.6176 37.0808 32.6031 36.9018 32.4238H38.0753C38.0863 32.4238 38.0971 32.4217 38.1072 32.4175C38.1172 32.4133 38.1264 32.4071 38.1341 32.3993C38.1419 32.3916 38.1481 32.3825 38.1524 32.3724C38.1566 32.3623 38.1588 32.3514 38.1588 32.3404C38.1588 32.3295 38.1566 32.3186 38.1524 32.3085C38.1481 32.2984 38.1419 32.2892 38.1341 32.2816C38.1185 32.266 38.0973 32.2573 38.0753 32.2573C37.8486 32.2298 37.6218 32.2323 37.4018 32.2106C36.9368 32.1661 36.7018 32.0061 36.7683 31.9638C36.9373 31.8571 37.4653 32.0976 38.2683 32.0371C38.3551 32.0306 38.3886 31.8896 38.2883 31.8706C37.8483 31.8015 37.4344 31.6174 37.0883 31.3371C37.1133 31.3421 38.6133 31.5933 38.6421 31.5971C38.656 31.6013 38.6708 31.6018 38.6849 31.5983C38.699 31.5947 38.7119 31.5875 38.7222 31.5772C38.7325 31.5669 38.7398 31.554 38.7433 31.5399C38.7468 31.5258 38.7464 31.511 38.7421 31.4971C38.6733 31.3337 38.5657 31.1895 38.4286 31.0771C38.1516 30.8001 38.2058 30.7611 38.1886 30.7436C38.6447 31.0161 39.1392 31.2183 39.6556 31.3436C39.7621 31.3633 39.8023 31.2021 39.7021 31.1836C39.0313 31.0586 38.2753 30.5751 38.1953 30.5568C38.0141 30.5151 37.9326 30.8008 38.2086 31.0901C38.3026 31.1886 38.3811 31.2558 38.5153 31.4168C38.1331 31.3516 37.3471 31.2256 37.1483 31.1901C36.8333 31.1113 36.6568 31.4533 37.5886 31.8568C37.7971 31.9611 37.1153 31.7408 36.7951 31.7968C36.6816 31.8168 36.5213 31.8836 36.5618 32.0303C36.5988 32.1648 36.8298 32.2703 36.8551 32.2703C36.7701 32.2703 36.6551 32.2718 36.6551 32.3903C36.6551 32.4688 36.8183 32.6191 36.8883 32.6571C37.1461 32.7341 37.4128 32.7766 37.6818 32.7836C37.1183 32.9446 37.0096 32.9713 36.9618 33.0771C36.6758 33.7093 39.3498 33.0933 39.9021 32.9571C40.0293 32.9258 39.9826 32.7651 39.8821 32.7906Z" fill="#501200"/>
</svg>
