<svg width="140" height="68" viewBox="0 0 140 68" fill="none" xmlns="http://www.w3.org/2000/svg">
<g clip-path="url(#clip0_676_2111)">
<path d="M122.521 13.627H103.153V34.1746H122.521V13.627Z" fill="#3895FF"/>
<path d="M118.802 19.3228H121.281V16.1879H118.802V19.3228Z" fill="#FAFAFA"/>
<path d="M113.998 19.3228H116.478V16.1879H113.998V19.3228Z" fill="#FAFAFA"/>
<path d="M109.196 19.3228H111.676V16.1879H109.196V19.3228Z" fill="#FAFAFA"/>
<path d="M104.393 19.3228H106.873V16.1879H104.393V19.3228Z" fill="#FAFAFA"/>
<path d="M118.802 25.0183H121.281V21.8835H118.802V25.0183Z" fill="#FAFAFA"/>
<path d="M113.999 25.0183H116.478V21.8835H113.999V25.0183Z" fill="#FAFAFA"/>
<path d="M109.196 25.0183H111.676V21.8835H109.196V25.0183Z" fill="#FAFAFA"/>
<path d="M104.393 25.0183H106.873V21.8835H104.393V25.0183Z" fill="#FAFAFA"/>
<path d="M118.802 30.7139H121.281V27.579H118.802V30.7139Z" fill="#FAFAFA"/>
<path d="M113.998 30.7139H116.478V27.579H113.998V30.7139Z" fill="#FAFAFA"/>
<path d="M109.196 30.7139H111.676V27.579H109.196V30.7139Z" fill="#FAFAFA"/>
<path d="M104.393 30.7139H106.873V27.579H104.393V30.7139Z" fill="#FAFAFA"/>
<path d="M122.521 30.6953H103.154V51.243H122.521V30.6953Z" fill="#3895FF"/>
<path d="M118.802 36.3909H121.281V33.256H118.802V36.3909Z" fill="#FAFAFA"/>
<path d="M113.999 36.3909H116.478V33.256H113.999V36.3909Z" fill="#FAFAFA"/>
<path d="M109.197 36.3909H111.676V33.256H109.197V36.3909Z" fill="#FAFAFA"/>
<path d="M104.394 36.3909H106.873V33.256H104.394V36.3909Z" fill="#FAFAFA"/>
<path d="M118.802 42.0867H121.281V38.9518H118.802V42.0867Z" fill="#FAFAFA"/>
<path d="M113.999 42.0867H116.479V38.9518H113.999V42.0867Z" fill="#FAFAFA"/>
<path d="M109.197 42.0867H111.676V38.9518H109.197V42.0867Z" fill="#FAFAFA"/>
<path d="M104.393 42.0867H106.873V38.9518H104.393V42.0867Z" fill="#FAFAFA"/>
<path d="M118.802 47.7822H121.281V44.6474H118.802V47.7822Z" fill="#FAFAFA"/>
<path d="M113.999 47.7822H116.478V44.6474H113.999V47.7822Z" fill="#FAFAFA"/>
<path d="M109.197 47.7822H111.676V44.6474H109.197V47.7822Z" fill="#FAFAFA"/>
<path d="M104.394 47.7822H106.873V44.6474H104.394V47.7822Z" fill="#FAFAFA"/>
<path d="M140.095 42.9209H120.728V78.664H140.095V42.9209Z" fill="#3895FF"/>
<path d="M138.855 44.4885H131.573V53.3194H138.855V44.4885Z" fill="#F0F0F0"/>
<path d="M129.25 44.4885H121.968V53.3194H129.25V44.4885Z" fill="#F0F0F0"/>
<path d="M138.855 55.8809H131.573V64.7117H138.855V55.8809Z" fill="#F0F0F0"/>
<path d="M129.25 55.8809H121.968V64.7117H129.25V55.8809Z" fill="#F0F0F0"/>
<path d="M138.855 67.2722H131.573V76.1031H138.855V67.2722Z" fill="#F0F0F0"/>
<path d="M129.25 67.2722H121.968V76.1031H129.25V67.2722Z" fill="#F0F0F0"/>
<path d="M98.4689 26.6045H81.0983V58.6628H98.4689V26.6045Z" fill="#3895FF"/>
<path d="M97.357 28.0098H90.8256V35.9301H97.357V28.0098Z" fill="#F0F0F0"/>
<path d="M88.7415 28.0098H82.2101V35.9301H88.7415V28.0098Z" fill="#F0F0F0"/>
<path d="M97.357 38.2283H90.8256V46.1486H97.357V38.2283Z" fill="#F0F0F0"/>
<path d="M88.7415 38.2283H82.2101V46.1486H88.7415V38.2283Z" fill="#F0F0F0"/>
<path d="M97.357 48.4456H90.8256V56.3659H97.357V48.4456Z" fill="#F0F0F0"/>
<path d="M88.7415 48.4453H82.2101V56.3657H88.7415V48.4453Z" fill="#F0F0F0"/>
<path d="M98.9527 58.9338H80.6146V99.0242H98.9527V58.9338Z" fill="#00418C"/>
<path d="M95.431 63.3867H97.7789V60.4185H95.431V63.3867Z" fill="#FAFAFA"/>
<path d="M90.8833 63.3867H93.2312V60.4185H90.8833V63.3867Z" fill="#FAFAFA"/>
<path d="M86.3363 63.3867H88.6842V60.4185H86.3363V63.3867Z" fill="#FAFAFA"/>
<path d="M81.7886 63.3867H84.1365V60.4185H81.7886V63.3867Z" fill="#FAFAFA"/>
<path d="M95.431 68.78H97.7789V65.8118H95.431V68.78Z" fill="#FAFAFA"/>
<path d="M90.8833 68.78H93.2312V65.8118H90.8833V68.78Z" fill="#FAFAFA"/>
<path d="M86.3363 68.78H88.6842V65.8118H86.3363V68.78Z" fill="#FAFAFA"/>
<path d="M81.7886 68.78H84.1365V65.8118H81.7886V68.78Z" fill="#FAFAFA"/>
<path d="M99.3317 58.3591H80.2363V58.9646H99.3317V58.3591Z" fill="#F5F5F5"/>
<path d="M123.737 51.3682H101.937V99.0252H123.737V51.3682Z" fill="#00418C"/>
<path d="M119.55 56.6604H122.341V53.1319H119.55V56.6604Z" fill="#FAFAFA"/>
<path d="M114.145 56.6604H116.936V53.1319H114.145V56.6604Z" fill="#FAFAFA"/>
<path d="M108.739 56.6604H111.53V53.1319H108.739V56.6604Z" fill="#FAFAFA"/>
<path d="M103.333 56.6604H106.124V53.1319H103.333V56.6604Z" fill="#FAFAFA"/>
<path d="M119.55 63.073H122.341V59.5442H119.55V63.073Z" fill="#FAFAFA"/>
<path d="M114.145 63.073H116.936V59.5442H114.145V63.073Z" fill="#FAFAFA"/>
<path d="M108.739 63.073H111.53V59.5442H108.739V63.073Z" fill="#FAFAFA"/>
<path d="M103.333 63.073H106.124V59.5442H103.333V63.073Z" fill="#FAFAFA"/>
<path d="M119.55 69.4844H122.341V65.9559H119.55V69.4844Z" fill="#FAFAFA"/>
<path d="M114.145 69.4844H116.936V65.9559H114.145V69.4844Z" fill="#FAFAFA"/>
<path d="M108.739 69.4844H111.53V65.9559H108.739V69.4844Z" fill="#FAFAFA"/>
<path d="M103.333 69.4844H106.124V65.9559H103.333V69.4844Z" fill="#FAFAFA"/>
<path d="M124.187 50.6851H101.487V51.4047H124.187V50.6851Z" fill="#F5F5F5"/>
<path d="M59.9277 42.9822V35.2805H59.3065V42.9822H59.9277Z" fill="#00418C"/>
<path d="M73.9623 42.9822V35.2805H73.3411V42.9822H73.9623Z" fill="#00418C"/>
<path d="M66.9449 42.9822V35.2805H66.3237V42.9822H66.9449Z" fill="#00418C"/>
<path d="M74.5848 42.1965H58.684V42.982H74.5848V42.1965Z" fill="#F5F5F5"/>
<path d="M74.5848 34.8884H58.684V35.6739H74.5848V34.8884Z" fill="#F5F5F5"/>
<path d="M59.9277 35.6741V27.9724H59.3065V35.6741H59.9277Z" fill="#00418C"/>
<path d="M73.9623 35.6741V27.9724H73.3411V35.6741H73.9623Z" fill="#00418C"/>
<path d="M66.9449 35.6741V27.9724H66.3237V35.6741H66.9449Z" fill="#00418C"/>
<path d="M74.5848 27.5789H58.684V28.3643H74.5848V27.5789Z" fill="#F5F5F5"/>
<path d="M74.5846 42.9211H55.2174V78.6642H74.5846V42.9211Z" fill="#FAFAFA"/>
<path d="M73.3447 44.4888H66.0625V53.3197H73.3447V44.4888Z" fill="#F0F0F0"/>
<path d="M63.7397 44.4888H56.4575V53.3197H63.7397V44.4888Z" fill="#F0F0F0"/>
<path d="M73.3447 55.8811H66.0625V64.712H73.3447V55.8811Z" fill="#F0F0F0"/>
<path d="M63.7397 55.8811H56.4575V64.712H63.7397V55.8811Z" fill="#F0F0F0"/>
<path d="M73.3447 67.2725H66.0625V76.1033H73.3447V67.2725Z" fill="#F0F0F0"/>
<path d="M63.7397 67.2725H56.4575V76.1033H63.7397V67.2725Z" fill="#F0F0F0"/>
<path d="M33.3917 58.9351H15.0536V99.0254H33.3917V58.9351Z" fill="#00418C"/>
<path d="M29.8706 63.3865H32.2185V60.4182H29.8706V63.3865Z" fill="#FAFAFA"/>
<path d="M25.3229 63.3865H27.6708V60.4182H25.3229V63.3865Z" fill="#FAFAFA"/>
<path d="M20.7753 63.3865H23.1232V60.4182H20.7753V63.3865Z" fill="#FAFAFA"/>
<path d="M16.2276 63.3865H18.5754V60.4182H16.2276V63.3865Z" fill="#FAFAFA"/>
<path d="M29.87 68.7812H32.2179V65.813H29.87V68.7812Z" fill="#FAFAFA"/>
<path d="M25.3223 68.7812H27.6702V65.813H25.3223V68.7812Z" fill="#FAFAFA"/>
<path d="M20.7747 68.7812H23.1226V65.813H20.7747V68.7812Z" fill="#FAFAFA"/>
<path d="M16.2276 68.7812H18.5754V65.813H16.2276V68.7812Z" fill="#FAFAFA"/>
<path d="M33.7706 58.3591H14.6752V58.9646H33.7706V58.3591Z" fill="#F5F5F5"/>
<path d="M30.7736 29.8633H17.6719V58.5057H30.7736V29.8633Z" fill="#00418C"/>
<path d="M28.2577 33.0432H29.9352V30.9224H28.2577V33.0432Z" fill="#FAFAFA"/>
<path d="M25.0082 33.0435H26.6857V30.9227H25.0082V33.0435Z" fill="#FAFAFA"/>
<path d="M21.7598 33.0435H23.4373V30.9227H21.7598V33.0435Z" fill="#FAFAFA"/>
<path d="M18.5106 33.0432H20.1881V30.9224H18.5106V33.0432Z" fill="#FAFAFA"/>
<path d="M28.2578 36.8979H29.9353V34.7772H28.2578V36.8979Z" fill="#FAFAFA"/>
<path d="M25.0082 36.8979H26.6857V34.7772H25.0082V36.8979Z" fill="#FAFAFA"/>
<path d="M21.7592 36.8979H23.4366V34.7772H21.7592V36.8979Z" fill="#FAFAFA"/>
<path d="M18.5106 36.8979H20.1881V34.7772H18.5106V36.8979Z" fill="#FAFAFA"/>
<path d="M28.2571 40.75H29.9346V38.6292H28.2571V40.75Z" fill="#FAFAFA"/>
<path d="M25.0082 40.75H26.6857V38.6292H25.0082V40.75Z" fill="#FAFAFA"/>
<path d="M21.7592 40.75H23.4366V38.6292H21.7592V40.75Z" fill="#FAFAFA"/>
<path d="M18.5106 40.75H20.1881V38.6292H18.5106V40.75Z" fill="#FAFAFA"/>
<path d="M28.2578 44.6033H29.9353V42.4825H28.2578V44.6033Z" fill="#FAFAFA"/>
<path d="M25.0082 44.6033H26.6857V42.4825H25.0082V44.6033Z" fill="#FAFAFA"/>
<path d="M21.7592 44.6033H23.4366V42.4825H21.7592V44.6033Z" fill="#FAFAFA"/>
<path d="M18.5106 44.6033H20.1881V42.4825H18.5106V44.6033Z" fill="#FAFAFA"/>
<path d="M28.2578 48.4565H29.9353V46.3358H28.2578V48.4565Z" fill="#FAFAFA"/>
<path d="M25.0082 48.4565H26.6857V46.3358H25.0082V48.4565Z" fill="#FAFAFA"/>
<path d="M21.7592 48.4565H23.4366V46.3358H21.7592V48.4565Z" fill="#FAFAFA"/>
<path d="M18.5106 48.4565H20.1881V46.3358H18.5106V48.4565Z" fill="#FAFAFA"/>
<path d="M28.2571 52.3101H29.9346V50.1893H28.2571V52.3101Z" fill="#FAFAFA"/>
<path d="M25.0082 52.3101H26.6857V50.1893H25.0082V52.3101Z" fill="#FAFAFA"/>
<path d="M21.7592 52.3101H23.4366V50.1893H21.7592V52.3101Z" fill="#FAFAFA"/>
<path d="M18.5106 52.3101H20.1881V50.1893H18.5106V52.3101Z" fill="#FAFAFA"/>
<path d="M28.2571 56.1633H29.9346V54.0426H28.2571V56.1633Z" fill="#FAFAFA"/>
<path d="M25.0082 56.1633H26.6857V54.0426H25.0082V56.1633Z" fill="#FAFAFA"/>
<path d="M21.7592 56.1633H23.4366V54.0426H21.7592V56.1633Z" fill="#FAFAFA"/>
<path d="M18.5106 56.1633H20.1881V54.0426H18.5106V56.1633Z" fill="#FAFAFA"/>
<path d="M31.0441 29.4524H17.4015V29.885H31.0441V29.4524Z" fill="#F5F5F5"/>
<path d="M58.2647 51.3669H36.4652V99.024H58.2647V51.3669Z" fill="#00418C"/>
<path d="M54.0785 44.707V51.3669H52.3593H42.3705H40.6516V44.707H54.0785Z" fill="#00418C"/>
<path d="M54.0783 56.6592H56.8693V53.1307H54.0783V56.6592Z" fill="#FAFAFA"/>
<path d="M48.672 56.6592H51.463V53.1307H48.672V56.6592Z" fill="#FAFAFA"/>
<path d="M43.2663 56.6592H46.0573V53.1307H43.2663V56.6592Z" fill="#FAFAFA"/>
<path d="M37.8606 56.6592H40.6516V53.1307H37.8606V56.6592Z" fill="#FAFAFA"/>
<path d="M54.0778 63.0718H56.8688V59.543H54.0778V63.0718Z" fill="#FAFAFA"/>
<path d="M48.672 63.0715H51.463V59.5427H48.672V63.0715Z" fill="#FAFAFA"/>
<path d="M43.2663 63.0715H46.0573V59.5427H43.2663V63.0715Z" fill="#FAFAFA"/>
<path d="M37.8606 63.0718H40.6516V59.543H37.8606V63.0718Z" fill="#FAFAFA"/>
<path d="M54.0783 69.4832H56.8693V65.9547H54.0783V69.4832Z" fill="#FAFAFA"/>
<path d="M48.672 69.4832H51.463V65.9547H48.672V69.4832Z" fill="#FAFAFA"/>
<path d="M43.2663 69.4832H46.0573V65.9547H43.2663V69.4832Z" fill="#FAFAFA"/>
<path d="M48.672 51.1184H51.463V47.5899H48.672V51.1184Z" fill="#FAFAFA"/>
<path d="M43.2663 51.1184H46.0573V47.5899H43.2663V51.1184Z" fill="#FAFAFA"/>
<path d="M37.8606 69.4832H40.6516V65.9547H37.8606V69.4832Z" fill="#FAFAFA"/>
<path d="M58.7142 50.6836H36.0148V51.4032H58.7142V50.6836Z" fill="#F5F5F5"/>
<path d="M41.2201 44.7056V37.6499H40.6509V44.7056H41.2201Z" fill="#00418C"/>
<path d="M54.0774 44.7056V37.6499H53.5082V44.7056H54.0774Z" fill="#00418C"/>
<path d="M47.6492 44.7056V37.6499H47.08V44.7056H47.6492Z" fill="#00418C"/>
<path d="M54.6476 43.9875H40.0804V44.7072H54.6476V43.9875Z" fill="#F5F5F5"/>
<path d="M54.6476 37.2903H40.0804V38.0099H54.6476V37.2903Z" fill="#F5F5F5"/>
<path d="M41.2196 38.0108V30.9551H40.6504V38.0108H41.2196Z" fill="#00418C"/>
<path d="M54.0774 38.0096V30.9539H53.5082V38.0096H54.0774Z" fill="#00418C"/>
<path d="M47.6492 38.0108V30.9551H47.0799V38.0108H47.6492Z" fill="#00418C"/>
<path d="M54.6476 30.594H40.0804V31.3136H54.6476V30.594Z" fill="#F5F5F5"/>
<path d="M41.2203 31.3148V24.259H40.6511V31.3148H41.2203Z" fill="#00418C"/>
<path d="M54.0776 31.3148V24.259H53.5084V31.3148H54.0776Z" fill="#00418C"/>
<path d="M47.6492 31.3148V24.259H47.0799V31.3148H47.6492Z" fill="#00418C"/>
<path d="M54.6476 23.8979H40.0804V24.6176H54.6476V23.8979Z" fill="#F5F5F5"/>
<path d="M54.0776 24.6185V17.5627H53.5084V24.6185H54.0776Z" fill="#00418C"/>
<path d="M47.6486 24.6185V17.5627H47.0793V24.6185H47.6486Z" fill="#00418C"/>
<path d="M83.9835 9.64622C83.9835 9.64622 104.915 12.0128 102.828 6.09809C101.225 1.55242 98.2374 5.79365 96.7988 5.3005C95.5408 4.86942 96.0293 1.68062 92.5932 2.03902C89.157 2.39742 90.4237 5.77431 89.3257 6.66891C88.14 7.63494 83.8555 5.3005 83.9835 9.64622Z" fill="#F5F5F5"/>
<path d="M97.0407 10.7694C97.0407 10.7694 107.307 11.93 106.283 9.02913C105.497 6.7995 104.032 8.87972 103.326 8.63798C102.709 8.42649 102.949 6.8625 101.263 7.03843C99.5782 7.21435 100.199 8.87067 99.661 9.30924C99.0794 9.78305 96.9778 8.63798 97.0407 10.7694Z" fill="#FAFAFA"/>
<path d="M125.755 9.04548C125.755 9.04548 136.021 10.2061 134.998 7.30525C134.211 5.07562 132.746 7.15584 132.04 6.9141C131.423 6.70262 131.663 5.13863 129.978 5.31455C128.293 5.49048 128.914 7.14648 128.375 7.58536C127.794 8.05886 125.692 6.9141 125.755 9.04548Z" fill="#F5F5F5"/>
<path d="M21.9633 10.8194C21.9633 10.8194 41.2766 13.2736 42.8015 8.67241C44.2514 4.29798 41.4133 7.55603 37.8591 7.40007C36.4423 7.338 37.592 3.16945 33.9854 3.24867C30.4583 3.32603 31.4171 7.32053 29.9782 7.40007C29.243 7.44062 29.5886 5.71693 27.4403 5.90377C25.1099 6.10652 25.7383 8.58725 24.9022 9.20767C24.2293 9.70737 21.7786 8.4812 21.9633 10.8194Z" fill="#F5F5F5"/>
<path d="M14.3461 14.4529C14.3461 14.4529 33.6595 16.9071 35.1846 12.306C36.6345 7.93153 33.7965 11.1896 30.2423 11.0336C28.8254 10.9715 29.9751 6.80299 26.3686 6.88222C22.8414 6.95926 23.8002 10.9541 22.3613 11.0336C21.6261 11.0742 21.9717 9.35047 19.8231 9.53732C17.4924 9.74007 18.1211 12.2208 17.285 12.8412C16.6121 13.3409 14.1614 12.1147 14.3461 14.4529Z" fill="#FAFAFA"/>
<path d="M19.4323 59.0098H39.1592V57.9311H19.4323V59.0098Z" fill="#005BC3"/>
<path opacity="0.2" d="M19.4323 59.0098H39.1592V57.9311H19.4323V59.0098Z" fill="white"/>
<path d="M18.7623 57.9319H39.8291V56.8533H18.7623V57.9319Z" fill="#005BC3"/>
<path opacity="0.4" d="M18.7623 57.9319H39.8291V56.8533H18.7623V57.9319Z" fill="white"/>
<path d="M20.2073 107.299H38.3834L38.3834 59.0097H20.2073L20.2073 107.299Z" fill="#005BC3"/>
<path opacity="0.5" d="M20.2073 107.299H38.3834L38.3834 59.0097H20.2073L20.2073 107.299Z" fill="white"/>
<path opacity="0.2" d="M32.6286 107.299H38.3834L38.3834 59.0097H32.6286L32.6286 107.299Z" fill="black"/>
<path opacity="0.2" d="M32.6022 59.0098H39.1592V57.9311H32.6022V59.0098Z" fill="black"/>
<path opacity="0.2" d="M32.6024 57.9319H39.8291V56.8533H32.6024V57.9319Z" fill="black"/>
<path d="M29.0034 65.8623H31.4403V60.4205H29.0034V65.8623Z" fill="#005BC3"/>
<path d="M25.1995 65.8623H27.6365V60.4205H25.1995V65.8623Z" fill="#005BC3"/>
<path d="M21.3966 65.8623H23.8335V60.4205H21.3966V65.8623Z" fill="#005BC3"/>
<path d="M29.0034 72.4209H31.4403V66.9791H29.0034V72.4209Z" fill="#005BC3"/>
<path d="M25.1995 72.4209H27.6365V66.9791H25.1995V72.4209Z" fill="#005BC3"/>
<path d="M21.3966 72.4209H23.8335V66.9791H21.3966V72.4209Z" fill="#005BC3"/>
<g opacity="0.2">
<path d="M29.0034 65.8623H31.4403V60.4205H29.0034V65.8623Z" fill="white"/>
<path d="M25.1995 65.8623H27.6365V60.4205H25.1995V65.8623Z" fill="white"/>
<path d="M21.3966 65.8623H23.8335V60.4205H21.3966V65.8623Z" fill="white"/>
<path d="M29.0034 72.4209H31.4403V66.9791H29.0034V72.4209Z" fill="white"/>
<path d="M25.1995 72.4209H27.6365V66.9791H25.1995V72.4209Z" fill="white"/>
<path d="M21.3966 72.4209H23.8335V66.9791H21.3966V72.4209Z" fill="white"/>
</g>
<g opacity="0.8">
<path d="M29.4477 65.4175H30.996V60.8659H29.4477V65.4175Z" fill="white"/>
<path d="M25.6439 65.4175H27.1921V60.8659H25.6439V65.4175Z" fill="white"/>
<path d="M21.8409 65.4175H23.3892V60.8659H21.8409V65.4175Z" fill="white"/>
<path d="M29.4477 71.9749H30.996V67.4233H29.4477V71.9749Z" fill="white"/>
<path d="M25.6439 71.9749H27.1921V67.4233H25.6439V71.9749Z" fill="white"/>
<path d="M21.8409 71.9749H23.3892V67.4233H21.8409V71.9749Z" fill="white"/>
</g>
<path d="M28.6297 66.2292H31.8143V65.8552H28.6297V66.2292Z" fill="#005BC3"/>
<path d="M24.8262 66.2292H28.0107V65.8552H24.8262V66.2292Z" fill="#005BC3"/>
<path d="M21.0229 66.2292H24.2075V65.8552H21.0229V66.2292Z" fill="#005BC3"/>
<path opacity="0.3" d="M37.1098 68.6687H38.384V67.9566H37.1098V68.6687Z" fill="black"/>
<path opacity="0.3" d="M35.2435 68.6687H36.5177V67.9566H35.2435V68.6687Z" fill="black"/>
<path opacity="0.3" d="M35.5395 63.3267H36.8137V62.6145H35.5395V63.3267Z" fill="black"/>
<path opacity="0.3" d="M34.3105 64.7144H35.5847V64.0022H34.3105V64.7144Z" fill="black"/>
<path opacity="0.3" d="M34.3114 61.8613H35.5856V61.1492H34.3114V61.8613Z" fill="black"/>
<path opacity="0.3" d="M33.6738 63.3267H34.948V62.6145H33.6738V63.3267Z" fill="black"/>
<path d="M132.878 53.7961H118.479V64.6561H132.878V53.7961Z" fill="#005BC3"/>
<g opacity="0.7">
<path d="M132.878 53.7961H118.479V64.6561H132.878V53.7961Z" fill="white"/>
</g>
<path d="M132.878 64.6355H118.479V75.4958H132.878V64.6355Z" fill="#005BC3"/>
<g opacity="0.2">
<path d="M132.878 64.6355H118.479V75.4958H132.878V64.6355Z" fill="white"/>
</g>
<path opacity="0.1" d="M123.412 64.637H118.479V75.4972H123.412V64.637Z" fill="black"/>
<path opacity="0.1" d="M123.412 53.7961H118.479V64.6561H123.412V53.7961Z" fill="black"/>
<path d="M128.282 55.5601H124.933V63.1005H128.282V55.5601Z" fill="#005BC3"/>
<path opacity="0.2" d="M128.282 55.5601H124.933V63.1005H128.282V55.5601Z" fill="black"/>
<path d="M131.632 55.5601H128.282V63.1005H131.632V55.5601Z" fill="#005BC3"/>
<path d="M132.164 55.1104H124.51V55.5601H132.164V55.1104Z" fill="#005BC3"/>
<path opacity="0.2" d="M132.164 55.1104H124.51V55.5601H132.164V55.1104Z" fill="white"/>
<path opacity="0.4" d="M128.01 56.9718L125.094 60.712V60.4544L128.01 56.7141V56.9718Z" fill="white"/>
<path opacity="0.4" d="M128.01 58.0018L125.094 61.742V61.2913L128.01 57.551V58.0018Z" fill="white"/>
<path opacity="0.4" d="M128.01 58.8376L125.094 62.5778V62.0008L128.01 58.2605V58.8376Z" fill="white"/>
<path opacity="0.4" d="M131.415 56.2623L128.499 60.0026V59.7449L131.415 56.0046V56.2623Z" fill="white"/>
<path opacity="0.4" d="M131.415 59.1551L128.499 62.8954V62.6377L131.415 58.8975V59.1551Z" fill="white"/>
<path opacity="0.4" d="M128.499 60.5818L131.415 56.8416V58.1289L128.499 61.8688V60.5818Z" fill="white"/>
<path opacity="0.2" d="M125.678 55.1104H124.51V55.5601H125.678V55.1104Z" fill="black"/>
<path d="M132.164 63.1006H124.51V63.5504H132.164V63.1006Z" fill="#005BC3"/>
<path opacity="0.2" d="M132.164 63.1006H124.51V63.5504H132.164V63.1006Z" fill="white"/>
<path opacity="0.2" d="M125.679 63.1006H124.51V63.5504H125.679V63.1006Z" fill="black"/>
<path d="M128.282 66.4268H124.933V73.9672H128.282V66.4268Z" fill="#005BC3"/>
<path opacity="0.2" d="M128.282 66.4268H124.933V73.9672H128.282V66.4268Z" fill="black"/>
<path d="M131.632 66.4268H128.282V73.9672H131.632V66.4268Z" fill="#005BC3"/>
<path d="M132.164 65.9771H124.51V66.4269H132.164V65.9771Z" fill="#005BC3"/>
<path opacity="0.2" d="M132.164 65.9771H124.51V66.4269H132.164V65.9771Z" fill="white"/>
<path opacity="0.4" d="M128.01 67.8382L125.094 71.5784V71.3208L128.01 67.5808V67.8382Z" fill="white"/>
<path opacity="0.4" d="M131.415 67.129L128.499 70.8693V70.6116L131.415 66.8713V67.129Z" fill="white"/>
<path opacity="0.4" d="M128.499 71.4482L131.415 67.7083V68.9953L128.499 72.7355V71.4482Z" fill="white"/>
<path opacity="0.2" d="M125.678 65.9771H124.51V66.4269H125.678V65.9771Z" fill="black"/>
<path d="M72.2788 33.1137H77.6282H83.4017H89.1752V15.6316L72.2788 33.1137Z" fill="#005BC3"/>
<path d="M89.1749 33.1133H72.2782V108.017H89.1749V33.1133Z" fill="#005BC3"/>
<path opacity="0.2" d="M89.1749 33.1133H72.2782V108.017H89.1749V33.1133Z" fill="white"/>
<path opacity="0.2" d="M77.6279 33.1133H72.2782V108.017H77.6279V33.1133Z" fill="black"/>
<path d="M80.998 35.6077H78.7327V107.504H80.998V35.6077Z" fill="#005BC3"/>
<path d="M76.0858 35.6077H73.8204V107.504H76.0858V35.6077Z" fill="#005BC3"/>
<path d="M84.5337 35.6077H82.2683V107.504H84.5337V35.6077Z" fill="#005BC3"/>
<path d="M88.0699 35.6077H85.8046V107.504H88.0699V35.6077Z" fill="#005BC3"/>
<g opacity="0.2">
<path d="M80.998 35.6077H78.7327V107.504H80.998V35.6077Z" fill="black"/>
<path d="M76.0858 35.6077H73.8204V107.504H76.0858V35.6077Z" fill="black"/>
<path d="M84.5337 35.6077H82.2683V107.504H84.5337V35.6077Z" fill="black"/>
<path d="M88.0699 35.6077H85.8046V107.504H88.0699V35.6077Z" fill="black"/>
</g>
<path opacity="0.2" d="M89.1754 33.1137H77.6284L89.1754 15.6316V33.1137Z" fill="black"/>
<path opacity="0.4" d="M77.6284 33.1137H83.4019L89.1754 15.6316L77.6284 33.1137Z" fill="white"/>
<path d="M90.0856 42.5398H77.6284V43.5676H90.0856V42.5398Z" fill="#005BC3"/>
<path opacity="0.4" d="M90.0856 42.5398H77.6284V43.5676H90.0856V42.5398Z" fill="white"/>
<path opacity="0.1" d="M79.3532 42.5398H77.6284V43.5676H79.3532V42.5398Z" fill="black"/>
<path d="M71.1402 43.5679H76.0857V42.5401H71.1402V43.5679Z" fill="#005BC3"/>
<path opacity="0.4" d="M71.1402 43.5679H76.0857V42.5401H71.1402V43.5679Z" fill="white"/>
<path opacity="0.1" d="M75.4009 43.5679H76.0857V42.5401H75.4009V43.5679Z" fill="black"/>
<path d="M90.0857 51.6941H77.6285V52.7219H90.0857V51.6941Z" fill="#005BC3"/>
<path opacity="0.4" d="M90.086 51.6941H77.6288V52.7219H90.086V51.6941Z" fill="white"/>
<path opacity="0.1" d="M79.3536 51.6941H77.6288V52.7219H79.3536V51.6941Z" fill="black"/>
<path d="M71.1402 52.7222H76.0857V51.6944H71.1402V52.7222Z" fill="#005BC3"/>
<path opacity="0.4" d="M71.1402 52.7222H76.0857V51.6944H71.1402V52.7222Z" fill="white"/>
<path opacity="0.1" d="M75.4009 52.7222H76.0857V51.6944H75.4009V52.7222Z" fill="black"/>
<path d="M90.0857 60.8496H77.6285V61.8774H90.0857V60.8496Z" fill="#005BC3"/>
<path opacity="0.4" d="M90.0857 60.8496H77.6285V61.8774H90.0857V60.8496Z" fill="white"/>
<path opacity="0.1" d="M79.3533 60.8496H77.6285V61.8774H79.3533V60.8496Z" fill="black"/>
<path d="M71.1402 61.8774H76.0857V60.8496H71.1402V61.8774Z" fill="#005BC3"/>
<path opacity="0.4" d="M71.1402 61.8774H76.0857V60.8496H71.1402V61.8774Z" fill="white"/>
<path opacity="0.1" d="M75.4009 61.8774H76.0857V60.8496H75.4009V61.8774Z" fill="black"/>
<path d="M76.5949 48.9214H59.6982V88.3105H76.5949V48.9214Z" fill="#005BC3"/>
<path opacity="0.6" d="M76.5949 48.9214H59.6982V88.3105H76.5949V48.9214Z" fill="white"/>
<path opacity="0.2" d="M65.0479 48.9214H59.6982V88.3105H65.0479V48.9214Z" fill="black"/>
<path d="M68.4181 50.2317H66.1527V88.0397H68.4181V50.2317Z" fill="#005BC3"/>
<path d="M71.9537 50.2317H69.6884V88.0397H71.9537V50.2317Z" fill="#005BC3"/>
<path d="M75.4895 50.2317H73.2241V88.0397H75.4895V50.2317Z" fill="#005BC3"/>
<path d="M77.5056 58.6926H66.7732V59.2332H77.5056V58.6926Z" fill="#005BC3"/>
<path d="M77.5056 58.6926H65.0485V59.2332H77.5056V58.6926Z" fill="#005BC3"/>
<path opacity="0.5" d="M77.5056 58.6926H65.0485V59.2332H77.5056V58.6926Z" fill="white"/>
<path opacity="0.1" d="M66.7729 58.6926H65.0485V59.2332H66.7729V58.6926Z" fill="black"/>
<path d="M60.9191 22.4016H47.7831V32.4624H60.9191V22.4016Z" fill="#005BC3"/>
<path opacity="0.3" d="M60.9191 22.4016H47.7831V32.4624H60.9191V22.4016Z" fill="white"/>
<path opacity="0.2" d="M51.3666 22.4016H47.7831V32.4624H51.3666V22.4016Z" fill="black"/>
<path d="M62.6428 32.4626H45.7461V107.996H62.6428V32.4626Z" fill="#005BC3"/>
<path opacity="0.3" d="M62.6428 32.4626H45.7461V107.996H62.6428V32.4626Z" fill="white"/>
<path opacity="0.2" d="M51.0958 32.4626H45.7461V107.996H51.0958V32.4626Z" fill="black"/>
<path d="M52.8979 31.3816V22.4016H51.3668V31.3816H52.8979Z" fill="#005BC3"/>
<path d="M55.9595 31.3816V22.4016H54.4284V31.3816H55.9595Z" fill="#005BC3"/>
<path d="M49.3141 31.3816V22.4016H47.783V31.3816H49.3141Z" fill="#005BC3"/>
<path d="M59.0214 31.3816V22.4016H57.4903V31.3816H59.0214Z" fill="#005BC3"/>
<path d="M51.0959 66.2019H45.7462V67.7356H51.0959V66.2019Z" fill="#005BC3"/>
<path d="M51.0959 63.1343H45.7462V64.668H51.0959V63.1343Z" fill="#005BC3"/>
<path d="M51.0959 60.0679H45.7462V61.6016H51.0959V60.0679Z" fill="#005BC3"/>
<path d="M51.0959 57.0002H45.7462V58.534H51.0959V57.0002Z" fill="#005BC3"/>
<path d="M51.0959 53.9338H45.7462V55.4676H51.0959V53.9338Z" fill="#005BC3"/>
<path d="M51.0959 50.8662H45.7462V52.3999H51.0959V50.8662Z" fill="#005BC3"/>
<path d="M51.0959 47.7983H45.7462V49.3321H51.0959V47.7983Z" fill="#005BC3"/>
<path d="M51.0959 44.7307H45.7462V46.2644H51.0959V44.7307Z" fill="#005BC3"/>
<path d="M51.0959 41.6643H45.7462V43.198H51.0959V41.6643Z" fill="#005BC3"/>
<path d="M51.0959 38.5969H45.7462V40.1307H51.0959V38.5969Z" fill="#005BC3"/>
<path d="M51.0959 35.5303H45.7462V37.064H51.0959V35.5303Z" fill="#005BC3"/>
<path d="M51.0958 32.4626H45.7461V33.9964H51.0958V32.4626Z" fill="#005BC3"/>
<path d="M62.6433 32.4626H51.0963V33.9964H62.6433V32.4626Z" fill="#005BC3"/>
<path d="M62.6427 35.5291H51.0957V37.0628H62.6427V35.5291Z" fill="#005BC3"/>
<path d="M62.6433 38.5967H51.0963V40.1304H62.6433V38.5967Z" fill="#005BC3"/>
<path d="M62.6433 41.6631H51.0963V43.1968H62.6433V41.6631Z" fill="#005BC3"/>
<path d="M62.6433 44.7319H51.0963V46.2657H62.6433V44.7319Z" fill="#005BC3"/>
<path d="M62.6427 47.7983H51.0957V49.3321H62.6427V47.7983Z" fill="#005BC3"/>
<path d="M62.6433 50.8662H51.0963V52.3999H62.6433V50.8662Z" fill="#005BC3"/>
<path d="M62.6427 53.9324H51.0957V55.4661H62.6427V53.9324Z" fill="#005BC3"/>
<path d="M62.6433 57.0002H51.0963V58.534H62.6433V57.0002Z" fill="#005BC3"/>
<path d="M62.6427 60.0664H51.0957V61.6001H62.6427V60.0664Z" fill="#005BC3"/>
<path d="M62.6433 63.1343H51.0963V64.668H62.6433V63.1343Z" fill="#005BC3"/>
<path d="M62.6433 66.2004H51.0963V67.7342H62.6433V66.2004Z" fill="#005BC3"/>
<path d="M56.8408 59.5569H38.2009V108.018H56.8408V59.5569Z" fill="#005BC3"/>
<path opacity="0.7" d="M56.8408 59.5569H38.2009V108.018H56.8408V59.5569Z" fill="white"/>
<path opacity="0.2" d="M44.1024 59.5569H38.2009V108.018H44.1024V59.5569Z" fill="black"/>
<path d="M48.1804 61.729H47.4144C46.5027 61.729 45.7606 62.4723 45.7606 63.3856V69.276H49.8342V63.3856C49.8342 62.4723 49.0925 61.729 48.1804 61.729Z" fill="#005BC3"/>
<path d="M53.7918 61.729H53.0257C52.114 61.729 51.3719 62.4723 51.3719 63.3856V69.276H55.4456V63.3856C55.4456 62.4723 54.7035 61.729 53.7918 61.729Z" fill="#005BC3"/>
<path d="M41.5347 61.729H40.7687C39.8569 61.729 39.1149 62.4723 39.1149 63.3856V69.276H43.1885V63.3856C43.1885 62.4723 42.4464 61.729 41.5347 61.729Z" fill="#005BC3"/>
<g opacity="0.2">
<path d="M48.1804 61.729H47.4144C46.5027 61.729 45.7606 62.4723 45.7606 63.3856V69.276H49.8342V63.3856C49.8342 62.4723 49.0925 61.729 48.1804 61.729Z" fill="white"/>
<path d="M53.7918 61.729H53.0257C52.114 61.729 51.3719 62.4723 51.3719 63.3856V69.276H55.4456V63.3856C55.4456 62.4723 54.7035 61.729 53.7918 61.729Z" fill="white"/>
<path d="M41.5347 61.729H40.7687C39.8569 61.729 39.1149 62.4723 39.1149 63.3856V69.276H43.1885V63.3856C43.1885 62.4723 42.4464 61.729 41.5347 61.729Z" fill="white"/>
</g>
<g opacity="0.7">
<path opacity="0.8" d="M49.1334 63.3857V64.1555H47.9944V62.4321H48.1818C48.7065 62.4324 49.1334 62.8601 49.1334 63.3857Z" fill="white"/>
<path opacity="0.8" d="M49.1334 64.5469H47.9944V66.3002H49.1334V64.5469Z" fill="white"/>
<path opacity="0.8" d="M47.6031 64.5469H46.464V66.3002H47.6031V64.5469Z" fill="white"/>
<path opacity="0.8" d="M47.4155 62.4338H47.6029V64.1572H46.4639V63.3874C46.4639 62.8615 46.8908 62.4338 47.4155 62.4338Z" fill="white"/>
<path opacity="0.8" d="M47.6031 66.6938H46.464V68.5738H47.6031V66.6938Z" fill="white"/>
<path opacity="0.8" d="M49.1334 66.6938H47.9944V68.5738H49.1334V66.6938Z" fill="white"/>
<path opacity="0.8" d="M54.7454 63.3857V64.1555H53.6063V62.4321H53.7938C54.3185 62.4324 54.7454 62.8601 54.7454 63.3857Z" fill="white"/>
<path opacity="0.8" d="M54.7454 64.5469H53.6063V66.3002H54.7454V64.5469Z" fill="white"/>
<path opacity="0.8" d="M53.2144 64.5469H52.0753V66.3002H53.2144V64.5469Z" fill="white"/>
<path opacity="0.8" d="M53.027 62.4321H53.2145V64.1555H52.0754V63.3857C52.0754 62.8598 52.5024 62.4321 53.027 62.4321Z" fill="white"/>
<path opacity="0.8" d="M53.2144 66.6938H52.0753V68.5738H53.2144V66.6938Z" fill="white"/>
<path opacity="0.8" d="M54.7454 66.6938H53.6063V68.5738H54.7454V66.6938Z" fill="white"/>
<path opacity="0.8" d="M42.4868 63.3857V64.1555H41.3478V62.4321H41.5352C42.0599 62.4324 42.4868 62.8601 42.4868 63.3857Z" fill="white"/>
<path opacity="0.8" d="M42.4868 64.5469H41.3478V66.3002H42.4868V64.5469Z" fill="white"/>
<path opacity="0.8" d="M40.9563 64.5469H39.8173V66.3002H40.9563V64.5469Z" fill="white"/>
<path opacity="0.8" d="M40.7689 62.4338H40.9563V64.1572H39.8173V63.3874C39.8173 62.8615 40.2442 62.4338 40.7689 62.4338Z" fill="white"/>
<path opacity="0.8" d="M40.9563 66.6938H39.8173V68.5738H40.9563V66.6938Z" fill="white"/>
<path opacity="0.8" d="M42.4868 66.6938H41.3478V68.5738H42.4868V66.6938Z" fill="white"/>
</g>
<path d="M117.501 28.0835H103.251V33.1139H117.501V28.0835Z" fill="#005BC3"/>
<path opacity="0.5" d="M117.501 28.0835H103.251V33.1139H117.501V28.0835Z" fill="white"/>
<path d="M115.091 24.7549H105.661V28.0837H115.091V24.7549Z" fill="#005BC3"/>
<path opacity="0.4" d="M115.091 24.7549H105.661V28.0837H115.091V24.7549Z" fill="white"/>
<path d="M113.36 22.6477H107.391V24.7548H113.36V22.6477Z" fill="#005BC3"/>
<path opacity="0.3" d="M113.36 22.6477H107.391V24.7548H113.36V22.6477Z" fill="white"/>
<path d="M111.923 21.5935H108.829V22.6859H111.923V21.5935Z" fill="#005BC3"/>
<path opacity="0.2" d="M111.923 21.5935H108.829V22.6859H111.923V21.5935Z" fill="white"/>
<path d="M118.606 33.1133H101.709V108.017H118.606V33.1133Z" fill="#005BC3"/>
<path opacity="0.7" d="M118.606 33.1133H101.709V108.017H118.606V33.1133Z" fill="white"/>
<path opacity="0.1" d="M107.059 33.1133H101.709V108.017H107.059V33.1133Z" fill="black"/>
<path d="M110.429 35.6067H108.163V107.503H110.429V35.6067Z" fill="#005BC3"/>
<path d="M105.516 35.6067H103.251V107.503H105.516V35.6067Z" fill="#005BC3"/>
<path d="M113.964 35.6067H111.699V107.503H113.964V35.6067Z" fill="#005BC3"/>
<path d="M117.5 35.6067H115.235V107.503H117.5V35.6067Z" fill="#005BC3"/>
<path opacity="0.2" d="M107.059 28.0835H103.251V33.1139H107.059V28.0835Z" fill="black"/>
<path opacity="0.2" d="M108.181 24.7549H105.661V28.0837H108.181V24.7549Z" fill="black"/>
<path opacity="0.2" d="M108.986 22.6465H107.391V24.7535H108.986V22.6465Z" fill="black"/>
<path opacity="0.2" d="M109.655 21.5935H108.828V22.6859H109.655V21.5935Z" fill="black"/>
<path d="M119.516 42.54H107.059V43.5678H119.516V42.54Z" fill="#005BC3"/>
<path opacity="0.3" d="M119.516 42.54H107.059V43.5678H119.516V42.54Z" fill="white"/>
<path opacity="0.2" d="M108.783 42.54H107.059V43.5678H108.783V42.54Z" fill="black"/>
<path d="M100.571 43.5681H105.517V42.5403H100.571V43.5681Z" fill="#005BC3"/>
<path opacity="0.3" d="M100.571 43.5681H105.517V42.5403H100.571V43.5681Z" fill="white"/>
<path opacity="0.2" d="M104.832 43.5681H105.517V42.5403H104.832V43.5681Z" fill="black"/>
<path d="M119.516 51.7178H107.059V52.7456H119.516V51.7178Z" fill="#005BC3"/>
<path opacity="0.3" d="M119.516 51.7178H107.059V52.7456H119.516V51.7178Z" fill="white"/>
<path opacity="0.2" d="M108.783 51.7178H107.059V52.7456H108.783V51.7178Z" fill="black"/>
<path d="M100.571 52.7458H105.517V51.7181H100.571V52.7458Z" fill="#005BC3"/>
<path opacity="0.3" d="M100.571 52.7458H105.517V51.7181H100.571V52.7458Z" fill="white"/>
<path opacity="0.2" d="M104.832 52.7458H105.517V51.7181H104.832V52.7458Z" fill="black"/>
<path d="M119.516 60.896H107.059V61.9238H119.516V60.896Z" fill="#005BC3"/>
<path opacity="0.3" d="M119.516 60.896H107.059V61.9238H119.516V60.896Z" fill="white"/>
<path opacity="0.2" d="M108.783 60.896H107.059V61.9238H108.783V60.896Z" fill="black"/>
<path d="M100.571 61.9238H105.516V60.896H100.571V61.9238Z" fill="#005BC3"/>
<path opacity="0.3" d="M100.571 61.9238H105.516V60.896H100.571V61.9238Z" fill="white"/>
<path opacity="0.2" d="M104.832 61.9238H105.516V60.896H104.832V61.9238Z" fill="black"/>
<path d="M102.498 62.7708H85.6017V107.661H102.498V62.7708Z" fill="#005BC3"/>
<path opacity="0.7" d="M102.498 62.7708H85.6017V107.661H102.498V62.7708Z" fill="white"/>
<path opacity="0.2" d="M90.9514 62.7708H85.6017V107.661H90.9514V62.7708Z" fill="black"/>
<path opacity="0.2" d="M94.3218 63.7703H92.0564V68.8291H94.3218V63.7703Z" fill="black"/>
<path opacity="0.2" d="M97.8573 63.77H95.5919V68.8288H97.8573V63.77Z" fill="black"/>
<path opacity="0.2" d="M101.393 63.7703H99.1278V68.8291H101.393V63.7703Z" fill="black"/>
<path opacity="0.2" d="M89.4095 63.77H87.1442V68.8288H89.4095V63.77Z" fill="black"/>
<path d="M103.22 61.9028H84.8815V62.9054H103.22V61.9028Z" fill="#005BC3"/>
<path opacity="0.2" d="M103.22 61.9028H84.8815V62.9054H103.22V61.9028Z" fill="white"/>
<path d="M103.842 60.8997H84.2584V61.9022H103.842V60.8997Z" fill="#005BC3"/>
<path opacity="0.4" d="M103.842 60.8997H84.2584V61.9022H103.842V60.8997Z" fill="white"/>
<path opacity="0.2" d="M90.9766 61.9028H84.8815V62.9054H90.9766V61.9028Z" fill="black"/>
<path opacity="0.2" d="M90.9764 60.8997H84.2584V61.9022H90.9764V60.8997Z" fill="black"/>
<path d="M93.9093 64.1848H92.4701V68.4161H93.9093V64.1848Z" fill="#005BC3"/>
<path d="M97.445 64.1848H96.0057V68.4161H97.445V64.1848Z" fill="#005BC3"/>
<path d="M100.981 64.1848H99.5415V68.4161H100.981V64.1848Z" fill="#005BC3"/>
<path d="M88.9964 64.1848H87.5571V68.4161H88.9964V64.1848Z" fill="#005BC3"/>
</g>
<defs>
<clipPath id="clip0_676_2111">
<rect width="140" height="68" fill="white"/>
</clipPath>
</defs>
</svg>
