<svg width="50" height="50" viewBox="0 0 50 50" fill="none" xmlns="http://www.w3.org/2000/svg">
<path d="M48.1981 8.87288C48.1964 8.78944 48.1663 8.70907 48.113 8.64489C48.0596 8.58071 47.9861 8.53652 47.9043 8.51953C44.7734 7.88999 38.3935 7.58325 38.3935 7.58325C31.8138 7.80879 28.9633 8.21866 24.9599 9.33275C19.5842 8.05899 16.474 7.63733 10.6971 7.58325C10.6971 7.58325 10.7098 6.31392 10.6971 7.52037C7.60505 7.48415 4.51783 7.77535 1.48707 8.3891C1.40765 8.40703 1.3364 8.45073 1.2844 8.51337C1.23241 8.57602 1.20259 8.65411 1.1996 8.73547C0.752752 21.0754 1.73195 34.0333 1.92393 36.4079C1.92799 36.4575 1.94212 36.5058 1.96547 36.5497C1.98883 36.5937 2.0209 36.6325 2.05974 36.6636C2.09857 36.6947 2.14336 36.7176 2.19135 36.7309C2.23933 36.7441 2.28952 36.7474 2.33883 36.7406C5.08811 36.3826 7.87798 36.1161 10.6532 35.9238C10.6702 37.1811 10.6918 38.3636 10.7198 39.4413C10.7432 40.3924 11.1315 41.2981 11.8042 41.9709C12.477 42.6436 13.3827 43.0319 14.3338 43.0553C24.5343 43.5028 34.7349 43.0553 34.7349 43.0553C35.6934 43.0553 36.6126 42.6746 37.2904 41.9968C37.9682 41.3191 38.3489 40.3998 38.3489 39.4413C38.3489 39.4413 38.3696 38.1311 38.3955 35.9664C43.2532 36.2658 46.6899 36.6245 47.8039 36.7473C47.8539 36.7529 47.9045 36.7482 47.9526 36.7334C48.0008 36.7186 48.0453 36.6942 48.0836 36.6615C48.1219 36.6288 48.153 36.5886 48.1751 36.5434C48.1973 36.4981 48.2098 36.4489 48.2121 36.3986C48.5957 28.1494 48.2507 11.2968 48.1981 8.87288Z" fill="white"/>
<path d="M48.3826 8.86932C48.3806 8.74405 48.3359 8.62322 48.2558 8.52684C48.1758 8.43046 48.0652 8.36429 47.9424 8.3393C44.8582 7.71838 38.574 7.39903 38.574 7.39903L10.5153 7.33846C7.4702 7.31276 4.43073 7.60505 1.44632 8.21053C1.32542 8.23589 1.21674 8.30161 1.13814 8.3969C1.05954 8.4922 1.01568 8.61139 1.01378 8.7349C0.896663 21.1324 1.55944 34.2027 1.73911 36.4233C1.74491 36.4979 1.76589 36.5706 1.80077 36.6369C1.83564 36.7031 1.88367 36.7616 1.94192 36.8086C2.00018 36.8556 2.06742 36.8903 2.13953 36.9104C2.21164 36.9306 2.28711 36.9358 2.3613 36.9257C5.03838 36.5773 7.75871 36.3165 10.4707 36.1272C10.4874 37.3137 10.5073 38.4299 10.5323 39.4494C10.5832 41.5199 12.2168 43.0847 14.323 43.2424C20.8213 43.7295 32.3039 43.3126 34.7364 43.2424C35.7389 43.2302 36.6969 42.8264 37.4057 42.1173C38.1145 41.4082 38.5178 40.4499 38.5294 39.4474C38.5294 39.3975 38.5491 38.1751 38.573 36.1721C44.9586 36.5714 47.6167 36.9374 47.84 36.9374C47.9822 36.9373 48.1189 36.8825 48.2217 36.7843C48.3245 36.6861 48.3854 36.552 48.392 36.41C48.7829 28.0916 48.4242 10.8124 48.3826 8.86932ZM10.5153 7.33846L38.574 7.39903L36.4463 7.42864C31.5068 7.54847 29.0811 7.90984 25.1334 8.87797C19.871 7.91621 17.0906 7.54553 12.6264 7.36842L10.5153 7.33846ZM38.1634 39.4437C37.8261 42.3215 35.5702 42.75 34.7261 42.8741C34.6263 42.8887 24.4164 43.3156 14.3403 42.8741C13.4363 42.8511 12.5756 42.482 11.9359 41.8428C11.2962 41.2037 10.9263 40.3434 10.9026 39.4394C10.878 38.4153 10.8567 37.2934 10.84 36.1012C11.3774 36.0653 12.4584 36.0044 12.4584 36.0044C12.4957 37.9009 13.8618 39.0891 15.5976 39.1626C24.4736 39.5389 33.3506 39.1626 33.3506 39.1626C33.7628 39.1699 34.1724 39.0947 34.555 38.9413C34.9377 38.7879 35.2859 38.5595 35.5789 38.2695C35.8719 37.9795 36.104 37.6338 36.2613 37.2527C36.4187 36.8716 36.4982 36.4629 36.4952 36.0506C37.083 36.0819 37.6538 36.1145 38.2077 36.1485C38.1837 38.1624 38.1694 39.3935 38.1634 39.4437ZM48.027 36.3927C48.0067 36.434 47.9782 36.4707 47.9432 36.5006C47.9082 36.5304 47.8674 36.5527 47.8233 36.566C46.931 36.4682 37.0861 35.7133 36.4978 35.682C32.7554 35.48 23.3587 34.7594 12.4404 35.6331C11.9064 35.6757 5.00577 36.21 2.31505 36.5604C2.29035 36.5642 2.26513 36.5628 2.24099 36.5563C2.21685 36.5498 2.19433 36.5384 2.17484 36.5228C2.15535 36.5071 2.13932 36.4876 2.12777 36.4654C2.11623 36.4433 2.10942 36.419 2.10777 36.394C1.96503 34.1734 1.26698 21.1241 1.3841 8.73856C1.38581 8.69844 1.40088 8.66004 1.42693 8.62947C1.45297 8.59891 1.48849 8.57793 1.52783 8.56987C6.12538 7.53278 11.9753 7.71644 12.5492 7.73374C16.6985 7.87187 20.8243 8.4166 24.8672 9.36008C24.955 9.3808 25.0465 9.3792 25.1334 9.35543C28.8514 8.42818 32.6588 7.90555 36.4892 7.79663C37.0495 7.77733 43.7159 7.59699 47.8653 8.70096C47.9057 8.7104 47.942 8.7328 47.9686 8.76475C47.9952 8.79669 48.0107 8.83645 48.0126 8.87797C48.0556 10.8187 48.4139 28.0863 48.027 36.3927Z" fill="#313131"/>
<path d="M23.1719 41.1872C23.1719 41.4691 23.2891 41.7394 23.4977 41.9387C23.7063 42.138 23.9892 42.2499 24.2842 42.2499C24.5792 42.2499 24.8621 42.138 25.0707 41.9387C25.2793 41.7394 25.3964 41.4691 25.3964 41.1872C25.3964 40.9054 25.2793 40.6351 25.0707 40.4358C24.8621 40.2365 24.5792 40.1245 24.2842 40.1245C23.9892 40.1245 23.7063 40.2365 23.4977 40.4358C23.2891 40.6351 23.1719 40.9054 23.1719 41.1872Z" fill="#313131"/>
<path d="M47.1309 10.349C47.1273 10.2303 47.0829 10.1166 47.0051 10.0269C46.9273 9.93726 46.821 9.8772 46.704 9.85687C44.0325 9.34775 41.3217 9.07199 38.6023 9.03272C33.3479 8.95419 28.1598 9.6569 25.0469 10.4558C20.2722 9.39493 15.3895 8.89777 10.499 8.97449C7.92137 8.99636 5.35112 9.25306 2.8201 9.74141C2.70528 9.76285 2.60126 9.82293 2.5253 9.91166C2.44934 10.0004 2.40602 10.1124 2.40254 10.2292C2.29573 20.9877 2.83508 32.4743 3.02206 34.6526C3.03005 34.7222 3.05178 34.7896 3.08598 34.8509C3.12018 34.9121 3.16618 34.9659 3.22132 35.0092C3.27646 35.0525 3.33964 35.0845 3.40721 35.1032C3.47478 35.122 3.5454 35.1271 3.61497 35.1184C24.8655 33.2129 46.528 35.1267 46.5473 35.1267C46.6818 35.1296 46.8122 35.0805 46.9113 34.9896C47.0105 34.8987 47.0708 34.7731 47.0797 34.6389C47.47 26.6972 47.1346 10.5077 47.1309 10.349ZM3.5807 34.7521C3.55959 34.7561 3.5379 34.7558 3.51688 34.7514C3.49586 34.747 3.47591 34.7385 3.4582 34.7263C3.44048 34.7142 3.42534 34.6986 3.41364 34.6806C3.40195 34.6626 3.39393 34.6424 3.39005 34.6213C3.20373 32.4476 2.66439 20.9797 2.77153 10.2328C2.77498 10.2003 2.78914 10.1698 2.81177 10.1461C2.83441 10.1225 2.86425 10.107 2.89663 10.1021C5.52403 9.6082 8.1906 9.35208 10.864 9.33682C15.5713 9.29165 20.2686 9.78112 24.8655 10.7958C24.8502 16.1094 24.8323 32.2956 24.8289 33.8797C24.633 33.8777 13.7387 33.698 3.5807 34.7521ZM46.7097 34.6213C46.7071 34.6424 46.7003 34.6627 46.6897 34.681C46.679 34.6994 46.6648 34.7154 46.6479 34.7281C46.6309 34.7409 46.6116 34.7501 46.591 34.7551C46.5704 34.7602 46.549 34.7611 46.528 34.7577C41.2175 34.2041 31.2831 33.899 25.1976 33.879C25.1996 32.2969 25.2189 16.0967 25.2342 10.7882C28.5927 9.95269 33.5925 9.32418 38.6079 9.40037C41.3019 9.44063 43.9874 9.71416 46.6342 10.2179C46.6682 10.2226 46.6995 10.239 46.7229 10.2642C46.7462 10.2895 46.7601 10.322 46.7623 10.3563C46.7659 10.516 47.1013 26.6909 46.7114 34.6213H46.7097Z" fill="#313131"/>
<path d="M43.2698 22.0435C39.8486 21.6766 36.4081 21.52 32.9678 21.5747C32.9189 21.5753 32.8718 21.5564 32.8368 21.5222C32.8018 21.4881 32.7818 21.4414 32.7813 21.3925C32.7807 21.3436 32.7996 21.2965 32.8337 21.2615C32.8679 21.2266 32.9145 21.2066 32.9634 21.206C36.4119 21.1539 39.8603 21.3108 43.2898 21.6758C43.3368 21.6807 43.3802 21.7036 43.4109 21.7395C43.4416 21.7755 43.4572 21.8219 43.4547 21.8692C43.4521 21.9164 43.4315 21.9608 43.3971 21.9933C43.3627 22.0257 43.3171 22.0437 43.2698 22.0435Z" fill="#313131"/>
<path d="M28.2423 21.7651C28.1948 21.7649 28.1492 21.7465 28.115 21.7135C28.0808 21.6806 28.0607 21.6357 28.0587 21.5883C28.0568 21.5408 28.0733 21.4945 28.1047 21.4589C28.1361 21.4233 28.18 21.4011 28.2273 21.3971C28.2389 21.3971 29.4324 21.2973 31.3449 21.2414C31.3692 21.2403 31.3934 21.2441 31.4162 21.2525C31.439 21.261 31.4599 21.2739 31.4776 21.2906C31.4953 21.3072 31.5094 21.3273 31.5192 21.3495C31.529 21.3718 31.5342 21.3958 31.5345 21.4201C31.536 21.4689 31.518 21.5164 31.4845 21.552C31.451 21.5876 31.4047 21.6085 31.3559 21.6101C29.1592 21.6753 28.3444 21.7651 28.2423 21.7651Z" fill="#313131"/>
<path d="M43.2476 25.5663C38.2714 25.0033 33.2564 24.864 28.2566 25.15C28.2078 25.1536 28.1595 25.1377 28.1225 25.1057C28.0855 25.0737 28.0627 25.0283 28.0591 24.9795C28.0555 24.9307 28.0715 24.8825 28.1034 24.8455C28.1354 24.8084 28.1808 24.7856 28.2296 24.782C33.253 24.4949 38.2918 24.6348 43.2916 25.2003C43.3396 25.2067 43.3831 25.2318 43.4128 25.2701C43.4424 25.3084 43.4558 25.3568 43.4501 25.4049C43.4443 25.453 43.4198 25.4969 43.3819 25.5271C43.3441 25.5573 43.2958 25.5714 43.2476 25.5663Z" fill="#313131"/>
<path d="M43.1711 28.674C42.0025 28.4951 40.8252 28.3792 39.6442 28.327C39.6197 28.3261 39.5957 28.3203 39.5734 28.31C39.5512 28.2996 39.5313 28.285 39.5148 28.2669C39.4983 28.2487 39.4856 28.2275 39.4774 28.2044C39.4692 28.1813 39.4657 28.1568 39.4671 28.1323C39.4685 28.1079 39.4747 28.0839 39.4855 28.0619C39.4963 28.0399 39.5113 28.0202 39.5297 28.0041C39.5482 27.988 39.5697 27.9757 39.5929 27.9679C39.6162 27.9602 39.6407 27.9572 39.6652 27.959C39.7597 27.9644 41.9942 28.0921 43.2047 28.3081C43.2504 28.3159 43.2914 28.3407 43.3197 28.3774C43.3479 28.4142 43.3613 28.4602 43.3571 28.5064C43.3529 28.5526 43.3314 28.5955 43.297 28.6266C43.2626 28.6576 43.2177 28.6746 43.1714 28.674H43.1711Z" fill="#313131"/>
<path d="M28.2432 28.2327C28.1978 28.2303 28.1548 28.2113 28.1226 28.1792C28.0904 28.1471 28.0712 28.1042 28.0686 28.0588C28.0661 28.0134 28.0805 27.9686 28.109 27.9332C28.1374 27.8977 28.178 27.874 28.2229 27.8667C31.4494 27.5767 34.6944 27.5558 37.9244 27.8041C37.9485 27.8059 37.9721 27.8124 37.9937 27.8233C38.0153 27.8342 38.0346 27.8493 38.0504 27.8676C38.0662 27.8859 38.0782 27.9072 38.0858 27.9302C38.0934 27.9532 38.0964 27.9774 38.0946 28.0016C38.0928 28.0257 38.0863 28.0493 38.0754 28.0709C38.0645 28.0925 38.0494 28.1118 38.0311 28.1276C38.0128 28.1434 37.9915 28.1554 37.9685 28.163C37.9455 28.1706 37.9213 28.1736 37.8971 28.1718C34.6831 27.9216 31.4538 27.942 28.2432 28.2327Z" fill="#313131"/>
<path d="M43.2504 31.7628C35.3267 30.9147 29.9808 31.0065 28.2613 31.1739C28.2147 31.1751 28.1694 31.1585 28.1345 31.1277C28.0996 31.0968 28.0776 31.0538 28.0731 31.0074C28.0686 30.961 28.0819 30.9146 28.1102 30.8776C28.1385 30.8406 28.1798 30.8157 28.2257 30.8079C28.2756 30.8032 33.3433 30.3324 43.2897 31.3971C43.3147 31.3984 43.3392 31.4048 43.3617 31.4159C43.3842 31.427 43.4042 31.4425 43.4204 31.4616C43.4367 31.4806 43.4489 31.5028 43.4563 31.5268C43.4637 31.5507 43.4661 31.5759 43.4635 31.6008C43.4608 31.6258 43.4531 31.6499 43.4407 31.6717C43.4284 31.6935 43.4118 31.7126 43.3919 31.7278C43.3719 31.743 43.3491 31.754 43.3248 31.76C43.3005 31.7661 43.2752 31.7671 43.2504 31.7631V31.7628Z" fill="#313131"/>
<path d="M42.6554 19.0823C34.6574 19.0004 28.7476 18.9891 28.7476 18.9891C28.5855 18.9855 28.4311 18.9195 28.3164 18.8048C28.2018 18.6902 28.1358 18.5357 28.1321 18.3736C28.0323 16.7829 28.0759 13.82 28.0759 13.82C28.0653 13.6575 28.1172 13.4971 28.221 13.3717C28.3248 13.2463 28.4726 13.1652 28.6342 13.1452C33.3005 12.819 37.981 12.744 42.6554 12.9206C42.8177 12.9234 42.9726 12.9891 43.0874 13.1038C43.2022 13.2186 43.2679 13.3735 43.2706 13.5358C43.2706 13.5358 43.3638 16.6212 43.2706 18.4668C43.2682 18.6292 43.2026 18.7843 43.0878 18.8992C42.9729 19.0141 42.8178 19.0798 42.6554 19.0823Z" fill="#E02728"/>
<path d="M10.7337 16.5106C10.7337 16.5106 10.2954 18.8148 10.8857 19.7331C11.4761 20.6514 12.2155 20.6683 12.2155 20.6683L12.1823 22.123L12.9757 23.3928L14.1322 22.0365C13.996 21.5244 13.9362 20.995 13.9546 20.4654C14.4484 19.9923 14.7879 19.3812 14.9286 18.712C14.9425 18.6454 14.9726 18.5833 15.0161 18.531C15.0595 18.4788 15.1151 18.4379 15.178 18.412C15.3328 18.3713 15.4682 18.2769 15.56 18.1458C15.6518 18.0146 15.6942 17.8552 15.6795 17.6957C15.6162 17.2819 15.0573 17.2158 14.8541 17.1917C14.5159 17.1331 13.8969 16.6168 13.8057 15.7245C13.8057 15.7245 13.0728 15.9503 12.55 14.9462C12.55 14.9462 12.1441 15.9339 11.4401 15.7456C11.4156 15.7548 11.3341 16.4588 10.7337 16.5106Z" fill="#FCCAC2"/>
<path d="M6.06638 20.4128C6.06638 20.4128 5.69646 19.5092 5.92466 19.3956C6.15285 19.2819 6.53115 20.1372 6.53115 20.1372C6.53115 20.1372 7.30256 19.8176 7.50361 20.0429C7.70466 20.2683 7.29687 20.4918 7.29687 20.4918C7.29687 20.4918 7.75281 20.2839 7.88906 20.4787C8.02531 20.6734 7.56312 21.0486 7.56312 21.0486C7.56312 21.0486 7.96053 20.9606 8.07761 21.1452C8.22278 21.3741 7.61176 21.6804 7.61176 21.6804C7.61176 21.6804 7.94503 21.6395 8.03069 21.8185C8.13713 22.0441 7.61401 22.3257 7.2734 22.4756C6.9328 22.6255 6.17472 22.892 6.48281 22.2538C6.41699 22.2473 6.35377 22.2248 6.29874 22.1881C6.2437 22.1514 6.19854 22.1018 6.16726 22.0435C6.13598 21.9853 6.11953 21.9202 6.11938 21.854C6.11922 21.7879 6.13536 21.7228 6.16637 21.6643C6.16637 21.6643 5.78649 21.6217 5.91559 21.1735C5.91074 21.1734 5.35196 20.9981 6.06638 20.4128Z" fill="#FCCAC2"/>
<path d="M6.63082 27.8019C6.63082 27.8019 6.34827 25.0907 6.50948 23.2363C6.50948 23.2363 7.5432 22.7965 8.36449 22.9487L8.49998 23.4952C8.49998 23.4952 10.1185 21.3489 12.1372 22.0694L12.9757 23.3815L14.1322 22.0252C14.1322 22.0252 15.7887 21.721 16.8151 22.6638C17.8415 23.6066 18.6323 24.5634 18.8882 28.2298C18.8882 28.2298 14.7144 28.4013 13.9055 28.2373C13.9055 28.2373 13.2597 28.3681 12.2918 30.3836C12.2918 30.3836 11.682 28.4073 11.2641 28.012C11.2688 28.017 8.84824 28.0029 6.63082 27.8019Z" fill="#4D68A1"/>
<path d="M12.2065 18.2605C11.6052 17.7155 11.6403 17.6654 11.7107 17.5602C11.7559 17.4909 12.2554 17.5023 12.3089 17.4963C12.3411 17.3587 12.3851 16.9207 12.4131 16.5453C12.4137 16.5157 12.4261 16.4876 12.4475 16.4672C12.4689 16.4468 12.4976 16.4357 12.5271 16.4363C12.5567 16.437 12.5848 16.4494 12.6053 16.4708C12.6257 16.4922 12.6368 16.5208 12.6361 16.5504C12.5609 17.6136 12.4994 17.651 12.4429 17.6813C12.2896 17.7077 12.1343 17.7204 11.9787 17.7192C12.0735 17.8184 12.2156 17.9672 12.3561 18.0844C12.4965 18.2016 12.3061 18.3598 12.2065 18.2605Z" fill="#313131"/>
<path d="M12.1781 19.1095C12.086 19.0913 11.9991 19.0529 11.9236 18.9971C11.8481 18.9412 11.7859 18.8694 11.7415 18.7866C11.7345 18.7737 11.7301 18.7596 11.7285 18.745C11.727 18.7303 11.7283 18.7156 11.7324 18.7015C11.7366 18.6874 11.7435 18.6742 11.7527 18.6628C11.7619 18.6514 11.7733 18.6419 11.7862 18.6348C11.7991 18.6278 11.8133 18.6234 11.8279 18.6218C11.8425 18.6203 11.8573 18.6216 11.8714 18.6257C11.8855 18.6299 11.8986 18.6368 11.9101 18.646C11.9215 18.6552 11.931 18.6666 11.938 18.6795C11.967 18.7393 12.011 18.7905 12.0657 18.8281C12.1204 18.8657 12.184 18.8885 12.2501 18.8941C12.3163 18.8998 12.3828 18.8882 12.4431 18.8604C12.5034 18.8327 12.5554 18.7897 12.5941 18.7357C12.7006 18.6411 12.8521 18.8071 12.7432 18.9017C12.6734 18.9802 12.5853 19.0402 12.4867 19.0765C12.3881 19.1127 12.2821 19.1241 12.1781 19.1095Z" fill="#313131"/>
<path d="M15.0148 17.957C14.992 17.9566 14.9698 17.9491 14.9514 17.9357C14.9329 17.9222 14.919 17.9035 14.9116 17.8819C14.9041 17.8602 14.9035 17.8369 14.9098 17.8149C14.916 17.7929 14.9289 17.7734 14.9466 17.759C15 17.7158 15.0587 17.6797 15.1213 17.6514C15.1351 17.6465 15.1497 17.6443 15.1644 17.645C15.179 17.6457 15.1934 17.6493 15.2067 17.6556C15.2199 17.6619 15.2318 17.6707 15.2417 17.6816C15.2515 17.6924 15.2591 17.7051 15.2641 17.7189C15.269 17.7328 15.2712 17.7474 15.2705 17.7621C15.2697 17.7767 15.2661 17.7911 15.2599 17.8043C15.2536 17.8176 15.2448 17.8295 15.2339 17.8393C15.223 17.8492 15.2103 17.8568 15.1965 17.8617C15.158 17.8812 15.1217 17.9047 15.0882 17.932C15.0783 17.9409 15.0667 17.9477 15.0541 17.952C15.0415 17.9563 15.0281 17.958 15.0148 17.957Z" fill="#313131"/>
<path d="M8.21378 21.2491C8.22982 21.184 8.22175 20.9 7.83267 20.9421C8.06369 20.7048 8.05031 20.5468 8.01803 20.4733C7.98135 20.3981 7.9194 20.3382 7.84301 20.3041C7.76663 20.2699 7.68068 20.2638 7.60021 20.2866C7.62545 20.2436 7.74948 19.8049 7.16097 19.8691C6.96838 19.8912 6.77962 19.9391 6.59979 20.0115C6.31161 19.4591 6.07717 19.2088 5.90563 19.2849C5.66052 19.3958 5.87358 20.1575 5.96073 20.3778C5.56429 20.6356 5.55787 20.9168 5.61047 21.0563C5.64675 21.1434 5.71569 21.2129 5.80254 21.2499C5.66728 21.6495 5.94736 21.7068 6.04847 21.7406C6.01685 21.7955 5.99962 21.8576 5.99838 21.9209C5.99715 21.9842 6.01195 22.0469 6.04141 22.103C6.07086 22.1591 6.11402 22.2068 6.16687 22.2418C6.21972 22.2767 6.28055 22.2977 6.3437 22.3029C6.13939 22.7518 6.49579 22.76 6.60247 22.7624C7.05343 22.7727 7.82619 22.2882 7.8263 22.2834C8.07229 22.1337 8.19586 21.9279 8.14121 21.7714C8.11383 21.6956 8.05455 21.636 7.88792 21.6031C8.03058 21.5217 8.14444 21.398 8.21378 21.2491ZM5.98562 19.5002C6.15246 19.6752 6.29036 19.8757 6.39414 20.0941C6.30936 20.1356 6.22727 20.1823 6.14837 20.2341C6.04676 20.005 5.9914 19.758 5.98545 19.5075L5.98562 19.5002ZM7.20496 21.767C7.09695 21.8228 7.16063 22.0086 7.28043 21.9677L7.58202 21.8266C8.07108 21.6558 7.96194 21.9735 7.73826 22.1019C7.29835 22.3514 6.60777 22.6364 6.53505 22.528C6.46232 22.4196 6.64969 22.288 6.64969 22.288C6.66908 22.2736 6.68324 22.2532 6.69005 22.23C6.69685 22.2068 6.69593 22.182 6.68741 22.1593C6.67889 22.1367 6.66325 22.1174 6.64283 22.1045C6.62242 22.0915 6.59834 22.0855 6.57422 22.0874C6.40417 22.0981 6.29055 22.0809 6.25325 22.0146C6.21596 21.9482 6.25879 21.7721 6.30122 21.7197C6.30986 21.704 6.31465 21.6864 6.3152 21.6684C6.31574 21.6504 6.31202 21.6326 6.30435 21.6163C6.29668 21.6001 6.28527 21.5858 6.27105 21.5748C6.25684 21.5638 6.24022 21.5563 6.22256 21.553C6.1843 21.5522 6.14677 21.5424 6.11303 21.5243C6.07929 21.5063 6.05031 21.4805 6.02844 21.4491C6.01291 21.4104 6.00539 21.369 6.00634 21.3273C6.00729 21.2856 6.01669 21.2446 6.03398 21.2066C6.04073 21.1909 6.04394 21.1739 6.04339 21.1569C6.04283 21.1398 6.03852 21.123 6.03077 21.1078C6.02301 21.0926 6.012 21.0792 5.99851 21.0688C5.98502 21.0583 5.96939 21.0509 5.95272 21.0471C5.9212 21.0464 5.65115 20.9747 5.93435 20.6828C6.27215 20.36 6.69993 20.1474 7.16117 20.0729C7.37999 20.0512 7.55994 20.1378 7.08013 20.4349C7.08013 20.4349 6.88803 20.5615 6.78978 20.615C6.76372 20.6292 6.74437 20.6532 6.73598 20.6817C6.7276 20.7101 6.73087 20.7408 6.74507 20.7668C6.75927 20.7929 6.78324 20.8122 6.81171 20.8206C6.84018 20.829 6.87082 20.8257 6.89687 20.8115C6.96074 20.7766 7.07872 20.7089 7.20194 20.6244C7.32516 20.5399 7.69349 20.3446 7.79574 20.541C7.83293 20.6122 7.63927 20.8067 7.36038 21.0162C7.36038 21.0162 7.09184 21.1968 6.94691 21.276C6.9268 21.2888 6.91119 21.3075 6.90227 21.3296C6.89336 21.3517 6.89159 21.376 6.89722 21.3992C6.90285 21.4223 6.91559 21.4431 6.93365 21.4587C6.95171 21.4742 6.97418 21.4837 6.99791 21.4858C7.01731 21.4862 7.81757 20.966 8.01878 21.184C8.11393 21.2663 7.60492 21.5676 7.20496 21.767Z" fill="#313131"/>
<path d="M13.482 18.359C13.4809 18.4092 13.5068 18.4579 13.5542 18.4945C13.6016 18.531 13.6665 18.5525 13.7347 18.554C13.8029 18.5556 13.8687 18.5371 13.9177 18.5028C13.9667 18.4684 13.9949 18.4209 13.996 18.3708C13.9972 18.3206 13.9712 18.2719 13.9238 18.2353C13.8764 18.1988 13.8115 18.1773 13.7433 18.1758C13.6752 18.1742 13.6093 18.1927 13.5603 18.227C13.5113 18.2614 13.4832 18.3089 13.482 18.359Z" fill="#FCCAC2"/>
<path d="M11.0623 18.1706C11.0612 18.2182 11.0847 18.2644 11.1276 18.299C11.1705 18.3337 11.2292 18.3539 11.291 18.3554C11.3527 18.3568 11.4123 18.3392 11.4567 18.3066C11.5012 18.2739 11.5267 18.2288 11.5278 18.1813C11.5289 18.1337 11.5054 18.0875 11.4625 18.0528C11.4197 18.0182 11.3609 17.9979 11.2992 17.9965C11.2374 17.9951 11.1778 18.0127 11.1334 18.0453C11.089 18.078 11.0634 18.123 11.0623 18.1706Z" fill="#FCCAC2"/>
<path d="M20.4851 21.329C20.4865 18.3963 20.5654 15.8996 19.8294 15.5165C19.3955 15.2906 18.1019 15.1083 16.4988 14.9843C16.5121 14.8471 16.4928 14.7088 16.4426 14.5804C16.2133 13.9978 15.3594 14.2112 15.3594 14.2112C15.3594 14.2112 15.5042 13.3946 15.0602 13.0788C14.6162 12.763 14.0642 13.0366 13.8653 13.2456C13.787 13.0209 13.6393 12.827 13.4436 12.6917C13.2478 12.5565 13.0142 12.4869 12.7764 12.493C12.5461 12.4857 12.3223 12.5693 12.153 12.7256C11.9838 12.8819 11.8829 13.0985 11.8719 13.3286C11.6687 13.161 11.4101 13.0756 11.147 13.0894C10.884 13.1031 10.6357 13.215 10.4511 13.4029C10.2823 13.5416 10.1662 13.734 10.122 13.9479C10.0778 14.1619 10.1083 14.3845 10.2084 14.5787C9.97881 14.588 9.75766 14.6676 9.57488 14.8068C8.84664 14.829 5.64764 14.9088 5.21937 15.4982C4.43035 16.5887 4.46281 26.6395 5.38508 27.575C5.85941 28.0492 11.6311 28.1204 11.2553 28.1118C11.3772 28.1946 11.6928 28.9271 12.116 30.3656C12.1276 30.4007 12.1493 30.4316 12.1783 30.4544C12.2074 30.4773 12.2424 30.4912 12.2793 30.4944C12.3161 30.4975 12.3531 30.4898 12.3856 30.4722C12.4181 30.4546 12.4447 30.4279 12.4622 30.3953C13.053 29.1668 13.6346 28.3432 13.9061 28.3494C16.6846 28.4128 19.4205 28.5384 19.8272 28.0431C20.2912 27.4812 20.4961 25.4119 20.4851 21.329ZM10.7266 17.909C10.7266 17.909 10.7238 18.0327 10.8241 16.7226C10.9487 16.7011 11.0663 16.6502 11.1672 16.574C11.2681 16.4978 11.3494 16.3986 11.4041 16.2847C11.5967 16.2636 11.7915 16.2922 11.9699 16.3679C11.9962 16.3781 12.0255 16.378 12.0517 16.3674C12.078 16.3569 12.0992 16.3368 12.1112 16.3112C12.1232 16.2856 12.125 16.2564 12.1163 16.2295C12.1076 16.2026 12.089 16.18 12.0642 16.1663C11.8853 16.0851 11.691 16.0434 11.4945 16.0441C11.5083 15.9974 11.5191 15.9499 11.5269 15.9018C11.7434 15.923 11.9606 15.8677 12.1406 15.7455C12.3206 15.6233 12.4522 15.442 12.5125 15.2329C12.5125 15.2329 12.9428 16.0384 13.6686 15.9119C13.6944 16.0583 13.7358 16.2016 13.7923 16.3392C13.6338 16.3018 13.4707 16.2875 13.3081 16.2966C13.2785 16.2959 13.2499 16.307 13.2285 16.3275C13.2071 16.3479 13.1947 16.376 13.194 16.4056C13.1933 16.4352 13.2044 16.4638 13.2249 16.4852C13.2453 16.5066 13.2734 16.519 13.303 16.5197C13.5146 16.5077 13.7263 16.5406 13.9242 16.6163C14.0109 16.7942 14.1352 16.9511 14.2886 17.0761C14.442 17.2011 14.6208 17.2912 14.8125 17.3401C15.242 17.4421 15.4466 17.4055 15.4968 17.756C15.5506 18.1599 15.0332 18.1917 14.8912 18.3534C14.7867 18.4699 14.6467 19.0756 14.5157 19.502C14.3848 19.8001 14.1909 20.0662 13.9472 20.2822C13.8686 20.3587 13.8235 20.4632 13.8217 20.5729C13.8288 21.0448 13.8947 21.5141 14.0179 21.9697L12.9889 23.1591L12.3098 22.0908L12.3394 20.7937C12.5571 20.8236 12.7781 20.8196 12.9946 20.782C13.0089 20.7785 13.0223 20.7722 13.0341 20.7635C13.046 20.7548 13.056 20.7439 13.0636 20.7314C13.0712 20.7188 13.0762 20.7049 13.0785 20.6904C13.0807 20.6759 13.08 20.6611 13.0765 20.6468C13.073 20.6325 13.0668 20.6191 13.0581 20.6073C13.0494 20.5955 13.0385 20.5854 13.0259 20.5778C13.0134 20.5702 12.9994 20.5652 12.9849 20.5629C12.9704 20.5607 12.9556 20.5614 12.9414 20.5649C12.639 20.6129 12.3296 20.5907 12.0372 20.4999C11.7448 20.4091 11.4772 20.2521 11.2553 20.0412C10.5376 19.3893 10.7263 17.9236 10.7266 17.909ZM5.54881 27.4163C4.72808 26.6019 4.66668 16.6499 5.40561 15.6286C5.62847 15.3232 7.13738 15.1078 9.395 15.0356C8.99463 15.9968 9.85327 16.2129 9.85327 16.2129C9.85327 16.2129 9.0953 17.537 10.4813 18.2406C10.4696 18.7522 10.5285 19.6826 11.0989 20.1953C11.3859 20.4603 11.7342 20.6499 12.1124 20.7473L12.0862 21.8941C11.5257 21.7868 10.9473 21.8202 10.403 21.9915C9.69211 22.2426 9.06814 22.6922 8.60498 23.287C8.6057 23.2555 8.5688 23.0655 8.5688 23.0655C8.55585 22.9892 8.51668 22.9198 8.45805 22.8693C8.39942 22.8188 8.325 22.7904 8.24763 22.7889C7.68549 22.8067 7.12934 22.9102 6.59837 23.0957C6.53345 23.1162 6.47649 23.1564 6.43529 23.2106C6.39409 23.2648 6.37069 23.3304 6.36829 23.3985C6.28277 25.9751 6.44259 27.262 6.51319 27.676C6.00999 27.616 5.66506 27.5305 5.54881 27.4163ZM6.75514 27.7034C6.70161 27.3916 6.51523 26.0993 6.61068 23.4064C6.6123 23.3849 6.61997 23.3643 6.63282 23.347C6.64566 23.3297 6.66316 23.3164 6.68327 23.3086C7.19181 23.1391 7.72144 23.041 8.25698 23.0171C8.2823 23.0166 8.30699 23.0251 8.32662 23.0411C8.34625 23.0571 8.35955 23.0795 8.36414 23.1044C8.36414 23.1044 9.01788 27.1947 9.14879 27.8357C8.20824 27.8069 7.37708 27.7685 6.75514 27.7034ZM12.3184 30.2101C11.6435 27.8975 11.401 27.8919 11.2895 27.8894L9.37416 27.8457C9.29694 27.5091 8.65084 23.6156 8.66837 23.5917C8.68589 23.5678 9.39341 22.5409 10.478 22.2115C10.9863 22.052 11.5263 22.021 12.0495 22.1213L12.8571 23.406L12.818 29.2609C12.6643 29.5121 12.4945 29.8284 12.3063 30.2098L12.3184 30.2101ZM17.26 28.181C17.2041 27.4066 17.1059 26.6359 16.9658 25.8722C16.9446 25.7383 16.7259 25.7576 16.7467 25.9084C16.8792 26.6596 16.972 27.4171 17.0247 28.178C16.3871 28.1635 14.2774 28.1299 13.9137 28.124C13.7367 28.1199 13.459 28.2785 13.0422 28.8949L13.0802 23.4062L14.1917 22.1095C14.5008 22.0681 16.6429 21.8502 17.7277 23.8447C18.7428 25.7066 18.7845 27.8131 18.787 28.1285C18.3713 28.1675 17.8398 28.1797 17.2479 28.1807L17.26 28.181ZM19.6703 27.9013C19.4789 28.0326 19.2525 28.1035 19.0204 28.1047C19.0297 27.6974 18.9539 25.5998 17.9364 23.7378C16.8351 21.7163 14.7173 21.828 14.2285 21.8824C14.1162 21.459 14.0569 21.0233 14.0519 20.5854C14.0513 20.5612 14.0557 20.5371 14.065 20.5148C14.0743 20.4924 14.0882 20.4722 14.1058 20.4556C14.2979 20.2759 14.4657 20.0718 14.6048 19.8484C14.7983 19.9703 15.0187 20.0428 15.2468 20.0594C15.4748 20.0761 15.7035 20.0363 15.9126 19.9438C16.6478 19.6137 16.3022 18.7083 16.3022 18.7083C16.3022 18.7083 17.2105 18.7678 17.262 18.0025C17.274 17.8994 17.2655 17.7951 17.237 17.6954C17.2084 17.5956 17.1605 17.5026 17.0958 17.4215C17.0311 17.3404 16.951 17.2729 16.8601 17.2229C16.7693 17.173 16.6694 17.1415 16.5663 17.1303C16.6607 17.1146 16.7511 17.0801 16.8318 17.0286C16.9126 16.9772 16.9821 16.91 17.0363 16.8311C17.0904 16.7521 17.128 16.663 17.1469 16.5691C17.1657 16.4752 17.1654 16.3785 17.1459 16.2848C17.0486 15.5548 16.1909 15.6177 16.1909 15.6177C16.3038 15.4968 16.3898 15.3532 16.4431 15.1965C18.109 15.3268 19.3469 15.5054 19.7184 15.7056C20.2673 15.9922 20.2628 18.2093 20.2577 20.5549C20.2709 21.6783 20.3541 27.0654 19.6582 27.901L19.6703 27.9013Z" fill="#313131"/>
<path d="M13.3327 17.1166C13.3314 17.1764 13.349 17.2342 13.3816 17.2772C13.4143 17.3203 13.4594 17.3451 13.507 17.3462C13.5546 17.3473 13.6008 17.3245 13.6354 17.283C13.67 17.2415 13.6902 17.1846 13.6916 17.1248C13.6929 17.065 13.6753 17.0072 13.6427 16.9641C13.61 16.9211 13.5649 16.8963 13.5173 16.8952C13.4697 16.8941 13.4235 16.9168 13.3889 16.9584C13.3543 16.9999 13.3341 17.0568 13.3327 17.1166Z" fill="#313131"/>
<path d="M11.4423 16.9087C11.441 16.9659 11.4579 17.0212 11.4893 17.0624C11.5206 17.1036 11.5639 17.1273 11.6096 17.1284C11.6552 17.1294 11.6995 17.1077 11.7327 17.0679C11.7659 17.0282 11.7853 16.9737 11.7866 16.9165C11.7879 16.8593 11.771 16.804 11.7397 16.7628C11.7083 16.7216 11.6651 16.6978 11.6194 16.6968C11.5738 16.6958 11.5294 16.7175 11.4962 16.7572C11.463 16.797 11.4436 16.8514 11.4423 16.9087Z" fill="#313131"/>
<path d="M12.2015 24.3451C12.2005 24.3869 12.2131 24.4273 12.2366 24.4574C12.26 24.4875 12.2923 24.5048 12.3264 24.5056C12.3605 24.5064 12.3935 24.4905 12.4183 24.4615C12.4431 24.4325 12.4575 24.3928 12.4585 24.351C12.4594 24.3092 12.4468 24.2688 12.4234 24.2387C12.4 24.2086 12.3677 24.1912 12.3336 24.1904C12.2995 24.1897 12.2664 24.2055 12.2417 24.2345C12.2169 24.2635 12.2024 24.3033 12.2015 24.3451Z" fill="#501200"/>
<path d="M12.1468 25.7094C12.1458 25.7511 12.1585 25.7915 12.1819 25.8216C12.2053 25.8518 12.2376 25.8691 12.2717 25.8699C12.3058 25.8707 12.3388 25.8548 12.3636 25.8258C12.3884 25.7968 12.4028 25.757 12.4038 25.7152C12.4047 25.6734 12.3921 25.633 12.3687 25.6029C12.3453 25.5728 12.313 25.5555 12.2789 25.5547C12.2448 25.5539 12.2117 25.5698 12.187 25.5988C12.1622 25.6278 12.1477 25.6676 12.1468 25.7094Z" fill="#501200"/>
<path d="M12.1155 27.078C12.1146 27.1198 12.1272 27.1602 12.1506 27.1903C12.1741 27.2204 12.2064 27.2378 12.2404 27.2385C12.2745 27.2393 12.3076 27.2235 12.3324 27.1944C12.3571 27.1654 12.3716 27.1257 12.3725 27.0839C12.3735 27.0421 12.3609 27.0017 12.3374 26.9716C12.314 26.9415 12.2817 26.9241 12.2476 26.9233C12.2136 26.9226 12.1805 26.9384 12.1557 26.9674C12.131 26.9964 12.1165 27.0362 12.1155 27.078Z" fill="#501200"/>
</svg>
