<svg width="51" height="50" viewBox="0 0 51 50" fill="none" xmlns="http://www.w3.org/2000/svg">
<path d="M24.8332 14.3583C22.2564 14.3583 20.1694 12.3565 20.1694 9.88629C20.1694 7.41604 22.2564 5.43629 24.8332 5.43629C24.8332 5.37004 24.8299 5.39379 15.5697 5.39379C14.3697 5.40269 13.2219 5.88563 12.3765 6.73732C11.5311 7.58901 11.0566 8.74038 11.0566 9.94041C11.0566 11.1404 11.5311 12.2918 12.3765 13.1435C13.2219 13.9952 14.3697 14.4781 15.5697 14.487H24.8119C24.8119 14.3393 24.8034 14.3583 24.8332 14.3583Z" fill="#E7F4FF"/>
<path d="M26.0689 5.39307H24.8337C22.2569 5.39307 20.1699 7.43757 20.1699 9.88657C20.191 11.109 20.6919 12.2742 21.5643 13.1307C22.4368 13.9873 23.611 14.4665 24.8337 14.4651H26.0689C27.2637 14.4525 28.4053 13.9691 29.2457 13.1198C30.0861 12.2705 30.5575 11.1239 30.5575 9.92907C30.5575 8.73423 30.0861 7.58764 29.2457 6.73834C28.4053 5.88903 27.2637 5.40561 26.0689 5.39307Z" fill="#4D68A1"/>
<path d="M25.8562 14.2509C23.3432 14.2509 21.2989 12.2916 21.2989 9.88539C21.2989 7.47914 23.3432 5.51964 25.8562 5.51964C25.8844 5.51964 25.9115 5.50842 25.9315 5.48845C25.9515 5.46848 25.9627 5.44139 25.9627 5.41314C25.9627 5.3849 25.9515 5.35781 25.9315 5.33783C25.9115 5.31786 25.8844 5.30664 25.8562 5.30664C23.2154 5.30664 21.0859 7.35114 21.0859 9.88539C21.0859 12.3981 23.2154 14.4639 25.8562 14.4639C25.8844 14.4639 25.9115 14.4527 25.9315 14.4327C25.9515 14.4127 25.9627 14.3856 25.9627 14.3574C25.9627 14.3291 25.9515 14.3021 25.9315 14.2821C25.9115 14.2621 25.8844 14.2509 25.8562 14.2509Z" fill="white"/>
<path d="M16.209 25.211C18.7857 25.211 20.8727 27.2128 20.8727 29.683C20.8727 32.1533 18.7857 34.133 16.209 34.133C16.209 34.1993 16.212 34.1758 25.4725 34.1758C26.3673 34.1689 27.2402 33.8982 27.9819 33.3975C28.7236 32.8968 29.301 32.1884 29.642 31.361C29.9829 30.5337 30.0721 29.6241 29.8984 28.7462C29.7248 27.8684 29.296 27.0613 28.6657 26.426C27.8203 25.5744 26.6725 25.0915 25.4725 25.0825H16.2302C16.2302 25.23 16.2387 25.211 16.209 25.211Z" fill="#FFEDD0"/>
<path d="M14.9735 34.176H16.2085C18.7855 34.176 20.8725 32.1315 20.8725 29.6825C20.8514 28.46 20.3505 27.2948 19.478 26.4383C18.6055 25.5817 17.4312 25.1025 16.2085 25.104H14.9735C13.7705 25.1042 12.6169 25.5822 11.7663 26.4328C10.9157 27.2834 10.4377 28.437 10.4375 29.64C10.4376 30.843 10.9156 31.9967 11.7662 32.8473C12.6168 33.6979 13.7705 34.1759 14.9735 34.176Z" fill="#E02728"/>
<path d="M15.1866 25.3175C17.6993 25.3175 19.7438 27.2765 19.7438 29.683C19.7438 32.0895 17.7006 34.0485 15.1866 34.0485C15.1583 34.0485 15.1312 34.0597 15.1113 34.0797C15.0913 34.0997 15.0801 34.1267 15.0801 34.155C15.0801 34.1832 15.0913 34.2103 15.1113 34.2303C15.1312 34.2503 15.1583 34.2615 15.1866 34.2615C17.8271 34.2615 19.9568 32.2172 19.9568 29.683C19.9568 27.17 17.8271 25.1045 15.1866 25.1045C15.1584 25.1047 15.1314 25.1159 15.1113 25.1357C15.1013 25.1455 15.0934 25.1572 15.088 25.1702C15.0826 25.1831 15.0799 25.197 15.0801 25.211C15.0801 25.2392 15.0914 25.2663 15.1113 25.2862C15.1313 25.3062 15.1584 25.3174 15.1866 25.3175Z" fill="white"/>
<path d="M46.0654 36.6967C44.6404 36.6175 43.1799 36.45 42.6154 36.356C42.5379 36.8202 43.2291 38.8322 43.5311 39.5715C43.8259 40.2937 45.0379 44.0557 46.1716 45.215C46.9836 46.045 48.0466 45.9542 48.0466 45.64C48.1404 45.6407 46.0654 40.5702 46.0654 36.6967Z" fill="white"/>
<path d="M45.8758 24.4516C45.7693 23.4718 44.385 16.8063 43.8525 15.8693C43.3945 15.0781 42.8345 14.0831 41.8938 13.8403C41.7775 13.5071 41.4888 12.9733 41.4888 12.5473C41.2283 12.4168 41.2073 12.5383 40.8285 11.7806L40.722 11.7166C41.4888 11.5666 42.0425 10.6306 41.361 10.0131C41.2188 9.89762 41.0402 9.83637 40.8571 9.84026C40.674 9.84415 40.4982 9.91293 40.361 10.0343L40.2548 9.9491C39.5248 9.5281 39.5855 8.59085 39.9565 7.7556C39.9778 7.69185 40.0418 7.58535 39.9778 7.54285C39.838 7.4031 38.3093 7.63235 37.401 6.3501C37.1188 6.53835 37.1078 7.95835 36.5493 8.3306C36.2938 8.5011 35.463 8.2881 35.3993 8.35185C35.2928 8.50185 35.6973 8.92685 35.7613 9.09735C36.102 10.0973 35.5483 11.4823 36.1863 12.1223C36.9415 12.9006 38.3113 12.1388 38.699 14.0813C37.238 14.3063 37.1445 14.5408 37.1445 14.4436C35.9733 14.1878 33.1392 11.7473 32.7575 11.6751C32.6558 11.6558 32.6368 11.6923 32.566 11.6963C32.2038 10.8446 32.566 9.97135 32.7575 9.1196C32.7788 8.9696 32.9493 8.3316 32.6723 8.31035C32.2863 8.28535 32.0103 9.08735 31.7993 9.4391C31.7263 9.4026 32.2323 7.0626 31.7993 7.1816C31.2783 7.32485 31.0408 8.8381 30.926 9.35385C30.7713 9.35385 30.9818 6.8311 30.6493 6.9261C30.421 6.9546 30.1868 7.7121 30.1383 7.9056C29.8588 9.16335 30.0053 9.82235 29.8828 9.82235C29.7218 9.82235 29.5445 8.2856 29.5205 8.1186C29.5205 8.0761 29.478 7.62885 29.3503 7.6936C28.612 7.9621 29.2895 10.2703 29.3503 10.9091C29.3503 10.9731 28.3388 10.6116 28.3068 11.0368C28.271 11.5146 29.742 12.3028 30.2233 12.5063C31.1053 12.8738 30.9455 12.6941 31.0325 12.8683C30.9475 12.9323 30.9048 12.9748 30.926 12.9748C30.951 12.9748 31.9695 15.1646 31.9695 15.1896C30.8528 15.1896 27.9875 13.6943 27.8893 13.6556C27.6168 13.5483 27.359 13.4956 27.2893 13.6401C26.873 12.8246 25.5 9.8151 24.602 9.99335C24.2415 10.0653 24.9428 11.0583 25.027 11.1858C25.0483 11.2073 25.2825 11.5053 25.177 11.5268C24.677 11.5268 24.3688 11.0183 22.2808 10.8878C22.047 10.8666 21.8118 10.8666 21.578 10.8878C21.5072 10.8908 21.4379 10.9095 21.3753 10.9427C21.3126 10.9759 21.2582 11.0227 21.216 11.0796C20.962 11.5368 23.738 11.9498 23.6225 12.1231C23.5705 12.2268 23.1425 12.0806 21.9188 12.0806C21.1995 12.0806 20.6333 12.3556 21.216 12.5491C21.7585 12.7293 23.5373 12.9836 23.5373 13.0813C23.5373 13.1848 22.7428 13.1813 22.6003 13.2091C22.143 13.2418 21.2295 13.2883 21.0458 13.6776C20.8645 14.0613 22.55 14.0111 22.9208 13.9758C22.9633 13.9758 23.304 13.9118 23.3458 13.9758C23.4068 14.0973 21.7913 14.4008 21.7913 14.8701C21.9035 15.0571 22.983 14.9546 23.58 14.9128C24.1515 14.8728 24.6385 15.0326 26.2633 15.5728C26.1133 15.9563 25.9865 16.2543 25.9865 16.2978C25.9865 16.3193 30.5865 20.6848 35.953 20.4728C35.953 20.5006 36.243 25.5366 36.5918 26.5421C36.8953 27.1491 45.2418 27.2806 45.962 27.2876C46.016 27.2876 46.0045 27.3078 46.0045 27.2023C46.0023 27.1998 46.0023 25.6866 45.8758 24.4516Z" fill="white"/>
<path d="M43.0836 44.1716C42.8551 43.5091 42.0724 41.7929 41.6354 40.5716C41.3166 39.6814 40.2086 36.4024 40.2086 35.4819C39.2929 35.3966 37.9514 35.2689 37.0781 35.0986C37.0731 35.1236 39.7176 43.5594 41.3161 45.0436C41.9414 45.4356 43.6876 45.3796 43.0836 44.1716Z" fill="white"/>
<path d="M43.702 46.6002C43.8085 46.5574 43.8938 46.4937 43.9788 46.4502C44.014 46.4152 44.1845 46.4279 44.1288 46.2587C44.0885 46.1782 43.9433 46.2099 43.8945 46.2587C41.3195 47.5454 40.977 47.7284 40.977 48.0687C40.9756 48.083 40.9774 48.0974 40.9823 48.111C40.9871 48.1246 40.9949 48.1369 41.0051 48.1471C41.0153 48.1572 41.0276 48.165 41.0412 48.1699C41.0547 48.1748 41.0692 48.1765 41.0835 48.1752C41.2033 48.1752 41.1728 48.0857 41.2113 48.0474C41.2898 47.8114 41.658 47.6857 41.85 47.5577C41.875 47.5444 43.507 46.6844 43.5325 46.6844C43.5858 46.7379 43.6648 46.7447 43.7668 46.8974C44.0918 47.2224 44.1808 47.5364 44.2778 47.5364C44.61 47.5364 43.949 46.7639 43.702 46.6002Z" fill="white"/>
<path d="M44.2345 46.1733C44.2131 46.1887 44.1976 46.2108 44.1902 46.2361C44.1829 46.2614 44.1842 46.2884 44.194 46.3129C44.2037 46.3374 44.2214 46.3579 44.2441 46.3712C44.2668 46.3845 44.2934 46.3898 44.3195 46.3863C44.4022 46.4265 44.475 46.4845 44.5325 46.5565C44.8962 46.9203 44.8692 47.2815 45.0222 47.2815C45.3847 47.2805 44.471 46.0155 44.2345 46.1733Z" fill="white"/>
<path d="M39.1866 46.3436C39.1653 46.3223 39.1441 46.3223 39.1016 46.3223C39.0338 46.2211 38.9053 46.3436 38.9311 46.3436C38.9311 46.5026 39.0288 46.5353 39.1016 46.5353C39.1441 46.5778 39.2081 46.5993 39.2293 46.6418C39.5293 46.9418 39.4488 47.1528 39.6126 47.1528C39.9288 47.1528 39.4748 46.5361 39.1866 46.3436Z" fill="white"/>
<path d="M40.0604 46.1737C39.9827 46.0798 39.8889 46.0005 39.7834 45.9395C39.6129 45.8542 39.5021 46.0542 39.7409 46.1737C40.3034 46.7362 40.0921 46.834 40.3371 46.834C40.5159 46.7755 40.1934 46.3067 40.0604 46.1737Z" fill="white"/>
<path d="M44.7874 7.62801C44.6239 7.36826 44.3389 7.24576 44.1699 6.98926C43.8906 6.56426 43.7921 6.08926 43.4034 5.71151C41.6331 3.99101 39.7389 4.63901 38.5904 4.47626C37.9099 4.38001 37.2496 3.97876 36.6951 4.34851C36.4184 4.60401 36.5249 4.96601 36.4396 5.28551C36.4184 5.41326 36.3119 5.43551 36.2266 5.51976C35.7534 5.99326 35.9309 7.02551 37.0359 7.39476C37.1026 7.03843 37.2024 6.68909 37.3339 6.35126L37.3979 6.30876C38.3856 7.62576 39.8196 7.34626 39.9746 7.50126C40.0496 7.57626 39.9116 7.74001 39.7404 8.31051C39.6126 8.86426 39.6979 9.61051 40.2514 9.90776L40.3579 9.99301C40.4951 9.87165 40.6708 9.80289 40.8539 9.79895C41.037 9.79502 41.2156 9.85616 41.3579 9.97151C42.0394 10.5893 41.4856 11.5263 40.7189 11.6753L40.8254 11.739C40.9106 11.9308 41.0811 12.314 41.2726 12.4205C41.5504 12.6983 43.9634 10.8775 44.5309 10.1205C45.0249 9.46201 45.2761 8.40376 44.7874 7.62801Z" fill="#313131"/>
<path d="M37.9308 8.96973C37.5656 8.96973 37.4673 9.39473 37.5058 9.39473C37.5058 9.47878 37.5308 9.56095 37.5775 9.63084C37.6242 9.70073 37.6905 9.75521 37.7682 9.78737C37.8459 9.81954 37.9313 9.82796 38.0138 9.81156C38.0962 9.79516 38.1719 9.75468 38.2314 9.69525C38.2908 9.63581 38.3313 9.56008 38.3477 9.47764C38.3641 9.3952 38.3557 9.30974 38.3235 9.23209C38.2913 9.15443 38.2369 9.08805 38.167 9.04135C38.0971 8.99465 38.0149 8.96973 37.9308 8.96973Z" fill="#FFEDD0"/>
<path d="M48.2799 46.0879C48.1062 45.5972 48.1924 45.4867 47.9819 45.0657C47.1492 42.4907 46.1362 39.3862 46.1717 36.8244C46.4157 36.8244 46.5619 36.8957 46.6189 36.7817C46.9172 36.3347 46.5977 28.7107 46.0652 27.2624C46.1292 27.0282 46.0227 25.1329 45.9589 24.4517C45.8694 23.6644 44.6052 17.2094 43.8719 15.7417C43.4247 14.9749 42.8719 14.0167 41.9127 13.7612C41.9127 13.5302 41.5377 13.0269 41.5719 12.5474C41.5719 12.5192 41.5607 12.4921 41.5407 12.4721C41.5208 12.4521 41.4937 12.4409 41.4654 12.4409C41.4372 12.4409 41.4101 12.4521 41.3901 12.4721C41.3702 12.4921 41.3589 12.5192 41.3589 12.5474C41.4027 12.9481 41.5181 13.3376 41.6997 13.6974C40.7305 13.7178 39.7633 13.796 38.8034 13.9317C38.5692 12.7604 37.8452 12.5902 37.2062 12.4409C36.1589 12.1949 35.9429 11.9352 35.9924 10.6949C36.1865 10.7055 36.3808 10.677 36.5637 10.6111C36.7466 10.5452 36.9144 10.4433 37.0572 10.3114C37.1572 10.2144 37.0094 10.0654 36.9072 10.1614C36.7815 10.2764 36.6334 10.3642 36.4721 10.4192C36.3108 10.4741 36.14 10.4952 35.9702 10.4809C36.0494 8.65592 35.5634 8.87542 35.4589 8.45767C35.6839 8.45767 36.3197 8.61517 36.5877 8.43642C37.0832 8.11792 37.1019 7.32792 37.4182 6.43467C37.4224 6.42208 37.424 6.40879 37.4231 6.39555C37.4221 6.38232 37.4186 6.3694 37.4126 6.35754C37.4067 6.34568 37.3985 6.3351 37.3884 6.32641C37.3784 6.31773 37.3668 6.3111 37.3542 6.30692C37.3416 6.30273 37.3283 6.30107 37.3151 6.30202C37.3018 6.30297 37.2889 6.30652 37.2771 6.31246C37.2652 6.3184 37.2546 6.32662 37.2459 6.33665C37.2372 6.34668 37.2306 6.35833 37.2264 6.37092C36.9027 7.28617 36.9177 7.97517 36.4812 8.26617C36.2537 8.41767 35.4252 8.17617 35.3099 8.32992C35.1099 8.59667 35.6507 9.02117 35.6507 9.16042C35.9899 10.1299 35.4279 11.5197 36.0979 12.2272C36.8114 12.9954 38.2184 12.3374 38.5682 14.0159C38.084 14.0999 37.6071 14.2209 37.1414 14.3779C35.9664 14.1362 33.1057 11.6097 32.7119 11.6097C32.6692 11.6097 32.6479 11.6309 32.6267 11.6309C32.1089 10.3794 33.4542 8.42567 32.6479 8.22342C32.3284 8.20217 32.0942 8.60692 31.9229 8.90492C32.0022 8.37617 32.2119 6.96067 31.7099 7.11617C30.9809 7.34117 30.9007 9.42117 30.9007 8.43642C30.9007 8.04067 30.8582 7.39292 30.8582 7.39292C30.7374 6.30642 30.0332 6.84292 29.7934 9.11792C29.7934 9.83492 29.7497 9.47117 29.6229 8.52167C29.5607 8.14667 29.6042 7.77167 29.4099 7.62717C29.2664 7.55517 28.9062 7.70417 28.8564 8.50042C28.8214 9.48067 29.1282 10.1539 29.1757 10.8217C29.1507 10.8217 28.1537 10.5339 28.1537 11.0344C28.1324 11.3114 28.4517 11.5669 28.5787 11.6734C29.4477 12.3844 30.1192 12.5839 30.8362 12.8447C30.7579 12.9229 30.7479 12.9909 30.7934 13.0364C30.9449 13.3392 31.3579 14.4482 31.7304 15.0382C28.8192 14.4439 27.9524 13.1882 27.2804 13.4837C26.8184 12.5587 25.5602 9.67967 24.5334 9.84192C23.9372 9.99067 24.9834 11.3169 25.0019 11.3539C24.7309 11.2874 24.467 11.1947 24.2139 11.0772C23.3919 10.8384 20.7689 10.3522 21.0194 11.1624C21.0779 11.3507 21.4332 11.4817 21.4882 11.4817C21.8232 11.5992 22.1644 11.6989 22.5102 11.7799C23.8999 12.1022 22.5909 11.7627 21.4242 11.9299C20.8147 11.9299 20.5532 12.3494 21.1474 12.5477C21.7454 12.7477 22.9829 12.9117 23.0639 12.9522C20.5427 12.9522 19.8692 14.1379 22.8509 13.9957C22.8259 13.9957 21.5409 14.3669 21.6797 14.7834C21.6797 14.8049 21.7009 14.8049 21.7009 14.8262C21.7862 14.9762 22.0204 14.9762 22.1482 14.9967C22.6387 14.9978 23.1291 14.9764 23.6177 14.9327C24.4704 14.9012 25.2894 15.3149 26.1519 15.5502C25.9269 16.0727 25.8894 16.1752 25.9389 16.2752C25.9814 16.3179 30.4962 20.6409 35.8839 20.4919C35.9494 21.0152 36.1919 26.2079 36.5654 26.5824C36.3569 26.7902 35.8884 34.4172 36.2459 34.9302C36.2899 34.9932 36.4377 35.1007 37.0552 35.2072C37.0157 35.3252 37.0969 35.2259 37.6514 36.8894C38.2687 38.7409 39.9477 43.6119 41.2717 45.0457C37.5122 47.2292 36.8194 47.2137 36.6932 47.8142C36.5682 48.4392 37.7652 48.4317 38.4394 48.4317C40.7829 48.4317 41.0374 47.9494 41.0374 48.2817C41.4264 49.1567 46.5374 48.6014 47.4902 48.4519C47.7684 48.4519 48.4329 48.2904 48.5974 47.9409C48.7272 47.5362 48.5047 46.7227 48.2799 46.0879ZM46.5977 41.1474C45.9589 41.3392 44.7662 41.3392 44.1699 41.0622C44.0634 40.8067 43.9784 40.5512 43.8932 40.2954C43.5854 39.3732 43.0432 38.3482 42.7007 36.4837C43.7779 36.6104 44.6987 36.7457 45.9589 36.7817C45.9708 38.2593 46.1858 39.7283 46.5977 41.1474ZM30.9454 12.6537C30.1364 12.4149 29.3834 12.0167 28.7307 11.4824C28.2632 11.1074 28.4112 10.9764 28.4112 10.9502C28.6302 10.7752 29.4334 11.1687 29.4334 10.8862C29.3359 10.0592 28.7724 8.11517 29.3269 7.79842C29.4147 7.97342 29.4237 8.68617 29.5824 9.48067V9.50192C29.6249 9.71492 29.6677 9.90667 29.8379 9.92692C30.1744 9.92692 29.8129 8.91867 30.3704 7.43517C30.3704 7.38517 30.5264 7.05017 30.6047 7.03067C30.6532 7.14492 30.6749 7.26867 30.6684 7.39267C30.7749 9.09592 30.6104 9.44117 30.8814 9.47967C31.0082 9.47967 30.9599 9.45767 31.1369 8.67042C31.2142 8.32792 31.4564 7.39267 31.7759 7.28617C31.7759 7.28617 31.8184 7.32892 31.8184 7.58442C31.8184 8.86342 31.4987 9.43692 31.7119 9.52217C31.8494 9.59117 31.9822 9.22217 32.0314 9.07517C32.1379 8.88342 32.3934 8.37217 32.6064 8.39367C32.7389 8.39367 32.6064 9.04367 32.6064 9.09642C32.3492 10.1264 32.1034 10.9284 32.4147 11.6944C31.3732 12.3297 31.0902 12.6537 30.9454 12.6537ZM31.1797 13.2714C31.0217 12.9032 31.0019 12.9592 31.0732 12.8879C31.5777 12.4775 32.1144 12.1084 32.6782 11.7842C33.2414 11.9452 35.5464 14.0244 36.7832 14.4799C33.7127 15.6049 32.3039 15.0174 32.0314 15.0174C31.7972 14.7407 31.3924 13.7824 31.1797 13.2714ZM26.1324 15.3584C25.1719 15.1179 24.5219 14.6659 23.5557 14.6982C23.3989 14.7124 21.9874 14.8337 21.8522 14.6982C21.8522 14.6769 21.8522 14.5279 22.8104 14.1869C23.4477 13.9752 23.4067 13.8944 23.4067 13.8037C23.3282 13.6464 21.2262 13.8724 21.0854 13.5907C21.3649 13.0319 23.5557 13.3087 23.5557 12.9519C23.5557 12.6604 22.4557 12.7519 21.1707 12.3557C20.7777 12.2342 21.1929 12.2204 21.3624 12.1639C21.3934 12.1639 21.7712 12.1299 21.8307 12.1214C23.3234 12.1214 23.5274 12.3129 23.5984 12.1002C23.9319 11.7674 21.6542 11.5819 21.1707 11.1002C21.4872 10.6779 23.7577 11.1297 24.4289 11.3984C24.6394 11.4827 25.1477 11.7127 25.2167 11.5047C25.3587 11.2922 24.5354 10.6204 24.5354 10.0354C25.2912 9.86042 26.7307 12.8562 27.0482 13.5704C26.7714 13.8677 26.4094 14.6769 26.1324 15.3584ZM36.7592 26.4334C36.4187 26.4334 36.0804 20.8567 36.0564 20.4704C36.659 20.4376 37.2575 20.3521 37.8452 20.2149C37.8592 20.2121 37.8725 20.2066 37.8843 20.1987C37.8962 20.1907 37.9064 20.1806 37.9143 20.1687C37.9222 20.1568 37.9277 20.1435 37.9305 20.1295C37.9332 20.1156 37.9332 20.1012 37.9304 20.0872C37.9276 20.0732 37.9221 20.0599 37.9142 20.048C37.9063 20.0362 37.8961 20.026 37.8842 20.0181C37.8724 20.0102 37.859 20.0047 37.8451 20.0019C37.8311 19.9991 37.8167 19.9991 37.8027 20.0019C33.7239 21.0222 29.1462 18.9269 26.1112 16.1689C27.5032 12.6869 27.3112 13.5939 28.6879 14.1457C32.1782 15.8904 34.6212 15.5389 37.2277 14.5292C38.8027 13.9187 41.4054 13.8967 41.6429 13.9139C42.5527 13.9792 43.2167 14.9604 43.7269 15.8417C44.3722 17.1322 45.6519 23.5357 45.7584 24.4629C45.8649 25.5277 45.8744 26.7172 45.8744 27.0792C42.0412 27.0142 37.4192 26.8154 36.7592 26.4322V26.4334ZM37.9729 37.2942C37.2462 35.2024 37.3022 35.4942 37.2062 35.2072C38.4697 35.4339 40.1237 35.5142 40.1237 35.5692C40.2237 36.6442 41.1834 39.5252 41.5292 40.4884C40.7599 40.7128 39.9457 40.7348 39.1654 40.5524C38.7397 39.4652 38.3222 38.2984 37.9729 37.2929V37.2942ZM40.7627 43.9809C40.2021 42.9543 39.7043 41.8947 39.2719 40.8079C40.0507 40.9514 40.8519 40.9149 41.6144 40.7014C42.9812 44.4974 43.7144 44.8514 42.5514 45.1097C42.1264 45.1084 41.4702 45.4829 40.7627 43.9797V43.9809ZM41.1459 47.9207C41.3173 47.729 41.5279 47.5765 41.7634 47.4734C41.5324 47.5837 41.3233 47.7348 41.1459 47.9194V47.9207ZM44.0847 46.1744C44.0162 45.9519 43.4884 44.5994 43.4247 44.5994C43.3682 44.1482 42.6062 42.4302 42.5514 42.3209C41.6059 40.5482 40.4672 36.4774 40.3794 35.5709C40.9714 35.6132 41.0764 35.6829 41.1672 35.5922C41.3802 36.1247 41.4867 36.2524 41.5922 36.2737C41.9117 36.3377 42.2097 36.3802 42.5292 36.4237C42.5292 37.4237 44.8717 43.8367 46.0854 45.1762L44.0847 46.1744ZM47.9179 45.6847C46.3312 46.0674 45.4302 44.1772 44.8302 42.6597C44.7944 42.5697 44.4189 41.7334 44.2552 41.2967C45.0415 41.5092 45.8683 41.5239 46.6617 41.3394C47.2889 44.1627 48.0414 45.6834 47.9179 45.6834V45.6847Z" fill="#313131"/>
<path d="M39.954 10.6734C39.982 10.6771 40.0103 10.6705 40.0338 10.6549C40.0573 10.6392 40.0743 10.6156 40.0817 10.5884C40.0867 10.5524 40.0937 10.5169 40.103 10.4819C40.7335 9.43193 41.7265 10.1412 41.5085 10.8652C41.4454 11.0501 41.3359 11.2157 41.1905 11.3461C41.0451 11.4766 40.8686 11.5676 40.678 11.6104C40.6509 11.6172 40.6275 11.6342 40.6125 11.6578C40.5976 11.6815 40.5924 11.7099 40.5979 11.7373C40.6034 11.7647 40.6192 11.7889 40.6421 11.8049C40.6649 11.821 40.6931 11.8276 40.7207 11.8234C41.5887 11.6657 42.1377 10.5882 41.402 9.92818C40.6197 9.22643 39.5545 10.5404 39.954 10.6734Z" fill="#313131"/>
<path d="M37.25 8.20325C37.25 8.67225 37.6973 8.49425 37.6973 8.01175C37.729 7.65025 37.25 7.52525 37.25 8.20325Z" fill="#313131"/>
<path d="M29.0506 16.0826C27.8506 16.4969 27.7321 16.5119 27.7944 16.6361C27.8279 16.7034 27.8896 16.7001 27.9444 16.7001C29.1404 16.2731 29.2629 16.2709 29.2009 16.1464C29.1869 16.1202 29.1643 16.0996 29.137 16.088C29.1097 16.0764 29.0792 16.0745 29.0506 16.0826Z" fill="#313131"/>
<path d="M31.6274 16.5086C31.6162 16.5002 31.6035 16.4941 31.5899 16.4906C31.5764 16.4872 31.5623 16.4864 31.5484 16.4884C31.5346 16.4904 31.5213 16.4951 31.5092 16.5022C31.4972 16.5093 31.4867 16.5188 31.4783 16.53C31.4699 16.5412 31.4638 16.5539 31.4604 16.5674C31.4569 16.581 31.4561 16.5951 31.4581 16.6089C31.4601 16.6228 31.4648 16.6361 31.4719 16.6481C31.4791 16.6602 31.4885 16.6707 31.4997 16.6791C32.6317 17.5291 32.5307 17.4671 32.5859 17.4671C32.6029 17.4677 32.6198 17.4642 32.6351 17.4568C32.6504 17.4495 32.6637 17.4385 32.6739 17.4249C32.684 17.4113 32.6907 17.3954 32.6934 17.3786C32.6961 17.3619 32.6946 17.3447 32.6892 17.3286C32.6821 17.307 32.6683 17.2883 32.6497 17.2753L31.6274 16.5086Z" fill="#313131"/>
<path d="M34.3536 18.2548C34.3089 18.1208 34.0689 18.2218 34.1619 18.3613C34.7244 19.5761 34.6911 19.5753 34.8009 19.5753C35.0189 19.5753 34.8939 19.4433 34.3536 18.2548Z" fill="#313131"/>
<path d="M33.2662 14.5065C33.7559 13.2 33.7832 13.2315 33.6494 13.1862C33.5157 13.141 33.5514 13.1705 33.0744 14.4427C32.9949 14.562 33.2042 14.63 33.2662 14.5065Z" fill="#313131"/>
<path d="M38.8665 16.0616C38.8665 15.9156 38.7763 15.9698 37.4823 16.1893C37.3523 16.1893 37.3673 16.4021 37.5035 16.4021C37.5365 16.4021 37.844 16.3481 38.7813 16.1893C38.845 16.1678 38.8878 16.1253 38.8665 16.0616Z" fill="#313131"/>
<path d="M42.7223 16.3806C42.8583 16.3353 42.7973 16.3028 42.2323 15.0806C42.1878 14.9466 41.9476 15.0473 42.0408 15.1871C42.6503 16.4796 42.5636 16.3806 42.7223 16.3806Z" fill="#313131"/>
<path d="M40.9755 18.8503C40.9913 18.8373 41.0031 18.82 41.0094 18.8005C41.0156 18.781 41.0162 18.7601 41.0109 18.7403C41.0056 18.7205 40.9948 18.7027 40.9796 18.6889C40.9645 18.6751 40.9457 18.6659 40.9255 18.6625C40.8983 18.6581 40.8705 18.6644 40.8478 18.68C39.8933 19.3423 39.6695 19.44 39.7828 19.5533C39.8505 19.687 39.9908 19.5348 40.9755 18.8503Z" fill="#313131"/>
<path d="M37.2911 22.897C37.7251 21.6822 37.7988 21.6252 37.6531 21.5767C37.5193 21.5322 37.5513 21.5682 37.0993 22.8332C36.9996 22.9332 37.2246 23.0315 37.2911 22.897Z" fill="#313131"/>
<path d="M41.7631 24.196C41.8994 24.1508 41.8381 24.1183 41.2734 22.896C41.2289 22.762 40.9886 22.8628 41.0819 23.0025C41.6909 24.295 41.6046 24.196 41.7631 24.196Z" fill="#313131"/>
<path d="M42.658 20.853C43.9215 20.6387 44.0507 20.6652 43.9997 20.5122C43.9997 20.3662 43.9095 20.4207 42.6155 20.64C42.469 20.6887 42.508 20.853 42.658 20.853Z" fill="#313131"/>
<path d="M38.0158 25.7083C38.0158 25.8473 38.0543 25.845 39.4001 25.8788C39.4143 25.8796 39.4285 25.8775 39.4418 25.8724C39.4552 25.8674 39.4673 25.8596 39.4773 25.8495C39.4874 25.8394 39.4952 25.8273 39.5003 25.814C39.5053 25.8007 39.5074 25.7865 39.5066 25.7723C39.5066 25.6333 39.4681 25.6355 38.1223 25.6018C38.1081 25.6009 38.0938 25.603 38.0805 25.608C38.0671 25.613 38.055 25.6208 38.0448 25.6308C38.0348 25.6409 38.0271 25.6531 38.0221 25.6664C38.0171 25.6798 38.0149 25.694 38.0158 25.7083Z" fill="#313131"/>
<path d="M43.8081 26.3686C44.8291 25.5251 44.8726 25.5373 44.8081 25.4103C44.6948 25.2971 44.6391 25.4053 43.6793 26.1983C43.6624 26.211 43.6496 26.2284 43.6427 26.2484C43.6357 26.2683 43.6348 26.2899 43.6402 26.3104C43.6455 26.3308 43.6568 26.3492 43.6726 26.3633C43.6885 26.3773 43.7081 26.3863 43.7291 26.3891C43.7429 26.391 43.7571 26.3902 43.7706 26.3867C43.7842 26.3832 43.7969 26.377 43.8081 26.3686Z" fill="#313131"/>
<path d="M2.74997 5.71187C2.73424 5.70653 2.71744 5.70518 2.70105 5.70793C2.68467 5.71068 2.66923 5.71745 2.6561 5.72762C2.64297 5.7378 2.63258 5.75108 2.62583 5.76626C2.61909 5.78144 2.61622 5.79806 2.61747 5.81462C2.61885 5.83453 2.62609 5.85358 2.63828 5.86937C2.65047 5.88517 2.66707 5.897 2.68597 5.90337C3.40822 6.14762 7.80172 7.67112 8.11647 7.67112C8.34497 7.44237 8.27872 7.59862 2.74997 5.71187Z" fill="#313131"/>
<path d="M3.04848 3.15592C3.07348 3.17042 7.29848 5.44392 7.45673 5.56217C7.48448 5.59017 7.54648 5.60042 7.60673 5.54092C7.73173 5.41467 7.66023 5.43192 4.58173 3.73092C3.08948 2.90592 3.10673 2.90592 3.00673 3.00592C2.99614 3.01737 2.98865 3.03135 2.98499 3.04651C2.98132 3.06168 2.98159 3.07753 2.98577 3.09256C2.98996 3.10759 2.99791 3.1213 3.00889 3.13239C3.01986 3.14348 3.03349 3.15158 3.04848 3.15592Z" fill="#313131"/>
<path d="M9.45747 4.75339C9.28397 4.57839 9.13247 4.40339 8.54172 3.77364C6.04572 1.11714 6.17722 1.17639 6.07147 1.28214C6.06123 1.29177 6.05308 1.3034 6.04751 1.31629C6.04194 1.32919 6.03906 1.34309 6.03906 1.35714C6.03906 1.37119 6.04194 1.3851 6.04751 1.39799C6.05308 1.41089 6.06123 1.42251 6.07147 1.43214C7.11072 2.47139 9.25722 4.94589 9.39372 4.94589C9.44422 4.94489 9.49747 4.83289 9.45747 4.75339Z" fill="#313131"/>
<path d="M41.2954 35.4617C39.8339 31.7512 40.0834 29.8882 38.4419 29.5842C38.3779 29.5627 38.3354 29.6055 38.3142 29.6692C38.2299 29.9217 39.1232 29.7502 39.4854 30.7127C39.8334 31.6377 40.6474 34.4422 41.0827 35.547C41.1022 35.58 41.1164 35.616 41.1252 35.6535C41.1832 35.7692 41.3919 35.7297 41.3382 35.5682C41.3382 35.5432 41.3299 35.5652 41.2954 35.4617Z" fill="white"/>
</svg>
