<svg width="70" height="70" viewBox="0 0 70 70" fill="none" xmlns="http://www.w3.org/2000/svg">
<rect width="70" height="70" rx="10" fill="#E7F8FF"/>
<path d="M9.19735 39.4082H17.1863C18.7805 39.4082 18.9236 41.8472 17.165 41.957C9.14635 41.957 9.24445 41.9726 9.13315 41.9357C7.55605 41.693 7.75555 39.5114 9.19735 39.4082Z" fill="#FDAF31"/>
<path d="M9.3047 42.1066H17.1653C19.0841 42.1066 19.0415 39.2578 17.1866 39.2578L9.1868 39.2581C7.4258 39.3838 7.4768 42.1063 9.3047 42.1066ZM15.3233 41.8051L14.0402 41.8066L14.0789 39.5578H15.3641L15.3233 41.8051ZM15.6641 39.5578H16.8641L16.8254 41.8066H15.6236L15.6644 39.5578H15.6641ZM13.7399 41.8066C12.3284 41.8066 12.431 41.8195 12.4316 41.7892L12.4931 39.5578H13.7786L13.7399 41.8066ZM12.1319 41.7811C12.1307 41.8174 12.2873 41.8066 10.7846 41.8066L10.8233 39.5578H12.1928L12.1316 41.7811H12.1319ZM10.4846 41.8066H9.3044L9.3452 39.5578H10.5233L10.4846 41.8066ZM17.1248 41.8066L17.1635 39.5578C18.6506 39.5578 18.7103 41.8066 17.1248 41.8066ZM9.0449 39.5794L9.005 41.7733C7.9202 41.5183 7.9202 39.8068 9.0449 39.5794Z" fill="#414141"/>
<path d="M9.62435 42.0195H17.6133C19.2075 42.0195 19.3506 44.4585 17.592 44.5683C9.57335 44.5683 9.67145 44.5839 9.56015 44.547C7.98305 44.3043 8.18255 42.1227 9.62435 42.0195Z" fill="#FDAF31"/>
<path d="M9.7317 44.7179H17.5923C19.5111 44.7179 19.4685 41.8691 17.6136 41.8691L9.6138 41.8694C7.8528 41.9951 7.9038 44.7176 9.7317 44.7179ZM15.7503 44.4164L14.4672 44.4179L14.5059 42.1691H15.7911L15.7503 44.4164ZM16.0911 42.1691H17.2911L17.2524 44.4179H16.0506L16.0914 42.1691H16.0911ZM14.1669 44.4179C12.7554 44.4179 12.858 44.4308 12.8586 44.4005L12.9201 42.1691H14.2056L14.1669 44.4179ZM12.5589 44.3924C12.5577 44.4287 12.7143 44.4179 11.2116 44.4179L11.2503 42.1691H12.6198L12.5586 44.3924H12.5589ZM10.9116 44.4179H9.7314L9.7722 42.1691H10.9503L10.9116 44.4179ZM17.5518 44.4179L17.5905 42.1691C19.0776 42.1691 19.1373 44.4179 17.5518 44.4179ZM9.4719 42.1907L9.432 44.3846C8.3472 44.1296 8.3472 42.4181 9.4719 42.1907Z" fill="#414141"/>
<path d="M8.35677 44.6543H16.3458C17.94 44.6543 18.0831 47.0933 16.3245 47.2031C8.30577 47.2031 8.40387 47.2187 8.29257 47.1818C6.71547 46.9391 6.91497 44.7575 8.35677 44.6543Z" fill="#FDAF31"/>
<path d="M8.46413 47.3527H16.3247C18.2435 47.3527 18.2009 44.5039 16.346 44.5039L8.34623 44.5042C6.58523 44.6299 6.63623 47.3524 8.46413 47.3527ZM14.4827 47.0512L13.1996 47.0527L13.2383 44.8039H14.5235L14.4827 47.0512ZM14.8235 44.8039H16.0235L15.9848 47.0527H14.783L14.8238 44.8039H14.8235ZM12.8993 47.0527C11.4878 47.0527 11.5904 47.0656 11.591 47.0353L11.6525 44.8039H12.938L12.8993 47.0527ZM11.2913 47.0272C11.2901 47.0635 11.4467 47.0527 9.94403 47.0527L9.98273 44.8039H11.3522L11.291 47.0272H11.2913ZM9.64403 47.0527H8.46383L8.50463 44.8039H9.68273L9.64403 47.0527ZM16.2842 47.0527L16.3229 44.8039C17.81 44.8039 17.8697 47.0527 16.2842 47.0527ZM8.20433 44.8255L8.16443 47.0194C7.07963 46.7644 7.07963 45.0529 8.20433 44.8255Z" fill="#414141"/>
<path d="M7.63314 47.4512H15.6221C17.2163 47.4512 17.3594 49.8902 15.6008 50C7.58214 50 7.68024 50.0156 7.56894 49.9787C5.99184 49.736 6.19134 47.5544 7.63314 47.4512Z" fill="#FDAF31"/>
<path d="M7.74049 50.1496H15.6011C17.5199 50.1496 17.4773 47.3008 15.6224 47.3008L7.62259 47.3011C5.86159 47.4268 5.91259 50.1493 7.74049 50.1496ZM13.7591 49.8481L12.476 49.8496L12.5147 47.6008H13.7999L13.7591 49.8481ZM14.0999 47.6008H15.2999L15.2612 49.8496H14.0594L14.1002 47.6008H14.0999ZM12.1757 49.8496C10.7642 49.8496 10.8668 49.8625 10.8674 49.8322L10.9289 47.6008H12.2144L12.1757 49.8496ZM10.5677 49.8241C10.5665 49.8604 10.7231 49.8496 9.22039 49.8496L9.25909 47.6008H10.6286L10.5674 49.8241H10.5677ZM8.92039 49.8496H7.74019L7.78099 47.6008H8.95909L8.92039 49.8496ZM15.5606 49.8496L15.5993 47.6008C17.0864 47.6008 17.1461 49.8496 15.5606 49.8496ZM7.48069 47.6224L7.44079 49.8163C6.35599 49.5613 6.35599 47.8498 7.48069 47.6224Z" fill="#414141"/>
<path d="M8.7806 50.166H16.7696C18.3638 50.166 18.5069 52.605 16.7483 52.7148C8.7296 52.7148 8.8277 52.7304 8.7164 52.6935C7.1393 52.4508 7.3388 50.2692 8.7806 50.166Z" fill="#FDAF31"/>
<path d="M8.88795 52.8644H16.7486C18.6674 52.8644 18.6248 50.0156 16.7699 50.0156L8.77005 50.0159C7.00905 50.1416 7.06005 52.8641 8.88795 52.8644ZM14.9066 52.5629L13.6235 52.5644L13.6622 50.3156H14.9474L14.9066 52.5629ZM15.2474 50.3156H16.4474L16.4087 52.5644H15.2069L15.2477 50.3156H15.2474ZM13.3232 52.5644C11.9117 52.5644 12.0143 52.5773 12.0149 52.547L12.0764 50.3156H13.3619L13.3232 52.5644ZM11.7152 52.5389C11.714 52.5752 11.8706 52.5644 10.3679 52.5644L10.4066 50.3156H11.7761L11.7149 52.5389H11.7152ZM10.0679 52.5644H8.88765L8.92845 50.3156H10.1066L10.0679 52.5644ZM16.7081 52.5644L16.7468 50.3156C18.2339 50.3156 18.2936 52.5644 16.7081 52.5644ZM8.62815 50.3372L8.58825 52.5311C7.50345 52.2761 7.50345 50.5646 8.62815 50.3372Z" fill="#414141"/>
<path d="M24.5615 52.7701C24.5504 52.5946 24.2894 52.5781 24.2633 52.7581C24.1304 52.7581 22.3799 52.9213 20.1491 52.7344C20.1563 52.5145 19.8572 52.51 19.8497 52.7095C19.841 52.9435 19.829 53.7241 20.0369 53.9419C20.1275 54.037 20.2079 54.0226 20.3798 54.0226C21.4853 54.0226 23.9888 53.9329 24.3905 53.9131C24.7067 53.8681 24.5936 53.2789 24.5618 52.7698L24.5615 52.7701Z" fill="#7BD2FF"/>
<path d="M46.1296 52.3348C46.1282 52.3147 46.1228 52.2951 46.1136 52.2772C46.1045 52.2592 46.0918 52.2433 46.0764 52.2304C46.061 52.2175 46.0431 52.2078 46.0239 52.2019C46.0046 52.196 45.9844 52.194 45.9644 52.1961C45.9444 52.1982 45.925 52.2043 45.9074 52.2141C45.8898 52.2238 45.8743 52.237 45.8619 52.2528C45.8495 52.2687 45.8404 52.2869 45.8352 52.3063C45.8299 52.3257 45.8286 52.346 45.8314 52.366V52.3711C45.6502 52.5118 42.4687 52.6153 41.7598 52.5034C41.7367 52.3126 41.449 52.3381 41.4613 52.531C41.4619 52.5418 41.5336 53.6317 41.5972 53.7898C41.6296 53.8876 41.6479 53.9425 42.445 53.9425C43.2484 53.9425 44.6302 53.8936 45.4435 53.8201C46.018 53.7682 46.1302 53.7322 46.1512 53.5789C46.1758 53.1148 46.1686 52.7077 46.1293 52.3345L46.1296 52.3348Z" fill="#7BD2FF"/>
<path d="M49.3647 31.4685C47.6511 29.0055 44.7819 26.3907 42.1038 25.0215C35.9373 21.8691 27.1323 22.0443 21.0495 25.4286L17.4084 22.9869C17.4084 22.9869 15.5025 21.5946 15.6093 24.7005C15.7167 27.8277 17.2584 28.4487 17.2584 28.4487C15.5532 30.3435 15.4962 31.599 14.4954 32.7537C13.3329 34.0953 10.1019 33.3423 9.65486 35.2596C9.53546 35.7711 9.53696 36.2865 9.59066 36.8016C9.76076 38.4354 9.86336 39.7173 10.2975 40.3572C11.1984 41.6844 13.5255 40.335 14.6241 41.1069C15.1446 41.4726 15.1023 42.6927 16.0806 44.598C16.899 46.1919 18.6972 47.0595 19.4433 48.6246C19.8306 49.4376 19.9359 51.816 20.0217 52.6941C20.0217 52.7592 23.8932 52.911 24.3696 52.6728C24.6696 52.3728 24.0972 50.6463 24.648 50.2311C24.843 50.0841 29.853 51.3147 33.0012 51.2163C37.2426 51.0837 38.7432 50.4306 40.1121 50.0598C41.742 49.6182 41.3115 51.5376 41.6328 52.4373C41.8173 52.6218 45.6363 52.5027 45.8307 52.3515C46.7826 51.3996 46.086 49.6905 47.1159 48.7959C47.3913 48.5568 51.0624 45.4533 51.5709 38.9649C51.7992 36.0513 51.0783 33.9315 49.3647 31.4685Z" fill="#7BD2FF"/>
<path d="M49.5091 31.3816C47.7094 28.7836 44.8375 26.2336 42.193 24.8866C36.001 21.7315 27.0781 21.9127 20.9758 25.3174C20.958 25.3267 20.9423 25.3394 20.9296 25.3549C20.9169 25.3704 20.9073 25.3882 20.9016 25.4074C20.8959 25.4266 20.8941 25.4468 20.8963 25.4667C20.8985 25.4866 20.9046 25.5059 20.9144 25.5234C20.9241 25.5409 20.9373 25.5562 20.9531 25.5685C20.9689 25.5809 20.987 25.5899 21.0063 25.5951C21.0257 25.6003 21.0459 25.6016 21.0657 25.5989C21.0856 25.5962 21.1047 25.5895 21.1219 25.5793C27.1429 22.2205 35.9473 22.0414 42.0565 25.1536C44.62 26.4598 47.5156 29.0314 49.2622 31.5526C51.0466 34.1284 51.6577 36.2089 51.4423 38.9731C50.9887 44.7883 47.9785 47.8705 47.0671 48.6772C45.9634 49.6543 46.6054 51.5632 45.7663 52.2469C45.427 52.3762 42.2605 52.4563 41.7787 52.3537C41.5825 51.6682 41.746 50.4601 41.1073 50.0188C40.1743 49.3741 39.3091 50.884 33.0172 51.0862C29.6641 51.1951 24.8953 49.9138 24.5842 50.1271C23.9275 50.5768 24.4804 52.21 24.2947 52.57C23.8423 52.7197 20.7811 52.6642 20.1796 52.5913C20.0773 51.6346 19.9873 49.3933 19.5997 48.58C18.8371 46.9801 17.0335 46.0936 16.2346 44.5489C15.8461 43.7977 15.4945 42.8038 15.2767 42.007C15.1807 41.6554 15.061 41.2177 14.7268 41.0008C13.5391 40.2298 11.2852 41.5234 10.4425 40.2922C10.1365 39.8458 10.0498 39.2047 9.97329 38.6392C9.89949 38.0917 9.78969 37.4797 9.76089 36.8029C9.69369 36.2662 9.71379 35.779 9.82239 35.3137C10.0441 34.3633 11.035 34.1209 12.1123 33.8959C12.1615 34.3333 12.3583 35.821 12.5494 36.745C12.5583 36.783 12.5818 36.8161 12.6147 36.8371C12.6476 36.8581 12.6875 36.8655 12.7257 36.8576C12.764 36.8497 12.7976 36.8272 12.8196 36.7948C12.8415 36.7625 12.8499 36.7229 12.8431 36.6844C12.6415 35.7112 12.4456 34.1755 12.4072 33.8347C12.7621 33.7603 13.1179 33.6811 13.4494 33.5722C13.5283 34.1443 13.9219 35.8444 14.0074 36.1741C14.018 36.2118 14.043 36.2439 14.077 36.2635C14.111 36.283 14.1513 36.2885 14.1893 36.2787C14.2272 36.2689 14.2599 36.2446 14.2801 36.211C14.3004 36.1774 14.3068 36.1373 14.2978 36.0991C14.1805 35.6473 13.7725 33.8422 13.738 33.4669C15.5113 32.7418 15.2728 30.9469 17.4073 28.5748L17.4502 28.5319C17.4783 28.5037 17.4941 28.4655 17.4941 28.4257C17.494 28.3859 17.4782 28.3478 17.45 28.3196C17.4219 28.2915 17.3837 28.2757 17.3439 28.2758C17.3041 28.2758 17.2659 28.2916 17.2378 28.3198L17.1898 28.3684C15.4639 30.286 15.3808 31.5784 14.4049 32.674C13.2664 33.952 10.006 33.2059 9.53019 35.2456C9.41349 35.746 9.39159 36.2677 9.46209 36.8281C9.48369 37.3462 9.55599 37.8607 9.63489 38.3863C9.73539 39.0547 9.79119 39.8725 10.195 40.462C11.1679 41.8828 13.4941 40.5592 14.5636 41.2528C14.8489 41.4376 14.9395 41.9389 15.0373 42.2626C15.829 44.8957 16.3378 45.4432 17.6728 46.7128C19.5232 48.4726 19.5601 48.7132 19.8118 51.8287C19.8844 52.7311 19.8799 52.7914 19.9669 52.8454C20.182 52.9783 24.0349 53.0383 24.4579 52.8271C24.9016 52.6033 24.2719 50.7757 24.733 50.3908C25.2715 50.3773 30.0151 51.4837 33.0271 51.3862C39.2965 51.1849 40.1881 49.7491 40.9372 50.266C41.5171 50.6668 41.257 52.4413 41.608 52.6129C41.8846 52.7479 45.6445 52.7233 45.9442 52.4899C46.9297 51.7135 46.2748 49.792 47.2378 48.9274C49.525 46.8742 51.4006 43.3714 51.742 38.9965C51.9634 36.1558 51.3376 34.0207 49.5097 31.3816H49.5091Z" fill="black"/>
<path d="M17.2027 28.5877C17.1352 28.5607 15.5464 27.8932 15.4588 24.7042C15.4276 23.5651 15.6547 22.8619 16.1335 22.6141C16.735 22.3024 17.467 22.8433 17.4979 22.8664L21.1543 25.3249C21.1873 25.3471 21.2101 25.3815 21.2178 25.4206C21.2254 25.4596 21.2173 25.5001 21.1951 25.5331C21.1841 25.5495 21.17 25.5635 21.1536 25.5744C21.1371 25.5853 21.1187 25.5928 21.0994 25.5966C21.0604 25.6043 21.0199 25.5961 20.9869 25.5739L17.3245 23.1109C17.3122 23.1019 16.7047 22.6558 16.2709 22.8808C15.9085 23.0689 15.7315 23.6965 15.7588 24.6958C15.8407 27.6895 17.2987 28.3027 17.3134 28.3087C17.4955 28.381 17.3893 28.6615 17.2027 28.5877Z" fill="black"/>
<path d="M21.4982 36.2656C22.3334 36.2656 23.0189 36.7153 23.0189 37.2724C23.0189 37.8295 22.3334 38.2792 21.4982 38.2792C20.663 38.2792 19.9775 37.8295 19.9775 37.2724C19.9775 36.7153 20.663 36.2656 21.4982 36.2656Z" fill="black"/>
<path d="M57.4702 28.6025C57.4537 28.5669 57.4239 28.5392 57.3871 28.5253C57.3503 28.5114 57.3096 28.5125 57.2737 28.5283C57.2377 28.5442 57.2094 28.5735 57.1948 28.61C57.1803 28.6465 57.1806 28.6872 57.1957 28.7234C58.0855 30.7421 57.8077 33.6833 55.6177 34.1003C55.6466 33.69 55.6017 33.2778 55.4851 32.8832C55.3042 32.2616 54.6808 31.4351 53.9893 31.1834C53.1817 30.89 52.3441 31.4981 52.45 32.2844C52.5553 33.0647 53.7121 34.4456 55.105 34.4456C55.1581 34.4456 55.2112 34.4441 55.2637 34.4411C54.8977 36.2114 53.1673 37.2536 51.5989 36.0404C51.5834 36.0277 51.5655 36.0181 51.5462 36.0124C51.527 36.0067 51.5067 36.0049 51.4868 36.0071C51.4668 36.0094 51.4475 36.0156 51.43 36.0255C51.4124 36.0353 51.3971 36.0486 51.3848 36.0645C51.3725 36.0804 51.3636 36.0986 51.3584 36.1181C51.3533 36.1375 51.3522 36.1578 51.3551 36.1777C51.3579 36.1975 51.3648 36.2167 51.3752 36.2338C51.3856 36.251 51.3993 36.266 51.4156 36.2777C53.1934 37.6535 55.2115 36.4457 55.5751 34.4102C58.0606 34.0088 58.4602 30.8474 57.4702 28.6019V28.6025ZM52.7473 32.2448C52.6723 31.6877 53.2855 31.2473 53.8867 31.4657C54.4711 31.6781 55.036 32.4137 55.1971 32.9672C55.3108 33.3587 55.3507 33.761 55.3135 34.1378C53.8771 34.2515 52.8304 32.8622 52.7473 32.2448Z" fill="#7BD2FF"/>
<path d="M22.6883 34.1888C22.4027 34.208 21.6269 34.2404 21.5075 34.2473C21.4961 34.0411 21.4754 33.8356 21.4457 33.6314C21.6473 33.467 22.4684 33.0047 22.7345 32.8379C22.7512 32.8274 22.7657 32.8138 22.7771 32.7978C22.7885 32.7817 22.7967 32.7636 22.8011 32.7444C22.8056 32.7252 22.8062 32.7053 22.8029 32.6859C22.7997 32.6665 22.7926 32.6479 22.7822 32.6312C22.7717 32.6145 22.7581 32.6 22.7421 32.5885C22.726 32.5771 22.7079 32.5689 22.6887 32.5645C22.6695 32.5601 22.6496 32.5595 22.6302 32.5627C22.6108 32.566 22.5922 32.573 22.5755 32.5835C22.352 32.723 21.6938 33.0959 21.3875 33.3038C21.1976 32.4014 20.8067 31.7921 20.2187 31.4852C19.5878 31.1561 18.95 31.2476 18.4223 31.7429C17.6087 32.507 17.2436 34.049 17.6564 34.9775C17.6725 35.0138 17.7025 35.0423 17.7396 35.0566C17.7767 35.0709 17.818 35.0698 17.8544 35.0537C17.8907 35.0375 17.9192 35.0076 17.9335 34.9704C17.9478 34.9333 17.9467 34.892 17.9306 34.8557C17.3735 33.6026 18.4841 30.9179 20.0801 31.7513C21.0857 32.2757 21.2426 33.8483 21.2204 34.9781C21.2198 35.0117 21.2447 35.1311 21.3704 35.1311C21.4097 35.1311 21.4474 35.1157 21.4754 35.0882C21.5034 35.0607 21.5196 35.0233 21.5204 34.9841C21.5234 34.8338 21.5231 34.688 21.5198 34.5467C21.7541 34.5359 22.4531 34.5053 22.7084 34.4885C22.904 34.4753 22.8893 34.1789 22.6886 34.1891L22.6883 34.1888Z" fill="black"/>
<path d="M33.9364 19.9171C31.6762 17.0947 28.1074 16.3039 25.9675 18.1171C22.1005 21.3934 23.3842 25.9294 26.4154 28.4734C29.6401 31.1806 33.2764 30.0025 34.9114 27.5224C36.1591 25.6297 36.0355 22.5379 33.9364 19.9171Z" fill="#FDAF31"/>
<path d="M28.4824 16.9572C26.1976 17.0661 24.1075 19.4562 23.6014 21.1197C22.1845 25.7787 27.6739 31.7907 32.1799 29.8389C39.6025 26.6238 34.507 16.6704 28.4824 16.9572ZM24.6862 19.6962C24.4726 20.2117 24.341 20.7574 24.2962 21.3135L23.8189 21.5043C23.9809 20.8484 24.2762 20.2328 24.6865 19.6959H24.6862V19.6962ZM26.6737 28.4781C27.6166 28.0701 27.5557 28.1004 27.583 28.0737C28.0017 28.3826 28.4484 28.6514 28.9174 28.8765L28.048 29.349C27.5579 29.1126 27.0967 28.8204 26.6737 28.4781ZM26.4163 28.2627C26.0917 27.9787 25.7879 27.6717 25.5073 27.3441L26.3614 26.9337C26.6383 27.2658 26.9614 27.5811 27.3205 27.8712L26.416 28.263H26.4163V28.2627ZM25.318 27.1023C25.0912 26.8061 24.8827 26.4964 24.6937 26.1747L25.4779 25.761C25.6785 26.0922 25.9075 26.4052 26.1625 26.6964L25.3177 27.1023H25.318ZM24.0358 24.7449L24.8218 24.4662C24.9668 24.8222 25.135 25.1682 25.3252 25.5021L24.5464 25.9131C24.3441 25.5386 24.1733 25.1478 24.0358 24.7449ZM24.3376 22.6932L23.6797 22.9425C23.6611 22.5765 23.6839 22.2123 23.7448 21.8568L24.2773 21.6444C24.2683 21.9952 24.2883 22.3461 24.3373 22.6935H24.3376V22.6932ZM23.7049 23.2542L24.3868 22.9956C24.4629 23.4008 24.5723 23.7989 24.7138 24.186L23.9452 24.459C23.8294 24.0653 23.749 23.662 23.7049 23.2539V23.2542ZM28.3948 29.502C29.2756 29.0232 29.2225 29.0571 29.248 29.0268C29.774 29.251 30.3313 29.3931 30.9004 29.4483C30.3685 29.7897 30.2185 29.8848 30.202 29.8995C29.6041 29.8764 29.0014 29.7474 28.3948 29.5023V29.502ZM30.7759 29.8848C31.4023 29.4828 31.3906 29.4936 31.4137 29.4708C31.7794 29.4687 32.1436 29.4245 32.4991 29.3391C31.9879 29.6433 31.4023 29.829 30.7762 29.8851H30.7759V29.8848ZM34.0771 28.2192C32.8159 29.2848 30.9655 29.4696 29.248 28.6998C27.6784 27.9963 26.4586 26.8482 25.6417 25.4508C24.3058 23.1648 24.205 20.8323 25.3651 19.0509C27.3316 16.0329 31.5418 17.1171 33.8386 20.0019C36.0475 22.7763 36.1546 26.4627 34.0771 28.2189V28.2192Z" fill="#414141"/>
<path d="M29.5396 22.4877C29.2237 22.5138 29.2639 22.509 29.0317 22.5246C28.6816 22.548 28.0954 22.5885 27.9772 22.2738C27.871 21.9912 28.2475 21.6456 28.4143 21.51C29.1127 20.9433 29.9647 20.8089 30.844 20.8266C31.459 20.8389 31.6444 20.9145 31.6918 20.9766C31.8127 21.1341 32.0506 20.9517 31.93 20.7942C31.7614 20.574 31.3111 20.5362 30.8497 20.5272C30.3574 20.517 29.9092 20.5437 29.4151 20.6802C29.2552 20.2665 28.7986 19.212 28.7782 19.1646C28.7624 19.1281 28.7327 19.0993 28.6957 19.0847C28.6586 19.0701 28.6173 19.0708 28.5808 19.0866C28.5443 19.1024 28.5155 19.1321 28.5009 19.1691C28.4863 19.2062 28.487 19.2475 28.5028 19.284C28.5079 19.296 28.9657 20.3529 29.1289 20.772C28.45 21.0204 27.4462 21.7125 27.6964 22.3794C27.9232 22.9836 28.8484 22.8459 29.5642 22.7874C30.7384 22.6902 32.7043 22.5282 32.9113 23.8458C33.0157 24.5109 31.7563 24.8808 31.1431 24.9408C30.4018 25.0122 29.6002 24.9588 28.7608 24.7809C28.7415 24.7768 28.7217 24.7766 28.7023 24.7802C28.683 24.7839 28.6645 24.7913 28.648 24.802C28.6315 24.8128 28.6173 24.8267 28.6062 24.8429C28.5951 24.8592 28.5873 24.8774 28.5832 24.8967C28.5791 24.916 28.5789 24.9358 28.5825 24.9552C28.5862 24.9745 28.5936 24.993 28.6043 25.0095C28.6151 25.026 28.629 25.0402 28.6452 25.0513C28.6615 25.0624 28.6797 25.0702 28.699 25.0743C29.5186 25.2477 30.3052 25.3071 31.0396 25.2504C31.1281 25.7208 31.5556 26.7099 31.5613 26.7213C31.651 26.9001 31.9183 26.7639 31.8298 26.5869C31.6822 26.2923 31.4059 25.509 31.3318 25.2192C31.6342 25.1742 31.96 25.083 32.2846 24.9522C32.8216 24.7332 33.2983 24.372 33.208 23.799C32.9578 22.206 30.7342 22.3893 29.5399 22.488H29.5396V22.4877Z" fill="white"/>
<path d="M41.7594 19.0244C40.8072 15.536 37.8468 13.3919 35.1624 14.2055C30.3117 15.6749 29.6868 20.3474 31.4571 23.8865C33.3399 27.6527 37.1451 28.0169 39.6312 26.3909C41.5284 25.1501 42.6438 22.2638 41.7594 19.0247V19.0244Z" fill="#FDAF31"/>
<path d="M37.9312 14.1409C35.7913 13.3327 32.9233 14.6953 31.798 16.0207C28.6459 19.7329 31.294 27.4312 36.2041 27.4312C44.293 27.4312 43.5733 16.2724 37.9312 14.1409ZM33.3592 15.1453C32.9583 15.5333 32.6206 15.9818 32.3584 16.4743L31.8445 16.4599C32.2538 15.9223 32.7694 15.4748 33.3592 15.1453ZM31.6924 23.9938C32.7199 23.9938 32.6518 23.998 32.6875 23.9842C32.949 24.434 33.2522 24.8582 33.5929 25.2514L32.6074 25.3393C32.2517 24.9274 31.9447 24.476 31.6924 23.9938ZM31.5418 23.6938C31.3568 23.3042 31.2001 22.9017 31.0729 22.4896L32.02 22.4524C32.1483 22.8817 32.3183 23.2975 32.5276 23.6938H31.5418ZM30.9952 22.1926C30.9048 21.8306 30.8366 21.4634 30.7909 21.0931L31.675 21.025C31.7548 21.583 31.8664 21.9517 31.9315 22.1557L30.9949 22.1926H30.9952ZM30.7558 19.5196L31.5877 19.5763C31.5793 19.9606 31.5961 20.345 31.6378 20.7271L30.7597 20.7946C30.7228 20.3704 30.7214 19.9439 30.7555 19.5196H30.7558ZM31.8484 17.7574L31.1458 17.7244C31.2742 17.3812 31.4398 17.056 31.6372 16.7542L32.2105 16.771C32.0628 17.0893 31.9417 17.4193 31.8487 17.7577L31.8484 17.7574ZM31.045 18.0202L31.7734 18.0541C31.6823 18.4561 31.6244 18.865 31.6003 19.2766L30.7867 19.2211C30.8377 18.811 30.9235 18.4102 31.045 18.0202ZM32.8651 25.6177C33.8635 25.5286 33.8014 25.5385 33.8368 25.5208C34.2305 25.9355 34.6853 26.2873 35.1856 26.5642C34.5619 26.6662 34.3864 26.6938 34.3657 26.7007C33.8263 26.4418 33.3247 26.0839 32.8654 25.6177H32.8651ZM34.8979 26.9155C35.6326 26.7952 35.6173 26.8009 35.6479 26.7889C35.9896 26.9338 36.3412 27.0379 36.6961 27.0997C36.106 27.1756 35.4949 27.1132 34.8982 26.9155H34.8979ZM38.5891 26.6992C37.0081 27.1759 35.2369 26.6098 33.9667 25.2208C32.806 23.9512 32.143 22.4128 31.9486 20.806C31.6312 18.1774 32.4658 15.9967 34.2385 14.8234C37.2424 12.8356 40.675 15.5038 41.6359 19.0639C42.5602 22.4878 41.1931 25.9129 38.5888 26.6989H38.5891V26.6992Z" fill="#414141"/>
<path d="M36.7035 19.6353C36.4035 19.5339 36.4419 19.5453 36.2226 19.4673C35.892 19.3497 35.3382 19.1538 35.3547 18.8178C35.3697 18.5163 35.8524 18.3489 36.0594 18.2907C36.9255 18.0483 37.7607 18.2637 38.5605 18.6291C39.1197 18.8847 39.2601 19.0281 39.279 19.1037C39.3273 19.2963 39.6183 19.2237 39.57 19.0311C39.5028 18.7623 39.1047 18.5481 38.685 18.3561C38.2371 18.1518 37.8153 17.9979 37.3077 17.9268C37.3254 17.4834 37.3257 16.3347 37.3257 16.2828C37.3257 16.243 37.3099 16.2049 37.2817 16.1767C37.2536 16.1486 37.2155 16.1328 37.1757 16.1328C37.1359 16.1328 37.0977 16.1486 37.0696 16.1767C37.0415 16.2049 37.0257 16.243 37.0257 16.2828C37.0257 16.2954 37.0257 17.4474 37.0089 17.8968C36.2871 17.8548 35.091 18.0912 35.0556 18.8028C35.0235 19.4475 35.9271 19.6887 36.6075 19.9194C37.7235 20.2974 39.5916 20.9298 39.258 22.2213C39.0894 22.8729 37.7868 22.7121 37.2003 22.5231C36.4914 22.2942 35.7774 21.9261 35.0778 21.4296C35.0453 21.4077 35.0056 21.3993 34.967 21.4063C34.9285 21.4133 34.8942 21.4351 34.8715 21.467C34.8488 21.4989 34.8395 21.5385 34.8456 21.5772C34.8517 21.6159 34.8727 21.6507 34.9041 21.6741C35.5872 22.1592 36.2856 22.5261 36.9819 22.7661C36.876 23.2329 36.8754 24.3102 36.8757 24.3231C36.8871 24.5229 37.1862 24.504 37.1754 24.3063C37.1571 23.9772 37.2147 23.1489 37.2621 22.8534C37.5573 22.9323 37.893 22.9782 38.2428 22.9869C38.8227 22.9998 39.4035 22.8576 39.5484 22.296C39.9519 20.7348 37.8387 20.019 36.7038 19.635H36.7035V19.6353Z" fill="white"/>
<path d="M57.5444 18.8373C57.5402 18.7978 57.5206 18.7615 57.4898 18.7364C57.459 18.7113 57.4195 18.6994 57.38 18.7032C56.897 18.7524 54.7199 18.9066 54.6149 18.9141C54.5108 17.8092 54.4394 16.8081 54.4673 16.6263C54.5366 16.4829 54.3629 16.3443 54.2384 16.4439C54.1178 16.5408 54.1952 17.7087 54.3155 18.9357C51.6977 19.1217 51.6962 19.1328 51.6707 19.2945C51.6506 19.4244 51.8084 19.5315 51.9206 19.4409C52.1669 19.3941 53.2703 19.311 54.3455 19.2345C54.4697 20.4474 54.623 21.6375 54.6557 21.8334C54.6622 21.8727 54.6841 21.9078 54.7164 21.9309C54.7488 21.9541 54.7891 21.9634 54.8283 21.9569C54.8676 21.9504 54.9027 21.9285 54.9258 21.8961C54.949 21.8638 54.9583 21.8235 54.9518 21.7842C54.8591 21.228 54.7409 20.2047 54.644 19.2132C54.7517 19.2057 56.9234 19.0518 57.4109 19.0023C57.4305 19.0004 57.4495 18.9945 57.4669 18.9852C57.4842 18.9758 57.4995 18.9632 57.512 18.9479C57.5244 18.9327 57.5338 18.9151 57.5394 18.8962C57.5451 18.8773 57.547 18.8575 57.545 18.8379L57.5444 18.8373Z" fill="black"/>
<path d="M63.553 24.9451L61.2178 24.0685C61.4605 23.0887 61.7419 21.9664 61.8415 21.7939C61.9678 21.6859 61.8493 21.4813 61.6915 21.5395C61.5517 21.592 61.4728 21.7975 60.9352 23.962C59.9674 23.5972 59.0863 23.2624 58.957 23.2045C58.8769 23.1505 58.744 23.2012 58.7257 23.3029C58.6996 23.4463 58.6957 23.4373 60.8626 24.2554C60.6388 25.1596 60.4096 26.083 60.2518 26.5825C60.2399 26.6205 60.2435 26.6616 60.2619 26.6969C60.2803 26.7322 60.312 26.7587 60.3499 26.7706C60.3879 26.7826 60.429 26.7789 60.4643 26.7605C60.4996 26.7421 60.5261 26.7105 60.538 26.6725C60.6967 26.1706 60.9235 25.2592 61.1455 24.3616C63.6058 25.285 63.46 25.2355 63.5008 25.2355C63.667 25.2355 63.709 25.0036 63.5533 24.9451H63.553Z" fill="black"/>
<path d="M45.4013 34.2104C46.0589 34.6904 45.9095 35.4092 45.851 35.9882C45.7559 36.9296 45.7913 37.8734 45.7226 38.7941C45.6023 40.4012 45.6776 43.1186 44.5874 44.2772C43.9436 44.9615 42.467 45.0911 41.4176 45.2411C39.4603 45.5193 37.4963 45.7479 35.5274 45.9266C34.5212 46.0187 33.3854 46.2269 32.3576 46.1195C31.1366 45.9917 31.0511 45.3698 31.0511 44.6417C31.0511 44.1062 30.7499 38.5586 30.9653 36.8669C31.0718 36.0314 30.8555 34.9358 31.5437 34.4039C32.2691 33.8429 34.9064 33.8255 35.8061 33.8255C36.9818 33.8255 39.3455 33.6551 42.4673 33.6755C43.4525 33.6821 44.6231 33.6425 45.4016 34.211L45.4013 34.2104Z" fill="#005BC3"/>
<path d="M36.6846 39.1148C36.6846 41.4788 38.7579 42.7166 40.5912 42.3734C42.6072 41.996 43.5693 39.8585 43.2132 38.1668C42.4587 34.5827 36.6846 34.4918 36.6846 39.1148ZM40.5399 40.9997C38.4438 41.1959 37.4313 38.2748 39.4476 36.9731C40.5369 36.2696 42.1515 37.1513 42.4119 38.4545C42.6438 39.6155 41.8167 40.8806 40.5402 41L40.5399 40.9997Z" fill="black"/>
<path d="M39.402 37.0891C39.1311 37.0225 38.6016 36.6211 38.2953 36.1789C38.2726 36.1462 38.2639 36.1058 38.271 36.0667C38.278 36.0275 38.3004 35.9928 38.3331 35.9701C38.3658 35.9474 38.4062 35.9387 38.4453 35.9458C38.4845 35.9528 38.5192 35.9752 38.5419 36.0079C38.8662 36.4765 39.3555 36.7672 39.4656 36.8002C39.7068 36.8113 39.6279 37.1815 39.402 37.0888V37.0891Z" fill="#7BD2FF"/>
<path d="M38.3368 38.0239C38.2132 37.9483 37.3306 37.5355 37.2352 37.5001C37.0522 37.4326 37.1446 37.1587 37.3273 37.2145C37.3399 37.2184 38.59 37.7038 38.59 37.9147C38.59 37.944 38.5814 37.9727 38.5653 37.9972C38.5492 38.0217 38.5262 38.0409 38.4993 38.0525C38.4723 38.0641 38.4426 38.0675 38.4137 38.0624C38.3848 38.0573 38.3581 38.0438 38.3368 38.0236V38.0239Z" fill="#7BD2FF"/>
<path d="M38.3115 39.4577C37.8303 39.4577 37.2588 39.3155 36.7956 39.2639C36.7561 39.2594 36.7199 39.2395 36.6951 39.2085C36.6702 39.1774 36.6587 39.1378 36.663 39.0983C36.6676 39.0588 36.6876 39.0228 36.7186 38.998C36.7496 38.9731 36.7891 38.9615 36.8286 38.9657C37.2873 39.0164 37.8669 39.1577 38.3112 39.1577C38.351 39.1577 38.3891 39.1735 38.4173 39.2016C38.4454 39.2297 38.4612 39.2679 38.4612 39.3077C38.4612 39.3474 38.4454 39.3856 38.4173 39.4137C38.3891 39.4419 38.351 39.4577 38.3112 39.4577H38.3115Z" fill="#7BD2FF"/>
<path d="M42.3172 41.5142C42.2825 41.5142 42.2489 41.5022 42.2221 41.4802C42.1953 41.4582 42.177 41.4276 42.1702 41.3936C42.085 40.967 41.998 40.5134 41.9539 40.0727C41.9499 40.0331 41.9619 39.9936 41.9871 39.9628C42.0123 39.9321 42.0487 39.9126 42.0883 39.9086C42.1711 39.9026 42.2443 39.9605 42.2524 40.043C42.295 40.4705 42.3805 40.9157 42.4645 41.3351C42.4688 41.3569 42.4683 41.3794 42.4629 41.4009C42.4575 41.4225 42.4474 41.4426 42.4333 41.4597C42.4192 41.4769 42.4015 41.4907 42.3814 41.5002C42.3613 41.5097 42.3394 41.5146 42.3172 41.5145V41.5142Z" fill="#7BD2FF"/>
<path d="M42.9297 39.9903C42.8145 39.7368 42.5604 39.249 42.339 39.0276C42.3117 38.9994 42.2965 38.9615 42.2969 38.9221C42.2972 38.8828 42.313 38.8452 42.3408 38.8174C42.3686 38.7896 42.4062 38.7738 42.4456 38.7734C42.4849 38.7731 42.5228 38.7882 42.5511 38.8155C42.8547 39.1191 43.1472 39.744 43.2027 39.8661C43.2852 40.0473 43.0113 40.17 42.9297 39.9903Z" fill="#7BD2FF"/>
<path d="M42.981 37.6574H41.9742C41.9344 37.6574 41.8963 37.6416 41.8682 37.6135C41.84 37.5854 41.8242 37.5472 41.8242 37.5074C41.8242 37.4676 41.84 37.4295 41.8682 37.4014C41.8963 37.3732 41.9344 37.3574 41.9742 37.3574H42.981C43.0208 37.3574 43.059 37.3732 43.0871 37.4014C43.1152 37.4295 43.131 37.4676 43.131 37.5074C43.131 37.5472 43.1152 37.5854 43.0871 37.6135C43.059 37.6416 43.0208 37.6574 42.981 37.6574Z" fill="#7BD2FF"/>
<path d="M40.4629 36.5802C40.7119 36.2604 40.7752 36.0069 40.8214 35.8221C40.8258 35.8026 40.834 35.7842 40.8456 35.7679C40.8573 35.7517 40.872 35.7379 40.889 35.7274C40.906 35.7169 40.925 35.7099 40.9447 35.7069C40.9645 35.7038 40.9846 35.7047 41.004 35.7095C41.0234 35.7144 41.0417 35.723 41.0577 35.735C41.0737 35.747 41.0871 35.7621 41.0972 35.7793C41.1073 35.7966 41.1138 35.8157 41.1165 35.8355C41.1191 35.8553 41.1177 35.8755 41.1124 35.8947C41.0626 36.0936 40.9876 36.3945 40.6999 36.7644C40.5793 36.9189 40.3399 36.7386 40.4629 36.5802Z" fill="#7BD2FF"/>
<path d="M39.3519 42.2958C40.3281 41.5026 40.3887 41.0337 40.3893 41.0292C40.4103 40.8348 40.6995 40.8588 40.6887 41.0502C40.6854 41.1087 40.6245 41.6487 39.5412 42.5289C39.387 42.654 39.198 42.4212 39.3522 42.2961L39.3519 42.2958Z" fill="#7BD2FF"/>
<path d="M37.4331 41.3412C37.2447 41.3412 37.2303 41.0619 37.4175 41.0421C38.1147 40.9686 38.8962 40.6236 39.0159 40.5183C39.1008 40.3665 39.3345 40.4589 39.2925 40.6278C39.216 40.9341 37.7721 41.3412 37.4331 41.3412Z" fill="#7BD2FF"/>
<path d="M57.2881 42.6699H49.2991C47.7049 42.6699 47.5618 45.1089 49.3204 45.2187C57.3391 45.2187 57.241 45.2343 57.3523 45.1974C58.9294 44.9547 58.7299 42.7731 57.2881 42.6699Z" fill="#FDAF31"/>
<path d="M57.2988 42.5195H49.299C47.4501 42.5192 47.3964 45.368 49.3203 45.368H57.1809C59.0103 45.368 59.0586 42.6452 57.2988 42.5195ZM51.1215 42.8192H52.4067L52.4454 45.068L51.1623 45.0665L51.1215 42.8192ZM50.8623 45.068H49.6605L49.6218 42.8192H50.8218L50.8626 45.068H50.8623ZM52.7067 42.8192H53.9922L54.0537 45.0506C54.0546 45.0806 54.162 45.068 52.7454 45.068L52.7067 42.8192ZM54.2925 42.8192H55.662L55.7007 45.068C54.1989 45.068 54.3546 45.0791 54.3534 45.0425L54.2922 42.8192H54.2925ZM55.962 42.8192H57.1401L57.1809 45.068H56.0007L55.962 42.8192ZM48.1938 43.9505C48.1938 43.3424 48.5871 42.8192 49.3215 42.8192L49.3602 45.068C48.6018 45.068 48.1935 44.5868 48.1935 43.9505H48.1938ZM57.4803 45.0347L57.4404 42.8408C58.563 43.0679 58.5675 44.7791 57.4803 45.0347Z" fill="#414141"/>
<path d="M56.8613 45.2812H48.8723C47.2781 45.2812 47.135 47.7203 48.8936 47.8301C56.9123 47.8301 56.8142 47.8457 56.9255 47.8088C58.5026 47.5661 58.3031 45.3845 56.8613 45.2812Z" fill="#FDAF31"/>
<path d="M56.872 45.1309H48.8722C47.0233 45.1306 46.9696 47.9794 48.8935 47.9794H56.7541C58.5835 47.9794 58.6318 45.2566 56.872 45.1309ZM50.6947 45.4306H51.9799L52.0186 47.6794L50.7355 47.6779L50.6947 45.4306ZM50.4355 47.6794H49.2337L49.195 45.4306H50.395L50.4358 47.6794H50.4355ZM52.2799 45.4306H53.5654L53.6269 47.662C53.6278 47.692 53.7352 47.6794 52.3186 47.6794L52.2799 45.4306ZM53.8657 45.4306H55.2352L55.2739 47.6794C53.7721 47.6794 53.9278 47.6905 53.9266 47.6539L53.8654 45.4306H53.8657ZM55.5352 45.4306H56.7133L56.7541 47.6794H55.5739L55.5352 45.4306ZM47.767 46.5619C47.767 45.9538 48.1603 45.4306 48.8947 45.4306L48.9334 47.6794C48.175 47.6794 47.7667 47.1982 47.7667 46.5619H47.767ZM57.0535 47.6461L57.0136 45.4522C58.1362 45.6793 58.1407 47.3905 57.0535 47.6461Z" fill="#414141"/>
<path d="M58.1289 47.916H50.1399C48.5457 47.916 48.4026 50.355 50.1612 50.4648C58.1799 50.4648 58.0818 50.4804 58.1931 50.4435C59.7702 50.2008 59.5707 48.0192 58.1289 47.916Z" fill="#FDAF31"/>
<path d="M58.1396 47.7656H50.1398C48.2909 47.7653 48.2372 50.6141 50.1611 50.6141H58.0217C59.8511 50.6141 59.8994 47.8913 58.1396 47.7656ZM51.9623 48.0653H53.2475L53.2862 50.3141L52.0031 50.3126L51.9623 48.0653ZM51.7031 50.3141H50.5013L50.4626 48.0653H51.6626L51.7034 50.3141H51.7031ZM53.5475 48.0653H54.833L54.8945 50.2967C54.8954 50.3267 55.0028 50.3141 53.5862 50.3141L53.5475 48.0653ZM55.1333 48.0653H56.5028L56.5415 50.3141C55.0397 50.3141 55.1954 50.3252 55.1942 50.2886L55.133 48.0653H55.1333ZM56.8028 48.0653H57.9809L58.0217 50.3141H56.8415L56.8028 48.0653ZM49.0346 49.1966C49.0346 48.5885 49.4279 48.0653 50.1623 48.0653L50.201 50.3141C49.4426 50.3141 49.0343 49.8329 49.0343 49.1966H49.0346ZM58.3211 50.2808L58.2812 48.0869C59.4038 48.314 59.4083 50.0252 58.3211 50.2808Z" fill="#414141"/>
<path d="M58.8526 50.7109H50.8636C49.2694 50.7109 49.1263 53.1499 50.8849 53.2597C58.9036 53.2597 58.8055 53.2753 58.9168 53.2384C60.4939 52.9957 60.2944 50.8141 58.8526 50.7109Z" fill="#FDAF31"/>
<path d="M58.8633 50.5625H50.8635C49.0146 50.5622 48.9609 53.411 50.8848 53.411H58.7454C60.5748 53.411 60.6231 50.6882 58.8633 50.5625ZM52.686 50.8622H53.9712L54.0099 53.111L52.7268 53.1095L52.686 50.8622ZM52.4268 53.111H51.225L51.1863 50.8622H52.3863L52.4271 53.111H52.4268ZM54.2712 50.8622H55.5567L55.6182 53.0936C55.6191 53.1236 55.7265 53.111 54.3099 53.111L54.2712 50.8622ZM55.857 50.8622H57.2265L57.2652 53.111C55.7634 53.111 55.9191 53.1221 55.9179 53.0855L55.8567 50.8622H55.857ZM57.5265 50.8622H58.7046L58.7454 53.111H57.5652L57.5265 50.8622ZM49.7583 51.9935C49.7583 51.3854 50.1516 50.8622 50.886 50.8622L50.9247 53.111C50.1663 53.111 49.758 52.6298 49.758 51.9935H49.7583ZM59.0448 53.0777L59.0049 50.8838C60.1275 51.1109 60.132 52.8221 59.0448 53.0777Z" fill="#414141"/>
<path d="M57.706 53.4258H49.717C48.1228 53.4258 47.9797 55.8648 49.7383 55.9746C57.757 55.9746 57.6589 55.9902 57.7702 55.9533C59.3473 55.7106 59.1478 53.529 57.706 53.4258Z" fill="#FDAF31"/>
<path d="M57.7167 53.2773H49.7169C47.868 53.277 47.8143 56.1258 49.7382 56.1258H57.5988C59.4282 56.1258 59.4765 53.403 57.7167 53.2773ZM51.5394 53.577H52.8246L52.8633 55.8258L51.5802 55.8243L51.5394 53.577ZM51.2802 55.8258H50.0784L50.0397 53.577H51.2397L51.2805 55.8258H51.2802ZM53.1246 53.577H54.4101L54.4716 55.8084C54.4725 55.8384 54.5799 55.8258 53.1633 55.8258L53.1246 53.577ZM54.7104 53.577H56.0799L56.1186 55.8258C54.6168 55.8258 54.7725 55.8369 54.7713 55.8003L54.7101 53.577H54.7104ZM56.3799 53.577H57.558L57.5988 55.8258H56.4186L56.3799 53.577ZM48.6117 54.7083C48.6117 54.1002 49.005 53.577 49.7394 53.577L49.7781 55.8258C49.0197 55.8258 48.6114 55.3446 48.6114 54.7083H48.6117ZM57.8982 55.7925L57.8583 53.5986C58.9809 53.8257 58.9854 55.5369 57.8982 55.7925Z" fill="#414141"/>
</svg>
