<svg width="70" height="70" viewBox="0 0 70 70" fill="none" xmlns="http://www.w3.org/2000/svg">
<rect width="70" height="70" rx="10" fill="#E7F8FF"/>
<path d="M18.957 57.4093C18.957 57.4093 20.784 49.8313 33.402 49.6723C46.2 49.5103 49.002 53.8993 49.437 57.4093H18.957Z" fill="#005BC3"/>
<path d="M34.439 57.4106C34.439 57.4106 34.412 55.2926 34.439 54.8036C34.439 54.8036 32.885 54.6026 32.288 54.6116C32.382 54.9173 32.4433 55.232 32.471 55.5506C32.471 55.5506 29.819 55.9766 29.282 56.3786C29 56.6006 29 57.4106 29 57.4106H34.439Z" fill="white"/>
<path d="M30.9121 42.2583C30.9121 42.2583 30.9781 45.5583 31.3111 46.5303C31.6441 47.5023 31.8841 48.6783 33.1111 49.3293C33.1266 49.8523 33.0659 50.3748 32.9311 50.8803C33.1216 51.1037 33.3563 51.2852 33.6204 51.4134C33.8845 51.5416 34.1723 51.6138 34.4657 51.6253C34.759 51.6369 35.0516 51.5876 35.325 51.4805C35.5984 51.3735 35.8466 51.211 36.0541 51.0033C35.957 50.3993 35.9348 49.7857 35.9881 49.1763C36.4506 48.9014 36.8437 48.5239 37.1371 48.0729C37.4305 47.6219 37.6163 47.1095 37.6801 46.5753C37.9471 44.6943 38.0011 42.5343 37.8691 42.0363C37.2961 42.0196 36.735 41.8686 36.2311 41.5953C35.5231 41.1633 35.1841 39.2883 33.5311 39.1953C33.5311 39.1953 33.5041 40.2543 33.0811 40.8513C32.6581 41.4483 31.2871 41.3013 30.9121 42.2583Z" fill="white"/>
<path d="M49.4007 27.6652C49.2627 27.4492 49.6767 25.5922 49.7007 25.1872C49.7007 25.1872 47.7657 25.1362 46.7007 23.7322C46.7007 23.7322 45.2817 24.5002 43.8387 23.9152C43.8387 23.9152 43.2177 26.7472 43.0467 27.5632C42.8757 28.3792 42.5367 30.7732 44.2647 31.6612C44.2647 31.6612 44.1867 32.3632 44.0787 32.9872C43.2987 30.8122 40.7487 25.0702 35.7507 25.6192C35.6467 25.1156 35.6325 24.5977 35.7087 24.0892C35.7087 24.0892 37.4607 23.6932 37.9407 21.1702C38.2196 19.4498 38.2399 17.6975 38.0007 15.9712C37.4262 15.9133 36.8473 15.9133 36.2727 15.9712C35.3937 16.0732 35.0967 16.4692 34.3647 16.4872C33.6327 16.5052 33.1647 16.1542 32.3277 16.2232C31.4907 16.2922 30.8277 17.2852 30.7287 18.2302C30.7287 18.2302 28.9767 18.4252 29.1027 19.4032C29.2287 20.3812 30.4617 20.3632 30.4617 20.3632C30.4617 20.3632 30.9987 22.9012 32.4387 23.9632C32.7807 24.2182 32.8767 23.9632 32.5797 25.6642C32.5797 25.6642 29.3127 24.7642 25.1697 29.7562L25.0947 29.8462C25.0947 29.3692 25.0947 28.8532 25.0407 28.2892C24.8157 25.0222 23.8407 24.9892 23.8407 24.9892C22.9647 25.6342 19.5717 26.0692 19.3077 26.2852C19.0437 26.5012 19.0077 28.5502 19.0077 28.5502C18.4737 28.3942 17.2977 28.5262 17.2587 29.4502C17.2197 30.3742 18.4587 30.7462 18.4587 30.7462C18.4564 31.3453 18.5992 31.9361 18.8751 32.468C19.151 32.9999 19.5516 33.457 20.0427 33.8002C20.1087 34.1662 19.7427 35.8822 19.7427 35.8822C19.7427 35.8822 20.7327 36.8332 21.5997 36.8512C22.3437 36.8662 23.1267 35.9032 23.0847 35.7472C24.0166 35.5672 24.98 35.6482 25.8687 35.9812C25.8687 35.9812 27.6687 34.0162 27.8307 34.0882C27.9927 34.1602 27.3537 36.9712 27.3537 36.9712C27.9561 37.6132 28.4734 38.3301 28.8927 39.1042C28.701 39.216 28.5355 39.3676 28.4072 39.5487C28.2788 39.7298 28.1907 39.9362 28.1487 40.1542C27.7107 41.6242 28.7487 42.3202 28.7997 43.3072C28.8297 44.0122 28.3797 44.7262 28.6797 45.4702C29.2257 46.8262 31.2807 46.5052 31.2807 46.5052C31.2027 46.2052 30.8277 43.1212 30.9267 42.2452C31.0257 41.3692 32.3337 41.4802 32.8767 41.0932C32.9877 41.0152 33.5547 40.3972 33.5547 39.1942C33.5547 39.1942 34.6197 38.8942 36.0597 41.5042C36.2967 41.9332 37.8867 42.0232 37.8867 42.0232C38.0877 43.2742 37.6317 46.8532 37.6317 46.8532C39.0837 47.2492 39.3057 45.8932 39.7617 45.3532C40.0617 44.9812 41.0457 44.9032 41.0637 43.6162C41.0637 42.6322 40.6497 41.9212 40.5447 41.2342C40.4397 40.5472 40.6647 39.4762 40.0737 38.7562C39.4827 38.0362 37.5717 36.3832 37.5987 36.3562C39.1767 34.8382 41.2917 33.5842 43.8987 33.7492C43.8822 33.8019 43.859 33.8523 43.8297 33.8992C44.1852 34.2615 44.6618 34.4799 45.1684 34.5126C45.6749 34.5453 46.1757 34.3899 46.5747 34.0762C46.5747 34.0762 46.5987 32.3722 46.7457 32.0782C46.7457 32.0782 48.3207 31.4782 49.1277 29.3782C49.1277 29.3782 50.6637 29.5552 50.6667 28.8022C50.6667 27.7792 49.5267 27.8812 49.4007 27.6652Z" fill="white"/>
<path d="M27.54 48.7104C27.6191 48.5365 27.7595 48.3978 27.9344 48.3209C28.1093 48.244 28.3064 48.2342 28.488 48.2934C28.488 48.2934 28.869 47.8164 29.541 48.2514C29.541 48.2514 30.123 48.0264 30.441 48.3894C30.759 48.7524 30.855 48.8664 31.062 48.9594C31.269 49.0524 32.016 48.9744 31.803 49.8594C31.56 50.8554 30.903 50.7594 30.996 50.1174C31.077 49.6104 30.075 49.7304 30.033 49.9374C30.009 50.0604 29.889 51.4674 29.628 51.4884C29.367 51.5094 29.307 51.1884 29.307 51.1884C29.307 51.1884 28.971 52.0314 28.656 51.2304C28.656 51.2304 28.098 52.0944 27.777 51.1884C27.777 51.1884 27.177 52.1034 26.877 50.7324C26.577 49.3614 26.769 48.2784 27.54 48.7104Z" fill="white"/>
<path d="M60.8517 54.3945C60.6065 54.3407 60.3552 54.3205 60.1047 54.3345C60.1047 54.3345 60.1617 52.2345 60.0867 52.1625C59.7548 52.1067 59.4177 52.0875 59.0817 52.1055C59.1927 49.7055 58.2687 50.3985 58.2687 50.3985C57.9087 49.6755 57.4377 50.0415 57.4377 50.0415C57.1377 49.5105 56.4897 50.0775 56.4897 50.0775C55.8447 49.5795 55.3647 51.0135 55.1937 51.0285C55.0665 51.0308 54.9413 51.0593 54.8257 51.1124C54.7102 51.1655 54.6069 51.242 54.5223 51.3369C54.4378 51.4319 54.3738 51.5434 54.3345 51.6643C54.2951 51.7852 54.2812 51.9129 54.2937 52.0395C53.3067 52.0395 49.7517 52.0695 49.7157 52.1175C49.6419 52.845 49.6168 53.5766 49.6407 54.3075C49.6407 54.3075 48.3627 54.2775 48.3297 54.4365C48.2967 54.5955 48.2637 57.4035 48.2637 57.4035H60.8637C60.8637 57.4035 60.9417 54.4695 60.8517 54.3945Z" fill="white"/>
<path d="M11.247 55.9591C11.247 55.9591 11.637 55.2391 12.117 55.5571C12.117 55.5571 12.417 55.0561 13.056 55.5301C13.056 55.5301 13.452 55.2511 13.896 55.7461C14.34 56.2411 14.313 56.3461 14.496 56.4091C14.6057 56.4166 14.7128 56.446 14.8109 56.4956C14.909 56.5453 14.9962 56.6141 15.0673 56.698C15.1383 56.7819 15.1918 56.8792 15.2246 56.9842C15.2573 57.0892 15.2687 57.1996 15.258 57.3091C15.258 58.1251 15.123 58.2391 14.958 58.2511C14.553 58.2871 14.589 57.4771 14.415 57.3991C14.1153 57.3561 13.8103 57.3683 13.515 57.4351C13.515 57.4351 13.392 58.6651 13.146 58.6831C13.0792 58.6923 13.0113 58.6761 12.9558 58.6378C12.9003 58.5995 12.8611 58.5418 12.846 58.4761C12.846 58.4761 12.591 59.0761 12.246 58.4761C12.246 58.4761 11.799 59.2651 11.457 58.3831C11.457 58.3831 11.157 59.0401 10.782 58.1821C10.407 57.3241 10.401 55.4551 11.247 55.9591Z" fill="white"/>
<path d="M50.667 52.1172H52.14V54.3102H50.667V52.1172Z" fill="#FDAF31"/>
<path d="M59.2204 52.252V54.352H57.8164V53.644C58.0924 53.719 58.3024 53.374 58.3174 53.344C58.3532 53.3987 58.4031 53.4428 58.4618 53.4718C58.5205 53.5007 58.5858 53.5134 58.6511 53.5085C58.7163 53.5036 58.7791 53.4813 58.8328 53.4439C58.8865 53.4065 58.9292 53.3554 58.9564 53.296C59.1128 52.9689 59.2025 52.614 59.2204 52.252Z" fill="#FDAF31"/>
<path d="M17.2175 20.9296C17.2175 20.9296 16.5785 20.7856 16.7975 21.6766C17.0165 22.5676 17.9315 23.5606 18.2015 23.4226C18.4715 23.2846 18.2825 22.8436 18.2825 22.8436C18.2825 22.8436 18.5135 23.1016 18.7685 22.9966C19.0235 22.8916 20.5985 22.4326 21.0395 22.0336C21.0395 22.0336 19.0505 17.5066 18.9215 17.3116C18.7925 17.1166 18.6695 16.8106 18.2825 16.8736C17.8955 16.9366 18.1115 17.5426 18.1595 17.6566C18.2075 17.7706 19.1315 19.7716 19.1015 19.8286C19.0715 19.8856 18.5465 20.1946 18.5015 20.1286C18.4565 20.0626 17.5385 18.0766 17.3915 17.8036C17.2445 17.5306 16.4555 17.2996 16.7015 18.2836C16.9475 19.2676 17.8865 20.6656 17.8865 20.6656C17.8865 20.6656 17.3765 20.4976 17.2175 20.9296Z" fill="white"/>
<path d="M56.3786 26.1982C56.5119 26.0153 56.7075 25.8875 56.9286 25.8389C57.1496 25.7902 57.3808 25.8242 57.5786 25.9342C57.6808 25.9925 57.7985 26.0177 57.9156 26.0064C58.0327 25.9952 58.1434 25.9479 58.2326 25.8712C58.3869 25.698 58.6011 25.5897 58.8321 25.568C59.0631 25.5463 59.2937 25.6128 59.4776 25.7542C59.569 25.8416 59.6902 25.8909 59.8166 25.8922C60.0536 25.8922 60.1946 25.8742 60.3896 25.5142C60.4646 25.3792 60.6896 25.4902 60.6056 25.6312C60.549 25.7894 60.442 25.9247 60.3011 26.0163C60.1602 26.1079 59.9932 26.1507 59.8256 26.1382C59.6426 26.1386 59.4656 26.0725 59.3276 25.9522C59.19 25.8526 59.0206 25.8067 58.8515 25.8233C58.6824 25.8399 58.5253 25.9178 58.4096 26.0422C58.2864 26.166 58.1246 26.2438 57.9511 26.2629C57.7776 26.282 57.6027 26.2412 57.4556 26.1472C57.3127 26.0603 57.1422 26.0309 56.9785 26.0649C56.8148 26.0988 56.6701 26.1937 56.5736 26.3302C56.5531 26.3469 56.5278 26.3565 56.5014 26.3576C56.475 26.3588 56.449 26.3514 56.4271 26.3366C56.4052 26.3218 56.3887 26.3004 56.38 26.2754C56.3712 26.2505 56.3708 26.2235 56.3786 26.1982Z" fill="#414141"/>
<path d="M13.0618 32.4408C13.014 32.3184 12.9422 32.2066 12.8506 32.1122C12.7591 32.0178 12.6497 31.9426 12.5287 31.8909C12.4078 31.8392 12.2778 31.8122 12.1463 31.8113C12.0148 31.8104 11.8844 31.8358 11.7628 31.8858C11.5403 31.9811 11.2905 31.9913 11.0609 31.9144C10.8314 31.8375 10.6381 31.6789 10.5178 31.4688C10.4167 31.2939 10.2505 31.166 10.0555 31.1132C9.86045 31.0603 9.65242 31.0868 9.47684 31.1868C9.45341 31.2028 9.42571 31.2114 9.39734 31.2114C9.36897 31.2114 9.34127 31.2028 9.31784 31.1868C9.30123 31.173 9.28854 31.1551 9.28106 31.1349C9.27358 31.1146 9.27156 31.0927 9.27521 31.0714C9.27885 31.0502 9.28804 31.0302 9.30185 31.0136C9.31565 30.997 9.33358 30.9843 9.35384 30.9768C9.50418 30.9042 9.66801 30.8638 9.83486 30.8581C10.0017 30.8524 10.1679 30.8816 10.3228 30.9438C10.4937 31.0347 10.6345 31.1733 10.7278 31.3428C10.8255 31.4995 10.976 31.6159 11.1522 31.6709C11.3283 31.726 11.5184 31.716 11.6878 31.6428C11.9343 31.5469 12.2039 31.527 12.4618 31.5858C12.6565 31.6322 12.8358 31.7282 12.9825 31.8643C13.1291 32.0004 13.2381 32.1722 13.2988 32.3628C13.3092 32.3943 13.3066 32.4285 13.2917 32.4581C13.2768 32.4876 13.2508 32.51 13.2193 32.5203C13.1879 32.5307 13.1537 32.5281 13.1241 32.5132C13.0946 32.4983 13.0722 32.4723 13.0618 32.4408Z" fill="#414141"/>
<path d="M45.8556 12.4043L45.4176 13.2353L45.0906 13.0643C45.0616 13.0492 45.0277 13.0463 44.9965 13.0561C44.9653 13.066 44.9392 13.0878 44.9241 13.1168C44.909 13.1459 44.906 13.1797 44.9159 13.211C44.9257 13.2422 44.9476 13.2682 44.9766 13.2833L45.3036 13.4543L44.9346 14.1503C44.9271 14.1647 44.9225 14.1804 44.9211 14.1966C44.9197 14.2127 44.9215 14.229 44.9264 14.2445C44.9362 14.2757 44.9581 14.3017 44.9871 14.3168C45.0161 14.332 45.05 14.3349 45.0812 14.3251C45.1124 14.3152 45.1385 14.2934 45.1536 14.2643L45.5196 13.5683L45.8196 13.7243C45.8486 13.7395 45.8825 13.7424 45.9137 13.7326C45.945 13.7227 45.971 13.7009 45.9861 13.6718C46.0012 13.6428 46.0042 13.6089 45.9943 13.5777C45.9845 13.5465 45.9626 13.5205 45.9336 13.5053L45.6336 13.3493L46.0746 12.5183C46.0897 12.4893 46.0927 12.4554 46.0828 12.4242C46.073 12.393 46.0511 12.367 46.0221 12.3518C45.9931 12.3367 45.9592 12.3338 45.928 12.3436C45.8968 12.3535 45.8707 12.3753 45.8556 12.4043Z" fill="#005BC3"/>
<path d="M23.7124 15.0322C23.5599 15.0322 23.4109 14.987 23.2841 14.9023C23.1573 14.8176 23.0585 14.6972 23.0001 14.5563C22.9417 14.4154 22.9265 14.2604 22.9562 14.1108C22.986 13.9613 23.0594 13.8239 23.1672 13.7161C23.2751 13.6082 23.4124 13.5348 23.562 13.505C23.7116 13.4753 23.8666 13.4906 24.0075 13.5489C24.1483 13.6073 24.2688 13.7061 24.3535 13.8329C24.4382 13.9597 24.4834 14.1087 24.4834 14.2612C24.4834 14.4657 24.4022 14.6618 24.2576 14.8064C24.113 14.951 23.9169 15.0322 23.7124 15.0322ZM23.7124 13.7392C23.6084 13.7392 23.5068 13.7701 23.4204 13.8279C23.334 13.8857 23.2667 13.9679 23.2271 14.064C23.1874 14.1601 23.1772 14.2658 23.1977 14.3678C23.2182 14.4697 23.2685 14.5632 23.3422 14.6365C23.416 14.7098 23.5098 14.7596 23.6118 14.7795C23.7139 14.7994 23.8195 14.7886 23.9154 14.7484C24.0113 14.7082 24.0931 14.6405 24.1504 14.5537C24.2077 14.467 24.238 14.3652 24.2374 14.2612C24.2366 14.1225 24.181 13.9898 24.0826 13.8919C23.9842 13.7941 23.8511 13.7392 23.7124 13.7392Z" fill="#414141"/>
<path d="M11.3218 23.5615L10.5268 23.1175L10.7368 22.7395C10.7487 22.7117 10.7498 22.6805 10.7401 22.6518C10.7303 22.6232 10.7104 22.5991 10.684 22.5843C10.6577 22.5694 10.6267 22.5648 10.5972 22.5713C10.5676 22.5778 10.5415 22.595 10.5238 22.6195L10.3108 23.0005C9.37485 22.4785 9.35385 22.4725 9.34785 22.4695C9.31827 22.4579 9.28531 22.4581 9.2559 22.4702C9.22649 22.4823 9.20291 22.5053 9.1901 22.5344C9.1773 22.5635 9.17626 22.5964 9.18721 22.6263C9.19816 22.6562 9.22025 22.6806 9.24885 22.6945L10.1908 23.2165L9.96885 23.6005C9.95293 23.6292 9.94905 23.663 9.95805 23.6945C9.96705 23.726 9.9882 23.7526 10.0168 23.7685C10.0455 23.7844 10.0793 23.7883 10.1108 23.7793C10.1423 23.7703 10.1689 23.7492 10.1848 23.7205L10.4008 23.3335L11.1958 23.7775C11.2245 23.7942 11.2586 23.7989 11.2907 23.7904C11.3227 23.782 11.3501 23.7612 11.3668 23.7325C11.3836 23.7039 11.3882 23.6698 11.3798 23.6377C11.3713 23.6056 11.3505 23.5782 11.3218 23.5615Z" fill="#005BC3"/>
<path d="M48.0385 19.7486C49.2609 19.9637 50.3692 20.6006 51.1705 21.5486C51.2139 21.6052 51.2762 21.6445 51.346 21.6594C51.4159 21.6742 51.4887 21.6637 51.5515 21.6296C51.9985 21.4136 52.8865 20.7686 52.4935 19.1726C51.9805 17.0726 49.6075 16.8656 48.6265 17.6546C48.3482 17.8624 48.1248 18.1349 47.9758 18.4486C47.8268 18.7623 47.7567 19.1077 47.7715 19.4546C47.777 19.5263 47.8063 19.5941 47.8546 19.6473C47.903 19.7005 47.9676 19.7362 48.0385 19.7486Z" fill="#7BD2FF"/>
<path d="M57.3062 34.6631C58.7672 34.2221 59.1932 32.1491 58.3682 30.5021C57.5732 28.9091 55.4672 28.5641 54.0632 28.3451C53.8194 28.3079 53.5808 28.2425 53.3522 28.1501C53.1141 28.0515 52.9102 27.8853 52.7657 27.672C52.6212 27.4587 52.5425 27.2077 52.5392 26.9501C52.4762 24.6131 52.6532 22.0451 49.0832 20.3291C46.4822 19.0751 44.2832 20.0951 43.4402 20.8361C42.5972 21.5771 41.9402 23.0291 43.1402 23.9591C44.3402 24.8891 46.6262 23.9141 46.6262 23.9141C48.0332 25.7141 49.6712 25.4141 49.6712 25.4141C49.6202 26.0741 49.3892 27.6431 49.3892 27.6431C50.1272 27.7571 50.6882 28.0361 50.6672 28.8011C50.6462 29.5661 49.1972 29.4011 49.1972 29.4011C49.1972 29.4011 48.3542 31.5461 46.7462 32.0771L46.6052 33.7211C46.6052 33.7211 52.2812 34.5041 54.7772 42.0191C55.4691 41.9272 56.1267 41.662 56.6889 41.2483C57.2511 40.8345 57.6997 40.2855 57.9932 39.6521C58.4102 38.8519 58.5681 37.9419 58.4451 37.0481C58.322 36.1542 57.924 35.3207 57.3062 34.6631Z" fill="#7BD2FF"/>
<path d="M42.8458 29.4023C42.065 30.5923 41.7738 32.0378 42.0328 33.4373C42.6261 33.3256 43.2293 33.2754 43.8328 33.2873C44.0391 32.763 44.1782 32.2146 44.2468 31.6553C43.8726 31.3946 43.5554 31.0603 43.3145 30.673C43.0737 30.2856 42.9142 29.8533 42.8458 29.4023Z" fill="#7BD2FF"/>
<path d="M34.725 45.8642C34.6977 45.8639 34.671 45.8557 34.6482 45.8406C34.6255 45.8255 34.6076 45.804 34.5968 45.7789C34.586 45.7538 34.5827 45.7261 34.5874 45.6991C34.592 45.6722 34.6044 45.6472 34.623 45.6272C34.835 45.4068 35.0353 45.1755 35.223 44.9342C34.959 44.9342 34.623 45.0002 34.515 44.8022C34.407 44.6042 34.431 43.5842 34.434 42.9662C34.4348 42.9293 34.45 42.8942 34.4764 42.8684C34.5027 42.8426 34.5381 42.8282 34.575 42.8282C34.5935 42.8277 34.6119 42.8311 34.629 42.8381C34.6462 42.8451 34.6617 42.8555 34.6746 42.8687C34.6876 42.8819 34.6977 42.8977 34.7043 42.9149C34.7109 42.9322 34.7138 42.9507 34.713 42.9692C34.7003 43.5326 34.7163 44.0963 34.761 44.6582C34.8717 44.6704 34.9834 44.6704 35.094 44.6582C35.328 44.6582 35.481 44.6372 35.55 44.7572C35.619 44.8772 35.655 44.9462 34.818 45.8162C34.8066 45.8301 34.7925 45.8415 34.7765 45.8498C34.7605 45.858 34.743 45.8629 34.725 45.8642Z" fill="#414141"/>
<path d="M35.7935 44.2512C35.7739 44.2518 35.7544 44.2481 35.7364 44.2404C35.7183 44.2327 35.7022 44.2212 35.689 44.2066C35.6759 44.1921 35.6661 44.1748 35.6603 44.1561C35.6545 44.1374 35.6529 44.1176 35.6555 44.0982C35.6915 43.7532 35.8865 43.1802 36.3755 43.2252C36.8645 43.2702 36.9755 44.0262 36.9755 44.0562C36.9795 44.0757 36.9794 44.0958 36.9751 44.1153C36.9708 44.1347 36.9624 44.153 36.9505 44.169C36.9386 44.185 36.9234 44.1982 36.906 44.2079C36.8886 44.2176 36.8694 44.2235 36.8495 44.2252C36.8297 44.2269 36.8097 44.2244 36.7909 44.2178C36.7721 44.2112 36.7549 44.2008 36.7404 44.1871C36.726 44.1734 36.7146 44.1567 36.707 44.1383C36.6994 44.1199 36.6959 44.1001 36.6965 44.0802C36.6965 44.0802 36.6425 43.5282 36.3605 43.5042C36.0785 43.4802 35.9675 43.8822 35.9405 44.1282C35.9367 44.1637 35.9193 44.1964 35.8918 44.2193C35.8644 44.2423 35.8292 44.2537 35.7935 44.2512Z" fill="#414141"/>
<path d="M32.2113 44.2784C32.1929 44.278 32.1748 44.2739 32.158 44.2665C32.1412 44.259 32.1261 44.2482 32.1135 44.2348C32.1009 44.2214 32.0912 44.2056 32.0848 44.1883C32.0784 44.1711 32.0755 44.1527 32.0763 44.1344C32.0973 43.4174 32.5083 43.2344 32.7453 43.2344C33.1863 43.2344 33.3453 43.7744 33.3453 44.0954C33.3477 44.132 33.3354 44.168 33.3112 44.1956C33.2871 44.2232 33.2529 44.24 33.2163 44.2424C33.1797 44.2448 33.1437 44.2325 33.1161 44.2083C33.0885 44.1841 33.0717 44.15 33.0693 44.1134C33.0693 44.1134 33.0123 43.5134 32.7303 43.5134C32.3643 43.5134 32.3403 44.1464 32.3403 44.1524C32.3369 44.1851 32.3221 44.2157 32.2986 44.2387C32.275 44.2617 32.2441 44.2757 32.2113 44.2784Z" fill="#414141"/>
<path d="M36.849 42.8005C36.8146 42.8003 36.7815 42.7875 36.756 42.7645C36.6452 42.6628 36.5023 42.6031 36.352 42.596C36.2018 42.5889 36.0539 42.6347 35.934 42.7255C35.9198 42.7373 35.9034 42.746 35.8857 42.7512C35.8681 42.7564 35.8496 42.7579 35.8313 42.7556C35.813 42.7534 35.7954 42.7474 35.7795 42.7381C35.7637 42.7288 35.7499 42.7164 35.739 42.7015C35.7275 42.6874 35.7189 42.6711 35.7137 42.6536C35.7085 42.6361 35.7068 42.6178 35.7088 42.5997C35.7108 42.5815 35.7163 42.564 35.7251 42.548C35.7338 42.532 35.7457 42.5179 35.76 42.5065C35.9311 42.3737 36.1439 42.306 36.3603 42.3153C36.5768 42.3246 36.7829 42.4105 36.942 42.5575C36.9637 42.576 36.9791 42.6008 36.9862 42.6285C36.9932 42.6561 36.9916 42.6853 36.9814 42.7119C36.9712 42.7386 36.953 42.7614 36.9292 42.7773C36.9055 42.7931 36.8775 42.8013 36.849 42.8005Z" fill="#414141"/>
<path d="M33.4028 42.6468C33.369 42.6464 33.3363 42.6348 33.3098 42.6138C33.1907 42.4969 33.0319 42.4291 32.8651 42.4241C32.6982 42.4191 32.5357 42.4772 32.4098 42.5868C32.3812 42.6102 32.3446 42.6217 32.3078 42.6189C32.2709 42.6161 32.2366 42.5993 32.2118 42.5718C32.1985 42.559 32.188 42.5436 32.1808 42.5266C32.1736 42.5096 32.1699 42.4913 32.1699 42.4728C32.1699 42.4544 32.1736 42.4361 32.1808 42.4191C32.188 42.4021 32.1985 42.3867 32.2118 42.3738C32.3889 42.2238 32.6148 42.1437 32.8469 42.1487C33.079 42.1536 33.3012 42.2433 33.4718 42.4008C33.4934 42.4177 33.5095 42.4406 33.5181 42.4666C33.5267 42.4926 33.5273 42.5206 33.5199 42.547C33.5125 42.5734 33.4974 42.597 33.4765 42.6148C33.4557 42.6325 33.43 42.6437 33.4028 42.6468Z" fill="#414141"/>
<path d="M34.5062 47.3636C34.2768 47.3437 34.0584 47.2557 33.8794 47.1108C33.7003 46.966 33.5686 46.7709 33.5012 46.5506C33.495 46.5167 33.5013 46.4818 33.5191 46.4523C33.5368 46.4228 33.5647 46.4008 33.5976 46.3905C33.6304 46.3801 33.6659 46.3822 33.6973 46.3962C33.7288 46.4102 33.754 46.4352 33.7682 46.4666C33.8186 46.6319 33.9167 46.7787 34.0501 46.8887C34.1835 46.9986 34.3463 47.0667 34.5182 47.0846H34.5362C35.0582 47.0846 35.1872 46.5056 35.1902 46.4846C35.1989 46.4491 35.221 46.4183 35.2519 46.3988C35.2827 46.3793 35.32 46.3725 35.3558 46.3799C35.3915 46.3873 35.4231 46.4082 35.4437 46.4384C35.4643 46.4686 35.4724 46.5056 35.4663 46.5416C35.4293 46.77 35.3126 46.978 35.1369 47.1285C34.9611 47.279 34.7376 47.3623 34.5062 47.3636Z" fill="#414141"/>
<path d="M36.5977 45.4829C36.5977 45.5545 36.6359 45.6232 36.704 45.6738C36.7721 45.7244 36.8644 45.7529 36.9607 45.7529C37.0569 45.7529 37.1493 45.7244 37.2173 45.6738C37.2854 45.6232 37.3237 45.5545 37.3237 45.4829C37.3237 45.4113 37.2854 45.3426 37.2173 45.292C37.1493 45.2413 37.0569 45.2129 36.9607 45.2129C36.8644 45.2129 36.7721 45.2413 36.704 45.292C36.6359 45.3426 36.5977 45.4113 36.5977 45.4829Z" fill="#FDAF31"/>
<path d="M32.1514 45.4516C32.1514 45.5232 32.1906 45.5919 32.2603 45.6426C32.3301 45.6932 32.4247 45.7216 32.5234 45.7216C32.622 45.7216 32.7166 45.6932 32.7864 45.6426C32.8562 45.5919 32.8954 45.5232 32.8954 45.4516C32.8954 45.38 32.8562 45.3114 32.7864 45.2607C32.7166 45.2101 32.622 45.1816 32.5234 45.1816C32.4247 45.1816 32.3301 45.2101 32.2603 45.2607C32.1906 45.3114 32.1514 45.38 32.1514 45.4516Z" fill="#FDAF31"/>
<path d="M47.7492 27.5514C47.7887 27.5591 47.8295 27.5576 47.8694 27.5469C47.9093 27.5362 47.9475 27.5166 47.9817 27.4892C48.016 27.4618 48.0457 27.4272 48.0691 27.3872C48.0926 27.3473 48.1093 27.3028 48.1183 27.2564C48.1273 27.21 48.1285 27.1626 48.1217 27.1167C48.115 27.0709 48.1004 27.0277 48.0789 26.9894C48.0574 26.9512 48.0293 26.9187 47.9963 26.8939C47.9633 26.869 47.9261 26.8523 47.8866 26.8446C47.8472 26.837 47.8063 26.8385 47.7664 26.8492C47.7265 26.8599 47.6884 26.8795 47.6541 26.9069C47.6198 26.9342 47.5901 26.9689 47.5667 27.0088C47.5432 27.0488 47.5265 27.0932 47.5175 27.1396C47.5085 27.186 47.5073 27.2335 47.5141 27.2793C47.5209 27.3251 47.5354 27.3684 47.5569 27.4066C47.5784 27.4449 47.6065 27.4773 47.6395 27.5022C47.6725 27.527 47.7098 27.5438 47.7492 27.5514Z" fill="#414141"/>
<path d="M44.7026 26.6647C44.7422 26.6728 44.7833 26.6716 44.8234 26.6611C44.8636 26.6507 44.902 26.6312 44.9366 26.6038C44.9711 26.5764 45.0011 26.5416 45.0247 26.5015C45.0483 26.4614 45.0651 26.4167 45.0741 26.37C45.0832 26.3234 45.0843 26.2756 45.0774 26.2296C45.0705 26.1836 45.0557 26.1402 45.0339 26.1018C45.0121 26.0635 44.9838 26.0311 44.9504 26.0064C44.9171 25.9817 44.8795 25.9652 44.8397 25.9579C44.8003 25.9502 44.7595 25.9518 44.7196 25.9625C44.6797 25.9731 44.6415 25.9927 44.6072 26.0201C44.5729 26.0475 44.5432 26.0822 44.5198 26.1221C44.4964 26.1621 44.4797 26.2065 44.4706 26.2529C44.4616 26.2993 44.4605 26.3468 44.4672 26.3926C44.474 26.4384 44.4885 26.4817 44.5101 26.5199C44.5316 26.5582 44.5596 26.5906 44.5926 26.6155C44.6256 26.6403 44.6629 26.657 44.7023 26.6647" fill="#414141"/>
<path d="M49.515 28.8492C49.4842 28.8501 49.454 28.8407 49.4292 28.8224C49.4044 28.8041 49.3864 28.7781 49.3781 28.7484C49.3698 28.7187 49.3717 28.6871 49.3835 28.6586C49.3952 28.6301 49.4162 28.6064 49.443 28.5912C49.554 28.5229 49.6704 28.4637 49.791 28.4142C49.8079 28.4074 49.826 28.4041 49.8443 28.4043C49.8625 28.4046 49.8805 28.4084 49.8973 28.4157C49.914 28.4229 49.9291 28.4334 49.9418 28.4466C49.9545 28.4597 49.9644 28.4752 49.971 28.4922C49.9782 28.5091 49.9819 28.5273 49.9819 28.5457C49.9818 28.564 49.9781 28.5822 49.9708 28.599C49.9635 28.6159 49.9528 28.6311 49.9394 28.6436C49.9261 28.6562 49.9103 28.666 49.893 28.6722C49.65 28.7712 49.596 28.8492 49.515 28.8492Z" fill="#414141"/>
<path d="M45.3595 28.4187C44.9845 28.5357 45.0595 28.1637 45.0925 28.0647C45.3715 27.0717 46.2925 25.7037 46.3225 25.6467C46.4185 25.4997 46.6555 25.6467 46.5535 25.7997C46.5535 25.7997 45.6295 27.1857 45.3535 28.1367L45.9535 27.8367C46.1125 27.7587 46.2535 28.0077 46.0795 28.0857C46.1005 28.0827 45.3865 28.4187 45.3595 28.4187Z" fill="#414141"/>
<path d="M45.4438 29.8482C45.3809 29.8539 45.3176 29.8539 45.2548 29.8482C44.5858 29.7402 44.4568 28.9782 44.4538 28.9482C44.4482 28.912 44.4572 28.875 44.4789 28.8455C44.5005 28.816 44.5331 28.7962 44.5693 28.7907C44.6055 28.7851 44.6424 28.7941 44.6719 28.8158C44.7015 28.8375 44.7212 28.87 44.7268 28.9062C44.7268 28.9302 44.8318 29.5062 45.2998 29.5752C45.4429 29.6039 45.5914 29.5883 45.7254 29.5304C45.8594 29.4725 45.9726 29.3751 46.0498 29.2512C46.0588 29.235 46.071 29.2208 46.0855 29.2094C46.1001 29.1979 46.1167 29.1894 46.1346 29.1844C46.1524 29.1794 46.171 29.1779 46.1894 29.1801C46.2078 29.1823 46.2256 29.1881 46.2418 29.1972C46.2579 29.2062 46.2721 29.2184 46.2836 29.2329C46.295 29.2475 46.3035 29.2642 46.3085 29.282C46.3135 29.2998 46.315 29.3185 46.3128 29.3368C46.3106 29.3552 46.3048 29.373 46.2958 29.3892C46.2039 29.5312 46.0776 29.6477 45.9286 29.728C45.7797 29.8082 45.6129 29.8496 45.4438 29.8482Z" fill="#414141"/>
<path d="M48.5405 26.2314C48.5133 26.1687 48.4734 26.1123 48.4234 26.0657C48.3734 26.019 48.3143 25.9832 48.2499 25.9604C48.1855 25.9376 48.117 25.9283 48.0488 25.9332C47.9806 25.938 47.9142 25.9568 47.8535 25.9884C47.8209 26.0051 47.783 26.0081 47.7481 25.9969C47.7132 25.9856 47.6842 25.961 47.6675 25.9284C47.6508 25.8957 47.6478 25.8578 47.659 25.8229C47.6703 25.7881 47.6949 25.7591 47.7275 25.7424C47.8199 25.6923 47.9216 25.662 48.0263 25.6531C48.1309 25.6443 48.2363 25.6571 48.3357 25.6909C48.4352 25.7247 48.5265 25.7787 48.6041 25.8495C48.6817 25.9203 48.7438 26.0064 48.7865 26.1024C48.8036 26.135 48.8071 26.1731 48.7961 26.2082C48.7852 26.2434 48.7607 26.2728 48.728 26.2899C48.6954 26.307 48.6573 26.3104 48.6222 26.2994C48.587 26.2885 48.5576 26.264 48.5405 26.2314Z" fill="#414141"/>
<path d="M45.4348 25.2714C45.364 25.1672 45.2582 25.0918 45.1366 25.0588C45.015 25.0258 44.8856 25.0373 44.7718 25.0914C44.7397 25.1022 44.7048 25.101 44.6734 25.0882C44.6421 25.0753 44.6164 25.0516 44.6011 25.0214C44.5858 24.9911 44.5819 24.9564 44.5901 24.9236C44.5983 24.8907 44.6181 24.8619 44.6458 24.8424C44.8179 24.759 45.0141 24.7395 45.1992 24.7873C45.3844 24.8351 45.5466 24.9471 45.6568 25.1034C45.6791 25.1328 45.6888 25.1699 45.6837 25.2065C45.6787 25.243 45.6593 25.2761 45.6298 25.2984C45.6004 25.3207 45.5633 25.3303 45.5267 25.3253C45.4902 25.3202 45.4571 25.3008 45.4348 25.2714Z" fill="#414141"/>
<path d="M47.3965 28.7638C47.3965 28.8426 47.4407 28.9181 47.5195 28.9738C47.5983 29.0295 47.7051 29.0608 47.8165 29.0608C47.9279 29.0608 48.0347 29.0295 48.1135 28.9738C48.1922 28.9181 48.2365 28.8426 48.2365 28.7638C48.2365 28.685 48.1922 28.6095 48.1135 28.5538C48.0347 28.4981 47.9279 28.4668 47.8165 28.4668C47.7051 28.4668 47.5983 28.4981 47.5195 28.5538C47.4407 28.6095 47.3965 28.685 47.3965 28.7638Z" fill="#FDAF31"/>
<path d="M43.666 28.0436C43.7127 28.0616 43.7616 28.0725 43.8099 28.0758C43.8581 28.079 43.9049 28.0745 43.9474 28.0625C43.9899 28.0506 44.0274 28.0313 44.0577 28.0059C44.088 27.9806 44.1105 27.9495 44.124 27.9146C44.1374 27.8797 44.1416 27.8415 44.1361 27.8024C44.1307 27.7632 44.1158 27.7238 44.0923 27.6864C44.0688 27.649 44.0371 27.6143 43.9992 27.5843C43.9612 27.5544 43.9176 27.5297 43.8709 27.5117C43.8242 27.4937 43.7753 27.4828 43.727 27.4795C43.6788 27.4763 43.632 27.4808 43.5895 27.4928C43.547 27.5047 43.5095 27.524 43.4792 27.5494C43.4489 27.5747 43.4264 27.6058 43.4129 27.6407C43.3995 27.6756 43.3953 27.7138 43.4008 27.7529C43.4062 27.7921 43.4211 27.8315 43.4446 27.8689C43.4681 27.9063 43.4997 27.941 43.5377 27.971C43.5757 28.0009 43.6193 28.0256 43.666 28.0436Z" fill="#FDAF31"/>
<path d="M34.6291 22.1452C34.4431 22.1401 34.2627 22.0805 34.1101 21.9739C33.9576 21.8672 33.8398 21.7182 33.7711 21.5452C33.7572 21.511 33.7575 21.4726 33.7718 21.4386C33.7861 21.4045 33.8134 21.3776 33.8476 21.3637C33.8819 21.3497 33.9202 21.35 33.9542 21.3643C33.9883 21.3787 34.0152 21.406 34.0291 21.4402C34.0782 21.5566 34.158 21.6574 34.26 21.732C34.362 21.8065 34.4823 21.8518 34.6081 21.8632C35.0131 21.8782 35.2291 21.3682 35.2321 21.3622C35.239 21.3452 35.2492 21.3298 35.2621 21.3168C35.2749 21.3038 35.2902 21.2934 35.307 21.2863C35.3239 21.2792 35.342 21.2755 35.3603 21.2754C35.3786 21.2753 35.3967 21.2788 35.4136 21.2857C35.4306 21.2926 35.446 21.3027 35.459 21.3156C35.472 21.3284 35.4824 21.3437 35.4895 21.3606C35.4966 21.3774 35.5003 21.3955 35.5004 21.4138C35.5005 21.4321 35.497 21.4502 35.4901 21.4672C35.4781 21.5002 35.2081 22.1452 34.6291 22.1452Z" fill="#414141"/>
<path d="M32.1495 20.9909C32.2443 21.0021 32.3386 20.9847 32.4117 20.9423C32.4847 20.9 32.5304 20.8362 32.5389 20.7651C32.5473 20.694 32.5177 20.6213 32.4566 20.563C32.3955 20.5048 32.3079 20.4657 32.2131 20.4545C32.1182 20.4433 32.0239 20.4607 31.9509 20.5031C31.8779 20.5454 31.8321 20.6092 31.8237 20.6803C31.8152 20.7514 31.8448 20.8241 31.9059 20.8824C31.967 20.9406 32.0546 20.9797 32.1495 20.9909Z" fill="#FDAF31"/>
<path d="M36.7441 20.7231C36.7441 20.7947 36.7821 20.8634 36.8496 20.914C36.9171 20.9647 37.0087 20.9931 37.1041 20.9931C37.1996 20.9931 37.2912 20.9647 37.3587 20.914C37.4262 20.8634 37.4641 20.7947 37.4641 20.7231C37.4641 20.6515 37.4262 20.5828 37.3587 20.5322C37.2912 20.4816 37.1996 20.4531 37.1041 20.4531C37.0087 20.4531 36.9171 20.4816 36.8496 20.5322C36.7821 20.5828 36.7441 20.6515 36.7441 20.7231Z" fill="#FDAF31"/>
<path d="M37.1943 17.0903C36.7687 17.0742 36.352 17.2151 36.0235 17.4861C35.6949 17.7571 35.4774 18.1394 35.4123 18.5603C35.3166 18.5155 35.2158 18.4822 35.1123 18.4613C35.0283 17.9633 34.9353 17.6153 34.9263 17.5853C34.9159 17.5499 34.8919 17.52 34.8596 17.5023C34.8272 17.4846 34.7892 17.4804 34.7538 17.4908C34.7184 17.5011 34.6885 17.5251 34.6708 17.5575C34.6531 17.5898 34.6489 17.6279 34.6593 17.6633C34.6593 17.6633 34.7493 17.9843 34.8303 18.4403C34.6568 18.4464 34.4856 18.4808 34.3233 18.5423C34.2846 18.1051 34.0788 17.6996 33.7486 17.4104C33.4184 17.1212 32.9893 16.9706 32.5508 16.9899C32.1123 17.0093 31.6982 17.1971 31.3947 17.5142C31.0913 17.8313 30.9219 18.2534 30.9219 18.6923C30.9219 19.1312 31.0913 19.5532 31.3947 19.8704C31.6982 20.1875 32.1123 20.3753 32.5508 20.3946C32.9893 20.414 33.4184 20.2633 33.7486 19.9742C34.0788 19.685 34.2846 19.2795 34.3233 18.8423C34.4959 18.7611 34.6844 18.719 34.8753 18.7193C34.9539 19.2152 34.9781 19.7182 34.9473 20.2193C34.9473 20.2463 34.9143 20.2433 34.8963 20.2373L34.4013 20.1533C34.3827 20.1494 34.3635 20.1494 34.3449 20.1533C34.3263 20.1572 34.3087 20.1648 34.2932 20.1758C34.2778 20.1868 34.2647 20.2008 34.2549 20.2171C34.2451 20.2334 34.2387 20.2515 34.2363 20.2703C34.2324 20.3054 34.2416 20.3406 34.2621 20.3694C34.2825 20.3982 34.3129 20.4184 34.3473 20.4263C34.5843 20.4679 34.8238 20.494 35.0643 20.5043C35.1483 20.5043 35.2263 20.4683 35.2383 20.2583C35.2631 19.7632 35.24 19.2669 35.1693 18.7763C35.254 18.7994 35.3348 18.8348 35.4093 18.8813C35.42 19.2218 35.53 19.5517 35.7259 19.8304C35.9218 20.1091 36.1949 20.3244 36.5117 20.4498C36.8284 20.5752 37.1749 20.6052 37.5085 20.5361C37.842 20.4671 38.1481 20.3019 38.389 20.061C38.6299 19.8202 38.795 19.5141 38.8641 19.1805C38.9332 18.8469 38.9032 18.5004 38.7778 18.1837C38.6524 17.867 38.4371 17.5938 38.1584 17.3979C37.8797 17.2021 37.5497 17.092 37.2093 17.0813L37.1943 17.0903ZM32.5473 20.1293C32.2704 20.1121 32.0047 20.0138 31.7833 19.8466C31.5619 19.6794 31.3947 19.4508 31.3023 19.1892C31.21 18.9276 31.1968 18.6446 31.2642 18.3755C31.3316 18.1065 31.4768 17.8632 31.6815 17.676C31.8863 17.4889 32.1416 17.3661 32.4157 17.3231C32.6897 17.2801 32.9704 17.3187 33.2226 17.4341C33.4749 17.5495 33.6876 17.7366 33.8343 17.9721C33.9809 18.2075 34.055 18.481 34.0473 18.7583C34.0392 18.9469 33.9939 19.1321 33.9141 19.3032C33.8342 19.4743 33.7214 19.628 33.582 19.7553C33.4427 19.8827 33.2795 19.9813 33.1019 20.0455C32.9244 20.1097 32.7359 20.1381 32.5473 20.1293ZM37.1043 20.2073C36.8266 20.1907 36.56 20.0927 36.3377 19.9255C36.1154 19.7583 35.9473 19.5294 35.8543 19.2673C35.7613 19.0051 35.7476 18.7214 35.8148 18.4515C35.882 18.1816 36.0273 17.9375 36.2324 17.7497C36.4375 17.5618 36.6933 17.4385 36.9681 17.3951C37.2428 17.3518 37.5242 17.3903 37.7772 17.5059C38.0302 17.6214 38.2436 17.809 38.3906 18.045C38.5377 18.2811 38.612 18.5553 38.6043 18.8333C38.5871 19.2148 38.4192 19.5739 38.1373 19.8315C37.8554 20.0892 37.4828 20.2244 37.1013 20.2073H37.1043Z" fill="#414141"/>
<path d="M63.36 57.269H61.017C61.044 56.627 61.017 55.187 61.017 54.569C61.0154 54.4804 60.9796 54.3958 60.9169 54.3331C60.8542 54.2704 60.7696 54.2345 60.681 54.233H60.258V52.343C60.2566 52.2556 60.222 52.1719 60.1613 52.109C60.1006 52.0461 60.0183 52.0085 59.931 52.004C59.745 52.004 59.511 52.004 59.247 51.983C59.274 51.557 59.232 50.744 58.983 50.378C58.9472 50.3247 58.9008 50.2795 58.8467 50.245C58.7925 50.2106 58.7319 50.1877 58.6685 50.1778C58.6051 50.1679 58.5403 50.1713 58.4783 50.1877C58.4162 50.2041 58.3583 50.2331 58.308 50.273C58.2803 50.1901 58.2356 50.1139 58.1769 50.0491C58.1181 49.9844 58.0466 49.9327 57.9667 49.8971C57.8868 49.8615 57.8005 49.843 57.7131 49.8426C57.6257 49.8423 57.5391 49.8601 57.459 49.895C57.382 49.8048 57.2779 49.7417 57.1623 49.7153C57.0467 49.6888 56.9256 49.7003 56.817 49.748C56.217 45.548 54.291 37.172 48.819 34.544C48.1505 34.2197 47.4573 33.9488 46.746 33.734C46.7326 33.2455 46.7607 32.7567 46.83 32.273C46.8346 32.2434 46.847 32.2155 46.866 32.1923C46.885 32.1691 46.9098 32.1514 46.938 32.141C47.4607 31.9094 47.9278 31.5688 48.3081 31.1419C48.6884 30.7151 48.9731 30.2119 49.143 29.666C49.1567 29.6335 49.1804 29.6062 49.2105 29.5879C49.2407 29.5696 49.2758 29.5612 49.311 29.564C51.156 29.633 50.811 28.421 50.694 28.226C50.4365 27.9062 50.0701 27.6925 49.665 27.626C49.6214 27.6166 49.5831 27.5908 49.558 27.5539C49.5328 27.5171 49.5228 27.472 49.53 27.428C49.596 26.993 49.719 26.159 49.812 25.469C49.8168 25.4324 49.8068 25.3954 49.7843 25.3661C49.7618 25.3369 49.7286 25.3178 49.692 25.313C49.6554 25.3082 49.6184 25.3182 49.5891 25.3407C49.5599 25.3632 49.5408 25.3964 49.536 25.433C49.443 26.12 49.317 26.951 49.254 27.386C49.2355 27.5011 49.2623 27.6189 49.3289 27.7146C49.3955 27.8103 49.4966 27.8764 49.611 27.899C49.9419 27.9475 50.2437 28.1149 50.46 28.37C50.547 28.499 50.781 29.324 49.332 29.27C49.2341 29.2638 49.1369 29.2898 49.0551 29.3439C48.9733 29.3981 48.9115 29.4775 48.879 29.57C48.7215 30.0787 48.4573 30.5479 48.1039 30.9463C47.7506 31.3446 47.3162 31.663 46.83 31.88C46.7584 31.9084 46.6954 31.9548 46.6471 32.0147C46.5987 32.0747 46.5666 32.1461 46.554 32.222C46.4863 32.6959 46.4572 33.1744 46.467 33.653C46.467 33.77 46.521 34.07 46.377 34.133C46.0121 34.304 45.6114 34.3846 45.2087 34.3678C44.8061 34.3511 44.4135 34.2376 44.064 34.037C44.0275 34.0152 43.9996 33.9816 43.9848 33.9418C43.9701 33.902 43.9695 33.8583 43.983 33.818C44.034 33.665 44.376 32.144 44.415 31.913C44.6665 32.0221 44.9305 32.0996 45.201 32.144C45.2189 32.1472 45.2373 32.1467 45.255 32.1428C45.2728 32.1388 45.2896 32.1314 45.3045 32.121C45.3194 32.1105 45.3321 32.0973 45.3419 32.0819C45.3517 32.0666 45.3583 32.0494 45.3615 32.0315C45.3646 32.0136 45.3642 31.9952 45.3603 31.9774C45.3563 31.9597 45.3489 31.9429 45.3385 31.928C45.328 31.913 45.3148 31.9003 45.2994 31.8906C45.284 31.8808 45.2669 31.8742 45.249 31.871C43.065 31.49 42.795 29.489 43.233 27.317C43.233 27.26 43.908 24.296 43.914 24.269C43.9179 24.2346 43.909 24.2 43.889 24.1717C43.869 24.1434 43.8393 24.1235 43.8056 24.1157C43.7719 24.1079 43.7364 24.1128 43.7061 24.1295C43.6757 24.1461 43.6526 24.1734 43.641 24.206C43.62 24.305 42.969 27.206 42.96 27.26C42.615 28.982 42.63 30.914 44.16 31.784C44.1058 32.2921 44.0054 32.7942 43.86 33.284C42.6536 33.2625 41.4572 33.507 40.3559 34.0001C39.2546 34.4932 38.2755 35.2228 37.488 36.137C36.75 34.502 34.671 34.286 33.237 36.512C33.0026 36.2725 32.7059 36.1032 32.3805 36.0232C32.0551 35.9431 31.7137 35.9555 31.395 36.059C30.576 36.359 30.456 37.058 30.213 37.628C29.82 38.528 29.853 38.507 29.205 38.828C29.0811 38.8834 28.9609 38.9465 28.845 39.017C28.5156 38.2923 28.0697 37.6265 27.525 37.046C28.059 34.301 27.954 34.148 27.918 34.097C27.9059 34.0797 27.8903 34.0652 27.8722 34.0543C27.8541 34.0434 27.8339 34.0365 27.813 34.034C27.738 34.034 27.597 34.004 25.794 35.858C24.9714 35.5289 24.071 35.4455 23.202 35.618C23.112 35.1102 23.0898 34.5927 23.136 34.079C23.5793 33.9224 23.9781 33.6607 24.2984 33.3164C24.6186 32.9722 24.8508 32.5555 24.975 32.102C25.112 31.4368 25.1803 30.7592 25.179 30.08C26.901 27.737 29.547 25.541 32.418 25.778C32.4 25.862 32.379 25.946 32.358 26.03C32.3424 26.111 32.349 26.1947 32.3769 26.2723C32.4049 26.3499 32.4533 26.4186 32.517 26.471C33.612 27.506 35.16 26.957 35.73 26.471C35.7993 26.4155 35.8529 26.3428 35.8856 26.2602C35.9182 26.1776 35.9287 26.0879 35.916 26C35.916 25.931 35.895 25.844 35.883 25.748C36.8231 25.7064 37.7612 25.8682 38.633 26.2224C39.5049 26.5765 40.2901 27.1146 40.935 27.8C41.5443 28.4287 42.0279 29.1679 42.36 29.978C42.3749 30.0099 42.4012 30.0352 42.4338 30.0486C42.4664 30.0621 42.5028 30.0629 42.5359 30.0509C42.5691 30.0388 42.5965 30.0148 42.6128 29.9836C42.6291 29.9523 42.6331 29.9161 42.624 29.882C42.2818 29.0384 41.7808 28.2684 41.148 27.614C40.4679 26.9029 39.6435 26.3455 38.7303 25.9791C37.817 25.6128 36.836 25.446 35.853 25.49C35.823 25.145 35.829 24.206 35.826 24.194C37.242 23.681 37.962 22.172 38.166 20.774C38.394 19.202 38.22 18.074 38.166 16.226C38.504 16.0728 38.7977 15.8364 39.0196 15.539C39.2415 15.2415 39.3844 14.8927 39.435 14.525C39.4641 13.9255 39.342 13.3283 39.0799 12.7883C38.8178 12.2483 38.4241 11.783 37.935 11.435C36.735 10.616 35.457 11.48 34.362 11.414C33.267 11.348 32.979 11.036 31.716 11.414C30.453 11.792 30.012 13.295 29.745 13.871C29.478 14.447 28.245 15.509 28.152 16.73C28.074 17.837 28.911 18.83 29.073 18.995C28.716 19.919 29.295 20.195 29.511 20.318C29.607 20.816 29.94 21.971 30.951 22.337C31.155 22.838 31.668 23.867 32.571 24.278C32.5684 24.6921 32.5333 25.1054 32.466 25.514C29.601 25.253 26.916 27.314 25.17 29.6V28.364C25.4621 27.0552 25.3873 25.6911 24.954 24.422C24.7004 24.7523 24.4117 25.054 24.093 25.322C24.093 25.322 24.657 25.946 24.897 28.022C24.855 29.402 24.945 30.887 24.675 32.033C24.523 32.6351 24.1552 33.1605 23.6415 33.5095C23.1277 33.8584 22.5038 34.0066 21.888 33.926C21.8543 33.9264 21.8219 33.9388 21.7966 33.9611C21.7712 33.9833 21.7547 34.0139 21.75 34.0473C21.7453 34.0806 21.7527 34.1146 21.7709 34.143C21.789 34.1713 21.8167 34.1923 21.849 34.202C22.1746 34.2145 22.5007 34.2005 22.824 34.16C22.7831 34.6969 22.8154 35.2368 22.92 35.765C22.7808 36.0468 22.5669 36.2851 22.3018 36.4538C22.0366 36.6226 21.7302 36.7154 21.416 36.7222C21.1017 36.729 20.7916 36.6496 20.5194 36.4924C20.2472 36.3353 20.0233 36.1065 19.872 35.831C20.0585 35.1621 20.1732 34.4752 20.214 33.782C20.2167 33.7538 20.2107 33.7254 20.1968 33.7007C20.1828 33.676 20.1616 33.6562 20.136 33.644C19.6886 33.3832 19.3205 33.0057 19.071 32.552C18.797 31.9402 18.6316 31.2855 18.582 30.617C18.582 30.617 17.208 30.242 17.4 29.288C17.535 28.616 18.516 28.814 19.014 28.889C19.0576 28.897 19.1025 28.8952 19.1454 28.8838C19.1883 28.8723 19.2281 28.8515 19.262 28.8228C19.2958 28.7941 19.3229 28.7582 19.3412 28.7178C19.3596 28.6774 19.3687 28.6334 19.368 28.589C19.368 27.971 19.368 26.684 19.599 26.441C20.001 26 23.265 26.033 24.447 24.704C25.347 23.705 25.158 22.346 25.014 21.734C25.0057 21.6985 24.9888 21.6656 24.965 21.6381C24.9411 21.6105 24.9109 21.5892 24.8769 21.5759C24.843 21.5626 24.8063 21.5578 24.7701 21.5618C24.7339 21.5658 24.6992 21.5786 24.669 21.599C24.1908 21.9252 23.6522 22.1526 23.085 22.268C22.023 22.469 18.483 22.646 17.421 24.482C16.701 25.745 16.536 27.665 17.181 28.94C17.1105 29.1533 17.088 29.3794 17.1149 29.6024C17.1419 29.8254 17.2177 30.0397 17.337 30.23C17.397 30.905 17.667 32.261 18.858 32.711C19.12 33.1709 19.4921 33.5585 19.941 33.839C19.8918 34.4642 19.7914 35.0842 19.641 35.693C16.08 34.439 12.927 37.673 12.03 42.968C11.175 48.005 11.928 54.587 12.03 55.355C11.9517 55.3341 11.87 55.3292 11.7899 55.3406C11.7097 55.3521 11.6326 55.3797 11.5634 55.4217C11.4941 55.4638 11.4341 55.5194 11.387 55.5853C11.3398 55.6512 11.3065 55.7259 11.289 55.805C11.2368 55.7675 11.1774 55.7414 11.1145 55.7283C11.0517 55.7152 10.9868 55.7154 10.924 55.729C10.8612 55.7426 10.802 55.7692 10.7501 55.8071C10.6983 55.845 10.655 55.8933 10.623 55.949C10.362 56.39 10.437 57.227 10.443 57.269H6.64198C6.62195 57.2661 6.60151 57.2675 6.58207 57.2731C6.56263 57.2788 6.54463 57.2886 6.5293 57.3018C6.51398 57.315 6.50168 57.3314 6.49326 57.3498C6.48483 57.3682 6.48047 57.3883 6.48047 57.4085C6.48047 57.4288 6.48483 57.4488 6.49326 57.4672C6.50168 57.4856 6.51398 57.502 6.5293 57.5152C6.54463 57.5284 6.56263 57.5382 6.58207 57.5439C6.60151 57.5495 6.62195 57.5509 6.64198 57.548H10.458C10.4981 57.8984 10.6083 58.2371 10.782 58.544C10.8116 58.6044 10.8564 58.6561 10.9119 58.6941C10.9674 58.7321 11.0318 58.7551 11.0989 58.7608C11.1659 58.7666 11.2333 58.7549 11.2945 58.7268C11.3556 58.6988 11.4085 58.6555 11.448 58.601C11.463 58.634 11.904 59.285 12.234 58.664C12.234 58.697 12.576 59.186 12.888 58.733C12.888 58.733 13.209 59.051 13.425 58.529C13.5321 58.2169 13.5977 57.8922 13.62 57.563C13.638 57.563 14.334 57.548 14.334 57.548C14.514 58.553 15.072 58.412 15.213 58.253C15.3542 58.0465 15.419 57.7971 15.396 57.548H15.696C15.567 46.352 15.807 44.048 15.81 44.006C15.814 43.9694 15.8323 43.9359 15.861 43.9128C15.8897 43.8897 15.9264 43.879 15.963 43.883C15.9996 43.887 16.0331 43.9053 16.0562 43.934C16.0792 43.9627 16.09 43.9994 16.086 44.036C16.086 44.06 15.846 46.376 15.975 57.536H63.375C63.395 57.5389 63.4155 57.5375 63.4349 57.5319C63.4543 57.5262 63.4723 57.5164 63.4877 57.5032C63.503 57.49 63.5153 57.4736 63.5237 57.4552C63.5321 57.4368 63.5365 57.4167 63.5365 57.3965C63.5365 57.3762 63.5321 57.3562 63.5237 57.3378C63.5153 57.3194 63.503 57.303 63.4877 57.2898C63.4723 57.2766 63.4543 57.2668 63.4349 57.2611C63.4155 57.2555 63.395 57.2541 63.375 57.257L63.36 57.269ZM31.302 22.415C31.0353 21.81 30.8584 21.1692 30.777 20.513C30.7701 20.4289 30.731 20.3508 30.6678 20.2949C30.6046 20.239 30.5223 20.2096 30.438 20.213C28.893 20.24 29.283 19.112 29.4 18.971C29.892 18.452 30.663 18.758 30.855 18.599C31.047 18.44 31.233 16.676 32.328 16.499C33.144 16.358 33.867 16.862 34.629 16.76C35.391 16.658 35.757 16.253 36.399 16.142C37.041 16.031 37.461 16.307 37.899 16.295C37.929 16.295 37.899 16.193 37.965 17.651C38.049 19.391 38.121 21.317 37.155 22.778C36.9225 23.158 36.6005 23.4753 36.2172 23.7022C35.8339 23.9291 35.4009 24.0589 34.956 24.08C34.9225 24.0849 34.8919 24.1017 34.8698 24.1273C34.8477 24.1529 34.8355 24.1857 34.8355 24.2195C34.8355 24.2533 34.8477 24.2861 34.8698 24.3117C34.8919 24.3373 34.9225 24.3541 34.956 24.359C35.1584 24.3483 35.3593 24.3182 35.556 24.269C35.5258 24.8705 35.5559 25.4735 35.646 26.069C35.6531 26.1064 35.6495 26.1451 35.6357 26.1806C35.6219 26.2162 35.5985 26.2471 35.568 26.27C34.161 27.335 33.099 26.633 32.709 26.27C32.6836 26.2512 32.6635 26.2261 32.6509 26.1971C32.6382 26.1682 32.6334 26.1364 32.637 26.105C32.79 25.4736 32.8645 24.8257 32.859 24.176C32.8582 24.1489 32.8495 24.1225 32.8341 24.1002C32.8186 24.0778 32.7971 24.0604 32.772 24.05C32.016 23.744 31.536 22.931 31.302 22.415ZM11.016 58.4C10.6718 57.6874 10.6075 56.8716 10.836 56.114C10.8501 56.0795 10.8739 56.0498 10.9044 56.0283C10.9349 56.0069 10.9709 55.9947 11.0082 55.9931C11.0454 55.9915 11.0824 56.0006 11.1146 56.0194C11.1468 56.0382 11.173 56.0658 11.19 56.099C11.0738 56.7842 11.1086 57.4866 11.292 58.157C11.394 58.574 11.067 58.469 11.016 58.4ZM11.892 58.682C11.832 58.682 11.721 58.592 11.622 58.295C11.3681 57.586 11.3182 56.82 11.478 56.084C11.478 56.084 11.67 55.484 11.988 55.655C11.8084 56.5267 11.8393 57.4286 12.078 58.286C12.078 58.337 12.09 58.631 11.901 58.67L11.892 58.682ZM12.729 58.274C12.729 58.382 12.678 58.643 12.567 58.643C12.567 58.643 12.492 58.604 12.414 58.415C12.336 58.226 11.928 56.783 12.267 55.679C12.2972 55.6246 12.3399 55.5781 12.3916 55.5435C12.4433 55.5088 12.5025 55.4869 12.5643 55.4796C12.6261 55.4722 12.6888 55.4797 12.7471 55.5013C12.8055 55.523 12.8579 55.5582 12.9 55.604C12.9 55.604 12.6 56.222 12.729 58.262V58.274ZM15.003 58.079C14.967 58.121 14.784 58.244 14.64 57.701C14.6154 57.545 14.5467 57.3993 14.442 57.281C14.1824 57.2426 13.9186 57.2426 13.659 57.281C13.674 57.188 13.74 56.939 13.68 56.891C13.6507 56.8688 13.614 56.859 13.5776 56.8634C13.5412 56.8679 13.508 56.8864 13.485 56.915C13.281 57.173 13.362 58.637 13.098 58.565C12.966 58.565 12.798 57.365 13.098 55.85C13.116 55.769 13.164 55.583 13.311 55.583C13.641 55.583 13.911 55.976 14.082 56.237C14.208 56.426 14.283 56.537 14.4 56.555C14.572 56.6004 14.7281 56.6925 14.851 56.8212C14.9738 56.9499 15.0586 57.1101 15.096 57.284C15.1316 57.5487 15.0996 57.818 15.003 58.067V58.079ZM58.755 50.531C59.118 51.032 58.989 53.048 58.653 53.231C58.605 53.261 58.461 53.153 58.437 52.877C58.4911 52.0963 58.478 51.3124 58.398 50.534C58.4197 50.5084 58.4465 50.4875 58.4766 50.4728C58.5068 50.458 58.5397 50.4497 58.5732 50.4483C58.6067 50.4469 58.6402 50.4524 58.6715 50.4646C58.7028 50.4768 58.7312 50.4953 58.755 50.519V50.531ZM57.945 50.195C58.011 50.264 58.344 50.849 58.146 52.916C58.095 53.444 57.702 53.477 57.726 53.132C57.777 52.394 57.819 50.831 57.579 50.132C57.6357 50.0944 57.7042 50.0788 57.7716 50.0882C57.8391 50.0976 57.9007 50.1313 57.945 50.183V50.195ZM57.222 50.036C57.4323 50.6372 57.5339 51.2711 57.522 51.908C57.522 52.775 57.429 53.159 57.345 53.324C57.3346 53.3441 57.3185 53.3606 57.2988 53.3715C57.279 53.3824 57.2565 53.3872 57.234 53.3853C57.2115 53.3833 57.1901 53.3748 57.1724 53.3607C57.1548 53.3466 57.1418 53.3275 57.135 53.306C57.0566 52.8584 57.0204 52.4044 57.027 51.95C57.0201 51.3325 56.8969 50.7219 56.664 50.15C56.6918 50.1045 56.7285 50.0651 56.7719 50.034C56.8152 50.003 56.8644 49.9809 56.9164 49.9692C56.9684 49.9574 57.0222 49.9562 57.0747 49.9656C57.1272 49.975 57.1773 49.9949 57.222 50.024V50.036ZM55.122 51.164C55.281 51.164 55.407 51.02 55.509 50.816C55.932 49.976 56.376 50.183 56.454 50.357C56.6379 50.8687 56.7392 51.4064 56.754 51.95C56.754 51.971 56.847 53.411 56.676 53.387C56.502 53.411 56.352 52.238 56.298 51.95C56.2872 51.7784 56.2358 51.6118 56.148 51.464C56.1328 51.4462 56.1134 51.4325 56.0915 51.4241C56.0697 51.4156 56.0461 51.4128 56.0229 51.4158C55.9997 51.4187 55.9776 51.4274 55.9585 51.4411C55.9395 51.4548 55.9242 51.4729 55.914 51.494C55.884 51.557 55.914 51.602 55.941 51.659C55.9657 51.7207 55.9828 51.7852 55.992 51.851C55.77 51.851 55.002 51.851 54.984 52.031C54.897 52.865 54.51 53.168 54.426 52.235C54.423 52.16 54.339 51.158 55.134 51.152L55.122 51.164ZM50.145 44.129C51.474 45.746 52.875 51.281 53.043 51.968L50.142 51.995C49.851 49.1 50.157 44.117 50.157 44.117L50.145 44.129ZM49.77 52.34C49.7715 52.3236 49.7791 52.3083 49.7913 52.2972C49.8035 52.2861 49.8195 52.2799 49.836 52.28C50.436 52.28 52.218 52.25 54.135 52.238C54.195 53.048 54.561 53.096 54.699 53.087C55.164 53.066 55.08 52.289 55.224 52.163C55.4929 52.1111 55.7683 52.102 56.04 52.136C56.04 52.163 56.19 53.687 56.673 53.687C56.7229 53.6899 56.7723 53.6766 56.814 53.649C56.8556 53.6214 56.8872 53.5811 56.904 53.534C56.945 53.5822 56.9974 53.6193 57.0564 53.642C57.1154 53.6647 57.1792 53.6722 57.2419 53.6638C57.3046 53.6554 57.3642 53.6315 57.4152 53.5941C57.4662 53.5568 57.5071 53.5072 57.534 53.45C57.5978 53.5477 57.6931 53.6207 57.804 53.657C58.08 53.732 58.29 53.387 58.305 53.357C58.3408 53.4117 58.3907 53.4559 58.4494 53.4848C58.508 53.5138 58.5734 53.5265 58.6386 53.5216C58.7039 53.5167 58.7666 53.4943 58.8203 53.457C58.874 53.4196 58.9167 53.3685 58.944 53.309C59.0992 52.9847 59.1889 52.633 59.208 52.274C59.208 52.274 59.715 52.274 59.901 52.274C59.9177 52.274 59.9337 52.2806 59.9455 52.2925C59.9574 52.3043 59.964 52.3203 59.964 52.337V54.218C59.922 54.218 50.985 54.194 49.764 54.218C49.776 53.945 49.743 53.174 49.782 52.328L49.77 52.34ZM48.402 54.578C48.402 54.5605 48.4089 54.5437 48.4213 54.5313C48.4337 54.519 48.4505 54.512 48.468 54.512C49.56 54.491 60.486 54.512 60.66 54.512C60.6767 54.512 60.6927 54.5186 60.7045 54.5304C60.7164 54.5423 60.723 54.5583 60.723 54.575V54.959H48.396L48.402 54.578ZM28.332 40.082C28.599 39.116 29.832 38.864 30.054 38.582C30.471 38.048 30.387 36.695 31.473 36.305C32.409 35.969 33.111 36.779 33.138 36.812C33.153 36.8289 33.1717 36.842 33.1927 36.8504C33.2137 36.8587 33.2363 36.8619 33.2588 36.8599C33.2813 36.8579 33.303 36.8506 33.3221 36.8386C33.3412 36.8266 33.3573 36.8103 33.369 36.791C33.369 36.791 34.17 35.453 35.271 35.183C36.678 34.835 37.338 36.521 37.371 36.596C37.6611 37.1444 38.0713 37.6202 38.571 37.988C39.102 38.222 40.092 38.66 40.251 39.569C40.341 39.9714 40.3472 40.3881 40.269 40.793C40.023 41.9 40.911 42.683 40.755 43.757C40.68 44.297 40.35 44.54 40.002 44.798C39.6713 45.0355 39.3968 45.3427 39.198 45.698C38.898 46.214 38.568 46.796 37.788 46.748C38.088 45.401 38.088 43.214 38.088 42.269C38.086 42.1523 38.0401 42.0406 37.9595 41.9561C37.8789 41.8716 37.7695 41.8205 37.653 41.813C37.1651 41.7907 36.6875 41.6649 36.252 41.444C35.535 41.042 35.178 38.948 33.498 39.104C33.4648 39.1062 33.4335 39.1206 33.4103 39.1444C33.387 39.1682 33.3734 39.1998 33.372 39.233C33.372 39.233 33.309 40.22 32.991 40.703C32.427 41.561 31.371 41.057 30.843 42.053C30.7943 42.1453 30.7705 42.2487 30.774 42.353C30.801 43.106 30.927 45.653 31.11 46.403C30.48 46.403 29.4 46.274 29.01 45.776C28.359 44.939 28.941 44.018 28.905 43.211C28.869 42.404 27.909 41.636 28.332 40.082ZM34.608 49.595C35.0365 49.6216 35.4655 49.5498 35.862 49.385C35.8219 49.8863 35.8481 50.3906 35.94 50.885C35.9471 50.916 35.9446 50.9483 35.9328 50.9778C35.921 51.0073 35.9005 51.0325 35.874 51.05C34.524 51.95 33.501 51.272 33.123 50.933C33.0988 50.9119 33.0816 50.884 33.0735 50.853C33.0655 50.8219 33.0671 50.7892 33.078 50.759C33.2034 50.3024 33.269 49.8315 33.273 49.358C33.2733 49.331 33.2658 49.3045 33.2514 49.2816C33.237 49.2588 33.2164 49.2405 33.192 49.229C32.556 48.929 31.692 48.014 31.392 46.343C31.2101 45.0169 31.0999 43.682 31.062 42.344C31.0615 42.2889 31.0738 42.2345 31.098 42.185C31.698 41.06 33.372 42.269 33.648 39.377C35.064 39.377 35.304 41.234 36.126 41.69C36.5979 41.9329 37.1167 42.0711 37.647 42.095C37.6929 42.098 37.736 42.1182 37.7677 42.1516C37.7994 42.1849 37.8173 42.229 37.818 42.275C37.818 43.079 37.818 45.803 37.422 47.075C37.197 47.783 36.474 49.421 34.623 49.334C34.5964 49.343 34.5731 49.3598 34.5561 49.3821C34.5391 49.4045 34.5291 49.4314 34.5275 49.4594C34.5259 49.4875 34.5327 49.5154 34.547 49.5395C34.5614 49.5637 34.5826 49.583 34.608 49.595ZM31.101 49.79C30.912 49.616 30.411 49.679 30.225 49.712C30.2327 49.6663 30.2438 49.6212 30.258 49.577C30.2702 49.5636 30.2797 49.5479 30.2858 49.5309C30.292 49.5138 30.2947 49.4957 30.2939 49.4776C30.293 49.4595 30.2886 49.4418 30.2809 49.4254C30.2732 49.4089 30.2624 49.3942 30.249 49.382C30.2356 49.3698 30.2199 49.3603 30.2029 49.3542C30.1858 49.348 30.1677 49.3453 30.1496 49.3461C30.1315 49.347 30.1137 49.3513 30.0973 49.359C30.0809 49.3667 30.0662 49.3776 30.054 49.391C29.9696 49.6235 29.9132 49.8652 29.886 50.111C29.844 50.429 29.739 51.26 29.586 51.347C29.484 51.227 29.394 50.663 29.388 50.036C29.388 49.58 29.481 48.293 29.865 48.293C30.465 48.293 30.798 49.073 31.065 49.088C31.092 49.088 31.614 49.106 31.716 49.538C31.7438 49.6884 31.7307 49.8436 31.6779 49.9871C31.6251 50.1307 31.5346 50.2574 31.416 50.354C31.368 50.393 31.242 50.474 31.143 50.42C31.113 50.405 31.143 50.267 31.143 50.192C31.143 50.117 31.218 49.883 31.101 49.79ZM29.187 51.059C29.205 51.542 28.839 51.344 28.734 50.975C28.5226 50.0993 28.5164 49.1865 28.716 48.308C28.779 48.089 29.397 48.23 29.343 48.404C29.1056 49.2685 29.0565 50.1739 29.199 51.059H29.187ZM27.927 48.5C27.9851 48.4449 28.0574 48.407 28.1358 48.3905C28.2142 48.3741 28.2956 48.3798 28.371 48.407C28.167 49.073 28.281 50.381 28.488 51.074C28.455 51.488 28.101 51.458 28.014 51.284C27.678 50.624 27.534 48.875 27.927 48.5ZM27.627 51.044C27.663 51.14 27.54 51.587 27.225 51.191C26.91 50.795 26.562 48.323 27.489 48.818C27.4269 49.134 27.4057 49.4566 27.426 49.778C27.426 50.021 27.618 51.044 27.618 51.05L27.627 51.044ZM26.343 42.044C26.322 41.876 26.598 41.834 26.619 42.005C26.9363 44.0419 27.1366 46.0952 27.219 48.155C27.219 48.335 26.946 48.323 26.94 48.155C26.8547 46.1121 26.6523 44.0758 26.334 42.056L26.343 42.044ZM27.66 34.4C27.624 34.814 27.459 35.801 27.27 36.8C26.9084 36.4622 26.4977 36.181 26.052 35.966C26.694 35.3 27.354 34.658 27.66 34.4ZM34.287 55.1C33.852 55.172 33.252 55.28 32.619 55.4C32.583 55.151 32.532 54.914 32.484 54.713C32.853 54.752 33.666 54.842 34.284 54.956L34.287 55.1ZM34.269 55.385C34.2289 56.0104 34.2289 56.6376 34.269 57.263H29.136C29.136 57.026 29.169 56.525 29.484 56.405C30.183 56.138 32.976 55.613 34.269 55.4V55.385ZM48.135 54.56V57.26H34.566C34.5064 56.3895 34.5185 55.5155 34.602 54.647C36.456 54.581 43.17 54.047 43.239 54.029C43.2756 54.0262 43.3096 54.009 43.3335 53.9812C43.3574 53.9533 43.3693 53.9171 43.3665 53.8805C43.3637 53.8439 43.3465 53.8099 43.3186 53.786C43.2908 53.7621 43.2546 53.7502 43.218 53.753C43.146 53.753 36.12 54.329 34.473 54.371C34.4389 54.3716 34.4062 54.3848 34.3813 54.4081C34.3564 54.4314 34.3409 54.463 34.338 54.497C34.338 54.497 34.338 54.572 34.32 54.677C33.615 54.551 32.7 54.455 32.406 54.425C32.358 54.254 32.319 54.143 32.316 54.125C32.3057 54.0964 32.2864 54.0718 32.261 54.055C32.2355 54.0383 32.2054 54.0302 32.175 54.032C28.704 54.248 23.037 54.032 22.98 54.032C22.9433 54.0319 22.908 54.0459 22.8812 54.0709C22.8545 54.096 22.8383 54.1304 22.836 54.167C22.8352 54.1854 22.8381 54.2037 22.8444 54.221C22.8508 54.2382 22.8606 54.254 22.8732 54.2674C22.8858 54.2808 22.9009 54.2916 22.9177 54.2991C22.9345 54.3066 22.9526 54.3106 22.971 54.311C23.028 54.311 28.59 54.527 32.085 54.311C32.2003 54.6789 32.2875 55.0549 32.346 55.436C31.3452 55.607 30.3554 55.8374 29.382 56.126C28.905 56.309 28.854 56.948 28.857 57.245H19.008C20.319 53.528 23.808 51.638 26.739 50.687C27.111 51.998 27.708 51.509 27.777 51.413C28.332 51.989 28.56 51.569 28.638 51.434C29.067 51.83 29.28 51.569 29.352 51.461C29.352 51.461 30.009 52.187 30.192 49.979C30.192 49.979 30.192 49.886 30.888 49.934C30.8993 49.9975 30.8993 50.0625 30.888 50.126C30.765 50.837 31.407 50.702 31.602 50.552C31.7591 50.4249 31.8791 50.2578 31.9493 50.0683C32.0195 49.8787 32.0374 49.6738 32.001 49.475C31.9466 49.2823 31.8313 49.1125 31.6723 48.9908C31.5133 48.8691 31.3192 48.8022 31.119 48.8C31.044 48.317 30.927 47.618 30.744 46.643C30.927 46.658 31.08 46.661 31.176 46.661C31.476 47.948 32.172 49.004 32.976 49.424C32.9692 49.8369 32.9097 50.2472 32.799 50.645C32.7704 50.7273 32.7668 50.8163 32.7886 50.9006C32.8105 50.985 32.8569 51.061 32.922 51.119C34.035 52.151 35.463 51.632 36.015 51.26C36.087 51.2112 36.1429 51.1421 36.1755 51.0614C36.2081 50.9807 36.2159 50.8921 36.198 50.807C36.143 50.5172 36.1139 50.223 36.111 49.928C42.261 49.367 47.682 53.792 48.258 54.281C48.2161 54.3151 48.183 54.3588 48.1616 54.4084C48.1402 54.4581 48.1311 54.5121 48.135 54.566V54.56ZM60.735 57.26H48.414V56.825C49.044 56.825 60.219 56.843 60.747 56.825C60.744 57.005 60.741 57.152 60.738 57.269L60.735 57.26ZM60.735 56.552C59.16 56.591 49.23 56.552 48.399 56.552V55.22H60.729C60.747 55.634 60.753 56.129 60.75 56.561L60.735 56.552Z" fill="#414141"/>
<path d="M52.4247 58.1449C52.3883 58.1442 52.3536 58.1294 52.3279 58.1037C52.3022 58.0779 52.2874 58.0433 52.2867 58.0069V55.8529C52.2837 55.8329 52.2851 55.8125 52.2908 55.793C52.2964 55.7736 52.3062 55.7556 52.3194 55.7402C52.3327 55.7249 52.3491 55.7126 52.3675 55.7042C52.3859 55.6958 52.4059 55.6914 52.4262 55.6914C52.4464 55.6914 52.4664 55.6958 52.4848 55.7042C52.5032 55.7126 52.5196 55.7249 52.5329 55.7402C52.5461 55.7556 52.5559 55.7736 52.5615 55.793C52.5672 55.8125 52.5686 55.8329 52.5657 55.8529V58.0069C52.5649 58.0438 52.5497 58.0789 52.5233 58.1047C52.497 58.1305 52.4615 58.1449 52.4247 58.1449Z" fill="#7BD2FF"/>
<path d="M32.3308 18.7544C32.3308 18.8706 32.3665 18.982 32.4301 19.0641C32.4937 19.1463 32.5799 19.1924 32.6698 19.1924C32.7597 19.1924 32.8459 19.1463 32.9095 19.0641C32.9731 18.982 33.0088 18.8706 33.0088 18.7544C33.0088 18.6382 32.9731 18.5268 32.9095 18.4447C32.8459 18.3626 32.7597 18.3164 32.6698 18.3164C32.5799 18.3164 32.4937 18.3626 32.4301 18.4447C32.3665 18.5268 32.3308 18.6382 32.3308 18.7544Z" fill="#414141"/>
<path d="M36.3809 18.8091C36.3809 18.9253 36.4166 19.0367 36.4802 19.1188C36.5437 19.2009 36.63 19.2471 36.7199 19.2471C36.8098 19.2471 36.896 19.2009 36.9596 19.1188C37.0231 19.0367 37.0589 18.9253 37.0589 18.8091C37.0589 18.6929 37.0231 18.5815 36.9596 18.4994C36.896 18.4172 36.8098 18.3711 36.7199 18.3711C36.63 18.3711 36.5437 18.4172 36.4802 18.4994C36.4166 18.5815 36.3809 18.6929 36.3809 18.8091Z" fill="#414141"/>
<path d="M30.24 19.6396C30.2222 19.6399 30.2045 19.6366 30.188 19.6299C30.1715 19.6232 30.1565 19.6132 30.144 19.6006C30.0565 19.526 29.9543 19.4708 29.844 19.4386C29.8086 19.4283 29.7787 19.4043 29.761 19.3719C29.7433 19.3396 29.7391 19.3015 29.7495 19.2661C29.7598 19.2307 29.7838 19.2008 29.8162 19.1831C29.8485 19.1654 29.8866 19.1613 29.922 19.1716C30.0708 19.2159 30.2073 19.2939 30.321 19.3996C30.3397 19.4182 30.3529 19.4416 30.359 19.4673C30.365 19.493 30.3638 19.5199 30.3554 19.5449C30.3469 19.5699 30.3316 19.592 30.3112 19.6088C30.2908 19.6255 30.2661 19.6362 30.24 19.6396Z" fill="#414141"/>
<path d="M21.1618 22.0053C21.0963 21.8009 20.9947 21.6099 20.8618 21.4413C20.7388 21.1413 19.2898 17.7453 19.0888 17.3523C18.7678 16.7283 18.4438 16.6743 18.2278 16.7523C17.8348 16.8753 17.9038 17.4183 18.0148 17.6853C18.1258 17.9523 18.8188 19.4433 18.9538 19.8363C18.8331 19.9019 18.7089 19.961 18.5818 20.0133C18.4828 19.8093 18.0778 18.8703 17.7868 18.2763C17.4598 17.6013 17.1358 17.3013 16.8268 17.4393C16.4428 17.5983 16.4038 18.0663 16.7188 18.8283C16.9888 19.4038 17.2892 19.9646 17.6188 20.5083C17.5257 20.5024 17.4331 20.5266 17.3547 20.5774C17.2764 20.6282 17.2165 20.7028 17.1838 20.7903C16.7848 20.7903 16.5208 21.0573 16.6378 21.6033C16.7998 22.3533 17.6578 23.5323 18.0718 23.5743C18.4858 23.6163 18.4588 23.2743 18.4588 23.1543C19.1638 23.3433 18.9508 22.4433 18.8728 22.2363C18.9088 22.2363 19.7998 21.9363 19.9048 22.4733C19.9408 22.6473 20.2258 22.5633 20.1718 22.3893C19.9678 21.7383 19.3438 21.8523 18.9328 21.9393C18.5218 22.0263 18.4828 21.8673 18.5308 21.7803C18.6838 21.5043 19.1308 21.2133 19.8058 21.1803C20.4808 21.1473 20.8918 22.0803 20.8978 22.0803C20.9133 22.108 20.9377 22.1297 20.967 22.1419C20.9964 22.154 21.029 22.1559 21.0595 22.1472C21.0901 22.1385 21.1168 22.1198 21.1354 22.094C21.1539 22.0683 21.1633 22.037 21.1618 22.0053ZM18.0958 23.3013C17.9008 23.2833 17.0728 22.3143 16.8958 21.5493C16.8658 21.4203 16.7998 21.0273 17.1448 21.0753C17.3194 21.7612 17.6581 22.3944 18.1318 22.9203C18.3028 23.3013 18.1408 23.3013 18.0958 23.3013ZM19.7938 20.9013C18.2458 20.9673 17.7688 22.2543 18.5788 22.2633C18.8338 22.8273 18.5608 22.8993 18.4918 22.8633C17.9835 22.3693 17.6177 21.7475 17.4328 21.0633C17.4328 20.9583 17.5138 20.6553 17.7928 20.8263L18.0298 21.2013C18.051 21.2284 18.0814 21.2468 18.1152 21.2531C18.149 21.2594 18.184 21.2531 18.2135 21.2354C18.243 21.2177 18.265 21.1898 18.2754 21.157C18.2858 21.1242 18.2838 21.0887 18.2698 21.0573C18.2698 21.0393 17.2468 19.3803 16.9768 18.7203C16.8388 18.3873 16.6528 17.8203 16.9348 17.6943C17.0398 17.6493 17.2558 17.8083 17.5348 18.3843C17.7388 18.8073 17.9338 19.2483 18.0928 19.6053C18.3928 20.3133 18.3928 20.3133 18.5218 20.3043C18.7601 20.2374 18.9875 20.1363 19.1968 20.0043C19.3108 19.9113 19.3198 19.9023 18.5338 18.1653C18.4138 17.8953 18.3058 17.6613 18.2698 17.5653C18.1918 17.3763 18.1468 17.0673 18.3088 17.0073C18.5188 16.9263 18.7318 17.2743 18.8368 17.4783C18.9928 17.7783 19.9408 19.9983 20.3818 21.0333C20.2007 20.9387 19.998 20.8932 19.7938 20.9013Z" fill="#414141"/>
<path d="M26.6369 32.0542L27.0149 31.3522C27.0347 31.3234 27.0645 31.303 27.0985 31.2949C27.1325 31.2867 27.1683 31.2916 27.199 31.3084C27.2296 31.3252 27.253 31.3529 27.2644 31.3859C27.2758 31.419 27.2746 31.4551 27.2609 31.4872L26.8799 32.1863C26.8624 32.2185 26.8328 32.2424 26.7976 32.2528C26.7625 32.2632 26.7246 32.2593 26.6924 32.2417C26.6602 32.2242 26.6362 32.1947 26.6258 32.1595C26.6154 32.1243 26.6194 32.0865 26.6369 32.0542Z" fill="#414141"/>
<path d="M29.8771 29.0954L29.4571 28.4204C29.4416 28.3892 29.4382 28.3533 29.4476 28.3198C29.457 28.2862 29.4785 28.2573 29.508 28.2387C29.5374 28.22 29.5728 28.2129 29.6071 28.2188C29.6415 28.2247 29.6725 28.2431 29.6941 28.2704L30.1141 28.9484C30.1274 28.9795 30.1292 29.0143 30.1191 29.0465C30.1089 29.0787 30.0876 29.1062 30.0589 29.124C30.0302 29.1418 29.996 29.1487 29.9627 29.1435C29.9293 29.1382 29.8989 29.1212 29.8771 29.0954Z" fill="#414141"/>
<path d="M32.7996 32.4196L33.1776 31.7176C33.1977 31.6903 33.227 31.6711 33.2601 31.6636C33.2932 31.6561 33.328 31.6609 33.3579 31.6769C33.3878 31.693 33.4109 31.7193 33.423 31.751C33.4351 31.7827 33.4353 31.8177 33.4236 31.8496L33.0456 32.5516C33.0255 32.579 32.9962 32.5981 32.9631 32.6056C32.93 32.6131 32.8953 32.6084 32.8653 32.5923C32.8354 32.5763 32.8123 32.55 32.8002 32.5182C32.7882 32.4865 32.7879 32.4515 32.7996 32.4196Z" fill="#414141"/>
<path d="M29.301 34.9497L29.781 35.5857C29.8033 35.6152 29.8129 35.6523 29.8079 35.6888C29.8028 35.7254 29.7834 35.7585 29.754 35.7807C29.7245 35.803 29.6875 35.8127 29.6509 35.8076C29.6143 35.8026 29.5813 35.7832 29.559 35.7537L29.079 35.1177C29.068 35.1032 29.0599 35.0865 29.0553 35.0689C29.0507 35.0512 29.0496 35.0327 29.0521 35.0146C29.0546 34.9965 29.0607 34.9791 29.0699 34.9633C29.0791 34.9476 29.0914 34.9338 29.106 34.9227C29.1206 34.9117 29.1372 34.9036 29.1549 34.899C29.1725 34.8944 29.191 34.8933 29.2091 34.8958C29.2272 34.8984 29.2446 34.9044 29.2604 34.9136C29.2762 34.9229 29.29 34.9352 29.301 34.9497Z" fill="#414141"/>
<path d="M37.0737 33.5927L36.9777 32.8037C36.973 32.7671 36.9829 32.7301 37.0054 32.7008C37.0279 32.6715 37.0611 32.6524 37.0977 32.6477C37.1343 32.6429 37.1713 32.6528 37.2006 32.6753C37.2298 32.6978 37.249 32.7311 37.2537 32.7677L37.3497 33.5597C37.3541 33.5963 37.3438 33.6331 37.321 33.6621C37.2982 33.691 37.2648 33.7098 37.2282 33.7142C37.1916 33.7185 37.1548 33.7082 37.1258 33.6854C37.0968 33.6626 37.0781 33.6293 37.0737 33.5927Z" fill="#414141"/>
<path d="M37.5354 28.8684L37.1784 28.1574C37.1621 28.1244 37.1596 28.0862 37.1714 28.0513C37.1832 28.0165 37.2084 27.9877 37.2414 27.9714C37.2744 27.9551 37.3126 27.9526 37.3475 27.9644C37.3824 27.9762 37.4111 28.0014 37.4274 28.0344L37.7874 28.7454C37.7993 28.7781 37.7986 28.8141 37.7856 28.8463C37.7725 28.8786 37.748 28.9049 37.7167 28.9202C37.6854 28.9355 37.6496 28.9386 37.6161 28.9291C37.5827 28.9195 37.5539 28.8979 37.5354 28.8684Z" fill="#414141"/>
<path d="M40.0808 31.2075L40.8638 31.3545C40.8981 31.3639 40.9276 31.386 40.9464 31.4162C40.9652 31.4465 40.9718 31.4827 40.965 31.5176C40.9581 31.5526 40.9383 31.5836 40.9096 31.6046C40.8808 31.6255 40.8451 31.6348 40.8098 31.6305L40.0298 31.4835C39.9961 31.4739 39.9673 31.452 39.9488 31.4222C39.9304 31.3924 39.9237 31.3569 39.9301 31.3224C39.9364 31.288 39.9554 31.2571 39.9833 31.2359C40.0111 31.2147 40.0459 31.2046 40.0808 31.2075Z" fill="#414141"/>
<path d="M22.4007 30.1582C22.6069 29.9607 22.7947 29.7448 22.9617 29.5132C22.6437 29.4802 22.2297 29.5672 22.1367 29.3482C22.0743 28.8347 22.0492 28.3173 22.0617 27.8002C22.0587 27.7801 22.0602 27.7597 22.0658 27.7403C22.0715 27.7208 22.0812 27.7028 22.0945 27.6875C22.1077 27.6722 22.1241 27.6599 22.1425 27.6515C22.1609 27.643 22.1809 27.6387 22.2012 27.6387C22.2214 27.6387 22.2415 27.643 22.2599 27.6515C22.2783 27.6599 22.2947 27.6722 22.3079 27.6875C22.3211 27.7028 22.3309 27.7208 22.3366 27.7403C22.3422 27.7597 22.3436 27.7801 22.3407 27.8002C22.3407 28.4002 22.3557 29.0422 22.3827 29.2222C22.6377 29.2732 23.2557 29.1352 23.2617 29.4562C23.2617 29.6542 22.8987 30.0562 22.5867 30.3562C22.5596 30.3738 22.5271 30.3814 22.4949 30.3775C22.4628 30.3736 22.433 30.3586 22.4109 30.335C22.3887 30.3114 22.3755 30.2808 22.3737 30.2484C22.3718 30.2161 22.3814 30.1842 22.4007 30.1582Z" fill="#414141"/>
<path d="M20.3015 28.1004C20.275 28.1005 20.2491 28.093 20.2268 28.0787C20.2045 28.0645 20.1868 28.0442 20.1757 28.0201C20.1647 27.9961 20.1607 27.9694 20.1644 27.9432C20.1681 27.917 20.1792 27.8925 20.1965 27.8724C20.3305 27.7191 20.5184 27.6233 20.7211 27.6048C20.9239 27.5864 21.126 27.6468 21.2855 27.7734C21.3119 27.7961 21.329 27.8277 21.3336 27.8622C21.3381 27.8968 21.3296 27.9318 21.3099 27.9604C21.2901 27.9891 21.2605 28.0095 21.2266 28.0176C21.1928 28.0257 21.1571 28.021 21.1265 28.0044C21.0245 27.9169 20.8922 27.8729 20.7582 27.8819C20.6241 27.8909 20.4989 27.9521 20.4095 28.0524C20.3963 28.0681 20.3797 28.0805 20.361 28.0889C20.3423 28.0972 20.3219 28.1011 20.3015 28.1004Z" fill="#414141"/>
<path d="M24.0987 27.9794C24.081 27.9795 24.0633 27.9762 24.0469 27.9695C24.0304 27.9628 24.0154 27.9529 24.0027 27.9404C23.9584 27.896 23.9058 27.8609 23.8479 27.8368C23.79 27.8128 23.7279 27.8005 23.6652 27.8005C23.6026 27.8005 23.5405 27.8128 23.4826 27.8368C23.4247 27.8609 23.3721 27.896 23.3277 27.9404C23.3014 27.9664 23.2658 27.981 23.2287 27.981C23.1917 27.981 23.1561 27.9664 23.1297 27.9404C23.1165 27.9275 23.106 27.9122 23.0988 27.8951C23.0916 27.8781 23.0879 27.8599 23.0879 27.8414C23.0879 27.8229 23.0916 27.8047 23.0988 27.7877C23.106 27.7707 23.1165 27.7553 23.1297 27.7424C23.199 27.6718 23.2816 27.6158 23.3728 27.5775C23.464 27.5392 23.5619 27.5195 23.6607 27.5195C23.7596 27.5195 23.8575 27.5392 23.9487 27.5775C24.0399 27.6158 24.1225 27.6718 24.1918 27.7424C24.21 27.7619 24.2223 27.7861 24.2273 27.8122C24.2323 27.8384 24.2298 27.8655 24.2201 27.8903C24.2103 27.9151 24.1938 27.9366 24.1723 27.9524C24.1508 27.9682 24.1253 27.9775 24.0987 27.9794Z" fill="#414141"/>
<path d="M18.3631 29.82C18.2641 29.742 18.0301 29.598 18.0301 29.598C18.0118 29.5899 17.9955 29.578 17.9822 29.5631C17.9689 29.5482 17.9589 29.5307 17.9528 29.5116C17.9468 29.4926 17.9449 29.4725 17.9473 29.4527C17.9496 29.4328 17.9561 29.4137 17.9664 29.3966C17.9767 29.3795 17.9905 29.3647 18.0069 29.3533C18.0233 29.3419 18.0419 29.3341 18.0615 29.3305C18.0812 29.3268 18.1014 29.3274 18.1208 29.3322C18.1402 29.3369 18.1583 29.3457 18.1741 29.358C18.1741 29.358 18.4231 29.514 18.5371 29.601C18.561 29.6256 18.5751 29.658 18.5768 29.6923C18.5786 29.7265 18.5678 29.7602 18.5464 29.787C18.5251 29.8139 18.4947 29.832 18.461 29.8381C18.4272 29.8442 18.3924 29.8377 18.3631 29.82Z" fill="#414141"/>
<path d="M22.2389 32.375C21.6629 32.375 21.3209 31.919 21.2039 31.358C21.1968 31.3237 21.1978 31.2881 21.2068 31.2542C21.2159 31.2203 21.2327 31.1889 21.2561 31.1627C21.2794 31.1365 21.3085 31.116 21.3411 31.1031C21.3738 31.0901 21.409 31.085 21.4439 31.088C21.9627 31.1227 22.4835 31.1147 23.0009 31.064C23.0371 31.0598 23.0737 31.0643 23.1078 31.0771C23.1418 31.09 23.1723 31.1108 23.1967 31.1378C23.2211 31.1648 23.2386 31.1973 23.2479 31.2324C23.2571 31.2676 23.2579 31.3045 23.2499 31.34C23.0309 32.258 22.4999 32.375 22.2389 32.375ZM21.5009 31.37C21.5669 31.622 21.7469 32.072 22.2179 32.096C22.6889 32.12 22.8839 31.628 22.9559 31.349C22.4722 31.3937 21.9858 31.4008 21.5009 31.37Z" fill="#414141"/>
<path d="M20.3428 28.9034C20.3428 29.0036 20.3737 29.0998 20.4289 29.1707C20.484 29.2416 20.5588 29.2814 20.6368 29.2814C20.7147 29.2814 20.7895 29.2416 20.8447 29.1707C20.8998 29.0998 20.9308 29.0036 20.9308 28.9034C20.9308 28.8031 20.8998 28.707 20.8447 28.6361C20.7895 28.5652 20.7147 28.5254 20.6368 28.5254C20.5588 28.5254 20.484 28.5652 20.4289 28.6361C20.3737 28.707 20.3428 28.8031 20.3428 28.9034Z" fill="#414141"/>
<path d="M23.4355 28.8702C23.4355 28.9704 23.4665 29.0666 23.5217 29.1375C23.5768 29.2084 23.6516 29.2482 23.7295 29.2482C23.8075 29.2482 23.8823 29.2084 23.9374 29.1375C23.9926 29.0666 24.0235 28.9704 24.0235 28.8702C24.0235 28.7699 23.9926 28.6738 23.9374 28.6029C23.8823 28.532 23.8075 28.4922 23.7295 28.4922C23.6516 28.4922 23.5768 28.532 23.5217 28.6029C23.4665 28.6738 23.4355 28.7699 23.4355 28.8702Z" fill="#414141"/>
<path d="M20.172 30.2535C20.2195 30.2599 20.2677 30.2592 20.3135 30.2514C20.3594 30.2435 20.4021 30.2287 20.4391 30.2078C20.4761 30.1868 20.5067 30.1602 20.5291 30.1295C20.5515 30.0987 20.5652 30.0645 20.5695 30.0288C20.5737 29.9931 20.5684 29.9566 20.5538 29.9214C20.5392 29.8863 20.5157 29.8533 20.4846 29.8243C20.4535 29.7953 20.4155 29.7709 20.3727 29.7525C20.3299 29.7342 20.2833 29.7222 20.2356 29.7174C20.188 29.7108 20.1398 29.7115 20.0939 29.7193C20.0479 29.7271 20.0051 29.7419 19.968 29.7628C19.9308 29.7838 19.9002 29.8104 19.8777 29.8412C19.8553 29.872 19.8416 29.9063 19.8373 29.9421C19.8331 29.9778 19.8385 30.0144 19.8531 30.0496C19.8678 30.0847 19.8914 30.1178 19.9226 30.1468C19.9538 30.1759 19.992 30.2002 20.0349 30.2186C20.0778 30.2369 20.1245 30.2487 20.1723 30.2535" fill="#FDAF31"/>
<path d="M23.9126 30.1433C23.9149 30.1787 23.9265 30.2131 23.9467 30.2446C23.9669 30.2762 23.9953 30.3041 24.0302 30.327C24.0652 30.3499 24.1061 30.3672 24.1506 30.3779C24.195 30.3886 24.2422 30.3925 24.2894 30.3895C24.3366 30.3864 24.3828 30.3764 24.4255 30.3601C24.4682 30.3437 24.5066 30.3213 24.5383 30.2941C24.57 30.2669 24.5946 30.2355 24.6105 30.2017C24.6264 30.1678 24.6334 30.1322 24.6311 30.0968C24.6292 30.0612 24.6179 30.0266 24.5978 29.9948C24.5778 29.9631 24.5495 29.9349 24.5145 29.9118C24.4795 29.8887 24.4385 29.8713 24.3939 29.8605C24.3492 29.8496 24.3019 29.8456 24.2545 29.8486C24.2071 29.8517 24.1607 29.8617 24.1178 29.8782C24.0749 29.8947 24.0365 29.9172 24.0047 29.9446C23.9729 29.972 23.9485 30.0036 23.9327 30.0376C23.9168 30.0717 23.9101 30.1075 23.9126 30.143" fill="#FDAF31"/>
<path d="M20.931 36.9594C20.6505 36.8842 20.388 36.7533 20.1591 36.5744C19.9303 36.3956 19.7398 36.1725 19.599 35.9184C19.5928 35.907 19.5843 35.8971 19.5739 35.8894C19.5636 35.8816 19.5517 35.8762 19.539 35.8734C19.2691 35.8231 18.9945 35.8019 18.72 35.8104C18.7079 35.8108 18.696 35.8136 18.6851 35.8187C18.6741 35.8237 18.6642 35.831 18.6561 35.8399C18.648 35.8489 18.6418 35.8594 18.6378 35.8708C18.6338 35.8822 18.6322 35.8944 18.633 35.9064C18.72 37.6524 18.933 38.5134 19.044 38.8404C19.0497 38.8558 19.0593 38.8694 19.0719 38.8798C19.0845 38.8902 19.0996 38.8972 19.1157 38.8999C19.1318 38.9027 19.1484 38.9011 19.1637 38.8954C19.1791 38.8897 19.1926 38.88 19.203 38.8674C19.7243 38.2198 20.3171 37.6331 20.97 37.1184C20.9835 37.1077 20.9937 37.0934 20.9993 37.077C21.0049 37.0607 21.0057 37.0431 21.0016 37.0264C20.9975 37.0096 20.9886 36.9944 20.9761 36.9825C20.9636 36.9707 20.948 36.9626 20.931 36.9594Z" fill="white"/>
<path d="M23.7809 35.8996C23.7809 35.8646 23.767 35.831 23.7422 35.8062C23.7175 35.7815 23.6839 35.7676 23.6489 35.7676C23.521 35.7735 23.3937 35.7886 23.2679 35.8126C23.2442 35.8166 23.2221 35.8271 23.2041 35.843C23.1861 35.8589 23.1728 35.8796 23.1659 35.9026C22.9499 36.4846 22.2659 36.8656 21.9119 36.9856C21.8912 36.992 21.8724 37.0036 21.8574 37.0192C21.8423 37.0348 21.8315 37.054 21.8258 37.0749C21.8201 37.0959 21.8198 37.1179 21.8249 37.139C21.83 37.1601 21.8403 37.1795 21.8549 37.1956C22.3799 37.7956 23.0939 38.5726 23.4179 38.9176C23.4352 38.9349 23.4568 38.9472 23.4806 38.9532C23.5043 38.9591 23.5292 38.9586 23.5526 38.9515C23.576 38.9444 23.5971 38.9311 23.6135 38.9129C23.6299 38.8948 23.6411 38.8726 23.6459 38.8486C23.7529 37.8694 23.798 36.8844 23.7809 35.8996Z" fill="white"/>
</svg>
