<svg width="70" height="70" viewBox="0 0 70 70" fill="none" xmlns="http://www.w3.org/2000/svg">
<rect width="70" height="70" rx="10" fill="#EEFAFF"/>
<path d="M33.0975 49.9798C33.0975 49.9798 35.2657 49.8023 35.7725 49.257C35.7725 49.257 34.1152 42.8458 33.6792 41.3773C33.6792 41.3773 35.7275 38.083 36.074 37.0953C36.4205 36.1075 36.6385 35.6733 36.074 34.7485C36.074 34.7485 34.7587 32.759 29.7957 30.7063C29.7957 30.7063 26.085 28.869 24.8742 28.4373C24.2149 28.1841 23.4851 28.1841 22.8257 28.4373C22.8257 28.4373 20.7047 31.2023 23.0652 33.3748C26.631 36.6563 29.3942 41.6025 29.3942 41.6025C27.4692 45.1775 26.8867 46.097 27.408 45.2183C27.408 45.2183 29.5952 46.1013 30.0955 46.2295L31.1645 44.8695C31.1645 44.8695 33.0462 49.5605 33.0975 49.9798Z" fill="#87E4FF"/>
<path d="M41.1416 36.2354C41.1416 36.2354 42.3603 34.4907 42.5783 34.0482C42.5783 34.0482 39.3118 30.7277 38.8708 29.9364C38.8708 29.9364 41.0316 29.5452 44.0408 27.8072V24.8304C44.0408 24.8304 38.1908 26.6464 36.7538 26.8737C36.1536 25.7773 35.6516 24.6299 35.2538 23.4449C35.2538 23.4449 34.0138 22.2044 32.4571 21.8719C30.9003 21.5394 30.1526 21.1969 28.9211 20.1107C28.9211 20.1107 26.1306 21.5927 24.6316 23.0987C23.1326 24.6047 20.7261 27.6947 22.8248 28.4372C22.8248 28.4372 23.7656 27.3962 28.7861 30.2622L30.1031 29.8774C30.1031 29.8774 30.7863 28.3892 31.5951 27.8844C31.5951 27.8844 33.4463 31.2502 35.3546 32.8237C37.3833 34.4952 39.7303 35.8379 41.1416 36.2354Z" fill="#016DAB"/>
<path d="M34.6176 21.2512L34.9246 20.9689L35.4376 21.1742C35.4376 21.1742 35.6493 22.6817 35.2516 23.4449C34.5943 22.797 33.7953 22.3109 32.9178 22.0249C31.5323 21.6059 29.4368 21.1697 29.0263 20.1689C28.6158 19.1682 29.4013 17.4579 31.8916 18.2704C31.8916 18.2707 34.0776 20.3082 34.6176 21.2512Z" fill="white"/>
<path d="M34.483 15.4909C33.9485 15.4481 33.243 15.5336 32.9008 16.5599C32.8351 16.7642 32.8128 16.98 32.8355 17.1935C32.8582 17.4069 32.9252 17.6132 33.0323 17.7992C33.1394 17.9852 33.2843 18.1467 33.4575 18.2734C33.6307 18.4001 33.8286 18.4892 34.0383 18.5349C34.6883 18.6119 35.535 18.3809 35.86 17.5514C36.185 16.7219 35.6238 15.9881 35.193 15.7124L36.864 12.4874C36.7775 12.3576 36.6513 12.2591 36.5044 12.2067C36.3574 12.1543 36.1974 12.1508 36.0483 12.1966L34.483 15.4909Z" fill="white"/>
<path d="M33.0002 19.3238C33.0002 19.3238 34.3112 20.393 34.647 21.184L34.954 20.9018C34.954 20.9018 35.837 21.368 36.6325 20.9145C37.428 20.461 38.054 18.3488 38.054 18.3488L39.2257 17.5705L38.3875 17.2625L39.123 15.2928C38.7142 15.3129 38.3047 15.2707 37.9085 15.1678C37.4295 15.0053 36.7795 14.8678 36.506 15.2228C36.2592 15.6377 36.0602 16.0791 35.9127 16.5388C35.9127 16.5388 36.0332 17.4875 35.5972 18.0285C35.1155 18.6263 34.3425 18.514 33.9875 18.483C33.9867 18.4828 33.7417 19.2845 33.0002 19.3238Z" fill="white"/>
<path d="M36.7495 17.8566C36.8128 17.7216 36.7265 17.5481 36.5573 17.4686C36.3878 17.3888 36.199 17.4336 36.1358 17.5686C36.0725 17.7031 36.1585 17.8768 36.328 17.9563C36.4975 18.0361 36.6863 17.9913 36.7495 17.8563V17.8566Z" fill="#FDAF31"/>
<path d="M41.5745 35.7193L42.432 34.2856C42.432 34.2856 43.223 34.0068 43.717 33.7631C44.211 33.5193 45.3335 33.4101 45.9747 34.2313C46.616 35.0526 46.5137 36.3543 45.3335 36.4891C45.3335 36.4891 45.6542 35.6681 45.0512 35.3346C44.796 35.2078 44.5081 35.162 44.2261 35.2033C43.9441 35.2446 43.6814 35.371 43.4732 35.5656C43.1012 35.8668 42.216 36.1748 41.5745 35.7193Z" fill="white"/>
<path d="M55.4526 47.8779C55.4404 47.8474 55.4168 47.823 55.3868 47.8098C55.3567 47.7967 55.3227 47.7959 55.2921 47.8076L48.9469 50.3279L52.1534 43.8501C52.1632 43.8214 52.1623 43.79 52.1506 43.762C52.139 43.7339 52.1174 43.7111 52.0901 43.6979C52.0628 43.6846 52.0317 43.6816 52.0024 43.6895C51.9731 43.6974 51.9477 43.7157 51.9309 43.7409L48.7251 50.2194L46.9109 43.4839C46.8993 43.4559 46.8779 43.4331 46.8507 43.4197C46.8235 43.4064 46.7923 43.4034 46.7631 43.4114C46.734 43.4195 46.7087 43.4377 46.6919 43.4629C46.6751 43.488 46.6679 43.5183 46.6716 43.5484L48.5239 50.4254L42.6078 47.6254C42.5861 47.618 42.5627 47.6167 42.5403 47.6217C42.5178 47.6267 42.4972 47.6377 42.4806 47.6536C42.464 47.6696 42.4521 47.6897 42.4462 47.7119C42.4403 47.7341 42.4406 47.7576 42.4471 47.7796C42.4561 47.8092 42.4757 47.8344 42.5021 47.8504L48.3146 50.6021L42.3336 53.4414C42.3187 53.4482 42.3052 53.4579 42.2941 53.4699C42.283 53.482 42.2743 53.4962 42.2687 53.5116C42.2631 53.527 42.2606 53.5434 42.2614 53.5598C42.2621 53.5762 42.2662 53.5922 42.2732 53.6071C42.2803 53.6219 42.2902 53.6352 42.3024 53.6461C42.3146 53.6571 42.3289 53.6655 42.3444 53.6709C42.3599 53.6762 42.3764 53.6785 42.3927 53.6774C42.4091 53.6764 42.4251 53.6721 42.4399 53.6649L48.4166 50.8251L45.1573 57.0444C45.1454 57.0661 45.1402 57.0909 45.1426 57.1155C45.1449 57.1402 45.1546 57.1636 45.1704 57.1827C45.1862 57.2018 45.2074 57.2157 45.2312 57.2226C45.255 57.2295 45.2803 57.229 45.3038 57.2214C45.3195 57.2164 45.3341 57.2084 45.3466 57.1977C45.3591 57.187 45.3693 57.1739 45.3766 57.1591L48.6516 50.9074L50.4311 57.5216C50.4399 57.5423 50.4541 57.5603 50.4723 57.5736C50.4905 57.587 50.5119 57.5951 50.5343 57.5973C50.5567 57.5995 50.5793 57.5956 50.5997 57.586C50.6201 57.5764 50.6375 57.5615 50.6501 57.5429C50.667 57.5178 50.6742 57.4874 50.6704 57.4574L48.9004 50.8779L54.6504 53.5969C54.6725 53.6075 54.6974 53.6112 54.7217 53.6076C54.7461 53.6039 54.7688 53.593 54.7869 53.5764C54.8111 53.554 54.8255 53.5231 54.827 53.4902C54.8286 53.4573 54.8171 53.4251 54.7951 53.4006C54.7841 53.3886 54.7708 53.3788 54.7561 53.3719L48.9076 50.6066L55.3804 48.0369C55.4109 48.0252 55.4356 48.002 55.4491 47.9722C55.4626 47.9424 55.4639 47.9085 55.4526 47.8779Z" fill="#87E4FF"/>
<path d="M48.3346 58.7502C43.8769 58.7502 40.5346 54.7582 41.0266 50.1827C41.5516 45.3112 44.9501 42.0529 49.3099 42.2577C53.6629 42.4632 56.7509 46.3009 56.5424 50.7162C56.3376 55.0567 52.5301 58.7502 48.3346 58.7502ZM48.9289 43.1767C45.2516 43.1767 42.4039 46.0502 41.9491 50.2819C41.8402 51.2299 41.9254 52.1902 42.1997 53.1042C42.474 54.0182 42.9316 54.8668 43.5446 55.5982C45.9284 58.3812 50.1229 58.6609 53.1696 55.8102C54.6171 54.477 55.4936 52.6362 55.6161 50.6722C55.8071 46.6114 52.9144 43.1767 48.9289 43.1767Z" fill="#414141"/>
<path d="M49.8388 50.7834C50.0613 49.9899 49.6626 49.1839 48.9483 48.9836C48.2338 48.7834 47.4743 49.2641 47.2516 50.0579C47.0291 50.8516 47.4278 51.6574 48.1423 51.8576C48.8566 52.0581 49.6163 51.5771 49.8388 50.7834Z" fill="#87E4FF"/>
<path d="M28.081 48.2501C28.0705 48.219 28.0482 48.1934 28.0189 48.1787C27.9896 48.164 27.9557 48.1613 27.9245 48.1713L21.4543 50.3501L25.4543 44.1786C25.4653 44.1504 25.4657 44.1193 25.4555 44.0908C25.4454 44.0624 25.4252 44.0386 25.3988 44.0239C25.3725 44.0092 25.3416 44.0045 25.3121 44.0107C25.2825 44.017 25.2562 44.0337 25.238 44.0578L21.238 50.2298L19.7848 43.4073C19.7747 43.3787 19.7545 43.3547 19.7281 43.3398C19.7016 43.325 19.6706 43.3203 19.6409 43.3266C19.6112 43.3329 19.5849 43.3498 19.5667 43.3741C19.5486 43.3985 19.5399 43.4286 19.5423 43.4588L21.026 50.4251L15.2675 47.3123C15.2461 47.3011 15.2218 47.2964 15.1977 47.2989C15.1736 47.3014 15.1508 47.3109 15.1321 47.3263C15.1134 47.3417 15.0997 47.3623 15.0927 47.3855C15.0856 47.4086 15.0856 47.4334 15.0925 47.4566C15.1013 47.4878 15.122 47.5141 15.15 47.5301L20.8078 50.5873L14.684 53.1043C14.6579 53.1195 14.6381 53.1437 14.6284 53.1723C14.6187 53.2009 14.6197 53.2321 14.6313 53.2601C14.6428 53.288 14.6641 53.3109 14.6912 53.3243C14.7183 53.3378 14.7493 53.341 14.7785 53.3333L20.898 50.8176L17.3125 56.8546C17.3011 56.8685 17.2928 56.8848 17.2883 56.9023C17.2837 56.9198 17.283 56.938 17.2862 56.9558C17.2894 56.9736 17.2963 56.9904 17.3067 57.0053C17.317 57.0201 17.3304 57.0325 17.346 57.0416C17.3615 57.0507 17.3789 57.0564 17.3969 57.0582C17.4148 57.06 17.433 57.0578 17.45 57.052C17.4671 57.0461 17.4827 57.0365 17.4957 57.024C17.5088 57.0115 17.5189 56.9964 17.5255 56.9796L21.1298 50.9121L22.5548 57.6121C22.5648 57.6406 22.585 57.6645 22.6114 57.6792C22.6379 57.6939 22.6688 57.6984 22.6983 57.6918C22.7278 57.6855 22.754 57.6688 22.7722 57.6446C22.7903 57.6205 22.7992 57.5907 22.797 57.5606L21.3795 50.8963L26.9775 53.9173C26.999 53.9286 27.0233 53.9333 27.0474 53.9308C27.0715 53.9283 27.0943 53.9187 27.113 53.9033C27.1317 53.8879 27.1454 53.8674 27.1524 53.8442C27.1595 53.821 27.1595 53.7963 27.1525 53.7731C27.1437 53.742 27.1231 53.7156 27.095 53.6996L21.4018 50.6271L28.0018 48.4053C28.0326 48.3949 28.0581 48.3728 28.0729 48.3438C28.0877 48.3148 28.0907 48.2812 28.081 48.2501Z" fill="#87E4FF"/>
<path d="M20.0703 58.7018C15.7623 58.2678 12.8385 54.1976 13.553 49.7823C14.3358 44.9458 17.903 41.8731 22.2463 42.3096C28.9868 42.9883 31.642 51.9956 25.9763 56.7596C25.17 57.459 24.2325 57.991 23.2185 58.3245C22.2046 58.6579 21.1343 58.7862 20.0703 58.7018ZM14.4703 49.9308C13.847 53.7841 16.3598 57.3953 20.1643 57.7783C25.8763 58.3661 30.7465 51.1391 26.6705 45.7796C23.2865 41.3313 15.661 42.5631 14.469 49.9308H14.4703Z" fill="#414141"/>
<path d="M22.321 50.8518C22.5855 50.071 22.23 49.245 21.5272 49.007C20.8247 48.769 20.0405 49.2088 19.776 49.9895C19.5115 50.7703 19.8667 51.5963 20.5695 51.8343C21.2722 52.0723 22.0565 51.6325 22.3207 50.8518H22.321Z" fill="#87E4FF"/>
<path d="M34.381 18.0543C34.1265 18.0624 33.8786 17.9727 33.6883 17.8036C33.4979 17.6345 33.3796 17.399 33.3575 17.1453C33.3355 16.8917 33.4114 16.6393 33.5697 16.4399C33.728 16.2405 33.9567 16.1093 34.2087 16.0733C34.3519 16.0506 34.4984 16.059 34.6381 16.0979C34.7778 16.1368 34.9074 16.2053 35.0183 16.2988C35.1291 16.3924 35.2185 16.5086 35.2804 16.6398C35.3423 16.7709 35.3753 16.9138 35.377 17.0588C35.3765 17.3228 35.2714 17.5758 35.0847 17.7624C34.898 17.949 34.6449 18.054 34.381 18.0543ZM34.3475 16.3111C34.1495 16.3117 33.9598 16.3907 33.8197 16.5307C33.6797 16.6707 33.6007 16.8603 33.6 17.0583C33.6 18.0478 35.1295 18.0416 35.1295 17.0583C35.1291 16.9574 35.1084 16.8575 35.0686 16.7647C35.0288 16.672 34.9707 16.5882 34.8977 16.5183C34.8247 16.4485 34.7383 16.3942 34.6438 16.3585C34.5492 16.3229 34.4484 16.3068 34.3475 16.3111Z" fill="#414141"/>
<path d="M36.9062 16.1917C36.9147 16.1601 36.9354 16.1331 36.9637 16.1167C36.992 16.1003 37.0257 16.0957 37.0574 16.1039C37.0731 16.108 37.0879 16.1152 37.1008 16.125C37.1137 16.1348 37.1246 16.1471 37.1327 16.1612C37.1409 16.1752 37.1462 16.1907 37.1483 16.2068C37.1504 16.2229 37.1494 16.2392 37.1452 16.2549C36.9702 16.9237 37.4737 17.1462 37.7247 16.3929C37.7371 16.3657 37.759 16.3438 37.7863 16.3313C37.8135 16.3188 37.8444 16.3166 37.8732 16.3249C37.902 16.3333 37.9268 16.3517 37.9431 16.3769C37.9595 16.402 37.9662 16.4322 37.9622 16.4619C37.6639 17.4934 36.6332 17.2204 36.9062 16.1917Z" fill="#414141"/>
<path d="M33.3669 52.0797C33.3669 51.8727 33.4054 51.4189 34.1432 51.4317C34.8809 51.4444 38.1714 51.3997 38.3702 51.4639C38.4903 51.5135 38.5916 51.5997 38.6598 51.7103C38.7279 51.8208 38.7594 51.9501 38.7497 52.0797C38.7452 52.2374 38.6835 52.3881 38.5761 52.5038C38.4687 52.6194 38.3229 52.692 38.1659 52.7082C37.8259 52.7212 34.1632 52.7467 33.9452 52.7082C33.7879 52.6942 33.6414 52.622 33.5345 52.5058C33.4276 52.3895 33.3678 52.2376 33.3669 52.0797Z" fill="white"/>
<path d="M26.8883 48.2114C26.8826 48.1027 27.0296 47.6164 27.4463 47.6114C27.8631 47.6064 31.6031 47.6074 31.8148 47.6524C31.9439 47.7086 32.0521 47.8039 32.1242 47.9249C32.1962 48.0458 32.2285 48.1864 32.2164 48.3267C32.2044 48.4669 32.1486 48.5999 32.0569 48.7068C31.9653 48.8137 31.8424 48.8891 31.7056 48.9224C31.3913 48.9417 27.6261 48.9609 27.4143 48.9224C27.2026 48.8839 26.9203 48.8079 26.8883 48.2114Z" fill="white"/>
<path d="M48.8674 50.0323C47.7767 48.9829 46.8357 47.7884 46.0709 46.4823C44.5459 43.952 41.7984 37.947 41.8426 37.1748C41.8506 37.0305 41.8943 36.8905 41.9699 36.7674C42.0455 36.6442 42.1506 36.5419 42.2756 36.4695C42.6529 36.2445 43.2191 36.2745 43.8686 36.559C43.9819 36.6076 44.1098 36.6093 44.2243 36.5638C44.3388 36.5183 44.4306 36.4293 44.4796 36.3163C44.5284 36.203 44.5301 36.0751 44.4846 35.9605C44.439 35.8459 44.3498 35.7541 44.2366 35.7053C44.1097 35.6493 43.9795 35.6008 43.8469 35.56C44.1158 35.42 44.4213 35.366 44.7219 35.4053C44.8136 35.425 44.9002 35.4638 44.9759 35.5193C45.0515 35.5747 45.1147 35.6455 45.1611 35.727C45.2638 35.9938 45.2703 36.288 45.1796 36.559C45.1729 36.5776 45.1707 36.5976 45.1732 36.6173C45.1757 36.6369 45.1828 36.6557 45.194 36.672C45.2052 36.6884 45.2201 36.7018 45.2375 36.7113C45.2549 36.7207 45.2743 36.7258 45.2941 36.7263C45.3034 36.7263 45.3126 36.723 45.3219 36.723C45.5937 36.6867 45.8474 36.5665 46.0476 36.379C46.2478 36.1916 46.3845 35.9464 46.4387 35.6775C46.4892 35.3422 46.445 34.9994 46.3111 34.6879C46.1772 34.3764 45.9588 34.1085 45.6807 33.9145C45.3607 33.6807 44.9792 33.5459 44.5834 33.5266C44.1876 33.5073 43.7948 33.6044 43.4536 33.806C43.2494 33.9205 42.9124 34.0723 42.6524 34.1898C42.6679 34.1648 42.6864 34.137 42.7024 34.1148C42.7201 34.0907 42.7283 34.061 42.7254 34.0313C42.7226 34.0016 42.7088 33.974 42.6869 33.9538C41.4091 32.7294 40.2156 31.4201 39.1144 30.0348C40.8394 29.874 43.9644 28.018 44.1036 27.9348C44.1215 27.9243 44.1363 27.9094 44.1466 27.8914C44.1569 27.8735 44.1623 27.8532 44.1624 27.8325L44.1999 24.825C44.1997 24.8054 44.1951 24.786 44.1864 24.7684C44.1778 24.7507 44.1653 24.7352 44.1499 24.723C43.9684 24.6075 43.9624 24.9318 36.8281 26.7305C36.2245 25.72 35.7516 24.6369 35.4206 23.5073C35.6494 22.7902 35.7056 22.0292 35.5846 21.2863C35.9929 21.3308 36.4046 21.2406 36.7569 21.0295C37.4776 20.6183 38.0591 18.787 38.1581 18.4623L39.3026 17.7623C39.3216 17.7501 39.3369 17.7331 39.3471 17.713C39.3572 17.6929 39.3618 17.6705 39.3604 17.648C39.3589 17.6255 39.3513 17.6038 39.3384 17.5853C39.3255 17.5668 39.3078 17.5522 39.2871 17.543C39.0374 17.4371 38.7813 17.347 38.5201 17.2735L39.2099 15.5043C39.3563 15.4636 39.4938 15.3958 39.6151 15.3043C40.7441 14.4293 40.1936 12.8885 39.3584 12.4493C38.0376 11.7533 37.2024 12.279 36.9766 12.4553C36.974 12.4415 36.9698 12.4281 36.9641 12.4153C36.8583 12.2675 36.7094 12.156 36.5378 12.0961C36.3661 12.0363 36.1802 12.031 36.0054 12.081C35.6961 11.6815 35.2562 11.4035 34.7626 11.2955C34.2691 11.1875 33.7533 11.2565 33.3054 11.4903C31.8486 12.1493 31.9536 13.6308 32.3186 14.7135C31.9146 14.7297 31.5307 14.8942 31.2401 15.1755C30.9496 15.4568 30.7729 15.8352 30.7436 16.2385C30.6169 17.4635 31.8729 17.8685 31.8729 17.8685C31.8489 17.9485 31.8304 18.0303 31.8171 18.113C30.9076 17.8223 30.1066 17.8563 29.5529 18.2273C29.2685 18.4096 29.0484 18.6765 28.9235 18.9904C28.7987 19.3043 28.7754 19.6494 28.8569 19.9773C24.0819 22.3773 22.2404 25.5978 21.9374 26.968C21.8374 27.4043 21.8846 28.357 22.6271 28.527C22.2429 29.152 21.0724 31.2698 22.6969 33.1713L25.0219 38.2893L20.5219 50.2393C20.4967 50.3071 20.4878 50.3799 20.4957 50.4518C20.5037 50.5237 20.5283 50.5928 20.5677 50.6535C20.607 50.7142 20.66 50.7649 20.7224 50.8014C20.7849 50.838 20.8549 50.8596 20.9271 50.8643L31.9451 50.7623C32.1476 50.7623 32.1974 50.692 33.0246 50.1623C33.0959 50.5395 33.2381 51.1923 33.4391 51.322C33.4979 51.35 33.5604 51.3688 33.6249 51.3775C33.5199 51.4392 33.4328 51.5273 33.3722 51.6329C33.3116 51.7386 33.2796 51.8582 33.2794 51.98V52.101C33.2795 52.2873 33.3534 52.466 33.485 52.5979C33.6166 52.7297 33.7951 52.8041 33.9814 52.8045H38.1461C38.3328 52.8042 38.5117 52.7298 38.6437 52.5978C38.7756 52.4657 38.8498 52.2867 38.8499 52.1C38.8682 51.9662 38.8493 51.8299 38.7951 51.7062C38.7409 51.5825 38.6537 51.4761 38.5429 51.3988C38.8464 51.345 39.0429 51.2738 39.0659 51.1788C39.1409 50.8788 38.1471 50.4038 37.2409 49.9445C36.6499 49.6478 36.0964 49.3323 35.9014 49.2363C35.8764 49.1003 35.8086 48.8188 35.7126 48.4363L43.4426 43.4745C45.4379 48.102 48.1971 50.6788 48.2589 50.7313C48.3531 50.8077 48.4727 50.8456 48.5938 50.8376C48.7148 50.8296 48.8283 50.7762 48.9116 50.688C48.9522 50.6423 48.9833 50.589 49.003 50.5311C49.0226 50.4732 49.0305 50.412 49.0261 50.351C49.0222 50.29 49.0061 50.2304 48.9789 50.1757C48.9516 50.1209 48.9137 50.0722 48.8674 50.0323ZM43.5749 34.0218C43.8767 33.8409 44.2255 33.7539 44.5769 33.7717C44.9283 33.7895 45.2664 33.9113 45.5484 34.1218C46.2331 34.5735 46.5234 35.7785 45.7712 36.2775C45.8576 36.1689 45.9209 36.0437 45.9571 35.9097C45.9933 35.7757 46.0017 35.6357 45.9816 35.4983C45.8816 34.9568 45.2669 34.6908 45.2391 34.6785C45.2166 34.6671 45.1911 34.6629 45.1661 34.6666C45.1411 34.6702 45.1179 34.6815 45.0996 34.6989C45.0813 34.7163 45.0688 34.739 45.0639 34.7638C45.059 34.7885 45.0619 34.8142 45.0721 34.8373C45.0789 34.8526 45.0887 34.8664 45.1009 34.8777C45.1132 34.8891 45.1276 34.8979 45.1434 34.9035C45.7794 35.2205 45.9466 35.686 45.4896 36.2398C45.5131 36.0244 45.4756 35.8068 45.3814 35.6118C45.2969 35.4654 45.1751 35.3442 45.0283 35.2605C44.8815 35.1768 44.7151 35.1337 44.5461 35.1355C44.1669 35.1698 43.7981 35.278 43.4606 35.454C43.1809 35.3785 42.8888 35.3593 42.6016 35.3975C42.3143 35.4358 42.0374 35.5307 41.7871 35.6768L41.7499 35.6398C41.8429 35.4758 42.1304 34.9993 42.4026 34.5663C42.5664 34.498 43.2284 34.2103 43.5749 34.0218ZM42.4399 34.0618C42.0716 34.597 41.3509 35.7663 41.1469 36.0973C40.4548 35.8361 39.7774 35.5377 39.1176 35.2033C39.8202 34.3927 40.4534 33.5246 41.0106 32.608C41.7096 33.3565 42.2446 33.8763 42.4396 34.0618H42.4399ZM42.5016 25.4473C42.9865 25.3051 43.4691 25.1556 43.9494 24.9988L43.9151 27.7578C43.7326 27.866 43.1401 28.2063 42.3996 28.5808L42.5016 25.4473ZM42.2516 25.5183C42.2516 25.5183 42.1516 28.689 42.1556 28.7013C41.0761 29.2303 39.6056 29.7818 39.2894 29.7225C38.3942 28.9069 37.6116 27.9757 36.9621 26.9535C37.6356 26.7805 40.1599 26.1308 42.2499 25.5183H42.2516ZM36.9961 15.2933C37.2776 15.2563 38.1561 15.646 38.9231 15.5655L38.2396 17.3133C38.2335 17.3299 38.2309 17.3476 38.232 17.3653C38.2331 17.383 38.2378 17.4003 38.246 17.416C38.2542 17.4317 38.2656 17.4456 38.2794 17.4566C38.2932 17.4677 38.3093 17.4758 38.3264 17.4803C38.3294 17.4803 38.6201 17.5553 38.9634 17.6803C37.9261 18.316 37.9506 18.285 37.9366 18.3485C37.8132 18.7594 37.6644 19.1623 37.4911 19.5548C37.3238 19.5382 37.1691 19.4586 37.0581 19.3323C36.9013 19.0996 36.8302 18.8196 36.8569 18.5403C36.86 18.5075 36.8501 18.4748 36.8293 18.4494C36.8084 18.4239 36.7784 18.4077 36.7456 18.4043C36.7131 18.4023 36.6811 18.4126 36.6558 18.4332C36.6306 18.4539 36.6141 18.4833 36.6096 18.5155C36.5759 18.8612 36.6681 19.2075 36.8694 19.4905C37.0012 19.6457 37.1826 19.7505 37.3829 19.7873C37.1601 20.2483 36.9004 20.6658 36.6344 20.8175C36.3904 20.9662 36.1114 21.048 35.8257 21.0545C35.54 21.0609 35.2577 20.992 35.0071 20.8545C34.9821 20.8384 34.9522 20.8318 34.9228 20.8358C34.8933 20.8398 34.8662 20.8541 34.8464 20.8763L34.6609 21.0865C34.3086 20.4997 33.8376 19.993 33.2781 19.5988C33.6742 19.4081 33.9938 19.0884 34.1844 18.6923C35.3871 18.8578 36.1874 17.85 36.0126 16.7653C36.1201 16.4428 36.5221 15.354 36.9954 15.292L36.9961 15.2933ZM35.3249 22.8583C35.2249 22.3184 35.0434 21.7969 34.7866 21.3115L34.9661 21.1135C35.0796 21.1665 35.1976 21.209 35.3186 21.2405C35.4284 21.774 35.4304 22.324 35.3249 22.8583ZM36.1569 12.2833C36.2609 12.269 36.3669 12.2813 36.4649 12.3192C36.5628 12.3571 36.6495 12.4192 36.7169 12.4998L35.2419 15.6208C35.0736 15.5213 34.8877 15.4551 34.6944 15.4258C35.0591 14.593 35.9314 12.6443 36.1571 12.2825L36.1569 12.2833ZM34.2796 15.65C35.3499 15.6 35.7921 16.2778 35.7921 17.0513C35.7921 17.4254 35.6435 17.7841 35.379 18.0487C35.1145 18.3132 34.7557 18.4618 34.3816 18.4618C34.0076 18.4618 33.6488 18.3132 33.3843 18.0487C33.1198 17.7841 32.9711 17.4254 32.9711 17.0513C32.9654 16.6938 33.0986 16.3479 33.3426 16.0866C33.5867 15.8253 33.9226 15.6688 34.2796 15.65ZM31.7926 18.3668C31.7631 18.6067 31.8092 18.8498 31.9245 19.0622C32.0399 19.2746 32.2186 19.4456 32.4359 19.5515C32.5934 19.6265 32.7659 19.6648 32.9401 19.6628C33.5421 20.053 34.0503 20.5715 34.4284 21.1812C34.8065 21.7909 35.0451 22.4766 35.1271 23.1893C34.4542 22.5216 33.6169 22.0435 32.6999 21.8033C31.2369 21.4283 29.0281 20.863 29.0624 19.6475C29.0931 18.575 30.0166 17.777 31.7926 18.3668ZM29.1571 20.532C29.8571 21.33 31.4709 21.7445 32.6371 22.0415C33.6181 22.2988 34.5001 22.8427 35.1704 23.6038C35.8849 25.8988 37.6791 29.3013 40.8371 32.4193C39.7266 34.1548 39.0771 34.8848 38.8871 35.0828C31.2514 31.0675 30.3851 23.8048 30.3749 23.725C30.3736 23.7087 30.369 23.6928 30.3613 23.6782C30.3537 23.6637 30.3432 23.6509 30.3305 23.6405C30.3178 23.6301 30.3032 23.6224 30.2874 23.6178C30.2717 23.6132 30.2552 23.6118 30.2389 23.6138C30.2061 23.6172 30.1761 23.6334 30.1552 23.6589C30.1343 23.6843 30.1243 23.717 30.1274 23.7498C30.0679 26.8748 30.9524 28.2783 30.9524 28.2783C30.6808 28.2156 30.3993 28.2087 30.125 28.2579C29.8507 28.3072 29.5892 28.4116 29.3564 28.5649C29.1236 28.7182 28.9243 28.9171 28.7707 29.1497C28.617 29.3822 28.5121 29.6435 28.4624 29.9178C28.0849 29.7413 27.7199 29.5713 27.3859 29.4165C26.1776 24.3725 28.8371 21.1725 29.1571 20.532ZM30.0821 46.0698C29.7571 46.0358 27.8271 45.2005 27.6199 45.0553C29.7364 41.8163 31.4106 37.2135 31.4276 37.1303C31.433 37.1036 31.4296 37.0759 31.4179 37.0514C31.4062 37.0269 31.3868 37.0068 31.3626 36.9943C31.3564 36.9913 31.1986 36.9138 30.9419 36.79C32.7004 36.3707 34.4037 35.7468 36.0169 34.931C36.195 35.1681 36.2968 35.4537 36.3086 35.75C36.2871 36.4583 35.7736 37.6678 34.7806 39.3413C33.1659 42.061 30.0999 46.0483 30.0821 46.0698ZM31.1431 45.0863C31.3471 45.5903 31.6471 46.3793 31.9474 47.1833C31.4382 46.793 30.8922 46.4532 30.3171 46.1688C30.4779 45.9615 30.7719 45.581 31.1431 45.0863ZM23.6234 33.672C24.7809 34.2045 25.7596 34.593 27.4311 35.3795C27.5796 36.0755 27.8086 36.889 28.2106 36.988C28.7921 37.1303 29.6304 37.0593 30.5521 36.8735C30.8336 37.0128 31.0501 37.118 31.1646 37.1735C31.0719 37.5168 30.6646 38.8468 29.3706 41.377C29.1601 41.0153 28.6706 40.177 28.0806 39.1903C27.0879 37.5295 24.6131 34.7548 23.6234 33.672ZM27.4684 29.725L28.4209 30.1673C28.4149 30.2075 28.4116 30.2445 28.4086 30.2785C28.1519 30.362 27.9136 30.4395 27.7034 30.5105C27.6173 30.2511 27.5389 29.9891 27.4684 29.725ZM31.6471 29.3693C31.2574 29.4528 30.7749 29.5795 30.2676 29.7218C30.4322 29.4311 30.6119 29.1492 30.8059 28.8773C31.1242 28.9657 31.4141 29.1354 31.6471 29.3695V29.3693ZM31.2111 28.3608C31.3129 28.2393 31.4236 28.1258 31.5421 28.0205C31.6803 28.2972 31.8268 28.5695 31.9814 28.8373C31.7539 28.6355 31.4933 28.4744 31.2111 28.361V28.3608ZM29.9274 29.818C29.6396 29.9015 29.3459 29.988 29.0644 30.0748C29.1167 29.7264 29.2941 29.4091 29.5633 29.182C29.8325 28.9548 30.1752 28.8335 30.5274 28.8405C30.3111 29.1561 30.1108 29.4823 29.9274 29.818ZM22.1789 27.0218C22.8099 24.175 26.4784 21.59 28.4301 20.4858C27.5783 21.731 26.985 23.1345 26.6853 24.6132C26.3857 26.0919 26.3858 27.6156 26.6856 29.0943C23.8606 27.6868 22.7944 28.3148 22.7819 28.324C22.5624 28.2465 21.9716 27.9465 22.1789 27.0218ZM22.2191 30.115C22.3577 29.5668 22.5857 29.0452 22.8941 28.5713C24.1344 28.0213 26.6276 29.3385 26.7514 29.3963C26.8507 29.843 26.9746 30.284 27.1226 30.717C27.0379 30.7466 26.9552 30.7818 26.8751 30.8223C26.3461 31.1408 26.5411 33.7238 26.8814 34.0473C27.0814 34.236 27.1226 34.0103 27.2464 34.4473C27.2804 34.5648 27.3214 34.8 27.3731 35.0783C27.3004 35.0448 26.1149 34.4865 23.1044 33.1283C22.2249 32.339 21.9249 31.325 22.2191 30.115ZM24.0971 34.565C27.4379 38.312 27.7396 39.0875 29.2376 41.64C29.0081 42.0807 28.774 42.519 28.5354 42.9548L24.0971 34.565ZM21.6066 49.9803L25.5999 39.3885L27.9941 43.92C27.7838 44.2826 27.5724 44.6445 27.3599 45.0058C27.2641 45.1308 26.6269 45.9808 26.8279 46.3978C27.0044 46.7565 28.6344 47.4555 28.9221 47.505H27.4776C27.291 47.5055 27.1122 47.58 26.9805 47.7123C26.8488 47.8445 26.7751 48.0237 26.7754 48.2103V48.331C26.7759 48.5171 26.85 48.6955 26.9816 48.8271C27.1132 48.9587 27.2915 49.0328 27.4776 49.0333H30.6944L31.0874 49.7785L21.6066 49.9803ZM27.4776 48.7863C27.3571 48.786 27.2416 48.738 27.1564 48.6528C27.0712 48.5676 27.0232 48.4521 27.0229 48.3315V48.2108C27.0226 48.1508 27.0342 48.0914 27.0569 48.036C27.0796 47.9805 27.1131 47.9301 27.1553 47.8876C27.1976 47.8451 27.2478 47.8113 27.3031 47.7882C27.3584 47.7651 27.4177 47.7532 27.4776 47.753H31.6411C31.7625 47.7533 31.8787 47.8016 31.9645 47.8874C32.0503 47.9732 32.0986 48.0895 32.0989 48.2108V48.3315C32.098 48.4524 32.0494 48.568 31.9637 48.6532C31.878 48.7384 31.762 48.7862 31.6411 48.7863H27.4776ZM32.0776 49.6648L31.7401 49.025C31.9079 49.0024 32.0617 48.9197 32.1732 48.7923C32.2846 48.665 32.3462 48.5015 32.3464 48.3323C32.3464 48.2013 32.3056 48.1625 32.7114 49.2603L32.0776 49.6648ZM32.9251 49.1203C32.4829 47.9078 31.9094 46.1895 31.5381 45.2953C31.5381 45.2953 32.7881 43.3088 33.6151 41.6313C34.1471 43.549 34.8214 46.0113 35.2481 47.629L32.9251 49.1203ZM33.5501 49.8225L35.4956 48.5758C35.5731 48.8913 35.6286 49.1233 35.6534 49.2408C34.9706 49.4958 34.2667 49.6903 33.5499 49.822L33.5501 49.8225ZM38.1456 51.5243C38.2165 51.5242 38.2865 51.5401 38.3503 51.5709C38.4141 51.6017 38.4701 51.6465 38.5141 51.702C38.5579 51.7577 38.5885 51.8226 38.6036 51.8918C38.6188 51.9609 38.6181 52.0326 38.6016 52.1015C38.6017 52.1616 38.5898 52.221 38.5667 52.2765C38.5436 52.3319 38.5098 52.3822 38.4671 52.4245C38.4247 52.4669 38.3743 52.5005 38.3188 52.5234C38.2633 52.5462 38.2039 52.5579 38.1439 52.5578H33.9821C33.8612 52.5575 33.7454 52.5093 33.6599 52.4238C33.5744 52.3383 33.5263 52.2224 33.5261 52.1015V51.9805C33.5262 51.8597 33.5742 51.7438 33.6596 51.6582C33.745 51.5727 33.8608 51.5245 33.9816 51.5243H38.1456ZM35.4649 47.49C34.9234 45.4238 34.0449 42.247 33.7976 41.3593C34.6074 40.1445 36.5149 37.2043 36.5566 35.7575C36.5456 35.4123 36.4315 35.0783 36.2289 34.7985C36.5944 34.5633 36.5269 34.1463 36.3309 33.7593C37.7974 34.8577 39.4183 35.7332 41.1409 36.3575C41.0161 36.5847 40.9402 36.8355 40.9181 37.0938C40.8624 37.762 41.9079 40.252 43.0371 42.6308L35.4649 47.49Z" fill="#414141"/>
<path d="M36.6042 50.4315C36.5798 50.4309 36.5562 50.4232 36.5361 50.4094C36.5161 50.3955 36.5005 50.3761 36.4914 50.3536C36.4822 50.331 36.4798 50.3062 36.4845 50.2823C36.4893 50.2584 36.5009 50.2364 36.5179 50.219L37.1929 49.5605C37.2173 49.5432 37.247 49.5352 37.2768 49.5379C37.3065 49.5406 37.3343 49.5538 37.3552 49.5752C37.376 49.5966 37.3886 49.6247 37.3905 49.6545C37.3924 49.6843 37.3836 49.7139 37.3657 49.7378C36.6769 50.41 36.6797 50.4315 36.6042 50.4315Z" fill="white"/>
<path d="M37.2029 50.732C37.1788 50.7314 37.1553 50.7238 37.1354 50.7102C37.1155 50.6965 37.0999 50.6774 37.0907 50.6551C37.0814 50.6328 37.0788 50.6083 37.0831 50.5846C37.0874 50.5608 37.0986 50.5388 37.1151 50.5213L37.8334 49.7945C37.8507 49.777 37.8728 49.765 37.8969 49.7601C37.9211 49.7552 37.9461 49.7575 37.9689 49.7668C37.9839 49.773 37.9976 49.782 38.0094 49.7935C38.0324 49.8172 38.0453 49.8488 38.0456 49.8818C38.0455 49.8981 38.0421 49.9143 38.0357 49.9294C38.0294 49.9444 38.0201 49.9581 38.0084 49.9695C37.2641 50.7225 37.2766 50.732 37.2029 50.732Z" fill="white"/>
<path d="M30.0861 46.7584C30.0591 46.7574 30.0332 46.7478 30.0123 46.7308C29.9913 46.7138 29.9764 46.6905 29.9698 46.6644C29.9633 46.6382 29.9653 46.6107 29.9756 46.5858C29.9859 46.5609 30.004 46.54 30.0271 46.5261L30.9021 46.0511C30.9164 46.0427 30.9323 46.0372 30.9488 46.035C30.9653 46.0328 30.9821 46.034 30.9981 46.0384C31.0304 46.0477 31.0576 46.0695 31.0738 46.0989C31.0818 46.1134 31.0868 46.1295 31.0883 46.1461C31.0899 46.1626 31.088 46.1793 31.0828 46.1951C31.0778 46.211 31.0696 46.2256 31.0588 46.2383C31.048 46.2509 31.0347 46.2612 31.0198 46.2686C30.0688 46.7839 30.1306 46.7584 30.0861 46.7584Z" fill="white"/>
<path d="M30.4877 47.2001C30.4609 47.1991 30.4351 47.1895 30.4142 47.1728C30.3932 47.1561 30.3782 47.1331 30.3714 47.1071C30.3645 47.0812 30.3661 47.0538 30.3761 47.0289C30.386 47.004 30.4037 46.9829 30.4265 46.9688L31.2967 46.4731C31.3108 46.4645 31.3265 46.4589 31.3428 46.4565C31.3592 46.4542 31.3758 46.4552 31.3917 46.4596C31.4157 46.4659 31.4373 46.4792 31.4536 46.4979C31.4699 46.5166 31.4802 46.5398 31.4831 46.5645C31.4861 46.5891 31.4816 46.6141 31.4702 46.6361C31.4588 46.6581 31.441 46.6762 31.4192 46.6881C30.4775 47.2263 30.535 47.2001 30.4877 47.2001Z" fill="white"/>
<path d="M35.0895 32.2381C35.0852 32.2224 35.0779 32.2077 35.0679 32.1948C35.0579 32.1819 35.0454 32.1712 35.0312 32.1632C35.017 32.1552 35.0014 32.1501 34.9852 32.1482C34.969 32.1463 34.9526 32.1476 34.937 32.1521C34.1277 32.3771 33.362 32.5831 32.649 32.7691C32.5437 32.5191 32.399 32.3059 32.2447 32.2711C31.8727 32.1874 30.6697 32.6211 30.5577 32.8039C30.4971 32.9631 30.4897 33.1376 30.5365 33.3014C28.35 33.8326 27.0137 34.0961 26.993 34.1001C26.9645 34.1079 26.9397 34.1255 26.923 34.1497C26.9062 34.174 26.8986 34.2034 26.9015 34.2328C26.9043 34.2621 26.9174 34.2895 26.9385 34.3101C26.9596 34.3307 26.9873 34.3432 27.0167 34.3454C27.1615 34.3454 29.6947 33.7606 30.595 33.5419C30.6887 33.8569 30.8415 34.1524 30.9617 34.1959C31.1927 34.2794 32.5992 33.7976 32.7577 33.6534C32.8437 33.5751 32.8195 33.2929 32.7327 33.0034C33.442 32.8184 34.201 32.6146 35.0032 32.3906C35.0348 32.3817 35.0615 32.3607 35.0777 32.3321C35.0938 32.3036 35.0981 32.2698 35.0895 32.2381Z" fill="white"/>
<path d="M44.3305 37.4074C44.6116 37.4074 44.8813 37.2957 45.08 37.0969C45.2788 36.8982 45.3905 36.6285 45.3905 36.3474C45.3905 36.0663 45.2788 35.7967 45.08 35.5979C44.8813 35.3991 44.6116 35.2874 44.3305 35.2874C44.0494 35.2874 43.7798 35.3991 43.581 35.5979C43.3822 35.7967 43.2705 36.0663 43.2705 36.3474C43.2705 36.6285 43.3822 36.8982 43.581 37.0969C43.7798 37.2957 44.0494 37.4074 44.3305 37.4074Z" fill="#87E4FF"/>
<path d="M21.5884 33.0978C22.0571 32.6933 22.9511 33.3815 24.4384 34.033C25.8169 34.637 26.2759 34.8608 26.9296 35.133C27.9814 35.571 27.6016 36.7673 26.3966 36.5253C25.5266 36.3503 23.6691 35.7093 22.8944 35.6003C21.7129 35.4328 20.3696 34.15 21.5884 33.0978Z" fill="#87E4FF"/>
<path d="M43.0724 21.7708C43.0724 21.7708 46.6259 22.0403 47.4599 22.5151C47.4599 22.5151 47.6652 23.0923 47.2932 23.3938C47.2932 23.3938 43.1182 22.9438 42.8799 22.7396C42.8118 22.5773 42.7937 22.3984 42.828 22.2257C42.8623 22.0531 42.9474 21.8947 43.0724 21.7708Z" fill="white"/>
<path d="M43.327 22.9233C43.2155 23.1438 43.056 27.1813 43.31 27.3023C43.669 27.4733 45.6447 27.6701 45.8157 27.5846C45.9867 27.4991 47.0047 23.5051 46.748 23.3846C46.4912 23.2641 43.4452 22.6898 43.327 22.9233Z" fill="#87E4FF"/>
<path d="M43.3198 23.5189C43.2161 23.5689 42.7638 23.8524 42.9286 24.1474C43.0933 24.4424 43.5058 24.2309 43.9228 23.9224C44.3398 23.6139 44.3013 23.0577 43.3198 23.5189Z" fill="white"/>
<path d="M42.7477 24.2156C42.6872 23.9881 42.824 23.7448 43.1132 23.5656C43.3585 23.4128 43.811 23.1781 44.0882 23.3141C44.144 23.3419 44.1912 23.3843 44.225 23.4366C44.2588 23.489 44.2779 23.5495 44.2802 23.6118C44.2775 23.6764 44.2612 23.7397 44.2325 23.7976C44.2039 23.8555 44.1634 23.9067 44.1137 23.9481C43.7077 24.3796 42.9107 24.8291 42.7477 24.2156ZM43.8912 23.5188C43.6412 23.5188 42.9092 23.8606 42.987 24.1521C43.094 24.5576 44.019 23.7756 44.0342 23.6321C44.0262 23.5578 43.9945 23.5188 43.8912 23.5188Z" fill="#414141"/>
<path d="M45.6481 24.1408C45.7651 24.0408 46.6186 24.2821 46.9159 24.6658C47.2131 25.0496 46.7771 25.1086 46.7771 25.1086C46.7771 25.1086 47.2839 25.4806 46.7706 25.6793C46.7706 25.6793 47.2389 26.1543 46.6424 26.4293C46.6424 26.4293 46.9566 26.9293 46.0201 26.9426C45.0836 26.9558 45.1284 26.5111 45.9111 26.3781C45.9111 26.3781 45.2281 25.9991 45.2696 25.7943C45.3111 25.5896 45.8791 25.6018 45.8791 25.6018C45.8791 25.6018 45.2434 25.1881 45.3916 24.9298C45.5399 24.6716 46.0136 24.8513 46.0136 24.8513C46.0136 24.8513 45.4681 24.2951 45.6481 24.1408Z" fill="white"/>
<path d="M45.177 26.8688C45.1548 26.8247 45.1476 26.7746 45.1567 26.7262C45.1657 26.6777 45.1904 26.6336 45.227 26.6005C45.3503 26.5082 45.4908 26.4414 45.6402 26.404C45.4137 26.3088 45.1152 26.1428 45.1152 25.8958C45.1152 25.6655 45.3845 25.603 45.5902 25.5858C45.4812 25.5165 45.1152 25.3138 45.1997 24.9785C45.2705 24.6983 45.5817 24.7285 45.7167 24.7535C45.5939 24.6405 45.5096 24.4919 45.4755 24.3285C45.4668 24.2707 45.4802 24.2118 45.513 24.1634C45.5458 24.115 45.5956 24.0808 45.6525 24.0675C45.985 23.973 46.8367 24.3865 47.0142 24.689C47.073 24.7603 47.102 24.8516 47.095 24.9438C47.088 25.036 47.0456 25.1219 46.9767 25.1835C47.0184 25.2249 47.0506 25.2747 47.0715 25.3296C47.0923 25.3845 47.1011 25.4432 47.0975 25.5018C47.0938 25.5604 47.0776 25.6176 47.0501 25.6694C47.0225 25.7213 46.9842 25.7666 46.9377 25.8025C46.9865 25.8573 47.0215 25.9228 47.04 25.9938C47.0585 26.0647 47.0599 26.139 47.044 26.2106C47.0282 26.2822 46.9956 26.349 46.9489 26.4055C46.9022 26.462 46.8428 26.5067 46.7755 26.5358C47.0532 27.2578 45.362 27.2345 45.177 26.8688ZM45.3967 26.783C45.4862 26.865 46.2915 26.9488 46.5315 26.758C46.5605 26.7348 46.609 26.696 46.5 26.558C46.488 26.5423 46.4798 26.524 46.4763 26.5046C46.4728 26.4851 46.474 26.4651 46.4797 26.4463C46.4854 26.4274 46.4954 26.4101 46.509 26.3959C46.5226 26.3816 46.5394 26.3708 46.558 26.3643C46.6407 26.3363 46.8177 26.245 46.835 26.1418C46.847 26.0708 46.78 25.9743 46.646 25.87C46.6285 25.8561 46.6151 25.8376 46.6072 25.8167C46.5994 25.7957 46.5974 25.773 46.6015 25.751C46.6055 25.729 46.6153 25.7086 46.6299 25.6916C46.6444 25.6747 46.6632 25.6619 46.6842 25.6545C46.7625 25.6295 46.8765 25.5625 46.886 25.5028C46.889 25.4833 46.886 25.409 46.7055 25.2778C46.6877 25.2645 46.6738 25.2468 46.6653 25.2264C46.6567 25.206 46.6537 25.1837 46.6567 25.1618C46.6597 25.1399 46.6684 25.1192 46.6819 25.1018C46.6953 25.0843 46.7131 25.0707 46.7335 25.0623C46.7586 25.0526 46.7809 25.0369 46.7985 25.0165C46.816 24.9961 46.8283 24.9717 46.8341 24.9455C46.84 24.9192 46.8393 24.892 46.8321 24.8661C46.8248 24.8401 46.8113 24.8164 46.7927 24.797C46.5752 24.5802 46.3057 24.4227 46.01 24.3398C45.916 24.3007 45.8127 24.2901 45.7127 24.3093C45.7485 24.5315 46.2215 24.8825 46.5127 25.05C46.5368 25.0681 46.5535 25.0943 46.5598 25.1237C46.5661 25.1531 46.5616 25.1839 46.547 25.2102C46.5325 25.2366 46.5089 25.2568 46.4807 25.2672C46.4524 25.2776 46.4214 25.2774 46.3932 25.2668C46.1082 25.1168 45.5012 24.9075 45.4895 25.0835C45.4735 25.3208 45.9997 25.536 46.1827 25.5963C46.509 25.638 46.4022 25.8635 46.2697 25.8663C46.2313 25.8648 46.1932 25.8578 46.1567 25.8455C45.9175 25.815 45.4207 25.8128 45.3612 25.9015C45.363 26.0695 46.013 26.2975 46.149 26.2988V26.3013C46.1693 26.2979 46.1901 26.2998 46.2095 26.3067C46.2288 26.3136 46.2462 26.3253 46.2598 26.3407C46.2734 26.3561 46.2829 26.3747 46.2874 26.3948C46.2919 26.4149 46.2912 26.4358 46.2855 26.4555C46.2787 26.4792 46.2649 26.5003 46.246 26.516C46.227 26.5318 46.2038 26.5414 46.1792 26.5438C46.048 26.5638 45.4635 26.6668 45.3967 26.783Z" fill="#414141"/>
<path d="M47.4398 22.3361C47.3381 22.2981 47.2343 22.2661 47.1288 22.2401C47.1553 22.0636 47.1826 21.7076 46.9998 21.5841C46.7531 21.4176 44.8173 21.0941 44.2748 21.1033C43.9963 21.1081 43.8631 21.4901 43.8156 21.6701C43.5761 21.6298 43.3324 21.6204 43.0906 21.6421C42.7831 21.7516 42.5438 22.6138 42.8028 22.8171C43.0426 23.0048 47.2471 23.5421 47.2881 23.5421C47.5256 23.5361 47.6228 23.0398 47.6333 22.9831C47.6958 22.6473 47.6248 22.4113 47.4398 22.3361ZM47.2603 23.2936C46.8708 23.2631 43.1886 22.7378 42.9588 22.6246C42.9255 22.4963 42.9334 22.3607 42.9813 22.2371C43.0053 22.0996 43.0718 21.9736 43.1718 21.8763C43.4513 21.8238 46.6808 22.2946 47.3468 22.5653C47.4693 22.6151 47.3863 23.1463 47.2603 23.2936Z" fill="#FDAF31"/>
<path d="M23.3431 19.7339C22.0808 19.5684 20.8063 19.5157 19.5346 19.5764C19.5046 19.5744 19.4763 19.5616 19.455 19.5405C19.4336 19.5193 19.4206 19.4911 19.4183 19.4612C19.416 19.4312 19.4247 19.4014 19.4426 19.3772C19.4605 19.3531 19.4865 19.3362 19.5159 19.3297C20.8041 19.2678 22.0953 19.3209 23.3741 19.4884C23.4031 19.4964 23.4283 19.5145 23.4449 19.5396C23.4616 19.5646 23.4687 19.5948 23.465 19.6246C23.4612 19.6544 23.4468 19.6819 23.4244 19.702C23.4021 19.722 23.3732 19.7334 23.3431 19.7339Z" fill="#414141"/>
<path d="M22.0926 20.661C21.2801 20.6052 20.4647 20.6031 19.6519 20.6545C19.6221 20.6515 19.5944 20.6379 19.5738 20.6161C19.5532 20.5943 19.5411 20.5659 19.5397 20.536C19.5383 20.5061 19.5477 20.4766 19.5662 20.4531C19.5847 20.4295 19.611 20.4133 19.6404 20.4075C20.4614 20.3667 21.2839 20.3689 22.1046 20.4143C22.1339 20.4203 22.16 20.4365 22.1783 20.4601C22.1965 20.4837 22.2058 20.513 22.2043 20.5428C22.2029 20.5726 22.1908 20.6009 22.1704 20.6226C22.1499 20.6443 22.1223 20.6579 22.0926 20.661Z" fill="#414141"/>
<path d="M26.189 18.3947C26.1517 18.1832 26.2947 17.8947 26.7375 17.7119C26.7375 17.2269 26.7047 16.7424 26.6387 16.2619C26.6361 16.2376 26.6406 16.2131 26.6518 16.1913C26.6629 16.1696 26.6802 16.1515 26.7015 16.1395C26.7228 16.1275 26.7471 16.122 26.7715 16.1236C26.7959 16.1253 26.8193 16.1341 26.8387 16.1489C27.0847 16.3457 27.7025 16.7287 27.709 16.7324C27.7323 16.7517 27.7478 16.7787 27.7526 16.8085C27.7575 16.8383 27.7514 16.8689 27.7355 16.8946C27.7196 16.9202 27.6949 16.9393 27.6661 16.9482C27.6372 16.957 27.6061 16.9552 27.5785 16.9429C27.5587 16.9307 27.2017 16.7094 26.918 16.5132C26.9822 17.0967 27.0405 18.2319 26.818 18.5632C26.7819 18.6289 26.7247 18.6806 26.6558 18.7101C26.5868 18.7395 26.5099 18.745 26.4374 18.7256C26.365 18.7062 26.3011 18.663 26.2561 18.603C26.211 18.543 26.1874 18.4697 26.189 18.3947Z" fill="#414141"/>
<path d="M28.3665 14.915C27.9193 14.8722 28.1215 14.237 28.6385 14.0377C28.604 13.6913 28.5513 13.3469 28.4805 13.006C28.4763 12.9827 28.4787 12.9586 28.4876 12.9366C28.4965 12.9147 28.5115 12.8957 28.5308 12.8819C28.5501 12.8681 28.5729 12.8601 28.5966 12.8588C28.6203 12.8575 28.6438 12.8629 28.6645 12.8745C28.8965 12.9825 29.142 13.0582 29.3948 13.0995C29.4236 13.1085 29.4483 13.1277 29.4641 13.1535C29.4799 13.1793 29.4858 13.2099 29.4807 13.2398C29.4757 13.2696 29.46 13.2966 29.4365 13.3157C29.4131 13.3348 29.3835 13.3448 29.3533 13.3437C29.1548 13.3084 28.9595 13.2575 28.769 13.1915C28.8478 13.6165 28.958 14.3365 28.853 14.5557C28.8129 14.6547 28.7463 14.7406 28.6604 14.804C28.5746 14.8674 28.4728 14.9058 28.3665 14.915Z" fill="#414141"/>
<path d="M44.5143 19.0327C44.4716 19.0227 43.4761 18.7839 43.3821 18.0597C43.3634 17.9241 43.374 17.786 43.4133 17.6549C43.4526 17.5238 43.5196 17.4026 43.6098 17.2997C43.6717 17.2382 43.7175 17.1626 43.7434 17.0794C43.7692 16.9961 43.7743 16.9078 43.7581 16.8222C43.7242 16.6656 43.645 16.5225 43.5304 16.4107C43.4158 16.2989 43.2709 16.2232 43.1136 16.1932C43.0845 16.1845 43.0596 16.1656 43.0435 16.1399C43.0274 16.1143 43.0212 16.0836 43.026 16.0537C43.0309 16.0238 43.0464 15.9966 43.0698 15.9774C43.0932 15.9581 43.1228 15.948 43.1531 15.9489C43.3602 15.9869 43.5513 16.0857 43.7022 16.2326C43.8532 16.3794 43.957 16.5679 44.0006 16.7739C44.1256 17.3909 43.5506 17.4439 43.6273 18.0292C43.6993 18.5827 44.5613 18.7902 44.5701 18.7922C44.5974 18.8035 44.6199 18.8241 44.6334 18.8505C44.647 18.8768 44.6507 18.9071 44.644 18.9359C44.6373 18.9648 44.6206 18.9903 44.5969 19.008C44.5731 19.0256 44.5439 19.0343 44.5143 19.0324V19.0327Z" fill="#414141"/>
<path d="M43.6711 19.9889C43.6389 19.9869 42.8769 19.9344 42.5461 19.5564C42.1476 19.0996 42.5336 18.6239 42.3429 18.3276C42.1396 18.0119 41.8469 18.1296 41.3679 17.6651C40.9314 17.2421 41.3019 16.6169 41.5581 16.3451C41.5757 16.331 41.5968 16.3219 41.6191 16.3188C41.6414 16.3156 41.6641 16.3186 41.6849 16.3273C41.7057 16.336 41.7237 16.3501 41.7371 16.3682C41.7506 16.3863 41.7588 16.4077 41.7611 16.4301C41.7642 16.4603 41.7561 16.4905 41.7384 16.5151C41.7326 16.5211 41.1699 17.1284 41.5401 17.4876C41.9794 17.9126 42.2934 17.7934 42.5511 18.1936C42.8186 18.6079 42.4174 19.0319 42.7334 19.3936C42.9509 19.6436 43.4954 19.7296 43.6869 19.7421C43.7161 19.7486 43.742 19.7652 43.7601 19.789C43.7781 19.8128 43.7871 19.8423 43.7854 19.8721C43.7835 19.902 43.7709 19.9303 43.7499 19.9517C43.7289 19.9731 43.701 19.9863 43.6711 19.9889Z" fill="#414141"/>
</svg>
