<svg width="51" height="51" viewBox="0 0 51 51" fill="none" xmlns="http://www.w3.org/2000/svg">
<g clip-path="url(#clip0_1982_65742)">
<path d="M46.4203 30.0505C44.5842 30.4664 42.7134 30.7109 40.8321 30.781L35.2041 29.9123C34.8306 29.8413 32.9701 29.461 32.7951 29.6358C32.5358 29.3333 32.8156 27.026 31.8076 25.5285C31.3273 24.6743 30.0001 24.406 30.4253 25.864C30.6296 26.8848 31.1736 27.9163 29.6553 28.609C27.4053 29.6358 26.4168 26.9503 26.8303 25.015C26.5622 24.6206 26.3844 24.1719 26.3093 23.701C26.2343 23.23 26.2639 22.7483 26.3961 22.29C26.1658 22.3661 25.9562 22.4945 25.7838 22.665C24.2353 24.0585 24.2736 27.297 25.2981 28.731C23.5403 28.7158 23.1981 30.07 23.5918 30.5638C22.9468 31.0915 22.8648 31.8865 22.9601 31.966C22.7928 32.091 22.3253 33.2955 23.3748 33.4865C23.5655 33.5093 23.7586 33.5025 23.9473 33.4665C24.0061 33.7598 26.5843 35.6798 29.8723 36.0338C31.4658 36.225 31.1271 36.0338 31.4916 36.0338C31.4621 36.2368 31.4621 36.443 31.4916 36.646C31.7666 37.3568 37.4166 39.766 40.7726 40.9113L45.0181 41.938C45.0962 41.9567 45.1773 41.9591 45.2563 41.945C45.3354 41.931 45.4107 41.9008 45.4776 41.8563C45.5443 41.8116 45.6011 41.7536 45.6443 41.6859C45.6876 41.6182 45.7165 41.5424 45.7291 41.463L46.1436 38.6393C46.3611 35.7573 46.5191 31.8473 46.4203 30.0505Z" fill="white"/>
<path d="M46.5655 30.0457C46.5647 30.0178 46.5545 29.991 46.5364 29.9697C46.5184 29.9484 46.4936 29.934 46.4662 29.9287C46.4482 29.9249 46.4296 29.9252 46.4117 29.9294C41.2225 31.1577 39.6207 30.6152 35.2475 29.7902C34.853 29.7152 33.126 29.3727 32.8225 29.4809C32.8895 24.3839 29.8392 23.6822 30.3035 25.9089C30.512 26.9544 31.0217 27.8689 29.6035 28.5157C27.5197 29.4657 26.54 26.9929 26.9535 25.0617C26.9596 25.0428 26.9611 25.0227 26.9578 25.0031C26.9545 24.9835 26.9465 24.965 26.9345 24.9491C26.9225 24.9333 26.9068 24.9206 26.8888 24.9121C26.8708 24.9036 26.8511 24.8996 26.8312 24.9004C26.5002 24.9004 26.3542 27.5644 27.646 28.6027C28.0372 28.9174 28.7122 29.1967 29.707 28.7432C31.987 27.7029 29.9442 25.6519 30.6152 25.0274C30.8382 24.8199 31.4767 25.1809 31.7235 25.6187C32.419 26.6517 32.5767 28.9072 32.5665 29.8317C32.1032 30.9292 31.4867 34.4427 31.3727 35.9222C30.9345 36.0597 30.3672 35.9697 29.8857 35.9102C26.7827 35.5269 25.6477 34.4892 24.28 33.6437C24.1232 33.5264 24.126 33.5527 24.2482 33.5237C25.5777 33.2094 25.6647 33.6932 26.446 33.6932C27.1725 33.6932 27.3762 33.0557 27.167 32.4884C27.3242 32.3411 27.4482 32.162 27.5306 31.9629C27.6131 31.7639 27.6522 31.5495 27.6452 31.3342C28.3342 30.1842 26.912 28.7452 25.4202 28.6109C24.1975 27.0564 24.5015 23.5032 26.2177 22.5202C26.398 22.4302 26.5545 22.4249 26.5177 22.2802C26.4312 21.9302 25.25 22.6914 24.798 23.9262C24.2897 25.3137 24.242 27.3332 25.1017 28.6012C23.446 28.6492 23.1267 30.1857 23.3802 30.5882C22.8462 31.1132 22.7552 31.8079 22.8185 31.9789C22.321 32.5929 22.5685 33.4727 23.3435 33.6124C23.9772 33.6759 23.6472 33.4837 24.1387 33.8507C25.2732 34.5594 26.6352 35.7619 29.8575 36.1594C30.348 36.2557 30.8512 36.2662 31.3452 36.1902C31.3427 36.3339 31.3502 36.4779 31.3672 36.6207C31.4587 37.5317 39.4882 40.5672 40.7317 40.9917C42.2758 41.4889 43.85 41.8872 45.4447 42.1839C46.0377 42.1839 46.0397 42.0199 46.2882 38.6117C46.2887 38.5852 46.6895 32.8362 46.5655 30.0457ZM24.3347 29.0207C25.9747 28.3027 27.9142 29.9037 27.5205 31.0179C27.0015 30.1719 24.8152 29.4462 23.601 30.3954C23.5573 30.1176 23.6052 29.8332 23.7376 29.5851C23.87 29.337 24.0796 29.1388 24.3347 29.0204V29.0207ZM27.3847 31.3152C27.54 31.7814 27.0642 32.1669 27.0347 32.2299C26.3572 31.2259 24.014 31.0189 23.0625 31.7442C23.4555 29.4124 27.0122 30.1484 27.3847 31.3149V31.3152ZM22.8597 32.9422C22.2697 31.4104 26.0597 31.0359 26.863 32.4247C27.109 32.8462 27.0522 33.4909 26.3905 33.4419C26.003 33.4132 25.5852 33.2052 25.1465 33.1654C24.3015 33.0837 23.1997 33.8267 22.859 32.9419L22.8597 32.9422ZM45.6892 41.8634C45.5302 41.9977 45.1942 41.9079 44.9492 41.8422C44.9492 41.8422 43.4947 41.5222 42.2855 41.2057C39.769 40.5754 32.0015 37.3609 31.6155 36.5754C31.5122 35.5404 32.4462 30.2839 32.9155 29.7169C33.1947 29.6669 34.1782 29.8419 35.2035 30.0362C39.6685 30.8782 41.1305 31.3862 46.3237 30.2072C46.4265 33.2089 45.9462 41.3164 45.6882 41.8632L45.6892 41.8634Z" fill="#313131"/>
<path d="M31.0755 32.6098C30.3755 32.2318 28.9963 31.9818 28.3303 32.5181C28.3044 32.5376 28.272 32.5461 28.2399 32.542C28.2078 32.5379 28.1786 32.5214 28.1585 32.4961C28.1383 32.471 28.1285 32.439 28.1313 32.4068C28.1341 32.3747 28.1492 32.3448 28.1735 32.3236C28.9328 31.7121 30.4158 31.9691 31.1943 32.3898C31.2203 32.4032 31.2407 32.4253 31.2521 32.4523C31.2634 32.4792 31.2649 32.5093 31.2563 32.5372C31.2476 32.5652 31.2295 32.5892 31.2049 32.6051C31.1804 32.6209 31.151 32.6277 31.122 32.6241C31.1057 32.6225 31.0899 32.6177 31.0755 32.6098Z" fill="#4D68A1"/>
<path d="M32.203 25.7055C32.05 25.1452 31.603 25.1092 31.353 25.054C31.5067 24.9724 31.6377 24.8539 31.7342 24.7091C31.8308 24.5643 31.8898 24.3978 31.906 24.2245C31.9532 23.693 31.963 23.5125 31.2147 23.1385C31.6082 22.7912 32.0147 21.8055 31.1752 21.6385C28.3002 21.0635 26.0067 22.8487 28.1725 23.6255C27.346 23.9125 26.1962 24.354 26.7915 24.9755C26.9875 25.1702 27.2336 25.307 27.5025 25.3705C27.313 25.9382 27.3717 26.3627 27.9722 26.7072C28.1972 27.9377 29.557 28.486 30.4645 28.214C30.7607 28.1152 31.511 27.6412 31.4715 26.891C31.966 26.6732 32.361 26.2387 32.203 25.7055Z" fill="#FCCAC2"/>
<path d="M26.3767 20.1768H26.377C26.377 19.7873 26.0409 19.396 25.5142 19.0976C24.9944 18.8032 24.3228 18.6203 23.7222 18.6318L26.3767 20.1768ZM26.3767 20.1768L26.3773 20.1845M26.3767 20.1768L26.3773 20.1845M26.3773 20.1845C26.3873 20.314 26.3581 20.3949 26.3123 20.4486C26.2649 20.5041 26.1873 20.5449 26.0733 20.5682C25.8413 20.6155 25.5081 20.5814 25.1364 20.5204C25.0033 20.4986 24.8651 20.4732 24.727 20.4479C24.4896 20.4043 24.2526 20.3609 24.0427 20.3354C23.8752 20.3151 23.7173 20.3051 23.582 20.316C23.4491 20.3267 23.3227 20.3587 23.2326 20.4362L23.2325 20.4362C23.1379 20.5177 23.1286 20.6276 23.1372 20.7127C23.1415 20.7553 23.1507 20.797 23.159 20.8322C23.161 20.8404 23.1628 20.8482 23.1646 20.8555C23.1709 20.882 23.1761 20.9034 23.1794 20.9232L23.1788 20.9233L23.1818 20.9342C23.3788 21.6262 23.3935 22.3575 23.2246 23.057C23.0556 23.7564 22.7088 24.4004 22.2177 24.9263L22.2045 24.9404L22.1976 24.9583C22.0264 25.3985 21.8753 25.7689 21.7366 26.1088C21.3274 27.1117 21.0266 27.8488 20.6412 29.3283M26.3773 20.1845L20.6412 29.3283M20.6412 29.3283C19.8273 29.0441 19.4041 28.7411 18.8794 28.3655C18.6371 28.192 18.3732 28.0031 18.0392 27.7933L18.0391 27.7933C17.58 27.5059 17.0982 27.2565 16.5985 27.0476C17.1438 25.074 17.5779 23.0713 17.8988 21.0491C18.1448 21.1036 18.3986 21.116 18.6492 21.0856C19.9653 20.9338 20.6717 20.3192 21.3261 19.7498L21.3376 19.7398C21.9924 19.1701 22.5935 18.6536 23.7222 18.6318L20.6412 29.3283Z" fill="#FCCAC2" stroke="black" stroke-width="0.2"/>
<path d="M30.1298 21.5395C30.1298 20.532 31.14 18.4895 31.6298 17.6098C31.8273 17.2743 32.5298 16.4893 32.321 16.0695C32.176 15.7768 31.6495 15.6353 31.3928 15.5168C28.4128 14.1258 25.3503 12.4855 24.3045 12.989C24.017 13.1328 24.1065 13.2405 23.8503 13.1075C23.3328 12.8388 22.8378 13.9348 22.7253 14.2133C22.0503 15.8768 21.9928 18.9175 22.0933 19.0513C23.8653 17.87 26.398 19.074 26.398 20.1763C26.5088 21.6163 22.7545 19.5148 23.2188 20.9068C23.4152 21.6159 23.4276 22.3634 23.2548 23.0787C23.082 23.794 22.7298 24.4535 22.2313 24.9948C21.667 26.6058 21.2148 27.2425 20.6513 29.497C20.4933 30.1093 20.3923 30.6438 20.4538 30.741C20.6168 30.9988 21.5465 31.2018 21.6388 31.1558C21.9278 31.4448 22.877 31.6698 22.9023 31.6698C22.9389 31.7933 23.0083 31.9047 23.103 31.9921C23.1978 32.0795 23.3144 32.1397 23.4405 32.1663C23.9405 32.3185 28.1905 32.5163 29.0238 32.5385C30.2825 32.5933 30.7375 32.5945 30.8208 32.4003C31.0083 31.9315 29.8728 29.8045 29.8728 28.3523C29.1028 28.293 28.214 27.7795 27.977 26.95L28.0758 26.8318C27.3885 26.4593 27.3333 26.018 27.523 25.4495C27.2557 25.382 27.0106 25.2458 26.812 25.0545C26.2358 24.452 27.3138 23.996 28.135 23.7908L28.1548 23.6723C26.5318 23.1948 27.3878 21.4698 30.1295 21.5395H30.1298Z" fill="#E02728"/>
<path d="M28.607 20.8215C28.0924 20.7048 27.5617 20.6755 27.0373 20.735C26.9373 19.4788 27.061 19.2145 26.8713 19.1413C26.8434 19.1315 26.8133 19.1297 26.7844 19.136C26.7555 19.1423 26.7289 19.1565 26.7075 19.177C26.6862 19.1976 26.671 19.2236 26.6636 19.2522C26.6562 19.2809 26.6569 19.311 26.6655 19.3393C26.6655 19.496 26.6768 20.2683 26.7208 20.7893C24.5608 21.2225 23.7028 23.3893 26.1755 23.5643C26.5925 23.6203 26.9848 23.6575 27.2723 23.945C27.3058 23.9689 27.3458 23.9818 27.3869 23.9821C27.428 23.9823 27.4682 23.9699 27.502 23.9465C27.516 23.933 27.5271 23.9167 27.5346 23.8988C27.5421 23.8808 27.5459 23.8615 27.5458 23.842C27.5458 23.8226 27.5419 23.8033 27.5344 23.7854C27.5269 23.7675 27.5159 23.7512 27.502 23.7375C26.818 23.0538 25.2448 23.4645 25.0055 22.6693C24.7375 21.9545 26.345 20.552 28.517 21.115C28.677 21.1668 28.8208 20.8885 28.607 20.8215Z" fill="white"/>
<path d="M27.4265 26.0376C27.0104 26.1882 26.5674 26.2505 26.1259 26.2203C25.6843 26.1902 25.2539 26.0684 24.862 25.8626C24.827 25.8452 24.7866 25.8419 24.7492 25.8535C24.7118 25.8652 24.6804 25.8908 24.6615 25.9251C24.6425 25.9594 24.6376 25.9997 24.6477 26.0375C24.6578 26.0753 24.6821 26.1078 24.7155 26.1281C25.2099 26.3996 25.7663 26.5381 26.3303 26.5299C26.3383 27.0226 26.389 27.3494 26.389 27.8819C26.393 27.9186 26.4104 27.9525 26.4379 27.9772C26.4654 28.0018 26.501 28.0155 26.5379 28.0155C26.5748 28.0155 26.6105 28.0018 26.6379 27.9772C26.6654 27.9525 26.6828 27.9186 26.6868 27.8819C26.6868 25.8596 26.2868 26.8319 27.541 26.3296C27.7565 26.2566 27.5723 25.9706 27.4265 26.0376Z" fill="white"/>
<path d="M27.8789 16.2678C27.7735 16.2563 27.667 16.2764 27.573 16.3254C27.479 16.3745 27.4017 16.4504 27.3508 16.5434C27.2999 16.6365 27.2778 16.7426 27.2873 16.8482C27.2968 16.9538 27.3373 17.0543 27.4039 17.1368C27.4548 17.1976 27.5181 17.2467 27.5896 17.2808C27.6612 17.3149 27.7392 17.3331 27.8184 17.3343C27.955 17.3343 28.0864 17.2819 28.1856 17.1881C28.2848 17.0942 28.3443 16.9659 28.3519 16.8296C28.3595 16.6933 28.3147 16.5593 28.2268 16.4549C28.1389 16.3505 28.0145 16.2836 27.8789 16.2678Z" fill="white"/>
<path d="M26.616 29.7554C26.5119 29.7574 26.4107 29.7899 26.325 29.8488C26.2392 29.9077 26.1725 29.9905 26.1332 30.0868C26.0939 30.1832 26.0837 30.289 26.1038 30.3911C26.1239 30.4932 26.1735 30.5871 26.2465 30.6614C26.344 30.7611 26.4765 30.8186 26.616 30.8216C26.72 30.8195 26.821 30.7869 26.9068 30.728C26.9925 30.6691 27.0591 30.5863 27.0984 30.49C27.1377 30.3937 27.1479 30.288 27.1278 30.1859C27.1078 30.0839 27.0583 29.9899 26.9855 29.9156C26.888 29.8159 26.7554 29.7584 26.616 29.7554Z" fill="white"/>
<path d="M22.2774 24.8111C22.2788 24.7937 22.2826 24.7788 22.288 24.7661C22.2881 24.7659 22.2882 24.7658 22.2882 24.7656C22.3328 24.6637 22.4907 24.705 22.4911 24.7641C22.4913 24.7841 22.4915 24.8057 22.4918 24.829L22.2774 24.8111ZM22.2774 24.8111C22.2711 24.8857 22.2674 25.0126 22.2661 25.1811C22.3099 25.1975 22.3528 25.2039 22.3926 25.2036C22.4212 25.2034 22.4577 25.1995 22.4978 25.1874C22.4949 25.0444 22.493 24.9234 22.4918 24.8292L22.2774 24.8111ZM22.8311 31.7654C22.8466 31.7939 22.8726 31.8153 22.9036 31.8251C22.9346 31.8348 22.9681 31.8321 22.9972 31.8175C23.0262 31.8029 23.0484 31.7776 23.0591 31.7469C23.0697 31.7162 23.0681 31.6826 23.0544 31.6532L22.9461 31.7076L22.9428 31.7093L22.9394 31.711L22.8311 31.7654ZM22.8311 31.7654C22.831 31.7652 22.8309 31.765 22.8308 31.7648L22.8467 31.7569L22.8311 31.7654ZM22.941 31.7058L22.8277 31.7585C22.8125 31.7274 22.7977 31.6914 22.7832 31.6509C22.7587 31.5825 22.7352 31.5011 22.7126 31.4084C22.7312 31.3941 22.7513 31.3815 22.7725 31.3708C22.8269 31.3434 22.8866 31.33 22.9463 31.3308C22.9636 31.4006 22.9814 31.4633 22.9999 31.5182C23.0164 31.5673 23.0334 31.6101 23.051 31.6462L22.941 31.7058Z" fill="#4D68A1" stroke="black"/>
<mask id="path-12-inside-1_1982_65742" fill="white">
<path d="M23.0804 18.5145C22.9439 18.3108 23.3534 17.0308 23.4182 16.8553C23.7809 15.7926 24.291 14.786 24.9334 13.865C25.2762 13.415 25.6704 13.015 26.2584 13.1018C26.2834 13.1003 26.3584 13.12 26.3782 13.1203C26.3952 13.1192 26.4124 13.1216 26.4285 13.1274C26.4446 13.1332 26.4593 13.1422 26.4718 13.1539C26.4843 13.1657 26.4942 13.1798 26.501 13.1955C26.5078 13.2112 26.5113 13.2282 26.5113 13.2453C26.5113 13.2624 26.5078 13.2793 26.501 13.295C26.4942 13.3107 26.4843 13.3249 26.4718 13.3366C26.4593 13.3483 26.4446 13.3573 26.4285 13.3631C26.4124 13.3689 26.3952 13.3713 26.3782 13.3703C26.0282 13.3703 25.7752 13.1718 25.1347 14.0123C23.8404 15.8735 23.2634 17.9925 23.3034 18.4348C23.4264 18.5635 23.1969 18.688 23.0804 18.5145Z"/>
</mask>
<path d="M23.0804 18.5145C22.9439 18.3108 23.3534 17.0308 23.4182 16.8553C23.7809 15.7926 24.291 14.786 24.9334 13.865C25.2762 13.415 25.6704 13.015 26.2584 13.1018C26.2834 13.1003 26.3584 13.12 26.3782 13.1203C26.3952 13.1192 26.4124 13.1216 26.4285 13.1274C26.4446 13.1332 26.4593 13.1422 26.4718 13.1539C26.4843 13.1657 26.4942 13.1798 26.501 13.1955C26.5078 13.2112 26.5113 13.2282 26.5113 13.2453C26.5113 13.2624 26.5078 13.2793 26.501 13.295C26.4942 13.3107 26.4843 13.3249 26.4718 13.3366C26.4593 13.3483 26.4446 13.3573 26.4285 13.3631C26.4124 13.3689 26.3952 13.3713 26.3782 13.3703C26.0282 13.3703 25.7752 13.1718 25.1347 14.0123C23.8404 15.8735 23.2634 17.9925 23.3034 18.4348C23.4264 18.5635 23.1969 18.688 23.0804 18.5145Z" fill="#4D68A1"/>
<path d="M23.0804 18.5145L22.2496 19.0711L22.2502 19.072L23.0804 18.5145ZM23.4182 16.8553L24.3563 17.2014L24.3606 17.1899L24.3645 17.1783L23.4182 16.8553ZM24.9334 13.865L24.1379 13.2591L24.1252 13.2757L24.1132 13.2929L24.9334 13.865ZM26.2584 13.1018L26.1125 14.0911L26.2149 14.1062L26.3183 14.1L26.2584 13.1018ZM26.3782 13.1203L26.3655 14.1202L26.4034 14.1207L26.4413 14.1183L26.3782 13.1203ZM26.3782 13.3703L26.4413 12.3723L26.4098 12.3703H26.3782V13.3703ZM25.1347 14.0123L24.3393 13.4062L24.3261 13.4235L24.3136 13.4414L25.1347 14.0123ZM23.3034 18.4348L22.3075 18.5248L22.3389 18.8729L22.5803 19.1255L23.3034 18.4348ZM23.9112 17.9579C23.997 18.086 24.0271 18.2011 24.0381 18.2517C24.0505 18.3083 24.0522 18.3482 24.0526 18.3602C24.0533 18.3827 24.0511 18.3757 24.0577 18.3263C24.0703 18.2315 24.0999 18.0903 24.143 17.9207C24.1846 17.7569 24.2328 17.5903 24.2749 17.4532C24.2958 17.3852 24.3146 17.3261 24.3296 17.2804C24.3371 17.2575 24.3434 17.2387 24.3483 17.2243C24.3508 17.2171 24.3528 17.2115 24.3542 17.2073C24.3558 17.2029 24.3564 17.2011 24.3563 17.2014L22.48 16.5091C22.434 16.6338 22.3054 17.0315 22.2046 17.4279C22.1544 17.6257 22.103 17.8536 22.0753 18.0617C22.0617 18.1636 22.0494 18.2915 22.0536 18.4236C22.0563 18.5091 22.0662 18.7974 22.2496 19.0711L23.9112 17.9579ZM24.3645 17.1783C24.6971 16.2041 25.1647 15.2814 25.7536 14.4371L24.1132 13.2929C23.4173 14.2906 22.8648 15.381 22.4718 16.5322L24.3645 17.1783ZM25.7289 14.4709C25.8862 14.2644 25.99 14.1606 26.0643 14.1103C26.094 14.0903 26.1055 14.0884 26.1019 14.0893C26.0956 14.0909 26.0957 14.0886 26.1125 14.0911L26.4044 12.1125C25.1956 11.9342 24.4731 12.819 24.1379 13.2591L25.7289 14.4709ZM26.3183 14.1C26.2814 14.1022 26.2512 14.1018 26.2313 14.1012C26.2106 14.1005 26.1936 14.0993 26.1817 14.0982C26.1587 14.0962 26.1418 14.0937 26.1351 14.0927C26.1274 14.0915 26.1227 14.0907 26.1225 14.0906C26.1221 14.0906 26.1233 14.0908 26.1275 14.0916C26.1295 14.092 26.1318 14.0924 26.1347 14.093C26.1374 14.0936 26.1411 14.0943 26.1448 14.095C26.1517 14.0964 26.1628 14.0986 26.1749 14.1008C26.1861 14.1028 26.2058 14.1063 26.2291 14.1096C26.2411 14.1113 26.258 14.1135 26.2779 14.1154C26.2881 14.1164 26.3005 14.1174 26.3144 14.1183C26.3282 14.1191 26.3455 14.1199 26.3655 14.1202L26.3908 12.1203C26.4264 12.1208 26.4544 12.1231 26.4697 12.1246C26.4864 12.1262 26.4996 12.128 26.5076 12.1291C26.523 12.1312 26.5334 12.1332 26.5343 12.1333C26.5363 12.1337 26.5362 12.1337 26.5316 12.1328C26.5294 12.1324 26.5272 12.1319 26.5239 12.1313C26.5209 12.1307 26.517 12.1299 26.513 12.1291C26.4997 12.1265 26.4688 12.1204 26.4347 12.1153C26.4171 12.1126 26.3901 12.1089 26.3581 12.106C26.3417 12.1046 26.3205 12.103 26.296 12.1022C26.2722 12.1015 26.2385 12.1012 26.1985 12.1036L26.3183 14.1ZM26.4413 14.1183C26.322 14.1258 26.2025 14.1088 26.09 14.0684L26.7669 12.1864C26.6223 12.1344 26.4684 12.1126 26.315 12.1223L26.4413 14.1183ZM26.09 14.0684C25.9775 14.0279 25.8745 13.9648 25.7874 13.883L27.1562 12.4249C27.0441 12.3196 26.9116 12.2385 26.7669 12.1864L26.09 14.0684ZM25.7874 13.883C25.7002 13.8012 25.6308 13.7024 25.5833 13.5927L27.4187 12.7983C27.3577 12.6572 27.2683 12.5301 27.1562 12.4249L25.7874 13.883ZM25.5833 13.5927C25.5358 13.4831 25.5113 13.3649 25.5113 13.2453H27.5113C27.5113 13.0915 27.4798 12.9393 27.4187 12.7983L25.5833 13.5927ZM25.5113 13.2453C25.5113 13.1257 25.5358 13.0074 25.5833 12.8978L27.4187 13.6923C27.4798 13.5512 27.5113 13.3991 27.5113 13.2453H25.5113ZM25.5833 12.8978C25.6308 12.7881 25.7002 12.6893 25.7874 12.6075L27.1562 14.0657C27.2683 13.9604 27.3577 13.8333 27.4187 13.6923L25.5833 12.8978ZM25.7874 12.6075C25.8745 12.5257 25.9775 12.4626 26.09 12.4222L26.7669 14.3041C26.9116 14.2521 27.0441 14.1709 27.1562 14.0657L25.7874 12.6075ZM26.09 12.4222C26.2024 12.3817 26.322 12.3647 26.4413 12.3723L26.315 14.3683C26.4685 14.378 26.6223 14.3561 26.7669 14.3041L26.09 12.4222ZM26.3782 12.3703C26.3799 12.3703 26.3731 12.3704 26.341 12.3675C26.3232 12.3659 26.2497 12.3584 26.1922 12.3546C26.0486 12.3451 25.8327 12.3428 25.5812 12.4173C25.0846 12.5645 24.6992 12.9338 24.3393 13.4062L25.93 14.6184C26.0627 14.4442 26.1479 14.3609 26.1909 14.3249C26.2282 14.2938 26.2124 14.3162 26.1495 14.3349C26.0851 14.354 26.038 14.3487 26.0604 14.3502C26.0858 14.3519 26.0945 14.3533 26.16 14.3593C26.2113 14.3639 26.2889 14.3703 26.3782 14.3703V12.3703ZM24.3136 13.4414C23.6082 14.4559 23.1041 15.5305 22.7803 16.4102C22.6179 16.8511 22.4968 17.2542 22.4176 17.5884C22.3493 17.8767 22.2813 18.2352 22.3075 18.5248L24.2993 18.3447C24.3055 18.4133 24.2947 18.341 24.3637 18.0495C24.4219 17.8038 24.5184 17.4779 24.6571 17.1011C24.9353 16.3455 25.3669 15.4299 25.9557 14.5832L24.3136 13.4414ZM22.5803 19.1255C22.4446 18.9834 22.276 18.6886 22.3608 18.3082C22.4388 17.9587 22.6833 17.7609 22.8703 17.6765C23.2771 17.4929 23.7083 17.6558 23.9106 17.9571L22.2502 19.072C22.569 19.5468 23.1732 19.7341 23.6931 19.4994C23.9367 19.3895 24.2228 19.1473 24.3128 18.7437C24.4098 18.3092 24.2238 17.9505 24.0265 17.744L22.5803 19.1255Z" fill="black" mask="url(#path-12-inside-1_1982_65742)"/>
<mask id="path-14-inside-2_1982_65742" fill="white">
<path d="M22.5215 18.7026C22.5215 16.2551 23.4432 13.3573 24.041 12.9623C24.6725 12.5421 25.481 12.8008 26.2332 13.0526C26.467 13.1308 26.3455 13.3526 26.2007 13.3051C24.9285 12.8833 24.1107 12.6843 23.7135 13.9551C23.0947 15.4618 22.7748 17.0743 22.7715 18.7031L22.5215 18.7026Z"/>
</mask>
<path d="M22.5215 18.7026C22.5215 16.2551 23.4432 13.3573 24.041 12.9623C24.6725 12.5421 25.481 12.8008 26.2332 13.0526C26.467 13.1308 26.3455 13.3526 26.2007 13.3051C24.9285 12.8833 24.1107 12.6843 23.7135 13.9551C23.0947 15.4618 22.7748 17.0743 22.7715 18.7031L22.5215 18.7026Z" fill="#4D68A1"/>
<path d="M22.5215 18.7026H21.5215V19.7006L22.5195 19.7026L22.5215 18.7026ZM24.041 12.9623L24.5923 13.7967L24.595 13.7949L24.041 12.9623ZM26.2332 13.0526L26.5507 12.1043L26.5506 12.1043L26.2332 13.0526ZM26.2007 13.3051L25.8861 14.2543L25.8889 14.2552L26.2007 13.3051ZM23.7135 13.9551L24.6385 14.335L24.655 14.2949L24.6679 14.2535L23.7135 13.9551ZM22.7715 18.7031L22.7695 19.7031L23.7695 19.7051L23.7715 18.7051L22.7715 18.7031ZM23.5215 18.7026C23.5215 17.5899 23.7334 16.3465 24.0194 15.3348C24.162 14.8303 24.316 14.408 24.4576 14.1045C24.5287 13.9521 24.5887 13.8469 24.6323 13.7824C24.6867 13.7019 24.6788 13.7395 24.5923 13.7966L23.4897 12.1281C23.2537 12.284 23.0862 12.4985 22.9758 12.6617C22.8547 12.8408 22.7445 13.0459 22.6451 13.259C22.4458 13.6863 22.2574 14.2155 22.0948 14.7908C21.7704 15.9385 21.5215 17.3678 21.5215 18.7026H23.5215ZM24.595 13.7949C24.6464 13.7607 24.7412 13.7214 24.9763 13.7488C25.2314 13.7784 25.5243 13.8699 25.9159 14.0009L26.5506 12.1043C26.1899 11.9836 25.7024 11.8198 25.2074 11.7622C24.6922 11.7023 24.0671 11.7438 23.487 12.1298L24.595 13.7949ZM25.9158 14.0009C25.821 13.9691 25.6337 13.8791 25.4968 13.658C25.3529 13.4254 25.3317 13.1516 25.4078 12.9172C25.5419 12.5041 26.0065 12.1889 26.5125 12.3549L25.8889 14.2552C26.5397 14.4688 27.1374 14.0664 27.31 13.5349C27.4054 13.2412 27.3798 12.9002 27.1974 12.6055C27.0221 12.3223 26.7624 12.1752 26.5507 12.1043L25.9158 14.0009ZM26.5154 12.3559C26.1977 12.2506 25.8647 12.1441 25.5479 12.0738C25.2345 12.0042 24.8685 11.9535 24.4938 12.0046C24.0914 12.0595 23.7034 12.2292 23.3813 12.5534C23.0775 12.8593 22.8868 13.248 22.759 13.6567L24.6679 14.2535C24.7388 14.0269 24.7993 13.9639 24.8003 13.9628C24.8003 13.9628 24.7996 13.9636 24.798 13.9649C24.7964 13.9662 24.7942 13.968 24.7914 13.97C24.7856 13.9742 24.7788 13.9782 24.7717 13.9816C24.7565 13.9889 24.7509 13.988 24.7642 13.9862C24.8026 13.981 24.9044 13.9796 25.1145 14.0263C25.3213 14.0722 25.5676 14.1487 25.8861 14.2543L26.5154 12.3559ZM22.7885 13.5752C22.1204 15.2018 21.775 16.9427 21.7715 18.7011L23.7715 18.7051C23.7745 17.206 24.069 15.7217 24.6385 14.335L22.7885 13.5752ZM22.7735 17.7031L22.5235 17.7026L22.5195 19.7026L22.7695 19.7031L22.7735 17.7031Z" fill="black" mask="url(#path-14-inside-2_1982_65742)"/>
<path d="M22.8361 31.7463C22.8491 31.7524 22.8591 31.7548 22.8825 31.7548C22.9107 31.7549 22.9382 31.7455 22.9604 31.728C22.9825 31.7105 22.9982 31.686 23.0046 31.6586C23.0111 31.6311 23.0081 31.6022 22.9961 31.5767C22.9841 31.5511 22.9638 31.5304 22.9385 31.5178M22.8361 31.7463L22.508 31.6335C22.5077 31.6034 22.511 31.5732 22.518 31.5436L22.8825 31.6297L22.518 31.5436C22.531 31.4886 22.5562 31.4376 22.5913 31.3942C22.6381 31.4068 22.6846 31.4209 22.7306 31.4364C22.7818 31.4537 22.8325 31.4728 22.8825 31.4936C22.8828 31.4938 22.8832 31.4939 22.8835 31.494C22.9019 31.5017 22.9203 31.5097 22.9385 31.5178M22.8361 31.7463L22.8825 31.6428L22.8829 31.6418L22.8864 31.6341L22.8878 31.631L22.8897 31.6266L22.9385 31.5178M22.8361 31.7463L22.8274 31.742L22.8825 31.6308L22.883 31.6298L22.9385 31.5178" fill="#4D68A1" stroke="black"/>
<path d="M31.6754 24.9832C32.0989 24.5832 32.3051 23.6942 31.7239 23.2744C31.6346 23.2099 31.541 23.1514 31.4439 23.0994C31.8614 22.5954 32.0919 21.6892 31.2219 21.5152C30.3769 21.3462 28.8704 21.3562 27.8351 21.9652C27.0371 22.4439 26.9721 23.2917 27.9171 23.6632C27.0529 23.8929 26.1296 24.4404 26.7446 25.0832C26.9209 25.2505 27.1289 25.3809 27.3564 25.4667C27.1886 25.7634 27.2661 26.3219 27.8219 26.7202C28.2336 28.0702 29.5666 28.6264 30.5469 28.3322C30.9119 28.2104 31.6426 27.7154 31.6409 26.9454C32.7631 26.3199 32.3926 25.1432 31.6754 24.9832ZM27.4871 22.9494C27.2681 22.0469 29.5569 21.4379 31.1726 21.7609C31.7941 21.8859 31.5586 22.5567 31.2634 22.9254C30.5561 23.8067 27.7056 23.8534 27.4861 22.9494H27.4871ZM27.1541 25.0857C26.2476 24.5127 27.3061 24.0632 28.3291 23.7869C29.4509 24.0179 30.7219 23.7012 31.2541 23.2844C31.8599 23.5744 31.8594 23.7932 31.8041 24.2114C31.6476 25.6037 28.2294 25.7659 27.1531 25.0857H27.1541ZM30.4691 28.0949C29.6649 28.3367 28.4479 27.8269 28.1374 26.9014C28.9146 27.2502 30.3684 27.4427 31.3821 27.0612C31.3086 27.6799 30.6429 28.0364 30.4691 28.0949ZM31.4599 26.7582C30.4661 27.2172 28.8921 27.0114 28.1349 26.6237C27.4159 26.2342 27.4944 25.6987 27.5881 25.5337C29.0381 25.9337 30.5094 25.7127 31.4226 25.1712C32.2411 25.3164 32.4221 26.2764 31.4599 26.7577V26.7582Z" fill="#313131"/>
<path d="M47.0182 14.5135C47.0476 14.502 47.0803 14.502 47.1097 14.5136C47.1391 14.5252 47.1631 14.5475 47.1767 14.576C47.1903 14.6045 47.1926 14.6371 47.1832 14.6673C47.1737 14.6975 47.1532 14.7229 47.1257 14.7385C44.887 15.8028 41.863 17.282 39.643 18.5885C39.491 18.6783 38.0767 19.5468 37.9822 19.6585C37.8282 19.8085 37.4752 19.7753 37.7862 19.4485C38.2247 18.989 40.218 17.746 47.0182 14.5135Z" fill="#313131"/>
<path d="M40.1424 19.9848C40.1109 19.9846 40.0806 19.9725 40.0575 19.951C40.0344 19.9294 40.0203 19.9 40.0179 19.8686C40.0155 19.837 40.0253 19.8057 40.0452 19.7811C40.065 19.7565 40.0936 19.7404 40.1249 19.7361C40.3499 19.7038 43.7697 18.7661 47.4249 18.0193C47.4565 18.0148 47.4887 18.0226 47.5147 18.0409C47.5408 18.0593 47.5589 18.087 47.5653 18.1183C47.5717 18.1495 47.5659 18.1821 47.5491 18.2092C47.5323 18.2364 47.5058 18.2561 47.4749 18.2643C43.2709 19.1231 40.3367 19.9848 40.1424 19.9848Z" fill="#313131"/>
<path d="M39.7657 21.5245C39.735 21.5239 39.7056 21.5122 39.683 21.4914C39.6605 21.4707 39.6463 21.4423 39.6432 21.4118C39.6401 21.3813 39.6483 21.3507 39.6663 21.3259C39.6843 21.301 39.7107 21.2836 39.7407 21.277C40.3549 21.152 45.9997 21.1695 46.5407 21.1712C48.5779 21.1782 48.6172 21.1277 48.6172 21.3007C48.6172 21.5587 48.4974 21.3412 41.6817 21.4457C39.7647 21.475 39.8039 21.5245 39.7657 21.5245Z" fill="#313131"/>
<path d="M19.374 15.147C19.3565 14.977 19.299 15.029 17.8145 15.1812C17.2597 13.025 17.2987 12.962 17.1255 13.0047C16.9522 13.0475 17.0172 13.0865 17.563 15.207C16.1112 15.357 16.0275 15.3172 16.0447 15.4885C16.062 15.6597 16.138 15.6045 17.626 15.452C17.9105 16.5585 17.8917 16.6662 18.0565 16.6237C18.2212 16.5812 18.1535 16.4987 17.8775 15.4262C19.3542 15.2747 19.391 15.313 19.374 15.147Z" fill="#313131"/>
<path d="M15.8647 30.9592C15.7872 30.8062 15.7647 30.8702 14.4204 31.5515C13.1287 29.7407 13.1407 29.6657 12.9954 29.7687C12.8502 29.8717 12.9237 29.8832 14.1954 31.666C12.8862 32.33 12.7999 32.321 12.8779 32.4742C12.9559 32.6275 12.9757 32.565 14.3422 31.8717C14.9982 32.7912 15.0172 32.894 15.1552 32.7967C15.2932 32.6995 15.2052 32.6522 14.5679 31.7582C15.8712 31.096 15.9419 31.1112 15.8647 30.9592Z" fill="#313131"/>
<path d="M36.5854 26.0081L35.3154 25.3411L36.0134 23.2961C36.0237 23.2648 36.0213 23.2308 36.0067 23.2013C35.9921 23.1718 35.9664 23.1492 35.9352 23.1386C35.9041 23.1279 35.87 23.13 35.8403 23.1443C35.8107 23.1586 35.7879 23.1841 35.7769 23.2151L35.0914 25.2236L33.8414 24.5666C33.8269 24.559 33.811 24.5543 33.7946 24.5528C33.7782 24.5513 33.7618 24.5531 33.7461 24.5579C33.7304 24.5628 33.7158 24.5708 33.7032 24.5813C33.6906 24.5918 33.6802 24.6047 33.6725 24.6192C33.6649 24.6338 33.6602 24.6497 33.6587 24.666C33.6572 24.6824 33.659 24.6989 33.6639 24.7146C33.6688 24.7303 33.6767 24.7448 33.6872 24.7574C33.6977 24.7701 33.7106 24.7805 33.7252 24.7881L35.0107 25.4631L34.6524 26.5131C34.646 26.5319 34.6442 26.552 34.6471 26.5717C34.6499 26.5914 34.6574 26.6101 34.6689 26.6264C34.6804 26.6426 34.6957 26.6558 34.7134 26.6649C34.7311 26.674 34.7507 26.6787 34.7707 26.6786C34.8929 26.6786 34.8639 26.6674 35.2347 25.5809C36.5822 26.2886 36.4847 26.2441 36.5282 26.2441C36.5562 26.2442 36.5834 26.2349 36.6054 26.2175C36.6275 26.2002 36.643 26.1759 36.6494 26.1486C36.6558 26.1214 36.653 26.0929 36.6414 26.0674C36.6298 26.042 36.6101 26.0211 36.5854 26.0081Z" fill="#313131"/>
<path d="M14.9275 48.7679C13.5525 48.2429 12.2525 47.1644 12.6253 45.7664C13.0538 44.1607 15.7765 43.8997 17.2428 44.9809C17.3078 44.9632 17.3728 44.9474 17.4385 44.9337C19.0163 44.0304 21.996 43.9849 22.7305 45.6122C22.9183 44.8384 22.6665 44.0652 21.9018 43.4744C21.873 43.4839 21.8465 43.4927 21.8228 43.5022C21.6012 43.5925 21.3576 43.6138 21.1238 43.5633C20.89 43.5129 20.6768 43.393 20.5123 43.2194C20.1205 42.7344 20.8503 42.4219 21.9448 43.1944C22.8548 42.8694 22.8925 42.0647 23.1448 42.2097C23.1735 42.2263 23.1945 42.2535 23.2033 42.2854C23.2118 42.3175 23.2073 42.3517 23.1908 42.3804C22.9726 42.8152 22.6152 43.1645 22.1755 43.3727C22.5668 43.6763 22.8463 44.1012 22.9702 44.5808C23.0941 45.0604 23.0553 45.5675 22.86 46.0227C23.047 47.0177 22.385 47.8322 21.5403 48.3634C20.7615 51.1349 16.1245 51.3354 14.9275 48.7679ZM15.2775 48.8909C16.5173 50.8984 20.3108 50.8137 21.2113 48.5519C20.4501 48.9297 19.6245 49.1604 18.7778 49.2322C18.255 49.2847 18.5498 49.1557 18.166 49.6794C18.1464 49.7062 18.117 49.7241 18.0842 49.7291C18.0514 49.7342 18.018 49.726 17.9913 49.7064C17.9645 49.6868 17.9466 49.6574 17.9416 49.6247C17.9365 49.5919 17.9447 49.5584 17.9643 49.5317C18.025 49.4489 18.0813 49.3629 18.1325 49.2739C17.1662 49.3069 16.2012 49.1775 15.2778 48.8909H15.2775ZM15.111 48.5634C16.1229 48.915 17.1928 49.0694 18.2628 49.0184C18.4427 48.6101 18.5244 48.1653 18.5013 47.7197C18.3498 47.6669 18.1743 47.8027 17.6693 47.7882C16.2648 47.7467 15.955 46.2752 16.836 45.3867C15.4878 45.9707 14.573 47.2397 15.1113 48.5647L15.111 48.5634ZM18.7538 47.7944C18.7788 49.0597 18.2645 49.0324 18.7538 48.9834C19.656 48.9124 20.5322 48.647 21.3223 48.2054C21.375 47.9844 21.3985 47.7574 21.3923 47.5304C20.5655 47.9052 19.6386 47.9979 18.754 47.7944H18.7538ZM15.1948 44.5612C12.3655 44.5612 11.8198 47.1827 14.804 48.4434C14.364 46.9654 15.465 45.6184 16.9425 45.0767C16.4233 44.7367 15.8154 44.5574 15.1948 44.5612ZM21.636 47.3994C21.6505 47.6044 21.6428 47.8104 21.613 48.0137C22.1363 47.6357 22.6068 47.0952 22.6398 46.4424C22.3853 46.836 22.0414 47.1639 21.6363 47.3994H21.636ZM18.8203 47.5537C19.6788 47.7494 20.578 47.6459 21.3698 47.2607C21.1898 45.8447 19.826 44.3567 18.3043 44.8759C20.0198 45.0177 20.7965 46.6942 18.8198 47.5537H18.8203ZM17.2825 45.3314C16.1118 46.1969 16.4623 47.7512 18.044 47.5154C17.269 47.0799 16.8368 46.2924 17.181 45.5262C17.2908 45.2839 17.3078 45.3519 17.2828 45.3314H17.2825ZM17.473 45.5064C16.8195 46.5834 18.2835 47.4747 18.473 47.4127C18.345 46.6893 17.9957 46.0235 17.4733 45.5072L17.473 45.5064ZM17.6248 45.3052C18.1886 45.8475 18.569 46.5524 18.7128 47.3214C20.6378 46.4864 19.5278 44.9692 17.8233 45.1262C17.7518 45.1799 17.6854 45.24 17.625 45.3059L17.6248 45.3052ZM19.4458 44.5802C20.5408 44.8382 21.424 46.0144 21.6043 47.1249C22.0371 46.8526 22.382 46.461 22.5975 45.9972C22.3053 44.7624 20.7093 44.4544 19.446 44.5807L19.4458 44.5802ZM20.6565 42.9884C20.7689 43.1367 20.9248 43.2461 21.1025 43.3014C21.2801 43.3567 21.4706 43.355 21.6473 43.2967C21.1725 42.9939 20.709 42.9367 20.6568 42.9897L20.6565 42.9884Z" fill="#313131"/>
<path d="M4.33189 26.2696C4.21129 26.2254 4.08574 26.1812 3.95716 26.1359C3.64878 26.0272 3.32301 25.9124 3.00644 25.7774C2.55862 25.5865 2.14244 25.3602 1.83958 25.0668L1.77 25.1386L1.83979 25.067C1.81264 25.0405 1.77857 24.9764 1.74827 24.8562C1.71904 24.7402 1.69677 24.5867 1.682 24.3983C1.65251 24.0219 1.65383 23.5179 1.68347 22.9208C1.74271 21.7275 1.91452 20.1728 2.17298 18.5456C2.43143 16.9185 2.77615 15.2213 3.18063 13.7426C3.5784 12.2885 4.03139 11.0557 4.51185 10.3073C4.53005 10.318 4.55413 10.3347 4.58413 10.3588C4.6727 10.43 4.78696 10.5439 4.90695 10.6738C5.14595 10.9325 5.39459 11.2402 5.4815 11.3561L5.48163 11.3563C7.54307 14.0929 10.4083 16.673 14.8318 18.9072C14.96 18.9862 15.1699 19.0738 15.4047 19.1675C15.4603 19.1897 15.5177 19.2124 15.5763 19.2355C15.7718 19.3128 15.981 19.3955 16.1847 19.4841C16.4498 19.5994 16.6998 19.7224 16.8921 19.8523C17.0825 19.981 17.1966 20.1037 17.2307 20.2158C17.2307 20.3229 17.2302 20.4182 17.2235 20.517C16.8993 22.5399 16.4234 24.8203 15.8717 26.7914L15.8716 26.7914L15.8704 26.7968C15.7824 27.195 15.686 27.3414 15.5696 27.4059C15.5091 27.4394 15.4333 27.4565 15.3282 27.4639C15.2467 27.4697 15.1553 27.4692 15.0465 27.4687C15.0131 27.4685 14.9781 27.4684 14.9412 27.4683L14.939 27.4684C11.405 27.5479 7.57407 27.4424 4.33189 26.2696ZM4.33189 26.2696C4.33198 26.2697 4.33207 26.2697 4.33216 26.2697L4.29775 26.3636L4.33177 26.2696C4.33181 26.2696 4.33185 26.2696 4.33189 26.2696ZM4.45575 10.2101C4.55825 10.0546 5.38375 11.0591 5.5615 11.2961C7.614 14.0209 10.4683 16.5919 14.8807 18.8199C15.0268 18.9109 15.2996 19.0187 15.612 19.1421C16.316 19.4203 17.2213 19.7781 17.3308 20.2021L4.45575 10.2101Z" fill="#4D68A1" stroke="black" stroke-width="0.2"/>
</g>
<defs>
<clipPath id="clip0_1982_65742">
<rect width="50" height="50" fill="white" transform="translate(0.5 0.193848)"/>
</clipPath>
</defs>
</svg>
