<svg width="50" height="50" viewBox="0 0 50 50" fill="none" xmlns="http://www.w3.org/2000/svg">
<path d="M30.9618 23.2091L6.96183 27.7044L6.86133 29.0651L16.5688 40.1131L44.3198 33.1289L44.3691 31.8759L30.9618 23.2091Z" fill="#87E4FF"/>
<path d="M30.9628 23.2091L6.96281 27.7044L5.63506 9.18539C5.61944 8.9671 5.64751 8.74789 5.71762 8.54057C5.78773 8.33326 5.89848 8.14201 6.04339 7.97801C6.1883 7.81402 6.36446 7.68056 6.56156 7.58546C6.75867 7.49036 6.97276 7.43551 7.19131 7.42414L29.0736 6.27564C29.2953 6.26417 29.517 6.29764 29.7255 6.37405C29.9339 6.45046 30.1248 6.56823 30.2866 6.72027C30.4484 6.87232 30.5777 7.0555 30.6669 7.25882C30.7561 7.46213 30.8033 7.68138 30.8056 7.90339L30.9628 23.2091Z" fill="#016DAB"/>
<path d="M36.5436 28.4671L30.4353 24.5186C30.3148 24.4404 30.1686 24.4121 30.0276 24.4398L11.0241 28.2438C10.9716 28.2545 10.9228 28.279 10.883 28.3148C10.8431 28.3507 10.8135 28.3965 10.7973 28.4476C10.7811 28.4987 10.7788 28.5532 10.7907 28.6054C10.8027 28.6577 10.8283 28.7058 10.8651 28.7448L15.5543 33.7541C15.6079 33.8109 15.6755 33.8526 15.7503 33.8751C15.8252 33.8975 15.9045 33.9 15.9806 33.8821L36.4563 28.9771C36.6976 28.9208 36.7496 28.5996 36.5441 28.4668L36.5436 28.4671Z" fill="white"/>
<path d="M33.3107 33.4122L31.2679 31.9107C31.2036 31.8633 31.1296 31.8306 31.0513 31.8148C30.973 31.799 30.8921 31.8005 30.8144 31.8192L25.7064 33.0372C25.6511 33.0503 25.6007 33.0787 25.5609 33.1192C25.5211 33.1597 25.4935 33.2106 25.4815 33.2661C25.4694 33.3216 25.4733 33.3794 25.4927 33.4328C25.5121 33.4862 25.5463 33.5329 25.5912 33.5677L27.6652 35.1717C27.7729 35.256 27.9139 35.2852 28.0474 35.2487L33.2157 33.9137C33.4347 33.86 33.5089 33.5612 33.3107 33.4127V33.4122Z" fill="white"/>
<path d="M8.33393 8.33601C8.14863 8.34547 7.96709 8.39184 7.79996 8.47241C7.63283 8.55298 7.48347 8.66612 7.36066 8.80519C7.23784 8.94426 7.14404 9.10646 7.08475 9.28227C7.02547 9.45808 7.0019 9.64396 7.01543 9.82901L8.20268 26.4085L29.7459 22.3728L29.6037 8.67626C29.5942 7.89376 28.9384 7.25651 28.1359 7.29526L8.33393 8.33601Z" fill="white"/>
<path d="M44.4378 31.7709L31.0868 23.1404L30.9303 7.90166C30.918 6.90766 30.088 6.10041 29.0668 6.15066L7.18452 7.29916C6.94946 7.31163 6.71923 7.37078 6.50728 7.47319C6.29532 7.57559 6.10589 7.71918 5.95003 7.89559C5.79418 8.072 5.67502 8.27768 5.59952 8.50064C5.52401 8.72359 5.49367 8.95935 5.51027 9.19416L6.83727 27.7039C6.72977 29.1597 6.71877 29.0912 6.76802 29.1474C16.5383 40.2632 16.4795 40.2379 16.5695 40.2379L44.351 33.2497C44.3772 33.2431 44.4006 33.2282 44.4176 33.2073C44.4346 33.1863 44.4443 33.1604 44.4453 33.1334L44.4948 31.8802C44.4955 31.8586 44.4907 31.8372 44.4807 31.818C44.4707 31.7989 44.4559 31.7826 44.4378 31.7709ZM30.9365 23.3409L44.0608 31.8249L16.874 38.6967L7.20227 27.7864L30.9365 23.3409ZM5.75952 9.17666C5.74498 8.97491 5.77085 8.77229 5.83562 8.58067C5.90038 8.38905 6.00273 8.21227 6.13667 8.0607C6.27061 7.90913 6.43346 7.78582 6.61566 7.69798C6.79787 7.61014 6.99577 7.55955 7.19777 7.54916C9.82402 7.41066 29.129 6.39891 29.1538 6.39891C29.5554 6.39764 29.9413 6.55521 30.2273 6.83728C30.5132 7.11934 30.6761 7.50302 30.6803 7.90466L30.8365 23.1054L7.07727 27.5557L5.75952 9.17666ZM7.06552 28.0089L16.6963 38.8729L16.4978 39.8419L6.99077 29.0219L7.06552 28.0089ZM44.1995 33.0304L16.732 39.9434L16.938 38.9387L44.2388 32.0382L44.1995 33.0304Z" fill="#414141"/>
<path d="M35.1428 27.4709C35.1357 27.4386 35.1161 27.4104 35.0882 27.3925C35.0603 27.3747 35.0265 27.3686 34.9941 27.3757L32.6356 27.8929L30.4263 26.3197L32.2786 25.9137C32.2946 25.9102 32.3098 25.9035 32.3233 25.8941C32.3368 25.8848 32.3483 25.8728 32.3571 25.859C32.366 25.8452 32.372 25.8297 32.3749 25.8136C32.3778 25.7974 32.3775 25.7808 32.374 25.7648C32.3705 25.7488 32.3638 25.7336 32.3544 25.7201C32.3451 25.7066 32.3331 25.6951 32.3193 25.6863C32.3055 25.6774 32.29 25.6714 32.2739 25.6685C32.2577 25.6656 32.2411 25.6659 32.2251 25.6694L30.1516 26.1239L28.2551 24.7734C28.2417 24.7639 28.2266 24.7571 28.2106 24.7534C28.1947 24.7497 28.1781 24.7493 28.1619 24.752C28.1457 24.7547 28.1302 24.7606 28.1163 24.7693C28.1024 24.778 28.0904 24.7893 28.0808 24.8027C28.0713 24.816 28.0645 24.8311 28.0609 24.8471C28.0572 24.8631 28.0567 24.8797 28.0594 24.8959C28.0621 24.912 28.068 24.9275 28.0767 24.9414C28.0854 24.9554 28.0967 24.9674 28.1101 24.9769L29.8221 26.1962L27.3371 26.7409L25.6316 25.3507C25.6057 25.3321 25.5737 25.3242 25.5421 25.3284C25.5105 25.3326 25.4818 25.3487 25.4616 25.3734C25.4415 25.3981 25.4315 25.4295 25.4337 25.4613C25.436 25.4931 25.4502 25.5228 25.4736 25.5444L27.0251 26.8094L24.3733 27.3907L22.8081 25.9394C22.7837 25.9176 22.7517 25.9062 22.7189 25.9077C22.6862 25.9092 22.6554 25.9235 22.6331 25.9475C22.6108 25.9716 22.5988 26.0034 22.5998 26.0361C22.6007 26.0689 22.6145 26.1 22.6381 26.1227L24.0758 27.4559L21.3001 28.0647L19.7256 26.5109C19.702 26.4876 19.6702 26.4746 19.637 26.4747C19.6038 26.4749 19.5721 26.4882 19.5487 26.5118C19.5254 26.5354 19.5124 26.5673 19.5125 26.6004C19.5127 26.6336 19.526 26.6653 19.5496 26.6887L21.0086 28.1284L18.2538 28.7324L16.7438 27.1234C16.7211 27.0993 16.6898 27.0851 16.6566 27.0841C16.6235 27.083 16.5913 27.0952 16.5671 27.1179C16.5429 27.1406 16.5288 27.172 16.5277 27.2052C16.5267 27.2383 16.5389 27.2705 16.5616 27.2947L17.9696 28.7949L14.9661 29.4534L13.3968 27.7819C13.3741 27.7578 13.3428 27.7436 13.3096 27.7426C13.2765 27.7415 13.2443 27.7537 13.2201 27.7764C13.1959 27.7991 13.1818 27.8305 13.1807 27.8637C13.1797 27.8968 13.1919 27.929 13.2146 27.9532L14.6818 29.5159L12.3043 30.0372C12.2878 30.0401 12.272 30.0464 12.2578 30.0556C12.2437 30.0648 12.2317 30.0767 12.2223 30.0907C12.2129 30.1047 12.2065 30.1205 12.2033 30.137C12.2002 30.1536 12.2005 30.1706 12.2041 30.187C12.2077 30.2035 12.2146 30.219 12.2243 30.2328C12.2341 30.2465 12.2465 30.2581 12.2609 30.2669C12.2753 30.2757 12.2913 30.2815 12.3079 30.2839C12.3246 30.2864 12.3416 30.2854 12.3578 30.2812L14.8811 29.7279L16.4838 31.4352L14.0361 31.9719C13.8746 32.0077 13.9278 32.2512 14.0896 32.2162L16.6831 31.6474L18.3288 33.4004C18.4368 33.5084 18.6156 33.3417 18.4973 33.2154L16.9668 31.5852L19.9696 30.9267L21.5301 32.5894C21.5528 32.6136 21.5842 32.6278 21.6173 32.6288C21.6505 32.6298 21.6827 32.6176 21.7068 32.5949C21.731 32.5722 21.7452 32.5408 21.7462 32.5077C21.7472 32.4745 21.7351 32.4424 21.7123 32.4182L20.2541 30.8644L23.1393 30.2317L24.7886 31.8589C24.8998 31.7474 24.8623 31.7912 24.9501 31.6667L23.4308 30.1677L26.3171 29.5347C28.1158 31.2024 27.9823 31.0979 28.0521 31.0979C28.0772 31.0978 28.1017 31.0902 28.1224 31.076C28.1431 31.0618 28.159 31.0418 28.1682 31.0184C28.1773 30.9951 28.1793 30.9695 28.1737 30.945C28.1682 30.9206 28.1554 30.8983 28.1371 30.8812L26.6146 29.4694L29.5088 28.8347C31.4078 30.3827 31.2673 30.2839 31.3311 30.2839C31.3569 30.284 31.3821 30.276 31.4033 30.2611C31.4244 30.2462 31.4404 30.2252 31.449 30.2008C31.4577 30.1765 31.4586 30.1501 31.4516 30.1252C31.4447 30.1003 31.4301 30.0782 31.4101 30.0619L29.8206 28.7662L32.5803 28.1609C34.6716 29.6502 34.5041 29.5432 34.5611 29.5432C34.6826 29.5432 34.7326 29.3867 34.6339 29.3164L32.9098 28.0887L35.0468 27.6199C35.0629 27.6164 35.0781 27.6098 35.0915 27.6004C35.105 27.591 35.1165 27.579 35.1254 27.5652C35.1342 27.5513 35.1402 27.5359 35.1431 27.5197C35.146 27.5035 35.1456 27.487 35.1421 27.4709H35.1428ZM16.7688 31.3724L15.1661 29.6652L18.1696 29.0067L19.7718 30.7139L16.7688 31.3724ZM20.0561 30.6514L18.4538 28.9444L21.2216 28.3377L22.9283 30.0217L20.0561 30.6514ZM23.2196 29.9577L21.5128 28.2737L24.2996 27.6627L26.0946 29.3272L23.2196 29.9577ZM26.3921 29.2619L24.5971 27.5974L27.2731 27.0107L29.2623 28.6324L26.3921 29.2619ZM29.5741 28.5639L27.5848 26.9422L30.0971 26.3914L32.3064 27.9647L29.5741 28.5639Z" fill="#414141"/>
<path d="M28.9404 38.3574C28.0899 38.8291 26.1514 40.0619 25.4126 40.7001C23.5361 39.5936 22.3256 37.7521 20.5296 36.5741C19.2784 35.7551 17.2429 35.0614 17.3164 34.7214C17.3649 34.4966 18.1026 34.6306 18.2271 34.6501C18.9599 34.7641 19.6809 35.0089 20.3706 35.2811C20.5004 35.3324 20.9466 35.6139 21.0911 35.5664C21.1916 35.5334 20.9284 35.4309 20.8406 35.3726C19.3909 34.4091 17.5794 33.7531 17.8156 33.5401C18.0349 33.3424 18.6806 33.5401 18.9129 33.5896C19.7029 33.7576 20.4564 34.0524 21.1899 34.3851C21.4989 34.5241 21.9821 34.9014 22.3201 34.9356C22.3944 34.9431 22.0336 34.6896 21.9726 34.6466C20.9251 33.9076 20.2424 33.6824 19.1214 33.1634C19.0166 33.1149 18.5531 32.9549 18.5856 32.7774C18.6304 32.5324 19.2879 32.6086 19.4341 32.6219C20.3689 32.7066 21.2739 33.1211 22.0989 33.5436C23.1606 34.0836 23.2609 34.2226 23.2859 34.1891C23.3244 34.1306 22.7294 33.7091 22.6934 33.6844C22.0236 33.2251 21.3591 32.7704 20.6159 32.4354C20.5629 32.4114 19.6946 32.0481 19.7929 31.9599C19.9489 31.8199 20.4056 31.9431 20.5756 31.9746C21.2964 32.1074 21.9966 32.3679 22.6569 32.6806C25.0471 33.8076 28.4031 37.1501 28.9409 38.3574H28.9404Z" fill="white"/>
<path d="M40.2524 43.4932C40.0394 43.1469 30.2789 38.2592 29.3752 38.0459C29.3262 38.0339 29.2812 38.0337 29.0152 38.1749C27.7417 36.2897 24.9437 33.6207 22.7102 32.5677C21.8097 32.1409 21.2149 31.9792 20.5139 31.8347C20.1977 31.7697 19.8757 31.7162 19.7097 31.8667C19.6925 31.8842 19.6794 31.9052 19.6711 31.9283C19.6629 31.9514 19.6597 31.976 19.6619 32.0004C19.7084 32.2894 20.5644 32.4109 21.9822 33.3442C21.1649 32.9342 20.3217 32.5784 19.4159 32.4947C19.1489 32.4699 18.5244 32.4114 18.4629 32.7547C18.4167 33.0047 18.7849 33.1579 19.0049 33.2494C19.0337 33.2614 20.3052 33.8152 20.8267 34.0887C20.1164 33.7867 19.5217 33.5914 18.9392 33.4674C18.5917 33.3932 17.9992 33.2074 17.7322 33.4474C17.7098 33.4671 17.6926 33.4919 17.6822 33.5198C17.6718 33.5477 17.6684 33.5777 17.6724 33.6072C17.7124 33.9094 18.4619 34.1422 19.9887 35.0012C19.4562 34.8049 18.8587 34.6184 18.2272 34.5237C17.7789 34.4494 17.2564 34.4019 17.1947 34.6947C17.1349 34.9647 17.6034 35.1849 17.9157 35.3474C18.7672 35.7904 19.6684 36.1599 20.4614 36.6789C22.1872 37.8107 23.4002 39.6004 25.2052 40.7204C25.0577 40.8624 25.0197 40.9357 25.0047 40.9874C24.8957 41.3427 28.3524 45.4497 31.2714 48.8324C31.2903 48.8543 31.3162 48.8689 31.3447 48.8739C31.3732 48.8788 31.4025 48.8737 31.4277 48.8594C40.7734 43.5679 40.3299 43.6179 40.2527 43.4932H40.2524ZM20.5982 36.4697C19.5199 35.7639 17.7702 35.0994 17.4342 34.7569C17.4382 34.7529 17.5347 34.6627 18.2087 34.7739C18.9722 34.8882 19.7067 35.1532 20.3247 35.3977C20.4702 35.4549 20.9162 35.7557 21.1299 35.6854C21.2234 35.6547 21.2364 35.5799 21.2382 35.5577C21.2507 35.4039 21.0242 35.3447 20.9097 35.2687C19.7969 34.5314 18.2219 33.8509 17.9522 33.6024C18.1702 33.5199 18.7104 33.6744 18.8869 33.7119C19.5607 33.8554 20.2552 34.0982 21.1387 34.4992C21.4344 34.6322 22.3232 35.2832 22.4479 34.9804C22.4879 34.8827 22.4074 34.8197 22.3299 34.7579C20.9067 33.6242 18.7989 32.9872 18.7087 32.7997C18.7087 32.7997 18.7477 32.6837 19.3924 32.7439C20.5769 32.8544 21.8647 33.5239 22.9852 34.1699C23.2134 34.3112 23.3074 34.3692 23.3904 34.2582C23.4091 34.2267 23.4159 34.1895 23.4097 34.1534C23.3754 33.9892 22.7667 33.5837 22.7667 33.5837C21.1489 32.4154 20.5724 32.3274 20.0307 32.0194C20.1902 32.0199 20.3977 32.0679 20.5529 32.0979C21.1944 32.2224 21.8662 32.4447 22.6037 32.7939C24.7597 33.8102 27.5564 36.4744 28.7952 38.2959C27.8919 38.8067 26.1419 39.9312 25.4007 40.5472C23.5912 39.4499 22.3752 37.6352 20.5987 36.4697H20.5982Z" fill="#414141"/>
<path d="M34.0922 16.5863C34.1522 14.8183 34.0187 13.0771 33.8514 11.3291C33.7679 10.4436 33.7779 9.51108 33.5707 8.64533C33.4772 8.25658 33.2859 8.15083 32.9412 7.94833C31.4599 7.07883 25.3964 3.51883 22.8292 1.95758C22.0592 1.43972 21.138 1.19457 20.2124 1.26122C19.2869 1.32787 18.4103 1.70249 17.7224 2.32533C7.87695 13.2513 7.74194 13.3223 7.76294 13.5618C7.80294 14.0866 8.22094 15.4701 8.33119 15.8043C9.35419 18.9298 9.3582 19.5571 9.9087 21.6598C10.4879 23.9586 10.9457 23.5766 14.3604 22.9966C17.5822 22.4518 28.6814 20.6806 30.9977 20.2728C34.5172 19.6521 33.9717 19.8183 34.0924 16.5863H34.0922Z" fill="#FDAF31"/>
<path d="M34.2371 17.2164C34.1661 15.9757 34.3776 15.5149 33.9763 11.3177C33.8936 10.4377 33.9028 9.49342 33.6928 8.61642C33.6241 8.33092 33.4833 8.13417 33.2738 8.03142C33.0783 7.91592 25.6366 3.51892 22.8946 1.85142C19.9111 0.0334172 17.6573 2.21492 17.6298 2.24217L7.78706 13.2007C7.67731 13.3004 7.62606 13.4287 7.63856 13.5714C7.68181 14.1362 8.13156 15.5982 8.21256 15.8434C8.76731 17.5382 8.91131 18.0002 9.83231 21.8757C9.93131 22.2944 10.0548 22.8157 10.3918 23.1652C11.1951 23.9702 13.1973 23.3209 14.3813 23.1199C15.9673 22.8517 31.3496 20.3447 31.5396 20.3184C33.9151 19.9922 34.3768 19.6672 34.2368 17.2162L34.2371 17.2164ZM17.8108 2.41442C17.8321 2.39367 19.9461 0.347417 22.7646 2.06492C25.1246 3.50017 30.9621 6.95517 32.6723 7.96642C31.8683 8.08892 30.8321 8.83567 30.2893 9.15617C23.5486 13.1094 22.6153 13.8877 21.1718 14.1952C20.1181 14.4237 18.9466 14.1064 17.9141 13.9629C12.6213 13.2277 13.6323 13.2857 10.4426 12.9892C9.64606 12.9157 8.86406 12.8699 8.32781 12.9727L17.8108 2.41442ZM10.0298 21.6282C9.47881 19.5244 9.47556 18.8964 8.45006 15.7654C8.33731 15.4234 7.92656 14.0559 7.88781 13.5509C7.83881 12.9974 9.87156 13.1877 10.4196 13.2382C13.6228 13.5374 13.2961 13.5582 17.0616 14.0942C12.1663 20.8922 12.6793 20.1099 10.7033 23.1027C10.2651 22.7897 10.1598 22.1467 10.0296 21.6284L10.0298 21.6282ZM31.5058 20.0709L13.7053 23.0009C12.8481 23.1834 11.5971 23.4497 10.9281 23.2162C12.9491 20.1569 12.3796 21.0252 17.3403 14.1349C17.4466 14.1507 17.8801 14.2104 17.8801 14.2104C18.8931 14.3459 20.1206 14.6784 21.2246 14.4394C22.4658 14.1749 23.6651 13.3764 24.8878 12.6572C28.2963 15.0307 30.9478 17.0072 33.5691 19.4704C33.1316 19.8477 32.2318 19.9712 31.5058 20.0709ZM33.7338 19.2822C31.1281 16.8344 28.4951 14.8669 25.1256 12.5182C26.0373 11.9849 30.6366 9.23692 30.7711 9.15192C31.7458 8.53592 33.1991 7.63117 33.4498 8.67492C33.6536 9.52592 33.6448 10.4624 33.7278 11.3417C33.9131 13.2792 34.0248 14.9119 33.9678 16.5822C33.9421 17.2717 34.1981 18.5942 33.7341 19.2824L33.7338 19.2822Z" fill="#414141"/>
<path d="M32.0494 11.0117C33.9449 11.0117 35.4817 9.47497 35.4817 7.57947C35.4817 5.68397 33.9449 4.14722 32.0494 4.14722C30.1539 4.14722 28.6172 5.68397 28.6172 7.57947C28.6172 9.47497 30.1539 11.0117 32.0494 11.0117Z" fill="#87E4FF"/>
<path d="M32.0501 9.44302C31.3546 9.44302 30.7891 8.60727 30.7891 7.57977C30.7891 6.55227 31.3548 5.71252 32.0501 5.71252C32.7573 5.71252 33.3111 6.53277 33.3111 7.57977C33.3111 8.62677 32.7571 9.44302 32.0501 9.44302ZM32.0501 6.08752C31.5698 6.08752 31.1641 6.77102 31.1641 7.57977C31.1641 8.38852 31.5698 9.06802 32.0501 9.06802C32.5303 9.06802 32.9361 8.38652 32.9361 7.57977C32.9361 6.77302 32.5303 6.08752 32.0501 6.08752Z" fill="#414141"/>
<path d="M38.2949 13.4657C38.2703 13.4657 38.2462 13.4585 38.2257 13.4448C38.2052 13.4312 38.1892 13.4118 38.1797 13.3891C38.1701 13.3664 38.1675 13.3414 38.1721 13.3173C38.1768 13.2931 38.1884 13.2708 38.2057 13.2532C38.7909 12.6562 40.6889 10.5837 41.0067 10.3125C41.0191 10.3018 41.0336 10.2937 41.0492 10.2887C41.0648 10.2836 41.0813 10.2817 41.0977 10.283C41.114 10.2843 41.13 10.2888 41.1446 10.2963C41.1592 10.3037 41.1723 10.314 41.1829 10.3265C41.1936 10.339 41.2016 10.3534 41.2067 10.3691C41.2118 10.3847 41.2137 10.4011 41.2124 10.4175C41.2111 10.4339 41.2066 10.4498 41.1991 10.4645C41.1917 10.4791 41.1814 10.4921 41.1689 10.5027C40.8534 10.772 39.0069 12.7927 38.3839 13.4282C38.3723 13.4401 38.3584 13.4496 38.3431 13.456C38.3277 13.4624 38.3113 13.4657 38.2947 13.4657H38.2949Z" fill="#87E4FF"/>
<path d="M38.904 15.0134C40.6883 14.1784 42.5243 13.4951 44.3135 12.6949C44.3285 12.6882 44.3447 12.6845 44.3611 12.684C44.3775 12.6835 44.3939 12.6863 44.4092 12.6922C44.4246 12.698 44.4386 12.7068 44.4505 12.7181C44.4625 12.7294 44.4721 12.7429 44.4788 12.7579C44.4855 12.7729 44.4892 12.789 44.4897 12.8055C44.4901 12.8219 44.4874 12.8382 44.4815 12.8536C44.4757 12.8689 44.4668 12.8829 44.4556 12.8949C44.4443 12.9068 44.4308 12.9164 44.4158 12.9231C42.6313 13.7211 40.78 14.4114 39.01 15.2396C38.8595 15.3101 38.7555 15.0829 38.904 15.0131V15.0134Z" fill="#87E4FF"/>
<path d="M39.365 17.1087C39.3486 17.1079 39.3325 17.1039 39.3177 17.0969C39.3028 17.0899 39.2895 17.08 39.2785 17.0678C39.2675 17.0557 39.2589 17.0415 39.2534 17.026C39.2479 17.0105 39.2454 16.9941 39.2462 16.9777C39.2484 16.9448 39.2633 16.914 39.2878 16.8919C39.3122 16.8697 39.3443 16.8579 39.3772 16.859C40.084 16.8935 42.4435 16.8972 43.1255 16.856C43.1421 16.8547 43.1587 16.8567 43.1745 16.8618C43.1903 16.867 43.2049 16.8753 43.2175 16.8862C43.23 16.8971 43.2403 16.9104 43.2476 16.9254C43.255 16.9403 43.2593 16.9565 43.2603 16.9731C43.2613 16.9897 43.2589 17.0063 43.2534 17.022C43.2479 17.0377 43.2393 17.0521 43.2282 17.0644C43.217 17.0768 43.2035 17.0868 43.1885 17.0938C43.1734 17.1008 43.1571 17.1048 43.1405 17.1055C42.4492 17.1475 40.0737 17.1432 39.365 17.1087Z" fill="#87E4FF"/>
</svg>
