<svg width="50" height="50" viewBox="0 0 50 50" fill="none" xmlns="http://www.w3.org/2000/svg">
<path d="M43.0808 44.3976C43.1058 44.3501 45.1983 43.8276 46.0808 42.8751C46.0808 42.8751 47.2458 43.7801 47.4133 44.2301C47.4133 44.2301 41.3958 48.0126 41.0858 47.6801C40.9183 47.5376 41.5833 46.5626 43.0808 44.3976Z" fill="white"/>
<path d="M29.121 46.3726C29.121 46.3726 30.216 46.7526 32.711 46.3951C32.7875 46.9467 32.8035 47.505 32.7585 48.0601C32.7585 48.0601 26.071 48.4501 25.7485 48.2501C25.426 48.0501 29.121 46.3726 29.121 46.3726Z" fill="white"/>
<path d="M31.1909 5.53511C31.1909 5.53511 31.7834 9.24511 31.8784 9.78511C31.9734 10.3251 32.8309 12.3301 34.7334 11.9026L34.8759 12.9251C34.8759 12.9251 29.3109 13.3301 29.2159 13.3301C29.1209 13.3301 25.8159 15.3976 25.6484 15.5651L26.7659 22.0826C26.7659 22.0826 26.6484 21.9151 26.3384 22.0351C26.0284 22.1551 25.4109 23.2501 26.6484 23.3251C26.6484 23.3251 26.7659 24.6101 27.4559 24.6101C27.4559 24.6101 27.8834 24.8601 28.1684 24.5626C28.2601 24.6157 28.369 24.6304 28.4714 24.6038C28.5739 24.5771 28.6618 24.5111 28.7159 24.4201C28.7159 24.4201 29.1434 24.8476 29.2884 23.8251H30.9034L30.9984 26.2976C30.9984 26.2976 36.1134 28.2976 41.3459 26.9176C41.3459 26.9176 41.0959 24.1676 41.0134 23.6676C41.0134 23.6676 45.4284 22.5526 44.5334 18.6026C43.5509 14.2751 38.8959 12.8526 36.9684 12.8951L36.4684 11.3951C37.1404 10.6168 37.4971 9.61544 37.4684 8.58761C37.4684 8.58761 39.3609 8.46011 38.7184 7.25511C38.3909 6.65761 37.2909 7.16011 37.2909 7.16011C36.781 6.97831 36.3246 6.67203 35.9631 6.26906C35.6016 5.86609 35.3465 5.3792 35.2209 4.85261C35.1609 4.79761 33.0684 5.82261 31.1909 5.53511Z" fill="white"/>
<path d="M33.3317 8.5325C33.1417 8.51 32.6892 8.2 32.7117 8.01C32.7117 7.915 33.2117 7.5575 33.2367 7.5325C33.2377 7.14301 33.2135 6.75387 33.1642 6.3675C33.1642 6.32 33.1892 6.25 33.2592 6.25C33.3292 6.25 33.3792 6.2725 33.3792 6.345C33.5217 7.5325 33.4492 7.63 33.4017 7.6775C33.3542 7.725 32.9742 8.01 32.9267 8.0575C33.0441 8.18573 33.1908 8.28354 33.3542 8.3425C33.4817 8.405 33.4392 8.5325 33.3317 8.5325Z" fill="#414141"/>
<path d="M33.1887 9.36499C33.0416 9.31891 32.9043 9.24601 32.7837 9.14999C32.7362 9.10249 32.7362 9.03249 32.7837 9.00749C32.8312 8.98249 32.9037 8.95999 32.9262 9.00749C32.9487 9.05499 33.3537 9.45999 34.1162 8.98499C34.1637 8.95999 34.2337 8.95999 34.2587 9.00749C34.2837 9.05499 34.2812 9.12749 34.2337 9.14999C34.0898 9.26758 33.9196 9.34856 33.7376 9.386C33.5556 9.42345 33.3673 9.41624 33.1887 9.36499Z" fill="#414141"/>
<path d="M31.689 6.34499C31.6762 6.34659 31.6632 6.34516 31.651 6.34082C31.6389 6.33648 31.6279 6.32934 31.619 6.31999C31.6081 6.31158 31.5993 6.30079 31.5932 6.28843C31.5871 6.27608 31.584 6.2625 31.584 6.24874C31.584 6.23498 31.5871 6.2214 31.5932 6.20905C31.5993 6.19669 31.6081 6.1859 31.619 6.17749C31.6415 6.15499 31.999 5.77249 32.7115 6.05999C32.7356 6.07372 32.7537 6.09585 32.7625 6.12215C32.7713 6.14845 32.77 6.17706 32.759 6.20249C32.7449 6.22617 32.7227 6.244 32.6966 6.25272C32.6704 6.26144 32.642 6.26047 32.6165 6.24999C32.0465 6.01249 31.7615 6.29749 31.7615 6.29749C31.749 6.34499 31.714 6.34499 31.689 6.34499Z" fill="#414141"/>
<path d="M37.6363 7.91496C37.6113 7.91496 37.5638 7.88996 37.5638 7.86746C37.5541 7.85726 37.547 7.84493 37.5429 7.83147C37.5388 7.818 37.538 7.80377 37.5404 7.78991C37.5428 7.77605 37.5485 7.76296 37.5569 7.75168C37.5653 7.7404 37.5762 7.73125 37.5888 7.72496C37.6999 7.63174 37.8186 7.54811 37.9438 7.47496C37.9563 7.46872 37.9699 7.465 37.9838 7.46401C37.9977 7.46302 38.0117 7.46478 38.0249 7.4692C38.0381 7.47361 38.0504 7.48058 38.0609 7.48972C38.0715 7.49886 38.0801 7.50998 38.0863 7.52246C38.0926 7.53493 38.0963 7.54852 38.0973 7.56243C38.0983 7.57634 38.0965 7.59031 38.0921 7.60355C38.0877 7.61678 38.0807 7.62901 38.0716 7.63955C38.0624 7.65009 38.0513 7.65872 38.0388 7.66496C37.9217 7.73492 37.8105 7.81435 37.7063 7.90246C37.6838 7.88996 37.6588 7.91496 37.6363 7.91496Z" fill="#414141"/>
<path d="M34.3759 15.215L32.2484 17.855C32.2064 17.8113 32.1522 17.7814 32.0929 17.7689C32.0337 17.7564 31.972 17.762 31.9159 17.785C31.6984 17.8975 31.7484 18.14 31.8209 18.38L31.4984 18.75C30.1984 17.9675 29.6834 17.6475 29.4984 17.68C29.2134 17.7275 29.3559 18.0825 29.4284 18.18C28.9034 18.0375 28.8559 18.4675 29.1784 18.8225L25.6484 15.645L34.3759 15.215Z" fill="#FDAF31"/>
<path d="M29.288 23.7775C29.073 22.5275 28.763 23.0275 28.693 23.1125C28.6516 22.9016 28.5862 22.6961 28.498 22.5L30.098 20.5C30.538 20.94 32.198 21.3675 32.7855 21.4525C32.7433 21.5839 32.7115 21.7185 32.6905 21.855C32.6905 21.9025 32.6905 21.95 32.738 21.975C33.9079 22.5762 35.1285 23.0731 36.3855 23.46C36.7655 23.46 34.833 23.5 29.288 23.7775Z" fill="#FDAF31"/>
<path d="M46.2697 42.875C42.2972 39.2375 41.0572 34.98 41.3947 29.875C41.4872 28.45 41.4647 27.45 41.4647 27.14C41.4647 27.0225 41.3222 25.0725 41.1097 23.6675C41.896 23.4633 42.627 23.0867 43.2497 22.565C45.9797 20.295 44.5722 16.535 41.6547 14.335C43.7497 14.24 44.8872 12.0525 44.6047 10.1975C44.2197 7.67749 41.3397 7.03749 40.0397 4.79749C39.0597 3.11249 38.1122 1.75499 34.9497 1.29749C31.7872 0.839993 28.6222 3.41499 30.1447 5.07999C30.408 5.34855 30.7361 5.54484 31.0972 5.64999C31.1922 6.50499 31.5722 9.52499 32.0247 10.455C32.4047 11.2375 32.9747 12.0725 34.2122 12.0725C34.3551 12.0759 34.4981 12.0676 34.6397 12.0475C34.6647 12.215 34.7347 12.6425 34.7822 12.9025C28.6347 13.325 29.2597 13.2625 29.1222 13.3325C25.3022 15.665 25.5897 15.485 25.5547 15.52C25.5547 15.6025 25.7447 16.7925 26.6497 21.8925C26.3147 21.75 25.8022 22.275 25.7922 22.725C25.7922 23.225 26.3147 23.3925 26.5772 23.415C26.5772 23.44 26.6497 24.7 27.4822 24.6525C27.5282 24.6973 27.5828 24.7323 27.6427 24.7555C27.7026 24.7787 27.7665 24.7895 27.8307 24.7874C27.8949 24.7853 27.958 24.7703 28.0162 24.7433C28.0745 24.7162 28.1267 24.6777 28.1697 24.63C28.2623 24.6727 28.3651 24.6886 28.4663 24.6757C28.5675 24.6629 28.6631 24.622 28.7422 24.5575C29.1922 24.7475 29.3372 24.2475 29.3122 23.9875L30.7622 23.915C30.7622 24.0825 30.8572 26.1025 30.8572 26.1025C28.7422 34.95 28.8847 45.5575 28.9072 46.39C28.5749 46.5067 28.2494 46.6419 27.9322 46.795L27.5522 46.415C27.5047 46.3675 27.4347 46.3675 27.4097 46.415C27.3847 46.4625 27.3622 46.5325 27.4097 46.5575L27.7197 46.865C27.5997 46.9125 27.4822 46.985 27.3847 47.0325L27.1347 46.77C27.0197 46.655 26.8847 46.865 26.9922 46.9125L27.2072 47.1275C27.1347 47.1525 25.5422 47.985 25.6372 48.2225C25.641 48.2429 25.6495 48.2621 25.6621 48.2786C25.6747 48.2951 25.691 48.3084 25.7097 48.3175C26.0897 48.435 32.7472 48.1975 32.8447 48.15C32.9422 48.1025 32.9597 48.08 32.8922 46.485C32.6422 40.92 34.5547 34.8075 35.0797 33.285C34.6272 31.645 34.2222 29.9575 34.1272 29.6C33.4622 29.4325 32.2722 28.98 32.2247 28.9575C32.201 28.9434 32.1832 28.9212 32.1745 28.8951C32.1657 28.8689 32.1667 28.8405 32.1772 28.815C32.1909 28.7909 32.2131 28.7727 32.2394 28.764C32.2656 28.7552 32.2943 28.7565 32.3197 28.7675C32.9479 29.0222 33.5917 29.2368 34.2472 29.41C34.2654 29.4112 34.2825 29.4189 34.2954 29.4318C34.3083 29.4447 34.316 29.4618 34.3172 29.48C34.3172 29.505 36.8172 41.3725 42.9747 44.465L42.3097 45.32L41.8822 45.105C41.8569 45.0942 41.8285 45.0935 41.8027 45.1031C41.777 45.1126 41.7558 45.1317 41.7437 45.1563C41.7315 45.181 41.7292 45.2093 41.7373 45.2356C41.7454 45.2618 41.7633 45.284 41.7872 45.2975L42.1672 45.4875C42.0947 45.5825 42.0247 45.7 41.9522 45.795L41.5947 45.63C41.5693 45.619 41.5406 45.6177 41.5143 45.6265C41.4881 45.6352 41.4659 45.6534 41.4522 45.6775C41.4417 45.703 41.4407 45.7314 41.4495 45.7576C41.4582 45.7837 41.476 45.8059 41.4997 45.82L41.8097 45.9625C41.3097 46.675 40.8822 47.365 40.9072 47.6025C40.9072 47.675 40.9547 47.7225 41.0722 47.745C41.7497 47.745 45.7722 45.325 46.4722 44.8925C47.3972 44.3175 47.3997 44.25 47.4222 44.2025C47.4997 44.065 47.1022 43.6125 46.2697 42.875ZM26.5547 23.2075C26.4347 23.2075 25.9822 23.135 25.9822 22.755C25.9822 22.255 26.5547 21.97 26.5297 22.1375C26.4622 22.565 26.3872 22.6825 26.5547 22.8025V23.2075ZM43.1297 22.3975C41.1297 24.04 38.4447 23.8 36.5422 23.3025C35.272 22.9534 34.0439 22.4663 32.8797 21.85C33.0472 21.02 33.7847 19.7825 33.8072 19.71C35.0891 20.1763 36.4528 20.3761 37.8146 20.297C39.1765 20.2179 40.5078 19.8616 41.7272 19.25C41.7511 19.2354 41.769 19.2128 41.7777 19.1863C41.7864 19.1597 41.7853 19.1309 41.7747 19.105C41.7606 19.0813 41.7384 19.0635 41.7123 19.0548C41.6861 19.046 41.6577 19.047 41.6322 19.0575C41.3163 19.2206 40.9907 19.3642 40.6572 19.4875C40.5847 18.44 40.4672 17.56 40.4672 17.5375C40.4672 17.515 40.3947 17.4425 40.3472 17.4425C40.2997 17.4425 40.2522 17.5125 40.2522 17.56C40.2522 17.56 40.3722 18.4875 40.4422 19.56C39.7791 19.7896 39.0936 19.9489 38.3972 20.035L36.9472 12.925C42.2122 12.85 46.9347 19.2675 43.1297 22.3975ZM31.0722 20.25C30.6889 20.1087 30.3155 19.9416 29.9547 19.75C29.2847 19.33 29.5497 19.2025 29.5747 19.18C30.0221 19.4845 30.5102 19.7244 31.0247 19.8925C31.0722 19.8925 31.1197 19.87 31.1197 19.8225C31.1256 19.8086 31.1284 19.7937 31.128 19.7786C31.1275 19.7636 31.1239 19.7488 31.1172 19.7353C31.1106 19.7217 31.1011 19.7098 31.0895 19.7003C31.0778 19.6907 31.0643 19.6838 31.0497 19.68C30.5329 19.4989 30.044 19.2465 29.5972 18.93C29.0022 18.4775 29.1447 18.145 29.7172 18.5025C30.1883 18.8669 30.7084 19.1632 31.2622 19.3825C31.3097 19.3825 31.3347 19.3575 31.3572 19.31C31.3682 19.2846 31.3695 19.256 31.3607 19.2297C31.3519 19.2034 31.3338 19.1812 31.3097 19.1675C30.7939 18.9414 30.3071 18.6544 29.8597 18.3125C29.7397 18.1925 29.5272 17.9775 29.5747 17.8825C29.6447 17.74 30.2922 18.21 30.6922 18.455C31.7497 19.1025 32.0247 19.2625 32.1672 19.12C32.3097 18.9775 32.2147 18.715 32.0947 18.4775C32.0247 18.2625 31.9047 18.0025 32.0247 17.93C32.1897 17.9075 32.8572 18.7875 33.4747 19.8575C33.2597 20.2375 32.8572 21.2125 32.8572 21.2125C32.4747 21.165 31.0272 20.8025 30.4072 20.4625C29.9797 20.2125 30.0497 20.01 30.0497 20.01C30.374 20.1664 30.708 20.3017 31.0497 20.415C31.0972 20.415 31.1447 20.39 31.1447 20.3425C31.1447 20.295 31.1197 20.25 31.0722 20.25ZM35.4997 19.9475L34.5947 15.145L36.7822 13.0275L38.2347 20.0675C37.3219 20.1546 36.4014 20.1142 35.4997 19.9475ZM32.2147 10.34C31.8097 9.48499 31.4297 6.62999 31.3347 5.67749C32.9522 5.98749 35.0847 4.94249 35.0847 4.94249C35.1466 5.20384 35.2424 5.45598 35.3697 5.69249C35.1874 5.6378 34.9944 5.6288 34.8078 5.6663C34.6212 5.70379 34.4467 5.78662 34.2997 5.90749C34.1922 6.01249 34.3597 6.13249 34.4422 6.04999C34.5985 5.93532 34.7833 5.86581 34.9764 5.84906C35.1695 5.8323 35.3635 5.86895 35.5372 5.95499C35.9567 6.57743 36.5916 7.02267 37.3197 7.20499C38.0322 6.77749 38.6997 7.08499 38.6997 7.58499C38.6997 8.33499 37.3922 8.39249 37.3922 8.39249C37.4165 9.41963 37.0604 10.4195 36.3922 11.2C36.507 11.702 36.6582 12.195 36.8447 12.675L34.9897 12.7925C34.9647 12.6025 34.8947 12.1275 34.8472 11.9125C35.0597 11.865 35.2972 11.795 35.5597 11.7225C35.5751 11.7192 35.5897 11.7126 35.6024 11.7033C35.6151 11.694 35.6258 11.6821 35.6336 11.6684C35.6415 11.6547 35.6463 11.6396 35.6479 11.6239C35.6495 11.6082 35.6478 11.5923 35.6429 11.5773C35.6379 11.5623 35.6299 11.5485 35.6193 11.5369C35.6087 11.5252 35.5957 11.5159 35.5813 11.5095C35.5668 11.5032 35.5512 11.4999 35.5354 11.5C35.5197 11.5001 35.5041 11.5035 35.4897 11.51C34.3197 11.9525 33.0697 12.1475 32.2147 10.34ZM29.2147 13.455L36.5647 12.955L34.4247 15.025L26.0297 15.4775L29.2147 13.455ZM26.7897 23.455C26.7222 22.93 26.8122 22.2425 26.9547 22.17C26.9797 22.17 27.0272 22.195 27.1447 22.3375C27.0361 23.0576 27.11 23.7934 27.3597 24.4775C27.3147 24.4675 26.9197 24.465 26.7922 23.445L26.7897 23.455ZM27.5997 24.5C27.318 23.7907 27.2317 23.0189 27.3497 22.265C27.4222 22.1475 27.4922 22.0525 27.5397 22.0525C27.5397 22.0525 27.7297 22.1 27.8247 23.0975C27.8179 23.5718 27.882 24.0445 28.0147 24.5C27.9797 24.515 27.7672 24.705 27.5997 24.5ZM28.2422 24.4525C28.1 24.0154 28.0357 23.5568 28.0522 23.0975C28.0784 22.8711 28.1507 22.6524 28.2647 22.455C28.2897 22.48 28.4097 22.645 28.5747 23.43C28.6086 23.7539 28.6244 24.0794 28.6222 24.405C28.5522 24.4425 28.3847 24.5625 28.2497 24.4425L28.2422 24.4525ZM28.9922 24.3825C28.9447 24.43 28.8497 24.405 28.8022 24.3825C28.8048 24.0643 28.7889 23.7463 28.7547 23.43C28.7888 23.3397 28.8369 23.2554 28.8972 23.18C29.0547 23.33 29.2072 24.27 28.9997 24.3725L28.9922 24.3825ZM29.2797 23.7875C29.0647 22.5375 28.7547 23.0375 28.6847 23.1225C28.5172 22.3725 28.2322 21.8375 27.9347 22.55C27.8397 22.1 27.5547 21.5275 27.1847 22.1C27.0422 21.85 26.8297 21.98 26.8297 22.005L25.7597 15.7025L34.3922 15.225L35.2722 19.91C34.779 19.8033 34.2944 19.6604 33.8222 19.4825C33.7747 19.46 33.7272 19.4825 33.6772 19.53C33.6426 19.5841 33.6109 19.64 33.5822 19.6975C33.4747 19.4725 33.2497 19.115 32.9997 18.75C32.5972 18.1525 32.1897 17.6325 31.9297 17.775C31.5422 17.985 32.0247 18.725 32.0247 18.9875C31.7122 18.9425 29.8322 17.6275 29.5247 17.68C29.2172 17.7325 29.3822 18.0825 29.4522 18.18C28.8097 18.015 28.9047 18.68 29.4047 19.0125C29.0947 19.4425 29.8097 19.8925 29.8097 19.8925C29.8097 19.8925 29.6472 20.245 30.2622 20.655C30.9297 21.1 32.4247 21.405 32.7622 21.4625C32.7199 21.5948 32.6881 21.7302 32.6672 21.8675C32.6672 21.915 32.6672 21.9625 32.7147 21.9875C33.8286 22.6041 35.0097 23.0906 36.2347 23.4375L29.2797 23.7875ZM32.6797 46.5375C32.7022 47.1325 32.7272 47.7875 32.7022 47.99C32.0147 48.06 26.8297 48.24 25.9022 48.18C26.3553 47.8592 26.8316 47.5726 27.3272 47.3225C27.3272 47.3225 27.6847 47.68 27.7097 47.68C27.7225 47.6816 27.7355 47.6802 27.7477 47.6758C27.7598 47.6715 27.7708 47.6643 27.7797 47.655C27.7906 47.6466 27.7994 47.6358 27.8055 47.6234C27.8115 47.6111 27.8147 47.5975 27.8147 47.5837C27.8147 47.57 27.8115 47.5564 27.8055 47.544C27.7994 47.5317 27.7906 47.5209 27.7797 47.5125L27.5297 47.2275C27.6472 47.18 27.7672 47.11 27.8847 47.0625C27.9907 47.163 28.1017 47.2581 28.2172 47.3475C28.2304 47.3491 28.2438 47.3477 28.2563 47.3434C28.2689 47.339 28.2803 47.3319 28.2897 47.3225C28.3372 47.275 28.3372 47.205 28.2897 47.18L28.0747 46.9675C28.4433 46.7935 28.8254 46.6497 29.2172 46.5375C30.4547 46.75 32.0947 46.61 32.6897 46.5375H32.6797ZM31.1097 26.2025C31.0397 25.3475 30.9672 24.0875 30.9672 23.92L36.9372 23.635C38.2486 23.956 39.615 23.9808 40.9372 23.7075C41.1047 24.8 41.2472 26.275 41.2947 26.87C36.6847 27.7975 32.2497 26.5375 31.1197 26.2025H31.1097ZM41.1472 47.585C41.3752 47.0572 41.6711 46.5614 42.0272 46.11C42.0272 46.11 42.3597 46.2525 42.3822 46.2525C42.4047 46.2525 42.4547 46.23 42.4772 46.1825C42.4878 46.1566 42.4889 46.1278 42.4802 46.1012C42.4715 46.0747 42.4536 46.0521 42.4297 46.0375L42.1797 45.9425C42.2557 45.8437 42.3267 45.7411 42.3922 45.635C42.3922 45.635 42.7272 45.8 42.7497 45.8C42.7722 45.8 42.8222 45.7775 42.8447 45.73C42.8557 45.7046 42.857 45.676 42.8482 45.6497C42.8394 45.6234 42.8213 45.6012 42.7972 45.5875L42.5347 45.4675C42.7972 45.11 43.0597 44.755 43.3197 44.445C44.3615 44.1966 45.3307 43.7077 46.1497 43.0175C46.1497 43.0175 47.2222 44.04 47.2922 44.2075C46.8172 44.6125 41.8222 47.5375 41.1572 47.585H41.1472Z" fill="#414141"/>
<path d="M34.547 7.18505C34.5488 7.26726 34.5756 7.34556 34.6214 7.40271C34.6672 7.45986 34.7283 7.49119 34.7913 7.4898C34.8543 7.4884 34.914 7.45441 34.9573 7.39529C35.0005 7.33617 35.0238 7.25676 35.022 7.17455C35.0202 7.09233 34.9934 7.01403 34.9476 6.95688C34.9249 6.92858 34.8982 6.90633 34.869 6.89138C34.8399 6.87644 34.8088 6.86911 34.7776 6.8698C34.7146 6.87119 34.6549 6.90518 34.6117 6.9643C34.5684 7.02343 34.5452 7.10283 34.547 7.18505Z" fill="#414141"/>
<path d="M32.0958 7.42174C32.0967 7.46245 32.1037 7.50262 32.1165 7.53997C32.1293 7.57732 32.1475 7.61111 32.1702 7.63941C32.1929 7.6677 32.2196 7.68996 32.2488 7.7049C32.2779 7.71984 32.309 7.72718 32.3402 7.72649C32.3714 7.7258 32.4021 7.7171 32.4305 7.70088C32.459 7.68467 32.4847 7.66125 32.5061 7.63198C32.5275 7.60271 32.5442 7.56815 32.5553 7.53027C32.5665 7.4924 32.5717 7.45195 32.5708 7.41124C32.569 7.32902 32.5422 7.25073 32.4964 7.19357C32.4506 7.13642 32.3894 7.1051 32.3264 7.10649C32.2635 7.10788 32.2038 7.14188 32.1605 7.201C32.1173 7.26012 32.094 7.33952 32.0958 7.42174Z" fill="#414141"/>
<path d="M35.0697 8.5189C35.0722 8.55034 35.0828 8.58074 35.1009 8.60834C35.1191 8.63594 35.1443 8.66017 35.1753 8.67964C35.2063 8.6991 35.2423 8.7134 35.2813 8.72171C35.3203 8.73001 35.3615 8.73215 35.4024 8.728C35.4433 8.72385 35.4833 8.71349 35.5198 8.69754C35.5563 8.68158 35.5888 8.66034 35.6152 8.63506C35.6417 8.60978 35.6616 8.58096 35.6738 8.55029C35.6861 8.51961 35.6904 8.48769 35.6865 8.4564C35.684 8.42496 35.6734 8.39455 35.6553 8.36696C35.6372 8.33936 35.6119 8.31512 35.5809 8.29566C35.5499 8.27619 35.5139 8.26189 35.4749 8.25359C35.4359 8.24529 35.3948 8.24315 35.3538 8.2473C35.3129 8.25145 35.273 8.2618 35.2364 8.27776C35.1999 8.29372 35.1675 8.31495 35.141 8.34024C35.1146 8.36552 35.0946 8.39434 35.0824 8.42501C35.0702 8.45569 35.0659 8.4876 35.0697 8.5189Z" fill="#FDAF31"/>
<path d="M32.102 8.8062C32.1398 8.80891 32.1778 8.80588 32.2136 8.7973C32.2494 8.78873 32.2824 8.77477 32.3106 8.75626C32.3388 8.73774 32.3617 8.71504 32.3778 8.68948C32.3939 8.66392 32.4031 8.63603 32.4046 8.60743C32.4062 8.57884 32.4002 8.55012 32.3869 8.52296C32.3737 8.4958 32.3534 8.47075 32.3274 8.44928C32.3014 8.42781 32.2702 8.41036 32.2355 8.39793C32.2008 8.38551 32.1634 8.37838 32.1255 8.37695C32.0876 8.37422 32.0496 8.37723 32.0137 8.3858C31.9778 8.39437 31.9448 8.40833 31.9166 8.42685C31.8883 8.44538 31.8655 8.4681 31.8493 8.49368C31.8332 8.51926 31.8241 8.54718 31.8225 8.5758C31.821 8.60442 31.827 8.63317 31.8403 8.66034C31.8536 8.68751 31.8739 8.71257 31.8999 8.73404C31.926 8.75551 31.9573 8.77295 31.9921 8.78534C32.0268 8.79774 32.0642 8.80483 32.1022 8.8062" fill="#FDAF31"/>
<path d="M2.95916 29.2251L5.31416 27.9151C5.31416 27.9151 13.0917 27.7726 14.6617 27.9876L14.9117 37.3101C14.9117 37.3101 22.8792 37.4301 23.9967 37.6201C23.9967 37.6201 24.2117 46.4201 24.1642 47.1801C24.1642 47.1801 21.8567 48.4651 21.4767 48.5601C21.4767 48.5601 3.09166 48.5826 2.63916 48.4876C2.60416 48.4651 2.67416 34.6001 2.95916 29.2251Z" fill="white"/>
<path d="M7.50102 38.8324V48.4649H2.60352L7.47852 43.3049L2.72102 38.8324H7.50102Z" fill="#016DAB"/>
<path d="M12.2595 38.8324V48.4649H7.50195L12.237 43.4449L7.50195 38.8324H12.2595Z" fill="#016DAB"/>
<path d="M23.9625 37.5949C22.82 37.4999 14.9475 37.2874 14.9475 37.2874L12.355 38.7499L12.25 48.4649H21.44L24.1275 47.1574C24.1275 46.7049 23.9625 37.5949 23.9625 37.5949ZM16.85 46.3249C16.3185 46.3249 15.7989 46.1672 15.3569 45.8719C14.9149 45.5766 14.5705 45.1569 14.3671 44.6658C14.1637 44.1747 14.1104 43.6344 14.2141 43.113C14.3178 42.5917 14.5738 42.1129 14.9497 41.737C15.3255 41.3612 15.8044 41.1052 16.3257 41.0015C16.847 40.8978 17.3874 40.951 17.8785 41.1544C18.3695 41.3578 18.7893 41.7023 19.0846 42.1443C19.3799 42.5862 19.5375 43.1058 19.5375 43.6374C19.5342 44.3491 19.25 45.0308 18.7467 45.5341C18.2434 46.0374 17.5618 46.3216 16.85 46.3249Z" fill="#87E4FF"/>
<path d="M24.3166 47.2999C24.1291 39.5499 24.0966 37.9349 24.0666 37.6149C24.0666 37.5874 24.0666 37.5249 23.9991 37.5249C23.4516 37.4524 15.9841 37.2749 14.9841 37.2399C14.9366 36.2149 14.8166 27.9624 14.8166 27.9399C9.76914 27.8249 5.38164 27.9399 5.35164 27.9399C4.22164 28.4999 2.98414 29.2499 2.98414 29.2499C2.98414 29.2499 2.93664 29.2974 2.93664 29.3224C2.74664 30.8224 2.55664 47.7999 2.55664 48.5149C2.55838 48.5395 2.56895 48.5627 2.58641 48.5801C2.60386 48.5976 2.62702 48.6082 2.65164 48.6099L21.5591 48.7524L24.2691 47.3974C24.3166 47.3699 24.3416 47.3474 24.3166 47.2999ZM14.7791 37.2499L12.4616 38.6049V29.1049L14.6141 28.0824C14.6366 29.2949 14.7491 36.4074 14.7791 37.2499ZM5.38414 28.0724C5.57914 28.0724 12.1891 28.0399 14.1791 28.0899L12.3541 28.9374L3.35414 29.1874C3.78914 28.9274 4.64914 28.4549 5.38414 28.0724ZM3.07914 29.3424L6.95664 29.2724V33.8149L2.93664 33.8849C2.98414 31.3399 3.07914 29.3424 3.07914 29.3424ZM12.2116 48.3574H2.71164C2.71164 47.6074 2.73664 43.2549 2.80664 38.8799C3.49664 38.8799 7.49164 38.8799 12.2016 38.9049L12.2116 48.3574ZM7.26414 38.6899V34.0524H12.2491V38.7124C10.4291 38.6899 8.71664 38.6899 7.26414 38.6899ZM12.4366 48.4399V38.9024C15.3141 38.9274 18.5016 38.9749 21.2616 39.0474V48.4299L12.4366 48.4399ZM12.7116 38.7224L14.9241 37.4399C15.4241 37.4399 21.9241 37.6049 23.6041 37.6899L21.3216 38.8324C18.6341 38.7499 15.5641 38.7499 12.7116 38.7124V38.7224ZM21.4741 48.3924V38.9999L23.8666 37.7624L23.9991 47.1574L21.4741 48.3924Z" fill="#414141"/>
</svg>
