<svg width="50" height="50" viewBox="0 0 50 50" fill="none" xmlns="http://www.w3.org/2000/svg">
<path d="M24.2082 14.3578C21.6314 14.3578 19.5444 12.3561 19.5444 9.8858C19.5444 7.41555 21.6314 5.4358 24.2082 5.4358C24.2082 5.36955 24.2049 5.3933 14.9447 5.3933C13.7447 5.4022 12.5969 5.88514 11.7515 6.73683C10.9061 7.58852 10.4316 8.73989 10.4316 9.93993C10.4316 11.14 10.9061 12.2913 11.7515 13.143C12.5969 13.9947 13.7447 14.4777 14.9447 14.4866H24.1869C24.1869 14.3388 24.1784 14.3578 24.2082 14.3578Z" fill="#EEEEEE"/>
<path d="M25.4439 5.39233H24.2087C21.6319 5.39233 19.5449 7.43683 19.5449 9.88583C19.566 11.1083 20.0669 12.2735 20.9393 13.13C21.8118 13.9865 22.986 14.4658 24.2087 14.4643H25.4439C26.6387 14.4518 27.7803 13.9684 28.6207 13.1191C29.4611 12.2698 29.9325 11.1232 29.9325 9.92833C29.9325 8.7335 29.4611 7.5869 28.6207 6.7376C27.7803 5.8883 26.6387 5.40488 25.4439 5.39233Z" fill="#87E4FF"/>
<path d="M25.2312 14.2503C22.7182 14.2503 20.6739 12.291 20.6739 9.88478C20.6739 7.47853 22.7182 5.51903 25.2312 5.51903C25.2594 5.51903 25.2865 5.50781 25.3065 5.48784C25.3265 5.46786 25.3377 5.44078 25.3377 5.41253C25.3377 5.38428 25.3265 5.3572 25.3065 5.33722C25.2865 5.31725 25.2594 5.30603 25.2312 5.30603C22.5904 5.30603 20.4609 7.35053 20.4609 9.88478C20.4609 12.3975 22.5904 14.4633 25.2312 14.4633C25.2594 14.4633 25.2865 14.4521 25.3065 14.4321C25.3265 14.4121 25.3377 14.385 25.3377 14.3568C25.3377 14.3285 25.3265 14.3014 25.3065 14.2815C25.2865 14.2615 25.2594 14.2503 25.2312 14.2503Z" fill="white"/>
<path d="M15.584 25.2103C18.1607 25.2103 20.2477 27.212 20.2477 29.6823C20.2477 32.1525 18.1607 34.1323 15.584 34.1323C15.584 34.1985 15.587 34.175 24.8475 34.175C25.7423 34.1682 26.6152 33.8975 27.3569 33.3968C28.0986 32.8961 28.676 32.1877 29.017 31.3603C29.3579 30.5329 29.4471 29.6233 29.2734 28.7455C29.0998 27.8676 28.671 27.0605 28.0407 26.4253C27.1953 25.5736 26.0475 25.0907 24.8475 25.0818H15.6052C15.6052 25.2293 15.6137 25.2103 15.584 25.2103Z" fill="#EEEEEE"/>
<path d="M14.3485 34.1754H15.5835C18.1605 34.1754 20.2475 32.1309 20.2475 29.6819C20.2264 28.4594 19.7255 27.2942 18.853 26.4376C17.9805 25.5811 16.8062 25.1019 15.5835 25.1034H14.3485C13.1455 25.1036 11.9919 25.5816 11.1413 26.4322C10.2907 27.2828 9.8127 28.4364 9.8125 29.6394C9.81263 30.8424 10.2906 31.9961 11.1412 32.8467C11.9918 33.6973 13.1455 34.1753 14.3485 34.1754Z" fill="#016DAB"/>
<path d="M14.5616 25.3168C17.0743 25.3168 19.1188 27.2758 19.1188 29.6823C19.1188 32.0888 17.0756 34.0478 14.5616 34.0478C14.5333 34.0478 14.5062 34.059 14.4863 34.079C14.4663 34.0989 14.4551 34.126 14.4551 34.1543C14.4551 34.1825 14.4663 34.2096 14.4863 34.2296C14.5062 34.2495 14.5333 34.2608 14.5616 34.2608C17.2021 34.2608 19.3318 32.2165 19.3318 29.6823C19.3318 27.1693 17.2021 25.1038 14.5616 25.1038C14.5334 25.104 14.5064 25.1152 14.4863 25.135C14.4763 25.1448 14.4684 25.1565 14.463 25.1694C14.4576 25.1824 14.4549 25.1963 14.4551 25.2103C14.4551 25.2385 14.4664 25.2655 14.4863 25.2855C14.5063 25.3055 14.5334 25.3167 14.5616 25.3168Z" fill="white"/>
<path d="M45.4404 36.6968C44.0154 36.6176 42.5549 36.4501 41.9904 36.3561C41.9129 36.8203 42.6041 38.8323 42.9061 39.5716C43.2009 40.2938 44.4129 44.0558 45.5466 45.2151C46.3586 46.0451 47.4216 45.9543 47.4216 45.6401C47.5154 45.6408 45.4404 40.5703 45.4404 36.6968Z" fill="white"/>
<path d="M45.2508 24.4517C45.1443 23.472 43.76 16.8065 43.2275 15.8695C42.7695 15.0782 42.2095 14.0832 41.2688 13.8405C41.1525 13.5072 40.8638 12.9735 40.8638 12.5475C40.6033 12.417 40.5823 12.5385 40.2035 11.7807L40.097 11.7167C40.8638 11.5667 41.4175 10.6307 40.736 10.0132C40.5938 9.89774 40.4152 9.83649 40.2321 9.84038C40.049 9.84428 39.8732 9.91306 39.736 10.0345L39.6298 9.94922C38.8998 9.52822 38.9605 8.59097 39.3315 7.75572C39.3528 7.69197 39.4168 7.58547 39.3528 7.54297C39.213 7.40322 37.6843 7.63247 36.776 6.35022C36.4938 6.53847 36.4828 7.95847 35.9243 8.33072C35.6688 8.50122 34.838 8.28822 34.7743 8.35197C34.6678 8.50197 35.0723 8.92697 35.1363 9.09747C35.477 10.0975 34.9233 11.4825 35.5613 12.1225C36.3165 12.9007 37.6863 12.139 38.074 14.0815C36.613 14.3065 36.5195 14.541 36.5195 14.4437C35.3483 14.188 32.5142 11.7475 32.1325 11.6752C32.0308 11.656 32.0118 11.6925 31.941 11.6965C31.5788 10.8447 31.941 9.97147 32.1325 9.11972C32.1538 8.96972 32.3243 8.33172 32.0473 8.31047C31.6613 8.28547 31.3853 9.08747 31.1743 9.43922C31.1013 9.40272 31.6073 7.06272 31.1743 7.18172C30.6533 7.32497 30.4158 8.83822 30.301 9.35397C30.1463 9.35397 30.3568 6.83122 30.0243 6.92622C29.796 6.95472 29.5618 7.71222 29.5133 7.90572C29.2338 9.16347 29.3803 9.82247 29.2578 9.82247C29.0968 9.82247 28.9195 8.28572 28.8955 8.11872C28.8955 8.07622 28.853 7.62897 28.7253 7.69372C27.987 7.96222 28.6645 10.2705 28.7253 10.9092C28.7253 10.9732 27.7138 10.6117 27.6818 11.037C27.646 11.5147 29.117 12.303 29.5983 12.5065C30.4803 12.874 30.3205 12.6942 30.4075 12.8685C30.3225 12.9325 30.2798 12.975 30.301 12.975C30.326 12.975 31.3445 15.1647 31.3445 15.1897C30.2278 15.1897 27.3625 13.6945 27.2643 13.6557C26.9918 13.5485 26.734 13.4957 26.6643 13.6402C26.248 12.8247 24.875 9.81522 23.977 9.99347C23.6165 10.0655 24.3178 11.0585 24.402 11.186C24.4233 11.2075 24.6575 11.5055 24.552 11.527C24.052 11.527 23.7438 11.0185 21.6558 10.888C21.422 10.8667 21.1868 10.8667 20.953 10.888C20.8822 10.8909 20.8129 10.9096 20.7503 10.9428C20.6876 10.976 20.6332 11.0228 20.591 11.0797C20.337 11.537 23.113 11.95 22.9975 12.1232C22.9455 12.227 22.5175 12.0807 21.2938 12.0807C20.5745 12.0807 20.0083 12.3557 20.591 12.5492C21.1335 12.7295 22.9123 12.9837 22.9123 13.0815C22.9123 13.185 22.1178 13.1815 21.9753 13.2092C21.518 13.242 20.6045 13.2885 20.4208 13.6777C20.2395 14.0615 21.925 14.0112 22.2958 13.976C22.3383 13.976 22.679 13.912 22.7208 13.976C22.7818 14.0975 21.1663 14.401 21.1663 14.8702C21.2785 15.0572 22.358 14.9547 22.955 14.913C23.5265 14.873 24.0135 15.0327 25.6383 15.573C25.4883 15.9565 25.3615 16.2545 25.3615 16.298C25.3615 16.3195 29.9615 20.685 35.328 20.473C35.328 20.5007 35.618 25.5367 35.9668 26.5422C36.2703 27.1492 44.6168 27.2807 45.337 27.2877C45.391 27.2877 45.3795 27.308 45.3795 27.2025C45.3773 27.2 45.3773 25.6867 45.2508 24.4517Z" fill="white"/>
<path d="M43.077 46.6C43.1835 46.5573 43.2688 46.4935 43.3538 46.45C43.389 46.415 43.5595 46.4278 43.5038 46.2585C43.4635 46.178 43.3183 46.2098 43.2695 46.2585C40.6945 47.5453 40.352 47.7283 40.352 48.0685C40.3506 48.0829 40.3524 48.0973 40.3573 48.1109C40.3621 48.1244 40.3699 48.1368 40.3801 48.1469C40.3903 48.1571 40.4026 48.1649 40.4162 48.1698C40.4297 48.1746 40.4442 48.1764 40.4585 48.175C40.5783 48.175 40.5478 48.0855 40.5863 48.0473C40.6648 47.8113 41.033 47.6855 41.225 47.5575C41.25 47.5443 42.882 46.6843 42.9075 46.6843C42.9608 46.7378 43.0398 46.7445 43.1418 46.8973C43.4668 47.2223 43.5558 47.5363 43.6528 47.5363C43.985 47.5363 43.324 46.7638 43.077 46.6Z" fill="white"/>
<path d="M43.6095 46.1735C43.5881 46.189 43.5726 46.2111 43.5652 46.2364C43.5579 46.2617 43.5592 46.2887 43.569 46.3131C43.5787 46.3376 43.5964 46.3581 43.6191 46.3714C43.6418 46.3847 43.6684 46.39 43.6945 46.3865C43.7772 46.4268 43.85 46.4848 43.9075 46.5568C44.2712 46.9205 44.2442 47.2818 44.3972 47.2818C44.7597 47.2808 43.846 46.0158 43.6095 46.1735Z" fill="white"/>
<path d="M38.5616 46.3437C38.5403 46.3224 38.5191 46.3224 38.4766 46.3224C38.4088 46.2212 38.2803 46.3437 38.3061 46.3437C38.3061 46.5027 38.4038 46.5354 38.4766 46.5354C38.5191 46.5779 38.5831 46.5994 38.6043 46.6419C38.9043 46.9419 38.8238 47.1529 38.9876 47.1529C39.3038 47.1529 38.8498 46.5362 38.5616 46.3437Z" fill="white"/>
<path d="M39.4354 46.1735C39.3577 46.0796 39.2639 46.0003 39.1584 45.9392C38.9879 45.854 38.8771 46.054 39.1159 46.1735C39.6784 46.736 39.4671 46.8337 39.7121 46.8337C39.8909 46.7752 39.5684 46.3065 39.4354 46.1735Z" fill="white"/>
<path d="M44.1624 7.62801C43.9989 7.36826 43.7139 7.24576 43.5449 6.98926C43.2656 6.56426 43.1671 6.08926 42.7784 5.71151C41.0081 3.99101 39.1139 4.63901 37.9654 4.47626C37.2849 4.38001 36.6246 3.97876 36.0701 4.34851C35.7934 4.60401 35.8999 4.96601 35.8146 5.28551C35.7934 5.41326 35.6869 5.43551 35.6016 5.51976C35.1284 5.99326 35.3059 7.02551 36.4109 7.39476C36.4776 7.03843 36.5774 6.68909 36.7089 6.35126L36.7729 6.30876C37.7606 7.62576 39.1946 7.34626 39.3496 7.50126C39.4246 7.57626 39.2866 7.74001 39.1154 8.31051C38.9876 8.86426 39.0729 9.61051 39.6264 9.90776L39.7329 9.99301C39.8701 9.87165 40.0458 9.80289 40.2289 9.79895C40.412 9.79502 40.5906 9.85616 40.7329 9.97151C41.4144 10.5893 40.8606 11.5263 40.0939 11.6753L40.2004 11.739C40.2856 11.9308 40.4561 12.314 40.6476 12.4205C40.9254 12.6983 43.3384 10.8775 43.9059 10.1205C44.3999 9.46201 44.6511 8.40376 44.1624 7.62801Z" fill="#FDAF31"/>
<path d="M37.3058 8.96997C36.9406 8.96997 36.8423 9.39497 36.8808 9.39497C36.8808 9.47903 36.9058 9.5612 36.9525 9.63109C36.9992 9.70098 37.0655 9.75545 37.1432 9.78762C37.2209 9.81979 37.3063 9.8282 37.3888 9.8118C37.4712 9.79541 37.5469 9.75493 37.6064 9.69549C37.6658 9.63605 37.7063 9.56033 37.7227 9.47788C37.7391 9.39544 37.7307 9.30999 37.6985 9.23233C37.6663 9.15467 37.6119 9.0883 37.542 9.0416C37.4721 8.9949 37.3899 8.96997 37.3058 8.96997Z" fill="#FDAF31"/>
<path d="M47.6549 46.0882C47.4812 45.5974 47.5674 45.4869 47.3569 45.0659C46.5242 42.4909 45.9584 39.3437 45.9939 36.7819C45.9369 36.8959 46.2379 36.7819 45.9939 36.7819C46.2922 36.3349 45.9727 28.7109 45.4402 27.2627C45.5042 27.0284 45.3977 25.1332 45.3339 24.4519C45.2444 23.6647 43.9802 17.2097 43.2469 15.7419C42.7997 14.9752 42.2469 14.0169 41.2877 13.7614C41.2877 13.5304 40.9127 13.0272 40.9469 12.5477C40.9469 12.5194 40.9357 12.4923 40.9157 12.4724C40.8958 12.4524 40.8687 12.4412 40.8404 12.4412C40.8122 12.4412 40.7851 12.4524 40.7651 12.4724C40.7452 12.4923 40.7339 12.5194 40.7339 12.5477C40.7777 12.9483 40.8931 13.3378 41.0747 13.6977C40.1055 13.718 39.1383 13.7963 38.1784 13.9319C37.9442 12.7607 37.2202 12.5904 36.5812 12.4412C35.5339 12.1952 35.3179 11.9354 35.3674 10.6952C35.5615 10.7057 35.7558 10.6772 35.9387 10.6113C36.1216 10.5455 36.2894 10.4436 36.4322 10.3117C36.5322 10.2147 36.3844 10.0657 36.2822 10.1617C36.1565 10.2767 36.0084 10.3644 35.8471 10.4194C35.6858 10.4744 35.515 10.4954 35.3452 10.4812C35.4244 8.65616 34.9384 8.87566 34.8339 8.45791C35.0589 8.45791 35.6947 8.61541 35.9627 8.43666C36.4582 8.11816 36.4769 7.32816 36.7932 6.43491C36.7974 6.42232 36.799 6.40903 36.7981 6.3958C36.7971 6.38256 36.7936 6.36964 36.7876 6.35778C36.7817 6.34592 36.7735 6.33534 36.7634 6.32666C36.7534 6.31797 36.7418 6.31135 36.7292 6.30716C36.7166 6.30298 36.7033 6.30131 36.6901 6.30226C36.6768 6.30321 36.6639 6.30676 36.6521 6.3127C36.6402 6.31865 36.6296 6.32687 36.6209 6.3369C36.6122 6.34693 36.6056 6.35857 36.6014 6.37116C36.2777 7.28641 36.2927 7.97541 35.8562 8.26641C35.6287 8.41791 34.8002 8.17641 34.6849 8.33016C34.4849 8.59691 35.0257 9.02141 35.0257 9.16066C35.3649 10.1302 34.8029 11.5199 35.4729 12.2274C36.1864 12.9957 37.5934 12.3377 37.9432 14.0162C37.459 14.1002 36.9821 14.2212 36.5164 14.3782C35.3414 14.1364 32.4807 11.6099 32.0869 11.6099C32.0442 11.6099 32.0229 11.6312 32.0017 11.6312C31.4839 10.3797 32.8292 8.42591 32.0229 8.22366C31.7034 8.20241 31.4692 8.60716 31.2979 8.90516C31.3772 8.37641 31.5869 6.96091 31.0849 7.11641C30.3559 7.34141 30.2757 9.42141 30.2757 8.43666C30.2757 8.04091 30.2332 7.39316 30.2332 7.39316C30.1124 6.30666 29.4082 6.84316 29.1684 9.11816C29.1684 9.83516 29.1247 9.47141 28.9979 8.52191C28.9357 8.14691 28.9792 7.77191 28.7849 7.62741C28.6414 7.55541 28.2812 7.70441 28.2314 8.50066C28.1964 9.48091 28.5032 10.1542 28.5507 10.8219C28.5257 10.8219 27.5287 10.5342 27.5287 11.0347C27.5074 11.3117 27.8267 11.5672 27.9537 11.6737C28.8227 12.3847 29.4942 12.5842 30.2112 12.8449C30.1329 12.9232 30.1229 12.9912 30.1684 13.0367C30.3199 13.3394 30.7329 14.4484 31.1054 15.0384C28.1942 14.4442 27.3274 13.1884 26.6554 13.4839C26.1934 12.5589 24.9352 9.67991 23.9084 9.84216C23.3122 9.99091 24.3584 11.3172 24.3769 11.3542C24.1059 11.2876 23.842 11.195 23.5889 11.0774C22.7669 10.8387 20.1439 10.3524 20.3944 11.1627C20.4529 11.3509 20.8082 11.4819 20.8632 11.4819C21.1982 11.5994 21.5394 11.6992 21.8852 11.7802C23.2749 12.1024 21.9659 11.7629 20.7992 11.9302C20.1897 11.9302 19.9282 12.3497 20.5224 12.5479C21.1204 12.7479 22.3579 12.9119 22.4389 12.9524C19.9177 12.9524 19.2442 14.1382 22.2259 13.9959C22.2009 13.9959 20.9159 14.3672 21.0547 14.7837C21.0547 14.8052 21.0759 14.8052 21.0759 14.8264C21.1612 14.9764 21.3954 14.9764 21.5232 14.9969C22.0137 14.998 22.5041 14.9767 22.9927 14.9329C23.8454 14.9014 24.6644 15.3152 25.5269 15.5504C25.3019 16.0729 25.2644 16.1754 25.3139 16.2754C25.3564 16.3182 29.8712 20.6412 35.2589 20.4922C35.3244 21.0154 35.5669 26.2082 35.9404 26.5827C35.7319 26.7904 34.6835 31.8056 35.6209 34.9304C35.9986 36.1892 37.5 40 37.5 40C37.5 40 39.5 45.5 40.6467 45.0459C36.8872 47.2294 36.1944 47.2139 36.0682 47.8144C35.9432 48.4394 37.1402 48.4319 37.8144 48.4319C40.1579 48.4319 40.4124 47.9497 40.4124 48.2819C40.8014 49.1569 45.9124 48.6017 46.8652 48.4522C47.1434 48.4522 47.8079 48.2907 47.9724 47.9412C48.1022 47.5364 47.8797 46.7229 47.6549 46.0882ZM30.3204 12.6539C29.5114 12.4152 28.7584 12.017 28.1057 11.4827C27.6382 11.1077 27.7862 10.9767 27.7862 10.9504C28.0052 10.7754 28.8084 11.1689 28.8084 10.8864C28.7109 10.0594 28.1474 8.11541 28.7019 7.79866C28.7897 7.97366 28.7987 8.68641 28.9574 9.48091V9.50216C28.9999 9.71516 29.0427 9.90691 29.2129 9.92716C29.5494 9.92716 29.1879 8.91891 29.7454 7.43541C29.7454 7.38541 29.9014 7.05041 29.9797 7.03091C30.0282 7.14516 30.0499 7.26891 30.0434 7.39291C30.1499 9.09616 29.9854 9.44141 30.2564 9.47991C30.3832 9.47991 30.3349 9.45791 30.5119 8.67066C30.5892 8.32816 30.8314 7.39291 31.1509 7.28641C31.1509 7.28641 31.1934 7.32916 31.1934 7.58466C31.1934 8.86366 30.8737 9.43716 31.0869 9.52241C31.2244 9.59141 31.3572 9.22241 31.4064 9.07541C31.5129 8.88366 31.7684 8.37241 31.9814 8.39391C32.1139 8.39391 31.9814 9.04391 31.9814 9.09666C31.7242 10.1267 31.4784 10.9287 31.7897 11.6947C30.7482 12.3299 30.4652 12.6539 30.3204 12.6539ZM30.5547 13.2717C30.3967 12.9034 30.3769 12.9594 30.4482 12.8882C30.9527 12.4777 31.4894 12.1086 32.0532 11.7844C32.6164 11.9454 34.9214 14.0247 36.1582 14.4802C33.0877 15.6052 31.6789 15.0177 31.4064 15.0177C31.1722 14.7409 30.7674 13.7827 30.5547 13.2717ZM25.5074 15.3587C24.5469 15.1182 23.8969 14.6662 22.9307 14.6984C22.7739 14.7127 21.3624 14.8339 21.2272 14.6984C21.2272 14.6772 21.2272 14.5282 22.1854 14.1872C22.8227 13.9754 22.7817 13.8947 22.7817 13.8039C22.7032 13.6467 20.6012 13.8727 20.4604 13.5909C20.7399 13.0322 22.9307 13.3089 22.9307 12.9522C22.9307 12.6607 21.8307 12.7522 20.5457 12.3559C20.1527 12.2344 20.5679 12.2207 20.7374 12.1642C20.7684 12.1642 21.1462 12.1302 21.2057 12.1217C22.6984 12.1217 22.9024 12.3132 22.9734 12.1004C23.3069 11.7677 21.0292 11.5822 20.5457 11.1004C20.8622 10.6782 23.1327 11.1299 23.8039 11.3987C24.0144 11.4829 24.5227 11.7129 24.5917 11.5049C24.7337 11.2924 23.9104 10.6207 23.9104 10.0357C24.6662 9.86066 26.1057 12.8564 26.4232 13.5707C26.1464 13.8679 25.7844 14.6772 25.5074 15.3587ZM36.1342 26.4337C35.7937 26.4337 35.4554 20.8569 35.4314 20.4707C36.034 20.4378 36.6325 20.3523 37.2202 20.2152C37.2342 20.2124 37.2475 20.2069 37.2593 20.1989C37.2712 20.191 37.2814 20.1808 37.2893 20.1689C37.2972 20.1571 37.3027 20.1438 37.3055 20.1298C37.3082 20.1158 37.3082 20.1014 37.3054 20.0874C37.3026 20.0734 37.2971 20.0601 37.2892 20.0483C37.2813 20.0364 37.2711 20.0262 37.2592 20.0183C37.2474 20.0104 37.234 20.0049 37.2201 20.0021C37.2061 19.9994 37.1917 19.9994 37.1777 20.0022C33.0989 21.0224 28.5212 18.9272 25.4862 16.1692C26.8782 12.6872 26.6862 13.5942 28.0629 14.1459C31.5532 15.8907 33.9962 15.5392 36.6027 14.5294C38.1777 13.9189 40.7804 13.8969 41.0179 13.9142C41.9277 13.9794 42.5917 14.9607 43.1019 15.8419C43.7472 17.1324 45.0269 23.5359 45.1334 24.4632C45.2399 25.5279 45.2494 26.7174 45.2494 27.0794C41.4162 27.0144 36.7942 26.8157 36.1342 26.4324V26.4337ZM40.5209 47.9209C40.6923 47.7293 40.9029 47.5767 41.1384 47.4737C40.9074 47.584 40.6983 47.7351 40.5209 47.9197V47.9209ZM43.4597 46.1747C43.3912 45.9522 42.7997 44.5997 42.7997 44.5997L43.2682 44.5L41.5 39L40.5 35.5L40.9672 36.2739L44.5 45.5C44.5 45.5 45.4604 45.3326 45.4604 45.1764L43.4597 46.1747Z" fill="#414141"/>
<path d="M39.329 10.6735C39.357 10.6772 39.3853 10.6706 39.4088 10.655C39.4323 10.6394 39.4493 10.6158 39.4567 10.5885C39.4617 10.5525 39.4687 10.517 39.478 10.482C40.1085 9.43205 41.1015 10.1413 40.8835 10.8653C40.8204 11.0502 40.7109 11.2158 40.5655 11.3463C40.4201 11.4767 40.2436 11.5677 40.053 11.6105C40.0259 11.6174 40.0025 11.6343 39.9875 11.658C39.9726 11.6816 39.9674 11.71 39.9729 11.7374C39.9784 11.7648 39.9942 11.789 40.0171 11.8051C40.0399 11.8211 40.0681 11.8277 40.0957 11.8235C40.9637 11.6658 41.5127 10.5883 40.777 9.9283C39.9947 9.22655 38.9295 10.5405 39.329 10.6735Z" fill="#414141"/>
<path d="M36.625 8.20313C36.625 8.67213 37.0723 8.49413 37.0723 8.01163C37.104 7.65013 36.625 7.52513 36.625 8.20313Z" fill="#414141"/>
<path d="M28.4256 16.0826C27.2256 16.4969 27.1071 16.5119 27.1694 16.6361C27.2029 16.7034 27.2646 16.7001 27.3194 16.7001C28.5154 16.2731 28.6379 16.2709 28.5759 16.1464C28.5619 16.1202 28.5393 16.0996 28.512 16.088C28.4847 16.0764 28.4542 16.0745 28.4256 16.0826Z" fill="#414141"/>
<path d="M31.0024 16.5086C30.9912 16.5002 30.9785 16.4941 30.9649 16.4906C30.9514 16.4872 30.9373 16.4864 30.9234 16.4884C30.9096 16.4904 30.8963 16.4951 30.8842 16.5022C30.8722 16.5093 30.8617 16.5188 30.8533 16.53C30.8449 16.5412 30.8388 16.5539 30.8354 16.5674C30.8319 16.581 30.8311 16.5951 30.8331 16.6089C30.8351 16.6228 30.8398 16.6361 30.8469 16.6481C30.8541 16.6602 30.8635 16.6707 30.8747 16.6791C32.0067 17.5291 31.9057 17.4671 31.9609 17.4671C31.9779 17.4677 31.9948 17.4642 32.0101 17.4568C32.0254 17.4495 32.0387 17.4385 32.0489 17.4249C32.059 17.4113 32.0657 17.3954 32.0684 17.3786C32.0711 17.3619 32.0696 17.3447 32.0642 17.3286C32.0571 17.307 32.0433 17.2883 32.0247 17.2753L31.0024 16.5086Z" fill="#414141"/>
<path d="M33.7286 18.2547C33.6839 18.1207 33.4439 18.2217 33.5369 18.3612C34.0994 19.576 34.0661 19.5752 34.1759 19.5752C34.3939 19.5752 34.2689 19.4432 33.7286 18.2547Z" fill="#414141"/>
<path d="M32.6412 14.5066C33.1309 13.2001 33.1582 13.2316 33.0244 13.1863C32.8907 13.1411 32.9264 13.1706 32.4494 14.4428C32.3699 14.5621 32.5792 14.6301 32.6412 14.5066Z" fill="#414141"/>
<path d="M38.2415 16.0615C38.2415 15.9155 38.1513 15.9697 36.8573 16.1892C36.7273 16.1892 36.7423 16.402 36.8785 16.402C36.9115 16.402 37.219 16.348 38.1563 16.1892C38.22 16.1677 38.2628 16.1252 38.2415 16.0615Z" fill="#414141"/>
<path d="M42.0973 16.3805C42.2333 16.3352 42.1723 16.3027 41.6073 15.0805C41.5628 14.9465 41.3226 15.0472 41.4158 15.187C42.0253 16.4795 41.9386 16.3805 42.0973 16.3805Z" fill="#414141"/>
<path d="M40.3505 18.8503C40.3663 18.8373 40.3781 18.82 40.3844 18.8005C40.3906 18.781 40.3912 18.7601 40.3859 18.7403C40.3806 18.7205 40.3698 18.7027 40.3546 18.6889C40.3395 18.6751 40.3207 18.6659 40.3005 18.6625C40.2733 18.6581 40.2455 18.6644 40.2228 18.68C39.2683 19.3423 39.0445 19.44 39.1578 19.5533C39.2255 19.687 39.3658 19.5348 40.3505 18.8503Z" fill="#414141"/>
<path d="M36.6661 22.8971C37.1001 21.6823 37.1738 21.6253 37.0281 21.5768C36.8943 21.5323 36.9263 21.5683 36.4743 22.8333C36.3746 22.9333 36.5996 23.0316 36.6661 22.8971Z" fill="#414141"/>
<path d="M41.1381 24.1961C41.2744 24.1509 41.2131 24.1184 40.6484 22.8961C40.6039 22.7621 40.3636 22.8629 40.4569 23.0026C41.0659 24.2951 40.9796 24.1961 41.1381 24.1961Z" fill="#414141"/>
<path d="M42.033 20.8531C43.2965 20.6388 43.4257 20.6653 43.3747 20.5123C43.3747 20.3663 43.2845 20.4208 41.9905 20.6401C41.844 20.6888 41.883 20.8531 42.033 20.8531Z" fill="#414141"/>
<path d="M37.3908 25.7083C37.3908 25.8473 37.4293 25.845 38.7751 25.8788C38.7893 25.8796 38.8035 25.8775 38.8168 25.8724C38.8302 25.8674 38.8423 25.8596 38.8523 25.8495C38.8624 25.8394 38.8702 25.8273 38.8753 25.814C38.8803 25.8007 38.8824 25.7865 38.8816 25.7723C38.8816 25.6333 38.8431 25.6355 37.4973 25.6018C37.4831 25.6009 37.4688 25.603 37.4555 25.608C37.4421 25.613 37.43 25.6208 37.4198 25.6308C37.4098 25.6409 37.4021 25.6531 37.3971 25.6664C37.3921 25.6798 37.3899 25.694 37.3908 25.7083Z" fill="#414141"/>
<path d="M43.1831 26.3684C44.2041 25.5249 44.2476 25.5372 44.1831 25.4102C44.0698 25.2969 44.0141 25.4052 43.0543 26.1982C43.0374 26.2109 43.0246 26.2283 43.0177 26.2483C43.0107 26.2682 43.0098 26.2898 43.0152 26.3103C43.0205 26.3307 43.0318 26.3491 43.0476 26.3631C43.0635 26.3771 43.0831 26.3861 43.1041 26.3889C43.1179 26.3909 43.1321 26.3901 43.1456 26.3866C43.1592 26.3831 43.1719 26.3769 43.1831 26.3684Z" fill="#414141"/>
<path d="M2.12497 5.71175C2.10924 5.70641 2.09244 5.70506 2.07605 5.70781C2.05967 5.71056 2.04423 5.71732 2.0311 5.7275C2.01797 5.73768 2.00758 5.75096 2.00083 5.76614C1.99409 5.78132 1.99122 5.79793 1.99247 5.8145C1.99385 5.8344 2.00109 5.85345 2.01328 5.86925C2.02547 5.88504 2.04207 5.89687 2.06097 5.90325C2.78322 6.1475 7.17672 7.671 7.49147 7.671C7.71997 7.44225 7.65372 7.5985 2.12497 5.71175Z" fill="#414141"/>
<path d="M2.42348 3.15616C2.44848 3.17066 6.67348 5.44416 6.83173 5.56241C6.85948 5.59041 6.92148 5.60066 6.98173 5.54116C7.10673 5.41491 7.03523 5.43216 3.95673 3.73116C2.46448 2.90616 2.48173 2.90616 2.38173 3.00616C2.37114 3.01762 2.36365 3.03159 2.35999 3.04676C2.35632 3.06192 2.35659 3.07777 2.36077 3.0928C2.36496 3.10784 2.37291 3.12155 2.38389 3.13264C2.39486 3.14372 2.40849 3.15182 2.42348 3.15616Z" fill="#414141"/>
<path d="M8.83247 4.75339C8.65897 4.57839 8.50747 4.40339 7.91672 3.77364C5.42072 1.11714 5.55222 1.17639 5.44647 1.28214C5.43623 1.29177 5.42808 1.3034 5.42251 1.31629C5.41694 1.32919 5.41406 1.34309 5.41406 1.35714C5.41406 1.37119 5.41694 1.3851 5.42251 1.39799C5.42808 1.41089 5.43623 1.42251 5.44647 1.43214C6.48572 2.47139 8.63222 4.94589 8.76872 4.94589C8.81922 4.94489 8.87247 4.83289 8.83247 4.75339Z" fill="#414141"/>
<path d="M40.6693 35.4615C39.2078 31.751 41.1404 28.304 39.4989 28C39.5201 27.9363 39.4349 27.9785 39.4989 28C39.4146 28.2525 39.6377 28.0375 40 29C39.9378 29.747 39.68 34.2965 40.4565 35.5467C40.476 35.5797 40.4903 35.6157 40.499 35.6532C40.557 35.769 40.7658 35.7295 40.712 35.568C40.712 35.543 40.7038 35.565 40.6693 35.4615Z" fill="white"/>
</svg>
