<svg width="70" height="70" viewBox="0 0 70 70" fill="none" xmlns="http://www.w3.org/2000/svg">
<rect width="70" height="70" rx="10" fill="#E7F8FF"/>
<path d="M19.8199 58.5105C20.5063 57.6399 20.9366 56.5952 21.0625 55.4937C21.0625 55.4937 23.4682 54.1599 24.7945 54.036C24.7945 54.036 26.7922 57.3402 27.0574 57.5631C27.0574 57.5631 29.5522 56.8881 32.0206 56.0475C35.5162 54.8568 49.4206 50.7939 54.3688 50.043C54.3688 50.043 49.1317 39.2859 47.7799 35.1729C47.2399 33.5289 45.7897 29.7018 44.6809 25.3722C43.6399 21.3099 42.6559 17.3559 42.508 16.0395C42.508 16.0395 38.983 15.4563 32.5561 15.7347C32.5561 15.7347 31.7344 13.2699 31.7212 12.4746C29.256 12.6424 26.8066 12.9924 24.3931 13.5216C19.3552 14.5788 12.4594 16.6434 6.58301 20.112C7.21991 23.4543 8.76881 28.4295 8.65451 28.5609C8.65451 28.5609 7.68281 27.4209 7.29401 27.3387C7.53374 28.1592 7.70375 28.9985 7.80221 29.8476C7.90811 31.0137 8.54861 39.8745 9.33941 42.7944C10.1755 45.8817 13.5799 51.4995 14.7856 52.7859C14.7856 52.7859 13.6924 52.5576 13.1161 52.7298C13.417 53.3429 13.7501 53.9397 14.1142 54.5175C14.4499 54.9771 16.4755 57.9939 19.8199 58.5105Z" fill="white"/>
<path d="M24.8393 20.5396C25.2812 20.3422 28.4783 19.5361 29.9369 22.2643C31.4741 25.1395 29.7497 27.307 27.6221 28.1182C25.8521 28.7932 23.0282 27.6661 22.4 25.522C21.7019 23.1397 23.0636 21.3331 24.8393 20.5396Z" fill="#005BC3"/>
<path d="M46.8745 41.071C47.1634 40.5406 46.7611 40.0249 46.1827 40.3099C46.225 40.1068 46.3084 39.4933 45.6994 39.4636C45.2398 39.4411 45.1294 39.9577 45.1156 40.1362C45.0263 40.0828 44.9242 40.0543 44.8201 40.0537C44.716 40.0532 44.6137 40.0805 44.5237 40.1329C43.9237 40.5379 44.7067 41.7268 45.4186 41.8165C45.3661 42.3729 45.2759 42.925 45.1486 43.4692C45.0508 42.703 44.6155 41.7244 44.0236 42.2206C43.4329 42.7117 44.2909 43.7683 45.0325 43.8658C45.0375 43.8654 45.0424 43.8647 45.0472 43.8637C44.8735 44.5105 44.6426 45.1406 44.3572 45.7465C44.3572 45.3265 44.26 44.7421 44.0203 44.488C43.7746 44.2273 43.078 44.248 43.2055 45.0901C43.252 45.3395 43.3595 45.5736 43.5183 45.7715C43.6772 45.9693 43.8825 46.1248 44.116 46.2241C43.7911 46.8326 43.4083 47.4085 42.973 47.9437C43.0564 47.5318 43.1062 46.8508 42.8656 46.5661C42.625 46.2814 41.9767 46.2961 41.962 47.0245C41.9659 47.2787 42.033 47.528 42.1572 47.7499C42.2813 47.9717 42.4587 48.1593 42.6733 48.2956C42.2662 48.7571 41.8146 49.1774 41.3251 49.5505C41.5087 49.177 41.6971 48.6304 41.5729 48.3175C41.5344 48.2424 41.4786 48.1775 41.4101 48.1282C41.3415 48.0789 41.2622 48.0466 41.1787 48.034C41.0952 48.0214 41.01 48.0289 40.9299 48.0558C40.8499 48.0827 40.7774 48.1283 40.7185 48.1888C40.6399 48.2701 40.5892 48.3743 40.5739 48.4864C40.513 48.7396 40.5118 49.0035 40.5705 49.2572C40.6291 49.5109 40.7459 49.7475 40.9117 49.9483C41.2056 50.1948 41.5728 50.3369 41.956 50.3524C42.1799 50.3551 42.402 50.3122 42.6088 50.2264C43.0378 50.0383 43.2988 49.2664 42.6688 49.1419C42.4629 49.1149 42.2535 49.1395 42.0595 49.2136C42.3067 48.9905 42.5426 48.7552 42.7663 48.5086C43.0025 48.6376 43.2629 48.716 43.531 48.7388C43.7992 48.7616 44.0691 48.7282 44.3236 48.6409C45.1153 48.3109 44.9521 46.9828 43.3465 47.8117C43.7123 47.3307 44.0374 46.8202 44.3185 46.2853C44.5917 46.3368 44.8731 46.3242 45.1407 46.2485C45.4082 46.1728 45.6545 46.0361 45.8602 45.8491C46.1968 45.5413 46.1806 44.6773 45.5137 44.8207C45.2306 44.9089 44.977 45.0729 44.7805 45.295C44.9568 44.8613 45.107 44.4175 45.2305 43.966C45.6829 44.0716 46.2868 43.7539 46.5805 43.4011C46.8574 43.0711 46.7368 42.3016 46.1482 42.4846C45.8453 42.6255 45.5929 42.8558 45.4249 43.1446C45.5122 42.7132 45.5773 42.2776 45.6196 41.8393C45.8742 41.818 46.1203 41.7374 46.3382 41.604C46.5561 41.4706 46.7398 41.2881 46.8745 41.071ZM44.0731 42.8347C43.9372 42.5347 44.1946 42.1939 44.4631 42.3337C44.812 42.5158 44.9641 43.4089 44.9635 43.6552C44.7667 43.5869 44.5861 43.4788 44.4329 43.3376C44.2798 43.1964 44.1573 43.0253 44.0731 42.8347ZM40.7671 48.5482C40.9522 48.055 41.3371 48.2218 41.3797 48.3826C41.4796 48.763 41.1325 49.5427 40.984 49.7392C40.857 49.5716 40.7711 49.3765 40.7335 49.1696C40.6958 48.9627 40.7073 48.7498 40.7671 48.5482ZM42.6214 49.3402C43.0114 49.4767 42.739 49.9453 42.5254 50.0407C42.3077 50.127 42.0731 50.1625 41.8395 50.1444C41.606 50.1263 41.3797 50.0551 41.1778 49.9363C41.3629 49.759 42.2125 49.1971 42.6202 49.339L42.6214 49.3402ZM42.7258 48.0988C42.5583 47.973 42.4211 47.8114 42.3241 47.6257C42.227 47.4402 42.1725 47.2353 42.1648 47.026C42.1648 46.5235 42.5791 46.5502 42.7003 46.6858C42.9628 46.9786 42.8095 47.8666 42.7258 48.0988ZM44.3356 47.755C44.7019 47.8186 44.5483 48.3463 44.2399 48.4552C44.0221 48.5328 43.7904 48.5641 43.5597 48.5471C43.3291 48.5301 43.1045 48.465 42.9004 48.3562C43.0966 48.1315 43.9468 47.689 44.3356 47.755ZM44.1376 46.0219C43.9549 45.9215 43.7953 45.7837 43.6692 45.6176C43.5432 45.4515 43.4534 45.2607 43.4059 45.0577C43.3144 44.6695 43.648 44.4403 43.8772 44.6332C44.1802 44.8861 44.1802 45.7795 44.1376 46.0219ZM45.5431 45.0217C45.9547 44.9548 45.8764 45.5401 45.7135 45.7072C45.5433 45.8679 45.3386 45.9877 45.115 46.0573C44.8915 46.1272 44.655 46.1452 44.4235 46.1098C44.5291 45.8752 45.1168 45.091 45.5431 45.0217ZM46.3921 40.4164C46.7131 40.3051 46.8388 40.7311 46.6957 40.9738C46.5858 41.1517 46.4384 41.3035 46.2638 41.4185C46.0892 41.5335 45.8916 41.6091 45.6847 41.6398C45.7243 41.3965 46.0204 40.5454 46.3921 40.4164ZM45.682 39.6664C46.312 39.6865 45.9019 40.5823 45.8128 40.7596C45.811 40.7629 45.6328 41.1196 45.5761 41.2804C45.5392 40.9756 45.4513 40.6791 45.316 40.4035C45.316 40.399 45.2758 39.6532 45.682 39.6661V39.6664ZM44.6467 40.2964C45.1018 39.9517 45.4201 41.1007 45.3967 41.611C44.8888 41.4955 44.2327 40.609 44.6467 40.2949V40.2964ZM46.2067 42.6817C46.5667 42.5938 46.5505 43.1101 46.4215 43.279C46.288 43.4407 46.1195 43.57 45.9288 43.6571C45.7381 43.7443 45.5302 43.7872 45.3205 43.7824C45.3952 43.5466 45.823 42.7741 46.2055 42.679L46.2067 42.6817Z" fill="#414141"/>
<path d="M36.1717 51.0369C36.1932 50.7737 36.1528 50.5092 36.0538 50.2644C35.9548 50.0195 35.8 49.8013 35.6017 49.6269C35.2118 49.3344 34.4617 49.4961 34.6753 50.0667C34.8869 50.4471 35.209 50.7543 35.599 50.9475C34.9753 50.9224 34.3554 50.8372 33.748 50.6931C33.958 50.3274 33.8603 49.6239 33.5732 49.2099C33.3074 48.8268 32.5531 48.7899 32.5876 49.3647C32.6101 49.7466 33.0013 50.2914 33.3106 50.5818C32.6362 50.3805 31.9799 50.1225 31.3489 49.8105C31.7932 49.2648 31.6105 47.8803 30.8578 47.9529C30.1108 48.0219 30.4418 48.9369 30.8767 49.5534C30.2857 49.215 29.7259 48.825 29.2036 48.3879C29.2096 48.3849 29.218 48.3852 29.2231 48.3816C29.4099 48.1917 29.5444 47.9568 29.6136 47.6996C29.6828 47.4424 29.6843 47.1716 29.618 46.9137C29.5991 46.7872 29.5381 46.6707 29.4449 46.5832C29.3516 46.4957 29.2315 46.4423 29.104 46.4316C28.3279 46.3671 28.5247 47.424 28.888 48.1116C28.4695 47.736 28.0765 47.3328 27.7117 46.9047C28.2271 46.44 28.2478 45.0216 27.4777 44.9883C27.3704 44.9886 27.2657 45.022 27.1781 45.0841C27.0905 45.1462 27.0243 45.2339 26.9884 45.3351C26.8732 45.1953 26.4962 44.8356 26.114 45.1152C25.8329 45.3207 25.771 45.6912 26.2039 46.0986C25.8916 46.1601 25.7176 46.2963 25.6939 46.5357C25.6819 46.6629 25.7126 46.7904 25.7812 46.8982C25.8498 47.006 25.9523 47.0878 26.0725 47.1309C26.3132 47.2168 26.5687 47.2529 26.8237 47.2371C27.0788 47.2212 27.3279 47.1538 27.556 47.0388C27.8463 47.3787 28.1541 47.7033 28.4779 48.0114C28.1407 47.8803 27.1708 47.6187 27.2023 48.3642C27.2344 49.1223 28.6477 49.101 29.1169 48.5814C29.4814 48.8835 29.8636 49.1635 30.2614 49.4199C29.9332 49.3575 29.0387 49.2999 29.1269 50.0028C29.2264 50.7957 30.7726 50.6127 31.2202 49.9728C31.7641 50.2533 32.3302 50.4882 32.9131 50.6751C32.5207 50.7276 31.5781 51.0372 31.8754 51.6696C32.1955 52.3506 33.559 51.6876 33.7954 50.9136C34.1686 50.9982 34.5059 51.0531 34.8017 51.0897C34.5854 51.1563 33.9773 51.3864 34.2515 51.9807C34.5641 52.6623 36.046 52.0218 36.1717 51.0369ZM26.1001 45.5622C26.0539 45.0474 26.8018 45.1359 26.9701 45.666C27.0238 45.9795 27.128 46.2823 27.2788 46.5624C26.9617 46.3356 26.1379 45.9873 26.1001 45.5622ZM25.8988 46.5582C26.0332 45.909 27.2266 46.7466 27.3893 46.9134C26.9213 47.232 25.7998 47.0376 25.8988 46.5582ZM27.4702 45.1953C27.964 45.1623 27.9877 46.3086 27.6115 46.7205C27.4588 46.5234 26.7619 45.2427 27.469 45.1953H27.4702ZM27.409 48.3552C27.409 47.6535 28.7656 48.3492 28.936 48.4776C28.5352 48.8514 27.409 48.8607 27.409 48.3552ZM28.807 46.7802C28.8232 46.7325 28.8554 46.6918 28.8982 46.6653C28.941 46.6387 28.9917 46.6279 29.0416 46.6347C29.7292 46.6347 29.4208 47.9922 29.1586 48.1671C29.0143 47.9628 28.6612 47.151 28.8061 46.7802H28.807ZM29.329 49.9686C29.3092 49.215 30.856 49.7862 31.0297 49.8891C30.6217 50.3955 29.3437 50.5017 29.329 49.9686ZM31.2154 49.6509C31.0384 49.4751 30.5476 48.738 30.6253 48.3474C30.6409 48.2682 30.683 48.1674 30.8762 48.1572C31.5074 48.1296 31.4101 49.374 31.2163 49.6518L31.2154 49.6509ZM32.543 51.729C32.3102 51.7737 32.1076 51.7353 32.0503 51.5637C31.8055 50.8326 33.5782 50.8644 33.5965 50.8689C33.4973 51.0824 33.3511 51.2708 33.1688 51.4199C32.9865 51.569 32.7729 51.675 32.5438 51.7299L32.543 51.729ZM33.593 50.5545C33.389 50.4105 32.7943 49.7655 32.7943 49.3674C32.7943 49.0074 33.3022 49.0992 33.436 49.3389C33.5426 49.5207 33.6113 49.7222 33.6382 49.9312C33.6652 50.1402 33.6496 50.3525 33.5926 50.5554L33.593 50.5545ZM34.8748 50.0085C34.7821 49.6149 35.2828 49.6209 35.4787 49.7904C35.6377 49.9295 35.7653 50.1008 35.8532 50.2928C35.9411 50.4849 35.9873 50.6934 35.9888 50.9046C35.7523 50.8284 34.9654 50.3967 34.8745 50.0094L34.8748 50.0085ZM34.4264 51.8748C34.0805 51.0552 35.9318 51.1638 35.9767 51.171C35.7829 51.7959 34.6324 52.3641 34.426 51.8757L34.4264 51.8748Z" fill="#414141"/>
<path d="M33.2964 20.631C33.2678 20.6307 33.2404 20.6195 33.2198 20.5997C33.1992 20.5799 33.187 20.5529 33.1857 20.5244C33.1843 20.4958 33.194 20.4678 33.2126 20.4461C33.2312 20.4245 33.2575 20.4107 33.2859 20.4078C33.3255 20.4042 37.2492 20.0397 38.9436 19.9629C38.9719 19.9638 38.9987 19.9754 39.0188 19.9953C39.0388 20.0151 39.0507 20.0418 39.0519 20.0701C39.0532 20.0983 39.0437 20.1259 39.0255 20.1475C39.0073 20.1691 38.9816 20.1829 38.9535 20.1864C36.9954 20.2749 33.3843 20.631 33.2964 20.631Z" fill="#7BD2FF"/>
<path d="M34.28 24.5727C34.3163 24.5694 37.9382 24.2229 40.3574 24.1779C40.3722 24.1772 40.3869 24.1795 40.4008 24.1847C40.4146 24.1899 40.4273 24.1978 40.4379 24.2081C40.4486 24.2183 40.4571 24.2307 40.4628 24.2443C40.4686 24.2579 40.4715 24.2726 40.4714 24.2874C40.4759 24.5547 40.3046 24.2274 34.3016 24.7956C34.272 24.7984 34.2426 24.7894 34.2196 24.7705C34.1967 24.7517 34.1822 24.7245 34.1794 24.6949C34.1765 24.6653 34.1855 24.6359 34.2044 24.6129C34.2232 24.59 34.2504 24.5755 34.28 24.5727Z" fill="#7BD2FF"/>
<path d="M36.6291 29.5778C36.6013 29.5775 36.5746 29.5668 36.5542 29.5478C36.5338 29.5288 36.5213 29.503 36.5189 29.4752C36.5166 29.4475 36.5247 29.4199 36.5416 29.3978C36.5586 29.3757 36.5831 29.3607 36.6105 29.3558C36.639 29.351 39.4605 28.8689 40.7544 28.7384C40.783 28.7371 40.811 28.7469 40.8327 28.7656C40.8544 28.7844 40.868 28.8107 40.8709 28.8392C40.8738 28.8677 40.8656 28.8962 40.8482 28.9189C40.8307 28.9416 40.8052 28.9568 40.7769 28.9613C39.4059 29.0993 36.666 29.5778 36.6291 29.5778Z" fill="#7BD2FF"/>
<path d="M23.3045 37.7338C23.2781 37.7337 23.2525 37.7242 23.2324 37.707C23.2123 37.6898 23.1989 37.6661 23.1947 37.6399C23.1906 37.6138 23.1958 37.5871 23.2094 37.5645C23.223 37.5418 23.2442 37.5247 23.2691 37.516C23.3291 37.4956 29.4746 35.4625 41.4647 32.9899C41.4861 32.9862 41.508 32.9888 41.5279 32.9974C41.5478 33.0059 41.5648 33.0201 41.5768 33.0381C41.5888 33.0561 41.5952 33.0772 41.5954 33.0989C41.5956 33.1206 41.5895 33.1418 41.5778 33.16C41.5625 33.1845 41.5381 33.2021 41.51 33.2089C27.9029 36.0148 23.5955 37.7338 23.3045 37.7338Z" fill="#7BD2FF"/>
<path d="M24.7588 41.8208C24.7322 41.8204 24.7065 41.8106 24.6864 41.7932C24.6662 41.7757 24.6529 41.7517 24.6487 41.7254C24.6447 41.699 24.6503 41.672 24.6645 41.6494C24.6787 41.6267 24.7006 41.61 24.7261 41.6021C24.8356 41.5688 35.7703 38.2331 42.6832 36.5414C42.7115 36.5355 42.741 36.5409 42.7653 36.5564C42.7897 36.572 42.8071 36.5964 42.8137 36.6245C42.8207 36.6525 42.8166 36.6822 42.8022 36.7072C42.7877 36.7322 42.7641 36.7506 42.7363 36.7586C35.3374 38.5679 24.8407 41.8208 24.7588 41.8208Z" fill="#7BD2FF"/>
<path d="M30.9619 44.1716C31.0312 44.1485 37.9249 41.8424 40.9858 41.0114C41.0145 41.004 41.0448 41.0081 41.0705 41.0228C41.0962 41.0375 41.1151 41.0616 41.1232 41.09C41.1883 41.33 41.0998 41.0207 31.033 44.3837C31.0052 44.3923 30.9751 44.3897 30.9491 44.3763C30.9232 44.363 30.9036 44.34 30.8944 44.3123C30.8852 44.2847 30.8871 44.2546 30.8997 44.2283C30.9123 44.2021 30.9346 44.1817 30.9619 44.1716Z" fill="#7BD2FF"/>
<path d="M35.7856 46.6288C35.7653 46.6288 35.7454 46.6232 35.7279 46.6127C35.7105 46.6022 35.6963 46.5871 35.6868 46.5692C35.6773 46.5512 35.6729 46.5309 35.674 46.5106C35.6751 46.4903 35.6818 46.4707 35.6932 46.4539C35.7088 46.4315 35.7319 46.4155 35.7583 46.4089C39.3679 45.4696 39.4879 45.166 39.5656 45.3913C39.5705 45.4052 39.5726 45.4198 39.5717 45.4345C39.5708 45.4492 39.5671 45.4635 39.5606 45.4767C39.5542 45.4899 39.5452 45.5017 39.5342 45.5114C39.5231 45.5211 39.5103 45.5285 39.4963 45.5332C38.2873 45.949 35.9071 46.6288 35.7856 46.6288Z" fill="#7BD2FF"/>
<path d="M9.81528 25.013C9.7896 25.013 9.76469 25.0042 9.74472 24.9881C9.72474 24.972 9.71092 24.9495 9.70558 24.9244C9.70023 24.8993 9.70368 24.8731 9.71536 24.8502C9.72703 24.8273 9.74621 24.8092 9.76968 24.7988C11.1782 24.1607 12.6234 23.6067 14.0975 23.1398C14.1258 23.133 14.1556 23.1376 14.1806 23.1525C14.2057 23.1674 14.2239 23.1914 14.2315 23.2195C14.239 23.2476 14.2353 23.2776 14.2212 23.303C14.2071 23.3284 14.1836 23.3474 14.1557 23.3558C12.4127 23.8268 9.89718 25.013 9.81528 25.013Z" fill="#7BD2FF"/>
<path d="M11.7501 29.1789C11.7244 29.1788 11.6994 29.1698 11.6796 29.1535C11.6597 29.1371 11.646 29.1145 11.6409 29.0892C11.6358 29.064 11.6395 29.0378 11.6515 29.015C11.6635 28.9922 11.6829 28.9742 11.7066 28.9641C12.669 28.5558 13.6587 28.2149 14.6685 27.9441C14.6975 27.9376 14.7278 27.9429 14.7529 27.9588C14.7779 27.9747 14.7957 27.9999 14.8022 28.0289C14.8086 28.0578 14.8034 28.0882 14.7875 28.1132C14.7716 28.1383 14.7464 28.156 14.7174 28.1625C13.7083 28.4398 12.7173 28.7793 11.7501 29.1789Z" fill="#7BD2FF"/>
<path d="M13.7676 33.6143C13.7413 33.6142 13.716 33.6049 13.696 33.588C13.6759 33.571 13.6625 33.5476 13.6579 33.5218C13.6534 33.496 13.6581 33.4694 13.6712 33.4467C13.6842 33.4239 13.7049 33.4065 13.7295 33.3974C14.2791 33.1919 14.8409 33.0201 15.4116 32.8832C15.4301 32.8793 15.4494 32.8802 15.4675 32.8858C15.4856 32.8914 15.502 32.9016 15.5151 32.9152C15.5282 32.9289 15.5376 32.9457 15.5425 32.9641C15.5473 32.9824 15.5474 33.0017 15.5427 33.02C15.5372 33.0422 15.5251 33.0621 15.5079 33.0772C15.4907 33.0922 15.4694 33.1016 15.4467 33.104C14.9367 33.1853 13.8225 33.6143 13.7676 33.6143Z" fill="#7BD2FF"/>
<path d="M20.8531 58.3819C20.8912 58.3735 21.7858 58.1575 22.0192 56.833C22.0245 56.8039 22.041 56.7779 22.0651 56.7607C22.0772 56.7523 22.0909 56.7462 22.1053 56.743C22.1269 56.7381 22.1494 56.7398 22.1701 56.7478C22.1907 56.7558 22.2085 56.7698 22.2211 56.788C22.2381 56.8123 22.2448 56.8424 22.2397 56.8717C21.979 58.3504 20.9449 58.591 20.9011 58.6003C20.8726 58.6052 20.8434 58.599 20.8194 58.583C20.7954 58.567 20.7784 58.5424 20.7721 58.5142C20.766 58.486 20.771 58.4564 20.786 58.4318C20.8011 58.4071 20.8251 58.3893 20.8531 58.3819Z" fill="#414141"/>
<path d="M26.5639 26.0043C26.182 26.0043 24.7057 24.5343 24.5305 24.4029C24.5056 24.384 24.4867 24.3582 24.4762 24.3288C24.4656 24.2993 24.4639 24.2674 24.4713 24.237C24.4786 24.2066 24.4946 24.179 24.5174 24.1576C24.5402 24.1362 24.5687 24.1218 24.5995 24.1164C24.6408 24.1096 24.683 24.1194 24.7171 24.1437C24.8371 24.2295 26.1544 25.4907 26.5258 25.6689C26.7865 25.29 27.5701 22.9065 27.6793 22.4235C27.6899 22.3835 27.7157 22.3492 27.751 22.3278C27.7864 22.3064 27.8287 22.2995 27.8691 22.3086C27.9094 22.3178 27.9447 22.3422 27.9674 22.3767C27.9901 22.4113 27.9986 22.4533 27.991 22.494C27.9364 22.7367 26.9818 26.0043 26.5639 26.0043Z" fill="white"/>
<path d="M30.8403 24.3088C32.3538 23.6152 31.9428 22.6687 30.6003 22.7113C30.9453 22.3693 31.4883 21.7336 31.1976 21.3313C30.9069 20.935 30.1113 21.1555 29.6799 21.3151C29.8812 20.8651 30.1899 20.002 29.7567 19.7497C29.3541 19.5133 28.7631 19.9957 28.4403 20.3152C28.5192 18.7513 27.6336 18.5638 26.7564 19.951C26.3616 18.7003 25.4925 18.6412 25.0887 20.1553C23.9634 18.8896 23.1897 19.4575 23.5359 20.8648C22.2918 20.1982 21.609 20.8861 22.4781 22.0693C20.922 21.8566 20.7711 22.6516 21.8742 23.5615C20.6391 23.7655 20.4321 24.6526 21.9702 25.2451C21.6252 25.4689 21.015 25.945 21.2067 26.3923C21.4239 26.9002 22.2267 26.8723 22.6698 26.8141C22.4271 27.1441 22.0851 27.7342 22.4463 28.1041C22.8075 28.474 23.5563 28.1554 23.9223 27.9637C23.8776 28.312 23.6466 29.5045 24.5646 29.5771C25.0863 29.6185 25.6542 28.7815 25.6542 28.7815C25.6542 28.7815 25.9566 29.4784 26.3922 29.6155C27.3786 29.9263 27.5361 28.7881 27.6033 28.4455C27.8235 28.6597 28.6233 29.4607 29.3157 28.7875C29.6625 28.4503 29.3955 27.5956 29.3955 27.5956C29.3955 27.5956 30.1692 27.8215 30.5655 27.5509C31.3239 27.0325 30.6999 26.065 30.537 25.8448C31.5978 25.9309 31.737 25.3813 31.7445 25.2505C31.7703 24.7816 31.1952 24.4621 30.8403 24.3088ZM30.6303 24.1555C30.6184 23.7427 30.543 23.3342 30.4068 22.9444C31.8387 22.8142 32.0148 23.5822 30.6294 24.1555H30.6303ZM31.017 21.4651C31.2057 21.7207 30.7104 22.3183 30.3045 22.6855C30.1323 22.2838 29.896 21.9126 29.6049 21.5866C29.9874 21.43 30.8052 21.1744 31.0161 21.4651H31.017ZM29.6463 19.9411C29.9244 20.104 29.6271 20.9218 29.4063 21.3787C29.1173 21.0909 28.7879 20.8466 28.4286 20.6536C28.6869 20.3659 29.3355 19.759 29.6454 19.9411H29.6463ZM27.9114 19.2511C28.2597 19.3309 28.2414 20.1619 28.1991 20.5387C27.7842 20.3455 27.3406 20.2215 26.8857 20.1715C27.099 19.8163 27.5655 19.1647 27.9105 19.2508L27.9114 19.2511ZM25.9368 19.2415C26.3298 19.2448 26.496 19.8262 26.5821 20.1457C26.1479 20.1234 25.7129 20.1676 25.2921 20.2768C25.3833 19.9123 25.6164 19.2412 25.9359 19.2412L25.9368 19.2415ZM23.8668 19.7113C24.1701 19.5355 24.723 20.0692 24.9819 20.3695C24.5578 20.5115 24.1588 20.7196 23.7996 20.986C23.6928 20.629 23.5524 19.8931 23.8656 19.711L23.8668 19.7113ZM22.3809 20.9221C22.5609 20.6473 23.349 21.0052 23.5854 21.1522C23.2702 21.4198 22.9958 21.732 22.7709 22.0789C22.5459 21.8071 22.1721 21.2446 22.3797 20.9218L22.3809 20.9221ZM21.3936 22.4719C21.4641 22.2034 22.1925 22.2451 22.6236 22.3186C22.4154 22.6927 22.2686 23.0979 22.1889 23.5186C21.8238 23.2543 21.3159 22.7623 21.3924 22.4716L21.3936 22.4719ZM21.1125 24.2719C21.1317 23.8948 21.8571 23.7703 22.1508 23.7511C22.0926 24.1957 22.1077 24.6469 22.1955 25.0867C21.8493 24.97 21.0921 24.6379 21.1101 24.2704L21.1125 24.2719ZM21.4161 26.3071C21.2787 25.9846 21.9657 25.5019 22.2561 25.3357C22.3733 25.7747 22.5662 26.19 22.8261 26.5627C22.4181 26.6413 21.5841 26.7052 21.4149 26.3056L21.4161 26.3071ZM22.9803 26.779C23.2547 27.1325 23.5837 27.44 23.955 27.6898C22.6515 28.456 22.0143 27.9418 22.9803 26.779ZM24.8433 29.2267C24.6333 29.3416 23.8233 29.5396 24.1722 27.8239C24.621 28.0899 25.1149 28.2708 25.6293 28.3576C25.4271 28.6961 25.16 28.9912 24.8433 29.2261V29.2267ZM26.7282 29.428C26.1084 29.5141 25.9137 28.528 25.9137 28.396C26.4107 28.4499 26.9133 28.4174 27.3993 28.3C27.3993 28.5613 27.2139 29.359 26.7282 29.4274V29.428ZM28.9722 28.7254C28.4514 28.9939 27.9522 28.4821 27.69 28.2169C28.2163 28.0536 28.7051 27.7876 29.1279 27.4342C29.1597 27.4879 29.4675 28.4692 28.9722 28.7248V28.7254ZM26.3736 28.1977C25.604 28.1745 24.8582 27.9251 24.2295 27.4807C23.6008 27.0362 23.1169 26.4164 22.8383 25.6986C22.5598 24.9808 22.4989 24.1968 22.6632 23.4446C22.8275 22.6923 23.2098 22.0052 23.7623 21.4689C24.3148 20.9327 25.0131 20.5711 25.7699 20.4293C26.5267 20.2875 27.3085 20.3718 28.0177 20.6717C28.7268 20.9716 29.332 21.4737 29.7574 22.1154C30.1829 22.7572 30.4099 23.51 30.4101 24.28C30.3928 25.3342 29.9582 26.3386 29.2015 27.0729C28.4448 27.8072 27.4279 28.2114 26.3736 28.1971V28.1977ZM30.54 27.2104C30.1278 27.6514 29.4954 27.3544 29.3226 27.2617C29.7289 26.8717 30.0584 26.4089 30.294 25.8973C30.4251 26.0629 30.9777 26.7403 30.54 27.2098V27.2104ZM30.4026 25.6204C30.5359 25.2497 30.6113 24.8608 30.6264 24.4672C30.9618 24.5872 31.5753 24.8857 31.521 25.2436C31.4538 25.6729 30.6837 25.6315 30.4026 25.6186V25.6204Z" fill="#414141"/>
<path d="M25.6104 29.2012C25.2681 29.7412 24.5349 30.1261 24.0384 29.6167C23.5335 31.1824 23.1504 33.6235 23.3514 33.7639C23.511 33.8758 24.7188 32.8885 25.0014 32.6743C25.0162 32.6634 25.034 32.6576 25.0524 32.6576C25.0707 32.6576 25.0886 32.6634 25.1034 32.6743C25.3782 32.8789 26.3814 33.8056 26.6244 33.7576C26.8302 33.7183 26.7264 31.8409 26.9439 29.8372C26.6568 30.0466 25.8909 29.9629 25.6104 29.2012Z" fill="#414141"/>
<path d="M31.1153 27.0723C31.1075 27.3291 30.9971 28.0446 29.6903 27.9063C29.7638 28.3536 29.8487 29.1363 28.9043 29.2452C29.3003 30.012 30.6872 32.6289 30.911 32.5935C31.0931 32.5635 31.6874 30.7404 31.7735 30.4785C31.7761 30.4695 31.7816 30.4617 31.7892 30.4563C31.7967 30.4508 31.8059 30.4481 31.8152 30.4485C32.0834 30.4644 33.7259 30.621 33.7928 30.4932C33.9803 30.1443 31.4003 27.3612 31.1153 27.0723Z" fill="#414141"/>
<path d="M42.6319 16.039C42.6238 16.0043 42.6022 15.9742 42.5719 15.9553C42.3961 15.8527 38.2765 15.4369 32.662 15.6652C32.6449 15.5725 31.9609 13.9495 31.864 12.4414C31.8624 12.4216 31.8558 12.4025 31.845 12.3859C31.8341 12.3692 31.8193 12.3555 31.8019 12.346C31.5247 12.199 17.4268 13.609 6.5548 19.9837C6.4624 20.0377 6.2209 20.1859 8.548 28.309C7.9378 27.6289 7.4872 27.2218 7.3198 27.169C7.1938 27.1306 7.0735 27.2245 7.1566 27.4231C8.0368 29.5306 7.8907 34.9324 8.7904 40.8004C9.5875 45.9976 13.6504 51.4639 14.5987 52.6804C13.9894 52.5529 13.2055 52.4368 13.0402 52.642C13.0157 52.673 13.001 52.7107 12.9981 52.7501C12.9952 52.7895 13.0043 52.8289 13.024 52.8631C15.4723 57.9733 19.7254 58.6309 19.768 58.6366C19.7731 58.6366 20.7307 60.7291 21.2266 61.7932C21.2397 61.8191 21.2624 61.8388 21.2898 61.8481C21.3172 61.8575 21.3471 61.8558 21.3733 61.8433C21.3996 61.8313 21.4202 61.8095 21.4307 61.7826C21.4411 61.7556 21.4407 61.7256 21.4294 61.699C20.931 60.63 20.441 59.557 19.9594 58.4803C20.6034 57.6399 21.0208 56.6483 21.1717 55.6003C21.1897 55.6003 23.1319 54.4585 24.7573 54.148C25.426 55.313 26.1306 56.4569 26.8702 57.5782C27.2713 58.1827 38.4307 53.242 54.3868 50.1619C54.4054 50.1574 54.4228 50.149 54.438 50.1373C54.4532 50.1256 54.4658 50.1109 54.475 50.0941C54.7174 49.5973 46.2745 36.3748 42.6319 16.039ZM19.8535 58.2445C16.1874 50.0651 12.9824 41.6868 10.2535 33.1489C10.2447 33.1208 10.2251 33.0973 10.199 33.0835C10.173 33.0698 10.1426 33.0668 10.1143 33.0754C10.0861 33.0839 10.0624 33.1032 10.0484 33.1291C10.0343 33.155 10.0311 33.1854 10.0393 33.2137C12.7779 41.7804 15.9953 50.1866 19.6762 58.3927C18.9673 58.2427 15.3958 57.2788 13.2313 52.7749C13.3846 52.7074 14.1049 52.7911 14.8579 52.9684C14.8806 52.9735 14.9044 52.9714 14.9258 52.9624C14.9473 52.9534 14.9655 52.938 14.9779 52.9183C14.9903 52.8985 14.9962 52.8754 14.9948 52.8521C14.9934 52.8288 14.9847 52.8066 14.9701 52.7884C14.9194 52.7269 9.9022 46.5685 9.0127 40.768C8.1319 35.0242 8.2564 29.7463 7.4281 27.5005C8.5999 28.4785 14.4904 35.3419 15.4819 42.493C15.4851 42.5161 15.4956 42.5377 15.5117 42.5545C15.5279 42.5714 15.5489 42.5827 15.5719 42.5869C15.5948 42.5912 15.6184 42.5883 15.6395 42.5786C15.6607 42.5689 15.6782 42.5528 15.6898 42.5326C15.9108 42.0926 16.0472 41.6151 16.0918 41.1247C16.8667 42.1201 20.3356 47.704 20.9632 52.6489C21.2599 54.9946 20.8831 56.872 19.8535 58.2445ZM16.9435 41.98C16.1473 40.7254 16.0486 40.7482 15.9757 40.7686C15.9514 40.776 15.9298 40.7905 15.9138 40.8102C15.8978 40.83 15.888 40.854 15.8857 40.8793C15.8622 41.2877 15.7805 41.6907 15.643 42.076C14.7499 36.589 11.0269 31.1866 8.851 28.6549C8.8615 28.6318 6.6589 20.6782 6.7012 20.1571C17.1247 14.059 30.322 12.5458 31.6654 12.5458C31.8203 13.611 32.0779 14.6587 32.4346 15.6742C27.3472 15.8956 21.0763 16.6489 15.4036 18.6331C15.3136 18.6631 15.3034 18.7945 15.2911 18.8941C15.2098 19.5457 15.196 21.7084 15.5152 24.8809C15.985 30.4891 17.7799 39.481 21.8797 48.619C22.6836 50.4529 23.6017 52.2346 24.6286 53.9536C23.3629 54.1723 21.5764 55.1284 21.2152 55.3336C21.8962 50.0107 17.5489 42.9322 16.9447 41.98H16.9435ZM27.0415 57.4327C15.5167 39.9844 15.2152 20.1091 15.5248 18.829C27.4129 14.6872 41.4535 15.907 42.4225 16.1401C45.8566 35.2468 53.7565 48.643 54.2455 49.9633C39.4699 52.8253 27.9148 57.5443 27.0427 57.4327H27.0415Z" fill="#414141"/>
<path d="M15.3376 37.1888C15.3115 37.1885 15.2863 37.179 15.2664 37.1622C15.2465 37.1453 15.233 37.1221 15.2284 37.0964C15.2237 37.0707 15.2282 37.0441 15.2411 37.0214C15.2541 36.9987 15.2746 36.9812 15.2992 36.9722C15.7427 36.7916 16.2001 36.6473 16.6669 36.5405C16.6814 36.5381 16.6963 36.5387 16.7106 36.5421C16.7249 36.5455 16.7384 36.5517 16.7503 36.5604C16.7622 36.569 16.7723 36.5799 16.7799 36.5925C16.7876 36.605 16.7927 36.619 16.795 36.6335C16.7973 36.648 16.7967 36.6628 16.7933 36.6771C16.7899 36.6914 16.7837 36.7049 16.775 36.7168C16.7664 36.7287 16.7555 36.7388 16.743 36.7465C16.7304 36.7542 16.7165 36.7593 16.702 36.7616C16.2386 36.8749 15.7829 37.0176 15.3376 37.1888Z" fill="#7BD2FF"/>
<path d="M52.7392 39.5536C52.7392 39.5536 52.5436 41.2588 52.6849 41.7268C52.8262 42.1948 55.2664 42.7252 56.4538 42.7168C57.6975 42.6363 58.9279 42.414 60.121 42.0541C60.2323 41.9641 60.295 40.3849 60.1765 39.9781C60.058 39.5713 59.4343 38.9356 56.6515 38.7058C53.8687 38.476 52.8019 39.3592 52.7392 39.5536Z" fill="white"/>
<path d="M62.707 44.7784C62.3503 43.5094 61.3243 42.9868 60.6913 42.6643C60.5657 42.6054 60.4562 42.5169 60.3723 42.4064C60.2884 42.2959 60.2325 42.1666 60.2095 42.0298C60.4048 41.3209 60.4231 40.5751 60.2632 39.8575C60.1453 39.3262 58.387 38.68 56.3821 38.5936C54.3607 38.5069 52.7821 39.0229 52.6567 39.5287C52.5382 40.1499 52.491 40.7826 52.516 41.4145C52.5208 41.4826 52.5442 41.5477 52.5835 41.6035C52.5793 41.6155 52.6582 41.9485 52.0489 42.2725C51.3964 42.6193 50.5471 42.949 50.0341 44.3404C49.5922 45.5404 49.4824 49.4515 49.4512 50.1373C49.3951 51.3769 49.8046 52.2934 50.6332 52.6495C53.5183 53.8894 58.0699 53.8306 60.7408 53.4487C62.2798 53.2285 62.7916 52.3408 62.8249 50.7019C62.8288 50.5126 63.1207 46.2514 62.707 44.7784ZM53.2975 40.171C53.2356 40.7147 53.2092 41.2618 53.2186 41.809C53.1091 41.7554 53.0017 41.6974 52.8967 41.6353C52.7986 41.557 52.741 41.4811 52.7398 41.4109C52.7362 40.9031 52.7678 40.3957 52.8346 39.8923C52.9753 40.0063 53.1313 40.1005 53.2975 40.1722V40.171ZM54.3652 40.5271C54.3421 40.7857 54.2752 41.5555 54.2242 42.1789C54.175 42.166 53.6542 42.0013 53.4496 41.914C53.4293 41.3626 53.4505 40.8104 53.5132 40.2622C53.791 40.3693 54.0757 40.4581 54.3652 40.5283V40.5271ZM60.091 40.2571C60.1582 40.8439 60.1036 41.8588 60.0067 41.9695C59.8369 42.0176 59.6657 42.061 59.4934 42.0997C59.5156 41.6362 59.485 40.8148 59.4751 40.5769C59.7029 40.5211 59.9141 40.4118 60.091 40.258V40.2571ZM59.2537 40.6366C59.2654 40.9366 59.2927 41.7436 59.2666 42.1477C58.9477 42.2127 58.6267 42.2678 58.3042 42.3127C58.3294 41.9257 58.342 41.0227 58.3453 40.7761C58.6509 40.7508 58.9544 40.7048 59.2537 40.6384V40.6366ZM58.078 42.3424C57.7506 42.3832 57.4218 42.4124 57.0922 42.43C57.1111 42.01 57.139 41.1346 57.1486 40.8295C57.4731 40.8283 57.7975 40.8166 58.1212 40.7944C58.1176 41.0791 58.1035 42.0184 58.078 42.3433V42.3424ZM56.8678 42.4399C56.4824 42.454 56.0964 42.4477 55.7116 42.421C55.7491 42.0364 55.8316 40.9174 55.8409 40.7782C56.0644 40.7998 56.7709 40.8277 56.9248 40.8289C56.9149 41.1457 56.8867 42.0349 56.8693 42.4408L56.8678 42.4399ZM55.4878 42.4021C55.234 42.3781 54.5362 42.2563 54.4435 42.2347C54.4918 41.6293 54.5584 40.8697 54.5842 40.579C54.9121 40.6516 55.2613 40.7122 55.6174 40.7545C55.6123 40.8388 55.5262 42.0229 55.4893 42.403L55.4878 42.4021ZM56.3716 38.8174C58.4539 38.9074 59.9944 39.5272 60.0172 39.9013C60.0178 39.938 60.0106 39.9744 59.9963 40.0082C59.9819 40.042 59.9607 40.0724 59.9338 40.0975C59.5834 40.4821 56.1706 41.1301 53.449 39.9928C53.2291 39.901 52.6369 39.6409 53.005 39.4057C54.1693 38.6632 56.2207 38.8117 56.3725 38.8183L56.3716 38.8174Z" fill="#414141"/>
<path d="M56.6485 40.2191C56.6198 40.2142 56.594 40.1985 56.5767 40.1751C56.5594 40.1517 56.5518 40.1225 56.5555 40.0937C56.5594 40.0647 56.5744 40.0385 56.5974 40.0205C56.6204 40.0025 56.6495 39.9942 56.6785 39.9974C57.3847 40.0832 58.1014 40.0145 58.7785 39.7964C58.8064 39.7859 58.8373 39.7867 58.8646 39.7988C58.8851 39.8077 58.9024 39.8225 58.9144 39.8414C58.9264 39.8602 58.9324 39.8822 58.9318 39.9046C58.9311 39.9269 58.9238 39.9485 58.9108 39.9667C58.8977 39.9848 58.8796 39.9986 58.8586 40.0064C58.148 40.2461 57.3918 40.3189 56.6485 40.2191Z" fill="#414141"/>
<path d="M61.6314 46.5236C61.5834 46.0412 61.2993 45.7247 60.7368 45.5336C60.5451 45.4697 59.2968 45.1022 58.8768 44.8979C58.064 44.4652 57.1714 44.2031 56.2536 44.1278C55.1385 44.0735 54.3972 44.3546 53.397 44.7878C52.3188 45.2555 51.5037 45.2237 51.186 45.6662C51.0788 45.8411 51.0163 46.0398 51.0039 46.2446C50.9175 46.8614 50.7417 49.6769 50.745 50.2928C50.7468 50.5964 50.76 50.9912 51.4416 51.2513C53.9394 52.2053 58.8423 51.9578 60.3783 51.686C61.0794 51.5618 61.3983 51.4049 61.4883 50.51C61.5612 49.7954 61.6539 46.7282 61.6314 46.5236Z" fill="white"/>
<path d="M51.6194 47.5775C51.6569 47.1176 51.6584 46.8194 51.6932 46.6034C51.8381 45.7133 52.2809 45.9884 53.6732 45.4448C53.7008 45.4343 53.7314 45.4352 53.7583 45.4471C53.7853 45.4591 53.8064 45.4813 53.8171 45.5087C53.8278 45.5362 53.8272 45.5668 53.8155 45.5939C53.8038 45.6209 53.7819 45.6423 53.7545 45.6533C52.3409 46.2047 52.0319 45.9173 51.9143 46.6391C51.8789 46.8581 51.8975 46.925 51.8426 47.5955C51.8402 47.6251 51.8261 47.6525 51.8035 47.6717C51.7809 47.691 51.7516 47.7005 51.722 47.6981C51.6924 47.6957 51.6649 47.6816 51.6457 47.659C51.6265 47.6364 51.617 47.6071 51.6194 47.5775Z" fill="#414141"/>
<path d="M60.7162 47.701C60.721 47.3662 60.7237 46.9861 60.7192 46.9411C60.6424 46.1851 59.6392 46.3201 58.4611 45.7747C57.7773 45.4298 57.034 45.2184 56.2711 45.1519C55.7623 45.0752 55.2423 45.139 54.7672 45.3364C54.7401 45.3438 54.7112 45.3406 54.6864 45.3275C54.6616 45.3144 54.6426 45.2924 54.6334 45.2659C54.6239 45.2395 54.6247 45.2106 54.6356 45.1847C54.6465 45.1589 54.6667 45.1381 54.6922 45.1264C55.1951 44.9199 55.7441 44.852 56.2822 44.9296C57.074 44.9969 57.8456 45.2152 58.5553 45.5728C59.7061 46.1047 60.8464 45.9769 60.9421 46.9192C60.9499 46.9936 60.9421 47.5867 60.9403 47.7049C60.9401 47.7197 60.9371 47.7342 60.9312 47.7477C60.9253 47.7612 60.9168 47.7734 60.9061 47.7835C60.8902 47.799 60.8701 47.8094 60.8483 47.8134C60.8265 47.8173 60.804 47.8147 60.7837 47.8057C60.7633 47.797 60.7459 47.7824 60.7339 47.7637C60.7218 47.7451 60.7157 47.7232 60.7162 47.701Z" fill="#414141"/>
<path d="M55.0255 51.1849C54.9973 51.1792 54.9724 51.1629 54.9559 51.1394C54.9393 51.1159 54.9324 51.0869 54.9366 51.0585C54.9408 51.0301 54.9558 51.0043 54.9784 50.9866C55.001 50.9688 55.0296 50.9605 55.0582 50.9632C56.6215 51.1537 58.2041 51.1177 59.7571 50.8564C60.334 50.7634 60.4882 50.6764 60.559 50.0971C60.7171 48.7975 60.574 48.6223 60.7798 48.6055C60.7945 48.606 60.809 48.6095 60.8224 48.6158C60.8357 48.622 60.8477 48.6308 60.8577 48.6416C60.8676 48.6525 60.8753 48.6653 60.8803 48.6792C60.8852 48.693 60.8874 48.7078 60.8866 48.7225C60.7966 50.6806 60.7618 50.9209 59.7925 51.0775C58.2182 51.355 56.6108 51.3912 55.0255 51.1849Z" fill="#414141"/>
<path d="M53.8699 51.0754C53.8219 51.0754 52.3156 50.8522 52.0399 50.7625C51.4315 50.5624 51.4315 50.2171 51.4315 49.9648C51.4315 49.5472 51.4915 48.838 51.5275 48.3838C51.5303 48.3545 51.5444 48.3274 51.5668 48.3084C51.5892 48.2893 51.6182 48.2796 51.6475 48.2815C51.677 48.2839 51.7042 48.2979 51.7234 48.3204C51.7426 48.3429 51.7521 48.372 51.7498 48.4015C51.6883 49.1515 51.6487 49.7542 51.6532 49.8688C51.6658 50.1784 51.6082 50.3845 52.1089 50.5492C52.2673 50.6011 52.9972 50.7256 53.8843 50.8522C53.9132 50.855 53.9398 50.8689 53.9586 50.8911C53.9773 50.9132 53.9867 50.9417 53.9848 50.9707C53.9831 50.9997 53.9701 51.0268 53.9487 51.0464C53.9272 51.066 53.8989 51.0764 53.8699 51.0754Z" fill="#414141"/>
<path d="M50.223 54.115C49.9644 53.9758 48.99 54.9469 48.51 55.8172C48.0165 56.7124 47.73 58.3624 48.7419 58.3624C49.3902 58.2874 49.5345 57.3568 49.6659 56.2624C49.8345 54.8644 50.3814 54.2002 50.223 54.115Z" fill="#414141"/>
<path d="M51.8447 57.1844C51.8225 57.1728 51.7969 57.1691 51.7722 57.174C51.7476 57.1788 51.7253 57.1919 51.7091 57.2111C51.6584 57.2711 50.4629 58.6769 50.3354 60.3311C50.2835 61.0028 50.3879 62.021 51.1118 61.9148C51.7241 61.8248 51.6704 61.1348 51.6062 60.2879C51.413 57.7217 52.124 57.332 51.8447 57.1844Z" fill="#414141"/>
<path d="M56.8357 22.3122C56.961 22.3122 57.0812 22.2624 57.1698 22.1738C57.2584 22.0852 57.3082 21.965 57.3082 21.8397C57.3082 21.7144 57.2584 21.5942 57.1698 21.5056C57.0812 21.417 56.961 21.3672 56.8357 21.3672C56.7103 21.3672 56.5902 21.417 56.5016 21.5056C56.4129 21.5942 56.3632 21.7144 56.3632 21.8397C56.3632 21.965 56.4129 22.0852 56.5016 22.1738C56.5902 22.2624 56.7103 22.3122 56.8357 22.3122Z" fill="#005BC3"/>
<path d="M62.8679 25.7731C62.9932 25.7731 63.1134 25.7233 63.202 25.6347C63.2906 25.5461 63.3404 25.4259 63.3404 25.3006C63.3404 25.1753 63.2906 25.0551 63.202 24.9665C63.1134 24.8779 62.9932 24.8281 62.8679 24.8281C62.7426 24.8281 62.6224 24.8779 62.5338 24.9665C62.4452 25.0551 62.3954 25.1753 62.3954 25.3006C62.3954 25.4259 62.4452 25.5461 62.5338 25.6347C62.6224 25.7233 62.7426 25.7731 62.8679 25.7731Z" fill="#005BC3"/>
<path d="M49.0759 21.695C49.2012 21.695 49.3214 21.6452 49.41 21.5566C49.4986 21.468 49.5484 21.3478 49.5484 21.2225C49.5484 21.0972 49.4986 20.977 49.41 20.8884C49.3214 20.7998 49.2012 20.75 49.0759 20.75C48.9506 20.75 48.8304 20.7998 48.7418 20.8884C48.6532 20.977 48.6034 21.0972 48.6034 21.2225C48.6034 21.3478 48.6532 21.468 48.7418 21.5566C48.8304 21.6452 48.9506 21.695 49.0759 21.695Z" fill="#005BC3"/>
<path d="M49.648 29.2867C49.648 29.2867 48.7765 24.4132 49.426 22.8232C49.5364 22.5532 52.8361 26.1184 52.8889 26.1271C52.9417 26.1358 56.0782 23.2561 56.3257 23.3002C56.5732 23.3443 57.7375 27.3817 57.8539 27.5053C57.9703 27.6289 61.7146 26.401 61.909 26.728C62.1034 27.055 59.4541 31.9681 58.9936 32.0461C58.6678 32.1016 52.9651 30.9883 49.648 29.2867Z" fill="#005BC3"/>
<path d="M56.8345 22.4784C56.7077 22.4799 56.5833 22.4436 56.4771 22.3743C56.371 22.3049 56.2878 22.2056 56.2383 22.0888C56.1887 21.9721 56.1749 21.8433 56.1987 21.7188C56.2225 21.5942 56.2828 21.4795 56.3719 21.3893C56.4611 21.2991 56.575 21.2374 56.6992 21.2121C56.8235 21.1868 56.9525 21.199 57.0698 21.2471C57.1871 21.2952 57.2874 21.3771 57.3581 21.4824C57.4288 21.5877 57.4665 21.7117 57.4666 21.8385C57.4675 22.0071 57.4014 22.1692 57.2829 22.2892C57.1644 22.4091 57.0031 22.4772 56.8345 22.4784ZM56.8345 21.4221C56.7518 21.4205 56.6705 21.4435 56.601 21.4883C56.5314 21.533 56.4768 21.5975 56.444 21.6734C56.4113 21.7494 56.4019 21.8333 56.417 21.9146C56.4322 21.9959 56.4712 22.0709 56.5291 22.1299C56.587 22.189 56.6611 22.2294 56.7421 22.2462C56.8231 22.2629 56.9072 22.2552 56.9838 22.2239C57.0604 22.1926 57.1259 22.1393 57.172 22.0706C57.2181 22.002 57.2428 21.9212 57.2428 21.8385C57.2437 21.7292 57.2012 21.624 57.1247 21.5459C57.0481 21.4679 56.9438 21.4233 56.8345 21.4221Z" fill="#414141"/>
<path d="M62.8673 25.94C62.7723 25.9413 62.6783 25.9215 62.5919 25.882C62.5056 25.8424 62.4291 25.7842 62.3681 25.7114C62.3071 25.6386 62.2631 25.5532 62.2392 25.4613C62.2153 25.3694 62.2122 25.2733 62.2301 25.1801C62.26 25.0236 62.3472 24.8839 62.4746 24.7883C62.602 24.6927 62.7605 24.648 62.9191 24.663C63.0777 24.678 63.225 24.7516 63.3323 24.8694C63.4395 24.9872 63.499 25.1408 63.4991 25.3001C63.4997 25.4686 63.4336 25.6305 63.3152 25.7504C63.1968 25.8703 63.0358 25.9385 62.8673 25.94ZM62.8673 24.8831C62.7846 24.8814 62.7033 24.9044 62.6337 24.9491C62.5642 24.9938 62.5095 25.0582 62.4767 25.1341C62.4439 25.21 62.4344 25.2939 62.4494 25.3752C62.4645 25.4565 62.5034 25.5315 62.5612 25.5906C62.619 25.6497 62.6932 25.6903 62.7741 25.7071C62.8551 25.7239 62.9392 25.7163 63.0158 25.6851C63.0924 25.6539 63.1579 25.6007 63.2042 25.5321C63.2504 25.4635 63.2751 25.3828 63.2753 25.3001C63.2761 25.1908 63.2336 25.0856 63.1572 25.0075C63.0808 24.9294 62.9765 24.8847 62.8673 24.8831Z" fill="#414141"/>
<path d="M49.0762 21.8638C48.9813 21.8651 48.8872 21.8453 48.8009 21.8058C48.7146 21.7663 48.6381 21.708 48.5771 21.6352C48.5161 21.5625 48.4721 21.477 48.4482 21.3851C48.4243 21.2932 48.4212 21.1972 48.439 21.1039C48.469 20.9474 48.5562 20.8077 48.6836 20.7121C48.811 20.6165 48.9695 20.5718 49.1281 20.5868C49.2867 20.6018 49.434 20.6754 49.5413 20.7932C49.6485 20.911 49.708 21.0646 49.708 21.2239C49.709 21.3925 49.643 21.5546 49.5245 21.6746C49.4061 21.7946 49.2448 21.8626 49.0762 21.8638ZM49.0762 20.8069C48.9796 20.8049 48.8853 20.8365 48.8094 20.8963C48.7335 20.9562 48.6807 21.0405 48.6601 21.1349C48.6395 21.2294 48.6524 21.328 48.6965 21.414C48.7405 21.5 48.8131 21.568 48.9018 21.6065C48.9905 21.6449 49.0898 21.6513 49.1827 21.6246C49.2755 21.5979 49.3563 21.5398 49.4111 21.4602C49.4659 21.3806 49.4913 21.2844 49.483 21.1881C49.4748 21.0918 49.4333 21.0014 49.3657 20.9323C49.2893 20.8545 49.1853 20.81 49.0762 20.8084V20.8069Z" fill="#414141"/>
<path d="M58.9932 32.141C57.3998 31.9213 55.8227 31.5962 54.2724 31.1678C52.1253 30.551 49.6134 29.5034 49.5642 29.315C49.0881 27.545 48.8853 22.8968 49.3878 22.7264C49.5567 22.6691 49.9578 22.862 52.752 25.8233L52.9293 26.0111C53.5782 25.445 55.9272 23.126 56.3541 23.2097C56.7456 23.2997 57.63 26.7365 57.9099 27.419C58.5303 27.2276 61.6899 26.3069 61.9848 26.6546C62.0391 26.7185 62.0478 26.8187 61.9305 27.1403C61.5864 28.0853 59.4831 32.141 58.9932 32.141ZM49.7709 29.2235C51.2385 29.9323 52.7655 30.5111 54.3342 30.9533C55.8584 31.3689 57.4067 31.6907 58.9704 31.9169C59.3958 31.7222 61.7928 27.3818 61.8018 26.7932C61.434 26.6606 58.1964 27.5243 57.9123 27.6497C57.8976 27.6575 57.8815 27.6619 57.8649 27.6627C57.8483 27.6634 57.8318 27.6604 57.8166 27.6539C57.7329 27.6209 57.7071 27.5765 57.2904 26.2199C57.0048 25.2899 56.4732 23.5577 56.2896 23.4212C56.0355 23.4389 54.3513 25.0031 53.6322 25.6712C52.9422 26.3114 52.9446 26.3111 52.8579 26.2532C52.8408 26.2421 49.6779 23.0363 49.4718 22.9517C49.2783 23.3942 49.1904 27.0245 49.7709 29.2235Z" fill="#414141"/>
<path d="M46.5244 15.022C46.5577 14.9956 49.8577 12.3661 50.0785 12.1819C50.0965 12.1656 50.1184 12.1541 50.142 12.1484C50.1656 12.1428 50.1903 12.1433 50.2138 12.1497C50.2372 12.1562 50.2586 12.1685 50.276 12.1854C50.2934 12.2024 50.3063 12.2234 50.3134 12.2467C50.3191 12.2653 50.3209 12.2849 50.3187 12.3042C50.3165 12.3236 50.3104 12.3423 50.3008 12.3592C50.2912 12.3761 50.2784 12.3908 50.263 12.4027C50.0395 12.589 46.8397 15.1384 46.7035 15.2467C46.6735 15.2675 46.6367 15.2761 46.6006 15.2708C46.5644 15.2654 46.5317 15.2466 46.5089 15.218C46.4862 15.1895 46.4751 15.1534 46.478 15.117C46.4809 15.0806 46.4974 15.0466 46.5244 15.022Z" fill="#005BC3"/>
<path d="M45.2645 13.5717C45.227 13.5714 45.191 13.5564 45.1642 13.5301C45.1374 13.5037 45.122 13.4679 45.1211 13.4304C45.1205 13.4054 45.1265 13.3808 45.1385 13.359C45.1586 13.3224 47.1437 9.69146 47.6867 8.72546C47.7006 8.70064 47.7216 8.68052 47.747 8.66769C47.7724 8.65486 47.801 8.64991 47.8292 8.65346C47.848 8.65567 47.8661 8.66158 47.8825 8.67085C47.8989 8.68012 47.9134 8.69257 47.9249 8.70746C47.9425 8.72979 47.953 8.7568 47.9552 8.7851C47.9574 8.8134 47.9511 8.84171 47.9372 8.86646C45.287 13.584 45.4487 13.5717 45.2645 13.5717Z" fill="#005BC3"/>
<path d="M42.8405 13.0562C42.8197 13.0563 42.7992 13.0519 42.7803 13.0433C42.7614 13.0347 42.7446 13.0221 42.7311 13.0064C42.7175 12.9907 42.7076 12.9722 42.7018 12.9523C42.6961 12.9324 42.6948 12.9114 42.698 12.8909C42.9726 11.2759 43.4086 9.6926 43.9994 8.1647C44.0135 8.12929 44.0411 8.10094 44.0761 8.08589C44.1111 8.07085 44.1507 8.07032 44.1861 8.08445C44.2215 8.09857 44.2499 8.12618 44.2649 8.1612C44.28 8.19622 44.2805 8.23579 44.2664 8.2712C43.6837 9.77862 43.2536 11.3406 42.9824 12.9338C42.9773 12.9678 42.9602 12.9989 42.9342 13.0214C42.9081 13.0439 42.8749 13.0562 42.8405 13.0562Z" fill="#005BC3"/>
</svg>
