<svg width="51" height="51" viewBox="0 0 51 51" fill="none" xmlns="http://www.w3.org/2000/svg">
<path d="M13.8825 16.7598C13.8825 16.7598 13.5925 18.4173 14.8825 18.6323C14.6981 18.1892 14.6409 17.7035 14.7175 17.2298C14.3952 17.1686 14.1019 17.0035 13.8825 16.7598Z" fill="#313131"/>
<path d="M15.0474 15.8233C15.0474 15.8233 14.1399 15.5733 13.9274 15.8708C13.7149 16.1683 13.6399 16.9433 14.7599 17.2033C14.7599 17.2033 14.6649 18.4908 15.0474 18.7783C15.0474 18.7783 14.6899 19.8258 14.3324 20.1608C14.3324 20.1608 15.5224 20.2558 16.1899 20.6358C16.2653 20.2814 16.4024 19.9429 16.5949 19.6358C17.0392 19.7403 17.5048 19.7072 17.9299 19.5408C18.5024 19.2533 18.9499 18.7283 19.0999 17.6108C19.2124 16.7508 19.2424 15.5608 19.4324 15.1108C19.4324 15.1108 18.6699 14.0633 17.0024 14.0883C15.4049 14.1058 15.0474 15.8233 15.0474 15.8233Z" fill="white"/>
<path d="M23.8775 24.8564V20.4239C23.8775 20.4239 23.545 20.3489 23.4375 20.8514C23.33 21.3539 23.3175 22.8514 22.985 22.9014C23.0091 23.2743 23.0091 23.6484 22.985 24.0214C22.9776 24.0947 22.9617 24.1668 22.9375 24.2364C22.671 24.3062 22.3993 24.3538 22.125 24.3789C21.96 24.3789 21.875 25.2864 21.9825 25.2864C22.09 25.2864 23.4 25.2864 23.8775 24.8564Z" fill="white"/>
<path d="M8.94455 26.8574C8.94455 26.8574 6.94455 32.9349 2.10455 37.0824C2.20235 37.4105 2.3763 37.7108 2.61221 37.9589C2.84812 38.207 3.13931 38.3958 3.46205 38.5099C3.46205 38.5099 7.96205 37.2599 11.9621 30.0099C11.9621 30.0099 14.2996 33.0849 14.2271 33.5624C14.0421 34.7549 12.1771 37.5624 11.1521 38.5199C11.1521 38.5199 11.7471 39.2349 12.9871 38.9249C12.9871 38.9249 17.0646 36.4249 17.4671 33.7999C17.6596 32.5499 15.2171 28.8199 15.2171 28.8199C15.2171 28.8199 10.9946 28.2599 8.94455 26.8574Z" fill="white"/>
<path d="M16.6446 17.61C16.5896 17.875 16.0096 17.8275 16.0721 17.49C16.0921 17.37 16.2146 17.3 16.4046 17.3225C16.4692 17.3402 16.5269 17.3772 16.5698 17.4286C16.6127 17.48 16.6388 17.5433 16.6446 17.61Z" fill="#FCCAC2"/>
<path d="M18.5499 17.7756C18.5499 18.0256 19.0499 18.0956 19.1224 17.7756C19.1224 17.4781 18.5499 17.5106 18.5499 17.7756Z" fill="#FCCAC2"/>
<path d="M17.9547 17.4906C18.068 17.4149 18.1649 17.3171 18.2397 17.2031C18.1426 17.1654 18.0545 17.108 17.9809 17.0344C17.9073 16.9608 17.8499 16.8727 17.8122 16.7756C17.7292 16.4621 17.7713 16.1287 17.9297 15.8456C17.9432 15.8217 17.9653 15.8039 17.9916 15.7958C18.0178 15.7877 18.0462 15.79 18.0708 15.8021C18.0955 15.8143 18.1145 15.8354 18.1241 15.8612C18.1336 15.8869 18.1329 15.9154 18.1222 15.9406C17.9936 16.1686 17.9595 16.4378 18.0272 16.6906C18.0573 16.77 18.1052 16.8415 18.1671 16.8995C18.2291 16.9576 18.3035 17.0007 18.3847 17.0256C18.4025 17.0326 18.4187 17.0432 18.4321 17.0569C18.4455 17.0705 18.4559 17.0869 18.4625 17.1048C18.4692 17.1228 18.4719 17.142 18.4705 17.1611C18.4692 17.1802 18.4638 17.1988 18.4547 17.2156C18.3835 17.3998 18.2487 17.5524 18.0747 17.6456C17.9172 17.7606 17.7922 17.5731 17.9547 17.4906Z" fill="#313131"/>
<path d="M18.4321 15.6773C18.6293 15.5936 18.8371 15.5372 19.0496 15.5098C19.1421 15.5098 19.2396 15.6398 19.0746 15.7223C18.8874 15.7504 18.7038 15.7991 18.5271 15.8673C18.3871 15.8998 18.2196 15.7848 18.4321 15.6773Z" fill="#313131"/>
<path d="M17.1681 15.7615C17.0154 15.6527 16.8467 15.5684 16.6681 15.5115C16.6455 15.5026 16.6269 15.4859 16.6158 15.4643C16.6046 15.4428 16.6017 15.4179 16.6075 15.3944C16.6133 15.3709 16.6274 15.3502 16.6473 15.3364C16.6672 15.3225 16.6915 15.3163 16.7156 15.319C16.9175 15.3743 17.1103 15.4585 17.2881 15.569C17.3856 15.6315 17.2906 15.8715 17.1681 15.7615Z" fill="#313131"/>
<path d="M18.8126 17.0593C18.7476 17.0593 18.7801 17.0843 18.3851 16.7018C18.3699 16.6841 18.3583 16.6634 18.3512 16.6411C18.344 16.6189 18.3414 16.5954 18.3435 16.5721C18.3456 16.5487 18.3524 16.5261 18.3634 16.5054C18.3744 16.4848 18.3894 16.4666 18.4076 16.4518L18.8376 16.1668C18.8851 16.1418 18.9551 16.1418 18.9801 16.1918C19.0051 16.2418 19.0026 16.3093 18.9551 16.3343L18.5751 16.5843L18.8851 16.8943C18.896 16.9027 18.9048 16.9135 18.9109 16.9259C18.917 16.9382 18.9201 16.9518 18.9201 16.9656C18.9201 16.9793 18.917 16.9929 18.9109 17.0053C18.9048 17.0176 18.896 17.0284 18.8851 17.0368C18.8753 17.0455 18.8638 17.052 18.8513 17.0558C18.8388 17.0597 18.8256 17.0609 18.8126 17.0593Z" fill="#313131"/>
<path d="M16.2381 16.7765L16.7781 16.4415L16.2281 16.0365C16.209 16.0196 16.197 15.9963 16.1942 15.9709C16.1915 15.9456 16.1983 15.9202 16.2133 15.8996C16.2282 15.879 16.2503 15.8648 16.2752 15.8596C16.3002 15.8544 16.3261 15.8586 16.3481 15.8715L16.9206 16.299C17.0006 16.339 17.0381 16.549 16.8956 16.5865L16.3256 16.944C16.2356 17.0115 16.0906 16.8515 16.2381 16.7765Z" fill="#313131"/>
<path d="M17.2396 18.1823C17.2036 18.1774 17.1702 18.1607 17.1446 18.1348C17.1196 18.0873 17.1196 18.0173 17.1671 17.9923C17.2642 17.9277 17.3736 17.8837 17.4884 17.8631C17.6032 17.8424 17.721 17.8456 17.8346 17.8723C17.9246 17.9173 17.9596 18.0873 17.7646 18.0873C17.6827 18.0708 17.5983 18.0707 17.5163 18.087C17.4344 18.1033 17.3565 18.1357 17.2871 18.1823H17.2396Z" fill="#313131"/>
<path d="M14.6183 16.5844C14.5142 16.5009 14.3916 16.4434 14.2608 16.4169C14.2323 16.4136 14.2063 16.3991 14.1885 16.3766C14.1707 16.3541 14.1625 16.3254 14.1658 16.2969C14.1691 16.2684 14.1836 16.2424 14.2061 16.2245C14.2287 16.2067 14.2573 16.1986 14.2858 16.2019C14.4566 16.2281 14.6191 16.2931 14.7608 16.3919C14.8083 16.4169 14.8083 16.4869 14.7858 16.5369C14.78 16.5529 14.7705 16.5672 14.758 16.5788C14.7456 16.5903 14.7305 16.5988 14.7142 16.6034C14.6979 16.608 14.6806 16.6087 14.664 16.6054C14.6473 16.6021 14.6317 16.5949 14.6183 16.5844Z" fill="#313131"/>
<path d="M23.8903 20.3249C23.8439 20.3056 23.7935 20.2978 23.7435 20.3022C23.6934 20.3065 23.6452 20.3229 23.6028 20.3499C23.2703 20.5649 23.1803 21.5174 23.1503 22.0649C23.1499 22.2856 23.1084 22.5043 23.0278 22.7099V22.6849C23.0193 22.6395 22.9956 22.5985 22.9606 22.5685C22.9256 22.5385 22.8814 22.5213 22.8353 22.5199C21.7118 22.557 20.5872 22.4925 19.4753 22.3274C17.9278 22.1099 17.3303 21.1849 16.3303 20.5774C16.386 20.2836 16.4908 20.0013 16.6403 19.7424C16.9918 19.8351 17.3613 19.8351 17.7128 19.7424C18.5878 19.4924 19.0953 18.7899 19.2603 17.6224C19.4478 16.3224 19.4778 15.5174 19.5953 15.0474C19.5992 15.0137 19.5903 14.9798 19.5703 14.9524C19.008 14.3623 18.2395 14.0121 17.4253 13.9749C16.1153 13.8824 15.1378 14.5949 14.9953 15.6899C14.6639 15.5716 14.3017 15.5716 13.9703 15.6899C13.8884 15.7397 13.8178 15.8062 13.763 15.8849C13.7083 15.9637 13.6707 16.053 13.6526 16.1472C13.6344 16.2414 13.6362 16.3383 13.6578 16.4318C13.6793 16.5252 13.7202 16.6131 13.7778 16.6899C14.0046 16.9822 14.3281 17.1843 14.6903 17.2599C14.6019 17.7737 14.6901 18.3024 14.9403 18.7599C14.8678 18.9749 14.5828 19.8099 14.1903 20.0724C12.8303 20.3224 12.0503 21.7924 11.4728 22.5274C10.8103 23.3649 8.82529 26.7449 8.80279 26.7774C8.77779 26.8474 6.44279 33.3299 1.98529 36.9549C1.98529 36.9549 1.15029 37.4549 1.29529 37.9549C1.44029 38.4549 2.26779 39.4899 2.84279 39.8149C3.36279 40.1074 4.25029 40.0299 4.25029 39.7424C4.25029 39.4549 3.41529 39.0274 3.36779 38.8599C3.35125 38.7849 3.35125 38.7073 3.36779 38.6324C4.43954 38.2125 5.44887 37.6481 6.36779 36.9549C8.74336 35.197 10.6671 32.8997 11.9803 30.2524C12.9353 31.5399 14.1378 33.2824 14.0678 33.5924C13.8528 34.5224 12.6853 36.3574 10.9928 38.4074V38.4324C10.7464 38.7306 10.5528 39.0688 10.4203 39.4324C10.3203 39.8599 10.7078 39.8849 11.0878 39.9324C11.4678 39.9799 14.0428 40.0299 14.1153 40.0299C14.3653 40.0299 14.6878 39.8624 14.2353 39.5524C13.8766 39.3186 13.4925 39.1266 13.0903 38.9799C13.8214 38.4655 14.5218 37.9087 15.1878 37.3124C16.6878 35.9574 17.4703 34.7599 17.5228 33.7849C17.5878 32.5924 15.9978 29.8024 15.3553 28.9224C15.3553 28.9224 16.1653 26.3474 16.3803 25.7274C16.3887 25.703 16.4019 25.6805 16.419 25.6612C16.4362 25.642 16.457 25.6263 16.4802 25.6152C16.5035 25.604 16.5287 25.5976 16.5545 25.5962C16.5802 25.5949 16.606 25.5987 16.6303 25.6074C19.0003 26.5224 21.3478 25.7999 21.9203 25.6074C21.9579 25.59 21.9907 25.5635 22.0155 25.5304C22.0404 25.4972 22.0567 25.4584 22.0628 25.4174V25.3949C22.5298 25.3873 22.994 25.3227 23.4453 25.2024C23.5882 25.1577 23.7134 25.0692 23.8032 24.9494C23.8929 24.8296 23.9426 24.6845 23.9453 24.5349V20.4449C23.9474 20.4218 23.9435 20.3986 23.9338 20.3775C23.9242 20.3565 23.9091 20.3383 23.8903 20.3249ZM17.3603 33.7924C17.2278 35.9124 13.2353 38.6799 12.9253 38.8949C12.347 38.9857 11.756 38.8476 11.2778 38.5099C12.9703 36.4349 14.1103 34.6474 14.3303 33.6949C14.4453 33.1949 12.5653 30.6449 12.0803 30.0249L12.1978 29.7749C12.5615 29.8309 12.9316 29.8309 13.2953 29.7749C13.3084 29.7727 13.3209 29.7677 13.3318 29.7602C13.3428 29.7527 13.3519 29.7428 13.3586 29.7314C13.3653 29.7199 13.3694 29.7071 13.3705 29.6939C13.3717 29.6806 13.3699 29.6673 13.3653 29.6549C13.3635 29.6418 13.3588 29.6294 13.3516 29.6184C13.3443 29.6075 13.3347 29.5983 13.3234 29.5916C13.3121 29.5849 13.2994 29.5808 13.2864 29.5796C13.2733 29.5784 13.2601 29.5802 13.2478 29.5849C12.8841 29.6409 12.514 29.6409 12.1503 29.5849C12.1258 29.5843 12.1016 29.5905 12.0804 29.6029C12.0592 29.6152 12.0419 29.6332 12.0303 29.6549C10.7049 32.4228 8.74823 34.841 6.31779 36.7149C5.41081 37.4216 4.40837 37.9965 3.34029 38.4224C3.07551 38.3146 2.83732 38.1506 2.6422 37.9416C2.44709 37.7327 2.29972 37.4839 2.21029 37.2124C6.28779 33.8749 8.57529 28.1774 8.9803 27.1524C11.3878 29.2974 14.5353 29.2274 15.2303 29.1799C15.3953 29.1699 17.4378 32.5324 17.3603 33.7924ZM15.1103 20.1124C14.923 20.073 14.7315 20.057 14.5403 20.0649C14.8002 19.6718 15.0078 19.2465 15.1578 18.7999C15.1609 18.7666 15.153 18.7332 15.1353 18.7049C14.7303 18.1574 14.9203 17.2524 14.9203 17.2274C14.9219 17.2144 14.9207 17.2012 14.9168 17.1887C14.9129 17.1762 14.9065 17.1647 14.8978 17.1549C14.8728 17.1324 14.8478 17.1074 14.8253 17.1074C14.4891 17.048 14.185 16.8707 13.9678 16.6074C13.9208 16.534 13.8901 16.4514 13.8776 16.3652C13.8651 16.279 13.8711 16.1911 13.8953 16.1074C13.9228 16.0175 13.9825 15.941 14.0628 15.8924C14.3953 15.7249 15.0403 15.9399 15.0403 15.9399C15.056 15.9458 15.0728 15.948 15.0895 15.9461C15.1062 15.9443 15.1221 15.9385 15.1361 15.9292C15.15 15.9199 15.1616 15.9073 15.1697 15.8927C15.1778 15.878 15.1823 15.8616 15.1828 15.8449C15.2553 14.7724 16.1603 14.0948 17.4003 14.1773C18.1366 14.2038 18.8351 14.5106 19.3528 15.0349C19.2278 15.5349 19.1953 16.3999 19.0203 17.5849C18.8578 18.6824 18.4253 19.3049 17.6128 19.5399C16.8628 19.7574 16.0653 19.2899 16.0653 19.2899C16.0528 19.2823 16.0387 19.2776 16.0242 19.2761C16.0096 19.2745 15.9949 19.2762 15.9811 19.281C15.9673 19.2858 15.9547 19.2935 15.9442 19.3037C15.9337 19.3138 15.9255 19.3262 15.9203 19.3399C15.8978 19.4099 15.8978 19.4574 15.9703 19.4824C16.1149 19.5596 16.2664 19.6232 16.4228 19.6724C16.3061 19.9268 16.21 20.1901 16.1353 20.4599C15.8198 20.2837 15.4751 20.166 15.1178 20.1124H15.1103ZM23.7478 24.5449C23.7519 24.6486 23.7212 24.7508 23.6604 24.8351C23.5997 24.9194 23.5125 24.9809 23.4128 25.0099C22.9883 25.1393 22.5466 25.2033 22.1028 25.1999C22.1253 25.0099 22.1253 24.8424 22.1503 24.6999C22.1496 24.6777 22.1535 24.6556 22.1616 24.6349C22.1698 24.6143 22.1821 24.5956 22.1978 24.5799C22.2135 24.5642 22.2322 24.5519 22.2529 24.5437C22.2735 24.5355 22.2956 24.5317 22.3178 24.5324C22.5213 24.4982 22.7207 24.4429 22.9128 24.3674C22.9778 24.3449 23.0553 24.2974 23.0553 24.1174C23.3978 24.1174 23.5553 24.1974 23.7478 24.0699V24.5449ZM23.6753 23.8524C23.6546 23.8763 23.6288 23.8952 23.5998 23.9078C23.5708 23.9203 23.5394 23.9262 23.5078 23.9249C23.3566 23.9292 23.2053 23.9216 23.0553 23.9024C23.0803 23.5674 23.0553 23.2349 23.0553 22.9724C23.0803 22.9724 23.0803 22.9724 23.1028 22.9474C23.1253 22.9224 23.3528 22.7574 23.3528 22.0649C23.3803 21.2324 23.5203 20.6349 23.7103 20.5174C23.7169 20.5174 23.7233 20.5147 23.728 20.51C23.7327 20.5053 23.7353 20.499 23.7353 20.4924V23.3299C23.7478 23.7324 23.7778 23.7599 23.6753 23.8524Z" fill="#313131"/>
<path d="M23.225 22.6219V22.6469L23.3 22.8844C23.2775 22.9094 23.2775 22.9094 23.2525 22.9094C23.2525 23.1719 23.2775 23.5044 23.2525 23.8394V24.0544C23.2525 24.2344 23.175 24.2819 23.11 24.3044C22.918 24.38 22.7185 24.4353 22.515 24.4694C22.4928 24.4687 22.4707 24.4726 22.4501 24.4808C22.4295 24.4889 22.4107 24.5012 22.395 24.5169C22.3793 24.5326 22.367 24.5514 22.3588 24.572C22.3507 24.5927 22.3468 24.6147 22.3475 24.6369C22.3225 24.7794 22.3225 24.9469 22.3 25.1369L22.26 25.3319V25.3544C22.2539 25.3954 22.2376 25.4343 22.2128 25.4674C22.1879 25.5006 22.1551 25.5271 22.1175 25.5444C21.545 25.7369 19.1975 26.4594 16.8275 25.5444C16.8032 25.5357 16.7775 25.532 16.7517 25.5333C16.7259 25.5346 16.7007 25.5411 16.6775 25.5522C16.6542 25.5634 16.6334 25.5791 16.6162 25.5983C16.5991 25.6176 16.5859 25.64 16.5775 25.6644C16.3625 26.2844 15.5525 28.8594 15.5525 28.8594L15.4275 29.1169C14.7325 29.1644 11.585 29.2344 9.1775 27.0894L9 26.7144C9.0225 26.6819 11.0075 23.3019 11.67 22.4644C12.2475 21.7294 13.0275 20.2594 14.3875 20.0094L14.7375 20.0019C14.9287 19.9941 15.1202 20.0101 15.3075 20.0494H15.315C15.6723 20.103 16.017 20.2208 16.3325 20.3969L16.5275 20.5144C17.5275 21.1219 18.125 22.0469 19.6725 22.2644C20.7844 22.4296 21.909 22.494 23.0325 22.4569C23.0786 22.4584 23.1228 22.4756 23.1578 22.5056C23.1928 22.5356 23.2165 22.5766 23.225 22.6219Z" fill="#98D1FF"/>
<path d="M19.7184 25.0105C18.0984 25.0105 15.8809 24.678 14.1184 23.1505C14.1091 23.1412 14.1017 23.1301 14.0966 23.1178C14.0915 23.1056 14.0889 23.0925 14.0889 23.0793C14.0889 23.066 14.0915 23.0529 14.0966 23.0407C14.1017 23.0285 14.1091 23.0174 14.1184 23.008C14.1278 22.9987 14.1389 22.9912 14.1511 22.9862C14.1634 22.9811 14.1765 22.9785 14.1897 22.9785C14.2029 22.9785 14.216 22.9811 14.2283 22.9862C14.2405 22.9912 14.2516 22.9987 14.2609 23.008C17.7184 25.963 22.9384 24.3905 22.9859 24.368C22.9982 24.3634 23.0114 24.3616 23.0245 24.3628C23.0376 24.3639 23.0502 24.368 23.0615 24.3748C23.0728 24.3815 23.0825 24.3907 23.0897 24.4016C23.097 24.4126 23.1017 24.425 23.1034 24.438C23.108 24.4505 23.1098 24.4638 23.1087 24.477C23.1075 24.4903 23.1034 24.5031 23.0967 24.5145C23.0901 24.526 23.0809 24.5359 23.07 24.5434C23.059 24.5509 23.0465 24.5559 23.0334 24.558C21.95 24.8385 20.8374 24.9904 19.7184 25.0105Z" fill="white"/>
<path d="M13.8809 15.7721C13.8809 15.7721 14.5284 15.4596 14.7609 16.1071C14.8609 16.3921 15.4734 16.3571 15.5484 16.1796C15.6234 16.0021 15.6484 15.3771 15.9784 15.1796C16.3084 14.9821 17.5959 14.9946 18.4559 15.1796C19.7184 15.4521 20.6209 14.8496 20.0534 13.7021C19.4859 12.5546 17.7784 12.4121 17.1209 12.4121C16.6684 12.4121 15.6209 12.6621 15.2634 13.1621C15.0636 13.142 14.8619 13.1659 14.6723 13.2319C14.4827 13.298 14.3099 13.4047 14.1659 13.5446C13.7234 14.0471 13.5709 14.9621 13.8809 15.7721Z" fill="#313131"/>
<path d="M47.4459 13.1395C47.4584 11.112 46.1959 10.7195 45.0384 10.6845C43.8809 10.6495 34.4559 10.6595 33.7409 10.6595C32.1909 10.6595 31.5709 11.6595 31.5709 13.2345V15.522C30.4984 15.522 26.2559 15.547 26.0409 15.5695C25.8259 15.592 24.0409 17.162 23.7759 17.692C23.7759 18.162 23.7309 21.9095 23.7534 26.0345C23.7784 30.587 23.7759 35.3295 23.8484 35.3995C23.9684 35.5195 29.9034 35.4245 31.5709 35.3995C31.6184 36.3545 31.9534 37.5845 33.9059 37.617C36.2434 37.6545 43.2984 37.617 44.3234 37.617C45.3484 37.617 47.3609 37.902 47.4459 35.367C47.5284 32.897 47.4334 15.117 47.4459 13.1395Z" fill="white"/>
<path d="M37.7776 11.9142C37.7239 11.9171 37.6712 11.8987 37.6311 11.8628C37.591 11.8269 37.5668 11.7766 37.5639 11.7229C37.5609 11.6692 37.5793 11.6165 37.6152 11.5764C37.6511 11.5363 37.7014 11.5121 37.7551 11.5092C37.7776 11.5092 39.2076 11.4842 41.5676 11.5092C41.5976 11.5059 41.628 11.509 41.6567 11.5183C41.6854 11.5275 41.7119 11.5427 41.7344 11.5629C41.7568 11.5831 41.7748 11.6077 41.7871 11.6353C41.7994 11.6629 41.8057 11.6927 41.8057 11.7229C41.8057 11.7531 41.7994 11.7829 41.7871 11.8105C41.7748 11.8381 41.7568 11.8627 41.7344 11.8829C41.7119 11.9031 41.6854 11.9183 41.6567 11.9275C41.628 11.9368 41.5976 11.9399 41.5676 11.9367C39.6476 11.9092 38.7401 11.9142 37.7776 11.9142Z" fill="#313131"/>
<path d="M44.4827 12.6527C43.7702 12.5952 35.7827 12.6227 34.3302 12.6527C32.6127 12.6927 32.8302 14.1527 32.8302 15.2752C32.8302 16.2302 32.8777 30.0527 32.8302 32.3652C32.8052 33.5577 33.2602 33.9502 34.2602 33.9377H44.0102C45.9177 33.9377 46.2252 33.2952 46.2252 32.4852V14.3452C46.2227 12.7627 45.2227 12.7152 44.4827 12.6527ZM36.5452 33.5327H34.9502C34.6152 33.5327 33.4327 33.6277 33.4002 32.8427C33.3627 31.9602 33.4002 15.5627 33.4002 15.5627C34.3777 15.4902 36.2777 15.5127 36.2777 15.5127C36.3002 16.2752 36.4427 24.1152 36.5152 29.2177C35.9901 29.2025 35.4645 29.2259 34.9427 29.2877C34.9182 29.302 34.8984 29.323 34.8855 29.3483C34.8726 29.3736 34.8673 29.402 34.8702 29.4302C34.7977 29.7652 34.7752 31.9102 34.8702 32.0777C34.9177 32.1477 35.0127 32.1952 36.5377 32.1952L36.5452 33.5327ZM43.0452 31.9602C38.0452 32.0802 35.2752 31.9852 35.0452 31.9377C34.9939 31.1116 35.0014 30.2828 35.0677 29.4577C35.8177 29.3377 42.9352 29.4102 43.0527 29.5527C43.2452 29.7202 43.2777 31.9377 43.0527 31.9602H43.0452Z" fill="#FFB949"/>
<path d="M48.7243 13.1059C48.7493 11.0784 47.0093 10.5184 45.1743 10.5309C44.2443 10.5309 34.0193 10.5059 33.8768 10.5059C32.2593 10.5059 31.6118 11.5609 31.6118 13.2009V15.4159H26.9868C26.0568 15.4159 25.9368 15.4859 25.6293 15.7259C24.7643 16.4084 23.9593 17.3484 23.8643 17.6109C23.8018 17.8209 23.8418 24.7759 23.8418 35.3909C23.839 35.4097 23.842 35.4289 23.8505 35.4459C23.859 35.4629 23.8726 35.4768 23.8893 35.4859C24.9368 35.6759 31.6593 35.4859 31.6593 35.4859C31.7318 36.4384 32.1118 37.6859 34.0893 37.7359C34.8768 37.7534 45.4593 37.7359 45.5893 37.7359C47.0668 37.7359 48.7368 37.5234 48.7818 35.4009C48.8268 32.8659 48.7018 15.0834 48.7243 13.1059ZM26.0268 15.6784C26.0018 16.6334 25.9318 17.6334 25.8593 17.8009C25.7418 17.8709 25.0268 17.8234 24.0493 17.6334C24.3193 17.2034 25.5818 15.9184 26.0268 15.6784ZM24.0493 35.3434C24.0243 35.3434 24.0243 35.3184 24.0243 35.2959C24.0243 34.4859 23.9768 18.4909 24.0243 17.8234C24.3168 17.8734 25.8668 18.1609 26.0243 17.9209C26.1193 17.8234 26.2143 17.0384 26.2393 15.6084H31.6018V35.2609C31.5868 35.3184 24.7943 35.4859 24.0568 35.3434H24.0493ZM47.4793 35.3909C47.4093 37.5834 45.6918 37.5359 44.7618 37.5359C44.6418 37.5359 35.8718 37.5584 34.0343 37.5359C31.7843 37.5084 31.7843 35.8684 31.7843 34.8909V13.2234C31.7843 11.6884 32.3668 10.7459 33.8593 10.7459C33.8593 10.7459 44.2268 10.7459 45.1568 10.7684C46.2518 10.8084 47.4793 11.1034 47.4693 13.1284C47.4818 13.8209 47.5268 33.7934 47.4868 35.3909H47.4793Z" fill="#313131"/>
<path d="M39.3818 34.6982C39.1155 34.6916 38.8567 34.7873 38.6587 34.9655C38.4606 35.1437 38.3384 35.391 38.3169 35.6565C38.2955 35.9221 38.3765 36.1858 38.5434 36.3934C38.7103 36.6011 38.9503 36.737 39.2143 36.7732C39.8368 36.8782 40.5018 36.5582 40.5018 35.7482C40.4986 35.6053 40.4669 35.4644 40.4086 35.3339C40.3503 35.2034 40.2666 35.0858 40.1623 34.988C40.058 34.8902 39.9353 34.8142 39.8012 34.7645C39.6672 34.7147 39.5246 34.6922 39.3818 34.6982ZM40.1918 35.7232C40.1934 35.8312 40.1738 35.9385 40.134 36.0389C40.0942 36.1394 40.035 36.231 39.9597 36.3085C39.8845 36.386 39.7948 36.448 39.6956 36.4909C39.5964 36.5337 39.4898 36.5566 39.3818 36.5582C39.2685 36.5644 39.1551 36.5475 39.0485 36.5084C38.9419 36.4693 38.8445 36.4089 38.7621 36.3308C38.6796 36.2528 38.614 36.1588 38.5691 36.0545C38.5243 35.9503 38.5011 35.838 38.5011 35.7245C38.5011 35.611 38.5243 35.4987 38.5691 35.3944C38.614 35.2901 38.6796 35.1961 38.7621 35.1181C38.8445 35.0401 38.9419 34.9797 39.0485 34.9406C39.1551 34.9015 39.2685 34.8845 39.3818 34.8907C39.5995 34.894 39.807 34.9835 39.9589 35.1395C40.1107 35.2956 40.1945 35.5055 40.1918 35.7232Z" fill="#313131"/>
<path d="M35.3554 18.8473C35.0854 18.8473 35.4504 18.8248 33.8304 18.8248C33.8052 18.8248 33.7811 18.8148 33.7632 18.7969C33.7454 18.7791 33.7354 18.755 33.7354 18.7298C33.7354 18.7046 33.7454 18.6804 33.7632 18.6626C33.7811 18.6448 33.8052 18.6348 33.8304 18.6348C34.5679 18.6348 34.8529 18.6348 35.3554 18.6573C35.3799 18.6595 35.4027 18.6702 35.4201 18.6876C35.4374 18.7049 35.4482 18.7278 35.4504 18.7523C35.4487 18.7769 35.4381 18.8 35.4206 18.8175C35.4032 18.835 35.38 18.8455 35.3554 18.8473Z" fill="#98D1FF"/>
<path d="M25.3675 18.8723C25.3423 18.8723 25.3182 18.8623 25.3003 18.8444C25.2825 18.8266 25.2725 18.8025 25.2725 18.7773C25.2725 18.7521 25.2825 18.7279 25.3003 18.7101C25.3182 18.6923 25.3423 18.6823 25.3675 18.6823L31.1175 18.6348C31.1427 18.6348 31.1669 18.6448 31.1847 18.6626C31.2025 18.6804 31.2125 18.7046 31.2125 18.7298C31.2125 18.755 31.2025 18.7791 31.1847 18.7969C31.1669 18.8148 31.1427 18.8248 31.1175 18.8248C28.2775 18.8373 25.3675 18.8723 25.3675 18.8723Z" fill="#98D1FF"/>
<path d="M35.1879 21.1145C34.9829 21.1145 34.8154 21.067 33.8304 21.067C33.8052 21.067 33.7811 21.0569 33.7632 21.0391C33.7454 21.0213 33.7354 20.9971 33.7354 20.972C33.7354 20.9468 33.7454 20.9226 33.7632 20.9048C33.7811 20.887 33.8052 20.877 33.8304 20.877C34.5454 20.877 34.7829 20.8995 35.1879 20.9245C35.216 20.9276 35.2418 20.9417 35.2595 20.9637C35.2773 20.9857 35.2857 21.0138 35.2829 21.042C35.2763 21.0623 35.2637 21.0801 35.2467 21.093C35.2298 21.106 35.2092 21.1135 35.1879 21.1145Z" fill="#98D1FF"/>
<path d="M25.2953 21.162C25.2701 21.162 25.2459 21.1519 25.2281 21.1341C25.2103 21.1163 25.2003 21.0921 25.2003 21.067C25.2003 21.0418 25.2103 21.0176 25.2281 20.9998C25.2459 20.982 25.2701 20.972 25.2953 20.972L31.1128 20.877C31.138 20.877 31.1621 20.887 31.1799 20.9048C31.1977 20.9226 31.2078 20.9468 31.2078 20.972C31.2078 20.9971 31.1977 21.0213 31.1799 21.0391C31.1621 21.0569 31.138 21.067 31.1128 21.067C28.2003 21.0795 25.4028 21.162 25.2953 21.162Z" fill="#98D1FF"/>
<path d="M35.2121 23.5099H35.0921C34.6621 23.4849 34.4246 23.4849 33.8421 23.4849C33.8169 23.4849 33.7928 23.4749 33.775 23.4571C33.7571 23.4393 33.7471 23.4151 33.7471 23.3899C33.7471 23.3647 33.7571 23.3406 33.775 23.3227C33.7928 23.3049 33.8169 23.2949 33.8421 23.2949C34.6096 23.2949 34.9196 23.3424 35.2246 23.3424C35.2529 23.3462 35.2787 23.3608 35.2964 23.3832C35.3142 23.4056 35.3225 23.434 35.3196 23.4624C35.2908 23.4909 35.2526 23.5078 35.2121 23.5099Z" fill="#98D1FF"/>
<path d="M25.3675 23.6384C25.3429 23.6366 25.3197 23.626 25.3023 23.6086C25.2848 23.5911 25.2743 23.568 25.2725 23.5434C25.2766 23.5168 25.2875 23.4918 25.3042 23.4708C25.3208 23.4498 25.3427 23.4334 25.3675 23.4234C25.3925 23.4234 28.2275 23.2809 31.1175 23.2559C31.1427 23.2559 31.1669 23.2659 31.1847 23.2837C31.2025 23.3015 31.2125 23.3257 31.2125 23.3509C31.2125 23.3761 31.2025 23.4002 31.1847 23.418C31.1669 23.4359 31.1427 23.4459 31.1175 23.4459C27.9525 23.5084 25.5275 23.6384 25.3675 23.6384Z" fill="#98D1FF"/>
<path d="M35.1879 26.0959C35.0479 26.0959 34.4529 26.0709 33.8304 26.0709C33.8052 26.0709 33.7811 26.0608 33.7632 26.043C33.7454 26.0252 33.7354 26.0011 33.7354 25.9759C33.7354 25.9507 33.7454 25.9265 33.7632 25.9087C33.7811 25.8909 33.8052 25.8809 33.8304 25.8809C34.5804 25.8809 34.8779 25.9034 35.1879 25.9034C35.2162 25.9071 35.242 25.9217 35.2597 25.9441C35.2774 25.9665 35.2858 25.9949 35.2829 26.0234C35.2763 26.0437 35.2637 26.0615 35.2467 26.0744C35.2298 26.0874 35.2092 26.0949 35.1879 26.0959Z" fill="#98D1FF"/>
<path d="M31.1137 26.0499H27.9912C27.9683 26.0462 27.9475 26.0345 27.9325 26.0169C27.9175 25.9992 27.9092 25.9768 27.9092 25.9537C27.9092 25.9305 27.9175 25.9081 27.9325 25.8905C27.9475 25.8728 27.9683 25.8611 27.9912 25.8574H31.1137C31.1365 25.8611 31.1573 25.8728 31.1724 25.8905C31.1874 25.9081 31.1956 25.9305 31.1956 25.9537C31.1956 25.9768 31.1874 25.9992 31.1724 26.0169C31.1573 26.0345 31.1365 26.0462 31.1137 26.0499Z" fill="#98D1FF"/>
<path d="M25.3684 26.0943C25.3462 26.0919 25.3253 26.0823 25.3091 26.0669C25.2929 26.0516 25.2821 26.0313 25.2784 26.0093C25.2825 25.9828 25.2934 25.9578 25.31 25.9368C25.3267 25.9157 25.3485 25.8994 25.3734 25.8893C25.3734 25.8893 26.1834 25.8543 27.3509 25.8418C27.3761 25.8418 27.4002 25.8518 27.4181 25.8696C27.4359 25.8874 27.4459 25.9116 27.4459 25.9368C27.4459 25.962 27.4359 25.9862 27.4181 26.004C27.4002 26.0218 27.3761 26.0318 27.3509 26.0318C26.0634 26.0343 25.4509 26.0943 25.3684 26.0943Z" fill="#98D1FF"/>
<path d="M35.1875 28.5255C34.3625 28.5255 34.645 28.5255 33.805 28.503C33.7802 28.5007 33.757 28.4896 33.7396 28.4718C33.7222 28.4539 33.7117 28.4304 33.71 28.4055C33.7118 28.3809 33.7223 28.3578 33.7398 28.3403C33.7572 28.3229 33.7804 28.3123 33.805 28.3105C34.9425 28.3105 34.4275 28.3355 35.1875 28.3355C35.2127 28.3355 35.2369 28.3456 35.2547 28.3634C35.2725 28.3812 35.2825 28.4054 35.2825 28.4305C35.2825 28.4557 35.2725 28.4799 35.2547 28.4977C35.2369 28.5155 35.2127 28.5255 35.1875 28.5255Z" fill="#98D1FF"/>
<path d="M25.3675 28.5255C25.3423 28.5255 25.3182 28.5155 25.3003 28.4977C25.2825 28.4799 25.2725 28.4557 25.2725 28.4305C25.2725 28.4054 25.2825 28.3812 25.3003 28.3634C25.3182 28.3456 25.3423 28.3355 25.3675 28.3355L31.0175 28.3105C31.0404 28.3142 31.0612 28.326 31.0762 28.3436C31.0912 28.3612 31.0995 28.3836 31.0995 28.4068C31.0995 28.43 31.0912 28.4524 31.0762 28.47C31.0612 28.4876 31.0404 28.4994 31.0175 28.503C28.1325 28.5105 25.3675 28.5255 25.3675 28.5255Z" fill="#98D1FF"/>
<path d="M33.9476 31.0748C33.9224 31.0748 33.8982 31.0648 33.8804 31.0469C33.8626 31.0291 33.8526 31.005 33.8526 30.9798C33.8526 30.9546 33.8626 30.9304 33.8804 30.9126C33.8982 30.8948 33.9224 30.8848 33.9476 30.8848H34.5926C34.6178 30.8848 34.642 30.8948 34.6598 30.9126C34.6776 30.9304 34.6876 30.9546 34.6876 30.9798C34.6876 31.005 34.6776 31.0291 34.6598 31.0469C34.642 31.0648 34.6178 31.0748 34.5926 31.0748H33.9476Z" fill="#98D1FF"/>
<path d="M29.8246 31.1021C29.7994 31.1021 29.7752 31.0921 29.7574 31.0743C29.7396 31.0565 29.7296 31.0323 29.7296 31.0071C29.7296 30.9819 29.7396 30.9577 29.7574 30.9399C29.7752 30.9221 29.7994 30.9121 29.8246 30.9121H31.1821C31.2073 30.9121 31.2314 30.9221 31.2492 30.9399C31.267 30.9577 31.2771 30.9819 31.2771 31.0071C31.2771 31.0323 31.267 31.0565 31.2492 31.0743C31.2314 31.0921 31.2073 31.1021 31.1821 31.1021C30.7271 31.0771 30.3896 31.1021 29.8246 31.1021Z" fill="#98D1FF"/>
<path d="M25.3675 31.1244C25.3429 31.1227 25.3197 31.1121 25.3023 31.0946C25.2848 31.0772 25.2743 31.054 25.2725 31.0294C25.277 31.0033 25.2881 30.9789 25.3047 30.9583C25.3214 30.9377 25.343 30.9218 25.3675 30.9119C25.3675 30.9119 26.44 30.8644 29.1575 30.8869C29.1827 30.8869 29.2069 30.8969 29.2247 30.9147C29.2425 30.9326 29.2525 30.9567 29.2525 30.9819C29.2525 31.0071 29.2425 31.0313 29.2247 31.0491C29.2069 31.0669 29.1827 31.0769 29.1575 31.0769C26.44 31.0769 25.3925 31.1019 25.3675 31.1244Z" fill="#98D1FF"/>
<path d="M31.1136 33.3195H25.3636C25.3388 33.3171 25.3156 33.306 25.2982 33.2882C25.2808 33.2703 25.2703 33.2468 25.2686 33.222C25.2704 33.1973 25.2809 33.1742 25.2984 33.1567C25.3158 33.1393 25.339 33.1287 25.3636 33.127H31.1136C31.1382 33.1287 31.1614 33.1393 31.1788 33.1567C31.1963 33.1742 31.2069 33.1973 31.2086 33.222C31.2311 33.262 31.1836 33.3195 31.1136 33.3195Z" fill="#98D1FF"/>
<path d="M39.0175 30.3047V30.9737M39.0175 31.2412V31.375M39.2996 29.9956L40.0394 31.2903C40.1632 31.5069 40.0068 31.7764 39.7573 31.7764H38.2777C38.0283 31.7764 37.8718 31.5069 37.9956 31.2903L38.7354 29.9956C38.8601 29.7774 39.1749 29.7774 39.2996 29.9956Z" stroke="#FF7449" stroke-width="0.259938"/>
</svg>
