<svg width="51" height="50" viewBox="0 0 51 50" fill="none" xmlns="http://www.w3.org/2000/svg">
<path d="M4.35181 7.59152C5.45322 7.48804 18.4113 7.4547 20.3859 7.59152C22.449 7.73447 23.004 8.44972 23.1547 10.4359C23.3053 12.422 23.4028 34.7353 23.3765 35.4736C23.3502 36.2119 23.6072 38.3734 20.6891 38.2368C17.7709 38.1002 4.60242 38.1387 4.27936 38.243C3.95631 38.3472 2.63581 40.6202 2.46808 40.6243C2.30035 40.6285 2.3336 10.8733 2.34303 10.3723C2.35246 9.8714 2.37007 7.77812 4.35181 7.59152Z" fill="white"/>
<path d="M2.2637 40.4749C2.29968 35.6049 2.23467 10.4735 2.23467 10.4735C2.22847 9.71334 2.29794 7.59333 4.51515 7.45969C6.59118 7.3344 18.5801 7.3317 20.9303 7.54012C23.2173 7.74339 23.2627 9.63586 23.2897 10.7665C23.2897 10.7665 23.4634 33.3944 23.4939 35.2045C23.515 36.455 23.2887 37.3015 22.8024 37.7941C22.2632 38.3401 21.5233 38.3458 20.8708 38.3507C20.7867 38.3507 5.91678 38.2448 4.32708 38.398C4.19731 38.4105 3.7894 38.655 2.71131 40.596C2.52894 40.9248 2.26197 40.7058 2.2637 40.4749ZM2.46989 10.472C2.47212 10.7228 2.50438 40.4879 2.50438 40.4879C3.74846 38.2212 4.16679 38.1808 4.3045 38.1675C5.90636 38.013 20.7839 38.1197 20.8693 38.1185C21.4759 38.1138 22.1637 38.1084 22.6347 37.6315C23.0748 37.1857 23.2798 36.393 23.2594 35.2082C23.2289 33.3969 23.0552 10.7719 23.0552 10.7719C23.0282 9.65033 22.9877 7.95574 20.9095 7.7711C18.565 7.56292 6.60234 7.53889 4.53351 7.69092C2.99541 7.80396 2.45798 9.20136 2.46989 10.4715V10.472Z" fill="#2C3135"/>
<path d="M4.98805 14.2739C4.97394 14.2675 4.96131 14.2582 4.95094 14.2468C4.94057 14.2353 4.93268 14.2219 4.92775 14.2073C4.92282 14.1927 4.92097 14.1773 4.92229 14.162C4.92361 14.1467 4.92809 14.1318 4.93545 14.1182C4.94218 14.1045 4.95163 14.0921 4.96326 14.082C4.97488 14.0719 4.98843 14.0642 5.00312 14.0594C5.01781 14.0545 5.03333 14.0526 5.04877 14.0538C5.06421 14.055 5.07925 14.0592 5.09301 14.0663C5.59322 14.3382 6.50109 13.8113 6.57826 13.7499C5.84357 12.8601 6.35495 11.2791 7.24496 11.6248C7.62433 11.7719 7.77445 12.9148 6.91967 13.7605C7.86377 14.4382 9.0421 13.9262 9.4639 13.6379C9.24463 13.336 9.12796 12.9731 9.13068 12.6014C9.11504 11.3649 10.6038 11.512 10.3817 12.689C10.3048 13.0727 10.0986 13.4195 9.79688 13.6727C10.6189 14.4113 11.9446 13.9723 12.2592 13.7379C12.0566 13.4482 11.9499 13.1034 11.9538 12.7512C11.9161 11.3914 13.2147 11.4853 13.1522 12.6603C13.1392 12.8713 13.0833 13.0776 12.9879 13.2668C12.8924 13.456 12.7594 13.6242 12.5967 13.7615C12.8584 13.9937 13.9512 14.1364 14.6161 13.4074C14.3658 12.9521 14.2742 12.1672 14.7494 11.9433C15.1094 11.7739 15.5434 12.0953 15.3325 12.7689C15.248 13.0213 15.1053 13.2508 14.9156 13.4393C15.4238 14.1163 16.6073 13.7992 16.9232 13.5656C16.7232 13.2977 16.622 12.9703 16.6366 12.6377C16.6678 11.4796 17.8506 11.6552 17.7531 12.6519C17.7083 13.0138 17.5319 13.3473 17.2569 13.5903C17.5578 13.8745 18.8506 13.9888 19.5599 12.9484C19.5962 12.8954 19.6463 12.854 19.7088 12.8748C19.7713 12.8957 19.8217 12.9687 19.7832 13.0219C19.5063 13.4615 19.0717 13.7815 18.5663 13.9179C18.0608 14.0543 17.5219 13.997 17.0574 13.7576C16.6951 14.0216 15.4029 14.3502 14.7422 13.6038C14.4358 13.8915 14.0453 14.076 13.6264 14.1312C13.2075 14.1863 12.7817 14.1092 12.4098 13.9108C11.9868 14.1705 11.4952 14.3003 10.9974 14.2836C10.4997 14.267 10.0181 14.1047 9.61377 13.8174C9.19598 14.1063 8.70258 14.2697 8.193 14.2879C7.68341 14.3062 7.17935 14.1784 6.74152 13.9201C6.65617 13.9885 5.68428 14.5456 4.98805 14.2739ZM7.01545 11.7974C6.68296 11.7974 6.42641 12.2878 6.46065 12.7809C6.46952 13.0762 6.57173 13.3613 6.75293 13.5962C7.53402 12.8224 7.37721 11.7972 7.01545 11.7972V11.7974ZM12.5634 11.9877C12.2682 11.9877 12.1788 12.3886 12.1888 12.7454C12.1847 13.0443 12.2717 13.3375 12.4384 13.5869C12.7085 13.3423 12.879 13.0086 12.9177 12.6485C12.9361 12.3008 12.8247 11.9874 12.5634 11.9874V11.9877ZM9.78249 11.9693C9.45844 11.9693 9.36068 12.3084 9.36565 12.5995C9.36172 12.9209 9.45977 13.2354 9.64602 13.4989C9.90764 13.2799 10.0856 12.9792 10.1505 12.6465C10.2021 12.3741 10.083 11.9691 9.78249 11.9691V11.9693ZM17.2035 12.0674C16.9643 12.0674 16.8787 12.3682 16.8713 12.6448C16.8592 12.9201 16.9406 13.1915 17.1025 13.4157C17.7357 12.8084 17.5524 12.0666 17.2035 12.0666V12.0674ZM14.9417 12.1326C14.7248 12.1326 14.638 12.3937 14.6454 12.6247C14.6505 12.8362 14.7004 13.0443 14.792 13.2355C15.3014 12.6689 15.1625 12.1319 14.9417 12.1319V12.1326Z" fill="#4D68A1"/>
<path d="M19.0806 17.6484C19.0806 17.6484 15.6318 17.5724 11.8407 17.5486C11.8105 17.5472 11.782 17.5344 11.7611 17.5128C11.7402 17.4912 11.7285 17.4624 11.7285 17.4325C11.7285 17.4026 11.7402 17.3739 11.7611 17.3522C11.782 17.3306 11.8105 17.3178 11.8407 17.3164C11.8407 17.3164 18.0728 17.3738 19.0858 17.4164C19.117 17.4171 19.1466 17.4299 19.1681 17.4522C19.1897 17.4744 19.2014 17.5041 19.2007 17.5349C19.2001 17.5656 19.1871 17.5949 19.1646 17.6162C19.1421 17.6375 19.112 17.6491 19.0809 17.6484H19.0806Z" fill="#E02728"/>
<path d="M8.9676 17.5308H5.47456C5.44268 17.5296 5.41256 17.5161 5.39066 17.4932C5.36876 17.4702 5.35684 17.4397 5.35744 17.4082C5.35744 17.393 5.36048 17.3779 5.36638 17.3639C5.37228 17.3498 5.38093 17.337 5.39183 17.3263C5.40273 17.3155 5.41567 17.307 5.42991 17.3012C5.44415 17.2954 5.4594 17.2924 5.47481 17.2925C5.47481 17.2925 6.96055 17.2947 8.9681 17.303C8.98351 17.3031 8.99876 17.3062 9.01297 17.312C9.02718 17.3179 9.04009 17.3265 9.05094 17.3373C9.06179 17.3482 9.07038 17.361 9.07622 17.3751C9.08206 17.3892 9.08503 17.4043 9.08496 17.4195C9.08494 17.4345 9.08185 17.4494 9.07589 17.4632C9.06992 17.477 9.0612 17.4894 9.05024 17.4998C9.03928 17.5102 9.02632 17.5183 9.01212 17.5236C8.99792 17.529 8.98278 17.5314 8.9676 17.5308Z" fill="#E02728"/>
<path d="M18.9887 20.3488C18.9887 20.3488 5.58253 20.26 5.46963 20.2596C5.43941 20.2582 5.41088 20.2453 5.38998 20.2237C5.36908 20.2021 5.35742 20.1733 5.35742 20.1434C5.35742 20.1135 5.36908 20.0848 5.38998 20.0632C5.41088 20.0415 5.43941 20.0287 5.46963 20.0273C5.46963 20.0273 16.7889 20.0813 18.9902 20.1168C19.0213 20.1171 19.0511 20.1296 19.0729 20.1515C19.0947 20.1734 19.1069 20.203 19.1066 20.2338C19.1063 20.2646 19.0937 20.294 19.0715 20.3155C19.0493 20.3371 19.0194 20.3491 18.9882 20.3488H18.9887Z" fill="#E02728"/>
<path d="M10.1976 25.0492C9.84136 25.2891 9.42071 25.4181 8.98969 25.4198C8.55868 25.4215 8.137 25.2958 7.77887 25.0588C7.57343 25.2059 6.31943 25.6311 5.65546 24.931C5.63734 24.9079 5.62872 24.8788 5.63131 24.8497C5.63391 24.8206 5.64752 24.7935 5.66945 24.7738C5.69137 24.7541 5.71999 24.7434 5.74959 24.7437C5.7792 24.7439 5.8076 24.7552 5.82914 24.7753C6.41744 25.3032 7.45632 25.0019 7.63397 24.8751C7.43299 24.5568 7.34378 24.1819 7.38014 23.8085C7.46897 22.4202 9.06414 22.438 8.54978 23.9774C8.43563 24.3327 8.2329 24.6539 7.96025 24.9114C8.18579 25.149 9.27752 25.4567 10.0693 24.8511C9.90512 24.5559 9.81973 24.2243 9.82116 23.8874C9.82116 22.6349 11.498 22.5648 11.0466 24.0755C10.9209 24.413 10.6932 24.7041 10.3943 24.9092C11.1355 25.8113 12.5098 25.354 12.9088 25.0715C12.6662 24.7217 12.5357 24.3078 12.5344 23.8838C12.4726 22.4461 14.2913 22.7438 13.8742 24.1471C13.7595 24.5161 13.5422 24.8459 13.2472 25.099C14.0533 25.7441 15.0773 25.3209 15.483 25.0389C15.2294 24.7668 15.0882 24.4106 15.0873 24.0407C15.0977 22.7379 16.4986 22.67 16.3713 24.052C16.3238 24.4398 16.1339 24.7968 15.8376 25.0553C16.3946 25.5362 17.4402 25.2056 17.7744 24.9732C17.5985 24.6908 17.5195 24.3599 17.5491 24.0297C17.7228 22.3554 19.8743 23.537 18.095 25.0181C18.3279 25.2244 18.631 25.3363 18.9438 25.3315C19.2566 25.3266 19.556 25.2053 19.7822 24.9918C19.8027 24.9697 19.8311 24.9563 19.8615 24.9544C19.8918 24.9525 19.9217 24.9623 19.9449 24.9817C19.968 25.0011 19.9827 25.0286 19.9859 25.0585C19.989 25.0883 19.9803 25.1182 19.9616 25.1419C19.5333 25.6419 18.4627 25.7174 17.9069 25.1613C17.537 25.4207 16.4539 25.7777 15.6542 25.2054C15.2799 25.4779 14.8289 25.6283 14.3641 25.6355C13.8992 25.6428 13.4437 25.5066 13.0609 25.2459C12.6257 25.5654 11.2476 26.1006 10.1976 25.0492ZM13.2271 23.1719C12.9497 23.1719 12.7574 23.5473 12.7716 23.8747C12.7709 24.2495 12.8832 24.616 13.0941 24.9276C13.9377 24.1861 13.7995 23.171 13.2283 23.1719H13.2271ZM15.7944 23.2727C15.3845 23.2727 15.0448 24.229 15.6666 24.8977C15.9301 24.6791 16.0993 24.3696 16.14 24.0321C16.173 23.6878 16.0252 23.2727 15.7957 23.2727H15.7944ZM18.1994 23.4444C17.9057 23.4444 17.559 24.1334 17.966 24.83C18.2381 24.6226 18.4413 24.3395 18.5493 24.0171C18.5957 23.8198 18.4955 23.4441 18.2007 23.4441L18.1994 23.4444ZM8.16024 23.0258C7.90194 23.0258 7.64588 23.3634 7.6166 23.8232C7.58659 24.1373 7.65696 24.4528 7.81783 24.7253C8.0534 24.4971 8.2288 24.2153 8.32871 23.9046C8.45699 23.5214 8.36518 23.0557 8.16024 23.0258ZM10.5824 23.1751C10.2846 23.1719 10.0598 23.5096 10.0598 23.8862C10.0663 24.1726 10.1402 24.4535 10.2757 24.7067C10.5259 24.5339 10.7174 24.2905 10.8251 24.0083C10.9337 23.6467 10.8811 23.2168 10.5824 23.1751Z" fill="#4D68A1"/>
<path d="M11.6821 29.1873C11.667 29.1881 11.652 29.1859 11.6379 29.1808C11.6237 29.1757 11.6108 29.1678 11.5998 29.1576C11.5888 29.1475 11.58 29.1352 11.5739 29.1216C11.5679 29.108 11.5646 29.0933 11.5645 29.0784C11.5645 29.0476 11.5768 29.0181 11.5988 28.9963C11.6208 28.9745 11.6507 28.9623 11.6818 28.9622C15.2352 28.9602 18.9932 28.9551 18.9932 28.9551V29.1873H11.6821Z" fill="#E02728"/>
<path d="M10.2114 29.1949C5.50703 29.1937 5.47229 29.1878 5.4579 29.1858C5.42787 29.1815 5.4007 29.1659 5.38209 29.1422C5.36347 29.1185 5.35487 29.0886 5.35808 29.0588C5.36129 29.029 5.37607 29.0015 5.3993 28.9822C5.42254 28.963 5.45244 28.9533 5.48271 28.9553C5.59089 28.9593 8.09344 28.9617 10.2109 28.9627C10.2268 28.962 10.2427 28.9644 10.2575 28.97C10.2724 28.9755 10.286 28.9839 10.2975 28.9948C10.309 29.0056 10.3182 29.0186 10.3244 29.0331C10.3307 29.0475 10.3339 29.0631 10.3339 29.0788C10.3339 29.0945 10.3307 29.1101 10.3244 29.1245C10.3182 29.139 10.309 29.152 10.2975 29.1629C10.286 29.1737 10.2724 29.1821 10.2575 29.1876C10.2427 29.1932 10.2268 29.1956 10.2109 29.1949H10.2114Z" fill="#E02728"/>
<path d="M34.0098 20.7209C34.0081 20.5744 34.0556 20.4315 34.1449 20.3146C34.2342 20.1977 34.3601 20.1134 34.5031 20.0747C35.6432 19.7886 37.7877 19.8693 38.2966 20.0747C38.3859 20.1018 38.4637 20.1574 38.5175 20.2329C38.5714 20.3083 38.5984 20.3993 38.5943 20.4916C38.5943 20.8349 37.7073 22.0263 36.159 22.0263C34.8073 22.0273 34.0098 21.0948 34.0098 20.7209Z" fill="#4D68A1"/>
<path d="M41.0432 26.4983C40.4165 26.69 36.7952 27.7978 35.8441 28.2166C35.965 28.9265 36.8118 33.7732 37.742 35.7056C39.2758 35.6797 40.8003 35.4655 42.2806 35.0681C42.8579 32.1553 42.4218 29.1352 41.0432 26.4983ZM45.7575 28.618C44.4715 22.3468 41.2504 20.3503 38.7499 20.1468C38.8059 20.2526 38.8338 20.3707 38.831 20.4901C38.831 21.1053 37.7058 22.2555 36.1607 22.257C34.6112 22.257 33.7775 21.3159 33.7775 20.7184C33.775 20.5974 33.7984 20.4772 33.8463 20.3659C33.8942 20.2545 33.9655 20.1544 34.0554 20.0723C33.2575 20.1154 31.9697 20.4401 30.6502 21.8267C30.3813 23.6887 29.7751 27.1588 28.7397 29.4441C28.7265 29.4715 28.7031 29.4928 28.6742 29.5033C28.6454 29.5138 28.6136 29.5127 28.5856 29.5003C28.5576 29.4879 28.5356 29.4651 28.5244 29.4369C28.5131 29.4086 28.5136 29.3772 28.5256 29.3492C29.5086 27.1772 30.1019 23.9151 30.3837 22.0221C30.3837 22.0221 30.4671 21.0413 30.4991 20.5705C30.5027 20.5186 30.4956 20.4664 30.4782 20.4173C30.4609 20.3681 30.4336 20.3229 30.3981 20.2844C30.3626 20.246 30.3196 20.215 30.2717 20.1933C30.2238 20.1717 30.1719 20.1599 30.1192 20.1586C29.5967 20.1446 28.6913 20.1274 28.2122 20.1586C28.1357 20.1637 28.0625 20.191 28.0016 20.237C27.9407 20.283 27.8949 20.3457 27.8698 20.4173C27.545 21.3417 26.3101 24.8449 25.7235 26.3511C25.0444 28.0953 24.2574 30.1692 25.6149 31.0904C26.9215 31.9778 28.8583 30.4431 30.2852 28.8071C30.5373 27.6511 30.7212 26.4817 30.8361 25.3046C30.8367 25.289 30.8406 25.2736 30.8474 25.2595C30.8542 25.2453 30.8638 25.2327 30.8757 25.2224C30.8876 25.212 30.9015 25.2041 30.9165 25.1992C30.9316 25.1942 30.9475 25.1924 30.9632 25.1936C30.979 25.1949 30.9944 25.1994 31.0084 25.2067C31.0224 25.214 31.0348 25.224 31.0448 25.2362C31.0548 25.2483 31.0622 25.2623 31.0666 25.2774C31.071 25.2924 31.0722 25.3082 31.0703 25.3237C30.8686 27.3894 30.4493 29.4286 29.8193 31.4082C29.5314 32.6251 29.2054 33.9092 28.9791 34.5026C28.9791 34.5026 32.556 39.5994 41.9201 36.5479C43.0061 32.9066 42.5568 29.3107 41.0423 26.4983C40.8766 26.1873 40.6912 25.887 40.4872 25.5991C40.4684 25.5745 40.4603 25.5435 40.4646 25.513C40.469 25.4824 40.4854 25.4549 40.5103 25.4363C40.5352 25.4177 40.5665 25.4097 40.5974 25.414C40.6283 25.4183 40.6562 25.4345 40.675 25.4591C41.3777 26.4746 41.9024 27.5997 42.2273 28.7872C42.9441 31.297 42.9313 33.9554 42.1906 36.4584C42.1705 36.5474 41.868 37.9808 41.6717 38.8878C41.6535 38.9736 41.6653 39.063 41.705 39.1414C41.7447 39.2198 41.8101 39.2826 41.8906 39.3196C42.6465 39.6617 43.477 39.8116 44.3065 39.7558C44.3697 39.7516 44.4309 39.7323 44.4848 39.6995C44.5387 39.6666 44.5837 39.6214 44.6159 39.5675C45.1095 38.7478 47.0624 34.98 45.7578 28.618H45.7575ZM41.0432 26.4983C40.4165 26.69 36.7952 27.7978 35.8441 28.2166C35.965 28.9265 36.8118 33.7732 37.742 35.7056C39.2758 35.6797 40.8003 35.4655 42.2806 35.0681C42.8579 32.1553 42.4218 29.1352 41.0432 26.4983Z" fill="#4D68A1"/>
<path d="M40.975 26.3755C42.4889 29.0632 42.9449 32.2088 42.2555 35.2084C42.2555 35.2084 38.5925 35.993 37.6698 35.815C37.6698 35.815 36.3051 32.7554 35.6699 28.1292C35.6699 28.1284 39.3761 26.7188 40.975 26.3755Z" fill="white"/>
<path d="M44.7578 25.3014C44.7578 25.3014 46.5138 29.5865 46.1644 34.1848C47.2152 33.8222 48.2411 33.3927 49.2356 32.8989C48.947 30.1631 48.321 27.4724 47.3718 24.8867C46.493 24.9741 45.6201 25.1125 44.7578 25.3014Z" fill="white"/>
<path d="M35.689 37.4503C32.5703 37.2499 28.9823 34.502 28.9823 34.502L27.0293 39.442C32.5852 43.1617 40.0115 42.3136 40.7516 42.2584L41.9232 36.5469C40.0725 37.1491 37.6325 37.5748 35.689 37.4503Z" fill="#2C3135"/>
<path d="M37.2993 37.4417L39.9634 39.9933C38.9139 40.0695 37.8597 40.0577 36.8122 39.958C36.954 39.1234 37.0838 38.2868 37.2015 37.4486C37.1211 37.4525 37.0417 37.4559 36.9633 37.4586C36.8461 38.2859 36.7172 39.1115 36.5768 39.9352C35.2757 39.7995 33.9856 39.5752 32.7158 39.2641C32.8348 38.7374 32.9489 38.2097 33.0582 37.681C33.3936 37.5391 34.0549 37.149 34.0549 37.149C30.5794 35.7054 29.1984 34.6611 29.1984 34.6611L27.332 39.4006C27.332 39.4006 28.4754 39.1035 29.9559 38.7062C30.3264 38.8354 31.2255 39.1334 32.4371 39.435C32.2853 40.1636 32.0931 40.8835 31.8612 41.5913C31.8601 41.5942 31.8592 41.5973 31.8585 41.6003C31.9344 41.6204 32.0103 41.6403 32.086 41.6594C32.2597 41.1747 32.4781 40.3079 32.6659 39.4914C33.9398 39.8032 35.2338 40.0286 36.5388 40.1659C36.4276 40.8837 36.2691 41.5935 36.0644 42.2908C36.1455 42.2967 36.2267 42.3021 36.3066 42.3075C36.5051 41.611 36.6611 40.9034 36.7738 40.1885C37.8974 40.3468 39.0383 40.3448 40.1614 40.1826L40.7231 40.7183L41.6069 36.6463C40.2012 37.0514 38.7582 37.3179 37.2993 37.4417ZM32.488 39.2072C31.7701 39.0291 31.0591 38.8247 30.3566 38.5942C31.1836 38.3674 31.998 38.0982 32.7966 37.7877C32.7296 38.1089 32.6175 38.6356 32.488 39.2079V39.2072Z" fill="white"/>
<path d="M28.5947 20.1803L30.0152 20.1266C30.0037 19.8387 30.0827 19.5544 30.2415 19.3128C30.4993 18.9597 31.7334 17.7172 31.6441 17.5735C31.4474 17.2575 30.768 18.1098 30.5355 18.0654C30.1849 17.9985 29.608 14.3366 29.3029 14.3567C28.9977 14.3768 29.5557 16.6972 29.4021 16.7308C29.2485 16.7644 28.6036 14.2427 28.3526 14.3165C28.1015 14.3903 28.916 16.7308 28.7744 16.7845C28.6327 16.8382 27.7767 14.8462 27.5392 14.9671C27.3018 15.0879 28.2508 17.0591 28.1151 17.1327C27.9794 17.2062 27.2978 16.273 27.1514 16.4152C27.005 16.5574 27.9997 18.112 28.0881 18.3064C28.1764 18.5009 28.6468 19.5253 28.5947 20.1803Z" fill="white"/>
<path d="M28.6145 20.2919C28.5834 20.2902 28.5541 20.2771 28.5324 20.2551C28.5106 20.233 28.4981 20.2037 28.4972 20.173C28.4972 20.1646 28.6128 19.341 27.8543 18.1133C27.0618 16.8294 26.9075 16.4184 26.9692 16.2721C27.1216 15.9116 27.9498 16.9017 27.9865 16.9417C27.9689 16.9008 27.0462 14.9257 27.4799 14.8031C27.8801 14.69 28.5292 16.3535 28.6674 16.5891C28.6319 16.4692 27.8808 14.3087 28.3004 14.1817C28.6838 14.0657 29.2597 16.2414 29.3673 16.5018C29.3572 16.4528 28.918 14.1773 29.2681 14.2077C29.7765 14.2521 30.0909 17.3483 30.5335 17.9394C30.7121 17.9772 31.4925 17.0616 31.7513 17.516C31.9002 17.7766 31.2272 18.1103 30.3407 19.3645C30.2048 19.597 30.1323 19.8604 30.1303 20.1288C30.129 20.156 30.1181 20.1818 30.0995 20.2018C30.0809 20.2218 30.0558 20.2347 30.0286 20.2382C29.8437 20.2625 28.6947 20.2919 28.6145 20.2919ZM27.2643 16.5239C27.5712 17.2203 28.6994 18.817 28.7312 20.057C29.1004 20.0482 29.6576 20.0325 29.9015 20.0156C29.9319 19.7252 30.0265 19.445 30.1787 19.1949C31.1799 17.936 31.6036 17.6535 31.5255 17.5905C31.4354 17.517 31.225 17.7622 31.1037 17.8556C30.832 18.0638 30.5973 18.2435 30.4156 18.139C30.1139 17.9654 29.4433 14.4799 29.3395 14.4742C29.2651 14.4703 29.7284 16.8539 29.5065 16.8949C29.2651 16.9393 29.1664 16.584 28.7989 15.5097C28.6866 15.1442 28.5486 14.7869 28.3858 14.4404C28.3285 14.7101 29.1537 17.0194 28.9113 17.0886C28.5518 17.1901 27.723 15.0823 27.6049 15.1037C27.4097 15.1387 28.4999 17.3465 28.295 17.4397C28.1818 17.4902 27.4 16.6511 27.2643 16.5239Z" fill="#2C3135"/>
<path d="M29.5608 18.903C29.5413 18.903 29.5221 18.8981 29.505 18.889C29.4878 18.8798 29.4732 18.8665 29.4626 18.8504C29.4519 18.8343 29.4454 18.8158 29.4438 18.7966C29.4421 18.7774 29.4453 18.7581 29.4531 18.7404C29.5379 18.5538 29.6666 18.39 29.8285 18.2625C29.8412 18.2538 29.8554 18.2476 29.8705 18.2444C29.8856 18.2411 29.9012 18.2408 29.9163 18.2435C29.9315 18.2462 29.946 18.2518 29.959 18.26C29.972 18.2683 29.9832 18.2789 29.992 18.2914C30.0008 18.304 30.0071 18.3181 30.0104 18.333C30.0137 18.3478 30.014 18.3632 30.0113 18.3782C30.0085 18.3932 30.0029 18.4076 29.9945 18.4204C29.9862 18.4332 29.9754 18.4443 29.9628 18.453C29.8359 18.5555 29.7352 18.6858 29.6685 18.8336C29.6593 18.8542 29.6442 18.8718 29.6251 18.8841C29.6059 18.8964 29.5836 18.903 29.5608 18.903Z" fill="#2C3135"/>
<path d="M42.1992 39.4478C42.6172 39.6396 43.0713 39.7426 43.5321 39.7498C43.5321 39.7498 43.8249 40.5333 42.7731 41.3844C42.7731 41.3844 42.4881 41.7374 42.8138 42.435C43.1396 43.1326 42.5694 42.8575 42.5287 42.7972C42.369 42.6479 42.2485 42.4624 42.1775 42.2567C42.1066 42.0511 42.0874 41.8314 42.1216 41.6168C41.9933 41.8026 41.9054 42.0127 41.8633 42.2337C41.8213 42.4548 41.826 42.682 41.8772 42.9012C42.0261 43.716 41.5794 43.1057 41.5516 43.0586C41.4171 42.7724 41.33 42.4668 41.2936 42.1533C41.1918 42.4992 41.155 42.8607 41.1852 43.2197C41.2043 43.6091 40.914 43.5203 40.7847 43.2197C40.6558 42.6946 40.6384 42.1488 40.7338 41.6168C40.5545 42.0194 40.4191 42.4398 40.3299 42.8708C40.213 43.4732 39.6582 42.3068 40.4182 40.9996C40.4182 40.9996 39.92 41.1259 39.916 40.9123C39.9121 40.6988 40.5946 40.4028 41.1105 40.4219C41.1105 40.4229 42.0129 40.2285 42.1992 39.4478Z" fill="white"/>
<path d="M43.698 39.7108C43.691 39.6845 43.6749 39.6614 43.6524 39.6456C43.63 39.6299 43.6026 39.6224 43.5752 39.6245C43.1221 39.6353 42.6725 39.5443 42.2601 39.3585C42.2458 39.3518 42.2303 39.348 42.2145 39.3473C42.1987 39.3466 42.183 39.349 42.1681 39.3545C42.1533 39.3599 42.1397 39.3682 42.1282 39.379C42.1167 39.3897 42.1075 39.4025 42.1011 39.4168C42.0396 39.6028 41.9365 39.7726 41.7993 39.9136C41.6622 40.0547 41.4946 40.1633 41.3091 40.2314C41.2741 40.2361 39.6963 40.4543 39.7891 40.9807C39.8246 41.1823 40.2374 41.1301 40.2374 41.1301C39.9266 41.4805 39.6851 43.1339 40.2481 43.1878C40.4186 43.2042 40.5985 42.0626 40.6171 41.9888C40.5985 42.0743 40.3756 43.5581 41.1277 43.5581C41.39 43.5581 41.2602 42.7643 41.2736 42.5819C41.318 42.8666 41.4482 43.1316 41.6473 43.342C41.7909 43.4681 42.1455 43.4727 42.0063 42.9497C41.9096 42.6179 41.915 42.2652 42.0219 41.9365C42.0324 42.1854 42.1137 42.4263 42.2567 42.6314C42.8062 43.3798 43.132 42.8119 42.9735 42.512C42.5849 41.7764 42.8306 41.5067 42.8514 41.4861C43.959 40.7341 43.7094 39.7518 43.698 39.7108ZM40.7312 40.5732C40.6182 40.6731 40.5106 40.7787 40.4086 40.8895C39.4226 41.0325 40.6451 40.5139 40.7312 40.5732ZM42.7658 42.6207C43.0387 43.1378 41.9544 42.3632 42.2944 41.4633C42.3014 41.4388 42.3 41.4126 42.2905 41.3889C42.281 41.3652 42.2639 41.3453 42.2417 41.3321C42.2196 41.319 42.1937 41.3134 42.1681 41.3163C42.1425 41.3191 42.1185 41.3302 42.0998 41.3478C42.075 41.3711 41.5113 41.9255 41.7773 43.0059C41.7918 43.06 41.8001 43.1156 41.8021 43.1716C41.7274 43.0985 41.6673 43.0122 41.6249 42.9171C41.5171 42.6775 41.463 42.4177 41.4666 42.1555C41.4701 41.8933 41.531 41.635 41.6453 41.3983C41.6573 41.3715 41.6587 41.3412 41.649 41.3135C41.6394 41.2857 41.6195 41.2626 41.5934 41.2487C41.5673 41.2349 41.5368 41.2313 41.5081 41.2387C41.4794 41.2461 41.4545 41.264 41.4386 41.2887C41.0968 41.8664 40.9664 42.5428 41.0694 43.2042C41.0875 43.3062 41.022 43.3673 40.9431 43.2533C40.8642 43.1392 40.5523 42.5047 41.1292 41.2112C41.1806 41.096 41.0108 41.0089 40.9183 41.0886C40.4086 41.5351 40.2513 42.7945 40.2111 42.9066C40.1426 42.705 40.1173 42.4916 40.1367 42.2798C40.1397 41.9778 40.2118 41.6804 40.3477 41.4099C40.4836 41.1394 40.6797 40.9028 40.9213 40.7179C40.9597 40.6897 41.2877 40.4972 41.4071 40.4413C41.6003 40.3696 41.7764 40.2591 41.9244 40.1169C42.0723 39.9747 42.1889 39.8038 42.2668 39.615C42.6526 39.7751 43.0664 39.8589 43.4848 39.8616C43.5116 40.1005 43.5025 40.7642 42.7117 41.2988C42.7091 41.3003 42.7067 41.3021 42.7045 41.3042C42.6874 41.3191 42.2651 41.6702 42.7658 42.6197V42.6207Z" fill="#2C3135"/>
<path d="M46.2423 34.0414C47.2355 33.7069 48.2033 33.3029 49.1384 32.8325C48.8734 30.0191 47.5437 25.6793 47.3328 25.0035C46.4846 25.1001 45.6425 25.2427 44.8101 25.4306C44.7798 25.4376 44.7479 25.4324 44.7214 25.4162C44.695 25.3999 44.6762 25.3739 44.6691 25.3439C44.662 25.314 44.6673 25.2824 44.6837 25.2563C44.7002 25.2302 44.7265 25.2115 44.7568 25.2045C45.6306 25.0065 46.5153 24.8592 47.4065 24.7632C47.4331 24.7608 47.4598 24.7674 47.4821 24.7821C47.5044 24.7968 47.5208 24.8186 47.5288 24.8439C47.5444 24.8929 49.1101 29.8273 49.3795 32.8897C49.3816 32.9126 49.3767 32.9357 49.3654 32.9559C49.3541 32.976 49.337 32.9924 49.3163 33.0029C48.3459 33.4927 47.3416 33.9137 46.3108 34.2625C46.2819 34.269 46.2517 34.2644 46.2261 34.2497C46.2005 34.235 46.1815 34.2113 46.1728 34.1833C46.1642 34.1554 46.1665 34.1252 46.1794 34.0989C46.1923 34.0726 46.2147 34.052 46.2423 34.0414Z" fill="#2C3135"/>
<path d="M47.6601 32.3987C47.6319 32.3986 47.6045 32.3885 47.5832 32.3702C47.5619 32.3519 47.5479 32.3265 47.544 32.2989C47.2674 30.402 46.8606 28.526 46.3262 26.6837C46.3184 26.6546 46.3223 26.6236 46.3371 26.5972C46.352 26.5709 46.3766 26.5513 46.4059 26.5426C46.4351 26.5338 46.4666 26.5367 46.4937 26.5505C46.5209 26.5643 46.5415 26.588 46.5513 26.6166C47.0886 28.4706 47.498 30.3586 47.7765 32.2675C47.7787 32.2838 47.7773 32.3005 47.7725 32.3163C47.7676 32.3321 47.7594 32.3467 47.7484 32.3591C47.7374 32.3716 47.7238 32.3815 47.7086 32.3883C47.6934 32.3951 47.6768 32.3987 47.6601 32.3987Z" fill="#E02728"/>
<path d="M39.5939 34.51C39.5687 34.51 39.5442 34.502 39.5239 34.4871C39.5037 34.4722 39.4888 34.4513 39.4815 34.4274C38.997 32.8312 38.426 30.0721 38.4203 30.0444C38.4173 30.0295 38.4172 30.0141 38.4201 29.9992C38.4231 29.9842 38.4289 29.97 38.4374 29.9573C38.4459 29.9446 38.4569 29.9337 38.4697 29.9251C38.4824 29.9166 38.4968 29.9107 38.5119 29.9076C38.527 29.9046 38.5426 29.9045 38.5577 29.9074C38.5728 29.9103 38.5872 29.9161 38.6001 29.9245C38.6129 29.9329 38.624 29.9437 38.6326 29.9564C38.6412 29.969 38.6473 29.9832 38.6503 29.9981C38.656 30.0258 39.225 32.7745 39.7066 34.3607C39.7119 34.3781 39.7129 34.3964 39.7098 34.4142C39.7066 34.432 39.6992 34.4489 39.6883 34.4634C39.6773 34.4779 39.6631 34.4897 39.6467 34.4978C39.6303 34.5059 39.6123 34.5101 39.5939 34.51Z" fill="#E02728"/>
<path d="M41.1446 34.1128C41.1194 34.1127 41.0949 34.1047 41.0747 34.0899C41.0546 34.075 41.0397 34.0542 41.0324 34.0304C40.5751 32.542 39.9142 29.7857 39.9075 29.758C39.9003 29.728 39.9054 29.6965 39.9218 29.6703C39.9382 29.6441 39.9644 29.6254 39.9947 29.6184C40.025 29.6113 40.0569 29.6164 40.0834 29.6325C40.1099 29.6487 40.1288 29.6746 40.136 29.7045C40.1427 29.7322 40.8019 32.4814 41.257 33.963C41.2623 33.9803 41.2635 33.9987 41.2604 34.0165C41.2573 34.0344 41.2499 34.0513 41.239 34.0659C41.2281 34.0804 41.2138 34.0923 41.1974 34.1004C41.181 34.1086 41.1629 34.1128 41.1446 34.1128Z" fill="#E02728"/>
<path d="M38.2257 29.1881C38.1991 29.188 38.1733 29.1791 38.1526 29.1627C38.1318 29.1464 38.1172 29.1235 38.1113 29.0979C38.1053 29.0723 38.1083 29.0455 38.1198 29.0218C38.1312 28.9981 38.1505 28.9789 38.1743 28.9674C38.29 28.9127 38.4017 28.8501 38.5086 28.7801C38.2326 28.6757 37.951 28.5866 37.6649 28.5133C37.6349 28.5053 37.6093 28.4858 37.5937 28.4591C37.5782 28.4324 37.5741 28.4007 37.5822 28.371C37.5903 28.3412 37.6101 28.3159 37.6371 28.3006C37.6641 28.2852 37.6962 28.2811 37.7262 28.2892C38.8309 28.5834 38.7974 28.6827 38.8026 28.7796C38.6488 28.9623 38.4502 29.103 38.2257 29.1881Z" fill="#4D68A1"/>
<path d="M39.6179 28.8187C39.7685 28.7549 39.9131 28.6778 40.0499 28.5885C39.7714 28.5132 39.4878 28.4578 39.2013 28.4229C39.1704 28.4188 39.1425 28.4027 39.1236 28.3783C39.1047 28.3538 39.0965 28.3229 39.1007 28.2924C39.1049 28.2619 39.1211 28.2343 39.1459 28.2156C39.1707 28.197 39.2019 28.1888 39.2328 28.1929C40.3389 28.3401 40.3389 28.4742 40.3389 28.5627C40.3389 28.6164 40.3389 28.7589 39.7122 29.0313C39.6836 29.0436 39.6513 29.0443 39.6223 29.0331C39.5933 29.0219 39.57 28.9998 39.5575 28.9716C39.545 28.9434 39.5443 28.9114 39.5556 28.8828C39.567 28.8541 39.5894 28.8311 39.6179 28.8187Z" fill="#4D68A1"/>
<path d="M37.7413 35.7072C37.4446 35.0391 37.203 34.3483 37.0188 33.6417C37.2833 33.5823 37.6538 33.4815 37.78 33.448C38.0547 33.3744 37.9771 33.0802 37.9041 32.7646C37.849 32.5226 37.2426 30.3221 37.1679 30.1142C37.0932 29.9063 37.0287 29.8969 36.825 29.9124C36.6953 29.9222 36.4032 29.9693 36.175 30.0127C36.0567 29.4159 35.9458 28.8177 35.8422 28.2183C36.7933 27.8 40.4146 26.6917 41.0413 26.4999C41.0011 26.4264 40.9627 26.3575 40.926 26.2925C40.1489 26.5291 36.4759 27.6553 35.6611 28.0459C35.6384 28.0568 35.6199 28.0746 35.6082 28.0966C35.5965 28.1187 35.5922 28.1439 35.5961 28.1685C35.5981 28.1791 35.7291 28.972 35.9435 30.0598C35.9206 30.0652 35.5618 30.1417 35.6229 30.4501C35.6293 30.4827 35.6586 30.6088 35.702 30.7912C35.4484 30.9039 35.2406 31.0979 35.1122 31.3418C34.9838 31.5856 34.9424 31.8652 34.9946 32.1351C35.2008 33.0142 36.2104 32.9813 36.2395 32.9799C36.3015 33.2226 36.3494 33.4021 36.3695 33.4614C36.4499 33.6998 36.5814 33.7152 36.7838 33.6856C36.9767 34.4361 37.2365 35.1684 37.56 35.8737C37.5696 35.8928 37.5843 35.9089 37.6026 35.9202C37.6208 35.9315 37.6419 35.9377 37.6634 35.938C39.2032 35.8952 40.7338 35.6887 42.2288 35.322C42.2464 35.2369 42.2629 35.1522 42.2785 35.068C40.7987 35.4659 39.2747 35.6807 37.7413 35.7072ZM35.2264 32.0866C35.1863 31.8767 35.2169 31.6597 35.3134 31.4686C35.4099 31.2775 35.5671 31.1229 35.7608 31.0283C35.8787 31.5187 36.0499 32.2197 36.1826 32.7477C35.9697 32.768 35.7564 32.7126 35.5812 32.5914C35.4059 32.4702 35.2801 32.2912 35.2264 32.0866Z" fill="#2C3135"/>
<path d="M32.8682 13.4229C32.9143 13.2321 33.8277 12.4705 34.669 10.7134C34.669 10.7134 36.6317 10.9664 37.6008 10.8208C38.228 11.7441 38.6746 12.7754 38.9174 13.8613C39.2975 15.6221 39.4119 17.7548 37.4346 18.3987C37.2772 19.1546 37.3721 19.9406 37.7051 20.6387C37.7051 20.6387 36.3749 22.2214 34.6919 20.7367C35.0957 20.0349 35.2306 19.2128 35.0717 18.4208C34.1881 17.893 33.49 17.1094 33.0721 16.1762C33.0721 16.1762 31.9864 16.7863 31.7725 15.8901C31.4524 14.5488 33.1535 15.0495 33.2079 14.8438C33.2622 14.6381 32.8277 13.5928 32.8682 13.4229Z" fill="#FCCAC2"/>
<path d="M32.7317 15.7384C32.6297 15.7245 32.5262 15.7245 32.4243 15.7384C32.4091 15.741 32.3935 15.7406 32.3785 15.7372C32.3634 15.7338 32.3492 15.7275 32.3366 15.7187C32.324 15.7099 32.3133 15.6987 32.3051 15.6858C32.2969 15.6729 32.2914 15.6586 32.2888 15.6435C32.2862 15.6285 32.2866 15.6131 32.29 15.5983C32.2935 15.5834 32.2998 15.5694 32.3087 15.5569C32.3176 15.5445 32.329 15.5339 32.342 15.5258C32.3551 15.5177 32.3696 15.5122 32.3848 15.5097C32.5111 15.4916 32.6394 15.4916 32.7657 15.5097C32.7963 15.5143 32.8238 15.5307 32.8422 15.5554C32.8606 15.58 32.8684 15.6108 32.8639 15.6411C32.8594 15.6714 32.843 15.6987 32.8182 15.717C32.7935 15.7354 32.7624 15.7434 32.7317 15.7392V15.7384Z" fill="#2C3135"/>
<path d="M40.8145 16.0183C40.481 14.3882 38.6692 9.66607 36.5287 8.45183C34.8189 7.48182 33.6438 8.54722 33.5331 8.74044C34.052 9.34959 34.4841 10.0261 34.8174 10.7511C35.9731 11.0748 37.6147 10.9818 37.6147 10.9818C38.3874 12.2833 38.867 13.7342 39.0205 15.2356C39.0883 16.339 38.8769 16.9275 38.834 17.0256C38.651 17.4623 38.328 17.8277 37.9146 18.0654C37.5012 18.3032 37.0202 18.4002 36.5455 18.3416C36.5152 18.3384 36.4849 18.347 36.4609 18.3655C36.4369 18.384 36.4211 18.411 36.4168 18.4408C36.4125 18.4706 36.4201 18.5009 36.438 18.5253C36.4558 18.5497 36.4826 18.5663 36.5125 18.5716C36.7619 18.5966 37.0137 18.5829 37.2589 18.5311C37.1663 19.2629 37.2879 20.0056 37.6092 20.6712C36.2014 21.7543 35.1255 20.9689 34.8471 20.7229C35.4007 19.902 35.2243 18.4097 35.2161 18.3445C35.2132 18.3248 35.2054 18.3061 35.1934 18.2901C35.1813 18.2741 35.1654 18.2614 35.1471 18.253C33.8182 17.6172 33.38 16.2669 33.1175 16.0783C33.0183 16.0082 32.9123 16.1208 32.6652 16.2215C32.5654 16.2547 32.4586 16.2618 32.3552 16.2421C32.2518 16.2224 32.1554 16.1765 32.0752 16.109C31.9951 16.0415 31.934 15.9546 31.898 15.8569C31.8619 15.7591 31.8521 15.6538 31.8695 15.5512C31.9719 15.0132 32.5793 15.0147 32.7828 15.0853C32.9962 15.1588 33.2542 15.2192 33.3438 14.8438C33.388 14.6621 33.1592 13.8929 33.0612 13.5763C33.0486 13.5348 33.0477 13.4907 33.0586 13.4488C33.0695 13.4068 33.0917 13.3686 33.123 13.3382C33.7843 12.6438 34.3003 11.8272 34.6415 10.9352C34.3088 10.1831 33.8666 9.48303 33.3289 8.8574C30.1971 8.87383 29.978 11.6017 30.213 13.2776C30.5035 15.3508 32.4709 18.4293 33.0249 19.0708C33.0576 19.1086 33.0996 19.1372 33.1469 19.154C33.1942 19.1708 33.2452 19.1751 33.2947 19.1664C33.8861 19.0687 34.4612 18.8915 35.004 18.6397C35.0303 19.1191 35.0255 20.1239 34.5993 20.6646C34.5812 20.686 34.5719 20.7133 34.5733 20.7412C34.5747 20.769 34.5866 20.7953 34.6067 20.8149C36.021 22.0522 37.2172 21.2886 37.834 20.7892C37.8559 20.7715 37.8705 20.7465 37.8751 20.7189C37.8796 20.6913 37.8739 20.663 37.8588 20.6393C37.5123 19.9716 37.3872 19.2132 37.501 18.4713C37.8664 18.3654 38.2016 18.1764 38.4797 17.9194C38.7579 17.6625 38.9713 17.3448 39.1029 16.9917C39.6762 16.9119 40.2188 16.6869 40.678 16.3385C40.7304 16.3046 40.7713 16.256 40.7956 16.1989C40.8199 16.1419 40.8265 16.079 40.8145 16.0183Z" fill="#2C3135"/>
<path d="M36.3514 16.3538C35.9368 16.3023 35.779 15.7562 35.7725 15.7329C35.7657 15.7037 35.7706 15.673 35.7861 15.6473C35.8016 15.6215 35.8266 15.6027 35.8558 15.5947C35.8851 15.5868 35.9163 15.5903 35.943 15.6045C35.9697 15.6187 35.9898 15.6426 35.9991 15.6711C36.0321 15.7886 36.1648 16.0983 36.3792 16.1235C36.6487 16.1534 36.7938 15.676 36.795 15.6709C36.8034 15.6412 36.8233 15.6161 36.8505 15.6009C36.8776 15.5858 36.9097 15.5819 36.9397 15.5902C36.9697 15.5985 36.9952 15.6182 37.0105 15.645C37.0258 15.6718 37.0297 15.7035 37.0213 15.7331C37.0149 15.7596 36.8275 16.4131 36.3514 16.3538Z" fill="#2C3135"/>
<path d="M36.7171 14.9209C36.697 14.9256 36.6761 14.9254 36.6561 14.9202C36.6362 14.915 36.6179 14.9049 36.6029 14.891C36.5829 14.8674 36.5731 14.8369 36.5758 14.8063C36.5784 14.7756 36.5933 14.7473 36.6171 14.7274C36.7518 14.6057 36.8526 14.4518 36.9096 14.2804C36.915 14.2643 36.9148 14.2469 36.9092 14.2309C36.9035 14.2149 36.8927 14.2012 36.8783 14.1919C36.4679 13.8815 36.1893 13.4311 36.097 12.9286C36.0924 12.8982 36.1002 12.8672 36.1187 12.8424C36.1372 12.8177 36.165 12.8012 36.1957 12.7967C36.2265 12.7921 36.2579 12.7999 36.2829 12.8182C36.308 12.8365 36.3246 12.8638 36.3292 12.8943C36.4144 13.3336 36.658 13.7275 37.0148 14.0028C37.0704 14.0417 37.1118 14.0973 37.1328 14.1614C37.1537 14.2254 37.1531 14.2945 37.1309 14.3581C37.0507 14.5812 36.907 14.7766 36.7171 14.9209Z" fill="#2C3135"/>
<path d="M34.4081 14.254C34.3936 14.2267 34.3906 14.195 34.3998 14.1656C34.409 14.1362 34.4297 14.1116 34.4572 14.0973C34.4847 14.0829 34.5169 14.08 34.5466 14.0891C34.5764 14.0982 34.6012 14.1186 34.6157 14.1458C34.6192 14.1522 34.9797 14.8042 35.3162 14.6421C35.4335 14.5857 35.2772 13.9953 35.1601 13.7856C35.1466 13.7588 35.1441 13.7279 35.1532 13.6993C35.1622 13.6707 35.182 13.6467 35.2086 13.6322C35.2351 13.6177 35.2663 13.6139 35.2955 13.6215C35.3248 13.6292 35.35 13.6478 35.3658 13.6733C35.4018 13.7381 35.7819 14.6772 35.4087 14.8554C34.9415 15.0786 34.4239 14.2839 34.4081 14.254Z" fill="#2C3135"/>
<path d="M36.9222 12.9043C36.9096 12.8761 36.9088 12.8442 36.92 12.8155C36.9311 12.7868 36.9534 12.7636 36.9819 12.7511C37.0103 12.7387 37.0427 12.7379 37.0717 12.7489C37.1008 12.76 37.1242 12.782 37.1368 12.8101C37.213 12.9791 37.4904 13.4508 37.7413 13.3638C37.8956 13.3101 37.7646 12.7633 37.6705 12.5671C37.6639 12.5533 37.6602 12.5384 37.6594 12.5232C37.6586 12.508 37.6609 12.4927 37.6661 12.4784C37.6713 12.464 37.6793 12.4508 37.6897 12.4395C37.7 12.4282 37.7125 12.419 37.7265 12.4125C37.7404 12.406 37.7555 12.4023 37.771 12.4015C37.7864 12.4008 37.8018 12.403 37.8163 12.4081C37.8308 12.4133 37.8442 12.4212 37.8556 12.4314C37.8671 12.4417 37.8763 12.454 37.8829 12.4678C37.9125 12.5296 38.2519 13.3971 37.8125 13.585C37.3996 13.7617 36.9371 12.9359 36.9222 12.9043Z" fill="#2C3135"/>
<path d="M36.3986 12.038C36.3801 12.0379 36.362 12.0336 36.3455 12.0253C36.3291 12.0171 36.3149 12.0051 36.304 11.9904C36.2931 11.9757 36.2858 11.9587 36.2828 11.9407C36.2798 11.9227 36.2811 11.9043 36.2867 11.8869C36.3617 11.6538 36.5229 11.4572 36.7382 11.3365C36.9534 11.2158 37.2069 11.1798 37.4479 11.2357C37.463 11.2385 37.4774 11.2443 37.4903 11.2527C37.5031 11.2611 37.5142 11.2719 37.5228 11.2845C37.5315 11.2972 37.5375 11.3113 37.5406 11.3263C37.5437 11.3412 37.5438 11.3565 37.5409 11.3715C37.538 11.3865 37.5321 11.4007 37.5236 11.4134C37.5151 11.4261 37.5042 11.4371 37.4914 11.4456C37.4787 11.4542 37.4643 11.4601 37.4492 11.4632C37.4341 11.4662 37.4186 11.4663 37.4034 11.4635C37.2191 11.419 37.0245 11.4451 36.8588 11.5366C36.6931 11.6281 36.5686 11.7781 36.5102 11.9566C36.5027 11.9801 36.4879 12.0006 36.4678 12.0152C36.4477 12.0298 36.4235 12.0378 36.3986 12.038Z" fill="#2C3135"/>
<path d="M33.7678 13.3514C33.7484 13.3514 33.7293 13.3466 33.7123 13.3375C33.6952 13.3284 33.6807 13.3153 33.67 13.2994C33.6593 13.2834 33.6527 13.2651 33.6509 13.246C33.6491 13.2269 33.6521 13.2077 33.6596 13.19C33.7763 12.9365 33.9752 12.7287 34.2249 12.5995C34.4747 12.4704 34.7609 12.4274 35.0382 12.4772C35.0688 12.4827 35.0961 12.4999 35.1139 12.5252C35.1317 12.5505 35.1386 12.5817 35.1331 12.612C35.1276 12.6423 35.1101 12.6692 35.0846 12.6868C35.059 12.7044 35.0274 12.7112 34.9967 12.7058C34.7716 12.6611 34.5379 12.6936 34.334 12.7981C34.1302 12.9026 33.9686 13.0727 33.876 13.2803C33.867 13.3013 33.852 13.3193 33.8327 13.332C33.8135 13.3446 33.7909 13.3514 33.7678 13.3514Z" fill="#2C3135"/>
<path d="M34.2572 7.71142C34.1009 7.29458 33.5421 6.16371 32.1797 6.50822C30.5825 6.91231 31.0371 8.41147 31.2284 8.8906C31.2357 8.90896 31.2469 8.92557 31.2612 8.93935C31.2755 8.95314 31.2926 8.96377 31.3113 8.97056C31.3301 8.97734 31.3501 8.98013 31.37 8.97873C31.3899 8.97733 31.4093 8.97178 31.4269 8.96244C31.972 8.67743 32.5861 8.54643 33.2017 8.58385C33.2277 8.58606 33.2537 8.58116 33.277 8.5697C33.3004 8.55824 33.3201 8.54065 33.3339 8.51887C33.5251 8.21886 33.8195 7.99717 34.1629 7.89459C34.1816 7.88923 34.1991 7.88013 34.2141 7.86785C34.2291 7.85557 34.2414 7.84038 34.2503 7.82321C34.2591 7.80604 34.2643 7.78726 34.2655 7.76803C34.2667 7.7488 34.2638 7.72953 34.2572 7.71142Z" fill="#2C3135"/>
<path d="M34.1934 15.8959C34.1934 15.9781 34.2405 16.0569 34.3245 16.115C34.4085 16.1732 34.5224 16.2058 34.6412 16.2058C34.76 16.2058 34.8739 16.1732 34.9579 16.115C35.0419 16.0569 35.0891 15.9781 35.0891 15.8959C35.0891 15.8137 35.0419 15.7348 34.9579 15.6767C34.8739 15.6186 34.76 15.5859 34.6412 15.5859C34.5224 15.5859 34.4085 15.6186 34.3245 15.6767C34.2405 15.7348 34.1934 15.8137 34.1934 15.8959Z" fill="#FCC2D7"/>
<path d="M37.9719 14.9843C38.0135 15.0555 38.0942 15.1004 38.1964 15.1093C38.2985 15.1181 38.4137 15.0901 38.5166 15.0314C38.6195 14.9728 38.7017 14.8882 38.745 14.7963C38.7884 14.7045 38.7893 14.6129 38.7478 14.5417C38.7272 14.5064 38.6968 14.4772 38.6582 14.4558C38.6197 14.4343 38.5739 14.421 38.5233 14.4166C38.4727 14.4123 38.4184 14.4169 38.3634 14.4302C38.3085 14.4436 38.254 14.4654 38.203 14.4945C38.1521 14.5235 38.1057 14.5593 38.0665 14.5996C38.0273 14.6399 37.9961 14.6841 37.9747 14.7296C37.9532 14.7751 37.9419 14.821 37.9414 14.8647C37.9409 14.9084 37.9513 14.949 37.9719 14.9843Z" fill="#FCC2D7"/>
<path d="M35.5352 12.2195C35.5352 12.2682 35.5547 12.3148 35.5895 12.3492C35.6243 12.3836 35.6715 12.403 35.7207 12.403C35.77 12.403 35.8172 12.3836 35.852 12.3492C35.8868 12.3148 35.9063 12.2682 35.9063 12.2195C35.9063 12.1709 35.8868 12.1242 35.852 12.0899C35.8172 12.0555 35.77 12.0361 35.7207 12.0361C35.6715 12.0361 35.6243 12.0555 35.5895 12.0899C35.5547 12.1242 35.5352 12.1709 35.5352 12.2195Z" fill="#FF7449"/>
</svg>
