<svg width="34" height="34" viewBox="0 0 34 34" fill="none" xmlns="http://www.w3.org/2000/svg">
<rect width="34" height="34" rx="17" fill="#FF0000" fill-opacity="0.1"/>
<g clip-path="url(#clip0_669_1992)">
<path d="M15.2314 18.3867C10.876 18.3867 7.34521 21.9174 7.34521 26.2729H23.1176C23.1176 21.9174 19.5868 18.3867 15.2314 18.3867Z" fill="white"/>
<path fill-rule="evenodd" clip-rule="evenodd" d="M16.9534 12.2334C16.9986 12.2203 17.044 12.2082 17.0896 12.1971C16.7756 12.649 16.5128 13.147 16.2961 13.6718C15.8262 14.8099 15.553 16.1183 15.4433 17.4757C15.3718 17.474 15.3002 17.4731 15.2285 17.4731C13.9384 17.4731 12.6644 17.7588 11.4978 18.3098C10.3313 18.8607 9.30132 19.6632 8.4818 20.6595C8.16855 21.0403 8.22335 21.603 8.60419 21.9163C8.98502 22.2294 9.54769 22.1747 9.86093 21.7939C10.5129 21.0012 11.3324 20.3628 12.2604 19.9244C13.1885 19.4861 14.2021 19.2588 15.2285 19.2588C15.5168 19.2588 15.804 19.2767 16.0887 19.3122C16.138 19.3233 16.1888 19.3303 16.2409 19.3329C16.9166 19.4324 17.5757 19.6312 18.1966 19.9244C18.7936 20.2064 19.3458 20.5713 19.8373 21.0067C20.2064 21.3337 20.7707 21.2996 21.0976 20.9305C21.4246 20.5614 21.3905 19.9971 21.0214 19.6701C20.4036 19.1228 19.7097 18.6642 18.9592 18.3098C18.3997 18.0455 17.8155 17.8423 17.2167 17.7023C17.3106 16.4554 17.5535 15.3055 17.9466 14.3534C18.2878 13.5271 18.7267 12.884 19.2512 12.4389C19.8338 12.5943 20.337 12.9642 20.6591 13.4754C20.99 14.0007 21.1038 14.634 20.9765 15.2417C20.8349 15.9174 21.2679 16.5799 21.9435 16.7215C22.6192 16.8631 23.2818 16.4301 23.4234 15.7544C23.6838 14.5119 23.4509 13.2169 22.7744 12.1428C22.7044 12.0319 22.6304 11.9241 22.5524 11.8199C23.0321 11.9549 23.4686 12.2202 23.8114 12.5903C24.2805 13.0968 25.0714 13.1271 25.5778 12.658C26.0844 12.1889 26.1146 11.3981 25.6456 10.8916C24.7812 9.95813 23.6056 9.37244 22.3399 9.24447C21.5864 9.1683 20.8316 9.25747 20.1261 9.49858C19.7375 8.87681 19.2117 8.34385 18.5814 7.94466C17.5136 7.26839 16.2271 7.02753 14.987 7.27172C14.3096 7.40509 13.8687 8.06232 14.002 8.73967C14.1354 9.41701 14.7926 9.858 15.47 9.72461C15.8307 9.6536 16.1993 9.66573 16.5492 9.75598C16.4502 9.779 16.3516 9.8048 16.2536 9.83337C15.0176 10.1937 13.9459 10.9736 13.2228 12.0389C12.8351 12.6101 12.9839 13.3874 13.5551 13.7752C14.1263 14.1629 14.9036 14.0141 15.2913 13.4429C15.6878 12.8588 16.2756 12.4311 16.9534 12.2334ZM12.8928 23.2501C12.8928 22.757 12.493 22.3573 11.9999 22.3573C11.5068 22.3573 11.1071 22.757 11.1071 23.2501C11.1071 24.1377 10.3875 24.8573 9.49993 24.8573C9.25182 24.8573 9.01917 24.8017 8.81162 24.7031C8.535 24.5717 8.21034 24.5911 7.95147 24.7549C7.6926 24.9184 7.53564 25.2033 7.53564 25.5096V26.1073C7.53564 26.6004 7.93539 27.0001 8.4285 27.0001H25.5714C26.0645 27.0001 26.4642 26.6004 26.4642 26.1073V25.5096C26.4642 25.2033 26.3072 24.9184 26.0484 24.7549C25.7895 24.5911 25.4648 24.5717 25.1882 24.7031C24.9806 24.8017 24.7481 24.8573 24.4999 24.8573C23.6124 24.8573 22.8928 24.1377 22.8928 23.2501C22.8928 22.757 22.4931 22.3573 21.9999 22.3573C21.5068 22.3573 21.1071 22.757 21.1071 23.2501C21.1071 24.1377 20.3875 24.8573 19.4999 24.8573C18.6123 24.8573 17.8928 24.1377 17.8928 23.2501C17.8928 22.757 17.493 22.3573 16.9999 22.3573C16.5068 22.3573 16.1071 22.757 16.1071 23.2501C16.1071 24.1377 15.3875 24.8573 14.4999 24.8573C13.6123 24.8573 12.8928 24.1377 12.8928 23.2501Z" fill="#FF0000"/>
</g>
<defs>
<clipPath id="clip0_669_1992">
<rect width="20" height="20" fill="white" transform="translate(7 7)"/>
</clipPath>
</defs>
</svg>
