<svg width="21" height="21" viewBox="0 0 21 21" fill="none" xmlns="http://www.w3.org/2000/svg">
<path d="M7.41211 1.77051V4.30897" stroke="#C01212" stroke-width="0.980769" stroke-miterlimit="10" stroke-linecap="round" stroke-linejoin="round"/>
<path d="M14.1797 1.77051V4.30897" stroke="#C01212" stroke-width="0.980769" stroke-miterlimit="10" stroke-linecap="round" stroke-linejoin="round"/>
<path d="M3.60547 7.7666H17.9901" stroke="#C01212" stroke-width="0.980769" stroke-miterlimit="10" stroke-linecap="round" stroke-linejoin="round"/>
<path d="M19.2614 16.1551C19.2614 16.7897 19.0837 17.3905 18.7706 17.8982C18.1868 18.8797 17.1122 19.5397 15.8768 19.5397C15.0222 19.5397 14.2437 19.2267 13.6514 18.6936C13.3891 18.4736 13.1607 18.2028 12.983 17.8982C12.6699 17.3905 12.4922 16.7897 12.4922 16.1551C12.4922 14.2851 14.0068 12.7705 15.8768 12.7705C16.8922 12.7705 17.7976 13.219 18.4153 13.9213C18.9399 14.522 19.2614 15.3005 19.2614 16.1551Z" stroke="#C01212" stroke-width="0.980769" stroke-miterlimit="10" stroke-linecap="round" stroke-linejoin="round"/>
<path d="M17 17.0791L15 15.0791" stroke="#C01212" stroke-miterlimit="10" stroke-linecap="round" stroke-linejoin="round"/>
<path d="M17 15.0791L15 17.0791" stroke="#C01212" stroke-miterlimit="10" stroke-linecap="round" stroke-linejoin="round"/>
<path d="M18.4105 7.2669V13.9177C17.7928 13.2154 16.8874 12.7669 15.872 12.7669C14.002 12.7669 12.4874 14.2815 12.4874 16.1515C12.4874 16.7861 12.6651 17.3869 12.9782 17.8946C13.1558 18.1992 13.3843 18.47 13.6466 18.69H7.41046C4.44892 18.69 3.17969 16.9977 3.17969 14.4592V7.2669C3.17969 4.72844 4.44892 3.03613 7.41046 3.03613H14.1797C17.1412 3.03613 18.4105 4.72844 18.4105 7.2669Z" stroke="#C01212" stroke-width="0.980769" stroke-miterlimit="10" stroke-linecap="round" stroke-linejoin="round"/>
<path d="M11.6372 11.6662H11.6448" stroke="#C01212" stroke-width="1.17692" stroke-linecap="round" stroke-linejoin="round"/>
<path d="M7.66257 11.6662H7.67017" stroke="#C01212" stroke-width="1.17692" stroke-linecap="round" stroke-linejoin="round"/>
<path d="M7.66257 15.053H7.67017" stroke="#C01212" stroke-width="1.17692" stroke-linecap="round" stroke-linejoin="round"/>
</svg>
