<svg width="70" height="70" viewBox="0 0 70 70" fill="none" xmlns="http://www.w3.org/2000/svg">
<rect width="70" height="70" rx="10" fill="#E7F8FF"/>
<path d="M19.2101 40.868C17.8568 36.0818 22.319 27.9101 16.0448 24.164C8.60781 19.724 -0.612089 32.3318 14.8433 40.6601C16.392 41.4718 18.075 41.9963 19.8107 42.2081C19.4411 41.9771 19.2956 41.1704 19.2101 40.868Z" fill="#FDAF31"/>
<path d="M9.53447 33.4296C8.29468 32.9787 7.12251 32.0522 7.45861 30.8514C7.84497 29.472 10.3 29.2478 11.6221 30.1766C11.6807 30.1614 11.7393 30.1478 11.7986 30.136C13.2212 29.3601 15.9079 29.321 16.5702 30.7189C16.7395 30.0542 16.5125 29.39 15.8229 28.8825C15.797 28.8907 15.7731 28.8982 15.7517 28.9064C15.552 28.9839 15.3323 29.0022 15.1215 28.9589C14.9106 28.9156 14.7185 28.8126 14.5701 28.6635C14.2168 28.2469 14.8748 27.9784 15.8617 28.642C16.6822 28.3628 16.7162 27.6716 16.9437 27.7961C16.9696 27.8103 16.9885 27.8337 16.9964 27.8612C17.0042 27.8887 17.0001 27.9181 16.9852 27.9428C16.7884 28.3163 16.4662 28.6163 16.0698 28.7951C16.4226 29.056 16.6746 29.421 16.7863 29.8329C16.898 30.2449 16.863 30.6805 16.6869 31.0715C16.8556 31.9262 16.2587 32.6258 15.497 33.0822C14.7948 35.4629 10.6138 35.6351 9.53447 33.4296ZM9.85006 33.5353C10.9679 35.2597 14.3884 35.1869 15.2003 33.2441C14.514 33.5686 13.7696 33.7668 13.0061 33.8284C12.5348 33.8735 12.8005 33.7627 12.4545 34.2126C12.4369 34.2356 12.4103 34.251 12.3808 34.2553C12.3512 34.2597 12.3211 34.2526 12.297 34.2358C12.2728 34.219 12.2567 34.1937 12.2521 34.1656C12.2476 34.1374 12.2549 34.1087 12.2726 34.0857C12.3274 34.0146 12.3781 33.9407 12.4243 33.8643C11.553 33.8926 10.6829 33.7814 9.85028 33.5353H9.85006ZM9.69993 33.254C10.6123 33.5559 11.577 33.6886 12.5418 33.6448C12.704 33.2941 12.7777 32.912 12.7568 32.5292C12.6202 32.4839 12.462 32.6005 12.0066 32.588C10.7402 32.5524 10.4609 31.2884 11.2553 30.5252C10.0396 31.0268 9.21483 32.1169 9.70015 33.2551L9.69993 33.254ZM12.9845 32.5934C13.007 33.6803 12.5433 33.6568 12.9845 33.6148C13.798 33.5537 14.5881 33.3258 15.3004 32.9465C15.348 32.7566 15.3692 32.5616 15.3635 32.3666C14.6181 32.6885 13.7823 32.7682 12.9847 32.5934H12.9845ZM9.77544 29.816C7.2244 29.816 6.73232 32.0679 9.42312 33.1509C9.02638 31.8813 10.0191 30.7242 11.3513 30.2589C10.8832 29.9668 10.335 29.8128 9.77544 29.816ZM15.5833 32.2541C15.5964 32.4302 15.5894 32.6072 15.5626 32.7817C16.0344 32.457 16.4586 31.9928 16.4884 31.432C16.2589 31.7701 15.9489 32.0518 15.5835 32.2541H15.5833ZM13.0444 32.3866C13.8185 32.5548 14.6293 32.4658 15.3432 32.1349C15.1809 30.9186 13.9513 29.6404 12.5792 30.0864C14.126 30.2082 14.8264 31.6483 13.044 32.3866H13.0444ZM11.6579 30.4777C10.6023 31.2212 10.9183 32.5563 12.3445 32.3537C11.6457 31.9797 11.256 31.3032 11.5664 30.645C11.6653 30.4369 11.6807 30.4953 11.6581 30.4777H11.6579ZM11.8297 30.628C11.2404 31.5532 12.5605 32.3187 12.7313 32.2655C12.616 31.6441 12.301 31.0722 11.8299 30.6287L11.8297 30.628ZM11.9665 30.4551C12.4749 30.921 12.8179 31.5265 12.9475 32.1871C14.6832 31.4698 13.6824 30.1665 12.1455 30.3014C12.081 30.3475 12.0212 30.3992 11.9667 30.4558L11.9665 30.4551ZM13.6084 29.8324C14.5958 30.054 15.3922 31.0644 15.5547 32.0183C15.945 31.7844 16.256 31.448 16.4503 31.0496C16.1867 29.9889 14.7477 29.7244 13.6087 29.8328L13.6084 29.8324ZM14.7001 28.4651C14.8015 28.5924 14.9421 28.6864 15.1022 28.7339C15.2624 28.7814 15.4342 28.7799 15.5934 28.7298C15.1654 28.4698 14.7475 28.4206 14.7003 28.4661L14.7001 28.4651Z" fill="#414141"/>
<path d="M18.2397 9.72448C16.4253 7.46008 12.4479 7.21138 11.2161 10.7643C10.089 14.0157 12.9216 16.2699 14.7972 17.9496C15.8523 18.8943 16.9035 20.5164 16.7379 20.9298C19.2501 18.183 20.5671 12.6291 18.2397 9.72448Z" fill="#FDAF31"/>
<path d="M18.1242 13.837C18.2685 14.1556 18.1506 14.5522 17.5929 14.737C17.2191 14.9095 16.7829 14.6071 16.7829 14.4136C16.5057 13.7896 16.0836 12.7987 15.8358 12.1723C15.7773 12.0243 15.7756 11.8598 15.831 11.7106C15.8863 11.5614 15.9949 11.4379 16.1358 11.3638C16.2171 11.3347 16.2947 11.2959 16.3668 11.2483C16.5142 11.1826 16.6815 11.1772 16.8329 11.2333C16.9842 11.2894 17.1077 11.4024 17.1768 11.5483C17.1771 11.6179 17.8401 13.2088 18.1242 13.837Z" fill="#87E4FF"/>
<path d="M16.2295 13.7678C16.2952 13.9153 16.3006 14.0826 16.2445 14.2339C16.1885 14.3853 16.0754 14.5087 15.9295 14.5778C15.8482 14.6069 15.7706 14.6457 15.6985 14.6933C15.3067 14.8733 14.8885 14.5496 14.8885 14.3699C14.6113 13.7459 14.2051 12.7253 13.9414 12.1286C13.6894 11.5586 14.4037 11.0231 14.9578 11.1815C15.415 11.3759 15.2575 11.6618 16.2295 13.7678Z" fill="#87E4FF"/>
<path d="M14.9354 15.0387C15.0734 15.3453 14.9819 15.7242 14.4041 15.9168C14.0306 16.089 13.5956 15.7869 13.5956 15.5931C13.4339 15.2004 13.2026 14.6931 13.064 14.2995C12.7223 13.5588 14.0486 12.9051 14.4041 13.6755C14.5548 14.1398 14.7322 14.5949 14.9354 15.0387Z" fill="#87E4FF"/>
<path d="M37.8548 18.8504C36.8159 12.7622 29.1164 8.82023 23.1377 13.9523C17.4542 18.83 20.4953 25.5767 22.19 30.4949C22.7876 32.2286 23.24 34.0751 23.1143 35.9936C23.0885 36.386 23.0912 37.4489 22.6523 37.8188C24.9676 37.0632 27.139 35.9228 29.0753 34.4456C34.2002 30.3278 38.8757 24.8336 37.8548 18.8504Z" fill="#87E4FF"/>
<path d="M24.9626 13.7212L22.2131 28.138L32.1479 30.2404L35.3825 15.6157L24.9626 13.7212Z" fill="white"/>
<path d="M25.4003 16.3813V15.7812L29.0003 16.3813V16.9813L25.4003 16.3813Z" fill="#005BC3"/>
<path d="M25.4003 18.7812V18.1812L33.2003 19.3812V19.9812L25.4003 18.7812Z" fill="#005BC3"/>
<path d="M42.4758 10.5332C43.4058 12.2432 42.7602 14.7611 40.9743 14.7611C40.7664 14.7611 40.3743 14.5532 40.1886 14.6456C39.8652 14.8073 40.2351 15.641 39.819 15.662C38.8257 15.7127 39.141 14.222 39.5418 13.7444C39.8361 13.3931 40.4193 13.8155 40.7664 13.883C41.6202 14.0492 41.9607 13.2143 42.0138 12.473C42.0471 12.0113 41.6673 10.5554 40.9281 11.156C40.816 11.2637 40.7274 11.3934 40.6676 11.5368C40.6077 11.6803 40.5781 11.8345 40.5804 11.99C40.5573 12.1055 40.6035 12.383 40.488 12.4754C40.3725 12.5678 40.1646 12.4985 40.026 12.4754C39.932 12.4712 39.8389 12.4557 39.7488 12.4292C39.246 12.2438 39.7446 10.8671 39.9336 10.4423C40.5804 9.35476 41.8521 9.51646 42.4758 10.5332Z" fill="#87E4FF"/>
<path d="M39.0275 16.231L38.8091 17.1529L39.731 17.3713L39.9494 16.4494L39.0275 16.231Z" fill="#87E4FF"/>
<path d="M31.9175 40.6372L32.1947 41.9773L30.9701 42.2314L30.6929 40.9144L31.9175 40.6372Z" fill="#87E4FF"/>
<path d="M30.8545 35.6465L31.7095 39.7361L30.4849 39.9902L29.6299 35.9009L30.8545 35.6465Z" fill="#87E4FF"/>
<path d="M54.4667 33.6377C53.8535 32.5214 52.2167 32.5511 51.833 34.3772C51.152 34.2068 49.9067 32.8217 49.8923 32.7137C49.8674 32.5289 50.054 31.697 49.8923 31.5815C49.6379 31.4198 48.9683 31.58 48.6677 31.5353C48.1761 31.4583 47.7085 31.2707 47.3001 30.9865C46.8917 30.7023 46.5532 30.329 46.3103 29.8949C45.1826 27.9194 45.6092 26.822 45.2003 26.7296C44.6303 26.6006 43.7249 29.6486 40.6718 31.0733C40.7414 31.6754 41.6795 38.1071 41.6885 38.1431C42.0401 39.172 42.6759 40.0805 43.5223 40.7632C44.3686 41.446 45.391 41.8753 46.4711 42.0014L46.4249 42.3248C46.7945 43.6649 48.2045 43.7516 48.8507 43.8266C49.2232 43.8667 49.5999 43.8353 49.9607 43.7342C52.9697 42.9242 51.6491 39.1796 51.7397 39.044C51.9707 38.6282 52.0397 38.0045 52.3397 37.634C52.4552 37.4723 52.9634 37.796 53.1944 37.7729C54.4103 37.4699 55.2311 35.0309 54.4667 33.6377Z" fill="white"/>
<path d="M44.5104 57.2262C44.2329 56.9028 43.3104 56.9019 42.9624 56.8566C39.2724 56.3742 36.5805 58.1505 36.5625 59.0052C36.5547 59.3853 37.5177 58.6044 39.1965 58.0812C39.7461 57.9099 40.2732 57.8685 39.4965 58.1274C38.5571 58.4457 37.6868 58.9395 36.9318 59.5827C36.8358 59.679 36.447 59.9646 36.516 60.2067C36.5889 60.6072 37.716 59.6529 39.336 59.1669C41.1921 58.7958 38.9619 59.3304 37.4877 60.5769C36.9705 61.014 36.8763 61.4877 37.9497 61.062C40.8627 59.9073 41.0796 60.0618 40.0059 60.4383C38.277 61.0449 37.8159 62.2701 40.3986 61.4088C42.9165 60.7788 44.9286 61.7034 45.9204 61.1088C45.5046 60.2772 44.6499 57.8514 44.5806 57.2043L44.5104 57.2262Z" fill="white"/>
<path d="M27.6662 56.8337C27.2021 56.4854 25.5062 56.5481 25.0094 56.5565C23.6225 56.5796 20.951 56.7008 19.9958 57.9665C19.3658 58.8023 21.8189 57.9203 23.1842 57.9203C23.2997 57.9203 23.5769 57.8279 23.5076 57.9203C23.4383 58.0358 22.8836 58.0574 22.7684 58.082C19.5821 58.76 18.6914 59.9216 22.0751 59.3063C22.1051 59.2976 22.5917 59.1758 22.6529 59.237C22.7684 59.4218 22.238 59.3789 22.0289 59.4449C21.7991 59.5178 20.4116 59.9072 20.4809 60.2549C20.5271 60.4166 20.9432 60.3725 21.0587 60.3704C22.88 60.338 23.6462 59.9177 23.6462 60.0008C23.6693 60.1163 22.1213 60.5321 22.1675 60.9479C22.2368 61.3637 23.7386 60.971 23.9234 60.9479C25.8641 60.5552 27.6434 60.4397 29.5607 60.0479C27.9035 59.4506 27.6662 58.3448 27.6662 56.8337Z" fill="#FDAF31"/>
<path d="M57.4244 40.8921C55.6751 39.999 53.7677 39.4574 51.8102 39.2979C52.226 41.0769 52.0874 43.11 50.0081 43.7109C49.6472 43.8113 49.2706 43.8426 48.8981 43.8033C48.2513 43.734 46.8419 43.6416 46.4723 42.3015L46.4954 41.9781C45.4703 41.8661 44.496 41.4732 43.6799 40.8429C41.8352 41.6037 40.2728 43.6791 39.5873 44.9829C38.0162 47.9862 37.2539 51.2901 34.6892 53.7159C33.8376 54.4953 32.8516 55.1138 31.7792 55.5411C29.7458 56.1651 27.8978 56.4654 27.6434 56.8119C27.5197 57.4826 27.6436 58.1754 27.992 58.7618C28.3404 59.3481 28.8897 59.7882 29.5379 60.0003C31.5017 60.6933 34.5977 60.0927 36.7694 59.7003C37.9244 58.5447 39.5645 58.1385 39.8894 57.9444C39.8432 57.8751 39.2426 58.0599 39.1964 58.0599C37.4999 58.5522 36.5546 59.3652 36.5624 58.9839C36.5768 58.2939 38.357 57.1314 40.2128 56.8584C41.618 55.7972 42.7635 54.4304 43.5629 52.8615C45.0059 56.5629 45.6422 56.4789 45.6422 56.8584C45.0647 56.9277 44.6489 56.997 44.6258 57.0663C44.6258 57.7842 45.6299 60.4377 45.9656 61.1094C46.2356 61.6515 46.4867 61.4754 47.2133 61.5255C68.1233 62.9607 65.5559 45.3666 57.4244 40.8921Z" fill="white"/>
<path d="M50.9087 34.2842C50.6831 34.1778 50.4835 34.0233 50.3239 33.8315C50.1642 33.6398 50.0485 33.4154 49.9847 33.1742C48.4547 32.2442 46.4747 32.9942 46.1957 34.2371C46.1177 34.6025 46.1164 34.9801 46.192 35.346C46.2675 35.7119 46.4183 36.0581 46.6346 36.3626C47.9219 38.2007 52.0472 36.8456 50.9087 34.2842Z" fill="white"/>
<path d="M46.5654 38.9052C46.4454 38.2671 44.7249 38.6745 44.8095 38.9514C45.0615 39.777 46.7241 39.7608 46.5654 38.9052Z" fill="white"/>
<path d="M41.4825 36.4792C41.7849 36.6984 42.1439 36.8258 42.5168 36.8463C42.8896 36.8668 43.2604 36.7794 43.5849 36.5947C43.5849 36.4099 43.7235 36.3637 43.9314 36.3175C44.1054 36.1399 44.2393 35.9272 44.3241 35.6935C45.2808 33.2251 42.4815 32.0134 41.0898 33.6373C41.2677 34.66 41.4825 35.5186 41.4825 36.4792Z" fill="white"/>
<path d="M58.0701 31.2115C57.8853 30.01 56.499 30.3796 55.9908 29.5711C55.3908 28.6006 55.2747 27.4225 54.6276 26.4511C53.0301 24.0229 47.5719 21.6178 45.4092 23.5411C45.1782 23.749 44.9934 24.1879 44.7162 24.2803C44.3412 24.4168 43.6839 24.1678 42.267 24.8116C40.7418 25.5083 39.479 26.6739 38.6628 28.1386C38.3856 28.6933 38.3394 29.3632 38.0628 29.8945C37.6932 30.6109 36.9528 31.0045 36.8382 31.8814C36.6996 32.8981 37.3482 33.7528 38.2014 34.2382C38.4324 34.3768 39.0144 34.4659 39.1719 34.6771C39.3729 34.9471 38.8167 35.5507 39.4029 36.202C40.0377 36.916 41.5053 36.3868 41.5053 36.2944C41.3655 34.1989 40.9524 33.7663 40.8324 30.9844C43.9425 29.4781 44.6601 26.5423 45.2724 26.6833C45.6666 26.7709 45.2988 27.9238 46.3824 29.8486C46.6258 30.2822 46.9643 30.655 47.3725 30.9391C47.7806 31.2233 48.2477 31.4112 48.7389 31.489C49.0389 31.5352 49.7094 31.3735 49.9635 31.5352C50.2368 31.7305 49.4085 33.4888 50.9799 34.2385C51.4371 34.4566 51.6999 34.2799 51.9042 34.3309C52.2711 32.5879 53.8899 32.4094 54.5379 33.5914C55.0692 34.5157 54.8613 35.8324 54.3993 36.7336C54.2361 37.1413 54.0525 37.0036 54.4917 37.1494C55.3002 37.1032 55.1385 36.3871 55.5315 35.9479C56.109 35.3242 57.1485 35.6479 57.3798 34.5619C57.5598 33.5962 56.868 33.1519 57.033 32.8753C57.1449 32.6881 57.426 32.5981 57.5646 32.4826C57.7433 32.3258 57.8823 32.1288 57.9701 31.9079C58.058 31.6869 58.0923 31.4483 58.0701 31.2115Z" fill="#005BC3"/>
<path d="M49.7301 37.1724C49.8932 37.1757 50.0485 37.243 50.1626 37.3596C50.2767 37.4762 50.3405 37.6329 50.3403 37.7961C50.3402 37.9591 50.2763 38.1157 50.1623 38.2323C50.0482 38.3489 49.8931 38.4163 49.7301 38.4201C48.8874 38.4207 48.9348 37.1724 49.7301 37.1724Z" fill="#FDAF31"/>
<path d="M42.6146 37.1724C42.7777 37.1757 42.933 37.243 43.0471 37.3596C43.1612 37.4762 43.225 37.6329 43.2248 37.7961C43.2247 37.9591 43.1608 38.1157 43.0468 38.2323C42.9327 38.3489 42.7776 38.4163 42.6146 38.4201C42.4514 38.4167 42.2961 38.3494 42.182 38.2327C42.0679 38.1161 42.0041 37.9593 42.0044 37.7961C42.0045 37.633 42.0684 37.4765 42.1824 37.3599C42.2965 37.2434 42.4516 37.176 42.6146 37.1724Z" fill="#FDAF31"/>
<path d="M23.4126 59.1927C22.7205 59.1927 22.5348 58.5327 23.2668 58.167C24.5085 57.54 26.4051 57.0819 26.1894 57.6495C26.1825 57.668 26.172 57.6849 26.1585 57.6992C26.145 57.7136 26.1288 57.7251 26.1108 57.7332C26.0928 57.7413 26.0734 57.7457 26.0536 57.7463C26.0339 57.7469 26.0143 57.7435 25.9959 57.7365C25.0011 57.3585 20.4255 59.6451 25.2804 58.6737C25.3194 58.6657 25.36 58.6736 25.3932 58.6956C25.4264 58.7175 25.4495 58.7518 25.4575 58.7908C25.4655 58.8299 25.4576 58.8704 25.4356 58.9037C25.4136 58.9369 25.3794 58.96 25.3404 58.968C24.704 59.0891 24.0597 59.1642 23.4126 59.1927Z" fill="#414141"/>
<path d="M53.745 34.4351C53.175 34.4651 52.7127 34.9151 52.4706 35.7155C52.4307 35.9991 52.4145 36.2856 52.4223 36.572C52.4223 36.6119 52.4382 36.65 52.4661 36.6782C52.4944 36.7061 52.5326 36.7217 52.5723 36.7217C52.6121 36.7217 52.6502 36.7061 52.6785 36.6782C52.7065 36.6499 52.7222 36.6117 52.7223 36.572C52.7223 35.9084 52.7451 35.7992 52.8384 35.5664C52.8864 35.5796 52.9629 35.5871 53.0163 35.6006C53.3463 35.8247 53.2971 35.9132 53.4273 35.9132C53.4484 35.913 53.4692 35.9085 53.4884 35.8998C53.5076 35.8911 53.5247 35.8785 53.5388 35.8628C53.5528 35.8471 53.5634 35.8286 53.5698 35.8086C53.5762 35.7885 53.5784 35.7673 53.5761 35.7464C53.5729 35.7183 53.5619 35.6917 53.5443 35.6696C53.4279 35.5289 53.2868 35.4107 53.1279 35.3207C53.0768 35.3063 53.0249 35.2951 52.9725 35.2871C53.0439 35.1349 53.1537 35.0039 53.2911 34.9071C53.4285 34.8103 53.5888 34.7509 53.7561 34.7348C53.7951 34.7321 53.8316 34.7145 53.8578 34.6855C53.8841 34.6565 53.8981 34.6184 53.8968 34.5794C53.8951 34.5403 53.8783 34.5035 53.85 34.4766C53.8217 34.4497 53.7841 34.4348 53.745 34.4351Z" fill="#414141"/>
<path d="M45.7969 39.7118C44.7823 39.7118 44.1361 38.6981 45.145 38.5277C45.7312 38.3612 46.585 38.276 46.69 38.879C46.804 39.4046 46.3504 39.7118 45.7969 39.7118ZM44.9389 38.9336C45.1702 39.5663 46.5334 39.5732 46.3957 38.9366C46.3192 38.498 45.0805 38.8001 44.9389 38.9336Z" fill="#414141"/>
<path d="M41.1591 32.7019C40.5318 32.7019 42.0399 30.4693 43.386 31.2919C43.42 31.3126 43.4443 31.346 43.4536 31.3847C43.463 31.4235 43.4566 31.4643 43.4358 31.4983C43.415 31.5322 43.3816 31.5566 43.3429 31.5659C43.3042 31.5752 43.2634 31.5688 43.2294 31.5481C42.5136 31.1101 41.5173 31.8652 41.3028 32.5945C41.2934 32.6254 41.2744 32.6525 41.2486 32.6718C41.2227 32.6911 41.1914 32.7016 41.1591 32.7019Z" fill="#414141"/>
<path d="M50.3305 31.7547C50.1637 31.7547 49.51 30.7416 48.106 30.8991C47.8297 30.9498 47.2183 31.1148 47.149 31.3872C47.0842 31.6434 46.462 31.4451 47.1907 30.9072C47.8654 30.4005 49.4263 30.4077 50.4403 31.5027C50.4552 31.5186 50.4664 31.5376 50.4732 31.5584C50.48 31.5791 50.4822 31.6011 50.4795 31.6228C50.4769 31.6445 50.4696 31.6653 50.458 31.6839C50.4464 31.7024 50.431 31.7182 50.4127 31.7301C50.3882 31.746 50.3597 31.7546 50.3305 31.7547Z" fill="#414141"/>
<path d="M42.8988 35.0903C42.5874 35.0903 42.1746 33.7313 42.7986 33.977C43.1262 34.106 43.2972 35.0903 42.8988 35.0903Z" fill="#414141"/>
<path d="M50.4139 33.3464C49.1743 32.1068 46.639 32.5898 46.1362 34.0088C45.9636 33.8622 45.7593 33.7579 45.5394 33.704C45.3195 33.6502 45.09 33.6483 44.8693 33.6986C44.5108 33.7787 44.5003 34.001 44.4625 33.926C43.9768 32.7599 42.5092 32.4938 41.449 33.1403C40.9966 33.4021 40.6621 33.8277 40.5148 34.3292C40.3675 34.8307 40.4186 35.3697 40.6576 35.8346C41.1538 36.7454 42.4915 37.2746 43.4335 36.7931C43.5511 37.1408 43.6915 37.4804 43.8535 37.8098C43.8644 37.8262 43.8785 37.8402 43.8949 37.8512C43.9113 37.8622 43.9297 37.8698 43.949 37.8736C43.9683 37.8775 43.9882 37.8775 44.0076 37.8736C44.0269 37.8697 44.0453 37.8621 44.0617 37.8512C44.2144 37.7495 44.0752 37.631 43.9672 37.3526C43.6477 36.5234 43.5844 36.5501 44.0401 36.4688C44.3208 36.4489 44.5837 36.3239 44.7763 36.1187C45.0592 35.6526 45.1495 35.0947 45.028 34.5632C45.0252 34.5436 45.0186 34.5249 45.0086 34.5079C44.9986 34.4909 44.9853 34.4761 44.9695 34.4643C44.9537 34.4525 44.9358 34.4439 44.9167 34.439C44.8976 34.4342 44.8777 34.4331 44.8582 34.436C44.548 34.4801 45.0319 35.126 44.5312 35.9462C44.4575 36.0298 44.3601 36.089 44.2519 36.116C44.5626 35.5778 44.6779 34.9488 44.5783 34.3355C44.6563 34.1813 44.7853 34.0589 44.9437 33.9893C45.2413 33.9044 45.8794 34.0142 46.0519 34.3364C45.7945 35.7725 46.6285 37.3664 48.4738 37.3664C50.8738 37.3652 52.1815 35.1128 50.4139 33.3464ZM44.1373 35.6639C44.062 35.8562 43.9596 36.0368 43.8334 36.2003C43.7581 36.2061 43.6853 36.2301 43.6213 36.2702C43.5573 36.3103 43.5039 36.3654 43.4659 36.4307C43.3099 36.4859 42.6538 37.0571 41.5255 36.3224C40.6 35.8568 40.3141 34.2056 41.6065 33.3965C43.1266 32.4692 44.9206 33.7058 44.1373 35.6639ZM49.5043 36.8879C46.0138 38.1341 44.9173 32.9324 48.5143 32.9324C49.0936 32.9093 49.6607 33.1025 50.1054 33.4745C50.5502 33.8464 50.8406 34.3705 50.9203 34.9448C51.001 35.8157 50.4712 36.5423 49.5043 36.8879Z" fill="#414141"/>
<path d="M57.4952 40.7606C55.7516 39.8576 53.8433 39.3168 51.8852 39.1706C52.136 38.7077 52.2218 38.084 52.4852 37.7408C52.5902 37.7108 53.0162 37.9493 53.2775 37.9208C55.1027 37.4648 55.685 33.1397 53.4425 32.7776C52.5506 32.6333 51.9314 33.3602 51.6995 34.2176C50.8373 34.4099 49.9556 33.5252 50.0894 32.3816C50.3159 30.4259 49.1894 32.1218 47.4377 30.8852C46.4063 30.1406 45.8351 28.7786 45.65 27.5204C45.5228 26.6549 45.3752 26.6126 45.2579 26.5865C44.8604 26.4965 44.4572 27.2465 44.2211 27.6206C43.3967 28.9322 42.0311 30.2867 40.6289 30.9419C39.2747 31.6196 39.0161 31.0538 38.9333 31.3862C38.828 31.8062 40.0952 31.5308 40.685 31.2485C40.694 33.0485 41.1098 34.3685 41.249 35.411C41.4233 36.719 41.0729 38.9243 43.4108 40.8476C38.6786 42.932 38.429 50.0528 34.6091 53.6321C33.775 54.3972 32.8085 55.004 31.757 55.4228C29.8214 56.0168 28.1117 56.3054 27.6569 56.6369C26.9305 56.4348 26.1752 56.357 25.4228 56.4068C23.7206 56.4248 20.8898 56.5178 19.8758 57.8768C19.5479 58.3055 19.9058 58.5533 20.4758 58.4633C21.8114 58.2533 21.6428 58.1669 20.5817 58.6154C19.6451 59.0117 19.7468 59.2604 19.7519 59.3174C19.7771 59.7257 20.6663 59.6399 21.0848 59.5982C20.5001 59.834 20.2628 60.0527 20.312 60.2963C20.3837 60.5477 20.7509 60.5312 20.972 60.5228C21.4871 60.5081 22.001 60.4598 22.5098 60.3779C21.9017 60.7079 21.9398 61.0379 22.157 61.1846C22.5959 61.4846 23.4266 61.1048 26.7527 60.6488C27.3476 60.5672 28.8905 60.3554 29.5925 60.1934C31.535 60.8285 34.436 60.3035 36.4553 59.9372C36.4045 60.0126 36.3854 60.1049 36.4022 60.1942C36.4191 60.2836 36.4705 60.3626 36.5453 60.4142C36.9194 60.5942 37.6577 59.9312 39.0278 59.4416C38.3147 59.7926 36.4961 60.9188 37.1483 61.3586C37.2953 61.4576 37.4618 61.4579 38.342 61.1231C39.1991 60.7967 39.0002 60.845 38.7638 61.0502C38.3462 61.4675 38.4455 61.8854 39.0476 61.8854C39.8018 61.8854 40.8776 61.2713 42.6986 61.3523C43.7291 61.3982 44.8475 61.6067 45.887 61.3523C46.1162 61.7318 46.5509 61.7198 47.0414 61.7024C47.1878 61.6976 47.7989 61.7306 48.5165 61.7306C68.5136 61.7288 65.3231 45.0842 57.4952 40.7606ZM41.8589 38.1071C41.5223 36.7592 41.7527 36.7601 41.5382 35.3009C41.3171 33.7982 40.928 32.5613 41.0021 31.0907C44.6738 29.1983 45.0821 25.3856 45.3443 27.4847C45.5807 29.3774 46.6643 31.3976 48.668 31.6847C48.9398 31.7267 49.6562 31.5998 49.8131 31.6898C49.8851 31.8194 49.7441 32.57 49.7651 32.7149C49.7651 33.5882 50.591 34.6622 51.6251 34.5335C51.5633 34.805 51.4652 35.1014 51.677 35.1278C51.8735 35.1524 51.8333 34.9739 51.9578 34.4324C52.1306 33.6824 52.6214 32.9471 53.3978 33.0731C55.3397 33.3884 54.6734 37.2572 53.2295 37.6253C53.0303 37.6493 52.4735 37.2599 52.2734 37.5413C51.7676 38.1638 51.8252 39.743 49.7474 41.0657C46.7348 42.9806 42.9701 41.2949 41.8589 38.1065V38.1071ZM49.9703 43.5884C49.6274 43.6874 49.2684 43.718 48.9137 43.6784C47.7986 43.5611 46.8305 43.3202 46.5866 42.1619C47.6003 42.2283 48.6127 42.0151 49.5136 41.5457C50.4145 41.0763 51.1693 40.3686 51.6956 39.4997C51.9842 40.8248 52.0982 43.0154 49.9703 43.5884ZM23.717 60.8333C22.1441 61.1597 21.7595 60.9938 23.2643 60.3605C23.6669 60.1913 23.8343 60.1205 23.7626 59.9432C23.6462 59.6534 23.1224 60.1811 21.0356 60.2186C20.8964 60.23 20.7566 60.2255 20.6186 60.2054C20.7761 59.9897 21.5759 59.7383 22.0532 59.5868C22.2428 59.5268 22.6718 59.5829 22.7753 59.3729C22.8329 59.2553 22.7819 59.075 22.5392 59.0648C22.5092 59.069 20.2913 59.4911 20.0528 59.2922C20.0258 58.9922 22.2728 58.3469 22.7975 58.2284C22.9619 58.196 23.855 58.1501 23.6444 57.8099C23.5772 57.7016 23.4539 57.7244 23.3114 57.7499C23.1167 57.7859 23.1914 57.7457 22.5566 57.8099C21.5249 57.9143 19.8341 58.4231 20.1161 58.0547C21.2807 56.4926 26.2961 56.5421 27.4931 56.8961C27.3971 58.3943 27.9296 59.4314 29.0765 59.9861C27.2189 60.3308 25.6613 60.4319 23.717 60.8333ZM43.5275 61.1075C40.3757 60.8465 40.301 61.565 39.1175 61.5824C38.8139 61.5869 38.6708 61.5683 38.9708 61.2674C39.86 60.497 40.8155 60.5132 40.8248 60.2111C40.8419 59.5766 37.7921 61.1759 37.337 61.1111C37.3769 60.6938 38.8415 59.87 39.2399 59.6711C40.0634 59.2592 40.1999 59.2166 40.2236 59.081C40.3586 58.2452 36.9893 60.1271 36.704 60.1424C36.7097 59.9861 36.9893 59.7851 37.0769 59.696C37.8058 59.0624 38.6517 58.5777 39.5669 58.2692C39.8219 58.1843 40.1432 58.0934 40.0451 57.8987C39.7925 57.3962 36.9467 58.8755 36.7217 58.9376C36.8648 58.3496 38.5706 57.2363 40.2299 57.0287C41.2199 56.9006 42.2222 56.9012 43.2119 57.0305C43.5701 57.059 44.2259 57.1205 44.4626 57.3209C44.7787 58.6081 45.2088 59.8646 45.7478 61.0754C45.0134 61.1954 44.2652 61.2062 43.5275 61.1075ZM40.7336 56.6747C41.8802 55.728 42.8333 54.5688 43.5404 53.2607C43.9919 54.5084 44.6193 55.6851 45.4034 56.7554C44.6576 56.8514 44.5214 56.9141 44.4734 57.0032C43.8761 56.6237 41.4857 56.6117 40.7336 56.6747ZM62.3936 55.2947C60.0752 60.4985 52.8578 61.5284 47.1896 61.3976C46.9712 61.3925 46.3727 61.451 46.2098 61.2797C45.9455 61.0016 44.8298 57.9305 44.7521 57.227C44.7521 56.987 48.5003 56.8442 49.5698 56.6822C53.795 56.0078 57.0536 55.1051 57.3896 50.237C57.3922 50.1973 57.3789 50.1581 57.3527 50.128C57.3266 50.098 57.2896 50.0795 57.2498 50.0765C57.2301 50.0751 57.2103 50.0777 57.1916 50.084C57.1729 50.0902 57.1556 50.1002 57.1407 50.1131C57.1258 50.1261 57.1136 50.1419 57.1049 50.1596C57.0961 50.1774 57.0909 50.1966 57.0896 50.2163C56.7686 54.8735 53.7509 55.7111 49.5236 56.3858C48.7994 56.4953 46.9823 56.5853 45.7562 56.7158C44.0132 54.6239 42.5321 49.5401 42.4205 49.4285C42.3935 49.4014 42.3584 49.3839 42.3205 49.3784C42.2827 49.373 42.244 49.3801 42.2105 49.3985C42.0887 49.4816 42.0701 49.4522 43.3913 52.8845C43.2065 53.2746 42.9894 53.6485 42.7421 54.0023C42.0425 55.0431 41.1803 55.9649 40.1885 56.7323C37.7453 57.0725 35.9192 58.8323 36.515 59.2088C36.743 59.3537 37.1177 59.078 37.8509 58.7453C37.4642 58.9874 37.1006 59.2647 36.7649 59.5736C32.6117 60.3419 27.5354 61.1396 27.7907 56.9171C27.932 56.7458 28.7834 56.5286 29.6843 56.2985C31.6643 55.7924 33.0644 55.4981 34.8143 53.8478C38.8229 50.0924 38.8778 42.9578 43.682 41.0564C44.4422 41.6169 45.3279 41.9831 46.262 42.1229C46.5947 43.4729 47.4206 43.8236 48.8777 43.9757C50.8418 44.1809 52.685 42.7277 51.9977 39.4799C61.5524 40.3007 64.9673 49.5164 62.393 55.2941L62.3936 55.2947Z" fill="#414141"/>
<path d="M47.6005 33.7965C47.3287 33.8931 47.638 35.0178 47.9266 35.0178C48.4186 35.0178 48.2449 33.5676 47.6005 33.7965Z" fill="#414141"/>
<path d="M40.0269 60.021H34.1355C34.1355 60.021 34.6668 61.3146 33.558 62.031H40.0269C40.1089 62.0313 40.1901 62.0154 40.266 61.9842C40.3418 61.953 40.4107 61.9071 40.4688 61.8492C40.5266 61.7912 40.5725 61.7222 40.6037 61.6464C40.6349 61.5706 40.6508 61.4893 40.6506 61.4073V60.6216C40.6465 60.4596 40.5787 60.3058 40.462 60.1933C40.3453 60.0809 40.1889 60.019 40.0269 60.021Z" fill="#005BC3"/>
<path d="M33.5348 59.9296C31.9448 56.1976 28.8092 49.0429 27.6431 46.3906C27.5129 46.09 27.2962 45.835 27.0205 45.6581C26.7448 45.4812 26.4226 45.3904 26.0951 45.3973C7.9235 45.6532 8.4119 45.8773 7.9358 46.0903C7.64086 46.2245 7.39313 46.4444 7.22481 46.7212C7.05649 46.9981 6.97537 47.3192 6.992 47.6428C7.0028 47.8576 7.0568 48.0682 7.1501 48.262C8.8217 51.7822 11.9321 58.5328 13.0415 60.9922C13.1682 61.2728 13.3726 61.5111 13.6306 61.679C13.8886 61.8469 14.1893 61.9374 14.4971 61.9396C17.6627 61.9627 27.3671 62.1589 32.0099 62.1937C32.2827 62.2028 32.5533 62.1425 32.7964 62.0183C33.0394 61.8942 33.247 61.7103 33.3995 61.4839C33.552 61.2576 33.6444 60.9962 33.668 60.7243C33.6917 60.4524 33.6458 60.1789 33.5348 59.9296Z" fill="#005BC3"/>
<path d="M18.8637 53.5291C20.1414 53.5591 19.9815 55.4305 18.8172 55.3774C17.5752 55.321 17.6688 53.5021 18.8637 53.5291Z" fill="white"/>
</svg>
