<svg width="50" height="50" viewBox="0 0 50 50" fill="none" xmlns="http://www.w3.org/2000/svg">
<path d="M9.97854 21.9013C9.97514 20.0563 10.2829 18.2238 10.8888 16.4811C11.0328 16.1311 11.3553 14.8458 11.8078 14.8458C11.8343 14.8458 11.8598 14.8564 11.8785 14.8751C11.8973 14.8939 11.9078 14.9193 11.9078 14.9458C11.9078 14.9723 11.8973 14.9978 11.8785 15.0165C11.8598 15.0353 11.8343 15.0458 11.8078 15.0458C11.5458 15.0458 11.146 16.3848 11.0763 16.5518C10.4791 18.272 10.176 20.0805 10.1795 21.9013C10.1795 21.928 10.169 21.9535 10.1501 21.9724C10.1313 21.9912 10.1057 22.0018 10.079 22.0018C10.0524 22.0018 10.0268 21.9912 10.008 21.9724C9.98913 21.9535 9.97854 21.928 9.97854 21.9013Z" fill="#87E4FF"/>
<path d="M29.7533 41.6784C29.7283 41.5754 29.7568 41.5284 30.6905 40.9581C30.8575 40.8561 30.999 40.7696 31.0593 40.7274C32.1045 39.9636 33.2113 38.9889 33.593 37.7454C32.3058 38.0974 30.993 37.9984 31.0365 36.6656C31.0803 35.5319 32.5675 34.9924 33.393 35.6874C33.9065 36.1124 33.9805 36.8321 33.8708 37.4494C35.7573 36.8071 37.8345 34.4809 38.4153 31.0836C38.4199 31.0574 38.4346 31.0341 38.4563 31.0186C38.467 31.011 38.4792 31.0055 38.4921 31.0025C38.505 30.9996 38.5183 30.9992 38.5314 31.0014C38.5444 31.0037 38.5569 31.0085 38.5681 31.0155C38.5792 31.0226 38.5889 31.0318 38.5965 31.0426C38.6042 31.0534 38.6097 31.0655 38.6126 31.0784C38.6155 31.0913 38.6158 31.1046 38.6135 31.1176C38.157 33.7874 36.7268 36.0826 34.7873 37.2574C34.4826 37.4345 34.1583 37.5757 33.821 37.6779C33.4738 39.0189 32.2848 40.0809 31.1763 40.8909C31.009 41.0081 30.0678 41.5576 29.946 41.6861C29.9394 41.7071 29.9261 41.7252 29.908 41.7376C29.8947 41.7472 29.8792 41.7533 29.8629 41.7554C29.8466 41.7575 29.83 41.7555 29.8147 41.7497C29.7994 41.7438 29.7857 41.7342 29.775 41.7218C29.7643 41.7093 29.7568 41.6944 29.7533 41.6784ZM32.5078 35.5784C31.8785 35.5784 31.2628 36.0174 31.2375 36.6724C31.1983 37.8924 32.5075 37.8591 33.652 37.5189C33.9215 36.2699 33.299 35.5786 32.5078 35.5786V35.5784Z" fill="#87E4FF"/>
<path d="M42.4716 7.27319C42.6389 6.80796 42.9091 6.38655 43.2621 6.04044C43.906 5.24164 44.6798 4.55706 45.5511 4.01544C45.5623 4.00841 45.5747 4.00365 45.5877 4.00143C45.6007 3.99921 45.614 3.99958 45.6269 4.0025C45.6398 4.00543 45.6519 4.01086 45.6627 4.01848C45.6734 4.0261 45.6826 4.03577 45.6896 4.04694C45.6967 4.0581 45.7014 4.07053 45.7036 4.08354C45.7058 4.09654 45.7055 4.10985 45.7026 4.12271C45.6996 4.13557 45.6942 4.14773 45.6866 4.15849C45.679 4.16925 45.6693 4.17841 45.6581 4.18544C44.8031 4.71729 44.0436 5.38926 43.4116 6.17319C43.0816 6.49599 42.8272 6.88798 42.6669 7.32094C42.6605 7.34683 42.6442 7.36914 42.6214 7.38297C42.5986 7.39681 42.5713 7.40102 42.5454 7.39469C42.5195 7.38835 42.4972 7.372 42.4833 7.34921C42.4695 7.32642 42.4653 7.29908 42.4716 7.27319Z" fill="#87E4FF"/>
<path d="M37.1644 36.4912C38.8929 33.982 39.3264 32.0252 39.6014 32.001C39.6264 31.9983 39.6516 32.0047 39.6722 32.0191C39.6929 32.0335 39.7077 32.0548 39.7139 32.0792C39.7198 32.1036 39.7168 32.1294 39.7053 32.1517C39.6938 32.1741 39.6747 32.1916 39.6514 32.201C39.4704 32.4892 38.8014 34.4677 37.3291 36.6052C37.3217 36.6161 37.3122 36.6253 37.3011 36.6325C37.2901 36.6397 37.2777 36.6446 37.2648 36.647C37.2519 36.6493 37.2386 36.6491 37.2257 36.6463C37.2129 36.6435 37.2007 36.6382 37.1899 36.6307C37.179 36.6233 37.1697 36.6137 37.1626 36.6027C37.1554 36.5916 37.1505 36.5792 37.1481 36.5663C37.1457 36.5533 37.146 36.54 37.1488 36.5271C37.1515 36.5142 37.1568 36.502 37.1644 36.4912Z" fill="#87E4FF"/>
<path d="M11.2258 23.3683C11.1993 23.3683 11.1739 23.3578 11.1551 23.3391C11.1364 23.3203 11.1258 23.2949 11.1258 23.2683C11.1045 21.8428 11.2058 20.418 11.4286 19.0098C11.5175 18.3976 11.653 17.793 11.8338 17.2013C11.8451 17.1671 11.8966 17.0693 11.9088 17.0436C11.9088 17.0233 11.9141 17.0033 11.9243 16.9857C11.9344 16.9682 11.9491 16.9536 11.9666 16.9434C11.9842 16.9333 12.0042 16.9279 12.0245 16.928C12.0448 16.928 12.0648 16.9334 12.0823 16.9436C12.1916 17.0231 12.0573 17.1628 12.0223 17.2686C11.845 17.8479 11.7121 18.4399 11.6248 19.0393C11.4039 20.437 11.3036 21.851 11.3248 23.2658C11.3252 23.2791 11.3228 23.2923 11.318 23.3047C11.3132 23.317 11.306 23.3283 11.2968 23.3378C11.2876 23.3474 11.2766 23.355 11.2644 23.3602C11.2522 23.3655 11.2391 23.3682 11.2258 23.3683Z" fill="#87E4FF"/>
<path d="M41.4776 7.14414C41.3776 7.00339 40.6736 7.24414 40.5329 7.26464C39.5679 7.46464 34.8829 8.20589 34.4829 8.24964C33.7689 8.32739 30.2704 19.3439 30.9249 20.1699C31.1821 20.4949 34.5036 19.5901 35.5281 19.3656C36.0711 19.2469 36.7166 19.1681 37.1764 18.8229C37.7764 18.3729 37.4339 17.2261 37.4176 16.5916C37.3286 13.1221 38.2386 10.7974 40.1926 8.61139C41.0941 7.60064 41.5889 7.28314 41.4776 7.14414Z" fill="#FDAF31"/>
<path d="M30.8456 20.233C30.3266 19.5615 32.0381 14.0695 32.2349 13.4455C32.5084 12.573 33.9016 8.21647 34.4699 8.14972C34.8814 8.10847 39.5919 7.35772 40.5116 7.16622C40.7254 7.13422 41.4029 6.86622 41.5586 7.08547C41.6431 7.22572 41.5169 7.37247 41.2664 7.61697C39.9766 8.87547 38.9384 10.0715 38.1934 11.9647C37.6287 13.556 37.4085 15.249 37.5474 16.9317C37.6296 17.6162 37.7706 18.4702 37.2384 18.901C36.7549 19.2585 36.0961 19.342 35.5486 19.4637C34.1596 19.763 31.1599 20.6212 30.8456 20.233ZM40.7439 7.31647C40.0939 7.48897 34.9059 8.30797 34.4916 8.34947C33.8144 8.56347 30.4049 19.3337 31.0031 20.1082C31.2664 20.3447 34.7281 19.4355 35.5056 19.2672C36.0466 19.147 36.6721 19.0697 37.1154 18.7422C37.6671 18.2952 37.3154 17.184 37.3154 16.5717C37.2415 14.9829 37.4754 13.3948 38.0041 11.8947C38.6996 10.1275 39.7824 8.74797 41.1596 7.44047C41.4441 7.17122 41.5481 7.10197 40.7439 7.31647Z" fill="#414141"/>
<path d="M39.4556 8.81938C39.4196 8.78488 39.3936 8.78613 39.2476 8.79288C39.1061 8.80245 38.9641 8.80186 38.8226 8.79113C38.9956 8.62913 39.3226 8.44363 39.3261 8.27163C39.3321 8.00213 38.9484 8.05613 36.1261 8.59513C35.7096 8.67463 35.3161 8.75113 35.2659 8.75213C35.2395 8.75252 35.2143 8.76318 35.1956 8.78185C35.1769 8.80052 35.1663 8.82573 35.1659 8.85213C35.1674 9.46713 35.1049 9.68113 34.9606 9.71963C34.8206 9.75488 34.4539 9.62288 34.2961 9.78138C33.9686 10.0651 33.8461 10.7021 33.6881 11.0604C32.5381 13.4819 32.1291 15.8789 31.7761 17.3981C31.6927 17.6119 31.6296 17.833 31.5879 18.0586C31.5879 18.1466 31.6559 18.2139 31.8236 18.1669C31.9914 18.1199 32.2214 18.0334 32.3369 18.1656C32.3944 18.2301 32.4389 18.2824 32.3519 18.7621C32.3519 18.8304 32.2769 19.0511 32.4349 19.1461C32.7889 19.3939 33.2641 18.9496 35.2429 18.6401C35.4749 18.6016 35.9601 18.6634 36.1759 18.5104C36.3174 18.4396 36.2586 18.2554 36.2236 18.1456C36.1181 17.8134 36.2669 17.4556 36.6306 17.4556C36.6971 17.4599 36.9341 17.5366 37.0011 17.4081C37.0279 17.3639 37.0395 17.3121 37.0344 17.2606C37.0175 17.124 36.9905 16.9888 36.9536 16.8561C36.7592 15.4377 36.8546 13.9946 37.2339 12.6141C37.4554 11.6846 37.8451 10.8034 38.3839 10.0141C38.5793 9.79282 38.791 9.58641 39.0171 9.39663C39.4389 9.01763 39.4874 8.96588 39.4874 8.89163C39.4868 8.86429 39.4754 8.83831 39.4556 8.81938ZM38.2179 9.90188C37.6652 10.7108 37.2651 11.6141 37.0376 12.5671C36.3021 15.5099 36.8261 17.1046 36.8339 17.2821C36.7886 17.2804 36.6516 17.2551 36.6326 17.2551C36.1746 17.2551 35.9076 17.6676 36.0126 18.1436C36.0349 18.2089 36.0524 18.2759 36.0649 18.3436C35.8924 18.4536 35.4436 18.4031 35.2101 18.4424C33.3601 18.7314 32.7851 19.1459 32.5434 18.9781C32.5256 18.9674 32.5379 18.8849 32.5434 18.8496C32.5959 18.4976 32.6706 18.2396 32.4871 18.0331C32.4457 17.9873 32.3946 17.9512 32.3375 17.9276C32.2805 17.9039 32.2188 17.8933 32.1571 17.8964C32.0393 17.9025 31.9229 17.9252 31.8114 17.9639C31.9899 17.3878 32.1359 16.8021 32.2489 16.2096C33.0226 12.5921 33.6989 11.6881 34.0124 10.7609C34.0856 10.4549 34.2294 10.1703 34.4324 9.92988C34.5014 9.86088 34.8419 9.95738 35.0104 9.91563C35.3604 9.82263 35.3674 9.30338 35.3666 8.94188C35.8079 8.87038 38.6696 8.29188 39.0939 8.30263C38.9104 8.49813 38.5251 8.67763 38.5876 8.86538C38.6291 8.99038 38.7996 9.01113 39.1581 8.99888C38.8264 9.2802 38.5124 9.58178 38.2179 9.90188Z" fill="white"/>
<path d="M34.7175 15.6872C34.5561 15.665 34.4052 15.5945 34.2847 15.4848C34.1642 15.3752 34.0798 15.2316 34.0425 15.0729C33.9724 14.7614 33.9656 14.439 34.0225 14.1248C34.0794 13.8106 34.1989 13.5111 34.3738 13.2439C34.85 12.4507 35.4723 12.2742 35.7685 12.4439C36.025 12.5899 36.0553 12.9524 36.0685 13.1072C36.1348 13.7679 35.8285 14.4402 35.5545 14.9519C35.379 15.3014 35.109 15.7074 34.7175 15.6872ZM34.5475 13.3469C34.3868 13.5903 34.2765 13.8635 34.223 14.1502C34.1696 14.4369 34.1741 14.7315 34.2363 15.0164C34.2498 15.0612 34.381 15.4664 34.7285 15.4864C34.9448 15.4957 35.1625 15.2864 35.3765 14.8584C35.6385 14.3694 35.9298 13.7334 35.869 13.1242C35.8585 12.9992 35.8345 12.7109 35.669 12.6174C35.4675 12.5014 34.9588 12.6619 34.5475 13.3464V13.3469Z" fill="white"/>
<path d="M34.748 37.6006L34.1539 21L30.2749 21.2992L32.5813 35.4714C32.5813 35.749 32.6099 35.6467 21.748 37.2349L21.8179 38L34.748 37.6006Z" fill="#FDAF31"/>
<path d="M31.748 35.1596L29.292 19L16.748 21.6095L19.9338 37L31.748 35.1596Z" fill="white"/>
<path d="M40.7276 14.7175C40.7276 14.7175 40.7276 12.005 40.3726 10.6C40.0176 9.19499 39.1576 7.71999 38.8726 7.79249C38.5876 7.86499 39.1101 9.79249 39.1101 9.79249C39.1101 9.79249 38.1101 9.04249 38.0626 10.0425C38.0626 10.0425 37.3126 9.73249 37.3251 10.6375C37.3251 10.6375 36.6826 10.2325 36.6826 11.1375C36.6826 11.1375 35.8751 10.9475 36.4326 12.2325C36.9901 13.5175 37.4076 12.875 37.4076 12.875L38.0726 14.8975C38.0876 14.9075 39.5376 15.1925 40.7276 14.7175Z" fill="white"/>
<path d="M13.9983 15.7202L13.9508 14.6002C13.9508 14.6002 12.4283 15.9802 12.2383 17.5527C12.2383 17.5527 12.9058 19.1452 13.8083 19.7402C13.8083 19.7402 15.7833 19.0977 16.4033 18.4077C17.0233 17.7177 17.8058 16.8627 16.4033 17.2177C16.4033 17.2177 17.1158 15.9102 15.8308 16.5752C15.8308 16.5752 16.8783 15.0052 15.2833 15.8252C15.2833 15.8252 17.1158 14.1377 16.7583 13.8502C16.2733 13.5002 13.9983 15.7202 13.9983 15.7202Z" fill="white"/>
<path d="M23.5543 38.3477C23.5543 38.3477 22.1018 37.8477 24.5043 36.8252C26.7193 35.8977 27.1693 36.9202 26.6468 37.1102C26.6468 37.1102 27.9793 37.3252 27.0043 38.0402C27.0043 38.0402 28.3368 38.0627 27.3593 39.0852C27.3593 39.0852 28.7893 39.2302 26.8143 40.3227C24.0293 41.8702 24.9818 40.0152 24.9818 40.0152C24.9818 40.0152 23.6243 40.4177 24.2918 39.1577C24.3393 39.1327 23.0293 39.5852 23.5543 38.3477Z" fill="white"/>
<path d="M34.875 28.0903C34.875 28.0903 42.7275 25.5428 41.3225 14.9778C41.3061 14.8988 41.2603 14.8291 41.1944 14.7826C41.1285 14.7362 41.0474 14.7166 40.9675 14.7278C39.9303 14.9076 38.8763 14.9713 37.825 14.9178C37.7522 14.9164 37.6812 14.9407 37.6245 14.9864C37.5679 15.0322 37.5291 15.0964 37.515 15.1678C37.2775 16.1678 36.375 19.8778 34.945 20.8303L34.875 28.0903Z" fill="#87E4FF"/>
<path d="M9.8 30.6626C9.8 30.6626 2.3 27.4976 6.05 22.1926C8.3725 18.8601 10.9975 17.6001 11.8225 17.3376C11.8931 17.3172 11.9684 17.32 12.0373 17.3456C12.1062 17.3713 12.165 17.4184 12.205 17.4801C12.645 18.3218 13.1543 19.1254 13.7275 19.8826C13.7734 19.9357 13.7987 20.0036 13.7987 20.0739C13.7987 20.1441 13.7734 20.212 13.7275 20.2651C13.06 21.0976 10.1825 24.1426 9.6575 24.7151C9.6575 24.7151 9.705 30.2826 9.8 30.6626Z" fill="#016DAB"/>
<path d="M21.6633 35.131C21.182 34.7259 20.6392 34.4002 20.0553 34.166C18.045 33.0202 13.9815 29.4475 13.4218 26.9295C13.2207 25.9847 13.1799 25.0128 13.301 24.0545C13.3228 23.8737 13.5623 23.17 13.3213 23.0295C13.0803 22.889 12.5373 23.291 12.3563 23.3915C11.412 23.915 6.84855 27.3915 6.74805 27.5525C6.95955 29.123 9.59805 31.8115 10.4313 32.5132C11.6543 33.5435 12.844 33.8995 14.5875 34.97C15.6953 35.65 16.8208 36.3875 18.1255 36.6382C19.1295 36.8315 20.2815 36.505 21.221 36.2965C21.421 36.2522 22.1658 36.1965 22.246 35.9547C22.3668 35.6737 21.8468 35.2887 21.6633 35.131Z" fill="#87E4FF"/>
<path d="M17.6361 33.5369C16.4137 32.4002 15.2935 31.1583 14.2883 29.8256C13.7421 29.1394 13.0503 28.4864 12.8028 27.6196C12.6171 27.0009 12.5581 25.9031 12.5028 25.7579C12.4028 25.5261 12.1441 25.1829 11.9156 25.2911C11.4962 25.5077 11.0894 25.7479 10.6973 26.0106C9.25682 26.8399 8.42232 27.5879 8.71432 28.7536C8.94132 29.6409 10.5143 31.7949 11.1628 32.2334C11.1738 32.2408 11.1831 32.2503 11.1904 32.2613C11.1977 32.2723 11.2027 32.2847 11.2052 32.2976C11.2077 32.3106 11.2076 32.3239 11.2049 32.3369C11.2023 32.3498 11.1971 32.3621 11.1897 32.373C11.1823 32.3839 11.1728 32.3933 11.1618 32.4006C11.1508 32.4078 11.1384 32.4129 11.1254 32.4154C11.1125 32.4179 11.0992 32.4178 11.0862 32.4151C11.0733 32.4125 11.061 32.4073 11.0501 32.3999C10.3623 31.9351 8.75982 29.7429 8.51932 28.8029C8.16232 27.3749 9.40457 26.5229 10.5968 25.8364C10.9939 25.5703 11.406 25.3273 11.8311 25.1086C12.1851 24.9434 12.5351 25.3236 12.6891 25.6836C12.7318 25.8614 12.7596 26.0424 12.7721 26.2249C12.8121 26.6761 12.8866 27.1239 12.9946 27.5639C13.2291 28.3841 13.9081 29.0266 14.4446 29.7011C15.442 31.0257 16.5546 32.2595 17.7696 33.3879C17.7893 33.4056 17.8012 33.4304 17.8027 33.4569C17.8042 33.4834 17.795 33.5094 17.7773 33.5291C17.7596 33.5489 17.7348 33.5608 17.7083 33.5623C17.6818 33.5637 17.6558 33.5546 17.6361 33.5369Z" fill="white"/>
<path d="M14.9495 33.1412C14.8095 33.1412 14.8718 32.9847 14.7135 32.5094C14.2095 30.7439 12.5693 29.8557 11.9608 30.2234C11.8547 30.299 11.7753 30.4062 11.7341 30.5298C11.6929 30.6534 11.692 30.7868 11.7315 30.9109C11.8784 31.6122 12.2546 32.2447 12.8008 32.7084C12.8193 32.7262 12.8303 32.7503 12.8316 32.776C12.8329 32.8016 12.8244 32.8267 12.8077 32.8463C12.7911 32.8658 12.7677 32.8783 12.7422 32.8812C12.7167 32.884 12.6911 32.877 12.6705 32.8617C12.0901 32.3687 11.6903 31.6964 11.5345 30.9509C11.4864 30.7861 11.4917 30.6103 11.5496 30.4486C11.6075 30.2869 11.715 30.1477 11.8568 30.0509C12.5795 29.6139 14.3633 30.5509 14.9068 32.4497C14.9663 32.6367 15.014 32.8272 15.0495 33.0202C15.0527 33.0349 15.0525 33.0502 15.0489 33.0649C15.0453 33.0796 15.0385 33.0932 15.0289 33.1049C15.0192 33.1165 15.0071 33.1258 14.9934 33.1321C14.9796 33.1384 14.9646 33.1415 14.9495 33.1412Z" fill="white"/>
<path d="M18.7243 36.5487C19.4626 36.1795 19.8281 35.868 19.8106 35.6237C19.7998 35.471 19.6188 35.2327 18.8178 34.9657C17.5128 34.5702 16.0693 34.5252 14.7101 34.2657C14.4166 34.2052 12.3151 33.7425 12.3151 33.7425C12.2891 33.7367 12.2664 33.7208 12.2521 33.6983C12.2377 33.6759 12.2329 33.6486 12.2387 33.6226C12.2445 33.5966 12.2603 33.5739 12.2828 33.5596C12.3053 33.5452 12.3326 33.5404 12.3586 33.5462C13.9423 33.889 14.1366 33.9417 14.7493 34.0687C16.1128 34.3292 17.5431 34.3687 18.8788 34.7745C20.3691 35.271 20.4393 35.9167 18.8143 36.7295C18.7965 36.7382 18.7764 36.7415 18.7566 36.7389C18.7369 36.7363 18.7183 36.728 18.7033 36.7149C18.6883 36.7018 18.6775 36.6846 18.6722 36.6654C18.6669 36.6462 18.6674 36.6259 18.6736 36.607C18.6822 36.5816 18.7004 36.5607 18.7243 36.5487Z" fill="white"/>
<path d="M20.0339 34.2866C19.4845 34.0754 18.9197 33.9067 18.3444 33.7819C17.4356 33.5341 15.2611 33.3119 13.8194 33.0861C12.2975 32.8966 10.8272 32.412 9.4909 31.6594C9.47952 31.6527 9.46957 31.6438 9.46162 31.6332C9.45367 31.6227 9.44788 31.6107 9.44459 31.5979C9.44129 31.5851 9.44055 31.5718 9.4424 31.5587C9.44426 31.5456 9.44867 31.533 9.4554 31.5216C9.62615 31.2349 10.1684 32.3126 13.8504 32.8876C16.0824 33.2359 18.2606 33.3541 20.0729 34.0931C20.095 34.1016 20.1134 34.1176 20.1249 34.1383C20.1363 34.1591 20.1402 34.1831 20.1356 34.2064C20.1309 34.2296 20.1181 34.2505 20.0995 34.2652C20.0809 34.2799 20.0576 34.2875 20.0339 34.2866Z" fill="#414141"/>
<path d="M7.63436 26.9276C7.61608 26.9268 7.59816 26.9222 7.58179 26.914C7.56542 26.9058 7.55096 26.8943 7.53936 26.8801C7.5165 26.8537 7.50391 26.82 7.50391 26.7851C7.50391 26.7502 7.5165 26.7165 7.53936 26.6901L9.70436 24.6901C9.71632 24.6755 9.73119 24.6636 9.74802 24.6552C9.76485 24.6467 9.78327 24.6418 9.80209 24.6409C9.82091 24.64 9.83972 24.643 9.8573 24.6498C9.87488 24.6566 9.89085 24.667 9.90418 24.6803C9.9175 24.6936 9.92789 24.7096 9.93467 24.7272C9.94145 24.7447 9.94448 24.7635 9.94355 24.7824C9.94263 24.8012 9.93777 24.8196 9.9293 24.8364C9.92083 24.8533 9.90893 24.8681 9.89436 24.8801C9.87186 24.8801 7.65936 26.9276 7.63436 26.9276Z" fill="#414141"/>
<path d="M40.5367 10.6476C40.35 9.96696 40.0989 9.30563 39.7867 8.67264C39.2142 7.53014 39.0017 7.57764 38.9042 7.60264C38.8067 7.62764 38.5492 7.67264 38.9292 9.50514C38.7142 9.38764 38.4292 9.29014 38.2392 9.41014C38.1591 9.45431 38.0931 9.52024 38.0488 9.6003C38.0046 9.68037 37.9839 9.77131 37.9892 9.86264C37.9001 9.83822 37.8067 9.83407 37.7159 9.85051C37.625 9.86695 37.539 9.90356 37.4642 9.95764C37.3937 10.0093 37.3374 10.0778 37.3003 10.1568C37.2632 10.2359 37.2464 10.323 37.2517 10.4101C37.1805 10.3889 37.1057 10.3821 37.0318 10.3903C36.958 10.3984 36.8865 10.4213 36.8217 10.4576C36.7399 10.5222 36.6754 10.6059 36.634 10.7015C36.5925 10.797 36.5754 10.9014 36.5842 11.0051C36.5162 11.0052 36.449 11.0199 36.3873 11.0484C36.3256 11.0769 36.2708 11.1184 36.2267 11.1701C36.0367 11.4201 36.1092 11.8601 36.4767 12.5501C36.8442 13.2401 37.1192 13.2651 37.2867 13.1926C37.3342 13.1701 37.3567 13.1451 37.4042 13.1226C37.635 13.7222 37.8328 14.3339 37.9967 14.9551C37.9984 14.9798 38.009 15.0029 38.0264 15.0204C38.0439 15.0378 38.067 15.0484 38.0917 15.0501C38.358 15.0987 38.6284 15.1221 38.8992 15.1201C39.5458 15.1114 40.1876 15.0078 40.8042 14.8126C40.8286 14.802 40.8501 14.7855 40.8667 14.7645C40.8832 14.7436 40.8944 14.7189 40.8992 14.6926C40.8942 14.5976 40.9417 12.3126 40.5367 10.6476ZM40.6092 14.5976C39.8325 14.8425 39.0119 14.9158 38.2042 14.8126C37.9542 13.7876 37.3017 12.1226 37.2767 12.0626C37.2707 12.044 37.2607 12.027 37.2473 12.0128C37.2338 11.9986 37.2174 11.9876 37.1991 11.9806C37.1809 11.9736 37.1613 11.9709 37.1418 11.9725C37.1223 11.9742 37.1035 11.9802 37.0867 11.9901C37.0685 11.9967 37.0521 12.0072 37.0384 12.0208C37.0247 12.0344 37.0142 12.0508 37.0075 12.0689C37.0009 12.087 36.9982 12.1063 36.9998 12.1255C37.0014 12.1447 37.0071 12.1634 37.0167 12.1801C37.0167 12.1801 37.1117 12.4176 37.2292 12.7526C37.2381 12.7911 37.2363 12.8312 37.224 12.8687C37.2116 12.9062 37.1892 12.9396 37.1592 12.9651C37.1117 12.9901 36.9442 12.9176 36.7067 12.4426C36.2767 11.6326 36.3742 11.3951 36.4217 11.3726C36.8492 11.0851 37.6717 11.9426 37.6717 11.9426C37.6717 11.9426 37.8142 12.0151 37.8617 11.9426C37.8758 11.9312 37.8871 11.9167 37.8949 11.9002C37.9028 11.8838 37.9068 11.8658 37.9068 11.8476C37.9068 11.8294 37.9028 11.8115 37.8949 11.795C37.8871 11.7786 37.8758 11.7641 37.8617 11.7526C37.5762 11.455 37.2264 11.2267 36.8392 11.0851C36.7917 10.5151 37.3142 10.8001 37.3142 10.8001C37.7064 10.9881 38.0489 11.2655 38.3142 11.6101C38.3392 11.6326 38.4567 11.6801 38.5042 11.6326C38.5517 11.5851 38.5767 11.4901 38.5292 11.4426C38.2506 11.0889 37.9015 10.7969 37.5042 10.5851C37.3867 10.0626 37.8617 10.1826 37.9567 10.2051C38.3947 10.4085 38.7602 10.7408 39.0042 11.1576C39.0238 11.1883 39.0544 11.2104 39.0897 11.2192C39.125 11.228 39.1624 11.223 39.1942 11.2051C39.2139 11.1981 39.2315 11.1864 39.2456 11.171C39.2597 11.1555 39.2698 11.1369 39.275 11.1166C39.2802 11.0964 39.2803 11.0752 39.2754 11.0548C39.2704 11.0345 39.2606 11.0157 39.2467 11.0001C39.0033 10.5941 38.6587 10.2581 38.2467 10.0251C38.2467 9.81014 38.3442 9.38264 38.9967 9.90514C39.2534 10.1289 39.4706 10.3943 39.6392 10.6901C39.6598 10.72 39.689 10.7429 39.7229 10.7558C39.7568 10.7687 39.7939 10.7711 39.8292 10.7626C39.8615 10.7438 39.8862 10.7142 39.899 10.6791C39.9118 10.6439 39.9118 10.6053 39.8992 10.5701C39.7426 10.2732 39.5334 10.0072 39.2817 9.78514C39.1267 9.20188 39.0369 8.60321 39.0142 8.00014C39.2992 8.31014 40.0142 9.69014 40.2767 10.7501C40.6092 12.1476 40.6092 14.1226 40.6092 14.5976Z" fill="#414141"/>
<path d="M12.108 17.4103C12.3825 16.2609 12.9771 15.2129 13.823 14.3878C13.8404 14.3622 13.8659 14.3433 13.8954 14.334C13.9249 14.3247 13.9566 14.3257 13.9855 14.3366C14.0144 14.3476 14.0387 14.368 14.0546 14.3945C14.0705 14.421 14.077 14.4521 14.073 14.4828L14.0955 15.4103C14.883 14.6603 16.1905 13.6603 16.6655 13.6603C16.7141 13.6531 16.7638 13.6604 16.8082 13.6813C16.8527 13.7022 16.89 13.7358 16.9155 13.7778C17.0105 13.9453 17.0105 14.2303 16.178 15.1103C16.033 15.2528 15.9155 15.3978 15.7955 15.5153C16.033 15.4678 16.178 15.4928 16.273 15.6103C16.3205 15.6828 16.4155 15.8603 16.153 16.3003C16.403 16.2303 16.5805 16.2528 16.6755 16.3728C16.8205 16.5378 16.723 16.8003 16.628 17.0153C16.9155 16.9678 17.1755 16.9428 17.2955 17.1578C17.5105 17.5853 16.6055 18.4078 16.343 18.6328C14.9405 19.7278 13.798 19.9178 13.7505 19.8828C12.703 19.0278 12.0855 17.5278 12.108 17.4103ZM12.3955 17.4328C12.6848 18.2436 13.1462 18.9821 13.748 19.5978C14.6305 19.3912 15.4534 18.9839 16.153 18.4078C16.698 17.9803 17.103 17.4078 17.033 17.2903C17.033 17.2903 16.938 17.1953 16.3655 17.3853C16.3364 17.3948 16.3051 17.3954 16.2757 17.3869C16.2463 17.3785 16.2201 17.3613 16.2005 17.3378C16.1894 17.3268 16.1806 17.3138 16.1746 17.2994C16.1685 17.285 16.1654 17.2696 16.1654 17.254C16.1654 17.2384 16.1685 17.223 16.1746 17.2086C16.1806 17.1942 16.1894 17.1812 16.2005 17.1703C16.3905 16.9203 16.508 16.6003 16.4505 16.5528C16.4505 16.5528 16.3555 16.4803 15.833 16.6953C15.8035 16.7047 15.7719 16.7052 15.7421 16.6968C15.7123 16.6883 15.6857 16.6713 15.6655 16.6478C15.6544 16.6368 15.6456 16.6238 15.6396 16.6094C15.6335 16.595 15.6304 16.5796 15.6304 16.564C15.6304 16.5484 15.6335 16.533 15.6396 16.5186C15.6456 16.5042 15.6544 16.4912 15.6655 16.4803C15.9155 16.1953 16.0705 15.8628 16.0455 15.7678C16.023 15.7678 15.8805 15.7203 15.2605 16.0178C15.2319 16.0307 15.1995 16.033 15.1693 16.0243C15.1391 16.0156 15.1129 15.9965 15.0955 15.9703C15.0761 15.9411 15.0677 15.9059 15.0718 15.8711C15.0759 15.8363 15.0923 15.8041 15.118 15.7803C15.998 14.9953 16.713 14.1378 16.688 13.9228C16.188 13.8053 14.0705 15.8503 14.023 15.8753C13.9441 15.9513 13.8729 16.0351 13.8105 16.1253C13.8002 16.1401 13.7869 16.1527 13.7714 16.162C13.7559 16.1714 13.7386 16.1773 13.7206 16.1794C13.7026 16.1815 13.6844 16.1798 13.6671 16.1744C13.6499 16.1689 13.634 16.1598 13.6205 16.1478C13.6051 16.1379 13.592 16.1249 13.5822 16.1095C13.5724 16.0941 13.5661 16.0767 13.5637 16.0586C13.5613 16.0405 13.5629 16.0221 13.5684 16.0046C13.5739 15.9872 13.5832 15.9712 13.5955 15.9578C13.6674 15.8421 13.7558 15.7377 13.858 15.6478L13.7855 14.8403C13.393 15.2903 12.5855 16.3153 12.3955 17.4328Z" fill="#414141"/>
<path d="M24.9827 41.275C24.7327 41.2525 24.2677 41.1325 24.5052 40.525C24.5302 40.4775 24.4827 40.43 24.4352 40.43C24.1252 40.43 23.5302 40.2875 23.8152 39.68C23.8402 39.6325 23.7927 39.585 23.7452 39.585C23.4127 39.585 22.7927 39.49 23.1502 38.7275C23.1727 38.68 23.1502 38.6325 23.1027 38.6325C23.0051 38.6224 22.9154 38.5742 22.8531 38.4983C22.7909 38.4225 22.7611 38.3252 22.7702 38.2275C22.7702 38.205 22.7452 38.18 22.7202 38.205L18.7727 40.3225C17.9494 40.8854 17.1551 41.4895 16.3927 42.1325C16.3677 42.155 16.3452 42.155 16.2977 42.155C16.2542 42.1499 16.2128 42.1336 16.1777 42.1075C16.1649 42.0942 16.1552 42.0783 16.1495 42.0608C16.1437 42.0433 16.142 42.0247 16.1444 42.0065C16.1468 41.9882 16.1533 41.9707 16.1633 41.9553C16.1734 41.9399 16.1869 41.927 16.2027 41.9175C16.2502 41.87 17.3427 41.0125 18.2027 40.395L17.8227 38.515C17.8227 38.515 12.5402 41.8225 15.3477 45.265C17.9177 48.43 23.4377 44.4325 25.0552 41.41C25.0527 41.3475 25.0302 41.275 24.9827 41.275Z" fill="#414141"/>
<path d="M28.0748 39.3474C28.0273 39.1324 27.8248 39.0374 27.6223 38.9674C27.8723 38.6349 27.9548 38.3949 27.8723 38.2049C27.8137 38.1222 27.7349 38.0558 27.6435 38.012C27.552 37.9683 27.4509 37.9486 27.3498 37.9549C27.4314 37.8913 27.4944 37.8069 27.5322 37.7106C27.57 37.6143 27.5813 37.5096 27.5648 37.4074C27.5147 37.2967 27.4354 37.2016 27.3354 37.1325C27.2355 37.0634 27.1186 37.0227 26.9973 37.0149C27.0249 36.9628 27.0372 36.9039 27.0328 36.8451C27.0284 36.7862 27.0074 36.7298 26.9723 36.6824C26.7223 36.2774 25.6398 36.2074 24.2598 36.8024C23.4048 37.1824 23.0098 37.5149 23.0098 37.8724C23.0305 37.9828 23.0784 38.0863 23.1491 38.1736C23.2198 38.2609 23.3111 38.3292 23.4148 38.3724C23.2473 38.6824 23.2248 38.9199 23.3673 39.1099C23.5098 39.2999 23.8673 39.3249 24.1173 39.2999C23.9748 39.5849 23.9498 39.7999 24.0698 39.9674C24.2123 40.1799 24.5698 40.2049 24.8198 40.1799C24.7498 40.3949 24.6773 40.7274 24.8673 40.9174C24.9209 40.9684 24.9847 41.0074 25.0545 41.032C25.1243 41.0565 25.1985 41.0661 25.2723 41.0599C25.7112 41.0086 26.1358 40.8718 26.5223 40.6574C27.6698 40.1099 28.1473 39.7049 28.0748 39.3474ZM23.3248 37.8724C23.3498 37.7999 23.3973 37.5149 24.3973 37.0624C25.7998 36.4449 26.6323 36.6349 26.7523 36.8249C26.7773 36.8724 26.7298 36.9449 26.6798 36.9924C25.6031 37.195 24.5717 37.5896 23.6348 38.1574C23.3623 38.1349 23.2673 38.0399 23.3148 37.8724H23.3248ZM23.7473 38.4199C23.9598 38.2999 25.3398 37.4674 26.7223 37.2774C26.9348 37.2299 27.6973 37.4199 26.8648 37.9924C25.9123 38.1824 24.7948 38.7424 24.3648 38.9674C23.3398 39.3474 23.4973 38.5874 23.7473 38.4199ZM24.4973 39.2299C24.9273 38.9799 26.1648 38.3724 27.0923 38.2299C27.3048 38.2299 27.9723 38.2999 27.2573 38.9424C26.528 39.2933 25.7764 39.5956 25.0073 39.8474H24.9848C24.0298 40.1324 24.2473 39.4674 24.4973 39.2299ZM26.4023 40.4174C24.8323 41.2274 24.9973 40.4899 25.1523 40.1324C25.5573 39.9899 26.6748 39.5624 27.4023 39.2299C27.5748 39.2299 28.4973 39.3474 26.4098 40.4174H26.4023Z" fill="#414141"/>
<path d="M29.2169 30.9251C29.221 30.2512 29.0904 29.5833 28.833 28.9605C28.5755 28.3377 28.1963 27.7725 27.7176 27.2982C27.2388 26.8239 26.6702 26.4499 26.045 26.1983C25.4199 25.9466 24.7507 25.8223 24.0769 25.8326C22.6989 25.8286 21.3752 26.3696 20.3946 27.3376C19.4139 28.3057 18.8557 29.6222 18.8419 31.0001C18.8378 31.674 18.9683 32.342 19.2258 32.9648C19.4833 33.5876 19.8625 34.1527 20.3412 34.627C20.82 35.1013 21.3886 35.4753 22.0138 35.727C22.6389 35.9786 23.308 36.103 23.9819 36.0926C24.302 36.0981 24.6217 36.0662 24.9344 35.9976L26.8369 44.3251C26.8523 44.3501 26.8753 44.3694 26.9027 44.3801C26.93 44.3908 26.96 44.3923 26.9883 44.3844C27.0165 44.3765 27.0414 44.3596 27.0592 44.3363C27.077 44.313 27.0867 44.2845 27.0869 44.2551L25.1819 35.9501C26.3236 35.6923 27.3442 35.055 28.0771 34.1424C28.8099 33.2297 29.2117 32.0956 29.2169 30.9251ZM23.9819 35.8251C23.3456 35.8358 22.7136 35.7192 22.123 35.4821C21.5324 35.245 20.9952 34.8923 20.5429 34.4447C20.0906 33.997 19.7323 33.4635 19.4891 32.8754C19.246 32.2873 19.1228 31.6565 19.1269 31.0201C19.1355 29.7143 19.6613 28.4651 20.5891 27.5462C21.5169 26.6273 22.7711 26.1136 24.0769 26.1176C24.7134 26.1069 25.3456 26.2236 25.9364 26.4609C26.5271 26.6981 27.0645 27.051 27.5168 27.499C27.9691 27.9469 28.3274 28.4807 28.5704 29.0691C28.8134 29.6575 28.9363 30.2885 28.9319 30.9251C28.9226 32.2305 28.3966 33.479 27.4688 34.3974C26.5411 35.3158 25.2873 35.8291 23.9819 35.8251Z" fill="#414141"/>
<path d="M24.9828 28.83C24.9419 28.8322 24.9018 28.8186 24.8706 28.7921C24.8395 28.7656 24.8197 28.7282 24.8153 28.6875C24.8096 28.6654 24.809 28.6424 24.8135 28.62C24.818 28.5977 24.8274 28.5767 24.841 28.5584C24.8547 28.5402 24.8723 28.5253 24.8925 28.5147C24.9127 28.5042 24.935 28.4983 24.9578 28.4975L27.1228 28.165C27.1668 28.1587 27.2116 28.1702 27.2473 28.1969C27.2829 28.2236 27.3065 28.2634 27.3128 28.3075C27.3191 28.3516 27.3076 28.3964 27.2809 28.432C27.2541 28.4677 27.2143 28.4912 27.1703 28.4975L24.9828 28.83Z" fill="#016DAB"/>
<path d="M22.9964 29.1152C22.9556 29.1174 22.9155 29.1038 22.8843 29.0773C22.8532 29.0508 22.8333 29.0134 22.8289 28.9727C22.8233 28.9506 22.8227 28.9276 22.8272 28.9052C22.8316 28.8829 22.841 28.8618 22.8547 28.8436C22.8684 28.8254 22.886 28.8105 22.9062 28.7999C22.9264 28.7894 22.9487 28.7835 22.9714 28.7827L24.0414 28.6177C24.0855 28.6111 24.1304 28.6222 24.1663 28.6487C24.2022 28.6752 24.226 28.7149 24.2327 28.759C24.2393 28.8031 24.2281 28.848 24.2017 28.8838C24.1752 28.9197 24.1355 28.9436 24.0914 28.9502C24.1239 28.9727 23.0289 29.1152 22.9964 29.1152Z" fill="#016DAB"/>
<path d="M20.0318 29.5927C19.991 29.5948 19.9509 29.5813 19.9197 29.5548C19.8886 29.5283 19.8688 29.4908 19.8643 29.4502C19.8576 29.4282 19.8557 29.4051 19.859 29.3823C19.8623 29.3596 19.8705 29.3379 19.8832 29.3188C19.8959 29.2996 19.9127 29.2836 19.9323 29.2717C19.952 29.2598 19.974 29.2525 19.9968 29.2502L22.0193 28.9427C22.0634 28.936 22.1084 28.9472 22.1442 28.9737C22.1801 29.0002 22.204 29.0398 22.2106 29.0839C22.2172 29.128 22.2061 29.1729 22.1796 29.2088C22.1531 29.2447 22.1134 29.2685 22.0693 29.2752L20.0318 29.5927Z" fill="#016DAB"/>
<path d="M25.9574 31.4477C25.9165 31.4498 25.8764 31.4363 25.8452 31.4098C25.8141 31.3833 25.7943 31.3459 25.7899 31.3052C25.7842 31.2831 25.7836 31.2601 25.7881 31.2377C25.7926 31.2154 25.802 31.1943 25.8157 31.1761C25.8293 31.1579 25.8469 31.1429 25.8671 31.1324C25.8873 31.1219 25.9096 31.116 25.9324 31.1152L28.1224 30.7827C28.1442 30.7796 28.1664 30.7808 28.1878 30.7863C28.2092 30.7917 28.2292 30.8014 28.2469 30.8146C28.2645 30.8278 28.2794 30.8444 28.2906 30.8634C28.3019 30.8824 28.3092 30.9034 28.3124 30.9252C28.3155 30.947 28.3143 30.9693 28.3088 30.9906C28.3033 31.012 28.2937 31.0321 28.2805 31.0497C28.2672 31.0673 28.2507 31.0822 28.2317 31.0935C28.2127 31.1047 28.1917 31.1121 28.1699 31.1152L25.9574 31.4477Z" fill="#016DAB"/>
<path d="M23.387 31.8276C23.3462 31.8298 23.3061 31.8162 23.2749 31.7897C23.2438 31.7632 23.224 31.7258 23.2195 31.6851C23.2139 31.6631 23.2133 31.64 23.2178 31.6177C23.2223 31.5953 23.2317 31.5743 23.2453 31.556C23.259 31.5378 23.2766 31.5229 23.2968 31.5123C23.317 31.5018 23.3393 31.4959 23.362 31.4951L25.0295 31.2576C25.0516 31.252 25.0747 31.2514 25.097 31.2559C25.1194 31.2603 25.1404 31.2698 25.1586 31.2834C25.1769 31.2971 25.1918 31.3147 25.2023 31.3349C25.2129 31.3551 25.2188 31.3774 25.2195 31.4001C25.2195 31.4951 25.172 31.5901 25.077 31.5901C25.077 31.5676 23.387 31.8276 23.387 31.8276Z" fill="#016DAB"/>
<path d="M20.0316 32.3052C19.9907 32.3074 19.9506 32.2938 19.9195 32.2673C19.8883 32.2408 19.8685 32.2034 19.8641 32.1627C19.8585 32.1406 19.8579 32.1176 19.8623 32.0952C19.8668 32.0729 19.8762 32.0518 19.8899 32.0336C19.9035 32.0154 19.9211 32.0005 19.9413 31.9899C19.9615 31.9794 19.9838 31.9735 20.0066 31.9727L22.0791 31.6627C22.1232 31.6564 22.168 31.6679 22.2036 31.6946C22.2392 31.7213 22.2628 31.7611 22.2691 31.8052C22.2754 31.8493 22.2639 31.8941 22.2372 31.9297C22.2105 31.9653 22.1707 31.9889 22.1266 31.9952L20.0316 32.3052Z" fill="#016DAB"/>
<path d="M22.6248 34.3977C22.5842 34.3998 22.5444 34.3861 22.5136 34.3596C22.4829 34.333 22.4636 34.2956 22.4598 34.2552C22.4542 34.2331 22.4536 34.21 22.458 34.1877C22.4625 34.1654 22.4719 34.1443 22.4856 34.1261C22.4992 34.1078 22.5168 34.0929 22.537 34.0824C22.5572 34.0718 22.5795 34.066 22.6023 34.0652L26.3523 33.5652C26.3964 33.5589 26.4412 33.5703 26.4768 33.5971C26.5124 33.6238 26.536 33.6636 26.5423 33.7077C26.5486 33.7518 26.5371 33.7965 26.5104 33.8322C26.4837 33.8678 26.4439 33.8914 26.3998 33.8977L22.6248 34.3977Z" fill="#016DAB"/>
</svg>
