<svg width="50" height="50" viewBox="0 0 50 50" fill="none" xmlns="http://www.w3.org/2000/svg">
<path d="M46.603 18.306C46.0901 18.2084 45.5629 18.213 45.0517 18.3196C44.5406 18.4261 44.0555 18.6326 43.6243 18.927C41.9138 20.0248 41.5763 21.3615 41.8068 22.9548C42.3203 26.5048 48.1258 25.7273 48.6278 21.2835C48.6828 21.2835 48.9655 18.8453 46.603 18.306Z" fill="#FDAF31"/>
<path d="M46.6207 18.2193C43.3677 17.4853 40.0622 21.5943 42.414 23.8283C42.414 23.8456 42.3967 23.8628 42.3967 23.8801C42.3967 23.9051 42.4185 24.3136 42.4315 24.3648C42.4315 24.4001 42.461 24.4341 42.5352 24.4341C42.6525 24.4341 42.5872 24.2781 42.5872 24.0878C42.5872 23.8536 42.5217 24.0628 43.2277 24.3648C43.179 24.4148 43.1757 24.4503 43.2277 24.8668C43.2277 24.9296 43.2747 24.9361 43.3315 24.9361C43.4657 24.9361 43.3662 24.7778 43.3662 24.4168C43.6295 24.5073 43.9025 24.5653 44.1797 24.5901C44.1017 24.6681 44.1797 24.8586 44.1797 25.1266C44.1797 25.1546 44.2167 25.1958 44.2837 25.1958C44.4005 25.1958 44.3357 25.0516 44.3357 24.8843C44.3348 24.7853 44.3231 24.6866 44.301 24.5901C45.0902 24.5901 45.0455 24.4948 45.0455 24.5553C45.0455 24.6418 45.08 24.9623 45.08 25.0573C45.0793 25.0691 45.081 25.0809 45.0851 25.0919C45.0892 25.103 45.0955 25.1131 45.1037 25.1216C45.1138 25.1324 45.1265 25.1405 45.1406 25.1451C45.1547 25.1496 45.1697 25.1504 45.1842 25.1474C45.1988 25.1444 45.2123 25.1377 45.2234 25.128C45.2346 25.1182 45.243 25.1058 45.248 25.0918C45.2521 25.0808 45.2539 25.069 45.2532 25.0573C45.2689 24.871 45.2513 24.6834 45.2012 24.5033C45.3906 24.4699 45.5762 24.4177 45.7552 24.3476C45.7552 24.5421 45.7897 24.7333 45.7897 24.8151C45.7891 24.8268 45.7908 24.8386 45.7949 24.8497C45.799 24.8607 45.8053 24.8708 45.8135 24.8793C45.8256 24.8923 45.8415 24.9012 45.8589 24.9048C45.8763 24.9084 45.8944 24.9065 45.9107 24.8993C45.9216 24.8947 45.9313 24.8879 45.9394 24.8793C45.9475 24.8708 45.9537 24.8606 45.9577 24.8496C45.9618 24.8385 45.9636 24.8268 45.963 24.8151C45.963 24.0303 45.713 24.4381 46.4822 24.0186C46.4822 24.1028 46.517 24.3961 46.517 24.4341C46.5162 24.4456 46.518 24.4572 46.5222 24.4681C46.5285 24.4842 46.5398 24.498 46.5544 24.5075C46.5689 24.517 46.5861 24.5216 46.6035 24.5208C46.767 24.5208 46.6555 24.2393 46.6555 23.9841C46.6555 23.9668 46.638 23.9493 46.638 23.9321C47.3447 23.5198 47.2267 23.3591 47.2267 23.8628C47.2267 23.8857 47.2358 23.9077 47.2521 23.924C47.2683 23.9402 47.2903 23.9493 47.3132 23.9493C47.3362 23.9493 47.3582 23.9402 47.3744 23.924C47.3906 23.9077 47.3997 23.8857 47.3997 23.8628C47.3997 23.1586 47.2937 23.5861 47.8325 22.9801C47.8325 23.1751 47.8002 23.3088 47.919 23.3088C47.9364 23.3098 47.9536 23.3052 47.9682 23.2958C47.9829 23.2864 47.9942 23.2725 48.0005 23.2563C48.0046 23.2455 48.0064 23.2339 48.0057 23.2223C48.0148 23.0778 48.0089 22.9328 47.9882 22.7896C49.5197 20.9048 48.6282 18.6726 46.6207 18.2193ZM48.3692 21.8548C47.078 24.7298 42.6215 25.4421 41.8775 22.5298C41.3615 20.5106 43.7257 18.2886 45.859 18.2886C48.1385 18.2886 49.0397 20.3613 48.3692 21.8548Z" fill="white"/>
<path d="M44.9244 22.0626L46.7074 22.4261L47.2094 19.4314L44.3184 20.2449L44.9244 22.0626Z" fill="white"/>
<path d="M43.8845 20.5912L43.625 23.4129L46.239 22.8244L44.4385 22.4607L43.8845 20.5912Z" fill="white"/>
<path d="M10.0406 24.1054C9.40234 22.7366 7.51234 21.4354 5.57434 21.8376C3.75584 22.2146 3.42759 23.7419 3.72209 24.6766C4.10284 27.1516 6.79709 28.2791 8.62209 27.6541C10.0371 27.1686 10.5698 25.2401 10.0406 24.1054Z" fill="#FDAF31"/>
<path d="M7.60145 25.4209L5.93945 25.7326L8.38045 26.2519L8.1207 23.7764L7.60145 25.4209Z" fill="white"/>
<path d="M7.73956 23.482L5.03906 22.755L5.50656 25.369L7.16831 25.0573L7.73956 23.482Z" fill="white"/>
<path d="M10.128 24.0706C8.96275 21.4984 5.06375 20.8819 3.878 22.8761C3.41775 23.6511 3.38775 24.7906 4.31075 25.7844C4.31075 26.1784 4.2785 26.3039 4.39725 26.3039C4.40877 26.3045 4.42029 26.3027 4.43106 26.2985C4.44184 26.2944 4.45162 26.288 4.45978 26.2799C4.46793 26.2717 4.47428 26.2619 4.47842 26.2512C4.48255 26.2404 4.48436 26.2289 4.48375 26.2174C4.48375 25.8306 4.40875 25.9611 4.86475 26.3039C4.86475 26.3211 4.8475 26.3211 4.8475 26.3384C4.8475 26.4134 4.86475 26.7591 4.86475 26.7884C4.86475 26.8113 4.87386 26.8333 4.89009 26.8495C4.90631 26.8657 4.92831 26.8749 4.95125 26.8749C4.97419 26.8749 4.99619 26.8657 5.01242 26.8495C5.02864 26.8333 5.03775 26.8113 5.03775 26.7884C5.04315 26.6727 5.03738 26.5567 5.0205 26.4421C5.186 26.5571 5.358 26.6629 5.53525 26.7589C5.529 27.0166 5.44125 27.2904 5.59175 27.2904C5.72125 27.2904 5.65475 27.1534 5.69575 27.0306C5.69575 26.9786 5.713 26.9269 5.713 26.8576C6.40175 27.2019 6.19775 26.8999 6.19775 27.4981C6.19775 27.5681 6.187 27.6539 6.28425 27.6539C6.29577 27.6545 6.30729 27.6527 6.31806 27.6485C6.32884 27.6444 6.33862 27.638 6.34678 27.6299C6.35493 27.6217 6.36128 27.6119 6.36541 27.6012C6.36955 27.5904 6.37136 27.5789 6.37075 27.5674C6.37075 27.3801 6.388 27.2789 6.388 27.1519C6.5515 27.2064 6.7195 27.2469 6.89 27.2731C6.85583 27.4383 6.83849 27.6065 6.83825 27.7751C6.83825 27.7981 6.84736 27.8201 6.86359 27.8363C6.87981 27.8525 6.90181 27.8616 6.92475 27.8616C6.94769 27.8616 6.96969 27.8525 6.98592 27.8363C7.00214 27.8201 7.01125 27.7981 7.01125 27.7751C7.01405 27.6246 7.02566 27.4743 7.046 27.3251C7.046 27.2564 7.10675 27.3421 7.721 27.3421C7.6865 27.3769 7.6865 27.4461 7.6865 27.6019C7.6865 27.7411 7.6245 27.8581 7.7385 27.8961C7.79725 27.8961 7.84225 27.8604 7.84225 27.8269C7.84225 27.5871 7.9205 27.4204 7.84225 27.3421C8.09475 27.3221 8.344 27.2756 8.58675 27.2039C8.58675 27.5261 8.49325 27.6244 8.62125 27.6886C8.68025 27.6886 8.72525 27.6526 8.72525 27.6191C8.73775 27.5191 8.78325 27.2099 8.7425 27.1691C9.17175 27.0261 9.31375 26.8289 9.31375 26.9094C9.31375 27.1344 9.26175 27.1864 9.36575 27.2384C9.4245 27.2384 9.4695 27.2026 9.4695 27.1691C9.4695 27.1589 9.4915 26.7789 9.50425 26.7536C9.722 26.7539 10.738 25.4166 10.128 24.0706ZM3.79225 24.6591C3.38225 23.3786 4.2635 21.8549 6.30225 21.8549C8.322 21.8549 10.67 23.7886 10.0243 25.6114C9.12425 28.1499 4.82425 27.2421 3.79225 24.6591Z" fill="white"/>
<path d="M35.4437 15.4863C34.7512 14.1363 33.6149 15.9658 33.3144 16.6113C33.2424 16.7658 33.1067 17.2346 32.8817 17.2691C32.7084 17.2863 32.5009 17.0441 32.3797 16.9401C32.1212 16.7115 31.8029 16.5613 31.4622 16.5073C30.9082 16.4381 30.6312 16.9748 30.1292 16.9921C29.0999 17.0276 28.5292 16.0063 25.6292 16.9748C25.5704 16.8378 25.6649 16.9626 24.8362 15.7748C25.4177 14.8481 24.8392 14.3726 24.7227 13.4416C24.6362 12.6798 25.2074 11.9528 25.1034 11.1391C24.9994 10.3776 24.3744 10.0498 24.1677 9.42484C23.9109 8.60608 24.3387 7.78758 23.6019 7.18983C25.0754 5.78708 25.8297 5.57433 25.8297 5.25283C25.8297 4.95033 24.5659 5.43383 24.5659 5.32208C24.6352 5.04508 25.4142 4.64708 25.6392 4.45633C25.6737 4.42183 26.0199 4.14483 25.8989 4.07558C25.5632 3.88383 24.2369 4.93708 24.2369 4.81983C24.1752 4.66533 25.6744 3.57883 25.3619 3.40058C24.8712 3.13283 23.5329 4.71933 23.4577 4.68158C23.6592 4.32883 24.5922 3.19808 24.3924 3.12358C23.7924 2.89858 22.5594 5.07958 22.5057 5.07958C22.5057 5.05458 22.9412 3.64908 22.6442 3.69458C22.3672 3.72933 22.1594 4.31808 22.0382 4.99308C21.8907 5.59833 21.9082 6.23208 22.0902 6.82808C21.0167 7.10508 21.3457 8.45533 21.0167 9.33834C20.9822 9.43658 21.0417 9.35858 19.9009 11.0926C18.1244 13.7998 13.4019 13.6708 13.0602 9.91208C12.6447 7.22883 14.7222 5.94783 16.0897 6.08708C15.5713 5.91882 15.0181 5.88779 14.4841 5.99703C13.9501 6.10626 13.4536 6.35202 13.0429 6.71033C10.8789 8.52808 10.9514 10.7948 11.8832 12.5441C12.0258 12.8211 12.1911 13.0859 12.3772 13.3358C11.6662 12.9501 10.6404 12.9858 9.97891 12.6481C9.59791 12.4576 9.47691 11.9036 9.07891 11.6613C8.52491 11.3323 7.90166 11.5056 7.31316 11.4363C7.00166 11.3498 6.70716 11.1596 6.41316 11.1768C5.72966 11.2391 5.99191 11.5593 5.77266 11.1941C5.71891 11.2481 4.57266 9.77234 3.57416 9.56684C2.98566 9.44584 3.53941 10.0688 3.67791 10.2246C3.71266 10.2593 4.12791 10.6056 4.12791 10.6228C3.96041 10.5771 2.16791 9.77658 1.80816 10.2941C1.63741 10.5378 3.19316 10.8616 3.19316 10.9691C3.17566 11.0211 2.60441 10.9171 2.56991 10.9171C2.36216 10.9171 1.47916 10.8651 1.39266 11.1421C1.29766 11.4746 2.88066 11.5026 2.93341 11.6613C2.93341 11.7131 2.48341 11.6958 2.44866 11.7131C2.18891 11.7826 1.49641 11.8863 1.39266 12.1806C1.29641 12.4376 2.33641 12.4378 2.60441 12.4231C2.65641 12.4231 2.89866 12.3883 2.91616 12.4403C2.95266 12.5136 1.90066 12.7751 1.96391 13.1328C2.00366 13.3578 2.53516 13.2538 2.67366 13.2193C3.76941 13.0403 4.70266 13.2968 5.18391 13.2366C5.26516 14.2116 5.94816 14.1453 6.29166 14.5348C6.58616 14.8811 6.63791 15.4178 6.89766 15.7986C7.53816 16.7333 8.55966 16.3181 9.37266 16.8028C9.93466 17.1398 10.1517 18.8208 12.4542 18.2568C12.4852 18.7226 13.7024 20.5351 16.1977 19.8068C16.3369 20.3596 16.6774 21.3728 16.7299 21.4778C17.2602 22.7423 17.8379 22.7136 17.8379 22.8453C16.5799 23.0093 15.9552 23.7248 15.8472 24.2648C15.2412 24.3168 14.4972 24.3861 13.8909 24.1611C13.6977 25.0288 11.5087 30.9903 11.1519 31.9461C10.0414 30.1063 8.27341 30.3328 7.46841 31.1711C7.20866 31.4481 7.00116 31.9153 6.63741 32.0541C6.17016 32.2271 5.40841 31.8808 4.90641 31.9153C1.48641 32.1526 0.0471568 36.4948 2.55191 38.1653C2.86366 38.3731 3.69466 38.5461 3.86766 38.9098C4.04091 39.2906 3.55616 40.1041 3.46966 40.4848C2.69066 43.6563 4.97866 45.5848 6.82791 45.0203C7.15691 44.9163 8.00516 44.1203 8.31666 44.3106C8.69766 44.5356 8.95716 45.0551 9.23416 45.3838C10.7172 47.0673 12.4444 47.5051 13.9592 45.8513C14.2362 45.5571 14.4784 45.1068 14.8592 44.9338C15.3439 44.7088 15.9669 44.8126 16.4692 44.7953C17.5597 44.7433 18.7022 44.3626 19.0832 43.2373C19.3157 42.5133 19.2662 41.7281 18.9447 41.0388C18.8234 40.7618 18.3387 40.2771 18.4252 39.9656C18.4944 39.6538 18.8927 39.3768 19.0657 39.1346C21.0309 36.3711 17.9349 34.0156 15.8804 36.0706C15.7594 36.1916 15.6034 36.6243 15.6034 36.4686C15.6001 35.9046 15.3781 35.364 14.9842 34.9604C14.5903 34.5568 14.0551 34.3218 13.4914 34.3048C13.2089 34.3048 13.2664 34.3463 13.2664 34.1661C13.2664 32.4766 14.0397 30.1161 14.8664 27.8038C15.0972 28.2538 15.4317 28.8181 15.5869 29.1288C15.9159 29.7693 16.4524 31.1538 17.2142 31.4141C17.5604 31.5351 17.6297 31.0158 17.6469 30.7906C17.7094 29.6368 17.1544 28.4723 17.4912 28.3498C17.8279 28.2273 18.3497 28.8453 19.2742 28.6096C20.1987 28.3738 20.2609 27.3286 20.9879 26.9131C21.3342 26.7053 21.7844 26.7746 22.1479 26.7918C24.3787 26.8746 25.1424 25.3453 26.0547 23.5981C26.5547 23.3898 27.0497 22.7823 27.6529 22.6546C28.4492 22.4986 29.2454 22.6891 30.0244 22.4121C30.6649 22.1871 31.1844 21.5121 31.8597 21.4426C32.4309 21.3736 33.0022 22.0486 33.5214 21.8061C34.0234 21.5811 34.2832 20.8713 34.5082 20.4213C35.0974 19.0351 36.1882 16.9578 35.4437 15.4863Z" fill="white"/>
<path d="M15.7085 16.0923C15.5008 15.5728 14.739 14.6036 14.0293 14.2746L14.0985 14.2573C14.8948 13.9628 16.2278 15.1228 16.5568 15.6941C17.4223 17.1998 16.1933 17.2696 15.7085 16.0923Z" fill="white"/>
<path d="M22.9072 14.0668C20.5182 14.69 19.1159 15.675 18.5427 16.5923C18.1632 17.2 21.0007 19.623 21.2087 19.5C21.4694 19.346 24.0304 16.886 25.3462 16.575C25.4257 16.5355 24.6234 15.3275 22.9072 14.0668Z" fill="#87E4FF"/>
<path d="M20.3163 10.3086C20.2988 10.3451 19.9526 10.9208 19.9453 10.9313C19.9536 11.1053 19.9708 11.2788 19.9973 11.4508C19.9973 11.5243 21.9938 12.3421 22.5938 13.8041C22.7913 13.9458 23.3003 14.3216 23.3003 14.3216C22.6553 11.8173 20.3163 10.4108 20.3163 10.3086Z" fill="#87E4FF"/>
<path d="M16.5117 21.0067C17.2367 19.434 17.3737 17.218 16.4997 15.7267C16.1707 15.1555 14.855 13.9957 14.0415 14.29L13.9722 14.3072C14.682 14.6362 15.4435 15.6057 15.6515 16.125C16.136 17.302 16.015 18.7562 15.634 19.9852C15.451 19.9397 13.995 20.3485 12.8815 19.1025C12.7792 19 12.8537 18.9982 12.6912 19.0677C12.5873 19.8141 12.5873 20.5713 12.6912 21.3177C12.9772 23.7015 12.8865 24.546 15.8072 24.2952C15.9765 23.449 16.9515 22.9917 17.8042 22.8577C17.0002 22.489 16.5232 21.2875 16.5117 21.0067Z" fill="#87E4FF"/>
<path d="M22.9067 15.8396L22.5605 16.9648L21.418 17.1553L23.1145 17.5708L22.9067 15.8396Z" fill="white"/>
<path d="M20.8594 15.1377L21.1364 16.6089L22.0711 16.4532L22.3654 15.5704L20.8594 15.1377Z" fill="white"/>
<path d="M11.8597 25.1438C12.3789 24.8323 12.7772 24.2783 13.3829 24.1398L13.5214 24.0361C13.0632 23.8068 12.9327 23.0678 12.8637 22.5646C12.8114 22.1838 12.7424 21.7683 12.7079 21.3353C12.3647 21.3353 12.0952 21.7448 11.8249 22.0971C10.3202 24.0596 10.8292 25.7621 11.8597 25.1438Z" fill="white"/>
<path d="M23.0377 6.08607C23.2502 5.85607 23.481 5.64332 23.7275 5.44982C23.7535 5.4295 23.7865 5.4203 23.8193 5.42423C23.8521 5.42817 23.882 5.44492 23.9025 5.47082C24.0297 5.63232 23.788 5.64182 23.221 6.25607C23.1983 6.2797 23.1672 6.29347 23.1344 6.29441C23.1017 6.29535 23.0699 6.28338 23.0458 6.2611C23.0218 6.23881 23.0075 6.20798 23.006 6.17524C23.0045 6.14251 23.0159 6.11049 23.0377 6.08607Z" fill="#414141"/>
<path d="M3.76483 12.0464C3.89765 11.9078 4.07793 11.8246 4.26954 11.8133C4.46115 11.8021 4.64994 11.8636 4.79808 11.9857C4.82085 12.0092 4.83345 12.0408 4.83316 12.0736C4.83288 12.1064 4.81973 12.1377 4.79656 12.1609C4.77338 12.1841 4.74203 12.1972 4.70925 12.1975C4.67648 12.1978 4.64491 12.1852 4.62133 12.1624C4.52364 12.0897 4.4033 12.0542 4.2818 12.0621C4.16031 12.0699 4.04557 12.1207 3.95808 12.2054C3.94764 12.2181 3.9348 12.2286 3.9203 12.2363C3.9058 12.2441 3.88992 12.2489 3.87356 12.2504C3.85721 12.252 3.8407 12.2504 3.82498 12.2456C3.80926 12.2408 3.79464 12.233 3.78195 12.2225C3.76927 12.2121 3.75876 12.1993 3.75103 12.1848C3.7433 12.1703 3.73851 12.1544 3.73692 12.138C3.73533 12.1217 3.73697 12.1052 3.74176 12.0894C3.74655 12.0737 3.75439 12.0591 3.76483 12.0464Z" fill="#414141"/>
<path d="M9.02159 15.8346C8.99966 15.8346 8.97812 15.8289 8.95911 15.8179C8.94011 15.807 8.92432 15.7912 8.91333 15.7723C8.90234 15.7533 8.89653 15.7318 8.89648 15.7098C8.89644 15.6879 8.90217 15.6664 8.91309 15.6473C8.94459 15.5051 8.79284 14.0473 9.58284 13.0853C9.60389 13.06 9.63408 13.0441 9.66684 13.0409C9.69961 13.0377 9.73231 13.0476 9.75784 13.0683C9.97884 13.2498 9.41184 13.2486 9.17884 14.8791C9.14059 15.1251 9.27034 15.8346 9.02159 15.8346Z" fill="#414141"/>
<path d="M12.1937 17.0425C12.281 16.6795 12.3687 15.822 12.8865 15.1648C12.9072 15.1393 12.937 15.123 12.9696 15.1194C13.0022 15.1158 13.0349 15.1251 13.0607 15.1454C13.0865 15.1657 13.1032 15.1952 13.1074 15.2278C13.1116 15.2603 13.1028 15.2931 13.083 15.3193C12.561 15.9835 12.364 17.4375 12.383 17.4835C12.4947 17.6768 11.9785 17.9393 12.1937 17.0425Z" fill="#414141"/>
<path d="M23.4576 9.8448C23.3144 9.8448 23.2041 9.50555 21.9974 9.30155C21.9687 9.29735 21.9402 9.29168 21.9121 9.28455C21.7871 9.2428 21.7741 9.00955 22.0391 9.05505C22.5066 9.13405 23.8004 9.50505 23.5539 9.7998C23.5421 9.81391 23.5274 9.82526 23.5108 9.83304C23.4941 9.84081 23.476 9.84483 23.4576 9.8448Z" fill="#414141"/>
<path d="M24.1003 13.0819C23.8606 13.0819 24.3963 13.0677 22.9166 12.5554C22.8866 12.5435 22.8625 12.5205 22.8491 12.4911C22.8358 12.4618 22.8343 12.4285 22.8449 12.398C22.8555 12.3676 22.8775 12.3425 22.9062 12.3279C22.935 12.3133 22.9682 12.3104 22.9991 12.3197C23.3356 12.4357 24.4351 12.7817 24.1918 13.0422C24.1801 13.0547 24.1659 13.0647 24.1502 13.0716C24.1345 13.0784 24.1175 13.0819 24.1003 13.0819Z" fill="#414141"/>
<path d="M11.4398 25.4021C10.6003 25.4021 10.3453 23.8021 11.708 22.0046C11.933 21.7084 12.3758 21.0879 12.7128 21.1999C12.743 21.2113 12.7677 21.2339 12.7816 21.2631C12.7955 21.2923 12.7976 21.3257 12.7874 21.3564C12.7771 21.3871 12.7554 21.4126 12.7268 21.4276C12.6981 21.4426 12.6648 21.4459 12.6338 21.4369C12.5363 21.4029 12.2863 21.6554 11.9065 22.1569C10.5035 24.0096 10.9088 25.5694 11.7953 25.0371C12.3125 24.7269 12.7088 24.1844 13.352 24.0191C13.3841 24.0109 13.4182 24.0157 13.4468 24.0326C13.4753 24.0495 13.496 24.077 13.5043 24.1091C13.5125 24.1413 13.5077 24.1753 13.4908 24.2039C13.4739 24.2324 13.4464 24.2531 13.4143 24.2614C12.659 24.4554 12.111 25.4021 11.4398 25.4021Z" fill="#414141"/>
<path d="M11.6864 33.7038C12.2237 31.2615 12.8074 29.6955 13.7174 27.3662C13.8764 26.7317 14.1147 26.8973 14.1147 27.031C14.1147 27.2458 12.7857 29.8708 11.9307 33.7573C11.9235 33.7895 11.9038 33.8177 11.8759 33.8355C11.8481 33.8534 11.8143 33.8596 11.7819 33.8527C11.7496 33.8454 11.7213 33.8258 11.7032 33.798C11.6855 33.77 11.6794 33.7361 11.6864 33.7038Z" fill="#414141"/>
<path d="M18.4911 39.9897C18.5506 39.7215 18.9196 39.4397 19.1106 39.1877C21.0276 36.65 18.4269 34.3437 16.4751 35.4205C16.1473 35.5807 15.8611 35.8149 15.6391 36.1045C15.5537 35.5562 15.2728 35.0573 14.8482 34.7001C14.4237 34.3428 13.8842 34.1512 13.3294 34.1607C13.3511 33.8882 13.2501 32.9607 14.2571 29.8607C14.2486 29.8857 14.8954 27.8932 14.9041 27.8677C14.9093 27.8521 14.9114 27.8357 14.9102 27.8193C14.9091 27.8029 14.9047 27.7869 14.8974 27.7722C14.8901 27.7575 14.8799 27.7444 14.8675 27.7337C14.8551 27.7229 14.8407 27.7147 14.8251 27.7095C14.8095 27.7043 14.7931 27.7022 14.7767 27.7033C14.7603 27.7045 14.7443 27.7089 14.7296 27.7162C14.7149 27.7235 14.7018 27.7337 14.6911 27.7461C14.6803 27.7585 14.6721 27.7729 14.6669 27.7885C13.8244 30.355 13.0951 32.3305 13.0846 34.1752C12.2509 34.253 11.6699 34.6642 11.2891 36.0877C11.2837 36.1112 11.2852 36.1358 11.2935 36.1585C11.3018 36.1812 11.3164 36.2009 11.3357 36.2154C11.355 36.2299 11.3781 36.2385 11.4022 36.2402C11.4262 36.2418 11.4503 36.2365 11.4714 36.2247C11.4996 36.2091 11.5208 36.1833 11.5304 36.1525C11.9304 34.657 12.5241 34.4102 13.4351 34.4102C14.6046 34.4102 15.4069 35.4655 15.4221 36.449C15.418 36.4829 15.4263 36.5172 15.4454 36.5456C15.4645 36.5739 15.4931 36.5945 15.5261 36.6035C15.7099 36.6495 15.7866 36.2892 15.9126 36.1392C17.8656 34.1855 20.8276 36.5027 18.9111 39.0377C18.7274 39.2807 18.3256 39.582 18.2466 39.9377C18.1629 40.3355 18.6534 40.8127 18.7754 41.0905C19.0823 41.7505 19.1297 42.5018 18.9084 43.1952C18.5234 44.3327 17.3354 44.6242 16.4084 44.6685C15.9199 44.6862 15.2489 44.5782 14.7511 44.8185C14.3344 45.008 14.0831 45.4755 13.8116 45.7642C12.3161 47.3502 10.7191 46.9442 9.27211 45.302C9.00211 44.9812 8.73011 44.4422 8.32436 44.202C7.91386 43.952 7.06336 44.805 6.73386 44.899C4.91336 45.4172 2.79836 43.5047 3.53386 40.5117C3.62136 40.1442 4.14561 39.3047 3.94061 38.8537C3.73736 38.4275 2.91111 38.285 2.58136 38.0592C0.22136 36.4857 1.49361 32.3062 4.87486 32.0385C5.36186 32.0057 6.12711 32.3597 6.64211 32.1692C7.05136 32.0132 7.26386 31.5275 7.51861 31.256C8.40011 30.3367 10.0051 30.3177 10.9811 31.9765L10.1676 34.1725C10.1605 34.1914 10.1582 34.2117 10.1607 34.2317C10.1632 34.2517 10.1705 34.2709 10.182 34.2874C10.1935 34.304 10.2088 34.3176 10.2267 34.3269C10.2446 34.3363 10.2644 34.3412 10.2846 34.3412C10.4036 34.3412 10.3729 34.358 11.2501 32.0095C13.0306 27.2425 13.9586 24.374 13.9586 24.3487C13.9586 24.2342 13.7761 24.0987 13.6484 24.4407C13.5211 24.7587 13.7219 24.5407 11.0881 31.6862C10.0309 30.0515 8.32436 30.0547 7.33811 31.084C7.07586 31.3637 6.87161 31.8145 6.55511 31.934C6.13436 32.0897 5.37786 31.752 4.85736 31.7882C1.25736 32.0735 -0.12239 36.5557 2.44236 38.2652C2.77111 38.4902 3.57336 38.6612 3.71486 38.9582C3.85611 39.2692 3.37461 40.1027 3.29186 40.452C2.48761 43.7225 4.87511 45.6865 6.80236 45.1382C7.12086 45.0477 7.98711 44.2882 8.19586 44.4152C8.54786 44.6232 8.80211 45.13 9.08311 45.4635C9.78886 46.2635 10.7429 47.0135 11.8106 47.0135C13.5746 47.0135 14.3189 45.2885 14.8574 45.0432C15.2934 44.8335 15.9184 44.9347 16.4189 44.9182C17.8414 44.8505 18.8096 44.267 19.1464 43.2722C19.3872 42.5194 19.3361 41.7036 19.0031 40.9867C18.8821 40.71 18.4374 40.2447 18.4911 39.9897Z" fill="#414141"/>
<path d="M10.3334 42.3134C10.0912 41.8357 10.0229 41.7247 9.20691 41.7282C8.78628 41.7766 8.36303 41.6624 8.02391 41.4089C7.55166 41.0012 7.01291 39.7589 7.62666 39.2589C7.65237 39.2383 7.68515 39.2287 7.7179 39.2321C7.75066 39.2355 7.78075 39.2517 7.80166 39.2771C7.94591 39.4544 7.60691 39.4186 7.59941 39.8956C7.63029 40.392 7.83791 40.8609 8.18466 41.2174C8.49991 41.4787 8.84166 41.4772 9.20566 41.4774C10.1452 41.4757 10.2807 41.6569 10.5557 42.1997C10.7372 42.5572 10.9652 42.8772 11.4609 42.8309C11.9989 42.7809 12.5834 42.2572 12.9207 41.8239C12.9414 41.7987 12.9711 41.7825 13.0035 41.7788C13.036 41.7751 13.0686 41.7842 13.0944 41.8042C13.1202 41.8242 13.1371 41.8536 13.1415 41.886C13.1459 41.9184 13.1374 41.9512 13.1179 41.9774C12.2359 43.1132 10.9927 43.6134 10.3334 42.3134Z" fill="#414141"/>
<path d="M28.4061 21.096C28.3831 20.3043 28.4658 19.5131 28.6521 18.7433C28.658 18.7193 28.671 18.6976 28.6893 18.681C28.7076 18.6644 28.7304 18.6536 28.7549 18.65C28.7793 18.6464 28.8043 18.6502 28.8266 18.6608C28.8489 18.6715 28.8675 18.6885 28.8801 18.7098C28.8971 18.7381 28.9024 18.7719 28.8946 18.804C28.4553 20.5608 28.8361 21.2115 28.5338 21.2183C28.5091 21.219 28.4847 21.2122 28.4638 21.1989C28.4429 21.1856 28.4264 21.1663 28.4166 21.1435C28.41 21.1285 28.4065 21.1124 28.4061 21.096Z" fill="#414141"/>
<path d="M20.5507 25.8578C19.7804 25.8578 18.7487 24.8078 18.2567 24.104C18.1884 24.0068 18.1297 23.9228 18.2277 23.8495C18.4114 23.7115 18.4452 24.0745 19.0117 24.6403C19.4187 25.0628 19.9202 25.5068 20.5702 25.6093C20.6014 25.614 20.6296 25.6304 20.6491 25.6551C20.6687 25.6799 20.6781 25.7111 20.6754 25.7425C20.6731 25.774 20.6589 25.8033 20.6358 25.8247C20.6126 25.8461 20.5822 25.8579 20.5507 25.8578Z" fill="#414141"/>
<path d="M20.7365 15.1608C20.7326 15.1398 20.7341 15.1182 20.7408 15.098C20.7476 15.0778 20.7594 15.0596 20.7752 15.0453C20.791 15.0309 20.8101 15.0208 20.8309 15.016C20.8516 15.0111 20.8733 15.0117 20.8938 15.0175C22.524 15.4888 22.4408 15.4455 22.476 15.5123C22.5113 15.579 22.5055 15.546 22.1895 16.4928C22.1573 16.5895 22.174 16.5628 21.1568 16.7325C20.9863 16.7608 21.0188 16.6575 20.7365 15.1608ZM21.0195 15.3138L21.2365 16.4658L21.9763 16.3425L22.2055 15.6545L21.0195 15.3138Z" fill="#414141"/>
<path d="M23.1161 17.6956C23.0911 17.6956 23.2411 17.7294 21.3896 17.2764C21.3617 17.2694 21.3371 17.253 21.3199 17.2301C21.3027 17.2071 21.2939 17.1789 21.295 17.1503C21.2961 17.1216 21.3071 17.0942 21.326 17.0726C21.345 17.051 21.3708 17.0367 21.3991 17.0319L22.4653 16.8541L22.7888 15.8026C22.7973 15.7753 22.8149 15.7517 22.8386 15.7357C22.8624 15.7198 22.8909 15.7125 22.9195 15.7151C22.948 15.7177 22.9747 15.73 22.9953 15.7499C23.0158 15.7698 23.0289 15.7962 23.0323 15.8246C23.2298 17.4641 23.3161 17.6956 23.1161 17.6956ZM22.0411 17.1784L22.9713 17.4061L22.8553 16.4396C22.6171 17.2109 22.8056 17.0499 22.0401 17.1784H22.0411Z" fill="#414141"/>
<path d="M35.5313 15.41C35.3761 15.1072 35.1523 14.856 34.8136 14.8577C34.1528 14.8612 33.3508 16.074 33.1418 16.6327C32.7138 17.7782 32.7576 16.5595 31.4503 16.3637C30.8361 16.3075 30.5603 16.8322 30.1003 16.848C29.2783 16.877 28.2736 15.9445 25.8313 16.736C25.5563 16.8252 25.7341 16.67 25.0448 15.8337C25.1546 15.5678 25.21 15.2826 25.2077 14.9949C25.2055 14.7072 25.1457 14.4229 25.0318 14.1587C24.7683 13.3615 24.7771 13.1805 25.0288 12.4C25.3636 11.362 25.3498 10.9022 24.6976 10.075C24.3118 9.58597 24.1976 9.39372 24.1943 8.51722C24.1923 8.05247 24.1903 7.57472 23.7818 7.18222C24.9138 6.02797 25.9363 5.73222 25.9363 5.28947C25.9363 4.58122 23.9091 5.75672 25.3613 4.82297C25.6728 4.62297 26.2473 4.18747 25.9256 4.00397C25.4966 3.75897 24.4018 4.78172 25.0373 4.16222C25.2508 3.95447 25.7373 3.51722 25.4063 3.32872C25.1181 3.16397 24.6716 3.45922 24.2271 3.83872C24.3943 3.59272 24.7001 3.14122 24.4331 3.04222C23.9203 2.85197 23.1581 3.95472 22.8163 4.42222C22.8758 4.10147 22.9428 3.55797 22.6206 3.60847C21.9403 3.73622 21.6581 6.08347 21.9273 6.77897C21.2291 7.02897 21.1426 7.73847 21.0591 8.42647C20.9411 9.39472 20.8678 9.42397 20.5426 9.81972C20.3506 10.0345 20.1866 10.2727 20.0546 10.5287C19.6453 7.23172 15.5408 4.29947 12.9546 6.56147C10.7978 8.44847 10.6568 11.0515 12.0796 13.0482C11.4093 12.7732 10.5696 12.739 10.0096 12.4657C9.67831 12.3002 9.53931 11.7407 9.11706 11.4832C8.52506 11.132 7.88906 11.3102 7.29481 11.241C7.01756 11.2247 6.72881 11.0262 6.39331 11.051C5.73056 11.101 6.15156 11.4375 5.46231 10.756C3.64981 8.96622 2.56981 9.19322 3.53206 10.293C2.86056 10.0617 1.96931 9.82247 1.68006 10.2382C1.50081 10.496 2.02081 10.7035 2.31831 10.8047C1.83156 10.8 1.33831 10.836 1.24956 11.1222C1.14281 11.4637 1.90131 11.5862 2.26081 11.6385C1.92781 11.7135 1.34756 11.828 1.25281 12.1512C1.10481 12.5457 1.99081 12.5742 2.41456 12.5687C1.55831 12.9605 1.78281 13.413 2.28306 13.413C2.81531 13.413 2.69056 13.197 4.49381 13.3505C5.37431 13.4255 4.86581 13.246 5.24506 13.9402C5.49506 14.3442 5.93431 14.3767 6.17381 14.6477C6.44581 14.968 6.50306 15.5067 6.77181 15.9012C7.45081 16.8922 8.50481 16.493 9.28606 16.9417C9.80706 17.2545 10.0556 18.9312 12.3313 18.4402C12.4731 18.9697 13.4653 20.135 15.0231 20.135C15.2218 20.1342 15.4203 20.12 15.6171 20.0917C15.6493 20.0864 15.6781 20.0687 15.6974 20.0424C15.7168 20.0161 15.725 19.9833 15.7205 19.951C15.716 19.9187 15.699 19.8894 15.6731 19.8695C15.6473 19.8495 15.6147 19.8405 15.5823 19.8442C13.6073 20.1212 12.5848 18.7052 12.5573 18.2805C12.5323 17.9037 10.9751 18.9625 9.94581 17.3352C8.89881 15.6785 7.46281 17.2332 6.72331 15.1985C6.18956 13.728 5.41281 14.4715 5.28606 13.2385C5.20556 12.452 5.59506 11.3575 6.41556 11.2987C6.67481 11.28 6.98156 11.4715 7.27631 11.4885C7.87431 11.559 8.47631 11.39 8.99181 11.696C9.36231 11.921 9.48006 12.4775 9.90231 12.6885C10.6376 13.0472 11.4558 12.9557 12.4601 13.518C12.8101 13.912 13.4481 14.4147 13.9388 14.4147C13.9715 14.4159 14.0034 14.4042 14.0276 14.3822C14.0518 14.3602 14.0664 14.3296 14.0684 14.2969C14.0703 14.2643 14.0594 14.2321 14.0379 14.2074C14.0165 14.1827 13.9862 14.1674 13.9536 14.1647C13.1418 14.0665 12.3743 13.1537 11.9898 12.4317C10.1971 9.06947 12.7933 6.01997 15.1071 6.01097C13.3763 6.52672 12.2916 8.35272 13.1803 11.0127C14.1591 13.448 17.8271 13.8085 19.8266 11.3547C19.7632 12.0918 19.4157 12.7754 18.8576 13.261C18.8328 13.2828 18.8177 13.3136 18.8156 13.3466C18.8134 13.3796 18.8244 13.412 18.8462 13.4369C18.8679 13.4618 18.8986 13.4771 18.9316 13.4794C18.9645 13.4817 18.9971 13.4708 19.0221 13.4492C19.3423 13.1745 19.602 12.8364 19.7849 12.4561C19.9677 12.0759 20.0697 11.6619 20.0843 11.2402C20.4223 9.99422 20.9016 9.99022 21.1171 9.41722C21.4528 8.51572 21.1481 7.23547 22.0976 6.98597C22.3062 6.92979 22.5241 6.91633 22.738 6.9464C22.952 6.97647 23.1577 7.04945 23.3428 7.16097C24.4988 7.83847 23.4001 8.82847 24.5021 10.2275C25.0248 10.891 25.1431 11.2327 24.7918 12.322C24.2091 14.1287 25.3216 14.422 24.8548 15.6097C24.2141 14.8674 23.4668 14.2242 22.6373 13.7012C22.5106 13.6087 22.4186 13.5247 22.3311 13.6122C22.0211 13.9232 23.9283 14.334 25.4561 16.882C23.6411 17.664 22.4088 19.25 22.9558 19.25C23.1351 19.25 23.0086 19.0767 23.2631 18.8162C24.4631 17.2572 26.9131 16.1925 29.1308 16.903C29.9376 17.1612 30.2106 17.1937 30.7748 16.8392C30.9577 16.6922 31.1854 16.6123 31.4201 16.613C32.4913 16.7737 32.8373 18.1785 33.3763 16.7207C33.5428 16.2707 34.2846 15.1087 34.8201 15.1087C35.0028 15.1087 35.1673 15.2487 35.3093 15.5255C35.9991 16.8582 35.0561 18.778 34.4343 20.0487C34.1093 20.7112 33.8536 21.4142 33.3961 21.6035C33.1538 21.713 32.8811 21.5842 32.5923 21.448C31.9571 21.148 31.6776 21.0575 30.6638 21.768C30.0138 22.2232 29.7811 22.3545 28.5928 22.368C26.4618 22.3902 26.9728 23.07 25.5428 23.5527C23.8488 23.958 23.2136 23.0875 23.0693 23.3965C23.0553 23.4266 23.0539 23.461 23.0653 23.4922C23.0767 23.5233 23.1 23.5487 23.1301 23.5627C23.9533 23.9393 24.8854 24.0036 25.7526 23.7437C25.1776 24.8955 24.6316 26.0315 23.3886 26.446C21.6591 27.0225 21.1953 25.8895 20.1066 27.5632C19.8601 27.9425 19.6271 28.3007 19.1566 28.4342C18.2476 28.6412 17.7791 28.026 17.3588 28.179C16.8788 28.354 17.4971 29.5655 17.4338 30.7277C17.4178 30.936 17.3631 31.3112 17.1661 31.2422C16.4628 31.0025 15.9283 29.656 15.6103 29.0197C15.1971 28.1932 13.8016 25.8907 15.1678 25.6852C15.2873 25.6707 15.5853 25.728 15.7103 25.5027C15.9208 25.1392 15.8303 24.6777 15.9153 24.2875C16.0691 23.5215 16.9486 23.0785 17.7801 22.9677C19.0708 22.7955 19.2668 23.074 19.2928 22.84C19.2946 22.8237 19.2932 22.8071 19.2886 22.7914C19.284 22.7756 19.2764 22.7609 19.2661 22.7481C19.2559 22.7353 19.2432 22.7246 19.2288 22.7167C19.2144 22.7088 19.1986 22.7038 19.1823 22.702C18.7232 22.6561 18.2605 22.6601 17.8023 22.714C17.0643 22.356 16.5938 21.1117 16.6383 20.9787C16.7158 20.7455 16.0923 20.6255 16.5603 21.5587C16.7363 22.0368 17.0375 22.4588 17.4323 22.7807C16.3351 23.0345 15.7793 23.6922 15.6706 24.2365C15.5838 24.6365 15.6636 25.0847 15.4931 25.3795C15.4638 25.4322 15.3681 25.432 15.2681 25.432C15.0575 25.4138 14.8478 25.4761 14.6812 25.6062C14.5146 25.7364 14.4035 25.9247 14.3701 26.1335C14.2553 26.9935 14.7626 27.947 15.1701 28.7137C15.6048 29.5342 16.3673 31.5037 17.2241 31.5037C18.2298 31.5037 17.2511 28.485 17.4461 28.414C17.7136 28.3155 18.2391 28.8995 19.2211 28.6765C19.7886 28.5157 20.0583 28.1015 20.3193 27.6997C21.2638 26.2467 21.6903 27.2312 23.4678 26.684C24.9121 26.2025 25.4641 24.8402 26.1251 23.5817C26.6606 23.2992 27.0671 22.8002 27.6068 22.6892C28.4111 22.5317 29.1846 22.7305 29.9961 22.442C30.6388 22.217 31.1811 21.5587 31.8051 21.4787C32.3113 21.417 32.8996 22.1037 33.4993 21.8337C34.0468 21.607 34.3101 20.8742 34.5506 20.388C35.2801 18.902 36.2968 16.8887 35.5313 15.41ZM5.02656 13.1412C4.20431 13.0877 3.51606 12.9712 2.65431 13.1125C1.97281 13.2825 1.85256 13.0875 2.64681 12.739C2.82181 12.6622 3.14681 12.562 3.03106 12.3857C2.96806 12.291 2.83106 12.2945 2.64431 12.3107C2.25856 12.3457 1.86931 12.3142 1.49431 12.2177C1.58106 12.0205 2.24431 11.9032 2.46056 11.849C2.65656 11.824 3.03556 11.8915 3.03556 11.6772C3.03556 11.3522 1.79006 11.4322 1.49956 11.1772C1.53956 11.1297 1.71356 11.044 2.45431 11.056C2.75431 11.061 3.29531 11.2477 3.29531 10.9845C3.29531 10.7455 2.23206 10.5972 1.92031 10.346C2.04256 10.2392 2.41006 10.1632 3.49531 10.5422C3.59881 10.594 4.07881 10.816 4.18106 10.7377C4.44531 10.5357 3.56806 10.195 3.41581 9.69172C4.14606 9.66972 5.52081 11.1865 5.70831 11.3355C5.47344 11.5711 5.29123 11.8539 5.17372 12.1652C5.0562 12.4765 5.00604 12.8091 5.02656 13.1412ZM23.5571 7.00122C23.3573 6.86394 23.1321 6.76819 22.8946 6.71967C22.6572 6.67114 22.4124 6.67082 22.1748 6.71872C21.9018 6.14372 22.2136 4.13572 22.6163 3.87372C22.6117 4.17074 22.568 4.46587 22.4863 4.75147C22.4503 4.94122 22.2628 5.23997 22.5061 5.23997C22.6741 5.23997 22.7968 4.87372 23.0521 4.52297C23.7521 3.56322 24.1003 3.29572 24.2738 3.26997C24.0206 3.88547 23.0786 4.67422 23.3848 4.82847C23.4871 4.87997 23.5536 4.81372 23.7996 4.56422C24.8543 3.49647 25.5281 3.31422 25.1291 3.71797C25.1236 3.72422 24.3641 4.46422 24.1961 4.65897C23.9903 4.89722 24.1343 5.04547 24.3393 4.94022C25.0143 4.59522 25.6463 4.07022 25.7256 4.21097C25.8096 4.36097 24.1458 5.10622 24.4573 5.45022C24.6723 5.68747 26.6223 4.74372 25.1188 5.77647C24.564 6.13913 24.0415 6.54889 23.5571 7.00122Z" fill="#414141"/>
<path d="M16.708 7.83281H17.262V7.26156H16.708V6.69031H16.1367V7.26156H16.708V7.83281Z" fill="white"/>
<path d="M16.1357 7.26147H15.5645V7.83272H16.1357V7.26147Z" fill="white"/>
<path d="M35.1444 46.1772C40.8139 46.1772 45.4099 41.5812 45.4099 35.9117C45.4099 30.2422 40.8139 25.6462 35.1444 25.6462C29.4749 25.6462 24.8789 30.2422 24.8789 35.9117C24.8789 41.5812 29.4749 46.1772 35.1444 46.1772Z" fill="#016DAB"/>
<path d="M28.785 31.2379C27.5005 30.6936 26.1187 33.6564 27.4297 34.2677C28.7927 34.8129 30.044 31.7714 28.785 31.2379ZM28.9587 32.0457C29.0615 32.7907 28.5265 33.7354 27.9462 33.9391C27.4292 34.1686 26.9462 33.4937 27.4212 32.4124C27.9055 31.3837 28.8297 31.1117 28.9587 32.0457Z" fill="white"/>
<path d="M42.4188 32.3627C42.1938 31.3319 40.5636 30.2492 39.8518 30.9942C39.3638 31.4817 39.7768 32.3997 40.3203 32.9192C41.3323 33.8869 42.7128 33.7062 42.4188 32.3627ZM40.0658 31.2172C40.3813 30.8489 41.1588 31.2139 41.5501 31.5867C41.9226 31.9367 42.3576 32.7294 42.0156 33.0714C41.7463 33.4307 40.9793 33.1134 40.5278 32.6894C40.1473 32.3272 39.7343 31.6142 40.0658 31.2172Z" fill="white"/>
<path d="M34.7567 40.4126C34.0764 40.1341 33.0677 40.0956 32.8067 40.7476C32.4784 41.5411 33.6329 42.5823 34.8149 42.5823C36.3377 42.5823 36.1662 40.9888 34.7567 40.4126ZM34.6457 40.6716C35.1322 40.8906 35.7797 41.4216 35.5604 41.9051C35.3517 42.3636 34.5312 42.2751 34.0487 42.0578C32.5152 41.3846 32.9049 40.0198 34.6457 40.6716Z" fill="white"/>
<path d="M29.1806 35.4706C28.9961 35.2071 28.8013 34.8281 28.5656 34.4906C28.4431 34.3686 28.1576 34.4656 28.3456 34.7566C28.9746 35.7339 28.9096 35.7271 29.0326 35.7271C29.0623 35.7265 29.0915 35.7182 29.1171 35.7031C29.1427 35.6879 29.164 35.6664 29.1789 35.6406C29.1938 35.6148 29.2018 35.5856 29.2021 35.5558C29.2023 35.526 29.1949 35.4967 29.1806 35.4706Z" fill="white"/>
<path d="M30.6884 33.9722C29.5579 33.4537 29.5427 33.3972 29.4164 33.5352C29.1664 33.8102 30.2354 34.1807 30.5719 34.2702C30.7364 34.3154 30.8979 34.0469 30.6884 33.9722Z" fill="white"/>
<path d="M31.4233 32.1499L30.1453 32.1146C29.8833 32.0976 29.6071 32.6589 31.4221 32.4896C31.6188 32.4896 31.6083 32.1499 31.4233 32.1499Z" fill="white"/>
<path d="M39.2261 32.7554C38.1061 32.8374 37.9961 32.7844 37.9961 32.9862C37.9961 33.1789 38.1663 33.1489 38.4866 33.1477C38.5866 33.1477 39.0011 33.1147 39.2308 33.0784C39.4161 33.0784 39.4408 32.7397 39.2261 32.7554Z" fill="white"/>
<path d="M40.4073 33.468C39.5365 34.2827 39.4433 34.274 39.526 34.4392C39.5408 34.462 39.561 34.4807 39.5847 34.4938C39.6085 34.5069 39.6351 34.5139 39.6623 34.5142C39.8345 34.5142 40.467 33.884 40.633 33.6957C40.6598 33.6651 40.6739 33.6255 40.6726 33.5849C40.6714 33.5443 40.6548 33.5056 40.6261 33.4768C40.5975 33.4479 40.559 33.431 40.5184 33.4293C40.4778 33.4277 40.4381 33.4415 40.4073 33.468Z" fill="white"/>
<path d="M41.4587 34.0544C41.1212 33.9679 41.1292 34.9772 41.1809 35.3579C41.1803 35.3793 41.1841 35.4006 41.1919 35.4205C41.1998 35.4404 41.2116 35.4585 41.2267 35.4737C41.2418 35.4888 41.2599 35.5007 41.2798 35.5085C41.2997 35.5164 41.321 35.5201 41.3424 35.5194C41.5424 35.5194 41.4987 35.4319 41.5907 34.1982C41.5901 34.1622 41.5763 34.1277 41.552 34.1012C41.5276 34.0747 41.4945 34.0581 41.4587 34.0544Z" fill="white"/>
<path d="M33.1571 42.5251C33.0963 42.5001 33.1643 42.4646 31.9186 42.8514C31.8785 42.8625 31.8441 42.8885 31.8225 42.924C31.8009 42.9596 31.7937 43.0021 31.8024 43.0428C31.8111 43.0835 31.835 43.1194 31.8692 43.143C31.9035 43.1667 31.9454 43.1764 31.9866 43.1701C32.2733 43.1326 33.1536 42.9269 33.2478 42.7579C33.2581 42.7368 33.2639 42.7138 33.2649 42.6904C33.2658 42.6669 33.2619 42.6435 33.2534 42.6217C33.2449 42.5998 33.2319 42.5799 33.2154 42.5633C33.1988 42.5467 33.1789 42.5337 33.1571 42.5251Z" fill="white"/>
<path d="M34.0213 42.8028C33.6488 43.5415 33.5713 43.6015 33.7066 43.7375C33.7226 43.7536 33.7425 43.7654 33.7643 43.7717C33.7861 43.7781 33.8092 43.7788 33.8314 43.7738C33.8536 43.7688 33.8741 43.7582 33.8911 43.7432C33.9081 43.7281 33.921 43.7089 33.9286 43.6875C34.0653 43.4509 34.1858 43.2052 34.2893 42.9523C34.4628 42.7913 34.1213 42.6043 34.0213 42.8028Z" fill="white"/>
<path d="M40.597 13.2167C40.3578 13.6417 38.3253 17.4059 38.8138 17.4059C39.011 17.4059 38.7583 16.7889 40.7528 13.3204C40.786 13.2209 40.7003 13.1132 40.597 13.2167Z" fill="#87E4FF"/>
<path d="M43.35 13.2857C41.8945 14.7551 40.6056 16.3807 39.5068 18.1329C39.4967 18.1551 39.4953 18.1803 39.5027 18.2035C39.5102 18.2268 39.526 18.2464 39.5471 18.2587C39.5612 18.2667 39.5771 18.2711 39.5933 18.2714C39.8066 18.2714 39.9345 17.2542 43.4885 13.4242C43.5348 13.2829 43.4135 13.2187 43.35 13.2857Z" fill="#87E4FF"/>
<path d="M32.7201 10.2909L31.8373 10.5851L31.4046 9.07915C31.3643 8.9589 31.2066 9.04715 31.2486 9.13115L31.6813 10.6371L30.7813 10.9314C30.762 10.9372 30.7456 10.9501 30.7355 10.9675C30.7253 10.9849 30.7221 11.0055 30.7266 11.0251C30.7309 11.0448 30.7424 11.0622 30.759 11.0737C30.7756 11.0852 30.7959 11.09 30.8158 11.0871C30.8658 11.0871 30.7658 11.1154 31.7333 10.7929C32.0013 11.7216 31.9908 11.7624 32.0796 11.7624C32.2126 11.7624 32.1591 11.6939 31.8891 10.7584L32.7891 10.4641C32.9176 10.4214 32.8023 10.2499 32.7201 10.2909Z" fill="#87E4FF"/>
</svg>
