<svg width="70" height="70" viewBox="0 0 70 70" fill="none" xmlns="http://www.w3.org/2000/svg">
<rect width="70" height="70" rx="10" fill="#E7F8FF"/>
<path d="M47.5328 23.5834C46.7018 21.9634 45.3383 24.1588 44.9777 24.9334C44.8913 25.1188 44.7284 25.6813 44.4584 25.7227C44.2505 25.7434 44.0015 25.4527 43.856 25.3279C43.5459 25.0535 43.1639 24.8734 42.755 24.8086C42.0902 24.7255 41.7578 25.3696 41.1554 25.3903C39.9203 25.4329 39.2354 24.2074 35.7554 25.3696C35.6849 25.2052 35.7983 25.3549 34.8038 23.9296C35.5016 22.8175 34.8074 22.2469 34.6676 21.1297C34.5638 20.2156 35.2493 19.3432 35.1245 18.3667C34.9997 17.4529 34.2497 17.0596 34.0016 16.3096C33.6935 15.3271 34.2068 14.3449 33.3227 13.6276C35.0909 11.9443 35.996 11.689 35.996 11.3032C35.996 10.9402 34.4795 11.5204 34.4795 11.3863C34.5626 11.0539 35.4974 10.5763 35.7674 10.3474C35.8088 10.306 36.2243 9.97356 36.0791 9.89046C35.6762 9.66036 34.0847 10.9243 34.0847 10.7836C34.0106 10.5982 35.8097 9.29436 35.4347 9.08046C34.8458 8.75916 33.2399 10.663 33.1496 10.6177C33.3914 10.1944 34.511 8.83746 34.2713 8.74806C33.5513 8.47806 32.0717 11.0953 32.0072 11.0953C32.0072 11.0653 32.5298 9.37866 32.1734 9.43326C31.841 9.47496 31.5917 10.1815 31.4462 10.9915C31.2692 11.7178 31.2902 12.4783 31.5086 13.1935C30.2204 13.5259 30.6152 15.1462 30.2204 16.2058C30.179 16.3237 30.2504 16.2301 28.8815 18.3109C26.7497 21.5596 21.0827 21.4048 20.6726 16.8943C20.174 13.6744 22.667 12.1372 24.308 12.3043C23.6859 12.1023 23.0221 12.0651 22.3813 12.1962C21.7406 12.3273 21.1447 12.6222 20.6519 13.0522C18.0551 15.2335 18.1421 17.9536 19.2602 20.0527C19.4314 20.3851 19.6297 20.7029 19.853 21.0028C18.9998 20.5399 17.7689 20.5828 16.9751 20.1775C16.5179 19.9489 16.3727 19.2841 15.8951 18.9934C15.2303 18.5986 14.4824 18.8065 13.7762 18.7234C13.4024 18.6196 13.049 18.3913 12.6962 18.412C11.876 18.4867 12.1907 18.871 11.9276 18.4327C11.8631 18.4975 10.4876 16.7266 9.28938 16.48C8.58318 16.3348 9.24768 17.0824 9.41388 17.2693C9.45558 17.311 9.95388 17.7265 9.95388 17.7472C9.75288 17.6923 7.60188 16.7317 7.17018 17.3527C6.96528 17.6452 8.83218 18.0337 8.83218 18.1627C8.81118 18.2251 8.12568 18.1003 8.08428 18.1003C7.83498 18.1003 6.77538 18.0379 6.67158 18.3703C6.55758 18.7693 8.45718 18.8029 8.52048 18.9934C8.52048 19.0555 7.98048 19.0348 7.93878 19.0555C7.62708 19.1389 6.79608 19.2634 6.67158 19.6165C6.55608 19.9249 7.80408 19.9252 8.12568 19.9075C8.18808 19.9075 8.47878 19.8658 8.49978 19.9282C8.54358 20.0161 7.28118 20.3299 7.35708 20.7592C7.40478 21.0292 8.04258 20.9044 8.20878 20.863C9.52368 20.6482 10.6436 20.956 11.2211 20.8837C11.3186 22.0537 12.1382 21.9742 12.5504 22.4416C12.9038 22.8571 12.9659 23.5012 13.2776 23.9581C14.0462 25.0798 15.272 24.5815 16.2476 25.1632C16.922 25.5676 17.1824 27.5848 19.9454 26.908C19.9826 27.4669 21.4433 29.6419 24.4376 28.768C24.6047 29.4313 25.0133 30.6472 25.0763 30.7732C25.7126 32.2906 26.4059 32.2561 26.4059 32.4142C24.8963 32.611 24.1466 33.4696 24.017 34.1176C23.2898 34.18 22.397 34.2631 21.6695 33.9931C21.4376 35.0344 18.8108 42.1882 18.3827 43.3351C17.0501 41.1274 14.9285 41.3992 13.9625 42.4051C13.6508 42.7375 13.4018 43.2982 12.9653 43.4647C12.4046 43.6723 11.4905 43.2568 10.8881 43.2982C6.78408 43.5829 5.05698 48.7936 8.06268 50.7982C8.43678 51.0475 9.43398 51.2551 9.64158 51.6916C9.84948 52.1485 9.26778 53.1247 9.16398 53.5816C8.22918 57.3874 10.9748 59.7016 13.1939 59.0242C13.5887 58.8994 14.6066 57.9442 14.9804 58.1725C15.4376 58.4425 15.749 59.0659 16.0814 59.4604C17.861 61.4806 19.9337 62.0059 21.7514 60.0214C22.0838 59.6683 22.3745 59.128 22.8314 58.9204C23.4131 58.6504 24.1607 58.7749 24.7634 58.7542C26.072 58.6918 27.443 58.2349 27.9002 56.8846C28.1792 56.0158 28.1198 55.0735 27.734 54.2464C27.5885 53.914 27.0068 53.3323 27.1106 52.9585C27.1937 52.5844 27.6716 52.252 27.8792 51.9613C30.2375 48.6451 26.5223 45.8185 24.0569 48.2845C23.9117 48.4297 23.7245 48.949 23.7245 48.7621C23.7205 48.0853 23.4541 47.4365 22.9814 46.9522C22.5087 46.4679 21.8665 46.1859 21.1901 46.1656C20.8511 46.1656 20.9201 46.2154 20.9201 45.9991C20.9201 43.9717 21.848 41.1391 22.8401 38.3644C23.117 38.9044 23.5184 39.5815 23.7047 39.9544C24.0995 40.723 24.7433 42.3844 25.6574 42.6967C26.0729 42.8419 26.156 42.2188 26.1767 41.9485C26.2517 40.564 25.5857 39.1666 25.9898 39.0196C26.3939 38.8726 27.02 39.6142 28.1294 39.3313C29.2388 39.0484 29.3135 37.7941 30.1859 37.2955C30.6014 37.0462 31.1417 37.1293 31.5779 37.15C34.2548 37.2493 35.1713 35.4142 36.266 33.3175C36.866 33.0676 37.46 32.3386 38.1839 32.1853C39.1394 31.9981 40.0949 32.2267 41.0297 31.8943C41.7983 31.6243 42.4217 30.8143 43.232 30.7309C43.9175 30.6481 44.603 31.4581 45.2261 31.1671C45.8285 30.8971 46.1402 30.0454 46.4102 29.5054C47.1173 27.8419 48.4262 25.3492 47.5328 23.5834Z" fill="white"/>
<path d="M23.851 24.3113C23.6017 23.6879 22.6876 22.5248 21.8359 22.13L21.919 22.1093C22.8745 21.7559 24.4741 23.1479 24.8689 23.8334C25.9075 25.6403 24.4327 25.724 23.851 24.3113Z" fill="white"/>
<path d="M32.4882 21.8828C29.6214 22.6307 27.9387 23.8127 27.2508 24.9134C26.7954 25.6427 30.2004 28.5503 30.45 28.4027C30.7629 28.2179 33.8361 25.2659 35.415 24.8927C35.5104 24.8453 34.5477 23.3957 32.4882 21.8828Z" fill="#7BD2FF"/>
<path d="M29.3768 17.3711C29.3558 17.4149 28.9403 18.1058 28.9316 18.1184C28.9415 18.3272 28.9622 18.5354 28.994 18.7418C28.994 18.83 31.3898 19.8113 32.1098 21.5657C32.3468 21.7358 32.9576 22.1867 32.9576 22.1867C32.1836 19.1816 29.3768 17.4938 29.3768 17.3711Z" fill="#7BD2FF"/>
<path d="M24.8129 30.2103C25.6829 28.323 25.8473 25.6638 24.7985 23.8743C24.4037 23.1888 22.8248 21.7971 21.8486 22.1502L21.7655 22.1709C22.6172 22.5657 23.531 23.7291 23.7806 24.3522C24.362 25.7646 24.2168 27.5097 23.7596 28.9845C23.54 28.9299 21.7928 29.4204 20.4566 27.9252C20.3339 27.8022 20.4233 27.8001 20.2283 27.8835C20.1036 28.7792 20.1036 29.6878 20.2283 30.5835C20.5715 33.444 20.4626 34.4574 23.9675 34.1565C24.1706 33.141 25.3406 32.5923 26.3639 32.4315C25.3991 31.989 24.8267 30.5472 24.8129 30.2103Z" fill="#7BD2FF"/>
<path d="M32.4877 24.0078L32.0722 25.3581L30.7012 25.5867L32.737 26.0853L32.4877 24.0078Z" fill="white"/>
<path d="M30.0303 23.1641L30.3627 24.9296L31.4844 24.7427L31.8375 23.6834L30.0303 23.1641Z" fill="white"/>
<path d="M19.2312 35.1718C19.8543 34.798 20.3322 34.1332 21.0591 33.967L21.2253 33.8425C20.6754 33.5674 20.5188 32.6806 20.436 32.0767C20.3733 31.6198 20.2905 31.1212 20.2491 30.6016C19.8372 30.6016 19.5138 31.093 19.1895 31.5157C17.3838 33.8707 17.9946 35.9137 19.2312 35.1718Z" fill="white"/>
<path d="M32.6447 12.305C32.8997 12.029 33.1766 11.7737 33.4724 11.5415C33.5036 11.5172 33.5432 11.5061 33.5826 11.5108C33.6219 11.5156 33.6578 11.5357 33.6824 11.5667C33.8351 11.7605 33.545 11.7719 32.8646 12.509C32.8373 12.5374 32.8001 12.5539 32.7607 12.555C32.7214 12.5562 32.6833 12.5418 32.6544 12.5151C32.6256 12.4883 32.6084 12.4513 32.6066 12.4121C32.6048 12.3728 32.6185 12.3343 32.6447 12.305Z" fill="#414141"/>
<path d="M9.51858 19.4571C9.67796 19.2908 9.89429 19.1909 10.1242 19.1774C10.3542 19.1638 10.5807 19.2377 10.7585 19.3842C10.7858 19.4124 10.8009 19.4503 10.8006 19.4897C10.8002 19.529 10.7845 19.5666 10.7566 19.5944C10.7288 19.6222 10.6912 19.638 10.6519 19.6384C10.6126 19.6387 10.5747 19.6236 10.5464 19.5963C10.4291 19.5091 10.2847 19.4664 10.1389 19.4758C9.99315 19.4853 9.85546 19.5463 9.75048 19.6479C9.73795 19.6631 9.72254 19.6757 9.70514 19.685C9.68774 19.6942 9.66868 19.7 9.64906 19.7019C9.62943 19.7038 9.60962 19.7018 9.59076 19.6961C9.5719 19.6903 9.55435 19.6809 9.53913 19.6684C9.5239 19.6559 9.51129 19.6405 9.50202 19.6231C9.49274 19.6057 9.48699 19.5866 9.48508 19.567C9.48317 19.5474 9.48515 19.5276 9.4909 19.5087C9.49664 19.4898 9.50605 19.4723 9.51858 19.4571Z" fill="#414141"/>
<path d="M15.8249 24.0016C15.7986 24.0016 15.7728 23.9947 15.75 23.9816C15.7272 23.9685 15.7082 23.9496 15.695 23.9268C15.6818 23.904 15.6749 23.8782 15.6748 23.8519C15.6748 23.8256 15.6816 23.7997 15.6947 23.7769C15.7325 23.6062 15.5504 21.8569 16.4984 20.7025C16.5237 20.6721 16.5599 20.653 16.5992 20.6491C16.6386 20.6453 16.6778 20.6572 16.7084 20.6821C16.9736 20.8999 16.2932 20.8984 16.0136 22.855C15.9677 23.1502 16.1234 24.0016 15.8249 24.0016Z" fill="#414141"/>
<path d="M19.633 25.4532C19.7377 25.0176 19.843 23.9886 20.4643 23.1999C20.4892 23.1693 20.525 23.1498 20.5641 23.1455C20.6032 23.1411 20.6425 23.1523 20.6734 23.1766C20.7043 23.2009 20.7245 23.2364 20.7295 23.2755C20.7345 23.3145 20.7239 23.3539 20.7001 23.3853C20.0737 24.1824 19.8373 25.9272 19.8601 25.9824C19.9942 26.2143 19.3747 26.5293 19.633 25.4532Z" fill="#414141"/>
<path d="M33.1491 16.8141C32.9772 16.8141 32.8449 16.407 31.3968 16.1622C31.3624 16.1572 31.3283 16.1504 31.2945 16.1418C31.1445 16.0917 31.1289 15.8118 31.4469 15.8664C32.0079 15.9612 33.5604 16.4064 33.2646 16.7601C33.2505 16.777 33.2329 16.7907 33.2129 16.8C33.1929 16.8093 33.1712 16.8141 33.1491 16.8141Z" fill="#414141"/>
<path d="M33.9192 20.6985C33.6315 20.6985 34.2744 20.6814 32.4987 20.0667C32.4628 20.0523 32.4338 20.0247 32.4178 19.9895C32.4018 19.9543 32.3999 19.9143 32.4127 19.8778C32.4255 19.8413 32.4519 19.8111 32.4863 19.7936C32.5208 19.7761 32.5607 19.7726 32.5977 19.7838C33.0015 19.923 34.3209 20.3382 34.029 20.6508C34.015 20.6658 33.998 20.6778 33.9791 20.686C33.9602 20.6942 33.9398 20.6985 33.9192 20.6985Z" fill="#414141"/>
<path d="M18.7285 35.4845C17.7211 35.4845 17.4151 33.5645 19.0504 31.4075C19.3204 31.052 19.8517 30.3074 20.2561 30.4418C20.2924 30.4555 20.322 30.4827 20.3387 30.5177C20.3554 30.5527 20.3579 30.5928 20.3456 30.6296C20.3333 30.6665 20.3073 30.6971 20.2729 30.7151C20.2386 30.7331 20.1986 30.7371 20.1613 30.7262C20.0443 30.6854 19.7443 30.9884 19.2886 31.5902C17.605 33.8135 18.0913 35.6852 19.1551 35.0465C19.7758 34.6742 20.2513 34.0232 21.0232 33.8249C21.0618 33.815 21.1027 33.8208 21.1369 33.8411C21.1712 33.8613 21.196 33.8944 21.2059 33.9329C21.2158 33.9715 21.21 34.0124 21.1897 34.0466C21.1695 34.0809 21.1365 34.1057 21.0979 34.1156C20.1916 34.3484 19.534 35.4845 18.7285 35.4845Z" fill="#414141"/>
<path d="M19.023 45.4453C19.6677 42.5146 20.3682 40.6354 21.4602 37.8403C21.651 37.0789 21.9369 37.2775 21.9369 37.438C21.9369 37.6957 20.3421 40.8457 19.3161 45.5095C19.3074 45.5483 19.2838 45.582 19.2503 45.6035C19.2169 45.6249 19.1764 45.6324 19.1376 45.6241C19.0987 45.6154 19.0648 45.5918 19.0431 45.5584C19.0218 45.5248 19.0145 45.4842 19.023 45.4453Z" fill="#414141"/>
<path d="M27.1889 52.9902C27.2603 52.6683 27.7031 52.3302 27.9323 52.0278C30.2327 48.9825 27.1118 46.215 24.7697 47.5071C24.3764 47.6994 24.033 47.9804 23.7665 48.3279C23.6641 47.67 23.3269 47.0714 22.8175 46.6426C22.308 46.2139 21.6606 45.984 20.9948 45.9954C21.0209 45.6684 20.8997 44.5554 22.1081 40.8354C22.0979 40.8654 22.874 38.4744 22.8845 38.4438C22.8908 38.4251 22.8933 38.4054 22.8919 38.3857C22.8905 38.366 22.8853 38.3468 22.8765 38.3292C22.8677 38.3116 22.8555 38.2959 22.8406 38.2829C22.8257 38.27 22.8084 38.2601 22.7897 38.2539C22.771 38.2477 22.7513 38.2452 22.7316 38.2465C22.712 38.2479 22.6928 38.2532 22.6752 38.262C22.6575 38.2708 22.6418 38.283 22.6289 38.2978C22.616 38.3127 22.6061 38.33 22.5998 38.3487C21.5888 41.4285 20.7137 43.7991 20.7011 46.0128C19.7006 46.1061 19.0034 46.5996 18.5465 48.3078C18.54 48.336 18.5419 48.3655 18.5518 48.3927C18.5617 48.4199 18.5793 48.4437 18.6025 48.4611C18.6256 48.4785 18.6533 48.4888 18.6822 48.4908C18.7111 48.4927 18.7399 48.4863 18.7652 48.4722C18.7991 48.4535 18.8245 48.4225 18.836 48.3855C19.316 46.5909 20.0285 46.2948 21.1217 46.2948C22.5251 46.2948 23.4878 47.5611 23.5061 48.7413C23.5012 48.782 23.5112 48.8232 23.5341 48.8572C23.557 48.8912 23.5914 48.9159 23.6309 48.9267C23.8514 48.9819 23.9435 48.5496 24.0947 48.3696C26.4383 46.0251 29.9927 48.8058 27.6929 51.8478C27.4724 52.1394 26.9903 52.5009 26.8955 52.9278C26.795 53.4051 27.3836 53.9778 27.53 54.3111C27.8983 55.1031 27.9553 56.0047 27.6896 56.8368C27.2276 58.2018 25.802 58.5516 24.6896 58.6047C24.1034 58.626 23.2982 58.4964 22.7009 58.7847C22.2008 59.0121 21.8993 59.5731 21.5735 59.9196C19.7789 61.8228 17.8625 61.3356 16.1261 59.3649C15.8021 58.98 15.4757 58.3332 14.9888 58.0449C14.4962 57.7449 13.4756 58.7685 13.0802 58.8813C10.8956 59.5032 8.35764 57.2082 9.24024 53.6166C9.34524 53.1756 9.97434 52.1682 9.72834 51.627C9.48444 51.1155 8.49294 50.9445 8.09724 50.6736C5.26524 48.7854 6.79194 43.77 10.8494 43.4487C11.4338 43.4094 12.3521 43.8342 12.9701 43.6056C13.4612 43.4184 13.7162 42.8355 14.0219 42.5097C15.0797 41.4066 17.0057 41.3838 18.1769 43.3743L17.2007 46.0095C17.1923 46.0322 17.1894 46.0566 17.1924 46.0806C17.1954 46.1046 17.2042 46.1276 17.218 46.1475C17.2318 46.1674 17.2502 46.1836 17.2716 46.1949C17.2931 46.2061 17.3169 46.212 17.3411 46.212C17.4839 46.212 17.447 46.2321 18.4997 43.4139C20.6363 37.6935 21.7499 34.2513 21.7499 34.221C21.7499 34.0836 21.5309 33.921 21.3776 34.3314C21.2249 34.713 21.4658 34.4514 18.3053 43.026C17.0366 41.0643 14.9888 41.0682 13.8053 42.3033C13.4906 42.639 13.2455 43.1799 12.8657 43.3233C12.3608 43.5102 11.453 43.1049 10.8284 43.1484C6.50844 43.4907 4.85274 48.8694 7.93044 50.9208C8.32494 51.1908 9.28764 51.396 9.45744 51.7524C9.62694 52.1256 9.04914 53.1258 8.94984 53.5449C7.98474 57.4695 10.8497 59.8263 13.1624 59.1684C13.5446 59.0598 14.5841 58.1484 14.8346 58.3008C15.257 58.5504 15.5621 59.1585 15.8993 59.5587C16.7462 60.5187 17.891 61.4187 19.1723 61.4187C21.2891 61.4187 22.1822 59.3487 22.8284 59.0544C23.3516 58.8027 24.1016 58.9242 24.7022 58.9044C26.4092 58.8231 27.5711 58.1229 27.9752 56.9292C28.2643 56.0258 28.2029 55.0468 27.8033 54.1866C27.6581 53.8545 27.1244 53.2962 27.1889 52.9902Z" fill="#414141"/>
<path d="M17.3995 55.7765C17.1088 55.2032 17.0269 55.07 16.0477 55.0742C15.543 55.1324 15.0351 54.9953 14.6281 54.6911C14.0614 54.2018 13.4149 52.7111 14.1514 52.1111C14.1823 52.0864 14.2216 52.0748 14.2609 52.0789C14.3002 52.083 14.3363 52.1024 14.3614 52.133C14.5345 52.3457 14.1277 52.3028 14.1187 52.8752C14.1558 53.4708 14.4049 54.0335 14.821 54.4613C15.1993 54.7748 15.6094 54.773 16.0462 54.7733C17.1736 54.7712 17.3362 54.9887 17.6662 55.64C17.884 56.069 18.1576 56.453 18.7525 56.3975C19.3981 56.3375 20.0995 55.709 20.5042 55.1891C20.529 55.1588 20.5647 55.1394 20.6036 55.1349C20.6426 55.1305 20.6817 55.1414 20.7127 55.1654C20.7436 55.1895 20.7639 55.2247 20.7692 55.2636C20.7745 55.3024 20.7643 55.3418 20.7409 55.3733C19.6825 56.7362 18.1906 57.3365 17.3995 55.7765Z" fill="#414141"/>
<path d="M39.0865 30.3157C39.0589 29.3657 39.1582 28.4162 39.3817 27.4924C39.3889 27.4636 39.4044 27.4376 39.4263 27.4177C39.4483 27.3978 39.4757 27.3848 39.505 27.3805C39.5344 27.3762 39.5643 27.3807 39.5911 27.3935C39.6179 27.4062 39.6402 27.4267 39.6553 27.4522C39.6758 27.4862 39.682 27.5268 39.6727 27.5653C39.1456 29.6734 39.6025 30.4543 39.2398 30.4624C39.2101 30.4632 39.1808 30.4551 39.1557 30.4391C39.1306 30.4232 39.1109 30.4 39.0991 30.3727C39.0912 30.3547 39.087 30.3354 39.0865 30.3157Z" fill="#414141"/>
<path d="M29.6604 36.031C28.7361 36.031 27.498 34.771 26.9076 33.9265C26.8257 33.8098 26.7552 33.709 26.8728 33.6211C27.0933 33.4555 27.1338 33.8911 27.8136 34.57C28.302 35.077 28.9038 35.6098 29.6838 35.7328C29.7212 35.7385 29.7551 35.7582 29.7785 35.7879C29.802 35.8175 29.8133 35.855 29.8101 35.8927C29.8073 35.9305 29.7903 35.9657 29.7625 35.9914C29.7347 36.0171 29.6982 36.0312 29.6604 36.031Z" fill="#414141"/>
<path d="M29.8837 23.1933C29.879 23.1682 29.8807 23.1422 29.8889 23.118C29.897 23.0937 29.9112 23.072 29.9301 23.0547C29.949 23.0375 29.972 23.0254 29.9969 23.0196C30.0218 23.0137 30.0478 23.0144 30.0724 23.0214C32.0287 23.5869 31.9288 23.535 31.9711 23.6151C32.0134 23.6952 32.0065 23.6556 31.6273 24.7917C31.5886 24.9078 31.6087 24.8757 30.388 25.0794C30.1834 25.1133 30.2224 24.9894 29.8837 23.1933ZM30.2233 23.3769L30.4837 24.7593L31.3714 24.6114L31.6465 23.7858L30.2233 23.3769Z" fill="#414141"/>
<path d="M32.7381 26.2366C32.7081 26.2366 32.8881 26.2771 30.6663 25.7335C30.6329 25.7251 30.6034 25.7055 30.5827 25.678C30.5621 25.6504 30.5515 25.6166 30.5528 25.5822C30.5542 25.5477 30.5673 25.5148 30.5901 25.489C30.6128 25.4631 30.6437 25.4458 30.6777 25.4401L31.9572 25.2268L32.3454 23.965C32.3556 23.9322 32.3767 23.9039 32.4052 23.8847C32.4337 23.8656 32.468 23.8569 32.5022 23.86C32.5364 23.8631 32.5685 23.8778 32.5931 23.9017C32.6178 23.9256 32.6335 23.9573 32.6376 23.9914C32.8746 25.9588 32.9781 26.2366 32.7381 26.2366ZM31.4481 25.6159L32.5644 25.8892L32.4252 24.7294C32.1393 25.6549 32.3655 25.4617 31.4469 25.6159H31.4481Z" fill="#414141"/>
<path d="M47.6374 23.4925C47.4511 23.1292 47.1826 22.8277 46.7761 22.8298C45.9832 22.834 45.0208 24.2893 44.77 24.9598C44.2564 26.3344 44.3089 24.8719 42.7402 24.637C42.0031 24.5695 41.6722 25.1992 41.1202 25.2181C40.1338 25.2529 38.9281 24.1339 35.9974 25.0837C35.6674 25.1908 35.8807 25.0045 35.0536 24.001C35.1853 23.6819 35.2518 23.3396 35.2491 22.9944C35.2464 22.6492 35.1746 22.308 35.038 21.991C34.7218 21.0343 34.7323 20.8171 35.0344 19.8805C35.4361 18.6349 35.4196 18.0832 34.6369 17.0905C34.174 16.5037 34.0369 16.273 34.033 15.2212C34.0306 14.6635 34.0282 14.0902 33.538 13.6192C34.8964 12.2341 36.1234 11.8792 36.1234 11.3479C36.1234 10.498 33.6907 11.9086 35.4334 10.7881C35.8072 10.5481 36.4966 10.0255 36.1105 9.8053C35.5957 9.5113 34.282 10.7386 35.0446 9.9952C35.3008 9.7459 35.8846 9.2212 35.4874 8.995C35.1415 8.7973 34.6057 9.1516 34.0723 9.607C34.273 9.3118 34.6399 8.77 34.3195 8.6512C33.7042 8.4229 32.7895 9.7462 32.3794 10.3072C32.4508 9.9223 32.5312 9.2701 32.1445 9.3307C31.3282 9.484 30.9895 12.3007 31.3126 13.1353C30.4747 13.4353 30.3709 14.2867 30.2707 15.1123C30.1291 16.2742 30.0412 16.3093 29.6509 16.7842C29.4205 17.0419 29.2237 17.3278 29.0653 17.635C28.5742 13.6786 23.6488 10.1599 20.5453 12.8743C17.9572 15.1387 17.788 18.2623 19.4953 20.6584C18.691 20.3284 17.6833 20.2873 17.0113 19.9594C16.6138 19.7608 16.447 19.0894 15.9403 18.7804C15.2299 18.3589 14.4667 18.5728 13.7536 18.4897C13.4209 18.4702 13.0744 18.232 12.6718 18.2617C11.8765 18.3217 12.3817 18.7255 11.5546 17.9077C9.37958 15.76 8.08358 16.0324 9.23828 17.3521C8.43248 17.0746 7.36298 16.7875 7.01588 17.2864C6.80078 17.5957 7.42478 17.8447 7.78178 17.9662C7.19768 17.9605 6.60578 18.0037 6.49928 18.3472C6.37118 18.757 7.28138 18.904 7.71278 18.9667C7.31318 19.0567 6.61688 19.1941 6.50318 19.582C6.32558 20.0554 7.38878 20.0896 7.89728 20.083C6.86978 20.5531 7.13918 21.0961 7.73948 21.0961C8.37818 21.0961 8.22848 20.8369 10.3924 21.0211C11.449 21.1111 10.8388 20.8957 11.2939 21.7288C11.5939 22.2136 12.121 22.2526 12.4084 22.5778C12.7348 22.9621 12.8035 23.6086 13.126 24.082C13.9408 25.2712 15.2056 24.7921 16.1431 25.3306C16.7683 25.7059 17.0665 27.718 19.7974 27.1288C19.9675 27.7642 21.1582 29.1625 23.0275 29.1625C23.266 29.1616 23.5042 29.1445 23.7403 29.1106C23.7789 29.1042 23.8135 29.083 23.8367 29.0514C23.8599 29.0199 23.8698 28.9805 23.8644 28.9417C23.859 28.903 23.8386 28.8679 23.8076 28.8439C23.7766 28.82 23.7375 28.8091 23.6986 28.8136C21.3286 29.146 20.1016 27.4468 20.0686 26.9371C20.0386 26.485 18.1699 27.7555 16.9348 25.8028C15.6784 23.8147 13.9552 25.6804 13.0678 23.2387C12.4273 21.4741 11.4952 22.3663 11.3431 20.8867C11.2465 19.9429 11.7139 18.6295 12.6985 18.559C13.0096 18.5365 13.3777 18.7663 13.7314 18.7867C14.449 18.8713 15.1714 18.6685 15.79 19.0357C16.2346 19.3057 16.3759 19.9735 16.8826 20.2267C17.7649 20.6572 18.7468 20.5474 19.9519 21.2221C20.3719 21.6949 21.1375 22.2982 21.7264 22.2982C21.7656 22.2996 21.8039 22.2856 21.8329 22.2592C21.862 22.2328 21.8795 22.1961 21.8818 22.1569C21.8842 22.1177 21.871 22.0791 21.8453 22.0495C21.8195 22.0198 21.7832 22.0014 21.7441 21.9982C20.77 21.8803 19.849 20.785 19.3876 19.9186C17.2363 15.8839 20.3518 12.2245 23.1283 12.2137C21.0514 12.8326 19.7497 15.0238 20.8162 18.2158C21.9907 21.1381 26.3923 21.5707 28.7917 18.6262C28.7157 19.5107 28.2987 20.331 27.6289 20.9137C27.5992 20.9399 27.581 20.9769 27.5785 21.0164C27.5759 21.056 27.5891 21.095 27.6152 21.1248C27.6413 21.1547 27.6782 21.173 27.7177 21.1758C27.7573 21.1785 27.7963 21.1655 27.8263 21.1396C28.2105 20.8099 28.5222 20.4042 28.7416 19.9479C28.961 19.4916 29.0834 18.9948 29.101 18.4888C29.5066 16.9936 30.0817 16.9888 30.3403 16.3012C30.7432 15.2194 30.3775 13.6831 31.5169 13.3837C31.7673 13.3163 32.0287 13.3001 32.2855 13.3362C32.5422 13.3723 32.7891 13.4599 33.0112 13.5937C34.3984 14.4067 33.0799 15.5947 34.4023 17.2735C35.0296 18.0697 35.1715 18.4798 34.75 19.7869C34.0507 21.955 35.3857 22.3069 34.8256 23.7322C34.0568 22.8414 33.16 22.0696 32.1646 21.442C32.0125 21.331 31.9021 21.2302 31.7971 21.3352C31.4251 21.7084 33.7138 22.2013 35.5471 25.2589C33.3691 26.1973 31.8904 28.1005 32.5468 28.1005C32.7619 28.1005 32.6101 27.8926 32.9155 27.58C34.3555 25.7092 37.2955 24.4315 39.9568 25.2841C40.9249 25.594 41.2525 25.633 41.9296 25.2076C42.149 25.0311 42.4223 24.9353 42.7039 24.9361C43.9894 25.129 44.4046 26.8147 45.0514 25.0654C45.2512 24.5254 46.1413 23.131 46.7839 23.131C47.0032 23.131 47.2006 23.299 47.371 23.6311C48.1987 25.2304 47.0671 27.5341 46.321 29.059C45.931 29.854 45.6241 30.6976 45.0751 30.9247C44.7844 31.0561 44.4571 30.9016 44.1106 30.7381C43.3483 30.3781 43.0129 30.2695 41.7964 31.1221C41.0164 31.6684 40.7371 31.8259 39.3112 31.8421C36.754 31.8688 37.3672 32.6845 35.6512 33.2638C33.6184 33.7501 32.8561 32.7055 32.683 33.0763C32.6662 33.1124 32.6645 33.1537 32.6782 33.1911C32.6918 33.2285 32.7198 33.259 32.7559 33.2758C33.7438 33.7277 34.8623 33.8049 35.9029 33.493C35.2129 34.8751 34.5577 36.2383 33.0661 36.7357C30.9907 37.4275 30.4342 36.0679 29.1277 38.0764C28.8319 38.5315 28.5523 38.9614 27.9877 39.1216C26.8969 39.37 26.3347 38.6317 25.8304 38.8153C25.2544 39.0253 25.9963 40.4791 25.9204 41.8738C25.9012 42.1237 25.8355 42.574 25.5991 42.4912C24.7552 42.2035 24.1138 40.5877 23.7322 39.8242C23.2363 38.8324 21.5617 36.0694 23.2012 35.8228C23.3446 35.8054 23.7022 35.8741 23.8522 35.6038C24.1048 35.1676 23.9962 34.6138 24.0982 34.1455C24.2827 33.2263 25.3381 32.6947 26.3359 32.5618C27.8848 32.3551 28.12 32.6893 28.1512 32.4085C28.1533 32.3889 28.1516 32.3691 28.1461 32.3502C28.1407 32.3313 28.1315 32.3136 28.1192 32.2982C28.1069 32.2829 28.0916 32.2701 28.0744 32.2606C28.0571 32.2511 28.0382 32.2451 28.0186 32.2429C27.4677 32.1879 26.9124 32.1927 26.3626 32.2573C25.477 31.8277 24.9124 30.3346 24.9658 30.175C25.0588 29.8951 24.3106 29.7511 24.8722 30.871C25.0834 31.4447 25.4448 31.9511 25.9186 32.3374C24.6019 32.6419 23.935 33.4312 23.8045 34.0843C23.7004 34.5643 23.7961 35.1022 23.5915 35.4559C23.5564 35.5192 23.4415 35.5189 23.3215 35.5189C23.0687 35.4971 22.8171 35.5719 22.6172 35.728C22.4173 35.8842 22.2839 36.1102 22.2439 36.3607C22.1062 37.3927 22.7149 38.5369 23.2039 39.457C23.7256 40.4416 24.6406 42.805 25.6687 42.805C26.8756 42.805 25.7011 39.1825 25.9351 39.0973C26.2561 38.9791 26.8867 39.6799 28.0651 39.4123C28.7461 39.2194 29.0698 38.7223 29.383 38.2402C30.5164 36.4966 31.0282 37.678 33.1612 37.0213C34.8943 36.4435 35.5567 34.8088 36.3499 33.2986C36.9925 32.9596 37.4803 32.3608 38.128 32.2276C39.0931 32.0386 40.0213 32.2771 40.9951 31.9309C41.7664 31.6609 42.4171 30.871 43.1659 30.775C43.7734 30.7009 44.4793 31.525 45.199 31.201C45.856 30.9289 46.1719 30.0496 46.4605 29.4661C47.3359 27.6829 48.556 25.267 47.6374 23.4925ZM11.0317 20.77C10.045 20.7058 9.21908 20.566 8.18498 20.7355C7.36718 20.9395 7.22288 20.7055 8.17598 20.2873C8.38598 20.1952 8.77598 20.0749 8.63708 19.8634C8.56148 19.7497 8.39708 19.7539 8.17298 19.7734C7.71008 19.8154 7.24298 19.7776 6.79298 19.6618C6.89708 19.4251 7.69298 19.2844 7.95248 19.2193C8.18768 19.1893 8.64248 19.2703 8.64248 19.0132C8.64248 18.6232 7.14788 18.7192 6.79928 18.4132C6.84728 18.3562 7.05608 18.2533 7.94498 18.2677C8.30498 18.2737 8.95418 18.4978 8.95418 18.1819C8.95418 17.8951 7.67828 17.7172 7.30418 17.4157C7.45088 17.2876 7.89188 17.1964 9.19418 17.6512C9.31838 17.7133 9.89438 17.9797 10.0171 17.8858C10.3342 17.6434 9.28148 17.2345 9.09878 16.6306C9.97508 16.6042 11.6248 18.4243 11.8498 18.6031C11.5679 18.8859 11.3493 19.2253 11.2083 19.5988C11.0672 19.9723 11.0071 20.3715 11.0317 20.77ZM33.2683 13.402C33.0286 13.2373 32.7583 13.1224 32.4733 13.0641C32.1884 13.0059 31.8947 13.0055 31.6096 13.063C31.282 12.373 31.6561 9.9634 32.1394 9.649C32.1339 10.0054 32.0814 10.3596 31.9834 10.7023C31.9402 10.93 31.7152 11.2885 32.0071 11.2885C32.2087 11.2885 32.356 10.849 32.6623 10.4281C33.5023 9.2764 33.9202 8.9554 34.1284 8.9245C33.8245 9.6631 32.6941 10.6096 33.0616 10.7947C33.1843 10.8565 33.2641 10.777 33.5593 10.4776C34.825 9.1963 35.6335 8.9776 35.1547 9.4621C35.1481 9.4696 34.2367 10.3576 34.0351 10.5913C33.7882 10.8772 33.961 11.0551 34.207 10.9288C35.017 10.5148 35.7754 9.8848 35.8705 10.0537C35.9713 10.2337 33.9748 11.128 34.3486 11.5408C34.6066 11.8255 36.9466 10.693 35.1424 11.9323C34.4766 12.3675 33.8496 12.8592 33.2683 13.402Z" fill="#414141"/>
<path d="M25.0478 14.4003H25.7126V13.7148H25.0478V13.0293H24.3623V13.7148H25.0478V14.4003Z" fill="white"/>
<path d="M24.3623 13.7148H23.6768V14.4003H24.3623V13.7148Z" fill="white"/>
<path d="M47.1721 60.4145C53.9755 60.4145 59.4907 54.8993 59.4907 48.0959C59.4907 41.2925 53.9755 35.7773 47.1721 35.7773C40.3687 35.7773 34.8535 41.2925 34.8535 48.0959C34.8535 54.8993 40.3687 60.4145 47.1721 60.4145Z" fill="#005BC3"/>
<path d="M39.5418 42.4879C38.0004 41.8348 36.3423 45.3901 37.9155 46.1236C39.5511 46.7779 41.0526 43.1281 39.5418 42.4879ZM39.7503 43.4572C39.8736 44.3512 39.2316 45.4849 38.5353 45.7294C37.9149 46.0048 37.3353 45.1948 37.9053 43.8973C38.4864 42.6628 39.5955 42.3364 39.7503 43.4572Z" fill="white"/>
<path d="M55.9014 43.8369C55.6314 42.6 53.6751 41.3007 52.821 42.1947C52.2354 42.7797 52.731 43.8813 53.3832 44.5047C54.5976 45.666 56.2542 45.4491 55.9014 43.8369ZM53.0778 42.4623C53.4564 42.0204 54.3894 42.4584 54.8589 42.9057C55.3059 43.3257 55.8279 44.277 55.4175 44.6874C55.0944 45.1185 54.174 44.7378 53.6322 44.229C53.1756 43.7943 52.68 42.9387 53.0778 42.4623Z" fill="white"/>
<path d="M46.7068 53.4982C45.8905 53.164 44.68 53.1178 44.3668 53.9002C43.9729 54.8524 45.3583 56.1019 46.7767 56.1019C48.604 56.1019 48.3982 54.1897 46.7068 53.4982ZM46.5736 53.809C47.1574 54.0718 47.9344 54.709 47.6713 55.2892C47.4208 55.8394 46.4362 55.7332 45.8572 55.4725C44.017 54.6646 44.4847 53.0269 46.5736 53.809Z" fill="white"/>
<path d="M40.0163 47.566C39.7949 47.2498 39.5612 46.795 39.2783 46.39C39.1313 46.2436 38.7887 46.36 39.0143 46.7092C39.7691 47.8819 39.6911 47.8738 39.8387 47.8738C39.8744 47.873 39.9093 47.8631 39.9401 47.8449C39.9709 47.8267 39.9964 47.8009 40.0143 47.7699C40.0322 47.739 40.0417 47.7039 40.0421 47.6682C40.0424 47.6325 40.0335 47.5973 40.0163 47.566Z" fill="white"/>
<path d="M41.8253 45.7678C40.4687 45.1456 40.4504 45.0778 40.2989 45.2434C39.9989 45.5734 41.2817 46.018 41.6855 46.1254C41.8829 46.1797 42.0767 45.8575 41.8253 45.7678Z" fill="white"/>
<path d="M42.7072 43.5818L41.1736 43.5395C40.8592 43.5191 40.5277 44.1926 42.7057 43.9895C42.9418 43.9895 42.9292 43.5818 42.7072 43.5818Z" fill="white"/>
<path d="M52.0697 44.3073C50.7257 44.4057 50.5938 44.3421 50.5938 44.5842C50.5938 44.8155 50.7981 44.7795 51.1824 44.778C51.3024 44.778 51.7998 44.7384 52.0755 44.6949C52.2978 44.6949 52.3274 44.2884 52.0697 44.3073Z" fill="white"/>
<path d="M53.4877 45.1637C52.4428 46.1414 52.331 46.1309 52.4303 46.3292C52.448 46.3565 52.4722 46.379 52.5007 46.3947C52.5292 46.4104 52.5612 46.4188 52.5938 46.4192C52.8005 46.4192 53.5594 45.6629 53.7586 45.437C53.7907 45.4003 53.8077 45.3528 53.8062 45.304C53.8047 45.2553 53.7847 45.2089 53.7504 45.1743C53.7161 45.1397 53.6699 45.1193 53.6212 45.1173C53.5724 45.1154 53.5248 45.132 53.4877 45.1637Z" fill="white"/>
<path d="M54.7481 45.8676C54.3431 45.7638 54.3527 46.9749 54.4148 47.4318C54.4141 47.4575 54.4186 47.483 54.428 47.5069C54.4374 47.5308 54.4516 47.5525 54.4697 47.5707C54.4878 47.5889 54.5095 47.6031 54.5334 47.6125C54.5573 47.622 54.5829 47.6264 54.6086 47.6256C54.8486 47.6256 54.7961 47.5206 54.9065 46.0401C54.9057 45.997 54.8892 45.9556 54.86 45.9238C54.8308 45.892 54.791 45.872 54.7481 45.8676Z" fill="white"/>
<path d="M44.7863 56.0325C44.7134 56.0025 44.795 55.9599 43.3001 56.424C43.2519 56.4373 43.2107 56.4685 43.1848 56.5111C43.1589 56.5538 43.1503 56.6048 43.1607 56.6537C43.1711 56.7025 43.1998 56.7455 43.2409 56.7739C43.2819 56.8023 43.3323 56.814 43.3817 56.8065C43.7258 56.7615 44.7821 56.5146 44.8952 56.3118C44.9075 56.2865 44.9145 56.2589 44.9156 56.2307C44.9168 56.2026 44.9121 56.1745 44.9019 56.1483C44.8916 56.122 44.8761 56.0982 44.8562 56.0783C44.8363 56.0583 44.8125 56.0427 44.7863 56.0325Z" fill="white"/>
<path d="M45.8242 56.3646C45.3772 57.2511 45.2842 57.3231 45.4465 57.4863C45.4658 57.5056 45.4896 57.5197 45.5158 57.5273C45.542 57.5349 45.5697 57.5358 45.5963 57.5298C45.6229 57.5238 45.6476 57.5112 45.668 57.4931C45.6883 57.475 45.7038 57.452 45.7129 57.4263C45.877 57.1423 46.0216 56.8475 46.1458 56.544C46.354 56.3508 45.9442 56.1264 45.8242 56.3646Z" fill="white"/>
<path d="M53.7159 20.863C53.4288 21.373 50.9898 25.8901 51.576 25.8901C51.8127 25.8901 51.5094 25.1497 53.9028 20.9875C53.9427 20.8681 53.8398 20.7388 53.7159 20.863Z" fill="#7BD2FF"/>
<path d="M57.0199 20.946C55.2732 22.7093 53.7266 24.66 52.408 26.7627C52.3959 26.7894 52.3942 26.8196 52.4031 26.8475C52.412 26.8753 52.431 26.8989 52.4563 26.9136C52.4732 26.9233 52.4923 26.9285 52.5118 26.9289C52.7677 26.9289 52.9213 25.7082 57.1861 21.1122C57.2416 20.9427 57.0961 20.8656 57.0199 20.946Z" fill="#7BD2FF"/>
<path d="M44.2637 17.3508L43.2044 17.7039L42.6851 15.8967C42.6368 15.7524 42.4475 15.8583 42.4979 15.9591L43.0172 17.7663L41.9372 18.1194C41.914 18.1263 41.8944 18.1418 41.8822 18.1627C41.87 18.1836 41.8662 18.2083 41.8715 18.2319C41.8766 18.2555 41.8905 18.2763 41.9104 18.2902C41.9303 18.304 41.9547 18.3097 41.9786 18.3063C42.0386 18.3063 41.9186 18.3402 43.0796 17.9532C43.4012 19.0677 43.3886 19.1166 43.4951 19.1166C43.6547 19.1166 43.5905 19.0344 43.2665 17.9118L44.3465 17.5587C44.5007 17.5074 44.3624 17.3016 44.2637 17.3508Z" fill="#7BD2FF"/>
</svg>
