<svg width="51" height="50" viewBox="0 0 51 50" fill="none" xmlns="http://www.w3.org/2000/svg">
<path fill-rule="evenodd" clip-rule="evenodd" d="M40.2938 15.4911C42.1217 14.3715 43.8948 13.5316 45.9928 13.8613C47.0364 14.0254 47.7911 14.3067 48.0207 15.3406C47.704 15.3944 46.464 15.4844 46.1455 15.4973L45.52 15.4102C45.5015 15.408 45.4828 15.412 45.4669 15.4216C45.451 15.4313 45.4388 15.446 45.4323 15.4634L45.2306 16.0567L41.4261 17.1102C40.8715 16.8475 40.8916 16.8476 40.8573 16.8629C40.8229 16.8781 40.8372 16.8561 40.6843 17.4772C40.5202 17.5111 39.7595 17.6631 39.1938 17.7827C38.6508 17.7102 38.7716 17.7378 38.6825 17.6963C38.9764 16.8449 39.5231 15.9628 40.2938 15.4911ZM32.7508 15.4507C32.8054 15.2192 32.8296 14.9815 32.8228 14.7437C32.8213 14.7328 32.8172 14.7224 32.811 14.7132C32.8047 14.7041 32.7965 14.6966 32.7869 14.6911C32.7406 14.6754 32.6942 14.6933 32.6436 14.7165C32.4732 14.7954 32.0944 15.0121 31.9812 15.0679L29.1098 14.2083C29.1225 14.1116 29.1522 13.8592 29.1521 13.7605C29.1524 13.7482 29.1499 13.7361 29.1448 13.725C29.1396 13.7139 29.1321 13.704 29.1226 13.6963C29.1131 13.6885 29.102 13.683 29.0901 13.6802C29.0782 13.6774 29.0658 13.6773 29.0539 13.6799C28.9806 13.6909 28.5026 13.8627 28.4312 13.8878C27.9049 13.7268 25.3562 12.9343 24.8625 12.6969C25.6248 11.9494 26.5641 11.4073 27.5926 11.1212C29.8295 10.4749 34.3386 12.008 36.1004 13.5045C37.3329 14.5517 38.5279 15.4651 38.8487 17.0887C38.7605 17.277 38.6828 17.4701 38.6161 17.667C38.4299 17.588 38.5476 17.6774 38.2996 17.3507C36.9046 15.5145 33.2286 12.8377 30.9397 12.746C30.9311 12.7457 30.9226 12.7487 30.9161 12.7544C30.9096 12.7601 30.9055 12.7681 30.9046 12.7767C30.8978 12.9023 31.7197 12.6298 34.1642 14.0914C35.5693 14.9281 37.3626 16.3187 38.3132 17.5483C37.3828 17.2163 36.5933 17.2351 35.2312 17.196C34.6643 16.8507 33.2818 15.8421 32.7508 15.4507ZM29.6911 18.8799C31.6944 17.4093 33.2324 17.2411 35.7329 17.324C36.508 17.3474 37.3795 17.3184 38.119 17.5653C38.3577 17.6351 38.5893 17.7274 38.8106 17.8408C38.8106 17.8408 38.8468 17.8531 38.8366 17.8632C38.7615 18.186 38.6023 18.4833 38.3754 18.725C38.0473 19.1038 37.665 19.432 37.241 19.6989C36.1167 20.4386 35.6583 20.7045 34.3356 21.0311C34.2292 20.968 33.8418 20.7017 33.7442 20.6326C33.7352 20.6265 33.7251 20.6225 33.7144 20.6209C33.7037 20.6193 33.6928 20.6201 33.6825 20.6233C33.6721 20.6264 33.6626 20.6319 33.6547 20.6392C33.6467 20.6465 33.6405 20.6555 33.6365 20.6655L33.2807 21.5206C32.4407 21.5693 30.7826 21.7213 30.0121 22.0472C29.9717 21.5062 30.0371 21.2412 29.9164 21.2002C29.84 21.1742 29.8359 21.1863 29.2751 22.0636C28.9228 22.1031 27.4507 22.2623 27.1004 22.197C27.1018 21.8564 28.2898 19.9 29.6911 18.8799ZM37.4305 21.0221C37.2622 20.8572 36.8998 20.9135 36.6792 20.9619C36.8082 20.8464 37.0095 20.6501 36.878 20.5224C36.7074 20.4118 36.5004 20.372 36.3009 20.4114C36.5948 20.2399 36.9037 20.0375 37.2902 19.7785C37.6127 19.5655 37.9127 19.3202 38.1853 19.0463C38.0724 19.5037 37.8678 20.3496 37.606 21.443C37.5026 21.4111 37.3933 21.4031 37.2864 21.4196C37.3796 21.3436 37.6008 21.1944 37.4305 21.0221ZM39.4755 29.6511C39.0434 29.5566 38.6062 29.4874 38.1661 29.4438C38.0392 29.4343 37.925 29.4336 37.8316 29.431C37.8231 29.4299 37.8144 29.4322 37.8076 29.4375C37.8008 29.4427 37.7963 29.4505 37.7952 29.459C37.7941 29.4676 37.7964 29.4762 37.8016 29.4831C37.8069 29.4899 37.8146 29.4944 37.8232 29.4955L38.017 29.5457C38.3633 29.6286 38.7152 29.6852 39.07 29.7152C39.2029 29.7223 39.3361 29.7226 39.469 29.7163C39.4359 30.0864 39.3958 30.464 39.3487 30.8488C39.036 30.6797 37.4917 29.8831 37.0872 29.6805C37.0969 29.6433 37.0946 29.604 37.0804 29.5683C37.1593 29.4917 37.229 29.4062 37.2882 29.3136C37.3356 29.4139 37.3936 29.5088 37.4612 29.5968C37.5387 29.6657 37.698 29.6392 37.7108 29.4102C37.6943 29.1209 37.6407 28.835 37.5513 28.5594C37.6086 28.4241 37.6792 28.2955 37.7445 28.1562C37.8721 27.8769 37.9092 27.5647 37.8508 27.2633C37.7924 26.9619 37.6413 26.6862 37.4187 26.4748C37.2072 26.3013 36.9585 26.1792 36.692 26.1178C36.8085 25.6167 36.9298 25.1015 37.045 24.5977C37.1267 24.6265 37.21 24.6503 37.2945 24.669C37.7179 24.7568 38.1491 24.8019 38.5815 24.8037C38.59 24.8048 38.5987 24.8025 38.6055 24.7972C38.6123 24.792 38.6168 24.7842 38.6179 24.7757C38.619 24.7671 38.6167 24.7585 38.6115 24.7517C38.6062 24.7448 38.5985 24.7404 38.5899 24.7392C38.0905 24.6136 37.5795 24.5399 37.065 24.5192C37.8608 21.0831 38.0514 20.0934 38.4186 18.7958C38.564 18.6215 38.6866 18.4295 38.7834 18.2242C38.9377 18.7814 39.0444 19.3506 39.1024 19.9257C39.1069 19.9587 39.1224 19.9594 39.2588 20.053C39.8011 23.0644 39.7696 26.5292 39.4741 29.6552L39.4755 29.6511ZM39.2082 19.8787C39.1409 19.2777 39.0149 18.6847 38.8318 18.1083C38.864 18.0308 38.887 17.9498 38.9004 17.8669C38.9007 17.8561 38.8982 17.8455 38.8932 17.8359C38.8882 17.8264 38.8809 17.8183 38.8719 17.8123C39.4995 17.9 41.127 18.1483 41.7133 18.4037C44.2983 19.5249 45.8784 20.8497 46.5252 23.5668C46.7323 24.4293 46.1487 25.6242 45.5982 26.1415C45.5451 26.1932 45.4849 26.237 45.4194 26.2714C45.2665 25.9951 44.5525 24.4061 44.4158 24.1218L44.5776 23.3624C44.5797 23.3505 44.5791 23.3383 44.576 23.3266C44.5729 23.3149 44.5673 23.3041 44.5595 23.2948C44.5518 23.2855 44.5421 23.2781 44.5311 23.273C44.5202 23.2678 44.5083 23.2652 44.4962 23.2651L43.8135 23.2933L41.9336 21.6557C41.9098 20.8084 41.9238 20.8334 41.8769 20.8062C41.8301 20.7791 41.8562 20.7813 41.1225 21.151L39.2082 19.8787Z" fill="#E02728"/>
<path d="M36.0706 15.4884C35.3781 14.1384 34.2419 15.9679 33.9414 16.6134C33.8694 16.7679 33.7336 17.2367 33.5086 17.2712C33.3354 17.2884 33.1279 17.0462 33.0066 16.9422C32.7482 16.7135 32.4299 16.5634 32.0891 16.5094C31.5351 16.4402 31.2581 16.9769 30.7561 16.9942C29.7269 17.0297 29.1561 16.0084 26.2561 16.9769C26.1974 16.8399 26.2919 16.9647 25.4631 15.7769C26.0446 14.8502 25.4661 14.3747 25.3496 13.4437C25.2631 12.6819 25.8344 11.9549 25.7304 11.1412C25.6264 10.3797 25.0014 10.0519 24.7946 9.42691C24.5379 8.60816 24.9656 7.78966 24.2289 7.19191C25.7024 5.78916 26.4566 5.57641 26.4566 5.25491C26.4566 4.95241 25.1929 5.43591 25.1929 5.32416C25.2621 5.04716 26.0411 4.64916 26.2661 4.45841C26.3006 4.42391 26.6469 4.14691 26.5259 4.07766C26.1901 3.88591 24.8639 4.93916 24.8639 4.82191C24.8021 4.66741 26.3014 3.58091 25.9889 3.40266C25.4981 3.13491 24.1599 4.72141 24.0846 4.68366C24.2861 4.33091 25.2191 3.20016 25.0194 3.12566C24.4194 2.90066 23.1864 5.08166 23.1326 5.08166C23.1326 5.05666 23.5681 3.65116 23.2711 3.69666C22.9941 3.73141 22.7864 4.32016 22.6651 4.99516C22.5176 5.60041 22.5351 6.23416 22.7171 6.83016C21.6436 7.10716 21.9726 8.45741 21.6436 9.34041C21.6091 9.43866 21.6686 9.36066 20.5279 11.0947C18.7514 13.8019 14.0289 13.6729 13.6871 9.91416C13.2716 7.23091 15.3491 5.94991 16.7166 6.08916C16.1982 5.9209 15.645 5.88987 15.1111 5.9991C14.5771 6.10833 14.0805 6.35409 13.6699 6.71241C11.5059 8.53016 11.5784 10.7969 12.5101 12.5462C12.6528 12.8232 12.818 13.088 13.0041 13.3379C12.2931 12.9522 11.2674 12.9879 10.6059 12.6502C10.2249 12.4597 10.1039 11.9057 9.70586 11.6634C9.15186 11.3344 8.52861 11.5077 7.94011 11.4384C7.62861 11.3519 7.33411 11.1617 7.04011 11.1789C6.35661 11.2412 6.61886 11.5614 6.39961 11.1962C6.34586 11.2502 5.19961 9.77441 4.20111 9.56891C3.61261 9.44791 4.16636 10.0709 4.30486 10.2267C4.33961 10.2614 4.75486 10.6077 4.75486 10.6249C4.58736 10.5792 2.79486 9.77866 2.43511 10.2962C2.26436 10.5399 3.82011 10.8637 3.82011 10.9712C3.80261 11.0232 3.23136 10.9192 3.19686 10.9192C2.98911 10.9192 2.10611 10.8672 2.01961 11.1442C1.92461 11.4767 3.50761 11.5047 3.56036 11.6634C3.56036 11.7152 3.11036 11.6979 3.07561 11.7152C2.81586 11.7847 2.12336 11.8884 2.01961 12.1827C1.92336 12.4397 2.96336 12.4399 3.23136 12.4252C3.28336 12.4252 3.52561 12.3904 3.54311 12.4424C3.57961 12.5157 2.52761 12.7772 2.59086 13.1349C2.63061 13.3599 3.16211 13.2559 3.30061 13.2214C4.39636 13.0424 5.32961 13.2989 5.81086 13.2387C5.89211 14.2137 6.57511 14.1474 6.91861 14.5369C7.21311 14.8832 7.26486 15.4199 7.52461 15.8007C8.16511 16.7354 9.18661 16.3202 9.99961 16.8049C10.5616 17.1419 10.7786 18.8229 13.0811 18.2589C13.1121 18.7247 14.3294 20.5372 16.8246 19.8089C16.9639 20.3617 17.3044 21.3749 17.3569 21.4799C17.8871 22.7444 18.4649 22.7157 18.4649 22.8474C17.2069 23.0114 16.5821 23.7269 16.4741 24.2669C15.8681 24.3189 15.1241 24.3882 14.5179 24.1632C14.3246 25.0309 12.1356 30.9924 11.7789 31.9482C10.6684 30.1084 8.90036 30.3349 8.09536 31.1732C7.83561 31.4502 7.62811 31.9174 7.26436 32.0562C6.79711 32.2292 6.03536 31.8829 5.53336 31.9174C2.11336 32.1547 0.67411 36.4969 3.17886 38.1674C3.49061 38.3752 4.32161 38.5482 4.49461 38.9119C4.66786 39.2927 4.18311 40.1062 4.09661 40.4869C3.31761 43.6584 5.60561 45.5869 7.45486 45.0224C7.78386 44.9184 8.63211 44.1224 8.94361 44.3127C9.32461 44.5377 9.58411 45.0572 9.86111 45.3859C11.3441 47.0694 13.0714 47.5072 14.5861 45.8534C14.8631 45.5592 15.1054 45.1089 15.4861 44.9359C15.9709 44.7109 16.5939 44.8147 17.0961 44.7974C18.1866 44.7454 19.3291 44.3647 19.7101 43.2394C19.9426 42.5154 19.8931 41.7302 19.5716 41.0409C19.4504 40.7639 18.9656 40.2792 19.0521 39.9677C19.1214 39.6559 19.5196 39.3789 19.6926 39.1367C21.6579 36.3732 18.5619 34.0177 16.5074 36.0727C16.3864 36.1937 16.2304 36.6264 16.2304 36.4707C16.2271 35.9067 16.0051 35.366 15.6111 34.9625C15.2172 34.5589 14.6821 34.3239 14.1184 34.3069C13.8359 34.3069 13.8934 34.3484 13.8934 34.1682C13.8934 32.4787 14.6666 30.1182 15.4934 27.8059C15.7241 28.2559 16.0586 28.8202 16.2139 29.1309C16.5429 29.7714 17.0794 31.1559 17.8411 31.4162C18.1874 31.5372 18.2566 31.0179 18.2739 30.7927C18.3364 29.6389 17.7814 28.4744 18.1181 28.3519C18.4549 28.2294 18.9766 28.8474 19.9011 28.6117C20.8256 28.3759 20.8879 27.3307 21.6149 26.9152C21.9611 26.7074 22.4114 26.7767 22.7749 26.7939C25.0056 26.8767 25.7694 25.3474 26.6816 23.6002C27.1816 23.3919 27.6766 22.7844 28.2799 22.6567C29.0761 22.5007 29.8724 22.6912 30.6514 22.4142C31.2919 22.1892 31.8114 21.5142 32.4866 21.4447C33.0579 21.3757 33.6291 22.0507 34.1484 21.8082C34.6504 21.5832 34.9101 20.8734 35.1351 20.4234C35.7244 19.0372 36.8151 16.9599 36.0706 15.4884Z" fill="white"/>
<path d="M16.3355 16.097C16.1278 15.5775 15.366 14.6082 14.6562 14.2792L14.7255 14.262C15.5218 13.9675 16.8548 15.1275 17.1838 15.6987C18.0493 17.2045 16.8203 17.2742 16.3355 16.097Z" fill="white"/>
<path d="M23.5322 14.0703C21.1432 14.6936 19.7409 15.6786 19.1677 16.5958C18.7882 17.2036 21.6257 19.6266 21.8337 19.5036C22.0944 19.3496 24.6554 16.8896 25.9712 16.5786C26.0507 16.5391 25.2484 15.3311 23.5322 14.0703Z" fill="#FCCAC2"/>
<path d="M20.9413 10.3125C20.9238 10.349 20.5776 10.9248 20.5703 10.9353C20.5786 11.1093 20.5958 11.2828 20.6223 11.4548C20.6223 11.5283 22.6188 12.346 23.2188 13.808C23.4163 13.9497 23.9253 14.3255 23.9253 14.3255C23.2803 11.8212 20.9413 10.4148 20.9413 10.3125Z" fill="#4D68A1"/>
<path d="M17.1367 21.0099C17.8617 19.4371 17.9987 17.2211 17.1247 15.7299C16.7957 15.1586 15.48 13.9989 14.6665 14.2931L14.5972 14.3104C15.307 14.6394 16.0685 15.6089 16.2765 16.1281C16.761 17.3051 16.64 18.7594 16.259 19.9884C16.076 19.9429 14.62 20.3516 13.5065 19.1056C13.4042 19.0031 13.4787 19.0014 13.3162 19.0709C13.2123 19.8173 13.2123 20.5745 13.3162 21.3209C13.6022 23.7046 13.5115 24.5491 16.4322 24.2984C16.6015 23.4521 17.5765 22.9949 18.4292 22.8609C17.6252 22.4921 17.1482 21.2906 17.1367 21.0099Z" fill="#4D68A1"/>
<path d="M23.5317 15.8438L23.1855 16.969L22.043 17.1595L23.7395 17.575L23.5317 15.8438Z" fill="white"/>
<path d="M21.4844 15.1406L21.7614 16.6119L22.6961 16.4561L22.9904 15.5734L21.4844 15.1406Z" fill="white"/>
<path d="M12.4847 25.1483C13.0039 24.8368 13.4022 24.2828 14.0079 24.1443L14.1464 24.0406C13.6882 23.8113 13.5577 23.0723 13.4887 22.5691C13.4364 22.1883 13.3674 21.7728 13.3329 21.3398C12.9897 21.3398 12.7202 21.7493 12.4499 22.1016C10.9452 24.0641 11.4542 25.7666 12.4847 25.1483Z" fill="white"/>
<path d="M23.6627 6.08851C23.8752 5.85851 24.106 5.64576 24.3525 5.45226C24.3785 5.43194 24.4115 5.42274 24.4443 5.42667C24.4771 5.43061 24.507 5.44736 24.5275 5.47327C24.6547 5.63477 24.413 5.64426 23.846 6.25852C23.8233 6.28214 23.7922 6.29591 23.7594 6.29685C23.7267 6.29779 23.6949 6.28583 23.6708 6.26354C23.6468 6.24125 23.6325 6.21042 23.631 6.17769C23.6295 6.14495 23.6409 6.11293 23.6627 6.08851Z" fill="#2C3135"/>
<path d="M4.38983 12.0508C4.52265 11.9122 4.70293 11.829 4.89454 11.8177C5.08615 11.8065 5.27494 11.868 5.42308 11.9901C5.44585 12.0136 5.45845 12.0452 5.45816 12.078C5.45788 12.1108 5.44473 12.1421 5.42156 12.1653C5.39838 12.1885 5.36703 12.2016 5.33425 12.2019C5.30148 12.2022 5.26991 12.1896 5.24633 12.1668C5.14864 12.0941 5.0283 12.0586 4.9068 12.0664C4.78531 12.0743 4.67057 12.1251 4.58308 12.2098C4.57264 12.2225 4.5598 12.233 4.5453 12.2407C4.5308 12.2485 4.51492 12.2533 4.49856 12.2548C4.48221 12.2564 4.4657 12.2548 4.44998 12.25C4.43426 12.2452 4.41964 12.2374 4.40695 12.2269C4.39427 12.2165 4.38376 12.2037 4.37603 12.1892C4.3683 12.1747 4.36351 12.1588 4.36192 12.1424C4.36033 12.1261 4.36197 12.1096 4.36676 12.0938C4.37155 12.0781 4.37939 12.0635 4.38983 12.0508Z" fill="#2C3135"/>
<path d="M9.64659 15.8373C9.62466 15.8373 9.60312 15.8315 9.58411 15.8206C9.56511 15.8097 9.54932 15.7939 9.53833 15.7749C9.52734 15.756 9.52153 15.7344 9.52148 15.7125C9.52144 15.6906 9.52717 15.669 9.53809 15.65C9.56959 15.5078 9.41784 14.05 10.2078 13.088C10.2289 13.0627 10.2591 13.0467 10.2918 13.0436C10.3246 13.0404 10.3573 13.0502 10.3828 13.071C10.6038 13.2525 10.0368 13.2513 9.80384 14.8818C9.76559 15.1278 9.89534 15.8373 9.64659 15.8373Z" fill="#2C3135"/>
<path d="M12.8187 17.0449C12.906 16.6819 12.9937 15.8245 13.5115 15.1672C13.5322 15.1418 13.562 15.1255 13.5946 15.1219C13.6272 15.1182 13.6599 15.1276 13.6857 15.1478C13.7115 15.1681 13.7282 15.1977 13.7324 15.2302C13.7366 15.2627 13.7278 15.2956 13.708 15.3217C13.186 15.986 12.989 17.4399 13.008 17.4859C13.1197 17.6792 12.6035 17.9417 12.8187 17.0449Z" fill="#2C3135"/>
<path d="M24.0846 9.84639C23.9413 9.84639 23.8311 9.50714 22.6243 9.30314C22.5956 9.29894 22.5672 9.29326 22.5391 9.28614C22.4141 9.24439 22.4011 9.01114 22.6661 9.05664C23.1336 9.13564 24.4273 9.50664 24.1808 9.80139C24.1691 9.8155 24.1543 9.82685 24.1377 9.83462C24.1211 9.8424 24.1029 9.84642 24.0846 9.84639Z" fill="#2C3135"/>
<path d="M24.7253 13.084C24.4856 13.084 25.0213 13.0698 23.5416 12.5575C23.5116 12.5456 23.4875 12.5225 23.4741 12.4932C23.4608 12.4639 23.4593 12.4305 23.4699 12.4001C23.4805 12.3697 23.5025 12.3446 23.5312 12.33C23.56 12.3154 23.5932 12.3124 23.6241 12.3218C23.9606 12.4378 25.0601 12.7838 24.8168 13.0443C24.8051 13.0568 24.7909 13.0668 24.7752 13.0737C24.7595 13.0805 24.7425 13.084 24.7253 13.084Z" fill="#2C3135"/>
<path d="M12.0648 25.407C11.2253 25.407 10.9703 23.807 12.333 22.0095C12.558 21.7133 13.0008 21.0928 13.3378 21.2048C13.368 21.2161 13.3927 21.2388 13.4066 21.268C13.4205 21.2972 13.4226 21.3306 13.4124 21.3613C13.4021 21.392 13.3804 21.4175 13.3518 21.4325C13.3231 21.4475 13.2898 21.4508 13.2588 21.4418C13.1613 21.4078 12.9113 21.6603 12.5315 22.1618C11.1285 24.0145 11.5338 25.5743 12.4203 25.042C12.9375 24.7318 13.3338 24.1893 13.977 24.024C14.0091 24.0158 14.0432 24.0206 14.0718 24.0375C14.1003 24.0544 14.121 24.0819 14.1293 24.114C14.1375 24.1461 14.1327 24.1802 14.1158 24.2088C14.0989 24.2373 14.0714 24.258 14.0393 24.2663C13.284 24.4603 12.736 25.407 12.0648 25.407Z" fill="#2C3135"/>
<path d="M12.3114 33.707C12.8487 31.2648 13.4324 29.6988 14.3424 27.3695C14.5014 26.735 14.7397 26.9005 14.7397 27.0343C14.7397 27.249 13.4107 29.874 12.5557 33.7605C12.5485 33.7928 12.5288 33.821 12.5009 33.8388C12.4731 33.8567 12.4393 33.8629 12.4069 33.856C12.3746 33.8487 12.3463 33.8291 12.3282 33.8013C12.3105 33.7733 12.3044 33.7394 12.3114 33.707Z" fill="#2C3135"/>
<path d="M19.1161 39.9931C19.1756 39.7249 19.5446 39.4431 19.7356 39.1911C21.6526 36.6534 19.0519 34.3471 17.1001 35.4239C16.7723 35.5842 16.4861 35.8183 16.2641 36.1079C16.1787 35.5596 15.8978 35.0608 15.4732 34.7035C15.0487 34.3462 14.5092 34.1546 13.9544 34.1641C13.9761 33.8916 13.8751 32.9641 14.8821 29.8641C14.8736 29.8891 15.5204 27.8966 15.5291 27.8711C15.5343 27.8556 15.5364 27.8391 15.5352 27.8227C15.5341 27.8063 15.5297 27.7903 15.5224 27.7756C15.5151 27.761 15.5049 27.7478 15.4925 27.7371C15.4801 27.7263 15.4657 27.7181 15.4501 27.7129C15.4345 27.7077 15.4181 27.7056 15.4017 27.7067C15.3853 27.7079 15.3693 27.7123 15.3546 27.7196C15.3399 27.7269 15.3268 27.7371 15.3161 27.7495C15.3053 27.7619 15.2971 27.7763 15.2919 27.7919C14.4494 30.3584 13.7201 32.3339 13.7096 34.1786C12.8759 34.2564 12.2949 34.6676 11.9141 36.0911C11.9087 36.1146 11.9102 36.1392 11.9185 36.1619C11.9268 36.1846 11.9414 36.2044 11.9607 36.2189C11.98 36.2334 12.0031 36.242 12.0272 36.2436C12.0512 36.2452 12.0753 36.2399 12.0964 36.2281C12.1246 36.2126 12.1458 36.1867 12.1554 36.1559C12.5554 34.6604 13.1491 34.4136 14.0601 34.4136C15.2296 34.4136 16.0319 35.4689 16.0471 36.4524C16.043 36.4863 16.0513 36.5206 16.0704 36.549C16.0895 36.5773 16.1181 36.5979 16.1511 36.6069C16.3349 36.6529 16.4116 36.2926 16.5376 36.1426C18.4906 34.1889 21.4526 36.5061 19.5361 39.0411C19.3524 39.2841 18.9506 39.5854 18.8716 39.9411C18.7879 40.3389 19.2784 40.8161 19.4004 41.0939C19.7073 41.7539 19.7547 42.5052 19.5334 43.1986C19.1484 44.3361 17.9604 44.6276 17.0334 44.6719C16.5449 44.6896 15.8739 44.5816 15.3761 44.8219C14.9594 45.0114 14.7081 45.4789 14.4366 45.7676C12.9411 47.3536 11.3441 46.9476 9.89711 45.3054C9.62711 44.9846 9.35511 44.4456 8.94936 44.2054C8.53886 43.9554 7.68836 44.8084 7.35886 44.9024C5.53836 45.4206 3.42336 43.5081 4.15886 40.5151C4.24636 40.1476 4.77061 39.3081 4.56561 38.8571C4.36236 38.4309 3.53611 38.2884 3.20636 38.0626C0.84636 36.4891 2.11861 32.3096 5.49986 32.0419C5.98686 32.0091 6.75211 32.3631 7.26711 32.1726C7.67636 32.0166 7.88886 31.5309 8.14361 31.2594C9.02511 30.3401 10.6301 30.3211 11.6061 31.9799L10.7926 34.1759C10.7855 34.1948 10.7832 34.2151 10.7857 34.2351C10.7882 34.2552 10.7955 34.2743 10.807 34.2909C10.8185 34.3074 10.8338 34.321 10.8517 34.3304C10.8696 34.3397 10.8894 34.3446 10.9096 34.3446C11.0286 34.3446 10.9979 34.3614 11.8751 32.0129C13.6556 27.2459 14.5836 24.3774 14.5836 24.3521C14.5836 24.2376 14.4011 24.1021 14.2734 24.4441C14.1461 24.7621 14.3469 24.5441 11.7131 31.6896C10.6559 30.0549 8.94936 30.0581 7.96311 31.0874C7.70086 31.3671 7.49661 31.8179 7.18011 31.9374C6.75936 32.0931 6.00286 31.7554 5.48236 31.7916C1.88236 32.0769 0.50261 36.5591 3.06736 38.2686C3.39611 38.4936 4.19836 38.6646 4.33986 38.9616C4.48111 39.2726 3.99961 40.1061 3.91686 40.4554C3.11261 43.7259 5.50011 45.6899 7.42736 45.1416C7.74586 45.0511 8.61211 44.2916 8.82086 44.4186C9.17286 44.6266 9.42711 45.1334 9.70811 45.4669C10.4139 46.2669 11.3679 47.0169 12.4356 47.0169C14.1996 47.0169 14.9439 45.2919 15.4824 45.0466C15.9184 44.8369 16.5434 44.9381 17.0439 44.9216C18.4664 44.8539 19.4346 44.2704 19.7714 43.2756C20.0122 42.5228 19.9611 41.707 19.6281 40.9901C19.5071 40.7134 19.0624 40.2481 19.1161 39.9931Z" fill="#2C3135"/>
<path d="M10.9584 42.3163C10.7162 41.8386 10.6479 41.7276 9.83191 41.7311C9.41128 41.7796 8.98803 41.6654 8.64891 41.4118C8.17666 41.0041 7.63791 39.7618 8.25166 39.2618C8.27737 39.2413 8.31015 39.2316 8.3429 39.2351C8.37566 39.2385 8.40575 39.2546 8.42666 39.2801C8.57091 39.4573 8.23191 39.4216 8.22441 39.8986C8.25529 40.3949 8.46291 40.8638 8.80966 41.2203C9.12491 41.4816 9.46666 41.4801 9.83066 41.4803C10.7702 41.4786 10.9057 41.6598 11.1807 42.2026C11.3622 42.5601 11.5902 42.8801 12.0859 42.8338C12.6239 42.7838 13.2084 42.2601 13.5457 41.8268C13.5664 41.8016 13.5961 41.7854 13.6285 41.7817C13.661 41.778 13.6936 41.7871 13.7194 41.8071C13.7452 41.8272 13.7621 41.8565 13.7665 41.8889C13.7709 41.9213 13.7624 41.9541 13.7429 41.9803C12.8609 43.1161 11.6177 43.6163 10.9584 42.3163Z" fill="#2C3135"/>
<path d="M29.0311 21.0997C29.0081 20.308 29.0908 19.5168 29.2771 18.7469C29.283 18.7229 29.296 18.7013 29.3143 18.6847C29.3326 18.668 29.3554 18.6573 29.3799 18.6537C29.4043 18.6501 29.4293 18.6538 29.4516 18.6645C29.4739 18.6751 29.4925 18.6922 29.5051 18.7134C29.5221 18.7417 29.5274 18.7756 29.5196 18.8077C29.0803 20.5644 29.4611 21.2152 29.1588 21.2219C29.1341 21.2226 29.1097 21.2159 29.0888 21.2025C29.0679 21.1892 29.0514 21.1699 29.0416 21.1472C29.035 21.1322 29.0315 21.1161 29.0311 21.0997Z" fill="#2C3135"/>
<path d="M21.1757 25.8618C20.4054 25.8618 19.3737 24.8118 18.8817 24.1081C18.8134 24.0108 18.7547 23.9268 18.8527 23.8536C19.0364 23.7156 19.0702 24.0786 19.6367 24.6443C20.0437 25.0668 20.5452 25.5108 21.1952 25.6133C21.2264 25.618 21.2546 25.6344 21.2741 25.6591C21.2937 25.6839 21.3031 25.7151 21.3004 25.7466C21.2981 25.778 21.2839 25.8074 21.2608 25.8288C21.2376 25.8501 21.2072 25.862 21.1757 25.8618Z" fill="#2C3135"/>
<path d="M36.1563 15.413C36.0011 15.1103 35.7773 14.859 35.4386 14.8608C34.7778 14.8643 33.9758 16.077 33.7668 16.6358C33.3388 17.7813 33.3826 16.5625 32.0753 16.3668C31.4611 16.3105 31.1853 16.8353 30.7253 16.851C29.9033 16.88 28.8986 15.9475 26.4563 16.739C26.1813 16.8283 26.3591 16.673 25.6698 15.8368C25.7796 15.5708 25.835 15.2856 25.8327 14.998C25.8305 14.7103 25.7707 14.426 25.6568 14.1618C25.3933 13.3645 25.4021 13.1835 25.6538 12.403C25.9886 11.365 25.9748 10.9053 25.3226 10.078C24.9368 9.58902 24.8226 9.39677 24.8193 8.52027C24.8173 8.05552 24.8153 7.57777 24.4068 7.18527C25.5388 6.03102 26.5613 5.73527 26.5613 5.29252C26.5613 4.58427 24.5341 5.75977 25.9863 4.82602C26.2978 4.62602 26.8723 4.19052 26.5506 4.00702C26.1216 3.76202 25.0268 4.78477 25.6623 4.16527C25.8758 3.95752 26.3623 3.52027 26.0313 3.33177C25.7431 3.16702 25.2966 3.46227 24.8521 3.84177C25.0193 3.59577 25.3251 3.14427 25.0581 3.04527C24.5453 2.85502 23.7831 3.95777 23.4413 4.42527C23.5008 4.10452 23.5678 3.56102 23.2456 3.61152C22.5653 3.73927 22.2831 6.08652 22.5523 6.78202C21.8541 7.03202 21.7676 7.74152 21.6841 8.42952C21.5661 9.39777 21.4928 9.42702 21.1676 9.82277C20.9756 10.0375 20.8116 10.2758 20.6796 10.5318C20.2703 7.23477 16.1658 4.30252 13.5796 6.56452C11.4228 8.45152 11.2818 11.0545 12.7046 13.0513C12.0343 12.7763 11.1946 12.742 10.6346 12.4688C10.3033 12.3033 10.1643 11.7438 9.74206 11.4863C9.15006 11.135 8.51406 11.3133 7.91981 11.244C7.64256 11.2278 7.35381 11.0293 7.01831 11.054C6.35556 11.104 6.77656 11.4405 6.08731 10.759C4.27481 8.96927 3.19481 9.19627 4.15706 10.296C3.48556 10.0648 2.59431 9.82552 2.30506 10.2413C2.12581 10.499 2.64581 10.7065 2.94331 10.8078C2.45656 10.803 1.96331 10.839 1.87456 11.1253C1.76781 11.4668 2.52631 11.5893 2.88581 11.6415C2.55281 11.7165 1.97256 11.831 1.87781 12.1543C1.72981 12.5488 2.61581 12.5773 3.03956 12.5718C2.18331 12.9635 2.40781 13.416 2.90806 13.416C3.44031 13.416 3.31556 13.2 5.11881 13.3535C5.99931 13.4285 5.49081 13.249 5.87006 13.9433C6.12006 14.3473 6.55931 14.3798 6.79881 14.6508C7.07081 14.971 7.12806 15.5098 7.39681 15.9043C8.07581 16.8953 9.12981 16.496 9.91106 16.9448C10.4321 17.2575 10.6806 18.9343 12.9563 18.4433C13.0981 18.9728 14.0903 20.138 15.6481 20.138C15.8468 20.1373 16.0453 20.123 16.2421 20.0948C16.2743 20.0895 16.3031 20.0718 16.3224 20.0455C16.3418 20.0192 16.35 19.9864 16.3455 19.9541C16.341 19.9217 16.324 19.8925 16.2981 19.8725C16.2723 19.8526 16.2397 19.8435 16.2073 19.8473C14.2323 20.1243 13.2098 18.7083 13.1823 18.2835C13.1573 17.9068 11.6001 18.9655 10.5708 17.3383C9.52381 15.6815 8.08781 17.2363 7.34831 15.2015C6.81456 13.731 6.03781 14.4745 5.91106 13.2415C5.83056 12.455 6.22006 11.3605 7.04056 11.3018C7.29981 11.283 7.60656 11.4745 7.90131 11.4915C8.49931 11.562 9.10131 11.393 9.61681 11.699C9.98731 11.924 10.1051 12.4805 10.5273 12.6915C11.2626 13.0503 12.0808 12.9588 13.0851 13.521C13.4351 13.915 14.0731 14.4178 14.5638 14.4178C14.5965 14.419 14.6284 14.4073 14.6526 14.3853C14.6768 14.3633 14.6914 14.3326 14.6934 14.3C14.6953 14.2673 14.6844 14.2352 14.6629 14.2105C14.6415 14.1858 14.6112 14.1704 14.5786 14.1678C13.7668 14.0695 12.9993 13.1568 12.6148 12.4348C10.8221 9.07252 13.4183 6.02302 15.7321 6.01402C14.0013 6.52977 12.9166 8.35577 13.8053 11.0158C14.7841 13.451 18.4521 13.8115 20.4516 11.3578C20.3882 12.0949 20.0407 12.7785 19.4826 13.264C19.4578 13.2859 19.4427 13.3167 19.4406 13.3496C19.4384 13.3826 19.4494 13.4151 19.4712 13.44C19.4929 13.4649 19.5236 13.4801 19.5566 13.4824C19.5895 13.4847 19.6221 13.4739 19.6471 13.4523C19.9673 13.1776 20.227 12.8394 20.4099 12.4592C20.5927 12.0789 20.6947 11.6649 20.7093 11.2433C21.0473 9.99727 21.5266 9.99327 21.7421 9.42027C22.0778 8.51877 21.7731 7.23852 22.7226 6.98902C22.9312 6.93284 23.1491 6.91938 23.363 6.94945C23.577 6.97952 23.7827 7.0525 23.9678 7.16402C25.1238 7.84152 24.0251 8.83152 25.1271 10.2305C25.6498 10.894 25.7681 11.2358 25.4168 12.325C24.8341 14.1318 25.9466 14.425 25.4798 15.6128C24.8391 14.8704 24.0918 14.2272 23.2623 13.7043C23.1356 13.6118 23.0436 13.5278 22.9561 13.6153C22.6461 13.9263 24.5533 14.337 26.0811 16.885C24.2661 17.667 23.0338 19.253 23.5808 19.253C23.7601 19.253 23.6336 19.0798 23.8881 18.8193C25.0881 17.2603 27.5381 16.1955 29.7558 16.906C30.5626 17.1643 30.8356 17.1968 31.3998 16.8423C31.5827 16.6952 31.8104 16.6153 32.0451 16.616C33.1163 16.7768 33.4623 18.1815 34.0013 16.7238C34.1678 16.2738 34.9096 15.1118 35.4451 15.1118C35.6278 15.1118 35.7923 15.2518 35.9343 15.5285C36.6241 16.8613 35.6811 18.781 35.0593 20.0518C34.7343 20.7143 34.4786 21.4173 34.0211 21.6065C33.7788 21.716 33.5061 21.5873 33.2173 21.451C32.5821 21.151 32.3026 21.0605 31.2888 21.771C30.6388 22.2263 30.4061 22.3575 29.2178 22.371C27.0868 22.3933 27.5978 23.073 26.1678 23.5558C24.4738 23.961 23.8386 23.0905 23.6943 23.3995C23.6803 23.4296 23.6789 23.464 23.6903 23.4952C23.7017 23.5264 23.725 23.5518 23.7551 23.5658C24.5783 23.9424 25.5104 24.0067 26.3776 23.7468C25.8026 24.8985 25.2566 26.0345 24.0136 26.449C22.2841 27.0255 21.8203 25.8925 20.7316 27.5663C20.4851 27.9455 20.2521 28.3038 19.7816 28.4373C18.8726 28.6443 18.4041 28.029 17.9838 28.182C17.5038 28.357 18.1221 29.5685 18.0588 30.7308C18.0428 30.939 17.9881 31.3143 17.7911 31.2453C17.0878 31.0055 16.5533 29.659 16.2353 29.0228C15.8221 28.1963 14.4266 25.8938 15.7928 25.6883C15.9123 25.6738 16.2103 25.731 16.3353 25.5058C16.5458 25.1423 16.4553 24.6808 16.5403 24.2905C16.6941 23.5245 17.5736 23.0815 18.4051 22.9708C19.6958 22.7985 19.8918 23.077 19.9178 22.843C19.9196 22.8267 19.9182 22.8102 19.9136 22.7944C19.909 22.7787 19.9014 22.764 19.8911 22.7511C19.8809 22.7383 19.8682 22.7277 19.8538 22.7197C19.8394 22.7118 19.8236 22.7068 19.8073 22.705C19.3482 22.6592 18.8855 22.6632 18.4273 22.717C17.6893 22.359 17.2188 21.1148 17.2633 20.9818C17.3408 20.7485 16.7173 20.6285 17.1853 21.5618C17.3613 22.0398 17.6625 22.4619 18.0573 22.7838C16.9601 23.0375 16.4043 23.6953 16.2956 24.2395C16.2088 24.6395 16.2886 25.0878 16.1181 25.3825C16.0888 25.4353 15.9931 25.435 15.8931 25.435C15.6825 25.4169 15.4728 25.4792 15.3062 25.6093C15.1396 25.7394 15.0285 25.9278 14.9951 26.1365C14.8803 26.9965 15.3876 27.95 15.7951 28.7168C16.2298 29.5373 16.9923 31.5068 17.8491 31.5068C18.8548 31.5068 17.8761 28.488 18.0711 28.417C18.3386 28.3185 18.8641 28.9025 19.8461 28.6795C20.4136 28.5188 20.6833 28.1045 20.9443 27.7028C21.8888 26.2498 22.3153 27.2343 24.0928 26.687C25.5371 26.2055 26.0891 24.8433 26.7501 23.5848C27.2856 23.3023 27.6921 22.8033 28.2318 22.6923C29.0361 22.5348 29.8096 22.7335 30.6211 22.445C31.2638 22.22 31.8061 21.5618 32.4301 21.4818C32.9363 21.42 33.5246 22.1068 34.1243 21.8368C34.6718 21.61 34.9351 20.8773 35.1756 20.391C35.9051 18.905 36.9218 16.8918 36.1563 15.413ZM5.65156 13.1443C4.82931 13.0908 4.14106 12.9743 3.27931 13.1155C2.59781 13.2855 2.47756 13.0905 3.27181 12.742C3.44681 12.6653 3.77181 12.565 3.65606 12.3888C3.59306 12.294 3.45606 12.2975 3.26931 12.3138C2.88356 12.3488 2.49431 12.3173 2.11931 12.2208C2.20606 12.0235 2.86931 11.9063 3.08556 11.852C3.28156 11.827 3.66056 11.8945 3.66056 11.6803C3.66056 11.3553 2.41506 11.4353 2.12456 11.1803C2.16456 11.1328 2.33856 11.047 3.07931 11.059C3.37931 11.064 3.92031 11.2508 3.92031 10.9875C3.92031 10.7485 2.85706 10.6003 2.54531 10.349C2.66756 10.2423 3.03506 10.1663 4.12031 10.5453C4.22381 10.597 4.70381 10.819 4.80606 10.7408C5.07031 10.5388 4.19306 10.198 4.04081 9.69477C4.77106 9.67277 6.14581 11.1895 6.33331 11.3385C6.09844 11.5742 5.91623 11.857 5.79872 12.1683C5.6812 12.4795 5.63104 12.8122 5.65156 13.1443ZM24.1821 7.00427C23.9823 6.86699 23.7571 6.77125 23.5196 6.72272C23.2822 6.67419 23.0374 6.67387 22.7998 6.72177C22.5268 6.14677 22.8386 4.13877 23.2413 3.87677C23.2367 4.1738 23.193 4.46892 23.1113 4.75452C23.0753 4.94427 22.8878 5.24302 23.1311 5.24302C23.2991 5.24302 23.4218 4.87677 23.6771 4.52602C24.3771 3.56627 24.7253 3.29877 24.8988 3.27302C24.6456 3.88852 23.7036 4.67727 24.0098 4.83152C24.1121 4.88302 24.1786 4.81677 24.4246 4.56727C25.4793 3.49952 26.1531 3.31727 25.7541 3.72102C25.7486 3.72727 24.9891 4.46727 24.8211 4.66202C24.6153 4.90027 24.7593 5.04852 24.9643 4.94327C25.6393 4.59827 26.2713 4.07327 26.3506 4.21402C26.4346 4.36402 24.7708 5.10927 25.0823 5.45327C25.2973 5.69052 27.2473 4.74677 25.7438 5.77952C25.189 6.14218 24.6665 6.55194 24.1821 7.00427Z" fill="#2C3135"/>
<path d="M17.333 7.83391H17.887V7.26266H17.333V6.69141H16.7617V7.26266H17.333V7.83391Z" fill="white"/>
<path d="M16.7607 7.26562H16.1895V7.83688H16.7607V7.26562Z" fill="white"/>
<path d="M35.7694 46.1794C41.4389 46.1794 46.0349 41.5834 46.0349 35.9139C46.0349 30.2444 41.4389 25.6484 35.7694 25.6484C30.0999 25.6484 25.5039 30.2444 25.5039 35.9139C25.5039 41.5834 30.0999 46.1794 35.7694 46.1794Z" fill="#4D68A1"/>
<path d="M29.41 31.2383C28.1255 30.694 26.7437 33.6568 28.0547 34.268C29.4177 34.8133 30.669 31.7718 29.41 31.2383ZM29.5837 32.046C29.6865 32.791 29.1515 33.7358 28.5712 33.9395C28.0542 34.169 27.5712 33.494 28.0462 32.4128C28.5305 31.384 29.4547 31.112 29.5837 32.046Z" fill="white"/>
<path d="M43.0438 32.3654C42.8188 31.3346 41.1886 30.2519 40.4768 30.9969C39.9888 31.4844 40.4018 32.4024 40.9453 32.9219C41.9573 33.8896 43.3378 33.7089 43.0438 32.3654ZM40.6908 31.2199C41.0063 30.8516 41.7838 31.2166 42.1751 31.5894C42.5476 31.9394 42.9826 32.7321 42.6406 33.0741C42.3713 33.4334 41.6043 33.1161 41.1528 32.6921C40.7723 32.3299 40.3593 31.6169 40.6908 31.2199Z" fill="white"/>
<path d="M35.3817 40.4132C34.7014 40.1347 33.6927 40.0962 33.4317 40.7482C33.1034 41.5417 34.2579 42.5829 35.4399 42.5829C36.9627 42.5829 36.7912 40.9894 35.3817 40.4132ZM35.2707 40.6722C35.7572 40.8912 36.4047 41.4222 36.1854 41.9057C35.9767 42.3642 35.1562 42.2757 34.6737 42.0584C33.1402 41.3852 33.5299 40.0204 35.2707 40.6722Z" fill="white"/>
<path d="M29.8075 35.4729C29.623 35.2094 29.4283 34.8304 29.1925 34.4929C29.07 34.3709 28.7845 34.4679 28.9725 34.7589C29.6015 35.7362 29.5365 35.7294 29.6595 35.7294C29.6893 35.7288 29.7184 35.7206 29.744 35.7054C29.7697 35.6902 29.791 35.6687 29.8059 35.6429C29.8207 35.6171 29.8287 35.5879 29.829 35.5581C29.8293 35.5284 29.8219 35.499 29.8075 35.4729Z" fill="white"/>
<path d="M31.3134 33.9741C30.1829 33.4556 30.1677 33.3991 30.0414 33.5371C29.7914 33.8121 30.8604 34.1826 31.1969 34.2721C31.3614 34.3174 31.5229 34.0489 31.3134 33.9741Z" fill="white"/>
<path d="M32.0483 32.1528L30.7703 32.1176C30.5083 32.1006 30.2321 32.6618 32.0471 32.4926C32.2438 32.4926 32.2333 32.1528 32.0483 32.1528Z" fill="white"/>
<path d="M39.8511 32.7583C38.7311 32.8403 38.6211 32.7873 38.6211 32.9891C38.6211 33.1818 38.7913 33.1518 39.1116 33.1506C39.2116 33.1506 39.6261 33.1176 39.8558 33.0813C40.0411 33.0813 40.0658 32.7426 39.8511 32.7583Z" fill="white"/>
<path d="M41.0323 33.4685C40.1615 34.2832 40.0683 34.2745 40.151 34.4397C40.1658 34.4625 40.186 34.4812 40.2097 34.4943C40.2335 34.5074 40.2601 34.5144 40.2873 34.5147C40.4595 34.5147 41.092 33.8845 41.258 33.6962C41.2848 33.6656 41.2989 33.626 41.2976 33.5854C41.2964 33.5448 41.2798 33.5061 41.2511 33.4773C41.2225 33.4484 41.184 33.4315 41.1434 33.4298C41.1028 33.4282 41.0631 33.442 41.0323 33.4685Z" fill="white"/>
<path d="M42.0837 34.056C41.7462 33.9695 41.7542 34.9788 41.8059 35.3595C41.8053 35.3809 41.8091 35.4022 41.8169 35.4221C41.8248 35.442 41.8366 35.4601 41.8517 35.4753C41.8668 35.4904 41.8849 35.5023 41.9048 35.5101C41.9247 35.518 41.946 35.5217 41.9674 35.521C42.1674 35.521 42.1237 35.4335 42.2157 34.1998C42.2151 34.1638 42.2013 34.1293 42.177 34.1028C42.1526 34.0763 42.1195 34.0597 42.0837 34.056Z" fill="white"/>
<path d="M33.7821 42.5258C33.7213 42.5008 33.7893 42.4653 32.5436 42.852C32.5035 42.8631 32.4691 42.8891 32.4475 42.9247C32.4259 42.9602 32.4187 43.0027 32.4274 43.0434C32.4361 43.0841 32.46 43.12 32.4942 43.1436C32.5285 43.1673 32.5704 43.177 32.6116 43.1707C32.8983 43.1332 33.7786 42.9275 33.8728 42.7585C33.8831 42.7374 33.8889 42.7144 33.8899 42.691C33.8908 42.6675 33.8869 42.6441 33.8784 42.6223C33.8699 42.6004 33.8569 42.5805 33.8404 42.5639C33.8238 42.5473 33.8039 42.5343 33.7821 42.5258Z" fill="white"/>
<path d="M34.6463 42.8045C34.2738 43.5432 34.1963 43.6032 34.3316 43.7392C34.3476 43.7553 34.3675 43.7671 34.3893 43.7734C34.4111 43.7798 34.4342 43.7805 34.4564 43.7755C34.4786 43.7705 34.4991 43.7599 34.5161 43.7449C34.5331 43.7298 34.546 43.7106 34.5536 43.6892C34.6903 43.4526 34.8108 43.2069 34.9143 42.954C35.0878 42.793 34.7463 42.606 34.6463 42.8045Z" fill="white"/>
<path d="M41.222 13.2179C40.9828 13.6429 38.9503 17.4071 39.4388 17.4071C39.636 17.4071 39.3833 16.7901 41.3778 13.3216C41.411 13.2221 41.3253 13.1144 41.222 13.2179Z" fill="#4D68A1"/>
<path d="M43.975 13.2884C42.5195 14.7578 41.2306 16.3834 40.1318 18.1356C40.1217 18.1578 40.1203 18.183 40.1277 18.2062C40.1352 18.2295 40.151 18.2491 40.1721 18.2614C40.1862 18.2694 40.2021 18.2738 40.2183 18.2741C40.4316 18.2741 40.5595 17.2569 44.1135 13.4269C44.1598 13.2856 44.0385 13.2214 43.975 13.2884Z" fill="#4D68A1"/>
<path d="M33.3451 10.2939L32.4623 10.5882L32.0296 9.0822C31.9893 8.96195 31.8316 9.0502 31.8736 9.1342L32.3063 10.6402L31.4063 10.9344C31.387 10.9402 31.3706 10.9531 31.3605 10.9705C31.3503 10.9879 31.3471 11.0085 31.3516 11.0282C31.3559 11.0479 31.3674 11.0652 31.384 11.0768C31.4006 11.0883 31.4209 11.0931 31.4408 11.0902C31.4908 11.0902 31.3908 11.1184 32.3583 10.7959C32.6263 11.7247 32.6158 11.7654 32.7046 11.7654C32.8376 11.7654 32.7841 11.6969 32.5141 10.7614L33.4141 10.4672C33.5426 10.4244 33.4273 10.2529 33.3451 10.2939Z" fill="#4D68A1"/>
</svg>
