<svg width="51" height="50" viewBox="0 0 51 50" fill="none" xmlns="http://www.w3.org/2000/svg">
<path d="M5.02436 4.96675C4.99548 4.99403 4.97838 5.03149 4.9767 5.07118C4.97502 5.11086 4.98889 5.14964 5.01536 5.17925C5.04286 5.21 6.43886 7.02425 6.83636 7.67525C6.97418 7.90338 7.1068 8.1346 7.23411 8.36875C7.32336 8.53125 7.58886 8.4045 7.49286 8.23C7.36276 7.98966 7.22714 7.75235 7.08611 7.51825C6.68611 6.865 5.44136 5.204 5.23611 4.97575C5.2089 4.94704 5.17158 4.93004 5.13206 4.92836C5.09253 4.92668 5.05391 4.94045 5.02436 4.96675Z" fill="#4D68A1"/>
<path d="M4.55294 8.67356C4.53541 8.66613 4.51652 8.6624 4.49747 8.66261C4.47843 8.66282 4.45963 8.66696 4.44226 8.67477C4.42489 8.68259 4.40932 8.69391 4.39653 8.70803C4.38374 8.72215 4.37401 8.73875 4.36794 8.75681C4.35338 8.79362 4.35396 8.8347 4.36955 8.87109C4.38514 8.90747 4.41449 8.93622 4.45119 8.95106C5.07842 9.32351 5.67782 9.74094 6.24469 10.2001C6.43744 10.3913 6.60019 10.1386 6.47594 10.0151C5.89181 9.49144 5.24605 9.04096 4.55294 8.67356Z" fill="#4D68A1"/>
<path d="M5.81388 35.4233C6.35388 35.4278 7.59938 35.3183 9.15063 34.4038C9.18554 34.3835 9.22453 34.3713 9.26475 34.3681C9.30498 34.3648 9.34543 34.3706 9.38314 34.385C9.42085 34.3993 9.45487 34.422 9.48272 34.4512C9.51058 34.4804 9.53156 34.5154 9.54413 34.5538C9.95463 35.7838 11.5746 40.2038 14.4719 42.934C14.5179 42.9765 14.5478 43.0336 14.5563 43.0956C14.5648 43.1577 14.5515 43.2207 14.5186 43.274C13.9936 44.1188 11.8106 47.5545 10.3336 48.6918C10.2829 48.7323 10.2194 48.7533 10.1545 48.7511C10.0896 48.7488 10.0277 48.7234 9.97988 48.6795C9.19563 47.9523 5.90488 44.399 5.53538 35.7108C5.53389 35.6734 5.54 35.6361 5.55336 35.6011C5.56671 35.5661 5.58702 35.5343 5.61306 35.5074C5.6391 35.4805 5.67032 35.4592 5.70484 35.4447C5.73936 35.4303 5.77645 35.423 5.81388 35.4233Z" fill="#4D68A1"/>
<path d="M11.6345 43.2752C11.5978 43.2755 11.5622 43.2623 11.5346 43.238C11.507 43.2136 11.4895 43.1799 11.4853 43.1434C11.4826 43.1192 11.4859 43.0946 11.495 43.0719L11.7558 42.4257C11.7709 42.3898 11.7995 42.3613 11.8354 42.3464C11.8713 42.3314 11.9117 42.3312 11.9478 42.3457C11.9839 42.3602 12.0128 42.3884 12.0283 42.4241C12.0439 42.4597 12.0447 42.5001 12.0308 42.5364L11.77 43.1827C11.7591 43.2097 11.7404 43.233 11.7163 43.2494C11.6921 43.2659 11.6637 43.2748 11.6345 43.2752Z" fill="#313131"/>
<path d="M8.59164 42.9058C8.57225 42.9067 8.55289 42.9037 8.53466 42.897C8.51643 42.8904 8.49968 42.8802 8.48538 42.8671C8.47108 42.854 8.45951 42.8382 8.45131 42.8206C8.44312 42.803 8.43847 42.784 8.43764 42.7646C8.4368 42.7452 8.43979 42.7258 8.44644 42.7076C8.45308 42.6894 8.46325 42.6726 8.47637 42.6583C8.48948 42.644 8.50529 42.6324 8.52288 42.6243C8.54047 42.6161 8.5595 42.6114 8.57889 42.6106L9.27389 42.5606C9.30311 42.5581 9.33239 42.5645 9.35788 42.579C9.38336 42.5935 9.40385 42.6154 9.41664 42.6418C9.43405 42.677 9.43692 42.7176 9.42464 42.7548C9.41866 42.7733 9.40903 42.7904 9.39632 42.8051C9.3836 42.8198 9.36807 42.8318 9.35064 42.8403C9.33323 42.849 9.31429 42.8542 9.29489 42.8556L8.59164 42.9058Z" fill="#313131"/>
<path d="M10.7137 40.3749C10.6204 40.3764 10.6367 40.3679 10.1469 39.7921C10.1242 39.762 10.1139 39.7243 10.1181 39.6869C10.1222 39.6494 10.1405 39.6149 10.1693 39.5905C10.198 39.566 10.2349 39.5535 10.2726 39.5554C10.3103 39.5572 10.3458 39.5734 10.3719 39.6006L10.8237 40.1314C10.8416 40.1528 10.8531 40.1788 10.8569 40.2064C10.8608 40.2341 10.8567 40.2623 10.8452 40.2877C10.8337 40.3131 10.8153 40.3348 10.792 40.3502C10.7687 40.3657 10.7416 40.3742 10.7137 40.3749Z" fill="#313131"/>
<path d="M7.54242 40.3594C7.51809 40.3596 7.49408 40.3538 7.47251 40.3425C7.45094 40.3313 7.43246 40.3149 7.41869 40.2948C7.40492 40.2748 7.39628 40.2516 7.39353 40.2275C7.39078 40.2033 7.39401 40.1788 7.40292 40.1562L7.66367 39.5097C7.67878 39.4738 7.70737 39.4453 7.7433 39.4303C7.77922 39.4154 7.81959 39.4151 7.85569 39.4297C7.89178 39.4442 7.92072 39.4724 7.93624 39.508C7.95177 39.5437 7.95264 39.5841 7.93867 39.6204L7.67792 40.2667C7.66696 40.2937 7.64826 40.317 7.62416 40.3335C7.60006 40.35 7.57163 40.359 7.54242 40.3594Z" fill="#313131"/>
<path d="M9.61318 37.2608L8.91318 37.2506C8.8754 37.2479 8.84007 37.2309 8.81445 37.203C8.78883 37.1751 8.77486 37.1385 8.77541 37.1006C8.77595 37.0627 8.79097 37.0265 8.81738 36.9993C8.84379 36.9722 8.87959 36.9562 8.91743 36.9546L9.61418 36.9651C9.6534 36.9651 9.69101 36.9807 9.71874 37.0084C9.74647 37.0361 9.76205 37.0737 9.76205 37.113C9.76205 37.1522 9.74647 37.1898 9.71874 37.2175C9.69101 37.2453 9.6534 37.2608 9.61418 37.2608H9.61318Z" fill="#313131"/>
<path d="M10.3684 45.6356C10.2969 45.6356 10.3314 45.6486 9.73063 45.1649C9.71484 45.1529 9.70161 45.1378 9.69171 45.1207C9.68181 45.1035 9.67546 45.0845 9.67301 45.0648C9.67056 45.0451 9.67208 45.0251 9.67747 45.006C9.68286 44.9869 9.69201 44.9691 9.70438 44.9536C9.72329 44.9305 9.74869 44.9136 9.7773 44.9051C9.80592 44.8966 9.83642 44.8969 9.86488 44.9059C9.88383 44.9119 9.90135 44.9216 9.91638 44.9346L10.4589 45.3729C10.4827 45.3919 10.5 45.4178 10.5085 45.447C10.517 45.4762 10.5162 45.5074 10.5063 45.5362C10.4964 45.565 10.4778 45.59 10.4531 45.6078C10.4284 45.6256 10.3988 45.6353 10.3684 45.6356Z" fill="#313131"/>
<path d="M6.6577 37.4287C6.62099 37.4289 6.58552 37.4155 6.55804 37.3912C6.53056 37.3668 6.513 37.3332 6.5087 37.2967C6.50604 37.2726 6.50938 37.2481 6.51845 37.2255L6.7792 36.579C6.79431 36.5431 6.8229 36.5146 6.85883 36.4997C6.89475 36.4847 6.93512 36.4845 6.97121 36.499C7.00731 36.5136 7.03625 36.5417 7.05177 36.5774C7.0673 36.6131 7.06817 36.6534 7.0542 36.6897L6.79345 37.3362C6.7826 37.3634 6.76389 37.3867 6.7397 37.4032C6.71552 37.4197 6.68697 37.4286 6.6577 37.4287Z" fill="#313131"/>
<path d="M6.42826 35.2511C6.7873 35.3581 7.16671 35.3775 7.53481 35.308C7.90291 35.2384 8.24903 35.0817 8.54426 34.8511C8.54426 34.8511 7.89651 34.2499 7.98801 33.5749C7.98801 33.5749 22.3845 32.8796 22.499 32.7499V31.7681L27.2188 31.5391L27.5908 38.4431C27.5908 38.4431 24.8713 38.6341 24.6338 38.6931C24.5022 38.8994 24.4344 39.1398 24.4388 39.3844C24.4433 39.629 24.5198 39.8668 24.6588 40.0681L35.8108 39.7369C35.8108 39.7369 36.1798 38.8779 35.6645 38.3134L32.6953 38.3884L32.4868 31.3076C32.4868 31.3076 47.566 31.2216 47.6273 31.1359C47.6885 31.0501 48.7985 5.56088 48.7373 5.36538C48.7373 5.36538 31.7423 1.16113 12.8063 5.09963L13.3215 12.7436C13.3215 12.7436 7.46476 13.4306 5.33801 13.8724C5.33801 13.8724 6.49951 24.2606 6.67951 25.9129C6.67951 25.9129 4.80626 27.6736 4.45451 30.1336C4.20901 31.8499 6.42826 35.2511 6.42826 35.2511Z" fill="white"/>
<path d="M24.1798 27.0481C24.2028 26.7661 24.448 26.5573 25.0125 26.5206C25.577 26.4838 34.8038 26.2383 35.4048 26.3121C35.6019 26.3324 35.7876 26.4146 35.9352 26.5468C36.0829 26.6789 36.185 26.8544 36.227 27.0481C36.2638 27.4563 36.2638 27.8669 36.227 28.2751C36.177 28.4223 35.9693 28.7168 35.319 28.7291C34.6688 28.7413 25.6465 29.0686 25.2538 29.0441C24.861 29.0196 24.3288 29.0691 24.2233 28.4061C24.1756 27.9551 24.1611 27.5012 24.1798 27.0481Z" fill="#4D68A1"/>
<path d="M16.6333 12.513C16.6333 12.513 16.302 8.27572 16.3388 8.23797C16.3755 8.20022 23.0708 6.88422 31.406 7.77172C31.406 7.77172 32.142 22.7657 32.056 22.8635C31.97 22.9612 22.416 23.4215 22.416 23.4215C22.416 23.4215 21.7618 13.5965 21.4428 12.175C21.443 12.1752 17.1248 12.284 16.6333 12.513Z" fill="#4D68A1"/>
<path d="M12.6758 2.88306C34.722 -0.67294 48.82 3.08981 48.82 3.08981L48.7358 5.36481C48.7358 5.36481 32.3625 1.06106 12.8048 5.09781L12.6758 2.88306Z" fill="#E02728"/>
<path d="M28.3043 13.5796C28.3048 14.5235 27.9429 15.4315 27.2934 16.1164C26.6438 16.8012 25.7562 17.2105 24.8136 17.2599C24.9763 16.2216 25.0653 15.5266 25.0771 15.2279C25.0778 15.2002 25.0713 15.1729 25.0581 15.1485C25.045 15.1242 25.0256 15.1037 25.0021 15.0891C24.0181 14.5711 22.9326 14.2749 21.8218 14.2211C21.7801 13.6151 21.6506 12.1664 21.6468 12.1411C21.643 12.1033 21.6244 12.0684 21.5951 12.0442C21.5657 12.0199 21.528 12.0081 21.4901 12.0114C21.4871 12.0114 21.4103 12.0176 21.2773 12.0266C21.6316 11.2667 22.2344 10.6502 22.9863 10.2791C23.7381 9.90795 24.5941 9.80433 25.4128 9.98531C26.2315 10.1663 26.964 10.6211 27.4893 11.2746C28.0147 11.9281 28.3015 12.7412 28.3023 13.5796H28.3043Z" fill="white"/>
<path d="M31.9225 22.8023C31.9225 22.8023 28.8048 18.7905 24.5475 18.9073L23.8105 23.2158L31.9225 22.8023Z" fill="white"/>
<path d="M48.855 2.94185C48.8415 2.93835 45.4835 2.2831 44.1493 2.1006C33.7673 0.680847 22.877 1.14435 12.6798 2.7006C12.6428 2.70644 12.6092 2.72564 12.5854 2.75457C12.5615 2.7835 12.5491 2.82015 12.5505 2.8576L13.1423 12.6576C7.65427 13.2453 6.83227 13.4493 5.28402 13.6838C5.24532 13.6899 5.2104 13.7105 5.18638 13.7415C5.16235 13.7724 5.15105 13.8114 5.15477 13.8503C5.15477 13.8566 5.29977 15.0681 5.36752 15.6438C5.34252 15.6473 3.14877 16.0786 2.29777 17.0673C2.05152 17.3536 5.00177 25.6803 5.49777 26.9966C5.45802 27.0671 4.20077 29.1581 4.27727 30.5371C4.34402 31.7386 5.48152 34.1454 6.43127 35.4184C6.46877 35.4584 6.51702 35.4874 6.57002 35.5019C7.28423 35.4914 7.98166 35.2838 8.58527 34.9018C8.61454 34.8753 8.63272 34.8386 8.63619 34.7993C8.63967 34.7599 8.62818 34.7206 8.60402 34.6894C8.36535 34.3943 8.19042 34.0529 8.09027 33.6868C8.88027 33.6618 22.4945 32.9344 22.5173 32.9329C22.5548 32.9302 22.5899 32.9135 22.6157 32.886C22.6414 32.8586 22.6558 32.8225 22.656 32.7849C22.6588 32.5219 22.6485 32.2141 22.647 31.9349C22.6833 31.9349 25.425 31.8174 27.0935 31.7499C27.0935 31.7499 27.4515 38.3769 27.4638 38.3971C26.356 38.4521 24.7158 38.5093 24.5978 38.5448C24.158 38.6768 24.1673 40.2081 24.69 40.2273C25.0698 40.2416 35.5833 39.9164 35.793 39.8671C36.225 39.7654 36.2133 38.3744 35.6915 38.1843C35.5803 38.1441 33.9165 38.2018 32.8073 38.2208C32.8275 38.1971 32.6585 31.7601 32.6498 31.5376C33.9198 31.4934 45.2828 31.2236 47.6355 31.3156C47.6747 31.3175 47.713 31.3042 47.7425 31.2784C47.7718 31.2523 47.7898 31.2159 47.7928 31.1769C47.7953 31.1269 48.915 5.3846 48.9678 3.0911C48.969 3.05704 48.9585 3.02359 48.938 2.9964C48.9174 2.96921 48.8881 2.94994 48.855 2.94185ZM44.103 2.39635C45.4318 2.5781 48.6148 3.1876 48.67 3.2006C48.6533 3.87869 48.6332 4.5567 48.6098 5.2346C38.5185 2.9241 27.8973 2.78985 17.8385 4.1346C16.468 4.31785 13.1358 4.90785 12.9745 4.94085L12.8555 2.96985C23.0635 1.4211 33.8745 0.997597 44.103 2.39635ZM7.97452 34.1894C8.01027 34.2666 8.29102 34.7511 8.29827 34.7626C7.80384 35.0728 7.22633 35.2244 6.64327 35.1968C5.72952 33.9551 4.66327 31.6434 4.57252 30.5191C4.57599 30.0884 4.6478 29.661 4.78527 29.2529C5.03631 28.607 5.32001 27.9744 5.63527 27.3574C5.74427 27.6479 5.74827 27.6689 5.85702 27.9574C5.5448 28.5774 5.297 29.2279 5.11752 29.8986C5.11229 29.9278 5.11574 29.9578 5.12746 29.985C5.13918 30.0122 5.15864 30.0354 5.18342 30.0516C5.2082 30.0678 5.23721 30.0764 5.26684 30.0763C5.29646 30.0762 5.32539 30.0673 5.35002 30.0509C5.38293 30.0282 5.40564 29.9936 5.41327 29.9544C5.41652 29.9371 5.90702 28.4726 5.99552 28.3179C6.47602 29.5956 6.99877 30.9749 7.02177 31.0451C7.07177 31.1951 7.21502 31.2541 7.30852 31.1656C7.54527 30.9406 8.03602 28.8386 8.20502 28.9744C8.33177 29.0759 8.64227 31.7961 7.85502 33.5136C7.78002 33.6751 7.83752 33.8956 7.97452 34.1894ZM8.20552 33.3853C8.4452 32.7534 8.59165 32.09 8.64027 31.4159C8.66677 31.0301 8.65502 30.4298 8.65852 30.4174C8.89459 29.8915 9.17607 29.3873 9.49977 28.9104C10.3783 27.8216 11.5903 27.2516 13.2165 27.4499C13.2165 27.4591 13.2073 27.4961 13.2073 27.4961C13.2005 27.5212 13.2013 27.5478 13.2095 27.5724C13.2177 27.5971 13.233 27.6188 13.2535 27.6349C13.9913 28.0789 15.0763 28.1641 15.851 27.6256C15.935 27.5671 15.9188 27.4869 15.9065 27.4129C16.726 27.1992 17.5916 27.2445 18.3843 27.5426C19.9168 28.1451 20.8653 29.7676 20.9358 32.7288C18.861 32.8548 10.1283 33.4156 8.20527 33.3853H8.20552ZM11.728 22.0971C11.7228 22.0622 11.7048 22.0306 11.6775 22.0083C11.6501 21.9861 11.6155 21.9748 11.5803 21.9768C11.4212 21.9817 11.2622 21.9631 11.1085 21.9216C10.7978 21.8361 10.6585 21.6793 10.7203 21.3761C10.7578 21.1938 10.9525 20.9571 11.3765 21.1171C11.396 21.1246 11.4169 21.1277 11.4377 21.1261C11.4585 21.1245 11.4787 21.1183 11.4968 21.1078C12.2163 20.6374 12.3183 19.8161 12.0053 19.1111C12.1053 19.0981 12.799 18.9809 12.8003 18.3161C12.8158 18.3226 13.7478 18.6618 14.2055 18.0293C14.3614 18.2075 14.5684 18.3333 14.7983 18.3896C15.0283 18.4459 15.27 18.4299 15.4905 18.3438C15.4583 19.1404 16.0458 19.2628 16.4058 19.3421C16.2967 19.5962 16.2877 19.8822 16.3804 20.1427C16.4731 20.4033 16.6607 20.6192 16.9058 20.7473C16.9203 20.7536 16.936 20.7568 16.9519 20.7568C16.9678 20.7568 16.9834 20.7536 16.998 20.7473C17.0155 20.7418 17.6753 20.6304 17.8298 21.0063C18.0548 21.5513 17.1138 21.6243 17.0903 21.6256C17.057 21.6272 17.0253 21.6399 17.0002 21.6617C16.9751 21.6835 16.958 21.7132 16.9518 21.7458C16.7996 22.4231 16.6051 23.09 16.3693 23.7428C15.9015 24.8951 15.3138 25.6054 14.6223 25.6749C13.6498 25.7726 12.8973 25.1119 12.3295 23.9186C12.0875 23.3259 11.8865 22.7173 11.7278 22.0971H11.728ZM11.8205 23.3821C11.6742 23.358 11.5377 23.2932 11.4265 23.1952C11.3153 23.0971 11.234 22.9697 11.1918 22.8276C11.1464 22.6398 11.14 22.4447 11.173 22.2543C11.1755 22.2408 11.1805 22.2381 11.1825 22.2266C11.277 22.2453 11.3728 22.2576 11.469 22.2636C11.5373 22.6501 11.6555 23.0261 11.8203 23.3821H11.8205ZM10.8125 19.0001C10.2428 18.5231 10.1948 18.0293 11.0898 17.7613C11.1258 17.7506 11.1563 17.7265 11.1752 17.694C11.1941 17.6615 11.2 17.623 11.1915 17.5863C11.187 17.5521 11.1808 17.5182 11.1728 17.4846C11.1035 17.2346 11.034 15.5891 12.6338 16.5696C12.6563 16.5836 12.6778 16.5991 12.6985 16.6156C12.7198 16.631 12.7446 16.6406 12.7707 16.6435C12.7967 16.6465 12.8231 16.6427 12.8472 16.6325C12.8714 16.6223 12.8925 16.606 12.9085 16.5853C12.9246 16.5646 12.935 16.54 12.9388 16.5141C12.9428 16.4818 12.9598 16.4276 12.9758 16.3476C13.2385 15.0206 14.531 15.2946 14.8708 15.8946C14.9663 16.0328 15.0298 16.1908 15.056 16.3568C15.0596 16.3851 15.0712 16.4118 15.0894 16.4337C15.1076 16.4556 15.1317 16.4719 15.1588 16.4806C15.1859 16.4893 15.215 16.4902 15.2426 16.483C15.2701 16.4758 15.2951 16.4609 15.3145 16.4401C15.3288 16.4246 16.0195 15.6013 16.8215 16.0333C17.3175 16.3004 17.2203 17.0751 16.9695 17.5493C16.9574 17.5713 16.951 17.596 16.9509 17.6212C16.9508 17.6463 16.957 17.671 16.9689 17.6931C16.9809 17.7152 16.9982 17.7339 17.0192 17.7476C17.0403 17.7613 17.0645 17.7694 17.0895 17.7713C17.666 17.7936 18.1053 18.2213 17.524 18.9639C17.5035 18.9931 17.4941 19.0288 17.4975 19.0644C17.5009 19.1001 17.517 19.1333 17.5428 19.1581C17.987 19.6024 17.9945 19.9666 17.746 20.2858C17.6983 20.3485 17.6424 20.4045 17.5798 20.4523C17.3815 20.4146 17.178 20.4146 16.9798 20.4523C16.4798 20.2353 16.6215 19.5216 16.7205 19.3058C16.7296 19.2853 16.7335 19.2629 16.732 19.2404C16.7305 19.218 16.7235 19.1963 16.7117 19.1772C16.6998 19.1581 16.6835 19.1422 16.6642 19.1308C16.6448 19.1194 16.623 19.1129 16.6005 19.1118C16.2433 19.0811 15.6668 18.8161 15.7408 18.1688C15.7414 18.1436 15.7354 18.1186 15.7234 18.0964C15.7113 18.0742 15.6935 18.0556 15.6719 18.0424C15.6503 18.0293 15.6257 18.0221 15.6004 18.0215C15.5751 18.021 15.5502 18.0271 15.528 18.0393C15.3748 18.1293 15.1974 18.1696 15.0203 18.1547C14.8432 18.1398 14.6751 18.0704 14.539 17.9561C14.4644 17.8986 14.3989 17.83 14.3448 17.7528C14.3311 17.7338 14.3131 17.7182 14.2922 17.7075C14.2713 17.6967 14.2481 17.6911 14.2246 17.6911C14.2012 17.6911 14.178 17.6967 14.1571 17.7075C14.1362 17.7182 14.1182 17.7338 14.1045 17.7528C13.9769 17.9322 13.7903 18.061 13.5774 18.1167C13.3644 18.1724 13.1387 18.1516 12.9395 18.0578C12.8821 18.0376 12.8265 18.0125 12.7733 17.9828C12.7496 17.9681 12.7223 17.9602 12.6944 17.96C12.6666 17.9597 12.6391 17.9672 12.6152 17.9815C12.5913 17.9959 12.5718 18.0166 12.5589 18.0413C12.546 18.066 12.5402 18.0938 12.542 18.1216C12.5741 18.2563 12.5562 18.398 12.4916 18.5205C12.4269 18.643 12.3201 18.7378 12.1908 18.7873C12.0703 18.8349 11.9413 18.8566 11.8118 18.8518C11.7854 18.8513 11.7593 18.8577 11.7361 18.8702C11.713 18.8828 11.6934 18.9011 11.6794 18.9235C11.6654 18.9459 11.6575 18.9715 11.6564 18.9978C11.6553 19.0242 11.661 19.0504 11.673 19.0738C12.0325 19.7518 11.957 20.2488 11.6268 20.6176C11.4555 20.8086 11.4313 20.7948 11.405 20.8118C11.2844 20.7733 11.1565 20.7632 11.0313 20.7825C10.9062 20.8017 10.7872 20.8498 10.6838 20.9228C10.0383 20.3751 10.1723 19.7431 10.8133 19.2228C10.8301 19.2096 10.8437 19.1926 10.8531 19.1733C10.8624 19.1539 10.8672 19.1328 10.8671 19.1113C10.867 19.0898 10.8621 19.0687 10.8526 19.0494C10.8432 19.0301 10.8295 19.0133 10.8125 19.0001ZM16.757 23.5023C16.882 23.1524 17.007 22.8023 17.099 22.4391C17.1053 22.4141 17.224 21.9376 17.2283 21.9123C17.3065 21.8953 17.3835 21.8736 17.4593 21.8476C17.5288 22.5526 17.4348 23.2959 16.757 23.5023ZM13.557 25.7581C13.8088 25.9897 14.1114 26.159 14.4406 26.2521C14.7698 26.3453 15.1162 26.3597 15.452 26.2944C15.4798 26.5648 15.5638 27.1959 15.6 27.4314C15.2923 27.6443 14.9278 27.7598 14.5536 27.7631C14.1795 27.7664 13.8129 27.6573 13.5015 27.4499C13.5832 26.8898 13.6022 26.3224 13.5583 25.7581H13.557ZM22.357 32.6456C22.314 32.6481 21.532 32.6919 21.229 32.7101C21.154 29.6451 20.1438 27.9144 18.4925 27.2651C17.6493 26.951 16.7308 26.8994 15.8578 27.1171C15.7605 26.558 15.7049 25.9924 15.6915 25.4251C16.1502 24.9847 16.4822 24.4293 16.653 23.8168C17.645 23.6781 17.8805 22.6604 17.753 21.6903C18.0623 21.5758 18.4058 21.0604 17.8825 20.5626C17.9155 20.5341 17.9463 20.5031 17.9748 20.4701C18.292 20.0623 18.2923 19.5581 17.8268 19.0371C17.8623 18.9793 17.905 18.9191 17.938 18.8521C18.28 18.1606 18.113 17.6171 17.3 17.5021C17.6863 16.5484 17.372 15.9416 16.8 15.6903C16.256 15.4518 15.7063 15.6936 15.256 16.0878C15.2296 15.9609 15.1827 15.8391 15.1173 15.7271C14.9725 15.5096 14.7684 15.3382 14.529 15.2333C14.2897 15.1284 14.0253 15.0945 13.7673 15.1356C13.1648 15.1856 12.8343 15.6771 12.6858 16.2633C11.6995 15.7028 11.0245 16.0834 10.8923 16.8181C10.8486 17.0498 10.8423 17.2869 10.8735 17.5206C10.8778 17.5488 9.39852 18.0206 10.5133 19.1016C9.82552 19.7816 9.75477 20.5516 10.5038 21.1631C10.4641 21.2517 10.4427 21.3474 10.441 21.4445C10.4394 21.5416 10.4574 21.638 10.494 21.7279C10.5307 21.8179 10.5852 21.8994 10.6542 21.9677C10.7233 22.0359 10.8054 22.0895 10.8958 22.1251C10.7135 22.8981 11.0415 23.6078 11.9403 23.7336C12.2119 24.4577 12.6639 25.1004 13.2533 25.6011C13.4103 26.1651 13.2445 27.1546 13.2438 27.1636C12.8674 27.1087 12.486 27.0963 12.1068 27.1266C10.4975 27.2964 9.30427 28.3454 8.62152 29.7616C8.56527 29.1366 8.45227 28.6866 8.21452 28.6796C7.76002 28.6671 7.73077 29.3991 7.29952 30.4916C7.13827 27.8779 5.78252 16.6146 5.46877 13.9618C9.83727 13.3118 12.066 12.9201 21.37 12.3163C22.088 20.2603 22.3958 28.5611 22.3593 32.6456H22.357ZM21.8203 14.2206C21.8133 14.1346 21.6475 12.1616 21.6453 12.1406C21.6413 12.1027 21.6227 12.068 21.5934 12.0437C21.5641 12.0194 21.5264 12.0076 21.4885 12.0108C21.4698 12.0108 18.3385 12.2333 16.7453 12.3526C16.697 11.8041 16.6318 11.2451 16.4773 8.35885C20.833 7.48385 26.793 7.4801 31.2968 7.83185C31.3078 8.11885 31.8358 21.8966 31.879 22.7901L23.8083 23.2151C23.8368 23.0539 25.049 15.8831 25.0745 15.2271C25.0757 15.1994 25.0694 15.1718 25.0562 15.1474C25.043 15.1229 25.0234 15.1025 24.9995 15.0883C24.0499 14.4906 22.9441 14.1888 21.8225 14.2211L21.8203 14.2206ZM27.414 32.2013C27.639 32.2801 31.6165 33.6746 32.4433 33.8651C32.4583 34.2603 32.5338 38.2031 32.5568 38.2333C30.6318 38.2696 29.649 38.2929 27.7098 38.3861C27.7245 38.3633 27.4163 32.2019 27.4163 32.2019L27.414 32.2013ZM35.5865 38.4693C35.845 38.5634 35.8563 39.5478 35.7248 39.5786C35.5498 39.6199 25.0498 39.9431 24.6958 39.9298C24.5393 39.9241 24.5323 38.8733 24.6775 38.8298C25.0745 38.7121 35.234 38.3409 35.5888 38.4698L35.5865 38.4693ZM47.503 31.0194C35.5015 30.7381 22.6438 31.6479 22.6438 31.6386C22.6378 31.0184 22.6335 30.4101 22.625 29.7804C22.6308 29.7686 23.464 25.1504 23.753 23.5124L32.0455 23.0778C32.0645 23.0777 32.0833 23.0738 32.1007 23.0662C32.1181 23.0586 32.1337 23.0475 32.1467 23.0337C32.1597 23.0198 32.1697 23.0035 32.1762 22.9856C32.1826 22.9678 32.1854 22.9488 32.1843 22.9298L31.5843 7.6851C31.5822 7.64903 31.567 7.61497 31.5414 7.58942C31.5159 7.56387 31.4818 7.54863 31.4458 7.5466C27.226 7.17775 22.9801 7.23034 18.7708 7.7036C17.5333 7.8536 16.5628 8.0311 16.293 8.09185C16.2582 8.10057 16.2273 8.12088 16.2055 8.14946C16.1837 8.17803 16.1722 8.21316 16.173 8.2491C16.2525 9.75535 16.3428 10.9701 16.4503 12.3723C16.3435 12.3806 14.2178 12.5496 13.464 12.6223C13.4215 12.6266 13.4668 13.1243 12.9913 5.24485C13.0685 5.2276 16.5083 4.60485 17.874 4.42235C27.6793 3.1116 38.3443 3.1786 48.599 5.53485C48.5113 8.08085 47.5195 30.7091 47.5053 31.0186L47.503 31.0194Z" fill="#313131"/>
<path d="M15.1502 19.7398C15.1622 19.7328 15.1744 19.7268 15.1872 19.7213C15.3209 19.6648 15.4797 19.6866 15.6872 19.8693C15.7167 19.8957 15.7554 19.9094 15.7949 19.9074C15.8344 19.9055 15.8716 19.888 15.8983 19.8589C15.9251 19.8297 15.9393 19.7912 15.9379 19.7516C15.9364 19.7121 15.9195 19.6747 15.8907 19.6476C15.7871 19.5391 15.6542 19.4629 15.5082 19.4285C15.3622 19.394 15.2093 19.4026 15.0682 19.4533C15.0321 19.4677 14.9979 19.4864 14.9662 19.5088C14.9508 19.5202 14.9379 19.5346 14.9282 19.5511C14.9184 19.5675 14.9121 19.5858 14.9095 19.6047C14.9069 19.6237 14.9082 19.643 14.9131 19.6614C14.9181 19.6799 14.9267 19.6972 14.9384 19.7123C14.9633 19.7433 14.9993 19.7635 15.0388 19.7686C15.0782 19.7738 15.1181 19.7634 15.1502 19.7398Z" fill="#313131"/>
<path d="M13.2726 23.3822C13.4766 23.8252 13.7863 24.1015 14.2248 24.094C14.6163 24.0875 14.9043 23.812 15.1123 23.373C15.2182 23.1598 15.2929 22.9324 15.3343 22.698C15.3389 22.6734 15.3371 22.6481 15.3291 22.6244C15.3211 22.6007 15.3071 22.5795 15.2886 22.5628C15.27 22.5461 15.2474 22.5344 15.223 22.5289C15.1986 22.5235 15.1733 22.5243 15.1493 22.5315C14.5263 22.6735 13.88 22.6799 13.2543 22.55C13.2312 22.5459 13.2074 22.5473 13.1849 22.5541C13.1624 22.5608 13.1418 22.5728 13.1247 22.589C13.1077 22.6052 13.0947 22.6252 13.0868 22.6473C13.0789 22.6695 13.0764 22.6932 13.0793 22.7165C13.1088 22.947 13.1743 23.1715 13.2726 23.3822ZM13.5038 22.8922C13.8961 22.9448 14.293 22.9541 14.6873 22.92C14.7958 22.9092 14.8921 22.8842 14.9923 22.8645C14.9533 22.9947 14.9038 23.1215 14.8443 23.2437C14.6796 23.5915 14.4766 23.7937 14.2248 23.7982C13.7568 23.8062 13.5248 23.3282 13.4113 22.8732C13.4436 22.8785 13.4691 22.888 13.5038 22.8922Z" fill="#313131"/>
<path d="M15.4533 20.7002C15.3965 20.7098 15.3449 20.7391 15.3076 20.7832C15.2704 20.8272 15.25 20.8829 15.25 20.9406C15.25 20.9982 15.2704 21.054 15.3076 21.098C15.3449 21.142 15.3965 21.1714 15.4533 21.1809C15.5119 21.1736 15.5658 21.1451 15.6049 21.1009C15.6439 21.0566 15.6655 20.9996 15.6655 20.9406C15.6655 20.8815 15.6439 20.8245 15.6049 20.7803C15.5658 20.736 15.5119 20.7075 15.4533 20.7002Z" fill="#313131"/>
<path d="M12.9504 20.7197C12.9988 20.7128 13.0482 20.7208 13.092 20.7427C13.1358 20.7646 13.1718 20.7993 13.1953 20.8423C13.2187 20.8852 13.2285 20.9343 13.2232 20.983C13.218 21.0317 13.198 21.0776 13.1659 21.1145C13.1339 21.1515 13.0913 21.1778 13.0438 21.1899C12.9964 21.2019 12.9464 21.1992 12.9006 21.1821C12.8547 21.1649 12.8152 21.1342 12.7873 21.094C12.7595 21.0537 12.7446 21.0059 12.7446 20.957C12.7408 20.8983 12.7602 20.8405 12.7987 20.7961C12.8373 20.7517 12.8917 20.7242 12.9504 20.7197Z" fill="#313131"/>
<path d="M14.1968 20.4331C14.1576 20.4332 14.12 20.4488 14.0922 20.4765C14.0645 20.5043 14.0489 20.5419 14.0488 20.5811L14.0676 21.8754C14.0691 21.9135 14.0854 21.9496 14.113 21.9761C14.1405 22.0025 14.1773 22.0173 14.2155 22.0173C14.2537 22.0173 14.2904 22.0025 14.3179 21.9761C14.3455 21.9496 14.3618 21.9135 14.3633 21.8754L14.3448 20.5811C14.3448 20.5419 14.3292 20.5042 14.3015 20.4765C14.2737 20.4487 14.2361 20.4331 14.1968 20.4331Z" fill="#313131"/>
<path d="M12.6144 19.6938C12.5936 19.7269 12.5868 19.767 12.5955 19.8052C12.6042 19.8433 12.6277 19.8765 12.6609 19.8973C12.6941 19.9181 12.7341 19.9249 12.7723 19.9162C12.8104 19.9075 12.8436 19.8839 12.8644 19.8508C12.9325 19.7399 13.0415 19.6603 13.1678 19.6292C13.2941 19.5981 13.4276 19.618 13.5394 19.6845C13.5564 19.6933 13.5749 19.6986 13.594 19.7C13.613 19.7015 13.6322 19.6992 13.6503 19.6931C13.6684 19.6871 13.6851 19.6775 13.6995 19.6649C13.7139 19.6523 13.7256 19.637 13.7339 19.6198C13.7499 19.5827 13.751 19.5409 13.737 19.5031C13.7231 19.4652 13.6951 19.4341 13.6589 19.4163C13.4817 19.3232 13.276 19.3001 13.0826 19.3515C12.8891 19.4029 12.722 19.525 12.6144 19.6938Z" fill="#313131"/>
<path d="M36.532 7.47195C35.8347 7.51145 35.6637 8.24845 36.032 8.97895C36.098 9.0972 36.1752 9.2087 36.263 9.3117C35.7967 9.8067 35.2437 9.99595 34.8025 9.6722C34.7717 9.65066 34.7338 9.64186 34.6968 9.64767C34.6597 9.65349 34.6263 9.67345 34.6036 9.70337C34.581 9.73328 34.5708 9.77082 34.5752 9.80809C34.5797 9.84536 34.5984 9.87945 34.6275 9.9032C35.2097 10.3307 35.9025 10.1102 36.4577 9.53345C36.8236 9.86596 37.2951 10.0585 37.7891 10.0771C38.2832 10.0957 38.7679 9.93923 39.1577 9.6352C39.8202 10.4882 40.9697 10.4217 41.8202 9.8102C42.2575 10.2175 42.9355 10.1602 43.7617 9.4587C43.7802 9.44264 43.7945 9.42239 43.8035 9.39964C43.8125 9.3769 43.8159 9.35233 43.8135 9.32799C43.811 9.30365 43.8028 9.28025 43.7894 9.25975C43.7761 9.23926 43.758 9.22227 43.7367 9.2102C43.7114 9.19668 43.6826 9.19111 43.6541 9.19423C43.6256 9.19736 43.5987 9.20902 43.577 9.2277C42.8837 9.81595 42.372 9.9102 42.0422 9.63445C42.9422 8.7757 42.5845 7.52995 41.848 7.6652C41.3105 7.7652 41.1867 8.82495 41.617 9.54195C41.4364 9.69485 41.2296 9.81385 41.0067 9.8932C40.2865 10.1102 39.734 9.90695 39.3797 9.44045C40.2002 8.6187 39.9202 7.51245 39.278 7.53595C38.6505 7.55895 38.524 8.5207 39.0007 9.3757C38.6663 9.64745 38.2455 9.79034 37.8147 9.77846C37.3839 9.76658 36.9717 9.60072 36.6527 9.31095C36.6987 9.2517 36.7477 9.20895 36.791 9.14445C37.0214 8.83138 37.1593 8.45984 37.1887 8.0722C37.1984 7.94334 37.1636 7.81505 37.0902 7.7087C37.0168 7.60236 36.9091 7.52436 36.7852 7.4877C36.7031 7.46335 36.6165 7.45796 36.532 7.47195ZM36.5507 7.7677C37.0757 7.7677 36.7967 8.6762 36.4672 9.08045C36.4052 9.0051 36.3496 8.92475 36.301 8.8402C36.0127 8.2717 36.1217 7.7922 36.55 7.7677H36.5507ZM39.287 7.83245C39.733 7.8242 39.6022 8.94645 39.2037 9.1452C38.8917 8.4877 38.98 7.8382 39.287 7.83245ZM41.9035 7.96195C42.316 7.88695 42.495 8.7662 41.8662 9.39495C41.4675 8.7272 41.6895 8.0002 41.9035 7.96195Z" fill="#4D68A1"/>
<path d="M39.0455 11.8818C38.5065 11.9401 38.3705 12.5518 38.6482 13.1568C38.701 13.2551 38.7627 13.3478 38.833 13.4343C38.5394 13.656 38.1755 13.764 37.8085 13.7385C37.4415 13.713 37.0961 13.5557 36.836 13.2956C36.96 13.1886 37.0603 13.0568 37.1305 12.9088C37.2005 12.7606 37.2387 12.5996 37.243 12.4358C37.2472 12.3334 37.2197 12.2322 37.1642 12.1461C37.1087 12.0599 37.028 11.9931 36.933 11.9546C36.87 11.929 36.8024 11.9166 36.7345 11.9181C36.1997 11.8871 35.9977 12.4443 36.226 13.0181C36.271 13.1193 36.3267 13.2153 36.3922 13.3046C36.1865 13.4637 35.939 13.5597 35.6798 13.5811C35.4206 13.6024 35.1607 13.5481 34.9317 13.4248C34.8971 13.4133 34.8595 13.4148 34.8259 13.429C34.7924 13.4432 34.7651 13.4692 34.7493 13.502C34.7334 13.5348 34.7301 13.5723 34.7399 13.6075C34.7497 13.6426 34.7719 13.6729 34.8025 13.6928C35.0826 13.8405 35.3996 13.9033 35.7148 13.8738C36.03 13.8442 36.3297 13.7235 36.5775 13.5263C36.909 13.8278 37.3336 14.0068 37.7809 14.0337C38.2282 14.0606 38.6712 13.9338 39.0365 13.6743C39.7017 14.3133 40.5957 14.2293 41.3115 13.6466C41.7582 14.1238 42.45 14.1716 43.2437 13.5818C43.2728 13.5581 43.2915 13.524 43.296 13.4867C43.3004 13.4495 43.2902 13.4119 43.2676 13.382C43.2449 13.3521 43.2115 13.3321 43.1744 13.3263C43.1374 13.3205 43.0995 13.3293 43.0687 13.3508C42.381 13.8611 41.8507 13.8113 41.5062 13.4156C42.2715 12.6386 41.9747 11.8636 41.4137 11.8906C40.4367 11.9366 41.1172 13.4091 41.127 13.4253C40.8805 13.6352 40.579 13.7699 40.2582 13.8136C40.0775 13.8305 39.8953 13.806 39.7255 13.7419C39.5557 13.6779 39.4027 13.5759 39.2782 13.4438C39.4075 13.3063 39.5107 13.1463 39.5835 12.9723C39.8127 12.3818 39.599 11.8221 39.0455 11.8818ZM39.0825 12.1776C39.5825 12.1333 39.2885 13.0743 39.0455 13.1761C38.8222 13.0426 38.699 12.1771 39.0825 12.1776ZM41.4215 12.1868C41.7027 12.1758 41.7792 12.7421 41.3292 13.1761C41.1012 12.7111 41.1585 12.1973 41.4215 12.1868ZM36.7252 12.2053C37.21 12.2406 36.767 13.0426 36.642 13.0743C36.5155 13.0753 36.129 12.2503 36.7252 12.2053Z" fill="#4D68A1"/>
<path d="M35.2367 17.1325C35.1974 17.135 35.1608 17.1529 35.1348 17.1824C35.1219 17.197 35.112 17.214 35.1057 17.2324C35.0994 17.2508 35.0967 17.2703 35.0979 17.2898C35.0992 17.3092 35.1042 17.3282 35.1127 17.3457C35.1213 17.3632 35.1332 17.3788 35.1478 17.3917C35.1773 17.4177 35.2159 17.431 35.2552 17.4285C38.5247 17.3035 42.8477 17.3675 43.4277 17.4193C43.4669 17.4239 43.5063 17.4129 43.5374 17.3886C43.5685 17.3644 43.5888 17.3289 43.5939 17.2898C43.5967 17.2495 43.5838 17.2098 43.558 17.1788C43.5322 17.1478 43.4955 17.1279 43.4554 17.1233C42.8632 17.0705 38.4947 17.007 35.2367 17.1325Z" fill="#FF7449"/>
<path d="M35.1812 19.564C35.142 19.5641 35.1044 19.5797 35.0766 19.6075C35.0489 19.6352 35.0333 19.6728 35.0332 19.712C35.0354 19.7521 35.0529 19.7898 35.0821 19.8173C35.1114 19.8448 35.1501 19.86 35.1902 19.8598C37.42 19.8253 42.7102 20.006 43.3627 20.0725C43.4029 20.0751 43.4426 20.0622 43.4736 20.0364C43.5046 20.0105 43.5245 19.9738 43.5292 19.9338C43.531 19.8947 43.5175 19.8564 43.4917 19.8271C43.4658 19.7977 43.4295 19.7796 43.3905 19.7765C42.733 19.7093 37.427 19.529 35.1812 19.564Z" fill="#FF7449"/>
<path d="M34.9775 22.4751C34.9398 22.4773 34.9043 22.4938 34.8783 22.5214C34.8524 22.5489 34.8379 22.5853 34.8379 22.6231C34.8379 22.6609 34.8524 22.6973 34.8783 22.7248C34.9043 22.7524 34.9398 22.7689 34.9775 22.7711C34.9945 22.7711 42.793 22.9868 43.3258 23.0483C43.3497 23.0523 43.3742 23.0501 43.3971 23.042C43.42 23.0339 43.4404 23.0201 43.4565 23.002C43.4727 22.9839 43.484 22.9621 43.4894 22.9384C43.4948 22.9148 43.4942 22.8902 43.4875 22.8668C43.4825 22.8482 43.4737 22.8307 43.4616 22.8156C43.4496 22.8005 43.4346 22.788 43.4175 22.7788C43.4006 22.7695 43.382 22.7638 43.3628 22.7618C42.8175 22.7001 34.9945 22.4766 34.9775 22.4751Z" fill="#FF7449"/>
<path d="M35.496 26.1832C34.946 26.0787 26.4332 26.2889 24.9755 26.3864C24.2932 26.4322 24.0335 26.7492 24.0232 27.3944C24.009 28.2932 24.0772 28.8099 24.43 29.0307C24.6647 29.1774 25.221 29.1909 27.0372 29.1417C27.0475 29.1417 35.0315 28.9667 35.644 28.8917C36.3832 28.8019 36.544 28.2089 36.4022 27.3107C36.4002 27.2979 36.3355 26.9137 36.3095 26.8392C36.2501 26.664 36.142 26.5092 35.998 26.3931C35.8539 26.2769 35.6798 26.2041 35.496 26.1832ZM35.4407 26.4697C35.5735 26.4813 35.7001 26.5311 35.8051 26.6131C35.9101 26.6952 35.9891 26.8059 36.0325 26.9319C36.0662 27.0719 36.0912 27.2139 36.1075 27.3569C36.2212 28.1069 36.1075 28.5444 35.6075 28.6049C35.0107 28.6774 24.741 28.8767 24.5877 28.7799C24.3702 28.6439 24.3075 28.1749 24.3197 27.4027C24.327 26.9409 24.4217 26.7204 25.0035 26.6814C26.4272 26.5867 34.926 26.3719 35.4407 26.4697Z" fill="#313131"/>
<path d="M14.4048 3.20658C14.4847 3.20549 14.563 3.22817 14.6299 3.27172C14.6968 3.31528 14.7493 3.37776 14.7806 3.4512C14.8119 3.52465 14.8206 3.60574 14.8057 3.68418C14.7908 3.76261 14.7529 3.83485 14.6969 3.89169C14.6408 3.94853 14.5691 3.98742 14.4909 4.0034C14.4127 4.01938 14.3315 4.01174 14.2576 3.98144C14.1837 3.95114 14.1205 3.89956 14.0761 3.83326C14.0316 3.76695 14.0078 3.68892 14.0078 3.60908C14.0072 3.50308 14.0486 3.40115 14.123 3.32568C14.1975 3.25021 14.2988 3.20737 14.4048 3.20658Z" fill="#313131"/>
<path d="M16.3267 2.95707C16.4065 2.95598 16.4849 2.97865 16.5518 3.02221C16.6187 3.06577 16.6711 3.12825 16.7025 3.20169C16.7338 3.27513 16.7425 3.35623 16.7276 3.43467C16.7127 3.5131 16.6748 3.58533 16.6188 3.64218C16.5627 3.69902 16.491 3.7379 16.4128 3.75388C16.3345 3.76987 16.2533 3.76222 16.1795 3.73193C16.1056 3.70163 16.0424 3.65005 15.9979 3.58375C15.9535 3.51744 15.9297 3.43941 15.9297 3.35957C15.929 3.25357 15.9705 3.15164 16.0449 3.07617C16.1193 3.0007 16.2207 2.95786 16.3267 2.95707Z" fill="#FF7449"/>
<path d="M18.1841 2.78715C18.2639 2.78606 18.3423 2.80873 18.4092 2.85229C18.4761 2.89585 18.5286 2.95832 18.5599 3.03177C18.5912 3.10521 18.5999 3.18631 18.585 3.26475C18.5701 3.34318 18.5322 3.41541 18.4762 3.47226C18.4201 3.5291 18.3484 3.56798 18.2702 3.58396C18.192 3.59994 18.1108 3.5923 18.0369 3.56201C17.963 3.53171 17.8998 3.48013 17.8554 3.41383C17.8109 3.34752 17.7871 3.26949 17.7871 3.18965C17.7865 3.08365 17.8279 2.98172 17.9023 2.90625C17.9768 2.83078 18.0781 2.78794 18.1841 2.78715Z" fill="white"/>
</svg>
