<svg width="50" height="50" viewBox="0 0 50 50" fill="none" xmlns="http://www.w3.org/2000/svg">
<path d="M24.7437 30.2998C24.7322 30.7107 24.6978 31.1206 24.6405 31.5276C24.5655 31.7628 19.413 31.8276 7.8457 32.0668C7.8457 32.0668 9.7267 35.6186 13.5305 35.8216C15.8197 35.9436 17.8992 33.6113 18.7472 32.5131L18.2472 40.9821C18.2472 40.9821 30.8757 41.8821 33.9972 39.3706L32.9677 34.3308C33.4427 35.5356 34.3864 37.0771 36.1407 37.2863C36.9518 37.3807 37.7733 37.2508 38.5157 36.9108C39.2582 36.5709 39.8932 36.0338 40.3517 35.3581L24.7437 30.2998Z" fill="#016DAB"/>
<path d="M48.6113 17.2626C48.3183 16.7351 29.5113 11.0953 29.1775 11.3218C28.689 11.6538 22.8485 29.5468 23.1415 29.7218C23.4345 29.8968 42.4215 35.9921 42.773 35.8163C43.1245 35.6406 48.9043 17.7898 48.6113 17.2626Z" fill="#87E4FF"/>
<path d="M3.20906 21.1841C3.20906 21.1841 3.11856 19.8069 3.67531 19.7484C3.67531 19.7484 3.47256 12.9016 3.73506 12.4719C3.99756 12.0421 23.8048 12.0031 23.8048 12.0031C23.8048 12.0031 26.1098 11.3781 26.6178 10.8896C27.0871 11.6741 27.7861 12.2954 28.6201 12.6696C28.6201 12.6696 23.9466 26.1847 23.3068 29.0367C23.3068 29.0367 27.8603 23.8366 33.8716 26.1262L34.3336 24.5439C34.3336 24.5439 32.9566 23.5859 33.2983 21.1156C33.2983 21.1156 32.2373 20.4589 32.5061 19.9437C32.8713 19.2437 34.0333 19.9631 34.0333 19.9631C34.0333 19.9631 35.0921 16.8904 37.6741 17.5631C38.8753 17.8761 39.8396 19.4104 39.4321 21.3699C39.4321 21.3699 40.7896 21.7846 40.5943 22.4514C40.3991 23.1182 39.3831 22.9806 39.3831 22.9806C39.3831 22.9806 38.5628 25.2766 36.5898 25.3449L36.2578 26.8102C36.2578 26.8102 42.5966 28.1189 43.0946 34.8287C43.0946 34.8287 42.9011 35.7626 42.7333 35.8537C42.5656 35.9447 24.7083 30.2962 24.7083 30.2962C24.7083 30.2962 24.7351 31.5212 24.6158 31.5759C24.1076 31.8102 5.44306 32.0692 4.25156 31.8199L3.81206 24.1117C3.81206 24.1117 2.90131 24.5219 3.09881 23.8039C3.09881 23.8039 2.37381 23.8479 2.67381 23.1374C2.67381 23.1374 2.16106 22.9397 2.53531 22.2949C2.53556 22.2949 1.88306 21.7284 3.20906 21.1841Z" fill="white"/>
<path d="M24.627 21.6223C24.9387 21.6401 25.2515 21.6193 25.5582 21.5603L24.7557 24.0276L24.627 21.6223Z" fill="#016DAB"/>
<path d="M46.3764 25.2395C46.3764 25.2395 46.7719 25.4448 46.3764 26.463C46.3764 26.463 47.7764 27.4298 46.8204 27.6935C46.8204 27.6935 47.1089 28.3685 46.4861 28.3455C46.4861 28.3455 46.6914 28.9778 45.9734 28.7705C45.9734 28.7705 46.1199 29.481 45.0066 28.6863C43.8934 27.8915 44.3249 27.721 44.7066 27.767C44.7066 27.767 44.0766 27.0778 44.9631 27.1513C44.9631 27.1513 44.3331 26.507 45.2269 26.5658C45.2269 26.5658 44.7506 25.804 46.0251 26.3205L46.3764 25.2395Z" fill="white"/>
<path d="M39.0523 20.6784C39.029 20.6785 39.0061 20.6721 38.9862 20.6599C38.9663 20.6477 38.9502 20.6302 38.9396 20.6094C38.5378 19.8252 37.6373 20.1844 37.5991 20.1999C37.568 20.2128 37.5331 20.2128 37.5021 20.1999C37.471 20.187 37.4463 20.1623 37.4335 20.1313C37.4206 20.1002 37.4206 20.0653 37.4335 20.0343C37.4464 20.0032 37.471 19.9785 37.5021 19.9657C37.8991 19.8009 38.7581 19.6987 39.1651 20.4939C39.1751 20.5132 39.1798 20.5347 39.1788 20.5564C39.1779 20.5892 39.1642 20.6204 39.1405 20.6432C39.1169 20.6661 39.0852 20.6787 39.0523 20.6784Z" fill="#414141"/>
<path d="M35.5762 23.4145C35.5519 23.3913 35.5379 23.3594 35.5371 23.3258C35.5364 23.2923 35.549 23.2598 35.5722 23.2355C35.5954 23.2112 35.6273 23.1972 35.6609 23.1964C35.6945 23.1957 35.7269 23.2083 35.7512 23.2315C35.8062 23.278 35.8722 23.3098 35.9429 23.3238C36.0135 23.3378 36.0866 23.3336 36.1552 23.3115C36.1869 23.3027 36.2208 23.3066 36.2497 23.3225C36.2786 23.3383 36.3001 23.3648 36.3097 23.3963C36.3194 23.4277 36.3165 23.4616 36.3017 23.4909C36.2868 23.5202 36.2612 23.5427 36.2302 23.5535C36.1185 23.5891 35.9995 23.595 35.8848 23.5706C35.7701 23.5463 35.6638 23.4925 35.5762 23.4145Z" fill="#414141"/>
<path d="M39.7771 22.4513C39.7551 22.4513 39.7334 22.4456 39.7143 22.4347C39.6952 22.4238 39.6792 22.4082 39.668 22.3892C39.6568 22.3703 39.6508 22.3488 39.6504 22.3268C39.6501 22.3048 39.6555 22.2831 39.6661 22.2638C39.6799 22.238 39.7024 22.2178 39.7296 22.2068L39.8811 22.1458C39.9123 22.1332 39.9472 22.1336 39.9781 22.1467C40.0091 22.1599 40.0335 22.1848 40.0461 22.216C40.0586 22.2472 40.0583 22.2821 40.0451 22.3131C40.0319 22.344 40.007 22.3685 39.9758 22.381C39.8271 22.441 39.8118 22.4513 39.7771 22.4513Z" fill="#414141"/>
<path d="M33.1311 20.4088C33.1128 20.3758 33.0898 20.3456 33.0628 20.3193C33.0405 20.2961 33.0278 20.2652 33.0274 20.233C33.0269 20.2008 33.0387 20.1696 33.0604 20.1458C33.0821 20.122 33.112 20.1073 33.1441 20.1047C33.1762 20.1021 33.2081 20.1118 33.2333 20.1318C33.2826 20.1781 33.3241 20.2321 33.356 20.2918C33.3659 20.3103 33.371 20.3309 33.3709 20.3518C33.3708 20.3728 33.3655 20.3934 33.3554 20.4118C33.3453 20.4301 33.3308 20.4457 33.3132 20.457C33.2956 20.4684 33.2754 20.4752 33.2546 20.4768C33.2296 20.4788 33.2045 20.4734 33.1826 20.4614C33.1606 20.4493 33.1427 20.431 33.1311 20.4088Z" fill="#414141"/>
<path d="M30.4804 27.0247C30.461 27.0247 30.4419 27.0203 30.4245 27.0117C30.4071 27.0032 30.3918 26.9908 30.38 26.9755C30.3681 26.9601 30.36 26.9423 30.3561 26.9233C30.3522 26.9043 30.3527 26.8847 30.3576 26.8659L30.4614 26.4659C30.4712 26.4349 30.4925 26.4089 30.521 26.3932C30.5495 26.3774 30.5829 26.3732 30.6143 26.3814C30.6458 26.3896 30.673 26.4095 30.6902 26.4371C30.7074 26.4647 30.7134 26.4978 30.7069 26.5297L30.6031 26.9297C30.5961 26.9569 30.5803 26.981 30.558 26.9982C30.5358 27.0154 30.5085 27.0247 30.4804 27.0247Z" fill="#414141"/>
<path d="M31.877 27.2804L32.038 26.9622C32.0496 26.9401 32.0674 26.9218 32.0891 26.9096C32.1109 26.8973 32.1358 26.8916 32.1607 26.8932C32.1773 26.8944 32.1936 26.8988 32.2085 26.9063C32.2234 26.9138 32.2366 26.9242 32.2475 26.9368C32.2583 26.9495 32.2666 26.9641 32.2717 26.98C32.2769 26.9959 32.2788 27.0126 32.2775 27.0292C32.2762 27.0458 32.2717 27.0621 32.2642 27.0769L32.1032 27.3952C32.0916 27.4173 32.0738 27.4356 32.052 27.4478C32.0302 27.4601 32.0054 27.4658 31.9805 27.4642C31.9638 27.463 31.9476 27.4586 31.9327 27.4511C31.9178 27.4436 31.9045 27.4332 31.8937 27.4206C31.8828 27.4079 31.8746 27.3933 31.8694 27.3774C31.8643 27.3615 31.8623 27.3448 31.8637 27.3282C31.8649 27.3116 31.8694 27.2953 31.877 27.2804Z" fill="#414141"/>
<path d="M33.0312 27.7909C33.0107 27.791 32.9906 27.786 32.9725 27.7766C32.9543 27.7671 32.9387 27.7534 32.9271 27.7367C32.9154 27.7199 32.9079 27.7005 32.9053 27.6802C32.9027 27.66 32.9051 27.6394 32.9122 27.6202L33.0587 27.2247C33.0644 27.209 33.0732 27.1946 33.0845 27.1824C33.0958 27.1702 33.1095 27.1603 33.1247 27.1534C33.1398 27.1464 33.1561 27.1425 33.1728 27.1418C33.1894 27.1412 33.206 27.1438 33.2216 27.1496C33.2372 27.1554 33.2516 27.1642 33.2638 27.1755C33.276 27.1869 33.2858 27.2005 33.2927 27.2157C33.2998 27.2308 33.3038 27.2471 33.3044 27.2638C33.3051 27.2805 33.3023 27.2971 33.2964 27.3127L33.1499 27.7082C33.141 27.7325 33.1248 27.7535 33.1036 27.7683C33.0823 27.7831 33.0571 27.791 33.0312 27.7909Z" fill="#414141"/>
<path d="M26.8044 27.7909C26.7738 27.7908 26.7442 27.7796 26.7212 27.7594C26.6982 27.7393 26.6831 27.7115 26.6789 27.6812C26.6762 27.6611 26.6783 27.6406 26.6851 27.6214L26.8024 27.2949C26.8079 27.279 26.8163 27.2642 26.8274 27.2514C26.8444 27.2326 26.8665 27.2193 26.8911 27.213C26.9156 27.2067 26.9415 27.2078 26.9654 27.2162C26.9812 27.2219 26.9957 27.2307 27.0081 27.2422C27.0205 27.2536 27.0305 27.2673 27.0376 27.2826C27.0446 27.2979 27.0485 27.3145 27.0491 27.3313C27.0496 27.3482 27.0469 27.3649 27.0409 27.3807L26.9236 27.7057C26.915 27.7305 26.8989 27.752 26.8776 27.7673C26.8562 27.7826 26.8306 27.7908 26.8044 27.7909Z" fill="#414141"/>
<path d="M27.8433 27.9376C27.8111 27.9374 27.7803 27.925 27.7568 27.9029C27.7334 27.8808 27.7192 27.8507 27.7171 27.8186C27.7157 27.7973 27.7197 27.776 27.7288 27.7566L27.8753 27.4469C27.8898 27.4166 27.9157 27.3932 27.9474 27.3819C27.979 27.3705 28.0139 27.3721 28.0443 27.3864C28.0746 27.401 28.0978 27.4269 28.1091 27.4585C28.1204 27.4901 28.1188 27.5249 28.1046 27.5554L27.9581 27.8651C27.9477 27.8868 27.9314 27.9051 27.9111 27.9179C27.8908 27.9307 27.8673 27.9375 27.8433 27.9376Z" fill="#414141"/>
<path d="M28.9274 28.2453C28.9066 28.2454 28.8861 28.2402 28.8677 28.2304C28.8494 28.2206 28.8337 28.2065 28.8221 28.1891C28.8105 28.1718 28.8034 28.1519 28.8014 28.1312C28.7994 28.1105 28.8025 28.0896 28.8104 28.0703L29.0007 27.6078C29.0136 27.5768 29.0383 27.5521 29.0694 27.5392C29.1004 27.5263 29.1353 27.5262 29.1664 27.5388C29.1819 27.5452 29.1959 27.5545 29.2077 27.5662C29.2195 27.578 29.2289 27.592 29.2353 27.6074C29.2417 27.6228 29.245 27.6393 29.245 27.656C29.2449 27.6727 29.2416 27.6892 29.2352 27.7046L29.0447 28.1671C29.0352 28.1904 29.019 28.2103 28.9981 28.2242C28.9772 28.2382 28.9526 28.2455 28.9274 28.2453Z" fill="#414141"/>
<path d="M30.0272 28.5248C30.0068 28.525 29.9867 28.5201 29.9686 28.5106C29.9505 28.5012 29.935 28.4874 29.9234 28.4706C29.9116 28.4539 29.904 28.4346 29.9014 28.4143C29.8988 28.3941 29.9012 28.3735 29.9085 28.3543L30.0109 28.0758C30.0191 28.0517 30.0343 28.0305 30.0547 28.0153C30.0751 28 30.0997 27.9913 30.1252 27.9903C30.1421 27.9897 30.1589 27.9923 30.1747 27.9981C30.1905 28.004 30.2051 28.0129 30.2175 28.0243C30.236 28.0418 30.2488 28.0644 30.2544 28.0892C30.26 28.114 30.258 28.1399 30.2487 28.1636L30.1462 28.4418C30.1372 28.4661 30.1209 28.4871 30.0997 28.5019C30.0784 28.5167 30.0531 28.5247 30.0272 28.5248Z" fill="#414141"/>
<path d="M31.1404 28.8899C31.1193 28.8899 31.0986 28.8846 31.0801 28.8746C31.0615 28.8645 31.0458 28.85 31.0343 28.8324C31.0228 28.8147 31.0158 28.7945 31.0141 28.7735C31.0124 28.7525 31.0159 28.7314 31.0244 28.7121L31.1856 28.3459C31.199 28.3146 31.224 28.2897 31.2554 28.2766C31.2871 28.2641 31.3225 28.2646 31.3539 28.2781C31.3693 28.285 31.3832 28.2949 31.3947 28.3072C31.4063 28.3194 31.4153 28.3339 31.4212 28.3497C31.4271 28.3655 31.4299 28.3823 31.4293 28.3991C31.4286 28.416 31.4247 28.4325 31.4176 28.4479L31.2564 28.8141C31.2466 28.8367 31.2304 28.856 31.2098 28.8694C31.1892 28.8829 31.165 28.89 31.1404 28.8899Z" fill="#414141"/>
<path d="M32.283 29.3098C32.253 29.3099 32.2239 29.2993 32.201 29.2798C32.1781 29.2604 32.1628 29.2334 32.158 29.2038C32.1547 29.1842 32.1561 29.164 32.162 29.145L32.294 28.725C32.2981 28.7083 32.3056 28.6925 32.316 28.6788C32.3265 28.6651 32.3397 28.6537 32.3548 28.6453C32.3699 28.637 32.3865 28.6318 32.4036 28.63C32.4207 28.6282 32.438 28.6298 32.4545 28.6348C32.471 28.6399 32.4862 28.6483 32.4993 28.6595C32.5124 28.6707 32.5231 28.6844 32.5307 28.6999C32.5383 28.7154 32.5427 28.7322 32.5436 28.7495C32.5444 28.7667 32.5418 28.7839 32.5358 28.8L32.404 29.22C32.3961 29.246 32.3801 29.2687 32.3583 29.2849C32.3365 29.301 32.3101 29.3098 32.283 29.3098Z" fill="#414141"/>
<path d="M33.279 29.5198C33.2582 29.5198 33.2377 29.5147 33.2193 29.5049C33.2009 29.4951 33.1853 29.4809 33.1737 29.4636C33.1621 29.4463 33.155 29.4264 33.1529 29.4057C33.1509 29.3849 33.154 29.364 33.162 29.3448L33.25 29.1348C33.2593 29.1112 33.2755 29.0909 33.2965 29.0767C33.3175 29.0625 33.3424 29.0549 33.3678 29.0551C33.3888 29.0551 33.4095 29.0604 33.428 29.0705C33.4465 29.0805 33.4622 29.095 33.4737 29.1126C33.4852 29.1303 33.4921 29.1505 33.4939 29.1715C33.4957 29.1924 33.4922 29.2135 33.4838 29.2328L33.396 29.4428C33.3863 29.4658 33.3701 29.4854 33.3492 29.4991C33.3284 29.5128 33.3039 29.52 33.279 29.5198Z" fill="#414141"/>
<path d="M32.416 31.5124C32.3967 31.5125 32.3776 31.5081 32.3602 31.4996C32.3428 31.4911 32.3276 31.4787 32.3157 31.4635C32.3039 31.4482 32.2956 31.4304 32.2917 31.4115C32.2878 31.3925 32.2882 31.3729 32.293 31.3542L32.3958 30.9522C32.4029 30.9235 32.4197 30.8982 32.4434 30.8806C32.4671 30.863 32.4962 30.8542 32.5257 30.8556C32.5552 30.8571 32.5832 30.8688 32.6051 30.8887C32.6269 30.9086 32.6411 30.9355 32.6453 30.9647C32.6474 30.9815 32.646 30.9986 32.6413 31.0149L32.5388 31.4169C32.5318 31.4442 32.516 31.4684 32.4938 31.4857C32.4716 31.503 32.4442 31.5124 32.416 31.5124Z" fill="#414141"/>
<path d="M31.185 30.9313L31.2877 30.7035C31.3022 30.674 31.3276 30.6512 31.3585 30.6402C31.3895 30.6291 31.4236 30.6306 31.4535 30.6443C31.4834 30.6577 31.5069 30.6823 31.5191 30.7127C31.5313 30.7432 31.5311 30.7772 31.5187 30.8075L31.4162 31.0353C31.4024 31.0659 31.377 31.0899 31.3456 31.1018C31.3142 31.1137 31.2793 31.1127 31.2486 31.0989C31.2179 31.0851 31.194 31.0597 31.1821 31.0283C31.1701 30.9968 31.1712 30.9619 31.185 30.9313Z" fill="#414141"/>
<path d="M29.8942 30.6919C29.8735 30.692 29.8531 30.6871 29.8349 30.6774C29.8166 30.6678 29.801 30.6538 29.7894 30.6366C29.7779 30.6195 29.7707 30.5999 29.7684 30.5794C29.7661 30.5589 29.7687 30.5381 29.7762 30.5189L29.9079 30.1819C29.9203 30.1506 29.9445 30.1255 29.9753 30.112C30.0062 30.0985 30.041 30.0978 30.0724 30.1099C30.088 30.1159 30.1022 30.125 30.1142 30.1365C30.1262 30.1481 30.1359 30.1619 30.1425 30.1772C30.1492 30.1925 30.1528 30.209 30.1531 30.2256C30.1533 30.2423 30.1503 30.2589 30.1442 30.2744L30.0122 30.6114C30.003 30.6352 29.9868 30.6556 29.9657 30.67C29.9446 30.6843 29.9197 30.692 29.8942 30.6919Z" fill="#414141"/>
<path d="M28.6794 30.2965C28.6585 30.2966 28.638 30.2915 28.6196 30.2817C28.6013 30.2719 28.5856 30.2576 28.5741 30.2402C28.5626 30.2229 28.5555 30.203 28.5534 30.1823C28.5513 30.1616 28.5543 30.1407 28.5621 30.1215L28.6939 29.7992C28.7 29.7837 28.7092 29.7696 28.721 29.7577C28.7327 29.7459 28.7467 29.7365 28.7621 29.7302C28.7775 29.7237 28.7939 29.7203 28.8106 29.7202C28.8272 29.7201 28.8437 29.7234 28.8591 29.7297C28.8902 29.7425 28.915 29.7671 28.928 29.7981C28.9411 29.8291 28.9413 29.864 28.9286 29.8952L28.7969 30.2175C28.7874 30.2409 28.7712 30.2609 28.7502 30.275C28.7293 30.2891 28.7046 30.2966 28.6794 30.2965Z" fill="#414141"/>
<path d="M27.4039 29.9748C27.3825 29.975 27.3613 29.9696 27.3425 29.9591C27.3237 29.9487 27.3079 29.9336 27.2967 29.9153C27.2853 29.8972 27.2787 29.8765 27.2775 29.8551C27.2764 29.8337 27.2806 29.8124 27.2899 29.7931L27.4649 29.4268C27.472 29.4116 27.482 29.3979 27.4943 29.3866C27.5067 29.3753 27.5212 29.3666 27.537 29.361C27.5528 29.3553 27.5695 29.3529 27.5862 29.3538C27.603 29.3547 27.6194 29.359 27.6344 29.3663C27.6497 29.3734 27.6633 29.3836 27.6744 29.3961C27.6856 29.4087 27.6941 29.4234 27.6994 29.4393C27.7049 29.4551 27.7072 29.4719 27.7062 29.4886C27.7051 29.5052 27.7008 29.5216 27.6934 29.5366L27.5184 29.9028C27.5081 29.9244 27.4919 29.9427 27.4716 29.9554C27.4513 29.9682 27.4279 29.9749 27.4039 29.9748Z" fill="#414141"/>
<path d="M26.3785 29.7249C26.3457 29.7246 26.3143 29.7117 26.2908 29.6888C26.2672 29.666 26.2534 29.635 26.252 29.6022C26.2513 29.5804 26.2562 29.5588 26.2663 29.5394L26.4273 29.2294C26.439 29.2074 26.457 29.1894 26.479 29.1775C26.5009 29.1656 26.5258 29.1604 26.5507 29.1626C26.5756 29.1647 26.5992 29.1741 26.6188 29.1896C26.6384 29.2051 26.653 29.226 26.6608 29.2497C26.6708 29.2818 26.6678 29.3166 26.6523 29.3464L26.4913 29.6564C26.4806 29.6771 26.4644 29.6944 26.4445 29.7065C26.4246 29.7186 26.4018 29.725 26.3785 29.7249Z" fill="#414141"/>
<path d="M25.1051 29.4147C25.073 29.4144 25.0421 29.4021 25.0187 29.3801C24.9953 29.3582 24.9811 29.3282 24.9788 29.2962C24.9774 29.2749 24.9813 29.2537 24.9903 29.2344L25.1368 28.9194C25.1436 28.904 25.1534 28.89 25.1657 28.8784C25.1779 28.8669 25.1924 28.8578 25.2081 28.8519C25.2239 28.8459 25.2407 28.8432 25.2576 28.8438C25.2745 28.8445 25.291 28.8485 25.3063 28.8556C25.3216 28.8627 25.3353 28.8728 25.3467 28.8853C25.358 28.8978 25.3667 28.9124 25.3723 28.9283C25.3779 28.9442 25.3803 28.9611 25.3793 28.978C25.3783 28.9948 25.374 29.0113 25.3666 29.0264L25.2201 29.3414C25.2098 29.3632 25.1935 29.3817 25.1732 29.3947C25.1528 29.4077 25.1292 29.4146 25.1051 29.4147Z" fill="#414141"/>
<path d="M29.1326 26.828C29.1133 26.8279 29.0944 26.8234 29.0771 26.815C29.0598 26.8066 29.0446 26.7944 29.0326 26.7793C29.0208 26.7641 29.0126 26.7464 29.0086 26.7276C29.0046 26.7087 29.005 26.6892 29.0096 26.6705L29.0761 26.4035C29.0853 26.372 29.1063 26.3453 29.1348 26.3289C29.1632 26.3125 29.197 26.3078 29.2288 26.3158C29.2607 26.3238 29.2882 26.3437 29.3057 26.3716C29.3231 26.3994 29.3291 26.4329 29.3223 26.465L29.2556 26.732C29.2488 26.7595 29.233 26.7839 29.2107 26.8013C29.1884 26.8187 29.1609 26.8281 29.1326 26.828Z" fill="#414141"/>
<path d="M36.6054 28.7069C36.5846 28.7067 36.5642 28.7015 36.5458 28.6917C36.5275 28.6819 36.5118 28.6678 36.5001 28.6506C36.4885 28.6333 36.4813 28.6135 36.4792 28.5928C36.477 28.572 36.48 28.5511 36.4879 28.5318L36.6489 28.1291C36.6613 28.0979 36.6857 28.0729 36.7166 28.0596C36.7475 28.0463 36.7824 28.0459 36.8136 28.0584C36.8449 28.0708 36.8699 28.0952 36.8831 28.1261C36.8964 28.157 36.8968 28.1919 36.8844 28.2231L36.7234 28.6261C36.714 28.6498 36.6978 28.6702 36.6768 28.6846C36.6557 28.699 36.6309 28.7067 36.6054 28.7069Z" fill="#414141"/>
<path d="M37.8493 29.0998C37.8291 29.0999 37.8093 29.0952 37.7913 29.086C37.7734 29.0768 37.758 29.0635 37.7463 29.047C37.7347 29.0307 37.7271 29.0118 37.7241 28.992C37.7211 28.9721 37.7228 28.9519 37.729 28.9328L37.8608 28.5395C37.8716 28.5077 37.8946 28.4814 37.9247 28.4665C37.9548 28.4516 37.9896 28.4491 38.0215 28.4598C38.0374 28.465 38.052 28.4734 38.0645 28.4843C38.0771 28.4952 38.0874 28.5085 38.0948 28.5234C38.1022 28.5384 38.1066 28.5546 38.1077 28.5712C38.1088 28.5878 38.1067 28.6045 38.1013 28.6203L37.9693 29.0133C37.9609 29.0385 37.9448 29.0604 37.9232 29.0759C37.9017 29.0914 37.8758 29.0998 37.8493 29.0998Z" fill="#414141"/>
<path d="M39.1246 29.5197C39.1051 29.5198 39.0858 29.5153 39.0684 29.5066C39.0509 29.4979 39.0357 29.4853 39.0239 29.4697C39.0121 29.4541 39.004 29.436 39.0003 29.4168C38.9966 29.3976 38.9974 29.3778 39.0026 29.359L39.1199 28.939C39.1289 28.9066 39.1504 28.8792 39.1797 28.8627C39.2089 28.8462 39.2435 28.8419 39.2759 28.851C39.3082 28.86 39.3357 28.8815 39.3522 28.9107C39.3687 28.94 39.3729 28.9746 39.3639 29.007L39.2469 29.427C39.2393 29.4536 39.2233 29.4771 39.2013 29.4938C39.1792 29.5105 39.1523 29.5196 39.1246 29.5197Z" fill="#414141"/>
<path d="M39.9888 29.9748C39.97 29.9747 39.9514 29.9706 39.9344 29.9626C39.9174 29.9546 39.9023 29.943 39.8903 29.9285C39.8783 29.914 39.8698 29.897 39.8653 29.8788C39.8606 29.8605 39.8601 29.8415 39.8638 29.823L39.9371 29.4568C39.9438 29.4237 39.9634 29.3946 39.9915 29.3759C40.0196 29.3571 40.0539 29.3503 40.0871 29.3568C40.1201 29.3635 40.1492 29.3831 40.1679 29.4112C40.1867 29.4393 40.1935 29.4736 40.1871 29.5068L40.1138 29.873C40.108 29.9018 40.0924 29.9277 40.0696 29.9463C40.0468 29.9649 40.0182 29.9749 39.9888 29.9748Z" fill="#414141"/>
<path d="M35.1833 30.1352C35.153 30.1353 35.1237 30.1245 35.1007 30.1047C35.0777 30.085 35.0626 30.0576 35.0581 30.0277C35.0551 30.0078 35.0568 29.9875 35.0631 29.9684L35.2381 29.4409C35.2499 29.4105 35.2729 29.3857 35.3025 29.3717C35.332 29.3577 35.3658 29.3555 35.3968 29.3657C35.4281 29.3758 35.4541 29.3977 35.4694 29.4268C35.4847 29.4558 35.4881 29.4897 35.4788 29.5212L35.3038 30.0487C35.2954 30.074 35.2793 30.096 35.2576 30.1115C35.236 30.127 35.21 30.1353 35.1833 30.1352Z" fill="#414141"/>
<path d="M36.244 30.3547C36.2246 30.3547 36.2055 30.3503 36.1882 30.3417C36.1708 30.3332 36.1556 30.3208 36.1437 30.3055C36.1319 30.2902 36.1237 30.2724 36.1198 30.2535C36.1159 30.2345 36.1164 30.2149 36.1212 30.1962L36.2042 29.8739C36.2129 29.8415 36.2339 29.8137 36.2627 29.7964C36.2843 29.7838 36.3092 29.7779 36.3342 29.7794C36.3591 29.7809 36.3831 29.7897 36.4031 29.8048C36.4231 29.8198 36.4381 29.8405 36.4464 29.8641C36.4547 29.8877 36.4559 29.9132 36.4497 29.9374L36.3665 30.2597C36.3597 30.287 36.344 30.3112 36.3217 30.3285C36.2995 30.3457 36.2721 30.3549 36.244 30.3547Z" fill="#414141"/>
<path d="M37.4392 30.6917C37.4194 30.6918 37.4 30.6872 37.3824 30.6782C37.3558 30.6649 37.3348 30.6426 37.323 30.6153C37.3112 30.5881 37.3093 30.5575 37.3177 30.529L37.4349 30.1335C37.4461 30.1032 37.4683 30.0784 37.4972 30.064C37.526 30.0495 37.5592 30.0466 37.5901 30.0558C37.621 30.0649 37.6473 30.0855 37.6636 30.1133C37.6799 30.1411 37.685 30.174 37.6779 30.2055L37.5607 30.601C37.5529 30.6272 37.5369 30.6502 37.5149 30.6665C37.4931 30.6829 37.4665 30.6918 37.4392 30.6917Z" fill="#414141"/>
<path d="M38.7442 31.11C38.7149 31.1099 38.6866 31.0997 38.6639 31.0812C38.6412 31.0627 38.6256 31.0369 38.6197 31.0083C38.6159 30.9892 38.6165 30.9696 38.6214 30.9508L38.7094 30.6203C38.7136 30.6041 38.721 30.589 38.7311 30.5757C38.7412 30.5624 38.7538 30.5513 38.7683 30.5429C38.7827 30.5345 38.7986 30.5291 38.8152 30.5269C38.8317 30.5248 38.8486 30.5259 38.8647 30.5303C38.8971 30.539 38.9248 30.5603 38.9416 30.5894C38.9584 30.6185 38.963 30.6531 38.9544 30.6855L38.8664 31.016C38.8593 31.043 38.8435 31.0669 38.8213 31.0839C38.7992 31.1009 38.7721 31.1101 38.7442 31.11Z" fill="#414141"/>
<path d="M39.8721 31.5125C39.8523 31.5128 39.8327 31.5084 39.8149 31.4996C39.7971 31.4909 39.7817 31.4781 39.7698 31.4622C39.7579 31.4464 39.7498 31.428 39.7462 31.4085C39.7426 31.389 39.7437 31.369 39.7493 31.35L39.8666 30.9477C39.8707 30.9312 39.8782 30.9158 39.8885 30.9023C39.8989 30.8888 39.9119 30.8777 39.9268 30.8695C39.9567 30.8529 39.992 30.8489 40.0248 30.8582C40.0411 30.8629 40.0562 30.8709 40.0694 30.8816C40.0825 30.8923 40.0934 30.9055 40.1013 30.9205C40.1092 30.9354 40.1141 30.9518 40.1155 30.9687C40.117 30.9856 40.1151 31.0026 40.1098 31.0187L39.9926 31.421C39.9851 31.4472 39.9694 31.4704 39.9476 31.4869C39.9259 31.5034 39.8994 31.5124 39.8721 31.5125Z" fill="#414141"/>
<path d="M40.9718 31.8346C40.9527 31.8347 40.9338 31.8305 40.9166 31.8224C40.8993 31.8143 40.884 31.8024 40.8718 31.7876C40.8599 31.7727 40.8514 31.7553 40.8471 31.7366C40.8427 31.718 40.8426 31.6986 40.8468 31.6799L40.9201 31.3574C40.9232 31.3406 40.9297 31.3247 40.9391 31.3105C40.9486 31.2963 40.9608 31.2842 40.9751 31.2749C40.9966 31.261 41.0218 31.2538 41.0475 31.2544C41.0731 31.255 41.098 31.2633 41.1188 31.2781C41.1395 31.2933 41.1552 31.3143 41.1638 31.3385C41.1724 31.3626 41.1735 31.3888 41.1671 31.4136L41.0938 31.7359C41.0876 31.7637 41.0722 31.7886 41.05 31.8065C41.0279 31.8244 41.0003 31.8343 40.9718 31.8346Z" fill="#414141"/>
<path d="M41.7772 32.4207C41.7579 32.4207 41.7387 32.4163 41.7213 32.4078C41.7039 32.3992 41.6887 32.3868 41.6769 32.3715C41.665 32.3562 41.6568 32.3383 41.653 32.3193C41.6491 32.3003 41.6496 32.2807 41.6545 32.262L41.7425 31.9245C41.7466 31.9082 41.7538 31.8928 41.7638 31.8793C41.7738 31.8658 41.7864 31.8544 41.8008 31.8458C41.8153 31.8372 41.8312 31.8315 41.8479 31.8291C41.8645 31.8267 41.8815 31.8276 41.8977 31.8317C41.914 31.8359 41.9293 31.8433 41.9427 31.8535C41.956 31.8638 41.9672 31.8766 41.9755 31.8912C41.9839 31.9058 41.9892 31.9219 41.9913 31.9386C41.9934 31.9553 41.9922 31.9723 41.9877 31.9885L41.9 32.326C41.8927 32.353 41.8767 32.3769 41.8546 32.394C41.8324 32.4111 41.8052 32.4205 41.7772 32.4207Z" fill="#414141"/>
<path d="M34.7301 32.0833C34.7094 32.0834 34.689 32.0784 34.6708 32.0687C34.6525 32.059 34.6369 32.045 34.6254 32.0278C34.6138 32.0107 34.6066 31.991 34.6043 31.9705C34.602 31.95 34.6047 31.9293 34.6121 31.91L34.7731 31.5005C34.7791 31.485 34.7882 31.4708 34.7997 31.4588C34.8112 31.4468 34.825 31.4372 34.8403 31.4305C34.8556 31.4239 34.872 31.4203 34.8887 31.4201C34.9053 31.4198 34.9219 31.4229 34.9374 31.429C34.9529 31.4351 34.967 31.4441 34.9791 31.4557C34.9911 31.4672 35.0007 31.481 35.0073 31.4963C35.014 31.5115 35.0176 31.528 35.0179 31.5446C35.0182 31.5613 35.0152 31.5778 35.0091 31.5933L34.8481 32.0028C34.8387 32.0265 34.8225 32.0468 34.8014 32.0611C34.7804 32.0755 34.7556 32.0832 34.7301 32.0833Z" fill="#414141"/>
<path d="M35.9509 32.4553C35.9303 32.4552 35.9101 32.4502 35.8919 32.4406C35.8737 32.431 35.8581 32.4171 35.8465 32.4001C35.8348 32.3831 35.8275 32.3636 35.8251 32.3432C35.8227 32.3227 35.8253 32.302 35.8326 32.2828L35.9726 31.9203C35.9786 31.9048 35.9876 31.8907 35.9991 31.8787C36.0106 31.8667 36.0243 31.8571 36.0395 31.8505C36.0547 31.8438 36.071 31.8402 36.0876 31.8399C36.1042 31.8395 36.1207 31.8425 36.1361 31.8485C36.1517 31.8544 36.1659 31.8633 36.178 31.8747C36.19 31.8861 36.1997 31.8997 36.2065 31.9149C36.2133 31.93 36.217 31.9464 36.2175 31.963C36.2179 31.9795 36.2151 31.9961 36.2091 32.0115L36.0691 32.3743C36.0598 32.3981 36.0435 32.4185 36.0224 32.4329C36.0014 32.4473 35.9764 32.4551 35.9509 32.4553Z" fill="#414141"/>
<path d="M37.279 32.9189C37.2485 32.9187 37.219 32.9076 37.1959 32.8875C37.1729 32.8674 37.1579 32.8397 37.1535 32.8094C37.1508 32.7893 37.1528 32.7688 37.1596 32.7496L37.3208 32.2954C37.3333 32.2653 37.3568 32.2412 37.3866 32.228C37.4163 32.2148 37.45 32.2135 37.4807 32.2244C37.5113 32.2353 37.5367 32.2576 37.5514 32.2866C37.5661 32.3156 37.5691 32.3492 37.5598 32.3804L37.3985 32.8344C37.3897 32.859 37.3734 32.8803 37.3521 32.8954C37.3307 32.9105 37.3052 32.9187 37.279 32.9189Z" fill="#414141"/>
<path d="M38.3923 33.3142C38.3618 33.314 38.3323 33.3029 38.3092 33.2828C38.2862 33.2627 38.2711 33.235 38.2668 33.2047C38.264 33.1846 38.2661 33.1641 38.2728 33.1449L38.4341 32.6909C38.4409 32.6712 38.4526 32.6534 38.468 32.6393C38.4834 32.6252 38.5021 32.6151 38.5224 32.6099C38.5427 32.6048 38.5639 32.6048 38.5842 32.6099C38.6045 32.615 38.6232 32.6251 38.6386 32.6392C38.6571 32.6561 38.6702 32.678 38.6763 32.7023C38.6825 32.7265 38.6813 32.7521 38.6731 32.7757L38.5118 33.2297C38.5029 33.2543 38.4867 33.2756 38.4653 33.2907C38.444 33.3058 38.4185 33.314 38.3923 33.3142Z" fill="#414141"/>
<path d="M39.549 33.6659C39.5288 33.666 39.5089 33.6613 39.4909 33.6521C39.4729 33.6429 39.4574 33.6296 39.4456 33.6132C39.4338 33.5968 39.4262 33.5778 39.4232 33.5578C39.4203 33.5379 39.4222 33.5175 39.4287 33.4984L39.5485 33.1469C39.5595 33.1155 39.5825 33.0898 39.6125 33.0753C39.6425 33.0608 39.677 33.0588 39.7085 33.0697C39.7398 33.0805 39.7657 33.1032 39.7806 33.1328C39.7955 33.1625 39.7983 33.1967 39.7885 33.2284L39.669 33.5802C39.6605 33.6053 39.6444 33.6271 39.6228 33.6425C39.6013 33.6579 39.5754 33.6661 39.549 33.6659Z" fill="#414141"/>
<path d="M40.7655 34.0468C40.746 34.0467 40.7269 34.0422 40.7094 34.0336C40.692 34.025 40.6767 34.0126 40.6647 33.9973C40.6529 33.9818 40.6449 33.9638 40.6411 33.9447C40.6373 33.9256 40.638 33.9059 40.643 33.8871L40.7455 33.5061C40.7546 33.4739 40.776 33.4466 40.805 33.4301C40.834 33.4135 40.8684 33.409 40.9007 33.4176C40.9329 33.4265 40.9603 33.4476 40.977 33.4765C40.9938 33.5054 40.9985 33.5397 40.9902 33.5721L40.8877 33.9531C40.8803 33.9799 40.8644 34.0035 40.8423 34.0204C40.8202 34.0374 40.7933 34.0466 40.7655 34.0468Z" fill="#414141"/>
<path d="M41.937 34.4281C41.9187 34.4282 41.9006 34.4242 41.884 34.4166C41.8674 34.4089 41.8527 34.3976 41.841 34.3835C41.8291 34.3696 41.8205 34.3534 41.8154 34.3358C41.8104 34.3183 41.8093 34.2998 41.812 34.2818L41.8707 33.9011C41.8776 33.8696 41.8962 33.842 41.9228 33.8238C41.9494 33.8056 41.9819 33.7983 42.0137 33.8033C42.0454 33.8084 42.0741 33.8252 42.0939 33.8505C42.1137 33.8757 42.1233 33.9075 42.1207 33.9395L42.0622 34.3205C42.0574 34.3504 42.0421 34.3775 42.0192 34.3972C41.9963 34.4169 41.9672 34.4278 41.937 34.4281Z" fill="#414141"/>
<path d="M27.6233 13.5364C27.6061 13.5365 27.5891 13.533 27.5733 13.5262C27.5574 13.5194 27.5432 13.5094 27.5313 13.4969C27.3635 13.3062 27.1336 13.181 26.8823 13.1434C26.6311 13.1059 26.3746 13.1584 26.1583 13.2917C26.1301 13.3092 26.096 13.3149 26.0636 13.3076C26.0312 13.3002 26.0029 13.2804 25.985 13.2524C25.967 13.2245 25.9607 13.1906 25.9675 13.158C25.9743 13.1255 25.9937 13.0969 26.0213 13.0784C26.2884 12.9171 26.6031 12.8532 26.9119 12.8977C27.2208 12.9422 27.5047 13.0923 27.7153 13.3225C27.7324 13.3404 27.7438 13.363 27.7481 13.3874C27.7524 13.4118 27.7495 13.437 27.7396 13.4597C27.7299 13.4825 27.7137 13.5019 27.693 13.5156C27.6723 13.5292 27.6481 13.5365 27.6233 13.5364Z" fill="#414141"/>
<path d="M13.9217 16.0051C13.1741 16.0223 12.4482 16.2597 11.8349 16.6875C11.2215 17.1154 10.7481 17.7147 10.4738 18.4104C10.1995 19.1061 10.1366 19.8672 10.2929 20.5985C10.4493 21.3298 10.8179 21.9987 11.3526 22.5215C11.8874 23.0442 12.5645 23.3975 13.2991 23.5372C14.0338 23.6769 14.7933 23.5968 15.4826 23.3068C16.1719 23.0168 16.7603 22.5298 17.1741 21.9069C17.588 21.2841 17.8088 20.5529 17.809 19.8051C17.7973 18.7858 17.3812 17.8128 16.6523 17.1002C15.9233 16.3875 14.9411 15.9937 13.9217 16.0051Z" fill="#FDAF31"/>
<path d="M25.2477 16.8537C25.1827 16.9842 25.3935 17.4924 25.9507 17.5094C26.508 17.5264 26.8122 17.0659 26.698 16.9299C26.548 16.7524 26.3275 16.9104 25.9715 16.8799C25.6155 16.8494 25.3397 16.6687 25.2477 16.8537Z" fill="#414141"/>
<path d="M25.1248 17.8748C24.9103 17.8748 24.5926 17.7248 24.7311 17.5628C24.7528 17.5374 24.7838 17.5216 24.8171 17.5189C24.8504 17.5162 24.8835 17.5268 24.9091 17.5483C24.9726 17.5974 25.0508 17.6235 25.1311 17.6224C25.2113 17.6212 25.2888 17.5929 25.3508 17.5421C25.3644 17.5324 25.3797 17.5255 25.3959 17.5217C25.4121 17.518 25.4289 17.5174 25.4454 17.5201C25.4618 17.5229 25.4775 17.5288 25.4916 17.5376C25.5058 17.5464 25.518 17.5579 25.5277 17.5715C25.5374 17.585 25.5443 17.6003 25.5481 17.6165C25.5519 17.6328 25.5524 17.6496 25.5497 17.666C25.5469 17.6824 25.541 17.6981 25.5322 17.7123C25.5234 17.7264 25.5119 17.7387 25.4983 17.7483C25.3903 17.8291 25.2596 17.8733 25.1248 17.8748Z" fill="#414141"/>
<path d="M38.4772 22.8336C38.4939 22.6809 38.3334 22.5381 38.1189 22.5146C37.9044 22.4911 37.7169 22.5961 37.7004 22.7489C37.6837 22.9014 37.8442 23.0444 38.0587 23.0679C38.2732 23.0911 38.4607 22.9864 38.4772 22.8336Z" fill="#FDAF31"/>
<path d="M34.5968 21.9766C34.6626 21.8378 34.5581 21.6503 34.3631 21.5578C34.1681 21.4653 33.9566 21.5028 33.8909 21.6418C33.8249 21.7806 33.9296 21.9681 34.1246 22.0606C34.3196 22.1531 34.5311 22.1156 34.5968 21.9766Z" fill="#FDAF31"/>
<path d="M38.3575 21.3361C38.3963 21.1191 38.3125 20.9218 38.165 20.8908C37.9883 20.8536 37.8383 21.0558 37.8018 21.2551C37.5585 21.2482 37.321 21.3301 37.1338 21.4856C36.9682 21.3407 36.7714 21.236 36.5588 21.1796C36.7115 20.8059 36.7176 20.3883 36.5758 20.0103C36.2155 19.1791 35.2283 19.2103 35.1868 19.2126C35.1533 19.2141 35.1217 19.2288 35.099 19.2534C35.0763 19.2781 35.0642 19.3108 35.0655 19.3443C35.0671 19.3778 35.0819 19.4093 35.1065 19.4321C35.1312 19.4548 35.1638 19.4669 35.1973 19.4658C35.2318 19.4658 36.0528 19.4408 36.3433 20.1111C36.4619 20.4418 36.45 20.8053 36.31 21.1276C36.1693 21.1074 36.027 21.1007 35.885 21.1073C35.8113 20.9219 35.6713 20.7704 35.4923 20.6823C35.5358 20.5203 35.513 20.2541 35.3245 20.2058C35.1818 20.1693 35.0245 20.3018 34.959 20.5058C34.5625 20.4396 34.0165 20.5021 33.8988 20.8808C33.7168 21.4673 34.4668 21.8153 35.1388 21.8393C35.8108 21.8633 35.9068 21.3843 35.9095 21.3611C36.0103 21.3573 36.111 21.3611 36.2113 21.3721C36.0875 21.6371 35.9407 21.8908 35.7725 22.1301C35.759 22.1491 35.751 22.1714 35.7495 22.1947C35.7479 22.218 35.7529 22.2412 35.7638 22.2618C35.7746 22.2825 35.7909 22.2997 35.8109 22.3118C35.8308 22.3238 35.8537 22.3301 35.877 22.3301C35.902 22.3301 35.867 22.3351 36.6203 22.1738C36.6448 22.1685 36.6671 22.1561 36.6846 22.1381C36.7021 22.1202 36.7139 22.0975 36.7185 22.0728C36.7223 22.0523 36.721 22.0312 36.7147 22.0113C36.7083 21.9914 36.6972 21.9734 36.6822 21.9589C36.6673 21.9443 36.6489 21.9337 36.6289 21.9279C36.6088 21.9222 36.5877 21.9214 36.5673 21.9258L36.1518 22.0148C36.2713 21.8246 36.3765 21.6258 36.4668 21.4201C36.6723 21.4688 36.8608 21.5726 37.0123 21.7201C36.879 22.2911 37.6463 22.6128 38.248 22.6128C38.635 22.6128 38.9833 22.3846 39.0303 22.2006C39.1398 21.7716 38.7838 21.4641 38.3575 21.3361ZM35.6495 21.3703C35.5405 21.8123 33.96 21.5286 34.14 20.9561C34.197 20.7706 34.5503 20.6896 34.9355 20.7576C34.9743 21.0271 35.201 21.1001 35.3735 20.9076C35.461 20.9477 35.5342 21.0134 35.5835 21.096C35.6328 21.1786 35.6558 21.2743 35.6495 21.3703ZM38.784 22.1368C38.7368 22.2936 37.934 22.5868 37.334 22.0403C37.2393 21.9546 37.134 21.4856 37.8128 21.5088C37.885 21.7451 38.1098 21.7758 38.2603 21.5711C38.2703 21.5733 38.2795 21.5768 38.2895 21.5798C38.4275 21.6248 38.8858 21.7971 38.784 22.1368Z" fill="#414141"/>
<path d="M46.5367 26.4579C46.596 26.3106 46.7967 25.4814 46.5497 25.1829C46.5497 25.1579 48.9712 17.6208 48.7215 17.2371C48.418 16.7706 36.7562 13.0238 30.1837 11.4173C29.3855 8.37285 27.2652 8.4546 26.6872 8.5371C26.6116 8.31955 26.4635 8.13455 26.2679 8.01302C26.0722 7.89148 25.8408 7.84077 25.6122 7.86935C25.5873 7.87192 25.5638 7.88175 25.5444 7.89762C25.5251 7.91349 25.5108 7.93469 25.5035 7.9586C25.4961 7.98259 25.496 8.00824 25.5033 8.03225C25.5106 8.05627 25.525 8.07755 25.5445 8.09335C25.5705 8.1146 25.6038 8.12467 25.6372 8.12135C25.6372 8.12135 26.1955 8.0981 26.4072 8.5126C22.5532 7.0456 21.0462 11.1443 20.797 11.9078C20.4907 11.9056 5.50622 12.0938 4.07197 12.2578C3.70097 12.3006 3.65272 12.3346 3.61497 12.3846C3.45297 12.5976 3.54222 19.4298 3.55772 19.6776C3.09322 19.7653 3.09697 20.7821 3.11422 21.1526C2.45697 21.4391 1.97346 21.8218 2.42821 22.3719C2.42821 22.4181 2.08246 22.8823 2.55446 23.2193C2.38721 23.8603 2.85072 23.8741 2.98672 23.9061C2.85122 24.3134 3.23922 24.4416 3.69672 24.2589C3.78947 26.8304 4.11897 31.7069 4.15672 31.8164C4.16546 31.8414 4.18822 31.9269 4.26622 31.9379C6.23522 32.2209 24.3515 31.7879 24.6647 31.7164C24.8632 31.6716 24.8502 31.0114 24.8647 30.4811C30.2562 32.4209 42.3955 36.0081 42.7647 35.9811C42.8037 35.9784 42.8192 35.9766 42.8297 35.9681C43.1932 35.6789 45.0065 29.9876 45.3282 29.0011C45.945 29.3681 46.1322 29.0191 46.1295 28.9351C46.1976 28.9513 46.2686 28.9514 46.3368 28.9356C46.405 28.9198 46.4687 28.8885 46.5228 28.844C46.5769 28.7996 46.62 28.7432 46.6488 28.6793C46.6775 28.6155 46.6911 28.5458 46.6885 28.4759C46.7965 28.4419 47.1635 28.3391 47.021 27.8009C47.0952 27.7648 47.1592 27.7108 47.2072 27.6437C47.2552 27.5767 47.2857 27.4987 47.296 27.4169C47.3082 27.1676 46.9627 26.7159 46.5367 26.4579ZM28.3952 12.8498C28.3742 12.9056 28.3525 12.9633 28.3302 13.0248C27.7398 12.6894 27.2394 12.216 26.8717 11.6451C27.3153 12.1219 27.829 12.5282 28.3952 12.8498ZM26.1937 11.3118C25.9065 11.7003 25.4825 11.9653 25.0075 12.0531C24.9764 12.0602 24.9491 12.0788 24.9311 12.1052C24.9131 12.1315 24.9057 12.1636 24.9104 12.1952C24.9151 12.2268 24.9315 12.2554 24.9563 12.2754C24.9812 12.2954 25.0126 12.3053 25.0445 12.3031C25.3267 12.2552 25.5962 12.1501 25.8363 11.9943C26.0764 11.8384 26.2821 11.6351 26.4407 11.3968C26.8362 12.1886 27.465 12.84 28.2422 13.2633C28.2327 13.2898 27.9002 14.2086 27.7585 14.6133C27.6084 14.4131 27.3863 14.2791 27.1392 14.2396C27.0675 13.8146 26.6497 13.7896 26.5552 14.2068C25.669 14.3013 25.6327 14.9669 26.0165 15.2509C26.5255 15.6276 27.324 15.4759 27.4797 15.4124C27.0123 16.7648 26.5545 18.1206 26.1065 19.4796C25.364 19.9723 24.8197 19.6169 24.6762 19.5019C24.6762 19.3519 24.5842 17.3326 24.5842 17.3071C24.7392 17.2103 24.9827 17.0321 24.9677 16.8753C24.9522 16.7146 24.7322 16.7753 24.5605 16.8121C24.5577 16.7871 24.558 16.7298 24.5315 16.2438L25.5315 15.9316C25.5479 15.9272 25.5633 15.9195 25.5767 15.909C25.59 15.8985 25.6011 15.8853 25.6092 15.8703C25.6217 15.8479 25.6271 15.8222 25.6246 15.7966C25.6221 15.771 25.6119 15.7468 25.5953 15.7272C25.5787 15.7076 25.5565 15.6935 25.5317 15.6868C25.5069 15.68 25.4807 15.681 25.4565 15.6896L24.653 15.9396C24.8987 15.4476 25.363 14.4083 25.2682 13.7508C25.1542 12.9608 24.621 12.7223 24.2707 12.6956C24.2707 12.6956 24.1807 12.1531 24.1457 12.0768C24.8784 11.9841 25.5795 11.7224 26.1937 11.3123V11.3118ZM27.5955 14.9656C27.5595 15.3041 26.5727 15.3721 26.1742 15.0541C25.928 14.8576 25.9905 14.5321 26.5517 14.4621C26.6312 14.8621 27.0222 14.8901 27.1267 14.4998C27.17 14.5073 27.6335 14.6221 27.5955 14.9661V14.9656ZM25.96 19.9261L24.8022 23.5011L24.711 20.4761C25.1662 20.3987 25.5953 20.2099 25.96 19.9266V19.9261ZM24.301 12.9568C24.5165 12.9886 24.9237 13.1356 25.018 13.7888C25.1105 14.4313 24.501 15.7001 24.501 15.6738C24.455 14.8816 24.389 13.7748 24.301 12.9568ZM3.56347 19.9461L3.59097 20.9864C3.51597 21.0054 3.43922 21.0276 3.36397 21.0536C3.35072 20.5561 3.42172 20.0526 3.56347 19.9461ZM2.50572 21.9189C2.71472 21.1414 4.48072 20.9438 4.69847 21.2501C4.73297 21.2913 4.67072 21.3903 4.39572 21.4841C4.19947 21.5066 3.19821 21.6463 2.59921 22.1811C2.55682 22.1539 2.52464 22.1134 2.50773 22.0659C2.49081 22.0185 2.4901 21.9667 2.50572 21.9189ZM2.53621 22.7939C2.59021 21.8546 4.68172 21.5031 4.93096 21.8709C4.93096 21.8709 5.00397 22.0121 4.50872 22.2459C3.85469 22.3647 3.23389 22.6229 2.68847 23.0029C2.62597 22.9569 2.53096 22.8844 2.53621 22.7946V22.7939ZM2.82096 23.2321C2.82096 23.1344 4.41846 22.0761 5.03596 22.6461C5.03596 22.6461 5.01372 22.7801 4.39271 23.0386C3.93152 23.1611 3.50066 23.3778 3.12722 23.6748C3.02422 23.6601 2.55146 23.6538 2.82096 23.2329V23.2321ZM3.21147 24.0556C3.15797 23.8594 4.32021 22.9754 5.05346 23.3749C5.11621 23.5524 3.29922 24.3224 3.21147 24.0564V24.0556ZM24.5445 31.4821C24.356 31.5146 23.8165 31.5494 23.0102 31.5841C22.5567 30.6931 19.5577 25.2364 14.1852 25.2364C8.62272 25.2364 5.84247 30.7916 5.39272 31.7791C5.04299 31.7725 4.69396 31.7452 4.34747 31.6974C4.31846 31.5924 4.04972 27.0401 3.94747 24.1824C4.08497 24.1361 4.24372 24.0774 4.42547 24.0029C5.09847 23.7279 5.35622 23.5306 5.31422 23.3233C5.28672 23.1836 5.12222 23.1081 4.91597 23.0706C5.47222 22.7536 5.36797 22.4301 4.88622 22.2991C5.35247 21.9458 5.23872 21.6398 4.79497 21.5276C4.94272 21.4009 4.98797 21.2744 4.93047 21.1481C4.82672 20.9231 4.36472 20.8481 3.84372 20.9329C3.71872 16.3828 3.70547 12.9806 3.81697 12.5511C4.30022 12.4171 23.5085 12.0511 23.9237 12.1976C24.0697 12.6371 24.617 19.9258 24.5677 24.2441C23.9027 26.3534 23.0022 29.6441 23.0045 29.7246C23.0027 29.7527 23.0086 29.7807 23.0213 29.8058C23.034 29.8309 23.0533 29.8522 23.077 29.8674C23.1335 29.9014 23.7135 30.0999 24.617 30.3984C24.6195 30.7611 24.5952 31.1236 24.5445 31.4829V31.4821ZM32.8762 32.7866C32.8512 32.7741 23.8262 29.8886 23.2587 29.6711C23.2787 29.5279 23.3077 29.3859 23.345 29.2461C23.431 29.1461 27.7172 23.9174 33.7267 26.2516L34.01 29.1686L32.8762 32.7866ZM33.5262 23.1164C33.3813 22.4107 33.3582 21.6855 33.458 20.9721C33.458 20.9721 32.4975 20.5971 32.619 20.0889C32.7847 19.3946 33.65 19.9138 33.9975 20.1114C34.2675 20.2646 34.3035 19.4251 35.1537 18.9758C36.2102 18.4176 37.334 17.7493 37.334 17.7493C36.9189 18.2208 36.3904 18.5785 35.7985 18.7886C35.7695 18.7974 35.7446 18.8164 35.7284 18.8421C35.7123 18.8678 35.7059 18.8984 35.7105 18.9283C35.7151 18.9582 35.7301 18.9855 35.7529 19.0054C35.7757 19.0252 35.8047 19.0364 35.835 19.0368C35.9875 19.0296 36.63 18.7984 37.2915 18.1618C37.1301 18.4401 36.8852 18.6606 36.5915 18.7918C36.5605 18.8048 36.536 18.8295 36.5231 18.8605C36.5102 18.8915 36.5101 18.9263 36.5227 18.9573C36.543 19.0061 36.5925 19.0506 36.64 19.0358C36.8815 18.9609 37.0997 18.8249 37.2733 18.641C37.4468 18.457 37.57 18.2314 37.6307 17.9858C37.7142 18.6062 38.01 19.1786 38.4677 19.6056C38.4913 19.628 38.5227 19.6405 38.5552 19.6404C38.5878 19.6404 38.6191 19.6278 38.6426 19.6053C38.6661 19.5828 38.6801 19.5521 38.6816 19.5196C38.6831 19.487 38.6721 19.4552 38.6507 19.4306C38.3038 19.0938 38.0534 18.6702 37.9257 18.2038C38.3018 18.7941 38.7142 19.3603 39.1605 19.8994C39.4705 20.2884 39.241 21.3644 39.329 21.5476C39.417 21.7309 40.494 21.6649 40.4917 22.4201C40.49 23.0736 39.3527 22.6466 39.258 22.8513C38.8602 23.7108 38.0762 25.2321 36.608 25.2094C36.577 25.2066 36.5461 25.2147 36.5204 25.2322C36.4948 25.2498 36.4761 25.2757 36.4675 25.3056L36.1255 26.7604L34.235 28.8821L33.9742 26.1781L34.1742 25.5329C34.5395 25.5924 35.531 25.6944 36.0142 25.1536C36.0135 25.1536 34.4072 25.1884 33.527 23.1171L33.5262 23.1164ZM42.9655 35.1249C42.891 35.3309 42.8055 35.5326 42.7097 35.7296C42.2222 35.6766 38.678 34.6176 33.1182 32.8646L34.252 29.2479L36.2845 26.9661C39.9095 27.9889 41.5345 30.1411 42.2562 31.7716C42.727 32.8267 42.9687 33.9695 42.9655 35.1249ZM43.2025 34.4829C43.1245 33.5154 42.8847 32.5678 42.4932 31.6796C41.7515 30.0011 40.0912 27.7896 36.3947 26.7336L36.6917 25.4681C37.2431 25.4642 37.7717 25.2471 38.1667 24.8624C39.282 24.6601 39.9667 23.5081 40.204 23.0353C41.0505 22.7936 40.7262 22.0799 40.6222 21.9339C40.6222 21.9339 41.1897 19.8561 40.6722 18.5376C40.1755 17.2721 39.1775 16.5736 38.164 16.5376C38.1324 16.3619 38.0574 16.197 37.9458 16.0577C37.8342 15.9185 37.6895 15.8094 37.525 15.7404C37.494 15.7273 37.4591 15.7271 37.4279 15.7398C37.3968 15.7526 37.372 15.7771 37.359 15.8081C37.3459 15.8391 37.3458 15.874 37.3585 15.9051C37.3712 15.9363 37.3957 15.9611 37.4267 15.9741C37.6215 16.0616 37.7787 16.2156 37.8705 16.4086C37.4103 16.1203 36.8647 15.9998 36.326 16.0673C35.0555 16.1906 33.1317 17.5478 32.928 19.4963C31.9992 19.8276 32.4425 20.5633 32.603 20.7406C32.578 21.1283 32.5702 22.2831 33.2397 22.9356C33.3615 23.5841 33.6984 24.1727 34.196 24.6061L33.7645 25.9946C32.6882 25.5491 28.241 23.9591 23.4782 28.7336C25.124 23.1976 28.6282 12.6586 29.2387 11.4796C35.6585 13.0258 48.1442 17.0926 48.495 17.3636C48.529 17.9719 46.2072 25.3069 45.9755 26.1554C45.5837 25.9961 44.8177 25.9259 45.0787 26.4524C44.4465 26.5081 44.6492 26.8696 44.799 27.0696C44.1095 27.0259 44.3812 27.5051 44.5652 27.6964C44.358 27.6789 44.2282 27.7201 44.177 27.8201C44.087 27.9951 44.263 28.2236 44.8035 28.6366C44.9142 28.7214 45.015 28.7944 45.1062 28.8574C44.339 31.2141 43.6515 33.2439 43.2025 34.4824V34.4829ZM46.319 26.3209C46.294 26.3081 46.275 26.2944 46.2085 26.2619L46.4405 25.5296C46.4685 25.7992 46.4267 26.0716 46.319 26.3204V26.3209ZM45.8742 28.9649C45.7742 29.1001 44.2597 28.1439 44.4275 27.9456C44.707 27.6159 45.986 28.7339 45.8742 28.9649ZM46.056 28.6721C45.7835 28.1334 44.5327 27.5609 44.618 27.3429C44.978 26.8569 47.2937 28.8676 46.0565 28.6721H46.056ZM46.797 28.1029C46.7509 28.1625 46.6884 28.2073 46.6172 28.2319C46.5267 28.0796 45.8607 27.3234 45.1837 27.1241C44.8037 26.8241 44.9012 26.7294 44.9012 26.7294C45.588 26.5749 47.0205 27.7999 46.7975 28.1029H46.797ZM46.9042 27.5726C46.5024 27.1316 46.0171 26.7747 45.4765 26.5226C45.39 26.4579 45.3204 26.3733 45.2735 26.2761C45.8305 26.1011 47.0867 27.1966 47.0417 27.4034C47.0315 27.4394 47.0141 27.4729 46.9905 27.502C46.967 27.5311 46.9378 27.5551 46.9047 27.5726H46.9042Z" fill="#414141"/>
<path d="M35.958 22.7133C35.958 22.8161 35.7515 23.0753 35.2557 23.0271C34.8545 22.9878 34.6962 22.6903 34.7627 22.5293C34.867 22.2778 35.1245 22.4596 35.3627 22.5001C35.578 22.5363 35.9582 22.5331 35.958 22.7133Z" fill="#414141"/>
<path d="M36.1625 22.7821C36.1083 22.8696 36.1375 23.1881 36.6013 23.3691C36.9763 23.5156 37.3188 23.3114 37.3195 23.1374C37.3195 22.8994 36.9838 22.9639 36.7523 22.8919C36.5443 22.8274 36.2605 22.6249 36.1625 22.7821Z" fill="#414141"/>
<path d="M23.6099 40.1023H18.9941C18.9859 40.0773 16.1479 32.4503 16.1381 32.4255C15.9331 31.8943 15.5631 30.6755 13.7099 30.6755C11.4241 30.6755 4.13485 30.827 3.40185 30.832C1.73685 30.843 1.0686 31.8885 1.5091 33.337C2.09185 35.2533 4.03685 40.6588 4.03685 40.6588C4.03685 40.6588 4.32985 42.0065 6.2051 42.0065C8.08035 42.0065 16.1674 41.8893 17.3396 41.86C17.9096 41.8458 18.4581 41.7963 18.7944 41.5475H23.6966C23.7836 41.5475 24.4986 41.655 24.4986 40.8833C24.4986 40.1115 24.0006 40.1023 23.6099 40.1023Z" fill="white"/>
<path d="M23.6583 39.9565C23.4033 39.9477 19.3278 40.0197 19.1005 40.021C19.0825 39.9662 16.0148 31.8087 15.9918 31.7672C15.6853 31.1987 15.0833 30.549 13.7098 30.549C12.2018 30.549 3.49978 30.7047 3.40128 30.7055C1.66378 30.7175 0.917782 31.8305 1.38803 33.3747C1.95603 35.2415 3.83653 40.4747 3.91553 40.6952C3.99201 40.9654 4.13208 41.2133 4.32403 41.4182C4.62253 41.745 5.19053 42.134 6.20528 42.134C8.04453 42.134 16.1553 42.0167 17.3428 41.987C17.8073 41.9752 18.4043 41.9455 18.7963 41.7004C19.251 41.698 23.7003 41.6592 23.7003 41.6592C24.1063 41.6455 24.6623 41.6267 24.6453 40.8422C24.6265 39.9887 23.9965 39.9677 23.6583 39.9565ZM17.3363 41.7335C16.1495 41.763 8.04378 41.8805 6.20528 41.8805C4.46178 41.8805 4.17278 40.683 4.16103 40.6322C4.14603 40.5725 2.22778 35.2637 1.63078 33.301C1.20578 31.9045 1.85578 30.9692 3.40253 30.959C3.50253 30.959 12.175 30.8025 13.7098 30.8025C14.644 30.8025 15.3348 31.1055 15.7738 31.8947C16.5023 33.7337 18.8883 40.177 18.8935 40.202C19.0365 40.6677 19.0973 41.1917 18.696 41.4642C18.6902 41.4679 18.6847 41.4719 18.6793 41.4762C18.391 41.6645 17.9258 41.719 17.3363 41.7335ZM23.6918 41.406C23.256 41.4205 19.6355 41.442 19.075 41.4452C19.315 41.115 19.2805 40.6702 19.1768 40.273C19.1768 40.273 23.2518 40.198 23.6498 40.2097C24.0625 40.2235 24.3793 40.2792 24.3915 40.8477C24.4028 41.3582 24.1593 41.3902 23.6918 41.406Z" fill="#414141"/>
<path d="M9.34581 37.2164C9.55563 37.2164 9.75686 37.1331 9.90522 36.9847C10.0536 36.8363 10.1369 36.6351 10.1369 36.4253C10.1369 36.2155 10.0536 36.0142 9.90522 35.8659C9.75686 35.7175 9.55563 35.6342 9.34581 35.6342C9.13599 35.6342 8.93477 35.7175 8.7864 35.8659C8.63804 36.0142 8.55469 36.2155 8.55469 36.4253C8.55469 36.6351 8.63804 36.8363 8.7864 36.9847C8.93477 37.1331 9.13599 37.2164 9.34581 37.2164Z" fill="#414141"/>
<path d="M22.1455 39.1845C22.1159 39.184 22.0873 39.1733 22.0647 39.1542C22.0421 39.135 22.0268 39.1086 22.0215 39.0795C22.0163 39.0502 22.0215 39.0201 22.0363 38.9943C22.0511 38.9686 22.0744 38.9488 22.1022 38.9385L26.2045 37.4527C26.2283 37.4435 26.2543 37.4416 26.2791 37.4472C26.304 37.4529 26.3267 37.4657 26.3442 37.4842C26.3615 37.5031 26.3727 37.5266 26.3764 37.5519C26.3802 37.5771 26.3763 37.6029 26.3652 37.626C26.3578 37.6412 26.3474 37.6549 26.3346 37.666C26.3218 37.6772 26.3069 37.6857 26.2907 37.691C22.148 39.191 22.1805 39.1845 22.1455 39.1845Z" fill="#414141"/>
<path d="M21.6323 38.0319C21.6068 38.032 21.5819 38.0243 21.5609 38.0099C21.5398 37.9955 21.5237 37.975 21.5146 37.9511C21.5053 37.9274 21.5034 37.9015 21.509 37.8766C21.5147 37.8518 21.5277 37.8292 21.5463 37.8119L23.4841 36.0204C23.5089 35.9977 23.5416 35.9857 23.5752 35.987C23.6087 35.9883 23.6404 36.0028 23.6633 36.0274C23.6747 36.0396 23.6836 36.0539 23.6894 36.0695C23.6952 36.0851 23.6978 36.1017 23.6972 36.1184C23.6965 36.135 23.6926 36.1514 23.6856 36.1665C23.6786 36.1816 23.6686 36.1951 23.6563 36.2064C21.6556 38.0574 21.7096 38.0319 21.6323 38.0319Z" fill="#414141"/>
<path d="M20.1814 37.6216C20.1606 37.6218 20.14 37.6168 20.1216 37.6069C20.1032 37.5971 20.0876 37.5828 20.0761 37.5654C20.0646 37.5481 20.0574 37.5282 20.0553 37.5075C20.0532 37.4868 20.0563 37.4659 20.0642 37.4466L21.4437 34.0499C21.4563 34.0187 21.4808 33.9939 21.5117 33.9808C21.5426 33.9677 21.5775 33.9675 21.6087 33.9801C21.6398 33.9928 21.6646 34.0172 21.6777 34.0482C21.6908 34.0791 21.691 34.114 21.6784 34.1451L20.2989 37.5424C20.2896 37.5659 20.2733 37.586 20.2524 37.6001C20.2314 37.6143 20.2067 37.6218 20.1814 37.6216Z" fill="#414141"/>
</svg>
