<svg width="70" height="70" viewBox="0 0 70 70" fill="none" xmlns="http://www.w3.org/2000/svg">
<rect width="70" height="70" rx="10" fill="#E7F8FF"/>
<path d="M34.7038 41.1479C34.6905 41.6245 34.6505 42.1 34.5841 42.5721C34.4971 42.845 28.5202 42.9201 15.1022 43.1977C15.1022 43.1977 17.2841 47.3177 21.6965 47.5532C24.352 47.6947 26.7642 44.9893 27.7479 43.7153L27.1679 53.5394C27.1679 53.5394 41.817 54.5834 45.4379 51.67L44.2437 45.8239C44.7947 47.2214 45.8894 49.0096 47.9244 49.2523C48.8653 49.3618 49.8182 49.2111 50.6794 48.8167C51.5407 48.4224 52.2773 47.7994 52.8091 47.0155L34.7038 41.1479Z" fill="#005BC3"/>
<path d="M62.3896 26.025C62.0497 25.4131 40.2336 18.8709 39.8464 19.1337C39.2797 19.5188 32.5048 40.2747 32.8446 40.4777C33.1845 40.6807 55.2094 47.7512 55.6172 47.5473C56.0249 47.3434 62.7294 26.6366 62.3896 26.025Z" fill="#7BD2FF"/>
<path d="M9.72435 30.5739C9.72435 30.5739 9.61937 28.9763 10.2652 28.9085C10.2652 28.9085 10.03 20.9662 10.3345 20.4677C10.639 19.9692 33.6154 19.924 33.6154 19.924C33.6154 19.924 36.2892 19.199 36.8785 18.6323C37.4229 19.5423 38.2337 20.263 39.2011 20.6971C39.2011 20.6971 33.7799 36.3745 33.0377 39.6828C33.0377 39.6828 38.3198 33.6508 45.2928 36.3067L45.8288 34.4713C45.8288 34.4713 44.2314 33.36 44.6279 30.4945C44.6279 30.4945 43.3971 29.7327 43.7089 29.135C44.1326 28.323 45.4805 29.1576 45.4805 29.1576C45.4805 29.1576 46.7086 25.5932 49.7038 26.3736C51.0972 26.7367 52.2157 28.5164 51.743 30.7894C51.743 30.7894 53.3177 31.2705 53.0912 32.044C52.8647 32.8174 51.6862 32.6579 51.6862 32.6579C51.6862 32.6579 50.7347 35.3212 48.446 35.4004L48.0609 37.1001C48.0609 37.1001 55.4138 38.6183 55.9915 46.4016C55.9915 46.4016 55.7671 47.485 55.5725 47.5906C55.3779 47.6961 34.6635 41.1439 34.6635 41.1439C34.6635 41.1439 34.6945 42.5649 34.5562 42.6284C33.9666 42.9001 12.3158 43.2005 10.9336 42.9114L10.4238 33.9698C10.4238 33.9698 9.36736 34.4457 9.59646 33.6129C9.59646 33.6129 8.75546 33.6639 9.10346 32.8397C9.10346 32.8397 8.50867 32.6103 8.9428 31.8624C8.94309 31.8624 8.18619 31.2053 9.72435 30.5739Z" fill="white"/>
<path d="M34.5692 31.0822C34.9309 31.1028 35.2937 31.0787 35.6495 31.0103L34.7186 33.8723L34.5692 31.0822Z" fill="#005BC3"/>
<path d="M59.7981 35.2778C59.7981 35.2778 60.2569 35.5159 59.7981 36.6971C59.7981 36.6971 61.4221 37.8185 60.3132 38.1245C60.3132 38.1245 60.6478 38.9075 59.9255 38.8808C59.9255 38.8808 60.1635 39.6142 59.3307 39.3738C59.3307 39.3738 59.5006 40.198 58.2092 39.2761C56.9179 38.3542 57.4184 38.1564 57.8612 38.2097C57.8612 38.2097 57.1304 37.4102 58.1588 37.4955C58.1588 37.4955 57.428 36.7481 58.4647 36.8163C58.4647 36.8163 57.9123 35.9327 59.3907 36.5318L59.7981 35.2778Z" fill="white"/>
<path d="M51.3007 29.987C51.2736 29.9871 51.2471 29.9796 51.224 29.9655C51.2009 29.9514 51.1822 29.9311 51.1699 29.9069C50.7039 28.9972 49.6593 29.4139 49.6149 29.4319C49.5789 29.4468 49.5384 29.4468 49.5024 29.4319C49.4664 29.417 49.4377 29.3883 49.4228 29.3523C49.4079 29.3163 49.4079 29.2758 49.4228 29.2398C49.4377 29.2037 49.4664 29.1751 49.5024 29.1602C49.9629 28.9691 50.9594 28.8505 51.4315 29.773C51.4431 29.7953 51.4486 29.8202 51.4474 29.8455C51.4464 29.8836 51.4304 29.9197 51.403 29.9462C51.3755 29.9727 51.3388 29.9873 51.3007 29.987Z" fill="#414141"/>
<path d="M47.2706 33.1612C47.2424 33.1343 47.2261 33.0973 47.2253 33.0583C47.2244 33.0194 47.239 32.9817 47.2659 32.9536C47.2929 32.9254 47.3299 32.9091 47.3688 32.9082C47.4077 32.9074 47.4454 32.922 47.4736 32.9489C47.5374 33.0029 47.6139 33.0397 47.6959 33.056C47.7779 33.0722 47.8627 33.0673 47.9422 33.0417C47.979 33.0315 48.0183 33.0361 48.0518 33.0544C48.0853 33.0728 48.1103 33.1035 48.1214 33.14C48.1327 33.1765 48.1293 33.2158 48.1121 33.2498C48.0949 33.2838 48.0652 33.3099 48.0292 33.3224C47.8996 33.3637 47.7616 33.3706 47.6285 33.3423C47.4955 33.314 47.3722 33.2516 47.2706 33.1612Z" fill="#414141"/>
<path d="M52.1421 32.0437C52.1165 32.0438 52.0915 32.0372 52.0693 32.0245C52.0471 32.0119 52.0286 31.9937 52.0156 31.9718C52.0026 31.9498 51.9955 31.9248 51.9951 31.8993C51.9947 31.8738 52.001 31.8486 52.0133 31.8262C52.0294 31.7963 52.0555 31.7729 52.087 31.7601L52.2627 31.6894C52.2989 31.6748 52.3394 31.6752 52.3753 31.6905C52.4112 31.7057 52.4395 31.7347 52.4541 31.7709C52.4687 31.807 52.4683 31.8475 52.453 31.8834C52.4377 31.9193 52.4088 31.9477 52.3726 31.9623C52.2001 32.0319 52.1824 32.0437 52.1421 32.0437Z" fill="#414141"/>
<path d="M44.4322 29.6745C44.411 29.6362 44.3844 29.6012 44.353 29.5707C44.3271 29.5438 44.3124 29.508 44.3119 29.4707C44.3114 29.4333 44.3251 29.3971 44.3502 29.3695C44.3754 29.3419 44.4101 29.3248 44.4473 29.3218C44.4845 29.3188 44.5215 29.33 44.5508 29.3532C44.608 29.407 44.6561 29.4697 44.6932 29.5388C44.7046 29.5603 44.7106 29.5842 44.7104 29.6085C44.7103 29.6328 44.7041 29.6567 44.6924 29.678C44.6807 29.6993 44.6639 29.7174 44.6435 29.7305C44.6231 29.7437 44.5997 29.7516 44.5755 29.7534C44.5465 29.7558 44.5174 29.7496 44.492 29.7355C44.4665 29.7215 44.4457 29.7003 44.4322 29.6745Z" fill="#414141"/>
<path d="M41.3583 37.3491C41.3359 37.3491 41.3137 37.344 41.2935 37.3341C41.2733 37.3242 41.2556 37.3098 41.2419 37.292C41.2281 37.2742 41.2187 37.2535 41.2142 37.2315C41.2097 37.2094 41.2103 37.1867 41.2159 37.1649L41.3363 36.7009C41.3477 36.665 41.3725 36.6348 41.4055 36.6165C41.4385 36.5983 41.4772 36.5934 41.5137 36.6029C41.5503 36.6124 41.5817 36.6355 41.6017 36.6675C41.6217 36.6995 41.6286 36.7379 41.6211 36.7749L41.5007 37.2389C41.4926 37.2704 41.4742 37.2984 41.4484 37.3184C41.4226 37.3383 41.3909 37.3491 41.3583 37.3491Z" fill="#414141"/>
<path d="M42.9784 37.6458L43.1651 37.2766C43.1786 37.251 43.1992 37.2298 43.2245 37.2156C43.2498 37.2014 43.2786 37.1948 43.3075 37.1966C43.3268 37.1979 43.3457 37.2031 43.3629 37.2118C43.3802 37.2205 43.3956 37.2325 43.4082 37.2472C43.4208 37.2619 43.4304 37.2789 43.4363 37.2973C43.4423 37.3157 43.4445 37.3351 43.443 37.3543C43.4416 37.3736 43.4363 37.3925 43.4276 37.4097L43.2408 37.7789C43.2274 37.8046 43.2067 37.8258 43.1815 37.84C43.1562 37.8542 43.1274 37.8608 43.0984 37.8589C43.0792 37.8576 43.0603 37.8524 43.043 37.8437C43.0258 37.835 43.0104 37.823 42.9978 37.8083C42.9852 37.7937 42.9756 37.7766 42.9697 37.7583C42.9637 37.7399 42.9614 37.7205 42.963 37.7012C42.9644 37.6819 42.9696 37.6631 42.9784 37.6458Z" fill="#414141"/>
<path d="M44.3162 38.2379C44.2925 38.238 44.2692 38.2323 44.2481 38.2213C44.2271 38.2103 44.209 38.1944 44.1955 38.175C44.1819 38.1555 44.1733 38.1331 44.1703 38.1095C44.1672 38.086 44.17 38.0621 44.1782 38.0399L44.3481 37.5811C44.3548 37.5629 44.365 37.5463 44.3781 37.5321C44.3913 37.5179 44.4071 37.5064 44.4247 37.4984C44.4422 37.4903 44.4612 37.4857 44.4805 37.485C44.4998 37.4842 44.5191 37.4873 44.5372 37.494C44.5553 37.5007 44.5719 37.5109 44.586 37.5241C44.6002 37.5372 44.6116 37.5531 44.6196 37.5707C44.6278 37.5882 44.6325 37.6071 44.6332 37.6265C44.634 37.6458 44.6308 37.6651 44.6239 37.6832L44.454 38.142C44.4437 38.1701 44.4249 38.1945 44.4002 38.2116C44.3756 38.2288 44.3463 38.238 44.3162 38.2379Z" fill="#414141"/>
<path d="M37.0936 38.2376C37.058 38.2374 37.0238 38.2244 36.9971 38.201C36.9703 38.1776 36.9529 38.1454 36.948 38.1103C36.9448 38.0869 36.9473 38.0631 36.9552 38.0409L37.0912 37.6622C37.0976 37.6437 37.1074 37.6266 37.1202 37.6117C37.1399 37.5899 37.1656 37.5744 37.1941 37.5671C37.2226 37.5599 37.2526 37.5612 37.2803 37.5709C37.2987 37.5775 37.3156 37.5877 37.3299 37.601C37.3443 37.6142 37.3559 37.6302 37.3641 37.6479C37.3722 37.6657 37.3767 37.6849 37.3774 37.7044C37.3781 37.7239 37.3748 37.7434 37.3679 37.7617L37.2319 38.1387C37.2219 38.1675 37.2032 38.1924 37.1785 38.2101C37.1537 38.2279 37.124 38.2374 37.0936 38.2376Z" fill="#414141"/>
<path d="M38.2996 38.4078C38.2623 38.4075 38.2264 38.3931 38.1993 38.3675C38.1721 38.3419 38.1556 38.307 38.1532 38.2697C38.1515 38.245 38.1562 38.2202 38.1668 38.1978L38.3367 37.8385C38.3535 37.8033 38.3836 37.7762 38.4203 37.763C38.457 37.7499 38.4974 37.7518 38.5328 37.7683C38.5678 37.7852 38.5948 37.8153 38.6079 37.852C38.621 37.8887 38.6191 37.929 38.6027 37.9643L38.4327 38.3237C38.4207 38.3488 38.4018 38.37 38.3783 38.3848C38.3547 38.3997 38.3274 38.4077 38.2996 38.4078Z" fill="#414141"/>
<path d="M39.5575 38.765C39.5333 38.7651 39.5095 38.7591 39.4882 38.7478C39.4669 38.7364 39.4487 38.7199 39.4353 38.6998C39.4218 38.6798 39.4136 38.6567 39.4112 38.6326C39.4089 38.6086 39.4125 38.5843 39.4217 38.562L39.6424 38.0255C39.6574 37.9895 39.6861 37.9609 39.7221 37.9459C39.7581 37.9309 39.7986 37.9308 39.8347 37.9455C39.8526 37.9528 39.8689 37.9636 39.8826 37.9773C39.8963 37.9909 39.9072 38.0072 39.9146 38.025C39.922 38.0429 39.9258 38.0621 39.9258 38.0814C39.9257 38.1008 39.9219 38.1199 39.9144 38.1378L39.6935 38.6743C39.6825 38.7013 39.6637 38.7244 39.6394 38.7405C39.6152 38.7567 39.5866 38.7653 39.5575 38.765Z" fill="#414141"/>
<path d="M40.8319 39.0889C40.8082 39.089 40.7849 39.0834 40.7639 39.0724C40.7429 39.0614 40.725 39.0455 40.7116 39.026C40.6978 39.0066 40.689 38.9842 40.686 38.9607C40.683 38.9372 40.6858 38.9133 40.6942 38.8911L40.8131 38.5681C40.8225 38.54 40.8402 38.5155 40.8639 38.4978C40.8875 38.4801 40.916 38.47 40.9456 38.4689C40.9651 38.4681 40.9847 38.4712 41.003 38.4779C41.0214 38.4847 41.0382 38.495 41.0526 38.5083C41.0741 38.5285 41.089 38.5547 41.0954 38.5835C41.1019 38.6123 41.0996 38.6424 41.0889 38.6698L40.97 38.9926C40.9595 39.0208 40.9406 39.0451 40.916 39.0623C40.8913 39.0795 40.862 39.0888 40.8319 39.0889Z" fill="#414141"/>
<path d="M42.1237 39.5124C42.0992 39.5124 42.0752 39.5063 42.0537 39.4946C42.0322 39.483 42.0139 39.4662 42.0006 39.4457C41.9872 39.4252 41.9792 39.4018 41.9772 39.3774C41.9752 39.353 41.9793 39.3286 41.9891 39.3062L42.1762 38.8813C42.1916 38.845 42.2207 38.8162 42.2571 38.801C42.2939 38.7865 42.335 38.7871 42.3713 38.8028C42.3892 38.8107 42.4053 38.8222 42.4187 38.8364C42.4321 38.8507 42.4425 38.8675 42.4494 38.8858C42.4563 38.9041 42.4595 38.9236 42.4588 38.9431C42.4581 38.9627 42.4535 38.9819 42.4453 38.9997L42.2582 39.4245C42.2469 39.4507 42.2281 39.4731 42.2042 39.4887C42.1802 39.5043 42.1523 39.5126 42.1237 39.5124Z" fill="#414141"/>
<path d="M43.4493 39.9994C43.4144 39.9995 43.3807 39.9871 43.3541 39.9646C43.3276 39.9421 43.3099 39.9108 43.3043 39.8764C43.3004 39.8536 43.302 39.8303 43.3089 39.8082L43.4621 39.321C43.4668 39.3016 43.4755 39.2833 43.4876 39.2674C43.4997 39.2515 43.515 39.2383 43.5325 39.2285C43.55 39.2189 43.5693 39.2129 43.5892 39.2108C43.609 39.2087 43.6291 39.2106 43.6482 39.2164C43.6673 39.2223 43.685 39.232 43.7002 39.245C43.7154 39.258 43.7278 39.274 43.7366 39.2919C43.7454 39.3099 43.7505 39.3294 43.7515 39.3494C43.7525 39.3693 43.7495 39.3893 43.7425 39.408L43.5897 39.8952C43.5805 39.9254 43.5619 39.9517 43.5367 39.9705C43.5114 39.9892 43.4808 39.9993 43.4493 39.9994Z" fill="#414141"/>
<path d="M44.6049 40.2432C44.5808 40.2432 44.557 40.2373 44.5357 40.2259C44.5144 40.2146 44.4962 40.1981 44.4828 40.178C44.4693 40.1579 44.4611 40.1349 44.4587 40.1108C44.4563 40.0868 44.46 40.0625 44.4692 40.0402L44.5713 39.7966C44.5821 39.7692 44.6009 39.7457 44.6253 39.7292C44.6496 39.7127 44.6785 39.7039 44.7079 39.7041C44.7323 39.7042 44.7563 39.7103 44.7778 39.722C44.7992 39.7337 44.8174 39.7505 44.8308 39.7709C44.8441 39.7914 44.8522 39.8148 44.8542 39.8391C44.8563 39.8635 44.8522 39.8879 44.8425 39.9103L44.7407 40.1539C44.7294 40.1806 44.7106 40.2033 44.6864 40.2192C44.6622 40.2351 44.6339 40.2435 44.6049 40.2432Z" fill="#414141"/>
<path d="M43.6026 42.5546C43.5802 42.5546 43.558 42.5495 43.5379 42.5397C43.5177 42.5298 43.5 42.5155 43.4863 42.4978C43.4725 42.48 43.463 42.4594 43.4584 42.4374C43.4538 42.4155 43.4544 42.3927 43.4599 42.371L43.5791 41.9047C43.5873 41.8714 43.6069 41.8421 43.6344 41.8216C43.6619 41.8012 43.6956 41.791 43.7298 41.7927C43.764 41.7944 43.7966 41.8079 43.8219 41.831C43.8472 41.8541 43.8637 41.8853 43.8685 41.9192C43.8709 41.9387 43.8694 41.9585 43.8639 41.9775L43.745 42.4438C43.737 42.4754 43.7186 42.5035 43.6928 42.5236C43.667 42.5436 43.6353 42.5545 43.6026 42.5546Z" fill="#414141"/>
<path d="M42.1764 41.8804L42.2956 41.6162C42.3123 41.5819 42.3418 41.5556 42.3777 41.5427C42.4137 41.5299 42.4532 41.5316 42.4879 41.5475C42.5226 41.5631 42.5498 41.5915 42.564 41.6269C42.5781 41.6622 42.5779 41.7016 42.5635 41.7369L42.4446 42.001C42.4286 42.0366 42.3992 42.0644 42.3627 42.0782C42.3262 42.0921 42.2858 42.0908 42.2502 42.0748C42.2146 42.0589 42.1869 42.0294 42.173 41.9929C42.1592 41.9564 42.1604 41.916 42.1764 41.8804Z" fill="#414141"/>
<path d="M40.6792 41.6025C40.6552 41.6027 40.6316 41.5969 40.6104 41.5858C40.5892 41.5746 40.5711 41.5583 40.5577 41.5384C40.5443 41.5186 40.536 41.4958 40.5333 41.472C40.5306 41.4483 40.5337 41.4242 40.5423 41.4019L40.6951 41.0109C40.7095 40.9747 40.7376 40.9455 40.7734 40.9299C40.8091 40.9142 40.8496 40.9134 40.886 40.9274C40.904 40.9344 40.9205 40.9449 40.9344 40.9583C40.9484 40.9717 40.9595 40.9878 40.9673 41.0055C40.975 41.0232 40.9792 41.0423 40.9795 41.0617C40.9798 41.081 40.9763 41.1003 40.9692 41.1182L40.8161 41.5092C40.8054 41.5367 40.7866 41.5604 40.7621 41.5771C40.7377 41.5938 40.7088 41.6027 40.6792 41.6025Z" fill="#414141"/>
<path d="M39.2685 41.144C39.2443 41.1442 39.2205 41.1383 39.1992 41.1269C39.1779 41.1155 39.1597 41.099 39.1464 41.0788C39.133 41.0587 39.1248 41.0357 39.1223 41.0116C39.1199 40.9876 39.1234 40.9634 39.1325 40.941L39.2853 40.5672C39.2924 40.5492 39.3031 40.5329 39.3167 40.5191C39.3303 40.5054 39.3466 40.4945 39.3645 40.4872C39.3823 40.4796 39.4014 40.4757 39.4207 40.4756C39.44 40.4755 39.4592 40.4792 39.477 40.4866C39.5131 40.5015 39.5418 40.53 39.5569 40.566C39.572 40.6019 39.5723 40.6424 39.5576 40.6786L39.4048 41.0524C39.3938 41.0795 39.375 41.1028 39.3507 41.1191C39.3264 41.1355 39.2978 41.1441 39.2685 41.144Z" fill="#414141"/>
<path d="M37.7899 40.7709C37.765 40.771 37.7405 40.7648 37.7187 40.7527C37.6969 40.7406 37.6786 40.7231 37.6655 40.7019C37.6523 40.6808 37.6447 40.6568 37.6433 40.632C37.6419 40.6072 37.6469 40.5824 37.6577 40.56L37.8607 40.1352C37.8688 40.1175 37.8804 40.1017 37.8948 40.0886C37.9091 40.0755 37.9259 40.0653 37.9442 40.0588C37.9626 40.0523 37.982 40.0494 38.0014 40.0505C38.0208 40.0516 38.0398 40.0565 38.0573 40.065C38.075 40.0733 38.0907 40.085 38.1037 40.0996C38.1167 40.1141 38.1265 40.1312 38.1327 40.1497C38.1391 40.168 38.1417 40.1874 38.1405 40.2068C38.1393 40.2262 38.1343 40.2451 38.1257 40.2625L37.9227 40.6874C37.9108 40.7124 37.8919 40.7336 37.8684 40.7484C37.8449 40.7631 37.8177 40.7709 37.7899 40.7709Z" fill="#414141"/>
<path d="M36.6007 40.481C36.5626 40.4806 36.5262 40.4656 36.4989 40.4391C36.4716 40.4126 36.4555 40.3766 36.4539 40.3386C36.4531 40.3133 36.4588 40.2883 36.4705 40.2658L36.6572 39.9062C36.6709 39.8807 36.6917 39.8598 36.7172 39.846C36.7426 39.8322 36.7716 39.8262 36.8004 39.8287C36.8292 39.8312 36.8567 39.8421 36.8794 39.86C36.9021 39.878 36.919 39.9022 36.9281 39.9297C36.9397 39.967 36.9362 40.0073 36.9182 40.042L36.7315 40.4015C36.7191 40.4255 36.7003 40.4456 36.6772 40.4596C36.6542 40.4737 36.6277 40.481 36.6007 40.481Z" fill="#414141"/>
<path d="M35.122 40.1212C35.0848 40.121 35.049 40.1067 35.0219 40.0812C34.9947 40.0557 34.9782 40.0209 34.9756 39.9838C34.9739 39.9592 34.9785 39.9345 34.9889 39.9121L35.1588 39.5467C35.1667 39.5288 35.1781 39.5127 35.1923 39.4992C35.2065 39.4858 35.2233 39.4753 35.2416 39.4684C35.2599 39.4615 35.2794 39.4583 35.299 39.4591C35.3185 39.4598 35.3377 39.4645 35.3555 39.4727C35.3732 39.481 35.3891 39.4927 35.4023 39.5072C35.4154 39.5217 35.4255 39.5387 35.432 39.5571C35.4386 39.5756 35.4413 39.5951 35.4402 39.6147C35.439 39.6342 35.434 39.6533 35.4253 39.6709L35.2554 40.0363C35.2435 40.0616 35.2246 40.083 35.201 40.0981C35.1774 40.1131 35.15 40.1212 35.122 40.1212Z" fill="#414141"/>
<path d="M39.7946 37.1206C39.7723 37.1204 39.7503 37.1152 39.7302 37.1054C39.7101 37.0957 39.6925 37.0815 39.6786 37.064C39.6649 37.0464 39.6554 37.0259 39.6508 37.004C39.6462 36.9822 39.6465 36.9595 39.6519 36.9379L39.7291 36.6281C39.7397 36.5916 39.7641 36.5605 39.7971 36.5416C39.8302 36.5226 39.8692 36.5171 39.9062 36.5264C39.9432 36.5356 39.9751 36.5588 39.9953 36.5911C40.0156 36.6233 40.0225 36.6622 40.0147 36.6995L39.9373 37.0092C39.9294 37.041 39.911 37.0693 39.8851 37.0895C39.8593 37.1097 39.8274 37.1206 39.7946 37.1206Z" fill="#414141"/>
<path d="M48.4625 39.3003C48.4384 39.3002 48.4146 39.2941 48.3934 39.2828C48.3721 39.2714 48.3539 39.255 48.3404 39.2351C48.3269 39.215 48.3186 39.192 48.3161 39.168C48.3136 39.144 48.3171 39.1197 48.3262 39.0973L48.5129 38.6301C48.5274 38.5939 48.5557 38.5649 48.5915 38.5495C48.6273 38.5341 48.6678 38.5336 48.704 38.5481C48.7403 38.5625 48.7693 38.5908 48.7847 38.6266C48.8001 38.6625 48.8006 38.703 48.7861 38.7392L48.5994 39.2067C48.5885 39.2342 48.5697 39.2578 48.5453 39.2745C48.5209 39.2912 48.492 39.3002 48.4625 39.3003Z" fill="#414141"/>
<path d="M49.9059 39.7558C49.8826 39.756 49.8595 39.7505 49.8387 39.7398C49.8179 39.7292 49.8 39.7137 49.7864 39.6947C49.773 39.6757 49.7642 39.6538 49.7607 39.6308C49.7572 39.6078 49.7592 39.5842 49.7664 39.5621L49.9193 39.106C49.9318 39.069 49.9585 39.0386 49.9934 39.0212C50.0284 39.0039 50.0687 39.0011 50.1057 39.0134C50.1241 39.0195 50.141 39.0292 50.1556 39.0419C50.1702 39.0545 50.1822 39.07 50.1908 39.0873C50.1994 39.1046 50.2044 39.1234 50.2057 39.1427C50.207 39.162 50.2045 39.1813 50.1982 39.1996L50.0451 39.6555C50.0354 39.6847 50.0167 39.7101 49.9917 39.7281C49.9667 39.7462 49.9367 39.7558 49.9059 39.7558Z" fill="#414141"/>
<path d="M51.3851 40.2431C51.3625 40.2431 51.3401 40.2379 51.3198 40.2279C51.2996 40.2178 51.2819 40.2031 51.2683 40.1851C51.2546 40.167 51.2452 40.146 51.2409 40.1237C51.2367 40.1014 51.2376 40.0785 51.2436 40.0566L51.3796 39.5694C51.3901 39.5319 51.415 39.5 51.449 39.4809C51.4829 39.4617 51.523 39.4568 51.5606 39.4673C51.5981 39.4778 51.63 39.5027 51.6491 39.5366C51.6682 39.5706 51.6731 39.6107 51.6627 39.6483L51.5269 40.1355C51.5182 40.1664 51.4996 40.1936 51.474 40.213C51.4484 40.2324 51.4172 40.243 51.3851 40.2431Z" fill="#414141"/>
<path d="M52.3885 40.7709C52.3667 40.7709 52.3451 40.7661 52.3254 40.7568C52.3056 40.7475 52.2882 40.734 52.2742 40.7173C52.2603 40.7005 52.2504 40.6807 52.2452 40.6596C52.2397 40.6384 52.2391 40.6163 52.2435 40.5949L52.3285 40.17C52.3363 40.1317 52.359 40.0979 52.3916 40.0762C52.4242 40.0545 52.464 40.0465 52.5024 40.054C52.5408 40.0619 52.5745 40.0846 52.5963 40.1172C52.618 40.1497 52.626 40.1896 52.6185 40.228L52.5335 40.6529C52.5268 40.6863 52.5086 40.7164 52.4822 40.7379C52.4557 40.7594 52.4226 40.7711 52.3885 40.7709Z" fill="#414141"/>
<path d="M46.8141 40.9571C46.7789 40.9572 46.7449 40.9446 46.7182 40.9217C46.6915 40.8989 46.674 40.8671 46.6688 40.8324C46.6653 40.8093 46.6673 40.7858 46.6746 40.7636L46.8776 40.1517C46.8913 40.1164 46.918 40.0876 46.9523 40.0714C46.9865 40.0552 47.0257 40.0527 47.0617 40.0644C47.098 40.0762 47.1282 40.1016 47.1459 40.1353C47.1637 40.169 47.1676 40.2083 47.1568 40.2448L46.9538 40.8567C46.9441 40.8861 46.9253 40.9116 46.9002 40.9296C46.8751 40.9476 46.845 40.9572 46.8141 40.9571Z" fill="#414141"/>
<path d="M48.0432 41.2115C48.0207 41.2115 47.9986 41.2064 47.9784 41.1965C47.9583 41.1866 47.9406 41.1723 47.9269 41.1545C47.9132 41.1368 47.9037 41.1161 47.8991 41.0941C47.8946 41.0721 47.8952 41.0494 47.9008 41.0277L47.9971 40.6539C48.0071 40.6162 48.0315 40.5839 48.0649 40.564C48.09 40.5494 48.1189 40.5425 48.1478 40.5442C48.1768 40.5459 48.2046 40.5562 48.2278 40.5736C48.2509 40.5911 48.2684 40.615 48.2781 40.6424C48.2877 40.6698 48.289 40.6994 48.2819 40.7275L48.1853 41.1013C48.1775 41.133 48.1592 41.1611 48.1334 41.1811C48.1076 41.2011 48.0758 41.2118 48.0432 41.2115Z" fill="#414141"/>
<path d="M49.4315 41.6027C49.4086 41.6028 49.386 41.5974 49.3656 41.587C49.3348 41.5715 49.3104 41.5457 49.2967 41.514C49.283 41.4824 49.2808 41.447 49.2905 41.4139L49.4265 40.9551C49.4395 40.92 49.4653 40.8912 49.4987 40.8745C49.5322 40.8577 49.5707 40.8543 49.6066 40.865C49.6424 40.8756 49.6729 40.8994 49.6918 40.9317C49.7107 40.9639 49.7166 41.0021 49.7084 41.0386L49.5724 41.4974C49.5635 41.5278 49.5448 41.5545 49.5193 41.5734C49.494 41.5924 49.4632 41.6027 49.4315 41.6027Z" fill="#414141"/>
<path d="M50.9439 42.0878C50.91 42.0876 50.8771 42.0758 50.8508 42.0543C50.8245 42.0329 50.8064 42.003 50.7995 41.9698C50.7951 41.9477 50.7958 41.9248 50.8015 41.9031L50.9036 41.5197C50.9085 41.5009 50.917 41.4834 50.9288 41.468C50.9405 41.4525 50.9551 41.4396 50.9719 41.4299C50.9886 41.4202 51.0071 41.4139 51.0263 41.4114C51.0455 41.4089 51.065 41.4102 51.0837 41.4153C51.1213 41.4254 51.1534 41.45 51.173 41.4838C51.1925 41.5176 51.1978 41.5577 51.1878 41.5954L51.0857 41.9787C51.0775 42.0101 51.0591 42.0378 51.0334 42.0575C51.0078 42.0772 50.9763 42.0879 50.9439 42.0878Z" fill="#414141"/>
<path d="M52.2524 42.5547C52.2294 42.555 52.2067 42.5499 52.1861 42.5398C52.1655 42.5297 52.1476 42.5148 52.1338 42.4964C52.1199 42.4781 52.1105 42.4568 52.1064 42.4341C52.1023 42.4115 52.1035 42.3882 52.11 42.3662L52.246 41.8996C52.2508 41.8805 52.2595 41.8625 52.2715 41.8469C52.2835 41.8313 52.2987 41.8183 52.3159 41.8088C52.3506 41.7896 52.3915 41.7849 52.4296 41.7958C52.4485 41.8013 52.466 41.8105 52.4813 41.8229C52.4965 41.8353 52.5091 41.8506 52.5183 41.868C52.5275 41.8854 52.5331 41.9044 52.5348 41.924C52.5365 41.9435 52.5343 41.9633 52.5282 41.9819L52.3922 42.4486C52.3836 42.479 52.3653 42.5059 52.34 42.525C52.3148 42.5441 52.2841 42.5546 52.2524 42.5547Z" fill="#414141"/>
<path d="M53.5272 42.9285C53.5051 42.9285 53.4832 42.9237 53.4631 42.9142C53.4431 42.9048 53.4253 42.8911 53.4112 42.8739C53.3973 42.8566 53.3875 42.8364 53.3825 42.8148C53.3775 42.7931 53.3774 42.7706 53.3822 42.749L53.4672 42.3748C53.4708 42.3554 53.4783 42.3369 53.4893 42.3205C53.5003 42.304 53.5145 42.29 53.531 42.2791C53.556 42.263 53.5852 42.2547 53.615 42.2554C53.6447 42.2561 53.6736 42.2657 53.6978 42.2829C53.7217 42.3005 53.7399 42.3249 53.7499 42.3529C53.7598 42.3809 53.7612 42.4113 53.7537 42.4401L53.6688 42.8139C53.6615 42.8461 53.6436 42.875 53.6179 42.8958C53.5922 42.9166 53.5603 42.9281 53.5272 42.9285Z" fill="#414141"/>
<path d="M54.4618 43.6082C54.4394 43.6083 54.4172 43.6031 54.397 43.5932C54.3768 43.5833 54.3592 43.5689 54.3454 43.5511C54.3317 43.5334 54.3222 43.5127 54.3177 43.4906C54.3132 43.4686 54.3138 43.4458 54.3195 43.4241L54.4215 43.0326C54.4262 43.0137 54.4347 42.9959 54.4463 42.9802C54.4579 42.9646 54.4725 42.9513 54.4892 42.9413C54.5059 42.9313 54.5245 42.9248 54.5438 42.9219C54.5631 42.9191 54.5827 42.9202 54.6016 42.925C54.6205 42.9298 54.6383 42.9385 54.6538 42.9503C54.6693 42.9622 54.6822 42.977 54.6918 42.994C54.7015 43.011 54.7078 43.0296 54.7102 43.049C54.7126 43.0684 54.7112 43.088 54.706 43.1068L54.6042 43.4983C54.5958 43.5297 54.5772 43.5574 54.5515 43.5772C54.5258 43.5971 54.4943 43.608 54.4618 43.6082Z" fill="#414141"/>
<path d="M46.2874 43.2166C46.2634 43.2168 46.2397 43.211 46.2185 43.1997C46.1973 43.1885 46.1792 43.1722 46.1658 43.1522C46.1525 43.1324 46.1441 43.1096 46.1414 43.0858C46.1388 43.0621 46.1419 43.038 46.1505 43.0157L46.3372 42.5406C46.3442 42.5226 46.3547 42.5062 46.3681 42.4922C46.3815 42.4783 46.3975 42.4671 46.4152 42.4594C46.4329 42.4517 46.452 42.4476 46.4713 42.4473C46.4906 42.447 46.5098 42.4505 46.5278 42.4577C46.5458 42.4647 46.5622 42.4752 46.5761 42.4886C46.5901 42.502 46.6012 42.518 46.6089 42.5357C46.6167 42.5534 46.6208 42.5724 46.6212 42.5918C46.6215 42.6111 46.6181 42.6303 46.611 42.6482L46.4242 43.1233C46.4133 43.1507 46.3945 43.1743 46.3701 43.1909C46.3457 43.2076 46.3169 43.2165 46.2874 43.2166Z" fill="#414141"/>
<path d="M47.7052 43.6485C47.6813 43.6484 47.6578 43.6426 47.6367 43.6314C47.6156 43.6203 47.5975 43.6042 47.584 43.5845C47.5705 43.5648 47.562 43.5421 47.5592 43.5184C47.5564 43.4947 47.5595 43.4707 47.568 43.4484L47.7304 43.0279C47.7374 43.01 47.7478 42.9936 47.7611 42.9797C47.7744 42.9658 47.7903 42.9546 47.8079 42.9469C47.8256 42.9392 47.8445 42.935 47.8638 42.9346C47.883 42.9342 47.9022 42.9376 47.9201 42.9447C47.9381 42.9515 47.9545 42.9618 47.9686 42.975C47.9826 42.9882 47.9938 43.004 48.0017 43.0216C48.0096 43.0392 48.0139 43.0581 48.0144 43.0774C48.0149 43.0966 48.0116 43.1158 48.0047 43.1337L47.8423 43.5545C47.8315 43.5821 47.8126 43.6058 47.7881 43.6225C47.7637 43.6393 47.7348 43.6483 47.7052 43.6485Z" fill="#414141"/>
<path d="M49.2441 44.1862C49.2087 44.186 49.1745 44.1731 49.1478 44.1498C49.121 44.1265 49.1036 44.0943 49.0986 44.0592C49.0953 44.0359 49.0977 44.0121 49.1055 43.9899L49.2926 43.463C49.307 43.4281 49.3343 43.4001 49.3689 43.3848C49.4034 43.3694 49.4424 43.3679 49.478 43.3806C49.5136 43.3932 49.543 43.4191 49.5601 43.4528C49.5771 43.4864 49.5806 43.5254 49.5698 43.5616L49.3828 44.0882C49.3724 44.1168 49.3536 44.1415 49.3289 44.159C49.3041 44.1765 49.2745 44.186 49.2441 44.1862Z" fill="#414141"/>
<path d="M50.5361 44.6446C50.5007 44.6444 50.4665 44.6315 50.4397 44.6082C50.413 44.5849 50.3956 44.5527 50.3906 44.5176C50.3873 44.4943 50.3897 44.4705 50.3975 44.4483L50.5846 43.9217C50.5925 43.8988 50.606 43.8782 50.6239 43.8618C50.6418 43.8454 50.6635 43.8337 50.687 43.8277C50.7105 43.8218 50.7351 43.8218 50.7587 43.8277C50.7822 43.8336 50.8039 43.8453 50.8218 43.8616C50.8432 43.8812 50.8585 43.9067 50.8656 43.9348C50.8727 43.963 50.8714 43.9926 50.8618 44.02L50.6748 44.5466C50.6644 44.5752 50.6456 44.5999 50.6208 44.6174C50.5961 44.6349 50.5665 44.6444 50.5361 44.6446Z" fill="#414141"/>
<path d="M51.8782 45.0527C51.8548 45.0528 51.8317 45.0473 51.8109 45.0367C51.79 45.026 51.772 45.0105 51.7584 44.9915C51.7447 44.9725 51.7358 44.9505 51.7324 44.9273C51.729 44.9042 51.7312 44.8805 51.7388 44.8584L51.8777 44.4506C51.8905 44.4142 51.9172 44.3844 51.952 44.3676C51.9868 44.3508 52.0268 44.3484 52.0633 44.361C52.0996 44.3737 52.1296 44.4 52.1469 44.4343C52.1643 44.4687 52.1675 44.5085 52.1561 44.5452L52.0174 44.9532C52.0077 44.9823 51.989 45.0076 51.964 45.0255C51.939 45.0434 51.909 45.0529 51.8782 45.0527Z" fill="#414141"/>
<path d="M53.2894 45.4946C53.2669 45.4945 53.2446 45.4892 53.2244 45.4793C53.2041 45.4694 53.1864 45.455 53.1725 45.4372C53.1589 45.4192 53.1495 45.3983 53.1451 45.3762C53.1408 45.354 53.1415 45.3311 53.1473 45.3093L53.2662 44.8673C53.2768 44.83 53.3016 44.7984 53.3353 44.7792C53.3689 44.76 53.4088 44.7548 53.4463 44.7647C53.4836 44.775 53.5154 44.7996 53.5348 44.8331C53.5542 44.8666 53.5597 44.9064 53.5501 44.9439L53.4312 45.3859C53.4226 45.4169 53.4041 45.4444 53.3786 45.464C53.353 45.4836 53.3217 45.4944 53.2894 45.4946Z" fill="#414141"/>
<path d="M54.6487 45.9365C54.6275 45.9366 54.6065 45.932 54.5872 45.9231C54.568 45.9142 54.551 45.9011 54.5373 45.8848C54.5237 45.8687 54.5136 45.8498 54.5078 45.8295C54.502 45.8091 54.5006 45.7877 54.5037 45.7668L54.5719 45.3251C54.5798 45.2887 54.6015 45.2566 54.6323 45.2355C54.6631 45.2144 54.7008 45.2059 54.7377 45.2117C54.7745 45.2176 54.8078 45.2372 54.8308 45.2665C54.8538 45.2958 54.8649 45.3327 54.8619 45.3698L54.794 45.8118C54.7884 45.8463 54.7707 45.8778 54.7441 45.9007C54.7175 45.9235 54.6837 45.9362 54.6487 45.9365Z" fill="#414141"/>
<path d="M38.0453 21.7023C38.0253 21.7023 38.0056 21.6982 37.9872 21.6904C37.9689 21.6825 37.9523 21.6709 37.9386 21.6564C37.7439 21.4352 37.4772 21.2899 37.1857 21.2464C36.8943 21.2028 36.5968 21.2637 36.3459 21.4183C36.3131 21.4387 36.2736 21.4453 36.236 21.4367C36.1984 21.4282 36.1656 21.4053 36.1448 21.3728C36.1239 21.3404 36.1167 21.301 36.1246 21.2633C36.1325 21.2255 36.1549 21.1924 36.187 21.171C36.4968 20.9838 36.8618 20.9097 37.2201 20.9613C37.5783 21.0129 37.9076 21.187 38.152 21.454C38.1718 21.4749 38.185 21.5011 38.19 21.5294C38.195 21.5577 38.1916 21.5869 38.1801 21.6132C38.1689 21.6397 38.1501 21.6622 38.1261 21.678C38.1021 21.6939 38.074 21.7023 38.0453 21.7023Z" fill="#414141"/>
<path d="M22.1497 24.5662C21.2825 24.5861 20.4404 24.8615 19.7289 25.3578C19.0175 25.8541 18.4683 26.5493 18.1501 27.3563C17.8319 28.1633 17.7589 29.0462 17.9403 29.8945C18.1216 30.7428 18.5492 31.5188 19.1695 32.1251C19.7899 32.7315 20.5753 33.1414 21.4275 33.3034C22.2797 33.4655 23.1607 33.3725 23.9603 33.0361C24.7599 32.6997 25.4424 32.1348 25.9225 31.4123C26.4025 30.6898 26.6587 29.8417 26.6589 28.9742C26.6454 27.7917 26.1627 26.6631 25.3171 25.8364C24.4715 25.0098 23.3321 24.5529 22.1497 24.5662Z" fill="#FDAF31"/>
<path d="M35.2874 25.5504C35.212 25.7018 35.4564 26.2914 36.1028 26.3111C36.7493 26.3308 37.1022 25.7966 36.9697 25.6389C36.7957 25.433 36.5399 25.6163 36.1269 25.5809C35.714 25.5455 35.3941 25.3358 35.2874 25.5504Z" fill="#414141"/>
<path d="M35.1452 26.7352C34.8963 26.7352 34.5277 26.5612 34.6884 26.3733C34.7136 26.3438 34.7495 26.3255 34.7882 26.3223C34.8269 26.3192 34.8652 26.3315 34.8949 26.3565C34.9685 26.4134 35.0593 26.4437 35.1524 26.4424C35.2454 26.441 35.3353 26.4082 35.4073 26.3492C35.423 26.338 35.4408 26.33 35.4596 26.3256C35.4784 26.3212 35.4979 26.3206 35.517 26.3238C35.536 26.3269 35.5543 26.3338 35.5706 26.344C35.587 26.3542 35.6013 26.3676 35.6125 26.3833C35.6237 26.399 35.6318 26.4168 35.6361 26.4356C35.6405 26.4544 35.6411 26.4739 35.638 26.4929C35.6348 26.512 35.6279 26.5302 35.6177 26.5466C35.6075 26.563 35.5941 26.5772 35.5784 26.5885C35.4531 26.6821 35.3015 26.7335 35.1452 26.7352Z" fill="#414141"/>
<path d="M50.6342 32.4871C50.6537 32.3099 50.4675 32.1444 50.2187 32.1171C49.9698 32.0898 49.7523 32.2116 49.7332 32.3888C49.7138 32.5657 49.9 32.7316 50.1488 32.7589C50.3976 32.7858 50.6151 32.6643 50.6342 32.4871Z" fill="#FDAF31"/>
<path d="M46.1342 31.4928C46.2105 31.3319 46.0893 31.1144 45.8631 31.0071C45.6369 30.8998 45.3915 30.9433 45.3153 31.1045C45.2387 31.2655 45.3602 31.483 45.5864 31.5903C45.8126 31.6976 46.058 31.6541 46.1342 31.4928Z" fill="#FDAF31"/>
<path d="M50.4955 30.7502C50.5405 30.4984 50.4433 30.2696 50.2722 30.2337C50.0672 30.1905 49.8932 30.4251 49.8508 30.6562C49.5686 30.6482 49.2932 30.7433 49.076 30.9236C48.8839 30.7555 48.6556 30.6341 48.409 30.5686C48.5861 30.1351 48.5932 29.6508 48.4287 29.2123C48.0108 28.248 46.8656 28.2843 46.8174 28.2869C46.7786 28.2886 46.742 28.3057 46.7156 28.3343C46.6893 28.3629 46.6753 28.4008 46.6768 28.4397C46.6787 28.4786 46.6958 28.5151 46.7244 28.5415C46.7529 28.5679 46.7908 28.5819 46.8296 28.5807C46.8696 28.5807 47.822 28.5517 48.159 29.3292C48.2965 29.7128 48.2827 30.1345 48.1204 30.5083C47.9572 30.4849 47.7921 30.4771 47.6274 30.4848C47.5419 30.2697 47.3795 30.094 47.1718 29.9918C47.2223 29.8039 47.1959 29.495 46.9772 29.4391C46.8116 29.3967 46.6292 29.5504 46.5533 29.7871C46.0933 29.7102 45.46 29.7827 45.3234 30.2221C45.1122 30.9024 45.9822 31.3061 46.7618 31.3339C47.5413 31.3618 47.6526 30.8061 47.6558 30.7792C47.7727 30.7748 47.8896 30.7792 48.0059 30.7919C47.8623 31.0994 47.692 31.3936 47.4969 31.6712C47.4812 31.6932 47.472 31.7192 47.4702 31.7462C47.4684 31.7732 47.4741 31.8001 47.4868 31.824C47.4993 31.848 47.5182 31.868 47.5414 31.882C47.5645 31.8959 47.5911 31.9033 47.6181 31.9032C47.6471 31.9032 47.6065 31.909 48.4803 31.722C48.5087 31.7158 48.5347 31.7014 48.5549 31.6805C48.5752 31.6597 48.5889 31.6334 48.5943 31.6048C48.5987 31.581 48.5971 31.5565 48.5898 31.5334C48.5825 31.5103 48.5695 31.4895 48.5522 31.4726C48.5348 31.4557 48.5136 31.4434 48.4903 31.4367C48.467 31.43 48.4425 31.4292 48.4188 31.4343L47.9368 31.5375C48.0755 31.3168 48.1976 31.0863 48.3022 30.8476C48.5406 30.9042 48.7593 31.0245 48.935 31.1956C48.7805 31.858 49.6705 32.2312 50.3685 32.2312C50.8174 32.2312 51.2214 31.9664 51.2759 31.753C51.4029 31.2553 50.99 30.8986 50.4955 30.7502ZM47.3542 30.7899C47.2278 31.3026 45.3944 30.9735 45.6032 30.3094C45.6693 30.0942 46.0791 30.0002 46.526 30.0791C46.5709 30.3917 46.834 30.4764 47.0341 30.2531C47.1356 30.2996 47.2205 30.3758 47.2777 30.4717C47.3349 30.5675 47.3616 30.6785 47.3542 30.7899ZM50.9903 31.679C50.9354 31.8609 50.0043 32.201 49.3083 31.5671C49.1983 31.4676 49.0763 30.9236 49.8636 30.9506C49.9474 31.2246 50.2081 31.2603 50.3827 31.0228C50.3943 31.0254 50.405 31.0294 50.4166 31.0329C50.5767 31.0851 51.1083 31.2849 50.9903 31.679Z" fill="#414141"/>
<path d="M59.9837 36.6913C60.0524 36.5205 60.2853 35.5586 59.9988 35.2123C59.9988 35.1833 62.8077 26.4404 62.518 25.9952C62.1659 25.4541 48.6383 21.1079 41.0142 19.2443C40.0882 15.7127 37.6287 15.8075 36.9583 15.9032C36.8705 15.6509 36.6988 15.4363 36.4718 15.2953C36.2448 15.1543 35.9764 15.0955 35.7113 15.1286C35.6824 15.1316 35.655 15.143 35.6326 15.1614C35.6102 15.1799 35.5937 15.2045 35.5851 15.2322C35.5765 15.26 35.5765 15.2898 35.5849 15.3176C35.5934 15.3455 35.61 15.3702 35.6327 15.3885C35.6628 15.4131 35.7015 15.4248 35.7403 15.421C35.7403 15.421 36.3878 15.394 36.6335 15.8748C32.1628 14.1731 30.4147 18.9276 30.1256 19.8133C29.7703 19.8107 12.3883 20.0291 10.7246 20.2193C10.2942 20.2689 10.2382 20.3083 10.1944 20.3663C10.0065 20.6134 10.1101 28.5388 10.128 28.8262C9.58921 28.928 9.59356 30.1074 9.61357 30.5372C8.85116 30.8696 8.2903 31.3136 8.81781 31.9515C8.81781 32.0052 8.41674 32.5437 8.96426 32.9347C8.77025 33.6782 9.30791 33.6942 9.46567 33.7313C9.30849 34.2037 9.75857 34.3525 10.2893 34.1405C10.3969 37.1234 10.7791 42.7802 10.8229 42.9072C10.833 42.9362 10.8594 43.0354 10.9499 43.0481C13.2339 43.3764 34.2488 42.8741 34.6122 42.7912C34.8424 42.7393 34.8273 41.9734 34.8442 41.3583C41.0983 43.6084 55.1798 47.7696 55.6082 47.7383C55.6534 47.7351 55.6714 47.7331 55.6836 47.7232C56.1052 47.3877 58.2086 40.7858 58.5818 39.6415C59.2972 40.0672 59.5145 39.6624 59.5113 39.5649C59.5903 39.5837 59.6726 39.5839 59.7518 39.5655C59.8309 39.5472 59.9048 39.5109 59.9675 39.4593C60.0303 39.4077 60.0803 39.3423 60.1136 39.2682C60.147 39.1942 60.1627 39.1134 60.1597 39.0322C60.285 38.9928 60.7107 38.8736 60.5454 38.2492C60.6315 38.2074 60.7057 38.1447 60.7614 38.0669C60.8171 37.9892 60.8525 37.8987 60.8644 37.8038C60.8786 37.5146 60.4778 36.9906 59.9837 36.6913ZM38.9395 20.906C38.9152 20.9707 38.8899 21.0377 38.8641 21.109C38.1793 20.7199 37.5988 20.1708 37.1723 19.5085C37.6868 20.0616 38.2827 20.5329 38.9395 20.906ZM36.3858 19.122C36.0527 19.5726 35.5608 19.8799 35.0097 19.9818C34.9737 19.9901 34.942 20.0116 34.9212 20.0422C34.9003 20.0727 34.8917 20.11 34.8971 20.1466C34.9026 20.1832 34.9216 20.2165 34.9504 20.2397C34.9792 20.2629 35.0157 20.2743 35.0527 20.2718C35.3801 20.2163 35.6926 20.0944 35.9712 19.9136C36.2497 19.7328 36.4883 19.497 36.6723 19.2206C37.1311 20.139 37.8605 20.8946 38.7621 21.3857C38.751 21.4164 38.3653 22.4822 38.2009 22.9517C38.0268 22.7194 37.7692 22.5639 37.4826 22.5181C37.3993 22.0251 36.9148 21.9961 36.8051 22.4802C35.7771 22.5898 35.735 23.3618 36.1802 23.6912C36.7706 24.1282 37.6969 23.9522 37.8776 23.8785C37.3353 25.4474 36.8043 27.0201 36.2846 28.5965C35.4233 29.1681 34.792 28.7558 34.6255 28.6224C34.6255 28.4484 34.5188 26.106 34.5188 26.0764C34.6986 25.9642 34.981 25.7574 34.9636 25.5756C34.9457 25.3891 34.6905 25.4596 34.4912 25.5022C34.488 25.4732 34.4883 25.4068 34.4576 24.8431L35.6176 24.4809C35.6367 24.4758 35.6545 24.4669 35.67 24.4547C35.6855 24.4424 35.6984 24.4272 35.7078 24.4098C35.7223 24.3838 35.7285 24.3539 35.7256 24.3243C35.7227 24.2946 35.7109 24.2665 35.6916 24.2438C35.6724 24.221 35.6467 24.2046 35.6179 24.1968C35.5891 24.189 35.5587 24.1902 35.5306 24.2001L34.5985 24.4901C34.8836 23.9194 35.4221 22.7139 35.3122 21.9512C35.18 21.0348 34.5614 20.7581 34.1551 20.7271C34.1551 20.7271 34.0507 20.0978 34.0101 20.0093C34.86 19.9018 35.6733 19.5982 36.3858 19.1225V19.122ZM38.0118 23.3603C37.9701 23.753 36.8254 23.8318 36.3632 23.463C36.0775 23.235 36.15 22.8574 36.8011 22.7762C36.8933 23.2402 37.3469 23.2727 37.4681 22.82C37.5182 22.8287 38.0559 22.9618 38.0118 23.3609V23.3603ZM36.1146 29.1145L34.7717 33.2615L34.6658 29.7525C35.1939 29.6627 35.6916 29.4437 36.1146 29.1151V29.1145ZM34.1902 21.0301C34.4402 21.067 34.9126 21.2375 35.0219 21.9953C35.1292 22.7406 34.4222 24.2123 34.4222 24.1819C34.3688 23.2629 34.2923 21.979 34.1902 21.0301ZM10.1347 29.1377L10.1666 30.3444C10.0796 30.3664 9.99057 30.3922 9.90328 30.4224C9.88791 29.8453 9.97027 29.2612 10.1347 29.1377ZM8.90771 31.4261C9.15015 30.5242 11.1987 30.2951 11.4513 30.6503C11.4913 30.6982 11.4191 30.813 11.1001 30.9218C10.8725 30.9479 9.71101 31.11 9.01617 31.7303C8.96699 31.6987 8.92967 31.6517 8.91005 31.5967C8.89042 31.5416 8.8896 31.4816 8.90771 31.4261ZM8.94309 32.4411C9.00573 31.3515 11.4319 30.9438 11.721 31.3704C11.721 31.3704 11.8057 31.5342 11.2312 31.8054C10.4725 31.9432 9.75239 32.2427 9.1197 32.6835C9.0472 32.6301 8.937 32.5461 8.94309 32.4419V32.4411ZM9.2734 32.9494C9.2734 32.8361 11.1265 31.6085 11.8428 32.2697C11.8428 32.2697 11.817 32.4251 11.0966 32.725C10.5616 32.8671 10.0618 33.1184 9.62865 33.463C9.50917 33.4459 8.96078 33.4387 9.2734 32.9503V32.9494ZM9.72638 33.9047C9.66432 33.6771 11.0125 32.6516 11.8631 33.115C11.9359 33.3209 9.82817 34.2141 9.72638 33.9056V33.9047ZM34.4727 42.5194C34.254 42.5571 33.6282 42.5975 32.6929 42.6378C32.1669 41.6042 28.688 35.2744 22.4559 35.2744C16.0034 35.2744 12.7783 41.7185 12.2566 42.864C11.851 42.8563 11.4461 42.8246 11.0441 42.7691C11.0105 42.6473 10.6988 37.3667 10.5801 34.0517C10.7396 33.9981 10.9238 33.9299 11.1346 33.8435C11.9153 33.5245 12.2143 33.2957 12.1656 33.0553C12.1337 32.8932 11.9429 32.8056 11.7036 32.7621C12.3489 32.3944 12.2279 32.0191 11.6691 31.8672C12.2099 31.4574 12.078 31.1024 11.5632 30.9722C11.7346 30.8252 11.7871 30.6785 11.7204 30.532C11.6001 30.271 11.0642 30.184 10.4598 30.2823C10.3148 25.0043 10.2994 21.0577 10.4288 20.5595C10.9893 20.404 33.2709 19.9795 33.7526 20.1494C33.922 20.6592 34.5568 29.1142 34.4996 34.1234C33.7282 36.5701 32.6837 40.3874 32.6863 40.4807C32.6843 40.5133 32.691 40.5459 32.7058 40.575C32.7206 40.6041 32.7429 40.6287 32.7704 40.6463C32.8359 40.6858 33.5087 40.916 34.5568 41.2623C34.5597 41.6831 34.5316 42.1036 34.4727 42.5203V42.5194ZM44.1375 44.0327C44.1085 44.0182 33.6395 40.671 32.9812 40.4187C33.0044 40.2525 33.038 40.0878 33.0812 39.9257C33.181 39.8097 38.1531 33.7443 45.1241 36.4521L45.4526 39.8358L44.1375 44.0327ZM44.8915 32.8152C44.7233 31.9967 44.6966 31.1554 44.8123 30.3278C44.8123 30.3278 43.6981 29.8928 43.8391 29.3033C44.0314 28.4979 45.035 29.1003 45.4381 29.3294C45.7513 29.5071 45.7931 28.5333 46.7794 28.0122C48.0049 27.3646 49.3085 26.5894 49.3085 26.5894C48.827 27.1363 48.214 27.5513 47.5273 27.795C47.4937 27.8052 47.4648 27.8273 47.4461 27.857C47.4273 27.8868 47.4199 27.9223 47.4252 27.9571C47.4306 27.9917 47.448 28.0234 47.4744 28.0464C47.5009 28.0695 47.5346 28.0824 47.5696 28.083C47.7465 28.0745 48.4918 27.8063 49.2592 27.068C49.072 27.3908 48.7879 27.6464 48.4472 27.7987C48.4113 27.8138 48.3828 27.8424 48.3679 27.8784C48.353 27.9143 48.3528 27.9547 48.3674 27.9907C48.3909 28.0473 48.4483 28.0989 48.5034 28.0818C48.7837 27.9949 49.0367 27.8371 49.2381 27.6237C49.4394 27.4103 49.5822 27.1486 49.6527 26.8638C49.7496 27.5835 50.0926 28.2474 50.6236 28.7427C50.651 28.7687 50.6874 28.7832 50.7251 28.7831C50.7629 28.7831 50.7992 28.7685 50.8265 28.7424C50.8538 28.7163 50.87 28.6806 50.8718 28.6429C50.8735 28.6052 50.8607 28.5682 50.8359 28.5397C50.4335 28.149 50.1431 27.6576 49.9949 27.1167C50.4311 27.8013 50.9095 28.4582 51.4272 29.0835C51.7868 29.5347 51.5206 30.7829 51.6227 30.9954C51.7248 31.208 52.9741 31.1314 52.9715 32.0075C52.9694 32.7656 51.6502 32.2703 51.5403 32.5078C51.0789 33.5048 50.1695 35.2694 48.4663 35.2431C48.4304 35.2398 48.3945 35.2492 48.3648 35.2696C48.335 35.29 48.3133 35.3201 48.3033 35.3547L47.9066 37.0422L45.7136 39.5034L45.4112 36.3668L45.6432 35.6183C46.0669 35.6873 47.217 35.8057 47.7776 35.1784C47.7767 35.1784 45.9135 35.2187 44.8924 32.816L44.8915 32.8152ZM55.841 46.745C55.7546 46.984 55.6554 47.218 55.5444 47.4465C54.9789 47.3851 50.8675 46.1566 44.4182 44.1231L45.7334 39.9277L48.0911 37.2809C52.2961 38.4673 54.1811 40.9639 55.0183 42.8553C55.5644 44.0791 55.8448 45.4049 55.841 46.745ZM56.1159 46.0003C56.0255 44.878 55.7473 43.7788 55.2932 42.7485C54.4328 40.8015 52.5069 38.2361 48.219 37.0112L48.5635 35.5432C49.2031 35.5386 49.8162 35.2868 50.2745 34.8405C51.5682 34.6059 52.3625 33.2696 52.6377 32.7212C53.6196 32.4408 53.2435 31.6128 53.1229 31.4435C53.1229 31.4435 53.7812 29.0333 53.1809 27.5038C52.6046 26.0358 51.4469 25.2256 50.2713 25.1838C50.2347 24.9801 50.1477 24.7887 50.0182 24.6272C49.8888 24.4656 49.7209 24.3391 49.53 24.259C49.4941 24.2439 49.4536 24.2437 49.4175 24.2584C49.3814 24.2732 49.3526 24.3016 49.3375 24.3376C49.3224 24.3736 49.3222 24.414 49.3369 24.4502C49.3516 24.4863 49.3801 24.515 49.4161 24.5302C49.642 24.6317 49.8244 24.8103 49.9308 25.0342C49.3971 24.6998 48.7642 24.5599 48.1392 24.6383C46.6654 24.7813 44.4339 26.3557 44.1975 28.616C43.1202 29.0002 43.6343 29.8537 43.8205 30.0593C43.7915 30.5091 43.7825 31.8486 44.5592 32.6055C44.7005 33.3578 45.0913 34.0405 45.6684 34.5433L45.1679 36.1539C43.9194 35.6372 38.7606 33.7928 33.2358 39.3312C35.1449 32.9094 39.2098 20.6842 39.918 19.3165C47.3649 21.1102 61.8484 25.8276 62.2552 26.142C62.2947 26.8476 59.6015 35.3562 59.3326 36.3404C58.8782 36.1557 57.9896 36.0742 58.2924 36.6849C57.559 36.7496 57.7942 37.1689 57.9679 37.4009C57.1681 37.3502 57.4833 37.9061 57.6967 38.128C57.4563 38.1077 57.3058 38.1555 57.2464 38.2715C57.142 38.4745 57.3461 38.7396 57.9731 39.2187C58.1016 39.317 58.2184 39.4017 58.3243 39.4747C57.4343 42.2086 56.6368 44.5631 56.1159 45.9997V46.0003ZM59.7311 36.5324C59.7021 36.5176 59.68 36.5017 59.6029 36.464L59.872 35.6145C59.9046 35.9273 59.856 36.2432 59.7311 36.5318V36.5324ZM59.2152 39.5994C59.0992 39.7563 57.3424 38.6471 57.5369 38.4171C57.8612 38.0346 59.3448 39.3315 59.2152 39.5994ZM59.426 39.2598C59.1099 38.6349 57.659 37.9708 57.7579 37.7179C58.1755 37.1542 60.8618 39.4866 59.4266 39.2598H59.426ZM60.2856 38.5995C60.2321 38.6687 60.1597 38.7207 60.0771 38.7492C59.9721 38.5725 59.1995 37.6953 58.4142 37.4642C57.9734 37.1162 58.0865 37.0063 58.0865 37.0063C58.8831 36.827 60.5448 38.248 60.2861 38.5995H60.2856ZM60.41 37.9844C59.9439 37.4729 59.381 37.0589 58.7538 36.7664C58.6535 36.6913 58.5728 36.5933 58.5183 36.4805C59.1644 36.2775 60.6217 37.5483 60.5695 37.7881C60.5576 37.8299 60.5374 37.8688 60.5101 37.9025C60.4828 37.9363 60.4489 37.9641 60.4106 37.9844H60.41Z" fill="#414141"/>
<path d="M47.7119 32.3474C47.7119 32.4666 47.4724 32.7673 46.8973 32.7114C46.4318 32.6658 46.2483 32.3207 46.3254 32.134C46.4463 31.8422 46.745 32.0531 47.0214 32.1C47.2711 32.1421 47.7122 32.1383 47.7119 32.3474Z" fill="#414141"/>
<path d="M47.9488 32.4272C47.8859 32.5287 47.9198 32.8982 48.4577 33.1081C48.8927 33.2781 49.29 33.0412 49.2909 32.8393C49.2909 32.5632 48.9014 32.6381 48.6329 32.5545C48.3916 32.4797 48.0625 32.2448 47.9488 32.4272Z" fill="#414141"/>
<path d="M33.3883 52.519H28.034C28.0245 52.49 24.7324 43.6427 24.7211 43.614C24.4833 42.9977 24.0541 41.584 21.9043 41.584C19.2528 41.584 10.7973 41.7597 9.94703 41.7655C8.01563 41.7783 7.24046 42.9911 7.75144 44.6713C8.42743 46.8942 10.6836 53.1646 10.6836 53.1646C10.6836 53.1646 11.0235 54.7279 13.1988 54.7279C15.3741 54.7279 24.755 54.5919 26.1148 54.558C26.776 54.5415 27.4123 54.4841 27.8023 54.1955H33.4889C33.5899 54.1955 34.4193 54.3202 34.4193 53.425C34.4193 52.5297 33.8416 52.519 33.3883 52.519Z" fill="white"/>
<path d="M33.4445 52.3497C33.1487 52.3396 28.4212 52.4231 28.1575 52.4245C28.1367 52.361 24.5781 42.8983 24.5514 42.8502C24.1959 42.1907 23.4975 41.437 21.9043 41.437C20.155 41.437 10.0607 41.6177 9.94641 41.6186C7.93091 41.6325 7.06555 42.9236 7.61104 44.7149C8.26992 46.8803 10.4513 52.9509 10.5429 53.2067C10.6317 53.5201 10.7941 53.8076 11.0168 54.0453C11.3631 54.4244 12.0219 54.8756 13.1991 54.8756C15.3326 54.8756 24.7411 54.7396 26.1186 54.7051C26.6574 54.6915 27.3499 54.657 27.8046 54.3728C28.3321 54.3699 33.4933 54.3249 33.4933 54.3249C33.9642 54.309 34.6092 54.2872 34.5895 53.3772C34.5677 52.3871 33.8369 52.3628 33.4445 52.3497ZM26.111 54.411C24.7344 54.4453 15.3317 54.5816 13.1991 54.5816C11.1766 54.5816 10.8414 53.1925 10.8277 53.1336C10.8103 53.0643 8.58515 46.9061 7.89263 44.6293C7.39963 43.0094 8.15363 41.9245 9.94786 41.9126C10.0639 41.9126 20.124 41.7311 21.9043 41.7311C22.988 41.7311 23.7893 42.0826 24.2985 42.9981C25.1436 45.1313 27.9113 52.6055 27.9174 52.6345C28.0833 53.1748 28.1538 53.7826 27.6883 54.0987C27.6816 54.103 27.6751 54.1077 27.6689 54.1126C27.3345 54.331 26.7948 54.3942 26.111 54.411ZM33.4834 54.0311C32.9779 54.048 28.7781 54.0729 28.128 54.0767C28.4064 53.6936 28.3663 53.1777 28.246 52.7169C28.246 52.7169 32.973 52.6299 33.4347 52.6435C33.9135 52.6594 34.2809 52.7241 34.2951 53.3836C34.3082 53.9757 34.0257 54.0129 33.4834 54.0311Z" fill="#414141"/>
<path d="M16.8418 49.1713C17.0852 49.1713 17.3186 49.0747 17.4907 48.9026C17.6628 48.7305 17.7595 48.497 17.7595 48.2536C17.7595 48.0103 17.6628 47.7768 17.4907 47.6047C17.3186 47.4326 17.0852 47.3359 16.8418 47.3359C16.5984 47.3359 16.365 47.4326 16.1929 47.6047C16.0208 47.7768 15.9241 48.0103 15.9241 48.2536C15.9241 48.497 16.0208 48.7305 16.1929 48.9026C16.365 49.0747 16.5984 49.1713 16.8418 49.1713Z" fill="#414141"/>
<path d="M31.6894 51.4539C31.6551 51.4534 31.6219 51.441 31.5957 51.4188C31.5695 51.3965 31.5518 51.3659 31.5456 51.3321C31.5396 51.2982 31.5457 51.2632 31.5628 51.2333C31.5799 51.2034 31.607 51.1805 31.6393 51.1685L36.3979 49.4451C36.4255 49.4344 36.4556 49.4322 36.4845 49.4387C36.5133 49.4452 36.5396 49.4601 36.56 49.4816C36.58 49.5035 36.593 49.5308 36.5973 49.5601C36.6017 49.5894 36.5972 49.6193 36.5843 49.646C36.5757 49.6637 36.5636 49.6795 36.5488 49.6925C36.5339 49.7054 36.5166 49.7153 36.4979 49.7214C31.6923 51.4614 31.73 51.4539 31.6894 51.4539Z" fill="#414141"/>
<path d="M31.0945 50.1173C31.0649 50.1174 31.036 50.1085 31.0116 50.0917C30.9872 50.075 30.9684 50.0512 30.9579 50.0236C30.9471 49.9961 30.9449 49.966 30.9514 49.9372C30.958 49.9084 30.9731 49.8822 30.9947 49.8621L33.2425 47.7839C33.2712 47.7576 33.3092 47.7437 33.3481 47.7452C33.3871 47.7468 33.4238 47.7636 33.4504 47.792C33.4636 47.8062 33.4739 47.8228 33.4806 47.8409C33.4874 47.859 33.4905 47.8782 33.4897 47.8976C33.4889 47.9169 33.4844 47.9358 33.4762 47.9534C33.4681 47.9709 33.4566 47.9866 33.4423 47.9997C31.1214 50.1468 31.1841 50.1173 31.0945 50.1173Z" fill="#414141"/>
<path d="M29.4119 49.6412C29.3877 49.6414 29.3638 49.6355 29.3425 49.6241C29.3212 49.6127 29.303 49.5961 29.2898 49.5759C29.2764 49.5559 29.2681 49.5328 29.2656 49.5088C29.2632 49.4848 29.2667 49.4605 29.2759 49.4382L30.8761 45.4979C30.8907 45.4618 30.9191 45.433 30.955 45.4178C30.9909 45.4027 31.0314 45.4024 31.0675 45.417C31.1036 45.4317 31.1324 45.4601 31.1476 45.496C31.1628 45.5319 31.1631 45.5723 31.1484 45.6084L29.5482 49.5492C29.5373 49.5765 29.5185 49.5998 29.4942 49.6162C29.4699 49.6326 29.4412 49.6413 29.4119 49.6412Z" fill="#414141"/>
</svg>
