<svg width="48" height="38" viewBox="0 0 48 38" fill="none" xmlns="http://www.w3.org/2000/svg">
<path d="M25.5802 34.3102C25.5802 34.3102 39.5127 34.4402 39.9902 34.3102C40.4677 34.1803 44.2402 34.9527 44.3727 31.0952C44.5027 27.2852 44.4327 11.1852 44.3727 10.5952C44.3127 10.0052 44.3952 6.53525 39.6552 6.54775C35.0827 6.54775 10.0027 6.49525 7.38266 6.54775C3.95266 6.61275 3.15516 7.45275 3.13266 10.9777C3.11016 14.5027 3.03766 24.0527 3.03766 24.0527C2.70058 24.168 2.3976 24.3655 2.15618 24.6274C1.91476 24.8894 1.74255 25.2074 1.65516 25.5527C1.49516 26.1502 2.30516 32.1252 3.08516 34.3027C3.33516 34.9678 4.53266 35.6177 6.48516 35.2102C9.77266 34.5227 13.8852 33.9602 13.8852 33.9602C13.9327 34.3652 14.2552 34.3252 14.6602 34.3252L25.5802 34.3102Z" fill="white"/>
<path d="M44.5153 11.4557C44.5153 9.83567 44.5153 6.43067 39.8478 6.43067H7.40531C5.69031 6.43067 3.09531 6.40567 3.07031 10.0507V15.6607C3.07492 15.6955 3.09204 15.7275 3.11848 15.7507C3.14493 15.7739 3.1789 15.7867 3.21406 15.7867C3.24923 15.7867 3.2832 15.7739 3.30964 15.7507C3.33609 15.7275 3.3532 15.6955 3.35781 15.6607C3.35781 15.6357 3.31031 14.1357 3.35781 11.0157C5.02531 11.0157 21.7203 10.9207 44.2778 10.7532C44.2778 11.0157 44.3003 29.4507 44.3003 30.5232C44.3003 31.8082 44.0128 32.7132 43.4203 33.2732C42.4203 34.2457 40.7053 34.2157 38.8703 34.2032L25.7328 34.1607C25.5778 34.1607 25.5028 34.5007 25.7328 34.5007L39.8328 34.5257C41.3578 34.5257 42.7203 34.4107 43.6203 33.5257C44.2678 32.8882 44.6203 31.9082 44.5953 30.5732C44.5753 29.4107 44.5153 14.3632 44.5153 11.4557ZM3.33281 10.7057V10.0382C3.34531 8.53817 3.80781 7.58067 4.73781 7.08567C5.54781 6.65317 6.57281 6.68067 7.40531 6.68067H39.8478C43.4678 6.68067 44.1103 8.77567 44.2303 10.4432C21.6978 10.6232 5.00031 10.6932 3.33281 10.7182V10.7057Z" fill="#313131"/>
<path d="M36.7976 8.26674C36.7628 8.26213 36.7308 8.24501 36.7076 8.21857C36.6844 8.19212 36.6716 8.15815 36.6716 8.12299C36.6716 8.08782 36.6844 8.05386 36.7076 8.02741C36.7308 8.00097 36.7628 7.98385 36.7976 7.97924C36.8226 7.97924 38.9876 7.95674 41.4176 7.97924C41.4381 7.97653 41.4589 7.97823 41.4787 7.98422C41.4984 7.9902 41.5167 8.00034 41.5322 8.01395C41.5477 8.02756 41.5602 8.04432 41.5687 8.06313C41.5772 8.08193 41.5816 8.10234 41.5816 8.12299C41.5816 8.14363 41.5772 8.16404 41.5687 8.18285C41.5602 8.20165 41.5477 8.21842 41.5322 8.23203C41.5167 8.24564 41.4984 8.25577 41.4787 8.26176C41.4589 8.26775 41.4381 8.26944 41.4176 8.26674C38.9876 8.24174 36.7976 8.26674 36.7976 8.26674Z" fill="#005BC3"/>
<path d="M36.7976 9.57631C36.7628 9.5717 36.7308 9.55458 36.7076 9.52814C36.6844 9.50169 36.6716 9.46772 36.6716 9.43256C36.6716 9.39739 36.6844 9.36343 36.7076 9.33698C36.7308 9.31054 36.7628 9.29342 36.7976 9.28881C36.8226 9.28881 38.9876 9.26631 41.4176 9.28881C41.4381 9.2861 41.4589 9.2878 41.4787 9.29379C41.4984 9.29977 41.5167 9.30991 41.5322 9.32352C41.5477 9.33713 41.5602 9.35389 41.5687 9.3727C41.5772 9.3915 41.5816 9.41191 41.5816 9.43256C41.5816 9.4532 41.5772 9.47361 41.5687 9.49242C41.5602 9.51122 41.5477 9.52799 41.5322 9.5416C41.5167 9.55521 41.4984 9.56534 41.4787 9.57133C41.4589 9.57732 41.4381 9.57901 41.4176 9.57631C38.9876 9.55131 36.7976 9.57631 36.7976 9.57631Z" fill="#005BC3"/>
<path d="M36.7968 8.93137C36.759 8.93137 36.7228 8.91635 36.696 8.88963C36.6693 8.8629 36.6543 8.82666 36.6543 8.78886C36.6543 8.75107 36.6693 8.71483 36.696 8.6881C36.7228 8.66138 36.759 8.64637 36.7968 8.64637C36.8218 8.64637 38.9868 8.62137 41.4168 8.64637C41.4541 8.64866 41.4893 8.66434 41.5159 8.69052C41.5426 8.7167 41.5589 8.75163 41.5618 8.78886C41.5594 8.82629 41.5433 8.86151 41.5165 8.8878C41.4898 8.91409 41.4543 8.9296 41.4168 8.93137C38.9868 8.89637 36.7968 8.93137 36.7968 8.93137Z" fill="#005BC3"/>
<path d="M6.71414 8.69282C6.71162 8.78683 6.67314 8.87631 6.60664 8.94281C6.54013 9.00932 6.45066 9.04779 6.35664 9.05032C6.25516 9.04709 6.15888 9.00465 6.08802 8.93193C6.01716 8.8592 5.97724 8.76185 5.97664 8.66032C5.97562 8.61309 5.98417 8.56614 6.00177 8.52231C6.01938 8.47847 6.04567 8.43865 6.07907 8.40525C6.11248 8.37184 6.1523 8.34555 6.19613 8.32794C6.23997 8.31034 6.28692 8.30179 6.33414 8.30282C6.43443 8.30952 6.5287 8.35304 6.59885 8.42503C6.66899 8.49702 6.71005 8.59239 6.71414 8.69282Z" fill="#005BC3"/>
<path d="M8.52485 8.69299C8.52233 8.78701 8.48385 8.87648 8.41735 8.94298C8.35084 9.00949 8.26137 9.04796 8.16735 9.05049C8.06587 9.04726 7.96959 9.00482 7.89873 8.9321C7.82787 8.85938 7.78795 8.76202 7.78735 8.66049C7.78801 8.56853 7.82483 8.48052 7.88986 8.41549C7.95488 8.35046 8.04289 8.31364 8.13485 8.31299C8.23528 8.31708 8.33065 8.35814 8.40264 8.42829C8.47463 8.49843 8.51815 8.5927 8.52485 8.69299Z" fill="#005BC3"/>
<path d="M10.2864 8.69282C10.2839 8.78683 10.2454 8.87631 10.1789 8.94281C10.1124 9.00932 10.0229 9.04779 9.92891 9.05032C9.82743 9.04709 9.73114 9.00465 9.66028 8.93193C9.58942 8.8592 9.54951 8.76185 9.54891 8.66032C9.54789 8.61309 9.55643 8.56614 9.57404 8.52231C9.59164 8.47847 9.61794 8.43865 9.65134 8.40525C9.68474 8.37184 9.72456 8.34555 9.7684 8.32794C9.81224 8.31034 9.85918 8.30179 9.90641 8.30282C10.0067 8.30952 10.101 8.35304 10.1711 8.42503C10.2413 8.49702 10.2823 8.59239 10.2864 8.69282Z" fill="#005BC3"/>
<path d="M17.2746 22.4688C12.5771 22.1963 8.59213 22.7838 4.29213 23.6263C2.71713 23.9338 1.57463 24.1263 1.62463 26.3463C1.66963 28.3038 2.48713 32.7663 2.82713 33.7838C3.21963 34.9563 3.82713 35.5913 5.77463 35.4113C8.06463 35.1988 14.5246 33.9438 14.5771 33.9313C14.5949 33.9283 14.6119 33.9217 14.6271 33.912C14.6423 33.9022 14.6553 33.8894 14.6654 33.8744C14.6755 33.8595 14.6824 33.8426 14.6857 33.8248C14.689 33.8071 14.6886 33.7889 14.6846 33.7713C14.6774 33.7359 14.6565 33.7049 14.6266 33.6848C14.5967 33.6647 14.5601 33.6571 14.5246 33.6638C14.4596 33.6763 8.02463 34.9288 5.74963 35.1388C5.21395 35.2156 4.66782 35.1704 4.15213 35.0063C4.58463 34.2288 6.70463 30.4838 8.08713 29.0438C9.08713 29.5438 10.6221 30.2113 11.7521 30.1238C13.6421 29.9763 16.2996 24.4688 16.4121 24.2338C16.4276 24.2016 16.4298 24.1646 16.4181 24.1308C16.4063 24.0971 16.3817 24.0694 16.3496 24.0538C16.3336 24.0457 16.3161 24.0409 16.2982 24.0397C16.2802 24.0385 16.2622 24.0408 16.2452 24.0467C16.2282 24.0525 16.2126 24.0616 16.1992 24.0736C16.1858 24.0855 16.1749 24.1 16.1671 24.1163C16.1396 24.1738 13.4646 29.7163 11.7296 29.8513C9.38963 30.0338 4.47963 26.6763 2.17713 24.8513C2.55463 24.2288 3.29463 24.0838 4.34213 23.8913C8.98963 23.0313 12.1946 22.4438 17.2596 22.7363C17.2774 22.7373 17.2951 22.7348 17.3119 22.7289C17.3287 22.723 17.3441 22.7139 17.3573 22.7021C17.3706 22.6902 17.3814 22.6759 17.389 22.6599C17.3967 22.6439 17.4012 22.6265 17.4021 22.6088C17.4031 22.5912 17.4006 22.5735 17.3947 22.5569C17.3888 22.5403 17.3797 22.525 17.3678 22.512C17.3559 22.4989 17.3416 22.4884 17.3256 22.481C17.3096 22.4735 17.2923 22.4694 17.2746 22.4688ZM7.83463 28.9113C6.39963 30.4463 4.31713 34.1413 3.90213 34.8888C3.38713 34.5963 3.23463 34.1388 3.05713 33.6088C2.81963 32.9038 1.94463 28.4613 1.89713 26.3388C1.87035 25.9206 1.92468 25.5013 2.05713 25.1038C2.56463 25.5038 5.22713 27.5588 7.83463 28.9113Z" fill="#313131"/>
<path d="M1.90596 23.9859C6.57972 22.5992 11.4424 21.9555 16.316 22.0784C16.51 21.8453 16.7161 21.6225 16.9335 21.4109C16.9335 21.4109 7.59596 15.2734 6.33596 14.7184C5.26096 14.2484 4.63596 14.9534 4.31096 15.4684C4.06096 15.8459 0.713457 20.4684 0.450957 21.5184C0.188457 22.5684 0.713457 23.1984 1.90596 23.9859Z" fill="#7BD2FF"/>
<path d="M8.46502 22.4459C7.86002 21.6959 5.53752 15.5909 5.20002 14.6959C5.19364 14.679 5.18398 14.6635 5.1716 14.6503C5.15922 14.6371 5.14436 14.6265 5.12787 14.6191C5.11138 14.6116 5.09359 14.6075 5.07551 14.607C5.05743 14.6065 5.03943 14.6095 5.02252 14.6159C5.00591 14.6223 4.99073 14.6319 4.97784 14.6441C4.96495 14.6564 4.9546 14.671 4.9474 14.6873C4.9402 14.7036 4.93628 14.7211 4.93587 14.7389C4.93546 14.7566 4.93857 14.7743 4.94502 14.7909C5.01752 14.9859 6.21002 18.1434 7.17502 20.4109C5.22502 20.5984 0.842521 22.0359 0.425021 22.1109C0.40247 22.1084 0.379663 22.1117 0.358706 22.1204C0.33775 22.1291 0.31932 22.1429 0.305118 22.1606C0.290917 22.1783 0.281402 22.1993 0.277452 22.2216C0.273503 22.2439 0.275246 22.2669 0.282521 22.2884C0.332521 22.4384 0.345021 22.4309 1.57502 22.0684C3.11752 21.6134 5.95502 20.7759 7.29752 20.6734C7.55909 21.3486 7.88124 21.9988 8.26002 22.6159C8.28419 22.6368 8.31499 22.6485 8.34694 22.6488C8.37889 22.6491 8.40992 22.6381 8.43451 22.6177C8.45911 22.5973 8.47567 22.5689 8.48126 22.5374C8.48685 22.5059 8.48109 22.4735 8.46502 22.4459Z" fill="white"/>
<path d="M27.8183 16.3632C27.5958 15.5257 26.2233 10.9082 25.0683 8.95571C23.9133 7.00321 21.6358 5.12071 19.8158 6.41071C19.7911 6.42614 19.7634 6.43632 19.7346 6.44062C19.7058 6.44492 19.6764 6.44325 19.6483 6.43571C19.2433 6.31571 17.6233 5.98071 16.5058 7.15071C13.6408 10.1507 15.0058 15.3682 13.8383 18.4632C13.8296 18.489 13.8264 18.5163 13.829 18.5433C13.8316 18.5704 13.8399 18.5966 13.8534 18.6202C13.8668 18.6438 13.8852 18.6643 13.9071 18.6804C13.9291 18.6964 13.9542 18.7076 13.9808 18.7132C15.2908 19.0932 22.5783 21.0007 27.7483 16.5707C27.7772 16.5454 27.799 16.5129 27.8113 16.4764C27.8236 16.44 27.826 16.4009 27.8183 16.3632Z" fill="#313131"/>
<path d="M38.1064 12.5508C38.1324 12.188 38.2465 11.837 38.4389 11.5283C38.7739 10.9558 39.3389 9.50329 39.2739 8.69329C39.2214 8.05079 40.2489 6.28829 39.8464 6.14579C39.5114 6.02579 38.5589 8.07329 38.5589 8.07329L38.2489 8.02579C38.2489 8.02579 38.5364 5.14329 38.0839 5.12079C37.6314 5.09829 37.5114 7.97829 37.5114 7.97829L37.0814 8.05079C37.0814 8.05079 36.4864 4.78579 36.0814 4.76329C35.6764 4.74079 36.2714 8.26329 36.2714 8.26329L35.9389 8.35829C35.9389 8.35829 34.8839 5.52079 34.3839 5.66079C33.6914 5.86829 35.7664 10.0008 35.5264 10.1383C35.2864 10.2758 34.1239 9.06829 33.8364 9.42329C33.4089 9.95079 34.9614 10.9658 36.0039 11.7358C36.1939 11.8758 36.1689 12.3308 36.1464 12.6158L38.1064 12.5508Z" fill="white"/>
<path d="M23.3856 31.4409L22.7656 34.1084C23.0152 34.6284 23.238 35.1607 23.4331 35.7034C23.5481 36.0859 24.0056 37.2959 24.2431 37.2509C24.4806 37.2059 24.4931 36.8709 24.4931 36.8709C24.4931 36.8709 24.9231 37.1209 25.1381 36.5359C25.1381 36.5359 25.7081 36.7859 25.6131 35.6559C25.6131 35.6559 26.1856 35.5834 25.5656 33.8684C25.6512 33.9072 25.7484 33.9117 25.8372 33.881C25.926 33.8503 25.9997 33.7868 26.0431 33.7034C26.1806 33.4534 25.5431 32.2259 24.3981 32.2034C24.1135 31.8858 23.7695 31.6268 23.3856 31.4409Z" fill="white"/>
<path d="M21.9128 20.3157C21.9128 20.3157 24.5078 21.8657 25.0078 19.2207L24.4353 17.9107C24.4353 17.9107 26.5553 16.1607 25.1278 13.0757C25.1278 13.0757 25.9128 12.3257 25.4853 11.3857C25.3576 11.1197 25.1531 10.8979 24.8982 10.7491C24.6434 10.6003 24.3498 10.5312 24.0553 10.5507C24.0553 10.5507 23.2928 8.41074 20.3628 8.07324C20.3628 8.07324 19.8878 11.3382 17.5778 12.6007L17.9828 14.0532C17.9828 14.0532 16.7678 14.0757 16.6478 15.0757C16.5278 16.0757 18.0053 16.3632 18.6253 15.9807C18.6253 15.9807 19.4828 18.2932 21.5778 18.5782C21.5778 18.5532 21.9603 19.9357 21.9128 20.3157Z" fill="white"/>
<path d="M19.8375 15.5174C19.8392 15.5743 19.8567 15.6299 19.889 15.681C19.9213 15.7321 19.9677 15.7776 20.0255 15.8148C20.0833 15.8521 20.1513 15.8803 20.2255 15.8979C20.2998 15.9155 20.3788 15.922 20.4579 15.9172C20.537 15.9124 20.6146 15.8962 20.6861 15.8698C20.7577 15.8433 20.8218 15.807 20.8746 15.763C20.9274 15.719 20.9679 15.6682 20.9937 15.6135C21.0196 15.5589 21.0302 15.5016 21.025 15.4449C21.0232 15.3879 21.0057 15.3323 20.9734 15.2812C20.9412 15.2301 20.8948 15.1846 20.837 15.1474C20.7792 15.1102 20.7112 15.0819 20.6369 15.0643C20.5627 15.0467 20.4837 15.0402 20.4046 15.045C20.3255 15.0498 20.2479 15.066 20.1763 15.0924C20.1048 15.1189 20.0407 15.1552 19.9879 15.1992C19.935 15.2432 19.8945 15.294 19.8687 15.3487C19.8429 15.4033 19.8323 15.4606 19.8375 15.5174Z" fill="#FCCAC2"/>
<path d="M24.438 13.9937C24.4636 14.0412 24.5017 14.0811 24.5499 14.1111C24.5982 14.1411 24.6558 14.1607 24.7192 14.1685C24.7826 14.1764 24.8507 14.1725 24.9193 14.157C24.988 14.1415 25.0559 14.1147 25.119 14.0782C25.1821 14.0418 25.2392 13.9964 25.2869 13.9447C25.3347 13.893 25.3721 13.836 25.3969 13.7771C25.4218 13.7183 25.4337 13.6587 25.4318 13.6018C25.4299 13.545 25.4143 13.4921 25.386 13.4462C25.3598 13.3996 25.3214 13.3605 25.2731 13.3312C25.2247 13.3019 25.1673 13.283 25.1043 13.2756C25.0412 13.2681 24.9737 13.2723 24.9056 13.2878C24.8375 13.3034 24.7702 13.33 24.7076 13.3662C24.645 13.4023 24.5883 13.4473 24.5408 13.4985C24.4933 13.5497 24.4559 13.606 24.4308 13.6644C24.4057 13.7227 24.3934 13.7819 24.3946 13.8384C24.3958 13.8949 24.4105 13.9477 24.4377 13.9937" fill="#FCCAC2"/>
<path d="M38.5857 12.4332H38.2507C38.3257 12.0142 38.4711 11.611 38.6807 11.2407L38.8232 10.9332C39.1619 10.1641 39.3633 9.3417 39.4182 8.50316C39.5757 7.91066 40.3482 6.19316 39.9182 5.97816C39.8944 5.96057 39.8668 5.94909 39.8375 5.94473C39.8083 5.94037 39.7785 5.94326 39.7507 5.95316C39.4182 6.07066 38.7282 7.38316 38.4882 7.93066L38.3707 7.90816C38.3932 7.65816 38.4457 7.12066 38.4657 6.59816C38.5207 5.21566 38.3457 5.00066 38.1332 4.97816C38.0656 4.97372 37.9984 4.99032 37.9407 5.02566C37.5907 5.30566 37.4282 7.11816 37.3457 7.86066L37.1307 7.88316C37.0357 7.19316 36.6782 5.00316 36.2257 4.66816C36.196 4.64231 36.1609 4.62341 36.123 4.61281C36.0851 4.60222 36.0453 4.6002 36.0065 4.6069C35.9677 4.6136 35.9309 4.62886 35.8988 4.65157C35.8666 4.67427 35.84 4.70385 35.8207 4.73816C35.4807 5.21066 35.9182 7.48816 36.0707 8.19316L35.9982 8.21566C35.9282 8.00316 35.7482 7.55066 35.5232 7.07316C34.9282 5.76316 34.6182 5.62066 34.4982 5.59566C34.4181 5.5626 34.3282 5.5626 34.2482 5.59566C33.6907 5.86816 34.5407 7.63816 35.3907 9.98066C35.3023 9.92332 35.2187 9.85895 35.1407 9.78816C34.6657 9.43066 34.0207 8.93066 33.6407 9.38316C33.6047 9.42069 33.5791 9.46693 33.5664 9.51733C33.5537 9.56773 33.5543 9.62056 33.5682 9.67066C33.6757 10.4607 35.8607 11.7307 35.9507 11.9082C36.0249 12.0975 36.0414 12.3045 35.9982 12.5032C35.7721 12.5026 35.5471 12.5355 35.3307 12.6007C35.2832 12.7182 34.8082 20.2207 34.8082 20.2207C33.1882 19.1507 29.0432 17.5957 27.0432 18.0782C26.3297 18.255 25.6578 18.5701 25.0657 19.0057C24.9457 18.7207 24.7082 18.1957 24.5657 17.8882C25.6182 17.0832 26.1982 15.1732 25.2557 13.1007C25.4054 12.9596 25.5249 12.7895 25.607 12.6009C25.6891 12.4122 25.732 12.2089 25.7332 12.0032C25.7082 10.5257 24.1857 10.4807 24.1607 10.4807C23.1357 8.09816 20.3507 7.95566 20.3257 7.95566C20.2913 7.95285 20.2572 7.96355 20.2306 7.98549C20.204 8.00743 20.187 8.03888 20.1832 8.07316C20.1832 8.09816 19.9557 11.1832 17.5157 12.4807C17.493 12.4968 17.4745 12.5182 17.4619 12.543C17.4493 12.5678 17.4429 12.5953 17.4432 12.6232C17.5632 13.0532 17.7307 13.6707 17.8007 13.9582C17.4225 13.9861 17.0637 14.1361 16.7782 14.3857C16.6623 14.5074 16.578 14.6556 16.5324 14.8173C16.4868 14.9791 16.4814 15.1495 16.5166 15.3138C16.5519 15.4781 16.6267 15.6313 16.7345 15.7602C16.8424 15.889 16.9801 15.9896 17.1357 16.0532C17.5702 16.2264 18.0531 16.2344 18.4932 16.0757C18.5882 16.2907 19.5632 18.3632 21.4457 18.6257C21.4932 18.8757 21.6607 19.5307 21.7307 19.9832C16.8257 17.6257 9.68567 32.2882 14.4182 34.7032C15.3482 35.1782 22.5882 34.4532 22.8282 34.4157C23.4082 35.6957 23.6607 37.3232 24.2332 37.3232C24.3982 37.2982 24.4832 37.1332 24.5432 36.9882C24.6086 37.0098 24.6778 37.0177 24.7465 37.0113C24.8151 37.0049 24.8817 36.9844 24.942 36.9511C25.0024 36.9178 25.0551 36.8723 25.0971 36.8176C25.139 36.7629 25.1692 36.7001 25.1857 36.6332C25.2411 36.6519 25.3001 36.6571 25.358 36.6484C25.4158 36.6397 25.4707 36.6174 25.5182 36.5832C25.7682 36.4207 25.7682 35.9657 25.7332 35.7257C26.1857 35.5757 26.0207 34.7732 25.8757 34.3182H33.6832C33.4332 32.5807 30.7582 24.4857 30.7582 24.4857C30.7582 24.4857 35.4657 27.5632 38.5707 25.8657C41.2432 24.4107 39.5382 12.4557 38.5857 12.4332ZM24.2232 10.7182C24.4704 10.7182 24.7121 10.7915 24.9176 10.9288C25.1232 11.0662 25.2834 11.2614 25.378 11.4898C25.4726 11.7182 25.4974 11.9695 25.4492 12.212C25.4009 12.4545 25.2819 12.6772 25.1071 12.852C24.9322 13.0269 24.7095 13.1459 24.467 13.1941C24.2246 13.2424 23.9732 13.2176 23.7448 13.123C23.5164 13.0284 23.3212 12.8682 23.1838 12.6626C23.0465 12.4571 22.9732 12.2154 22.9732 11.9682C22.9732 11.6366 23.1049 11.3187 23.3393 11.0843C23.5737 10.8499 23.8916 10.7182 24.2232 10.7182ZM21.7232 18.5057C21.7007 18.4582 21.6757 18.4107 21.6057 18.4107C19.6507 18.1607 18.7232 15.9107 18.7232 15.8857C18.713 15.8675 18.6991 15.8517 18.6824 15.8393C18.6657 15.8269 18.6466 15.8182 18.6263 15.8137C18.606 15.8092 18.585 15.8091 18.5646 15.8133C18.5443 15.8175 18.525 15.826 18.5082 15.8382C18.3182 15.9807 17.6532 16.0507 17.1982 15.8382C16.5807 15.5507 16.8407 14.7657 17.0082 14.6232C17.3407 14.2657 17.9857 14.2432 18.0082 14.2432C18.0857 14.2432 18.1657 14.1532 18.1282 14.0757C18.0907 13.9982 17.8407 13.0282 17.7707 12.6957C18.4113 12.343 18.9457 11.825 19.3182 11.1957C19.6927 11.0856 20.0955 11.1288 20.4382 11.3157C20.4536 11.3255 20.4709 11.3321 20.489 11.335C20.5071 11.3379 20.5256 11.3372 20.5434 11.3327C20.5611 11.3283 20.5778 11.3203 20.5924 11.3092C20.607 11.2981 20.6192 11.2841 20.6282 11.2682C20.6392 11.2531 20.6468 11.2357 20.6503 11.2174C20.6539 11.1991 20.6534 11.1802 20.6489 11.162C20.6444 11.1439 20.6359 11.127 20.6241 11.1125C20.6123 11.098 20.5975 11.0863 20.5807 11.0782C20.2633 10.8975 19.8938 10.8305 19.5332 10.8882C19.9782 10.069 20.2912 9.18483 20.4607 8.26816C21.5555 8.38156 22.5719 8.88886 23.3207 9.69566C23.0928 9.74411 22.8803 9.84759 22.7016 9.99705C22.523 10.1465 22.3836 10.3374 22.2957 10.5532C22.2885 10.5688 22.2846 10.5858 22.2844 10.603C22.2842 10.6202 22.2877 10.6373 22.2945 10.6531C22.3013 10.6689 22.3114 10.6831 22.3241 10.6947C22.3368 10.7064 22.3518 10.7152 22.3682 10.7207C22.4382 10.7432 22.5332 10.6957 22.5332 10.6482C22.5332 10.6007 22.8207 9.93316 23.5107 9.93316C23.6282 10.1007 23.7732 10.2907 23.8907 10.4832C22.5107 10.8157 22.7007 12.2932 22.7482 12.4357C22.6025 12.4556 22.4587 12.4874 22.3182 12.5307C22.2007 12.1982 22.0507 11.7957 21.9157 11.4107C21.9052 11.3764 21.882 11.3475 21.8508 11.3298C21.8197 11.3121 21.7829 11.3071 21.7482 11.3157C21.7308 11.3203 21.7146 11.3283 21.7004 11.3393C21.6863 11.3502 21.6744 11.3639 21.6656 11.3795C21.6567 11.3951 21.6511 11.4123 21.6489 11.4301C21.6468 11.4479 21.6482 11.4659 21.6532 11.4832C21.7707 11.8407 21.9032 12.2332 22.0582 12.6032C21.828 12.6971 21.6177 12.8337 21.4382 13.0057C21.3139 12.7371 21.1159 12.5094 20.8671 12.3491C20.6183 12.1889 20.3291 12.1027 20.0332 12.1007C19.7315 12.1007 19.4367 12.1901 19.1859 12.3577C18.9351 12.5252 18.7397 12.7634 18.6243 13.0421C18.5088 13.3207 18.4786 13.6274 18.5375 13.9232C18.5963 14.219 18.7416 14.4907 18.9548 14.704C19.1681 14.9173 19.4398 15.0625 19.7357 15.1214C20.0315 15.1802 20.3381 15.15 20.6168 15.0346C20.8954 14.9192 21.1336 14.7237 21.3012 14.4729C21.4687 14.2221 21.5582 13.9273 21.5582 13.6257C21.5533 13.5053 21.5374 13.3856 21.5107 13.2682C21.6822 13.0776 21.8964 12.9303 22.1357 12.8382C22.227 13.1045 22.3469 13.3601 22.4932 13.6007C22.5882 13.6957 23.1132 13.6957 23.1607 13.6957C23.0719 13.8932 22.9683 14.0838 22.8507 14.2657C22.84 14.2811 22.8328 14.2986 22.8294 14.317C22.8261 14.3355 22.8266 14.3544 22.8311 14.3726C22.8356 14.3908 22.8439 14.4078 22.8555 14.4226C22.867 14.4373 22.8816 14.4494 22.8982 14.4582C22.9299 14.476 22.9673 14.4811 23.0026 14.4722C23.038 14.4634 23.0686 14.4414 23.0882 14.4107C23.6957 13.4107 23.4957 13.4557 22.9932 13.4107C22.8723 13.4094 22.7522 13.3926 22.6357 13.3607C22.5314 13.1639 22.4476 12.957 22.3857 12.7432C22.5238 12.6903 22.6703 12.6624 22.8182 12.6607C22.9158 12.8539 23.0535 13.0241 23.2222 13.1599C23.3908 13.2957 23.5865 13.394 23.7961 13.4482C24.0057 13.5024 24.2245 13.5112 24.4378 13.4741C24.6512 13.4371 24.8541 13.3549 25.0332 13.2332C25.4002 14.058 25.5225 14.9708 25.3857 15.8632C25.0532 17.7432 23.6732 18.0307 23.6007 18.0307C23.5661 18.0425 23.5361 18.0647 23.5146 18.0942C23.4931 18.1237 23.4813 18.1592 23.4807 18.1957C23.4878 18.2286 23.5057 18.2582 23.5315 18.28C23.5572 18.3017 23.5895 18.3142 23.6232 18.3157C23.8732 18.2531 24.1136 18.1572 24.3382 18.0307C24.5057 18.4107 24.7907 19.0532 24.8632 19.2207C24.8185 19.4677 24.718 19.7012 24.5694 19.9035C24.4208 20.1059 24.228 20.2716 24.0057 20.3882C23.2682 20.7507 22.2907 20.3632 22.0282 20.2457C22.0082 19.7682 21.7207 18.5532 21.7207 18.5057H21.7232ZM21.3157 13.6607C21.3157 13.9079 21.2424 14.1496 21.105 14.3551C20.9677 14.5607 20.7724 14.7209 20.544 14.8155C20.3156 14.9101 20.0643 14.9349 19.8218 14.8866C19.5793 14.8384 19.3566 14.7194 19.1818 14.5445C19.007 14.3697 18.8879 14.147 18.8397 13.9045C18.7915 13.662 18.8162 13.4107 18.9108 13.1823C19.0054 12.9539 19.1656 12.7587 19.3712 12.6213C19.5768 12.484 19.8184 12.4107 20.0657 12.4107C20.3956 12.4158 20.7105 12.5492 20.9438 12.7825C21.1772 13.0158 21.3105 13.3307 21.3157 13.6607ZM15.0657 30.7132C15.0464 30.7217 15.0254 30.7255 15.0044 30.7242C14.9834 30.723 14.963 30.7168 14.9448 30.7061C14.9267 30.6954 14.9114 30.6806 14.9001 30.6628C14.8889 30.645 14.882 30.6248 14.8801 30.6038C14.8783 30.5829 14.8814 30.5618 14.8893 30.5423C14.8972 30.5228 14.9096 30.5054 14.9255 30.4917C14.9415 30.4779 14.9605 30.4681 14.9809 30.4632C15.0014 30.4582 15.0227 30.4582 15.0432 30.4632C15.1382 30.4632 15.8532 30.3932 16.8757 30.2982C17.4232 28.1057 18.5207 25.2007 18.5207 25.1757C18.5333 25.1425 18.5585 25.1157 18.5909 25.1012C18.6232 25.0866 18.66 25.0856 18.6932 25.0982C18.7263 25.1108 18.7531 25.136 18.7676 25.1684C18.7822 25.2007 18.7833 25.2375 18.7707 25.2707C18.7707 25.2957 17.6982 28.1057 17.1507 30.2707C19.2457 30.1057 22.2957 29.9382 23.6507 30.2232C23.6854 30.2354 23.7155 30.2581 23.737 30.288C23.7585 30.318 23.7702 30.3538 23.7707 30.3907C23.7707 30.4132 23.6757 30.9132 23.6257 31.1282C23.6103 31.1532 23.5872 31.1725 23.5599 31.1832C23.5326 31.1939 23.5025 31.1954 23.4743 31.1875C23.446 31.1795 23.4211 31.1626 23.4033 31.1393C23.3855 31.116 23.3758 31.0875 23.3757 31.0582C23.429 30.8705 23.4683 30.6791 23.4932 30.4857C21.2682 30.0582 15.1357 30.6782 15.0757 30.7007L15.0657 30.7132ZM25.6882 35.5257C25.4186 34.6188 24.9554 33.7812 24.3307 33.0707C24.3051 33.0455 24.2706 33.0314 24.2348 33.0317C24.1989 33.0319 24.1646 33.0464 24.1394 33.0719C24.1142 33.0974 24.1002 33.1319 24.1004 33.1678C24.1007 33.2037 24.1151 33.238 24.1407 33.2632C24.1407 33.2632 25.2057 34.4257 25.4507 35.7382C25.5782 36.4282 25.2832 36.4882 25.2357 36.4532C24.9857 35.1207 24.0207 33.6907 23.9857 33.6207C23.9657 33.5904 23.9351 33.5688 23.8999 33.56C23.8647 33.5512 23.8275 33.5559 23.7957 33.5732C23.7667 33.5942 23.7461 33.6248 23.7374 33.6595C23.7287 33.6943 23.7325 33.731 23.7482 33.7632C23.7482 33.7857 24.7482 35.2382 24.9982 36.5132C24.9732 36.8457 24.7107 36.8232 24.6407 36.7982C24.5207 35.5832 23.7107 34.3207 23.6882 34.2732C23.6667 34.244 23.6357 34.2233 23.6005 34.2146C23.5653 34.2059 23.5282 34.2098 23.4957 34.2257C23.4667 34.2467 23.4461 34.2773 23.4374 34.312C23.4287 34.3468 23.4325 34.3835 23.4482 34.4157C23.4482 34.4407 24.2582 35.7032 24.3532 36.8707C24.3307 37.2507 24.0157 36.9657 23.6632 35.8932C23.4897 35.2742 23.2499 34.6757 22.9482 34.1082C23.1382 33.2732 23.4482 31.7007 23.4482 31.7007C23.4957 31.7007 24.4032 32.0232 25.2582 33.6082C26.0357 35.0707 25.6982 35.5132 25.6982 35.5132L25.6882 35.5257ZM25.9032 33.6907C25.8382 33.7611 25.7488 33.8041 25.6532 33.8107C25.4225 33.2547 25.0911 32.7462 24.6757 32.3107C25.8182 32.7032 26.0557 33.5357 25.9132 33.6782L25.9032 33.6907ZM36.2882 12.4932C36.3349 12.2368 36.2925 11.9722 36.1682 11.7432C35.9382 11.5132 33.6207 10.0232 33.8357 9.64816C34.0507 9.27316 34.5857 9.74316 34.9782 10.0057C35.2882 10.2557 35.4782 10.3857 35.6207 10.2907C35.7632 10.1957 35.7457 10.0257 35.2407 8.74316C35.0057 8.14566 34.7407 7.45316 34.5732 6.88316C34.3007 5.99816 34.2882 5.90816 34.4057 5.86066C34.6932 5.71816 35.5157 7.52316 35.8357 8.43316C35.8498 8.46478 35.8737 8.49105 35.9038 8.50814C35.934 8.52523 35.9688 8.53225 36.0032 8.52816L36.3132 8.45566C36.3476 8.44629 36.3769 8.42368 36.3947 8.39276C36.4125 8.36184 36.4173 8.32513 36.4082 8.29066C36.4082 8.29066 36.2357 7.48066 36.1207 6.64566C35.9232 5.19316 36.0732 4.93066 36.0982 4.89566C36.1457 4.91816 36.3482 5.08566 36.6457 6.49066C36.8082 7.27816 36.8957 8.06316 36.8957 8.08566C36.8988 8.12039 36.9156 8.15247 36.9423 8.17493C36.9689 8.1974 37.0034 8.20844 37.0382 8.20566L37.4907 8.15816C37.5066 8.15887 37.5225 8.15625 37.5374 8.15047C37.5523 8.14469 37.5658 8.13588 37.5771 8.12459C37.5884 8.1133 37.5972 8.09979 37.603 8.08491C37.6088 8.07003 37.6114 8.05411 37.6107 8.03816C37.7282 6.53816 37.9432 5.46566 38.0857 5.28816C38.2282 5.53816 38.1807 6.85816 38.0632 8.03816C38.0604 8.07253 38.0711 8.10665 38.093 8.13326C38.1149 8.15986 38.1464 8.17687 38.1807 8.18066L38.5157 8.22816C38.5437 8.23161 38.572 8.22683 38.5974 8.21439C38.6227 8.20196 38.6438 8.18242 38.6582 8.15816C39.1432 7.15816 39.5632 6.46566 39.7532 6.27566C39.7532 6.74316 39.1657 8.21816 39.1107 8.49066C38.9557 10.8207 38.0632 11.2132 37.9432 12.4207C37.4657 12.4332 36.8232 12.4557 36.2982 12.4807L36.2882 12.4932Z" fill="#313131"/>
<path d="M37.9128 12.2666L38.5274 12.4341C39.4799 12.4566 41.1849 24.4116 38.5124 25.8666C35.4074 27.5641 31.0274 24.6787 31.0274 24.6787C31.0274 24.6787 33.2774 32.5291 33.5274 34.2666H26.0274C26.3988 33.8495 26.3172 33.4818 26.0274 32.7666C24.3282 31.6235 23.5898 31.2025 23.2094 31.3816L19.6184 31.0741L17.8229 30.9204H17.2753L18.0274 27.2666L17.0274 30.9204H16.0274L17.0274 31.0741L23.2094 31.6963L23.0127 32.7666L22.816 34.1516C22.816 34.1516 15.0103 35.0116 14.0803 34.5366C9.34781 32.1216 17.0273 18.2666 21.3928 19.8166L21.6903 20.0791L24.5253 19.0541L24.7278 18.8391C25.32 18.4036 25.9918 18.0885 26.7053 17.9116C28.7053 17.4291 32.8503 18.9841 34.4703 20.0541C34.4703 20.0541 34.9453 12.5516 34.9928 12.4341C35.2093 12.3689 35.4342 12.336 35.6603 12.3366C36.1757 12.3121 37.3897 12.2803 37.8857 12.2673L37.9128 12.2666Z" fill="#005BC3"/>
<path d="M23.6343 12.601C23.6688 12.6037 23.7033 12.5959 23.7333 12.5784C23.7632 12.561 23.7871 12.5349 23.8017 12.5035C23.8536 12.2544 23.9874 12.0299 24.1818 11.8659C24.3762 11.7018 24.62 11.6077 24.8743 11.5985C24.9113 11.5961 24.9462 11.5803 24.9724 11.5541C24.9986 11.5279 25.0144 11.493 25.0167 11.456C25.0139 11.4191 24.9979 11.3845 24.9718 11.3584C24.9457 11.3323 24.9111 11.3163 24.8743 11.3135C23.7793 11.3135 23.5393 12.4085 23.5393 12.4335C23.5307 12.4682 23.5357 12.505 23.5534 12.5362C23.5711 12.5673 23.6 12.5905 23.6343 12.601Z" fill="#313131"/>
<path d="M19.0765 13.5287C19.0601 13.5381 19.0457 13.5506 19.0341 13.5655C19.0225 13.5804 19.014 13.5975 19.009 13.6157C19.004 13.6339 19.0027 13.653 19.005 13.6717C19.0074 13.6905 19.0134 13.7085 19.0228 13.725C19.0321 13.7414 19.0446 13.7558 19.0596 13.7674C19.0745 13.779 19.0916 13.7875 19.1098 13.7925C19.128 13.7975 19.147 13.7988 19.1658 13.7965C19.1845 13.7941 19.2026 13.7881 19.219 13.7787C19.394 13.663 19.5877 13.5784 19.7915 13.5287C19.9743 13.4786 20.1662 13.472 20.352 13.5093C20.5378 13.5466 20.7123 13.6269 20.8615 13.7437C20.8865 13.7662 20.909 13.7662 20.9565 13.7662C20.9753 13.766 20.9937 13.7616 21.0106 13.7533C21.0274 13.7451 21.0423 13.7333 21.054 13.7187C21.0664 13.7053 21.0756 13.6893 21.0811 13.6718C21.0866 13.6544 21.0883 13.636 21.0859 13.6179C21.0835 13.5998 21.0772 13.5824 21.0674 13.567C21.0575 13.5516 21.0445 13.5385 21.029 13.5287C20.1715 12.8137 19.0765 13.5287 19.0765 13.5287Z" fill="#313131"/>
<path d="M23.7232 14.7663C23.0757 14.9438 21.8882 15.2913 21.8882 15.2913C21.7682 15.3163 21.7932 15.4338 21.7932 15.4813C21.8833 15.6866 22.0293 15.8624 22.2145 15.9888C22.3997 16.1152 22.6166 16.1871 22.8407 16.1963C23.0007 16.1934 23.1582 16.1553 23.3017 16.0845C23.4453 16.0138 23.5715 15.9123 23.6714 15.7871C23.7712 15.662 23.8421 15.5164 23.8792 15.3607C23.9162 15.2049 23.9185 15.043 23.8857 14.8863C23.8829 14.8677 23.8765 14.8499 23.8669 14.8338C23.8572 14.8177 23.8445 14.8037 23.8294 14.7925C23.8143 14.7814 23.7971 14.7733 23.7789 14.7688C23.7607 14.7643 23.7417 14.7634 23.7232 14.7663ZM23.1357 15.8638C22.9567 15.924 22.7626 15.9213 22.5854 15.8564C22.4081 15.7914 22.2583 15.6679 22.1607 15.5063C22.4707 15.4113 23.1607 15.2213 23.6607 15.0763C23.6653 15.2457 23.6173 15.4124 23.5233 15.5534C23.4292 15.6944 23.2938 15.8029 23.1357 15.8638Z" fill="#313131"/>
<path d="M18.0049 15.0759C17.8254 15.0288 17.6423 14.997 17.4574 14.9809C17.4226 14.9781 17.3882 14.9892 17.3615 15.0116C17.3348 15.0341 17.3181 15.0662 17.3149 15.1009C17.3121 15.1353 17.3228 15.1694 17.3447 15.196C17.3667 15.2226 17.3981 15.2396 17.4324 15.2434C17.6014 15.2612 17.7686 15.293 17.9324 15.3384C17.9574 15.3384 18.0774 15.3634 18.0999 15.2434C18.1044 15.2089 18.0976 15.174 18.0804 15.1437C18.0633 15.1135 18.0368 15.0897 18.0049 15.0759Z" fill="#005BC3"/>
<path d="M31.3199 13.2911C31.3117 13.2607 31.2927 13.2343 31.2665 13.2169C31.2403 13.1994 31.2087 13.192 31.1774 13.1961L30.9274 13.2436L30.8324 12.7186C30.8319 12.7019 30.8274 12.6855 30.8193 12.6708C30.8112 12.6561 30.7997 12.6436 30.7857 12.6343C30.7718 12.625 30.7558 12.6192 30.7391 12.6173C30.7225 12.6155 30.7056 12.6176 30.6899 12.6236C30.6732 12.6241 30.6568 12.6286 30.6421 12.6368C30.6274 12.6449 30.6149 12.6564 30.6056 12.6704C30.5963 12.6843 30.5905 12.7003 30.5886 12.7169C30.5868 12.7336 30.5889 12.7505 30.5949 12.7661L30.6899 13.3136C30.5699 13.3386 30.4749 13.3611 30.4399 13.3611C30.4093 13.3699 30.3829 13.3893 30.3654 13.4159C30.348 13.4426 30.3407 13.4746 30.3449 13.5061C30.3548 13.5307 30.3707 13.5523 30.3913 13.5689C30.4119 13.5856 30.4364 13.5966 30.4624 13.6011C30.4624 13.6011 30.6049 13.5761 30.7124 13.5536L30.7824 13.9111C30.7851 13.927 30.7909 13.9421 30.7997 13.9555C30.8084 13.969 30.8198 13.9806 30.8331 13.9895C30.8465 13.9984 30.8615 14.0044 30.8773 14.0073C30.8931 14.0102 30.9093 14.0098 30.9249 14.0061C30.9974 13.9811 31.0449 13.9336 31.0199 13.8611L30.9499 13.4811C31.0274 13.4577 31.1069 13.4417 31.1874 13.4336C31.2068 13.4389 31.2271 13.4387 31.2464 13.4332C31.2656 13.4277 31.283 13.417 31.2966 13.4023C31.3103 13.3877 31.3196 13.3696 31.3238 13.35C31.3279 13.3304 31.3265 13.31 31.3199 13.2911Z" fill="#005BC3"/>
<path d="M39.847 1.88105H39.597V1.50105C39.5994 1.48401 39.5982 1.46663 39.5934 1.45011C39.5886 1.43358 39.5802 1.41828 39.569 1.40526C39.5577 1.39224 39.5438 1.38179 39.5281 1.37463C39.5125 1.36748 39.4954 1.36377 39.4782 1.36377C39.461 1.36377 39.444 1.36748 39.4283 1.37463C39.4127 1.38179 39.3987 1.39224 39.3875 1.40526C39.3762 1.41828 39.3679 1.43358 39.363 1.45011C39.3582 1.46663 39.357 1.48401 39.3595 1.50105V1.88105H39.192C39.1749 1.87857 39.1576 1.87978 39.141 1.88461C39.1245 1.88944 39.1092 1.89777 39.0962 1.90904C39.0832 1.9203 39.0727 1.93424 39.0656 1.9499C39.0584 1.96556 39.0547 1.98258 39.0547 1.99979C39.0547 2.01701 39.0584 2.03403 39.0656 2.04969C39.0727 2.06535 39.0832 2.07929 39.0962 2.09055C39.1092 2.10182 39.1245 2.11015 39.141 2.11498C39.1576 2.11981 39.1749 2.12102 39.192 2.11855H39.3595V2.50105C39.357 2.51808 39.3582 2.53546 39.363 2.55198C39.3679 2.56851 39.3762 2.58381 39.3875 2.59683C39.3987 2.60985 39.4127 2.6203 39.4283 2.62746C39.444 2.63461 39.461 2.63832 39.4782 2.63832C39.4954 2.63832 39.5125 2.63461 39.5281 2.62746C39.5438 2.6203 39.5577 2.60985 39.569 2.59683C39.5802 2.58381 39.5886 2.56851 39.5934 2.55198C39.5982 2.53546 39.5994 2.51808 39.597 2.50105V2.11855H39.847C39.8755 2.11439 39.9016 2.10011 39.9204 2.0783C39.9393 2.0565 39.9497 2.02863 39.9497 1.99979C39.9497 1.97096 39.9393 1.94309 39.9204 1.92129C39.9016 1.89948 39.8755 1.8852 39.847 1.88105Z" fill="#005BC3"/>
<path d="M43.1801 3.83286C43.1675 3.83441 43.1547 3.8332 43.1426 3.82932C43.1305 3.82543 43.1194 3.81896 43.1101 3.81036C43.0943 3.80086 43.0809 3.78793 43.0708 3.77253C43.0607 3.75712 43.0542 3.73964 43.0518 3.72138C43.0494 3.70312 43.0512 3.68456 43.0569 3.66707C43.0627 3.64958 43.0723 3.63361 43.0851 3.62036C43.5451 2.96687 43.9292 2.26318 44.2301 1.52286C44.2429 1.49183 44.2673 1.46708 44.2982 1.45397C44.3291 1.44087 44.3639 1.44047 44.3951 1.45286C44.4114 1.45802 44.4263 1.46658 44.439 1.47798C44.4517 1.48938 44.4618 1.50335 44.4687 1.51896C44.4755 1.53458 44.479 1.55147 44.4788 1.56853C44.4786 1.58558 44.4748 1.6024 44.4676 1.61786C43.9801 3.03036 43.2276 3.83286 43.1801 3.83286Z" fill="#005BC3"/>
<path d="M43.1802 5.02577C43.0377 5.02577 43.0152 4.85827 43.1102 4.76327C43.1327 4.76327 44.3602 4.13077 45.4202 2.57327C45.4421 2.54476 45.4744 2.52611 45.51 2.52142C45.5456 2.51673 45.5817 2.52639 45.6102 2.54827C45.6387 2.57015 45.6573 2.60246 45.662 2.63809C45.6667 2.67373 45.6571 2.70976 45.6352 2.73827C45.015 3.68906 44.1723 4.47424 43.1802 5.02577Z" fill="#313131"/>
<path d="M31.0091 4.26386C30.4962 4.11279 30.0344 3.82399 29.6741 3.42886C29.6513 3.40249 29.6387 3.36876 29.6387 3.33386C29.6387 3.29895 29.6513 3.26522 29.6741 3.23886C29.7009 3.2158 29.735 3.20313 29.7704 3.20312C29.8057 3.20313 29.8399 3.2158 29.8666 3.23886C30.1939 3.57295 30.592 3.82926 31.0316 3.98886C31.05 3.9929 31.0673 4.00067 31.0826 4.01169C31.0978 4.0227 31.1106 4.03673 31.1203 4.0529C31.1299 4.06907 31.136 4.08703 31.1384 4.10569C31.1408 4.12434 31.1394 4.14329 31.1341 4.16136C31.1332 4.17652 31.1292 4.19133 31.1223 4.20486C31.1154 4.21839 31.1058 4.23034 31.0941 4.23997C31.0823 4.2496 31.0687 4.25669 31.0541 4.2608C31.0395 4.26491 31.0242 4.26595 31.0091 4.26386Z" fill="#313131"/>
<path d="M30.9379 4.71607C30.5009 4.69436 30.0688 4.61449 29.6529 4.47857C29.6356 4.47395 29.6194 4.46592 29.6052 4.45496C29.591 4.444 29.5791 4.43033 29.5703 4.41473C29.5615 4.39914 29.5558 4.38195 29.5537 4.36415C29.5516 4.34635 29.553 4.3283 29.5579 4.31107C29.5623 4.29384 29.57 4.27767 29.5807 4.2635C29.5915 4.24934 29.6049 4.23747 29.6203 4.22861C29.6357 4.21975 29.6527 4.21407 29.6703 4.21192C29.688 4.20976 29.7058 4.21117 29.7229 4.21607C30.1162 4.34272 30.525 4.41506 30.9379 4.43107C30.9754 4.43283 31.0109 4.44834 31.0376 4.47463C31.0644 4.50092 31.0805 4.53614 31.0829 4.57357C31.0579 4.64357 31.0104 4.71607 30.9379 4.71607Z" fill="#313131"/>
<path d="M34.3678 2.92846C34.3678 2.92846 33.4703 2.92846 33.2253 2.17846C33.199 2.10952 33.183 2.03708 33.1778 1.96346C32.9396 1.97613 32.7025 1.92286 32.4925 1.80951C32.2826 1.69616 32.1079 1.52712 31.9878 1.32096C31.8886 1.12833 31.8347 0.915531 31.8304 0.698864C31.826 0.482198 31.8713 0.267414 31.9628 0.0709647C32.0153 -0.0840353 32.3203 0.0359646 32.2003 0.213465C32.128 0.371032 32.0927 0.543045 32.097 0.71636C32.1013 0.889676 32.1452 1.05971 32.2253 1.21346C32.3194 1.37371 32.4556 1.50508 32.6191 1.59325C32.7827 1.68141 32.9673 1.723 33.1528 1.71346C33.1994 1.47971 33.2976 1.25933 33.4403 1.06846C33.5031 0.98159 33.5921 0.917182 33.6943 0.884735C33.7964 0.852289 33.9063 0.853522 34.0077 0.888252C34.1091 0.922983 34.1966 0.989372 34.2574 1.07763C34.3182 1.16589 34.349 1.27135 34.3453 1.37846C34.2728 1.66346 33.9878 1.95096 33.4153 1.97346C33.4153 2.39346 33.9328 2.61096 34.3453 2.68846C34.4453 2.72596 34.5553 2.92846 34.3678 2.92846ZM33.7028 1.21346C33.5931 1.34306 33.519 1.49902 33.4878 1.66596C33.9153 1.61846 34.1053 1.41596 34.1303 1.28596C34.1353 1.19096 33.9403 0.975965 33.7028 1.21346Z" fill="#7BD2FF"/>
<path d="M44.4901 15.553C44.0694 15.5545 43.6629 15.4014 43.3476 15.123C43.0106 14.8455 42.783 14.4576 42.7051 14.028C42.7051 13.9902 42.7201 13.954 42.7468 13.9273C42.7735 13.9006 42.8098 13.8855 42.8476 13.8855C42.8854 13.8855 42.9216 13.9006 42.9483 13.9273C42.9751 13.954 42.9901 13.9902 42.9901 14.028C43.0687 14.3815 43.261 14.6994 43.5376 14.933C43.7067 15.0804 43.9072 15.1872 44.1238 15.2452C44.3404 15.3033 44.5675 15.3111 44.7876 15.268C44.9349 15.2486 45.0745 15.1908 45.1926 15.1005C45.0432 15.0102 44.9148 14.889 44.816 14.745C44.7173 14.6009 44.6505 14.4375 44.6201 14.2655C44.5926 13.8855 44.8701 13.433 45.4051 13.7655C45.7676 13.9955 45.8101 14.708 45.5976 15.0155C45.6201 15.0155 46.5326 15.5705 47.6676 14.4455C47.6943 14.4225 47.7285 14.4098 47.7638 14.4098C47.7992 14.4098 47.8333 14.4225 47.8601 14.4455C47.8829 14.4719 47.8955 14.5056 47.8955 14.5405C47.8955 14.5754 47.8829 14.6092 47.8601 14.6355C46.8776 15.583 46.0026 15.4455 45.5726 15.278C45.5251 15.2555 45.4776 15.2555 45.4301 15.2305C45.1682 15.4519 44.8327 15.567 44.4901 15.553ZM44.8851 14.218C44.9158 14.3558 44.9765 14.485 45.0629 14.5965C45.1494 14.708 45.2594 14.799 45.3851 14.863C45.4039 14.8054 45.4273 14.7494 45.4551 14.6955C45.6351 13.9105 44.8476 13.623 44.8851 14.218Z" fill="#7BD2FF"/>
</svg>
