<svg width="50" height="51" viewBox="0 0 50 51" fill="none" xmlns="http://www.w3.org/2000/svg">
<path d="M46.165 43.0234C46.054 41.6586 45.315 40.1734 45.1848 38.8334C44.955 36.6334 45.8348 34.6834 44.6683 32.5786C43.9559 31.341 42.9511 30.2968 41.7418 29.5374C37.357 26.7141 30.0153 26.5624 24.828 27.0986C19.1175 27.6901 9.89828 28.8251 5.83953 32.8846C3.56453 35.1021 2.98953 38.5986 3.57603 41.7636C3.10524 42.6736 2.74156 43.6351 2.49228 44.6289C2.33928 45.2789 1.99503 46.5039 2.33928 47.1729L2.47328 47.3641C3.33403 52.1844 47.7483 46.0641 47.7483 46.0641L47.8055 46.0451C47.4948 44.9669 46.8703 43.9776 46.165 43.0234Z" fill="#E02728"/>
<path d="M33.0691 13.4699C33.4839 14.0481 34.1441 14.5779 34.6799 15.0559C34.7955 14.4556 34.8805 13.8498 34.9346 13.2409C34.9204 12.9264 34.9461 12.6114 35.0111 12.3034C35.1969 11.7659 35.8724 11.6341 35.6611 10.9646C35.5115 10.6113 35.2303 10.33 34.8769 10.1804C34.1984 9.8393 33.4782 9.58859 32.7346 9.43463C32.1889 9.31463 31.1096 9.00963 30.5879 9.18288C31.7506 10.0546 32.1891 12.2434 33.0691 13.4699Z" fill="white"/>
<path d="M30.1126 39.2148C29.4431 39.4648 28.7376 40.7271 28.3911 41.3761C28.2581 41.6261 27.9761 42.1201 28.0851 42.4283C28.2061 42.7703 28.9458 41.9883 29.0601 41.8533C29.0793 41.8343 29.3471 41.5091 29.3471 41.6048C29.3471 41.9298 29.1423 42.3521 29.0601 42.6758C28.8818 43.3185 28.7791 43.9797 28.7541 44.6461C28.7503 44.9138 28.7136 45.5483 28.9453 45.6981C29.2571 45.8993 29.6758 43.9581 29.7486 43.5941C29.7988 43.3421 29.8626 43.0931 29.9398 42.8481C29.9383 43.0851 29.9191 43.3217 29.8826 43.5558C29.8042 44.1978 29.8106 44.8473 29.9016 45.4876C29.9213 45.6213 29.9781 45.9658 30.1313 46.0041C30.2846 46.0423 30.3608 45.6406 30.3991 45.5258C30.5961 44.7871 30.7868 42.9628 30.8581 42.9628C30.9346 43.0393 30.8581 43.5378 30.8581 43.6323C30.8581 44.1678 30.7241 45.6981 31.2023 45.9658C31.4128 46.0996 31.5066 45.4681 31.5273 45.3346C31.6326 44.6636 31.7186 43.9956 31.7568 43.3261C31.7568 43.2306 31.7376 42.7141 31.8333 42.6376C31.9438 42.9693 31.9781 44.6843 32.4083 44.6843C32.9351 44.6843 32.6938 41.1238 32.9631 39.3286H32.8101C32.2166 39.4826 30.7438 39.3678 30.1126 39.2148Z" fill="white"/>
<path d="M18.3315 40.019H18.1978C17.7195 40.172 16.151 40.344 15.4628 40.1913L15.4243 40.325C15.3318 42.2018 14.5728 44.85 15.0608 44.954C15.4058 45.0268 15.7328 43.9028 15.8068 43.654C15.8463 43.5205 15.8995 43.3855 15.9405 43.2523C15.9573 43.1915 15.983 43.1335 16.017 43.0803C16.1033 43.195 15.8098 44.2323 15.7875 45.7773C15.7858 45.911 15.77 46.546 15.998 46.4658C16.5175 46.283 16.693 44.7423 16.7823 44.2278C16.799 44.1318 16.8205 43.6158 16.916 43.5585C16.945 43.9923 16.836 44.741 16.8588 46.1598C16.8605 46.2745 16.8778 46.6763 17.0308 46.6763C17.1838 46.6763 17.2988 46.3513 17.3558 46.217C17.5691 45.6063 17.6978 44.9692 17.7383 44.3235C17.7415 44.092 17.7673 43.8615 17.8148 43.635C17.834 43.635 17.853 44.3618 17.853 44.4193C17.848 45.0078 17.8863 45.5958 17.968 46.1788C17.985 46.294 18.043 46.71 18.218 46.638C18.464 46.536 18.558 45.9105 18.6005 45.6433C18.702 44.9848 18.727 44.3168 18.675 43.6525C18.6515 43.3275 18.522 42.8683 18.5985 42.5433C18.6178 42.4285 18.828 42.811 18.8473 42.83C18.9428 42.983 19.5125 43.88 19.6888 43.576C19.857 43.2868 19.6678 42.754 19.5933 42.4858C19.3975 41.7803 18.9628 40.4025 18.3315 40.019Z" fill="white"/>
<path d="M39.3513 18.4432C38.6818 17.5632 37.7763 16.6617 36.7513 16.2432C35.4993 15.7327 31.5378 15.8072 31.2808 15.8415C31.3448 16.0025 31.3533 16.1803 31.3048 16.3466C31.2563 16.513 31.1536 16.6584 31.0131 16.7597C30.841 16.8706 30.6808 16.9988 30.5348 17.1422C30.3246 17.391 30.3491 17.7572 30.1906 18.0422C29.9316 18.5062 29.0431 18.5395 28.6986 18.138L28.6796 18.0805C29.5796 17.698 30.3818 16.359 29.5403 15.613C29.4181 15.5086 29.2718 15.4364 29.1146 15.403C28.9574 15.3696 28.7944 15.376 28.6403 15.4217C28.5028 15.4752 28.3737 15.5482 28.2571 15.6385C28.2321 15.2477 28.1821 14.708 28.1821 14.542C27.6273 14.6375 27.0916 14.3887 26.5571 14.0445C26.3276 13.8915 25.9821 13.439 25.6963 13.4135C25.5238 13.398 25.4478 13.9297 25.3713 14.0255C25.0651 14.5035 24.4341 14.0827 24.1278 13.815C23.539 13.1964 23.1292 12.4295 22.9421 11.5962C20.0671 11.5962 18.8278 13.8332 19.0783 16.34C19.1006 16.46 19.1133 16.5812 19.1166 16.7032C19.1166 16.6032 18.3473 16.3572 17.8916 16.9137C17.3056 17.6307 17.9298 18.5777 18.6951 18.9795C18.3633 19.4767 16.8883 19.4725 16.5528 18.5777C16.3998 18.157 16.5718 17.717 16.4571 17.2777C16.3233 16.8185 15.8003 16.687 15.9026 16.13C15.9645 15.8991 16.075 15.684 16.2268 15.4993C16.3785 15.3145 16.568 15.1643 16.7826 15.0587C17.0501 14.9057 17.3826 14.8147 17.5666 14.5612C17.9231 14.073 17.9108 13.3362 18.1596 12.8017C18.7316 11.5302 20.0971 10.218 21.4311 9.88824C21.9061 9.10024 23.8343 8.36324 24.4718 8.17149C24.8611 8.05156 25.2582 7.95843 25.6603 7.89274C25.5456 7.66324 24.7203 7.52274 24.5288 7.46524C22.9882 7.13711 21.3976 7.12037 19.8504 7.41601C18.3033 7.71165 16.8309 8.3137 15.5198 9.18674C14.6401 9.76174 13.8748 10.5065 12.9948 11.0617C12.0576 11.6547 10.9573 11.4267 9.9728 11.846C9.77398 11.9257 9.59216 12.0425 9.43705 12.1902C8.4233 13.204 9.34155 14.3325 10.1448 15.1932C9.6488 15.8272 9.83155 18.547 9.8888 19.348C9.5663 19.5262 8.3263 20.7817 7.5808 22.307C5.9558 25.4245 5.51505 29.4415 5.82105 32.9417C7.79105 30.9917 10.6603 29.824 13.5868 29.0397C13.8203 27.0772 14.5659 25.2106 15.7488 23.6272C17.4796 21.3965 19.4183 20.8955 20.3968 20.5272C20.9745 21.2146 21.7488 21.7086 22.6156 21.9427C22.6156 22.4642 23.3106 23.1927 24.2606 23.2625C25.4466 23.339 26.2106 22.4972 26.2106 21.7125L26.1151 21.5592C26.8786 21.1428 27.4738 20.474 27.7988 19.6672C28.2146 19.8757 30.1516 19.8877 32.4086 22.7467C33.3933 24.0434 34.0673 25.5487 34.3788 27.1467H34.3978C36.9758 27.5217 39.5911 28.157 41.7818 29.5672C41.7488 25.9272 41.5488 21.2832 39.3513 18.4432Z" fill="white"/>
<path d="M33.8437 25.347C33.4964 24.4199 33.0129 23.5497 32.4092 22.765C30.2264 19.94 28.1862 19.8788 27.7994 19.6855C27.4751 20.4929 26.8802 21.1623 26.1164 21.579L26.2119 21.732C26.2119 22.497 25.4464 23.3635 24.2619 23.282C23.9256 23.262 23.6004 23.1544 23.3186 22.9698C23.0367 22.7853 22.808 22.5303 22.6552 22.23C22.6169 22.1464 22.6036 22.0534 22.6169 21.9623C21.9041 21.7742 21.2519 21.4053 20.7234 20.8913C20.6077 20.7775 20.5129 20.6618 20.3984 20.547L20.2454 20.6043C19.6954 20.6043 14.5417 22.2468 13.5892 29.0585C13.1617 32.115 13.6072 36.2425 14.6412 39.0813C14.8254 39.587 14.9334 40.1038 15.4637 40.229C16.2734 40.4203 18.3327 40.129 18.3327 39.9803C18.4284 39.77 17.7214 37.6468 17.5867 36.1553C17.3587 33.6303 17.3764 30.5703 18.2562 28.0835C18.4784 28.1585 23.9489 26.8785 29.6944 26.8785L29.7327 26.8595C30.7272 29.4225 30.7022 32.6345 30.5359 35.2755C30.4567 36.5378 29.8474 38.6803 29.7899 39.1005C29.7899 39.2993 32.0282 39.5505 32.7357 39.33C32.7739 39.3108 32.8124 39.2923 32.8504 39.2725C33.2157 39.0853 33.3299 38.5655 33.4624 38.2015C34.7924 34.5458 35.1249 28.741 33.8437 25.347Z" fill="#4D68A1"/>
<path d="M26.7081 17.7557C26.7978 17.7573 26.8867 17.7387 26.9683 17.7014C27.0499 17.6642 27.1221 17.6092 27.1798 17.5404C27.2374 17.4716 27.2789 17.3908 27.3012 17.3039C27.3236 17.2171 27.3263 17.1263 27.3091 17.0382C27.2921 16.9501 27.2556 16.8669 27.2023 16.7947C27.149 16.7225 27.0802 16.6631 27.001 16.6209C26.9218 16.5787 26.8341 16.5548 26.7445 16.5509C26.6548 16.5469 26.5654 16.5631 26.4828 16.5982C26.3723 16.645 26.2783 16.7238 26.2128 16.8243C26.1473 16.9249 26.1134 17.0427 26.1153 17.1627C26.1161 17.3197 26.1788 17.4701 26.2898 17.5811C26.4008 17.6921 26.5511 17.7549 26.7081 17.7557Z" fill="#E02728"/>
<path d="M20.9895 18.29C21.1515 18.2889 21.3066 18.224 21.4211 18.1093C21.5357 17.9947 21.6005 17.8395 21.6015 17.6775C21.6025 17.5968 21.5874 17.5168 21.557 17.4421C21.5266 17.3673 21.4816 17.2994 21.4245 17.2424C21.3675 17.1854 21.2996 17.1403 21.2249 17.1099C21.1502 17.0796 21.0701 17.0644 20.9895 17.0655C20.827 17.0655 20.6712 17.13 20.5564 17.2449C20.4415 17.3597 20.377 17.5155 20.377 17.678C20.377 17.8404 20.4415 17.9962 20.5564 18.1111C20.6712 18.2259 20.827 18.2905 20.9895 18.2905V18.2902V18.29Z" fill="#E02728"/>
<path d="M19.2656 18.1743C19.0594 17.961 18.7854 17.8261 18.4906 17.7928C18.4662 17.7889 18.4443 17.7757 18.4295 17.756C18.4146 17.7362 18.4079 17.7115 18.4108 17.687C18.4137 17.6625 18.426 17.6401 18.4451 17.6244C18.4641 17.6087 18.4885 17.601 18.5131 17.6028C18.8524 17.6417 19.1675 17.7976 19.4044 18.0436C19.42 18.0622 19.4278 18.0862 19.4264 18.1105C19.4249 18.1347 19.4142 18.1575 19.3965 18.1742C19.3788 18.1909 19.3554 18.2002 19.3311 18.2002C19.3068 18.2002 19.2833 18.191 19.2656 18.1743Z" fill="#313131"/>
<path d="M28.2408 17.0284C28.311 16.7016 28.7288 16.4591 28.9758 16.3831C29.0001 16.3757 29.0263 16.3782 29.0487 16.39C29.0712 16.4019 29.088 16.4222 29.0954 16.4465C29.1029 16.4708 29.1004 16.497 29.0885 16.5194C29.0766 16.5419 29.0563 16.5587 29.032 16.5661C28.809 16.6346 28.4753 16.8474 28.428 17.0684C28.4207 17.091 28.4052 17.1101 28.3846 17.122C28.364 17.1339 28.3397 17.1378 28.3164 17.1328C28.2931 17.1278 28.2725 17.1144 28.2585 17.0951C28.2446 17.0758 28.2382 17.0521 28.2408 17.0284Z" fill="#313131"/>
<path d="M19.7181 14.2264C20.0543 13.5962 21.0851 12.9462 21.8098 13.0874C21.8221 13.0898 21.8339 13.0946 21.8444 13.1015C21.8548 13.1084 21.8638 13.1173 21.8709 13.1277C21.8779 13.1381 21.8828 13.1498 21.8853 13.1621C21.8879 13.1744 21.8879 13.1871 21.8856 13.1994C21.8832 13.2117 21.8784 13.2235 21.8715 13.2339C21.8646 13.2444 21.8556 13.2534 21.8452 13.2605C21.8348 13.2675 21.8232 13.2724 21.8109 13.2749C21.7986 13.2775 21.7859 13.2775 21.7736 13.2752C21.1518 13.1547 20.1841 13.7594 19.8868 14.3164C19.8742 14.3374 19.8539 14.3528 19.8303 14.3594C19.8066 14.3659 19.7813 14.3631 19.7597 14.3516C19.738 14.34 19.7216 14.3206 19.7139 14.2973C19.7061 14.274 19.7076 14.2486 19.7181 14.2264Z" fill="#313131"/>
<path d="M20.6289 16.4222C20.4521 16.4228 20.276 16.4 20.1052 16.3545C20.0389 16.3427 19.8622 16.3045 19.8302 16.2265C19.8213 16.2058 19.8198 16.1828 19.826 16.1612C19.8322 16.1396 19.8457 16.1209 19.8642 16.1081C19.8826 16.0953 19.9049 16.0893 19.9273 16.0911C19.9497 16.0929 19.9707 16.1024 19.9869 16.118C20.2437 16.2128 20.5185 16.2491 20.7912 16.2242C21.3034 16.1742 21.6472 15.8575 22.0054 15.3992C22.0218 15.3816 22.0442 15.3708 22.0681 15.3689C22.0921 15.3671 22.1159 15.3743 22.1347 15.3891C22.1536 15.404 22.1662 15.4254 22.1701 15.4491C22.1739 15.4729 22.1687 15.4972 22.1554 15.5172C21.7299 16.063 21.3182 16.4222 20.6289 16.4222Z" fill="#313131"/>
<path d="M25.4627 15.0509C25.4501 15.0298 25.4462 15.0048 25.4516 14.9809C25.457 14.9569 25.4714 14.936 25.4918 14.9224C25.5122 14.9088 25.537 14.9035 25.5612 14.9076C25.5853 14.9118 25.607 14.925 25.6217 14.9447C25.6634 15.0077 25.7107 15.0669 25.7629 15.1214C26.0091 15.3246 26.3044 15.4595 26.6192 15.5127C26.9339 15.5658 27.2571 15.5354 27.5564 15.4244C27.5802 15.4158 27.6065 15.4171 27.6294 15.4279C27.6524 15.4386 27.6701 15.4581 27.6787 15.4819C27.6872 15.5058 27.686 15.532 27.6752 15.555C27.6644 15.5779 27.645 15.5956 27.6212 15.6042C26.7434 15.9214 25.8184 15.5854 25.4627 15.0509Z" fill="#313131"/>
<path d="M23.7643 17.8799C23.7273 17.5639 23.643 16.0214 23.5918 15.2354C23.5921 15.2112 23.6015 15.1881 23.6182 15.1705C23.6348 15.153 23.6574 15.1424 23.6815 15.1408C23.7056 15.1393 23.7294 15.1468 23.7482 15.162C23.767 15.1772 23.7793 15.199 23.7828 15.2229C23.8018 15.5164 23.929 17.6434 23.9543 17.8574C23.9562 17.882 23.9484 17.9064 23.9327 17.9254C23.9171 17.9445 23.8946 17.9568 23.8701 17.9597C23.8456 17.9626 23.8209 17.9559 23.8012 17.941C23.7814 17.9261 23.7682 17.9042 23.7643 17.8799Z" fill="#313131"/>
<path d="M24.0337 19.4784C23.6654 19.4784 22.9939 19.2984 22.7977 19.1034C22.7797 19.0855 22.7696 19.0612 22.7695 19.0359C22.7695 19.0105 22.7795 18.9861 22.7974 18.9682C22.8153 18.9502 22.8396 18.9401 22.865 18.94C22.8904 18.94 22.9147 18.95 22.9327 18.9679C22.9592 18.9854 22.9852 19.0049 23.0094 19.0257C23.0707 19.0482 23.1294 19.0762 23.1859 19.1092C23.3724 19.1792 23.5649 19.2317 23.7609 19.2667C24.0459 19.3079 24.3365 19.2834 24.6105 19.1949C24.8846 19.1064 25.1347 18.9563 25.3417 18.7562C25.3602 18.7399 25.3843 18.7314 25.409 18.7325C25.4336 18.7336 25.4569 18.7442 25.474 18.762C25.491 18.7798 25.5005 18.8035 25.5005 18.8282C25.5005 18.8529 25.491 18.8766 25.4739 18.8944C25.0864 19.2662 24.571 19.4752 24.0339 19.4784H24.0337Z" fill="#313131"/>
<path d="M22.8654 19.1324C22.8409 19.1315 22.8177 19.1212 22.8006 19.1036C22.7834 19.086 22.7737 19.0625 22.7734 19.038C22.7732 19.0134 22.7823 18.9897 22.799 18.9718C22.8157 18.9538 22.8387 18.9429 22.8632 18.9414C22.8887 18.9413 22.9133 18.9513 22.9316 18.9691C22.9499 18.9869 22.9605 19.0112 22.9611 19.0368C22.9611 19.0622 22.951 19.0865 22.9331 19.1044C22.9151 19.1224 22.8908 19.1324 22.8654 19.1324Z" fill="#313131"/>
<path d="M10.6221 15.842C10.5508 15.842 10.5886 15.8315 10.2271 15.4437C9.23109 14.3755 8.26759 13.203 9.34959 12.1212C9.82759 11.6427 10.6496 11.5175 11.3101 11.4347C12.5646 11.2767 12.7063 11.2112 14.1778 10.048C14.5838 9.72698 15.0028 9.39497 15.4473 9.10547C16.7967 8.20863 18.3144 7.59578 19.9082 7.30425C21.502 7.01272 23.1384 7.04861 24.7178 7.40972C25.1601 7.50547 25.6016 7.61773 25.7213 7.83973C25.7329 7.86084 25.7361 7.88557 25.7302 7.90891C25.7242 7.93226 25.7096 7.95248 25.6893 7.96547C25.6692 7.97866 25.6448 7.9838 25.6211 7.97986C25.5973 7.97593 25.5759 7.96321 25.5611 7.94423C25.5509 7.93439 25.5432 7.92232 25.5386 7.90898C25.4168 7.75697 24.9026 7.64548 24.6773 7.59673C23.3105 7.27483 21.8956 7.21015 20.5051 7.40598C18.7337 7.63846 17.0393 8.27455 15.5526 9.26522C15.1153 9.55023 14.6991 9.87948 14.2963 10.198C12.8198 11.3655 12.6443 11.4597 11.3341 11.6245C10.7341 11.6995 9.92759 11.8132 9.48409 12.2565C8.50909 13.2315 9.42684 14.3065 10.3666 15.3132C10.4891 15.4445 10.6043 15.5685 10.6971 15.6882C10.7078 15.7023 10.7144 15.7192 10.7162 15.7368C10.7179 15.7545 10.7147 15.7723 10.707 15.7882C10.6992 15.8042 10.6871 15.8176 10.6721 15.8271C10.6572 15.8366 10.6398 15.8418 10.6221 15.842Z" fill="#313131"/>
<path d="M11.6537 27.9832C11.4399 27.6625 11.4967 27.2917 11.5519 26.9332C11.6469 26.315 11.6552 26.173 11.1019 25.0482C10.1319 23.0772 9.89442 20.772 9.74467 18.6397C9.60692 16.6772 9.86817 14.9302 10.1897 15.1437C10.2002 15.1506 10.2092 15.1595 10.2162 15.17C10.2232 15.1804 10.2281 15.1921 10.2306 15.2044C10.233 15.2167 10.233 15.2294 10.2306 15.2418C10.2281 15.2541 10.2232 15.2658 10.2162 15.2762C9.63767 16.1445 9.99467 19.8332 10.1639 20.9327C10.2948 22.0281 10.5432 23.1062 10.9049 24.1485C11.0136 24.4262 11.1364 24.6982 11.2727 24.9635C11.8507 26.1367 11.8402 26.3165 11.7409 26.9622C11.6892 27.2995 11.6409 27.6177 11.8122 27.8757C12.2322 28.4885 13.0622 28.4085 13.6557 28.0757C13.6777 28.0646 13.7031 28.0625 13.7267 28.0697C13.7502 28.0769 13.7701 28.0928 13.7822 28.1143C13.7942 28.1358 13.7976 28.1611 13.7915 28.1849C13.7854 28.2088 13.7703 28.2294 13.7494 28.2425C13.0459 28.6375 12.1249 28.6712 11.6537 27.983V27.9832Z" fill="#313131"/>
<path d="M34.6101 14.907C34.7276 14.2684 34.8061 13.6232 34.8451 12.975C34.8488 12.3035 34.9181 12.15 35.2968 11.767C35.5186 11.542 35.6938 11.367 35.5698 10.9943C35.5035 10.8261 35.4039 10.673 35.277 10.5441C35.1502 10.4153 34.9987 10.3133 34.8316 10.2443C34.0662 9.86687 33.2533 9.59441 32.4151 9.43427C31.904 9.2732 31.369 9.20131 30.8336 9.22177C30.8088 9.22439 30.784 9.21718 30.7646 9.2017C30.7451 9.18623 30.7324 9.16372 30.7293 9.13902C30.7261 9.11439 30.7325 9.08946 30.7473 9.06949C30.7621 9.04952 30.7841 9.03609 30.8086 9.03202C31.3678 9.00731 31.927 9.08067 32.4608 9.24877C33.3143 9.41017 34.1415 9.68775 34.9196 10.0738C35.1091 10.1537 35.2806 10.2712 35.4235 10.4191C35.5665 10.5671 35.6781 10.7424 35.7516 10.9345C35.9118 11.4153 35.6571 11.6728 35.4323 11.8995C34.8103 12.5275 35.2556 12.2818 34.7978 14.9378C34.7919 14.9608 34.7776 14.9809 34.7576 14.9939C34.7377 15.0069 34.7136 15.012 34.69 15.0082C34.6665 15.0044 34.6453 14.9919 34.6305 14.9733C34.6157 14.9546 34.6084 14.931 34.6101 14.9073V14.907Z" fill="#313131"/>
<path d="M34.4113 25.3471C34.2405 25.3296 34.0408 25.5119 33.8233 25.4156C33.8067 25.4075 33.7928 25.3947 33.7832 25.3789C33.7737 25.363 33.769 25.3447 33.7696 25.3263C33.7702 25.3078 33.7761 25.2899 33.7867 25.2747C33.7972 25.2595 33.8119 25.2477 33.829 25.2406C33.8521 25.2313 33.8778 25.2313 33.9008 25.2406C34.0238 25.2954 34.2138 25.1354 34.4258 25.1564C34.813 25.1779 34.9815 25.6064 35.2875 25.3161C35.5543 25.0489 35.5125 24.5661 35.469 24.1911C35.4546 24.036 35.4258 23.8825 35.383 23.7326C35.3693 23.7194 35.3598 23.7024 35.3558 23.6838C35.3518 23.6651 35.3535 23.6457 35.3605 23.628C35.3676 23.6103 35.3798 23.5951 35.3956 23.5844C35.4114 23.5737 35.43 23.5679 35.449 23.5679C35.58 23.5679 35.6003 23.7489 35.6583 24.1641C35.72 24.6064 35.743 25.1301 35.421 25.4526C35.0025 25.8514 34.7035 25.3634 34.4113 25.3471Z" fill="#313131"/>
<path d="M13.6641 21.2357C13.6641 21.1337 13.7816 21.0762 13.9348 21.0107C14.2723 20.867 14.6256 20.7634 14.9873 20.7022C16.2712 20.4056 17.6123 20.4732 18.8598 20.8974C18.8717 20.9015 18.8826 20.9079 18.892 20.9163C18.9014 20.9246 18.9091 20.9347 18.9146 20.946C18.9201 20.9573 18.9233 20.9696 18.924 20.9821C18.9248 20.9946 18.923 21.0072 18.9189 21.0191C18.9148 21.0309 18.9084 21.0419 18.9001 21.0513C18.8918 21.0607 18.8817 21.0683 18.8704 21.0738C18.8591 21.0793 18.8468 21.0825 18.8343 21.0833C18.8217 21.084 18.8092 21.0823 18.7973 21.0782C17.5819 20.6653 16.2754 20.5997 15.0248 20.8889C14.6158 20.9528 14.2194 21.0803 13.8498 21.2667C13.8422 21.2877 13.8274 21.3054 13.8081 21.3167C13.7888 21.328 13.7661 21.3322 13.744 21.3285C13.722 21.3248 13.7019 21.3135 13.6873 21.2966C13.6727 21.2796 13.6644 21.2581 13.6641 21.2357Z" fill="#313131"/>
<path d="M16.8071 19.1469C16.1456 18.9201 15.4706 18.8839 14.7756 18.7681C14.7514 18.7631 14.73 18.7489 14.716 18.7285C14.702 18.7081 14.6964 18.683 14.7005 18.6586C14.7046 18.6342 14.718 18.6123 14.7379 18.5975C14.7577 18.5827 14.7826 18.5762 14.8071 18.5794C15.4921 18.6936 16.1904 18.7331 16.8691 18.9659C16.8921 18.9749 16.9107 18.9924 16.9211 19.0148C16.9315 19.0372 16.9328 19.0627 16.9248 19.0861C16.9168 19.1094 16.9001 19.1288 16.8782 19.1401C16.8562 19.1515 16.8308 19.1539 16.8071 19.1469Z" fill="#313131"/>
<path d="M28.6665 19.8321C29.282 19.1653 29.9963 18.8356 30.8568 18.5476C30.9182 18.5068 30.9929 18.4911 31.0655 18.5038C31.0836 18.5118 31.099 18.5247 31.11 18.5411C31.121 18.5574 31.1272 18.5766 31.1278 18.5963C31.1271 18.6105 31.1234 18.6243 31.117 18.6369C31.1106 18.6496 31.1016 18.6607 31.0905 18.6696C31.0795 18.6784 31.0666 18.6848 31.0528 18.6882C31.0391 18.6916 31.0247 18.692 31.0108 18.6893C30.992 18.6943 30.974 18.7011 30.9568 18.7098C30.862 18.8043 29.7068 18.9848 28.8068 19.9618C28.789 19.9779 28.7658 19.9867 28.7418 19.9865C28.7179 19.9864 28.6948 19.9772 28.6772 19.9609C28.6596 19.9446 28.6488 19.9224 28.6468 19.8985C28.6448 19.8746 28.6519 19.8508 28.6665 19.8318V19.8321Z" fill="#313131"/>
<path d="M31.3943 20.5088C30.8486 20.3735 30.2808 20.3534 29.727 20.4498C29.702 20.4541 29.6764 20.4483 29.6557 20.4337C29.635 20.4191 29.6209 20.3968 29.6166 20.3719C29.6123 20.3469 29.6181 20.3213 29.6327 20.3006C29.6473 20.2799 29.6695 20.2658 29.6945 20.2615C30.2664 20.1627 30.8526 20.1826 31.4165 20.32C31.4388 20.3259 31.4583 20.3397 31.4712 20.3588C31.4842 20.3779 31.4899 20.4011 31.4872 20.424C31.4845 20.447 31.4736 20.4682 31.4565 20.4837C31.4395 20.4993 31.4173 20.5082 31.3943 20.5088Z" fill="#313131"/>
<path d="M5.7267 32.9503C5.3797 28.9811 6.0247 25.0858 7.4967 22.2628C7.94735 21.3639 8.52978 20.5374 9.2247 19.8106C9.4542 19.5436 9.65495 19.3228 9.83045 19.3431C9.85455 19.3472 9.87616 19.3604 9.89086 19.3799C9.90557 19.3994 9.91224 19.4238 9.90952 19.4481C9.90681 19.4724 9.8949 19.4947 9.87625 19.5105C9.8576 19.5263 9.83361 19.5344 9.8092 19.5331C9.69695 19.5331 9.34145 19.9753 9.27545 20.0413C6.32245 23.1678 5.53995 28.6163 5.91745 32.9338C5.91862 32.9464 5.91729 32.959 5.91353 32.971C5.90978 32.983 5.90368 32.9941 5.89558 33.0038C5.88749 33.0134 5.87756 33.0213 5.86638 33.0271C5.8552 33.0329 5.84299 33.0363 5.83045 33.0373C5.80516 33.0396 5.78002 33.0316 5.76056 33.0153C5.74111 32.999 5.72893 32.9756 5.7267 32.9503Z" fill="#313131"/>
<path d="M41.7056 29.4817C41.6431 25.6177 41.3991 21.2642 39.2771 18.5019C38.4476 17.4117 37.5624 16.6619 36.7169 16.3329C36.4375 16.2108 36.1427 16.1273 35.8406 16.0849C35.8235 16.1011 35.801 16.1103 35.7774 16.1109C35.7539 16.1114 35.731 16.1033 35.7131 16.0879C35.6952 16.0726 35.6836 16.0512 35.6805 16.0279C35.6774 16.0045 35.6831 15.9809 35.6964 15.9614C35.7814 15.8344 36.1481 15.8997 36.7871 16.1552C37.6771 16.5012 38.5661 17.2517 39.4291 18.3857C41.5864 21.1939 41.8341 25.5839 41.8969 29.4784C41.8962 29.4967 41.8903 29.5144 41.8799 29.5295C41.8695 29.5445 41.855 29.5563 41.8382 29.5634C41.8213 29.5705 41.8028 29.5726 41.7847 29.5695C41.7667 29.5664 41.7499 29.5582 41.7364 29.5459C41.7182 29.5293 41.7072 29.5063 41.7056 29.4817Z" fill="#313131"/>
<path d="M2.25437 47.2529C1.94312 46.6119 2.20437 45.5399 2.37512 44.8304C3.05987 41.9917 4.24937 40.6279 5.54387 37.9127C5.5555 37.8909 5.57502 37.8745 5.59842 37.8667C5.62182 37.859 5.6473 37.8605 5.66962 37.8709C5.69182 37.8817 5.70905 37.9005 5.71779 37.9236C5.72653 37.9466 5.72611 37.9722 5.71662 37.9949C4.42637 40.7004 3.23737 42.0712 2.56087 44.8757C2.40612 45.5172 2.14512 46.5904 2.42637 47.1697C2.43184 47.181 2.43502 47.1932 2.43575 47.2058C2.43648 47.2183 2.43474 47.2308 2.43061 47.2427C2.42649 47.2545 2.42008 47.2655 2.41174 47.2748C2.40339 47.2842 2.39329 47.2918 2.38199 47.2973C2.3707 47.3028 2.35844 47.306 2.34592 47.3067C2.33339 47.3074 2.32084 47.3057 2.30899 47.3015C2.29714 47.2974 2.28622 47.291 2.27685 47.2827C2.26747 47.2743 2.25984 47.2642 2.25437 47.2529Z" fill="#313131"/>
<path d="M47.861 46.059C47.3343 43.9175 45.556 42.2808 44.3678 40.3885C44.3541 40.3672 44.3327 40.352 44.308 40.3463C44.2958 40.3434 44.2831 40.343 44.2708 40.3451C44.2584 40.3472 44.2466 40.3517 44.236 40.3585C44.2146 40.3721 44.1995 40.3935 44.1939 40.4182C44.1883 40.4429 44.1926 40.4688 44.206 40.4903C45.402 42.3953 47.106 43.945 47.6523 46.0153C43.135 46.6303 3.34374 51.831 2.54974 47.385C2.54779 47.3724 2.54334 47.3603 2.53665 47.3495C2.52996 47.3386 2.52117 47.3292 2.5108 47.3218C2.50043 47.3144 2.48867 47.3091 2.47624 47.3063C2.4638 47.3035 2.45093 47.3032 2.43837 47.3054C2.42582 47.3077 2.41383 47.3124 2.40313 47.3193C2.39242 47.3262 2.3832 47.3352 2.37602 47.3457C2.36883 47.3563 2.36383 47.3681 2.36129 47.3806C2.35875 47.3931 2.35874 47.406 2.36124 47.4185C3.19824 52.106 43.0595 46.8413 47.7428 46.1958C47.776 46.1913 47.8818 46.1435 47.861 46.059Z" fill="#313131"/>
<path d="M7.2738 40.7079C7.25177 40.708 7.23036 40.7005 7.21322 40.6867C7.19608 40.6728 7.18425 40.6535 7.17975 40.6319C7.17525 40.6103 7.17834 40.5879 7.18851 40.5683C7.19868 40.5488 7.2153 40.5333 7.23555 40.5246C9.3472 39.6118 11.5352 38.8867 13.7741 38.3579C13.7925 38.3532 13.8119 38.3542 13.8298 38.3607C13.8476 38.3672 13.8631 38.3789 13.8743 38.3943C13.8854 38.4097 13.8917 38.4281 13.8923 38.4471C13.8929 38.4661 13.8877 38.4848 13.8776 38.5009C13.871 38.5116 13.8624 38.5209 13.8522 38.5283C13.842 38.5357 13.8305 38.541 13.8183 38.5439C11.5785 39.0754 9.3889 39.7994 7.2738 40.7079Z" fill="#313131"/>
<path d="M19.6323 37.1699C19.6085 37.1692 19.5857 37.1597 19.5685 37.1432C19.5513 37.1267 19.5409 37.1043 19.5393 37.0805C19.5377 37.0567 19.545 37.0332 19.5599 37.0145C19.5747 36.9959 19.596 36.9834 19.6196 36.9796C22.0541 36.6461 27.9751 35.7946 30.4116 36.0611C30.4361 36.0648 30.4582 36.0777 30.4734 36.0973C30.4886 36.1168 30.4956 36.1415 30.4931 36.1661C30.4904 36.1908 30.4782 36.2134 30.4591 36.2293C30.4401 36.2452 30.4156 36.2531 30.3908 36.2514C27.5553 35.9411 19.8733 37.1699 19.6323 37.1699Z" fill="#313131"/>
<path d="M40.8207 37.6828C39.2682 37.2848 34.7555 36.5256 34.1707 36.6508C34.1466 36.6545 34.1219 36.6488 34.1018 36.6349C34.0817 36.621 34.0677 36.6 34.0626 36.5761C34.0576 36.5522 34.0618 36.5272 34.0745 36.5064C34.0872 36.4855 34.1074 36.4703 34.131 36.4638C34.7892 36.3246 39.4235 37.1268 40.8692 37.4976C40.8938 37.5041 40.9147 37.5201 40.9275 37.542C40.9403 37.5639 40.944 37.59 40.9377 37.6146C40.9345 37.6267 40.929 37.6381 40.9214 37.6482C40.9138 37.6582 40.9043 37.6666 40.8934 37.6729C40.8825 37.6793 40.8705 37.6834 40.8581 37.6851C40.8456 37.6868 40.8329 37.686 40.8207 37.6828Z" fill="#313131"/>
<path d="M32.4828 22.7067C31.5438 21.5177 30.1786 20.0967 27.9288 19.6385C28.105 19.1994 28.2244 18.7397 28.2843 18.2705C28.3948 18.2602 28.5038 18.238 28.6093 18.2042C29.0093 18.6587 29.9306 18.6157 30.2501 18.0935C30.3301 17.9505 30.3881 17.7965 30.4221 17.636C30.4504 17.4877 30.503 17.3451 30.5778 17.214C30.7241 17.077 30.884 16.9555 31.0551 16.8512C31.3941 16.5547 31.4148 16.2812 31.3346 15.8807C31.3309 15.8622 31.3219 15.8451 31.3085 15.8318C31.2952 15.8184 31.2782 15.8093 31.2597 15.8055C31.2412 15.8018 31.222 15.8037 31.2045 15.8109C31.187 15.8181 31.1721 15.8303 31.1616 15.846C29.9416 15.2945 29.0816 13.6982 28.2953 12.7435C27.1469 11.4172 25.6281 10.4646 23.9341 10.0082C22.9857 9.72513 21.9752 9.72513 21.0268 10.0082C19.8018 10.4482 18.6551 11.6915 18.1386 12.839C17.8886 13.3745 17.8886 14.1015 17.5456 14.5987C17.3736 14.8487 17.0291 14.943 16.7613 15.096C16.3598 15.3255 15.9581 15.689 15.8816 16.1672C15.7858 16.722 16.3023 16.8557 16.4363 17.3147C16.5701 17.7357 16.3788 18.1947 16.5318 18.6147C16.8671 19.509 18.3613 19.4852 18.6353 19.0747C18.9193 19.2426 19.2467 19.3222 19.5761 19.3035C19.7345 19.7287 19.9547 20.1283 20.2296 20.4895C19.784 20.5824 19.3507 20.7267 18.9383 20.9195C15.9568 22.41 14.2831 24.955 13.6446 28.1467C12.9298 31.719 13.5196 36.276 14.5486 39.0765C14.6986 39.4835 14.8318 40.048 15.2716 40.2335C15.1751 42.4402 14.3486 44.871 14.9798 45.0085C15.3748 45.0947 15.6611 44.162 15.8003 43.757C15.7014 44.4129 15.6456 45.0747 15.6331 45.738C15.6318 45.8855 15.6158 46.3645 15.7923 46.4925C15.818 46.5109 15.8479 46.5227 15.8792 46.5268C15.9106 46.531 15.9425 46.5273 15.9721 46.5162C16.4013 46.3572 16.5998 45.496 16.7433 44.6475C16.7118 45.1719 16.7086 45.6977 16.7338 46.2225C16.7521 46.4255 16.7801 46.7325 16.9908 46.7325C17.1908 46.7325 17.3066 46.4507 17.3836 46.2645C17.5575 45.8132 17.679 45.3435 17.7456 44.8645C17.7641 45.385 17.8276 45.9965 17.8563 46.1752C17.8921 46.3972 17.9426 46.612 18.0701 46.6812C18.0951 46.6948 18.1229 46.7024 18.1513 46.7032C18.1798 46.7041 18.208 46.6983 18.2338 46.6862C18.5261 46.5612 18.6353 46.0162 18.6923 45.6177C18.9348 43.9677 18.6801 43.1657 18.6771 42.722C18.8486 42.993 19.2723 43.7157 19.5853 43.7157C19.6231 43.7157 19.6602 43.7055 19.6927 43.6863C19.7252 43.667 19.7519 43.6393 19.7701 43.6062C19.9573 43.2937 19.7861 42.784 19.6838 42.4395C19.4233 41.5607 19.0103 40.36 18.4233 39.9645C18.5123 39.682 17.8106 37.5705 17.6791 36.1077C17.4006 33.0432 17.5066 29.9017 18.7041 27.1647C18.7121 27.1419 18.7112 27.1169 18.7016 27.0947C18.692 27.0725 18.6743 27.0548 18.6521 27.0451C18.63 27.0354 18.605 27.0345 18.5821 27.0425C18.5593 27.0505 18.5403 27.0668 18.5291 27.0882C17.3081 29.8795 17.2098 33.0592 17.4888 36.125C17.6171 37.5575 18.2861 39.6422 18.2438 39.8972C18.0106 40.0385 15.7166 40.309 15.2983 40.0312C14.9696 39.8407 14.8583 39.3632 14.7283 39.0105C13.7006 36.2215 13.1283 31.6997 13.8336 28.1765C14.4563 25.0612 16.0893 22.558 19.0233 21.092C19.4513 20.8845 19.9084 20.7435 20.3788 20.6737C20.9486 21.3252 21.6941 21.7987 22.5261 22.0372C22.5058 22.0757 22.5116 22.1252 22.5676 22.2732C22.713 22.5506 22.9194 22.7913 23.1712 22.9775C23.4231 23.1637 23.7138 23.2904 24.0216 23.3481C24.3294 23.4059 24.6463 23.3931 24.9485 23.3109C25.2506 23.2286 25.5302 23.079 25.7663 22.8732C25.9402 22.713 26.0773 22.517 26.1682 22.2987C26.2591 22.0804 26.3016 21.845 26.2928 21.6087C26.9889 21.1917 27.5351 20.5651 27.8533 19.8187C30.0648 20.2562 31.4093 21.6557 32.3328 22.8255C33.3015 24.1147 33.9686 25.6049 34.2848 27.1862C35.0098 30.545 34.5076 35.2387 33.4278 38.1692C33.2508 38.6495 33.1963 39.0165 32.7631 39.2392C32.0393 39.4565 30.1853 39.1892 29.9261 39.0602C30.0091 38.5685 30.5921 36.5035 30.6673 35.263C30.8318 32.7212 30.8886 29.463 29.8558 26.8017C29.7808 26.613 29.7023 26.4177 29.6058 26.2242C29.5944 26.2016 29.5745 26.1844 29.5506 26.1762C29.5387 26.1722 29.5261 26.1707 29.5136 26.1717C29.4946 26.1727 29.4764 26.1795 29.4614 26.1911C29.4464 26.2027 29.4353 26.2186 29.4296 26.2367C29.4256 26.2486 29.424 26.2612 29.4249 26.2737C29.4258 26.2863 29.4292 26.2985 29.4348 26.3097C29.5281 26.4962 29.6048 26.6877 29.6798 26.8755C30.6973 29.497 30.6403 32.7282 30.4768 35.2505C30.3908 36.6707 29.6701 38.9972 29.7411 39.1427C29.7686 39.1865 29.8091 39.2207 29.8571 39.2402C29.4048 39.5335 28.9001 40.2245 28.3071 41.3317C28.1393 41.6452 27.8756 42.123 27.9946 42.4592C28.1638 42.9372 28.8893 42.1842 29.2278 41.8107C29.1913 41.9645 29.1453 42.116 29.0901 42.264C28.8351 43.0344 28.69 43.837 28.6591 44.648C28.6553 44.9937 28.6253 45.6007 28.8953 45.781C28.9179 45.7957 28.9434 45.8053 28.97 45.809C28.9967 45.8127 29.0239 45.8105 29.0496 45.8025C29.1788 45.7627 29.2636 45.5925 29.3461 45.4065C29.5069 44.971 29.6395 44.5257 29.7433 44.0732C29.718 44.5508 29.7396 45.0296 29.8078 45.503C29.8598 45.8662 29.9578 46.061 30.1078 46.0987C30.3208 46.1522 30.4103 45.8437 30.4681 45.6325C30.5826 45.1982 30.6673 44.7566 30.7216 44.3107C30.8261 43.5952 30.5243 45.6917 31.1508 46.0675C31.1775 46.0858 31.2085 46.0969 31.2408 46.0998C31.2731 46.1027 31.3055 46.0973 31.3351 46.084C31.3851 46.0615 31.5326 45.9932 31.6216 45.3717C31.7341 44.7157 31.8103 44.054 31.8498 43.3895C31.9381 44.1145 32.0691 44.7817 32.4263 44.7817C32.7763 44.7817 32.8278 44.0027 32.8278 43.5447C32.9048 42.3697 32.8853 40.4505 33.0633 39.2787C33.2996 39.0394 33.4658 38.74 33.5441 38.413C33.9238 37.3947 34.2083 36.3435 34.3941 35.2727C35.1268 31.0435 35.1516 26.0867 32.4828 22.7067ZM28.3391 15.7332C28.4853 15.585 28.6832 15.499 28.8914 15.4934C29.0996 15.4879 29.3018 15.563 29.4558 15.7032C30.2898 16.4425 29.3558 17.9032 28.3058 18.0767C28.3826 17.298 28.3936 16.514 28.3391 15.7332ZM18.2711 40.0957C18.8836 40.4457 19.3293 41.9207 19.5286 42.589C19.6063 42.8507 19.7381 43.289 19.6068 43.507C19.5093 43.6632 18.9853 42.8587 18.8876 42.699C18.7453 42.4665 18.6836 42.3792 18.5918 42.3962C18.3668 42.4385 18.5573 43.256 18.5788 43.6232C18.6297 44.2797 18.6045 44.94 18.5038 45.5907C18.4068 46.2707 18.2628 46.4657 18.1623 46.5135C18.1478 46.506 18.0961 46.4565 18.0431 46.1275C17.8116 44.332 18.0581 43.3575 17.7526 43.5105C17.6308 43.5712 17.6236 44.276 17.6236 44.276C17.5838 44.9134 17.451 45.5415 17.2293 46.1405C17.1148 46.4292 17.0413 46.5405 16.9996 46.5437C16.8103 46.4077 16.9728 44.0187 16.9728 43.8062C16.9728 43.5357 16.9728 43.4237 16.8581 43.4237C16.6931 43.4237 16.6946 43.7665 16.5861 44.4327C16.4936 45.0035 16.3011 46.191 15.9063 46.3382C15.7036 46.2212 15.9266 44.076 16.0031 43.7117C16.0963 43.268 16.1048 43.07 16.0338 42.9812C16.0229 42.968 16.0087 42.9578 15.9927 42.9519C15.9766 42.9459 15.9592 42.9443 15.9423 42.9472C15.9254 42.9501 15.9095 42.9576 15.8965 42.9688C15.8835 42.9801 15.8737 42.9946 15.8683 43.011C15.8506 43.0642 15.8113 43.12 15.7906 43.186C15.7537 43.3202 15.7097 43.4523 15.6586 43.5817C15.6473 43.6132 15.6336 43.6567 15.6158 43.7067C15.1658 45.0512 14.7938 45.2795 14.9876 43.8522C15.2056 42.2635 15.4071 41.4237 15.4626 40.2872C16.1436 40.4315 17.8108 40.267 18.2711 40.0957ZM17.9631 16.994C18.0538 16.8811 18.1718 16.7933 18.3061 16.739C18.4403 16.6847 18.5862 16.6657 18.7298 16.6837C18.8306 16.6942 18.9286 16.7215 19.0203 16.7642C19.0988 17.563 19.2638 18.351 19.5123 19.1142C18.4806 19.1392 17.2703 17.8415 17.9631 16.994ZM22.9881 22.5647C22.8572 22.4308 22.7615 22.2666 22.7096 22.0867C23.8465 22.3689 25.0467 22.2374 26.0956 21.7157C26.0956 23.0997 24.0773 23.7745 22.9881 22.5647ZM27.7091 19.6702C26.4123 22.9297 21.0733 22.895 19.7403 19.1975C18.5278 15.5582 19.0471 11.8175 22.8511 11.731C23.0536 12.5455 23.4636 13.2935 24.0408 13.9025C24.4793 14.3135 25.0908 14.612 25.4291 14.115C25.4953 14.015 25.5871 13.5462 25.6683 13.5455C25.9008 13.561 26.2433 14.0152 26.4838 14.1617C26.9821 14.4667 27.4911 14.7492 28.0686 14.6855C28.1971 15.8407 28.2091 17.0062 28.1043 18.164C28.0463 18.6825 27.9131 19.1899 27.7091 19.6702ZM32.6371 43.5385C32.6371 44.1585 32.5263 44.5905 32.4268 44.5905C32.1043 44.5905 32.0118 42.893 31.9246 42.6285C31.9198 42.6138 31.9115 42.6006 31.9003 42.59C31.8893 42.5792 31.8759 42.5713 31.8611 42.567C31.6441 42.5027 31.6578 43.0897 31.6611 43.3045C31.6653 43.5782 31.4491 45.8692 31.2516 45.9045C30.8318 45.6527 30.9208 43.986 30.9651 43.506C30.9833 43.311 31.0413 42.8687 30.8581 42.8687C30.7136 42.8687 30.6863 43.2417 30.6863 43.2417C30.6743 43.364 30.6221 43.6667 30.5326 44.283C30.4793 44.7215 30.3958 45.1559 30.2826 45.583C30.2629 45.7012 30.2188 45.814 30.1531 45.9142C30.1531 45.9142 30.0531 45.8847 29.9951 45.4762C29.8998 44.7878 29.8998 44.0896 29.9951 43.4012C30.0641 42.8467 30.0576 42.8047 29.9811 42.7665C29.9678 42.7599 29.9531 42.7565 29.9383 42.7565C29.8518 42.7565 29.8518 42.7565 29.7296 43.2737C29.5956 43.9454 29.4196 44.608 29.2026 45.2577C29.1748 45.314 29.0551 45.6032 28.9968 45.6225C28.8366 45.5157 28.8441 45.0017 28.8468 44.7545C28.8673 43.9297 29.0093 43.1127 29.2683 42.3295C29.3633 42.1 29.4216 41.857 29.4408 41.6092C29.4396 41.5869 29.4325 41.5653 29.4203 41.5467C29.408 41.528 29.3911 41.5129 29.3711 41.503C29.2678 41.4647 29.2043 41.5672 28.9478 41.834C28.4033 42.4005 28.2333 42.4325 28.1861 42.422C28.1808 42.422 28.1763 42.4102 28.1723 42.3982C28.0796 42.1505 28.3196 41.7082 28.4486 41.4702C28.7783 40.8615 29.4531 39.6155 30.0958 39.3277C30.6906 39.4457 31.2948 39.508 31.9011 39.5135C32.2211 39.5235 32.5408 39.488 32.8511 39.4087C32.6956 40.6025 32.7118 42.3897 32.6371 43.5385Z" fill="#313131"/>
<path d="M24.6625 25.0605C24.4966 25.0653 24.3387 25.1333 24.2214 25.2507C24.104 25.368 24.036 25.5259 24.0312 25.6918C24.0313 25.7851 24.0521 25.8773 24.092 25.9616C24.1319 26.046 24.1901 26.1204 24.2622 26.1796C24.3344 26.2388 24.4187 26.2813 24.5093 26.304C24.5998 26.3266 24.6942 26.329 24.7857 26.3108C24.9082 26.2865 25.0205 26.2265 25.1087 26.138C25.1974 26.0499 25.2578 25.9374 25.2823 25.8149C25.3069 25.6923 25.2944 25.5653 25.2466 25.4498C25.1988 25.3343 25.1177 25.2357 25.0137 25.1664C24.9097 25.0971 24.7875 25.0602 24.6625 25.0605Z" fill="white"/>
<path d="M35.5252 20.089C35.7606 20.0861 35.9942 20.13 36.2125 20.2181C36.4308 20.3062 36.6294 20.4368 36.7968 20.6023C36.9643 20.7677 37.0972 20.9648 37.1879 21.182C37.2786 21.3993 37.3252 21.6323 37.3252 21.8677C37.3252 22.1032 37.2786 22.3363 37.1879 22.5535C37.0972 22.7708 36.9643 22.9678 36.7969 23.1333C36.6294 23.2988 36.4308 23.4294 36.2125 23.5175C35.9942 23.6057 35.7606 23.6496 35.5252 23.6467C35.2851 23.6497 35.0469 23.603 34.8258 23.5095C34.6046 23.4161 34.4051 23.2779 34.2398 23.1037C34.0746 22.9295 33.9471 22.723 33.8655 22.4972C33.7839 22.2714 33.7498 22.0311 33.7654 21.7915C33.7875 21.3373 33.9817 20.9085 34.3086 20.5922C34.6355 20.276 35.0704 20.0961 35.5252 20.089Z" fill="#FF7449"/>
<path d="M36.2125 17.5459C35.8178 15.3592 34.1913 14.9797 33.1125 13.4527C32.21 12.1737 32.0223 10.5644 30.8748 9.41693C29.1635 7.70543 26.7118 7.46693 24.448 8.17343C23.6455 8.42343 22.0188 9.03418 21.4258 9.85668V9.89493C22.2581 9.73154 23.1176 9.7709 23.9315 10.0097C25.6257 10.4656 27.1445 11.4182 28.2925 12.7449C29.1705 13.7884 30.015 15.4742 31.4103 15.9392C31.4485 15.9584 33.3625 16.3592 33.9353 17.1442C34.6938 18.1839 34.0545 20.0899 35.37 20.0899C36.3848 19.9942 36.337 18.2362 36.2125 17.5459Z" fill="#4D68A1"/>
<path d="M37.2683 9.12644C35.5628 9.08194 35.1715 9.02119 35.0895 8.91844C35.0175 8.81094 35.0175 8.81094 35.852 8.21419C36.2303 7.94394 36.8285 7.51594 37.023 7.33294C36.5338 7.2552 36.0411 7.20205 35.5465 7.17369C35.5269 7.17785 35.5065 7.17569 35.4881 7.16752C35.4698 7.15934 35.4545 7.14558 35.4445 7.12819C35.4358 7.11335 35.4312 7.09644 35.4312 7.07921C35.4312 7.06199 35.4358 7.04507 35.4445 7.03022C35.4532 7.01536 35.4657 7.0031 35.4808 6.9947C35.4958 6.9863 35.5128 6.98207 35.53 6.98244C35.555 6.98244 37.222 7.05494 37.2655 7.27144C37.2813 7.39494 37.1293 7.53569 35.9625 8.36969C35.7375 8.52969 35.494 8.70469 35.3543 8.81219C35.803 8.87569 37.066 8.92144 37.2738 8.93544C37.2979 8.93783 37.3203 8.94926 37.3364 8.96743C37.3525 8.9856 37.3611 9.00918 37.3605 9.03344C37.3597 9.05771 37.3497 9.08076 37.3326 9.09799C37.3155 9.11523 37.2925 9.12539 37.2683 9.12644Z" fill="#FF7449"/>
<path d="M41.1519 6.69928C41.0894 6.69928 39.6189 6.53778 39.3477 6.50728C37.7852 6.33228 37.7852 6.33228 37.7852 6.22103C37.7852 6.14603 37.7852 6.14603 38.6144 5.76428C39.2394 5.47628 40.3297 4.97278 40.6787 4.76078C40.2432 4.67078 38.8722 4.53578 38.6814 4.53578C38.5542 4.55728 38.5022 4.33578 38.7029 4.34553C38.7249 4.34553 40.9192 4.47253 40.9592 4.71278C40.9612 4.93178 39.9134 5.36128 38.1819 6.17528C38.8877 6.26953 40.7549 6.47103 41.1604 6.50778C41.1794 6.50852 41.1976 6.51492 41.2129 6.52615C41.2282 6.53737 41.2398 6.55292 41.2462 6.57078C41.2506 6.58257 41.2526 6.59515 41.252 6.60774C41.2515 6.62033 41.2484 6.63267 41.2429 6.64403C41.235 6.66127 41.2221 6.67575 41.2059 6.6856C41.1897 6.69544 41.1709 6.70021 41.1519 6.69928Z" fill="#FF7449"/>
<path d="M44.8225 4.90192C44.7918 4.90192 41.7255 4.87042 41.6383 4.69617C41.594 4.58567 41.5883 4.57242 43.4423 3.11192C44.0123 2.66192 44.6453 2.16392 44.889 1.95067C44.328 1.88067 42.2415 1.82317 41.9703 1.85367C41.9538 1.86027 41.9359 1.86222 41.9184 1.8593C41.9009 1.85638 41.8846 1.8487 41.8712 1.8371C41.8578 1.8255 41.8478 1.81044 41.8424 1.79356C41.837 1.77669 41.8364 1.75865 41.8405 1.74142C41.8486 1.72104 41.8619 1.70318 41.8792 1.68972C41.8965 1.67627 41.9171 1.6677 41.9388 1.66492C41.9685 1.66167 45.05 1.64292 45.1568 1.85617C45.208 1.95842 45.2098 1.96242 43.5605 3.26217C42.9355 3.75542 42.18 4.34992 41.908 4.59317C42.458 4.65067 44.3615 4.71067 44.8225 4.71067C44.8464 4.71279 44.8687 4.72378 44.8849 4.74148C44.9011 4.75918 44.9101 4.7823 44.9101 4.8063C44.9101 4.83029 44.9011 4.85341 44.8849 4.87111C44.8687 4.88881 44.8464 4.8998 44.8225 4.90192Z" fill="#FF7449"/>
</svg>
