<svg width="50" height="50" viewBox="0 0 50 50" fill="none" xmlns="http://www.w3.org/2000/svg">
<path d="M20.3984 25.7251C20.3984 25.7251 21.9809 24.9913 23.4679 25.4416C23.4679 25.4416 23.9044 30.7576 25.2277 32.2036C26.1947 33.2603 27.6424 33.5133 28.9249 30.2256C30.2542 26.8173 31.8399 25.2186 33.3632 25.0958C33.3632 25.0958 33.5097 28.1001 36.3689 28.3916C38.4337 28.6021 39.4569 26.4466 39.4569 26.4466C39.4569 26.4466 42.1127 26.9416 43.0937 27.8791C44.4499 29.1751 45.9819 33.1276 45.9917 36.5986C46.0027 40.5028 44.7322 42.6333 41.4077 43.0698C41.4077 43.0698 39.6389 44.5866 35.2827 44.3591C32.9511 44.2102 30.7496 43.2329 29.0754 41.6033C29.5277 40.137 29.8385 38.6307 30.0037 37.1051C30.0037 37.1051 25.8892 39.0688 23.3864 36.4051C20.4724 33.3051 20.3984 25.7251 20.3984 25.7251Z" fill="#016DAB"/>
<path d="M33.5162 13.8724C33.5162 13.8724 32.4269 14.2422 32.4814 17.8317C32.4814 17.8317 32.5542 18.2267 31.5039 18.1859C31.6808 18.6223 31.9821 18.9971 32.3702 19.2637C32.3747 19.41 32.3515 19.5558 32.3019 19.6934C32.2269 19.8374 31.7542 19.4312 31.6607 19.7342C31.5672 20.0372 31.9744 20.1432 31.9744 20.1432C31.9744 20.1432 31.5212 20.5269 31.7562 20.7097C31.8233 20.7599 31.906 20.7846 31.9896 20.7796C32.0733 20.7747 32.1525 20.7402 32.2132 20.6824C32.2132 20.6824 31.9084 22.5574 33.0364 23.0402C34.1644 23.5229 34.4914 23.1129 34.4914 23.1129C34.4914 23.1129 34.8734 24.1589 34.7372 24.8592C34.2669 24.8253 33.7955 24.9064 33.3637 25.0957C33.3637 25.0957 33.6372 28.1897 36.2242 28.3837C38.5912 28.5609 39.4574 26.4464 39.4574 26.4464C39.4574 26.4464 36.8509 25.6524 36.2924 23.5249C35.7339 21.3974 36.5294 19.0999 36.4287 18.0692C36.3197 16.9504 35.4622 16.0814 34.8872 15.7089C34.2112 15.2956 33.7203 14.638 33.5162 13.8724Z" fill="white"/>
<path d="M40.5391 38.2653C40.5391 38.2653 43.4781 35.168 43.5586 34.9957C43.6391 34.8235 40.5149 31.203 39.2836 30.1845C39.2836 30.1845 38.8231 30.516 38.7071 30.5787C38.7071 30.5787 38.1206 29.9115 37.9911 29.8787C37.8616 29.846 35.5149 31.6865 35.5149 31.6865C35.5149 31.6865 35.4376 30.1062 35.2284 30.1C35.0191 30.0937 34.7826 31.7372 34.6826 31.7415C34.5826 31.7457 33.7541 27.8802 33.4454 27.8802C33.1366 27.8802 33.4004 29.6445 33.4004 29.6445C33.4004 29.6445 32.7709 28.174 32.6271 28.213C32.3771 28.2805 32.6909 30.4235 32.6909 30.4235C32.6909 30.4235 32.1001 29.2642 31.9634 29.2985C31.7086 29.3632 32.2906 31.741 32.2906 31.741C32.2906 31.741 31.5089 30.882 31.3266 30.9627C31.0811 31.072 32.4999 33.573 32.7636 33.8823C32.7636 33.8823 30.4671 35.7512 29.7031 36.488C29.7031 36.488 33.5346 41.754 33.6994 41.754C33.8641 41.754 34.8744 40.8807 34.8744 40.8807C34.8744 40.8807 36.2959 42.484 36.4434 42.484C36.5909 42.484 37.4151 41.527 37.4151 41.527C37.4151 41.527 34.9016 39.8305 33.4216 35.499C33.4216 35.499 35.0381 34.2915 36.1569 33.924C36.1554 33.9225 38.9201 37.5468 40.5391 38.2653Z" fill="white"/>
<path d="M21.2312 25.4776C21.7342 25.3797 22.2473 25.3431 22.7592 25.3686C22.6582 25.0764 22.6362 24.7626 22.6954 24.4591C22.8137 24.0679 23.2684 23.4816 23.0229 22.9841C23.4145 23.0483 23.8093 23.0915 24.2054 23.1136C24.2599 23.0774 25.1054 18.0569 25.1194 17.3201C22.4028 16.1548 19.4659 15.5918 16.5109 15.6701C16.5109 15.6701 15.6379 19.7766 15.4609 21.2091C15.4609 21.2091 16.7297 21.6591 17.0299 21.7549C17.0299 21.7549 17.0299 22.3141 17.8484 22.7916C18.6669 23.2691 20.6997 23.8594 20.9589 24.2336C21.2029 24.5993 21.3001 25.0435 21.2312 25.4776Z" fill="white"/>
<path d="M5.56055 23.4041C5.56055 23.4041 9.93705 20.3203 12.8355 19.9291C12.8355 19.9291 14.5783 22.3666 15.2803 24.7858C15.2803 24.7858 10.3433 28.0206 8.2333 28.5316C8.2343 28.5321 6.3973 25.6413 5.56055 23.4041Z" fill="white"/>
<path d="M7.57517 8.99792C7.57517 8.99792 12.5469 10.0002 14.9752 11.6252C14.9752 11.6252 13.7002 16.4342 13.3312 16.7207C13.3312 16.7207 6.71467 14.7972 5.73242 14.4152C5.73242 14.4139 6.98742 9.78917 7.57517 8.99792Z" fill="#FDAF31"/>
<path d="M34.6229 23.1826C34.8816 23.0761 35.1193 22.9245 35.3249 22.7348C35.3382 22.7224 35.3488 22.7074 35.3561 22.6907C35.3634 22.674 35.3673 22.6561 35.3675 22.6379C35.3677 22.6197 35.3643 22.6016 35.3573 22.5848C35.3504 22.568 35.3401 22.5528 35.3271 22.54C35.3141 22.5273 35.2987 22.5173 35.2818 22.5107C35.2648 22.504 35.2467 22.5009 35.2285 22.5014C35.2104 22.502 35.1925 22.5062 35.1759 22.5138C35.1594 22.5214 35.1446 22.5323 35.1324 22.5458C35.1239 22.5543 34.2747 23.4026 33.1667 22.9343C32.0732 22.4723 32.3307 20.7048 32.3334 20.6871C32.3374 20.6608 32.3336 20.634 32.3224 20.61C32.3113 20.5859 32.2933 20.5657 32.2707 20.5518C32.2481 20.5379 32.2219 20.531 32.1954 20.5319C32.1689 20.5328 32.1433 20.5414 32.1217 20.5568C32.1217 20.5568 31.9029 20.7068 31.8342 20.5833C31.7592 20.4483 31.9752 20.3206 32.0684 20.2548C32.0891 20.2402 32.1053 20.22 32.1151 20.1966C32.1249 20.1732 32.1279 20.1476 32.1238 20.1225C32.1197 20.0975 32.1087 20.0741 32.0919 20.0551C32.0752 20.036 32.0535 20.0221 32.0292 20.0148C31.9414 19.9898 31.7292 19.9618 31.7717 19.8013C31.8194 19.6243 32.1427 19.7951 32.2277 19.8376C32.2599 19.8538 32.2972 19.8566 32.3314 19.8453C32.4682 19.7998 32.5289 19.5996 32.5122 19.2503C32.5115 19.231 32.5067 19.2121 32.4981 19.1949C32.4894 19.1776 32.4772 19.1624 32.4622 19.1503C32.1646 18.9258 31.9153 18.6437 31.7292 18.3208C32.2792 18.2973 32.4512 18.2086 32.5327 18.1411C32.5664 18.1128 32.5933 18.0772 32.6115 18.0371C32.6296 17.997 32.6385 17.9533 32.6374 17.9093C32.5694 15.6311 33.0124 14.6198 33.3374 14.1876C33.5021 14.7404 33.8273 15.232 34.2717 15.5998C35.0362 16.2641 36.1392 16.9171 36.1757 18.3646C36.2007 19.4011 35.0852 22.9071 36.9577 25.0183C37.3085 25.4164 37.7138 25.7631 38.1614 26.0481C37.9652 26.3184 37.7116 26.542 37.4189 26.7029C37.1262 26.8639 36.8015 26.9582 36.4682 26.9791C35.3662 26.9791 34.7794 25.6111 34.7509 25.5128C35.0704 24.2931 34.7792 23.4936 34.6229 23.1826ZM34.5777 25.0231C34.5127 25.4378 34.4607 25.4706 34.4792 25.5458C34.4832 25.5628 35.0292 27.2333 36.4639 27.2498C36.8482 27.2489 37.2261 27.1511 37.5626 26.9654C37.8991 26.7796 38.1833 26.512 38.3889 26.1873C38.6566 26.3394 38.9351 26.4717 39.2222 26.5831C38.9262 27.1622 38.4494 27.6291 37.8641 27.9129C37.2788 28.1967 36.617 28.2819 35.9789 28.1556C35.5088 28.0813 35.0659 27.8865 34.6935 27.5902C34.3211 27.2938 34.0318 26.906 33.8539 26.4646C33.6713 26.0474 33.557 25.6035 33.5154 25.1501C33.858 25.0395 34.2187 24.9964 34.5777 25.0231ZM24.1764 22.7076C23.8147 21.9378 22.9514 20.1668 22.2529 19.2641C22.7389 19.0591 24.6157 17.8321 24.9932 17.5763C24.8617 18.5018 24.4549 21.3138 24.1764 22.7076ZM24.8897 17.3218C23.2954 18.4136 20.7749 19.9251 20.2014 19.7041C19.5264 19.4446 17.5669 16.8611 16.7764 15.7598C17.8062 15.7931 21.6572 16.0041 24.8897 17.3218ZM16.5729 15.9403C16.8554 16.3316 17.7339 17.5326 18.5804 18.5246C17.4424 19.3406 16.1644 20.4276 15.6094 20.9088C15.7537 20.0361 16.1404 17.7783 16.5729 15.9403ZM15.6834 21.2023C16.1654 20.7818 17.5459 19.5961 18.7584 18.7298C19.2929 19.3401 19.7804 19.8921 20.1064 19.9548C20.5777 20.0471 21.0419 19.8906 22.0112 19.3908C22.7407 20.3141 23.7072 22.3358 24.0082 22.9826C23.6989 22.9582 23.3905 22.9249 23.0832 22.8826C22.7879 22.4826 22.1424 22.4781 21.3989 22.4736C20.1974 22.4663 19.9569 22.4413 18.4944 21.9023C17.7819 21.6396 17.2724 21.4523 17.0352 21.5968C16.8822 21.5551 16.1819 21.3596 15.6834 21.2023ZM18.7084 23.0901C17.8259 22.6943 17.0647 22.0706 17.1714 21.8306C17.3464 21.6083 19.1267 22.5941 20.3532 22.7056C21.5132 22.8118 22.6032 22.6011 22.8897 23.0773C23.1377 23.4898 22.6749 23.9508 22.5609 24.3931C22.523 24.6632 22.5256 24.9375 22.5687 25.2068C22.1769 25.1993 21.7855 25.2339 21.4012 25.3101C21.4268 24.9452 21.333 24.5819 21.1339 24.2751C20.7202 23.6633 19.1014 23.2661 18.7082 23.0901H18.7084ZM35.4917 44.2063C33.1654 44.0788 30.9548 43.1507 29.2347 41.5793C29.6596 40.1994 29.9722 38.7874 30.1694 37.3571C31.2219 38.7861 33.3122 41.6131 33.6039 41.9153C33.6165 41.9284 33.6316 41.9388 33.6483 41.9458C33.665 41.9529 33.683 41.9566 33.7012 41.9566C33.7649 41.9566 33.6859 42.0016 34.9037 41.0888C35.3997 41.6041 35.9022 42.1138 36.3759 42.5793C36.4022 42.6019 36.4357 42.6143 36.4703 42.6143C36.5049 42.6143 36.5384 42.6019 36.5647 42.5793C36.5647 42.5793 37.3897 41.7618 37.3944 41.7561C38.4361 42.6004 39.7239 43.0837 41.0639 43.1333C40.3764 43.5573 38.6014 44.3941 35.4914 44.2063H35.4917ZM32.5744 31.9578C32.1787 30.7251 31.9874 29.7828 32.0027 29.4621C32.3279 30.1203 32.6067 30.8006 32.8369 31.4978C32.8482 31.5305 32.8717 31.5576 32.9024 31.5735C32.9331 31.5894 32.9688 31.5929 33.002 31.5833C33.0353 31.5737 33.0635 31.5517 33.081 31.5218C33.0985 31.4919 33.1038 31.4565 33.0959 31.4228C32.7929 30.0531 32.6184 28.7998 32.6677 28.4123C33.0285 29.2709 33.3305 30.1531 33.5714 31.0528C33.5815 31.086 33.604 31.1141 33.6342 31.1312C33.6644 31.1482 33.7 31.153 33.7336 31.1445C33.7673 31.136 33.7964 31.1149 33.8149 31.0856C33.8333 31.0562 33.8398 31.0208 33.8329 30.9868C33.5039 29.4736 33.3874 28.3531 33.4499 28.0343C33.6619 28.4236 34.0527 30.0078 34.2499 30.8046C34.5327 31.9506 34.5379 31.9528 34.6249 31.9928C34.6643 32.0031 34.7056 32.0024 34.7447 31.9911C34.8697 31.9773 35.0867 30.4493 35.1812 30.3623C35.5164 31.0018 35.5232 33.9623 35.3529 34.1278C35.3194 34.1511 34.0029 34.9448 33.9169 34.9946C32.6939 33.8603 31.7124 31.8696 31.4507 31.1313C31.6794 31.3451 32.0394 31.7326 32.3447 32.0858C32.3652 32.1083 32.3927 32.1231 32.4227 32.128C32.4527 32.1329 32.4835 32.1274 32.5101 32.1126C32.5366 32.0978 32.5574 32.0745 32.569 32.0464C32.5807 32.0183 32.5825 31.9871 32.5742 31.9578H32.5744ZM33.6994 35.1618C33.5827 35.2393 33.4612 35.3211 33.3349 35.4073C33.3105 35.4239 33.2922 35.4481 33.2829 35.4761C33.2735 35.5041 33.2736 35.5344 33.2832 35.5623C33.2832 35.5651 33.3027 35.6191 33.3384 35.7148C33.3287 35.7211 32.8187 36.2816 32.4194 36.7243L29.9944 36.3743C30.9842 35.5243 32.3622 34.3576 32.7514 34.0656C33.0335 34.459 33.3509 34.826 33.6997 35.1618H33.6994ZM32.1994 37.6681C32.6437 37.7308 33.8509 37.9018 34.3799 37.9751C34.9277 39.0077 35.6035 39.9671 36.3912 40.8308L36.3459 42.1703C34.8843 40.7446 33.5001 39.2417 32.1992 37.6681H32.1994ZM34.7154 40.8931L33.8702 41.5268C33.9162 41.2468 34.0144 40.6668 34.0924 40.2343C34.2959 40.4518 34.5044 40.6723 34.7152 40.8926L34.7154 40.8931ZM32.1812 37.3931C32.4974 37.0403 33.2247 36.2358 33.4459 35.9911C33.6769 36.5669 33.9363 37.1309 34.2232 37.6811C33.6052 37.5946 32.5284 37.4421 32.1809 37.3928L32.1812 37.3931ZM32.2024 36.9658C32.0789 37.1024 31.9561 37.2396 31.8342 37.3776C31.7442 37.4826 31.6729 37.5656 33.2127 39.2776C33.4189 39.5068 33.6377 39.7456 33.8627 39.9891C33.7716 40.4902 33.6846 40.992 33.6017 41.4946C32.8809 40.5878 30.6479 37.5546 29.9799 36.6446L32.2024 36.9658ZM36.6164 42.1501L36.6519 41.1001C36.8229 41.2697 37.0007 41.4323 37.1849 41.5876L36.6164 42.1501ZM45.7087 38.6406C45.1194 43.2963 41.0637 43.3048 38.9202 42.3718C35.6814 40.9621 33.8437 36.3043 33.5737 35.5718C33.8987 35.3508 36.0122 34.1006 36.1367 34.0468C39.1817 38.2413 41.5317 38.9501 41.6309 38.9786C41.6653 38.9885 41.7023 38.9844 41.7336 38.9671C41.765 38.9498 41.7882 38.9207 41.7982 38.8863C41.8081 38.8519 41.804 38.8149 41.7867 38.7836C41.7694 38.7522 41.7403 38.729 41.7059 38.7191C41.3803 38.604 41.0688 38.4523 40.7774 38.2671C41.2332 37.7353 43.6699 35.1301 43.6954 35.1028C43.7115 35.0856 43.7228 35.0644 43.7282 35.0414C43.7336 35.0184 43.7329 34.9944 43.7262 34.9718C43.6632 34.7623 41.5297 32.3718 41.5302 32.3683C41.5554 31.8994 41.5369 31.4292 41.4749 30.9638C41.4726 30.9463 41.4668 30.9293 41.458 30.914C41.4491 30.8987 41.4373 30.8853 41.4232 30.8745C41.4092 30.8638 41.3931 30.8559 41.376 30.8513C41.3589 30.8467 41.3411 30.8456 41.3235 30.8479C41.306 30.8503 41.2891 30.856 41.2738 30.8649C41.2584 30.8738 41.245 30.8856 41.2343 30.8996C41.2235 30.9137 41.2156 30.9297 41.211 30.9468C41.2065 30.9639 41.2053 30.9818 41.2077 30.9993C41.2535 31.3651 41.2761 31.7334 41.2752 32.1021C40.3229 31.0601 39.4162 30.0936 39.3564 30.0521C39.3386 30.0405 39.3176 30.0347 39.2964 30.0353C39.2447 30.0353 39.1887 30.0353 38.7649 30.4146C38.5684 30.1603 38.2419 29.7588 38.0414 29.7396C37.7259 29.7088 35.8489 31.2896 35.6284 31.4688C35.5814 30.9593 35.4797 30.0048 35.2184 29.9688C34.8542 29.9188 34.6747 31.3563 34.6704 31.3773C34.6227 31.1911 34.5669 30.9648 34.5119 30.7421C33.8654 28.1231 33.6869 27.6983 33.4424 27.7041C33.1194 27.7118 33.1524 28.4736 33.2219 29.0631C32.8622 28.0518 32.7527 28.0676 32.6469 28.0588C32.3787 28.0366 32.2862 28.4018 32.5399 29.9521C32.1672 29.0836 32.0372 29.1021 31.9569 29.1103C31.4507 29.1623 32.0847 31.2581 32.1399 31.4503C31.4149 30.6581 31.2939 30.6903 31.2244 30.7103C30.8644 30.8131 32.0179 33.0853 32.5969 33.8471C32.2127 34.1343 31.1469 35.0363 30.3874 35.6836C30.6212 34.3543 30.8084 31.3586 30.8172 31.2171C30.8194 31.1813 30.8073 31.1462 30.7836 31.1193C30.7599 31.0925 30.7265 31.0762 30.6908 31.0739C30.6551 31.0717 30.6199 31.0838 30.5931 31.1075C30.5662 31.1312 30.5499 31.1646 30.5477 31.2003C30.5454 31.2386 30.3127 34.9673 30.0524 35.9701C29.8252 36.1646 29.6569 36.3093 29.5939 36.3633C29.5683 36.3855 29.5519 36.4165 29.548 36.4503C29.5442 36.484 29.5532 36.5179 29.5732 36.5453C29.5982 36.5781 29.7082 36.7296 29.8789 36.9618C27.4384 38.1513 24.2539 38.2036 22.4707 34.8381C20.7129 31.5216 20.5707 26.5561 20.5602 25.8341C21.5977 25.3323 22.9824 25.4901 23.3422 25.5413C23.5039 27.9843 24.2504 33.2083 26.6872 33.0076C29.5982 32.7673 28.8834 26.4936 33.2564 25.2431C33.3252 25.8681 33.7284 27.9931 35.9339 28.4221C38.2404 28.8721 39.2734 27.0708 39.4789 26.6786C40.8572 27.1626 42.1789 27.2103 42.9822 27.8816C45.3469 31.0106 46.2289 34.5298 45.7087 38.6393V38.6406ZM39.1622 30.4236C39.1387 31.3736 39.0507 34.7621 38.9402 36.8548C37.9591 35.9274 37.0724 34.905 36.2932 33.8026C36.2761 33.7788 36.2518 33.7613 36.2239 33.7526C36.1959 33.7439 36.166 33.7445 36.1384 33.7543C35.9771 33.8179 35.8198 33.891 35.6672 33.9733C35.676 33.9168 35.6837 33.8507 35.6902 33.7751C35.7027 33.7673 38.5859 30.9043 39.1622 30.4223V30.4236ZM38.0662 31.0646L38.1217 30.0956C38.2818 30.2505 38.4296 30.4177 38.5637 30.5956C38.3962 30.7497 38.2303 30.9056 38.0662 31.0633V31.0646ZM37.7802 31.3396C37.6324 31.4826 36.0089 33.0831 35.7099 33.3828C35.7152 33.1401 35.6722 32.0196 35.6552 31.7946C36.5119 31.0891 37.4509 30.3571 37.8512 30.1001L37.7802 31.3396ZM43.3227 35.1058C42.7354 35.7343 40.8794 37.7246 40.5454 38.1228C40.0706 37.8127 39.6202 37.4668 39.1979 37.0883C39.2299 36.5156 39.2604 35.8256 39.2879 35.1061C40.6325 35.0668 41.978 35.0663 43.3227 35.1046V35.1058ZM39.2977 34.8358C39.3627 33.0908 39.4112 31.2393 39.4297 30.5038C39.7952 30.8948 43.1002 34.5553 43.3184 34.8356C41.9786 34.7967 40.638 34.7963 39.2982 34.8346L39.2977 34.8358ZM47.7727 21.3358C46.5104 19.8716 44.4414 19.5426 42.7452 19.0648C41.6854 18.4273 41.4002 17.5693 40.7689 15.9853C40.0382 14.1521 38.8302 12.6383 37.1202 12.4926C36.0202 12.3996 34.7634 12.4541 33.7609 13.4606C33.7921 13.1912 33.9048 12.9377 34.084 12.7341C34.2631 12.5305 34.5002 12.3865 34.7634 12.3213C34.7804 12.3162 34.7962 12.3077 34.8099 12.2964C34.8236 12.2851 34.8349 12.2712 34.8432 12.2555C34.8515 12.2398 34.8566 12.2227 34.8581 12.205C34.8597 12.1873 34.8578 12.1695 34.8524 12.1526C34.8416 12.1185 34.8179 12.0901 34.7863 12.0734C34.7547 12.0568 34.7178 12.0532 34.6837 12.0636C34.3302 12.1584 34.019 12.3698 33.8007 12.6635C33.5823 12.9572 33.4694 13.316 33.4804 13.6818C33.1804 13.8681 32.2709 14.6983 32.3667 17.9208C32.3666 17.9239 32.366 17.9269 32.3647 17.9296C32.3634 17.9324 32.3615 17.9348 32.3592 17.9368C32.3269 17.9638 32.1709 18.0523 31.5214 18.0596C31.5007 18.06 31.4805 18.0652 31.4621 18.0747C31.4437 18.0842 31.4278 18.0978 31.4154 18.1143C31.403 18.1309 31.3946 18.1501 31.3908 18.1704C31.3869 18.1907 31.3877 18.2116 31.3932 18.2316C31.5667 18.6695 31.8615 19.0489 32.2432 19.3251C32.2443 19.3996 32.2396 19.4741 32.2289 19.5478C32.1022 19.5006 31.6669 19.4106 31.5267 19.6881C31.4032 19.9323 31.6537 20.1346 31.7407 20.1851C31.659 20.2513 31.6025 20.3435 31.5804 20.4463C31.5583 20.5491 31.572 20.6564 31.6192 20.7503C31.6674 20.8134 31.7338 20.8602 31.8094 20.8843C31.8851 20.9084 31.9663 20.9088 32.0422 20.8853C31.9817 21.8036 32.2057 22.8238 33.0607 23.1853C33.4774 23.3387 33.9295 23.3694 34.3632 23.2736C34.5767 23.7368 34.6615 24.249 34.6087 24.7563C31.0122 24.8313 29.7722 27.9416 29.0007 29.8188C28.3774 31.3338 27.8397 32.6438 26.6627 32.7403C26.473 32.7549 26.2824 32.7293 26.1033 32.6652C25.9242 32.6012 25.7606 32.5001 25.6232 32.3686C23.9029 30.8651 23.6057 25.4726 23.6029 25.4186C23.601 25.3879 23.5887 25.3589 23.5681 25.3362C23.5474 25.3135 23.5197 25.2984 23.4894 25.2936C23.2747 25.2587 23.0583 25.2353 22.8412 25.2233C22.7507 24.5136 22.8022 24.4431 22.9869 24.0821C23.1633 23.8145 23.2427 23.4946 23.2119 23.1756C23.5552 23.2242 23.9009 23.2546 24.2474 23.2666C24.3367 23.2688 24.3497 23.1808 24.3534 23.1653C24.6834 21.7763 25.2967 17.3591 25.3009 17.3153C25.3079 17.2858 25.3036 17.2546 25.2887 17.2281C25.2738 17.2016 25.2495 17.1817 25.2207 17.1723C21.3547 15.5901 16.5579 15.4883 16.5094 15.4881C16.4791 15.488 16.4496 15.4981 16.4258 15.5168C16.402 15.5356 16.3852 15.5618 16.3782 15.5913C15.8014 17.9521 15.2847 21.2081 15.2807 21.2413C15.2732 21.2729 15.2785 21.3062 15.2954 21.334C15.3122 21.3617 15.3394 21.3817 15.3709 21.3896C15.8129 21.5396 16.6157 21.7661 16.8922 21.8436C16.8229 22.7953 18.8619 23.4423 19.0702 23.5118C19.6592 23.7101 20.6452 24.0406 20.9084 24.4306C21.0867 24.7122 21.1622 25.0467 21.1222 25.3776C20.8615 25.4361 20.6071 25.5198 20.3627 25.6276C20.3398 25.6386 20.3205 25.6558 20.307 25.6773C20.2935 25.6988 20.2864 25.7237 20.2864 25.7491C20.2864 25.8051 20.2059 31.3991 22.2292 34.9681C24.7629 39.4388 28.6084 37.8653 29.9109 37.2481C29.7129 38.7141 29.3917 40.1609 28.9509 41.5731C28.943 41.5957 28.9413 41.6199 28.946 41.6434C28.9507 41.6669 28.9615 41.6887 28.9774 41.7066C28.9997 41.7316 31.2434 44.2703 35.4732 44.4816C39.4287 44.6786 41.3519 43.2956 41.5529 43.1263C44.8992 42.8711 45.7574 40.3601 45.9747 38.6798C46.5109 34.5326 45.6197 30.9723 43.2542 27.8033C44.0574 27.5336 46.4637 26.5866 48.0724 24.4981C48.1255 24.429 48.164 24.3498 48.1854 24.2654C48.2069 24.181 48.211 24.0931 48.1974 24.0071C48.0772 23.2656 47.5724 21.2151 45.5652 20.1783C46.3299 20.4562 47.016 20.9149 47.5652 21.5153C48.3572 22.4346 48.4777 23.7716 48.4787 23.7851C48.4805 23.803 48.4859 23.8203 48.4944 23.8362C48.503 23.852 48.5145 23.866 48.5285 23.8774C48.5425 23.8888 48.5585 23.8973 48.5758 23.9024C48.593 23.9076 48.6111 23.9093 48.629 23.9074C48.6469 23.9056 48.6643 23.9002 48.6802 23.8917C48.696 23.8831 48.71 23.8716 48.7214 23.8576C48.7327 23.8436 48.7412 23.8276 48.7464 23.8103C48.7515 23.7931 48.7533 23.775 48.7514 23.7571C48.6598 22.8732 48.3207 22.033 47.7729 21.3333L47.7727 21.3358ZM36.7132 16.0108C36.7012 16.0446 36.6764 16.0723 36.6442 16.0881C36.612 16.1038 36.5749 16.1063 36.5409 16.0951C35.1804 15.6268 34.4047 14.0646 34.3724 13.9978C34.3568 13.9657 34.3545 13.9287 34.3661 13.895C34.3778 13.8612 34.4023 13.8335 34.4344 13.8178C34.4665 13.8022 34.5035 13.7999 34.5373 13.8115C34.571 13.8232 34.5988 13.8477 34.6144 13.8798C34.6219 13.8948 35.3754 15.4091 36.6287 15.8393C36.6622 15.8509 36.6899 15.8752 36.7057 15.907C36.7216 15.9388 36.7243 15.9755 36.7134 16.0093L36.7132 16.0108ZM42.9934 25.6823C42.9763 25.6869 42.9584 25.6881 42.9408 25.6857C42.9232 25.6834 42.9063 25.6775 42.8909 25.6685C42.8756 25.6595 42.8623 25.6476 42.8516 25.6334C42.841 25.6192 42.8332 25.603 42.8289 25.5858C42.5659 24.5803 41.2737 24.0713 40.2789 23.7526C38.8149 23.2828 38.0497 22.3103 37.9309 20.8073C37.7617 18.6686 37.2704 18.2658 37.2659 18.2631C37.2502 18.2539 37.2365 18.2418 37.2256 18.2272C37.2147 18.2127 37.2069 18.1961 37.2025 18.1784C37.1982 18.1608 37.1975 18.1425 37.2004 18.1245C37.2033 18.1066 37.2099 18.0895 37.2196 18.0741C37.2293 18.0587 37.242 18.0455 37.2569 18.0352C37.2719 18.0249 37.2888 18.0177 37.3066 18.014C37.3244 18.0104 37.3427 18.0104 37.3605 18.014C37.3783 18.0176 37.3952 18.0248 37.4102 18.0351C37.4717 18.0741 38.0172 18.4831 38.2002 20.7851C38.3107 22.1868 39.0002 23.0443 40.3627 23.4948C41.4377 23.8498 42.7877 24.3676 43.0892 25.5171C43.0981 25.5514 43.0931 25.5879 43.0752 25.6186C43.0573 25.6493 43.028 25.6716 42.9937 25.6808L42.9934 25.6823ZM46.7562 23.3363C46.7642 23.3525 46.769 23.3702 46.7701 23.3883C46.7712 23.4064 46.7686 23.4245 46.7626 23.4416C46.7566 23.4587 46.7471 23.4743 46.7349 23.4877C46.7227 23.5011 46.7079 23.5118 46.6914 23.5193C46.6749 23.5269 46.6571 23.531 46.6389 23.5315C46.6208 23.532 46.6028 23.5288 46.5859 23.5222C46.5691 23.5155 46.5537 23.5056 46.5408 23.4929C46.5279 23.4802 46.5176 23.465 46.5107 23.4483C46.1719 22.7036 45.6559 21.9636 43.0974 21.0913C40.7682 20.2976 40.2582 19.0698 39.3334 16.8413C38.3774 14.5413 36.6817 14.0318 36.6649 14.0271C36.6305 14.0171 36.6014 13.9939 36.5841 13.9625C36.5667 13.9311 36.5626 13.8941 36.5725 13.8597C36.5825 13.8252 36.6057 13.7962 36.6371 13.7788C36.6685 13.7615 36.7055 13.7574 36.7399 13.7673C36.8149 13.7891 38.5779 14.3173 39.5829 16.7376C40.4782 18.8941 40.9712 20.0818 43.1852 20.8361C45.8449 21.7416 46.3922 22.5348 46.7564 23.3348L46.7562 23.3363Z" fill="#414141"/>
<path d="M30.4912 19.7908C28.3057 19.507 27.9142 17.2988 26.9532 14.683C25.8849 11.7765 24.1349 11.2885 24.1174 11.283C24.0841 11.2729 24.0559 11.2504 24.0388 11.22C24.0218 11.1897 24.0171 11.1539 24.0257 11.1201C24.0344 11.0864 24.0558 11.0573 24.0854 11.039C24.1151 11.0207 24.1506 11.0145 24.1847 11.0218C24.2617 11.0415 26.0847 11.5383 27.2064 14.5893C28.0884 16.9893 28.4964 19.259 30.5259 19.5225C30.5614 19.5271 30.5936 19.5456 30.6154 19.574C30.6372 19.6023 30.6469 19.6382 30.6423 19.6737C30.6377 19.7091 30.6192 19.7413 30.5908 19.7631C30.5625 19.785 30.5267 19.7946 30.4912 19.79V19.7908Z" fill="#414141"/>
<path d="M26.3254 19.5845C26.3132 19.5716 26.3036 19.5563 26.2974 19.5397C26.2912 19.523 26.2884 19.5052 26.2892 19.4875C26.29 19.4697 26.2944 19.4522 26.302 19.4362C26.3097 19.4201 26.3206 19.4058 26.3339 19.394C26.3469 19.382 26.3622 19.3727 26.3789 19.3667C26.3955 19.3606 26.4132 19.3579 26.4309 19.3586C26.4485 19.3594 26.4659 19.3637 26.482 19.3711C26.498 19.3786 26.5124 19.3892 26.5244 19.4023C26.5414 19.4208 28.2626 21.255 30.6569 20.4568C30.6905 20.4465 30.7269 20.4498 30.7581 20.466C30.7894 20.4821 30.8131 20.5098 30.8242 20.5432C30.8354 20.5765 30.833 20.6129 30.8178 20.6446C30.8025 20.6763 30.7754 20.7007 30.7424 20.7128C29.9745 20.9587 29.1529 20.9834 28.3716 20.7838C27.5904 20.5843 26.8812 20.1686 26.3254 19.5845Z" fill="#414141"/>
<path d="M25.9124 23.5471C25.9684 23.4643 27.3184 21.5221 30.6081 21.5221C30.6263 21.5213 30.6445 21.5242 30.6616 21.5306C30.6786 21.5371 30.6942 21.5469 30.7073 21.5595C30.7205 21.5721 30.731 21.5872 30.7381 21.604C30.7453 21.6207 30.749 21.6388 30.749 21.657C30.749 21.6752 30.7453 21.6932 30.7381 21.71C30.731 21.7267 30.7205 21.7419 30.7073 21.7545C30.6942 21.7671 30.6786 21.7769 30.6616 21.7833C30.6445 21.7897 30.6263 21.7926 30.6081 21.7918C28.9671 21.7918 27.0906 22.4278 26.1359 23.6973C26.1149 23.7242 26.0844 23.7422 26.0507 23.7475C26.017 23.7529 25.9825 23.7453 25.9542 23.7262C25.9259 23.7072 25.9058 23.6781 25.8981 23.6449C25.8903 23.6117 25.8954 23.5767 25.9124 23.5471Z" fill="#414141"/>
<path d="M33.6951 18.4619C33.6066 18.4619 33.1624 18.4074 33.1231 17.3414C33.122 17.3057 33.135 17.2709 33.1593 17.2448C33.1837 17.2186 33.2174 17.2031 33.2531 17.2017C33.2709 17.2009 33.2886 17.2037 33.3052 17.2098C33.3219 17.2159 33.3372 17.2253 33.3502 17.2374C33.3632 17.2495 33.3737 17.2641 33.381 17.2803C33.3883 17.2964 33.3924 17.3139 33.3929 17.3317C33.4064 17.6922 33.5179 18.1919 33.6951 18.1919C33.8846 18.1919 34.0391 17.7359 34.0841 17.4274C34.0905 17.3931 34.1099 17.3626 34.1382 17.3422C34.1666 17.3219 34.2017 17.3134 34.2363 17.3184C34.2708 17.3234 34.302 17.3416 34.3235 17.3691C34.3449 17.3967 34.3548 17.4315 34.3511 17.4662C34.3364 17.5679 34.1931 18.4619 33.6951 18.4619Z" fill="#414141"/>
<path d="M34.404 16.4633C34.384 16.4633 34.3641 16.4588 34.346 16.4501C34.3279 16.4415 34.3119 16.4289 34.2993 16.4133C34.1877 16.27 34.0248 16.1755 33.845 16.1498C33.6652 16.124 33.4824 16.1689 33.335 16.2751C33.3205 16.2852 33.3041 16.2924 33.2868 16.2962C33.2695 16.3 33.2516 16.3003 33.2342 16.2972C33.2168 16.2941 33.2001 16.2876 33.1852 16.2781C33.1703 16.2685 33.1574 16.2561 33.1473 16.2416C33.1371 16.2271 33.13 16.2107 33.1262 16.1934C33.1224 16.1761 33.122 16.1582 33.1251 16.1408C33.1283 16.1233 33.1348 16.1067 33.1443 16.0918C33.1539 16.0769 33.1662 16.064 33.1808 16.0538C33.3832 15.9065 33.6351 15.8438 33.883 15.8791C34.1309 15.9144 34.3552 16.0449 34.5085 16.2428C34.5247 16.2626 34.535 16.2866 34.5381 16.312C34.5412 16.3373 34.537 16.3631 34.526 16.3862C34.5151 16.4092 34.4978 16.4288 34.4762 16.4424C34.4546 16.4561 34.4296 16.4633 34.404 16.4633Z" fill="#414141"/>
<path d="M14.7213 28.2631C15.3322 28.1376 15.8951 27.8422 16.3455 27.4108C16.7958 26.9795 17.1152 26.4297 17.2668 25.8248C17.2762 25.7903 17.299 25.7609 17.3301 25.7431C17.3612 25.7254 17.398 25.7207 17.4326 25.7301C17.4671 25.7395 17.4965 25.7623 17.5143 25.7933C17.5321 25.8244 17.5367 25.8613 17.5273 25.8958C17.1913 27.1306 16.1738 28.3251 14.7523 28.5318C14.7167 28.536 14.6809 28.5257 14.6528 28.5034C14.6247 28.4812 14.6066 28.4486 14.6025 28.413C14.5983 28.3773 14.6086 28.3415 14.6309 28.3134C14.6531 28.2853 14.6857 28.2672 14.7213 28.2631Z" fill="#414141"/>
<path d="M15.7646 29.1618C15.7573 29.1268 15.7641 29.0903 15.7837 29.0603C15.8032 29.0304 15.8338 29.0094 15.8688 29.002C16.3615 28.8824 16.8022 28.6064 17.1248 28.2152C17.4474 27.8241 17.6346 27.339 17.6583 26.8325C17.6617 26.7975 17.6786 26.7651 17.7055 26.7423C17.7324 26.7195 17.7671 26.7082 17.8022 26.7107C17.8374 26.7131 17.8702 26.7293 17.8936 26.7556C17.917 26.7819 17.9292 26.8163 17.9276 26.8515C17.8936 27.4146 17.681 27.9523 17.3208 28.3864C16.9606 28.8206 16.4715 29.1287 15.9243 29.266C15.8893 29.2734 15.8528 29.2665 15.8229 29.247C15.7929 29.2274 15.772 29.1968 15.7646 29.1618Z" fill="#414141"/>
<path d="M15.5257 24.7397C14.8571 23.0176 14.0179 21.3668 13.0205 19.8119C13.0069 19.7845 12.9856 19.7617 12.9592 19.7462C12.9329 19.7307 12.9026 19.7232 12.872 19.7247C11.678 19.8939 7.91575 21.4672 5.4835 23.2747C5.45817 23.2926 5.43971 23.3187 5.43112 23.3485C5.42254 23.3784 5.42434 23.4102 5.43625 23.4389C6.2278 25.2284 7.11054 26.9761 8.081 28.6752C8.106 28.7177 8.2285 28.7387 8.24425 28.7339C9.44425 28.3817 15.1235 25.1454 15.3205 25.0339C15.46 24.9562 15.5625 24.8367 15.5257 24.7397ZM10.968 24.8074C11.1842 24.7174 11.4602 24.1712 11.75 23.4902C12.9007 23.8712 14.0277 24.3204 15.125 24.8354C14.1543 25.3962 10.255 27.6284 8.406 28.3809C8.68167 27.1231 9.03629 25.8839 9.46775 24.6707C9.96275 24.7807 10.6897 24.9232 10.9682 24.8074H10.968ZM11.854 23.2399C12.288 22.1752 12.7197 20.8504 12.929 20.1862C13.3632 20.9197 14.6027 23.0612 15.1767 24.5612C14.0959 24.0565 12.9865 23.6153 11.8542 23.2399H11.854ZM12.6962 20.0282C12.3828 21.0262 11.258 24.4692 10.8462 24.5659C10.144 24.7322 6.91475 23.7002 5.85075 23.3527C6.75075 22.7557 10.2737 20.4927 12.6965 20.0282H12.6962ZM5.81075 23.6232C6.4645 23.8369 7.9715 24.3164 9.20225 24.6094C8.77911 25.8042 8.42987 27.0238 8.1565 28.2614C7.7595 27.5572 6.6895 25.6147 5.81075 23.6232Z" fill="#414141"/>
<path d="M15.1067 11.6212C15.0832 11.4407 14.9355 11.3864 14.7222 11.2737C14.075 10.9314 11.862 9.79867 7.60674 8.82942C7.57615 8.82271 7.54419 8.82688 7.51635 8.84121C7.48851 8.85554 7.46655 8.87913 7.45424 8.90792C7.23749 9.41167 5.82749 12.9464 5.60249 14.3232C5.59349 14.3782 5.55249 14.4504 5.60249 14.4842C6.03149 14.7684 12.891 16.7789 13.0715 16.8324C13.1862 16.8664 13.3635 16.9719 13.475 16.8824C13.547 16.8234 15.1132 11.6704 15.1067 11.6212ZM13.3937 16.3537C13.0523 15.1979 12.6498 14.0611 12.188 12.9479C12.2307 12.9317 14.0597 12.2027 14.7832 11.8434C14.5382 12.6872 13.8292 15.1062 13.3937 16.3537ZM10.311 13.4892C10.4182 13.5337 10.8715 13.4354 11.9345 13.0427C12.4138 14.1994 12.8299 15.3813 13.181 16.5832C12.1932 16.2907 8.35774 15.1497 6.03099 14.3779C7.15782 13.666 8.32429 13.0189 9.52474 12.4397C10.1695 13.4344 10.253 13.4652 10.311 13.4892ZM14.7157 11.5749C13.3157 12.2797 10.7657 13.2249 10.41 13.2332C10.1545 12.9914 8.71324 10.6604 7.80624 9.15117C8.78299 9.38092 12.335 10.2689 14.7157 11.5749ZM7.58099 9.29992C7.75599 9.59092 9.21399 11.9549 9.37699 12.2097C8.19484 12.7824 7.0454 13.4203 5.93399 14.1204C6.378 12.4796 6.92816 10.8694 7.58099 9.29992Z" fill="#414141"/>
<path d="M17.342 11.2864C17.0627 11.2538 16.7938 11.1611 16.5537 11.0146C16.3137 10.8681 16.1082 10.6714 15.9515 10.4379C15.39 9.55386 15.711 8.35761 15.725 8.30711C15.7297 8.29004 15.7378 8.27407 15.7487 8.2601C15.7595 8.24613 15.7731 8.23444 15.7885 8.2257C15.8039 8.21696 15.8209 8.21134 15.8384 8.20916C15.856 8.20698 15.8738 8.20828 15.8909 8.21299C15.908 8.2177 15.924 8.22573 15.9379 8.23661C15.9519 8.2475 15.9636 8.26103 15.9723 8.27643C15.9811 8.29184 15.9867 8.30881 15.9889 8.32638C15.9911 8.34396 15.9897 8.36179 15.985 8.37886C15.982 8.39011 15.6823 9.51236 16.18 10.2941C16.3171 10.495 16.4959 10.664 16.7044 10.7893C16.9128 10.9147 17.1458 10.9935 17.3875 11.0204C17.4055 11.0228 17.4227 11.0289 17.4382 11.0382C17.4538 11.0475 17.4673 11.0598 17.478 11.0743C17.4886 11.0889 17.4963 11.1055 17.5004 11.1231C17.5046 11.1408 17.5051 11.159 17.5021 11.1769C17.499 11.1947 17.4924 11.2117 17.4827 11.2269C17.4729 11.2422 17.4602 11.2553 17.4453 11.2655C17.4303 11.2757 17.4135 11.2828 17.3958 11.2864C17.378 11.29 17.3598 11.29 17.342 11.2864Z" fill="#414141"/>
<path d="M17.5369 10.7612C16.6301 10.4272 16.5846 9.41949 16.6869 8.93349C16.6899 8.91555 16.6965 8.89839 16.7063 8.88306C16.7161 8.86773 16.7289 8.85455 16.7439 8.84429C16.759 8.83403 16.7759 8.82692 16.7938 8.82338C16.8116 8.81984 16.83 8.81994 16.8478 8.82369C16.8656 8.82743 16.8825 8.83474 16.8974 8.84517C16.9123 8.85559 16.925 8.86893 16.9346 8.88437C16.9442 8.89981 16.9506 8.91704 16.9534 8.93502C16.9562 8.953 16.9554 8.97136 16.9509 8.98899C16.9135 9.20393 16.912 9.42356 16.9464 9.63899C16.9673 9.83322 17.0425 10.0176 17.1634 10.1711C17.2842 10.3246 17.4458 10.441 17.6296 10.507C17.6463 10.5131 17.6617 10.5224 17.6748 10.5344C17.6879 10.5464 17.6984 10.5609 17.7059 10.577C17.7134 10.5931 17.7177 10.6106 17.7185 10.6283C17.7192 10.6461 17.7165 10.6638 17.7104 10.6805C17.7043 10.6972 17.695 10.7125 17.683 10.7256C17.671 10.7387 17.6565 10.7493 17.6404 10.7568C17.6243 10.7643 17.6068 10.7686 17.5891 10.7693C17.5713 10.7701 17.5536 10.7673 17.5369 10.7612Z" fill="#414141"/>
<path d="M1.2732 12.9422C1.26342 12.9272 1.25682 12.9104 1.25381 12.8928C1.2508 12.8751 1.25145 12.8571 1.25572 12.8397C1.25999 12.8223 1.26778 12.806 1.27861 12.7918C1.28945 12.7776 1.3031 12.7657 1.3187 12.757C1.34956 12.7396 1.38587 12.7346 1.42027 12.743C1.45467 12.7514 1.48459 12.7726 1.50395 12.8022C2.45871 14.1137 3.59221 13.5845 4.11596 13.2307C4.13059 13.2198 4.14729 13.212 4.16505 13.2077C4.1828 13.2035 4.20124 13.2029 4.21923 13.2059C4.23723 13.209 4.25441 13.2157 4.26973 13.2256C4.28506 13.2356 4.29821 13.2485 4.30838 13.2637C4.31856 13.2788 4.32554 13.2959 4.32892 13.3138C4.3323 13.3318 4.33199 13.3502 4.32802 13.368C4.32406 13.3859 4.31651 13.4027 4.30584 13.4175C4.29517 13.4323 4.2816 13.4448 4.26596 13.4542C3.81346 13.7605 2.45421 14.4777 1.2732 12.9422Z" fill="#414141"/>
<path d="M3.42553 13.1448C3.21584 13.1485 3.00907 13.0953 2.82715 12.991C2.64524 12.8866 2.49497 12.7349 2.39228 12.5521C2.37571 12.5203 2.37243 12.4833 2.38316 12.4491C2.3939 12.4149 2.41777 12.3864 2.44953 12.3698C2.48129 12.3532 2.51834 12.35 2.55251 12.3607C2.58669 12.3714 2.61521 12.3953 2.63178 12.4271C2.64803 12.4581 3.03028 13.1541 3.98728 12.7473C4.00358 12.7404 4.02109 12.7367 4.0388 12.7366C4.05651 12.7364 4.07408 12.7397 4.0905 12.7464C4.10693 12.753 4.12188 12.7628 4.13452 12.7752C4.14716 12.7876 4.15723 12.8024 4.16416 12.8187C4.17108 12.835 4.17473 12.8525 4.1749 12.8702C4.17506 12.8879 4.17173 12.9055 4.1651 12.9219C4.15847 12.9383 4.14868 12.9533 4.13627 12.9659C4.12386 12.9786 4.10908 12.9886 4.09278 12.9956C3.88274 13.0899 3.65575 13.1407 3.42553 13.1448Z" fill="#414141"/>
<path d="M20.391 19.2362C20.6092 19.2362 21.503 18.2472 21.271 17.9612C21.039 17.6752 20.5547 18.5069 20.5547 18.5069C20.5547 18.5069 20.4182 17.6952 20.0567 17.8044C19.7795 17.8874 20.2 19.2359 20.391 19.2362Z" fill="#87E4FF"/>
<path d="M10.6361 12.7012C10.7639 12.7512 11.8129 11.9762 11.5559 11.7284C11.3251 11.5057 10.9134 12.0444 10.9134 12.0444C10.9134 12.0444 10.9371 11.3644 10.6454 11.4104C10.3234 11.4612 10.4789 12.6392 10.6361 12.7012Z" fill="#87E4FF"/>
<path d="M10.4047 23.7999C10.5125 23.7661 10.6502 22.3749 10.3092 22.3749C10.036 22.3749 10.091 23.0571 10.091 23.0571C10.091 23.0571 9.59998 22.6749 9.39523 22.8174C9.19048 22.9599 10.166 23.8749 10.4047 23.7999Z" fill="#87E4FF"/>
<path d="M21.1448 8.23889C21.858 9.06114 23.0423 11.1751 23.0758 11.2421C22.292 11.0673 21.5214 10.8381 20.7695 10.5561C20.8513 9.77734 20.9766 9.00371 21.1448 8.23889Z" fill="#87E4FF"/>
<path d="M23.138 11.5283C22.3768 12.0424 21.5868 12.5124 20.7718 12.9361C20.514 13.0088 20.3968 12.6861 20.286 12.4773C19.9678 11.8696 19.0658 10.3753 18.811 10.0071C18.583 9.68005 18.7285 9.5618 18.8925 9.4613C19.0565 9.3608 20.8373 8.25805 20.8675 8.2478C20.412 10.5413 20.5013 10.6621 20.5395 10.7148C20.6983 10.9318 22.8088 11.4678 23.138 11.5283Z" fill="#87E4FF"/>
<path d="M3.77908 7.75125C3.68333 7.5915 3.47233 6.54525 3.29883 5.505C4.35836 6.19764 5.33418 7.01054 6.20683 7.9275C5.31233 7.92325 3.97683 7.85 3.77908 7.75125Z" fill="#87E4FF"/>
<path d="M6.23731 8.19382C6.21106 8.26882 4.92281 9.84382 4.82231 9.98007C4.72181 10.1163 4.52231 10.2256 4.18606 9.98007C3.84981 9.73457 1.87481 8.17907 1.65731 7.98832C1.43981 7.79757 1.42981 7.64082 1.55731 7.46082C1.70181 7.25707 2.95906 5.59482 3.03231 5.54907C3.18956 6.49907 3.43031 7.79907 3.59481 7.95107C3.79981 8.14207 5.40831 8.18932 6.23731 8.19382Z" fill="#87E4FF"/>
<path d="M2.95508 16.142C3.86883 16.301 6.64283 17.7447 6.69458 17.8055C5.54458 18.0705 4.41808 18.287 4.23533 18.2472C4.08483 18.1367 3.50108 17.1485 2.95508 16.142Z" fill="#FDAF31"/>
<path d="M5.81364 20.4483C5.72264 20.594 5.53164 20.7483 5.15864 20.594C4.78564 20.4398 2.15864 19.2208 1.88364 19.102C1.81558 19.0857 1.75245 19.0532 1.69956 19.0073C1.64667 18.9615 1.60557 18.9036 1.57972 18.8385C1.55387 18.7735 1.54402 18.7032 1.55101 18.6335C1.558 18.5639 1.58163 18.4969 1.61989 18.4383C1.70364 18.2575 2.61539 16.3445 2.70864 16.2588C3.15114 17.0778 3.88739 18.3733 4.11839 18.4923C4.36689 18.6203 5.97889 18.2493 6.81989 18.0538C6.85314 18.2203 5.90464 20.3028 5.81364 20.4483Z" fill="#FDAF31"/>
<path d="M33.9869 19.8712C33.9898 19.911 34.0038 19.9495 34.0282 19.9847C34.0526 20.0198 34.0869 20.0509 34.1291 20.0761C34.1713 20.1013 34.2205 20.1201 34.2741 20.1315C34.3276 20.1429 34.3844 20.1466 34.4411 20.1425C34.4979 20.1383 34.5535 20.1264 34.6048 20.1074C34.6561 20.0883 34.7021 20.0626 34.7402 20.0315C34.7783 20.0005 34.8077 19.9648 34.8267 19.9265C34.8457 19.8882 34.854 19.848 34.8511 19.8082C34.8482 19.7685 34.8342 19.7299 34.8098 19.6948C34.7854 19.6597 34.7511 19.6286 34.709 19.6034C34.6668 19.5782 34.6175 19.5594 34.564 19.548C34.5104 19.5366 34.4537 19.5329 34.3969 19.537C34.3402 19.5412 34.2846 19.5531 34.2332 19.5721C34.1819 19.5912 34.1359 19.6169 34.0978 19.648C34.0598 19.679 34.0304 19.7147 34.0113 19.753C33.9923 19.7913 33.984 19.8315 33.9869 19.8712Z" fill="#FDAF31"/>
</svg>
