<svg width="50" height="51" viewBox="0 0 50 51" fill="none" xmlns="http://www.w3.org/2000/svg">
<path d="M46.165 43.0231C46.054 41.6584 45.315 40.1731 45.1848 38.8331C44.955 36.6331 45.8348 34.6831 44.6683 32.5784C43.9559 31.3407 42.9511 30.2965 41.7418 29.5371C37.357 26.7139 30.0153 26.5621 24.828 27.0984C19.1175 27.6899 9.89828 28.8249 5.83953 32.8844C3.56453 35.1019 2.98953 38.5984 3.57603 41.7634C3.10524 42.6734 2.74156 43.6349 2.49228 44.6286C2.33928 45.2786 1.99503 46.5036 2.33928 47.1726L2.47328 47.3639C3.33403 52.1841 47.7483 46.0639 47.7483 46.0639L47.8055 46.0449C47.4948 44.9666 46.8703 43.9774 46.165 43.0231Z" fill="#7BD2FF"/>
<path d="M33.0691 13.4696C33.4839 14.0479 34.1441 14.5776 34.6799 15.0556C34.7955 14.4553 34.8805 13.8496 34.9346 13.2406C34.9204 12.9262 34.9461 12.6111 35.0111 12.3031C35.1969 11.7656 35.8724 11.6339 35.6611 10.9644C35.5115 10.611 35.2303 10.3298 34.8769 10.1801C34.1984 9.83906 33.4782 9.58834 32.7346 9.43439C32.1889 9.31439 31.1096 9.00939 30.5879 9.18264C31.7506 10.0544 32.1891 12.2431 33.0691 13.4696Z" fill="white"/>
<path d="M30.1126 39.2146C29.4431 39.4646 28.7376 40.7269 28.3911 41.3759C28.2581 41.6259 27.9761 42.1199 28.0851 42.4281C28.2061 42.7701 28.9458 41.9881 29.0601 41.8531C29.0793 41.8341 29.3471 41.5088 29.3471 41.6046C29.3471 41.9296 29.1423 42.3519 29.0601 42.6756C28.8818 43.3182 28.7791 43.9794 28.7541 44.6459C28.7503 44.9136 28.7136 45.5481 28.9453 45.6979C29.2571 45.8991 29.6758 43.9578 29.7486 43.5938C29.7988 43.3418 29.8626 43.0929 29.9398 42.8479C29.9383 43.0849 29.9191 43.3214 29.8826 43.5556C29.8042 44.1976 29.8106 44.847 29.9016 45.4874C29.9213 45.6211 29.9781 45.9656 30.1313 46.0038C30.2846 46.0421 30.3608 45.6404 30.3991 45.5256C30.5961 44.7869 30.7868 42.9626 30.8581 42.9626C30.9346 43.0391 30.8581 43.5376 30.8581 43.6321C30.8581 44.1676 30.7241 45.6978 31.2023 45.9656C31.4128 46.0993 31.5066 45.4679 31.5273 45.3344C31.6326 44.6634 31.7186 43.9954 31.7568 43.3259C31.7568 43.2304 31.7376 42.7139 31.8333 42.6374C31.9438 42.9691 31.9781 44.6841 32.4083 44.6841C32.9351 44.6841 32.6938 41.1236 32.9631 39.3284H32.8101C32.2166 39.4824 30.7438 39.3676 30.1126 39.2146Z" fill="white"/>
<path d="M18.3315 40.0188H18.1978C17.7195 40.1718 16.151 40.3438 15.4628 40.1911L15.4243 40.3248C15.3318 42.2015 14.5728 44.8498 15.0608 44.9538C15.4058 45.0265 15.7328 43.9026 15.8068 43.6538C15.8463 43.5203 15.8995 43.3853 15.9405 43.252C15.9573 43.1913 15.983 43.1333 16.017 43.0801C16.1033 43.1948 15.8098 44.232 15.7875 45.777C15.7858 45.9108 15.77 46.5458 15.998 46.4655C16.5175 46.2828 16.693 44.7421 16.7823 44.2276C16.799 44.1316 16.8205 43.6155 16.916 43.5583C16.945 43.992 16.836 44.7408 16.8588 46.1595C16.8605 46.2743 16.8778 46.6761 17.0308 46.6761C17.1838 46.6761 17.2988 46.3511 17.3558 46.2168C17.5691 45.6061 17.6978 44.969 17.7383 44.3233C17.7415 44.0918 17.7673 43.8613 17.8148 43.6348C17.834 43.6348 17.853 44.3616 17.853 44.4191C17.848 45.0076 17.8863 45.5956 17.968 46.1786C17.985 46.2938 18.043 46.7098 18.218 46.6378C18.464 46.5358 18.558 45.9103 18.6005 45.6431C18.702 44.9846 18.727 44.3165 18.675 43.6523C18.6515 43.3273 18.522 42.868 18.5985 42.543C18.6178 42.4283 18.828 42.8108 18.8473 42.8298C18.9428 42.9828 19.5125 43.8798 19.6888 43.5758C19.857 43.2866 19.6678 42.7538 19.5933 42.4855C19.3975 41.78 18.9628 40.4023 18.3315 40.0188Z" fill="white"/>
<path d="M39.3513 18.443C38.6818 17.563 37.7763 16.6615 36.7513 16.243C35.4993 15.7325 31.5378 15.807 31.2808 15.8412C31.3448 16.0023 31.3533 16.18 31.3048 16.3464C31.2563 16.5128 31.1536 16.6581 31.0131 16.7595C30.841 16.8704 30.6808 16.9985 30.5348 17.142C30.3246 17.3907 30.3491 17.757 30.1906 18.042C29.9316 18.506 29.0431 18.5392 28.6986 18.1377L28.6796 18.0802C29.5796 17.6978 30.3818 16.3587 29.5403 15.6127C29.4181 15.5083 29.2718 15.4362 29.1146 15.4028C28.9574 15.3693 28.7944 15.3758 28.6403 15.4215C28.5028 15.475 28.3737 15.548 28.2571 15.6382C28.2321 15.2475 28.1821 14.7077 28.1821 14.5417C27.6273 14.6372 27.0916 14.3885 26.5571 14.0442C26.3276 13.8912 25.9821 13.4387 25.6963 13.4132C25.5238 13.3977 25.4478 13.9295 25.3713 14.0252C25.0651 14.5032 24.4341 14.0825 24.1278 13.8147C23.539 13.1961 23.1292 12.4293 22.9421 11.596C20.0671 11.596 18.8278 13.833 19.0783 16.3397C19.1006 16.4597 19.1133 16.581 19.1166 16.703C19.1166 16.603 18.3473 16.357 17.8916 16.9135C17.3056 17.6305 17.9298 18.5775 18.6951 18.9792C18.3633 19.4765 16.8883 19.4722 16.5528 18.5775C16.3998 18.1567 16.5718 17.7167 16.4571 17.2775C16.3233 16.8182 15.8003 16.6867 15.9026 16.1297C15.9645 15.8988 16.075 15.6838 16.2268 15.499C16.3785 15.3143 16.568 15.1641 16.7826 15.0585C17.0501 14.9055 17.3826 14.8145 17.5666 14.561C17.9231 14.0727 17.9108 13.336 18.1596 12.8015C18.7316 11.53 20.0971 10.2177 21.4311 9.888C21.9061 9.1 23.8343 8.363 24.4718 8.17125C24.8611 8.05132 25.2582 7.95819 25.6603 7.8925C25.5456 7.663 24.7203 7.5225 24.5288 7.465C22.9882 7.13686 21.3976 7.12012 19.8504 7.41576C18.3033 7.7114 16.8309 8.31345 15.5198 9.1865C14.6401 9.7615 13.8748 10.5062 12.9948 11.0615C12.0576 11.6545 10.9573 11.4265 9.9728 11.8457C9.77398 11.9254 9.59216 12.0423 9.43705 12.19C8.4233 13.2037 9.34155 14.3322 10.1448 15.193C9.6488 15.827 9.83155 18.5468 9.8888 19.3477C9.5663 19.526 8.3263 20.7815 7.5808 22.3067C5.9558 25.4242 5.51505 29.4412 5.82105 32.9415C7.79105 30.9915 10.6603 29.8237 13.5868 29.0395C13.8203 27.077 14.5659 25.2103 15.7488 23.627C17.4796 21.3962 19.4183 20.8952 20.3968 20.527C20.9745 21.2143 21.7488 21.7083 22.6156 21.9425C22.6156 22.464 23.3106 23.1925 24.2606 23.2622C25.4466 23.3387 26.2106 22.497 26.2106 21.7122L26.1151 21.559C26.8786 21.1425 27.4738 20.4737 27.7988 19.667C28.2146 19.8755 30.1516 19.8875 32.4086 22.7465C33.3933 24.0431 34.0673 25.5484 34.3788 27.1465H34.3978C36.9758 27.5215 39.5911 28.1567 41.7818 29.567C41.7488 25.927 41.5488 21.283 39.3513 18.443Z" fill="white"/>
<path d="M33.8437 25.3468C33.4964 24.4197 33.0129 23.5494 32.4092 22.7648C30.2264 19.9398 28.1862 19.8786 27.7994 19.6853C27.4751 20.4926 26.8802 21.162 26.1164 21.5788L26.2119 21.7318C26.2119 22.4968 25.4464 23.3633 24.2619 23.2818C23.9256 23.2618 23.6004 23.1541 23.3186 22.9696C23.0367 22.7851 22.808 22.53 22.6552 22.2298C22.6169 22.1461 22.6036 22.0531 22.6169 21.9621C21.9041 21.7739 21.2519 21.405 20.7234 20.8911C20.6077 20.7773 20.5129 20.6616 20.3984 20.5468L20.2454 20.6041C19.6954 20.6041 14.5417 22.2466 13.5892 29.0583C13.1617 32.1148 13.6072 36.2423 14.6412 39.0811C14.8254 39.5868 14.9334 40.1036 15.4637 40.2288C16.2734 40.4201 18.3327 40.1288 18.3327 39.9801C18.4284 39.7698 17.7214 37.6466 17.5867 36.1551C17.3587 33.6301 17.3764 30.5701 18.2562 28.0833C18.4784 28.1583 23.9489 26.8783 29.6944 26.8783L29.7327 26.8593C30.7272 29.4223 30.7022 32.6343 30.5359 35.2753C30.4567 36.5376 29.8474 38.6801 29.7899 39.1003C29.7899 39.2991 32.0282 39.5503 32.7357 39.3298C32.7739 39.3106 32.8124 39.2921 32.8504 39.2723C33.2157 39.0851 33.3299 38.5653 33.4624 38.2013C34.7924 34.5456 35.1249 28.7408 33.8437 25.3468Z" fill="#005BC3"/>
<path d="M26.7081 17.7555C26.7978 17.757 26.8867 17.7385 26.9683 17.7012C27.0499 17.6639 27.1221 17.6089 27.1798 17.5401C27.2374 17.4714 27.2789 17.3906 27.3012 17.3037C27.3236 17.2168 27.3263 17.126 27.3091 17.038C27.2921 16.9499 27.2556 16.8666 27.2023 16.7944C27.149 16.7222 27.0802 16.6628 27.001 16.6207C26.9218 16.5785 26.8341 16.5545 26.7445 16.5506C26.6548 16.5467 26.5654 16.5629 26.4828 16.598C26.3723 16.6448 26.2783 16.7235 26.2128 16.8241C26.1473 16.9247 26.1134 17.0425 26.1153 17.1625C26.1161 17.3195 26.1788 17.4698 26.2898 17.5808C26.4008 17.6919 26.5511 17.7546 26.7081 17.7555Z" fill="#FDAF31"/>
<path d="M20.9895 18.2897C21.1515 18.2886 21.3066 18.2237 21.4211 18.1091C21.5357 17.9944 21.6005 17.8393 21.6015 17.6772C21.6025 17.5966 21.5874 17.5165 21.557 17.4418C21.5266 17.3671 21.4816 17.2992 21.4245 17.2422C21.3675 17.1851 21.2996 17.1401 21.2249 17.1097C21.1502 17.0793 21.0701 17.0642 20.9895 17.0652C20.827 17.0652 20.6712 17.1298 20.5564 17.2446C20.4415 17.3595 20.377 17.5153 20.377 17.6777C20.377 17.8402 20.4415 17.996 20.5564 18.1108C20.6712 18.2257 20.827 18.2902 20.9895 18.2902V18.29V18.2897Z" fill="#FDAF31"/>
<path d="M19.2656 18.1738C19.0594 17.9605 18.7854 17.8256 18.4906 17.7923C18.4662 17.7884 18.4443 17.7752 18.4295 17.7555C18.4146 17.7358 18.4079 17.7111 18.4108 17.6865C18.4137 17.662 18.426 17.6396 18.4451 17.6239C18.4641 17.6082 18.4885 17.6005 18.5131 17.6023C18.8524 17.6412 19.1675 17.7971 19.4044 18.0431C19.42 18.0618 19.4278 18.0857 19.4264 18.11C19.4249 18.1342 19.4142 18.1571 19.3965 18.1737C19.3788 18.1904 19.3554 18.1997 19.3311 18.1997C19.3068 18.1998 19.2833 18.1905 19.2656 18.1738Z" fill="#313131"/>
<path d="M28.2408 17.0281C28.311 16.7014 28.7288 16.4589 28.9758 16.3829C29.0001 16.3754 29.0263 16.3779 29.0487 16.3898C29.0712 16.4017 29.088 16.422 29.0954 16.4463C29.1029 16.4705 29.1004 16.4968 29.0885 16.5192C29.0766 16.5416 29.0563 16.5584 29.032 16.5659C28.809 16.6344 28.4753 16.8471 28.428 17.0681C28.4207 17.0908 28.4052 17.1099 28.3846 17.1218C28.364 17.1337 28.3397 17.1375 28.3164 17.1326C28.2931 17.1276 28.2725 17.1142 28.2585 17.0949C28.2446 17.0756 28.2382 17.0518 28.2408 17.0281Z" fill="#313131"/>
<path d="M19.7181 14.2262C20.0543 13.5959 21.0851 12.9459 21.8098 13.0872C21.8221 13.0895 21.8339 13.0943 21.8444 13.1012C21.8548 13.1082 21.8638 13.1171 21.8709 13.1275C21.8779 13.1379 21.8828 13.1496 21.8853 13.1619C21.8879 13.1742 21.8879 13.1868 21.8856 13.1992C21.8832 13.2115 21.8784 13.2232 21.8715 13.2337C21.8646 13.2442 21.8556 13.2532 21.8452 13.2602C21.8348 13.2673 21.8232 13.2722 21.8109 13.2747C21.7986 13.2772 21.7859 13.2773 21.7736 13.2749C21.1518 13.1544 20.1841 13.7592 19.8868 14.3162C19.8742 14.3372 19.8539 14.3526 19.8303 14.3591C19.8066 14.3657 19.7813 14.3629 19.7597 14.3513C19.738 14.3398 19.7216 14.3203 19.7139 14.2971C19.7061 14.2738 19.7076 14.2484 19.7181 14.2262Z" fill="#313131"/>
<path d="M20.6289 16.422C20.4521 16.4226 20.276 16.3998 20.1052 16.3542C20.0389 16.3425 19.8622 16.3042 19.8302 16.2262C19.8213 16.2056 19.8198 16.1825 19.826 16.161C19.8322 16.1394 19.8457 16.1206 19.8642 16.1079C19.8826 16.0951 19.9049 16.0891 19.9273 16.0909C19.9497 16.0927 19.9707 16.1022 19.9869 16.1177C20.2437 16.2126 20.5185 16.2489 20.7912 16.224C21.3034 16.174 21.6472 15.8572 22.0054 15.399C22.0218 15.3814 22.0442 15.3706 22.0681 15.3687C22.0921 15.3668 22.1159 15.374 22.1347 15.3889C22.1536 15.4038 22.1662 15.4252 22.1701 15.4489C22.1739 15.4726 22.1687 15.4969 22.1554 15.517C21.7299 16.0627 21.3182 16.422 20.6289 16.422Z" fill="#313131"/>
<path d="M25.4627 15.0507C25.4501 15.0296 25.4462 15.0045 25.4516 14.9806C25.457 14.9567 25.4714 14.9358 25.4918 14.9221C25.5122 14.9085 25.537 14.9032 25.5612 14.9074C25.5853 14.9115 25.607 14.9248 25.6217 14.9444C25.6634 15.0074 25.7107 15.0667 25.7629 15.1212C26.0091 15.3243 26.3044 15.4592 26.6192 15.5124C26.9339 15.5656 27.2571 15.5352 27.5564 15.4242C27.5802 15.4156 27.6065 15.4168 27.6294 15.4276C27.6524 15.4384 27.6701 15.4578 27.6787 15.4817C27.6872 15.5055 27.686 15.5318 27.6752 15.5547C27.6644 15.5776 27.645 15.5953 27.6212 15.6039C26.7434 15.9212 25.8184 15.5852 25.4627 15.0507Z" fill="#313131"/>
<path d="M23.7643 17.8796C23.7273 17.5636 23.643 16.0211 23.5918 15.2351C23.5921 15.211 23.6015 15.1878 23.6182 15.1703C23.6348 15.1528 23.6574 15.1422 23.6815 15.1406C23.7056 15.139 23.7294 15.1466 23.7482 15.1618C23.767 15.177 23.7793 15.1987 23.7828 15.2226C23.8018 15.5161 23.929 17.6431 23.9543 17.8571C23.9562 17.8817 23.9484 17.9061 23.9327 17.9252C23.9171 17.9443 23.8946 17.9565 23.8701 17.9594C23.8456 17.9623 23.8209 17.9556 23.8012 17.9408C23.7814 17.9259 23.7682 17.904 23.7643 17.8796Z" fill="#313131"/>
<path d="M24.0337 19.4782C23.6654 19.4782 22.9939 19.2982 22.7977 19.1032C22.7797 19.0853 22.7696 19.061 22.7695 19.0356C22.7695 19.0102 22.7795 18.9859 22.7974 18.9679C22.8153 18.95 22.8396 18.9398 22.865 18.9398C22.8904 18.9397 22.9147 18.9498 22.9327 18.9677C22.9592 18.9852 22.9852 19.0047 23.0094 19.0254C23.0707 19.0479 23.1294 19.0759 23.1859 19.1089C23.3724 19.1789 23.5649 19.2314 23.7609 19.2664C24.0459 19.3077 24.3365 19.2831 24.6105 19.1946C24.8846 19.1061 25.1347 18.9561 25.3417 18.7559C25.3602 18.7397 25.3843 18.7312 25.409 18.7323C25.4336 18.7334 25.4569 18.7439 25.474 18.7617C25.491 18.7796 25.5005 18.8033 25.5005 18.828C25.5005 18.8526 25.491 18.8764 25.4739 18.8942C25.0864 19.266 24.571 19.475 24.0339 19.4782H24.0337Z" fill="#313131"/>
<path d="M22.8657 19.1322C22.8412 19.1313 22.8179 19.1209 22.8008 19.1034C22.7837 19.0858 22.774 19.0623 22.7737 19.0377C22.7734 19.0132 22.7826 18.9895 22.7993 18.9715C22.816 18.9535 22.8389 18.9427 22.8634 18.9412C22.889 18.9411 22.9136 18.951 22.9319 18.9689C22.9502 18.9867 22.9607 19.011 22.9613 19.0366C22.9613 19.0619 22.9512 19.0862 22.9333 19.1042C22.9154 19.1221 22.8911 19.1322 22.8657 19.1322Z" fill="#313131"/>
<path d="M10.6221 15.8415C10.5508 15.8415 10.5886 15.831 10.2271 15.4432C9.23109 14.375 8.26759 13.2025 9.34959 12.1207C9.82759 11.6422 10.6496 11.517 11.3101 11.4342C12.5646 11.2762 12.7063 11.2107 14.1778 10.0475C14.5838 9.72649 15.0028 9.39449 15.4473 9.10499C16.7967 8.20814 18.3144 7.59529 19.9082 7.30376C21.502 7.01223 23.1384 7.04812 24.7178 7.40924C25.1601 7.50499 25.6016 7.61724 25.7213 7.83924C25.7329 7.86035 25.7361 7.88508 25.7302 7.90843C25.7242 7.93177 25.7096 7.95199 25.6893 7.96499C25.6692 7.97817 25.6448 7.98331 25.6211 7.97937C25.5973 7.97544 25.5759 7.96272 25.5611 7.94374C25.5509 7.9339 25.5432 7.92183 25.5386 7.90849C25.4168 7.75649 24.9026 7.64499 24.6773 7.59624C23.3105 7.27434 21.8956 7.20966 20.5051 7.40549C18.7337 7.63797 17.0393 8.27406 15.5526 9.26474C15.1153 9.54974 14.6991 9.87899 14.2963 10.1975C12.8198 11.365 12.6443 11.4592 11.3341 11.624C10.7341 11.699 9.92759 11.8127 9.48409 12.256C8.50909 13.231 9.42684 14.306 10.3666 15.3127C10.4891 15.444 10.6043 15.568 10.6971 15.6877C10.7078 15.7019 10.7144 15.7187 10.7162 15.7363C10.7179 15.754 10.7147 15.7718 10.707 15.7877C10.6992 15.8037 10.6871 15.8171 10.6721 15.8266C10.6572 15.8361 10.6398 15.8413 10.6221 15.8415Z" fill="#313131"/>
<path d="M11.6537 27.983C11.4399 27.6622 11.4967 27.2915 11.5519 26.933C11.6469 26.3147 11.6552 26.1727 11.1019 25.048C10.1319 23.077 9.89442 20.7717 9.74467 18.6395C9.60692 16.677 9.86817 14.93 10.1897 15.1435C10.2002 15.1504 10.2092 15.1593 10.2162 15.1697C10.2232 15.1801 10.2281 15.1919 10.2306 15.2042C10.233 15.2165 10.233 15.2292 10.2306 15.2415C10.2281 15.2538 10.2232 15.2655 10.2162 15.276C9.63767 16.1442 9.99467 19.833 10.1639 20.9325C10.2948 22.0279 10.5432 23.106 10.9049 24.1482C11.0136 24.4259 11.1364 24.6979 11.2727 24.9632C11.8507 26.1365 11.8402 26.3162 11.7409 26.962C11.6892 27.2992 11.6409 27.6175 11.8122 27.8755C12.2322 28.4882 13.0622 28.4082 13.6557 28.0755C13.6777 28.0644 13.7031 28.0622 13.7267 28.0694C13.7502 28.0766 13.7701 28.0926 13.7822 28.1141C13.7942 28.1355 13.7976 28.1608 13.7915 28.1847C13.7854 28.2086 13.7703 28.2292 13.7494 28.2422C13.0459 28.6372 12.1249 28.671 11.6537 27.9827V27.983Z" fill="#313131"/>
<path d="M34.6101 14.9068C34.7276 14.2681 34.8061 13.623 34.8451 12.9748C34.8488 12.3033 34.9181 12.1498 35.2968 11.7668C35.5186 11.5418 35.6938 11.3668 35.5698 10.994C35.5035 10.8258 35.4039 10.6728 35.277 10.5439C35.1502 10.415 34.9987 10.3131 34.8316 10.244C34.0662 9.86662 33.2533 9.59417 32.4151 9.43403C31.904 9.27295 31.369 9.20107 30.8336 9.22153C30.8088 9.22414 30.784 9.21694 30.7646 9.20146C30.7451 9.18599 30.7324 9.16348 30.7293 9.13878C30.7261 9.11415 30.7325 9.08921 30.7473 9.06925C30.7621 9.04928 30.7841 9.03584 30.8086 9.03178C31.3678 9.00706 31.927 9.08042 32.4608 9.24853C33.3143 9.40993 34.1415 9.68751 34.9196 10.0735C35.1091 10.1535 35.2806 10.271 35.4235 10.4189C35.5665 10.5668 35.6781 10.7421 35.7516 10.9343C35.9118 11.415 35.6571 11.6725 35.4323 11.8993C34.8103 12.5273 35.2556 12.2815 34.7978 14.9375C34.7919 14.9606 34.7776 14.9806 34.7576 14.9937C34.7377 15.0067 34.7136 15.0118 34.69 15.008C34.6665 15.0042 34.6453 14.9917 34.6305 14.973C34.6157 14.9543 34.6084 14.9308 34.6101 14.907V14.9068Z" fill="#313131"/>
<path d="M34.4113 25.3469C34.2405 25.3294 34.0408 25.5116 33.8233 25.4154C33.8067 25.4072 33.7928 25.3945 33.7832 25.3786C33.7737 25.3628 33.769 25.3445 33.7696 25.326C33.7702 25.3075 33.7761 25.2896 33.7867 25.2744C33.7972 25.2592 33.8119 25.2474 33.829 25.2404C33.8521 25.2311 33.8778 25.2311 33.9008 25.2404C34.0238 25.2951 34.2138 25.1351 34.4258 25.1561C34.813 25.1776 34.9815 25.6061 35.2875 25.3159C35.5543 25.0486 35.5125 24.5659 35.469 24.1909C35.4546 24.0357 35.4258 23.8822 35.383 23.7324C35.3693 23.7192 35.3598 23.7021 35.3558 23.6835C35.3518 23.6649 35.3535 23.6455 35.3605 23.6278C35.3676 23.6101 35.3798 23.5949 35.3956 23.5842C35.4114 23.5735 35.43 23.5677 35.449 23.5676C35.58 23.5676 35.6003 23.7486 35.6583 24.1639C35.72 24.6061 35.743 25.1299 35.421 25.4524C35.0025 25.8511 34.7035 25.3631 34.4113 25.3469Z" fill="#313131"/>
<path d="M13.6641 21.2354C13.6641 21.1334 13.7816 21.0759 13.9348 21.0104C14.2723 20.8667 14.6256 20.7632 14.9873 20.7019C16.2712 20.4053 17.6123 20.4729 18.8598 20.8972C18.8717 20.9013 18.8826 20.9077 18.892 20.916C18.9014 20.9244 18.9091 20.9345 18.9146 20.9458C18.9201 20.9571 18.9233 20.9693 18.924 20.9819C18.9248 20.9944 18.923 21.007 18.9189 21.0188C18.9148 21.0307 18.9084 21.0416 18.9001 21.051C18.8918 21.0604 18.8817 21.0681 18.8704 21.0736C18.8591 21.0791 18.8468 21.0823 18.8343 21.083C18.8217 21.0838 18.8092 21.082 18.7973 21.0779C17.5819 20.665 16.2754 20.5995 15.0248 20.8887C14.6158 20.9526 14.2194 21.08 13.8498 21.2664C13.8422 21.2875 13.8274 21.3052 13.8081 21.3165C13.7888 21.3278 13.7661 21.3319 13.744 21.3282C13.722 21.3246 13.7019 21.3133 13.6873 21.2963C13.6727 21.2794 13.6644 21.2578 13.6641 21.2354Z" fill="#313131"/>
<path d="M16.8071 19.1466C16.1456 18.9199 15.4706 18.8836 14.7756 18.7679C14.7514 18.7629 14.73 18.7487 14.716 18.7283C14.702 18.7078 14.6964 18.6828 14.7005 18.6584C14.7046 18.6339 14.718 18.612 14.7379 18.5973C14.7577 18.5825 14.7826 18.576 14.8071 18.5791C15.4921 18.6934 16.1904 18.7329 16.8691 18.9656C16.8921 18.9746 16.9107 18.9922 16.9211 19.0146C16.9315 19.037 16.9328 19.0625 16.9248 19.0858C16.9168 19.1092 16.9001 19.1286 16.8782 19.1399C16.8562 19.1512 16.8308 19.1536 16.8071 19.1466Z" fill="#313131"/>
<path d="M28.6663 19.8316C29.2818 19.1648 29.996 18.8351 30.8565 18.5471C30.9179 18.5063 30.9927 18.4906 31.0653 18.5033C31.0833 18.5113 31.0988 18.5242 31.1098 18.5406C31.1208 18.557 31.127 18.5761 31.1275 18.5958C31.1268 18.61 31.1232 18.6238 31.1167 18.6364C31.1103 18.6491 31.1013 18.6602 31.0903 18.6691C31.0792 18.678 31.0664 18.6843 31.0526 18.6877C31.0388 18.6911 31.0245 18.6915 31.0105 18.6888C30.9918 18.6938 30.9738 18.7006 30.9565 18.7093C30.8618 18.8038 29.7065 18.9843 28.8065 19.9613C28.7887 19.9774 28.7656 19.9862 28.7416 19.986C28.7176 19.9859 28.6946 19.9768 28.677 19.9605C28.6594 19.9442 28.6485 19.9219 28.6466 19.898C28.6446 19.8741 28.6516 19.8503 28.6663 19.8313V19.8316Z" fill="#313131"/>
<path d="M31.3943 20.5085C30.8486 20.3733 30.2808 20.3532 29.727 20.4495C29.702 20.4538 29.6764 20.448 29.6557 20.4334C29.635 20.4188 29.6209 20.3966 29.6166 20.3716C29.6123 20.3467 29.6181 20.321 29.6327 20.3003C29.6473 20.2796 29.6695 20.2656 29.6945 20.2613C30.2664 20.1624 30.8526 20.1823 31.4165 20.3198C31.4388 20.3257 31.4583 20.3395 31.4712 20.3586C31.4842 20.3777 31.4899 20.4008 31.4872 20.4238C31.4845 20.4467 31.4736 20.4679 31.4565 20.4835C31.4395 20.499 31.4173 20.5079 31.3943 20.5085Z" fill="#313131"/>
<path d="M5.7267 32.9501C5.3797 28.9808 6.0247 25.0856 7.4967 22.2626C7.94735 21.3637 8.52978 20.5371 9.2247 19.8103C9.4542 19.5433 9.65495 19.3226 9.83045 19.3428C9.85455 19.3469 9.87616 19.3601 9.89086 19.3796C9.90557 19.3992 9.91224 19.4236 9.90952 19.4479C9.90681 19.4722 9.8949 19.4945 9.87625 19.5103C9.8576 19.5261 9.83361 19.5342 9.8092 19.5328C9.69695 19.5328 9.34145 19.9751 9.27545 20.0411C6.32245 23.1676 5.53995 28.6161 5.91745 32.9336C5.91862 32.9461 5.91729 32.9588 5.91353 32.9708C5.90978 32.9828 5.90368 32.9939 5.89558 33.0035C5.88749 33.0132 5.87756 33.0211 5.86638 33.0268C5.8552 33.0326 5.84299 33.0361 5.83045 33.0371C5.80516 33.0393 5.78002 33.0314 5.76056 33.0151C5.74111 32.9988 5.72893 32.9754 5.7267 32.9501Z" fill="#313131"/>
<path d="M41.7056 29.4814C41.6431 25.6174 41.3991 21.2639 39.2771 18.5017C38.4476 17.4114 37.5624 16.6617 36.7169 16.3327C36.4375 16.2105 36.1427 16.1271 35.8406 16.0847C35.8235 16.1008 35.801 16.1101 35.7774 16.1106C35.7539 16.1112 35.731 16.103 35.7131 16.0877C35.6952 16.0724 35.6836 16.051 35.6805 16.0276C35.6774 16.0043 35.6831 15.9806 35.6964 15.9612C35.7814 15.8342 36.1481 15.8994 36.7871 16.1549C37.6771 16.5009 38.5661 17.2514 39.4291 18.3854C41.5864 21.1937 41.8341 25.5837 41.8969 29.4782C41.8962 29.4965 41.8903 29.5142 41.8799 29.5292C41.8695 29.5443 41.855 29.556 41.8382 29.5631C41.8213 29.5702 41.8028 29.5724 41.7847 29.5693C41.7667 29.5662 41.7499 29.558 41.7364 29.5457C41.7182 29.5291 41.7072 29.506 41.7056 29.4814Z" fill="#313131"/>
<path d="M2.25437 47.2527C1.94312 46.6117 2.20437 45.5397 2.37512 44.8302C3.05987 41.9914 4.24937 40.6277 5.54387 37.9124C5.5555 37.8907 5.57502 37.8742 5.59842 37.8665C5.62182 37.8587 5.6473 37.8602 5.66962 37.8707C5.69182 37.8814 5.70905 37.9003 5.71779 37.9233C5.72653 37.9464 5.72611 37.9719 5.71662 37.9947C4.42637 40.7002 3.23737 42.0709 2.56087 44.8754C2.40612 45.5169 2.14512 46.5902 2.42637 47.1694C2.43184 47.1807 2.43502 47.193 2.43575 47.2055C2.43648 47.218 2.43474 47.2306 2.43061 47.2424C2.42649 47.2543 2.42008 47.2652 2.41174 47.2746C2.40339 47.284 2.39329 47.2916 2.38199 47.2971C2.3707 47.3025 2.35844 47.3057 2.34592 47.3064C2.33339 47.3072 2.32084 47.3054 2.30899 47.3013C2.29714 47.2972 2.28622 47.2908 2.27685 47.2824C2.26747 47.2741 2.25984 47.264 2.25437 47.2527Z" fill="#313131"/>
<path d="M47.861 46.0585C47.3343 43.917 45.556 42.2803 44.3678 40.388C44.3541 40.3667 44.3327 40.3515 44.308 40.3458C44.2958 40.3429 44.2831 40.3425 44.2708 40.3446C44.2584 40.3467 44.2466 40.3513 44.236 40.358C44.2146 40.3716 44.1995 40.3931 44.1939 40.4177C44.1883 40.4424 44.1926 40.4683 44.206 40.4898C45.402 42.3948 47.106 43.9445 47.6523 46.0148C43.135 46.6298 3.34374 51.8305 2.54974 47.3845C2.54779 47.3719 2.54334 47.3598 2.53665 47.349C2.52996 47.3381 2.52117 47.3287 2.5108 47.3213C2.50043 47.3139 2.48867 47.3086 2.47624 47.3058C2.4638 47.303 2.45093 47.3027 2.43837 47.3049C2.42582 47.3072 2.41383 47.3119 2.40313 47.3188C2.39242 47.3257 2.3832 47.3347 2.37602 47.3453C2.36883 47.3558 2.36383 47.3677 2.36129 47.3802C2.35875 47.3927 2.35874 47.4055 2.36124 47.418C3.19824 52.1055 43.0595 46.8408 47.7428 46.1953C47.776 46.1908 47.8818 46.143 47.861 46.0585Z" fill="#313131"/>
<path d="M7.2738 40.7076C7.25177 40.7078 7.23036 40.7003 7.21322 40.6864C7.19608 40.6726 7.18425 40.6532 7.17975 40.6316C7.17525 40.6101 7.17834 40.5876 7.18851 40.5681C7.19868 40.5485 7.2153 40.5331 7.23555 40.5244C9.3472 39.6115 11.5352 38.8865 13.7741 38.3576C13.7925 38.353 13.8119 38.354 13.8298 38.3604C13.8476 38.3669 13.8631 38.3786 13.8743 38.394C13.8854 38.4094 13.8917 38.4278 13.8923 38.4468C13.8929 38.4658 13.8877 38.4846 13.8776 38.5006C13.871 38.5113 13.8624 38.5207 13.8522 38.528C13.842 38.5354 13.8305 38.5407 13.8183 38.5436C11.5785 39.0751 9.3889 39.7992 7.2738 40.7076Z" fill="#313131"/>
<path d="M19.6323 37.1696C19.6085 37.169 19.5857 37.1595 19.5685 37.143C19.5513 37.1265 19.5409 37.1041 19.5393 37.0803C19.5377 37.0565 19.545 37.033 19.5599 37.0143C19.5747 36.9956 19.596 36.9832 19.6196 36.9794C22.0541 36.6459 27.9751 35.7944 30.4116 36.0609C30.4361 36.0645 30.4582 36.0775 30.4734 36.097C30.4886 36.1166 30.4956 36.1412 30.4931 36.1659C30.4904 36.1905 30.4782 36.2132 30.4591 36.2291C30.4401 36.245 30.4156 36.2529 30.3908 36.2511C27.5553 35.9409 19.8733 37.1696 19.6323 37.1696Z" fill="#313131"/>
<path d="M40.8207 37.6826C39.2682 37.2846 34.7555 36.5253 34.1707 36.6506C34.1466 36.6542 34.1219 36.6486 34.1018 36.6347C34.0817 36.6208 34.0677 36.5997 34.0626 36.5758C34.0576 36.5519 34.0618 36.527 34.0745 36.5061C34.0872 36.4852 34.1074 36.47 34.131 36.4636C34.7892 36.3243 39.4235 37.1266 40.8692 37.4973C40.8938 37.5039 40.9147 37.5199 40.9275 37.5418C40.9403 37.5637 40.944 37.5897 40.9377 37.6143C40.9345 37.6265 40.929 37.6379 40.9214 37.6479C40.9138 37.6579 40.9043 37.6663 40.8934 37.6727C40.8825 37.679 40.8705 37.6832 40.8581 37.6848C40.8456 37.6865 40.8329 37.6858 40.8207 37.6826Z" fill="#313131"/>
<path d="M32.4828 22.7065C31.5438 21.5175 30.1786 20.0965 27.9288 19.6382C28.105 19.1992 28.2244 18.7395 28.2843 18.2702C28.3948 18.26 28.5038 18.2377 28.6093 18.204C29.0093 18.6585 29.9306 18.6155 30.2501 18.0932C30.3301 17.9502 30.3881 17.7962 30.4221 17.6357C30.4504 17.4874 30.503 17.3448 30.5778 17.2137C30.7241 17.0768 30.884 16.9552 31.0551 16.851C31.3941 16.5545 31.4148 16.281 31.3346 15.8805C31.3309 15.8619 31.3219 15.8449 31.3085 15.8315C31.2952 15.8181 31.2782 15.809 31.2597 15.8053C31.2412 15.8016 31.222 15.8034 31.2045 15.8106C31.187 15.8178 31.1721 15.83 31.1616 15.8457C29.9416 15.2942 29.0816 13.698 28.2953 12.7432C27.1469 11.4169 25.6281 10.4644 23.9341 10.008C22.9857 9.72489 21.9752 9.72489 21.0268 10.008C19.8018 10.448 18.6551 11.6912 18.1386 12.8387C17.8886 13.3742 17.8886 14.1012 17.5456 14.5985C17.3736 14.8485 17.0291 14.9427 16.7613 15.0957C16.3598 15.3252 15.9581 15.6887 15.8816 16.167C15.7858 16.7217 16.3023 16.8555 16.4363 17.3145C16.5701 17.7355 16.3788 18.1945 16.5318 18.6145C16.8671 19.5087 18.3613 19.485 18.6353 19.0745C18.9193 19.2423 19.2467 19.3219 19.5761 19.3032C19.7345 19.7285 19.9547 20.1281 20.2296 20.4892C19.784 20.5822 19.3507 20.7265 18.9383 20.9192C15.9568 22.4097 14.2831 24.9547 13.6446 28.1465C12.9298 31.7187 13.5196 36.2757 14.5486 39.0762C14.6986 39.4832 14.8318 40.0477 15.2716 40.2332C15.1751 42.44 14.3486 44.8707 14.9798 45.0082C15.3748 45.0945 15.6611 44.1617 15.8003 43.7567C15.7014 44.4127 15.6456 45.0744 15.6331 45.7377C15.6318 45.8852 15.6158 46.3642 15.7923 46.4922C15.818 46.5106 15.8479 46.5224 15.8792 46.5266C15.9106 46.5307 15.9425 46.5271 15.9721 46.516C16.4013 46.357 16.5998 45.4957 16.7433 44.6472C16.7118 45.1717 16.7086 45.6974 16.7338 46.2222C16.7521 46.4252 16.7801 46.7322 16.9908 46.7322C17.1908 46.7322 17.3066 46.4505 17.3836 46.2642C17.5575 45.813 17.679 45.3432 17.7456 44.8642C17.7641 45.3847 17.8276 45.9962 17.8563 46.175C17.8921 46.397 17.9426 46.6117 18.0701 46.681C18.0951 46.6946 18.1229 46.7021 18.1513 46.703C18.1798 46.7039 18.208 46.698 18.2338 46.686C18.5261 46.561 18.6353 46.016 18.6923 45.6175C18.9348 43.9675 18.6801 43.1655 18.6771 42.7217C18.8486 42.9927 19.2723 43.7155 19.5853 43.7155C19.6231 43.7155 19.6602 43.7053 19.6927 43.686C19.7252 43.6668 19.7519 43.6391 19.7701 43.606C19.9573 43.2935 19.7861 42.7837 19.6838 42.4392C19.4233 41.5605 19.0103 40.3597 18.4233 39.9642C18.5123 39.6817 17.8106 37.5702 17.6791 36.1075C17.4006 33.043 17.5066 29.9015 18.7041 27.1645C18.7121 27.1417 18.7112 27.1166 18.7016 27.0945C18.692 27.0723 18.6743 27.0546 18.6521 27.0449C18.63 27.0352 18.605 27.0342 18.5821 27.0422C18.5593 27.0502 18.5403 27.0666 18.5291 27.088C17.3081 29.8792 17.2098 33.059 17.4888 36.1247C17.6171 37.5572 18.2861 39.642 18.2438 39.897C18.0106 40.0382 15.7166 40.3087 15.2983 40.031C14.9696 39.8405 14.8583 39.363 14.7283 39.0102C13.7006 36.2212 13.1283 31.6995 13.8336 28.1762C14.4563 25.061 16.0893 22.5577 19.0233 21.0917C19.4513 20.8843 19.9084 20.7433 20.3788 20.6735C20.9486 21.325 21.6941 21.7984 22.5261 22.037C22.5058 22.0755 22.5116 22.125 22.5676 22.273C22.713 22.5503 22.9194 22.7911 23.1712 22.9773C23.4231 23.1634 23.7138 23.2901 24.0216 23.3479C24.3294 23.4056 24.6463 23.3929 24.9485 23.3106C25.2506 23.2284 25.5302 23.0787 25.7663 22.873C25.9402 22.7127 26.0773 22.5167 26.1682 22.2984C26.2591 22.0801 26.3016 21.8448 26.2928 21.6085C26.9889 21.1914 27.5351 20.5649 27.8533 19.8185C30.0648 20.256 31.4093 21.6555 32.3328 22.8252C33.3015 24.1145 33.9686 25.6046 34.2848 27.186C35.0098 30.5447 34.5076 35.2385 33.4278 38.169C33.2508 38.6492 33.1963 39.0162 32.7631 39.239C32.0393 39.4562 30.1853 39.189 29.9261 39.06C30.0091 38.5682 30.5921 36.5032 30.6673 35.2627C30.8318 32.721 30.8886 29.4627 29.8558 26.8015C29.7808 26.6127 29.7023 26.4175 29.6058 26.224C29.5944 26.2014 29.5745 26.1842 29.5506 26.176C29.5387 26.172 29.5261 26.1705 29.5136 26.1715C29.4946 26.1725 29.4764 26.1793 29.4614 26.1909C29.4464 26.2025 29.4353 26.2184 29.4296 26.2365C29.4256 26.2484 29.424 26.261 29.4249 26.2735C29.4258 26.286 29.4292 26.2982 29.4348 26.3095C29.5281 26.496 29.6048 26.6875 29.6798 26.8752C30.6973 29.4967 30.6403 32.728 30.4768 35.2502C30.3908 36.6705 29.6701 38.997 29.7411 39.1425C29.7686 39.1862 29.8091 39.2205 29.8571 39.24C29.4048 39.5332 28.9001 40.2242 28.3071 41.3315C28.1393 41.645 27.8756 42.1227 27.9946 42.459C28.1638 42.937 28.8893 42.184 29.2278 41.8105C29.1913 41.9642 29.1453 42.1157 29.0901 42.2637C28.8351 43.0342 28.69 43.8368 28.6591 44.6477C28.6553 44.9935 28.6253 45.6005 28.8953 45.7807C28.9179 45.7955 28.9434 45.805 28.97 45.8087C28.9967 45.8125 29.0239 45.8102 29.0496 45.8022C29.1788 45.7625 29.2636 45.5922 29.3461 45.4062C29.5069 44.9707 29.6395 44.5254 29.7433 44.073C29.718 44.5505 29.7396 45.0294 29.8078 45.5027C29.8598 45.866 29.9578 46.0607 30.1078 46.0985C30.3208 46.152 30.4103 45.8435 30.4681 45.6322C30.5826 45.1979 30.6673 44.7563 30.7216 44.3105C30.8261 43.595 30.5243 45.6915 31.1508 46.0672C31.1775 46.0855 31.2085 46.0967 31.2408 46.0996C31.2731 46.1025 31.3055 46.097 31.3351 46.0837C31.3851 46.0612 31.5326 45.993 31.6216 45.3715C31.7341 44.7155 31.8103 44.0537 31.8498 43.3892C31.9381 44.1142 32.0691 44.7815 32.4263 44.7815C32.7763 44.7815 32.8278 44.0025 32.8278 43.5445C32.9048 42.3695 32.8853 40.4502 33.0633 39.2785C33.2996 39.0392 33.4658 38.7398 33.5441 38.4127C33.9238 37.3945 34.2083 36.3432 34.3941 35.2725C35.1268 31.0432 35.1516 26.0865 32.4828 22.7065ZM28.3391 15.733C28.4853 15.5847 28.6832 15.4988 28.8914 15.4932C29.0996 15.4876 29.3018 15.5628 29.4558 15.703C30.2898 16.4422 29.3558 17.903 28.3058 18.0765C28.3826 17.2977 28.3936 16.5137 28.3391 15.733ZM18.2711 40.0955C18.8836 40.4455 19.3293 41.9205 19.5286 42.5887C19.6063 42.8505 19.7381 43.2887 19.6068 43.5067C19.5093 43.663 18.9853 42.8585 18.8876 42.6987C18.7453 42.4662 18.6836 42.379 18.5918 42.396C18.3668 42.4382 18.5573 43.2557 18.5788 43.623C18.6297 44.2795 18.6045 44.9397 18.5038 45.5905C18.4068 46.2705 18.2628 46.4655 18.1623 46.5132C18.1478 46.5057 18.0961 46.4562 18.0431 46.1272C17.8116 44.3317 18.0581 43.3572 17.7526 43.5102C17.6308 43.571 17.6236 44.2757 17.6236 44.2757C17.5838 44.9131 17.451 45.5413 17.2293 46.1402C17.1148 46.429 17.0413 46.5402 16.9996 46.5435C16.8103 46.4075 16.9728 44.0185 16.9728 43.806C16.9728 43.5355 16.9728 43.4235 16.8581 43.4235C16.6931 43.4235 16.6946 43.7662 16.5861 44.4325C16.4936 45.0032 16.3011 46.1907 15.9063 46.338C15.7036 46.221 15.9266 44.0757 16.0031 43.7115C16.0963 43.2677 16.1048 43.0697 16.0338 42.981C16.0229 42.9677 16.0087 42.9576 15.9927 42.9516C15.9766 42.9456 15.9592 42.944 15.9423 42.947C15.9254 42.9499 15.9095 42.9574 15.8965 42.9686C15.8835 42.9798 15.8737 42.9944 15.8683 43.0107C15.8506 43.064 15.8113 43.1197 15.7906 43.1857C15.7537 43.3199 15.7097 43.452 15.6586 43.5815C15.6473 43.613 15.6336 43.6565 15.6158 43.7065C15.1658 45.051 14.7938 45.2792 14.9876 43.852C15.2056 42.2632 15.4071 41.4235 15.4626 40.287C16.1436 40.4312 17.8108 40.2667 18.2711 40.0955ZM17.9631 16.9937C18.0538 16.8808 18.1718 16.7931 18.3061 16.7388C18.4403 16.6845 18.5862 16.6654 18.7298 16.6835C18.8306 16.694 18.9286 16.7212 19.0203 16.764C19.0988 17.5628 19.2638 18.3507 19.5123 19.114C18.4806 19.139 17.2703 17.8412 17.9631 16.9937ZM22.9881 22.5645C22.8572 22.4306 22.7615 22.2663 22.7096 22.0865C23.8465 22.3687 25.0467 22.2372 26.0956 21.7155C26.0956 23.0995 24.0773 23.7742 22.9881 22.5645ZM27.7091 19.67C26.4123 22.9295 21.0733 22.8947 19.7403 19.1972C18.5278 15.558 19.0471 11.8172 22.8511 11.7307C23.0536 12.5452 23.4636 13.2932 24.0408 13.9022C24.4793 14.3132 25.0908 14.6117 25.4291 14.1147C25.4953 14.0147 25.5871 13.546 25.6683 13.5452C25.9008 13.5607 26.2433 14.015 26.4838 14.1615C26.9821 14.4665 27.4911 14.749 28.0686 14.6852C28.1971 15.8405 28.2091 17.006 28.1043 18.1637C28.0463 18.6823 27.9131 19.1897 27.7091 19.67ZM32.6371 43.5382C32.6371 44.1582 32.5263 44.5902 32.4268 44.5902C32.1043 44.5902 32.0118 42.8927 31.9246 42.6282C31.9198 42.6135 31.9115 42.6003 31.9003 42.5897C31.8893 42.5789 31.8759 42.571 31.8611 42.5667C31.6441 42.5025 31.6578 43.0895 31.6611 43.3042C31.6653 43.578 31.4491 45.869 31.2516 45.9042C30.8318 45.6525 30.9208 43.9857 30.9651 43.5057C30.9833 43.3107 31.0413 42.8685 30.8581 42.8685C30.7136 42.8685 30.6863 43.2415 30.6863 43.2415C30.6743 43.3637 30.6221 43.6665 30.5326 44.2827C30.4793 44.7213 30.3958 45.1557 30.2826 45.5827C30.2629 45.7009 30.2188 45.8137 30.1531 45.914C30.1531 45.914 30.0531 45.8845 29.9951 45.476C29.8998 44.7876 29.8998 44.0894 29.9951 43.401C30.0641 42.8465 30.0576 42.8045 29.9811 42.7662C29.9678 42.7597 29.9531 42.7563 29.9383 42.7562C29.8518 42.7562 29.8518 42.7562 29.7296 43.2735C29.5956 43.9452 29.4196 44.6078 29.2026 45.2575C29.1748 45.3137 29.0551 45.603 28.9968 45.6222C28.8366 45.5155 28.8441 45.0015 28.8468 44.7542C28.8673 43.9295 29.0093 43.1125 29.2683 42.3292C29.3633 42.0997 29.4216 41.8567 29.4408 41.609C29.4396 41.5867 29.4325 41.5651 29.4203 41.5464C29.408 41.5278 29.3911 41.5127 29.3711 41.5027C29.2678 41.4645 29.2043 41.567 28.9478 41.8337C28.4033 42.4002 28.2333 42.4322 28.1861 42.4217C28.1808 42.4217 28.1763 42.41 28.1723 42.398C28.0796 42.1502 28.3196 41.708 28.4486 41.47C28.7783 40.8612 29.4531 39.6152 30.0958 39.3275C30.6906 39.4455 31.2948 39.5077 31.9011 39.5132C32.2211 39.5232 32.5408 39.4877 32.8511 39.4085C32.6956 40.6022 32.7118 42.3895 32.6371 43.5382Z" fill="#313131"/>
<path d="M24.6627 25.0601C24.4968 25.0648 24.339 25.1328 24.2216 25.2502C24.1042 25.3676 24.0362 25.5254 24.0315 25.6913C24.0316 25.7846 24.0523 25.8768 24.0922 25.9611C24.1322 26.0455 24.1903 26.1199 24.2625 26.1791C24.3346 26.2383 24.419 26.2808 24.5095 26.3035C24.6 26.3262 24.6945 26.3285 24.786 26.3103C24.9085 26.2861 25.0207 26.2261 25.109 26.1376C25.1976 26.0494 25.258 25.9369 25.2826 25.8144C25.3071 25.6918 25.2947 25.5648 25.2469 25.4493C25.199 25.3338 25.118 25.2352 25.014 25.1659C24.91 25.0966 24.7877 25.0597 24.6627 25.0601Z" fill="white"/>
<path d="M35.5252 20.0888C35.7606 20.0859 35.9942 20.1298 36.2125 20.2179C36.4308 20.306 36.6294 20.4365 36.7968 20.602C36.9643 20.7675 37.0972 20.9645 37.1879 21.1818C37.2786 21.399 37.3252 21.6321 37.3252 21.8675C37.3252 22.1029 37.2786 22.336 37.1879 22.5533C37.0972 22.7705 36.9643 22.9676 36.7969 23.1331C36.6294 23.2986 36.4308 23.4292 36.2125 23.5173C35.9942 23.6054 35.7606 23.6494 35.5252 23.6465C35.2851 23.6495 35.0469 23.6027 34.8258 23.5093C34.6046 23.4158 34.4051 23.2777 34.2398 23.1035C34.0746 22.9292 33.9471 22.7227 33.8655 22.4969C33.7839 22.2711 33.7498 22.0309 33.7654 21.7913C33.7875 21.337 33.9817 20.9082 34.3086 20.592C34.6355 20.2758 35.0704 20.0958 35.5252 20.0888Z" fill="#FDAF31"/>
<path d="M36.2125 17.5459C35.8178 15.3592 34.1913 14.9797 33.1125 13.4527C32.21 12.1737 32.0223 10.5644 30.8748 9.41693C29.1635 7.70543 26.7118 7.46693 24.448 8.17343C23.6455 8.42343 22.0188 9.03418 21.4258 9.85668V9.89493C22.2581 9.73154 23.1176 9.7709 23.9315 10.0097C25.6257 10.4656 27.1445 11.4182 28.2925 12.7449C29.1705 13.7884 30.015 15.4742 31.4103 15.9392C31.4485 15.9584 33.3625 16.3592 33.9353 17.1442C34.6938 18.1839 34.0545 20.0899 35.37 20.0899C36.3848 19.9942 36.337 18.2362 36.2125 17.5459Z" fill="#005BC3"/>
<path d="M37.2683 9.12669C35.5628 9.08219 35.1715 9.02144 35.0895 8.91869C35.0175 8.81119 35.0175 8.81119 35.852 8.21444C36.2303 7.94419 36.8285 7.51619 37.023 7.33319C36.5338 7.25544 36.0411 7.20229 35.5465 7.17394C35.5269 7.1781 35.5065 7.17593 35.4881 7.16776C35.4698 7.15959 35.4545 7.14582 35.4445 7.12844C35.4358 7.11359 35.4312 7.09668 35.4312 7.07946C35.4312 7.06223 35.4358 7.04532 35.4445 7.03046C35.4532 7.01561 35.4657 7.00335 35.4808 6.99495C35.4958 6.98655 35.5128 6.98232 35.53 6.98269C35.555 6.98269 37.222 7.05519 37.2655 7.27169C37.2813 7.39519 37.1293 7.53594 35.9625 8.36994C35.7375 8.52994 35.494 8.70494 35.3543 8.81244C35.803 8.87594 37.066 8.92169 37.2738 8.93569C37.2979 8.93808 37.3203 8.9495 37.3364 8.96768C37.3525 8.98585 37.3611 9.00943 37.3605 9.03369C37.3597 9.05795 37.3497 9.081 37.3326 9.09824C37.3155 9.11548 37.2925 9.12563 37.2683 9.12669Z" fill="#7BD2FF"/>
<path d="M41.1519 6.69928C41.0894 6.69928 39.6189 6.53778 39.3477 6.50728C37.7852 6.33228 37.7852 6.33228 37.7852 6.22103C37.7852 6.14603 37.7852 6.14603 38.6144 5.76428C39.2394 5.47628 40.3297 4.97278 40.6787 4.76078C40.2432 4.67078 38.8722 4.53578 38.6814 4.53578C38.5542 4.55728 38.5022 4.33578 38.7029 4.34553C38.7249 4.34553 40.9192 4.47253 40.9592 4.71278C40.9612 4.93178 39.9134 5.36128 38.1819 6.17528C38.8877 6.26953 40.7549 6.47103 41.1604 6.50778C41.1794 6.50852 41.1976 6.51492 41.2129 6.52615C41.2282 6.53737 41.2398 6.55292 41.2462 6.57078C41.2506 6.58257 41.2526 6.59515 41.252 6.60774C41.2515 6.62033 41.2484 6.63267 41.2429 6.64403C41.235 6.66127 41.2221 6.67575 41.2059 6.6856C41.1897 6.69544 41.1709 6.70021 41.1519 6.69928Z" fill="#7BD2FF"/>
<path d="M44.8225 4.90192C44.7918 4.90192 41.7255 4.87042 41.6383 4.69617C41.594 4.58567 41.5883 4.57242 43.4423 3.11192C44.0123 2.66192 44.6453 2.16392 44.889 1.95067C44.328 1.88067 42.2415 1.82317 41.9703 1.85367C41.9538 1.86027 41.9359 1.86222 41.9184 1.8593C41.9009 1.85638 41.8846 1.8487 41.8712 1.8371C41.8578 1.8255 41.8478 1.81044 41.8424 1.79356C41.837 1.77669 41.8364 1.75865 41.8405 1.74142C41.8486 1.72104 41.8619 1.70318 41.8792 1.68972C41.8965 1.67627 41.9171 1.6677 41.9388 1.66492C41.9685 1.66167 45.05 1.64292 45.1568 1.85617C45.208 1.95842 45.2098 1.96242 43.5605 3.26217C42.9355 3.75542 42.18 4.34992 41.908 4.59317C42.458 4.65067 44.3615 4.71067 44.8225 4.71067C44.8464 4.71279 44.8687 4.72378 44.8849 4.74148C44.9011 4.75918 44.9101 4.7823 44.9101 4.8063C44.9101 4.83029 44.9011 4.85341 44.8849 4.87111C44.8687 4.88881 44.8464 4.8998 44.8225 4.90192Z" fill="#7BD2FF"/>
</svg>
