<svg width="70" height="70" viewBox="0 0 70 70" fill="none" xmlns="http://www.w3.org/2000/svg">
<rect width="70" height="70" rx="10" fill="#E7F8FF"/>
<path d="M36.8838 54.7165C36.8838 54.7165 54.4384 54.8803 55.04 54.7165C55.6417 54.5527 60.3949 55.5261 60.5619 50.6657C60.7257 45.8652 60.6375 25.5796 60.5619 24.8362C60.4863 24.0928 60.5902 19.7207 54.6179 19.7364C48.8567 19.7364 17.2565 19.6703 13.9553 19.7364C9.63363 19.8183 8.6288 20.8767 8.60045 25.3181C8.5721 29.7595 8.48075 41.7923 8.48075 41.7923C8.05604 41.9375 7.67428 42.1864 7.3701 42.5164C7.06592 42.8464 6.84894 43.2472 6.73883 43.6823C6.53723 44.4351 7.55782 51.9635 8.5406 54.7071C8.85559 55.545 10.3644 56.3639 12.8245 55.8505C16.9667 54.9843 22.1483 54.2755 22.1483 54.2755C22.2082 54.7858 22.6145 54.7354 23.1248 54.7354L36.8838 54.7165Z" fill="white"/>
<path d="M60.7411 25.9212C60.7411 23.8801 60.7411 19.5898 54.8601 19.5898H13.9834C11.8225 19.5898 8.55286 19.5583 8.52136 24.151V31.2194C8.52717 31.2634 8.54874 31.3037 8.58206 31.3329C8.61538 31.3621 8.65818 31.3782 8.70248 31.3782C8.74679 31.3782 8.78959 31.3621 8.82291 31.3329C8.85623 31.3037 8.8778 31.2634 8.88361 31.2194C8.88361 31.1879 8.82376 29.298 8.88361 25.3668C10.9846 25.3668 32.0199 25.2471 60.4418 25.0361C60.4418 25.3668 60.4702 48.5945 60.4702 49.9458C60.4702 51.5649 60.1079 52.7052 59.3614 53.4108C58.1014 54.6361 55.9406 54.5983 53.6285 54.5825L37.0756 54.529C36.8803 54.529 36.7858 54.9574 37.0756 54.9574L54.8412 54.9889C56.7627 54.9889 58.4794 54.844 59.6134 53.7289C60.4292 52.9257 60.8734 51.6909 60.8419 50.0088C60.8167 48.5441 60.7411 29.5846 60.7411 25.9212ZM8.85211 24.9762V24.1352C8.86786 22.2452 9.45059 21.0388 10.6224 20.4151C11.643 19.8702 12.9344 19.9048 13.9834 19.9048H54.8601C59.4213 19.9048 60.2308 22.5445 60.382 24.6455C31.9916 24.8723 10.9531 24.9605 8.85211 24.992V24.9762Z" fill="#414141"/>
<path d="M51.0164 21.9002C50.9725 21.8944 50.9322 21.8729 50.903 21.8395C50.8738 21.8062 50.8577 21.7634 50.8577 21.7191C50.8577 21.6748 50.8738 21.632 50.903 21.5987C50.9322 21.5654 50.9725 21.5438 51.0164 21.538C51.0479 21.538 53.7758 21.5096 56.8375 21.538C56.8633 21.5346 56.8895 21.5367 56.9144 21.5443C56.9393 21.5518 56.9623 21.5646 56.9819 21.5817C57.0014 21.5989 57.0171 21.62 57.0279 21.6437C57.0386 21.6674 57.0441 21.6931 57.0441 21.7191C57.0441 21.7451 57.0386 21.7708 57.0279 21.7945C57.0171 21.8182 57.0014 21.8394 56.9819 21.8565C56.9623 21.8736 56.9393 21.8864 56.9144 21.894C56.8895 21.9015 56.8633 21.9036 56.8375 21.9002C53.7758 21.8687 51.0164 21.9002 51.0164 21.9002Z" fill="#414141"/>
<path d="M51.0164 23.555C50.9725 23.5492 50.9322 23.5276 50.903 23.4943C50.8738 23.461 50.8577 23.4182 50.8577 23.3739C50.8577 23.3296 50.8738 23.2868 50.903 23.2535C50.9322 23.2202 50.9725 23.1986 51.0164 23.1928C51.0479 23.1928 53.7758 23.1644 56.8375 23.1928C56.8633 23.1894 56.8895 23.1915 56.9144 23.199C56.9393 23.2066 56.9623 23.2194 56.9819 23.2365C57.0014 23.2537 57.0171 23.2748 57.0279 23.2985C57.0386 23.3222 57.0441 23.3479 57.0441 23.3739C57.0441 23.3999 57.0386 23.4256 57.0279 23.4493C57.0171 23.473 57.0014 23.4941 56.9819 23.5113C56.9623 23.5284 56.9393 23.5412 56.9144 23.5487C56.8895 23.5563 56.8633 23.5584 56.8375 23.555C53.7758 23.5235 51.0164 23.555 51.0164 23.555Z" fill="#414141"/>
<path d="M51.0173 22.7403C50.9697 22.7403 50.924 22.7214 50.8904 22.6877C50.8567 22.654 50.8378 22.6084 50.8378 22.5607C50.8378 22.5131 50.8567 22.4674 50.8904 22.4338C50.924 22.4001 50.9697 22.3812 51.0173 22.3812C51.0488 22.3812 53.7767 22.3497 56.8384 22.3812C56.8854 22.3841 56.9297 22.4038 56.9633 22.4368C56.9969 22.4698 57.0174 22.5138 57.0211 22.5607C57.0181 22.6079 56.9977 22.6523 56.964 22.6854C56.9303 22.7185 56.8856 22.7381 56.8384 22.7403C53.7767 22.6962 51.0173 22.7403 51.0173 22.7403Z" fill="#414141"/>
<path d="M13.114 22.4412C13.1108 22.5597 13.0624 22.6724 12.9786 22.7562C12.8948 22.84 12.782 22.8885 12.6636 22.8916C12.5357 22.8876 12.4144 22.8341 12.3251 22.7425C12.2358 22.6508 12.1855 22.5282 12.1848 22.4003C12.1835 22.3407 12.1943 22.2816 12.2165 22.2264C12.2386 22.1711 12.2718 22.121 12.3139 22.0789C12.3559 22.0368 12.4061 22.0037 12.4613 21.9815C12.5166 21.9593 12.5757 21.9485 12.6352 21.9498C12.7616 21.9583 12.8804 22.0131 12.9688 22.1038C13.0571 22.1945 13.1089 22.3147 13.114 22.4412Z" fill="#414141"/>
<path d="M15.3943 22.4427C15.3911 22.5611 15.3427 22.6739 15.2589 22.7576C15.1751 22.8414 15.0623 22.8899 14.9439 22.8931C14.816 22.889 14.6947 22.8356 14.6054 22.7439C14.5161 22.6523 14.4658 22.5296 14.4651 22.4017C14.4659 22.2858 14.5123 22.175 14.5942 22.093C14.6762 22.0111 14.7871 21.9647 14.9029 21.9639C15.0295 21.969 15.1496 22.0208 15.2403 22.1091C15.331 22.1975 15.3859 22.3163 15.3943 22.4427Z" fill="#414141"/>
<path d="M17.6151 22.4412C17.6119 22.5597 17.5635 22.6724 17.4797 22.7562C17.3959 22.84 17.2831 22.8885 17.1647 22.8916C17.0368 22.8876 16.9155 22.8341 16.8262 22.7425C16.7369 22.6508 16.6866 22.5282 16.6859 22.4003C16.6846 22.3407 16.6954 22.2816 16.7176 22.2264C16.7397 22.1711 16.7729 22.121 16.815 22.0789C16.857 22.0368 16.9072 22.0037 16.9624 21.9815C17.0177 21.9593 17.0768 21.9485 17.1363 21.9498C17.2627 21.9583 17.3815 22.0131 17.4699 22.1038C17.5582 22.1945 17.61 22.3147 17.6151 22.4412Z" fill="#414141"/>
<path d="M26.4185 39.7978C20.4998 39.4545 15.4787 40.1947 10.0609 41.2562C8.07639 41.6437 6.63687 41.8862 6.69987 44.6834C6.75656 47.1498 7.7866 52.7724 8.21499 54.0544C8.70953 55.5318 9.47496 56.3318 11.9288 56.105C14.8141 55.8373 22.9536 54.256 23.0197 54.2403C23.0421 54.2366 23.0636 54.2283 23.0827 54.216C23.1018 54.2037 23.1182 54.1876 23.1309 54.1687C23.1436 54.1498 23.1523 54.1285 23.1565 54.1062C23.1606 54.0838 23.1602 54.0609 23.1552 54.0387C23.146 53.9942 23.1198 53.9551 23.0821 53.9297C23.0444 53.9044 22.9982 53.8949 22.9536 53.9032C22.8717 53.919 14.7637 55.4971 11.8973 55.7617C11.2223 55.8586 10.5342 55.8015 9.88446 55.5948C10.4294 54.6151 13.1005 49.8965 14.8425 48.0821C16.1024 48.7121 18.0365 49.5532 19.4603 49.4429C21.8416 49.2571 25.19 42.3178 25.3318 42.0217C25.3513 41.9811 25.354 41.9345 25.3392 41.892C25.3245 41.8495 25.2935 41.8146 25.253 41.7949C25.2328 41.7847 25.2107 41.7787 25.1882 41.7771C25.1656 41.7756 25.1429 41.7786 25.1215 41.7859C25.1001 41.7932 25.0803 41.8048 25.0634 41.8198C25.0465 41.8349 25.0328 41.8532 25.0231 41.8736C24.9884 41.9461 21.618 48.9295 19.4319 49.0996C16.4836 49.3295 10.2971 45.0992 7.396 42.7997C7.87164 42.0154 8.80403 41.8327 10.1239 41.5901C15.9796 40.5065 20.0178 39.7663 26.3996 40.1348C26.4219 40.1361 26.4443 40.133 26.4654 40.1256C26.4866 40.1182 26.506 40.1067 26.5227 40.0918C26.5394 40.0769 26.553 40.0588 26.5626 40.0386C26.5723 40.0184 26.5779 39.9965 26.5791 39.9742C26.5804 39.952 26.5772 39.9298 26.5698 39.9089C26.5624 39.8879 26.5509 39.8687 26.5359 39.8522C26.5209 39.8358 26.5028 39.8225 26.4827 39.8132C26.4625 39.8038 26.4407 39.7986 26.4185 39.7978ZM14.5243 47.9152C12.7163 49.8493 10.0924 54.5049 9.56946 55.4467C8.92057 55.0782 8.72843 54.5017 8.50478 53.8339C8.20554 52.9457 7.10306 47.3482 7.04321 44.6739C7.00948 44.1471 7.07793 43.6187 7.24481 43.1178C7.88424 43.6218 11.2389 46.2111 14.5243 47.9152Z" fill="#414141"/>
<path d="M7.05363 41.7103C12.9425 39.963 19.0693 39.152 25.2099 39.3069C25.4544 39.0132 25.7141 38.7324 25.9879 38.4658C25.9879 38.4658 14.2229 30.7327 12.6353 30.0335C11.2808 29.4413 10.4934 30.3295 10.0839 30.9784C9.76888 31.4541 5.55111 37.2783 5.22036 38.6013C4.88962 39.9243 5.55111 40.7181 7.05363 41.7103Z" fill="#005BC3"/>
<path d="M15.3186 39.7695C14.5563 38.8245 11.63 31.1324 11.2048 30.0047C11.1968 29.9834 11.1846 29.9638 11.169 29.9472C11.1534 29.9306 11.1347 29.9172 11.1139 29.9079C11.0931 29.8985 11.0707 29.8933 11.0479 29.8927C11.0251 29.892 11.0025 29.8958 10.9812 29.9039C10.9602 29.9119 10.9411 29.924 10.9248 29.9394C10.9086 29.9548 10.8956 29.9733 10.8865 29.9938C10.8774 30.0143 10.8725 30.0364 10.872 30.0588C10.8715 30.0812 10.8754 30.1035 10.8835 30.1244C10.9749 30.3701 12.4774 34.3484 13.6933 37.2054C11.2363 37.4417 5.71445 39.2529 5.18841 39.3474C5.16 39.3443 5.13126 39.3484 5.10485 39.3594C5.07845 39.3703 5.05523 39.3877 5.03733 39.41C5.01944 39.4323 5.00745 39.4587 5.00248 39.4869C4.9975 39.515 4.9997 39.544 5.00886 39.571C5.07186 39.76 5.08761 39.7506 6.63738 39.2939C8.5809 38.7206 12.1561 37.6653 13.8476 37.5362C14.1772 38.3869 14.5831 39.2061 15.0603 39.9837C15.0908 40.01 15.1296 40.0247 15.1698 40.0251C15.2101 40.0255 15.2492 40.0117 15.2802 39.986C15.3112 39.9603 15.332 39.9244 15.3391 39.8848C15.3461 39.8451 15.3389 39.8043 15.3186 39.7695Z" fill="white"/>
<path d="M39.7031 32.1039C39.4227 31.0487 37.6934 25.2308 36.2381 22.7706C34.7829 20.3105 31.9133 17.9386 29.6201 19.564C29.589 19.5834 29.5542 19.5963 29.5178 19.6017C29.4815 19.6071 29.4445 19.605 29.4091 19.5955C28.8988 19.4443 26.8576 19.0222 25.4496 20.4964C21.8397 24.2763 23.5596 30.8502 22.0886 34.7499C22.0776 34.7823 22.0736 34.8167 22.0769 34.8508C22.0802 34.8849 22.0907 34.9179 22.1076 34.9477C22.1246 34.9774 22.1477 35.0033 22.1753 35.0235C22.203 35.0437 22.2346 35.0578 22.2681 35.0649C23.9187 35.5437 33.1008 37.9471 39.6149 32.3654C39.6514 32.3335 39.6788 32.2925 39.6943 32.2466C39.7098 32.2006 39.7128 32.1514 39.7031 32.1039Z" fill="#7BD2FF"/>
<path d="M52.6673 27.3019C52.7 26.8448 52.8438 26.4026 53.0862 26.0136C53.5083 25.2923 54.2202 23.4622 54.1383 22.4416C54.0722 21.6321 55.3668 19.4113 54.8597 19.2318C54.4376 19.0806 53.2374 21.6604 53.2374 21.6604L52.8468 21.6006C52.8468 21.6006 53.2091 17.9687 52.6389 17.9403C52.0688 17.912 51.9176 21.5407 51.9176 21.5407L51.3758 21.6321C51.3758 21.6321 50.6261 17.5182 50.1158 17.4899C49.6055 17.4615 50.3552 21.8998 50.3552 21.8998L49.9363 22.0195C49.9363 22.0195 48.607 18.4443 47.977 18.6207C47.1045 18.8822 49.719 24.089 49.4166 24.2623C49.1142 24.4355 47.6494 22.9141 47.2872 23.3614C46.7486 24.026 48.7047 25.3049 50.0182 26.2751C50.2576 26.4515 50.2261 27.0248 50.1977 27.3838L52.6673 27.3019Z" fill="white"/>
<path d="M34.1176 51.1016L33.3364 54.4625C33.6508 55.1177 33.9316 55.7884 34.1775 56.4722C34.3224 56.9542 34.8988 58.4787 35.198 58.422C35.4973 58.3653 35.513 57.9432 35.513 57.9432C35.513 57.9432 36.0548 58.2582 36.3257 57.5211C36.3257 57.5211 37.0439 57.8361 36.9242 56.4124C36.9242 56.4124 37.6455 56.321 36.8644 54.1602C36.9722 54.209 37.0947 54.2147 37.2066 54.176C37.3185 54.1373 37.4113 54.0573 37.466 53.9523C37.6392 53.6373 36.836 52.0906 35.3933 52.0623C35.0347 51.6621 34.6013 51.3357 34.1176 51.1016Z" fill="white"/>
<path d="M32.2621 37.0869C32.2621 37.0869 35.5317 39.0398 36.1617 35.7072L35.4404 34.0566C35.4404 34.0566 38.1115 31.8517 36.3129 27.9647C36.3129 27.9647 37.302 27.0197 36.7634 25.8353C36.6025 25.5 36.3448 25.2206 36.0237 25.0331C35.7026 24.8456 35.3326 24.7586 34.9616 24.7832C34.9616 24.7832 34.0009 22.0869 30.3091 21.6616C30.3091 21.6616 29.7106 25.7754 26.8001 27.3662L27.3104 29.1963C27.3104 29.1963 25.7795 29.2246 25.6283 30.4846C25.4771 31.7446 27.3387 32.1068 28.1199 31.6249C28.1199 31.6249 29.2003 34.5386 31.84 34.8977C31.84 34.8662 32.3219 36.6081 32.2621 37.0869Z" fill="white"/>
<path d="M29.6477 31.0385C29.6499 31.1102 29.672 31.1803 29.7127 31.2447C29.7534 31.309 29.8118 31.3664 29.8846 31.4133C29.9575 31.4602 30.0431 31.4958 30.1367 31.518C30.2303 31.5401 30.3298 31.5484 30.4294 31.5423C30.5291 31.5362 30.6269 31.5159 30.717 31.4825C30.8072 31.4492 30.8879 31.4034 30.9545 31.348C31.021 31.2925 31.0721 31.2285 31.1046 31.1597C31.1372 31.0909 31.1505 31.0186 31.144 30.9472C31.1418 30.8754 31.1197 30.8053 31.079 30.741C31.0384 30.6766 30.9799 30.6193 30.9071 30.5724C30.8343 30.5254 30.7486 30.4899 30.655 30.4677C30.5615 30.4455 30.4619 30.4373 30.3623 30.4433C30.2626 30.4494 30.1648 30.4698 30.0747 30.5031C29.9845 30.5365 29.9038 30.5822 29.8372 30.6377C29.7707 30.6931 29.7196 30.7571 29.6871 30.826C29.6546 30.8948 29.6412 30.9671 29.6477 31.0385Z" fill="#FDAF31"/>
<path d="M35.4431 29.1218C35.4753 29.1816 35.5233 29.2319 35.5841 29.2697C35.645 29.3075 35.7175 29.3321 35.7974 29.342C35.8773 29.352 35.963 29.347 36.0495 29.3275C36.136 29.308 36.2216 29.2742 36.3011 29.2283C36.3806 29.1824 36.4526 29.1251 36.5127 29.06C36.5729 28.9948 36.62 28.9231 36.6513 28.8489C36.6827 28.7747 36.6976 28.6996 36.6952 28.628C36.6928 28.5564 36.6732 28.4897 36.6375 28.4319C36.6045 28.3732 36.5562 28.3239 36.4952 28.287C36.4343 28.2501 36.362 28.2263 36.2825 28.2169C36.2031 28.2075 36.118 28.2128 36.0322 28.2324C35.9464 28.252 35.8617 28.2855 35.7828 28.3311C35.7039 28.3766 35.6324 28.4333 35.5726 28.4978C35.5127 28.5623 35.4656 28.6333 35.434 28.7068C35.4024 28.7804 35.3869 28.8549 35.3884 28.9261C35.3899 28.9973 35.4084 29.0638 35.4428 29.1218" fill="#FDAF31"/>
<path d="M53.2696 27.1514H52.8475C52.942 26.6236 53.1251 26.1156 53.3893 25.6489L53.5688 25.2615C53.9956 24.2925 54.2494 23.2563 54.3185 22.1997C54.5169 21.4532 55.4903 19.2892 54.9485 19.0183C54.9186 18.9961 54.8837 18.9816 54.8469 18.9762C54.8101 18.9707 54.7725 18.9743 54.7374 18.9868C54.3185 19.1348 53.4491 20.7885 53.1467 21.4784L52.9987 21.45C53.027 21.135 53.0932 20.4578 53.1184 19.7995C53.1877 18.0575 52.9672 17.7867 52.6994 17.7583C52.6143 17.7527 52.5296 17.7736 52.4569 17.8181C52.0159 18.1709 51.8111 20.4547 51.7072 21.3902L51.4363 21.4185C51.3166 20.5491 50.8662 17.7898 50.296 17.3677C50.2586 17.3351 50.2144 17.3113 50.1667 17.298C50.1189 17.2846 50.0688 17.2821 50.0199 17.2905C49.971 17.299 49.9247 17.3182 49.8842 17.3468C49.8437 17.3754 49.81 17.4127 49.7857 17.4559C49.3573 18.0512 49.9086 20.9208 50.1007 21.8091L50.0094 21.8375C49.9212 21.5697 49.6944 20.9996 49.4109 20.398C48.6612 18.7474 48.2706 18.5678 48.1194 18.5363C48.0185 18.4947 47.9053 18.4947 47.8044 18.5363C47.102 18.8797 48.173 21.1098 49.2439 24.0613C49.1326 23.9891 49.0272 23.908 48.9289 23.8188C48.3305 23.3683 47.5178 22.7384 47.039 23.3085C46.9937 23.3558 46.9614 23.414 46.9454 23.4775C46.9294 23.541 46.9302 23.6076 46.9476 23.6707C47.0831 24.6661 49.8361 26.2663 49.9495 26.4899C50.043 26.7284 50.0639 26.9893 50.0094 27.2396C49.7245 27.2389 49.4411 27.2803 49.1683 27.3625C49.1085 27.5105 48.51 36.9635 48.51 36.9635C46.4688 35.6153 41.2462 33.6561 38.7263 34.264C37.8273 34.4868 36.9808 34.8839 36.2347 35.4326C36.0835 35.0735 35.7842 34.412 35.6047 34.0246C36.9308 33.0103 37.6616 30.6038 36.4741 27.9925C36.6627 27.8147 36.8133 27.6005 36.9167 27.3628C37.0201 27.1251 37.0742 26.8688 37.0757 26.6096C37.0442 24.748 35.1259 24.6913 35.0944 24.6913C33.8029 21.6894 30.2939 21.5099 30.2624 21.5099C30.2191 21.5063 30.1761 21.5198 30.1426 21.5475C30.109 21.5751 30.0876 21.6147 30.0828 21.6579C30.0828 21.6894 29.7962 25.5765 26.7219 27.2113C26.6933 27.2316 26.67 27.2586 26.6541 27.2898C26.6382 27.3211 26.6301 27.3557 26.6305 27.3908C26.7817 27.9326 26.9928 28.7106 27.081 29.0729C26.6045 29.1081 26.1524 29.2972 25.7926 29.6115C25.6467 29.7649 25.5404 29.9516 25.483 30.1554C25.4255 30.3592 25.4187 30.5739 25.4631 30.781C25.5075 30.988 25.6017 31.1811 25.7376 31.3434C25.8736 31.5057 26.0471 31.6325 26.2431 31.7125C26.7906 31.9309 27.3991 31.9409 27.9535 31.7409C28.0732 32.0118 29.3017 34.6231 31.6736 34.9538C31.7334 35.2688 31.9445 36.0941 32.0327 36.6642C25.8525 33.6939 16.8562 52.1683 22.8191 55.2111C23.9909 55.8096 33.1131 54.8961 33.4155 54.8489C34.1463 56.4616 34.4644 58.5122 35.1858 58.5122C35.3936 58.4807 35.5007 58.2728 35.5763 58.0901C35.6588 58.1174 35.746 58.1274 35.8325 58.1193C35.919 58.1113 36.0029 58.0855 36.0789 58.0435C36.1549 58.0014 36.2214 57.9442 36.2743 57.8752C36.3271 57.8063 36.3651 57.7272 36.3859 57.6429C36.4557 57.6664 36.5301 57.673 36.603 57.6621C36.6758 57.6511 36.745 57.6229 36.8048 57.5799C37.1198 57.3751 37.1198 56.8018 37.0757 56.4994C37.6459 56.3104 37.438 55.2993 37.2553 54.726H47.0925C46.7775 52.5368 43.4071 42.3373 43.4071 42.3373C43.4071 42.3373 49.3384 46.2149 53.2507 44.0761C56.618 42.2428 54.4697 27.1798 53.2696 27.1514ZM35.1732 24.9906C35.4847 24.9906 35.7892 25.0829 36.0482 25.256C36.3072 25.4291 36.509 25.675 36.6282 25.9628C36.7474 26.2506 36.7786 26.5673 36.7179 26.8728C36.6571 27.1783 36.5071 27.4589 36.2868 27.6792C36.0666 27.8995 35.7859 28.0495 35.4804 28.1102C35.1749 28.171 34.8582 28.1398 34.5704 28.0206C34.2826 27.9014 34.0367 27.6995 33.8636 27.4405C33.6905 27.1815 33.5982 26.877 33.5982 26.5655C33.5982 26.1478 33.7641 25.7472 34.0595 25.4519C34.3548 25.1565 34.7554 24.9906 35.1732 24.9906ZM32.0232 34.8026C31.9949 34.7428 31.9634 34.6829 31.8752 34.6829C29.4119 34.3679 28.2433 31.533 28.2433 31.5015C28.2305 31.4786 28.213 31.4588 28.192 31.4431C28.1709 31.4275 28.1468 31.4165 28.1212 31.4109C28.0957 31.4052 28.0692 31.405 28.0435 31.4103C28.0179 31.4156 27.9936 31.4263 27.9724 31.4416C27.733 31.6212 26.8951 31.7094 26.3218 31.4416C25.5438 31.0794 25.8714 30.0903 26.0824 29.9108C26.5014 29.4603 27.314 29.432 27.3424 29.432C27.44 29.432 27.5408 29.3186 27.4936 29.2209C27.4463 29.1233 27.1314 27.9011 27.0432 27.4822C27.8504 27.0378 28.5237 26.3852 28.993 25.5922C29.4648 25.4536 29.9724 25.508 30.4041 25.7434C30.4236 25.7558 30.4454 25.7641 30.4682 25.7678C30.491 25.7715 30.5143 25.7705 30.5367 25.7649C30.5591 25.7593 30.5801 25.7492 30.5985 25.7352C30.6169 25.7212 30.6322 25.7037 30.6435 25.6836C30.6574 25.6645 30.667 25.6427 30.6715 25.6196C30.676 25.5965 30.6754 25.5727 30.6697 25.5498C30.6639 25.527 30.6533 25.5057 30.6384 25.4874C30.6236 25.4692 30.6049 25.4544 30.5837 25.4442C30.1838 25.2165 29.7182 25.1321 29.2639 25.2048C29.8245 24.1727 30.2189 23.0586 30.4325 21.9036C31.812 22.0465 33.0926 22.6857 34.036 23.7022C33.7489 23.7633 33.4812 23.8937 33.256 24.082C33.0309 24.2703 32.8553 24.5109 32.7445 24.7827C32.7355 24.8024 32.7306 24.8238 32.7304 24.8455C32.7301 24.8672 32.7344 24.8887 32.7431 24.9086C32.7517 24.9285 32.7644 24.9464 32.7804 24.9611C32.7964 24.9757 32.8153 24.9869 32.8359 24.9937C32.9241 25.0221 33.0438 24.9622 33.0438 24.9024C33.0438 24.8425 33.406 24.0015 34.2754 24.0015C34.4235 24.2125 34.6062 24.4519 34.7542 24.6945C33.0154 25.1134 33.2548 26.975 33.3147 27.1546C33.1311 27.1797 32.95 27.2198 32.7729 27.2743C32.6249 26.8553 32.4359 26.3482 32.2658 25.8631C32.2526 25.8199 32.2233 25.7835 32.1841 25.7612C32.1448 25.7389 32.0985 25.7326 32.0547 25.7434C32.0329 25.7492 32.0124 25.7593 31.9946 25.7731C31.9767 25.787 31.9618 25.8042 31.9506 25.8238C31.9395 25.8435 31.9324 25.8651 31.9297 25.8876C31.927 25.91 31.9288 25.9327 31.935 25.9544C32.0831 26.4049 32.25 26.8994 32.4453 27.3656C32.1553 27.484 31.8903 27.6561 31.6641 27.8728C31.5076 27.5344 31.258 27.2475 30.9446 27.0456C30.6311 26.8437 30.2667 26.7351 29.8938 26.7325C29.5138 26.7325 29.1423 26.8452 28.8263 27.0563C28.5104 27.2674 28.2641 27.5675 28.1187 27.9186C27.9732 28.2697 27.9352 28.6561 28.0093 29.0288C28.0834 29.4015 28.2664 29.7439 28.5352 30.0126C28.8039 30.2814 29.1463 30.4643 29.519 30.5385C29.8917 30.6126 30.2781 30.5746 30.6292 30.4291C30.9803 30.2837 31.2804 30.0374 31.4915 29.7215C31.7026 29.4055 31.8153 29.034 31.8153 28.6539C31.8091 28.5023 31.7891 28.3515 31.7555 28.2035C31.9716 27.9634 32.2414 27.7778 32.543 27.6617C32.658 27.9973 32.8091 28.3194 32.9934 28.6224C33.1131 28.7421 33.7746 28.7421 33.8344 28.7421C33.7226 28.9911 33.592 29.2312 33.4438 29.4603C33.4304 29.4798 33.4213 29.5018 33.4171 29.5251C33.4128 29.5483 33.4136 29.5721 33.4192 29.5951C33.4249 29.618 33.4353 29.6394 33.4499 29.658C33.4644 29.6766 33.4828 29.6919 33.5037 29.7029C33.5437 29.7254 33.5908 29.7317 33.6353 29.7206C33.6798 29.7095 33.7184 29.6817 33.7431 29.643C34.5085 28.3831 34.2565 28.4398 33.6234 28.3831C33.4712 28.3815 33.3198 28.3603 33.1729 28.3201C33.0416 28.0722 32.936 27.8115 32.8579 27.542C33.032 27.4754 33.2165 27.4402 33.4029 27.4381C33.5259 27.6816 33.6994 27.896 33.9119 28.0671C34.1244 28.2383 34.3709 28.3621 34.6351 28.4303C34.8992 28.4986 35.1748 28.5098 35.4436 28.463C35.7124 28.4163 35.9681 28.3128 36.1937 28.1594C36.6561 29.1986 36.8103 30.3488 36.6379 31.4731C36.2189 33.8419 34.4802 34.2041 34.3888 34.2041C34.3453 34.219 34.3074 34.247 34.2804 34.2842C34.2533 34.3214 34.2384 34.366 34.2376 34.412C34.2466 34.4535 34.2691 34.4909 34.3016 34.5182C34.3341 34.5456 34.3747 34.5614 34.4172 34.5632C34.7322 34.4844 35.0352 34.3636 35.318 34.2041C35.5291 34.6829 35.8882 35.4925 35.9795 35.7035C35.9232 36.0147 35.7966 36.309 35.6094 36.5639C35.4222 36.8188 35.1792 37.0277 34.8991 37.1745C33.9699 37.6313 32.7382 37.143 32.4075 36.995C32.3823 36.3934 32.0201 34.8625 32.0201 34.8026H32.0232ZM31.5098 28.698C31.5098 29.0095 31.4174 29.3141 31.2443 29.5731C31.0713 29.8321 30.8253 30.0339 30.5375 30.1531C30.2497 30.2723 29.9331 30.3035 29.6275 30.2428C29.322 30.182 29.0414 30.032 28.8211 29.8117C28.6009 29.5915 28.4509 29.3108 28.3901 29.0053C28.3293 28.6998 28.3605 28.3831 28.4797 28.0953C28.5989 27.8075 28.8008 27.5616 29.0598 27.3885C29.3188 27.2154 29.6233 27.1231 29.9348 27.1231C30.3505 27.1296 30.7473 27.2976 31.0413 27.5916C31.3353 27.8855 31.5033 28.2824 31.5098 28.698ZM23.6349 50.1838C23.6107 50.1945 23.5842 50.1993 23.5577 50.1978C23.5313 50.1962 23.5055 50.1884 23.4827 50.1749C23.4598 50.1615 23.4405 50.1428 23.4263 50.1203C23.4122 50.0979 23.4035 50.0725 23.4012 50.0461C23.3988 50.0196 23.4027 49.993 23.4127 49.9685C23.4226 49.9439 23.4383 49.922 23.4584 49.9047C23.4784 49.8874 23.5024 49.8751 23.5281 49.8688C23.5539 49.8626 23.5808 49.8626 23.6066 49.8688C23.7263 49.8688 24.6271 49.7806 25.9155 49.6609C26.6053 46.8984 27.9881 43.2382 27.9881 43.2067C28.004 43.1649 28.0358 43.1311 28.0766 43.1128C28.1173 43.0945 28.1637 43.0932 28.2055 43.109C28.2473 43.1249 28.281 43.1567 28.2993 43.1975C28.3176 43.2382 28.319 43.2846 28.3031 43.3264C28.3031 43.3579 26.9518 46.8984 26.262 49.6263C28.9016 49.4184 32.7445 49.2073 34.4518 49.5664C34.4956 49.5819 34.5336 49.6104 34.5606 49.6482C34.5876 49.6859 34.6024 49.731 34.603 49.7775C34.603 49.8058 34.4833 50.4358 34.4203 50.7067C34.401 50.7382 34.3719 50.7625 34.3374 50.776C34.303 50.7895 34.2651 50.7914 34.2296 50.7814C34.194 50.7714 34.1626 50.7501 34.1402 50.7207C34.1177 50.6913 34.1055 50.6554 34.1053 50.6185C34.1725 50.382 34.222 50.1409 34.2534 49.8971C31.4499 49.3585 23.7231 50.1397 23.6475 50.168L23.6349 50.1838ZM37.019 56.2474C36.6793 55.1048 36.0958 54.0494 35.3086 53.1542C35.2764 53.1224 35.233 53.1048 35.1878 53.1051C35.1426 53.1054 35.0994 53.1236 35.0676 53.1558C35.0359 53.1879 35.0182 53.2314 35.0185 53.2766C35.0188 53.3218 35.037 53.365 35.0692 53.3967C35.0692 53.3967 36.4111 54.8615 36.7198 56.5152C36.8804 57.3846 36.5087 57.4602 36.4489 57.4161C36.1339 55.7371 34.918 53.9354 34.8739 53.8472C34.8487 53.8091 34.8102 53.7818 34.7658 53.7707C34.7215 53.7596 34.6747 53.7656 34.6345 53.7873C34.598 53.8139 34.572 53.8524 34.5611 53.8961C34.5501 53.9399 34.5549 53.9861 34.5747 54.0267C34.5747 54.0551 35.8346 55.8852 36.1496 57.4917C36.1181 57.9106 35.7874 57.8823 35.6992 57.8508C35.548 56.3199 34.5274 54.7292 34.4991 54.6693C34.472 54.6326 34.4329 54.6065 34.3886 54.5955C34.3443 54.5846 34.2976 54.5895 34.2565 54.6095C34.22 54.636 34.194 54.6745 34.1831 54.7183C34.1721 54.7621 34.177 54.8083 34.1967 54.8489C34.1967 54.8804 35.2173 56.4711 35.3369 57.9421C35.3086 58.4209 34.9117 58.0618 34.4676 56.7105C34.249 55.9306 33.9469 55.1765 33.5667 54.4614C33.8061 53.4093 34.1967 51.428 34.1967 51.428C34.2565 51.428 35.3999 51.8344 36.4772 53.8314C37.4569 55.6741 37.0316 56.2317 37.0316 56.2317L37.019 56.2474ZM37.2899 53.9354C37.2081 54.0242 37.0954 54.0783 36.9749 54.0866C36.6842 53.3861 36.2667 52.7454 35.7433 52.1966C37.1828 52.6911 37.4821 53.7401 37.3025 53.9196L37.2899 53.9354ZM50.3748 27.227C50.4336 26.904 50.3803 26.5706 50.2236 26.282C49.9338 25.9922 47.0138 24.1149 47.2847 23.6424C47.5556 23.1699 48.2297 23.7621 48.7242 24.0928C49.1148 24.4078 49.3542 24.5716 49.5337 24.4519C49.7133 24.3322 49.6912 24.118 49.0549 22.5021C48.7588 21.7493 48.425 20.8767 48.2139 20.1586C47.8706 19.0435 47.8548 18.9301 48.0029 18.8702C48.3651 18.6907 49.4014 20.9649 49.8046 22.1115C49.8225 22.1514 49.8525 22.1845 49.8905 22.206C49.9285 22.2275 49.9723 22.2364 50.0157 22.2312L50.4063 22.1399C50.4496 22.1281 50.4866 22.0996 50.509 22.0606C50.5314 22.0217 50.5375 21.9754 50.526 21.932C50.526 21.932 50.3086 20.9114 50.1637 19.8593C49.9149 18.0292 50.1039 17.6985 50.1354 17.6544C50.1952 17.6827 50.4504 17.8937 50.8252 19.664C51.0299 20.6562 51.1402 21.6453 51.1402 21.6737C51.1442 21.7174 51.1653 21.7579 51.1989 21.7862C51.2325 21.8145 51.2759 21.8284 51.3197 21.8249L51.8899 21.765C51.91 21.7659 51.93 21.7626 51.9488 21.7553C51.9675 21.7481 51.9846 21.737 51.9988 21.7227C52.013 21.7085 52.0241 21.6915 52.0314 21.6727C52.0387 21.654 52.042 21.6339 52.0411 21.6138C52.1891 19.7239 52.46 18.3725 52.6396 18.1489C52.8191 18.4639 52.7593 20.1271 52.6112 21.6138C52.6077 21.6571 52.6212 21.7001 52.6488 21.7336C52.6765 21.7672 52.7161 21.7886 52.7593 21.7934L53.1814 21.8532C53.2166 21.8576 53.2524 21.8515 53.2843 21.8359C53.3162 21.8202 53.3428 21.7956 53.3609 21.765C53.972 20.5051 54.5012 19.6325 54.7406 19.3931C54.7406 19.9822 54.0003 21.8406 53.931 22.184C53.7357 25.1197 52.6112 25.6143 52.46 27.1357C51.8584 27.1514 51.0488 27.1798 50.3874 27.2113L50.3748 27.227Z" fill="#414141"/>
<path d="M34.4321 27.3644C34.4756 27.3679 34.5191 27.358 34.5569 27.336C34.5946 27.314 34.6247 27.2811 34.6432 27.2416C34.7085 26.9278 34.8771 26.6449 35.122 26.4382C35.367 26.2315 35.6742 26.1129 35.9945 26.1013C36.0411 26.0983 36.0851 26.0784 36.1181 26.0454C36.1512 26.0123 36.1711 25.9684 36.174 25.9217C36.1704 25.8753 36.1503 25.8317 36.1174 25.7988C36.0845 25.7659 36.0409 25.7458 35.9945 25.7422C34.6148 25.7422 34.3124 27.1219 34.3124 27.1534C34.3016 27.1972 34.3079 27.2435 34.3302 27.2827C34.3525 27.322 34.3889 27.3512 34.4321 27.3644Z" fill="#414141"/>
<path d="M28.6906 28.5332C28.67 28.545 28.6518 28.5607 28.6372 28.5795C28.6226 28.5984 28.6119 28.6199 28.6056 28.6428C28.5993 28.6658 28.5976 28.6897 28.6005 28.7134C28.6035 28.737 28.6111 28.7598 28.6229 28.7805C28.6347 28.8012 28.6504 28.8193 28.6693 28.8339C28.6881 28.8485 28.7096 28.8593 28.7325 28.8655C28.7555 28.8718 28.7795 28.8735 28.8031 28.8706C28.8267 28.8676 28.8495 28.86 28.8702 28.8482C29.0907 28.7024 29.3347 28.5958 29.5915 28.5332C29.8218 28.4701 30.0636 28.4617 30.2977 28.5088C30.5318 28.5558 30.7517 28.6569 30.9397 28.8041C30.9712 28.8324 30.9995 28.8324 31.0594 28.8324C31.083 28.8321 31.1063 28.8266 31.1275 28.8162C31.1487 28.8059 31.1674 28.791 31.1822 28.7726C31.1978 28.7556 31.2095 28.7355 31.2164 28.7135C31.2233 28.6916 31.2254 28.6684 31.2224 28.6456C31.2194 28.6227 31.2114 28.6008 31.199 28.5814C31.1866 28.562 31.1702 28.5456 31.1507 28.5332C30.0703 27.6323 28.6906 28.5332 28.6906 28.5332Z" fill="#414141"/>
<path d="M34.544 30.0919C33.7281 30.3156 32.2319 30.7534 32.2319 30.7534C32.0807 30.7849 32.1122 30.9329 32.1122 30.9928C32.2258 31.2515 32.4097 31.473 32.6431 31.6323C32.8764 31.7916 33.1498 31.8821 33.432 31.8937C33.6337 31.8901 33.8321 31.842 34.013 31.7529C34.1939 31.6638 34.3529 31.5358 34.4787 31.3781C34.6045 31.2205 34.6939 31.037 34.7405 30.8408C34.7872 30.6446 34.79 30.4405 34.7487 30.2431C34.7453 30.2197 34.7372 30.1972 34.725 30.177C34.7129 30.1567 34.6968 30.139 34.6778 30.125C34.6587 30.1109 34.6371 30.1008 34.6142 30.0951C34.5912 30.0894 34.5674 30.0883 34.544 30.0919ZM33.8037 31.4747C33.5783 31.5506 33.3337 31.5473 33.1104 31.4654C32.887 31.3835 32.6983 31.2279 32.5753 31.0243C32.9659 30.9046 33.8352 30.6652 34.4652 30.4825C34.471 30.696 34.4105 30.906 34.2921 31.0837C34.1736 31.2614 34.003 31.398 33.8037 31.4747Z" fill="#414141"/>
<path d="M27.3392 30.4816C27.113 30.4222 26.8823 30.3822 26.6493 30.3619C26.6055 30.3584 26.5621 30.3723 26.5285 30.4006C26.4949 30.4289 26.4738 30.4693 26.4698 30.5131C26.4663 30.5564 26.4797 30.5994 26.5074 30.6329C26.535 30.6664 26.5747 30.6878 26.6178 30.6926C26.8308 30.715 27.0415 30.755 27.2478 30.8123C27.2793 30.8123 27.4305 30.8438 27.4589 30.6926C27.4645 30.6492 27.4559 30.6051 27.4343 30.5671C27.4127 30.529 27.3793 30.499 27.3392 30.4816Z" fill="#414141"/>
<path d="M44.1153 28.237C44.105 28.1987 44.0811 28.1654 44.0481 28.1434C44.015 28.1214 43.9751 28.1121 43.9358 28.1173L43.6208 28.1771L43.5011 27.5157C43.5005 27.4945 43.4948 27.4739 43.4846 27.4554C43.4743 27.4369 43.4598 27.4211 43.4422 27.4094C43.4247 27.3977 43.4045 27.3904 43.3835 27.388C43.3625 27.3857 43.3413 27.3884 43.3215 27.396C43.3004 27.3966 43.2798 27.4022 43.2613 27.4125C43.2428 27.4227 43.227 27.4372 43.2153 27.4548C43.2036 27.4724 43.1963 27.4925 43.1939 27.5135C43.1916 27.5345 43.1943 27.5558 43.2018 27.5755L43.3215 28.2653C43.1703 28.2968 43.0507 28.3252 43.0066 28.3252C42.968 28.3362 42.9347 28.3607 42.9127 28.3942C42.8907 28.4278 42.8815 28.4681 42.8869 28.5079C42.8993 28.5388 42.9194 28.566 42.9453 28.587C42.9712 28.6079 43.0021 28.6219 43.0349 28.6276C43.0349 28.6276 43.2144 28.5961 43.3499 28.5677L43.4381 29.0182C43.4414 29.0381 43.4488 29.0572 43.4598 29.0741C43.4708 29.0911 43.4852 29.1056 43.502 29.1169C43.5188 29.1281 43.5377 29.1357 43.5576 29.1393C43.5775 29.1429 43.5979 29.1424 43.6176 29.1379C43.709 29.1064 43.7688 29.0465 43.7373 28.9552L43.6491 28.4764C43.7467 28.4468 43.8469 28.4267 43.9484 28.4165C43.9727 28.4231 43.9984 28.4229 44.0227 28.416C44.0469 28.409 44.0688 28.3956 44.086 28.3771C44.1032 28.3586 44.115 28.3358 44.1202 28.3111C44.1253 28.2864 44.1237 28.2608 44.1153 28.237Z" fill="#414141"/>
<path d="M54.8595 13.8568H54.5445V13.378C54.5476 13.3566 54.5461 13.3347 54.54 13.3139C54.5339 13.293 54.5234 13.2738 54.5092 13.2574C54.495 13.2409 54.4774 13.2278 54.4577 13.2188C54.438 13.2097 54.4165 13.2051 54.3948 13.2051C54.3731 13.2051 54.3517 13.2097 54.332 13.2188C54.3122 13.2278 54.2947 13.2409 54.2805 13.2574C54.2663 13.2738 54.2558 13.293 54.2497 13.3139C54.2436 13.3347 54.2421 13.3566 54.2452 13.378V13.8568H54.0342C54.0127 13.8537 53.9908 13.8552 53.97 13.8613C53.9492 13.8674 53.9299 13.8779 53.9135 13.8921C53.8971 13.9063 53.8839 13.9239 53.8749 13.9436C53.8659 13.9633 53.8612 13.9848 53.8612 14.0065C53.8612 14.0282 53.8659 14.0496 53.8749 14.0693C53.8839 14.0891 53.8971 14.1066 53.9135 14.1208C53.9299 14.135 53.9492 14.1455 53.97 14.1516C53.9908 14.1577 54.0127 14.1592 54.0342 14.1561H54.2452V14.638C54.2421 14.6595 54.2436 14.6814 54.2497 14.7022C54.2558 14.723 54.2663 14.7423 54.2805 14.7587C54.2947 14.7751 54.3122 14.7883 54.332 14.7973C54.3517 14.8063 54.3731 14.811 54.3948 14.811C54.4165 14.811 54.438 14.8063 54.4577 14.7973C54.4774 14.7883 54.495 14.7751 54.5092 14.7587C54.5234 14.7423 54.5339 14.723 54.54 14.7022C54.5461 14.6814 54.5476 14.6595 54.5445 14.638V14.1561H54.8595C54.8954 14.1508 54.9283 14.1328 54.952 14.1054C54.9758 14.0779 54.9889 14.0428 54.9889 14.0065C54.9889 13.9701 54.9758 13.935 54.952 13.9075C54.9283 13.8801 54.8954 13.8621 54.8595 13.8568Z" fill="#414141"/>
<path d="M59.058 16.3187C59.0421 16.3206 59.026 16.3191 59.0108 16.3142C58.9955 16.3093 58.9815 16.3012 58.9698 16.2903C58.9499 16.2784 58.933 16.2621 58.9203 16.2427C58.9075 16.2233 58.8994 16.2012 58.8963 16.1782C58.8933 16.1552 58.8955 16.1318 58.9028 16.1098C58.91 16.0878 58.9222 16.0676 58.9383 16.0509C59.5178 15.2276 60.0018 14.3409 60.3809 13.4081C60.397 13.369 60.4279 13.3379 60.4668 13.3214C60.5057 13.3048 60.5496 13.3043 60.5888 13.3199C60.6093 13.3264 60.6282 13.3372 60.6442 13.3516C60.6601 13.366 60.6729 13.3836 60.6815 13.4032C60.6902 13.4229 60.6945 13.4442 60.6943 13.4657C60.6941 13.4872 60.6893 13.5084 60.6802 13.5278C60.066 15.3076 59.1178 16.3187 59.058 16.3187Z" fill="#414141"/>
<path d="M59.0591 17.82C58.8796 17.82 58.8512 17.6089 58.9709 17.4892C58.9993 17.4892 60.5459 16.6923 61.8815 14.7299C61.9091 14.694 61.9498 14.6705 61.9947 14.6645C62.0396 14.6586 62.085 14.6708 62.1209 14.6984C62.1568 14.7259 62.1803 14.7667 62.1862 14.8116C62.1921 14.8564 62.1799 14.9018 62.1524 14.9378C61.371 16.1357 60.3092 17.1251 59.0591 17.82Z" fill="#414141"/>
<path d="M43.725 16.8599C43.0787 16.6696 42.4969 16.3057 42.043 15.8079C42.0142 15.7746 41.9983 15.7321 41.9983 15.6882C41.9983 15.6442 42.0142 15.6017 42.043 15.5685C42.0767 15.5394 42.1197 15.5234 42.1642 15.5234C42.2087 15.5234 42.2518 15.5394 42.2855 15.5685C42.6979 15.9894 43.1995 16.3123 43.7534 16.5134C43.7765 16.5185 43.7984 16.5283 43.8176 16.5422C43.8368 16.5561 43.8529 16.5738 43.865 16.5941C43.8772 16.6145 43.8849 16.6371 43.888 16.6606C43.891 16.6842 43.8891 16.708 43.8825 16.7308C43.8814 16.7499 43.8763 16.7685 43.8677 16.7856C43.859 16.8026 43.8468 16.8177 43.8321 16.8298C43.8173 16.842 43.8001 16.8509 43.7817 16.8561C43.7633 16.8613 43.744 16.8626 43.725 16.8599Z" fill="#414141"/>
<path d="M43.6329 17.4299C43.0823 17.4026 42.5378 17.3019 42.0138 17.1307C41.992 17.1248 41.9715 17.1147 41.9537 17.1009C41.9358 17.0871 41.9209 17.0699 41.9097 17.0502C41.8986 17.0306 41.8915 17.0089 41.8888 16.9865C41.8861 16.9641 41.8879 16.9413 41.8941 16.9196C41.8996 16.8979 41.9094 16.8775 41.9229 16.8597C41.9364 16.8418 41.9533 16.8269 41.9727 16.8157C41.9921 16.8046 42.0135 16.7974 42.0357 16.7947C42.058 16.792 42.0805 16.7938 42.102 16.7999C42.5976 16.9595 43.1126 17.0506 43.6329 17.0708C43.6801 17.073 43.7248 17.0926 43.7585 17.1257C43.7922 17.1588 43.8125 17.2032 43.8156 17.2504C43.7841 17.3386 43.7242 17.4299 43.6329 17.4299Z" fill="#414141"/>
<path d="M47.9556 15.1777C47.9556 15.1777 46.8247 15.1777 46.516 14.2327C46.4829 14.1459 46.4627 14.0546 46.4562 13.9618C46.156 13.9778 45.8572 13.9107 45.5927 13.7679C45.3282 13.625 45.1082 13.4121 44.9568 13.1523C44.8317 12.9096 44.7639 12.6415 44.7584 12.3685C44.753 12.0955 44.81 11.8249 44.9253 11.5773C44.9915 11.382 45.3758 11.5332 45.2246 11.7569C45.1335 11.9554 45.0889 12.1721 45.0944 12.3905C45.0998 12.6089 45.1552 12.8231 45.2561 13.0169C45.3745 13.2188 45.5462 13.3843 45.7522 13.4954C45.9583 13.6065 46.1909 13.6589 46.4247 13.6468C46.4833 13.3523 46.6071 13.0746 46.7869 12.8342C46.866 12.7247 46.9782 12.6435 47.1069 12.6027C47.2356 12.5618 47.374 12.5633 47.5018 12.6071C47.6295 12.6509 47.7398 12.7345 47.8164 12.8457C47.893 12.9569 47.9319 13.0898 47.9272 13.2248C47.8359 13.5838 47.4768 13.9461 46.7554 13.9744C46.7554 14.5036 47.4075 14.7777 47.9272 14.8753C48.0532 14.9226 48.1918 15.1777 47.9556 15.1777ZM47.1177 13.0169C46.9794 13.1801 46.886 13.3766 46.8468 13.587C47.3854 13.5271 47.6248 13.272 47.6563 13.1082C47.6626 12.9885 47.4169 12.7176 47.1177 13.0169Z" fill="#7BD2FF"/>
<path d="M60.7093 31.0859C60.1793 31.0877 59.667 30.8949 59.2697 30.5441C58.8452 30.1945 58.5583 29.7056 58.4602 29.1644C58.4602 29.1168 58.4791 29.0711 58.5128 29.0375C58.5465 29.0038 58.5921 28.9849 58.6398 28.9849C58.6874 28.9849 58.733 29.0038 58.7667 29.0375C58.8004 29.0711 58.8193 29.1168 58.8193 29.1644C58.9183 29.6098 59.1607 30.0103 59.5091 30.3047C59.7222 30.4904 59.9748 30.6249 60.2478 30.6981C60.5207 30.7712 60.8068 30.781 61.0841 30.7268C61.2697 30.7023 61.4457 30.6295 61.5944 30.5158C61.4061 30.4019 61.2444 30.2492 61.12 30.0677C60.9955 29.8863 60.9114 29.6803 60.8731 29.4637C60.8384 28.9849 61.1881 28.4147 61.8621 28.8337C62.3189 29.1235 62.3724 30.0212 62.1047 30.4087C62.133 30.4087 63.2828 31.1079 64.7128 29.6905C64.7466 29.6614 64.7896 29.6455 64.8341 29.6455C64.8786 29.6455 64.9217 29.6614 64.9554 29.6905C64.9842 29.7237 65.0001 29.7662 65.0001 29.8102C65.0001 29.8541 64.9842 29.8966 64.9554 29.9299C63.7175 31.1237 62.615 30.9505 62.0732 30.7394C62.0133 30.7111 61.9535 30.7111 61.8936 30.6796C61.5636 30.9585 61.141 31.1035 60.7093 31.0859ZM61.207 29.4038C61.2456 29.5773 61.3221 29.7402 61.431 29.8807C61.5399 30.0211 61.6785 30.1358 61.8369 30.2165C61.8606 30.1439 61.8901 30.0733 61.9251 30.0055C62.1519 29.0164 61.1597 28.6541 61.207 29.4038Z" fill="#7BD2FF"/>
</svg>
