<svg width="70" height="70" viewBox="0 0 70 70" fill="none" xmlns="http://www.w3.org/2000/svg">
<rect width="70" height="70" rx="10" fill="#E7F8FF"/>
<path d="M60.4002 56.023C60.267 54.3853 59.3802 52.603 59.2239 50.995C58.9482 48.355 60.0039 46.015 58.6041 43.4893C57.7493 42.0041 56.5435 40.751 55.0923 39.8398C49.8306 36.4519 41.0205 36.2698 34.7958 36.9133C27.9432 37.6231 16.8801 38.9851 12.0096 43.8565C9.27958 46.5175 8.58958 50.7133 9.29338 54.5113C8.72844 55.6032 8.29202 56.757 7.99288 57.9496C7.80928 58.7296 7.39618 60.1996 7.80928 61.0024L7.97008 61.2319C9.00298 67.0162 62.3001 59.6719 62.3001 59.6719L62.3688 59.6491C61.9959 58.3552 61.2465 57.1681 60.4002 56.023Z" fill="#7BD2FF"/>
<path d="M44.6823 20.5584C45.18 21.2523 45.9723 21.888 46.6152 22.4616C46.754 21.7412 46.856 21.0143 46.9209 20.2836C46.9038 19.9062 46.9347 19.5282 47.0127 19.1586C47.2356 18.5136 48.0462 18.3555 47.7927 17.5521C47.6132 17.128 47.2757 16.7905 46.8516 16.611C46.0375 16.2017 45.1732 15.9008 44.2809 15.7161C43.626 15.5721 42.3309 15.2061 41.7048 15.414C43.1001 16.4601 43.6263 19.0866 44.6823 20.5584Z" fill="white"/>
<path d="M41.1362 51.4531C40.3328 51.7531 39.4862 53.2678 39.0704 54.0466C38.9108 54.3466 38.5724 54.9394 38.7032 55.3093C38.8484 55.7197 39.7361 54.7813 39.8732 54.6193C39.8963 54.5965 40.2176 54.2062 40.2176 54.3211C40.2176 54.7111 39.9719 55.2178 39.8732 55.6063C39.6593 56.3775 39.5361 57.1709 39.506 57.9706C39.5015 58.2919 39.4574 59.0533 39.7355 59.233C40.1096 59.4745 40.6121 57.145 40.6994 56.7082C40.7597 56.4058 40.8362 56.107 40.9289 55.813C40.9271 56.0974 40.9041 56.3813 40.8602 56.6623C40.7663 57.4327 40.7739 58.2121 40.883 58.9804C40.9067 59.1409 40.9748 59.5543 41.1587 59.6002C41.3426 59.6461 41.4341 59.164 41.48 59.0263C41.7164 58.1398 41.9453 55.9507 42.0308 55.9507C42.1226 56.0425 42.0308 56.6407 42.0308 56.7541C42.0308 57.3967 41.87 59.233 42.4439 59.5543C42.6965 59.7148 42.809 58.957 42.8339 58.7968C42.9602 57.9916 43.0634 57.19 43.1093 56.3866C43.1093 56.272 43.0862 55.6522 43.2011 55.5604C43.3337 55.9585 43.3748 58.0165 43.8911 58.0165C44.5232 58.0165 44.2337 53.7439 44.5568 51.5896H44.3732C43.661 51.7744 41.8937 51.6367 41.1362 51.4531Z" fill="white"/>
<path d="M26.9976 52.416H26.8371C26.2632 52.5996 24.381 52.806 23.5551 52.6227L23.5089 52.7832C23.3979 55.0353 22.4871 58.2132 23.0727 58.338C23.4867 58.4253 23.8791 57.0765 23.9679 56.778C24.0153 56.6178 24.0792 56.4558 24.1284 56.2959C24.1485 56.223 24.1794 56.1534 24.2202 56.0895C24.3237 56.2272 23.9715 57.4719 23.9448 59.3259C23.9427 59.4864 23.9238 60.2484 24.1974 60.1521C24.8208 59.9328 25.0314 58.0839 25.1385 57.4665C25.1586 57.3513 25.1844 56.7321 25.299 56.6634C25.3338 57.1839 25.203 58.0824 25.2303 59.7849C25.2324 59.9226 25.2531 60.4047 25.4367 60.4047C25.6203 60.4047 25.7583 60.0147 25.8267 59.8536C26.0828 59.1207 26.2372 58.3562 26.2857 57.5814C26.2896 57.3036 26.3205 57.027 26.3775 56.7552C26.4006 56.7552 26.4234 57.6273 26.4234 57.6963C26.4174 58.4025 26.4633 59.1081 26.5614 59.8077C26.5818 59.946 26.6514 60.4452 26.8614 60.3588C27.1566 60.2364 27.2694 59.4858 27.3204 59.1651C27.4422 58.3749 27.4722 57.5733 27.4098 56.7762C27.3816 56.3862 27.2262 55.8351 27.318 55.4451C27.3411 55.3074 27.5934 55.7664 27.6165 55.7892C27.7311 55.9728 28.4148 57.0492 28.6263 56.6844C28.8282 56.3373 28.6011 55.698 28.5117 55.3761C28.2768 54.5295 27.7551 52.8762 26.9976 52.416Z" fill="white"/>
<path d="M52.2239 26.5256C51.4205 25.4696 50.3339 24.3878 49.1039 23.8856C47.6015 23.273 42.8477 23.3624 42.5393 23.4035C42.6162 23.5968 42.6263 23.8101 42.5681 24.0097C42.5099 24.2093 42.3867 24.3838 42.218 24.5054C42.0115 24.6385 41.8192 24.7923 41.6441 24.9644C41.3918 25.2629 41.4212 25.7024 41.231 26.0444C40.9202 26.6012 39.854 26.6411 39.4406 26.1593L39.4178 26.0903C40.4978 25.6313 41.4605 24.0245 40.4507 23.1293C40.3041 23.0041 40.1285 22.9174 39.9399 22.8773C39.7512 22.8373 39.5556 22.845 39.3707 22.8998C39.2057 22.964 39.0508 23.0516 38.9108 23.1599C38.8808 22.691 38.8208 22.0433 38.8208 21.8441C38.1551 21.9587 37.5122 21.6602 36.8708 21.2471C36.5954 21.0635 36.1808 20.5205 35.8379 20.4899C35.6309 20.4713 35.5397 21.1094 35.4479 21.2243C35.0804 21.7979 34.3232 21.293 33.9557 20.9717C33.2492 20.2294 32.7574 19.3092 32.5328 18.3092C29.0828 18.3092 27.5957 20.9936 27.8963 24.0017C27.923 24.1457 27.9383 24.2912 27.9422 24.4376C27.9422 24.3176 27.0191 24.0224 26.4722 24.6902C25.769 25.5506 26.5181 26.687 27.4364 27.1691C27.0383 27.7658 25.2683 27.7607 24.8657 26.687C24.6821 26.1821 24.8885 25.6541 24.7508 25.127C24.5903 24.5759 23.9627 24.4181 24.0854 23.7497C24.1597 23.4726 24.2923 23.2146 24.4745 22.9929C24.6566 22.7712 24.884 22.5909 25.1414 22.4642C25.4624 22.2806 25.8614 22.1714 26.0822 21.8672C26.51 21.2813 26.4953 20.3972 26.7938 19.7558C27.4802 18.23 29.1188 16.6553 30.7196 16.2596C31.2896 15.314 33.6035 14.4296 34.3685 14.1995C34.8357 14.0556 35.3122 13.9439 35.7947 13.865C35.657 13.5896 34.6667 13.421 34.4369 13.352C32.5882 12.9583 30.6794 12.9382 28.8228 13.293C26.9663 13.6477 25.1994 14.3702 23.6261 15.4178C22.5704 16.1078 21.6521 17.0015 20.5961 17.6678C19.4714 18.3794 18.1511 18.1058 16.9697 18.6089C16.7311 18.7046 16.5129 18.8448 16.3268 19.022C15.1103 20.2385 16.2122 21.5927 17.1761 22.6256C16.5809 23.3864 16.8002 26.6501 16.8689 27.6113C16.4819 27.8252 14.9939 29.3318 14.0993 31.1621C12.1493 34.9031 11.6204 39.7235 11.9876 43.9238C14.3516 41.5838 17.7947 40.1825 21.3065 39.2414C21.5867 36.8864 22.4815 34.6465 23.9009 32.7464C25.9778 30.0695 28.3043 29.4683 29.4785 29.0264C30.1717 29.8513 31.1009 30.444 32.141 30.725C32.141 31.3508 32.975 32.225 34.115 32.3087C35.5382 32.4005 36.455 31.3904 36.455 30.4487L36.3404 30.2648C37.2567 29.7651 37.9709 28.9625 38.3609 27.9944C38.8598 28.2446 41.1842 28.259 43.8926 31.6898C45.0742 33.2458 45.8831 35.0522 46.2569 36.9698H46.2797C49.3733 37.4198 52.5116 38.1821 55.1405 39.8744C55.1009 35.5064 54.8609 29.9336 52.2239 26.5256Z" fill="white"/>
<path d="M45.6124 34.8114C45.1957 33.6988 44.6155 32.6545 43.891 31.713C41.2717 28.323 38.8234 28.2495 38.3593 28.0176C37.9702 28.9864 37.2562 29.7897 36.3397 30.2898L36.4543 30.4734C36.4543 31.3914 35.5357 32.4312 34.1143 32.3334C33.7108 32.3093 33.3205 32.1802 32.9823 31.9587C32.6441 31.7373 32.3696 31.4312 32.1862 31.071C32.1402 30.9706 32.1243 30.859 32.1403 30.7497C31.285 30.5239 30.5023 30.0813 29.8681 29.4645C29.7292 29.328 29.6155 29.1891 29.4781 29.0514L29.2945 29.1201C28.6345 29.1201 22.45 31.0911 21.307 39.2652C20.794 42.933 21.3286 47.886 22.5694 51.2925C22.7905 51.8994 22.9201 52.5195 23.5564 52.6698C24.5281 52.8993 26.9992 52.5498 26.9992 52.3713C27.1141 52.119 26.2657 49.5711 26.104 47.7813C25.8304 44.7513 25.8517 41.0793 26.9074 38.0952C27.1741 38.1852 33.7387 36.6492 40.6333 36.6492L40.6792 36.6264C41.8726 39.702 41.8426 43.5564 41.6431 46.7256C41.548 48.2403 40.8169 50.8113 40.7479 51.3156C40.7479 51.5541 43.4338 51.8556 44.2828 51.591C44.3287 51.5679 44.3749 51.5457 44.4205 51.522C44.8588 51.2973 44.9959 50.6736 45.1549 50.2368C46.7509 45.8499 47.1499 38.8842 45.6124 34.8114Z" fill="#005BC3"/>
<path d="M37.0512 25.7004C37.1589 25.7023 37.2656 25.68 37.3635 25.6353C37.4614 25.5906 37.5481 25.5245 37.6173 25.442C37.6864 25.3595 37.7362 25.2625 37.7631 25.1583C37.7899 25.054 37.7931 24.9451 37.7724 24.8394C37.7521 24.7337 37.7083 24.6338 37.6443 24.5472C37.5804 24.4605 37.4978 24.3893 37.4028 24.3386C37.3077 24.288 37.2025 24.2593 37.0949 24.2546C36.9873 24.2499 36.8801 24.2693 36.7809 24.3114C36.6483 24.3676 36.5355 24.4621 36.4569 24.5827C36.3784 24.7034 36.3376 24.8448 36.3399 24.9888C36.3409 25.1772 36.4161 25.3576 36.5493 25.4909C36.6825 25.6241 36.8629 25.6994 37.0512 25.7004Z" fill="#FDAF31"/>
<path d="M30.1882 26.3425C30.3827 26.3412 30.5688 26.2633 30.7063 26.1257C30.8437 25.9882 30.9215 25.802 30.9226 25.6075C30.9239 25.5107 30.9058 25.4147 30.8693 25.325C30.8328 25.2353 30.7788 25.1539 30.7103 25.0854C30.6419 25.017 30.5604 24.9629 30.4708 24.9265C30.3811 24.89 30.285 24.8719 30.1882 24.8731C29.9933 24.8731 29.8064 24.9505 29.6685 25.0884C29.5307 25.2262 29.4532 25.4132 29.4532 25.6081C29.4532 25.803 29.5307 25.99 29.6685 26.1278C29.8064 26.2657 29.9933 26.3431 30.1882 26.3431V26.3428V26.3425Z" fill="#FDAF31"/>
<path d="M28.1202 26.2037C27.8727 25.9477 27.5439 25.7859 27.1902 25.7459C27.1609 25.7412 27.1346 25.7253 27.1168 25.7017C27.099 25.678 27.0909 25.6484 27.0944 25.619C27.0979 25.5895 27.1126 25.5626 27.1355 25.5438C27.1584 25.5249 27.1876 25.5157 27.2172 25.5179C27.6243 25.5646 28.0025 25.7516 28.2867 26.0468C28.3054 26.0692 28.3148 26.0979 28.3131 26.1271C28.3113 26.1562 28.2985 26.1836 28.2773 26.2036C28.256 26.2236 28.2279 26.2348 28.1987 26.2348C28.1696 26.2348 28.1415 26.2237 28.1202 26.2037Z" fill="#414141"/>
<path d="M38.8893 24.8282C38.9736 24.4361 39.4749 24.1451 39.7713 24.0539C39.8005 24.0449 39.8319 24.0479 39.8589 24.0622C39.8858 24.0765 39.9059 24.1008 39.9149 24.1299C39.9238 24.1591 39.9209 24.1906 39.9066 24.2175C39.8923 24.2444 39.868 24.2645 39.8388 24.2735C39.5712 24.3557 39.1707 24.611 39.114 24.8762C39.1052 24.9034 39.0866 24.9263 39.0619 24.9406C39.0371 24.9549 39.008 24.9595 38.98 24.9535C38.9521 24.9475 38.9274 24.9314 38.9106 24.9083C38.8939 24.8851 38.8863 24.8566 38.8893 24.8282Z" fill="#414141"/>
<path d="M28.6642 21.4684C29.0677 20.7121 30.3046 19.9321 31.1743 20.1016C31.1891 20.1044 31.2032 20.1102 31.2158 20.1185C31.2283 20.1268 31.2392 20.1375 31.2476 20.1499C31.256 20.1624 31.2619 20.1764 31.265 20.1912C31.268 20.206 31.2681 20.2212 31.2652 20.236C31.2624 20.2508 31.2566 20.2648 31.2483 20.2774C31.24 20.29 31.2293 20.3008 31.2168 20.3092C31.2044 20.3177 31.1903 20.3236 31.1756 20.3266C31.1608 20.3296 31.1456 20.3297 31.1308 20.3269C30.3847 20.1823 29.2234 20.908 28.8667 21.5764C28.8515 21.6016 28.8272 21.6201 28.7989 21.6279C28.7705 21.6358 28.7401 21.6324 28.7142 21.6186C28.6882 21.6047 28.6685 21.5814 28.6592 21.5534C28.6499 21.5255 28.6517 21.495 28.6642 21.4684Z" fill="#414141"/>
<path d="M29.7531 24.1022C29.541 24.1029 29.3296 24.0756 29.1246 24.0209C29.0451 24.0068 28.833 23.9609 28.7946 23.8673C28.784 23.8425 28.7823 23.8149 28.7897 23.789C28.7971 23.7631 28.8133 23.7406 28.8354 23.7252C28.8576 23.7099 28.8843 23.7027 28.9112 23.7049C28.938 23.707 28.9633 23.7184 28.9827 23.7371C29.2909 23.8509 29.6207 23.8944 29.9478 23.8646C30.5625 23.8046 30.975 23.4245 31.4049 22.8746C31.4246 22.8534 31.4514 22.8405 31.4802 22.8382C31.5089 22.836 31.5375 22.8447 31.5601 22.8625C31.5828 22.8803 31.5979 22.906 31.6025 22.9345C31.6071 22.963 31.6008 22.9921 31.5849 23.0162C31.0743 23.6711 30.5802 24.1022 29.7531 24.1022Z" fill="#414141"/>
<path d="M35.5552 22.4588C35.5402 22.4335 35.5354 22.4034 35.5419 22.3747C35.5484 22.346 35.5657 22.3209 35.5901 22.3045C35.6146 22.2882 35.6444 22.2818 35.6734 22.2868C35.7024 22.2918 35.7284 22.3077 35.746 22.3313C35.7961 22.4069 35.8528 22.478 35.9155 22.5434C36.211 22.7871 36.5653 22.949 36.943 23.0128C37.3207 23.0767 37.7085 23.0401 38.0677 22.907C38.0963 22.8967 38.1278 22.8981 38.1553 22.9111C38.1828 22.924 38.2041 22.9474 38.2144 22.976C38.2247 23.0046 38.2232 23.0361 38.2103 23.0636C38.1973 23.0911 38.174 23.1124 38.1454 23.1227C37.0921 23.5034 35.9821 23.1002 35.5552 22.4588Z" fill="#414141"/>
<path d="M33.5175 25.8515C33.4731 25.4723 33.372 23.6213 33.3105 22.6781C33.3109 22.6492 33.3222 22.6214 33.3422 22.6003C33.3621 22.5793 33.3893 22.5666 33.4182 22.5647C33.4471 22.5628 33.4757 22.5719 33.4982 22.5901C33.5208 22.6084 33.5356 22.6344 33.5397 22.6631C33.5625 23.0153 33.7152 25.5677 33.7455 25.8245C33.7478 25.8541 33.7385 25.8833 33.7197 25.9062C33.7009 25.9291 33.6739 25.9438 33.6445 25.9473C33.6151 25.9508 33.5854 25.9428 33.5618 25.9249C33.5381 25.9071 33.5223 25.8808 33.5175 25.8515Z" fill="#414141"/>
<path d="M33.8402 27.7702C33.3983 27.7702 32.5925 27.5542 32.357 27.3202C32.3354 27.2987 32.3233 27.2696 32.3232 27.2391C32.3232 27.2087 32.3352 27.1795 32.3567 27.1579C32.3782 27.1363 32.4074 27.1242 32.4378 27.1241C32.4682 27.1241 32.4974 27.1361 32.519 27.1576C32.5508 27.1786 32.582 27.202 32.6111 27.2269C32.6846 27.2539 32.7551 27.2875 32.8229 27.3271C33.0467 27.4111 33.2777 27.4741 33.5129 27.5161C33.8549 27.5656 34.2036 27.5361 34.5325 27.43C34.8613 27.3238 35.1614 27.1437 35.4098 26.9035C35.4321 26.884 35.461 26.8738 35.4906 26.8751C35.5202 26.8764 35.5481 26.8891 35.5686 26.9105C35.589 26.9319 35.6005 26.9603 35.6005 26.99C35.6004 27.0196 35.589 27.048 35.5685 27.0694C35.1034 27.5156 34.485 27.7664 33.8405 27.7702H33.8402Z" fill="#414141"/>
<path d="M32.4402 27.3523C32.4108 27.3512 32.3829 27.3388 32.3624 27.3177C32.3418 27.2966 32.3302 27.2684 32.3298 27.2389C32.3295 27.2095 32.3405 27.181 32.3605 27.1595C32.3806 27.1379 32.4082 27.1249 32.4375 27.123C32.4682 27.123 32.4977 27.1349 32.5196 27.1563C32.5416 27.1777 32.5543 27.2069 32.555 27.2375C32.555 27.2679 32.5429 27.2971 32.5214 27.3187C32.4999 27.3402 32.4707 27.3523 32.4402 27.3523Z" fill="#414141"/>
<path d="M17.7483 23.4049C17.6628 23.4049 17.7081 23.3923 17.2743 22.927C16.0791 21.6451 14.9229 20.2381 16.2213 18.94C16.7949 18.3658 17.7813 18.2155 18.5739 18.1162C20.0793 17.9266 20.2494 17.848 22.0152 16.4521C22.5024 16.0669 23.0052 15.6685 23.5386 15.3211C25.1578 14.2449 26.9791 13.5095 28.8916 13.1596C30.8041 12.8098 32.7678 12.8529 34.6632 13.2862C35.1939 13.4011 35.7237 13.5358 35.8674 13.8022C35.8813 13.8275 35.8851 13.8572 35.8779 13.8852C35.8708 13.9132 35.8533 13.9375 35.829 13.9531C35.8048 13.9689 35.7755 13.9751 35.747 13.9704C35.7185 13.9656 35.6928 13.9504 35.6751 13.9276C35.6629 13.9158 35.6536 13.9013 35.6481 13.8853C35.502 13.7029 34.8849 13.5691 34.6146 13.5106C32.9743 13.1243 31.2765 13.0467 29.6079 13.2817C27.4822 13.5607 25.449 14.324 23.6649 15.5128C23.1402 15.8548 22.6407 16.2499 22.1574 16.6321C20.3856 18.0331 20.175 18.1462 18.6027 18.3439C17.8827 18.4339 16.9149 18.5704 16.3827 19.1023C15.2127 20.2723 16.314 21.5623 17.4417 22.7704C17.5887 22.9279 17.727 23.0767 17.8383 23.2204C17.8512 23.2373 17.8591 23.2575 17.8612 23.2787C17.8633 23.2999 17.8594 23.3213 17.8501 23.3404C17.8408 23.3595 17.8263 23.3757 17.8083 23.3871C17.7903 23.3985 17.7695 23.4046 17.7483 23.4049Z" fill="#414141"/>
<path d="M18.9844 37.9756C18.7279 37.5907 18.796 37.1458 18.8623 36.7156C18.9763 35.9736 18.9862 35.8033 18.3223 34.4536C17.1583 32.0884 16.8733 29.3221 16.6936 26.7634C16.5283 24.4084 16.8418 22.312 17.2276 22.5682C17.2402 22.5764 17.251 22.5872 17.2595 22.5997C17.2679 22.6122 17.2737 22.6262 17.2767 22.641C17.2797 22.6558 17.2797 22.671 17.2767 22.6858C17.2737 22.7006 17.2678 22.7147 17.2594 22.7272C16.5652 23.7691 16.9936 28.1956 17.1967 29.515C17.3537 30.8294 17.6518 32.1232 18.0859 33.3738C18.2164 33.7071 18.3637 34.0335 18.5272 34.3519C19.2208 35.7598 19.2082 35.9755 19.0891 36.7504C19.027 37.1551 18.9691 37.537 19.1746 37.8466C19.6786 38.5819 20.6746 38.4859 21.3868 38.0866C21.4132 38.0733 21.4437 38.0707 21.472 38.0793C21.5003 38.0879 21.5241 38.1071 21.5386 38.1329C21.5531 38.1586 21.5571 38.189 21.5498 38.2176C21.5424 38.2463 21.5244 38.271 21.4993 38.2867C20.6551 38.7607 19.5499 38.8012 18.9844 37.9753V37.9756Z" fill="#414141"/>
<path d="M46.5329 22.2822C46.6739 21.5158 46.7681 20.7416 46.8149 19.9638C46.8194 19.158 46.9025 18.9738 47.357 18.5142C47.6231 18.2442 47.8334 18.0342 47.6846 17.5869C47.6049 17.3851 47.4854 17.2014 47.3332 17.0467C47.181 16.8921 46.9992 16.7697 46.7987 16.6869C45.8802 16.234 44.9048 15.907 43.8989 15.7149C43.2856 15.5216 42.6436 15.4353 42.0011 15.4599C41.9714 15.463 41.9416 15.4544 41.9182 15.4358C41.8948 15.4172 41.8797 15.3902 41.876 15.3606C41.8721 15.331 41.8798 15.3011 41.8976 15.2771C41.9153 15.2532 41.9417 15.2371 41.9711 15.2322C42.6421 15.2025 43.3131 15.2905 43.9538 15.4923C44.9779 15.686 45.9706 16.0191 46.9043 16.4823C47.1317 16.5782 47.3375 16.7192 47.509 16.8967C47.6806 17.0742 47.8145 17.2846 47.9027 17.5152C48.095 18.0921 47.7893 18.4011 47.5196 18.6732C46.7732 19.4268 47.3075 19.1319 46.7582 22.3191C46.7511 22.3468 46.7338 22.3708 46.7099 22.3864C46.686 22.4021 46.6571 22.4082 46.6288 22.4036C46.6006 22.399 46.5751 22.3841 46.5574 22.3617C46.5396 22.3392 46.5309 22.311 46.5329 22.2825V22.2822Z" fill="#414141"/>
<path d="M46.2955 34.8128C46.0906 34.7918 45.8509 35.0105 45.5899 34.895C45.57 34.8853 45.5533 34.87 45.5418 34.8509C45.5304 34.8319 45.5247 34.81 45.5255 34.7878C45.5262 34.7656 45.5333 34.7441 45.546 34.7259C45.5586 34.7077 45.5763 34.6935 45.5968 34.685C45.6244 34.6739 45.6553 34.6739 45.6829 34.685C45.8305 34.7507 46.0585 34.5587 46.3129 34.5839C46.7776 34.6097 46.9798 35.1239 47.347 34.7756C47.6671 34.4549 47.617 33.8756 47.5648 33.4256C47.5474 33.2394 47.5129 33.0553 47.4616 32.8754C47.4451 32.8596 47.4337 32.8392 47.4289 32.8168C47.4241 32.7944 47.4261 32.7711 47.4346 32.7499C47.4431 32.7287 47.4578 32.7105 47.4767 32.6976C47.4956 32.6847 47.5179 32.6778 47.5408 32.6777C47.698 32.6777 47.7223 32.8949 47.7919 33.3932C47.866 33.9239 47.8936 34.5524 47.5072 34.9394C47.005 35.4179 46.6462 34.8323 46.2955 34.8128Z" fill="#414141"/>
<path d="M21.3975 29.8777C21.3975 29.7553 21.5385 29.6863 21.7224 29.6077C22.1274 29.4353 22.5513 29.311 22.9854 29.2375C24.526 28.8816 26.1354 28.9628 27.6324 29.4718C27.6466 29.4768 27.6597 29.4845 27.671 29.4945C27.6823 29.5045 27.6915 29.5166 27.6981 29.5301C27.7047 29.5437 27.7085 29.5584 27.7094 29.5734C27.7103 29.5885 27.7082 29.6036 27.7033 29.6178C27.6984 29.632 27.6907 29.6452 27.6807 29.6564C27.6707 29.6677 27.6586 29.6769 27.645 29.6835C27.6315 29.6901 27.6168 29.6939 27.6017 29.6948C27.5867 29.6957 27.5716 29.6937 27.5574 29.6887C26.0989 29.1933 24.5311 29.1146 23.0304 29.4616C22.5396 29.5383 22.0638 29.6912 21.6204 29.9149C21.6112 29.9402 21.5935 29.9614 21.5703 29.975C21.5471 29.9885 21.5199 29.9935 21.4934 29.9891C21.4669 29.9847 21.4428 29.9711 21.4253 29.9508C21.4078 29.9304 21.3979 29.9046 21.3975 29.8777Z" fill="#414141"/>
<path d="M25.1701 27.3694C24.3763 27.0973 23.5663 27.0538 22.7323 26.9149C22.7032 26.9089 22.6776 26.8919 22.6608 26.8674C22.644 26.8429 22.6373 26.8128 22.6422 26.7835C22.6471 26.7542 22.6631 26.7279 22.687 26.7102C22.7108 26.6925 22.7406 26.6847 22.7701 26.6884C23.5921 26.8255 24.43 26.8729 25.2445 27.1522C25.2721 27.163 25.2944 27.184 25.3069 27.2109C25.3193 27.2378 25.3209 27.2684 25.3113 27.2965C25.3017 27.3245 25.2817 27.3477 25.2554 27.3613C25.2291 27.3749 25.1985 27.3778 25.1701 27.3694Z" fill="#414141"/>
<path d="M39.4 28.1928C40.1386 27.3927 40.9957 26.997 42.0283 26.6514C42.102 26.6025 42.1917 26.5837 42.2788 26.5989C42.3005 26.6085 42.319 26.624 42.3322 26.6436C42.3454 26.6633 42.3528 26.6863 42.3535 26.7099C42.3527 26.7269 42.3483 26.7435 42.3406 26.7587C42.3329 26.7738 42.3221 26.7872 42.3088 26.7978C42.2955 26.8085 42.2801 26.8161 42.2636 26.8202C42.2471 26.8243 42.2299 26.8247 42.2131 26.8215C42.1906 26.8275 42.169 26.8356 42.1483 26.8461C42.0346 26.9595 40.6483 27.1761 39.5683 28.3485C39.547 28.3678 39.5192 28.3784 39.4904 28.3782C39.4616 28.378 39.434 28.367 39.4129 28.3475C39.3918 28.3279 39.3787 28.3012 39.3764 28.2725C39.374 28.2438 39.3824 28.2153 39.4 28.1925V28.1928Z" fill="#414141"/>
<path d="M42.6749 29.0056C42.0201 28.8433 41.3387 28.8192 40.6742 28.9348C40.6442 28.94 40.6134 28.9331 40.5886 28.9155C40.5637 28.898 40.5469 28.8713 40.5417 28.8414C40.5365 28.8114 40.5435 28.7806 40.561 28.7558C40.5785 28.731 40.6052 28.7141 40.6352 28.7089C41.3215 28.5903 42.0249 28.6142 42.7016 28.7791C42.7283 28.7862 42.7517 28.8028 42.7673 28.8257C42.7828 28.8486 42.7896 28.8764 42.7864 28.9039C42.7831 28.9315 42.7701 28.9569 42.7496 28.9756C42.7291 28.9943 42.7026 29.0049 42.6749 29.0056Z" fill="#414141"/>
<path d="M11.873 43.9357C11.4566 39.1726 12.2306 34.4983 13.997 31.1107C14.5378 30.032 15.2367 29.0402 16.0706 28.168C16.346 27.8476 16.5869 27.5827 16.7975 27.607C16.8264 27.6119 16.8524 27.6277 16.87 27.6512C16.8877 27.6746 16.8957 27.7039 16.8924 27.7331C16.8891 27.7622 16.8749 27.789 16.8525 27.808C16.8301 27.8269 16.8013 27.8366 16.772 27.835C16.6373 27.835 16.2107 28.3657 16.1315 28.4449C12.5879 32.1967 11.6489 38.7349 12.1019 43.9159C12.1033 43.931 12.1017 43.9461 12.0972 43.9605C12.0927 43.9749 12.0854 43.9883 12.0757 43.9998C12.066 44.0114 12.0541 44.0209 12.0406 44.0278C12.0272 44.0347 12.0126 44.0389 11.9975 44.0401C11.9672 44.0428 11.937 44.0333 11.9137 44.0137C11.8903 43.9941 11.8757 43.9661 11.873 43.9357Z" fill="#414141"/>
<path d="M55.0468 39.7725C54.9718 35.1357 54.679 29.9115 52.1326 26.5968C51.1372 25.2886 50.0749 24.3888 49.0603 23.994C48.725 23.8474 48.3712 23.7473 48.0088 23.6964C47.9882 23.7158 47.9612 23.7269 47.933 23.7276C47.9047 23.7282 47.8772 23.7184 47.8557 23.7001C47.8343 23.6817 47.8204 23.656 47.8167 23.628C47.813 23.6 47.8198 23.5716 47.8357 23.5482C47.9377 23.3958 48.3778 23.4741 49.1446 23.7807C50.2126 24.1959 51.2794 25.0965 52.315 26.4573C54.9037 29.8272 55.201 35.0952 55.2763 39.7686C55.2755 39.7906 55.2684 39.8118 55.256 39.8299C55.2435 39.848 55.2261 39.8621 55.2059 39.8706C55.1856 39.8791 55.1634 39.8816 55.1417 39.8779C55.1201 39.8742 55.1 39.8644 55.0837 39.8496C55.0619 39.8297 55.0487 39.8021 55.0468 39.7725Z" fill="#414141"/>
<path d="M7.7061 61.0975C7.3326 60.3283 7.6461 59.0419 7.851 58.1905C8.6727 54.784 10.1001 53.1475 11.6535 49.8892C11.6674 49.8631 11.6909 49.8433 11.719 49.834C11.747 49.8247 11.7776 49.8265 11.8044 49.8391C11.831 49.852 11.8517 49.8746 11.8622 49.9022C11.8727 49.9299 11.8722 49.9605 11.8608 49.9879C10.3125 53.2345 8.8857 54.8794 8.0739 58.2448C7.8882 59.0146 7.575 60.3025 7.9125 60.9976C7.91906 61.0111 7.92288 61.0258 7.92376 61.0409C7.92463 61.0559 7.92254 61.0709 7.91759 61.0852C7.91265 61.0994 7.90495 61.1125 7.89494 61.1237C7.88493 61.135 7.8728 61.1441 7.85925 61.1507C7.8457 61.1573 7.83098 61.1611 7.81595 61.162C7.80092 61.1628 7.78587 61.1607 7.77164 61.1558C7.75742 61.1509 7.74432 61.1432 7.73307 61.1332C7.72182 61.1231 7.71266 61.111 7.7061 61.0975Z" fill="#414141"/>
<path d="M62.434 59.665C61.8019 57.0952 59.668 55.1311 58.2421 52.8604C58.2257 52.8348 58.2 52.8166 58.1704 52.8097C58.1557 52.8062 58.1405 52.8057 58.1257 52.8082C58.1108 52.8108 58.0967 52.8162 58.084 52.8244C58.0584 52.8407 58.0402 52.8664 58.0335 52.896C58.0267 52.9256 58.0319 52.9567 58.048 52.9825C59.4832 55.2685 61.528 57.1282 62.1835 59.6125C56.7628 60.3505 9.01327 66.5914 8.06047 61.2562C8.05813 61.241 8.05279 61.2265 8.04476 61.2135C8.03674 61.2005 8.02619 61.1892 8.01374 61.1803C8.00129 61.1714 7.98719 61.1651 7.97227 61.1617C7.95734 61.1583 7.94189 61.158 7.92683 61.1606C7.91176 61.1633 7.89738 61.169 7.88453 61.1773C7.87168 61.1856 7.86063 61.1964 7.852 61.209C7.84338 61.2217 7.83737 61.2359 7.83433 61.2509C7.83128 61.2659 7.83127 61.2814 7.83427 61.2964C8.83867 66.9214 56.6722 60.6037 62.2921 59.8291C62.332 59.8237 62.4589 59.7664 62.434 59.665Z" fill="#414141"/>
<path d="M13.7303 53.2434C13.7038 53.2436 13.6781 53.2346 13.6576 53.2179C13.637 53.2013 13.6228 53.1781 13.6174 53.1522C13.612 53.1263 13.6157 53.0994 13.6279 53.0759C13.6401 53.0525 13.6601 53.0339 13.6844 53.0235C16.2183 51.9281 18.8439 51.058 21.5306 50.4234C21.5527 50.4178 21.576 50.419 21.5974 50.4268C21.6189 50.4346 21.6375 50.4486 21.6509 50.4671C21.6642 50.4856 21.6718 50.5076 21.6725 50.5304C21.6732 50.5532 21.667 50.5757 21.6548 50.595C21.6469 50.6079 21.6366 50.619 21.6244 50.6279C21.6122 50.6367 21.5983 50.6431 21.5837 50.6466C18.896 51.2844 16.2684 52.1532 13.7303 53.2434Z" fill="#414141"/>
<path d="M28.5592 48.997C28.5306 48.9963 28.5033 48.9849 28.4826 48.965C28.4619 48.9452 28.4494 48.9184 28.4475 48.8898C28.4456 48.8612 28.4544 48.833 28.4723 48.8106C28.4901 48.7882 28.5156 48.7732 28.5439 48.7687C31.4653 48.3685 38.5705 47.3467 41.4943 47.6665C41.5237 47.6709 41.5502 47.6864 41.5684 47.7099C41.5867 47.7334 41.5951 47.7629 41.5921 47.7925C41.5888 47.8221 41.5742 47.8493 41.5514 47.8684C41.5285 47.8874 41.4991 47.8969 41.4694 47.8948C38.0668 47.5225 28.8484 48.997 28.5592 48.997Z" fill="#414141"/>
<path d="M53.9853 49.6129C52.1223 49.1353 46.707 48.2242 46.0053 48.3745C45.9763 48.3789 45.9467 48.3721 45.9226 48.3554C45.8985 48.3388 45.8817 48.3135 45.8756 48.2848C45.8695 48.2561 45.8746 48.2262 45.8898 48.2012C45.9051 48.1761 45.9293 48.1579 45.9576 48.1501C46.7475 47.983 52.3086 48.9457 54.0435 49.3906C54.0729 49.3985 54.098 49.4177 54.1134 49.444C54.1288 49.4702 54.1332 49.5015 54.1257 49.531C54.1219 49.5456 54.1152 49.5593 54.106 49.5713C54.0969 49.5834 54.0855 49.5935 54.0725 49.6011C54.0594 49.6087 54.045 49.6136 54.0301 49.6157C54.0151 49.6177 53.9999 49.6168 53.9853 49.6129Z" fill="#414141"/>
<path d="M43.9813 31.6434C42.8545 30.2166 41.2162 28.5114 38.5165 27.9615C38.7279 27.4346 38.8713 26.883 38.9431 26.3199C39.0757 26.3076 39.2065 26.2809 39.3331 26.2404C39.8131 26.7858 40.9186 26.7342 41.302 26.1075C41.398 25.9359 41.4676 25.7511 41.5084 25.5585C41.5424 25.3805 41.6056 25.2094 41.6953 25.0521C41.8708 24.8877 42.0627 24.7419 42.268 24.6168C42.6748 24.261 42.6997 23.9328 42.6034 23.4522C42.5991 23.4299 42.5882 23.4095 42.5722 23.3934C42.5562 23.3774 42.5358 23.3664 42.5136 23.362C42.4913 23.3575 42.4683 23.3597 42.4473 23.3684C42.4264 23.377 42.4085 23.3916 42.3958 23.4105C40.9318 22.7487 39.8998 20.8332 38.9563 19.6875C37.5782 18.0959 35.7556 16.9529 33.7228 16.4052C32.5847 16.0655 31.3722 16.0655 30.2341 16.4052C28.7641 16.9332 27.388 18.4251 26.7682 19.8021C26.4682 20.4447 26.4682 21.3171 26.0566 21.9138C25.8502 22.2138 25.4368 22.3269 25.1155 22.5105C24.6337 22.7859 24.1516 23.2221 24.0598 23.796C23.9449 24.4617 24.5647 24.6222 24.7255 25.173C24.886 25.6782 24.6565 26.229 24.8401 26.733C25.2424 27.8061 27.0355 27.7776 27.3643 27.285C27.7051 27.4864 28.098 27.5819 28.4932 27.5595C28.6834 28.0698 28.9476 28.5493 29.2774 28.9827C28.7427 29.0942 28.2228 29.2674 27.7279 29.4987C24.1501 31.2873 22.1416 34.3413 21.3754 38.1714C20.5177 42.4581 21.2254 47.9265 22.4602 51.2871C22.6402 51.7755 22.8001 52.4529 23.3278 52.6755C23.212 55.3236 22.2202 58.2405 22.9777 58.4055C23.4517 58.509 23.7952 57.3897 23.9623 56.9037C23.8437 57.6908 23.7766 58.4849 23.7616 59.2809C23.7601 59.4579 23.7409 60.0327 23.9527 60.1863C23.9836 60.2084 24.0194 60.2225 24.057 60.2275C24.0946 60.2325 24.1329 60.2281 24.1684 60.2148C24.6835 60.024 24.9217 58.9905 25.0939 57.9723C25.0561 58.6016 25.0523 59.2325 25.0825 59.8623C25.1044 60.1059 25.138 60.4743 25.3909 60.4743C25.6309 60.4743 25.7698 60.1362 25.8622 59.9127C26.071 59.3712 26.2167 58.8075 26.2966 58.2327C26.3188 58.8573 26.395 59.5911 26.4295 59.8056C26.4724 60.072 26.533 60.3297 26.686 60.4128C26.716 60.4291 26.7494 60.4382 26.7836 60.4392C26.8177 60.4402 26.8516 60.4332 26.8825 60.4188C27.2332 60.2688 27.3643 59.6148 27.4327 59.1366C27.7237 57.1566 27.418 56.1942 27.4144 55.6617C27.6202 55.9869 28.1287 56.8542 28.5043 56.8542C28.5497 56.8541 28.5942 56.8419 28.6332 56.8188C28.6722 56.7957 28.7043 56.7625 28.726 56.7228C28.9507 56.3478 28.7452 55.7361 28.6225 55.3227C28.3099 54.2682 27.8143 52.8273 27.1099 52.3527C27.2167 52.0137 26.3746 49.4799 26.2168 47.7246C25.8826 44.0472 26.0098 40.2774 27.4468 36.993C27.4565 36.9656 27.4554 36.9356 27.4439 36.909C27.4323 36.8823 27.4111 36.8611 27.3845 36.8495C27.3579 36.8378 27.3279 36.8367 27.3005 36.8463C27.2731 36.8559 27.2504 36.8755 27.2368 36.9012C25.7716 40.2507 25.6537 44.0664 25.9885 47.7453C26.1424 49.4643 26.9452 51.966 26.8945 52.272C26.6146 52.4415 23.8618 52.7661 23.3599 52.4328C22.9654 52.2042 22.8319 51.6312 22.6759 51.2079C21.4426 47.8611 20.7559 42.435 21.6022 38.2071C22.3495 34.4688 24.3091 31.4649 27.8299 29.7057C28.3435 29.4568 28.892 29.2875 29.4565 29.2038C30.1402 29.9856 31.0349 30.5537 32.0332 30.84C32.0089 30.8862 32.0158 30.9456 32.083 31.1232C32.2576 31.456 32.5052 31.7449 32.8074 31.9683C33.1096 32.1917 33.4585 32.3438 33.8279 32.4131C34.1972 32.4823 34.5775 32.4671 34.9401 32.3684C35.3027 32.2697 35.6382 32.0901 35.9215 31.8432C36.1302 31.6509 36.2947 31.4157 36.4038 31.1537C36.5129 30.8918 36.5639 30.6093 36.5533 30.3258C37.3886 29.8253 38.0441 29.0734 38.4259 28.1778C41.0797 28.7028 42.6931 30.3822 43.8013 31.7859C44.9638 33.3329 45.7643 35.1212 46.1437 37.0188C47.0137 41.0493 46.411 46.6818 45.1153 50.1984C44.9029 50.7747 44.8375 51.2151 44.3176 51.4824C43.4491 51.7431 41.2243 51.4224 40.9132 51.2676C41.0128 50.6775 41.7124 48.1995 41.8027 46.7109C42.0001 43.6608 42.0682 39.7509 40.8289 36.5574C40.7389 36.3309 40.6447 36.0966 40.5289 35.8644C40.5152 35.8373 40.4914 35.8166 40.4626 35.8068C40.4484 35.802 40.4332 35.8001 40.4182 35.8014C40.3955 35.8026 40.3737 35.8107 40.3557 35.8247C40.3377 35.8386 40.3243 35.8577 40.3174 35.8794C40.3127 35.8937 40.3108 35.9088 40.3118 35.9238C40.3129 35.9388 40.317 35.9535 40.3237 35.967C40.4356 36.1908 40.5277 36.4206 40.6177 36.6459C41.8387 39.7917 41.7703 43.6692 41.5741 46.6959C41.4709 48.4002 40.606 51.192 40.6912 51.3666C40.7242 51.4191 40.7728 51.4602 40.8304 51.4836C40.2877 51.8355 39.682 52.6647 38.9704 53.9934C38.7691 54.3696 38.4526 54.9429 38.5954 55.3464C38.7985 55.92 39.6691 55.0164 40.0753 54.5682C40.0315 54.7527 39.9763 54.9345 39.91 55.1121C39.6041 56.0366 39.43 56.9997 39.3928 57.9729C39.3883 58.3878 39.3523 59.1162 39.6763 59.3325C39.7034 59.3502 39.734 59.3616 39.766 59.3661C39.798 59.3706 39.8306 59.3679 39.8614 59.3583C40.0165 59.3106 40.1182 59.1063 40.2172 58.8831C40.4102 58.3605 40.5694 57.8261 40.6939 57.2832C40.6636 57.8562 40.6895 58.4309 40.7713 58.9989C40.8337 59.4348 40.9513 59.6685 41.1313 59.7138C41.3869 59.778 41.4943 59.4078 41.5636 59.1543C41.7011 58.6331 41.8027 58.1032 41.8678 57.5682C41.9932 56.7096 41.6311 59.2254 42.3829 59.6763C42.415 59.6983 42.4522 59.7116 42.4909 59.7151C42.5296 59.7186 42.5686 59.712 42.604 59.6961C42.664 59.6691 42.841 59.5872 42.9478 58.8414C43.0828 58.0542 43.1743 57.2601 43.2217 56.4627C43.3276 57.3327 43.4848 58.1334 43.9135 58.1334C44.3335 58.1334 44.3953 57.1986 44.3953 56.649C44.4877 55.239 44.4643 52.9359 44.6779 51.5298C44.9614 51.2426 45.1609 50.8833 45.2548 50.4909C45.7105 49.269 46.052 48.0075 46.2748 46.7226C47.1541 41.6475 47.1838 35.6994 43.9813 31.6434ZM39.0088 23.2752C39.1843 23.0973 39.4218 22.9942 39.6716 22.9874C39.9214 22.9807 40.1642 23.0709 40.3489 23.2392C41.3497 24.1263 40.2289 25.8792 38.9689 26.0874C39.061 25.1529 39.0742 24.2121 39.0088 23.2752ZM26.9272 52.5102C27.6622 52.9302 28.1971 54.7002 28.4362 55.5021C28.5295 55.8162 28.6876 56.3421 28.5301 56.6037C28.4131 56.7912 27.7843 55.8258 27.667 55.6341C27.4963 55.3551 27.4222 55.2504 27.3121 55.2708C27.0421 55.3215 27.2707 56.3025 27.2965 56.7432C27.3576 57.531 27.3274 58.3233 27.2065 59.1042C27.0901 59.9202 26.9173 60.1542 26.7967 60.2115C26.7793 60.2025 26.7172 60.1431 26.6536 59.7483C26.3758 57.5937 26.6716 56.4243 26.305 56.6079C26.1589 56.6808 26.1502 57.5265 26.1502 57.5265C26.1025 58.2914 25.9432 59.0451 25.6771 59.7639C25.5397 60.1104 25.4515 60.2439 25.4014 60.2478C25.1743 60.0846 25.3693 57.2178 25.3693 56.9628C25.3693 56.6382 25.3693 56.5038 25.2316 56.5038C25.0336 56.5038 25.0354 56.9151 24.9052 57.7146C24.7942 58.3995 24.5632 59.8245 24.0895 60.0012C23.8462 59.8608 24.1138 57.2865 24.2056 56.8494C24.3175 56.3169 24.3277 56.0793 24.2425 55.9728C24.2295 55.9569 24.2124 55.9447 24.1931 55.9375C24.1739 55.9304 24.153 55.9285 24.1327 55.932C24.1124 55.9355 24.0934 55.9445 24.0778 55.9579C24.0621 55.9714 24.0504 55.9889 24.0439 56.0085C24.0226 56.0724 23.9755 56.1393 23.9506 56.2185C23.9064 56.3795 23.8535 56.538 23.7922 56.6934C23.7787 56.7312 23.7622 56.7834 23.7409 56.8434C23.2009 58.4568 22.7545 58.7307 22.987 57.018C23.2486 55.1115 23.4904 54.1038 23.557 52.74C24.3742 52.9131 26.3749 52.7157 26.9272 52.5102ZM26.5576 24.7881C26.6665 24.6526 26.8082 24.5473 26.9692 24.4821C27.1303 24.417 27.3053 24.3941 27.4777 24.4158C27.5986 24.4284 27.7162 24.4611 27.8263 24.5124C27.9206 25.4709 28.1185 26.4165 28.4167 27.3324C27.1786 27.3624 25.7263 25.8051 26.5576 24.7881ZM32.5876 31.473C32.4306 31.3123 32.3158 31.1152 32.2534 30.8994C33.6177 31.238 35.058 31.0802 36.3166 30.4542C36.3166 32.115 33.8947 32.9247 32.5876 31.473ZM38.2528 27.9996C36.6967 31.911 30.2899 31.8693 28.6903 27.4323C27.2353 23.0652 27.8584 18.5763 32.4232 18.4725C32.6662 19.4499 33.1582 20.3475 33.8509 21.0783C34.3771 21.5715 35.1109 21.9297 35.5168 21.3333C35.5963 21.2133 35.7064 20.6508 35.8039 20.6499C36.0829 20.6685 36.4939 21.2136 36.7825 21.3894C37.3804 21.7554 37.9912 22.0944 38.6842 22.0179C38.8384 23.4042 38.8528 24.8028 38.7271 26.1921C38.6575 26.8144 38.4977 27.4232 38.2528 27.9996ZM44.1664 56.6415C44.1664 57.3855 44.0335 57.9039 43.9141 57.9039C43.5271 57.9039 43.4161 55.8669 43.3114 55.5495C43.3058 55.5319 43.2958 55.516 43.2823 55.5033C43.2692 55.4903 43.253 55.4808 43.2352 55.4757C42.9748 55.3986 42.9913 56.103 42.9952 56.3607C43.0003 56.6892 42.7408 59.4384 42.5038 59.4807C42.0001 59.1786 42.1069 57.1785 42.16 56.6025C42.1819 56.3685 42.2515 55.8378 42.0316 55.8378C41.8582 55.8378 41.8255 56.2854 41.8255 56.2854C41.8111 56.4321 41.7484 56.7954 41.641 57.5349C41.5772 58.0612 41.4769 58.5824 41.341 59.0949C41.3174 59.2367 41.2645 59.3721 41.1856 59.4924C41.1856 59.4924 41.0656 59.457 40.996 58.9668C40.8817 58.1407 40.8817 57.3028 40.996 56.4768C41.0788 55.8114 41.071 55.761 40.9792 55.7151C40.9633 55.7072 40.9457 55.7031 40.9279 55.7031C40.8241 55.7031 40.8241 55.7031 40.6774 56.3238C40.5166 57.1298 40.3054 57.925 40.045 58.7046C40.0117 58.7721 39.868 59.1192 39.7981 59.1423C39.6058 59.0142 39.6148 58.3974 39.6181 58.1007C39.6427 57.111 39.8131 56.1306 40.1239 55.1907C40.2379 54.9153 40.3078 54.6237 40.3309 54.3264C40.3295 54.2996 40.321 54.2737 40.3063 54.2513C40.2916 54.2289 40.2712 54.2108 40.2472 54.1989C40.1233 54.153 40.0471 54.276 39.7393 54.5961C39.0859 55.2759 38.8819 55.3143 38.8252 55.3017C38.8189 55.3017 38.8135 55.2876 38.8087 55.2732C38.6974 54.9759 38.9854 54.4452 39.1402 54.1596C39.5359 53.4291 40.3456 51.9339 41.1169 51.5886C41.8306 51.7302 42.5557 51.8049 43.2832 51.8115C43.6672 51.8235 44.0509 51.7809 44.4232 51.6858C44.2366 53.1183 44.2561 55.263 44.1664 56.6415Z" fill="#414141"/>
<path d="M34.5954 34.4688C34.3963 34.4744 34.2069 34.556 34.066 34.6969C33.9252 34.8377 33.8436 35.0271 33.8379 35.2263C33.838 35.3382 33.8629 35.4488 33.9108 35.55C33.9587 35.6513 34.0285 35.7406 34.115 35.8116C34.2016 35.8827 34.3029 35.9336 34.4115 35.9608C34.5201 35.9881 34.6334 35.9909 34.7433 35.9691C34.8903 35.94 35.025 35.868 35.1309 35.7618C35.2372 35.656 35.3097 35.521 35.3392 35.374C35.3686 35.2269 35.3537 35.0744 35.2963 34.9358C35.2389 34.7973 35.1417 34.6789 35.0169 34.5957C34.8921 34.5126 34.7454 34.4684 34.5954 34.4688Z" fill="white"/>
<path d="M47.6325 28.5002C47.915 28.4967 48.1953 28.5494 48.4573 28.6551C48.7192 28.7608 48.9576 28.9175 49.1585 29.1161C49.3594 29.3146 49.5189 29.5511 49.6278 29.8118C49.7366 30.0725 49.7926 30.3522 49.7925 30.6347C49.7926 30.9172 49.7366 31.1969 49.6278 31.4576C49.5189 31.7183 49.3594 31.9548 49.1585 32.1534C48.9576 32.3519 48.7192 32.5087 48.4573 32.6144C48.1953 32.7202 47.915 32.7729 47.6325 32.7695C47.3444 32.773 47.0586 32.7169 46.7932 32.6048C46.5278 32.4927 46.2884 32.3269 46.0901 32.1178C45.8918 31.9087 45.7389 31.661 45.6409 31.39C45.5429 31.119 45.502 30.8307 45.5208 30.5432C45.5473 29.9981 45.7804 29.4835 46.1726 29.104C46.5648 28.7246 47.0868 28.5087 47.6325 28.5002Z" fill="#7BD2FF"/>
<path d="M48.4559 25.4514C47.9822 22.8273 46.0304 22.3719 44.7359 20.5395C43.6529 19.0047 43.4276 17.0736 42.0506 15.6966C39.9971 13.6428 37.055 13.3566 34.3385 14.2044C33.3755 14.5044 31.4234 15.2373 30.7118 16.2243V16.2702C31.7106 16.0741 32.742 16.1214 33.7187 16.4079C35.7517 16.955 37.5743 18.0982 38.9519 19.6902C40.0055 20.9424 41.0189 22.9653 42.6932 23.5233C42.7391 23.5464 45.0359 24.0273 45.7232 24.9693C46.6334 26.217 45.8663 28.5042 47.4449 28.5042C48.6626 28.3893 48.6053 26.2797 48.4559 25.4514Z" fill="#005BC3"/>
<path d="M49.7217 15.3499C47.6751 15.2965 47.2056 15.2236 47.1072 15.1003C47.0208 14.9713 47.0208 14.9713 48.0222 14.2552C48.4761 13.9309 49.194 13.4173 49.4274 13.1977C48.8403 13.1044 48.249 13.0407 47.6556 13.0066C47.632 13.0116 47.6075 13.009 47.5855 12.9992C47.5635 12.9894 47.5452 12.9729 47.5332 12.952C47.5227 12.9342 47.5172 12.9139 47.5172 12.8932C47.5171 12.8726 47.5227 12.8523 47.5331 12.8345C47.5436 12.8166 47.5586 12.8019 47.5766 12.7918C47.5947 12.7818 47.6151 12.7767 47.6358 12.7771C47.6658 12.7771 49.6662 12.8641 49.7184 13.1239C49.7373 13.2721 49.5549 13.441 48.1548 14.4418C47.8848 14.6338 47.5926 14.8438 47.4249 14.9728C47.9634 15.049 49.479 15.1039 49.7283 15.1207C49.7572 15.1236 49.7841 15.1373 49.8034 15.1591C49.8227 15.1809 49.833 15.2092 49.8324 15.2383C49.8313 15.2674 49.8194 15.2951 49.7989 15.3158C49.7783 15.3365 49.7508 15.3487 49.7217 15.3499Z" fill="#7BD2FF"/>
<path d="M54.3801 12.434C54.3051 12.434 52.5405 12.2402 52.215 12.2036C50.34 11.9936 50.34 11.9936 50.34 11.8601C50.34 11.7701 50.34 11.7701 51.3351 11.312C52.0851 10.9664 53.3934 10.3622 53.8122 10.1078C53.2896 9.99981 51.6444 9.83781 51.4155 9.83781C51.2628 9.86361 51.2004 9.59781 51.4413 9.60951C51.4677 9.60951 54.1008 9.76191 54.1488 10.0502C54.1512 10.313 52.8939 10.8284 50.8161 11.8052C51.663 11.9183 53.9037 12.1601 54.3903 12.2042C54.413 12.2051 54.435 12.2128 54.4533 12.2262C54.4716 12.2397 54.4855 12.2584 54.4932 12.2798C54.4985 12.294 54.5009 12.309 54.5002 12.3242C54.4995 12.3393 54.4958 12.3541 54.4893 12.3677C54.4798 12.3884 54.4643 12.4058 54.4448 12.4176C54.4254 12.4294 54.4028 12.4351 54.3801 12.434Z" fill="#7BD2FF"/>
<path d="M58.7881 10.2787C58.7512 10.2787 55.0717 10.2409 54.967 10.0318C54.9139 9.89919 54.907 9.88329 57.1318 8.13069C57.8158 7.59069 58.5754 6.99309 58.8679 6.73719C58.1947 6.65319 55.6909 6.58419 55.3654 6.62079C55.3456 6.62872 55.3241 6.63105 55.3031 6.62754C55.2822 6.62404 55.2625 6.61482 55.2465 6.60091C55.2304 6.58699 55.2184 6.56892 55.2119 6.54866C55.2055 6.52841 55.2047 6.50676 55.2097 6.48609C55.2193 6.46163 55.2353 6.4402 55.2561 6.42406C55.2768 6.40791 55.3015 6.39763 55.3276 6.39429C55.3633 6.39039 59.0611 6.36789 59.1892 6.62379C59.2507 6.74649 59.2528 6.75129 57.2737 8.31099C56.5237 8.90289 55.6171 9.61629 55.2907 9.90819C55.9507 9.97719 58.2349 10.0492 58.7881 10.0492C58.8168 10.0517 58.8434 10.0649 58.8629 10.0862C58.8823 10.1074 58.8931 10.1351 58.8931 10.1639C58.8931 10.1927 58.8823 10.2205 58.8629 10.2417C58.8434 10.263 58.8168 10.2761 58.7881 10.2787Z" fill="#7BD2FF"/>
</svg>
