<svg width="70" height="70" viewBox="0 0 70 70" fill="none" xmlns="http://www.w3.org/2000/svg">
<rect width="70" height="70" rx="10" fill="#EEFAFF"/>
<g clip-path="url(#clip0_1771_2432)">
<path d="M40.6879 53.0428C34.0416 50.0558 32.3879 40.865 35.9474 34.9428C40.5974 27.2078 52.4616 28.3468 56.8724 35.639C62.9569 45.7015 51.0254 57.6883 40.6879 53.0428Z" fill="#FDAF31"/>
<path d="M45.2892 37.1757C45.1877 37.7507 44.6749 37.9787 44.1879 38.1882C43.604 38.4558 42.9866 38.6431 42.3524 38.7452C40.7084 38.9782 40.9322 39.6284 40.0169 40.3717C39.3919 40.8794 38.9532 40.7059 38.4474 40.8217C37.7619 40.9779 37.5994 41.8099 36.8777 42.2647C36.6372 42.4164 36.3462 42.4927 36.1182 42.6572C35.9602 42.7712 35.7762 43.0122 35.9727 43.1507C36.1622 43.2842 36.3644 43.3157 36.4977 43.5179C37.0854 44.4064 35.3104 45.0079 37.0989 45.5367C37.8464 45.7577 38.1754 45.3637 38.7382 45.1192C40.6949 44.2692 42.0912 45.7054 41.3132 45.9419C40.8557 46.0812 40.6849 46.5617 40.5917 46.9734C40.4089 47.7809 40.3762 47.8452 40.9209 48.2457C42.3849 49.3222 41.7069 51.5569 40.6867 53.0494C34.2942 50.1759 32.4524 41.5369 35.6367 35.4994C38.6867 34.1577 40.0914 35.6969 41.6999 35.2589C42.2882 35.0987 42.8584 34.8519 43.4784 34.8982C44.6452 34.9842 45.4222 36.4167 45.2892 37.1757Z" fill="#7BD2FF"/>
<path d="M53.3586 51.2893C52.6876 51.4538 52.0013 50.7496 51.7321 50.2198C51.5744 49.8339 51.4556 49.4332 51.3776 49.0236C51.1321 48.1546 50.5098 48.0341 48.7511 46.0868C48.2373 45.5181 47.4208 44.8333 47.6511 43.9868C47.8526 43.2398 48.5743 42.7011 49.1511 42.2336C50.2578 41.3366 51.4188 40.8666 52.6761 41.5121C53.1431 41.7518 53.3286 41.8516 53.7331 41.5371C54.9698 40.5763 54.2701 40.3323 53.9291 39.9103C53.5943 39.4963 53.6276 38.9436 54.2393 38.5941C53.9813 38.4191 53.2023 38.3441 52.9736 37.7333C52.8258 37.3396 52.9986 37.1958 52.4166 37.0433C51.4278 36.7841 51.3666 36.5868 51.1191 35.6573C50.9593 35.0553 50.6866 35.1476 50.5116 34.7268C50.0283 33.5651 51.7206 32.3396 52.7013 31.5433C60.2598 36.0783 60.3596 45.9318 53.3586 51.2893Z" fill="#7BD2FF"/>
<path d="M59.3016 37.0045C59.3649 36.9975 59.3831 37.0735 59.3516 37.1122C58.4071 38.2987 58.3581 39.7442 56.8074 40.5045C56.4559 40.6425 56.1354 40.849 55.8644 41.112C55.8289 41.1527 55.7614 41.1705 55.7569 40.9665C55.6966 38.1977 56.7551 36.7192 56.0226 35.5415C56.0135 35.5263 56.0106 35.5082 56.0146 35.491C56.019 35.4738 56.0298 35.4591 56.0449 35.4498C56.06 35.4406 56.0782 35.4377 56.0954 35.4417C56.1126 35.446 56.1274 35.4569 56.1366 35.472C56.8616 36.6087 55.9441 37.9532 55.8899 40.2125C56.3999 38.4267 58.2061 37.45 58.2061 35.5477C58.1876 34.9962 58.1069 34.4485 57.9656 33.915C57.9469 33.8327 58.0676 33.7945 58.0859 33.8707C58.3841 35.1092 58.5234 35.9975 57.9151 37.1237C57.3069 38.25 56.1811 39.2075 55.9594 40.4972C56.3106 39.619 56.9816 38.853 57.6239 38.1365C58.0764 37.6335 58.5971 37.084 59.3016 37.0045ZM59.1624 37.1627C58.5076 37.32 58.0501 37.8462 57.5991 38.3462C56.9888 38.9595 56.4841 39.6695 56.1054 40.4475C56.7321 39.5525 57.4461 39.0347 57.9979 38.264C58.0479 38.194 58.1574 38.2585 58.1119 38.3272C57.5164 39.2272 56.5911 39.8442 56.0739 40.764C56.8891 40.214 57.3689 40.439 58.2321 38.8715C58.5109 38.2854 58.8214 37.715 59.1624 37.1627Z" fill="#414141"/>
<path d="M59.1624 37.1628C58.8191 37.7106 58.5064 38.2769 58.2256 38.8591C57.3829 40.3946 56.7191 40.2808 56.0674 40.7513C56.5854 39.8308 57.4619 39.2186 58.1054 38.3148C58.1554 38.2446 58.0356 38.1881 57.9916 38.2513C57.4401 39.0416 56.7069 39.5666 56.0991 40.4351C56.5059 39.4941 58.1439 37.3826 59.1624 37.1628Z" fill="white"/>
<path d="M55.8524 47.0488C55.9284 47.5279 55.8568 48.0187 55.6471 48.456C55.4374 48.8933 55.0995 49.2564 54.6784 49.4971C54.3989 49.6568 54.09 49.7584 53.7702 49.7956C53.7637 49.8021 53.7574 49.8083 53.7512 49.8083C53.7427 49.8333 53.7434 49.9483 53.6624 49.9158C53.5927 49.9858 53.0824 49.5658 52.9662 49.4538C52.1762 48.6913 52.1034 47.7228 51.5549 46.9788C51.3867 46.7096 53.1589 47.0758 53.6372 48.8901C53.6372 46.9901 55.3672 46.8556 55.1814 44.9218C55.1734 44.8396 55.3004 44.8333 55.3079 44.9156C55.5022 47.0486 53.4079 47.2208 53.8017 49.2383C54.2207 48.1908 55.3647 47.8936 55.7267 47.0293C55.7512 46.9538 55.8397 46.9918 55.8524 47.0488ZM55.7447 47.2766C55.2124 48.1516 54.2039 48.2573 53.7947 49.6121C54.4149 49.2121 55.0339 48.7603 55.3642 48.0806C55.4014 48.0041 55.5162 48.0616 55.4782 48.1438C55.1817 48.7836 54.6174 49.2188 54.0477 49.6058C54.5578 49.4765 55.0067 49.1729 55.3166 48.7475C55.6265 48.3221 55.7779 47.8018 55.7447 47.2766ZM53.6119 49.7133C53.6119 48.3188 52.7914 47.3106 51.7512 47.0298C52.3027 47.8878 52.3534 48.9471 53.4472 49.6691C53.2447 49.2266 52.9897 48.8101 52.6877 48.4286C52.6377 48.3651 52.7454 48.2888 52.8017 48.3591C53.1301 48.7729 53.4025 49.2283 53.6119 49.7133Z" fill="#414141"/>
<path d="M55.7384 47.2767C55.7726 47.8004 55.6223 48.3195 55.3136 48.7439C55.0049 49.1683 54.5572 49.4711 54.0484 49.5997C54.6476 49.2494 55.1417 48.7444 55.4789 48.1377C55.5159 48.0612 55.4022 47.998 55.3649 48.0742C55.0347 48.7542 54.4092 49.2072 53.7954 49.606C54.1859 48.2605 55.3502 48.021 55.7384 47.2767Z" fill="white"/>
<path d="M53.618 49.7132C53.4048 49.2267 53.1304 48.7694 52.8015 48.3524C52.7515 48.2892 52.6432 48.3524 52.6875 48.4222C52.993 48.8013 53.2483 49.2182 53.447 49.6627C52.3517 48.9397 52.3015 47.8797 51.751 47.0234C52.774 47.3157 53.5812 48.2417 53.618 49.7132Z" fill="white"/>
<path d="M38.7831 35.6817C37.9776 36.1167 37.0616 36.0532 37.0616 35.9602C37.0599 35.9728 37.054 35.9844 37.0448 35.9931C37.0356 36.0018 37.0237 36.0072 37.0111 36.0082C37.0028 36.0087 36.9944 36.0075 36.9866 36.0045C36.0484 35.724 35.9776 34.5045 35.5689 33.821C35.4201 33.5237 36.9356 33.8562 37.1131 35.65C37.6751 34.0767 37.2656 33.8867 36.9234 33.1375C36.814 32.8927 36.771 32.6234 36.7988 32.3568C36.8266 32.0901 36.9241 31.8355 37.0816 31.6185C37.1316 31.5487 37.2274 31.6377 37.1764 31.707C36.7886 32.2367 36.8731 32.807 37.1829 33.3527C37.5579 34.0125 37.6929 34.4777 37.2144 35.7387C38.0266 35.294 39.0191 35.5342 38.7831 35.6817ZM38.5616 35.65C38.3425 35.607 38.1172 35.605 37.8974 35.644C38.0396 35.786 37.7306 35.794 37.2201 35.8845C37.6796 35.9152 38.1398 35.8348 38.5616 35.65ZM37.0046 35.764C36.9865 35.4783 36.9268 35.1969 36.8273 34.9285C36.7413 34.6816 36.5996 34.4579 36.4132 34.2747C36.2267 34.0914 36.0006 33.9535 35.7524 33.8717C36.1024 34.525 36.1701 35.4635 36.8599 35.8082C36.6297 35.4853 36.4563 35.1253 36.3474 34.744C36.3224 34.6615 36.4486 34.6237 36.4676 34.6997C36.5833 35.083 36.765 35.4432 37.0046 35.764Z" fill="#414141"/>
<path d="M37.897 35.6376C38.1173 35.6017 38.3421 35.6038 38.5617 35.6439C38.3267 35.7461 38.0802 35.8184 37.8275 35.8591C37.6262 35.8872 37.4224 35.8936 37.2197 35.8781C37.2357 35.8781 37.7667 35.7781 37.8845 35.7579C37.9011 35.7526 37.915 35.741 37.9232 35.7257C37.9315 35.7104 37.9334 35.6924 37.9287 35.6756C37.9155 35.6566 37.903 35.6501 37.897 35.6376Z" fill="white"/>
<path d="M36.4096 41.8463C36.2017 41.2142 35.8039 40.6617 35.2704 40.2642C34.7369 39.8666 34.0937 39.6433 33.4286 39.6248C34.0691 40.0998 34.2119 40.8925 34.7956 41.4033C34.9961 41.5769 35.2293 41.7084 35.4816 41.79C35.7339 41.8716 36 41.9016 36.2641 41.8782C35.7261 41.4225 35.1736 40.9702 34.6374 40.5047C34.5731 40.449 34.6624 40.3548 34.7261 40.4098C34.7506 40.431 36.3936 41.8143 36.4096 41.8463ZM38.0109 38.0235C38.0216 38.0202 38.0331 38.0198 38.0441 38.0223C38.055 38.0248 38.0651 38.0301 38.0734 38.0377C38.0816 38.0454 38.0877 38.0549 38.0911 38.0656C38.0946 38.0762 38.0953 38.0875 38.0931 38.0985C37.8766 39.1812 38.2966 41.041 36.5236 41.9275C36.4986 41.9275 36.5181 41.9675 36.4666 41.9775C36.1546 42.0384 35.8327 42.0273 35.5256 41.945C35.2185 41.8627 34.9342 41.7113 34.6944 41.5025C34.0301 40.9158 33.8881 40.0083 33.1694 39.629C32.6734 39.3675 35.5194 39.279 36.4351 41.579C36.4858 41.1302 36.3833 40.6774 36.1441 40.2942C35.5676 39.3565 35.3476 39.385 35.3149 37.7752C35.3335 37.3014 35.2516 36.8289 35.0744 36.389C35.0014 36.2123 34.8904 36.0538 34.7493 35.9247C34.6082 35.7957 34.4404 35.6992 34.2579 35.6422C34.1829 35.6172 34.2079 35.4955 34.2896 35.5158C34.4993 35.5809 34.6915 35.6928 34.8517 35.843C35.0119 35.9932 35.136 36.1777 35.2146 36.3828C35.6196 37.2943 35.2789 38.3445 35.6576 39.2625C35.8354 39.6927 36.1799 40.0297 36.3791 40.446C36.7041 41.126 36.4874 41.743 36.7274 40.7687C36.9149 40.004 36.9084 38.4273 38.0109 38.0235ZM37.9414 38.1945C36.9341 38.7142 37.1436 40.087 36.6184 41.5615C36.9078 41.2978 37.1415 40.9788 37.3057 40.6233C37.4698 40.2678 37.5611 39.8831 37.5741 39.4918C37.5756 39.4095 37.7051 39.4032 37.7009 39.4855C37.6582 40.3309 37.2827 41.1251 36.6564 41.6945C38.1424 40.7392 37.7616 39.2602 37.9414 38.194V38.1945Z" fill="#414141"/>
<path d="M37.941 38.1941C37.7523 39.3128 38.1505 40.7083 36.6625 41.7003C36.9781 41.4229 37.2336 41.0838 37.4132 40.7039C37.5928 40.324 37.6927 39.9113 37.7068 39.4913C37.7068 39.4091 37.5818 39.4163 37.5803 39.4978C37.5661 39.8892 37.4743 40.2738 37.3103 40.6294C37.1462 40.985 36.9131 41.3044 36.6245 41.5691C37.114 40.1941 36.972 38.6633 37.941 38.1941Z" fill="white"/>
<path d="M36.9538 35.3718C36.977 35.4986 36.9855 35.6376 37.0038 35.7641C36.7681 35.4439 36.5923 35.0836 36.4848 34.7008C36.461 34.6181 36.3403 34.6626 36.3645 34.7451C36.4741 35.1259 36.6474 35.4854 36.877 35.8083C36.2108 35.4686 36.0898 34.5333 35.7695 33.8718C36.3158 34.0266 36.8003 34.5343 36.9538 35.3718Z" fill="white"/>
<path d="M36.4095 41.8464C36.3967 41.8214 36.3915 41.8671 34.726 40.4096C34.662 40.3536 34.5797 40.4546 34.6372 40.5046C35.1697 40.9666 35.7197 41.4224 36.264 41.8781C34.455 42.0531 34.2727 40.2191 33.4285 39.6249C34.0936 39.6432 34.7369 39.8665 35.2704 40.2641C35.8039 40.6617 36.2017 41.2143 36.4095 41.8464Z" fill="white"/>
<path d="M34.6628 34.7892C34.8401 34.511 34.9831 34.18 34.8336 33.8717C34.7478 33.6945 34.5936 33.718 34.4413 33.84C34.283 33.9485 34.1563 34.097 34.0741 34.2705C34.0741 31.9985 32.7696 32.803 33.1881 34.1627C31.9686 32.867 31.7086 34.736 32.7008 34.8462C32.5151 34.9807 32.3396 35.1288 32.1758 35.2892C31.3771 36.0712 32.3713 36.681 33.0556 35.954C32.4458 37.1182 33.4196 37.3187 34.0113 36.3082C34.1492 36.0825 34.2276 35.8256 34.2393 35.5615C34.2681 35.5615 34.6623 35.3765 34.9101 35.2705C35.0431 35.2135 35.2328 35.1437 35.2203 34.9665C35.2291 34.7722 34.9426 34.5955 34.6628 34.7892Z" fill="#005BC3"/>
<path d="M38.5299 31.1375C37.8827 30.7835 37.8207 31.305 38.3654 30.6185C38.5087 30.4585 38.6222 30.2742 38.7007 30.0743C38.8244 29.6845 38.2979 29.3015 37.5807 30.321C37.565 29.8911 37.4615 29.469 37.2767 29.0805C36.6039 27.7023 36.2069 29.4748 36.7387 30.3908C35.5017 29.5473 34.8637 30.7408 36.1312 31.2515C36.2556 31.302 36.3894 31.3257 36.5237 31.321C35.0974 32.1638 35.7152 32.8295 36.5299 32.2388C37.3157 31.6693 36.8479 31.5268 37.2387 32.3083C37.325 32.4965 37.438 32.6713 37.5742 32.8273C37.8742 33.089 38.1904 32.6745 37.7704 31.6945C38.8554 32.402 39.4249 31.627 38.5299 31.1375Z" fill="#005BC3"/>
<path d="M58.5169 33.1882C58.7334 32.5232 58.8919 30.851 58.1686 31.1757C57.9336 31.2812 57.8401 31.5935 57.7699 31.8212C57.4566 32.8375 58.0299 32.9575 57.2699 32.2137C57.1199 32.0665 56.9179 31.9005 56.7131 32.0427C56.2411 32.3707 56.7814 33.3947 57.3966 33.587C57.1181 33.8085 56.6686 33.916 56.6624 34.334C56.6576 34.6422 56.9911 34.8187 57.4156 34.4922C58.0924 33.971 57.5716 33.8205 58.3079 34.4922C58.4709 34.6549 58.6513 34.7992 58.8459 34.9225C59.4209 35.2062 59.5909 34.453 58.9029 33.9287C60.4901 34.1555 59.7049 32.183 58.5169 33.1882Z" fill="#005BC3"/>
<path d="M56.675 35.0235C56.4905 34.9674 56.2961 34.9523 56.1052 34.9792C56.2077 34.8595 56.2832 34.7192 56.3267 34.5677C56.5292 33.8427 55.9947 33.8195 55.675 34.8147C55.58 34.6957 55.6572 34.544 55.466 34.3337C55.4184 34.2641 55.3525 34.2089 55.2756 34.1743C55.1987 34.1396 55.1138 34.1268 55.0301 34.1373C54.9464 34.1477 54.8672 34.181 54.8012 34.2336C54.7352 34.2861 54.6849 34.3558 54.656 34.435C54.5492 34.783 55.006 34.985 55.181 35.1247C54.4587 35.0975 53.9332 35.8097 54.1747 35.935C54.5682 36.0381 54.9856 35.9977 55.352 35.821C54.7207 36.696 55.623 37.049 55.8075 36.4032C55.9722 36.8145 56.316 36.3622 56.0925 35.5425C56.8065 35.8485 57.5995 35.315 56.675 35.0235Z" fill="#005BC3"/>
<path d="M56.4028 44.1441C56.2832 44.0931 56.1524 44.0735 56.0231 44.0871C56.9421 43.2764 55.6713 42.6641 55.3903 43.6759C55.3698 43.3535 55.2836 43.0387 55.1371 42.7509C54.5708 41.6816 54.1096 43.1694 54.9408 43.8521C53.1358 43.9911 53.8251 44.9271 54.4218 44.6496C54.0276 45.0796 53.7968 45.7871 54.3718 45.7246C54.7633 45.6826 55.0121 45.2794 55.1881 44.9271C55.4843 46.1114 56.4903 45.6669 56.1058 44.9461C56.7763 45.2729 57.2301 44.5074 56.4028 44.1441Z" fill="#005BC3"/>
<path d="M33.5994 34.764C33.5396 34.7853 33.4903 34.829 33.462 34.8859C33.4336 34.9427 33.4283 35.0083 33.4471 35.069C33.4637 35.1189 33.4968 35.1617 33.5408 35.1904C33.5848 35.2192 33.6373 35.2321 33.6897 35.2272C33.742 35.2223 33.7912 35.1998 33.8291 35.1634C33.8671 35.127 33.8916 35.0788 33.8986 35.0267C33.9045 34.9875 33.9005 34.9475 33.8869 34.9102C33.8732 34.873 33.8505 34.8398 33.8207 34.8137C33.7909 34.7875 33.7551 34.7693 33.7164 34.7606C33.6777 34.7519 33.6375 34.7531 33.5994 34.764Z" fill="white"/>
<path d="M37.0866 30.9351C37.0778 30.9578 37.0736 30.982 37.0743 31.0063C37.075 31.0306 37.0806 31.0546 37.0907 31.0767C37.1009 31.0988 37.1153 31.1186 37.1333 31.135C37.1513 31.1514 37.1724 31.164 37.1953 31.1721C37.2183 31.1802 37.2426 31.1835 37.2669 31.182C37.2911 31.1805 37.3149 31.1741 37.3366 31.1632C37.3584 31.1523 37.3777 31.1371 37.3935 31.1186C37.4092 31.1001 37.4211 31.0786 37.4284 31.0554C37.5484 30.8304 37.0866 30.6319 37.0866 30.9351Z" fill="white"/>
<path d="M55.5483 35.3591C55.5324 35.4044 55.5351 35.4543 55.5559 35.4976C55.5767 35.5409 55.6139 35.5743 55.6592 35.5902C55.7046 35.6061 55.7544 35.6034 55.7978 35.5826C55.8411 35.5618 55.8744 35.5247 55.8903 35.4793C56.0143 35.2621 55.5483 35.0513 55.5483 35.3591Z" fill="white"/>
<path d="M55.175 44.4223C55.1663 44.445 55.1622 44.4692 55.1629 44.4935C55.1637 44.5177 55.1693 44.5416 55.1795 44.5637C55.1896 44.5858 55.204 44.6056 55.2219 44.622C55.2398 44.6385 55.2609 44.6511 55.2837 44.6593C55.3182 44.6718 55.3557 44.6733 55.3912 44.6638C55.4266 44.6542 55.4582 44.634 55.4817 44.6058C55.4975 44.5873 55.5094 44.5658 55.5167 44.5426C55.641 44.3251 55.175 44.1146 55.175 44.4223Z" fill="white"/>
<path d="M57.9538 33.3971C57.9451 33.4197 57.941 33.4439 57.9417 33.4682C57.9425 33.4925 57.9481 33.5164 57.9583 33.5385C57.9684 33.5605 57.9828 33.5804 58.0007 33.5968C58.0186 33.6132 58.0397 33.6259 58.0625 33.6341C58.097 33.6465 58.1345 33.6481 58.17 33.6385C58.2054 33.629 58.237 33.6087 58.2605 33.5806C58.2763 33.562 58.2882 33.5405 58.2955 33.5173C58.404 33.2846 57.9538 33.0993 57.9538 33.3971Z" fill="white"/>
<path d="M35.7952 30.7262C35.8472 30.8097 35.9155 30.8819 35.996 30.9385C36.0764 30.995 36.1675 31.0348 36.2637 31.0555C36.2727 31.0559 36.2817 31.0532 36.2889 31.0477C36.2962 31.0423 36.3014 31.0346 36.3037 31.0258C36.3059 31.017 36.305 31.0077 36.3012 30.9995C36.2973 30.9912 36.2908 30.9845 36.2827 30.9805C36.1939 30.9644 36.1095 30.9295 36.0353 30.8782C35.961 30.8269 35.8986 30.7604 35.8522 30.683C35.8232 30.6337 35.7622 30.7262 35.7952 30.7262Z" fill="white"/>
<path d="M36.9282 28.9352C37.1195 29.1719 37.2105 29.4741 37.1815 29.777C37.1815 29.8212 37.2447 29.8402 37.2565 29.796C37.2884 29.4732 37.1931 29.1507 36.9907 28.8972C36.9492 28.855 36.897 28.9352 36.9282 28.9352Z" fill="white"/>
<path d="M37.7383 32.049C37.7341 32.041 37.7272 32.0348 37.7188 32.0315C37.7104 32.0281 37.701 32.0279 37.6925 32.031C37.6841 32.0341 37.677 32.0402 37.6726 32.0481C37.6683 32.056 37.6669 32.0652 37.6688 32.074C37.7328 32.2373 37.7438 32.4165 37.7005 32.5865C37.694 32.631 37.7638 32.6435 37.7755 32.5993C37.826 32.4169 37.8128 32.2229 37.7383 32.049Z" fill="white"/>
<path d="M32.2577 34.1312C32.2282 34.3457 32.4037 34.5672 32.4602 34.511C32.4727 34.4982 32.4727 34.4665 32.4602 34.461C32.4136 34.4262 32.3768 34.3799 32.3535 34.3267C32.3302 34.2734 32.3211 34.215 32.3272 34.1572C32.3427 34.11 32.2577 34.0832 32.2577 34.1312Z" fill="white"/>
<path d="M32.1816 36.0487C32.3966 36.1565 32.6988 36.1255 33.0043 35.802C33.0423 35.7702 32.9853 35.7197 32.9473 35.752C32.7638 35.9417 32.4791 36.1252 32.2131 35.9797C32.1553 35.9545 32.1471 36.0487 32.1816 36.0487Z" fill="white"/>
<path d="M34.6119 34.4605C34.608 34.4667 34.6062 34.4741 34.6068 34.4814C34.6073 34.4888 34.6102 34.4958 34.6149 34.5015C34.6181 34.5053 34.622 34.5084 34.6264 34.5107C34.6353 34.5148 34.6454 34.5153 34.6547 34.5122C34.6594 34.5105 34.6636 34.5077 34.6672 34.5042C34.6707 34.5008 34.6734 34.4967 34.6752 34.4922C34.7322 34.3785 34.7604 34.2522 34.7574 34.125C34.7559 34.1162 34.7512 34.1084 34.7442 34.103C34.739 34.099 34.7327 34.0965 34.7261 34.0959C34.7196 34.0953 34.713 34.0966 34.7071 34.0995C34.7012 34.1025 34.6963 34.1071 34.6929 34.1127C34.6895 34.1184 34.6878 34.1249 34.6879 34.1315C34.7129 34.1315 34.6742 34.3507 34.6119 34.4605Z" fill="white"/>
<path d="M54.2446 45.5237C54.5399 45.6712 54.7551 45.3817 54.9029 45.0987C54.9219 45.0542 54.8586 45.0237 54.8396 45.0669C54.7264 45.2709 54.5716 45.5854 54.2826 45.4594C54.2274 45.4362 54.2074 45.5237 54.2446 45.5237Z" fill="white"/>
<path d="M54.713 42.6566C54.6701 42.9301 54.736 43.2095 54.8965 43.4351C54.9215 43.4723 54.9842 43.4291 54.9597 43.3971C54.8831 43.2951 54.8283 43.1783 54.7989 43.0542C54.7695 42.93 54.766 42.8012 54.7887 42.6756C54.7887 42.6248 54.713 42.6121 54.713 42.6566Z" fill="white"/>
<path d="M56.1562 43.5236C56.1207 43.5119 56.0992 43.5471 56.0992 43.6121C56.0492 43.7101 55.9742 43.7588 56.0107 43.7958C56.0722 43.8891 56.2404 43.5236 56.1562 43.5236Z" fill="white"/>
<path d="M55.2193 36.492C55.2312 36.5305 55.2539 36.5648 55.2848 36.5908C55.3156 36.6168 55.3533 36.6333 55.3933 36.6385C55.4332 36.6436 55.4738 36.6372 55.5102 36.6201C55.5467 36.603 55.5775 36.5759 55.5991 36.542C55.6291 36.4987 55.5531 36.4632 55.5293 36.5102C55.5143 36.532 55.4933 36.5489 55.4688 36.559C55.4445 36.5694 55.4177 36.5725 55.3916 36.5678C55.3656 36.5631 55.3415 36.5509 55.3223 36.5327C55.3029 36.5148 55.2891 36.4916 55.2826 36.466C55.2721 36.4077 55.1903 36.492 55.2193 36.492Z" fill="white"/>
<path d="M54.9346 34.283C54.6998 34.4258 54.8571 34.791 54.9346 34.7135C54.9471 34.7008 54.9408 34.6755 54.9346 34.6635C54.9159 34.6402 54.9022 34.6132 54.8943 34.5844C54.8864 34.5555 54.8844 34.5254 54.8886 34.4957C54.8927 34.4661 54.9029 34.4377 54.9184 34.4121C54.9339 34.3865 54.9545 34.3644 54.9788 34.347C55.0171 34.3215 54.9788 34.2515 54.9346 34.283Z" fill="white"/>
<path d="M56.1687 34.2959C56.18 34.4715 56.126 34.6451 56.017 34.7832C55.992 34.8212 56.0552 34.8532 56.0802 34.8149C56.1414 34.7393 56.1869 34.6522 56.2141 34.5587C56.2413 34.4653 56.2496 34.3674 56.2385 34.2707C56.2322 34.2262 56.1562 34.2517 56.1687 34.2959Z" fill="white"/>
<path d="M56.8016 34.2768C56.7993 34.324 56.8105 34.3709 56.8341 34.4119C56.8576 34.453 56.8924 34.4864 56.9343 34.5083C56.9762 34.5302 57.0235 34.5397 57.0706 34.5357C57.1178 34.5317 57.1627 34.5142 57.2003 34.4855C57.2471 34.4388 57.1886 34.4048 57.1623 34.4223C57.1426 34.4382 57.1195 34.4495 57.0949 34.4555C57.0702 34.4614 57.0445 34.4618 57.0197 34.4566C56.9949 34.4514 56.9715 34.4408 56.9513 34.4255C56.9311 34.4101 56.9145 34.3905 56.9028 34.368C56.887 34.3381 56.8804 34.3042 56.8838 34.2705C56.8838 34.2248 56.8016 34.2258 56.8016 34.2768Z" fill="white"/>
<path d="M56.7637 32.3844C56.7436 32.5258 56.7696 32.67 56.8381 32.7955C56.9065 32.9209 57.0136 33.0209 57.1435 33.0806C57.1877 33.0996 57.2185 33.0364 57.1752 33.0174C57.0592 32.9644 56.9633 32.8754 56.9018 32.7637C56.8403 32.652 56.8163 32.5235 56.8335 32.3971C56.8345 32.3924 56.8347 32.3876 56.834 32.3829C56.833 32.3782 56.8312 32.3737 56.8287 32.3696C56.8259 32.3656 56.8225 32.3621 56.8185 32.3594C56.8145 32.3566 56.81 32.3548 56.8052 32.3541C56.8005 32.3532 56.7956 32.3532 56.7909 32.3543C56.7862 32.3554 56.7818 32.3575 56.778 32.3604C56.774 32.3631 56.7708 32.3667 56.7685 32.3709C56.7659 32.375 56.7643 32.3796 56.7637 32.3844Z" fill="white"/>
<path d="M58.3649 31.4035C58.5207 31.531 58.4632 31.6915 58.5294 31.6695C58.6129 31.6695 58.5197 31.4347 58.4157 31.3465C58.3557 31.3065 58.3399 31.4035 58.3649 31.4035Z" fill="white"/>
<path d="M59.0611 33.8211C59.2821 33.8263 59.6341 33.7063 59.6561 33.4983C59.6561 33.4541 59.5928 33.4351 59.5811 33.4793C59.5596 33.6518 59.2413 33.7491 59.0561 33.7388C59.0053 33.7458 59.0221 33.8191 59.0611 33.8211Z" fill="white"/>
<path d="M32.397 26.34C31.672 27.124 31.7145 27.4765 31.606 27.4222C31.3087 27.1096 30.936 26.8786 30.5237 26.7515C30.4487 26.7265 30.4155 26.8542 30.492 26.878C30.8434 26.9836 31.163 27.1751 31.422 27.435C31.8355 27.8535 31.6612 27.313 32.497 26.4412C32.5485 26.3655 32.4482 26.284 32.397 26.34Z" fill="#414141"/>
<path d="M30.8334 39.5426C30.631 39.7677 30.499 40.0471 30.4537 40.3463C30.042 40.0999 29.578 39.9543 29.0994 39.9213C29.0169 39.9153 29.0244 40.0421 29.1057 40.0478C29.5922 40.0836 30.0619 40.2403 30.4727 40.5036C30.6477 40.6141 30.4622 40.1206 30.9227 39.6176C30.9854 39.5691 30.8902 39.4791 30.8334 39.5426Z" fill="#414141"/>
<path d="M58.0484 26.2073C57.8385 26.2543 57.6412 26.3458 57.4697 26.4757C57.2983 26.6057 57.1568 26.7709 57.0549 26.9603C56.8567 26.5753 56.5623 26.2481 56.2004 26.0103C56.1312 25.9653 56.0679 26.0793 56.1372 26.1241C56.9292 26.6356 57.0087 27.3768 57.1122 27.1368C57.1977 26.9341 57.3311 26.7551 57.5008 26.6151C57.6706 26.4751 57.8718 26.3784 58.0872 26.3331C58.1025 26.3269 58.1151 26.3152 58.1222 26.3002C58.1294 26.2853 58.1307 26.2682 58.1259 26.2523C58.1211 26.2364 58.1104 26.2229 58.096 26.2146C58.0816 26.2062 58.0646 26.2036 58.0484 26.2073Z" fill="#414141"/>
<path d="M45.3928 46.0478C45.3599 46.0479 45.3281 46.036 45.3033 46.0145C45.2785 45.9929 45.2623 45.9631 45.2578 45.9306C45.1666 45.2671 45.1171 44.5985 45.1093 43.9288C45.1085 43.9104 45.1114 43.8921 45.1179 43.8748C45.1244 43.8576 45.1343 43.8419 45.1471 43.8286C45.1598 43.8153 45.1751 43.8047 45.192 43.7975C45.209 43.7902 45.2272 43.7865 45.2456 43.7865C45.264 43.7865 45.2823 43.7902 45.2992 43.7975C45.3162 43.8047 45.3315 43.8153 45.3442 43.8286C45.3569 43.8419 45.3669 43.8576 45.3734 43.8748C45.3798 43.8921 45.3828 43.9104 45.382 43.9288C45.39 44.5856 45.4387 45.2413 45.528 45.8921C45.5308 45.9115 45.5293 45.9312 45.5238 45.95C45.5183 45.9687 45.5088 45.9861 45.4959 46.0008C45.4831 46.0156 45.4673 46.0274 45.4495 46.0356C45.4317 46.0437 45.4123 46.0479 45.3928 46.0478Z" fill="#414141"/>
<path d="M46.0179 44.6909C45.9831 44.6908 45.9496 44.6774 45.9243 44.6535C45.899 44.6295 45.8839 44.5967 45.8819 44.5619C45.8639 44.2442 45.7914 43.6899 45.7907 43.6842C45.786 43.6483 45.7958 43.612 45.8179 43.5833C45.84 43.5546 45.8725 43.5358 45.9084 43.5312C45.9443 43.5265 45.9806 43.5363 46.0093 43.5584C46.038 43.5804 46.0568 43.613 46.0614 43.6489C46.0644 43.6719 46.1364 44.2187 46.1544 44.5467C46.1555 44.5652 46.1527 44.5838 46.1463 44.6013C46.1399 44.6187 46.13 44.6347 46.1172 44.6482C46.1045 44.6617 46.0891 44.6724 46.072 44.6798C46.0549 44.6871 46.0365 44.6909 46.0179 44.6909Z" fill="#414141"/>
<path d="M39.1922 42.7651C37.8672 42.7798 35.6482 41.4508 34.3172 40.0421C32.413 38.0273 31.208 37.6871 31.208 37.6871L29.1652 47.1073L22.192 38.7173C19.9105 39.8213 18.6225 45.1203 18.6225 45.1203C18.0285 44.1306 16.1352 39.9906 15.7497 39.1453C15.7293 39.1001 15.694 39.0632 15.6497 39.0408C15.6054 39.0184 15.5548 39.0118 15.5062 39.0221C14.9435 39.1413 13.6262 39.5888 13.1812 39.7423C13.1375 39.7574 13.0998 39.786 13.0734 39.8239C13.0469 39.8618 13.0332 39.9071 13.0342 39.9533C13.1842 47.7346 15.7577 51.1941 17.9232 51.4408C19.7947 51.6541 21.6482 49.4538 21.6482 49.4538L21.5102 53.7038C21.5102 53.7038 24.2977 56.1601 28.9895 55.6911C31.2822 55.4307 33.403 54.349 34.96 52.6461C34.813 50.2908 33.6905 45.7831 33.6905 45.7831C33.6905 45.7831 35.6685 48.0186 39.2287 47.5863C42.0232 47.2468 44.3252 43.2808 44.3252 43.2808V39.4626C44.3252 39.4626 40.8575 42.7468 39.1922 42.7651Z" fill="#005BC3"/>
<path d="M29.215 47.2163C26.909 44.811 22.2132 38.7435 22.2132 38.7435C22.2132 38.7435 23.5242 37.1385 25.549 36.9495C25.5774 36.4695 25.5495 35.9878 25.466 35.5143C24.7327 35.3355 24.052 34.9863 23.479 34.495C23.479 34.495 20.9805 34.2035 18.979 31.2228C16.9775 28.242 17.9167 25.456 18.854 25.1863C18.854 25.1863 18.946 24.297 19.6452 23.9583C20.3445 23.6195 22.8252 22.5798 23.3832 22.3405C23.9412 22.1013 26.0295 21.255 27.7775 22.5338C29.5255 23.8125 28.8275 25.9653 28.7067 26.186C28.3953 26.5741 28.0604 26.9428 27.704 27.29C27.704 27.29 28.44 29.2055 28.6055 29.8208C28.771 30.436 29.4657 33.2098 28.624 34.1483C27.7822 35.0868 27.313 35.2233 27.313 35.2233C27.4021 35.7205 27.5313 36.2096 27.6992 36.686C27.6992 36.686 29.7415 36.4378 31.1905 37.8315L29.215 47.2163Z" fill="white"/>
<path d="M13.336 39.4884C13.9462 39.4409 14.5485 39.3204 15.13 39.1297C15.13 39.1297 15.7923 36.1634 14.8815 35.8527C14.8815 35.8527 15.005 33.0172 14.5358 33.0167C14.2293 33.0167 14.2293 34.7232 14.2293 34.7232C14.1674 34.6713 14.0947 34.6338 14.0166 34.6133C13.9385 34.5929 13.8568 34.59 13.7774 34.605C13.6981 34.6199 13.623 34.6523 13.5576 34.6998C13.4923 34.7472 13.4383 34.8086 13.3995 34.8794C13.3995 34.8794 13.007 34.5544 12.7058 35.0657C12.7058 35.0657 12.073 34.9022 12.1423 35.8109C12.1615 36.2447 12.2999 36.6649 12.5423 37.0252C12.5423 37.0252 12.3978 37.5382 13.336 39.4884Z" fill="white"/>
<path d="M44.3914 38.7501C44.3914 38.7501 44.4741 37.8876 44.8676 37.9291C45.2611 37.9706 45.0374 38.7558 45.0884 39.0261C45.0884 39.0261 46.0649 39.7593 45.5899 40.4261C45.5899 40.4261 45.8399 41.0883 45.5092 41.4126C45.5092 41.4126 45.7404 42.1251 45.1229 42.1923C45.1229 42.1923 45.0124 43.0133 44.4537 42.4673C44.2309 42.0528 43.9698 41.6601 43.6739 41.2943C43.2324 40.7768 43.6119 40.6043 43.7636 40.6803C43.7636 40.6803 43.3136 40.0661 43.8831 39.9351C43.8831 39.9351 43.5082 39.4101 44.0607 39.3418C44.0607 39.3438 43.6946 38.7656 44.3914 38.7501Z" fill="white"/>
<path d="M45.7272 40.4867C45.8016 40.4023 45.8529 40.3 45.8762 40.1899C45.8995 40.0798 45.894 39.9656 45.8602 39.8582C45.7615 39.5164 45.5461 39.2201 45.2515 39.0207C45.2081 38.8148 45.1935 38.6039 45.208 38.394C45.2242 38.3028 45.2207 38.2091 45.1978 38.1194C45.1748 38.0296 45.1328 37.9459 45.0747 37.8737C45.0296 37.8415 44.9779 37.8195 44.9234 37.8092C44.8689 37.799 44.8128 37.8007 44.759 37.8144C44.7053 37.8281 44.6551 37.8533 44.6121 37.8883C44.5691 37.9233 44.5342 37.9673 44.51 38.0172L44.4807 35.5332C44.4805 35.5153 44.4768 35.4976 44.4698 35.4811C44.4628 35.4646 44.4526 35.4496 44.4398 35.4371C44.4269 35.4245 44.4118 35.4146 44.3952 35.4079C44.3785 35.4013 44.3608 35.3979 44.3428 35.3981C44.3249 35.3983 44.3072 35.402 44.2907 35.409C44.2742 35.416 44.2593 35.4262 44.2467 35.439C44.2342 35.4518 44.2243 35.467 44.2176 35.4836C44.2109 35.5002 44.2075 35.518 44.2077 35.536L44.2447 38.6587C43.628 38.7337 43.8447 39.232 43.8845 39.2817C43.8215 39.2956 43.7633 39.326 43.7159 39.3696C43.6684 39.4133 43.6334 39.4687 43.6142 39.5303C43.5951 39.5918 43.5926 39.6574 43.6069 39.7202C43.6213 39.7831 43.652 39.841 43.696 39.8882C43.6259 39.9132 43.5642 39.9573 43.5178 40.0154C43.4714 40.0735 43.4421 40.1435 43.4332 40.2173C43.4244 40.2912 43.4363 40.366 43.4676 40.4335C43.499 40.501 43.5485 40.5583 43.6107 40.5992C43.2255 40.5857 43.2607 41.1962 43.7315 41.609C43.9099 41.7833 44.0576 41.9866 44.1682 42.2102L44.2445 49.1697C44.2439 49.1881 44.2471 49.2064 44.2538 49.2236C44.2605 49.2407 44.2706 49.2563 44.2834 49.2694C44.2963 49.2826 44.3117 49.293 44.3287 49.3C44.3457 49.307 44.364 49.3105 44.3824 49.3103C44.4008 49.3101 44.419 49.3062 44.4358 49.2988C44.4527 49.2914 44.4678 49.2807 44.4804 49.2673C44.493 49.2538 44.5028 49.238 44.5091 49.2207C44.5154 49.2035 44.5182 49.1851 44.5172 49.1667L44.4465 42.6917C44.9657 42.9805 45.2127 42.4432 45.2375 42.2692C45.8475 42.1942 45.6905 41.4692 45.6905 41.4692C45.8385 41.3082 45.9715 40.967 45.7272 40.4867ZM44.8112 38.068C44.9362 38.045 44.9517 38.1967 44.9362 38.3695C44.9207 38.5422 44.9362 38.8195 44.9317 38.8195C44.8364 38.7684 44.7358 38.7279 44.6317 38.6987C44.6525 38.3797 44.6902 38.0905 44.8112 38.068ZM44.482 38.9412C44.7304 39.0082 44.9601 39.1315 45.1531 39.3017C45.3462 39.4719 45.4974 39.6843 45.595 39.9225C45.6118 39.9764 45.6178 40.0331 45.6127 40.0893C45.6076 40.1455 45.5915 40.2002 45.5652 40.2502C45.3565 39.9982 44.8492 39.4487 44.3577 39.3157C44.136 39.2557 44.047 39.1342 44.0627 39.049C44.1087 38.7987 44.482 38.9412 44.482 38.9412ZM44.276 39.5772C44.7263 39.8097 45.1226 40.1345 45.439 40.5305C45.5138 40.6241 45.5626 40.7358 45.5805 40.8542C45.5985 40.9727 45.5849 41.0939 45.5412 41.2055C45.1664 40.6484 44.6597 40.1925 44.0662 39.8785C43.8567 39.813 43.7195 39.3267 44.276 39.5772ZM44.6527 42.5077C44.5502 42.4695 44.3332 41.8005 43.9335 41.4255C43.5497 41.0657 43.543 40.7237 43.827 40.855C44.1016 40.9955 44.3444 41.1909 44.5403 41.4292C44.7362 41.6675 44.881 41.9436 44.9657 42.2402C44.9756 42.2816 44.9738 42.325 44.9607 42.3655C44.9475 42.4059 44.9234 42.442 44.891 42.4697C44.8586 42.4973 44.8193 42.5155 44.7772 42.5222C44.7352 42.529 44.6921 42.5239 44.6527 42.5077ZM45.1617 42.0077C44.896 41.4451 44.4822 40.9653 43.9647 40.62C43.8305 40.459 43.6717 40.395 43.733 40.2032C43.7725 40.114 43.9092 40.1232 43.953 40.1282C44.5533 40.4552 45.0579 40.9333 45.4167 41.5152C45.5437 41.938 45.2115 41.9905 45.1617 42.0067V42.0077Z" fill="#414141"/>
<path d="M43.9521 49.3368C43.9521 49.4527 43.9982 49.5638 44.0801 49.6458C44.1621 49.7277 44.2732 49.7738 44.3891 49.7738C44.505 49.7738 44.6162 49.7277 44.6982 49.6458C44.7801 49.5638 44.8261 49.4527 44.8261 49.3368C44.8261 49.2209 44.7801 49.1097 44.6982 49.0278C44.6162 48.9458 44.505 48.8998 44.3891 48.8998C44.2732 48.8998 44.1621 48.9458 44.0801 49.0278C43.9982 49.1097 43.9521 49.2209 43.9521 49.3368Z" fill="#005BC3"/>
<path d="M24.5258 32.831C24.5357 32.8735 24.557 32.9128 24.5883 32.9466C24.6197 32.9805 24.6605 33.0083 24.7085 33.0283C24.7565 33.0484 24.8106 33.0604 24.8678 33.0636C24.9251 33.0668 24.9842 33.0612 25.0418 33.047C25.0995 33.0329 25.1545 33.0105 25.2037 32.9811C25.2529 32.9518 25.2953 32.916 25.3285 32.876C25.3617 32.836 25.385 32.7924 25.3971 32.7479C25.4091 32.7034 25.4097 32.6587 25.3988 32.6165C25.3889 32.5741 25.3677 32.5348 25.3363 32.5009C25.305 32.4671 25.2641 32.4393 25.2162 32.4192C25.1682 32.3991 25.114 32.3871 25.0568 32.3839C24.9996 32.3807 24.9405 32.3864 24.8828 32.4005C24.8252 32.4147 24.7702 32.4371 24.721 32.4665C24.6718 32.4958 24.6293 32.5315 24.5961 32.5715C24.563 32.6116 24.5397 32.6551 24.5276 32.6996C24.5155 32.7442 24.5149 32.7888 24.5258 32.831Z" fill="#FDAF31"/>
<path d="M28.0561 31.2401C28.076 31.2786 28.106 31.3114 28.1445 31.3366C28.1829 31.3618 28.2291 31.3789 28.2802 31.387C28.3314 31.3951 28.3866 31.3939 28.4427 31.3837C28.4988 31.3734 28.5546 31.3541 28.6071 31.3271C28.6596 31.3 28.7076 31.2656 28.7484 31.2258C28.7893 31.186 28.8222 31.1417 28.8452 31.0953C28.8682 31.0489 28.881 31.0014 28.8827 30.9555C28.8843 30.9095 28.875 30.8661 28.8551 30.8276C28.8352 30.789 28.8052 30.7562 28.7667 30.731C28.7282 30.7058 28.6821 30.6887 28.6309 30.6806C28.5798 30.6725 28.5246 30.6737 28.4685 30.684C28.4124 30.6942 28.3565 30.7135 28.3041 30.7406C28.2516 30.7676 28.2036 30.8021 28.1627 30.8418C28.1219 30.8816 28.089 30.9259 28.066 30.9723C28.0429 31.0187 28.0302 31.0662 28.0285 31.1121C28.0268 31.1581 28.0362 31.2015 28.0561 31.2401Z" fill="#FDAF31"/>
<path d="M23.7375 29.2791C23.7145 29.2791 23.692 29.2732 23.6719 29.2621C23.6518 29.251 23.6348 29.2351 23.6225 29.2157C23.6102 29.1963 23.603 29.1741 23.6016 29.1512C23.6001 29.1283 23.6045 29.1054 23.6143 29.0846C23.7209 28.8827 23.8865 28.7181 24.0891 28.6125C24.2916 28.507 24.5214 28.4656 24.748 28.4939C24.784 28.4975 24.8172 28.5153 24.8401 28.5434C24.863 28.5714 24.8738 28.6075 24.8701 28.6435C24.8665 28.6795 24.8487 28.7126 24.8206 28.7355C24.7925 28.7584 24.7565 28.7693 24.7205 28.7656C24.5501 28.7429 24.3767 28.7722 24.2233 28.8499C24.0699 28.9275 23.9436 29.0498 23.861 29.2006C23.85 29.2241 23.8326 29.244 23.8107 29.2579C23.7888 29.2718 23.7634 29.2792 23.7375 29.2791Z" fill="#414141"/>
<path d="M26.4152 28.0351C26.3901 28.0351 26.3656 28.0281 26.3442 28.015C26.3229 28.002 26.3056 27.9833 26.2941 27.961C26.2827 27.9387 26.2776 27.9137 26.2794 27.8887C26.2812 27.8638 26.2899 27.8398 26.3044 27.8194C26.421 27.6694 26.5763 27.5542 26.7536 27.4861C26.9309 27.418 27.1235 27.3997 27.3104 27.4331C27.3461 27.4393 27.3778 27.4595 27.3987 27.4891C27.4195 27.5187 27.4277 27.5553 27.4215 27.591C27.4153 27.6267 27.3952 27.6584 27.3656 27.6793C27.336 27.7001 27.2993 27.7083 27.2637 27.7021C27.1274 27.6775 26.987 27.6901 26.8573 27.7385C26.7276 27.7869 26.6133 27.8693 26.5264 27.9771C26.5139 27.995 26.4972 28.0096 26.4779 28.0197C26.4585 28.0298 26.437 28.0351 26.4152 28.0351Z" fill="#414141"/>
<path d="M19.3953 46.8392C19.3702 46.8391 19.3457 46.8323 19.3242 46.8193C19.3028 46.8063 19.2854 46.7876 19.2738 46.7654L17.1948 42.7544C17.1854 42.7384 17.1794 42.7207 17.1771 42.7023C17.1748 42.6838 17.1763 42.6652 17.1814 42.6474C17.1866 42.6295 17.1953 42.613 17.2071 42.5986C17.2189 42.5843 17.2334 42.5725 17.2499 42.564C17.2664 42.5555 17.2845 42.5505 17.303 42.5492C17.3215 42.5479 17.34 42.5504 17.3576 42.5565C17.3751 42.5626 17.3911 42.5722 17.4048 42.5847C17.4185 42.5973 17.4294 42.6125 17.437 42.6294L19.5153 46.6399C19.5259 46.6606 19.5311 46.6837 19.5303 46.707C19.5296 46.7303 19.5228 46.753 19.5108 46.773C19.4988 46.7929 19.4819 46.8095 19.4617 46.8211C19.4414 46.8326 19.4186 46.8389 19.3953 46.8392Z" fill="#414141"/>
<path d="M21.6352 50.2534C21.6164 50.2534 21.5978 50.2496 21.5806 50.2421C21.5634 50.2347 21.5479 50.2237 21.5351 50.21C21.5223 50.1963 21.5125 50.1801 21.5063 50.1624C21.5 50.1447 21.4975 50.1259 21.4989 50.1071L21.9402 43.8884C21.941 43.8702 21.9455 43.8524 21.9534 43.836C21.9612 43.8196 21.9723 43.8049 21.9859 43.7929C21.9995 43.7808 22.0153 43.7715 22.0326 43.7657C22.0498 43.7598 22.068 43.7575 22.0861 43.7588C22.1043 43.76 22.122 43.7649 22.1382 43.7732C22.1544 43.7814 22.1688 43.7928 22.1806 43.8066C22.1924 43.8205 22.2012 43.8366 22.2067 43.8539C22.2122 43.8713 22.2141 43.8895 22.2124 43.9076L21.7709 50.1266C21.7684 50.161 21.753 50.1931 21.7278 50.2166C21.7027 50.2401 21.6696 50.2532 21.6352 50.2534Z" fill="#414141"/>
<path d="M34.261 47.906C34.2289 47.906 34.1978 47.8947 34.1733 47.874C34.1487 47.8533 34.1322 47.8247 34.1267 47.793C33.7109 45.6629 33.1841 43.556 32.5485 41.4808C32.5429 41.4636 32.5407 41.4454 32.5422 41.4274C32.5437 41.4093 32.5487 41.3917 32.557 41.3757C32.5653 41.3596 32.5768 41.3453 32.5906 41.3337C32.6045 41.3221 32.6206 41.3133 32.6379 41.308C32.6552 41.3026 32.6733 41.3008 32.6914 41.3025C32.7094 41.3043 32.7269 41.3096 32.7428 41.3181C32.7588 41.3267 32.7729 41.3383 32.7843 41.3524C32.7957 41.3665 32.8042 41.3827 32.8092 41.4C33.4482 43.4864 33.9777 45.6047 34.3957 47.7463C34.3991 47.7659 34.3981 47.786 34.3929 47.8052C34.3877 47.8244 34.3783 47.8422 34.3655 47.8574C34.3526 47.8727 34.3366 47.8849 34.3186 47.8933C34.3006 47.9017 34.2809 47.906 34.261 47.906Z" fill="#414141"/>
<path d="M26.9617 52.998C26.9416 52.998 26.9217 52.9936 26.9035 52.985C26.8852 52.9764 26.8691 52.9639 26.8563 52.9483C26.8435 52.9327 26.8343 52.9145 26.8294 52.895C26.8244 52.8755 26.8239 52.8551 26.8277 52.8353L26.9112 52.4075C26.9147 52.3899 26.9216 52.3732 26.9315 52.3583C26.9414 52.3433 26.9542 52.3305 26.9691 52.3205C26.9839 52.3105 27.0006 52.3035 27.0182 52.2999C27.0358 52.2964 27.0539 52.2963 27.0715 52.2998C27.0891 52.3032 27.1058 52.3101 27.1208 52.32C27.1357 52.33 27.1486 52.3427 27.1586 52.3576C27.1686 52.3725 27.1755 52.3892 27.1791 52.4068C27.1826 52.4243 27.1827 52.4424 27.1792 52.46L27.0955 52.8878C27.0894 52.9188 27.0728 52.9468 27.0484 52.9669C27.024 52.987 26.9934 52.998 26.9617 52.998Z" fill="#414141"/>
<path d="M24.6704 47.782C24.6467 47.7819 24.6235 47.7756 24.6029 47.7638C24.5824 47.7521 24.5652 47.7352 24.5532 47.7148C24.5411 47.6944 24.5346 47.6712 24.5342 47.6475C24.5338 47.6239 24.5395 47.6005 24.5509 47.5797C24.6765 47.3613 24.813 47.1494 24.9599 46.9447C24.9702 46.9298 24.9834 46.9171 24.9987 46.9073C25.014 46.8975 25.0311 46.8909 25.0489 46.8878C25.0668 46.8848 25.0851 46.8853 25.1028 46.8894C25.1205 46.8934 25.1372 46.901 25.1519 46.9116C25.1666 46.9222 25.1791 46.9356 25.1886 46.9511C25.198 46.9666 25.2043 46.9838 25.2071 47.0017C25.2098 47.0196 25.209 47.0379 25.2045 47.0555C25.2001 47.0731 25.1923 47.0897 25.1814 47.1042C25.1789 47.1075 24.9361 47.4457 24.7901 47.7112C24.7783 47.7326 24.761 47.7505 24.7399 47.7629C24.7189 47.7754 24.6949 47.7819 24.6704 47.782Z" fill="#414141"/>
<path d="M25.1262 48.2096C25.1058 48.2096 25.0856 48.205 25.0671 48.1961C25.0487 48.1873 25.0324 48.1744 25.0196 48.1585C25.0068 48.1425 24.9977 48.1239 24.9931 48.104C24.9884 48.084 24.9883 48.0633 24.9927 48.0433C25.0524 47.8629 25.125 47.6871 25.21 47.5171C25.2257 47.4845 25.2537 47.4594 25.2879 47.4475C25.3221 47.4355 25.3596 47.4376 25.3922 47.4533C25.4248 47.4691 25.4499 47.4971 25.4618 47.5313C25.4738 47.5654 25.4717 47.603 25.456 47.6356C25.38 47.7867 25.3143 47.9427 25.2592 48.1026C25.2525 48.1329 25.2357 48.16 25.2115 48.1795C25.1873 48.1989 25.1573 48.2095 25.1262 48.2096Z" fill="#414141"/>
<path d="M31.0427 50.0128C31.018 50.0128 30.9937 50.0061 30.9726 49.9935C30.9514 49.9808 30.934 49.9626 30.9224 49.9408C30.8631 49.8414 30.7912 49.7502 30.7084 49.6693C30.683 49.644 30.6685 49.6096 30.6682 49.5738C30.6679 49.5379 30.6817 49.5033 30.7067 49.4775C30.7317 49.4518 30.7658 49.4369 30.8017 49.4361C30.8376 49.4353 30.8723 49.4486 30.8984 49.4733C31.0011 49.574 31.09 49.6878 31.1629 49.8118C31.1741 49.8326 31.1796 49.8559 31.1791 49.8795C31.1785 49.9031 31.1719 49.9261 31.1598 49.9464C31.1476 49.9666 31.1305 49.9834 31.11 49.995C31.0894 50.0066 31.0663 50.0128 31.0427 50.0128Z" fill="#414141"/>
<path d="M31.5697 49.8155C31.5468 49.8155 31.5243 49.8097 31.5043 49.7988C31.4842 49.7878 31.4673 49.772 31.4549 49.7527C31.3157 49.5418 31.1451 49.3532 30.9492 49.1935C30.9219 49.171 30.9045 49.1388 30.9005 49.1037C30.8965 49.0685 30.9063 49.0333 30.9278 49.0052C30.9493 48.9772 30.9809 48.9586 31.0158 48.9533C31.0507 48.948 31.0864 48.9565 31.1152 48.977C31.3366 49.1553 31.5287 49.3673 31.6844 49.6052C31.6977 49.6258 31.7051 49.6496 31.706 49.6741C31.7068 49.6986 31.7011 49.7229 31.6894 49.7444C31.6776 49.7659 31.6603 49.7838 31.6393 49.7963C31.6182 49.8088 31.5942 49.8155 31.5697 49.8155Z" fill="#414141"/>
<path d="M21.5385 41.4481C21.5159 41.4481 21.4935 41.4424 21.4736 41.4315C21.4537 41.4207 21.4367 41.4051 21.4243 41.3861C21.4119 41.3671 21.4045 41.3453 21.4026 41.3227C21.4007 41.3001 21.4045 41.2774 21.4135 41.2566C21.5093 41.0548 21.6158 40.8583 21.7325 40.6679C21.7415 40.6518 21.7536 40.6377 21.7681 40.6264C21.7826 40.6152 21.7993 40.6069 21.8171 40.6023C21.8349 40.5976 21.8534 40.5966 21.8716 40.5992C21.8898 40.6019 21.9073 40.6082 21.923 40.6178C21.9387 40.6274 21.9523 40.6401 21.9629 40.655C21.9736 40.67 21.9811 40.687 21.9851 40.7049C21.989 40.7229 21.9893 40.7415 21.9859 40.7595C21.9825 40.7776 21.9755 40.7948 21.9653 40.8101C21.8551 40.9903 21.7543 41.176 21.6633 41.3666C21.6527 41.3908 21.6352 41.4114 21.613 41.4259C21.5909 41.4404 21.565 41.4481 21.5385 41.4481Z" fill="#414141"/>
<path d="M17.15 47.8047C17.1162 47.8047 17.0836 47.7921 17.0586 47.7695C17.0336 47.7468 17.0179 47.7156 17.0145 47.682C17.004 47.5004 17.004 47.3183 17.0145 47.1367C17.0149 47.1185 17.019 47.1005 17.0266 47.0839C17.0341 47.0672 17.0449 47.0523 17.0583 47.0399C17.0717 47.0275 17.0874 47.0179 17.1046 47.0117C17.1217 47.0055 17.14 47.0028 17.1582 47.0037C17.1765 47.0047 17.1943 47.0093 17.2107 47.0173C17.2271 47.0253 17.2418 47.0365 17.2538 47.0503C17.2658 47.064 17.2749 47.08 17.2806 47.0974C17.2863 47.1147 17.2885 47.133 17.287 47.1512C17.2777 47.3189 17.2777 47.487 17.287 47.6547C17.2889 47.6738 17.2868 47.6931 17.2808 47.7113C17.2748 47.7295 17.265 47.7462 17.2521 47.7604C17.2391 47.7745 17.2234 47.7858 17.2058 47.7935C17.1882 47.8011 17.1692 47.8049 17.15 47.8047Z" fill="#414141"/>
<path d="M16.5338 47.125C16.5139 47.125 16.4941 47.1207 16.476 47.1122C16.4579 47.1038 16.4419 47.0915 16.4291 47.0762C16.4163 47.0609 16.407 47.0429 16.4018 47.0237C16.3967 47.0044 16.3958 46.9842 16.3993 46.9645C16.4257 46.8226 16.475 46.686 16.5453 46.56C16.5644 46.5302 16.5944 46.5089 16.6289 46.5007C16.6634 46.4926 16.6997 46.4981 16.7301 46.5163C16.7606 46.5344 16.7828 46.5636 16.7921 46.5978C16.8013 46.632 16.797 46.6685 16.7798 46.6995C16.7264 46.7974 16.6887 46.9031 16.6681 47.0128C16.6624 47.0442 16.6458 47.0727 16.6213 47.0932C16.5967 47.1137 16.5658 47.1249 16.5338 47.125Z" fill="#414141"/>
<path d="M14.8784 41.1617C14.8549 41.1618 14.8318 41.1558 14.8114 41.1443C14.7909 41.1328 14.7738 41.1163 14.7616 41.0962C14.6869 40.9593 14.6193 40.8186 14.5591 40.6747C14.545 40.6414 14.5447 40.6038 14.5584 40.5703C14.572 40.5367 14.5984 40.51 14.6317 40.4959C14.6651 40.4818 14.7027 40.4815 14.7362 40.4951C14.7698 40.5088 14.7965 40.5351 14.8106 40.5685C14.8653 40.7001 14.9267 40.8289 14.9946 40.9542C15.0072 40.9749 15.0141 40.9986 15.0145 41.0228C15.0149 41.047 15.0089 41.0708 14.9971 41.092C14.9853 41.1131 14.968 41.1307 14.9472 41.1429C14.9263 41.1552 14.9026 41.1617 14.8784 41.1617Z" fill="#414141"/>
<path d="M35.5632 44.5624C35.5417 44.5624 35.5204 44.5573 35.5012 44.5475C35.482 44.5377 35.4654 44.5235 35.4528 44.5061C35.4401 44.4887 35.4318 44.4685 35.4284 44.4472C35.4251 44.4259 35.4268 44.4041 35.4335 44.3836C35.5062 44.1986 35.5975 44.0215 35.706 43.8549C35.7261 43.8257 35.7568 43.8055 35.7916 43.7985C35.8264 43.7916 35.8626 43.7985 35.8924 43.8177C35.9222 43.837 35.9433 43.8671 35.9513 43.9016C35.9593 43.9362 35.9535 43.9725 35.9352 44.0029C35.8399 44.1498 35.7588 44.3056 35.693 44.4679C35.6841 44.4953 35.6668 44.5193 35.6434 44.5362C35.6201 44.5532 35.592 44.5624 35.5632 44.5624Z" fill="#414141"/>
<path d="M36.2303 44.691C36.2108 44.691 36.1915 44.6868 36.1737 44.6787C36.156 44.6707 36.1401 44.6589 36.1273 44.6442C36.1145 44.6294 36.105 44.6122 36.0994 44.5935C36.0939 44.5748 36.0924 44.5551 36.095 44.5357C36.1123 44.4107 36.1213 44.172 36.1213 44.172C36.1227 44.1358 36.1383 44.1016 36.1649 44.077C36.1915 44.0523 36.2267 44.0393 36.2629 44.0406C36.2991 44.042 36.3333 44.0577 36.3579 44.0842C36.3826 44.1108 36.3957 44.146 36.3943 44.1822C36.3943 44.1925 36.3845 44.4345 36.3653 44.5732C36.3608 44.6059 36.3446 44.6357 36.3198 44.6574C36.295 44.679 36.2632 44.6909 36.2303 44.691Z" fill="#414141"/>
<path d="M31.7222 43.3665C31.6917 43.3664 31.6621 43.3561 31.6381 43.3372C31.6141 43.3184 31.5971 43.2921 31.5897 43.2625C31.5525 43.111 31.463 42.849 31.4623 42.8465C31.4555 42.8293 31.4524 42.811 31.4529 42.7926C31.4535 42.7742 31.4578 42.7561 31.4655 42.7394C31.4733 42.7227 31.4843 42.7077 31.498 42.6954C31.5117 42.6831 31.5277 42.6736 31.5451 42.6677C31.5625 42.6617 31.5809 42.6593 31.5993 42.6606C31.6177 42.662 31.6356 42.667 31.6519 42.6755C31.6683 42.6839 31.6828 42.6956 31.6945 42.7097C31.7063 42.7239 31.715 42.7403 31.7203 42.758C31.7243 42.769 31.8148 43.033 31.855 43.1972C31.8599 43.2173 31.8602 43.2383 31.8558 43.2586C31.8515 43.2788 31.8426 43.2978 31.8298 43.3141C31.817 43.3304 31.8007 43.3436 31.782 43.3527C31.7634 43.3617 31.743 43.3665 31.7222 43.3665Z" fill="#414141"/>
<path d="M40.9332 44.5392C40.9086 44.5391 40.8844 44.5324 40.8633 44.5198C40.8422 44.5072 40.8249 44.4891 40.8132 44.4675C40.8016 44.4458 40.796 44.4215 40.797 44.3969C40.798 44.3723 40.8057 44.3485 40.8192 44.3279C40.9075 44.1915 41.02 44.0723 41.1512 43.9764C41.1664 43.9665 41.1835 43.9597 41.2014 43.9564C41.2193 43.9532 41.2376 43.9535 41.2554 43.9575C41.2732 43.9614 41.29 43.9689 41.3048 43.9794C41.3196 43.99 41.3322 44.0034 41.3418 44.0188C41.3514 44.0343 41.3578 44.0515 41.3606 44.0695C41.3634 44.0875 41.3626 44.1058 41.3583 44.1235C41.3539 44.1412 41.346 44.1578 41.3352 44.1723C41.3243 44.1869 41.3106 44.1992 41.2949 44.2084C41.1976 44.2834 41.1138 44.3744 41.0472 44.4777C41.0348 44.4966 41.0179 44.5121 40.998 44.5229C40.978 44.5336 40.9558 44.5392 40.9332 44.5392Z" fill="#414141"/>
<path d="M31.3035 37.7378C30.8317 37.3057 30.2752 36.9767 29.6693 36.7716C29.0634 36.5665 28.4214 36.4898 27.7842 36.5465C27.6259 36.141 27.5271 35.7146 27.491 35.2808C29.231 34.5685 29.3757 32.7463 29.023 30.9058C29.2736 30.78 29.4841 30.5868 29.6308 30.3478C29.7775 30.1089 29.8545 29.8337 29.8532 29.5533C29.8474 29.3425 29.7981 29.1352 29.7085 28.9443C29.6189 28.7534 29.4909 28.5831 29.3325 28.4439C29.174 28.3048 28.9886 28.1998 28.7878 28.1356C28.5869 28.0714 28.375 28.0493 28.1652 28.0708C27.832 27.234 27.8227 27.3243 27.8572 27.2958C28.726 26.55 29.3007 26.0588 28.9585 24.1758C28.8212 23.4213 28.0457 21.661 25.4572 21.7178C23.6455 21.7575 22.4367 22.7788 20.0442 23.616C19.5785 23.7688 19.1901 24.0959 18.9602 24.5288C18.9309 24.2758 18.9768 24.0198 19.0921 23.7928C19.2074 23.5657 19.387 23.3777 19.6084 23.252C19.6249 23.2437 19.6394 23.2322 19.6513 23.2181C19.6631 23.204 19.672 23.1876 19.6774 23.17C19.6827 23.1524 19.6845 23.1339 19.6825 23.1156C19.6805 23.0973 19.6749 23.0796 19.6659 23.0636C19.6569 23.0475 19.6448 23.0334 19.6302 23.0222C19.6156 23.0109 19.5989 23.0028 19.5811 22.9981C19.5633 22.9935 19.5447 22.9925 19.5265 22.9953C19.5083 22.998 19.4909 23.0044 19.4752 23.014C19.185 23.1822 18.9548 23.4371 18.8168 23.7427C18.6788 24.0484 18.64 24.3896 18.7057 24.7185C18.5661 24.6776 18.4187 24.6704 18.2758 24.6976C18.1329 24.7247 17.9984 24.7853 17.8834 24.8745C17.8699 24.8865 17.859 24.9011 17.8514 24.9175C17.8438 24.9339 17.8397 24.9517 17.8393 24.9698C17.8389 24.9878 17.8423 25.0058 17.8492 25.0225C17.8561 25.0392 17.8664 25.0543 17.8795 25.0668C17.9048 25.0921 17.9389 25.1068 17.9747 25.1077C18.0105 25.1086 18.0453 25.0958 18.0719 25.0718C18.158 24.995 18.2677 24.9498 18.3829 24.9438C18.4981 24.9378 18.6119 24.9713 18.7054 25.0388C18.1724 25.4957 17.8357 26.1402 17.7652 26.8388C17.5167 28.4388 18.1252 30.3888 19.2902 31.8295C21.2854 34.299 23.5787 34.787 23.6049 34.7765C24.111 35.1994 24.715 35.4885 25.3617 35.6175C25.3847 35.8283 25.4352 36.3403 25.4412 36.8288C24.1646 37.0337 22.9958 37.6672 22.1272 38.625C22.1056 38.6487 22.093 38.6792 22.0917 38.7112C22.0903 38.7432 22.1002 38.7746 22.1197 38.8C22.1697 38.8653 27.1052 45.357 29.126 47.2433C29.1438 47.2589 29.1654 47.2697 29.1886 47.2747C29.2119 47.2797 29.236 47.2786 29.2587 47.2717C29.2814 47.2648 29.302 47.2522 29.3185 47.2351C29.335 47.218 29.3468 47.197 29.353 47.174C29.36 47.1053 30.8677 40.408 31.3412 37.859C31.3452 37.8373 31.3438 37.8149 31.3372 37.7938C31.3306 37.7726 31.3191 37.7534 31.3035 37.7378ZM29.5615 37.0263C29.8352 37.12 30.0995 37.2395 30.3507 37.383C30.1812 38.368 29.2312 42.8893 28.8507 44.699C28.4484 42.457 27.9019 40.2432 27.2144 38.0715C27.2577 38.0518 27.3 38.0303 27.3412 38.0063C27.624 38.2445 28.6335 39.1115 29.0362 39.6793C29.06 39.7143 29.0935 39.7416 29.1327 39.7578C29.1718 39.774 29.2149 39.7783 29.2564 39.7703C29.3547 39.742 29.5805 39.6643 29.5615 37.0263ZM28.0277 37.108C28.0262 37.1048 27.9677 36.9925 27.8897 36.8105C28.3599 36.7739 28.8329 36.8186 29.2879 36.9425C29.3117 37.7669 29.274 38.592 29.175 39.4108C28.6846 38.8437 28.1474 38.319 27.5689 37.8423C27.7607 37.6714 27.917 37.4644 28.029 37.2333C28.0388 37.2138 28.0438 37.1923 28.0436 37.1705C28.0434 37.1487 28.0379 37.1273 28.0277 37.108ZM28.2675 28.333C28.86 28.2413 29.5805 28.8768 29.5805 29.5535C29.5816 29.7709 29.5253 29.9848 29.4172 30.1735C29.3092 30.3621 29.1531 30.5188 28.9649 30.6278C28.7892 29.8471 28.556 29.0804 28.2675 28.334V28.333ZM28.7077 30.736C28.606 30.7655 27.6527 31.0328 27.2529 29.9323C27.2004 29.6609 27.2192 29.3805 27.3075 29.1185C27.3885 29.354 27.5957 29.4973 27.7702 29.4373C28.0967 29.325 28.0044 28.6998 27.6484 28.5853C27.7507 28.4989 27.8693 28.434 27.9972 28.3945C28.2929 29.1563 28.5304 29.9394 28.7077 30.737V30.736ZM19.5002 31.6575C17.7022 29.465 17.4679 26.1588 18.9907 25.1705C19.0096 25.1576 19.0252 25.1405 19.0363 25.1206C19.0474 25.1006 19.0537 25.0783 19.0547 25.0555C19.118 24.7825 19.2507 24.5305 19.4398 24.3237C19.6289 24.1169 19.8682 23.9624 20.1344 23.875C22.5764 23.0193 23.79 21.991 25.4572 21.991C27.4097 21.991 28.4877 23.113 28.6899 24.2248C29.0042 25.9535 28.5337 26.3568 27.6797 27.0888L27.5852 27.1695C27.5625 27.1891 27.5468 27.2156 27.5407 27.245C27.5345 27.2744 27.5382 27.305 27.5512 27.332C27.5564 27.3428 27.703 27.6523 27.8977 28.141C26.8497 28.4873 26.927 29.6928 26.9365 29.7603C26.9149 29.7556 26.8931 29.7516 26.8712 29.7485C26.5928 29.2665 26.2775 28.8068 25.928 28.3735C25.9047 28.3456 25.8714 28.3281 25.8353 28.3248C25.7992 28.3215 25.7632 28.3327 25.7353 28.3559C25.7074 28.3791 25.6899 28.4124 25.6866 28.4486C25.6833 28.4847 25.6945 28.5206 25.7177 28.5485C26.0261 28.9332 26.3078 29.3385 26.561 29.7615C26.3363 29.8194 26.1361 29.9479 25.99 30.128C25.8552 29.9491 25.6808 29.8039 25.4805 29.7037C25.2802 29.6035 25.0594 29.5511 24.8355 29.5505C24.6318 29.5534 24.4309 29.598 24.2452 29.6817C24.0595 29.7654 23.8929 29.8863 23.7558 30.0369C23.6188 30.1876 23.5141 30.3648 23.4483 30.5575C23.3824 30.7503 23.3569 30.9545 23.3732 31.1575C23.1182 31.1455 22.3002 31.1255 21.9685 31.1015C21.229 31.0485 20.3184 31.7948 20.9622 32.591C21.1949 32.879 21.6055 32.9985 22.1852 32.9438C22.4365 33.468 22.7679 33.9498 23.1674 34.372C21.7372 33.7883 20.4762 32.8549 19.5002 31.6575ZM24.4677 30.325C24.5487 30.5605 24.7557 30.7028 24.9302 30.6428C25.2252 30.5413 25.1867 29.998 24.875 29.8203C25.1802 29.8592 25.4623 30.0033 25.6728 30.2277C25.8832 30.4522 26.0089 30.7429 26.0282 31.05C26.0224 31.2714 25.9551 31.4867 25.8338 31.672C25.7126 31.8573 25.5422 32.0052 25.3418 32.0992C25.1413 32.1931 24.9186 32.2295 24.6987 32.2042C24.4787 32.1789 24.2701 32.0929 24.0962 31.9558C23.9224 31.8187 23.79 31.636 23.7141 31.428C23.6381 31.2201 23.6215 30.9951 23.6661 30.7782C23.7107 30.5613 23.8147 30.3611 23.9666 30.2C24.1184 30.0388 24.3121 29.9231 24.526 29.8658C24.4779 29.931 24.4473 30.0074 24.4371 30.0878C24.4269 30.1682 24.4374 30.2499 24.4677 30.325ZM22.3957 32.7445C22.384 32.7171 22.3638 32.6943 22.3381 32.6793C22.3124 32.6644 22.2825 32.6581 22.253 32.6615C21.728 32.7265 21.3755 32.6243 21.175 32.4195C20.7277 31.9628 21.2797 31.2728 22.0202 31.3418C22.3807 31.3755 23.2702 31.4255 23.4177 31.4323C23.464 31.6298 23.5513 31.8154 23.6738 31.977C23.7964 32.1387 23.9515 32.2728 24.1291 32.3708C24.3067 32.4688 24.503 32.5284 24.7051 32.5458C24.9072 32.5632 25.1107 32.538 25.3025 32.4718C25.5478 32.4053 25.7663 32.2639 25.9275 32.0673C25.93 32.0733 26.2347 32.576 26.6932 32.576C27.3917 32.5333 27.507 31.8043 27.514 31.776C27.522 31.741 27.5159 31.7041 27.4969 31.6735C27.4779 31.643 27.4476 31.6211 27.4127 31.6128C27.3777 31.6044 27.3408 31.6102 27.31 31.6289C27.2793 31.6475 27.2571 31.6776 27.2485 31.7125C27.2485 31.7178 27.111 32.246 26.7537 32.2993C26.419 32.3493 26.1135 31.8675 26.0702 31.8648C26.375 31.3565 26.3792 30.6943 26.1452 30.3775C26.2075 30.2807 26.2898 30.1983 26.3866 30.1358C26.4833 30.0733 26.5923 30.0322 26.7062 30.0153C26.8461 30.2658 26.9668 30.5266 27.0675 30.7953L26.6047 30.6118C26.5714 30.6003 26.535 30.6021 26.5031 30.6168C26.4711 30.6316 26.4461 30.658 26.4332 30.6908C26.4203 30.7235 26.4205 30.7599 26.4339 30.7925C26.4472 30.8251 26.4726 30.8512 26.5047 30.8655L27.2865 31.1655C27.3912 31.2075 27.4465 31.104 27.418 30.9928C27.3706 30.8194 27.3109 30.6496 27.2392 30.4848C27.4091 30.7172 27.6462 30.8919 27.9187 30.9851C28.1911 31.0784 28.4855 31.0857 28.7622 31.006C28.947 31.8117 28.9518 32.6482 28.7765 33.456C28.6618 33.9185 28.4068 34.3341 28.0465 34.6457C27.6861 34.9574 27.2381 35.1498 26.764 35.1965C26.7291 35.1995 26.6966 35.2157 26.6734 35.2419C26.6501 35.2681 26.6378 35.3022 26.639 35.3372C26.6402 35.3722 26.6548 35.4054 26.6798 35.4299C26.7047 35.4545 26.7382 35.4685 26.7732 35.469C26.9265 35.4524 27.0778 35.4212 27.2252 35.376C27.2968 36.0005 27.4759 36.608 27.7545 37.1715C27.6742 37.3391 27.5607 37.4887 27.4209 37.6111C27.2811 37.7335 27.1179 37.8263 26.9412 37.8838C26.5027 37.9788 26.0447 37.9174 25.6467 37.71C25.8077 37.017 25.629 35.5515 25.6217 35.485C25.6181 35.4558 25.6051 35.4286 25.5848 35.4074C25.5644 35.3861 25.5377 35.3721 25.5087 35.3673C23.3612 35.012 22.405 32.7678 22.3957 32.745V32.7445ZM25.4385 37.1068C25.4395 37.3188 25.4116 37.53 25.3557 37.7345C25.3456 37.7641 25.346 37.7963 25.3568 37.8257C25.3677 37.8551 25.3883 37.8798 25.4152 37.8958C25.7424 38.0776 26.1061 38.1838 26.4797 38.2065C26.275 38.569 25.8525 39.3293 25.6547 39.7743C25.4172 39.628 24.7342 38.68 24.0505 37.5448C24.4911 37.3365 24.958 37.1893 25.4385 37.1073V37.1068ZM23.807 37.6668C23.932 37.8735 25.2272 39.9825 25.6769 40.0668C25.7218 40.0692 25.7662 40.0572 25.8039 40.0327C25.8415 40.0081 25.8703 39.9723 25.8862 39.9303C26.0952 39.4398 26.668 38.4278 26.8027 38.1915C26.8527 38.184 26.9042 38.1738 26.9552 38.161C27.1705 38.843 28.1975 42.1773 28.6207 45.005L23.1207 38.098C23.3385 37.9376 23.5678 37.7936 23.807 37.6673V37.6668ZM29.14 46.8765C27.19 44.9435 22.999 39.5 22.4065 38.725C22.5624 38.5609 22.7287 38.407 22.9042 38.264L28.7175 45.564C28.7334 45.5839 28.7547 45.5989 28.7787 45.6073C28.8028 45.6157 28.8287 45.6172 28.8536 45.6116C28.8785 45.6061 28.9013 45.5936 28.9195 45.5758C28.9376 45.5579 28.9505 45.5353 28.9565 45.5105C28.9657 45.4855 30.3469 38.9395 30.6007 37.5355C30.7615 37.6401 30.9147 37.7561 31.059 37.8825C30.6247 40.1983 29.409 45.6695 29.14 46.8765Z" fill="#414141"/>
<path d="M22.9214 27.2458C22.8387 26.8411 22.6996 26.45 22.5081 26.084C22.4897 26.054 22.4603 26.0323 22.4262 26.0235C22.3921 26.0146 22.3559 26.0193 22.3252 26.0365C22.2945 26.0537 22.2716 26.0821 22.2613 26.1158C22.2511 26.1495 22.2542 26.1858 22.2701 26.2173C22.2791 26.2338 23.0951 27.7218 22.5134 28.9748C22.4491 28.2582 22.2053 27.5693 21.8046 26.9718C21.7833 26.9425 21.7512 26.923 21.7154 26.9174C21.6796 26.9118 21.6431 26.9207 21.6139 26.942C21.5846 26.9634 21.5651 26.9955 21.5595 27.0312C21.5539 27.067 21.5628 27.1035 21.5841 27.1328C21.5959 27.1488 22.7521 28.7725 21.9911 30.6628C21.9836 30.6795 21.9795 30.6976 21.9791 30.716C21.9788 30.7344 21.9821 30.7526 21.989 30.7697C21.9958 30.7868 22.0061 30.8022 22.0191 30.8152C22.032 30.8282 22.0475 30.8385 22.0646 30.8454C22.0816 30.8522 22.0999 30.8556 22.1182 30.8552C22.1366 30.8549 22.1547 30.8508 22.1715 30.8433C22.1883 30.8358 22.2033 30.8249 22.2158 30.8114C22.2283 30.7979 22.2379 30.7821 22.2441 30.7648C22.409 30.3587 22.5037 29.9276 22.5241 29.4898C22.7461 29.1655 22.8963 28.7976 22.9648 28.4106C23.0333 28.0237 23.0185 27.6265 22.9214 27.2458Z" fill="#414141"/>
<path d="M24.8042 27.934C24.7795 27.9339 24.7553 27.9271 24.7341 27.9143C24.7129 27.9016 24.6956 27.8833 24.684 27.8615C24.6723 27.8396 24.6669 27.8151 24.6681 27.7904C24.6693 27.7657 24.6772 27.7418 24.691 27.7212C24.873 27.4308 25.002 27.1104 25.072 26.775C25.1488 26.4754 25.13 26.1593 25.0184 25.8709C24.9067 25.5825 24.7077 25.3362 24.4492 25.1665C24.4197 25.1455 24.3998 25.1136 24.3937 25.0779C24.3877 25.0422 24.3961 25.0056 24.4171 24.9761C24.4381 24.9466 24.4699 24.9266 24.5056 24.9206C24.5414 24.9146 24.578 24.923 24.6075 24.944C26.1325 26.0297 24.9297 27.8547 24.9175 27.873C24.905 27.8916 24.8882 27.907 24.8685 27.9176C24.8487 27.9282 24.8267 27.9338 24.8042 27.934Z" fill="#414141"/>
<path d="M26.052 27.5199C26.0246 27.5198 25.9978 27.5115 25.9752 27.4959C25.9525 27.4804 25.9351 27.4584 25.9251 27.4329C25.9152 27.4073 25.9131 27.3794 25.9192 27.3526C25.9254 27.3259 25.9394 27.3016 25.9595 27.2829C27.5865 25.7902 26.2503 24.2502 26.1925 24.1852C26.1806 24.1718 26.1715 24.1562 26.1656 24.1393C26.1597 24.1224 26.1572 24.1045 26.1583 24.0866C26.1593 24.0687 26.1639 24.0512 26.1717 24.0351C26.1795 24.019 26.1904 24.0046 26.2038 23.9927C26.2171 23.9808 26.2327 23.9716 26.2496 23.9657C26.2666 23.9599 26.2845 23.9574 26.3023 23.9584C26.3202 23.9595 26.3377 23.964 26.3538 23.9718C26.3699 23.9796 26.3844 23.9905 26.3963 24.0039C26.6623 24.3254 26.8545 24.7013 26.9595 25.1052C27.1123 25.7089 27.095 26.6114 26.1443 27.4839C26.1191 27.507 26.0862 27.5199 26.052 27.5199Z" fill="#414141"/>
<path d="M27.1287 27.0233C27.1 27.0233 27.072 27.0143 27.0488 26.9975C27.0255 26.9807 27.0081 26.957 26.9991 26.9297C26.9901 26.9025 26.9899 26.8731 26.9985 26.8457C27.0071 26.8184 27.0242 26.7944 27.0472 26.7773C27.2694 26.6058 27.4499 26.3863 27.5752 26.1352C27.7006 25.8841 27.7675 25.6079 27.7709 25.3273C27.7696 25.2911 27.7827 25.2559 27.8073 25.2294C27.8319 25.2028 27.866 25.1872 27.9022 25.1858H27.9074C27.9427 25.1858 27.9766 25.1995 28.002 25.224C28.0274 25.2485 28.0423 25.2818 28.0437 25.317C28.043 25.6421 27.9675 25.9626 27.8229 26.2537C27.6784 26.5449 27.4687 26.7988 27.2102 26.9958C27.1867 27.0135 27.1581 27.0232 27.1287 27.0233Z" fill="#414141"/>
<path d="M15.3592 36.0869C15.2992 35.9369 15.1891 35.8123 15.0477 35.7342C15.0617 35.3229 15.0957 32.8682 14.5279 32.8682C14.2054 32.8682 14.1332 33.8432 14.1064 34.5287C13.9894 34.4629 13.6874 34.3002 13.4124 34.7247C13.3558 34.6861 13.2915 34.6602 13.224 34.6489C13.1564 34.6376 13.0872 34.6412 13.0211 34.6593C12.955 34.6774 12.8937 34.7097 12.8414 34.7539C12.789 34.798 12.7469 34.8531 12.7179 34.9152C12.1079 34.7902 11.9777 35.3717 12.0029 35.7424C12.0393 36.1544 12.1575 36.555 12.3507 36.9207C12.4659 37.859 12.7735 38.7634 13.2542 39.5774C13.2639 39.5962 13.2787 39.612 13.2968 39.623C13.3149 39.634 13.3357 39.6399 13.3569 39.6399C13.9934 39.5779 14.6205 39.4417 15.2254 39.2342C15.3809 39.0524 15.6229 36.7562 15.3592 36.0869ZM14.5482 33.1592C14.6962 33.1934 14.8117 34.4297 14.7779 35.6267C14.6426 35.5948 14.5039 35.5794 14.3649 35.5807C14.3564 34.5514 14.3652 33.1169 14.5482 33.1592ZM13.6547 34.8554C13.7382 34.5969 14.0182 34.7864 14.0967 34.8514C14.0913 35.0994 14.0898 35.3474 14.0922 35.5954C13.9472 35.6112 13.8036 35.6372 13.6624 35.6734C13.599 35.4047 13.5963 35.1253 13.6547 34.8554ZM12.9709 35.0232C13.0602 34.8107 13.3332 34.9922 13.3509 34.9954C13.3309 35.2493 13.3477 35.5047 13.4009 35.7537C13.2517 35.7984 13.1153 35.878 13.0029 35.9859C12.9379 35.6409 12.8682 35.2682 12.9709 35.0232ZM14.0764 36.4612C14.1057 36.6282 14.1008 36.7993 14.0622 36.9644C13.9516 36.8205 13.8712 36.6558 13.8257 36.4802C13.9152 36.4752 13.9999 36.4692 14.0764 36.4612ZM13.5402 36.4799C13.5771 36.6193 13.6261 36.7551 13.6867 36.8859C13.7172 37.0509 13.5402 37.2694 13.3497 36.9752C13.2315 36.7893 13.1442 36.5856 13.0912 36.3719C13.2302 36.443 13.3841 36.48 13.5402 36.4799ZM12.2747 35.7274C12.2602 35.4604 12.3282 35.1074 12.6747 35.1864C12.6429 35.8496 12.7918 36.509 13.1054 37.0942C13.0649 37.1969 13.0184 37.2559 12.9784 37.2517C12.7472 37.2219 12.3094 36.3502 12.2754 35.7274H12.2747ZM15.0132 39.0502C14.4983 39.1912 13.9743 39.2964 13.4449 39.3649C13.1001 38.7539 12.8509 38.0936 12.7059 37.4072C12.7474 37.4513 12.7992 37.4844 12.8567 37.5036C12.9141 37.5228 12.9754 37.5274 13.0351 37.5171C13.0948 37.5068 13.151 37.4819 13.1987 37.4445C13.2464 37.4072 13.2841 37.3586 13.3084 37.3032C13.3279 37.3152 13.6397 37.5727 13.8382 37.1217C14.0737 37.3804 14.4554 37.2667 14.3477 36.4247C14.3509 36.4247 14.4822 36.3402 14.4697 36.2659C14.4667 36.2482 14.4603 36.2313 14.4508 36.2161C14.4413 36.2009 14.4288 36.1877 14.4142 36.1773C14.3996 36.1669 14.3831 36.1595 14.3657 36.1555C14.3482 36.1515 14.3301 36.1509 14.3124 36.1539C13.9564 36.2137 13.3874 36.2479 13.2324 36.1377C13.6358 35.9202 14.0937 35.8247 14.5504 35.8627C14.6641 35.8592 14.7764 35.8879 14.8745 35.9454C14.9727 36.0029 15.0526 36.0868 15.1052 36.1877C15.3487 36.8047 15.0957 38.7587 15.0132 39.0502Z" fill="#414141"/>
<path d="M14.0592 38.2648H14.0544C14.0183 38.2635 13.9842 38.248 13.9595 38.2216C13.9348 38.1953 13.9215 38.1602 13.9227 38.124C13.9333 37.7773 14.0722 37.4468 14.3124 37.1965C14.3403 37.1733 14.3762 37.1621 14.4123 37.1654C14.4484 37.1687 14.4817 37.1862 14.5049 37.214C14.5281 37.2419 14.5393 37.2778 14.536 37.3139C14.5328 37.35 14.5153 37.3833 14.4874 37.4065C14.3079 37.607 14.2049 37.8643 14.1964 38.1333C14.1951 38.1687 14.1801 38.2023 14.1545 38.2268C14.1288 38.2514 14.0947 38.265 14.0592 38.2648Z" fill="#414141"/>
<path d="M27.1546 40.6891C27.1232 40.6891 27.0927 40.6783 27.0683 40.6583C27.0439 40.6384 27.0272 40.6107 27.0209 40.5799L26.9114 40.0416C26.905 40.0065 26.9126 39.9702 26.9327 39.9406C26.9527 39.9111 26.9835 39.8905 27.0185 39.8834C27.0536 39.8763 27.09 39.8832 27.12 39.9027C27.1499 39.9221 27.1711 39.9525 27.1789 39.9874L27.2884 40.5256C27.2924 40.5455 27.292 40.5659 27.2872 40.5856C27.2823 40.6052 27.2732 40.6235 27.2603 40.6392C27.2475 40.6548 27.2314 40.6674 27.2131 40.6761C27.1948 40.6847 27.1749 40.6892 27.1546 40.6891Z" fill="#414141"/>
<path d="M27.4533 42.5197C27.4214 42.5197 27.3906 42.5085 27.3661 42.4881C27.3417 42.4678 27.3251 42.4395 27.3193 42.4082L27.2173 41.861C27.2134 41.8431 27.2131 41.8246 27.2164 41.8067C27.2198 41.7887 27.2268 41.7716 27.2369 41.7564C27.247 41.7411 27.26 41.7281 27.2753 41.718C27.2905 41.7079 27.3076 41.701 27.3256 41.6976C27.3436 41.6943 27.362 41.6946 27.3799 41.6985C27.3977 41.7024 27.4146 41.7099 27.4295 41.7204C27.4445 41.731 27.4571 41.7445 27.4667 41.76C27.4763 41.7756 27.4827 41.7929 27.4855 41.811L27.5875 42.3582C27.5912 42.3779 27.5905 42.3982 27.5855 42.4176C27.5805 42.4371 27.5712 42.4551 27.5584 42.4705C27.5456 42.486 27.5295 42.4984 27.5113 42.5069C27.4931 42.5154 27.4733 42.5198 27.4533 42.5197Z" fill="#414141"/>
<path d="M21.6013 32.1321C21.5697 32.1318 21.5393 32.1205 21.515 32.1003C21.4908 32.0801 21.4744 32.0521 21.4685 32.0211C21.4626 31.99 21.4676 31.958 21.4827 31.9302C21.4978 31.9025 21.522 31.8809 21.5513 31.8691C21.7291 31.7952 21.9248 31.7759 22.1135 31.8136C22.1311 31.8172 22.1478 31.8242 22.1626 31.8343C22.1775 31.8443 22.1902 31.8572 22.2001 31.8722C22.2099 31.8871 22.2168 31.9039 22.2201 31.9215C22.2235 31.9391 22.2234 31.9572 22.2198 31.9748C22.2162 31.9924 22.2091 32.009 22.1991 32.0239C22.189 32.0387 22.1761 32.0515 22.1612 32.0613C22.1462 32.0712 22.1294 32.078 22.1118 32.0814C22.0942 32.0848 22.0761 32.0847 22.0585 32.0811C21.9042 32.0634 21.7479 32.0808 21.6013 32.1321Z" fill="#414141"/>
<path d="M43.3642 15.7898C43.3642 15.7898 48.336 16.792 50.7642 18.417C50.7642 18.417 49.4892 23.226 49.1202 23.5125C49.1202 23.5125 42.5037 21.589 41.5215 21.207C41.5215 21.2058 42.7765 16.581 43.3642 15.7898Z" fill="#FDAF31"/>
<path d="M51.3148 31.5315C50.6462 29.8095 49.8069 28.1587 48.8096 26.6038C48.796 26.5764 48.7747 26.5536 48.7483 26.5381C48.7219 26.5226 48.6916 26.5151 48.6611 26.5165C47.4671 26.6858 43.7048 28.259 41.2726 30.0665C41.2472 30.0845 41.2288 30.1105 41.2202 30.1404C41.2116 30.1702 41.2134 30.2021 41.2253 30.2308C42.0169 32.0202 42.8996 33.7679 43.8701 35.467C43.8951 35.5095 44.0176 35.5305 44.0333 35.5258C45.2333 35.1735 50.9126 31.9373 51.1096 31.8258C51.2491 31.748 51.3516 31.6285 51.3148 31.5315ZM46.7571 31.5993C46.9733 31.5093 47.2493 30.963 47.5391 30.282C48.6898 30.663 49.8168 31.1123 50.9141 31.6273C49.9433 32.188 46.0441 34.4203 44.1951 35.1728C44.4707 33.915 44.8253 32.6758 45.2568 31.4625C45.7518 31.5725 46.4788 31.715 46.7573 31.5993H46.7571ZM47.6431 30.0318C48.0771 28.967 48.5088 27.6423 48.7181 26.978C49.1523 27.7115 50.3918 29.853 50.9658 31.353C49.8849 30.8484 48.7756 30.4072 47.6433 30.0318H47.6431ZM48.4853 26.82C48.1718 27.818 47.0471 31.261 46.6353 31.3578C45.9331 31.524 42.7038 30.492 41.6398 30.1445C42.5398 29.5475 46.0628 27.2845 48.4856 26.82H48.4853ZM41.5998 30.415C42.2536 30.6288 43.7606 31.1083 44.9913 31.4013C44.5682 32.596 44.2189 33.8157 43.9456 35.0533C43.5486 34.349 42.4786 32.4065 41.5998 30.415Z" fill="#414141"/>
<path d="M50.8958 18.413C50.8723 18.2325 50.7246 18.1783 50.5113 18.0655C49.864 17.7233 47.651 16.5905 43.3958 15.6213C43.3652 15.6146 43.3333 15.6187 43.3054 15.6331C43.2776 15.6474 43.2556 15.671 43.2433 15.6998C43.0265 16.2035 41.6165 19.7383 41.3915 21.115C41.3825 21.17 41.3415 21.2423 41.3915 21.276C41.8205 21.5603 48.68 23.5708 48.8605 23.6243C48.9753 23.6583 49.1526 23.7638 49.2641 23.6743C49.3361 23.6153 50.9023 18.4623 50.8958 18.413ZM49.1828 23.1455C48.8413 21.9898 48.4389 20.8529 47.977 19.7398C48.0198 19.7235 49.8488 18.9945 50.5723 18.6353C50.3273 19.479 49.6183 21.898 49.1828 23.1455ZM46.1 20.281C46.2073 20.3255 46.6605 20.2273 47.7235 19.8345C48.2028 20.9913 48.619 22.1732 48.97 23.375C47.9823 23.0825 44.1468 21.9415 41.82 21.1698C42.9469 20.4579 44.1134 19.8108 45.3138 19.2315C45.9585 20.2263 46.042 20.257 46.1 20.281ZM50.5048 18.3668C49.1048 19.0715 46.5548 20.0168 46.199 20.025C45.9435 19.7833 44.5023 17.4523 43.5953 15.943C44.572 16.1728 48.124 17.0608 50.5048 18.3668ZM43.37 16.0918C43.545 16.3828 45.003 18.7468 45.166 19.0015C43.9839 19.5742 42.8345 20.2121 41.723 20.9123C42.1671 19.2715 42.7172 17.6613 43.37 16.0918Z" fill="#414141"/>
<path d="M53.1311 18.0782C52.8518 18.0457 52.5828 17.953 52.3428 17.8065C52.1027 17.66 51.8973 17.4632 51.7406 17.2297C51.1791 16.3457 51.5001 15.1495 51.5141 15.099C51.5188 15.0819 51.5268 15.0659 51.5377 15.052C51.5486 15.038 51.5621 15.0263 51.5775 15.0176C51.5929 15.0088 51.6099 15.0032 51.6275 15.001C51.6451 14.9988 51.6629 15.0001 51.68 15.0049C51.697 15.0096 51.713 15.0176 51.727 15.0285C51.741 15.0394 51.7527 15.0529 51.7614 15.0683C51.7701 15.0837 51.7758 15.1007 51.7779 15.1183C51.7801 15.1358 51.7788 15.1537 51.7741 15.1707C51.7711 15.182 51.4714 16.3042 51.9691 17.086C52.1061 17.2869 52.285 17.4558 52.4934 17.5812C52.7018 17.7065 52.9349 17.7853 53.1766 17.8122C53.1945 17.8147 53.2118 17.8208 53.2273 17.83C53.2428 17.8393 53.2563 17.8516 53.267 17.8662C53.2777 17.8808 53.2853 17.8974 53.2895 17.915C53.2936 17.9326 53.2942 17.9509 53.2912 17.9687C53.2881 17.9866 53.2815 18.0036 53.2717 18.0188C53.262 18.034 53.2492 18.0472 53.2343 18.0574C53.2194 18.0676 53.2026 18.0747 53.1848 18.0783C53.1671 18.0819 53.1488 18.0819 53.1311 18.0782Z" fill="#414141"/>
<path d="M53.326 17.5531C52.4192 17.2191 52.3737 16.2114 52.476 15.7254C52.479 15.7074 52.4856 15.6903 52.4954 15.6749C52.5052 15.6596 52.518 15.6464 52.533 15.6362C52.548 15.6259 52.565 15.6188 52.5828 15.6153C52.6007 15.6117 52.6191 15.6118 52.6369 15.6156C52.6547 15.6193 52.6715 15.6266 52.6865 15.637C52.7014 15.6475 52.714 15.6608 52.7236 15.6762C52.7333 15.6917 52.7397 15.7089 52.7425 15.7269C52.7453 15.7449 52.7444 15.7632 52.74 15.7809C52.7026 15.9958 52.7011 16.2154 52.7355 16.4309C52.7564 16.6251 52.8316 16.8095 52.9524 16.963C53.0732 17.1165 53.2348 17.2329 53.4187 17.2989C53.4354 17.305 53.4507 17.3143 53.4638 17.3263C53.4769 17.3383 53.4875 17.3528 53.495 17.3689C53.5025 17.385 53.5068 17.4024 53.5075 17.4202C53.5083 17.4379 53.5055 17.4557 53.4995 17.4724C53.4934 17.4891 53.484 17.5044 53.472 17.5175C53.46 17.5306 53.4455 17.5412 53.4294 17.5487C53.4133 17.5562 53.3959 17.5604 53.3781 17.5612C53.3604 17.5619 53.3426 17.5592 53.326 17.5531Z" fill="#414141"/>
<path d="M37.0623 19.7341C37.0525 19.7191 37.0459 19.7023 37.0429 19.6847C37.0399 19.667 37.0405 19.649 37.0448 19.6316C37.049 19.6142 37.0568 19.5979 37.0677 19.5837C37.0785 19.5694 37.0922 19.5576 37.1078 19.5488C37.1386 19.5315 37.1749 19.5265 37.2093 19.5349C37.2437 19.5433 37.2736 19.5644 37.293 19.5941C38.2478 20.9056 39.3813 20.3763 39.905 20.0226C39.9197 20.0117 39.9364 20.0039 39.9541 19.9996C39.9719 19.9953 39.9903 19.9947 40.0083 19.9978C40.0263 20.0009 40.0435 20.0076 40.0588 20.0175C40.0741 20.0274 40.0873 20.0404 40.0974 20.0555C40.1076 20.0707 40.1146 20.0878 40.118 20.1057C40.1214 20.1236 40.1211 20.1421 40.1171 20.1599C40.1131 20.1777 40.1056 20.1946 40.0949 20.2094C40.0842 20.2242 40.0707 20.2367 40.055 20.2461C39.6025 20.5523 38.2433 21.2696 37.0623 19.7341Z" fill="#414141"/>
<path d="M39.2146 19.9367C39.0049 19.9404 38.7981 19.8872 38.6162 19.7828C38.4343 19.6785 38.284 19.5268 38.1813 19.3439C38.1648 19.3122 38.1615 19.2751 38.1722 19.241C38.183 19.2068 38.2068 19.1783 38.2386 19.1617C38.2704 19.1451 38.3074 19.1418 38.3416 19.1526C38.3758 19.1633 38.4043 19.1872 38.4208 19.2189C38.4371 19.2499 38.8193 19.9459 39.7763 19.5392C39.7926 19.5323 39.8102 19.5286 39.8279 19.5285C39.8456 19.5283 39.8631 19.5316 39.8796 19.5382C39.896 19.5449 39.9109 19.5547 39.9236 19.5671C39.9362 19.5795 39.9463 19.5943 39.9532 19.6106C39.9601 19.6269 39.9638 19.6444 39.964 19.6621C39.9641 19.6798 39.9608 19.6974 39.9542 19.7138C39.9475 19.7302 39.9377 19.7452 39.9253 19.7578C39.9129 19.7704 39.8981 19.7805 39.8818 19.7874C39.6718 19.8818 39.4448 19.9326 39.2146 19.9367Z" fill="#414141"/>
<path d="M46.4252 19.4931C46.5529 19.5431 47.6019 18.7681 47.3449 18.5203C47.1142 18.2976 46.7024 18.8363 46.7024 18.8363C46.7024 18.8363 46.7262 18.1563 46.4344 18.2023C46.1124 18.2531 46.2679 19.4311 46.4252 19.4931Z" fill="#005BC3"/>
<path d="M46.1938 30.5917C46.3015 30.558 46.4393 29.1667 46.0983 29.1667C45.825 29.1667 45.88 29.849 45.88 29.849C45.88 29.849 45.389 29.4667 45.1843 29.6092C44.9795 29.7517 45.955 30.6667 46.1938 30.5917Z" fill="#005BC3"/>
<path d="M38.7441 22.9338C39.6579 23.0928 42.4319 24.5366 42.4836 24.5973C41.3336 24.8623 40.2071 25.0788 40.0244 25.0391C39.8739 24.9286 39.2901 23.9403 38.7441 22.9338Z" fill="#FDAF31"/>
<path d="M41.6027 27.2402C41.5117 27.3859 41.3207 27.5402 40.9477 27.3859C40.5747 27.2317 37.9477 26.0127 37.6727 25.8939C37.6046 25.8775 37.5415 25.8451 37.4886 25.7992C37.4357 25.7533 37.3946 25.6955 37.3688 25.6304C37.3429 25.5653 37.3331 25.495 37.3401 25.4254C37.3471 25.3557 37.3707 25.2888 37.409 25.2302C37.4927 25.0494 38.4045 23.1364 38.4977 23.0507C38.9402 23.8697 39.6765 25.1652 39.9075 25.2842C40.156 25.4122 41.768 25.0412 42.609 24.8457C42.6422 25.0122 41.6937 27.0947 41.6027 27.2402Z" fill="#FDAF31"/>
</g>
<defs>
<clipPath id="clip0_1771_2432">
<rect width="50" height="50" fill="white" transform="translate(10 10)"/>
</clipPath>
</defs>
</svg>
