<svg width="50" height="50" viewBox="0 0 50 50" fill="none" xmlns="http://www.w3.org/2000/svg">
<path d="M6.61522 15.3251C7.09022 15.9651 8.04272 17.2676 8.26772 17.6751C8.56772 18.2226 9.53522 19.8326 8.19772 21.0876C8.45227 21.5568 8.7414 22.0064 9.06272 22.4326C9.09272 22.4326 10.0327 20.6826 13.0627 21.4326C13.1127 20.0001 13.2052 17.7926 13.2002 17.6001C13.2002 17.3501 13.4677 12.4451 9.65022 11.2876C5.83272 10.1301 3.48022 14.3326 3.48022 14.3326C6.41022 12.7801 7.36272 13.8601 6.61522 15.3251Z" fill="#98D1FF"/>
<path d="M3.28272 17.4551C3.28272 17.4551 5.44022 16.9551 6.62022 15.3701C6.62022 15.3701 7.96522 17.1201 8.26772 17.6751C8.57022 18.2301 9.53522 19.8326 8.19772 21.0876C8.45226 21.5568 8.74139 22.0064 9.06272 22.4326C9.06272 22.4326 10.1727 20.5976 13.0627 21.4601C13.0627 21.4601 12.9402 25.0126 13.3327 26.6426C13.7252 28.2726 14.0827 29.7101 15.5652 30.3201C15.5652 30.3201 12.4152 32.2426 9.26272 31.0701C6.11022 29.8976 4.83772 28.2226 4.39522 27.1501C4.39522 27.1501 4.78522 24.2551 7.42272 23.7426C7.42272 23.7426 6.84022 22.1301 6.49272 21.7826C6.49272 21.7826 4.99272 22.1101 4.07272 20.5326C4.07272 20.5326 3.04272 20.8476 2.97522 20.2001C2.89272 19.4251 3.70522 19.5051 3.93522 19.4876C4.16522 19.4701 4.40022 19.3526 4.18522 18.8501C3.92533 18.3599 3.62336 17.8931 3.28272 17.4551Z" fill="white"/>
<path d="M12.9176 22.1094V22.3419C11.5925 22.5216 10.3325 23.0267 9.25008 23.8119C9.22979 23.8245 9.20647 23.8314 9.18258 23.8319C9.15798 23.8319 9.13402 23.8241 9.11422 23.8095C9.09441 23.7949 9.0798 23.7744 9.07253 23.7509C9.06525 23.7274 9.0657 23.7022 9.07381 23.679C9.08192 23.6557 9.09726 23.6357 9.11758 23.6219C10.2391 22.8101 11.545 22.2903 12.9176 22.1094Z" fill="#FFB949"/>
<path d="M8.43766 24.4196C7.16202 25.489 6.06494 26.7549 5.18766 28.1696C5.13766 28.1046 5.08766 28.0371 5.04016 27.9671C5.92536 26.5671 7.0226 25.3129 8.29266 24.2496C8.31566 24.238 8.34189 24.2345 8.36714 24.2396C8.39238 24.2447 8.41519 24.2581 8.43191 24.2777C8.44862 24.2973 8.45827 24.3219 8.45932 24.3476C8.46036 24.3734 8.45273 24.3987 8.43766 24.4196Z" fill="#FFB949"/>
<path d="M6.30518 29.6602L6.35038 29.6978C6.33264 29.6889 6.31718 29.676 6.30518 29.6602Z" fill="#FFB949"/>
<path d="M12.9252 24.2103C9.60269 25.4603 6.99019 28.9603 6.55519 29.5678C6.49769 29.5203 6.43769 29.4728 6.37769 29.4203C6.85269 28.7578 9.52519 25.2103 12.9152 23.9678C12.9202 24.0478 12.9227 24.1278 12.9252 24.2103Z" fill="#FFB949"/>
<path d="M13.2101 26.6373C11.4641 27.6752 10.0083 29.137 8.97759 30.8873L8.76259 30.8073C8.76159 30.799 8.76159 30.7906 8.76259 30.7823C9.8258 28.9651 11.3373 27.4511 13.1526 26.3848C13.1776 26.4773 13.1926 26.5573 13.2101 26.6373Z" fill="#FFB949"/>
<path d="M13.89 28.8125C12.5925 29.5275 11.71 30.8775 11.4275 31.3525H11.16C11.35 31.01 12.2925 29.42 13.795 28.6025C13.825 28.6725 13.8575 28.75 13.89 28.8125Z" fill="#FFB949"/>
<path d="M6.63519 18.642C6.7037 18.4174 6.75304 18.1874 6.78269 17.9545C6.74769 17.9795 6.41019 18.2945 6.28269 18.222C6.24769 18.2045 6.13519 18.162 5.57769 17.107C5.57063 17.0935 5.56629 17.0788 5.56492 17.0637C5.56355 17.0485 5.56518 17.0333 5.56971 17.0188C5.57423 17.0043 5.58157 16.9908 5.59131 16.9791C5.60104 16.9674 5.61298 16.9578 5.62644 16.9507C5.6399 16.9437 5.65462 16.9393 5.66976 16.938C5.68489 16.9366 5.70015 16.9382 5.71466 16.9428C5.72917 16.9473 5.74265 16.9546 5.75432 16.9644C5.76599 16.9741 5.77563 16.986 5.78269 16.9995C5.95522 17.3445 6.14893 17.6784 6.36269 17.9995C6.52269 17.912 6.74269 17.6295 6.90769 17.687C6.98269 17.7145 7.14019 17.7695 6.86769 18.712C6.85841 18.7428 6.83726 18.7687 6.80889 18.7839C6.78053 18.7992 6.74727 18.8025 6.71644 18.7932C6.68561 18.784 6.65973 18.7628 6.64449 18.7344C6.62925 18.7061 6.62591 18.6728 6.63519 18.642Z" fill="#313131"/>
<path d="M6.42264 19.9424C6.13514 19.9424 5.94014 19.6375 5.82264 19.415C5.81297 19.3964 5.80852 19.3756 5.80978 19.3548C5.81103 19.3339 5.81794 19.3138 5.82976 19.2966C5.84159 19.2794 5.85787 19.2657 5.87688 19.2571C5.89588 19.2484 5.91689 19.2451 5.93764 19.2474C6.23851 19.2789 6.54231 19.2679 6.84014 19.2149C6.85991 19.2104 6.88054 19.211 6.9 19.2167C6.91947 19.2225 6.93711 19.2332 6.95121 19.2478C6.9653 19.2624 6.97538 19.2804 6.98045 19.3001C6.98552 19.3197 6.98541 19.3403 6.98014 19.36C6.96264 19.4175 6.84514 19.9324 6.42264 19.9424ZM6.13764 19.4999C6.24764 19.6624 6.35514 19.7499 6.43764 19.7499C6.52014 19.7499 6.62264 19.6199 6.68764 19.4999C6.50455 19.5133 6.32073 19.5133 6.13764 19.4999Z" fill="#313131"/>
<path d="M15.5001 30.1672C15.0876 30.0622 14.3126 29.6122 13.7326 27.7622C12.6951 24.4497 13.3176 20.5422 13.3176 18.2622C13.3176 14.7122 12.4151 11.3897 8.88515 11.0322C6.56515 10.7822 4.59265 12.2822 3.40265 14.2322C3.13318 14.3782 2.8757 14.5454 2.63265 14.7322C1.84265 15.3472 -0.167355 17.7947 2.88265 19.8772C2.83479 19.9902 2.82451 20.1155 2.85332 20.2348C2.88213 20.3541 2.9485 20.461 3.04265 20.5397C2.48826 21.4753 2.25556 22.5668 2.38015 23.6472C2.57015 25.0672 3.68015 26.5847 4.26265 27.1197C5.95765 30.4047 9.08015 31.2822 10.3851 31.5122C11.9876 31.7897 14.0326 31.2147 15.5326 30.5872C15.5753 30.5688 15.6112 30.5376 15.6353 30.4979C15.6593 30.4581 15.6703 30.4119 15.6667 30.3655C15.6632 30.3192 15.6452 30.2752 15.6153 30.2396C15.5854 30.204 15.5451 30.1787 15.5001 30.1672ZM8.86265 11.2622C12.2576 11.6097 13.0876 14.8497 13.0876 18.2622C13.0876 19.0647 13.0026 20.1472 12.9501 21.2922C12.4501 21.1597 10.3101 20.7122 9.07515 22.2672C8.79452 21.9012 8.54926 21.5095 8.34265 21.0972C8.72313 20.7356 8.95267 20.2435 8.98515 19.7197C9.06265 18.0172 7.69265 16.7497 6.83765 15.3297C6.97073 15.0432 7.02674 14.7269 7.00015 14.4122C6.90015 13.0872 5.17515 13.3972 3.81015 14.0297C4.53265 12.9822 6.25015 10.9997 8.86265 11.2622ZM2.53765 16.5522C3.69015 16.3747 4.82515 15.5997 5.63265 14.8022C5.70515 14.7272 5.82265 14.8422 5.74765 14.9147C4.21015 16.4522 2.63015 16.7097 2.56265 16.7197C2.55165 16.7213 2.54043 16.7208 2.52964 16.7181C2.51886 16.7154 2.5087 16.7106 2.49976 16.704C2.48171 16.6906 2.46971 16.6706 2.4664 16.6484C2.46475 16.6374 2.46529 16.6262 2.46799 16.6154C2.47068 16.6046 2.47547 16.5945 2.48209 16.5855C2.49545 16.5675 2.51543 16.5555 2.53765 16.5522ZM3.28765 15.2272C3.32765 15.1922 4.28765 14.4297 5.07015 14.3322C5.09136 14.3295 5.11277 14.3354 5.12964 14.3485C5.14652 14.3617 5.15749 14.3809 5.16015 14.4022C5.1628 14.4234 5.15691 14.4448 5.14379 14.4617C5.13066 14.4785 5.11136 14.4895 5.09015 14.4922C4.35265 14.5847 3.40265 15.3447 3.39015 15.3522C3.30015 15.4172 3.19765 15.2922 3.28015 15.2272H3.28765ZM2.35765 18.3222C2.14918 18.0971 1.98014 17.8384 1.85765 17.5572C1.85747 17.5406 1.8623 17.5243 1.87151 17.5105C1.88072 17.4967 1.89388 17.486 1.90927 17.4798C1.92466 17.4736 1.94157 17.4721 1.95778 17.4757C1.97399 17.4792 1.98876 17.4876 2.00015 17.4997C2.11255 17.7612 2.26804 18.0021 2.46015 18.2122C2.54515 18.2772 2.43265 18.3972 2.35765 18.3222ZM3.90015 24.2047C3.47265 23.1822 3.65015 21.6772 3.66265 21.6122C3.6653 21.5909 3.67627 21.5717 3.69315 21.5585C3.71003 21.5454 3.73143 21.5395 3.75265 21.5422C3.77386 21.5448 3.79316 21.5558 3.80629 21.5727C3.81941 21.5895 3.8253 21.6109 3.82265 21.6322C3.82265 21.6497 3.64265 23.1622 4.05015 24.1322C4.05976 24.1521 4.06108 24.175 4.05381 24.1958C4.04654 24.2167 4.03129 24.2338 4.0114 24.2434C3.9915 24.253 3.96861 24.2543 3.94775 24.2471C3.92688 24.2398 3.90976 24.2246 3.90015 24.2047ZM4.13015 20.3622C3.99265 20.3297 3.67765 20.5297 3.47265 20.4847C3.40698 20.4834 3.34265 20.4659 3.28542 20.4336C3.22818 20.4014 3.17982 20.3555 3.14465 20.3001C3.10949 20.2446 3.08862 20.1813 3.0839 20.1158C3.07919 20.0503 3.09078 19.9846 3.11765 19.9247C3.17265 19.7897 3.33765 19.5497 3.83265 19.6747C3.91911 19.7006 4.01097 19.7026 4.09849 19.6805C4.18601 19.6584 4.26592 19.6131 4.32975 19.5493C4.39357 19.4854 4.43893 19.4055 4.46101 19.318C4.48309 19.2305 4.48106 19.1386 4.45515 19.0522C4.36015 18.6997 3.50015 17.5247 3.50015 17.5247C3.50015 17.5247 5.85265 16.9297 6.70265 15.5672C7.57015 16.9622 8.81765 18.1397 8.74515 19.7122C8.69515 20.7672 7.66765 21.3272 7.65765 21.3347C7.63328 21.3502 7.61566 21.3744 7.6083 21.4023C7.60094 21.4303 7.60438 21.46 7.61793 21.4855C7.63149 21.5111 7.65417 21.5306 7.68145 21.5401C7.70873 21.5497 7.73861 21.5486 7.76515 21.5372C7.90351 21.4589 8.0341 21.3677 8.15515 21.2647C8.38702 21.699 8.65638 22.1122 8.96015 22.4997C8.97515 23.1522 9.06265 24.1322 9.10515 24.5622C8.69265 24.3497 8.07515 24.0622 7.65765 23.8522C7.59515 23.6872 6.90765 21.9572 6.65765 21.7147C6.40765 21.4722 5.82265 21.7697 5.08765 21.3172C4.35265 20.8647 4.30265 20.4022 4.13015 20.3622ZM5.04265 23.2097C4.90488 22.8923 4.82042 22.5545 4.79265 22.2097C4.79376 22.1899 4.80192 22.1712 4.81564 22.157C4.82937 22.1428 4.84775 22.134 4.86743 22.1321C4.88712 22.1303 4.9068 22.1356 4.9229 22.1471C4.939 22.1586 4.95044 22.1755 4.95515 22.1947C4.98494 22.5152 5.06509 22.8291 5.19265 23.1247C5.20392 23.1446 5.20683 23.1681 5.20073 23.1901C5.19464 23.2122 5.18004 23.2309 5.16015 23.2422C5.14025 23.2534 5.1167 23.2563 5.09467 23.2503C5.07263 23.2442 5.05392 23.2296 5.04265 23.2097ZM10.4251 31.2847C9.17515 31.0647 6.17515 30.2222 4.51515 27.1022C4.62765 26.4922 5.14765 24.5672 7.26515 23.9147C7.64265 24.0947 8.72015 24.6097 9.19765 24.8647C9.21633 24.8741 9.23718 24.8784 9.25806 24.877C9.27894 24.8757 9.29909 24.8688 9.31642 24.8571C9.33375 24.8454 9.34763 24.8292 9.35664 24.8103C9.36564 24.7915 9.36944 24.7705 9.36765 24.7497C9.36765 24.7497 9.22265 23.3372 9.20515 22.4997C10.3901 20.8872 12.5976 21.4322 12.9551 21.5322C12.8701 23.5322 12.8876 25.7822 13.5301 27.8347C13.8501 28.8522 14.4376 30.1172 15.4376 30.3872C14.5001 30.7697 12.2251 31.5997 10.4251 31.2847Z" fill="#313131"/>
<path d="M4.63884 18.0903C4.65048 18.1193 4.66651 18.1461 4.68601 18.1693C4.70551 18.1926 4.7281 18.2117 4.75249 18.2257C4.77688 18.2396 4.8026 18.2481 4.82816 18.2507C4.85373 18.2533 4.87865 18.2499 4.9015 18.2407C4.92435 18.2315 4.94468 18.2167 4.96134 18.1972C4.97799 18.1776 4.99064 18.1536 4.99857 18.1267C5.00649 18.0997 5.00954 18.0702 5.00752 18.04C5.00551 18.0097 4.99848 17.9793 4.98684 17.9503C4.9752 17.9214 4.95917 17.8945 4.93967 17.8713C4.92017 17.8481 4.89757 17.8289 4.87318 17.815C4.84879 17.801 4.82308 17.7925 4.79752 17.7899C4.77195 17.7873 4.74703 17.7907 4.72418 17.7999C4.70133 17.8091 4.681 17.8239 4.66434 17.8435C4.64769 17.863 4.63504 17.887 4.62711 17.914C4.61919 17.9409 4.61614 17.9704 4.61816 18.0006C4.62017 18.0309 4.6272 18.0614 4.63884 18.0903Z" fill="#313131"/>
<path d="M6.44621 16.9341C6.46973 16.9925 6.51061 17.0412 6.55987 17.0694C6.60913 17.0976 6.66272 17.103 6.70887 17.0845C6.75502 17.0659 6.78994 17.0249 6.80594 16.9704C6.82195 16.916 6.81773 16.8525 6.79421 16.7941C6.78257 16.7651 6.76654 16.7383 6.74704 16.715C6.72754 16.6918 6.70495 16.6727 6.68056 16.6587C6.6313 16.6305 6.5777 16.6251 6.53155 16.6437C6.48541 16.6622 6.45049 16.7033 6.43448 16.7577C6.41848 16.8122 6.4227 16.8756 6.44621 16.9341Z" fill="#313131"/>
<path d="M4.92516 19.4024C4.93289 19.4244 4.94603 19.4442 4.96385 19.4608C4.98166 19.4774 5.00379 19.4904 5.02897 19.499C5.05415 19.5076 5.0819 19.5117 5.11062 19.5111C5.13935 19.5105 5.16849 19.5051 5.19637 19.4953C5.22426 19.4855 5.25036 19.4715 5.27317 19.454C5.29598 19.4365 5.31506 19.4159 5.32931 19.3935C5.34357 19.371 5.35273 19.347 5.35626 19.3229C5.3598 19.2988 5.35764 19.2751 5.34991 19.2531C5.34244 19.2309 5.32945 19.2107 5.31171 19.1939C5.29396 19.1771 5.27181 19.1639 5.24654 19.1551C5.22127 19.1463 5.19337 19.1421 5.16447 19.1426C5.13557 19.1432 5.10623 19.1486 5.07816 19.1585C5.05009 19.1683 5.02384 19.1825 5.00094 19.2001C4.97803 19.2178 4.95892 19.2385 4.94472 19.2612C4.93051 19.2839 4.92149 19.308 4.91818 19.3323C4.91486 19.3565 4.91732 19.3803 4.92541 19.4024" fill="#FCCAC2"/>
<path d="M7.5019 17.892C7.51249 17.9379 7.54574 17.9765 7.59434 17.9995C7.64295 18.0224 7.70292 18.0278 7.76107 18.0143C7.81922 18.0009 7.87078 17.9698 7.90441 17.9279C7.93804 17.8859 7.95099 17.8366 7.9404 17.7907C7.93515 17.768 7.92429 17.7468 7.90843 17.7284C7.89257 17.71 7.87202 17.6946 7.84795 17.6833C7.82388 17.6719 7.79677 17.6647 7.76817 17.6622C7.73956 17.6596 7.71002 17.6617 7.68122 17.6684C7.62308 17.6818 7.57151 17.7129 7.53788 17.7548C7.50425 17.7968 7.49131 17.8461 7.5019 17.892Z" fill="#FCCAC2"/>
<path d="M3.39771 20.0249C3.39771 20.0528 3.41377 20.0795 3.44237 20.0992C3.47097 20.1189 3.50976 20.1299 3.5502 20.1299C3.59065 20.1299 3.62944 20.1189 3.65804 20.0992C3.68664 20.0795 3.70271 20.0528 3.70271 20.0249C3.70271 19.9971 3.68664 19.9704 3.65804 19.9507C3.62944 19.931 3.59065 19.9199 3.5502 19.9199C3.50976 19.9199 3.47097 19.931 3.44237 19.9507C3.41377 19.9704 3.39771 19.9971 3.39771 20.0249Z" fill="#313131"/>
<path d="M30.3927 20.3471C30.0302 20.8146 27.2652 20.7471 24.3927 20.7596C23.8927 20.7596 23.1052 22.4071 22.8502 22.9696C22.8446 22.9843 22.8347 22.997 22.8217 23.006C22.8088 23.0149 22.7934 23.0197 22.7777 23.0197C22.7619 23.0197 22.7465 23.0149 22.7336 23.006C22.7206 22.997 22.7107 22.9843 22.7052 22.9696C22.5152 22.3721 21.9277 20.5871 21.6702 20.5871C18.6902 20.5871 16.0977 20.6046 15.6702 20.2021C14.7502 19.3271 14.4627 8.99959 15.2302 7.89959C15.9977 6.79959 28.6452 6.87209 30.1477 7.61209C30.8477 7.95709 30.8302 10.5871 30.8977 13.4871C30.9702 16.7496 30.9152 19.6796 30.3927 20.3471Z" fill="#98D1FF"/>
<path d="M20.8376 8.74973C20.8376 8.74973 20.4401 11.1347 21.0701 12.0672C21.7001 12.9997 22.4626 12.9997 22.4626 12.9997V14.4997L23.3101 15.7897L24.4701 14.3647C24.3177 13.8402 24.2435 13.296 24.2501 12.7497C24.7479 12.2506 25.0834 11.6127 25.2126 10.9197C25.2254 10.8508 25.2549 10.7861 25.2985 10.7312C25.3421 10.6763 25.3984 10.6329 25.4626 10.6047C25.6212 10.5591 25.7585 10.4587 25.85 10.3213C25.9416 10.184 25.9814 10.0187 25.9626 9.85473C25.8876 9.42973 25.3101 9.37473 25.1001 9.35473C24.7501 9.30223 24.1001 8.78473 23.9851 7.86723C23.9851 7.86723 23.2351 8.11723 22.6726 7.09473C22.6726 7.09473 22.2776 8.12223 21.5476 7.94473C21.5226 7.95473 21.4551 8.68223 20.8376 8.74973Z" fill="#FCCAC2"/>
<path d="M16.1176 12.88C16.1176 12.88 15.7151 11.9575 15.9476 11.835C16.1801 11.7125 16.5901 12.585 16.5901 12.585C16.5901 12.585 17.3776 12.2375 17.5901 12.465C17.8026 12.6925 17.3876 12.9325 17.3876 12.9325C17.3876 12.9325 17.8526 12.7075 17.9976 12.905C18.1426 13.1025 17.6751 13.5 17.6751 13.5C17.6751 13.5 18.0826 13.4 18.2076 13.5875C18.3626 13.82 17.7401 14.15 17.7401 14.15C17.7401 14.15 18.0826 14.1 18.1751 14.2825C18.2901 14.5125 17.7576 14.815 17.4101 14.9775C17.0626 15.14 16.2876 15.4325 16.5901 14.7675C16.5221 14.7625 16.4564 14.7407 16.3988 14.7042C16.3412 14.6677 16.2935 14.6176 16.2599 14.5583C16.2263 14.499 16.2078 14.4323 16.2061 14.3641C16.2044 14.296 16.2195 14.2285 16.2501 14.1675C16.2501 14.1675 15.8576 14.1325 15.9801 13.6675C15.9751 13.6675 15.3951 13.5 16.1176 12.88Z" fill="#FCCAC2"/>
<path d="M16.8752 20.4822C16.8752 20.4822 16.5202 17.6947 16.6427 15.7797C16.6427 15.7797 17.6977 15.3022 18.5477 15.4397L18.7002 15.9997C18.7002 15.9997 20.3177 13.7497 22.4152 14.4447L23.3102 15.7772L24.4702 14.3522C24.4702 14.3522 26.1702 13.9997 27.2502 14.9472C28.3302 15.8947 29.1677 16.8622 29.5177 20.6347C29.5177 20.6347 25.2202 20.9097 24.3827 20.7597C24.3827 20.7597 23.7202 20.9097 22.7702 23.0097C22.7702 23.0097 22.0952 20.9872 21.6552 20.5897C21.6602 20.5947 19.1652 20.6372 16.8752 20.4822Z" fill="white"/>
<path d="M22.3951 10.5174C21.7626 9.96988 21.7976 9.91738 21.8676 9.80738C21.9126 9.73488 22.4276 9.73488 22.4826 9.72738C22.5126 9.58488 22.5476 9.13238 22.5676 8.74488C22.5676 8.71438 22.5797 8.68513 22.6013 8.66357C22.6229 8.642 22.6521 8.62988 22.6826 8.62988C22.7131 8.62988 22.7424 8.642 22.7639 8.66357C22.7855 8.68513 22.7976 8.71438 22.7976 8.74488C22.7451 9.84238 22.6826 9.88238 22.6251 9.91488C22.4678 9.94571 22.308 9.96244 22.1476 9.96488C22.2476 10.0649 22.3976 10.2149 22.5451 10.3324C22.6926 10.4499 22.5001 10.6174 22.3951 10.5174Z" fill="#313131"/>
<path d="M22.3876 11.3928C22.2923 11.3762 22.2018 11.3387 22.1227 11.2829C22.0436 11.2271 21.9778 11.1545 21.9301 11.0703C21.9226 11.0572 21.9177 11.0427 21.9158 11.0277C21.9138 11.0126 21.9148 10.9974 21.9188 10.9828C21.9227 10.9681 21.9295 10.9544 21.9388 10.9424C21.948 10.9304 21.9595 10.9204 21.9726 10.9128C21.9858 10.9053 22.0003 10.9004 22.0153 10.8984C22.0303 10.8965 22.0456 10.8975 22.0602 10.9014C22.0748 10.9054 22.0885 10.9122 22.1005 10.9214C22.1125 10.9307 22.1226 10.9422 22.1301 10.9553C22.1614 11.0162 22.208 11.0679 22.2652 11.1054C22.3225 11.1429 22.3885 11.1649 22.4568 11.1691C22.5251 11.1734 22.5934 11.1599 22.6549 11.1299C22.7164 11.0998 22.769 11.0543 22.8076 10.9978C22.9151 10.8978 23.0751 11.0653 22.9651 11.1653C22.8951 11.2479 22.8057 11.3118 22.7049 11.3515C22.6042 11.3912 22.4952 11.4054 22.3876 11.3928Z" fill="#313131"/>
<path d="M25.2826 10.1396C25.2591 10.1397 25.2361 10.1325 25.2167 10.1191C25.1973 10.1057 25.1826 10.0866 25.1744 10.0645C25.1662 10.0424 25.165 10.0184 25.171 9.99559C25.1769 9.9728 25.1897 9.95238 25.2076 9.9371C25.2617 9.89137 25.3213 9.85273 25.3851 9.8221C25.3992 9.81668 25.4143 9.8141 25.4294 9.81449C25.4445 9.81489 25.4594 9.81826 25.4732 9.82441C25.487 9.83056 25.4995 9.83938 25.5099 9.85035C25.5203 9.86132 25.5284 9.87423 25.5339 9.88835C25.5393 9.90246 25.5419 9.91751 25.5415 9.93262C25.5411 9.94774 25.5377 9.96263 25.5315 9.97644C25.5254 9.99025 25.5166 10.0027 25.5056 10.0131C25.4946 10.0235 25.4817 10.0317 25.4676 10.0371C25.4283 10.058 25.3915 10.0832 25.3576 10.1121C25.3476 10.1215 25.3358 10.1287 25.3229 10.1335C25.31 10.1382 25.2963 10.1403 25.2826 10.1396Z" fill="#313131"/>
<path d="M18.3527 13.6923C18.3677 13.6248 18.3527 13.3323 17.9527 13.3848C18.1852 13.1348 18.1677 12.9723 18.1327 12.8973C18.0931 12.8207 18.0278 12.7604 17.9483 12.7271C17.8688 12.6937 17.7801 12.6894 17.6977 12.7148C17.7227 12.6698 17.8402 12.2148 17.2352 12.2948C17.0372 12.3221 16.8438 12.376 16.6602 12.4548C16.3502 11.8923 16.1027 11.6398 15.9277 11.7223C15.6777 11.8423 15.9152 12.6223 16.0102 12.8473C15.6077 13.1223 15.6077 13.4123 15.6652 13.5548C15.7046 13.6438 15.7773 13.7138 15.8677 13.7498C15.7377 14.1648 16.0277 14.2173 16.1327 14.2498C16.1014 14.3071 16.0851 14.3715 16.0853 14.4368C16.0855 14.5021 16.1022 14.5663 16.1339 14.6234C16.1656 14.6805 16.2112 14.7287 16.2665 14.7635C16.3218 14.7983 16.385 14.8185 16.4502 14.8223C16.2502 15.2898 16.6177 15.2898 16.7277 15.2898C17.1927 15.2898 17.9777 14.7723 17.9777 14.7673C18.2277 14.6073 18.3502 14.3923 18.2902 14.2323C18.2602 14.1548 18.1977 14.0948 18.0252 14.0648C18.1703 13.9776 18.2847 13.8474 18.3527 13.6923ZM16.0152 11.9423C16.1912 12.1188 16.3381 12.3222 16.4502 12.5448C16.3638 12.5895 16.2803 12.6396 16.2002 12.6948C16.0901 12.4611 16.0272 12.2079 16.0152 11.9498V11.9423ZM17.3252 14.2498C17.2152 14.3098 17.2852 14.4998 17.4077 14.4548L17.7152 14.3023C18.2152 14.1148 18.1102 14.4448 17.8827 14.5823C17.4352 14.8498 16.7302 15.1598 16.6527 15.0498C16.5752 14.9398 16.7652 14.7998 16.7652 14.7998C16.7848 14.7845 16.7989 14.7631 16.8054 14.739C16.8119 14.715 16.8103 14.6894 16.801 14.6663C16.7917 14.6432 16.7751 14.6237 16.7538 14.6108C16.7324 14.5979 16.7075 14.5923 16.6827 14.5948C16.5077 14.6098 16.3902 14.5948 16.3502 14.5273C16.3102 14.4598 16.3502 14.2773 16.3927 14.2223C16.4012 14.2059 16.4057 14.1876 16.4058 14.1691C16.406 14.1506 16.4017 14.1322 16.3934 14.1157C16.3852 14.0991 16.3731 14.0847 16.3582 14.0737C16.3432 14.0627 16.3259 14.0554 16.3077 14.0523C16.2682 14.0524 16.2293 14.0432 16.1941 14.0254C16.1589 14.0076 16.1284 13.9817 16.1052 13.9498C16.0882 13.9103 16.0795 13.8678 16.0795 13.8248C16.0795 13.7818 16.0882 13.7393 16.1052 13.6998C16.1117 13.6835 16.1147 13.6659 16.1137 13.6483C16.1127 13.6307 16.1079 13.6136 16.0995 13.598C16.0912 13.5825 16.0795 13.5691 16.0654 13.5586C16.0512 13.5481 16.0349 13.5408 16.0177 13.5373C15.9852 13.5373 15.7052 13.4698 15.9902 13.1623C16.3307 12.8217 16.7666 12.5925 17.2402 12.5048C17.4652 12.4773 17.6527 12.5623 17.1652 12.8798C17.1652 12.8798 16.9702 13.0148 16.8702 13.0723C16.8436 13.0876 16.8243 13.1127 16.8163 13.1423C16.8083 13.1718 16.8124 13.2033 16.8277 13.2298C16.8429 13.2563 16.8681 13.2757 16.8976 13.2837C16.9271 13.2917 16.9586 13.2876 16.9852 13.2723C17.0502 13.2348 17.1702 13.1623 17.2952 13.0723C17.4202 12.9823 17.7952 12.7723 17.9052 12.9723C17.9452 13.0448 17.7502 13.2498 17.4677 13.4723C17.4677 13.4723 17.1952 13.6648 17.0477 13.7498C17.0272 13.7634 17.0116 13.7831 17.0029 13.8061C16.9942 13.8291 16.993 13.8542 16.9993 13.8779C17.0057 13.9017 17.0193 13.9228 17.0383 13.9384C17.0573 13.954 17.0807 13.9632 17.1052 13.9648C17.1252 13.9648 17.9377 13.4098 18.1502 13.6298C18.2502 13.7123 17.7327 14.0348 17.3252 14.2498Z" fill="#313131"/>
<path d="M23.7126 10.5895C23.7126 10.6412 23.7406 10.6908 23.7903 10.7274C23.84 10.764 23.9074 10.7845 23.9776 10.7845C24.0479 10.7845 24.1153 10.764 24.165 10.7274C24.2147 10.6908 24.2426 10.6412 24.2426 10.5895C24.2426 10.5378 24.2147 10.4882 24.165 10.4516C24.1153 10.4151 24.0479 10.3945 23.9776 10.3945C23.9074 10.3945 23.84 10.4151 23.7903 10.4516C23.7406 10.4882 23.7126 10.5378 23.7126 10.5895Z" fill="#FCCAC2"/>
<path d="M21.2151 10.4496C21.2151 10.4987 21.2404 10.5458 21.2854 10.5805C21.3304 10.6152 21.3914 10.6346 21.4551 10.6346C21.5187 10.6346 21.5798 10.6152 21.6248 10.5805C21.6698 10.5458 21.6951 10.4987 21.6951 10.4496C21.6951 10.4006 21.6698 10.3535 21.6248 10.3188C21.5798 10.2841 21.5187 10.2646 21.4551 10.2646C21.3914 10.2646 21.3304 10.2841 21.2854 10.3188C21.2404 10.3535 21.2151 10.4006 21.2151 10.4496Z" fill="#FCCAC2"/>
<path d="M31.0002 13.485C30.9327 10.4625 30.9552 7.88745 30.1877 7.50995C29.7352 7.28745 28.3977 7.12995 26.7427 7.03995C26.7531 6.89824 26.7299 6.75607 26.6752 6.62495C26.4252 6.02995 25.5502 6.26995 25.5502 6.26995C25.5502 6.26995 25.6802 5.42495 25.2152 5.10995C24.7502 4.79495 24.1877 5.08995 23.9877 5.30995C23.9016 5.08029 23.7448 4.8839 23.5399 4.7491C23.335 4.6143 23.0926 4.54807 22.8477 4.55995C22.6102 4.55791 22.3814 4.64929 22.2107 4.81438C22.04 4.97948 21.9411 5.20505 21.9352 5.44245C21.7218 5.27446 21.4533 5.19256 21.1825 5.21293C20.9118 5.23329 20.6585 5.35444 20.4727 5.55245C20.302 5.69938 20.1868 5.90035 20.1463 6.12189C20.1058 6.34343 20.1425 6.57216 20.2502 6.76995C20.0138 6.78493 19.7878 6.87221 19.6027 7.01995C18.8527 7.05995 15.5577 7.21745 15.1302 7.83495C14.3427 8.97745 14.6127 19.335 15.5852 20.2775C16.0852 20.755 22.0352 20.6925 21.6477 20.6925C21.7752 20.775 22.1177 21.5225 22.5877 22.995C22.6005 23.0308 22.6236 23.0622 22.654 23.0851C22.6845 23.108 22.721 23.1215 22.759 23.1239C22.797 23.1262 22.8349 23.1174 22.868 23.0985C22.9011 23.0796 22.9279 23.0514 22.9452 23.0175C23.5252 21.7375 24.1052 20.875 24.3852 20.875C27.2502 20.875 30.0727 20.94 30.4802 20.42C30.9452 19.83 31.1077 17.6925 31.0002 13.485ZM20.8627 10.19C20.8627 10.19 20.8627 10.3175 20.9352 8.96495C21.0631 8.93989 21.1831 8.88461 21.2853 8.80372C21.3875 8.72283 21.4689 8.61868 21.5227 8.49995C21.7207 8.47368 21.9221 8.49865 22.1077 8.57245C22.1351 8.58237 22.1652 8.5815 22.192 8.57003C22.2188 8.55856 22.2403 8.53734 22.252 8.51066C22.2638 8.48399 22.2649 8.45385 22.2553 8.42633C22.2457 8.39882 22.226 8.37599 22.2002 8.36245C22.0139 8.28294 21.8126 8.24457 21.6102 8.24995C21.6233 8.20148 21.6333 8.15221 21.6402 8.10245C21.8638 8.11922 22.0863 8.05713 22.269 7.92698C22.4516 7.79683 22.583 7.60683 22.6402 7.38995C22.6402 7.38995 23.1027 8.20995 23.8477 8.06245C23.8776 8.21281 23.9237 8.35949 23.9852 8.49995C23.8209 8.46519 23.6525 8.45425 23.4852 8.46745C23.4547 8.46745 23.4254 8.47957 23.4038 8.50114C23.3823 8.5227 23.3702 8.55195 23.3702 8.58245C23.3702 8.61295 23.3823 8.6422 23.4038 8.66377C23.4254 8.68534 23.4547 8.69745 23.4852 8.69745C23.7029 8.68012 23.9219 8.70909 24.1277 8.78245C24.2212 8.96375 24.353 9.12251 24.514 9.24771C24.6751 9.37291 24.8614 9.46154 25.0602 9.50745C25.5052 9.60245 25.7152 9.55995 25.7752 9.91995C25.8402 10.335 25.3077 10.38 25.1652 10.55C25.0602 10.6725 24.9302 11.3 24.8052 11.7425C24.6773 12.0528 24.4837 12.3317 24.2377 12.56C24.1584 12.6406 24.1144 12.7494 24.1152 12.8625C24.1335 13.3487 24.2125 13.8307 24.3502 14.2975L23.3177 15.5475L22.5927 14.4625V13.125C22.8177 13.1506 23.0454 13.1413 23.2677 13.0975C23.2823 13.0935 23.296 13.0867 23.308 13.0775C23.3199 13.0683 23.33 13.0568 23.3375 13.0437C23.3451 13.0305 23.35 13.0161 23.3519 13.0011C23.3539 12.9861 23.3529 12.9708 23.3489 12.9562C23.345 12.9416 23.3382 12.9279 23.329 12.9159C23.3197 12.9039 23.3082 12.8939 23.2951 12.8863C23.282 12.8788 23.2675 12.8739 23.2525 12.8719C23.2375 12.87 23.2223 12.871 23.2077 12.875C22.8972 12.9316 22.5778 12.916 22.2743 12.8293C21.9708 12.7425 21.6914 12.5871 21.4577 12.375C20.7027 11.72 20.8627 10.205 20.8627 10.19ZM15.7502 20.11C14.8852 19.29 14.5877 9.03495 15.3252 7.96495C15.5477 7.64495 17.0977 7.38745 19.4227 7.25995C19.0327 8.25995 19.9227 8.46245 19.9227 8.46245C19.9227 8.46245 19.1727 9.84495 20.6177 10.5375C20.6177 11.065 20.7002 12.0225 21.3002 12.5375C21.6022 12.8038 21.9655 12.991 22.3577 13.0825V14.265C21.7775 14.1675 21.1822 14.2157 20.6252 14.405C19.8985 14.6805 19.266 15.1585 18.8027 15.7825C18.8027 15.75 18.7602 15.555 18.7602 15.555C18.745 15.4766 18.703 15.4061 18.6414 15.3554C18.5798 15.3047 18.5024 15.2772 18.4227 15.2775C17.8437 15.3091 17.273 15.4288 16.7302 15.6325C16.6637 15.6552 16.606 15.6979 16.5648 15.7547C16.5236 15.8116 16.501 15.8798 16.5002 15.95C16.4727 18.6075 16.6677 19.93 16.7502 20.355C16.2302 20.305 15.8727 20.225 15.7502 20.11ZM17.0002 20.3775C16.9377 20.0575 16.7152 18.73 16.7502 15.9525C16.7513 15.9303 16.7587 15.9089 16.7716 15.8907C16.7844 15.8726 16.8021 15.8584 16.8227 15.85C17.3428 15.6633 17.8863 15.5497 18.4377 15.5125C18.4638 15.5113 18.4894 15.5195 18.51 15.5355C18.5306 15.5516 18.5448 15.5744 18.5502 15.6C18.5502 15.6 19.3202 19.8 19.4702 20.4575C18.5002 20.45 17.6427 20.43 17.0002 20.3775ZM22.7927 22.83C22.0427 20.4625 21.7927 20.4625 21.6777 20.4625H19.7027C19.6152 20.1175 18.8577 16.12 18.8752 16.095C18.8927 16.07 19.5977 14.995 20.7077 14.63C21.2278 14.4536 21.7835 14.4089 22.3252 14.5L23.1877 15.805L23.2852 21.84C23.1327 22.1025 22.9652 22.4325 22.7802 22.83H22.7927ZM27.8377 20.6225C27.7618 19.8257 27.6425 19.0337 27.4802 18.25C27.4552 18.1125 27.2302 18.1375 27.2552 18.2925C27.4094 19.0634 27.5229 19.842 27.5952 20.625C26.9377 20.625 24.7627 20.64 24.3877 20.6425C24.2052 20.6425 23.9227 20.8125 23.5077 21.4575L23.4177 15.8L24.5327 14.4375C24.8502 14.3875 27.0527 14.1125 28.2177 16.1425C29.3077 18.0375 29.4002 20.2075 29.4102 20.5325C28.9827 20.5825 28.4352 20.6075 27.8252 20.6225H27.8377ZM30.3152 20.2775C30.121 20.4173 29.8894 20.4957 29.6502 20.5025C29.6502 20.0825 29.5227 17.9225 28.4302 16.0275C27.2477 13.97 25.0677 14.135 24.5652 14.2025C24.4395 13.7688 24.3682 13.3212 24.3527 12.87C24.3514 12.845 24.3555 12.8201 24.3645 12.7969C24.3736 12.7736 24.3874 12.7525 24.4052 12.735C24.599 12.5452 24.7671 12.3309 24.9052 12.0975C25.1074 12.2185 25.3363 12.288 25.5717 12.2998C25.8072 12.3115 26.0419 12.2652 26.2552 12.165C27.0052 11.8075 26.6277 10.8825 26.6277 10.8825C26.6277 10.8825 27.5652 10.9225 27.6002 10.1325C27.6101 10.026 27.5989 9.91863 27.5672 9.81654C27.5354 9.71444 27.4838 9.61964 27.4152 9.5376C27.3467 9.45556 27.2625 9.3879 27.1677 9.33853C27.0729 9.28916 26.9692 9.25906 26.8627 9.24995C26.9596 9.23161 27.0519 9.19386 27.1339 9.13897C27.216 9.08407 27.2861 9.01317 27.34 8.93051C27.3939 8.84785 27.4306 8.75515 27.4478 8.65796C27.465 8.56077 27.4624 8.46111 27.4402 8.36495C27.3227 7.61495 26.4402 7.69995 26.4402 7.69995C26.5537 7.57264 26.6389 7.42266 26.6902 7.25995C28.4102 7.35495 29.6902 7.50995 30.0777 7.70745C30.6502 7.98995 30.6977 10.275 30.7477 12.6925C30.7877 13.85 31.0002 19.4 30.3027 20.2775H30.3152Z" fill="#313131"/>
<path d="M23.5302 9.31258C23.5302 9.37424 23.5496 9.43338 23.5843 9.47698C23.619 9.52058 23.6661 9.54508 23.7152 9.54508C23.7642 9.54508 23.8113 9.52058 23.846 9.47698C23.8807 9.43338 23.9002 9.37424 23.9002 9.31258C23.9002 9.25092 23.8807 9.19178 23.846 9.14818C23.8113 9.10457 23.7642 9.08008 23.7152 9.08008C23.6661 9.08008 23.619 9.10457 23.5843 9.14818C23.5496 9.19178 23.5302 9.25092 23.5302 9.31258Z" fill="#313131"/>
<path d="M21.5776 9.14242C21.5776 9.20143 21.5963 9.25803 21.6296 9.29975C21.6629 9.34148 21.7081 9.36492 21.7551 9.36492C21.8022 9.36492 21.8474 9.34148 21.8806 9.29975C21.9139 9.25803 21.9326 9.20143 21.9326 9.14242C21.9326 9.08341 21.9139 9.02682 21.8806 8.98509C21.8474 8.94336 21.8022 8.91992 21.7551 8.91992C21.7081 8.91992 21.6629 8.94336 21.6296 8.98509C21.5963 9.02682 21.5776 9.08341 21.5776 9.14242Z" fill="#313131"/>
<path d="M22.5352 16.7875C22.5352 16.8306 22.5491 16.8719 22.574 16.9024C22.5988 16.9329 22.6325 16.95 22.6677 16.95C22.7028 16.95 22.7365 16.9329 22.7613 16.9024C22.7862 16.8719 22.8002 16.8306 22.8002 16.7875C22.8002 16.7444 22.7862 16.7031 22.7613 16.6726C22.7365 16.6421 22.7028 16.625 22.6677 16.625C22.6325 16.625 22.5988 16.6421 22.574 16.6726C22.5491 16.7031 22.5352 16.7444 22.5352 16.7875Z" fill="#313131"/>
<path d="M22.5101 18.1947C22.5101 18.2378 22.5241 18.2792 22.5489 18.3096C22.5738 18.3401 22.6075 18.3572 22.6426 18.3572C22.6778 18.3572 22.7115 18.3401 22.7363 18.3096C22.7612 18.2792 22.7751 18.2378 22.7751 18.1947C22.7751 18.1516 22.7612 18.1103 22.7363 18.0798C22.7115 18.0493 22.6778 18.0322 22.6426 18.0322C22.6075 18.0322 22.5738 18.0493 22.5489 18.0798C22.5241 18.1103 22.5101 18.1516 22.5101 18.1947Z" fill="#313131"/>
<path d="M22.5101 19.6049C22.5101 19.648 22.5241 19.6893 22.5489 19.7198C22.5738 19.7503 22.6075 19.7674 22.6426 19.7674C22.6778 19.7674 22.7115 19.7503 22.7363 19.7198C22.7612 19.6893 22.7751 19.648 22.7751 19.6049C22.7751 19.5618 22.7612 19.5205 22.7363 19.49C22.7115 19.4595 22.6778 19.4424 22.6426 19.4424C22.6075 19.4424 22.5738 19.4595 22.5489 19.49C22.5241 19.5205 22.5101 19.5618 22.5101 19.6049Z" fill="#313131"/>
<path d="M34.5377 15.7077C34.5377 15.7077 37.0752 12.2227 41.2652 12.3377C42.3652 12.3702 44.3677 12.0252 46.5727 14.4577C49.5052 17.7077 48.7902 21.7752 47.7827 23.3977C47.7827 23.3977 46.1177 18.8002 42.8127 18.3827L42.6902 18.7502C42.6902 18.7502 41.5002 19.6227 40.7502 18.2227C40.7502 18.2227 38.0602 17.9252 35.8402 21.4727C35.8402 21.4727 35.0127 16.8977 34.7127 16.5227C34.7127 16.5227 34.5602 16.5002 34.4452 16.4927C34.4947 16.2336 34.5257 15.9713 34.5377 15.7077Z" fill="#98D1FF"/>
<path d="M35.1926 24.9029C35.1926 24.9029 36.4426 26.2579 37.6651 26.6729C37.6651 26.6729 38.0351 24.1254 38.0426 23.9229C38.0426 23.9204 36.1426 24.9729 35.1926 24.9029Z" fill="#98D1FF"/>
<path d="M42.3651 10.9297C42.3651 10.9297 41.0376 12.4847 40.5251 13.9547C40.0126 15.4247 39.8176 16.1222 41.3251 16.9747C41.189 17.4273 40.9958 17.8608 40.7501 18.2647C40.7501 18.2647 41.3376 19.6422 42.6951 18.7647C42.7824 18.3075 42.913 17.8596 43.0851 17.4272C43.6338 17.1418 44.1114 16.7368 44.4826 16.2422C44.4826 16.2422 45.3476 16.5772 45.6301 16.2072C45.8201 15.9572 45.5276 15.5297 45.2476 15.2622C45.1468 15.169 45.0767 15.0474 45.0467 14.9134C45.0168 14.7793 45.0285 14.6394 45.0801 14.5122C45.1751 14.2622 45.3026 14.0372 45.4001 13.7922C45.4398 13.6918 45.4405 13.5803 45.4021 13.4795C45.3637 13.3786 45.289 13.2958 45.1926 13.2472C44.6401 12.9697 43.5901 12.4122 43.1801 11.9972C42.8553 11.6853 42.5804 11.3252 42.3651 10.9297Z" fill="white"/>
<path d="M33.5202 16.6046C33.5202 16.6046 34.1302 16.5596 34.4452 16.4921C34.4452 16.4921 34.6952 15.5246 34.4227 15.2946C34.1502 15.0646 33.7427 15.1521 33.4777 15.1671C32.9927 15.1946 32.5727 14.2421 32.3952 13.9171C32.2177 13.5921 31.7727 13.1671 31.7327 13.8221C31.7312 14.3561 31.9241 14.8723 32.2752 15.2746C32.5127 15.4996 33.4002 15.8471 33.5202 16.6046Z" fill="white"/>
<path d="M42.7677 12.5498C42.7517 12.5498 42.7358 12.5464 42.7212 12.54C42.7066 12.5335 42.6934 12.5241 42.6826 12.5123C42.5549 12.3833 42.391 12.2962 42.2127 12.2623C42.1835 12.2569 42.1575 12.2404 42.1401 12.2163C42.1228 12.1922 42.1155 12.1623 42.1197 12.1329C42.1239 12.1035 42.1393 12.0769 42.1627 12.0586C42.1861 12.0403 42.2156 12.0318 42.2451 12.0348C42.4768 12.0779 42.6893 12.1924 42.8527 12.3623C42.8652 12.3791 42.8731 12.399 42.8754 12.4199C42.8776 12.4408 42.8742 12.462 42.8656 12.4811C42.8569 12.5003 42.8432 12.5168 42.826 12.5288C42.8088 12.5409 42.7886 12.5481 42.7677 12.5498Z" fill="#313131"/>
<path d="M44.2502 13.7873C44.1652 13.613 44.0268 13.4702 43.8552 13.3798C43.827 13.3679 43.8047 13.3453 43.7932 13.3169C43.7817 13.2885 43.782 13.2568 43.7939 13.2286C43.8059 13.2004 43.8285 13.1781 43.8569 13.1666C43.8852 13.1552 43.917 13.1554 43.9452 13.1673C44.1687 13.2782 44.349 13.4603 44.4577 13.6848C44.5302 13.8148 44.3252 13.9223 44.2502 13.7873Z" fill="#313131"/>
<path d="M41.5651 14.4996C41.5483 14.4799 41.5366 14.4564 41.531 14.4311C41.5253 14.4059 41.5259 14.3796 41.5326 14.3546C41.6676 13.8921 42.5876 13.1046 42.6926 13.0121C42.7158 12.9922 42.7459 12.9824 42.7764 12.9847C42.8069 12.9871 42.8352 13.0014 42.8551 13.0246C42.875 13.0478 42.8848 13.078 42.8825 13.1085C42.8801 13.1389 42.8658 13.1672 42.8426 13.1871C42.5926 13.3996 41.9476 13.9946 41.7826 14.3471C41.9054 14.3529 42.0286 14.3462 42.1501 14.3271C42.1649 14.3239 42.1803 14.3238 42.1952 14.327C42.2101 14.3301 42.2241 14.3364 42.2364 14.3454C42.2487 14.3544 42.2589 14.3658 42.2664 14.3791C42.2739 14.3923 42.2786 14.4069 42.28 14.4221C42.2814 14.4372 42.2796 14.4525 42.2747 14.4669C42.2698 14.4813 42.2619 14.4945 42.2515 14.5056C42.2411 14.5167 42.2285 14.5255 42.2144 14.5313C42.2004 14.5372 42.1853 14.54 42.1701 14.5396C42.0401 14.5521 41.6226 14.5721 41.5651 14.4996Z" fill="#313131"/>
<path d="M41.1576 14.802C41.0635 14.7523 40.9609 14.721 40.8551 14.7095C40.8246 14.7095 40.7954 14.6974 40.7738 14.6758C40.7522 14.6542 40.7401 14.625 40.7401 14.5945C40.7401 14.564 40.7522 14.5347 40.7738 14.5132C40.7954 14.4916 40.8246 14.4795 40.8551 14.4795C40.9931 14.4912 41.1274 14.5303 41.2501 14.5945C41.2731 14.6094 41.29 14.632 41.2977 14.6583C41.3055 14.6846 41.3037 14.7127 41.2925 14.7378C41.2814 14.7628 41.2616 14.783 41.2369 14.7948C41.2122 14.8065 41.1841 14.8091 41.1576 14.802Z" fill="#313131"/>
<path d="M42.1501 15.6399C42.0234 15.4321 41.8527 15.2546 41.6501 15.1199C41.6242 15.1036 41.6059 15.0778 41.5991 15.048C41.5923 15.0182 41.5976 14.987 41.6138 14.9611C41.6301 14.9353 41.6559 14.9169 41.6857 14.9101C41.7155 14.9033 41.7467 14.9086 41.7726 14.9249C42.0031 15.0812 42.1968 15.286 42.3401 15.5249C42.3471 15.5492 42.3459 15.5751 42.3367 15.5987C42.3275 15.6222 42.3108 15.6421 42.2892 15.6552C42.2675 15.6683 42.2422 15.6739 42.217 15.6711C42.1919 15.6683 42.1684 15.6574 42.1501 15.6399Z" fill="#313131"/>
<path d="M41.0751 15.425C41.0255 15.3746 40.9882 15.3134 40.966 15.2462C40.9439 15.1789 40.9376 15.1075 40.9476 15.0375C40.9516 15.007 40.9675 14.9793 40.9919 14.9606C41.0163 14.9418 41.0471 14.9335 41.0776 14.9375C41.1081 14.9415 41.1358 14.9574 41.1545 14.9818C41.1733 15.0062 41.1816 15.037 41.1776 15.0675C41.1776 15.11 41.1776 15.21 41.2226 15.2475C41.2676 15.285 41.3326 15.275 41.4326 15.2475C41.4614 15.2376 41.493 15.2395 41.5205 15.2528C41.5479 15.2662 41.5689 15.2899 41.5788 15.3187C41.5888 15.3476 41.5869 15.3792 41.5735 15.4066C41.5601 15.4341 41.5364 15.4551 41.5076 15.465C41.4369 15.4901 41.3616 15.4995 41.2869 15.4926C41.2123 15.4857 41.14 15.4626 41.0751 15.425Z" fill="#313131"/>
<path d="M43.5461 14.3345C43.5697 14.3445 43.5956 14.3485 43.6222 14.3463C43.6489 14.344 43.6758 14.3356 43.7014 14.3215C43.7271 14.3074 43.7509 14.2879 43.7717 14.264C43.7924 14.2402 43.8096 14.2125 43.8223 14.1826C43.835 14.1526 43.8429 14.121 43.8455 14.0895C43.8482 14.058 43.8456 14.0273 43.8379 13.9991C43.8302 13.9708 43.8175 13.9457 43.8005 13.925C43.7836 13.9043 43.7627 13.8885 43.7391 13.8785C43.7156 13.8686 43.6897 13.8646 43.663 13.8668C43.6364 13.8691 43.6095 13.8775 43.5839 13.8916C43.5582 13.9057 43.5343 13.9252 43.5136 13.9491C43.4929 13.9729 43.4757 14.0006 43.463 14.0305C43.4503 14.0605 43.4424 14.0921 43.4397 14.1236C43.4371 14.1551 43.4397 14.1858 43.4474 14.214C43.4551 14.2423 43.4678 14.2674 43.4847 14.2881C43.5017 14.3088 43.5226 14.3246 43.5461 14.3345Z" fill="#313131"/>
<path d="M41.8168 13.1318C41.8395 13.1443 41.8651 13.151 41.892 13.1513C41.919 13.1517 41.9468 13.1457 41.9738 13.1339C42.0009 13.122 42.0266 13.1045 42.0495 13.0823C42.0724 13.0601 42.0921 13.0337 42.1073 13.0045C42.1226 12.9754 42.1331 12.9442 42.1383 12.9127C42.1434 12.8812 42.1432 12.8501 42.1375 12.8211C42.1318 12.7922 42.1208 12.7659 42.1052 12.744C42.0895 12.7221 42.0695 12.7048 42.0463 12.6933C42.0237 12.6808 41.9981 12.6742 41.9711 12.6738C41.9442 12.6735 41.9164 12.6794 41.8893 12.6913C41.8623 12.7031 41.8366 12.7206 41.8136 12.7429C41.7907 12.7651 41.7711 12.7915 41.7558 12.8206C41.7406 12.8497 41.7301 12.8809 41.7249 12.9124C41.7197 12.9439 41.72 12.9751 41.7256 13.004C41.7313 13.033 41.7423 13.0592 41.758 13.0812C41.7736 13.1031 41.7936 13.1203 41.8168 13.1318Z" fill="#313131"/>
<path d="M44.7952 15.7648C44.7952 15.7992 44.8131 15.8323 44.845 15.8567C44.8768 15.8811 44.9201 15.8948 44.9652 15.8948C45.0103 15.8948 45.0535 15.8811 45.0854 15.8567C45.1173 15.8323 45.1352 15.7992 45.1352 15.7648C45.1352 15.7303 45.1173 15.6972 45.0854 15.6728C45.0535 15.6485 45.0103 15.6348 44.9652 15.6348C44.9201 15.6348 44.8768 15.6485 44.845 15.6728C44.8131 15.6972 44.7952 15.7303 44.7952 15.7648Z" fill="#313131"/>
<path d="M43.1061 15.3987C43.1415 15.411 43.1784 15.418 43.2147 15.4192C43.251 15.4204 43.286 15.4159 43.3175 15.4058C43.349 15.3957 43.3765 15.3803 43.3983 15.3605C43.4201 15.3407 43.4357 15.3169 43.4443 15.2905C43.4529 15.2641 43.4542 15.2356 43.4482 15.2068C43.4423 15.178 43.4291 15.1494 43.4095 15.1227C43.39 15.096 43.3644 15.0717 43.3343 15.0514C43.3042 15.031 43.2702 15.015 43.2344 15.0042C43.199 14.9918 43.1621 14.9848 43.1258 14.9836C43.0894 14.9824 43.0545 14.9869 43.0229 14.997C42.9914 15.0071 42.9639 15.0225 42.9422 15.0423C42.9204 15.0621 42.9047 15.0859 42.8962 15.1123C42.8876 15.1387 42.8862 15.1672 42.8922 15.196C42.8982 15.2248 42.9113 15.2534 42.9309 15.2801C42.9505 15.3068 42.9761 15.3311 43.0062 15.3514C43.0363 15.3718 43.0702 15.3879 43.1061 15.3987Z" fill="#FCCAC2"/>
<path d="M40.9602 14.1365C40.9919 14.1507 41.0255 14.1601 41.059 14.164C41.0925 14.1679 41.1253 14.1663 41.1553 14.1592C41.1853 14.1522 41.212 14.1399 41.2338 14.1231C41.2556 14.1062 41.2721 14.0852 41.2822 14.0612C41.2924 14.0372 41.296 14.0107 41.293 13.9834C41.2899 13.956 41.2801 13.9283 41.2643 13.9018C41.2484 13.8754 41.2268 13.8507 41.2007 13.8294C41.1746 13.8081 41.1445 13.7904 41.1122 13.7775C41.0805 13.7633 41.0469 13.754 41.0134 13.7501C40.9799 13.7462 40.9472 13.7478 40.9172 13.7549C40.8872 13.7619 40.8605 13.7742 40.8387 13.791C40.8169 13.8078 40.8004 13.8289 40.7902 13.8529C40.7801 13.8769 40.7764 13.9033 40.7795 13.9307C40.7826 13.9581 40.7923 13.9858 40.8082 14.0123C40.824 14.0387 40.8457 14.0633 40.8718 14.0847C40.8979 14.106 40.928 14.1237 40.9602 14.1365Z" fill="#FCCAC2"/>
<path d="M46.6126 14.335C46.8169 13.6855 46.8274 12.9904 46.6426 12.335C46.4276 11.7 45.3226 10.915 44.3301 10.43C43.9176 10.23 43.4801 9.64251 43.2901 9.59001C43.1001 9.53751 42.9151 10.01 42.9151 10.01C42.8351 10.0225 42.6651 9.76001 42.5051 9.76001C42.3451 9.76001 42.1451 10.13 42.2051 10.665C41.8174 11.1446 41.486 11.6672 41.2176 12.2225C39.9469 12.2417 38.6964 12.5433 37.5566 13.1054C36.4168 13.6675 35.4163 14.4761 34.6276 15.4725C34.5951 15.3125 34.4676 14.9925 33.8176 15.0525C33.7126 15.0754 33.6041 15.077 33.4985 15.0572C33.3928 15.0375 33.2922 14.9968 33.2026 14.9375C32.6776 14.5225 32.4701 13.2325 31.8476 13.3725C31.3026 13.495 31.7801 14.985 32.3126 15.42C32.7626 15.785 33.3126 16.0175 33.4076 16.5975C33.2235 16.6448 33.0481 16.7207 32.8876 16.8225C32.8279 16.8643 32.7806 16.9215 32.7507 16.9879C32.7208 17.0543 32.7093 17.1276 32.7176 17.2C32.3776 23.2725 33.5451 24.625 34.7526 24.9725C34.871 25.0048 34.9925 25.0241 35.1151 25.03C35.9138 25.8204 36.8544 26.4532 37.8876 26.895C37.7151 27.4525 37.0451 27.9675 37.0276 28.0725C37.0276 28.135 37.0726 28.16 37.1176 28.165C38.8451 28.385 40.3326 27.4675 40.4176 27.47C42.4176 27.53 45.1176 26.695 46.5576 25.255C49.6526 22.1625 49.2976 17.09 46.6126 14.335ZM34.3626 16.3975C34.3301 16.3975 33.9601 16.4625 33.6426 16.545C33.5151 15.8825 32.8701 15.585 32.4601 15.25C32.0501 14.915 31.6526 13.7275 31.8501 13.6125C32.2226 13.3925 32.7501 14.9025 33.0626 15.1275C33.5226 15.4625 34.0201 15.17 34.3126 15.3525C34.4701 15.4475 34.4351 16 34.3601 16.3975H34.3626ZM37.4676 26.4575C36.7309 26.0766 36.049 25.5981 35.4401 25.035C36.5651 24.94 37.8801 24.1425 37.8801 24.1425L37.4676 26.4575ZM35.9251 21.035C35.9251 21.035 35.1601 16.6675 34.8776 16.4675C34.7903 16.423 34.6929 16.4023 34.5951 16.4075C34.6126 16.305 34.6551 15.8725 34.6551 15.835C35.4081 14.8122 36.3856 13.9757 37.5124 13.3898C38.6392 12.8038 39.8854 12.4841 41.1551 12.455C40.7976 13.0825 40.0076 14.555 40.0076 15.3175C40.0076 16.27 40.7076 16.7775 41.2576 17.025C41.1079 17.3745 40.935 17.7136 40.7401 18.04C37.4751 18.25 35.9226 21.035 35.9226 21.035H35.9251ZM40.8976 18.215C41.111 17.8618 41.2998 17.4942 41.4626 17.115C41.5928 17.1648 41.7265 17.2049 41.8626 17.235C41.8911 17.2377 41.9196 17.2296 41.9424 17.2123C41.9653 17.1951 41.9809 17.17 41.9862 17.1418C41.9915 17.1137 41.9862 17.0846 41.9712 17.0602C41.9561 17.0359 41.9326 17.0179 41.9051 17.01C41.6075 16.9398 41.3226 16.8243 41.0601 16.6675C40.8135 16.5384 40.6069 16.3444 40.4624 16.1065C40.3179 15.8686 40.2411 15.5958 40.2401 15.3175C40.2401 14.5225 41.2401 12.775 41.4726 12.37C41.7245 11.9536 42.0267 11.5699 42.3726 11.2275C42.9126 12.16 44.9126 13.11 45.1476 13.3925C45.3826 13.675 44.8001 14.545 44.7526 14.77C44.7493 14.8739 44.7724 14.977 44.8196 15.0697C44.8668 15.1623 44.9366 15.2415 45.0226 15.3C45.0226 15.3 45.7726 15.735 45.5601 16.09C45.3251 16.5075 44.5051 16.1175 44.4801 16.1075C44.4748 16.1032 44.4682 16.1009 44.4613 16.1009C44.4545 16.1009 44.4479 16.1032 44.4426 16.1075C43.9426 16.7425 43.5176 16.9525 43.0426 17.2825C42.8527 17.7222 42.7062 18.1794 42.6051 18.6475C42.3876 18.8225 41.2776 19.0125 40.8951 18.215H40.8976ZM46.1851 20C45.362 19.0317 44.1987 18.416 42.9351 18.28C43.0176 17.9825 43.0926 17.72 43.1376 17.575C43.4426 17.5925 44.2926 17.535 45.1076 16.5025C45.6076 16.525 45.9601 16.1775 45.7426 15.7125C46.0693 15.3877 46.3306 15.0032 46.5126 14.58C48.6226 16.8025 49.0701 20.365 47.8151 23.06C47.4996 21.9341 46.9434 20.8901 46.1851 20Z" fill="#313131"/>
<path d="M37.6877 24.2978C38.1052 22.6153 38.3827 21.8303 38.3852 21.8228C38.3959 21.7998 38.4148 21.7816 38.4383 21.7717C38.4617 21.7618 38.488 21.761 38.512 21.7694C38.536 21.7779 38.556 21.7949 38.5681 21.8172C38.5802 21.8396 38.5836 21.8656 38.5777 21.8903C38.5777 21.8903 38.3002 22.6753 37.8852 24.3453C37.8762 24.3684 37.8591 24.3875 37.8371 24.399C37.8152 24.4105 37.7898 24.4136 37.7657 24.4078C37.7416 24.402 37.7204 24.3877 37.706 24.3675C37.6917 24.3472 37.6852 24.3225 37.6877 24.2978Z" fill="white"/>
<path d="M45.5001 26.1902C45.4782 26.1905 45.4567 26.1836 45.4391 26.1705C45.4215 26.1574 45.4087 26.1388 45.4026 26.1177C45.2301 25.5302 44.6526 22.5852 44.6251 22.4602C44.6226 22.4472 44.6227 22.4339 44.6253 22.4209C44.628 22.408 44.6332 22.3957 44.6406 22.3848C44.6481 22.3738 44.6576 22.3645 44.6687 22.3573C44.6798 22.3501 44.6921 22.3451 44.7051 22.3427C44.7317 22.3375 44.7591 22.3431 44.7816 22.358C44.8041 22.373 44.8197 22.3963 44.8251 22.4227C44.8251 22.4527 45.4276 25.4802 45.5976 26.0602C45.6019 26.0753 45.6025 26.0912 45.5996 26.1067C45.5967 26.1221 45.5903 26.1367 45.5809 26.1492C45.5715 26.1618 45.5593 26.172 45.5453 26.1791C45.5313 26.1862 45.5158 26.19 45.5001 26.1902Z" fill="white"/>
<path d="M36.0252 22.0225C35.8802 21.3 35.8227 20.82 35.8227 20.8125C35.8194 20.786 35.8267 20.7592 35.8431 20.7381C35.8595 20.717 35.8837 20.7033 35.9102 20.7C35.9367 20.6967 35.9635 20.704 35.9846 20.7204C36.0056 20.7369 36.0194 20.761 36.0227 20.7875C36.0227 20.7875 36.0827 21.2675 36.2227 21.9825C36.228 22.0087 36.2227 22.0359 36.2079 22.0582C36.1931 22.0805 36.1701 22.0959 36.1439 22.1012C36.1177 22.1066 36.0905 22.1012 36.0682 22.0865C36.046 22.0717 36.0305 22.0487 36.0252 22.0225Z" fill="white"/>
<path d="M16.9601 27.5749C17.8126 27.5274 26.8301 27.0399 33.0251 27.1749C33.0424 27.1749 33.0589 27.1818 33.0711 27.194C33.0833 27.2061 33.0901 27.2227 33.0901 27.2399C33.2151 39.6474 33.0526 39.0099 33.1051 39.0774C37.3551 44.3574 37.0701 43.9724 37.0776 44.0099C37.1366 44.3602 37.1667 44.7147 37.1676 45.0699C37.1676 45.0872 37.1608 45.1037 37.1486 45.1159C37.1364 45.1281 37.1199 45.1349 37.1026 45.1349C36.4951 45.1474 14.3776 45.5699 14.2601 45.0924C14.1737 44.7189 14.1226 44.338 14.1076 43.9549C14.1072 43.9462 14.1085 43.9376 14.1116 43.9294C14.1146 43.9212 14.1192 43.9138 14.1251 43.9074C14.3751 43.6199 17.2001 40.3324 18.0101 39.3424C18.0162 39.3362 18.0207 39.3287 18.0233 39.3205C18.0259 39.3122 18.0265 39.3035 18.0251 39.2949C17.9601 38.7324 16.9601 29.7949 16.8951 27.6424C16.8951 27.6249 16.9019 27.6081 16.914 27.5955C16.9261 27.583 16.9426 27.5756 16.9601 27.5749Z" fill="white"/>
<path d="M32.4826 27.7745C32.4815 27.7454 32.4696 27.7179 32.4493 27.6971C32.4289 27.6763 32.4017 27.6638 32.3727 27.662C29.5477 27.5545 17.7326 28.042 17.6226 28.047C17.6071 28.0476 17.5918 28.0513 17.5778 28.058C17.5637 28.0647 17.5512 28.0742 17.5409 28.0859C17.5306 28.0976 17.5228 28.1112 17.5179 28.126C17.5131 28.1408 17.5113 28.1565 17.5127 28.172C17.9802 33.2495 18.4651 38.2495 18.4701 38.3095C18.473 38.3361 18.485 38.3609 18.5042 38.3796C18.5233 38.3983 18.5485 38.4098 18.5752 38.412C20.7127 38.5845 30.3702 38.3145 32.5077 38.2495C32.5349 38.2485 32.5608 38.2379 32.581 38.2196C32.6011 38.2013 32.6141 38.1765 32.6177 38.1495C32.7277 37.327 32.5001 28.1645 32.4826 27.7745ZM32.4002 38.0245C31.2677 38.057 21.1102 38.357 18.6902 38.192C18.6202 37.477 18.1902 32.9145 17.7427 28.2745C18.9927 28.2245 29.4252 27.8045 32.2552 27.892C32.2802 28.9145 32.4777 36.8245 32.4002 38.022V38.0245Z" fill="#313131"/>
<path d="M37.1901 43.9997C37.1576 43.8922 37.4776 44.3422 33.2076 39.0297C33.3076 37.6072 33.2076 28.3097 33.2076 27.2497C33.208 27.2262 33.2036 27.2029 33.1949 27.181C33.1861 27.1592 33.1731 27.1394 33.1565 27.1226C33.14 27.1059 33.1203 27.0926 33.0986 27.0835C33.077 27.0744 33.0537 27.0697 33.0301 27.0697C26.8576 26.9347 17.9501 27.4147 16.9551 27.4697C16.9315 27.4707 16.9083 27.4763 16.8868 27.4863C16.8653 27.4962 16.846 27.5103 16.83 27.5277C16.814 27.5451 16.8016 27.5655 16.7934 27.5878C16.7853 27.61 16.7816 27.6336 16.7826 27.6572C16.8476 29.7997 17.8426 38.6847 17.9101 39.2972C17.0726 40.3172 14.1601 43.6972 14.0401 43.8422C14.0094 43.8774 13.9933 43.923 13.9951 43.9697C14.0106 44.3604 14.0625 44.7487 14.1501 45.1297C14.1586 45.1643 14.1772 45.1956 14.2034 45.2196C14.2297 45.2436 14.2625 45.2593 14.2976 45.2647C16.5776 45.6397 34.7851 45.3072 37.1076 45.2647C37.1543 45.2647 37.1991 45.2464 37.2323 45.2136C37.2655 45.1809 37.2845 45.1364 37.2851 45.0897C37.2846 44.7244 37.2528 44.3597 37.1901 43.9997ZM17.0126 27.6872C18.2076 27.6197 26.9026 27.1597 32.9751 27.2872C32.9751 28.5372 33.0726 37.4822 32.9751 38.9722C31.8601 39.0322 22.9551 39.1522 18.1251 39.2222C18.0276 38.2847 17.0876 29.8522 17.0126 27.6872ZM18.0776 39.4372C18.8126 39.4372 31.9026 39.2697 33.0551 39.1872C33.4126 39.6322 35.9251 42.7547 36.8501 43.8897C34.3501 43.9297 16.1851 43.8522 14.3226 43.8447C14.9251 43.1547 17.3101 40.3797 18.0776 39.4422V39.4372ZM37.0551 45.0172C35.7301 45.0422 16.8226 45.3997 14.3651 45.0172C14.2945 44.7056 14.2493 44.3887 14.2301 44.0697C15.2176 44.0697 36.5551 44.1222 36.9801 44.1122C37.0262 44.4135 37.0513 44.7175 37.0551 45.0222V45.0172Z" fill="#313131"/>
<path d="M29.9552 43.2505C29.8502 43.2155 29.8202 43.0805 29.8027 42.9555C29.7577 42.6255 29.7877 41.4055 29.9852 41.2655C30.1827 41.1255 33.4977 41.033 33.6752 41.138C33.8527 41.243 34.3227 42.723 34.3027 43.043C34.3044 43.0764 34.2966 43.1097 34.2802 43.1388C34.2639 43.168 34.2396 43.192 34.2102 43.208C34.0002 43.293 30.2177 43.333 29.9552 43.2505ZM30.0552 43.0405C30.4802 43.118 33.5552 43.0605 34.0752 43.0005C33.9776 42.4259 33.8018 41.8674 33.5527 41.3405C32.4089 41.301 31.2638 41.3394 30.1252 41.4555C30.0377 41.6405 29.9627 42.8155 30.0552 43.028V43.0405Z" fill="#313131"/>
<path d="M26.1101 31.8075C26.1041 31.7168 26.067 31.631 26.005 31.5645C25.9431 31.4981 25.8601 31.4549 25.7701 31.4425C24.8474 31.3356 23.9154 31.3356 22.9926 31.4425C22.8978 31.4534 22.8102 31.4986 22.7462 31.5694C22.6823 31.6403 22.6463 31.732 22.6451 31.8275C22.6451 32.6725 22.6951 33.675 22.7276 34.1825C22.7343 34.2784 22.7758 34.3685 22.8445 34.4358C22.9132 34.5031 23.0041 34.5428 23.1001 34.5475C23.8176 34.585 25.1651 34.5225 25.8076 34.4875C25.9074 34.4824 26.0014 34.4395 26.0706 34.3675C26.1398 34.2955 26.179 34.1999 26.1801 34.1C26.1901 33.265 26.1401 32.2975 26.1101 31.8075Z" fill="#FFB949"/>
<path d="M28.2202 31.6199C28.2202 31.4424 27.9477 31.3699 27.7877 31.5224C27.3643 31.9188 26.9838 32.3587 26.6527 32.8349C26.6098 32.8933 26.5895 32.9651 26.5955 33.0373C26.6015 33.1094 26.6333 33.1769 26.6852 33.2274C27.0827 33.5899 27.5877 34.0199 27.9527 34.2849C27.9851 34.31 28.0237 34.3258 28.0645 34.3306C28.1052 34.3353 28.1464 34.3289 28.1838 34.3119C28.2211 34.2949 28.253 34.268 28.2762 34.2342C28.2994 34.2004 28.3128 34.1609 28.3152 34.1199C28.3127 33.4599 28.2502 32.2074 28.2202 31.6199Z" fill="#FFB949"/>
<path d="M27.1727 43.2351H19.9602C19.8753 43.2278 19.7963 43.189 19.7388 43.1263C19.6812 43.0635 19.6493 42.9815 19.6493 42.8964C19.6493 42.8112 19.6812 42.7292 19.7388 42.6665C19.7963 42.6038 19.8753 42.5649 19.9602 42.5576H27.1727C27.2575 42.5649 27.3365 42.6038 27.394 42.6665C27.4516 42.7292 27.4835 42.8112 27.4835 42.8964C27.4835 42.9815 27.4516 43.0635 27.394 43.1263C27.3365 43.189 27.2575 43.2278 27.1727 43.2351Z" fill="#313131"/>
<path d="M19.5001 40.1852C19.5001 40.3252 19.3326 40.4502 19.1251 40.4502C18.9176 40.4502 18.7501 40.3377 18.7501 40.2002C18.7501 40.0627 18.9201 39.9502 19.1251 39.9502C19.3301 39.9502 19.5001 40.0477 19.5001 40.1852Z" fill="#FFB949"/>
<path d="M21.4677 40.25C21.4677 40.395 21.3002 40.5225 21.0927 40.5225C20.8852 40.5225 20.7177 40.4075 20.7177 40.2725C20.7177 40.1375 20.8852 40 21.0927 40C21.3002 40 21.4677 40.1125 21.4677 40.25Z" fill="#FFB949"/>
<path d="M23.6853 40.3326C23.6853 40.4851 23.5103 40.6201 23.2928 40.6201C23.0753 40.6201 22.9003 40.4976 22.9003 40.3451C22.9003 40.1926 23.0753 40.0576 23.2928 40.0576C23.5103 40.0576 23.6853 40.1826 23.6853 40.3326Z" fill="#FFB949"/>
<path d="M24.8451 40.3228C24.8451 40.3898 24.8846 40.454 24.9549 40.5014C25.0253 40.5487 25.1206 40.5753 25.2201 40.5753C25.3195 40.5753 25.4149 40.5487 25.4853 40.5014C25.5556 40.454 25.5951 40.3898 25.5951 40.3228C25.5951 40.2558 25.5556 40.1916 25.4853 40.1443C25.4149 40.0969 25.3195 40.0703 25.2201 40.0703C25.1206 40.0703 25.0253 40.0969 24.9549 40.1443C24.8846 40.1916 24.8451 40.2558 24.8451 40.3228Z" fill="#FFB949"/>
<path d="M26.8052 40.258C26.8052 40.327 26.8447 40.3931 26.915 40.4419C26.9853 40.4907 27.0807 40.518 27.1802 40.518C27.2796 40.518 27.375 40.4907 27.4453 40.4419C27.5157 40.3931 27.5552 40.327 27.5552 40.258C27.5552 40.1891 27.5157 40.123 27.4453 40.0742C27.375 40.0254 27.2796 39.998 27.1802 39.998C27.0807 39.998 26.9853 40.0254 26.915 40.0742C26.8447 40.123 26.8052 40.1891 26.8052 40.258Z" fill="#FFB949"/>
<path d="M28.9176 40.2701C28.9176 40.3431 28.959 40.413 29.0326 40.4646C29.1062 40.5161 29.206 40.5451 29.3101 40.5451C29.4142 40.5451 29.514 40.5161 29.5876 40.4646C29.6613 40.413 29.7026 40.3431 29.7026 40.2701C29.7026 40.1972 29.6613 40.1272 29.5876 40.0757C29.514 40.0241 29.4142 39.9951 29.3101 39.9951C29.206 39.9951 29.1062 40.0241 29.0326 40.0757C28.959 40.1272 28.9176 40.1972 28.9176 40.2701Z" fill="#FFB949"/>
<path d="M30.92 40.2574C30.92 40.3304 30.9614 40.4003 31.035 40.4519C31.1086 40.5035 31.2084 40.5324 31.3125 40.5324C31.4166 40.5324 31.5165 40.5035 31.5901 40.4519C31.6637 40.4003 31.705 40.3304 31.705 40.2574C31.705 40.1845 31.6637 40.1145 31.5901 40.063C31.5165 40.0114 31.4166 39.9824 31.3125 39.9824C31.2084 39.9824 31.1086 40.0114 31.035 40.063C30.9614 40.1145 30.92 40.1845 30.92 40.2574Z" fill="#FFB949"/>
<path d="M19.6702 41.4849C19.6702 41.5519 19.7097 41.6161 19.78 41.6635C19.8503 41.7108 19.9457 41.7374 20.0452 41.7374C20.1446 41.7374 20.24 41.7108 20.3103 41.6635C20.3807 41.6161 20.4202 41.5519 20.4202 41.4849C20.4202 41.418 20.3807 41.3537 20.3103 41.3064C20.24 41.259 20.1446 41.2324 20.0452 41.2324C19.9457 41.2324 19.8503 41.259 19.78 41.3064C19.7097 41.3537 19.6702 41.418 19.6702 41.4849Z" fill="#FFB949"/>
<path d="M21.6276 41.5549C21.6276 41.6239 21.6671 41.69 21.7374 41.7388C21.8077 41.7875 21.9031 41.8149 22.0026 41.8149C22.102 41.8149 22.1974 41.7875 22.2677 41.7388C22.3381 41.69 22.3776 41.6239 22.3776 41.5549C22.3776 41.486 22.3381 41.4198 22.2677 41.3711C22.1974 41.3223 22.102 41.2949 22.0026 41.2949C21.9031 41.2949 21.8077 41.3223 21.7374 41.3711C21.6671 41.4198 21.6276 41.486 21.6276 41.5549Z" fill="#FFB949"/>
<path d="M23.8102 41.6324C23.8102 41.7054 23.8515 41.7753 23.9251 41.8269C23.9988 41.8785 24.0986 41.9074 24.2027 41.9074C24.3068 41.9074 24.4066 41.8785 24.4802 41.8269C24.5538 41.7753 24.5952 41.7054 24.5952 41.6324C24.5952 41.5595 24.5538 41.4895 24.4802 41.438C24.4066 41.3864 24.3068 41.3574 24.2027 41.3574C24.0986 41.3574 23.9988 41.3864 23.9251 41.438C23.8515 41.4895 23.8102 41.5595 23.8102 41.6324Z" fill="#FFB949"/>
<path d="M25.7551 41.6099C25.7551 41.6769 25.7946 41.7411 25.865 41.7885C25.9353 41.8358 26.0307 41.8624 26.1301 41.8624C26.2296 41.8624 26.325 41.8358 26.3953 41.7885C26.4656 41.7411 26.5051 41.6769 26.5051 41.6099C26.5051 41.543 26.4656 41.4787 26.3953 41.4314C26.325 41.384 26.2296 41.3574 26.1301 41.3574C26.0307 41.3574 25.9353 41.384 25.865 41.4314C25.7946 41.4787 25.7551 41.543 25.7551 41.6099Z" fill="#FFB949"/>
<path d="M27.7152 41.5422C27.7152 41.6112 27.7547 41.6773 27.825 41.7261C27.8954 41.7748 27.9908 41.8022 28.0902 41.8022C28.1897 41.8022 28.285 41.7748 28.3554 41.7261C28.4257 41.6773 28.4652 41.6112 28.4652 41.5422C28.4652 41.4733 28.4257 41.4071 28.3554 41.3584C28.285 41.3096 28.1897 41.2822 28.0902 41.2822C27.9908 41.2822 27.8954 41.3096 27.825 41.3584C27.7547 41.4071 27.7152 41.4733 27.7152 41.5422Z" fill="#FFB949"/>
</svg>
