<svg width="70" height="70" viewBox="0 0 70 70" fill="none" xmlns="http://www.w3.org/2000/svg">
<rect width="70" height="70" rx="10" fill="#EEFAFF"/>
<path d="M35.9727 54.4395C36.0335 54.2248 36.5271 52.4751 36.7418 51.7669C36.8956 51.2446 37.2609 50.264 37.1103 50.1069C36.7033 49.6839 35.774 48.7706 35.1875 48.1393C35.1299 48.0784 34.944 47.9246 34.8671 48.0464C34.7902 48.1682 34.9312 48.2611 34.9921 48.3252C35.5849 48.9309 36.7418 50.0172 36.8667 50.2287C36.9565 50.3857 35.7612 54.1351 35.6971 54.3498C35.1459 54.103 34.5947 53.914 34.0948 53.6736C32.1974 52.8037 30.5562 51.4594 29.3296 49.7705C29.2309 49.651 29.1719 49.5037 29.161 49.3492C29.1501 49.1946 29.1878 49.0405 29.2687 48.9084C30.1916 47.1876 31.0825 45.4347 31.9734 43.7138C32.0663 43.4991 32.1272 43.5312 32.2938 43.6818C33.2552 44.6431 35.8573 47.758 41.6672 48.354C43.2054 48.5143 44.7724 48.4181 46.9836 47.7131C46.9227 48.1425 46.4324 53.4301 46.3427 54.1223C46.3348 54.1718 46.3132 54.2182 46.2803 54.2561C46.2475 54.2941 46.2047 54.3221 46.1568 54.337C44.6026 54.8818 40.8885 55.763 35.9727 54.4395Z" fill="#414141"/>
<path d="M32.4388 38.8591C33.2079 38.2438 33.7719 37.4299 34.5603 36.3371C34.7397 36.0872 34.7429 36.0615 34.9576 36.2153C36.1552 36.8711 37.4102 37.416 38.707 37.8433C42.2833 39.0706 44.9463 38.4489 45.4366 38.3047C45.7731 38.2054 46.7889 37.8753 46.6031 37.5677C46.5133 37.4139 46.2345 37.5677 46.0519 37.6286C42.9562 39.0033 38.9153 37.7952 35.8773 36.2762C35.8119 36.2413 35.7497 36.2005 35.6915 36.1545C36.0632 35.2315 36.9733 32.7736 37.1079 32.4339C37.1367 32.3122 37.1976 32.1872 37.0438 32.1135C36.7618 32.0206 36.8804 32.1712 35.6306 35.3181C35.4127 35.8693 35.5088 35.8436 34.9256 35.6385C31.8923 34.6924 29.1869 32.911 27.1192 30.4984C24.7286 27.6944 24.0749 23.7047 24.0172 23.3682C23.9595 23.0317 23.9563 22.8811 24.2608 22.7818C25.2388 22.4237 26.1604 21.9273 26.9975 21.3077C27.1833 21.2147 27.2122 21.3077 27.2731 21.4615C28.196 23.3682 30.6539 26.5023 32.4004 27.1176C34.1469 27.7328 38.1494 27.7905 39.5626 27.7585C41.2725 27.767 42.9604 28.1452 44.5105 28.8673C46.295 29.6784 47.858 30.9072 49.0674 32.45C49.9358 33.5491 51.192 36.1096 50.9901 38.4137C50.7786 40.9966 49.3622 43.3936 46.7184 43.9448C44.1964 44.4703 40.6618 43.823 39.0274 43.2686C35.5857 42.1021 33.0028 39.5513 32.5125 38.9969C32.4851 38.9526 32.4605 38.9066 32.4388 38.8591Z" fill="#016DAB"/>
<path d="M20.5554 39.4832C20.5525 39.7507 20.5753 40.018 20.623 40.2811C20.6746 40.2917 26.7626 39.5091 29.3119 39.395C31.8611 39.2809 35.2663 39.3854 35.3948 39.395C35.3948 39.395 31.9249 22.2765 31.8057 22.1246C28.8402 21.8545 18.7794 22.0926 18.0648 22.1775C18.0648 22.1775 18.1661 22.6752 18.1504 22.6752L17.6697 22.6982L17.794 23.4289L17.3678 23.5853C17.3678 23.5853 17.9869 33.3329 17.2104 38.8096C17.7004 38.8781 18.1974 38.8808 18.6881 38.8176C18.6881 38.8176 18.6701 39.4601 18.656 39.6078C19.2918 39.6543 19.9311 39.6123 20.5554 39.4832Z" fill="white"/>
<path d="M21.4012 21.2236C21.4178 21.1595 27.3598 20.6468 28.6031 20.875C28.6031 20.875 28.997 22.2549 28.7794 22.9128C28.7794 22.9128 23.1316 23.3274 21.4944 23.2755C21.2807 22.6121 21.2485 21.9036 21.4012 21.2236Z" fill="#87E4FF"/>
<path d="M20.6598 26.4918C20.6275 26.4908 20.5966 26.4778 20.5732 26.4554C20.5498 26.433 20.5355 26.4027 20.5331 26.3704C20.5307 26.338 20.5403 26.306 20.5601 26.2803C20.5798 26.2546 20.6084 26.2372 20.6403 26.2313C20.9973 26.1768 26.4028 25.8365 27.2097 25.7904C27.2436 25.7898 27.2765 25.8023 27.3013 25.8254C27.3262 25.8485 27.3412 25.8803 27.3432 25.9142C27.3451 25.9481 27.3339 25.9814 27.3118 26.0072C27.2897 26.033 27.2585 26.0492 27.2247 26.0525C26.438 26.097 20.6666 26.4918 20.6598 26.4918Z" fill="#414141"/>
<path d="M21.0078 29.3995C20.9906 29.3999 20.9734 29.397 20.9574 29.3908C20.9413 29.3846 20.9266 29.3753 20.9141 29.3635C20.9016 29.3516 20.8916 29.3374 20.8846 29.3217C20.8776 29.306 20.8738 29.289 20.8733 29.2718C20.8729 29.2546 20.8758 29.2374 20.882 29.2214C20.8882 29.2053 20.8975 29.1906 20.9093 29.1781C20.9212 29.1656 20.9354 29.1556 20.9511 29.1486C20.9669 29.1416 20.9838 29.1378 21.001 29.1374C21.0629 29.1342 27.1795 28.8121 27.8499 28.7563C27.8834 28.7554 27.9161 28.7674 27.9411 28.7899C27.9661 28.8123 27.9815 28.8434 27.9843 28.8769C27.987 28.9104 27.9769 28.9437 27.9559 28.9699C27.9348 28.9961 27.9046 29.0132 27.8713 29.0178C27.1974 29.0739 21.0078 29.3995 21.0078 29.3995Z" fill="#414141"/>
<path d="M22.0897 35.6005C22.0562 35.5996 22.0244 35.5859 22.0007 35.5623C21.977 35.5386 21.9634 35.5068 21.9625 35.4733C21.9614 35.4399 21.9731 35.4074 21.9952 35.3823C22.0173 35.3573 22.0481 35.3415 22.0814 35.3384C22.3611 35.3198 28.295 34.8744 28.52 34.8699C28.5547 34.8696 28.5882 34.8826 28.6136 34.9064C28.6323 34.9244 28.6453 34.9475 28.6508 34.9729C28.6564 34.9982 28.6543 35.0246 28.6448 35.0488C28.6354 35.073 28.6189 35.0938 28.5976 35.1086C28.5763 35.1234 28.5511 35.1316 28.5251 35.132C28.3501 35.1355 22.0897 35.6005 22.0897 35.6005Z" fill="#414141"/>
<path d="M30.1502 26.496C29.9605 26.496 29.3003 25.5413 29.2962 25.5314C29.2845 25.5002 29.2851 25.4657 29.2979 25.435C29.3107 25.4043 29.3346 25.3795 29.3649 25.3657C29.3953 25.352 29.4297 25.3503 29.4612 25.3609C29.4928 25.3715 29.5191 25.3938 29.5349 25.4231C29.583 25.5016 29.9765 26.0082 30.1438 26.1902C30.4538 25.6715 30.732 25.1344 30.977 24.5819C30.9818 24.5645 30.9901 24.5484 31.0014 24.5344C31.0127 24.5204 31.0268 24.5089 31.0427 24.5006C31.0587 24.4922 31.0762 24.4873 31.0941 24.486C31.1121 24.4847 31.1301 24.4871 31.1471 24.4931C31.164 24.499 31.1796 24.5084 31.1928 24.5206C31.206 24.5329 31.2166 24.5477 31.2238 24.5641C31.2311 24.5806 31.2348 24.5984 31.2349 24.6164C31.235 24.6344 31.2314 24.6522 31.2243 24.6687C31.174 24.8232 30.4062 26.496 30.1502 26.496Z" fill="#414141"/>
<path d="M30.1864 29.1602C29.9666 29.1602 29.3276 28.2069 29.3234 28.1966C29.3118 28.1654 29.3125 28.1309 29.3253 28.1001C29.3382 28.0694 29.3622 28.0446 29.3926 28.031C29.423 28.0173 29.4575 28.0156 29.489 28.0264C29.5205 28.0372 29.5468 28.0595 29.5625 28.0889C29.7545 28.3581 29.9599 28.6177 30.1778 28.8664C30.4836 28.3427 30.7599 27.8024 31.0055 27.248C31.0178 27.2164 31.0419 27.1907 31.0728 27.1764C31.1036 27.1621 31.1388 27.1604 31.1709 27.1716C31.203 27.1828 31.2295 27.206 31.2448 27.2363C31.2601 27.2667 31.263 27.3018 31.2529 27.3343C31.2084 27.4676 30.4364 29.1602 30.1864 29.1602Z" fill="#414141"/>
<path d="M31.9569 22.0962C31.8832 21.7966 28.9632 21.893 28.9632 21.893C28.952 21.5048 28.8745 21.1213 28.734 20.7592C28.7063 20.7289 28.6677 20.7107 28.6267 20.7086C28.1597 20.7048 27.6926 20.7066 27.2256 20.714C27.1555 20.4699 26.5873 18.707 24.8716 18.8487C23.2093 18.9768 22.9216 20.5769 22.8809 20.8948C21.9628 20.9653 21.3315 21.0496 21.2981 21.138C21.2162 21.3809 21.175 21.6357 21.176 21.892C20.7123 21.9289 19.0706 21.9911 18.0176 22.0254C17.9965 22.0265 17.976 22.0327 17.9577 22.0433C17.9394 22.054 17.9239 22.0688 17.9126 22.0866C17.9012 22.1044 17.8942 22.1247 17.8921 22.1458C17.8901 22.1668 17.8932 22.188 17.901 22.2077C17.9122 22.2365 17.9423 22.3529 17.9868 22.5419L17.6808 22.5483C17.6619 22.5485 17.6433 22.5527 17.6262 22.5607C17.6091 22.5687 17.5939 22.5803 17.5817 22.5948C17.5695 22.6092 17.5606 22.6261 17.5556 22.6443C17.5506 22.6625 17.5496 22.6816 17.5526 22.7002C17.5549 22.7134 17.5895 22.9326 17.6449 23.3222C17.5638 23.3466 17.4206 23.3883 17.3398 23.4088C17.2056 23.4424 17.2056 23.4424 17.2831 24.8845C17.9186 36.668 16.8726 38.5837 17.1328 38.8696C17.2802 39.0298 18.3185 38.9868 18.5544 38.9788C18.5467 39.1711 18.539 39.3634 18.5297 39.5576C18.5292 39.5815 18.5336 39.6052 18.5428 39.6273C18.552 39.6493 18.5656 39.6693 18.5829 39.6858C18.8146 39.8303 19.9814 39.7271 20.4326 39.6745C20.4816 40.2946 20.4681 40.3129 20.5287 40.3626C20.7908 40.5779 27.4307 39.3329 35.3954 39.531C35.4163 39.5322 35.4373 39.5283 35.4564 39.5196C35.4755 39.5109 35.4922 39.4976 35.505 39.481C35.6469 39.3044 31.9649 22.1285 31.9569 22.0962ZM24.8917 19.1102C26.3197 18.997 26.8404 20.3561 26.9536 20.7182C25.6506 20.7419 24.2358 20.799 23.1468 20.8752C23.2004 20.5041 23.4862 19.2191 24.8917 19.1102ZM21.5215 21.2944C23.8557 21.0556 26.2015 20.9473 28.5478 20.9701C28.6965 21.5693 28.752 22.1881 28.7122 22.8044C28.0623 22.8867 23.8477 23.163 21.5913 23.1367C21.4208 22.5371 21.3968 21.9052 21.5215 21.2944ZM17.3661 38.693C18.1673 32.3825 17.4815 24.599 17.4914 23.6401C17.5555 23.6225 17.6263 23.602 17.6837 23.585C18.0042 25.8923 18.7873 32.3569 18.5666 38.7161C18.1663 38.7372 17.7654 38.7295 17.3661 38.693ZM18.7963 39.4983C19.1597 31.9355 18.0147 23.9862 17.8349 22.8076L18.0465 22.8044C19.1884 28.2844 19.9787 33.8318 20.4124 39.4127C19.8772 39.4887 19.3366 39.5172 18.7963 39.4983ZM20.7332 40.1341C20.0112 30.5543 18.4989 23.4915 18.1923 22.2817C18.7909 22.2619 20.5922 22.1994 21.1786 22.1535C21.1812 22.5548 21.2536 22.9521 21.392 23.3287C21.4065 23.3479 21.4246 23.3639 21.4455 23.3759C21.4663 23.3878 21.4893 23.3954 21.5132 23.3982C22.0749 23.428 25.2782 23.3021 26.0941 23.2553C28.9391 23.095 28.9436 23.0608 28.9609 22.9316C28.9897 22.6736 28.9965 22.4134 28.9808 22.1542C28.9808 22.1542 31.5489 22.0539 31.7156 22.2164C31.9255 23.1816 34.9932 37.6691 35.2563 39.2612C28.2315 38.9308 21.7615 40.0585 20.7328 40.1341H20.7332Z" fill="#414141"/>
<path d="M21.4144 32.202C21.3814 32.202 21.3497 32.1895 21.3255 32.167C21.3014 32.1446 21.2866 32.1138 21.2843 32.0809C21.2819 32.0481 21.2919 32.0155 21.3123 31.9897C21.3327 31.9639 21.362 31.9467 21.3945 31.9415C21.7518 31.887 27.1573 31.5463 27.9655 31.5002C27.9994 31.4996 28.0323 31.5122 28.0572 31.5353C28.0821 31.5583 28.097 31.5901 28.099 31.624C28.1009 31.6579 28.0897 31.6912 28.0676 31.717C28.0455 31.7428 28.0143 31.759 27.9806 31.7623C27.1926 31.8072 21.4208 32.202 21.4144 32.202Z" fill="#414141"/>
<path d="M47.4071 44.2075C47.375 44.4511 47.0674 46.7263 46.9456 47.5884C46.9456 47.6781 46.8527 47.8031 46.7597 47.8031C45.8429 48.1399 44.8776 48.326 43.9013 48.3543C43.9333 47.9857 43.9942 46.7872 44.0262 46.5116C44.0262 46.3578 44.0551 46.1912 43.8724 46.1912C43.6898 46.1912 43.6866 46.345 43.6577 46.4668C43.5936 46.9282 43.5039 48.1876 43.4718 48.4055L41.1966 48.3126C41.2895 47.6044 41.3825 46.9603 41.4754 46.3129C41.4754 46.2841 41.5363 45.9925 41.3504 45.9444C41.1646 45.8963 41.1357 46.0694 41.1357 46.1591C41.0011 46.768 40.8537 47.9152 40.8153 48.2197C39.0642 47.9521 37.3708 47.3909 35.8065 46.5597C35.9603 46.0053 36.2968 44.8388 36.2968 44.8068C36.3289 44.685 36.3289 44.5312 36.2071 44.4863C36.0853 44.4415 35.9924 44.5793 35.9603 44.7042C35.8418 45.1657 35.6815 45.624 35.5598 46.0854C35.524 46.1767 35.4929 46.2697 35.4668 46.3642C35.345 46.3001 35.2233 46.2104 35.0983 46.1463C34.7009 45.9028 34.3292 45.624 33.9607 45.3484C33.8389 45.2554 33.7748 45.1625 33.8389 45.0119C33.9895 44.6402 34.3292 43.7301 34.3292 43.6563C34.3292 43.5826 34.3933 43.4416 34.2683 43.3808C34.2074 43.3519 34.0856 43.3808 34.0248 43.5346C33.8389 43.996 33.653 44.4254 33.4704 44.919C33.4095 44.9798 33.1179 44.5985 32.2398 43.7204C32.1768 43.6694 32.1355 43.5964 32.1242 43.5161C32.1129 43.4358 32.1325 43.3543 32.1789 43.2878C32.6212 42.3745 33.0089 41.4772 33.4095 40.5543C37.5081 43.8358 42.1804 45.0055 47.4071 44.2075Z" fill="#016DAB"/>
<path d="M43.4407 17.8948C43.4407 17.8948 42.4793 20.4168 42.2742 20.9391C41.9121 21.8012 39.4478 25.2429 42.6427 27.0567C42.6427 27.0567 42.0018 28.4699 41.6589 28.7455C41.6589 28.7455 42.1813 30.9887 44.793 30.2837C44.793 30.2837 44.918 28.2552 45.5621 27.7617C46.3449 27.6787 47.0955 27.4059 47.7489 26.9669C48.4023 26.528 48.9387 25.9362 49.3114 25.2429C49.3114 25.2429 50.51 25.919 51.1252 24.7494C51.1252 24.7494 51.4457 23.5508 49.3435 23.0285C49.3435 23.0285 49.4973 21.4935 49.0038 20.8173C48.5103 20.1412 46.4401 19.7086 46.0556 18.3883C46.0844 18.3498 44.5174 18.6959 43.4407 17.8948Z" fill="white"/>
<path d="M46.6078 24.6068C46.6847 24.6341 46.7651 24.6496 46.8442 24.6525C46.9232 24.6554 46.9995 24.6456 47.0684 24.6237C47.1373 24.6018 47.1975 24.5682 47.2456 24.5249C47.2937 24.4816 47.3286 24.4295 47.3483 24.3715C47.368 24.3136 47.3722 24.2509 47.3605 24.1873C47.3489 24.1237 47.3216 24.0604 47.2804 24.0009C47.2391 23.9415 47.1847 23.8873 47.1203 23.8413C47.0559 23.7954 46.9828 23.7586 46.9052 23.7333C46.8282 23.706 46.7479 23.6905 46.6688 23.6876C46.5897 23.6847 46.5135 23.6945 46.4446 23.7164C46.3757 23.7383 46.3154 23.7719 46.2674 23.8152C46.2193 23.8585 46.1844 23.9106 46.1647 23.9686C46.145 24.0265 46.1408 24.0892 46.1525 24.1528C46.1641 24.2164 46.1914 24.2798 46.2326 24.3392C46.2738 24.3986 46.3283 24.4528 46.3927 24.4988C46.4571 24.5447 46.5302 24.5815 46.6078 24.6068Z" fill="#FDAF31"/>
<path d="M42.0135 22.7456C42.14 22.7755 42.2711 22.7631 42.3779 22.7111C42.4846 22.6592 42.5583 22.5719 42.5828 22.4685C42.6072 22.3651 42.5804 22.2541 42.5082 22.1598C42.436 22.0656 42.3243 21.9958 42.1977 21.9659C42.1351 21.9511 42.0706 21.9465 42.0081 21.9525C41.9456 21.9584 41.8862 21.9747 41.8333 22.0004C41.7266 22.0523 41.6529 22.1396 41.6284 22.243C41.604 22.3464 41.6308 22.4574 41.7031 22.5517C41.7753 22.6459 41.8869 22.7157 42.0135 22.7456Z" fill="#FDAF31"/>
<path d="M49.9591 15.6516C48.3562 14.8402 46.5462 14.5298 44.7645 14.7607C43.6878 14.9466 42.2233 15.8343 42.3675 17.036C42.3976 17.2885 42.4852 17.5307 42.6235 17.744C42.7618 17.9573 42.9472 18.1361 43.1654 18.2666C42.845 19.0036 42.6046 19.7663 42.2746 20.4777C41.8323 21.4391 41.3132 22.3203 41.044 23.3362C40.7748 24.352 40.8357 25.3903 41.5375 26.2556C41.823 26.5657 42.1315 26.8539 42.4604 27.1176C42.3675 27.3002 41.8644 28.1238 41.5375 28.5917C41.5056 28.6404 41.4838 28.6949 41.4734 28.7522C41.4629 28.8094 41.464 28.8682 41.4766 28.925C41.9445 30.2549 43.5051 30.9214 44.8575 30.492C44.9101 30.467 44.9549 30.4281 44.9871 30.3796C45.0193 30.331 45.0376 30.2746 45.0401 30.2164C45.0157 29.9074 45.0362 29.5966 45.101 29.2935C46.9205 30.3004 48.4865 31.7087 49.6803 33.4114C49.7124 33.3793 51.0359 32.059 51.0359 28.832C51.0186 27.6975 50.905 26.5665 50.6962 25.4512C50.8472 25.3781 50.9787 25.2703 51.08 25.1366C51.1814 25.0029 51.2497 24.8472 51.2794 24.6821C51.3173 24.4099 51.2749 24.1327 51.1576 23.8842C51.5262 23.2689 52.5004 22.3492 52.6318 20.9648C52.8561 18.6062 52.1094 16.8501 49.9591 15.6516ZM50.2059 25.182C49.9695 25.2108 49.7304 25.1564 49.5297 25.0282C49.1292 24.8744 49.0971 25.15 48.8215 25.5794C48.6068 25.9191 47.4692 27.1817 46.0848 27.4252C45.8572 27.4452 45.6376 27.5188 45.4439 27.6399C45.2901 27.7617 44.7197 28.7135 44.7068 30.1299C44.7068 30.1908 44.521 30.1908 44.4921 30.2228C43.9926 30.3202 43.4751 30.2562 43.0142 30.0402C42.5534 29.8242 42.1732 29.4673 41.9285 29.0211C41.8951 28.9639 41.8802 28.8977 41.886 28.8317C41.8917 28.7658 41.9177 28.7032 41.9605 28.6526C42.281 28.2232 42.5438 27.7617 42.8226 27.3323C43.1941 27.4396 43.575 27.5115 43.9602 27.547C44.0499 27.547 44.2646 27.547 44.2806 27.4541C44.3415 27.2105 43.8801 27.2105 43.7583 27.1785C43.3427 27.1335 42.9421 26.9971 42.5855 26.7789C42.2289 26.5607 41.9251 26.2662 41.6959 25.9166C41.4667 25.567 41.3178 25.1709 41.26 24.7569C41.2021 24.3428 41.2367 23.9211 41.3613 23.5221C41.608 22.5607 42.1015 21.7083 42.4989 20.8462C42.8777 20.0719 43.199 19.2707 43.4603 18.4492C43.6832 18.5651 43.9218 18.6482 44.1685 18.696C44.6267 18.7985 45.7708 18.696 45.8284 18.7889C46.104 19.0645 46.4117 19.8336 48.2543 20.6924C49.0554 21.1218 48.9914 22.6152 48.9914 22.7818C48.982 22.888 49.0085 22.9943 49.0665 23.0838C49.1246 23.1732 49.211 23.2406 49.3118 23.2753C49.5586 23.3971 50.3885 23.3971 50.6962 23.9515C51.0583 24.5059 50.8212 25.0987 50.2059 25.182Z" fill="#414141"/>
<path d="M44.1814 23.1567C43.0437 22.7561 43.0726 22.6023 43.1046 22.4805C43.1046 22.4165 43.1046 22.2787 44.9793 20.388C45.012 20.3552 45.0564 20.3369 45.1027 20.3369C45.1489 20.3369 45.1933 20.3552 45.226 20.388C45.2588 20.4207 45.2771 20.4651 45.2771 20.5113C45.2771 20.5576 45.2588 20.602 45.226 20.6347C44.5114 21.3654 43.7487 22.1729 43.5052 22.4805C43.7517 22.603 44.0078 22.7048 44.2711 22.785C44.3194 22.8025 44.3592 22.8377 44.3825 22.8836C44.4057 22.9294 44.4106 22.9824 44.3961 23.0317C44.384 23.0767 44.3547 23.1151 44.3145 23.1385C44.2742 23.1619 44.2264 23.1684 44.1814 23.1567Z" fill="#414141"/>
<path d="M47.8979 21.7693C47.8544 21.7686 47.8125 21.7529 47.7792 21.7249C47.746 21.6969 47.7234 21.6582 47.7153 21.6155C47.6825 21.4899 47.6168 21.3752 47.525 21.2834C47.4332 21.1916 47.3186 21.1259 47.1929 21.0931C47.148 21.0811 47.1096 21.0518 47.0862 21.0115C47.0628 20.9713 47.0562 20.9235 47.068 20.8784C47.0807 20.8339 47.1102 20.7961 47.1502 20.7728C47.1902 20.7495 47.2377 20.7426 47.2827 20.7534C47.4765 20.8108 47.6523 20.9173 47.7927 21.0628C47.9331 21.2083 48.0334 21.3876 48.0838 21.5834C48.0815 21.632 48.0611 21.6779 48.0268 21.7123C47.9924 21.7466 47.9465 21.767 47.8979 21.7693Z" fill="#414141"/>
<path d="M44.4891 19.5549C44.3914 19.4756 44.2749 19.4227 44.1509 19.4014C44.0269 19.3801 43.8995 19.391 43.7809 19.4332C43.7558 19.4449 43.7286 19.4512 43.701 19.4517C43.6733 19.4522 43.6459 19.4468 43.6205 19.4358C43.5951 19.4249 43.5723 19.4087 43.5536 19.3884C43.5349 19.368 43.5207 19.3439 43.5121 19.3176C43.5034 19.2913 43.5004 19.2635 43.5032 19.236C43.5061 19.2085 43.5148 19.1819 43.5287 19.158C43.5426 19.1341 43.5614 19.1134 43.5839 19.0973C43.6063 19.0812 43.632 19.0701 43.6591 19.0646C43.8394 19.0057 44.0314 18.9916 44.2184 19.0234C44.4054 19.0552 44.5819 19.1321 44.7326 19.2473C44.7935 19.3114 44.8256 19.4332 44.7647 19.494C44.6493 19.6479 44.5179 19.587 44.4891 19.5549Z" fill="#414141"/>
<path d="M46.4865 22.7785C46.5375 22.8038 46.5941 22.8164 46.6529 22.8156C46.7116 22.8149 46.7715 22.8008 46.8289 22.7742C46.8864 22.7476 46.9402 22.709 46.9874 22.6606C47.0346 22.6123 47.0741 22.5551 47.1037 22.4925C47.1333 22.4299 47.1523 22.3631 47.1598 22.296C47.1672 22.2288 47.1628 22.1627 47.1469 22.1014C47.131 22.0402 47.1039 21.985 47.0672 21.9391C47.0304 21.8932 46.9848 21.8575 46.9329 21.8341C46.8819 21.8089 46.8253 21.7962 46.7665 21.797C46.7077 21.7977 46.6479 21.8118 46.5905 21.8384C46.533 21.865 46.4792 21.9036 46.432 21.952C46.3848 22.0003 46.3453 22.0575 46.3157 22.1201C46.2861 22.1827 46.267 22.2495 46.2596 22.3166C46.2522 22.3838 46.2566 22.4499 46.2724 22.5112C46.2883 22.5725 46.3154 22.6276 46.3522 22.6735C46.3889 22.7194 46.4346 22.7551 46.4865 22.7785Z" fill="#414141"/>
<path d="M43.1833 21.2542C43.2268 21.2848 43.2776 21.3036 43.3328 21.3097C43.3881 21.3157 43.4466 21.3088 43.5049 21.2894C43.5633 21.27 43.6204 21.2385 43.6728 21.1967C43.7252 21.1549 43.7719 21.1036 43.8101 21.0459C43.8484 20.9882 43.8774 20.9252 43.8955 20.8607C43.9136 20.7961 43.9204 20.7313 43.9156 20.6699C43.9107 20.6086 43.8943 20.552 43.8672 20.5035C43.8401 20.455 43.803 20.4155 43.7579 20.3874C43.7145 20.3568 43.6637 20.338 43.6084 20.332C43.5532 20.3259 43.4947 20.3328 43.4363 20.3522C43.3779 20.3716 43.3209 20.4031 43.2685 20.445C43.2161 20.4868 43.1694 20.538 43.1311 20.5957C43.0929 20.6534 43.0639 20.7164 43.0458 20.781C43.0276 20.8455 43.0208 20.9104 43.0257 20.9717C43.0306 21.033 43.047 21.0896 43.0741 21.1381C43.1011 21.1866 43.1383 21.2261 43.1833 21.2542Z" fill="#414141"/>
<path d="M43.7796 24.2879C43.6059 24.2195 43.4481 24.1162 43.3159 23.9845C43.1836 23.8528 43.0797 23.6954 43.0105 23.522C43.0004 23.4997 42.9948 23.4756 42.994 23.4512C42.9932 23.4267 42.9972 23.4023 43.0059 23.3794C43.0145 23.3565 43.0276 23.3355 43.0443 23.3176C43.061 23.2998 43.0811 23.2854 43.1034 23.2753C43.1257 23.2652 43.1498 23.2596 43.1743 23.2588C43.1988 23.258 43.2231 23.262 43.2461 23.2706C43.269 23.2793 43.29 23.2923 43.3078 23.3091C43.3257 23.3258 43.3401 23.3459 43.3502 23.3682C43.4748 23.614 43.681 23.8088 43.9334 23.9194C44.1156 23.9801 44.3087 24.0007 44.4995 23.9796C44.6904 23.9586 44.8744 23.8965 45.039 23.7976C45.0842 23.7787 45.1349 23.7779 45.1808 23.7951C45.2267 23.8124 45.2642 23.8465 45.2857 23.8905C45.3045 23.9353 45.3053 23.9856 45.288 24.0309C45.2707 24.0762 45.2366 24.1132 45.1928 24.1341C44.9804 24.2554 44.7453 24.3316 44.5022 24.3581C44.2591 24.3845 44.0131 24.3606 43.7796 24.2879Z" fill="#414141"/>
<path d="M50.2948 24.4129C50.1873 24.3913 50.0763 24.394 49.9699 24.4206C49.8635 24.4472 49.7643 24.4971 49.6795 24.5667C49.6187 24.5955 49.5289 24.5955 49.4969 24.5347C49.4648 24.4738 49.4648 24.3808 49.5289 24.352C49.6464 24.2655 49.7805 24.2043 49.9228 24.1723C50.0651 24.1403 50.2125 24.1382 50.3557 24.1661C50.3749 24.1656 50.3939 24.1695 50.4113 24.1775C50.4287 24.1855 50.444 24.1974 50.4561 24.2123C50.4682 24.2271 50.4767 24.2446 50.4809 24.2632C50.4852 24.2819 50.4851 24.3013 50.4807 24.3199C50.4486 24.4129 50.2948 24.4129 50.2948 24.4129Z" fill="#414141"/>
<path d="M25.3991 19.8336C25.3991 19.8336 25.1556 19.1189 26.5976 19.1927C27.8282 19.2503 28.0397 19.4106 28.0749 19.5612C28.1102 19.7118 27.9211 19.8079 27.6455 19.8816C27.6455 19.8816 27.966 19.9746 27.966 20.2213C27.966 20.4681 27.4116 20.5898 27.4116 20.5898C27.4116 20.5898 27.732 20.7757 27.6904 20.9904C27.6487 21.2051 26.9213 21.3109 26.9213 21.3109C26.9779 21.4085 27.0098 21.5185 27.0142 21.6313C26.9822 21.8172 26.338 22.0607 25.7516 22.0607C25.1652 22.0607 24.4922 22.0607 24.6172 21.7852C24.6525 21.6984 24.7064 21.6205 24.775 21.5568C24.8437 21.4932 24.9254 21.4453 25.0146 21.4166C25.0146 21.4166 24.6172 21.4166 24.6172 21.0769C24.6172 20.7373 25.2581 20.6475 25.2581 20.6475C25.2581 20.6475 24.8896 20.5258 24.9376 20.2181C24.9857 19.9105 25.3991 19.8336 25.3991 19.8336Z" fill="white"/>
<path d="M33.2071 35.6322C33.1719 35.7829 33.4218 36.1225 33.4218 36.1225C33.4218 36.1225 32.8674 36.0617 32.7809 36.3084C32.6944 36.5552 33.2424 36.9205 33.2424 36.9205C33.2424 36.9205 32.4444 36.7987 32.3835 37.0743C32.3227 37.3499 33.2135 37.9972 33.2135 37.9972C33.2135 37.9972 32.2906 37.8754 32.2297 38.2119C32.1688 38.5484 33.7647 39.1028 33.8897 39.1348C34.0147 39.1669 35.0241 39.6572 35.21 39.3816C35.3318 39.1957 34.9953 38.9201 34.9953 38.9201C34.9953 38.9201 35.5465 39.1957 35.7932 38.9201C36.04 38.6445 35.5176 38.119 35.5176 38.119C35.5176 38.119 35.9791 38.3369 36.072 38.0581C36.1649 37.7793 35.7323 37.2602 35.7323 37.2602C35.7323 37.2602 36.1938 37.414 36.2258 37.1672C36.2579 36.9205 35.7419 36.2251 34.944 35.8854C34.3191 35.6162 33.2616 35.3823 33.2071 35.6322Z" fill="white"/>
<path d="M28.0133 19.3403C27.5005 19.1159 26.9403 19.0212 26.3822 19.0647C25.706 19.0967 25.3375 19.2185 25.2446 19.4941C25.2222 19.5479 25.2107 19.6056 25.2107 19.6639C25.2107 19.7222 25.2222 19.7799 25.2446 19.8338C24.8696 19.9395 24.6613 20.2471 24.876 20.5708C24.437 20.7919 24.2992 21.0611 24.6004 21.4617C24.4787 21.5835 24.3537 21.7373 24.4466 21.9231C24.5396 22.109 24.9081 22.1987 25.3087 22.1987C25.7522 22.184 26.1938 22.1325 26.6289 22.0449C26.9045 21.984 27.2122 21.8622 27.2442 21.6155C27.2417 21.5491 27.2206 21.4847 27.1833 21.4296C27.6736 21.3399 27.8851 21.2149 27.9204 21.0323C27.9556 20.8496 27.8595 20.7855 27.7345 20.6926C28.055 20.5708 28.1671 20.4458 28.1671 20.2952C28.1671 20.1446 28.0422 20.0485 27.9204 19.9555C28.2408 19.8626 28.2408 19.7408 28.2408 19.6799C28.238 19.6078 28.2152 19.5379 28.175 19.478C28.1349 19.418 28.0789 19.3704 28.0133 19.3403ZM25.5234 19.619C25.5234 19.587 25.6451 19.4075 26.3822 19.3723C26.9045 19.3467 27.7954 19.4332 27.7954 19.587C27.7954 19.7408 27.4749 19.6799 27.3051 19.7088C26.7202 19.6757 26.1334 19.6961 25.5522 19.7697C25.5234 19.7088 25.4913 19.6479 25.5234 19.6319V19.619ZM26.4431 21.7693C25.8022 21.936 24.876 21.952 24.7222 21.7693C24.6934 21.7373 24.7543 21.6764 24.9081 21.6155C25.459 21.4732 26.0312 21.4319 26.5969 21.4937C26.6898 21.4937 26.8757 21.5546 26.8757 21.6155C26.7392 21.6863 26.5936 21.738 26.4431 21.7693ZM26.6289 21.1284C26.0319 21.1325 25.4361 21.1839 24.8472 21.2822C24.7771 21.2191 24.7326 21.1324 24.7222 21.0387C24.7222 21.0066 24.7863 20.8849 25.1228 20.7599C25.815 20.6587 26.5175 20.649 27.2122 20.731C27.3371 20.7599 27.5326 20.8528 27.5326 20.9137C27.5519 21.122 26.6289 21.122 26.6289 21.122V21.1284ZM27.2699 20.4522C26.5748 20.3905 25.8756 20.3905 25.1805 20.4522C25.15 20.4267 25.1279 20.3925 25.117 20.3542C25.1062 20.316 25.1071 20.2753 25.1196 20.2375C25.1196 20.2087 25.1805 20.1222 25.5202 20.0837C26.1119 20.0212 26.7073 20.0009 27.3019 20.0228C27.5775 20.0228 27.7922 20.1478 27.7922 20.2375C27.7666 20.3849 27.4269 20.4779 27.2731 20.4458L27.2699 20.4522Z" fill="#414141"/>
<path d="M36.2491 36.8308C35.6171 36.0541 34.7197 35.5391 33.7303 35.3855C33.3906 35.3247 33.0541 35.3247 32.99 35.5394C32.9291 35.6611 33.0221 35.815 33.2079 36.0008C32.567 36.0008 32.3395 36.3213 32.8073 36.7988C32.6484 36.7937 32.4905 36.8255 32.3459 36.8917C32.3026 36.9178 32.2661 36.9537 32.2394 36.9966C32.2126 37.0395 32.1964 37.0881 32.1921 37.1384C32.16 37.382 32.4677 37.6608 32.8073 37.9043C32.4068 37.9043 32.0703 37.9973 32.0094 38.244C31.9485 38.4908 32.285 38.6446 33.6982 39.2567C33.9386 39.3368 34.5955 39.6893 35.0185 39.6893C35.2396 39.6893 35.4575 39.5227 35.3902 39.3208C35.4857 39.3309 35.5821 39.3194 35.6725 39.2872C35.7629 39.2551 35.845 39.203 35.9126 39.1349C35.9803 39.0438 36.0217 38.9359 36.0324 38.8229C36.0432 38.71 36.0228 38.5962 35.9735 38.494C36.11 38.4131 36.2211 38.2954 36.2939 38.1543C36.3303 37.951 36.2854 37.7416 36.1689 37.5711C36.2619 37.5102 36.3548 37.4781 36.4157 37.3564C36.4255 37.1668 36.3663 36.9801 36.2491 36.8308ZM36.0023 37.0455C36.0952 37.1673 35.9735 37.2602 35.8196 37.1673C35.1809 36.7412 34.5127 36.361 33.82 36.0297C32.1921 35.3343 35.0345 35.4657 35.9959 37.0455H36.0023ZM33.82 38.949C33.2976 38.7055 32.3491 38.3978 32.3779 38.2729C32.4068 38.1479 32.9323 38.1447 33.3906 38.244C34.0699 38.3882 35.1435 39.2278 35.0826 39.4105C35.0217 39.5932 34.0379 39.074 33.82 38.949ZM35.6658 38.9202C35.5729 39.042 35.2973 38.949 35.1723 38.9202C34.6513 38.5645 34.1075 38.2433 33.5444 37.9588C32.99 37.7121 32.3459 37.3179 32.4997 37.1577C32.7465 36.9109 34.7749 37.5871 35.5729 38.51C35.6262 38.5622 35.664 38.6282 35.6821 38.7006C35.7002 38.773 35.6979 38.849 35.6754 38.9202H35.6658ZM35.9414 38.0582C35.9126 38.1511 35.7267 38.212 35.5408 38.0582C34.8777 37.6209 34.1909 37.2208 33.4835 36.8597C33.1791 36.7315 32.9003 36.6161 32.9003 36.4302C32.9003 36.2444 34.2814 36.1835 35.7267 37.5358C35.8485 37.6288 35.9959 37.8979 35.9414 38.0582Z" fill="#414141"/>
</svg>
