<svg width="70" height="70" viewBox="0 0 70 70" fill="none" xmlns="http://www.w3.org/2000/svg">
<rect width="70" height="70" rx="10" fill="#EEFAFF"/>
<path d="M38.3955 16.3577C38.3735 16.2327 37.9733 13.7442 37.8755 13.7442C37.724 13.7595 28.6488 14.688 28.6875 14.8042C28.7783 15.6017 29.0068 17.234 29.0343 17.3447C39.127 16.3685 38.4175 16.482 38.3955 16.3577Z" fill="#FDAF31"/>
<path d="M35.0084 14.0441C34.9599 14.0441 32.1192 14.3564 32.0612 14.3709C31.3067 11.5921 31.9299 11.4231 33.3682 11.3304C34.2519 11.2734 34.4752 11.4649 34.6682 12.1439C34.8427 12.7648 34.9567 13.4012 35.0084 14.0441Z" fill="white"/>
<path d="M52.9643 54.6628C52.7968 54.7417 22.7323 57.6165 22.7068 57.6165L18.3528 18.3713C18.6368 18.3713 39.218 16.3613 48.5703 15.4713C48.617 15.75 52.911 54.3827 52.9643 54.6628Z" fill="white"/>
<path d="M47.9193 33.1444C47.7396 31.9054 47.7081 31.7384 47.6036 31.7732C47.3481 31.9009 23.4536 34.2732 23.6071 34.5802C23.7928 35.8612 23.8266 35.9117 23.9203 35.8802C24.0801 35.8002 47.9938 33.3309 47.9193 33.1444ZM23.9736 35.7002C23.9003 35.3267 23.8893 35.0452 23.8293 34.6717L47.5636 31.9597C47.6303 32.3129 47.6903 32.6664 47.7436 33.0264C24.0003 35.7037 23.9988 35.6972 23.9736 35.7002Z" fill="#87E4FF"/>
<path d="M27.4938 22.3851C43.4025 20.6214 46.076 20.3389 46.4653 20.2324C46.5713 20.2034 46.2943 18.8299 46.1903 18.8646C45.931 18.9944 22.0335 21.3516 22.1935 21.6719C22.3885 23.0136 22.3863 22.9654 22.5603 22.9654C22.5848 22.9654 26.2458 22.5236 27.4938 22.3851Z" fill="#87E4FF"/>
<path d="M48.3604 35.4157C48.1804 34.1764 48.1546 34.0252 48.0501 34.0599C47.7946 34.1877 23.8891 36.4989 24.0421 36.8049C24.2281 38.0857 24.2731 38.1984 24.3671 38.1672C24.5271 38.0872 48.4351 35.6024 48.3604 35.4157ZM24.4204 37.9872C24.3494 37.6149 24.2849 37.2414 24.2269 36.8669L48.0101 34.2467C48.0769 34.5999 48.1369 34.9534 48.1901 35.3134C24.4464 37.9904 24.4454 37.9839 24.4201 37.9872H24.4204Z" fill="#87E4FF"/>
<path d="M48.8103 37.7606C48.6305 36.5216 48.608 36.4324 48.5038 36.4671C48.246 36.5959 24.3328 38.8921 24.4893 39.2054C24.6843 40.5474 24.6998 40.5676 24.8738 40.5676C24.958 40.5676 25.4565 40.4769 48.777 37.8606C48.8023 37.8606 48.8168 37.7921 48.8103 37.7606ZM24.867 40.4001C24.7938 40.0266 24.7338 39.6531 24.6738 39.2799L48.457 36.6596C48.5238 37.0129 48.5838 37.3664 48.637 37.7264C48.3773 37.7184 25.1415 40.3591 24.867 40.4001Z" fill="#87E4FF"/>
<path d="M31.7752 13.4773C31.8277 13.784 31.8952 14.084 31.9752 14.384C32.0037 14.378 32.0327 14.3758 32.0617 14.3773C32.2692 14.3773 31.9937 14.3545 31.8485 12.7905C31.7985 12.2433 31.8017 11.8055 32.3285 11.5905C32.8148 11.447 33.3222 11.3884 33.8285 11.4173C34.411 11.4753 34.5067 11.8673 34.6487 12.4308C35.013 13.8768 34.8347 14.1015 35.0115 14.0808C35.0324 14.0782 35.0515 14.0675 35.0647 14.051C35.0779 14.0345 35.0841 14.0135 35.082 13.9925C35.0296 13.4963 34.9472 13.0037 34.8352 12.5175C34.704 11.9523 34.6005 11.4508 34.0485 11.2975C33.5031 11.2219 32.9482 11.2535 32.415 11.3908C31.458 11.673 31.6067 12.4915 31.7752 13.4773Z" fill="#414141"/>
<path d="M33.2348 12.025C32.9891 12.025 32.8598 12.525 33.1883 12.5718C33.6018 12.6275 33.5753 12.025 33.2348 12.025Z" fill="#414141"/>
<path d="M48.6369 15.4641C48.6152 15.3561 48.6282 15.3891 40.5619 16.1711C18.2142 18.3346 18.2402 18.1836 18.2159 18.4018C18.2159 18.5843 22.2334 55.0251 22.6369 57.5953C22.643 57.6338 22.6635 57.6686 22.6943 57.6924C22.7251 57.7163 22.7639 57.7274 22.8027 57.7236C49.6617 55.1321 52.5179 54.8781 52.8449 54.7956C52.8714 54.7891 52.9924 54.7183 52.9907 54.6263C52.9717 53.6501 52.2684 47.7841 48.6369 15.4641ZM52.8502 54.6363C22.7807 57.5376 22.8049 57.5301 22.7799 57.5366L18.3927 18.4646L48.4969 15.5576C52.3129 49.5313 52.8607 54.6363 52.8502 54.6363Z" fill="#414141"/>
<path d="M33.6813 47.0748C33.4693 45.5088 33.5128 45.3451 33.3481 45.3678C28.2908 46.0666 24.8038 46.2353 24.9328 46.5363C24.8888 46.6243 25.2111 48.2461 25.6871 52.7688C25.8756 54.5613 25.8311 54.5188 25.9203 54.5558C26.0031 54.5833 34.3953 53.5701 34.3953 53.3888C34.4291 53.2518 33.8573 48.3748 33.6813 47.0748ZM26.1471 54.3823C25.8123 54.4381 26.2453 54.6976 25.1068 46.6346C27.4108 46.3411 31.0068 45.9466 33.3148 45.5346C33.4366 46.0216 34.0263 51.2021 34.2281 53.2956C31.8351 53.7173 26.3583 54.3616 26.1471 54.3826V54.3823Z" fill="#414141"/>
<path d="M34.7217 44.2414C34.6973 44.2282 34.6694 44.2231 34.6419 44.2267C34.6144 44.2303 34.5887 44.2424 34.5685 44.2614C34.173 44.7061 30.009 50.3321 29.8935 50.4889C28.8665 50.1354 27.8415 49.7889 26.8185 49.4219C26.6685 49.3681 26.6125 49.6011 26.725 49.6686C28.0175 50.5611 29.375 51.6534 30.1722 52.3156C30.402 52.5069 30.4905 52.2656 34.7595 44.4214C34.7716 44.4081 34.7803 44.3921 34.785 44.3748C34.7897 44.3575 34.7903 44.3393 34.7866 44.3217C34.7829 44.3041 34.7751 44.2877 34.7638 44.2737C34.7526 44.2598 34.7381 44.2487 34.7217 44.2414Z" fill="#FDAF31"/>
<path d="M19.1001 16.4176C18.4863 15.9481 18.0041 15.3281 17.7001 14.6176C18.1706 13.3234 18.0969 11.9051 17.9666 11.5374C17.8341 11.1624 17.3879 11.2486 17.2599 11.7574C17.0802 12.5399 17.1078 13.3557 17.3399 14.1244C17.5319 14.7454 17.5606 14.5344 17.4199 14.8644C16.8899 16.1071 16.0744 16.1876 15.6399 15.7779C15.446 15.5699 15.2882 15.3311 15.1731 15.0711C15.3846 14.3836 15.9081 12.0046 15.3996 11.5439C14.5321 10.7574 14.2286 13.4439 14.9929 15.0779C14.8234 15.6029 14.6066 16.2779 14.1796 16.5579C13.4021 17.0699 12.6046 15.6261 12.6196 14.6376C12.6196 14.6155 12.6108 14.5942 12.5952 14.5786C12.5795 14.5629 12.5583 14.5541 12.5361 14.5541C12.514 14.5541 12.4928 14.5629 12.4771 14.5786C12.4614 14.5942 12.4526 14.6155 12.4526 14.6376C12.4526 16.2586 14.1231 18.3161 15.0996 15.2779C15.3246 15.6529 15.5629 16.0834 16.0731 16.1379C16.8264 16.2184 17.3331 15.5129 17.6134 14.8044C17.9318 15.4858 18.4125 16.0788 19.0134 16.5314C19.1061 16.6251 19.1866 16.4836 19.1001 16.4176ZM15.1189 11.5971C15.4359 11.6314 15.4256 12.0454 15.4256 12.3304C15.4281 13.1814 15.3069 14.0279 15.0656 14.8441C14.5834 13.8799 14.6309 11.5441 15.1189 11.5971ZM17.8326 11.6501C17.9859 12.5676 17.9104 13.5091 17.6126 14.3906C16.9106 12.5251 17.6354 10.8586 17.8326 11.6501Z" fill="#005BC3"/>
<path d="M18.9663 42.8614C18.1303 42.5659 17.5986 41.6497 17.1461 40.8144C17.223 40.2085 17.2587 39.5981 17.2528 38.9874C17.1851 36.6887 15.6571 36.7422 16.0193 38.5009C16.246 39.3161 16.5682 40.1016 16.9793 40.8412C16.8755 41.6444 16.7173 42.4396 16.5061 43.2214C16.4999 43.2426 16.5024 43.2654 16.513 43.2848C16.5236 43.3042 16.5415 43.3186 16.5627 43.3248C16.5839 43.331 16.6067 43.3285 16.6261 43.3179C16.6455 43.3073 16.6599 43.2894 16.6661 43.2682C16.8626 42.5538 17.0118 41.8272 17.1128 41.0932C17.5461 41.8599 18.0608 42.7149 18.9263 43.0202C19.0253 43.0564 19.0658 42.8964 18.9663 42.8614ZM16.1526 37.6807C16.1856 37.5207 16.2861 37.3467 16.4726 37.4007C17.3311 37.6484 17.0341 40.1039 17.0061 40.5544C16.6383 39.8372 15.9901 38.4702 16.1526 37.6807Z" fill="#005BC3"/>
<path d="M51.2703 19.6182C51.2516 19.5112 51.0913 19.558 51.1103 19.665C51.2644 20.5404 51.5125 21.3966 51.8503 22.2187C51.8913 22.3187 52.0383 22.2315 51.9971 22.132C51.6633 21.3233 51.4196 20.4803 51.2703 19.6182Z" fill="#87E4FF"/>
<path d="M54.1841 19.6182C53.9664 20.479 53.7644 21.3402 53.5574 22.1987C53.553 22.2194 53.5565 22.241 53.5673 22.2591C53.5781 22.2773 53.5954 22.2907 53.6156 22.2967C53.636 22.3026 53.6578 22.3006 53.6767 22.2911C53.6956 22.2815 53.7101 22.2651 53.7174 22.2452C53.9311 21.3885 54.1264 20.5257 54.3441 19.665C54.3711 19.5582 54.2109 19.5117 54.1841 19.6182Z" fill="#87E4FF"/>
<path d="M56.8309 21.2116C56.2877 21.7509 55.7386 22.2842 55.1839 22.8116C55.1052 22.8866 55.2252 23.0064 55.3039 22.9316C55.8589 22.4066 56.4074 21.8681 56.9509 21.3316C56.9589 21.3238 56.9652 21.3145 56.9694 21.3042C56.9737 21.2939 56.9758 21.2828 56.9757 21.2716C56.9757 21.2492 56.9668 21.2276 56.9509 21.2116C56.9349 21.1959 56.9134 21.1869 56.8909 21.1866C56.8798 21.1867 56.8687 21.1889 56.8584 21.1932C56.8481 21.1975 56.8388 21.2037 56.8309 21.2116Z" fill="#87E4FF"/>
<path d="M55.1779 30.9197C54.2326 28.7574 55.9689 25.8859 54.5176 24.8447C54.3444 24.72 54.1464 24.634 53.937 24.5926C53.7276 24.5512 53.5118 24.5553 53.3041 24.6047C52.6881 23.6462 51.3041 23.3672 50.1904 24.1379C49.0951 24.8954 48.8381 26.2584 48.5436 27.4649C48.0391 29.5307 47.4936 29.4502 47.7566 29.6452C48.5396 30.2239 49.5226 30.4042 50.4566 30.5654C50.8654 30.6359 51.2479 30.0837 52.0501 30.9387C52.4416 31.3562 53.9966 31.4304 55.1106 31.1122C55.1436 31.094 55.1687 31.0643 55.1811 31.0288C55.1935 30.9933 55.1923 30.9544 55.1779 30.9197Z" fill="#414141"/>
<path d="M54.3499 27.7793C54.2631 27.4793 53.9166 27.3988 53.6431 27.4325C53.5899 27.439 53.4631 27.4858 53.4231 27.4458C53.1594 26.892 53.0644 26.2729 53.1499 25.6655C53.2099 25.2483 49.9151 25.4905 49.8361 25.8055C49.8361 26.0463 48.8399 28.8775 50.2494 29.6595C50.4934 29.7948 50.5294 29.6905 50.5294 29.786C50.5206 30.026 50.4711 30.2627 50.3829 30.486C50.4079 30.486 50.3044 30.5053 50.3561 30.5993C50.9736 31.7193 52.4311 31.2318 52.4631 30.8728C52.4834 30.741 52.4096 30.6665 52.4096 30.2593C52.4089 29.992 52.4403 29.7256 52.5031 29.4658C52.5556 29.3435 53.1429 29.2638 53.4699 28.479C53.9591 28.6538 54.4771 28.216 54.3499 27.7793Z" fill="white"/>
<path d="M50.3101 27.2193C50.2671 26.6613 50.7551 26.633 50.6036 27.2393C50.5978 27.2608 50.6007 27.2837 50.6116 27.303C50.62 27.3173 50.6325 27.3287 50.6475 27.3358C50.6625 27.3429 50.6793 27.3453 50.6957 27.3428C50.7121 27.3402 50.7273 27.3328 50.7394 27.3215C50.7515 27.3102 50.7599 27.2955 50.7636 27.2793C50.8906 26.9673 50.7161 26.5293 50.4036 26.6593C50.1759 26.7535 50.0874 27.3398 50.2501 27.3128C50.2667 27.303 50.2808 27.2894 50.2912 27.2732C50.3017 27.2569 50.3081 27.2385 50.3101 27.2193Z" fill="#414141"/>
<path d="M51.85 27.2791C51.8077 27.0041 52.0382 26.7041 52.13 27.1126C52.18 27.3351 52.028 27.4833 52.1635 27.5058C52.3262 27.5523 52.3665 27.0573 52.19 26.8391C51.8195 26.3811 51.4957 27.4153 51.79 27.3726C51.875 27.3603 51.8405 27.2791 51.85 27.2791Z" fill="#414141"/>
<path d="M50.9102 27.5001C51.1239 27.5001 51.2472 27.6123 51.2637 27.4601C51.2949 27.1738 51.3082 26.8866 51.3237 26.6068C51.3297 26.5001 51.1617 26.4998 51.1569 26.6068C51.1457 26.8598 51.1304 27.1068 51.1104 27.3536C50.9542 27.3243 50.6529 27.2908 50.7104 27.4401C50.8092 27.6957 50.9439 27.9359 51.1104 28.1536C51.1767 28.2406 51.3169 28.1536 51.2569 28.0668C51.1138 27.8963 50.9969 27.7052 50.9102 27.5001Z" fill="#414141"/>
<path d="M51.0105 29.073C51.2058 29.2243 51.5188 29.0253 51.4905 28.5995C51.4905 28.5837 51.4858 28.5682 51.477 28.555C51.4682 28.5419 51.4557 28.5316 51.441 28.5255C51.4314 28.5214 51.421 28.5193 51.4105 28.5193C51.4001 28.5193 51.3897 28.5214 51.38 28.5255C51.3653 28.5314 51.3527 28.5417 51.3439 28.5549C51.335 28.5681 51.3304 28.5836 51.3305 28.5995C51.35 28.8745 51.1855 28.9713 51.2105 28.9463C51.1398 29.017 50.997 28.7645 50.997 28.6795C50.997 28.7045 51.0185 28.5445 50.937 28.5328C50.675 28.4453 50.8578 28.9548 51.0105 29.073Z" fill="#414141"/>
<path d="M50.5249 29.8461C50.7559 29.9028 51.6174 30.0273 51.5784 29.7928C51.5722 29.7722 51.5585 29.7546 51.54 29.7435C51.5215 29.7324 51.4996 29.7286 51.4784 29.7328C51.1761 29.7785 50.8677 29.7626 50.5717 29.6861C50.4514 29.6581 50.4337 29.8461 50.5249 29.8461Z" fill="#414141"/>
<path d="M53.5305 28.1059C53.8555 28.0734 53.9905 28.2259 54.0105 28.0859C54.052 27.9406 53.6635 27.9176 53.5237 27.9394C53.3915 27.9599 53.4455 28.1059 53.5305 28.1059Z" fill="#414141"/>
<path d="M50.4499 26.1923C50.3106 26.1923 50.6499 26.2478 50.6499 26.0656C50.6499 25.7843 49.8871 26.0263 50.0366 26.2256C50.1456 26.3888 50.2139 26.2218 50.4499 26.1923Z" fill="#87E4FF"/>
<path d="M52.5105 26.4459C52.5423 26.4532 52.5757 26.4484 52.6041 26.4324C52.6325 26.4163 52.6539 26.3902 52.664 26.3591C52.7002 26.1771 52.123 25.7904 52.0705 26.0524C52.008 26.1929 52.149 26.1704 52.3017 26.2651C52.4265 26.3426 52.4345 26.4154 52.5105 26.4459Z" fill="#87E4FF"/>
<path d="M57.2646 35.8405C56.9366 34.139 56.5004 32.067 55.2179 31.0598C54.9092 30.8107 54.5507 30.6306 54.1665 30.5317C53.7824 30.4328 53.3815 30.4174 52.9909 30.4865C52.8139 30.5275 52.6401 30.581 52.4706 30.6465C52.3973 30.6924 52.3217 30.7346 52.2441 30.773C51.8164 30.9388 51.0751 31.0375 50.6104 30.7665C50.3461 30.6123 50.3676 30.497 50.2836 30.4798C47.7394 29.9528 46.6211 31.9408 45.4764 34.067C42.4941 31.314 42.6241 31.5865 41.7359 30.792C41.5021 30.5833 40.2151 31.1543 40.4091 31.2188C41.0159 32.639 41.4824 34.1593 42.4561 35.386C43.3026 36.453 44.6224 37.2898 46.0364 37.086C48.0039 36.803 47.8184 35.158 47.6834 37.0395C47.1449 44.5493 47.1019 44.2738 47.1899 44.2738C49.5564 44.2738 55.4899 43.9923 55.4649 43.9138C55.4329 43.3508 55.3776 42.6388 55.3614 42.0638C55.9652 41.714 56.4767 41.2249 56.8531 40.6374C57.2295 40.0498 57.46 39.3808 57.5254 38.686C57.5744 37.7299 57.4866 36.7718 57.2646 35.8405Z" fill="#005BC3"/>
<path d="M46.2631 57.0434C45.6858 57.1877 44.1768 57.6864 43.8361 58.1169C45.3163 58.2969 46.7986 58.4792 48.2833 58.6637C48.3193 58.6724 48.3573 58.6676 48.3901 58.6502C48.5056 58.5579 48.4666 56.7752 48.4568 56.5299L46.2631 57.0434Z" fill="white"/>
<path d="M54.925 57.2167C55.5625 57.46 56.9135 58.1267 57.1988 58.5902C55.705 58.5837 54.2115 58.567 52.718 58.5637C52.4465 58.5637 52.7788 56.6907 52.8248 56.4232L54.925 57.2167Z" fill="white"/>
<path d="M49.9303 30.5263C50.3178 31.7133 52.0423 32.0401 53.0908 30.6596C53.1568 30.5726 53.0108 30.4928 52.944 30.5728C52.0303 31.8128 50.446 31.5668 50.0835 30.4796C50.0765 30.4603 50.0623 30.4445 50.044 30.4353C50.0256 30.4262 50.0044 30.4245 49.9848 30.4306C49.9653 30.4367 49.9488 30.4499 49.9387 30.4677C49.9286 30.4855 49.9256 30.5064 49.9303 30.5263Z" fill="white"/>
<path d="M55.2111 42.0211C53.5486 42.5961 51.7611 42.7858 50.0036 42.8546C49.9846 42.3343 49.9357 41.8157 49.8571 41.3011C50.6797 41.1768 51.4835 40.9506 52.2501 40.6276C53.0669 40.3091 53.9296 39.9983 54.4839 39.2408C55.1009 38.3973 55.3199 36.7123 54.6306 35.2408C54.5836 35.1408 54.4439 35.2273 54.4839 35.3273C54.7552 35.9074 54.8941 36.5406 54.8906 37.1811C54.8789 39.3616 53.7234 39.9893 51.5156 40.7281C50.0444 41.2208 49.6406 41.0418 49.6754 41.2548C49.9131 42.7161 49.7546 42.9433 49.8821 42.9751C49.9481 43.1071 53.3454 42.8558 55.2496 42.1818C55.3501 42.1461 55.3106 41.9868 55.2111 42.0211Z" fill="white"/>
<path d="M57.2712 58.5503C57.0575 58.2096 56.216 57.7318 56.151 57.7103C56.1935 57.6734 56.2406 57.642 56.291 57.6168C56.3098 57.6059 56.3236 57.5881 56.3294 57.5672C56.3352 57.5462 56.3325 57.5238 56.322 57.5048C56.3115 57.4859 56.2941 57.4717 56.2734 57.4653C56.2527 57.4588 56.2304 57.4607 56.211 57.4703C55.8927 57.6366 56.1552 57.6883 55.6242 57.4368C55.6512 57.3976 55.6802 57.3598 55.711 57.3236C55.7216 57.3115 55.7286 57.2966 55.7312 57.2806C55.7337 57.2647 55.7317 57.2484 55.7253 57.2335C55.7189 57.2187 55.7084 57.206 55.6951 57.1969C55.6818 57.1878 55.6661 57.1826 55.65 57.1821C55.6283 57.1815 55.6072 57.1892 55.591 57.2036C55.3992 57.3953 55.5797 57.3946 55.031 57.1701C55.1025 57.0701 55.3842 46.5156 55.3842 43.9551C53.7492 43.9998 49.3362 44.3158 47.2965 44.2751L46.123 56.9968C45.4015 57.1718 45.6507 57.2381 45.403 56.9901C45.3267 56.9138 45.2067 57.0338 45.283 57.1101C45.3162 57.1501 45.3495 57.1836 45.383 57.2236C45.2586 57.2643 45.1362 57.311 45.0162 57.3636C44.9162 57.2491 44.8312 57.1218 44.7495 57.2036C44.6805 57.2898 44.768 57.3323 44.8495 57.4303C44.921 57.4303 44.0877 57.6843 43.756 58.0636C43.745 58.0754 43.7377 58.0901 43.7349 58.106C43.7321 58.1219 43.734 58.1383 43.7404 58.1531C43.7467 58.168 43.7573 58.1806 43.7707 58.1896C43.7841 58.1985 43.7999 58.2034 43.816 58.2036C48.4465 58.7013 48.366 58.7981 48.45 58.6771C48.498 58.6068 48.4855 58.5681 48.51 58.0771C48.582 56.6426 48.2202 57.9911 51.3237 47.1288C51.9377 49.7938 52.2027 52.3551 52.4172 55.0633C52.683 58.4171 52.5145 57.2558 52.4972 58.4236C52.4925 58.7466 52.488 58.6486 57.1912 58.6703C57.206 58.672 57.221 58.6696 57.2345 58.6632C57.248 58.6569 57.2595 58.647 57.2677 58.6346C57.276 58.6223 57.2807 58.6079 57.2812 58.5931C57.282 58.5782 57.2785 58.5634 57.2712 58.5503ZM48.3232 58.5771C48.2902 58.5936 44.0507 58.0603 44.0232 58.0571C44.322 57.8524 44.6445 57.6845 44.9835 57.5571C45.0937 57.7148 45.1232 57.8741 45.2235 57.8106C45.3155 57.7523 45.2035 57.5898 45.1367 57.5038C45.2567 57.4571 45.3835 57.4106 45.5035 57.3638C45.5655 57.4578 45.6212 57.5558 45.6702 57.6571C45.7122 57.7471 45.8545 57.6836 45.8167 57.5706C45.7734 57.4809 45.7244 57.3939 45.6702 57.3103C46.5277 57.0353 45.8975 57.1801 48.3905 57.4571C48.3647 57.6593 48.3612 58.5581 48.3232 58.5771ZM52.984 58.4836C52.8817 58.4871 52.7792 58.4848 52.6772 58.4771C52.6522 58.4521 52.758 57.4738 52.764 57.4303C55.182 57.3488 54.4972 57.1001 55.3777 57.5036C55.351 57.5503 55.3177 57.5968 55.2977 57.6368C55.2912 57.646 55.2867 57.6564 55.2844 57.6675C55.2821 57.6785 55.282 57.6898 55.2843 57.7009C55.2865 57.7119 55.291 57.7223 55.2974 57.7316C55.3038 57.7408 55.3121 57.7486 55.3217 57.7546C55.3312 57.7605 55.3419 57.7644 55.353 57.7661C55.3642 57.7677 55.3755 57.7671 55.3864 57.7641C55.3973 57.7612 55.4074 57.7561 55.4163 57.7492C55.4251 57.7422 55.4324 57.7335 55.4377 57.7236C55.4642 57.6703 55.4977 57.6236 55.531 57.5703C55.651 57.6236 55.7645 57.6836 55.8845 57.7503C55.8277 57.8211 55.7362 57.9253 55.8377 57.9771C55.9527 58.0346 55.9765 57.8636 56.0045 57.8636C56.0045 57.7453 56.8522 58.3136 57.038 58.5103C55.4312 58.4973 53.9535 58.4836 52.984 58.4836Z" fill="#414141"/>
<path d="M49.7773 39.5407C49.4188 32.9157 49.4083 32.6479 49.1571 32.1329C48.8121 31.4254 48.0438 30.9922 47.2703 30.8529C46.4901 30.7122 43.4031 30.9529 42.6228 31.0594C41.5028 31.0929 39.5573 31.2457 38.4691 31.5129C37.1146 31.8454 36.8458 32.3984 36.9421 33.7329C37.0696 35.5002 37.0446 38.5332 37.2621 40.2942C37.4591 41.8877 37.9148 42.2109 39.1621 42.4144C41.7553 42.8372 43.6636 42.4809 47.0098 42.0809C49.5253 41.7807 49.8633 41.1324 49.7773 39.5407Z" fill="white"/>
<path d="M49.8705 39.6875C49.843 39.0715 49.5393 33.2252 49.4038 32.6125C48.8038 29.9015 45.0698 30.8625 42.296 30.9922C41.2673 31.0397 38.5725 31.2242 37.6488 31.7122C37.3865 31.8454 37.1705 32.0544 37.0288 32.3122C36.0223 32.9767 36.3995 34.0847 36.4753 36.5122C36.608 40.7575 36.5833 42.2657 37.7688 42.7872C39.7648 43.6637 44.9058 42.9122 47.0035 42.6337C47.82 42.5257 48.759 42.3282 49.1705 41.5802C49.816 41.125 49.9068 40.5 49.8705 39.6875ZM49.557 40.861C49.0973 41.861 47.667 41.9135 46.4368 42.061C44.156 42.3347 42.5208 42.561 40.9693 42.5012C36.789 42.3415 37.3763 41.9685 37.0755 34.6467C36.9933 32.6467 36.7043 31.9277 38.8223 31.5062C40.3918 31.194 45.5723 30.9127 45.7365 30.9062C46.8493 30.8627 47.9293 30.8102 48.7638 31.7062C49.3165 32.3002 49.4195 32.478 49.7038 39.654C49.7498 40.0622 49.6995 40.4756 49.557 40.861Z" fill="#414141"/>
<path d="M46.0767 36.6801C46.1623 36.6343 46.2344 36.567 46.286 36.4849C46.3376 36.4027 46.367 36.3086 46.3712 36.2116C46.3752 36.1147 46.3538 36.0184 46.3091 35.9322C46.2645 35.846 46.1982 35.7729 46.1167 35.7201C45.6045 35.3084 44.629 35.4136 43.7497 35.5334C43.7252 34.8562 43.583 34.1884 43.3295 33.5599C42.988 32.8666 42.4955 32.8754 42.3427 33.2399C42.2062 33.5649 42.3822 34.0294 42.296 34.4734C42.148 35.2351 41.631 35.9781 40.8692 35.9401C40.7625 35.9349 40.7625 36.1016 40.8692 36.1069C41.7755 36.1519 42.381 35.2069 42.4692 34.3999C42.5292 33.8516 42.3407 33.4319 42.536 33.2199C42.7147 33.0254 42.9765 33.3199 43.0692 33.4599C43.2029 33.6733 43.2998 33.9077 43.356 34.1531C43.7072 35.5031 43.4592 35.7361 43.676 35.7069C44.1995 35.6359 44.9997 35.5366 45.5162 35.6469C46.1722 35.7866 46.281 36.1661 46.143 36.3869C46.0635 36.4879 45.9605 36.5679 45.843 36.6201C45.8296 36.6291 45.819 36.6416 45.8124 36.6563C45.8057 36.6709 45.8033 36.6872 45.8055 36.7031C45.8076 36.7191 45.8141 36.7341 45.8242 36.7466C45.8344 36.759 45.8478 36.7684 45.863 36.7736C45.9679 36.8002 46.0602 36.8629 46.1236 36.9507C46.187 37.0384 46.2175 37.1457 46.2097 37.2536C46.1917 37.5139 45.9227 37.6664 45.7162 37.7804C45.7058 37.7868 45.6969 37.7954 45.6901 37.8055C45.6833 37.8157 45.6787 37.8272 45.6768 37.8393C45.6749 37.8514 45.6755 37.8638 45.6788 37.8755C45.6821 37.8873 45.6879 37.8983 45.6957 37.9076C45.7065 37.9201 45.7205 37.9294 45.7362 37.9339C46.1012 38.0006 46.0995 38.6089 45.523 38.6939C45.4362 38.7066 45.4495 38.8339 45.523 38.8539C45.7355 38.9246 45.7375 39.2789 45.3762 39.4206C44.9925 39.5706 42.8275 39.7744 41.029 39.6739C40.9222 39.6681 40.9222 39.8346 41.029 39.8406C42.4243 39.9109 43.8231 39.8394 45.204 39.6274C45.8165 39.5084 45.9575 39.0416 45.7372 38.7939C46.2275 38.5979 46.2675 38.0711 45.9372 37.8271C46.5472 37.4781 46.4712 36.9059 46.0767 36.6801Z" fill="#414141"/>
<path d="M41.2227 39.8074C41.0112 35.4074 41.0977 35.4201 40.8359 35.4201C40.5847 35.4069 39.5544 35.4394 39.4024 35.5534C39.3678 35.5832 39.3425 35.6222 39.3295 35.666C39.3165 35.7097 39.3163 35.7563 39.3289 35.8001C39.3289 35.8251 39.6137 40.0819 39.6157 40.1074C39.6439 40.4481 40.0182 40.3594 40.5692 40.3274C41.0849 40.2974 41.2502 40.3811 41.2227 39.8074Z" fill="#005BC3"/>
<path d="M44.3898 28.9727C44.323 28.986 44.2498 29.006 44.183 29.0192C44.1683 28.8376 44.1415 28.6573 44.103 28.4792C44.0808 28.373 43.9178 28.419 43.943 28.526C43.9838 28.7035 44.0105 28.8842 44.023 29.066C43.8963 29.0992 43.7698 29.126 43.6363 29.1592C43.5295 29.186 43.576 29.3452 43.683 29.3192C43.7963 29.292 43.9163 29.266 44.0298 29.2327C44.0363 29.386 44.0313 29.5395 44.023 29.6927C44.0173 29.7995 44.182 29.7992 44.1898 29.6927C44.232 29.098 44.0863 29.223 44.4365 29.1327C44.5365 29.1067 44.4898 28.946 44.3898 28.9727Z" fill="#005BC3"/>
<path d="M37.5556 29.0861C37.4236 29.0861 37.4691 29.1216 37.4489 28.8329C37.4414 28.7261 37.2739 28.7261 37.2821 28.8329C37.2884 28.9194 37.2889 28.9994 37.2956 29.0861C37.1406 29.0861 36.9706 29.0611 36.9889 29.1661C36.9889 29.2779 37.1304 29.2461 37.3021 29.2461C37.3089 29.3794 37.3146 29.5129 37.3221 29.6461C37.3281 29.7529 37.4949 29.7529 37.4889 29.6461C37.4814 29.5129 37.4756 29.3794 37.4689 29.2461H37.5489C37.5701 29.247 37.5908 29.2394 37.6065 29.2251C37.6221 29.2107 37.6314 29.1907 37.6323 29.1695C37.6332 29.1483 37.6256 29.1276 37.6112 29.1119C37.5969 29.0963 37.5769 29.087 37.5556 29.0861Z" fill="#005BC3"/>
<path d="M39.302 44.1615C39.007 44.1865 39.077 44.284 39.0488 43.7948C39.0425 43.688 38.8763 43.688 38.882 43.7948C38.8898 43.9348 38.8955 44.068 38.902 44.208C38.6968 44.2398 38.5553 44.2195 38.5553 44.3215C38.5553 44.3615 38.5953 44.4078 38.6353 44.4015C38.7285 44.387 38.822 44.3815 38.9088 44.368C38.9155 44.508 38.9208 44.6483 38.9288 44.7948C38.9345 44.9015 39.1013 44.9015 39.0955 44.7948C39.0875 44.6483 39.082 44.5015 39.0755 44.3548C39.1488 44.348 39.229 44.3368 39.302 44.328C39.4285 44.3133 39.3888 44.15 39.302 44.1615Z" fill="#005BC3"/>
<path d="M35.9886 40.5075C35.9468 40.5075 35.9723 40.5108 35.9086 40.1608C35.8893 40.054 35.7286 40.1008 35.7486 40.2075C35.7686 40.3143 35.7821 40.421 35.7953 40.521C35.6453 40.5308 35.4066 40.521 35.4218 40.6275C35.4218 40.7465 35.5486 40.6975 35.8153 40.681C35.8283 40.8228 35.8326 40.9653 35.8286 41.1078C35.8298 41.1291 35.8391 41.1491 35.8546 41.1638C35.8701 41.1785 35.8906 41.1867 35.912 41.1867C35.9333 41.1867 35.9539 41.1785 35.9694 41.1638C35.9849 41.1491 35.9942 41.1291 35.9953 41.1078C35.9953 40.652 35.9568 40.6675 35.9821 40.6675C36.1016 40.6478 36.0841 40.5075 35.9886 40.5075Z" fill="#005BC3"/>
<path d="M42.136 31.1999C42.0192 30.935 41.8888 30.6764 41.7453 30.4249C41.7265 30.3767 41.6913 30.3367 41.6458 30.312C41.6004 30.2873 41.5477 30.2795 41.497 30.2899C41.4463 30.3004 41.401 30.3285 41.3691 30.3693C41.3372 30.41 41.3208 30.4607 41.3228 30.5124C41.261 30.3687 41.0313 30.3937 40.9478 30.5669C40.5688 30.3919 40.4295 30.5669 40.4043 30.6527C40.3252 30.6631 40.2505 30.6946 40.1878 30.7439C40.1251 30.7932 40.0768 30.8584 40.048 30.9327C39.9695 31.1851 39.9535 31.4527 40.0013 31.7127C40.0285 32.0759 40.3303 32.2159 40.3745 31.9859C40.4283 31.6934 40.4505 31.3964 40.4413 31.0994C40.5135 31.3879 40.8263 31.9662 41.0148 31.9662C41.233 31.9662 41.1715 31.5002 41.1348 31.3527C41.2168 31.4924 41.5798 31.9817 41.708 31.9062C41.8128 31.8442 41.7683 31.4859 41.7683 31.4859C41.83 31.5492 41.8968 31.6072 41.9683 31.6594C42.1213 31.8114 42.4268 31.8334 42.136 31.1999Z" fill="white"/>
<path d="M49.7037 41.2611C48.7397 41.0861 48.1658 40.4751 48.1303 40.6876C48.0938 41.0166 48.601 41.2251 48.6837 41.5279C47.0302 41.2499 46.9823 41.2166 47.0035 41.3011C47.0035 41.5699 47.9285 41.8971 48.2835 41.9611C47.3607 42.0176 47.046 41.7589 46.73 41.9079C46.6265 41.9566 46.65 42.0349 46.7435 42.1011C47.1098 42.3619 47.6435 42.3146 48.0903 42.3614C47.7298 42.3554 47.3045 42.3574 46.9265 42.3554C46.7828 42.3554 46.6563 42.3511 46.9233 42.5489C47.003 42.6019 47.0948 42.6336 47.19 42.6414C48.3985 42.8149 48.7305 42.5831 47.2235 43.0146C46.804 43.1349 46.9955 43.5951 49.9173 42.8814L49.7037 41.2611Z" fill="white"/>
<path d="M41.2692 30.3595C41.2044 30.3332 41.1325 30.33 41.0656 30.3507C40.9988 30.3713 40.9411 30.4145 40.9025 30.4728C40.593 30.3418 40.4525 30.426 40.3492 30.5795C39.9277 30.647 39.8615 31.0938 39.889 31.5198C39.8705 31.7303 39.9325 31.9399 40.0625 32.1065C40.0961 32.1395 40.1381 32.1626 40.184 32.1732C40.2299 32.1837 40.2778 32.1815 40.3225 32.1665C40.467 32.1023 40.4882 31.6843 40.4957 31.5263C40.9332 32.292 41.2525 32.1058 41.236 31.673C41.3275 31.7905 41.438 31.8918 41.5627 31.973C41.731 32.0498 41.8275 31.8933 41.856 31.693C42.0765 31.9135 42.2902 31.8158 42.3095 31.6263C42.3365 31.3598 41.915 30.5343 41.7857 30.3183C41.6182 30.0388 41.3132 30.2715 41.2692 30.3595ZM40.3092 31.813C40.2092 32.5673 39.7725 31.0115 40.3025 30.773C40.2865 31.0128 40.414 31.031 40.3092 31.813ZM41.0292 31.8798C40.7975 32.0298 40.018 30.2208 40.8425 30.633C40.8154 30.9063 40.8915 31.1798 41.056 31.3998C41.0705 31.6473 41.1217 31.82 41.0292 31.8798ZM41.0425 30.5798C41.0957 30.51 41.2425 30.4695 41.2425 30.6198C41.3547 31.23 41.6777 31.3875 41.705 31.6215C41.7855 32.3148 40.7752 30.931 41.0425 30.5795V30.5798ZM41.416 30.4598C41.4452 30.3795 41.5955 30.3328 41.6227 30.3598C43.04 33 41.198 30.8955 41.416 30.4595V30.4598Z" fill="#414141"/>
<path d="M49.8839 42.7945C49.0656 43.0379 48.2173 43.1658 47.3637 43.1745C46.7497 43.1745 47.5772 42.9925 48.2304 42.8012C48.2496 42.7954 48.2662 42.7831 48.2771 42.7663C48.2881 42.7495 48.2928 42.7294 48.2905 42.7094C48.2881 42.6895 48.2787 42.6711 48.2641 42.6574C48.2494 42.6437 48.2304 42.6356 48.2104 42.6345C47.9324 42.6215 47.0827 42.607 46.9037 42.4277H48.0772C48.0881 42.4277 48.0989 42.4256 48.109 42.4214C48.1191 42.4172 48.1282 42.411 48.1359 42.4032C48.1437 42.3955 48.1499 42.3864 48.1542 42.3763C48.1584 42.3662 48.1606 42.3553 48.1606 42.3443C48.1606 42.3334 48.1584 42.3225 48.1542 42.3124C48.1499 42.3023 48.1437 42.2932 48.1359 42.2855C48.1203 42.2699 48.0992 42.2612 48.0772 42.2612C47.8504 42.2337 47.6237 42.2362 47.4037 42.2145C46.9387 42.17 46.7037 42.01 46.7702 41.9677C46.9392 41.861 47.4672 42.1015 48.2702 42.041C48.3569 42.0345 48.3904 41.8935 48.2902 41.8745C47.8502 41.8054 47.4362 41.6213 47.0902 41.341C47.1152 41.346 48.6152 41.5972 48.6439 41.601C48.6578 41.6053 48.6726 41.6057 48.6867 41.6022C48.7008 41.5987 48.7137 41.5914 48.724 41.5811C48.7343 41.5708 48.7416 41.5579 48.7451 41.5438C48.7486 41.5297 48.7482 41.5149 48.7439 41.501C48.6751 41.3376 48.5675 41.1934 48.4304 41.081C48.1534 40.804 48.2077 40.765 48.1904 40.7475C48.6465 41.02 49.1411 41.2222 49.6574 41.3475C49.7639 41.3672 49.8042 41.206 49.7039 41.1875C49.0332 41.0625 48.2772 40.579 48.1972 40.5607C48.0159 40.519 47.9344 40.8047 48.2104 41.094C48.3044 41.1925 48.3829 41.2597 48.5172 41.4207C48.1349 41.3555 47.3489 41.2295 47.1502 41.194C46.8352 41.1152 46.6587 41.4572 47.5904 41.8607C47.7989 41.965 47.1172 41.7447 46.7969 41.8007C46.6834 41.8207 46.5232 41.8875 46.5637 42.0342C46.6007 42.1687 46.8317 42.2742 46.8569 42.2742C46.7719 42.2742 46.6569 42.2757 46.6569 42.3942C46.6569 42.4727 46.8202 42.623 46.8902 42.661C47.1479 42.738 47.4147 42.7805 47.6837 42.7875C47.1202 42.9485 47.0114 42.9752 46.9637 43.081C46.6777 43.7132 49.3517 43.0972 49.9039 42.961C50.0312 42.9297 49.9844 42.769 49.8839 42.7945Z" fill="#414141"/>
</svg>
