<svg width="50" height="50" viewBox="0 0 50 50" fill="none" xmlns="http://www.w3.org/2000/svg">
<path d="M1.33755 43.0557C1.21255 43.2795 1.48055 44.5057 3.88355 45.9172C6.51305 47.4602 8.18355 46.991 8.35855 46.7552C9.3293 45.437 10.6531 40.1512 10.5046 39.561C10.3853 39.0875 6.48355 37.0145 5.97055 36.9722C5.39455 36.925 1.62355 42.545 1.33755 43.0557Z" fill="#016DAB"/>
<path d="M6.77313 37.2621C6.77313 37.2621 8.86613 38.3313 9.95888 39.0603C10.4728 38.8376 10.9475 38.5338 11.3649 38.1603C11.3649 38.1603 14.3824 39.5426 14.4306 39.5163C15.1766 39.1076 17.2756 37.8541 19.9556 31.1853C21.1706 28.186 22.0015 25.0451 22.4286 21.8373C22.4286 21.8373 18.2756 21.3471 16.1336 21.0343C14.3519 20.7378 12.5866 20.35 10.8446 19.8723L8.27562 26.4708C7.56362 28.2976 4.87263 32.2208 3.76562 33.8283C3.76562 33.8283 4.66562 34.8351 6.73588 35.7751L6.77313 37.2621Z" fill="white"/>
<path d="M7.97852 31.6565L8.00927 30.1083L14.1918 30.369C13.6816 30.82 13.2115 31.3143 12.7865 31.8463L7.97852 31.6565Z" fill="#87E4FF"/>
<path d="M15.1321 30.4202L16.0929 30.4917L15.6429 30.8459L15.9351 31.1959L15.5669 31.4587L16.0419 31.8624L14.9844 31.9442C14.9844 31.9442 15.5564 30.9669 15.1321 30.4202Z" fill="#87E4FF"/>
<path d="M16.8277 30.7106C16.7669 30.8549 16.7387 31.0109 16.745 31.1674C16.7514 31.3239 16.7922 31.4771 16.8645 31.6161C16.8645 31.6161 17.7842 31.2796 17.7895 31.1948C17.7947 31.1101 16.8277 30.7106 16.8277 30.7106Z" fill="#87E4FF"/>
<path d="M17.41 23.7448C17.385 23.7448 11.854 22.3736 11.4125 22.2841C11.3906 22.279 11.3716 22.2656 11.3594 22.2467C11.3473 22.2278 11.343 22.2049 11.3474 22.1829C11.3519 22.1609 11.3648 22.1415 11.3833 22.1288C11.4019 22.1161 11.4246 22.1112 11.4468 22.1151C11.7663 22.1798 15.333 23.0573 17.4308 23.5746C17.4504 23.5804 17.4674 23.5931 17.4786 23.6103C17.4899 23.6274 17.4947 23.648 17.4922 23.6684C17.4897 23.6888 17.4801 23.7077 17.4651 23.7216C17.45 23.7356 17.4305 23.7438 17.41 23.7448Z" fill="#414141"/>
<path d="M20.8993 23.3581C20.8895 23.3503 18.8855 22.8671 18.726 22.9581C18.7156 22.9642 18.7065 22.9723 18.6993 22.9821C18.6921 22.9919 18.687 23.003 18.6843 23.0148C18.2343 25.0876 18.1448 25.0633 18.2343 25.1363C18.2593 25.1573 20.3153 25.6676 20.4343 25.5526C20.536 25.4546 20.9343 23.5693 20.9343 23.4436C20.9354 23.4276 20.9328 23.4116 20.9267 23.3967C20.9207 23.3819 20.9113 23.3687 20.8993 23.3581ZM20.3153 25.4081C20.0518 25.3908 18.7113 25.1026 18.3885 25.0113C18.428 24.8488 18.5363 24.4003 18.837 23.1191C19.1425 23.1441 20.5345 23.4191 20.762 23.4813C20.7365 23.7596 20.404 25.1418 20.3153 25.4081Z" fill="#414141"/>
<path d="M19.9814 26.5858C19.9689 26.5735 17.9564 26.014 17.8081 26.0978C17.7974 26.1036 17.7881 26.1117 17.7808 26.1215C17.7735 26.1313 17.7685 26.1426 17.7661 26.1545C17.5814 26.938 17.3006 28.1295 17.2856 28.1795C17.2763 28.1968 17.2733 28.2166 17.2768 28.2359C17.2804 28.2551 17.2905 28.2725 17.3054 28.2853C17.3304 28.3103 19.3469 28.891 19.5106 28.793C19.6356 28.7068 20.0134 26.7158 20.0159 26.696C20.0185 26.6762 20.0168 26.6561 20.0109 26.6371C20.0049 26.618 19.9948 26.6005 19.9814 26.5858ZM19.4046 28.6383C18.7498 28.5147 18.1018 28.3576 17.4631 28.1675C17.5051 28.0075 17.6131 27.5565 17.9189 26.2605C18.2269 26.2975 19.6141 26.6325 19.8439 26.7065C19.7313 27.3577 19.5847 28.0025 19.4046 28.6383Z" fill="#414141"/>
<path d="M19.3743 24.8459C19.2401 24.8459 19.1243 24.4661 19.0783 24.1261C19.0768 24.104 19.0839 24.0822 19.098 24.0652C19.1121 24.0481 19.1323 24.0372 19.1542 24.0345C19.1762 24.0318 19.1984 24.0377 19.2162 24.0509C19.2339 24.0641 19.246 24.0836 19.2498 24.1054C19.2773 24.2861 19.3233 24.4636 19.3871 24.6349C19.5221 24.4951 19.8591 24.0881 20.1576 23.7116C20.1718 23.6937 20.1926 23.6822 20.2153 23.6795C20.238 23.6769 20.2609 23.6834 20.2788 23.6976C20.2968 23.7119 20.3083 23.7326 20.3109 23.7554C20.3136 23.7781 20.307 23.801 20.2928 23.8189C19.5033 24.8139 19.4238 24.8459 19.3743 24.8459Z" fill="#87E4FF"/>
<path d="M18.4298 28.003C18.266 27.9657 18.1565 27.2917 18.1548 27.285C18.1524 27.2625 18.159 27.24 18.1731 27.2223C18.1873 27.2047 18.2078 27.1933 18.2303 27.1907C18.2527 27.188 18.2753 27.1942 18.2932 27.208C18.3111 27.2218 18.3229 27.2421 18.326 27.2645C18.3548 27.4535 18.4053 27.6385 18.476 27.816C18.7571 27.527 19.01 27.2119 19.2313 26.875C19.2445 26.8562 19.2647 26.8435 19.2873 26.8395C19.3099 26.8359 19.333 26.8412 19.3517 26.8544C19.3704 26.8677 19.3832 26.8877 19.3873 26.9102C19.3912 26.9329 19.386 26.9562 19.3728 26.975C19.2485 27.1535 18.6385 28.0502 18.4298 28.003Z" fill="#87E4FF"/>
<path d="M16.8423 34.8042C16.2792 34.4435 15.6964 34.1145 15.0966 33.8187C14.9238 33.7437 14.9078 33.7527 14.8391 33.89L13.8436 35.5705C13.8339 35.5867 13.8293 35.6054 13.8302 35.6242C13.8311 35.643 13.8375 35.6612 13.8486 35.6765C13.9091 35.7535 15.5586 36.7385 15.7261 36.7385C15.8936 36.7385 16.8418 34.9927 16.8621 34.9002C16.8679 34.8669 16.8609 34.8325 16.8423 34.8042ZM15.7063 36.5585C15.4846 36.4747 14.3021 35.7835 14.0286 35.5975C14.1886 35.329 14.7628 34.3532 14.9993 33.9542C15.2678 34.0625 16.4531 34.7475 16.6821 34.8977C16.3873 35.4686 16.0616 36.023 15.7063 36.5585Z" fill="#414141"/>
<path d="M22.4776 21.8181C22.3541 21.5219 16.0526 21.3706 10.9193 19.8026C10.7468 19.7509 10.6336 20.0046 9.88959 22.0744C9.33509 23.6169 8.57634 25.7284 7.88384 27.0046C6.59034 29.3796 4.35309 32.9379 3.75434 33.6499C3.72383 33.6906 3.70775 33.7403 3.70866 33.7912C3.70956 33.8421 3.7274 33.8912 3.75934 33.9309C3.99334 34.3324 5.20559 35.0789 6.64934 35.8649C6.65684 36.4046 6.67159 36.8679 6.68159 37.1266C6.12284 36.8686 5.85484 36.7766 5.45209 37.2126C3.99664 38.9961 2.63312 40.8527 1.36684 42.7751C0.445335 44.1574 5.28559 47.7099 8.09584 47.0351C9.26609 46.7431 10.6008 39.9451 10.6113 39.8751C10.6698 39.4786 10.4823 39.3024 10.1556 39.0646C10.6055 38.8604 11.0197 38.5854 11.3826 38.2501C11.5886 38.3479 14.2268 39.6026 14.4601 39.6026C14.8741 39.5264 17.5251 37.7229 20.1001 31.0086C22.0341 25.9699 22.5738 22.0571 22.4776 21.8181ZM10.1211 39.2529C10.4366 39.4844 10.4733 39.6249 10.4413 39.8529C10.3331 40.5944 8.99509 46.6336 8.05384 46.8676C5.30834 47.5466 0.731085 44.0254 1.50959 42.8676C3.65959 39.6736 5.45434 37.4691 5.58009 37.3314C5.65084 37.2175 5.76189 37.1345 5.89111 37.0989C6.02033 37.0633 6.15823 37.0776 6.27734 37.1391C7.26384 37.4661 10.0816 39.2234 10.1211 39.2529ZM9.98309 38.9571C9.31284 38.5359 7.72609 37.6464 6.85634 37.2151C6.83584 36.3401 6.76559 34.3921 6.88134 33.1769C6.92634 32.6524 7.08409 32.1436 7.34459 31.6861C7.47118 31.7404 7.60854 31.7648 7.74609 31.7576C8.00234 31.7526 9.72109 31.8094 11.0921 31.8536C10.5648 32.7654 10.8921 32.9946 10.9788 33.0464C11.3928 33.2876 12.2388 32.6681 12.6616 32.1544C13.8348 30.7294 14.1366 30.5271 14.2461 30.4591C14.3408 30.4006 14.7526 30.1169 15.0688 30.5134C15.5671 31.1384 14.7073 32.1431 14.1868 32.7456C13.9083 33.0679 12.9901 33.9654 12.7651 34.7206C12.4823 35.6796 12.4651 37.8501 9.98309 38.9571ZM7.23834 30.5454C7.27284 30.2669 7.55384 30.2176 7.91334 30.2151C7.91334 30.2401 7.90359 31.4244 7.90359 31.5876C7.84434 31.5851 7.74584 31.5851 7.74584 31.5851C7.33184 31.5876 7.26534 31.4151 7.24809 31.2304C7.22849 31.0026 7.22523 30.7736 7.23834 30.5454ZM13.9698 30.4419C13.8641 30.5259 13.7628 30.6154 13.6666 30.7104L8.08334 30.5159C8.08584 30.4074 8.08584 30.3064 8.08584 30.2159C8.34134 30.2151 12.2068 30.3339 13.9698 30.4419ZM8.56134 30.0419C9.11584 29.6649 10.4956 28.8346 11.1583 28.8766C11.5156 28.8986 12.3461 29.1624 14.2703 30.2489C14.2481 30.2589 14.2063 30.2834 14.2063 30.2834C12.2721 30.1609 9.96084 30.0426 8.56134 30.0426V30.0419ZM13.5041 30.8774C13.3812 31.007 13.2629 31.1409 13.1493 31.2789L8.07859 31.0621C8.08109 30.9414 8.08109 30.8121 8.08334 30.6871L13.5041 30.8774ZM13.0113 31.4464C12.9398 31.5351 12.7846 31.7299 12.7773 31.7396C12.3023 31.7224 9.15784 31.6146 8.07734 31.5896C8.07734 31.5206 8.07734 31.3924 8.07984 31.2349L13.0113 31.4464ZM11.1043 32.1979C11.1618 32.0814 11.2268 31.9686 11.2988 31.8604C11.8853 31.8801 12.3853 31.8999 12.6416 31.9071C12.6023 31.9571 12.3706 32.2176 12.2843 32.2964C11.894 32.2341 11.4996 32.2014 11.1043 32.1986V32.1979ZM12.1268 32.4394C11.7018 32.7966 11.2608 32.9894 11.0673 32.8951C10.9121 32.8201 10.9923 32.5134 11.0376 32.3729C11.4013 32.3746 11.7646 32.3971 12.1258 32.4401L12.1268 32.4394ZM17.8676 31.2419C17.876 31.2253 17.88 31.2068 17.8792 31.1882C17.8783 31.1697 17.8727 31.1516 17.8628 31.1359C17.7628 30.9784 17.0496 30.7024 16.5298 30.5396C16.5988 30.3821 16.6751 30.2071 16.7613 30.0074C17.0496 30.0789 18.3363 30.5766 18.5613 30.6851C18.3324 31.301 18.0658 31.9021 17.7628 32.4851C17.5781 32.4309 16.8341 32.1081 16.3586 31.8939C16.8181 31.7601 17.7838 31.4251 17.8676 31.2426V31.2419ZM16.8943 30.8451C17.1671 30.936 17.4303 31.0532 17.6803 31.1951C17.4386 31.3274 17.1853 31.4379 16.9241 31.5254C16.8668 31.4222 16.8343 31.3071 16.8291 31.1891C16.8239 31.0712 16.8463 30.9537 16.8943 30.8459V30.8451ZM16.7318 30.7861C16.6761 30.9128 16.6492 31.0503 16.653 31.1886C16.6569 31.327 16.6914 31.4627 16.7541 31.5861C16.4831 31.6796 16.0813 31.7861 16.0616 31.7881L15.6723 31.4801C15.6723 31.4801 16.0403 31.3101 16.0473 31.2214C16.0473 31.1429 15.7491 30.8766 15.7491 30.8766C15.8741 30.7926 16.1336 30.5981 16.1336 30.5981C16.1798 30.6119 16.6406 30.7549 16.7318 30.7869V30.7861ZM15.5048 31.3799L15.3101 31.3724C15.3573 31.2343 15.3826 31.0897 15.3851 30.9439L15.5773 30.9486L15.8236 31.1951L15.5048 31.3799ZM15.5798 30.7761L15.3706 30.7689C15.3503 30.6859 15.3223 30.6051 15.2868 30.5274C15.4936 30.5421 15.6958 30.5544 15.8928 30.5669C15.7931 30.6441 15.6881 30.7144 15.5786 30.7769L15.5798 30.7761ZM15.4813 31.5524L15.8116 31.8111C15.5676 31.8284 15.2646 31.8406 15.0996 31.8456C15.1573 31.7486 15.2076 31.6474 15.2496 31.5426L15.4813 31.5524ZM13.8313 33.4076C13.9353 33.2826 14.2476 32.9359 14.2526 32.9296C14.5193 32.9709 14.7906 32.9744 15.0583 32.9396C14.9026 33.4834 14.3818 33.5434 13.8293 33.4084L13.8313 33.4076ZM14.1936 33.6369C14.1373 33.9986 13.8331 34.2754 13.2153 34.1869C13.3663 33.9656 13.53 33.7534 13.7056 33.5511C13.8635 33.5993 14.0267 33.6284 14.1916 33.6376L14.1936 33.6369ZM14.3956 32.7744C14.6107 32.5363 14.8111 32.2853 14.9956 32.0229C15.0571 32.0181 15.3456 32.0081 15.6263 31.9934C15.6527 32.0983 15.6512 32.2084 15.6218 32.3126C15.5924 32.4168 15.5362 32.5114 15.4588 32.5871C15.2451 32.8204 14.7056 32.8049 14.3936 32.7751L14.3956 32.7744ZM19.9418 30.9461C17.1353 38.2566 14.4546 39.4271 14.4498 39.4296C14.3216 39.4099 13.1021 38.8751 11.5128 38.1211C12.8921 36.7156 12.6561 35.0424 13.1216 34.3439C13.7426 34.4629 14.2798 34.2491 14.3683 33.6394C14.5802 33.6416 14.7857 33.5676 14.9476 33.431C15.1096 33.2945 15.2171 33.1043 15.2506 32.8951C15.4406 32.841 15.603 32.7168 15.705 32.5476C15.8071 32.3785 15.8412 32.1769 15.8006 31.9836C15.8256 31.9836 16.0958 31.9586 16.1208 31.9539C16.6208 32.1954 17.6263 32.6611 17.8136 32.6611C17.9718 32.6611 18.7123 30.8124 18.7386 30.6999C18.7464 30.6808 18.7489 30.66 18.7459 30.6396C18.7429 30.6192 18.7344 30.6001 18.7213 30.5841C18.7091 30.5716 16.8388 29.7661 16.6786 29.8326C16.6328 29.8529 16.6536 29.8231 16.3681 30.4879C15.9673 30.4002 15.5588 30.3523 15.1486 30.3451C15.0627 30.2579 14.9549 30.1953 14.8366 30.1641C14.7182 30.1329 14.5936 30.1341 14.4758 30.1676C12.8348 29.2339 11.7236 28.7411 11.1718 28.7041C10.8076 28.7181 10.4506 28.8096 10.1246 28.9726C9.93484 28.9284 9.10184 28.5869 8.79659 28.4504C8.78623 28.4456 8.77501 28.443 8.76362 28.4428C8.75222 28.4425 8.7409 28.4446 8.73034 28.4489C8.7198 28.4531 8.71021 28.4594 8.70211 28.4673C8.69401 28.4753 8.68757 28.4848 8.68315 28.4952C8.67874 28.5057 8.67643 28.5169 8.67638 28.5283C8.67633 28.5396 8.67852 28.5509 8.68284 28.5614C8.68722 28.5719 8.69366 28.5814 8.70177 28.5894C8.70988 28.5974 8.71951 28.6037 8.73009 28.6079C8.76709 28.6251 9.49884 28.9381 9.89059 29.0786C9.32092 29.3509 8.77704 29.6741 8.26559 30.0444C7.78609 30.0444 7.13434 29.9879 7.07059 30.5224C7.05459 30.7629 7.05809 31.0044 7.08034 31.2444C7.08334 31.3671 7.12959 31.4851 7.21109 31.5771C6.92715 32.0599 6.75621 32.6006 6.71109 33.1589C6.64709 33.8414 6.63959 34.8244 6.64709 35.6646C4.97659 34.7506 4.00334 34.0976 3.89234 33.8069C3.88009 33.7724 3.88734 33.7649 3.88984 33.7626C4.49359 33.0431 6.73984 29.4704 8.03659 27.0854C9.23284 24.8829 10.5711 20.3701 10.9021 19.9776C15.5946 21.4026 21.7393 21.7334 22.3176 21.9069C22.3323 22.3251 21.8051 26.0856 19.9398 30.9469L19.9418 30.9461Z" fill="#414141"/>
<path d="M16.2736 27.04C16.2486 27.04 10.7173 25.6687 10.2758 25.5792C10.2539 25.5742 10.2349 25.5608 10.2227 25.5419C10.2105 25.523 10.2062 25.5001 10.2107 25.4781C10.2152 25.456 10.228 25.4366 10.2466 25.424C10.2652 25.4113 10.2879 25.4064 10.3101 25.4102C10.6296 25.475 14.1963 26.3525 16.2941 26.8697C16.314 26.8753 16.3313 26.8878 16.3428 26.9051C16.3543 26.9223 16.3593 26.9431 16.3568 26.9636C16.3543 26.9842 16.3446 27.0032 16.3293 27.0172C16.314 27.0312 16.2943 27.0393 16.2736 27.04Z" fill="#414141"/>
<path d="M40.6403 33.3579C37.1248 36.2809 33.0566 40.5079 32.4653 40.8317C32.4653 40.8317 24.3503 36.9042 21.8926 27.4817C26.5331 25.0524 30.9966 21.2752 31.8618 21.0502C32.8506 22.8156 33.961 24.5102 35.1851 26.1214C35.2178 26.1629 37.0381 25.7357 37.0381 25.7357C37.0381 25.7357 37.6881 24.2974 39.6931 24.2027C41.4218 24.1209 41.8203 24.8924 41.8203 24.8924C41.8203 24.8924 43.7786 24.5004 44.0191 24.6047C44.2246 24.6934 44.3278 25.7412 44.2526 25.8547C44.1043 26.0797 42.5543 26.3209 42.5543 26.3209C43.1928 27.6298 43.498 29.0762 43.4428 30.5314C43.4428 30.5314 42.1948 31.1047 40.4153 32.7482C40.3573 32.8019 40.6403 33.3579 40.6403 33.3579Z" fill="white"/>
<path d="M35.2715 26.1162L36.8367 25.7815C36.8367 25.7815 35.8367 26.1535 36.6637 27.3542C36.3108 27.4662 35.9425 27.522 35.5722 27.5195L35.9347 27.0465L35.4237 26.7667L35.7965 26.404L35.2715 26.1162Z" fill="#016DAB"/>
<path d="M36.8359 25.7816L43.3577 24.6301C43.3577 24.6301 43.5882 25.9551 43.6034 26.1129L38.2842 27.1041C38.2842 27.1041 37.4974 25.8369 36.8359 25.7816Z" fill="#016DAB"/>
<path d="M34.4166 26.5726C34.5342 26.6732 34.6121 26.8126 34.636 26.9655C34.6598 27.1185 34.6282 27.275 34.5468 27.4066C34.5468 27.4066 33.5758 27.2846 33.5821 27.1926C33.5883 27.1006 34.4166 26.5726 34.4166 26.5726Z" fill="#016DAB"/>
<path d="M26.8149 28.0501C29.7869 26.3323 29.7884 25.9163 29.9251 26.0916C29.9322 26.1005 29.9375 26.1107 29.9406 26.1217C29.9437 26.1326 29.9445 26.1441 29.9431 26.1553C29.9418 26.1666 29.9382 26.1775 29.9326 26.1874C29.9271 26.1972 29.9196 26.2059 29.9106 26.2128C28.9594 26.9508 27.9533 27.6151 26.9011 28.2001C26.8812 28.2115 26.8576 28.2146 26.8355 28.2086C26.8133 28.2026 26.7944 28.1881 26.783 28.1682C26.7716 28.1483 26.7685 28.1247 26.7745 28.1026C26.7804 28.0804 26.795 28.0615 26.8149 28.0501Z" fill="#414141"/>
<path d="M24.6918 29.4466C24.6726 29.4468 24.6538 29.4404 24.6386 29.4286C24.6234 29.4167 24.6126 29.4001 24.6081 29.3813C24.6034 29.3627 24.6051 29.343 24.6129 29.3255C24.6208 29.3079 24.6343 29.2935 24.6513 29.2846C24.6578 29.2808 25.3083 28.9346 26.1826 28.4296C26.1924 28.4238 26.2033 28.4201 26.2146 28.4187C26.2259 28.4172 26.2374 28.418 26.2483 28.4211C26.2649 28.4255 26.2797 28.4347 26.291 28.4475C26.3023 28.4604 26.3095 28.4764 26.3116 28.4933C26.313 28.5046 26.3122 28.5161 26.3093 28.5271C26.3063 28.538 26.3012 28.5483 26.2943 28.5573C26.2873 28.5663 26.2787 28.5738 26.2688 28.5796C26.2098 28.6128 24.7586 29.4466 24.6918 29.4466Z" fill="#414141"/>
<path d="M26.4124 32.4138C26.3935 32.4138 26.3752 32.4076 26.3602 32.3962C26.3451 32.3847 26.3343 32.3687 26.3293 32.3505C26.3243 32.3323 26.3253 32.313 26.3324 32.2955C26.3394 32.278 26.3519 32.2632 26.3681 32.2536C26.4034 32.2331 29.8846 30.1513 31.8819 28.5176C31.8997 28.5043 31.9219 28.4984 31.9439 28.5011C31.9659 28.5038 31.986 28.5149 32.0001 28.5321C32.0141 28.5492 32.021 28.5711 32.0194 28.5932C32.0177 28.6153 32.0076 28.636 31.9911 28.6508C30.2119 30.0203 28.3486 31.2771 26.4124 32.4138Z" fill="#414141"/>
<path d="M32.8859 32.3654C33.2109 32.1057 33.5324 31.8502 33.8314 31.5604C33.8395 31.5525 33.8491 31.5462 33.8596 31.5421C33.8701 31.5379 33.8813 31.5359 33.8927 31.5362C33.9154 31.5367 33.9371 31.546 33.9532 31.5622C33.9611 31.5702 33.9673 31.5798 33.9715 31.5903C33.9757 31.6008 33.9777 31.6121 33.9774 31.6234C33.9768 31.6462 33.9675 31.6678 33.9514 31.6839C33.6477 31.9752 33.3214 32.2372 32.9937 32.5002C32.9848 32.5072 32.9747 32.5125 32.9638 32.5156C32.9529 32.5188 32.9415 32.5198 32.9302 32.5185C32.919 32.5173 32.9081 32.5138 32.8982 32.5083C32.8882 32.5029 32.8795 32.4955 32.8724 32.4867C32.8653 32.4778 32.8601 32.4677 32.8569 32.4568C32.8538 32.4459 32.8528 32.4345 32.854 32.4232C32.8553 32.412 32.8588 32.4011 32.8642 32.3912C32.8697 32.3812 32.8771 32.3725 32.8859 32.3654Z" fill="#414141"/>
<path d="M28.6953 35.5134C28.6762 35.5134 28.6577 35.507 28.6427 35.4953C28.6276 35.4836 28.617 35.4672 28.6123 35.4487C28.6073 35.4302 28.6087 35.4107 28.6162 35.3931C28.6237 35.3756 28.6368 35.3611 28.6536 35.3519C29.9379 34.6104 31.1655 33.7748 32.3263 32.8519C32.3352 32.8448 32.3453 32.8396 32.3562 32.8364C32.3671 32.8333 32.3785 32.8323 32.3897 32.8335C32.401 32.8348 32.4119 32.8382 32.4218 32.8437C32.4317 32.8492 32.4405 32.8566 32.4476 32.8654C32.4546 32.8742 32.4599 32.8844 32.4631 32.8953C32.4662 32.9062 32.4672 32.9176 32.4659 32.9288C32.4647 32.9401 32.4612 32.951 32.4558 32.9609C32.4503 32.9708 32.4429 32.9796 32.4341 32.9866C30.8666 34.2434 28.7931 35.5134 28.6953 35.5134Z" fill="#414141"/>
<path d="M31.3777 37.7167C31.4042 37.6965 34.0564 35.6667 35.8307 33.7007C35.8423 33.6888 35.8571 33.6805 35.8734 33.6767C35.8896 33.673 35.9066 33.6741 35.9223 33.6798C35.9379 33.6855 35.9516 33.6956 35.9617 33.7089C35.9717 33.7222 35.9777 33.7381 35.9789 33.7547C35.9804 33.7771 35.9732 33.7991 35.9587 33.8162C34.1737 35.7945 31.5087 37.8335 31.4822 37.854C31.4732 37.8609 31.4629 37.8659 31.4519 37.8688C31.4409 37.8718 31.4295 37.8725 31.4182 37.8709C31.407 37.8694 31.3962 37.8656 31.3864 37.8599C31.3766 37.8542 31.368 37.8465 31.3612 37.8375C31.3474 37.8192 31.3415 37.7963 31.3445 37.7737C31.3476 37.7511 31.3595 37.7306 31.3777 37.7167Z" fill="#414141"/>
<path d="M31.5074 25.0337C31.487 25.0235 31.4714 25.0057 31.4639 24.9842C31.4564 24.9627 31.4575 24.9391 31.4672 24.9184C31.4747 24.9031 31.4865 24.8902 31.5012 24.8816C31.5159 24.8729 31.5329 24.8688 31.5499 24.8697C31.5612 24.8703 31.5723 24.8732 31.5824 24.8782C31.7027 24.9368 31.8253 24.9908 31.9497 25.0402C31.9344 24.8442 31.8604 24.3772 31.8182 24.1902C31.8145 24.1684 31.8193 24.146 31.8317 24.1276C31.844 24.1093 31.8629 24.0963 31.8845 24.0915C31.906 24.0866 31.9286 24.0902 31.9476 24.1015C31.9666 24.1128 31.9806 24.1309 31.9867 24.1522C31.9889 24.1622 32.2097 25.1429 32.0767 25.2204C32.0002 25.2647 31.8464 25.1969 31.5074 25.0337Z" fill="#016DAB"/>
<path d="M32.1119 23.4392C32.0958 23.4236 32.0762 23.4121 32.0548 23.4057C32.0333 23.3993 32.0107 23.3981 31.9887 23.4022C31.9714 23.4097 30.4414 24.2499 30.4414 24.4864C30.7411 25.0608 31.1057 25.599 31.5279 26.0904C31.5884 26.1249 31.6594 26.0904 31.7279 26.0559C31.8879 25.9772 33.1914 25.1862 33.2012 25.0432C33.2109 24.9199 32.3129 23.6039 32.1119 23.4392ZM31.5994 25.9254C31.239 25.47 30.9121 24.9891 30.6212 24.4864C31.0601 24.1473 31.5257 23.844 32.0134 23.5797C32.3871 24.03 32.7217 24.5114 33.0134 25.0187C32.5645 25.3544 32.0919 25.6572 31.5994 25.9249V25.9254Z" fill="#414141"/>
<path d="M35.8789 28.7836C35.8655 28.7679 35.849 28.7551 35.8304 28.7461C35.8117 28.7372 35.7913 28.7324 35.7707 28.7318C35.2485 29.0534 34.7671 29.437 34.3369 29.8741C34.2672 29.9583 34.2587 29.9828 34.3229 30.0853C34.6493 30.5653 35.0247 31.0101 35.4429 31.4126C35.4577 31.4226 35.4749 31.4161 35.4897 31.4248C35.5679 31.4726 37.0146 30.3631 37.0146 30.2176C37.0124 30.0896 35.9949 28.8896 35.8789 28.7836ZM35.5022 31.2451C35.1254 30.8521 34.7778 30.4321 34.4622 29.9886C34.8692 29.5972 35.3059 29.2378 35.7682 28.9136C36.1442 29.3256 36.4971 29.7583 36.8252 30.2096C36.4092 30.5856 35.9671 30.9316 35.5022 31.2451Z" fill="#414141"/>
<path d="M37.7449 31.0382C37.7104 31.0087 37.6809 30.9792 37.6316 30.9839C37.5209 30.9952 36.1211 32.0239 36.1754 32.2407C36.4981 32.7104 36.8672 33.1465 37.2771 33.5424C37.3609 33.6114 37.3891 33.6092 37.4854 33.5564C37.8354 33.3654 38.8784 32.5377 38.8759 32.4107C38.8734 32.2837 37.8516 31.1344 37.7449 31.0382ZM37.3876 33.4132C37.0137 33.0389 36.6686 32.637 36.3554 32.2107C36.7544 31.8324 37.1801 31.4834 37.6291 31.1662C38.0039 31.5588 38.356 31.9726 38.6836 32.4054C38.2762 32.7718 37.8431 33.1087 37.3876 33.4134V33.4132Z" fill="#414141"/>
<path d="M48.7437 34.6751C48.6107 33.8966 44.7965 30.4766 44.4812 30.2326C44.2642 30.0626 44.1115 30.1096 43.7445 30.2624C43.6755 30.2919 43.6015 30.3239 43.5277 30.3584C43.4735 28.3584 43.1397 27.3441 42.6627 26.3816C43.131 26.2954 43.6755 26.1796 43.6755 26.1796C44.5565 25.9756 44.4297 25.8451 44.2422 24.8689C44.156 24.4251 43.8527 24.4769 43.53 24.5361C43.466 24.5459 42.5672 24.6801 41.907 24.7911C41.4027 24.0251 38.4682 23.4256 36.9242 25.6794C36.8665 25.6794 35.32 26.0019 35.2192 26.0464C34.0304 24.4614 32.9528 22.7959 31.9942 21.0619C31.6722 20.4579 28.2667 23.9344 21.9095 27.3599C21.8891 27.3746 21.8729 27.3944 21.8625 27.4172C21.8521 27.4401 21.8479 27.4653 21.8502 27.4904C21.843 28.2404 24.0777 36.1654 32.3957 40.9139C32.8012 41.1164 37.6237 35.8246 40.5515 33.5491C41.3015 35.2024 43.7397 39.0044 44.1142 38.9796C46.4842 38.8144 48.9062 35.6284 48.7437 34.6751ZM38.3212 27.0124C38.2597 26.9211 38.1932 26.8276 38.1267 26.7339L43.4685 25.7606C43.4882 25.8764 43.503 25.9751 43.5152 26.0391C42.9337 26.1751 38.3462 26.9871 38.3212 27.0121V27.0124ZM38.7155 27.5471C38.6164 27.4221 38.5203 27.2947 38.4272 27.1651C38.6145 27.1281 39.2107 27.0221 39.9327 26.8901C40.06 27.0201 40.1555 27.1779 40.2112 27.3509C39.674 27.3941 38.7945 27.5344 38.7155 27.5469V27.5471ZM40.2555 27.5199C40.2555 27.5199 40.3877 27.9424 40.061 28.0866C39.7052 28.2436 39.2897 28.1366 38.8585 27.6999C39.137 27.6576 39.8292 27.5516 40.2555 27.5196V27.5199ZM43.562 24.7061C43.917 24.6421 44.0205 24.6346 44.0745 24.9009C44.1448 25.1643 44.1877 25.4342 44.2027 25.7064C44.2052 25.8666 44.018 25.9234 43.6827 26.0021C43.641 25.7459 43.5227 25.0191 43.461 24.7234C43.4955 24.7156 43.53 24.7109 43.562 24.7059V24.7061ZM43.3797 25.2311C43.3995 25.3494 43.4217 25.4726 43.4415 25.5909L38.0132 26.5789C37.915 26.4431 37.808 26.3139 37.693 26.1921L43.3797 25.2311ZM41.7015 24.8251C40.334 25.0541 38.4287 25.3956 37.187 25.6271C38.2347 24.0656 40.821 23.9771 41.7015 24.8251ZM43.2875 24.7476C43.3047 24.8239 43.3245 24.9349 43.3492 25.0604L37.5367 26.0411C37.4279 25.9398 37.3006 25.8604 37.1617 25.8071C38.4395 25.5659 42.882 24.8044 43.2885 24.7479L43.2875 24.7476ZM36.5192 25.9301C36.4104 26.0106 36.3301 26.1236 36.29 26.2529C36.29 26.2529 35.8417 26.3294 35.8367 26.3319L35.4795 26.1396C35.6825 26.0956 36.0495 26.0216 36.5202 25.9304L36.5192 25.9301ZM36.6817 28.8301C36.5502 28.7191 36.4679 28.5606 36.4527 28.3891C36.7169 28.4596 36.9952 28.4579 37.2585 28.3844C37.3979 28.5553 37.5193 28.7402 37.6205 28.9361C37.4665 28.9911 37.3019 29.0101 37.1394 28.9918C36.9769 28.9735 36.8207 28.9183 36.6827 28.8304L36.6817 28.8301ZM37.702 29.0914C37.7635 29.2096 37.8202 29.3304 37.872 29.4511C37.626 29.5269 37.3604 29.5048 37.1302 29.3896C37.0283 29.3266 36.9483 29.2336 36.9012 29.1234C37.1673 29.1762 37.442 29.1653 37.703 29.0916L37.702 29.0914ZM36.2852 28.1059C36.104 27.9576 36.199 27.6746 36.2235 27.5489C36.2777 27.5391 36.5807 27.4824 36.6277 27.4739C36.7805 27.7276 36.9652 27.9839 37.1475 28.2326C37.0036 28.277 36.8516 28.2887 36.7026 28.2668C36.5536 28.2449 36.4113 28.19 36.2862 28.1061L36.2852 28.1059ZM35.7307 27.4431L35.9807 27.1104C35.9882 27.1154 36.4022 27.0464 36.4022 27.0464C36.4412 27.1381 36.4847 27.2276 36.5327 27.3149C36.2758 27.4063 36.0044 27.4499 35.7317 27.4434L35.7307 27.4431ZM35.5705 26.7581L35.859 26.4944L36.2605 26.4329C36.2573 26.5859 36.2832 26.7381 36.337 26.8814L35.9722 26.9526L35.5705 26.7581ZM35.2527 26.2136L35.6692 26.4354L35.3587 26.7161C35.3483 26.7256 35.3405 26.7376 35.3358 26.7509C35.3311 26.7642 35.3298 26.7784 35.332 26.7924C35.3343 26.8063 35.3399 26.8194 35.3485 26.8306C35.357 26.8418 35.3682 26.8507 35.381 26.8566C35.381 26.8566 35.7875 27.0661 35.7947 27.0734L35.509 27.4504C35.1877 27.4401 34.7175 27.3594 34.6712 27.3594C34.7087 27.2839 34.7315 27.2019 34.7377 27.1179C34.7494 26.9232 34.6908 26.7308 34.5727 26.5756C34.7969 26.4497 35.0239 26.3291 35.2537 26.2139L35.2527 26.2136ZM34.8437 27.5984C34.4096 27.9491 33.9564 28.2756 33.4862 28.5764C33.1373 28.1375 32.8195 27.6748 32.535 27.1916C32.9497 26.8399 33.3895 26.5188 33.8507 26.2309C33.9695 26.3474 34.0767 26.4754 34.171 26.6126C34.1687 26.6151 33.4777 27.0464 33.491 27.1844C33.4917 27.1998 33.4959 27.2148 33.5032 27.2285C33.5104 27.2421 33.5206 27.2539 33.533 27.2631C33.9547 27.3851 34.3832 27.4814 34.8167 27.5514C34.83 27.5714 34.8372 27.5861 34.8447 27.5986L34.8437 27.5984ZM34.42 26.6644C34.4975 26.7552 34.5458 26.8673 34.5585 26.986C34.5713 27.1046 34.5479 27.2244 34.4915 27.3296C34.2212 27.2896 33.954 27.2321 33.6915 27.1571C33.778 27.0736 34.4185 26.6671 34.421 26.6646L34.42 26.6644ZM40.3777 33.1144C40.4027 33.1934 40.4367 33.2844 40.4777 33.3856C37.0815 36.1856 32.6657 40.8226 32.4602 40.7501C24.3415 36.1056 21.996 28.1029 22.0205 27.4944C24.7346 25.9972 27.3442 24.3178 29.8312 22.4679C30.834 21.7459 31.6987 21.1226 31.8417 21.1449C32.7997 22.8759 33.8755 24.5391 35.0615 26.1226C34.857 26.2226 34.581 26.3726 34.3175 26.5266C34.2085 26.3704 34.0865 26.2237 33.9527 26.0881C33.9281 26.0673 33.8983 26.0537 33.8665 26.0486C33.7647 26.0196 32.3562 27.0146 32.3562 27.1699C32.3062 27.2449 33.3245 28.7604 33.47 28.7639C33.603 28.7674 34.855 27.8254 34.968 27.7169C35.0137 27.6729 35.043 27.6349 35.018 27.5764C35.3615 27.6324 35.7115 27.6331 36.0552 27.5789C35.863 28.1336 36.24 28.2896 36.277 28.3094C36.2725 28.4583 36.3089 28.6057 36.3823 28.7354C36.4558 28.8651 36.5634 28.9721 36.6935 29.0449C36.9565 29.8531 37.7997 29.6484 37.945 29.6116C38.1477 30.14 38.4028 30.6468 38.7065 31.1244C39.2022 31.7277 39.9049 32.1248 40.6775 32.2381C40.2035 32.6714 40.2692 32.7631 40.3787 33.1151L40.3777 33.1144ZM40.8385 32.0944C39.5657 31.8859 39.0542 31.2756 38.8402 31.0176C38.343 30.4189 38.121 29.2741 37.4925 28.4134C37.142 27.9778 36.835 27.5089 36.576 27.0134C36.551 26.9589 36.2402 26.3304 36.667 26.0326C37.2597 25.6194 37.9555 26.7974 38.367 27.3804C38.9557 28.2054 39.617 28.4966 40.1482 28.2329C40.7355 27.9409 40.3267 27.0454 40.131 26.8506L42.4842 26.4146C42.9592 27.3566 43.312 28.3974 43.3562 30.4381C42.4589 30.8961 41.6148 31.4518 40.8395 32.0951L40.8385 32.0944Z" fill="#414141"/>
<path d="M7.87695 15.2635C7.87695 15.2635 8.43795 16.0563 9.3587 16.0028C10.2795 15.9493 10.9902 15.5458 11.3152 15.6433C11.5437 15.8435 11.841 15.9472 12.1445 15.9325C12.642 15.9018 13.0695 15.725 12.727 15.0508C12.832 14.9557 12.9111 14.8354 12.9566 14.7012C13.0022 14.567 13.0128 14.4234 12.9875 14.284C12.9875 14.284 13.3237 14.0033 13.0892 13.4055C13.0892 13.4055 13.5585 12.6978 12.6555 12.215C12.1395 11.94 11.0305 12.082 11.0305 12.082C11.0305 12.082 12.0027 9.85203 11.0202 9.66528C10.1872 9.50678 10.5425 11.6325 9.77345 12.0403C9.60345 12.1305 8.6037 12.312 8.0642 12.643L7.87695 15.2635Z" fill="white"/>
<path d="M13.1875 13.3901C13.2444 13.2978 13.2826 13.1952 13.2998 13.0882C13.3171 12.9812 13.3131 12.8718 13.288 12.7663C13.263 12.6608 13.2174 12.5613 13.1538 12.4735C13.0903 12.3856 13.0101 12.3112 12.9178 12.2543C12.42 11.8981 11.545 11.9696 11.1488 11.9961C11.69 10.7293 11.7353 9.65009 11.0183 9.56309C10.6433 9.51734 10.3683 9.90534 10.2958 10.5811C10.234 11.1576 9.97076 11.9861 9.63526 12.0421C9.12776 12.1228 8.63526 12.2796 8.17426 12.5071C8.19776 12.2161 8.17726 12.2023 8.11101 12.1841C6.2015 11.6631 2.9965 11.7251 2.964 11.7268C2.95049 11.7271 2.93722 11.7306 2.92528 11.7369C2.91334 11.7432 2.90305 11.7523 2.89525 11.7633C1.79225 13.3383 1.96475 14.6783 2.30375 15.5258C2.615 16.3038 3.12875 16.7978 3.30625 16.8336C3.78925 16.9301 7.66651 16.1701 7.92476 15.9368C7.99201 15.8766 7.94976 15.8763 7.94775 15.4431C8.12434 15.6584 8.34846 15.8298 8.60249 15.9438C8.85652 16.0578 9.13354 16.1113 9.41176 16.1001C10.3495 16.0668 10.6958 15.6693 11.31 15.7501C11.9755 16.2001 12.7633 15.9543 12.8748 15.7151C12.9131 15.6056 12.9277 15.4893 12.9175 15.3737C12.9073 15.2582 12.8726 15.1462 12.8158 15.0451C12.8898 14.9983 12.9543 14.9376 13.0055 14.8666C13.0604 14.779 13.0966 14.6811 13.112 14.5789C13.1273 14.4767 13.1215 14.3724 13.0948 14.2726C13.1819 14.1446 13.236 13.997 13.2522 13.843C13.2684 13.689 13.2462 13.5334 13.1875 13.3901ZM12.7248 15.6308C12.5228 15.9831 11.3455 15.8328 11.2938 15.4353C11.2805 15.3331 11.382 15.2441 11.5725 15.1906C11.9354 15.2703 12.3132 15.2496 12.6653 15.1306C12.7118 15.2043 12.7413 15.2874 12.7516 15.374C12.7619 15.4605 12.7527 15.5483 12.7248 15.6308ZM12.862 14.7718C12.6653 15.1306 11.393 15.2246 11.25 14.7603C11.2143 14.6438 11.2883 14.5083 11.4583 14.3821C11.9306 14.5853 12.4642 14.5928 12.942 14.4028C12.9529 14.5311 12.925 14.6596 12.862 14.7718ZM12.3533 14.3773C11.739 14.3796 11.365 14.2166 11.325 14.0303C11.3091 13.9511 11.319 13.8688 11.3534 13.7956C11.3878 13.7224 11.4448 13.6622 11.516 13.6238C12.5375 13.9163 12.8998 13.6908 13.0523 13.5363C13.1863 14.0413 12.9765 14.3688 12.3533 14.3773ZM13.0913 13.2163C13.02 13.3487 12.9104 13.4564 12.7769 13.5253C12.6434 13.5943 12.4921 13.6213 12.343 13.6028C11.8193 13.5683 11.1733 13.4516 11.3143 13.0028C11.3933 12.7516 12.0445 12.7876 12.2643 12.8141C12.2864 12.8163 12.3085 12.8099 12.3261 12.7962C12.3436 12.7825 12.3552 12.7625 12.3584 12.7405C12.3616 12.7185 12.3562 12.6961 12.3434 12.6779C12.3305 12.6598 12.3111 12.6473 12.2893 12.6431C12.1875 12.6293 11.3083 12.5228 11.151 12.9486C11.1124 13.0552 11.1129 13.1721 11.1523 13.2785C11.1917 13.3849 11.2675 13.4738 11.3663 13.5296C10.9333 13.9573 11.238 14.2268 11.3035 14.2833C10.7953 14.7243 11.2198 15.0236 11.3513 15.0941C11.3044 15.1096 11.2616 15.1352 11.2258 15.1692C11.19 15.2031 11.1621 15.2446 11.1441 15.2905C11.1262 15.3365 11.1186 15.3858 11.1219 15.4351C11.1252 15.4843 11.1393 15.5322 11.1633 15.5753C10.8953 15.5824 10.6307 15.6365 10.3815 15.7353C10.0498 15.8486 8.73626 16.3388 7.9505 15.1628C8.06176 13.3431 8.09576 12.9546 8.15526 12.7128C8.62639 12.462 9.13646 12.2925 9.66401 12.2113C10.189 12.1238 10.4255 10.9893 10.4675 10.5986C10.4905 10.3856 10.596 9.67784 11.0013 9.73409C11.5313 9.80759 11.5383 10.6981 10.9338 12.0573C10.9277 12.0711 10.9254 12.0862 10.9269 12.1012C10.9285 12.1161 10.9339 12.1304 10.9427 12.1426C10.9514 12.1548 10.9632 12.1646 10.9768 12.1709C10.9905 12.1772 11.0055 12.1799 11.0205 12.1786C13.2375 11.8881 13.2093 12.9413 13.0913 13.2163Z" fill="#414141"/>
<path d="M8.7288 14.0526C8.97325 14.0001 9.19973 13.8845 9.38575 13.7174C9.57178 13.5504 9.71089 13.3376 9.78929 13.1001C9.79225 13.0889 9.79745 13.0784 9.80456 13.0692C9.81168 13.06 9.82058 13.0523 9.83072 13.0467C9.84086 13.041 9.85204 13.0374 9.8636 13.0362C9.87515 13.0349 9.88684 13.036 9.89796 13.0393C9.90909 13.0427 9.91942 13.0483 9.92834 13.0557C9.93727 13.0632 9.9446 13.0723 9.94991 13.0827C9.95521 13.093 9.95838 13.1043 9.95922 13.1159C9.96006 13.1275 9.95855 13.1391 9.9548 13.1501C9.86915 13.4195 9.71315 13.6612 9.5029 13.8502C9.29266 14.0392 9.03578 14.1686 8.75879 14.2251C8.73592 14.2291 8.7124 14.2238 8.69341 14.2105C8.67443 14.1971 8.66152 14.1767 8.65755 14.1539C8.65357 14.131 8.65884 14.1075 8.6722 14.0885C8.68556 14.0695 8.70592 14.0566 8.7288 14.0526Z" fill="#414141"/>
<path d="M39.236 17.5457L39.6925 16.1697L40.3943 17.5117L41.8038 17.7109L40.7758 18.4859L41.13 19.8144L39.8628 19.0922L38.514 20.0052L38.984 18.4927L37.8105 17.7484L39.236 17.5457Z" fill="#FDAF31"/>
<path d="M38.4982 20.1025C38.4841 20.1028 38.47 20.0997 38.4573 20.0935C38.4445 20.0872 38.4335 20.0781 38.425 20.0667C38.3442 19.9627 38.75 18.8602 38.873 18.5365C38.55 18.3552 37.942 17.953 37.9345 17.9475C37.7922 17.838 37.751 17.7822 37.764 17.718C37.7837 17.6192 37.846 17.5815 38.9375 17.5065C39.0375 17.4997 39.1375 17.4927 39.1945 17.4877C39.2735 17.185 39.5695 16.093 39.6445 16.0422C39.656 16.0335 39.6697 16.028 39.6841 16.0264C39.6985 16.0248 39.713 16.027 39.7262 16.033C39.8222 16.088 40.4402 17.4237 40.461 17.466C40.5285 17.4745 41.8195 17.6227 41.8485 17.6447C41.8631 17.6559 41.874 17.6714 41.8794 17.689C41.8849 17.7066 41.8847 17.7254 41.879 17.743C41.5603 18.0207 41.2233 18.2767 40.8702 18.5092C40.9985 18.8465 41.2255 19.8392 41.2255 19.8497C41.2255 19.8727 41.2163 19.8948 41.2001 19.911C41.1838 19.9273 41.1617 19.9365 41.1387 19.9365C41.1092 19.9365 39.9557 19.2385 39.8735 19.1802C39.4403 19.5236 38.9804 19.832 38.4982 20.1025ZM39.0532 18.5415C39.0032 18.6542 38.6967 19.528 38.6032 19.8725C38.9177 19.6842 39.814 19.0175 39.8172 19.0142C39.8348 18.9982 39.8579 18.9897 39.8817 18.9905C39.9055 18.9914 39.9279 19.0016 39.9442 19.019C40.0375 19.0875 40.7002 19.4967 41.012 19.681C40.7227 18.52 40.6302 18.4752 40.72 18.4085C40.747 18.3885 41.2635 18.027 41.599 17.7702C41.394 17.7452 40.3967 17.648 40.3432 17.6057C40.3042 17.575 39.838 16.5692 39.7087 16.3152C39.598 16.661 39.3587 17.556 39.3135 17.6152C39.1227 17.6935 38.5707 17.6765 37.9885 17.7717C38.1987 17.948 39.0022 18.4135 39.006 18.4157C39.0277 18.4275 39.0444 18.4467 39.0531 18.4698C39.0618 18.4929 39.0618 18.5183 39.0532 18.5415Z" fill="#414141"/>
<path d="M17.9534 42.8813L18.5716 41.947L18.9856 42.9435L19.9359 43.2755L19.1336 43.8018L19.4404 44.873L18.3826 44.2923L17.2586 44.7548L17.6826 43.72L16.9316 43.0253L17.9534 42.8813Z" fill="#FDAF31"/>
<path d="M19.4818 45.0125C19.4153 45.0125 19.2363 44.9078 18.3818 44.4048C17.979 44.5663 17.2648 44.8668 17.2425 44.8628C17.2229 44.8588 17.2052 44.8481 17.1925 44.8327C17.1798 44.8172 17.1727 44.7978 17.1725 44.7778C17.1725 44.7615 17.4303 44.1293 17.5863 43.7383C16.8415 43.0793 16.8418 43.061 16.8418 43.0133C16.8418 42.9168 16.8418 42.9078 17.9293 42.7995C18.4838 41.8633 18.5113 41.8633 18.571 41.8633C18.6408 41.8633 18.6675 41.8633 19.071 42.8883C20.0385 43.1853 20.0348 43.2115 20.0233 43.2958C20.0165 43.3433 20.0118 43.3748 19.2293 43.8315C19.3381 44.1896 19.4459 44.5479 19.5528 44.9065C19.5563 44.9299 19.551 44.9537 19.5379 44.9733C19.5247 44.9929 19.5047 45.0069 19.4818 45.0125ZM18.3898 44.223C18.4053 44.223 18.4203 44.227 18.4335 44.2348C18.7053 44.395 19.1035 44.6273 19.329 44.7548L19.0458 43.816C19.0113 43.702 19.132 43.716 19.7738 43.3003C19.0618 43.0363 18.9593 43.0735 18.9273 42.9898C18.7928 42.6485 18.6403 42.2783 18.5603 42.1045C18.0675 42.8458 18.0853 42.957 17.9905 42.967C17.702 42.9958 17.3093 43.0383 17.1015 43.067C17.7313 43.6583 17.8078 43.65 17.7695 43.7458C17.6565 44.0344 17.5406 44.3219 17.4218 44.6083C17.4688 44.5883 18.352 44.223 18.3898 44.223Z" fill="#414141"/>
<path d="M20.8301 42.9843L21.8776 42.8413L22.3188 41.8635L22.7818 42.826L23.8088 43.0098L23.0681 43.6128L23.5008 44.7828L22.3986 44.2208L21.2541 44.7828L21.6373 43.6895L20.8301 42.9843Z" fill="#016DAB"/>
<path d="M23.5246 44.8732C23.4551 44.8732 23.2616 44.7702 22.3948 44.3072C21.9836 44.5072 21.2586 44.8727 21.2366 44.8707C21.2176 44.8681 21.2 44.8594 21.1864 44.8458C21.1729 44.8323 21.1641 44.8147 21.1616 44.7957C21.1593 44.7779 21.3993 44.1272 21.5466 43.7172C20.7366 43.0607 20.7343 43.0422 20.7291 42.9997C20.7264 42.976 20.7332 42.9523 20.7481 42.9337C20.7751 42.8999 20.7936 42.8774 21.8231 42.7744C22.2111 41.7709 22.2393 41.7679 22.3003 41.7609C22.3753 41.7539 22.4003 41.7472 22.8321 42.7542C23.9088 42.9042 23.9083 42.9292 23.9071 43.0189C23.9056 43.0669 23.9046 43.0987 23.1768 43.6439C23.2653 43.8819 23.5848 44.7412 23.5921 44.7597C23.5971 44.7715 23.5992 44.7844 23.5983 44.7972C23.5975 44.81 23.5936 44.8224 23.587 44.8335C23.5804 44.8445 23.5714 44.8539 23.5605 44.8608C23.5497 44.8677 23.5374 44.8719 23.5246 44.8732ZM22.3966 44.1252C22.4108 44.1252 22.4248 44.1287 22.4373 44.1352C22.7156 44.2839 23.1211 44.4989 23.3546 44.6187L22.9913 43.6437C22.9531 43.5404 23.0488 43.5514 23.6498 43.0589C23.4601 43.0219 23.0953 42.9654 22.7601 42.9189C22.6601 42.9054 22.6976 42.8049 22.3141 42.0234C21.9583 42.8279 21.9971 42.9307 21.8928 42.9417C21.6036 42.9702 21.2116 43.0129 20.9983 43.0417C21.6998 43.6402 21.7636 43.6242 21.7293 43.7184C21.6249 44.0133 21.518 44.3073 21.4088 44.6004C21.4606 44.5719 22.3556 44.1252 22.3966 44.1252Z" fill="#FDAF31"/>
<path d="M25.7809 42.8313L26.1786 41.8296L26.6181 42.7341L27.7779 42.8313L26.9809 43.6181L27.2569 44.7828L26.2351 44.1443L25.1466 44.7573L25.4684 43.6333L24.6816 42.9383L25.7809 42.8313Z" fill="#FDAF31"/>
<path d="M27.3041 44.9201C27.2391 44.9201 27.0676 44.8036 26.2306 44.2326C25.8371 44.4608 25.1544 44.8733 25.1306 44.8708C25.1107 44.8696 25.0919 44.8613 25.0774 44.8476C25.0627 44.834 25.0533 44.8157 25.0509 44.7958C25.0491 44.7808 25.2456 44.0841 25.3659 43.6458C24.5909 42.9971 24.5276 42.9536 24.6014 42.8663C24.6294 42.8331 24.6484 42.8111 25.7179 42.7493C26.0756 41.7273 26.1026 41.7243 26.1679 41.7171C26.2406 41.7091 26.2679 41.7043 26.6874 42.6598C27.8946 42.7223 27.8939 42.7441 27.8909 42.8451C27.8909 42.8878 27.8889 42.9201 27.0806 43.6531C27.1765 44.039 27.2738 44.4246 27.3724 44.8098C27.3757 44.8216 27.3766 44.8339 27.375 44.8459C27.3733 44.858 27.3692 44.8697 27.3629 44.8801C27.3565 44.8906 27.348 44.8996 27.3379 44.9065C27.3277 44.9134 27.3162 44.918 27.3041 44.9201ZM27.1511 44.6451L26.8994 43.6428C26.8744 43.5443 26.9679 43.5528 27.6359 42.8966C27.4261 42.8748 27.0086 42.8466 26.6244 42.8276C26.5214 42.8223 26.5584 42.7276 26.1844 41.9806C25.8496 42.8056 25.8954 42.9103 25.7844 42.9163C25.4401 42.9358 25.0626 42.9613 24.8536 42.9806C25.5286 43.5736 25.5704 43.5488 25.5464 43.6361C25.4608 43.954 25.3725 44.2712 25.2814 44.5876C25.4449 44.4876 25.7224 44.3266 26.1906 44.0553C26.2649 44.0141 26.2526 44.0501 27.1504 44.6461L27.1511 44.6451Z" fill="#414141"/>
<path d="M39.7605 42.7664C39.7325 42.8859 39.6923 43.4749 40.8855 43.4614C42.0788 43.4479 42.4855 43.3864 42.5955 42.2759C42.7055 41.1654 42.442 40.1859 41.8393 39.9664C41.3625 39.7914 39.7143 39.5371 39.707 40.2731C39.706 40.2731 40.1693 41.0089 39.7605 42.7664Z" fill="#87E4FF"/>
<path d="M37.3945 44.9363C37.2378 44.9223 36.4338 44.7675 37.3383 43.0968C37.3383 43.0968 35.9883 43.3675 35.9175 42.923C35.8468 42.4785 36.656 42.4018 36.656 42.4018C36.656 42.4018 35.8413 42.3815 35.8208 42.0443C35.8003 41.707 36.5003 41.5943 36.5003 41.5943C36.5003 41.5943 35.831 41.5278 35.8615 41.1805C35.892 40.8333 36.5718 40.6805 36.5718 40.6805C36.5718 40.6805 36.015 40.5578 36.1375 40.2103C36.26 39.8628 37.231 39.679 38.0125 39.7403C38.794 39.8015 39.5375 39.9585 39.7055 40.2735C39.9898 40.8083 39.9633 42.3325 39.6448 42.9253C39.6448 42.9253 38.2398 43.432 38.1148 43.557C37.798 43.8733 37.856 44.977 37.3945 44.9363Z" fill="white"/>
<path d="M42.2691 40.1328C41.7671 39.5848 40.3371 39.6473 39.9548 39.7918C39.8903 39.8213 39.8327 39.8642 39.7859 39.9175C39.7391 39.9708 39.704 40.0335 39.6831 40.1013C39.1481 39.512 36.2456 39.4553 36.0706 40.1948C36.0418 40.288 36.0499 40.3888 36.0932 40.4762C36.1365 40.5637 36.2117 40.6312 36.3033 40.6648C36.0458 40.7438 35.7741 40.888 35.7783 41.1493C35.7826 41.2571 35.8237 41.3601 35.8948 41.4412C35.9658 41.5223 36.0626 41.5766 36.1688 41.595C35.9556 41.665 35.7461 41.7898 35.7461 42.0143C35.7461 42.3438 36.0898 42.405 36.2438 42.4393C36.1023 42.4968 35.8011 42.6708 35.8316 42.922C35.8948 43.4415 36.9001 43.2668 37.2066 43.2018C37.0346 43.5176 36.9121 43.858 36.8436 44.211C36.8078 44.4878 36.8848 45.111 37.5288 45.011C37.9358 44.948 37.8836 43.7688 38.2241 43.577C38.5646 43.3853 39.7003 42.9925 39.7036 42.9893C39.7123 43.0563 39.7343 43.1208 39.7683 43.1793C39.8026 43.2375 39.8481 43.2885 39.9021 43.329C40.5021 43.697 41.8716 43.5198 42.0443 43.461C42.9158 43.1638 42.8396 40.756 42.2691 40.1328ZM38.1361 43.428C37.7361 43.688 37.7323 44.7863 37.4903 44.8423C37.4334 44.8562 37.3738 44.8557 37.3171 44.8409C37.2604 44.826 37.2082 44.7973 37.1653 44.7573C37.0403 44.644 36.7473 44.265 37.4468 43.1158C37.4544 43.1026 37.4583 43.0877 37.4583 43.0725C37.4583 43.0575 37.4543 43.0425 37.4466 43.0295C37.4391 43.0163 37.4282 43.0054 37.4151 42.9978C37.4019 42.9903 37.387 42.9864 37.3718 42.9865C37.3643 42.9865 36.0296 43.309 35.9988 42.8908C35.9806 42.6438 36.5633 42.5098 36.7138 42.4848C36.7345 42.4804 36.7528 42.4686 36.7654 42.4517C36.7779 42.4347 36.7839 42.4138 36.7822 42.3928C36.7804 42.3717 36.7711 42.3521 36.7559 42.3374C36.7407 42.3228 36.7207 42.3142 36.6996 42.3133C36.6973 42.3138 36.6949 42.3138 36.6926 42.3133C36.5321 42.3133 35.9156 42.3098 35.9156 42.0205C35.9156 41.7705 36.4758 41.6893 36.6683 41.6805C36.6904 41.679 36.711 41.6691 36.7259 41.6529C36.7409 41.6367 36.7491 41.6154 36.7488 41.5933C36.7485 41.5712 36.7397 41.5502 36.7243 41.5344C36.709 41.5186 36.6881 41.5092 36.6661 41.5083C36.5333 41.5058 35.9468 41.4833 35.9481 41.1548C35.9481 40.8708 36.8178 40.7445 36.8178 40.7445C36.8396 40.7422 36.8596 40.7317 36.8739 40.7152C36.8882 40.6987 36.8958 40.6774 36.8951 40.6555C36.8943 40.6336 36.8852 40.6129 36.8696 40.5975C36.8541 40.582 36.8333 40.573 36.8113 40.5725C36.8081 40.5725 36.3938 40.5708 36.2786 40.4393C36.2328 40.3873 36.0691 40.0958 36.7058 39.9435C37.5663 39.7378 39.2101 39.8243 39.5583 40.2205C40.0226 40.7493 39.7311 42.719 39.5813 42.8705C39.5028 42.9375 38.3631 43.2808 38.1361 43.428ZM41.9861 43.2988C41.7013 43.4028 40.4721 43.5045 39.9998 43.1853C39.8451 43.081 39.8323 42.7443 39.8536 42.625C40.0161 41.712 40.0088 40.7118 39.8078 40.2938C39.8236 40.2025 39.8828 40.0033 40.0166 39.953C40.3496 39.828 41.7056 39.7715 42.1431 40.2493C42.6503 40.8053 42.7103 43.0323 41.9851 43.3L41.9861 43.2988Z" fill="#414141"/>
<path d="M41.8083 14.0085C41.79 14.0083 41.7721 14.0023 41.7574 13.9914C41.7427 13.9805 41.7318 13.9652 41.7263 13.9477C41.7211 13.9302 41.7215 13.9114 41.7275 13.8941C41.7335 13.8768 41.7448 13.8618 41.7598 13.8512C42.0602 13.6375 42.3368 13.3921 42.5848 13.1192C42.6003 13.103 42.6215 13.0934 42.6439 13.0925C42.6663 13.0915 42.6882 13.0993 42.705 13.1142C42.7218 13.1292 42.732 13.1501 42.7335 13.1726C42.7351 13.195 42.7278 13.2171 42.7133 13.2342C42.461 13.5449 42.1543 13.8073 41.8083 14.0085Z" fill="#414141"/>
<path d="M41.999 14.9158C41.9777 14.9155 41.9574 14.9074 41.9418 14.893C41.9262 14.8786 41.9164 14.8589 41.9145 14.8378C41.9124 14.8167 41.9182 14.7955 41.9307 14.7784C41.9432 14.7613 41.9615 14.7493 41.9822 14.7448C42.3522 14.6635 42.7097 14.5328 43.045 14.3563C43.0647 14.3471 43.0871 14.3458 43.1078 14.3525C43.1285 14.3592 43.1458 14.3735 43.1564 14.3925C43.1669 14.4115 43.1699 14.4338 43.1646 14.4549C43.1594 14.476 43.1464 14.4944 43.1282 14.5063C42.7815 14.7138 42.3981 14.8528 41.999 14.9158Z" fill="#414141"/>
<path d="M36.932 14.2566C36.6015 13.9519 36.288 13.6293 35.9928 13.2903C35.9855 13.2817 35.98 13.2716 35.9766 13.2608C35.9732 13.25 35.972 13.2387 35.973 13.2274C35.974 13.2161 35.9773 13.2052 35.9826 13.1952C35.9878 13.1852 35.995 13.1763 36.0038 13.1691C36.0213 13.1545 36.0439 13.1475 36.0667 13.1495C36.0894 13.1516 36.1104 13.1626 36.125 13.1801C36.4165 13.5128 36.7252 13.8299 37.05 14.1301C37.1298 14.2058 37.0138 14.3336 36.932 14.2566Z" fill="#414141"/>
<path d="M36.4774 15.1412C36.0194 15.0771 35.5844 14.9011 35.2106 14.6289C35.1978 14.6176 35.1886 14.6027 35.1844 14.5861C35.1801 14.5695 35.1809 14.5521 35.1866 14.5359C35.1906 14.5253 35.1966 14.5155 35.2044 14.5072C35.2196 14.4903 35.2408 14.4801 35.2635 14.4788C35.2862 14.4774 35.3085 14.485 35.3256 14.4999C35.5289 14.6832 35.8794 14.8249 36.4969 14.9699C36.5081 14.9712 36.519 14.9747 36.5289 14.9802C36.5388 14.9857 36.5475 14.993 36.5545 15.0019C36.5616 15.0108 36.5668 15.0209 36.5699 15.0318C36.5731 15.0427 36.574 15.0541 36.5727 15.0653C36.5714 15.0765 36.568 15.0874 36.5625 15.0973C36.557 15.1072 36.5496 15.1159 36.5408 15.123C36.5319 15.13 36.5217 15.1353 36.5109 15.1384C36.5 15.1415 36.4886 15.1425 36.4774 15.1412Z" fill="#414141"/>
<path d="M36.4198 21.9473C36.7124 21.7024 36.9861 21.4358 37.2386 21.1498C37.2533 21.1324 37.2743 21.1215 37.2971 21.1196C37.3198 21.1176 37.3424 21.1247 37.3598 21.1394C37.3773 21.154 37.3883 21.175 37.3904 21.1977C37.3924 21.2204 37.3854 21.243 37.3708 21.2606C37.112 21.5549 36.8309 21.8289 36.5301 22.0801C36.517 22.0911 36.5009 22.098 36.4839 22.0998C36.4669 22.1017 36.4497 22.0984 36.4346 22.0904C36.4195 22.0824 36.407 22.0701 36.3989 22.0551C36.3908 22.04 36.3874 22.0229 36.3891 22.0058C36.3901 21.9945 36.3934 21.9836 36.3986 21.9735C36.4039 21.9635 36.4111 21.9546 36.4198 21.9473Z" fill="#414141"/>
<path d="M37.366 22.6918C37.613 22.4279 37.8171 22.1271 37.971 21.8001C37.9807 21.7801 37.9977 21.7646 38.0186 21.7569C38.0395 21.7493 38.0625 21.7501 38.0828 21.7591C38.1031 21.768 38.1192 21.7843 38.1278 21.8047C38.1364 21.8251 38.1368 21.8481 38.129 21.8688C37.9677 22.2155 37.7518 22.5339 37.4895 22.8121C37.4774 22.8234 37.4623 22.8309 37.446 22.8339C37.4297 22.8369 37.4129 22.8351 37.3975 22.8288C37.3822 22.8225 37.369 22.812 37.3595 22.7984C37.3499 22.7849 37.3445 22.7689 37.3438 22.7523C37.3432 22.7301 37.3511 22.7084 37.366 22.6918Z" fill="#414141"/>
<path d="M20.2313 39.2127C20.0423 38.8424 19.8916 38.4539 19.7813 38.0532C19.7764 38.0308 19.7805 38.0074 19.7928 37.9881C19.8051 37.9688 19.8245 37.9552 19.8468 37.9502C19.8691 37.9456 19.8923 37.9499 19.9115 37.9621C19.9307 37.9743 19.9443 37.9935 19.9496 38.0157C20.0584 38.4035 20.2052 38.7796 20.3878 39.1387C20.3951 39.1541 20.3975 39.1714 20.395 39.1883C20.3924 39.2052 20.385 39.221 20.3735 39.2336C20.362 39.2463 20.347 39.2553 20.3304 39.2595C20.3139 39.2637 20.2964 39.2629 20.2803 39.2572C20.2587 39.2494 20.2411 39.2334 20.2313 39.2127Z" fill="#414141"/>
<path d="M21.5386 38.587C21.4784 37.22 21.4264 36.6097 21.4259 36.6037C21.4248 36.5814 21.4324 36.5596 21.447 36.5427C21.4616 36.5259 21.4822 36.5153 21.5044 36.5132C21.5267 36.5111 21.549 36.5178 21.5664 36.5319C21.5838 36.546 21.595 36.5664 21.5976 36.5887C21.5976 36.5947 21.6506 37.2082 21.7111 38.5792C21.712 38.6021 21.7039 38.6244 21.6884 38.6413C21.673 38.6582 21.6515 38.6683 21.6286 38.6694C21.6058 38.6704 21.5835 38.6623 21.5666 38.6468C21.5497 38.6313 21.5397 38.6098 21.5386 38.587Z" fill="#414141"/>
<path d="M23.0136 38.9417C23.3499 38.3256 23.6305 37.6807 23.8521 37.0147C23.859 36.9929 23.8743 36.9747 23.8946 36.9642C23.9149 36.9536 23.9386 36.9516 23.9604 36.9585C23.9822 36.9654 24.0004 36.9807 24.0109 37.001C24.0215 37.0213 24.0235 37.0449 24.0166 37.0667C23.7913 37.7438 23.5061 38.3995 23.1644 39.026C23.1592 39.0366 23.152 39.046 23.1431 39.0538C23.1342 39.0615 23.1238 39.0673 23.1125 39.0708C23.1013 39.0744 23.0894 39.0756 23.0777 39.0744C23.066 39.0732 23.0546 39.0696 23.0443 39.0638C23.034 39.0581 23.025 39.0503 23.0178 39.0409C23.0107 39.0316 23.0055 39.0208 23.0026 39.0094C22.9997 38.998 22.9992 38.9861 23.0011 38.9744C23.003 38.9628 23.0073 38.9517 23.0136 38.9417Z" fill="#414141"/>
<path d="M4.71755 21.0135C4.65205 20.9385 4.7768 20.816 4.8598 20.9158C5.7928 22.0353 6.7483 20.9983 6.8153 20.875C6.61279 20.7689 6.44773 20.6032 6.3424 20.4003C6.23707 20.1973 6.19655 19.967 6.2263 19.7403C6.33405 18.9693 7.0813 18.912 7.3328 19.4525C7.4678 19.7435 7.46405 20.2495 7.0798 20.8098C7.10855 20.8213 7.7198 21.0775 8.16455 20.7655C8.7418 20.3605 8.7673 19.295 8.7673 19.2843C8.76762 19.2701 8.77141 19.2563 8.77834 19.2439C8.78527 19.2315 8.79514 19.2211 8.80706 19.2134C8.81899 19.2058 8.83261 19.2012 8.84673 19.2C8.86085 19.1989 8.87504 19.2012 8.88805 19.2068C8.90374 19.2136 8.91704 19.225 8.92626 19.2394C8.93547 19.2538 8.94019 19.2707 8.9398 19.2878C8.9398 19.3348 8.91055 20.4465 8.2648 20.9058C8.06829 21.0139 7.84919 21.0745 7.62504 21.0827C7.4009 21.0909 7.17794 21.0465 6.97405 20.953C6.88605 21.1463 5.81305 22.255 4.71755 21.0135ZM6.8098 19.2675C6.22655 19.2675 6.2628 20.5175 6.92105 20.736C7.35605 20.239 7.32055 19.2675 6.8098 19.2675Z" fill="#414141"/>
<path d="M13.5854 8.5073C13.0445 8.06675 12.5892 7.5304 12.2424 6.92505C12.233 6.90477 12.2318 6.88161 12.2391 6.86046C12.2464 6.83931 12.2616 6.82182 12.2816 6.8117C12.3016 6.80158 12.3247 6.7996 12.346 6.8062C12.3674 6.8128 12.3854 6.82744 12.3962 6.84705C12.7347 7.42983 13.175 7.94718 13.6962 8.37455C13.7128 8.38952 13.723 8.41036 13.7246 8.43269C13.7262 8.45502 13.7191 8.4771 13.7048 8.49429C13.6904 8.51148 13.67 8.52244 13.6477 8.52487C13.6255 8.52729 13.6032 8.521 13.5854 8.5073Z" fill="#414141"/>
<path d="M14.6865 7.67943C14.4639 7.09385 14.3694 6.46737 14.4093 5.84218C14.4104 5.8309 14.4137 5.81995 14.419 5.80995C14.4243 5.79994 14.4315 5.79108 14.4403 5.78387C14.449 5.77667 14.4591 5.77125 14.4699 5.76794C14.4808 5.76462 14.4921 5.76347 14.5034 5.76456C14.5147 5.76564 14.5256 5.76893 14.5356 5.77425C14.5457 5.77957 14.5545 5.7868 14.5617 5.79554C14.5689 5.80428 14.5743 5.81436 14.5777 5.82519C14.581 5.83602 14.5821 5.8474 14.581 5.85868C14.546 6.45684 14.6367 7.0557 14.8473 7.61668C14.8556 7.638 14.8551 7.66175 14.8459 7.6827C14.8367 7.70366 14.8196 7.72011 14.7983 7.72843C14.777 7.73675 14.7532 7.73626 14.7323 7.72707C14.7113 7.71789 14.6949 7.70075 14.6865 7.67943Z" fill="#414141"/>
<path d="M31.292 2.90005C29.4572 4.8781 27.2715 6.49867 24.8457 7.67955C24.977 7.7653 25.0865 7.88005 25.166 8.01505C25.166 8.01505 26.1617 7.26505 26.9787 9.43205C26.9787 9.43205 27.8265 8.50555 28.271 9.82705L31.6805 10.0423C31.6805 10.0423 36.3055 9.09805 40.0937 3.71355C40.0937 3.71355 34.4137 2.7128 31.292 2.90005Z" fill="#016DAB"/>
<path d="M15.5809 10.4062C15.5809 10.4062 16.4119 10.045 20.7246 10.011C20.7246 10.011 20.4119 7.49025 22.1896 8.124C22.1896 8.124 22.8434 7.02025 23.6396 8.02175C23.6396 8.02175 24.4029 7.16325 25.1659 8.015C25.1659 8.015 26.1751 7.279 26.9786 9.432C26.9786 9.432 27.8196 8.51225 28.2709 9.827C28.2709 9.827 31.9444 9.98875 33.0959 10.2247C33.0959 10.2247 32.6796 17.2895 32.6361 19.9353C32.5034 27.993 33.3079 31.1838 33.2811 31.2428C33.1471 31.5368 15.5029 31.4203 15.4034 31.4165C15.4036 31.4165 15.3341 19.7 15.5809 10.4062Z" fill="white"/>
<path d="M18.0128 15.464C18.0193 15.3755 17.994 14.4537 17.9723 14.0282C17.855 14.2047 17.6875 14.4715 17.6223 14.5987C17.612 14.6192 17.5939 14.6346 17.5722 14.6418C17.5504 14.6489 17.5267 14.6471 17.5063 14.6367C17.4859 14.6264 17.4704 14.6084 17.4633 14.5866C17.4561 14.5649 17.458 14.5412 17.4683 14.5207C17.4723 14.513 17.9145 13.7175 18.0305 13.709C18.0431 13.7078 18.0557 13.7094 18.0675 13.7138C18.0793 13.7181 18.09 13.725 18.0988 13.734C18.1695 13.8052 18.185 15.4627 18.1835 15.4787C18.1793 15.4995 18.1676 15.518 18.1507 15.5307C18.1337 15.5434 18.1127 15.5494 18.0916 15.5475C18.0705 15.5457 18.0508 15.5362 18.0363 15.5208C18.0217 15.5054 18.0134 15.4852 18.0128 15.464Z" fill="#87E4FF"/>
<path d="M17.459 19.8267C17.459 19.6959 18.1027 18.9669 18.186 18.8312C18.2782 18.6812 18.2672 18.4484 18.0567 18.4119C17.9852 18.4049 17.9138 18.4261 17.8577 18.471C17.8017 18.516 17.7654 18.5811 17.7567 18.6524C17.7563 18.6753 17.7468 18.697 17.7303 18.7128C17.7139 18.7287 17.6918 18.7373 17.669 18.7369C17.4897 18.7332 17.6155 18.3284 17.914 18.2499C17.9992 18.2292 18.0887 18.2359 18.1699 18.2691C18.251 18.3023 18.3197 18.3602 18.366 18.4346C18.4123 18.509 18.4339 18.5962 18.4278 18.6837C18.4217 18.7711 18.3882 18.8544 18.332 18.9217C18.2417 19.0687 17.7387 19.6919 17.6855 19.7637C17.937 19.7857 18.19 19.7874 18.4417 19.7694C18.4643 19.7687 18.4863 19.7769 18.503 19.7922C18.5196 19.8075 18.5296 19.8287 18.5307 19.8513C18.5318 19.8738 18.5241 19.896 18.5091 19.9129C18.4941 19.9298 18.473 19.9401 18.4505 19.9417C18.2865 19.9499 17.4577 20.0084 17.459 19.8267Z" fill="#87E4FF"/>
<path d="M20.0006 19.8698C19.9786 19.8683 19.9579 19.8585 19.9429 19.8423C19.9279 19.8261 19.9197 19.8048 19.9199 19.7827C19.9202 19.7606 19.9289 19.7394 19.9443 19.7236C19.9597 19.7078 19.9806 19.6984 20.0026 19.6975C20.0554 19.6975 25.2794 19.7583 26.5599 19.7415C26.5819 19.7425 26.6028 19.7518 26.6182 19.7676C26.6336 19.7834 26.6425 19.8044 26.6429 19.8265C26.6432 19.8486 26.635 19.87 26.62 19.8862C26.6051 19.9024 26.5844 19.9123 26.5624 19.9138C25.4839 19.9295 20.6796 19.8805 20.0006 19.8698Z" fill="#414141"/>
<path d="M27.9858 16.2145C27.9646 16.2134 27.944 16.2076 27.9253 16.1976C27.9067 16.1875 27.8904 16.1735 27.8778 16.1565C27.7778 15.987 27.858 13.5888 27.9095 13.4793C27.9163 13.4656 27.9261 13.4537 27.9382 13.4444C27.9503 13.4351 27.9644 13.4286 27.9793 13.4255C28.7253 13.309 30.5148 13.407 30.6153 13.4875C30.6845 13.5425 30.6733 16.1293 30.5903 16.2095C30.439 16.3578 28.135 16.244 27.9858 16.2145ZM28.025 16.0483C28.3535 16.1233 30.189 16.1733 30.4638 16.082C30.4988 15.8023 30.5158 13.9515 30.4873 13.6258C29.6812 13.5348 28.8681 13.5222 28.0595 13.5883C28.0051 14.4071 27.9935 15.2282 28.0245 16.0483H28.025Z" fill="#414141"/>
<path d="M29.1187 15.5646C29.1187 15.5646 28.9862 15.5941 28.6795 14.8511C28.6743 14.841 28.6712 14.83 28.6702 14.8187C28.6693 14.8074 28.6706 14.7961 28.674 14.7853C28.6775 14.7745 28.6831 14.7645 28.6904 14.7558C28.6977 14.7472 28.7067 14.74 28.7167 14.7349C28.7268 14.7297 28.7378 14.7265 28.7491 14.7256C28.7604 14.7246 28.7718 14.7259 28.7826 14.7294C28.7934 14.7329 28.8034 14.7384 28.812 14.7457C28.8207 14.7531 28.8278 14.762 28.833 14.7721C28.9415 14.9826 29.064 15.2116 29.1347 15.3331C29.2967 15.0856 29.7137 14.3746 29.8097 14.1909C29.8149 14.1807 29.822 14.1718 29.8306 14.1644C29.8393 14.1571 29.8493 14.1515 29.8601 14.148C29.8709 14.1446 29.8823 14.1433 29.8936 14.1442C29.9049 14.1452 29.9159 14.1484 29.926 14.1536C29.9463 14.1642 29.9615 14.1823 29.9685 14.2041C29.9755 14.2258 29.9736 14.2495 29.9632 14.2699C29.9552 14.2829 29.2782 15.5646 29.1187 15.5646Z" fill="#87E4FF"/>
<path d="M27.7694 21.1774C27.7484 21.1763 27.7279 21.1705 27.7093 21.1605C27.6908 21.1505 27.6747 21.1366 27.6621 21.1197C27.5649 20.9544 27.6284 18.6537 27.6779 18.5497C27.6845 18.5359 27.6942 18.5239 27.7062 18.5145C27.7183 18.5052 27.7324 18.4988 27.7474 18.4959C28.4936 18.3794 30.2829 18.4782 30.3836 18.5579C30.4169 18.5847 30.4619 18.6209 30.4474 20.1599C30.4381 21.1239 30.4159 21.1412 30.3754 21.1724C30.1464 21.3474 28.0706 21.2369 27.7694 21.1774ZM27.8089 21.0112C28.1351 21.0862 29.9734 21.1377 30.2484 21.0454C30.2826 20.7704 30.2884 19.0142 30.2564 18.6954C29.4498 18.6047 28.6364 18.5922 27.8274 18.6579C27.777 19.4414 27.7708 20.227 27.8089 21.0112Z" fill="#414141"/>
<path d="M20.054 14.9C20.0311 14.8998 20.0093 14.8904 19.9933 14.8741C19.9773 14.8577 19.9685 14.8357 19.9688 14.8128C19.969 14.7899 19.9784 14.7681 19.9947 14.7521C20.0111 14.7361 20.0331 14.7273 20.056 14.7275C20.1088 14.7275 25.3328 14.7885 26.6133 14.7718C26.6353 14.7727 26.6562 14.7821 26.6716 14.7979C26.687 14.8136 26.6958 14.8347 26.6963 14.8568C26.6966 14.8789 26.6884 14.9002 26.6734 14.9165C26.6584 14.9327 26.6378 14.9426 26.6158 14.944C26.4498 14.946 20.0998 14.9 20.054 14.9Z" fill="#414141"/>
<path d="M29.1365 19.8866L29.595 19.4186C29.611 19.4023 29.6199 19.3802 29.6196 19.3574C29.6194 19.3345 29.6101 19.3126 29.5938 19.2966C29.5774 19.2806 29.5554 19.2717 29.5325 19.272C29.5096 19.2722 29.4878 19.2815 29.4718 19.2979C29.2895 19.4834 29.1403 19.6356 29.016 19.7629C28.891 19.6356 28.7425 19.4834 28.56 19.2979C28.5521 19.2898 28.5426 19.2833 28.5322 19.2789C28.5218 19.2744 28.5106 19.2721 28.4993 19.272C28.4879 19.2719 28.4767 19.274 28.4662 19.2782C28.4557 19.2824 28.4461 19.2887 28.438 19.2966C28.4299 19.3045 28.4235 19.314 28.419 19.3244C28.4146 19.3348 28.4122 19.346 28.4121 19.3574C28.412 19.3687 28.4141 19.3799 28.4183 19.3904C28.4226 19.401 28.4288 19.4105 28.4368 19.4186L28.8955 19.8866C28.7232 20.0437 28.5636 20.2143 28.4183 20.3966C28.4107 20.4176 28.4117 20.4407 28.4209 20.461C28.4302 20.4813 28.447 20.4972 28.4678 20.5054C28.4885 20.5136 28.5116 20.5135 28.5323 20.5051C28.5529 20.4966 28.5695 20.4805 28.5785 20.4601C28.5958 20.4406 28.7865 20.2446 29.016 20.0101C29.2453 20.2449 29.436 20.4409 29.4533 20.4601C29.4622 20.4806 29.4788 20.4967 29.4995 20.5052C29.5201 20.5136 29.5433 20.5137 29.564 20.5054C29.5847 20.4971 29.6014 20.4812 29.6106 20.461C29.6199 20.4407 29.6209 20.4176 29.6135 20.3966C29.4685 20.2141 29.3089 20.0435 29.1365 19.8866Z" fill="#87E4FF"/>
<path d="M18.8825 15.3571C18.8811 15.3846 18.8693 15.4106 18.8493 15.4296C18.8293 15.4487 18.8028 15.4593 18.7752 15.4593C18.7476 15.4593 18.7211 15.4487 18.7011 15.4296C18.6812 15.4106 18.6693 15.3846 18.668 15.3571C18.6693 15.3295 18.6812 15.3035 18.7011 15.2845C18.7211 15.2655 18.7476 15.2549 18.7752 15.2549C18.8028 15.2549 18.8293 15.2655 18.8493 15.2845C18.8693 15.3035 18.8811 15.3295 18.8825 15.3571Z" fill="#87E4FF"/>
<path d="M18.9896 19.8068C18.9896 19.8352 18.9784 19.8625 18.9583 19.8826C18.9382 19.9027 18.9109 19.914 18.8825 19.914C18.8541 19.914 18.8269 19.9027 18.8068 19.8826C18.7867 19.8625 18.7754 19.8352 18.7754 19.8068C18.7754 19.7784 18.7867 19.7512 18.8068 19.7311C18.8269 19.711 18.8541 19.6997 18.8825 19.6997C18.9109 19.6997 18.9382 19.711 18.9583 19.7311C18.9784 19.7512 18.9896 19.7784 18.9896 19.8068Z" fill="#87E4FF"/>
<path d="M39.975 3.73526C38.5452 5.83884 36.6478 7.58287 34.4315 8.83076C33.5533 9.33501 32.6104 9.71704 31.629 9.96626C31.6212 9.96776 28.7692 9.75651 28.3372 9.74001C28.2135 9.32951 27.7185 8.62126 27.0385 9.30076C26.6135 8.21926 25.8672 7.54476 25.1992 7.92351C25.145 7.85054 25.0807 7.78564 25.0082 7.73076C25.7142 7.37026 29.1505 5.53976 31.3025 3.02275C31.3161 3.00524 31.3226 2.98313 31.3205 2.96101C31.318 2.93902 31.3073 2.91879 31.2905 2.9044C31.2737 2.89001 31.2521 2.88255 31.23 2.88351C31.2078 2.88467 31.1869 2.89434 31.1717 2.91051C28.9 5.56601 25.1795 7.45376 24.8307 7.62726C24.6329 7.5408 24.4125 7.52065 24.2024 7.56981C23.9922 7.61897 23.8036 7.7348 23.6647 7.90001C23.5087 7.68451 22.801 7.07951 22.168 8.03551C22.0183 7.95737 21.8516 7.91763 21.6828 7.91986C21.5141 7.92208 21.3485 7.9662 21.201 8.04826C20.618 8.33201 20.6185 9.50326 20.6372 9.91301C20.4905 9.90826 15.7255 10.0565 15.476 10.325C15.312 10.5015 15.3055 31.3455 15.3047 31.4125C15.3045 31.424 15.3066 31.4354 15.3109 31.4461C15.3152 31.4567 15.3216 31.4664 15.3297 31.4745C15.3378 31.4828 15.3475 31.4893 15.3582 31.4936C15.3689 31.498 15.3804 31.5001 15.392 31.4998C15.4325 31.4998 32.1257 31.6563 33.3312 31.3248C33.3717 31.3138 33.3675 31.2535 33.3605 31.2143C32.0542 23.8955 33.1907 10.192 33.182 10.1705C33.1617 10.1173 33.151 10.102 32.109 10.016C34.7992 9.20326 37.859 7.09351 40.1165 3.83351C40.125 3.81945 40.1293 3.80328 40.1289 3.78686C40.1286 3.77045 40.1236 3.75446 40.1146 3.74077C40.1055 3.72708 40.0927 3.71624 40.0778 3.70951C40.0628 3.70278 40.0462 3.70044 40.03 3.70276C40.0081 3.70615 39.9885 3.71778 39.975 3.73526ZM28.2095 9.92776C28.3725 10.6105 28.2192 11.3225 27.7312 11.25C27.5525 11.2233 27.4147 10.9038 27.3425 10.525C27.2717 10.2339 27.1489 9.95792 26.98 9.71051C27.5067 8.69626 28.0832 9.40151 28.209 9.92776H28.2095ZM25.6175 7.97501C26.4135 8.00001 26.9127 9.43951 26.9237 9.45001C26.8732 9.52702 26.8317 9.60955 26.8 9.69601C26.6145 9.69101 26.3235 9.69776 26.1485 9.70301C26.1747 9.55901 26.2032 9.40926 26.2362 9.25126C26.2409 9.22885 26.2365 9.2055 26.2239 9.18634C26.2114 9.16719 26.1917 9.15381 26.1693 9.14913C26.1469 9.14446 26.1236 9.14888 26.1044 9.16142C26.0853 9.17396 26.0719 9.19359 26.0672 9.21601C25.945 9.80476 25.7422 11.9578 25.2765 11.9573C24.5265 11.9573 24.4702 9.91101 24.6572 9.13226C24.8317 8.40301 25.1817 7.96051 25.6175 7.97501ZM24.236 7.74576C24.3847 7.70069 24.5438 7.70315 24.6911 7.75281C24.8384 7.80246 24.9666 7.89683 25.0577 8.02276C24.2022 8.74776 24.2677 10.8918 24.6925 11.7045C24.686 11.7215 24.4425 12.339 24.1287 12.222C23.5197 11.9993 23.244 10.747 23.294 9.68326C23.3315 8.88726 23.525 7.90576 24.236 7.74501V7.74576ZM22.731 7.72376C22.8832 7.67134 23.049 7.67412 23.1993 7.73162C23.3497 7.78911 23.475 7.89766 23.5535 8.03826C22.9705 8.87726 23.0155 10.717 23.4255 11.6658L23.423 11.6703C23.4212 11.6763 23.0667 12.5835 22.6215 12.1558C22.254 11.802 21.9632 10.7445 22 9.95001C22.04 9.11126 22.094 7.96476 22.731 7.72301V7.72376ZM21.2765 8.20426C21.4005 8.13293 21.5406 8.09447 21.6837 8.09255C21.8267 8.09062 21.9678 8.12529 22.0937 8.19326C21.9136 8.75827 21.824 9.34823 21.8282 9.94126C21.8131 10.5804 21.9364 11.2153 22.1897 11.8023C22.1485 11.854 21.9432 12.088 21.7072 11.98C20.6312 11.4815 20.55 8.55676 21.2765 8.20351V8.20426ZM33.1867 31.177C32.8782 31.3888 16.0867 31.3195 15.4782 31.327C15.4882 30.5215 15.4782 11.702 15.6902 10.502C15.7902 10.2223 20.5712 10.0928 20.6492 10.0838C20.771 11.577 21.3652 12.045 21.635 12.136C21.7457 12.1771 21.8665 12.183 21.9807 12.1529C22.095 12.1228 22.1971 12.0581 22.2732 11.9678C22.3425 12.091 22.9482 13.089 23.5285 11.8708C23.667 12.1145 24.2747 12.9563 24.8035 11.8798C24.8594 11.9555 24.9321 12.0173 25.0158 12.0604C25.0995 12.1035 25.1921 12.1267 25.2862 12.1283C25.8972 12.1235 26.1182 9.87526 26.1182 9.87526C26.4407 9.86526 26.78 9.86176 26.886 9.87101C27.0324 10.0749 27.1305 10.3095 27.1727 10.557C27.213 10.7698 27.34 11.4353 27.811 11.4385C28.4745 11.443 28.4932 10.4295 28.3817 9.91351C29.2455 9.95251 32.4942 10.2135 33.0115 10.2733C32.1087 22.2058 32.7075 28.7548 33.1867 31.1763V31.177Z" fill="#414141"/>
</svg>
