<svg width="50" height="50" viewBox="0 0 50 50" fill="none" xmlns="http://www.w3.org/2000/svg">
<path d="M4.39936 4.96663C4.37048 4.9939 4.35338 5.03137 4.3517 5.07105C4.35002 5.11074 4.36389 5.14952 4.39036 5.17913C4.41786 5.20988 5.81386 7.02413 6.21136 7.67513C6.34918 7.90325 6.4818 8.13448 6.60911 8.36863C6.69836 8.53113 6.96386 8.40438 6.86786 8.22988C6.73776 7.98954 6.60214 7.75223 6.46111 7.51813C6.06111 6.86488 4.81636 5.20388 4.61111 4.97563C4.5839 4.94692 4.54658 4.92992 4.50706 4.92824C4.46753 4.92656 4.42891 4.94033 4.39936 4.96663Z" fill="#016DAB"/>
<path d="M3.92794 8.6738C3.91041 8.66637 3.89152 8.66264 3.87247 8.66285C3.85343 8.66306 3.83463 8.6672 3.81726 8.67502C3.79989 8.68284 3.78432 8.69416 3.77153 8.70827C3.75874 8.72239 3.74901 8.739 3.74294 8.75705C3.72838 8.79387 3.72896 8.83494 3.74455 8.87133C3.76014 8.90772 3.78949 8.93646 3.82619 8.9513C4.45342 9.32376 5.05282 9.74118 5.61969 10.2003C5.81244 10.3916 5.97519 10.1388 5.85094 10.0153C5.26681 9.49169 4.62105 9.0412 3.92794 8.6738Z" fill="#016DAB"/>
<path d="M5.18888 35.4233C5.72888 35.4278 6.97438 35.3183 8.52563 34.4038C8.56054 34.3835 8.59953 34.3713 8.63975 34.3681C8.67998 34.3648 8.72043 34.3706 8.75814 34.385C8.79585 34.3993 8.82987 34.422 8.85772 34.4512C8.88558 34.4804 8.90656 34.5154 8.91913 34.5538C9.32963 35.7838 10.9496 40.2038 13.8469 42.934C13.8929 42.9765 13.9228 43.0336 13.9313 43.0956C13.9398 43.1577 13.9265 43.2207 13.8936 43.274C13.3686 44.1188 11.1856 47.5545 9.70863 48.6918C9.6579 48.7323 9.59436 48.7533 9.52949 48.7511C9.46461 48.7488 9.40268 48.7234 9.35488 48.6795C8.57063 47.9523 5.27988 44.399 4.91038 35.7108C4.90889 35.6734 4.915 35.6361 4.92836 35.6011C4.94171 35.5661 4.96202 35.5343 4.98806 35.5074C5.0141 35.4805 5.04532 35.4592 5.07984 35.4447C5.11436 35.4303 5.15145 35.423 5.18888 35.4233Z" fill="#016DAB"/>
<path d="M11.0095 43.2751C10.9728 43.2754 10.9372 43.2622 10.9096 43.2378C10.882 43.2135 10.8645 43.1798 10.8603 43.1433C10.8576 43.119 10.8609 43.0945 10.87 43.0718L11.1308 42.4256C11.1459 42.3897 11.1745 42.3612 11.2104 42.3462C11.2463 42.3313 11.2867 42.331 11.3228 42.3456C11.3589 42.3601 11.3878 42.3883 11.4033 42.4239C11.4189 42.4596 11.4197 42.5 11.4058 42.5363L11.145 43.1826C11.1341 43.2096 11.1154 43.2328 11.0913 43.2493C11.0671 43.2658 11.0387 43.2747 11.0095 43.2751Z" fill="#414141"/>
<path d="M7.96664 42.9061C7.94725 42.9069 7.92789 42.9039 7.90966 42.8973C7.89143 42.8906 7.87468 42.8805 7.86038 42.8673C7.84608 42.8542 7.83451 42.8384 7.82631 42.8208C7.81812 42.8032 7.81347 42.7842 7.81264 42.7648C7.8118 42.7454 7.81479 42.7261 7.82144 42.7078C7.82808 42.6896 7.83825 42.6729 7.85137 42.6586C7.86448 42.6443 7.88029 42.6327 7.89788 42.6245C7.91547 42.6163 7.9345 42.6117 7.95389 42.6108L8.64889 42.5608C8.67811 42.5583 8.70739 42.5648 8.73288 42.5793C8.75836 42.5938 8.77885 42.6157 8.79164 42.6421C8.80905 42.6772 8.81192 42.7178 8.79964 42.7551C8.79366 42.7736 8.78403 42.7906 8.77132 42.8053C8.7586 42.82 8.74307 42.832 8.72564 42.8406C8.70823 42.8492 8.68929 42.8544 8.66989 42.8558L7.96664 42.9061Z" fill="#414141"/>
<path d="M10.0887 40.3751C9.9954 40.3766 10.0117 40.3681 9.5219 39.7924C9.49924 39.7622 9.48893 39.7246 9.49309 39.6871C9.49725 39.6496 9.51555 39.6152 9.54426 39.5907C9.57298 39.5663 9.60994 39.5537 9.6476 39.5556C9.68526 39.5575 9.72078 39.5737 9.7469 39.6009L10.1987 40.1316C10.2166 40.153 10.2281 40.179 10.2319 40.2067C10.2358 40.2343 10.2317 40.2625 10.2202 40.2879C10.2087 40.3134 10.1903 40.3351 10.167 40.3505C10.1437 40.3659 10.1166 40.3744 10.0887 40.3751Z" fill="#414141"/>
<path d="M6.91742 40.3595C6.89309 40.3597 6.86908 40.3539 6.84751 40.3427C6.82594 40.3314 6.80746 40.315 6.79369 40.295C6.77992 40.2749 6.77128 40.2518 6.76853 40.2276C6.76578 40.2034 6.76901 40.1789 6.77792 40.1563L7.03867 39.5098C7.05378 39.4739 7.08237 39.4454 7.1183 39.4305C7.15422 39.4155 7.19459 39.4153 7.23069 39.4298C7.26678 39.4443 7.29572 39.4725 7.31124 39.5082C7.32677 39.5439 7.32764 39.5842 7.31367 39.6205L7.05292 40.2668C7.04196 40.2939 7.02326 40.3171 6.99916 40.3336C6.97506 40.3501 6.94663 40.3591 6.91742 40.3595Z" fill="#414141"/>
<path d="M8.98818 37.2611L8.28818 37.2508C8.2504 37.2482 8.21507 37.2311 8.18945 37.2032C8.16383 37.1753 8.14986 37.1387 8.15041 37.1008C8.15095 37.063 8.16597 37.0267 8.19238 36.9996C8.21879 36.9724 8.25459 36.9564 8.29243 36.9548L8.98918 36.9653C9.0284 36.9653 9.06601 36.9809 9.09374 37.0086C9.12147 37.0364 9.13705 37.074 9.13705 37.1132C9.13705 37.1524 9.12147 37.19 9.09374 37.2178C9.06601 37.2455 9.0284 37.2611 8.98918 37.2611H8.98818Z" fill="#414141"/>
<path d="M9.74534 45.636C9.67383 45.636 9.70833 45.649 9.10758 45.1652C9.09179 45.1532 9.07856 45.1382 9.06866 45.121C9.05877 45.1038 9.05241 45.0848 9.04996 45.0651C9.04752 45.0455 9.04903 45.0255 9.05442 45.0064C9.05981 44.9873 9.06896 44.9695 9.08133 44.954C9.10024 44.9309 9.12565 44.914 9.15426 44.9055C9.18287 44.897 9.21337 44.8972 9.24183 44.9062C9.26078 44.9122 9.2783 44.922 9.29333 44.935L9.83583 45.3732C9.85962 45.3922 9.87695 45.4181 9.88544 45.4474C9.89393 45.4766 9.89317 45.5078 9.88325 45.5365C9.87334 45.5653 9.85476 45.5903 9.83007 45.6081C9.80537 45.6259 9.77578 45.6357 9.74534 45.636Z" fill="#414141"/>
<path d="M6.0327 37.4289C5.99599 37.429 5.96052 37.4156 5.93304 37.3913C5.90556 37.3669 5.888 37.3333 5.8837 37.2969C5.88104 37.2727 5.88438 37.2482 5.89345 37.2256L6.1542 36.5791C6.16931 36.5433 6.1979 36.5148 6.23383 36.4998C6.26975 36.4848 6.31012 36.4846 6.34621 36.4991C6.38231 36.5137 6.41125 36.5418 6.42677 36.5775C6.4423 36.6132 6.44317 36.6535 6.4292 36.6899L6.16845 37.3364C6.1576 37.3635 6.13889 37.3869 6.1147 37.4034C6.09052 37.4198 6.06197 37.4287 6.0327 37.4289Z" fill="#414141"/>
<path d="M5.80326 35.2514C6.1623 35.3583 6.54171 35.3778 6.90981 35.3082C7.27791 35.2386 7.62403 35.082 7.91926 34.8514C7.91926 34.8514 7.27151 34.2501 7.36301 33.5751C7.36301 33.5751 21.7595 32.8799 21.874 32.7501V31.7684L26.5938 31.5394L26.9658 38.4434C26.9658 38.4434 24.2463 38.6344 24.0088 38.6934C23.8772 38.8996 23.8094 39.1401 23.8138 39.3847C23.8183 39.6292 23.8948 39.8671 24.0338 40.0684L35.1858 39.7371C35.1858 39.7371 35.5548 38.8781 35.0395 38.3136L32.0703 38.3886L31.8618 31.3079C31.8618 31.3079 46.941 31.2219 47.0023 31.1361C47.0635 31.0504 48.1735 5.56113 48.1123 5.36563C48.1123 5.36563 31.1173 1.16138 12.1813 5.09988L12.6965 12.7439C12.6965 12.7439 6.83976 13.4309 4.71301 13.8726C4.71301 13.8726 5.87451 24.2609 6.05451 25.9131C6.05451 25.9131 4.18126 27.6739 3.82951 30.1339C3.58401 31.8501 5.80326 35.2514 5.80326 35.2514Z" fill="white"/>
<path d="M23.5548 27.0481C23.5778 26.7661 23.823 26.5573 24.3875 26.5206C24.952 26.4838 34.1788 26.2383 34.7798 26.3121C34.9769 26.3324 35.1626 26.4146 35.3102 26.5468C35.4579 26.6789 35.56 26.8544 35.602 27.0481C35.6388 27.4563 35.6388 27.8669 35.602 28.2751C35.552 28.4223 35.3443 28.7168 34.694 28.7291C34.0438 28.7413 25.0215 29.0686 24.6288 29.0441C24.236 29.0196 23.7038 29.0691 23.5983 28.4061C23.5506 27.9551 23.5361 27.5012 23.5548 27.0481Z" fill="#FDAF31"/>
<path d="M16.0083 12.5127C16.0083 12.5127 15.677 8.27548 15.7138 8.23773C15.7505 8.19998 22.4458 6.88398 30.781 7.77148C30.781 7.77148 31.517 22.7655 31.431 22.8632C31.345 22.961 21.791 23.4212 21.791 23.4212C21.791 23.4212 21.1368 13.5962 20.8178 12.1747C20.818 12.175 16.4998 12.2837 16.0083 12.5127Z" fill="#016DAB"/>
<path d="M12.0508 2.88306C34.097 -0.67294 48.195 3.08981 48.195 3.08981L48.1108 5.36481C48.1108 5.36481 31.7375 1.06106 12.1798 5.09781L12.0508 2.88306Z" fill="#87E4FF"/>
<path d="M27.6793 13.5795C27.6798 14.5234 27.3179 15.4314 26.6684 16.1162C26.0188 16.801 25.1312 17.2104 24.1886 17.2598C24.3513 16.2215 24.4403 15.5265 24.4521 15.2278C24.4528 15.2001 24.4463 15.1727 24.4331 15.1484C24.42 15.124 24.4006 15.1036 24.3771 15.089C23.3931 14.571 22.3076 14.2748 21.1968 14.221C21.1551 13.615 21.0256 12.1663 21.0218 12.141C21.018 12.1031 20.9994 12.0683 20.9701 12.044C20.9407 12.0198 20.903 12.008 20.8651 12.0113C20.8621 12.0113 20.7853 12.0175 20.6523 12.0265C21.0066 11.2665 21.6094 10.6501 22.3613 10.279C23.1131 9.90783 23.9691 9.8042 24.7878 9.98519C25.6065 10.1662 26.339 10.621 26.8643 11.2745C27.3897 11.9279 27.6765 12.7411 27.6773 13.5795H27.6793Z" fill="white"/>
<path d="M31.2975 22.8023C31.2975 22.8023 28.1798 18.7905 23.9225 18.9073L23.1855 23.2158L31.2975 22.8023Z" fill="white"/>
<path d="M48.23 2.94185C48.2165 2.93835 44.8585 2.2831 43.5243 2.1006C33.1423 0.680847 22.252 1.14435 12.0548 2.7006C12.0178 2.70644 11.9842 2.72564 11.9604 2.75457C11.9365 2.7835 11.9241 2.82015 11.9255 2.8576L12.5173 12.6576C7.02927 13.2453 6.20727 13.4493 4.65902 13.6838C4.62032 13.6899 4.5854 13.7105 4.56138 13.7415C4.53735 13.7724 4.52605 13.8114 4.52977 13.8503C4.52977 13.8566 4.67477 15.0681 4.74252 15.6438C4.71752 15.6473 2.52377 16.0786 1.67277 17.0673C1.42652 17.3536 4.37677 25.6804 4.87277 26.9966C4.83302 27.0671 3.57577 29.1581 3.65227 30.5371C3.71902 31.7386 4.85652 34.1454 5.80627 35.4184C5.84377 35.4584 5.89202 35.4874 5.94502 35.5019C6.65923 35.4914 7.35666 35.2838 7.96027 34.9018C7.98954 34.8753 8.00772 34.8386 8.01119 34.7993C8.01467 34.7599 8.00318 34.7206 7.97902 34.6894C7.74035 34.3943 7.56542 34.0529 7.46527 33.6868C8.25527 33.6618 21.8695 32.9344 21.8923 32.9329C21.9298 32.9302 21.9649 32.9135 21.9907 32.886C22.0164 32.8586 22.0308 32.8225 22.031 32.7849C22.0338 32.5219 22.0235 32.2141 22.022 31.9349C22.0583 31.9349 24.8 31.8174 26.4685 31.7499C26.4685 31.7499 26.8265 38.3768 26.8388 38.3971C25.731 38.4521 24.0908 38.5094 23.9728 38.5449C23.533 38.6769 23.5423 40.2081 24.065 40.2273C24.4448 40.2416 34.9583 39.9164 35.168 39.8671C35.6 39.7654 35.5883 38.3743 35.0665 38.1843C34.9553 38.1441 33.2915 38.2018 32.1823 38.2208C32.2025 38.1971 32.0335 31.7601 32.0248 31.5376C33.2948 31.4934 44.6578 31.2236 47.0105 31.3156C47.0497 31.3175 47.088 31.3042 47.1175 31.2784C47.1468 31.2523 47.1648 31.2159 47.1678 31.1769C47.1703 31.1269 48.29 5.3846 48.3428 3.0911C48.344 3.05704 48.3335 3.02359 48.313 2.9964C48.2924 2.96921 48.2631 2.94994 48.23 2.94185ZM43.478 2.39635C44.8068 2.5781 47.9898 3.1876 48.045 3.2006C48.0283 3.87869 48.0082 4.5567 47.9848 5.2346C37.8935 2.9241 27.2723 2.78985 17.2135 4.1346C15.843 4.31785 12.5108 4.90785 12.3495 4.94085L12.2305 2.96985C22.4385 1.4211 33.2495 0.997597 43.478 2.39635ZM7.34952 34.1894C7.38527 34.2666 7.66602 34.7511 7.67327 34.7626C7.17884 35.0728 6.60133 35.2244 6.01827 35.1969C5.10452 33.9551 4.03827 31.6434 3.94752 30.5191C3.95099 30.0884 4.0228 29.661 4.16027 29.2529C4.41131 28.607 4.69501 27.9744 5.01027 27.3574C5.11927 27.6479 5.12327 27.6689 5.23202 27.9574C4.9198 28.5774 4.672 29.2279 4.49252 29.8986C4.48729 29.9278 4.49074 29.9578 4.50246 29.985C4.51418 30.0122 4.53364 30.0354 4.55842 30.0516C4.5832 30.0678 4.61221 30.0764 4.64184 30.0763C4.67146 30.0762 4.70039 30.0673 4.72502 30.0509C4.75793 30.0282 4.78064 29.9936 4.78827 29.9544C4.79152 29.9371 5.28202 28.4726 5.37052 28.3179C5.85102 29.5956 6.37377 30.9749 6.39677 31.0451C6.44677 31.1951 6.59002 31.2541 6.68352 31.1656C6.92027 30.9406 7.41102 28.8386 7.58002 28.9744C7.70677 29.0759 8.01727 31.7961 7.23002 33.5136C7.15502 33.6751 7.21252 33.8956 7.34952 34.1894ZM7.58052 33.3853C7.8202 32.7534 7.96665 32.09 8.01527 31.4159C8.04177 31.0301 8.03002 30.4299 8.03352 30.4174C8.26959 29.8915 8.55107 29.3873 8.87477 28.9104C9.75327 27.8216 10.9653 27.2516 12.5915 27.4499C12.5915 27.4591 12.5823 27.4961 12.5823 27.4961C12.5755 27.5212 12.5763 27.5478 12.5845 27.5724C12.5927 27.5971 12.608 27.6188 12.6285 27.6349C13.3663 28.0789 14.4513 28.1641 15.226 27.6256C15.31 27.5671 15.2938 27.4869 15.2815 27.4129C16.101 27.1992 16.9666 27.2445 17.7593 27.5426C19.2918 28.1451 20.2403 29.7676 20.3108 32.7288C18.236 32.8548 9.50327 33.4156 7.58027 33.3853H7.58052ZM11.103 22.0971C11.0978 22.0622 11.0798 22.0306 11.0525 22.0083C11.0251 21.9861 10.9905 21.9748 10.9553 21.9768C10.7962 21.9817 10.6372 21.9631 10.4835 21.9216C10.1728 21.8361 10.0335 21.6793 10.0953 21.3761C10.1328 21.1938 10.3275 20.9571 10.7515 21.1171C10.771 21.1246 10.7919 21.1277 10.8127 21.1261C10.8335 21.1245 10.8537 21.1183 10.8718 21.1078C11.5913 20.6373 11.6933 19.8161 11.3803 19.1111C11.4803 19.0981 12.174 18.9808 12.1753 18.3161C12.1908 18.3226 13.1228 18.6618 13.5805 18.0293C13.7364 18.2075 13.9434 18.3333 14.1733 18.3896C14.4033 18.4459 14.645 18.4299 14.8655 18.3438C14.8333 19.1403 15.4208 19.2628 15.7808 19.3421C15.6717 19.5962 15.6627 19.8822 15.7554 20.1427C15.8481 20.4033 16.0357 20.6192 16.2808 20.7473C16.2953 20.7536 16.311 20.7568 16.3269 20.7568C16.3428 20.7568 16.3584 20.7536 16.373 20.7473C16.3905 20.7418 17.0503 20.6303 17.2048 21.0064C17.4298 21.5514 16.4888 21.6243 16.4653 21.6256C16.432 21.6272 16.4003 21.6399 16.3752 21.6617C16.3501 21.6835 16.333 21.7132 16.3268 21.7459C16.1746 22.4231 15.9801 23.09 15.7443 23.7429C15.2765 24.8951 14.6888 25.6053 13.9973 25.6748C13.0248 25.7726 12.2723 25.1119 11.7045 23.9186C11.4625 23.3259 11.2615 22.7173 11.1028 22.0971H11.103ZM11.1955 23.3821C11.0492 23.358 10.9127 23.2932 10.8015 23.1952C10.6903 23.0971 10.609 22.9697 10.5668 22.8276C10.5214 22.6398 10.515 22.4447 10.548 22.2543C10.5505 22.2408 10.5555 22.2381 10.5575 22.2266C10.652 22.2453 10.7478 22.2576 10.844 22.2636C10.9123 22.6501 11.0305 23.0261 11.1953 23.3821H11.1955ZM10.1875 19.0001C9.61777 18.5231 9.56977 18.0293 10.4648 17.7613C10.5008 17.7506 10.5313 17.7265 10.5502 17.694C10.5691 17.6615 10.575 17.623 10.5665 17.5863C10.562 17.5521 10.5558 17.5182 10.5478 17.4846C10.4785 17.2346 10.409 15.5891 12.0088 16.5696C12.0313 16.5836 12.0528 16.5991 12.0735 16.6156C12.0948 16.631 12.1196 16.6406 12.1457 16.6435C12.1717 16.6465 12.1981 16.6427 12.2222 16.6325C12.2464 16.6223 12.2675 16.606 12.2835 16.5853C12.2996 16.5646 12.31 16.54 12.3138 16.5141C12.3178 16.4818 12.3348 16.4276 12.3508 16.3476C12.6135 15.0206 13.906 15.2946 14.2458 15.8946C14.3413 16.0328 14.4048 16.1908 14.431 16.3568C14.4346 16.3851 14.4462 16.4118 14.4644 16.4337C14.4826 16.4556 14.5067 16.4719 14.5338 16.4806C14.5609 16.4893 14.59 16.4902 14.6176 16.483C14.6451 16.4758 14.6701 16.4609 14.6895 16.4401C14.7038 16.4246 15.3945 15.6013 16.1965 16.0333C16.6925 16.3003 16.5953 17.0751 16.3445 17.5493C16.3324 17.5713 16.326 17.596 16.3259 17.6212C16.3258 17.6463 16.332 17.671 16.3439 17.6931C16.3559 17.7152 16.3732 17.7339 16.3942 17.7476C16.4153 17.7613 16.4395 17.7694 16.4645 17.7713C17.041 17.7936 17.4803 18.2214 16.899 18.9639C16.8785 18.9931 16.869 19.0288 16.8725 19.0644C16.8759 19.1001 16.892 19.1333 16.9178 19.1581C17.362 19.6024 17.3695 19.9666 17.121 20.2858C17.0733 20.3485 17.0174 20.4045 16.9548 20.4523C16.7566 20.4146 16.553 20.4146 16.3548 20.4523C15.8548 20.2353 15.9965 19.5216 16.0955 19.3058C16.1046 19.2853 16.1085 19.2629 16.107 19.2404C16.1055 19.218 16.0985 19.1963 16.0867 19.1772C16.0748 19.1581 16.0585 19.1422 16.0392 19.1308C16.0198 19.1194 15.998 19.1129 15.9755 19.1118C15.6183 19.0811 15.0418 18.8161 15.1158 18.1689C15.1164 18.1436 15.1104 18.1186 15.0984 18.0964C15.0863 18.0742 15.0685 18.0556 15.0469 18.0424C15.0253 18.0293 15.0007 18.0221 14.9754 18.0215C14.9501 18.021 14.9252 18.0271 14.903 18.0393C14.7498 18.1293 14.5724 18.1696 14.3953 18.1547C14.2182 18.1398 14.0501 18.0704 13.914 17.9561C13.8394 17.8986 13.7739 17.83 13.7198 17.7528C13.7061 17.7338 13.6881 17.7182 13.6672 17.7075C13.6463 17.6967 13.6231 17.6911 13.5996 17.6911C13.5762 17.6911 13.553 17.6967 13.5321 17.7075C13.5112 17.7182 13.4932 17.7338 13.4795 17.7528C13.3519 17.9322 13.1653 18.061 12.9524 18.1167C12.7394 18.1724 12.5137 18.1516 12.3145 18.0578C12.2571 18.0376 12.2015 18.0125 12.1483 17.9828C12.1246 17.9681 12.0973 17.9602 12.0694 17.96C12.0416 17.9597 12.0141 17.9672 11.9902 17.9815C11.9663 17.9959 11.9468 18.0166 11.9339 18.0413C11.921 18.066 11.9152 18.0938 11.917 18.1216C11.9491 18.2563 11.9312 18.398 11.8666 18.5205C11.8019 18.643 11.6951 18.7378 11.5658 18.7873C11.4453 18.8348 11.3163 18.8566 11.1868 18.8518C11.1604 18.8513 11.1343 18.8577 11.1111 18.8702C11.088 18.8828 11.0684 18.9011 11.0544 18.9235C11.0404 18.9459 11.0325 18.9715 11.0314 18.9978C11.0303 19.0242 11.036 19.0504 11.048 19.0738C11.4075 19.7518 11.332 20.2488 11.0018 20.6176C10.8305 20.8086 10.8063 20.7949 10.78 20.8119C10.6594 20.7733 10.5315 20.7632 10.4063 20.7825C10.2812 20.8017 10.1622 20.8498 10.0588 20.9229C9.41327 20.3751 9.54727 19.7431 10.1883 19.2228C10.2051 19.2096 10.2187 19.1926 10.2281 19.1733C10.2374 19.1539 10.2422 19.1328 10.2421 19.1113C10.242 19.0898 10.2371 19.0687 10.2276 19.0494C10.2182 19.0301 10.2045 19.0133 10.1875 19.0001ZM16.132 23.5024C16.257 23.1524 16.382 22.8023 16.474 22.4391C16.4803 22.4141 16.599 21.9376 16.6033 21.9124C16.6815 21.8954 16.7585 21.8736 16.8343 21.8476C16.9038 22.5526 16.8098 23.2959 16.132 23.5024ZM12.932 25.7581C13.1838 25.9897 13.4864 26.159 13.8156 26.2521C14.1448 26.3453 14.4912 26.3597 14.827 26.2944C14.8548 26.5649 14.9388 27.1958 14.975 27.4314C14.6673 27.6443 14.3028 27.7598 13.9286 27.7631C13.5545 27.7664 13.1879 27.6573 12.8765 27.4499C12.9582 26.8898 12.9772 26.3224 12.9333 25.7581H12.932ZM21.732 32.6456C21.689 32.6481 20.907 32.6919 20.604 32.7101C20.529 29.6451 19.5188 27.9143 17.8675 27.2651C17.0243 26.951 16.1058 26.8994 15.2328 27.1171C15.1355 26.558 15.0799 25.9924 15.0665 25.4251C15.5252 24.9847 15.8572 24.4293 16.028 23.8168C17.02 23.6781 17.2555 22.6604 17.128 21.6904C17.4373 21.5759 17.7808 21.0603 17.2575 20.5626C17.2905 20.5341 17.3213 20.5031 17.3498 20.4701C17.667 20.0623 17.6673 19.5581 17.2018 19.0371C17.2373 18.9794 17.28 18.9191 17.313 18.8521C17.655 18.1606 17.488 17.6171 16.675 17.5021C17.0613 16.5483 16.747 15.9416 16.175 15.6903C15.631 15.4518 15.0813 15.6936 14.631 16.0878C14.6046 15.9609 14.5577 15.8391 14.4923 15.7271C14.3475 15.5096 14.1434 15.3382 13.904 15.2333C13.6647 15.1284 13.4003 15.0945 13.1423 15.1356C12.5398 15.1856 12.2093 15.6771 12.0608 16.2633C11.0745 15.7028 10.3995 16.0833 10.2673 16.8181C10.2236 17.0498 10.2173 17.2869 10.2485 17.5206C10.2528 17.5488 8.77352 18.0206 9.88827 19.1016C9.20052 19.7816 9.12977 20.5516 9.87877 21.1631C9.83905 21.2517 9.81771 21.3474 9.81604 21.4445C9.81437 21.5416 9.8324 21.638 9.86904 21.7279C9.90568 21.8179 9.96017 21.8994 10.0292 21.9677C10.0983 22.0359 10.1804 22.0895 10.2708 22.1251C10.0885 22.8981 10.4165 23.6078 11.3153 23.7336C11.5869 24.4577 12.0389 25.1004 12.6283 25.6011C12.7853 26.1651 12.6195 27.1546 12.6188 27.1636C12.2424 27.1087 11.861 27.0963 11.4818 27.1266C9.87252 27.2963 8.67927 28.3453 7.99652 29.7616C7.94027 29.1366 7.82727 28.6866 7.58952 28.6796C7.13502 28.6671 7.10577 29.3991 6.67452 30.4916C6.51327 27.8779 5.15752 16.6146 4.84377 13.9618C9.21227 13.3118 11.441 12.9201 20.745 12.3163C21.463 20.2603 21.7708 28.5611 21.7343 32.6456H21.732ZM21.1953 14.2206C21.1883 14.1346 21.0225 12.1616 21.0203 12.1406C21.0163 12.1027 20.9977 12.068 20.9684 12.0437C20.9391 12.0194 20.9014 12.0076 20.8635 12.0108C20.8448 12.0108 17.7135 12.2333 16.1203 12.3526C16.072 11.8041 16.0068 11.2451 15.8523 8.35885C20.208 7.48385 26.168 7.4801 30.6718 7.83185C30.6828 8.11885 31.2108 21.8966 31.254 22.7901L23.1833 23.2151C23.2118 23.0539 24.424 15.8831 24.4495 15.2271C24.4507 15.1994 24.4444 15.1718 24.4312 15.1474C24.418 15.1229 24.3984 15.1025 24.3745 15.0883C23.4249 14.4906 22.3191 14.1888 21.1975 14.2211L21.1953 14.2206ZM26.789 32.2013C27.014 32.2801 30.9915 33.6746 31.8183 33.8651C31.8333 34.2604 31.9088 38.2031 31.9318 38.2333C30.0068 38.2696 29.024 38.2929 27.0848 38.3861C27.0995 38.3634 26.7913 32.2019 26.7913 32.2019L26.789 32.2013ZM34.9615 38.4693C35.22 38.5633 35.2313 39.5478 35.0998 39.5786C34.9248 39.6198 24.4248 39.9431 24.0708 39.9298C23.9143 39.9241 23.9073 38.8733 24.0525 38.8298C24.4495 38.7121 34.609 38.3408 34.9638 38.4698L34.9615 38.4693ZM46.878 31.0194C34.8765 30.7381 22.0188 31.6479 22.0188 31.6386C22.0128 31.0184 22.0085 30.4101 22 29.7804C22.0058 29.7686 22.839 25.1504 23.128 23.5124L31.4205 23.0778C31.4395 23.0777 31.4583 23.0738 31.4757 23.0662C31.4931 23.0586 31.5087 23.0475 31.5217 23.0337C31.5347 23.0198 31.5447 23.0035 31.5512 22.9856C31.5576 22.9678 31.5604 22.9488 31.5593 22.9299L30.9593 7.6851C30.9572 7.64903 30.942 7.61497 30.9164 7.58942C30.8909 7.56387 30.8568 7.54863 30.8208 7.5466C26.601 7.17775 22.3551 7.23034 18.1458 7.7036C16.9083 7.8536 15.9378 8.0311 15.668 8.09185C15.6332 8.10057 15.6023 8.12088 15.5805 8.14946C15.5587 8.17803 15.5472 8.21316 15.548 8.2491C15.6275 9.75535 15.7178 10.9701 15.8253 12.3723C15.7185 12.3806 13.5928 12.5496 12.839 12.6223C12.7965 12.6266 12.8418 13.1243 12.3663 5.24485C12.4435 5.2276 15.8833 4.60485 17.249 4.42235C27.0543 3.1116 37.7193 3.1786 47.974 5.53485C47.8863 8.08085 46.8945 30.7091 46.8803 31.0186L46.878 31.0194Z" fill="#414141"/>
<path d="M14.5252 19.7395C14.5372 19.7325 14.5494 19.7265 14.5622 19.721C14.6959 19.6645 14.8547 19.6862 15.0622 19.869C15.0917 19.8953 15.1304 19.909 15.1699 19.9071C15.2094 19.9051 15.2466 19.8877 15.2733 19.8585C15.3001 19.8293 15.3143 19.7908 15.3129 19.7513C15.3114 19.7117 15.2945 19.6743 15.2657 19.6472C15.1621 19.5387 15.0292 19.4626 14.8832 19.4281C14.7372 19.3936 14.5843 19.4023 14.4432 19.453C14.4071 19.4674 14.3729 19.486 14.3412 19.5085C14.3258 19.5199 14.3129 19.5342 14.3032 19.5507C14.2934 19.5672 14.2871 19.5854 14.2845 19.6044C14.2819 19.6233 14.2832 19.6426 14.2881 19.6611C14.2931 19.6795 14.3017 19.6968 14.3134 19.712C14.3383 19.743 14.3743 19.7631 14.4138 19.7683C14.4532 19.7734 14.4931 19.7631 14.5252 19.7395Z" fill="#414141"/>
<path d="M12.6456 23.3821C12.8496 23.8251 13.1594 24.1014 13.5979 24.0939C13.9894 24.0874 14.2774 23.8119 14.4854 23.3729C14.5912 23.1596 14.666 22.9323 14.7074 22.6979C14.712 22.6733 14.7102 22.648 14.7022 22.6243C14.6941 22.6006 14.6802 22.5794 14.6616 22.5627C14.643 22.546 14.6205 22.5343 14.5961 22.5288C14.5717 22.5233 14.5463 22.5242 14.5224 22.5314C13.8993 22.6734 13.253 22.6797 12.6274 22.5499C12.6042 22.5458 12.5804 22.5472 12.5579 22.5539C12.5354 22.5607 12.5148 22.5727 12.4978 22.5889C12.4807 22.6051 12.4678 22.6251 12.4599 22.6472C12.452 22.6694 12.4494 22.6931 12.4524 22.7164C12.4819 22.9469 12.5474 23.1714 12.6456 23.3821ZM12.8769 22.8921C13.2691 22.9447 13.666 22.954 14.0604 22.9199C14.1689 22.9091 14.2651 22.8841 14.3654 22.8644C14.3263 22.9946 14.2768 23.1214 14.2174 23.2436C14.0526 23.5914 13.8496 23.7936 13.5979 23.7981C13.1299 23.8061 12.8979 23.3281 12.7844 22.8731C12.8166 22.8784 12.8421 22.8879 12.8769 22.8921Z" fill="#414141"/>
<path d="M14.8283 20.7001C14.7715 20.7096 14.7199 20.739 14.6826 20.783C14.6454 20.827 14.625 20.8828 14.625 20.9404C14.625 20.9981 14.6454 21.0539 14.6826 21.0979C14.7199 21.1419 14.7715 21.1713 14.8283 21.1808C14.8869 21.1735 14.9408 21.145 14.9799 21.1008C15.0189 21.0565 15.0405 20.9995 15.0405 20.9404C15.0405 20.8814 15.0189 20.8244 14.9799 20.7801C14.9408 20.7359 14.8869 20.7074 14.8283 20.7001Z" fill="#414141"/>
<path d="M12.3254 20.72C12.3738 20.713 12.4232 20.721 12.467 20.7429C12.5108 20.7648 12.5468 20.7996 12.5703 20.8425C12.5937 20.8855 12.6035 20.9346 12.5982 20.9832C12.593 21.0319 12.573 21.0778 12.5409 21.1148C12.5089 21.1517 12.4663 21.178 12.4188 21.1901C12.3714 21.2022 12.3214 21.1995 12.2756 21.1823C12.2297 21.1652 12.1902 21.1344 12.1623 21.0942C12.1345 21.054 12.1196 21.0062 12.1196 20.9572C12.1158 20.8986 12.1352 20.8407 12.1737 20.7963C12.2123 20.7519 12.2667 20.7245 12.3254 20.72Z" fill="#414141"/>
<path d="M13.5718 20.4332C13.5326 20.4333 13.495 20.4489 13.4672 20.4766C13.4395 20.5044 13.4239 20.542 13.4238 20.5812L13.4426 21.8755C13.4441 21.9136 13.4604 21.9497 13.488 21.9762C13.5155 22.0026 13.5523 22.0174 13.5905 22.0174C13.6287 22.0174 13.6654 22.0026 13.6929 21.9762C13.7205 21.9497 13.7368 21.9136 13.7383 21.8755L13.7198 20.5812C13.7198 20.542 13.7042 20.5043 13.6765 20.4766C13.6487 20.4488 13.6111 20.4332 13.5718 20.4332Z" fill="#414141"/>
<path d="M11.9894 19.6935C11.9686 19.7267 11.9618 19.7668 11.9705 19.8049C11.9792 19.8431 12.0027 19.8762 12.0359 19.897C12.0691 19.9179 12.1091 19.9247 12.1473 19.9159C12.1854 19.9072 12.2186 19.8837 12.2394 19.8505C12.3075 19.7397 12.4165 19.6601 12.5428 19.629C12.6691 19.5979 12.8026 19.6177 12.9144 19.6843C12.9314 19.693 12.9499 19.6983 12.969 19.6998C12.988 19.7013 13.0072 19.6989 13.0253 19.6929C13.0434 19.6868 13.0601 19.6773 13.0745 19.6647C13.0889 19.6521 13.1006 19.6367 13.1089 19.6195C13.1249 19.5825 13.126 19.5407 13.112 19.5028C13.0981 19.465 13.0701 19.4339 13.0339 19.416C12.8567 19.323 12.651 19.2998 12.4576 19.3512C12.2641 19.4026 12.097 19.5248 11.9894 19.6935Z" fill="#414141"/>
<path d="M35.907 7.47183C35.2097 7.51133 35.0387 8.24833 35.407 8.97883C35.473 9.09708 35.5502 9.20858 35.638 9.31158C35.1717 9.80658 34.6187 9.99583 34.1775 9.67208C34.1467 9.65053 34.1088 9.64174 34.0718 9.64755C34.0347 9.65336 34.0013 9.67333 33.9786 9.70324C33.956 9.73316 33.9458 9.7707 33.9502 9.80797C33.9547 9.84524 33.9734 9.87933 34.0025 9.90308C34.5847 10.3306 35.2775 10.1101 35.8327 9.53333C36.1986 9.86583 36.6701 10.0584 37.1641 10.077C37.6582 10.0956 38.1429 9.93911 38.5327 9.63508C39.1952 10.4881 40.3447 10.4216 41.1952 9.81008C41.6325 10.2173 42.3105 10.1601 43.1367 9.45858C43.1552 9.44252 43.1695 9.42227 43.1785 9.39952C43.1875 9.37678 43.1909 9.3522 43.1885 9.32786C43.186 9.30352 43.1778 9.28013 43.1644 9.25963C43.1511 9.23914 43.133 9.22215 43.1117 9.21008C43.0864 9.19655 43.0576 9.19099 43.0291 9.19411C43.0006 9.19723 42.9737 9.2089 42.952 9.22758C42.2587 9.81583 41.747 9.91008 41.4172 9.63433C42.3172 8.77558 41.9595 7.52983 41.223 7.66508C40.6855 7.76508 40.5617 8.82483 40.992 9.54183C40.8114 9.69473 40.6046 9.81373 40.3817 9.89308C39.6615 10.1101 39.109 9.90683 38.7547 9.44033C39.5752 8.61858 39.2952 7.51233 38.653 7.53583C38.0255 7.55883 37.899 8.52058 38.3757 9.37558C38.0413 9.64733 37.6205 9.79022 37.1897 9.77834C36.7589 9.76646 36.3467 9.6006 36.0277 9.31083C36.0737 9.25158 36.1227 9.20883 36.166 9.14433C36.3964 8.83126 36.5343 8.45971 36.5637 8.07208C36.5734 7.94321 36.5386 7.81493 36.4652 7.70858C36.3918 7.60223 36.2841 7.52424 36.1602 7.48758C36.0781 7.46322 35.9915 7.45784 35.907 7.47183ZM35.9257 7.76758C36.4507 7.76758 36.1717 8.67608 35.8422 9.08033C35.7802 9.00498 35.7246 8.92462 35.676 8.84008C35.3877 8.27158 35.4967 7.79208 35.925 7.76758H35.9257ZM38.662 7.83233C39.108 7.82408 38.9772 8.94633 38.5787 9.14508C38.2667 8.48758 38.355 7.83808 38.662 7.83233ZM41.2785 7.96183C41.691 7.88683 41.87 8.76608 41.2412 9.39483C40.8425 8.72708 41.0645 8.00008 41.2785 7.96183Z" fill="#016DAB"/>
<path d="M38.4205 11.8815C37.8815 11.9397 37.7455 12.5515 38.0232 13.1565C38.076 13.2547 38.1377 13.3475 38.208 13.434C37.9144 13.6556 37.5505 13.7636 37.1835 13.7381C36.8165 13.7126 36.4711 13.5553 36.211 13.2952C36.335 13.1882 36.4353 13.0565 36.5055 12.9085C36.5755 12.7602 36.6137 12.5992 36.618 12.4355C36.6222 12.3331 36.5947 12.2319 36.5392 12.1457C36.4837 12.0596 36.403 11.9927 36.308 11.9542C36.245 11.9286 36.1774 11.9162 36.1095 11.9177C35.5747 11.8867 35.3727 12.444 35.601 13.0177C35.646 13.119 35.7017 13.215 35.7672 13.3042C35.5615 13.4633 35.314 13.5594 35.0548 13.5807C34.7956 13.6021 34.5357 13.5478 34.3067 13.4245C34.2721 13.413 34.2345 13.4144 34.2009 13.4286C34.1674 13.4428 34.1401 13.4688 34.1243 13.5016C34.1084 13.5345 34.1051 13.572 34.1149 13.6071C34.1247 13.6422 34.1469 13.6726 34.1775 13.6925C34.4576 13.8401 34.7746 13.903 35.0898 13.8734C35.405 13.8438 35.7047 13.7231 35.9525 13.526C36.284 13.8274 36.7086 14.0064 37.1559 14.0334C37.6032 14.0603 38.0462 13.9335 38.4115 13.674C39.0767 14.313 39.9707 14.229 40.6865 13.6462C41.1332 14.1235 41.825 14.1712 42.6187 13.5815C42.6478 13.5577 42.6665 13.5236 42.671 13.4864C42.6754 13.4491 42.6652 13.4115 42.6426 13.3816C42.6199 13.3517 42.5865 13.3317 42.5494 13.3259C42.5124 13.3201 42.4745 13.3289 42.4437 13.3505C41.756 13.8607 41.2257 13.811 40.8812 13.4152C41.6465 12.6382 41.3497 11.8632 40.7887 11.8902C39.8117 11.9362 40.4922 13.4087 40.502 13.425C40.2555 13.6348 39.954 13.7696 39.6332 13.8132C39.4525 13.8301 39.2703 13.8056 39.1005 13.7416C38.9307 13.6775 38.7777 13.5755 38.6532 13.4435C38.7825 13.306 38.8857 13.146 38.9585 12.972C39.1877 12.3815 38.974 11.8217 38.4205 11.8815ZM38.4575 12.1772C38.9575 12.133 38.6635 13.074 38.4205 13.1757C38.1972 13.0422 38.074 12.1767 38.4575 12.1772ZM40.7965 12.1865C41.0777 12.1755 41.1542 12.7417 40.7042 13.1757C40.4762 12.7107 40.5335 12.197 40.7965 12.1865ZM36.1002 12.205C36.585 12.2402 36.142 13.0422 36.017 13.074C35.8905 13.075 35.504 12.25 36.1002 12.205Z" fill="#016DAB"/>
<path d="M34.6117 17.1326C34.5724 17.1351 34.5358 17.153 34.5098 17.1825C34.4969 17.1971 34.487 17.2141 34.4807 17.2325C34.4744 17.251 34.4717 17.2704 34.4729 17.2899C34.4742 17.3093 34.4792 17.3283 34.4877 17.3458C34.4963 17.3633 34.5082 17.3789 34.5228 17.3918C34.5523 17.4178 34.5909 17.4311 34.6302 17.4286C37.8997 17.3036 42.2227 17.3676 42.8027 17.4194C42.8419 17.424 42.8813 17.413 42.9124 17.3887C42.9435 17.3645 42.9638 17.329 42.9689 17.2899C42.9717 17.2497 42.9588 17.2099 42.933 17.1789C42.9072 17.1479 42.8705 17.128 42.8304 17.1234C42.2382 17.0706 37.8697 17.0071 34.6117 17.1326Z" fill="#87E4FF"/>
<path d="M34.5562 19.5642C34.517 19.5642 34.4794 19.5798 34.4516 19.6076C34.4239 19.6353 34.4083 19.6729 34.4082 19.7122C34.4104 19.7522 34.4279 19.7899 34.4571 19.8174C34.4864 19.845 34.5251 19.8602 34.5652 19.8599C36.795 19.8254 42.0852 20.0062 42.7377 20.0727C42.7779 20.0752 42.8176 20.0623 42.8486 20.0365C42.8796 20.0107 42.8995 19.974 42.9042 19.9339C42.906 19.8948 42.8925 19.8565 42.8667 19.8272C42.8408 19.7979 42.8045 19.7797 42.7655 19.7767C42.108 19.7094 36.802 19.5292 34.5562 19.5642Z" fill="#87E4FF"/>
<path d="M34.3525 22.4751C34.3148 22.4773 34.2793 22.4938 34.2533 22.5214C34.2274 22.5489 34.2129 22.5853 34.2129 22.6231C34.2129 22.6609 34.2274 22.6973 34.2533 22.7248C34.2793 22.7524 34.3148 22.7689 34.3525 22.7711C34.3695 22.7711 42.168 22.9868 42.7008 23.0483C42.7247 23.0523 42.7492 23.0501 42.7721 23.042C42.795 23.0339 42.8154 23.0201 42.8315 23.002C42.8477 22.9839 42.859 22.9621 42.8644 22.9384C42.8698 22.9148 42.8692 22.8902 42.8625 22.8668C42.8575 22.8482 42.8487 22.8307 42.8366 22.8156C42.8246 22.8005 42.8096 22.788 42.7925 22.7788C42.7756 22.7695 42.757 22.7638 42.7378 22.7618C42.1925 22.7001 34.3695 22.4766 34.3525 22.4751Z" fill="#87E4FF"/>
<path d="M34.871 26.1833C34.321 26.0788 25.8082 26.2891 24.3505 26.3866C23.6682 26.4323 23.4085 26.7493 23.3982 27.3946C23.384 28.2933 23.4522 28.8101 23.805 29.0308C24.0397 29.1776 24.596 29.1911 26.4122 29.1418C26.4225 29.1418 34.4065 28.9668 35.019 28.8918C35.7582 28.8021 35.919 28.2091 35.7772 27.3108C35.7752 27.2981 35.7105 26.9138 35.6845 26.8393C35.6251 26.6641 35.517 26.5093 35.373 26.3932C35.2289 26.277 35.0548 26.2042 34.871 26.1833ZM34.8157 26.4698C34.9485 26.4814 35.0751 26.5312 35.1801 26.6132C35.2851 26.6953 35.3641 26.806 35.4075 26.9321C35.4412 27.0721 35.4662 27.214 35.4825 27.3571C35.5962 28.1071 35.4825 28.5446 34.9825 28.6051C34.3857 28.6776 24.116 28.8768 23.9627 28.7801C23.7452 28.6441 23.6825 28.1751 23.6947 27.4028C23.702 26.9411 23.7967 26.7206 24.3785 26.6816C25.8022 26.5868 34.301 26.3721 34.8157 26.4698Z" fill="#414141"/>
<path d="M13.7798 3.2067C13.8597 3.20561 13.938 3.22829 14.0049 3.27185C14.0718 3.31541 14.1243 3.37788 14.1556 3.45132C14.1869 3.52477 14.1956 3.60586 14.1807 3.6843C14.1658 3.76274 14.1279 3.83497 14.0719 3.89181C14.0158 3.94865 13.9441 3.98754 13.8659 4.00352C13.7877 4.0195 13.7065 4.01186 13.6326 3.98156C13.5587 3.95127 13.4955 3.89969 13.4511 3.83338C13.4066 3.76708 13.3828 3.68904 13.3828 3.6092C13.3822 3.5032 13.4236 3.40127 13.498 3.3258C13.5725 3.25033 13.6738 3.2075 13.7798 3.2067Z" fill="#414141"/>
<path d="M15.7017 2.95695C15.7815 2.95586 15.8599 2.97853 15.9268 3.02209C15.9937 3.06565 16.0461 3.12812 16.0775 3.20157C16.1088 3.27501 16.1175 3.35611 16.1026 3.43454C16.0877 3.51298 16.0498 3.58521 15.9938 3.64205C15.9377 3.6989 15.866 3.73778 15.7878 3.75376C15.7095 3.76974 15.6283 3.7621 15.5545 3.73181C15.4806 3.70151 15.4174 3.64993 15.3729 3.58362C15.3285 3.51732 15.3047 3.43929 15.3047 3.35945C15.304 3.25345 15.3455 3.15151 15.4199 3.07605C15.4943 3.00058 15.5957 2.95774 15.7017 2.95695Z" fill="#87E4FF"/>
<path d="M17.5591 2.78727C17.6389 2.78618 17.7173 2.80885 17.7842 2.85241C17.8511 2.89597 17.9036 2.95845 17.9349 3.03189C17.9662 3.10533 17.9749 3.18643 17.96 3.26487C17.9451 3.3433 17.9072 3.41554 17.8512 3.47238C17.7951 3.52922 17.7234 3.5681 17.6452 3.58409C17.567 3.60007 17.4858 3.59242 17.4119 3.56213C17.338 3.53183 17.2748 3.48025 17.2304 3.41395C17.1859 3.34764 17.1621 3.26961 17.1621 3.18977C17.1615 3.08377 17.2029 2.98184 17.2773 2.90637C17.3518 2.8309 17.4531 2.78806 17.5591 2.78727Z" fill="white"/>
</svg>
