<svg width="70" height="70" viewBox="0 0 70 70" fill="none" xmlns="http://www.w3.org/2000/svg">
<rect width="70" height="70" rx="10" fill="#E7F8FF"/>
<path d="M11.5803 12.2254C11.5475 12.2564 11.5281 12.299 11.5262 12.3442C11.5242 12.3893 11.54 12.4333 11.5701 12.467C11.6014 12.502 13.1884 14.5644 13.6402 15.3045C13.7969 15.5638 13.9477 15.8267 14.0924 16.0929C14.1939 16.2776 14.4957 16.1335 14.3866 15.9352C14.2387 15.6619 14.0845 15.3921 13.9242 15.126C13.4694 14.3834 12.0544 12.4952 11.8211 12.2357C11.7901 12.203 11.7477 12.1837 11.7028 12.1818C11.6578 12.1799 11.6139 12.1955 11.5803 12.2254Z" fill="#005BC3"/>
<path d="M11.0444 16.4392C11.0245 16.4308 11.003 16.4265 10.9814 16.4268C10.9597 16.427 10.9383 16.4317 10.9186 16.4406C10.8988 16.4495 10.8811 16.4624 10.8666 16.4784C10.8521 16.4945 10.841 16.5133 10.8341 16.5339C10.8175 16.5757 10.8182 16.6224 10.8359 16.6638C10.8537 16.7051 10.887 16.7378 10.9287 16.7547C11.6418 17.1781 12.3232 17.6526 12.9676 18.1746C13.1867 18.392 13.3718 18.1047 13.2305 17.9643C12.5665 17.369 11.8324 16.8569 11.0444 16.4392Z" fill="#005BC3"/>
<path d="M12.4777 46.849C13.0916 46.8541 14.5075 46.7296 16.271 45.69C16.3107 45.667 16.355 45.6531 16.4007 45.6494C16.4465 45.6457 16.4925 45.6523 16.5353 45.6686C16.5782 45.685 16.6169 45.7107 16.6485 45.7439C16.6802 45.7771 16.7041 45.817 16.7183 45.8606C17.185 47.2588 19.0266 52.2835 22.3203 55.3873C22.3726 55.4356 22.4065 55.5005 22.4162 55.5711C22.4259 55.6416 22.4108 55.7133 22.3734 55.7739C21.7766 56.7342 19.2949 60.64 17.6159 61.9328C17.5582 61.9789 17.486 62.0028 17.4122 62.0002C17.3385 61.9977 17.2681 61.9688 17.2137 61.9189C16.3222 61.0921 12.5812 57.0528 12.1611 47.1758C12.1594 47.1333 12.1664 47.0909 12.1816 47.0512C12.1968 47.0114 12.2198 46.9752 12.2494 46.9446C12.279 46.9141 12.3145 46.8898 12.3538 46.8734C12.393 46.857 12.4352 46.8487 12.4777 46.849Z" fill="#FDAF31"/>
<path d="M19.095 55.7749C19.0532 55.7753 19.0127 55.7602 18.9814 55.7326C18.9501 55.7049 18.9301 55.6666 18.9253 55.6251C18.9223 55.5975 18.9261 55.5696 18.9364 55.5438L19.2328 54.8092C19.25 54.7684 19.2825 54.736 19.3234 54.719C19.3642 54.702 19.4101 54.7017 19.4511 54.7183C19.4922 54.7348 19.525 54.7668 19.5427 54.8073C19.5603 54.8479 19.5613 54.8938 19.5455 54.9351L19.249 55.6697C19.2366 55.7005 19.2153 55.7269 19.1879 55.7456C19.1605 55.7643 19.1282 55.7745 19.095 55.7749Z" fill="#313131"/>
<path d="M15.6354 55.355C15.6134 55.3559 15.5914 55.3525 15.5707 55.345C15.5499 55.3374 15.5309 55.3259 15.5146 55.311C15.4984 55.296 15.4852 55.2781 15.4759 55.2581C15.4666 55.2381 15.4613 55.2165 15.4604 55.1944C15.4594 55.1724 15.4628 55.1504 15.4704 55.1296C15.4779 55.1089 15.4895 55.0899 15.5044 55.0736C15.5193 55.0574 15.5373 55.0442 15.5573 55.0349C15.5773 55.0256 15.5989 55.0203 15.6209 55.0193L16.411 54.9625C16.4442 54.9597 16.4775 54.967 16.5065 54.9835C16.5355 55 16.5588 55.0249 16.5733 55.0549C16.5931 55.0948 16.5964 55.141 16.5824 55.1833C16.5756 55.2043 16.5647 55.2238 16.5502 55.2405C16.5357 55.2572 16.5181 55.2708 16.4983 55.2805C16.4785 55.2904 16.457 55.2963 16.4349 55.2979L15.6354 55.355Z" fill="#313131"/>
<path d="M18.0481 52.4777C17.9421 52.4795 17.9605 52.4698 17.4038 51.8153C17.378 51.781 17.3663 51.7382 17.371 51.6956C17.3757 51.653 17.3966 51.6138 17.4292 51.586C17.4618 51.5582 17.5039 51.544 17.5467 51.5461C17.5895 51.5483 17.6299 51.5667 17.6596 51.5976L18.1731 52.2009C18.1935 52.2252 18.2066 52.2548 18.211 52.2863C18.2153 52.3177 18.2107 52.3497 18.1976 52.3786C18.1845 52.4076 18.1636 52.4322 18.1371 52.4497C18.1107 52.4673 18.0798 52.477 18.0481 52.4777Z" fill="#313131"/>
<path d="M14.4427 52.4602C14.415 52.4604 14.3877 52.4539 14.3632 52.4411C14.3387 52.4283 14.3177 52.4096 14.302 52.3868C14.2864 52.364 14.2765 52.3377 14.2734 52.3102C14.2703 52.2828 14.274 52.2549 14.2841 52.2292L14.5805 51.4942C14.5977 51.4535 14.6302 51.4211 14.671 51.4041C14.7119 51.3871 14.7578 51.3868 14.7988 51.4033C14.8398 51.4198 14.8727 51.4518 14.8904 51.4924C14.908 51.533 14.909 51.5789 14.8931 51.6201L14.5967 52.3548C14.5843 52.3856 14.563 52.412 14.5356 52.4308C14.5082 52.4495 14.4759 52.4598 14.4427 52.4602Z" fill="#313131"/>
<path d="M16.797 48.938L16.0012 48.9263C15.9583 48.9233 15.9181 48.9039 15.889 48.8722C15.8599 48.8405 15.844 48.7989 15.8446 48.7558C15.8452 48.7128 15.8623 48.6716 15.8923 48.6407C15.9224 48.6098 15.9631 48.5916 16.0061 48.5898L16.7981 48.6018C16.8427 48.6018 16.8855 48.6195 16.917 48.651C16.9485 48.6825 16.9663 48.7253 16.9663 48.7699C16.9663 48.8145 16.9485 48.8572 16.917 48.8888C16.8855 48.9203 16.8427 48.938 16.7981 48.938H16.797Z" fill="#313131"/>
<path d="M17.6554 58.4581C17.5742 58.4581 17.6134 58.4729 16.9304 57.9229C16.9125 57.9093 16.8974 57.8922 16.8862 57.8727C16.8749 57.8531 16.8677 57.8315 16.8649 57.8092C16.8622 57.7868 16.8639 57.7641 16.87 57.7424C16.8761 57.7207 16.8865 57.7004 16.9006 57.6828C16.9221 57.6565 16.951 57.6373 16.9835 57.6277C17.016 57.618 17.0507 57.6183 17.0831 57.6285C17.1046 57.6353 17.1245 57.6464 17.1416 57.6612L17.7583 58.1594C17.7854 58.181 17.8051 58.2104 17.8147 58.2437C17.8244 58.2769 17.8235 58.3123 17.8122 58.345C17.801 58.3778 17.7798 58.4062 17.7518 58.4264C17.7237 58.4467 17.6901 58.4577 17.6554 58.4581Z" fill="#313131"/>
<path d="M13.4371 49.1287C13.3954 49.1288 13.3551 49.1136 13.3238 49.086C13.2926 49.0583 13.2726 49.0201 13.2677 48.9786C13.2647 48.9511 13.2685 48.9233 13.2788 48.8976L13.5752 48.1627C13.5924 48.1219 13.6249 48.0895 13.6658 48.0725C13.7066 48.0555 13.7525 48.0552 13.7935 48.0718C13.8346 48.0883 13.8675 48.1203 13.8851 48.1609C13.9028 48.2014 13.9037 48.2473 13.8879 48.2886L13.5914 49.0235C13.5791 49.0544 13.5578 49.081 13.5303 49.0997C13.5028 49.1184 13.4704 49.1285 13.4371 49.1287Z" fill="#313131"/>
<path d="M13.1764 46.6531C13.5845 46.7746 14.0158 46.7968 14.4343 46.7177C14.8528 46.6386 15.2462 46.4605 15.5819 46.1983C15.5819 46.1983 14.8455 45.5148 14.9495 44.7475C14.9495 44.7475 31.3156 43.9571 31.4458 43.8096V42.6936L36.8113 42.4332L37.2342 50.2818C37.2342 50.2818 34.1426 50.4989 33.8726 50.566C33.7231 50.8004 33.646 51.0738 33.651 51.3518C33.6561 51.6299 33.743 51.9003 33.901 52.1291L46.5788 51.7525C46.5788 51.7525 46.9983 50.776 46.4125 50.1343L43.037 50.2195L42.8 42.17C42.8 42.17 59.9423 42.0723 60.012 41.9748C60.0816 41.8773 61.3434 12.9008 61.2738 12.6785C61.2738 12.6785 41.9537 7.89909 20.427 12.3764L21.0127 21.0662C21.0127 21.0662 14.3547 21.8472 11.9369 22.3494C11.9369 22.3494 13.2574 34.1589 13.462 36.0372C13.462 36.0372 11.3324 38.0389 10.9326 40.8354C10.6535 42.7865 13.1764 46.6531 13.1764 46.6531Z" fill="white"/>
<path d="M33.3565 37.3279C33.3827 37.0073 33.6615 36.77 34.3032 36.7282C34.9449 36.6864 45.434 36.4074 46.1173 36.4912C46.3414 36.5144 46.5524 36.6077 46.7203 36.758C46.8882 36.9083 47.0043 37.1077 47.052 37.3279C47.0938 37.7919 47.0938 38.2587 47.052 38.7228C46.9952 38.8902 46.759 39.225 46.0198 39.2389C45.2806 39.2528 35.0239 39.6248 34.5775 39.597C34.131 39.5691 33.5259 39.6254 33.406 38.8717C33.3518 38.359 33.3352 37.843 33.3565 37.3279Z" fill="#005BC3"/>
<path d="M24.7772 20.8042C24.7772 20.8042 24.4007 15.9872 24.4424 15.9443C24.4842 15.9014 32.0955 14.4054 41.5711 15.4143C41.5711 15.4143 42.4078 32.4597 42.31 32.5708C42.2123 32.6819 31.3511 33.2051 31.3511 33.2051C31.3511 33.2051 30.6074 22.0359 30.2447 20.42C30.245 20.4203 25.336 20.5439 24.7772 20.8042Z" fill="#005BC3"/>
<path d="M20.2788 9.85684C45.3413 5.81433 61.3681 10.0919 61.3681 10.0919L61.2723 12.6781C61.2723 12.6781 42.659 7.78556 20.4255 12.3746L20.2788 9.85684Z" fill="#6BDDFF"/>
<path d="M38.0454 22.0169C38.0459 23.0899 37.6345 24.1221 36.8961 24.9006C36.1577 25.6792 35.1486 26.1445 34.0771 26.2006C34.2621 25.0203 34.3633 24.2303 34.3766 23.8906C34.3774 23.8592 34.37 23.8281 34.355 23.8004C34.3401 23.7727 34.3181 23.7494 34.2914 23.7329C33.1727 23.144 31.9387 22.8072 30.676 22.7461C30.6285 22.0572 30.4813 20.4103 30.4771 20.3816C30.4727 20.3385 30.4515 20.2989 30.4182 20.2713C30.3848 20.2437 30.342 20.2303 30.2989 20.2341C30.2955 20.2341 30.2082 20.2412 30.057 20.2514C30.4597 19.3875 31.145 18.6867 31.9997 18.2648C32.8544 17.8428 33.8275 17.725 34.7582 17.9308C35.6889 18.1365 36.5217 18.6536 37.1189 19.3964C37.7161 20.1393 38.0421 21.0637 38.0431 22.0169H38.0454Z" fill="white"/>
<path d="M42.1586 32.501C42.1586 32.501 38.6143 27.9404 33.7746 28.0732L32.9368 32.9711L42.1586 32.501Z" fill="white"/>
<path d="M61.4076 9.92338C61.3923 9.9194 57.5748 9.17451 56.058 8.96704C44.2556 7.35305 31.8755 7.87996 20.2831 9.64913C20.241 9.65577 20.2028 9.6776 20.1757 9.71048C20.1487 9.74337 20.1346 9.78504 20.1361 9.82761L20.8089 20.9684C14.57 21.6365 13.6356 21.8685 11.8755 22.135C11.8315 22.1419 11.7918 22.1654 11.7645 22.2005C11.7372 22.2357 11.7243 22.28 11.7286 22.3243C11.7286 22.3314 11.8934 23.7087 11.9704 24.3632C11.942 24.3672 9.4481 24.8574 8.48067 25.9814C8.20073 26.3069 11.5546 35.7728 12.1185 37.2692C12.0733 37.3493 10.644 39.7264 10.731 41.294C10.8069 42.6599 12.1 45.396 13.1797 46.8431C13.2223 46.8886 13.2772 46.9216 13.3374 46.938C14.1494 46.9262 14.9422 46.6901 15.6284 46.256C15.6617 46.2257 15.6823 46.1841 15.6863 46.1393C15.6902 46.0946 15.6772 46.05 15.6497 46.0144C15.3784 45.6789 15.1795 45.2909 15.0657 44.8747C15.9638 44.8463 31.4406 44.0193 31.4665 44.0176C31.5091 44.0146 31.5491 43.9956 31.5783 43.9644C31.6076 43.9332 31.624 43.8921 31.6242 43.8493C31.6273 43.5503 31.6157 43.2005 31.614 42.883C31.6552 42.883 34.7721 42.7495 36.6688 42.6727C36.6688 42.6727 37.0758 50.2064 37.0897 50.2294C35.8304 50.2919 33.9658 50.357 33.8316 50.3974C33.3317 50.5474 33.3422 52.2882 33.9365 52.3101C34.3682 52.3263 46.3201 51.9565 46.5585 51.9005C47.0496 51.7849 47.0363 50.2035 46.4432 49.9875C46.3167 49.9418 44.4253 50.0074 43.1643 50.029C43.1873 50.002 42.9952 42.6844 42.9852 42.4314C44.429 42.3811 57.3466 42.0745 60.0213 42.1791C60.0658 42.1813 60.1094 42.1661 60.1429 42.1367C60.1761 42.1071 60.1966 42.0657 60.2 42.0213C60.2029 41.9645 61.4758 12.7003 61.5358 10.0931C61.5372 10.0543 61.5252 10.0163 61.5019 9.9854C61.4785 9.95449 61.4452 9.93258 61.4076 9.92338ZM56.0055 9.30325C57.516 9.50987 61.1345 10.2028 61.1973 10.2175C61.1783 10.9884 61.1554 11.7592 61.1288 12.5298C49.6569 9.9032 37.5825 9.75059 26.1476 11.2793C24.5896 11.4876 20.8015 12.1584 20.6182 12.1959L20.4829 9.95521C32.0875 8.19457 44.3776 7.71313 56.0055 9.30325ZM14.9341 45.446C14.9747 45.5338 15.2939 46.0846 15.3021 46.0977C14.7401 46.4503 14.0835 46.6226 13.4207 46.5913C12.3819 45.1797 11.1698 42.5516 11.0666 41.2736C11.0706 40.784 11.1522 40.2981 11.3085 39.8341C11.5939 39.0999 11.9164 38.3807 12.2748 37.6793C12.3987 38.0095 12.4032 38.0334 12.5269 38.3614C12.1719 39.0663 11.8902 39.8058 11.6862 40.5682C11.6803 40.6013 11.6842 40.6355 11.6975 40.6664C11.7108 40.6974 11.7329 40.7237 11.7611 40.7421C11.7893 40.7606 11.8223 40.7703 11.8559 40.7702C11.8896 40.77 11.9225 40.76 11.9505 40.7413C11.9879 40.7155 12.0137 40.6761 12.0224 40.6316C12.0261 40.612 12.5837 38.9471 12.6843 38.7712C13.2306 40.2237 13.8248 41.7917 13.851 41.8716C13.9078 42.0421 14.0707 42.1091 14.177 42.0085C14.4461 41.7528 15.004 39.3632 15.1961 39.5175C15.3402 39.6329 15.6932 42.7253 14.7982 44.6778C14.713 44.8614 14.7783 45.112 14.9341 45.446ZM15.1967 44.532C15.4692 43.8136 15.6356 43.0594 15.6909 42.293C15.721 41.8545 15.7077 41.1721 15.7117 41.1579C15.98 40.5601 16.3 39.9869 16.668 39.4447C17.6667 38.207 19.0445 37.559 20.8933 37.7844C20.8933 37.7949 20.8827 37.837 20.8827 37.837C20.8751 37.8655 20.8759 37.8957 20.8853 37.9238C20.8946 37.9518 20.912 37.9765 20.9353 37.9947C21.774 38.4995 23.0074 38.5964 23.8882 37.9842C23.9837 37.9177 23.9652 37.8265 23.9513 37.7424C24.8829 37.4995 25.8669 37.551 26.768 37.8899C28.5102 38.5748 29.5885 40.4193 29.6686 43.7857C27.31 43.9289 17.3825 44.5664 15.1964 44.532H15.1967ZM19.2011 31.6993C19.1952 31.6597 19.1747 31.6237 19.1436 31.5984C19.1126 31.5731 19.0732 31.5604 19.0331 31.5626C18.8523 31.5681 18.6716 31.547 18.4969 31.4998C18.1436 31.4026 17.9853 31.2244 18.0555 30.8797C18.0981 30.6725 18.3195 30.4034 18.8015 30.5853C18.8237 30.5938 18.8474 30.5973 18.8711 30.5955C18.8947 30.5937 18.9177 30.5866 18.9382 30.5747C19.7562 30.0399 19.8721 29.1063 19.5163 28.3048C19.63 28.29 20.4186 28.1567 20.4201 27.401C20.4377 27.4084 21.4972 27.7941 22.0176 27.0751C22.1948 27.2776 22.4301 27.4206 22.6915 27.4846C22.9529 27.5486 23.2277 27.5304 23.4784 27.4326C23.4417 28.3381 24.1096 28.4773 24.5188 28.5674C24.3949 28.8563 24.3846 29.1814 24.49 29.4776C24.5954 29.7738 24.8087 30.0192 25.0872 30.1649C25.1038 30.172 25.1217 30.1757 25.1397 30.1757C25.1577 30.1757 25.1756 30.172 25.1921 30.1649C25.212 30.1587 25.962 30.0319 26.1377 30.4594C26.3934 31.0789 25.3237 31.1619 25.297 31.1633C25.2592 31.1651 25.2231 31.1796 25.1946 31.2044C25.166 31.2292 25.1466 31.2629 25.1395 31.3C24.9666 32.0699 24.7454 32.8281 24.4773 33.5703C23.9456 34.8801 23.2774 35.6876 22.4913 35.7666C21.3858 35.8777 20.5303 35.1266 19.8849 33.77C19.6098 33.0963 19.3812 32.4044 19.2008 31.6993H19.2011ZM19.3063 33.1601C19.14 33.1328 18.9847 33.0591 18.8583 32.9476C18.7319 32.8362 18.6395 32.6913 18.5915 32.5298C18.5399 32.3163 18.5327 32.0945 18.5702 31.8781C18.573 31.8628 18.5787 31.8596 18.581 31.8466C18.6884 31.8679 18.7973 31.8818 18.9067 31.8886C18.9843 32.328 19.1187 32.7554 19.306 33.1601H19.3063ZM18.1604 28.1786C17.5127 27.6364 17.4581 27.0751 18.4755 26.7704C18.5165 26.7581 18.5512 26.7307 18.5727 26.6938C18.5942 26.6568 18.6008 26.6131 18.5912 26.5715C18.5861 26.5326 18.579 26.4939 18.5699 26.4558C18.4912 26.1716 18.4122 24.301 20.2308 25.4156C20.2564 25.4315 20.2808 25.4491 20.3044 25.4679C20.3285 25.4854 20.3568 25.4963 20.3864 25.4997C20.416 25.503 20.446 25.4987 20.4734 25.4871C20.5009 25.4755 20.5249 25.457 20.5431 25.4334C20.5613 25.4099 20.5732 25.382 20.5775 25.3525C20.5821 25.3158 20.6014 25.2542 20.6196 25.1632C20.9183 23.6547 22.3876 23.9662 22.7738 24.6483C22.8824 24.8054 22.9546 24.985 22.9844 25.1737C22.9885 25.2059 23.0017 25.2362 23.0224 25.2611C23.0431 25.286 23.0705 25.3045 23.1013 25.3144C23.1321 25.3243 23.1651 25.3253 23.1965 25.3171C23.2278 25.309 23.2562 25.2921 23.2783 25.2684C23.2945 25.2508 24.0797 24.3149 24.9915 24.806C25.5553 25.1095 25.4448 25.9903 25.1597 26.5294C25.1459 26.5544 25.1386 26.5825 25.1385 26.611C25.1384 26.6396 25.1455 26.6677 25.159 26.6928C25.1726 26.7179 25.1923 26.7392 25.2162 26.7548C25.2402 26.7703 25.2677 26.7796 25.2961 26.7818C25.9515 26.8071 26.4509 27.2933 25.7901 28.1374C25.7667 28.1707 25.756 28.2113 25.7599 28.2518C25.7638 28.2923 25.7821 28.33 25.8114 28.3582C26.3164 28.8633 26.325 29.2774 26.0425 29.6403C25.9882 29.7115 25.9246 29.7752 25.8535 29.8296C25.6281 29.7867 25.3967 29.7867 25.1714 29.8296C24.603 29.5829 24.7641 28.7715 24.8767 28.5262C24.887 28.5028 24.8915 28.4773 24.8897 28.4518C24.8879 28.4264 24.88 28.4017 24.8666 28.38C24.8531 28.3583 24.8346 28.3401 24.8126 28.3272C24.7906 28.3142 24.7657 28.3069 24.7402 28.3057C24.3341 28.2707 23.6787 27.9695 23.7629 27.2337C23.7636 27.2049 23.7568 27.1765 23.7431 27.1513C23.7293 27.126 23.7092 27.1049 23.6846 27.0899C23.6601 27.075 23.632 27.0668 23.6033 27.0662C23.5745 27.0656 23.5462 27.0726 23.521 27.0864C23.3468 27.1887 23.1451 27.2345 22.9438 27.2175C22.7425 27.2006 22.5514 27.1217 22.3967 26.9918C22.3118 26.9264 22.2374 26.8485 22.1759 26.7607C22.1603 26.739 22.1398 26.7213 22.1161 26.7091C22.0923 26.6969 22.066 26.6906 22.0393 26.6906C22.0126 26.6906 21.9863 26.6969 21.9625 26.7091C21.9388 26.7213 21.9183 26.739 21.9027 26.7607C21.7576 26.9646 21.5455 27.111 21.3035 27.1744C21.0614 27.2377 20.8047 27.2141 20.5784 27.1075C20.5131 27.0845 20.4498 27.0559 20.3894 27.0222C20.3625 27.0054 20.3314 26.9964 20.2997 26.9962C20.268 26.9959 20.2369 27.0044 20.2097 27.0207C20.1825 27.037 20.1604 27.0605 20.1457 27.0886C20.131 27.1167 20.1244 27.1483 20.1265 27.1799C20.1629 27.3331 20.1426 27.4942 20.0691 27.6334C19.9957 27.7726 19.8741 27.8804 19.7272 27.9368C19.5902 27.9908 19.4435 28.0155 19.2963 28.0101C19.2663 28.0095 19.2367 28.0167 19.2103 28.031C19.184 28.0452 19.1618 28.0661 19.1459 28.0915C19.13 28.117 19.121 28.1461 19.1197 28.176C19.1184 28.206 19.1249 28.2358 19.1386 28.2625C19.5473 29.0332 19.4614 29.5982 19.086 30.0174C18.8913 30.2346 18.8638 30.2189 18.8339 30.2382C18.6968 30.1944 18.5514 30.1829 18.4091 30.2048C18.2668 30.2267 18.1316 30.2814 18.014 30.3644C17.2802 29.7417 17.4325 29.0233 18.1612 28.4319C18.1804 28.4167 18.1958 28.3975 18.2064 28.3755C18.217 28.3535 18.2225 28.3294 18.2224 28.305C18.2223 28.2806 18.2167 28.2566 18.206 28.2347C18.1952 28.2128 18.1796 28.1936 18.1604 28.1786ZM24.9181 33.2968C25.0602 32.899 25.2024 32.5011 25.3069 32.0881C25.314 32.0597 25.449 31.518 25.4539 31.4893C25.5428 31.47 25.6304 31.4453 25.7165 31.4157C25.7955 32.2172 25.6886 33.0621 24.9181 33.2968ZM21.2803 35.8612C21.5665 36.1246 21.9106 36.3169 22.2848 36.4228C22.659 36.5287 23.0529 36.5452 23.4346 36.4708C23.4662 36.7783 23.5616 37.4957 23.6029 37.7634C23.2531 38.0054 22.8386 38.1368 22.4133 38.1406C21.9879 38.1443 21.5713 38.0202 21.2173 37.7844C21.3101 37.1477 21.3317 36.5027 21.2818 35.8612H21.2803ZM31.2843 43.691C31.2354 43.6939 30.3464 43.7436 30.002 43.7643C29.9167 40.28 28.7683 38.3125 26.8911 37.5744C25.9325 37.2173 24.8884 37.1587 23.8959 37.4061C23.7853 36.7706 23.7221 36.1276 23.7069 35.4827C24.2283 34.982 24.6058 34.3506 24.7999 33.6544C25.9276 33.4966 26.1954 32.3396 26.0504 31.2369C26.402 31.1068 26.7925 30.5207 26.1976 29.9549C26.2351 29.9224 26.2702 29.8873 26.3025 29.8497C26.6632 29.3862 26.6634 28.813 26.1343 28.2207C26.1746 28.155 26.2232 28.0865 26.2607 28.0104C26.6495 27.2243 26.4597 26.6064 25.5354 26.4757C25.9745 25.3914 25.6173 24.7017 24.967 24.4161C24.3486 24.1449 23.7236 24.4198 23.2118 24.8679C23.1817 24.7236 23.1285 24.5851 23.0541 24.4578C22.8895 24.2105 22.6574 24.0157 22.3854 23.8965C22.1133 23.7773 21.8127 23.7387 21.5194 23.7854C20.8344 23.8422 20.4587 24.401 20.2899 25.0675C19.1687 24.4303 18.4014 24.8628 18.251 25.6981C18.2014 25.9615 18.1942 26.2311 18.2297 26.4967C18.2345 26.5288 16.5529 27.0651 17.8202 28.294C17.0383 29.067 16.9579 29.9424 17.8094 30.6376C17.7642 30.7383 17.74 30.8471 17.7381 30.9575C17.7362 31.0678 17.7566 31.1774 17.7983 31.2797C17.84 31.3819 17.9019 31.4746 17.9804 31.5522C18.0589 31.6298 18.1523 31.6907 18.255 31.7312C18.0478 32.6099 18.4207 33.4168 19.4424 33.5597C19.7512 34.3829 20.265 35.1136 20.935 35.6827C21.1135 36.3239 20.9251 37.4488 20.9242 37.459C20.4963 37.3966 20.0627 37.3825 19.6317 37.4169C17.8023 37.6099 16.4458 38.8024 15.6696 40.4124C15.6057 39.7019 15.4772 39.1904 15.2069 39.1824C14.6902 39.1682 14.657 40.0004 14.1667 41.2423C13.9834 38.271 12.4422 25.4668 12.0855 22.4511C17.0517 21.7121 19.5854 21.2668 30.1623 20.5804C30.9785 29.6113 31.3284 39.0477 31.2869 43.691H31.2843ZM30.6741 22.7452C30.6662 22.6475 30.4777 20.4045 30.4752 20.3807C30.4707 20.3376 30.4496 20.2981 30.4162 20.2705C30.3829 20.2429 30.3401 20.2295 30.297 20.2331C30.2757 20.2331 26.716 20.4861 24.9048 20.6217C24.8499 19.9981 24.7758 19.3626 24.6001 16.0815C29.5518 15.0868 36.3272 15.0825 41.4471 15.4824C41.4596 15.8087 42.0599 31.4714 42.109 32.4872L32.9341 32.9703C32.9665 32.787 34.3446 24.6352 34.3736 23.8894C34.375 23.8579 34.3677 23.8266 34.3527 23.7988C34.3377 23.771 34.3155 23.7478 34.2883 23.7317C33.2088 23.0522 31.9517 22.709 30.6767 22.7458L30.6741 22.7452ZM37.0332 43.186C37.289 43.2755 41.8106 44.8608 42.7505 45.0774C42.7675 45.5267 42.8534 50.0089 42.8795 50.0433C40.6912 50.0845 39.574 50.1109 37.3694 50.2169C37.3862 50.191 37.0357 43.1866 37.0357 43.1866L37.0332 43.186ZM46.3238 50.3115C46.6177 50.4184 46.6304 51.5376 46.481 51.5725C46.282 51.6194 34.3455 51.9869 33.943 51.9719C33.7651 51.9653 33.7572 50.7708 33.9223 50.7214C34.3736 50.5875 45.9231 50.1655 46.3263 50.3121L46.3238 50.3115ZM59.8706 41.8423C46.2272 41.5225 31.6103 42.5568 31.6103 42.5462C31.6035 41.8411 31.5986 41.1497 31.589 40.4338C31.5955 40.4204 32.5428 35.1703 32.8713 33.3082L42.2983 32.8143C42.3199 32.8142 42.3412 32.8096 42.361 32.801C42.3808 32.7924 42.3986 32.7798 42.4134 32.7641C42.4281 32.7483 42.4395 32.7297 42.4469 32.7094C42.4542 32.6891 42.4573 32.6676 42.4561 32.646L41.774 15.3156C41.7717 15.2746 41.7543 15.2358 41.7253 15.2068C41.6963 15.1778 41.6575 15.1604 41.6165 15.1581C36.8195 14.7388 31.9926 14.7986 27.2074 15.3366C25.8006 15.5071 24.6973 15.7089 24.3907 15.778C24.351 15.7879 24.3159 15.811 24.2911 15.8435C24.2664 15.8759 24.2534 15.9159 24.2542 15.9567C24.3446 17.6691 24.4472 19.05 24.5694 20.6441C24.4481 20.6535 22.0315 20.8456 21.1746 20.9283C21.1263 20.9331 21.1777 21.499 20.6372 12.5415C20.725 12.5219 24.6354 11.8139 26.188 11.6064C37.3347 10.1164 49.4588 10.1925 61.1166 12.8711C61.0168 15.7655 59.8894 41.4896 59.8732 41.8414L59.8706 41.8423Z" fill="#313131"/>
<path d="M23.0915 29.0196C23.1051 29.0117 23.119 29.0049 23.1335 28.9986C23.2856 28.9344 23.466 28.9591 23.7019 29.1668C23.7355 29.1968 23.7795 29.2124 23.8244 29.2102C23.8693 29.2079 23.9116 29.1881 23.942 29.155C23.9724 29.1218 23.9886 29.078 23.9869 29.0331C23.9853 28.9881 23.966 28.9456 23.9333 28.9148C23.8155 28.7914 23.6645 28.7049 23.4985 28.6657C23.3325 28.6265 23.1588 28.6363 22.9982 28.6939C22.9572 28.7103 22.9183 28.7315 22.8823 28.757C22.8648 28.77 22.8502 28.7863 22.8391 28.8051C22.8281 28.8238 22.8208 28.8445 22.8179 28.8661C22.815 28.8876 22.8164 28.9095 22.822 28.9305C22.8276 28.9515 22.8374 28.9712 22.8507 28.9884C22.8791 29.0236 22.92 29.0466 22.9648 29.0524C23.0097 29.0582 23.0551 29.0465 23.0915 29.0196Z" fill="#313131"/>
<path d="M20.957 33.1606C21.1889 33.6642 21.541 33.9783 22.0395 33.9697C22.4846 33.9623 22.812 33.6492 23.0484 33.1501C23.1688 32.9077 23.2538 32.6493 23.3008 32.3827C23.3061 32.3548 23.304 32.326 23.2949 32.2991C23.2858 32.2722 23.2699 32.2481 23.2488 32.2291C23.2277 32.21 23.202 32.1968 23.1743 32.1906C23.1466 32.1843 23.1177 32.1853 23.0905 32.1935C22.3822 32.3549 21.6475 32.3621 20.9362 32.2145C20.9099 32.2098 20.8829 32.2114 20.8573 32.2191C20.8317 32.2268 20.8083 32.2404 20.7889 32.2589C20.7696 32.2773 20.7548 32.3 20.7459 32.3252C20.7369 32.3503 20.734 32.3773 20.7373 32.4038C20.7708 32.6658 20.8453 32.921 20.957 33.1606ZM21.2199 32.6036C21.6658 32.6634 22.117 32.6739 22.5653 32.6351C22.6886 32.6229 22.7981 32.5945 22.912 32.572C22.8676 32.72 22.8114 32.8642 22.7438 33.0032C22.5565 33.3985 22.3257 33.6284 22.0395 33.6335C21.5075 33.6426 21.2438 33.0992 21.1147 32.582C21.1514 32.5879 21.1804 32.5987 21.2199 32.6036Z" fill="#313131"/>
<path d="M23.4361 30.1113C23.3715 30.1222 23.3128 30.1556 23.2705 30.2056C23.2282 30.2557 23.205 30.3191 23.205 30.3846C23.205 30.4501 23.2282 30.5135 23.2705 30.5635C23.3128 30.6136 23.3715 30.647 23.4361 30.6579C23.5027 30.6495 23.564 30.6171 23.6084 30.5668C23.6528 30.5165 23.6773 30.4517 23.6773 30.3846C23.6773 30.3175 23.6528 30.2527 23.6084 30.2023C23.564 30.152 23.5027 30.1197 23.4361 30.1113Z" fill="#313131"/>
<path d="M20.5908 30.1337C20.6458 30.1257 20.702 30.1348 20.7518 30.1597C20.8015 30.1846 20.8425 30.2241 20.8692 30.2729C20.8958 30.3218 20.9069 30.3776 20.901 30.4329C20.895 30.4882 20.8723 30.5404 20.8358 30.5824C20.7994 30.6245 20.7509 30.6544 20.697 30.6681C20.6431 30.6818 20.5863 30.6787 20.5341 30.6593C20.482 30.6398 20.4371 30.6048 20.4054 30.5591C20.3737 30.5133 20.3568 30.459 20.3569 30.4034C20.3525 30.3367 20.3746 30.2709 20.4184 30.2204C20.4622 30.1699 20.5241 30.1387 20.5908 30.1337Z" fill="#313131"/>
<path d="M22.0077 29.8076C21.9631 29.8077 21.9204 29.8254 21.8888 29.857C21.8573 29.8885 21.8396 29.9313 21.8395 29.9759L21.8608 31.4472C21.8626 31.4906 21.8811 31.5316 21.9124 31.5617C21.9437 31.5917 21.9855 31.6085 22.0289 31.6085C22.0723 31.6085 22.1141 31.5917 22.1454 31.5617C22.1767 31.5316 22.1952 31.4906 22.197 31.4472L22.176 29.9759C22.176 29.9312 22.1582 29.8884 22.1267 29.8569C22.0951 29.8253 22.0523 29.8076 22.0077 29.8076Z" fill="#313131"/>
<path d="M20.2088 28.9674C20.1851 29.0051 20.1774 29.0507 20.1873 29.094C20.1972 29.1374 20.224 29.1751 20.2617 29.1988C20.2994 29.2224 20.3449 29.2302 20.3883 29.2202C20.4317 29.2103 20.4693 29.1836 20.493 29.1459C20.5704 29.0199 20.6943 28.9294 20.8379 28.894C20.9815 28.8587 21.1333 28.8813 21.2604 28.9569C21.2797 28.9669 21.3008 28.9728 21.3224 28.9745C21.344 28.9762 21.3658 28.9735 21.3864 28.9667C21.407 28.9598 21.426 28.9489 21.4424 28.9346C21.4587 28.9203 21.472 28.9028 21.4815 28.8833C21.4996 28.8412 21.5009 28.7937 21.485 28.7506C21.4691 28.7076 21.4373 28.6723 21.3962 28.652C21.1948 28.5462 20.9609 28.5199 20.741 28.5783C20.5211 28.6367 20.3312 28.7756 20.2088 28.9674Z" fill="#313131"/>
<path d="M47.3987 15.0736C46.606 15.1185 46.4117 15.9563 46.8303 16.7868C46.9053 16.9212 46.9931 17.0479 47.0929 17.165C46.5628 17.7278 45.9342 17.9429 45.4326 17.5749C45.3976 17.5504 45.3546 17.5404 45.3124 17.547C45.2703 17.5536 45.2323 17.5763 45.2065 17.6103C45.1808 17.6443 45.1692 17.687 45.1743 17.7293C45.1793 17.7717 45.2006 17.8105 45.2336 17.8375C45.8955 18.3234 46.6831 18.0728 47.3143 17.4171C47.7302 17.7951 48.2663 18.014 48.8279 18.0352C49.3895 18.0563 49.9405 17.8784 50.3837 17.5328C51.1368 18.5025 52.4436 18.4269 53.4104 17.7317C53.9075 18.1947 54.6783 18.1296 55.6176 17.3321C55.6385 17.3139 55.6548 17.2909 55.6651 17.265C55.6753 17.2391 55.6792 17.2112 55.6764 17.1835C55.6736 17.1559 55.6643 17.1293 55.6491 17.106C55.6339 17.0827 55.6133 17.0634 55.5891 17.0496C55.5604 17.0343 55.5277 17.0279 55.4953 17.0315C55.4629 17.035 55.4323 17.0483 55.4075 17.0695C54.6194 17.7383 54.0377 17.8454 53.6628 17.5319C54.686 16.5557 54.2793 15.1395 53.442 15.2933C52.831 15.4069 52.6903 16.6117 53.1794 17.4268C52.9741 17.6006 52.7391 17.7359 52.4856 17.8261C51.6669 18.0728 51.0388 17.8417 50.636 17.3114C51.5688 16.3772 51.2505 15.1196 50.5204 15.1463C49.807 15.1725 49.6632 16.2658 50.2052 17.2378C49.825 17.5467 49.3466 17.7091 48.8569 17.6956C48.3672 17.6821 47.8986 17.4936 47.536 17.1642C47.5882 17.0968 47.644 17.0482 47.6931 16.9749C47.9551 16.619 48.1118 16.1966 48.1453 15.7559C48.1563 15.6095 48.1167 15.4636 48.0333 15.3427C47.9498 15.2218 47.8275 15.1332 47.6866 15.0915C47.5932 15.0638 47.4948 15.0577 47.3987 15.0736ZM47.42 15.4098C48.0168 15.4098 47.6997 16.4426 47.3251 16.9021C47.2546 16.8165 47.1914 16.7251 47.1361 16.629C46.8084 15.9827 46.9323 15.4376 47.4191 15.4098H47.42ZM50.5306 15.4834C51.0376 15.474 50.889 16.7498 50.436 16.9758C50.0813 16.2283 50.1816 15.4899 50.5306 15.4834ZM53.5051 15.6306C53.974 15.5454 54.1775 16.5449 53.4627 17.2597C53.0094 16.5006 53.2618 15.6741 53.5051 15.6306Z" fill="#005BC3"/>
<path d="M50.256 20.0865C49.6433 20.1528 49.4887 20.8482 49.8044 21.536C49.8644 21.6477 49.9346 21.7531 50.0145 21.8514C49.6807 22.1034 49.267 22.2262 48.8498 22.1972C48.4326 22.1682 48.04 21.9894 47.7442 21.6937C47.8852 21.572 47.9992 21.4223 48.079 21.254C48.1586 21.0855 48.2021 20.9025 48.2069 20.7163C48.2117 20.5999 48.1805 20.4849 48.1174 20.3869C48.0543 20.289 47.9625 20.213 47.8545 20.1692C47.7829 20.1401 47.7061 20.126 47.6289 20.1277C47.0209 20.0925 46.7913 20.726 47.0508 21.3782C47.1019 21.4933 47.1653 21.6025 47.2398 21.7039C47.0059 21.8848 46.7246 21.994 46.4299 22.0183C46.1352 22.0425 45.8398 21.9808 45.5795 21.8406C45.5401 21.8276 45.4974 21.8292 45.4592 21.8454C45.421 21.8615 45.39 21.891 45.372 21.9284C45.354 21.9657 45.3502 22.0083 45.3614 22.0482C45.3725 22.0882 45.3978 22.1227 45.4325 22.1453C45.7509 22.3131 46.1113 22.3846 46.4696 22.351C46.828 22.3174 47.1687 22.1801 47.4504 21.956C47.8273 22.2987 48.31 22.5022 48.8184 22.5328C49.3269 22.5634 49.8305 22.4193 50.2458 22.1243C51.0021 22.8507 52.0184 22.7552 52.832 22.0927C53.3399 22.6353 54.1263 22.6896 55.0287 22.0191C55.0617 21.9921 55.083 21.9534 55.088 21.911C55.0931 21.8686 55.0815 21.826 55.0557 21.7919C55.03 21.7579 54.992 21.7352 54.9499 21.7286C54.9077 21.722 54.8647 21.732 54.8297 21.7565C54.0479 22.3366 53.4451 22.28 53.0534 21.8301C53.9234 20.9468 53.586 20.0658 52.9483 20.0965C51.8376 20.1488 52.6112 21.8227 52.6223 21.8412C52.3421 22.0798 51.9993 22.2329 51.6347 22.2826C51.4293 22.3018 51.2221 22.274 51.0291 22.2011C50.836 22.1283 50.6621 22.0124 50.5206 21.8622C50.6676 21.7059 50.7849 21.524 50.8676 21.3262C51.1282 20.6549 50.8853 20.0186 50.256 20.0865ZM50.2981 20.4227C50.8665 20.3724 50.5323 21.4422 50.256 21.5579C50.0022 21.4061 49.8621 20.4222 50.2981 20.4227ZM52.9571 20.4333C53.2768 20.4208 53.3638 21.0645 52.8522 21.5579C52.593 21.0292 52.6581 20.4452 52.9571 20.4333ZM47.6183 20.4543C48.1694 20.4944 47.6658 21.4061 47.5237 21.4422C47.3799 21.4433 46.9405 20.5054 47.6183 20.4543Z" fill="#005BC3"/>
<path d="M45.9261 26.0556C45.8815 26.0584 45.8398 26.0788 45.8102 26.1123C45.7956 26.1289 45.7844 26.1482 45.7772 26.1692C45.77 26.1901 45.767 26.2122 45.7684 26.2343C45.7698 26.2564 45.7755 26.278 45.7852 26.2979C45.795 26.3178 45.8085 26.3356 45.8251 26.3502C45.8586 26.3798 45.9025 26.3949 45.9472 26.3921C49.664 26.25 54.5784 26.3227 55.2378 26.3816C55.2823 26.3868 55.3271 26.3743 55.3625 26.3467C55.3979 26.3192 55.4209 26.2788 55.4268 26.2343C55.4298 26.1886 55.4152 26.1434 55.3859 26.1082C55.3566 26.073 55.3148 26.0504 55.2693 26.0451C54.596 25.9851 49.6299 25.9129 45.9261 26.0556Z" fill="#F28182"/>
<path d="M45.8631 28.82C45.8185 28.8201 45.7757 28.8378 45.7442 28.8694C45.7127 28.9009 45.6949 28.9437 45.6948 28.9883C45.6973 29.0338 45.7172 29.0767 45.7505 29.108C45.7837 29.1392 45.8277 29.1565 45.8733 29.1562C48.4081 29.117 54.4221 29.3225 55.1639 29.3981C55.2097 29.401 55.2548 29.3863 55.29 29.357C55.3252 29.3276 55.3478 29.2859 55.3532 29.2404C55.3552 29.1959 55.3399 29.1524 55.3105 29.1191C55.2811 29.0857 55.2398 29.0651 55.1955 29.0616C54.448 28.9851 48.4161 28.7802 45.8631 28.82Z" fill="#F28182"/>
<path d="M45.6315 32.1289C45.5886 32.1314 45.5482 32.1502 45.5187 32.1815C45.4892 32.2128 45.4728 32.2541 45.4728 32.2972C45.4728 32.3402 45.4892 32.3815 45.5187 32.4128C45.5482 32.4441 45.5886 32.4629 45.6315 32.4654C45.6508 32.4654 54.5163 32.7107 55.1219 32.7806C55.1491 32.785 55.177 32.7825 55.203 32.7733C55.229 32.7641 55.2522 32.7485 55.2706 32.7279C55.2889 32.7074 55.3018 32.6825 55.3079 32.6556C55.3141 32.6288 55.3134 32.6008 55.3058 32.5743C55.3001 32.553 55.2901 32.5332 55.2764 32.516C55.2627 32.4988 55.2456 32.4846 55.2262 32.4742C55.207 32.4636 55.1858 32.4571 55.164 32.4549C54.5441 32.3847 45.6508 32.1306 45.6315 32.1289Z" fill="#F28182"/>
<path d="M46.221 36.3443C45.5957 36.2255 35.9183 36.4645 34.2611 36.5754C33.4855 36.6274 33.1903 36.9877 33.1786 37.7213C33.1624 38.743 33.24 39.3304 33.641 39.5814C33.9079 39.7482 34.5402 39.7636 36.605 39.7076C36.6166 39.7076 45.6929 39.5086 46.3892 39.4234C47.2296 39.3213 47.4124 38.6472 47.2512 37.6261C47.249 37.6116 47.1753 37.1748 47.1458 37.0901C47.0782 36.8908 46.9554 36.7149 46.7917 36.5829C46.6279 36.4509 46.43 36.3681 46.221 36.3443ZM46.1582 36.67C46.3091 36.6831 46.453 36.7398 46.5724 36.8331C46.6918 36.9263 46.7816 37.0522 46.8309 37.1955C46.8692 37.3546 46.8977 37.516 46.9162 37.6786C47.0455 38.5313 46.9162 39.0286 46.3477 39.0974C45.6694 39.1798 33.9946 39.4063 33.8203 39.2963C33.5731 39.1417 33.5017 38.6086 33.5157 37.7307C33.5239 37.2057 33.6316 36.9551 34.293 36.9107C35.9115 36.803 45.573 36.5589 46.1582 36.67Z" fill="#313131"/>
<path d="M22.2442 10.2247C22.3349 10.2234 22.424 10.2492 22.5001 10.2987C22.5761 10.3482 22.6357 10.4192 22.6713 10.5027C22.7069 10.5862 22.7169 10.6784 22.6999 10.7676C22.683 10.8568 22.6399 10.9389 22.5762 11.0035C22.5125 11.0681 22.4309 11.1123 22.342 11.1305C22.2531 11.1487 22.1608 11.14 22.0768 11.1055C21.9928 11.0711 21.921 11.0124 21.8704 10.9371C21.8199 10.8617 21.7929 10.773 21.7929 10.6822C21.7921 10.5617 21.8392 10.4458 21.9238 10.36C22.0084 10.2743 22.1237 10.2256 22.2442 10.2247Z" fill="#313131"/>
<path d="M24.429 9.94096C24.5197 9.93972 24.6088 9.9655 24.6849 10.015C24.7609 10.0645 24.8206 10.1356 24.8562 10.219C24.8917 10.3025 24.9017 10.3947 24.8848 10.4839C24.8678 10.5731 24.8247 10.6552 24.761 10.7198C24.6973 10.7844 24.6158 10.8286 24.5268 10.8468C24.4379 10.865 24.3456 10.8563 24.2616 10.8218C24.1776 10.7874 24.1058 10.7288 24.0552 10.6534C24.0047 10.578 23.9777 10.4893 23.9777 10.3985C23.9769 10.278 24.024 10.1621 24.1086 10.0764C24.1933 9.99056 24.3085 9.94186 24.429 9.94096Z" fill="#F28182"/>
<path d="M26.5406 9.7476C26.6313 9.74636 26.7204 9.77214 26.7964 9.82166C26.8725 9.87118 26.9321 9.9422 26.9677 10.0257C27.0033 10.1092 27.0133 10.2014 26.9963 10.2905C26.9794 10.3797 26.9363 10.4618 26.8726 10.5264C26.8088 10.5911 26.7273 10.6353 26.6384 10.6534C26.5495 10.6716 26.4572 10.6629 26.3732 10.6285C26.2892 10.594 26.2174 10.5354 26.1668 10.46C26.1163 10.3846 26.0893 10.2959 26.0892 10.2052C26.0885 10.0847 26.1356 9.96879 26.2202 9.88299C26.3048 9.7972 26.4201 9.7485 26.5406 9.7476Z" fill="white"/>
</svg>
