<svg width="50" height="50" viewBox="0 0 50 50" fill="none" xmlns="http://www.w3.org/2000/svg">
<path d="M37.0273 15.9377C37.0973 15.9627 40.3498 13.3577 41.5273 12.8077C41.5273 12.8077 39.8298 19.3302 39.8073 22.3427C38.5669 22.8712 37.3612 23.4774 36.1973 24.1577C33.5199 24.0801 30.8412 24.2567 28.1973 24.6852C28.1973 24.6852 28.2923 16.0802 28.2448 14.1702C28.2323 14.1927 31.6248 14.0002 37.0273 15.9377Z" fill="#016DAB"/>
<path d="M29.858 14.1451L30.4305 12.6151C31.603 12.8651 32.8055 12.3651 33.323 11.4201C34.2455 9.75512 34.6605 6.37762 34.6605 6.37762C32.5355 6.73762 30.7905 5.18262 30.7905 5.18262C30.313 7.02262 28.2905 8.00262 28.2905 8.00262C28.2905 8.00262 27.583 7.22012 27.143 7.88512C26.5355 8.80012 27.718 9.24512 27.718 9.24512C27.573 11.2051 28.1705 11.7076 28.1705 11.7076L27.3105 13.4276C27.3105 13.4276 26.7855 12.8126 25.2555 12.9276C23.583 13.0526 21.1205 15.8651 20.023 18.8301C18.4805 22.9626 20.5005 24.2501 20.5005 24.2501C20.5005 24.2501 10.4855 24.2976 9.67297 24.2726C8.86047 24.2476 9.02797 24.6551 9.02797 24.9426C9.01929 25.0148 9.03312 25.0879 9.06758 25.1519C9.10204 25.2159 9.15544 25.2676 9.22047 25.3001C8.27797 30.3251 11.093 33.0001 12.6505 34.0276C13.4605 34.5576 15.7655 35.4851 15.9005 36.3226C15.953 36.6326 15.7105 37.3501 14.443 37.9476C13.1755 38.5451 10.1805 40.3101 9.06547 42.6801C8.39145 44.1442 8.19384 45.7828 8.50047 47.3651C8.25047 47.4126 8.19047 47.5801 8.16547 48.1151C8.14047 48.6501 8.45297 48.6651 8.66547 48.6651C8.87797 48.6651 24.223 48.6651 25.0105 48.7126C25.798 48.7601 25.7755 48.4976 25.8005 47.9476C25.8255 47.3976 25.418 47.3976 25.418 47.3976C25.5014 46.628 25.5173 45.8525 25.4655 45.0801C25.4655 45.0801 26.303 46.4176 26.5655 46.2751C26.828 46.1326 26.6605 42.5951 26.6605 42.5951C26.0447 41.8175 25.5087 40.98 25.0605 40.0951C24.6305 40.1676 23.6255 41.0026 23.6255 41.0026C23.6255 41.0026 23.1005 40.2126 21.093 38.9726C19.5405 38.0126 17.9805 37.3001 17.9605 36.4376C17.9305 35.0051 21.6855 34.7626 23.578 31.7076C24.297 30.5869 24.7265 29.3053 24.828 27.9776C29.608 24.8726 35.128 25.6601 35.128 25.6601C34.938 24.9676 34.603 24.1076 34.603 24.1076C34.603 24.1076 29.083 24.3576 28.2205 24.7051V22.8676C28.2205 22.8676 28.3405 22.7001 28.388 22.6176C28.388 22.6176 28.978 22.5626 29.5605 21.8526C30.143 21.1426 30.1805 20.8726 30.0855 20.8251C29.9905 20.7776 29.393 21.0151 29.393 21.0151C29.393 21.0151 30.088 19.9626 29.893 19.7001C29.7505 19.5101 29.2955 19.7976 29.2955 19.7976C29.2955 19.7976 29.9155 18.9351 29.653 18.7451C29.4855 18.6251 29.0805 18.8876 29.0805 18.8876C29.0805 18.8876 29.4855 18.1376 29.2955 18.0051C29.0305 17.8376 28.243 18.6501 28.243 18.6501V14.1926C28.243 14.1926 28.328 14.0976 29.858 14.1451Z" fill="white"/>
<path d="M40.2055 19.1152C41.0655 19.4977 40.9705 18.9002 40.9705 18.9002C41.5455 18.8527 41.4005 18.2077 41.4005 18.2077C41.998 17.9577 41.5455 17.3952 41.5455 17.3952C41.5455 17.3952 41.8305 17.3952 41.7605 16.9177C41.6905 16.4402 40.803 15.8902 40.803 15.8902C40.803 15.8902 40.3255 15.7477 40.278 15.8902C40.2305 16.0327 40.613 16.5602 40.613 16.5602C40.613 16.5602 39.918 16.2477 39.7755 16.4152C39.633 16.5827 40.4205 17.3952 40.4205 17.3952C40.4205 17.3952 39.393 17.0602 39.3205 17.2752C39.248 17.4902 40.278 18.4002 40.278 18.4002C40.278 18.4002 39.3205 18.1502 39.2505 18.4702C39.2255 18.7352 40.2055 19.1152 40.2055 19.1152Z" fill="white"/>
<path d="M30.7656 46.9829C30.7656 46.9829 31.1256 48.2004 31.2431 48.2954C31.3606 48.3904 36.1206 48.4879 37.4106 48.2954C36.2884 47.2929 34.9316 46.5896 33.4656 46.2504C32.6033 46.6168 31.6949 46.8632 30.7656 46.9829Z" fill="white"/>
<path d="M12.3401 33.6951C12.6953 33.8249 13.0849 33.8249 13.4401 33.6951C14.0151 33.4826 15.6376 32.4276 16.7626 32.4751C17.8876 32.5226 20.0576 33.6326 20.5126 33.6701C21.0184 33.6474 21.5208 33.5754 22.0126 33.4551C21.1122 34.2118 20.1002 34.8248 19.0126 35.2726C17.2626 35.9151 17.7451 39.0476 18.5126 41.3901C19.5126 44.4726 25.1551 44.7101 25.3226 47.4126H8.51759C8.51759 47.4126 8.26759 46.8401 9.47259 45.8576C12.0301 43.7576 14.9501 43.8276 15.7826 40.5301C16.0951 39.2801 16.2551 37.1851 15.8301 36.1326C15.4051 35.0801 13.5601 34.8901 12.3401 33.6951Z" fill="#87E4FF"/>
<path d="M31.9129 9.89279C31.8654 9.89279 31.8404 9.86779 31.8179 9.82029C31.8069 9.79486 31.8056 9.76625 31.8144 9.73995C31.8231 9.71365 31.8413 9.69152 31.8654 9.67779C32.0123 9.60925 32.1487 9.52002 32.2704 9.41279C31.9854 9.19779 31.8929 8.81779 31.9854 8.31529C32.0394 8.04967 32.1285 7.79242 32.2504 7.55029C32.263 7.52509 32.2851 7.50594 32.3118 7.49703C32.3385 7.48812 32.3677 7.49019 32.3929 7.50279C32.4181 7.51539 32.4372 7.53748 32.4461 7.5642C32.4551 7.59093 32.453 7.62009 32.4404 7.64529C32.4404 7.67029 31.7729 8.93529 32.4904 9.31779C32.5129 9.34279 32.5379 9.36529 32.5379 9.39029C32.5413 9.42394 32.5324 9.45768 32.5129 9.48529C32.333 9.64857 32.131 9.78574 31.9129 9.89279Z" fill="#414141"/>
<path d="M30.7176 10.1777C30.7071 10.1522 30.7062 10.1238 30.7149 10.0976C30.7236 10.0715 30.7414 10.0493 30.7651 10.0352C30.791 10.0246 30.8198 10.0235 30.8464 10.0322C30.873 10.0409 30.8956 10.0588 30.9101 10.0827C30.9326 10.1077 31.3701 10.9102 32.3426 10.4402C32.3688 10.4298 32.3978 10.4291 32.4244 10.4383C32.451 10.4474 32.4734 10.4659 32.4876 10.4902C32.4979 10.516 32.4985 10.5446 32.4893 10.5708C32.4801 10.597 32.4617 10.619 32.4376 10.6327C32.2001 10.7502 31.2676 11.1102 30.7176 10.1777Z" fill="#414141"/>
<path d="M34.0402 7.52513C33.926 7.43633 33.7885 7.38247 33.6443 7.37005C33.5002 7.35763 33.3555 7.38718 33.2277 7.45513C33.2025 7.4659 33.174 7.46658 33.1483 7.45703C33.1225 7.44749 33.1014 7.42844 33.0892 7.40381C33.0771 7.37917 33.0748 7.35081 33.0829 7.32456C33.091 7.29831 33.1088 7.27615 33.1327 7.26263C33.2968 7.17034 33.485 7.13001 33.6725 7.14697C33.86 7.16393 34.0379 7.23739 34.1827 7.35763C34.2028 7.37535 34.2162 7.39937 34.2208 7.42574C34.2253 7.4521 34.2207 7.47923 34.2077 7.50263C34.1853 7.52278 34.1573 7.53571 34.1275 7.53972C34.0976 7.54373 34.0672 7.53865 34.0402 7.52513Z" fill="#414141"/>
<path d="M31.6975 7.12026C31.5665 6.95741 31.3878 6.83969 31.1865 6.78363C30.9852 6.72758 30.7713 6.73602 30.575 6.80776C30.5492 6.8184 30.5203 6.81946 30.4938 6.81075C30.4672 6.80204 30.4446 6.78414 30.43 6.76026C30.4198 6.73447 30.4192 6.70584 30.4284 6.67965C30.4376 6.65346 30.4559 6.63148 30.48 6.61776C30.7185 6.51958 30.9824 6.50134 31.2321 6.5658C31.4818 6.63026 31.7039 6.77392 31.865 6.97526C31.89 7.02276 31.89 7.09526 31.84 7.12026C31.7925 7.19026 31.7225 7.14276 31.6975 7.12026Z" fill="#414141"/>
<path d="M11.1237 30.5877C9.92869 28.8202 10.2137 26.3802 10.2387 26.2852C10.242 26.2567 10.2565 26.2306 10.279 26.2128C10.3015 26.195 10.3302 26.1869 10.3587 26.1902C10.3872 26.1935 10.4132 26.208 10.431 26.2305C10.4489 26.253 10.457 26.2817 10.4537 26.3102C10.4537 26.3327 10.1662 28.7702 11.3137 30.4677C11.3387 30.5152 11.3387 30.5877 11.2887 30.6102C11.2387 30.6327 11.1637 30.6302 11.1237 30.5877Z" fill="#414141"/>
<path d="M10.3805 43.1828C10.3567 43.1682 10.3388 43.1456 10.3301 43.119C10.3214 43.0924 10.3224 43.0636 10.333 43.0378C11.0662 41.7408 12.1736 40.6952 13.5105 40.0378C13.5364 40.0271 13.5652 40.0261 13.5918 40.0348C13.6184 40.0435 13.641 40.0614 13.6555 40.0853C13.666 40.1108 13.667 40.1392 13.6583 40.1653C13.6496 40.1915 13.6317 40.2136 13.608 40.2278C11.398 41.3578 10.5255 43.0953 10.5255 43.1203C10.4855 43.1853 10.458 43.1828 10.3805 43.1828Z" fill="#414141"/>
<path d="M30.6705 8.50257C30.7386 8.51717 30.8107 8.49923 30.8711 8.45268C30.9314 8.40614 30.975 8.33481 30.9923 8.25438C31.0095 8.17395 30.999 8.09102 30.963 8.02382C30.927 7.95663 30.8686 7.91068 30.8005 7.89607C30.7668 7.88884 30.7317 7.88952 30.6973 7.89808C30.6629 7.90663 30.6298 7.92289 30.5999 7.94592C30.5701 7.96896 30.544 7.99832 30.5232 8.03233C30.5024 8.06634 30.4873 8.10433 30.4788 8.14414C30.4703 8.18394 30.4685 8.22478 30.4735 8.26433C30.4785 8.30387 30.4902 8.34134 30.508 8.37461C30.5258 8.40787 30.5493 8.43626 30.5772 8.45818C30.6051 8.48009 30.6368 8.49509 30.6705 8.50232" fill="#414141"/>
<path d="M33.1744 8.98365C33.2081 8.99088 33.2432 8.9902 33.2776 8.98164C33.312 8.97309 33.3451 8.95683 33.3749 8.9338C33.4048 8.91076 33.4309 8.8814 33.4516 8.84739C33.4724 8.81338 33.4875 8.77539 33.4961 8.73559C33.5046 8.69578 33.5064 8.65494 33.5014 8.61539C33.4964 8.57585 33.4846 8.53838 33.4668 8.50512C33.449 8.47186 33.4255 8.44346 33.3977 8.42154C33.3698 8.39963 33.3381 8.38463 33.3044 8.3774C33.2707 8.37017 33.2356 8.37085 33.2012 8.3794C33.1668 8.38795 33.1337 8.40421 33.1039 8.42725C33.074 8.45028 33.0479 8.47964 33.0271 8.51365C33.0063 8.54766 32.9912 8.58565 32.9827 8.62546C32.9742 8.66527 32.9724 8.70611 32.9774 8.74565C32.9824 8.7852 32.9941 8.82267 33.0119 8.85593C33.0297 8.88919 33.0532 8.91759 33.0811 8.9395C33.109 8.96142 33.1407 8.97642 33.1744 8.98365Z" fill="#414141"/>
<path d="M32.918 9.91507C32.918 9.94331 32.926 9.97127 32.9416 9.99735C32.9571 10.0234 32.98 10.0471 33.0088 10.0671C33.0376 10.0871 33.0717 10.1029 33.1093 10.1137C33.1469 10.1245 33.1873 10.1301 33.228 10.1301C33.2687 10.1301 33.309 10.1245 33.3466 10.1137C33.3842 10.1029 33.4184 10.0871 33.4472 10.0671C33.476 10.0471 33.4988 10.0234 33.5144 9.99735C33.53 9.97127 33.538 9.94331 33.538 9.91507C33.538 9.88684 33.53 9.85888 33.5144 9.8328C33.4988 9.80671 33.476 9.78301 33.4472 9.76305C33.4184 9.74308 33.3842 9.72724 33.3466 9.71644C33.309 9.70563 33.2687 9.70007 33.228 9.70007C33.1873 9.70007 33.1469 9.70563 33.1093 9.71644C33.0717 9.72724 33.0376 9.74308 33.0088 9.76305C32.98 9.78301 32.9571 9.80671 32.9416 9.8328C32.926 9.85888 32.918 9.88684 32.918 9.91507Z" fill="#FDAF31"/>
<path d="M30.0523 9.6986C30.1007 9.71392 30.1507 9.72251 30.1995 9.72387C30.2482 9.72524 30.2948 9.71935 30.3365 9.70656C30.3782 9.69376 30.4141 9.67432 30.4422 9.64935C30.4703 9.62438 30.49 9.59438 30.5002 9.56111C30.5104 9.52784 30.5108 9.49195 30.5015 9.45553C30.4921 9.41911 30.4732 9.38289 30.4458 9.34897C30.4184 9.31505 30.3831 9.28412 30.3419 9.25796C30.3007 9.2318 30.2545 9.21094 30.2058 9.1966C30.1575 9.18129 30.1075 9.1727 30.0587 9.17134C30.0099 9.16997 29.9633 9.17586 29.9217 9.18865C29.88 9.20144 29.8441 9.22089 29.816 9.24586C29.7879 9.27083 29.7681 9.30082 29.758 9.3341C29.7478 9.36737 29.7474 9.40326 29.7567 9.43968C29.766 9.4761 29.7849 9.51232 29.8123 9.54624C29.8397 9.58016 29.875 9.61109 29.9162 9.63725C29.9574 9.66341 30.0037 9.68426 30.0523 9.6986Z" fill="#FDAF31"/>
<path d="M41.5678 16.4152C41.3885 16.1903 41.1591 16.0105 40.8978 15.8902C41.0653 15.0777 41.5203 13.0702 41.6878 12.7827C41.7103 12.7352 41.7103 12.6877 41.6628 12.6627C41.6153 12.6377 41.5678 12.6152 41.5428 12.6627C41.4003 12.7602 38.9878 14.3377 37.6953 15.2677C38.4128 14.4552 39.6953 13.2127 41.0903 12.6877C41.1148 12.6734 41.1347 12.6524 41.1476 12.6271C41.1604 12.6018 41.1657 12.5734 41.1628 12.5452C41.1484 12.5202 41.127 12.5001 41.1012 12.4872C41.0754 12.4743 41.0464 12.4693 41.0178 12.4727C39.8953 12.9027 38.8378 13.7802 38.1503 14.4552C37.9003 14.7052 37.6953 14.9102 37.5303 15.1002C38.2152 13.9258 39.2064 12.9597 40.3978 12.3052C40.412 12.2999 40.425 12.2916 40.4357 12.2809C40.4465 12.2703 40.4549 12.2574 40.4604 12.2433C40.4659 12.2291 40.4683 12.214 40.4675 12.1989C40.4667 12.1837 40.4627 12.1689 40.4558 12.1554C40.4489 12.1419 40.4392 12.13 40.4273 12.1206C40.4155 12.1111 40.4018 12.1042 40.3871 12.1004C40.3724 12.0966 40.3571 12.096 40.3421 12.0985C40.3272 12.1011 40.3129 12.1067 40.3003 12.1152C38.8322 12.9148 37.6661 14.173 36.9803 15.6977C34.6603 13.2852 30.9803 13.2602 30.9328 13.2602C30.908 13.2625 30.8848 13.2736 30.8674 13.2914C30.85 13.3093 30.8395 13.3328 30.8378 13.3577C30.8396 13.3823 30.8501 13.4055 30.8676 13.4229C30.885 13.4404 30.9082 13.4509 30.9328 13.4527C30.9578 13.4527 33.9328 13.4752 36.1678 15.2452C34.3047 14.2692 32.2471 13.7217 30.1453 13.6427C30.2878 13.2852 30.4553 12.8552 30.5278 12.6627C31.0549 12.7998 31.6122 12.7623 32.1161 12.5559C32.6201 12.3494 33.0435 11.9852 33.3228 11.5177C33.8228 10.7327 34.4228 9.01767 34.7578 6.37767C34.9263 6.32866 35.087 6.25629 35.2353 6.16267C37.1178 5.04767 35.4478 2.94267 34.2553 2.41267C33.5053 2.08017 31.8178 1.43267 30.3828 2.31517C29.6328 0.690169 27.8253 1.40767 27.8028 1.40767C27.7904 1.41391 27.7792 1.42254 27.7701 1.43308C27.761 1.44362 27.754 1.45585 27.7496 1.46908C27.7452 1.48231 27.7434 1.49629 27.7444 1.5102C27.7454 1.52411 27.7491 1.53769 27.7553 1.55017C27.7616 1.56264 27.7702 1.57377 27.7807 1.58291C27.7913 1.59205 27.8035 1.59902 27.8167 1.60343C27.83 1.60784 27.8439 1.6096 27.8579 1.60862C27.8718 1.60763 27.8854 1.60391 27.8978 1.59767C27.8978 1.59767 29.3078 0.977669 30.0978 2.19517C29.7016 2.02203 29.2719 1.93874 28.8397 1.95127C28.4075 1.9638 27.9834 2.07186 27.5978 2.26767C24.2353 4.09517 22.5978 8.58767 21.6953 12.0177C21.6897 12.0401 21.6892 12.0635 21.6938 12.0861C21.6984 12.1087 21.708 12.1301 21.7219 12.1485C21.7358 12.167 21.7536 12.1821 21.7741 12.1928C21.7946 12.2034 21.8172 12.2094 21.8403 12.2102L27.5003 12.6627L27.2353 13.1902C26.8303 12.9402 25.3328 12.2202 23.5328 13.6202C22.6053 14.3427 21.1478 16.0352 20.1853 18.0877C18.7853 21.0877 19.2803 22.8177 19.9353 23.7777C20.0279 23.9142 20.1334 24.0414 20.2503 24.1577H9.37783C8.92283 24.1577 8.89783 24.4702 8.89783 24.7802C8.89783 24.7802 8.87533 25.0902 9.01783 25.2102C9.04283 25.2352 9.09033 25.2577 9.11533 25.2827C8.66033 28.1027 9.21283 30.4652 10.7628 32.3327C12.0328 33.8602 13.6303 34.6502 14.4678 35.0827C15.2553 35.4902 15.7803 36.0152 15.8053 36.3727C15.8278 36.6852 15.6378 37.0177 15.2078 37.3527C14.5528 37.9252 11.2628 39.2377 9.52033 41.7502C7.77783 44.2627 8.35033 47.2702 8.37283 47.2952C8.39533 47.3202 8.27783 47.3677 8.25283 47.3902C8.19124 47.4524 8.14426 47.5275 8.11529 47.6101C8.08632 47.6926 8.07609 47.7806 8.08533 47.8677C8.08533 48.5627 8.15783 48.7277 8.85033 48.7277L25.3178 48.7527C25.4893 48.7673 25.6599 48.7164 25.7953 48.6102C25.9628 48.4427 25.9378 48.2727 25.9378 48.0352C25.9928 47.5552 25.8453 47.4227 25.5528 47.3027C25.6593 46.6609 25.6845 46.0083 25.6278 45.3602C25.7703 45.5502 26.3778 46.3877 26.5828 46.3602C26.6803 46.3602 26.7978 46.2877 26.7978 44.7102C26.7978 44.7102 27.1103 44.8302 27.1328 44.8302C27.1553 44.8302 27.2053 44.8077 27.2303 44.7602C27.2407 44.734 27.2414 44.705 27.2323 44.6784C27.2231 44.6518 27.2047 44.6293 27.1803 44.6152L26.7978 44.4727V43.9727C27.2303 44.1602 27.1653 44.1402 27.2303 44.1402C27.2953 44.1402 27.3003 44.1152 27.3253 44.0677C27.3358 44.0422 27.3368 44.0138 27.3281 43.9876C27.3193 43.9614 27.3015 43.9393 27.2778 43.9252L26.7978 43.7352C26.7978 43.3527 26.7753 42.9702 26.7503 42.6827C26.9653 42.6352 27.8028 42.3952 28.9253 41.9902C28.5689 40.6055 28.1383 39.2411 27.6353 37.9027C26.8657 38.6035 26.0424 39.243 25.1728 39.8152C25.1253 39.8377 24.1728 40.4352 23.6728 40.8152C21.9228 38.9177 19.3228 37.8527 18.7028 37.3277C18.3003 36.9852 18.0828 36.6827 18.1053 36.3477C18.1278 36.0127 18.4403 35.6302 19.0128 35.2952C19.3053 35.0752 21.5528 34.3527 23.1953 32.3802C23.9798 31.4426 24.5215 30.3265 24.7728 29.1302L27.8028 37.7502C28.4473 39.5282 28.9973 41.339 29.4503 43.1752C30.0728 45.3002 30.6228 46.9027 30.6703 47.0452C30.7903 47.5002 30.9778 48.2702 31.1953 48.3602C31.5028 48.4877 37.2903 48.3852 37.4578 48.2877C37.4828 48.2739 37.503 48.253 37.5159 48.2275C37.5289 48.2021 37.5339 48.1735 37.5303 48.1452C37.5053 47.9777 36.9553 47.6202 35.9053 47.0927C35.851 47.0658 35.7951 47.0424 35.7378 47.0227L35.9278 46.7352C35.9528 46.6877 35.9528 46.6152 35.9053 46.5927C35.8578 46.5702 35.7853 46.5677 35.7603 46.6152L35.5453 46.9277C35.4253 46.8777 35.2953 46.8077 35.1878 46.7602L35.4028 46.4477C35.4253 46.4002 35.4253 46.3277 35.3778 46.3052C35.3303 46.2827 35.2578 46.2802 35.2353 46.3277L34.9853 46.6627C34.5257 46.4538 34.055 46.2702 33.5753 46.1127L32.7878 40.0677C32.0953 35.5502 30.8753 29.9577 30.8753 29.8877C30.875 29.8629 30.8816 29.8385 30.8944 29.8173C30.9072 29.7961 30.9257 29.7789 30.9478 29.7677C31.1153 29.7202 32.0953 29.1452 32.4778 28.9552C32.5033 28.9441 32.5319 28.9429 32.5582 28.9517C32.5845 28.9604 32.6066 28.9786 32.6203 29.0027C32.6308 29.0282 32.6318 29.0566 32.6231 29.0828C32.6143 29.1089 32.5965 29.1311 32.5728 29.1452C32.4528 29.2177 31.4478 29.7902 31.0903 29.9352C31.2328 30.6527 32.3403 35.7427 32.9778 39.9477C33.9843 39.3068 34.8668 38.4896 35.5828 37.5352C37.8203 34.3902 35.7978 27.4252 35.2978 25.8252C35.1707 25.2437 34.9699 24.6808 34.7003 24.1502C35.9253 24.1502 36.0678 24.2402 36.1328 24.1752C37.2946 23.4947 38.5035 22.8982 39.7503 22.3902C39.7978 22.3677 39.8203 22.3427 39.8203 22.2952C39.8203 22.2477 40.0353 19.8102 40.2028 19.1402C40.2303 19.1402 40.7153 19.3152 40.9528 19.1652C40.9884 19.1274 41.0135 19.081 41.0257 19.0307C41.038 18.9803 41.037 18.9276 41.0228 18.8777C41.3778 18.7877 41.4703 18.5227 41.4303 18.1602C41.5674 18.0852 41.6762 17.9676 41.7403 17.8252C41.7644 17.7438 41.7684 17.6579 41.7518 17.5747C41.7353 17.4915 41.6987 17.4136 41.6453 17.3477C41.7653 17.4202 41.8603 17.3727 41.8828 17.2752C41.9753 17.0602 41.8803 16.7977 41.5678 16.4152ZM33.5378 46.3852C33.9203 46.5027 34.3978 46.6952 34.9003 46.9102L34.7578 47.1002C34.7328 47.1502 34.7328 47.2202 34.7803 47.2452C34.8063 47.2628 34.8379 47.27 34.869 47.2654C34.9 47.2607 34.9281 47.2446 34.9478 47.2202L35.1153 47.0052C35.2353 47.0527 35.3653 47.1252 35.4728 47.1727L35.3303 47.3877C35.3078 47.4352 35.3078 47.5077 35.3553 47.5302C35.4028 47.5527 35.4803 47.5502 35.5228 47.5077L35.6878 47.2577C36.2265 47.4947 36.7399 47.7853 37.2203 48.1252C36.3853 48.2202 31.6503 48.3327 31.3628 48.2377C31.2678 48.1677 31.0778 47.6652 30.9578 47.1152C31.8735 47.1515 32.777 46.8958 33.5378 46.3852ZM35.3778 15.0777C35.3078 15.1002 35.2578 15.1252 35.1878 15.1502C33.5013 14.6098 31.7625 14.2487 30.0003 14.0727C30.0271 13.9985 30.0597 13.9266 30.0978 13.8577C31.9175 13.939 33.7069 14.3525 35.3778 15.0777ZM28.2328 11.7502C28.2451 11.7326 28.2517 11.7116 28.2517 11.6902C28.2517 11.6687 28.2451 11.6478 28.2328 11.6302C27.896 10.8568 27.7725 10.0074 27.8753 9.17017C27.8753 9.17017 26.6253 8.71767 27.1253 7.97517C27.5603 7.35517 28.2503 8.11767 28.2503 8.11767C28.2503 8.11767 30.1603 7.33017 30.8528 5.36767C30.8528 5.36767 32.8128 6.86767 34.5578 6.46767C34.4153 7.59017 34.0153 10.0552 33.1728 11.4377C32.6028 12.3727 31.3178 12.9252 29.9453 12.2727C29.9201 12.2619 29.8916 12.2612 29.8659 12.2708C29.8401 12.2803 29.819 12.2994 29.8068 12.324C29.7947 12.3486 29.7924 12.377 29.8005 12.4032C29.8086 12.4295 29.8264 12.4517 29.8503 12.4652C30.0178 12.5377 30.1853 12.5852 30.3278 12.6327C30.2328 12.8477 30.0778 13.3027 29.9228 13.6327C29.6597 13.6188 29.396 13.6188 29.1328 13.6327C29.1043 13.636 29.0783 13.6505 29.0605 13.673C29.0427 13.6955 29.0345 13.7242 29.0378 13.7527C29.0411 13.7812 29.0557 13.8072 29.0782 13.825C29.1007 13.8428 29.1293 13.851 29.1578 13.8477C29.3884 13.8333 29.6197 13.8333 29.8503 13.8477C29.8224 13.918 29.7982 13.9898 29.7778 14.0627C29.2528 14.0402 28.7278 14.0627 28.2503 14.0627C28.2252 14.0649 28.2017 14.0759 28.1839 14.0937C28.1661 14.1116 28.1551 14.1351 28.1528 14.1602V14.2552C27.5803 14.1352 27.4378 13.5052 27.4028 13.3702L28.2328 11.7502ZM29.2328 20.9752C28.8637 21.2985 28.5286 21.6587 28.2328 22.0502C28.1378 22.0502 27.9703 22.0502 27.8978 21.9552C27.857 21.8969 27.8313 21.8293 27.823 21.7587C27.8147 21.688 27.8241 21.6163 27.8503 21.5502C28.2583 20.9092 28.7645 20.3364 29.3503 19.8527C29.7103 19.6602 29.7803 19.7327 29.7803 19.7327C29.7803 19.7327 29.9303 19.9277 29.2353 20.9802L29.2328 20.9752ZM29.3778 21.1427C29.6278 21.0002 29.9503 20.8927 30.0228 20.9277C30.0228 20.9527 30.0228 21.0702 29.7728 21.4277C29.2403 22.1627 28.5778 22.5502 28.4103 22.4777C28.3853 22.4552 28.3628 22.3827 28.4103 22.1927C28.6935 21.8091 29.0189 21.4585 29.3803 21.1477L29.3778 21.1427ZM29.2103 19.6852C28.6123 20.165 28.1043 20.7474 27.7103 21.4052C27.595 21.3779 27.4931 21.3106 27.4228 21.2152C27.3901 21.138 27.3773 21.0538 27.3856 20.9704C27.3939 20.8869 27.423 20.8069 27.4703 20.7377C27.9395 20.0772 28.4944 19.482 29.1203 18.9677C29.2448 18.8756 29.3955 18.8257 29.5503 18.8252C29.5703 18.8527 29.6678 18.9727 29.2128 19.6902L29.2103 19.6852ZM28.9603 18.8477C28.3789 19.35 27.8503 19.9104 27.3828 20.5202C27.3446 20.4958 27.3122 20.4634 27.2878 20.4252C27.2153 20.3052 27.2678 20.0927 27.4053 19.8277C27.8278 19.0227 29.0303 18.0127 29.2453 18.0602C29.3078 18.1602 29.1403 18.5677 28.9503 18.8527L28.9603 18.8477ZM20.3703 18.2077C21.2828 16.2977 22.7103 14.5502 23.6678 13.8102C25.5053 12.3952 26.9653 13.2602 27.2053 13.4277C27.2528 13.6202 27.4203 14.3602 28.1603 14.4802V18.5677C27.7832 18.9041 27.4684 19.3044 27.2303 19.7502C27.1395 19.912 27.0825 20.0906 27.0628 20.2752C25.9153 20.4902 24.5278 20.6827 23.5953 20.7752C23.9553 19.3902 25.4378 17.3827 25.4378 17.3577C25.4378 17.3327 25.4603 17.2377 25.4128 17.2152C25.3653 17.1927 25.2928 17.1902 25.2703 17.2377C25.1978 17.3352 23.6928 19.3652 23.3578 20.8002C22.8578 20.8477 22.5203 20.8952 22.5203 20.8952C22.492 20.8989 22.4663 20.9135 22.4485 20.9359C22.4308 20.9583 22.4225 20.9867 22.4253 21.0152C22.4271 21.0398 22.4376 21.063 22.4551 21.0804C22.4725 21.0979 22.4957 21.1084 22.5203 21.1102C22.5453 21.1102 25.1028 20.8477 27.0378 20.4877C27.0486 20.5371 27.072 20.5829 27.1057 20.6206C27.1395 20.6582 27.1824 20.6865 27.2303 20.7027C26.9803 21.4677 27.4803 21.5652 27.6103 21.5877C27.4678 22.2102 28.0178 22.2327 28.1378 22.2577C28.1095 22.3713 28.1265 22.4914 28.1853 22.5927C26.9903 23.6427 24.2178 25.0552 22.1153 24.7902C19.1028 24.4002 19.0003 21.1027 20.3703 18.2077ZM25.7503 48.2727C25.753 48.3115 25.748 48.3505 25.7356 48.3874C25.7231 48.4243 25.7035 48.4584 25.6778 48.4877C25.5175 48.5749 25.3308 48.6007 25.1528 48.5602H8.85033C8.32533 48.5602 8.30283 48.5352 8.30283 47.9127C8.30283 47.5927 8.41283 47.4827 8.75533 47.4827H24.9578C25.2091 47.4544 25.4625 47.5135 25.6753 47.6502C25.7653 47.7702 25.7503 47.9327 25.7503 48.2727ZM25.0578 40.2177C25.4746 41.0443 25.9702 41.8288 26.5378 42.5602C26.5628 42.8952 26.5628 43.3102 26.5853 43.7327L26.2028 43.5652C26.1774 43.5541 26.1488 43.5529 26.1225 43.5617C26.0962 43.5704 26.0741 43.5886 26.0603 43.6127C26.0499 43.6382 26.0489 43.6666 26.0576 43.6927C26.0663 43.7189 26.0841 43.7411 26.1078 43.7552L26.5853 43.9477V44.4477L26.1328 44.2577C26.107 44.247 26.0782 44.246 26.0516 44.2547C26.025 44.2634 26.0024 44.2813 25.9878 44.3052C25.977 44.3309 25.9761 44.3597 25.9854 44.3861C25.9946 44.4124 26.0133 44.4344 26.0378 44.4477L26.5628 44.6627C26.5756 45.1638 26.5514 45.6651 26.4903 46.1627C26.1387 45.8061 25.8261 45.4131 25.5578 44.9902C25.4031 43.5165 24.7741 42.133 23.7653 41.0477C24.1805 40.7487 24.6111 40.4716 25.0553 40.2177H25.0578ZM19.3903 34.9377C18.2203 35.4877 17.9328 35.9877 17.9078 36.4177C17.8853 36.8002 18.0978 37.1877 18.5778 37.5652C19.4953 38.2877 22.5453 39.5177 24.2178 41.9402C25.2495 43.5384 25.6497 45.4632 25.3403 47.3402C25.1553 47.3027 26.1303 47.3152 8.54033 47.3152C8.54033 47.2927 7.96033 44.3952 9.66283 41.9402C11.3653 39.4852 14.5178 38.2252 15.3028 37.5652C15.7728 37.1727 15.9953 36.8002 15.9728 36.4177C15.9478 35.9877 15.4953 35.4377 14.5153 34.9602C13.6778 34.5552 12.1103 33.7577 10.8828 32.2602C9.38283 30.4352 8.84867 28.1493 9.28033 25.4027C9.30533 25.4027 23.8128 25.5452 24.5753 25.5452C25.6278 31.9252 21.1128 34.1277 19.3903 34.9377ZM9.37783 25.1877C9.29961 25.1913 9.22289 25.1654 9.16283 25.1152C9.06283 25.0152 9.12533 24.5627 9.13783 24.5177C9.17033 24.4227 9.23533 24.3977 9.38783 24.3977H20.5003C21.8628 25.4502 24.1078 24.9227 25.1828 24.5402C25.1153 24.9552 25.2328 25.3302 24.8253 25.3302L9.37783 25.1877ZM35.0428 25.5202C31.5226 25.1401 27.9757 25.9385 24.9578 27.7902C24.9992 27.0315 24.9598 26.2705 24.8403 25.5202C24.9033 25.5253 24.9667 25.5175 25.0265 25.4972C25.0864 25.4769 25.1414 25.4445 25.1883 25.4021C25.2351 25.3597 25.2728 25.3082 25.2989 25.2506C25.3251 25.1931 25.3392 25.1309 25.3403 25.0677C25.3603 24.8502 25.3878 24.5677 25.3878 24.4452C26.3565 24.0872 27.2671 23.5885 28.0903 22.9652V24.6852C28.0903 24.7552 28.1603 24.7802 28.2328 24.7802C30.3154 24.4749 32.4139 24.2913 34.5178 24.2302C34.7373 24.6407 34.9132 25.0731 35.0428 25.5202ZM35.8553 24.0402C32.6053 23.8727 28.4478 24.5402 28.3053 24.5652V22.7977C28.3528 22.7727 28.3753 22.7252 28.4228 22.7002C28.8553 22.7977 29.5078 22.1577 29.9228 21.5777C30.2153 21.1752 30.6378 20.3827 29.5878 20.8277C30.0878 19.9677 30.2803 19.2727 29.5403 19.5602C29.8503 19.1052 30.0178 18.3427 29.2903 18.6752C29.4803 18.3902 29.8153 17.1477 28.3328 18.3902V14.2877C30.2453 14.0727 33.5203 14.8852 34.9053 15.3177C34.1403 15.6977 33.5778 17.1577 33.4053 18.7577C33.2903 19.7827 32.8353 22.4927 31.9703 22.9402C31.9466 22.9543 31.9288 22.9764 31.9201 23.0026C31.9114 23.0288 31.9124 23.0572 31.9228 23.0827C31.9478 23.1077 31.9703 23.1552 32.0178 23.1302C32.5678 22.9402 32.8628 22.2252 33.1903 21.1002C33.4031 20.3411 33.5544 19.5661 33.6428 18.7827C33.8078 17.2302 34.4078 15.7227 35.1978 15.3877C35.8178 15.5802 36.3203 15.7477 36.6303 15.8652L35.8553 24.0402ZM39.6553 22.2902C38.6711 22.6906 37.7134 23.1532 36.7878 23.6752L37.5378 15.6227C38.3728 15.0002 40.2128 13.7577 41.4078 12.9702C41.1703 13.7202 40.8353 15.3602 40.7378 15.7902C40.5728 15.7427 40.2603 15.6452 40.1653 15.8127C40.1428 15.8602 40.0928 15.9327 40.4153 16.3627C40.1278 16.2427 39.7928 16.1727 39.6978 16.3627C39.6253 16.5077 39.7928 16.7927 40.2478 17.2477C39.8178 17.1027 39.3678 16.9977 39.2678 17.2227C39.1978 17.3677 39.3153 17.6527 40.0803 18.2502C39.6978 18.1802 39.3153 18.1802 39.2428 18.3952C39.229 18.4521 39.238 18.5122 39.2678 18.5627C39.3878 18.7777 39.7928 18.9927 40.1028 19.1352C39.8953 19.7627 39.7028 21.8877 39.6553 22.2952V22.2902ZM40.4203 19.0627C40.0853 18.9677 39.3928 18.5852 39.3928 18.4652C39.4178 18.3952 39.5603 18.2752 40.4453 18.5852C40.6353 18.7052 40.8753 18.8727 40.8753 18.9452C40.9228 19.2352 40.4203 19.0677 40.4203 19.0677V19.0627ZM40.9953 18.7777C40.8468 18.6289 40.6863 18.4926 40.5153 18.3702C39.8853 17.9302 39.3703 17.4377 39.3703 17.3202C39.3928 17.2477 39.9178 17.3427 40.5653 17.6302C40.7977 17.818 41.0205 18.0174 41.2328 18.2277C41.4728 18.6852 41.0653 18.7827 41.0003 18.7827L40.9953 18.7777ZM41.4003 18.0602C41.3053 17.9652 40.7303 17.4627 40.7303 17.4627C40.3003 17.0802 39.8478 16.5777 39.8228 16.4627C39.8703 16.4402 40.1578 16.4627 40.6603 16.7277C40.9399 16.9591 41.203 17.2097 41.4478 17.4777C41.8078 17.8727 41.4728 18.0402 41.4003 18.0652V18.0602ZM41.5678 17.2702C41.3301 17.0032 41.0745 16.7526 40.8028 16.5202C40.6334 16.332 40.4889 16.1227 40.3728 15.8977C40.5803 15.919 40.7811 15.9834 40.9624 16.0867C41.1436 16.19 41.3013 16.33 41.4253 16.4977C41.8903 17.1252 41.6153 17.2752 41.5678 17.2752V17.2702Z" fill="#414141"/>
</svg>
