<svg width="20" height="21" viewBox="0 0 20 21" fill="none" xmlns="http://www.w3.org/2000/svg">
<rect y="0.5" width="20" height="20" rx="10" fill="#005BC3"/>
<g clip-path="url(#clip0_626_21921)">
<path fill-rule="evenodd" clip-rule="evenodd" d="M5.89237 10.4985C5.89237 8.22992 7.73139 6.3909 9.99993 6.3909C11.2861 6.3909 12.4347 6.9821 13.1882 7.90831L12.6653 8.43117C12.5377 8.55884 12.4995 8.75087 12.5685 8.91768C12.6377 9.0845 12.8005 9.19327 12.981 9.19327H14.1915C14.2005 9.19354 14.2096 9.19355 14.2186 9.19327H14.554C14.8005 9.19327 15.0004 8.9934 15.0004 8.74684V7.17389C15.0004 6.99334 14.8916 6.83055 14.7248 6.76145C14.558 6.69235 14.366 6.73054 14.2383 6.85822L13.8222 7.27434C12.9052 6.18829 11.5334 5.49805 9.99993 5.49805C7.23828 5.49805 4.99951 7.73682 4.99951 10.4985C4.99951 10.745 5.19939 10.9449 5.44594 10.9449C5.6925 10.9449 5.89237 10.745 5.89237 10.4985ZM15.0001 10.4984C15.0001 10.2518 14.8002 10.052 14.5537 10.052C14.3071 10.052 14.1072 10.2518 14.1072 10.4984C14.1072 12.767 12.2682 14.606 9.99968 14.606C8.71358 14.606 7.56494 14.0148 6.81152 13.0887L7.33458 12.5656C7.46226 12.4379 7.50045 12.2459 7.43135 12.0791C7.36226 11.9123 7.19947 11.8035 7.01891 11.8035H5.80536C5.79816 11.8033 5.79093 11.8033 5.78371 11.8035H5.44594C5.19938 11.8035 4.99951 12.0034 4.99951 12.2499V13.8229C4.99951 14.0035 5.10828 14.1662 5.2751 14.2353C5.44192 14.3045 5.63393 14.2662 5.76161 14.1386L6.17755 13.7226C7.09455 14.8086 8.46623 15.4988 9.99968 15.4988C12.7613 15.4988 15.0001 13.26 15.0001 10.4984ZM8.03563 12.4986C8.36597 11.7425 9.12076 11.213 10 11.213C10.8793 11.213 11.6341 11.7425 11.9644 12.4986C12.0127 12.609 12.002 12.7363 11.936 12.8372C11.87 12.938 11.7576 12.9987 11.6371 12.9987H8.3629C8.2424 12.9987 8.13003 12.938 8.06405 12.8372C7.99807 12.7363 7.98738 12.609 8.03563 12.4986ZM10 8.17732C9.30968 8.17732 8.75003 8.73696 8.75003 9.42732C8.75003 10.1177 9.30968 10.6773 10 10.6773C10.6904 10.6773 11.25 10.1177 11.25 9.42732C11.25 8.73696 10.6904 8.17732 10 8.17732Z" fill="white"/>
</g>
<defs>
<clipPath id="clip0_626_21921">
<rect width="10" height="10" fill="white" transform="translate(5 5.5)"/>
</clipPath>
</defs>
</svg>
