<svg width="70" height="70" viewBox="0 0 70 70" fill="none" xmlns="http://www.w3.org/2000/svg">
<rect width="70" height="70" rx="10" fill="#E7F8FF"/>
<path d="M49.4341 24.1271C49.5181 24.1571 53.4211 21.0311 54.8341 20.3711C54.8341 20.3711 52.7971 28.1981 52.7701 31.8131C51.2818 32.4472 49.8349 33.1747 48.4381 33.9911C45.2253 33.8979 42.0109 34.1099 38.8381 34.6241C38.8381 34.6241 38.9521 24.2981 38.8951 22.0061C38.8801 22.0331 42.9511 21.8021 49.4341 24.1271Z" fill="#005BC3"/>
<path d="M40.8298 21.9757L41.5168 20.1397C42.9238 20.4397 44.3668 19.8397 44.9878 18.7057C46.0948 16.7077 46.5928 12.6547 46.5928 12.6547C44.0428 13.0867 41.9488 11.2207 41.9488 11.2207C41.3758 13.4287 38.9488 14.6047 38.9488 14.6047C38.9488 14.6047 38.0998 13.6657 37.5718 14.4637C36.8428 15.5617 38.2618 16.0957 38.2618 16.0957C38.0878 18.4477 38.8048 19.0507 38.8048 19.0507L37.7728 21.1147C37.7728 21.1147 37.1428 20.3767 35.3068 20.5147C33.2998 20.6647 30.3448 24.0397 29.0278 27.5977C27.1768 32.5567 29.6008 34.1017 29.6008 34.1017C29.6008 34.1017 17.5828 34.1587 16.6078 34.1287C15.6328 34.0987 15.8338 34.5877 15.8338 34.9327C15.8234 35.0193 15.84 35.107 15.8813 35.1838C15.9227 35.2606 15.9868 35.3227 16.0648 35.3617C14.9338 41.3917 18.3118 44.6017 20.1808 45.8347C21.1528 46.4707 23.9188 47.5837 24.0808 48.5887C24.1438 48.9607 23.8528 49.8217 22.3318 50.5387C20.8108 51.2557 17.2168 53.3737 15.8788 56.2177C15.07 57.9746 14.8329 59.9409 15.2008 61.8397C14.9008 61.8967 14.8288 62.0977 14.7988 62.7397C14.7688 63.3817 15.1438 63.3997 15.3988 63.3997C15.6538 63.3997 34.0678 63.3997 35.0128 63.4567C35.9578 63.5137 35.9308 63.1987 35.9608 62.5387C35.9908 61.8787 35.5018 61.8787 35.5018 61.8787C35.6019 60.9551 35.621 60.0246 35.5588 59.0977C35.5588 59.0977 36.5638 60.7027 36.8788 60.5317C37.1938 60.3607 36.9928 56.1157 36.9928 56.1157C36.2539 55.1826 35.6107 54.1775 35.0728 53.1157C34.5568 53.2027 33.3508 54.2047 33.3508 54.2047C33.3508 54.2047 32.7208 53.2567 30.3118 51.7687C28.4488 50.6167 26.5768 49.7617 26.5528 48.7267C26.5168 47.0077 31.0228 46.7167 33.2938 43.0507C34.1566 41.7059 34.672 40.1679 34.7938 38.5747C40.5298 34.8487 47.1538 35.7937 47.1538 35.7937C46.9258 34.9627 46.5238 33.9307 46.5238 33.9307C46.5238 33.9307 39.8998 34.2307 38.8648 34.6477V32.4427C38.8648 32.4427 39.0088 32.2417 39.0658 32.1427C39.0658 32.1427 39.7738 32.0767 40.4728 31.2247C41.1718 30.3727 41.2168 30.0487 41.1028 29.9917C40.9888 29.9347 40.2718 30.2197 40.2718 30.2197C40.2718 30.2197 41.1058 28.9567 40.8718 28.6417C40.7008 28.4137 40.1548 28.7587 40.1548 28.7587C40.1548 28.7587 40.8988 27.7237 40.5838 27.4957C40.3828 27.3517 39.8968 27.6667 39.8968 27.6667C39.8968 27.6667 40.3828 26.7667 40.1548 26.6077C39.8368 26.4067 38.8918 27.3817 38.8918 27.3817V22.0327C38.8918 22.0327 38.9938 21.9187 40.8298 21.9757Z" fill="white"/>
<path d="M53.2464 27.9382C54.2784 28.3972 54.1644 27.6802 54.1644 27.6802C54.8544 27.6232 54.6804 26.8492 54.6804 26.8492C55.3974 26.5492 54.8544 25.8742 54.8544 25.8742C54.8544 25.8742 55.1964 25.8742 55.1124 25.3012C55.0284 24.7282 53.9634 24.0682 53.9634 24.0682C53.9634 24.0682 53.3904 23.8972 53.3334 24.0682C53.2764 24.2392 53.7354 24.8722 53.7354 24.8722C53.7354 24.8722 52.9014 24.4972 52.7304 24.6982C52.5594 24.8992 53.5044 25.8742 53.5044 25.8742C53.5044 25.8742 52.2714 25.4722 52.1844 25.7302C52.0974 25.9882 53.3334 27.0802 53.3334 27.0802C53.3334 27.0802 52.1844 26.7802 52.1004 27.1642C52.0704 27.4822 53.2464 27.9382 53.2464 27.9382Z" fill="white"/>
<path d="M41.9189 61.379C41.9189 61.379 42.3509 62.84 42.4919 62.954C42.6329 63.068 48.3449 63.185 49.8929 62.954C48.5463 61.751 46.9181 60.907 45.1589 60.5C44.1242 60.9397 43.034 61.2355 41.9189 61.379Z" fill="white"/>
<path d="M19.8084 45.4327C20.2346 45.5884 20.7021 45.5884 21.1284 45.4327C21.8184 45.1777 23.7654 43.9117 25.1154 43.9687C26.4654 44.0257 29.0694 45.3577 29.6154 45.4027C30.2223 45.3755 30.8252 45.2891 31.4154 45.1447C30.3348 46.0527 29.1205 46.7884 27.8154 47.3257C25.7154 48.0967 26.2944 51.8557 27.2154 54.6667C28.4154 58.3657 35.1864 58.6507 35.3874 61.8937H15.2214C15.2214 61.8937 14.9214 61.2067 16.3674 60.0277C19.4364 57.5077 22.9404 57.5917 23.9394 53.6347C24.3144 52.1347 24.5064 49.6207 23.9964 48.3577C23.4864 47.0947 21.2724 46.8667 19.8084 45.4327Z" fill="#7BD2FF"/>
<path d="M43.2953 16.8717C43.2383 16.8717 43.2083 16.8417 43.1813 16.7847C43.1681 16.7542 43.1666 16.7198 43.1771 16.6883C43.1876 16.6567 43.2094 16.6302 43.2383 16.6137C43.4147 16.5314 43.5783 16.4244 43.7243 16.2957C43.3823 16.0377 43.2713 15.5817 43.3823 14.9787C43.4472 14.6599 43.5541 14.3512 43.7003 14.0607C43.7154 14.0305 43.7419 14.0075 43.774 13.9968C43.8061 13.9861 43.8411 13.9886 43.8713 14.0037C43.9016 14.0188 43.9245 14.0453 43.9352 14.0774C43.9459 14.1095 43.9434 14.1445 43.9283 14.1747C43.9283 14.2047 43.1273 15.7227 43.9883 16.1817C44.0153 16.2117 44.0453 16.2387 44.0453 16.2687C44.0494 16.3091 44.0388 16.3496 44.0153 16.3827C43.7994 16.5786 43.557 16.7432 43.2953 16.8717Z" fill="#414141"/>
<path d="M41.8612 17.2148C41.8486 17.1842 41.8474 17.1501 41.8579 17.1187C41.8684 17.0873 41.8898 17.0607 41.9182 17.0438C41.9492 17.031 41.9838 17.0298 42.0157 17.0402C42.0476 17.0507 42.0747 17.0721 42.0922 17.1008C42.1192 17.1308 42.6442 18.0938 43.8112 17.5298C43.8426 17.5173 43.8774 17.5165 43.9093 17.5275C43.9413 17.5385 43.9682 17.5606 43.9852 17.5898C43.9975 17.6207 43.9982 17.6551 43.9872 17.6865C43.9762 17.718 43.9541 17.7443 43.9252 17.7608C43.6402 17.9018 42.5212 18.3338 41.8612 17.2148Z" fill="#414141"/>
<path d="M45.8482 14.0286C45.7111 13.9221 45.5461 13.8575 45.3731 13.8425C45.2001 13.8276 45.0265 13.8631 44.8732 13.9446C44.8428 13.9576 44.8087 13.9584 44.7778 13.9469C44.7469 13.9355 44.7215 13.9126 44.7069 13.8831C44.6923 13.8535 44.6896 13.8195 44.6993 13.788C44.709 13.7565 44.7304 13.7299 44.7592 13.7136C44.956 13.6029 45.1819 13.5545 45.4069 13.5749C45.6318 13.5952 45.8453 13.6834 46.0192 13.8276C46.0432 13.8489 46.0593 13.8777 46.0648 13.9094C46.0702 13.941 46.0647 13.9736 46.0492 14.0016C46.0222 14.0258 45.9887 14.0413 45.9528 14.0462C45.917 14.051 45.8805 14.0449 45.8482 14.0286Z" fill="#414141"/>
<path d="M43.0379 13.5428C42.8807 13.3474 42.6662 13.2061 42.4246 13.1388C42.183 13.0716 41.9264 13.0817 41.6909 13.1678C41.6598 13.1806 41.6253 13.1818 41.5934 13.1714C41.5615 13.1609 41.5343 13.1395 41.5169 13.1108C41.5045 13.0799 41.5038 13.0455 41.5149 13.0141C41.5259 12.9826 41.5479 12.9563 41.5769 12.9398C41.863 12.822 42.1797 12.8001 42.4793 12.8774C42.779 12.9548 43.0455 13.1272 43.2389 13.3688C43.2689 13.4258 43.2689 13.5128 43.2089 13.5428C43.1519 13.6268 43.0679 13.5698 43.0379 13.5428Z" fill="#414141"/>
<path d="M18.3475 41.7056C16.9135 39.5846 17.2555 36.6566 17.2855 36.5426C17.2895 36.5084 17.3069 36.4772 17.3339 36.4558C17.3609 36.4344 17.3953 36.4246 17.4295 36.4286C17.4637 36.4326 17.4949 36.45 17.5163 36.477C17.5377 36.504 17.5475 36.5384 17.5435 36.5726C17.5435 36.5996 17.1985 39.5246 18.5755 41.5616C18.6055 41.6186 18.6055 41.7056 18.5455 41.7326C18.4855 41.7596 18.3955 41.7566 18.3475 41.7056Z" fill="#414141"/>
<path d="M17.4565 56.8197C17.4279 56.8023 17.4064 56.7752 17.3959 56.7433C17.3855 56.7114 17.3867 56.6768 17.3995 56.6457C18.2793 55.0894 19.6082 53.8347 21.2125 53.0457C21.2435 53.033 21.2781 53.0317 21.31 53.0422C21.3419 53.0526 21.369 53.0741 21.3865 53.1027C21.3991 53.1334 21.4002 53.1675 21.3898 53.1988C21.3793 53.2302 21.3579 53.2568 21.3295 53.2738C18.6775 54.6298 17.6305 56.7147 17.6305 56.7447C17.5825 56.8227 17.5495 56.8197 17.4565 56.8197Z" fill="#414141"/>
<path d="M41.8064 15.2025C41.8881 15.22 41.9747 15.1985 42.0471 15.1426C42.1195 15.0868 42.1718 15.0012 42.1925 14.9047C42.2132 14.8082 42.2006 14.7086 42.1574 14.628C42.1143 14.5474 42.0441 14.4922 41.9624 14.4747C41.9219 14.466 41.8799 14.4668 41.8386 14.4771C41.7973 14.4874 41.7576 14.5069 41.7217 14.5345C41.6859 14.5622 41.6546 14.5974 41.6297 14.6382C41.6047 14.679 41.5866 14.7246 41.5764 14.7724C41.5661 14.8201 41.564 14.8692 41.57 14.9166C41.576 14.9641 41.5901 15.009 41.6114 15.0489C41.6328 15.0889 41.661 15.1229 41.6944 15.1492C41.7279 15.1755 41.7659 15.1935 41.8064 15.2022" fill="#414141"/>
<path d="M44.8103 15.7803C44.8507 15.789 44.8928 15.7882 44.9341 15.7779C44.9754 15.7677 45.0151 15.7482 45.0509 15.7205C45.0868 15.6929 45.1181 15.6576 45.143 15.6168C45.1679 15.576 45.1861 15.5304 45.1963 15.4827C45.2065 15.4349 45.2087 15.3859 45.2027 15.3384C45.1967 15.291 45.1826 15.246 45.1612 15.2061C45.1399 15.1662 45.1117 15.1321 45.0782 15.1058C45.0448 15.0795 45.0067 15.0615 44.9663 15.0528C44.9258 15.0442 44.8838 15.045 44.8425 15.0552C44.8012 15.0655 44.7615 15.085 44.7256 15.1126C44.6898 15.1403 44.6585 15.1755 44.6336 15.2163C44.6086 15.2571 44.5905 15.3027 44.5803 15.3505C44.57 15.3983 44.5679 15.4473 44.5739 15.4947C44.5799 15.5422 44.594 15.5872 44.6153 15.6271C44.6367 15.667 44.6649 15.7011 44.6984 15.7274C44.7318 15.7536 44.7698 15.7717 44.8103 15.7803Z" fill="#414141"/>
<path d="M44.5022 16.8967C44.5022 16.9306 44.5118 16.9641 44.5305 16.9954C44.5492 17.0267 44.5766 17.0551 44.6112 17.0791C44.6457 17.1031 44.6867 17.1221 44.7318 17.135C44.777 17.148 44.8253 17.1547 44.8742 17.1547C44.9231 17.1547 44.9714 17.148 45.0166 17.135C45.0617 17.1221 45.1027 17.1031 45.1372 17.0791C45.1718 17.0551 45.1992 17.0267 45.2179 16.9954C45.2366 16.9641 45.2462 16.9306 45.2462 16.8967C45.2462 16.8628 45.2366 16.8292 45.2179 16.7979C45.1992 16.7666 45.1718 16.7382 45.1372 16.7142C45.1027 16.6903 45.0617 16.6713 45.0166 16.6583C44.9714 16.6453 44.9231 16.6387 44.8742 16.6387C44.8253 16.6387 44.777 16.6453 44.7318 16.6583C44.6867 16.6713 44.6457 16.6903 44.6112 16.7142C44.5766 16.7382 44.5492 16.7666 44.5305 16.7979C44.5118 16.8292 44.5022 16.8628 44.5022 16.8967Z" fill="#FDAF31"/>
<path d="M41.0632 16.6388C41.1212 16.6572 41.1812 16.6675 41.2398 16.6691C41.2983 16.6708 41.3542 16.6637 41.4042 16.6484C41.4542 16.633 41.4974 16.6097 41.5311 16.5797C41.5648 16.5497 41.5885 16.5137 41.6007 16.4738C41.6129 16.4339 41.6134 16.3908 41.6022 16.3471C41.591 16.3034 41.5683 16.26 41.5354 16.2193C41.5026 16.1786 41.4602 16.1414 41.4107 16.11C41.3613 16.0786 41.3058 16.0536 41.2474 16.0364C41.1894 16.018 41.1294 16.0077 41.0709 16.0061C41.0123 16.0045 40.9564 16.0115 40.9064 16.0269C40.8564 16.0422 40.8133 16.0656 40.7796 16.0955C40.7459 16.1255 40.7222 16.1615 40.71 16.2014C40.6978 16.2413 40.6973 16.2844 40.7085 16.3281C40.7197 16.3718 40.7424 16.4153 40.7752 16.456C40.8081 16.4967 40.8505 16.5338 40.8999 16.5652C40.9494 16.5966 41.0049 16.6216 41.0632 16.6388Z" fill="#FDAF31"/>
<path d="M54.8815 24.6984C54.6663 24.4285 54.3909 24.2127 54.0774 24.0684C54.2784 23.0934 54.8244 20.6844 55.0254 20.3394C55.0524 20.2824 55.0524 20.2254 54.9954 20.1954C54.9384 20.1654 54.8814 20.1384 54.8514 20.1954C54.6804 20.3124 51.7854 22.2054 50.2344 23.3214C51.0954 22.3464 52.6344 20.8554 54.3084 20.2254C54.3379 20.2082 54.3617 20.183 54.3771 20.1527C54.3926 20.1223 54.3989 20.0882 54.3954 20.0544C54.3781 20.0244 54.3524 20.0003 54.3215 19.9848C54.2906 19.9693 54.2558 19.9633 54.2215 19.9674C52.8745 20.4834 51.6054 21.5364 50.7804 22.3464C50.4804 22.6464 50.2344 22.8924 50.0364 23.1204C50.8583 21.7112 52.0477 20.5518 53.4774 19.7664C53.4945 19.76 53.51 19.7501 53.5229 19.7373C53.5359 19.7245 53.546 19.7091 53.5525 19.6921C53.5591 19.6751 53.562 19.657 53.5611 19.6388C53.5601 19.6206 53.5553 19.6028 53.547 19.5866C53.5387 19.5704 53.527 19.5562 53.5128 19.5448C53.4986 19.5335 53.4822 19.5252 53.4646 19.5207C53.4469 19.5161 53.4286 19.5153 53.4106 19.5184C53.3927 19.5214 53.3756 19.5282 53.3604 19.5384C51.5986 20.4979 50.1994 22.0078 49.3764 23.8374C46.5924 20.9424 42.1764 20.9124 42.1194 20.9124C42.0896 20.9151 42.0618 20.9284 42.0409 20.9499C42.02 20.9713 42.0075 20.9995 42.0054 21.0294C42.0075 21.0589 42.0202 21.0867 42.0412 21.1076C42.0621 21.1286 42.0899 21.1413 42.1194 21.1434C42.1494 21.1434 45.7194 21.1704 48.4014 23.2944C46.1657 22.1232 43.6966 21.4662 41.1744 21.3714C41.3454 20.9424 41.5464 20.4264 41.6334 20.1954C42.2659 20.3599 42.9347 20.315 43.5394 20.0672C44.1441 19.8195 44.6522 19.3823 44.9874 18.8214C45.5874 17.8794 46.3074 15.8214 46.7094 12.6534C46.9116 12.5945 47.1044 12.5077 47.2824 12.3954C49.5415 11.0574 47.5374 8.53135 46.1064 7.89535C45.2064 7.49635 43.1814 6.71935 41.4594 7.77835C40.5594 5.82835 38.3904 6.68935 38.3634 6.68935C38.3485 6.69683 38.3351 6.7072 38.3242 6.71984C38.3132 6.73248 38.3048 6.74717 38.2995 6.76304C38.2942 6.77892 38.2921 6.79569 38.2933 6.81238C38.2945 6.82908 38.299 6.84538 38.3064 6.86035C38.3139 6.87532 38.3243 6.88867 38.3369 6.89964C38.3496 6.9106 38.3643 6.91897 38.3801 6.92426C38.396 6.92956 38.4128 6.93167 38.4295 6.93048C38.4462 6.9293 38.4625 6.92483 38.4774 6.91735C38.4774 6.91735 40.1694 6.17335 41.1174 7.63435C40.642 7.42658 40.1264 7.32663 39.6077 7.34167C39.089 7.35671 38.5801 7.48637 38.1174 7.72135C34.0824 9.91435 32.1174 15.3054 31.0344 19.4214C31.0277 19.4482 31.0271 19.4763 31.0326 19.5035C31.0381 19.5306 31.0496 19.5562 31.0663 19.5784C31.083 19.6005 31.1044 19.6186 31.129 19.6314C31.1536 19.6442 31.1807 19.6514 31.2084 19.6524L38.0004 20.1954L37.6824 20.8284C37.1964 20.5284 35.3994 19.6644 33.2394 21.3444C32.1264 22.2114 30.3774 24.2424 29.2224 26.7054C27.5424 30.3054 28.1364 32.3814 28.9224 33.5334C29.0335 33.6971 29.1601 33.8498 29.3004 33.9894H16.2534C15.7074 33.9894 15.6774 34.3644 15.6774 34.7364C15.6774 34.7364 15.6504 35.1084 15.8214 35.2524C15.8514 35.2824 15.9084 35.3094 15.9384 35.3394C15.3924 38.7234 16.0554 41.5584 17.9154 43.7994C19.4394 45.6324 21.3564 46.5804 22.3614 47.0994C23.3064 47.5884 23.9364 48.2184 23.9664 48.6474C23.9934 49.0224 23.7654 49.4214 23.2494 49.8234C22.4634 50.5104 18.5154 52.0854 16.4244 55.1004C14.3334 58.1154 15.0204 61.7244 15.0474 61.7544C15.0744 61.7844 14.9334 61.8414 14.9034 61.8684C14.8295 61.943 14.7732 62.0331 14.7384 62.1322C14.7036 62.2313 14.6914 62.3369 14.7024 62.4414C14.7024 63.2754 14.7894 63.4734 15.6204 63.4734L35.3814 63.5034C35.5872 63.5209 35.792 63.4598 35.9544 63.3324C36.1554 63.1314 36.1254 62.9274 36.1254 62.6424C36.1914 62.0664 36.0144 61.9074 35.6634 61.7634C35.7912 60.9932 35.8214 60.2101 35.7534 59.4324C35.9244 59.6604 36.6534 60.6654 36.8994 60.6324C37.0164 60.6324 37.1574 60.5454 37.1574 58.6524C37.1574 58.6524 37.5324 58.7964 37.5594 58.7964C37.5864 58.7964 37.6464 58.7694 37.6764 58.7124C37.6889 58.681 37.6898 58.6461 37.6788 58.6142C37.6677 58.5823 37.6456 58.5554 37.6164 58.5384L37.1574 58.3674V57.7674C37.6764 57.9924 37.5984 57.9684 37.6764 57.9684C37.7544 57.9684 37.7604 57.9384 37.7904 57.8814C37.803 57.8508 37.8042 57.8167 37.7937 57.7853C37.7833 57.7539 37.7619 57.7273 37.7334 57.7104L37.1574 57.4824C37.1574 57.0234 37.1304 56.5644 37.1004 56.2194C37.3584 56.1624 38.3634 55.8744 39.7104 55.3884C39.2827 53.7268 38.766 52.0894 38.1624 50.4834C37.2389 51.3244 36.2509 52.0917 35.2074 52.7784C35.1504 52.8054 34.0074 53.5224 33.4074 53.9784C31.3074 51.7014 28.1874 50.4234 27.4434 49.7934C26.9604 49.3824 26.6994 49.0194 26.7264 48.6174C26.7534 48.2154 27.1284 47.7564 27.8154 47.3544C28.1664 47.0904 30.8634 46.2234 32.8344 43.8564C33.7758 42.7313 34.4259 41.3919 34.7274 39.9564L38.3634 50.3004C39.1369 52.4339 39.7968 54.607 40.3404 56.8104C41.0874 59.3604 41.7474 61.2834 41.8044 61.4544C41.9484 62.0004 42.1734 62.9244 42.4344 63.0324C42.8034 63.1854 49.7484 63.0624 49.9494 62.9454C49.9794 62.9288 50.0037 62.9037 50.0192 62.8732C50.0347 62.8427 50.0407 62.8083 50.0364 62.7744C50.0064 62.5734 49.3464 62.1444 48.0864 61.5114C48.0213 61.4791 47.9542 61.451 47.8854 61.4274L48.1134 61.0824C48.1435 61.0254 48.1434 60.9384 48.0864 60.9114C48.0294 60.8844 47.9424 60.8814 47.9124 60.9384L47.6544 61.3134C47.5104 61.2534 47.3545 61.1694 47.2254 61.1124L47.4834 60.7374C47.5104 60.6804 47.5104 60.5934 47.4534 60.5664C47.3964 60.5394 47.3094 60.5364 47.2824 60.5934L46.9824 60.9954C46.4309 60.7447 45.866 60.5244 45.2904 60.3354L44.3454 53.0814C43.5144 47.6604 42.0504 40.9494 42.0504 40.8654C42.05 40.8356 42.058 40.8064 42.0733 40.7809C42.0887 40.7555 42.1109 40.7348 42.1374 40.7214C42.3384 40.6644 43.5145 39.9744 43.9734 39.7464C44.004 39.7331 44.0383 39.7316 44.0699 39.7421C44.1014 39.7527 44.128 39.7745 44.1444 39.8034C44.157 39.834 44.1582 39.8681 44.1477 39.8994C44.1373 39.9308 44.1159 39.9574 44.0874 39.9744C43.9434 40.0614 42.7374 40.7484 42.3084 40.9224C42.4794 41.7834 43.8084 47.8914 44.5735 52.9374C45.7812 52.1684 46.8402 51.1876 47.6994 50.0424C50.3844 46.2684 47.9575 37.9104 47.3574 35.9904C47.2049 35.2926 46.9639 34.6171 46.6404 33.9804C48.1105 33.9804 48.2814 34.0884 48.3594 34.0104C49.7536 33.1938 51.2043 32.478 52.7004 31.8684C52.7575 31.8414 52.7844 31.8114 52.7844 31.7544C52.7844 31.6974 53.0424 28.7724 53.2434 27.9684C53.2764 27.9684 53.8584 28.1784 54.1434 27.9984C54.1861 27.953 54.2162 27.8974 54.2309 27.8369C54.2457 27.7765 54.2445 27.7132 54.2274 27.6534C54.6534 27.5454 54.7645 27.2274 54.7164 26.7924C54.8809 26.7024 55.0115 26.5613 55.0885 26.3904C55.1174 26.2928 55.1221 26.1896 55.1023 26.0898C55.0824 25.9899 55.0385 25.8964 54.9744 25.8174C55.1185 25.9044 55.2324 25.8474 55.2594 25.7304C55.3704 25.4724 55.2565 25.1574 54.8815 24.6984ZM45.2454 60.6624C45.7044 60.8034 46.2775 61.0344 46.8805 61.2924L46.7094 61.5204C46.6794 61.5804 46.6794 61.6644 46.7364 61.6944C46.7676 61.7155 46.8056 61.7241 46.8428 61.7186C46.88 61.713 46.9138 61.6937 46.9374 61.6644L47.1385 61.4064C47.2825 61.4634 47.4384 61.5504 47.5674 61.6074L47.3965 61.8654C47.3694 61.9224 47.3694 62.0094 47.4264 62.0364C47.4834 62.0634 47.5764 62.0604 47.6274 62.0094L47.8254 61.7094C48.4718 61.9938 49.0879 62.3425 49.6645 62.7504C48.6624 62.8644 42.9804 62.9994 42.6354 62.8854C42.5214 62.8014 42.2934 62.1984 42.1494 61.5384C43.2482 61.5819 44.3324 61.2751 45.2454 60.6624ZM47.4534 23.0934C47.3694 23.1204 47.3094 23.1504 47.2254 23.1804C45.2016 22.5319 43.1151 22.0985 41.0004 21.8874C41.0325 21.7984 41.0716 21.7121 41.1174 21.6294C43.301 21.727 45.4484 22.2231 47.4534 23.0934ZM38.8794 19.1004C38.8942 19.0792 38.902 19.0541 38.902 19.0283C38.902 19.0026 38.8942 18.9775 38.8794 18.9564C38.4752 18.0284 38.3271 17.009 38.4504 16.0044C38.4504 16.0044 36.9504 15.4614 37.5504 14.5704C38.0724 13.8264 38.9004 14.7414 38.9004 14.7414C38.9004 14.7414 41.1924 13.7964 42.0234 11.4413C42.0234 11.4413 44.3754 13.2414 46.4694 12.7614C46.2984 14.1084 45.8184 17.0663 44.8074 18.7254C44.1234 19.8474 42.5814 20.5104 40.9344 19.7274C40.9041 19.7144 40.87 19.7136 40.8391 19.7251C40.8082 19.7365 40.7828 19.7594 40.7682 19.7889C40.7536 19.8185 40.7509 19.8525 40.7606 19.884C40.7703 19.9155 40.7917 19.9421 40.8204 19.9584C41.0214 20.0454 41.2224 20.1024 41.3934 20.1594C41.2794 20.4174 41.0934 20.9634 40.9074 21.3594C40.5917 21.3428 40.2752 21.3428 39.9594 21.3594C39.9252 21.3633 39.894 21.3807 39.8726 21.4077C39.8512 21.4347 39.8415 21.4691 39.8454 21.5034C39.8494 21.5376 39.8668 21.5688 39.8938 21.5902C39.9208 21.6116 39.9552 21.6213 39.9894 21.6174C40.2662 21.6001 40.5437 21.6001 40.8204 21.6174C40.7869 21.7018 40.7579 21.7879 40.7334 21.8754C40.1034 21.8484 39.4734 21.8754 38.9004 21.8754C38.8703 21.878 38.8421 21.8912 38.8207 21.9126C38.7993 21.934 38.7861 21.9622 38.7834 21.9924V22.1064C38.0964 21.9624 37.9254 21.2064 37.8834 21.0444L38.8794 19.1004ZM40.0794 30.1704C39.6365 30.5583 39.2344 30.9905 38.8794 31.4604C38.7654 31.4604 38.5644 31.4604 38.4774 31.3464C38.4285 31.2764 38.3976 31.1954 38.3877 31.1105C38.3777 31.0257 38.389 30.9398 38.4204 30.8604C38.91 30.0912 39.5174 29.4038 40.2204 28.8234C40.6524 28.5924 40.7364 28.6794 40.7364 28.6794C40.7364 28.6794 40.9164 28.9134 40.0824 30.1764L40.0794 30.1704ZM40.2534 30.3714C40.5534 30.2004 40.9404 30.0714 41.0274 30.1134C41.0274 30.1434 41.0274 30.2844 40.7274 30.7134C40.0884 31.5954 39.2934 32.0604 39.0924 31.9734C39.0624 31.9464 39.0354 31.8594 39.0924 31.6314C39.4322 31.171 39.8227 30.7504 40.2564 30.3774L40.2534 30.3714ZM40.0524 28.6224C39.3348 29.1981 38.7253 29.897 38.2524 30.6864C38.1141 30.6536 37.9918 30.5728 37.9074 30.4584C37.8681 30.3657 37.8528 30.2647 37.8627 30.1646C37.8727 30.0644 37.9077 29.9684 37.9644 29.8854C38.5275 29.0928 39.1933 28.3786 39.9444 27.7614C40.0939 27.6509 40.2746 27.591 40.4604 27.5904C40.4844 27.6234 40.6014 27.7674 40.0554 28.6284L40.0524 28.6224ZM39.7524 27.6174C39.0548 28.2201 38.4205 28.8926 37.8594 29.6244C37.8136 29.5951 37.7747 29.5562 37.7454 29.5104C37.6584 29.3664 37.7214 29.1114 37.8864 28.7934C38.3934 27.8274 39.8364 26.6154 40.0944 26.6724C40.1694 26.7924 39.9684 27.2814 39.7404 27.6234L39.7524 27.6174ZM29.4444 26.8494C30.5394 24.5574 32.2524 22.4604 33.4014 21.5724C35.6064 19.8744 37.3584 20.9124 37.6464 21.1134C37.7034 21.3444 37.9044 22.2324 38.7924 22.3764V27.2814C38.3399 27.6851 37.9621 28.1654 37.6764 28.7004C37.5675 28.8946 37.4991 29.1089 37.4754 29.3304C36.0984 29.5884 34.4334 29.8194 33.3144 29.9304C33.7464 28.2684 35.5254 25.8594 35.5254 25.8294C35.5254 25.7994 35.5524 25.6854 35.4954 25.6584C35.4384 25.6314 35.3514 25.6284 35.3244 25.6854C35.2374 25.8024 33.4314 28.2384 33.0294 29.9604C32.4294 30.0174 32.0244 30.0744 32.0244 30.0744C31.9905 30.0789 31.9596 30.0964 31.9383 30.1233C31.917 30.1502 31.907 30.1842 31.9104 30.2184C31.9125 30.2479 31.9252 30.2757 31.9462 30.2966C31.9671 30.3176 31.9949 30.3303 32.0244 30.3324C32.0544 30.3324 35.1234 30.0174 37.4454 29.5854C37.4584 29.6447 37.4864 29.6996 37.5269 29.7448C37.5674 29.79 37.6189 29.824 37.6764 29.8434C37.3764 30.7614 37.9764 30.8784 38.1324 30.9054C37.9614 31.6524 38.6214 31.6794 38.7654 31.7094C38.7314 31.8457 38.7519 31.9899 38.8224 32.1114C37.3884 33.3714 34.0614 35.0664 31.5384 34.7484C27.9234 34.2804 27.8004 30.3234 29.4444 26.8494ZM35.9004 62.9274C35.9037 62.974 35.8977 63.0208 35.8827 63.0651C35.8678 63.1093 35.8443 63.1502 35.8134 63.1854C35.621 63.2901 35.397 63.321 35.1834 63.2724H15.6204C14.9904 63.2724 14.9634 63.2424 14.9634 62.4954C14.9634 62.1114 15.0954 61.9794 15.5064 61.9794H34.9494C35.251 61.9454 35.5551 62.0164 35.8104 62.1804C35.9184 62.3244 35.9004 62.5194 35.9004 62.9274ZM35.0694 53.2614C35.5695 54.2534 36.1643 55.1947 36.8454 56.0724C36.8754 56.4744 36.8754 56.9724 36.9024 57.4794L36.4434 57.2784C36.4129 57.2651 36.3786 57.2636 36.347 57.2741C36.3155 57.2847 36.2889 57.3065 36.2724 57.3354C36.2599 57.366 36.2587 57.4001 36.2692 57.4314C36.2796 57.4628 36.301 57.4894 36.3294 57.5064L36.9024 57.7374V58.3374L36.3594 58.1094C36.3284 58.0966 36.2938 58.0953 36.2619 58.1058C36.23 58.1162 36.2029 58.1377 36.1854 58.1664C36.1725 58.1972 36.1714 58.2318 36.1825 58.2634C36.1936 58.295 36.216 58.3214 36.2454 58.3374L36.8754 58.5954C36.8908 59.1967 36.8617 59.7983 36.7884 60.3954C36.3665 59.9675 35.9914 59.4958 35.6694 58.9884C35.4838 57.22 34.729 55.5597 33.5184 54.2574C34.0167 53.8986 34.5334 53.5661 35.0664 53.2614H35.0694ZM28.2684 46.9254C26.8644 47.5854 26.5194 48.1854 26.4894 48.7014C26.4624 49.1604 26.7174 49.6254 27.2934 50.0784C28.3944 50.9454 32.0544 52.4214 34.0614 55.3284C35.2995 57.2462 35.7796 59.556 35.4084 61.8084C35.1864 61.7634 36.3564 61.7784 15.2484 61.7784C15.2484 61.7514 14.5524 58.2744 16.5954 55.3284C18.6384 52.3824 22.4214 50.8704 23.3634 50.0784C23.9274 49.6074 24.1944 49.1604 24.1674 48.7014C24.1374 48.1854 23.5944 47.5254 22.4184 46.9524C21.4134 46.4664 19.5324 45.5094 18.0594 43.7124C16.2594 41.5224 15.6184 38.7794 16.1364 35.4834C16.1664 35.4834 33.5754 35.6544 34.4904 35.6544C35.7534 43.3104 30.3354 45.9534 28.2684 46.9254ZM16.2534 35.2254C16.1596 35.2297 16.0675 35.1987 15.9954 35.1384C15.8754 35.0184 15.9504 34.4754 15.9654 34.4214C16.0044 34.3074 16.0824 34.2774 16.2654 34.2774H29.6004C31.2354 35.5404 33.9294 34.9074 35.2194 34.4484C35.1384 34.9464 35.2794 35.3964 34.7904 35.3964L16.2534 35.2254ZM47.0514 35.6244C42.8272 35.1683 38.5709 36.1263 34.9494 38.3484C34.9991 37.4379 34.9518 36.5248 34.8084 35.6244C34.884 35.6305 34.9601 35.6211 35.0319 35.5968C35.1037 35.5724 35.1697 35.5336 35.226 35.4827C35.2822 35.4318 35.3274 35.3699 35.3588 35.3009C35.3902 35.2319 35.4071 35.1572 35.4084 35.0814C35.4324 34.8204 35.4654 34.4814 35.4654 34.3344C36.6278 33.9048 37.7205 33.3064 38.7084 32.5584V34.6224C38.7084 34.7064 38.7924 34.7364 38.8794 34.7364C41.3785 34.3701 43.8968 34.1497 46.4214 34.0764C46.6848 34.569 46.8959 35.0878 47.0514 35.6244ZM48.0264 33.8484C44.1264 33.6474 39.1374 34.4484 38.9664 34.4784V32.3574C39.0234 32.3274 39.0504 32.2704 39.1074 32.2404C39.6264 32.3574 40.4094 31.5894 40.9074 30.8934C41.2584 30.4104 41.7654 29.4594 40.5054 29.9934C41.1054 28.9614 41.3364 28.1274 40.4485 28.4724C40.8204 27.9264 41.0215 27.0114 40.1484 27.4104C40.3764 27.0684 40.7784 25.5774 38.9994 27.0684V22.1454C41.2944 21.8874 45.2244 22.8624 46.8864 23.3814C45.9684 23.8374 45.2934 25.5894 45.0864 27.5094C44.9484 28.7394 44.4024 31.9914 43.3644 32.5284C43.336 32.5453 43.3146 32.5719 43.3042 32.6033C43.2937 32.6347 43.2949 32.6688 43.3074 32.6994C43.3374 32.7294 43.3645 32.7864 43.4214 32.7564C44.0814 32.5284 44.4354 31.6704 44.8284 30.3204C45.0837 29.4094 45.2653 28.4794 45.3715 27.5394C45.5695 25.6764 46.2894 23.8674 47.2374 23.4654C47.9814 23.6964 48.5844 23.8974 48.9565 24.0384L48.0264 33.8484ZM52.5864 31.7484C51.4054 32.2289 50.2561 32.784 49.1454 33.4104L50.0454 23.7474C51.0474 23.0004 53.2555 21.5094 54.6894 20.5644C54.4044 21.4644 54.0024 23.4324 53.8854 23.9484C53.6874 23.8914 53.3125 23.7744 53.1984 23.9754C53.1715 24.0324 53.1115 24.1194 53.4985 24.6354C53.1535 24.4914 52.7514 24.4074 52.6374 24.6354C52.5504 24.8094 52.7514 25.1514 53.2975 25.6974C52.7814 25.5234 52.2415 25.3974 52.1215 25.6674C52.0374 25.8414 52.1785 26.1834 53.0965 26.9004C52.6375 26.8164 52.1784 26.8164 52.0914 27.0744C52.0749 27.1427 52.0857 27.2148 52.1215 27.2754C52.2654 27.5334 52.7514 27.7914 53.1235 27.9624C52.8745 28.7154 52.6434 31.2654 52.5864 31.7544V31.7484ZM53.5044 27.8754C53.1024 27.7614 52.2715 27.3024 52.2715 27.1584C52.3015 27.0744 52.4724 26.9304 53.5344 27.3024C53.7624 27.4464 54.0504 27.6474 54.0504 27.7344C54.1074 28.0824 53.5044 27.8814 53.5044 27.8814V27.8754ZM54.1944 27.5334C54.0162 27.3548 53.8236 27.1912 53.6184 27.0444C52.8624 26.5164 52.2444 25.9254 52.2444 25.7844C52.2714 25.6974 52.9014 25.8114 53.6784 26.1564C53.9573 26.3818 54.2246 26.6211 54.4794 26.8734C54.7674 27.4224 54.2785 27.5394 54.2004 27.5394L54.1944 27.5334ZM54.6805 26.6724C54.5665 26.5584 53.8764 25.9554 53.8764 25.9554C53.3604 25.4964 52.8174 24.8934 52.7874 24.7554C52.8444 24.7284 53.1894 24.7554 53.7924 25.0734C54.1279 25.3511 54.4437 25.6518 54.7374 25.9734C55.1694 26.4474 54.7675 26.6484 54.6805 26.6784V26.6724ZM54.8815 25.7244C54.5962 25.4039 54.2895 25.1032 53.9635 24.8244C53.7602 24.5985 53.5867 24.3474 53.4474 24.0774C53.6965 24.1029 53.9374 24.1802 54.1549 24.3042C54.3723 24.4281 54.5616 24.5961 54.7104 24.7974C55.2684 25.5504 54.9384 25.7304 54.8815 25.7304V25.7244Z" fill="#414141"/>
</svg>
