<svg width="50" height="50" viewBox="0 0 50 50" fill="none" xmlns="http://www.w3.org/2000/svg">
<path d="M25.3695 10.7418C25.373 10.7593 25.3818 10.7753 25.3948 10.7877C25.4077 10.8001 25.4241 10.8082 25.4418 10.8109C25.4595 10.8136 25.4776 10.8109 25.4936 10.803C25.5097 10.7951 25.5229 10.7824 25.5315 10.7668C25.671 10.5185 25.9333 10.1028 26.1043 9.83501C26.1551 9.75525 26.2226 9.68749 26.3022 9.63642C26.3818 9.58535 26.4716 9.5522 26.5653 9.53926C27.4153 9.42176 29.8753 9.07601 31.2153 8.83426C32.0403 8.68551 32.083 8.11251 32.0345 7.56401C31.937 6.46851 31.689 4.99851 31.6438 4.77301C31.5763 4.43476 31.2608 4.14076 30.6045 4.15426C29.9483 4.16776 26.4295 4.64826 25.442 4.87676C24.604 5.07076 24.5088 5.63601 24.667 6.79276C24.82 7.91601 25.2313 10.0383 25.3695 10.7418Z" fill="#4D68A2"/>
<path d="M36.5762 12.8382C36.5766 12.8572 36.571 12.8759 36.5604 12.8917C36.5498 12.9075 36.5345 12.9196 36.5167 12.9264C36.499 12.9333 36.4795 12.9345 36.461 12.9299C36.4426 12.9252 36.426 12.9151 36.4135 12.9007C36.208 12.6664 35.83 12.2784 35.6165 12.0617C35.5679 12.0124 35.5092 11.9742 35.4445 11.9498C35.3798 11.9254 35.3105 11.9153 35.2415 11.9202C34.4747 11.9772 31.906 12.1377 30.487 12.1782C29.6487 12.2032 29.4892 11.6502 29.4242 11.1032C29.2945 10.0109 29.213 8.53169 29.211 8.30319C29.2075 7.95819 29.456 7.60569 30.101 7.48394C30.746 7.36219 34.2877 7.10894 35.301 7.13044C36.1607 7.14794 36.3702 7.68169 36.4535 8.84619C36.532 9.96719 36.5657 12.1064 36.5762 12.8382Z" fill="#E02728"/>
<path d="M46.9861 13.6921C46.3141 13.2869 42.7036 11.6921 41.5588 11.2936C40.5881 10.9546 40.1311 11.4649 39.5518 12.7351C38.9901 13.9671 38.0518 16.3749 37.7413 17.1741C37.7337 17.194 37.7323 17.2158 37.7374 17.2365C37.7425 17.2572 37.7538 17.2759 37.7698 17.29C37.7858 17.3041 37.8057 17.3129 37.8269 17.3154C37.8481 17.3178 37.8695 17.3137 37.8883 17.3036C38.1958 17.1376 38.6183 16.9691 38.9606 16.8086C39.0548 16.7643 39.1576 16.741 39.2618 16.7404C39.3659 16.7397 39.469 16.7617 39.5638 16.8049C40.4721 17.2169 43.1343 18.3929 44.6571 19.0099C45.5863 19.3866 45.9951 18.8349 46.2958 18.2491C46.8123 17.189 47.2618 16.0975 47.6416 14.9811C47.7903 14.4646 47.6581 14.0974 46.9861 13.6921Z" fill="#E02728"/>
<path d="M37.6077 25.6227C38.2992 25.9937 41.5122 28.2855 42.4405 29.0657C43.2272 29.7275 43.0217 30.3812 42.225 31.5272C41.452 32.6392 39.861 34.6772 39.3317 35.3497C39.3185 35.3665 39.3005 35.3788 39.2801 35.385C39.2597 35.3913 39.2378 35.3911 39.2175 35.3845C39.1972 35.378 39.1794 35.3653 39.1665 35.3483C39.1536 35.3314 39.1461 35.3108 39.1452 35.2895C39.131 34.9395 39.0602 34.4912 39.0237 34.1145C39.0137 34.0109 38.9812 33.9107 38.9287 33.8208C38.8761 33.7309 38.8046 33.6535 38.7192 33.594C37.9012 33.0232 35.5312 31.334 34.2232 30.3395C33.4252 29.7325 33.6912 29.0992 34.0412 28.5417C34.6892 27.5565 35.3985 26.613 36.1647 25.7167C36.5332 25.3252 36.9162 25.2517 37.6077 25.6227Z" fill="#E02728"/>
<path d="M28.5849 24.1392C27.9752 23.8354 27.4268 23.4219 26.9671 22.9192C26.4718 22.3889 26.0908 21.7623 25.8478 21.0785C25.6049 20.3947 25.5052 19.6682 25.5549 18.9442C25.6346 19.0515 25.7409 19.1942 25.8799 19.3827C25.8983 19.4077 25.9259 19.4244 25.9566 19.429C25.9873 19.4337 26.0186 19.4259 26.0436 19.4075C26.0686 19.389 26.0853 19.3614 26.0899 19.3307C26.0946 19.3 26.0868 19.2687 26.0684 19.2437C25.8301 18.9187 25.6859 18.7242 25.6111 18.627C25.5957 18.5991 25.5729 18.5759 25.5453 18.56C25.5177 18.544 25.4862 18.536 25.4543 18.5367C25.4224 18.5373 25.3913 18.5467 25.3643 18.5638C25.3374 18.5808 25.3156 18.6049 25.3014 18.6335C25.1276 18.879 24.8671 19.3507 24.8559 19.3705C24.8414 19.3977 24.8379 19.4294 24.8462 19.4591C24.8545 19.4888 24.8739 19.5142 24.9004 19.53C24.9279 19.5427 24.9591 19.5451 24.9883 19.537C25.0175 19.5288 25.0429 19.5106 25.0599 19.4855C25.0619 19.4822 25.1849 19.2622 25.3169 19.046C25.3009 20.1444 25.5936 21.2253 26.1617 22.1656C26.7299 23.1058 27.5505 23.8677 28.5304 24.3645C28.5583 24.3668 28.5861 24.3591 28.6088 24.3427C28.6315 24.3264 28.6476 24.3024 28.6542 24.2752C28.6608 24.248 28.6574 24.2193 28.6447 24.1944C28.632 24.1695 28.6108 24.1499 28.5849 24.1392Z" fill="#313131"/>
<path d="M42.4007 24.6505C42.3785 24.6288 42.3487 24.6168 42.3177 24.6171C42.2866 24.6174 42.257 24.6299 42.2352 24.652C42.2327 24.6548 42.0555 24.835 41.8727 25.0095C42.0964 24.305 42.1778 23.5631 42.1122 22.8269C42.0465 22.0906 41.8351 21.3748 41.4902 20.721C41.1648 20.09 40.7238 19.5257 40.1902 19.0573C40.1783 19.0469 40.1645 19.0391 40.1495 19.0343C40.1345 19.0294 40.1186 19.0276 40.1029 19.029C40.0872 19.0304 40.072 19.035 40.0581 19.0424C40.0442 19.0498 40.0319 19.06 40.022 19.0723C40.0121 19.0845 40.0048 19.0987 40.0005 19.1138C39.9962 19.129 39.995 19.1449 39.997 19.1605C39.999 19.1762 40.0041 19.1912 40.012 19.2049C40.02 19.2185 40.0306 19.2304 40.0432 19.2398C40.071 19.2618 42.7532 21.474 41.6167 25.0478C41.5667 24.9228 41.5022 24.7565 41.4167 24.538C41.4055 24.5091 41.3832 24.4858 41.3548 24.4733C41.3264 24.4608 41.2942 24.46 41.2652 24.4713C41.2363 24.4825 41.213 24.5048 41.2005 24.5332C41.1879 24.5616 41.1872 24.5938 41.1985 24.6228C41.3445 24.9978 41.4395 25.2215 41.4795 25.3375C41.4885 25.3673 41.5051 25.3943 41.5277 25.4157C41.5503 25.4372 41.578 25.4525 41.6082 25.46C41.6384 25.4676 41.6701 25.4672 41.7001 25.4588C41.7301 25.4505 41.7575 25.4346 41.7795 25.4125C42.011 25.2203 42.3855 24.8328 42.4015 24.8168C42.4124 24.8058 42.421 24.7928 42.4269 24.7786C42.4327 24.7643 42.4357 24.749 42.4356 24.7335C42.4356 24.7181 42.4325 24.7028 42.4265 24.6885C42.4205 24.6743 42.4117 24.6614 42.4007 24.6505Z" fill="#313131"/>
<path d="M22.2272 9.82386C22.2229 9.80903 22.2216 9.79351 22.2235 9.77819C22.2253 9.76287 22.2301 9.74806 22.2377 9.73465C22.2454 9.72123 22.2556 9.70947 22.2678 9.70006C22.28 9.69065 22.294 9.68378 22.3089 9.67986C22.3388 9.67238 22.3705 9.67669 22.3973 9.69191C22.4241 9.70713 22.444 9.73209 22.4529 9.76161C22.9714 11.2451 24.0279 11.5616 24.7599 11.4629C24.7752 11.4608 24.7907 11.4618 24.8055 11.4657C24.8204 11.4696 24.8343 11.4765 24.8465 11.4858C24.8588 11.4951 24.869 11.5067 24.8768 11.52C24.8845 11.5333 24.8895 11.548 24.8916 11.5632C24.8936 11.5785 24.8926 11.594 24.8887 11.6088C24.8848 11.6237 24.878 11.6376 24.8686 11.6498C24.8593 11.6621 24.8477 11.6723 24.8344 11.68C24.8211 11.6878 24.8064 11.6928 24.7912 11.6949C24.6767 11.7104 22.9174 12.0209 22.2272 9.82386Z" fill="#313131"/>
<path d="M22.0348 11.8349C22.0245 11.8234 22.0166 11.8098 22.0117 11.7951C22.0068 11.7805 22.005 11.7649 22.0063 11.7495C22.0075 11.7341 22.0119 11.7191 22.0192 11.7054C22.0265 11.6917 22.0365 11.6796 22.0485 11.6699C22.0722 11.6499 22.1028 11.6402 22.1337 11.6427C22.1646 11.6453 22.1932 11.66 22.2133 11.6837C22.512 12.0088 22.9077 12.2287 23.3414 12.3108C23.7752 12.393 24.2239 12.3328 24.6208 12.1394C24.649 12.1278 24.6807 12.1276 24.7091 12.1389C24.7374 12.1503 24.7602 12.1723 24.7726 12.2003C24.7849 12.2282 24.7858 12.2599 24.7751 12.2885C24.7644 12.3172 24.7429 12.3405 24.7153 12.3534C24.2725 12.5687 23.7719 12.6345 23.2886 12.541C22.8053 12.4475 22.3653 12.1997 22.0348 11.8349Z" fill="#313131"/>
<path d="M30.4969 15.6532C30.4685 15.6568 30.4398 15.6498 30.4162 15.6336C30.3927 15.6175 30.3758 15.5932 30.3689 15.5655C30.2764 15.214 30.1825 14.8629 30.0871 14.5122C30.0816 14.497 30.0793 14.4808 30.0803 14.4647C30.0814 14.4485 30.0857 14.4328 30.0932 14.4184C30.1006 14.404 30.111 14.3914 30.1236 14.3812C30.1362 14.371 30.1507 14.3636 30.1663 14.3593C30.182 14.3551 30.1983 14.3541 30.2143 14.3565C30.2303 14.3589 30.2457 14.3646 30.2594 14.3732C30.2731 14.3818 30.2848 14.3932 30.2939 14.4066C30.303 14.4199 30.3092 14.4351 30.3121 14.451C30.3221 14.4872 30.5539 15.3442 30.5949 15.5087C30.5989 15.5247 30.5995 15.5414 30.5966 15.5576C30.5938 15.5739 30.5875 15.5893 30.5782 15.6029C30.569 15.6166 30.557 15.6281 30.5429 15.6368C30.5289 15.6455 30.5132 15.6511 30.4969 15.6532Z" fill="#313131"/>
<path d="M31.3334 15.3645C31.317 15.3666 31.3004 15.3651 31.2847 15.3601C31.269 15.3551 31.2545 15.3468 31.2423 15.3357C31.2301 15.3246 31.2205 15.311 31.2141 15.2958C31.2077 15.2806 31.2046 15.2642 31.2051 15.2478V13.8353C31.2063 13.8039 31.2196 13.7742 31.2422 13.7525C31.2648 13.7308 31.295 13.7187 31.3264 13.7188C31.3416 13.7189 31.3566 13.7221 31.3705 13.7281C31.3845 13.7342 31.3971 13.7429 31.4076 13.7539C31.4181 13.7649 31.4264 13.7778 31.4318 13.792C31.4373 13.8062 31.4399 13.8213 31.4394 13.8365V15.2488C31.4385 15.2775 31.4273 15.305 31.4078 15.3262C31.3884 15.3475 31.362 15.3611 31.3334 15.3645Z" fill="#313131"/>
<path d="M32.087 15.5151C32.0678 15.5173 32.0483 15.5146 32.0304 15.5074C32.0124 15.5002 31.9965 15.4886 31.9841 15.4737C31.9718 15.4589 31.9633 15.4412 31.9594 15.4222C31.9555 15.4033 31.9564 15.3836 31.962 15.3651L32.2915 14.2941C32.3006 14.2643 32.3213 14.2393 32.3488 14.2247C32.3764 14.21 32.4087 14.207 32.4385 14.2161C32.4683 14.2253 32.4933 14.2459 32.5079 14.2735C32.5226 14.301 32.5256 14.3333 32.5165 14.3631L32.187 15.4339C32.1801 15.4557 32.167 15.475 32.1492 15.4895C32.1314 15.5039 32.1098 15.5128 32.087 15.5151Z" fill="#313131"/>
<path d="M34.117 2.53992C34.0974 2.53992 34.0781 2.53498 34.0608 2.52556C34.0436 2.51613 34.029 2.50253 34.0185 2.48599C34.0079 2.46946 34.0016 2.45053 34.0003 2.43094C33.9989 2.41136 34.0025 2.39175 34.0108 2.37392L34.498 1.31842C34.5045 1.30447 34.5136 1.29192 34.5249 1.2815C34.5362 1.27108 34.5494 1.26298 34.5639 1.25768C34.5783 1.25237 34.5936 1.24996 34.609 1.25058C34.6243 1.2512 34.6394 1.25484 34.6534 1.2613C34.6673 1.26775 34.6799 1.27688 34.6903 1.28818C34.7007 1.29948 34.7088 1.31272 34.7141 1.32715C34.7194 1.34158 34.7218 1.35691 34.7212 1.37227C34.7206 1.38763 34.717 1.40272 34.7105 1.41667L34.2235 2.47192C34.2141 2.49224 34.1991 2.50944 34.1802 2.52149C34.1613 2.53354 34.1394 2.53994 34.117 2.53992Z" fill="#313131"/>
<path d="M34.8473 2.86482C34.8254 2.86474 34.804 2.85855 34.7855 2.84695C34.767 2.83535 34.7521 2.8188 34.7424 2.79917C34.7328 2.77954 34.7289 2.75761 34.7311 2.73586C34.7332 2.71411 34.7415 2.6934 34.7548 2.67607L35.6343 1.53957C35.6436 1.52719 35.6553 1.51678 35.6687 1.50895C35.6821 1.50112 35.6969 1.49602 35.7122 1.49396C35.7276 1.4919 35.7432 1.49291 35.7582 1.49694C35.7731 1.50096 35.7872 1.50792 35.7994 1.51741C35.8117 1.5269 35.8219 1.53873 35.8296 1.55222C35.8372 1.5657 35.8421 1.58057 35.8439 1.59596C35.8458 1.61135 35.8446 1.62695 35.8403 1.64186C35.8361 1.65678 35.8289 1.6707 35.8193 1.68282L34.9398 2.81957C34.9289 2.83368 34.9148 2.8451 34.8988 2.85295C34.8828 2.86079 34.8651 2.86485 34.8473 2.86482Z" fill="#313131"/>
<path d="M35.4025 3.28405C35.3769 3.28413 35.3519 3.27578 35.3315 3.26028C35.311 3.24478 35.2962 3.223 35.2894 3.19829C35.2826 3.17357 35.284 3.14729 35.2936 3.12349C35.3031 3.09969 35.3202 3.07968 35.3423 3.06655L36.3173 2.4848C36.3436 2.47176 36.3739 2.46911 36.4021 2.47739C36.4303 2.48566 36.4544 2.50425 36.4695 2.52946C36.4846 2.55467 36.4897 2.58465 36.4837 2.61343C36.4778 2.64221 36.4612 2.66769 36.4373 2.6848C35.379 3.31755 35.4485 3.28405 35.4025 3.28405Z" fill="#313131"/>
<path d="M42.222 7.42735H41.8625L41.8375 6.4656C41.8367 6.43457 41.8236 6.40513 41.8011 6.38375C41.7786 6.36237 41.7485 6.35081 41.7175 6.3516C41.6864 6.3524 41.657 6.36549 41.6356 6.38799C41.6142 6.4105 41.6027 6.44057 41.6035 6.4716L41.6285 7.42735H41.2752C41.2442 7.42735 41.2144 7.43968 41.1925 7.46162C41.1705 7.48356 41.1582 7.51332 41.1582 7.54435C41.1582 7.57538 41.1705 7.60514 41.1925 7.62708C41.2144 7.64902 41.2442 7.66135 41.2752 7.66135H41.6347L41.6597 8.6231C41.6616 8.65336 41.6752 8.68168 41.6976 8.70214C41.72 8.72259 41.7494 8.73359 41.7797 8.73281C41.81 8.73203 41.8388 8.71955 41.8601 8.69797C41.8814 8.6764 41.8936 8.64741 41.894 8.6171L41.869 7.66135H42.2227C42.2537 7.66135 42.2835 7.64902 42.3054 7.62708C42.3274 7.60514 42.3397 7.57538 42.3397 7.54435C42.3397 7.51332 42.3274 7.48356 42.3054 7.46162C42.2835 7.43968 42.2537 7.42735 42.2227 7.42735H42.222Z" fill="#4D68A2"/>
<path d="M22.1825 4.28147H21.8125V3.37022C21.8132 3.35439 21.8108 3.33856 21.8052 3.32372C21.7996 3.30887 21.7911 3.2953 21.7802 3.28384C21.7692 3.27237 21.7561 3.26324 21.7415 3.25701C21.7269 3.25077 21.7112 3.24756 21.6954 3.24756C21.6795 3.24756 21.6638 3.25077 21.6493 3.25701C21.6347 3.26324 21.6215 3.27237 21.6106 3.28384C21.5996 3.2953 21.5911 3.30887 21.5856 3.32372C21.58 3.33856 21.5775 3.35439 21.5783 3.37022V4.28147H21.1813C21.1654 4.28074 21.1496 4.28323 21.1348 4.28878C21.1199 4.29434 21.1063 4.30285 21.0949 4.3138C21.0834 4.32474 21.0743 4.3379 21.068 4.35248C21.0618 4.36705 21.0586 4.38274 21.0586 4.3986C21.0586 4.41445 21.0618 4.43014 21.068 4.44471C21.0743 4.45929 21.0834 4.47245 21.0949 4.4834C21.1063 4.49434 21.1199 4.50285 21.1348 4.50841C21.1496 4.51397 21.1654 4.51645 21.1813 4.51572H21.5783V5.26572C21.5796 5.29585 21.5926 5.32428 21.6144 5.34511C21.6362 5.36594 21.6652 5.37756 21.6954 5.37756C21.7255 5.37756 21.7545 5.36594 21.7764 5.34511C21.7982 5.32428 21.8111 5.29585 21.8125 5.26572V4.51572H22.1825C22.2126 4.51433 22.2411 4.50138 22.2619 4.47957C22.2827 4.45776 22.2943 4.42876 22.2943 4.3986C22.2943 4.36844 22.2827 4.33944 22.2619 4.31762C22.2411 4.29581 22.2126 4.28286 22.1825 4.28147Z" fill="#4D68A2"/>
<path d="M26.6552 7.72853C26.5877 7.72853 26.554 7.72853 26.0995 7.08353C26.0906 7.07096 26.0843 7.05677 26.081 7.04176C26.0776 7.02676 26.0772 7.01124 26.0799 6.99609C26.0825 6.98095 26.0881 6.96647 26.0963 6.95348C26.1045 6.94049 26.1153 6.92926 26.1278 6.92041C26.1404 6.91156 26.1546 6.90528 26.1696 6.90191C26.1846 6.89855 26.2001 6.89818 26.2153 6.90081C26.2304 6.90345 26.2449 6.90904 26.2579 6.91727C26.2709 6.9255 26.2821 6.93621 26.291 6.94878C26.401 7.10453 26.5277 7.27853 26.616 7.39253C26.6952 7.14653 26.8367 6.65478 26.9615 6.20028C26.9642 6.18416 26.9704 6.1688 26.9795 6.1552C26.9885 6.14159 27.0004 6.13003 27.0142 6.12127C27.028 6.1125 27.0435 6.10673 27.0597 6.10431C27.0759 6.1019 27.0924 6.10289 27.1081 6.10724C27.1239 6.11159 27.1386 6.11919 27.1513 6.12955C27.1639 6.13991 27.1743 6.15281 27.1816 6.16741C27.189 6.18201 27.1933 6.198 27.1941 6.21434C27.1949 6.23068 27.1923 6.24701 27.1865 6.26228C26.7852 7.72853 26.7655 7.72853 26.6552 7.72853Z" fill="white"/>
<path d="M27.6881 6.68288C27.6812 6.66912 27.6771 6.65415 27.6761 6.63881C27.675 6.62348 27.6769 6.60808 27.6818 6.5935C27.6867 6.57892 27.6944 6.56545 27.7045 6.55384C27.7146 6.54224 27.7268 6.53274 27.7406 6.52588C27.7543 6.51901 27.7693 6.51493 27.7847 6.51385C27.8 6.51278 27.8154 6.51474 27.83 6.51961C27.8445 6.52449 27.858 6.53218 27.8696 6.54227C27.8812 6.55235 27.8907 6.56462 27.8976 6.57838C27.9791 6.74163 28.0696 6.91688 28.1386 7.04563C28.2226 6.78838 28.3613 6.33963 28.4858 5.92688C28.4903 5.9121 28.4976 5.89835 28.5074 5.8864C28.5171 5.87446 28.5292 5.86455 28.5427 5.85725C28.5563 5.84995 28.5712 5.8454 28.5866 5.84385C28.6019 5.84231 28.6174 5.8438 28.6322 5.84825C28.647 5.8527 28.6607 5.86001 28.6727 5.86978C28.6846 5.87954 28.6945 5.89156 28.7018 5.90515C28.7091 5.91875 28.7137 5.93364 28.7152 5.949C28.7168 5.96435 28.7153 5.97985 28.7108 5.99463C28.2858 7.40463 28.2788 7.40638 28.1941 7.42738C28.0876 7.45413 28.0726 7.45188 27.6881 6.68288Z" fill="white"/>
<path d="M29.4884 7.12822C29.4147 7.12822 29.3417 7.06021 29.1039 6.44271C29.0941 6.41402 29.0959 6.38266 29.1087 6.35521C29.1216 6.32777 29.1446 6.30637 29.1729 6.2955C29.2012 6.28464 29.2326 6.28515 29.2605 6.29694C29.2884 6.30872 29.3107 6.33086 29.3227 6.35872C29.3779 6.50247 29.4454 6.66447 29.4977 6.77847C29.6059 6.54097 29.7992 6.07297 29.9699 5.64047C29.9755 5.62617 29.984 5.61312 29.9946 5.60207C30.0053 5.59103 30.0181 5.58219 30.0322 5.57607C30.0463 5.56996 30.0615 5.56668 30.0768 5.56642C30.0922 5.56617 30.1075 5.56894 30.1218 5.57459C30.1361 5.58024 30.1491 5.58864 30.1602 5.59933C30.1712 5.61002 30.1801 5.62278 30.1862 5.63688C30.1923 5.65099 30.1956 5.66616 30.1958 5.68153C30.1961 5.6969 30.1933 5.71217 30.1877 5.72647C29.6337 7.13097 29.6022 7.12822 29.4884 7.12822Z" fill="white"/>
<path d="M30.5219 10.6368C30.4943 10.6318 30.4695 10.6171 30.4519 10.5953C30.4343 10.5736 30.425 10.5462 30.4258 10.5182C30.4266 10.4903 30.4375 10.4635 30.4563 10.4428C30.4752 10.4222 30.5008 10.4089 30.5286 10.4055C30.6603 10.388 30.7862 10.3402 30.8964 10.266C31.0066 10.1918 31.0983 10.0932 31.1641 9.97777C30.9693 9.74967 30.8661 9.45736 30.8746 9.15752C30.9579 8.38252 31.8374 8.64052 31.7294 9.29177C31.6943 9.53219 31.6059 9.76171 31.4706 9.96352C31.8104 10.2913 32.3889 10.1015 32.5456 9.96352C32.3836 9.75537 32.2976 9.49803 32.3021 9.23427C32.3579 8.21527 33.4271 8.76327 33.1271 9.50427C33.064 9.67169 32.9755 9.82836 32.8646 9.96877C33.2029 10.3263 33.6813 10.0903 33.8428 9.95627C33.687 9.67082 33.6303 9.34166 33.6819 9.02052C33.8524 8.34377 34.7656 8.75652 34.4739 9.46627C34.3941 9.65914 34.2816 9.83676 34.1414 9.99127C34.2048 10.0905 34.2929 10.1716 34.397 10.2268C34.501 10.2819 34.6176 10.3092 34.7354 10.306C34.7664 10.3048 34.7966 10.3159 34.8194 10.337C34.8422 10.3581 34.8557 10.3874 34.857 10.4184C34.8582 10.4494 34.8471 10.4797 34.826 10.5025C34.8049 10.5253 34.7756 10.5388 34.7446 10.54C34.5934 10.5448 34.4433 10.5118 34.308 10.4441C34.1727 10.3763 34.0564 10.276 33.9696 10.152C33.7976 10.3133 33.5698 10.4017 33.334 10.3987C33.0982 10.3957 32.8727 10.3014 32.7048 10.1358C32.5102 10.2936 32.2677 10.3808 32.0171 10.3832C31.7664 10.3855 31.5224 10.3028 31.3249 10.1485C31.2402 10.2886 31.123 10.4061 30.9832 10.4911C30.8434 10.5761 30.6851 10.6261 30.5219 10.6368ZM31.1081 9.17427C31.1123 9.39325 31.183 9.60579 31.3106 9.78377C31.4182 9.63603 31.4823 9.46108 31.4956 9.27877C31.4958 8.79627 31.1081 8.90452 31.1081 9.17552V9.17427ZM32.5369 9.23102C32.535 9.43086 32.5946 9.62644 32.7076 9.79127C32.7917 9.6851 32.8578 9.56585 32.9034 9.43827C33.0621 8.97702 32.5509 8.71777 32.5369 9.23102ZM33.9019 9.10277C33.8734 9.33528 33.9138 9.57103 34.0181 9.78077C34.1135 9.66027 34.1929 9.52792 34.2544 9.38702C34.4286 9.01952 33.9821 8.78252 33.9009 9.10277H33.9019Z" fill="white"/>
<path d="M35.0649 24.4526H34.6526L34.6406 23.5973C34.6402 23.5663 34.6275 23.5367 34.6052 23.5151C34.583 23.4934 34.553 23.4815 34.522 23.4819C34.491 23.4824 34.4614 23.4951 34.4398 23.5174C34.4181 23.5396 34.4062 23.5695 34.4066 23.6006L34.4184 24.4526H34.0161C33.986 24.454 33.9576 24.4669 33.9367 24.4887C33.9159 24.5105 33.9043 24.5395 33.9043 24.5697C33.9043 24.5999 33.9159 24.6289 33.9367 24.6507C33.9576 24.6725 33.986 24.6854 34.0161 24.6868H34.4216L34.4336 25.5423C34.4354 25.5725 34.4487 25.6008 34.4708 25.6214C34.4929 25.6419 34.5221 25.6532 34.5523 25.6528C34.5825 25.6524 34.6114 25.6403 34.6329 25.6191C34.6544 25.5979 34.667 25.5693 34.6679 25.5391L34.6559 24.6868H35.0649C35.095 24.6854 35.1234 24.6725 35.1443 24.6507C35.1651 24.6289 35.1767 24.5999 35.1767 24.5697C35.1767 24.5395 35.1651 24.5105 35.1443 24.4887C35.1234 24.4669 35.095 24.454 35.0649 24.4526Z" fill="#4D68A2"/>
<path d="M41.3054 29.9717C41.2351 29.9717 41.5304 30.1375 37.1921 27.0637C37.1668 27.0458 37.1496 27.0186 37.1443 26.988C37.139 26.9574 37.1461 26.926 37.164 26.9006C37.1819 26.8753 37.2091 26.8581 37.2397 26.8528C37.2703 26.8475 37.3018 26.8546 37.3271 26.8725C37.3521 26.8907 39.9521 28.725 41.3741 29.76C41.394 29.7746 41.4088 29.7951 41.4163 29.8185C41.4239 29.842 41.4239 29.8673 41.4162 29.8907C41.4086 29.9142 41.3938 29.9346 41.3739 29.9492C41.354 29.9637 41.33 29.9716 41.3054 29.9717Z" fill="white"/>
<path d="M40.4535 31.1807C40.3143 31.1807 40.2715 30.9369 37.6725 29.1012C37.6472 29.0832 37.63 29.056 37.6247 29.0253C37.6195 28.9947 37.6266 28.9633 37.6445 28.9379C37.6625 28.9126 37.6898 28.8954 37.7204 28.8901C37.751 28.8849 37.7824 28.892 37.8078 28.9099C38.5828 29.4579 39.685 30.2599 40.5293 30.9742C40.5475 30.9897 40.5606 31.0105 40.5667 31.0336C40.5727 31.0568 40.5716 31.0813 40.5633 31.1038C40.5551 31.1263 40.5401 31.1457 40.5205 31.1595C40.5009 31.1732 40.4775 31.1806 40.4535 31.1807Z" fill="white"/>
<path d="M37.2382 28.7708C37.1715 28.7708 37.202 28.759 36.5285 28.3103C36.5041 28.2924 36.4875 28.2658 36.4823 28.236C36.477 28.2063 36.4834 28.1756 36.5003 28.1505C36.5171 28.1253 36.5429 28.1076 36.5725 28.1011C36.602 28.0946 36.6329 28.0998 36.6587 28.1155C36.6612 28.1173 36.9162 28.288 37.305 28.5575C37.3255 28.5717 37.341 28.5921 37.3491 28.6157C37.3572 28.6393 37.3576 28.6649 37.3501 28.6887C37.3427 28.7125 37.3278 28.7334 37.3077 28.7481C37.2875 28.7629 37.2632 28.7708 37.2382 28.7708Z" fill="white"/>
<path d="M39.4438 32.2091C39.354 32.2091 39.4065 32.1773 38.4525 31.4448C38.4399 31.4356 38.4292 31.424 38.4211 31.4106C38.4131 31.3972 38.4077 31.3824 38.4055 31.3669C38.4033 31.3515 38.4041 31.3357 38.4081 31.3206C38.4121 31.3054 38.419 31.2913 38.4285 31.2789C38.438 31.2665 38.4499 31.2561 38.4635 31.2484C38.4771 31.2407 38.4921 31.2358 38.5077 31.234C38.5232 31.2321 38.5389 31.2334 38.5539 31.2378C38.5689 31.2421 38.5829 31.2495 38.595 31.2593C38.9094 31.4995 39.2178 31.7474 39.52 32.0028C39.5382 32.0184 39.5512 32.0392 39.5572 32.0624C39.5632 32.0855 39.562 32.11 39.5537 32.1325C39.5454 32.1549 39.5304 32.1743 39.5108 32.188C39.4911 32.2017 39.4677 32.2091 39.4438 32.2091Z" fill="white"/>
<path d="M37.9468 31.0358C37.9218 31.0358 37.8976 31.0278 37.8775 31.013C37.1194 30.4573 36.3452 29.9237 35.556 29.413C35.532 29.3956 35.5155 29.3696 35.5099 29.3404C35.5043 29.3111 35.5101 29.2809 35.526 29.2558C35.5419 29.2307 35.5668 29.2126 35.5956 29.2051C35.6244 29.1977 35.6549 29.2015 35.681 29.2158C35.6922 29.223 36.8163 29.9438 38.0153 30.8253C38.0346 30.84 38.0489 30.8604 38.0561 30.8836C38.0634 30.9068 38.0632 30.9317 38.0557 30.9549C38.0482 30.978 38.0337 30.9982 38.0141 31.0127C37.9946 31.0272 37.9711 31.0353 37.9468 31.0358Z" fill="white"/>
<path d="M41.0859 14.5064C41.0859 14.5847 41.117 14.6598 41.1724 14.7152C41.2278 14.7706 41.3029 14.8017 41.3812 14.8017C41.4595 14.8017 41.5346 14.7706 41.59 14.7152C41.6453 14.6598 41.6764 14.5847 41.6764 14.5064C41.6764 14.4281 41.6453 14.353 41.59 14.2977C41.5346 14.2423 41.4595 14.2112 41.3812 14.2112C41.3029 14.2112 41.2278 14.2423 41.1724 14.2977C41.117 14.353 41.0859 14.4281 41.0859 14.5064Z" fill="white"/>
<path d="M42.8613 15.242C42.8613 15.3203 42.8924 15.3954 42.9478 15.4508C43.0032 15.5062 43.0783 15.5373 43.1566 15.5373C43.2349 15.5373 43.31 15.5062 43.3654 15.4508C43.4207 15.3954 43.4518 15.3203 43.4518 15.242C43.4518 15.1637 43.4207 15.0886 43.3654 15.0333C43.31 14.9779 43.2349 14.9468 43.1566 14.9468C43.0783 14.9468 43.0032 14.9779 42.9478 15.0333C42.8924 15.0886 42.8613 15.1637 42.8613 15.242Z" fill="white"/>
<path d="M44.4727 15.9517C44.4727 16.03 44.5038 16.1051 44.5591 16.1605C44.6145 16.2159 44.6896 16.247 44.7679 16.247C44.8462 16.247 44.9213 16.2159 44.9767 16.1605C45.0321 16.1051 45.0632 16.03 45.0632 15.9517C45.0632 15.8734 45.0321 15.7983 44.9767 15.743C44.9213 15.6876 44.8462 15.6565 44.7679 15.6565C44.6896 15.6565 44.6145 15.6876 44.5591 15.743C44.5038 15.7983 44.4727 15.8734 44.4727 15.9517Z" fill="white"/>
<path d="M26.7099 13.0202C24.8752 14.9982 22.6895 16.6188 20.2637 17.7997C20.3949 17.8854 20.5044 18.0002 20.5839 18.1352C20.5839 18.1352 21.5797 17.3852 22.3967 19.5522C22.3967 19.5522 23.2444 18.6257 23.6889 19.9472L27.0984 20.1624C27.0984 20.1624 31.7234 19.2182 35.5117 13.8337C35.5117 13.8337 29.8317 12.8329 26.7099 13.0202Z" fill="#4D68A2"/>
<path d="M10.9988 20.5265C10.9988 20.5265 11.8298 20.1652 16.1426 20.1312C16.1426 20.1312 15.8298 17.6105 17.6076 18.2442C17.6076 18.2442 18.2613 17.1405 19.0576 18.142C19.0576 18.142 19.8208 17.2835 20.5838 18.1352C20.5838 18.1352 21.5931 17.3992 22.3966 19.5522C22.3966 19.5522 23.2376 18.6325 23.6888 19.9472C23.6888 19.9472 27.3623 20.109 28.5138 20.345C28.5138 20.345 28.0976 27.4097 28.0541 30.0555C27.9213 38.1132 28.7258 41.304 28.6991 41.363C28.5651 41.657 10.9208 41.5405 10.8213 41.5367C10.8216 41.5367 10.7521 29.8202 10.9988 20.5265Z" fill="white"/>
<path d="M14.4076 29.9269C14.4076 29.9554 14.3963 29.9826 14.3762 30.0027C14.3561 30.0228 14.3289 30.0341 14.3005 30.0341C14.2721 30.0341 14.2448 30.0228 14.2247 30.0027C14.2046 29.9826 14.1934 29.9554 14.1934 29.9269C14.1934 29.8985 14.2046 29.8713 14.2247 29.8512C14.2448 29.8311 14.2721 29.8198 14.3005 29.8198C14.3289 29.8198 14.3561 29.8311 14.3762 29.8512C14.3963 29.8713 14.4076 29.8985 14.4076 29.9269Z" fill="#E02728"/>
<path d="M35.3929 13.8553C33.9631 15.9588 32.0658 17.7029 29.8494 18.9508C28.9713 19.455 28.0284 19.837 27.0469 20.0863C27.0392 20.0878 24.1872 19.8765 23.7552 19.86C23.6314 19.4495 23.1364 18.7413 22.4564 19.4208C22.0314 18.3393 21.2852 17.6648 20.6172 18.0435C20.563 17.9705 20.4986 17.9056 20.4262 17.8508C21.1322 17.4903 24.5684 15.6598 26.7204 13.1428C26.7341 13.1252 26.7406 13.1031 26.7384 13.081C26.736 13.059 26.7253 13.0388 26.7085 13.0244C26.6917 13.01 26.67 13.0025 26.6479 13.0035C26.6258 13.0047 26.6049 13.0143 26.5897 13.0305C24.3179 15.686 20.5974 17.5738 20.2487 17.7473C20.0509 17.6608 19.8305 17.6406 19.6203 17.6898C19.4102 17.739 19.2216 17.8548 19.0827 18.02C18.9267 17.8045 18.2189 17.1995 17.5859 18.1555C17.4363 18.0774 17.2696 18.0376 17.1008 18.0399C16.932 18.0421 16.7664 18.0862 16.6189 18.1683C16.0359 18.452 16.0364 19.6233 16.0552 20.033C15.9084 20.0283 11.1434 20.1765 10.8939 20.445C10.7299 20.6215 10.7234 41.4655 10.7227 41.5325C10.7224 41.544 10.7245 41.5554 10.7288 41.5661C10.7331 41.5767 10.7395 41.5864 10.7477 41.5945C10.7557 41.6028 10.7654 41.6093 10.7762 41.6136C10.7869 41.618 10.7984 41.6201 10.8099 41.6198C10.8504 41.6198 27.5437 41.7763 28.7492 41.4448C28.7897 41.4338 28.7854 41.3735 28.7784 41.3343C27.4722 34.0155 28.6087 20.312 28.5999 20.2905C28.5797 20.2373 28.5689 20.222 27.5269 20.136C30.2172 19.3233 33.2769 17.2135 35.5344 13.9535C35.5429 13.9394 35.5472 13.9233 35.5469 13.9069C35.5466 13.8904 35.5416 13.8745 35.5325 13.8608C35.5235 13.8471 35.5107 13.8362 35.4957 13.8295C35.4808 13.8228 35.4642 13.8204 35.4479 13.8228C35.4261 13.8261 35.4064 13.8378 35.3929 13.8553ZM23.6274 20.0478C23.7904 20.7305 23.6372 21.4425 23.1492 21.37C22.9704 21.3433 22.8327 21.0238 22.7604 20.645C22.6897 20.3539 22.5669 20.0779 22.3979 19.8305C22.9247 18.8163 23.5012 19.5215 23.6269 20.0478H23.6274ZM21.0354 18.095C21.8314 18.12 22.3307 19.5595 22.3417 19.57C22.2912 19.647 22.2497 19.7295 22.2179 19.816C22.0324 19.811 21.7414 19.8178 21.5664 19.823C21.5927 19.679 21.6212 19.5293 21.6542 19.3713C21.6588 19.3488 21.6544 19.3255 21.6419 19.3063C21.6293 19.2872 21.6097 19.2738 21.5873 19.2691C21.5649 19.2645 21.5415 19.2689 21.5224 19.2814C21.5032 19.294 21.4898 19.3136 21.4852 19.336C21.3629 19.9248 21.1602 22.0778 20.6944 22.0773C19.9444 22.0773 19.8882 20.031 20.0752 19.2523C20.2497 18.523 20.5997 18.0805 21.0354 18.095ZM19.6539 17.8658C19.8027 17.8207 19.9618 17.8231 20.1091 17.8728C20.2564 17.9225 20.3846 18.0168 20.4757 18.1428C19.6202 18.8678 19.6857 21.0118 20.1104 21.8245C20.1039 21.8415 19.8604 22.459 19.5467 22.342C18.9377 22.1193 18.6619 20.867 18.7119 19.8033C18.7494 19.0073 18.9429 18.0258 19.6539 17.865V17.8658ZM18.1489 17.8438C18.3011 17.7913 18.4669 17.7941 18.6173 17.8516C18.7677 17.9091 18.893 18.0177 18.9714 18.1583C18.3884 18.9973 18.4334 20.837 18.8434 21.7858L18.8409 21.7903C18.8392 21.7963 18.4847 22.7035 18.0394 22.2758C17.6719 21.922 17.3812 20.8645 17.4179 20.07C17.4579 19.2313 17.5119 18.0848 18.1489 17.843V17.8438ZM16.6944 18.3243C16.8184 18.2529 16.9586 18.2145 17.1016 18.2125C17.2447 18.2106 17.3858 18.2453 17.5117 18.3133C17.3315 18.8783 17.2419 19.4682 17.2462 20.0613C17.2311 20.7004 17.3544 21.3352 17.6077 21.9223C17.5664 21.974 17.3612 22.208 17.1252 22.1C16.0492 21.6015 15.9679 18.6768 16.6944 18.3235V18.3243ZM28.6047 41.297C28.2962 41.5088 11.5047 41.4395 10.8962 41.447C10.9062 40.6415 10.8962 21.822 11.1082 20.622C11.2082 20.3423 15.9892 20.2128 16.0672 20.2038C16.1889 21.697 16.7832 22.165 17.0529 22.256C17.1637 22.2971 17.2844 22.303 17.3987 22.2729C17.5129 22.2428 17.6151 22.1781 17.6912 22.0878C17.7604 22.211 18.3662 23.209 18.9464 21.9908C19.0849 22.2345 19.6927 23.0763 20.2214 21.9998C20.2774 22.0755 20.35 22.1373 20.4338 22.1804C20.5175 22.2235 20.61 22.2467 20.7042 22.2483C21.3152 22.2435 21.5362 19.9953 21.5362 19.9953C21.8587 19.9853 22.1979 19.9818 22.3039 19.991C22.4504 20.1949 22.5485 20.4295 22.5907 20.677C22.6309 20.8898 22.7579 21.5553 23.2289 21.5585C23.8924 21.563 23.9112 20.5495 23.7997 20.0335C24.6634 20.0725 27.9122 20.3335 28.4294 20.3933C27.5267 32.3258 28.1254 38.8748 28.6047 41.2963V41.297Z" fill="#313131"/>
<path d="M28.2907 21.1011L13.2308 23.7899L13.4548 25.1341L9.10156 25.8863L12.3825 44.9474L30.8994 39.81L28.2907 21.1011Z" fill="white"/>
<path d="M28.4731 27.9961L27.5449 26.4277C27.5145 26.3766 27.3694 26.3332 27.3154 26.3992L26.2431 27.7115C26.2261 27.7323 26.2181 27.759 26.2208 27.7857C26.2235 27.8125 26.2367 27.837 26.2575 27.854C26.2783 27.871 26.3049 27.879 26.3317 27.8763C26.3584 27.8736 26.3829 27.8604 26.3999 27.8396L27.302 26.7355C27.4071 29.8657 27.4656 34.6529 27.1798 34.9692C27.1798 34.9692 27.0835 34.9709 26.8569 34.574C26.4396 33.8664 25.786 32.5984 25.5955 32.2266C25.5895 32.2148 25.5811 32.2043 25.571 32.1957C25.5609 32.1871 25.5492 32.1805 25.5365 32.1765C25.5239 32.1724 25.5106 32.1708 25.4973 32.1719C25.4841 32.173 25.4712 32.1767 25.4593 32.1827C25.4475 32.1888 25.437 32.1971 25.4284 32.2072C25.4198 32.2174 25.4133 32.2291 25.4092 32.2417C25.4051 32.2544 25.4036 32.2677 25.4046 32.2809C25.4057 32.2942 25.4094 32.3071 25.4154 32.3189C25.6065 32.6919 26.2625 33.9641 26.6836 34.6784C26.787 34.8594 26.975 35.1716 27.1798 35.1716C27.2421 35.1716 27.2992 35.1437 27.3389 35.0957C27.7381 34.6813 27.5673 28.6129 27.5054 26.758L28.2993 28.0993C28.3665 28.213 28.5417 28.1114 28.4735 27.9961H28.4731Z" fill="#FF7449"/>
<path d="M19.4717 38.8337C16.3351 39.528 16.4258 39.5379 16.3351 39.5379C16.3208 38.7329 16.207 36.8653 16.207 36.3531C16.255 36.3371 16.287 36.3371 16.3191 36.3371C17.7276 36.1131 19.3438 37.2334 19.4719 38.8339V38.8337H19.4717Z" fill="#FCCAC2"/>
<path d="M16.3344 39.5378H16.3664L16.3983 39.6659C17.9262 41.3599 18.3309 41.6784 18.3669 41.7144C16.812 43.3064 13.8296 43.1822 13.5977 40.13C13.7944 40.13 13.6256 40.1281 16.3344 39.5378Z" fill="#E02728"/>
<path d="M16.3356 39.5387C15.7613 39.6713 13.8597 40.1149 13.5829 40.1149C13.5189 39.3627 13.6403 38.6073 13.9669 37.9383C14.2806 37.2947 15.2473 36.5458 16.1915 36.3538C16.1915 36.6573 16.3188 38.6018 16.3356 39.5385V39.5387Z" fill="#501200"/>
<path d="M19.2962 28.4464C19.1839 28.1426 18.0638 28.4464 18.0478 28.6066C17.9912 28.9464 18.7798 33.8351 18.784 33.8559L20.0804 33.5679C19.998 33.197 19.4884 28.967 19.2962 28.4466V28.4464Z" fill="#FF7449"/>
<path d="M16.5737 27.8556C16.4138 27.7595 15.2773 27.9837 15.2773 28.1116C15.2773 28.3036 16.3017 34.2411 16.3976 34.2893L16.4138 34.3692L17.7099 34.081L17.6939 34.0171C17.5179 33.1206 16.6538 27.9195 16.5737 27.8552V27.8556Z" fill="#FF7449"/>
<path d="M14.238 29.7446C14.0935 29.714 13.1016 29.9846 13.1016 30.0805C13.1016 30.1574 13.8693 34.3845 14.0458 34.9139L15.3101 34.6257L15.2942 34.5458C15.1661 33.7777 14.3178 29.7614 14.2378 29.7446H14.238Z" fill="#FF7449"/>
<path d="M20.1965 26.8944C20.1575 26.6596 20.1704 26.1464 19.9179 26.0202C19.892 26.007 19.8482 25.9854 19.5265 26.0926C19.1926 26.2039 19.1584 26.2725 19.1418 26.3055C19.0785 26.432 19.26 26.5184 19.3166 26.4057C19.3618 26.3587 19.6228 26.2693 19.7726 26.23C18.985 27.2813 18.6934 27.5737 18.6055 27.596C18.4754 27.6022 17.7439 27.1997 17.2113 26.9057C16.1499 26.3197 15.7962 26.1438 15.6492 26.1904C15.4345 26.2575 13.0977 28.7937 13.0977 28.9597C13.0977 29.0677 13.2458 29.1001 13.2909 29.0018C13.4504 28.7591 15.492 26.4759 15.7023 26.385C15.8401 26.3739 16.5746 26.7851 17.1137 27.0828C18.0808 27.6168 18.4898 27.8303 18.6456 27.7941C18.9212 27.7352 19.6914 26.6764 19.9193 26.3721C20.0201 26.7566 19.9306 27.0121 20.0965 27.0121C20.1112 27.0122 20.1258 27.009 20.1391 27.0028C20.1525 26.9967 20.1643 26.9877 20.1738 26.9764C20.1834 26.9652 20.1903 26.9521 20.1942 26.9379C20.1981 26.9237 20.1989 26.9089 20.1965 26.8944Z" fill="#E02728"/>
<path d="M12.2824 44.9647L9.00148 25.9038C8.99921 25.8907 8.99955 25.8773 9.00248 25.8643C9.0054 25.8513 9.01085 25.8391 9.01852 25.8282C9.02619 25.8173 9.03592 25.8081 9.04716 25.801C9.05841 25.7939 9.07094 25.7891 9.08404 25.7868L13.3381 25.0516L13.1305 23.8065C13.1261 23.7803 13.1323 23.7534 13.1476 23.7316C13.163 23.7099 13.1862 23.6951 13.2124 23.6904L28.2724 21.0016C28.2858 20.9992 28.2995 20.9995 28.3128 21.0026C28.3261 21.0056 28.3386 21.0113 28.3496 21.0193C28.3606 21.0273 28.3699 21.0374 28.3769 21.0491C28.3839 21.0607 28.3885 21.0737 28.3904 21.0872L30.999 39.7961C31.0024 39.8204 30.9969 39.8451 30.9835 39.8656C30.97 39.8861 30.9496 39.9011 30.926 39.9076L12.4091 45.045C12.3954 45.0488 12.3812 45.0496 12.3672 45.0476C12.3532 45.0455 12.3398 45.0405 12.3279 45.0329C12.316 45.0254 12.3057 45.0154 12.2979 45.0036C12.2901 44.9919 12.2848 44.9786 12.2824 44.9647ZM9.21801 25.9689L12.4627 44.8202L26.6393 40.8891L24.0758 23.4427L9.21801 25.9689ZM24.2612 23.3109L26.8372 40.834L30.7865 39.7362L28.2046 21.2193L13.3464 23.8721L13.5374 25.0174L24.1442 23.2259C24.1575 23.2237 24.1711 23.2241 24.1842 23.2272C24.1973 23.2303 24.2097 23.2359 24.2206 23.2438C24.2315 23.2518 24.2407 23.2618 24.2476 23.2733C24.2546 23.2848 24.2592 23.2976 24.2612 23.3109Z" fill="#501200"/>
<path d="M12.7301 35.2045L11.2097 27.6503C11.2066 27.6371 11.2062 27.6234 11.2085 27.61C11.2108 27.5966 11.2157 27.5838 11.2231 27.5724C11.2304 27.561 11.24 27.5511 11.2512 27.5435C11.2624 27.5358 11.2751 27.5305 11.2884 27.5278C11.3017 27.5252 11.3154 27.5252 11.3287 27.528C11.342 27.5307 11.3546 27.5361 11.3658 27.5439C11.3769 27.5516 11.3864 27.5615 11.3937 27.5729C11.401 27.5844 11.4058 27.5972 11.4081 27.6106L12.9082 35.0632L20.6973 33.3253C20.7235 33.3194 20.7509 33.3242 20.7736 33.3385C20.7963 33.3529 20.8124 33.3756 20.8183 33.4018C20.8242 33.428 20.8194 33.4555 20.8051 33.4782C20.7908 33.5009 20.768 33.5169 20.7418 33.5228L12.8515 35.2834C12.8383 35.2864 12.8247 35.2866 12.8115 35.2843C12.7982 35.2819 12.7855 35.2769 12.7742 35.2695C12.7629 35.2621 12.7532 35.2526 12.7457 35.2414C12.7381 35.2303 12.7329 35.2177 12.7303 35.2045H12.7301Z" fill="#501200"/>
<path d="M19.4917 38.828C19.4859 38.8019 19.4699 38.7791 19.4473 38.7646C19.4247 38.7502 19.3972 38.7454 19.3711 38.7511C19.0649 38.8183 17.0214 39.2888 16.4346 39.4195C16.4137 38.549 16.3243 37.1782 16.3089 36.3833C16.3087 36.37 16.3058 36.3569 16.3005 36.3447C16.2952 36.3325 16.2876 36.3215 16.278 36.3123C16.2684 36.3031 16.2571 36.2958 16.2448 36.291C16.2324 36.2861 16.2192 36.2837 16.2059 36.284C16.1926 36.2842 16.1795 36.287 16.1673 36.2924C16.1551 36.2977 16.1441 36.3053 16.1349 36.3149C16.1257 36.3244 16.1184 36.3357 16.1136 36.3481C16.1087 36.3605 16.1063 36.3737 16.1066 36.387C16.1213 37.1782 16.2128 38.5729 16.2326 39.4568C15.0385 39.7178 13.9109 39.9829 13.6513 40.0135C13.5258 40.0283 13.5366 40.2152 13.663 40.2152C13.799 40.2152 15.1716 39.8961 16.2579 39.6585C16.4985 39.9289 17.8388 41.4023 18.2876 41.7763C18.3084 41.7921 18.3345 41.7994 18.3605 41.7965C18.3865 41.7936 18.4103 41.7807 18.4271 41.7606C18.4438 41.7406 18.4522 41.7148 18.4503 41.6887C18.4485 41.6626 18.4367 41.6382 18.4173 41.6206C17.9735 41.2509 16.6448 39.7858 16.49 39.6144C17.0736 39.4843 19.1088 39.0154 19.4146 38.9485C19.4275 38.9456 19.4398 38.9402 19.4507 38.9326C19.4616 38.925 19.4709 38.9153 19.4781 38.9041C19.4853 38.8929 19.4901 38.8804 19.4925 38.8673C19.4948 38.8542 19.4945 38.8408 19.4917 38.8278V38.8282V38.828Z" fill="#501200"/>
<path d="M19.9352 36.4235C19.9083 36.4235 19.8826 36.4128 19.8636 36.3938C19.8446 36.3749 19.834 36.3491 19.834 36.3223C19.834 36.1887 19.9983 36.1582 24.4747 35.183C24.501 35.1773 24.5284 35.1822 24.551 35.1967C24.5735 35.2112 24.5894 35.2341 24.5952 35.2603C24.6009 35.2865 24.5959 35.3139 24.5814 35.3365C24.5669 35.3591 24.5441 35.375 24.5179 35.3807C19.9299 36.38 19.9552 36.4233 19.935 36.4233L19.9352 36.4235Z" fill="#FF7449"/>
<path d="M20.1437 37.624C20.0194 37.624 20.0055 37.4419 20.1281 37.4228C20.1611 37.416 22.4302 36.8738 22.7794 36.7996C22.8057 36.794 22.8331 36.7991 22.8556 36.8137C22.8782 36.8283 22.894 36.8513 22.8995 36.8776C22.9051 36.9039 22.9 36.9313 22.8854 36.9538C22.8708 36.9763 22.8478 36.9921 22.8215 36.9977C22.2185 37.1256 20.185 37.6242 20.1439 37.6242V37.624H20.1437Z" fill="#FF7449"/>
<path d="M23.7451 36.7754C23.6208 36.7754 23.6071 36.593 23.7299 36.5742C23.9311 36.5433 24.3724 36.4332 24.3769 36.432C24.4029 36.4255 24.4304 36.4296 24.4534 36.4434C24.4764 36.4572 24.493 36.4796 24.4995 36.5056C24.506 36.5317 24.5019 36.5592 24.4881 36.5822C24.4743 36.6052 24.4519 36.6218 24.4258 36.6283C24.3269 36.6531 23.8157 36.7754 23.7449 36.7754H23.7451Z" fill="#FF7449"/>
<path d="M20.4573 38.608C21.4503 38.3838 23.741 37.9989 24.7095 37.7291C24.7224 37.7251 24.736 37.7238 24.7495 37.7251C24.7629 37.7265 24.776 37.7305 24.7879 37.737C24.7997 37.7435 24.8102 37.7523 24.8186 37.7629C24.827 37.7735 24.8332 37.7856 24.8369 37.7987C24.8405 37.8117 24.8415 37.8253 24.8397 37.8387C24.838 37.8522 24.8336 37.8651 24.8268 37.8768C24.82 37.8885 24.8109 37.8987 24.8 37.9068C24.7892 37.9149 24.7769 37.9207 24.7637 37.924C23.7817 38.1978 21.4899 38.5823 20.502 38.8055C20.369 38.8352 20.3284 38.6373 20.4575 38.608H20.4573Z" fill="#FF7449"/>
<path d="M20.7168 40.0696C20.6905 40.0645 20.6672 40.0492 20.6522 40.027C20.6371 40.0048 20.6315 39.9775 20.6366 39.9511C20.6417 39.9248 20.657 39.9015 20.6792 39.8865C20.7014 39.8714 20.7287 39.8658 20.7551 39.8709C20.9166 39.8875 22.4861 39.4941 23.1375 39.3903C23.1508 39.3877 23.1645 39.3878 23.1778 39.3906C23.1911 39.3935 23.2037 39.3989 23.2148 39.4067C23.2259 39.4145 23.2354 39.4244 23.2426 39.4359C23.2498 39.4475 23.2546 39.4603 23.2567 39.4737C23.2589 39.4871 23.2583 39.5008 23.255 39.514C23.2517 39.5272 23.2458 39.5396 23.2377 39.5504C23.2295 39.5613 23.2192 39.5704 23.2075 39.5772C23.1957 39.584 23.1827 39.5883 23.1693 39.59C22.4152 39.71 20.9117 40.1095 20.7168 40.0694V40.0696Z" fill="#FF7449"/>
<path d="M23.8792 39.2847C23.899 39.2009 23.9797 39.1973 24.0678 39.1971C24.3213 39.1353 24.6716 39.0589 24.93 39.022C24.9566 39.0182 24.9836 39.0251 25.0051 39.0412C25.0266 39.0573 25.0408 39.0813 25.0446 39.1078C25.0484 39.1344 25.0415 39.1614 25.0254 39.1829C25.0093 39.2043 24.9853 39.2185 24.9588 39.2224C24.6882 39.2608 24.2533 39.3592 24.1048 39.3964C24.089 39.4004 24.072 39.3988 24.0386 39.3996C23.9553 39.4522 23.8605 39.3652 23.8794 39.2847H23.8792Z" fill="#FF7449"/>
</svg>
