<svg width="70" height="70" viewBox="0 0 70 70" fill="none" xmlns="http://www.w3.org/2000/svg">
<rect width="70" height="70" rx="10" fill="#E7F8FF"/>
<g clip-path="url(#clip0_648_11903)">
<path d="M20.767 25.2812C20.767 25.2812 20.3966 27.398 22.044 27.6726C21.8086 27.1068 21.7356 26.4865 21.8333 25.8815C21.4218 25.8034 21.0472 25.5925 20.767 25.2812Z" fill="#7BD2FF"/>
<path d="M22.2553 24.0835C22.2553 24.0835 21.0963 23.7642 20.825 24.1442C20.5536 24.5241 20.4578 25.5139 21.8881 25.8459C21.8881 25.8459 21.7668 27.4902 22.2553 27.8573C22.2553 27.8573 21.7987 29.1951 21.3422 29.6229C21.3422 29.6229 22.8619 29.7442 23.7144 30.2295C23.8108 29.7768 23.9858 29.3446 24.2316 28.9524C24.7991 29.0859 25.3937 29.0436 25.9365 28.8311C26.6677 28.4639 27.2392 27.7935 27.4307 26.3663C27.5744 25.268 27.6127 23.7483 27.8554 23.1736C27.8554 23.1736 26.8816 21.8358 24.752 21.8678C22.7119 21.8901 22.2553 24.0835 22.2553 24.0835Z" fill="white"/>
<path d="M33.532 35.6209V29.9601C33.532 29.9601 33.1073 29.8644 32.97 30.5061C32.8328 31.1478 32.8168 33.0603 32.3922 33.1241C32.423 33.6004 32.423 34.0782 32.3922 34.5545C32.3828 34.6481 32.3624 34.7402 32.3315 34.8291C31.9912 34.9182 31.6442 34.9791 31.2939 35.011C31.0831 35.011 30.9746 36.17 31.1119 36.17C31.2492 36.17 32.9222 36.17 33.532 35.6209Z" fill="white"/>
<path d="M14.4619 38.1758C14.4619 38.1758 11.9077 45.9373 5.72656 51.2341C5.85146 51.653 6.07361 52.0366 6.37489 52.3534C6.67616 52.6702 7.04805 52.9113 7.46022 53.0571C7.46022 53.0571 13.2071 51.4608 18.3155 42.2018C18.3155 42.2018 21.3007 46.1289 21.2081 46.7387C20.9719 48.2616 18.5901 51.8471 17.2811 53.0699C17.2811 53.0699 18.0409 53.983 19.6245 53.5871C19.6245 53.5871 24.8319 50.3944 25.3459 47.042C25.5918 45.4456 22.4725 40.6821 22.4725 40.6821C22.4725 40.6821 17.0799 39.9669 14.4619 38.1758Z" fill="white"/>
<path d="M24.2948 26.3666C24.2245 26.7051 23.4838 26.6444 23.5636 26.2134C23.5892 26.0601 23.7456 25.9708 23.9883 25.9995C24.0708 26.022 24.1444 26.0693 24.1992 26.1349C24.254 26.2006 24.2873 26.2815 24.2948 26.3666Z" fill="#FDAF31"/>
<path d="M26.7275 26.5782C26.7275 26.8975 27.3661 26.9869 27.4587 26.5782C27.4587 26.1983 26.7275 26.2398 26.7275 26.5782Z" fill="#FDAF31"/>
<path d="M25.9675 26.2135C26.1123 26.1168 26.2361 25.992 26.3315 25.8464C26.2076 25.7982 26.0951 25.7248 26.0011 25.6309C25.9071 25.5369 25.8337 25.4243 25.7855 25.3004C25.6796 24.9001 25.7334 24.4742 25.9356 24.1127C25.9529 24.0822 25.9811 24.0594 26.0147 24.0491C26.0482 24.0387 26.0844 24.0416 26.1159 24.0571C26.1473 24.0727 26.1717 24.0997 26.1839 24.1326C26.1961 24.1655 26.1952 24.2018 26.1814 24.2341C26.0172 24.5252 25.9737 24.869 26.0601 25.1919C26.0986 25.2932 26.1598 25.3845 26.2389 25.4586C26.318 25.5328 26.413 25.5879 26.5167 25.6197C26.5395 25.6285 26.5601 25.6421 26.5773 25.6596C26.5944 25.677 26.6077 25.6979 26.6161 25.7208C26.6246 25.7438 26.6281 25.7683 26.6263 25.7927C26.6246 25.8171 26.6177 25.8408 26.6061 25.8623C26.5152 26.0976 26.343 26.2924 26.1208 26.4115C25.9196 26.5584 25.76 26.3189 25.9675 26.2135Z" fill="#414141"/>
<path d="M26.5782 23.8995C26.8301 23.7926 27.0954 23.7206 27.3668 23.6855C27.4849 23.6855 27.6094 23.8516 27.3987 23.9569C27.1596 23.9929 26.9251 24.055 26.6995 24.1421C26.5207 24.1836 26.3068 24.0367 26.5782 23.8995Z" fill="#414141"/>
<path d="M24.9619 24.0034C24.7668 23.8645 24.5514 23.7568 24.3233 23.6841C24.2945 23.6728 24.2707 23.6514 24.2565 23.6239C24.2422 23.5964 24.2385 23.5647 24.2459 23.5346C24.2533 23.5045 24.2714 23.4782 24.2968 23.4605C24.3222 23.4428 24.3532 23.4349 24.384 23.4383C24.6418 23.5089 24.8881 23.6164 25.1151 23.7576C25.2396 23.8374 25.1183 24.1439 24.9619 24.0034Z" fill="#414141"/>
<path d="M27.0628 25.6647C26.9798 25.6647 27.0213 25.6966 26.5169 25.2081C26.4974 25.1855 26.4827 25.1591 26.4736 25.1306C26.4644 25.1022 26.4611 25.0722 26.4638 25.0424C26.4665 25.0126 26.4751 24.9837 26.4892 24.9573C26.5032 24.931 26.5224 24.9077 26.5456 24.8888L27.0948 24.5249C27.1554 24.493 27.2448 24.493 27.2768 24.5568C27.3087 24.6207 27.3055 24.7069 27.2448 24.7388L26.7595 25.0581L27.1554 25.454C27.1694 25.4647 27.1806 25.4785 27.1884 25.4943C27.1961 25.51 27.2002 25.5274 27.2002 25.545C27.2002 25.5625 27.1961 25.5799 27.1884 25.5957C27.1806 25.6114 27.1694 25.6252 27.1554 25.636C27.1429 25.647 27.1282 25.6553 27.1122 25.6603C27.0963 25.6652 27.0794 25.6667 27.0628 25.6647Z" fill="#414141"/>
<path d="M23.7741 25.2988L24.4637 24.871L23.7613 24.3538C23.737 24.3322 23.7216 24.3023 23.7181 24.27C23.7146 24.2377 23.7233 24.2052 23.7424 24.1789C23.7615 24.1526 23.7897 24.1344 23.8215 24.1278C23.8534 24.1211 23.8865 24.1266 23.9146 24.143L24.6457 24.689C24.7479 24.7401 24.7957 25.0083 24.6138 25.0562L23.8858 25.5127C23.7709 25.5989 23.5857 25.3946 23.7741 25.2988Z" fill="#414141"/>
<path d="M25.0546 27.0967C25.0086 27.0905 24.966 27.0691 24.9333 27.0361C24.9014 26.9754 24.9014 26.886 24.962 26.8541C25.0861 26.7716 25.2258 26.7154 25.3724 26.6891C25.519 26.6627 25.6695 26.6667 25.8145 26.7008C25.9294 26.7583 25.9741 26.9754 25.7251 26.9754C25.6205 26.9544 25.5127 26.9542 25.4081 26.9751C25.3034 26.9959 25.2039 27.0372 25.1153 27.0967H25.0546Z" fill="#414141"/>
<path d="M21.7058 25.0578C21.5728 24.9511 21.4163 24.8778 21.2492 24.8439C21.2128 24.8396 21.1796 24.8211 21.1568 24.7924C21.134 24.7636 21.1236 24.727 21.1279 24.6906C21.1321 24.6542 21.1506 24.621 21.1794 24.5982C21.2081 24.5755 21.2447 24.5651 21.2811 24.5693C21.4992 24.6027 21.7068 24.6857 21.8878 24.8119C21.9484 24.8439 21.9484 24.9333 21.9197 24.9971C21.9122 25.0175 21.9 25.0358 21.8841 25.0506C21.8682 25.0653 21.8491 25.0761 21.8282 25.082C21.8073 25.0879 21.7853 25.0888 21.7641 25.0846C21.7428 25.0804 21.7228 25.0712 21.7058 25.0578Z" fill="#414141"/>
<path d="M33.5475 29.8347C33.4882 29.8101 33.4239 29.8002 33.36 29.8057C33.2961 29.8113 33.2344 29.8322 33.1803 29.8666C32.7557 30.1412 32.6407 31.3576 32.6024 32.0568C32.6019 32.3387 32.5489 32.6181 32.446 32.8806V32.8486C32.4351 32.7908 32.4048 32.7383 32.3601 32.7C32.3154 32.6617 32.259 32.6398 32.2001 32.6379C30.7653 32.6853 29.3291 32.603 27.9091 32.3921C25.9328 32.1143 25.1697 30.933 23.8926 30.1571C23.9637 29.782 24.0976 29.4215 24.2885 29.0908C24.7374 29.2092 25.2093 29.2092 25.6582 29.0908C26.7757 28.7715 27.4238 27.8743 27.6345 26.3833C27.874 24.7231 27.9123 23.695 28.0624 23.0948C28.0673 23.0518 28.0559 23.0085 28.0304 22.9735C27.3123 22.2199 26.3309 21.7727 25.2911 21.7251C23.6181 21.607 22.3697 22.5169 22.1877 23.9153C21.7644 23.7643 21.302 23.7643 20.8787 23.9153C20.7741 23.979 20.6839 24.0639 20.614 24.1645C20.5441 24.2651 20.4961 24.3792 20.4729 24.4994C20.4498 24.6197 20.452 24.7435 20.4796 24.8629C20.5071 24.9822 20.5593 25.0945 20.6329 25.1924C20.9225 25.5658 21.3356 25.8239 21.7982 25.9204C21.6854 26.5767 21.7979 27.2518 22.1175 27.836C22.0249 28.1106 21.6609 29.177 21.1597 29.5122C19.4228 29.8315 18.4267 31.7088 17.6892 32.6475C16.8431 33.717 14.308 38.0336 14.2793 38.0751C14.2474 38.1645 11.2654 46.4433 5.57272 51.0728C5.57272 51.0728 4.50634 51.7113 4.69152 52.3499C4.8767 52.9884 5.9335 54.3102 6.66783 54.7253C7.33191 55.0988 8.46534 54.9998 8.46534 54.6327C8.46534 54.2655 7.39896 53.7195 7.3383 53.5056C7.31717 53.4099 7.31717 53.3108 7.3383 53.2151C8.70702 52.6788 9.99604 51.9581 11.1696 51.0728C14.2034 48.8279 16.6602 45.894 18.3373 42.513C19.5569 44.1573 21.0926 46.3826 21.0032 46.7785C20.7286 47.9662 19.2376 50.3097 17.0761 52.9277V52.9597C16.7614 53.3406 16.5142 53.7725 16.345 54.2368C16.2173 54.7827 16.7122 54.8147 17.1975 54.8753C17.6828 54.936 20.9713 54.9998 21.0639 54.9998C21.3831 54.9998 21.795 54.7859 21.2171 54.39C20.7591 54.0915 20.2685 53.8463 19.7549 53.6589C20.6886 53.002 21.583 52.2909 22.4336 51.5293C24.3492 49.7989 25.3485 48.2695 25.4156 47.0244C25.4986 45.5014 23.468 41.9383 22.6475 40.8145C22.6475 40.8145 23.6819 37.526 23.9565 36.7342C23.9672 36.703 23.9841 36.6744 24.006 36.6498C24.0279 36.6252 24.0544 36.6052 24.0841 36.5909C24.1138 36.5767 24.1461 36.5684 24.179 36.5667C24.2118 36.565 24.2448 36.5698 24.2758 36.5809C27.3025 37.7495 30.3005 36.8268 31.0316 36.5809C31.0797 36.5587 31.1215 36.525 31.1532 36.4826C31.185 36.4402 31.2057 36.3906 31.2136 36.3383V36.3096C31.8099 36.3 32.4029 36.2174 32.9792 36.0637C33.1617 36.0067 33.3216 35.8937 33.4362 35.7407C33.5508 35.5876 33.6143 35.4024 33.6177 35.2112V29.9879C33.6204 29.9585 33.6154 29.9288 33.603 29.9019C33.5907 29.875 33.5716 29.8519 33.5475 29.8347ZM25.208 47.034C25.0388 49.7414 19.94 53.2758 19.5441 53.5503C18.8055 53.6664 18.0508 53.49 17.4401 53.0586C19.6016 50.4087 21.0575 48.1259 21.3384 46.9094C21.4853 46.2709 19.0844 43.0143 18.465 42.2225L18.615 41.9032C19.0795 41.9748 19.5522 41.9748 20.0167 41.9032C20.0334 41.9005 20.0493 41.8941 20.0633 41.8845C20.0773 41.8749 20.089 41.8623 20.0975 41.8477C20.1061 41.833 20.1112 41.8167 20.1127 41.7998C20.1142 41.7829 20.1119 41.7659 20.1061 41.75C20.1038 41.7334 20.0978 41.7175 20.0885 41.7035C20.0792 41.6895 20.067 41.6778 20.0525 41.6692C20.0381 41.6606 20.022 41.6553 20.0052 41.6539C19.9885 41.6524 19.9717 41.6547 19.956 41.6606C19.4915 41.7322 19.0188 41.7322 18.5544 41.6606C18.5231 41.6598 18.4922 41.6678 18.4651 41.6836C18.438 41.6994 18.4159 41.7223 18.4011 41.75C16.7084 45.2849 14.2096 48.3732 11.1057 50.7663C9.94743 51.6689 8.66722 52.403 7.30318 52.9469C6.96503 52.8093 6.66083 52.5998 6.41165 52.333C6.16247 52.0662 5.97426 51.7484 5.86006 51.4016C11.0674 47.1393 13.9888 39.8631 14.506 38.554C17.5806 41.2934 21.6003 41.204 22.4878 41.1434C22.6986 41.1306 25.307 45.4248 25.208 47.034ZM22.3346 29.5633C22.0954 29.513 21.8509 29.4927 21.6066 29.5026C21.9386 29.0007 22.2037 28.4576 22.3952 27.8871C22.3992 27.8446 22.3891 27.802 22.3665 27.7658C21.8493 27.0666 22.0919 25.9108 22.0919 25.8789C22.094 25.8623 22.0925 25.8455 22.0875 25.8295C22.0826 25.8135 22.0743 25.7988 22.0632 25.7863C22.0313 25.7576 21.9993 25.7256 21.9706 25.7256C21.5412 25.6498 21.153 25.4234 20.8755 25.0871C20.8155 24.9934 20.7763 24.8879 20.7603 24.7778C20.7443 24.6677 20.752 24.5554 20.7829 24.4485C20.8181 24.3338 20.8942 24.2361 20.9968 24.174C21.4215 23.96 22.2452 24.2346 22.2452 24.2346C22.2652 24.2423 22.2867 24.245 22.308 24.2427C22.3293 24.2403 22.3497 24.2328 22.3675 24.221C22.3853 24.2091 22.4 24.1931 22.4104 24.1744C22.4208 24.1556 22.4265 24.1347 22.4272 24.1133C22.5198 22.7436 23.6755 21.8784 25.2591 21.9837C26.1995 22.0176 27.0915 22.4093 27.7527 23.0788C27.593 23.7174 27.5515 24.8221 27.328 26.3354C27.1205 27.7371 26.5681 28.532 25.5305 28.8322C24.5727 29.1099 23.5542 28.5129 23.5542 28.5129C23.5382 28.5033 23.5203 28.4972 23.5017 28.4953C23.4831 28.4933 23.4644 28.4955 23.4467 28.5016C23.4291 28.5077 23.4129 28.5175 23.3995 28.5305C23.3861 28.5435 23.3757 28.5593 23.369 28.5767C23.3403 28.6661 23.3403 28.7268 23.4329 28.7587C23.6176 28.8574 23.811 28.9386 24.0108 29.0014C23.8618 29.3263 23.739 29.6626 23.6436 30.0071C23.2407 29.7821 22.8005 29.6318 22.3442 29.5633H22.3346ZM33.3655 35.224C33.3707 35.3566 33.3315 35.4871 33.2539 35.5947C33.1764 35.7023 33.0651 35.7809 32.9377 35.8179C32.3955 35.9831 31.8314 36.065 31.2647 36.0605C31.2934 35.8179 31.2934 35.604 31.3253 35.422C31.3244 35.3936 31.3294 35.3654 31.3398 35.3391C31.3502 35.3127 31.366 35.2888 31.386 35.2687C31.4061 35.2487 31.43 35.233 31.4563 35.2225C31.4827 35.2121 31.5109 35.2072 31.5392 35.2081C31.7992 35.1645 32.0539 35.0939 32.2991 34.9973C32.3821 34.9686 32.4811 34.9079 32.4811 34.6781C32.9185 34.6781 33.1196 34.7802 33.3655 34.6174V35.224ZM33.2729 34.3396C33.2465 34.3702 33.2136 34.3944 33.1765 34.4104C33.1395 34.4264 33.0993 34.4339 33.059 34.4322C32.8659 34.4377 32.6727 34.4281 32.4811 34.4035C32.513 33.9757 32.4811 33.551 32.4811 33.2158C32.513 33.2158 32.513 33.2158 32.5418 33.1839C32.5705 33.1519 32.861 32.9412 32.861 32.0568C32.8962 30.9936 33.0749 30.2306 33.3176 30.0805C33.3261 30.0805 33.3342 30.0772 33.3402 30.0712C33.3462 30.0652 33.3495 30.0571 33.3495 30.0486V33.6723C33.3655 34.1864 33.4038 34.2215 33.2729 34.3396Z" fill="#414141"/>
<path d="M28.2187 35.8177C26.1498 35.8177 23.3179 35.3931 21.067 33.4423C21.055 33.4304 21.0456 33.4162 21.0391 33.4006C21.0326 33.385 21.0293 33.3682 21.0293 33.3513C21.0293 33.3344 21.0326 33.3177 21.0391 33.3021C21.0456 33.2865 21.055 33.2723 21.067 33.2603C21.0789 33.2484 21.0931 33.2389 21.1087 33.2325C21.1243 33.226 21.1411 33.2227 21.158 33.2227C21.1749 33.2227 21.1916 33.226 21.2072 33.2325C21.2228 33.2389 21.237 33.2484 21.249 33.2603C25.6645 37.0342 32.331 35.0259 32.3916 34.9972C32.4073 34.9913 32.4242 34.989 32.4409 34.9905C32.4576 34.992 32.4738 34.9972 32.4882 35.0058C32.5026 35.0144 32.5149 35.0261 32.5241 35.0401C32.5334 35.0541 32.5394 35.07 32.5417 35.0866C32.5476 35.1025 32.5498 35.1195 32.5484 35.1364C32.5469 35.1533 32.5417 35.1697 32.5331 35.1843C32.5246 35.199 32.5129 35.2115 32.4989 35.2211C32.485 35.2307 32.469 35.2371 32.4523 35.2398C31.0687 35.598 29.6477 35.792 28.2187 35.8177Z" fill="white"/>
<path d="M20.7639 24.0215C20.7639 24.0215 21.5908 23.6224 21.8877 24.4493C22.0154 24.8133 22.7976 24.7686 22.8934 24.5419C22.9892 24.3152 23.0211 23.5171 23.4426 23.2648C23.864 23.0126 25.5083 23.0286 26.6066 23.2648C28.2189 23.6128 29.3715 22.8434 28.6467 21.3779C27.922 19.9125 25.7413 19.7305 24.9017 19.7305C24.3238 19.7305 22.986 20.0497 22.5295 20.6883C22.2743 20.6627 22.0167 20.6931 21.7746 20.7775C21.5325 20.8619 21.3118 20.9981 21.1278 21.1768C20.5627 21.8185 20.368 22.9871 20.7639 24.0215Z" fill="#7BD2FF"/>
<path d="M63.8047 20.6142C63.8206 18.0249 62.2083 17.5236 60.7301 17.4789C59.2518 17.4342 47.2152 17.447 46.3021 17.447C44.3226 17.447 43.5308 18.7241 43.5308 20.7355V23.6569C42.1611 23.6569 36.743 23.6888 36.4685 23.7175C36.1939 23.7463 33.9143 25.7513 33.5758 26.4282C33.5758 27.0284 33.5184 31.8143 33.5471 37.0823C33.579 42.8963 33.5758 48.9529 33.6684 49.0423C33.8217 49.1956 41.4012 49.0742 43.5308 49.0423C43.5915 50.2619 44.0193 51.8328 46.5128 51.8743C49.498 51.9222 58.5079 51.8743 59.8169 51.8743C61.126 51.8743 63.6961 52.2382 63.8047 49.0008C63.91 45.8464 63.7887 23.1397 63.8047 20.6142Z" fill="white"/>
<path d="M51.2831 19.09C51.2146 19.0938 51.1473 19.0702 51.0961 19.0244C51.0449 18.9786 51.014 18.9144 51.0102 18.8458C51.0064 18.7772 51.0299 18.7099 51.0757 18.6587C51.1216 18.6075 51.1858 18.5766 51.2544 18.5728C51.2831 18.5728 53.1094 18.5409 56.1233 18.5728C56.1617 18.5686 56.2004 18.5726 56.2371 18.5844C56.2738 18.5963 56.3076 18.6157 56.3363 18.6414C56.365 18.6672 56.3879 18.6987 56.4036 18.7339C56.4194 18.7691 56.4275 18.8072 56.4275 18.8458C56.4275 18.8843 56.4194 18.9224 56.4036 18.9576C56.3879 18.9928 56.365 19.0244 56.3363 19.0501C56.3076 19.0759 56.2738 19.0953 56.2371 19.1071C56.2004 19.1189 56.1617 19.1229 56.1233 19.1187C53.6713 19.0836 52.5123 19.09 51.2831 19.09Z" fill="#414141"/>
<path d="M59.8458 20.0331C58.9359 19.9597 48.7351 19.9948 46.8801 20.0331C44.6867 20.0842 44.9645 21.9488 44.9645 23.3823C44.9645 24.6019 45.0251 42.2546 44.9645 45.2079C44.9325 46.7308 45.5136 47.2321 46.7907 47.2161H59.2424C61.6784 47.2161 62.0711 46.3956 62.0711 45.3611V22.1946C62.068 20.1736 60.7909 20.1129 59.8458 20.0331ZM49.7089 46.6989H47.6719C47.2441 46.6989 45.7339 46.8202 45.6924 45.8177C45.6445 44.6906 45.6924 23.7495 45.6924 23.7495C46.9408 23.6569 49.3673 23.6856 49.3673 23.6856C49.396 24.6594 49.578 34.6718 49.6706 41.1882C48.9999 41.1687 48.3286 41.1986 47.6623 41.2776C47.631 41.2958 47.6057 41.3227 47.5892 41.355C47.5728 41.3872 47.566 41.4236 47.5697 41.4596C47.4771 41.8874 47.4484 44.6268 47.5697 44.8407C47.6304 44.9301 47.7517 44.9908 49.6993 44.9908L49.7089 46.6989ZM58.01 44.6906C51.6245 44.8439 48.087 44.7226 47.7932 44.6619C47.7276 43.6068 47.7372 42.5484 47.822 41.4947C48.7798 41.3415 57.8695 41.434 58.0196 41.616C58.2654 41.8299 58.3069 44.6619 58.0196 44.6906H58.01Z" fill="#7BD2FF"/>
<path d="M65.2641 20.6134C65.296 18.0241 63.0739 17.3089 60.7304 17.3249C59.5427 17.3249 46.4844 17.293 46.3024 17.293C44.2367 17.293 43.4098 18.6403 43.4098 20.7347V23.5635H37.5033C36.3156 23.5635 36.1623 23.6529 35.7696 23.9594C34.6649 24.831 33.6369 26.0315 33.5155 26.3667C33.4357 26.6349 33.4868 35.5171 33.4868 49.0735C33.4832 49.0975 33.4871 49.122 33.498 49.1437C33.5088 49.1654 33.5261 49.1832 33.5475 49.1948C34.8852 49.4374 43.4705 49.1948 43.4705 49.1948C43.5631 50.4112 44.0484 52.0044 46.5738 52.0683C47.5795 52.0906 61.0944 52.0683 61.2604 52.0683C63.1473 52.0683 65.2801 51.7969 65.3375 49.0862C65.395 45.8488 65.2354 23.1389 65.2641 20.6134ZM36.2773 23.8987C36.2453 25.1184 36.1559 26.3955 36.0633 26.6094C35.9133 26.6988 35.0002 26.6381 33.7518 26.3955C34.0966 25.8463 35.7089 24.2052 36.2773 23.8987ZM33.7518 49.0128C33.7199 49.0128 33.7199 48.9809 33.7199 48.9521C33.7199 47.9177 33.6592 27.4906 33.7199 26.6381C34.0934 26.702 36.0729 27.0691 36.2741 26.7626C36.3954 26.6381 36.5167 25.6356 36.5486 23.8093H43.3971V48.9074C43.3779 48.9809 34.7032 49.1948 33.7614 49.0128H33.7518ZM63.6741 49.0735C63.5847 51.8735 61.3913 51.8128 60.2036 51.8128C60.0504 51.8128 48.8503 51.8416 46.5036 51.8128C43.6301 51.7777 43.6301 49.6833 43.6301 48.4349V20.7635C43.6301 18.8031 44.374 17.5995 46.2801 17.5995C46.2801 17.5995 59.5204 17.5995 60.7081 17.6282C62.1065 17.6793 63.6741 18.056 63.6614 20.6421C63.6773 21.5265 63.7348 47.0333 63.6837 49.0735H63.6741Z" fill="#414141"/>
<path d="M53.333 48.1887C52.9929 48.1803 52.6624 48.3024 52.4095 48.53C52.1566 48.7576 52.0004 49.0734 51.9731 49.4126C51.9457 49.7517 52.0492 50.0884 52.2623 50.3537C52.4754 50.6189 52.782 50.7924 53.1191 50.8387C53.9141 50.9728 54.7634 50.5641 54.7634 49.5297C54.7593 49.3471 54.7188 49.1673 54.6444 49.0006C54.5699 48.8339 54.463 48.6837 54.3298 48.5588C54.1966 48.4339 54.0398 48.3369 53.8687 48.2733C53.6975 48.2098 53.5154 48.181 53.333 48.1887ZM54.3675 49.4977C54.3696 49.6357 54.3445 49.7727 54.2936 49.9009C54.2428 50.0292 54.1672 50.1462 54.0711 50.2452C53.9751 50.3442 53.8604 50.4234 53.7338 50.4781C53.6071 50.5328 53.471 50.562 53.333 50.5641C53.1883 50.572 53.0434 50.5504 52.9074 50.5005C52.7713 50.4505 52.6468 50.3734 52.5416 50.2737C52.4363 50.1741 52.3525 50.054 52.2952 49.9209C52.2379 49.7877 52.2083 49.6443 52.2083 49.4993C52.2083 49.3544 52.2379 49.211 52.2952 49.0778C52.3525 48.9447 52.4363 48.8246 52.5416 48.7249C52.6468 48.6253 52.7713 48.5481 52.9074 48.4982C53.0434 48.4483 53.1883 48.4266 53.333 48.4346C53.611 48.4388 53.8761 48.553 54.07 48.7523C54.2639 48.9516 54.3709 49.2197 54.3675 49.4977Z" fill="#414141"/>
<path d="M48.189 27.9472C47.8442 27.9472 48.3103 27.9184 46.2414 27.9184C46.2093 27.9184 46.1784 27.9056 46.1557 27.8829C46.1329 27.8601 46.1201 27.8293 46.1201 27.7971C46.1201 27.7649 46.1329 27.7341 46.1557 27.7113C46.1784 27.6886 46.2093 27.6758 46.2414 27.6758C47.1833 27.6758 47.5473 27.6758 48.189 27.7045C48.2202 27.7074 48.2495 27.7211 48.2716 27.7432C48.2938 27.7654 48.3075 27.7946 48.3103 27.8258C48.3081 27.8573 48.2946 27.8869 48.2723 27.9092C48.25 27.9314 48.2205 27.9449 48.189 27.9472Z" fill="#7BD2FF"/>
<path d="M35.4338 27.9791C35.4016 27.9791 35.3708 27.9663 35.348 27.9436C35.3253 27.9208 35.3125 27.8899 35.3125 27.8578C35.3125 27.8256 35.3253 27.7947 35.348 27.772C35.3708 27.7492 35.4016 27.7364 35.4338 27.7364L42.7771 27.6758C42.8093 27.6758 42.8402 27.6886 42.8629 27.7113C42.8857 27.7341 42.8984 27.7649 42.8984 27.7971C42.8984 27.8293 42.8857 27.8601 42.8629 27.8829C42.8402 27.9056 42.8093 27.9184 42.7771 27.9184C39.1502 27.9344 35.4338 27.9791 35.4338 27.9791Z" fill="#7BD2FF"/>
<path d="M47.9751 30.8404C47.7133 30.8404 47.4994 30.7798 46.2414 30.7798C46.2093 30.7798 46.1784 30.767 46.1557 30.7442C46.1329 30.7215 46.1201 30.6906 46.1201 30.6584C46.1201 30.6263 46.1329 30.5954 46.1557 30.5726C46.1784 30.5499 46.2093 30.5371 46.2414 30.5371C47.1546 30.5371 47.4579 30.5658 47.9751 30.5978C48.011 30.6018 48.0439 30.6198 48.0666 30.6479C48.0893 30.676 48.1 30.7119 48.0964 30.7478C48.088 30.7738 48.0719 30.7965 48.0502 30.8131C48.0285 30.8296 48.0023 30.8392 47.9751 30.8404Z" fill="#7BD2FF"/>
<path d="M35.342 30.9011C35.3098 30.9011 35.279 30.8883 35.2562 30.8655C35.2335 30.8428 35.2207 30.8119 35.2207 30.7798C35.2207 30.7476 35.2335 30.7167 35.2562 30.694C35.279 30.6712 35.3098 30.6584 35.342 30.6584L42.7715 30.5371C42.8037 30.5371 42.8346 30.5499 42.8573 30.5726C42.8801 30.5954 42.8928 30.6263 42.8928 30.6584C42.8928 30.6906 42.8801 30.7215 42.8573 30.7442C42.8346 30.767 42.8037 30.7798 42.7715 30.7798C39.052 30.7957 35.4793 30.9011 35.342 30.9011Z" fill="#7BD2FF"/>
<path d="M48.0077 33.9035H47.8544C47.3053 33.8716 47.0019 33.8716 46.258 33.8716C46.2259 33.8716 46.195 33.8588 46.1723 33.836C46.1495 33.8133 46.1367 33.7824 46.1367 33.7502C46.1367 33.7181 46.1495 33.6872 46.1723 33.6644C46.195 33.6417 46.2259 33.6289 46.258 33.6289C47.2382 33.6289 47.6341 33.6896 48.0236 33.6896C48.0598 33.6944 48.0927 33.713 48.1153 33.7416C48.138 33.7702 48.1486 33.8065 48.1449 33.8428C48.1082 33.8792 48.0593 33.9008 48.0077 33.9035Z" fill="#7BD2FF"/>
<path d="M35.4338 34.0686C35.4024 34.0663 35.3728 34.0528 35.3505 34.0306C35.3282 34.0083 35.3147 33.9787 35.3125 33.9472C35.3177 33.9134 35.3317 33.8815 35.3529 33.8546C35.3742 33.8277 35.4021 33.8069 35.4338 33.794C35.4658 33.794 39.0863 33.612 42.7771 33.5801C42.8093 33.5801 42.8402 33.5929 42.8629 33.6156C42.8857 33.6384 42.8984 33.6692 42.8984 33.7014C42.8984 33.7336 42.8857 33.7644 42.8629 33.7872C42.8402 33.8099 42.8093 33.8227 42.7771 33.8227C38.7351 33.9025 35.6382 34.0686 35.4338 34.0686Z" fill="#7BD2FF"/>
<path d="M47.9751 37.2023C47.7963 37.2023 47.0364 37.1704 46.2414 37.1704C46.2093 37.1704 46.1784 37.1576 46.1557 37.1348C46.1329 37.1121 46.1201 37.0812 46.1201 37.0491C46.1201 37.0169 46.1329 36.986 46.1557 36.9633C46.1784 36.9405 46.2093 36.9277 46.2414 36.9277C47.1993 36.9277 47.5792 36.9565 47.9751 36.9565C48.0113 36.9613 48.0441 36.9799 48.0668 37.0085C48.0894 37.0371 48.1001 37.0734 48.0964 37.1097C48.088 37.1357 48.0719 37.1584 48.0502 37.175C48.0285 37.1915 48.0023 37.201 47.9751 37.2023Z" fill="#7BD2FF"/>
<path d="M42.7721 37.1423H38.7843C38.7551 37.1376 38.7286 37.1226 38.7094 37.1001C38.6902 37.0776 38.6797 37.049 38.6797 37.0194C38.6797 36.9898 38.6902 36.9612 38.7094 36.9387C38.7286 36.9162 38.7551 36.9012 38.7843 36.8965H42.7721C42.8013 36.9012 42.8278 36.9162 42.847 36.9387C42.8662 36.9612 42.8767 36.9898 42.8767 37.0194C42.8767 37.049 42.8662 37.0776 42.847 37.1001C42.8278 37.1226 42.8013 37.1376 42.7721 37.1423Z" fill="#7BD2FF"/>
<path d="M35.4342 37.2033C35.4058 37.2002 35.3792 37.188 35.3584 37.1684C35.3377 37.1488 35.3239 37.1229 35.3192 37.0948C35.3244 37.0609 35.3384 37.029 35.3596 37.0021C35.3809 36.9753 35.4088 36.9544 35.4405 36.9415C35.4405 36.9415 36.475 36.8968 37.966 36.8809C37.9982 36.8809 38.029 36.8936 38.0518 36.9164C38.0745 36.9391 38.0873 36.97 38.0873 37.0022C38.0873 37.0344 38.0745 37.0652 38.0518 37.088C38.029 37.1107 37.9982 37.1235 37.966 37.1235C36.3217 37.1267 35.5395 37.2033 35.4342 37.2033Z" fill="#7BD2FF"/>
<path d="M47.9748 40.3058C46.9212 40.3058 47.282 40.3058 46.2092 40.2771C46.1775 40.2741 46.1479 40.26 46.1256 40.2372C46.1034 40.2143 46.09 40.1844 46.0879 40.1526C46.0901 40.1211 46.1036 40.0916 46.1259 40.0693C46.1482 40.047 46.1778 40.0335 46.2092 40.0312C47.6619 40.0313 47.0042 40.0632 47.9748 40.0632C48.007 40.0632 48.0378 40.076 48.0606 40.0987C48.0833 40.1215 48.0961 40.1523 48.0961 40.1845C48.0961 40.2167 48.0833 40.2475 48.0606 40.2703C48.0378 40.293 48.007 40.3058 47.9748 40.3058Z" fill="#7BD2FF"/>
<path d="M35.4338 40.3058C35.4016 40.3058 35.3708 40.293 35.348 40.2703C35.3253 40.2475 35.3125 40.2167 35.3125 40.1845C35.3125 40.1523 35.3253 40.1215 35.348 40.0987C35.3708 40.076 35.4016 40.0632 35.4338 40.0632L42.6494 40.0312C42.6786 40.036 42.7052 40.0509 42.7243 40.0735C42.7435 40.096 42.7541 40.1246 42.7541 40.1542C42.7541 40.1837 42.7435 40.2124 42.7243 40.2349C42.7052 40.2574 42.6786 40.2724 42.6494 40.2771C38.965 40.2867 35.4338 40.3058 35.4338 40.3058Z" fill="#7BD2FF"/>
<path d="M46.3918 43.563C46.3597 43.563 46.3288 43.5502 46.306 43.5274C46.2833 43.5047 46.2705 43.4738 46.2705 43.4416C46.2705 43.4095 46.2833 43.3786 46.306 43.3558C46.3288 43.3331 46.3597 43.3203 46.3918 43.3203H47.2156C47.2477 43.3203 47.2786 43.3331 47.3013 43.3558C47.3241 43.3786 47.3369 43.4095 47.3369 43.4416C47.3369 43.4738 47.3241 43.5047 47.3013 43.5274C47.2786 43.5502 47.2477 43.563 47.2156 43.563H46.3918Z" fill="#7BD2FF"/>
<path d="M41.1272 43.5942C41.095 43.5942 41.0641 43.5814 41.0414 43.5587C41.0186 43.5359 41.0059 43.5051 41.0059 43.4729C41.0059 43.4407 41.0186 43.4098 41.0414 43.3871C41.0641 43.3643 41.095 43.3516 41.1272 43.3516H42.8608C42.893 43.3516 42.9239 43.3643 42.9466 43.3871C42.9694 43.4098 42.9822 43.4407 42.9822 43.4729C42.9822 43.5051 42.9694 43.5359 42.9466 43.5587C42.9239 43.5814 42.893 43.5942 42.8608 43.5942C42.2798 43.5623 41.8487 43.5942 41.1272 43.5942Z" fill="#7BD2FF"/>
<path d="M35.4338 43.6235C35.4024 43.6213 35.3728 43.6078 35.3505 43.5855C35.3282 43.5632 35.3147 43.5337 35.3125 43.5022C35.3182 43.4689 35.3324 43.4377 35.3536 43.4114C35.3749 43.3851 35.4025 43.3647 35.4338 43.3522C35.4338 43.3522 36.8035 43.2915 40.274 43.3202C40.3062 43.3202 40.337 43.333 40.3598 43.3558C40.3826 43.3785 40.3953 43.4094 40.3953 43.4415C40.3953 43.4737 40.3826 43.5046 40.3598 43.5273C40.337 43.5501 40.3062 43.5629 40.274 43.5629C36.8035 43.5629 35.4658 43.5948 35.4338 43.6235Z" fill="#7BD2FF"/>
<path d="M42.7713 46.4275H35.428C35.3962 46.4245 35.3666 46.4104 35.3444 46.3875C35.3222 46.3647 35.3088 46.3347 35.3066 46.303C35.3089 46.2715 35.3224 46.2419 35.3447 46.2196C35.3669 46.1974 35.3965 46.1839 35.428 46.1816H42.7713C42.8027 46.1839 42.8323 46.1974 42.8546 46.2196C42.8769 46.2419 42.8904 46.2715 42.8926 46.303C42.9213 46.354 42.8607 46.4275 42.7713 46.4275Z" fill="#7BD2FF"/>
<path d="M57.1993 34.1901L56.6821 33.5835C56.6375 33.5312 56.5825 33.4887 56.5207 33.4587C56.4589 33.4287 56.3915 33.4118 56.3228 33.4091C56.2541 33.4064 56.1856 33.418 56.1217 33.443C56.0577 33.4681 55.9995 33.5061 55.951 33.5547L55.2517 34.1933C55.2365 34.2049 55.2187 34.2127 55.1997 34.2159C55.1808 34.2191 55.1614 34.2177 55.1432 34.2117C55.1249 34.2057 55.1084 34.1954 55.0951 34.1816C55.0817 34.1678 55.072 34.151 55.0666 34.1326C55.0666 33.2195 55.1496 31.6934 55.0378 30.4801C55.0295 30.3457 54.9724 30.2189 54.8771 30.1236C54.7819 30.0284 54.6551 29.9712 54.5206 29.9629H53.5181C53.3836 29.9712 53.2569 30.0284 53.1616 30.1236C53.0663 30.2189 53.0092 30.3457 53.0009 30.4801C52.8827 31.7859 53.0328 33.2801 53.0328 34.222C53.033 34.2437 53.0263 34.265 53.0137 34.2826C53.001 34.3003 52.9831 34.3134 52.9624 34.3202C52.9418 34.327 52.9195 34.327 52.8989 34.3202C52.8782 34.3135 52.8603 34.3003 52.8476 34.2827L52.3911 33.7367C52.3454 33.6813 52.2887 33.6362 52.2244 33.6042C52.1602 33.5722 52.0899 33.5542 52.0182 33.5512C51.9466 33.5481 51.875 33.5603 51.8083 33.5867C51.7417 33.6132 51.6813 33.6534 51.6312 33.7048L50.9607 34.3753C50.8668 34.4738 50.8145 34.6047 50.8145 34.7408C50.8145 34.8769 50.8668 35.0078 50.9607 35.1064C51.6775 35.9406 52.4624 36.7138 53.3074 37.4179C53.5164 37.5962 53.7836 37.6918 54.0583 37.6865C54.3331 37.6812 54.5963 37.5754 54.7984 37.3892C55.6541 36.611 56.4572 35.777 57.2025 34.8925C57.2841 34.7935 57.3285 34.669 57.3279 34.5407C57.3273 34.4124 57.2818 34.2883 57.1993 34.1901Z" fill="#005BC3"/>
<path d="M53.6967 41.9203C53.4541 41.8341 48.4032 41.9203 48.2499 42.0129C48.0967 42.1055 48.1286 44.1744 48.2787 44.2063C48.4287 44.2382 53.3328 44.267 53.7063 44.2063C53.8372 44.1744 53.7893 41.9554 53.6967 41.9203Z" fill="#FDAF31"/>
</g>
<defs>
<clipPath id="clip0_648_11903">
<rect width="60" height="60" fill="white" transform="translate(5 5)"/>
</clipPath>
</defs>
</svg>
