<svg width="50" height="50" viewBox="0 0 50 50" fill="none" xmlns="http://www.w3.org/2000/svg">
<path d="M13.8541 16.5004C13.8541 16.5004 13.5641 18.1579 14.8541 18.3729C14.6697 17.9298 14.6126 17.4441 14.6891 16.9704C14.3668 16.9092 14.0735 16.7441 13.8541 16.5004Z" fill="#87E4FF"/>
<path d="M15.019 15.5627C15.019 15.5627 14.1115 15.3127 13.899 15.6102C13.6865 15.9077 13.6115 16.6827 14.7315 16.9427C14.7315 16.9427 14.6365 18.2302 15.019 18.5177C15.019 18.5177 14.6615 19.5652 14.304 19.9002C14.304 19.9002 15.494 19.9952 16.1615 20.3752C16.237 20.0208 16.374 19.6823 16.5665 19.3752C17.0108 19.4797 17.4764 19.4466 17.9015 19.2802C18.474 18.9927 18.9215 18.4677 19.0715 17.3502C19.184 16.4902 19.214 15.3002 19.404 14.8502C19.404 14.8502 18.6415 13.8027 16.974 13.8277C15.3765 13.8452 15.019 15.5627 15.019 15.5627Z" fill="white"/>
<path d="M23.8491 24.5953V20.1628C23.8491 20.1628 23.5166 20.0878 23.4091 20.5903C23.3016 21.0928 23.2891 22.5903 22.9566 22.6403C22.9807 23.0132 22.9807 23.3873 22.9566 23.7603C22.9492 23.8336 22.9333 23.9057 22.9091 23.9753C22.6426 24.0451 22.3709 24.0927 22.0966 24.1178C21.9316 24.1178 21.8466 25.0253 21.9541 25.0253C22.0616 25.0253 23.3716 25.0253 23.8491 24.5953Z" fill="white"/>
<path d="M8.91617 26.5977C8.91617 26.5977 6.91617 32.6752 2.07617 36.8227C2.17397 37.1507 2.34792 37.451 2.58383 37.6991C2.81974 37.9472 3.11093 38.136 3.43367 38.2502C3.43367 38.2502 7.93367 37.0002 11.9337 29.7502C11.9337 29.7502 14.2712 32.8252 14.1987 33.3027C14.0137 34.4952 12.1487 37.3027 11.1237 38.2602C11.1237 38.2602 11.7187 38.9752 12.9587 38.6652C12.9587 38.6652 17.0362 36.1652 17.4387 33.5402C17.6312 32.2902 15.1887 28.5602 15.1887 28.5602C15.1887 28.5602 10.9662 28.0002 8.91617 26.5977Z" fill="white"/>
<path d="M16.6163 17.3502C16.5613 17.6152 15.9813 17.5677 16.0438 17.2302C16.0638 17.1102 16.1863 17.0402 16.3763 17.0627C16.4409 17.0803 16.4985 17.1173 16.5414 17.1687C16.5843 17.2201 16.6105 17.2834 16.6163 17.3502Z" fill="#FDAF31"/>
<path d="M18.5215 17.5152C18.5215 17.7652 19.0215 17.8352 19.094 17.5152C19.094 17.2177 18.5215 17.2502 18.5215 17.5152Z" fill="#FDAF31"/>
<path d="M17.9263 17.2303C18.0396 17.1545 18.1365 17.0568 18.2113 16.9428C18.1143 16.9051 18.0261 16.8476 17.9525 16.774C17.8789 16.7004 17.8215 16.6123 17.7838 16.5153C17.7008 16.2018 17.743 15.8683 17.9013 15.5853C17.9148 15.5613 17.9369 15.5435 17.9632 15.5354C17.9895 15.5273 18.0178 15.5296 18.0424 15.5417C18.0671 15.5539 18.0861 15.575 18.0957 15.6008C18.1052 15.6265 18.1045 15.655 18.0938 15.6803C17.9652 15.9082 17.9311 16.1775 17.9988 16.4303C18.0289 16.5096 18.0768 16.5811 18.1388 16.6391C18.2007 16.6972 18.2751 16.7403 18.3563 16.7653C18.3741 16.7722 18.3903 16.7828 18.4037 16.7965C18.4172 16.8101 18.4275 16.8265 18.4342 16.8445C18.4408 16.8624 18.4435 16.8816 18.4421 16.9007C18.4408 16.9198 18.4354 16.9384 18.4263 16.9553C18.3551 17.1395 18.2203 17.292 18.0463 17.3853C17.8888 17.5003 17.7638 17.3128 17.9263 17.2303Z" fill="#414141"/>
<path d="M18.4037 15.4176C18.601 15.3339 18.8087 15.2776 19.0212 15.2501C19.1137 15.2501 19.2112 15.3801 19.0462 15.4626C18.859 15.4908 18.6754 15.5394 18.4987 15.6076C18.3587 15.6401 18.1912 15.5251 18.4037 15.4176Z" fill="#414141"/>
<path d="M17.1397 15.5004C16.987 15.3916 16.8183 15.3073 16.6397 15.2504C16.6171 15.2415 16.5985 15.2248 16.5874 15.2032C16.5762 15.1817 16.5733 15.1568 16.5791 15.1333C16.5849 15.1097 16.5991 15.0891 16.6189 15.0752C16.6388 15.0614 16.6631 15.0552 16.6872 15.0579C16.8891 15.1131 17.0819 15.1974 17.2597 15.3079C17.3572 15.3704 17.2622 15.6104 17.1397 15.5004Z" fill="#414141"/>
<path d="M18.7842 16.8003C18.7192 16.8003 18.7517 16.8253 18.3567 16.4428C18.3415 16.425 18.3299 16.4044 18.3228 16.3821C18.3157 16.3598 18.3131 16.3363 18.3152 16.313C18.3173 16.2897 18.324 16.2671 18.335 16.2464C18.346 16.2258 18.3611 16.2075 18.3792 16.1928L18.8092 15.9078C18.8567 15.8828 18.9267 15.8828 18.9517 15.9328C18.9767 15.9828 18.9742 16.0503 18.9267 16.0753L18.5467 16.3253L18.8567 16.6353C18.8676 16.6437 18.8765 16.6545 18.8825 16.6668C18.8886 16.6792 18.8918 16.6928 18.8918 16.7065C18.8918 16.7203 18.8886 16.7339 18.8825 16.7462C18.8765 16.7586 18.8676 16.7694 18.8567 16.7778C18.8469 16.7864 18.8354 16.7929 18.8229 16.7968C18.8104 16.8007 18.7972 16.8019 18.7842 16.8003Z" fill="#414141"/>
<path d="M16.2097 16.5154L16.7497 16.1804L16.1997 15.7754C16.1807 15.7585 16.1686 15.7351 16.1659 15.7098C16.1631 15.6845 16.1699 15.6591 16.1849 15.6385C16.1998 15.6179 16.2219 15.6037 16.2469 15.5985C16.2718 15.5933 16.2977 15.5975 16.3197 15.6104L16.8922 16.0379C16.9722 16.0779 17.0097 16.2879 16.8672 16.3254L16.2972 16.6829C16.2072 16.7504 16.0622 16.5904 16.2097 16.5154Z" fill="#414141"/>
<path d="M17.2112 17.9205C17.1752 17.9155 17.1418 17.8988 17.1162 17.873C17.0912 17.8255 17.0912 17.7555 17.1387 17.7305C17.2358 17.6658 17.3452 17.6219 17.46 17.6012C17.5748 17.5806 17.6927 17.5837 17.8062 17.6105C17.8962 17.6555 17.9312 17.8255 17.7362 17.8255C17.6543 17.809 17.5699 17.8089 17.488 17.8252C17.406 17.8415 17.3281 17.8739 17.2587 17.9205H17.2112Z" fill="#414141"/>
<path d="M14.5899 16.3254C14.4858 16.2418 14.3633 16.1844 14.2324 16.1579C14.2039 16.1545 14.1779 16.14 14.1601 16.1175C14.1423 16.095 14.1341 16.0664 14.1374 16.0379C14.1408 16.0094 14.1553 15.9833 14.1778 15.9655C14.2003 15.9477 14.2289 15.9395 14.2574 15.9429C14.4282 15.9691 14.5907 16.034 14.7324 16.1329C14.7799 16.1579 14.7799 16.2279 14.7574 16.2779C14.7516 16.2938 14.7421 16.3082 14.7296 16.3197C14.7172 16.3313 14.7022 16.3397 14.6858 16.3444C14.6695 16.349 14.6523 16.3497 14.6356 16.3464C14.6189 16.3431 14.6033 16.3359 14.5899 16.3254Z" fill="#414141"/>
<path d="M23.8619 20.0651C23.8155 20.0458 23.7652 20.0381 23.7151 20.0424C23.6651 20.0468 23.6168 20.0631 23.5744 20.0901C23.2419 20.3051 23.1519 21.2576 23.1219 21.8051C23.1215 22.0258 23.08 22.2446 22.9994 22.4501V22.4251C22.9909 22.3798 22.9672 22.3387 22.9322 22.3087C22.8972 22.2787 22.853 22.2616 22.8069 22.2601C21.6834 22.2972 20.5588 22.2328 19.4469 22.0676C17.8994 21.8501 17.3019 20.9251 16.3019 20.3176C16.3576 20.0238 16.4624 19.7415 16.6119 19.4826C16.9634 19.5753 17.3329 19.5753 17.6844 19.4826C18.5594 19.2326 19.0669 18.5301 19.2319 17.3626C19.4194 16.0626 19.4494 15.2576 19.5669 14.7876C19.5708 14.7539 19.5619 14.72 19.5419 14.6926C18.9796 14.1025 18.2112 13.7523 17.3969 13.7151C16.0869 13.6226 15.1094 14.3351 14.9669 15.4301C14.6355 15.3118 14.2733 15.3118 13.9419 15.4301C13.86 15.4799 13.7894 15.5464 13.7347 15.6252C13.6799 15.7039 13.6423 15.7933 13.6242 15.8874C13.606 15.9816 13.6078 16.0786 13.6294 16.172C13.651 16.2655 13.6918 16.3534 13.7494 16.4301C13.9762 16.7224 14.2997 16.9245 14.6619 17.0001C14.5736 17.514 14.6617 18.0426 14.9119 18.5001C14.8394 18.7151 14.5544 19.5501 14.1619 19.8126C12.8019 20.0626 12.0219 21.5326 11.4444 22.2676C10.7819 23.1051 8.79691 26.4851 8.77441 26.5176C8.74941 26.5876 6.41441 33.0701 1.95691 36.6951C1.95691 36.6951 1.12191 37.1951 1.26691 37.6951C1.41191 38.1951 2.23941 39.2301 2.81441 39.5551C3.33441 39.8476 4.22191 39.7701 4.22191 39.4826C4.22191 39.1951 3.38691 38.7676 3.33941 38.6001C3.32287 38.5252 3.32287 38.4475 3.33941 38.3726C4.41116 37.9527 5.42049 37.3883 6.33941 36.6951C8.71498 34.9373 10.6387 32.64 11.9519 29.9926C12.9069 31.2801 14.1094 33.0226 14.0394 33.3326C13.8244 34.2626 12.6569 36.0976 10.9644 38.1476V38.1726C10.718 38.4709 10.5244 38.8091 10.3919 39.1726C10.2919 39.6001 10.6794 39.6251 11.0594 39.6726C11.4394 39.7201 14.0144 39.7701 14.0869 39.7701C14.3369 39.7701 14.6594 39.6026 14.2069 39.2926C13.8482 39.0589 13.4641 38.8668 13.0619 38.7201C13.7931 38.2057 14.4934 37.6489 15.1594 37.0526C16.6594 35.6976 17.4419 34.5001 17.4944 33.5251C17.5594 32.3326 15.9694 29.5426 15.3269 28.6626C15.3269 28.6626 16.1369 26.0876 16.3519 25.4676C16.3603 25.4432 16.3735 25.4207 16.3906 25.4015C16.4078 25.3822 16.4286 25.3666 16.4519 25.3554C16.4751 25.3442 16.5004 25.3378 16.5261 25.3365C16.5519 25.3351 16.5776 25.3389 16.6019 25.3476C18.9719 26.2626 21.3194 25.5401 21.8919 25.3476C21.9296 25.3302 21.9623 25.3038 21.9872 25.2706C22.012 25.2374 22.0283 25.1986 22.0344 25.1576V25.1351C22.5014 25.1276 22.9657 25.0629 23.4169 24.9426C23.5598 24.898 23.685 24.8095 23.7748 24.6896C23.8645 24.5698 23.9143 24.4248 23.9169 24.2751V20.1851C23.919 20.162 23.9151 20.1388 23.9054 20.1177C23.8958 20.0967 23.8808 20.0785 23.8619 20.0651ZM17.3319 33.5326C17.1994 35.6526 13.2069 38.4201 12.8969 38.6351C12.3186 38.726 11.7276 38.5879 11.2494 38.2501C12.9419 36.1751 14.0819 34.3876 14.3019 33.4351C14.4169 32.9351 12.5369 30.3851 12.0519 29.7651L12.1694 29.5151C12.5331 29.5711 12.9032 29.5711 13.2669 29.5151C13.28 29.513 13.2925 29.508 13.3034 29.5004C13.3144 29.4929 13.3235 29.4831 13.3302 29.4716C13.3369 29.4601 13.341 29.4473 13.3421 29.4341C13.3433 29.4209 13.3415 29.4075 13.3369 29.3951C13.3351 29.3821 13.3304 29.3696 13.3232 29.3587C13.3159 29.3477 13.3063 29.3385 13.295 29.3318C13.2837 29.3251 13.2711 29.321 13.258 29.3198C13.2449 29.3187 13.2317 29.3205 13.2194 29.3251C12.8557 29.3811 12.4856 29.3811 12.1219 29.3251C12.0974 29.3245 12.0732 29.3307 12.052 29.3431C12.0308 29.3555 12.0135 29.3735 12.0019 29.3951C10.6765 32.163 8.71985 34.5812 6.28941 36.4551C5.38243 37.1619 4.37999 37.7367 3.31191 38.1626C3.04713 38.0548 2.80893 37.8908 2.61382 37.6819C2.4187 37.473 2.27133 37.2241 2.18191 36.9526C6.25941 33.6151 8.54691 27.9176 8.95191 26.8926C11.3594 29.0376 14.5069 28.9676 15.2019 28.9201C15.3669 28.9101 17.4094 32.2726 17.3319 33.5326ZM15.0819 19.8526C14.8946 19.8132 14.7031 19.7973 14.5119 19.8051C14.7718 19.412 14.9794 18.9868 15.1294 18.5401C15.1325 18.5068 15.1246 18.4734 15.1069 18.4451C14.7019 17.8976 14.8919 16.9926 14.8919 16.9676C14.8935 16.9546 14.8923 16.9414 14.8884 16.9289C14.8846 16.9164 14.8781 16.9049 14.8694 16.8951C14.8444 16.8726 14.8194 16.8476 14.7969 16.8476C14.4607 16.7882 14.1567 16.611 13.9394 16.3476C13.8925 16.2742 13.8617 16.1916 13.8492 16.1054C13.8367 16.0192 13.8427 15.9313 13.8669 15.8476C13.8945 15.7578 13.9541 15.6813 14.0344 15.6326C14.3669 15.4651 15.0119 15.6801 15.0119 15.6801C15.0276 15.6861 15.0444 15.6882 15.0611 15.6864C15.0778 15.6845 15.0937 15.6787 15.1077 15.6694C15.1217 15.6601 15.1332 15.6476 15.1413 15.6329C15.1494 15.6182 15.1539 15.6018 15.1544 15.5851C15.2269 14.5126 16.1319 13.8351 17.3719 13.9176C18.1083 13.9441 18.8067 14.2508 19.3244 14.7751C19.1994 15.2751 19.1669 16.1401 18.9919 17.3251C18.8294 18.4226 18.3969 19.0451 17.5844 19.2801C16.8344 19.4976 16.0369 19.0301 16.0369 19.0301C16.0244 19.0225 16.0104 19.0178 15.9958 19.0163C15.9813 19.0148 15.9666 19.0165 15.9527 19.0212C15.9389 19.026 15.9263 19.0337 15.9158 19.0439C15.9053 19.0541 15.8971 19.0664 15.8919 19.0801C15.8694 19.1501 15.8694 19.1976 15.9419 19.2226C16.0865 19.2998 16.238 19.3634 16.3944 19.4126C16.2777 19.667 16.1816 19.9303 16.1069 20.2001C15.7914 20.0239 15.4467 19.9062 15.0894 19.8526H15.0819ZM23.7194 24.2851C23.7235 24.3889 23.6928 24.4911 23.6321 24.5753C23.5714 24.6596 23.4842 24.7211 23.3844 24.7501C22.9599 24.8795 22.5182 24.9436 22.0744 24.9401C22.0969 24.7501 22.0969 24.5826 22.1219 24.4401C22.1212 24.4179 22.1251 24.3958 22.1332 24.3752C22.1414 24.3545 22.1537 24.3358 22.1694 24.3201C22.1851 24.3044 22.2039 24.2921 22.2245 24.2839C22.2451 24.2758 22.2672 24.2719 22.2894 24.2726C22.493 24.2385 22.6924 24.1832 22.8844 24.1076C22.9494 24.0851 23.0269 24.0376 23.0269 23.8576C23.3694 23.8576 23.5269 23.9376 23.7194 23.8101V24.2851ZM23.6469 23.5926C23.6262 23.6165 23.6005 23.6354 23.5715 23.648C23.5424 23.6605 23.511 23.6664 23.4794 23.6651C23.3282 23.6694 23.1769 23.6619 23.0269 23.6426C23.0519 23.3076 23.0269 22.9751 23.0269 22.7126C23.0519 22.7126 23.0519 22.7126 23.0744 22.6876C23.0969 22.6626 23.3244 22.4976 23.3244 21.8051C23.3519 20.9726 23.4919 20.3751 23.6819 20.2576C23.6885 20.2576 23.6949 20.255 23.6996 20.2503C23.7043 20.2456 23.7069 20.2392 23.7069 20.2326V23.0701C23.7194 23.4726 23.7494 23.5001 23.6469 23.5926Z" fill="#414141"/>
<path d="M19.6901 24.7503C18.0701 24.7503 15.8526 24.4178 14.0901 22.8903C14.0807 22.8809 14.0733 22.8698 14.0682 22.8576C14.0632 22.8454 14.0605 22.8323 14.0605 22.819C14.0605 22.8058 14.0632 22.7927 14.0682 22.7805C14.0733 22.7682 14.0807 22.7571 14.0901 22.7478C14.0994 22.7384 14.1105 22.731 14.1227 22.7259C14.135 22.7209 14.1481 22.7183 14.1613 22.7183C14.1745 22.7183 14.1876 22.7209 14.1999 22.7259C14.2121 22.731 14.2232 22.7384 14.2326 22.7478C17.6901 25.7028 22.9101 24.1303 22.9576 24.1078C22.9699 24.1031 22.983 24.1014 22.9961 24.1025C23.0092 24.1037 23.0219 24.1078 23.0332 24.1145C23.0444 24.1212 23.0541 24.1304 23.0613 24.1414C23.0686 24.1523 23.0733 24.1648 23.0751 24.1778C23.0797 24.1902 23.0814 24.2036 23.0803 24.2168C23.0791 24.23 23.0751 24.2428 23.0684 24.2543C23.0617 24.2658 23.0525 24.2756 23.0416 24.2831C23.0306 24.2906 23.0182 24.2956 23.0051 24.2978C21.9217 24.5783 20.809 24.7301 19.6901 24.7503Z" fill="white"/>
<path d="M13.8525 15.5128C13.8525 15.5128 14.5 15.2003 14.7325 15.8478C14.8325 16.1328 15.445 16.0978 15.52 15.9203C15.595 15.7428 15.62 15.1178 15.95 14.9203C16.28 14.7228 17.5675 14.7353 18.4275 14.9203C19.69 15.1928 20.5925 14.5903 20.025 13.4428C19.4575 12.2953 17.75 12.1528 17.0925 12.1528C16.64 12.1528 15.5925 12.4028 15.235 12.9028C15.0352 12.8828 14.8335 12.9066 14.6439 12.9727C14.4543 13.0387 14.2815 13.1454 14.1375 13.2853C13.695 13.7878 13.5425 14.7028 13.8525 15.5128Z" fill="#87E4FF"/>
<path d="M47.5543 12.8452C47.5668 10.8177 46.3043 10.4252 45.1468 10.3902C43.9893 10.3552 34.5643 10.3652 33.8493 10.3652C32.2993 10.3652 31.6793 11.3652 31.6793 12.9402V15.2277C30.6068 15.2277 26.3643 15.2527 26.1493 15.2752C25.9343 15.2977 24.1493 16.8677 23.8843 17.3977C23.8843 17.8677 23.8393 21.6152 23.8618 25.7402C23.8868 30.2927 23.8843 35.0352 23.9568 35.1052C24.0768 35.2252 30.0118 35.1302 31.6793 35.1052C31.7268 36.0602 32.0618 37.2902 34.0143 37.3227C36.3518 37.3602 43.4068 37.3227 44.4318 37.3227C45.4568 37.3227 47.4693 37.6077 47.5543 35.0727C47.6368 32.6027 47.5418 14.8227 47.5543 12.8452Z" fill="white"/>
<path d="M37.7492 11.6526C37.6955 11.6555 37.6428 11.6371 37.6027 11.6012C37.5626 11.5653 37.5385 11.515 37.5355 11.4613C37.5325 11.4076 37.551 11.3549 37.5868 11.3148C37.6227 11.2747 37.673 11.2505 37.7267 11.2476C37.7492 11.2476 39.1792 11.2226 41.5392 11.2476C41.5692 11.2443 41.5996 11.2474 41.6283 11.2567C41.6571 11.2659 41.6835 11.2811 41.706 11.3013C41.7284 11.3215 41.7464 11.3461 41.7587 11.3737C41.771 11.4013 41.7774 11.4311 41.7774 11.4613C41.7774 11.4915 41.771 11.5213 41.7587 11.5489C41.7464 11.5765 41.7284 11.6012 41.706 11.6213C41.6835 11.6415 41.6571 11.6567 41.6283 11.6659C41.5996 11.6752 41.5692 11.6783 41.5392 11.6751C39.6192 11.6476 38.7117 11.6526 37.7492 11.6526Z" fill="#414141"/>
<path d="M44.4544 12.3902C43.7419 12.3327 35.7544 12.3602 34.3019 12.3902C32.5844 12.4302 32.8019 13.8902 32.8019 15.0127C32.8019 15.9677 32.8494 29.7902 32.8019 32.1027C32.7769 33.2952 33.2318 33.6877 34.2318 33.6752H43.9818C45.8893 33.6752 46.1968 33.0327 46.1968 32.2227V14.0827C46.1943 12.5002 45.1944 12.4527 44.4544 12.3902ZM36.5169 33.2702H34.9219C34.5869 33.2702 33.4044 33.3652 33.3719 32.5802C33.3344 31.6977 33.3719 15.3002 33.3719 15.3002C34.3494 15.2277 36.2494 15.2502 36.2494 15.2502C36.2719 16.0127 36.4143 23.8527 36.4868 28.9552C35.9617 28.9399 35.4361 28.9633 34.9144 29.0252C34.8898 29.0394 34.87 29.0605 34.8571 29.0857C34.8443 29.111 34.839 29.1394 34.8418 29.1677C34.7693 29.5027 34.7468 31.6477 34.8418 31.8152C34.8893 31.8852 34.9843 31.9327 36.5093 31.9327L36.5169 33.2702ZM43.0169 31.6977C38.0169 31.8177 35.2469 31.7227 35.0169 31.6752C34.9655 30.849 34.973 30.0202 35.0394 29.1952C35.7894 29.0752 42.9069 29.1477 43.0244 29.2902C43.2169 29.4577 43.2494 31.6752 43.0244 31.6977H43.0169Z" fill="#87E4FF"/>
<path d="M48.6959 12.8452C48.7209 10.8177 46.9809 10.2577 45.1459 10.2702C44.2159 10.2702 33.9909 10.2452 33.8484 10.2452C32.2309 10.2452 31.5834 11.3002 31.5834 12.9402V15.1552H26.9584C26.0284 15.1552 25.9084 15.2252 25.6009 15.4652C24.7359 16.1477 23.9309 17.0877 23.8359 17.3502C23.7734 17.5602 23.8134 24.5152 23.8134 35.1302C23.8106 35.149 23.8136 35.1682 23.8221 35.1852C23.8306 35.2022 23.8442 35.2162 23.8609 35.2252C24.9084 35.4152 31.6309 35.2252 31.6309 35.2252C31.7034 36.1777 32.0834 37.4252 34.0609 37.4752C34.8484 37.4927 45.4309 37.4752 45.5609 37.4752C47.0384 37.4752 48.7084 37.2627 48.7534 35.1402C48.7984 32.6052 48.6734 14.8227 48.6959 12.8452ZM25.9984 15.4177C25.9734 16.3727 25.9034 17.3727 25.8309 17.5402C25.7134 17.6102 24.9984 17.5627 24.0209 17.3727C24.2909 16.9427 25.5534 15.6577 25.9984 15.4177ZM24.0209 35.0827C23.9959 35.0827 23.9959 35.0577 23.9959 35.0352C23.9959 34.2252 23.9484 18.2302 23.9959 17.5627C24.2884 17.6127 25.8384 17.9002 25.9959 17.6602C26.0909 17.5627 26.1859 16.7777 26.2109 15.3477H31.5734V35.0002C31.5584 35.0577 24.7659 35.2252 24.0284 35.0827H24.0209ZM47.4509 35.1302C47.3809 37.3227 45.6634 37.2752 44.7334 37.2752C44.6134 37.2752 35.8434 37.2977 34.0059 37.2752C31.7559 37.2477 31.7559 35.6077 31.7559 34.6302V12.9627C31.7559 11.4277 32.3384 10.4852 33.8309 10.4852C33.8309 10.4852 44.1984 10.4852 45.1284 10.5077C46.2234 10.5477 47.4509 10.8427 47.4409 12.8677C47.4534 13.5602 47.4984 33.5327 47.4584 35.1302H47.4509Z" fill="#414141"/>
<path d="M39.3534 34.4376C39.0871 34.431 38.8283 34.5267 38.6303 34.7049C38.4323 34.8831 38.31 35.1303 38.2885 35.3959C38.2671 35.6615 38.3481 35.9251 38.515 36.1328C38.6819 36.3405 38.922 36.4764 39.1859 36.5126C39.8084 36.6176 40.4734 36.2976 40.4734 35.4876C40.4702 35.3447 40.4385 35.2038 40.3802 35.0733C40.322 34.9428 40.2382 34.8252 40.1339 34.7274C40.0296 34.6296 39.9069 34.5536 39.7729 34.5039C39.6388 34.4541 39.4962 34.4316 39.3534 34.4376ZM40.1634 35.4626C40.1651 35.5706 40.1454 35.6779 40.1056 35.7783C40.0658 35.8787 40.0066 35.9703 39.9314 36.0479C39.8562 36.1254 39.7664 36.1874 39.6672 36.2302C39.5681 36.2731 39.4614 36.296 39.3534 36.2976C39.2401 36.3038 39.1267 36.2868 39.0201 36.2477C38.9136 36.2087 38.8161 36.1482 38.7337 36.0702C38.6513 35.9922 38.5856 35.8982 38.5407 35.7939C38.4959 35.6897 38.4727 35.5773 38.4727 35.4638C38.4727 35.3503 38.4959 35.238 38.5407 35.1338C38.5856 35.0295 38.6513 34.9355 38.7337 34.8575C38.8161 34.7795 38.9136 34.719 39.0201 34.6799C39.1267 34.6409 39.2401 34.6239 39.3534 34.6301C39.5711 34.6334 39.7786 34.7229 39.9305 34.8789C40.0823 35.035 40.1661 35.2449 40.1634 35.4626Z" fill="#414141"/>
<path d="M35.327 18.5877C35.057 18.5877 35.422 18.5652 33.802 18.5652C33.7768 18.5652 33.7527 18.5552 33.7349 18.5374C33.717 18.5196 33.707 18.4954 33.707 18.4702C33.707 18.445 33.717 18.4209 33.7349 18.4031C33.7527 18.3853 33.7768 18.3752 33.802 18.3752C34.5395 18.3752 34.8245 18.3752 35.327 18.3977C35.3515 18.4 35.3744 18.4107 35.3917 18.4281C35.4091 18.4454 35.4198 18.4683 35.422 18.4927C35.4203 18.5174 35.4097 18.5405 35.3923 18.558C35.3748 18.5754 35.3516 18.586 35.327 18.5877Z" fill="#87E4FF"/>
<path d="M25.3391 18.6127C25.3139 18.6127 25.2898 18.6027 25.272 18.5849C25.2541 18.5671 25.2441 18.5429 25.2441 18.5177C25.2441 18.4925 25.2541 18.4684 25.272 18.4506C25.2898 18.4328 25.3139 18.4227 25.3391 18.4227L31.0891 18.3752C31.1143 18.3752 31.1385 18.3853 31.1563 18.4031C31.1741 18.4209 31.1841 18.445 31.1841 18.4702C31.1841 18.4954 31.1741 18.5196 31.1563 18.5374C31.1385 18.5552 31.1143 18.5652 31.0891 18.5652C28.2491 18.5777 25.3391 18.6127 25.3391 18.6127Z" fill="#87E4FF"/>
<path d="M35.1595 20.8526C34.9545 20.8526 34.787 20.8051 33.802 20.8051C33.7768 20.8051 33.7527 20.7951 33.7349 20.7773C33.717 20.7595 33.707 20.7353 33.707 20.7101C33.707 20.6849 33.717 20.6608 33.7349 20.6429C33.7527 20.6251 33.7768 20.6151 33.802 20.6151C34.517 20.6151 34.7545 20.6376 35.1595 20.6626C35.1876 20.6658 35.2134 20.6799 35.2312 20.7019C35.2489 20.7239 35.2573 20.752 35.2545 20.7801C35.2479 20.8004 35.2353 20.8182 35.2183 20.8312C35.2014 20.8441 35.1809 20.8516 35.1595 20.8526Z" fill="#87E4FF"/>
<path d="M25.2669 20.9001C25.2417 20.9001 25.2175 20.8901 25.1997 20.8723C25.1819 20.8545 25.1719 20.8303 25.1719 20.8051C25.1719 20.7799 25.1819 20.7558 25.1997 20.7379C25.2175 20.7201 25.2417 20.7101 25.2669 20.7101L31.0844 20.6151C31.1096 20.6151 31.1337 20.6251 31.1516 20.6429C31.1694 20.6608 31.1794 20.6849 31.1794 20.7101C31.1794 20.7353 31.1694 20.7595 31.1516 20.7773C31.1337 20.7951 31.1096 20.8051 31.0844 20.8051C28.1719 20.8176 25.3744 20.9001 25.2669 20.9001Z" fill="#87E4FF"/>
<path d="M35.1838 23.2503H35.0637C34.6337 23.2253 34.3962 23.2253 33.8137 23.2253C33.7886 23.2253 33.7644 23.2153 33.7466 23.1975C33.7288 23.1796 33.7188 23.1555 33.7188 23.1303C33.7188 23.1051 33.7288 23.0809 33.7466 23.0631C33.7644 23.0453 33.7886 23.0353 33.8137 23.0353C34.5812 23.0353 34.8912 23.0828 35.1962 23.0828C35.2246 23.0865 35.2503 23.1012 35.268 23.1235C35.2858 23.1459 35.2941 23.1744 35.2912 23.2028C35.2625 23.2313 35.2242 23.2482 35.1838 23.2503Z" fill="#87E4FF"/>
<path d="M25.3391 23.3803C25.3145 23.3786 25.2914 23.368 25.2739 23.3505C25.2565 23.3331 25.2459 23.3099 25.2441 23.2853C25.2482 23.2588 25.2591 23.2338 25.2758 23.2128C25.2924 23.1917 25.3143 23.1754 25.3391 23.1653C25.3641 23.1653 28.1991 23.0228 31.0891 22.9978C31.1143 22.9978 31.1385 23.0078 31.1563 23.0256C31.1741 23.0434 31.1841 23.0676 31.1841 23.0928C31.1841 23.118 31.1741 23.1422 31.1563 23.16C31.1385 23.1778 31.1143 23.1878 31.0891 23.1878C27.9241 23.2503 25.4991 23.3803 25.3391 23.3803Z" fill="#87E4FF"/>
<path d="M35.1595 25.8354C35.0195 25.8354 34.4245 25.8104 33.802 25.8104C33.7768 25.8104 33.7527 25.8004 33.7349 25.7825C33.717 25.7647 33.707 25.7406 33.707 25.7154C33.707 25.6902 33.717 25.666 33.7349 25.6482C33.7527 25.6304 33.7768 25.6204 33.802 25.6204C34.552 25.6204 34.8495 25.6429 35.1595 25.6429C35.1878 25.6466 35.2136 25.6612 35.2313 25.6836C35.2491 25.706 35.2574 25.7344 35.2545 25.7629C35.2479 25.7832 35.2353 25.801 35.2183 25.8139C35.2014 25.8269 35.1809 25.8344 35.1595 25.8354Z" fill="#87E4FF"/>
<path d="M31.0853 25.7877H27.9628C27.9399 25.784 27.9191 25.7723 27.9041 25.7547C27.8891 25.737 27.8809 25.7146 27.8809 25.6915C27.8809 25.6683 27.8891 25.6459 27.9041 25.6283C27.9191 25.6106 27.9399 25.5989 27.9628 25.5952H31.0853C31.1082 25.5989 31.129 25.6106 31.144 25.6283C31.159 25.6459 31.1672 25.6683 31.1672 25.6915C31.1672 25.7146 31.159 25.737 31.144 25.7547C31.129 25.7723 31.1082 25.784 31.0853 25.7877Z" fill="#87E4FF"/>
<path d="M25.34 25.8354C25.3178 25.833 25.297 25.8234 25.2807 25.808C25.2645 25.7927 25.2537 25.7724 25.25 25.7504C25.2541 25.7239 25.265 25.6989 25.2817 25.6778C25.2983 25.6568 25.3201 25.6405 25.345 25.6304C25.345 25.6304 26.155 25.5954 27.3225 25.5829C27.3477 25.5829 27.3719 25.5929 27.3897 25.6107C27.4075 25.6285 27.4175 25.6527 27.4175 25.6779C27.4175 25.7031 27.4075 25.7272 27.3897 25.7451C27.3719 25.7629 27.3477 25.7729 27.3225 25.7729C26.035 25.7754 25.4225 25.8354 25.34 25.8354Z" fill="#87E4FF"/>
<path d="M35.1591 28.2653C34.3341 28.2653 34.6166 28.2653 33.7766 28.2428C33.7518 28.2405 33.7286 28.2294 33.7112 28.2115C33.6938 28.1937 33.6833 28.1702 33.6816 28.1453C33.6834 28.1207 33.694 28.0975 33.7114 28.0801C33.7289 28.0626 33.752 28.052 33.7766 28.0503C34.9141 28.0503 34.3991 28.0753 35.1591 28.0753C35.1843 28.0753 35.2085 28.0853 35.2263 28.1031C35.2441 28.1209 35.2541 28.1451 35.2541 28.1703C35.2541 28.1955 35.2441 28.2197 35.2263 28.2375C35.2085 28.2553 35.1843 28.2653 35.1591 28.2653Z" fill="#87E4FF"/>
<path d="M25.3391 28.2653C25.3139 28.2653 25.2898 28.2553 25.272 28.2375C25.2541 28.2197 25.2441 28.1955 25.2441 28.1703C25.2441 28.1451 25.2541 28.1209 25.272 28.1031C25.2898 28.0853 25.3139 28.0753 25.3391 28.0753L30.9891 28.0503C31.012 28.054 31.0328 28.0657 31.0478 28.0833C31.0628 28.101 31.0711 28.1234 31.0711 28.1465C31.0711 28.1697 31.0628 28.1921 31.0478 28.2097C31.0328 28.2274 31.012 28.2391 30.9891 28.2428C28.1041 28.2503 25.3391 28.2653 25.3391 28.2653Z" fill="#87E4FF"/>
<path d="M33.9192 30.8152C33.894 30.8152 33.8699 30.8052 33.852 30.7874C33.8342 30.7696 33.8242 30.7454 33.8242 30.7202C33.8242 30.695 33.8342 30.6709 33.852 30.6531C33.8699 30.6353 33.894 30.6252 33.9192 30.6252H34.5642C34.5894 30.6252 34.6136 30.6353 34.6314 30.6531C34.6492 30.6709 34.6592 30.695 34.6592 30.7202C34.6592 30.7454 34.6492 30.7696 34.6314 30.7874C34.6136 30.8052 34.5894 30.8152 34.5642 30.8152H33.9192Z" fill="#87E4FF"/>
<path d="M29.7962 30.8403C29.771 30.8403 29.7468 30.8303 29.729 30.8124C29.7112 30.7946 29.7012 30.7705 29.7012 30.7453C29.7012 30.7201 29.7112 30.6959 29.729 30.6781C29.7468 30.6603 29.771 30.6503 29.7962 30.6503H31.1537C31.1789 30.6503 31.203 30.6603 31.2208 30.6781C31.2387 30.6959 31.2487 30.7201 31.2487 30.7453C31.2487 30.7705 31.2387 30.7946 31.2208 30.8124C31.203 30.8303 31.1789 30.8403 31.1537 30.8403C30.6987 30.8153 30.3612 30.8403 29.7962 30.8403Z" fill="#87E4FF"/>
<path d="M25.3391 30.8627C25.3145 30.8609 25.2914 30.8504 25.2739 30.8329C25.2565 30.8155 25.2459 30.7923 25.2441 30.7677C25.2486 30.7416 25.2597 30.7171 25.2764 30.6966C25.293 30.676 25.3146 30.66 25.3391 30.6502C25.3391 30.6502 26.4116 30.6027 29.1291 30.6252C29.1543 30.6252 29.1785 30.6352 29.1963 30.653C29.2141 30.6708 29.2241 30.695 29.2241 30.7202C29.2241 30.7454 29.2141 30.7695 29.1963 30.7874C29.1785 30.8052 29.1543 30.8152 29.1291 30.8152C26.4116 30.8152 25.3641 30.8402 25.3391 30.8627Z" fill="#87E4FF"/>
<path d="M31.0852 33.0576H25.3352C25.3104 33.0553 25.2872 33.0442 25.2698 33.0263C25.2524 33.0085 25.2419 32.985 25.2402 32.9601C25.242 32.9355 25.2525 32.9123 25.27 32.8949C25.2875 32.8774 25.3106 32.8669 25.3352 32.8651H31.0852C31.1099 32.8669 31.133 32.8774 31.1505 32.8949C31.1679 32.9123 31.1785 32.9355 31.1802 32.9601C31.2027 33.0001 31.1552 33.0576 31.0852 33.0576Z" fill="#87E4FF"/>
<path d="M42.3823 23.4753L41.9773 23.0003C41.9424 22.9593 41.8994 22.9261 41.851 22.9026C41.8025 22.8791 41.7498 22.8659 41.696 22.8638C41.6422 22.8617 41.5886 22.8707 41.5385 22.8903C41.4884 22.9099 41.4429 22.9397 41.4048 22.9778L40.8573 23.4778C40.8454 23.4869 40.8314 23.493 40.8166 23.4955C40.8018 23.498 40.7866 23.4969 40.7723 23.4922C40.758 23.4876 40.7451 23.4795 40.7347 23.4687C40.7242 23.4579 40.7166 23.4447 40.7123 23.4303C40.7123 22.7153 40.7773 21.5203 40.6898 20.5703C40.6833 20.465 40.6386 20.3657 40.564 20.2911C40.4894 20.2165 40.3901 20.1718 40.2848 20.1653H39.4998C39.3946 20.1718 39.2953 20.2165 39.2207 20.2911C39.1461 20.3657 39.1013 20.465 39.0948 20.5703C39.0023 21.5928 39.1198 22.7628 39.1198 23.5003C39.12 23.5173 39.1148 23.5339 39.1049 23.5477C39.095 23.5616 39.0809 23.5719 39.0647 23.5772C39.0486 23.5825 39.0311 23.5825 39.015 23.5772C38.9988 23.5719 38.9847 23.5616 38.9748 23.5478L38.6173 23.1203C38.5816 23.0769 38.5372 23.0416 38.4869 23.0165C38.4366 22.9915 38.3815 22.9773 38.3254 22.975C38.2693 22.9726 38.2133 22.9821 38.1611 23.0029C38.1088 23.0236 38.0616 23.0551 38.0223 23.0953L37.4973 23.6203C37.4238 23.6975 37.3828 23.7999 37.3828 23.9065C37.3828 24.0131 37.4238 24.1156 37.4973 24.1928C38.0586 24.846 38.6732 25.4515 39.3348 26.0028C39.4985 26.1424 39.7077 26.2172 39.9229 26.2131C40.138 26.2089 40.3441 26.1261 40.5023 25.9803C41.1724 25.371 41.8013 24.7179 42.3848 24.0253C42.4487 23.9478 42.4835 23.8503 42.483 23.7498C42.4826 23.6494 42.4469 23.5522 42.3823 23.4753Z" fill="#016DAB"/>
<path d="M39.6386 29.5278C39.4486 29.4603 35.4936 29.5278 35.3736 29.6003C35.2536 29.6728 35.2786 31.2928 35.3961 31.3178C35.5136 31.3428 39.3536 31.3653 39.6461 31.3178C39.7486 31.2928 39.7111 29.5553 39.6386 29.5278Z" fill="#FDAF31"/>
</svg>
