<svg width="20" height="21" viewBox="0 0 20 21" fill="none" xmlns="http://www.w3.org/2000/svg">
<rect y="0.5" width="20" height="20" rx="10" fill="#005BC3"/>
<g clip-path="url(#clip0_677_6143)">
<path d="M12.5 6.75C12.5 6.41848 12.6317 6.10054 12.8661 5.86612C13.1006 5.6317 13.4185 5.5 13.75 5.5H8.03571C7.70419 5.5 7.38625 5.6317 7.15183 5.86612C6.91741 6.10054 6.78571 6.41848 6.78571 6.75V13.3571C6.78571 13.9413 6.50524 14.4599 6.0716 14.7857H5.35714C5.1599 14.7857 5 14.9456 5 15.1429C5 15.3401 5.1599 15.5 5.35714 15.5H10.7143C11.1879 15.5 11.6421 15.3119 11.977 14.977C12.3119 14.6421 12.5 14.1879 12.5 13.7143V6.75Z" fill="white"/>
<path d="M13.75 5.5C14.0815 5.5 14.3994 5.6317 14.6339 5.86612C14.8683 6.10054 15 6.41848 15 6.75V8C15 8.09472 14.9624 8.18556 14.8954 8.25254C14.8284 8.31951 14.7376 8.35714 14.6429 8.35714H12.5V6.75C12.5 6.41848 12.6317 6.10054 12.8661 5.86612C13.1006 5.6317 13.4185 5.5 13.75 5.5Z" fill="white" fill-opacity="0.31"/>
<path fill-rule="evenodd" clip-rule="evenodd" d="M8.69813 8.00014C8.69813 7.75358 8.89801 7.55371 9.14456 7.55371H10.5284C10.775 7.55371 10.9749 7.75358 10.9749 8.00014C10.9749 8.2467 10.775 8.44657 10.5284 8.44657H9.14456C8.89801 8.44657 8.69813 8.2467 8.69813 8.00014ZM7.77554 10.143C7.77554 9.89644 7.97541 9.69657 8.22197 9.69657H10.5284C10.775 9.69657 10.9748 9.89644 10.9748 10.143C10.9748 10.3896 10.775 10.5894 10.5284 10.5894H8.22197C7.97541 10.5894 7.77554 10.3896 7.77554 10.143ZM8.22197 11.8394C7.97541 11.8394 7.77554 12.0393 7.77554 12.2859C7.77554 12.5324 7.97541 12.7323 8.22197 12.7323H10.5284C10.775 12.7323 10.9748 12.5324 10.9748 12.2859C10.9748 12.0393 10.775 11.8394 10.5284 11.8394H8.22197Z" fill="#005BC3"/>
</g>
<defs>
<clipPath id="clip0_677_6143">
<rect width="10" height="10" fill="white" transform="translate(5 5.5)"/>
</clipPath>
</defs>
</svg>
