<svg width="50" height="50" viewBox="0 0 50 50" fill="none" xmlns="http://www.w3.org/2000/svg">
<path d="M41.0391 21.1475C41.0391 22.1225 40.4916 22.8825 39.2891 22.9525C38.2691 23 37.5391 22.145 37.5391 21.1475C37.5391 20.6811 37.7244 20.2337 38.0542 19.9039C38.384 19.5741 38.8314 19.3888 39.2978 19.3888C39.7643 19.3888 40.2116 19.5741 40.5414 19.9039C40.8713 20.2337 41.0566 20.6811 41.0566 21.1475H41.0391Z" fill="#FDAF31"/>
<path d="M37.1005 11.9087C37.2545 11.9993 37.43 12.0494 37.6171 12.0561C37.8041 12.0629 37.999 12.0262 38.1904 11.9481C38.3818 11.87 38.566 11.7521 38.7324 11.6011C38.8988 11.4501 39.0441 11.2691 39.16 11.0684C39.2759 10.8678 39.36 10.6514 39.4075 10.4318C39.4551 10.2122 39.4651 9.99372 39.437 9.7889C39.409 9.58408 39.3433 9.39698 39.244 9.23837C39.1446 9.07975 39.0134 8.95276 38.858 8.86468C38.704 8.7741 38.5284 8.72398 38.3414 8.71722C38.1543 8.71046 37.9595 8.74718 37.768 8.82527C37.5766 8.90336 37.3924 9.02129 37.226 9.17225C37.0596 9.32322 36.9143 9.50425 36.7984 9.70493C36.6826 9.9056 36.5984 10.122 36.5509 10.3416C36.5034 10.5612 36.4933 10.7796 36.5214 10.9845C36.5495 11.1893 36.6151 11.3764 36.7145 11.535C36.8138 11.6936 36.945 11.8206 37.1005 11.9087Z" fill="#FDAF31"/>
<path d="M28.9358 4.82849C29.2777 4.8862 29.6365 4.75897 29.9331 4.47478C30.2298 4.19059 30.44 3.77272 30.5176 3.3131C30.5951 2.85348 30.5337 2.38975 30.3468 2.02394C30.1598 1.65813 29.8627 1.4202 29.5208 1.36249C29.3515 1.33391 29.1763 1.35044 29.0051 1.41113C28.834 1.47182 28.6703 1.57548 28.5235 1.7162C28.3766 1.85691 28.2494 2.03193 28.1491 2.23125C28.0488 2.43057 27.9774 2.65029 27.939 2.87788C27.9006 3.10546 27.8959 3.33644 27.9252 3.55763C27.9545 3.77882 28.0172 3.9859 28.1098 4.16703C28.2024 4.34816 28.3229 4.4998 28.4647 4.61329C28.6064 4.72679 28.7665 4.79991 28.9358 4.82849Z" fill="#FDAF31"/>
<path d="M17.4752 5.57598C17.6451 5.79037 17.8448 5.97806 18.0627 6.12819C18.2806 6.27831 18.5123 6.38789 18.7445 6.45057C18.9767 6.51324 19.2047 6.52778 19.4153 6.49332C19.6259 6.45887 19.815 6.37611 19.9715 6.24984C20.1281 6.12358 20.249 5.95632 20.3272 5.75775C20.4055 5.55918 20.4395 5.33326 20.4274 5.09307C20.4153 4.85287 20.3572 4.60319 20.2566 4.35848C20.156 4.11377 20.0148 3.8789 19.8413 3.66748C19.6714 3.4531 19.4717 3.26541 19.2538 3.11528C19.0359 2.96515 18.8042 2.85558 18.572 2.7929C18.3398 2.73022 18.1118 2.71569 17.9012 2.75015C17.6906 2.7846 17.5015 2.86736 17.345 2.99362C17.1884 3.11989 17.0675 3.28715 16.9893 3.48572C16.911 3.68428 16.877 3.91021 16.8891 4.1504C16.9012 4.39059 16.9593 4.64028 17.0599 4.88498C17.1605 5.12969 17.3017 5.36456 17.4752 5.57598Z" fill="#FDAF31"/>
<path d="M13.4372 14.7499C12.6047 15.4624 11.5597 15.5349 10.6572 14.5599C9.87475 13.7499 10.0872 12.4999 10.9197 11.7899C11.112 11.6104 11.3386 11.4717 11.586 11.3823C11.8333 11.2928 12.0963 11.2545 12.3589 11.2696C12.6215 11.2846 12.8783 11.3528 13.1138 11.47C13.3493 11.5872 13.5586 11.7509 13.729 11.9512C13.8994 12.1516 14.0274 12.3845 14.1052 12.6357C14.1831 12.887 14.2092 13.1514 14.1819 13.413C14.1546 13.6746 14.0746 13.928 13.9466 14.1578C13.8186 14.3876 13.6453 14.589 13.4372 14.7499Z" fill="#FDAF31"/>
<path d="M41.0399 20.5001C40.8982 20.0791 40.6102 19.7229 40.2282 19.4963C39.8461 19.2697 39.3955 19.1877 38.9581 19.2651C38.5208 19.3426 38.1257 19.5745 37.8448 19.9185C37.5639 20.2626 37.4158 20.6961 37.4274 21.1401C37.4169 21.3905 37.4582 21.6403 37.5486 21.874C37.639 22.1078 37.7765 22.3204 37.9526 22.4987C38.1288 22.6769 38.3398 22.817 38.5724 22.9101C38.805 23.0033 39.0544 23.0475 39.3049 23.0401C40.4449 23.0251 41.5149 22.2176 41.0399 20.5001ZM39.2899 19.4551C39.6286 19.4556 39.9589 19.5609 40.2355 19.7565C40.5121 19.9521 40.7214 20.2284 40.8349 20.5476C40.8788 20.7675 40.8717 20.9946 40.814 21.2113C40.7564 21.428 40.6498 21.6286 40.5024 21.7976C39.5999 22.8201 38.4124 22.2501 38.1274 22.0126C37.9826 21.8898 37.867 21.7364 37.7887 21.5634C37.7105 21.3905 37.6716 21.2024 37.6749 21.0126C37.6424 20.3401 38.4249 19.4626 39.2799 19.4626L39.2899 19.4551ZM39.2899 22.8276C39.0861 22.8405 38.8819 22.8112 38.6901 22.7415C38.4982 22.6718 38.3228 22.5632 38.1749 22.4226L38.0549 22.3051C38.3649 22.5176 39.8849 23.2301 40.8599 21.6876C40.6824 22.3826 40.1374 22.7876 39.2799 22.8351L39.2899 22.8276Z" fill="#414141"/>
<path d="M38.8998 8.77248C38.2123 8.36748 37.2148 8.77248 36.7148 9.64998C36.3598 10.2925 36.3123 11.005 36.5973 11.505C36.6977 11.6959 36.8478 11.8561 37.0318 11.9688C37.2157 12.0814 37.4267 12.1423 37.6423 12.145C37.9755 12.1247 38.2976 12.0176 38.5765 11.8342C38.8555 11.6509 39.0816 11.3978 39.2323 11.1C39.7523 10.22 39.5898 9.17498 38.8998 8.77248ZM36.8998 9.77248C37.0333 9.5097 37.2328 9.28608 37.4786 9.1235C37.7244 8.96092 38.0083 8.86495 38.3023 8.84498C39.2523 8.84498 39.0523 10.1275 38.7523 10.675C38.3023 11.46 37.1623 11.84 36.7823 11.425C36.6642 11.1605 36.6136 10.8709 36.6349 10.582C36.6563 10.2932 36.7491 10.0142 36.9048 9.76998L36.8998 9.77248ZM39.0423 11C38.5923 11.785 37.7373 12.14 37.1423 11.8075C37.1198 11.8075 37.1198 11.785 37.0948 11.785C37.1726 11.8035 37.2525 11.811 37.3323 11.8075C37.9273 11.8075 39.3048 11.215 39.2323 9.47998C39.3165 9.73139 39.3432 9.99851 39.3103 10.2616C39.2774 10.5247 39.1858 10.777 39.0423 11Z" fill="#414141"/>
<path d="M29.685 1.29C28.64 1.04 28.0225 2.12 27.88 2.69C27.791 3.00552 27.7768 3.33744 27.8384 3.65943C27.9 3.98143 28.0358 4.28463 28.235 4.545C28.4153 4.74117 28.6561 4.8712 28.919 4.91426C29.1819 4.95732 29.4516 4.91092 29.685 4.7825C29.9136 4.64288 30.11 4.4564 30.2613 4.23533C30.4125 4.01426 30.5152 3.76364 30.5625 3.5C30.825 2.5 30.445 1.455 29.685 1.29ZM28.0925 2.75C28.2125 2.25 28.7825 1.42 29.375 1.4675C30.0175 1.515 30.1825 2.585 30.0175 3.2025C29.9197 3.67915 29.6376 4.09787 29.2325 4.3675C29.1141 4.45452 28.9739 4.50711 28.8274 4.51947C28.6809 4.53182 28.5339 4.50345 28.4025 4.4375C28.2246 4.19899 28.104 3.92266 28.0503 3.62998C27.9965 3.33731 28.011 3.03617 28.0925 2.75ZM30.3725 3.465C30.3245 3.69751 30.2305 3.91809 30.0961 4.11384C29.9618 4.30959 29.7897 4.47657 29.59 4.605C29.4807 4.67172 29.3585 4.71466 29.2314 4.73103C29.1043 4.74739 28.9752 4.73682 28.8525 4.7C28.83 4.7 28.83 4.675 28.805 4.675C28.9918 4.66483 29.1723 4.60436 29.3275 4.5C29.5566 4.35805 29.7546 4.17128 29.9097 3.95089C30.0648 3.7305 30.1738 3.48104 30.23 3.2175C30.3346 2.79314 30.3182 2.34797 30.1825 1.9325C30.4409 2.39524 30.509 2.94038 30.3725 3.4525V3.465Z" fill="#414141"/>
<path d="M20.2289 6.11239C20.7289 5.46989 20.6089 4.37739 19.8964 3.54739C19.4937 3.05017 18.9157 2.72627 18.2814 2.64239C18.0978 2.6229 17.912 2.64028 17.7352 2.69352C17.5583 2.74675 17.3938 2.83476 17.2514 2.95239C16.5839 3.56989 16.6564 4.78239 17.4164 5.68489C17.611 5.93634 17.8543 6.1459 18.1318 6.30099C18.4093 6.45607 18.7153 6.55349 19.0314 6.58739C19.9114 6.63489 20.1714 6.18239 20.2189 6.11239H20.2289ZM19.7289 3.68989C20.3214 4.47239 20.4789 5.39989 20.0614 5.96989C19.4464 6.24989 18.5914 5.96989 18.0014 5.24989C17.4114 4.52989 17.2514 3.53989 17.6689 2.96739C18.2114 2.57239 19.3039 3.11989 19.7314 3.68989H19.7289ZM19.0664 6.37239C18.4898 6.30335 17.9622 6.01401 17.5939 5.56489C16.9514 4.82989 16.8439 3.85489 17.2364 3.28489C17.0464 3.92739 17.2614 4.73489 17.8064 5.37489C18.0148 5.64011 18.2773 5.85781 18.5765 6.01344C18.8757 6.16908 19.2047 6.25906 19.5414 6.27739H19.6364C19.4626 6.3725 19.2617 6.40598 19.0664 6.37239Z" fill="#414141"/>
<path d="M13.7691 11.9324C13.5948 11.7259 13.3809 11.5565 13.14 11.4342C12.8991 11.3118 12.6361 11.2389 12.3666 11.2199C11.814 11.1808 11.2681 11.3603 10.8466 11.7199C10.6148 11.9045 10.4251 12.1365 10.2902 12.4004C10.1552 12.6642 10.0782 12.9538 10.0641 13.2499C10.0484 13.5053 10.0847 13.7612 10.1706 14.0023C10.2565 14.2433 10.3904 14.4645 10.5641 14.6524C10.7524 14.8813 10.9879 15.0668 11.2546 15.1963C11.5213 15.3257 11.8128 15.396 12.1091 15.4024C12.6212 15.381 13.1092 15.1791 13.4866 14.8324C13.6961 14.6591 13.869 14.4458 13.9952 14.205C14.1214 13.9642 14.1983 13.7007 14.2216 13.4299C14.2558 13.1625 14.2332 12.8909 14.1552 12.6328C14.0773 12.3748 13.9457 12.1361 13.7691 11.9324ZM10.7291 14.4999C10.572 14.3337 10.4507 14.137 10.3729 13.9219C10.2951 13.7069 10.2623 13.4781 10.2766 13.2499C10.2802 13.1647 10.2962 13.0805 10.3241 12.9999C10.3647 13.5 10.5644 13.974 10.8941 14.3524C11.0843 14.5764 11.3211 14.7562 11.5879 14.8792C11.8548 15.0023 12.1453 15.0656 12.4391 15.0649C12.6082 15.0652 12.7766 15.0416 12.9391 14.9949C12.1766 15.3749 11.3941 15.2099 10.7291 14.4999ZM14.0291 13.4299C14.0004 13.6949 13.9151 13.9506 13.7791 14.1799C13.6158 14.3753 13.4127 14.5337 13.1834 14.6445C12.954 14.7553 12.7037 14.8159 12.4491 14.8224C12.1866 14.8219 11.9273 14.7642 11.6894 14.6532C11.4515 14.5422 11.2407 14.3807 11.0716 14.1799C10.776 13.8309 10.5937 13.4001 10.5491 12.9449C10.4791 12.3274 11.2391 11.3299 12.2116 11.4449C12.7068 11.4902 13.1673 11.7185 13.5034 12.085C13.8394 12.4515 14.0268 12.9301 14.0291 13.4274V13.4299Z" fill="#414141"/>
<path d="M13.9824 8.58258C13.9824 8.58258 12.9374 8.36758 12.7324 8.29758C12.7182 8.29298 12.7052 8.28565 12.6939 8.276C12.6826 8.26635 12.6733 8.25458 12.6666 8.24135C12.6599 8.22811 12.6558 8.21369 12.6546 8.19888C12.6535 8.18408 12.6553 8.1692 12.6599 8.15508C12.6644 8.14096 12.6718 8.12789 12.6814 8.11661C12.6911 8.10532 12.7029 8.09605 12.7161 8.08932C12.7293 8.08259 12.7437 8.07853 12.7585 8.07737C12.7733 8.07621 12.7882 8.07799 12.8024 8.08258C12.9924 8.15508 14.0149 8.34508 14.0149 8.34508C14.0624 8.34508 14.1099 8.41508 14.1099 8.46258C14.0774 8.55758 14.0299 8.58258 13.9824 8.58258Z" fill="#414141"/>
<path d="M13.9345 7.77494C13.5263 7.49253 13.1379 7.18264 12.772 6.84744C12.7245 6.79994 12.7245 6.72994 12.772 6.70494C12.8195 6.67994 12.8895 6.65744 12.9145 6.70494C13.2505 7.0215 13.6071 7.31547 13.982 7.58494C14.0295 7.60744 14.0295 7.67994 14.007 7.72744C13.9845 7.77494 13.9595 7.77494 13.9345 7.77494Z" fill="#414141"/>
<path d="M33.3193 6.79984C33.3039 6.79652 33.2893 6.78999 33.2766 6.78068C33.2638 6.77137 33.2532 6.75948 33.2454 6.74579C33.2375 6.7321 33.2326 6.71691 33.231 6.70121C33.2295 6.68551 33.2312 6.66965 33.2361 6.65466C33.2411 6.63968 33.2491 6.6259 33.2597 6.61422C33.2703 6.60254 33.2833 6.59322 33.2977 6.58687C33.3122 6.58052 33.3278 6.57728 33.3435 6.57736C33.3593 6.57745 33.3749 6.58085 33.3893 6.58734C33.5976 6.64111 33.8166 6.63616 34.0223 6.57306C34.2279 6.50996 34.412 6.39117 34.5543 6.22984C34.4054 6.13486 34.2825 6.00425 34.1968 5.84984C34.1178 5.68529 34.0808 5.50372 34.0891 5.32137C34.0973 5.13901 34.1507 4.96155 34.2443 4.80484C34.5293 4.40234 34.9568 4.68734 35.0768 4.97234C35.1435 5.17089 35.1611 5.38266 35.128 5.58949C35.0949 5.79631 35.0121 5.99203 34.8868 6.15984C35.0993 6.25484 36.2393 6.51484 36.3593 5.27984C36.3593 5.20984 36.4293 5.18484 36.4768 5.18484C36.5243 5.18484 36.5718 5.25734 36.5718 5.30484C36.4543 6.22984 35.9068 6.44484 35.5993 6.49234C35.309 6.52665 35.0149 6.4772 34.7518 6.34984C34.58 6.55266 34.3543 6.7026 34.1007 6.78225C33.8471 6.86191 33.5762 6.86801 33.3193 6.79984ZM34.4118 4.94734C34.3348 5.06703 34.2918 5.2054 34.2874 5.34763C34.283 5.48986 34.3174 5.63062 34.3868 5.75484C34.4473 5.88526 34.5469 5.9936 34.6718 6.06484C34.7764 5.92308 34.8461 5.75864 34.8752 5.58488C34.9043 5.41113 34.892 5.23295 34.8393 5.06484C34.8143 4.92484 34.5768 4.73484 34.4118 4.94734Z" fill="#414141"/>
<path d="M39.6616 15.5898C39.635 15.5857 39.6101 15.5748 39.589 15.5582C39.568 15.5415 39.5516 15.5197 39.5416 15.4948C39.5387 15.4664 39.547 15.438 39.5648 15.4156C39.5825 15.3932 39.6082 15.3786 39.6366 15.3748C39.6841 15.3748 40.6816 15.2573 40.8866 15.2573C40.9151 15.2615 40.9412 15.2758 40.96 15.2976C40.9789 15.3194 40.9893 15.3472 40.9893 15.3761C40.9893 15.4049 40.9789 15.4328 40.96 15.4546C40.9412 15.4764 40.9151 15.4907 40.8866 15.4948C40.4769 15.5058 40.068 15.5375 39.6616 15.5898Z" fill="#414141"/>
<path d="M41.251 16.8476C40.8168 16.6511 40.3729 16.4768 39.921 16.3251C39.9062 16.3211 39.8923 16.3141 39.8803 16.3045C39.8682 16.2949 39.8583 16.2829 39.8511 16.2694C39.8438 16.2558 39.8395 16.2408 39.8383 16.2255C39.837 16.2102 39.8389 16.1947 39.8439 16.1802C39.8489 16.1656 39.8568 16.1522 39.8671 16.1408C39.8775 16.1294 39.8901 16.1203 39.9041 16.114C39.9181 16.1076 39.9333 16.1043 39.9487 16.104C39.9641 16.1038 39.9793 16.1067 39.9935 16.1126C40.4474 16.2587 40.8916 16.4332 41.3235 16.6351C41.3472 16.6492 41.3651 16.6714 41.3738 16.6975C41.3825 16.7237 41.3815 16.7521 41.371 16.7776C41.3235 16.8476 41.2985 16.8476 41.251 16.8476Z" fill="#414141"/>
<path d="M40.5389 20.6252C40.5389 20.5777 40.4689 20.5552 40.4214 20.5552L40.2064 20.6027C40.1957 20.5292 40.1706 20.4585 40.1324 20.3947C40.0943 20.331 40.0439 20.2754 39.9842 20.2313C39.9244 20.1871 39.8565 20.1552 39.7844 20.1374C39.7123 20.1197 39.6373 20.1163 39.5639 20.1277C39.2564 20.1752 39.1839 20.5077 39.1614 20.8402L38.3539 21.0302C38.3481 20.9322 38.3682 20.8345 38.4121 20.7468C38.4559 20.659 38.5221 20.5843 38.6039 20.5302C38.6152 20.5261 38.6254 20.5198 38.6341 20.5115C38.6427 20.5032 38.6495 20.4931 38.6539 20.4821C38.6584 20.471 38.6605 20.4591 38.6601 20.4471C38.6596 20.4351 38.6567 20.4234 38.6514 20.4127C38.6471 20.4013 38.6404 20.391 38.6319 20.3824C38.6234 20.3738 38.6131 20.367 38.6019 20.3625C38.5906 20.3581 38.5785 20.356 38.5664 20.3564C38.5542 20.3569 38.5423 20.3599 38.5314 20.3652C38.4211 20.4469 38.3329 20.5549 38.2748 20.6793C38.2168 20.8037 38.1907 20.9406 38.1989 21.0777L37.9489 21.1252C37.9014 21.1252 37.8789 21.1952 37.8789 21.2427C37.8789 21.2902 37.9264 21.3152 37.9739 21.3152L38.2239 21.2677C38.26 21.4102 38.3424 21.5367 38.4583 21.6273C38.5742 21.7178 38.7169 21.7672 38.8639 21.7677C39.2689 21.7202 39.3164 21.3402 39.3639 21.0177L40.1014 20.8527C40.1148 20.9706 40.1148 21.0897 40.1014 21.2077C40.1014 21.2552 40.1239 21.3027 40.1714 21.3027C40.2189 21.3027 40.2664 21.2802 40.2664 21.2327C40.2807 21.0981 40.2807 20.9623 40.2664 20.8277L40.4814 20.7802C40.5014 20.7598 40.5168 20.7355 40.5267 20.7088C40.5366 20.6821 40.5408 20.6536 40.5389 20.6252ZM38.8514 21.5752C38.5439 21.5752 38.3764 21.2202 38.3764 21.2202L39.1614 21.0302C39.1139 21.3852 39.0664 21.5752 38.8514 21.5752ZM39.3739 20.8252C39.3739 20.1602 39.8514 20.3502 39.9214 20.4227C39.9844 20.4879 40.0263 20.5707 40.0414 20.6602L39.3739 20.8252Z" fill="white"/>
<path d="M38.6865 9.675C38.6002 9.59244 38.5046 9.52028 38.4015 9.46L38.4965 9.3175C38.519 9.27 38.519 9.2225 38.4715 9.2C38.424 9.1775 38.3765 9.175 38.354 9.2225L38.234 9.39C38.1332 9.33599 38.0168 9.31819 37.9045 9.33958C37.7921 9.36096 37.6905 9.42023 37.6165 9.5075C37.499 9.675 37.569 9.8875 37.664 10.15L37.2365 10.72C37.1923 10.6937 37.1572 10.6543 37.1362 10.6073C37.1152 10.5604 37.1092 10.508 37.119 10.4575C37.1415 10.41 37.094 10.3625 37.0465 10.34C36.999 10.3175 36.9515 10.3625 36.929 10.41C36.9112 10.4994 36.9197 10.5921 36.9534 10.6768C36.9871 10.7616 37.0446 10.8347 37.119 10.8875L36.999 11.0525C36.9765 11.1 36.9765 11.1475 37.024 11.1725C37.0715 11.1975 37.094 11.195 37.1415 11.1475L37.284 10.9575C37.372 11.0036 37.4696 11.0285 37.569 11.03C37.6402 11.0335 37.711 11.0177 37.7739 10.9843C37.8369 10.9508 37.8896 10.901 37.9265 10.84C37.971 10.737 37.99 10.6248 37.9817 10.5129C37.9734 10.401 37.9382 10.2928 37.879 10.1975L38.2815 9.65C38.424 9.745 38.5315 9.84 38.5315 9.84C38.5486 9.8524 38.5691 9.85907 38.5902 9.85907C38.6113 9.85907 38.6319 9.8524 38.649 9.84C38.6708 9.81927 38.6861 9.79254 38.6927 9.76317C38.6994 9.73381 38.6972 9.70313 38.6865 9.675ZM37.784 10.695C37.742 10.7466 37.6834 10.782 37.6182 10.7952C37.553 10.8084 37.4853 10.7986 37.4265 10.7675L37.7515 10.315C37.8082 10.4335 37.8197 10.5686 37.784 10.695ZM37.784 9.945C37.664 9.8025 37.664 9.3525 38.0915 9.5175L37.784 9.945Z" fill="white"/>
<path d="M29.6837 2.28737C29.5867 2.18407 29.463 2.10966 29.3262 2.07237L29.3737 1.92987C29.3797 1.91885 29.3832 1.90671 29.3842 1.89423C29.3852 1.88175 29.3835 1.8692 29.3794 1.85739C29.3752 1.84558 29.3687 1.83477 29.3601 1.82564C29.3515 1.81652 29.3411 1.80928 29.3296 1.80439C29.3181 1.7995 29.3057 1.79707 29.2932 1.79725C29.2806 1.79743 29.2683 1.80022 29.2569 1.80545C29.2455 1.81067 29.2354 1.81821 29.2271 1.82758C29.2188 1.83695 29.2125 1.84795 29.2087 1.85987L29.1362 2.04987H28.9462C28.8623 2.05752 28.7829 2.09131 28.7192 2.14648C28.6555 2.20165 28.6108 2.27541 28.5912 2.35737C28.4962 2.64237 28.6612 2.83237 28.8412 2.99987L28.6287 3.68987C28.5797 3.66147 28.5402 3.61934 28.5148 3.5687C28.4895 3.51805 28.4796 3.4611 28.4862 3.40487C28.4862 3.35737 28.4612 3.30987 28.4137 3.30987C28.3662 3.30987 28.3187 3.33237 28.3187 3.37987C28.3026 3.47892 28.318 3.58053 28.3629 3.67028C28.4078 3.76004 28.4798 3.83337 28.5687 3.87987L28.5212 4.04487C28.5159 4.05579 28.5129 4.06769 28.5125 4.07982C28.512 4.09195 28.5141 4.10404 28.5186 4.11533C28.523 4.12662 28.5298 4.13685 28.5384 4.14538C28.5471 4.15391 28.5574 4.16055 28.5687 4.16487C28.5687 4.16487 28.6637 4.18737 28.6862 4.11737L28.7337 3.94987C28.7871 3.97038 28.8442 3.97891 28.9012 3.97487C29.0154 3.98026 29.1281 3.94826 29.2224 3.88374C29.3167 3.81922 29.3874 3.7257 29.4237 3.61737C29.5412 3.26237 29.0437 2.95237 29.0437 2.95237L29.2562 2.26237C29.3659 2.28826 29.4652 2.34663 29.5412 2.42987C29.5473 2.43966 29.5553 2.44808 29.5647 2.45458C29.5742 2.46109 29.585 2.46555 29.5963 2.46767C29.6076 2.46979 29.6192 2.46952 29.6304 2.46689C29.6415 2.46425 29.6521 2.45931 29.6612 2.45237C29.6762 2.42792 29.6859 2.40063 29.6898 2.37223C29.6936 2.34383 29.6916 2.31494 29.6837 2.28737ZM28.7812 3.74987L28.9937 3.10987C29.6587 3.49987 29.0662 3.92737 28.7812 3.74987ZM28.8987 2.79987C28.8466 2.76481 28.8057 2.71536 28.7811 2.65754C28.7564 2.59971 28.7491 2.53599 28.7599 2.47408C28.7708 2.41217 28.7994 2.35473 28.8422 2.30873C28.885 2.26272 28.9403 2.23012 29.0012 2.21487H29.0962L28.8987 2.79987Z" fill="white"/>
<path d="M19.6836 5.42258L19.7536 5.35258C19.8605 5.23721 19.9219 5.08699 19.9265 4.92977C19.9311 4.77255 19.8786 4.619 19.7786 4.49758C19.5286 4.16508 19.2311 4.24758 18.9461 4.35508L18.4011 3.60508C18.515 3.53634 18.6501 3.51146 18.7811 3.53508C18.8286 3.53508 18.8761 3.51008 18.8761 3.46258C18.8761 3.41508 18.8511 3.36758 18.8036 3.36758C18.6282 3.35031 18.452 3.39258 18.3036 3.48758L18.1836 3.32008C18.1778 3.31037 18.17 3.30199 18.1608 3.2955C18.1515 3.28901 18.141 3.28456 18.1299 3.28243C18.1188 3.28031 18.1073 3.28056 18.0963 3.28317C18.0854 3.28578 18.075 3.29069 18.0661 3.29758C18.0565 3.30342 18.0481 3.31117 18.0416 3.32034C18.0351 3.32952 18.0305 3.33993 18.0282 3.35093C18.0259 3.36194 18.0258 3.37331 18.028 3.38434C18.0302 3.39537 18.0347 3.40583 18.0411 3.41508L18.1611 3.58258C18.0909 3.64703 18.0273 3.7182 17.9711 3.79508C17.8898 3.90082 17.8457 4.03046 17.8457 4.16383C17.8457 4.29721 17.8898 4.42684 17.9711 4.53258C18.2211 4.93508 18.6111 4.74508 18.8961 4.60258L19.4436 5.38758C19.3591 5.44868 19.2623 5.49043 19.1599 5.50987C19.0575 5.52931 18.952 5.52597 18.8511 5.50008C18.84 5.49415 18.8279 5.49059 18.8154 5.48962C18.8029 5.48864 18.7904 5.49029 18.7786 5.49444C18.7668 5.49859 18.756 5.50516 18.7468 5.51373C18.7377 5.52229 18.7305 5.53267 18.7256 5.54419C18.7207 5.55572 18.7183 5.56814 18.7184 5.58065C18.7186 5.59317 18.7214 5.60551 18.7266 5.61689C18.7319 5.62826 18.7394 5.63843 18.7488 5.64673C18.7581 5.65502 18.7691 5.66128 18.7811 5.66508C18.9092 5.71513 19.0477 5.73264 19.1843 5.71606C19.3208 5.69949 19.4511 5.64933 19.5636 5.57008L19.6586 5.69008C19.6739 5.70556 19.6936 5.716 19.7151 5.72002C19.7365 5.72404 19.7586 5.72145 19.7786 5.71258C19.7883 5.7068 19.7967 5.69903 19.8032 5.68977C19.8096 5.68052 19.8141 5.66999 19.8162 5.65889C19.8183 5.64779 19.8181 5.63636 19.8155 5.62536C19.8129 5.61436 19.808 5.60404 19.8011 5.59508L19.6836 5.42258ZM18.0911 4.42258C17.8411 4.17258 18.1861 3.75758 18.2586 3.71008L18.7811 4.46008C18.4486 4.61508 18.2811 4.64008 18.0911 4.42508V4.42258ZM19.6111 4.61258C19.6857 4.69945 19.7249 4.81127 19.7207 4.92574C19.7165 5.0402 19.6694 5.14888 19.5886 5.23008L19.5636 5.25508L19.0411 4.50508C19.2786 4.42508 19.4686 4.40258 19.6111 4.61508V4.61258Z" fill="white"/>
<path d="M13.6961 13.4526L13.5011 13.3801C13.5261 13.3101 13.7511 12.5976 13.0261 12.4301C12.6711 12.3351 12.5036 12.6801 12.3611 12.9526L11.4586 12.5976C11.5536 12.4301 11.6736 12.2876 11.7911 12.2651C11.813 12.2536 11.8314 12.2364 11.8442 12.2152C11.857 12.1941 11.8637 12.1698 11.8636 12.1451C11.8527 12.1246 11.8365 12.1073 11.8167 12.095C11.797 12.0827 11.7744 12.0758 11.7511 12.0751C11.5522 12.1666 11.3926 12.3262 11.3011 12.5251L11.0861 12.4551C11.0647 12.4483 11.0416 12.4497 11.0212 12.459C11.0008 12.4684 10.9847 12.485 10.9759 12.5057C10.9671 12.5263 10.9664 12.5495 10.9738 12.5707C10.9813 12.5918 10.9964 12.6094 11.0161 12.6201L11.1811 12.6926C11.1406 12.7776 11.1184 12.8702 11.1158 12.9643C11.1132 13.0585 11.1304 13.1521 11.1662 13.2393C11.202 13.3264 11.2556 13.4051 11.3236 13.4702C11.3916 13.5354 11.4725 13.5856 11.5611 13.6176C12.0611 13.8326 12.2736 13.5001 12.4411 13.1676L13.2511 13.4751C13.212 13.5701 13.1465 13.6519 13.0623 13.7109C12.9781 13.7698 12.8788 13.8034 12.7761 13.8076C12.7286 13.8076 12.6811 13.8326 12.6811 13.8801C12.6811 13.9276 12.7036 13.9751 12.7511 13.9751C12.8952 13.9779 13.0366 13.9359 13.1557 13.8548C13.2749 13.7737 13.3659 13.6576 13.4161 13.5226L13.6661 13.6176C13.6846 13.6177 13.7028 13.6134 13.7193 13.6052C13.7358 13.5969 13.7501 13.5849 13.7611 13.5701C13.7588 13.5471 13.7519 13.5248 13.7407 13.5046C13.7295 13.4844 13.7144 13.4667 13.6961 13.4526ZM11.6311 13.4526C11.5047 13.3954 11.4049 13.2922 11.3519 13.164C11.299 13.0358 11.2969 12.8923 11.3461 12.7626L12.2511 13.0951C12.1061 13.4276 11.9636 13.5951 11.6311 13.4526ZM12.5011 13.0001C12.6436 12.7151 12.7386 12.5501 12.9536 12.5976C13.4986 12.6926 13.3086 13.2626 13.3086 13.3101L12.5011 13.0001Z" fill="white"/>
<path d="M35.9061 48.6076H11.6311C10.5136 48.6076 9.18359 47.5851 9.18359 46.4701L9.20609 32.8826C9.20609 31.6701 10.2061 30.2926 11.4161 30.2926L36.3336 30.3876C36.906 30.4095 37.4479 30.6516 37.8462 31.0634C38.2444 31.4751 38.4683 32.0248 38.4711 32.5976V46.0651C38.4701 46.4006 38.4029 46.7326 38.2734 47.0421C38.1439 47.3516 37.9546 47.6325 37.7163 47.8687C37.478 48.1049 37.1954 48.2917 36.8848 48.4185C36.5742 48.5453 36.2416 48.6096 35.9061 48.6076Z" fill="white"/>
<path d="M12.0802 48.7499C10.0635 48.7033 9.04183 47.7766 9.01517 45.9699C8.99267 43.5724 9.08767 33.6424 9.08767 33.0724C9.10235 32.4904 9.23147 31.917 9.46767 31.3849C9.62054 31.0133 9.88091 30.6957 10.2154 30.473C10.5499 30.2503 10.9433 30.1326 11.3452 30.1349C11.3737 30.1391 11.3998 30.1534 11.4186 30.1752C11.4375 30.197 11.4479 30.2248 11.4479 30.2537C11.4479 30.2825 11.4375 30.3104 11.4186 30.3322C11.3998 30.354 11.3737 30.3683 11.3452 30.3724C9.51517 30.3724 9.34517 32.6224 9.32517 33.0799C9.30267 33.6274 9.20517 43.5549 9.25517 45.9549C9.27767 47.5924 10.2052 48.4249 12.0577 48.4724C13.1977 48.4949 33.6977 48.4949 35.6202 48.4724C37.4252 48.4474 38.3702 46.9524 38.3702 46.1674C38.3702 46.0499 38.3952 35.3374 38.3477 33.0074C38.2752 30.5374 36.6852 30.5624 35.9952 30.5624C35.9477 30.5624 35.7577 30.5849 35.7577 30.4424C35.7577 30.2999 35.9477 30.3249 35.9952 30.3249C36.6852 30.3249 38.5377 30.2999 38.6077 33.0074C38.6802 35.3374 38.6327 46.0499 38.6327 46.1924C38.5793 46.8019 38.3139 47.3734 37.8827 47.8074C37.5926 48.1065 37.2457 48.3446 36.8623 48.5077C36.4789 48.6709 36.0668 48.7558 35.6502 48.7574L12.0802 48.7499Z" fill="#414141"/>
<path d="M15.1687 29.5574C15.1897 29.5849 15.2168 29.6071 15.2478 29.6225C15.2788 29.6378 15.3129 29.6458 15.3475 29.6458C15.382 29.6458 15.4162 29.6378 15.4472 29.6225C15.4782 29.6071 15.5052 29.5849 15.5262 29.5574C16.5012 28.2274 21.3687 22.1449 28.0437 23.9749C35.3837 25.9949 36.1437 31.7899 36.1437 32.9299C36.1687 37.0399 32.2487 40.8149 30.9887 42.2899C30.9506 42.3332 30.8971 42.3598 30.8396 42.364C30.782 42.3682 30.7252 42.3497 30.6812 42.3124C30.3237 42.0049 29.4687 41.3874 29.0887 40.8399C29.0596 40.8057 29.0418 40.7632 29.0378 40.7185C29.0337 40.6737 29.0437 40.6288 29.0662 40.5899C29.4937 39.7574 32.0662 34.6999 31.9862 33.7024C31.9162 32.7499 30.7512 30.8499 30.4662 30.3999C30.4457 30.3688 30.4173 30.3436 30.3839 30.327C30.3506 30.3103 30.3134 30.3027 30.2762 30.3049L20.3012 30.2574C20.2617 30.2571 20.2229 30.268 20.1893 30.2888C20.1557 30.3096 20.1286 30.3394 20.1112 30.3749C19.7312 31.1599 17.4737 35.3749 14.4812 34.6249C11.9812 34.0074 10.6812 27.7599 10.4812 26.2649C10.4754 26.2376 10.475 26.2095 10.4802 26.1821C10.4854 26.1547 10.4959 26.1286 10.5113 26.1053C10.5267 26.082 10.5465 26.0621 10.5697 26.0465C10.5928 26.031 10.6188 26.0203 10.6462 26.0149L12.9737 25.5849C13.0257 25.5724 13.0805 25.5801 13.127 25.6066C13.1734 25.6331 13.208 25.6763 13.2237 25.7274C13.4837 26.3024 14.3137 28.2974 15.1687 29.5574Z" fill="#87E4FF"/>
<path d="M15.12 23.8075C15.0725 23.69 14.67 22.835 14.17 21.86C14.2913 21.905 14.4214 21.9213 14.55 21.9075C14.6925 21.8375 14.55 21.2675 14.1475 21.0525C14.0223 20.9992 13.8848 20.9811 13.75 21C13.395 20.265 13.0375 19.6 12.8475 19.29C12.3475 18.4125 11.875 18.6025 11.685 18.6725C11.495 18.7425 9.50004 19.75 9.15754 19.9125C8.50004 20.25 8.80254 20.815 8.87254 21C8.94254 21.185 11.225 25.655 11.225 25.655C11.2808 25.7797 11.3615 25.8916 11.4622 25.984C11.5629 26.0763 11.6814 26.147 11.8105 26.1917C11.9395 26.2365 12.0764 26.2543 12.2126 26.2441C12.3489 26.2339 12.4816 26.1959 12.6025 26.1325C12.77 26.0375 13.9325 25.465 14.645 25.0625C14.8657 24.9494 15.0365 24.7584 15.1243 24.5265C15.2121 24.2946 15.2106 24.0383 15.12 23.8075Z" fill="white"/>
<path d="M17.5466 37.0877C17.5469 37.0594 17.5416 37.0313 17.5309 37.005C17.5202 36.9788 17.5044 36.955 17.4843 36.9349C17.4643 36.9149 17.4405 36.8991 17.4142 36.8884C17.388 36.8777 17.3599 36.8724 17.3316 36.8727C14.9316 36.7552 12.8316 36.8252 12.2016 36.8502C12.1734 36.8499 12.1455 36.8551 12.1195 36.8657C12.0934 36.8762 12.0697 36.8918 12.0497 36.9115C12.0297 36.9313 12.0138 36.9549 12.003 36.9808C11.9921 37.0067 11.9866 37.0346 11.9866 37.0627C11.9641 38.1802 11.9866 39.7702 11.9866 40.3402C11.9862 40.3685 11.9916 40.3966 12.0022 40.4229C12.0129 40.4491 12.0288 40.4729 12.0488 40.493C12.0688 40.513 12.0927 40.5288 12.1189 40.5395C12.1451 40.5502 12.1732 40.5555 12.2016 40.5552C13.4366 40.6027 16.4991 40.5552 17.3091 40.5552C17.3372 40.5552 17.365 40.5496 17.391 40.5388C17.4169 40.528 17.4404 40.5121 17.4602 40.4921C17.48 40.4721 17.4956 40.4484 17.5061 40.4223C17.5166 40.3962 17.5219 40.3683 17.5216 40.3402C17.5691 39.5327 17.5466 37.7052 17.5466 37.0877Z" fill="#016DAB"/>
<path d="M16.5466 43.2876C16.5442 43.2506 16.5284 43.2157 16.5022 43.1895C16.476 43.1633 16.4411 43.1475 16.4041 43.1451C15.7866 43.1451 13.1041 43.1201 12.1291 43.1451C12.092 43.1475 12.0572 43.1633 12.0309 43.1895C12.0047 43.2157 11.9889 43.2506 11.9866 43.2876C11.9866 43.5001 11.9641 43.9526 11.9866 44.2126C11.9889 44.2497 12.0047 44.2846 12.0309 44.3108C12.0572 44.337 12.092 44.3528 12.1291 44.3551C12.6516 44.3551 14.5991 44.4026 16.4291 44.4026C16.4661 44.4003 16.501 44.3845 16.5272 44.3583C16.5534 44.3321 16.5692 44.2972 16.5716 44.2601C16.5716 44.0226 16.5716 43.5726 16.5466 43.2876Z" fill="#414141"/>
<path d="M22.866 43.2876C22.8637 43.2506 22.8479 43.2157 22.8217 43.1895C22.7954 43.1633 22.7606 43.1475 22.7235 43.1451C22.106 43.1451 19.421 43.1201 18.4485 43.1451C18.4115 43.1475 18.3766 43.1633 18.3504 43.1895C18.3242 43.2157 18.3084 43.2506 18.306 43.2876C18.306 43.5001 18.281 43.9526 18.306 44.2126C18.3084 44.2497 18.3242 44.2846 18.3504 44.3108C18.3766 44.337 18.4115 44.3528 18.4485 44.3551C18.971 44.3551 20.8935 44.3551 22.7235 44.3801C22.7604 44.3773 22.795 44.3613 22.8211 44.3352C22.8472 44.3091 22.8632 44.2745 22.866 44.2376V43.2876Z" fill="#414141"/>
<path d="M29.2511 41.0001C29.5454 41.4287 29.9157 41.7998 30.3436 42.0951C30.3436 42.0951 30.1536 43.4001 29.6311 43.7326C29.6311 43.7326 29.9161 45.2326 29.6786 45.2526C29.4411 45.2726 29.0136 44.3026 29.0136 44.3026C29.0136 44.3026 28.9411 45.5376 28.7986 45.5526C28.6561 45.5676 28.3486 45.4326 28.2761 44.4126C28.2761 44.4126 27.7536 45.4326 27.6111 45.4126C27.4686 45.3926 27.3261 45.1626 27.3736 44.7476C27.3736 44.7476 26.9236 44.8901 27.0411 44.1526C27.1586 43.4151 27.8261 42.4676 27.8261 42.4676C27.8261 42.4676 27.1836 42.6801 27.1611 42.5151C27.1386 42.3501 27.6111 41.8726 28.4111 41.7651C28.6637 41.4816 28.9452 41.2252 29.2511 41.0001Z" fill="#FDAF31"/>
<path d="M30.5009 42.1477C30.4991 42.1035 30.4824 42.0612 30.4534 42.0277C30.0444 41.7295 29.677 41.3781 29.3609 40.9827C29.3134 40.9352 29.2409 40.9102 29.1934 40.9577C28.9114 41.1542 28.6493 41.3778 28.4109 41.6252C27.5559 41.8752 27.0809 42.2902 27.0084 42.5027C26.9859 42.5752 27.0334 42.7652 27.6034 42.6927C27.5084 42.8602 27.4134 43.0027 27.3409 43.1452H24.9084C24.8713 43.1476 24.8364 43.1634 24.8102 43.1896C24.784 43.2158 24.7682 43.2507 24.7659 43.2877C24.7659 43.5002 24.7434 43.9527 24.7659 44.2127C24.7682 44.2498 24.784 44.2847 24.8102 44.3109C24.8364 44.3371 24.8713 44.3529 24.9084 44.3552H26.9284C26.9509 45.0452 27.2134 44.9502 27.2834 44.9252C27.3309 45.4727 27.5459 45.5427 27.6159 45.5677C27.6859 45.5927 27.8659 45.6152 28.1859 44.8177C28.2109 45.1502 28.4484 45.7677 28.7334 45.7202C29.0184 45.6727 29.0409 45.2202 29.0884 44.6752C29.2784 45.0802 29.5159 45.4252 29.7309 45.3877C29.7784 45.3877 30.0859 45.2702 29.7534 43.8202C30.3484 43.2502 30.4659 42.1952 30.5009 42.1477ZM27.2934 42.4552C27.2934 42.3602 27.6509 42.1702 28.0059 42.0052C27.9146 42.1178 27.8311 42.2364 27.7559 42.3602C27.605 42.4187 27.4451 42.4509 27.2834 42.4552H27.2934ZM29.5259 43.7052C29.4965 43.7375 29.4796 43.7792 29.4784 43.8227C29.5734 44.3227 29.7284 45.1052 29.6209 45.1302C29.5034 45.1052 29.2884 44.6077 29.1209 44.1802C29.1565 43.9281 29.2203 43.6807 29.3109 43.4427C29.3235 43.4112 29.323 43.376 29.3097 43.3449C29.2963 43.3137 29.2711 43.2891 29.2396 43.2765C29.2081 43.2639 29.1729 43.2643 29.1417 43.2777C29.1106 43.291 29.086 43.3162 29.0734 43.3477C29.0734 43.3727 28.7884 44.2277 28.8109 44.6777C28.81 44.9496 28.7782 45.2206 28.7159 45.4852C28.671 45.4523 28.6313 45.4126 28.5984 45.3677C28.5034 45.2477 28.3134 44.8677 28.4559 44.1177C28.5489 43.7849 28.6676 43.4598 28.8109 43.1452C28.8171 43.1296 28.8202 43.113 28.82 43.0962C28.8198 43.0794 28.8163 43.0628 28.8097 43.0474C28.8031 43.0319 28.7935 43.0179 28.7814 43.0062C28.7694 42.9945 28.7552 42.9852 28.7396 42.979C28.724 42.9728 28.7073 42.9696 28.6906 42.9699C28.6738 42.9701 28.6572 42.9736 28.6417 42.9802C28.6263 42.9868 28.6123 42.9964 28.6006 43.0084C28.5888 43.0204 28.5796 43.0346 28.5734 43.0502C28.5734 43.0727 28.3834 43.5002 28.2184 44.0502C28.0534 44.6002 27.7659 45.3327 27.5759 45.2852C27.4584 45.2602 27.4809 44.9277 27.5059 44.7377C27.682 44.058 27.9619 43.4096 28.3359 42.8152C28.3481 42.8031 28.3575 42.7885 28.3636 42.7723C28.3696 42.7562 28.3721 42.739 28.3709 42.7218C28.3697 42.7046 28.3649 42.6879 28.3566 42.6728C28.3484 42.6577 28.337 42.6445 28.3232 42.6342C28.3094 42.6238 28.2936 42.6166 28.2768 42.6129C28.26 42.6093 28.2426 42.6093 28.2257 42.6129C28.2089 42.6166 28.1931 42.6238 28.1793 42.6341C28.1655 42.6445 28.1541 42.6576 28.1459 42.6727C27.7568 43.282 27.461 43.946 27.2684 44.6427C27.2209 44.6677 27.1009 44.6902 27.1484 44.2877C27.2684 43.3852 28.0509 42.0552 29.1909 41.2477C29.4936 41.6031 29.8367 41.9219 30.2134 42.1977C30.1809 42.4327 30.0009 43.2627 29.5159 43.7152L29.5259 43.7052Z" fill="#414141"/>
<path d="M35.7625 43.2876C35.7602 43.2506 35.7444 43.2157 35.7182 43.1895C35.6919 43.1633 35.657 43.1475 35.62 43.1451C35.0025 43.1451 32.32 43.1201 31.345 43.1451C31.308 43.1475 31.2731 43.1633 31.2469 43.1895C31.2206 43.2157 31.2049 43.2506 31.2025 43.2876C31.2025 43.5001 31.1775 43.9526 31.2025 44.2126C31.2049 44.2497 31.2206 44.2846 31.2469 44.3108C31.2731 44.337 31.308 44.3528 31.345 44.3551C31.8675 44.3551 33.7925 44.3551 35.62 44.3801C35.657 44.3778 35.6919 44.362 35.7182 44.3358C35.7444 44.3096 35.7602 44.2747 35.7625 44.2376C35.7625 44.0001 35.7875 43.5726 35.7625 43.2876Z" fill="#414141"/>
<path d="M13.2767 25.1557C13.2892 25.1773 13.3064 25.1959 13.3273 25.2105C13.3481 25.225 13.3723 25.2353 13.3985 25.2406C13.4246 25.2459 13.4521 25.2461 13.4795 25.2414C13.5068 25.2366 13.5335 25.2269 13.558 25.2128C13.5824 25.1986 13.6042 25.1804 13.622 25.1591C13.6398 25.1378 13.6534 25.1138 13.6619 25.0885C13.6703 25.0633 13.6736 25.0372 13.6714 25.0118C13.6692 24.9865 13.6617 24.9623 13.6492 24.9407C13.6368 24.919 13.6196 24.9004 13.5987 24.8858C13.5778 24.8713 13.5536 24.8611 13.5275 24.8558C13.5014 24.8505 13.4739 24.8502 13.4465 24.8549C13.4191 24.8597 13.3924 24.8694 13.368 24.8836C13.3435 24.8977 13.3218 24.9159 13.3039 24.9372C13.2861 24.9585 13.2726 24.9825 13.2641 25.0078C13.2556 25.033 13.2524 25.0591 13.2546 25.0845C13.2567 25.1099 13.2643 25.134 13.2767 25.1557Z" fill="#414141"/>
<path d="M22.0585 15.4C22.0585 15.4 20.8235 18.9625 21.511 21.4C21.986 23.085 23.761 23.3 23.761 23.3C23.7242 23.6733 23.6402 24.0404 23.511 24.3925C23.511 24.3925 24.261 25.2225 25.176 25.2225C26.091 25.2225 26.8135 24.63 26.9085 24.3925C26.9085 24.3925 26.766 23.2275 26.7435 22.3725C26.7435 22.3725 27.811 22.1225 28.7435 19.595C28.7435 19.595 29.8835 19.38 29.836 18.525C29.7885 17.67 29.0035 17.8125 28.7185 17.9075C28.2685 18.05 27.9835 17.455 27.8885 17.2425C27.626 16.4925 27.3185 15.675 26.961 15.4125C26.6035 15.15 25.7735 15.0325 25.3935 14.9375C24.776 14.7725 24.3235 13.585 24.276 13.465C24.2285 13.345 23.721 14.8525 22.0585 15.4Z" fill="white"/>
<path d="M26.3106 16.895C26.1906 16.705 25.9306 16.2775 25.4081 16.7775C25.3822 16.7988 25.3494 16.8097 25.3159 16.808C25.2824 16.8064 25.2507 16.7923 25.227 16.7687C25.2033 16.745 25.1893 16.7133 25.1877 16.6798C25.186 16.6463 25.1969 16.6135 25.2181 16.5875C25.3136 16.4995 25.426 16.4319 25.5486 16.3889C25.6711 16.3459 25.8011 16.3284 25.9306 16.3375C26.0512 16.3572 26.1655 16.4047 26.2644 16.4764C26.3634 16.548 26.4443 16.6417 26.5006 16.75C26.5124 16.7629 26.5206 16.7786 26.5246 16.7956C26.5286 16.8125 26.5282 16.8302 26.5234 16.847C26.5187 16.8638 26.5097 16.879 26.4974 16.8914C26.4851 16.9037 26.4699 16.9127 26.4531 16.9175C26.4281 17 26.3331 16.9425 26.3106 16.895Z" fill="#414141"/>
<path d="M23.2687 16.5874C22.8662 15.8024 22.3437 16.4199 22.3437 16.4449C22.3178 16.4662 22.2849 16.477 22.2514 16.4754C22.218 16.4738 22.1863 16.4597 22.1626 16.436C22.1389 16.4123 22.1249 16.3807 22.1232 16.3472C22.1216 16.3137 22.1324 16.2808 22.1537 16.2549C22.2385 16.1467 22.3506 16.0632 22.4786 16.013C22.6065 15.9628 22.7456 15.9478 22.8813 15.9695C23.017 15.9912 23.1444 16.0488 23.2504 16.1363C23.3563 16.2239 23.4369 16.3382 23.4837 16.4674C23.4958 16.4966 23.4978 16.529 23.4891 16.5595C23.4805 16.5899 23.4619 16.6165 23.4362 16.6349C23.3887 16.6824 23.2937 16.6349 23.2687 16.5874Z" fill="#414141"/>
<path d="M23.7689 19.2951C23.6014 19.2951 23.1264 18.7026 23.1989 18.5126C23.2464 18.4176 23.3639 18.3701 23.6989 18.3201C23.7713 18.3081 23.8431 18.2923 23.9139 18.2726C23.9614 18.1301 24.0314 17.5851 24.1039 17.1101C24.1094 17.0762 24.1279 17.0458 24.1554 17.0253C24.1829 17.0048 24.2173 16.9957 24.2514 17.0001C24.2857 17.0039 24.3171 17.0209 24.339 17.0475C24.361 17.0741 24.3717 17.1082 24.3689 17.1426C24.2039 18.3926 24.1189 18.4501 24.0839 18.4751C23.9769 18.5188 23.8654 18.5507 23.7514 18.5701C23.6814 18.5926 23.5389 18.6176 23.4664 18.6401C23.5595 18.8092 23.6893 18.9553 23.8464 19.0676C23.8745 19.0839 23.8952 19.1104 23.9041 19.1417C23.9129 19.173 23.9093 19.2065 23.8939 19.2351C23.86 19.2683 23.816 19.2894 23.7689 19.2951Z" fill="#414141"/>
<path d="M23.6964 20.8626C22.9464 20.8151 22.7939 20.1126 22.8189 19.7476C22.8238 19.7116 22.8405 19.6782 22.8664 19.6526C22.8938 19.6326 22.9277 19.6237 22.9614 19.6276L24.7114 19.7701C24.7471 19.776 24.7802 19.7926 24.8064 19.8176C24.826 19.8452 24.8348 19.879 24.8314 19.9126C24.8139 19.9376 24.6714 20.9101 23.6964 20.8626ZM23.0564 19.8901C23.0603 20.0658 23.127 20.2342 23.2444 20.3649C23.3618 20.4956 23.5222 20.5799 23.6964 20.6026C23.8841 20.6175 24.071 20.565 24.2236 20.4546C24.3761 20.3442 24.4844 20.1831 24.5289 20.0001L23.0564 19.8901Z" fill="#414141"/>
<path d="M31.7951 32.5001C31.2951 31.1701 29.8476 29.0551 29.7776 28.9601C29.7683 28.9474 29.7564 28.9367 29.7429 28.9286C29.7293 28.9206 29.7143 28.9154 29.6986 28.9133C29.683 28.9112 29.6671 28.9122 29.6519 28.9164C29.6367 28.9206 29.6225 28.9278 29.6101 28.9376C29.5975 28.9467 29.5868 28.9583 29.5788 28.9716C29.5708 28.985 29.5656 28.9998 29.5635 29.0152C29.5614 29.0307 29.5625 29.0464 29.5666 29.0614C29.5707 29.0764 29.5779 29.0904 29.5876 29.1026C29.5876 29.1026 29.9201 29.5776 30.3001 30.1951C27.9476 30.1726 21.4876 30.1251 20.2751 30.1001C20.4278 29.8031 20.555 29.4936 20.6551 29.1751C20.6613 29.1586 20.6643 29.1412 20.6638 29.1236C20.6632 29.1061 20.6593 29.0888 20.6521 29.0728C20.6449 29.0567 20.6346 29.0423 20.6218 29.0303C20.609 29.0182 20.594 29.0088 20.5776 29.0026C20.5612 28.9963 20.5437 28.9934 20.5261 28.9939C20.5086 28.9944 20.4913 28.9984 20.4753 29.0056C20.4593 29.0128 20.4448 29.0231 20.4328 29.0358C20.4207 29.0486 20.4113 29.0637 20.4051 29.0801C20.4051 29.1026 19.6226 31.0976 18.8376 32.0801C18.8252 32.0935 18.816 32.1095 18.8105 32.127C18.805 32.1444 18.8034 32.1628 18.8058 32.1809C18.8081 32.199 18.8145 32.2164 18.8243 32.2318C18.8341 32.2472 18.8472 32.2603 18.8626 32.2701C18.9326 32.3176 19.0051 32.2701 19.0526 32.2451C19.4856 31.6628 19.852 31.0339 20.1451 30.3701C21.0001 30.3701 28.1451 30.4401 30.4301 30.4651C30.8611 31.1363 31.2341 31.843 31.5451 32.5776C31.5608 32.6067 31.5859 32.6297 31.6163 32.6428C31.6467 32.656 31.6806 32.6585 31.7126 32.6501C31.7726 32.6451 31.8201 32.5726 31.7951 32.5001Z" fill="#414141"/>
<path d="M15.9281 31.0002C15.9056 30.9777 13.8631 27.7502 13.1256 25.8702C13.1188 25.8545 13.1152 25.8375 13.1152 25.8204C13.1152 25.8033 13.1187 25.7864 13.1255 25.7707C13.1323 25.755 13.1423 25.7408 13.1547 25.7291C13.1672 25.7174 13.182 25.7084 13.1981 25.7027C13.2136 25.6959 13.2304 25.6924 13.2473 25.6924C13.2642 25.6924 13.281 25.6959 13.2965 25.7027C13.312 25.7095 13.3259 25.7195 13.3374 25.732C13.3488 25.7444 13.3576 25.7591 13.3631 25.7752C14.1006 27.6527 16.1431 30.8352 16.1431 30.8577C16.1536 30.871 16.1608 30.8867 16.1641 30.9033C16.1674 30.92 16.1667 30.9372 16.1621 30.9535C16.1574 30.9699 16.149 30.9849 16.1374 30.9973C16.1259 31.0098 16.1115 31.0193 16.0956 31.0252C16.069 31.0407 16.0379 31.0467 16.0074 31.0422C15.977 31.0376 15.949 31.0228 15.9281 31.0002Z" fill="#414141"/>
<path d="M10.348 23.4751C10.348 23.4751 10.6555 23.1426 10.7505 23.5476C10.8455 23.9526 10.798 24.8301 10.703 24.8776C10.608 24.9251 10.2755 25.0201 10.158 24.7351C10.0381 24.759 9.91364 24.7349 9.81131 24.668C9.70897 24.6012 9.63687 24.497 9.61046 24.3776C9.61046 24.3776 9.23046 24.3776 9.15796 23.7851C9.15796 23.7851 8.77796 23.6176 8.90796 22.9526C9.03796 22.2876 9.59796 21.7426 9.65796 22.2876C9.65796 22.2876 9.99046 22.0376 10.038 22.8576C10.038 22.8826 10.418 22.7876 10.348 23.4751Z" fill="white"/>
<path d="M13.2683 21.3151C13.1983 21.2201 13.4833 20.8876 13.9808 21.0051C14.4783 21.1226 14.6933 21.7551 14.5758 21.8851C14.4583 22.0151 13.5308 21.6951 13.2683 21.3151Z" fill="white"/>
<path d="M15.2631 23.8326C15.1931 23.6651 14.6706 22.5026 14.4556 22.0501C14.4806 22.0501 14.6706 22.0276 14.7056 21.9076C14.7531 21.6701 14.6331 21.0051 14.0406 20.8626C13.9591 20.8415 13.8746 20.8339 13.7906 20.8401C13.7656 20.7676 12.9581 19.2726 12.8406 19.0576C12.7506 18.8451 12.4131 18.2501 11.7006 18.5351C11.0831 18.7851 9.01561 19.8901 8.99311 19.9126C8.85061 20.0326 8.42311 20.3176 8.74311 21.0301C8.88192 21.3869 9.0405 21.7358 9.21811 22.0751C9.11779 22.172 9.03341 22.2842 8.96811 22.4076C8.49311 23.3576 8.89561 23.8076 9.08561 23.9501C9.08561 23.9501 9.18061 24.5201 9.56311 24.5676C9.60827 24.6844 9.69097 24.7829 9.79822 24.8476C9.90548 24.9123 10.0312 24.9396 10.1556 24.9251C10.1846 24.9745 10.2237 25.0173 10.2704 25.0505C10.3172 25.0837 10.3704 25.1067 10.4267 25.1178C10.4829 25.1289 10.5409 25.1279 10.5967 25.1149C10.6526 25.102 10.705 25.0773 10.7506 25.0426C10.8206 25.1626 10.9406 25.4001 11.1531 25.7926C11.2296 25.9363 11.3343 26.0632 11.4611 26.1654C11.5878 26.2677 11.7339 26.3432 11.8906 26.3876C11.9915 26.4127 12.0944 26.4286 12.1981 26.4351C12.3289 26.4445 12.46 26.4195 12.5781 26.3626C12.6256 26.3401 14.5781 25.3626 14.9531 25.1276C15.1446 24.9793 15.2798 24.7702 15.3361 24.5346C15.3925 24.2991 15.3668 24.0514 15.2631 23.8326ZM13.9806 21.1001C14.1192 21.1582 14.2391 21.2533 14.3273 21.375C14.4155 21.4967 14.4685 21.6403 14.4806 21.7901C13.6481 21.6226 13.3406 21.4101 13.4106 21.2426C13.4356 21.1251 13.6481 21.0001 13.9806 21.1001ZM9.08811 23.6001C8.96811 23.4326 8.87311 23.1001 9.15811 22.5076C9.30311 22.2451 9.40811 22.1751 9.46811 22.1976C9.52811 22.2201 9.51561 22.2451 9.51561 22.3176C9.3202 22.7238 9.17657 23.153 9.08811 23.5951V23.6001ZM9.51561 24.2501C9.45217 24.2085 9.39971 24.1523 9.3627 24.0861C9.3257 24.02 9.30526 23.9458 9.30311 23.8701C9.34834 23.3711 9.49374 22.8865 9.73061 22.4451C9.75801 22.4251 9.79193 22.4162 9.82561 22.4201C9.82561 22.4201 9.89561 22.4676 9.84811 22.8476C9.69973 23.3053 9.58853 23.7744 9.51561 24.2501ZM10.2056 23.5001C10.1003 23.8634 10.044 24.2393 10.0381 24.6176C9.97648 24.6177 9.91621 24.5994 9.865 24.5651C9.81379 24.5309 9.77397 24.4821 9.75061 24.4251V24.3776C9.80018 23.9077 9.90507 23.4453 10.0631 23.0001C10.0845 22.9816 10.108 22.9657 10.1331 22.9526C10.1581 22.9776 10.2506 23.0476 10.2056 23.5226V23.5001ZM10.6556 24.7501C10.5989 24.789 10.5338 24.8138 10.4656 24.8226C10.4189 24.8226 10.3714 24.7751 10.3231 24.6801C10.3337 24.3195 10.3934 23.962 10.5006 23.6176L10.6181 23.5001C10.6431 23.5226 10.6906 23.6176 10.6906 23.9751C10.6906 24.3326 10.6556 24.6626 10.6556 24.7501ZM9.77811 21.4101C9.84811 21.6226 10.2781 22.4551 10.7031 23.2626C10.6329 23.2497 10.5609 23.2497 10.4906 23.2626C10.4906 22.9776 10.3481 22.6926 10.1581 22.7151C10.1806 22.4651 10.0631 22.1226 9.80061 22.1701C9.73061 21.8376 9.51561 21.9201 9.44561 21.9201C9.35061 21.7526 9.18311 21.3976 8.96811 20.8976C8.75561 20.3526 9.01561 20.1851 9.15811 20.0676C9.18311 20.0676 11.1781 18.9501 11.7956 18.7126C12.2481 18.5476 12.4606 18.8076 12.6506 19.1401C12.7456 19.3076 13.3881 20.5426 13.5531 20.8501C13.43 20.8889 13.3166 20.9537 13.2206 21.0401C12.9706 20.5401 12.7206 20.0901 12.6281 19.9251C12.3906 19.4501 12.2006 19.2126 11.7481 19.2826C11.0117 19.5376 10.3161 19.898 9.68311 20.3526C9.32561 20.7201 9.63561 21.0776 9.77811 21.4101ZM14.7781 24.8301C14.4231 25.0801 12.4756 26.0176 12.4281 26.0651C12.2663 26.1156 12.0942 26.1242 11.9281 26.0901C11.8055 26.0537 11.6916 25.9925 11.5936 25.9104C11.4956 25.8283 11.4154 25.7269 11.3581 25.6126C11.0731 25.1126 10.9556 24.8776 10.9081 24.8051V23.6426C11.0731 23.9751 11.2406 24.3076 11.3831 24.5451C11.8581 25.4476 12.3081 25.2576 12.5456 25.1376C12.7831 25.0176 13.3531 24.6376 14.0456 24.3076C14.7381 23.9776 14.5206 23.4751 14.4006 23.2626C14.3531 23.1426 13.9731 22.4776 13.5931 21.7426C13.7787 21.8355 13.969 21.9189 14.1631 21.9926C14.4481 22.5851 14.9956 23.7426 15.0431 23.9151C15.1681 24.3301 15.0981 24.6401 14.7881 24.8301H14.7781Z" fill="#414141"/>
<path d="M12.296 23.1674C12.176 23.1674 11.9385 23.0724 11.346 22.5974C11.3319 22.5866 11.32 22.5731 11.3111 22.5577C11.3022 22.5423 11.2964 22.5252 11.2941 22.5076C11.2918 22.49 11.293 22.472 11.2976 22.4548C11.3022 22.4377 11.3101 22.4215 11.321 22.4074C11.3318 22.3933 11.3453 22.3815 11.3607 22.3726C11.3761 22.3637 11.3932 22.3579 11.4108 22.3556C11.4284 22.3533 11.4464 22.3544 11.4636 22.359C11.4807 22.3636 11.4969 22.3716 11.511 22.3824C11.7392 22.5796 11.9912 22.7476 12.261 22.8824C12.2685 22.2357 12.2048 21.5902 12.071 20.9574C12.065 20.9418 12.0628 20.9249 12.0647 20.9082C12.0665 20.8916 12.0724 20.8756 12.0817 20.8616C12.091 20.8477 12.1035 20.8362 12.1181 20.828C12.1328 20.8199 12.1492 20.8154 12.166 20.8149C12.1816 20.8089 12.1985 20.8068 12.2152 20.8086C12.2318 20.8105 12.2478 20.8163 12.2618 20.8256C12.2757 20.8349 12.2872 20.8474 12.2954 20.8621C12.3035 20.8768 12.308 20.8932 12.3085 20.9099C12.3085 20.9099 12.4035 21.4099 12.451 21.9099C12.5685 22.9099 12.4735 23.0499 12.3785 23.1224C12.3702 23.1368 12.3581 23.1486 12.3436 23.1565C12.329 23.1645 12.3125 23.1683 12.296 23.1674Z" fill="white"/>
<path d="M28.8974 18.8925C28.8792 18.8917 28.8612 18.887 28.8449 18.8789C28.8285 18.8707 28.814 18.8591 28.8024 18.845C28.7901 18.8315 28.7808 18.8155 28.7753 18.7981C28.7698 18.7807 28.7682 18.7622 28.7706 18.7441C28.773 18.726 28.7793 18.7086 28.7891 18.6932C28.799 18.6778 28.812 18.6648 28.8274 18.655C28.9424 18.5571 29.0813 18.4915 29.2299 18.465C29.2582 18.4695 29.2842 18.4833 29.3038 18.5042C29.3235 18.5251 29.3357 18.5518 29.3385 18.5804C29.3414 18.6089 29.3347 18.6375 29.3196 18.6619C29.3045 18.6862 29.2818 18.7049 29.2549 18.715C29.164 18.7367 29.0788 18.7776 29.0049 18.835C28.9449 18.8925 28.9224 18.8925 28.8974 18.8925Z" fill="#414141"/>
<path d="M33.6022 17.9176C33.7922 17.1326 34.6472 16.3976 34.5522 15.3526C34.4572 14.3076 33.5072 13.8801 33.3647 13.3101C33.1497 12.4776 33.4597 11.8376 32.8422 11.1726C32.3672 10.6476 31.9622 10.9351 31.3922 10.4351C30.8922 10.0076 30.9397 9.08011 30.0147 8.68511C29.2647 8.37511 28.4947 8.70761 27.9247 8.73261C27.1747 8.75511 26.6172 8.11511 25.6447 8.11511C24.7172 8.11511 24.3122 8.85011 23.7672 8.99261C22.9347 9.20761 22.0322 9.01761 21.2972 9.63511C20.5622 10.2526 20.5122 11.4576 19.9997 12.2176C19.5247 12.8826 18.4097 13.5701 18.2497 14.6626C18.0372 16.1351 19.1522 16.8476 18.9872 17.9651C18.7497 19.4651 18.6547 21.7651 21.5272 21.6476C21.698 22.0957 21.9831 22.4914 22.3541 22.7953C22.7252 23.0992 23.1692 23.3008 23.6422 23.3801C23.6039 23.7345 23.5319 24.0844 23.4272 24.4251C23.4186 24.4453 23.4164 24.4676 23.4209 24.489C23.4254 24.5105 23.4363 24.53 23.4522 24.5451C23.9272 25.0451 24.4522 25.3526 25.0447 25.3526C25.4168 25.3664 25.7877 25.3039 26.1347 25.1688C26.4816 25.0338 26.7973 24.8292 27.0622 24.5676C27.0926 24.536 27.1096 24.4939 27.1097 24.4501C27.0147 23.7851 26.9447 22.8576 26.9197 22.5251C27.2071 22.912 27.6182 23.189 28.0847 23.3101C28.8672 23.4751 29.5322 23.5601 30.4597 22.5026C31.2897 21.5276 32.5497 21.8376 33.1922 21.0301C34.0522 19.9376 33.3647 18.9401 33.6022 17.9176ZM28.7072 19.4626C28.6597 19.4626 28.6372 19.4851 28.6122 19.5326C28.4472 19.9376 27.5922 22.0501 26.7372 22.3126C26.7065 22.3203 26.6798 22.3392 26.6622 22.3655C26.6446 22.3919 26.6375 22.4238 26.6422 22.4551C26.6422 22.4776 26.7122 23.6426 26.8322 24.4551C26.334 24.8811 25.7049 25.1237 25.0497 25.1426C24.791 25.1274 24.5379 25.0607 24.3052 24.9465C24.0726 24.8323 23.865 24.6729 23.6947 24.4776C23.7847 24.1431 23.8482 23.8021 23.8847 23.4576C24.146 23.491 24.411 23.4826 24.6697 23.4326C24.7422 23.4101 24.7897 23.3626 24.7647 23.2901C24.7397 23.2176 24.6947 23.1726 24.6222 23.1951C22.4122 23.5276 21.7247 21.4626 21.6772 21.3676C21.4872 20.7726 21.2022 19.1351 22.1047 15.7126C23.032 15.3356 23.8259 14.6906 24.3847 13.8601C24.4996 14.2462 24.7113 14.5964 24.9997 14.8776C25.4747 15.3276 26.5447 15.3776 26.8772 15.6601C27.4222 16.1601 27.5422 16.9426 27.8022 17.4901C28.0172 17.9176 28.3972 18.2726 28.8947 18.1301C29.5122 17.9651 29.7272 18.3801 29.7497 18.5351C29.7497 18.6551 29.7047 19.4376 28.7072 19.4626Z" fill="#414141"/>
<path d="M25.7399 18.5659C25.7772 18.5728 25.8157 18.571 25.8531 18.5605C25.8905 18.55 25.9261 18.531 25.9578 18.5047C25.9895 18.4784 26.0166 18.4453 26.0375 18.4074C26.0585 18.3694 26.0729 18.3273 26.0799 18.2836C26.0869 18.2399 26.0863 18.1954 26.0783 18.1528C26.0702 18.1102 26.0547 18.0703 26.0328 18.0354C26.011 18.0005 25.9831 17.9714 25.9508 17.9498C25.9185 17.9282 25.8825 17.9144 25.8449 17.9094C25.8076 17.9025 25.7691 17.9043 25.7317 17.9148C25.6942 17.9253 25.6587 17.9443 25.627 17.9705C25.5953 17.9968 25.5682 18.03 25.5472 18.0679C25.5263 18.1059 25.5118 18.148 25.5049 18.1917C25.4979 18.2354 25.4984 18.2799 25.5065 18.3225C25.5146 18.3651 25.53 18.405 25.5519 18.4399C25.5738 18.4747 25.6017 18.5038 25.634 18.5255C25.6663 18.5471 25.7023 18.5609 25.7399 18.5659Z" fill="#414141"/>
<path d="M22.6813 18.1042C22.7186 18.1112 22.7571 18.1093 22.7945 18.0988C22.8319 18.0883 22.8675 18.0694 22.8992 18.0431C22.9309 18.0168 22.958 17.9837 22.979 17.9457C22.9999 17.9077 23.0143 17.8656 23.0213 17.8219C23.0283 17.7782 23.0278 17.7337 23.0197 17.6911C23.0116 17.6485 22.9961 17.6086 22.9743 17.5737C22.9524 17.5389 22.9245 17.5098 22.8922 17.4881C22.8599 17.4665 22.8239 17.4528 22.7863 17.4477C22.749 17.4408 22.7105 17.4426 22.6731 17.4531C22.6357 17.4636 22.6001 17.4826 22.5684 17.5089C22.5367 17.5352 22.5096 17.5683 22.4886 17.6063C22.4677 17.6442 22.4533 17.6863 22.4463 17.73C22.4393 17.7737 22.4398 17.8182 22.4479 17.8608C22.456 17.9034 22.4714 17.9434 22.4933 17.9782C22.5152 18.0131 22.5431 18.0422 22.5754 18.0638C22.6077 18.0854 22.6437 18.0992 22.6813 18.1042Z" fill="#414141"/>
<path d="M25.9531 19.8177C25.9531 19.8999 25.9932 19.9788 26.0644 20.0369C26.1357 20.095 26.2323 20.1277 26.3331 20.1277C26.4339 20.1277 26.5306 20.095 26.6018 20.0369C26.6731 19.9788 26.7131 19.8999 26.7131 19.8177C26.7131 19.7355 26.6731 19.6566 26.6018 19.5985C26.5306 19.5404 26.4339 19.5077 26.3331 19.5077C26.2323 19.5077 26.1357 19.5404 26.0644 19.5985C25.9932 19.6566 25.9531 19.7355 25.9531 19.8177Z" fill="#FDAF31"/>
<path d="M22.0234 19.6029C22.0638 19.612 22.1052 19.6148 22.1452 19.6111C22.1853 19.6075 22.2232 19.5975 22.2566 19.5817C22.29 19.566 22.3184 19.5448 22.34 19.5194C22.3616 19.494 22.376 19.4649 22.3823 19.4339C22.3886 19.4028 22.3868 19.3704 22.3769 19.3386C22.367 19.3068 22.3492 19.2761 22.3246 19.2485C22.3 19.2209 22.2691 19.1969 22.2337 19.1779C22.1983 19.1588 22.1591 19.1452 22.1184 19.1377C22.0781 19.1286 22.0366 19.1258 21.9966 19.1295C21.9566 19.1331 21.9187 19.1431 21.8852 19.1589C21.8518 19.1746 21.8235 19.1958 21.8019 19.2212C21.7803 19.2466 21.7659 19.2757 21.7596 19.3067C21.7532 19.3378 21.755 19.3702 21.765 19.402C21.7749 19.4338 21.7926 19.4645 21.8172 19.4921C21.8418 19.5197 21.8727 19.5437 21.9081 19.5627C21.9435 19.5818 21.9827 19.5954 22.0234 19.6029Z" fill="#FDAF31"/>
</svg>
