<svg width="70" height="70" viewBox="0 0 70 70" fill="none" xmlns="http://www.w3.org/2000/svg">
<rect width="70" height="70" rx="10" fill="#E7F8FF"/>
<path d="M54.2444 30.3761C54.2444 31.5461 53.5874 32.4581 52.1444 32.5421C50.9204 32.5991 50.0444 31.5731 50.0444 30.3761C50.0444 29.8164 50.2668 29.2796 50.6626 28.8838C51.0584 28.488 51.5952 28.2656 52.1549 28.2656C52.7147 28.2656 53.2515 28.488 53.6473 28.8838C54.0431 29.2796 54.2654 29.8164 54.2654 30.3761H54.2444Z" fill="#FDAF31"/>
<path d="M49.5172 19.2877C49.702 19.3964 49.9127 19.4566 50.1372 19.4647C50.3616 19.4728 50.5954 19.4287 50.8251 19.335C51.0548 19.2413 51.2759 19.0998 51.4756 18.9186C51.6753 18.7375 51.8496 18.5203 51.9887 18.2794C52.1277 18.0386 52.2287 17.779 52.2857 17.5155C52.3428 17.252 52.3548 16.9898 52.3211 16.744C52.2874 16.4982 52.2087 16.2737 52.0894 16.0834C51.9702 15.893 51.8128 15.7406 51.6262 15.6349C51.4415 15.5262 51.2308 15.4661 51.0063 15.458C50.7818 15.4499 50.548 15.4939 50.3183 15.5876C50.0886 15.6814 49.8676 15.8229 49.6679 16.004C49.4682 16.1852 49.2938 16.4024 49.1548 16.6432C49.0158 16.884 48.9148 17.1437 48.8578 17.4072C48.8007 17.6707 48.7887 17.9329 48.8224 18.1787C48.856 18.4245 48.9348 18.649 49.054 18.8393C49.1733 19.0296 49.3307 19.182 49.5172 19.2877Z" fill="#FDAF31"/>
<path d="M39.7198 10.7927C40.1301 10.862 40.5606 10.7093 40.9166 10.3683C41.2726 10.0272 41.5249 9.5258 41.6179 8.97425C41.711 8.42271 41.6373 7.86624 41.413 7.42727C41.1887 6.9883 40.8321 6.70278 40.4218 6.63352C40.2186 6.59923 40.0084 6.61906 39.803 6.69189C39.5977 6.76471 39.4013 6.88911 39.225 7.05797C39.0488 7.22683 38.8961 7.43685 38.7758 7.67603C38.6554 7.91522 38.5698 8.17889 38.5237 8.45199C38.4776 8.72508 38.472 9.00226 38.5071 9.26769C38.5423 9.53312 38.6176 9.78161 38.7286 9.99897C38.8397 10.2163 38.9844 10.3983 39.1545 10.5345C39.3245 10.6707 39.5166 10.7584 39.7198 10.7927Z" fill="#FDAF31"/>
<path d="M25.968 11.6883C26.1718 11.9455 26.4114 12.1707 26.6729 12.3509C26.9343 12.531 27.2124 12.6625 27.491 12.7378C27.7697 12.813 28.0433 12.8304 28.296 12.7891C28.5488 12.7477 28.7756 12.6484 28.9635 12.4969C29.1513 12.3454 29.2964 12.1447 29.3903 11.9064C29.4842 11.6681 29.5251 11.397 29.5105 11.1088C29.496 10.8205 29.4263 10.5209 29.3056 10.2272C29.1849 9.9336 29.0154 9.65175 28.8072 9.39805C28.6033 9.14079 28.3637 8.91556 28.1022 8.73541C27.8408 8.55526 27.5627 8.42376 27.2841 8.34855C27.0055 8.27334 26.7318 8.2559 26.4791 8.29725C26.2263 8.33859 25.9995 8.4379 25.8116 8.58942C25.6238 8.74093 25.4787 8.94165 25.3848 9.17993C25.2909 9.41821 25.25 9.68932 25.2646 9.97755C25.2791 10.2658 25.3488 10.5654 25.4695 10.8591C25.5903 11.1527 25.7597 11.4345 25.968 11.6883Z" fill="#FDAF31"/>
<path d="M21.122 22.6979C20.123 23.5529 18.869 23.6399 17.786 22.4699C16.847 21.4979 17.102 19.9979 18.101 19.1459C18.3316 18.9304 18.6036 18.764 18.9004 18.6567C19.1973 18.5493 19.5128 18.5033 19.8279 18.5214C20.143 18.5395 20.4512 18.6213 20.7338 18.7619C21.0164 18.9025 21.2675 19.099 21.472 19.3394C21.6765 19.5799 21.8301 19.8593 21.9235 20.1608C22.017 20.4623 22.0483 20.7796 22.0155 21.0935C21.9828 21.4075 21.8867 21.7115 21.7332 21.9873C21.5796 22.263 21.3716 22.5048 21.122 22.6979Z" fill="#FDAF31"/>
<path d="M54.2451 29.5981C54.0751 29.0929 53.7295 28.6655 53.2711 28.3936C52.8126 28.1216 52.2719 28.0232 51.747 28.1162C51.2222 28.2092 50.7481 28.4874 50.411 28.9003C50.0739 29.3131 49.8962 29.8333 49.9101 30.3661C49.8976 30.6666 49.9471 30.9664 50.0556 31.2469C50.164 31.5273 50.3291 31.7825 50.5404 31.9964C50.7518 32.2103 51.005 32.3784 51.2841 32.4901C51.5633 32.6019 51.8625 32.655 52.1631 32.6461C53.5311 32.6281 54.8151 31.6591 54.2451 29.5981ZM52.1451 28.3441C52.5516 28.3448 52.9479 28.4711 53.2799 28.7058C53.6118 28.9405 53.863 29.2721 53.9991 29.6551C54.0518 29.919 54.0433 30.1915 53.9741 30.4515C53.9049 30.7116 53.777 30.9523 53.6001 31.1551C52.5171 32.3821 51.0921 31.6981 50.7501 31.4131C50.5764 31.2657 50.4376 31.0816 50.3437 30.8741C50.2498 30.6666 50.2032 30.4408 50.2071 30.2131C50.1681 29.4061 51.1071 28.3531 52.1331 28.3531L52.1451 28.3441ZM52.1451 32.3911C51.9006 32.4066 51.6556 32.3714 51.4254 32.2878C51.1951 32.2041 50.9846 32.0739 50.8071 31.9051L50.6631 31.7641C51.0351 32.0191 52.8591 32.8741 54.0291 31.0231C53.8161 31.8571 53.1621 32.3431 52.1331 32.4001L52.1451 32.3911Z" fill="#414141"/>
<path d="M51.6767 15.5251C50.8517 15.0391 49.6547 15.5251 49.0547 16.5781C48.6287 17.3491 48.5717 18.2041 48.9137 18.8041C49.0342 19.0332 49.2143 19.2254 49.435 19.3606C49.6557 19.4958 49.9089 19.5689 50.1677 19.5721C50.5675 19.5477 50.954 19.4192 51.2887 19.1992C51.6234 18.9792 51.8947 18.6754 52.0757 18.3181C52.6997 17.2621 52.5047 16.0081 51.6767 15.5251ZM49.2767 16.7251C49.4369 16.4097 49.6762 16.1414 49.9712 15.9463C50.2662 15.7512 50.6068 15.636 50.9597 15.6121C52.0997 15.6121 51.8597 17.1511 51.4997 17.8081C50.9597 18.7501 49.5917 19.2061 49.1357 18.7081C48.9939 18.3907 48.9331 18.0432 48.9588 17.6965C48.9845 17.3499 49.0957 17.0151 49.2827 16.7221L49.2767 16.7251ZM51.8477 18.1981C51.3077 19.1401 50.2817 19.5661 49.5677 19.1671C49.5407 19.1671 49.5407 19.1401 49.5107 19.1401C49.604 19.1623 49.6999 19.1714 49.7957 19.1671C50.5097 19.1671 52.1627 18.4561 52.0757 16.3741C52.1767 16.6758 52.2087 16.9963 52.1692 17.312C52.1298 17.6277 52.0199 17.9305 51.8477 18.1981Z" fill="#414141"/>
<path d="M40.6185 6.54629C39.3645 6.24629 38.6235 7.54229 38.4525 8.22629C38.3457 8.60491 38.3286 9.00322 38.4026 9.38961C38.4765 9.776 38.6395 10.1398 38.8785 10.4523C39.0948 10.6877 39.3838 10.8437 39.6993 10.8954C40.0148 10.9471 40.3384 10.8914 40.6185 10.7373C40.8928 10.5698 41.1285 10.346 41.31 10.0807C41.4915 9.81541 41.6147 9.51466 41.6715 9.19829C41.9865 7.99829 41.5305 6.74429 40.6185 6.54629ZM38.7075 8.29829C38.8515 7.69829 39.5355 6.70229 40.2465 6.75929C41.0175 6.81629 41.2155 8.10029 41.0175 8.84129C40.9002 9.41327 40.5616 9.91574 40.0755 10.2393C39.9334 10.3437 39.7651 10.4068 39.5894 10.4216C39.4136 10.4365 39.2372 10.4024 39.0795 10.3233C38.866 10.0371 38.7213 9.70548 38.6568 9.35427C38.5923 9.00306 38.6096 8.6417 38.7075 8.29829ZM41.4435 9.15629C41.3858 9.4353 41.2731 9.7 41.1119 9.9349C40.9506 10.1698 40.7441 10.3702 40.5045 10.5243C40.3733 10.6044 40.2266 10.6559 40.0742 10.6755C39.9217 10.6952 39.7668 10.6825 39.6195 10.6383C39.5925 10.6383 39.5925 10.6083 39.5625 10.6083C39.7866 10.5961 40.0033 10.5235 40.1895 10.3983C40.4644 10.228 40.702 10.0038 40.8881 9.73936C41.0743 9.47489 41.205 9.17554 41.2725 8.85929C41.398 8.35006 41.3783 7.81585 41.2155 7.31729C41.5256 7.87258 41.6073 8.52675 41.4435 9.14129V9.15629Z" fill="#414141"/>
<path d="M29.2732 12.3334C29.8732 11.5624 29.7292 10.2514 28.8742 9.25545C28.3909 8.65879 27.6973 8.27011 26.9362 8.16945C26.7157 8.14606 26.4929 8.16692 26.2806 8.2308C26.0684 8.29468 25.871 8.40029 25.7002 8.54145C24.8992 9.28245 24.9862 10.7374 25.8982 11.8204C26.1316 12.1222 26.4236 12.3737 26.7566 12.5598C27.0896 12.7459 27.4568 12.8628 27.8362 12.9034C28.8922 12.9604 29.2042 12.4174 29.2612 12.3334H29.2732ZM28.6732 9.42645C29.3842 10.3654 29.5732 11.4784 29.0722 12.1624C28.3342 12.4984 27.3082 12.1624 26.6002 11.2984C25.8922 10.4344 25.7002 9.24645 26.2012 8.55945C26.8522 8.08545 28.1632 8.74245 28.6762 9.42645H28.6732ZM27.8782 12.6454C27.1862 12.5626 26.553 12.2154 26.1112 11.6764C25.3402 10.7944 25.2112 9.62445 25.6822 8.94045C25.4542 9.71145 25.7122 10.6804 26.3662 11.4484C26.6162 11.7667 26.9312 12.028 27.2902 12.2147C27.6493 12.4015 28.044 12.5095 28.4482 12.5314H28.5622C28.3536 12.6456 28.1125 12.6858 27.8782 12.6454Z" fill="#414141"/>
<path d="M21.5206 19.3184C21.3114 19.0706 21.0547 18.8674 20.7656 18.7205C20.4766 18.5737 20.161 18.4862 19.8376 18.4634C19.1744 18.4164 18.5194 18.6319 18.0136 19.0634C17.7354 19.285 17.5078 19.5634 17.3459 19.88C17.1839 20.1966 17.0914 20.5441 17.0746 20.8994C17.0558 21.2059 17.0992 21.513 17.2024 21.8023C17.3055 22.0915 17.4661 22.3569 17.6746 22.5824C17.9005 22.8571 18.1832 23.0797 18.5032 23.235C18.8232 23.3904 19.173 23.4747 19.5286 23.4824C20.1431 23.4567 20.7286 23.2144 21.1816 22.7984C21.433 22.5904 21.6404 22.3345 21.7919 22.0456C21.9433 21.7566 22.0357 21.4404 22.0636 21.1154C22.1047 20.7945 22.0775 20.4685 21.9839 20.1589C21.8904 19.8492 21.7325 19.5628 21.5206 19.3184ZM17.8726 22.3994C17.684 22.1999 17.5386 21.9639 17.4451 21.7058C17.3517 21.4478 17.3124 21.1733 17.3296 20.8994C17.3339 20.7971 17.3531 20.6961 17.3866 20.5994C17.4353 21.1996 17.675 21.7684 18.0706 22.2224C18.2988 22.4911 18.583 22.7069 18.9032 22.8546C19.2234 23.0022 19.572 23.0783 19.9246 23.0774C20.1275 23.0777 20.3295 23.0494 20.5246 22.9934C19.6096 23.4494 18.6706 23.2514 17.8726 22.3994ZM21.8326 21.1154C21.7981 21.4334 21.6958 21.7403 21.5326 22.0154C21.3366 22.2499 21.0929 22.4399 20.8177 22.5729C20.5425 22.7058 20.2421 22.7786 19.9366 22.7864C19.6216 22.7858 19.3105 22.7165 19.025 22.5833C18.7395 22.4502 18.4865 22.2563 18.2836 22.0154C17.9288 21.5966 17.7101 21.0796 17.6566 20.5334C17.5726 19.7924 18.4846 18.5954 19.6516 18.7334C20.2458 18.7878 20.7984 19.0617 21.2017 19.5015C21.6049 19.9414 21.8299 20.5156 21.8326 21.1124V21.1154Z" fill="#414141"/>
<path d="M21.7753 15.2981C21.7753 15.2981 20.5213 15.0401 20.2753 14.9561C20.2584 14.9506 20.2427 14.9418 20.2291 14.9302C20.2156 14.9186 20.2045 14.9045 20.1964 14.8886C20.1883 14.8727 20.1834 14.8554 20.1821 14.8376C20.1807 14.8199 20.1828 14.802 20.1883 14.7851C20.1938 14.7681 20.2026 14.7524 20.2142 14.7389C20.2258 14.7254 20.2399 14.7142 20.2558 14.7062C20.2717 14.6981 20.289 14.6932 20.3067 14.6918C20.3245 14.6904 20.3424 14.6926 20.3593 14.6981C20.5873 14.7851 21.8143 15.0131 21.8143 15.0131C21.8713 15.0131 21.9283 15.0971 21.9283 15.1541C21.8893 15.2681 21.8323 15.2981 21.7753 15.2981Z" fill="#414141"/>
<path d="M21.719 14.3271C21.2293 13.9883 20.7632 13.6164 20.324 13.2141C20.267 13.1571 20.267 13.0731 20.324 13.0431C20.381 13.0131 20.465 12.9861 20.495 13.0431C20.8982 13.423 21.3262 13.7758 21.776 14.0991C21.833 14.1261 21.833 14.2131 21.806 14.2701C21.779 14.3271 21.749 14.3271 21.719 14.3271Z" fill="#414141"/>
<path d="M44.9806 13.1588C44.9621 13.1548 44.9446 13.147 44.9294 13.1358C44.9141 13.1246 44.9013 13.1104 44.8919 13.0939C44.8825 13.0775 44.8766 13.0593 44.8747 13.0404C44.8728 13.0216 44.8749 13.0026 44.8808 12.9846C44.8867 12.9666 44.8964 12.95 44.9091 12.936C44.9218 12.922 44.9374 12.9108 44.9547 12.9032C44.972 12.8956 44.9908 12.8917 45.0097 12.8918C45.0287 12.8919 45.0474 12.896 45.0646 12.9038C45.3145 12.9683 45.5774 12.9624 45.8242 12.8867C46.0709 12.8109 46.2919 12.6684 46.4626 12.4748C46.2839 12.3608 46.1365 12.2041 46.0336 12.0188C45.9388 11.8213 45.8944 11.6034 45.9043 11.3846C45.9143 11.1658 45.9783 10.9528 46.0906 10.7648C46.4326 10.2818 46.9456 10.6238 47.0896 10.9658C47.1697 11.204 47.1908 11.4582 47.1511 11.7064C47.1114 11.9546 47.012 12.1894 46.8616 12.3908C47.1166 12.5048 48.4846 12.8168 48.6286 11.3348C48.6286 11.2508 48.7126 11.2208 48.7696 11.2208C48.8266 11.2208 48.8836 11.3078 48.8836 11.3648C48.7426 12.4748 48.0856 12.7328 47.7166 12.7898C47.3682 12.831 47.0154 12.7716 46.6996 12.6188C46.4935 12.8622 46.2226 13.0421 45.9183 13.1377C45.614 13.2333 45.2889 13.2406 44.9806 13.1588ZM46.2916 10.9358C46.1993 11.0794 46.1477 11.2454 46.1424 11.4161C46.1371 11.5868 46.1783 11.7557 46.2616 11.9048C46.3342 12.0613 46.4538 12.1913 46.6036 12.2768C46.7291 12.1067 46.8128 11.9093 46.8477 11.7008C46.8826 11.4923 46.8679 11.2785 46.8046 11.0768C46.7746 10.9088 46.4896 10.6808 46.2916 10.9358Z" fill="#414141"/>
<path d="M52.5912 23.7056C52.5594 23.7007 52.5294 23.6876 52.5041 23.6677C52.4789 23.6477 52.4593 23.6215 52.4472 23.5916C52.4438 23.5575 52.4538 23.5234 52.475 23.4966C52.4963 23.4697 52.5272 23.4521 52.5612 23.4476C52.6182 23.4476 53.8152 23.3066 54.0612 23.3066C54.0954 23.3116 54.1267 23.3288 54.1494 23.3549C54.172 23.3811 54.1845 23.4145 54.1845 23.4491C54.1845 23.4837 54.172 23.5172 54.1494 23.5434C54.1267 23.5695 54.0954 23.5867 54.0612 23.5916C53.5696 23.6048 53.079 23.6429 52.5912 23.7056Z" fill="#414141"/>
<path d="M54.5 25.2146C53.9789 24.9788 53.4462 24.7696 52.904 24.5876C52.8862 24.5828 52.8695 24.5743 52.8551 24.5628C52.8406 24.5513 52.8287 24.537 52.82 24.5207C52.8113 24.5044 52.8061 24.4865 52.8046 24.4681C52.8032 24.4497 52.8055 24.4311 52.8114 24.4137C52.8174 24.3962 52.8269 24.3801 52.8393 24.3665C52.8517 24.3528 52.8668 24.3418 52.8836 24.3342C52.9005 24.3266 52.9187 24.3226 52.9371 24.3223C52.9556 24.322 52.9739 24.3255 52.991 24.3326C53.5356 24.5079 54.0687 24.7173 54.587 24.9596C54.6154 24.9765 54.6368 25.0031 54.6473 25.0345C54.6577 25.0659 54.6566 25.1 54.644 25.1306C54.587 25.2146 54.557 25.2146 54.5 25.2146Z" fill="#414141"/>
<path d="M53.6446 29.7494C53.6446 29.6924 53.5606 29.6654 53.5036 29.6654L53.2456 29.7224C53.2328 29.6342 53.2026 29.5494 53.1569 29.4729C53.1111 29.3964 53.0506 29.3298 52.9789 29.2768C52.9072 29.2238 52.8258 29.1855 52.7392 29.1642C52.6527 29.1428 52.5627 29.1388 52.4746 29.1524C52.1056 29.2094 52.0186 29.6084 51.9916 30.0074L51.0226 30.2354C51.0157 30.1179 51.0398 30.0006 51.0924 29.8953C51.1451 29.79 51.2245 29.7004 51.3226 29.6354C51.3361 29.6306 51.3485 29.6229 51.3588 29.613C51.3692 29.603 51.3773 29.591 51.3827 29.5777C51.3881 29.5644 51.3906 29.5501 51.39 29.5357C51.3895 29.5214 51.386 29.5073 51.3796 29.4944C51.3744 29.4808 51.3665 29.4685 51.3562 29.4581C51.346 29.4477 51.3337 29.4396 51.3202 29.4342C51.3066 29.4289 51.2921 29.4264 51.2776 29.4269C51.263 29.4275 51.2487 29.4311 51.2356 29.4374C51.1032 29.5355 50.9974 29.665 50.9277 29.8143C50.8581 29.9637 50.8267 30.128 50.8366 30.2924L50.5366 30.3494C50.4796 30.3494 50.4526 30.4334 50.4526 30.4904C50.4526 30.5474 50.5096 30.5774 50.5666 30.5774L50.8666 30.5204C50.9099 30.6915 51.0089 30.8433 51.1479 30.9519C51.287 31.0606 51.4582 31.1198 51.6346 31.1204C52.1206 31.0634 52.1776 30.6074 52.2346 30.2204L53.1196 30.0224C53.1357 30.164 53.1357 30.3069 53.1196 30.4484C53.1196 30.5054 53.1466 30.5624 53.2036 30.5624C53.2606 30.5624 53.3176 30.5354 53.3176 30.4784C53.3347 30.3169 53.3347 30.154 53.3176 29.9924L53.5756 29.9354C53.5996 29.911 53.6181 29.8819 53.63 29.8498C53.6419 29.8178 53.6469 29.7836 53.6446 29.7494ZM51.6196 30.8894C51.2506 30.8894 51.0496 30.4634 51.0496 30.4634L51.9916 30.2354C51.9346 30.6614 51.8776 30.8894 51.6196 30.8894ZM52.2466 29.9894C52.2466 29.1914 52.8196 29.4194 52.9036 29.5064C52.9793 29.5848 53.0295 29.6841 53.0476 29.7914L52.2466 29.9894Z" fill="white"/>
<path d="M51.4207 16.6082C51.3171 16.5091 51.2024 16.4225 51.0787 16.3502L51.1927 16.1792C51.2197 16.1222 51.2197 16.0652 51.1627 16.0382C51.1057 16.0112 51.0487 16.0082 51.0217 16.0652L50.8777 16.2662C50.7567 16.2014 50.6171 16.18 50.4822 16.2057C50.3474 16.2313 50.2254 16.3025 50.1367 16.4072C49.9957 16.6082 50.0797 16.8632 50.1937 17.1782L49.6807 17.8622C49.6276 17.8306 49.5856 17.7834 49.5603 17.727C49.5351 17.6706 49.5279 17.6078 49.5397 17.5472C49.5667 17.4902 49.5097 17.4332 49.4527 17.4062C49.3957 17.3792 49.3387 17.4332 49.3117 17.4902C49.2903 17.5975 49.3005 17.7087 49.341 17.8104C49.3814 17.9121 49.4504 17.9999 49.5397 18.0632L49.3957 18.2612C49.3687 18.3182 49.3687 18.3752 49.4257 18.4052C49.4827 18.4352 49.5097 18.4322 49.5667 18.3752L49.7377 18.1472C49.8433 18.2026 49.9604 18.2323 50.0797 18.2342C50.1651 18.2384 50.2501 18.2195 50.3256 18.1793C50.4011 18.1392 50.4644 18.0794 50.5087 18.0062C50.5621 17.8826 50.5848 17.7479 50.5749 17.6137C50.565 17.4794 50.5227 17.3496 50.4517 17.2352L50.9347 16.5782C51.1057 16.6922 51.2347 16.8062 51.2347 16.8062C51.2552 16.8211 51.2798 16.8291 51.3052 16.8291C51.3305 16.8291 51.3552 16.8211 51.3757 16.8062C51.4019 16.7813 51.4201 16.7492 51.4281 16.714C51.4362 16.6788 51.4336 16.6419 51.4207 16.6082ZM50.3377 17.8322C50.2873 17.8941 50.217 17.9366 50.1387 17.9524C50.0605 17.9683 49.9792 17.9566 49.9087 17.9192L50.2987 17.3762C50.3667 17.5184 50.3806 17.6805 50.3377 17.8322ZM50.3377 16.9322C50.1937 16.7612 50.1937 16.2212 50.7067 16.4192L50.3377 16.9322Z" fill="white"/>
<path d="M40.6181 7.74246C40.5017 7.6185 40.3532 7.5292 40.1891 7.48446L40.2461 7.31346C40.2532 7.30023 40.2575 7.28566 40.2587 7.27068C40.2599 7.25571 40.2579 7.24065 40.2529 7.22648C40.2479 7.21231 40.24 7.19933 40.2298 7.18838C40.2195 7.17743 40.207 7.16874 40.1932 7.16287C40.1794 7.15701 40.1645 7.15409 40.1494 7.15431C40.1344 7.15453 40.1196 7.15788 40.106 7.16414C40.0923 7.17041 40.0801 7.17945 40.0702 7.1907C40.0602 7.20195 40.0527 7.21515 40.0481 7.22946L39.9611 7.45746H39.7331C39.6324 7.46663 39.5372 7.50718 39.4607 7.57338C39.3843 7.63958 39.3306 7.7281 39.3071 7.82646C39.1931 8.16846 39.3911 8.39646 39.6071 8.59746L39.3521 9.42546C39.2934 9.39137 39.2458 9.34082 39.2155 9.28005C39.1851 9.21927 39.1731 9.15093 39.1811 9.08346C39.1811 9.02646 39.1511 8.96946 39.0941 8.96946C39.0371 8.96946 38.9801 8.99646 38.9801 9.05346C38.9607 9.17231 38.9793 9.29424 39.0332 9.40195C39.087 9.50965 39.1734 9.59766 39.2801 9.65346L39.2231 9.85146C39.2168 9.86456 39.2132 9.87884 39.2126 9.89339C39.2121 9.90795 39.2146 9.92246 39.2199 9.936C39.2253 9.94955 39.2334 9.96183 39.2438 9.97206C39.2541 9.9823 39.2665 9.99026 39.2801 9.99546C39.2801 9.99546 39.3941 10.0225 39.4211 9.93846L39.4781 9.73746C39.5421 9.76206 39.6107 9.7723 39.6791 9.76746C39.8161 9.77392 39.9514 9.73552 40.0646 9.6581C40.1777 9.58068 40.2625 9.46845 40.3061 9.33846C40.4471 8.91246 39.8501 8.54046 39.8501 8.54046L40.1051 7.71246C40.2368 7.74352 40.356 7.81357 40.4471 7.91346C40.4544 7.9252 40.464 7.9353 40.4754 7.94311C40.4867 7.95092 40.4996 7.95627 40.5132 7.95881C40.5267 7.96135 40.5407 7.96103 40.5541 7.95787C40.5675 7.95471 40.5801 7.94878 40.5911 7.94046C40.6091 7.91111 40.6207 7.87836 40.6254 7.84428C40.63 7.81021 40.6275 7.77554 40.6181 7.74246ZM39.5351 9.49746L39.7901 8.72946C40.5881 9.19746 39.8771 9.71046 39.5351 9.49746ZM39.6761 8.35746C39.6135 8.31537 39.5645 8.25604 39.5349 8.18665C39.5054 8.11726 39.4966 8.04079 39.5096 7.9665C39.5226 7.89221 39.5569 7.82329 39.6083 7.76808C39.6597 7.71287 39.726 7.67375 39.7991 7.65546H39.9131L39.6761 8.35746Z" fill="white"/>
<path d="M28.6185 11.5054L28.7025 11.4214C28.8308 11.283 28.9046 11.1027 28.9101 10.9141C28.9156 10.7254 28.8525 10.5411 28.7325 10.3954C28.4325 9.99644 28.0755 10.0954 27.7335 10.2244L27.0795 9.32444C27.2163 9.24195 27.3784 9.21209 27.5355 9.24044C27.5925 9.24044 27.6495 9.21044 27.6495 9.15344C27.6495 9.09644 27.6195 9.03944 27.5625 9.03944C27.352 9.01872 27.1407 9.06944 26.9625 9.18344L26.8185 8.98244C26.8116 8.97078 26.8023 8.96073 26.7912 8.95294C26.78 8.94516 26.7674 8.93981 26.7541 8.93726C26.7408 8.93471 26.7271 8.93501 26.7139 8.93814C26.7007 8.94128 26.6883 8.94717 26.6775 8.95544C26.666 8.96245 26.656 8.97174 26.6482 8.98275C26.6404 8.99376 26.6349 9.00625 26.6321 9.01946C26.6293 9.03267 26.6292 9.04631 26.6318 9.05955C26.6345 9.07278 26.6398 9.08534 26.6475 9.09644L26.7915 9.29744C26.7074 9.37477 26.631 9.46018 26.5635 9.55244C26.466 9.67932 26.4131 9.83489 26.4131 9.99494C26.4131 10.155 26.466 10.3106 26.5635 10.4374C26.8635 10.9204 27.3315 10.6924 27.6735 10.5214L28.3305 11.4634C28.2292 11.5368 28.113 11.5869 27.9901 11.6102C27.8672 11.6335 27.7407 11.6295 27.6195 11.5984C27.6063 11.5913 27.5917 11.587 27.5768 11.5859C27.5618 11.5847 27.5467 11.5867 27.5325 11.5917C27.5184 11.5966 27.5054 11.6045 27.4944 11.6148C27.4835 11.6251 27.4748 11.6375 27.4689 11.6514C27.4631 11.6652 27.4602 11.6801 27.4604 11.6951C27.4606 11.7101 27.4639 11.725 27.4702 11.7386C27.4765 11.7523 27.4855 11.7645 27.4968 11.7744C27.508 11.7844 27.5212 11.7919 27.5355 11.7964C27.6893 11.8565 27.8555 11.8775 28.0194 11.8576C28.1832 11.8377 28.3396 11.7775 28.4745 11.6824L28.5885 11.8264C28.607 11.845 28.6306 11.8575 28.6563 11.8624C28.682 11.8672 28.7086 11.8641 28.7325 11.8534C28.7442 11.8465 28.7542 11.8372 28.762 11.8261C28.7698 11.815 28.7752 11.8023 28.7777 11.789C28.7803 11.7757 28.78 11.762 28.7768 11.7488C28.7737 11.7356 28.7678 11.7232 28.7595 11.7124L28.6185 11.5054ZM26.7075 10.3054C26.4075 10.0054 26.8215 9.50744 26.9085 9.45044L27.5355 10.3504C27.1365 10.5364 26.9355 10.5664 26.7075 10.3084V10.3054ZM28.5315 10.5334C28.6211 10.6377 28.6681 10.7719 28.6631 10.9092C28.6581 11.0466 28.6015 11.177 28.5045 11.2744L28.4745 11.3044L27.8475 10.4044C28.1325 10.3084 28.3605 10.2814 28.5315 10.5364V10.5334Z" fill="white"/>
<path d="M21.433 21.1413L21.199 21.0543C21.229 20.9703 21.499 20.1153 20.629 19.9143C20.203 19.8003 20.002 20.2143 19.831 20.5413L18.748 20.1153C18.862 19.9143 19.006 19.7433 19.147 19.7163C19.1733 19.7025 19.1953 19.6819 19.2107 19.6565C19.226 19.6311 19.2341 19.6019 19.234 19.5723C19.2208 19.5477 19.2014 19.5269 19.1777 19.5122C19.1541 19.4974 19.1269 19.4892 19.099 19.4883C18.8603 19.5981 18.6688 19.7896 18.559 20.0283L18.301 19.9443C18.2754 19.9361 18.2476 19.9378 18.2231 19.949C18.1986 19.9602 18.1792 19.9802 18.1687 20.005C18.1582 20.0298 18.1573 20.0576 18.1663 20.083C18.1752 20.1084 18.1933 20.1295 18.217 20.1423L18.415 20.2293C18.3664 20.3313 18.3397 20.4424 18.3366 20.5554C18.3335 20.6684 18.3541 20.7808 18.3971 20.8853C18.44 20.9899 18.5044 21.0843 18.586 21.1624C18.6676 21.2406 18.7647 21.3009 18.871 21.3393C19.471 21.5973 19.726 21.1983 19.927 20.7993L20.899 21.1683C20.8521 21.2823 20.7734 21.3805 20.6724 21.4512C20.5714 21.5219 20.4522 21.5622 20.329 21.5673C20.272 21.5673 20.215 21.5973 20.215 21.6543C20.215 21.7113 20.242 21.7683 20.299 21.7683C20.4719 21.7717 20.6416 21.7212 20.7845 21.624C20.9275 21.5267 21.0367 21.3874 21.097 21.2253L21.397 21.3393C21.4191 21.3394 21.441 21.3343 21.4608 21.3244C21.4806 21.3145 21.4978 21.3001 21.511 21.2823C21.5083 21.2547 21.4999 21.228 21.4865 21.2038C21.4731 21.1795 21.4549 21.1583 21.433 21.1413ZM18.955 21.1413C18.8033 21.0727 18.6835 20.9489 18.62 20.795C18.5564 20.6412 18.5539 20.4689 18.613 20.3133L19.699 20.7123C19.525 21.1113 19.354 21.3123 18.955 21.1413ZM19.999 20.5983C20.17 20.2563 20.284 20.0583 20.542 20.1153C21.196 20.2293 20.968 20.9133 20.968 20.9703L19.999 20.5983Z" fill="white"/>
<path d="M48.0856 63.3276H18.9556C17.6146 63.3276 16.0186 62.1006 16.0186 60.7626L16.0456 44.4576C16.0456 43.0026 17.2456 41.3496 18.6976 41.3496L48.5986 41.4636C49.2855 41.4899 49.9357 41.7804 50.4136 42.2745C50.8915 42.7686 51.1602 43.4282 51.1636 44.1156V60.2766C51.1624 60.6792 51.0818 61.0776 50.9263 61.449C50.7709 61.8204 50.5437 62.1575 50.2578 62.4409C49.9718 62.7243 49.6328 62.9486 49.26 63.1007C48.8873 63.2529 48.4882 63.33 48.0856 63.3276Z" fill="white"/>
<path d="M19.4956 63.4982C17.0756 63.4422 15.8496 62.3302 15.8176 60.1622C15.7906 57.2852 15.9046 45.3692 15.9046 44.6852C15.9222 43.9868 16.0772 43.2987 16.3606 42.6602C16.5441 42.2142 16.8565 41.8332 17.2579 41.5659C17.6593 41.2987 18.1314 41.1574 18.6136 41.1602C18.6479 41.1652 18.6792 41.1823 18.7018 41.2085C18.7244 41.2347 18.7369 41.2681 18.7369 41.3027C18.7369 41.3373 18.7244 41.3707 18.7018 41.3969C18.6792 41.4231 18.6479 41.4402 18.6136 41.4452C16.4176 41.4452 16.2136 44.1452 16.1896 44.6942C16.1626 45.3512 16.0456 57.2642 16.1056 60.1442C16.1326 62.1092 17.2456 63.1082 19.4686 63.1652C20.8366 63.1922 45.4366 63.1922 47.7436 63.1652C49.9096 63.1352 51.0436 61.3412 51.0436 60.3992C51.0436 60.2582 51.0736 47.4032 51.0166 44.6072C50.9296 41.6432 49.0216 41.6732 48.1936 41.6732C48.1366 41.6732 47.9086 41.7002 47.9086 41.5292C47.9086 41.3582 48.1366 41.3882 48.1936 41.3882C49.0216 41.3882 51.2446 41.3582 51.3286 44.6072C51.4156 47.4032 51.3586 60.2582 51.3586 60.4292C51.2946 61.1606 50.9761 61.8464 50.4586 62.3672C50.1105 62.7261 49.6942 63.0118 49.2342 63.2076C48.7741 63.4033 48.2796 63.5052 47.7796 63.5072L19.4956 63.4982Z" fill="#414141"/>
<path d="M23.2009 40.4668C23.2261 40.4998 23.2585 40.5265 23.2958 40.5449C23.333 40.5633 23.3739 40.5729 23.4154 40.5729C23.4569 40.5729 23.4978 40.5633 23.535 40.5449C23.5722 40.5265 23.6047 40.4998 23.6299 40.4668C24.7999 38.8708 30.6409 31.5718 38.6509 33.7678C47.4589 36.1918 48.3709 43.1458 48.3709 44.5138C48.4009 49.4458 43.6969 53.9758 42.1849 55.7458C42.1392 55.7978 42.0749 55.8297 42.0059 55.8348C41.9369 55.8398 41.8687 55.8176 41.8159 55.7728C41.3869 55.4038 40.3609 54.6628 39.9049 54.0058C39.8699 53.9647 39.8486 53.9138 39.8437 53.8601C39.8389 53.8064 39.8508 53.7525 39.8779 53.7058C40.3909 52.7068 43.4779 46.6378 43.3819 45.4408C43.2979 44.2978 41.8999 42.0178 41.5579 41.4778C41.5332 41.4405 41.4992 41.4103 41.4592 41.3903C41.4191 41.3703 41.3745 41.3612 41.3299 41.3638L29.3599 41.3068C29.3125 41.3065 29.2659 41.3196 29.2256 41.3445C29.1852 41.3694 29.1528 41.4053 29.1319 41.4478C28.6759 42.3898 25.9669 47.4478 22.3759 46.5478C19.3759 45.8068 17.8159 38.3098 17.5759 36.5158C17.5689 36.4831 17.5685 36.4493 17.5747 36.4164C17.5809 36.3836 17.5936 36.3523 17.612 36.3243C17.6304 36.2964 17.6542 36.2724 17.682 36.2538C17.7098 36.2352 17.741 36.2223 17.7739 36.2158L20.5669 35.6998C20.6293 35.6848 20.695 35.6941 20.7508 35.7259C20.8065 35.7576 20.848 35.8095 20.8669 35.8708C21.1789 36.5608 22.1749 38.9548 23.2009 40.4668Z" fill="#7BD2FF"/>
<path d="M23.1437 33.5665C23.0867 33.4255 22.6037 32.3995 22.0037 31.2295C22.1492 31.2835 22.3053 31.303 22.4597 31.2865C22.6307 31.2025 22.4597 30.5185 21.9767 30.2605C21.8263 30.1966 21.6614 30.1748 21.4997 30.1975C21.0737 29.3155 20.6447 28.5175 20.4167 28.1455C19.8167 27.0925 19.2497 27.3205 19.0217 27.4045C18.7937 27.4885 16.3997 28.6975 15.9887 28.8925C15.1997 29.2975 15.5627 29.9755 15.6467 30.1975C15.7307 30.4195 18.4697 35.7835 18.4697 35.7835C18.5365 35.9331 18.6334 36.0675 18.7542 36.1783C18.875 36.2891 19.0173 36.3739 19.1722 36.4276C19.3271 36.4813 19.4913 36.5027 19.6548 36.4904C19.8183 36.4782 19.9775 36.4326 20.1227 36.3565C20.3237 36.2425 21.7187 35.5555 22.5737 35.0725C22.8385 34.9368 23.0434 34.7075 23.1488 34.4293C23.2541 34.151 23.2523 33.8435 23.1437 33.5665Z" fill="white"/>
<path d="M26.0541 49.5033C26.0545 49.4693 26.0481 49.4356 26.0353 49.4041C26.0225 49.3726 26.0035 49.344 25.9794 49.32C25.9554 49.2959 25.9268 49.2769 25.8953 49.2641C25.8638 49.2513 25.8301 49.2449 25.7961 49.2453C22.9161 49.1043 20.3961 49.1883 19.6401 49.2183C19.6064 49.2179 19.5729 49.2242 19.5416 49.2368C19.5103 49.2495 19.4819 49.2682 19.4579 49.2919C19.4339 49.3156 19.4148 49.3439 19.4018 49.375C19.3888 49.4061 19.3821 49.4395 19.3821 49.4733C19.3551 50.8143 19.3821 52.7223 19.3821 53.4063C19.3817 53.4403 19.3881 53.474 19.4009 53.5055C19.4138 53.537 19.4327 53.5656 19.4568 53.5896C19.4808 53.6137 19.5094 53.6326 19.5409 53.6455C19.5724 53.6583 19.6061 53.6647 19.6401 53.6643C21.1221 53.7213 24.7971 53.6643 25.7691 53.6643C25.8029 53.6643 25.8363 53.6576 25.8674 53.6446C25.8985 53.6316 25.9268 53.6125 25.9505 53.5885C25.9742 53.5645 25.9929 53.5361 26.0056 53.5048C26.0182 53.4735 26.0245 53.44 26.0241 53.4063C26.0811 52.4373 26.0541 50.2443 26.0541 49.5033Z" fill="#005BC3"/>
<path d="M24.8541 56.9421C24.8513 56.8977 24.8324 56.8559 24.8009 56.8244C24.7694 56.7929 24.7275 56.774 24.6831 56.7711C23.9421 56.7711 20.7231 56.7411 19.5531 56.7711C19.5087 56.774 19.4668 56.7929 19.4353 56.8244C19.4039 56.8559 19.3849 56.8977 19.3821 56.9421C19.3821 57.1971 19.3551 57.7401 19.3821 58.0521C19.3849 58.0966 19.4039 58.1384 19.4353 58.1699C19.4668 58.2014 19.5087 58.2203 19.5531 58.2231C20.1801 58.2231 22.5171 58.2801 24.7131 58.2801C24.7575 58.2773 24.7994 58.2584 24.8309 58.2269C24.8624 58.1954 24.8813 58.1536 24.8841 58.1091C24.8841 57.8241 24.8841 57.2841 24.8541 56.9421Z" fill="#414141"/>
<path d="M32.4385 56.9421C32.4356 56.8977 32.4167 56.8559 32.3852 56.8244C32.3538 56.7929 32.3119 56.774 32.2675 56.7711C31.5265 56.7711 28.3045 56.7411 27.1375 56.7711C27.093 56.774 27.0512 56.7929 27.0197 56.8244C26.9882 56.8559 26.9693 56.8977 26.9665 56.9421C26.9665 57.1971 26.9365 57.7401 26.9665 58.0521C26.9693 58.0966 26.9882 58.1384 27.0197 58.1699C27.0512 58.2014 27.093 58.2203 27.1375 58.2231C27.7645 58.2231 30.0715 58.2231 32.2675 58.2531C32.3117 58.2497 32.3532 58.2306 32.3845 58.1992C32.4159 58.1679 32.435 58.1264 32.4385 58.0821V56.9421Z" fill="#414141"/>
<path d="M40.0993 54.1973C40.4525 54.7116 40.8968 55.1569 41.4103 55.5113C41.4103 55.5113 41.1823 57.0773 40.5553 57.4763C40.5553 57.4763 40.8973 59.2763 40.6123 59.3003C40.3273 59.3243 39.8143 58.1603 39.8143 58.1603C39.8143 58.1603 39.7273 59.6423 39.5563 59.6603C39.3853 59.6783 39.0163 59.5163 38.9293 58.2923C38.9293 58.2923 38.3023 59.5163 38.1313 59.4923C37.9603 59.4683 37.7893 59.1923 37.8463 58.6943C37.8463 58.6943 37.3063 58.8653 37.4473 57.9803C37.5883 57.0953 38.3893 55.9583 38.3893 55.9583C38.3893 55.9583 37.6183 56.2133 37.5913 56.0153C37.5643 55.8173 38.1313 55.2443 39.0913 55.1153C39.3945 54.7751 39.7323 54.4674 40.0993 54.1973Z" fill="#FDAF31"/>
<path d="M41.5998 55.5758C41.5977 55.5227 41.5776 55.4719 41.5428 55.4318C41.052 55.0739 40.6111 54.6522 40.2318 54.1778C40.1748 54.1208 40.0878 54.0908 40.0308 54.1478C39.6925 54.3836 39.378 54.6518 39.0918 54.9488C38.0658 55.2488 37.4958 55.7468 37.4088 56.0018C37.3818 56.0888 37.4388 56.3168 38.1228 56.2298C38.0088 56.4308 37.8948 56.6018 37.8078 56.7728H34.8888C34.8444 56.7756 34.8025 56.7945 34.771 56.826C34.7396 56.8575 34.7206 56.8993 34.7178 56.9438C34.7178 57.1988 34.6908 57.7418 34.7178 58.0538C34.7206 58.0982 34.7396 58.1401 34.771 58.1715C34.8025 58.203 34.8444 58.2219 34.8888 58.2248H37.3128C37.3398 59.0528 37.6548 58.9388 37.7388 58.9088C37.7958 59.5658 38.0538 59.6498 38.1378 59.6798C38.2218 59.7098 38.4378 59.7368 38.8218 58.7798C38.8518 59.1788 39.1368 59.9198 39.4788 59.8628C39.8208 59.8058 39.8478 59.2628 39.9048 58.6088C40.1328 59.0948 40.4178 59.5088 40.6758 59.4638C40.7328 59.4638 41.1018 59.3228 40.7028 57.5828C41.4168 56.8988 41.5578 55.6328 41.5998 55.5758ZM37.7508 55.9448C37.7508 55.8308 38.1798 55.6028 38.6058 55.4048C38.4963 55.5398 38.3961 55.6822 38.3058 55.8308C38.1247 55.901 37.9329 55.9395 37.7388 55.9448H37.7508ZM40.4298 57.4448C40.3946 57.4835 40.3744 57.5335 40.3728 57.5858C40.4868 58.1858 40.6728 59.1248 40.5438 59.1548C40.4028 59.1248 40.1448 58.5278 39.9438 58.0148C39.9866 57.7122 40.0631 57.4154 40.1718 57.1298C40.1869 57.092 40.1864 57.0497 40.1704 57.0123C40.1543 56.9749 40.1241 56.9454 40.0863 56.9303C40.0485 56.9152 40.0063 56.9157 39.9689 56.9317C39.9314 56.9477 39.9019 56.978 39.8868 57.0158C39.8868 57.0458 39.5448 58.0718 39.5718 58.6118C39.5708 58.9381 39.5326 59.2632 39.4578 59.5808C39.4039 59.5412 39.3564 59.4936 39.3168 59.4398C39.2028 59.2958 38.9748 58.8398 39.1458 57.9398C39.2575 57.5404 39.3999 57.1502 39.5718 56.7728C39.5793 56.7541 39.583 56.7341 39.5828 56.7139C39.5825 56.6937 39.5783 56.6738 39.5704 56.6553C39.5624 56.6368 39.5509 56.62 39.5365 56.6059C39.5221 56.5919 39.505 56.5808 39.4863 56.5733C39.4676 56.5658 39.4476 56.5621 39.4274 56.5623C39.4073 56.5626 39.3874 56.5668 39.3689 56.5747C39.3503 56.5826 39.3335 56.5942 39.3195 56.6086C39.3054 56.623 39.2943 56.6401 39.2868 56.6588C39.2868 56.6858 39.0588 57.1988 38.8608 57.8588C38.6628 58.5188 38.3178 59.3978 38.0898 59.3408C37.9488 59.3108 37.9758 58.9118 38.0058 58.6838C38.2172 57.8681 38.5531 57.09 39.0018 56.3768C39.0165 56.3622 39.0278 56.3446 39.0351 56.3253C39.0423 56.306 39.0453 56.2853 39.0439 56.2647C39.0425 56.2441 39.0366 56.224 39.0267 56.2058C39.0168 56.1877 39.0032 56.1719 38.9866 56.1595C38.9701 56.1471 38.9511 56.1384 38.9309 56.134C38.9107 56.1296 38.8898 56.1296 38.8696 56.134C38.8495 56.1384 38.8305 56.1471 38.8139 56.1594C38.7974 56.1718 38.7837 56.1876 38.7738 56.2058C38.3069 56.9369 37.952 57.7337 37.7208 58.5698C37.6638 58.5998 37.5198 58.6268 37.5768 58.1438C37.7208 57.0608 38.6598 55.4648 40.0278 54.4958C40.3911 54.9222 40.8029 55.3048 41.2548 55.6358C41.2158 55.9178 40.9998 56.9138 40.4178 57.4568L40.4298 57.4448Z" fill="#414141"/>
<path d="M47.915 56.9421C47.9122 56.8977 47.8933 56.8559 47.8618 56.8244C47.8303 56.7929 47.7884 56.774 47.744 56.7711C47.003 56.7711 43.784 56.7411 42.614 56.7711C42.5696 56.774 42.5277 56.7929 42.4963 56.8244C42.4648 56.8559 42.4458 56.8977 42.443 56.9421C42.443 57.1971 42.413 57.7401 42.443 58.0521C42.4458 58.0966 42.4648 58.1384 42.4963 58.1699C42.5277 58.2014 42.5696 58.2203 42.614 58.2231C43.241 58.2231 45.551 58.2231 47.744 58.2531C47.7884 58.2503 47.8303 58.2314 47.8618 58.1999C47.8933 58.1684 47.9122 58.1266 47.915 58.0821C47.915 57.7971 47.945 57.2841 47.915 56.9421Z" fill="#414141"/>
<path d="M20.9317 35.1852C20.9467 35.2112 20.9673 35.2335 20.9923 35.251C21.0174 35.2685 21.0464 35.2807 21.0778 35.2871C21.1091 35.2935 21.1421 35.2938 21.175 35.2881C21.2078 35.2823 21.2398 35.2707 21.2692 35.2537C21.2985 35.2368 21.3246 35.2149 21.346 35.1893C21.3674 35.1638 21.3837 35.135 21.3938 35.1047C21.404 35.0744 21.4079 35.0431 21.4053 35.0126C21.4027 34.9822 21.3937 34.9532 21.3787 34.9272C21.3637 34.9013 21.3431 34.8789 21.3181 34.8615C21.293 34.844 21.264 34.8317 21.2326 34.8253C21.2013 34.819 21.1682 34.8187 21.1354 34.8244C21.1026 34.8301 21.0705 34.8418 21.0412 34.8587C21.0118 34.8756 20.9857 34.8975 20.9643 34.9231C20.943 34.9487 20.9267 34.9775 20.9165 35.0078C20.9064 35.0381 20.9025 35.0694 20.9051 35.0998C20.9077 35.1303 20.9167 35.1593 20.9317 35.1852Z" fill="#414141"/>
<path d="M31.4694 23.4786C31.4694 23.4786 29.9874 27.7536 30.8124 30.6786C31.3824 32.7006 33.5124 32.9586 33.5124 32.9586C33.4683 33.4065 33.3675 33.847 33.2124 34.2696C33.2124 34.2696 34.1124 35.2656 35.2104 35.2656C36.3084 35.2656 37.1754 34.5546 37.2894 34.2696C37.2894 34.2696 37.1184 32.8716 37.0914 31.8456C37.0914 31.8456 38.3724 31.5456 39.4914 28.5126C39.4914 28.5126 40.8594 28.2546 40.8024 27.2286C40.7454 26.2026 39.8034 26.3736 39.4614 26.4876C38.9214 26.6586 38.5794 25.9446 38.4654 25.6896C38.1504 24.7896 37.7814 23.8086 37.3524 23.4936C36.9234 23.1786 35.9274 23.0376 35.4714 22.9236C34.7304 22.7256 34.1874 21.3006 34.1304 21.1566C34.0734 21.0126 33.4644 22.8216 31.4694 23.4786Z" fill="white"/>
<path d="M36.5724 25.2714C36.4284 25.0434 36.1164 24.5304 35.4894 25.1304C35.4583 25.1559 35.4188 25.169 35.3787 25.167C35.3385 25.165 35.3005 25.1482 35.2721 25.1197C35.2436 25.0913 35.2268 25.0533 35.2248 25.0131C35.2228 24.973 35.2359 24.9335 35.2614 24.9024C35.3759 24.7968 35.5109 24.7157 35.6579 24.6641C35.8049 24.6125 35.9609 24.5915 36.1164 24.6024C36.261 24.626 36.3982 24.6831 36.5169 24.769C36.6357 24.8549 36.7327 24.9674 36.8004 25.0974C36.8145 25.1129 36.8244 25.1317 36.8291 25.152C36.8339 25.1724 36.8335 25.1936 36.8277 25.2138C36.822 25.2339 36.8113 25.2522 36.7965 25.267C36.7818 25.2818 36.7635 25.2926 36.7434 25.2984C36.7134 25.3974 36.5994 25.3284 36.5724 25.2714Z" fill="#414141"/>
<path d="M32.9207 24.9035C32.4377 23.9615 31.8107 24.7025 31.8107 24.7325C31.7796 24.758 31.7401 24.771 31.7 24.7691C31.6598 24.7671 31.6218 24.7503 31.5933 24.7218C31.5649 24.6934 31.5481 24.6554 31.5461 24.6152C31.5441 24.575 31.5572 24.5356 31.5827 24.5045C31.6844 24.3747 31.819 24.2744 31.9725 24.2142C32.1261 24.154 32.2929 24.1359 32.4558 24.162C32.6186 24.188 32.7716 24.2571 32.8987 24.3622C33.0258 24.4673 33.1225 24.6044 33.1787 24.7595C33.1933 24.7945 33.1956 24.8334 33.1852 24.8699C33.1749 24.9064 33.1525 24.9383 33.1217 24.9605C33.0647 25.0175 32.9507 24.9605 32.9207 24.9035Z" fill="#414141"/>
<path d="M33.5211 28.1518C33.3201 28.1518 32.7501 27.4408 32.8371 27.2128C32.8941 27.0988 33.0351 27.0418 33.4371 26.9818C33.524 26.9674 33.6102 26.9484 33.6951 26.9248C33.7521 26.7538 33.8361 26.0998 33.9231 25.5298C33.9298 25.4891 33.9519 25.4526 33.9849 25.428C34.018 25.4034 34.0592 25.3926 34.1001 25.3978C34.1412 25.4023 34.179 25.4227 34.2053 25.4546C34.2316 25.4866 34.2445 25.5275 34.2411 25.5688C34.0431 27.0688 33.9411 27.1378 33.8991 27.1678C33.7707 27.2203 33.6369 27.2585 33.5001 27.2818C33.4161 27.3088 33.2451 27.3388 33.1581 27.3658C33.2698 27.5687 33.4256 27.744 33.6141 27.8788C33.6479 27.8983 33.6727 27.9302 33.6833 27.9677C33.694 28.0052 33.6896 28.0454 33.6711 28.0798C33.6304 28.1197 33.5777 28.145 33.5211 28.1518Z" fill="#414141"/>
<path d="M33.4339 30.0339C32.5339 29.9769 32.3509 29.1339 32.3809 28.6959C32.3869 28.6526 32.4069 28.6125 32.4379 28.5819C32.4708 28.5579 32.5115 28.5472 32.5519 28.5519L34.6519 28.7229C34.6948 28.73 34.7345 28.7498 34.7659 28.7799C34.7894 28.813 34.8 28.8535 34.7959 28.8939C34.7749 28.9239 34.6039 30.0909 33.4339 30.0339ZM32.6659 28.8669C32.6706 29.0776 32.7507 29.2798 32.8916 29.4366C33.0325 29.5935 33.2249 29.6947 33.4339 29.7219C33.6592 29.7397 33.8835 29.6767 34.0665 29.5442C34.2496 29.4117 34.3795 29.2184 34.4329 28.9989L32.6659 28.8669Z" fill="#414141"/>
<path d="M43.1539 43.9988C42.5539 42.4028 40.8169 39.8648 40.7329 39.7508C40.7217 39.7355 40.7075 39.7227 40.6912 39.7131C40.675 39.7034 40.6569 39.6971 40.6382 39.6946C40.6194 39.6921 40.6003 39.6934 40.5821 39.6984C40.5638 39.7034 40.5468 39.712 40.5319 39.7238C40.5168 39.7347 40.504 39.7486 40.4944 39.7646C40.4848 39.7807 40.4785 39.7985 40.476 39.817C40.4735 39.8355 40.4747 39.8543 40.4797 39.8723C40.4847 39.8903 40.4933 39.9072 40.5049 39.9218C40.5049 39.9218 40.9039 40.4918 41.3599 41.2328C38.5369 41.2058 30.7849 41.1488 29.3299 41.1188C29.5132 40.7624 29.6658 40.3911 29.7859 40.0088C29.7934 39.9891 29.7969 39.9681 29.7963 39.947C29.7957 39.926 29.7909 39.9052 29.7823 39.886C29.7737 39.8668 29.7613 39.8494 29.746 39.835C29.7307 39.8205 29.7126 39.8092 29.6929 39.8018C29.6732 39.7943 29.6522 39.7907 29.6312 39.7914C29.6101 39.792 29.5894 39.7968 29.5702 39.8054C29.5509 39.814 29.5336 39.8264 29.5192 39.8417C29.5047 39.857 29.4934 39.8751 29.4859 39.8948C29.4859 39.9218 28.5469 42.3158 27.6049 43.4948C27.5901 43.5109 27.579 43.5301 27.5724 43.551C27.5658 43.5719 27.5639 43.594 27.5667 43.6158C27.5696 43.6375 27.5772 43.6583 27.5889 43.6768C27.6007 43.6953 27.6164 43.711 27.6349 43.7228C27.7189 43.7798 27.8059 43.7228 27.8629 43.6928C28.3825 42.994 28.8223 42.2393 29.1739 41.4428C30.1999 41.4428 38.7739 41.5268 41.5159 41.5568C42.0331 42.3622 42.4807 43.2103 42.8539 44.0918C42.8728 44.1267 42.9029 44.1543 42.9394 44.1701C42.9758 44.1859 43.0165 44.1889 43.0549 44.1788C43.1269 44.1728 43.1839 44.0858 43.1539 43.9988Z" fill="#414141"/>
<path d="M24.1127 42.1975C24.0857 42.1705 21.6347 38.2975 20.7497 36.0415C20.7415 36.0226 20.7373 36.0023 20.7373 35.9818C20.7373 35.9613 20.7415 35.9409 20.7496 35.9221C20.7578 35.9033 20.7697 35.8863 20.7847 35.8722C20.7997 35.8582 20.8174 35.8474 20.8367 35.8405C20.8554 35.8323 20.8755 35.8281 20.8958 35.8281C20.9161 35.8281 20.9362 35.8324 20.9548 35.8405C20.9734 35.8487 20.9901 35.8607 21.0039 35.8756C21.0176 35.8906 21.0281 35.9082 21.0347 35.9275C21.9197 38.1805 24.3707 41.9995 24.3707 42.0265C24.3834 42.0425 24.392 42.0612 24.396 42.0812C24.3999 42.1012 24.3991 42.1219 24.3935 42.1415C24.388 42.1611 24.3778 42.1791 24.364 42.1941C24.3501 42.209 24.3329 42.2205 24.3137 42.2275C24.2818 42.2461 24.2445 42.2534 24.2079 42.2479C24.1714 42.2424 24.1378 42.2246 24.1127 42.1975Z" fill="#414141"/>
<path d="M17.417 33.169C17.417 33.169 17.786 32.77 17.9 33.256C18.014 33.742 17.957 34.795 17.843 34.852C17.729 34.909 17.33 35.023 17.189 34.681C17.0452 34.7095 16.8958 34.6806 16.773 34.6004C16.6502 34.5202 16.5637 34.3952 16.532 34.252C16.532 34.252 16.076 34.252 15.989 33.541C15.989 33.541 15.533 33.34 15.689 32.542C15.845 31.744 16.517 31.09 16.589 31.744C16.589 31.744 16.988 31.444 17.045 32.428C17.045 32.458 17.501 32.344 17.417 33.169Z" fill="white"/>
<path d="M20.9208 30.5756C20.8368 30.4616 21.1788 30.0626 21.7758 30.2036C22.3728 30.3446 22.6308 31.1036 22.4898 31.2596C22.3488 31.4156 21.2358 31.0316 20.9208 30.5756Z" fill="white"/>
<path d="M23.3149 33.5964C23.2309 33.3954 22.6039 32.0004 22.3459 31.4574C22.3759 31.4574 22.6039 31.4304 22.6459 31.2864C22.7029 31.0014 22.5589 30.2034 21.8479 30.0324C21.7501 30.0072 21.6488 29.9981 21.5479 30.0054C21.5179 29.9184 20.5489 28.1244 20.4079 27.8664C20.2999 27.6114 19.8949 26.8974 19.0399 27.2394C18.2989 27.5394 15.8179 28.8654 15.7909 28.8924C15.6199 29.0364 15.1069 29.3784 15.4909 30.2334C15.6575 30.6617 15.8478 31.0803 16.0609 31.4874C15.9406 31.6038 15.8393 31.7385 15.7609 31.8864C15.1909 33.0264 15.6739 33.5664 15.9019 33.7374C15.9019 33.7374 16.0159 34.4214 16.4749 34.4784C16.5291 34.6186 16.6284 34.7369 16.7571 34.8145C16.8858 34.8922 17.0366 34.9248 17.1859 34.9074C17.2207 34.9668 17.2677 35.0181 17.3237 35.058C17.3798 35.0978 17.4437 35.1253 17.5112 35.1387C17.5787 35.152 17.6483 35.1509 17.7153 35.1353C17.7823 35.1197 17.8452 35.0901 17.8999 35.0484C17.9839 35.1924 18.1279 35.4774 18.3829 35.9484C18.4747 36.121 18.6004 36.2732 18.7525 36.3959C18.9046 36.5186 19.0799 36.6092 19.268 36.6624C19.389 36.6926 19.5125 36.7117 19.637 36.7194C19.7939 36.7308 19.9512 36.7008 20.0929 36.6324C20.15 36.6054 22.4929 35.4324 22.943 35.1504C23.1728 34.9726 23.3349 34.7215 23.4026 34.4389C23.4702 34.1563 23.4393 33.8591 23.3149 33.5964ZM21.7759 30.3174C21.9422 30.3872 22.0861 30.5013 22.1919 30.6474C22.2978 30.7934 22.3614 30.9657 22.3759 31.1454C21.3769 30.9444 21.0079 30.6894 21.0919 30.4884C21.1219 30.3474 21.3769 30.1974 21.7759 30.3174ZM15.9049 33.3174C15.7609 33.1164 15.6469 32.7174 15.9889 32.0064C16.1629 31.6914 16.2889 31.6074 16.3609 31.6344C16.4329 31.6614 16.4179 31.6914 16.4179 31.7784C16.1835 32.2659 16.0111 32.781 15.9049 33.3114V33.3174ZM16.4179 34.0974C16.3418 34.0476 16.2789 33.9801 16.2345 33.9007C16.1901 33.8213 16.1655 33.7324 16.1629 33.6414C16.2172 33.0427 16.3917 32.4611 16.6759 31.9314C16.7088 31.9075 16.7495 31.8968 16.7899 31.9014C16.7899 31.9014 16.8739 31.9584 16.8169 32.4144C16.6389 32.9638 16.5055 33.5266 16.4179 34.0974ZM17.2459 33.1974C17.1196 33.6335 17.052 34.0845 17.045 34.5384C16.971 34.5386 16.8987 34.5167 16.8372 34.4755C16.7758 34.4344 16.728 34.3759 16.6999 34.3074V34.2504C16.7594 33.6866 16.8853 33.1317 17.0749 32.5974C17.1007 32.5753 17.1289 32.5561 17.1589 32.5404C17.1889 32.5704 17.2999 32.6544 17.2459 33.2244V33.1974ZM17.7859 34.6974C17.7179 34.7441 17.6398 34.774 17.5579 34.7844C17.5019 34.7844 17.4449 34.7274 17.3869 34.6134C17.3996 34.1807 17.4713 33.7518 17.5999 33.3384L17.7409 33.1974C17.7709 33.2244 17.8279 33.3384 17.8279 33.7674C17.8279 34.1964 17.7859 34.5924 17.7859 34.6974ZM16.7329 30.6894C16.8169 30.9444 17.3329 31.9434 17.8429 32.9124C17.7587 32.897 17.6722 32.897 17.5879 32.9124C17.5879 32.5704 17.4169 32.2284 17.1889 32.2554C17.2159 31.9554 17.0749 31.5444 16.7599 31.6014C16.6759 31.2024 16.4179 31.3014 16.3339 31.3014C16.2199 31.1004 16.0189 30.6744 15.7609 30.0744C15.5059 29.4204 15.8179 29.2194 15.9889 29.0784C16.0189 29.0784 18.4129 27.7374 19.1539 27.4524C19.6969 27.2544 19.9519 27.5664 20.1799 27.9654C20.2939 28.1664 21.0649 29.6484 21.2629 30.0174C21.1152 30.064 20.9791 30.1418 20.8639 30.2454C20.564 29.6454 20.2639 29.1054 20.1529 28.9074C19.8679 28.3374 19.64 28.0524 19.097 28.1364C18.2133 28.4425 17.3786 28.875 16.6189 29.4204C16.1899 29.8614 16.5619 30.2904 16.7329 30.6894ZM22.7329 34.7934C22.307 35.0934 19.9699 36.2184 19.9129 36.2754C19.7187 36.3361 19.5123 36.3465 19.3129 36.3054C19.1658 36.2618 19.0292 36.1884 18.9115 36.0898C18.7939 35.9913 18.6977 35.8696 18.6289 35.7324C18.2869 35.1324 18.1459 34.8504 18.0889 34.7634V33.3684C18.2869 33.7674 18.4879 34.1664 18.6589 34.4514C19.2289 35.5344 19.7689 35.3064 20.0539 35.1624C20.3389 35.0184 21.0229 34.5624 21.854 34.1664C22.6849 33.7704 22.4239 33.1674 22.2799 32.9124C22.2229 32.7684 21.7669 31.9704 21.3109 31.0884C21.5337 31.2 21.762 31.3001 21.995 31.3884C22.337 32.0994 22.9939 33.4884 23.0509 33.6954C23.2009 34.1934 23.117 34.5654 22.745 34.7934H22.7329Z" fill="#414141"/>
<path d="M19.7544 32.8001C19.6104 32.8001 19.3254 32.6861 18.6144 32.1161C18.5975 32.1031 18.5832 32.0869 18.5726 32.0684C18.5619 32.0499 18.555 32.0295 18.5522 32.0083C18.5494 31.9871 18.5508 31.9656 18.5563 31.945C18.5619 31.9244 18.5714 31.905 18.5844 31.8881C18.5974 31.8711 18.6136 31.8569 18.6321 31.8462C18.6506 31.8356 18.671 31.8286 18.6922 31.8259C18.7133 31.8231 18.7349 31.8245 18.7555 31.83C18.7761 31.8355 18.7955 31.8451 18.8124 31.8581C19.0863 32.0947 19.3886 32.2963 19.7124 32.4581C19.7215 31.682 19.645 30.9074 19.4844 30.1481C19.4772 30.1293 19.4746 30.109 19.4768 30.089C19.4791 30.069 19.4861 30.0499 19.4972 30.0331C19.5084 30.0164 19.5234 30.0026 19.541 29.9928C19.5586 29.9831 19.5783 29.9777 19.5984 29.9771C19.6172 29.9699 19.6374 29.9673 19.6574 29.9695C19.6774 29.9718 19.6966 29.9788 19.7133 29.9899C19.7301 30.0011 19.7439 30.0161 19.7537 30.0337C19.7634 30.0513 19.7688 30.071 19.7694 30.0911C19.7694 30.0911 19.8834 30.6911 19.9404 31.2911C20.0814 32.4911 19.9674 32.6591 19.8534 32.7461C19.8435 32.7633 19.829 32.7775 19.8115 32.787C19.794 32.7966 19.7743 32.8011 19.7544 32.8001Z" fill="white"/>
<path d="M39.6769 27.6692C39.655 27.6683 39.6335 27.6627 39.6138 27.6529C39.5942 27.6431 39.5769 27.6292 39.5629 27.6122C39.5481 27.5961 39.537 27.5769 39.5304 27.556C39.5238 27.5351 39.5219 27.513 39.5247 27.4912C39.5276 27.4695 39.5352 27.4487 39.547 27.4302C39.5587 27.4117 39.5744 27.396 39.5929 27.3843C39.7309 27.2668 39.8976 27.1881 40.0759 27.1562C40.1099 27.1617 40.141 27.1783 40.1646 27.2033C40.1882 27.2284 40.2028 27.2605 40.2062 27.2947C40.2096 27.3289 40.2017 27.3633 40.1835 27.3925C40.1654 27.4217 40.1381 27.4441 40.1059 27.4562C39.9968 27.4824 39.8946 27.5315 39.8059 27.6002C39.7339 27.6692 39.7069 27.6692 39.6769 27.6692Z" fill="#414141"/>
<path d="M45.3226 26.4993C45.5506 25.5573 46.5766 24.6753 46.4626 23.4213C46.3486 22.1673 45.2086 21.6543 45.0376 20.9703C44.7796 19.9713 45.1516 19.2033 44.4106 18.4053C43.8406 17.7753 43.3546 18.1203 42.6706 17.5203C42.0706 17.0073 42.1276 15.8943 41.0176 15.4203C40.1176 15.0483 39.1936 15.4473 38.5096 15.4773C37.6096 15.5043 36.9406 14.7363 35.7736 14.7363C34.6606 14.7363 34.1746 15.6183 33.5206 15.7893C32.5216 16.0473 31.4386 15.8193 30.5566 16.5603C29.6746 17.3013 29.6146 18.7473 28.9996 19.6593C28.4296 20.4573 27.0916 21.2823 26.8996 22.5933C26.6446 24.3603 27.9826 25.2153 27.7846 26.5563C27.4996 28.3563 27.3856 31.1163 30.8326 30.9753C31.0377 31.5131 31.3798 31.9879 31.825 32.3526C32.2702 32.7173 32.803 32.9592 33.3706 33.0543C33.3247 33.4796 33.2383 33.8995 33.1126 34.3083C33.1024 34.3325 33.0997 34.3593 33.1051 34.385C33.1105 34.4108 33.1236 34.4342 33.1426 34.4523C33.7126 35.0523 34.3426 35.4213 35.0536 35.4213C35.5001 35.4379 35.9452 35.3628 36.3616 35.2008C36.778 35.0388 37.1568 34.7933 37.4746 34.4793C37.5111 34.4414 37.5315 34.3909 37.5316 34.3383C37.4176 33.5403 37.3336 32.4273 37.3036 32.0283C37.6485 32.4926 38.1418 32.825 38.7016 32.9703C39.6406 33.1683 40.4386 33.2703 41.5516 32.0013C42.5476 30.8313 44.0596 31.2033 44.8306 30.2343C45.8626 28.9233 45.0376 27.7263 45.3226 26.4993ZM39.4486 28.3533C39.3916 28.3533 39.3646 28.3803 39.3346 28.4373C39.1366 28.9233 38.1106 31.4583 37.0846 31.7733C37.0478 31.7826 37.0157 31.8052 36.9946 31.8368C36.9736 31.8684 36.965 31.9068 36.9706 31.9443C36.9706 31.9713 37.0546 33.3693 37.1986 34.3443C36.6008 34.8555 35.8459 35.1467 35.0596 35.1693C34.7492 35.151 34.4455 35.071 34.1663 34.934C33.8871 34.797 33.638 34.6057 33.4336 34.3713C33.5416 33.9699 33.6178 33.5607 33.6616 33.1473C33.9752 33.1874 34.2932 33.1773 34.6036 33.1173C34.6906 33.0903 34.7476 33.0333 34.7176 32.9463C34.6876 32.8593 34.6336 32.8053 34.5466 32.8323C31.8946 33.2313 31.0696 30.7533 31.0126 30.6393C30.7846 29.9253 30.4426 27.9603 31.5256 23.8533C32.6384 23.4009 33.591 22.6269 34.2616 21.6303C34.3995 22.0936 34.6536 22.5139 34.9996 22.8513C35.5696 23.3913 36.8536 23.4513 37.2526 23.7903C37.9066 24.3903 38.0506 25.3293 38.3626 25.9863C38.6206 26.4993 39.0766 26.9253 39.6736 26.7543C40.4146 26.5563 40.6726 27.0543 40.6996 27.2403C40.6996 27.3843 40.6456 28.3233 39.4486 28.3533Z" fill="#414141"/>
<path d="M35.8855 27.2771C35.9303 27.2854 35.9765 27.2832 36.0214 27.2706C36.0663 27.258 36.109 27.2353 36.147 27.2037C36.185 27.1722 36.2175 27.1324 36.2427 27.0869C36.2679 27.0413 36.2852 26.9908 36.2936 26.9383C36.3019 26.8859 36.3013 26.8325 36.2916 26.7814C36.2819 26.7302 36.2633 26.6824 36.2371 26.6405C36.2108 26.5987 36.1773 26.5638 36.1386 26.5378C36.0999 26.5119 36.0567 26.4954 36.0115 26.4893C35.9667 26.481 35.9206 26.4832 35.8757 26.4958C35.8308 26.5084 35.788 26.5312 35.75 26.5627C35.712 26.5943 35.6795 26.634 35.6543 26.6796C35.6292 26.7251 35.6119 26.7756 35.6035 26.8281C35.5951 26.8805 35.5958 26.9339 35.6055 26.985C35.6152 27.0362 35.6337 27.0841 35.66 27.1259C35.6862 27.1677 35.7197 27.2026 35.7584 27.2286C35.7972 27.2546 35.8404 27.2711 35.8855 27.2771Z" fill="#414141"/>
<path d="M32.2156 26.7224C32.2604 26.7307 32.3066 26.7285 32.3515 26.7159C32.3964 26.7033 32.4391 26.6806 32.4771 26.649C32.5151 26.6175 32.5476 26.5778 32.5728 26.5322C32.598 26.4866 32.6152 26.4361 32.6236 26.3837C32.632 26.3312 32.6313 26.2778 32.6217 26.2267C32.612 26.1756 32.5934 26.1277 32.5672 26.0858C32.5409 26.044 32.5074 26.0091 32.4687 25.9831C32.4299 25.9572 32.3867 25.9407 32.3416 25.9346C32.2968 25.9263 32.2506 25.9285 32.2057 25.9411C32.1608 25.9537 32.1181 25.9765 32.0801 26.008C32.0421 26.0396 32.0096 26.0793 31.9844 26.1249C31.9592 26.1704 31.942 26.2209 31.9336 26.2734C31.9252 26.3259 31.9258 26.3792 31.9355 26.4304C31.9452 26.4815 31.9638 26.5294 31.99 26.5712C32.0163 26.613 32.0498 26.648 32.0885 26.6739C32.1273 26.6999 32.1705 26.7164 32.2156 26.7224Z" fill="#414141"/>
<path d="M36.1426 28.7802C36.1426 28.8789 36.1906 28.9735 36.2761 29.0432C36.3617 29.113 36.4776 29.1522 36.5986 29.1522C36.7195 29.1522 36.8355 29.113 36.921 29.0432C37.0065 28.9735 37.0546 28.8789 37.0546 28.7802C37.0546 28.6815 37.0065 28.5869 36.921 28.5172C36.8355 28.4474 36.7195 28.4082 36.5986 28.4082C36.4776 28.4082 36.3617 28.4474 36.2761 28.5172C36.1906 28.5869 36.1426 28.6815 36.1426 28.7802Z" fill="#FDAF31"/>
<path d="M31.4275 28.5212C31.476 28.532 31.5257 28.5354 31.5737 28.531C31.6218 28.5266 31.6672 28.5147 31.7073 28.4957C31.7475 28.4768 31.7815 28.4514 31.8074 28.4209C31.8333 28.3904 31.8506 28.3555 31.8582 28.3183C31.8658 28.281 31.8636 28.2422 31.8517 28.204C31.8398 28.1658 31.8185 28.129 31.789 28.0959C31.7595 28.0628 31.7224 28.034 31.6799 28.0111C31.6374 27.9883 31.5903 27.9719 31.5415 27.9629C31.4931 27.952 31.4434 27.9487 31.3953 27.953C31.3473 27.9574 31.3018 27.9694 31.2617 27.9883C31.2216 28.0072 31.1876 28.0326 31.1617 28.0631C31.1358 28.0936 31.1185 28.1285 31.1109 28.1658C31.1033 28.203 31.1055 28.2419 31.1174 28.2801C31.1292 28.3183 31.1506 28.355 31.1801 28.3881C31.2096 28.4212 31.2467 28.4501 31.2892 28.4729C31.3317 28.4958 31.3787 28.5122 31.4275 28.5212Z" fill="#FDAF31"/>
</svg>
