<svg width="51" height="50" viewBox="0 0 51 50" fill="none" xmlns="http://www.w3.org/2000/svg">
<path d="M41.6621 21.1455C41.6621 22.1205 41.1146 22.8805 39.9121 22.9505C38.8921 22.998 38.1621 22.143 38.1621 21.1455C38.1621 20.679 38.3474 20.2317 38.6772 19.9018C39.0071 19.572 39.4544 19.3867 39.9209 19.3867C40.3873 19.3867 40.8347 19.572 41.1645 19.9018C41.4943 20.2317 41.6796 20.679 41.6796 21.1455H41.6621Z" fill="#E02728"/>
<path d="M37.7235 11.9061C37.8775 11.9967 38.0531 12.0468 38.2401 12.0536C38.4272 12.0603 38.622 12.0236 38.8134 11.9455C39.0048 11.8674 39.1891 11.7495 39.3555 11.5985C39.5219 11.4476 39.6672 11.2666 39.7831 11.0659C39.8989 10.8652 39.983 10.6488 40.0306 10.4292C40.0781 10.2097 40.0881 9.99116 40.0601 9.78634C40.032 9.58152 39.9664 9.39442 39.867 9.23581C39.7676 9.07719 39.6365 8.95019 39.481 8.86212C39.327 8.77154 39.1515 8.72142 38.9644 8.71466C38.7773 8.70789 38.5825 8.74462 38.3911 8.82271C38.1997 8.9008 38.0155 9.01872 37.8491 9.16969C37.6827 9.32066 37.5373 9.50169 37.4215 9.70236C37.3056 9.90304 37.2215 10.1194 37.1739 10.339C37.1264 10.5586 37.1164 10.7771 37.1444 10.9819C37.1725 11.1867 37.2381 11.3738 37.3375 11.5324C37.4369 11.691 37.5681 11.818 37.7235 11.9061Z" fill="#E02728"/>
<path d="M29.5588 4.82287C29.9008 4.88058 30.2595 4.75335 30.5562 4.46916C30.8528 4.18497 31.063 3.7671 31.1406 3.30748C31.2182 2.84786 31.1567 2.38414 30.9698 2.01833C30.7829 1.65252 30.4858 1.41458 30.1438 1.35687C29.9745 1.32829 29.7993 1.34482 29.6282 1.40551C29.4571 1.4662 29.2934 1.56986 29.1465 1.71058C28.9996 1.8513 28.8724 2.02631 28.7721 2.22563C28.6719 2.42496 28.6005 2.64468 28.5621 2.87226C28.5236 3.09984 28.519 3.33082 28.5483 3.55202C28.5776 3.77321 28.6403 3.98028 28.7328 4.16141C28.8254 4.34254 28.946 4.49418 29.0877 4.60768C29.2294 4.72117 29.3895 4.79429 29.5588 4.82287Z" fill="#E02728"/>
<path d="M18.0983 5.57257C18.2682 5.78695 18.4679 5.97464 18.6857 6.12477C18.9036 6.27489 19.1353 6.38447 19.3675 6.44715C19.5997 6.50983 19.8277 6.52436 20.0384 6.4899C20.249 6.45545 20.438 6.37269 20.5946 6.24643C20.7511 6.12016 20.872 5.9529 20.9503 5.75433C21.0285 5.55577 21.0626 5.32984 21.0504 5.08965C21.0383 4.84946 20.9803 4.59977 20.8797 4.35506C20.779 4.11035 20.6379 3.87549 20.4643 3.66407C20.2944 3.44968 20.0947 3.26199 19.8769 3.11186C19.659 2.96174 19.4273 2.85216 19.1951 2.78948C18.9629 2.72681 18.7349 2.71227 18.5242 2.74673C18.3136 2.78118 18.1246 2.86394 17.968 2.9902C17.8115 3.11647 17.6906 3.28373 17.6123 3.4823C17.5341 3.68086 17.5 3.90679 17.5122 4.14698C17.5243 4.38717 17.5823 4.63686 17.6829 4.88157C17.7835 5.12628 17.9247 5.36115 18.0983 5.57257Z" fill="#E02728"/>
<path d="M14.0603 14.7448C13.2278 15.4573 12.1828 15.5298 11.2803 14.5548C10.4978 13.7448 10.7103 12.4948 11.5428 11.7848C11.735 11.6053 11.9617 11.4666 12.209 11.3771C12.4564 11.2877 12.7193 11.2493 12.9819 11.2644C13.2445 11.2795 13.5013 11.3477 13.7368 11.4649C13.9723 11.582 14.1816 11.7458 14.352 11.9461C14.5224 12.1465 14.6504 12.3793 14.7283 12.6306C14.8061 12.8818 14.8322 13.1463 14.8049 13.4079C14.7777 13.6695 14.6976 13.9229 14.5696 14.1526C14.4416 14.3824 14.2684 14.5839 14.0603 14.7448Z" fill="#E02728"/>
<path d="M41.6629 20.4973C41.5212 20.0763 41.2332 19.7201 40.8512 19.4935C40.4692 19.2669 40.0185 19.1848 39.5812 19.2623C39.1438 19.3398 38.7488 19.5717 38.4678 19.9157C38.1869 20.2598 38.0388 20.6933 38.0504 21.1373C38.04 21.3877 38.0813 21.6375 38.1716 21.8712C38.262 22.105 38.3996 22.3176 38.5757 22.4958C38.7518 22.6741 38.9628 22.8142 39.1954 22.9073C39.4281 23.0005 39.6774 23.0447 39.9279 23.0373C41.0679 23.0223 42.1379 22.2148 41.6629 20.4973ZM39.9129 19.4523C40.2517 19.4528 40.5819 19.5581 40.8585 19.7537C41.1351 19.9493 41.3445 20.2256 41.4579 20.5448C41.5019 20.7647 41.4947 20.9917 41.4371 21.2085C41.3794 21.4252 41.2728 21.6258 41.1254 21.7948C40.2229 22.8173 39.0354 22.2473 38.7504 22.0098C38.6057 21.887 38.49 21.7336 38.4118 21.5606C38.3335 21.3877 38.2946 21.1996 38.2979 21.0098C38.2654 20.3373 39.0479 19.4598 39.9029 19.4598L39.9129 19.4523ZM39.9129 22.8248C39.7092 22.8377 39.505 22.8084 39.3131 22.7387C39.1213 22.669 38.9459 22.5604 38.7979 22.4198L38.6779 22.3023C38.9879 22.5148 40.5079 23.2273 41.4829 21.6848C41.3054 22.3798 40.7604 22.7848 39.9029 22.8323L39.9129 22.8248Z" fill="#2C3135"/>
<path d="M39.5229 8.7704C38.8354 8.3654 37.8379 8.7704 37.3379 9.6479C36.9829 10.2904 36.9354 11.0029 37.2204 11.5029C37.3208 11.6938 37.4709 11.854 37.6548 11.9667C37.8388 12.0793 38.0497 12.1402 38.2654 12.1429C38.5986 12.1226 38.9206 12.0155 39.1996 11.8322C39.4785 11.6488 39.7046 11.3957 39.8554 11.0979C40.3754 10.2179 40.2129 9.1729 39.5229 8.7704ZM37.5229 9.7704C37.6564 9.50763 37.8558 9.28401 38.1016 9.12143C38.3475 8.95885 38.6313 8.86288 38.9254 8.8429C39.8754 8.8429 39.6754 10.1254 39.3754 10.6729C38.9254 11.4579 37.7854 11.8379 37.4054 11.4229C37.2873 11.1584 37.2366 10.8688 37.258 10.58C37.2794 10.2911 37.3721 10.0121 37.5279 9.7679L37.5229 9.7704ZM39.6654 10.9979C39.2154 11.7829 38.3604 12.1379 37.7654 11.8054C37.7429 11.8054 37.7429 11.7829 37.7179 11.7829C37.7956 11.8014 37.8756 11.809 37.9554 11.8054C38.5504 11.8054 39.9279 11.2129 39.8554 9.4779C39.9396 9.72931 39.9662 9.99643 39.9333 10.2595C39.9004 10.5226 39.8089 10.775 39.6654 10.9979Z" fill="#2C3135"/>
<path d="M30.3081 1.28646C29.2631 1.03646 28.6456 2.11646 28.5031 2.68646C28.4141 3.00198 28.3998 3.3339 28.4614 3.65589C28.5231 3.97789 28.6589 4.28109 28.8581 4.54146C29.0383 4.73763 29.2791 4.86766 29.542 4.91072C29.8049 4.95378 30.0747 4.90738 30.3081 4.77896C30.5367 4.63934 30.7331 4.45286 30.8843 4.23179C31.0356 4.01072 31.1383 3.7601 31.1856 3.49646C31.4481 2.49646 31.0681 1.45146 30.3081 1.28646ZM28.7156 2.74646C28.8356 2.24646 29.4056 1.41646 29.9981 1.46396C30.6406 1.51146 30.8056 2.58146 30.6406 3.19896C30.5428 3.67561 30.2606 4.09433 29.8556 4.36396C29.7371 4.45098 29.5969 4.50357 29.4504 4.51593C29.304 4.52828 29.1569 4.49991 29.0256 4.43396C28.8476 4.19545 28.7271 3.91912 28.6733 3.62644C28.6196 3.33377 28.634 3.03263 28.7156 2.74646ZM30.9956 3.46146C30.9475 3.69397 30.8536 3.91455 30.7192 4.1103C30.5848 4.30605 30.4128 4.47303 30.2131 4.60146C30.1037 4.66818 29.9815 4.71112 29.8544 4.72749C29.7274 4.74385 29.5983 4.73328 29.4756 4.69646C29.4531 4.69646 29.4531 4.67146 29.4281 4.67146C29.6148 4.66129 29.7954 4.60082 29.9506 4.49646C30.1797 4.35451 30.3777 4.16774 30.5328 3.94735C30.6879 3.72696 30.7968 3.4775 30.8531 3.21396C30.9577 2.7896 30.9412 2.34443 30.8056 1.92896C31.064 2.3917 31.1321 2.93684 30.9956 3.44896V3.46146Z" fill="#2C3135"/>
<path d="M20.852 6.1086C21.352 5.4661 21.232 4.3736 20.5195 3.5436C20.1168 3.04639 19.5388 2.72249 18.9045 2.6386C18.7208 2.61912 18.5351 2.6365 18.3582 2.68973C18.1814 2.74296 18.0169 2.83097 17.8745 2.9486C17.207 3.5661 17.2795 4.7786 18.0395 5.6811C18.234 5.93256 18.4773 6.14212 18.7549 6.2972C19.0324 6.45229 19.3384 6.54971 19.6545 6.5836C20.5345 6.6311 20.7945 6.1786 20.842 6.1086H20.852ZM20.352 3.6861C20.9445 4.4686 21.102 5.3961 20.6845 5.9661C20.0695 6.2461 19.2145 5.9661 18.6245 5.2461C18.0345 4.5261 17.8745 3.5361 18.292 2.9636C18.8345 2.5686 19.927 3.1161 20.3545 3.6861H20.352ZM19.6895 6.3686C19.1128 6.29957 18.5852 6.01022 18.217 5.5611C17.5745 4.8261 17.467 3.8511 17.8595 3.2811C17.6695 3.9236 17.8845 4.7311 18.4295 5.3711C18.6378 5.63632 18.9004 5.85402 19.1996 6.00966C19.4988 6.16529 19.8277 6.25528 20.1645 6.2736H20.2595C20.0857 6.36872 19.8848 6.4022 19.6895 6.3686Z" fill="#2C3135"/>
<path d="M14.3922 11.9268C14.2178 11.7203 14.0039 11.5509 13.763 11.4286C13.5221 11.3062 13.2592 11.2333 12.9897 11.2143C12.437 11.1752 11.8912 11.3547 11.4697 11.7143C11.2379 11.8989 11.0482 12.1309 10.9132 12.3948C10.7783 12.6586 10.7012 12.9482 10.6872 13.2443C10.6715 13.4997 10.7077 13.7556 10.7936 13.9967C10.8796 14.2377 11.0134 14.4589 11.1872 14.6468C11.3755 14.8757 11.611 15.0612 11.8777 15.1907C12.1443 15.3201 12.4358 15.3904 12.7322 15.3968C13.2442 15.3754 13.7322 15.1735 14.1097 14.8268C14.3191 14.6535 14.492 14.4402 14.6182 14.1994C14.7444 13.9586 14.8214 13.6951 14.8447 13.4243C14.8789 13.1569 14.8563 12.8852 14.7783 12.6272C14.7003 12.3691 14.5687 12.1305 14.3922 11.9268ZM11.3522 14.4943C11.195 14.3281 11.0738 14.1313 10.9959 13.9163C10.9181 13.7013 10.8853 13.4725 10.8997 13.2443C10.9033 13.1591 10.9193 13.0748 10.9472 12.9943C10.9877 13.4944 11.1875 13.9684 11.5172 14.3468C11.7074 14.5707 11.9441 14.7505 12.211 14.8736C12.4778 14.9967 12.7683 15.06 13.0622 15.0593C13.2313 15.0596 13.3996 15.036 13.5622 14.9893C12.7997 15.3693 12.0172 15.2043 11.3522 14.4943ZM14.6522 13.4243C14.6234 13.6893 14.5382 13.945 14.4022 14.1743C14.2388 14.3697 14.0357 14.5281 13.8064 14.6389C13.5771 14.7497 13.3268 14.8103 13.0722 14.8168C12.8096 14.8163 12.5504 14.7585 12.3125 14.6476C12.0746 14.5366 11.8637 14.3751 11.6947 14.1743C11.399 13.8253 11.2167 13.3945 11.1722 12.9393C11.1022 12.3218 11.8622 11.3243 12.8347 11.4393C13.3298 11.4846 13.7904 11.7128 14.1264 12.0794C14.4624 12.4459 14.6499 12.9245 14.6522 13.4218V13.4243Z" fill="#2C3135"/>
<path d="M14.6054 8.57929C14.6054 8.57929 13.5604 8.36428 13.3554 8.29428C13.3413 8.28969 13.3282 8.28236 13.3169 8.27271C13.3056 8.26306 13.2964 8.25128 13.2896 8.23805C13.2829 8.22482 13.2788 8.21039 13.2777 8.19559C13.2765 8.18079 13.2783 8.1659 13.2829 8.15178C13.2875 8.13767 13.2948 8.12459 13.3045 8.11331C13.3141 8.10203 13.3259 8.09275 13.3391 8.08602C13.3524 8.07929 13.3668 8.07523 13.3816 8.07407C13.3964 8.07292 13.4113 8.07469 13.4254 8.07929C13.6154 8.15179 14.6379 8.34179 14.6379 8.34179C14.6854 8.34179 14.7329 8.41178 14.7329 8.45928C14.7004 8.55428 14.6529 8.57929 14.6054 8.57929Z" fill="#2C3135"/>
<path d="M14.5575 7.77262C14.1494 7.49021 13.761 7.18032 13.395 6.84512C13.3475 6.79762 13.3475 6.72762 13.395 6.70262C13.4425 6.67762 13.5125 6.65512 13.5375 6.70262C13.8735 7.01918 14.2301 7.31315 14.605 7.58262C14.6525 7.60512 14.6525 7.67762 14.63 7.72512C14.6075 7.77262 14.5825 7.77262 14.5575 7.77262Z" fill="#2C3135"/>
<path d="M33.9423 6.79508C33.9269 6.79176 33.9124 6.78523 33.8996 6.77592C33.8869 6.76661 33.8762 6.75472 33.8684 6.74103C33.8606 6.72734 33.8557 6.71215 33.8541 6.69645C33.8525 6.68075 33.8542 6.66489 33.8592 6.6499C33.8641 6.63492 33.8721 6.62113 33.8827 6.60945C33.8934 6.59777 33.9063 6.58846 33.9208 6.58211C33.9352 6.57576 33.9508 6.57252 33.9666 6.5726C33.9824 6.57268 33.998 6.57608 34.0123 6.58258C34.2206 6.63635 34.4397 6.6314 34.6453 6.5683C34.8509 6.5052 35.0351 6.38641 35.1773 6.22508C35.0284 6.1301 34.9056 5.99949 34.8198 5.84508C34.7408 5.68053 34.7038 5.49896 34.7121 5.31661C34.7204 5.13425 34.7737 4.95679 34.8673 4.80008C35.1523 4.39758 35.5798 4.68258 35.6998 4.96758C35.7666 5.16613 35.7841 5.3779 35.751 5.58472C35.718 5.79155 35.6352 5.98727 35.5098 6.15508C35.7223 6.25008 36.8623 6.51008 36.9823 5.27508C36.9823 5.20508 37.0523 5.18008 37.0998 5.18008C37.1473 5.18008 37.1948 5.25258 37.1948 5.30008C37.0773 6.22508 36.5298 6.44008 36.2223 6.48758C35.932 6.52189 35.638 6.47244 35.3748 6.34508C35.2031 6.5479 34.9773 6.69784 34.7237 6.77749C34.4702 6.85715 34.1992 6.86324 33.9423 6.79508ZM35.0348 4.94258C34.9579 5.06227 34.9149 5.20063 34.9105 5.34287C34.9061 5.4851 34.9404 5.62586 35.0098 5.75008C35.0704 5.88049 35.17 5.98884 35.2948 6.06008C35.3994 5.91832 35.4691 5.75388 35.4982 5.58012C35.5273 5.40637 35.515 5.22819 35.4623 5.06008C35.4373 4.92008 35.1998 4.73008 35.0348 4.94258Z" fill="#2C3135"/>
<path d="M40.2846 15.5849C40.2581 15.5808 40.2331 15.5699 40.2121 15.5533C40.191 15.5366 40.1747 15.5148 40.1646 15.4899C40.1618 15.4615 40.1701 15.4331 40.1878 15.4107C40.2055 15.3883 40.2313 15.3737 40.2596 15.3699C40.3071 15.3699 41.3046 15.2524 41.5096 15.2524C41.5381 15.2566 41.5642 15.2709 41.5831 15.2927C41.602 15.3145 41.6123 15.3424 41.6123 15.3712C41.6123 15.4 41.602 15.4279 41.5831 15.4497C41.5642 15.4715 41.5381 15.4858 41.5096 15.4899C41.0999 15.5009 40.6911 15.5326 40.2846 15.5849Z" fill="#2C3135"/>
<path d="M41.8741 16.8452C41.4398 16.6487 40.9959 16.4743 40.5441 16.3227C40.5292 16.3187 40.5154 16.3116 40.5033 16.302C40.4913 16.2925 40.4814 16.2805 40.4741 16.2669C40.4669 16.2533 40.4625 16.2384 40.4613 16.2231C40.4601 16.2077 40.462 16.1923 40.467 16.1777C40.4719 16.1632 40.4798 16.1498 40.4902 16.1384C40.5005 16.127 40.5131 16.1179 40.5271 16.1115C40.5412 16.1052 40.5563 16.1018 40.5717 16.1016C40.5871 16.1013 40.6024 16.1043 40.6166 16.1102C41.0704 16.2562 41.5147 16.4308 41.9466 16.6327C41.9703 16.6468 41.9881 16.6689 41.9968 16.6951C42.0055 16.7212 42.0046 16.7497 41.9941 16.7752C41.9466 16.8452 41.9216 16.8452 41.8741 16.8452Z" fill="#2C3135"/>
<path d="M41.162 20.6218C41.162 20.5743 41.092 20.5518 41.0445 20.5518L40.8295 20.5993C40.8188 20.5257 40.7936 20.4551 40.7555 20.3913C40.7173 20.3276 40.6669 20.272 40.6072 20.2279C40.5475 20.1837 40.4796 20.1518 40.4074 20.134C40.3353 20.1162 40.2604 20.1129 40.187 20.1243C39.8795 20.1718 39.807 20.5043 39.7845 20.8368L38.977 21.0268C38.9712 20.9288 38.9912 20.8311 39.0351 20.7433C39.079 20.6556 39.1451 20.5809 39.227 20.5268C39.2382 20.5227 39.2485 20.5163 39.2571 20.508C39.2657 20.4998 39.2725 20.4897 39.277 20.4786C39.2815 20.4675 39.2836 20.4556 39.2831 20.4437C39.2827 20.4317 39.2797 20.42 39.2745 20.4093C39.2701 20.3979 39.2635 20.3876 39.255 20.379C39.2464 20.3703 39.2362 20.3636 39.2249 20.3591C39.2136 20.3546 39.2015 20.3526 39.1894 20.353C39.1773 20.3535 39.1654 20.3565 39.1545 20.3618C39.0441 20.4435 38.9559 20.5514 38.8979 20.6759C38.8398 20.8003 38.8137 20.9372 38.822 21.0743L38.572 21.1218C38.5245 21.1218 38.502 21.1918 38.502 21.2393C38.502 21.2868 38.5495 21.3118 38.597 21.3118L38.847 21.2643C38.883 21.4068 38.9655 21.5333 39.0814 21.6238C39.1972 21.7144 39.3399 21.7638 39.487 21.7643C39.892 21.7168 39.9395 21.3368 39.987 21.0143L40.7245 20.8493C40.7379 20.9672 40.7379 21.0863 40.7245 21.2043C40.7245 21.2518 40.747 21.2993 40.7945 21.2993C40.842 21.2993 40.8895 21.2768 40.8895 21.2293C40.9037 21.0946 40.9037 20.9589 40.8895 20.8243L41.1045 20.7768C41.1244 20.7564 41.1398 20.7321 41.1497 20.7054C41.1597 20.6787 41.1638 20.6502 41.162 20.6218ZM39.4745 21.5718C39.167 21.5718 38.9995 21.2168 38.9995 21.2168L39.7845 21.0268C39.737 21.3818 39.6895 21.5718 39.4745 21.5718ZM39.997 20.8218C39.997 20.1568 40.4745 20.3468 40.5445 20.4193C40.6075 20.4845 40.6493 20.5673 40.6645 20.6568L39.997 20.8218Z" fill="white"/>
<path d="M39.3095 9.67072C39.2233 9.58816 39.1276 9.516 39.0245 9.45572L39.1195 9.31322C39.142 9.26572 39.142 9.21822 39.0945 9.19572C39.047 9.17322 38.9995 9.17072 38.977 9.21822L38.857 9.38572C38.7562 9.33172 38.6399 9.31392 38.5275 9.3353C38.4151 9.35669 38.3135 9.41596 38.2395 9.50322C38.122 9.67072 38.192 9.88322 38.287 10.1457L37.8595 10.7157C37.8153 10.6894 37.7803 10.65 37.7593 10.6031C37.7382 10.5561 37.7322 10.5038 37.742 10.4532C37.7645 10.4057 37.717 10.3582 37.6695 10.3357C37.622 10.3132 37.5745 10.3582 37.552 10.4057C37.5343 10.4952 37.5427 10.5878 37.5764 10.6726C37.6102 10.7573 37.6677 10.8305 37.742 10.8832L37.622 11.0482C37.5995 11.0957 37.5995 11.1432 37.647 11.1682C37.6945 11.1932 37.717 11.1907 37.7645 11.1432L37.907 10.9532C37.9951 10.9994 38.0927 11.0242 38.192 11.0257C38.2632 11.0293 38.334 11.0135 38.397 10.98C38.4599 10.9466 38.5126 10.8967 38.5495 10.8357C38.5941 10.7327 38.613 10.6205 38.6047 10.5086C38.5965 10.3968 38.5612 10.2885 38.502 10.1932L38.9045 9.64572C39.047 9.74072 39.1545 9.83572 39.1545 9.83572C39.1716 9.84812 39.1922 9.8548 39.2133 9.8548C39.2344 9.8548 39.255 9.84812 39.272 9.83572C39.2939 9.815 39.3091 9.78826 39.3158 9.7589C39.3224 9.72954 39.3203 9.69886 39.3095 9.67072ZM38.407 10.6907C38.365 10.7423 38.3065 10.7777 38.2413 10.7909C38.1761 10.8042 38.1083 10.7944 38.0495 10.7632L38.3745 10.3107C38.4312 10.4292 38.4428 10.5643 38.407 10.6907ZM38.407 9.94072C38.287 9.79822 38.287 9.34822 38.7145 9.51322L38.407 9.94072Z" fill="white"/>
<path d="M30.3068 2.28261C30.2097 2.17931 30.086 2.1049 29.9493 2.06761L29.9968 1.92511C30.0027 1.91409 30.0063 1.90195 30.0072 1.88947C30.0082 1.87699 30.0066 1.86444 30.0024 1.85263C29.9983 1.84082 29.9917 1.83001 29.9831 1.82088C29.9746 1.81176 29.9642 1.80452 29.9527 1.79963C29.9411 1.79474 29.9287 1.79231 29.9162 1.79249C29.9037 1.79267 29.8913 1.79546 29.88 1.80068C29.8686 1.80591 29.8584 1.81344 29.8501 1.82282C29.8418 1.83219 29.8356 1.84319 29.8318 1.85511L29.7593 2.04511H29.5693C29.4854 2.05276 29.406 2.08655 29.3423 2.14172C29.2786 2.19689 29.2338 2.27065 29.2143 2.35261C29.1193 2.63761 29.2843 2.82761 29.4643 2.99511L29.2518 3.68511C29.2028 3.65671 29.1632 3.61458 29.1379 3.56394C29.1126 3.51329 29.1026 3.45634 29.1093 3.40011C29.1093 3.35261 29.0843 3.30511 29.0368 3.30511C28.9893 3.30511 28.9418 3.32761 28.9418 3.37511C28.9256 3.47415 28.9411 3.57577 28.986 3.66552C29.0308 3.75528 29.1028 3.82861 29.1918 3.87511L29.1443 4.04011C29.139 4.05103 29.136 4.06293 29.1355 4.07506C29.1351 4.08719 29.1371 4.09928 29.1416 4.11057C29.1461 4.12185 29.1528 4.13209 29.1615 4.14062C29.1701 4.14915 29.1804 4.15579 29.1918 4.16011C29.1918 4.16011 29.2868 4.18261 29.3093 4.11261L29.3568 3.94511C29.4101 3.96562 29.4673 3.97415 29.5243 3.97011C29.6384 3.9755 29.7512 3.9435 29.8455 3.87898C29.9398 3.81446 30.0104 3.72094 30.0468 3.61261C30.1643 3.25761 29.6668 2.94761 29.6668 2.94761L29.8793 2.25761C29.989 2.2835 30.0883 2.34187 30.1643 2.42511C30.1703 2.4349 30.1783 2.44332 30.1878 2.44982C30.1973 2.45633 30.208 2.46079 30.2193 2.46291C30.2306 2.46502 30.2422 2.46476 30.2534 2.46213C30.2646 2.45949 30.2751 2.45455 30.2843 2.44761C30.2992 2.42316 30.3089 2.39587 30.3128 2.36747C30.3167 2.33907 30.3146 2.31018 30.3068 2.28261ZM29.4043 3.74511L29.6168 3.10511C30.2818 3.49511 29.6893 3.92261 29.4043 3.74511ZM29.5218 2.79511C29.4696 2.76004 29.4287 2.7106 29.4041 2.65278C29.3795 2.59495 29.3721 2.53123 29.383 2.46932C29.3938 2.40741 29.4224 2.34997 29.4652 2.30397C29.5081 2.25796 29.5633 2.22536 29.6243 2.21011H29.7193L29.5218 2.79511Z" fill="white"/>
<path d="M20.3066 5.4199L20.3766 5.3499C20.4835 5.23453 20.545 5.08431 20.5496 4.92709C20.5542 4.76987 20.5016 4.61631 20.4016 4.4949C20.1516 4.1624 19.8541 4.2449 19.5691 4.3524L19.0241 3.6024C19.1381 3.53366 19.2732 3.50877 19.4041 3.5324C19.4516 3.5324 19.4991 3.5074 19.4991 3.4599C19.4991 3.4124 19.4741 3.3649 19.4266 3.3649C19.2512 3.34763 19.0751 3.3899 18.9266 3.4849L18.8066 3.3174C18.8008 3.30768 18.7931 3.29931 18.7838 3.29282C18.7745 3.28633 18.764 3.28187 18.7529 3.27975C18.7418 3.27762 18.7304 3.27787 18.7194 3.28048C18.7084 3.2831 18.6981 3.28801 18.6891 3.2949C18.6795 3.30074 18.6712 3.30848 18.6647 3.31766C18.6581 3.32683 18.6536 3.33724 18.6512 3.34825C18.6489 3.35925 18.6488 3.37062 18.651 3.38165C18.6533 3.39269 18.6577 3.40315 18.6641 3.4124L18.7841 3.5799C18.714 3.64434 18.6503 3.71552 18.5941 3.7924C18.5128 3.89813 18.4688 4.02777 18.4688 4.16115C18.4688 4.29452 18.5128 4.42416 18.5941 4.5299C18.8441 4.9324 19.2341 4.7424 19.5191 4.5999L20.0666 5.3849C19.9822 5.44599 19.8853 5.48774 19.7829 5.50718C19.6805 5.52663 19.5751 5.52328 19.4741 5.4974C19.4631 5.49147 19.451 5.4879 19.4385 5.48693C19.426 5.48596 19.4134 5.4876 19.4016 5.49175C19.3898 5.4959 19.379 5.50247 19.3699 5.51104C19.3608 5.51961 19.3535 5.52999 19.3486 5.54151C19.3437 5.55303 19.3413 5.56545 19.3415 5.57797C19.3417 5.59048 19.3445 5.60282 19.3497 5.6142C19.3549 5.62558 19.3624 5.63574 19.3718 5.64404C19.3812 5.65234 19.3922 5.65859 19.4041 5.6624C19.5322 5.71244 19.6708 5.72996 19.8073 5.71338C19.9439 5.6968 20.0742 5.64665 20.1866 5.5674L20.2816 5.6874C20.297 5.70288 20.3167 5.71332 20.3381 5.71734C20.3595 5.72135 20.3817 5.71876 20.4016 5.7099C20.4113 5.70412 20.4197 5.69634 20.4262 5.68708C20.4327 5.67783 20.4371 5.6673 20.4393 5.6562C20.4414 5.6451 20.4411 5.63367 20.4385 5.62268C20.4359 5.61168 20.431 5.60136 20.4241 5.5924L20.3066 5.4199ZM18.7141 4.4199C18.4641 4.1699 18.8091 3.7549 18.8816 3.7074L19.4041 4.4574C19.0716 4.6124 18.9041 4.6374 18.7141 4.4224V4.4199ZM20.2341 4.6099C20.3088 4.69676 20.3479 4.80859 20.3438 4.92305C20.3396 5.03752 20.2924 5.1462 20.2116 5.2274L20.1866 5.2524L19.6641 4.5024C19.9016 4.4224 20.0916 4.3999 20.2341 4.6124V4.6099Z" fill="white"/>
<path d="M14.3192 13.4459L14.1242 13.3734C14.1492 13.3034 14.3742 12.5909 13.6492 12.4234C13.2942 12.3284 13.1267 12.6734 12.9842 12.9459L12.0817 12.5909C12.1767 12.4234 12.2967 12.2809 12.4142 12.2584C12.4361 12.2469 12.4544 12.2297 12.4672 12.2085C12.48 12.1873 12.4867 12.1631 12.4867 12.1384C12.4757 12.1178 12.4595 12.1006 12.4398 12.0883C12.42 12.076 12.3974 12.0691 12.3742 12.0684C12.1753 12.1599 12.0157 12.3195 11.9242 12.5184L11.7092 12.4484C11.6878 12.4415 11.6646 12.4429 11.6443 12.4523C11.6239 12.4617 11.6077 12.4783 11.5989 12.4989C11.5902 12.5196 11.5895 12.5428 11.5969 12.5639C11.6043 12.5851 11.6194 12.6027 11.6392 12.6134L11.8042 12.6859C11.7637 12.7709 11.7414 12.8635 11.7389 12.9576C11.7363 13.0518 11.7534 13.1454 11.7892 13.2325C11.825 13.3197 11.8787 13.3983 11.9467 13.4635C12.0147 13.5286 12.0956 13.5788 12.1842 13.6109C12.6842 13.8259 12.8967 13.4934 13.0642 13.1609L13.8742 13.4684C13.8351 13.5634 13.7695 13.6452 13.6853 13.7041C13.6012 13.7631 13.5018 13.7966 13.3992 13.8009C13.3517 13.8009 13.3042 13.8259 13.3042 13.8734C13.3042 13.9209 13.3267 13.9684 13.3742 13.9684C13.5182 13.9712 13.6596 13.9292 13.7788 13.8481C13.8979 13.767 13.9889 13.6509 14.0392 13.5159L14.2892 13.6109C14.3076 13.611 14.3258 13.6067 14.3423 13.5985C14.3588 13.5902 14.3732 13.5782 14.3842 13.5634C14.3819 13.5404 14.3749 13.5181 14.3638 13.4979C14.3526 13.4777 14.3374 13.46 14.3192 13.4459ZM12.2542 13.4459C12.1278 13.3887 12.0279 13.2855 11.975 13.1573C11.922 13.0291 11.9199 12.8855 11.9692 12.7559L12.8742 13.0884C12.7292 13.4209 12.5867 13.5884 12.2542 13.4459ZM13.1242 12.9934C13.2667 12.7084 13.3617 12.5434 13.5767 12.5909C14.1217 12.6859 13.9317 13.2559 13.9317 13.3034L13.1242 12.9934Z" fill="white"/>
<path d="M36.5311 48.6075H12.2561C11.1386 48.6075 9.80859 47.585 9.80859 46.47L9.83109 32.8825C9.83109 31.67 10.8311 30.2925 12.0411 30.2925L36.9586 30.3875C37.531 30.4094 38.0729 30.6515 38.4712 31.0632C38.8694 31.475 39.0933 32.0246 39.0961 32.5975V46.065C39.0951 46.4005 39.0279 46.7325 38.8984 47.042C38.7689 47.3515 38.5796 47.6324 38.3413 47.8686C38.103 48.1048 37.8204 48.2916 37.5098 48.4184C37.1992 48.5452 36.8666 48.6095 36.5311 48.6075Z" fill="white"/>
<path d="M12.7052 48.7513C10.6885 48.7046 9.66683 47.7779 9.64017 45.9713C9.61767 43.5738 9.71267 33.6438 9.71267 33.0738C9.72735 32.4918 9.85647 31.9184 10.0927 31.3863C10.2455 31.0146 10.5059 30.6971 10.8404 30.4744C11.1749 30.2517 11.5683 30.1339 11.9702 30.1363C11.9987 30.1404 12.0248 30.1547 12.0436 30.1765C12.0625 30.1983 12.0729 30.2262 12.0729 30.255C12.0729 30.2838 12.0625 30.3117 12.0436 30.3335C12.0248 30.3553 11.9987 30.3696 11.9702 30.3738C10.1402 30.3738 9.97017 32.6238 9.95017 33.0813C9.92767 33.6288 9.83017 43.5563 9.88017 45.9563C9.90267 47.5938 10.8302 48.4263 12.6827 48.4738C13.8227 48.4963 34.3227 48.4963 36.2452 48.4738C38.0502 48.4488 38.9952 46.9538 38.9952 46.1688C38.9952 46.0513 39.0202 35.3388 38.9727 33.0088C38.9002 30.5388 37.3102 30.5638 36.6202 30.5638C36.5727 30.5638 36.3827 30.5863 36.3827 30.4438C36.3827 30.3013 36.5727 30.3263 36.6202 30.3263C37.3102 30.3263 39.1627 30.3013 39.2327 33.0088C39.3052 35.3388 39.2577 46.0513 39.2577 46.1938C39.2043 46.8033 38.9389 47.3747 38.5077 47.8088C38.2176 48.1078 37.8707 48.3459 37.4873 48.5091C37.1039 48.6722 36.6918 48.7571 36.2752 48.7588L12.7052 48.7513Z" fill="#2C3135"/>
<path d="M15.7937 29.5586C15.8147 29.5861 15.8418 29.6084 15.8728 29.6237C15.9038 29.639 15.9379 29.647 15.9725 29.647C16.007 29.647 16.0412 29.639 16.0722 29.6237C16.1032 29.6084 16.1302 29.5861 16.1512 29.5586C17.1262 28.2286 21.9937 22.1461 28.6687 23.9761C36.0087 25.9961 36.7687 31.7911 36.7687 32.9311C36.7937 37.0411 32.8737 40.8161 31.6137 42.2911C31.5756 42.3344 31.5221 42.361 31.4646 42.3653C31.407 42.3695 31.3502 42.3509 31.3062 42.3136C30.9487 42.0061 30.0937 41.3886 29.7137 40.8411C29.6846 40.8069 29.6668 40.7645 29.6628 40.7197C29.6587 40.6749 29.6687 40.63 29.6912 40.5911C30.1187 39.7586 32.6912 34.7011 32.6112 33.7036C32.5412 32.7511 31.3762 30.8511 31.0912 30.4011C31.0707 30.37 31.0423 30.3449 31.0089 30.3282C30.9756 30.3115 30.9384 30.3039 30.9012 30.3061L20.9262 30.2586C20.8867 30.2583 20.8479 30.2692 20.8143 30.29C20.7807 30.3108 20.7536 30.3406 20.7362 30.3761C20.3562 31.1611 18.0987 35.3761 15.1062 34.6261C12.6062 34.0086 11.3062 27.7611 11.1062 26.2661C11.1004 26.2389 11.1 26.2107 11.1052 26.1833C11.1104 26.1559 11.1209 26.1298 11.1363 26.1065C11.1517 26.0833 11.1715 26.0633 11.1947 26.0478C11.2178 26.0322 11.2438 26.0215 11.2712 26.0161L13.5987 25.5861C13.6507 25.5736 13.7055 25.5813 13.752 25.6078C13.7984 25.6343 13.833 25.6775 13.8487 25.7286C14.1087 26.3036 14.9387 28.2986 15.7937 29.5586Z" fill="#4D68A1"/>
<path d="M15.745 23.8054C15.6975 23.6879 15.295 22.8329 14.795 21.8579C14.9163 21.9029 15.0464 21.9192 15.175 21.9054C15.3175 21.8354 15.175 21.2654 14.7725 21.0504C14.6473 20.9971 14.5098 20.979 14.375 20.9979C14.02 20.2629 13.6625 19.5979 13.4725 19.2879C12.9725 18.4104 12.5 18.6004 12.31 18.6704C12.12 18.7404 10.125 19.7479 9.78254 19.9104C9.12504 20.2479 9.42754 20.8129 9.49754 20.9979C9.56754 21.1829 11.85 25.6529 11.85 25.6529C11.9058 25.7776 11.9865 25.8896 12.0872 25.9819C12.1879 26.0742 12.3064 26.1449 12.4355 26.1897C12.5645 26.2344 12.7014 26.2522 12.8376 26.242C12.9739 26.2318 13.1066 26.1938 13.2275 26.1304C13.395 26.0354 14.5575 25.4629 15.27 25.0604C15.4907 24.9473 15.6615 24.7563 15.7493 24.5244C15.8371 24.2925 15.8356 24.0362 15.745 23.8054Z" fill="white"/>
<path d="M18.1716 37.0882C18.1719 37.0599 18.1666 37.0318 18.1559 37.0055C18.1452 36.9793 18.1294 36.9554 18.1093 36.9354C18.0893 36.9154 18.0655 36.8996 18.0392 36.8889C18.013 36.8782 17.9849 36.8729 17.9566 36.8732C15.5566 36.7557 13.4566 36.8257 12.8266 36.8507C12.7984 36.8504 12.7705 36.8556 12.7445 36.8661C12.7184 36.8767 12.6947 36.8923 12.6747 36.912C12.6547 36.9318 12.6388 36.9553 12.628 36.9813C12.6171 37.0072 12.6116 37.0351 12.6116 37.0632C12.5891 38.1807 12.6116 39.7707 12.6116 40.3407C12.6112 40.369 12.6166 40.3971 12.6272 40.4234C12.6379 40.4496 12.6538 40.4734 12.6738 40.4935C12.6938 40.5135 12.7177 40.5293 12.7439 40.54C12.7701 40.5507 12.7982 40.556 12.8266 40.5557C14.0616 40.6032 17.1241 40.5557 17.9341 40.5557C17.9622 40.5557 17.99 40.5501 18.016 40.5393C18.0419 40.5284 18.0654 40.5126 18.0852 40.4926C18.105 40.4726 18.1206 40.4488 18.1311 40.4228C18.1416 40.3967 18.1469 40.3688 18.1466 40.3407C18.1941 39.5332 18.1716 37.7057 18.1716 37.0882Z" fill="#E02728"/>
<path d="M17.1716 43.2869C17.1692 43.2499 17.1534 43.215 17.1272 43.1888C17.101 43.1625 17.0661 43.1468 17.0291 43.1444C16.4116 43.1444 13.7291 43.1194 12.7541 43.1444C12.717 43.1468 12.6822 43.1625 12.6559 43.1888C12.6297 43.215 12.6139 43.2499 12.6116 43.2869C12.6116 43.4994 12.5891 43.9519 12.6116 44.2119C12.6139 44.2489 12.6297 44.2838 12.6559 44.3101C12.6822 44.3363 12.717 44.3521 12.7541 44.3544C13.2766 44.3544 15.2241 44.4019 17.0541 44.4019C17.0911 44.3996 17.126 44.3838 17.1522 44.3576C17.1784 44.3313 17.1942 44.2964 17.1966 44.2594C17.1966 44.0219 17.1966 43.5719 17.1716 43.2869Z" fill="#2C3135"/>
<path d="M23.491 43.2869C23.4887 43.2499 23.4729 43.215 23.4467 43.1888C23.4204 43.1625 23.3856 43.1468 23.3485 43.1444C22.731 43.1444 20.046 43.1194 19.0735 43.1444C19.0365 43.1468 19.0016 43.1625 18.9754 43.1888C18.9492 43.215 18.9334 43.2499 18.931 43.2869C18.931 43.4994 18.906 43.9519 18.931 44.2119C18.9334 44.2489 18.9492 44.2838 18.9754 44.3101C19.0016 44.3363 19.0365 44.3521 19.0735 44.3544C19.596 44.3544 21.5185 44.3544 23.3485 44.3794C23.3854 44.3765 23.42 44.3606 23.4461 44.3345C23.4722 44.3084 23.4882 44.2737 23.491 44.2369V43.2869Z" fill="#2C3135"/>
<path d="M29.8761 40.9971C30.1704 41.4256 30.5407 41.7968 30.9686 42.0921C30.9686 42.0921 30.7786 43.3971 30.2561 43.7296C30.2561 43.7296 30.5411 45.2296 30.3036 45.2496C30.0661 45.2696 29.6386 44.2996 29.6386 44.2996C29.6386 44.2996 29.5661 45.5346 29.4236 45.5496C29.2811 45.5646 28.9736 45.4296 28.9011 44.4096C28.9011 44.4096 28.3786 45.4296 28.2361 45.4096C28.0936 45.3896 27.9511 45.1596 27.9986 44.7446C27.9986 44.7446 27.5486 44.8871 27.6661 44.1496C27.7836 43.4121 28.4511 42.4646 28.4511 42.4646C28.4511 42.4646 27.8086 42.6771 27.7861 42.5121C27.7636 42.3471 28.2361 41.8696 29.0361 41.7621C29.2887 41.4786 29.5702 41.2222 29.8761 40.9971Z" fill="#FCCAC2"/>
<path d="M31.1259 42.1462C31.1241 42.1019 31.1074 42.0596 31.0784 42.0262C30.6694 41.7279 30.302 41.3765 29.9859 40.9812C29.9384 40.9337 29.8659 40.9087 29.8184 40.9562C29.5364 41.1526 29.2743 41.3762 29.0359 41.6237C28.1809 41.8737 27.7059 42.2887 27.6334 42.5012C27.6109 42.5737 27.6584 42.7637 28.2284 42.6912C28.1334 42.8587 28.0384 43.0012 27.9659 43.1437H25.5334C25.4963 43.146 25.4614 43.1618 25.4352 43.188C25.409 43.2142 25.3932 43.2491 25.3909 43.2862C25.3909 43.4987 25.3684 43.9512 25.3909 44.2112C25.3932 44.2482 25.409 44.2831 25.4352 44.3093C25.4614 44.3355 25.4963 44.3513 25.5334 44.3537H27.5534C27.5759 45.0437 27.8384 44.9487 27.9084 44.9237C27.9559 45.4712 28.1709 45.5412 28.2409 45.5662C28.3109 45.5912 28.4909 45.6137 28.8109 44.8162C28.8359 45.1487 29.0734 45.7662 29.3584 45.7187C29.6434 45.6712 29.6659 45.2187 29.7134 44.6737C29.9034 45.0787 30.1409 45.4237 30.3559 45.3862C30.4034 45.3862 30.7109 45.2687 30.3784 43.8187C30.9734 43.2487 31.0909 42.1937 31.1259 42.1462ZM27.9184 42.4537C27.9184 42.3587 28.2759 42.1687 28.6309 42.0037C28.5396 42.1162 28.4561 42.2348 28.3809 42.3587C28.23 42.4172 28.0701 42.4493 27.9084 42.4537H27.9184ZM30.1509 43.7037C30.1215 43.7359 30.1046 43.7776 30.1034 43.8212C30.1984 44.3212 30.3534 45.1037 30.2459 45.1287C30.1284 45.1037 29.9134 44.6062 29.7459 44.1787C29.7815 43.9265 29.8453 43.6791 29.9359 43.4412C29.9485 43.4097 29.948 43.3745 29.9347 43.3433C29.9213 43.3121 29.8961 43.2875 29.8646 43.2749C29.8331 43.2623 29.7979 43.2627 29.7667 43.2761C29.7356 43.2895 29.711 43.3147 29.6984 43.3462C29.6984 43.3712 29.4134 44.2262 29.4359 44.6762C29.435 44.9481 29.4032 45.219 29.3409 45.4837C29.296 45.4507 29.2563 45.411 29.2234 45.3662C29.1284 45.2462 28.9384 44.8662 29.0809 44.1162C29.1739 43.7833 29.2926 43.4582 29.4359 43.1437C29.4421 43.1281 29.4452 43.1114 29.445 43.0946C29.4448 43.0778 29.4413 43.0612 29.4347 43.0458C29.4281 43.0303 29.4185 43.0163 29.4064 43.0046C29.3944 42.9929 29.3802 42.9836 29.3646 42.9774C29.349 42.9712 29.3323 42.9681 29.3156 42.9683C29.2988 42.9685 29.2822 42.972 29.2667 42.9786C29.2513 42.9852 29.2373 42.9948 29.2256 43.0068C29.2138 43.0188 29.2046 43.0331 29.1984 43.0487C29.1984 43.0712 29.0084 43.4987 28.8434 44.0487C28.6784 44.5987 28.3909 45.3312 28.2009 45.2837C28.0834 45.2587 28.1059 44.9262 28.1309 44.7362C28.307 44.0564 28.5869 43.408 28.9609 42.8137C28.9731 42.8015 28.9825 42.7869 28.9886 42.7708C28.9946 42.7546 28.9971 42.7374 28.9959 42.7202C28.9947 42.7031 28.9899 42.6863 28.9816 42.6712C28.9734 42.6561 28.962 42.6429 28.9482 42.6326C28.9344 42.6223 28.9186 42.615 28.9018 42.6113C28.885 42.6077 28.8676 42.6077 28.8507 42.6113C28.8339 42.615 28.8181 42.6222 28.8043 42.6325C28.7905 42.6429 28.7791 42.656 28.7709 42.6712C28.3818 43.2804 28.086 43.9444 27.8934 44.6412C27.8459 44.6662 27.7259 44.6887 27.7734 44.2862C27.8934 43.3837 28.6759 42.0537 29.8159 41.2462C30.1186 41.6015 30.4617 41.9203 30.8384 42.1962C30.8059 42.4312 30.6259 43.2612 30.1409 43.7137L30.1509 43.7037Z" fill="#2C3135"/>
<path d="M36.3875 43.2869C36.3852 43.2499 36.3694 43.215 36.3432 43.1888C36.3169 43.1625 36.282 43.1468 36.245 43.1444C35.6275 43.1444 32.945 43.1194 31.97 43.1444C31.933 43.1468 31.8981 43.1625 31.8719 43.1888C31.8456 43.215 31.8299 43.2499 31.8275 43.2869C31.8275 43.4994 31.8025 43.9519 31.8275 44.2119C31.8299 44.2489 31.8456 44.2838 31.8719 44.3101C31.8981 44.3363 31.933 44.3521 31.97 44.3544C32.4925 44.3544 34.4175 44.3544 36.245 44.3794C36.282 44.3771 36.3169 44.3613 36.3432 44.3351C36.3694 44.3088 36.3852 44.2739 36.3875 44.2369C36.3875 43.9994 36.4125 43.5719 36.3875 43.2869Z" fill="#2C3135"/>
<path d="M13.9017 25.1542C13.9142 25.1758 13.9314 25.1944 13.9523 25.209C13.9731 25.2236 13.9973 25.2338 14.0235 25.2391C14.0496 25.2444 14.0771 25.2447 14.1045 25.2399C14.1318 25.2351 14.1585 25.2254 14.183 25.2113C14.2074 25.1972 14.2292 25.1789 14.247 25.1576C14.2648 25.1363 14.2784 25.1123 14.2869 25.0871C14.2953 25.0618 14.2986 25.0357 14.2964 25.0104C14.2942 24.985 14.2867 24.9608 14.2742 24.9392C14.2618 24.9176 14.2446 24.899 14.2237 24.8844C14.2028 24.8698 14.1786 24.8596 14.1525 24.8543C14.1264 24.849 14.0989 24.8487 14.0715 24.8535C14.0441 24.8583 14.0174 24.868 13.993 24.8821C13.9685 24.8962 13.9468 24.9144 13.9289 24.9358C13.9111 24.9571 13.8976 24.9811 13.8891 25.0063C13.8806 25.0316 13.8774 25.0576 13.8796 25.083C13.8817 25.1084 13.8893 25.1326 13.9017 25.1542Z" fill="#2C3135"/>
<path d="M22.6835 15.4022C22.6835 15.4022 21.4485 18.9647 22.136 21.4022C22.611 23.0872 24.386 23.3022 24.386 23.3022C24.3492 23.6755 24.2652 24.0426 24.136 24.3947C24.136 24.3947 24.886 25.2247 25.801 25.2247C26.716 25.2247 27.4385 24.6322 27.5335 24.3947C27.5335 24.3947 27.391 23.2297 27.3685 22.3747C27.3685 22.3747 28.436 22.1247 29.3685 19.5972C29.3685 19.5972 30.5085 19.3822 30.461 18.5272C30.4135 17.6722 29.6285 17.8147 29.3435 17.9097C28.8935 18.0522 28.6085 17.4572 28.5135 17.2447C28.251 16.4947 27.9435 15.6772 27.586 15.4147C27.2285 15.1522 26.3985 15.0347 26.0185 14.9397C25.401 14.7747 24.9485 13.5872 24.901 13.4672C24.8535 13.3472 24.346 14.8547 22.6835 15.4022Z" fill="#FCCAC2"/>
<path d="M26.9356 16.8982C26.8156 16.7082 26.5556 16.2807 26.0331 16.7807C26.0072 16.802 25.9744 16.8128 25.9409 16.8112C25.9074 16.8096 25.8757 16.7955 25.852 16.7718C25.8283 16.7481 25.8143 16.7165 25.8127 16.683C25.811 16.6495 25.8219 16.6166 25.8431 16.5907C25.9386 16.5027 26.051 16.4351 26.1736 16.3921C26.2961 16.3491 26.4261 16.3316 26.5556 16.3407C26.6762 16.3604 26.7905 16.4079 26.8894 16.4795C26.9884 16.5511 27.0693 16.6449 27.1256 16.7532C27.1374 16.7661 27.1456 16.7818 27.1496 16.7987C27.1536 16.8157 27.1532 16.8334 27.1484 16.8502C27.1437 16.8669 27.1347 16.8822 27.1224 16.8946C27.1101 16.9069 27.0949 16.9159 27.0781 16.9207C27.0531 17.0032 26.9581 16.9457 26.9356 16.8982Z" fill="#2C3135"/>
<path d="M23.8937 16.5866C23.4912 15.8016 22.9687 16.4191 22.9687 16.4441C22.9428 16.4653 22.9099 16.4762 22.8764 16.4745C22.843 16.4729 22.8113 16.4589 22.7876 16.4352C22.7639 16.4115 22.7499 16.3798 22.7482 16.3463C22.7466 16.3129 22.7574 16.28 22.7787 16.2541C22.8635 16.1459 22.9756 16.0624 23.1036 16.0122C23.2315 15.962 23.3706 15.9469 23.5063 15.9686C23.642 15.9903 23.7694 16.0479 23.8754 16.1355C23.9813 16.223 24.0619 16.3374 24.1087 16.4666C24.1208 16.4957 24.1228 16.5282 24.1141 16.5586C24.1055 16.589 24.0869 16.6156 24.0612 16.6341C24.0137 16.6816 23.9187 16.6341 23.8937 16.5866Z" fill="#2C3135"/>
<path d="M24.3939 19.2956C24.2264 19.2956 23.7514 18.7031 23.8239 18.5131C23.8714 18.4181 23.9889 18.3706 24.3239 18.3206C24.3963 18.3086 24.4681 18.2927 24.5389 18.2731C24.5864 18.1306 24.6564 17.5856 24.7289 17.1106C24.7344 17.0767 24.7529 17.0463 24.7804 17.0258C24.8079 17.0053 24.8423 16.9962 24.8764 17.0006C24.9107 17.0044 24.9421 17.0214 24.964 17.048C24.986 17.0746 24.9967 17.1087 24.9939 17.1431C24.8289 18.3931 24.7439 18.4506 24.7089 18.4756C24.6019 18.5193 24.4904 18.5512 24.3764 18.5706C24.3064 18.5931 24.1639 18.6181 24.0914 18.6406C24.1845 18.8097 24.3143 18.9558 24.4714 19.0681C24.4995 19.0843 24.5202 19.1109 24.5291 19.1422C24.5379 19.1735 24.5343 19.207 24.5189 19.2356C24.485 19.2688 24.441 19.2899 24.3939 19.2956Z" fill="#2C3135"/>
<path d="M24.3214 20.8628C23.5714 20.8153 23.4189 20.1128 23.4439 19.7478C23.4488 19.7118 23.4655 19.6784 23.4914 19.6528C23.5188 19.6329 23.5527 19.624 23.5864 19.6278L25.3364 19.7703C25.3721 19.7763 25.4052 19.7928 25.4314 19.8178C25.451 19.8455 25.4598 19.8792 25.4564 19.9128C25.4389 19.9378 25.2964 20.9103 24.3214 20.8628ZM23.6814 19.8903C23.6853 20.066 23.752 20.2344 23.8694 20.3651C23.9868 20.4959 24.1472 20.5802 24.3214 20.6028C24.5091 20.6177 24.696 20.5652 24.8486 20.4548C25.0011 20.3444 25.1094 20.1833 25.1539 20.0003L23.6814 19.8903Z" fill="#2C3135"/>
<path d="M32.4201 32.499C31.9201 31.169 30.4726 29.054 30.4026 28.959C30.3933 28.9463 30.3814 28.9356 30.3679 28.9275C30.3543 28.9195 30.3393 28.9143 30.3236 28.9122C30.308 28.9101 30.2921 28.9111 30.2769 28.9153C30.2617 28.9195 30.2475 28.9267 30.2351 28.9365C30.2225 28.9456 30.2118 28.9572 30.2038 28.9705C30.1958 28.9839 30.1906 28.9987 30.1885 29.0141C30.1864 29.0296 30.1875 29.0453 30.1916 29.0603C30.1957 29.0753 30.2029 29.0893 30.2126 29.1015C30.2126 29.1015 30.5451 29.5765 30.9251 30.194C28.5726 30.1715 22.1126 30.124 20.9001 30.099C21.0528 29.802 21.18 29.4925 21.2801 29.174C21.2863 29.1576 21.2893 29.1401 21.2888 29.1225C21.2882 29.105 21.2843 29.0877 21.2771 29.0717C21.2699 29.0556 21.2596 29.0412 21.2468 29.0292C21.234 29.0171 21.219 29.0077 21.2026 29.0015C21.1862 28.9952 21.1687 28.9923 21.1511 28.9928C21.1336 28.9933 21.1163 28.9973 21.1003 29.0045C21.0843 29.0117 21.0698 29.022 21.0578 29.0347C21.0457 29.0475 21.0363 29.0626 21.0301 29.079C21.0301 29.1015 20.2476 31.0965 19.4626 32.079C19.4502 32.0924 19.441 32.1084 19.4355 32.1259C19.43 32.1433 19.4284 32.1617 19.4308 32.1798C19.4331 32.1979 19.4395 32.2153 19.4493 32.2307C19.4591 32.2461 19.4722 32.2592 19.4876 32.269C19.5576 32.3165 19.6301 32.269 19.6776 32.244C20.1106 31.6617 20.477 31.0328 20.7701 30.369C21.6251 30.369 28.7701 30.439 31.0551 30.464C31.4861 31.1352 31.8591 31.8419 32.1701 32.5765C32.1858 32.6056 32.2109 32.6286 32.2413 32.6417C32.2717 32.6549 32.3056 32.6574 32.3376 32.649C32.3976 32.644 32.4451 32.5715 32.4201 32.499Z" fill="#2C3135"/>
<path d="M16.5531 31.0002C16.5306 30.9777 14.4881 27.7502 13.7506 25.8702C13.7438 25.8545 13.7402 25.8375 13.7402 25.8204C13.7402 25.8033 13.7437 25.7864 13.7505 25.7707C13.7573 25.755 13.7673 25.7408 13.7797 25.7291C13.7922 25.7174 13.807 25.7084 13.8231 25.7027C13.8386 25.6959 13.8554 25.6924 13.8723 25.6924C13.8892 25.6924 13.906 25.6959 13.9215 25.7027C13.937 25.7095 13.9509 25.7195 13.9624 25.732C13.9738 25.7444 13.9826 25.7591 13.9881 25.7752C14.7256 27.6527 16.7681 30.8352 16.7681 30.8577C16.7786 30.871 16.7858 30.8867 16.7891 30.9033C16.7924 30.92 16.7917 30.9372 16.7871 30.9535C16.7824 30.9699 16.774 30.9849 16.7624 30.9973C16.7509 31.0098 16.7365 31.0193 16.7206 31.0252C16.694 31.0407 16.6629 31.0467 16.6324 31.0422C16.602 31.0376 16.574 31.0228 16.5531 31.0002Z" fill="#2C3135"/>
<path d="M10.973 23.4767C10.973 23.4767 11.2805 23.1442 11.3755 23.5492C11.4705 23.9542 11.423 24.8317 11.328 24.8792C11.233 24.9267 10.9005 25.0217 10.783 24.7367C10.6631 24.7605 10.5386 24.7364 10.4363 24.6696C10.334 24.6028 10.2619 24.4986 10.2355 24.3792C10.2355 24.3792 9.85546 24.3792 9.78296 23.7867C9.78296 23.7867 9.40296 23.6192 9.53296 22.9542C9.66296 22.2892 10.223 21.7442 10.283 22.2892C10.283 22.2892 10.6155 22.0392 10.663 22.8592C10.663 22.8842 11.043 22.7892 10.973 23.4767Z" fill="#FCCAC2"/>
<path d="M13.8933 21.3119C13.8233 21.2169 14.1083 20.8844 14.6058 21.0019C15.1033 21.1194 15.3183 21.7519 15.2008 21.8819C15.0833 22.0119 14.1558 21.6919 13.8933 21.3119Z" fill="#FCCAC2"/>
<path d="M15.8881 23.8308C15.8181 23.6633 15.2956 22.5008 15.0806 22.0483C15.1056 22.0483 15.2956 22.0258 15.3306 21.9058C15.3781 21.6683 15.2581 21.0033 14.6656 20.8608C14.5841 20.8398 14.4996 20.8322 14.4156 20.8383C14.3906 20.7658 13.5831 19.2708 13.4656 19.0558C13.3756 18.8433 13.0381 18.2483 12.3256 18.5333C11.7081 18.7833 9.64061 19.8883 9.61811 19.9108C9.47561 20.0308 9.04811 20.3158 9.36811 21.0283C9.50692 21.3852 9.6655 21.7341 9.84311 22.0733C9.74279 22.1703 9.65841 22.2825 9.59311 22.4058C9.11811 23.3558 9.52061 23.8058 9.71061 23.9483C9.71061 23.9483 9.80561 24.5183 10.1881 24.5658C10.2333 24.6827 10.316 24.7812 10.4232 24.8459C10.5305 24.9106 10.6562 24.9379 10.7806 24.9233C10.8096 24.9728 10.8487 25.0156 10.8954 25.0488C10.9422 25.082 10.9954 25.1049 11.0517 25.1161C11.1079 25.1272 11.1659 25.1262 11.2217 25.1132C11.2776 25.1003 11.33 25.0756 11.3756 25.0408C11.4456 25.1608 11.5656 25.3983 11.7781 25.7908C11.8546 25.9346 11.9593 26.0615 12.0861 26.1637C12.2128 26.266 12.3589 26.3415 12.5156 26.3858C12.6165 26.411 12.7194 26.4269 12.8231 26.4333C12.9539 26.4428 13.085 26.4178 13.2031 26.3608C13.2506 26.3383 15.2031 25.3608 15.5781 25.1258C15.7696 24.9776 15.9048 24.7684 15.9611 24.5329C16.0175 24.2974 15.9918 24.0497 15.8881 23.8308ZM14.6056 21.0983C14.7442 21.1565 14.8641 21.2516 14.9523 21.3733C15.0405 21.495 15.0935 21.6386 15.1056 21.7883C14.2731 21.6208 13.9656 21.4083 14.0356 21.2408C14.0606 21.1233 14.2731 20.9983 14.6056 21.0983ZM9.71311 23.5983C9.59311 23.4308 9.49811 23.0983 9.78311 22.5058C9.92811 22.2433 10.0331 22.1733 10.0931 22.1958C10.1531 22.2183 10.1406 22.2433 10.1406 22.3158C9.9452 22.7221 9.80157 23.1513 9.71311 23.5933V23.5983ZM10.1406 24.2483C10.0772 24.2068 10.0247 24.1506 9.9877 24.0844C9.9507 24.0183 9.93026 23.9441 9.92811 23.8683C9.97334 23.3694 10.1187 22.8848 10.3556 22.4433C10.383 22.4234 10.4169 22.4144 10.4506 22.4183C10.4506 22.4183 10.5206 22.4658 10.4731 22.8458C10.3247 23.3036 10.2135 23.7727 10.1406 24.2483ZM10.8306 23.4983C10.7253 23.8617 10.669 24.2375 10.6631 24.6158C10.6015 24.616 10.5412 24.5977 10.49 24.5634C10.4388 24.5291 10.399 24.4804 10.3756 24.4233V24.3758C10.4252 23.906 10.5301 23.4436 10.6881 22.9983C10.7095 22.9799 10.733 22.9639 10.7581 22.9508C10.7831 22.9758 10.8756 23.0458 10.8306 23.5208V23.4983ZM11.2806 24.7483C11.2239 24.7873 11.1588 24.8121 11.0906 24.8208C11.0439 24.8208 10.9964 24.7733 10.9481 24.6783C10.9587 24.3177 11.0184 23.9603 11.1256 23.6158L11.2431 23.4983C11.2681 23.5208 11.3156 23.6158 11.3156 23.9733C11.3156 24.3308 11.2806 24.6608 11.2806 24.7483ZM10.4031 21.4083C10.4731 21.6208 10.9031 22.4533 11.3281 23.2608C11.2579 23.248 11.1859 23.248 11.1156 23.2608C11.1156 22.9758 10.9731 22.6908 10.7831 22.7133C10.8056 22.4633 10.6881 22.1208 10.4256 22.1683C10.3556 21.8358 10.1406 21.9183 10.0706 21.9183C9.97561 21.7508 9.80811 21.3958 9.59311 20.8958C9.38061 20.3508 9.64061 20.1833 9.78311 20.0658C9.80811 20.0658 11.8031 18.9483 12.4206 18.7108C12.8731 18.5458 13.0856 18.8058 13.2756 19.1383C13.3706 19.3058 14.0131 20.5408 14.1781 20.8483C14.055 20.8872 13.9416 20.952 13.8456 21.0383C13.5956 20.5383 13.3456 20.0883 13.2531 19.9233C13.0156 19.4483 12.8256 19.2108 12.3731 19.2808C11.6367 19.5359 10.9411 19.8963 10.3081 20.3508C9.95061 20.7183 10.2606 21.0758 10.4031 21.4083ZM15.4031 24.8283C15.0481 25.0783 13.1006 26.0158 13.0531 26.0633C12.8913 26.1139 12.7192 26.1225 12.5531 26.0883C12.4305 26.052 12.3166 25.9908 12.2186 25.9087C12.1206 25.8266 12.0404 25.7252 11.9831 25.6108C11.6981 25.1108 11.5806 24.8758 11.5331 24.8033V23.6408C11.6981 23.9733 11.8656 24.3058 12.0081 24.5433C12.4831 25.4458 12.9331 25.2558 13.1706 25.1358C13.4081 25.0158 13.9781 24.6358 14.6706 24.3058C15.3631 23.9758 15.1456 23.4733 15.0256 23.2608C14.9781 23.1408 14.5981 22.4758 14.2181 21.7408C14.4037 21.8338 14.594 21.9172 14.7881 21.9908C15.0731 22.5833 15.6206 23.7408 15.6681 23.9133C15.7931 24.3283 15.7231 24.6383 15.4131 24.8283H15.4031Z" fill="#2C3135"/>
<path d="M12.921 23.1695C12.801 23.1695 12.5635 23.0745 11.971 22.5995C11.9569 22.5887 11.945 22.5752 11.9361 22.5597C11.9272 22.5443 11.9214 22.5273 11.9191 22.5097C11.9168 22.492 11.918 22.4741 11.9226 22.4569C11.9272 22.4397 11.9351 22.4236 11.946 22.4095C11.9568 22.3954 11.9703 22.3835 11.9857 22.3746C12.0011 22.3657 12.0182 22.36 12.0358 22.3577C12.0534 22.3553 12.0714 22.3565 12.0886 22.3611C12.1057 22.3657 12.1219 22.3737 12.136 22.3845C12.3642 22.5817 12.6162 22.7497 12.886 22.8845C12.8935 22.2378 12.8298 21.5922 12.696 20.9595C12.69 20.9438 12.6878 20.927 12.6897 20.9103C12.6915 20.8936 12.6974 20.8777 12.7067 20.8637C12.716 20.8498 12.7285 20.8382 12.7431 20.8301C12.7578 20.822 12.7742 20.8175 12.791 20.817C12.8066 20.811 12.8235 20.8088 12.8402 20.8107C12.8568 20.8126 12.8728 20.8184 12.8868 20.8277C12.9007 20.837 12.9122 20.8495 12.9204 20.8642C12.9285 20.8788 12.933 20.8952 12.9335 20.912C12.9335 20.912 13.0285 21.412 13.076 21.912C13.1935 22.912 13.0985 23.052 13.0035 23.1245C12.9952 23.1389 12.9831 23.1507 12.9686 23.1586C12.954 23.1666 12.9375 23.1703 12.921 23.1695Z" fill="#E02728"/>
<path d="M29.5224 18.8953C29.5042 18.8945 29.4862 18.8899 29.4699 18.8817C29.4535 18.8735 29.439 18.8619 29.4274 18.8478C29.4151 18.8343 29.4058 18.8183 29.4003 18.8009C29.3948 18.7835 29.3932 18.7651 29.3956 18.7469C29.398 18.7288 29.4043 18.7115 29.4141 18.696C29.424 18.6806 29.437 18.6676 29.4524 18.6578C29.5674 18.5599 29.7063 18.4943 29.8549 18.4678C29.8832 18.4724 29.9092 18.4861 29.9288 18.507C29.9485 18.5279 29.9607 18.5547 29.9635 18.5832C29.9664 18.6117 29.9597 18.6403 29.9446 18.6647C29.9295 18.689 29.9068 18.7077 29.8799 18.7178C29.789 18.7395 29.7038 18.7805 29.6299 18.8378C29.5699 18.8953 29.5474 18.8953 29.5224 18.8953Z" fill="#2C3135"/>
<path d="M34.2272 17.9177C34.4172 17.1327 35.2722 16.3977 35.1772 15.3527C35.0822 14.3077 34.1322 13.8802 33.9897 13.3102C33.7747 12.4777 34.0847 11.8377 33.4672 11.1727C32.9922 10.6477 32.5872 10.9352 32.0172 10.4352C31.5172 10.0077 31.5647 9.08024 30.6397 8.68524C29.8897 8.37524 29.1197 8.70773 28.5497 8.73273C27.7997 8.75523 27.2422 8.11523 26.2697 8.11523C25.3422 8.11523 24.9372 8.85023 24.3922 8.99273C23.5597 9.20773 22.6572 9.01773 21.9222 9.63523C21.1872 10.2527 21.1372 11.4577 20.6247 12.2177C20.1497 12.8827 19.0347 13.5702 18.8747 14.6627C18.6622 16.1352 19.7772 16.8477 19.6122 17.9652C19.3747 19.4652 19.2797 21.7652 22.1522 21.6477C22.323 22.0959 22.6081 22.4915 22.9791 22.7954C23.3502 23.0994 23.7942 23.301 24.2672 23.3802C24.2289 23.7346 24.1569 24.0845 24.0522 24.4252C24.0436 24.4454 24.0414 24.4677 24.0459 24.4891C24.0504 24.5106 24.0613 24.5302 24.0772 24.5452C24.5522 25.0452 25.0772 25.3527 25.6697 25.3527C26.0418 25.3665 26.4127 25.304 26.7597 25.169C27.1066 25.034 27.4223 24.8293 27.6872 24.5677C27.7176 24.5362 27.7346 24.4941 27.7347 24.4502C27.6397 23.7852 27.5697 22.8577 27.5447 22.5252C27.8321 22.9121 28.2432 23.1891 28.7097 23.3102C29.4922 23.4752 30.1572 23.5602 31.0847 22.5027C31.9147 21.5277 33.1747 21.8377 33.8172 21.0302C34.6772 19.9377 33.9897 18.9402 34.2272 17.9177ZM29.3322 19.4627C29.2847 19.4627 29.2622 19.4852 29.2372 19.5327C29.0722 19.9377 28.2172 22.0502 27.3622 22.3127C27.3315 22.3205 27.3048 22.3393 27.2872 22.3657C27.2696 22.392 27.2625 22.4239 27.2672 22.4552C27.2672 22.4777 27.3372 23.6427 27.4572 24.4552C26.959 24.8812 26.3299 25.1239 25.6747 25.1427C25.416 25.1275 25.1629 25.0608 24.9302 24.9467C24.6976 24.8325 24.49 24.6731 24.3197 24.4777C24.4097 24.1432 24.4732 23.8022 24.5097 23.4577C24.771 23.4912 25.036 23.4827 25.2947 23.4327C25.3672 23.4102 25.4147 23.3627 25.3897 23.2902C25.3647 23.2177 25.3197 23.1727 25.2472 23.1952C23.0372 23.5277 22.3497 21.4627 22.3022 21.3677C22.1122 20.7727 21.8272 19.1352 22.7297 15.7127C23.657 15.3357 24.4509 14.6908 25.0097 13.8602C25.1246 14.2463 25.3363 14.5965 25.6247 14.8777C26.0997 15.3277 27.1697 15.3777 27.5022 15.6602C28.0472 16.1602 28.1672 16.9427 28.4272 17.4902C28.6422 17.9177 29.0222 18.2727 29.5197 18.1302C30.1372 17.9652 30.3522 18.3802 30.3747 18.5352C30.3747 18.6552 30.3297 19.4377 29.3322 19.4627Z" fill="#2C3135"/>
<path d="M26.3629 18.5649C26.4002 18.5718 26.4387 18.57 26.4762 18.5595C26.5136 18.549 26.5492 18.53 26.5808 18.5038C26.6125 18.4775 26.6396 18.4444 26.6606 18.4064C26.6816 18.3684 26.696 18.3263 26.703 18.2826C26.71 18.2389 26.7094 18.1944 26.7013 18.1518C26.6932 18.1092 26.6778 18.0693 26.6559 18.0344C26.634 17.9996 26.6061 17.9705 26.5738 17.9488C26.5415 17.9272 26.5055 17.9135 26.4679 17.9084C26.4306 17.9015 26.3921 17.9033 26.3547 17.9138C26.3173 17.9243 26.2817 17.9433 26.25 17.9696C26.2184 17.9959 26.1912 18.029 26.1703 18.0669C26.1493 18.1049 26.1349 18.147 26.1279 18.1907C26.1209 18.2344 26.1215 18.2789 26.1296 18.3215C26.1376 18.3641 26.1531 18.404 26.175 18.4389C26.1969 18.4738 26.2248 18.5029 26.257 18.5245C26.2893 18.5461 26.3253 18.5599 26.3629 18.5649Z" fill="#2C3135"/>
<path d="M23.3063 18.1054C23.3436 18.1124 23.3821 18.1105 23.4195 18.1C23.4569 18.0895 23.4925 18.0706 23.5242 18.0443C23.5559 18.018 23.583 17.9849 23.604 17.9469C23.6249 17.9089 23.6393 17.8668 23.6463 17.8231C23.6533 17.7794 23.6528 17.7349 23.6447 17.6923C23.6366 17.6497 23.6211 17.6098 23.5993 17.575C23.5774 17.5401 23.5495 17.511 23.5172 17.4894C23.4849 17.4677 23.4489 17.454 23.4113 17.4489C23.374 17.442 23.3355 17.4438 23.2981 17.4543C23.2607 17.4649 23.2251 17.4838 23.1934 17.5101C23.1617 17.5364 23.1346 17.5695 23.1136 17.6075C23.0927 17.6455 23.0783 17.6875 23.0713 17.7312C23.0643 17.775 23.0648 17.8194 23.0729 17.8621C23.081 17.9047 23.0964 17.9446 23.1183 17.9794C23.1402 18.0143 23.1681 18.0434 23.2004 18.065C23.2327 18.0867 23.2687 18.1004 23.3063 18.1054Z" fill="#2C3135"/>
<path d="M26.5781 19.8183C26.5781 19.9005 26.6182 19.9794 26.6894 20.0375C26.7607 20.0956 26.8573 20.1283 26.9581 20.1283C27.0589 20.1283 27.1556 20.0956 27.2268 20.0375C27.2981 19.9794 27.3381 19.9005 27.3381 19.8183C27.3381 19.7361 27.2981 19.6572 27.2268 19.5991C27.1556 19.541 27.0589 19.5083 26.9581 19.5083C26.8573 19.5083 26.7607 19.541 26.6894 19.5991C26.6182 19.6572 26.5781 19.7361 26.5781 19.8183Z" fill="#FCCAC2"/>
<path d="M22.6484 19.6005C22.6888 19.6095 22.7302 19.6123 22.7702 19.6087C22.8103 19.605 22.8482 19.5951 22.8816 19.5793C22.915 19.5635 22.9434 19.5423 22.965 19.5169C22.9866 19.4915 23.001 19.4625 23.0073 19.4314C23.0136 19.4004 23.0118 19.368 23.0019 19.3361C22.992 19.3043 22.9742 19.2737 22.9496 19.2461C22.925 19.2185 22.8941 19.1945 22.8587 19.1754C22.8233 19.1564 22.7841 19.1427 22.7434 19.1352C22.7031 19.1262 22.6616 19.1234 22.6216 19.127C22.5816 19.1307 22.5437 19.1407 22.5102 19.1564C22.4768 19.1722 22.4485 19.1934 22.4269 19.2188C22.4053 19.2442 22.3909 19.2733 22.3846 19.3043C22.3782 19.3354 22.38 19.3677 22.39 19.3996C22.3999 19.4314 22.4176 19.462 22.4422 19.4896C22.4668 19.5172 22.4977 19.5412 22.5331 19.5603C22.5685 19.5793 22.6077 19.593 22.6484 19.6005Z" fill="#FCCAC2"/>
</svg>
