<svg width="66" height="61" viewBox="0 0 66 61" fill="none" xmlns="http://www.w3.org/2000/svg">
<path d="M59.6979 49.1074C59.7415 49.1075 59.7843 49.0957 59.8217 49.0733C59.8591 49.0508 59.8896 49.0185 59.9099 48.9799C59.9303 48.9413 59.9397 48.8979 59.9371 48.8544C59.9345 48.8108 59.92 48.7688 59.8953 48.7329C59.6204 48.3697 59.2751 48.0656 58.88 47.839C58.4241 47.5779 57.9203 47.411 57.3987 47.3483C56.877 47.2856 56.3481 47.3284 55.8433 47.4741C55.7819 47.4899 55.7292 47.5293 55.6967 47.5838C55.6642 47.6382 55.6545 47.7033 55.6697 47.7648C55.6853 47.8264 55.7247 47.8792 55.7792 47.9118C55.8337 47.9443 55.8989 47.9539 55.9605 47.9384C58.3155 47.3438 59.4533 48.9363 59.5009 49.0034C59.5228 49.0354 59.5522 49.0616 59.5866 49.0797C59.6209 49.0978 59.6591 49.1073 59.6979 49.1074Z" fill="#E02728"/>
<path d="M56.5733 46.3992C56.6318 46.3992 56.6882 46.3779 56.732 46.3392C57.939 45.271 59.533 45.9611 59.6001 45.9909C59.658 46.0169 59.7239 46.0188 59.7833 45.9962C59.8426 45.9736 59.8906 45.9284 59.9165 45.8704C59.9425 45.8125 59.9444 45.7466 59.9218 45.6872C59.8992 45.6279 59.854 45.5799 59.796 45.5539C59.7176 45.5184 57.8566 44.7048 56.4146 45.9799C56.3785 46.0123 56.3531 46.0549 56.3416 46.102C56.3301 46.1491 56.3332 46.1986 56.3503 46.2439C56.3675 46.2893 56.398 46.3284 56.4378 46.3561C56.4776 46.3838 56.5248 46.3988 56.5733 46.3992Z" fill="#E02728"/>
<path d="M57.2726 60.0568C57.3325 60.0516 57.3884 60.0242 57.429 59.9798C57.4697 59.9355 57.4923 59.8775 57.4923 59.8173C57.4923 59.7572 57.4697 59.6992 57.429 59.6549C57.3884 59.6105 57.3325 59.5831 57.2726 59.5779C55.3361 59.3266 55.2441 57.542 55.2612 57.1685C55.7787 57.417 57.8793 57.701 57.9904 56.0733C58.0035 55.8421 57.9446 55.6125 57.822 55.4161C57.6993 55.2197 57.5188 55.0661 57.3052 54.9764C55.9687 54.3945 55.0382 56.029 54.9218 56.39C53.6974 55.4138 53.3367 53.6849 54.9019 51.7594C54.9394 51.7099 54.9563 51.6477 54.9488 51.586C54.9414 51.5243 54.9103 51.4679 54.8621 51.4287C54.8138 51.3895 54.7523 51.3705 54.6904 51.3759C54.6284 51.3812 54.571 51.4104 54.5302 51.4573C52.7825 53.6079 53.1709 55.7609 54.8082 56.9023C54.7418 57.4174 54.9097 59.8818 57.2726 60.0568ZM57.5122 56.0453C57.5122 57.1174 55.8909 57.0656 55.3361 56.6644C55.4336 56.3481 55.596 56.0555 55.8128 55.8053C56.3173 55.1564 57.5122 55.2079 57.5122 56.0467V56.0453Z" fill="#E02728"/>
<path d="M27.8552 5.93371C27.9046 5.93342 27.9528 5.91787 27.993 5.8892C28.0333 5.86053 28.0637 5.82013 28.0801 5.77352C28.0965 5.72691 28.0982 5.67637 28.0848 5.6288C28.0714 5.58122 28.0437 5.53894 28.0054 5.50771C27.0584 4.74174 26.0645 4.03569 25.0294 3.39369C24.974 3.36271 24.9085 3.35504 24.8474 3.37235C24.7862 3.38966 24.7345 3.43053 24.7035 3.48599C24.6725 3.54145 24.6649 3.60693 24.6822 3.66805C24.6995 3.72917 24.7404 3.7809 24.7958 3.81188C25.8073 4.4418 26.7795 5.13285 27.7068 5.88117C27.7489 5.91492 27.8012 5.93344 27.8552 5.93371Z" fill="#E02728"/>
<path d="M28.1675 7.87121C28.2082 7.87112 28.2481 7.86069 28.2836 7.84089C28.319 7.8211 28.3489 7.7926 28.3703 7.75808C28.3917 7.72356 28.404 7.68415 28.406 7.64358C28.4079 7.603 28.3996 7.56259 28.3816 7.52615C28.3577 7.47745 28.3181 7.43828 28.2691 7.41504C26.8247 6.77083 25.3197 6.27197 23.7765 5.92581C23.7153 5.91456 23.6522 5.92763 23.6005 5.96224C23.5487 5.99684 23.5126 6.05026 23.4996 6.11112C23.4866 6.17191 23.4977 6.23537 23.5306 6.28814C23.5634 6.34091 23.6154 6.37888 23.6757 6.39406C25.2131 6.75495 26.716 7.24921 28.1675 7.87121Z" fill="#E02728"/>
<path d="M58.1504 16.9773C58.3929 16.1537 59.3929 13.1621 56.6012 11.8653C53.8095 10.5685 41.8304 6.24352 40.9784 5.99396C40.1264 5.74439 37.6723 5.25343 36.4333 8.68805C35.1944 12.1227 25.3928 37.9131 25.1681 38.5844C24.9434 39.2557 23.9693 42.1539 27.0223 43.3368C30.0753 44.5196 41.8435 49.0249 42.9667 49.4108C44.09 49.7967 45.8912 49.3139 46.6463 47.3965C47.4014 45.4792 57.8679 17.9383 58.1504 16.9773Z" fill="white"/>
<path d="M10.8499 38.6472C11.1899 38.2014 11.4684 37.7118 11.6778 37.1917C11.8691 36.6184 11.6487 33.586 14.614 28.9894C17.7642 24.105 30.0302 10.5031 34.1361 12.456C37.307 13.964 32.0732 20.2447 32.0732 20.2447C32.0732 20.2447 25.4209 37.8882 25.1688 38.5854C24.9168 39.2826 23.697 42.0911 27.6769 43.6236C31.0775 44.9335 33.7875 45.8097 33.7875 45.8097C33.7875 45.8097 29.208 51.2905 18.7295 51.5809C18.7295 51.5809 12.5791 44.0691 10.736 40.1929C10.6201 39.9473 10.5697 39.6759 10.5896 39.405C10.6096 39.1342 10.6993 38.8731 10.8499 38.6472Z" fill="#FCCAC2"/>
<path d="M50.8483 39.8828L49.26 44.4339C49.26 44.4339 52.455 44.9231 53.1334 43.0902C53.8118 41.2574 50.8483 39.8828 50.8483 39.8828Z" fill="#FCCAC2"/>
<path d="M53.7127 32.3281L51.8923 37.2861C51.8923 37.2861 56.2123 38.1736 57.0632 35.6886C57.8563 33.374 53.7127 32.3281 53.7127 32.3281Z" fill="#FCCAC2"/>
<path d="M56.6151 24.8125L54.5468 30.315C54.5468 30.315 60.1558 31.0818 60.9723 28.475C61.8829 25.5683 56.6151 24.8125 56.6151 24.8125Z" fill="#FCCAC2"/>
<path d="M59.1384 17.9375L57.2598 23.2788C57.2598 23.2788 62.5848 23.767 63.4183 21.1133C64.1102 18.9109 59.1384 17.9375 59.1384 17.9375Z" fill="#FCCAC2"/>
<path d="M42.5718 15.7354C42.4073 15.692 42.2568 15.6069 42.1349 15.4882C42.013 15.3695 41.9238 15.2213 41.876 15.0581C42.3915 14.6321 42.7174 13.8965 42.6034 13.4165C42.5761 13.3078 42.5186 13.2089 42.4375 13.1314C42.3565 13.0538 42.2553 13.0007 42.1454 12.9781C42.0355 12.9555 41.9215 12.9644 41.8165 13.0037C41.7114 13.043 41.6196 13.1112 41.5516 13.2003C41.2601 13.5326 41.1721 14.2128 41.3151 14.8529C40.7116 15.2167 40.1979 14.6129 40.0932 14.451C40.7628 13.8901 40.9378 12.6451 40.3275 12.4751C40.0144 12.3874 39.7045 12.6242 39.5387 13.0786C39.4028 13.4537 39.3849 13.8613 39.4872 14.2469C39.3195 14.282 39.1464 14.2826 38.9785 14.2485C38.8106 14.2144 38.6514 14.1465 38.5106 14.0488C38.4834 14.0331 38.4534 14.0229 38.4222 14.0188C38.391 14.0147 38.3594 14.0168 38.329 14.0249C38.2986 14.0331 38.2702 14.0471 38.2452 14.0662C38.2203 14.0854 38.1994 14.1093 38.1837 14.1365C38.168 14.1637 38.1578 14.1938 38.1537 14.2249C38.1496 14.2561 38.1517 14.2878 38.1598 14.3181C38.168 14.3485 38.182 14.3769 38.2011 14.4019C38.2203 14.4268 38.2441 14.4477 38.2714 14.4634C38.4742 14.6036 38.7058 14.6966 38.9492 14.7357C39.1926 14.7748 39.4417 14.7589 39.6782 14.6892C39.8316 14.9377 40.6115 15.6956 41.4628 15.3129C41.5423 15.5403 41.68 15.7427 41.8622 15.9002C42.0444 16.0576 42.2647 16.1644 42.5012 16.21C42.5327 16.2154 42.5649 16.2144 42.596 16.2071C42.627 16.1998 42.6564 16.1864 42.6822 16.1677C42.708 16.1489 42.7299 16.1252 42.7464 16.0979C42.763 16.0706 42.7739 16.0403 42.7786 16.0088C42.7833 15.9772 42.7817 15.945 42.7738 15.9141C42.7659 15.8831 42.7519 15.8541 42.7327 15.8286C42.7134 15.8032 42.6893 15.7818 42.6616 15.7658C42.634 15.7498 42.6035 15.7395 42.5718 15.7354ZM42.1402 13.5319C42.2488 13.7094 42.0507 14.1738 41.7433 14.5209C41.5995 14.0807 41.8448 13.0477 42.1402 13.5319ZM40.1894 12.938C40.6037 13.1446 39.8632 14.0836 39.855 14.0935C39.8348 13.9345 39.8373 12.7623 40.1909 12.938H40.1894Z" fill="#E02728"/>
<path d="M51.1126 21.1176C51.1521 21.1175 51.1911 21.1076 51.2259 21.0887C51.2607 21.0699 51.2903 21.0428 51.3121 21.0097C51.3338 20.9767 51.3471 20.9388 51.3506 20.8993C51.3541 20.8599 51.3479 20.8203 51.3323 20.7839L50.1821 18.0997L51.0288 16.7997C51.0634 16.7465 51.0755 16.6817 51.0624 16.6196C51.0493 16.5575 51.0121 16.5031 50.9589 16.4685C50.9057 16.4338 50.8409 16.4217 50.7788 16.4349C50.7167 16.448 50.6623 16.4852 50.6276 16.5384L49.711 17.9456C49.6895 17.9786 49.6764 18.0165 49.673 18.0557C49.6696 18.095 49.676 18.1345 49.6915 18.1707L50.8925 20.9724C50.9109 21.0155 50.9415 21.0523 50.9807 21.0781C51.0198 21.1039 51.0657 21.1176 51.1126 21.1176Z" fill="#313131"/>
<path d="M46.2392 27.3853C46.2938 27.3847 46.3466 27.3655 46.3889 27.3308C46.4311 27.2961 46.4602 27.2481 46.4715 27.1946C46.4827 27.1411 46.4753 27.0854 46.4506 27.0367C46.4258 26.988 46.3852 26.9491 46.3354 26.9266C42.9907 25.498 39.5586 24.2834 36.0599 23.29C36.0296 23.2816 35.9979 23.2792 35.9667 23.283C35.9355 23.2868 35.9053 23.2967 35.8779 23.3122C35.8505 23.3276 35.8265 23.3483 35.8071 23.3731C35.7877 23.3979 35.7733 23.4262 35.7649 23.4565C35.7565 23.4868 35.7541 23.5185 35.7579 23.5497C35.7617 23.5809 35.7716 23.6111 35.7871 23.6385C35.8025 23.6659 35.8232 23.69 35.848 23.7094C35.8728 23.7288 35.9011 23.7431 35.9314 23.7515C42.1109 25.4754 46.023 27.3853 46.2392 27.3853Z" fill="#313131"/>
<path d="M45.1514 30.6388C45.2057 30.6387 45.2584 30.6201 45.3008 30.5862C45.3432 30.5522 45.3728 30.5049 45.3847 30.4519C45.3967 30.399 45.3903 30.3435 45.3666 30.2946C45.3429 30.2457 45.3033 30.2064 45.2543 30.1829C41.9191 28.6812 38.4661 27.4561 34.9302 26.5201C34.8707 26.5084 34.8089 26.5199 34.7574 26.5521C34.706 26.5843 34.6687 26.6349 34.6531 26.6935C34.6376 26.7522 34.6449 26.8146 34.6736 26.8681C34.7023 26.9215 34.7503 26.9621 34.8078 26.9816C41.1676 28.6639 44.9359 30.6388 45.1514 30.6388Z" fill="#313131"/>
<path d="M43.8594 33.0874C43.9151 33.0879 43.9692 33.069 44.0125 33.034C44.0558 32.999 44.0855 32.95 44.0967 32.8955C44.1078 32.841 44.0997 32.7843 44.0736 32.7351C44.0476 32.6859 44.0052 32.6473 43.9539 32.6259C40.6403 31.2241 37.2568 29.9935 33.8168 28.9392C33.7865 28.9304 33.7548 28.9277 33.7234 28.9312C33.6921 28.9346 33.6617 28.9442 33.6341 28.9595C33.6064 28.9747 33.5821 28.9952 33.5623 29.0198C33.5426 29.0445 33.528 29.0727 33.5192 29.103C33.5104 29.1333 33.5076 29.1651 33.5111 29.1964C33.5146 29.2278 33.5242 29.2582 33.5394 29.2858C33.5546 29.3134 33.5752 29.3378 33.5998 29.3575C33.6244 29.3772 33.6527 29.3919 33.683 29.4007C38.8404 30.8984 43.6926 33.0874 43.8594 33.0874Z" fill="#313131"/>
<path d="M36.8708 33.4833C36.9272 33.483 36.9817 33.4629 37.0248 33.4264C37.0678 33.3899 37.0965 33.3394 37.106 33.2838C37.1154 33.2282 37.105 33.1711 37.0765 33.1224C37.0479 33.0738 37.0032 33.0368 36.95 33.0179C35.6031 32.5444 34.2489 32.0916 32.8881 31.6596C32.8581 31.6501 32.8265 31.6466 32.7952 31.6493C32.7638 31.652 32.7333 31.6609 32.7054 31.6753C32.6774 31.6898 32.6526 31.7097 32.6323 31.7338C32.6121 31.7578 32.5968 31.7857 32.5872 31.8157C32.5777 31.8457 32.5742 31.8772 32.5769 31.9086C32.5796 31.94 32.5885 31.9705 32.6029 31.9984C32.6174 32.0263 32.6373 32.0512 32.6614 32.0714C32.6854 32.0917 32.7133 32.107 32.7433 32.1165C35.9894 33.1439 36.7239 33.4833 36.8708 33.4833Z" fill="#E02728"/>
<path d="M42.8579 35.2287C42.8455 35.2234 41.5718 34.7061 39.6143 33.9798C39.5548 33.9577 39.489 33.9602 39.4313 33.9866C39.3736 34.0131 39.3288 34.0614 39.3067 34.1209C39.2846 34.1804 39.2871 34.2462 39.3135 34.3039C39.34 34.3616 39.3883 34.4064 39.4478 34.4285C41.3982 35.1527 42.6652 35.6671 42.6783 35.671C42.7359 35.6899 42.7985 35.6862 42.8535 35.6608C42.9085 35.6353 42.9518 35.5899 42.9746 35.5337C42.9974 35.4775 42.9981 35.4148 42.9764 35.3582C42.9547 35.3016 42.9124 35.2553 42.8579 35.2287Z" fill="#E02728"/>
<path d="M41.7063 38.7914C41.7609 38.7916 41.814 38.773 41.8565 38.7387C41.8991 38.7043 41.9285 38.6564 41.9399 38.6029C41.9514 38.5496 41.9445 38.4939 41.9201 38.445C41.8958 38.3962 41.8556 38.3571 41.806 38.3342C41.7446 38.3065 35.6372 35.5243 31.5533 34.6383C31.4912 34.6248 31.4264 34.6365 31.373 34.6709C31.3196 34.7052 31.282 34.7594 31.2686 34.8214C31.2551 34.8835 31.2668 34.9483 31.3012 35.0017C31.3355 35.0551 31.3897 35.0927 31.4517 35.1061C35.6681 36.021 41.5685 38.7914 41.7063 38.7914Z" fill="#E02728"/>
<path d="M47.8538 28.853C48.115 28.8091 48.365 28.7144 48.5898 28.5743C48.643 28.5441 48.6826 28.4946 48.7005 28.436C48.7184 28.3774 48.7131 28.3142 48.6859 28.2594C48.6586 28.2045 48.6114 28.1622 48.5539 28.1411C48.4964 28.12 48.433 28.1217 48.3768 28.1459C48.2486 28.2101 48.1116 28.2726 48.0061 28.3159C47.9486 27.9833 47.868 27.2793 47.812 26.6669C47.8062 26.6037 47.7756 26.5454 47.7268 26.5047C47.6781 26.4641 47.6151 26.4445 47.5519 26.4502C47.4887 26.4559 47.4303 26.4866 47.3897 26.5353C47.3491 26.5841 47.3294 26.647 47.3352 26.7102C47.5113 28.6468 47.5709 28.853 47.8538 28.853Z" fill="#E02728"/>
<path d="M46.7363 31.4115C46.9976 31.3677 47.2478 31.273 47.4726 31.1328C47.5258 31.1025 47.5654 31.053 47.5833 30.9944C47.6012 30.9358 47.596 30.8726 47.5687 30.8178C47.5414 30.763 47.4942 30.7206 47.4367 30.6995C47.3792 30.6784 47.3158 30.6801 47.2596 30.7043C47.1314 30.7685 46.9944 30.831 46.889 30.8747C46.8314 30.5421 46.7509 29.8377 46.6948 29.2254C46.689 29.1621 46.6583 29.1038 46.6095 29.0632C46.5607 29.0226 46.4978 29.003 46.4346 29.0088C46.3713 29.0146 46.313 29.0453 46.2724 29.0941C46.2318 29.1429 46.2122 29.2058 46.218 29.269C46.3983 31.2521 46.4622 31.4115 46.7363 31.4115Z" fill="#E02728"/>
<path d="M10.6044 38.7893C11.2146 37.9459 11.5728 36.9467 11.6374 35.9077C12.2221 27.4985 31.3506 8.67675 34.727 12.5491L36.5336 7.75055C36.8575 6.89388 37.508 6.2007 38.3424 5.82313C39.1768 5.44556 40.1269 5.41446 40.9842 5.73664L56.6397 11.6346C57.127 11.8164 57.5666 12.1067 57.9251 12.4835C58.2837 12.8603 58.5519 13.3136 58.7094 13.8093L59.4257 16.3039C59.5549 16.7977 59.5636 17.3152 59.4513 17.813C65.6237 19.3338 63.4106 21.7677 63.0311 22.1444C61.5966 23.5665 57.8084 23.5899 57.3682 23.5899C57.3504 23.5899 56.8967 24.6833 56.8967 24.6833C58.1257 24.9059 61.5575 25.7327 61.4081 28.0069C61.2441 30.4965 57.2233 30.8213 54.739 30.5909C54.717 30.5888 54.0645 32.2033 54.0645 32.2033C54.406 32.2953 57.508 33.2396 57.3802 35.2918C57.2446 37.4456 54.2356 37.8673 52.0812 37.6419C52.0602 37.6398 51.1965 39.8181 51.1965 39.8181C52.3385 40.3002 53.4617 41.2381 53.4298 42.4806C53.3648 45.0177 49.3881 44.7671 49.3335 44.765L47.5386 49.5266C47.3899 49.9215 47.1649 50.2833 46.8764 50.5913C46.5878 50.8993 46.2415 51.1474 45.8571 51.3215C45.4727 51.4956 45.0578 51.5923 44.636 51.6061C44.2142 51.6199 43.7939 51.5504 43.3989 51.4017L32.5398 47.311C25.7149 52.1227 18.6828 51.855 18.6678 51.8479C15.8119 50.4571 11.0598 41.6133 10.4439 39.877C10.3799 39.6963 10.3611 39.5028 10.3891 39.3132C10.417 39.1236 10.491 38.9437 10.6044 38.7893ZM62.6939 21.8046C62.9839 21.5167 64.7909 19.5277 59.3125 18.271L57.4821 23.1295C58.0721 23.1224 61.4578 23.0315 62.6939 21.8046ZM60.3285 29.139C60.703 28.8195 61.8855 26.829 58.7885 25.705C58.1165 25.4626 57.4264 25.2739 56.7246 25.1406L54.8491 30.1195C55.3702 30.1592 58.8787 30.3751 60.3285 29.139ZM56.9021 35.2556C57.0228 33.6123 54.6272 32.8487 53.8941 32.6542L52.193 37.1701C53.9974 37.3189 56.7686 37.0682 56.9021 35.2556ZM52.9505 42.4781C52.9505 41.2143 51.5543 40.4933 51.0268 40.2661L49.5117 44.2875C50.8756 44.284 52.9516 43.8587 52.9505 42.4781ZM42.5892 48.9341C43.3274 49.2112 44.1453 49.1841 44.8636 48.8588C45.5819 48.5335 46.1417 47.9365 46.4203 47.1989L58.2063 15.9148C58.3582 15.5134 58.4211 15.0838 58.3909 14.6557C58.3835 14.5524 58.1655 13.7128 58.1325 13.6396C57.972 13.2833 57.7426 12.9623 57.4574 12.695C57.1723 12.4278 56.8371 12.2197 56.4711 12.0826L52.5991 10.6239L51.4116 11.0197C51.2753 11.0652 51.1276 11.0623 50.9934 11.0116L44.9744 8.74242C44.8868 8.7095 44.8078 8.65731 44.7431 8.58972C44.6784 8.52213 44.6297 8.44086 44.6006 8.35192L44.3244 7.50667L40.8152 6.18465C40.0766 5.90717 39.2582 5.93404 38.5394 6.25936C37.8206 6.58468 37.2602 7.18187 36.9812 7.91989L35.0507 13.045C36.1196 15.1555 33.9911 18.1215 32.4592 19.9246L25.1966 39.2039C24.9192 39.9425 24.946 40.761 25.2714 41.4798C25.5967 42.1986 26.1939 42.7589 26.9319 43.0379L42.5892 48.9341ZM10.8944 39.7172C13.8356 45.2666 20.4013 51.2317 20.4013 51.2317C20.4013 51.2317 27.6511 50.2632 32.0045 47.1094L27.7413 45.5037C26.9706 45.208 26.3408 44.6308 25.9791 43.8888C24.8683 41.6644 24.8558 41.7116 24.8374 41.6754C24.6499 41.2627 24.5457 40.8171 24.5307 40.3641C24.5157 39.911 24.5903 39.4595 24.7501 39.0353L31.5728 20.9232C31.1649 21.3637 26.2801 25.8147 25.7927 26.1949C26.1956 28.4776 26.0744 30.822 25.4383 33.0509C24.8021 35.2799 23.6676 37.3351 22.1206 39.0612C22.0713 39.1006 22.0084 39.1188 21.9457 39.1119C21.883 39.105 21.8257 39.0735 21.7862 39.0243C21.7462 38.9756 21.7271 38.913 21.7331 38.8503C21.7391 38.7876 21.7697 38.7298 21.8181 38.6895C21.8302 38.6799 26.7817 33.64 25.2971 26.1335C25.2895 26.0905 25.2938 26.0462 25.3096 26.0055C25.3255 25.9648 25.3522 25.9293 25.3869 25.9028C25.4455 25.8577 34.3901 18.8109 34.8338 14.7362C35.0564 12.6911 33.5313 12.3038 32.3968 12.6733C26.1615 14.7054 12.5984 28.9838 12.1138 35.9411C12.0433 37.0703 11.6534 38.1563 10.9896 39.0726C10.9157 39.1608 10.8678 39.2677 10.851 39.3815C10.8342 39.4953 10.8492 39.6115 10.8944 39.7172Z" fill="#313131"/>
<path d="M50.4296 13.7656C51.306 13.7654 52.1659 14.0042 52.9168 14.4563C53.6676 14.9084 54.2809 15.5567 54.6907 16.3314C55.1006 17.1062 55.2913 17.978 55.2425 18.8531C55.1937 19.7282 54.9072 20.5734 54.4138 21.2977C53.9204 22.0221 53.2388 22.5982 52.4423 22.964C51.6459 23.3298 50.7647 23.4715 49.8938 23.3738C49.0228 23.2762 48.1949 22.9428 47.4993 22.4096C46.8037 21.8765 46.2666 21.1637 45.9459 20.348C45.6597 19.6174 45.556 18.828 45.6439 18.0483C45.7319 17.2685 46.0087 16.522 46.4505 15.8735C46.8922 15.2249 47.4855 14.694 48.1789 14.3267C48.8723 13.9594 49.6449 13.7668 50.4296 13.7656ZM50.4296 14.2445C49.7243 14.2456 49.03 14.4184 48.4065 14.7479C47.783 15.0775 47.2491 15.5538 46.8509 16.1359C46.4527 16.7179 46.2021 17.3881 46.1209 18.0887C46.0397 18.7892 46.1302 19.499 46.3847 20.1567C46.8803 21.1594 47.7438 21.932 48.7953 22.3133C49.8467 22.6946 51.0048 22.6552 52.0279 22.2033C53.051 21.7514 53.8601 20.9219 54.2864 19.8879C54.7126 18.8539 54.7232 17.6952 54.3158 16.6536C53.9559 15.9305 53.4017 15.322 52.7152 14.8964C52.0287 14.4709 51.2372 14.2451 50.4296 14.2445Z" fill="#313131"/>
<path d="M35.5498 16.5924C35.7798 15.4983 38.3688 10.3916 38.8765 9.40367C38.9025 9.3532 38.9455 9.31357 38.998 9.2918C39.0504 9.27003 39.1089 9.26753 39.163 9.28475C40.179 9.61064 41.2113 9.99475 42.1496 10.3661L42.3707 9.78849C42.3821 9.75912 42.3991 9.73227 42.4208 9.70947C42.4425 9.68667 42.4685 9.66837 42.4972 9.65561C42.526 9.64286 42.557 9.63589 42.5885 9.63512C42.62 9.63434 42.6513 9.63978 42.6807 9.65111C42.71 9.66243 42.7369 9.67944 42.7597 9.70114C42.7825 9.72285 42.8008 9.74883 42.8135 9.77761C42.8263 9.80639 42.8333 9.8374 42.834 9.86887C42.8348 9.90034 42.8294 9.93165 42.818 9.96102L42.594 10.5443C44.2459 11.2142 45.2565 11.6867 45.777 11.9288C45.8337 11.9558 45.8776 12.004 45.8993 12.0629C45.921 12.1219 45.9187 12.187 45.8931 12.2444L42.7037 19.8811C42.6851 19.9235 42.6545 19.9595 42.6157 19.9847C42.577 20.0099 42.5317 20.0233 42.4854 20.0231C42.4038 20.0231 42.5404 19.8971 35.6918 16.8604C35.641 16.8388 35.5992 16.8004 35.5733 16.7516C35.5475 16.7028 35.5392 16.6466 35.5498 16.5924ZM42.4226 10.9912L42.2827 11.3551C42.2574 11.4123 42.2118 11.4581 42.1546 11.4836C42.0975 11.5091 42.033 11.5125 41.9735 11.4932C41.9434 11.4829 41.9158 11.4665 41.8924 11.4451C41.8689 11.4237 41.8502 11.3976 41.8372 11.3686C41.8243 11.3396 41.8174 11.3083 41.8171 11.2765C41.8168 11.2447 41.823 11.2132 41.8354 11.184L41.9774 10.8134C41.1062 10.4676 40.1534 10.1123 39.2084 9.80411C38.1956 11.7889 36.4263 15.3698 36.0713 16.5005L42.2724 19.1175L45.3609 12.2639C44.3913 11.8174 43.4116 11.393 42.4226 10.9912Z" fill="#313131"/>
<path d="M27.8139 37.2197C27.8263 37.165 31.2574 26.7134 34.6451 19.7838C34.6682 19.7326 34.7083 19.691 34.7586 19.666C34.8088 19.641 34.8662 19.6342 34.921 19.6468C40.6365 21.1169 51.0231 25.8529 51.0344 25.8593C51.0909 25.8832 51.136 25.928 51.1603 25.9844C51.1845 26.0407 51.1861 26.1043 51.1647 26.1618C51.1544 26.1894 44.4488 44.3129 44.3938 44.4712C44.3861 44.5047 44.3703 44.5358 44.3478 44.5618C44.3252 44.5877 44.2967 44.6077 44.2646 44.6201C44.2326 44.6325 44.198 44.6368 44.1639 44.6327C44.1298 44.6286 44.0972 44.6162 44.069 44.5966C39.7465 42.5336 28.0006 37.5154 27.963 37.4965C27.9091 37.4758 27.8645 37.4365 27.8371 37.3857C27.8098 37.3349 27.8015 37.276 27.8139 37.2197ZM35.0037 20.1608C34.4126 20.7224 29.1852 33.6611 28.3297 37.122C28.4188 37.1554 39.9233 41.5595 43.726 43.3377C44.4634 41.5251 50.5928 26.3172 50.6361 26.2065C45.5753 23.8231 40.3513 21.8028 35.0037 20.1608Z" fill="#313131"/>
<path d="M36.1047 42.4707C37.1129 44.2568 34.8757 45.5752 33.7749 44.0246C33.5886 43.7462 33.4792 43.4235 33.4579 43.0892C33.4607 42.7757 33.5688 42.4723 33.7647 42.2276C33.9606 41.9829 34.233 41.8111 34.5383 41.7398C34.8435 41.6685 35.1639 41.7018 35.448 41.8343C35.732 41.9669 35.9633 42.191 36.1047 42.4707ZM35.743 43.0892C35.743 42.8496 35.6479 42.6199 35.4785 42.4506C35.3091 42.2812 35.0794 42.186 34.8399 42.186C34.6004 42.186 34.3706 42.2812 34.2013 42.4506C34.0319 42.6199 33.9368 42.8496 33.9368 43.0892C33.9371 44.3501 35.7434 44.239 35.7434 43.0892H35.743Z" fill="#313131"/>
<path d="M-3.7037 41.8457C-3.70012 41.7591 -3.67306 41.6749 -3.62542 41.6024C-3.57778 41.5299 -3.51134 41.4717 -3.4332 41.4339L8.31375 35.766C8.37329 35.7374 8.43811 35.7214 8.50412 35.7191C8.57014 35.7167 8.63593 35.728 8.69736 35.7523C8.7588 35.7765 8.81455 35.8132 8.86113 35.8601C8.90771 35.9069 8.9441 35.9629 8.96802 36.0245C13.2635 47.1874 18.8832 51.9853 20.541 53.2175C20.5978 53.2597 20.6445 53.314 20.6778 53.3764C20.7111 53.4388 20.7302 53.5078 20.7338 53.5785C20.7373 53.6491 20.7249 53.7198 20.6976 53.7851C20.6706 53.8508 20.6291 53.909 20.5765 53.9566L5.57067 67.5176C5.52209 67.5612 5.46517 67.5944 5.40335 67.6154C5.34154 67.6363 5.27612 67.6444 5.21105 67.6393C5.14599 67.634 5.0827 67.6155 5.02502 67.5849C4.96735 67.5543 4.9165 67.5123 4.87558 67.4615C-3.9089 56.6063 -3.78642 43.9047 -3.7037 41.8457Z" fill="white"/>
<path d="M14.6861 55.4986C14.8207 55.4986 14.7387 55.542 16.2087 54.1141C16.2313 54.0922 16.2493 54.0661 16.2617 54.0372C16.2741 54.0084 16.2808 53.9773 16.2812 53.9459C16.2817 53.9145 16.2759 53.8832 16.2643 53.854C16.2527 53.8248 16.2354 53.7982 16.2135 53.7757C16.1916 53.7531 16.1655 53.7351 16.1366 53.7227C16.1077 53.7102 16.0767 53.7036 16.0453 53.7031C16.0138 53.7027 15.9826 53.7085 15.9534 53.7201C15.9242 53.7317 15.8976 53.7489 15.875 53.7709L14.5193 55.0879C14.4852 55.1211 14.4618 55.1637 14.4522 55.2102C14.4425 55.2568 14.4469 55.3052 14.465 55.3492C14.483 55.3931 14.5137 55.4307 14.553 55.4573C14.5923 55.4839 14.6387 55.4982 14.6861 55.4986Z" fill="#313131"/>
<path d="M4.73371 56.8862C4.76601 56.8862 5.03191 56.8389 6.63722 56.5649C6.69971 56.5539 6.75541 56.5189 6.79236 56.4673C6.81952 56.4286 6.83465 56.3828 6.83586 56.3356C6.83707 56.2884 6.82429 56.2419 6.79914 56.2019C6.77399 56.1619 6.73759 56.1302 6.69451 56.1109C6.65142 56.0915 6.60358 56.0853 6.55699 56.0931L4.6936 56.4105C4.63458 56.4207 4.58155 56.4527 4.54496 56.5002C4.50837 56.5476 4.49087 56.607 4.4959 56.6667C4.50093 56.7264 4.52814 56.782 4.57215 56.8226C4.61617 56.8633 4.67381 56.8859 4.73371 56.8862Z" fill="#313131"/>
<path d="M10.9872 49.0736C11.0263 49.0737 11.0648 49.0641 11.0994 49.0459C11.1339 49.0276 11.1634 49.0011 11.1854 48.9688C11.2073 48.9364 11.221 48.8992 11.2252 48.8604C11.2294 48.8215 11.224 48.7822 11.2095 48.7459C11.1904 48.6973 11.1558 48.6562 11.1111 48.6291L9.49339 47.6522C9.46652 47.6358 9.43667 47.6248 9.40555 47.62C9.37444 47.6152 9.34268 47.6166 9.3121 47.624C9.28152 47.6315 9.25271 47.645 9.22735 47.6637C9.20199 47.6823 9.18056 47.7058 9.16431 47.7328C9.13136 47.7871 9.12128 47.8524 9.13627 47.9142C9.15165 47.9758 9.19067 48.0288 9.2449 48.0618C10.9915 49.1151 10.8928 49.0736 10.9872 49.0736Z" fill="#313131"/>
<path d="M1.50634 48.7567C1.5615 48.7556 1.61463 48.7357 1.65683 48.7001C1.69904 48.6646 1.72775 48.6156 1.73815 48.5614C1.74823 48.5071 1.73929 48.451 1.71285 48.4025C1.68641 48.354 1.64406 48.3161 1.59295 48.2952L-0.168553 47.61C-0.197853 47.5986 -0.229111 47.5931 -0.260542 47.5938C-0.291974 47.5945 -0.322968 47.6014 -0.351746 47.614C-0.380525 47.6267 -0.406527 47.6449 -0.42827 47.6676C-0.450014 47.6903 -0.46707 47.7171 -0.478468 47.7464C-0.489867 47.7757 -0.495385 47.8069 -0.494703 47.8383C-0.494021 47.8698 -0.487151 47.9008 -0.474493 47.9295C-0.461834 47.9583 -0.443633 47.9843 -0.420925 48.0061C-0.398217 48.0278 -0.371448 48.0449 -0.342148 48.0563C1.56669 48.7975 1.44208 48.7567 1.50634 48.7567Z" fill="#313131"/>
<path d="M4.93232 43.7658C4.98681 43.7657 5.03964 43.7471 5.0821 43.7129C5.12456 43.6788 5.15413 43.6312 5.16591 43.578L5.57345 41.732C5.58578 41.6705 5.57349 41.6066 5.53921 41.554C5.50494 41.5015 5.45142 41.4645 5.39016 41.4509C5.32889 41.4374 5.26477 41.4485 5.21155 41.4817C5.15834 41.5149 5.12028 41.5677 5.10556 41.6287L4.69837 43.4747C4.69053 43.5097 4.69071 43.546 4.69888 43.5809C4.70706 43.6159 4.72303 43.6485 4.74559 43.6764C4.76808 43.7042 4.79645 43.7268 4.82866 43.7424C4.86106 43.7577 4.89647 43.7657 4.93232 43.7658Z" fill="#313131"/>
</svg>
