<svg width="50" height="50" viewBox="0 0 50 50" fill="none" xmlns="http://www.w3.org/2000/svg">
<path d="M23.0975 39.9798C23.0975 39.9798 25.2657 39.8023 25.7725 39.257C25.7725 39.257 24.1152 32.8458 23.6792 31.3773C23.6792 31.3773 25.7275 28.083 26.074 27.0953C26.4205 26.1075 26.6385 25.6733 26.074 24.7485C26.074 24.7485 24.7587 22.759 19.7957 20.7063C19.7957 20.7063 16.085 18.869 14.8742 18.4373C14.2149 18.1841 13.4851 18.1841 12.8257 18.4373C12.8257 18.4373 10.7047 21.2023 13.0652 23.3748C16.631 26.6563 19.3942 31.6025 19.3942 31.6025C17.4692 35.1775 16.8867 36.097 17.408 35.2183C17.408 35.2183 19.5952 36.1013 20.0955 36.2295L21.1645 34.8695C21.1645 34.8695 23.0462 39.5605 23.0975 39.9798Z" fill="#87E4FF"/>
<path d="M31.1416 26.2354C31.1416 26.2354 32.3603 24.4907 32.5783 24.0482C32.5783 24.0482 29.3118 20.7277 28.8708 19.9364C28.8708 19.9364 31.0316 19.5452 34.0408 17.8072V14.8304C34.0408 14.8304 28.1908 16.6464 26.7538 16.8737C26.1536 15.7773 25.6516 14.6299 25.2538 13.4449C25.2538 13.4449 24.0138 12.2044 22.4571 11.8719C20.9003 11.5394 20.1526 11.1969 18.9211 10.1107C18.9211 10.1107 16.1306 11.5927 14.6316 13.0987C13.1326 14.6047 10.7261 17.6947 12.8248 18.4372C12.8248 18.4372 13.7656 17.3962 18.7861 20.2622L20.1031 19.8774C20.1031 19.8774 20.7863 18.3892 21.5951 17.8844C21.5951 17.8844 23.4463 21.2502 25.3546 22.8237C27.3833 24.4952 29.7303 25.8379 31.1416 26.2354Z" fill="#016DAB"/>
<path d="M24.6176 11.2512L24.9246 10.9689L25.4376 11.1742C25.4376 11.1742 25.6493 12.6817 25.2516 13.4449C24.5943 12.797 23.7953 12.3109 22.9178 12.0249C21.5323 11.6059 19.4368 11.1697 19.0263 10.1689C18.6158 9.16815 19.4013 7.4579 21.8916 8.2704C21.8916 8.27065 24.0776 10.3082 24.6176 11.2512Z" fill="white"/>
<path d="M24.483 5.4909C23.9485 5.44815 23.243 5.53365 22.9008 6.5599C22.8351 6.76423 22.8128 6.98003 22.8355 7.19346C22.8582 7.40689 22.9252 7.61322 23.0323 7.7992C23.1394 7.98518 23.2843 8.14671 23.4575 8.27341C23.6307 8.40011 23.8286 8.48918 24.0383 8.5349C24.6883 8.6119 25.535 8.3809 25.86 7.5514C26.185 6.7219 25.6238 5.98815 25.193 5.7124L26.864 2.4874C26.7775 2.35755 26.6513 2.25911 26.5044 2.20672C26.3574 2.15434 26.1974 2.1508 26.0483 2.19665L24.483 5.4909Z" fill="white"/>
<path d="M23.0002 9.32377C23.0002 9.32377 24.3112 10.393 24.647 11.184L24.954 10.9018C24.954 10.9018 25.837 11.368 26.6325 10.9145C27.428 10.461 28.054 8.34877 28.054 8.34877L29.2257 7.57052L28.3875 7.26252L29.123 5.29277C28.7142 5.31286 28.3047 5.27071 27.9085 5.16777C27.4295 5.00527 26.7795 4.86777 26.506 5.22277C26.2592 5.63765 26.0602 6.07913 25.9127 6.53877C25.9127 6.53877 26.0332 7.48752 25.5972 8.02852C25.1155 8.62627 24.3425 8.51402 23.9875 8.48302C23.9867 8.48277 23.7417 9.28452 23.0002 9.32377Z" fill="white"/>
<path d="M26.7495 7.8566C26.8128 7.7216 26.7265 7.5481 26.5573 7.4686C26.3878 7.38885 26.199 7.4336 26.1358 7.5686C26.0725 7.7031 26.1585 7.87685 26.328 7.95635C26.4975 8.0361 26.6863 7.99135 26.7495 7.85635V7.8566Z" fill="#FDAF31"/>
<path d="M31.5745 25.7193L32.432 24.2856C32.432 24.2856 33.223 24.0068 33.717 23.7631C34.211 23.5193 35.3335 23.4101 35.9747 24.2313C36.616 25.0526 36.5137 26.3543 35.3335 26.4891C35.3335 26.4891 35.6542 25.6681 35.0512 25.3346C34.796 25.2078 34.5081 25.162 34.2261 25.2033C33.9441 25.2446 33.6814 25.371 33.4732 25.5656C33.1012 25.8668 32.216 26.1748 31.5745 25.7193Z" fill="white"/>
<path d="M45.4526 37.8779C45.4404 37.8474 45.4168 37.823 45.3868 37.8098C45.3567 37.7967 45.3227 37.7959 45.2921 37.8076L38.9469 40.3279L42.1534 33.8501C42.1632 33.8214 42.1623 33.79 42.1506 33.762C42.139 33.7339 42.1174 33.7111 42.0901 33.6979C42.0628 33.6846 42.0317 33.6816 42.0024 33.6895C41.9731 33.6974 41.9477 33.7157 41.9309 33.7409L38.7251 40.2194L36.9109 33.4839C36.8993 33.4559 36.8779 33.4331 36.8507 33.4197C36.8235 33.4064 36.7923 33.4034 36.7631 33.4114C36.734 33.4195 36.7087 33.4377 36.6919 33.4629C36.6751 33.488 36.6679 33.5183 36.6716 33.5484L38.5239 40.4254L32.6078 37.6254C32.5861 37.618 32.5627 37.6167 32.5403 37.6217C32.5178 37.6267 32.4972 37.6377 32.4806 37.6536C32.464 37.6696 32.4521 37.6897 32.4462 37.7119C32.4403 37.7341 32.4406 37.7576 32.4471 37.7796C32.4561 37.8092 32.4757 37.8344 32.5021 37.8504L38.3146 40.6021L32.3336 43.4414C32.3187 43.4482 32.3052 43.4579 32.2941 43.4699C32.283 43.482 32.2743 43.4962 32.2687 43.5116C32.2631 43.527 32.2606 43.5434 32.2614 43.5598C32.2621 43.5762 32.2662 43.5922 32.2732 43.6071C32.2803 43.6219 32.2902 43.6352 32.3024 43.6461C32.3146 43.6571 32.3289 43.6655 32.3444 43.6709C32.3599 43.6762 32.3764 43.6785 32.3927 43.6774C32.4091 43.6764 32.4251 43.6721 32.4399 43.6649L38.4166 40.8251L35.1573 47.0444C35.1454 47.0661 35.1402 47.0909 35.1426 47.1155C35.1449 47.1402 35.1546 47.1636 35.1704 47.1827C35.1862 47.2018 35.2074 47.2157 35.2312 47.2226C35.255 47.2295 35.2803 47.229 35.3038 47.2214C35.3195 47.2164 35.3341 47.2084 35.3466 47.1977C35.3591 47.187 35.3693 47.1739 35.3766 47.1591L38.6516 40.9074L40.4311 47.5216C40.4399 47.5423 40.4541 47.5603 40.4723 47.5736C40.4905 47.587 40.5119 47.5951 40.5343 47.5973C40.5567 47.5995 40.5793 47.5956 40.5997 47.586C40.6201 47.5764 40.6375 47.5615 40.6501 47.5429C40.667 47.5178 40.6742 47.4874 40.6704 47.4574L38.9003 40.8779L44.6504 43.5969C44.6725 43.6075 44.6974 43.6112 44.7217 43.6076C44.7461 43.6039 44.7688 43.593 44.7869 43.5764C44.8111 43.554 44.8255 43.5231 44.827 43.4902C44.8286 43.4573 44.8171 43.4251 44.7951 43.4006C44.7841 43.3886 44.7708 43.3788 44.7561 43.3719L38.9076 40.6066L45.3803 38.0369C45.4109 38.0252 45.4356 38.002 45.4491 37.9722C45.4626 37.9424 45.4639 37.9085 45.4526 37.8779Z" fill="#87E4FF"/>
<path d="M38.3346 48.7502C33.8769 48.7502 30.5346 44.7582 31.0266 40.1827C31.5516 35.3112 34.9501 32.0529 39.3099 32.2577C43.6629 32.4632 46.7509 36.3009 46.5424 40.7162C46.3376 45.0567 42.5301 48.7502 38.3346 48.7502ZM38.9289 33.1767C35.2516 33.1767 32.4039 36.0502 31.9491 40.2819C31.8402 41.2299 31.9254 42.1902 32.1997 43.1042C32.474 44.0182 32.9316 44.8668 33.5446 45.5982C35.9284 48.3812 40.1229 48.6609 43.1696 45.8102C44.6171 44.477 45.4936 42.6362 45.6161 40.6722C45.8071 36.6114 42.9144 33.1767 38.9289 33.1767Z" fill="#414141"/>
<path d="M39.8388 40.7834C40.0613 39.9899 39.6626 39.1839 38.9483 38.9836C38.2338 38.7834 37.4743 39.2641 37.2516 40.0579C37.0291 40.8516 37.4278 41.6574 38.1423 41.8576C38.8566 42.0581 39.6163 41.5771 39.8388 40.7834Z" fill="#87E4FF"/>
<path d="M18.081 38.2501C18.0705 38.219 18.0482 38.1934 18.0189 38.1787C17.9896 38.164 17.9557 38.1613 17.9245 38.1713L11.4543 40.3501L15.4543 34.1786C15.4653 34.1504 15.4657 34.1193 15.4555 34.0908C15.4454 34.0624 15.4252 34.0386 15.3988 34.0239C15.3725 34.0092 15.3416 34.0045 15.3121 34.0107C15.2825 34.017 15.2562 34.0337 15.238 34.0578L11.238 40.2298L9.7848 33.4073C9.77471 33.3787 9.75455 33.3547 9.72808 33.3398C9.7016 33.325 9.67063 33.3203 9.64093 33.3266C9.61124 33.3329 9.58485 33.3498 9.5667 33.3741C9.54855 33.3985 9.53988 33.4286 9.5423 33.4588L11.026 40.4251L5.26755 37.3123C5.24611 37.3011 5.22182 37.2964 5.19772 37.2989C5.17363 37.3014 5.15081 37.3109 5.13212 37.3263C5.11343 37.3417 5.09971 37.3623 5.09267 37.3855C5.08563 37.4086 5.08559 37.4334 5.09255 37.4566C5.1013 37.4878 5.12205 37.5141 5.15005 37.5301L10.8078 40.5873L4.68405 43.1043C4.6579 43.1195 4.63814 43.1437 4.62843 43.1723C4.61873 43.2009 4.61974 43.2321 4.63128 43.2601C4.64281 43.288 4.66409 43.3109 4.69117 43.3243C4.71825 43.3378 4.7493 43.341 4.77855 43.3333L10.898 40.8176L7.31255 46.8546C7.3011 46.8685 7.29282 46.8848 7.28827 46.9023C7.28371 46.9198 7.283 46.938 7.28617 46.9558C7.28935 46.9736 7.29634 46.9904 7.30666 47.0053C7.31698 47.0201 7.33039 47.0325 7.34596 47.0416C7.36153 47.0507 7.3789 47.0564 7.39687 47.0582C7.41484 47.06 7.43298 47.0578 7.45004 47.052C7.46711 47.0461 7.4827 47.0365 7.49573 47.024C7.50876 47.0115 7.51894 46.9964 7.52555 46.9796L11.1298 40.9121L12.5548 47.6121C12.5648 47.6406 12.585 47.6645 12.6114 47.6792C12.6379 47.6939 12.6688 47.6984 12.6983 47.6918C12.7278 47.6855 12.754 47.6688 12.7722 47.6446C12.7903 47.6205 12.7992 47.5907 12.797 47.5606L11.3795 40.8963L16.9775 43.9173C16.999 43.9286 17.0233 43.9333 17.0474 43.9308C17.0715 43.9283 17.0943 43.9187 17.113 43.9033C17.1317 43.8879 17.1454 43.8674 17.1524 43.8442C17.1595 43.821 17.1595 43.7963 17.1525 43.7731C17.1437 43.742 17.1231 43.7156 17.095 43.6996L11.4018 40.6271L18.0018 38.4053C18.0326 38.3949 18.0581 38.3728 18.0729 38.3438C18.0877 38.3148 18.0907 38.2812 18.081 38.2501Z" fill="#87E4FF"/>
<path d="M10.0703 48.7018C5.76228 48.2678 2.83853 44.1976 3.55303 39.7823C4.33578 34.9458 7.90303 31.8731 12.2463 32.3096C18.9868 32.9883 21.642 41.9956 15.9763 46.7596C15.17 47.459 14.2325 47.991 13.2185 48.3245C12.2046 48.6579 11.1343 48.7862 10.0703 48.7018ZM4.47028 39.9308C3.84703 43.7841 6.35978 47.3953 10.1643 47.7783C15.8763 48.3661 20.7465 41.1391 16.6705 35.7796C13.2865 31.3313 5.66103 32.5631 4.46903 39.9308H4.47028Z" fill="#414141"/>
<path d="M12.321 40.8518C12.5855 40.071 12.23 39.245 11.5272 39.007C10.8247 38.769 10.0405 39.2088 9.77599 39.9895C9.51149 40.7703 9.86674 41.5963 10.5695 41.8343C11.2722 42.0723 12.0565 41.6325 12.3207 40.8518H12.321Z" fill="#87E4FF"/>
<path d="M24.381 8.05434C24.1265 8.06238 23.8786 7.97265 23.6883 7.80359C23.4979 7.63453 23.3796 7.39898 23.3575 7.14534C23.3355 6.89171 23.4114 6.63926 23.5697 6.43988C23.728 6.2405 23.9567 6.10933 24.2087 6.07334C24.3519 6.05061 24.4984 6.05898 24.6381 6.0979C24.7778 6.13681 24.9074 6.20535 25.0183 6.29885C25.1291 6.39235 25.2185 6.50863 25.2804 6.63977C25.3423 6.77091 25.3753 6.91384 25.377 7.05884C25.3765 7.32281 25.2714 7.57582 25.0847 7.76243C24.898 7.94903 24.6449 8.05401 24.381 8.05434ZM24.3475 6.31109C24.1495 6.31175 23.9598 6.39068 23.8197 6.53067C23.6797 6.67065 23.6007 6.86033 23.6 7.05834C23.6 8.04784 25.1295 8.04159 25.1295 7.05834C25.1291 6.95737 25.1084 6.85752 25.0686 6.76474C25.0288 6.67196 24.9707 6.58816 24.8977 6.51834C24.8247 6.44851 24.7383 6.39416 24.6438 6.35854C24.5492 6.32293 24.4484 6.30679 24.3475 6.31109Z" fill="#414141"/>
<path d="M26.9062 6.19168C26.9147 6.16007 26.9354 6.13312 26.9637 6.11669C26.992 6.10026 27.0257 6.09567 27.0574 6.10393C27.0731 6.10802 27.0879 6.11519 27.1008 6.12501C27.1137 6.13483 27.1246 6.14711 27.1327 6.16115C27.1409 6.17519 27.1462 6.1907 27.1483 6.2068C27.1504 6.22289 27.1494 6.23925 27.1452 6.25493C26.9702 6.92368 27.4737 7.14618 27.7247 6.39293C27.7371 6.36566 27.759 6.34379 27.7863 6.3313C27.8135 6.31882 27.8444 6.31655 27.8732 6.32492C27.902 6.33329 27.9268 6.35173 27.9431 6.37688C27.9595 6.40203 27.9662 6.43222 27.9622 6.46193C27.6639 7.49343 26.6332 7.22043 26.9062 6.19168Z" fill="#414141"/>
<path d="M23.3669 42.0797C23.3669 41.8727 23.4054 41.4189 24.1432 41.4317C24.8809 41.4444 28.1714 41.3997 28.3702 41.4639C28.4903 41.5135 28.5916 41.5997 28.6598 41.7103C28.7279 41.8208 28.7594 41.9501 28.7497 42.0797C28.7452 42.2374 28.6835 42.3881 28.5761 42.5038C28.4687 42.6194 28.3229 42.692 28.1659 42.7082C27.8259 42.7212 24.1632 42.7467 23.9452 42.7082C23.7879 42.6942 23.6414 42.622 23.5345 42.5058C23.4276 42.3895 23.3678 42.2376 23.3669 42.0797Z" fill="white"/>
<path d="M16.8883 38.2114C16.8826 38.1027 17.0296 37.6164 17.4463 37.6114C17.8631 37.6064 21.6031 37.6074 21.8148 37.6524C21.9439 37.7086 22.0521 37.8039 22.1242 37.9249C22.1962 38.0458 22.2285 38.1864 22.2164 38.3267C22.2044 38.4669 22.1486 38.5999 22.0569 38.7068C21.9653 38.8137 21.8424 38.8891 21.7056 38.9224C21.3913 38.9417 17.6261 38.9609 17.4143 38.9224C17.2026 38.8839 16.9203 38.8079 16.8883 38.2114Z" fill="white"/>
<path d="M38.8674 40.0323C37.7767 38.9829 36.8357 37.7884 36.0709 36.4823C34.5459 33.952 31.7984 27.947 31.8426 27.1748C31.8506 27.0305 31.8943 26.8905 31.9699 26.7674C32.0455 26.6442 32.1506 26.5419 32.2756 26.4695C32.6529 26.2445 33.2191 26.2745 33.8686 26.559C33.9819 26.6076 34.1098 26.6093 34.2243 26.5638C34.3388 26.5183 34.4306 26.4293 34.4796 26.3163C34.5284 26.203 34.5301 26.0751 34.4846 25.9605C34.439 25.8459 34.3498 25.7541 34.2366 25.7053C34.1097 25.6493 33.9795 25.6008 33.8469 25.56C34.1158 25.42 34.4213 25.366 34.7219 25.4053C34.8136 25.425 34.9002 25.4638 34.9759 25.5193C35.0515 25.5747 35.1147 25.6455 35.1611 25.727C35.2638 25.9938 35.2703 26.288 35.1796 26.559C35.1729 26.5776 35.1707 26.5976 35.1732 26.6173C35.1757 26.6369 35.1828 26.6557 35.194 26.672C35.2052 26.6884 35.2201 26.7018 35.2375 26.7113C35.2549 26.7207 35.2743 26.7258 35.2941 26.7263C35.3034 26.7263 35.3126 26.723 35.3219 26.723C35.5937 26.6867 35.8474 26.5665 36.0476 26.379C36.2478 26.1916 36.3845 25.9464 36.4386 25.6775C36.4892 25.3422 36.445 24.9994 36.3111 24.6879C36.1772 24.3764 35.9588 24.1085 35.6806 23.9145C35.3607 23.6807 34.9792 23.5459 34.5834 23.5266C34.1876 23.5073 33.7948 23.6044 33.4536 23.806C33.2494 23.9205 32.9124 24.0723 32.6524 24.1898C32.6679 24.1648 32.6864 24.137 32.7024 24.1148C32.7201 24.0907 32.7283 24.061 32.7254 24.0313C32.7226 24.0016 32.7088 23.974 32.6869 23.9538C31.4091 22.7294 30.2156 21.4201 29.1144 20.0348C30.8394 19.874 33.9644 18.018 34.1036 17.9348C34.1215 17.9243 34.1363 17.9094 34.1466 17.8914C34.1569 17.8735 34.1623 17.8532 34.1624 17.8325L34.1999 14.825C34.1997 14.8054 34.1951 14.786 34.1864 14.7684C34.1778 14.7507 34.1653 14.7352 34.1499 14.723C33.9684 14.6075 33.9624 14.9318 26.8281 16.7305C26.2245 15.72 25.7516 14.6369 25.4206 13.5073C25.6494 12.7902 25.7056 12.0292 25.5846 11.2863C25.9929 11.3308 26.4046 11.2406 26.7569 11.0295C27.4776 10.6183 28.0591 8.78703 28.1581 8.46228L29.3026 7.76228C29.3216 7.75011 29.3369 7.7331 29.3471 7.71301C29.3572 7.69293 29.3618 7.67049 29.3604 7.64803C29.3589 7.62552 29.3513 7.60384 29.3384 7.58534C29.3255 7.56684 29.3078 7.55221 29.2871 7.54303C29.0374 7.43706 28.7813 7.34704 28.5201 7.27353L29.2099 5.50428C29.3563 5.46362 29.4938 5.39577 29.6151 5.30428C30.7441 4.42928 30.1936 2.88853 29.3584 2.44928C28.0376 1.75328 27.2024 2.27903 26.9766 2.45528C26.974 2.44152 26.9698 2.4281 26.9641 2.41528C26.8583 2.26746 26.7094 2.15599 26.5378 2.09615C26.3661 2.0363 26.1802 2.03102 26.0054 2.08103C25.6961 1.68154 25.2562 1.4035 24.7626 1.29551C24.2691 1.18752 23.7533 1.25646 23.3054 1.49028C21.8486 2.14928 21.9536 3.63078 22.3186 4.71353C21.9146 4.72974 21.5307 4.89418 21.2401 5.17548C20.9496 5.45677 20.7729 5.8352 20.7436 6.23853C20.6169 7.46353 21.8729 7.86853 21.8729 7.86853C21.8489 7.94853 21.8304 8.03028 21.8171 8.11303C20.9076 7.82228 20.1066 7.85628 19.5529 8.22728C19.2685 8.40957 19.0484 8.67645 18.9235 8.99036C18.7987 9.30428 18.7754 9.64943 18.8569 9.97728C14.0819 12.3773 12.2404 15.5978 11.9374 16.968C11.8374 17.4043 11.8846 18.357 12.6271 18.527C12.2429 19.152 11.0724 21.2698 12.6969 23.1713L15.0219 28.2893L10.5219 40.2393C10.4967 40.3071 10.4878 40.3799 10.4957 40.4518C10.5037 40.5237 10.5283 40.5928 10.5677 40.6535C10.607 40.7142 10.66 40.7648 10.7224 40.8014C10.7849 40.838 10.8549 40.8596 10.9271 40.8643L21.9451 40.7623C22.1476 40.7623 22.1974 40.692 23.0246 40.1623C23.0959 40.5395 23.2381 41.1923 23.4391 41.322C23.4979 41.35 23.5604 41.3688 23.6249 41.3775C23.5199 41.4392 23.4328 41.5273 23.3722 41.6329C23.3116 41.7386 23.2796 41.8582 23.2794 41.98V42.101C23.2795 42.2873 23.3534 42.466 23.485 42.5979C23.6166 42.7297 23.7951 42.8041 23.9814 42.8045H28.1461C28.3328 42.8042 28.5117 42.7298 28.6437 42.5978C28.7756 42.4657 28.8498 42.2867 28.8499 42.1C28.8682 41.9662 28.8493 41.8299 28.7951 41.7062C28.7409 41.5825 28.6537 41.4761 28.5429 41.3988C28.8464 41.345 29.0429 41.2738 29.0659 41.1788C29.1409 40.8788 28.1471 40.4038 27.2409 39.9445C26.6499 39.6478 26.0964 39.3323 25.9014 39.2363C25.8764 39.1003 25.8086 38.8188 25.7126 38.4363L33.4426 33.4745C35.4379 38.102 38.1971 40.6788 38.2589 40.7313C38.3531 40.8077 38.4727 40.8456 38.5938 40.8376C38.7148 40.8296 38.8283 40.7762 38.9116 40.688C38.9522 40.6423 38.9833 40.589 39.003 40.5311C39.0226 40.4732 39.0305 40.412 39.0261 40.351C39.0222 40.29 39.0061 40.2304 38.9789 40.1757C38.9516 40.1209 38.9137 40.0722 38.8674 40.0323ZM33.5749 24.0218C33.8767 23.8409 34.2255 23.7539 34.5769 23.7717C34.9283 23.7895 35.2664 23.9113 35.5484 24.1218C36.2331 24.5735 36.5234 25.7785 35.7711 26.2775C35.8576 26.1689 35.9209 26.0437 35.9571 25.9097C35.9933 25.7757 36.0017 25.6357 35.9816 25.4983C35.8816 24.9568 35.2669 24.6908 35.2391 24.6785C35.2166 24.6671 35.1911 24.6629 35.1661 24.6666C35.1411 24.6702 35.1179 24.6815 35.0996 24.6989C35.0813 24.7163 35.0688 24.739 35.0639 24.7638C35.059 24.7885 35.0619 24.8142 35.0721 24.8373C35.0789 24.8526 35.0887 24.8664 35.1009 24.8777C35.1132 24.8891 35.1276 24.8979 35.1434 24.9035C35.7794 25.2205 35.9466 25.686 35.4896 26.2398C35.5131 26.0244 35.4756 25.8068 35.3814 25.6118C35.2969 25.4654 35.1751 25.3442 35.0283 25.2605C34.8815 25.1768 34.7151 25.1337 34.5461 25.1355C34.1669 25.1698 33.7981 25.278 33.4606 25.454C33.1809 25.3785 32.8888 25.3593 32.6016 25.3975C32.3143 25.4358 32.0374 25.5307 31.7871 25.6768L31.7499 25.6398C31.8429 25.4758 32.1304 24.9993 32.4026 24.5663C32.5664 24.498 33.2284 24.2103 33.5749 24.0218ZM32.4399 24.0618C32.0716 24.597 31.3509 25.7663 31.1469 26.0973C30.4548 25.8361 29.7774 25.5377 29.1176 25.2033C29.8202 24.3927 30.4534 23.5246 31.0106 22.608C31.7096 23.3565 32.2446 23.8763 32.4396 24.0618H32.4399ZM32.5016 15.4473C32.9865 15.3051 33.4691 15.1556 33.9494 14.9988L33.9151 17.7578C33.7326 17.866 33.1401 18.2063 32.3996 18.5808L32.5016 15.4473ZM32.2516 15.5183C32.2516 15.5183 32.1516 18.689 32.1556 18.7013C31.0761 19.2303 29.6056 19.7818 29.2894 19.7225C28.3942 18.9069 27.6116 17.9757 26.9621 16.9535C27.6356 16.7805 30.1599 16.1308 32.2499 15.5183H32.2516ZM26.9961 5.29328C27.2776 5.25628 28.1561 5.64603 28.9231 5.56553L28.2396 7.31328C28.2335 7.3299 28.2309 7.34762 28.232 7.36531C28.2331 7.383 28.2378 7.40027 28.246 7.416C28.2542 7.43173 28.2656 7.44558 28.2794 7.45665C28.2932 7.46772 28.3093 7.47577 28.3264 7.48028C28.3294 7.48028 28.6201 7.55528 28.9634 7.68028C27.9261 8.31603 27.9506 8.28503 27.9366 8.34853C27.8132 8.75941 27.6644 9.16227 27.4911 9.55478C27.3238 9.53815 27.1691 9.45863 27.0581 9.33228C26.9013 9.09956 26.8302 8.81962 26.8569 8.54028C26.86 8.50752 26.8501 8.47484 26.8293 8.44937C26.8084 8.4239 26.7784 8.40769 26.7456 8.40428C26.7131 8.40227 26.6811 8.41261 26.6558 8.43324C26.6306 8.45387 26.6141 8.48326 26.6096 8.51553C26.5759 8.86121 26.6681 9.20745 26.8694 9.49053C27.0012 9.64567 27.1826 9.7505 27.3829 9.78728C27.1601 10.2483 26.9004 10.6658 26.6344 10.8175C26.3904 10.9662 26.1114 11.048 25.8257 11.0545C25.54 11.0609 25.2577 10.992 25.0071 10.8545C24.9821 10.8384 24.9522 10.8318 24.9228 10.8358C24.8933 10.8398 24.8662 10.8541 24.8464 10.8763L24.6609 11.0865C24.3086 10.4997 23.8376 9.99301 23.2781 9.59878C23.6742 9.40805 23.9938 9.08842 24.1844 8.69228C25.3871 8.85778 26.1874 7.85003 26.0126 6.76528C26.1201 6.44278 26.5221 5.35403 26.9954 5.29203L26.9961 5.29328ZM25.3249 12.8583C25.2249 12.3184 25.0434 11.7969 24.7866 11.3115L24.9661 11.1135C25.0796 11.1665 25.1976 11.209 25.3186 11.2405C25.4284 11.774 25.4304 12.324 25.3249 12.8583ZM26.1569 2.28328C26.2609 2.26896 26.3669 2.28132 26.4649 2.31919C26.5628 2.35706 26.6495 2.4192 26.7169 2.49978L25.2419 5.62078C25.0736 5.52127 24.8877 5.45507 24.6944 5.42578C25.0591 4.59303 25.9314 2.64428 26.1571 2.28253L26.1569 2.28328ZM24.2796 5.65003C25.3499 5.60003 25.7921 6.27778 25.7921 7.05128C25.7921 7.42536 25.6435 7.78413 25.379 8.04865C25.1145 8.31317 24.7557 8.46178 24.3816 8.46178C24.0076 8.46178 23.6488 8.31317 23.3843 8.04865C23.1198 7.78413 22.9711 7.42536 22.9711 7.05128C22.9654 6.69375 23.0986 6.34794 23.3426 6.08659C23.5867 5.82525 23.9226 5.66875 24.2796 5.65003ZM21.7926 8.36678C21.7631 8.60665 21.8092 8.84976 21.9245 9.06216C22.0399 9.27456 22.2186 9.44564 22.4359 9.55153C22.5934 9.62653 22.7659 9.66478 22.9401 9.66278C23.5421 10.053 24.0503 10.5715 24.4284 11.1812C24.8065 11.7909 25.0451 12.4766 25.1271 13.1893C24.4542 12.5216 23.6169 12.0435 22.6999 11.8033C21.2369 11.4283 19.0281 10.863 19.0624 9.64753C19.0931 8.57503 20.0166 7.77703 21.7926 8.36678ZM19.1571 10.532C19.8571 11.33 21.4709 11.7445 22.6371 12.0415C23.6181 12.2988 24.5001 12.8427 25.1704 13.6038C25.8849 15.8988 27.6791 19.3013 30.8371 22.4193C29.7266 24.1548 29.0771 24.8848 28.8871 25.0828C21.2514 21.0675 20.3851 13.8048 20.3749 13.725C20.3736 13.7087 20.369 13.6928 20.3613 13.6782C20.3537 13.6637 20.3432 13.6509 20.3305 13.6405C20.3178 13.6301 20.3032 13.6224 20.2874 13.6178C20.2717 13.6132 20.2552 13.6118 20.2389 13.6138C20.2061 13.6172 20.1761 13.6334 20.1552 13.6589C20.1343 13.6843 20.1243 13.717 20.1274 13.7498C20.0679 16.8748 20.9524 18.2783 20.9524 18.2783C20.6808 18.2156 20.3993 18.2087 20.125 18.2579C19.8507 18.3072 19.5892 18.4116 19.3564 18.5649C19.1236 18.7182 18.9243 18.9171 18.7707 19.1497C18.617 19.3822 18.5121 19.6435 18.4624 19.9178C18.0849 19.7413 17.7199 19.5713 17.3859 19.4165C16.1776 14.3725 18.8371 11.1725 19.1571 10.532ZM20.0821 36.0698C19.7571 36.0358 17.8271 35.2005 17.6199 35.0553C19.7364 31.8163 21.4106 27.2135 21.4276 27.1303C21.433 27.1036 21.4296 27.0759 21.4179 27.0514C21.4062 27.0269 21.3868 27.0068 21.3626 26.9943C21.3564 26.9913 21.1986 26.9138 20.9419 26.79C22.7004 26.3707 24.4037 25.7468 26.0169 24.931C26.195 25.1681 26.2968 25.4537 26.3086 25.75C26.2871 26.4583 25.7736 27.6678 24.7806 29.3413C23.1659 32.061 20.0999 36.0483 20.0821 36.0698ZM21.1431 35.0863C21.3471 35.5903 21.6471 36.3793 21.9474 37.1833C21.4382 36.793 20.8922 36.4532 20.3171 36.1688C20.4779 35.9615 20.7719 35.581 21.1431 35.0863ZM13.6234 23.672C14.7809 24.2045 15.7596 24.593 17.4311 25.3795C17.5796 26.0755 17.8086 26.889 18.2106 26.988C18.7921 27.1303 19.6304 27.0593 20.5521 26.8735C20.8336 27.0128 21.0501 27.118 21.1646 27.1735C21.0719 27.5168 20.6646 28.8468 19.3706 31.377C19.1601 31.0153 18.6706 30.177 18.0806 29.1903C17.0879 27.5295 14.6131 24.7548 13.6234 23.672ZM17.4684 19.725L18.4209 20.1673C18.4149 20.2075 18.4116 20.2445 18.4086 20.2785C18.1519 20.362 17.9136 20.4395 17.7034 20.5105C17.6173 20.2511 17.5389 19.9891 17.4684 19.725ZM21.6471 19.3693C21.2574 19.4528 20.7749 19.5795 20.2676 19.7218C20.4322 19.4311 20.6119 19.1492 20.8059 18.8773C21.1242 18.9657 21.4141 19.1354 21.6471 19.3695V19.3693ZM21.2111 18.3608C21.3129 18.2393 21.4236 18.1258 21.5421 18.0205C21.6803 18.2972 21.8268 18.5695 21.9814 18.8373C21.7539 18.6355 21.4933 18.4744 21.2111 18.361V18.3608ZM19.9274 19.818C19.6396 19.9015 19.3459 19.988 19.0644 20.0748C19.1167 19.7265 19.2941 19.4091 19.5633 19.182C19.8325 18.9548 20.1752 18.8335 20.5274 18.8405C20.3111 19.1561 20.1108 19.4823 19.9274 19.818ZM12.1789 17.0218C12.8099 14.175 16.4784 11.59 18.4301 10.4858C17.5783 11.731 16.985 13.1345 16.6853 14.6132C16.3857 16.0919 16.3858 17.6156 16.6856 19.0943C13.8606 17.6868 12.7944 18.3148 12.7819 18.324C12.5624 18.2465 11.9716 17.9465 12.1789 17.0218ZM12.2191 20.115C12.3577 19.5668 12.5857 19.0452 12.8941 18.5713C14.1344 18.0213 16.6276 19.3385 16.7514 19.3963C16.8507 19.843 16.9746 20.284 17.1226 20.717C17.0379 20.7466 16.9552 20.7818 16.8751 20.8223C16.3461 21.1408 16.5411 23.7238 16.8814 24.0473C17.0814 24.236 17.1226 24.0103 17.2464 24.4473C17.2804 24.5648 17.3214 24.8 17.3731 25.0783C17.3004 25.0448 16.1149 24.4865 13.1044 23.1283C12.2249 22.339 11.9249 21.325 12.2191 20.115ZM14.0971 24.565C17.4379 28.312 17.7396 29.0875 19.2376 31.64C19.0081 32.0807 18.774 32.519 18.5354 32.9548L14.0971 24.565ZM11.6066 39.9803L15.5999 29.3885L17.9941 33.92C17.7838 34.2826 17.5724 34.6445 17.3599 35.0058C17.2641 35.1308 16.6269 35.9808 16.8279 36.3978C17.0044 36.7565 18.6344 37.4555 18.9221 37.505H17.4776C17.291 37.5055 17.1122 37.58 16.9805 37.7123C16.8488 37.8445 16.7751 38.0237 16.7754 38.2103V38.331C16.7759 38.5171 16.85 38.6955 16.9816 38.8271C17.1132 38.9587 17.2915 39.0328 17.4776 39.0333H20.6944L21.0874 39.7785L11.6066 39.9803ZM17.4776 38.7863C17.3571 38.786 17.2416 38.738 17.1564 38.6528C17.0712 38.5676 17.0232 38.4521 17.0229 38.3315V38.2108C17.0226 38.1508 17.0342 38.0914 17.0569 38.036C17.0796 37.9805 17.1131 37.9301 17.1553 37.8876C17.1976 37.8451 17.2478 37.8113 17.3031 37.7882C17.3584 37.7651 17.4177 37.7532 17.4776 37.753H21.6411C21.7625 37.7533 21.8787 37.8016 21.9645 37.8874C22.0503 37.9732 22.0986 38.0895 22.0989 38.2108V38.3315C22.098 38.4524 22.0494 38.568 21.9637 38.6532C21.878 38.7384 21.762 38.7862 21.6411 38.7863H17.4776ZM22.0776 39.6648L21.7401 39.025C21.9079 39.0024 22.0617 38.9197 22.1732 38.7923C22.2846 38.665 22.3462 38.5015 22.3464 38.3323C22.3464 38.2013 22.3056 38.1625 22.7114 39.2603L22.0776 39.6648ZM22.9251 39.1203C22.4829 37.9078 21.9094 36.1895 21.5381 35.2953C21.5381 35.2953 22.7881 33.3088 23.6151 31.6313C24.1471 33.549 24.8214 36.0113 25.2481 37.629L22.9251 39.1203ZM23.5501 39.8225L25.4956 38.5758C25.5731 38.8913 25.6286 39.1233 25.6534 39.2408C24.9706 39.4958 24.2667 39.6903 23.5499 39.822L23.5501 39.8225ZM28.1456 41.5243C28.2165 41.5242 28.2865 41.5401 28.3503 41.5709C28.4141 41.6017 28.4701 41.6465 28.5141 41.702C28.5579 41.7577 28.5885 41.8226 28.6036 41.8918C28.6188 41.9609 28.6181 42.0326 28.6016 42.1015C28.6017 42.1616 28.5898 42.221 28.5667 42.2765C28.5436 42.3319 28.5098 42.3822 28.4671 42.4245C28.4247 42.4669 28.3743 42.5005 28.3188 42.5234C28.2633 42.5463 28.2039 42.5579 28.1439 42.5578H23.9821C23.8612 42.5575 23.7454 42.5093 23.6599 42.4238C23.5744 42.3383 23.5263 42.2224 23.5261 42.1015V41.9805C23.5262 41.8597 23.5742 41.7438 23.6596 41.6582C23.745 41.5727 23.8608 41.5245 23.9816 41.5243H28.1456ZM25.4649 37.49C24.9234 35.4238 24.0449 32.247 23.7976 31.3593C24.6074 30.1445 26.5149 27.2043 26.5566 25.7575C26.5456 25.4123 26.4315 25.0783 26.2289 24.7985C26.5944 24.5633 26.5269 24.1463 26.3309 23.7593C27.7974 24.8577 29.4183 25.7332 31.1409 26.3575C31.0161 26.5847 30.9402 26.8355 30.9181 27.0938C30.8624 27.762 31.9079 30.252 33.0371 32.6308L25.4649 37.49Z" fill="#414141"/>
<path d="M26.6042 40.4315C26.5798 40.4309 26.5562 40.4232 26.5361 40.4094C26.5161 40.3955 26.5005 40.3761 26.4914 40.3536C26.4822 40.331 26.4798 40.3062 26.4845 40.2823C26.4893 40.2584 26.5009 40.2364 26.5179 40.219L27.1929 39.5605C27.2173 39.5432 27.247 39.5352 27.2768 39.5379C27.3065 39.5406 27.3343 39.5538 27.3552 39.5752C27.376 39.5966 27.3886 39.6247 27.3905 39.6545C27.3924 39.6843 27.3836 39.7139 27.3657 39.7378C26.6769 40.41 26.6797 40.4315 26.6042 40.4315Z" fill="white"/>
<path d="M27.2029 40.732C27.1788 40.7314 27.1553 40.7238 27.1354 40.7102C27.1155 40.6965 27.0999 40.6774 27.0907 40.6551C27.0814 40.6328 27.0788 40.6083 27.0831 40.5846C27.0874 40.5608 27.0986 40.5388 27.1151 40.5213L27.8334 39.7945C27.8507 39.777 27.8728 39.765 27.8969 39.7601C27.9211 39.7552 27.9461 39.7575 27.9689 39.7668C27.9839 39.773 27.9976 39.782 28.0094 39.7935C28.0324 39.8172 28.0453 39.8488 28.0456 39.8818C28.0455 39.8981 28.0421 39.9143 28.0357 39.9294C28.0294 39.9444 28.0201 39.9581 28.0084 39.9695C27.2641 40.7225 27.2766 40.732 27.2029 40.732Z" fill="white"/>
<path d="M20.0861 36.7584C20.0591 36.7574 20.0332 36.7478 20.0123 36.7308C19.9913 36.7138 19.9764 36.6905 19.9698 36.6644C19.9633 36.6382 19.9653 36.6107 19.9756 36.5858C19.9859 36.5609 20.004 36.54 20.0271 36.5261L20.9021 36.0511C20.9164 36.0427 20.9323 36.0372 20.9488 36.035C20.9653 36.0328 20.9821 36.034 20.9981 36.0384C21.0304 36.0477 21.0576 36.0695 21.0738 36.0989C21.0818 36.1134 21.0868 36.1295 21.0883 36.1461C21.0899 36.1626 21.088 36.1793 21.0828 36.1951C21.0778 36.211 21.0696 36.2256 21.0588 36.2383C21.048 36.2509 21.0347 36.2612 21.0198 36.2686C20.0688 36.7839 20.1306 36.7584 20.0861 36.7584Z" fill="white"/>
<path d="M20.4877 37.2001C20.4609 37.1991 20.4351 37.1895 20.4142 37.1728C20.3932 37.1561 20.3782 37.1331 20.3714 37.1071C20.3645 37.0812 20.3661 37.0538 20.3761 37.0289C20.386 37.004 20.4037 36.9829 20.4265 36.9688L21.2967 36.4731C21.3108 36.4645 21.3265 36.4589 21.3428 36.4565C21.3592 36.4542 21.3758 36.4552 21.3917 36.4596C21.4157 36.4659 21.4373 36.4792 21.4536 36.4979C21.4699 36.5166 21.4802 36.5398 21.4831 36.5645C21.4861 36.5891 21.4816 36.6141 21.4702 36.6361C21.4588 36.6581 21.441 36.6762 21.4192 36.6881C20.4775 37.2263 20.535 37.2001 20.4877 37.2001Z" fill="white"/>
<path d="M25.0895 22.2381C25.0852 22.2224 25.0779 22.2077 25.0679 22.1948C25.0579 22.1819 25.0454 22.1712 25.0312 22.1632C25.017 22.1552 25.0014 22.1501 24.9852 22.1482C24.969 22.1463 24.9526 22.1476 24.937 22.1521C24.1277 22.3771 23.362 22.5831 22.649 22.7691C22.5437 22.5191 22.399 22.3059 22.2447 22.2711C21.8727 22.1874 20.6697 22.6211 20.5577 22.8039C20.4971 22.9631 20.4897 23.1376 20.5365 23.3014C18.35 23.8326 17.0137 24.0961 16.993 24.1001C16.9645 24.1079 16.9397 24.1255 16.923 24.1497C16.9062 24.174 16.8986 24.2034 16.9015 24.2328C16.9043 24.2621 16.9174 24.2895 16.9385 24.3101C16.9596 24.3307 16.9873 24.3432 17.0167 24.3454C17.1615 24.3454 19.6947 23.7606 20.595 23.5419C20.6887 23.8569 20.8415 24.1524 20.9617 24.1959C21.1927 24.2794 22.5992 23.7976 22.7577 23.6534C22.8437 23.5751 22.8195 23.2929 22.7327 23.0034C23.442 22.8184 24.201 22.6146 25.0032 22.3906C25.0348 22.3817 25.0615 22.3607 25.0777 22.3321C25.0938 22.3036 25.0981 22.2698 25.0895 22.2381Z" fill="white"/>
<path d="M34.3305 27.4074C34.6116 27.4074 34.8813 27.2957 35.08 27.0969C35.2788 26.8982 35.3905 26.6285 35.3905 26.3474C35.3905 26.0663 35.2788 25.7967 35.08 25.5979C34.8813 25.3991 34.6116 25.2874 34.3305 25.2874C34.0494 25.2874 33.7798 25.3991 33.581 25.5979C33.3822 25.7967 33.2705 26.0663 33.2705 26.3474C33.2705 26.6285 33.3822 26.8982 33.581 27.0969C33.7798 27.2957 34.0494 27.4074 34.3305 27.4074Z" fill="#87E4FF"/>
<path d="M11.5884 23.0978C12.0571 22.6933 12.9511 23.3815 14.4384 24.033C15.8169 24.637 16.2759 24.8608 16.9296 25.133C17.9814 25.571 17.6016 26.7673 16.3966 26.5253C15.5266 26.3503 13.6691 25.7093 12.8944 25.6003C11.7129 25.4328 10.3696 24.15 11.5884 23.0978Z" fill="#87E4FF"/>
<path d="M33.0724 11.7708C33.0724 11.7708 36.6259 12.0403 37.4599 12.5151C37.4599 12.5151 37.6652 13.0923 37.2932 13.3938C37.2932 13.3938 33.1182 12.9438 32.8799 12.7396C32.8118 12.5773 32.7937 12.3984 32.828 12.2257C32.8623 12.0531 32.9474 11.8947 33.0724 11.7708Z" fill="white"/>
<path d="M33.327 12.9233C33.2155 13.1438 33.056 17.1813 33.31 17.3023C33.669 17.4733 35.6447 17.6701 35.8157 17.5846C35.9867 17.4991 37.0047 13.5051 36.748 13.3846C36.4912 13.2641 33.4452 12.6898 33.327 12.9233Z" fill="#87E4FF"/>
<path d="M33.3198 13.5189C33.2161 13.5689 32.7638 13.8524 32.9286 14.1474C33.0933 14.4424 33.5058 14.2309 33.9228 13.9224C34.3398 13.6139 34.3013 13.0577 33.3198 13.5189Z" fill="white"/>
<path d="M32.7477 14.2156C32.6872 13.9881 32.824 13.7448 33.1132 13.5656C33.3585 13.4128 33.811 13.1781 34.0882 13.3141C34.144 13.3419 34.1912 13.3843 34.225 13.4366C34.2588 13.489 34.2779 13.5495 34.2802 13.6118C34.2775 13.6764 34.2612 13.7397 34.2325 13.7976C34.2039 13.8555 34.1634 13.9067 34.1137 13.9481C33.7077 14.3796 32.9107 14.8291 32.7477 14.2156ZM33.8912 13.5188C33.6412 13.5188 32.9092 13.8606 32.987 14.1521C33.094 14.5576 34.019 13.7756 34.0342 13.6321C34.0262 13.5578 33.9945 13.5188 33.8912 13.5188Z" fill="#414141"/>
<path d="M35.6481 14.1408C35.7651 14.0408 36.6186 14.2821 36.9159 14.6658C37.2131 15.0496 36.7771 15.1086 36.7771 15.1086C36.7771 15.1086 37.2839 15.4806 36.7706 15.6793C36.7706 15.6793 37.2389 16.1543 36.6424 16.4293C36.6424 16.4293 36.9566 16.9293 36.0201 16.9426C35.0836 16.9558 35.1284 16.5111 35.9111 16.3781C35.9111 16.3781 35.2281 15.9991 35.2696 15.7943C35.3111 15.5896 35.8791 15.6018 35.8791 15.6018C35.8791 15.6018 35.2434 15.1881 35.3916 14.9298C35.5399 14.6716 36.0136 14.8513 36.0136 14.8513C36.0136 14.8513 35.4681 14.2951 35.6481 14.1408Z" fill="white"/>
<path d="M35.177 16.8688C35.1548 16.8247 35.1476 16.7746 35.1567 16.7262C35.1657 16.6777 35.1904 16.6336 35.227 16.6005C35.3503 16.5082 35.4908 16.4414 35.6402 16.404C35.4137 16.3088 35.1152 16.1428 35.1152 15.8958C35.1152 15.6655 35.3845 15.603 35.5902 15.5858C35.4812 15.5165 35.1152 15.3138 35.1997 14.9785C35.2705 14.6983 35.5817 14.7285 35.7167 14.7535C35.5939 14.6405 35.5096 14.4919 35.4755 14.3285C35.4668 14.2707 35.4802 14.2118 35.513 14.1634C35.5458 14.115 35.5956 14.0808 35.6525 14.0675C35.985 13.973 36.8367 14.3865 37.0142 14.689C37.073 14.7603 37.102 14.8516 37.095 14.9438C37.088 15.036 37.0456 15.1219 36.9767 15.1835C37.0184 15.2249 37.0506 15.2747 37.0715 15.3296C37.0923 15.3845 37.1011 15.4432 37.0975 15.5018C37.0938 15.5604 37.0776 15.6176 37.0501 15.6694C37.0225 15.7213 36.9842 15.7666 36.9377 15.8025C36.9865 15.8573 37.0215 15.9228 37.04 15.9938C37.0585 16.0647 37.0599 16.139 37.044 16.2106C37.0282 16.2822 36.9956 16.349 36.9489 16.4055C36.9022 16.462 36.8428 16.5067 36.7755 16.5358C37.0532 17.2578 35.362 17.2345 35.177 16.8688ZM35.3967 16.783C35.4862 16.865 36.2915 16.9488 36.5315 16.758C36.5605 16.7348 36.609 16.696 36.5 16.558C36.488 16.5423 36.4798 16.524 36.4763 16.5046C36.4728 16.4851 36.474 16.4651 36.4797 16.4463C36.4854 16.4274 36.4954 16.4101 36.509 16.3959C36.5226 16.3816 36.5394 16.3708 36.558 16.3643C36.6407 16.3363 36.8177 16.245 36.835 16.1418C36.847 16.0708 36.78 15.9743 36.646 15.87C36.6285 15.8561 36.6151 15.8376 36.6072 15.8167C36.5994 15.7957 36.5974 15.773 36.6015 15.751C36.6055 15.729 36.6153 15.7086 36.6299 15.6916C36.6444 15.6747 36.6632 15.6619 36.6842 15.6545C36.7625 15.6295 36.8765 15.5625 36.886 15.5028C36.889 15.4833 36.886 15.409 36.7055 15.2778C36.6877 15.2645 36.6738 15.2468 36.6653 15.2264C36.6567 15.206 36.6537 15.1837 36.6567 15.1618C36.6597 15.1399 36.6684 15.1192 36.6819 15.1018C36.6953 15.0843 36.7131 15.0707 36.7335 15.0623C36.7586 15.0526 36.7809 15.0369 36.7985 15.0165C36.816 14.9961 36.8283 14.9717 36.8341 14.9455C36.84 14.9192 36.8393 14.892 36.8321 14.8661C36.8248 14.8401 36.8113 14.8164 36.7927 14.797C36.5752 14.5802 36.3057 14.4227 36.01 14.3398C35.916 14.3007 35.8127 14.2901 35.7127 14.3093C35.7485 14.5315 36.2215 14.8825 36.5127 15.05C36.5368 15.0681 36.5535 15.0943 36.5598 15.1237C36.5661 15.1531 36.5616 15.1839 36.547 15.2102C36.5325 15.2366 36.5089 15.2568 36.4807 15.2672C36.4524 15.2776 36.4214 15.2774 36.3932 15.2668C36.1082 15.1168 35.5012 14.9075 35.4895 15.0835C35.4735 15.3208 35.9997 15.536 36.1827 15.5963C36.509 15.638 36.4022 15.8635 36.2697 15.8663C36.2313 15.8648 36.1932 15.8578 36.1567 15.8455C35.9175 15.815 35.4207 15.8128 35.3612 15.9015C35.363 16.0695 36.013 16.2975 36.149 16.2988V16.3013C36.1693 16.2979 36.1901 16.2998 36.2095 16.3067C36.2288 16.3136 36.2462 16.3253 36.2598 16.3407C36.2734 16.3561 36.2829 16.3747 36.2874 16.3948C36.2919 16.4149 36.2912 16.4358 36.2855 16.4555C36.2787 16.4792 36.2649 16.5003 36.246 16.516C36.227 16.5318 36.2038 16.5414 36.1792 16.5438C36.048 16.5638 35.4635 16.6668 35.3967 16.783Z" fill="#414141"/>
<path d="M37.4398 12.3361C37.3381 12.2981 37.2343 12.2661 37.1288 12.2401C37.1553 12.0636 37.1826 11.7076 36.9998 11.5841C36.7531 11.4176 34.8173 11.0941 34.2748 11.1033C33.9963 11.1081 33.8631 11.4901 33.8156 11.6701C33.5761 11.6298 33.3324 11.6204 33.0906 11.6421C32.7831 11.7516 32.5438 12.6138 32.8028 12.8171C33.0426 13.0048 37.2471 13.5421 37.2881 13.5421C37.5256 13.5361 37.6228 13.0398 37.6333 12.9831C37.6958 12.6473 37.6248 12.4113 37.4398 12.3361ZM37.2603 13.2936C36.8708 13.2631 33.1886 12.7378 32.9588 12.6246C32.9255 12.4963 32.9334 12.3607 32.9813 12.2371C33.0053 12.0996 33.0718 11.9736 33.1718 11.8763C33.4513 11.8238 36.6808 12.2946 37.3468 12.5653C37.4693 12.6151 37.3863 13.1463 37.2603 13.2936Z" fill="#FDAF31"/>
<path d="M13.3431 9.7339C12.0808 9.5684 10.8063 9.51569 9.53463 9.5764C9.50462 9.5744 9.47634 9.56164 9.45498 9.54047C9.43362 9.5193 9.42061 9.49114 9.41833 9.46115C9.41605 9.43117 9.42466 9.40136 9.44258 9.37721C9.46049 9.35306 9.48652 9.33617 9.51588 9.32965C10.8041 9.2678 12.0953 9.32093 13.3741 9.4884C13.4031 9.49638 13.4283 9.51454 13.4449 9.53955C13.4616 9.56456 13.4687 9.59475 13.465 9.62458C13.4612 9.65441 13.4468 9.68189 13.4244 9.70196C13.4021 9.72204 13.3732 9.73338 13.3431 9.7339Z" fill="#414141"/>
<path d="M12.0926 10.661C11.2801 10.6052 10.4647 10.6031 9.65189 10.6545C9.62209 10.6515 9.59436 10.6379 9.57377 10.6161C9.55317 10.5943 9.54108 10.5659 9.53969 10.536C9.53829 10.5061 9.54769 10.4766 9.56618 10.4531C9.58466 10.4295 9.611 10.4133 9.64039 10.4075C10.4614 10.3667 11.2839 10.3689 12.1046 10.4143C12.1339 10.4203 12.16 10.4365 12.1783 10.4601C12.1965 10.4837 12.2058 10.513 12.2043 10.5428C12.2029 10.5726 12.1908 10.6009 12.1704 10.6226C12.1499 10.6443 12.1223 10.6579 12.0926 10.661Z" fill="#414141"/>
<path d="M16.189 8.39466C16.1517 8.18316 16.2947 7.89466 16.7375 7.71191C16.7375 7.22691 16.7047 6.74241 16.6387 6.26191C16.6361 6.23761 16.6406 6.21306 16.6518 6.19131C16.6629 6.16955 16.6802 6.15155 16.7015 6.13952C16.7228 6.1275 16.7471 6.12197 16.7715 6.12364C16.7959 6.12531 16.8193 6.1341 16.8387 6.14891C17.0847 6.34566 17.7025 6.72866 17.709 6.73241C17.7323 6.75167 17.7478 6.77871 17.7526 6.80851C17.7575 6.83832 17.7514 6.86888 17.7355 6.89455C17.7196 6.92022 17.6949 6.93926 17.6661 6.94815C17.6372 6.95704 17.6061 6.95518 17.5785 6.94291C17.5587 6.93066 17.2017 6.70941 16.918 6.51316C16.9822 7.09666 17.0405 8.23191 16.818 8.56316C16.7819 8.6289 16.7247 8.68064 16.6558 8.71008C16.5868 8.73952 16.5099 8.74497 16.4374 8.72556C16.365 8.70615 16.3011 8.663 16.2561 8.60301C16.211 8.54302 16.1874 8.46966 16.189 8.39466Z" fill="#414141"/>
<path d="M18.3665 4.91499C17.9193 4.87224 18.1215 4.23699 18.6385 4.03774C18.604 3.69128 18.5513 3.34689 18.4805 3.00599C18.4763 2.98266 18.4787 2.95861 18.4876 2.93663C18.4965 2.91466 18.5115 2.89567 18.5308 2.88188C18.5501 2.8681 18.5729 2.86008 18.5966 2.85877C18.6203 2.85746 18.6438 2.86291 18.6645 2.87449C18.8965 2.98249 19.142 3.05824 19.3948 3.09949C19.4236 3.1085 19.4483 3.12769 19.4641 3.15348C19.4799 3.17927 19.4858 3.20992 19.4807 3.23975C19.4757 3.26958 19.46 3.29655 19.4365 3.31568C19.4131 3.3348 19.3835 3.34477 19.3533 3.34374C19.1548 3.30842 18.9595 3.25751 18.769 3.19149C18.8478 3.61649 18.958 4.33649 18.853 4.55574C18.8129 4.65467 18.7463 4.7406 18.6604 4.804C18.5746 4.8674 18.4728 4.90582 18.3665 4.91499Z" fill="#414141"/>
<path d="M34.5143 9.03266C34.4716 9.02266 33.4761 8.78391 33.3821 8.05966C33.3634 7.92406 33.374 7.78603 33.4133 7.65491C33.4526 7.52379 33.5196 7.40264 33.6098 7.29966C33.6717 7.23825 33.7175 7.16261 33.7434 7.07937C33.7692 6.99612 33.7743 6.90781 33.7581 6.82216C33.7242 6.66565 33.645 6.52255 33.5304 6.4107C33.4158 6.29885 33.2709 6.2232 33.1136 6.19316C33.0845 6.18451 33.0596 6.16559 33.0435 6.13992C33.0274 6.11426 33.0212 6.0836 33.026 6.05369C33.0309 6.02377 33.0464 5.99664 33.0698 5.97736C33.0932 5.95808 33.1228 5.94797 33.1531 5.94891C33.3602 5.98693 33.5513 6.08566 33.7022 6.23255C33.8532 6.37945 33.957 6.56788 34.0006 6.77391C34.1256 7.39091 33.5506 7.44391 33.6273 8.02916C33.6993 8.58266 34.5613 8.79016 34.5701 8.79216C34.5974 8.80348 34.6199 8.82415 34.6334 8.85047C34.647 8.8768 34.6507 8.90708 34.644 8.93592C34.6373 8.96476 34.6206 8.99029 34.5969 9.00796C34.5731 9.02563 34.5439 9.0343 34.5143 9.03241V9.03266Z" fill="#414141"/>
<path d="M33.6711 9.98888C33.6389 9.98688 32.8769 9.93438 32.5461 9.55638C32.1476 9.09963 32.5336 8.62388 32.3429 8.32763C32.1396 8.01188 31.8469 8.12963 31.3679 7.66513C30.9314 7.24213 31.3019 6.61688 31.5581 6.34513C31.5757 6.33103 31.5968 6.32193 31.6191 6.31879C31.6414 6.31565 31.6641 6.31858 31.6849 6.32728C31.7057 6.33599 31.7237 6.35013 31.7371 6.36823C31.7506 6.38633 31.7588 6.40772 31.7611 6.43013C31.7642 6.46029 31.7561 6.49053 31.7384 6.51513C31.7326 6.52113 31.1699 7.12838 31.5401 7.48763C31.9794 7.91263 32.2934 7.79338 32.5511 8.19363C32.8186 8.60788 32.4174 9.03188 32.7334 9.39363C32.9509 9.64363 33.4954 9.72963 33.6869 9.74213C33.7161 9.74856 33.742 9.76518 33.7601 9.789C33.7781 9.81282 33.7871 9.84229 33.7854 9.87213C33.7835 9.90204 33.7709 9.93027 33.7499 9.9517C33.7289 9.97312 33.701 9.98631 33.6711 9.98888Z" fill="#414141"/>
</svg>
