<svg width="35" height="34" viewBox="0 0 35 34" fill="none" xmlns="http://www.w3.org/2000/svg">
<rect x="0.666626" width="34" height="34" rx="17" fill="#33B067" fill-opacity="0.1"/>
<g clip-path="url(#clip0_669_2010)">
<path d="M15.898 18.3867C11.5426 18.3867 8.01184 21.9174 8.01184 26.2729H23.7843C23.7843 21.9174 20.2535 18.3867 15.898 18.3867Z" fill="white"/>
<path fill-rule="evenodd" clip-rule="evenodd" d="M17.62 12.2334C17.6652 12.2203 17.7106 12.2082 17.7562 12.1971C17.4423 12.649 17.1795 13.147 16.9627 13.6718C16.4928 14.8099 16.2197 16.1183 16.1099 17.4757C16.0384 17.474 15.9668 17.4731 15.8951 17.4731C14.6051 17.4731 13.331 17.7588 12.1645 18.3098C10.998 18.8607 9.96794 19.6632 9.14843 20.6595C8.83518 21.0403 8.88997 21.603 9.27081 21.9163C9.65164 22.2294 10.2143 22.1747 10.5276 21.7939C11.1795 21.0012 11.999 20.3628 12.9271 19.9244C13.8551 19.4861 14.8688 19.2588 15.8951 19.2588C16.1834 19.2588 16.4707 19.2767 16.7553 19.3122C16.8046 19.3233 16.8555 19.3303 16.9076 19.3329C17.5832 19.4324 18.2423 19.6312 18.8632 19.9244C19.4603 20.2064 20.0124 20.5713 20.5039 21.0067C20.873 21.3337 21.4373 21.2996 21.7643 20.9305C22.0913 20.5614 22.0571 19.9971 21.688 19.6701C21.0703 19.1228 20.3763 18.6642 19.6258 18.3098C19.0664 18.0455 18.4822 17.8423 17.8834 17.7023C17.9772 16.4554 18.2201 15.3055 18.6133 14.3534C18.9545 13.5271 19.3933 12.884 19.9178 12.4389C20.5005 12.5943 21.0037 12.9642 21.3257 13.4754C21.6566 14.0007 21.7705 14.634 21.6431 15.2417C21.5015 15.9174 21.9345 16.5799 22.6101 16.7215C23.2858 16.8631 23.9484 16.4301 24.09 15.7544C24.3504 14.5119 24.1176 13.2169 23.441 12.1428C23.371 12.0319 23.297 11.9241 23.219 11.8199C23.6987 11.9549 24.1353 12.2202 24.478 12.5903C24.9471 13.0968 25.738 13.1271 26.2444 12.658C26.751 12.1889 26.7813 11.3981 26.3123 10.8916C25.4478 9.95813 24.2723 9.37244 23.0066 9.24447C22.253 9.1683 21.4982 9.25747 20.7927 9.49858C20.4041 8.87681 19.8784 8.34385 19.2481 7.94466C18.1803 7.26839 16.8937 7.02753 15.6536 7.27172C14.9763 7.40509 14.5353 8.06232 14.6687 8.73967C14.802 9.41701 15.4593 9.858 16.1366 9.72461C16.4973 9.6536 16.866 9.66573 17.2158 9.75598C17.1168 9.779 17.0183 9.8048 16.9203 9.83337C15.6843 10.1937 14.6125 10.9736 13.8895 12.0389C13.5017 12.6101 13.6505 13.3874 14.2217 13.7752C14.7929 14.1629 15.5702 14.0141 15.958 13.4429C16.3545 12.8588 16.9422 12.4311 17.62 12.2334ZM13.5594 23.2501C13.5594 22.757 13.1597 22.3573 12.6666 22.3573C12.1734 22.3573 11.7737 22.757 11.7737 23.2501C11.7737 24.1377 11.0542 24.8573 10.1666 24.8573C9.91844 24.8573 9.6858 24.8017 9.47824 24.7031C9.20163 24.5717 8.87696 24.5911 8.61809 24.7549C8.35922 24.9184 8.20227 25.2033 8.20227 25.5096V26.1073C8.20227 26.6004 8.60202 27.0001 9.09513 27.0001H26.238C26.7311 27.0001 27.1308 26.6004 27.1308 26.1073V25.5096C27.1308 25.2033 26.9738 24.9184 26.715 24.7549C26.4561 24.5911 26.1314 24.5717 25.8548 24.7031C25.6473 24.8017 25.4147 24.8573 25.1666 24.8573C24.279 24.8573 23.5594 24.1377 23.5594 23.2501C23.5594 22.757 23.1597 22.3573 22.6666 22.3573C22.1734 22.3573 21.7737 22.757 21.7737 23.2501C21.7737 24.1377 21.0542 24.8573 20.1666 24.8573C19.279 24.8573 18.5594 24.1377 18.5594 23.2501C18.5594 22.757 18.1597 22.3573 17.6666 22.3573C17.1734 22.3573 16.7737 22.757 16.7737 23.2501C16.7737 24.1377 16.0542 24.8573 15.1666 24.8573C14.279 24.8573 13.5594 24.1377 13.5594 23.2501Z" fill="#33B067"/>
</g>
<defs>
<clipPath id="clip0_669_2010">
<rect width="20" height="20" fill="white" transform="translate(7.66663 7)"/>
</clipPath>
</defs>
</svg>
