<svg width="50" height="50" viewBox="0 0 50 50" fill="none" xmlns="http://www.w3.org/2000/svg">
<path d="M3.49734 28.675H10.1548C11.4833 28.675 11.6026 30.7075 10.1371 30.799C3.45484 30.799 3.53659 30.812 3.44384 30.7813C2.12959 30.579 2.29584 28.761 3.49734 28.675Z" fill="#FDAF31"/>
<path d="M3.58729 30.9243H10.1378C11.7368 30.9243 11.7013 28.5503 10.1555 28.5503L3.48904 28.5505C2.02154 28.6553 2.06404 30.924 3.58729 30.9243ZM8.60279 30.673L7.53354 30.6743L7.56579 28.8003H8.63679L8.60279 30.673ZM8.88679 28.8003H9.88679L9.85454 30.6743H8.85304L8.88704 28.8003H8.88679ZM7.28329 30.6743C6.10704 30.6743 6.19254 30.685 6.19304 30.6598L6.24429 28.8003H7.31554L7.28329 30.6743ZM5.94329 30.653C5.94229 30.6833 6.07279 30.6743 4.82054 30.6743L4.85279 28.8003H5.99404L5.94304 30.653H5.94329ZM4.57054 30.6743H3.58704L3.62104 28.8003H4.60279L4.57054 30.6743ZM10.104 30.6743L10.1363 28.8003C11.3755 28.8003 11.4253 30.6743 10.104 30.6743ZM3.37079 28.8183L3.33754 30.6465C2.43354 30.434 2.43354 29.0078 3.37079 28.8183Z" fill="#414141"/>
<path d="M3.85476 30.8511H10.5123C11.8408 30.8511 11.96 32.8836 10.4945 32.9751C3.81226 32.9751 3.89401 32.9881 3.80126 32.9573C2.48701 32.7551 2.65326 30.9371 3.85476 30.8511Z" fill="#FDAF31"/>
<path d="M3.94471 33.1001H10.4952C12.0942 33.1001 12.0587 30.7261 10.513 30.7261L3.84646 30.7263C2.37896 30.8311 2.42146 33.0998 3.94471 33.1001ZM8.96021 32.8488L7.89096 32.8501L7.92321 30.9761H8.99421L8.96021 32.8488ZM9.24421 30.9761H10.2442L10.212 32.8501H9.21046L9.24446 30.9761H9.24421ZM7.64071 32.8501C6.46446 32.8501 6.54996 32.8608 6.55046 32.8356L6.60171 30.9761H7.67296L7.64071 32.8501ZM6.30071 32.8288C6.29971 32.8591 6.43021 32.8501 5.17796 32.8501L5.21021 30.9761H6.35146L6.30046 32.8288H6.30071ZM4.92796 32.8501H3.94446L3.97846 30.9761H4.96021L4.92796 32.8501ZM10.4615 32.8501L10.4937 30.9761C11.733 30.9761 11.7827 32.8501 10.4615 32.8501ZM3.72821 30.9941L3.69496 32.8223C2.79096 32.6098 2.79096 31.1836 3.72821 30.9941Z" fill="#414141"/>
<path d="M2.79812 33.0469H9.45562C10.7841 33.0469 10.9034 35.0794 9.43787 35.1709C2.75562 35.1709 2.83737 35.1839 2.74462 35.1531C1.43037 34.9509 1.59662 33.1329 2.79812 33.0469Z" fill="#FDAF31"/>
<path d="M2.88807 35.2961H9.43857C11.0376 35.2961 11.0021 32.9221 9.45633 32.9221L2.78982 32.9224C1.32232 33.0271 1.36482 35.2959 2.88807 35.2961ZM7.90357 35.0449L6.83432 35.0461L6.86657 33.1721H7.93757L7.90357 35.0449ZM8.18758 33.1721H9.18758L9.15532 35.0461H8.15382L8.18783 33.1721H8.18758ZM6.58407 35.0461C5.40782 35.0461 5.49332 35.0569 5.49382 35.0316L5.54507 33.1721H6.61632L6.58407 35.0461ZM5.24407 35.0249C5.24307 35.0551 5.37357 35.0461 4.12132 35.0461L4.15357 33.1721H5.29482L5.24382 35.0249H5.24407ZM3.87132 35.0461H2.88782L2.92182 33.1721H3.90357L3.87132 35.0461ZM9.40483 35.0461L9.43707 33.1721C10.6763 33.1721 10.7261 35.0461 9.40483 35.0461ZM2.67157 33.1901L2.63832 35.0184C1.73432 34.8059 1.73432 33.3796 2.67157 33.1901Z" fill="#414141"/>
<path d="M2.19656 35.3768H8.85406C10.1826 35.3768 10.3018 37.4093 8.83631 37.5008C2.15406 37.5008 2.23581 37.5138 2.14306 37.4831C0.828811 37.2808 0.995061 35.4628 2.19656 35.3768Z" fill="#FDAF31"/>
<path d="M2.28456 37.6261H8.83506C10.4341 37.6261 10.3986 35.2521 8.85281 35.2521L2.18631 35.2523C0.718808 35.3571 0.761308 37.6258 2.28456 37.6261ZM7.30006 37.3748L6.23081 37.3761L6.26306 35.5021H7.33406L7.30006 37.3748ZM7.58406 35.5021H8.58406L8.55181 37.3761H7.55031L7.58431 35.5021H7.58406ZM5.98056 37.3761C4.80431 37.3761 4.88981 37.3868 4.89031 37.3616L4.94156 35.5021H6.01281L5.98056 37.3761ZM4.64056 37.3548C4.63956 37.3851 4.77006 37.3761 3.51781 37.3761L3.55006 35.5021H4.69131L4.64031 37.3548H4.64056ZM3.26781 37.3761H2.28431L2.31831 35.5021H3.30006L3.26781 37.3761ZM8.80131 37.3761L8.83356 35.5021C10.0728 35.5021 10.1226 37.3761 8.80131 37.3761ZM2.06806 35.5201L2.03481 37.3483C1.13081 37.1358 1.13081 35.7096 2.06806 35.5201Z" fill="#414141"/>
<path d="M3.14969 37.6399H9.80719C11.1357 37.6399 11.2549 39.6724 9.78944 39.7639C3.10719 39.7639 3.18894 39.7769 3.09619 39.7461C1.78194 39.5439 1.94819 37.7259 3.14969 37.6399Z" fill="#FDAF31"/>
<path d="M3.23964 39.8889H9.79014C11.3891 39.8889 11.3536 37.5149 9.80789 37.5149L3.14139 37.5151C1.67389 37.6199 1.71639 39.8886 3.23964 39.8889ZM8.25514 39.6376L7.18589 39.6389L7.21814 37.7649H8.28914L8.25514 39.6376ZM8.53914 37.7649H9.53914L9.50689 39.6389H8.50539L8.53939 37.7649H8.53914ZM6.93564 39.6389C5.75939 39.6389 5.84489 39.6496 5.84539 39.6244L5.89664 37.7649H6.96789L6.93564 39.6389ZM5.59564 39.6176C5.59464 39.6479 5.72514 39.6389 4.47289 39.6389L4.50514 37.7649H5.64639L5.59539 39.6176H5.59564ZM4.22289 39.6389H3.23939L3.27339 37.7649H4.25514L4.22289 39.6389ZM9.75639 39.6389L9.78864 37.7649C11.0279 37.7649 11.0776 39.6389 9.75639 39.6389ZM3.02314 37.7829L2.98989 39.6111C2.08589 39.3986 2.08589 37.9724 3.02314 37.7829Z" fill="#414141"/>
<path d="M16.3028 39.8099C16.2935 39.6637 16.076 39.6499 16.0543 39.7999C15.9435 39.7999 14.4848 39.9359 12.6258 39.7801C12.6318 39.5969 12.3825 39.5931 12.3763 39.7594C12.369 39.9544 12.359 40.6049 12.5323 40.7864C12.6078 40.8656 12.6748 40.8536 12.818 40.8536C13.7393 40.8536 15.8255 40.7789 16.1603 40.7624C16.4238 40.7249 16.3295 40.2339 16.303 39.8096L16.3028 39.8099Z" fill="#87E4FF"/>
<path d="M34.2753 39.4476C34.2742 39.4309 34.2696 39.4146 34.262 39.3996C34.2544 39.3847 34.2438 39.3714 34.231 39.3607C34.2181 39.3499 34.2033 39.3418 34.1872 39.3369C34.1712 39.332 34.1543 39.3304 34.1376 39.3321C34.121 39.3338 34.1048 39.3389 34.0901 39.347C34.0754 39.3552 34.0626 39.3662 34.0522 39.3794C34.0419 39.3926 34.0343 39.4077 34.0299 39.4239C34.0256 39.4401 34.0245 39.457 34.0268 39.4736V39.4779C33.8758 39.5951 31.2246 39.6814 30.6338 39.5881C30.6146 39.4291 30.3748 39.4504 30.3851 39.6111C30.3856 39.6201 30.4453 40.5284 30.4983 40.6601C30.5253 40.7416 30.5406 40.7874 31.2048 40.7874C31.8743 40.7874 33.0258 40.7466 33.7036 40.6854C34.1823 40.6421 34.2758 40.6121 34.2933 40.4844C34.3138 40.0976 34.3078 39.7584 34.2751 39.4474L34.2753 39.4476Z" fill="#87E4FF"/>
<path d="M36.971 22.0581C35.543 20.0056 33.152 17.8266 30.9203 16.6856C25.7815 14.0586 18.444 14.2046 13.375 17.0249L10.3408 14.9901C10.3408 14.9901 8.75254 13.8299 8.84154 16.4181C8.93104 19.0241 10.2158 19.5416 10.2158 19.5416C8.79479 21.1206 8.74729 22.1669 7.91329 23.1291C6.94454 24.2471 4.25204 23.6196 3.87954 25.2174C3.78004 25.6436 3.78129 26.0731 3.82604 26.5024C3.96779 27.8639 4.05329 28.9321 4.41504 29.4654C5.16579 30.5714 7.10504 29.4469 8.02054 30.0901C8.45429 30.3949 8.41904 31.4116 9.23429 32.9994C9.91629 34.3276 11.4148 35.0506 12.0365 36.3549C12.3593 37.0324 12.447 39.0144 12.5185 39.7461C12.5185 39.8004 15.7448 39.9269 16.1418 39.7284C16.3918 39.4784 15.9148 38.0396 16.3738 37.6936C16.5363 37.5711 20.7113 38.5966 23.3348 38.5146C26.8693 38.4041 28.1198 37.8599 29.2605 37.5509C30.6188 37.1829 30.26 38.7824 30.5278 39.5321C30.6815 39.6859 33.864 39.5866 34.026 39.4606C34.8193 38.6674 34.2388 37.2431 35.097 36.4976C35.3265 36.2984 38.3858 33.7121 38.8095 28.3051C38.9998 25.8771 38.399 24.1106 36.971 22.0581Z" fill="#87E4FF"/>
<path d="M37.0916 21.9869C35.5918 19.8219 33.1986 17.6969 30.9948 16.5744C25.8348 13.9451 18.3991 14.0961 13.3138 16.9334C13.299 16.9411 13.2859 16.9517 13.2753 16.9646C13.2647 16.9775 13.2568 16.9924 13.252 17.0084C13.2472 17.0244 13.2457 17.0412 13.2475 17.0578C13.2494 17.0744 13.2545 17.0904 13.2626 17.105C13.2708 17.1196 13.2817 17.1324 13.2949 17.1426C13.3081 17.1529 13.3231 17.1604 13.3393 17.1648C13.3554 17.1691 13.3722 17.1702 13.3887 17.1679C13.4053 17.1657 13.4212 17.1601 13.4356 17.1516C18.4531 14.3526 25.7901 14.2034 30.8811 16.7969C33.0173 17.8854 35.4303 20.0284 36.8858 22.1294C38.3728 24.2759 38.8821 26.0096 38.7026 28.3131C38.3246 33.1591 35.8161 35.7276 35.0566 36.3999C34.1368 37.2141 34.6718 38.8049 33.9726 39.3746C33.6898 39.4824 31.0511 39.5491 30.6496 39.4636C30.4861 38.8924 30.6223 37.8856 30.0901 37.5179C29.3126 36.9806 28.5916 38.2389 23.3483 38.4074C20.5541 38.4981 16.5801 37.4304 16.3208 37.6081C15.7736 37.9829 16.2343 39.3439 16.0796 39.6439C15.7026 39.7686 13.1516 39.7224 12.6503 39.6616C12.5651 38.8644 12.4901 36.9966 12.1671 36.3189C11.5316 34.9856 10.0286 34.2469 9.36281 32.9596C9.03906 32.3336 8.74606 31.5054 8.56456 30.8414C8.48456 30.5484 8.38481 30.1836 8.10631 30.0029C7.11656 29.3604 5.23831 30.4384 4.53606 29.4124C4.28106 29.0404 4.20881 28.5061 4.14506 28.0349C4.08356 27.5786 3.99206 27.0686 3.96806 26.5046C3.91206 26.0574 3.92881 25.6514 4.01931 25.2636C4.20406 24.4716 5.02981 24.2696 5.92756 24.0821C5.96856 24.4466 6.13256 25.6864 6.29181 26.4564C6.29926 26.4881 6.31878 26.5156 6.34622 26.5331C6.37367 26.5506 6.40686 26.5567 6.43875 26.5502C6.47063 26.5436 6.49869 26.5248 6.51696 26.4979C6.53523 26.4709 6.54226 26.4379 6.53656 26.4059C6.36856 25.5949 6.20531 24.3151 6.17331 24.0311C6.46906 23.9691 6.76556 23.9031 7.04181 23.8124C7.10756 24.2891 7.43556 25.7059 7.50681 25.9806C7.51567 26.0121 7.53649 26.0388 7.56483 26.0551C7.59316 26.0714 7.62674 26.0759 7.65838 26.0677C7.69002 26.0596 7.71721 26.0393 7.73411 26.0114C7.75101 25.9834 7.75629 25.9499 7.74881 25.9181C7.65106 25.5416 7.31106 24.0374 7.28231 23.7246C8.76006 23.1204 8.56131 21.6246 10.3401 19.6479L10.3758 19.6121C10.3992 19.5886 10.4124 19.5568 10.4124 19.5236C10.4124 19.4905 10.3992 19.4587 10.3757 19.4352C10.3522 19.4118 10.3204 19.3986 10.2872 19.3987C10.254 19.3987 10.2222 19.4119 10.1988 19.4354L10.1588 19.4759C8.72056 21.0739 8.65131 22.1509 7.83806 23.0639C6.88931 24.1289 4.17231 23.5071 3.77581 25.2069C3.67856 25.6239 3.66031 26.0586 3.71906 26.5256C3.73706 26.9574 3.79731 27.3861 3.86306 27.8241C3.94681 28.3811 3.99331 29.0626 4.32981 29.5539C5.14056 30.7379 7.07906 29.6349 7.97031 30.2129C8.20806 30.3669 8.28356 30.7846 8.36506 31.0544C9.02481 33.2486 9.44881 33.7049 10.5613 34.7629C12.1033 36.2294 12.1341 36.4299 12.3438 39.0261C12.4043 39.7781 12.4006 39.8284 12.4731 39.8734C12.6523 39.9841 15.8631 40.0341 16.2156 39.8581C16.5853 39.6716 16.0606 38.1486 16.4448 37.8279C16.8936 37.8166 20.8466 38.7386 23.3566 38.6574C28.5811 38.4896 29.3241 37.2931 29.9483 37.7239C30.4316 38.0579 30.2148 39.5366 30.5073 39.6796C30.7378 39.7921 33.8711 39.7716 34.1208 39.5771C34.9421 38.9301 34.3963 37.3289 35.1988 36.6084C37.1048 34.8974 38.6678 31.9784 38.9523 28.3326C39.1368 25.9654 38.6153 24.1861 37.0921 21.9869H37.0916Z" fill="black"/>
<path d="M10.1705 19.6577C10.1142 19.6352 8.7902 19.0789 8.7172 16.4214C8.6912 15.4722 8.88045 14.8862 9.27945 14.6797C9.7807 14.4199 10.3907 14.8707 10.4165 14.8899L13.4635 16.9387C13.491 16.9572 13.51 16.9859 13.5164 17.0184C13.5228 17.0509 13.5159 17.0847 13.4975 17.1122C13.4883 17.1258 13.4765 17.1375 13.4629 17.1466C13.4492 17.1557 13.4339 17.162 13.4177 17.1651C13.3852 17.1715 13.3515 17.1647 13.324 17.1462L10.272 15.0937C10.2617 15.0862 9.75545 14.7144 9.39395 14.9019C9.09195 15.0587 8.94445 15.5817 8.9672 16.4144C9.03545 18.9092 10.2505 19.4202 10.2627 19.4252C10.4145 19.4854 10.326 19.7192 10.1705 19.6577Z" fill="black"/>
<path d="M13.7497 26.0565C14.4457 26.0565 15.0169 26.4313 15.0169 26.8955C15.0169 27.3598 14.4457 27.7345 13.7497 27.7345C13.0537 27.7345 12.4824 27.3598 12.4824 26.8955C12.4824 26.4313 13.0537 26.0565 13.7497 26.0565Z" fill="black"/>
<path d="M43.7262 19.6696C43.7124 19.6399 43.6875 19.6168 43.6569 19.6052C43.6263 19.5937 43.5923 19.5946 43.5624 19.6078C43.5324 19.621 43.5088 19.6454 43.4967 19.6758C43.4845 19.7062 43.4848 19.7401 43.4974 19.7704C44.2389 21.4526 44.0074 23.9036 42.1824 24.2511C42.2065 23.9091 42.1691 23.5656 42.0719 23.2369C41.9212 22.7189 41.4017 22.0301 40.8254 21.8204C40.1524 21.5759 39.4544 22.0826 39.5427 22.7379C39.6304 23.3881 40.5944 24.5389 41.7552 24.5389C41.7994 24.5389 41.8437 24.5376 41.8874 24.5351C41.5824 26.0104 40.1404 26.8789 38.8334 25.8679C38.8205 25.8572 38.8056 25.8493 38.7895 25.8445C38.7734 25.8397 38.7566 25.8382 38.74 25.8401C38.7233 25.842 38.7072 25.8472 38.6926 25.8554C38.678 25.8636 38.6652 25.8746 38.655 25.8879C38.6447 25.9012 38.6373 25.9163 38.633 25.9325C38.6288 25.9487 38.6278 25.9656 38.6302 25.9822C38.6326 25.9988 38.6383 26.0147 38.647 26.029C38.6556 26.0433 38.6671 26.0558 38.6807 26.0656C40.1622 27.2121 41.8439 26.2056 42.1469 24.5094C44.2182 24.1749 44.5512 21.5404 43.7262 19.6691V19.6696ZM39.7904 22.7049C39.7279 22.2406 40.2389 21.8736 40.7399 22.0556C41.2269 22.2326 41.6977 22.8456 41.8319 23.3069C41.9267 23.6331 41.9599 23.9684 41.9289 24.2824C40.7319 24.3771 39.8597 23.2194 39.7904 22.7049Z" fill="#87E4FF"/>
<path d="M14.7401 24.3251C14.5021 24.3411 13.8556 24.3681 13.7561 24.3738C13.7466 24.2021 13.7294 24.0308 13.7046 23.8606C13.8726 23.7236 14.5568 23.3383 14.7786 23.1993C14.7925 23.1906 14.8046 23.1793 14.8141 23.1659C14.8236 23.1525 14.8304 23.1374 14.8341 23.1214C14.8378 23.1054 14.8383 23.0889 14.8356 23.0727C14.8329 23.0565 14.827 23.041 14.8183 23.0271C14.8096 23.0131 14.7983 23.0011 14.7849 22.9915C14.7715 22.982 14.7564 22.9752 14.7404 22.9715C14.7244 22.9678 14.7079 22.9673 14.6917 22.97C14.6755 22.9727 14.66 22.9786 14.6461 22.9873C14.4598 23.1036 13.9113 23.4143 13.6561 23.5876C13.4978 22.8356 13.1721 22.3278 12.6821 22.0721C12.1563 21.7978 11.6248 21.8741 11.1851 22.2868C10.5071 22.9236 10.2028 24.2086 10.5468 24.9823C10.5603 25.0126 10.5852 25.0363 10.6162 25.0482C10.6471 25.0601 10.6815 25.0593 10.7118 25.0458C10.7421 25.0324 10.7658 25.0074 10.7777 24.9765C10.7897 24.9455 10.7888 24.9111 10.7753 24.8808C10.3111 23.8366 11.2366 21.5993 12.5666 22.2938C13.4046 22.7308 13.5353 24.0413 13.5168 24.9828C13.5163 25.0108 13.5371 25.1103 13.6418 25.1103C13.6745 25.1103 13.706 25.0975 13.7293 25.0746C13.7527 25.0517 13.7662 25.0205 13.7668 24.9878C13.7693 24.8626 13.7691 24.7411 13.7663 24.6233C13.9616 24.6143 14.5441 24.5888 14.7568 24.5748C14.9198 24.5638 14.9076 24.3168 14.7403 24.3253L14.7401 24.3251Z" fill="black"/>
<path d="M24.1138 12.4313C22.2303 10.0793 19.2563 9.42033 17.4731 10.9313C14.2506 13.6616 15.3203 17.4416 17.8463 19.5616C20.5336 21.8176 23.5638 20.8358 24.9263 18.7691C25.9661 17.1918 25.8631 14.6153 24.1138 12.4313Z" fill="#FDAF31"/>
<path d="M19.5695 9.96502C17.6655 10.0558 15.9237 12.0475 15.502 13.4338C14.3212 17.3163 18.8957 22.3263 22.6507 20.6998C28.8362 18.0205 24.59 9.72602 19.5695 9.96502ZM16.406 12.2475C16.228 12.677 16.1183 13.1318 16.081 13.5953L15.6832 13.7543C15.8182 13.2076 16.0643 12.6946 16.4062 12.2473H16.406V12.2475ZM18.0622 19.5658C18.848 19.2258 18.7972 19.251 18.82 19.2288C19.1689 19.4861 19.5412 19.7101 19.932 19.8978L19.2075 20.2915C18.7991 20.0945 18.4148 19.851 18.0622 19.5658ZM17.8477 19.3863C17.5773 19.1496 17.3241 18.8937 17.0902 18.6208L17.802 18.2788C18.0327 18.5555 18.302 18.8183 18.6012 19.06L17.8475 19.3865H17.8477V19.3863ZM16.9325 18.4193C16.7435 18.1724 16.5698 17.9143 16.4122 17.6463L17.0657 17.3015C17.2329 17.5775 17.4238 17.8383 17.6362 18.081L16.9322 18.4193H16.9325ZM15.864 16.4548L16.519 16.2225C16.6398 16.5191 16.78 16.8075 16.9385 17.0858L16.2895 17.4283C16.1209 17.1161 15.9785 16.7905 15.864 16.4548ZM16.1155 14.745L15.5672 14.9528C15.5517 14.6478 15.5707 14.3443 15.6215 14.048L16.0652 13.871C16.0577 14.1633 16.0744 14.4557 16.1152 14.7453H16.1155V14.745ZM15.5882 15.2125L16.1565 14.997C16.2199 15.3346 16.3111 15.6664 16.429 15.989L15.7885 16.2165C15.692 15.8884 15.625 15.5523 15.5882 15.2123V15.2125ZM19.4965 20.419C20.2305 20.02 20.1862 20.0483 20.2075 20.023C20.6458 20.2098 21.1102 20.3282 21.5845 20.3743C21.1412 20.6588 21.0162 20.738 21.0025 20.7503C20.5042 20.731 20.002 20.6235 19.4965 20.4193V20.419ZM21.4807 20.738C22.0027 20.403 21.993 20.412 22.0122 20.393C22.3169 20.3912 22.6204 20.3544 22.9167 20.2833C22.4907 20.5368 22.0027 20.6915 21.481 20.7383H21.4807V20.738ZM24.2317 19.35C23.1807 20.238 21.6387 20.392 20.2075 19.7505C18.8995 19.1643 17.883 18.2075 17.2022 17.043C16.089 15.138 16.005 13.1943 16.9717 11.7098C18.6105 9.19477 22.119 10.0983 24.033 12.5023C25.8737 14.8143 25.963 17.8863 24.2317 19.3498V19.35Z" fill="#414141"/>
<path d="M20.4515 14.5728C20.1882 14.5946 20.2217 14.5906 20.0282 14.6036C19.7365 14.6231 19.248 14.6568 19.1495 14.3946C19.061 14.1591 19.3747 13.8711 19.5137 13.7581C20.0957 13.2858 20.8057 13.1738 21.5385 13.1886C22.051 13.1988 22.2055 13.2618 22.245 13.3136C22.3457 13.4448 22.544 13.2928 22.4435 13.1616C22.303 12.9781 21.9277 12.9466 21.5432 12.9391C21.133 12.9306 20.7595 12.9528 20.3477 13.0666C20.2145 12.7218 19.834 11.8431 19.817 11.8036C19.8038 11.7732 19.779 11.7492 19.7482 11.737C19.7173 11.7248 19.6829 11.7254 19.6525 11.7386C19.622 11.7518 19.5981 11.7765 19.5859 11.8074C19.5737 11.8382 19.5743 11.8727 19.5875 11.9031C19.5917 11.9131 19.9732 12.7938 20.1092 13.1431C19.5435 13.3501 18.707 13.9268 18.9155 14.4826C19.1045 14.9861 19.8755 14.8713 20.472 14.8226C21.4505 14.7416 23.0887 14.6066 23.2612 15.7046C23.3482 16.2588 22.2987 16.5671 21.7877 16.6171C21.17 16.6766 20.502 16.6321 19.8025 16.4838C19.7864 16.4805 19.7698 16.4803 19.7537 16.4833C19.7376 16.4863 19.7222 16.4925 19.7085 16.5014C19.6947 16.5104 19.6829 16.522 19.6736 16.5355C19.6644 16.5491 19.6578 16.5643 19.6545 16.5803C19.6511 16.5964 19.6509 16.613 19.6539 16.6291C19.6569 16.6452 19.6631 16.6606 19.6721 16.6743C19.681 16.6881 19.6926 16.6999 19.7061 16.7092C19.7197 16.7185 19.7349 16.725 19.751 16.7283C20.434 16.8728 21.0895 16.9223 21.7015 16.8751C21.7752 17.2671 22.1315 18.0913 22.1362 18.1008C22.211 18.2498 22.4337 18.1363 22.36 17.9888C22.237 17.7433 22.0067 17.0906 21.945 16.8491C22.197 16.8116 22.4685 16.7356 22.739 16.6266C23.1865 16.4441 23.5837 16.1431 23.5085 15.6656C23.3 14.3381 21.447 14.4908 20.4517 14.5731H20.4515V14.5728Z" fill="white"/>
<path d="M30.6338 11.688C29.8403 8.78102 27.3733 6.99428 25.1363 7.67228C21.094 8.89678 20.5733 12.7905 22.0485 15.7398C23.6175 18.8783 26.7885 19.1818 28.8603 17.8268C30.4413 16.7928 31.3708 14.3875 30.6338 11.6883V11.688Z" fill="#FDAF31"/>
<path d="M27.443 7.61841C25.6598 6.94491 23.2698 8.08041 22.332 9.18491C19.7053 12.2784 21.912 18.6937 26.0038 18.6937C32.7445 18.6937 32.1448 9.39466 27.443 7.61841ZM23.633 8.45541C23.2989 8.7788 23.0175 9.15249 22.799 9.56291L22.3708 9.55091C22.7118 9.10294 23.1415 8.73002 23.633 8.45541ZM22.244 15.8292C23.1003 15.8292 23.0435 15.8327 23.0733 15.8212C23.2912 16.196 23.5438 16.5495 23.8278 16.8772L23.0065 16.9504C22.7101 16.6072 22.4542 16.231 22.244 15.8292ZM22.1185 15.5792C21.9643 15.2545 21.8337 14.9191 21.7278 14.5757L22.517 14.5447C22.6239 14.9025 22.7656 15.249 22.94 15.5792H22.1185ZM21.663 14.3282C21.5877 14.0265 21.5308 13.7205 21.4928 13.4119L22.2295 13.3552C22.296 13.8202 22.389 14.1274 22.4433 14.2974L21.6628 14.3282H21.663ZM21.4635 12.1007L22.1568 12.1479C22.1498 12.4681 22.1637 12.7885 22.1985 13.1069L21.4668 13.1632C21.436 12.8097 21.4348 12.4543 21.4633 12.1007H21.4635ZM22.374 10.6322L21.7885 10.6047C21.8955 10.3187 22.0335 10.0477 22.198 9.79616L22.6758 9.81016C22.5526 10.0754 22.4518 10.3504 22.3743 10.6324L22.374 10.6322ZM21.7045 10.8512L22.3115 10.8794C22.2355 11.2145 22.1873 11.5552 22.1673 11.8982L21.4893 11.8519C21.5318 11.5102 21.6033 11.1762 21.7045 10.8512ZM23.2213 17.1824C24.0533 17.1082 24.0015 17.1164 24.031 17.1017C24.359 17.4472 24.7381 17.7405 25.155 17.9712C24.6353 18.0562 24.489 18.0792 24.4718 18.0849C24.0223 17.8692 23.6043 17.5709 23.2215 17.1824H23.2213ZM24.9153 18.2639C25.5275 18.1637 25.5148 18.1684 25.5403 18.1584C25.825 18.2792 26.118 18.3659 26.4138 18.4174C25.922 18.4807 25.4128 18.4287 24.9155 18.2639H24.9153ZM27.9913 18.0837C26.6738 18.4809 25.1978 18.0092 24.1393 16.8517C23.172 15.7937 22.6195 14.5117 22.4575 13.1727C22.193 10.9822 22.8885 9.16491 24.3658 8.18716C26.869 6.53066 29.7295 8.75416 30.5303 11.7209C31.3005 14.5742 30.1613 17.4284 27.991 18.0834H27.9913V18.0837Z" fill="#414141"/>
<path d="M26.4209 12.1968C26.1709 12.1123 26.2029 12.1218 26.0201 12.0568C25.7446 11.9588 25.2831 11.7956 25.2969 11.5156C25.3094 11.2643 25.7116 11.1248 25.8841 11.0763C26.6059 10.8743 27.3019 11.0538 27.9684 11.3583C28.4344 11.5713 28.5514 11.6908 28.5671 11.7538C28.6074 11.9143 28.8499 11.8538 28.8096 11.6933C28.7536 11.4693 28.4219 11.2908 28.0721 11.1308C27.6989 10.9606 27.3474 10.8323 26.9244 10.7731C26.9391 10.4036 26.9394 9.44633 26.9394 9.40308C26.9394 9.36992 26.9262 9.33813 26.9028 9.31469C26.8793 9.29125 26.8475 9.27808 26.8144 9.27808C26.7812 9.27808 26.7494 9.29125 26.726 9.31469C26.7025 9.33813 26.6894 9.36992 26.6894 9.40308C26.6894 9.41358 26.6894 10.3736 26.6754 10.7481C26.0739 10.7131 25.0771 10.9101 25.0476 11.5031C25.0209 12.0403 25.7739 12.2413 26.3409 12.4336C27.2709 12.7486 28.8276 13.2756 28.5496 14.3518C28.4091 14.8948 27.3236 14.7608 26.8349 14.6033C26.2441 14.4126 25.6491 14.1058 25.0661 13.6921C25.0391 13.6738 25.0059 13.6668 24.9738 13.6726C24.9417 13.6784 24.9131 13.6966 24.8942 13.7232C24.8753 13.7498 24.8675 13.7828 24.8726 13.8151C24.8777 13.8473 24.8952 13.8763 24.9214 13.8958C25.4906 14.3001 26.0726 14.6058 26.6529 14.8058C26.5646 15.1948 26.5641 16.0926 26.5644 16.1033C26.5739 16.2698 26.8231 16.2541 26.8141 16.0893C26.7989 15.8151 26.8469 15.1248 26.8864 14.8786C27.1324 14.9443 27.4121 14.9826 27.7036 14.9898C28.1869 15.0006 28.6709 14.8821 28.7916 14.4141C29.1279 13.1131 27.3669 12.5166 26.4211 12.1966H26.4209V12.1968Z" fill="white"/>
<path d="M43.7888 11.5324C43.7853 11.4995 43.769 11.4693 43.7433 11.4483C43.7176 11.4274 43.6847 11.4175 43.6518 11.4207C43.2493 11.4617 41.435 11.5902 41.3475 11.5964C41.2608 10.6757 41.2013 9.84142 41.2245 9.68992C41.2823 9.57042 41.1375 9.45492 41.0338 9.53792C40.9333 9.61867 40.9978 10.5919 41.098 11.6144C38.9165 11.7694 38.9153 11.7787 38.894 11.9134C38.8773 12.0217 39.0088 12.1109 39.1023 12.0354C39.3075 11.9964 40.227 11.9272 41.123 11.8634C41.2265 12.8742 41.3543 13.8659 41.3815 14.0292C41.387 14.0619 41.4052 14.0911 41.4322 14.1104C41.4591 14.1297 41.4927 14.1375 41.5254 14.132C41.5581 14.1266 41.5873 14.1084 41.6066 14.0814C41.6259 14.0544 41.6337 14.0209 41.6283 13.9882C41.551 13.5247 41.4525 12.6719 41.3718 11.8457C41.4615 11.8394 43.2713 11.7112 43.6775 11.6699C43.6939 11.6683 43.7097 11.6634 43.7242 11.6556C43.7386 11.6478 43.7514 11.6373 43.7618 11.6246C43.7722 11.6118 43.7799 11.5972 43.7847 11.5815C43.7894 11.5658 43.7909 11.5493 43.7893 11.5329L43.7888 11.5324Z" fill="black"/>
<path d="M48.7945 16.6222L46.8485 15.8917C47.0508 15.0752 47.2853 14.1399 47.3683 13.9962C47.4735 13.9062 47.3748 13.7357 47.2433 13.7842C47.1268 13.8279 47.061 13.9992 46.613 15.8029C45.8065 15.4989 45.0723 15.2199 44.9645 15.1717C44.8978 15.1267 44.787 15.1689 44.7718 15.2537C44.75 15.3732 44.7468 15.3657 46.5525 16.0474C46.366 16.8009 46.175 17.5704 46.0435 17.9867C46.0336 18.0183 46.0366 18.0526 46.0519 18.082C46.0672 18.1114 46.0936 18.1335 46.1253 18.1434C46.1569 18.1533 46.1912 18.1503 46.2206 18.135C46.25 18.1197 46.2721 18.0933 46.282 18.0617C46.4143 17.6434 46.6033 16.8839 46.7883 16.1359C48.8385 16.9054 48.717 16.8642 48.751 16.8642C48.8895 16.8642 48.9245 16.6709 48.7948 16.6222H48.7945Z" fill="black"/>
<path d="M33.6689 24.3429C34.2169 24.7429 34.0924 25.3419 34.0437 25.8244C33.9644 26.6089 33.9939 27.3954 33.9367 28.1627C33.8364 29.5019 33.8992 31.7664 32.9907 32.7319C32.4542 33.3022 31.2237 33.4102 30.3492 33.5352C28.7181 33.767 27.0814 33.9574 25.4407 34.1064C24.6022 34.1832 23.6557 34.3567 22.7992 34.2672C21.7817 34.1607 21.7104 33.6424 21.7104 33.0357C21.7104 32.5894 21.4594 27.9664 21.6389 26.5567C21.7277 25.8604 21.5474 24.9474 22.1209 24.5042C22.7254 24.0367 24.9232 24.0222 25.6729 24.0222C26.6527 24.0222 28.6224 23.8802 31.2239 23.8972C32.0449 23.9027 33.0204 23.8697 33.6692 24.3434L33.6689 24.3429Z" fill="#016DAB"/>
<path d="M26.4043 28.4304C26.4043 30.4004 28.132 31.4319 29.6598 31.1459C31.3398 30.8314 32.1415 29.0501 31.8448 27.6404C31.216 24.6536 26.4043 24.5779 26.4043 28.4304ZM29.617 30.0011C27.8703 30.1646 27.0265 27.7304 28.7068 26.6456C29.6145 26.0594 30.96 26.7941 31.177 27.8801C31.3703 28.8476 30.681 29.9019 29.6173 30.0014L29.617 30.0011Z" fill="black"/>
<path d="M28.6691 26.743C28.4434 26.6875 28.0021 26.353 27.7469 25.9845C27.728 25.9572 27.7207 25.9236 27.7266 25.891C27.7325 25.8583 27.7511 25.8294 27.7784 25.8105C27.8056 25.7916 27.8393 25.7843 27.8719 25.7902C27.9046 25.7961 27.9335 25.8147 27.9524 25.842C28.2226 26.2325 28.6304 26.4747 28.7221 26.5022C28.9231 26.5115 28.8574 26.82 28.6691 26.7427V26.743Z" fill="#87E4FF"/>
<path d="M27.7821 27.5214C27.6791 27.4584 26.9436 27.1144 26.8641 27.0849C26.7116 27.0287 26.7886 26.8004 26.9409 26.8469C26.9514 26.8502 27.9931 27.2547 27.9931 27.4304C27.9932 27.4548 27.986 27.4788 27.9726 27.4992C27.9591 27.5196 27.94 27.5356 27.9175 27.5453C27.8951 27.5549 27.8703 27.5578 27.8462 27.5535C27.8222 27.5492 27.7999 27.538 27.7821 27.5212V27.5214Z" fill="#87E4FF"/>
<path d="M27.7612 28.7157C27.3602 28.7157 26.884 28.5972 26.498 28.5542C26.465 28.5505 26.4349 28.5339 26.4142 28.5081C26.3935 28.4822 26.3839 28.4492 26.3875 28.4162C26.3913 28.3834 26.4079 28.3533 26.4338 28.3326C26.4596 28.312 26.4925 28.3023 26.5255 28.3057C26.9077 28.348 27.3907 28.4657 27.761 28.4657C27.7941 28.4657 27.8259 28.4789 27.8493 28.5023C27.8728 28.5258 27.886 28.5576 27.886 28.5907C27.886 28.6239 27.8728 28.6557 27.8493 28.6791C27.8259 28.7026 27.7941 28.7157 27.761 28.7157H27.7612Z" fill="#87E4FF"/>
<path d="M31.0983 30.4291C31.0694 30.429 31.0414 30.419 31.0191 30.4007C30.9967 30.3824 30.9814 30.3569 30.9758 30.3286C30.9048 29.9731 30.8323 29.5951 30.7955 29.2278C30.7923 29.1948 30.8022 29.1619 30.8232 29.1362C30.8442 29.1106 30.8745 29.0943 30.9075 29.0911C30.9765 29.0861 31.0375 29.1343 31.0443 29.2031C31.0798 29.5593 31.151 29.9303 31.221 30.2798C31.2247 30.298 31.2242 30.3167 31.2197 30.3346C31.2152 30.3526 31.2068 30.3693 31.1951 30.3836C31.1833 30.3979 31.1685 30.4094 31.1518 30.4173C31.1351 30.4252 31.1168 30.4293 31.0983 30.4293V30.4291Z" fill="#87E4FF"/>
<path d="M31.6094 29.1602C31.5134 28.949 31.3016 28.5425 31.1171 28.358C31.0943 28.3344 31.0818 28.3028 31.082 28.27C31.0823 28.2373 31.0955 28.2059 31.1186 28.1827C31.1418 28.1596 31.1732 28.1464 31.2059 28.1461C31.2387 28.1458 31.2703 28.1584 31.2939 28.1812C31.5469 28.4342 31.7906 28.955 31.8369 29.0567C31.9056 29.2077 31.6774 29.31 31.6094 29.1602Z" fill="#87E4FF"/>
<path d="M31.6515 27.2163H30.8125C30.7793 27.2163 30.7476 27.2031 30.7241 27.1797C30.7007 27.1563 30.6875 27.1245 30.6875 27.0913C30.6875 27.0582 30.7007 27.0264 30.7241 27.0029C30.7476 26.9795 30.7793 26.9663 30.8125 26.9663H31.6515C31.6847 26.9663 31.7164 26.9795 31.7399 27.0029C31.7633 27.0264 31.7765 27.0582 31.7765 27.0913C31.7765 27.1245 31.7633 27.1563 31.7399 27.1797C31.7164 27.2031 31.6847 27.2163 31.6515 27.2163Z" fill="#87E4FF"/>
<path d="M29.5539 26.3185C29.7614 26.052 29.8141 25.8408 29.8526 25.6868C29.8563 25.6705 29.8632 25.6552 29.8728 25.6416C29.8825 25.6281 29.8948 25.6166 29.909 25.6078C29.9232 25.5991 29.9389 25.5933 29.9554 25.5907C29.9719 25.5882 29.9887 25.5889 30.0048 25.593C30.021 25.597 30.0362 25.6042 30.0495 25.6142C30.0629 25.6242 30.0741 25.6367 30.0825 25.6511C30.0909 25.6655 30.0963 25.6814 30.0985 25.6979C30.1007 25.7144 30.0995 25.7312 30.0951 25.7473C30.0536 25.913 29.9911 26.1638 29.7514 26.472C29.6509 26.6008 29.4514 26.4505 29.5539 26.3185Z" fill="#87E4FF"/>
<path d="M28.6276 31.0818C29.4411 30.4208 29.4916 30.03 29.4921 30.0263C29.5096 29.8643 29.7506 29.8843 29.7416 30.0438C29.7388 30.0925 29.6881 30.5425 28.7853 31.276C28.6568 31.3803 28.4993 31.1863 28.6278 31.082L28.6276 31.0818Z" fill="#87E4FF"/>
<path d="M27.0284 30.2867C26.8714 30.2867 26.8594 30.0539 27.0154 30.0374C27.5964 29.9762 28.2476 29.6887 28.3474 29.6009C28.4181 29.4744 28.6129 29.5514 28.5779 29.6922C28.5141 29.9474 27.3109 30.2867 27.0284 30.2867Z" fill="#87E4FF"/>
<path d="M43.5737 31.3931H36.9162C35.5877 31.3931 35.4684 33.4256 36.9339 33.5171C43.6162 33.5171 43.5344 33.5301 43.6272 33.4993C44.9414 33.2971 44.7752 31.4791 43.5737 31.3931Z" fill="#FDAF31"/>
<path d="M43.5827 31.2683H36.9162C35.3755 31.2681 35.3307 33.6421 36.934 33.6421H43.4845C45.009 33.6421 45.0492 31.3731 43.5827 31.2683ZM38.435 31.5181H39.506L39.5382 33.3921L38.469 33.3908L38.435 31.5181ZM38.219 33.3921H37.2175L37.1852 31.5181H38.1852L38.2192 33.3921H38.219ZM39.756 31.5181H40.8272L40.8785 33.3776C40.8792 33.4026 40.9687 33.3921 39.7882 33.3921L39.756 31.5181ZM41.0775 31.5181H42.2187L42.251 33.3921C40.9995 33.3921 41.1292 33.4013 41.1282 33.3708L41.0772 31.5181H41.0775ZM42.4687 31.5181H43.4505L43.4845 33.3921H42.501L42.4687 31.5181ZM35.9952 32.4608C35.9952 31.9541 36.323 31.5181 36.935 31.5181L36.9672 33.3921C36.3352 33.3921 35.995 32.9911 35.995 32.4608H35.9952ZM43.734 33.3643L43.7007 31.5361C44.6362 31.7253 44.64 33.1513 43.734 33.3643Z" fill="#414141"/>
<path d="M43.2182 33.5688H36.5607C35.2322 33.5688 35.113 35.6013 36.5785 35.6928C43.2607 35.6928 43.179 35.7058 43.2717 35.6751C44.586 35.4728 44.4197 33.6548 43.2182 33.5688Z" fill="#FDAF31"/>
<path d="M43.2273 33.4445H36.5608C35.02 33.4442 34.9753 35.8182 36.5785 35.8182H43.129C44.6535 35.8182 44.6938 33.5492 43.2273 33.4445ZM38.0795 33.6942H39.1505L39.1828 35.5682L38.1135 35.567L38.0795 33.6942ZM37.8635 35.5682H36.862L36.8298 33.6942H37.8298L37.8638 35.5682H37.8635ZM39.4005 33.6942H40.4718L40.523 35.5537C40.5238 35.5787 40.6133 35.5682 39.4328 35.5682L39.4005 33.6942ZM40.722 33.6942H41.8633L41.8955 35.5682C40.644 35.5682 40.7738 35.5775 40.7728 35.547L40.7218 33.6942H40.722ZM42.1133 33.6942H43.095L43.129 35.5682H42.1455L42.1133 33.6942ZM35.6398 34.637C35.6398 34.1302 35.9675 33.6942 36.5795 33.6942L36.6118 35.5682C35.9798 35.5682 35.6395 35.1672 35.6395 34.637H35.6398ZM43.3785 35.5405L43.3453 33.7122C44.2808 33.9015 44.2845 35.3275 43.3785 35.5405Z" fill="#414141"/>
<path d="M44.2748 35.7649H37.6173C36.2888 35.7649 36.1696 37.7974 37.6351 37.8889C44.3173 37.8889 44.2356 37.9019 44.3283 37.8711C45.6426 37.6689 45.4763 35.8509 44.2748 35.7649Z" fill="#FDAF31"/>
<path d="M44.2839 35.6401H37.6174C36.0767 35.6399 36.0319 38.0139 37.6352 38.0139H44.1857C45.7102 38.0139 45.7504 35.7449 44.2839 35.6401ZM39.1362 35.8899H40.2072L40.2394 37.7639L39.1702 37.7626L39.1362 35.8899ZM38.9202 37.7639H37.9187L37.8864 35.8899H38.8864L38.9204 37.7639H38.9202ZM40.4572 35.8899H41.5284L41.5797 37.7494C41.5804 37.7744 41.6699 37.7639 40.4894 37.7639L40.4572 35.8899ZM41.7787 35.8899H42.9199L42.9522 37.7639C41.7007 37.7639 41.8304 37.7731 41.8294 37.7426L41.7784 35.8899H41.7787ZM43.1699 35.8899H44.1517L44.1857 37.7639H43.2022L43.1699 35.8899ZM36.6964 36.8326C36.6964 36.3259 37.0242 35.8899 37.6362 35.8899L37.6684 37.7639C37.0364 37.7639 36.6962 37.3629 36.6962 36.8326H36.6964ZM44.4352 37.7361L44.4019 35.9079C45.3374 36.0971 45.3412 37.5231 44.4352 37.7361Z" fill="#414141"/>
<path d="M44.8784 38.0945H38.2209C36.8924 38.0945 36.7731 40.127 38.2386 40.2185C44.9209 40.2185 44.8391 40.2315 44.9319 40.2007C46.2461 39.9985 46.0799 38.1805 44.8784 38.0945Z" fill="#FDAF31"/>
<path d="M44.8874 37.9701H38.2209C36.6802 37.9698 36.6354 40.3438 38.2387 40.3438H44.7892C46.3137 40.3438 46.3539 38.0748 44.8874 37.9701ZM39.7397 38.2198H40.8107L40.8429 40.0938L39.7737 40.0926L39.7397 38.2198ZM39.5237 40.0938H38.5222L38.4899 38.2198H39.4899L39.5239 40.0938H39.5237ZM41.0607 38.2198H42.1319L42.1832 40.0793C42.1839 40.1043 42.2734 40.0938 41.0929 40.0938L41.0607 38.2198ZM42.3822 38.2198H43.5234L43.5557 40.0938C42.3042 40.0938 42.4339 40.1031 42.4329 40.0726L42.3819 38.2198H42.3822ZM43.7734 38.2198H44.7552L44.7892 40.0938H43.8057L43.7734 38.2198ZM37.2999 39.1626C37.2999 38.6558 37.6277 38.2198 38.2397 38.2198L38.2719 40.0938C37.6399 40.0938 37.2997 39.6928 37.2997 39.1626H37.2999ZM45.0387 40.0661L45.0054 38.2378C45.9409 38.4271 45.9447 39.8531 45.0387 40.0661Z" fill="#414141"/>
<path d="M43.9233 40.3577H37.2658C35.9373 40.3577 35.818 42.3902 37.2835 42.4817C43.9658 42.4817 43.884 42.4947 43.9768 42.4639C45.291 42.2617 45.1248 40.4437 43.9233 40.3577Z" fill="#FDAF31"/>
<path d="M43.9324 40.2332H37.2659C35.7251 40.2329 35.6803 42.6069 37.2836 42.6069H43.8341C45.3586 42.6069 45.3989 40.3379 43.9324 40.2332ZM38.7846 40.4829H39.8556L39.8878 42.3569L38.8186 42.3557L38.7846 40.4829ZM38.5686 42.3569H37.5671L37.5348 40.4829H38.5348L38.5688 42.3569H38.5686ZM40.1056 40.4829H41.1768L41.2281 42.3424C41.2289 42.3674 41.3183 42.3569 40.1378 42.3569L40.1056 40.4829ZM41.4271 40.4829H42.5683L42.6006 42.3569C41.3491 42.3569 41.4788 42.3662 41.4778 42.3357L41.4268 40.4829H41.4271ZM42.8183 40.4829H43.8001L43.8341 42.3569H42.8506L42.8183 40.4829ZM36.3448 41.4257C36.3448 40.9189 36.6726 40.4829 37.2846 40.4829L37.3168 42.3569C36.6848 42.3569 36.3446 41.9559 36.3446 41.4257H36.3448ZM44.0836 42.3292L44.0504 40.5009C44.9859 40.6902 44.9896 42.1162 44.0836 42.3292Z" fill="#414141"/>
</svg>
