<svg width="67" height="68" viewBox="0 0 67 68" fill="none" xmlns="http://www.w3.org/2000/svg">
<path d="M65.9697 61.3107C64.9085 60.6034 61.3763 62.3257 60.2497 62.9235C59.8195 63.2903 57.7297 63.4769 56.6286 63.0789L56.5757 63.2371C57.1035 64.2136 57.8424 65.5065 58.4227 66.4302C59.0289 67.4403 58.6838 67.5386 60.9297 66.5621C62.4603 65.9024 64.0447 65.1107 65.2046 63.8969C65.6547 63.4482 66.8405 61.8914 65.9697 61.3107Z" fill="white"/>
<path d="M43.229 43.5298C43.6427 42.2607 44.139 40.2048 44.2198 39.8254L42.5899 37.7999C40.8514 35.3335 36.1009 31.3743 33.2225 32.3375C31.5075 32.7333 30.5572 33.4988 30.2933 36.3747C30.1614 37.7999 32.5361 47.9328 32.5627 48.0119C33.374 50.3114 34.4429 50.2337 36.6791 50.0174C38.8694 49.8074 40.7429 49.4367 42.6956 48.4074L42.7218 48.3545C43.656 48.6657 47.5074 49.8686 47.8668 48.9086C48.1625 48.1691 48.4093 47.411 48.6057 46.6392C49.25 44.9242 47.8696 46.0526 43.229 43.5298Z" fill="white"/>
<path d="M25.8576 53.7643C25.4222 53.4742 22.9554 53.022 22.7965 53.078C22.6103 53.1441 19.8516 61.0891 20.6591 62.0765C21.4858 63.0533 24.5948 58.0112 25.2164 56.9136C25.2542 55.8356 25.4709 54.7713 25.8576 53.7643Z" fill="white"/>
<path d="M63.3902 39.5336C63.591 38.9963 63.7777 38.4538 63.9502 37.9068C64.0463 37.589 64.0156 37.2464 63.8646 36.9508C63.7136 36.6551 63.4541 36.4294 63.1403 36.321C59.6438 35.1957 48.8081 31.6751 45.3123 30.546C44.9947 30.4448 44.65 30.4731 44.3531 30.6247C44.0563 30.7763 43.8312 31.0389 43.7268 31.3555C43.5658 31.8609 43.3632 32.4633 43.2018 32.9687C43.1003 33.2863 43.1284 33.6312 43.2801 33.9283C43.4317 34.2253 43.6946 34.4504 44.0114 34.5545C44.0537 34.5682 61.3843 40.1895 61.8047 40.3425C62.1222 40.4437 62.4669 40.4155 62.7638 40.2641C63.0607 40.1126 63.2858 39.8501 63.3902 39.5336Z" fill="#FFB949"/>
<path d="M59.9992 39.75L61.3642 35.8559C61.3796 35.8121 61.4117 35.7762 61.4536 35.7561C61.4954 35.7359 61.5435 35.7333 61.5874 35.7486C61.6312 35.764 61.6671 35.7961 61.6872 35.838C61.7073 35.8798 61.71 35.9279 61.6946 35.9718L60.3296 39.8659C60.322 39.8875 60.3102 39.9075 60.2949 39.9247C60.2796 39.9418 60.261 39.9557 60.2403 39.9657C60.2196 39.9757 60.1971 39.9814 60.1741 39.9827C60.1512 39.984 60.1282 39.9807 60.1065 39.9731C60.0848 39.9655 60.0648 39.9537 60.0477 39.9384C60.0306 39.9231 60.0166 39.9045 60.0067 39.8838C59.9967 39.8631 59.9909 39.8406 59.9896 39.8176C59.9884 39.7947 59.9916 39.7717 59.9992 39.75Z" fill="#535353"/>
<path d="M57.1666 38.5858L58.4486 34.8856C58.4639 34.8419 58.4959 34.806 58.5376 34.7857C58.5793 34.7655 58.6273 34.7625 58.6712 34.7775C58.6931 34.7848 58.7132 34.7964 58.7306 34.8116C58.7479 34.8268 58.762 34.8453 58.7721 34.866C58.7822 34.8868 58.7881 34.9093 58.7894 34.9323C58.7907 34.9553 58.7874 34.9784 58.7797 35.0001L57.4973 38.7006C57.4818 38.7444 57.4497 38.7802 57.408 38.8005C57.3663 38.8207 57.3183 38.8237 57.2744 38.8088C57.2306 38.7934 57.1947 38.7613 57.1745 38.7195C57.1543 38.6778 57.1515 38.6297 57.1666 38.5858Z" fill="#535353"/>
<path d="M54.0361 37.7208L55.4011 33.8267C55.4167 33.7831 55.4488 33.7473 55.4906 33.7273C55.5323 33.7072 55.5803 33.7045 55.6241 33.7196C55.6458 33.7272 55.6658 33.739 55.6829 33.7543C55.7001 33.7696 55.714 33.7881 55.724 33.8088C55.734 33.8295 55.7398 33.852 55.7411 33.8749C55.7424 33.8979 55.7391 33.9209 55.7315 33.9426L54.3665 37.8367C54.3591 37.8585 54.3474 37.8786 54.332 37.8958C54.3167 37.9131 54.2981 37.9271 54.2774 37.937C54.2566 37.947 54.234 37.9527 54.211 37.9539C54.1879 37.955 54.1649 37.9516 54.1432 37.9438C54.1214 37.9364 54.1013 37.9247 54.0842 37.9094C54.0671 37.894 54.0532 37.8754 54.0435 37.8545C54.0334 37.8338 54.0276 37.8114 54.0263 37.7884C54.0251 37.7654 54.0284 37.7425 54.0361 37.7208Z" fill="#535353"/>
<path d="M51.0016 36.5526L52.3078 32.8625C52.3154 32.8408 52.3272 32.8208 52.3425 32.8037C52.3579 32.7865 52.3765 32.7726 52.3972 32.7627C52.418 32.7527 52.4405 32.747 52.4635 32.7458C52.4865 32.7447 52.5094 32.748 52.5311 32.7558C52.5528 32.7634 52.5728 32.7753 52.5899 32.7907C52.607 32.8061 52.621 32.8247 52.6309 32.8455C52.6408 32.8662 52.6465 32.8888 52.6477 32.9118C52.6489 32.9347 52.6456 32.9577 52.6379 32.9794L51.3313 36.6705C51.3155 36.7142 51.2831 36.7498 51.2411 36.7696C51.1991 36.7894 51.151 36.7918 51.1073 36.7762C51.0856 36.7686 51.0656 36.7567 51.0485 36.7413C51.0315 36.7259 51.0176 36.7073 51.0078 36.6865C50.9979 36.6657 50.9923 36.6431 50.9913 36.6202C50.9902 36.5972 50.9937 36.5742 51.0016 36.5526Z" fill="#535353"/>
<path d="M47.7065 35.7345L49.0715 31.8404C49.0791 31.8187 49.0909 31.7987 49.1063 31.7816C49.1216 31.7644 49.1402 31.7505 49.1609 31.7405C49.1816 31.7305 49.2041 31.7247 49.2271 31.7234C49.2501 31.7221 49.2731 31.7254 49.2948 31.733C49.3165 31.7406 49.3365 31.7524 49.3537 31.7678C49.3708 31.7831 49.3848 31.8017 49.3948 31.8224C49.4047 31.8431 49.4105 31.8656 49.4118 31.8886C49.4131 31.9116 49.4098 31.9346 49.4022 31.9563L48.0372 35.8504C48.0218 35.8942 47.9897 35.9302 47.948 35.9505C47.906 35.9704 47.8579 35.973 47.8141 35.9577C47.7703 35.9423 47.7342 35.9103 47.7138 35.8686C47.6938 35.8266 47.6912 35.7785 47.7065 35.7345Z" fill="#535353"/>
<path d="M44.913 34.6152L46.1954 30.915C46.2029 30.8933 46.2147 30.8733 46.2299 30.8561C46.2452 30.8389 46.2637 30.8249 46.2844 30.8149C46.3051 30.8049 46.3276 30.799 46.3505 30.7977C46.3734 30.7963 46.3964 30.7995 46.4182 30.807C46.4399 30.8146 46.4599 30.8263 46.4771 30.8416C46.4943 30.8569 46.5083 30.8754 46.5183 30.8961C46.5283 30.9168 46.5342 30.9392 46.5355 30.9622C46.5369 30.9851 46.5337 31.0081 46.5261 31.0298L45.2427 34.73C45.2252 34.7707 45.1929 34.8032 45.1524 34.821C45.1119 34.8389 45.0662 34.8407 45.0244 34.8261C44.9826 34.8116 44.9478 34.7817 44.9272 34.7426C44.9065 34.7035 44.9014 34.6579 44.913 34.6152Z" fill="#535353"/>
<path d="M62.5636 44.4092C62.7645 43.872 62.9513 43.3295 63.1236 42.7824C63.2199 42.4647 63.1894 42.1221 63.0385 41.8264C62.8875 41.5307 62.6279 41.305 62.3141 41.1966C58.8172 40.0713 47.9816 36.5507 44.4861 35.4216C44.1685 35.3203 43.8237 35.3486 43.5268 35.5003C43.2297 35.6518 43.0045 35.9144 42.9003 36.2311C42.7393 36.7365 42.5366 37.3389 42.3753 37.8443C42.2742 38.162 42.3025 38.5068 42.4542 38.8037C42.6058 39.1007 42.8685 39.3258 43.1852 39.4301C43.2272 39.4438 60.5578 45.0651 60.9781 45.2181C61.2957 45.3193 61.6403 45.2912 61.9372 45.1397C62.2341 44.9883 62.4592 44.7257 62.5636 44.4092Z" fill="#FFB949"/>
<path d="M58.7656 44.4671C55.2691 43.3418 44.4331 39.8212 40.9376 38.6921C40.62 38.5908 40.2751 38.6191 39.9783 38.7708C39.6812 38.9223 39.456 39.1849 39.3518 39.5016C39.2727 39.7508 39.1831 40.0235 39.0938 40.2961C43.3288 45.0939 49.4482 45.5556 57.4307 48.4889C57.7483 48.59 58.093 48.5616 58.3899 48.4099C58.6868 48.2583 58.9118 47.9956 59.0162 47.679C59.2168 47.1416 59.4035 46.599 59.5762 46.0519C59.6719 45.7342 59.641 45.3917 59.4899 45.0963C59.3388 44.8009 59.0792 44.5754 58.7656 44.4671Z" fill="#FFB949"/>
<path d="M55.6233 47.897L56.9883 44.0029C57.0036 43.9591 57.0358 43.9231 57.0776 43.903C57.1194 43.8829 57.1676 43.8802 57.2114 43.8956C57.2552 43.911 57.2911 43.9431 57.3112 43.9849C57.3314 44.0268 57.334 44.0749 57.3187 44.1187L55.9537 48.0128C55.9461 48.0345 55.9342 48.0545 55.9189 48.0716C55.9036 48.0888 55.885 48.1027 55.8643 48.1127C55.8436 48.1226 55.8211 48.1284 55.7982 48.1297C55.7752 48.131 55.7522 48.1277 55.7305 48.1201C55.7088 48.1125 55.6889 48.1007 55.6717 48.0854C55.6546 48.07 55.6406 48.0515 55.6307 48.0308C55.6207 48.01 55.6149 47.9876 55.6137 47.9646C55.6124 47.9417 55.6157 47.9187 55.6233 47.897Z" fill="#535353"/>
<path d="M52.7942 46.7325L54.0763 43.0323C54.0878 42.9998 54.1087 42.9714 54.1364 42.9507C54.164 42.93 54.1971 42.9178 54.2315 42.9158C54.266 42.9138 54.3003 42.922 54.3301 42.9393C54.36 42.9567 54.384 42.9825 54.3993 43.0134C54.4094 43.0341 54.4153 43.0565 54.4167 43.0794C54.4181 43.1024 54.4149 43.1254 54.4074 43.1471L53.1253 46.8473C53.1101 46.8912 53.0781 46.9273 53.0362 46.9476C52.9944 46.9678 52.9463 46.9707 52.9024 46.9555C52.8585 46.9402 52.8224 46.9082 52.8021 46.8664C52.7818 46.8246 52.779 46.7764 52.7942 46.7325Z" fill="#535353"/>
<path d="M49.6599 45.867L51.0249 41.9729C51.0323 41.9511 51.0441 41.931 51.0594 41.9138C51.0747 41.8965 51.0933 41.8825 51.1141 41.8725C51.1349 41.8626 51.1574 41.8568 51.1805 41.8557C51.2035 41.8545 51.2265 41.858 51.2482 41.8658C51.27 41.8732 51.2901 41.8848 51.3072 41.9002C51.3244 41.9155 51.3382 41.9342 51.3479 41.9551C51.358 41.9757 51.3638 41.9982 51.3651 42.0212C51.3664 42.0441 51.363 42.0671 51.3553 42.0888L49.9903 45.9829C49.9749 46.0267 49.9428 46.0626 49.9009 46.0827C49.8591 46.1028 49.811 46.1055 49.7672 46.0901C49.7233 46.0748 49.6874 46.0426 49.6673 46.0008C49.6472 45.9589 49.6445 45.9108 49.6599 45.867Z" fill="#535353"/>
<path d="M46.6286 44.7008L47.9352 41.0108C47.9427 40.989 47.9545 40.969 47.9699 40.9519C47.9852 40.9348 48.0038 40.9209 48.0246 40.911C48.0454 40.9011 48.0679 40.8954 48.0909 40.8943C48.1138 40.8931 48.1368 40.8966 48.1585 40.9044C48.1802 40.9119 48.2003 40.9236 48.2175 40.9389C48.2347 40.9543 48.2487 40.9729 48.2586 40.9936C48.2685 41.0144 48.2742 41.037 48.2754 41.06C48.2765 41.083 48.273 41.106 48.2652 41.1277L46.9586 44.8177C46.943 44.8615 46.9108 44.8972 46.8689 44.9172C46.8269 44.9372 46.7788 44.9398 46.735 44.9245C46.6913 44.9088 46.6556 44.8765 46.6357 44.8346C46.6158 44.7927 46.6132 44.7446 46.6286 44.7008Z" fill="#535353"/>
<path d="M43.7341 43.7946L45.0291 40.1028C45.037 40.0811 45.0406 40.0581 45.0395 40.0351C45.0383 40.012 45.0326 39.9895 45.0226 39.9687C45.0127 39.9479 44.9986 39.9293 44.9813 39.9141C44.964 39.8988 44.9439 39.8872 44.922 39.8798C44.9003 39.872 44.8773 39.8686 44.8542 39.8699C44.8312 39.8711 44.8087 39.877 44.788 39.8872C44.7672 39.8971 44.7487 39.911 44.7333 39.9281C44.718 39.9452 44.7063 39.9652 44.6987 39.9869L43.4202 43.6322C43.5234 43.6868 43.6281 43.741 43.7341 43.7946Z" fill="#535353"/>
<path d="M41.1142 42.1717L42.1523 39.1761C42.1651 39.1328 42.1607 39.0863 42.14 39.0462C42.1193 39.0061 42.084 38.9755 42.0414 38.9608C41.9988 38.9461 41.9521 38.9483 41.9111 38.9671C41.8701 38.9859 41.8379 39.0197 41.8212 39.0616L40.8223 41.9439C40.9182 42.0205 41.0152 42.0965 41.1142 42.1717Z" fill="#535353"/>
<path d="M59.1773 44.6265L60.5423 40.7324C60.5577 40.6886 60.5898 40.6526 60.6317 40.6325C60.6735 40.6124 60.7217 40.6097 60.7655 40.6251C60.8093 40.6405 60.8452 40.6726 60.8653 40.7144C60.8854 40.7563 60.8881 40.8044 60.8727 40.8482L59.5077 44.7423C59.4924 44.7861 59.4602 44.8221 59.4184 44.8422C59.3766 44.8623 59.3284 44.865 59.2846 44.8496C59.2408 44.8342 59.2049 44.8021 59.1848 44.7603C59.1647 44.7184 59.162 44.6703 59.1773 44.6265Z" fill="#535353"/>
<path d="M56.3448 43.4619L57.6268 39.7617C57.6421 39.7179 57.6742 39.6819 57.716 39.6617C57.7577 39.6414 57.8058 39.6385 57.8498 39.6536C57.8716 39.661 57.8917 39.6726 57.9089 39.6879C57.9262 39.7031 57.9403 39.7216 57.9503 39.7423C57.9604 39.763 57.9662 39.7855 57.9675 39.8085C57.9688 39.8315 57.9656 39.8545 57.9579 39.8762L56.6759 43.5767C56.6606 43.6206 56.6286 43.6567 56.5868 43.677C56.545 43.6973 56.4968 43.7001 56.4529 43.6849C56.409 43.6697 56.3729 43.6376 56.3527 43.5958C56.3324 43.554 56.3295 43.5058 56.3448 43.4619Z" fill="#535353"/>
<path d="M53.214 42.5972L54.579 38.7031C54.5944 38.6593 54.6265 38.6233 54.6684 38.6032C54.7102 38.5831 54.7583 38.5804 54.8022 38.5958C54.846 38.6112 54.8819 38.6433 54.902 38.6851C54.9221 38.727 54.9248 38.7751 54.9094 38.8189L53.5444 42.713C53.5291 42.7568 53.4969 42.7928 53.4551 42.8129C53.4132 42.833 53.3651 42.8357 53.3213 42.8203C53.2775 42.8049 53.2416 42.7728 53.2215 42.731C53.2013 42.6891 53.1987 42.641 53.214 42.5972Z" fill="#535353"/>
<path d="M50.1825 41.4303L51.4887 37.7403C51.4963 37.7185 51.5081 37.6985 51.5235 37.6814C51.5388 37.6643 51.5574 37.6503 51.5782 37.6405C51.5989 37.6306 51.6215 37.6249 51.6444 37.6237C51.6674 37.6226 51.6904 37.6261 51.712 37.6339C51.7338 37.6414 51.7539 37.6531 51.7711 37.6684C51.7883 37.6838 51.8023 37.7024 51.8122 37.7231C51.8221 37.7439 51.8278 37.7665 51.829 37.7895C51.8301 37.8125 51.8266 37.8355 51.8188 37.8572L50.5126 41.5469C50.497 41.5905 50.4647 41.6262 50.4229 41.6462C50.3811 41.6662 50.3331 41.6689 50.2893 41.6536C50.2456 41.638 50.2099 41.6058 50.1899 41.5639C50.1699 41.5221 50.1673 41.4741 50.1825 41.4303Z" fill="#535353"/>
<path d="M46.8847 40.6113L48.2497 36.7172C48.265 36.6734 48.2972 36.6375 48.339 36.6174C48.3809 36.5973 48.429 36.5946 48.4728 36.61C48.5166 36.6253 48.5525 36.6575 48.5726 36.6993C48.5928 36.7411 48.5954 36.7893 48.5801 36.8331L47.2151 40.7272C47.2075 40.7489 47.1957 40.7689 47.1803 40.786C47.165 40.8031 47.1464 40.8171 47.1257 40.827C47.105 40.837 47.0825 40.8428 47.0596 40.8441C47.0366 40.8453 47.0136 40.8421 46.9919 40.8345C46.9703 40.8269 46.9503 40.815 46.9331 40.7997C46.916 40.7844 46.9021 40.7658 46.8921 40.7451C46.8821 40.7244 46.8764 40.7019 46.8751 40.679C46.8738 40.656 46.8771 40.633 46.8847 40.6113Z" fill="#535353"/>
<path d="M44.0912 39.4913L45.3732 35.7911C45.3848 35.7586 45.4057 35.7302 45.4333 35.7095C45.4609 35.6888 45.494 35.6766 45.5285 35.6746C45.5629 35.6726 45.5972 35.6808 45.6271 35.6981C45.6569 35.7155 45.681 35.7412 45.6963 35.7722C45.7064 35.7928 45.7123 35.8153 45.7137 35.8382C45.7151 35.8612 45.7119 35.8842 45.7043 35.9059L44.4219 39.6061C44.4067 39.65 44.3747 39.686 44.3329 39.7062C44.2911 39.7265 44.243 39.7293 44.1991 39.7141C44.1553 39.6988 44.1193 39.6668 44.099 39.625C44.0788 39.5833 44.0759 39.5352 44.0912 39.4913Z" fill="#535353"/>
<path d="M60.1355 59.438C59.2472 55.588 56.1235 50.6432 51.9553 48.9359C50.7958 49.2117 48.1459 49.0234 47.8124 48.8564C47.3651 50.0492 42.7419 48.1522 42.6404 48.3552C40.6878 49.3842 38.8142 49.7552 36.6239 49.9652C35.4339 50.08 33.8862 50.331 33.1673 49.2526C33.0399 49.3804 34.133 53.251 34.7504 54.2926C35.1987 55.0581 35.8787 55.6612 36.6922 56.015C36.6348 63.3685 27.6559 53.6329 25.8842 53.6329C25.6826 53.6329 25.0869 56.0185 25.1716 57.0104C25.1716 58.3428 33.3325 64.1724 35.7003 65.1381C36.9953 65.6655 38.5503 65.9823 39.8961 65.5336C42.3986 64.7436 44.361 58.7292 44.368 54.8236C46.1985 53.9111 48.3079 53.7309 50.2666 54.3196C51.9025 54.8474 52.9581 56.2988 55.0689 60.6C55.9191 62.2597 55.6538 62.665 56.6261 63.0542C57.576 63.3968 59.0008 63.3177 59.8461 63.1333C61.1992 62.9383 60.3032 60.1919 60.1355 59.438Z" fill="#98D1FF"/>
<path d="M54.7273 45.6104C54.2791 45.5691 53.8277 45.578 53.3815 45.637C51.9213 45.7826 51.1296 46.0329 50.7957 45.8215C50.4524 45.6045 52.034 44.965 51.6665 44.6343C51.4565 44.4495 51.0068 44.5814 50.7957 44.6605C50.0192 44.9011 49.3128 45.3268 48.7374 45.9009C48.6551 45.9009 48.7811 46.0479 48.5792 46.5869C47.945 48.7604 47.9922 48.4769 47.8403 48.856C48.1823 49.0271 50.7915 49.1906 51.9829 48.9354C52.0624 48.9354 53.1306 48.5812 53.1526 48.1787C53.1571 48.1499 53.1512 48.1203 53.1359 48.0954C53.1207 48.0705 53.0971 48.0518 53.0693 48.0426C53.5005 47.785 54.0266 47.4451 53.7774 47.009C54.6496 46.5715 54.5141 46.5022 54.4371 46.2968C54.9852 46.14 55.3706 45.7273 54.7273 45.6104Z" fill="#FCCAC2"/>
<path d="M42.0349 25.6876C41.974 25.5049 40.5117 25.8696 40.3199 25.318C39.5058 22.9811 39.6101 23.5628 38.8782 21.916C38.7732 22.2062 38.6518 22.581 38.4754 22.9559C37.7999 24.3877 37.1527 24.2575 37.0215 23.3409C37.0215 22.8509 36.8405 22.5653 36.542 23.1627C35.0188 25.5564 33.3643 25.2687 32.9877 25.5196C32.7596 25.3058 32.4742 25.163 32.1663 25.1087C31.5072 24.9474 31.1086 25.5046 31.0578 26.1643C30.9178 27.9752 32.3952 28.2745 32.7994 28.9878C33.7042 30.5838 33.1144 31.8011 33.2481 32.339C35.0394 31.7419 36.8647 32.9725 36.9952 32.9725C36.9952 32.6029 36.9952 31.6282 37.2591 31.3363C37.6746 30.8739 39.5618 31.401 40.3465 30.4392C41.1165 29.4942 40.7252 28.2251 41.0062 27.1408C41.1578 26.5521 42.0895 25.9057 42.0349 25.6876Z" fill="#FCCAC2"/>
<path d="M37.0198 26.3208C37.1341 26.3207 37.2474 26.3432 37.3531 26.3869C37.4588 26.4306 37.5548 26.4948 37.6357 26.5756C37.7166 26.6565 37.7807 26.7526 37.8245 26.8583C37.8682 26.9639 37.8907 27.0772 37.8906 27.1916C37.8908 27.3639 37.8398 27.5324 37.7442 27.6757C37.6486 27.819 37.5125 27.9308 37.3534 27.9967C37.1942 28.0627 37.019 28.0799 36.85 28.0463C36.681 28.0126 36.5259 27.9295 36.4041 27.8076C36.2821 27.6859 36.1989 27.5307 36.1652 27.3617C36.1314 27.1927 36.1486 27.0175 36.2145 26.8582C36.2805 26.699 36.3922 26.5629 36.5355 26.4673C36.6789 26.3716 36.8474 26.3206 37.0198 26.3208Z" fill="#FCCAC2"/>
<path d="M65.5744 25.4236C65.5457 24.8509 65.5017 24.279 65.4424 23.7086C65.4046 23.3788 65.2407 23.0765 64.9849 22.865C64.7291 22.6534 64.4014 22.5491 64.0704 22.5739C60.414 22.9274 49.0708 23.9917 45.4154 24.3421C45.0836 24.3751 44.7783 24.5377 44.5658 24.7946C44.3533 25.0516 44.2509 25.382 44.2807 25.7141C44.3336 26.2419 44.3857 26.8754 44.4393 27.4032C44.472 27.7349 44.6344 28.0403 44.8911 28.253C45.1479 28.4656 45.4782 28.5683 45.8102 28.5386C45.8543 28.5347 63.9927 26.8218 64.44 26.7973C64.772 26.7642 65.0775 26.6012 65.29 26.344C65.5024 26.0867 65.6046 25.7559 65.5744 25.4236Z" fill="#FFB949"/>
<path d="M62.5465 26.9661L62.257 22.8494C62.2553 22.8264 62.2581 22.8032 62.2655 22.7814C62.2728 22.7595 62.2845 22.7393 62.2997 22.722C62.3224 22.6956 62.3524 22.6766 62.386 22.6674C62.4195 22.6582 62.455 22.6591 62.488 22.6702C62.5209 22.6812 62.5499 22.7018 62.5711 22.7294C62.5923 22.757 62.6048 22.7902 62.607 22.8249L62.8972 26.9416C62.9002 26.988 62.8847 27.0338 62.8542 27.0689C62.8237 27.104 62.7805 27.1257 62.7341 27.1292C62.6876 27.1323 62.6418 27.1169 62.6067 27.0863C62.5715 27.0558 62.5499 27.0125 62.5465 26.9661Z" fill="#535353"/>
<path d="M59.4875 27.0192L59.1973 23.1132C59.1954 23.0902 59.1981 23.067 59.2053 23.0451C59.2126 23.0232 59.2241 23.0029 59.2393 22.9855C59.262 22.9593 59.2919 22.9404 59.3254 22.9311C59.3588 22.9219 59.3942 22.9228 59.4271 22.9336C59.46 22.9445 59.489 22.9648 59.5104 22.9921C59.5318 23.0194 59.5446 23.0524 59.5473 23.087L59.8375 26.9926C59.841 27.039 59.8259 27.085 59.7956 27.1203C59.7653 27.1556 59.7222 27.1774 59.6758 27.1809C59.6293 27.1845 59.5834 27.1694 59.5481 27.1391C59.5128 27.1088 59.491 27.0656 59.4875 27.0192Z" fill="#535353"/>
<path d="M56.2676 27.4681L55.9774 23.3514C55.9757 23.3283 55.9785 23.3052 55.9859 23.2833C55.9932 23.2614 56.0048 23.2412 56.0201 23.224C56.0428 23.1976 56.0728 23.1786 56.1064 23.1694C56.1399 23.1601 56.1754 23.1611 56.2084 23.1721C56.2413 23.1832 56.2703 23.2038 56.2915 23.2313C56.3127 23.2589 56.3252 23.2922 56.3274 23.3269L56.6176 27.4432C56.6206 27.4895 56.6052 27.5351 56.5748 27.5702C56.5444 27.6052 56.5014 27.6269 56.4552 27.6305C56.4322 27.6322 56.4091 27.6293 56.3872 27.6221C56.3653 27.6148 56.3451 27.6033 56.3276 27.5883C56.3102 27.5732 56.2959 27.5548 56.2856 27.5341C56.2753 27.5135 56.2692 27.4911 56.2676 27.4681Z" fill="#535353"/>
<path d="M53.0211 27.5985L52.7575 23.6932C52.7545 23.6468 52.77 23.6011 52.8005 23.5661C52.8311 23.5311 52.8743 23.5096 52.9206 23.5063C52.9436 23.5047 52.9667 23.5076 52.9885 23.5149C53.0104 23.5223 53.0306 23.5338 53.0479 23.549C53.0653 23.5642 53.0795 23.5826 53.0897 23.6033C53.1 23.6239 53.106 23.6464 53.1075 23.6694L53.3714 27.575C53.373 27.5981 53.3701 27.6212 53.3627 27.643C53.3554 27.6649 53.3438 27.6851 53.3286 27.7025C53.3134 27.7199 53.2949 27.7341 53.2742 27.7443C53.2535 27.7545 53.231 27.7605 53.208 27.7619C53.1615 27.765 53.1157 27.7495 53.0807 27.7189C53.0456 27.6882 53.0242 27.6449 53.0211 27.5985Z" fill="#535353"/>
<path d="M49.6716 28.1541L49.3815 24.0374C49.3797 24.0144 49.3826 23.9912 49.3899 23.9694C49.3972 23.9475 49.4089 23.9273 49.4242 23.91C49.4469 23.8836 49.4769 23.8646 49.5104 23.8554C49.5439 23.8462 49.5795 23.8471 49.6124 23.8582C49.6454 23.8692 49.6743 23.8898 49.6955 23.9174C49.7167 23.9449 49.7293 23.9782 49.7315 24.0129L50.0216 28.1292C50.0246 28.1756 50.0092 28.2213 49.9787 28.2563C49.9483 28.2914 49.9052 28.313 49.8589 28.3165C49.8359 28.3182 49.8129 28.3153 49.791 28.308C49.7692 28.3007 49.749 28.2892 49.7316 28.2742C49.7142 28.2591 49.6999 28.2407 49.6896 28.2201C49.6794 28.1995 49.6732 28.1771 49.6716 28.1541Z" fill="#535353"/>
<path d="M46.662 28.2334L46.3715 24.3281C46.3696 24.3051 46.3723 24.2819 46.3795 24.2599C46.3868 24.238 46.3983 24.2177 46.4135 24.2003C46.4362 24.1741 46.4661 24.1552 46.4996 24.146C46.533 24.1368 46.5684 24.1376 46.6013 24.1485C46.6342 24.1593 46.6632 24.1797 46.6846 24.207C46.706 24.2343 46.7188 24.2673 46.7215 24.3018L47.0116 28.2075C47.0135 28.2305 47.0107 28.2536 47.0035 28.2756C46.9963 28.2975 46.9849 28.3178 46.9698 28.3352C46.9547 28.3527 46.9364 28.367 46.9157 28.3774C46.8951 28.3877 46.8726 28.3938 46.8496 28.3954C46.8033 28.3987 46.7575 28.3835 46.7223 28.3531C46.6872 28.3228 46.6655 28.2797 46.662 28.2334Z" fill="#535353"/>
<path d="M37.0919 23.7848C37.8906 22.7698 39.3151 22.6473 39.1639 23.104C39.1527 23.1367 39.1321 23.1654 39.1048 23.1865C39.0776 23.2077 39.0447 23.2204 39.0102 23.223C38.9873 23.2248 38.9642 23.2219 38.9423 23.2147C38.7236 23.1419 37.8976 23.3259 37.3673 24.0011C37.3531 24.0192 37.3355 24.0343 37.3155 24.0456C37.2954 24.0568 37.2734 24.0641 37.2505 24.0668C37.2044 24.0724 37.158 24.0594 37.1215 24.0307C37.0849 24.002 37.0613 23.96 37.0558 23.9139C37.0502 23.8678 37.0632 23.8213 37.0919 23.7848Z" fill="#535353"/>
<path d="M39.1862 25.3899C38.9951 25.3899 39.0154 25.2524 38.8821 24.4799C38.8776 24.4357 38.8901 24.3914 38.917 24.356C38.9439 24.3206 38.9832 24.2967 39.027 24.2892C39.0709 24.2816 39.1159 24.291 39.1531 24.3153C39.1903 24.3397 39.2169 24.3773 39.2275 24.4204C39.3304 25.0175 39.4701 25.3899 39.1862 25.3899Z" fill="#535353"/>
<path d="M32.4792 27.076C32.4328 26.9416 32.3578 26.8188 32.2595 26.7161C32.1611 26.6134 32.0417 26.5332 31.9095 26.481C31.867 26.4621 31.8338 26.4272 31.8172 26.3839C31.8005 26.3406 31.8017 26.2924 31.8206 26.25C31.8394 26.2075 31.8743 26.1743 31.9176 26.1577C31.961 26.141 32.0091 26.1422 32.0516 26.1611C32.2215 26.2332 32.3752 26.3387 32.5036 26.4714C32.632 26.6041 32.7323 26.7613 32.7988 26.9335C32.8664 27.0851 32.9763 27.2776 32.7841 27.3535C32.592 27.4295 32.5405 27.2149 32.4792 27.076Z" fill="#535353"/>
<path d="M58.9878 67.4242C58.6809 67.4242 58.403 66.7802 58.2455 66.5198C57.6053 65.501 56.8479 64.1587 56.3947 63.3201C56.3836 63.3 56.3767 63.2778 56.3742 63.2549C56.3717 63.2321 56.3738 63.2089 56.3803 63.1869C56.3868 63.1648 56.3976 63.1443 56.4121 63.1264C56.4266 63.1085 56.4445 63.0937 56.4647 63.0828C56.7671 62.9194 56.681 63.3737 58.5433 66.3378C58.6714 66.5989 58.8272 66.8453 59.0081 67.0728C59.7347 66.972 63.4052 65.4978 65.0502 63.7779C65.4002 63.4279 66.1352 62.4633 66.0743 61.8428C65.929 60.37 61.7437 62.3818 60.4571 63.0765C60.4166 63.0963 60.3699 63.0996 60.3269 63.0858C60.2839 63.072 60.2479 63.0421 60.2265 63.0024C60.205 62.9627 60.1997 62.9162 60.2117 62.8727C60.2237 62.8292 60.2521 62.792 60.2909 62.7689C61.3801 62.1805 64.9784 60.3889 66.0452 61.1718C66.9482 61.7728 66.0554 63.268 65.3004 64.0229C63.6015 65.7974 59.6017 67.4242 58.9878 67.4242Z" fill="#535353"/>
<path d="M20.8976 62.3988C19.6996 62.3988 20.6292 58.9835 20.9956 57.8534C21.0065 57.8131 22.3256 53.0857 22.7106 52.9411C22.9024 52.8554 23.5758 52.9824 25.0066 53.2995C25.5764 53.4262 25.8116 53.4192 25.7672 53.6404C25.7196 53.8774 25.4585 53.7584 24.9307 53.6404C24.2502 53.4693 23.5592 53.3433 22.8622 53.2631C22.6203 53.6408 20.0622 61.122 20.7699 61.9914C21.3495 62.6722 24.4799 57.9248 24.9377 57.0099C24.9585 56.9684 24.9949 56.9368 25.039 56.9221C25.0831 56.9074 25.1312 56.9109 25.1727 56.9317C25.2143 56.9525 25.2458 56.9889 25.2605 57.033C25.2752 57.0771 25.2717 57.1252 25.2509 57.1667C25.0707 57.5268 22.1979 62.3988 20.8976 62.3988Z" fill="#535353"/>
<path d="M55.2392 45.815C55.0467 44.8805 51.5957 45.9168 50.964 45.7324C51.1327 45.5514 51.8656 45.1888 51.8908 44.7874C51.9191 44.3324 51.2625 44.3243 50.7445 44.5196C49.27 44.9771 48.8297 45.7236 48.7628 45.6253C48.2728 45.0817 41.5413 44.4755 37.4613 37.8399C37.4365 37.8015 37.3977 37.7744 37.3531 37.7643C37.3086 37.7542 37.2618 37.7619 37.2229 37.7858C37.1839 37.8097 37.1559 37.8479 37.1447 37.8922C37.1336 37.9365 37.1402 37.9834 37.1631 38.0229C39.694 42.1407 43.1429 44.1696 47.6099 45.5416C48.2749 45.7219 48.8055 45.626 48.4384 46.6168C47.7958 48.826 47.7184 49.092 47.3534 49.1302C45.2884 49.3444 37.8827 47.1887 32.8917 42.7353C32.8746 42.72 32.8546 42.7082 32.8329 42.7007C32.8112 42.6931 32.7882 42.6898 32.7653 42.6911C32.7424 42.6924 32.7199 42.6982 32.6992 42.7082C32.6785 42.7182 32.6599 42.7322 32.6446 42.7493C32.6293 42.7665 32.6176 42.7865 32.61 42.8081C32.6024 42.8298 32.5992 42.8528 32.6005 42.8758C32.6018 42.8987 32.6076 42.9212 32.6176 42.9419C32.6275 42.9626 32.6415 42.9811 32.6586 42.9964C34.9007 44.9974 37.8036 46.8814 42.2553 48.4085C40.2491 49.3843 38.4753 49.6247 36.3368 49.8505C34.2921 50.0664 33.4318 49.9205 32.7318 47.9367C32.6345 47.5793 30.6608 39.1009 30.4778 36.786C30.3938 35.7311 30.7315 33.6084 32.1322 32.8709C32.947 32.4734 33.8539 32.3033 34.7572 32.3785C37.4127 32.7446 40.9631 35.7661 42.4488 37.8735C42.4757 37.9112 42.5164 37.9368 42.5621 37.9448C42.6078 37.9527 42.6547 37.9423 42.6928 37.9158C42.7116 37.9026 42.7276 37.8858 42.7399 37.8664C42.7522 37.8469 42.7606 37.8253 42.7645 37.8026C42.7685 37.78 42.7679 37.7568 42.7628 37.7343C42.7578 37.7119 42.7484 37.6907 42.7351 37.6719C41.2263 35.6776 39.3124 34.0252 37.1194 32.8233C37.1155 31.1118 37.3735 31.3617 38.1718 31.2973C38.9803 31.2322 39.9005 31.2196 40.4062 30.5732C41.2252 29.5561 40.836 28.287 41.0999 27.2048C41.1913 26.8163 41.557 26.5177 41.8384 26.2143C42.3057 25.8695 42.3757 25.4236 41.6207 25.4817C41.521 25.4901 41.6207 25.4817 41.3145 25.4817C40.3509 25.4884 40.5095 25.4467 40.1028 24.2917C41.6001 23.856 41.9102 21.5421 40.4283 20.2779C39.3493 19.5335 38.2208 18.8635 37.0508 18.2724C36.3892 18.0424 35.6878 17.9495 34.9891 17.9995C34.2905 18.0494 33.6094 18.2411 32.9873 18.5629C31.7994 19.1698 31.1134 20.357 29.9773 20.9905C28.9483 21.5708 27.3383 21.1487 26.5473 22.0986C25.9036 22.8851 28.0026 23.0996 27.8668 23.5763C27.7065 24.3358 25.5841 23.8038 25.597 24.5528C25.61 25.3183 26.5998 25.6875 26.7842 26.3728C26.8371 26.5828 26.4692 26.7158 26.3621 26.8478C25.9929 27.1911 26.1969 27.6479 26.5469 27.9296C27.6053 28.7815 28.6714 28.5852 29.0274 28.9852C29.2122 29.1952 29.1324 29.5659 29.1324 29.8032C29.1285 30.0816 29.2065 30.3551 29.3566 30.5897C29.5068 30.8242 29.7225 31.0096 29.9769 31.1227C30.4785 31.3327 31.1645 30.674 31.5869 31.0436C32.0619 31.4657 32.8798 30.7797 33.0919 30.1462C33.1392 30.1385 33.2764 30.9778 33.0342 32.1762C30.7508 32.7393 29.9682 34.7641 30.1292 36.7986C30.3255 39.2654 32.3727 47.9678 32.3982 48.0438C33.2235 50.3821 34.3211 50.4028 36.6966 50.1651C38.5806 49.9768 40.6166 49.6632 42.7243 48.5642C43.9391 48.9142 47.4062 50.0622 47.976 49.1137C49.4002 49.2453 52.4805 49.532 53.197 48.433C53.2981 48.2303 53.2764 48.1981 53.2292 48.1397C53.6142 47.9458 54.303 47.3606 54.0135 47.0725C54.3954 46.8503 54.7807 46.6326 54.6729 46.4268C54.9176 46.3253 55.2973 46.0967 55.2392 45.815ZM32.9743 28.8935C32.6971 28.4301 32.2449 28.2387 31.9177 27.9359C31.0147 27.0998 31.0798 25.7509 31.6191 25.3631C32.0965 25.0204 32.9393 25.5801 33.1616 26.1856C33.1499 26.2201 33.1493 26.2575 33.1599 26.2924C33.1705 26.3274 33.1917 26.3581 33.2206 26.3804C33.2496 26.4026 33.2847 26.4153 33.3212 26.4166C33.3577 26.4179 33.3937 26.4077 33.4241 26.3875C33.6859 26.2125 33.3303 25.7505 33.1441 25.4961C35.9182 25.2161 36.5527 22.9684 36.8121 22.8644C36.944 22.8116 36.9703 23.2337 36.9969 23.2865C37.1603 24.4296 37.9905 24.6991 38.9019 22.2166C40.5042 25.6466 39.5732 25.9192 41.753 25.8247C40.913 26.6878 40.6925 26.6738 40.6379 28.2159C39.5736 28.3094 39.401 27.4417 39.1231 27.6951C38.8302 27.9573 39.7755 28.6212 40.626 28.5673C40.6015 29.2243 40.5459 29.8413 40.1311 30.3562C39.4451 31.2333 37.4841 30.7016 37.0511 31.2434C36.8215 31.4961 36.775 32.0617 36.7683 32.6434C35.7533 32.1496 34.5119 31.8286 33.4062 32.0974C33.6876 30.6722 33.4507 29.6894 32.9743 28.8935ZM52.8442 46.5738C51.5457 46.8475 51.1596 46.6266 51.175 46.9385C51.1764 46.9732 51.1882 47.0067 51.2089 47.0347C51.2297 47.0626 51.2584 47.0836 51.2912 47.0949C51.3129 47.1025 51.3359 47.1059 51.3588 47.1047C52.2744 47.0606 53.1812 46.9042 54.0587 46.6392C53.2099 47.1667 52.2372 47.4614 51.2384 47.4939C51.2037 47.4949 51.1701 47.5062 51.1418 47.5263C51.1136 47.5465 51.092 47.5746 51.0798 47.6071C51.0676 47.6396 51.0653 47.6749 51.0733 47.7087C51.0813 47.7425 51.0992 47.7731 51.1246 47.7967C51.1585 47.8284 51.2036 47.8454 51.2499 47.8439C52.1033 47.8062 52.9404 47.5978 53.7118 47.2311C53.7468 47.3893 53.2106 47.7561 53.0657 47.8292C52.4196 48.1523 51.7662 48.1743 50.9934 48.2335C50.9704 48.2352 50.948 48.2415 50.9274 48.2519C50.9069 48.2623 50.8886 48.2766 50.8735 48.2941C50.8585 48.3116 50.8471 48.3319 50.8399 48.3538C50.8327 48.3757 50.8299 48.3988 50.8317 48.4218C50.8334 48.4447 50.8397 48.4672 50.8501 48.4877C50.8605 48.5083 50.8749 48.5266 50.8924 48.5416C50.9098 48.5566 50.9301 48.5681 50.952 48.5752C50.9739 48.5824 50.997 48.5852 51.02 48.5835C51.6464 48.5743 52.2685 48.4768 52.8676 48.2937C52.1676 49.1389 49.2808 48.8813 48.1286 48.7777C48.2854 48.3962 48.907 46.4327 48.9123 46.0022C49.8363 45.1055 51.2961 44.6022 51.5408 44.7667C51.5058 45.0663 50.565 45.3712 50.5744 45.7817C50.5884 46.4002 52.2058 45.9599 53.4094 45.8391C53.8359 45.7762 54.2687 45.767 54.6974 45.8118C54.8238 45.8349 54.8896 45.8818 54.898 45.8685C54.8077 45.9105 54.9442 46.0887 52.8442 46.5738Z" fill="#535353"/>
<path d="M36.6784 56.2095C36.5338 56.1517 36.4211 56.0772 36.495 55.9295C36.7151 55.4937 37.44 56.7726 40.7338 56.1262C42.2563 55.8462 43.9017 54.8662 44.3805 54.7069C44.5716 54.5148 44.861 54.9169 44.4907 55.0391C44.23 55.1763 43.9626 55.3005 43.6892 55.4111C41.3768 56.494 39.0643 57.1769 36.6784 56.2095Z" fill="white"/>
<path d="M23.4358 37.1321C11.1239 37.1321 11.1221 37.2399 11.1221 36.9571C11.1221 36.6662 11.1221 36.7821 23.4358 36.7821C23.4822 36.7823 23.5265 36.8009 23.5593 36.8336C23.592 36.8664 23.6106 36.9107 23.6108 36.9571C23.6108 37.0035 23.5924 37.048 23.5596 37.0808C23.5268 37.1136 23.4822 37.1321 23.4358 37.1321Z" fill="#535353"/>
<path d="M27.4706 40.193C5.76329 40.193 5.76294 40.3172 5.76294 40.018C5.76294 39.7187 5.77169 39.843 27.4706 39.843C27.517 39.8432 27.5613 39.8618 27.5941 39.8945C27.6268 39.9273 27.6454 39.9716 27.6456 40.018C27.6456 40.0644 27.6272 40.1089 27.5944 40.1417C27.5616 40.1745 27.5171 40.193 27.4706 40.193Z" fill="#535353"/>
<path d="M27.2855 45.8659C5.57813 45.8659 5.57812 45.9905 5.57812 45.6909C5.57812 45.3913 5.58653 45.5159 27.2855 45.5159C27.3318 45.5162 27.3762 45.5347 27.4089 45.5675C27.4417 45.6002 27.4602 45.6446 27.4605 45.6909C27.4605 45.7373 27.442 45.7819 27.4092 45.8147C27.3764 45.8475 27.3319 45.8659 27.2855 45.8659Z" fill="#535353"/>
<path d="M24.411 43.0699C15.2347 43.0699 15.2375 43.1669 15.2375 42.8949C15.2375 42.623 15.2347 42.7199 24.411 42.7199C24.4573 42.7202 24.5017 42.7387 24.5344 42.7715C24.5672 42.8042 24.5857 42.8486 24.586 42.8949C24.586 42.9413 24.5675 42.9858 24.5347 43.0187C24.5019 43.0515 24.4574 43.0699 24.411 43.0699Z" fill="#535353"/>
<path d="M13.407 43.0697C1.51751 43.0697 1.51611 43.1722 1.51611 42.8947C1.51611 42.6171 1.53501 42.7197 13.407 42.7197C13.4533 42.72 13.4977 42.7385 13.5305 42.7713C13.5632 42.804 13.5817 42.8484 13.582 42.8947C13.582 42.9411 13.5636 42.9856 13.5308 43.0184C13.4979 43.0513 13.4534 43.0697 13.407 43.0697Z" fill="#535353"/>
<path d="M52.9369 3.44497C49.3767 0.511617 42.7743 -0.597533 38.5025 3.04772C33.8023 7.05872 36.6475 12.8827 39.3502 15.4409C44.1672 20.0021 54.3939 18.4652 55.8923 13.1543C56.8509 9.75512 54.9823 5.12742 52.9369 3.44497Z" fill="#FFB949"/>
<path d="M53.0219 3.30765C45.2393 -3.0438 33.0079 2.5401 36.2727 10.9478C37.4718 14.0359 39.2186 16.4778 42.8285 17.6479C46.1476 18.6812 49.7365 18.4039 52.8574 16.873C58.7707 13.7524 55.8268 5.68485 53.0219 3.30765ZM55.8317 12.6408C55.6291 12.1571 55.3848 11.4693 55.2017 11.1435C55.5115 10.2363 55.635 9.27599 55.5647 8.32C56.0081 9.71631 56.0995 11.2006 55.8307 12.6408H55.8317ZM38.5893 3.18095C42.5324 -0.179048 48.9451 0.433452 52.7969 3.5768C56.7452 6.9221 56.0298 13.5602 49.8464 15.5468C46.6217 16.5381 43.1372 16.229 40.1374 14.6855C35.9244 12.5799 34.383 6.7765 38.5893 3.18095ZM50.679 17.391C50.4934 16.8685 50.3085 16.3457 50.1246 15.8226C50.726 15.6184 51.3049 15.3535 51.8526 15.032C52.0139 15.446 52.4357 16.3032 52.5708 16.6287C51.9695 16.9507 51.3353 17.2062 50.679 17.3924V17.391ZM48.4698 17.8386C48.4156 17.7046 48.1044 16.8716 47.941 16.3364C48.5688 16.2569 49.1883 16.1215 49.7921 15.9318C49.8908 16.2118 50.2167 17.1379 50.3409 17.4848C49.727 17.65 49.1016 17.7688 48.4698 17.84V17.8386ZM40.3901 16.0274L40.2441 15.1307C40.8947 15.4503 41.5714 15.7137 42.2668 15.9182C42.2892 16.0029 42.376 16.264 42.7123 17.2384C42.0319 17.0025 40.4237 16.2321 40.3901 16.0288V16.0274ZM42.67 16.0323C45.8025 16.8779 44.8088 15.6312 45.5228 17.8607C44.7031 17.7802 43.8939 17.6157 43.1078 17.3707C43.1169 17.2937 43.112 17.3507 42.67 16.0337V16.0323ZM37.945 13.5539C38.5129 14.1039 39.1571 14.5691 39.8577 14.9354L39.9921 15.7659C39.1871 15.1532 38.4947 14.4052 37.946 13.5553L37.945 13.5539ZM45.9019 17.8939C45.7843 17.5495 45.6348 16.9811 45.4605 16.4526C46.1703 16.4852 46.8819 16.46 47.5875 16.377C47.7247 16.839 47.9917 17.5723 48.1076 17.8736C47.3747 17.9441 46.6371 17.952 45.9029 17.8971L45.9019 17.8939ZM52.8819 16.4649C51.826 13.9799 51.8466 15.6014 53.829 13.4349C54.1748 14.1559 54.5567 15.0859 54.5913 15.1324C54.0999 15.6688 53.5221 16.1192 52.8819 16.4649ZM54.8454 14.8486C54.3974 13.8066 54.1836 13.3516 54.0723 13.1476C54.4617 12.6744 54.7835 12.1494 55.0285 11.5876C55.2238 12.0321 55.5045 12.8242 55.6935 13.1787C55.5157 13.7829 55.228 14.3491 54.8447 14.8489L54.8454 14.8486Z" fill="white"/>
<path d="M20.6155 3.91772C16.1562 3.73187 12.3688 7.23852 11.4326 10.4627C10.7151 12.9292 12.5267 17.4008 15.733 18.1407C17.0425 18.3539 18.3842 18.2468 19.6433 17.8287C20.9024 17.4105 22.0416 16.6936 22.9633 15.7393C23.8909 14.8538 24.6217 13.7829 25.1082 12.5964C25.5947 11.4099 25.826 10.1342 25.7871 8.85237C25.9145 8.85237 25.7255 4.13087 20.6155 3.91772Z" fill="#FFB949"/>
<path d="M24.5885 13.9718C27.3153 9.53027 26.1285 4.00132 20.5964 3.76927C16.0838 3.58377 12.2279 7.08587 11.2384 10.4389C10.4803 13.0166 12.4718 18.4483 16.9872 18.4483C19.8222 18.4483 22.7972 16.8407 24.5164 14.088C24.5356 14.0744 24.5518 14.0572 24.5642 14.0372C24.5766 14.0172 24.5849 13.995 24.5885 13.9718ZM24.1975 12.9155C24.6784 12.3494 25.0832 11.7228 25.4015 11.0517C25.2069 11.9213 24.8836 12.757 24.4422 13.5311C24.3508 13.2994 24.2409 13.024 24.1975 12.9155ZM11.5741 10.5379C13.6443 3.52287 24.172 1.71617 25.4789 7.85412C26.5334 12.8031 18.4631 18.3618 13.7605 15.6388C12.874 15.16 12.1755 14.3954 11.7785 13.4693C11.3816 12.5433 11.3095 11.5101 11.5741 10.5379ZM18.0232 18.023C17.9378 17.7052 17.7456 16.9132 17.6588 16.6265C18.1367 16.5657 18.6084 16.4637 19.0686 16.3217C19.0686 16.3773 19.4928 17.6216 19.5264 17.666C19.0388 17.8359 18.5351 17.9556 18.0232 18.023ZM19.3882 16.2198C20.7661 15.7554 20.6975 15.5811 20.7444 15.699C20.9831 16.294 21.1294 16.8691 21.1487 16.9044C20.7301 17.152 20.293 17.3667 19.8411 17.5463C19.839 17.5302 19.4067 16.2475 19.3871 16.2191L19.3882 16.2198ZM21.0255 15.5055C21.4783 15.2596 21.9113 14.9787 22.3205 14.6655C22.3996 14.8867 22.4818 15.1009 22.7237 15.7232C22.3311 16.0905 21.9065 16.4219 21.4549 16.7137C21.3412 16.3009 21.1974 15.8971 21.0244 15.5055H21.0255ZM14.0272 17.1291C13.9971 16.8628 13.917 16.4312 13.8634 16.0931C15.6974 17.0182 14.9071 15.7641 15.4787 17.8995C14.9489 17.7407 14.4556 17.4789 14.0272 17.1291ZM12.2212 14.8275C12.5793 15.2472 13.0052 15.6039 13.4812 15.8828C13.505 16.0903 13.5663 16.4288 13.6212 16.7644C13.0455 16.2048 12.5717 15.5491 12.2212 14.8268V14.8275ZM15.8679 17.9933C15.7513 17.5365 15.6448 17.0771 15.5483 16.6157C16.1288 16.7074 16.7188 16.7242 17.3036 16.6657C17.3869 16.9247 17.5731 17.6909 17.6721 18.0657C17.0701 18.1305 16.4625 18.106 15.8679 17.9926V17.9933ZM22.9963 15.4575C22.8864 15.1705 22.7384 14.8076 22.6113 14.4383C23.0834 14.0613 23.5269 13.6497 23.9382 13.207C24.0411 13.4653 24.1587 13.7614 24.2161 13.9098C23.8667 14.4683 23.4577 14.9873 22.9963 15.4575Z" fill="white"/>
<path d="M9.50206 21.3354C5.05181 18.4412 -1.24574 22.3269 1.24801 26.4408C1.70301 27.1884 3.14256 28.7298 4.09246 29.1194C6.40246 30.0668 9.36591 29.6188 10.9525 27.536C12.6542 25.3051 10.8037 22.182 9.50206 21.3354Z" fill="#FFB949"/>
<path d="M9.64991 21.188C4.96096 18.1455 -1.49689 22.3455 1.19041 26.5959C1.74691 27.4758 3.05346 28.8754 4.04921 29.28C6.43691 30.3087 9.57606 29.7252 11.1192 27.6396C12.9287 25.178 10.7668 21.9328 9.64991 21.188ZM11.4797 25.695C10.9236 24.8049 11.2988 25.4657 11.2767 24.2092C11.4461 24.6852 11.5151 25.191 11.4797 25.695ZM11.0688 27.0733C10.9365 26.8503 10.7143 26.4254 10.6355 26.3341C11.115 25.6246 10.9488 25.4969 11.0807 25.7139C11.1626 25.8833 11.2746 26.0366 11.4111 26.1661C11.3421 26.4836 11.2268 26.7893 11.0688 27.0733ZM2.02656 22.0914C4.04711 20.0453 7.45786 20.1821 9.45741 21.4806C9.83432 21.7379 10.1549 22.0693 10.3995 22.4545C10.6441 22.8398 10.8077 23.2708 10.8803 23.7214C10.9529 24.1719 10.9329 24.6325 10.8216 25.0751C10.7103 25.5177 10.5101 25.9329 10.233 26.2956C8.54671 28.5146 4.74956 28.8569 2.49346 27.4653C2.05929 27.1804 1.69538 26.8008 1.42911 26.3551C1.16284 25.9093 1.00115 25.4089 0.956208 24.8916C0.911263 24.3743 0.984234 23.8535 1.16963 23.3685C1.35503 22.8835 1.64802 22.4468 2.02656 22.0914ZM9.84731 28.4166C9.73216 28.4999 9.06366 28.9335 9.02516 28.8562C8.95166 28.7099 8.67516 28.0862 8.63666 28.0022C8.89235 27.8852 9.13755 27.7466 9.36956 27.5878C9.51166 27.8737 9.67126 28.1502 9.84731 28.4166ZM4.84721 28.7613C4.72436 28.4677 4.66346 28.6409 5.67216 28.6409C6.07011 28.6409 5.80166 28.5566 6.22481 29.4214C5.82239 29.404 5.42282 29.3453 5.03236 29.2464C5.03201 29.203 5.02466 29.1841 4.84721 28.7613ZM6.54471 29.2786C6.46876 29.1267 6.38301 28.8649 6.27416 28.6164C7.51526 28.516 6.97661 28.2269 7.55411 29.3357C7.22161 29.3938 6.88561 29.4242 6.54821 29.4274C6.55857 29.4038 6.56362 29.3783 6.56302 29.3526C6.56241 29.3269 6.55616 29.3016 6.54471 29.2786ZM7.51491 28.4068C7.78724 28.3355 8.05463 28.2465 8.31536 28.1404C8.33531 28.1859 8.68531 28.9706 8.71261 29.0154C8.44171 29.1194 8.16416 29.2044 7.88136 29.2702C7.89361 29.1498 7.73156 28.9773 7.51491 28.4068ZM2.94601 28.096C4.66976 28.8555 4.16786 28.0393 4.61936 29.1236C3.98643 28.9219 3.41211 28.5692 2.94601 28.096ZM10.1119 28.2087C10.0934 28.1642 9.97961 27.9703 9.94601 27.9126C9.63871 27.3848 9.71221 27.4306 9.66286 27.3715C9.93936 27.1524 10.1914 26.9039 10.4147 26.6305C10.6663 27.0505 10.778 27.3305 10.8784 27.3771C10.6579 27.6851 10.4007 27.964 10.1116 28.2087H10.1119Z" fill="white"/>
</svg>
