<svg width="68" height="54" viewBox="0 0 68 54" fill="none" xmlns="http://www.w3.org/2000/svg">
<path d="M3.29739 2.14877C4.87121 2.00107 23.3873 1.95347 26.2088 2.14877C29.1569 2.35282 29.95 3.37377 30.1652 6.20877C30.3804 9.04377 30.5197 40.8938 30.4822 41.9476C30.4446 43.0015 30.8119 46.0867 26.6421 45.8918C22.4723 45.6968 3.65548 45.7518 3.19386 45.9005C2.73224 46.0493 0.84535 49.2938 0.605677 49.2997C0.366004 49.3057 0.413513 6.83317 0.426986 6.11812C0.440459 5.40307 0.465632 2.41512 3.29739 2.14877Z" fill="white"/>
<path d="M0.307533 49.0815C0.358942 42.1301 0.266051 6.25756 0.266051 6.25756C0.257187 5.17256 0.35646 2.14646 3.52468 1.95571C6.49116 1.77686 23.6224 1.77301 26.9807 2.07051C30.2485 2.36066 30.3134 5.06196 30.3521 6.67581C30.3521 6.67581 30.6003 38.9749 30.6439 41.5586C30.674 43.3436 30.3507 44.5518 29.6557 45.2549C28.8853 46.0344 27.8281 46.0424 26.8956 46.0494C26.7754 46.0494 5.52751 45.8982 3.25593 46.117C3.07051 46.1348 2.48763 46.4838 0.947133 49.2544C0.686542 49.7237 0.305051 49.4112 0.307533 49.0815ZM0.60216 6.25546C0.605351 6.61351 0.651442 49.1 0.651442 49.1C2.42913 45.8646 3.0269 45.8069 3.22367 45.788C5.51261 45.5675 26.7715 45.7197 26.8935 45.718C27.7603 45.7113 28.7431 45.7036 29.4161 45.0229C30.045 44.3866 30.3379 43.255 30.3088 41.5638C30.2652 38.9784 30.017 6.68351 30.017 6.68351C29.9784 5.08261 29.9206 2.66376 26.9509 2.40021C23.6008 2.10306 6.50712 2.06876 3.55092 2.28576C1.35309 2.44711 0.585142 4.44176 0.60216 6.25476V6.25546Z" fill="#535353"/>
<path d="M4.21175 11.6945C4.19158 11.6853 4.17353 11.6721 4.15871 11.6558C4.14389 11.6394 4.13262 11.6202 4.12558 11.5994C4.11854 11.5786 4.11589 11.5566 4.11778 11.5347C4.11967 11.5129 4.12607 11.4916 4.13659 11.4723C4.1462 11.4526 4.15971 11.435 4.17632 11.4206C4.19292 11.4062 4.2123 11.3952 4.23328 11.3883C4.25427 11.3814 4.27645 11.3787 4.29851 11.3803C4.32057 11.382 4.34206 11.3881 4.36172 11.3981C5.07649 11.7862 6.37377 11.0341 6.48403 10.9466C5.43422 9.67644 6.16494 7.41964 7.43669 7.91314C7.97879 8.12314 8.19329 9.75449 6.97189 10.9616C8.32093 11.929 10.0047 11.1982 10.6074 10.7866C10.2941 10.3557 10.1274 9.83766 10.1312 9.30719C10.1089 7.54214 12.2362 7.75214 11.9189 9.43214C11.8089 9.97994 11.5144 10.4749 11.0832 10.8363C12.2578 11.8905 14.1521 11.264 14.6017 10.9294C14.3122 10.5158 14.1597 10.0238 14.1653 9.52104C14.1114 7.57994 15.9671 7.71399 15.8777 9.39119C15.8591 9.6924 15.7793 9.98682 15.6429 10.2569C15.5065 10.5269 15.3164 10.7671 15.0839 10.963C15.4579 11.2945 17.0193 11.4982 17.9695 10.4576C17.6118 9.80769 17.481 8.68734 18.1599 8.36779C18.6744 8.12594 19.2945 8.58479 18.9931 9.54624C18.8724 9.90649 18.6685 10.2341 18.3975 10.5031C19.1236 11.4695 20.8148 11.0169 21.2661 10.6834C20.9804 10.3011 20.8358 9.83368 20.8566 9.35899C20.9013 7.70594 22.5914 7.95654 22.452 9.37929C22.388 9.89587 22.136 10.3719 21.743 10.7187C22.173 11.1244 24.0202 11.2875 25.0338 9.80244C25.0856 9.72684 25.1572 9.66769 25.2466 9.69744C25.3359 9.72719 25.4079 9.83149 25.3529 9.90744C24.9573 10.5349 24.3362 10.9916 23.614 11.1863C22.8917 11.381 22.1217 11.2993 21.4579 10.9574C20.9403 11.3344 19.0938 11.8034 18.1496 10.738C17.7119 11.1486 17.1538 11.412 16.5553 11.4907C15.9567 11.5694 15.3483 11.4594 14.8169 11.1762C14.2124 11.5469 13.51 11.7321 12.7987 11.7084C12.0875 11.6846 11.3993 11.453 10.8215 11.0428C10.2246 11.4552 9.51953 11.6885 8.79137 11.7145C8.06321 11.7405 7.34295 11.5582 6.71732 11.1895C6.59536 11.2871 5.2066 12.0823 4.21175 11.6945ZM7.10874 8.15954C6.63365 8.15954 6.26705 8.85954 6.31598 9.56339C6.32865 9.98485 6.4747 10.3918 6.73363 10.7271C7.84974 9.62254 7.62567 8.15919 7.10874 8.15919V8.15954ZM15.0364 8.43114C14.6145 8.43114 14.4868 9.00339 14.501 9.51264C14.4952 9.93929 14.6195 10.3578 14.8577 10.7138C15.2437 10.3647 15.4873 9.88836 15.5427 9.37439C15.5689 8.87809 15.4097 8.43079 15.0364 8.43079V8.43114ZM11.0626 8.40489C10.5996 8.40489 10.4599 8.88894 10.467 9.30439C10.4614 9.76314 10.6015 10.2121 10.8676 10.5882C11.2415 10.2757 11.4958 9.84643 11.5884 9.37159C11.6622 8.98274 11.492 8.40454 11.0626 8.40454V8.40489ZM21.6667 8.54489C21.3249 8.54489 21.2026 8.97434 21.192 9.36914C21.1747 9.76206 21.291 10.1494 21.5224 10.4695C22.4272 9.60259 22.1652 8.54384 21.6667 8.54384V8.54489ZM18.4347 8.63799C18.1248 8.63799 18.0007 9.01074 18.0114 9.34044C18.0186 9.64234 18.09 9.93937 18.2209 10.2123C18.9488 9.40344 18.7502 8.63694 18.4347 8.63694V8.63799Z" fill="#98D1FF"/>
<path d="M24.3416 16.5052C24.3416 16.5052 19.4134 16.3967 13.9963 16.3627C13.9531 16.3607 13.9123 16.3424 13.8825 16.3116C13.8526 16.2807 13.8359 16.2397 13.8359 16.197C13.8359 16.1543 13.8526 16.1133 13.8825 16.0824C13.9123 16.0515 13.9531 16.0332 13.9963 16.0312C13.9963 16.0312 22.9014 16.1132 24.349 16.1741C24.3935 16.175 24.4358 16.1933 24.4665 16.225C24.4973 16.2567 24.5141 16.2992 24.5132 16.3431C24.5122 16.387 24.4936 16.4287 24.4615 16.4591C24.4294 16.4895 24.3864 16.5061 24.3419 16.5052H24.3416Z" fill="#FFB949"/>
<path d="M9.87742 16.3402H4.88613C4.84058 16.3385 4.79753 16.3192 4.76624 16.2864C4.73495 16.2537 4.71791 16.2102 4.71878 16.1652C4.71878 16.1435 4.72312 16.122 4.73155 16.1019C4.73999 16.0818 4.75234 16.0636 4.76792 16.0483C4.7835 16.0329 4.80199 16.0208 4.82233 16.0125C4.84268 16.0042 4.86448 16 4.88648 16C4.88648 16 7.0095 16.0032 9.87813 16.0151C9.90015 16.0151 9.92194 16.0195 9.94225 16.0279C9.96256 16.0363 9.98099 16.0486 9.9965 16.064C10.012 16.0795 10.0243 16.0978 10.0326 16.1179C10.041 16.138 10.0452 16.1596 10.0451 16.1813C10.0451 16.2027 10.0407 16.2239 10.0322 16.2436C10.0236 16.2633 10.0112 16.2811 9.99551 16.296C9.97985 16.3108 9.96132 16.3224 9.94103 16.33C9.92074 16.3376 9.8991 16.341 9.87742 16.3402Z" fill="#FFB949"/>
<path d="M24.2125 20.3612C24.2125 20.3612 5.05603 20.2345 4.89471 20.2338C4.85152 20.2318 4.81076 20.2135 4.7809 20.1827C4.75104 20.1518 4.73438 20.1108 4.73438 20.0681C4.73438 20.0254 4.75104 19.9843 4.7809 19.9535C4.81076 19.9226 4.85152 19.9043 4.89471 19.9023C4.89471 19.9023 21.0691 19.9793 24.2146 20.0301C24.2591 20.0305 24.3016 20.0483 24.3328 20.0796C24.364 20.1109 24.3813 20.1531 24.3809 20.197C24.3805 20.241 24.3625 20.2829 24.3308 20.3137C24.299 20.3445 24.2562 20.3616 24.2118 20.3612H24.2125Z" fill="#FFB949"/>
<path d="M11.6505 27.0629C11.1415 27.4053 10.5404 27.5895 9.92452 27.5919C9.30863 27.5944 8.70608 27.4149 8.19435 27.0765C7.90078 27.2865 6.10891 27.8934 5.16015 26.8942C5.13426 26.8612 5.12194 26.8197 5.12565 26.7781C5.12935 26.7365 5.14881 26.6978 5.18014 26.6698C5.21147 26.6417 5.25237 26.6264 5.29466 26.6268C5.33696 26.6272 5.37755 26.6433 5.40833 26.6719C6.24896 27.4255 7.73344 26.9953 7.98729 26.8144C7.70011 26.3601 7.57263 25.825 7.62459 25.2919C7.75152 23.3102 10.0309 23.3357 9.29592 25.533C9.1328 26.0401 8.84312 26.4986 8.45352 26.8662C8.7758 27.2053 10.3358 27.6446 11.4672 26.7801C11.2326 26.3587 11.1106 25.8854 11.1126 25.4046C11.1126 23.6168 13.5086 23.5167 12.8637 25.673C12.6841 26.1548 12.3587 26.5702 11.9316 26.863C12.9906 28.1507 14.9545 27.4979 15.5246 27.0947C15.1779 26.5954 14.9915 26.0047 14.9896 25.3993C14.9013 23.3473 17.5001 23.7722 16.9041 25.7752C16.7402 26.302 16.4297 26.7727 16.0082 27.1339C17.1601 28.0548 18.6233 27.4507 19.203 27.0482C18.8406 26.6598 18.6389 26.1514 18.6375 25.6233C18.6524 23.7638 20.6541 23.6668 20.4723 25.6394C20.4044 26.193 20.133 26.7026 19.7096 27.0716C20.5056 27.758 21.9996 27.2862 22.4772 26.9544C22.2259 26.5513 22.113 26.079 22.1553 25.6076C22.4035 23.2178 25.4777 24.9044 22.9353 27.0184C23.2681 27.313 23.7012 27.4727 24.1482 27.4658C24.5951 27.4588 25.0229 27.2857 25.3462 26.981C25.3755 26.9494 25.4161 26.9303 25.4594 26.9276C25.5028 26.9249 25.5455 26.9388 25.5786 26.9665C25.6117 26.9942 25.6327 27.0335 25.6372 27.0761C25.6417 27.1187 25.6292 27.1614 25.6025 27.1952C24.9906 27.9088 23.4607 28.0166 22.6665 27.2228C22.1379 27.5931 20.5903 28.1027 19.4476 27.2858C18.9128 27.6748 18.2684 27.8894 17.6041 27.8998C16.9399 27.9101 16.2889 27.7157 15.7419 27.3436C15.12 27.7996 13.1509 28.5637 11.6505 27.0629ZM15.9795 24.3833C15.5831 24.3833 15.3083 24.9191 15.3285 25.3864C15.3276 25.9214 15.4881 26.4446 15.7894 26.8893C16.9949 25.8309 16.7974 24.3819 15.9812 24.3833H15.9795ZM19.6479 24.5271C19.0622 24.5271 18.5769 25.8921 19.4653 26.8466C19.8418 26.5347 20.0837 26.0929 20.1418 25.6111C20.189 25.1197 19.9777 24.5271 19.6497 24.5271H19.6479ZM23.0845 24.7721C22.6648 24.7721 22.1695 25.7556 22.7509 26.75C23.1398 26.454 23.4301 26.0499 23.5845 25.5897C23.6508 25.308 23.5075 24.7718 23.0863 24.7718L23.0845 24.7721ZM8.73928 24.1747C8.3702 24.1747 8.00431 24.6566 7.96248 25.3129C7.91958 25.7612 8.02014 26.2116 8.25001 26.6005C8.58662 26.2748 8.83726 25.8726 8.98002 25.4291C9.16332 24.882 9.03214 24.2174 8.73928 24.1747ZM12.2004 24.3878C11.7749 24.3833 11.4537 24.8652 11.4537 25.4028C11.463 25.8116 11.5686 26.2125 11.7621 26.5739C12.1196 26.3274 12.3932 25.9799 12.5471 25.5771C12.7024 25.0609 12.6272 24.4473 12.2004 24.3878Z" fill="#98D1FF"/>
<path d="M13.7696 32.9721C13.7481 32.9732 13.7267 32.97 13.7064 32.9628C13.6862 32.9555 13.6677 32.9443 13.652 32.9297C13.6363 32.9152 13.6238 32.8977 13.6151 32.8783C13.6064 32.8589 13.6018 32.8379 13.6016 32.8167C13.6016 32.7727 13.6192 32.7306 13.6507 32.6995C13.6821 32.6684 13.7248 32.6509 13.7693 32.6508C18.8467 32.648 24.2167 32.6406 24.2167 32.6406V32.9721H13.7696Z" fill="#FFB949"/>
<path d="M11.6547 32.983C4.93253 32.9812 4.88289 32.9728 4.86233 32.97C4.81942 32.9638 4.78059 32.9415 4.75399 32.9077C4.7274 32.8739 4.7151 32.8312 4.71969 32.7887C4.72428 32.7461 4.74539 32.7069 4.7786 32.6794C4.8118 32.6519 4.85452 32.6381 4.89778 32.641C5.05236 32.6466 8.62831 32.6501 11.654 32.6515C11.6767 32.6505 11.6994 32.654 11.7206 32.6619C11.7419 32.6697 11.7614 32.6818 11.7778 32.6973C11.7942 32.7127 11.8073 32.7314 11.8162 32.752C11.8252 32.7726 11.8298 32.7948 11.8298 32.8172C11.8298 32.8397 11.8252 32.8619 11.8162 32.8825C11.8073 32.9031 11.7942 32.9217 11.7778 32.9372C11.7614 32.9527 11.7419 32.9647 11.7206 32.9726C11.6994 32.9805 11.6767 32.984 11.654 32.983H11.6547Z" fill="#FFB949"/>
<path d="M45.6797 20.8864C45.6774 20.6773 45.7452 20.4734 45.8728 20.3065C46.0003 20.1397 46.1803 20.0192 46.3846 19.9641C48.0137 19.5557 51.0781 19.6708 51.8052 19.9641C51.9329 20.0028 52.0439 20.0822 52.121 20.1899C52.198 20.2975 52.2366 20.4274 52.2307 20.5591C52.2307 21.0491 50.9632 22.7498 48.7508 22.7498C46.8193 22.7512 45.6797 21.4201 45.6797 20.8864Z" fill="#98D1FF"/>
<path d="M55.7181 29.1334C54.8226 29.4071 49.648 30.9884 48.289 31.5862C48.4617 32.5994 49.6717 39.5175 51.0009 42.2759C53.1925 42.2389 55.371 41.9332 57.4863 41.3659C58.3111 37.2082 57.688 32.8974 55.7181 29.1334ZM62.4545 32.1591C60.6169 23.2075 56.0142 20.3578 52.4411 20.0673C52.5211 20.2184 52.561 20.387 52.557 20.5573C52.557 21.4355 50.9491 23.0773 48.7414 23.0794C46.5273 23.0794 45.336 21.7361 45.336 20.8832C45.3324 20.7105 45.3659 20.539 45.4343 20.38C45.5028 20.221 45.6046 20.0782 45.7331 19.9609C44.5929 20.0225 42.7528 20.4859 40.8673 22.4652C40.483 25.1231 39.6168 30.0763 38.1373 33.3383C38.1185 33.3774 38.0849 33.4078 38.0438 33.4228C38.0026 33.4378 37.9571 33.4362 37.9171 33.4185C37.8771 33.4008 37.8457 33.3683 37.8296 33.328C37.8136 33.2876 37.8142 33.2427 37.8313 33.2028C39.236 30.1025 40.0837 25.4461 40.4865 22.7441C40.4865 22.7441 40.6056 21.3441 40.6514 20.6721C40.6565 20.598 40.6463 20.5236 40.6215 20.4534C40.5967 20.3832 40.5578 20.3187 40.5071 20.2638C40.4564 20.2089 40.3949 20.1646 40.3264 20.1337C40.2579 20.1029 40.1838 20.086 40.1086 20.0841C39.3619 20.0642 38.0682 20.0397 37.3835 20.0841C37.2743 20.0915 37.1696 20.1304 37.0826 20.1961C36.9956 20.2618 36.9301 20.3512 36.8943 20.4534C36.4302 21.7729 34.6656 26.7733 33.8274 28.9234C32.857 31.4129 31.7324 34.3732 33.6721 35.6882C35.5392 36.9548 38.3068 34.7642 40.3458 32.429C40.706 30.779 40.9688 29.1097 41.1328 27.4296C41.1338 27.4073 41.1393 27.3853 41.149 27.3652C41.1588 27.345 41.1726 27.327 41.1895 27.3122C41.2065 27.2974 41.2263 27.2861 41.2478 27.2791C41.2693 27.272 41.292 27.2693 41.3146 27.2712C41.3372 27.273 41.3591 27.2793 41.3791 27.2898C41.3992 27.3002 41.4169 27.3145 41.4312 27.3319C41.4454 27.3492 41.456 27.3692 41.4623 27.3907C41.4685 27.4122 41.4703 27.4347 41.4675 27.4569C41.1793 30.4054 40.5802 33.3161 39.6799 36.1418C39.2686 37.8788 38.8028 39.7118 38.4794 40.5588C38.4794 40.5588 43.5906 47.8339 56.9711 43.4781C58.5229 38.2806 57.8809 33.1479 55.7167 29.1334C55.48 28.6895 55.2151 28.2608 54.9236 27.8499C54.8968 27.8148 54.8851 27.7706 54.8913 27.727C54.8975 27.6834 54.921 27.644 54.9566 27.6175C54.9922 27.591 55.037 27.5796 55.0811 27.5857C55.1253 27.5918 55.1651 27.615 55.192 27.6501C56.196 29.0996 56.9458 30.7055 57.41 32.4006C58.4343 35.983 58.4161 39.7777 57.3576 43.3504C57.3288 43.4774 56.8967 45.5235 56.6162 46.8182C56.5902 46.9407 56.6069 47.0683 56.6637 47.1802C56.7205 47.2921 56.814 47.3817 56.9289 47.4345C58.0091 47.9228 59.1958 48.1368 60.3811 48.0572C60.4714 48.0512 60.5588 48.0236 60.6358 47.9767C60.7129 47.9299 60.7772 47.8653 60.8232 47.7884C61.5284 46.6183 64.3191 41.2402 62.4549 32.1591H62.4545ZM55.7181 29.1334C54.8226 29.4071 49.648 30.9884 48.289 31.5862C48.4617 32.5994 49.6717 39.5175 51.0009 42.2759C53.1925 42.2389 55.371 41.9332 57.4863 41.3659C58.3111 37.2082 57.688 32.8974 55.7181 29.1334Z" fill="#98D1FF"/>
<path d="M55.6196 28.9609C57.7829 32.7973 58.4345 37.2873 57.4494 41.569C57.4494 41.569 52.2153 42.689 50.8967 42.4349C50.8967 42.4349 48.9467 38.0676 48.0391 31.4641C48.0391 31.4631 53.3349 29.4509 55.6196 28.9609Z" fill="white"/>
<path d="M61.0234 27.4278C61.0234 27.4278 63.5326 33.5444 63.0334 40.1079C64.5349 39.5904 66.0008 38.9773 67.4219 38.2725C67.0094 34.3675 66.115 30.5268 64.7586 26.8359C63.5028 26.9606 62.2556 27.1583 61.0234 27.4278Z" fill="white"/>
<path d="M48.0615 44.7709C43.6052 44.4849 38.4781 40.5625 38.4781 40.5625L35.6875 47.6139C43.6265 52.9234 54.238 51.7128 55.2956 51.634L56.9698 43.4815C54.3252 44.3411 50.8386 44.9487 48.0615 44.7709Z" fill="#535353"/>
<path d="M50.3753 44.7581L54.182 48.4002C52.6824 48.5089 51.1761 48.492 49.6793 48.3498C49.8819 47.1585 50.0673 45.9644 50.2356 44.7679C50.1207 44.7735 50.0072 44.7782 49.8952 44.7822C49.7277 45.963 49.5435 47.1415 49.3428 48.3172C47.4837 48.1235 45.6403 47.8034 43.8257 47.3593C43.9958 46.6076 44.1589 45.8543 44.315 45.0997C44.7944 44.897 45.7392 44.3402 45.7392 44.3402C40.7731 42.2797 38.7997 40.7891 38.7997 40.7891L36.1328 47.5542C36.1328 47.5542 37.7666 47.13 39.8821 46.563C40.4115 46.7475 41.6963 47.1727 43.4276 47.6032C43.2107 48.6433 42.936 49.6708 42.6047 50.6811C42.6031 50.6853 42.6018 50.6897 42.6008 50.6941C42.7093 50.7228 42.8178 50.7511 42.9259 50.7784C43.1741 50.0865 43.4861 48.8492 43.7545 47.6837C45.5748 48.1288 47.4238 48.4505 49.2886 48.6466C49.1297 49.6711 48.9032 50.6843 48.6107 51.6797C48.7266 51.6881 48.8426 51.6958 48.9567 51.7035C49.2404 50.7093 49.4633 49.6993 49.6243 48.6788C51.2299 48.9048 52.8601 48.9019 54.4649 48.6704L55.2676 49.4351L56.5305 43.6227C54.5218 44.201 52.46 44.5813 50.3753 44.7581ZM43.5003 47.2781C42.4744 47.0239 41.4585 46.7321 40.4547 46.4031C41.6364 46.0794 42.8002 45.6952 43.9413 45.2519C43.8456 45.7104 43.6853 46.4622 43.5003 47.2791V47.2781Z" fill="white"/>
<path d="M37.9271 20.1144L39.9569 20.0377C39.9404 19.6268 40.0534 19.221 40.2802 18.8761C40.6486 18.3721 42.4121 16.5986 42.2845 16.3935C42.0033 15.9424 41.0326 17.159 40.7004 17.0956C40.1994 17.0001 39.3751 11.7732 38.939 11.8019C38.5029 11.8306 39.3003 15.1426 39.0808 15.1906C38.8613 15.2385 37.9399 11.6391 37.5811 11.7445C37.2223 11.8498 38.3863 15.1906 38.1838 15.2672C37.9814 15.3439 36.7582 12.5005 36.4189 12.673C36.0796 12.8456 37.4357 15.6592 37.2418 15.7642C37.0478 15.8692 36.0739 14.5371 35.8647 14.7401C35.6555 14.9431 37.0769 17.1621 37.2031 17.4397C37.3294 17.7172 38.0016 19.1795 37.9271 20.1144Z" fill="white"/>
<path d="M37.9622 20.2827C37.9178 20.2804 37.8759 20.2616 37.8448 20.2302C37.8137 20.1987 37.7958 20.1569 37.7945 20.113C37.7945 20.1011 37.9597 18.9254 36.8759 17.173C35.7435 15.3404 35.5229 14.7538 35.6112 14.5448C35.8289 14.0303 37.0124 15.4436 37.0648 15.5007C37.0397 15.4422 35.7211 12.623 36.3409 12.448C36.9127 12.2866 37.8402 14.661 38.0377 14.9974C37.987 14.8262 36.9138 11.7424 37.5133 11.5611C38.0611 11.3955 38.884 14.5011 39.0379 14.8728C39.0234 14.8028 38.3958 11.5548 38.8961 11.5982C39.6225 11.6615 40.0717 16.081 40.7043 16.9248C40.9595 16.9787 42.0746 15.6718 42.4444 16.3204C42.6571 16.6924 41.6956 17.1688 40.4288 18.959C40.2346 19.2909 40.131 19.6668 40.1281 20.05C40.1263 20.0887 40.1107 20.1255 40.0842 20.1541C40.0576 20.1826 40.0217 20.201 39.9828 20.2061C39.7186 20.2407 38.0767 20.2827 37.9622 20.2827ZM36.0328 14.9043C36.4713 15.8983 38.0835 18.1775 38.1288 19.9474C38.6564 19.9348 39.4527 19.9124 39.8012 19.8883C39.8446 19.4738 39.9798 19.0739 40.1973 18.7168C41.6278 16.9199 42.2334 16.5167 42.1217 16.4268C41.993 16.3218 41.6924 16.6718 41.519 16.8051C41.1308 17.1023 40.7954 17.3588 40.5358 17.2097C40.1047 16.9619 39.1464 11.9867 38.9982 11.9786C38.8918 11.973 39.5538 15.3754 39.2368 15.4338C38.8918 15.4972 38.7507 14.99 38.2256 13.4567C38.0652 12.9349 37.8679 12.4249 37.6353 11.9303C37.5534 12.3153 38.7326 15.6116 38.3862 15.7103C37.8725 15.8552 36.6883 12.8466 36.5196 12.8771C36.2405 12.9271 37.7984 16.0785 37.5055 16.2115C37.3439 16.2836 36.2267 15.0859 36.0328 14.9043Z" fill="#535353"/>
<path d="M39.3084 18.2955C39.2806 18.2954 39.2532 18.2886 39.2287 18.2755C39.2042 18.2624 39.1833 18.2435 39.1681 18.2204C39.1528 18.1974 39.1436 18.171 39.1412 18.1436C39.1389 18.1162 39.1435 18.0887 39.1546 18.0634C39.2757 17.7971 39.4597 17.5632 39.691 17.3813C39.7091 17.3688 39.7295 17.3601 39.751 17.3554C39.7725 17.3507 39.7948 17.3503 39.8165 17.3542C39.8382 17.358 39.8589 17.366 39.8774 17.3777C39.896 17.3895 39.912 17.4047 39.9246 17.4226C39.9372 17.4404 39.9461 17.4606 39.9509 17.4818C39.9556 17.5031 39.956 17.525 39.9521 17.5465C39.9482 17.5679 39.9401 17.5883 39.9282 17.6066C39.9163 17.625 39.9009 17.6408 39.8828 17.6532C39.7016 17.7994 39.5576 17.9854 39.4623 18.1964C39.4491 18.2259 39.4276 18.2509 39.4003 18.2685C39.3729 18.2861 39.341 18.2954 39.3084 18.2955Z" fill="#535353"/>
<path d="M57.3641 47.6172C57.9614 47.8911 58.6103 48.038 59.2687 48.0484C59.2687 48.0484 59.6871 49.1666 58.1842 50.3815C58.1842 50.3815 57.7768 50.8855 58.2423 51.8812C58.7078 52.877 57.8931 52.4843 57.835 52.3982C57.6067 52.1851 57.4345 51.9203 57.3331 51.6267C57.2317 51.3332 57.2043 51.0197 57.2531 50.7133C57.0699 50.9785 56.9442 51.2783 56.8841 51.5938C56.824 51.9094 56.8308 52.2338 56.9039 52.5466C57.1166 53.7096 56.4785 52.8385 56.4387 52.7713C56.2466 52.3628 56.1221 51.9265 56.07 51.4791C55.9245 51.9728 55.872 52.4888 55.9151 53.0012C55.9424 53.557 55.5276 53.4303 55.3429 53.0012C55.1586 52.2518 55.1338 51.4727 55.2702 50.7133C55.0139 51.288 54.8204 51.888 54.693 52.5032C54.526 53.3631 53.7332 51.6982 54.8192 49.8323C54.8192 49.8323 54.1073 50.0126 54.1016 49.7077C54.0959 49.4029 55.0713 48.9804 55.8084 49.0077C55.8084 49.0091 57.0978 48.7316 57.3641 47.6172Z" fill="white"/>
<path d="M59.513 47.9957C59.5031 47.9581 59.48 47.9251 59.4479 47.9026C59.4159 47.8801 59.3768 47.8694 59.3375 47.8725C58.6901 47.8878 58.0476 47.7579 57.4584 47.4927C57.438 47.4831 57.4159 47.4777 57.3933 47.4767C57.3707 47.4757 57.3482 47.4792 57.327 47.487C57.3058 47.4948 57.2864 47.5066 57.2699 47.5219C57.2535 47.5372 57.2403 47.5556 57.2312 47.576C57.1433 47.8414 56.9959 48.0838 56.8 48.2851C56.604 48.4864 56.3646 48.6415 56.0994 48.7387C56.0495 48.7454 53.7949 49.0569 53.9275 49.8083C53.9782 50.096 54.5682 50.0215 54.5682 50.0215C54.1239 50.5216 53.7789 52.8817 54.5834 52.9587C54.827 52.9821 55.084 51.3525 55.1106 51.2472C55.084 51.3693 54.7656 53.4872 55.8403 53.4872C56.215 53.4872 56.0296 52.3542 56.0487 52.0938C56.1122 52.5003 56.2983 52.8784 56.5827 53.1788C56.788 53.3587 57.2946 53.3654 57.0957 52.6188C56.9575 52.1453 56.9653 51.6418 57.1181 51.1726C57.133 51.5278 57.2492 51.8717 57.4535 52.1645C58.2388 53.2327 58.7043 52.4221 58.4777 51.9941C57.9225 50.9441 58.2735 50.5591 58.3033 50.5297C59.886 49.4562 59.5293 48.0541 59.513 47.9957ZM55.2737 49.2266C55.1123 49.3692 54.9584 49.5199 54.8128 49.6781C53.4038 49.8822 55.1507 49.1419 55.2737 49.2266ZM58.181 52.1491C58.571 52.8873 57.0216 51.7816 57.5073 50.4971C57.5173 50.4621 57.5154 50.4248 57.5018 50.391C57.4882 50.3571 57.4637 50.3286 57.4321 50.3099C57.4005 50.2912 57.3636 50.2832 57.3269 50.2872C57.2903 50.2913 57.256 50.3071 57.2294 50.3323C57.1939 50.3655 56.3884 51.1569 56.7685 52.699C56.7892 52.7763 56.8011 52.8556 56.8039 52.9356C56.6972 52.8312 56.6113 52.708 56.5508 52.5723C56.3967 52.2303 56.3195 51.8594 56.3245 51.4852C56.3295 51.1109 56.4166 50.7422 56.5799 50.4044C56.5971 50.3661 56.599 50.3229 56.5852 50.2833C56.5715 50.2437 56.5431 50.2107 56.5057 50.1909C56.4684 50.1711 56.4248 50.166 56.3838 50.1765C56.3428 50.1871 56.3073 50.2126 56.2845 50.2479C55.7961 51.0726 55.6098 52.038 55.757 52.9821C55.7828 53.1277 55.6892 53.2149 55.5765 53.0521C55.4637 52.8894 55.0181 51.9836 55.8424 50.1373C55.9158 49.9728 55.6733 49.8486 55.541 49.9623C54.8128 50.5997 54.588 52.3973 54.5306 52.5572C54.4327 52.2695 54.3964 51.9649 54.4242 51.6626C54.4285 51.2316 54.5315 50.807 54.7257 50.4209C54.9199 50.0348 55.2001 49.6971 55.5453 49.4331C55.6002 49.3929 56.069 49.1181 56.2395 49.0383C56.5156 48.9359 56.7672 48.7783 56.9786 48.5753C57.19 48.3723 57.3566 48.1284 57.468 47.8588C58.0192 48.0874 58.6106 48.2071 59.2085 48.2109C59.2467 48.5518 59.2336 49.4993 58.1037 50.2623C58.1 50.2644 58.0965 50.267 58.0934 50.27C58.0689 50.2913 57.4655 50.7925 58.181 52.1477V52.1491Z" fill="#535353"/>
<path d="M63.1352 39.9006C64.5544 39.4231 65.9373 38.8465 67.2734 38.1751C66.8948 34.1592 64.9948 27.9645 64.6934 26.9999C63.4815 27.1378 62.2781 27.3414 61.0888 27.6096C61.0454 27.6196 60.9998 27.6122 60.962 27.589C60.9242 27.5658 60.8973 27.5287 60.8872 27.4859C60.8771 27.4431 60.8846 27.3981 60.9081 27.3608C60.9316 27.3235 60.9692 27.2969 61.0125 27.2869C62.2611 27.0043 63.5253 26.7939 64.7987 26.6569C64.8368 26.6535 64.8749 26.663 64.9068 26.684C64.9386 26.7049 64.9621 26.736 64.9735 26.7721C64.9958 26.8421 67.233 33.8855 67.6181 38.2566C67.621 38.2894 67.614 38.3223 67.5979 38.3511C67.5818 38.3799 67.5573 38.4034 67.5277 38.4183C66.1411 39.1175 64.706 39.7183 63.233 40.2163C63.1918 40.2255 63.1486 40.2189 63.112 40.1979C63.0755 40.177 63.0483 40.1431 63.0359 40.1032C63.0235 40.0633 63.0269 40.0203 63.0453 39.9827C63.0637 39.9451 63.0958 39.9158 63.1352 39.9006Z" fill="#535353"/>
<path d="M65.1773 37.5614C65.1369 37.5613 65.0979 37.5469 65.0674 37.5207C65.0369 37.4946 65.017 37.4584 65.0114 37.4189C64.6162 34.7114 64.0348 32.0335 63.2713 29.4039C63.2601 29.3623 63.2657 29.318 63.2869 29.2804C63.3081 29.2428 63.3433 29.2149 63.3851 29.2024C63.4268 29.19 63.4718 29.194 63.5106 29.2137C63.5494 29.2334 63.5789 29.2672 63.5929 29.308C64.3607 31.9545 64.9456 34.6494 65.3436 37.3741C65.3467 37.3975 65.3448 37.4213 65.3378 37.4438C65.3309 37.4664 65.3192 37.4872 65.3035 37.505C65.2877 37.5227 65.2683 37.5369 65.2466 37.5466C65.2248 37.5563 65.2012 37.5614 65.1773 37.5614Z" fill="#FFB949"/>
<path d="M53.6491 40.5806C53.6131 40.5806 53.578 40.5691 53.5491 40.5479C53.5202 40.5266 53.4989 40.4968 53.4885 40.4627C52.7961 38.1842 51.9803 34.246 51.9721 34.2065C51.9677 34.1851 51.9676 34.1632 51.9718 34.1419C51.976 34.1205 51.9844 34.1002 51.9966 34.0821C52.0087 34.0639 52.0244 34.0483 52.0426 34.0362C52.0609 34.024 52.0814 34.0155 52.103 34.0112C52.1245 34.0068 52.1468 34.0067 52.1684 34.0108C52.19 34.015 52.2106 34.0233 52.229 34.0353C52.2473 34.0473 52.2631 34.0627 52.2755 34.0807C52.2878 34.0988 52.2964 34.119 52.3008 34.1403C52.3089 34.1798 53.1219 38.1033 53.8101 40.3675C53.8176 40.3922 53.8192 40.4184 53.8146 40.4438C53.8101 40.4693 53.7996 40.4933 53.7839 40.514C53.7683 40.5348 53.7479 40.5516 53.7245 40.5631C53.7011 40.5747 53.6753 40.5807 53.6491 40.5806Z" fill="#FFB949"/>
<path d="M55.866 40.0057C55.8301 40.0057 55.7951 39.9942 55.7662 39.973C55.7374 39.9519 55.7162 39.9221 55.7058 39.8881C55.0523 37.7636 54.1078 33.8293 54.0983 33.7897C54.088 33.747 54.0954 33.702 54.1188 33.6646C54.1421 33.6272 54.1796 33.6005 54.2229 33.5904C54.2662 33.5803 54.3118 33.5876 54.3497 33.6106C54.3875 33.6337 54.4145 33.6707 54.4248 33.7134C54.4344 33.753 55.3764 37.6772 56.0266 39.7919C56.0343 39.8166 56.0359 39.8428 56.0315 39.8683C56.027 39.8938 56.0166 39.918 56.0009 39.9388C55.9853 39.9596 55.965 39.9764 55.9416 39.9881C55.9181 39.9997 55.8922 40.0057 55.866 40.0057Z" fill="#FFB949"/>
<path d="M51.691 32.9763C51.653 32.9763 51.6162 32.9635 51.5865 32.9401C51.5568 32.9168 51.536 32.8842 51.5275 32.8476C51.519 32.8111 51.5232 32.7728 51.5396 32.739C51.556 32.7051 51.5834 32.6778 51.6176 32.6613C51.7828 32.5832 51.9424 32.4938 52.0951 32.3939C51.7008 32.245 51.2984 32.1178 50.8897 32.0131C50.8467 32.0017 50.8101 31.9738 50.7879 31.9357C50.7658 31.8976 50.7598 31.8524 50.7714 31.81C50.7831 31.7675 50.8113 31.7314 50.8499 31.7095C50.8885 31.6876 50.9343 31.6818 50.9773 31.6932C52.5557 32.1132 52.5078 32.255 52.5153 32.3932C52.2956 32.654 52.0117 32.8548 51.691 32.9763Z" fill="#98D1FF"/>
<path d="M53.6781 32.4494C53.8934 32.3583 54.0999 32.2483 54.2953 32.1207C53.8974 32.0133 53.4922 31.9343 53.0828 31.8845C53.0387 31.8786 52.9988 31.8556 52.9718 31.8207C52.9448 31.7857 52.933 31.7416 52.939 31.6981C52.945 31.6546 52.9682 31.6152 53.0036 31.5885C53.039 31.5619 53.0837 31.5503 53.1278 31.5562C54.7084 31.7662 54.7084 31.9576 54.7084 32.084C54.7084 32.1606 54.7084 32.364 53.8128 32.7528C53.772 32.7705 53.7258 32.7714 53.6844 32.7554C53.6429 32.7394 53.6096 32.7079 53.5917 32.6676C53.5739 32.6274 53.5729 32.5818 53.5891 32.5408C53.6053 32.4999 53.6373 32.467 53.6781 32.4494Z" fill="#98D1FF"/>
<path d="M51.0109 42.2823C50.5869 41.3286 50.2416 40.3426 49.9785 39.334C50.3564 39.2492 50.8858 39.1054 51.0662 39.0575C51.4587 38.9525 51.3477 38.5325 51.2435 38.082C51.1648 37.7366 50.2983 34.5956 50.1916 34.2988C50.0848 34.002 49.9927 33.9887 49.7016 34.0108C49.5162 34.0248 49.0989 34.092 48.7727 34.1539C48.6037 33.3021 48.4452 32.4483 48.2972 31.5926C49.6562 30.9955 54.8308 29.4136 55.7264 29.1399C55.6689 29.0349 55.614 28.9365 55.5615 28.8438C54.4511 29.1815 49.2027 30.7891 48.0384 31.3466C48.006 31.3621 47.9795 31.3875 47.9628 31.419C47.9461 31.4505 47.94 31.4865 47.9455 31.5216C47.9484 31.5367 48.1356 32.6685 48.4419 34.2211C48.4093 34.2288 47.8966 34.3381 47.9838 34.7784C47.993 34.8249 48.0349 35.0048 48.0969 35.2652C47.7344 35.4261 47.4375 35.703 47.2541 36.0511C47.0707 36.3992 47.0115 36.7982 47.0861 37.1836C47.3807 38.4383 48.8234 38.3914 48.8649 38.3893C48.9535 38.7358 49.0219 38.992 49.0506 39.0767C49.1655 39.4169 49.3534 39.439 49.6427 39.3966C49.9184 40.468 50.2895 41.5132 50.7518 42.52C50.7655 42.5472 50.7865 42.5702 50.8126 42.5863C50.8387 42.6025 50.8688 42.6113 50.8996 42.6117C53.0998 42.5506 55.2869 42.2558 57.4232 41.7325C57.4483 41.6109 57.4719 41.4901 57.4941 41.3699C55.3797 41.9379 53.2019 42.2444 51.0109 42.2823ZM47.4172 37.1143C47.36 36.8147 47.4037 36.5049 47.5416 36.2321C47.6795 35.9593 47.904 35.7386 48.1809 35.6037C48.3493 36.3037 48.594 37.3043 48.7837 38.0579C48.4794 38.0868 48.1747 38.0077 47.9242 37.8348C47.6737 37.6618 47.494 37.4063 47.4172 37.1143Z" fill="#535353"/>
<path d="M44.0448 10.4691C44.1107 10.1968 45.4158 9.10966 46.6181 6.60156C46.6181 6.60156 49.4225 6.96276 50.8074 6.75486C51.7036 8.07281 52.3417 9.54489 52.6886 11.0949C53.2318 13.6082 53.3952 16.6525 50.5699 17.5716C50.345 18.6506 50.4806 19.7724 50.9563 20.7689C50.9563 20.7689 49.0556 23.0281 46.6507 20.9089C47.2278 19.907 47.4205 18.7336 47.1935 17.6031C45.9308 16.8497 44.9333 15.7312 44.3362 14.3992C44.3362 14.3992 42.7847 15.27 42.4791 13.9908C42.0218 12.0763 44.4525 12.791 44.5302 12.4973C44.6078 12.2037 43.987 10.7116 44.0448 10.4691Z" fill="white"/>
<path d="M43.8462 13.7756C43.7004 13.7557 43.5526 13.7557 43.4069 13.7756C43.3852 13.7793 43.3629 13.7786 43.3415 13.7738C43.32 13.769 43.2997 13.76 43.2817 13.7475C43.2637 13.7349 43.2484 13.7189 43.2367 13.7005C43.225 13.6821 43.217 13.6616 43.2133 13.6401C43.2096 13.6187 43.2102 13.5968 43.2151 13.5755C43.22 13.5543 43.2291 13.5343 43.2418 13.5165C43.2546 13.4988 43.2707 13.4837 43.2894 13.4721C43.308 13.4605 43.3288 13.4527 43.3505 13.449C43.531 13.4232 43.7143 13.4232 43.8948 13.449C43.9385 13.4557 43.9778 13.4792 44.0041 13.5143C44.0304 13.5494 44.0416 13.5934 44.0352 13.6366C44.0287 13.6799 44.0053 13.7188 43.9699 13.7451C43.9345 13.7713 43.89 13.7826 43.8462 13.7766V13.7756Z" fill="#535353"/>
<path d="M55.3949 14.171C54.9184 11.8442 52.3295 5.10393 49.2709 3.37073C46.8277 1.98613 45.1486 3.50688 44.9904 3.78268C45.732 4.65219 46.3494 5.61782 46.8256 6.65268C48.477 7.11468 50.8227 6.98203 50.8227 6.98203C51.9269 8.83978 52.6121 10.9108 52.8316 13.0538C52.9284 14.6288 52.6263 15.4688 52.565 15.6088C52.3036 16.2323 51.8421 16.7538 51.2513 17.0932C50.6605 17.4325 49.9732 17.571 49.295 17.4873C49.2517 17.4828 49.2083 17.495 49.174 17.5215C49.1397 17.5479 49.1171 17.5864 49.111 17.629C49.1049 17.6715 49.1158 17.7147 49.1413 17.7495C49.1668 17.7843 49.205 17.808 49.2478 17.8156C49.6042 17.8513 49.964 17.8318 50.3143 17.7578C50.1821 18.8024 50.3558 19.8625 50.8149 20.8126C48.8032 22.3586 47.2659 21.2375 46.8681 20.8865C47.6591 19.7147 47.407 17.5846 47.3953 17.4915C47.3912 17.4633 47.3801 17.4366 47.3629 17.4138C47.3456 17.391 47.3229 17.3728 47.2968 17.3609C45.3978 16.4534 44.7717 14.5259 44.3966 14.2568C44.2548 14.1567 44.1034 14.3173 43.7502 14.4612C43.6076 14.5086 43.455 14.5187 43.3073 14.4905C43.1596 14.4624 43.0218 14.3969 42.9073 14.3006C42.7928 14.2042 42.7055 14.0802 42.654 13.9407C42.6024 13.8011 42.5884 13.6508 42.6132 13.5043C42.7596 12.7364 43.6276 12.7385 43.9183 12.8393C44.2232 12.9443 44.5919 13.0304 44.7199 12.4945C44.783 12.2352 44.4561 11.1372 44.3161 10.6854C44.2981 10.6262 44.2968 10.5632 44.3124 10.5033C44.3279 10.4435 44.3597 10.3889 44.4044 10.3455C45.3494 9.3544 46.0868 8.18876 46.5742 6.91553C46.0989 5.84187 45.467 4.84265 44.6986 3.94963C40.2236 3.97308 39.9105 7.86683 40.2463 10.2591C40.6614 13.2183 43.4726 17.6126 44.2643 18.5282C44.311 18.5821 44.3711 18.623 44.4387 18.647C44.5062 18.6709 44.579 18.677 44.6497 18.6647C45.4948 18.5253 46.3166 18.2723 47.0922 17.9129C47.1298 18.5971 47.123 20.0314 46.5139 20.8032C46.4881 20.8337 46.4749 20.8728 46.4768 20.9125C46.4788 20.9523 46.4958 20.9898 46.5246 21.0177C48.5455 22.7838 50.2547 21.6939 51.1361 20.981C51.1674 20.9557 51.1883 20.92 51.1948 20.8807C51.2013 20.8413 51.1931 20.8009 51.1716 20.7671C50.6765 19.8141 50.4976 18.7314 50.6603 17.6724C51.1824 17.5213 51.6613 17.2515 52.0588 16.8848C52.4563 16.518 52.7613 16.0645 52.9493 15.5605C53.7684 15.4466 54.5438 15.1254 55.1999 14.6281C55.2748 14.5797 55.3333 14.5103 55.368 14.4289C55.4028 14.3475 55.4121 14.2577 55.3949 14.171Z" fill="#535353"/>
<path d="M49.0111 14.6585C48.4187 14.585 48.1932 13.8055 48.184 13.7723C48.1742 13.7306 48.1812 13.6868 48.2034 13.6501C48.2256 13.6133 48.2613 13.5864 48.303 13.5751C48.3448 13.5637 48.3894 13.5687 48.4275 13.589C48.4657 13.6093 48.4944 13.6434 48.5077 13.6841C48.5548 13.8517 48.7445 14.2938 49.0508 14.3298C49.4359 14.3725 49.6433 13.6911 49.6451 13.6837C49.657 13.6414 49.6855 13.6055 49.7243 13.5839C49.763 13.5623 49.8089 13.5568 49.8518 13.5686C49.8946 13.5804 49.931 13.6085 49.9529 13.6468C49.9748 13.685 49.9804 13.7303 49.9684 13.7726C49.9592 13.8104 49.6915 14.7432 49.0111 14.6585Z" fill="#535353"/>
<path d="M49.5363 12.612C49.5077 12.6188 49.4777 12.6185 49.4493 12.611C49.4208 12.6036 49.3947 12.5892 49.3732 12.5693C49.3446 12.5357 49.3306 12.4922 49.3344 12.4484C49.3382 12.4047 49.3594 12.3642 49.3934 12.3358C49.586 12.1622 49.73 11.9424 49.8114 11.6978C49.8191 11.6748 49.8189 11.65 49.8108 11.6271C49.8027 11.6043 49.7872 11.5847 49.7667 11.5714C49.1803 11.1284 48.7822 10.4855 48.6503 9.76825C48.6437 9.72481 48.6549 9.68056 48.6813 9.64525C48.7078 9.60994 48.7474 9.58645 48.7914 9.57995C48.8354 9.57345 48.8802 9.58448 48.916 9.6106C48.9518 9.63672 48.9756 9.6758 48.9821 9.71925C49.1038 10.3464 49.4519 10.9087 49.9617 11.3016C50.0413 11.357 50.1004 11.4364 50.1303 11.5279C50.1602 11.6193 50.1593 11.7179 50.1277 11.8087C50.013 12.1271 49.8076 12.406 49.5363 12.612Z" fill="#535353"/>
<path d="M46.2459 11.6543C46.2252 11.6155 46.2209 11.5701 46.2341 11.5282C46.2472 11.4862 46.2768 11.4511 46.3161 11.4307C46.3555 11.4102 46.4014 11.406 46.4439 11.419C46.4864 11.432 46.5219 11.4611 46.5427 11.5C46.5476 11.5091 47.0628 12.4397 47.5435 12.2084C47.7112 12.1279 47.4879 11.2851 47.3205 10.9858C47.3013 10.9475 47.2977 10.9034 47.3106 10.8626C47.3235 10.8218 47.3518 10.7875 47.3898 10.7668C47.4277 10.7461 47.4722 10.7407 47.514 10.7516C47.5559 10.7626 47.5919 10.789 47.6144 10.8255C47.6659 10.9179 48.209 12.2584 47.6758 12.5129C47.0082 12.8314 46.2686 11.697 46.2459 11.6543Z" fill="#535353"/>
<path d="M49.8347 9.73347C49.8167 9.69332 49.8155 9.64774 49.8315 9.60675C49.8475 9.56576 49.8793 9.53272 49.92 9.5149C49.9607 9.49707 50.0069 9.49593 50.0484 9.51171C50.0899 9.5275 50.1234 9.55892 50.1414 9.59907C50.2503 9.84022 50.6467 10.5136 51.0051 10.3894C51.2256 10.3127 51.0384 9.53222 50.9041 9.25222C50.8946 9.23255 50.8892 9.21124 50.8881 9.1895C50.887 9.16776 50.8903 9.14603 50.8977 9.12554C50.9052 9.10505 50.9166 9.0862 50.9314 9.07007C50.9462 9.05394 50.9641 9.04085 50.984 9.03155C51.0039 9.02224 51.0255 9.0169 51.0475 9.01583C51.0696 9.01475 51.0916 9.01798 51.1123 9.02531C51.1331 9.03263 51.1522 9.04393 51.1685 9.05854C51.1849 9.07315 51.1981 9.0908 51.2075 9.11047C51.2497 9.19867 51.7348 10.437 51.1069 10.7051C50.5169 10.9574 49.856 9.77862 49.8347 9.73347Z" fill="#535353"/>
<path d="M49.0895 8.49048C49.0631 8.49042 49.0372 8.48424 49.0137 8.47244C48.9902 8.46065 48.9699 8.44357 48.9543 8.42259C48.9388 8.4016 48.9284 8.3773 48.9241 8.35165C48.9198 8.32599 48.9217 8.29969 48.9296 8.27488C49.0368 7.94214 49.2672 7.66157 49.5748 7.48923C49.8824 7.3169 50.2445 7.26549 50.5889 7.34528C50.6105 7.3494 50.6311 7.35768 50.6495 7.36965C50.6679 7.38162 50.6837 7.39705 50.696 7.41505C50.7084 7.43306 50.717 7.45329 50.7214 7.47458C50.7259 7.49588 50.726 7.51783 50.7218 7.53918C50.7177 7.56053 50.7093 7.58086 50.6971 7.59901C50.685 7.61716 50.6694 7.63278 50.6511 7.64497C50.6329 7.65715 50.6124 7.66568 50.5908 7.67005C50.5693 7.67442 50.547 7.67455 50.5254 7.67043C50.2619 7.60699 49.9839 7.64429 49.7472 7.77485C49.5104 7.9054 49.3325 8.11955 49.249 8.37428C49.2383 8.40782 49.2171 8.43714 49.1884 8.45802C49.1598 8.4789 49.1251 8.49026 49.0895 8.49048Z" fill="#535353"/>
<path d="M45.324 10.3704C45.2963 10.3703 45.2691 10.3635 45.2447 10.3505C45.2203 10.3376 45.1995 10.3189 45.1842 10.2961C45.1689 10.2733 45.1596 10.2471 45.157 10.2199C45.1544 10.1927 45.1587 10.1652 45.1694 10.1401C45.3361 9.77812 45.6204 9.48147 45.9772 9.29716C46.3341 9.11284 46.7431 9.05141 47.1393 9.1226C47.1831 9.13035 47.222 9.15497 47.2474 9.19104C47.2729 9.22711 47.2827 9.27167 47.2749 9.31493C47.267 9.35818 47.2421 9.39659 47.2056 9.4217C47.169 9.4468 47.1239 9.45655 47.0801 9.4488C46.7584 9.38498 46.4244 9.43147 46.1331 9.5806C45.8419 9.72972 45.611 9.97253 45.4786 10.2689C45.4658 10.2989 45.4443 10.3246 45.4168 10.3426C45.3893 10.3607 45.357 10.3703 45.324 10.3704Z" fill="#535353"/>
<path d="M46.017 2.32105C45.7936 1.72605 44.9952 0.111849 43.0484 0.603599C40.7662 1.1804 41.4157 3.3203 41.6891 4.0042C41.6995 4.03041 41.7155 4.05412 41.7359 4.0738C41.7564 4.09347 41.7808 4.10865 41.8076 4.11834C41.8344 4.12802 41.8629 4.132 41.8914 4.13C41.9199 4.12801 41.9476 4.12008 41.9727 4.10675C42.7517 3.69992 43.6292 3.51294 44.5088 3.56635C44.5459 3.5695 44.5831 3.56251 44.6164 3.54615C44.6498 3.52979 44.6779 3.50469 44.6977 3.4736C44.9709 3.04537 45.3916 2.72893 45.8823 2.5825C45.909 2.57485 45.9339 2.56186 45.9554 2.54434C45.9768 2.52681 45.9944 2.50512 46.0071 2.48061C46.0197 2.45611 46.0271 2.4293 46.0288 2.40185C46.0305 2.3744 46.0265 2.3469 46.017 2.32105Z" fill="#535353"/>
<path d="M45.9297 14.0049C45.9297 14.1222 45.9971 14.2348 46.1171 14.3177C46.2371 14.4007 46.3999 14.4473 46.5696 14.4473C46.7394 14.4473 46.9021 14.4007 47.0222 14.3177C47.1422 14.2348 47.2096 14.1222 47.2096 14.0049C47.2096 13.8876 47.1422 13.775 47.0222 13.6921C46.9021 13.6091 46.7394 13.5625 46.5696 13.5625C46.3999 13.5625 46.2371 13.6091 46.1171 13.6921C45.9971 13.775 45.9297 13.8876 45.9297 14.0049Z" fill="#FCCAC2"/>
<path d="M51.3326 12.7031C51.392 12.8048 51.5074 12.869 51.6534 12.8816C51.7994 12.8942 51.964 12.8543 52.111 12.7705C52.258 12.6867 52.3754 12.566 52.4373 12.4349C52.4993 12.3038 52.5007 12.173 52.4413 12.0714C52.4119 12.0211 52.3684 11.9794 52.3134 11.9488C52.2583 11.9181 52.1928 11.8992 52.1205 11.8929C52.0482 11.8867 51.9706 11.8933 51.8921 11.9123C51.8136 11.9314 51.7357 11.9625 51.6629 12.004C51.5901 12.0455 51.5238 12.0965 51.4678 12.1541C51.4118 12.2117 51.3672 12.2747 51.3366 12.3396C51.3059 12.4045 51.2898 12.4701 51.2891 12.5324C51.2884 12.5948 51.3032 12.6528 51.3326 12.7031Z" fill="#FCCAC2"/>
<path d="M47.8594 8.75399C47.8594 8.82342 47.8873 8.89001 47.937 8.93911C47.9868 8.98821 48.0542 9.01579 48.1246 9.01579C48.1949 9.01579 48.2624 8.98821 48.3121 8.93911C48.3618 8.89001 48.3898 8.82342 48.3898 8.75399C48.3898 8.68455 48.3618 8.61796 48.3121 8.56887C48.2624 8.51977 48.1949 8.49219 48.1246 8.49219C48.0542 8.49219 47.9868 8.51977 47.937 8.56887C47.8873 8.61796 47.8594 8.68455 47.8594 8.75399Z" fill="#FF7449"/>
</svg>
