<svg width="15" height="14" viewBox="0 0 15 14" fill="none" xmlns="http://www.w3.org/2000/svg">
<path d="M11.7262 3.2664C11.7262 2.9397 11.726 2.77623 11.6624 2.65145C11.6065 2.54169 11.5176 2.45251 11.4078 2.39659C11.283 2.33301 11.1193 2.33301 10.7926 2.33301H3.32598C2.99928 2.33301 2.8361 2.33301 2.71131 2.39659C2.60155 2.45251 2.51238 2.54169 2.45645 2.65145C2.39287 2.77623 2.39287 2.9397 2.39287 3.2664V3.69647C2.39287 3.83914 2.39287 3.91054 2.40899 3.97767C2.42328 4.03719 2.44691 4.09405 2.47889 4.14624C2.51496 4.20509 2.56549 4.25562 2.66631 4.35645L5.61958 7.30971C5.72046 7.41059 5.77063 7.46076 5.8067 7.51963C5.83869 7.57182 5.86263 7.62887 5.87692 7.6884C5.89288 7.75485 5.89288 7.82539 5.89287 7.96518V10.7394C5.89287 11.2395 5.89287 11.4896 5.99819 11.6402C6.09015 11.7717 6.23203 11.8594 6.39076 11.8829C6.57254 11.9097 6.79629 11.798 7.24354 11.5744L7.71021 11.3411C7.89749 11.2474 7.99091 11.2004 8.05933 11.1306C8.11983 11.0688 8.16611 10.9946 8.19431 10.9129C8.22619 10.8204 8.22621 10.7155 8.22621 10.5061V7.96952C8.22621 7.82685 8.22621 7.75553 8.24232 7.6884C8.25661 7.62887 8.28024 7.57182 8.31223 7.51963C8.34806 7.46116 8.3981 7.41112 8.49764 7.31157L8.49965 7.30971L11.4529 4.35645C11.5538 4.25556 11.604 4.20511 11.64 4.14624C11.672 4.09405 11.696 4.03719 11.7103 3.97767C11.7262 3.91122 11.7262 3.8406 11.7262 3.70081V3.2664Z" stroke="#5D5D5D" stroke-width="1.16667" stroke-linecap="round" stroke-linejoin="round"/>
</svg>
