<svg width="12" height="12" viewBox="0 0 12 12" fill="none" xmlns="http://www.w3.org/2000/svg">
<g clip-path="url(#clip0_1454_5879)">
<path fill-rule="evenodd" clip-rule="evenodd" d="M4.13419 1.3934C4.17438 1.35322 4.22889 1.33064 4.28571 1.33064H7.71429C7.77111 1.33064 7.82562 1.35322 7.86581 1.3934C7.90599 1.43358 7.92857 1.48809 7.92857 1.54492V2.57052H4.07143V1.54492C4.07143 1.48809 4.09401 1.43358 4.13419 1.3934ZM2.78571 2.57052V1.54492C2.78571 1.1471 2.94375 0.765566 3.22505 0.484262C3.50636 0.202957 3.88789 0.0449219 4.28571 0.0449219H7.71429C8.11211 0.0449219 8.49364 0.202957 8.77491 0.484262C9.05623 0.765566 9.21429 1.1471 9.21429 1.54492V2.57052H10.7143C11.4243 2.57052 12 3.14615 12 3.85624V10.7134C12 11.4234 11.4243 11.9991 10.7143 11.9991H1.28571C0.575634 11.9991 0 11.4234 0 10.7134V3.85624C0 3.14615 0.575634 2.57052 1.28571 2.57052H2.78571ZM2.46429 5.63754C2.46429 5.34167 2.70413 5.10183 3 5.10183H9C9.29589 5.10183 9.53571 5.34167 9.53571 5.63754C9.53571 5.9334 9.29589 6.17326 9 6.17326H3C2.70413 6.17326 2.46429 5.9334 2.46429 5.63754ZM3 8.39636C2.70413 8.39636 2.46429 8.63618 2.46429 8.93206C2.46429 9.22795 2.70413 9.46778 3 9.46778H9C9.29589 9.46778 9.53571 9.22795 9.53571 8.93206C9.53571 8.63618 9.29589 8.39636 9 8.39636H3Z" fill="#5A5A5A"/>
</g>
<defs>
<clipPath id="clip0_1454_5879">
<rect width="12" height="12" fill="white"/>
</clipPath>
</defs>
</svg>
