<svg width="14" height="14" viewBox="0 0 14 14" fill="none" xmlns="http://www.w3.org/2000/svg">
<g clip-path="url(#clip0_1454_5886)">
<path d="M14 7C14 10.866 10.866 14 7 14C3.13396 14 0 10.866 0 7C0 3.13396 3.13396 0 7 0C10.866 0 14 3.13396 14 7Z" fill="#004EB1"/>
<path d="M14.0004 7C14.0004 6.79503 13.9911 6.5923 13.9738 6.39192L9.86557 2.28053C9.55165 1.96661 9.13274 1.82167 8.72183 1.8456C8.49197 1.85895 8.26981 1.76688 8.11674 1.59491C7.84299 1.28751 7.44437 1.09375 7.00035 1.09375C6.55634 1.09375 6.15771 1.28751 5.88396 1.59491C5.7309 1.76688 5.50873 1.85895 5.27887 1.8456C4.86797 1.82167 4.44905 1.96661 4.13513 2.28064C3.82111 2.59456 3.67616 3.01347 3.70009 3.42438C3.71344 3.65424 3.62137 3.8764 3.44951 4.02946C3.142 4.30312 2.94824 4.70174 2.94824 5.14586C2.94824 5.58987 3.142 5.98849 3.44951 6.26225C3.62137 6.41531 3.71344 6.63748 3.70009 6.86734C3.67712 7.26318 3.81075 7.6664 4.10127 7.97615L4.47479 8.34764L3.1561 11.5684L5.40501 13.8172C5.9175 13.9367 6.45155 14 7.00035 14C10.8664 14 14.0004 10.866 14.0004 7Z" fill="#002D6B"/>
<path d="M5.31198 12.4519L4.62967 11.044L3.15588 11.5692L4.76917 7.62891L6.92526 8.5116L5.31198 12.4519Z" fill="#FFDB2D"/>
<path d="M8.68811 12.4519L9.37042 11.044L10.8442 11.5692L9.23093 7.62891L7.07483 8.5116L8.68811 12.4519Z" fill="#FEC000"/>
<path d="M11.0525 5.14586C11.0525 4.70174 10.8587 4.30312 10.5512 4.02946C10.3792 3.8764 10.2873 3.65424 10.3006 3.42438C10.3244 3.01337 10.1796 2.59456 9.86557 2.28053C9.55165 1.96661 9.13274 1.82167 8.72173 1.8456C8.49197 1.85895 8.26981 1.76688 8.11674 1.59491C7.84299 1.28751 7.44437 1.09375 7.00035 1.09375C6.55634 1.09375 6.15771 1.28751 5.88396 1.59491C5.7309 1.76688 5.50873 1.85895 5.27887 1.8456C4.86797 1.82167 4.44905 1.96661 4.13513 2.28064C3.82111 2.59456 3.67616 3.01347 3.70009 3.42438C3.71344 3.65424 3.62148 3.8764 3.44951 4.02946C3.142 4.30312 2.94824 4.70174 2.94824 5.14586C2.94824 5.58987 3.142 5.98849 3.44951 6.26225C3.62137 6.41531 3.71344 6.63748 3.70009 6.86734C3.67627 7.27824 3.82111 7.69716 4.13513 8.01108C4.44905 8.3251 4.86797 8.47005 5.27887 8.44612C5.50873 8.43277 5.7309 8.52473 5.88396 8.6967C6.15761 9.00421 6.55634 9.19797 7.00035 9.19797C7.44437 9.19797 7.84299 9.00421 8.11674 8.6967C8.26981 8.52484 8.49197 8.43277 8.72183 8.44612C9.13274 8.46994 9.55165 8.3251 9.86557 8.01108C10.1796 7.69716 10.3245 7.27824 10.3006 6.86734C10.2873 6.63748 10.3792 6.41531 10.5512 6.26225C10.8587 5.98849 11.0525 5.58987 11.0525 5.14586Z" fill="#FF9A00"/>
<path d="M10.5508 4.02936C10.3789 3.87651 10.287 3.65424 10.3002 3.42427C10.3242 3.01358 10.1792 2.59467 9.86533 2.28043C9.55119 1.96661 9.13228 1.82167 8.72159 1.8457C8.49162 1.85884 8.26956 1.76698 8.11639 1.59491C7.84274 1.28761 7.44402 1.09375 7 1.09375V9.19786C7.44402 9.19786 7.84274 9.00432 8.11639 8.6967C8.26956 8.52473 8.49162 8.43277 8.72159 8.44623C9.13228 8.47005 9.55119 8.3251 9.86533 8.01118C10.1792 7.69695 10.3242 7.27835 10.3002 6.86734C10.287 6.63737 10.3789 6.41542 10.5508 6.26225C10.8585 5.9886 11.0521 5.58987 11.0521 5.14586C11.0521 4.70174 10.8585 4.30312 10.5508 4.02936Z" fill="#FF8900"/>
<path d="M9.71262 5.14586C9.71262 6.64378 8.49828 7.85812 7.00035 7.85812C5.50243 7.85812 4.28809 6.64378 4.28809 5.14586C4.28809 3.64793 5.50243 2.43359 7.00035 2.43359C8.49828 2.43359 9.71262 3.64793 9.71262 5.14586Z" fill="#FFC473"/>
<path d="M9.71227 5.14586C9.71227 6.64368 8.49792 7.85802 7 7.85802V2.43359C8.49792 2.43359 9.71227 3.64793 9.71227 5.14586Z" fill="#FFB84D"/>
<path d="M7.00017 2.97168L7.65086 4.30298L9.11813 4.51041L8.05301 5.54071L8.30914 7.00029L7.00017 6.30569L5.69119 7.00029L5.94733 5.54071L4.8822 4.51041L6.34947 4.30298L7.00017 2.97168Z" fill="#FFA924"/>
<path d="M8.05273 5.5406L8.30898 7.00018L7 6.30569V2.97168L7.6508 4.30298L9.11807 4.5103L8.05273 5.5406Z" fill="#FF8900"/>
</g>
<defs>
<clipPath id="clip0_1454_5886">
<rect width="14" height="14" fill="white"/>
</clipPath>
</defs>
</svg>
