<svg width="12" height="12" viewBox="0 0 12 12" fill="none" xmlns="http://www.w3.org/2000/svg">
<path d="M6.5 11H2.5C1.5 11 1 10.5 1 9.5V5.5C1 4.5 1.5 4 2.5 4H5V9.5C5 10.5 5.5 11 6.5 11Z" stroke="#666666" stroke-width="0.75" stroke-miterlimit="10" stroke-linecap="round" stroke-linejoin="round"/>
<path d="M5.05499 2C5.01499 2.15 5 2.315 5 2.5V4H2.5V3C2.5 2.45 2.95 2 3.5 2H5.05499Z" stroke="#666666" stroke-width="0.75" stroke-miterlimit="10" stroke-linecap="round" stroke-linejoin="round"/>
<path d="M7 4V6.5" stroke="#666666" stroke-width="0.75" stroke-miterlimit="10" stroke-linecap="round" stroke-linejoin="round"/>
<path d="M9 4V6.5" stroke="#666666" stroke-width="0.75" stroke-miterlimit="10" stroke-linecap="round" stroke-linejoin="round"/>
<path d="M8.5 8.5H7.5C7.225 8.5 7 8.725 7 9V11H9V9C9 8.725 8.775 8.5 8.5 8.5Z" stroke="#666666" stroke-width="0.75" stroke-miterlimit="10" stroke-linecap="round" stroke-linejoin="round"/>
<path d="M3 6.5V8.5" stroke="#666666" stroke-width="0.75" stroke-miterlimit="10" stroke-linecap="round" stroke-linejoin="round"/>
<path d="M5 9.5V2.5C5 1.5 5.5 1 6.5 1H9.5C10.5 1 11 1.5 11 2.5V9.5C11 10.5 10.5 11 9.5 11H6.5C5.5 11 5 10.5 5 9.5Z" stroke="#666666" stroke-width="0.75" stroke-miterlimit="10" stroke-linecap="round" stroke-linejoin="round"/>
</svg>
