<?xml version="1.0" encoding="utf-8"?>
<!-- Generator: Adobe Illustrator 23.0.5, SVG Export Plug-In . SVG Version: 6.00 Build 0)  -->
<svg version="1.1" id="Layer_1" xmlns="http://www.w3.org/2000/svg" xmlns:xlink="http://www.w3.org/1999/xlink" x="0px" y="0px"
	 viewBox="0 0 647 568" style="enable-background:new 0 0 647 568;" xml:space="preserve">
<style type="text/css">
	.st0{fill:#D8DBEA;}
	.st1{fill:#F1F2F7;}
	.st2{fill:#D8DBEA;stroke:#FFFFFF;stroke-width:6.1603;}
	.st3{fill:#FFFFFF;}
	.st4{fill:#E9EAEC;}
	.st5{fill:#D2D8DF;}
	.st6{fill-rule:evenodd;clip-rule:evenodd;fill:#EBECEF;}
	.st7{fill-rule:evenodd;clip-rule:evenodd;fill:#D1D9E0;}
	.st8{fill:#007EE5;}
</style>
<path class="st0" d="M235.7,231.2v38.9l8.8,10.6l8.8-10.6l8.8,10.6l8.9-10.6v-38.9c0-4.7-1.9-9.2-5.2-12.5s-7.8-5.2-12.5-5.2
	s-9.2,1.9-12.5,5.2S235.7,226.5,235.7,231.2z"/>
<path class="st1" d="M271.1,383.4l8.8,10.6l8.9-10.6l8.8,10.6l8.8-10.6l8.9,10.6l8.8-10.6L333,394l8.9-10.6l8.8,10.6l8.8-10.6
	l8.8,10.6l8.8-10.6l8.8,10.6l8.8-10.6V231.2c0-2.3-0.5-4.6-1.3-6.8c-0.9-2.1-2.2-4.1-3.8-5.7c-1.6-1.6-3.6-2.9-5.7-3.8
	c-2.1-0.9-4.4-1.3-6.8-1.3H253.4c4.7,0,9.2,1.9,12.5,5.2s5.2,7.8,5.2,12.5V383.4z"/>
<path class="st0" d="M341.9,291.4h-24.8c-0.9,0-1.8-0.4-2.5-1c-0.7-0.7-1-1.6-1-2.5c0-0.9,0.4-1.8,1-2.5c0.7-0.7,1.6-1,2.5-1h24.8
	c0.9,0,1.8,0.4,2.5,1c0.7,0.7,1,1.6,1,2.5c0,0.9-0.4,1.8-1,2.5C343.7,291,342.8,291.4,341.9,291.4z M349,312.6h-31.9
	c-0.9,0-1.8-0.4-2.5-1c-0.7-0.7-1-1.6-1-2.5c0-0.9,0.4-1.8,1-2.5c0.7-0.7,1.6-1,2.5-1H349c0.9,0,1.8,0.4,2.5,1s1,1.6,1,2.5
	c0,0.9-0.4,1.8-1,2.5S349.9,312.6,349,312.6z M370.2,248.9h-53.1c-0.9,0-1.8-0.4-2.5-1c-0.7-0.7-1-1.6-1-2.5c0-0.9,0.4-1.8,1-2.5
	c0.7-0.7,1.6-1,2.5-1h53.1c0.9,0,1.8,0.4,2.5,1c0.7,0.7,1,1.6,1,2.5c0,0.9-0.4,1.8-1,2.5C372,248.5,371.1,248.9,370.2,248.9z
	 M349,270.2h-31.9c-0.9,0-1.8-0.4-2.5-1c-0.7-0.7-1-1.6-1-2.5s0.4-1.8,1-2.5c0.7-0.7,1.6-1,2.5-1H349c0.9,0,1.8,0.4,2.5,1
	s1,1.6,1,2.5s-0.4,1.8-1,2.5S349.9,270.2,349,270.2z M302.9,312.6h-14.2c-0.9,0-1.8-0.4-2.5-1c-0.7-0.7-1-1.6-1-2.5
	c0-0.9,0.4-1.8,1-2.5c0.7-0.7,1.6-1,2.5-1h14.2c0.9,0,1.8,0.4,2.5,1c0.7,0.7,1,1.6,1,2.5c0,0.9-0.4,1.8-1,2.5
	C304.8,312.3,303.9,312.6,302.9,312.6z M327.7,333.9h-10.6c-0.9,0-1.8-0.4-2.5-1c-0.7-0.7-1-1.6-1-2.5c0-0.9,0.4-1.8,1-2.5
	c0.7-0.7,1.6-1,2.5-1h10.6c0.9,0,1.8,0.4,2.5,1s1,1.6,1,2.5c0,0.9-0.4,1.8-1,2.5C329.6,333.5,328.7,333.9,327.7,333.9z M320.6,355.1
	h-3.5c-0.9,0-1.8-0.4-2.5-1c-0.7-0.7-1-1.6-1-2.5s0.4-1.8,1-2.5c0.7-0.7,1.6-1,2.5-1h3.5c0.9,0,1.8,0.4,2.5,1s1,1.6,1,2.5
	s-0.4,1.8-1,2.5S321.6,355.1,320.6,355.1z M302.9,333.9h-14.2c-0.9,0-1.8-0.4-2.5-1c-0.7-0.7-1-1.6-1-2.5c0-0.9,0.4-1.8,1-2.5
	c0.7-0.7,1.6-1,2.5-1h14.2c0.9,0,1.8,0.4,2.5,1c0.7,0.7,1,1.6,1,2.5c0,0.9-0.4,1.8-1,2.5C304.8,333.5,303.9,333.9,302.9,333.9z
	 M302.9,355.1h-14.2c-0.9,0-1.8-0.4-2.5-1c-0.7-0.7-1-1.6-1-2.5s0.4-1.8,1-2.5c0.7-0.7,1.6-1,2.5-1h14.2c0.9,0,1.8,0.4,2.5,1
	c0.7,0.7,1,1.6,1,2.5s-0.4,1.8-1,2.5C304.8,354.7,303.9,355.1,302.9,355.1z M302.9,248.9h-14.2c-0.9,0-1.8-0.4-2.5-1
	c-0.7-0.7-1-1.6-1-2.5c0-0.9,0.4-1.8,1-2.5c0.7-0.7,1.6-1,2.5-1h14.2c0.9,0,1.8,0.4,2.5,1c0.7,0.7,1,1.6,1,2.5c0,0.9-0.4,1.8-1,2.5
	C304.8,248.5,303.9,248.9,302.9,248.9z M302.9,270.2h-14.2c-0.9,0-1.8-0.4-2.5-1c-0.7-0.7-1-1.6-1-2.5s0.4-1.8,1-2.5
	c0.7-0.7,1.6-1,2.5-1h14.2c0.9,0,1.8,0.4,2.5,1c0.7,0.7,1,1.6,1,2.5s-0.4,1.8-1,2.5C304.8,269.8,303.9,270.2,302.9,270.2z
	 M302.9,291.4h-14.2c-0.9,0-1.8-0.4-2.5-1c-0.7-0.7-1-1.6-1-2.5c0-0.9,0.4-1.8,1-2.5c0.7-0.7,1.6-1,2.5-1h14.2c0.9,0,1.8,0.4,2.5,1
	c0.7,0.7,1,1.6,1,2.5c0,0.9-0.4,1.8-1,2.5C304.8,291,303.9,291.4,302.9,291.4z"/>
<path class="st2" d="M387.9,400.6c19.3,0,34.9-15.6,34.9-34.9c0-19.3-15.6-34.9-34.9-34.9c-19.3,0-34.9,15.6-34.9,34.9
	C353,385,368.6,400.6,387.9,400.6z"/>
<path class="st3" d="M400,357.2l-1.2,4.6h-23.2l1.3-4.6H400z M388.3,384.2L376,369.5l0-3.9h6.1c1.4,0,2.7-0.2,3.6-0.7
	c1-0.5,1.7-1.2,2.2-2c0.5-0.9,0.8-1.9,0.8-3.1c0-1.8-0.5-3.2-1.6-4.3c-1-1.1-2.7-1.6-5-1.6h-6.6l1.4-5.4h5.2c2.9,0,5.4,0.5,7.3,1.4
	c1.9,0.9,3.4,2.2,4.3,3.8c1,1.6,1.5,3.6,1.5,5.8c0,1.9-0.4,3.7-1.1,5.2c-0.7,1.5-1.8,2.8-3.4,3.8c-1.5,1-3.5,1.6-6,2l-0.2,0.1
	l11.1,13.6v0.3H388.3z M400,348.4l-1.3,4.7l-18.8-0.1l1.3-4.6H400z"/>
<path class="st4" d="M586.8,317.2c0-2.1,0.1-4.2,0.1-6.3h-2.5c0,2.1,0,4.2-0.1,6.3L586.8,317.2z M585,342.3
	c0.5-4.1,0.9-8.3,1.2-12.5l-2.5-0.2c-0.3,4.2-0.7,8.3-1.2,12.4L585,342.3z M580.7,367.1c0.9-4.1,1.7-8.2,2.4-12.4l-2.4-0.4
	c-0.7,4.1-1.5,8.2-2.4,12.2L580.7,367.1z M574,391.4c1.3-4,2.5-8,3.7-12l-2.4-0.7c-1.1,4-2.3,8-3.6,11.9L574,391.4z M564.9,414.9
	c1.7-3.8,3.3-7.7,4.8-11.6l-2.3-0.9c-1.5,3.9-3.1,7.7-4.8,11.5L564.9,414.9z M553.6,437.3c2.1-3.6,4.1-7.3,5.9-11.1l-2.2-1.1
	c-1.9,3.7-3.8,7.4-5.9,11L553.6,437.3z M540.1,458.6c2.4-3.4,4.8-6.9,7-10.5l-2.1-1.3c-2.2,3.5-4.5,7-6.9,10.4L540.1,458.6z
	 M524.6,478.4c2.7-3.2,5.4-6.4,8-9.7l-1.9-1.5c-2.6,3.3-5.2,6.5-7.9,9.6L524.6,478.4z M507.2,496.7c3-2.9,6-5.9,8.9-8.9l-1.8-1.7
	c-2.9,3-5.8,5.9-8.8,8.8L507.2,496.7z M488.2,513.1c3.3-2.6,6.6-5.3,9.7-8l-1.6-1.9c-3.1,2.7-6.4,5.4-9.6,7.9L488.2,513.1z
	 M467.6,527.6c3.5-2.3,7-4.6,10.5-7l-1.4-2c-3.4,2.4-6.8,4.7-10.4,6.9L467.6,527.6z M445.7,540c3.8-1.9,7.5-3.9,11.1-5.9l-1.2-2.1
	c-3.6,2-7.3,4-11,5.9L445.7,540z M422.7,550.3c3.9-1.5,7.8-3.1,11.6-4.8l-1-2.2c-3.8,1.7-7.6,3.3-11.5,4.8L422.7,550.3z
	 M398.8,558.2c4.1-1.1,8.1-2.3,12.1-3.7l-0.8-2.3c-3.9,1.3-7.9,2.5-11.9,3.6L398.8,558.2z M374.2,563.7c4.2-0.7,8.3-1.5,12.4-2.4
	l-0.5-2.4c-4,0.9-8.1,1.7-12.2,2.4L374.2,563.7z M349.2,566.7c4.2-0.3,8.4-0.7,12.5-1.2l-0.3-2.4c-4.1,0.5-8.2,0.9-12.4,1.2
	L349.2,566.7z M330.3,567.4c2.1,0,4.2,0,6.3-0.1l-0.1-2.5c-2.1,0-4.2,0.1-6.3,0.1V567.4z M324,567.3c2.1,0.1,4.2,0.1,6.3,0.1v-2.5
	c-2.1,0-4.2,0-6.3-0.1L324,567.3z M298.9,565.5c4.1,0.5,8.3,0.9,12.5,1.2l0.2-2.5c-4.2-0.3-8.3-0.7-12.4-1.2L298.9,565.5z
	 M274.1,561.2c4.1,0.9,8.2,1.7,12.4,2.4l0.4-2.4c-4.1-0.7-8.2-1.5-12.2-2.4L274.1,561.2z M249.9,554.5c4,1.3,8,2.5,12.1,3.7l0.7-2.4
	c-4-1.1-8-2.3-11.9-3.6L249.9,554.5z M226.4,545.4c3.8,1.7,7.7,3.3,11.6,4.8l0.9-2.3c-3.9-1.5-7.7-3.1-11.5-4.8L226.4,545.4z
	 M203.9,534.1c3.6,2.1,7.3,4.1,11.1,5.9l1.1-2.2c-3.7-1.9-7.4-3.8-11-5.9L203.9,534.1z M182.6,520.6c3.4,2.4,6.9,4.8,10.5,7l1.3-2.1
	c-3.5-2.2-7-4.5-10.4-6.9L182.6,520.6z M162.8,505.1c3.2,2.7,6.4,5.4,9.7,8l1.5-1.9c-3.3-2.6-6.5-5.2-9.6-7.9L162.8,505.1z
	 M144.6,487.8c2.9,3,5.9,6,8.9,8.9l1.7-1.8c-3-2.9-5.9-5.8-8.8-8.8L144.6,487.8z M128.1,468.7c2.6,3.3,5.3,6.6,8,9.7l1.9-1.6
	c-2.7-3.1-5.4-6.4-7.9-9.6L128.1,468.7z M113.6,448.1c2.3,3.5,4.6,7,7,10.5l2-1.4c-2.4-3.4-4.7-6.8-6.9-10.4L113.6,448.1z
	 M101.2,426.2c1.9,3.8,3.9,7.5,5.9,11.1l2.1-1.2c-2-3.6-4-7.3-5.9-11L101.2,426.2z M91,403.2c1.5,3.9,3.1,7.8,4.8,11.6l2.2-1
	c-1.7-3.8-3.3-7.6-4.8-11.5L91,403.2z M83.1,379.3c1.1,4.1,2.3,8.1,3.7,12.1l2.3-0.8c-1.3-3.9-2.5-7.9-3.6-11.9L83.1,379.3z
	 M77.6,354.8c0.7,4.2,1.5,8.3,2.4,12.4l2.4-0.5c-0.9-4-1.7-8.1-2.4-12.2L77.6,354.8z M74.5,329.8c0.3,4.2,0.7,8.4,1.2,12.5l2.4-0.3
	c-0.5-4.1-0.9-8.2-1.2-12.4L74.5,329.8z M73.8,310.9c0,2.1,0,4.2,0.1,6.3l2.5-0.1c-0.1-2.1-0.1-4.2-0.1-6.3H73.8z M73.9,304.6
	c-0.1,2.1-0.1,4.2-0.1,6.3h2.5c0-2.1,0-4.2,0.1-6.3L73.9,304.6z M75.7,279.5c-0.5,4.1-0.9,8.3-1.2,12.5l2.5,0.2
	c0.3-4.2,0.7-8.3,1.2-12.4L75.7,279.5z M80,254.7c-0.9,4.1-1.7,8.2-2.4,12.4l2.4,0.4c0.7-4.1,1.5-8.2,2.4-12.2L80,254.7z
	 M86.7,230.4c-1.3,4-2.5,8-3.7,12.1l2.4,0.7c1.1-4,2.3-8,3.6-11.9L86.7,230.4z M95.8,206.9c-1.7,3.8-3.3,7.7-4.8,11.6l2.3,0.9
	c1.5-3.9,3.1-7.7,4.8-11.5L95.8,206.9z M107.1,184.4c-2.1,3.6-4.1,7.3-5.9,11.1l2.2,1.1c1.9-3.7,3.8-7.4,5.9-11L107.1,184.4z
	 M120.6,163.2c-2.4,3.4-4.8,6.9-7,10.5l2.1,1.3c2.2-3.5,4.5-7,6.9-10.4L120.6,163.2z M136.1,143.3c-2.7,3.2-5.4,6.4-8,9.7l1.9,1.5
	c2.6-3.3,5.2-6.5,7.9-9.6L136.1,143.3z M153.5,125.1c-3,2.9-6,5.9-8.9,8.9l1.8,1.7c2.9-3,5.8-5.9,8.8-8.8L153.5,125.1z M172.5,108.6
	c-3.3,2.6-6.6,5.3-9.7,8l1.6,1.9c3.1-2.7,6.4-5.4,9.6-7.9L172.5,108.6z M193.1,94.1c-3.5,2.3-7,4.6-10.5,7l1.4,2
	c3.4-2.4,6.8-4.7,10.4-6.9L193.1,94.1z M215,81.7c-3.8,1.9-7.5,3.9-11.1,5.9l1.2,2.1c3.6-2,7.3-4,11-5.9L215,81.7z M238,71.5
	c-3.9,1.5-7.8,3.1-11.6,4.8l1,2.2c3.8-1.7,7.6-3.3,11.5-4.8L238,71.5z M261.9,63.6c-4.1,1.1-8.1,2.3-12.1,3.7l0.8,2.3
	c3.9-1.3,7.9-2.5,11.9-3.6L261.9,63.6z M286.5,58.1c-4.2,0.7-8.3,1.5-12.4,2.4l0.5,2.4c4-0.9,8.1-1.7,12.2-2.4L286.5,58.1z
	 M311.5,55.1c-4.2,0.3-8.4,0.7-12.5,1.2l0.3,2.4c4.1-0.5,8.2-0.9,12.4-1.2L311.5,55.1z M330.3,54.4c-2.1,0-4.2,0-6.3,0.1l0.1,2.5
	c2.1-0.1,4.2-0.1,6.3-0.1V54.4z M336.7,54.4c-2.1-0.1-4.2-0.1-6.3-0.1v2.5c2.1,0,4.2,0,6.3,0.1L336.7,54.4z M361.8,56.3
	c-4.1-0.5-8.3-0.9-12.5-1.2l-0.2,2.5c4.2,0.3,8.3,0.7,12.4,1.2L361.8,56.3z M386.6,60.5c-4.1-0.9-8.2-1.7-12.4-2.4l-0.4,2.4
	c4.1,0.7,8.2,1.5,12.2,2.4L386.6,60.5z M410.8,67.2c-4-1.3-8-2.5-12.1-3.7l-0.7,2.4c4,1.1,8,2.3,11.9,3.6L410.8,67.2z M434.3,76.3
	c-3.8-1.7-7.7-3.3-11.6-4.8l-0.9,2.3c3.9,1.5,7.7,3.1,11.5,4.8L434.3,76.3z M456.8,87.7c-3.6-2.1-7.3-4.1-11.1-5.9l-1.1,2.2
	c3.7,1.9,7.4,3.8,11,5.9L456.8,87.7z M478.1,101.1c-3.4-2.4-6.9-4.8-10.5-7l-1.3,2.1c3.5,2.2,7,4.5,10.4,6.9L478.1,101.1z
	 M497.9,116.6c-3.2-2.7-6.4-5.4-9.7-8l-1.5,1.9c3.3,2.6,6.5,5.2,9.6,7.9L497.9,116.6z M516.1,134c-2.9-3-5.9-6-8.9-8.9l-1.7,1.8
	c3,2.9,6,5.8,8.8,8.8L516.1,134z M532.6,153.1c-2.6-3.3-5.3-6.6-8-9.7l-1.9,1.6c2.7,3.1,5.4,6.4,7.9,9.6L532.6,153.1z M547.1,173.6
	c-2.3-3.5-4.6-7-7-10.5l-2,1.4c2.4,3.4,4.7,6.8,6.9,10.4L547.1,173.6z M559.5,195.5c-1.9-3.8-3.9-7.5-5.9-11.1l-2.1,1.2
	c2,3.6,4,7.3,5.9,11L559.5,195.5z M569.7,218.5c-1.5-3.9-3.1-7.8-4.8-11.6l-2.2,1c1.7,3.8,3.3,7.6,4.8,11.5L569.7,218.5z
	 M577.6,242.4c-1.1-4.1-2.3-8.1-3.7-12.1l-2.3,0.8c1.3,3.9,2.5,7.9,3.6,11.9L577.6,242.4z M583.1,267c-0.7-4.2-1.5-8.3-2.4-12.4
	l-2.4,0.5c0.9,4,1.7,8.1,2.4,12.2L583.1,267z M586.2,292c-0.3-4.2-0.7-8.4-1.2-12.5l-2.4,0.3c0.5,4.1,0.9,8.2,1.2,12.4L586.2,292z
	 M586.9,310.9c0-2.1,0-4.2-0.1-6.3l-2.5,0.1c0.1,2.1,0.1,4.2,0.1,6.3H586.9z"/>
<path class="st4" d="M521,317.1c0.1-2.1,0.1-4.2,0.1-6.3h-2.5c0,2.1,0,4.1-0.1,6.2L521,317.1z M518.6,342c0.7-4.1,1.2-8.2,1.6-12.4
	l-2.4-0.2c-0.4,4.1-0.9,8.2-1.6,12.2L518.6,342z M513,366.3c1.2-4,2.3-8,3.2-12.1l-2.4-0.6c-0.9,4-2,8-3.2,11.9L513,366.3z
	 M504.2,389.6c1.7-3.8,3.3-7.6,4.8-11.5l-2.3-0.9c-1.5,3.9-3,7.7-4.7,11.4L504.2,389.6z M492.4,411.6c2.2-3.5,4.3-7.1,6.3-10.8
	l-2.2-1.2c-1.9,3.6-4,7.2-6.2,10.7L492.4,411.6z M477.8,431.9c2.6-3.2,5.2-6.5,7.6-9.9l-2-1.4c-2.4,3.3-4.9,6.6-7.5,9.8L477.8,431.9
	z M460.8,450.1c3-2.8,6-5.8,8.8-8.8l-1.8-1.7c-2.8,3-5.7,5.9-8.7,8.7L460.8,450.1z M441.5,466c3.4-2.4,6.7-5,9.9-7.6l-1.6-1.9
	c-3.2,2.6-6.4,5.1-9.8,7.5L441.5,466z M420.3,479.2c3.7-2,7.3-4.1,10.8-6.3l-1.3-2.1c-3.5,2.2-7,4.2-10.7,6.2L420.3,479.2z
	 M397.6,489.5c3.9-1.5,7.8-3.1,11.5-4.8l-1-2.2c-3.7,1.7-7.5,3.3-11.4,4.7L397.6,489.5z M373.7,496.7c4.1-0.9,8.1-2,12.1-3.2
	l-0.7-2.4c-3.9,1.2-7.9,2.2-11.9,3.2L373.7,496.7z M349,500.8c4.2-0.4,8.3-0.9,12.4-1.6l-0.4-2.4c-4,0.7-8.1,1.2-12.2,1.6L349,500.8
	z M330.3,501.7c2.1,0,4.2,0,6.3-0.1l-0.1-2.5c-2.1,0.1-4.1,0.1-6.2,0.1V501.7z M324.1,501.6c2.1,0.1,4.2,0.1,6.3,0.1v-2.5
	c-2.1,0-4.1,0-6.2-0.1L324.1,501.6z M299.2,499.2c4.1,0.7,8.2,1.2,12.4,1.6l0.2-2.4c-4.1-0.4-8.2-0.9-12.2-1.6L299.2,499.2z
	 M274.9,493.5c4,1.2,8,2.3,12.1,3.2l0.6-2.4c-4-0.9-8-2-11.9-3.2L274.9,493.5z M251.6,484.7c3.8,1.7,7.6,3.3,11.5,4.8l0.9-2.3
	c-3.9-1.5-7.7-3-11.4-4.7L251.6,484.7z M229.6,472.9c3.5,2.2,7.1,4.3,10.8,6.3l1.2-2.2c-3.6-1.9-7.2-4-10.7-6.2L229.6,472.9z
	 M209.3,458.4c3.2,2.6,6.5,5.2,9.9,7.6l1.4-2c-3.3-2.4-6.6-4.9-9.8-7.5L209.3,458.4z M191.1,441.3c2.8,3,5.8,6,8.8,8.8l1.7-1.8
	c-3-2.8-5.9-5.7-8.7-8.7L191.1,441.3z M175.2,422c2.4,3.4,5,6.7,7.6,9.9l1.9-1.6c-2.6-3.2-5.1-6.4-7.5-9.8L175.2,422z M162,400.8
	c2,3.7,4.1,7.3,6.3,10.8l2.1-1.3c-2.2-3.5-4.2-7-6.2-10.7L162,400.8z M151.7,378.1c1.5,3.9,3.1,7.8,4.8,11.5l2.2-1
	c-1.7-3.7-3.3-7.5-4.7-11.4L151.7,378.1z M144.5,354.2c0.9,4.1,2,8.1,3.2,12.1l2.4-0.7c-1.2-3.9-2.2-7.9-3.2-11.9L144.5,354.2z
	 M140.4,329.6c0.4,4.2,0.9,8.3,1.6,12.4l2.4-0.4c-0.7-4-1.2-8.1-1.6-12.2L140.4,329.6z M139.5,310.9c0,2.1,0,4.2,0.1,6.3l2.5-0.1
	c-0.1-2.1-0.1-4.1-0.1-6.2H139.5z M139.6,304.6c-0.1,2.1-0.1,4.2-0.1,6.3h2.5c0-2.1,0-4.1,0.1-6.2L139.6,304.6z M142.1,279.8
	c-0.7,4.1-1.2,8.2-1.6,12.4l2.4,0.2c0.4-4.1,0.9-8.2,1.6-12.2L142.1,279.8z M147.7,255.5c-1.2,4-2.3,8-3.2,12.1l2.4,0.6
	c0.9-4,2-8,3.2-11.9L147.7,255.5z M156.5,232.1c-1.7,3.8-3.3,7.6-4.8,11.5l2.3,0.9c1.5-3.9,3-7.7,4.7-11.4L156.5,232.1z
	 M168.3,210.1c-2.2,3.5-4.3,7.1-6.3,10.8l2.2,1.2c1.9-3.6,4-7.2,6.2-10.7L168.3,210.1z M182.8,189.8c-2.6,3.2-5.2,6.5-7.6,9.9l2,1.4
	c2.4-3.3,4.9-6.6,7.5-9.8L182.8,189.8z M199.9,171.6c-3,2.8-6,5.8-8.8,8.8l1.8,1.7c2.8-3,5.7-5.9,8.7-8.7L199.9,171.6z M219.2,155.8
	c-3.4,2.4-6.7,5-9.9,7.6l1.6,1.9c3.2-2.6,6.4-5.1,9.8-7.5L219.2,155.8z M240.4,142.6c-3.7,2-7.3,4.1-10.8,6.3l1.3,2.1
	c3.5-2.2,7-4.2,10.7-6.2L240.4,142.6z M263.1,132.3c-3.9,1.5-7.8,3.1-11.5,4.8l1,2.2c3.7-1.7,7.5-3.3,11.4-4.7L263.1,132.3z
	 M287,125c-4.1,0.9-8.1,2-12.1,3.2l0.7,2.4c3.9-1.2,7.9-2.2,11.9-3.2L287,125z M311.6,121c-4.2,0.4-8.3,0.9-12.4,1.6l0.4,2.4
	c4-0.7,8.1-1.2,12.2-1.6L311.6,121z M330.3,120.1c-2.1,0-4.2,0-6.3,0.1l0.1,2.5c2.1-0.1,4.1-0.1,6.2-0.1V120.1z M336.6,120.2
	c-2.1-0.1-4.2-0.1-6.3-0.1v2.5c2.1,0,4.1,0,6.2,0.1L336.6,120.2z M361.4,122.6c-4.1-0.7-8.2-1.2-12.4-1.6l-0.2,2.4
	c4.1,0.4,8.2,0.9,12.2,1.6L361.4,122.6z M385.7,128.2c-4-1.2-8-2.3-12.1-3.2l-0.6,2.4c4,0.9,8,2,11.9,3.2L385.7,128.2z M409.1,137
	c-3.8-1.7-7.6-3.3-11.5-4.8l-0.9,2.3c3.9,1.5,7.7,3,11.4,4.7L409.1,137z M431.1,148.8c-3.5-2.2-7.1-4.3-10.8-6.3l-1.2,2.2
	c3.6,1.9,7.2,4,10.7,6.2L431.1,148.8z M451.4,163.4c-3.2-2.6-6.5-5.2-9.9-7.6l-1.4,2c3.3,2.4,6.6,4.9,9.8,7.5L451.4,163.4z
	 M469.6,180.4c-2.8-3-5.8-6-8.8-8.8l-1.7,1.8c3,2.8,5.9,5.7,8.7,8.7L469.6,180.4z M485.4,199.7c-2.4-3.4-5-6.7-7.6-9.9l-1.9,1.6
	c2.6,3.2,5.1,6.4,7.5,9.8L485.4,199.7z M498.6,220.9c-2-3.7-4.1-7.3-6.3-10.8l-2.1,1.3c2.2,3.5,4.2,7,6.2,10.7L498.6,220.9z
	 M509,243.6c-1.5-3.9-3.1-7.8-4.8-11.5l-2.2,1c1.7,3.7,3.3,7.5,4.7,11.4L509,243.6z M516.2,267.5c-0.9-4.1-2-8.1-3.2-12.1l-2.4,0.7
	c1.2,3.9,2.2,7.9,3.2,11.9L516.2,267.5z M520.2,292.2c-0.4-4.2-0.9-8.3-1.6-12.4l-2.4,0.4c0.7,4,1.2,8.1,1.6,12.2L520.2,292.2z
	 M521.1,310.9c0-2.1,0-4.2-0.1-6.3l-2.5,0.1c0.1,2,0.1,4.1,0.1,6.2H521.1z"/>
<path class="st5" d="M26.9,344l-4.7-0.1l-0.1,2.5l4.7,0.1L26.9,344z M22.1,343.9c-0.3,0-0.6,0.1-0.9,0.3c-0.2,0.2-0.4,0.5-0.4,0.9
	c0,0.3,0.1,0.6,0.3,0.9c0.2,0.2,0.5,0.4,0.9,0.4L22.1,343.9z M26.8,346.5c0.3,0,0.6-0.1,0.9-0.3c0.2-0.2,0.4-0.5,0.4-0.9
	c0-0.3-0.1-0.6-0.3-0.9c-0.2-0.2-0.5-0.4-0.9-0.4L26.8,346.5z"/>
<path class="st5" d="M22.6,335.4l-3.4,3.2l1.7,1.8l3.4-3.2L22.6,335.4z M19.2,338.5c-0.1,0.1-0.2,0.2-0.3,0.4
	c-0.1,0.1-0.1,0.3-0.1,0.5c0,0.2,0,0.3,0.1,0.5c0.1,0.2,0.1,0.3,0.3,0.4c0.1,0.1,0.2,0.2,0.4,0.3c0.1,0.1,0.3,0.1,0.5,0.1
	c0.2,0,0.3,0,0.5-0.1c0.2-0.1,0.3-0.1,0.4-0.3L19.2,338.5z M24.3,337.2c0.1-0.1,0.2-0.2,0.3-0.4c0.1-0.1,0.1-0.3,0.1-0.5
	c0-0.2,0-0.3-0.1-0.5c-0.1-0.2-0.1-0.3-0.3-0.4c-0.1-0.1-0.2-0.2-0.4-0.3c-0.1-0.1-0.3-0.1-0.5-0.1c-0.2,0-0.3,0-0.5,0.1
	c-0.2,0.1-0.3,0.1-0.4,0.3L24.3,337.2z"/>
<path class="st5" d="M13.3,332.1l-0.1,4.6l2.5,0l0.1-4.6L13.3,332.1z M13.3,336.8c0,0.2,0,0.3,0.1,0.5c0.1,0.1,0.1,0.3,0.3,0.4
	c0.1,0.1,0.2,0.2,0.4,0.3c0.1,0.1,0.3,0.1,0.5,0.1c0.2,0,0.3,0,0.5-0.1c0.2-0.1,0.3-0.1,0.4-0.3c0.1-0.1,0.2-0.2,0.3-0.4
	c0.1-0.1,0.1-0.3,0.1-0.5L13.3,336.8z M15.8,332.2c0-0.2,0-0.3-0.1-0.5c-0.1-0.1-0.1-0.3-0.3-0.4c-0.1-0.1-0.2-0.2-0.4-0.3
	c-0.1-0.1-0.3-0.1-0.5-0.1c-0.2,0-0.3,0-0.5,0.1c-0.2,0.1-0.3,0.1-0.4,0.3c-0.1,0.1-0.2,0.2-0.3,0.4c-0.1,0.1-0.1,0.3-0.1,0.5
	L15.8,332.2z"/>
<path class="st5" d="M4.6,336.2l3.3,3.4l1.8-1.7l-3.3-3.4L4.6,336.2z M7.9,339.6c0.1,0.1,0.2,0.2,0.4,0.3c0.1,0.1,0.3,0.1,0.5,0.1
	c0.2,0,0.3,0,0.5-0.1c0.2-0.1,0.3-0.1,0.4-0.3c0.1-0.1,0.2-0.2,0.3-0.4c0.1-0.1,0.1-0.3,0.1-0.5c0-0.2,0-0.3-0.1-0.5
	c-0.1-0.1-0.1-0.3-0.3-0.4L7.9,339.6z M6.3,334.5c-0.1-0.1-0.2-0.2-0.4-0.3c-0.1-0.1-0.3-0.1-0.5-0.1c-0.2,0-0.3,0-0.5,0.1
	c-0.2,0.1-0.3,0.1-0.4,0.3c-0.1,0.1-0.2,0.2-0.3,0.4c-0.1,0.1-0.1,0.3-0.1,0.5c0,0.2,0,0.3,0.1,0.5s0.1,0.3,0.3,0.4L6.3,334.5z"/>
<path class="st5" d="M1.4,345.2l4.7,0.1l0.1-2.5l-4.7-0.1L1.4,345.2z M6.1,345.3c0.2,0,0.3,0,0.5-0.1c0.2-0.1,0.3-0.1,0.4-0.3
	s0.2-0.2,0.3-0.4c0.1-0.1,0.1-0.3,0.1-0.5c0-0.2,0-0.3-0.1-0.5c-0.1-0.2-0.1-0.3-0.3-0.4c-0.1-0.1-0.2-0.2-0.4-0.3
	c-0.1-0.1-0.3-0.1-0.5-0.1L6.1,345.3z M1.4,342.7c-0.3,0-0.6,0.1-0.9,0.3c-0.2,0.2-0.4,0.5-0.4,0.9c0,0.3,0.1,0.6,0.3,0.9
	c0.2,0.2,0.5,0.4,0.9,0.4L1.4,342.7z"/>
<path class="st5" d="M5.6,353.8l3.4-3.2l-1.7-1.8L3.9,352L5.6,353.8z M9,350.7c0.1-0.1,0.2-0.2,0.3-0.4c0.1-0.1,0.1-0.3,0.1-0.5
	c0-0.2,0-0.3-0.1-0.5c-0.1-0.2-0.1-0.3-0.3-0.4c-0.1-0.1-0.2-0.2-0.4-0.3c-0.1-0.1-0.3-0.1-0.5-0.1c-0.2,0-0.3,0-0.5,0.1
	c-0.2,0.1-0.3,0.1-0.4,0.3L9,350.7z M3.9,352c-0.1,0.1-0.2,0.2-0.3,0.4c-0.1,0.1-0.1,0.3-0.1,0.5c0,0.2,0,0.3,0.1,0.5
	c0.1,0.2,0.1,0.3,0.3,0.4c0.1,0.1,0.2,0.2,0.4,0.3c0.1,0.1,0.3,0.1,0.5,0.1c0.2,0,0.3,0,0.5-0.1s0.3-0.1,0.4-0.3L3.9,352z"/>
<path class="st5" d="M14.9,357.1l0.1-4.6l-2.5,0l-0.1,4.6L14.9,357.1z M15,352.4c0-0.2,0-0.3-0.1-0.5c-0.1-0.1-0.1-0.3-0.3-0.4
	s-0.2-0.2-0.4-0.3s-0.3-0.1-0.5-0.1c-0.2,0-0.3,0-0.5,0.1c-0.2,0.1-0.3,0.1-0.4,0.3s-0.2,0.2-0.3,0.4c-0.1,0.1-0.1,0.3-0.1,0.5
	L15,352.4z M12.4,357c0,0.2,0,0.3,0.1,0.5c0.1,0.1,0.1,0.3,0.3,0.4c0.2,0.2,0.5,0.4,0.9,0.4c0.3,0,0.6-0.1,0.9-0.3
	c0.2-0.2,0.4-0.5,0.4-0.9L12.4,357z"/>
<path class="st5" d="M23.7,353l-3.3-3.4l-1.8,1.7l3.3,3.4L23.7,353z M20.4,349.6c-0.1-0.1-0.2-0.2-0.4-0.3c-0.1-0.1-0.3-0.1-0.5-0.1
	c-0.2,0-0.3,0-0.5,0.1c-0.2,0.1-0.3,0.1-0.4,0.3c-0.1,0.1-0.2,0.2-0.3,0.4c-0.1,0.1-0.1,0.3-0.1,0.5c0,0.2,0,0.3,0.1,0.5
	c0.1,0.1,0.1,0.3,0.3,0.4L20.4,349.6z M21.9,354.7c0.2,0.2,0.5,0.4,0.9,0.4c0.3,0,0.6-0.1,0.9-0.4c0.2-0.2,0.4-0.5,0.4-0.9
	c0-0.3-0.1-0.6-0.3-0.9L21.9,354.7z"/>
<path class="st5" d="M644,278.3l-2.1,2.3l1.8,1.7l2.1-2.3L644,278.3z M642,280.6c-0.1,0.1-0.2,0.3-0.3,0.4c-0.1,0.2-0.1,0.3-0.1,0.5
	c0,0.2,0,0.3,0.1,0.5c0.1,0.1,0.2,0.3,0.3,0.4c0.1,0.1,0.3,0.2,0.4,0.3c0.2,0.1,0.3,0.1,0.5,0.1c0.2,0,0.3,0,0.5-0.1
	c0.1-0.1,0.3-0.2,0.4-0.3L642,280.6z M645.8,280c0.1-0.1,0.2-0.3,0.3-0.4c0.1-0.2,0.1-0.3,0.1-0.5c0-0.2,0-0.3-0.1-0.5
	c-0.1-0.1-0.2-0.3-0.3-0.4c-0.1-0.1-0.3-0.2-0.4-0.3c-0.2-0.1-0.3-0.1-0.5-0.1c-0.2,0-0.3,0-0.5,0.1c-0.1,0.1-0.3,0.2-0.4,0.3
	L645.8,280z"/>
<path class="st5" d="M634.3,282l1.6,1.4l1.7-1.8l-1.6-1.4L634.3,282z M635.9,283.5c0.2,0.2,0.6,0.3,0.9,0.3c0.3,0,0.6-0.2,0.9-0.4
	c0.2-0.2,0.3-0.6,0.3-0.9c0-0.3-0.2-0.6-0.4-0.9L635.9,283.5z M636,280.2c-0.1-0.1-0.3-0.2-0.4-0.3c-0.2-0.1-0.3-0.1-0.5-0.1
	c-0.3,0-0.6,0.2-0.9,0.4c-0.2,0.2-0.3,0.6-0.3,0.9s0.2,0.6,0.4,0.9L636,280.2z"/>
<path class="st5" d="M634.5,292l2.1-2.3l-1.8-1.7l-2.1,2.3L634.5,292z M636.6,289.7c0.1-0.1,0.2-0.3,0.3-0.4s0.1-0.3,0.1-0.5
	c0-0.2,0-0.3-0.1-0.5c-0.1-0.1-0.2-0.3-0.3-0.4c-0.1-0.1-0.3-0.2-0.4-0.3c-0.2-0.1-0.3-0.1-0.5-0.1c-0.2,0-0.3,0-0.5,0.1
	c-0.1,0.1-0.3,0.2-0.4,0.3L636.6,289.7z M632.7,290.3c-0.2,0.2-0.3,0.6-0.3,0.9c0,0.3,0.2,0.6,0.4,0.9c0.2,0.2,0.6,0.3,0.9,0.3
	c0.3,0,0.6-0.2,0.9-0.4L632.7,290.3z"/>
<path class="st5" d="M644.2,288.3l-1.6-1.4l-1.7,1.8l1.6,1.4L644.2,288.3z M642.6,286.8c-0.1-0.1-0.3-0.2-0.4-0.3
	c-0.2-0.1-0.3-0.1-0.5-0.1c-0.3,0-0.6,0.2-0.9,0.4c-0.2,0.2-0.3,0.6-0.3,0.9c0,0.3,0.2,0.6,0.4,0.9L642.6,286.8z M642.5,290.1
	c0.1,0.1,0.3,0.2,0.4,0.3c0.2,0.1,0.3,0.1,0.5,0.1s0.3,0,0.5-0.1c0.1-0.1,0.3-0.2,0.4-0.3c0.1-0.1,0.2-0.3,0.3-0.4
	c0.1-0.2,0.1-0.3,0.1-0.5c0-0.2,0-0.3-0.1-0.5c-0.1-0.1-0.2-0.3-0.3-0.4L642.5,290.1z"/>
<path class="st5" d="M454.2,12.9l-5-0.1l-0.1,2.5l5,0.1L454.2,12.9z M449.1,12.7c-0.2,0-0.3,0-0.5,0.1c-0.2,0.1-0.3,0.1-0.4,0.3
	c-0.1,0.1-0.2,0.2-0.3,0.4c-0.1,0.1-0.1,0.3-0.1,0.5c0,0.2,0,0.3,0.1,0.5c0.1,0.2,0.1,0.3,0.3,0.4c0.1,0.1,0.2,0.2,0.4,0.3
	c0.1,0.1,0.3,0.1,0.5,0.1L449.1,12.7z M454.1,15.3c0.2,0,0.3,0,0.5-0.1c0.2-0.1,0.3-0.1,0.4-0.3c0.1-0.1,0.2-0.2,0.3-0.4
	c0.1-0.1,0.1-0.3,0.1-0.5c0-0.2,0-0.3-0.1-0.5c-0.1-0.2-0.1-0.3-0.3-0.4c-0.1-0.1-0.2-0.2-0.4-0.3s-0.3-0.1-0.5-0.1L454.1,15.3z"/>
<path class="st5" d="M439.9,1.9l-0.1,4.3l2.5,0l0.1-4.3L439.9,1.9z M439.8,6.2c0,0.2,0,0.3,0.1,0.5c0.1,0.2,0.1,0.3,0.3,0.4
	c0.1,0.1,0.2,0.2,0.4,0.3c0.1,0.1,0.3,0.1,0.5,0.1c0.2,0,0.3,0,0.5-0.1c0.2-0.1,0.3-0.1,0.4-0.3s0.2-0.2,0.3-0.4
	c0.1-0.1,0.1-0.3,0.1-0.5L439.8,6.2z M442.3,2c0-0.3-0.1-0.6-0.3-0.9c-0.2-0.2-0.5-0.4-0.9-0.4c-0.3,0-0.6,0.1-0.9,0.3
	c-0.2,0.2-0.4,0.5-0.4,0.9L442.3,2z"/>
<path class="st5" d="M427,14.1l5,0.1l0.1-2.5l-5-0.1L427,14.1z M432.1,14.2c0.2,0,0.3,0,0.5-0.1c0.2-0.1,0.3-0.1,0.4-0.3
	c0.1-0.1,0.2-0.2,0.3-0.4c0.1-0.1,0.1-0.3,0.1-0.5c0-0.2,0-0.3-0.1-0.5c-0.1-0.2-0.1-0.3-0.3-0.4c-0.1-0.1-0.2-0.2-0.4-0.3
	c-0.1-0.1-0.3-0.1-0.5-0.1L432.1,14.2z M427.1,11.7c-0.3,0-0.6,0.1-0.9,0.3c-0.2,0.2-0.4,0.5-0.4,0.9c0,0.3,0.1,0.6,0.3,0.9
	c0.2,0.2,0.5,0.4,0.9,0.4L427.1,11.7z"/>
<path class="st5" d="M441.3,25.1l0.1-4.3l-2.5,0l-0.1,4.3L441.3,25.1z M441.4,20.8c0-0.3-0.1-0.6-0.3-0.9c-0.2-0.2-0.5-0.4-0.9-0.4
	c-0.3,0-0.6,0.1-0.9,0.3c-0.2,0.2-0.4,0.5-0.4,0.9L441.4,20.8z M438.9,25c0,0.2,0,0.3,0.1,0.5c0.1,0.2,0.1,0.3,0.3,0.4
	s0.2,0.2,0.4,0.3c0.1,0.1,0.3,0.1,0.5,0.1c0.2,0,0.3,0,0.5-0.1c0.2-0.1,0.3-0.1,0.4-0.3c0.1-0.1,0.2-0.2,0.3-0.4s0.1-0.3,0.1-0.5
	L438.9,25z"/>
<path class="st6" d="M80.9,479.1c-2.7,1.2-5.2,3-7.2,5.2c-2,2.2-3.6,4.8-4.6,7.6c-0.3-5.9-4.1-13.2-8.2-14.3
	c2.8-1.3,5.3-3.3,7.4-5.6c2-2.4,3.6-5.1,4.5-8.1C72.6,469.5,77.8,477.9,80.9,479.1z"/>
<path class="st6" d="M165.8,37.2c-2.1,0.7-4.1,1.8-5.8,3.2c-1.7,1.5-3.1,3.2-4,5.2c0.2-4.4-1.9-10.2-4.8-11.4c2.2-0.8,4.3-2,6-3.5
	c1.7-1.6,3.1-3.5,4-5.7C160.5,29.3,163.6,36,165.8,37.2z"/>
<path class="st7" d="M536.5,69.1c-1.3,0-2.6-0.5-3.7-1.2c-1.1-0.8-1.9-1.8-2.4-3.1c-0.5-1.2-0.6-2.6-0.3-3.9c0.3-1.3,1-2.5,1.9-3.4
	c1-0.9,2.2-1.5,3.5-1.8c1.3-0.2,2.7-0.1,3.9,0.5s2.3,1.4,3,2.6s1.1,2.4,1.1,3.8c0,0.9-0.2,1.8-0.6,2.6c-0.4,0.8-0.9,1.5-1.5,2.2
	c-0.6,0.6-1.4,1.1-2.2,1.4C538.3,69,537.4,69.1,536.5,69.1z"/>
<path class="st6" d="M536.5,512.2c-1.2,0-2.3-0.4-3.2-1.1s-1.7-1.6-2.1-2.7c-0.4-1.1-0.5-2.3-0.3-3.4c0.3-1.1,0.8-2.2,1.7-3
	c0.8-0.8,1.9-1.3,3-1.5c1.1-0.2,2.3-0.1,3.4,0.4c1.1,0.5,2,1.2,2.6,2.2c0.6,1,0.9,2.1,0.9,3.3c0,0.8-0.2,1.5-0.5,2.2
	c-0.3,0.7-0.8,1.3-1.3,1.9c-0.6,0.5-1.2,1-1.9,1.2C538.1,512.1,537.3,512.2,536.5,512.2z"/>
<path class="st5" d="M50.2,155.3c0,0.3-0.1,0.6-0.2,0.9c-0.1,0.3-0.3,0.6-0.5,0.8c-0.2,0.2-0.5,0.4-0.8,0.5
	c-0.3,0.1-0.6,0.2-0.9,0.2l-0.1,2.5c0.6,0,1.3-0.1,1.9-0.3c0.6-0.2,1.1-0.6,1.6-1c0.5-0.4,0.8-1,1.1-1.6s0.4-1.2,0.4-1.9L50.2,155.3
	z M47.8,152.8c0.6,0,1.2,0.3,1.7,0.7c0.4,0.5,0.7,1.1,0.7,1.7l2.5,0.1c0-1.3-0.5-2.5-1.4-3.5s-2.1-1.5-3.4-1.5L47.8,152.8z
	 M45.4,155.2c0-0.3,0.1-0.6,0.2-0.9c0.1-0.3,0.3-0.6,0.5-0.8c0.2-0.2,0.5-0.4,0.8-0.5c0.3-0.1,0.6-0.2,0.9-0.2l0.1-2.5
	c-0.6,0-1.3,0.1-1.9,0.3c-0.6,0.2-1.1,0.6-1.6,1c-0.5,0.4-0.8,1-1.1,1.6c-0.3,0.6-0.4,1.2-0.4,1.9L45.4,155.2z M47.7,157.6
	c-0.3,0-0.6-0.1-0.9-0.2c-0.3-0.1-0.6-0.3-0.8-0.5c-0.2-0.2-0.4-0.5-0.5-0.8c-0.1-0.3-0.2-0.6-0.2-0.9l-2.5-0.1
	c0,0.6,0.1,1.3,0.3,1.9s0.6,1.1,1,1.6c0.4,0.5,1,0.8,1.6,1.1c0.6,0.3,1.2,0.4,1.9,0.4L47.7,157.6z"/>
<path class="st8" d="M400.1,260.1c18.4,3,35.7-9.4,38.7-27.8c3-18.4-9.4-35.7-27.8-38.7c-18.4-3-35.7,9.4-38.7,27.8
	C369.3,239.8,381.7,257.1,400.1,260.1z"/>
<path class="st3" d="M421.1,208.3c-0.6-0.5-1.2-0.8-1.9-1c-0.7-0.2-1.4-0.3-2.2-0.2c-0.7,0.1-1.4,0.3-2.1,0.7
	c-0.6,0.4-1.2,0.9-1.6,1.4l-15.9,21.2c-0.6,0.8-0.9,1.9-0.8,2.9c0.1,1,0.6,2,1.4,2.6c0.8,0.7,1.8,1,2.9,0.9c1-0.1,2-0.5,2.7-1.3
	l18-19.4c0.5-0.5,0.9-1.2,1.1-1.9c0.2-0.7,0.3-1.4,0.3-2.2c0-0.7-0.2-1.4-0.6-2.1C422.1,209.3,421.7,208.8,421.1,208.3z"/>
<path class="st3" d="M390,245.5c0.6,0.5,1.3,0.8,2.1,0.9c0.8,0.1,1.5-0.1,2.2-0.4c0.7-0.4,1.2-0.9,1.6-1.6c0.4-0.7,0.5-1.4,0.5-2.2
	c-0.1-0.8-0.4-1.5-0.9-2.1c-0.5-0.6-1.1-1-1.9-1.3c-0.7-0.2-1.5-0.2-2.3,0c-0.7,0.2-1.4,0.6-1.9,1.2c-0.3,0.4-0.6,0.8-0.7,1.3
	c-0.2,0.5-0.2,1-0.2,1.5s0.2,1,0.4,1.5C389.3,244.8,389.7,245.2,390,245.5z"/>
</svg>
