<svg id="Layer_1" data-name="Layer 1" xmlns="http://www.w3.org/2000/svg" viewBox="0 0 647 568"><defs><style>.cls-1{fill:#e9eaec;}.cls-2{fill:#d2d8df;}.cls-3{fill:#ebecef;}.cls-3,.cls-4{fill-rule:evenodd;}.cls-4{fill:#d1d9e0;}.cls-5{fill:#f1f2f7;}.cls-6{fill:#d8dbea;}.cls-7{fill:#007ee5;}.cls-8{fill:#fff;}</style></defs><title>no-gallery -found</title><path class="cls-1" d="M587.551,317.392q.075-3.1485.076-6.314h-2.46q0,3.13652-.075,6.255Zm-1.829,25.105q.75907-6.2205,1.22-12.531l-2.453-.178q-.45456,6.249-1.209,12.411Zm-4.277,24.807q1.36944-6.1215,2.444-12.351l-2.42395-.418q-1.06357,6.168-2.42,12.232Zm-6.702,24.266q1.96957-5.96251,3.651-12.05l-2.37-.655q-1.665,6.02852-3.616,11.934Zm-9.066,23.486q2.55-5.742,4.824-11.631l-2.295-.886q-2.25,5.83049-4.777,11.519Zm-11.336,22.478q3.10346-5.46749,5.945-11.099l-2.196-1.108q-2.8125,5.577-5.888,10.993Zm-13.488,21.257q3.62549-5.14047,7.004-10.463l-2.076-1.318q-3.345,5.271-6.938,10.363Zm-15.502,19.836q4.113-4.764,7.993-9.729l-1.938-1.514q-3.84156,4.91551-7.917,9.635ZM507.99,496.856q4.5585-4.341,8.903-8.903l-1.781-1.696q-4.302,4.51653-8.819,8.818Zm-19.056,16.452q4.96353-3.879,9.729-7.993l-1.607-1.862q-4.719,4.074-9.636,7.917Zm-20.57,14.513q5.322-3.37645,10.463-7.005l-1.418-2.009q-5.091,3.591-10.363,6.937Zm-21.893,12.428q5.631-2.8395,11.1-5.945l-1.215-2.139q-5.415,3.07507-10.992,5.888Zm-23.009,10.215q5.886-2.27253,11.63-4.823l-.998-2.248q-5.68647,2.52447-11.518,4.777Zm-23.906,7.894q6.087-1.68146,12.05-3.651l-.771-2.336q-5.904,1.95007-11.934,3.616ZM374.989,563.853q6.228-1.074,12.351-2.444l-.536-2.401q-6.063,1.356-12.233,2.421Zm-24.986,3.053q6.30753-.46051,12.53-1.221l-.298-2.441q-6.1605.75293-12.411,1.208Zm-18.889.684q3.1665,0,6.314-.07605l-.059-2.459q-3.11847.07655-6.255.076Zm-6.313-.07605q3.147.07653,6.313.07605v-2.459q-3.135,0-6.254-.076Zm-25.105-1.829q6.22047.76053,12.53,1.22l.179-2.453q-6.249-.45456-12.411-1.208Zm-24.807-4.276q6.12149,1.368,12.351,2.444l.418-2.424q-6.168-1.06358-12.232-2.421Zm-24.266-6.702q5.961,1.968,12.05,3.651l.655-2.371q-6.02851-1.665-11.934-3.616Zm-23.486-9.066q5.742,2.54856,11.631,4.823l.886-2.295q-5.83052-2.25-11.519-4.776Zm-22.478-11.337q5.4675,3.105,11.099,5.945l1.108-2.196q-5.577-2.8125-10.993-5.888Zm-21.256-13.488q5.139,3.627,10.462,7.005l1.318-2.077q-5.2695-3.34506-10.362-6.938Zm-19.836-15.501q4.764,4.1115,9.728,7.993l1.515-1.938q-4.9155-3.843-9.636-7.917Zm-18.23-17.362q4.34247,4.56,8.903,8.903l1.696-1.781q-4.515-4.3005-8.818-8.818Zm-16.451-19.055q3.879,4.96348,7.993,9.728l1.862-1.607q-4.074-4.719-7.917-9.636Zm-14.513-20.57q3.3765,5.3205,7.005,10.462l2.009-1.418q-3.591-5.08952-6.937-10.362Zm-12.428-21.894q2.8395,5.631,5.945,11.1l2.139-1.214q-3.075-5.415-5.888-10.993ZM91.7301,403.425q2.2725,5.886,4.8233,11.631l2.2481-.998q-2.5248-5.688-4.7767-11.519ZM83.8365,379.52q1.681,6.087,3.6511,12.05l2.3356-.771q-1.9497-5.90551-3.6158-11.934ZM78.342,354.953q1.07355,6.228,2.4438,12.351l2.4003-.537q-1.35585-6.063-2.4202-12.232Zm-3.0528-24.987q.45915,6.309,1.2201,12.531l2.4415-.299q-.75255-6.1605-1.2085-12.41Zm-.685-18.888q0,3.1665.0763,6.314l2.4589-.059q-.0753-3.11851-.0755-6.255Zm.0763-6.314q-.076,3.1485-.0763,6.314h2.4597q0-3.1365.0754-6.254Zm1.8288-25.105q-.7596,6.222-1.2201,12.531l2.4531.178q.4548-6.24752,1.2085-12.41Zm4.2766-24.807q-1.3692,6.123-2.4438,12.351l2.4238.418q1.0632-6.168,2.4203-12.232Zm6.7017-24.266q-1.9686,5.9625-3.651,12.051l2.3708.654q1.66485-6.027,3.6158-11.933ZM96.5534,207.1q-2.5494,5.74349-4.8233,11.631l2.2946.886q2.25045-5.8305,4.7767-11.519ZM107.89,184.622q-3.105,5.46751-5.945,11.1l2.196,1.107q2.8125-5.57549,5.888-10.992Zm13.488-21.256q-3.627,5.139-7.005,10.462l2.077,1.318q3.3435-5.2695,6.937-10.362Zm15.501-19.836q-4.113,4.764-7.993,9.728l1.938,1.515q3.84147-4.917,7.917-9.636ZM154.24,125.3q-4.56,4.34252-8.903,8.903l1.781,1.696q4.3005-4.5165,8.818-8.818Zm19.055-16.452q-4.96352,3.879-9.728,7.993l1.607,1.862q4.719-4.074,9.636-7.917Zm20.57-14.513q-5.32053,3.3768-10.463,7.005l1.418,2.01q5.091-3.5925,10.363-6.9382Zm21.893-12.4285q-5.631,2.83965-11.099,5.9451l1.214,2.139q5.415-3.07425,10.993-5.8881Zm23.01-10.2148q-5.88752,2.2725-11.631,4.8233l.998,2.2481q5.6865-2.5248,11.518-4.7768Zm23.905-7.8938q-6.087,1.6812-12.05,3.6512l.771,2.3355q5.904-1.9497,11.934-3.6158Zm24.567-5.4946q-6.228,1.07355-12.351,2.4438l.536,2.4004q6.063-1.35585,12.233-2.4203Zm24.986-3.0529q-6.309.45915-12.53,1.2201l.298,2.4415q6.16053-.75255,12.411-1.2085Zm18.888-.685q-3.165,0-6.314.0763l.06,2.4589q3.11852-.0753,6.254-.0755Zm6.314.0763q-3.147-.076-6.314-.0763v2.4597q3.13647,0,6.255.0754Zm25.105,1.8289q-6.2205-.75975-12.53-1.2202l-.179,2.4531q6.249.455,12.411,1.2086Zm24.807,4.2766q-6.1215-1.36905-12.351-2.4439l-.418,2.4239q6.168,1.0632,12.233,2.4203Zm24.266,6.7019q-5.961-1.96875-12.05-3.6512l-.655,2.3709q6.02851,1.6647,11.934,3.6158Zm23.486,9.0661q-5.742-2.54955-11.631-4.8233l-.885,2.2946q5.829,2.25045,11.518,4.7768Zm22.479,11.3365q-5.469-3.10395-11.1-5.9451l-1.107,2.1961q5.57547,2.81235,10.992,5.888ZM478.827,101.34q-5.14051-3.6267-10.463-7.0049l-1.318,2.0768q5.271,3.3444,10.363,6.9381Zm19.836,15.501q-4.764-4.113-9.729-7.993l-1.514,1.938q4.91547,3.8415,9.636,7.917Zm18.23,17.362q-4.34253-4.56-8.903-8.903l-1.697,1.781q4.51648,4.3005,8.819,8.818Zm16.451,19.055q-3.879-4.96349-7.993-9.728l-1.862,1.607q4.074,4.71752,7.917,9.636Zm14.513,20.57q-3.37646-5.32048-7.004-10.463l-2.01,1.418q3.591,5.091,6.938,10.363Zm12.429,21.893q-2.8395-5.62949-5.945-11.099l-2.139,1.214q3.07342,5.415,5.888,10.993Zm10.214,23.01q-2.27251-5.8875-4.823-11.631l-2.248.998q2.52447,5.688,4.777,11.519Zm7.894,23.905q-1.68-6.087-3.651-12.05l-2.335.771q1.94842,5.904,3.615,11.934Zm5.495,24.567q-1.074-6.228-2.444-12.351l-2.4.537q1.356,6.063,2.42,12.232Zm3.053,24.987q-.459-6.309-1.22-12.531l-2.442.298q.75292,6.162,1.209,12.411Zm.685,18.888q0-3.16648-.076-6.314l-2.459.059q.07507,3.11852.075,6.255Z"/><path class="cls-1" d="M521.817,317.334q.10043-3.11553.101-6.256h-2.46q0,3.10049-.099,6.177Zm-2.42,24.838q1.00507-6.13052,1.615-12.386l-2.448-.238q-.6,6.17248-1.59406,12.226Zm-5.648,24.312q1.803-5.95051,3.224-12.06l-2.396-.557q-1.401,6.02848-3.182,11.904Zm-8.798,23.362q2.574-5.67151,4.785-11.537l-2.302-.866q-2.1795,5.7855-4.722,11.387Zm-11.784,22.002q3.297-5.29047,6.254-10.809l-2.168-1.161q-2.916,5.4435-6.173,10.67Zm-14.555,20.277q3.96148-4.821,7.608-9.9l-1.998-1.434q-3.597,5.0115-7.51,9.773ZM461.546,450.34q4.557-4.27048,8.829-8.83l-1.794-1.681q-4.2165,4.49849-8.717,8.716Zm-19.285,15.845q5.076-3.645,9.9-7.608l-1.562-1.901q-4.758,3.9105-9.773,7.51Zm-21.186,13.2q5.5155-2.95353,10.809-6.253l-1.301-2.088q-5.223,3.255-10.669,6.173ZM398.345,489.7q5.862-2.208,11.537-4.784l-1.017-2.24q-5.598,2.541-11.387,4.722Zm-23.886,7.237q6.108-1.419,12.061-3.224l-.714-2.354q-5.87251,1.78047-11.903,3.182Zm-24.637,4.04q6.25351-.609,12.385-1.616l-.398-2.427q-6.04949.99152-12.226,1.595Zm-18.708.905q3.13948,0,6.256-.1l-.08-2.459q-3.075.10052-6.176.1Zm-6.256-.1q3.1155.10048,6.256.1v-2.459q-3.10051,0-6.177-.1Zm-24.837-2.42q6.129,1.00351,12.385,1.615l.238-2.448q-6.17253-.6015-12.226-1.595Zm-24.313-5.648q5.95047,1.80153,12.06,3.223l.557-2.395q-6.02852-1.401-11.904-3.182Zm-23.362-8.798q5.673,2.574,11.537,4.784l.867-2.301q-5.787-2.17947-11.387-4.722Zm-22.002-11.784q5.292,3.297,10.809,6.254l1.161-2.168q-5.4435-2.916-10.669-6.173Zm-20.277-14.555q4.821,3.96148,9.9,7.608l1.435-1.998q-5.01148-3.597-9.773-7.51Zm-18.214-17.066q4.2705,4.557,8.829,8.829l1.682-1.795q-4.49848-4.215-8.716-8.716Zm-15.844-19.286q3.6435,5.07747,7.607,9.901l1.901-1.562q-3.9105-4.75952-7.51-9.773Zm-13.201-21.186q2.95349,5.5155,6.254,10.81l2.087-1.301q-3.255-5.223-6.173-10.67Zm-10.314-22.73q2.208,5.8635,4.784,11.537l2.24-1.016q-2.541-5.59952-4.722-11.387Zm-7.237-23.885q1.419,6.10648,3.224,12.06l2.354-.714q-1.779-5.87247-3.182-11.903Zm-4.039-24.638q.609,6.25347,1.615,12.385l2.427-.397q-.99148-6.051-1.594-12.226Zm-.906-18.708q0,3.13949.101,6.256l2.458-.079q-.099-3.07649-.099-6.177Zm.101-6.256q-.1005,3.117-.101,6.256h2.46q0-3.10051.099-6.176Zm2.42-24.837q-1.005,6.129-1.615,12.385l2.448.239q.6-6.174,1.594-12.226Zm5.648-24.312q-1.803,5.95051-3.224,12.06l2.396.556q1.401-6.027,3.182-11.903Zm8.797-23.362q-2.574,5.6715-4.784,11.536l2.302.867q2.178-5.78552,4.722-11.387Zm11.784-22.003q-3.297,5.292-6.254,10.809l2.168,1.162q2.916-5.445,6.173-10.67Zm14.554-20.277q-3.96,4.821-7.607,9.9l1.998,1.435q3.597-5.01152,7.51-9.773Zm17.066-18.214q-4.557,4.269-8.829,8.829l1.795,1.682q4.215-4.49851,8.716-8.717Zm19.286-15.845q-5.07751,3.6435-9.901,7.608l1.562,1.9q4.7595-3.9105,9.773-7.51Zm21.185-13.201q-5.5155,2.95352-10.809,6.254l1.301,2.087q5.223-3.255,10.669-6.173Zm22.73-10.314q-5.862,2.20648-11.537,4.784l1.017,2.239q5.598-2.541,11.387-4.722Zm23.886-7.237q-6.108,1.4175-12.061,3.223l.714,2.354q5.87252-1.779,11.903-3.182Zm24.637-4.04q-6.25351.609-12.385,1.615l.398,2.428q6.04948-.993,12.225-1.595Zm18.708-.906q-3.13951,0-6.256.101l.079,2.458q3.0765-.099,6.177-.099Zm6.256.101q-3.1155-.1005-6.256-.101v2.46q3.10048,0,6.177.099Zm24.837,2.42q-6.129-1.0035-12.385-1.615l-.238,2.448q6.1725.6015,12.226,1.595Zm24.313,5.649q-5.95047-1.803-12.06-3.224l-.557,2.396q6.02847,1.3995,11.904,3.182Zm23.362,8.797q-5.67147-2.574-11.537-4.784l-.867,2.302q5.787,2.178,11.387,4.722Zm22.002,11.784q-5.29052-3.297-10.809-6.254l-1.161,2.169q5.4435,2.9145,10.669,6.173Zm20.277,14.555q-4.821-3.9615-9.9-7.608l-1.435,1.998q5.013,3.5985,9.774,7.511Zm18.215,17.066q-4.27053-4.557-8.83-8.829l-1.682,1.795q4.4985,4.215,8.717,8.716Zm15.844,19.286q-3.64351-5.07752-7.608-9.9l-1.9,1.561q3.91048,4.75951,7.51,9.773Zm13.201,21.185q-2.95349-5.514-6.254-10.809l-2.087,1.301q3.255,5.223,6.173,10.67Zm10.315,22.73q-2.208-5.862-4.785-11.536l-2.239,1.016q2.541,5.5995,4.722,11.387Zm7.237,23.886q-1.41906-6.108-3.224-12.06l-2.354.713q1.779,5.874,3.182,11.904Zm4.039,24.638q-.60754-6.2535-1.615-12.386l-2.427.398q.99152,6.051,1.59406,12.226Zm.906,18.707q0-3.13951-.101-6.255l-2.458.079q.099,3.07648.099,6.176Z"/><path class="cls-2" d="M27.644,344.22l-4.7397-.145-.0753,2.458,4.7397.145Zm-4.7397-.145a1.22957,1.22957,0,0,0-.0753,2.458Zm4.6644,2.603a1.22958,1.22958,0,1,0,.0753-2.458Z"/><path class="cls-2" d="M23.3673,335.563l-3.3992,3.176,1.679,1.797,3.3992-3.175Zm-3.3992,3.176a1.22891,1.22891,0,0,0,.3289,2.02,1.22235,1.22235,0,0,0,.9422.031,1.2234,1.2234,0,0,0,.4079-.254Zm5.0782-1.378a1.23,1.23,0,1,0-1.679-1.798Z"/><path class="cls-2" d="M14.1177,332.339l-.0714,4.634,2.4593.038.0714-4.634Zm-.0714,4.634a1.231,1.231,0,0,0,1.6833,1.165,1.22838,1.22838,0,0,0,.6758-.657,1.22885,1.22885,0,0,0,.1002-.47Zm2.5307-4.596a1.22882,1.22882,0,0,0-.7411-1.149,1.20654,1.20654,0,0,0-.4696-.101,1.22961,1.22961,0,0,0-1.2486,1.212Z"/><path class="cls-2" d="M5.33608,336.399l3.30079,3.379,1.75953-1.718-3.30077-3.38Zm3.30079,3.379a1.22776,1.22776,0,0,0,.866.373,1.22947,1.22947,0,0,0,.89355-2.091ZM7.09563,334.68a1.22892,1.22892,0,0,0-.39584-.272,1.2466,1.2466,0,0,0-.47014-.101,1.23006,1.23006,0,0,0-.89357,2.092Z"/><path class="cls-2" d="M2.126,345.374l4.7372.145.07532-2.458-4.73721-.145Zm4.7372.145a1.23275,1.23275,0,0,0,.47328-.079,1.22986,1.22986,0,0,0,.06958-2.271,1.23736,1.23736,0,0,0-.46754-.108Zm-4.66189-2.603a1.22958,1.22958,0,1,0-.07531,2.458Z"/><path class="cls-2" d="M6.39974,354.031l3.40163-3.175L8.123,349.058l-3.40164,3.175Zm3.40163-3.175a1.22945,1.22945,0,0,0-.796-2.131,1.22368,1.22368,0,0,0-.88238.333Zm-5.08,1.377a1.22879,1.22879,0,0,0,.32779,2.021,1.223,1.223,0,0,0,.94256.031,1.22413,1.22413,0,0,0,.408-.254Z"/><path class="cls-2" d="M15.6531,357.256l.0713-4.634-2.4593-.038-.0714,4.634Zm.0713-4.634a1.23113,1.23113,0,0,0-.7416-1.148,1.22482,1.22482,0,0,0-.9411-.014,1.2281,1.2281,0,0,0-.4031.26,1.23027,1.23027,0,0,0-.3735.864Zm-2.5307,4.596a1.22985,1.22985,0,1,0,2.4594.038Z"/><path class="cls-2" d="M24.4335,353.195l-3.3008-3.379-1.7596,1.718,3.3008,3.38Zm-3.3008-3.379a1.22961,1.22961,0,1,0-1.7596,1.718Zm1.5412,5.098a1.23,1.23,0,0,0,1.7596-1.719Z"/><path class="cls-2" d="M644.809,278.549l-2.083,2.255,1.806,1.669,2.08405-2.256Zm-2.083,2.255a1.22712,1.22712,0,0,0-.326.883,1.22456,1.22456,0,0,0,.395.855,1.22956,1.22956,0,0,0,1.737-.069Zm3.89-.587a1.22962,1.22962,0,1,0-1.807-1.668Z"/><path class="cls-2" d="M635.1,282.247l1.571,1.449,1.667-1.808-1.571-1.449Zm1.571,1.449a1.22961,1.22961,0,1,0,1.667-1.808Zm.096-3.257a1.211,1.211,0,0,0-.41-.25,1.22914,1.22914,0,0,0-1.257,2.058Z"/><path class="cls-2" d="M635.251,292.174l2.083-2.255-1.806-1.669-2.084,2.256Zm2.083-2.255a1.22668,1.22668,0,0,0,.22-1.354,1.228,1.228,0,0,0-.694-.641,1.2241,1.2241,0,0,0-.476-.074,1.24242,1.24242,0,0,0-.46795.114,1.22923,1.22923,0,0,0-.388.286Zm-3.89.587a1.22958,1.22958,0,1,0,1.807,1.668Z"/><path class="cls-2" d="M644.959,288.476l-1.57-1.448-1.668,1.807,1.569,1.449Zm-1.57-1.448a1.22978,1.22978,0,0,0-1.737.069,1.22863,1.22863,0,0,0,.069,1.738Zm-.099,3.256a1.22941,1.22941,0,0,0,.885.329,1.22291,1.22291,0,0,0,.468-.112,1.21013,1.21013,0,0,0,.389-.283,1.23053,1.23053,0,0,0,.252-.41,1.26244,1.26244,0,0,0,.074-.476,1.22422,1.22422,0,0,0-.115-.468,1.24559,1.24559,0,0,0-.284-.388Z"/><path class="cls-2" d="M454.936,13.0686l-5.04-.1353-.066,2.4588,5.04.1352Zm-5.04-.1353a1.22984,1.22984,0,0,0-.066,2.4588Zm4.974,2.594a1.231,1.231,0,0,0,1.161-.7269,1.22523,1.22523,0,0,0,.025-.9435,1.22214,1.22214,0,0,0-.257-.4067,1.23216,1.23216,0,0,0-.863-.3816Z"/><path class="cls-2" d="M440.634,2.10882l-.076,4.30677,2.459.04354.077-4.30678Zm-.076,4.30677a1.22025,1.22025,0,0,0,.084.47412,1.20551,1.20551,0,0,0,.259.40578,1.22932,1.22932,0,0,0,2.116-.83636Zm2.536-4.26324a1.23019,1.23019,0,0,0-2.46-.04353Z"/><path class="cls-2" d="M427.807,14.3153l5.039.1328.065-2.4587-5.039-.1328Zm5.039.1328a1.2312,1.2312,0,0,0,1.187-1.6711,1.23058,1.23058,0,0,0-1.122-.7876Zm-4.974-2.5915a1.22978,1.22978,0,0,0-.065,2.4587Z"/><path class="cls-2" d="M442.109,25.2749l.076-4.3067-2.459-.0436-.076,4.3067Zm.076-4.3067a1.22969,1.22969,0,0,0-2.459-.0436Zm-2.535,4.2631a1.22913,1.22913,0,0,0,1.208,1.2578,1.2294,1.2294,0,0,0,1.251-1.2142Z"/><path class="cls-3" d="M81.6978,479.311A21.87982,21.87982,0,0,0,69.968,492.039c-.3468-5.868-4.0732-13.245-8.1733-14.307a22.42121,22.42121,0,0,0,11.8627-13.747C73.3967,469.726,78.6086,478.061,81.6978,479.311Z"/><path class="cls-3" d="M166.61,37.3664a16.40087,16.40087,0,0,0-9.839,8.4635c.249-4.4002-1.888-10.2172-4.85-11.3634a16.81406,16.81406,0,0,0,10.025-9.2137C161.255,29.5079,164.416,36.1686,166.61,37.3664Z"/><path class="cls-4" d="M537.273,69.3193a6.756,6.756,0,1,1,2.599-.4576A6.75951,6.75951,0,0,1,537.273,69.3193Z"/><path class="cls-3" d="M537.291,512.424a5.88738,5.88738,0,1,1,2.262-.399A5.89016,5.89016,0,0,1,537.291,512.424Z"/><path class="cls-2" d="M50.9514,155.468a2.41593,2.41593,0,0,1-2.4673,2.364l-.0541,2.459a4.875,4.875,0,0,0,4.9804-4.769Zm-2.364-2.465a2.41722,2.41722,0,0,1,2.364,2.465l2.459.054a4.87784,4.87784,0,0,0-4.7689-4.978Zm-2.4648,2.36a2.41564,2.41564,0,0,1,2.4648-2.36l.0541-2.459a4.87394,4.87394,0,0,0-4.978,4.768Zm2.3615,2.469a2.414,2.414,0,0,1-2.3615-2.469l-2.4591-.051a4.87171,4.87171,0,0,0,4.7665,4.979Z"/><path class="cls-5" d="M408.85262,248.82823H284.63983a23.895,23.895,0,0,0-23.88655,23.88652V390.14327l67.07448-67.07448a14.71749,14.71749,0,0,1,20.35166,0l74.909,74.909,7.93083,7.93086a23.49429,23.49429,0,0,0,1.71986-8.98226V272.71475A23.89494,23.89494,0,0,0,408.85262,248.82823ZM389.16938,312.08A19.68264,19.68264,0,1,1,408.85262,292.398,19.65449,19.65449,0,0,1,389.16938,312.08Z"/><path class="cls-6" d="M431.01927,405.90864a24.78689,24.78689,0,0,1-5.44622,8.12115,23.8625,23.8625,0,0,1-16.72043,6.78429H284.63983a23.99127,23.99127,0,0,1-23.12176-17.8682,24.70125,24.70125,0,0,1-.76479-6.0195v-6.78311l67.07448-67.07448a14.71749,14.71749,0,0,1,20.35166,0l74.909,74.909Z"/><path class="cls-6" d="M389.16938,312.08a19.68264,19.68264,0,1,0-19.6832-19.68205A19.68309,19.68309,0,0,0,389.16938,312.08Z"/><path class="cls-7" d="M268.12118,278.60356a38.63032,38.63032,0,1,0-38.63033-38.63031A38.63114,38.63114,0,0,0,268.12118,278.60356Z"/><path class="cls-8" d="M282.20221,216.0351a6.23554,6.23554,0,0,0-8.67151,2.49035l-14.05241,26.90892a4.68232,4.68232,0,0,0,8.057,4.74107l16.69982-25.35071a6.27749,6.27749,0,0,0-2.03288-8.78963Z"/><path class="cls-8" d="M254.01031,263.91139a4.46934,4.46934,0,1,0-1.30364-1.16148A4.47924,4.47924,0,0,0,254.01031,263.91139Z"/></svg>