<svg width="21" height="20" viewBox="0 0 21 20" fill="none" xmlns="http://www.w3.org/2000/svg">
<path d="M6.98901 5.83366H14.9057V4.16699C14.9057 2.50033 14.2807 1.66699 12.4057 1.66699H9.48901C7.61401 1.66699 6.98901 2.50033 6.98901 4.16699V5.83366Z" stroke="#5D5D5D" stroke-width="1.25" stroke-miterlimit="10" stroke-linecap="round" stroke-linejoin="round"/>
<path d="M14.2807 12.5V15.8333C14.2807 17.5 13.4473 18.3333 11.7807 18.3333H10.114C8.44735 18.3333 7.61401 17.5 7.61401 15.8333V12.5H14.2807Z" stroke="#5D5D5D" stroke-width="1.25" stroke-miterlimit="10" stroke-linecap="round" stroke-linejoin="round"/>
<path d="M18.4473 8.33301V12.4997C18.4473 14.1663 17.6139 14.9997 15.9473 14.9997H14.2806V12.4997H7.61393V14.9997H5.94727C4.2806 14.9997 3.44727 14.1663 3.44727 12.4997V8.33301C3.44727 6.66634 4.2806 5.83301 5.94727 5.83301H15.9473C17.6139 5.83301 18.4473 6.66634 18.4473 8.33301Z" stroke="#5D5D5D" stroke-width="1.25" stroke-miterlimit="10" stroke-linecap="round" stroke-linejoin="round"/>
<path d="M15.1139 12.5H14.1055H6.78052" stroke="#5D5D5D" stroke-width="1.25" stroke-miterlimit="10" stroke-linecap="round" stroke-linejoin="round"/>
<path d="M6.78052 9.16699H9.28052" stroke="#5D5D5D" stroke-width="1.25" stroke-miterlimit="10" stroke-linecap="round" stroke-linejoin="round"/>
</svg>
