<svg width="14" height="14" viewBox="0 0 14 14" fill="none" xmlns="http://www.w3.org/2000/svg">
<g clip-path="url(#clip0_2723_134459)">
<path d="M5.2568 3.30393H3.04242C2.88955 3.30393 2.76562 3.42785 2.76562 3.58073V5.7951C2.76562 5.94798 2.88955 6.0719 3.04242 6.0719H5.2568C5.40967 6.0719 5.5336 5.94798 5.5336 5.7951V3.58073C5.5336 3.42785 5.40967 3.30393 5.2568 3.30393Z" stroke="#5D5D5D" stroke-width="0.885752" stroke-linecap="round" stroke-linejoin="round"/>
<path d="M5.2568 8.28628H3.04242C2.88955 8.28628 2.76562 8.41021 2.76562 8.56308V10.7775C2.76562 10.9303 2.88955 11.0543 3.04242 11.0543H5.2568C5.40967 11.0543 5.5336 10.9303 5.5336 10.7775V8.56308C5.5336 8.41021 5.40967 8.28628 5.2568 8.28628Z" stroke="#5D5D5D" stroke-width="0.885752" stroke-linecap="round" stroke-linejoin="round"/>
<path d="M7.74707 8.8399L9.40785 10.5007L11.0686 8.8399" stroke="#5D5D5D" stroke-width="0.885752" stroke-linecap="round" stroke-linejoin="round"/>
<path d="M9.4082 10.5007V3.85754" stroke="#5D5D5D" stroke-width="0.885752" stroke-linecap="round" stroke-linejoin="round"/>
</g>
<defs>
<clipPath id="clip0_2723_134459">
<rect width="13.2863" height="13.2863" fill="white" transform="translate(-0.00390625 0.53595)"/>
</clipPath>
</defs>
</svg>
