<svg width="50" height="50" viewBox="0 0 50 50" fill="none" xmlns="http://www.w3.org/2000/svg">
<g clip-path="url(#clip0_904_62732)">
<path d="M25 49.8047C38.6992 49.8047 49.8047 38.6992 49.8047 25C49.8047 11.3007 38.6992 0.195312 25 0.195312C11.3007 0.195312 0.195312 11.3007 0.195312 25C0.195312 38.6992 11.3007 49.8047 25 49.8047Z" fill="#1F84AB"/>
<path d="M42.168 42.8906C41.6797 40.4687 41.0156 38.2031 40.1953 37.1484C37.9688 34.2578 25.5859 32.9297 25.5859 32.9297L25 37.168L24.4141 32.9297C24.4141 32.9297 12.0312 34.2578 9.80469 37.1484C8.98438 38.2031 8.33984 40.4687 7.83203 42.8906C12.2852 47.168 18.3398 49.8047 25 49.8047C31.6602 49.8047 37.7148 47.168 42.168 42.8906Z" fill="#E55336"/>
<path d="M25 39.8828C19.8047 39.5898 17.2266 35.5859 18.8672 34.0234C19.8438 32.6367 20.6446 31.2109 20.6446 29.5703H29.336C29.336 31.2109 30.1367 32.6367 31.1133 34.0234C32.7735 35.5859 30.1953 39.5703 25 39.8828Z" fill="#E1B57A"/>
<path d="M23.047 6.62113C24.1017 6.44535 25.215 6.36723 26.1915 6.79691C27.9298 7.57816 28.5743 9.80473 28.3009 11.6797C27.3243 11.9336 26.3282 11.4649 25.3126 11.3477C23.672 11.1524 22.0314 11.8946 20.7814 13.0079C19.5509 14.1016 18.6329 15.5274 17.754 16.9336C17.0704 18.0079 16.3673 19.1797 16.3478 20.4493C16.3478 21.4454 16.7579 22.4024 17.2071 23.3008C18.4181 25.7813 19.8439 28.1836 21.4064 30.4688C19.3946 30.5469 17.3634 30.5469 15.3321 30.4883C14.4728 30.4688 13.5548 30.4102 12.8712 29.8633C12.0704 29.2383 11.8556 28.1641 11.6993 27.168C11.5235 25.9375 11.3673 24.668 11.4845 23.4375C11.6603 21.6211 12.3634 19.8829 13.0665 18.2032C13.6915 16.7188 14.297 15.2344 14.922 13.75C15.7032 11.875 16.5431 9.92191 18.086 8.61332C19.4923 7.46098 21.2696 6.9141 23.047 6.62113Z" fill="#361F19"/>
<path d="M26.9531 6.62113C25.8984 6.44535 24.7851 6.36723 23.8086 6.79691C22.0703 7.57816 21.4258 9.80473 21.6992 11.6797C22.6758 11.9336 23.6718 11.4649 24.6875 11.3477C26.3281 11.1524 27.9687 11.8946 29.2187 13.0079C30.4492 14.1016 31.3672 15.5274 32.2461 16.9336C32.9297 18.0079 33.6328 19.1797 33.6523 20.4493C33.6523 21.4454 33.2422 22.4024 32.7929 23.3008C31.582 25.7813 30.1562 28.1836 28.5937 30.4688C30.6054 30.5469 32.6367 30.5469 34.6679 30.4883C35.5273 30.4688 36.4453 30.4102 37.1289 29.8633C37.9297 29.2383 38.1445 28.1641 38.3008 27.168C38.4765 25.9375 38.6328 24.668 38.5156 23.4375C38.3398 21.6211 37.6367 19.8829 36.9336 18.2032C36.3086 16.7188 35.7031 15.2344 35.0781 13.75C34.2968 11.875 33.457 9.92191 31.914 8.61332C30.5078 7.46098 28.7304 6.9141 26.9531 6.62113Z" fill="#361F19"/>
<path d="M16.9848 24.5152C18.1685 24.3349 18.9121 22.771 18.6458 21.0222C18.3794 19.2733 17.2039 18.0017 16.0202 18.182C14.8365 18.3623 14.0929 19.9262 14.3592 21.675C14.6256 23.4239 15.8011 24.6955 16.9848 24.5152Z" fill="#E1B57A"/>
<path d="M33.9659 18.1957C32.7822 18.0154 31.6067 19.287 31.3403 21.0359C31.074 22.7847 31.8176 24.3486 33.0013 24.5289C34.185 24.7092 35.3605 23.4376 35.6268 21.6887C35.8932 19.9399 35.1496 18.376 33.9659 18.1957Z" fill="#E1B57A"/>
<path d="M25 33.1836C29.9188 33.1836 33.9062 27.9981 33.9062 21.6016C33.9062 15.205 29.9188 10.0195 25 10.0195C20.0812 10.0195 16.0938 15.205 16.0938 21.6016C16.0938 27.9981 20.0812 33.1836 25 33.1836Z" fill="#F5CD93"/>
<path d="M22.8125 9.12109C23.75 9.19922 24.8438 9.80469 24.8243 10.7422C24.8243 10.9961 24.7266 11.2305 24.6485 11.4648C24.3164 12.3633 23.9453 13.3008 23.1836 13.8672C22.5196 14.375 21.6407 14.4922 20.8594 14.7656C18.1641 15.7031 16.3282 18.6328 16.6602 21.4648C16.2696 20.625 16.7578 19.5508 16.3477 18.7109C16.2305 18.4766 16.0743 18.2813 15.9571 18.0664C15.5274 17.2461 15.8399 16.25 16.1524 15.3906C16.9141 13.3008 17.7735 11.0742 19.6485 9.88281C20.586 9.29688 21.7188 9.02344 22.8125 9.12109Z" fill="#361F19"/>
<path d="M26.8164 9.12114C25.8789 9.19927 24.7852 9.80473 24.8047 10.7422C24.8047 10.9961 24.9024 11.2305 24.9805 11.4649C25.3125 12.3633 25.6836 13.3008 26.4453 13.8672C27.1094 14.375 27.9883 14.4922 28.7695 14.7657C31.4453 15.7032 33.2813 18.6329 32.9492 21.4454C33.3399 20.6055 32.8516 19.5313 33.2617 18.6915C33.3789 18.4571 33.5352 18.2618 33.6524 18.0469C34.082 17.2266 33.7695 16.2305 33.457 15.3711C32.6953 13.2813 31.8359 11.0547 29.9609 9.86333C29.043 9.29692 27.9102 9.02348 26.8164 9.12114Z" fill="#361F19"/>
<path d="M24.0234 7.59767C23.6914 7.67579 23.3398 7.75392 23.1641 8.04689C23.0469 8.2422 23.0273 8.47657 23.0273 8.71095V9.39454C23.0273 9.53126 23.0273 9.64845 23.0859 9.78517C23.2031 10.0977 23.5352 10.2734 23.8281 10.4102C24.9023 10.8984 26.0352 11.2695 27.207 11.3672C27.3828 10.8984 27.5391 10.3711 27.4219 9.90236C27.3242 9.53126 27.0703 9.23829 26.7773 9.00392C26.4844 8.76954 26.1328 8.61329 25.8008 8.45704C25.3711 8.26173 24.9609 8.06642 24.5312 7.87111C24.2578 7.75392 24.4727 7.83204 24.1797 7.75392C24.1406 7.75392 24.1211 7.71486 24.1211 7.67579C24.1211 7.65626 24.1016 7.63673 24.1016 7.6172C24.0625 7.57814 24.0234 7.57814 24.0234 7.59767Z" fill="#361F19"/>
</g>
<defs>
<clipPath id="clip0_904_62732">
<rect width="50" height="50" fill="white"/>
</clipPath>
</defs>
</svg>
