<svg width="50" height="50" viewBox="0 0 50 50" fill="none" xmlns="http://www.w3.org/2000/svg">
<g clip-path="url(#clip0_904_63359)">
<path d="M25 49.8047C38.6992 49.8047 49.8047 38.6992 49.8047 25C49.8047 11.3007 38.6992 0.195312 25 0.195312C11.3007 0.195312 0.195312 11.3007 0.195312 25C0.195312 38.6992 11.3007 49.8047 25 49.8047Z" fill="#E65336"/>
<path d="M39.6289 36.4258C39.3945 36.9531 39.1602 37.5 38.9453 38.0273C38.7305 38.5156 38.4961 39.0234 38.0664 39.3164C37.6953 39.5508 37.2461 39.6094 36.8164 39.6289C34.9219 39.707 33.0078 39.1211 31.4648 38.0273C31.25 37.8711 31.0352 37.6953 30.8398 37.5C30.5664 37.207 30.3516 36.875 30.1562 36.5234C29.0234 34.4141 28.6719 31.9727 28.6328 29.5703C28.5742 27.168 28.8086 24.7852 28.7305 22.4024C28.5547 17.5586 27.0898 12.7539 24.5117 8.63282C24.668 7.96876 24.9805 7.32423 25.5469 6.97266C25.8594 6.77735 26.2305 6.66016 26.6016 6.60157C29.082 6.19141 31.7773 8.92579 33.2812 10.9375C34.7852 12.9297 35.2734 15 35.7031 17.4805C36.1328 19.9414 36.3477 21.582 37.1094 23.9648C37.2656 24.4336 37.4219 24.8828 37.5195 25.3516C37.7539 26.4844 37.5781 27.6563 37.6953 28.8086C37.8906 30.8008 38.9258 32.6172 39.668 34.4727C39.7852 34.7852 39.9023 35.0977 39.9023 35.4297C39.9023 35.7813 39.7656 36.1133 39.6289 36.4258Z" fill="#10100F"/>
<path d="M18.0663 40.0782C18.9843 40.625 19.8241 41.4258 20.8983 41.504C21.9335 41.5625 22.9491 40.7813 23.1444 39.7657C22.0702 39.7852 20.996 39.1211 20.5468 38.125C19.8436 36.6211 21.7187 33.4766 21.4062 31.8555C21.1913 30.7227 19.8827 29.9805 19.3554 28.9454C17.9296 26.1133 17.3632 23.9258 17.3632 20.7422C17.3632 19.0821 17.3827 17.4024 17.9491 15.8594C18.8085 13.5547 20.8007 11.8555 22.9101 10.5665C23.5155 10.1954 24.1405 9.8438 24.5702 9.2774C24.9999 8.71099 25.1757 7.89068 24.7851 7.30474C24.3944 6.7188 23.5937 6.56255 22.871 6.52349C20.9765 6.38677 18.6913 7.4024 17.4022 8.57427C15.0194 10.7422 13.5351 14.961 13.0272 18.1641C12.6561 20.5079 12.539 20.7032 12.3437 23.0665C12.0897 26.0352 11.9726 29.1016 10.7616 31.836C9.76553 34.0821 8.04678 36.0352 7.4999 38.4375C7.34365 39.1407 7.42178 40.0782 8.10537 40.3125C8.78896 40.5274 9.45303 39.8243 10.1757 39.8633C10.6054 39.8829 10.9765 40.1563 11.4062 40.1563C11.7382 40.1563 12.0507 39.9805 12.3437 39.8243C14.121 38.9649 16.3476 39.0625 18.0663 40.0782Z" fill="#10100F"/>
<path d="M42.168 42.8906C41.6797 40.4688 41.0156 38.2031 40.1953 37.1484C37.9688 34.2578 25.5859 32.9297 25.5859 32.9297L25 37.168L24.4141 32.9297C24.4141 32.9297 12.0313 34.2578 9.80469 37.1484C8.98438 38.2031 8.33984 40.4688 7.83203 42.8906C12.2852 47.168 18.3398 49.8047 25 49.8047C31.6602 49.8047 37.7148 47.168 42.168 42.8906Z" fill="#F0C949"/>
<path d="M25 39.8828C19.8047 39.5898 17.2266 35.5859 18.8672 34.0234C19.8438 32.6367 20.6446 31.2109 20.6446 29.5703H29.336C29.336 31.2109 30.1367 32.6367 31.1133 34.0234C32.7735 35.5859 30.1953 39.5703 25 39.8828Z" fill="#E1B57A"/>
<path d="M16.9848 24.5152C18.1685 24.3349 18.9121 22.771 18.6458 21.0222C18.3794 19.2733 17.2039 18.0017 16.0202 18.182C14.8365 18.3623 14.0929 19.9262 14.3592 21.675C14.6256 23.4239 15.8011 24.6955 16.9848 24.5152Z" fill="#E1B57A"/>
<path d="M33.9659 18.1957C32.7822 18.0154 31.6067 19.287 31.3403 21.0359C31.074 22.7847 31.8176 24.3486 33.0013 24.5289C34.185 24.7092 35.3605 23.4376 35.6268 21.6887C35.8932 19.9399 35.1496 18.376 33.9659 18.1957Z" fill="#E1B57A"/>
<path d="M25 33.1836C29.6923 33.1836 33.4961 27.9981 33.4961 21.6016C33.4961 15.205 29.6923 10.0195 25 10.0195C20.3077 10.0195 16.5039 15.205 16.5039 21.6016C16.5039 27.9981 20.3077 33.1836 25 33.1836Z" fill="#F5CD93"/>
<path d="M22.8125 9.12109C23.75 9.19922 24.8438 9.80469 24.8243 10.7422C24.8243 10.9961 24.7266 11.2305 24.6485 11.4648C24.3164 12.3633 23.9453 13.3008 23.1836 13.8672C22.5196 14.375 21.6407 14.4922 20.8594 14.7656C18.1641 15.7031 16.3282 18.6328 16.6602 21.4648C16.2696 20.625 16.7578 19.5508 16.3477 18.7109C16.2305 18.4766 16.0743 18.2813 15.9571 18.0664C15.5274 17.2461 15.8399 16.25 16.1524 15.3906C16.9141 13.3008 17.7735 11.0742 19.6485 9.88281C20.586 9.29688 21.7188 9.02344 22.8125 9.12109Z" fill="#10100F"/>
<path d="M26.8164 9.12114C25.8789 9.19927 24.7852 9.80473 24.8047 10.7422C24.8047 10.9961 24.9024 11.2305 24.9805 11.4649C25.3125 12.3633 25.6836 13.3008 26.4453 13.8672C27.1094 14.375 27.9883 14.4922 28.7695 14.7657C31.4453 15.7032 33.2813 18.6329 32.9492 21.4454C33.3399 20.6055 32.8516 19.5313 33.2617 18.6915C33.3789 18.4571 33.5352 18.2618 33.6524 18.0469C34.082 17.2266 33.7695 16.2305 33.457 15.3711C32.6953 13.2813 31.8359 11.0547 29.9609 9.86333C29.043 9.29692 27.9102 9.02348 26.8164 9.12114Z" fill="#10100F"/>
<path d="M24.0234 7.59767C23.6914 7.67579 23.3398 7.75392 23.1641 8.04689C23.0469 8.2422 23.0273 8.47657 23.0273 8.71095V9.39454C23.0273 9.53126 23.0273 9.64845 23.0859 9.78517C23.2031 10.0977 23.5352 10.2734 23.8281 10.4102C24.9023 10.8984 26.0352 11.2695 27.207 11.3672C27.3828 10.8984 27.5391 10.3711 27.4219 9.90236C27.3242 9.53126 27.0703 9.23829 26.7773 9.00392C26.4844 8.76954 26.1328 8.61329 25.8008 8.45704C25.3711 8.26173 24.9609 8.06642 24.5312 7.87111C24.2578 7.75392 24.4727 7.83204 24.1797 7.75392C24.1406 7.75392 24.1211 7.71486 24.1211 7.67579C24.1211 7.65626 24.1016 7.63673 24.1016 7.6172C24.0625 7.57814 24.0234 7.57814 24.0234 7.59767ZM10.4297 35.0195C12.6953 32.8125 15.4883 31.1719 18.4961 30.2344C19.1992 31.0352 19.5703 32.1289 19.4727 33.1836C19.4141 33.9063 19.1602 34.6094 19.1211 35.332C19.0625 36.6016 19.7656 37.8711 20.8594 38.4961C21.3086 38.75 21.8359 38.9258 22.1484 39.3359C22.5977 39.9024 22.4414 40.8008 21.9336 41.2891C21.4258 41.7969 20.625 41.9336 19.9219 41.7969C19.2188 41.6602 18.5938 41.2695 18.0273 40.8008C17.7148 40.5469 17.2852 40.2344 16.9141 40.4102C16.6602 40.5274 16.543 40.8203 16.4844 41.0742C16.3867 41.4844 16.3477 41.8945 16.3672 42.3242C15.5664 42.5195 14.7656 42.7344 13.9844 42.9297C13.75 42.9883 13.4961 43.0469 13.2617 43.0469C12.5195 43.0469 11.8359 42.3633 11.8359 41.6211C11.2109 41.3477 10.5078 41.875 9.84375 41.8164C9.35547 41.7774 8.94531 41.4258 8.67188 41.0156C8.02734 40.0586 8.04688 38.7891 8.45703 37.7149C8.84766 36.6992 9.60938 35.8008 10.4297 35.0195ZM31.4648 37.4414C31.6797 36.8555 31.7969 36.2109 31.6992 35.5859C31.582 34.8047 31.1328 34.1211 30.8594 33.3985C30.5664 32.6758 30.4492 31.7774 30.918 31.1524C31.4258 30.4883 32.3633 30.3906 33.1836 30.4102C33.9453 30.4297 34.7266 30.5078 35.4883 30.625C36.2305 30.7422 36.9922 30.9375 37.5977 31.3672C38.5547 32.0703 38.9453 33.2813 39.2773 34.4336C39.6875 35.918 40 37.6953 39.0039 38.8867C38.457 39.5313 37.6172 39.8438 36.7969 40.0977C36.0156 40.332 35.1562 40.5469 34.375 40.293C34.1602 40.2344 33.9648 40.1367 33.75 40.1367C33.4375 40.1563 33.1836 40.4102 32.9492 40.6055C32.1289 41.2695 30.9766 41.543 29.9805 41.2305C28.9648 40.918 28.1445 40.0586 27.9297 39.0235C28.8086 39.5313 30 39.375 30.7227 38.6914C31.0547 38.3399 31.2891 37.8906 31.4648 37.4414ZM31.1133 15.4102C31.9531 15.9961 32.5 16.9531 32.7734 17.9297C33.0469 18.9063 33.0664 19.961 33.0273 20.9961C33.0273 21.1914 33.0078 21.3867 33.0664 21.5625C33.125 21.7188 33.2422 21.8555 33.3789 21.9727C33.8672 22.3633 34.5898 22.3242 35.0977 22.6758C35.625 23.0274 35.8398 23.711 35.9766 24.336C35.3711 22.461 36.1914 20.3125 35.4297 18.4961C35.0781 17.6367 34.4141 16.9531 33.6328 16.4453C32.8906 15.957 32.0117 15.6445 31.1133 15.4102ZM14.9609 16.3086C15.4102 15.7031 15.9375 15.0391 16.6992 14.9805C16.7383 17.0313 16.7969 19.082 16.582 21.1133C16.582 21.1719 16.5625 21.25 16.5234 21.3086C16.4648 21.3672 16.3867 21.3867 16.3086 21.4063C15.7812 21.5235 15.2734 21.7969 14.8828 22.1875C14.5117 22.5781 14.2578 23.125 14.2773 23.6719C13.457 22.2852 13.0078 20.5859 13.4375 19.043C13.7305 18.0274 14.3555 17.1484 14.9609 16.3086Z" fill="#10100F"/>
</g>
<defs>
<clipPath id="clip0_904_63359">
<rect width="50" height="50" fill="white"/>
</clipPath>
</defs>
</svg>
