<svg width="50" height="50" viewBox="0 0 50 50" fill="none" xmlns="http://www.w3.org/2000/svg">
<g clip-path="url(#clip0_904_62567)">
<path d="M25 50C38.8071 50 50 38.8071 50 25C50 11.1929 38.8071 0 25 0C11.1929 0 0 11.1929 0 25C0 38.8071 11.1929 50 25 50Z" fill="#58B0E0"/>
<path fill-rule="evenodd" clip-rule="evenodd" d="M18.8147 31.2946L31.6844 31.3925V41.8439L18.8147 41.746V31.2946Z" fill="#F9DCA4"/>
<path fill-rule="evenodd" clip-rule="evenodd" d="M35.5753 47.6578C32.304 49.1814 28.7421 49.9803 25.1334 49.9998C21.5247 50.0194 17.9544 49.2591 14.6667 47.7711V39.1724H35.5745L35.5753 47.6578Z" fill="#E6E6E6"/>
<path fill-rule="evenodd" clip-rule="evenodd" d="M27.0251 49.9191C26.3573 49.9725 25.6823 49.9994 25 50C24.4849 50 23.9738 49.9846 23.4668 49.9539L24.3001 42.682H26.25L27.0251 49.9191Z" fill="#E9573E"/>
<path fill-rule="evenodd" clip-rule="evenodd" d="M20.7581 49.6213C18.0017 49.1079 15.3398 48.1771 12.8641 46.8608C10.4863 45.5376 8.33932 43.8366 6.50732 41.8244L7.54616 39.3163L18.8123 34.2904C18.8123 38.5072 20.1966 45.1974 20.7581 49.6213Z" fill="#677079"/>
<path opacity="0.11" fill-rule="evenodd" clip-rule="evenodd" d="M31.687 31.3584V33.9724C27.8585 38.4441 20.5438 37.8114 18.9038 31.2119L31.687 31.3584Z" fill="black"/>
<path fill-rule="evenodd" clip-rule="evenodd" d="M25.1853 6.82202C42.4029 6.82202 35.6926 35.3544 25.1853 35.3544C15.2605 35.3544 7.96767 6.82202 25.1853 6.82202Z" fill="#FFE8BE"/>
<path fill-rule="evenodd" clip-rule="evenodd" d="M14.8584 19.4547C12.3745 20.538 14.4862 25.6731 16.0493 25.6505C15.4009 23.6413 15.001 21.5611 14.8584 19.4547ZM35.7119 19.4539C38.1957 20.5372 36.0841 25.6731 34.5218 25.6496C35.1696 23.6406 35.5693 21.5599 35.7119 19.4539Z" fill="#F9DCA4"/>
<path fill-rule="evenodd" clip-rule="evenodd" d="M17.7436 11.5923C15.0462 14.39 15.9952 22.1344 15.9952 22.1344L15.1457 21.7339C9.84312 1.18856 40.7396 1.18775 35.407 21.7339L34.5575 22.1344C34.5575 22.1344 35.5074 14.39 32.8099 11.5923C29.4774 14.8245 21.0575 14.8075 17.7436 11.5923Z" fill="#464449"/>
<path fill-rule="evenodd" clip-rule="evenodd" d="M29.7468 49.5494C35.2139 48.4935 40.1713 45.6407 43.831 41.4442L42.9491 39.3156L31.6837 34.2897C31.6837 38.5065 30.3083 45.1254 29.7468 49.5494Z" fill="#677079"/>
<path fill-rule="evenodd" clip-rule="evenodd" d="M31.6843 33.9644L25.2717 39.1949L30.5897 43.9789C30.5897 43.9789 32.0072 36.1278 31.6843 33.9644Z" fill="white"/>
<path fill-rule="evenodd" clip-rule="evenodd" d="M18.813 33.9644L25.2766 39.1949L19.9004 43.9789C19.9004 43.9789 18.4878 36.1278 18.813 33.9644Z" fill="white"/>
<path fill-rule="evenodd" clip-rule="evenodd" d="M22.7419 41.4458L25.28 39.1659L27.818 41.4458L25.28 43.725L22.7419 41.4458Z" fill="#E9573E"/>
<path fill-rule="evenodd" clip-rule="evenodd" d="M20.8472 49.6545C19.8141 49.4816 18.7929 49.2438 17.7897 48.9425C17.7583 48.9183 17.7275 48.8932 17.6975 48.8673L14.8375 43.6974L18.5114 41.0598H14.6667L15.4896 35.5169L18.8148 33.4142C18.9588 39.377 20.2379 46.0809 20.8472 49.6545ZM29.6481 49.5679C30.1239 49.4886 30.5947 49.3786 31.0616 49.2572C31.613 49.1113 32.1616 48.9551 32.7072 48.7888L32.8156 48.754L35.6562 43.6448L31.9823 41.0218H35.8269L35.0041 35.5064L31.6789 33.4142C31.5349 39.3462 30.2566 46.0121 29.6481 49.5679Z" fill="#434955"/>
</g>
<defs>
<clipPath id="clip0_904_62567">
<rect width="50" height="50" fill="white"/>
</clipPath>
</defs>
</svg>
