<svg width="50" height="50" viewBox="0 0 50 50" fill="none" xmlns="http://www.w3.org/2000/svg">
<g clip-path="url(#clip0_904_62378)">
<path d="M25 50C38.8071 50 50 38.8071 50 25C50 11.1929 38.8071 0 25 0C11.1929 0 0 11.1929 0 25C0 38.8071 11.1929 50 25 50Z" fill="#485A69"/>
<path fill-rule="evenodd" clip-rule="evenodd" d="M18.8042 31.2233L31.6845 31.3924V41.8438L18.8147 41.7459L18.8042 31.2233Z" fill="#F9DCA4"/>
<path fill-rule="evenodd" clip-rule="evenodd" d="M43.267 42.0655C40.931 44.5724 38.1032 46.5709 34.9603 47.936C31.8173 49.3012 28.4267 50.0038 25 50C23.9623 49.9999 22.9255 49.9358 21.8957 49.8082C18.7235 49.4158 15.6569 48.4147 12.8641 46.86C10.4863 45.5368 8.33932 43.8358 6.50732 41.8236L7.54616 39.3155L18.8123 34.2896C18.8123 37.9587 20.301 39.267 25.2606 39.3414C31.3852 39.4328 31.6845 38.0421 31.6845 34.2605L42.0324 39.3422L43.267 42.0655Z" fill="#D5E1ED"/>
<path opacity="0.11" fill-rule="evenodd" clip-rule="evenodd" d="M31.6869 31.3738V34.1278C29.462 38.1035 20.36 38.1715 18.8042 31.2233L31.6869 31.3738Z" fill="black"/>
<path fill-rule="evenodd" clip-rule="evenodd" d="M25.1853 6.82202C42.4029 6.82202 35.6926 35.3544 25.1853 35.3544C15.2605 35.3544 7.96767 6.82202 25.1853 6.82202Z" fill="#FFE8BE"/>
<path fill-rule="evenodd" clip-rule="evenodd" d="M14.8584 19.4539C12.3745 20.538 14.4862 25.6731 16.0493 25.6496C15.401 23.6407 15.001 21.56 14.8584 19.4539ZM35.7119 19.4539C38.1957 20.5372 36.0841 25.6731 34.5218 25.6496C35.1697 23.6406 35.5693 21.5599 35.7119 19.4539Z" fill="#F9DCA4"/>
<path fill-rule="evenodd" clip-rule="evenodd" d="M35.1205 23.9353C35.1205 23.9353 35.983 16.8835 33.4902 14.4272C32.4061 17.2816 27.4207 18.2565 27.4207 18.2565C28.3887 17.5794 29.2632 16.7778 30.0218 15.8722C28.6852 16.4507 24.4587 18.1845 20.6286 16.8115C21.6706 16.1834 22.6504 15.4577 23.555 14.644C23.555 14.644 20.0865 16.5227 16.7265 16.0534C14.3066 17.8592 15.3834 23.466 15.3834 23.466C12.1359 14.9005 15.127 5.09386 25.3964 5.03723C35.3948 4.9814 38.4797 14.6222 35.1205 23.9353Z" fill="#ECBE6A"/>
<path fill-rule="evenodd" clip-rule="evenodd" d="M18.8148 34.1254C20.3889 36.4706 22.6323 38.2879 25.2534 39.3406L21.0608 43.6682L15.7283 35.4935L18.8148 34.1254Z" fill="white"/>
<path fill-rule="evenodd" clip-rule="evenodd" d="M31.6829 34.1254C30.1088 36.4706 27.8654 38.2878 25.2444 39.3406L29.4361 43.6682L34.7695 35.4943L31.6829 34.1254Z" fill="white"/>
<path fill-rule="evenodd" clip-rule="evenodd" d="M26.9951 49.9191C26.3268 49.9715 25.6515 49.9979 24.9692 49.9984C24.4546 49.9984 23.9436 49.9833 23.436 49.9531L24.2702 42.8682H26.22L26.9951 49.9191Z" fill="#3DBC93"/>
<path fill-rule="evenodd" clip-rule="evenodd" d="M23.0356 41.6311L25.25 39.3519L27.4636 41.6311L25.25 43.9102L23.0356 41.6311Z" fill="#3DBC93"/>
</g>
<defs>
<clipPath id="clip0_904_62378">
<rect width="50" height="50" fill="white"/>
</clipPath>
</defs>
</svg>
