<svg width="50" height="50" viewBox="0 0 50 50" fill="none" xmlns="http://www.w3.org/2000/svg">
<g clip-path="url(#clip0_904_63548)">
<path d="M25 49.8047C38.6992 49.8047 49.8047 38.6992 49.8047 25C49.8047 11.3007 38.6992 0.195312 25 0.195312C11.3007 0.195312 0.195312 11.3007 0.195312 25C0.195312 38.6992 11.3007 49.8047 25 49.8047Z" fill="#D5E0E1"/>
<path d="M23.8281 14.1796C20.7813 14.5312 17.7149 14.8828 14.668 15.2539C14.6094 17.9492 15.0781 20.664 16.0352 23.1835C16.6602 24.8242 17.5586 26.4453 18.9844 27.4804C20.4688 28.5546 22.3438 28.8476 24.1406 29.1406C25.9766 29.4335 27.9492 29.6874 29.5899 28.8476C31.3281 27.9492 32.2461 26.0546 32.9688 24.2382C33.7695 22.2265 34.4531 20.1171 34.5117 17.9687C34.5313 16.9531 34.375 15.8398 33.6524 15.1367C33.0859 14.5703 32.2461 14.3554 31.4649 14.1992C30.293 13.9843 29.1016 13.8867 27.9102 13.8867C26.5234 13.8671 25.1758 14.0234 23.8281 14.1796Z" fill="#1B1613"/>
<path d="M18.2812 28.5742C18.1641 28.1445 17.5977 27.9687 17.168 28.1054C16.9922 28.164 16.8164 28.2812 16.6797 28.3984L17.5586 29.2382C17.6953 28.9257 17.9492 28.6914 18.2812 28.5742Z" fill="#2E4555"/>
<path d="M30.7227 28.5742C30.9766 28.6524 31.1719 28.8281 31.3281 29.0235L31.7773 28.086C31.3672 27.9883 30.8398 28.1641 30.7227 28.5742Z" fill="#546F7B"/>
<path d="M23.5547 39.9805C24.5507 40.4102 24.9804 39.9219 26.0547 40.0195C26.7773 40.0977 27.5 40.1562 28.1836 39.9805C28.7304 39.8437 29.2382 39.5508 29.707 39.2383C31.6797 37.8906 33.1445 35.8203 33.789 33.5156C34.1406 32.2266 34.1211 30.5859 32.9882 29.8828C32.5976 29.6484 32.1093 29.5508 31.7187 29.3164C30.9375 28.8477 30.5664 27.8906 30.4687 26.9727C30.3711 26.0547 30.4882 25.1367 30.3711 24.2383C26.4648 23.5156 22.3242 24.1016 18.6132 22.6758C19.3945 25.4687 18.5156 28.6719 16.3867 30.6445C16.1523 30.8594 15.8984 31.0742 15.8007 31.3867C15.6836 31.7383 15.8007 32.1094 15.9375 32.4414C16.5429 34.0039 17.5 35.4102 18.7304 36.543C19.4336 37.1875 20.2343 37.7344 21.0156 38.2812C21.6211 38.6914 22.8906 39.6875 23.5547 39.9805Z" fill="#D3AA6F"/>
<path d="M25 49.8047C33.7109 49.8047 41.3672 45.3125 45.8008 38.5156C45.7812 38.457 45.7617 38.3984 45.7227 38.3203C45.3711 37.4023 45 36.4648 44.3164 35.7617C43.6523 35.0977 41.1914 33.9844 40.3516 33.5742C39.0234 32.9297 37.7539 32.168 36.5625 31.3281C35.9961 30.918 35.4297 30.4883 34.7656 30.2734C34.4531 30.1758 34.1016 30.1172 33.8086 29.9414C33.7695 29.9219 33.7305 29.9023 33.7109 29.8828C34.4141 31.6016 34.6289 33.5742 34.8047 35.4688C34.9219 36.6797 35.0195 37.8711 35.1367 39.082C34.668 39.3164 34.1406 39.043 33.6914 38.7695C32.8516 38.2617 32.0117 37.7539 31.1719 37.2266C30.8984 37.0703 30.6055 36.8945 30.293 36.9531C30.0195 37.0117 29.8047 37.2461 29.6094 37.4609C28.7891 38.3398 27.7148 38.9844 26.5625 39.2969C26.0742 39.4336 25.5664 39.5117 25.0977 39.6484C24.9609 39.6875 24.8047 39.7461 24.668 39.7852C24.6094 39.8633 24.5703 39.9414 24.5117 40.0195C24.4531 39.9414 24.4141 39.8633 24.3555 39.7852C24.2188 39.7266 24.0625 39.6875 23.9258 39.6484C23.4375 39.5117 22.9492 39.4336 22.4609 39.2969C21.3086 38.9844 20.2344 38.3398 19.4141 37.4609C19.2188 37.2461 19.0039 37.0117 18.7305 36.9531C18.418 36.8945 18.125 37.0703 17.8516 37.2266C17.0117 37.7344 16.1719 38.2422 15.332 38.7695C14.9023 39.043 14.3555 39.3164 13.8867 39.082C14.0039 37.8711 14.1016 36.6602 14.2188 35.4688C14.3945 33.5938 14.6094 31.6016 15.3125 29.8828C15.2734 29.9023 15.2539 29.9219 15.2148 29.9414C14.9219 30.0977 14.5703 30.1562 14.2578 30.2734C13.5938 30.4883 13.0273 30.918 12.4609 31.3281C11.2695 32.168 10 32.9297 8.67188 33.5742C7.83203 33.9844 5.37109 35.0977 4.70703 35.7617C4.21875 36.2695 3.88672 36.875 3.61328 37.5391C7.91016 44.8828 15.8789 49.8047 25 49.8047Z" fill="#36505F"/>
<path d="M17.5391 33.7891C17.3242 33.0078 17.2266 32.1875 17.1875 31.3867C17.168 31.1914 17.168 30.9961 17.1875 30.8008C17.168 30.5078 17.207 30.1953 17.2656 29.9023C17.3242 29.668 17.4023 29.4531 17.5195 29.2383L16.6406 28.3984C16.4453 28.5742 16.2695 28.7695 16.1133 28.9844C15.8594 29.3164 15.625 29.668 15.2734 29.8828C14.5703 31.6016 14.3555 33.5742 14.1797 35.4688C14.0625 36.6797 13.9648 37.8711 13.8477 39.082C14.3164 39.3164 14.8438 39.043 15.293 38.7695C16.1328 38.2617 16.9727 37.7539 17.8125 37.2266C18.0859 37.0703 18.3789 36.8945 18.6914 36.9531C18.7891 36.9727 18.8672 37.0117 18.9453 37.0508C18.8086 36.7969 18.6914 36.543 18.5547 36.2891C18.1641 35.4883 17.793 34.668 17.5391 33.7891Z" fill="#2E4555"/>
<path d="M34.8047 35.4688C34.6289 33.5938 34.4141 31.6016 33.7109 29.8828C33.3594 29.6484 33.125 29.3164 32.8711 28.9844C32.5977 28.6133 32.2852 28.2617 31.8555 28.1055C31.8359 28.1055 31.8164 28.1055 31.7969 28.0859L31.3477 29.0234C31.543 29.2773 31.6797 29.5898 31.7383 29.9023V29.9414C31.9727 30.2344 32.1094 30.625 32.1289 30.9961C32.168 31.6797 31.9141 32.3242 31.6602 32.9492C31.3867 33.6328 31.1133 34.3164 30.8594 35L30.0391 37.0508C30.1172 36.9922 30.2148 36.9531 30.3125 36.9336C30.625 36.875 30.918 37.0508 31.1914 37.207C32.0312 37.7148 32.8711 38.2227 33.7109 38.75C34.1406 39.0234 34.6875 39.2969 35.1562 39.0625C35.0195 37.8711 34.9023 36.6602 34.8047 35.4688Z" fill="#546F7B"/>
<path d="M31.6602 32.9688C31.9141 32.3438 32.168 31.6797 32.1289 31.0156C32.1094 30.6445 31.9727 30.2539 31.7383 29.9609C31.9336 30.8984 31.7383 31.9141 31.1719 32.6953C30.8008 33.2031 30.3125 33.6133 29.8438 34.0234C27.8906 35.7227 26.1523 37.6758 24.668 39.7852C24.8047 39.7266 24.9609 39.6875 25.0977 39.6484C25.5859 39.5117 26.0742 39.4336 26.5625 39.2969C27.7148 38.9844 28.7891 38.3398 29.6094 37.4609C29.7461 37.3242 29.8633 37.168 30.0195 37.0703L30.8398 35.0195L31.6602 32.9688Z" fill="#2E4555"/>
<path d="M25.4883 44.5508C25.3906 43.7891 25.2148 43.0664 25.0391 42.3242C24.9023 41.7578 24.7656 41.2109 24.6484 40.6445C24.5508 40.2734 24.4727 39.8828 24.2383 39.5703C24.1797 39.4922 24.1016 39.4141 24.0234 39.3359C22.6172 37.3828 20.9766 35.6055 19.1602 34.0234C18.6914 33.6133 18.1836 33.2031 17.832 32.6953C17.4414 32.1484 17.2266 31.4648 17.207 30.8008C17.1875 30.9961 17.1875 31.1914 17.207 31.3867C17.2461 32.1875 17.3438 33.0078 17.5586 33.7891C17.793 34.668 18.1836 35.4883 18.5742 36.3086C18.6914 36.5625 18.8281 36.8164 18.9648 37.0703C19.1211 37.168 19.2578 37.3242 19.3945 37.4609C19.9023 38.0078 20.5078 38.457 21.1719 38.8086C21.1719 38.8281 21.1523 38.8477 21.1523 38.8672C21.1523 38.9453 21.2305 39.0039 21.2891 39.0625C22.2266 39.7656 22.9688 40.6836 23.7109 41.582C23.8867 41.7773 24.043 41.9922 24.1797 42.2266C24.3555 42.5391 24.4531 42.8906 24.5508 43.2422C24.8828 44.3945 25.1953 45.5469 25.5273 46.6992C25.6055 45.957 25.5859 45.2539 25.4883 44.5508Z" fill="#546F7B"/>
<path d="M17.2563 22.3119C17.8899 22.1799 18.0845 20.5406 17.6909 18.6503C17.2972 16.76 16.4645 15.3346 15.8309 15.4665C15.1972 15.5985 15.0027 17.2378 15.3963 19.1281C15.7899 21.0184 16.6227 22.4438 17.2563 22.3119Z" fill="#D3AA6F"/>
<path d="M33.7643 15.454C33.1307 15.322 32.2979 16.7474 31.9043 18.6377C31.5107 20.528 31.7052 22.1674 32.3388 22.2993C32.9724 22.4312 33.8052 21.0058 34.1988 19.1155C34.5924 17.2252 34.3979 15.5859 33.7643 15.454Z" fill="#D3AA6F"/>
<path d="M24.8047 30.5273C29.3675 30.5273 33.0664 24.756 33.0664 17.6367C33.0664 10.5174 29.3675 4.74609 24.8047 4.74609C20.2419 4.74609 16.543 10.5174 16.543 17.6367C16.543 24.756 20.2419 30.5273 24.8047 30.5273Z" fill="#EEC98F"/>
<path d="M18.4569 4.0625C19.2577 3.53516 20.1952 3.20312 21.1132 2.87109C22.2265 2.48047 23.3788 2.07031 24.5702 2.07031C26.1913 2.07031 27.7148 2.83203 29.1601 3.59375C29.4335 3.73047 29.7265 3.88672 29.9218 4.14062C30.1952 4.47266 30.2538 4.92187 30.2734 5.35156C30.3124 6.09375 30.3124 6.85547 30.0585 7.55859C29.4921 9.16016 27.8515 10.1367 26.1913 10.5469C24.5507 10.957 22.8124 10.957 21.1523 11.3086C20.5077 11.4453 19.8632 11.6406 19.2968 11.9727C17.2655 13.1641 16.621 15.8984 17.0898 18.2031C17.1874 18.6523 17.1288 19.3359 16.6601 19.2969C16.7577 18.6523 16.289 17.9688 15.6444 17.832C15.4101 17.793 15.1757 17.8125 14.9804 17.6758C14.7655 17.5391 14.6874 17.2656 14.6288 17.0312C14.1796 15.1172 14.1991 13.1055 14.2187 11.1328C14.2187 10.4688 14.2382 9.78516 14.4335 9.14062C14.6484 8.49609 15.039 7.92969 15.4296 7.36328C16.328 6.15234 17.2069 4.88281 18.4569 4.0625Z" fill="#1B1613"/>
<path d="M34.7266 13.4961C34.8047 11.7187 34.9024 9.90234 34.4727 8.18359C34.2383 7.20703 33.8281 6.26953 33.1445 5.52734C32.461 4.78515 31.4844 4.29687 30.4883 4.35546C30.3906 4.35546 30.2735 4.37499 30.1953 4.43359C30.0977 4.51171 30.0391 4.6289 30 4.74609C29.5313 6.05468 29.1406 7.38281 28.8281 8.73046C28.7695 9.02343 28.6914 9.3164 28.7305 9.60937C28.7891 10.293 29.2969 10.8594 29.8242 11.2891C30.3516 11.7187 30.957 12.1094 31.3281 12.6953C31.6406 13.1836 31.7578 13.75 31.8555 14.3164C32.0899 15.6055 32.2461 16.9336 32.3047 18.2422C32.3242 18.5937 32.5 19.082 32.832 19.0039C32.6172 18.4961 32.9492 17.9297 33.3594 17.5391C33.75 17.168 34.2578 16.8359 34.4727 16.3281C34.5899 16.0547 34.6094 15.7422 34.6289 15.4297C34.6485 14.7851 34.6875 14.1406 34.7266 13.4961Z" fill="#1B1613"/>
</g>
<defs>
<clipPath id="clip0_904_63548">
<rect width="50" height="50" fill="white"/>
</clipPath>
</defs>
</svg>
