<svg width="13" height="13" viewBox="0 0 13 13" fill="none" xmlns="http://www.w3.org/2000/svg">
<path d="M5 5.5835C5 5.5835 5.375 5.5835 5.75 6.25C5.75 6.25 6.941 4.5835 8 4.25M8.9415 8L9.2765 9.605C9.4915 10.636 9.5995 11.1515 9.378 11.396C9.157 11.6405 8.773 11.4305 8.005 11.01L6.868 10.3875C6.6865 10.2885 6.596 10.2385 6.5 10.2385C6.404 10.2385 6.3135 10.2885 6.132 10.3875L4.995 11.01C4.227 11.43 3.843 11.6405 3.622 11.396C3.401 11.1515 3.5085 10.636 3.7235 9.605L4.0585 8M5.213 2.0315C5.842 1.677 6.156 1.5 6.5 1.5C6.844 1.5 7.158 1.677 7.787 2.0315L8.662 2.5245C9.3145 2.892 9.641 3.076 9.8205 3.3835C10 3.691 10 4.066 10 4.816V5.684C10 6.434 10 6.809 9.82 7.1165C9.641 7.424 9.315 7.608 8.662 7.9755L7.787 8.4685C7.158 8.823 6.844 9 6.5 9C6.156 9 5.842 8.823 5.213 8.4685L4.338 7.9755C3.6855 7.608 3.359 7.424 3.1795 7.1165C3 6.809 3 6.434 3 5.684V4.816C3 4.066 3 3.691 3.18 3.3835C3.359 3.076 3.685 2.892 4.338 2.5245L5.213 2.0315Z" stroke="#070D17" stroke-width="0.75" stroke-linecap="round" stroke-linejoin="round"/>
</svg>
