<svg width="13" height="13" viewBox="0 0 13 13" fill="none" xmlns="http://www.w3.org/2000/svg">
<path d="M3.78898 8.241C3.08148 8.662 1.22648 9.522 2.35648 10.5985C2.90798 11.124 3.52248 11.5 4.29498 11.5H8.70398C9.47698 11.5 10.0915 11.124 10.643 10.5985C11.773 9.522 9.91798 8.662 9.21048 8.241C8.38938 7.75593 7.45316 7.50005 6.49948 7.50005C5.5458 7.50005 4.61009 7.75593 3.78898 8.241ZM8.74998 3.75C8.74998 4.34674 8.51293 4.91903 8.09097 5.34099C7.66901 5.76295 7.09672 6 6.49998 6C5.90324 6 5.33095 5.76295 4.90899 5.34099C4.48703 4.91903 4.24998 4.34674 4.24998 3.75C4.24998 3.15326 4.48703 2.58097 4.90899 2.15901C5.33095 1.73705 5.90324 1.5 6.49998 1.5C7.09672 1.5 7.66901 1.73705 8.09097 2.15901C8.51293 2.58097 8.74998 3.15326 8.74998 3.75Z" stroke="#070D17" stroke-width="0.75" stroke-linecap="round" stroke-linejoin="round"/>
</svg>
