<svg width="32" height="32" viewBox="0 0 32 32" fill="none" xmlns="http://www.w3.org/2000/svg">
<rect width="32" height="32" rx="8" fill="black" fill-opacity="0.06"/>
<path d="M9.74998 13.5002L10.8441 9.74187C10.9441 9.49187 11.14 9.28354 11.4158 9.18937C14.1183 8.27021 17.8825 8.27021 20.5841 9.18937C20.8591 9.28354 21.055 9.49187 21.1558 9.74187L22.25 13.5002M8.08332 16.0002L9.33332 16.4169M23.9166 16.0002L22.6666 16.4169M12.6666 20.5835L12.8716 20.0719C13.1758 19.311 13.3283 18.9302 13.6458 18.7152C13.9625 18.5002 14.3725 18.5002 15.1925 18.5002H16.8075C17.6275 18.5002 18.0375 18.5002 18.3541 18.7152C18.6708 18.9302 18.8241 19.311 19.1291 20.0719L19.3333 20.5835M11.835 21.4685V22.1369C11.835 22.866 11.8025 23.0027 11.5825 23.2152C11.4945 23.2934 11.397 23.3603 11.2925 23.4144C11.125 23.4977 11.0691 23.5002 9.77332 23.5002C8.44832 23.5002 8.42415 23.4985 8.21998 23.4069C8.10051 23.3506 7.99235 23.2729 7.90082 23.1777C7.68248 22.9152 7.67165 22.8377 7.66998 21.4552V18.5002M20.165 21.4685V22.1369C20.165 22.866 20.1975 23.0027 20.4175 23.2152C20.4816 23.2777 20.6125 23.3669 20.7075 23.4144C20.875 23.4977 20.9308 23.5002 22.2266 23.5002C23.5516 23.5002 23.5758 23.4985 23.78 23.4069C23.8942 23.3552 24.0383 23.2519 24.0991 23.1777C24.3175 22.9152 24.3283 22.8377 24.33 21.4552V18.5002M22.6666 13.5002L23.9166 13.0835M9.33332 13.5002L8.08332 13.0835M7.72165 15.9277C7.81748 15.4027 8.24082 14.8669 8.92332 14.4027C10.1533 13.5694 11.5566 13.5727 12.9633 13.521C13.43 13.5044 14.6816 13.4977 16 13.501C17.3183 13.4977 18.5708 13.5035 19.0366 13.521C20.4425 13.5727 21.8466 13.5694 23.0766 14.4035C23.76 14.8669 24.1825 15.4035 24.2783 15.9285C24.3616 16.3785 24.3483 17.9235 24.2533 19.0144C24.2033 19.5894 24.1516 19.8694 24.0758 19.9869C23.845 20.3419 23.1808 20.641 22.2025 20.8285C21.285 21.0035 21.4216 21.0002 16 21.0002C10.5783 21.0002 10.715 21.0044 9.79748 20.8277C8.81915 20.641 8.15498 20.3419 7.92415 19.9869C7.84832 19.8702 7.79665 19.5894 7.74665 19.0144C7.65165 17.9235 7.63832 16.3785 7.72165 15.9277Z" stroke="#070D17" stroke-linecap="round" stroke-linejoin="round"/>
</svg>
